  0
SECTION
  2
HEADER
  9
$ACADVER
  1
AC1006
  0
ENDSEC
  0
SECTION
  2
TABLES
  0
TABLE
  2
LTYPE
 70
    25
  0
LTYPE
  2
CONTINUOUS
 70
    64
  3
Solid line
 72
    64
 73
     0
 40
0.000000
  0
LTYPE
  2
DASHDOT
 70
    64
  3
__ . __ . __ . __ . __ . __ . __ . __ . __ . __
 72
    65
 73
     4
 40
1.000000
 49
0.500000
 49
-0.250000
 49
0.000000
 49
-0.250000
  0
LTYPE
  2
DASHED
 70
    64
  3
__ __ __ __ __ __ __ __ __ __ __ __ __ __ __ __
 72
    65
 73
     2
 40
0.750000
 49
0.500000
 49
-0.250000
  0
LTYPE
  2
DIVIDE
 70
    64
  3
____ . . ____ . . ____ . . ____ . . ____ . . __
 72
    65
 73
     6
 40
1.250000
 49
0.500000
 49
-0.250000
 49
0.000000
 49
-0.250000
 49
0.000000
 49
-0.250000
  0
LTYPE
  2
DOT
 70
    64
  3
. . . . . . . . . . . . . . . . . . . . . . . . 
 72
    65
 73
     2
 40
0.250000
 49
0.000000
 49
-0.250000
  0
ENDTAB
  0
ENDSEC
  0
SECTION
  2
BLOCKS
  0
BLOCK
  8
0
  2
Object_0
 70
    64
 10
0.000000
 20
0.000000
 30
0.000000
  0
ENDBLK
  0
ENDSEC
  0
SECTION
  2
ENTITIES
  0
CIRCLE
  8
Default
 62
     9
  6
CONTINUOUS
 10
0.000000
 20
0.000000
 30
-0.125000
 40
4.251000
  0
CIRCLE
  8
Default
 62
     9
  6
CONTINUOUS
 10
0.000000
 20
0.000000
 30
-0.625000
 40
3.000000
  0
CIRCLE
  8
Default
 62
     9
  6
CONTINUOUS
 10
0.000000
 20
3.625000
 30
0.000000
 40
0.265625
  0
CIRCLE
  8
Default
 62
     9
  6
CONTINUOUS
 10
3.625000
 20
0.000000
 30
0.000000
 40
0.265625
  0
CIRCLE
  8
Default
 62
     9
  6
CONTINUOUS
 10
-3.625000
 20
0.000000
 30
0.000000
 40
0.265625
  0
CIRCLE
  8
Default
 62
     9
  6
CONTINUOUS
 10
-0.000000
 20
-3.625000
 30
0.000000
 40
0.265625
  0
LINE
  8
Default
 62
     7
  6
CONTINUOUS
 10
-0.856903
 20
7.204168
 30
0.000000
 11
0.000000
 21
0.000000
 31
0.000000
  0
LINE
  8
Default
 62
     7
  6
CONTINUOUS
 10
-1.692010
 20
0.201790
 30
0.000000
 11
-0.856903
 21
7.204168
 31
0.000000
  0
LINE
  8
Default
 62
     7
  6
CONTINUOUS
 10
0.000000
 20
0.000000
 30
0.000000
 11
-2.442145
 21
-6.088475
 31
0.000000
  0
POINT
  8
Default
 62
     7
 10
-1.677107
 20
0.315553
 30
0.000000
  0
LINE
  8
Default
 62
     7
  6
CONTINUOUS
 10
0.000000
 20
0.000000
 30
0.000000
 11
-1.692010
 21
0.201790
 31
0.000000
  0
LINE
  8
Default
 62
     7
  6
CONTINUOUS
 10
-1.692010
 20
0.201790
 30
0.000000
 11
-2.442209
 21
-6.088634
 31
0.000000
  0
POINT
  8
Default
 62
     7
 10
6.177141
 20
0.198233
 30
0.000000
  0
POINT
  8
Default
 62
     7
 10
5.850394
 20
2.654092
 30
0.000000
  0
POINT
  8
Default
 62
     7
 10
3.204372
 20
7.104381
 30
0.000000
  0
LINE
  8
Default
 62
     7
  6
CONTINUOUS
 10
5.850394
 20
2.654092
 30
0.000000
 11
-0.856903
 21
7.204168
 31
0.000000
  0
POINT
  8
Default
 62
     7
 10
-0.856903
 20
7.204168
 30
0.000000
  0
POINT
  8
Default
 62
     7
 10
-2.356233
 20
7.106631
 30
0.000000
  0
LINE
  8
Default
 62
     7
  6
CONTINUOUS
 10
6.177141
 20
0.198233
 30
0.000000
 11
-6.177880
 21
0.198227
 31
0.000000
  0
LINE
  8
Default
 62
     7
  6
CONTINUOUS
 10
6.177141
 20
0.198233
 30
0.000000
 11
5.850394
 21
2.654092
 31
0.000000
  0
LINE
  8
Default
 62
     7
  6
CONTINUOUS
 10
-6.177880
 20
0.198227
 30
0.000000
 11
-0.856903
 21
7.204168
 31
0.000000
  0
POINT
  8
Default
 62
     7
 10
-6.177880
 20
0.198227
 30
0.000000
  0
LINE
  8
Default
 62
     7
  6
CONTINUOUS
 10
-0.856903
 20
7.204168
 30
0.000000
 11
3.204372
 21
7.104381
 31
0.000000
  0
LINE
  8
Default
 62
     7
  6
CONTINUOUS
 10
3.204372
 20
7.104381
 30
0.000000
 11
5.850394
 21
2.654092
 31
0.000000
  0
POINT
  8
Default
 62
     7
 10
-2.442209
 20
-6.088634
 30
0.000000
  0
LINE
  8
Default
 62
     7
  6
CONTINUOUS
 10
-0.856903
 20
7.204168
 30
0.000000
 11
-2.356233
 21
7.106631
 31
0.000000
  0
LINE
  8
Default
 62
     7
  6
CONTINUOUS
 10
-2.356233
 20
7.106631
 30
0.000000
 11
-6.177880
 21
0.198227
 31
0.000000
  0
LINE
  8
Default
 62
     7
  6
CONTINUOUS
 10
-2.356233
 20
7.106631
 30
0.000000
 11
3.204372
 21
7.104381
 31
0.000000
  0
LINE
  8
Default
 62
     7
  6
CONTINUOUS
 10
3.598155
 20
7.298145
 30
0.000000
 11
6.193725
 21
2.932711
 31
0.000000
  0
ARC
  8
Default
 62
     7
  6
CONTINUOUS
 10
5.549067
 20
2.549414
 30
0.000000
 40
0.750000
 50
7.578583
 51
30.734581
  0
LINE
  8
Default
 62
     7
  6
CONTINUOUS
 10
-2.442145
 20
-6.088475
 30
0.000000
 11
-2.442209
 21
-6.088634
 31
0.000000
  0
POINT
  8
Default
 62
     7
 10
0.000000
 20
0.000000
 30
0.000000
  0
LINE
  8
Default
 62
     7
  6
CONTINUOUS
 10
6.622227
 20
0.170194
 30
0.000000
 11
6.292516
 21
2.648329
 31
0.000000
  0
ARC
  8
Default
 62
     7
  6
CONTINUOUS
 10
5.878778
 20
0.071279
 30
0.000000
 40
0.750000
 50
341.790128
 51
367.578583
  0
LINE
  8
Default
 62
     7
  6
CONTINUOUS
 10
5.073718
 20
-4.775914
 30
0.000000
 11
6.591217
 21
-0.163095
 31
0.000000
  0
ARC
  8
Default
 62
     7
  6
CONTINUOUS
 10
4.361280
 20
-4.541540
 30
0.000000
 40
0.750000
 50
306.869898
 51
341.790128
  0
LINE
  8
Default
 62
     7
  6
CONTINUOUS
 10
4.127426
 20
-5.654431
 30
0.000000
 11
4.811280
 21
-5.141540
 31
0.000000
  0
ARC
  8
Default
 62
     7
  6
CONTINUOUS
 10
3.677426
 20
-5.054431
 30
0.000000
 40
0.750000
 50
282.889632
 51
306.869898
  0
LINE
  8
Default
 62
     7
  6
CONTINUOUS
 10
1.082585
 20
-6.417622
 30
0.000000
 11
3.844731
 21
-5.785532
 31
0.000000
  0
ARC
  8
Default
 62
     7
  6
CONTINUOUS
 10
0.915280
 20
-5.686520
 30
0.000000
 40
0.750000
 50
270.000000
 51
282.889632
  0
LINE
  8
Default
 62
     7
  6
CONTINUOUS
 10
-2.432634
 20
-6.436520
 30
0.000000
 11
0.915280
 21
-6.436520
 31
0.000000
  0
ARC
  8
Default
 62
     7
  6
CONTINUOUS
 10
-2.432634
 20
-5.686520
 30
0.000000
 40
0.750000
 50
246.839263
 51
270.000000
  0
ARC
  8
Default
 62
     7
  6
CONTINUOUS
 10
0.000000
 20
0.000000
 30
0.000000
 40
6.935000
 50
226.589005
 51
246.839263
  0
CIRCLE
  8
Default
 62
     9
  6
CONTINUOUS
 10
-2.356233
 20
7.106631
 30
0.000000
 40
0.218750
  0
CIRCLE
  8
Default
 62
     9
  6
CONTINUOUS
 10
3.204372
 20
7.104381
 30
0.000000
 40
0.218750
  0
CIRCLE
  8
Default
 62
     9
  6
CONTINUOUS
 10
-6.177880
 20
0.198227
 30
0.000000
 40
0.218750
  0
CIRCLE
  8
Default
 62
     9
  6
CONTINUOUS
 10
6.177141
 20
0.198233
 30
0.000000
 40
0.218750
  0
CIRCLE
  8
Default
 62
     9
  6
CONTINUOUS
 10
-0.856903
 20
7.204168
 30
0.000000
 40
0.187500
  0
CIRCLE
  8
Default
 62
     9
  6
CONTINUOUS
 10
5.850394
 20
2.654092
 30
0.000000
 40
0.187500
  0
CIRCLE
  8
Default
 62
     9
  6
CONTINUOUS
 10
-2.442209
 20
-6.088634
 30
0.000000
 40
0.187500
  0
ARC
  8
Default
 62
     7
  6
CONTINUOUS
 10
-4.250499
 20
-4.493049
 30
-0.000000
 40
0.750000
 50
198.545284
 51
226.589005
  0
LINE
  8
Default
 62
     7
  6
CONTINUOUS
 10
-4.961553
 20
-4.731589
 30
-0.000000
 11
-6.615380
 21
0.198227
 31
-0.000000
  0
LINE
  8
Default
 62
     7
  6
CONTINUOUS
 10
-6.615380
 20
0.198227
 30
-0.000000
 11
-7.387772
 21
2.500614
 31
0.000000
  0
ARC
  8
Default
 62
     7
  6
CONTINUOUS
 10
-4.543554
 20
3.454776
 30
0.000000
 40
3.000000
 50
111.551083
 51
198.545284
  0
LINE
  8
Default
 62
     7
  6
CONTINUOUS
 10
-5.645546
 20
6.245048
 30
0.000000
 11
-2.465651
 21
7.500918
 31
-0.000000
  0
ARC
  8
Default
 62
     7
  6
CONTINUOUS
 10
-2.190153
 20
6.803350
 30
-0.000000
 40
0.750000
 50
93.722057
 51
111.551083
  0
LINE
  8
Default
 62
     7
  6
CONTINUOUS
 10
-2.238840
 20
7.551768
 30
-0.000000
 11
-0.890427
 21
7.639487
 31
0.000000
  0
ARC
  8
Default
 62
     7
  6
CONTINUOUS
 10
-0.841740
 20
6.891069
 30
0.000000
 40
0.750000
 50
88.592497
 51
93.722057
  0
LINE
  8
Default
 62
     7
  6
CONTINUOUS
 10
-0.823318
 20
7.640843
 30
0.000000
 11
3.180665
 21
7.542463
 31
0.000000
  0
ARC
  8
Default
 62
     7
  6
CONTINUOUS
 10
3.168383
 20
7.042614
 30
0.000000
 40
0.500000
 50
30.734581
 51
88.592497
  0
INSERT
  8
Default
 62
     7
  2
Object_0
 10
-10.160000
 20
-10.160000
 30
0.000000
  0
ARC
  8
Default
 62
     7
  6
CONTINUOUS
 10
7.798924
 20
3.887119
 30
0.000000
 40
1.500000
 50
210.734581
 51
300.734581
  0
LINE
  8
Default
 62
     7
  6
CONTINUOUS
 10
6.509608
 20
3.120526
 30
0.000000
 11
3.914038
 21
7.485960
 31
0.000000
  0
ARC
  8
Default
 62
     7
  6
CONTINUOUS
 10
3.168383
 20
7.042614
 30
0.000000
 40
0.867500
 50
30.734581
 51
88.592497
  0
LINE
  8
Default
 62
     7
  6
CONTINUOUS
 10
3.189692
 20
7.909852
 30
0.000000
 11
-0.814291
 21
8.008232
 31
0.000000
  0
ARC
  8
Default
 62
     7
  6
CONTINUOUS
 10
-0.841740
 20
6.891069
 30
0.000000
 40
1.117500
 50
88.592497
 51
93.722057
  0
LINE
  8
Default
 62
     7
  6
CONTINUOUS
 10
-0.914284
 20
8.006212
 30
0.000000
 11
-2.262697
 21
7.918493
 31
-0.000000
  0
ARC
  8
Default
 62
     7
  6
CONTINUOUS
 10
-2.190153
 20
6.803350
 30
-0.000000
 40
1.117500
 50
93.722057
 51
111.551083
  0
LINE
  8
Default
 62
     7
  6
CONTINUOUS
 10
-2.600645
 20
7.842726
 30
-0.000000
 11
-5.780540
 21
6.586856
 31
0.000000
  0
ARC
  8
Default
 62
     7
  6
CONTINUOUS
 10
-4.543554
 20
3.454776
 30
0.000000
 40
3.367500
 50
111.551083
 51
198.545284
  0
LINE
  8
Default
 62
     7
  6
CONTINUOUS
 10
-7.736189
 20
2.383729
 30
0.000000
 11
-6.963797
 21
0.081343
 31
-0.000000
  0
LINE
  8
Default
 62
     7
  6
CONTINUOUS
 10
-6.963797
 20
0.081343
 30
-0.000000
 11
-5.309970
 21
-4.848474
 31
-0.000000
  0
ARC
  8
Default
 62
     7
  6
CONTINUOUS
 10
-4.250499
 20
-4.493049
 30
-0.000000
 40
1.117500
 50
198.545284
 51
226.589005
  0
ARC
  8
Default
 62
     7
  6
CONTINUOUS
 10
0.000000
 20
-0.000000
 30
0.000000
 40
7.302500
 50
226.589005
 51
246.839263
  0
ARC
  8
Default
 62
     7
  6
CONTINUOUS
 10
-2.432634
 20
-5.686520
 30
0.000000
 40
1.117500
 50
246.839263
 51
270.000000
  0
LINE
  8
Default
 62
     7
  6
CONTINUOUS
 10
-2.432634
 20
-6.804020
 30
0.000000
 11
0.915280
 21
-6.804020
 31
0.000000
  0
ARC
  8
Default
 62
     7
  6
CONTINUOUS
 10
0.915280
 20
-5.686520
 30
0.000000
 40
1.117500
 50
270.000000
 51
282.889632
  0
LINE
  8
Default
 62
     7
  6
CONTINUOUS
 10
1.164565
 20
-6.775861
 30
0.000000
 11
3.926711
 21
-6.143771
 31
0.000000
  0
ARC
  8
Default
 62
     7
  6
CONTINUOUS
 10
3.677426
 20
-5.054431
 30
0.000000
 40
1.117500
 50
282.889632
 51
306.869898
  0
LINE
  8
Default
 62
     7
  6
CONTINUOUS
 10
4.347926
 20
-5.948431
 30
0.000000
 11
5.031780
 21
-5.435540
 31
0.000000
  0
ARC
  8
Default
 62
     7
  6
CONTINUOUS
 10
4.361280
 20
-4.541540
 30
0.000000
 40
1.117500
 50
306.869898
 51
341.790128
  0
LINE
  8
Default
 62
     7
  6
CONTINUOUS
 10
5.422813
 20
-4.890757
 30
0.000000
 11
6.940312
 21
-0.277938
 31
0.000000
  0
ARC
  8
Default
 62
     7
  6
CONTINUOUS
 10
5.878778
 20
0.071279
 30
0.000000
 40
1.117500
 50
341.790128
 51
367.578583
  0
LINE
  8
Default
 62
     7
  6
CONTINUOUS
 10
6.986517
 20
0.218662
 30
0.000000
 11
6.656806
 21
2.696797
 31
0.000000
  0
ARC
  8
Default
 62
     7
  6
CONTINUOUS
 10
5.549067
 20
2.549414
 30
0.000000
 40
1.117500
 50
7.578583
 51
30.734581
  0
ARC
  8
Default
 62
     7
  6
CONTINUOUS
 10
7.798924
 20
3.887119
 30
0.000000
 40
1.500000
 50
120.734581
 51
210.734581
  0
ARC
  8
Default
 62
     7
  6
CONTINUOUS
 10
5.203354
 20
8.252553
 30
0.000000
 40
1.500000
 50
120.734581
 51
210.734581
  0
LINE
  8
Default
 62
     7
  6
CONTINUOUS
 10
3.914038
 20
7.485960
 30
0.000000
 11
6.509608
 21
3.120526
 31
0.000000
  0
ARC
  8
Default
 62
     7
  6
CONTINUOUS
 10
5.549067
 20
2.549414
 30
0.000000
 40
1.117500
 50
7.578583
 51
30.734581
  0
LINE
  8
Default
 62
     7
  6
CONTINUOUS
 10
6.656806
 20
2.696797
 30
0.000000
 11
6.986517
 21
0.218662
 31
0.000000
  0
ARC
  8
Default
 62
     7
  6
CONTINUOUS
 10
5.878778
 20
0.071279
 30
0.000000
 40
1.117500
 50
341.790128
 51
367.578583
  0
LINE
  8
Default
 62
     7
  6
CONTINUOUS
 10
6.940312
 20
-0.277938
 30
0.000000
 11
5.422813
 21
-4.890757
 31
0.000000
  0
ARC
  8
Default
 62
     7
  6
CONTINUOUS
 10
4.361280
 20
-4.541540
 30
0.000000
 40
1.117500
 50
306.869898
 51
341.790128
  0
LINE
  8
Default
 62
     7
  6
CONTINUOUS
 10
5.031780
 20
-5.435540
 30
0.000000
 11
4.347926
 21
-5.948431
 31
0.000000
  0
ARC
  8
Default
 62
     7
  6
CONTINUOUS
 10
3.677426
 20
-5.054431
 30
0.000000
 40
1.117500
 50
282.889632
 51
306.869898
  0
LINE
  8
Default
 62
     7
  6
CONTINUOUS
 10
3.926711
 20
-6.143771
 30
0.000000
 11
1.164565
 21
-6.775861
 31
0.000000
  0
ARC
  8
Default
 62
     7
  6
CONTINUOUS
 10
0.915280
 20
-5.686520
 30
0.000000
 40
1.117500
 50
270.000000
 51
282.889632
  0
LINE
  8
Default
 62
     7
  6
CONTINUOUS
 10
0.915280
 20
-6.804020
 30
0.000000
 11
-2.432634
 21
-6.804020
 31
0.000000
  0
ARC
  8
Default
 62
     7
  6
CONTINUOUS
 10
-2.432634
 20
-5.686520
 30
0.000000
 40
1.117500
 50
246.839263
 51
270.000000
  0
ARC
  8
Default
 62
     7
  6
CONTINUOUS
 10
0.000000
 20
0.000000
 30
0.000000
 40
7.302500
 50
226.589005
 51
246.839263
  0
ARC
  8
Default
 62
     7
  6
CONTINUOUS
 10
-4.250499
 20
-4.493049
 30
-0.000000
 40
1.117500
 50
198.545284
 51
226.589005
  0
LINE
  8
Default
 62
     7
  6
CONTINUOUS
 10
-5.309970
 20
-4.848474
 30
-0.000000
 11
-6.963797
 21
0.081343
 31
-0.000000
  0
LINE
  8
Default
 62
     7
  6
CONTINUOUS
 10
-6.963797
 20
0.081343
 30
-0.000000
 11
-7.736189
 21
2.383729
 31
0.000000
  0
ARC
  8
Default
 62
     7
  6
CONTINUOUS
 10
-4.543554
 20
3.454776
 30
0.000000
 40
3.367500
 50
111.551083
 51
198.545284
  0
LINE
  8
Default
 62
     7
  6
CONTINUOUS
 10
-5.780540
 20
6.586856
 30
0.000000
 11
-2.600645
 21
7.842726
 31
-0.000000
  0
ARC
  8
Default
 62
     7
  6
CONTINUOUS
 10
-2.190153
 20
6.803350
 30
-0.000000
 40
1.117500
 50
93.722057
 51
111.551083
  0
LINE
  8
Default
 62
     7
  6
CONTINUOUS
 10
-2.262697
 20
7.918493
 30
-0.000000
 11
-0.914284
 21
8.006212
 31
0.000000
  0
ARC
  8
Default
 62
     7
  6
CONTINUOUS
 10
-0.841740
 20
6.891069
 30
0.000000
 40
1.117500
 50
88.592497
 51
93.722057
  0
LINE
  8
Default
 62
     7
  6
CONTINUOUS
 10
-0.814291
 20
8.008232
 30
0.000000
 11
3.189692
 21
7.909852
 31
0.000000
  0
ARC
  8
Default
 62
     7
  6
CONTINUOUS
 10
3.168383
 20
7.042614
 30
0.000000
 40
0.867500
 50
30.734581
 51
88.592497
  0
ARC
  8
Default
 62
     7
  6
CONTINUOUS
 10
5.203354
 20
8.252553
 30
0.000000
 40
1.500000
 50
210.734581
 51
300.734581
  0
LINE
  8
Default
 62
     7
  6
CONTINUOUS
 10
3.909740
 20
7.483405
 30
0.000000
 11
6.505310
 21
3.117971
 31
0.000000
  0
ARC
  8
Default
 62
     7
  6
CONTINUOUS
 10
5.549067
 20
2.549414
 30
0.000000
 40
1.112500
 50
7.578583
 51
30.734581
  0
LINE
  8
Default
 62
     7
  6
CONTINUOUS
 10
6.651850
 20
2.696138
 30
0.000000
 11
6.981561
 21
0.218002
 31
0.000000
  0
ARC
  8
Default
 62
     7
  6
CONTINUOUS
 10
5.878778
 20
0.071279
 30
0.000000
 40
1.112500
 50
341.790128
 51
367.578583
  0
LINE
  8
Default
 62
     7
  6
CONTINUOUS
 10
6.935562
 20
-0.276375
 30
0.000000
 11
5.418064
 21
-4.889195
 31
0.000000
  0
ARC
  8
Default
 62
     7
  6
CONTINUOUS
 10
4.361280
 20
-4.541540
 30
0.000000
 40
1.112500
 50
306.869898
 51
341.790128
  0
LINE
  8
Default
 62
     7
  6
CONTINUOUS
 10
5.028780
 20
-5.431540
 30
0.000000
 11
4.344926
 21
-5.944431
 31
0.000000
  0
ARC
  8
Default
 62
     7
  6
CONTINUOUS
 10
3.677426
 20
-5.054431
 30
0.000000
 40
1.112500
 50
282.889632
 51
306.869898
  0
LINE
  8
Default
 62
     7
  6
CONTINUOUS
 10
3.925595
 20
-6.138897
 30
0.000000
 11
1.163449
 21
-6.770987
 31
0.000000
  0
ARC
  8
Default
 62
     7
  6
CONTINUOUS
 10
0.915280
 20
-5.686520
 30
0.000000
 40
1.112500
 50
270.000000
 51
282.889632
  0
LINE
  8
Default
 62
     7
  6
CONTINUOUS
 10
0.915280
 20
-6.799020
 30
0.000000
 11
-2.432634
 21
-6.799020
 31
0.000000
  0
ARC
  8
Default
 62
     7
  6
CONTINUOUS
 10
-2.432634
 20
-5.686520
 30
0.000000
 40
1.112500
 50
246.839263
 51
270.000000
  0
ARC
  8
Default
 62
     7
  6
CONTINUOUS
 10
0.000000
 20
0.000000
 30
0.000000
 40
7.297500
 50
226.589005
 51
246.839263
  0
ARC
  8
Default
 62
     7
  6
CONTINUOUS
 10
-4.250499
 20
-4.493049
 30
-0.000000
 40
1.112500
 50
198.545284
 51
226.589005
  0
LINE
  8
Default
 62
     7
  6
CONTINUOUS
 10
-5.305229
 20
-4.846884
 30
-0.000000
 11
-6.959057
 21
0.082933
 31
-0.000000
  0
LINE
  8
Default
 62
     7
  6
CONTINUOUS
 10
-6.959057
 20
0.082933
 30
-0.000000
 11
-7.731448
 21
2.385319
 31
0.000000
  0
ARC
  8
Default
 62
     7
  6
CONTINUOUS
 10
-4.543554
 20
3.454776
 30
0.000000
 40
3.362500
 50
111.551083
 51
198.545284
  0
LINE
  8
Default
 62
     7
  6
CONTINUOUS
 10
-5.778703
 20
6.582205
 30
0.000000
 11
-2.598808
 21
7.838076
 31
-0.000000
  0
ARC
  8
Default
 62
     7
  6
CONTINUOUS
 10
-2.190153
 20
6.803350
 30
-0.000000
 40
1.112500
 50
93.722057
 51
111.551083
  0
LINE
  8
Default
 62
     7
  6
CONTINUOUS
 10
-2.262372
 20
7.913503
 30
-0.000000
 11
-0.913959
 21
8.001223
 31
0.000000
  0
ARC
  8
Default
 62
     7
  6
CONTINUOUS
 10
-0.841740
 20
6.891069
 30
0.000000
 40
1.112500
 50
88.592497
 51
93.722057
  0
LINE
  8
Default
 62
     7
  6
CONTINUOUS
 10
-0.814413
 20
8.003234
 30
0.000000
 11
3.189569
 21
7.904854
 31
0.000000
  0
ARC
  8
Default
 62
     7
  6
CONTINUOUS
 10
3.168383
 20
7.042614
 30
0.000000
 40
0.862500
 50
30.734581
 51
88.592497
  0
CIRCLE
  8
Default
 62
     7
  6
CONTINUOUS
 10
0.000000
 20
0.000000
 30
-0.625000
 40
2.632500
  0
CIRCLE
  8
Default
 62
     7
  6
CONTINUOUS
 10
0.000000
 20
0.000000
 30
-0.625000
 40
2.632500
  0
CIRCLE
  8
Default
 62
     7
  6
CONTINUOUS
 10
0.000000
 20
0.000000
 30
-0.625000
 40
2.637500
  0
ENDSEC
  0
EOF
