  0
SECTION
  2
HEADER
  9
$ACADVER
  1
AC1006
  0
ENDSEC
  0
SECTION
  2
TABLES
  0
TABLE
  2
LTYPE
 70
    25
  0
LTYPE
  2
CONTINUOUS
 70
    64
  3
Solid line
 72
    64
 73
     0
 40
0.000000
  0
LTYPE
  2
DASHDOT
 70
    64
  3
__ . __ . __ . __ . __ . __ . __ . __ . __ . __
 72
    65
 73
     4
 40
1.000000
 49
0.500000
 49
-0.250000
 49
0.000000
 49
-0.250000
  0
LTYPE
  2
DASHED
 70
    64
  3
__ __ __ __ __ __ __ __ __ __ __ __ __ __ __ __
 72
    65
 73
     2
 40
0.750000
 49
0.500000
 49
-0.250000
  0
LTYPE
  2
DIVIDE
 70
    64
  3
____ . . ____ . . ____ . . ____ . . ____ . . __
 72
    65
 73
     6
 40
1.250000
 49
0.500000
 49
-0.250000
 49
0.000000
 49
-0.250000
 49
0.000000
 49
-0.250000
  0
LTYPE
  2
DOT
 70
    64
  3
. . . . . . . . . . . . . . . . . . . . . . . . 
 72
    65
 73
     2
 40
0.250000
 49
0.000000
 49
-0.250000
  0
ENDTAB
  0
ENDSEC
  0
SECTION
  2
BLOCKS
  0
BLOCK
  8
0
  2
Object_0
 70
    64
 10
0.000000
 20
0.000000
 30
0.000000
  0
ENDBLK
  0
ENDSEC
  0
SECTION
  2
ENTITIES
  0
CIRCLE
  8
Default
 62
     9
  6
CONTINUOUS
 10
0.000000
 20
0.000000
 30
-0.125000
 40
4.251000
  0
CIRCLE
  8
Default
 62
     9
  6
CONTINUOUS
 10
0.000000
 20
0.000000
 30
-0.625000
 40
3.000000
  0
CIRCLE
  8
Default
 62
     9
  6
CONTINUOUS
 10
0.000000
 20
3.625000
 30
0.000000
 40
0.265625
  0
CIRCLE
  8
Default
 62
     9
  6
CONTINUOUS
 10
3.625000
 20
0.000000
 30
0.000000
 40
0.265625
  0
CIRCLE
  8
Default
 62
     9
  6
CONTINUOUS
 10
-3.625000
 20
0.000000
 30
0.000000
 40
0.265625
  0
CIRCLE
  8
Default
 62
     9
  6
CONTINUOUS
 10
-0.000000
 20
-3.625000
 30
0.000000
 40
0.265625
  0
POINT
  8
Default
 62
     7
 10
4.884811
 20
5.069627
 30
0.000000
  0
POINT
  8
Default
 62
     7
 10
-2.437868
 20
8.110020
 30
0.000000
  0
POINT
  8
Default
 62
     7
 10
4.884811
 20
5.069627
 30
0.000000
  0
LINE
  8
Default
 62
     7
  6
CONTINUOUS
 10
6.959794
 20
0.364337
 30
0.000000
 11
6.959766
 21
0.364400
 31
0.000000
  0
POINT
  8
Default
 62
     7
 10
2.668262
 20
8.049234
 30
0.000000
  0
POINT
  8
Default
 62
     7
 10
-7.685692
 20
1.161806
 30
0.000000
  0
LINE
  8
DIM
 62
     6
  6
CONTINUOUS
 10
6.990153
 20
0.407150
 30
0.000000
 11
0.000000
 21
0.000000
 31
0.000000
  0
LINE
  8
DIM
 62
     6
  6
CONTINUOUS
 10
-4.888035
 20
5.400331
 30
0.000000
 11
-0.000015
 21
-0.000032
 31
0.000000
  0
LINE
  8
DIM
 62
     6
  6
CONTINUOUS
 10
-4.888035
 20
5.400331
 30
0.000000
 11
1.194095
 21
2.840155
 31
0.000000
  0
LINE
  8
DIM
 62
     6
  6
CONTINUOUS
 10
1.194095
 20
2.840155
 30
0.000000
 11
6.990153
 21
0.407150
 31
0.000000
  0
LINE
  8
DIM
 62
     6
  6
CONTINUOUS
 10
-0.000015
 20
-0.000032
 30
0.000000
 11
1.194095
 21
2.840155
 31
0.000000
  0
POINT
  8
Default
 62
     7
 10
6.990153
 20
0.407150
 30
0.000000
  0
POINT
  8
Default
 62
     7
 10
-0.000014
 20
-0.000033
 30
0.000000
  0
POINT
  8
Default
 62
     7
 10
1.194095
 20
2.840155
 30
0.000000
  0
POINT
  8
Default
 62
     7
 10
-4.888035
 20
5.400331
 30
0.000000
  0
CIRCLE
  8
Default
 62
     6
  6
CONTINUOUS
 10
4.424378
 20
-6.148641
 30
0.000000
 40
0.156250
  0
CIRCLE
  8
Default
 62
     6
  6
CONTINUOUS
 10
6.990153
 20
0.407150
 30
0.000000
 40
0.363000
  0
LINE
  8
Default
 62
     7
  6
CONTINUOUS
 10
3.013396
 20
8.555150
 30
0.000000
 11
8.373725
 21
8.555150
 31
0.000000
  0
LINE
  8
Default
 62
     7
  6
CONTINUOUS
 10
0.008114
 20
-0.000033
 30
0.000000
 11
8.373725
 21
-0.000033
 31
0.000000
  0
LINE
  8
Default
 62
     7
  6
CONTINUOUS
 10
8.361533
 20
8.555150
 30
0.000000
 11
8.361533
 21
-0.000033
 31
0.000000
  0
LINE
  8
Default
 62
     7
  6
CONTINUOUS
 10
8.361533
 20
8.555150
 30
0.000000
 11
8.373533
 21
8.475150
 31
0.000000
  0
LINE
  8
Default
 62
     7
  6
CONTINUOUS
 10
8.361533
 20
8.555150
 30
0.000000
 11
8.349533
 21
8.475150
 31
0.000000
  0
LINE
  8
Default
 62
     7
  6
CONTINUOUS
 10
8.361533
 20
-0.000033
 30
0.000000
 11
8.349533
 21
0.079967
 31
0.000000
  0
LINE
  8
Default
 62
     7
  6
CONTINUOUS
 10
8.361533
 20
-0.000033
 30
0.000000
 11
8.373533
 21
0.079967
 31
0.000000
  0
TEXT
  8
Default
 62
     7
 10
8.280253
 20
0.330267
 30
0.000000
 40
0.200000
  1
8.555
 50
90.000003
 72
     1
 11
8.280253
 21
0.637558
 31
0.000000
  0
LINE
  8
Default
 62
     7
  6
CONTINUOUS
 10
-0.000016
 20
-0.008160
 30
0.000000
 11
-0.000016
 21
-0.023052
 31
0.000000
  0
LINE
  8
Default
 62
     7
  6
CONTINUOUS
 10
8.229355
 20
-3.676484
 30
0.000000
 11
8.229355
 21
0.001332
 31
0.000000
  0
LINE
  8
Default
 62
     7
  6
CONTINUOUS
 10
-0.000016
 20
-0.010860
 30
0.000000
 11
9.369523
 21
-0.010860
 31
0.000000
  0
LINE
  8
Default
 62
     7
  6
CONTINUOUS
 10
-0.000016
 20
-0.010860
 30
0.000000
 11
0.079984
 21
0.001140
 31
0.000000
  0
LINE
  8
Default
 62
     7
  6
CONTINUOUS
 10
-0.000016
 20
-0.010860
 30
0.000000
 11
0.079984
 21
-0.022860
 31
0.000000
  0
LINE
  8
Default
 62
     7
  6
CONTINUOUS
 10
8.229355
 20
-0.010860
 30
0.000000
 11
8.149355
 21
-0.022860
 31
0.000000
  0
LINE
  8
Default
 62
     7
  6
CONTINUOUS
 10
8.229355
 20
-0.010860
 30
0.000000
 11
8.149355
 21
0.001140
 31
0.000000
  0
TEXT
  8
Default
 62
     7
 10
8.738683
 20
0.070420
 30
0.000000
 40
0.200000
  1
8.229
 72
     1
 11
9.045975
 21
0.070420
 31
0.000000
  0
LINE
  8
Default
 62
     7
  6
CONTINUOUS
 10
0.008128
 20
-0.000000
 30
-0.125000
 11
8.373725
 21
-0.000000
 31
-0.125000
  0
LINE
  8
Default
 62
     7
  6
CONTINUOUS
 10
0.008115
 20
-7.280033
 30
-0.000000
 11
8.373725
 21
-7.280033
 31
-0.000000
  0
LINE
  8
Default
 62
     7
  6
CONTINUOUS
 10
8.361533
 20
-0.000000
 30
-0.125000
 11
8.361533
 21
-7.280033
 31
-0.000000
  0
LINE
  8
Default
 62
     7
  6
CONTINUOUS
 10
8.361533
 20
-0.000000
 30
-0.125000
 11
8.373533
 21
-0.079989
 31
-0.123627
  0
LINE
  8
Default
 62
     7
  6
CONTINUOUS
 10
8.361533
 20
-0.000000
 30
-0.125000
 11
8.349533
 21
-0.079989
 31
-0.123627
  0
LINE
  8
Default
 62
     7
  6
CONTINUOUS
 10
8.361533
 20
-7.280033
 30
-0.000000
 11
8.349533
 21
-7.200045
 31
-0.001374
  0
LINE
  8
Default
 62
     7
  6
CONTINUOUS
 10
8.361533
 20
-7.280033
 30
-0.000000
 11
8.373533
 21
-7.200045
 31
-0.001374
  0
TEXT
  8
Default
 62
     7
 10
-8.280267
 20
7.053330
 30
-0.124982
 40
0.200000
  1
7.281
 50
-89.999893
 72
     1
 11
-8.280266
 21
6.746038
 31
-0.124982
210
0.000000
220
0.017168
230
0.999853
  0
LINE
  8
Default
 62
     7
  6
CONTINUOUS
 10
-0.000528
 20
0.008111
 30
0.000000
 11
-0.039734
 21
0.610901
 31
0.000000
  0
LINE
  8
Default
 62
     7
  6
CONTINUOUS
 10
6.986709
 20
0.462576
 30
0.000000
 11
6.947502
 21
1.065366
 31
0.000000
  0
LINE
  8
Default
 62
     7
  6
CONTINUOUS
 10
-0.038943
 20
0.598735
 30
0.000000
 11
6.948293
 21
1.053200
 31
0.000000
  0
LINE
  8
Default
 62
     7
  6
CONTINUOUS
 10
-0.038943
 20
0.598735
 30
0.000000
 11
0.040109
 21
0.615902
 31
0.000000
  0
LINE
  8
Default
 62
     7
  6
CONTINUOUS
 10
-0.038943
 20
0.598735
 30
0.000000
 11
0.041667
 21
0.591953
 31
0.000000
  0
LINE
  8
Default
 62
     7
  6
CONTINUOUS
 10
6.948293
 20
1.053200
 30
0.000000
 11
6.869241
 21
1.036033
 31
0.000000
  0
LINE
  8
Default
 62
     7
  6
CONTINUOUS
 10
6.948293
 20
1.053200
 30
0.000000
 11
6.867683
 21
1.059982
 31
0.000000
  0
TEXT
  8
Default
 62
     7
 10
3.142756
 20
0.887131
 30
0.000000
 40
0.200000
  1
7.002
 50
3.721400
 72
     1
 11
3.449399
 21
0.907076
 31
0.000000
  0
LINE
  8
Default
 62
     7
  6
CONTINUOUS
 10
-0.007529
 20
0.003067
 30
0.000000
 11
-0.565951
 21
0.233410
 31
0.000000
  0
LINE
  8
Default
 62
     7
  6
CONTINUOUS
 10
1.167325
 20
2.851273
 30
0.000000
 11
0.608903
 21
3.081616
 31
0.000000
  0
LINE
  8
Default
 62
     7
  6
CONTINUOUS
 10
-0.554680
 20
0.228761
 30
0.000000
 11
0.620174
 21
3.076967
 31
0.000000
  0
LINE
  8
Default
 62
     7
  6
CONTINUOUS
 10
-0.554680
 20
0.228761
 30
0.000000
 11
-0.535268
 21
0.307292
 31
0.000000
  0
LINE
  8
Default
 62
     7
  6
CONTINUOUS
 10
-0.554680
 20
0.228761
 30
0.000000
 11
-0.513081
 21
0.298140
 31
0.000000
  0
LINE
  8
Default
 62
     7
  6
CONTINUOUS
 10
0.620174
 20
3.076967
 30
0.000000
 11
0.600761
 21
2.998436
 31
0.000000
  0
LINE
  8
Default
 62
     7
  6
CONTINUOUS
 10
0.620174
 20
3.076967
 30
0.000000
 11
0.578575
 21
3.007588
 31
0.000000
  0
TEXT
  8
Default
 62
     7
 10
-0.159569
 20
1.399785
 30
0.000000
 40
0.200000
  1
3.081
 50
67.584380
 72
     1
 11
-0.042392
 21
1.683858
 31
0.000000
  0
LINE
  8
Default
 62
     7
  6
CONTINUOUS
 10
-4.921384
 20
5.374629
 30
0.000000
 11
-4.530649
 21
6.322047
 31
0.000000
  0
LINE
  8
Default
 62
     7
  6
CONTINUOUS
 10
6.990335
 20
0.461979
 30
0.000000
 11
7.381071
 21
1.409399
 31
0.000000
  0
LINE
  8
Default
 62
     7
  6
CONTINUOUS
 10
-4.535297
 20
6.310776
 30
0.000000
 11
7.376423
 21
1.398128
 31
0.000000
  0
LINE
  8
Default
 62
     7
  6
CONTINUOUS
 10
-4.535297
 20
6.310776
 30
0.000000
 11
-4.456765
 21
6.291368
 31
0.000000
  0
LINE
  8
Default
 62
     7
  6
CONTINUOUS
 10
-4.535297
 20
6.310776
 30
0.000000
 11
-4.465915
 21
6.269181
 31
0.000000
  0
LINE
  8
Default
 62
     7
  6
CONTINUOUS
 10
7.376423
 20
1.398128
 30
0.000000
 11
7.297890
 21
1.417536
 31
0.000000
  0
LINE
  8
Default
 62
     7
  6
CONTINUOUS
 10
7.376423
 20
1.398128
 30
0.000000
 11
7.307041
 21
1.439723
 31
0.000000
  0
TEXT
  8
Default
 62
     7
 10
5.135365
 20
2.410309
 30
0.000000
 40
0.200000
  1
12.885
 50
-22.412299
 72
     1
 11
5.482040
 21
2.267333
 31
0.000000
  0
POINT
  8
Default
 62
     7
 10
-6.345348
 20
-2.103830
 30
0.000000
  0
POINT
  8
Default
 62
     7
 10
-4.226342
 20
-5.179548
 30
0.000000
  0
POINT
  8
Default
 62
     7
 10
4.424378
 20
-6.148641
 30
0.000000
  0
POINT
  8
Default
 62
     7
 10
7.909902
 20
-3.670405
 30
0.000000
  0
CIRCLE
  8
Default
 62
     6
  6
CONTINUOUS
 10
7.909902
 20
-3.670405
 30
0.000000
 40
0.156250
  0
CIRCLE
  8
Default
 62
     6
  6
CONTINUOUS
 10
4.884811
 20
5.069627
 30
0.000000
 40
0.218750
  0
CIRCLE
  8
Default
 62
     6
  6
CONTINUOUS
 10
2.668262
 20
8.049234
 30
0.000000
 40
0.218750
  0
CIRCLE
  8
Default
 62
     6
  6
CONTINUOUS
 10
-2.437868
 20
8.110020
 30
0.000000
 40
0.218750
  0
CIRCLE
  8
Default
 62
     6
  6
CONTINUOUS
 10
-4.888035
 20
5.400331
 30
0.000000
 40
0.363000
  0
CIRCLE
  8
Default
 62
     6
  6
CONTINUOUS
 10
-7.685692
 20
1.161806
 30
0.000000
 40
0.218750
  0
CIRCLE
  8
Default
 62
     6
  6
CONTINUOUS
 10
-6.345348
 20
-2.103830
 30
0.000000
 40
0.156250
  0
CIRCLE
  8
Default
 62
     6
  6
CONTINUOUS
 10
-4.226342
 20
-5.179548
 30
0.000000
 40
0.156250
  0
LINE
  8
Default
 62
     6
  6
CONTINUOUS
 10
7.619979
 20
0.832120
 30
0.000000
 11
8.201371
 21
-3.497359
 31
0.000000
  0
ARC
  8
Default
 62
     6
  6
CONTINUOUS
 10
7.210267
 20
-3.630451
 30
0.000000
 40
1.000000
 50
353.696803
 51
367.648312
  0
ARC
  8
Default
 62
     6
  6
CONTINUOUS
 10
5.222357
 20
-3.410872
 30
0.000000
 40
3.000000
 50
289.241946
 51
353.696803
  0
LINE
  8
Default
 62
     6
  6
CONTINUOUS
 10
4.535296
 20
-6.828206
 30
0.000000
 11
6.211031
 21
-6.243278
 31
0.000000
  0
ARC
  8
Default
 62
     6
  6
CONTINUOUS
 10
4.205738
 20
-5.884071
 30
0.000000
 40
1.000000
 50
275.257835
 51
289.241946
  0
POINT
  8
Default
 62
     7
 10
-5.687141
 20
-6.769694
 30
0.000000
  0
LINE
  8
Default
 62
     6
  6
CONTINUOUS
 10
-0.049300
 20
-7.279866
 30
0.000000
 11
4.297376
 21
-6.879863
 31
0.000000
  0
LINE
  8
Default
 62
     6
  6
CONTINUOUS
 10
-5.229100
 20
-6.811143
 30
0.000000
 11
-0.049300
 21
-7.279866
 31
0.000000
  0
POINT
  8
Default
 62
     7
 10
7.631142
 20
-5.747577
 30
0.000000
  0
ARC
  8
Default
 62
     6
  6
CONTINUOUS
 10
-5.184039
 20
-6.313177
 30
0.000000
 40
0.500000
 50
179.612100
 51
264.829350
  0
LINE
  8
Default
 62
     6
  6
CONTINUOUS
 10
-5.673639
 20
-4.775383
 30
0.000000
 11
-5.684028
 21
-6.309792
 31
0.000000
  0
ARC
  8
Default
 62
     6
  6
CONTINUOUS
 10
-6.673616
 20
-4.768613
 30
0.000000
 40
1.000000
 50
359.612100
 51
382.302796
  0
LINE
  8
Default
 62
     6
  6
CONTINUOUS
 10
-6.595994
 20
-2.322811
 30
0.000000
 11
-5.748425
 21
-4.389112
 31
0.000000
  0
ARC
  8
Default
 62
     6
  6
CONTINUOUS
 10
-7.521186
 20
-2.702313
 30
0.000000
 40
1.000000
 50
22.302796
 51
31.647979
  0
LINE
  8
Default
 62
     6
  6
CONTINUOUS
 10
-8.131119
 20
0.193116
 30
0.000000
 11
-6.669898
 21
-2.177614
 31
0.000000
  0
ARC
  8
Default
 62
     6
  6
CONTINUOUS
 10
-7.705475
 20
0.455466
 30
0.000000
 40
0.500000
 50
179.612100
 51
211.647979
  0
LINE
  8
Default
 62
     6
  6
CONTINUOUS
 10
-8.196740
 20
1.747401
 30
0.000000
 11
-8.205463
 21
0.458851
 31
0.000000
  0
ARC
  8
Default
 62
     6
  6
CONTINUOUS
 10
-7.696751
 20
1.744016
 30
0.000000
 40
0.500000
 50
142.492391
 51
179.612100
  0
LINE
  8
Default
 62
     6
  6
CONTINUOUS
 10
-3.330355
 20
8.254047
 30
0.000000
 11
-8.093387
 21
2.048449
 31
0.000000
  0
ARC
  8
Default
 62
     6
  6
CONTINUOUS
 10
-2.933718
 20
7.949614
 30
0.000000
 40
0.500000
 50
90.000049
 51
142.492391
  0
LINE
  8
Default
 62
     6
  6
CONTINUOUS
 10
-2.933719
 20
8.449614
 30
0.000000
 11
3.107744
 21
8.449619
 31
0.000000
  0
ARC
  8
Default
 62
     6
  6
CONTINUOUS
 10
3.107745
 20
7.949619
 30
0.000000
 40
0.500000
 50
29.459219
 51
90.000049
  0
LINE
  8
Default
 62
     7
  6
CONTINUOUS
 10
1.177934
 20
2.855689
 30
0.000000
 11
1.407962
 21
3.414242
 31
0.000000
  0
LINE
  8
Default
 62
     7
  6
CONTINUOUS
 10
6.990331
 20
0.461981
 30
0.000000
 11
7.220358
 21
1.020532
 31
0.000000
  0
LINE
  8
Default
 62
     7
  6
CONTINUOUS
 10
1.403320
 20
3.402969
 30
0.000000
 11
7.215716
 21
1.009259
 31
0.000000
  0
LINE
  8
Default
 62
     7
  6
CONTINUOUS
 10
1.403320
 20
3.402969
 30
0.000000
 11
1.481862
 21
3.383601
 31
0.000000
  0
LINE
  8
Default
 62
     7
  6
CONTINUOUS
 10
1.403320
 20
3.402969
 30
0.000000
 11
1.472723
 21
3.361409
 31
0.000000
  0
LINE
  8
Default
 62
     7
  6
CONTINUOUS
 10
7.215716
 20
1.009259
 30
0.000000
 11
7.137174
 21
1.028627
 31
0.000000
  0
LINE
  8
Default
 62
     7
  6
CONTINUOUS
 10
7.215716
 20
1.009259
 30
0.000000
 11
7.146313
 21
1.050819
 31
0.000000
  0
TEXT
  8
Default
 62
     7
 10
4.056330
 20
2.398287
 30
0.000000
 40
0.200000
  1
6.286
 50
-22.383257
 72
     1
 11
4.340469
 21
2.281270
 31
0.000000
  0
LINE
  8
Default
 62
     7
  6
CONTINUOUS
 10
-4.921381
 20
5.374627
 30
0.000000
 11
-4.690800
 21
5.932952
 31
0.000000
  0
LINE
  8
Default
 62
     7
  6
CONTINUOUS
 10
1.177942
 20
2.855686
 30
0.000000
 11
1.408522
 21
3.414010
 31
0.000000
  0
LINE
  8
Default
 62
     7
  6
CONTINUOUS
 10
-4.695454
 20
5.921683
 30
0.000000
 11
1.403868
 21
3.402741
 31
0.000000
  0
LINE
  8
Default
 62
     7
  6
CONTINUOUS
 10
-4.695454
 20
5.921683
 30
0.000000
 11
-4.616931
 21
5.902237
 31
0.000000
  0
LINE
  8
Default
 62
     7
  6
CONTINUOUS
 10
-4.695454
 20
5.921683
 30
0.000000
 11
-4.626092
 21
5.880055
 31
0.000000
  0
LINE
  8
Default
 62
     7
  6
CONTINUOUS
 10
1.403868
 20
3.402741
 30
0.000000
 11
1.325345
 21
3.422187
 31
0.000000
  0
LINE
  8
Default
 62
     7
  6
CONTINUOUS
 10
1.403868
 20
3.402741
 30
0.000000
 11
1.334506
 21
3.444370
 31
0.000000
  0
TEXT
  8
Default
 62
     7
 10
-1.898790
 20
4.854636
 30
0.000000
 40
0.200000
  1
6.599
 50
-22.440003
 72
     1
 11
-1.614767
 21
4.737338
 31
0.000000
  0
LINE
  8
Default
 62
     7
  6
CONTINUOUS
 10
-4.918494
 20
5.372610
 30
0.000000
 11
-4.473396
 21
5.780997
 31
0.000000
  0
LINE
  8
Default
 62
     7
  6
CONTINUOUS
 10
0.005974
 20
0.005463
 30
0.000000
 11
0.451073
 21
0.413850
 31
0.000000
  0
LINE
  8
Default
 62
     7
  6
CONTINUOUS
 10
-4.482379
 20
5.772754
 30
0.000000
 11
0.442089
 21
0.405608
 31
0.000000
  0
LINE
  8
Default
 62
     7
  6
CONTINUOUS
 10
-4.482379
 20
5.772754
 30
0.000000
 11
-4.419452
 21
5.721920
 31
0.000000
  0
LINE
  8
Default
 62
     7
  6
CONTINUOUS
 10
-4.482379
 20
5.772754
 30
0.000000
 11
-4.437136
 21
5.705694
 31
0.000000
  0
LINE
  8
Default
 62
     7
  6
CONTINUOUS
 10
0.442089
 20
0.405608
 30
0.000000
 11
0.379162
 21
0.456442
 31
0.000000
  0
LINE
  8
Default
 62
     7
  6
CONTINUOUS
 10
0.442089
 20
0.405608
 30
0.000000
 11
0.396846
 21
0.472668
 31
0.000000
  0
TEXT
  8
Default
 62
     7
 10
-2.168004
 20
3.370557
 30
0.000000
 40
0.200000
  1
7.284
 50
-47.462974
 72
     1
 11
-1.960255
 21
3.144132
 31
0.000000
  0
LINE
  8
Default
 62
     7
  6
CONTINUOUS
 10
-0.000000
 20
0.008128
 30
-0.124976
 11
-0.000000
 21
0.037765
 31
-0.124886
  0
LINE
  8
Default
 62
     7
  6
CONTINUOUS
 10
-8.208382
 20
1.683740
 30
-0.000024
 11
-8.208382
 21
0.013020
 31
-0.005055
  0
LINE
  8
Default
 62
     7
  6
CONTINUOUS
 10
-0.000000
 20
0.025573
 30
-0.124923
 11
-9.649387
 21
0.025149
 31
0.016032
  0
LINE
  8
Default
 62
     7
  6
CONTINUOUS
 10
-0.000000
 20
0.025573
 30
-0.124923
 11
-0.079992
 21
0.013570
 31
-0.123791
  0
LINE
  8
Default
 62
     7
  6
CONTINUOUS
 10
-0.000000
 20
0.025573
 30
-0.124923
 11
-0.079992
 21
0.037570
 31
-0.123718
  0
LINE
  8
Default
 62
     7
  6
CONTINUOUS
 10
-8.208382
 20
0.025212
 30
-0.005018
 11
-8.128390
 21
0.037216
 31
-0.006150
  0
LINE
  8
Default
 62
     7
  6
CONTINUOUS
 10
-8.208382
 20
0.025212
 30
-0.005018
 11
-8.128390
 21
0.013216
 31
-0.006223
  0
TEXT
  8
Default
 62
     7
 10
-9.632339
 20
0.106054
 30
-0.124986
 40
0.200000
  1
8.209
 50
0.002520
 72
     1
 11
-9.325048
 21
0.106067
 31
-0.124986
210
0.014606
220
-0.003011
230
0.999889
  0
INSERT
  8
Default
 62
     7
  2
Object_0
 10
-10.228551
 20
-10.090983
 30
0.000000
 50
-0.006770
  0
LINE
  8
Default
 62
     6
  6
CONTINUOUS
 10
3.543098
 20
8.195521
 30
0.000000
 11
7.499581
 21
1.190832
 31
0.000000
  0
ARC
  8
Default
 62
     6
  6
CONTINUOUS
 10
6.628875
 20
0.699028
 30
0.000000
 40
1.000000
 50
7.648312
 51
29.459219
  0
CIRCLE
  8
Default
 62
     6
  6
CONTINUOUS
 10
6.990153
 20
0.407150
 30
0.000000
 40
0.112500
  0
CIRCLE
  8
Default
 62
     6
  6
CONTINUOUS
 10
-4.888035
 20
5.400331
 30
0.000000
 40
0.112500
  0
ARC
  8
CAM
 62
     6
  6
CONTINUOUS
 10
-7.696751
 20
1.744016
 30
0.000000
 40
0.752500
 50
142.492391
 51
179.612100
  0
LINE
  8
CAM
 62
     6
  6
CONTINUOUS
 10
-8.457958
 20
0.460560
 30
0.000000
 11
-8.449234
 21
1.749110
 31
0.000000
  0
ARC
  8
CAM
 62
     6
  6
CONTINUOUS
 10
-7.705475
 20
0.455466
 30
0.000000
 40
0.752500
 50
179.612100
 51
211.647979
  0
LINE
  8
CAM
 62
     6
  6
CONTINUOUS
 10
-6.884848
 20
-2.310100
 30
0.000000
 11
-8.346069
 21
0.060630
 31
0.000000
  0
ARC
  8
CAM
 62
     6
  6
CONTINUOUS
 10
-7.521186
 20
-2.702313
 30
0.000000
 40
0.747500
 50
22.302796
 51
31.647979
  0
LINE
  8
CAM
 62
     6
  6
CONTINUOUS
 10
-5.982036
 20
-4.484936
 30
0.000000
 11
-6.829605
 21
-2.418636
 31
0.000000
  0
ARC
  8
CAM
 62
     6
  6
CONTINUOUS
 10
-6.673616
 20
-4.768613
 30
0.000000
 40
0.747500
 50
359.612100
 51
382.302796
  0
LINE
  8
CAM
 62
     6
  6
CONTINUOUS
 10
-5.936522
 20
-6.308083
 30
0.000000
 11
-5.926134
 21
-4.773673
 31
0.000000
  0
ARC
  8
CAM
 62
     6
  6
CONTINUOUS
 10
-5.184039
 20
-6.313177
 30
0.000000
 40
0.752500
 50
179.612100
 51
264.829350
  0
LINE
  8
CAM
 62
     6
  6
CONTINUOUS
 10
-0.072056
 20
-7.531339
 30
0.000000
 11
-5.251856
 21
-7.062615
 31
0.000000
  0
ARC
  8
CAM
 62
     6
  6
CONTINUOUS
 10
-0.049300
 20
-7.279866
 30
0.000000
 40
0.252500
 50
264.829350
 51
275.257835
  0
LINE
  8
CAM
 62
     6
  6
CONTINUOUS
 10
4.320515
 20
-7.131301
 30
0.000000
 11
-0.026161
 21
-7.531304
 31
0.000000
  0
ARC
  8
CAM
 62
     6
  6
CONTINUOUS
 10
4.205738
 20
-5.884071
 30
0.000000
 40
1.252500
 50
275.257835
 51
289.241946
  0
LINE
  8
CAM
 62
     6
  6
CONTINUOUS
 10
6.294245
 20
-6.481672
 30
0.000000
 11
4.618510
 21
-7.066601
 31
0.000000
  0
ARC
  8
CAM
 62
     6
  6
CONTINUOUS
 10
5.222357
 20
-3.410872
 30
0.000000
 40
3.252500
 50
289.241946
 51
353.696803
  0
ARC
  8
CAM
 62
     6
  6
CONTINUOUS
 10
7.210267
 20
-3.630451
 30
0.000000
 40
1.252500
 50
353.696803
 51
367.648312
  0
LINE
  8
CAM
 62
     6
  6
CONTINUOUS
 10
7.870233
 20
0.865726
 30
0.000000
 11
8.451624
 21
-3.463753
 31
0.000000
  0
ARC
  8
CAM
 62
     6
  6
CONTINUOUS
 10
6.628875
 20
0.699028
 30
0.000000
 40
1.252500
 50
7.648312
 51
29.459219
  0
LINE
  8
CAM
 62
     6
  6
CONTINUOUS
 10
3.762951
 20
8.319702
 30
0.000000
 11
7.719434
 21
1.315012
 31
0.000000
  0
ARC
  8
CAM
 62
     6
  6
CONTINUOUS
 10
3.107745
 20
7.949619
 30
0.000000
 40
0.752500
 50
29.459219
 51
90.000049
  0
LINE
  8
CAM
 62
     6
  6
CONTINUOUS
 10
-2.933719
 20
8.702114
 30
0.000000
 11
3.107744
 21
8.702119
 31
0.000000
  0
ARC
  8
CAM
 62
     6
  6
CONTINUOUS
 10
-2.933718
 20
7.949614
 30
0.000000
 40
0.752500
 50
90.000049
 51
142.492391
  0
LINE
  8
CAM
 62
     6
  6
CONTINUOUS
 10
-8.293689
 20
2.202188
 30
0.000000
 11
-3.530656
 21
8.407786
 31
0.000000
  0
ARC
  8
CAM
 62
     6
  6
CONTINUOUS
 10
3.107745
 20
7.949619
 30
0.000000
 40
0.750000
 50
29.459219
 51
90.000049
  0
LINE
  8
CAM
 62
     6
  6
CONTINUOUS
 10
3.760774
 20
8.318472
 30
0.000000
 11
7.717258
 21
1.313783
 31
0.000000
  0
ARC
  8
CAM
 62
     6
  6
CONTINUOUS
 10
6.628875
 20
0.699028
 30
0.000000
 40
1.250000
 50
7.648312
 51
29.459219
  0
LINE
  8
CAM
 62
     6
  6
CONTINUOUS
 10
7.867755
 20
0.865393
 30
0.000000
 11
8.449147
 21
-3.464086
 31
0.000000
  0
ARC
  8
CAM
 62
     6
  6
CONTINUOUS
 10
7.210267
 20
-3.630451
 30
0.000000
 40
1.250000
 50
353.696803
 51
367.648312
  0
ARC
  8
CAM
 62
     6
  6
CONTINUOUS
 10
5.222357
 20
-3.410872
 30
0.000000
 40
3.250000
 50
289.241946
 51
353.696803
  0
LINE
  8
CAM
 62
     6
  6
CONTINUOUS
 10
6.293421
 20
-6.479312
 30
0.000000
 11
4.617686
 21
-7.064240
 31
0.000000
  0
ARC
  8
CAM
 62
     6
  6
CONTINUOUS
 10
4.205738
 20
-5.884071
 30
0.000000
 40
1.250000
 50
275.257835
 51
289.241946
  0
LINE
  8
CAM
 62
     6
  6
CONTINUOUS
 10
4.320286
 20
-7.128812
 30
0.000000
 11
-0.026390
 21
-7.528814
 31
0.000000
  0
ARC
  8
CAM
 62
     6
  6
CONTINUOUS
 10
-0.049300
 20
-7.279866
 30
0.000000
 40
0.250000
 50
264.829350
 51
275.257835
  0
LINE
  8
CAM
 62
     6
  6
CONTINUOUS
 10
-0.071830
 20
-7.528849
 30
0.000000
 11
-5.251631
 21
-7.060125
 31
0.000000
  0
ARC
  8
CAM
 62
     6
  6
CONTINUOUS
 10
-5.184039
 20
-6.313177
 30
0.000000
 40
0.750000
 50
179.612100
 51
264.829350
  0
LINE
  8
CAM
 62
     6
  6
CONTINUOUS
 10
-5.934022
 20
-6.308100
 30
0.000000
 11
-5.923634
 21
-4.773690
 31
0.000000
  0
ARC
  8
CAM
 62
     6
  6
CONTINUOUS
 10
-6.673616
 20
-4.768613
 30
0.000000
 40
0.750000
 50
359.612100
 51
382.302796
  0
LINE
  8
CAM
 62
     6
  6
CONTINUOUS
 10
-5.979723
 20
-4.483987
 30
0.000000
 11
-6.827292
 21
-2.417687
 31
0.000000
  0
ARC
  8
CAM
 62
     6
  6
CONTINUOUS
 10
-7.521186
 20
-2.702313
 30
0.000000
 40
0.750000
 50
22.302796
 51
31.647979
  0
LINE
  8
CAM
 62
     6
  6
CONTINUOUS
 10
-6.882720
 20
-2.308789
 30
0.000000
 11
-8.343941
 21
0.061942
 31
0.000000
  0
ARC
  8
CAM
 62
     6
  6
CONTINUOUS
 10
-7.705475
 20
0.455466
 30
0.000000
 40
0.750000
 50
179.612100
 51
211.647979
  0
LINE
  8
CAM
 62
     6
  6
CONTINUOUS
 10
-8.455458
 20
0.460543
 30
0.000000
 11
-8.446734
 21
1.749093
 31
0.000000
  0
ARC
  8
CAM
 62
     6
  6
CONTINUOUS
 10
-7.696751
 20
1.744016
 30
0.000000
 40
0.750000
 50
142.492391
 51
179.612100
  0
LINE
  8
CAM
 62
     6
  6
CONTINUOUS
 10
-8.291705
 20
2.200666
 30
0.000000
 11
-3.528673
 21
8.406264
 31
0.000000
  0
ARC
  8
CAM
 62
     6
  6
CONTINUOUS
 10
-2.933718
 20
7.949614
 30
0.000000
 40
0.750000
 50
90.000049
 51
142.492391
  0
LINE
  8
CAM
 62
     6
  6
CONTINUOUS
 10
-2.933719
 20
8.699614
 30
0.000000
 11
3.107744
 21
8.699619
 31
0.000000
  0
CIRCLE
  8
CAM
 62
     6
  6
CONTINUOUS
 10
0.000000
 20
0.000000
 30
-0.625000
 40
2.645000
  0
LINE
  8
DIM
 62
     7
  6
CONTINUOUS
 10
-8.187187
 20
1.429223
 30
0.000000
 11
-8.187187
 21
-7.990875
 31
0.000000
  0
LINE
  8
DIM
 62
     7
  6
CONTINUOUS
 10
-0.000014
 20
-0.005113
 30
0.000000
 11
-0.000014
 21
-7.990875
 31
0.000000
  0
LINE
  8
DIM
 62
     7
  6
CONTINUOUS
 10
-8.187187
 20
-7.983255
 30
0.000000
 11
-0.000014
 21
-7.983255
 31
0.000000
  0
LINE
  8
DIM
 62
     7
  6
CONTINUOUS
 10
-8.187187
 20
-7.983255
 30
0.000000
 11
-8.137187
 21
-7.958255
 31
0.000000
  0
LINE
  8
DIM
 62
     7
  6
CONTINUOUS
 10
-8.187187
 20
-7.983255
 30
0.000000
 11
-8.137187
 21
-8.008255
 31
0.000000
  0
LINE
  8
DIM
 62
     7
  6
CONTINUOUS
 10
-0.000014
 20
-7.983255
 30
0.000000
 11
-0.050014
 21
-8.008255
 31
0.000000
  0
LINE
  8
DIM
 62
     7
  6
CONTINUOUS
 10
-0.000014
 20
-7.983255
 30
0.000000
 11
-0.050014
 21
-7.958255
 31
0.000000
  0
TEXT
  8
DIM
 62
     7
 10
-7.017214
 20
-7.901975
 30
0.000000
 40
0.200000
  1
8.187
 72
     1
 11
-6.709923
 21
-7.901975
 31
0.000000
  0
LINE
  8
DIM
 62
     7
  6
CONTINUOUS
 10
-0.000000
 20
-0.005080
 30
-0.124971
 11
-0.000000
 21
-7.991170
 31
-0.080001
  0
LINE
  8
DIM
 62
     7
  6
CONTINUOUS
 10
8.210267
 20
-3.635532
 30
0.000029
 11
8.210267
 21
-7.990581
 31
0.024553
  0
LINE
  8
DIM
 62
     7
  6
CONTINUOUS
 10
-0.000000
 20
-7.983550
 30
-0.080043
 11
8.210267
 21
-7.982962
 31
0.024510
  0
LINE
  8
DIM
 62
     7
  6
CONTINUOUS
 10
-0.000000
 20
-7.983550
 30
-0.080043
 11
0.049996
 21
-7.958547
 31
-0.079548
  0
LINE
  8
DIM
 62
     7
  6
CONTINUOUS
 10
-0.000000
 20
-7.983550
 30
-0.080043
 11
0.049996
 21
-8.008546
 31
-0.079266
  0
LINE
  8
DIM
 62
     7
  6
CONTINUOUS
 10
8.210267
 20
-7.982962
 30
0.024510
 11
8.160271
 21
-8.007965
 31
0.024014
  0
LINE
  8
DIM
 62
     7
  6
CONTINUOUS
 10
8.210267
 20
-7.982962
 30
0.024510
 11
8.160271
 21
-7.957965
 31
0.023732
  0
TEXT
  8
DIM
 62
     7
 10
3.803053
 20
-7.901420
 30
-0.124988
 40
0.200000
  1
8.211
 50
0.004108
 72
     1
 11
4.110345
 21
-7.901398
 31
-0.124988
210
-0.012734
220
0.005631
230
0.999903
  0
LINE
  8
DIM
 62
     7
  6
CONTINUOUS
 10
-0.044220
 20
-7.279866
 30
0.000000
 11
9.030559
 21
-7.279866
 31
0.000000
  0
LINE
  8
DIM
 62
     7
  6
CONTINUOUS
 10
0.005066
 20
-0.000033
 30
-0.000000
 11
9.030559
 21
-0.000033
 31
-0.000000
  0
LINE
  8
DIM
 62
     7
  6
CONTINUOUS
 10
9.022939
 20
-7.279866
 30
0.000000
 11
9.022939
 21
-0.000033
 31
-0.000000
  0
LINE
  8
DIM
 62
     7
  6
CONTINUOUS
 10
9.022939
 20
-7.279866
 30
0.000000
 11
8.997939
 21
-7.229866
 31
0.000000
  0
LINE
  8
DIM
 62
     7
  6
CONTINUOUS
 10
9.022939
 20
-7.279866
 30
0.000000
 11
9.047939
 21
-7.229866
 31
0.000000
  0
LINE
  8
DIM
 62
     7
  6
CONTINUOUS
 10
9.022939
 20
-0.000033
 30
-0.000000
 11
9.047939
 21
-0.050033
 31
-0.000000
  0
LINE
  8
DIM
 62
     7
  6
CONTINUOUS
 10
9.022939
 20
-0.000033
 30
-0.000000
 11
8.997939
 21
-0.050033
 31
-0.000000
  0
TEXT
  8
DIM
 62
     7
 10
8.941659
 20
-4.892839
 30
-0.000000
 40
0.200000
  1
7.280
 50
90.000003
 72
     1
 11
8.941659
 21
-4.585548
 31
-0.000000
  0
LINE
  8
DIM
 62
     7
  6
CONTINUOUS
 10
0.005064
 20
-0.000032
 30
0.000000
 11
8.993628
 21
-0.000032
 31
0.000000
  0
LINE
  8
DIM
 62
     7
  6
CONTINUOUS
 10
0.092092
 20
8.449616
 30
0.000000
 11
8.993628
 21
8.449616
 31
0.000000
  0
LINE
  8
DIM
 62
     7
  6
CONTINUOUS
 10
8.986008
 20
-0.000032
 30
0.000000
 11
8.986008
 21
8.449616
 31
0.000000
  0
LINE
  8
DIM
 62
     7
  6
CONTINUOUS
 10
8.986008
 20
-0.000032
 30
0.000000
 11
8.961008
 21
0.049968
 31
0.000000
  0
LINE
  8
DIM
 62
     7
  6
CONTINUOUS
 10
8.986008
 20
-0.000032
 30
0.000000
 11
9.011008
 21
0.049968
 31
0.000000
  0
LINE
  8
DIM
 62
     7
  6
CONTINUOUS
 10
8.986008
 20
8.449616
 30
0.000000
 11
9.011008
 21
8.399616
 31
0.000000
  0
LINE
  8
DIM
 62
     7
  6
CONTINUOUS
 10
8.986008
 20
8.449616
 30
0.000000
 11
8.961008
 21
8.399616
 31
0.000000
  0
TEXT
  8
DIM
 62
     7
 10
8.904728
 20
5.300283
 30
0.000000
 40
0.200000
  1
8.450
 50
90.000003
 72
     1
 11
8.904728
 21
5.607574
 31
0.000000
  0
LINE
  8
DIM
 62
     7
  6
CONTINUOUS
 10
4.268128
 20
-6.146101
 30
0.000000
 11
4.268128
 21
-5.388581
 31
0.000000
  0
LINE
  8
DIM
 62
     7
  6
CONTINUOUS
 10
4.580628
 20
-6.146101
 30
0.000000
 11
4.580628
 21
-5.388581
 31
0.000000
  0
LINE
  8
DIM
 62
     7
  6
CONTINUOUS
 10
4.059298
 20
-5.392391
 30
0.000000
 11
4.789458
 21
-5.392391
 31
0.000000
  0
LINE
  8
DIM
 62
     7
  6
CONTINUOUS
 10
4.268128
 20
-5.392391
 30
0.000000
 11
4.293128
 21
-5.379891
 31
0.000000
  0
LINE
  8
DIM
 62
     7
  6
CONTINUOUS
 10
4.268128
 20
-5.392391
 30
0.000000
 11
4.293128
 21
-5.404891
 31
0.000000
  0
LINE
  8
DIM
 62
     7
  6
CONTINUOUS
 10
4.580628
 20
-5.392391
 30
0.000000
 11
4.555628
 21
-5.404891
 31
0.000000
  0
LINE
  8
DIM
 62
     7
  6
CONTINUOUS
 10
4.580628
 20
-5.392391
 30
0.000000
 11
4.555628
 21
-5.379891
 31
0.000000
  0
TEXT
  8
DIM
 62
     7
 10
4.064379
 20
-5.311111
 30
0.000000
 40
0.200000
  1
0.3125
 72
     1
 11
4.424378
 21
-5.311111
 31
0.000000
  0
LINE
  8
DIM
 62
     7
  6
CONTINUOUS
 10
6.627153
 20
0.409690
 30
0.000000
 11
6.627153
 21
1.373960
 31
0.000000
  0
LINE
  8
DIM
 62
     7
  6
CONTINUOUS
 10
7.353153
 20
0.409690
 30
0.000000
 11
7.353153
 21
1.373960
 31
0.000000
  0
LINE
  8
DIM
 62
     7
  6
CONTINUOUS
 10
6.627153
 20
1.370150
 30
0.000000
 11
7.353153
 21
1.370150
 31
0.000000
  0
LINE
  8
DIM
 62
     7
  6
CONTINUOUS
 10
6.627153
 20
1.370150
 30
0.000000
 11
6.652153
 21
1.382650
 31
0.000000
  0
LINE
  8
DIM
 62
     7
  6
CONTINUOUS
 10
6.627153
 20
1.370150
 30
0.000000
 11
6.652153
 21
1.357650
 31
0.000000
  0
LINE
  8
DIM
 62
     7
  6
CONTINUOUS
 10
7.353153
 20
1.370150
 30
0.000000
 11
7.328153
 21
1.357650
 31
0.000000
  0
LINE
  8
DIM
 62
     7
  6
CONTINUOUS
 10
7.353153
 20
1.370150
 30
0.000000
 11
7.328153
 21
1.382650
 31
0.000000
  0
TEXT
  8
DIM
 62
     7
 10
6.680153
 20
1.451430
 30
0.000000
 40
0.200000
  1
0.726
 72
     1
 11
6.990153
 21
1.451430
 31
0.000000
  0
LINE
  8
DIM
 62
     7
  6
CONTINUOUS
 10
4.666061
 20
5.072167
 30
0.000000
 11
4.666061
 21
5.892187
 31
0.000000
  0
LINE
  8
DIM
 62
     7
  6
CONTINUOUS
 10
5.103561
 20
5.072167
 30
0.000000
 11
5.103561
 21
5.892187
 31
0.000000
  0
LINE
  8
DIM
 62
     7
  6
CONTINUOUS
 10
4.489731
 20
5.888377
 30
0.000000
 11
5.279891
 21
5.888377
 31
0.000000
  0
LINE
  8
DIM
 62
     7
  6
CONTINUOUS
 10
4.666061
 20
5.888377
 30
0.000000
 11
4.691061
 21
5.900877
 31
0.000000
  0
LINE
  8
DIM
 62
     7
  6
CONTINUOUS
 10
4.666061
 20
5.888377
 30
0.000000
 11
4.691061
 21
5.875877
 31
0.000000
  0
LINE
  8
DIM
 62
     7
  6
CONTINUOUS
 10
5.103561
 20
5.888377
 30
0.000000
 11
5.078561
 21
5.875877
 31
0.000000
  0
LINE
  8
DIM
 62
     7
  6
CONTINUOUS
 10
5.103561
 20
5.888377
 30
0.000000
 11
5.078561
 21
5.900877
 31
0.000000
  0
TEXT
  8
DIM
 62
     7
 10
4.494811
 20
5.969657
 30
0.000000
 40
0.200000
  1
0.4375
 72
     1
 11
4.884811
 21
5.969657
 31
0.000000
  0
LINE
  8
DIM
 62
     7
  6
CONTINUOUS
 10
2.449512
 20
8.051774
 30
0.000000
 11
2.449512
 21
8.871794
 31
0.000000
  0
LINE
  8
DIM
 62
     7
  6
CONTINUOUS
 10
2.887012
 20
8.051774
 30
0.000000
 11
2.887012
 21
8.871794
 31
0.000000
  0
LINE
  8
DIM
 62
     7
  6
CONTINUOUS
 10
2.273182
 20
8.867984
 30
0.000000
 11
3.063342
 21
8.867984
 31
0.000000
  0
LINE
  8
DIM
 62
     7
  6
CONTINUOUS
 10
2.449512
 20
8.867984
 30
0.000000
 11
2.474512
 21
8.880484
 31
0.000000
  0
LINE
  8
DIM
 62
     7
  6
CONTINUOUS
 10
2.449512
 20
8.867984
 30
0.000000
 11
2.474512
 21
8.855484
 31
0.000000
  0
LINE
  8
DIM
 62
     7
  6
CONTINUOUS
 10
2.887012
 20
8.867984
 30
0.000000
 11
2.862012
 21
8.855484
 31
0.000000
  0
LINE
  8
DIM
 62
     7
  6
CONTINUOUS
 10
2.887012
 20
8.867984
 30
0.000000
 11
2.862012
 21
8.880484
 31
0.000000
  0
TEXT
  8
DIM
 62
     7
 10
2.278262
 20
8.949264
 30
0.000000
 40
0.200000
  1
0.4375
 72
     1
 11
2.668262
 21
8.949264
 31
0.000000
  0
LINE
  8
DIM
 62
     7
  6
CONTINUOUS
 10
-2.656618
 20
8.112560
 30
0.000000
 11
-2.656618
 21
8.932580
 31
0.000000
  0
LINE
  8
DIM
 62
     7
  6
CONTINUOUS
 10
-2.219118
 20
8.112560
 30
0.000000
 11
-2.219118
 21
8.932580
 31
0.000000
  0
LINE
  8
DIM
 62
     7
  6
CONTINUOUS
 10
-2.832948
 20
8.928770
 30
0.000000
 11
-2.042788
 21
8.928770
 31
0.000000
  0
LINE
  8
DIM
 62
     7
  6
CONTINUOUS
 10
-2.656618
 20
8.928770
 30
0.000000
 11
-2.631618
 21
8.941270
 31
0.000000
  0
LINE
  8
DIM
 62
     7
  6
CONTINUOUS
 10
-2.656618
 20
8.928770
 30
0.000000
 11
-2.631618
 21
8.916270
 31
0.000000
  0
LINE
  8
DIM
 62
     7
  6
CONTINUOUS
 10
-2.219118
 20
8.928770
 30
0.000000
 11
-2.244118
 21
8.916270
 31
0.000000
  0
LINE
  8
DIM
 62
     7
  6
CONTINUOUS
 10
-2.219118
 20
8.928770
 30
0.000000
 11
-2.244118
 21
8.941270
 31
0.000000
  0
TEXT
  8
DIM
 62
     7
 10
-2.827868
 20
9.010050
 30
0.000000
 40
0.200000
  1
0.4375
 72
     1
 11
-2.437868
 21
9.010050
 31
0.000000
  0
LINE
  8
DIM
 62
     7
  6
CONTINUOUS
 10
-5.251035
 20
5.402871
 30
0.000000
 11
-5.251035
 21
6.367141
 31
0.000000
  0
LINE
  8
DIM
 62
     7
  6
CONTINUOUS
 10
-4.525035
 20
5.402871
 30
0.000000
 11
-4.525035
 21
6.367141
 31
0.000000
  0
LINE
  8
DIM
 62
     7
  6
CONTINUOUS
 10
-5.251035
 20
6.363331
 30
0.000000
 11
-4.525035
 21
6.363331
 31
0.000000
  0
LINE
  8
DIM
 62
     7
  6
CONTINUOUS
 10
-5.251035
 20
6.363331
 30
0.000000
 11
-5.226035
 21
6.375831
 31
0.000000
  0
LINE
  8
DIM
 62
     7
  6
CONTINUOUS
 10
-5.251035
 20
6.363331
 30
0.000000
 11
-5.226035
 21
6.350831
 31
0.000000
  0
LINE
  8
DIM
 62
     7
  6
CONTINUOUS
 10
-4.525035
 20
6.363331
 30
0.000000
 11
-4.550035
 21
6.350831
 31
0.000000
  0
LINE
  8
DIM
 62
     7
  6
CONTINUOUS
 10
-4.525035
 20
6.363331
 30
0.000000
 11
-4.550035
 21
6.375831
 31
0.000000
  0
TEXT
  8
DIM
 62
     7
 10
-5.198034
 20
6.444611
 30
0.000000
 40
0.200000
  1
0.726
 72
     1
 11
-4.888035
 21
6.444611
 31
0.000000
  0
LINE
  8
DIM
 62
     7
  6
CONTINUOUS
 10
-7.904442
 20
1.164346
 30
0.000000
 11
-7.904442
 21
1.984366
 31
0.000000
  0
LINE
  8
DIM
 62
     7
  6
CONTINUOUS
 10
-7.466942
 20
1.164346
 30
0.000000
 11
-7.466942
 21
1.984366
 31
0.000000
  0
LINE
  8
DIM
 62
     7
  6
CONTINUOUS
 10
-8.080772
 20
1.980556
 30
0.000000
 11
-7.290612
 21
1.980556
 31
0.000000
  0
LINE
  8
DIM
 62
     7
  6
CONTINUOUS
 10
-7.904442
 20
1.980556
 30
0.000000
 11
-7.879442
 21
1.993056
 31
0.000000
  0
LINE
  8
DIM
 62
     7
  6
CONTINUOUS
 10
-7.904442
 20
1.980556
 30
0.000000
 11
-7.879442
 21
1.968056
 31
0.000000
  0
LINE
  8
DIM
 62
     7
  6
CONTINUOUS
 10
-7.466942
 20
1.980556
 30
0.000000
 11
-7.491942
 21
1.968056
 31
0.000000
  0
LINE
  8
DIM
 62
     7
  6
CONTINUOUS
 10
-7.466942
 20
1.980556
 30
0.000000
 11
-7.491942
 21
1.993056
 31
0.000000
  0
TEXT
  8
DIM
 62
     7
 10
-8.075692
 20
2.061836
 30
0.000000
 40
0.200000
  1
0.4375
 72
     1
 11
-7.685692
 21
2.061836
 31
0.000000
  0
LINE
  8
DIM
 62
     7
  6
CONTINUOUS
 10
-6.501598
 20
-2.101290
 30
0.000000
 11
-6.501598
 21
-1.343770
 31
0.000000
  0
LINE
  8
DIM
 62
     7
  6
CONTINUOUS
 10
-6.189098
 20
-2.101290
 30
0.000000
 11
-6.189098
 21
-1.343770
 31
0.000000
  0
LINE
  8
DIM
 62
     7
  6
CONTINUOUS
 10
-6.710428
 20
-1.347580
 30
0.000000
 11
-5.980268
 21
-1.347580
 31
0.000000
  0
LINE
  8
DIM
 62
     7
  6
CONTINUOUS
 10
-6.501598
 20
-1.347580
 30
0.000000
 11
-6.476598
 21
-1.335080
 31
0.000000
  0
LINE
  8
DIM
 62
     7
  6
CONTINUOUS
 10
-6.501598
 20
-1.347580
 30
0.000000
 11
-6.476598
 21
-1.360080
 31
0.000000
  0
LINE
  8
DIM
 62
     7
  6
CONTINUOUS
 10
-6.189098
 20
-1.347580
 30
0.000000
 11
-6.214098
 21
-1.360080
 31
0.000000
  0
LINE
  8
DIM
 62
     7
  6
CONTINUOUS
 10
-6.189098
 20
-1.347580
 30
0.000000
 11
-6.214098
 21
-1.335080
 31
0.000000
  0
TEXT
  8
DIM
 62
     7
 10
-6.705347
 20
-1.266300
 30
0.000000
 40
0.200000
  1
0.3125
 72
     1
 11
-6.345348
 21
-1.266300
 31
0.000000
  0
LINE
  8
DIM
 62
     7
  6
CONTINUOUS
 10
-4.382592
 20
-5.177008
 30
0.000000
 11
-4.382592
 21
-4.419488
 31
0.000000
  0
LINE
  8
DIM
 62
     7
  6
CONTINUOUS
 10
-4.070092
 20
-5.177008
 30
0.000000
 11
-4.070092
 21
-4.419488
 31
0.000000
  0
LINE
  8
DIM
 62
     7
  6
CONTINUOUS
 10
-4.591422
 20
-4.423298
 30
0.000000
 11
-3.861262
 21
-4.423298
 31
0.000000
  0
LINE
  8
DIM
 62
     7
  6
CONTINUOUS
 10
-4.382592
 20
-4.423298
 30
0.000000
 11
-4.357592
 21
-4.410798
 31
0.000000
  0
LINE
  8
DIM
 62
     7
  6
CONTINUOUS
 10
-4.382592
 20
-4.423298
 30
0.000000
 11
-4.357592
 21
-4.435798
 31
0.000000
  0
LINE
  8
DIM
 62
     7
  6
CONTINUOUS
 10
-4.070092
 20
-4.423298
 30
0.000000
 11
-4.095092
 21
-4.435798
 31
0.000000
  0
LINE
  8
DIM
 62
     7
  6
CONTINUOUS
 10
-4.070092
 20
-4.423298
 30
0.000000
 11
-4.095092
 21
-4.410798
 31
0.000000
  0
TEXT
  8
DIM
 62
     7
 10
-4.586342
 20
-4.342018
 30
0.000000
 40
0.200000
  1
0.3125
 72
     1
 11
-4.226342
 21
-4.342018
 31
0.000000
  0
TEXT
  8
DIM
 62
     7
 10
-1.903020
 20
5.203547
 30
0.000000
 40
0.200000
  1
Countersink holes on back side
 72
     1
 11
-0.083020
 21
5.203547
 31
0.000000
  0
ENDSEC
  0
EOF
