  0
SECTION
  2
HEADER
  9
$ACADVER
  1
AC1006
  0
ENDSEC
  0
SECTION
  2
TABLES
  0
TABLE
  2
LTYPE
 70
    25
  0
LTYPE
  2
CONTINUOUS
 70
    64
  3
Solid line
 72
    64
 73
     0
 40
0.000000
  0
LTYPE
  2
DASHDOT
 70
    64
  3
__ . __ . __ . __ . __ . __ . __ . __ . __ . __
 72
    65
 73
     4
 40
1.000000
 49
0.500000
 49
-0.250000
 49
0.000000
 49
-0.250000
  0
LTYPE
  2
DASHED
 70
    64
  3
__ __ __ __ __ __ __ __ __ __ __ __ __ __ __ __
 72
    65
 73
     2
 40
0.750000
 49
0.500000
 49
-0.250000
  0
LTYPE
  2
DIVIDE
 70
    64
  3
____ . . ____ . . ____ . . ____ . . ____ . . __
 72
    65
 73
     6
 40
1.250000
 49
0.500000
 49
-0.250000
 49
0.000000
 49
-0.250000
 49
0.000000
 49
-0.250000
  0
LTYPE
  2
DOT
 70
    64
  3
. . . . . . . . . . . . . . . . . . . . . . . . 
 72
    65
 73
     2
 40
0.250000
 49
0.000000
 49
-0.250000
  0
ENDTAB
  0
ENDSEC
  0
SECTION
  2
BLOCKS
  0
BLOCK
  8
0
  2
Object_0
 70
    64
 10
0.000000
 20
0.000000
 30
0.000000
  0
ENDBLK
  0
ENDSEC
  0
SECTION
  2
ENTITIES
  0
LINE
  8
layout
 62
     6
  6
CONTINUOUS
 10
-3.740051
 20
5.882766
 30
0.000000
 11
-6.699831
 21
0.545509
 31
0.000000
  0
POINT
  8
Default
 62
     7
 10
-3.740051
 20
5.882766
 30
0.000000
  0
LINE
  8
layout
 62
     6
  6
CONTINUOUS
 10
-3.195025
 20
5.496539
 30
0.000000
 11
-6.699831
 21
0.545509
 31
0.000000
  0
LINE
  8
layout
 62
     6
  6
CONTINUOUS
 10
-6.699831
 20
0.545509
 30
0.000000
 11
-0.000002
 21
0.000006
 31
0.000000
  0
POINT
  8
Default
 62
     7
 10
2.451770
 20
6.201139
 30
0.000000
  0
LINE
  8
layout
 62
     6
  6
CONTINUOUS
 10
-0.000002
 20
0.000006
 30
0.000000
 11
-3.740051
 21
5.882766
 31
0.000000
  0
LINE
  8
layout
 62
     6
  6
CONTINUOUS
 10
5.820248
 20
-0.870582
 30
0.000000
 11
-3.740051
 21
5.882766
 31
0.000000
  0
POINT
  8
layout
 62
     7
 10
-3.195025
 20
5.496539
 30
0.000000
  0
LINE
  8
layout
 62
     6
  6
CONTINUOUS
 10
-0.000002
 20
0.000006
 30
0.000000
 11
5.820248
 21
-0.870582
 31
0.000000
  0
LINE
  8
layout
 62
     6
  6
CONTINUOUS
 10
1.527307
 20
2.161935
 30
0.000000
 11
-0.000002
 21
0.000006
 31
0.000000
  0
POINT
  8
Default
 62
     7
 10
-6.699831
 20
0.545509
 30
0.000000
  0
LINE
  8
layout
 62
     6
  6
CONTINUOUS
 10
1.527302
 20
2.161934
 30
0.000000
 11
-0.000002
 21
0.000006
 31
0.000000
  0
POINT
  8
Default
 62
     7
 10
-4.408361
 20
3.782533
 30
0.000000
  0
LINE
  8
layout
 62
     6
  6
CONTINUOUS
 10
4.418993
 20
-2.989093
 30
0.000000
 11
-0.000002
 21
0.000006
 31
0.000000
  0
CIRCLE
  8
Default
 62
     6
  6
CONTINUOUS
 10
-4.408361
 20
3.782533
 30
0.000000
 40
0.218750
  0
CIRCLE
  8
Default
 62
     6
  6
CONTINUOUS
 10
-3.740051
 20
5.882766
 30
0.000000
 40
0.256000
  0
CIRCLE
  8
Default
 62
     6
  6
CONTINUOUS
 10
-6.699831
 20
0.545509
 30
0.000000
 40
0.216500
  0
CIRCLE
  8
Default
 62
     9
  6
CONTINUOUS
 10
0.000000
 20
0.000000
 30
-0.125000
 40
4.251000
  0
CIRCLE
  8
Default
 62
     9
  6
CONTINUOUS
 10
0.000000
 20
0.000000
 30
-0.625000
 40
3.000000
  0
CIRCLE
  8
Default
 62
     9
  6
CONTINUOUS
 10
-3.625000
 20
0.000000
 30
0.000000
 40
0.265625
  0
CIRCLE
  8
Default
 62
     9
  6
CONTINUOUS
 10
-0.000000
 20
-3.625000
 30
0.000000
 40
0.265625
  0
CIRCLE
  8
Default
 62
     9
  6
CONTINUOUS
 10
3.625000
 20
0.000000
 30
0.000000
 40
0.265625
  0
POINT
  8
Default
 62
     7
 10
4.418993
 20
-2.989093
 30
0.000000
  0
CIRCLE
  8
Default
 62
     6
  6
CONTINUOUS
 10
5.820248
 20
-0.870582
 30
0.000000
 40
0.256000
  0
LINE
  8
layout
 62
     6
  6
CONTINUOUS
 10
-5.356945
 20
2.967083
 30
0.000000
 11
-0.000002
 21
0.000006
 31
0.000000
  0
POINT
  8
Default
 62
     7
 10
-5.523777
 20
-1.840386
 30
0.000000
  0
CIRCLE
  8
Default
 62
     6
  6
CONTINUOUS
 10
-5.523777
 20
-1.840386
 30
0.000000
 40
0.218750
  0
POINT
  8
Default
 62
     7
 10
-3.287820
 20
-4.201479
 30
0.000000
  0
CIRCLE
  8
Default
 62
     6
  6
CONTINUOUS
 10
4.418993
 20
-2.989093
 30
0.000000
 40
0.125000
  0
CIRCLE
  8
Default
 62
     6
  6
CONTINUOUS
 10
-3.287820
 20
-4.201479
 30
0.000000
 40
0.125000
  0
LINE
  8
Default
 62
     6
  6
CONTINUOUS
 10
2.932344
 20
6.470671
 30
0.000000
 11
6.360276
 21
-0.609108
 31
0.000000
  0
ARC
  8
Default
 62
     6
  6
CONTINUOUS
 10
5.820248
 20
-0.870582
 30
0.000000
 40
0.600000
 50
320.642788
 51
385.835630
  0
LINE
  8
Default
 62
     6
  6
CONTINUOUS
 10
4.630155
 20
-3.267777
 30
0.000000
 11
6.284172
 21
-1.251074
 31
0.000000
  0
ARC
  8
Default
 62
     6
  6
CONTINUOUS
 10
-0.077491
 20
0.593243
 30
-0.000000
 40
6.088464
 50
236.044364
 51
320.642788
  0
ARC
  8
Default
 62
     6
  6
CONTINUOUS
 10
-3.268751
 20
-4.145906
 30
-0.000000
 40
0.375000
 50
200.000000
 51
236.044364
  0
POINT
  8
layout
 62
     7
 10
-5.356945
 20
2.967083
 30
0.000000
  0
LINE
  8
Default
 62
     6
  6
CONTINUOUS
 10
-3.621136
 20
-4.274164
 30
-0.000000
 11
-3.797813
 21
-3.788747
 31
-0.000000
  0
ARC
  8
Default
 62
     6
  6
CONTINUOUS
 10
-5.207352
 20
-4.301777
 30
-0.000000
 40
1.500000
 50
20.000000
 51
74.000000
  0
POINT
  8
Default
 62
     7
 10
-0.000002
 20
0.000006
 30
0.000000
  0
CIRCLE
  8
Default
 62
     9
  6
CONTINUOUS
 10
0.000000
 20
3.625000
 30
0.000000
 40
0.265625
  0
POINT
  8
Default
 62
     7
 10
5.820248
 20
-0.870582
 30
0.000000
  0
LINE
  8
Default
 62
     6
  6
CONTINUOUS
 10
-4.793896
 20
-2.859885
 30
-0.000000
 11
-5.328338
 21
-2.706636
 31
-0.000000
  0
ARC
  8
Default
 62
     6
  6
CONTINUOUS
 10
-5.052700
 20
-1.745374
 30
-0.000000
 40
1.000000
 50
203.438279
 51
254.000000
  0
LINE
  8
Default
 62
     6
  6
CONTINUOUS
 10
-7.086489
 20
0.431759
 30
-0.000000
 11
-5.970189
 21
-2.143135
 31
-0.000000
  0
CIRCLE
  8
Default
 62
     6
  6
CONTINUOUS
 10
2.451770
 20
6.201139
 30
0.000000
 40
0.218750
  0
ARC
  8
Default
 62
     6
  6
CONTINUOUS
 10
-6.857117
 20
0.531200
 30
-0.000000
 40
0.250000
 50
166.958631
 51
203.438279
  0
LINE
  8
Default
 62
     6
  6
CONTINUOUS
 10
-6.823180
 20
1.785599
 30
0.000000
 11
-7.100668
 21
0.587613
 31
-0.000000
  0
ARC
  8
Default
 62
     6
  6
CONTINUOUS
 10
-1.952144
 20
0.657326
 30
0.000000
 40
5.000000
 50
145.206452
 51
166.958631
  0
LINE
  8
Default
 62
     6
  6
CONTINUOUS
 10
-4.142730
 20
6.267110
 30
0.000000
 11
-6.058211
 21
3.510432
 31
0.000000
  0
ARC
  8
Default
 62
     6
  6
CONTINUOUS
 10
-3.834775
 20
6.053127
 30
0.000000
 40
0.375000
 50
92.943457
 51
145.206452
  0
LINE
  8
Default
 62
     6
  6
CONTINUOUS
 10
2.456645
 20
6.752116
 30
0.000000
 11
-3.854031
 21
6.427632
 31
0.000000
  0
ARC
  8
Default
 62
     6
  6
CONTINUOUS
 10
2.482320
 20
6.252776
 30
0.000000
 40
0.500000
 50
25.835630
 51
92.943457
  0
LINE
  8
Default
 62
     7
  6
CONTINUOUS
 10
-3.747159
 20
5.886708
 30
0.000000
 11
-3.815637
 21
5.924683
 31
0.000000
  0
LINE
  8
Default
 62
     7
  6
CONTINUOUS
 10
-6.706939
 20
0.549451
 30
0.000000
 11
-6.775418
 21
0.587426
 31
0.000000
  0
LINE
  8
Default
 62
     7
  6
CONTINUOUS
 10
-3.804975
 20
5.918770
 30
0.000000
 11
-6.764755
 21
0.581513
 31
0.000000
  0
LINE
  8
Default
 62
     7
  6
CONTINUOUS
 10
-3.804975
 20
5.918770
 30
0.000000
 11
-3.833278
 21
5.842988
 31
0.000000
  0
LINE
  8
Default
 62
     7
  6
CONTINUOUS
 10
-3.804975
 20
5.918770
 30
0.000000
 11
-3.854267
 21
5.854627
 31
0.000000
  0
LINE
  8
Default
 62
     7
  6
CONTINUOUS
 10
-6.764755
 20
0.581513
 30
0.000000
 11
-6.736452
 21
0.657295
 31
0.000000
  0
LINE
  8
Default
 62
     7
  6
CONTINUOUS
 10
-6.764755
 20
0.581513
 30
0.000000
 11
-6.715463
 21
0.645656
 31
0.000000
  0
TEXT
  8
Default
 62
     7
 10
-5.881183
 20
2.489070
 30
0.000000
 40
0.375000
  1
6.103
 50
60.989402
 72
     1
 11
-5.617480
 21
2.964595
 31
0.000000
  0
LINE
  8
Default
 62
     7
  6
CONTINUOUS
 10
-3.735361
 20
5.889405
 30
0.000000
 11
-3.672945
 21
5.977764
 31
0.000000
  0
LINE
  8
Default
 62
     7
  6
CONTINUOUS
 10
5.824937
 20
-0.863944
 30
0.000000
 11
5.887352
 21
-0.775586
 31
0.000000
  0
LINE
  8
Default
 62
     7
  6
CONTINUOUS
 10
-3.679979
 20
5.967806
 30
0.000000
 11
5.880318
 21
-0.785544
 31
0.000000
  0
LINE
  8
Default
 62
     7
  6
CONTINUOUS
 10
-3.679979
 20
5.967806
 30
0.000000
 11
-3.607714
 21
5.931450
 31
0.000000
  0
LINE
  8
Default
 62
     7
  6
CONTINUOUS
 10
-3.679979
 20
5.967806
 30
0.000000
 11
-3.621561
 21
5.911848
 31
0.000000
  0
LINE
  8
Default
 62
     7
  6
CONTINUOUS
 10
5.880318
 20
-0.785544
 30
0.000000
 11
5.808053
 21
-0.749189
 31
0.000000
  0
LINE
  8
Default
 62
     7
  6
CONTINUOUS
 10
5.880318
 20
-0.785544
 30
0.000000
 11
5.821900
 21
-0.729586
 31
0.000000
  0
TEXT
  8
Default
 62
     7
 10
0.763223
 20
3.015737
 30
0.000000
 40
0.375000
  1
11.705
 50
-35.237209
 72
     1
 11
1.283914
 21
2.647923
 31
0.000000
  0
LINE
  8
Default
 62
     7
  6
CONTINUOUS
 10
-0.006640
 20
0.004696
 30
0.000000
 11
-0.075114
 21
0.053069
 31
0.000000
  0
LINE
  8
Default
 62
     7
  6
CONTINUOUS
 10
1.520668
 20
2.166625
 30
0.000000
 11
1.452194
 21
2.214999
 31
0.000000
  0
LINE
  8
Default
 62
     7
  6
CONTINUOUS
 10
-0.065156
 20
0.046035
 30
0.000000
 11
1.462152
 21
2.207964
 31
0.000000
  0
LINE
  8
Default
 62
     7
  6
CONTINUOUS
 10
-0.065156
 20
0.046035
 30
0.000000
 11
-0.028798
 21
0.118298
 31
0.000000
  0
LINE
  8
Default
 62
     7
  6
CONTINUOUS
 10
-0.065156
 20
0.046035
 30
0.000000
 11
-0.009196
 21
0.104451
 31
0.000000
  0
LINE
  8
Default
 62
     7
  6
CONTINUOUS
 10
1.462152
 20
2.207964
 30
0.000000
 11
1.425793
 21
2.135700
 31
0.000000
  0
LINE
  8
Default
 62
     7
  6
CONTINUOUS
 10
1.462152
 20
2.207964
 30
0.000000
 11
1.406191
 21
2.149548
 31
0.000000
  0
TEXT
  8
Default
 62
     7
 10
0.446687
 20
1.034684
 30
0.000000
 40
0.375000
  1
2.647
 50
54.760468
 72
     1
 11
0.792885
 21
1.524732
 31
0.000000
  0
LINE
  8
Default
 62
     7
  6
CONTINUOUS
 10
5.819045
 20
-0.878621
 30
0.000000
 11
5.719076
 21
-1.546955
 31
0.000000
  0
LINE
  8
Default
 62
     7
  6
CONTINUOUS
 10
-0.001204
 20
-0.008033
 30
0.000000
 11
-0.101173
 21
-0.676366
 31
0.000000
  0
LINE
  8
Default
 62
     7
  6
CONTINUOUS
 10
5.720880
 20
-1.534897
 30
0.000000
 11
-0.099369
 21
-0.664308
 31
0.000000
  0
LINE
  8
Default
 62
     7
  6
CONTINUOUS
 10
5.720880
 20
-1.534897
 30
0.000000
 11
5.639985
 21
-1.534930
 31
0.000000
  0
LINE
  8
Default
 62
     7
  6
CONTINUOUS
 10
5.720880
 20
-1.534897
 30
0.000000
 11
5.643535
 21
-1.511194
 31
0.000000
  0
LINE
  8
Default
 62
     7
  6
CONTINUOUS
 10
-0.099369
 20
-0.664308
 30
0.000000
 11
-0.018474
 21
-0.664275
 31
0.000000
  0
LINE
  8
Default
 62
     7
  6
CONTINUOUS
 10
-0.099369
 20
-0.664308
 30
0.000000
 11
-0.022025
 21
-0.688011
 31
0.000000
  0
TEXT
  8
Default
 62
     7
 10
1.507422
 20
-0.750555
 30
0.000000
 40
0.375000
  1
5.885
 50
-8.507187
 72
     1
 11
2.082277
 21
-0.836542
 31
0.000000
  0
LINE
  8
Default
 62
     7
  6
CONTINUOUS
 10
-0.000661
 20
-0.008095
 30
0.000000
 11
-0.055007
 21
-0.675559
 31
0.000000
  0
LINE
  8
Default
 62
     7
  6
CONTINUOUS
 10
-6.700491
 20
0.537408
 30
0.000000
 11
-6.754836
 21
-0.130056
 31
0.000000
  0
LINE
  8
Default
 62
     7
  6
CONTINUOUS
 10
-0.054017
 20
-0.663407
 30
0.000000
 11
-6.753846
 21
-0.117904
 31
0.000000
  0
LINE
  8
Default
 62
     7
  6
CONTINUOUS
 10
-0.054017
 20
-0.663407
 30
0.000000
 11
-0.134727
 21
-0.668875
 31
0.000000
  0
LINE
  8
Default
 62
     7
  6
CONTINUOUS
 10
-0.054017
 20
-0.663407
 30
0.000000
 11
-0.132780
 21
-0.644955
 31
0.000000
  0
LINE
  8
Default
 62
     7
  6
CONTINUOUS
 10
-6.753846
 20
-0.117904
 30
0.000000
 11
-6.673136
 21
-0.112436
 31
0.000000
  0
LINE
  8
Default
 62
     7
  6
CONTINUOUS
 10
-6.753846
 20
-0.117904
 30
0.000000
 11
-6.675084
 21
-0.136356
 31
0.000000
  0
TEXT
  8
Default
 62
     7
 10
-6.225228
 20
-0.008040
 30
0.000000
 40
0.375000
  1
6.722
 50
-4.654782
 72
     1
 11
-5.645896
 21
-0.055209
 31
0.000000
  0
LINE
  8
Default
 62
     7
  6
CONTINUOUS
 10
0.003937
 20
0.007116
 30
0.000000
 11
0.049295
 21
0.089008
 31
0.000000
  0
LINE
  8
Default
 62
     7
  6
CONTINUOUS
 10
-5.353007
 20
2.974193
 30
0.000000
 11
-5.307649
 21
3.056086
 31
0.000000
  0
LINE
  8
Default
 62
     7
  6
CONTINUOUS
 10
0.043387
 20
0.078343
 30
0.000000
 11
-5.313556
 21
3.045420
 31
0.000000
  0
LINE
  8
Default
 62
     7
  6
CONTINUOUS
 10
0.043387
 20
0.078343
 30
0.000000
 11
-0.032409
 21
0.106607
 31
0.000000
  0
LINE
  8
Default
 62
     7
  6
CONTINUOUS
 10
0.043387
 20
0.078343
 30
0.000000
 11
-0.020781
 21
0.127602
 31
0.000000
  0
LINE
  8
Default
 62
     7
  6
CONTINUOUS
 10
-5.313556
 20
3.045420
 30
0.000000
 11
-5.237759
 21
3.017156
 31
0.000000
  0
LINE
  8
Default
 62
     7
  6
CONTINUOUS
 10
-5.313556
 20
3.045420
 30
0.000000
 11
-5.249388
 21
2.996161
 31
0.000000
  0
TEXT
  8
Default
 62
     7
 10
-4.739072
 20
2.901443
 30
0.000000
 40
0.375000
  1
6.124
 50
-28.980981
 72
     1
 11
-4.247008
 21
2.628901
 31
0.000000
  0
LINE
  8
Default
 62
     7
  6
CONTINUOUS
 10
0.006858
 20
0.004367
 30
0.000000
 11
0.054308
 21
0.034534
 31
0.000000
  0
LINE
  8
Default
 62
     7
  6
CONTINUOUS
 10
-3.733191
 20
5.887127
 30
0.000000
 11
-3.685741
 21
5.917294
 31
0.000000
  0
LINE
  8
Default
 62
     7
  6
CONTINUOUS
 10
0.044019
 20
0.027992
 30
0.000000
 11
-3.696030
 21
5.910753
 31
0.000000
  0
LINE
  8
Default
 62
     7
  6
CONTINUOUS
 10
0.044019
 20
0.027992
 30
0.000000
 11
-0.009029
 21
0.089065
 31
0.000000
  0
LINE
  8
Default
 62
     7
  6
CONTINUOUS
 10
0.044019
 20
0.027992
 30
0.000000
 11
0.011224
 21
0.101942
 31
0.000000
  0
LINE
  8
Default
 62
     7
  6
CONTINUOUS
 10
-3.696030
 20
5.910753
 30
0.000000
 11
-3.642982
 21
5.849680
 31
0.000000
  0
LINE
  8
Default
 62
     7
  6
CONTINUOUS
 10
-3.696030
 20
5.910753
 30
0.000000
 11
-3.663235
 21
5.836804
 31
0.000000
  0
TEXT
  8
Default
 62
     7
 10
-2.059907
 20
3.621334
 30
0.000000
 40
0.375000
  1
6.971
 50
-57.553257
 72
     1
 11
-1.768176
 21
3.162468
 31
0.000000
  0
LINE
  8
Default
 62
     7
  6
CONTINUOUS
 10
-6.706465
 20
0.550206
 30
0.000000
 11
-7.861111
 21
1.367573
 31
0.000000
  0
LINE
  8
Default
 62
     7
  6
CONTINUOUS
 10
-3.201659
 20
5.501236
 30
0.000000
 11
-4.356305
 21
6.318603
 31
0.000000
  0
LINE
  8
Default
 62
     7
  6
CONTINUOUS
 10
-7.851160
 20
1.360529
 30
0.000000
 11
-4.346354
 21
6.311558
 31
0.000000
  0
LINE
  8
Default
 62
     7
  6
CONTINUOUS
 10
-7.851160
 20
1.360529
 30
0.000000
 11
-7.814732
 21
1.432757
 31
0.000000
  0
LINE
  8
Default
 62
     7
  6
CONTINUOUS
 10
-7.851160
 20
1.360529
 30
0.000000
 11
-7.795143
 21
1.418891
 31
0.000000
  0
LINE
  8
Default
 62
     7
  6
CONTINUOUS
 10
-4.346354
 20
6.311558
 30
0.000000
 11
-4.382782
 21
6.239330
 31
0.000000
  0
LINE
  8
Default
 62
     7
  6
CONTINUOUS
 10
-4.346354
 20
6.311558
 30
0.000000
 11
-4.402371
 21
6.253196
 31
0.000000
  0
TEXT
  8
Default
 62
     7
 10
-6.462515
 20
3.585954
 30
0.000000
 40
0.375000
  1
6.066
 50
54.705543
 72
     1
 11
-6.126681
 21
4.060366
 31
0.000000
  0
LINE
  8
Default
 62
     7
  6
CONTINUOUS
 10
-3.190326
 20
5.503171
 30
0.000000
 11
-2.867280
 21
5.959038
 31
0.000000
  0
LINE
  8
Default
 62
     7
  6
CONTINUOUS
 10
-3.735351
 20
5.889398
 30
0.000000
 11
-3.412305
 21
6.345265
 31
0.000000
  0
LINE
  8
Default
 62
     7
  6
CONTINUOUS
 10
-1.641855
 20
5.075709
 30
0.000000
 11
-3.419354
 21
6.335318
 31
0.000000
  0
LINE
  8
Default
 62
     7
  6
CONTINUOUS
 10
-2.874329
 20
5.949091
 30
0.000000
 11
-2.946540
 21
5.985555
 31
0.000000
  0
LINE
  8
Default
 62
     7
  6
CONTINUOUS
 10
-2.874329
 20
5.949091
 30
0.000000
 11
-2.932663
 21
6.005136
 31
0.000000
  0
LINE
  8
Default
 62
     7
  6
CONTINUOUS
 10
-3.419354
 20
6.335318
 30
0.000000
 11
-3.347143
 21
6.298854
 31
0.000000
  0
LINE
  8
Default
 62
     7
  6
CONTINUOUS
 10
-3.419354
 20
6.335318
 30
0.000000
 11
-3.361020
 21
6.279272
 31
0.000000
  0
TEXT
  8
Default
 62
     7
 10
-2.515494
 20
5.881592
 30
0.000000
 40
0.375000
  1
0.668
 50
-35.322948
 72
     1
 11
-2.041249
 21
5.545522
 31
0.000000
  0
LINE
  8
Default
 62
     7
  6
CONTINUOUS
 10
-7.279185
 20
5.898080
 30
0.000000
 11
-3.740051
 21
5.882766
 31
0.000000
  0
LINE
  8
Default
 62
     7
  6
CONTINUOUS
 10
-3.996048
 20
5.883874
 30
0.000000
 11
-4.076100
 21
5.872220
 31
0.000000
  0
LINE
  8
Default
 62
     7
  6
CONTINUOUS
 10
-3.996048
 20
5.883874
 30
0.000000
 11
-4.075996
 21
5.896220
 31
0.000000
  0
TEXT
  8
Default
 62
     7
 10
-7.109871
 20
6.049749
 30
0.000000
 40
0.375000
  1
R0.256
 50
-0.247918
 72
     1
 11
-6.378628
 21
6.046585
 31
0.000000
  0
LINE
  8
Default
 62
     7
  6
CONTINUOUS
 10
-9.526441
 20
0.545081
 30
0.000000
 11
-6.699830
 21
0.545509
 31
0.000000
  0
LINE
  8
Default
 62
     7
  6
CONTINUOUS
 10
-6.916330
 20
0.545477
 30
0.000000
 11
-6.996329
 21
0.533465
 31
0.000000
  0
LINE
  8
Default
 62
     7
  6
CONTINUOUS
 10
-6.916330
 20
0.545477
 30
0.000000
 11
-6.996332
 21
0.557465
 31
0.000000
  0
TEXT
  8
Default
 62
     7
 10
-9.357807
 20
0.697507
 30
0.000000
 40
0.375000
  1
R0.217
 50
0.008681
 72
     1
 11
-8.664058
 21
0.697612
 31
0.000000
  0
LINE
  8
Default
 62
     7
  6
CONTINUOUS
 10
8.704472
 20
-0.877644
 30
0.000000
 11
5.820247
 21
-0.870582
 31
0.000000
  0
LINE
  8
Default
 62
     7
  6
CONTINUOUS
 10
6.076247
 20
-0.871209
 30
0.000000
 11
6.156276
 21
-0.859405
 31
0.000000
  0
LINE
  8
Default
 62
     7
  6
CONTINUOUS
 10
6.076247
 20
-0.871209
 30
0.000000
 11
6.156217
 21
-0.883405
 31
0.000000
  0
TEXT
  8
Default
 62
     7
 10
7.378493
 20
-0.721997
 30
0.000000
 40
0.375000
  1
R0.256
 50
-0.140279
 72
     1
 11
8.109741
 21
-0.723787
 31
0.000000
  0
INSERT
  8
Default
 62
     7
  2
Object_0
 10
-10.160000
 20
-10.160000
 30
0.000000
  0
CIRCLE
  8
Default
 62
     6
  6
CONTINUOUS
 10
5.820248
 20
-0.870582
 30
0.000000
 40
0.063500
  0
CIRCLE
  8
Default
 62
     6
  6
CONTINUOUS
 10
5.820248
 20
-0.870582
 30
0.000000
 40
0.068500
  0
CIRCLE
  8
Default
 62
     6
  6
CONTINUOUS
 10
-3.740051
 20
5.882766
 30
0.000000
 40
0.063500
  0
CIRCLE
  8
Default
 62
     6
  6
CONTINUOUS
 10
-3.740051
 20
5.882766
 30
0.000000
 40
0.068500
  0
CIRCLE
  8
Default
 62
     6
  6
CONTINUOUS
 10
-6.699831
 20
0.545509
 30
0.000000
 40
0.024000
  0
CIRCLE
  8
Default
 62
     6
  6
CONTINUOUS
 10
-6.699831
 20
0.545509
 30
0.000000
 40
0.029000
  0
ARC
  8
Default
 62
     6
  6
CONTINUOUS
 10
7.591092
 20
-0.013164
 30
0.000000
 40
1.000000
 50
205.835630
 51
295.835630
  0
LINE
  8
Default
 62
     6
  6
CONTINUOUS
 10
6.691044
 20
-0.448955
 30
0.000000
 11
3.263112
 21
6.630825
 31
0.000000
  0
ARC
  8
Default
 62
     6
  6
CONTINUOUS
 10
2.482320
 20
6.252776
 30
0.000000
 40
0.867500
 50
25.835630
 51
92.943457
  0
LINE
  8
Default
 62
     6
  6
CONTINUOUS
 10
2.437774
 20
7.119132
 30
0.000000
 11
-3.872902
 21
6.794647
 31
0.000000
  0
ARC
  8
Default
 62
     6
  6
CONTINUOUS
 10
-3.834775
 20
6.053127
 30
0.000000
 40
0.742500
 50
92.943457
 51
145.206452
  0
LINE
  8
Default
 62
     6
  6
CONTINUOUS
 10
-4.444526
 20
6.476813
 30
0.000000
 11
-6.360007
 21
3.720135
 31
0.000000
  0
ARC
  8
Default
 62
     6
  6
CONTINUOUS
 10
-1.952144
 20
0.657326
 30
0.000000
 40
5.367500
 50
145.206452
 51
166.958631
  0
LINE
  8
Default
 62
     6
  6
CONTINUOUS
 10
-7.181202
 20
1.868527
 30
0.000000
 11
-7.458690
 21
0.670541
 31
-0.000000
  0
ARC
  8
Default
 62
     6
  6
CONTINUOUS
 10
-6.857117
 20
0.531200
 30
-0.000000
 40
0.617500
 50
166.958631
 51
203.438279
  0
LINE
  8
Default
 62
     6
  6
CONTINUOUS
 10
-7.423666
 20
0.285582
 30
-0.000000
 11
-6.307367
 21
-2.289313
 31
-0.000000
  0
ARC
  8
Default
 62
     6
  6
CONTINUOUS
 10
-5.052700
 20
-1.745374
 30
-0.000000
 40
1.367500
 50
203.438279
 51
254.000000
  0
LINE
  8
Default
 62
     6
  6
CONTINUOUS
 10
-5.429634
 20
-3.059900
 30
-0.000000
 11
-4.895192
 21
-3.213149
 31
-0.000000
  0
ARC
  8
Default
 62
     6
  6
CONTINUOUS
 10
-5.207352
 20
-4.301777
 30
-0.000000
 40
1.132500
 50
20.000000
 51
74.000000
  0
LINE
  8
Default
 62
     6
  6
CONTINUOUS
 10
-4.143150
 20
-3.914440
 30
-0.000000
 11
-3.966473
 21
-4.399856
 31
-0.000000
  0
ARC
  8
Default
 62
     6
  6
CONTINUOUS
 10
-3.268751
 20
-4.145906
 30
-0.000000
 40
0.742500
 50
200.000000
 51
236.044364
  0
ARC
  8
Default
 62
     6
  6
CONTINUOUS
 10
-0.077491
 20
0.593243
 30
-0.000000
 40
6.455964
 50
236.044364
 51
320.642788
  0
LINE
  8
Default
 62
     6
  6
CONTINUOUS
 10
4.914308
 20
-3.500828
 30
0.000000
 11
6.568326
 21
-1.484126
 31
0.000000
  0
ARC
  8
Default
 62
     6
  6
CONTINUOUS
 10
5.820248
 20
-0.870582
 30
0.000000
 40
0.967500
 50
320.642788
 51
385.835630
  0
ARC
  8
Default
 62
     6
  6
CONTINUOUS
 10
7.591092
 20
-0.013164
 30
0.000000
 40
1.000000
 50
115.835630
 51
205.835630
  0
LINE
  8
Default
 62
     6
  6
CONTINUOUS
 10
3.258612
 20
6.628646
 30
0.000000
 11
6.686544
 21
-0.451134
 31
0.000000
  0
ARC
  8
Default
 62
     6
  6
CONTINUOUS
 10
5.820248
 20
-0.870582
 30
0.000000
 40
0.962500
 50
320.642788
 51
385.835630
  0
LINE
  8
Default
 62
     6
  6
CONTINUOUS
 10
6.564460
 20
-1.480955
 30
0.000000
 11
4.910442
 21
-3.497657
 31
0.000000
  0
ARC
  8
Default
 62
     6
  6
CONTINUOUS
 10
-0.077491
 20
0.593243
 30
-0.000000
 40
6.450964
 50
236.044364
 51
320.642788
  0
ARC
  8
Default
 62
     6
  6
CONTINUOUS
 10
-3.268751
 20
-4.145906
 30
-0.000000
 40
0.737500
 50
200.000000
 51
236.044364
  0
LINE
  8
Default
 62
     6
  6
CONTINUOUS
 10
-3.961774
 20
-4.398146
 30
-0.000000
 11
-4.138451
 21
-3.912729
 31
-0.000000
  0
ARC
  8
Default
 62
     6
  6
CONTINUOUS
 10
-5.207352
 20
-4.301777
 30
-0.000000
 40
1.137500
 50
20.000000
 51
74.000000
  0
LINE
  8
Default
 62
     6
  6
CONTINUOUS
 10
-4.893814
 20
-3.208342
 30
-0.000000
 11
-5.428256
 21
-3.055093
 31
-0.000000
  0
ARC
  8
Default
 62
     6
  6
CONTINUOUS
 10
-5.052700
 20
-1.745374
 30
-0.000000
 40
1.362500
 50
203.438279
 51
254.000000
  0
LINE
  8
Default
 62
     6
  6
CONTINUOUS
 10
-6.302779
 20
-2.287324
 30
-0.000000
 11
-7.419079
 21
0.287571
 31
-0.000000
  0
ARC
  8
Default
 62
     6
  6
CONTINUOUS
 10
-6.857117
 20
0.531200
 30
-0.000000
 40
0.612500
 50
166.958631
 51
203.438279
  0
LINE
  8
Default
 62
     6
  6
CONTINUOUS
 10
-7.453819
 20
0.669413
 30
-0.000000
 11
-7.176331
 21
1.867398
 31
0.000000
  0
ARC
  8
Default
 62
     6
  6
CONTINUOUS
 10
-1.952144
 20
0.657326
 30
0.000000
 40
5.362500
 50
145.206452
 51
166.958631
  0
LINE
  8
Default
 62
     6
  6
CONTINUOUS
 10
-6.355901
 20
3.717282
 30
0.000000
 11
-4.440420
 21
6.473960
 31
0.000000
  0
ARC
  8
Default
 62
     6
  6
CONTINUOUS
 10
-3.834775
 20
6.053127
 30
0.000000
 40
0.737500
 50
92.943457
 51
145.206452
  0
LINE
  8
Default
 62
     6
  6
CONTINUOUS
 10
-3.872646
 20
6.789654
 30
0.000000
 11
2.438031
 21
7.114138
 31
0.000000
  0
ARC
  8
Default
 62
     6
  6
CONTINUOUS
 10
2.482320
 20
6.252776
 30
0.000000
 40
0.862500
 50
25.835630
 51
92.943457
  0
CIRCLE
  8
Default
 62
     6
  6
CONTINUOUS
 10
0.000000
 20
0.000000
 30
-0.625000
 40
2.632500
  0
CIRCLE
  8
Default
 62
     6
  6
CONTINUOUS
 10
0.000000
 20
0.000000
 30
-0.625000
 40
2.637500
  0
ENDSEC
  0
EOF
