  0
SECTION
  2
HEADER
  9
$ACADVER
  1
AC1006
  0
ENDSEC
  0
SECTION
  2
TABLES
  0
TABLE
  2
LTYPE
 70
    25
  0
LTYPE
  2
CONTINUOUS
 70
    64
  3
Solid line
 72
    64
 73
     0
 40
0.000000
  0
LTYPE
  2
DASHDOT
 70
    64
  3
__ . __ . __ . __ . __ . __ . __ . __ . __ . __
 72
    65
 73
     4
 40
1.000000
 49
0.500000
 49
-0.250000
 49
0.000000
 49
-0.250000
  0
LTYPE
  2
DASHED
 70
    64
  3
__ __ __ __ __ __ __ __ __ __ __ __ __ __ __ __
 72
    65
 73
     2
 40
0.750000
 49
0.500000
 49
-0.250000
  0
LTYPE
  2
DIVIDE
 70
    64
  3
____ . . ____ . . ____ . . ____ . . ____ . . __
 72
    65
 73
     6
 40
1.250000
 49
0.500000
 49
-0.250000
 49
0.000000
 49
-0.250000
 49
0.000000
 49
-0.250000
  0
LTYPE
  2
DOT
 70
    64
  3
. . . . . . . . . . . . . . . . . . . . . . . . 
 72
    65
 73
     2
 40
0.250000
 49
0.000000
 49
-0.250000
  0
ENDTAB
  0
ENDSEC
  0
SECTION
  2
ENTITIES
  0
LINE
  8
PARTS
 62
     7
  6
CONTINUOUS
 10
5.388728
 20
0.790507
 30
0.000000
 11
5.763728
 21
0.790507
 31
0.000000
  0
LINE
  8
PARTS
 62
     7
  6
CONTINUOUS
 10
5.763728
 20
12.160508
 30
0.000000
 11
5.388728
 21
12.160508
 31
0.000000
  0
LINE
  8
PARTS
 62
     7
  6
CONTINUOUS
 10
4.995727
 20
11.828007
 30
0.000000
 11
5.388728
 21
11.828007
 31
0.000000
  0
LINE
  8
PARTS
 62
     7
  6
CONTINUOUS
 10
4.995727
 20
1.123007
 30
0.000000
 11
5.388728
 21
1.123007
 31
0.000000
  0
LINE
  8
PARTS
 62
     7
  6
CONTINUOUS
 10
6.080727
 20
1.478506
 30
0.000000
 11
5.763728
 21
1.478506
 31
0.000000
  0
LINE
  8
PARTS
 62
     7
  6
CONTINUOUS
 10
6.080727
 20
11.472508
 30
0.000000
 11
5.763728
 21
11.472508
 31
0.000000
  0
LINE
  8
PARTS
 62
     7
  6
CONTINUOUS
 10
6.081530
 20
1.784505
 30
0.000000
 11
5.763728
 21
1.938005
 31
0.000000
  0
LINE
  8
PARTS
 62
     7
  6
CONTINUOUS
 10
6.080727
 20
11.166508
 30
0.000000
 11
5.763727
 21
11.013009
 31
0.000000
  0
LINE
  8
PARTS
 62
     7
  6
CONTINUOUS
 10
6.037728
 20
8.316504
 30
0.000000
 11
5.763727
 21
8.590504
 31
0.000000
  0
LINE
  8
PARTS
 62
     7
  6
CONTINUOUS
 10
6.037728
 20
4.634505
 30
0.000000
 11
5.763728
 21
4.360505
 31
0.000000
  0
LINE
  8
PARTS
 62
     7
  6
CONTINUOUS
 10
6.080727
 20
11.166508
 30
0.000000
 11
6.080727
 21
11.472508
 31
0.000000
  0
LINE
  8
PARTS
 62
     7
  6
CONTINUOUS
 10
6.080727
 20
1.784505
 30
0.000000
 11
6.080727
 21
1.478506
 31
0.000000
  0
LINE
  8
PARTS
 62
     7
  6
CONTINUOUS
 10
5.763728
 20
1.938005
 30
0.000000
 11
5.763728
 21
4.360505
 31
0.000000
  0
LINE
  8
PARTS
 62
     7
  6
CONTINUOUS
 10
5.763728
 20
1.478506
 30
0.000000
 11
5.763728
 21
0.790507
 31
0.000000
  0
LINE
  8
PARTS
 62
     7
  6
CONTINUOUS
 10
5.763728
 20
11.013009
 30
0.000000
 11
5.763728
 21
8.590504
 31
0.000000
  0
LINE
  8
PARTS
 62
     7
  6
CONTINUOUS
 10
5.763728
 20
11.472508
 30
0.000000
 11
5.763728
 21
12.160508
 31
0.000000
  0
LINE
  8
PARTS
 62
     7
  6
CONTINUOUS
 10
5.388728
 20
11.828007
 30
0.000000
 11
5.388728
 21
12.160508
 31
0.000000
  0
LINE
  8
PARTS
 62
     7
  6
CONTINUOUS
 10
5.388728
 20
1.123007
 30
0.000000
 11
5.388728
 21
0.790507
 31
0.000000
  0
LINE
  8
PARTS
 62
     7
  6
CONTINUOUS
 10
4.995727
 20
8.930505
 30
0.000000
 11
5.388728
 21
8.930505
 31
0.000000
  0
LINE
  8
PARTS
 62
     7
  6
CONTINUOUS
 10
5.388728
 20
8.930505
 30
0.000000
 11
5.388728
 21
4.020505
 31
0.000000
  0
LINE
  8
PARTS
 62
     7
  6
CONTINUOUS
 10
5.388728
 20
4.020505
 30
0.000000
 11
4.991331
 21
4.020505
 31
0.000000
  0
LINE
  8
PARTS
 62
     7
  6
CONTINUOUS
 10
5.388728
 20
8.456506
 30
0.000000
 11
5.570728
 21
8.456506
 31
0.000000
  0
LINE
  8
PARTS
 62
     7
  6
CONTINUOUS
 10
5.570728
 20
8.456506
 30
0.000000
 11
5.570728
 21
4.494506
 31
0.000000
  0
LINE
  8
PARTS
 62
     7
  6
CONTINUOUS
 10
5.570728
 20
4.494506
 30
0.000000
 11
5.385354
 21
4.494506
 31
0.000000
  0
LINE
  8
PARTS
 62
     7
  6
CONTINUOUS
 10
5.901758
 20
8.003878
 30
0.000000
 11
5.570728
 21
8.003878
 31
0.000000
  0
LINE
  8
PARTS
 62
     7
  6
CONTINUOUS
 10
5.901758
 20
7.508877
 30
0.000000
 11
5.570728
 21
7.508877
 31
0.000000
  0
LINE
  8
PARTS
 62
     7
  6
CONTINUOUS
 10
5.901758
 20
7.167378
 30
0.000000
 11
5.570728
 21
7.167378
 31
0.000000
  0
LINE
  8
PARTS
 62
     7
  6
CONTINUOUS
 10
5.901758
 20
5.789378
 30
0.000000
 11
5.570728
 21
5.789378
 31
0.000000
  0
LINE
  8
PARTS
 62
     7
  6
CONTINUOUS
 10
5.901758
 20
8.107505
 30
0.000000
 11
5.901758
 21
4.843505
 31
0.000000
  0
LINE
  8
PARTS
 62
     7
  6
CONTINUOUS
 10
6.037728
 20
4.634505
 30
0.000000
 11
6.037728
 21
4.843505
 31
0.000000
  0
LINE
  8
PARTS
 62
     7
  6
CONTINUOUS
 10
5.901758
 20
4.843505
 30
0.000000
 11
6.037728
 21
4.843505
 31
0.000000
  0
LINE
  8
PARTS
 62
     7
  6
CONTINUOUS
 10
6.037728
 20
8.316504
 30
0.000000
 11
6.037728
 21
8.107505
 31
0.000000
  0
LINE
  8
PARTS
 62
     7
  6
CONTINUOUS
 10
5.901758
 20
8.107505
 30
0.000000
 11
6.037728
 21
8.107505
 31
0.000000
  0
LINE
  8
HUB
 62
     7
  6
CONTINUOUS
 10
5.902758
 20
8.106505
 30
0.000000
 11
5.902758
 21
4.844506
 31
0.000000
  0
LINE
  8
PLATE
 62
     7
  6
CONTINUOUS
 10
6.453728
 20
12.570092
 30
0.000000
 11
6.453728
 21
8.106505
 31
0.000000
  0
LINE
  8
PLATE
 62
     7
  6
CONTINUOUS
 10
6.453728
 20
4.844506
 30
0.000000
 11
6.453728
 21
0.380923
 31
0.000000
  0
LINE
  8
HUB
 62
     7
  6
CONTINUOUS
 10
5.902758
 20
8.106505
 30
0.000000
 11
6.902756
 21
8.106505
 31
0.000000
  0
LINE
  8
HUB
 62
     7
  6
CONTINUOUS
 10
5.902758
 20
4.844506
 30
0.000000
 11
6.902756
 21
4.844506
 31
0.000000
  0
LINE
  8
HUB
 62
     7
  6
CONTINUOUS
 10
5.902758
 20
7.178506
 30
0.000000
 11
6.027758
 21
7.178506
 31
0.000000
  0
LINE
  8
HUB
 62
     7
  6
CONTINUOUS
 10
6.027758
 20
7.178506
 30
0.000000
 11
6.027758
 21
5.772505
 31
0.000000
  0
LINE
  8
HUB
 62
     7
  6
CONTINUOUS
 10
6.027758
 20
5.772505
 30
0.000000
 11
5.902758
 21
5.772505
 31
0.000000
  0
LINE
  8
HUB
 62
     7
  6
CONTINUOUS
 10
5.902758
 20
7.955004
 30
0.000000
 11
6.715758
 21
7.955004
 31
0.000000
  0
LINE
  8
HUB
 62
     7
  6
CONTINUOUS
 10
6.715758
 20
7.955004
 30
0.000000
 11
6.715758
 21
7.551005
 31
0.000000
  0
LINE
  8
HUB
 62
     7
  6
CONTINUOUS
 10
6.715758
 20
7.551005
 30
0.000000
 11
5.902344
 21
7.551005
 31
0.000000
  0
LINE
  8
HUB
 62
     7
  6
CONTINUOUS
 10
6.715758
 20
7.753005
 30
0.000000
 11
5.443079
 21
7.753005
 31
0.000000
  0
LINE
  8
HUB
 62
     7
  6
CONTINUOUS
 10
6.215258
 20
7.343529
 30
0.000000
 11
6.215258
 21
7.015528
 31
0.000000
  0
LINE
  8
HUB
 62
     7
  6
CONTINUOUS
 10
6.027758
 20
7.014506
 30
0.000000
 11
6.215258
 21
7.014506
 31
0.000000
  0
LINE
  8
HUB
 62
     7
  6
CONTINUOUS
 10
6.215258
 20
7.342507
 30
0.000000
 11
5.902758
 21
7.342507
 31
0.000000
  0
LINE
  8
HUB
 62
     7
  6
CONTINUOUS
 10
6.902756
 20
5.350507
 30
0.000000
 11
6.902756
 21
4.844506
 31
0.000000
  0
LINE
  8
HUB
 62
     7
  6
CONTINUOUS
 10
6.902756
 20
7.600507
 30
0.000000
 11
6.902756
 21
8.106505
 31
0.000000
  0
LINE
  8
HUB
 62
     7
  6
CONTINUOUS
 10
6.777756
 20
5.675505
 30
0.000000
 11
8.152756
 21
5.538005
 31
0.000000
  0
LINE
  8
HUB
 62
     7
  6
CONTINUOUS
 10
8.152756
 20
7.600507
 30
0.000000
 11
6.902756
 21
7.600507
 31
0.000000
  0
LINE
  8
HUB
 62
     7
  6
CONTINUOUS
 10
6.215258
 20
7.281079
 30
0.000000
 11
6.833489
 21
7.281079
 31
0.000000
  0
LINE
  8
HUB
 62
     7
  6
CONTINUOUS
 10
6.215258
 20
7.077979
 30
0.000000
 11
6.777756
 21
7.077979
 31
0.000000
  0
LINE
  8
HUB
 62
     7
  6
CONTINUOUS
 10
6.777756
 20
6.850507
 30
0.000000
 11
6.027758
 21
6.850507
 31
0.000000
  0
LINE
  8
HUB
 62
     7
  6
CONTINUOUS
 10
6.777756
 20
6.100507
 30
0.000000
 11
6.027758
 21
6.100507
 31
0.000000
  0
LINE
  8
HUB
 62
     7
  6
CONTINUOUS
 10
8.152756
 20
5.350507
 30
0.000000
 11
6.902756
 21
5.350507
 31
0.000000
  0
LINE
  8
HUB
 62
     7
  6
CONTINUOUS
 10
6.833489
 20
7.281079
 30
0.000000
 11
8.152756
 21
7.413005
 31
0.000000
  0
LINE
  8
HUB
 62
     7
  6
CONTINUOUS
 10
6.777756
 20
5.675505
 30
0.000000
 11
6.777756
 21
7.281079
 31
0.000000
  0
LINE
  8
HUB
 62
     7
  6
CONTINUOUS
 10
5.933758
 20
7.916463
 30
0.000000
 11
5.933758
 21
7.589547
 31
0.000000
  0
LINE
  8
HUB
 62
     7
  6
CONTINUOUS
 10
5.965258
 20
7.955004
 30
0.000000
 11
5.965258
 21
7.551005
 31
0.000000
  0
LINE
  8
HUB
 62
     7
  6
CONTINUOUS
 10
5.996508
 20
7.916463
 30
0.000000
 11
5.996508
 21
7.589547
 31
0.000000
  0
LINE
  8
HUB
 62
     7
  6
CONTINUOUS
 10
6.059258
 20
7.916463
 30
0.000000
 11
6.059258
 21
7.589547
 31
0.000000
  0
LINE
  8
HUB
 62
     7
  6
CONTINUOUS
 10
6.122008
 20
7.916463
 30
0.000000
 11
6.122008
 21
7.589547
 31
0.000000
  0
LINE
  8
HUB
 62
     7
  6
CONTINUOUS
 10
6.184758
 20
7.916463
 30
0.000000
 11
6.184758
 21
7.589547
 31
0.000000
  0
LINE
  8
HUB
 62
     7
  6
CONTINUOUS
 10
6.247507
 20
7.916463
 30
0.000000
 11
6.247507
 21
7.589547
 31
0.000000
  0
LINE
  8
HUB
 62
     7
  6
CONTINUOUS
 10
6.310257
 20
7.916463
 30
0.000000
 11
6.310257
 21
7.589547
 31
0.000000
  0
LINE
  8
HUB
 62
     7
  6
CONTINUOUS
 10
6.373007
 20
7.916463
 30
0.000000
 11
6.373007
 21
7.589547
 31
0.000000
  0
LINE
  8
HUB
 62
     7
  6
CONTINUOUS
 10
6.435757
 20
7.916463
 30
0.000000
 11
6.435757
 21
7.589547
 31
0.000000
  0
LINE
  8
HUB
 62
     7
  6
CONTINUOUS
 10
6.498507
 20
7.916463
 30
0.000000
 11
6.498507
 21
7.589547
 31
0.000000
  0
LINE
  8
HUB
 62
     7
  6
CONTINUOUS
 10
6.561257
 20
7.916463
 30
0.000000
 11
6.561257
 21
7.589547
 31
0.000000
  0
LINE
  8
HUB
 62
     7
  6
CONTINUOUS
 10
6.027758
 20
7.955004
 30
0.000000
 11
6.027758
 21
7.551005
 31
0.000000
  0
LINE
  8
HUB
 62
     7
  6
CONTINUOUS
 10
6.090258
 20
7.955004
 30
0.000000
 11
6.090258
 21
7.551005
 31
0.000000
  0
LINE
  8
HUB
 62
     7
  6
CONTINUOUS
 10
6.152758
 20
7.955004
 30
0.000000
 11
6.152758
 21
7.551005
 31
0.000000
  0
LINE
  8
HUB
 62
     7
  6
CONTINUOUS
 10
6.215258
 20
7.955004
 30
0.000000
 11
6.215258
 21
7.551005
 31
0.000000
  0
LINE
  8
HUB
 62
     7
  6
CONTINUOUS
 10
6.277758
 20
7.955004
 30
0.000000
 11
6.277758
 21
7.551005
 31
0.000000
  0
LINE
  8
HUB
 62
     7
  6
CONTINUOUS
 10
6.340258
 20
7.955004
 30
0.000000
 11
6.340258
 21
7.551005
 31
0.000000
  0
LINE
  8
HUB
 62
     7
  6
CONTINUOUS
 10
6.402758
 20
7.955004
 30
0.000000
 11
6.402758
 21
7.551005
 31
0.000000
  0
LINE
  8
HUB
 62
     7
  6
CONTINUOUS
 10
6.465258
 20
7.955004
 30
0.000000
 11
6.465258
 21
7.551005
 31
0.000000
  0
LINE
  8
HUB
 62
     7
  6
CONTINUOUS
 10
6.527758
 20
7.955004
 30
0.000000
 11
6.527758
 21
7.551005
 31
0.000000
  0
LINE
  8
HUB
 62
     7
  6
CONTINUOUS
 10
6.590258
 20
7.955004
 30
0.000000
 11
6.590258
 21
7.551005
 31
0.000000
  0
LINE
  8
HUB
 62
     7
  6
CONTINUOUS
 10
8.152756
 20
7.413005
 30
0.000000
 11
8.152756
 21
7.600507
 31
0.000000
  0
LINE
  8
HUB
 62
     7
  6
CONTINUOUS
 10
8.152756
 20
5.538005
 30
0.000000
 11
8.152756
 21
5.350505
 31
0.000000
  0
LINE
  8
HUB
 62
     7
  6
CONTINUOUS
 10
10.402756
 20
8.106505
 30
0.000000
 11
10.402756
 21
4.844506
 31
0.000000
  0
POINT
  8
HUB
 62
     7
 10
10.402756
 20
6.475505
 30
0.000000
  0
LINE
  8
HUB
 62
     7
  6
CONTINUOUS
 10
10.402756
 20
8.106505
 30
0.000000
 11
11.402756
 21
8.106505
 31
0.000000
  0
LINE
  8
HUB
 62
     7
  6
CONTINUOUS
 10
10.402756
 20
4.844506
 30
0.000000
 11
11.402756
 21
4.844506
 31
0.000000
  0
LINE
  8
HUB
 62
     7
  6
CONTINUOUS
 10
10.402756
 20
7.178506
 30
0.000000
 11
10.527756
 21
7.178506
 31
0.000000
  0
LINE
  8
HUB
 62
     7
  6
CONTINUOUS
 10
10.527756
 20
7.178506
 30
0.000000
 11
10.527756
 21
5.772505
 31
0.000000
  0
LINE
  8
HUB
 62
     7
  6
CONTINUOUS
 10
10.527756
 20
5.772505
 30
0.000000
 11
10.402756
 21
5.772505
 31
0.000000
  0
LINE
  8
HUB
 62
     7
  6
CONTINUOUS
 10
10.402756
 20
7.955004
 30
0.000000
 11
11.215756
 21
7.955004
 31
0.000000
  0
LINE
  8
HUB
 62
     7
  6
CONTINUOUS
 10
11.215756
 20
7.955004
 30
0.000000
 11
11.215756
 21
7.551005
 31
0.000000
  0
LINE
  8
HUB
 62
     7
  6
CONTINUOUS
 10
11.215756
 20
7.551005
 30
0.000000
 11
10.402342
 21
7.551005
 31
0.000000
  0
LINE
  8
HUB
 62
     7
  6
CONTINUOUS
 10
11.215756
 20
7.753005
 30
0.000000
 11
9.943077
 21
7.753005
 31
0.000000
  0
POINT
  8
HUB
 62
     7
 10
11.214112
 20
7.179528
 30
0.000000
  0
LINE
  8
HUB
 62
     7
  6
CONTINUOUS
 10
10.715256
 20
7.343529
 30
0.000000
 11
10.715256
 21
7.015528
 31
0.000000
  0
LINE
  8
HUB
 62
     7
  6
CONTINUOUS
 10
10.527756
 20
7.014506
 30
0.000000
 11
10.715256
 21
7.014506
 31
0.000000
  0
LINE
  8
HUB
 62
     7
  6
CONTINUOUS
 10
10.715256
 20
7.342507
 30
0.000000
 11
10.402756
 21
7.342507
 31
0.000000
  0
LINE
  8
HUB
 62
     7
  6
CONTINUOUS
 10
11.402756
 20
5.350507
 30
0.000000
 11
11.402756
 21
4.844506
 31
0.000000
  0
LINE
  8
HUB
 62
     7
  6
CONTINUOUS
 10
11.402756
 20
7.600507
 30
0.000000
 11
11.402756
 21
8.106505
 31
0.000000
  0
LINE
  8
HUB
 62
     7
  6
CONTINUOUS
 10
11.277756
 20
5.675505
 30
0.000000
 11
12.652756
 21
5.538005
 31
0.000000
  0
LINE
  8
HUB
 62
     7
  6
CONTINUOUS
 10
12.652756
 20
7.600507
 30
0.000000
 11
11.402756
 21
7.600507
 31
0.000000
  0
LINE
  8
HUB
 62
     7
  6
CONTINUOUS
 10
10.715256
 20
7.281079
 30
0.000000
 11
11.333489
 21
7.281079
 31
0.000000
  0
LINE
  8
HUB
 62
     7
  6
CONTINUOUS
 10
10.715256
 20
7.077979
 30
0.000000
 11
11.277756
 21
7.077979
 31
0.000000
  0
LINE
  8
HUB
 62
     7
  6
CONTINUOUS
 10
11.277756
 20
6.850507
 30
0.000000
 11
10.527756
 21
6.850507
 31
0.000000
  0
LINE
  8
HUB
 62
     7
  6
CONTINUOUS
 10
11.277756
 20
6.100507
 30
0.000000
 11
10.527756
 21
6.100507
 31
0.000000
  0
LINE
  8
HUB
 62
     7
  6
CONTINUOUS
 10
12.652756
 20
5.350507
 30
0.000000
 11
11.402756
 21
5.350507
 31
0.000000
  0
LINE
  8
HUB
 62
     7
  6
CONTINUOUS
 10
11.333489
 20
7.281079
 30
0.000000
 11
12.652756
 21
7.413005
 31
0.000000
  0
LINE
  8
HUB
 62
     7
  6
CONTINUOUS
 10
10.433756
 20
7.916463
 30
0.000000
 11
10.433756
 21
7.589547
 31
0.000000
  0
LINE
  8
HUB
 62
     7
  6
CONTINUOUS
 10
10.465256
 20
7.955004
 30
0.000000
 11
10.465256
 21
7.551005
 31
0.000000
  0
LINE
  8
HUB
 62
     7
  6
CONTINUOUS
 10
10.496506
 20
7.916463
 30
0.000000
 11
10.496506
 21
7.589547
 31
0.000000
  0
LINE
  8
HUB
 62
     7
  6
CONTINUOUS
 10
10.559256
 20
7.916463
 30
0.000000
 11
10.559256
 21
7.589547
 31
0.000000
  0
LINE
  8
HUB
 62
     7
  6
CONTINUOUS
 10
10.622006
 20
7.916463
 30
0.000000
 11
10.622006
 21
7.589547
 31
0.000000
  0
LINE
  8
HUB
 62
     7
  6
CONTINUOUS
 10
10.684756
 20
7.916463
 30
0.000000
 11
10.684756
 21
7.589547
 31
0.000000
  0
LINE
  8
HUB
 62
     7
  6
CONTINUOUS
 10
10.747505
 20
7.916463
 30
0.000000
 11
10.747505
 21
7.589547
 31
0.000000
  0
LINE
  8
HUB
 62
     7
  6
CONTINUOUS
 10
10.810255
 20
7.916463
 30
0.000000
 11
10.810255
 21
7.589547
 31
0.000000
  0
LINE
  8
HUB
 62
     7
  6
CONTINUOUS
 10
10.873005
 20
7.916463
 30
0.000000
 11
10.873005
 21
7.589547
 31
0.000000
  0
LINE
  8
HUB
 62
     7
  6
CONTINUOUS
 10
10.935755
 20
7.916463
 30
0.000000
 11
10.935755
 21
7.589547
 31
0.000000
  0
LINE
  8
HUB
 62
     7
  6
CONTINUOUS
 10
10.998505
 20
7.916463
 30
0.000000
 11
10.998505
 21
7.589547
 31
0.000000
  0
LINE
  8
HUB
 62
     7
  6
CONTINUOUS
 10
11.061255
 20
7.916463
 30
0.000000
 11
11.061255
 21
7.589547
 31
0.000000
  0
LINE
  8
HUB
 62
     7
  6
CONTINUOUS
 10
10.527756
 20
7.955004
 30
0.000000
 11
10.527756
 21
7.551005
 31
0.000000
  0
LINE
  8
HUB
 62
     7
  6
CONTINUOUS
 10
10.590256
 20
7.955004
 30
0.000000
 11
10.590256
 21
7.551005
 31
0.000000
  0
LINE
  8
HUB
 62
     7
  6
CONTINUOUS
 10
10.652756
 20
7.955004
 30
0.000000
 11
10.652756
 21
7.551005
 31
0.000000
  0
LINE
  8
HUB
 62
     7
  6
CONTINUOUS
 10
10.715256
 20
7.955004
 30
0.000000
 11
10.715256
 21
7.551005
 31
0.000000
  0
LINE
  8
HUB
 62
     7
  6
CONTINUOUS
 10
10.777756
 20
7.955004
 30
0.000000
 11
10.777756
 21
7.551005
 31
0.000000
  0
LINE
  8
HUB
 62
     7
  6
CONTINUOUS
 10
10.840256
 20
7.955004
 30
0.000000
 11
10.840256
 21
7.551005
 31
0.000000
  0
LINE
  8
HUB
 62
     7
  6
CONTINUOUS
 10
10.902756
 20
7.955004
 30
0.000000
 11
10.902756
 21
7.551005
 31
0.000000
  0
LINE
  8
HUB
 62
     7
  6
CONTINUOUS
 10
10.965256
 20
7.955004
 30
0.000000
 11
10.965256
 21
7.551005
 31
0.000000
  0
LINE
  8
HUB
 62
     7
  6
CONTINUOUS
 10
11.027756
 20
7.955004
 30
0.000000
 11
11.027756
 21
7.551005
 31
0.000000
  0
LINE
  8
HUB
 62
     7
  6
CONTINUOUS
 10
11.090256
 20
7.955004
 30
0.000000
 11
11.090256
 21
7.551005
 31
0.000000
  0
LINE
  8
HUB
 62
     7
  6
CONTINUOUS
 10
12.652756
 20
7.413005
 30
0.000000
 11
12.652756
 21
7.600507
 31
0.000000
  0
LINE
  8
HUB
 62
     7
  6
CONTINUOUS
 10
12.652756
 20
5.538005
 30
0.000000
 11
12.652756
 21
5.350505
 31
0.000000
  0
LINE
  8
PLATE
 62
     7
  6
CONTINUOUS
 10
6.453728
 20
12.570092
 30
0.000000
 11
7.078726
 21
12.570092
 31
0.000000
  0
LINE
  8
PLATE
 62
     7
  6
CONTINUOUS
 10
6.453728
 20
0.380923
 30
0.000000
 11
7.078726
 21
0.380923
 31
0.000000
  0
LINE
  8
PLATE
 62
     7
  6
CONTINUOUS
 10
7.078726
 20
10.725507
 30
0.000000
 11
6.953726
 21
10.725507
 31
0.000000
  0
LINE
  8
PLATE
 62
     7
  6
CONTINUOUS
 10
6.953726
 20
2.225506
 30
0.000000
 11
7.079605
 21
2.225506
 31
0.000000
  0
LINE
  8
PLATE
 62
     7
  6
CONTINUOUS
 10
7.078726
 20
10.725507
 30
0.000000
 11
7.078726
 21
12.570092
 31
0.000000
  0
LINE
  8
PLATE
 62
     7
  6
CONTINUOUS
 10
7.078726
 20
2.225506
 30
0.000000
 11
7.078726
 21
0.380924
 31
0.000000
  0
LINE
  8
PLATE
 62
     7
  6
CONTINUOUS
 10
6.953726
 20
9.475507
 30
0.000000
 11
6.453728
 21
9.475507
 31
0.000000
  0
LINE
  8
PLATE
 62
     7
  6
CONTINUOUS
 10
6.953726
 20
3.475507
 30
0.000000
 11
6.453728
 21
3.475507
 31
0.000000
  0
LINE
  8
PLATE
 62
     7
  6
CONTINUOUS
 10
6.953726
 20
10.361006
 30
0.000000
 11
6.453728
 21
10.361006
 31
0.000000
  0
LINE
  8
PLATE
 62
     7
  6
CONTINUOUS
 10
6.953726
 20
9.840007
 30
0.000000
 11
6.453728
 21
9.840007
 31
0.000000
  0
LINE
  8
PLATE
 62
     7
  6
CONTINUOUS
 10
6.953726
 20
7.600507
 30
0.000000
 11
6.953726
 21
10.725507
 31
0.000000
  0
LINE
  8
PLATE
 62
     7
  6
CONTINUOUS
 10
6.953726
 20
5.350507
 30
0.000000
 11
6.953726
 21
2.225506
 31
0.000000
  0
POINT
  8
RING
 62
     7
 10
8.348845
 20
10.100503
 30
0.000000
  0
LINE
  8
RING
 62
     7
  6
CONTINUOUS
 10
8.348845
 20
10.100503
 30
0.000000
 11
6.460905
 21
10.100503
 31
0.000000
  0
POINT
  8
RING
 62
     7
 10
6.955727
 20
10.100503
 30
0.000000
  0
POINT
  8
RING
 62
     7
 10
6.955309
 20
10.350505
 30
0.000000
  0
POINT
  8
RING
 62
     7
 10
6.955727
 20
10.100503
 30
0.000000
  0
POINT
  8
RING
 62
     7
 10
6.955199
 20
9.850505
 30
0.000000
  0
POINT
  8
RING
 62
     7
 10
6.955727
 20
10.100503
 30
0.000000
  0
POINT
  8
RING
 62
     7
 10
7.018223
 20
10.099862
 30
0.000000
  0
POINT
  8
RING
 62
     7
 10
7.018223
 20
10.099862
 30
0.000000
  0
POINT
  8
RING
 62
     7
 10
7.080715
 20
10.098801
 30
0.000000
  0
POINT
  8
RING
 62
     7
 10
7.080715
 20
10.099862
 30
0.000000
  0
POINT
  8
RING
 62
     7
 10
7.143206
 20
10.099862
 30
0.000000
  0
POINT
  8
RING
 62
     7
 10
7.205698
 20
10.099862
 30
0.000000
  0
POINT
  8
RING
 62
     7
 10
7.268189
 20
10.099862
 30
0.000000
  0
POINT
  8
RING
 62
     7
 10
7.330681
 20
10.099862
 30
0.000000
  0
POINT
  8
RING
 62
     7
 10
7.393172
 20
10.099862
 30
0.000000
  0
POINT
  8
RING
 62
     7
 10
7.455664
 20
10.099862
 30
0.000000
  0
POINT
  8
RING
 62
     7
 10
7.518154
 20
10.099862
 30
0.000000
  0
POINT
  8
RING
 62
     7
 10
7.580647
 20
10.099862
 30
0.000000
  0
POINT
  8
RING
 62
     7
 10
7.643137
 20
10.099862
 30
0.000000
  0
POINT
  8
RING
 62
     7
 10
7.705630
 20
10.099862
 30
0.000000
  0
POINT
  8
RING
 62
     7
 10
7.768120
 20
10.099862
 30
0.000000
  0
POINT
  8
RING
 62
     7
 10
7.830612
 20
10.099862
 30
0.000000
  0
POINT
  8
RING
 62
     7
 10
7.893103
 20
10.099862
 30
0.000000
  0
POINT
  8
RING
 62
     7
 10
7.955595
 20
10.099862
 30
0.000000
  0
POINT
  8
RING
 62
     7
 10
8.018086
 20
10.099862
 30
0.000000
  0
POINT
  8
RING
 62
     7
 10
8.080578
 20
10.099862
 30
0.000000
  0
POINT
  8
RING
 62
     7
 10
8.143069
 20
10.099862
 30
0.000000
  0
POINT
  8
RING
 62
     7
 10
8.205561
 20
10.099862
 30
0.000000
  0
POINT
  8
RING
 62
     7
 10
8.268051
 20
10.099862
 30
0.000000
  0
LINE
  8
RING
 62
     7
  6
CONTINUOUS
 10
7.018223
 20
10.099862
 30
0.000000
 11
7.018223
 21
10.350440
 31
0.000000
  0
LINE
  8
RING
 62
     7
  6
CONTINUOUS
 10
7.018223
 20
10.099862
 30
0.000000
 11
7.018223
 21
9.857997
 31
0.000000
  0
LINE
  8
RING
 62
     7
  6
CONTINUOUS
 10
7.080715
 20
10.099862
 30
0.000000
 11
7.080715
 21
10.310862
 31
0.000000
  0
LINE
  8
RING
 62
     7
  6
CONTINUOUS
 10
7.080715
 20
10.098801
 30
0.000000
 11
7.080715
 21
9.887801
 31
0.000000
  0
POINT
  8
RING
 62
     7
 10
7.143206
 20
10.099862
 30
0.000000
  0
POINT
  8
RING
 62
     7
 10
7.143206
 20
10.099862
 30
0.000000
  0
LINE
  8
RING
 62
     7
  6
CONTINUOUS
 10
7.143206
 20
10.099862
 30
0.000000
 11
7.143206
 21
10.350440
 31
0.000000
  0
LINE
  8
RING
 62
     7
  6
CONTINUOUS
 10
7.143206
 20
10.099862
 30
0.000000
 11
7.143206
 21
9.857997
 31
0.000000
  0
POINT
  8
RING
 62
     7
 10
7.268189
 20
10.099862
 30
0.000000
  0
POINT
  8
RING
 62
     7
 10
7.268189
 20
10.099862
 30
0.000000
  0
LINE
  8
RING
 62
     7
  6
CONTINUOUS
 10
7.268189
 20
10.099862
 30
0.000000
 11
7.268189
 21
10.350440
 31
0.000000
  0
LINE
  8
RING
 62
     7
  6
CONTINUOUS
 10
7.268189
 20
10.099862
 30
0.000000
 11
7.268189
 21
9.857997
 31
0.000000
  0
POINT
  8
RING
 62
     7
 10
7.393172
 20
10.099862
 30
0.000000
  0
POINT
  8
RING
 62
     7
 10
7.393172
 20
10.099862
 30
0.000000
  0
LINE
  8
RING
 62
     7
  6
CONTINUOUS
 10
7.393172
 20
10.099862
 30
0.000000
 11
7.393172
 21
10.350440
 31
0.000000
  0
LINE
  8
RING
 62
     7
  6
CONTINUOUS
 10
7.393172
 20
10.099862
 30
0.000000
 11
7.393172
 21
9.857997
 31
0.000000
  0
POINT
  8
RING
 62
     7
 10
7.518154
 20
10.099862
 30
0.000000
  0
POINT
  8
RING
 62
     7
 10
7.518154
 20
10.099862
 30
0.000000
  0
LINE
  8
RING
 62
     7
  6
CONTINUOUS
 10
7.518154
 20
10.099862
 30
0.000000
 11
7.518154
 21
10.350440
 31
0.000000
  0
LINE
  8
RING
 62
     7
  6
CONTINUOUS
 10
7.518154
 20
10.099862
 30
0.000000
 11
7.518154
 21
9.857997
 31
0.000000
  0
POINT
  8
RING
 62
     7
 10
7.643137
 20
10.099862
 30
0.000000
  0
POINT
  8
RING
 62
     7
 10
7.643137
 20
10.099862
 30
0.000000
  0
LINE
  8
RING
 62
     7
  6
CONTINUOUS
 10
7.643137
 20
10.099862
 30
0.000000
 11
7.643137
 21
10.350440
 31
0.000000
  0
LINE
  8
RING
 62
     7
  6
CONTINUOUS
 10
7.643137
 20
10.099862
 30
0.000000
 11
7.643137
 21
9.857997
 31
0.000000
  0
POINT
  8
RING
 62
     7
 10
7.768120
 20
10.099862
 30
0.000000
  0
POINT
  8
RING
 62
     7
 10
7.768120
 20
10.099862
 30
0.000000
  0
LINE
  8
RING
 62
     7
  6
CONTINUOUS
 10
7.768120
 20
10.099862
 30
0.000000
 11
7.768120
 21
10.350440
 31
0.000000
  0
LINE
  8
RING
 62
     7
  6
CONTINUOUS
 10
7.768120
 20
10.099862
 30
0.000000
 11
7.768120
 21
9.857997
 31
0.000000
  0
POINT
  8
RING
 62
     7
 10
7.893103
 20
10.099862
 30
0.000000
  0
POINT
  8
RING
 62
     7
 10
7.893103
 20
10.099862
 30
0.000000
  0
LINE
  8
RING
 62
     7
  6
CONTINUOUS
 10
7.893103
 20
10.099862
 30
0.000000
 11
7.893103
 21
10.350440
 31
0.000000
  0
LINE
  8
RING
 62
     7
  6
CONTINUOUS
 10
7.893103
 20
10.099862
 30
0.000000
 11
7.893103
 21
9.857997
 31
0.000000
  0
POINT
  8
RING
 62
     7
 10
8.018086
 20
10.099862
 30
0.000000
  0
POINT
  8
RING
 62
     7
 10
8.018086
 20
10.099862
 30
0.000000
  0
LINE
  8
RING
 62
     7
  6
CONTINUOUS
 10
8.018086
 20
10.099862
 30
0.000000
 11
8.018086
 21
10.350440
 31
0.000000
  0
LINE
  8
RING
 62
     7
  6
CONTINUOUS
 10
8.018086
 20
10.099862
 30
0.000000
 11
8.018086
 21
9.857997
 31
0.000000
  0
POINT
  8
RING
 62
     7
 10
8.143069
 20
10.099862
 30
0.000000
  0
POINT
  8
RING
 62
     7
 10
8.143069
 20
10.099862
 30
0.000000
  0
LINE
  8
RING
 62
     7
  6
CONTINUOUS
 10
8.143069
 20
10.099862
 30
0.000000
 11
8.143069
 21
10.350440
 31
0.000000
  0
LINE
  8
RING
 62
     7
  6
CONTINUOUS
 10
8.143069
 20
10.099862
 30
0.000000
 11
8.143069
 21
9.857997
 31
0.000000
  0
POINT
  8
RING
 62
     7
 10
8.268051
 20
10.099862
 30
0.000000
  0
POINT
  8
RING
 62
     7
 10
8.268051
 20
10.099862
 30
0.000000
  0
LINE
  8
RING
 62
     7
  6
CONTINUOUS
 10
8.268051
 20
10.099862
 30
0.000000
 11
8.268051
 21
10.350440
 31
0.000000
  0
LINE
  8
RING
 62
     7
  6
CONTINUOUS
 10
8.268051
 20
10.099862
 30
0.000000
 11
8.268051
 21
9.857997
 31
0.000000
  0
POINT
  8
RING
 62
     7
 10
7.205698
 20
10.098801
 30
0.000000
  0
POINT
  8
RING
 62
     7
 10
7.205698
 20
10.099862
 30
0.000000
  0
LINE
  8
RING
 62
     7
  6
CONTINUOUS
 10
7.205698
 20
10.099862
 30
0.000000
 11
7.205698
 21
10.310862
 31
0.000000
  0
LINE
  8
RING
 62
     7
  6
CONTINUOUS
 10
7.205698
 20
10.098801
 30
0.000000
 11
7.205698
 21
9.887801
 31
0.000000
  0
POINT
  8
RING
 62
     7
 10
7.330681
 20
10.098801
 30
0.000000
  0
POINT
  8
RING
 62
     7
 10
7.330681
 20
10.099862
 30
0.000000
  0
LINE
  8
RING
 62
     7
  6
CONTINUOUS
 10
7.330681
 20
10.099862
 30
0.000000
 11
7.330681
 21
10.310862
 31
0.000000
  0
LINE
  8
RING
 62
     7
  6
CONTINUOUS
 10
7.330681
 20
10.098801
 30
0.000000
 11
7.330681
 21
9.887801
 31
0.000000
  0
POINT
  8
RING
 62
     7
 10
7.455664
 20
10.098801
 30
0.000000
  0
POINT
  8
RING
 62
     7
 10
7.455664
 20
10.099862
 30
0.000000
  0
LINE
  8
RING
 62
     7
  6
CONTINUOUS
 10
7.455664
 20
10.099862
 30
0.000000
 11
7.455664
 21
10.310862
 31
0.000000
  0
LINE
  8
RING
 62
     7
  6
CONTINUOUS
 10
7.455664
 20
10.098801
 30
0.000000
 11
7.455664
 21
9.887801
 31
0.000000
  0
POINT
  8
RING
 62
     7
 10
7.580647
 20
10.098801
 30
0.000000
  0
POINT
  8
RING
 62
     7
 10
7.580647
 20
10.099862
 30
0.000000
  0
LINE
  8
RING
 62
     7
  6
CONTINUOUS
 10
7.580647
 20
10.099862
 30
0.000000
 11
7.580647
 21
10.310862
 31
0.000000
  0
LINE
  8
RING
 62
     7
  6
CONTINUOUS
 10
7.580647
 20
10.098801
 30
0.000000
 11
7.580647
 21
9.887801
 31
0.000000
  0
POINT
  8
RING
 62
     7
 10
7.705630
 20
10.098801
 30
0.000000
  0
POINT
  8
RING
 62
     7
 10
7.705630
 20
10.099862
 30
0.000000
  0
LINE
  8
RING
 62
     7
  6
CONTINUOUS
 10
7.705630
 20
10.099862
 30
0.000000
 11
7.705630
 21
10.310862
 31
0.000000
  0
LINE
  8
RING
 62
     7
  6
CONTINUOUS
 10
7.705630
 20
10.098801
 30
0.000000
 11
7.705630
 21
9.887801
 31
0.000000
  0
POINT
  8
RING
 62
     7
 10
7.830612
 20
10.098801
 30
0.000000
  0
POINT
  8
RING
 62
     7
 10
7.830612
 20
10.099862
 30
0.000000
  0
LINE
  8
RING
 62
     7
  6
CONTINUOUS
 10
7.830612
 20
10.099862
 30
0.000000
 11
7.830612
 21
10.310862
 31
0.000000
  0
LINE
  8
RING
 62
     7
  6
CONTINUOUS
 10
7.830612
 20
10.098801
 30
0.000000
 11
7.830612
 21
9.887801
 31
0.000000
  0
POINT
  8
RING
 62
     7
 10
7.955595
 20
10.098801
 30
0.000000
  0
POINT
  8
RING
 62
     7
 10
7.955595
 20
10.099862
 30
0.000000
  0
LINE
  8
RING
 62
     7
  6
CONTINUOUS
 10
7.955595
 20
10.099862
 30
0.000000
 11
7.955595
 21
10.310862
 31
0.000000
  0
LINE
  8
RING
 62
     7
  6
CONTINUOUS
 10
7.955595
 20
10.098801
 30
0.000000
 11
7.955595
 21
9.887801
 31
0.000000
  0
POINT
  8
RING
 62
     7
 10
8.080578
 20
10.098801
 30
0.000000
  0
POINT
  8
RING
 62
     7
 10
8.080578
 20
10.099862
 30
0.000000
  0
LINE
  8
RING
 62
     7
  6
CONTINUOUS
 10
8.080578
 20
10.099862
 30
0.000000
 11
8.080578
 21
10.310862
 31
0.000000
  0
LINE
  8
RING
 62
     7
  6
CONTINUOUS
 10
8.080578
 20
10.098801
 30
0.000000
 11
8.080578
 21
9.887801
 31
0.000000
  0
POINT
  8
RING
 62
     7
 10
8.205561
 20
10.098801
 30
0.000000
  0
POINT
  8
RING
 62
     7
 10
8.205561
 20
10.099862
 30
0.000000
  0
LINE
  8
RING
 62
     7
  6
CONTINUOUS
 10
8.205561
 20
10.099862
 30
0.000000
 11
8.205561
 21
10.310862
 31
0.000000
  0
LINE
  8
RING
 62
     7
  6
CONTINUOUS
 10
8.205561
 20
10.098801
 30
0.000000
 11
8.205561
 21
9.887801
 31
0.000000
  0
POINT
  8
RING
 62
     7
 10
6.955727
 20
2.233214
 30
0.000000
  0
POINT
  8
RING
 62
     7
 10
6.955727
 20
2.275505
 30
0.000000
  0
POINT
  8
RING
 62
     7
 10
6.955727
 20
2.275505
 30
0.000000
  0
POINT
  8
RING
 62
     7
 10
6.953797
 20
2.572499
 30
0.000000
  0
POINT
  8
RING
 62
     7
 10
6.955727
 20
2.233214
 30
0.000000
  0
POINT
  8
RING
 62
     7
 10
6.955727
 20
2.275505
 30
0.000000
  0
POINT
  8
RING
 62
     7
 10
6.955727
 20
2.275505
 30
0.000000
  0
LINE
  8
RING
 62
     7
  6
CONTINUOUS
 10
7.252598
 20
1.978512
 30
0.000000
 11
7.627598
 21
1.978512
 31
0.000000
  0
LINE
  8
RING
 62
     7
  6
CONTINUOUS
 10
7.627598
 20
1.978512
 30
0.000000
 11
7.627598
 21
2.572512
 31
0.000000
  0
LINE
  8
RING
 62
     7
  6
CONTINUOUS
 10
7.627598
 20
2.572512
 30
0.000000
 11
6.953797
 21
2.572512
 31
0.000000
  0
LINE
  8
RING
 62
     7
  6
CONTINUOUS
 10
6.955727
 20
10.725503
 30
0.000000
 11
7.143227
 21
10.725503
 31
0.000000
  0
LINE
  8
RING
 62
     7
  6
CONTINUOUS
 10
7.143227
 20
10.725503
 30
0.000000
 11
7.280239
 21
11.040505
 31
0.000000
  0
LINE
  8
RING
 62
     7
  6
CONTINUOUS
 10
6.955727
 20
2.233214
 30
0.000000
 11
7.138226
 21
2.233214
 31
0.000000
  0
LINE
  8
RING
 62
     7
  6
CONTINUOUS
 10
7.138226
 20
2.233214
 30
0.000000
 11
7.281386
 21
1.910505
 31
0.000000
  0
POINT
  8
RING
 62
     7
 10
6.957833
 20
9.475505
 30
0.000000
  0
LINE
  8
RING
 62
     7
  6
CONTINUOUS
 10
6.957833
 20
9.475505
 30
0.000000
 11
7.270333
 21
9.475505
 31
0.000000
  0
LINE
  8
RING
 62
     7
  6
CONTINUOUS
 10
7.270333
 20
9.475505
 30
0.000000
 11
7.270333
 21
8.475505
 31
0.000000
  0
POINT
  8
RING
 62
     7
 10
6.955239
 20
3.475505
 30
0.000000
  0
LINE
  8
RING
 62
     7
  6
CONTINUOUS
 10
6.955239
 20
3.475505
 30
0.000000
 11
7.267739
 21
3.475505
 31
0.000000
  0
LINE
  8
RING
 62
     7
  6
CONTINUOUS
 10
7.267739
 20
3.475505
 30
0.000000
 11
7.267739
 21
4.475505
 31
0.000000
  0
LINE
  8
RING
 62
     7
  6
CONTINUOUS
 10
8.349060
 20
10.350505
 30
0.000000
 11
8.349060
 21
9.850505
 31
0.000000
  0
LINE
  8
RING
 62
     7
  6
CONTINUOUS
 10
6.955727
 20
5.350507
 30
0.000000
 11
6.955727
 21
2.225505
 31
0.000000
  0
LINE
  8
RING
 62
     7
  6
CONTINUOUS
 10
7.270333
 20
7.600507
 30
0.000000
 11
7.270333
 21
8.475505
 31
0.000000
  0
LINE
  8
RING
 62
     7
  6
CONTINUOUS
 10
7.270333
 20
4.475505
 30
0.000000
 11
7.270333
 21
5.350507
 31
0.000000
  0
LINE
  8
RING
 62
     7
  6
CONTINUOUS
 10
6.955727
 20
10.725503
 30
0.000000
 11
6.955727
 21
7.600507
 31
0.000000
  0
LINE
  8
BUSHING
 62
     7
  6
CONTINUOUS
 10
6.902430
 20
6.475505
 30
0.000000
 11
6.902430
 21
5.663005
 31
0.000000
  0
POINT
  8
BUSHING
 62
     7
 10
8.027750
 20
7.178614
 30
0.000000
  0
POINT
  8
BUSHING
 62
     7
 10
8.027750
 20
7.178614
 30
0.000000
  0
POINT
  8
BUSHING
 62
     7
 10
8.027758
 20
7.178614
 30
0.000000
  0
POINT
  8
BUSHING
 62
     7
 10
8.027758
 20
7.178614
 30
0.000000
  0
POINT
  8
BUSHING
 62
     7
 10
6.901289
 20
7.179534
 30
0.000000
  0
POINT
  8
BUSHING
 62
     7
 10
7.026289
 20
7.179534
 30
0.000000
  0
POINT
  8
BUSHING
 62
     7
 10
7.151289
 20
7.179534
 30
0.000000
  0
POINT
  8
BUSHING
 62
     7
 10
7.151289
 20
7.179534
 30
0.000000
  0
LINE
  8
BUSHING
 62
     7
  6
CONTINUOUS
 10
7.026289
 20
7.179534
 30
0.000000
 11
7.026289
 21
7.234233
 31
0.000000
  0
LINE
  8
BUSHING
 62
     7
  6
CONTINUOUS
 10
7.026289
 20
7.179534
 30
0.000000
 11
7.026289
 21
7.124833
 31
0.000000
  0
LINE
  8
BUSHING
 62
     7
  6
CONTINUOUS
 10
7.151289
 20
7.179534
 30
0.000000
 11
7.151289
 21
7.265919
 31
0.000000
  0
LINE
  8
BUSHING
 62
     7
  6
CONTINUOUS
 10
7.151289
 20
7.179534
 30
0.000000
 11
7.151289
 21
7.093146
 31
0.000000
  0
POINT
  8
BUSHING
 62
     7
 10
7.401289
 20
7.179534
 30
0.000000
  0
POINT
  8
BUSHING
 62
     7
 10
7.276289
 20
7.179534
 30
0.000000
  0
POINT
  8
BUSHING
 62
     7
 10
7.276289
 20
7.179534
 30
0.000000
  0
LINE
  8
BUSHING
 62
     7
  6
CONTINUOUS
 10
7.276289
 20
7.179534
 30
0.000000
 11
7.276289
 21
7.234233
 31
0.000000
  0
LINE
  8
BUSHING
 62
     7
  6
CONTINUOUS
 10
7.276289
 20
7.179534
 30
0.000000
 11
7.276289
 21
7.124833
 31
0.000000
  0
POINT
  8
BUSHING
 62
     7
 10
7.526289
 20
7.179534
 30
0.000000
  0
LINE
  8
BUSHING
 62
     7
  6
CONTINUOUS
 10
7.526289
 20
7.179534
 30
0.000000
 11
7.526289
 21
7.234233
 31
0.000000
  0
LINE
  8
BUSHING
 62
     7
  6
CONTINUOUS
 10
7.526289
 20
7.179534
 30
0.000000
 11
7.526289
 21
7.124833
 31
0.000000
  0
POINT
  8
BUSHING
 62
     7
 10
7.776289
 20
7.179534
 30
0.000000
  0
LINE
  8
BUSHING
 62
     7
  6
CONTINUOUS
 10
7.776289
 20
7.179534
 30
0.000000
 11
7.776289
 21
7.234233
 31
0.000000
  0
LINE
  8
BUSHING
 62
     7
  6
CONTINUOUS
 10
7.776289
 20
7.179534
 30
0.000000
 11
7.776289
 21
7.124833
 31
0.000000
  0
POINT
  8
BUSHING
 62
     7
 10
8.026289
 20
7.179534
 30
0.000000
  0
LINE
  8
BUSHING
 62
     7
  6
CONTINUOUS
 10
8.026289
 20
7.179534
 30
0.000000
 11
8.026289
 21
7.234233
 31
0.000000
  0
LINE
  8
BUSHING
 62
     7
  6
CONTINUOUS
 10
8.026289
 20
7.179534
 30
0.000000
 11
8.026289
 21
7.124833
 31
0.000000
  0
POINT
  8
BUSHING
 62
     7
 10
7.401289
 20
7.179534
 30
0.000000
  0
POINT
  8
BUSHING
 62
     7
 10
7.401289
 20
7.179534
 30
0.000000
  0
LINE
  8
BUSHING
 62
     7
  6
CONTINUOUS
 10
7.401289
 20
7.179534
 30
0.000000
 11
7.401289
 21
7.265919
 31
0.000000
  0
LINE
  8
BUSHING
 62
     7
  6
CONTINUOUS
 10
7.401289
 20
7.179534
 30
0.000000
 11
7.401289
 21
7.093146
 31
0.000000
  0
POINT
  8
BUSHING
 62
     7
 10
7.651289
 20
7.179534
 30
0.000000
  0
POINT
  8
BUSHING
 62
     7
 10
7.651289
 20
7.179534
 30
0.000000
  0
LINE
  8
BUSHING
 62
     7
  6
CONTINUOUS
 10
7.651289
 20
7.179534
 30
0.000000
 11
7.651289
 21
7.265919
 31
0.000000
  0
LINE
  8
BUSHING
 62
     7
  6
CONTINUOUS
 10
7.651289
 20
7.179534
 30
0.000000
 11
7.651289
 21
7.093146
 31
0.000000
  0
POINT
  8
BUSHING
 62
     7
 10
7.901289
 20
7.179534
 30
0.000000
  0
POINT
  8
BUSHING
 62
     7
 10
7.901289
 20
7.179534
 30
0.000000
  0
LINE
  8
BUSHING
 62
     7
  6
CONTINUOUS
 10
7.901289
 20
7.179534
 30
0.000000
 11
7.901289
 21
7.265919
 31
0.000000
  0
LINE
  8
BUSHING
 62
     7
  6
CONTINUOUS
 10
7.901289
 20
7.179534
 30
0.000000
 11
7.901289
 21
7.093146
 31
0.000000
  0
LINE
  8
BUSHING
 62
     7
  6
CONTINUOUS
 10
6.902430
 20
7.288005
 30
0.000000
 11
6.902430
 21
6.475505
 31
0.000000
  0
LINE
  8
BUSHING
 62
     7
  6
CONTINUOUS
 10
6.902430
 20
7.037997
 30
0.000000
 11
8.152430
 21
7.037997
 31
0.000000
  0
LINE
  8
BUSHING
 62
     7
  6
CONTINUOUS
 10
6.902430
 20
7.092663
 30
0.000000
 11
8.152430
 21
7.092663
 31
0.000000
  0
LINE
  8
BUSHING
 62
     7
  6
CONTINUOUS
 10
6.904936
 20
5.913014
 30
0.000000
 11
8.152430
 21
5.913014
 31
0.000000
  0
LINE
  8
BUSHING
 62
     7
  6
CONTINUOUS
 10
6.902430
 20
5.663005
 30
0.000000
 11
8.152430
 21
5.538005
 31
0.000000
  0
LINE
  8
BUSHING
 62
     7
  6
CONTINUOUS
 10
6.902430
 20
7.288005
 30
0.000000
 11
8.152430
 21
7.413005
 31
0.000000
  0
LINE
  8
BUSHING
 62
     7
  6
CONTINUOUS
 10
6.902430
 20
7.264563
 30
0.000000
 11
8.152430
 21
7.264563
 31
0.000000
  0
LINE
  8
BUSHING
 62
     7
  6
CONTINUOUS
 10
8.152430
 20
5.913014
 30
0.000000
 11
8.152430
 21
5.538005
 31
0.000000
  0
LINE
  8
BUSHING
 62
     7
  6
CONTINUOUS
 10
8.152430
 20
7.037997
 30
0.000000
 11
8.152430
 21
7.413005
 31
0.000000
  0
LINE
  8
BUSHING
 62
     7
  6
CONTINUOUS
 10
8.152430
 20
7.179534
 30
0.000000
 11
6.215258
 21
7.179534
 31
0.000000
  0
POINT
  8
BUSHING
 62
     7
 10
6.965430
 20
6.475505
 30
0.000000
  0
POINT
  8
ADC9
 62
     7
 10
8.982107
 20
6.475505
 30
0.000000
  0
LINE
  8
ADC9
 62
     7
  6
CONTINUOUS
 10
8.982107
 20
6.475505
 30
0.000000
 11
8.982107
 21
11.040505
 31
0.000000
  0
LINE
  8
ADC9
 62
     7
  6
CONTINUOUS
 10
8.982107
 20
11.040505
 30
0.000000
 11
10.512015
 21
11.040505
 31
0.000000
  0
LINE
  8
ADC9
 62
     7
  6
CONTINUOUS
 10
8.982107
 20
1.910506
 30
0.000000
 11
10.480238
 21
1.910506
 31
0.000000
  0
POINT
  8
ADC9
 62
     7
 10
8.982107
 20
6.475505
 30
0.000000
  0
POINT
  8
ADC9
 62
     7
 10
8.986430
 20
4.475510
 30
0.000000
  0
POINT
  8
ADC9
 62
     7
 10
8.982107
 20
6.475505
 30
0.000000
  0
POINT
  8
ADC9
 62
     7
 10
8.986555
 20
8.475501
 30
0.000000
  0
LINE
  8
ADC9
 62
     7
  6
CONTINUOUS
 10
8.986430
 20
4.475510
 30
0.000000
 11
8.795430
 21
4.475510
 31
0.000000
  0
LINE
  8
ADC9
 62
     7
  6
CONTINUOUS
 10
8.986555
 20
8.475501
 30
0.000000
 11
8.795555
 21
8.475501
 31
0.000000
  0
POINT
  8
ADC9
 62
     7
 10
8.795430
 20
6.475505
 30
0.000000
  0
POINT
  8
ADC9
 62
     7
 10
8.805374
 20
4.876536
 30
0.000000
  0
POINT
  8
ADC9
 62
     7
 10
8.802187
 20
8.074534
 30
0.000000
  0
POINT
  8
ADC9
 62
     7
 10
8.795430
 20
6.475505
 30
0.000000
  0
POINT
  8
ADC9
 62
     7
 10
8.453430
 20
6.475505
 30
0.000000
  0
LINE
  8
ADC9
 62
     7
  6
CONTINUOUS
 10
8.453430
 20
6.475505
 30
0.000000
 11
8.453430
 21
5.035506
 31
0.000000
  0
LINE
  8
ADC9
 62
     7
  6
CONTINUOUS
 10
8.453430
 20
6.475505
 30
0.000000
 11
8.453430
 21
7.915505
 31
0.000000
  0
LINE
  8
ADC9
 62
     7
  6
CONTINUOUS
 10
8.453430
 20
7.915505
 30
0.000000
 11
8.802187
 21
8.074534
 31
0.000000
  0
LINE
  8
ADC9
 62
     7
  6
CONTINUOUS
 10
8.453430
 20
5.035506
 30
0.000000
 11
8.805374
 21
4.876536
 31
0.000000
  0
POINT
  8
ADC9
 62
     7
 10
8.453430
 20
6.475505
 30
0.000000
  0
POINT
  8
ADC9
 62
     7
 10
8.453430
 20
6.475505
 30
0.000000
  0
POINT
  8
ADC9
 62
     7
 10
6.965430
 20
6.475505
 30
0.000000
  0
LINE
  8
ADC9
 62
     7
  6
CONTINUOUS
 10
6.965430
 20
6.475505
 30
0.000000
 11
6.965430
 21
5.975575
 31
0.000000
  0
LINE
  8
ADC9
 62
     7
  6
CONTINUOUS
 10
6.965430
 20
6.475505
 30
0.000000
 11
6.965430
 21
6.975505
 31
0.000000
  0
POINT
  8
ADC9
 62
     7
 10
6.965430
 20
6.475505
 30
0.000000
  0
POINT
  8
ADC9
 62
     7
 10
6.965430
 20
6.475505
 30
0.000000
  0
POINT
  8
ADC9
 62
     7
 10
7.025418
 20
6.474295
 30
0.000000
  0
POINT
  8
ADC9
 62
     7
 10
7.025418
 20
5.911795
 30
0.000000
  0
POINT
  8
ADC9
 62
     7
 10
7.025418
 20
7.036795
 30
0.000000
  0
LINE
  8
ADC9
 62
     7
  6
CONTINUOUS
 10
7.025418
 20
5.911795
 30
0.000000
 11
8.453430
 21
5.911795
 31
0.000000
  0
LINE
  8
ADC9
 62
     7
  6
CONTINUOUS
 10
7.025418
 20
7.036795
 30
0.000000
 11
8.453430
 21
7.036795
 31
0.000000
  0
LINE
  8
ADC9
 62
     7
  6
CONTINUOUS
 10
7.025418
 20
6.474295
 30
0.000000
 11
7.025418
 21
5.911795
 31
0.000000
  0
LINE
  8
ADC9
 62
     7
  6
CONTINUOUS
 10
7.025418
 20
6.474295
 30
0.000000
 11
7.025418
 21
7.036795
 31
0.000000
  0
LINE
  8
ADC9
 62
     7
  6
CONTINUOUS
 10
7.025418
 20
7.036795
 30
0.000000
 11
6.965430
 21
6.975505
 31
0.000000
  0
LINE
  8
ADC9
 62
     7
  6
CONTINUOUS
 10
6.965430
 20
5.975575
 30
0.000000
 11
7.025418
 21
5.911795
 31
0.000000
  0
LINE
  8
RING
 62
     7
  6
CONTINUOUS
 10
6.955309
 20
10.350505
 30
0.000000
 11
8.982107
 21
10.350505
 31
0.000000
  0
LINE
  8
RING
 62
     7
  6
CONTINUOUS
 10
6.955199
 20
9.850505
 30
0.000000
 11
8.982107
 21
9.850505
 31
0.000000
  0
LINE
  8
RING
 62
     7
  6
CONTINUOUS
 10
7.280239
 20
11.040505
 30
0.000000
 11
8.982107
 21
11.040505
 31
0.000000
  0
LINE
  8
RING
 62
     7
  6
CONTINUOUS
 10
7.263233
 20
8.475505
 30
0.000000
 11
8.795430
 21
8.475505
 31
0.000000
  0
LINE
  8
RING
 62
     7
  6
CONTINUOUS
 10
7.264349
 20
4.475505
 30
0.000000
 11
8.795430
 21
4.475505
 31
0.000000
  0
LINE
  8
RING
 62
     7
  6
CONTINUOUS
 10
7.281386
 20
1.910505
 30
0.000000
 11
8.982107
 21
1.910505
 31
0.000000
  0
LINE
  8
RING
 62
     7
  6
CONTINUOUS
 10
7.626587
 20
2.072507
 30
0.000000
 11
8.982107
 21
2.072507
 31
0.000000
  0
LINE
  8
RING
 62
     7
  6
CONTINUOUS
 10
6.724024
 20
2.275505
 30
0.000000
 11
8.982107
 21
2.275505
 31
0.000000
  0
LINE
  8
RING
 62
     7
  6
CONTINUOUS
 10
7.626587
 20
2.478505
 30
0.000000
 11
8.982107
 21
2.478505
 31
0.000000
  0
LINE
  8
HUB
 62
     7
  6
CONTINUOUS
 10
12.652756
 20
7.413005
 30
0.000000
 11
12.652756
 21
5.538005
 31
0.000000
  0
LINE
  8
CNTRLINE
 62
     7
  6
CONTINUOUS
 10
0.895727
 20
6.475505
 30
0.000000
 11
16.995727
 21
6.475505
 31
0.000000
  0
LINE
  8
CNTRLINE
 62
     7
  6
CONTINUOUS
 10
2.937542
 20
11.991479
 30
0.000000
 11
2.937542
 21
0.406312
 31
0.000000
  0
CIRCLE
  8
HUB
 62
     7
  6
CONTINUOUS
 10
2.937542
 20
6.475505
 30
0.000000
 40
1.631001
  0
POINT
  8
HUB
 62
     7
 10
2.937542
 20
6.475505
 30
0.000000
  0
CIRCLE
  8
HUB
 62
     7
  6
CONTINUOUS
 10
2.937542
 20
6.475505
 30
0.000000
 40
0.375000
  0
CIRCLE
  8
HUB
 62
     7
  6
CONTINUOUS
 10
2.937542
 20
6.475505
 30
0.000000
 40
1.277500
  0
CIRCLE
  8
HUB
 62
     7
  6
CONTINUOUS
 10
2.937542
 20
7.753005
 30
0.000000
 40
0.202000
  0
CIRCLE
  8
HUB
 62
     7
  6
CONTINUOUS
 10
1.831194
 20
7.114255
 30
0.000000
 40
0.201999
  0
CIRCLE
  8
HUB
 62
     7
  6
CONTINUOUS
 10
1.831194
 20
5.836755
 30
0.000000
 40
0.201999
  0
CIRCLE
  8
HUB
 62
     7
  6
CONTINUOUS
 10
2.937542
 20
5.198004
 30
0.000000
 40
0.202000
  0
CIRCLE
  8
HUB
 62
     7
  6
CONTINUOUS
 10
4.043890
 20
5.836755
 30
0.000000
 40
0.201999
  0
CIRCLE
  8
HUB
 62
     7
  6
CONTINUOUS
 10
4.043890
 20
7.114255
 30
0.000000
 40
0.201999
  0
CIRCLE
  8
HUB
 62
     7
  6
CONTINUOUS
 10
3.640542
 20
6.475505
 30
0.000000
 40
0.101551
  0
CIRCLE
  8
HUB
 62
     7
  6
CONTINUOUS
 10
3.640542
 20
6.475505
 30
0.000000
 40
0.164000
  0
CIRCLE
  8
HUB
 62
     7
  6
CONTINUOUS
 10
3.289042
 20
5.866688
 30
0.000000
 40
0.101551
  0
CIRCLE
  8
HUB
 62
     7
  6
CONTINUOUS
 10
3.289042
 20
5.866688
 30
0.000000
 40
0.163998
  0
CIRCLE
  8
HUB
 62
     7
  6
CONTINUOUS
 10
2.586042
 20
5.866688
 30
0.000000
 40
0.101551
  0
CIRCLE
  8
HUB
 62
     7
  6
CONTINUOUS
 10
2.586042
 20
5.866688
 30
0.000000
 40
0.163999
  0
CIRCLE
  8
HUB
 62
     7
  6
CONTINUOUS
 10
2.234542
 20
6.475505
 30
0.000000
 40
0.101551
  0
CIRCLE
  8
HUB
 62
     7
  6
CONTINUOUS
 10
2.234542
 20
6.475505
 30
0.000000
 40
0.164000
  0
CIRCLE
  8
HUB
 62
     7
  6
CONTINUOUS
 10
2.586041
 20
7.084321
 30
0.000000
 40
0.101551
  0
CIRCLE
  8
HUB
 62
     7
  6
CONTINUOUS
 10
2.586041
 20
7.084321
 30
0.000000
 40
0.164000
  0
CIRCLE
  8
HUB
 62
     7
  6
CONTINUOUS
 10
3.289041
 20
7.084321
 30
0.000000
 40
0.101551
  0
CIRCLE
  8
HUB
 62
     7
  6
CONTINUOUS
 10
3.289041
 20
7.084321
 30
0.000000
 40
0.163999
  0
ARC
  8
HUB
 62
     7
  6
CONTINUOUS
 10
2.937545
 20
6.475505
 30
0.000000
 40
0.702997
 50
13.424771
 51
46.532655
  0
ARC
  8
HUB
 62
     7
  6
CONTINUOUS
 10
2.937542
 20
6.475521
 30
0.000000
 40
0.702983
 50
72.962975
 51
106.268891
  0
ARC
  8
HUB
 62
     7
  6
CONTINUOUS
 10
2.937549
 20
6.475500
 30
0.000000
 40
0.703008
 50
133.490743
 51
166.557953
  0
ARC
  8
HUB
 62
     7
  6
CONTINUOUS
 10
2.937558
 20
6.475512
 30
0.000000
 40
0.703017
 50
193.435990
 51
226.591008
  0
ARC
  8
HUB
 62
     7
  6
CONTINUOUS
 10
2.937540
 20
6.475496
 30
0.000000
 40
0.702993
 50
253.316378
 51
286.779200
  0
ARC
  8
HUB
 62
     7
  6
CONTINUOUS
 10
2.937550
 20
6.475498
 30
0.000000
 40
0.702990
 50
313.420724
 51
346.603628
  0
POINT
  8
PLATE
 62
     7
 10
2.937542
 20
6.475505
 30
0.000000
  0
POINT
  8
PLATE
 62
     7
 10
2.937542
 20
6.475505
 30
0.000000
  0
POINT
  8
PLATE
 62
     7
 10
2.937542
 20
6.475505
 30
0.000000
  0
POINT
  8
PLATE
 62
     7
 10
2.937542
 20
2.850505
 30
0.000000
  0
CIRCLE
  8
PLATE
 62
     7
  6
CONTINUOUS
 10
2.937542
 20
2.850505
 30
0.000000
 40
0.265600
  0
POINT
  8
PLATE
 62
     7
 10
2.937542
 20
10.100505
 30
0.000000
  0
CIRCLE
  8
PLATE
 62
     7
  6
CONTINUOUS
 10
2.937542
 20
10.100505
 30
0.000000
 40
0.265600
  0
ARC
  8
PLATE
 62
     7
  6
CONTINUOUS
 10
2.937541
 20
6.475501
 30
0.000000
 40
3.624996
 50
237.947985
 51
302.166017
  0
ARC
  8
PLATE
 62
     7
  6
CONTINUOUS
 10
2.937541
 20
6.475503
 30
0.000000
 40
3.625001
 50
57.923699
 51
122.409016
  0
LINE
  8
ADC9
 62
     7
  6
CONTINUOUS
 10
8.795430
 20
5.293584
 30
0.000000
 11
8.795430
 21
4.475510
 31
0.000000
  0
LINE
  8
ADC9
 62
     7
  6
CONTINUOUS
 10
8.795430
 20
5.536830
 30
0.000000
 11
8.795430
 21
8.475501
 31
0.000000
  0
LINE
  8
ADC9
 62
     7
  6
CONTINUOUS
 10
8.982107
 20
5.536830
 30
0.000000
 11
8.982107
 21
6.475505
 31
0.000000
  0
LINE
  8
ADC9
 62
     7
  6
CONTINUOUS
 10
8.982107
 20
5.282527
 30
0.000000
 11
8.982107
 21
1.910506
 31
0.000000
  0
LINE
  8
DIMEN
 62
     7
  6
CONTINUOUS
 10
4.995727
 20
11.682263
 30
0.000000
 11
5.103981
 21
11.744763
 31
0.000000
  0
LINE
  8
DIMEN
 62
     7
  6
CONTINUOUS
 10
4.995727
 20
11.682263
 30
0.000000
 11
5.103981
 21
11.619763
 31
0.000000
  0
LINE
  8
DIMEN
 62
     7
  6
CONTINUOUS
 10
6.453728
 20
11.682263
 30
0.000000
 11
6.345475
 21
11.619763
 31
0.000000
  0
LINE
  8
DIMEN
 62
     7
  6
CONTINUOUS
 10
6.453728
 20
11.682263
 30
0.000000
 11
6.345475
 21
11.744763
 31
0.000000
  0
LINE
  8
DIMEN
 62
     7
  6
CONTINUOUS
 10
4.995727
 20
11.765007
 30
0.000000
 11
4.995727
 21
11.619263
 31
0.000000
  0
LINE
  8
DIMEN
 62
     7
  6
CONTINUOUS
 10
6.453728
 20
12.507092
 30
0.000000
 11
6.453728
 21
11.619263
 31
0.000000
  0
TEXT
  8
DIMEN
 62
     7
 10
4.055246
 20
11.619237
 30
0.000000
 40
0.125000
  1
1.458"
  0
LINE
  8
DIMEN
 62
     7
  6
CONTINUOUS
 10
4.874043
 20
11.682263
 30
0.000000
 11
6.453728
 21
11.682263
 31
0.000000
  0
LINE
  8
DIMEN
 62
     7
  6
CONTINUOUS
 10
6.955727
 20
11.927151
 30
0.000000
 11
7.063980
 21
11.989651
 31
0.000000
  0
LINE
  8
DIMEN
 62
     7
  6
CONTINUOUS
 10
6.955727
 20
11.927151
 30
0.000000
 11
7.063980
 21
11.864651
 31
0.000000
  0
LINE
  8
DIMEN
 62
     7
  6
CONTINUOUS
 10
8.982107
 20
11.927151
 30
0.000000
 11
8.873854
 21
11.864651
 31
0.000000
  0
LINE
  8
DIMEN
 62
     7
  6
CONTINUOUS
 10
8.982107
 20
11.927151
 30
0.000000
 11
8.873854
 21
11.989651
 31
0.000000
  0
LINE
  8
DIMEN
 62
     7
  6
CONTINUOUS
 10
6.955727
 20
10.788503
 30
0.000000
 11
6.955727
 21
11.990151
 31
0.000000
  0
LINE
  8
DIMEN
 62
     7
  6
CONTINUOUS
 10
8.982107
 20
11.103505
 30
0.000000
 11
8.982107
 21
11.990151
 31
0.000000
  0
TEXT
  8
DIMEN
 62
     7
 10
7.592048
 20
11.864339
 30
0.000000
 40
0.125000
  1
2.026"
  0
LINE
  8
DIMEN
 62
     7
  6
CONTINUOUS
 10
6.955727
 20
11.927151
 30
0.000000
 11
7.529548
 21
11.927151
 31
0.000000
  0
LINE
  8
DIMEN
 62
     7
  6
CONTINUOUS
 10
8.408286
 20
11.927151
 30
0.000000
 11
8.982107
 21
11.927151
 31
0.000000
  0
LINE
  8
DIMEN
 62
     7
  6
CONTINUOUS
 10
3.589764
 20
4.513839
 30
0.000000
 11
3.652764
 21
4.513839
 31
0.000000
  0
LINE
  8
DIMEN
 62
     7
  6
CONTINUOUS
 10
3.340596
 20
5.263253
 30
0.000000
 11
3.247134
 21
5.346258
 31
0.000000
  0
LINE
  8
DIMEN
 62
     7
  6
CONTINUOUS
 10
3.340596
 20
5.263253
 30
0.000000
 11
3.365750
 21
5.385696
 31
0.000000
  0
LINE
  8
DIMEN
 62
     7
  6
CONTINUOUS
 10
2.534488
 20
7.687756
 30
0.000000
 11
2.627950
 21
7.604751
 31
0.000000
  0
LINE
  8
DIMEN
 62
     7
  6
CONTINUOUS
 10
2.534488
 20
7.687756
 30
0.000000
 11
2.509334
 21
7.565313
 31
0.000000
  0
TEXT
  8
DIMEN
 62
     7
 10
3.715264
 20
4.451032
 30
0.000000
 40
0.125000
  1
2.555"
  0
LINE
  8
DIMEN
 62
     7
  6
CONTINUOUS
 10
2.534488
 20
7.687756
 30
0.000000
 11
3.589764
 21
4.513839
 31
0.000000
  0
TEXT
  8
DIMEN
 62
     7
 10
3.777764
 20
4.263838
 30
0.000000
 40
0.125000
  1
BOLT
  0
TEXT
  8
DIMEN
 62
     7
 10
3.777764
 20
4.076337
 30
0.000000
 40
0.125000
  1
CIRCLE
  0
LINE
  8
DIMEN
 62
     7
  6
CONTINUOUS
 10
2.676209
 20
11.023015
 30
0.000000
 11
2.613209
 21
11.023015
 31
0.000000
  0
LINE
  8
DIMEN
 62
     7
  6
CONTINUOUS
 10
2.693708
 20
10.718503
 30
0.000000
 11
2.762316
 21
10.614014
 31
0.000000
  0
LINE
  8
DIMEN
 62
     7
  6
CONTINUOUS
 10
2.693708
 20
10.718503
 30
0.000000
 11
2.637522
 21
10.606843
 31
0.000000
  0
LINE
  8
DIMEN
 62
     7
  6
CONTINUOUS
 10
3.181373
 20
2.232498
 30
0.000000
 11
3.112766
 21
2.336988
 31
0.000000
  0
LINE
  8
DIMEN
 62
     7
  6
CONTINUOUS
 10
3.181373
 20
2.232498
 30
0.000000
 11
3.237560
 21
2.344159
 31
0.000000
  0
TEXT
  8
DIMEN
 62
     7
 10
1.040388
 20
10.959966
 30
0.000000
 40
0.125000
  1
8.500"
  0
TEXT
  8
DIMEN
 62
     7
 10
1.796971
 20
11.148015
 30
0.000000
 40
0.125000
  1
+.002"
  0
TEXT
  8
DIMEN
 62
     7
 10
1.796971
 20
10.771917
 30
0.000000
 40
0.125000
  1
-.000"
  0
LINE
  8
DIMEN
 62
     7
  6
CONTINUOUS
 10
3.181373
 20
2.232498
 30
0.000000
 11
2.676209
 21
11.023015
 31
0.000000
  0
LINE
  8
DIMEN
 62
     7
  6
CONTINUOUS
 10
1.947427
 20
9.657270
 30
0.000000
 11
1.884427
 21
9.657270
 31
0.000000
  0
LINE
  8
DIMEN
 62
     7
  6
CONTINUOUS
 10
2.046151
 20
9.340015
 30
0.000000
 11
2.137994
 21
9.255222
 31
0.000000
  0
LINE
  8
DIMEN
 62
     7
  6
CONTINUOUS
 10
2.046151
 20
9.340015
 30
0.000000
 11
2.018639
 21
9.218081
 31
0.000000
  0
LINE
  8
DIMEN
 62
     7
  6
CONTINUOUS
 10
3.828932
 20
3.610994
 30
0.000000
 11
3.737089
 21
3.695787
 31
0.000000
  0
LINE
  8
DIMEN
 62
     7
  6
CONTINUOUS
 10
3.828932
 20
3.610994
 30
0.000000
 11
3.856444
 21
3.732929
 31
0.000000
  0
TEXT
  8
DIMEN
 62
     7
 10
1.571041
 20
9.594549
 30
0.000000
 40
0.125000
  1
6"
  0
LINE
  8
DIMEN
 62
     7
  6
CONTINUOUS
 10
3.828932
 20
3.610994
 30
0.000000
 11
1.947427
 21
9.657270
 31
0.000000
  0
TEXT
  8
DIMEN
 62
     7
 10
1.237015
 20
9.219771
 30
0.000000
 40
0.125000
  1
CUTOUT
  0
TEXT
  8
DIMEN
 62
     7
 10
1.458792
 20
9.407271
 30
0.000000
 40
0.125000
  1
HUB
  0
ARC
  8
PLATE
 62
     7
  6
CONTINUOUS
 10
2.937541
 20
6.475501
 30
0.000000
 40
3.000004
 50
49.189621
 51
108.857998
  0
ARC
  8
PLATE
 62
     7
  6
CONTINUOUS
 10
2.937570
 20
6.475464
 30
0.000000
 40
3.000049
 50
115.346068
 51
130.025393
  0
LINE
  8
DIMEN
 62
     7
  6
CONTINUOUS
 10
2.937541
 20
8.778367
 30
0.000000
 11
2.829288
 21
8.715867
 31
0.000000
  0
LINE
  8
DIMEN
 62
     7
  6
CONTINUOUS
 10
2.937541
 20
8.778367
 30
0.000000
 11
2.829288
 21
8.840867
 31
0.000000
  0
LINE
  8
DIMEN
 62
     7
  6
CONTINUOUS
 10
0.943204
 20
7.626940
 30
0.000000
 11
0.943204
 21
7.751940
 31
0.000000
  0
LINE
  8
DIMEN
 62
     7
  6
CONTINUOUS
 10
0.943204
 20
7.626940
 30
0.000000
 11
1.051457
 21
7.689440
 31
0.000000
  0
LINE
  8
DIMEN
 62
     7
  6
CONTINUOUS
 10
2.937542
 20
7.816005
 30
0.000000
 11
2.937542
 21
8.841367
 31
0.000000
  0
LINE
  8
DIMEN
 62
     7
  6
CONTINUOUS
 10
1.776635
 20
7.145755
 30
0.000000
 11
0.888644
 21
7.658440
 31
0.000000
  0
TEXT
  8
DIMEN
 62
     7
 10
1.597937
 20
8.407118
 30
0.000000
 40
0.125000
  1
60
  0
ARC
  8
DIMEN
 62
     7
  6
CONTINUOUS
 10
2.937541
 20
6.475501
 30
0.000000
 40
2.302866
 50
90.000000
 51
113.025804
  0
ARC
  8
DIMEN
 62
     7
  6
CONTINUOUS
 10
2.937541
 20
6.475501
 30
0.000000
 40
2.302866
 50
125.742702
 51
149.999830
  0
LINE
  8
DIMEN
 62
     7
  6
CONTINUOUS
 10
3.946309
 20
4.728280
 30
0.000000
 11
4.008809
 21
4.836533
 31
0.000000
  0
LINE
  8
DIMEN
 62
     7
  6
CONTINUOUS
 10
3.946309
 20
4.728280
 30
0.000000
 11
4.071309
 21
4.728280
 31
0.000000
  0
LINE
  8
DIMEN
 62
     7
  6
CONTINUOUS
 10
4.955063
 20
6.475512
 30
0.000000
 11
5.017563
 21
6.367259
 31
0.000000
  0
LINE
  8
DIMEN
 62
     7
  6
CONTINUOUS
 10
4.955063
 20
6.475512
 30
0.000000
 11
4.892563
 21
6.367259
 31
0.000000
  0
LINE
  8
DIMEN
 62
     7
  6
CONTINUOUS
 10
3.320543
 20
5.812129
 30
0.000000
 11
3.977810
 21
4.673720
 31
0.000000
  0
LINE
  8
DIMEN
 62
     7
  6
CONTINUOUS
 10
3.703542
 20
6.475505
 30
0.000000
 11
5.018063
 21
6.475512
 31
0.000000
  0
TEXT
  8
DIMEN
 62
     7
 10
4.496597
 20
5.404023
 30
0.000000
 40
0.125000
  1
60
  0
ARC
  8
DIMEN
 62
     7
  6
CONTINUOUS
 10
2.937541
 20
6.475501
 30
0.000000
 40
2.017522
 50
300.000247
 51
325.801319
  0
ARC
  8
DIMEN
 62
     7
  6
CONTINUOUS
 10
2.937541
 20
6.475501
 30
0.000000
 40
2.017522
 50
334.028295
 51
360.000311
  0
LINE
  8
DIMEN
 62
     7
  6
CONTINUOUS
 10
2.383583
 20
4.786388
 30
0.000000
 11
2.320583
 21
4.786388
 31
0.000000
  0
LINE
  8
DIMEN
 62
     7
  6
CONTINUOUS
 10
2.429278
 20
4.925720
 30
0.000000
 11
2.403625
 21
5.048060
 31
0.000000
  0
LINE
  8
DIMEN
 62
     7
  6
CONTINUOUS
 10
2.429278
 20
4.925720
 30
0.000000
 11
2.522401
 21
5.009106
 31
0.000000
  0
LINE
  8
DIMEN
 62
     7
  6
CONTINUOUS
 10
3.445805
 20
8.025289
 30
0.000000
 11
3.471458
 21
7.902949
 31
0.000000
  0
LINE
  8
DIMEN
 62
     7
  6
CONTINUOUS
 10
3.445805
 20
8.025289
 30
0.000000
 11
3.352683
 21
7.941903
 31
0.000000
  0
TEXT
  8
DIMEN
 62
     7
 10
1.505256
 20
4.723653
 30
0.000000
 40
0.125000
  1
3.262"
  0
LINE
  8
DIMEN
 62
     7
  6
CONTINUOUS
 10
3.445805
 20
8.025289
 30
0.000000
 11
2.383583
 21
4.786388
 31
0.000000
  0
LINE
  8
DIMEN
 62
     7
  6
CONTINUOUS
 10
2.706662
 20
4.553650
 30
0.000000
 11
2.643662
 21
4.553650
 31
0.000000
  0
LINE
  8
DIMEN
 62
     7
  6
CONTINUOUS
 10
2.853690
 20
5.777522
 30
0.000000
 11
2.804548
 21
5.892457
 31
0.000000
  0
LINE
  8
DIMEN
 62
     7
  6
CONTINUOUS
 10
2.853690
 20
5.777522
 30
0.000000
 11
2.928656
 21
5.877548
 31
0.000000
  0
LINE
  8
DIMEN
 62
     7
  6
CONTINUOUS
 10
3.021390
 20
7.173472
 30
0.000000
 11
3.070532
 21
7.058537
 31
0.000000
  0
LINE
  8
DIMEN
 62
     7
  6
CONTINUOUS
 10
3.021390
 20
7.173472
 30
0.000000
 11
2.946424
 21
7.073446
 31
0.000000
  0
TEXT
  8
DIMEN
 62
     7
 10
1.579773
 20
4.491063
 30
0.000000
 40
0.125000
  1
1 13/32"
  0
LINE
  8
DIMEN
 62
     7
  6
CONTINUOUS
 10
3.021390
 20
7.173472
 30
0.000000
 11
2.706662
 21
4.553650
 31
0.000000
  0
TEXT
  8
DIMEN
 62
     7
 10
1.518662
 20
4.303650
 30
0.000000
 40
0.125000
  1
BOLT CIRCLE
  0
TEXT
  8
DIMEN
 62
     7
 10
1.518662
 20
4.116151
 30
0.000000
 40
0.125000
  1
AND PILOT
  0
TEXT
  8
DIMEN
 62
     7
 10
1.518662
 20
3.928650
 30
0.000000
 40
0.125000
  1
BEARING
  0
TEXT
  8
DIMEN
 62
     7
 10
1.518662
 20
3.741151
 30
0.000000
 40
0.125000
  1
RECESS
  0
ARC
  8
PLATE
 62
     7
  6
CONTINUOUS
 10
2.936725
 20
6.474152
 30
0.000000
 40
2.998420
 50
236.305924
 51
240.882217
  0
ARC
  8
PLATE
 62
     7
  6
CONTINUOUS
 10
2.937542
 20
6.475503
 30
0.000000
 40
2.999997
 50
247.956015
 51
309.803037
  0
LINE
  8
DIMEN
 62
     7
  6
CONTINUOUS
 10
3.095384
 20
10.314114
 30
0.000000
 11
3.075920
 21
10.437589
 31
0.000000
  0
LINE
  8
DIMEN
 62
     7
  6
CONTINUOUS
 10
3.095384
 20
10.314114
 30
0.000000
 11
3.192585
 21
10.392709
 31
0.000000
  0
LINE
  8
DIMEN
 62
     7
  6
CONTINUOUS
 10
3.095384
 20
10.314114
 30
0.000000
 11
3.353906
 21
10.986130
 31
0.000000
  0
LINE
  8
DIMEN
 62
     7
  6
CONTINUOUS
 10
3.353906
 20
10.986130
 30
0.000000
 11
3.478906
 21
10.986130
 31
0.000000
  0
TEXT
  8
DIMEN
 62
     7
 10
3.603906
 20
10.923630
 30
0.000000
 40
0.125000
  1
SEE NOTE D
  0
LINE
  8
DIMEN
 62
     7
  6
CONTINUOUS
 10
3.025062
 20
7.935061
 30
0.000000
 11
3.008286
 21
8.058930
 31
0.000000
  0
LINE
  8
DIMEN
 62
     7
  6
CONTINUOUS
 10
3.025062
 20
7.935061
 30
0.000000
 11
3.123948
 21
8.011524
 31
0.000000
  0
LINE
  8
DIMEN
 62
     7
  6
CONTINUOUS
 10
3.025062
 20
7.935061
 30
0.000000
 11
3.340870
 21
8.705577
 31
0.000000
  0
LINE
  8
DIMEN
 62
     7
  6
CONTINUOUS
 10
3.340870
 20
8.705577
 30
0.000000
 11
3.465870
 21
8.705577
 31
0.000000
  0
TEXT
  8
DIMEN
 62
     7
 10
3.590870
 20
8.643077
 30
0.000000
 40
0.125000
  1
SEE NOTE C
  0
LINE
  8
DIMEN
 62
     7
  6
CONTINUOUS
 10
3.350982
 20
7.236172
 30
0.000000
 11
3.337655
 21
7.360460
 31
0.000000
  0
LINE
  8
DIMEN
 62
     7
  6
CONTINUOUS
 10
3.350982
 20
7.236172
 30
0.000000
 11
3.451955
 21
7.309858
 31
0.000000
  0
LINE
  8
DIMEN
 62
     7
  6
CONTINUOUS
 10
3.350982
 20
7.236172
 30
0.000000
 11
3.758009
 21
8.155560
 31
0.000000
  0
LINE
  8
DIMEN
 62
     7
  6
CONTINUOUS
 10
3.758009
 20
8.155560
 30
0.000000
 11
3.883009
 21
8.155560
 31
0.000000
  0
TEXT
  8
DIMEN
 62
     7
 10
4.008009
 20
8.093060
 30
0.000000
 40
0.125000
  1
SEE NOTE B
  0
LINE
  8
PARTS
 62
     7
  6
CONTINUOUS
 10
4.995727
 20
8.276295
 30
0.000000
 11
4.995727
 21
11.828007
 31
0.000000
  0
LINE
  8
PARTS
 62
     7
  6
CONTINUOUS
 10
4.995727
 20
8.007996
 30
0.000000
 11
4.995727
 21
1.123007
 31
0.000000
  0
LINE
  8
DIMEN
 62
     7
  6
CONTINUOUS
 10
6.955727
 20
11.178330
 30
0.000000
 11
6.847474
 21
11.115830
 31
0.000000
  0
LINE
  8
DIMEN
 62
     7
  6
CONTINUOUS
 10
6.955727
 20
11.178330
 30
0.000000
 11
6.847474
 21
11.240830
 31
0.000000
  0
LINE
  8
DIMEN
 62
     7
  6
CONTINUOUS
 10
7.078726
 20
11.178330
 30
0.000000
 11
7.186979
 21
11.240830
 31
0.000000
  0
LINE
  8
DIMEN
 62
     7
  6
CONTINUOUS
 10
7.078726
 20
11.178330
 30
0.000000
 11
7.186979
 21
11.115830
 31
0.000000
  0
LINE
  8
DIMEN
 62
     7
  6
CONTINUOUS
 10
6.955727
 20
10.788503
 30
0.000000
 11
6.955727
 21
11.241330
 31
0.000000
  0
LINE
  8
DIMEN
 62
     7
  6
CONTINUOUS
 10
7.078726
 20
10.788507
 30
0.000000
 11
7.078726
 21
11.241330
 31
0.000000
  0
TEXT
  8
DIMEN
 62
     7
 10
7.415750
 20
11.115422
 30
0.000000
 40
0.125000
  1
1/8"
  0
LINE
  8
DIMEN
 62
     7
  6
CONTINUOUS
 10
6.955727
 20
11.178330
 30
0.000000
 11
6.705727
 21
11.178330
 31
0.000000
  0
LINE
  8
DIMEN
 62
     7
  6
CONTINUOUS
 10
7.078726
 20
11.178330
 30
0.000000
 11
7.328726
 21
11.178330
 31
0.000000
  0
LINE
  8
DIMEN
 62
     7
  6
CONTINUOUS
 10
10.402756
 20
6.741044
 30
0.000000
 11
10.294503
 21
6.678544
 31
0.000000
  0
LINE
  8
DIMEN
 62
     7
  6
CONTINUOUS
 10
10.402756
 20
6.741044
 30
0.000000
 11
10.294503
 21
6.803544
 31
0.000000
  0
LINE
  8
DIMEN
 62
     7
  6
CONTINUOUS
 10
10.527756
 20
6.741044
 30
0.000000
 11
10.636009
 21
6.803544
 31
0.000000
  0
LINE
  8
DIMEN
 62
     7
  6
CONTINUOUS
 10
10.527756
 20
6.741044
 30
0.000000
 11
10.636009
 21
6.678544
 31
0.000000
  0
LINE
  8
DIMEN
 62
     7
  6
CONTINUOUS
 10
10.402756
 20
7.115506
 30
0.000000
 11
10.402756
 21
6.678044
 31
0.000000
  0
LINE
  8
DIMEN
 62
     7
  6
CONTINUOUS
 10
10.527756
 20
7.115506
 30
0.000000
 11
10.527756
 21
6.678044
 31
0.000000
  0
TEXT
  8
DIMEN
 62
     7
 10
10.863262
 20
6.678135
 30
0.000000
 40
0.125000
  1
1/8"
  0
LINE
  8
DIMEN
 62
     7
  6
CONTINUOUS
 10
10.402756
 20
6.741044
 30
0.000000
 11
10.152756
 21
6.741044
 31
0.000000
  0
LINE
  8
DIMEN
 62
     7
  6
CONTINUOUS
 10
10.527756
 20
6.741044
 30
0.000000
 11
10.777756
 21
6.741044
 31
0.000000
  0
LINE
  8
HUB
 62
     7
  6
CONTINUOUS
 10
11.277756
 20
6.660351
 30
0.000000
 11
11.277756
 21
5.675505
 31
0.000000
  0
LINE
  8
HUB
 62
     7
  6
CONTINUOUS
 10
11.277756
 20
6.821736
 30
0.000000
 11
11.277756
 21
7.281079
 31
0.000000
  0
LINE
  8
DIMEN
 62
     7
  6
CONTINUOUS
 10
9.846496
 20
5.772505
 30
0.000000
 11
9.783996
 21
5.880759
 31
0.000000
  0
LINE
  8
DIMEN
 62
     7
  6
CONTINUOUS
 10
9.846496
 20
5.772505
 30
0.000000
 11
9.908996
 21
5.880759
 31
0.000000
  0
LINE
  8
DIMEN
 62
     7
  6
CONTINUOUS
 10
9.846496
 20
7.178506
 30
0.000000
 11
9.908996
 21
7.070252
 31
0.000000
  0
LINE
  8
DIMEN
 62
     7
  6
CONTINUOUS
 10
9.846496
 20
7.178506
 30
0.000000
 11
9.783996
 21
7.070252
 31
0.000000
  0
LINE
  8
DIMEN
 62
     7
  6
CONTINUOUS
 10
10.339756
 20
5.772505
 30
0.000000
 11
9.783496
 21
5.772505
 31
0.000000
  0
LINE
  8
DIMEN
 62
     7
  6
CONTINUOUS
 10
10.339756
 20
7.178506
 30
0.000000
 11
9.783496
 21
7.178506
 31
0.000000
  0
TEXT
  8
DIMEN
 62
     7
 10
9.345801
 20
6.850790
 30
0.000000
 40
0.125000
  1
1 13/32"
  0
LINE
  8
DIMEN
 62
     7
  6
CONTINUOUS
 10
9.846496
 20
5.772505
 30
0.000000
 11
9.846496
 21
6.788291
 31
0.000000
  0
LINE
  8
DIMEN
 62
     7
  6
CONTINUOUS
 10
9.846496
 20
7.038464
 30
0.000000
 11
9.846496
 21
7.178506
 31
0.000000
  0
LINE
  8
DIMEN
 62
     7
  6
CONTINUOUS
 10
9.257760
 20
4.844506
 30
0.000000
 11
9.195260
 21
4.952759
 31
0.000000
  0
LINE
  8
DIMEN
 62
     7
  6
CONTINUOUS
 10
9.257760
 20
4.844506
 30
0.000000
 11
9.320260
 21
4.952759
 31
0.000000
  0
LINE
  8
DIMEN
 62
     7
  6
CONTINUOUS
 10
9.257760
 20
8.106505
 30
0.000000
 11
9.320260
 21
7.998252
 31
0.000000
  0
LINE
  8
DIMEN
 62
     7
  6
CONTINUOUS
 10
9.257760
 20
8.106505
 30
0.000000
 11
9.195260
 21
7.998252
 31
0.000000
  0
LINE
  8
DIMEN
 62
     7
  6
CONTINUOUS
 10
10.339756
 20
4.844506
 30
0.000000
 11
9.194760
 21
4.844506
 31
0.000000
  0
LINE
  8
DIMEN
 62
     7
  6
CONTINUOUS
 10
10.339756
 20
8.106505
 30
0.000000
 11
9.194760
 21
8.106505
 31
0.000000
  0
TEXT
  8
DIMEN
 62
     7
 10
8.504563
 20
5.352471
 30
0.000000
 40
0.125000
  1
3.262"
  0
TEXT
  8
DIMEN
 62
     7
 10
9.257390
 20
5.540207
 30
0.000000
 40
0.125000
  1
+.000"
  0
TEXT
  8
DIMEN
 62
     7
 10
9.257390
 20
5.164735
 30
0.000000
 40
0.125000
  1
-.001"
  0
LINE
  8
DIMEN
 62
     7
  6
CONTINUOUS
 10
9.257760
 20
4.844506
 30
0.000000
 11
9.257760
 21
5.102174
 31
0.000000
  0
LINE
  8
DIMEN
 62
     7
  6
CONTINUOUS
 10
9.257760
 20
5.728240
 30
0.000000
 11
9.257760
 21
8.106505
 31
0.000000
  0
LINE
  8
DIMEN
 62
     7
  6
CONTINUOUS
 10
11.621544
 20
6.100507
 30
0.000000
 11
11.559044
 21
6.208760
 31
0.000000
  0
LINE
  8
DIMEN
 62
     7
  6
CONTINUOUS
 10
11.621544
 20
6.100507
 30
0.000000
 11
11.684044
 21
6.208760
 31
0.000000
  0
LINE
  8
DIMEN
 62
     7
  6
CONTINUOUS
 10
11.621544
 20
6.850507
 30
0.000000
 11
11.684044
 21
6.742253
 31
0.000000
  0
LINE
  8
DIMEN
 62
     7
  6
CONTINUOUS
 10
11.621544
 20
6.850507
 30
0.000000
 11
11.559044
 21
6.742253
 31
0.000000
  0
LINE
  8
DIMEN
 62
     7
  6
CONTINUOUS
 10
11.340756
 20
6.100507
 30
0.000000
 11
11.684544
 21
6.100507
 31
0.000000
  0
LINE
  8
DIMEN
 62
     7
  6
CONTINUOUS
 10
11.340756
 20
6.850507
 30
0.000000
 11
11.684544
 21
6.850507
 31
0.000000
  0
TEXT
  8
DIMEN
 62
     7
 10
11.371253
 20
6.233714
 30
0.000000
 40
0.125000
  1
3/4"
  0
LINE
  8
DIMEN
 62
     7
  6
CONTINUOUS
 10
11.621544
 20
6.100507
 30
0.000000
 11
11.621544
 21
6.171215
 31
0.000000
  0
LINE
  8
DIMEN
 62
     7
  6
CONTINUOUS
 10
11.621544
 20
6.421360
 30
0.000000
 11
11.621544
 21
6.850507
 31
0.000000
  0
LINE
  8
DIMEN
 62
     7
  6
CONTINUOUS
 10
10.402756
 20
8.335056
 30
0.000000
 11
10.511009
 21
8.397556
 31
0.000000
  0
LINE
  8
DIMEN
 62
     7
  6
CONTINUOUS
 10
10.402756
 20
8.335056
 30
0.000000
 11
10.511009
 21
8.272556
 31
0.000000
  0
LINE
  8
DIMEN
 62
     7
  6
CONTINUOUS
 10
12.652756
 20
8.335056
 30
0.000000
 11
12.544503
 21
8.272556
 31
0.000000
  0
LINE
  8
DIMEN
 62
     7
  6
CONTINUOUS
 10
12.652756
 20
8.335056
 30
0.000000
 11
12.544503
 21
8.397556
 31
0.000000
  0
LINE
  8
DIMEN
 62
     7
  6
CONTINUOUS
 10
10.402756
 20
8.169505
 30
0.000000
 11
10.402756
 21
8.398056
 31
0.000000
  0
LINE
  8
DIMEN
 62
     7
  6
CONTINUOUS
 10
12.652756
 20
7.663507
 30
0.000000
 11
12.652756
 21
8.398056
 31
0.000000
  0
TEXT
  8
DIMEN
 62
     7
 10
11.152234
 20
8.272468
 30
0.000000
 40
0.125000
  1
2 1/4"
  0
LINE
  8
DIMEN
 62
     7
  6
CONTINUOUS
 10
10.402756
 20
8.335056
 30
0.000000
 11
11.089735
 21
8.335056
 31
0.000000
  0
LINE
  8
DIMEN
 62
     7
  6
CONTINUOUS
 10
11.965777
 20
8.335056
 30
0.000000
 11
12.652756
 21
8.335056
 31
0.000000
  0
LINE
  8
DIMEN
 62
     7
  6
CONTINUOUS
 10
10.402756
 20
4.655341
 30
0.000000
 11
10.511009
 21
4.717841
 31
0.000000
  0
LINE
  8
DIMEN
 62
     7
  6
CONTINUOUS
 10
10.402756
 20
4.655341
 30
0.000000
 11
10.511009
 21
4.592841
 31
0.000000
  0
LINE
  8
DIMEN
 62
     7
  6
CONTINUOUS
 10
11.402756
 20
4.655341
 30
0.000000
 11
11.294503
 21
4.592841
 31
0.000000
  0
LINE
  8
DIMEN
 62
     7
  6
CONTINUOUS
 10
11.402756
 20
4.655341
 30
0.000000
 11
11.294503
 21
4.717841
 31
0.000000
  0
LINE
  8
DIMEN
 62
     7
  6
CONTINUOUS
 10
10.402756
 20
4.781506
 30
0.000000
 11
10.402756
 21
4.592341
 31
0.000000
  0
LINE
  8
DIMEN
 62
     7
  6
CONTINUOUS
 10
11.402756
 20
4.781506
 30
0.000000
 11
11.402756
 21
4.592341
 31
0.000000
  0
TEXT
  8
DIMEN
 62
     7
 10
10.777611
 20
4.592768
 30
0.000000
 40
0.125000
  1
1"
  0
LINE
  8
DIMEN
 62
     7
  6
CONTINUOUS
 10
10.402756
 20
4.655341
 30
0.000000
 11
10.715111
 21
4.655341
 31
0.000000
  0
LINE
  8
DIMEN
 62
     7
  6
CONTINUOUS
 10
11.090401
 20
4.655341
 30
0.000000
 11
11.402756
 21
4.655341
 31
0.000000
  0
LINE
  8
DIMEN
 62
     7
  6
CONTINUOUS
 10
11.402756
 20
4.641455
 30
0.000000
 11
11.511009
 21
4.703955
 31
0.000000
  0
LINE
  8
DIMEN
 62
     7
  6
CONTINUOUS
 10
11.402756
 20
4.641455
 30
0.000000
 11
11.511009
 21
4.578955
 31
0.000000
  0
LINE
  8
DIMEN
 62
     7
  6
CONTINUOUS
 10
12.652756
 20
4.641455
 30
0.000000
 11
12.544503
 21
4.578955
 31
0.000000
  0
LINE
  8
DIMEN
 62
     7
  6
CONTINUOUS
 10
12.652756
 20
4.641455
 30
0.000000
 11
12.544503
 21
4.703955
 31
0.000000
  0
LINE
  8
DIMEN
 62
     7
  6
CONTINUOUS
 10
11.402756
 20
5.287507
 30
0.000000
 11
11.402756
 21
4.578455
 31
0.000000
  0
LINE
  8
DIMEN
 62
     7
  6
CONTINUOUS
 10
12.652756
 20
5.287505
 30
0.000000
 11
12.652756
 21
4.578455
 31
0.000000
  0
TEXT
  8
DIMEN
 62
     7
 10
11.652320
 20
4.578883
 30
0.000000
 40
0.125000
  1
1 1/4"
  0
LINE
  8
DIMEN
 62
     7
  6
CONTINUOUS
 10
11.402756
 20
4.641455
 30
0.000000
 11
11.589820
 21
4.641455
 31
0.000000
  0
LINE
  8
DIMEN
 62
     7
  6
CONTINUOUS
 10
12.465692
 20
4.641455
 30
0.000000
 11
12.652756
 21
4.641455
 31
0.000000
  0
LINE
  8
DIMEN
 62
     7
  6
CONTINUOUS
 10
13.164657
 20
5.350507
 30
0.000000
 11
13.102157
 21
5.458760
 31
0.000000
  0
LINE
  8
DIMEN
 62
     7
  6
CONTINUOUS
 10
13.164657
 20
5.350507
 30
0.000000
 11
13.227157
 21
5.458760
 31
0.000000
  0
LINE
  8
DIMEN
 62
     7
  6
CONTINUOUS
 10
13.164657
 20
7.600507
 30
0.000000
 11
13.227157
 21
7.492253
 31
0.000000
  0
LINE
  8
DIMEN
 62
     7
  6
CONTINUOUS
 10
13.164657
 20
7.600507
 30
0.000000
 11
13.102157
 21
7.492253
 31
0.000000
  0
LINE
  8
DIMEN
 62
     7
  6
CONTINUOUS
 10
12.715756
 20
5.350507
 30
0.000000
 11
13.227657
 21
5.350507
 31
0.000000
  0
LINE
  8
DIMEN
 62
     7
  6
CONTINUOUS
 10
12.715756
 20
7.600507
 30
0.000000
 11
13.227657
 21
7.600507
 31
0.000000
  0
TEXT
  8
DIMEN
 62
     7
 10
12.789136
 20
6.147954
 30
0.000000
 40
0.125000
  1
2 1/4"
  0
LINE
  8
DIMEN
 62
     7
  6
CONTINUOUS
 10
13.164657
 20
5.350507
 30
0.000000
 11
13.164657
 21
6.085454
 31
0.000000
  0
LINE
  8
DIMEN
 62
     7
  6
CONTINUOUS
 10
13.164657
 20
6.335627
 30
0.000000
 11
13.164657
 21
7.600507
 31
0.000000
  0
LINE
  8
DIMEN
 62
     7
  6
CONTINUOUS
 10
12.071160
 20
7.354846
 30
0.000000
 11
12.173687
 21
7.283340
 31
0.000000
  0
LINE
  8
DIMEN
 62
     7
  6
CONTINUOUS
 10
12.071160
 20
7.354846
 30
0.000000
 11
12.060498
 21
7.230301
 31
0.000000
  0
LINE
  8
DIMEN
 62
     7
  6
CONTINUOUS
 10
12.071160
 20
7.354846
 30
0.000000
 11
13.329890
 21
4.668599
 31
0.000000
  0
LINE
  8
DIMEN
 62
     7
  6
CONTINUOUS
 10
13.329890
 20
4.668599
 30
0.000000
 11
13.454890
 21
4.668599
 31
0.000000
  0
TEXT
  8
DIMEN
 62
     7
 10
13.579890
 20
4.606099
 30
0.000000
 40
0.125000
  1
BORE TO SUIT BUSHING
  0
POINT
  8
BUSHING
 62
     7
 10
14.126419
 20
6.471051
 30
0.000000
  0
POINT
  8
BUSHING
 62
     7
 10
14.126419
 20
6.471051
 30
0.000000
  0
LINE
  8
BUSHING
 62
     7
  6
CONTINUOUS
 10
14.126419
 20
6.471051
 30
0.000000
 11
14.126419
 21
5.658551
 31
0.000000
  0
POINT
  8
BUSHING
 62
     7
 10
15.251739
 20
7.174161
 30
0.000000
  0
POINT
  8
BUSHING
 62
     7
 10
15.251739
 20
7.174161
 30
0.000000
  0
POINT
  8
BUSHING
 62
     7
 10
15.251746
 20
7.174161
 30
0.000000
  0
POINT
  8
BUSHING
 62
     7
 10
15.251746
 20
7.174161
 30
0.000000
  0
POINT
  8
BUSHING
 62
     7
 10
14.125279
 20
7.175080
 30
0.000000
  0
POINT
  8
BUSHING
 62
     7
 10
14.250279
 20
7.175080
 30
0.000000
  0
POINT
  8
BUSHING
 62
     7
 10
14.375279
 20
7.175080
 30
0.000000
  0
POINT
  8
BUSHING
 62
     7
 10
14.375279
 20
7.175080
 30
0.000000
  0
LINE
  8
BUSHING
 62
     7
  6
CONTINUOUS
 10
14.250279
 20
7.175080
 30
0.000000
 11
14.250279
 21
7.229779
 31
0.000000
  0
LINE
  8
BUSHING
 62
     7
  6
CONTINUOUS
 10
14.250279
 20
7.175080
 30
0.000000
 11
14.250279
 21
7.120379
 31
0.000000
  0
LINE
  8
BUSHING
 62
     7
  6
CONTINUOUS
 10
14.375279
 20
7.175080
 30
0.000000
 11
14.375279
 21
7.261466
 31
0.000000
  0
LINE
  8
BUSHING
 62
     7
  6
CONTINUOUS
 10
14.375279
 20
7.175080
 30
0.000000
 11
14.375279
 21
7.088692
 31
0.000000
  0
POINT
  8
BUSHING
 62
     7
 10
14.625279
 20
7.175080
 30
0.000000
  0
POINT
  8
BUSHING
 62
     7
 10
14.500279
 20
7.175080
 30
0.000000
  0
POINT
  8
BUSHING
 62
     7
 10
14.500279
 20
7.175080
 30
0.000000
  0
LINE
  8
BUSHING
 62
     7
  6
CONTINUOUS
 10
14.500279
 20
7.175080
 30
0.000000
 11
14.500279
 21
7.229779
 31
0.000000
  0
LINE
  8
BUSHING
 62
     7
  6
CONTINUOUS
 10
14.500279
 20
7.175080
 30
0.000000
 11
14.500279
 21
7.120379
 31
0.000000
  0
POINT
  8
BUSHING
 62
     7
 10
14.750279
 20
7.175080
 30
0.000000
  0
LINE
  8
BUSHING
 62
     7
  6
CONTINUOUS
 10
14.750279
 20
7.175080
 30
0.000000
 11
14.750279
 21
7.229779
 31
0.000000
  0
LINE
  8
BUSHING
 62
     7
  6
CONTINUOUS
 10
14.750279
 20
7.175080
 30
0.000000
 11
14.750279
 21
7.120379
 31
0.000000
  0
POINT
  8
BUSHING
 62
     7
 10
15.000278
 20
7.175080
 30
0.000000
  0
LINE
  8
BUSHING
 62
     7
  6
CONTINUOUS
 10
15.000278
 20
7.175080
 30
0.000000
 11
15.000278
 21
7.229779
 31
0.000000
  0
LINE
  8
BUSHING
 62
     7
  6
CONTINUOUS
 10
15.000278
 20
7.175080
 30
0.000000
 11
15.000278
 21
7.120379
 31
0.000000
  0
POINT
  8
BUSHING
 62
     7
 10
15.250278
 20
7.175080
 30
0.000000
  0
LINE
  8
BUSHING
 62
     7
  6
CONTINUOUS
 10
15.250278
 20
7.175080
 30
0.000000
 11
15.250278
 21
7.229779
 31
0.000000
  0
LINE
  8
BUSHING
 62
     7
  6
CONTINUOUS
 10
15.250278
 20
7.175080
 30
0.000000
 11
15.250278
 21
7.120379
 31
0.000000
  0
POINT
  8
BUSHING
 62
     7
 10
14.625279
 20
7.175080
 30
0.000000
  0
POINT
  8
BUSHING
 62
     7
 10
14.625279
 20
7.175080
 30
0.000000
  0
LINE
  8
BUSHING
 62
     7
  6
CONTINUOUS
 10
14.625279
 20
7.175080
 30
0.000000
 11
14.625279
 21
7.261466
 31
0.000000
  0
LINE
  8
BUSHING
 62
     7
  6
CONTINUOUS
 10
14.625279
 20
7.175080
 30
0.000000
 11
14.625279
 21
7.088692
 31
0.000000
  0
POINT
  8
BUSHING
 62
     7
 10
14.875279
 20
7.175080
 30
0.000000
  0
POINT
  8
BUSHING
 62
     7
 10
14.875279
 20
7.175080
 30
0.000000
  0
LINE
  8
BUSHING
 62
     7
  6
CONTINUOUS
 10
14.875279
 20
7.175080
 30
0.000000
 11
14.875279
 21
7.261466
 31
0.000000
  0
LINE
  8
BUSHING
 62
     7
  6
CONTINUOUS
 10
14.875279
 20
7.175080
 30
0.000000
 11
14.875279
 21
7.088692
 31
0.000000
  0
POINT
  8
BUSHING
 62
     7
 10
15.125278
 20
7.175080
 30
0.000000
  0
POINT
  8
BUSHING
 62
     7
 10
15.125278
 20
7.175080
 30
0.000000
  0
LINE
  8
BUSHING
 62
     7
  6
CONTINUOUS
 10
15.125278
 20
7.175080
 30
0.000000
 11
15.125278
 21
7.261466
 31
0.000000
  0
LINE
  8
BUSHING
 62
     7
  6
CONTINUOUS
 10
15.125278
 20
7.175080
 30
0.000000
 11
15.125278
 21
7.088692
 31
0.000000
  0
POINT
  8
BUSHING
 62
     7
 10
14.126419
 20
6.471051
 30
0.000000
  0
LINE
  8
BUSHING
 62
     7
  6
CONTINUOUS
 10
14.126419
 20
7.283551
 30
0.000000
 11
14.126419
 21
6.471051
 31
0.000000
  0
LINE
  8
BUSHING
 62
     7
  6
CONTINUOUS
 10
15.376418
 20
6.471051
 30
0.000000
 11
15.376418
 21
7.408551
 31
0.000000
  0
LINE
  8
BUSHING
 62
     7
  6
CONTINUOUS
 10
15.376418
 20
6.471051
 30
0.000000
 11
15.376418
 21
5.533551
 31
0.000000
  0
LINE
  8
BUSHING
 62
     7
  6
CONTINUOUS
 10
14.126419
 20
7.033543
 30
0.000000
 11
15.376418
 21
7.033543
 31
0.000000
  0
LINE
  8
BUSHING
 62
     7
  6
CONTINUOUS
 10
14.126419
 20
7.088210
 30
0.000000
 11
15.376418
 21
7.088210
 31
0.000000
  0
LINE
  8
BUSHING
 62
     7
  6
CONTINUOUS
 10
14.128926
 20
5.908560
 30
0.000000
 11
15.376418
 21
5.908560
 31
0.000000
  0
LINE
  8
BUSHING
 62
     7
  6
CONTINUOUS
 10
14.126419
 20
5.658551
 30
0.000000
 11
15.376418
 21
5.533551
 31
0.000000
  0
LINE
  8
BUSHING
 62
     7
  6
CONTINUOUS
 10
14.126419
 20
7.283551
 30
0.000000
 11
15.376418
 21
7.408551
 31
0.000000
  0
LINE
  8
BUSHING
 62
     7
  6
CONTINUOUS
 10
14.126419
 20
7.260110
 30
0.000000
 11
15.376418
 21
7.260110
 31
0.000000
  0
LINE
  8
BUSHING
 62
     7
  6
CONTINUOUS
 10
14.125279
 20
7.175080
 30
0.000000
 11
15.376418
 21
7.175080
 31
0.000000
  0
LINE
  8
BUSHING
 62
     7
  6
CONTINUOUS
 10
14.126419
 20
7.815826
 30
0.000000
 11
14.234673
 21
7.878326
 31
0.000000
  0
LINE
  8
BUSHING
 62
     7
  6
CONTINUOUS
 10
14.126419
 20
7.815826
 30
0.000000
 11
14.234673
 21
7.753326
 31
0.000000
  0
LINE
  8
BUSHING
 62
     7
  6
CONTINUOUS
 10
15.376418
 20
7.815826
 30
0.000000
 11
15.268165
 21
7.753326
 31
0.000000
  0
LINE
  8
BUSHING
 62
     7
  6
CONTINUOUS
 10
15.376418
 20
7.815826
 30
0.000000
 11
15.268165
 21
7.878326
 31
0.000000
  0
LINE
  8
BUSHING
 62
     7
  6
CONTINUOUS
 10
14.126419
 20
7.346051
 30
0.000000
 11
14.126419
 21
8.065826
 31
0.000000
  0
LINE
  8
BUSHING
 62
     7
  6
CONTINUOUS
 10
15.376418
 20
7.471051
 30
0.000000
 11
15.376418
 21
8.065826
 31
0.000000
  0
TEXT
  8
BUSHING
 62
     7
 10
14.375983
 20
7.753253
 30
0.000000
 40
0.125000
  1
1 1/4"
  0
LINE
  8
BUSHING
 62
     7
  6
CONTINUOUS
 10
14.126419
 20
7.815826
 30
0.000000
 11
14.344733
 21
7.815826
 31
0.000000
  0
LINE
  8
BUSHING
 62
     7
  6
CONTINUOUS
 10
15.158105
 20
7.815826
 30
0.000000
 11
15.376418
 21
7.815826
 31
0.000000
  0
LINE
  8
BUSHING
 62
     7
  6
CONTINUOUS
 10
13.655321
 20
5.658551
 30
0.000000
 11
13.592821
 21
5.766804
 31
0.000000
  0
LINE
  8
BUSHING
 62
     7
  6
CONTINUOUS
 10
13.655321
 20
5.658551
 30
0.000000
 11
13.717821
 21
5.766804
 31
0.000000
  0
LINE
  8
BUSHING
 62
     7
  6
CONTINUOUS
 10
13.655321
 20
7.283551
 30
0.000000
 11
13.717821
 21
7.175298
 31
0.000000
  0
LINE
  8
BUSHING
 62
     7
  6
CONTINUOUS
 10
13.655321
 20
7.283551
 30
0.000000
 11
13.592821
 21
7.175298
 31
0.000000
  0
LINE
  8
BUSHING
 62
     7
  6
CONTINUOUS
 10
14.063919
 20
5.658551
 30
0.000000
 11
13.405321
 21
5.658551
 31
0.000000
  0
LINE
  8
BUSHING
 62
     7
  6
CONTINUOUS
 10
14.063919
 20
7.283551
 30
0.000000
 11
13.405321
 21
7.283551
 31
0.000000
  0
TEXT
  8
BUSHING
 62
     7
 10
13.277172
 20
6.632153
 30
0.000000
 40
0.125000
  1
1 5/8"
  0
LINE
  8
BUSHING
 62
     7
  6
CONTINUOUS
 10
13.655321
 20
5.658551
 30
0.000000
 11
13.655321
 21
6.600904
 31
0.000000
  0
LINE
  8
BUSHING
 62
     7
  6
CONTINUOUS
 10
13.655321
 20
6.789453
 30
0.000000
 11
13.655321
 21
7.283551
 31
0.000000
  0
LINE
  8
BUSHING
 62
     7
  6
CONTINUOUS
 10
15.823974
 20
5.908560
 30
0.000000
 11
15.761474
 21
6.016814
 31
0.000000
  0
LINE
  8
BUSHING
 62
     7
  6
CONTINUOUS
 10
15.823974
 20
5.908560
 30
0.000000
 11
15.886474
 21
6.016814
 31
0.000000
  0
LINE
  8
BUSHING
 62
     7
  6
CONTINUOUS
 10
15.823974
 20
7.033543
 30
0.000000
 11
15.886474
 21
6.925290
 31
0.000000
  0
LINE
  8
BUSHING
 62
     7
  6
CONTINUOUS
 10
15.823974
 20
7.033543
 30
0.000000
 11
15.761474
 21
6.925290
 31
0.000000
  0
LINE
  8
BUSHING
 62
     7
  6
CONTINUOUS
 10
15.438918
 20
5.908560
 30
0.000000
 11
16.073974
 21
5.908560
 31
0.000000
  0
LINE
  8
BUSHING
 62
     7
  6
CONTINUOUS
 10
15.438918
 20
7.033543
 30
0.000000
 11
16.073974
 21
7.033543
 31
0.000000
  0
TEXT
  8
BUSHING
 62
     7
 10
15.446525
 20
6.258723
 30
0.000000
 40
0.125000
  1
1 1/8"
  0
LINE
  8
BUSHING
 62
     7
  6
CONTINUOUS
 10
15.823974
 20
5.908560
 30
0.000000
 11
15.823974
 21
6.227473
 31
0.000000
  0
LINE
  8
BUSHING
 62
     7
  6
CONTINUOUS
 10
15.823974
 20
6.415789
 30
0.000000
 11
15.823974
 21
7.033543
 31
0.000000
  0
LINE
  8
BUSHING
 62
     7
  6
CONTINUOUS
 10
16.419032
 20
5.533551
 30
0.000000
 11
16.356532
 21
5.641804
 31
0.000000
  0
LINE
  8
BUSHING
 62
     7
  6
CONTINUOUS
 10
16.419032
 20
5.533551
 30
0.000000
 11
16.481532
 21
5.641804
 31
0.000000
  0
LINE
  8
BUSHING
 62
     7
  6
CONTINUOUS
 10
16.419032
 20
7.408551
 30
0.000000
 11
16.481532
 21
7.300298
 31
0.000000
  0
LINE
  8
BUSHING
 62
     7
  6
CONTINUOUS
 10
16.419032
 20
7.408551
 30
0.000000
 11
16.356532
 21
7.300298
 31
0.000000
  0
LINE
  8
BUSHING
 62
     7
  6
CONTINUOUS
 10
15.438918
 20
5.533551
 30
0.000000
 11
16.669032
 21
5.533551
 31
0.000000
  0
LINE
  8
BUSHING
 62
     7
  6
CONTINUOUS
 10
15.438918
 20
7.408551
 30
0.000000
 11
16.669032
 21
7.408551
 31
0.000000
  0
TEXT
  8
BUSHING
 62
     7
 10
16.041584
 20
6.594916
 30
0.000000
 40
0.125000
  1
1 7/8"
  0
LINE
  8
BUSHING
 62
     7
  6
CONTINUOUS
 10
16.419032
 20
5.533551
 30
0.000000
 11
16.419032
 21
6.563666
 31
0.000000
  0
LINE
  8
BUSHING
 62
     7
  6
CONTINUOUS
 10
16.419032
 20
6.751982
 30
0.000000
 11
16.419032
 21
7.408551
 31
0.000000
  0
LINE
  8
BUSHING
 62
     7
  6
CONTINUOUS
 10
14.356167
 20
5.630564
 30
0.000000
 11
14.469729
 21
5.578327
 31
0.000000
  0
LINE
  8
BUSHING
 62
     7
  6
CONTINUOUS
 10
14.356167
 20
5.630564
 30
0.000000
 11
14.367709
 21
5.506098
 31
0.000000
  0
LINE
  8
BUSHING
 62
     7
  6
CONTINUOUS
 10
14.356167
 20
5.630564
 30
0.000000
 11
14.858658
 21
4.920823
 31
0.000000
  0
LINE
  8
BUSHING
 62
     7
  6
CONTINUOUS
 10
14.858658
 20
4.920823
 30
0.000000
 11
14.983658
 21
4.920823
 31
0.000000
  0
TEXT
  8
BUSHING
 62
     7
 10
15.046157
 20
4.858323
 30
0.000000
 40
0.125000
  1
2.500TPF
  0
LINE
  8
DIMEN
 62
     7
  6
CONTINUOUS
 10
2.135658
 20
10.599375
 30
0.000000
 11
2.072658
 21
10.599375
 31
0.000000
  0
LINE
  8
DIMEN
 62
     7
  6
CONTINUOUS
 10
2.245623
 20
10.033857
 30
0.000000
 11
2.327636
 21
9.939524
 31
0.000000
  0
LINE
  8
DIMEN
 62
     7
  6
CONTINUOUS
 10
2.245623
 20
10.033857
 30
0.000000
 11
2.204935
 21
9.915665
 31
0.000000
  0
LINE
  8
DIMEN
 62
     7
  6
CONTINUOUS
 10
3.629460
 20
2.917152
 30
0.000000
 11
3.547446
 21
3.011485
 31
0.000000
  0
LINE
  8
DIMEN
 62
     7
  6
CONTINUOUS
 10
3.629460
 20
2.917152
 30
0.000000
 11
3.670148
 21
3.035345
 31
0.000000
  0
TEXT
  8
DIMEN
 62
     7
 10
1.256195
 20
10.536545
 30
0.000000
 40
0.125000
  1
7.250"
  0
LINE
  8
DIMEN
 62
     7
  6
CONTINUOUS
 10
3.629460
 20
2.917152
 30
0.000000
 11
2.135658
 21
10.599375
 31
0.000000
  0
ARC
  8
PLATE
 62
     7
  6
CONTINUOUS
 10
2.937542
 20
6.475517
 30
0.000000
 40
4.250011
 50
243.222925
 51
294.878975
  0
TEXT
  8
DIMEN
 62
     7
 10
1.197658
 20
10.349375
 30
0.000000
 40
0.125000
  1
BOLT
  0
TEXT
  8
DIMEN
 62
     7
 10
1.197658
 20
10.161875
 30
0.000000
 40
0.125000
  1
CIRCLE
  0
ARC
  8
PLATE
 62
     7
  6
CONTINUOUS
 10
2.937546
 20
6.475509
 30
0.000000
 40
4.249994
 50
62.710217
 51
99.969523
  0
ARC
  8
PLATE
 62
     7
  6
CONTINUOUS
 10
2.938491
 20
6.473602
 30
0.000000
 40
4.252126
 50
114.645686
 51
117.362480
  0
LINE
  8
DIMEN
 62
     7
  6
CONTINUOUS
 10
8.982107
 20
3.075890
 30
0.000000
 11
8.983353
 21
3.200884
 31
0.000000
  0
LINE
  8
DIMEN
 62
     7
  6
CONTINUOUS
 10
8.982107
 20
3.075890
 30
0.000000
 11
9.090978
 21
3.137309
 31
0.000000
  0
LINE
  8
DIMEN
 62
     7
  6
CONTINUOUS
 10
8.982107
 20
3.075890
 30
0.000000
 11
9.558621
 21
4.051857
 31
0.000000
  0
LINE
  8
DIMEN
 62
     7
  6
CONTINUOUS
 10
9.558621
 20
4.051857
 30
0.000000
 11
9.683621
 21
4.051857
 31
0.000000
  0
TEXT
  8
DIMEN
 62
     7
 10
9.808621
 20
3.989357
 30
0.000000
 40
0.125000
  1
RING DIAMETERS
  0
TEXT
  8
DIMEN
 62
     7
 10
9.808621
 20
3.801856
 30
0.000000
 40
0.125000
  1
AND BOLT CIRCLES
  0
TEXT
  8
DIMEN
 62
     7
 10
9.808621
 20
3.614357
 30
0.000000
 40
0.125000
  1
AS PER STD 9" RING
  0
TEXT
  8
DIMEN
 62
     7
 10
9.808621
 20
3.426857
 30
0.000000
 40
0.125000
  1
PRINT
  0
LINE
  8
DIMEN
 62
     7
  6
CONTINUOUS
 10
8.812813
 20
10.104519
 30
0.000000
 11
8.937619
 21
10.111490
 31
0.000000
  0
LINE
  8
DIMEN
 62
     7
  6
CONTINUOUS
 10
8.812813
 20
10.104519
 30
0.000000
 11
8.881253
 21
9.999920
 31
0.000000
  0
LINE
  8
DIMEN
 62
     7
  6
CONTINUOUS
 10
8.812813
 20
10.104519
 30
0.000000
 11
9.378285
 21
9.818844
 31
0.000000
  0
LINE
  8
DIMEN
 62
     7
  6
CONTINUOUS
 10
9.378285
 20
9.818844
 30
0.000000
 11
9.503285
 21
9.818844
 31
0.000000
  0
TEXT
  8
DIMEN
 62
     7
 10
9.628284
 20
9.756344
 30
0.000000
 40
0.125000
  1
DRILL AND TAP
  0
TEXT
  8
DIMEN
 62
     7
 10
9.628284
 20
9.568843
 30
0.000000
 40
0.125000
  1
AS PER STD 9"
  0
TEXT
  8
DIMEN
 62
     7
 10
9.628284
 20
9.381344
 30
0.000000
 40
0.125000
  1
RING PRINT
  0
TEXT
  8
DIMEN
 62
     7
 10
13.168692
 20
12.209580
 30
0.000000
 40
0.125000
  1
ELECTRO AUTOMOTIVE
  0
TEXT
  8
DIMEN
 62
     7
 10
13.168692
 20
12.022076
 30
0.000000
 40
0.125000
  1
P.O. BOX 1113 FELTON CA. 95018-1113
  0
TEXT
  8
DIMEN
 62
     7
 10
13.168692
 20
11.647076
 30
0.000000
 40
0.125000
  1
DRAWN BY MICHAEL P. BROWN
  0
LINE
  8
DIMEN
 62
     7
  6
CONTINUOUS
 10
13.035944
 20
12.447076
 30
0.000000
 11
16.602397
 21
12.447076
 31
0.000000
  0
LINE
  8
DIMEN
 62
     7
  6
CONTINUOUS
 10
16.602397
 20
12.447076
 30
0.000000
 11
16.602397
 21
11.547089
 31
0.000000
  0
LINE
  8
DIMEN
 62
     7
  6
CONTINUOUS
 10
16.602397
 20
11.547089
 30
0.000000
 11
13.035944
 21
11.547089
 31
0.000000
  0
LINE
  8
DIMEN
 62
     7
  6
CONTINUOUS
 10
13.035944
 20
11.547089
 30
0.000000
 11
13.035944
 21
12.447076
 31
0.000000
  0
TEXT
  8
DIMEN
 62
     7
 10
13.168692
 20
11.834576
 30
0.000000
 40
0.125000
  1
PHONE 831-429-1989 FAX 831-429-1907
  0
TEXT
  8
DIMEN
 62
     7
 10
12.175170
 20
11.310696
 30
0.000000
 40
0.125000
  1
MAZADA 323 1986-1989 TO ADC
  0
TEXT
  8
DIMEN
 62
     7
 10
12.175170
 20
11.123196
 30
0.000000
 40
0.125000
  1
9" MOTOR ADAPTOR WITH NON STANDARD
  0
TEXT
  8
DIMEN
 62
     7
 10
12.175170
 20
10.748192
 30
0.000000
 40
0.125000
  1
NOTE A--DRILL 11/64" THROUGH
  0
TEXT
  8
DIMEN
 62
     7
 10
12.175170
 20
10.560694
 30
0.000000
 40
0.125000
  1
TAP 10-24 x 1" DEEP
  0
TEXT
  8
DIMEN
 62
     7
 10
12.175170
 20
10.373194
 30
0.000000
 40
0.125000
  1
NOTE B--DRILL 13/64" COUNTERBORE
  0
TEXT
  8
DIMEN
 62
     7
 10
12.175170
 20
10.185695
 30
0.000000
 40
0.125000
  1
23/64" x 5/16".  THEN COUNTERBORE
  0
TEXT
  8
DIMEN
 62
     7
 10
12.175170
 20
9.998194
 30
0.000000
 40
0.125000
  1
1 13/32" DIA x 1/8" DEEP FOR PILOT
  0
TEXT
  8
DIMEN
 62
     7
 10
12.175170
 20
9.810694
 30
0.000000
 40
0.125000
  1
BEARING RECESS
  0
TEXT
  8
DIMEN
 62
     7
 10
12.175170
 20
9.623194
 30
0.000000
 40
0.125000
  1
NOTE C--DRILL WITH Y BIT 13/16" DEEP
  0
TEXT
  8
DIMEN
 62
     7
 10
12.175170
 20
9.248195
 30
0.000000
 40
0.125000
  1
NOTE D--DRILL 17/32" THROUGH
  0
TEXT
  8
DIMEN
 62
     7
 10
12.175170
 20
9.060694
 30
0.000000
 40
0.125000
  1
NOTE E--SUPPLY FOUR 3/8"-16 x 2"
  0
TEXT
  8
DIMEN
 62
     7
 10
12.175170
 20
8.873194
 30
0.000000
 40
0.125000
  1
ALLEN HEAD CAP SCREWS FOR RING TO
  0
TEXT
  8
DIMEN
 62
     7
 10
12.175170
 20
8.685694
 30
0.000000
 40
0.125000
  1
MOTOR ASSEMBLY
  0
TEXT
  8
DIMEN
 62
     7
 10
12.175170
 20
10.935697
 30
0.000000
 40
0.125000
  1
9" RING.  DRAWN TO SCALE 11/28/00
  0
TEXT
  8
DIMEN
 62
     7
 10
12.175170
 20
9.435694
 30
0.000000
 40
0.125000
  1
TAP 12mm-1.0 x 11/16" DEEP
  0
LINE
  8
DIMEN
 62
     7
  6
CONTINUOUS
 10
14.126419
 20
7.197368
 30
0.000000
 11
14.036885
 21
7.284595
 31
0.000000
  0
LINE
  8
DIMEN
 62
     7
  6
CONTINUOUS
 10
14.126419
 20
7.197368
 30
0.000000
 11
14.157193
 21
7.318521
 31
0.000000
  0
LINE
  8
DIMEN
 62
     7
  6
CONTINUOUS
 10
14.126419
 20
7.197368
 30
0.000000
 11
13.820038
 21
8.283866
 31
0.000000
  0
LINE
  8
DIMEN
 62
     7
  6
CONTINUOUS
 10
13.820038
 20
8.283866
 30
0.000000
 11
13.945038
 21
8.283866
 31
0.000000
  0
TEXT
  8
DIMEN
 62
     7
 10
14.070038
 20
8.221366
 30
0.000000
 40
0.125000
  1
SEE NOTE A
  0
ENDSEC
  0
EOF
