  0
SECTION
  2
HEADER
  9
$ACADVER
  1
AC1006
  0
ENDSEC
  0
SECTION
  2
TABLES
  0
TABLE
  2
LTYPE
 70
    25
  0
LTYPE
  2
CONTINUOUS
 70
    64
  3
Solid line
 72
    64
 73
     0
 40
0.000000
  0
LTYPE
  2
DASHDOT
 70
    64
  3
__ . __ . __ . __ . __ . __ . __ . __ . __ . __
 72
    65
 73
     4
 40
1.000000
 49
0.500000
 49
-0.250000
 49
0.000000
 49
-0.250000
  0
LTYPE
  2
DASHED
 70
    64
  3
__ __ __ __ __ __ __ __ __ __ __ __ __ __ __ __
 72
    65
 73
     2
 40
0.750000
 49
0.500000
 49
-0.250000
  0
LTYPE
  2
DIVIDE
 70
    64
  3
____ . . ____ . . ____ . . ____ . . ____ . . __
 72
    65
 73
     6
 40
1.250000
 49
0.500000
 49
-0.250000
 49
0.000000
 49
-0.250000
 49
0.000000
 49
-0.250000
  0
LTYPE
  2
DOT
 70
    64
  3
. . . . . . . . . . . . . . . . . . . . . . . . 
 72
    65
 73
     2
 40
0.250000
 49
0.000000
 49
-0.250000
  0
ENDTAB
  0
ENDSEC
  0
SECTION
  2
BLOCKS
  0
BLOCK
  8
0
  2
Object_0
 70
    64
 10
0.000000
 20
0.000000
 30
0.000000
  0
ENDBLK
  0
ENDSEC
  0
SECTION
  2
ENTITIES
  0
LINE
  8
Default
 62
     6
  6
CONTINUOUS
 10
-6.339000
 20
0.000000
 30
0.000000
 11
0.000000
 21
0.078000
 31
0.000000
  0
CIRCLE
  8
Default
 62
     9
  6
CONTINUOUS
 10
0.000000
 20
0.000000
 30
-0.125000
 40
4.251000
  0
CIRCLE
  8
Default
 62
     9
  6
CONTINUOUS
 10
0.000000
 20
0.000000
 30
-0.625000
 40
3.000000
  0
CIRCLE
  8
Default
 62
     9
  6
CONTINUOUS
 10
0.000000
 20
3.625000
 30
0.000000
 40
0.265625
  0
CIRCLE
  8
Default
 62
     9
  6
CONTINUOUS
 10
3.625000
 20
0.000000
 30
0.000000
 40
0.265625
  0
CIRCLE
  8
Default
 62
     9
  6
CONTINUOUS
 10
-3.625000
 20
0.000000
 30
0.000000
 40
0.265625
  0
CIRCLE
  8
Default
 62
     9
  6
CONTINUOUS
 10
-0.000000
 20
-3.625000
 30
0.000000
 40
0.265625
  0
ARC
  8
Default
 62
     6
  6
CONTINUOUS
 10
0.000000
 20
0.000000
 30
0.000000
 40
6.323000
 50
1.411737
 51
22.500000
  0
ARC
  8
Default
 62
     6
  6
CONTINUOUS
 10
0.000000
 20
0.000000
 30
0.000000
 40
6.323000
 50
337.500000
 51
361.411737
  0
POINT
  8
Default
 62
     7
 10
6.321081
 20
0.155780
 30
0.000000
  0
LINE
  8
Default
 62
     6
  6
CONTINUOUS
 10
0.000000
 20
0.000000
 30
0.000000
 11
0.000000
 21
0.078000
 31
0.000000
  0
LINE
  8
Default
 62
     6
  6
CONTINUOUS
 10
0.000000
 20
0.000000
 30
0.000000
 11
-6.339000
 21
0.000000
 31
0.000000
  0
LINE
  8
Default
 62
     6
  6
CONTINUOUS
 10
0.000000
 20
0.078000
 30
0.000000
 11
6.321081
 21
0.155780
 31
0.000000
  0
LINE
  8
Default
 62
     6
  6
CONTINUOUS
 10
0.000000
 20
0.000000
 30
0.000000
 11
6.321081
 21
0.155780
 31
0.000000
  0
ARC
  8
Default
 62
     6
  6
CONTINUOUS
 10
0.000000
 20
0.000000
 30
0.000000
 40
6.339000
 50
157.500000
 51
180.000000
  0
ARC
  8
Default
 62
     6
  6
CONTINUOUS
 10
0.000000
 20
0.000000
 30
0.000000
 40
6.339000
 50
180.000000
 51
202.500000
  0
POINT
  8
Default
 62
     7
 10
-6.339000
 20
0.000000
 30
0.000000
  0
CIRCLE
  8
Default
 62
     6
  6
CONTINUOUS
 10
-6.339000
 20
0.000000
 30
0.000000
 40
0.375000
  0
CIRCLE
  8
Default
 62
     6
  6
CONTINUOUS
 10
6.321081
 20
0.155780
 30
0.000000
 40
0.375000
  0
ARC
  8
Default
 62
     6
  6
CONTINUOUS
 10
0.000000
 20
0.000000
 30
-0.000000
 40
6.650000
 50
17.098334
 51
43.772804
  0
POINT
  8
Default
 62
     7
 10
5.303507
 20
-3.391141
 30
0.000000
  0
POINT
  8
Default
 62
     7
 10
2.440505
 20
-5.549580
 30
0.000000
  0
POINT
  8
Default
 62
     7
 10
-2.529858
 20
-5.632978
 30
0.000000
  0
POINT
  8
Default
 62
     7
 10
-4.690818
 20
-4.160423
 30
0.000000
  0
CIRCLE
  8
Default
 62
     6
  6
CONTINUOUS
 10
5.303507
 20
-3.391141
 30
0.000000
 40
0.250000
  0
CIRCLE
  8
Default
 62
     6
  6
CONTINUOUS
 10
2.440505
 20
-5.549580
 30
0.000000
 40
0.250000
  0
CIRCLE
  8
Default
 62
     6
  6
CONTINUOUS
 10
-2.529858
 20
-5.632978
 30
0.000000
 40
0.250000
  0
CIRCLE
  8
Default
 62
     6
  6
CONTINUOUS
 10
-4.690818
 20
-4.160423
 30
0.000000
 40
0.250000
  0
LINE
  8
Default
 62
     6
  6
CONTINUOUS
 10
6.356080
 20
1.955183
 30
-0.000000
 11
6.853426
 21
0.338367
 31
-0.000000
  0
ARC
  8
Default
 62
     6
  6
CONTINUOUS
 10
6.256050
 20
0.154610
 30
-0.000000
 40
0.625000
 50
344.962884
 51
377.098334
  0
LINE
  8
Default
 62
     6
  6
CONTINUOUS
 10
6.859649
 20
-0.007543
 30
-0.000000
 11
5.907106
 21
-3.553294
 31
0.000000
  0
ARC
  8
Default
 62
     6
  6
CONTINUOUS
 10
5.303507
 20
-3.391141
 30
0.000000
 40
0.625000
 50
307.012922
 51
344.962884
  0
LINE
  8
Default
 62
     6
  6
CONTINUOUS
 10
5.679754
 20
-3.890203
 30
0.000000
 11
2.816752
 21
-6.048643
 31
0.000000
  0
ARC
  8
Default
 62
     6
  6
CONTINUOUS
 10
2.440505
 20
-5.549580
 30
0.000000
 40
0.625000
 50
270.961275
 51
307.012922
  0
POINT
  8
Default
 62
     7
 10
-6.170121
 20
-4.184093
 30
0.000000
  0
POINT
  8
Default
 62
     7
 10
-7.565920
 20
4.264513
 30
0.000000
  0
LINE
  8
Default
 62
     6
  6
CONTINUOUS
 10
2.450990
 20
-6.174492
 30
0.000000
 11
-2.519373
 21
-6.257890
 31
0.000000
  0
POINT
  8
Default
 62
     7
 10
-6.879438
 20
-1.372425
 30
0.000000
  0
ARC
  8
Default
 62
     6
  6
CONTINUOUS
 10
-2.529858
 20
-5.632978
 30
0.000000
 40
0.625000
 50
239.117593
 51
270.961275
  0
POINT
  8
Default
 62
     7
 10
0.000000
 20
0.000000
 30
0.000000
  0
POINT
  8
Default
 62
     7
 10
-6.866541
 20
-2.903041
 30
0.000000
  0
LINE
  8
Default
 62
     6
  6
CONTINUOUS
 10
-2.850657
 20
-6.169367
 30
0.000000
 11
-5.948168
 21
-4.316837
 31
0.000000
  0
ARC
  8
Default
 62
     6
  6
CONTINUOUS
 10
-5.627369
 20
-3.780448
 30
0.000000
 40
0.625000
 50
194.158940
 51
239.117593
  0
LINE
  8
Default
 62
     6
  6
CONTINUOUS
 10
-6.233382
 20
-3.933331
 30
0.000000
 11
-6.337796
 21
-3.519445
 31
0.000000
  0
POINT
  8
Default
 62
     7
 10
-3.822795
 20
5.441391
 30
0.000000
  0
ARC
  8
Default
 62
     6
  6
CONTINUOUS
 10
-6.216593
 20
-3.488868
 30
0.000000
 40
0.125000
 50
137.970215
 51
194.158940
  0
POINT
  8
Default
 62
     7
 10
-3.822795
 20
-5.441391
 30
0.000000
  0
POINT
  8
Default
 62
     7
 10
-6.982095
 20
5.003844
 30
0.000000
  0
ARC
  8
Default
 62
     6
  6
CONTINUOUS
 10
-6.866541
 20
-2.903041
 30
0.000000
 40
0.750000
 50
317.970215
 51
430.347665
  0
POINT
  8
Default
 62
     7
 10
-3.194883
 20
7.394305
 30
0.000000
  0
POINT
  8
Default
 62
     7
 10
3.003013
 20
7.506606
 30
0.000000
  0
CIRCLE
  8
Default
 62
     6
  6
CONTINUOUS
 10
-3.194883
 20
7.394305
 30
0.000000
 40
0.250000
  0
CIRCLE
  8
Default
 62
     6
  6
CONTINUOUS
 10
3.003013
 20
7.506606
 30
0.000000
 40
0.250000
  0
ARC
  8
Default
 62
     6
  6
CONTINUOUS
 10
-6.572268
 20
-2.079009
 30
0.000000
 40
0.125000
 50
194.158940
 51
250.347665
  0
LINE
  8
Default
 62
     6
  6
CONTINUOUS
 10
-6.693470
 20
-2.109585
 30
0.000000
 11
-6.879438
 21
-1.372425
 31
0.000000
  0
LINE
  8
Default
 62
     6
  6
CONTINUOUS
 10
-6.879438
 20
-1.372425
 30
0.000000
 11
-7.540735
 21
4.057704
 31
0.000000
  0
ARC
  8
Default
 62
     6
  6
CONTINUOUS
 10
-7.044402
 20
4.118149
 30
0.000000
 40
0.500000
 50
141.702981
 51
186.943447
  0
LINE
  8
Default
 62
     6
  6
CONTINUOUS
 10
-7.436806
 20
4.428018
 30
0.000000
 11
-7.106718
 21
4.846027
 31
0.000000
  0
ARC
  8
Default
 62
     6
  6
CONTINUOUS
 10
-6.714313
 20
4.536158
 30
0.000000
 40
0.500000
 50
97.885021
 51
141.702981
  0
LINE
  8
Default
 62
     6
  6
CONTINUOUS
 10
-6.782906
 20
5.031431
 30
0.000000
 11
-4.605153
 21
5.333038
 31
0.000000
  0
ARC
  8
Default
 62
     6
  6
CONTINUOUS
 10
-4.742339
 20
6.323584
 30
0.000000
 40
1.000000
 50
277.885021
 51
354.490188
  0
LINE
  8
Default
 62
     6
  6
CONTINUOUS
 10
-3.746959
 20
6.227568
 30
0.000000
 11
-3.630361
 21
7.436312
 31
0.000000
  0
ARC
  8
Default
 62
     6
  6
CONTINUOUS
 10
-3.194883
 20
7.394305
 30
0.000000
 40
0.437500
 50
91.038040
 51
174.490188
  0
LINE
  8
Default
 62
     6
  6
CONTINUOUS
 10
-3.202808
 20
7.831733
 30
0.000000
 11
2.995087
 21
7.944034
 31
0.000000
  0
ARC
  8
Default
 62
     6
  6
CONTINUOUS
 10
3.003013
 20
7.506606
 30
-0.000000
 40
0.437500
 50
5.835759
 51
91.038040
  0
ARC
  8
Default
 62
     6
  6
CONTINUOUS
 10
8.412333
 20
8.059476
 30
-0.000000
 40
5.000000
 50
185.835759
 51
223.772804
  0
LINE
  8
Default
 62
     7
  6
CONTINUOUS
 10
-6.339100
 20
0.008127
 30
0.000000
 11
-6.352992
 21
1.137106
 31
0.000000
  0
LINE
  8
Default
 62
     7
  6
CONTINUOUS
 10
-0.000100
 20
0.086127
 30
0.000000
 11
-0.013992
 21
1.215106
 31
0.000000
  0
LINE
  8
Default
 62
     7
  6
CONTINUOUS
 10
-6.352842
 20
1.124915
 30
0.000000
 11
-0.013842
 21
1.202915
 31
0.000000
  0
LINE
  8
Default
 62
     7
  6
CONTINUOUS
 10
-6.352842
 20
1.124915
 30
0.000000
 11
-6.272995
 21
1.137898
 31
0.000000
  0
LINE
  8
Default
 62
     7
  6
CONTINUOUS
 10
-6.352842
 20
1.124915
 30
0.000000
 11
-6.272700
 21
1.113900
 31
0.000000
  0
LINE
  8
Default
 62
     7
  6
CONTINUOUS
 10
-0.013842
 20
1.202915
 30
0.000000
 11
-0.093688
 21
1.189931
 31
0.000000
  0
LINE
  8
Default
 62
     7
  6
CONTINUOUS
 10
-0.013842
 20
1.202915
 30
0.000000
 11
-0.093983
 21
1.213930
 31
0.000000
  0
TEXT
  8
Default
 62
     7
 10
-3.766423
 20
1.309152
 30
0.000000
 40
0.375000
  1
6.339
 50
0.704976
 72
     1
 11
-3.185217
 21
1.316303
 31
0.000000
  0
LINE
  8
Default
 62
     7
  6
CONTINUOUS
 10
-0.000100
 20
0.086127
 30
0.000000
 11
-0.013992
 21
1.215106
 31
0.000000
  0
LINE
  8
Default
 62
     7
  6
CONTINUOUS
 10
6.320981
 20
0.163907
 30
0.000000
 11
6.307089
 21
1.292885
 31
0.000000
  0
LINE
  8
Default
 62
     7
  6
CONTINUOUS
 10
-0.013842
 20
1.202915
 30
0.000000
 11
6.307239
 21
1.280694
 31
0.000000
  0
LINE
  8
Default
 62
     7
  6
CONTINUOUS
 10
-0.013842
 20
1.202915
 30
0.000000
 11
0.066004
 21
1.215898
 31
0.000000
  0
LINE
  8
Default
 62
     7
  6
CONTINUOUS
 10
-0.013842
 20
1.202915
 30
0.000000
 11
0.066300
 21
1.191900
 31
0.000000
  0
LINE
  8
Default
 62
     7
  6
CONTINUOUS
 10
6.307239
 20
1.280694
 30
0.000000
 11
6.227393
 21
1.267711
 31
0.000000
  0
LINE
  8
Default
 62
     7
  6
CONTINUOUS
 10
6.307239
 20
1.280694
 30
0.000000
 11
6.227097
 21
1.291709
 31
0.000000
  0
TEXT
  8
Default
 62
     7
 10
2.563617
 20
1.387041
 30
0.000000
 40
0.375000
  1
6.322
 50
0.704976
 72
     1
 11
3.144823
 21
1.394193
 31
0.000000
  0
LINE
  8
Default
 62
     7
  6
CONTINUOUS
 10
-6.339000
 20
-0.008128
 30
0.000000
 11
-6.339000
 21
-1.098124
 31
0.000000
  0
LINE
  8
Default
 62
     7
  6
CONTINUOUS
 10
0.000000
 20
-0.008128
 30
0.000000
 11
0.000000
 21
-1.098124
 31
0.000000
  0
LINE
  8
Default
 62
     7
  6
CONTINUOUS
 10
-6.339000
 20
-1.085932
 30
0.000000
 11
0.000000
 21
-1.085932
 31
0.000000
  0
LINE
  8
Default
 62
     7
  6
CONTINUOUS
 10
-6.339000
 20
-1.085932
 30
0.000000
 11
-6.259000
 21
-1.073932
 31
0.000000
  0
LINE
  8
Default
 62
     7
  6
CONTINUOUS
 10
-6.339000
 20
-1.085932
 30
0.000000
 11
-6.259000
 21
-1.097932
 31
0.000000
  0
LINE
  8
Default
 62
     7
  6
CONTINUOUS
 10
0.000000
 20
-1.085932
 30
0.000000
 11
-0.080000
 21
-1.097932
 31
0.000000
  0
LINE
  8
Default
 62
     7
  6
CONTINUOUS
 10
0.000000
 20
-1.085932
 30
0.000000
 11
-0.080000
 21
-1.073932
 31
0.000000
  0
TEXT
  8
Default
 62
     7
 10
-2.803986
 20
-0.933532
 30
0.000000
 40
0.375000
  1
6.339
 72
     1
 11
-2.222736
 21
-0.933532
 31
0.000000
  0
LINE
  8
Default
 62
     7
  6
CONTINUOUS
 10
6.321281
 20
0.147654
 30
0.000000
 11
6.349098
 21
-0.981067
 31
0.000000
  0
LINE
  8
Default
 62
     7
  6
CONTINUOUS
 10
0.000200
 20
-0.008126
 30
0.000000
 11
0.028017
 21
-1.136847
 31
0.000000
  0
LINE
  8
Default
 62
     7
  6
CONTINUOUS
 10
6.348797
 20
-0.968879
 30
0.000000
 11
0.027717
 21
-1.124659
 31
0.000000
  0
LINE
  8
Default
 62
     7
  6
CONTINUOUS
 10
6.348797
 20
-0.968879
 30
0.000000
 11
6.269117
 21
-0.982846
 31
0.000000
  0
LINE
  8
Default
 62
     7
  6
CONTINUOUS
 10
6.348797
 20
-0.968879
 30
0.000000
 11
6.268526
 21
-0.958854
 31
0.000000
  0
LINE
  8
Default
 62
     7
  6
CONTINUOUS
 10
0.027717
 20
-1.124659
 30
0.000000
 11
0.107397
 21
-1.110691
 31
0.000000
  0
LINE
  8
Default
 62
     7
  6
CONTINUOUS
 10
0.027717
 20
-1.124659
 30
0.000000
 11
0.107988
 21
-1.134684
 31
0.000000
  0
TEXT
  8
Default
 62
     7
 10
2.603429
 20
-0.908735
 30
0.000000
 40
0.375000
  1
6.323
 50
1.411737
 72
     1
 11
3.184502
 21
-0.894415
 31
0.000000
  0
LINE
  8
Default
 62
     7
  6
CONTINUOUS
 10
-0.008128
 20
0.000000
 30
0.000000
 11
-0.467992
 21
0.000000
 31
0.000000
  0
LINE
  8
Default
 62
     7
  6
CONTINUOUS
 10
-0.008128
 20
0.078000
 30
0.000000
 11
-0.467992
 21
0.078000
 31
0.000000
  0
LINE
  8
Default
 62
     7
  6
CONTINUOUS
 10
-0.455800
 20
0.000000
 30
0.000000
 11
-0.455800
 21
1.973415
 31
0.000000
  0
LINE
  8
Default
 62
     7
  6
CONTINUOUS
 10
-0.455800
 20
0.000000
 30
0.000000
 11
-0.467800
 21
0.080000
 31
0.000000
  0
LINE
  8
Default
 62
     7
  6
CONTINUOUS
 10
-0.455800
 20
0.000000
 30
0.000000
 11
-0.443800
 21
0.080000
 31
0.000000
  0
LINE
  8
Default
 62
     7
  6
CONTINUOUS
 10
-0.455800
 20
0.078000
 30
0.000000
 11
-0.443800
 21
-0.002000
 31
0.000000
  0
LINE
  8
Default
 62
     7
  6
CONTINUOUS
 10
-0.455800
 20
0.078000
 30
0.000000
 11
-0.467800
 21
-0.002000
 31
0.000000
  0
TEXT
  8
Default
 62
     7
 10
-1.037050
 20
2.102171
 30
0.000000
 40
0.375000
  1
0.078
 50
0.000001
 72
     1
 11
-0.455800
 21
2.102171
 31
0.000000
  0
INSERT
  8
Default
 62
     7
  2
Object_0
 10
-10.160000
 20
-10.160000
 30
0.000000
  0
CIRCLE
  8
Default
 62
     6
  6
CONTINUOUS
 10
6.321081
 20
0.155780
 30
0.000000
 40
0.182500
  0
CIRCLE
  8
Default
 62
     6
  6
CONTINUOUS
 10
6.321081
 20
0.155780
 30
0.000000
 40
0.187500
  0
CIRCLE
  8
Default
 62
     6
  6
CONTINUOUS
 10
-6.339000
 20
0.000000
 30
0.000000
 40
0.182500
  0
CIRCLE
  8
Default
 62
     6
  6
CONTINUOUS
 10
-6.339000
 20
0.000000
 30
0.000000
 40
0.187500
  0
ARC
  8
Default
 62
     6
  6
CONTINUOUS
 10
8.618941
 20
2.651258
 30
-0.000000
 40
2.000000
 50
197.098334
 51
287.098334
  0
ARC
  8
Default
 62
     6
  6
CONTINUOUS
 10
0.000000
 20
0.000000
 30
0.000000
 40
7.017500
 50
17.098334
 51
43.772804
  0
ARC
  8
Default
 62
     6
  6
CONTINUOUS
 10
8.412333
 20
8.059476
 30
-0.000000
 40
4.632500
 50
185.835759
 51
223.772804
  0
ARC
  8
Default
 62
     6
  6
CONTINUOUS
 10
3.003013
 20
7.506606
 30
-0.000000
 40
0.805000
 50
5.835759
 51
91.038040
  0
LINE
  8
Default
 62
     6
  6
CONTINUOUS
 10
2.988430
 20
8.311474
 30
0.000000
 11
-3.209466
 21
8.199173
 31
0.000000
  0
ARC
  8
Default
 62
     6
  6
CONTINUOUS
 10
-3.194883
 20
7.394305
 30
0.000000
 40
0.805000
 50
91.038040
 51
174.490188
  0
LINE
  8
Default
 62
     6
  6
CONTINUOUS
 10
-3.996163
 20
7.471598
 30
0.000000
 11
-4.112761
 21
6.262854
 31
0.000000
  0
ARC
  8
Default
 62
     6
  6
CONTINUOUS
 10
-4.742339
 20
6.323584
 30
0.000000
 40
0.632500
 50
277.885021
 51
354.490188
  0
LINE
  8
Default
 62
     6
  6
CONTINUOUS
 10
-4.655569
 20
5.697064
 30
0.000000
 11
-6.833322
 21
5.395456
 31
0.000000
  0
ARC
  8
Default
 62
     6
  6
CONTINUOUS
 10
-6.714313
 20
4.536158
 30
0.000000
 40
0.867500
 50
97.885021
 51
141.702981
  0
LINE
  8
Default
 62
     6
  6
CONTINUOUS
 10
-7.395135
 20
5.073781
 30
0.000000
 11
-7.725223
 21
4.655772
 31
0.000000
  0
ARC
  8
Default
 62
     6
  6
CONTINUOUS
 10
-7.044402
 20
4.118149
 30
0.000000
 40
0.867500
 50
141.702981
 51
186.943447
  0
LINE
  8
Default
 62
     6
  6
CONTINUOUS
 10
-7.905539
 20
4.013277
 30
0.000000
 11
-7.244243
 21
-1.416852
 31
0.000000
  0
ARC
  8
Default
 62
     6
  6
CONTINUOUS
 10
-6.879438
 20
-1.372425
 30
0.000000
 40
0.367500
 50
186.943447
 51
194.158940
  0
LINE
  8
Default
 62
     6
  6
CONTINUOUS
 10
-7.235774
 20
-1.462320
 30
0.000000
 11
-7.049806
 21
-2.199481
 31
0.000000
  0
ARC
  8
Default
 62
     6
  6
CONTINUOUS
 10
-6.572268
 20
-2.079009
 30
0.000000
 40
0.492500
 50
194.158940
 51
250.347665
  0
ARC
  8
Default
 62
     6
  6
CONTINUOUS
 10
-6.866541
 20
-2.903041
 30
0.000000
 40
0.382500
 50
317.970215
 51
430.347665
  0
ARC
  8
Default
 62
     6
  6
CONTINUOUS
 10
-6.216593
 20
-3.488868
 30
0.000000
 40
0.492500
 50
137.970215
 51
194.158940
  0
LINE
  8
Default
 62
     6
  6
CONTINUOUS
 10
-6.694132
 20
-3.609340
 30
0.000000
 11
-6.589718
 21
-4.023226
 31
0.000000
  0
ARC
  8
Default
 62
     6
  6
CONTINUOUS
 10
-5.627369
 20
-3.780448
 30
0.000000
 40
0.992500
 50
194.158940
 51
239.117593
  0
LINE
  8
Default
 62
     6
  6
CONTINUOUS
 10
-6.136797
 20
-4.632234
 30
0.000000
 11
-3.039287
 21
-6.484764
 31
0.000000
  0
ARC
  8
Default
 62
     6
  6
CONTINUOUS
 10
-2.529858
 20
-5.632978
 30
0.000000
 40
0.992500
 50
239.117593
 51
270.961275
  0
LINE
  8
Default
 62
     6
  6
CONTINUOUS
 10
-2.513208
 20
-6.625338
 30
0.000000
 11
2.457156
 21
-6.541941
 31
0.000000
  0
ARC
  8
Default
 62
     6
  6
CONTINUOUS
 10
2.440505
 20
-5.549580
 30
0.000000
 40
0.992500
 50
270.961275
 51
307.012922
  0
LINE
  8
Default
 62
     6
  6
CONTINUOUS
 10
3.037985
 20
-6.342091
 30
0.000000
 11
5.900987
 21
-4.183652
 31
0.000000
  0
ARC
  8
Default
 62
     6
  6
CONTINUOUS
 10
5.303507
 20
-3.391141
 30
0.000000
 40
0.992500
 50
307.012922
 51
344.962884
  0
LINE
  8
Default
 62
     6
  6
CONTINUOUS
 10
6.262022
 20
-3.648640
 30
0.000000
 11
7.214565
 21
-0.102889
 31
-0.000000
  0
ARC
  8
Default
 62
     6
  6
CONTINUOUS
 10
6.256050
 20
0.154610
 30
-0.000000
 40
0.992500
 50
344.962884
 51
377.098334
  0
LINE
  8
Default
 62
     6
  6
CONTINUOUS
 10
7.204684
 20
0.446417
 30
-0.000000
 11
6.707337
 21
2.063233
 31
-0.000000
  0
ARC
  8
Default
 62
     6
  6
CONTINUOUS
 10
8.618941
 20
2.651258
 30
-0.000000
 40
2.000000
 50
107.098334
 51
197.098334
  0
ARC
  8
Default
 62
     6
  6
CONTINUOUS
 10
0.000000
 20
0.000000
 30
-0.000000
 40
7.012500
 50
17.098334
 51
43.772804
  0
LINE
  8
Default
 62
     6
  6
CONTINUOUS
 10
6.702558
 20
2.061763
 30
-0.000000
 11
7.199905
 21
0.444947
 31
-0.000000
  0
ARC
  8
Default
 62
     6
  6
CONTINUOUS
 10
6.256050
 20
0.154610
 30
-0.000000
 40
0.987500
 50
344.962884
 51
377.098334
  0
LINE
  8
Default
 62
     6
  6
CONTINUOUS
 10
7.209736
 20
-0.101592
 30
-0.000000
 11
6.257193
 21
-3.647343
 31
0.000000
  0
ARC
  8
Default
 62
     6
  6
CONTINUOUS
 10
5.303507
 20
-3.391141
 30
0.000000
 40
0.987500
 50
307.012922
 51
344.962884
  0
LINE
  8
Default
 62
     6
  6
CONTINUOUS
 10
5.897977
 20
-4.179659
 30
0.000000
 11
3.034975
 21
-6.338099
 31
0.000000
  0
ARC
  8
Default
 62
     6
  6
CONTINUOUS
 10
2.440505
 20
-5.549580
 30
0.000000
 40
0.987500
 50
270.961275
 51
307.012922
  0
LINE
  8
Default
 62
     6
  6
CONTINUOUS
 10
2.457072
 20
-6.536941
 30
0.000000
 11
-2.513292
 21
-6.620339
 31
0.000000
  0
ARC
  8
Default
 62
     6
  6
CONTINUOUS
 10
-2.529858
 20
-5.632978
 30
0.000000
 40
0.987500
 50
239.117593
 51
270.961275
  0
LINE
  8
Default
 62
     6
  6
CONTINUOUS
 10
-3.036720
 20
-6.480473
 30
0.000000
 11
-6.134231
 21
-4.627942
 31
0.000000
  0
ARC
  8
Default
 62
     6
  6
CONTINUOUS
 10
-5.627369
 20
-3.780448
 30
0.000000
 40
0.987500
 50
194.158940
 51
239.117593
  0
LINE
  8
Default
 62
     6
  6
CONTINUOUS
 10
-6.584870
 20
-4.022003
 30
0.000000
 11
-6.689284
 21
-3.608117
 31
0.000000
  0
ARC
  8
Default
 62
     6
  6
CONTINUOUS
 10
-6.216593
 20
-3.488868
 30
0.000000
 40
0.487500
 50
137.970215
 51
194.158940
  0
ARC
  8
Default
 62
     6
  6
CONTINUOUS
 10
-6.866541
 20
-2.903041
 30
0.000000
 40
0.387500
 50
317.970215
 51
430.347665
  0
ARC
  8
Default
 62
     6
  6
CONTINUOUS
 10
-6.572268
 20
-2.079009
 30
0.000000
 40
0.487500
 50
194.158940
 51
250.347665
  0
LINE
  8
Default
 62
     6
  6
CONTINUOUS
 10
-7.044958
 20
-2.198258
 30
0.000000
 11
-7.230926
 21
-1.461097
 31
0.000000
  0
ARC
  8
Default
 62
     6
  6
CONTINUOUS
 10
-6.879438
 20
-1.372425
 30
0.000000
 40
0.362500
 50
186.943447
 51
194.158940
  0
LINE
  8
Default
 62
     6
  6
CONTINUOUS
 10
-7.239280
 20
-1.416248
 30
0.000000
 11
-7.900576
 21
4.013882
 31
0.000000
  0
ARC
  8
Default
 62
     6
  6
CONTINUOUS
 10
-7.044402
 20
4.118149
 30
0.000000
 40
0.862500
 50
141.702981
 51
186.943447
  0
LINE
  8
Default
 62
     6
  6
CONTINUOUS
 10
-7.721299
 20
4.652673
 30
-0.000000
 11
-7.391211
 21
5.070682
 31
-0.000000
  0
ARC
  8
Default
 62
     6
  6
CONTINUOUS
 10
-6.714313
 20
4.536158
 30
0.000000
 40
0.862500
 50
97.885021
 51
141.702981
  0
LINE
  8
Default
 62
     6
  6
CONTINUOUS
 10
-6.832636
 20
5.390503
 30
-0.000000
 11
-4.654883
 21
5.692111
 31
-0.000000
  0
ARC
  8
Default
 62
     6
  6
CONTINUOUS
 10
-4.742339
 20
6.323584
 30
0.000000
 40
0.637500
 50
277.885021
 51
354.490188
  0
LINE
  8
Default
 62
     6
  6
CONTINUOUS
 10
-4.107784
 20
6.262373
 30
-0.000000
 11
-3.991186
 21
7.471118
 31
-0.000000
  0
ARC
  8
Default
 62
     6
  6
CONTINUOUS
 10
-3.194883
 20
7.394305
 30
0.000000
 40
0.800000
 50
91.038040
 51
174.490188
  0
LINE
  8
Default
 62
     6
  6
CONTINUOUS
 10
-3.209376
 20
8.194174
 30
-0.000000
 11
2.988520
 21
8.306475
 31
-0.000000
  0
ARC
  8
Default
 62
     6
  6
CONTINUOUS
 10
3.003013
 20
7.506606
 30
-0.000000
 40
0.800000
 50
5.835759
 51
91.038040
  0
ARC
  8
Default
 62
     6
  6
CONTINUOUS
 10
8.412333
 20
8.059476
 30
-0.000000
 40
4.637500
 50
185.835759
 51
223.772804
  0
CIRCLE
  8
Default
 62
     6
  6
CONTINUOUS
 10
0.000000
 20
0.000000
 30
-0.625000
 40
2.632500
  0
CIRCLE
  8
Default
 62
     6
  6
CONTINUOUS
 10
0.000000
 20
0.000000
 30
-0.625000
 40
2.637500
  0
ENDSEC
  0
EOF
