  0
SECTION
  2
HEADER
  9
$ACADVER
  1
AC1006
  0
ENDSEC
  0
SECTION
  2
TABLES
  0
TABLE
  2
LTYPE
 70
    25
  0
LTYPE
  2
CONTINUOUS
 70
    64
  3
Solid line
 72
    64
 73
     0
 40
0.000000
  0
LTYPE
  2
DASHDOT
 70
    64
  3
__ . __ . __ . __ . __ . __ . __ . __ . __ . __
 72
    65
 73
     4
 40
1.000000
 49
0.500000
 49
-0.250000
 49
0.000000
 49
-0.250000
  0
LTYPE
  2
DASHED
 70
    64
  3
__ __ __ __ __ __ __ __ __ __ __ __ __ __ __ __
 72
    65
 73
     2
 40
0.750000
 49
0.500000
 49
-0.250000
  0
LTYPE
  2
DIVIDE
 70
    64
  3
____ . . ____ . . ____ . . ____ . . ____ . . __
 72
    65
 73
     6
 40
1.250000
 49
0.500000
 49
-0.250000
 49
0.000000
 49
-0.250000
 49
0.000000
 49
-0.250000
  0
LTYPE
  2
DOT
 70
    64
  3
. . . . . . . . . . . . . . . . . . . . . . . . 
 72
    65
 73
     2
 40
0.250000
 49
0.000000
 49
-0.250000
  0
ENDTAB
  0
ENDSEC
  0
SECTION
  2
BLOCKS
  0
BLOCK
  8
0
  2
Object_0
 70
    64
 10
0.000000
 20
0.000000
 30
0.000000
  0
ENDBLK
  0
ENDSEC
  0
SECTION
  2
ENTITIES
  0
LINE
  8
Default
 62
     6
  6
CONTINUOUS
 10
-5.934260
 20
0.357187
 30
0.000000
 11
-5.889347
 21
2.184519
 31
0.000000
  0
LINE
  8
Default
 62
     6
  6
CONTINUOUS
 10
-5.934260
 20
0.357187
 30
0.000000
 11
-6.274473
 21
-0.081311
 31
0.000000
  0
ARC
  8
Default
 62
     6
  6
CONTINUOUS
 10
0.000000
 20
0.000000
 30
0.000000
 40
6.275000
 50
180.742454
 51
191.778126
  0
LINE
  8
Default
 62
     6
  6
CONTINUOUS
 10
-6.278933
 20
-1.645680
 30
0.000000
 11
-6.142882
 21
-1.280868
 31
0.000000
  0
ARC
  8
Default
 62
     6
  6
CONTINUOUS
 10
-5.224849
 20
-2.038784
 30
0.000000
 40
1.125000
 50
159.547768
 51
202.433710
  0
LINE
  8
Default
 62
     6
  6
CONTINUOUS
 10
-5.587915
 20
-4.107393
 30
0.000000
 11
-6.264711
 21
-2.468101
 31
0.000000
  0
ARC
  8
Default
 62
     6
  6
CONTINUOUS
 10
-4.548053
 20
-3.678077
 30
0.000000
 40
1.125000
 50
202.433710
 51
245.564695
  0
LINE
  8
Default
 62
     6
  6
CONTINUOUS
 10
-2.628844
 20
-5.785776
 30
0.000000
 11
-5.013427
 21
-4.702309
 31
0.000000
  0
ARC
  8
Default
 62
     6
  6
CONTINUOUS
 10
0.000000
 20
0.000000
 30
0.000000
 40
6.355000
 50
245.564695
 51
266.877921
  0
LINE
  8
Default
 62
     6
  6
CONTINUOUS
 10
2.064445
 20
-6.477051
 30
0.000000
 11
-0.346116
 21
-6.345568
 31
0.000000
  0
ARC
  8
Default
 62
     6
  6
CONTINUOUS
 10
2.125716
 20
-5.353720
 30
0.000000
 40
1.125000
 50
266.877921
 51
302.572307
  0
LINE
  8
Default
 62
     6
  6
CONTINUOUS
 10
2.731375
 20
-6.301772
 30
0.000000
 11
4.201315
 21
-5.362707
 31
0.000000
  0
LINE
  8
Default
 62
     6
  6
CONTINUOUS
 10
4.201315
 20
-5.362707
 30
0.000000
 11
6.068797
 21
-4.286561
 31
0.000000
  0
LINE
  8
Default
 62
     6
  6
CONTINUOUS
 10
6.068797
 20
-4.286561
 30
0.000000
 11
7.249189
 21
-2.744419
 31
0.000000
  0
ARC
  8
Default
 62
     6
  6
CONTINUOUS
 10
6.110936
 20
-1.873174
 30
0.000000
 40
1.433418
 50
322.568706
 51
374.601818
  0
LINE
  8
Default
 62
     6
  6
CONTINUOUS
 10
6.747376
 20
1.369722
 30
0.000000
 11
7.498056
 21
-1.511809
 31
0.000000
  0
LINE
  8
Default
 62
     6
  6
CONTINUOUS
 10
6.759174
 20
1.914209
 30
0.000000
 11
6.747376
 21
1.369722
 31
0.000000
  0
LINE
  8
Default
 62
     6
  6
CONTINUOUS
 10
6.759174
 20
1.914209
 30
0.000000
 11
6.162838
 21
2.890279
 31
0.000000
  0
CIRCLE
  8
Default
 62
     9
  6
CONTINUOUS
 10
0.000000
 20
0.000000
 30
-0.125000
 40
4.251000
  0
CIRCLE
  8
Default
 62
     9
  6
CONTINUOUS
 10
0.000000
 20
0.000000
 30
-0.625000
 40
3.000000
  0
CIRCLE
  8
Default
 62
     9
  6
CONTINUOUS
 10
0.000000
 20
3.625000
 30
0.000000
 40
0.265625
  0
CIRCLE
  8
Default
 62
     9
  6
CONTINUOUS
 10
3.625000
 20
0.000000
 30
0.000000
 40
0.265625
  0
CIRCLE
  8
Default
 62
     9
  6
CONTINUOUS
 10
-3.625000
 20
0.000000
 30
0.000000
 40
0.265625
  0
CIRCLE
  8
Default
 62
     9
  6
CONTINUOUS
 10
-0.000000
 20
-3.625000
 30
0.000000
 40
0.265625
  0
POINT
  8
Default
 62
     7
 10
-6.593750
 20
-1.649300
 30
0.000000
  0
POINT
  8
Default
 62
     7
 10
6.691829
 20
1.609224
 30
0.000000
  0
POINT
  8
Default
 62
     7
 10
4.474986
 20
5.186760
 30
0.000000
  0
POINT
  8
Default
 62
     7
 10
2.912281
 20
6.849046
 30
0.000000
  0
POINT
  8
Default
 62
     7
 10
-2.208203
 20
6.836205
 30
0.000000
  0
POINT
  8
Default
 62
     7
 10
0.000000
 20
0.000000
 30
0.000000
  0
POINT
  8
Default
 62
     7
 10
6.593750
 20
-1.649300
 30
0.000000
  0
ARC
  8
Default
 62
     6
  6
CONTINUOUS
 10
-6.593750
 20
-1.649300
 30
0.000000
 40
0.750000
 50
180.830542
 51
181.715404
  0
CIRCLE
  8
Default
 62
     6
  6
CONTINUOUS
 10
6.593750
 20
-1.649300
 30
0.000000
 40
0.275600
  0
CIRCLE
  8
Default
 62
     6
  6
CONTINUOUS
 10
-6.593750
 20
-1.649300
 30
0.000000
 40
0.275600
  0
POINT
  8
Default
 62
     7
 10
-5.681230
 20
3.485473
 30
0.000000
  0
CIRCLE
  8
Default
 62
     6
  6
CONTINUOUS
 10
0.000000
 20
0.000000
 30
-0.625000
 40
2.626150
  0
LINE
  8
Default
 62
     7
  6
CONTINUOUS
 10
7.571086
 20
2.479723
 30
0.000000
 11
7.174254
 21
1.017775
 31
0.000000
  0
LINE
  8
Default
 62
     7
  6
CONTINUOUS
 10
7.094467
 20
-1.633015
 30
-0.000000
 11
7.174254
 21
1.017775
 31
0.000000
  0
ARC
  8
Default
 62
     6
  6
CONTINUOUS
 10
0.000000
 20
0.000000
 30
0.000000
 40
7.296000
 50
193.800518
 51
194.286076
  0
ARC
  8
Default
 62
     7
  6
CONTINUOUS
 10
6.344806
 20
-1.610451
 30
-0.000000
 40
0.750000
 50
345.757846
 51
358.275957
  0
ARC
  8
Default
 62
     6
  6
CONTINUOUS
 10
0.000000
 20
0.000000
 30
0.000000
 40
7.296000
 50
345.713924
 51
346.199482
  0
ARC
  8
Default
 62
     7
  6
CONTINUOUS
 10
0.000000
 20
0.000000
 30
0.000000
 40
7.296000
 50
313.478387
 51
345.757846
  0
ARC
  8
Default
 62
     7
  6
CONTINUOUS
 10
4.504178
 20
-4.750000
 30
-0.000000
 40
0.750000
 50
270.000000
 51
313.478387
  0
LINE
  8
Default
 62
     7
  6
CONTINUOUS
 10
4.504178
 20
-5.500000
 30
-0.000000
 11
-4.504178
 21
-5.500000
 31
0.000000
  0
ARC
  8
Default
 62
     7
  6
CONTINUOUS
 10
-4.504178
 20
-4.750000
 30
0.000000
 40
0.750000
 50
226.521613
 51
270.000000
  0
ARC
  8
Default
 62
     7
  6
CONTINUOUS
 10
0.000000
 20
0.000000
 30
0.000000
 40
7.296000
 50
194.261731
 51
226.521613
  0
ARC
  8
Default
 62
     7
  6
CONTINUOUS
 10
-6.344255
 20
-1.612618
 30
-0.000000
 40
0.750000
 50
180.830542
 51
194.261731
  0
LINE
  8
Default
 62
     7
  6
CONTINUOUS
 10
-7.094177
 20
-1.623490
 30
-0.000000
 11
-7.148453
 21
2.120556
 31
0.000000
  0
ARC
  8
Default
 62
     7
  6
CONTINUOUS
 10
-6.648506
 20
2.127803
 30
0.000000
 40
0.500000
 50
144.531911
 51
180.830542
  0
LINE
  8
Default
 62
     7
  6
CONTINUOUS
 10
-6.088449
 20
3.775597
 30
0.000000
 11
-7.055725
 21
2.417928
 31
0.000000
  0
ARC
  8
Default
 62
     7
  6
CONTINUOUS
 10
-5.681230
 20
3.485473
 30
0.000000
 40
0.500000
 50
133.973263
 51
144.531911
  0
LINE
  8
Default
 62
     7
  6
CONTINUOUS
 10
-2.555365
 20
7.196037
 30
0.000000
 11
-6.028391
 21
3.845305
 31
0.000000
  0
ARC
  8
Default
 62
     7
  6
CONTINUOUS
 10
-2.208203
 20
6.836205
 30
0.000000
 40
0.500000
 50
90.143685
 51
133.973263
  0
LINE
  8
Default
 62
     7
  6
CONTINUOUS
 10
-2.209457
 20
7.336203
 30
0.000000
 11
2.911027
 21
7.349044
 31
0.000000
  0
ARC
  8
Default
 62
     7
  6
CONTINUOUS
 10
2.912281
 20
6.849046
 30
0.000000
 40
0.500000
 50
0.000000
 51
90.143685
  0
LINE
  8
Default
 62
     7
  6
CONTINUOUS
 10
3.412281
 20
6.415148
 30
0.000000
 11
3.412281
 21
6.849046
 31
0.000000
  0
ARC
  8
Default
 62
     7
  6
CONTINUOUS
 10
4.162281
 20
6.415148
 30
0.000000
 40
0.750000
 50
180.000000
 51
268.324914
  0
LINE
  8
Default
 62
     7
  6
CONTINUOUS
 10
5.231470
 20
5.633559
 30
0.000000
 11
4.140357
 21
5.665468
 31
0.000000
  0
LINE
  8
Default
 62
     7
  6
CONTINUOUS
 10
-6.593750
 20
-1.649300
 30
0.000000
 11
0.000000
 21
0.000000
 31
0.000000
  0
LINE
  8
Default
 62
     7
  6
CONTINUOUS
 10
0.000000
 20
0.000000
 30
0.000000
 11
6.593750
 21
-1.649300
 31
0.000000
  0
LINE
  8
Default
 62
     7
  6
CONTINUOUS
 10
-6.593750
 20
-1.649300
 30
0.000000
 11
6.593750
 21
-1.649300
 31
0.000000
  0
LINE
  8
Default
 62
     7
  6
CONTINUOUS
 10
-6.595722
 20
-1.641415
 30
0.000000
 11
-6.887894
 21
-0.473337
 31
0.000000
  0
LINE
  8
Default
 62
     7
  6
CONTINUOUS
 10
-0.001972
 20
0.007885
 30
0.000000
 11
-0.294145
 21
1.175963
 31
0.000000
  0
LINE
  8
Default
 62
     7
  6
CONTINUOUS
 10
-6.884936
 20
-0.485165
 30
0.000000
 11
-0.291186
 21
1.164135
 31
0.000000
  0
LINE
  8
Default
 62
     7
  6
CONTINUOUS
 10
-6.884936
 20
-0.485165
 30
0.000000
 11
-6.810239
 21
-0.454111
 31
0.000000
  0
LINE
  8
Default
 62
     7
  6
CONTINUOUS
 10
-6.884936
 20
-0.485165
 30
0.000000
 11
-6.804415
 21
-0.477394
 31
0.000000
  0
LINE
  8
Default
 62
     7
  6
CONTINUOUS
 10
-0.291186
 20
1.164135
 30
0.000000
 11
-0.365883
 21
1.133081
 31
0.000000
  0
LINE
  8
Default
 62
     7
  6
CONTINUOUS
 10
-0.291186
 20
1.164135
 30
0.000000
 11
-0.371707
 21
1.156364
 31
0.000000
  0
TEXT
  8
Default
 62
     7
 10
-4.243933
 20
0.343000
 30
0.000000
 40
0.400000
  1
6.797
 50
14.043297
 72
     1
 11
-3.627507
 21
0.497187
 31
0.000000
  0
LINE
  8
Default
 62
     7
  6
CONTINUOUS
 10
0.001972
 20
0.007885
 30
0.000000
 11
0.294144
 21
1.175963
 31
0.000000
  0
LINE
  8
Default
 62
     7
  6
CONTINUOUS
 10
6.595722
 20
-1.641415
 30
0.000000
 11
6.887894
 21
-0.473337
 31
0.000000
  0
LINE
  8
Default
 62
     7
  6
CONTINUOUS
 10
0.291186
 20
1.164135
 30
0.000000
 11
6.884936
 21
-0.485165
 31
0.000000
  0
LINE
  8
Default
 62
     7
  6
CONTINUOUS
 10
0.291186
 20
1.164135
 30
0.000000
 11
0.371707
 21
1.156364
 31
0.000000
  0
LINE
  8
Default
 62
     7
  6
CONTINUOUS
 10
0.291186
 20
1.164135
 30
0.000000
 11
0.365883
 21
1.133081
 31
0.000000
  0
LINE
  8
Default
 62
     7
  6
CONTINUOUS
 10
6.884936
 20
-0.485165
 30
0.000000
 11
6.804415
 21
-0.477394
 31
0.000000
  0
LINE
  8
Default
 62
     7
  6
CONTINUOUS
 10
6.884936
 20
-0.485165
 30
0.000000
 11
6.810239
 21
-0.454111
 31
0.000000
  0
TEXT
  8
Default
 62
     7
 10
3.011081
 20
0.651374
 30
0.000000
 40
0.400000
  1
6.797
 50
-14.043296
 72
     1
 11
3.627507
 21
0.497187
 31
0.000000
  0
LINE
  8
Default
 62
     7
  6
CONTINUOUS
 10
6.593750
 20
-1.657428
 30
0.000000
 11
6.593750
 21
-2.861492
 31
0.000000
  0
LINE
  8
Default
 62
     7
  6
CONTINUOUS
 10
-6.593750
 20
-1.657428
 30
0.000000
 11
-6.593750
 21
-2.861493
 31
0.000000
  0
LINE
  8
Default
 62
     7
  6
CONTINUOUS
 10
6.593750
 20
-2.849300
 30
0.000000
 11
-6.593750
 21
-2.849301
 31
0.000000
  0
LINE
  8
Default
 62
     7
  6
CONTINUOUS
 10
6.593750
 20
-2.849300
 30
0.000000
 11
6.513750
 21
-2.861300
 31
0.000000
  0
LINE
  8
Default
 62
     7
  6
CONTINUOUS
 10
6.593750
 20
-2.849300
 30
0.000000
 11
6.513750
 21
-2.837300
 31
0.000000
  0
LINE
  8
Default
 62
     7
  6
CONTINUOUS
 10
-6.593750
 20
-2.849301
 30
0.000000
 11
-6.513750
 21
-2.837301
 31
0.000000
  0
LINE
  8
Default
 62
     7
  6
CONTINUOUS
 10
-6.593750
 20
-2.849301
 30
0.000000
 11
-6.513750
 21
-2.861301
 31
0.000000
  0
TEXT
  8
Default
 62
     7
 10
-0.776042
 20
-2.686740
 30
0.000000
 40
0.400000
  1
13.187
 50
0.000005
 72
     1
 11
0.000000
 21
-2.686740
 31
0.000000
  0
CIRCLE
  8
Default
 62
     6
  6
CONTINUOUS
 10
-5.681230
 20
3.485473
 30
0.000000
 40
0.267500
  0
CIRCLE
  8
Default
 62
     6
  6
CONTINUOUS
 10
-2.208203
 20
6.836205
 30
0.000000
 40
0.267500
  0
CIRCLE
  8
Default
 62
     6
  6
CONTINUOUS
 10
2.912281
 20
6.849046
 30
0.000000
 40
0.267500
  0
CIRCLE
  8
Default
 62
     6
  6
CONTINUOUS
 10
4.474986
 20
5.186760
 30
0.000000
 40
0.267500
  0
CIRCLE
  8
Default
 62
     6
  6
CONTINUOUS
 10
6.691829
 20
1.609224
 30
0.000000
 40
0.267500
  0
INSERT
  8
Default
 62
     7
  2
Object_0
 10
-10.160000
 20
-10.160000
 30
0.000000
  0
CIRCLE
  8
Default
 62
     6
  6
CONTINUOUS
 10
6.593750
 20
-1.649300
 30
0.000000
 40
0.026450
  0
CIRCLE
  8
Default
 62
     6
  6
CONTINUOUS
 10
-6.593750
 20
-1.649300
 30
0.000000
 40
0.026450
  0
ARC
  8
Default
 62
     6
  6
CONTINUOUS
 10
10.472937
 20
-1.734705
 30
-0.000000
 40
3.000000
 50
178.275957
 51
268.275957
  0
LINE
  8
Default
 62
     6
  6
CONTINUOUS
 10
7.474295
 20
-1.644447
 30
-0.000000
 11
7.552732
 21
0.961513
 31
0.000000
  0
LINE
  8
Default
 62
     6
  6
CONTINUOUS
 10
7.552732
 20
0.961513
 30
0.000000
 11
7.937816
 21
2.380177
 31
0.000000
  0
ARC
  8
Default
 62
     6
  6
CONTINUOUS
 10
5.158391
 20
3.134628
 30
0.000000
 40
2.880000
 50
344.813487
 51
448.324914
  0
LINE
  8
Default
 62
     6
  6
CONTINUOUS
 10
5.242578
 20
6.013397
 30
0.000000
 11
4.151465
 21
6.045306
 31
0.000000
  0
ARC
  8
Default
 62
     6
  6
CONTINUOUS
 10
4.162281
 20
6.415148
 30
0.000000
 40
0.370000
 50
180.000000
 51
268.324914
  0
LINE
  8
Default
 62
     6
  6
CONTINUOUS
 10
3.792281
 20
6.415148
 30
0.000000
 11
3.792281
 21
6.849046
 31
0.000000
  0
ARC
  8
Default
 62
     6
  6
CONTINUOUS
 10
2.912281
 20
6.849046
 30
0.000000
 40
0.880000
 50
0.000000
 51
90.143685
  0
LINE
  8
Default
 62
     6
  6
CONTINUOUS
 10
2.910074
 20
7.729043
 30
0.000000
 11
-2.210410
 21
7.716202
 31
0.000000
  0
ARC
  8
Default
 62
     6
  6
CONTINUOUS
 10
-2.208203
 20
6.836205
 30
0.000000
 40
0.880000
 50
90.143685
 51
133.973263
  0
LINE
  8
Default
 62
     6
  6
CONTINUOUS
 10
-2.819207
 20
7.469509
 30
0.000000
 11
-6.292234
 21
4.118777
 31
0.000000
  0
ARC
  8
Default
 62
     6
  6
CONTINUOUS
 10
-5.681230
 20
3.485473
 30
0.000000
 40
0.880000
 50
133.973263
 51
144.531911
  0
LINE
  8
Default
 62
     6
  6
CONTINUOUS
 10
-6.397936
 20
3.996092
 30
0.000000
 11
-7.365212
 21
2.638423
 31
0.000000
  0
ARC
  8
Default
 62
     6
  6
CONTINUOUS
 10
-6.648506
 20
2.127803
 30
0.000000
 40
0.880000
 50
144.531911
 51
180.830542
  0
LINE
  8
Default
 62
     6
  6
CONTINUOUS
 10
-7.528413
 20
2.115047
 30
0.000000
 11
-7.474137
 21
-1.628998
 31
-0.000000
  0
ARC
  8
Default
 62
     6
  6
CONTINUOUS
 10
-6.344255
 20
-1.612618
 30
-0.000000
 40
1.130000
 50
180.830542
 51
194.261731
  0
ARC
  8
Default
 62
     6
  6
CONTINUOUS
 10
0.000000
 20
0.000000
 30
0.000000
 40
7.676000
 50
194.261731
 51
226.521613
  0
ARC
  8
Default
 62
     6
  6
CONTINUOUS
 10
-4.504178
 20
-4.750000
 30
0.000000
 40
1.130000
 50
226.521613
 51
270.000000
  0
LINE
  8
Default
 62
     6
  6
CONTINUOUS
 10
-4.504178
 20
-5.880000
 30
0.000000
 11
4.504178
 21
-5.880000
 31
-0.000000
  0
ARC
  8
Default
 62
     6
  6
CONTINUOUS
 10
4.504178
 20
-4.750000
 30
-0.000000
 40
1.130000
 50
270.000000
 51
313.478387
  0
ARC
  8
Default
 62
     6
  6
CONTINUOUS
 10
0.000000
 20
0.000000
 30
0.000000
 40
7.676000
 50
313.478387
 51
345.757846
  0
ARC
  8
Default
 62
     6
  6
CONTINUOUS
 10
6.344806
 20
-1.610451
 30
-0.000000
 40
1.130000
 50
345.757846
 51
358.275957
  0
ARC
  8
Default
 62
     6
  6
CONTINUOUS
 10
10.472937
 20
-1.734705
 30
-0.000000
 40
3.000000
 50
88.275957
 51
178.275957
  0
ARC
  8
Default
 62
     6
  6
CONTINUOUS
 10
0.000000
 20
0.000000
 30
0.000000
 40
7.669850
 50
313.478387
 51
345.757846
  0
ARC
  8
Default
 62
     6
  6
CONTINUOUS
 10
4.504178
 20
-4.750000
 30
-0.000000
 40
1.123850
 50
270.000000
 51
313.478387
  0
LINE
  8
Default
 62
     6
  6
CONTINUOUS
 10
4.504178
 20
-5.873850
 30
-0.000000
 11
-4.504178
 21
-5.873850
 31
0.000000
  0
ARC
  8
Default
 62
     6
  6
CONTINUOUS
 10
-4.504178
 20
-4.750000
 30
0.000000
 40
1.123850
 50
226.521613
 51
270.000000
  0
ARC
  8
Default
 62
     6
  6
CONTINUOUS
 10
0.000000
 20
0.000000
 30
0.000000
 40
7.669850
 50
194.261731
 51
226.521613
  0
ARC
  8
Default
 62
     6
  6
CONTINUOUS
 10
-6.344255
 20
-1.612618
 30
-0.000000
 40
1.123850
 50
180.830542
 51
194.261731
  0
LINE
  8
Default
 62
     6
  6
CONTINUOUS
 10
-7.467987
 20
-1.628909
 30
-0.000000
 11
-7.522264
 21
2.115137
 31
0.000000
  0
ARC
  8
Default
 62
     6
  6
CONTINUOUS
 10
-6.648506
 20
2.127803
 30
0.000000
 40
0.873850
 50
144.531911
 51
180.830542
  0
LINE
  8
Default
 62
     6
  6
CONTINUOUS
 10
-7.360203
 20
2.634854
 30
0.000000
 11
-6.392927
 21
3.992524
 31
0.000000
  0
ARC
  8
Default
 62
     6
  6
CONTINUOUS
 10
-5.681230
 20
3.485473
 30
0.000000
 40
0.873850
 50
133.973263
 51
144.531911
  0
LINE
  8
Default
 62
     6
  6
CONTINUOUS
 10
-6.287964
 20
4.114351
 30
0.000000
 11
-2.814937
 21
7.465083
 31
0.000000
  0
ARC
  8
Default
 62
     6
  6
CONTINUOUS
 10
-2.208203
 20
6.836205
 30
0.000000
 40
0.873850
 50
90.143685
 51
133.973263
  0
LINE
  8
Default
 62
     6
  6
CONTINUOUS
 10
-2.210395
 20
7.710052
 30
0.000000
 11
2.910089
 21
7.722893
 31
0.000000
  0
ARC
  8
Default
 62
     6
  6
CONTINUOUS
 10
2.912281
 20
6.849046
 30
0.000000
 40
0.873850
 50
0.000000
 51
90.143685
  0
LINE
  8
Default
 62
     6
  6
CONTINUOUS
 10
3.786131
 20
6.849046
 30
0.000000
 11
3.786131
 21
6.415148
 31
0.000000
  0
ARC
  8
Default
 62
     6
  6
CONTINUOUS
 10
4.162281
 20
6.415148
 30
0.000000
 40
0.376150
 50
180.000000
 51
268.324914
  0
LINE
  8
Default
 62
     6
  6
CONTINUOUS
 10
4.151285
 20
6.039158
 30
0.000000
 11
5.242398
 21
6.007250
 31
0.000000
  0
ARC
  8
Default
 62
     6
  6
CONTINUOUS
 10
5.158391
 20
3.134628
 30
0.000000
 40
2.873850
 50
344.813487
 51
448.324914
  0
LINE
  8
Default
 62
     6
  6
CONTINUOUS
 10
7.931881
 20
2.381788
 30
0.000000
 11
7.546607
 21
0.962423
 31
0.000000
  0
LINE
  8
Default
 62
     6
  6
CONTINUOUS
 10
7.546607
 20
0.962423
 30
0.000000
 11
7.468147
 21
-1.644262
 31
-0.000000
  0
ARC
  8
Default
 62
     6
  6
CONTINUOUS
 10
6.344806
 20
-1.610451
 30
-0.000000
 40
1.123850
 50
345.757846
 51
358.275957
  0
CIRCLE
  8
Default
 62
     6
  6
CONTINUOUS
 10
0.000000
 20
0.000000
 30
-0.625000
 40
2.620000
  0
ARC
  8
Default
 62
     7
  6
CONTINUOUS
 10
5.158391
 20
3.134628
 30
0.000000
 40
2.500000
 50
344.813487
 51
448.324914
  0
ENDSEC
  0
EOF
