  0
SECTION
  2
HEADER
  9
$ACADVER
  1
AC1006
  0
ENDSEC
  0
SECTION
  2
TABLES
  0
TABLE
  2
LTYPE
 70
    25
  0
LTYPE
  2
CONTINUOUS
 70
    64
  3
Solid line
 72
    64
 73
     0
 40
0.000000
  0
LTYPE
  2
DASHDOT
 70
    64
  3
__ . __ . __ . __ . __ . __ . __ . __ . __ . __
 72
    65
 73
     4
 40
1.000000
 49
0.500000
 49
-0.250000
 49
0.000000
 49
-0.250000
  0
LTYPE
  2
DASHED
 70
    64
  3
__ __ __ __ __ __ __ __ __ __ __ __ __ __ __ __
 72
    65
 73
     2
 40
0.750000
 49
0.500000
 49
-0.250000
  0
LTYPE
  2
DIVIDE
 70
    64
  3
____ . . ____ . . ____ . . ____ . . ____ . . __
 72
    65
 73
     6
 40
1.250000
 49
0.500000
 49
-0.250000
 49
0.000000
 49
-0.250000
 49
0.000000
 49
-0.250000
  0
LTYPE
  2
DOT
 70
    64
  3
. . . . . . . . . . . . . . . . . . . . . . . . 
 72
    65
 73
     2
 40
0.250000
 49
0.000000
 49
-0.250000
  0
ENDTAB
  0
ENDSEC
  0
SECTION
  2
ENTITIES
  0
POINT
  8
HUBFT
 62
     7
 10
0.000000
 20
0.000000
 30
0.000000
  0
LINE
  8
BORDER
 62
     7
  6
CONTINUOUS
 10
13.184698
 20
6.168456
 30
0.000000
 11
13.184698
 21
-3.831544
 31
0.000000
  0
LINE
  8
BORDER
 62
     7
  6
CONTINUOUS
 10
13.184698
 20
6.168456
 30
0.000000
 11
0.724035
 21
6.168456
 31
0.000000
  0
LINE
  8
BORDER
 62
     7
  6
CONTINUOUS
 10
13.184698
 20
-3.831544
 30
0.000000
 11
0.724035
 21
-3.831544
 31
0.000000
  0
POINT
  8
BUSHDIME
 62
     7
 10
10.241698
 20
-0.000231
 30
0.000000
  0
POINT
  8
BUSHDIME
 62
     7
 10
10.241698
 20
-0.000231
 30
0.000000
  0
LINE
  8
BUSHDIME
 62
     7
  6
CONTINUOUS
 10
10.241698
 20
-0.000231
 30
0.000000
 11
10.241698
 21
-0.812731
 31
0.000000
  0
POINT
  8
BUSHDIME
 62
     7
 10
11.367019
 20
0.702877
 30
0.000000
  0
POINT
  8
BUSHDIME
 62
     7
 10
11.367019
 20
0.702877
 30
0.000000
  0
POINT
  8
BUSHDIME
 62
     7
 10
11.367027
 20
0.702877
 30
0.000000
  0
POINT
  8
BUSHDIME
 62
     7
 10
11.367027
 20
0.702877
 30
0.000000
  0
POINT
  8
BUSHDIME
 62
     7
 10
10.240558
 20
0.703796
 30
0.000000
  0
POINT
  8
BUSHDIME
 62
     7
 10
10.365558
 20
0.703796
 30
0.000000
  0
POINT
  8
BUSHDIME
 62
     7
 10
10.490558
 20
0.703796
 30
0.000000
  0
POINT
  8
BUSHDIME
 62
     7
 10
10.490558
 20
0.703796
 30
0.000000
  0
LINE
  8
BUSHDIME
 62
     7
  6
CONTINUOUS
 10
10.365558
 20
0.703796
 30
0.000000
 11
10.365558
 21
0.758496
 31
0.000000
  0
LINE
  8
BUSHDIME
 62
     7
  6
CONTINUOUS
 10
10.365558
 20
0.703796
 30
0.000000
 11
10.365558
 21
0.649096
 31
0.000000
  0
LINE
  8
BUSHDIME
 62
     7
  6
CONTINUOUS
 10
10.490558
 20
0.703796
 30
0.000000
 11
10.490558
 21
0.790183
 31
0.000000
  0
LINE
  8
BUSHDIME
 62
     7
  6
CONTINUOUS
 10
10.490558
 20
0.703796
 30
0.000000
 11
10.490558
 21
0.617410
 31
0.000000
  0
POINT
  8
BUSHDIME
 62
     7
 10
10.740558
 20
0.703796
 30
0.000000
  0
POINT
  8
BUSHDIME
 62
     7
 10
10.615558
 20
0.703796
 30
0.000000
  0
POINT
  8
BUSHDIME
 62
     7
 10
10.615558
 20
0.703796
 30
0.000000
  0
LINE
  8
BUSHDIME
 62
     7
  6
CONTINUOUS
 10
10.615558
 20
0.703796
 30
0.000000
 11
10.615558
 21
0.758496
 31
0.000000
  0
LINE
  8
BUSHDIME
 62
     7
  6
CONTINUOUS
 10
10.615558
 20
0.703796
 30
0.000000
 11
10.615558
 21
0.649096
 31
0.000000
  0
POINT
  8
BUSHDIME
 62
     7
 10
10.865558
 20
0.703796
 30
0.000000
  0
LINE
  8
BUSHDIME
 62
     7
  6
CONTINUOUS
 10
10.865558
 20
0.703796
 30
0.000000
 11
10.865558
 21
0.758496
 31
0.000000
  0
LINE
  8
BUSHDIME
 62
     7
  6
CONTINUOUS
 10
10.865558
 20
0.703796
 30
0.000000
 11
10.865558
 21
0.649096
 31
0.000000
  0
POINT
  8
BUSHDIME
 62
     7
 10
11.115558
 20
0.703796
 30
0.000000
  0
LINE
  8
BUSHDIME
 62
     7
  6
CONTINUOUS
 10
11.115558
 20
0.703796
 30
0.000000
 11
11.115558
 21
0.758496
 31
0.000000
  0
LINE
  8
BUSHDIME
 62
     7
  6
CONTINUOUS
 10
11.115558
 20
0.703796
 30
0.000000
 11
11.115558
 21
0.649096
 31
0.000000
  0
POINT
  8
BUSHDIME
 62
     7
 10
11.365558
 20
0.703796
 30
0.000000
  0
LINE
  8
BUSHDIME
 62
     7
  6
CONTINUOUS
 10
11.365558
 20
0.703796
 30
0.000000
 11
11.365558
 21
0.758496
 31
0.000000
  0
LINE
  8
BUSHDIME
 62
     7
  6
CONTINUOUS
 10
11.365558
 20
0.703796
 30
0.000000
 11
11.365558
 21
0.649096
 31
0.000000
  0
POINT
  8
BUSHDIME
 62
     7
 10
10.740558
 20
0.703796
 30
0.000000
  0
POINT
  8
BUSHDIME
 62
     7
 10
10.740558
 20
0.703796
 30
0.000000
  0
LINE
  8
BUSHDIME
 62
     7
  6
CONTINUOUS
 10
10.740558
 20
0.703796
 30
0.000000
 11
10.740558
 21
0.790183
 31
0.000000
  0
LINE
  8
BUSHDIME
 62
     7
  6
CONTINUOUS
 10
10.740558
 20
0.703796
 30
0.000000
 11
10.740558
 21
0.617410
 31
0.000000
  0
POINT
  8
BUSHDIME
 62
     7
 10
10.990558
 20
0.703796
 30
0.000000
  0
POINT
  8
BUSHDIME
 62
     7
 10
10.990558
 20
0.703796
 30
0.000000
  0
LINE
  8
BUSHDIME
 62
     7
  6
CONTINUOUS
 10
10.990558
 20
0.703796
 30
0.000000
 11
10.990558
 21
0.790183
 31
0.000000
  0
LINE
  8
BUSHDIME
 62
     7
  6
CONTINUOUS
 10
10.990558
 20
0.703796
 30
0.000000
 11
10.990558
 21
0.617410
 31
0.000000
  0
POINT
  8
BUSHDIME
 62
     7
 10
11.240558
 20
0.703796
 30
0.000000
  0
POINT
  8
BUSHDIME
 62
     7
 10
11.240558
 20
0.703796
 30
0.000000
  0
LINE
  8
BUSHDIME
 62
     7
  6
CONTINUOUS
 10
11.240558
 20
0.703796
 30
0.000000
 11
11.240558
 21
0.790183
 31
0.000000
  0
LINE
  8
BUSHDIME
 62
     7
  6
CONTINUOUS
 10
11.240558
 20
0.703796
 30
0.000000
 11
11.240558
 21
0.617410
 31
0.000000
  0
POINT
  8
BUSHDIME
 62
     7
 10
10.241698
 20
-0.000231
 30
0.000000
  0
LINE
  8
BUSHDIME
 62
     7
  6
CONTINUOUS
 10
10.241698
 20
0.812269
 30
0.000000
 11
10.241698
 21
-0.000231
 31
0.000000
  0
LINE
  8
BUSHDIME
 62
     7
  6
CONTINUOUS
 10
11.491698
 20
-0.000231
 30
0.000000
 11
11.491698
 21
0.937269
 31
0.000000
  0
LINE
  8
BUSHDIME
 62
     7
  6
CONTINUOUS
 10
11.491698
 20
-0.000231
 30
0.000000
 11
11.491698
 21
-0.937731
 31
0.000000
  0
LINE
  8
BUSHDIME
 62
     7
  6
CONTINUOUS
 10
10.241698
 20
0.562260
 30
0.000000
 11
11.491698
 21
0.562260
 31
0.000000
  0
LINE
  8
BUSHDIME
 62
     7
  6
CONTINUOUS
 10
10.241698
 20
0.616927
 30
0.000000
 11
11.491698
 21
0.616927
 31
0.000000
  0
LINE
  8
BUSHDIME
 62
     7
  6
CONTINUOUS
 10
10.244205
 20
-0.562723
 30
0.000000
 11
11.491698
 21
-0.562723
 31
0.000000
  0
LINE
  8
BUSHDIME
 62
     7
  6
CONTINUOUS
 10
10.241698
 20
-0.812731
 30
0.000000
 11
11.491698
 21
-0.937731
 31
0.000000
  0
LINE
  8
BUSHDIME
 62
     7
  6
CONTINUOUS
 10
10.241698
 20
0.812269
 30
0.000000
 11
11.491698
 21
0.937269
 31
0.000000
  0
LINE
  8
BUSHDIME
 62
     7
  6
CONTINUOUS
 10
10.241698
 20
0.788827
 30
0.000000
 11
11.491698
 21
0.788827
 31
0.000000
  0
LINE
  8
BUSHDIME
 62
     7
  6
CONTINUOUS
 10
10.240558
 20
0.703796
 30
0.000000
 11
11.491698
 21
0.703796
 31
0.000000
  0
LINE
  8
BUSHDIME
 62
     7
  6
CONTINUOUS
 10
10.241698
 20
1.344544
 30
0.000000
 11
10.349952
 21
1.407044
 31
0.000000
  0
LINE
  8
BUSHDIME
 62
     7
  6
CONTINUOUS
 10
10.241698
 20
1.344544
 30
0.000000
 11
10.349952
 21
1.282044
 31
0.000000
  0
LINE
  8
BUSHDIME
 62
     7
  6
CONTINUOUS
 10
11.491698
 20
1.344544
 30
0.000000
 11
11.383444
 21
1.282044
 31
0.000000
  0
LINE
  8
BUSHDIME
 62
     7
  6
CONTINUOUS
 10
11.491698
 20
1.344544
 30
0.000000
 11
11.383444
 21
1.407044
 31
0.000000
  0
LINE
  8
BUSHDIME
 62
     7
  6
CONTINUOUS
 10
10.241698
 20
0.874769
 30
0.000000
 11
10.241698
 21
1.594544
 31
0.000000
  0
LINE
  8
BUSHDIME
 62
     7
  6
CONTINUOUS
 10
11.491698
 20
0.999769
 30
0.000000
 11
11.491698
 21
1.594544
 31
0.000000
  0
TEXT
  8
BUSHDIME
 62
     7
 10
10.491262
 20
1.281971
 30
0.000000
 40
0.125000
  1
1 1/4"
  0
LINE
  8
BUSHDIME
 62
     7
  6
CONTINUOUS
 10
10.241698
 20
1.344544
 30
0.000000
 11
10.460012
 21
1.344544
 31
0.000000
  0
LINE
  8
BUSHDIME
 62
     7
  6
CONTINUOUS
 10
11.273384
 20
1.344544
 30
0.000000
 11
11.491698
 21
1.344544
 31
0.000000
  0
LINE
  8
BUSHDIME
 62
     7
  6
CONTINUOUS
 10
11.939253
 20
-0.562723
 30
0.000000
 11
11.876753
 21
-0.454469
 31
0.000000
  0
LINE
  8
BUSHDIME
 62
     7
  6
CONTINUOUS
 10
11.939253
 20
-0.562723
 30
0.000000
 11
12.001753
 21
-0.454469
 31
0.000000
  0
LINE
  8
BUSHDIME
 62
     7
  6
CONTINUOUS
 10
11.939253
 20
0.562260
 30
0.000000
 11
12.001753
 21
0.454007
 31
0.000000
  0
LINE
  8
BUSHDIME
 62
     7
  6
CONTINUOUS
 10
11.939253
 20
0.562260
 30
0.000000
 11
11.876753
 21
0.454007
 31
0.000000
  0
LINE
  8
BUSHDIME
 62
     7
  6
CONTINUOUS
 10
11.554198
 20
-0.562723
 30
0.000000
 11
12.189253
 21
-0.562723
 31
0.000000
  0
LINE
  8
BUSHDIME
 62
     7
  6
CONTINUOUS
 10
11.554198
 20
0.562260
 30
0.000000
 11
12.189253
 21
0.562260
 31
0.000000
  0
TEXT
  8
BUSHDIME
 62
     7
 10
11.561804
 20
-0.212560
 30
0.000000
 40
0.125000
  1
1 1/8"
  0
LINE
  8
BUSHDIME
 62
     7
  6
CONTINUOUS
 10
11.939253
 20
-0.562723
 30
0.000000
 11
11.939253
 21
-0.243810
 31
0.000000
  0
LINE
  8
BUSHDIME
 62
     7
  6
CONTINUOUS
 10
11.939253
 20
-0.055494
 30
0.000000
 11
11.939253
 21
0.562260
 31
0.000000
  0
LINE
  8
BUSHDIME
 62
     7
  6
CONTINUOUS
 10
12.534312
 20
-0.937731
 30
0.000000
 11
12.471812
 21
-0.829478
 31
0.000000
  0
LINE
  8
BUSHDIME
 62
     7
  6
CONTINUOUS
 10
12.534312
 20
-0.937731
 30
0.000000
 11
12.596812
 21
-0.829478
 31
0.000000
  0
LINE
  8
BUSHDIME
 62
     7
  6
CONTINUOUS
 10
12.534312
 20
0.937269
 30
0.000000
 11
12.596812
 21
0.829016
 31
0.000000
  0
LINE
  8
BUSHDIME
 62
     7
  6
CONTINUOUS
 10
12.534312
 20
0.937269
 30
0.000000
 11
12.471812
 21
0.829016
 31
0.000000
  0
LINE
  8
BUSHDIME
 62
     7
  6
CONTINUOUS
 10
11.554198
 20
-0.937731
 30
0.000000
 11
12.784312
 21
-0.937731
 31
0.000000
  0
LINE
  8
BUSHDIME
 62
     7
  6
CONTINUOUS
 10
11.554198
 20
0.937269
 30
0.000000
 11
12.784312
 21
0.937269
 31
0.000000
  0
TEXT
  8
BUSHDIME
 62
     7
 10
12.156863
 20
0.123633
 30
0.000000
 40
0.125000
  1
1 7/8"
  0
LINE
  8
BUSHDIME
 62
     7
  6
CONTINUOUS
 10
12.534312
 20
-0.937731
 30
0.000000
 11
12.534312
 21
0.092384
 31
0.000000
  0
LINE
  8
BUSHDIME
 62
     7
  6
CONTINUOUS
 10
12.534312
 20
0.280700
 30
0.000000
 11
12.534312
 21
0.937269
 31
0.000000
  0
LINE
  8
BUSHDIME
 62
     7
  6
CONTINUOUS
 10
10.471446
 20
-0.840719
 30
0.000000
 11
10.585008
 21
-0.892955
 31
0.000000
  0
LINE
  8
BUSHDIME
 62
     7
  6
CONTINUOUS
 10
10.471446
 20
-0.840719
 30
0.000000
 11
10.482989
 21
-0.965185
 31
0.000000
  0
LINE
  8
BUSHDIME
 62
     7
  6
CONTINUOUS
 10
10.471446
 20
-0.840719
 30
0.000000
 11
10.973939
 21
-1.550461
 31
0.000000
  0
LINE
  8
BUSHDIME
 62
     7
  6
CONTINUOUS
 10
10.973939
 20
-1.550461
 30
0.000000
 11
11.098939
 21
-1.550461
 31
0.000000
  0
TEXT
  8
BUSHDIME
 62
     7
 10
11.161439
 20
-1.612961
 30
0.000000
 40
0.125000
  1
2.500TPF
  0
LINE
  8
BUSHDIME
 62
     7
  6
CONTINUOUS
 10
9.857128
 20
-0.812731
 30
0.000000
 11
9.794628
 21
-0.704478
 31
0.000000
  0
LINE
  8
BUSHDIME
 62
     7
  6
CONTINUOUS
 10
9.857128
 20
-0.812731
 30
0.000000
 11
9.919628
 21
-0.704478
 31
0.000000
  0
LINE
  8
BUSHDIME
 62
     7
  6
CONTINUOUS
 10
9.857128
 20
0.812269
 30
0.000000
 11
9.919628
 21
0.704016
 31
0.000000
  0
LINE
  8
BUSHDIME
 62
     7
  6
CONTINUOUS
 10
9.857128
 20
0.812269
 30
0.000000
 11
9.794628
 21
0.704016
 31
0.000000
  0
LINE
  8
BUSHDIME
 62
     7
  6
CONTINUOUS
 10
10.179198
 20
-0.812731
 30
0.000000
 11
9.607128
 21
-0.812731
 31
0.000000
  0
LINE
  8
BUSHDIME
 62
     7
  6
CONTINUOUS
 10
10.179198
 20
0.812269
 30
0.000000
 11
9.607128
 21
0.812269
 31
0.000000
  0
TEXT
  8
BUSHDIME
 62
     7
 10
9.478980
 20
0.160872
 30
0.000000
 40
0.125000
  1
1 5/8"
  0
LINE
  8
BUSHDIME
 62
     7
  6
CONTINUOUS
 10
9.857128
 20
-0.812731
 30
0.000000
 11
9.857128
 21
0.129622
 31
0.000000
  0
LINE
  8
BUSHDIME
 62
     7
  6
CONTINUOUS
 10
9.857128
 20
0.318171
 30
0.000000
 11
9.857128
 21
0.812269
 31
0.000000
  0
LINE
  8
CNTRLINE
 62
     7
  6
CONTINUOUS
 10
-2.907319
 20
-0.000000
 30
0.000000
 11
13.184698
 21
0.000002
 31
0.000000
  0
TEXT
  8
DIEM
 62
     7
 10
7.956116
 20
4.013429
 30
0.000000
 40
0.125000
  1
NOTE A-- TAP 10/24 x 1" DEEP
  0
TEXT
  8
DIEM
 62
     7
 10
7.956116
 20
3.825928
 30
0.000000
 40
0.125000
  1
NOTE B-- DRILL 13/64" COUNTERBORE 23/64" x 13/64" DEEP
  0
LINE
  8
DIEM
 62
     7
  6
CONTINUOUS
 10
0.000000
 20
2.159547
 30
0.000000
 11
-0.108253
 21
2.097047
 31
0.000000
  0
LINE
  8
DIEM
 62
     7
  6
CONTINUOUS
 10
0.000000
 20
2.159547
 30
0.000000
 11
-0.108253
 21
2.222047
 31
0.000000
  0
LINE
  8
DIEM
 62
     7
  6
CONTINUOUS
 10
-1.527030
 20
1.527031
 30
0.000000
 11
-1.494678
 21
1.647772
 31
0.000000
  0
LINE
  8
DIEM
 62
     7
  6
CONTINUOUS
 10
-1.527030
 20
1.527031
 30
0.000000
 11
-1.406289
 21
1.559383
 31
0.000000
  0
LINE
  8
DIEM
 62
     7
  6
CONTINUOUS
 10
0.000000
 20
1.495499
 30
0.000000
 11
0.000000
 21
2.409547
 31
0.000000
  0
LINE
  8
DIEM
 62
     7
  6
CONTINUOUS
 10
-1.057477
 20
1.057478
 30
0.000000
 11
-1.703807
 21
1.703808
 31
0.000000
  0
TEXT
  8
DIEM
 62
     7
 10
-0.952008
 20
1.932355
 30
0.000000
 40
0.125000
  1
45¦
  0
ARC
  8
DIEM
 62
     7
  6
CONTINUOUS
 10
0.000000
 20
-0.000000
 30
0.000000
 40
2.159548
 50
90.000000
 51
108.062779
  0
ARC
  8
DIEM
 62
     7
  6
CONTINUOUS
 10
0.000000
 20
-0.000000
 30
0.000000
 40
2.159548
 50
117.084731
 51
134.999980
  0
LINE
  8
DIEM
 62
     7
  6
CONTINUOUS
 10
-1.532718
 20
1.532719
 30
0.000000
 11
-1.565071
 21
1.411978
 31
0.000000
  0
LINE
  8
DIEM
 62
     7
  6
CONTINUOUS
 10
-1.532718
 20
1.532719
 30
0.000000
 11
-1.653459
 21
1.500367
 31
0.000000
  0
LINE
  8
DIEM
 62
     7
  6
CONTINUOUS
 10
-2.159343
 20
-0.188918
 30
0.000000
 11
-2.231040
 21
-0.086524
 31
0.000000
  0
LINE
  8
DIEM
 62
     7
  6
CONTINUOUS
 10
-2.159343
 20
-0.188918
 30
0.000000
 11
-2.106516
 21
-0.075630
 31
0.000000
  0
LINE
  8
DIEM
 62
     7
  6
CONTINUOUS
 10
-1.057477
 20
1.057478
 30
0.000000
 11
-1.709495
 21
1.709496
 31
0.000000
  0
LINE
  8
DIEM
 62
     7
  6
CONTINUOUS
 10
-1.489808
 20
-0.130342
 30
0.000000
 11
-2.408392
 21
-0.210707
 31
0.000000
  0
TEXT
  8
DIEM
 62
     7
 10
-2.161685
 20
0.678530
 30
0.000000
 40
0.125000
  1
50¦
  0
ARC
  8
DIEM
 62
     7
  6
CONTINUOUS
 10
0.000000
 20
-0.000000
 30
0.000000
 40
2.167592
 50
134.999980
 51
157.329969
  0
ARC
  8
DIEM
 62
     7
  6
CONTINUOUS
 10
0.000000
 20
-0.000000
 30
0.000000
 40
2.167592
 50
162.625435
 51
185.000001
  0
LINE
  8
DIEM
 62
     7
  6
CONTINUOUS
 10
-2.162153
 20
-0.189164
 30
0.000000
 11
-2.090456
 21
-0.291558
 31
0.000000
  0
LINE
  8
DIEM
 62
     7
  6
CONTINUOUS
 10
-2.162153
 20
-0.189164
 30
0.000000
 11
-2.214981
 21
-0.302453
 31
0.000000
  0
LINE
  8
DIEM
 62
     7
  6
CONTINUOUS
 10
-1.395114
 20
-1.662633
 30
0.000000
 11
-1.518215
 21
-1.640927
 31
0.000000
  0
LINE
  8
DIEM
 62
     7
  6
CONTINUOUS
 10
-1.395114
 20
-1.662633
 30
0.000000
 11
-1.437866
 21
-1.545171
 31
0.000000
  0
LINE
  8
DIEM
 62
     7
  6
CONTINUOUS
 10
-1.489808
 20
-0.130342
 30
0.000000
 11
-2.411202
 21
-0.210953
 31
0.000000
  0
LINE
  8
DIEM
 62
     7
  6
CONTINUOUS
 10
-0.961288
 20
-1.145619
 30
0.000000
 11
-1.555811
 21
-1.854144
 31
0.000000
  0
TEXT
  8
DIEM
 62
     7
 10
-2.050765
 20
-1.064992
 30
0.000000
 40
0.125000
  1
45¦
  0
ARC
  8
DIEM
 62
     7
  6
CONTINUOUS
 10
0.000000
 20
-0.000000
 30
0.000000
 40
2.170413
 50
185.000001
 51
204.734430
  0
ARC
  8
DIEM
 62
     7
  6
CONTINUOUS
 10
0.000000
 20
-0.000000
 30
0.000000
 40
2.170413
 50
210.336957
 51
230.000008
  0
LINE
  8
DIEM
 62
     7
  6
CONTINUOUS
 10
-1.386244
 20
-1.652063
 30
0.000000
 11
-1.263143
 21
-1.673769
 31
0.000000
  0
LINE
  8
DIEM
 62
     7
  6
CONTINUOUS
 10
-1.386244
 20
-1.652063
 30
0.000000
 11
-1.343492
 21
-1.769524
 31
0.000000
  0
LINE
  8
DIEM
 62
     7
  6
CONTINUOUS
 10
0.187962
 20
-2.148408
 30
0.000000
 11
0.085568
 21
-2.220105
 31
0.000000
  0
LINE
  8
DIEM
 62
     7
  6
CONTINUOUS
 10
0.187962
 20
-2.148408
 30
0.000000
 11
0.074673
 21
-2.095581
 31
0.000000
  0
LINE
  8
DIEM
 62
     7
  6
CONTINUOUS
 10
-0.961288
 20
-1.145619
 30
0.000000
 11
-1.546941
 21
-1.843574
 31
0.000000
  0
LINE
  8
DIEM
 62
     7
  6
CONTINUOUS
 10
0.130342
 20
-1.489809
 30
0.000000
 11
0.209751
 21
-2.397457
 31
0.000000
  0
TEXT
  8
DIEM
 62
     7
 10
-0.774092
 20
-2.119606
 30
0.000000
 40
0.125000
  1
45¦
  0
ARC
  8
DIEM
 62
     7
  6
CONTINUOUS
 10
0.000000
 20
-0.000000
 30
0.000000
 40
2.156614
 50
230.000008
 51
248.072757
  0
ARC
  8
DIEM
 62
     7
  6
CONTINUOUS
 10
0.000000
 20
-0.000000
 30
0.000000
 40
2.156614
 50
256.821675
 51
275.000001
  0
LINE
  8
DIEM
 62
     7
  6
CONTINUOUS
 10
1.668810
 20
-1.400298
 30
0.000000
 11
1.690516
 21
-1.277197
 31
0.000000
  0
LINE
  8
DIEM
 62
     7
  6
CONTINUOUS
 10
1.668810
 20
-1.400298
 30
0.000000
 11
1.786271
 21
-1.357545
 31
0.000000
  0
LINE
  8
DIEM
 62
     7
  6
CONTINUOUS
 10
2.170186
 20
0.189868
 30
0.000000
 11
2.241884
 21
0.087474
 31
0.000000
  0
LINE
  8
DIEM
 62
     7
  6
CONTINUOUS
 10
2.170186
 20
0.189868
 30
0.000000
 11
2.117359
 21
0.076579
 31
0.000000
  0
LINE
  8
DIEM
 62
     7
  6
CONTINUOUS
 10
1.145619
 20
-0.961289
 30
0.000000
 11
1.860321
 21
-1.560994
 31
0.000000
  0
LINE
  8
DIEM
 62
     7
  6
CONTINUOUS
 10
1.489809
 20
0.130342
 30
0.000000
 11
2.419235
 21
0.211657
 31
0.000000
  0
TEXT
  8
DIEM
 62
     7
 10
1.952064
 20
-0.717886
 30
0.000000
 40
0.125000
  1
45¦
  0
ARC
  8
DIEM
 62
     7
  6
CONTINUOUS
 10
0.000000
 20
-0.000000
 30
0.000000
 40
2.178476
 50
320.000006
 51
339.886512
  0
ARC
  8
DIEM
 62
     7
  6
CONTINUOUS
 10
0.000000
 20
-0.000000
 30
0.000000
 40
2.178476
 50
345.076443
 51
365.000038
  0
LINE
  8
DIEM
 62
     7
  6
CONTINUOUS
 10
2.184313
 20
0.191104
 30
0.000000
 11
2.112616
 21
0.293498
 31
0.000000
  0
LINE
  8
DIEM
 62
     7
  6
CONTINUOUS
 10
2.184313
 20
0.191104
 30
0.000000
 11
2.237140
 21
0.304392
 31
0.000000
  0
LINE
  8
DIEM
 62
     7
  6
CONTINUOUS
 10
1.409413
 20
1.679671
 30
0.000000
 11
1.532514
 21
1.657965
 31
0.000000
  0
LINE
  8
DIEM
 62
     7
  6
CONTINUOUS
 10
1.409413
 20
1.679671
 30
0.000000
 11
1.452166
 21
1.562210
 31
0.000000
  0
LINE
  8
DIEM
 62
     7
  6
CONTINUOUS
 10
1.489809
 20
0.130342
 30
0.000000
 11
2.433362
 21
0.212893
 31
0.000000
  0
LINE
  8
DIEM
 62
     7
  6
CONTINUOUS
 10
0.961289
 20
1.145619
 30
0.000000
 11
1.570110
 21
1.871182
 31
0.000000
  0
TEXT
  8
DIEM
 62
     7
 10
1.819324
 20
0.949649
 30
0.000000
 40
0.125000
  1
45¦
  0
ARC
  8
DIEM
 62
     7
  6
CONTINUOUS
 10
0.000000
 20
-0.000000
 30
0.000000
 40
2.192657
 50
5.000038
 51
24.762170
  0
ARC
  8
DIEM
 62
     7
  6
CONTINUOUS
 10
0.000000
 20
-0.000000
 30
0.000000
 40
2.192657
 50
30.307779
 51
49.999977
  0
LINE
  8
DIEM
 62
     7
  6
CONTINUOUS
 10
1.402780
 20
1.671767
 30
0.000000
 11
1.279679
 21
1.693473
 31
0.000000
  0
LINE
  8
DIEM
 62
     7
  6
CONTINUOUS
 10
1.402780
 20
1.671767
 30
0.000000
 11
1.360028
 21
1.789228
 31
0.000000
  0
LINE
  8
DIEM
 62
     7
  6
CONTINUOUS
 10
0.000000
 20
2.182337
 30
0.000000
 11
0.108253
 21
2.244837
 31
0.000000
  0
LINE
  8
DIEM
 62
     7
  6
CONTINUOUS
 10
0.000000
 20
2.182337
 30
0.000000
 11
0.108253
 21
2.119837
 31
0.000000
  0
LINE
  8
DIEM
 62
     7
  6
CONTINUOUS
 10
0.961289
 20
1.145619
 30
0.000000
 11
1.563477
 21
1.863278
 31
0.000000
  0
LINE
  8
DIEM
 62
     7
  6
CONTINUOUS
 10
0.000000
 20
1.495499
 30
0.000000
 11
0.000000
 21
2.432337
 31
0.000000
  0
TEXT
  8
DIEM
 62
     7
 10
0.615707
 20
1.988002
 30
0.000000
 40
0.125000
  1
40¦
  0
ARC
  8
DIEM
 62
     7
  6
CONTINUOUS
 10
0.000000
 20
-0.000000
 30
0.000000
 40
2.182338
 50
49.999977
 51
65.403287
  0
ARC
  8
DIEM
 62
     7
  6
CONTINUOUS
 10
0.000000
 20
-0.000000
 30
0.000000
 40
2.182338
 50
74.465889
 51
90.000000
  0
LINE
  8
DIEM
 62
     7
  6
CONTINUOUS
 10
0.190127
 20
-2.173162
 30
0.000000
 11
0.292521
 21
-2.101465
 31
0.000000
  0
LINE
  8
DIEM
 62
     7
  6
CONTINUOUS
 10
0.190127
 20
-2.173162
 30
0.000000
 11
0.303416
 21
-2.225989
 31
0.000000
  0
LINE
  8
DIEM
 62
     7
  6
CONTINUOUS
 10
1.671098
 20
-1.402217
 30
0.000000
 11
1.649392
 21
-1.525318
 31
0.000000
  0
LINE
  8
DIEM
 62
     7
  6
CONTINUOUS
 10
1.671098
 20
-1.402217
 30
0.000000
 11
1.553636
 21
-1.444970
 31
0.000000
  0
LINE
  8
DIEM
 62
     7
  6
CONTINUOUS
 10
0.130342
 20
-1.489809
 30
0.000000
 11
0.211916
 21
-2.422211
 31
0.000000
  0
LINE
  8
DIEM
 62
     7
  6
CONTINUOUS
 10
1.145619
 20
-0.961289
 30
0.000000
 11
1.862609
 21
-1.562914
 31
0.000000
  0
TEXT
  8
DIEM
 62
     7
 10
1.268540
 20
-1.740661
 30
0.000000
 40
0.125000
  1
45¦
  0
ARC
  8
DIEM
 62
     7
  6
CONTINUOUS
 10
0.000000
 20
-0.000000
 30
0.000000
 40
2.181463
 50
275.000001
 51
305.682862
  0
ARC
  8
DIEM
 62
     7
  6
CONTINUOUS
 10
0.000000
 20
-0.000000
 30
0.000000
 40
2.181463
 50
313.445768
 51
320.000006
  0
LINE
  8
DIEM
 62
     7
  6
CONTINUOUS
 10
-0.725532
 20
-0.145561
 30
0.000000
 11
-0.812372
 21
-0.235471
 31
0.000000
  0
LINE
  8
DIEM
 62
     7
  6
CONTINUOUS
 10
-0.725532
 20
-0.145561
 30
0.000000
 11
-0.846816
 21
-0.115310
 31
0.000000
  0
LINE
  8
DIEM
 62
     7
  6
CONTINUOUS
 10
-0.725532
 20
-0.145561
 30
0.000000
 11
-2.333865
 21
-0.606594
 31
0.000000
  0
LINE
  8
DIEM
 62
     7
  6
CONTINUOUS
 10
-2.333865
 20
-0.606594
 30
0.000000
 11
-1.833865
 21
-0.606594
 31
0.000000
  0
TEXT
  8
DIEM
 62
     7
 10
-1.771365
 20
-0.669094
 30
0.000000
 40
0.125000
  1
SEE NOTE B
  0
LINE
  8
DIEM
 62
     7
  6
CONTINUOUS
 10
0.696993
 20
-2.298902
 30
0.000000
 11
0.759493
 21
-2.298902
 31
0.000000
  0
LINE
  8
DIEM
 62
     7
  6
CONTINUOUS
 10
0.416791
 20
-1.374707
 30
0.000000
 11
0.325571
 21
-1.289245
 31
0.000000
  0
LINE
  8
DIEM
 62
     7
  6
CONTINUOUS
 10
0.416791
 20
-1.374707
 30
0.000000
 11
0.445194
 21
-1.252977
 31
0.000000
  0
LINE
  8
DIEM
 62
     7
  6
CONTINUOUS
 10
-0.416791
 20
1.374707
 30
0.000000
 11
-0.325570
 21
1.289244
 31
0.000000
  0
LINE
  8
DIEM
 62
     7
  6
CONTINUOUS
 10
-0.416791
 20
1.374707
 30
0.000000
 11
-0.445193
 21
1.252976
 31
0.000000
  0
TEXT
  8
DIEM
 62
     7
 10
0.790743
 20
-2.361810
 30
0.000000
 40
0.125000
  1
2.873"
  0
LINE
  8
DIEM
 62
     7
  6
CONTINUOUS
 10
-0.416791
 20
1.374707
 30
0.000000
 11
0.696993
 21
-2.298902
 31
0.000000
  0
TEXT
  8
DIEM
 62
     7
 10
0.821993
 20
-2.548902
 30
0.000000
 40
0.125000
  1
BOLT
  0
TEXT
  8
DIEM
 62
     7
 10
0.821993
 20
-2.736401
 30
0.000000
 40
0.125000
  1
CIRCLE
  0
TEXT
  8
DIEM
 62
     7
 10
1.421356
 20
-2.162835
 30
0.000000
 40
0.125000
  1
BOLT
  0
TEXT
  8
DIEM
 62
     7
 10
1.421356
 20
-2.350335
 30
0.000000
 40
0.125000
  1
CIRCLE
  0
LINE
  8
CNTRLINE
 62
     7
  6
CONTINUOUS
 10
0.000000
 20
-3.831544
 30
0.000000
 11
0.000000
 21
6.168456
 31
0.000000
  0
LINE
  8
DIEM
 62
     7
  6
CONTINUOUS
 10
5.643515
 20
-0.375000
 30
0.000000
 11
5.581015
 21
-0.266747
 31
0.000000
  0
LINE
  8
DIEM
 62
     7
  6
CONTINUOUS
 10
5.643515
 20
-0.375000
 30
0.000000
 11
5.706015
 21
-0.266747
 31
0.000000
  0
LINE
  8
DIEM
 62
     7
  6
CONTINUOUS
 10
5.643515
 20
0.375000
 30
0.000000
 11
5.706015
 21
0.266746
 31
0.000000
  0
LINE
  8
DIEM
 62
     7
  6
CONTINUOUS
 10
5.643515
 20
0.375000
 30
0.000000
 11
5.581015
 21
0.266746
 31
0.000000
  0
LINE
  8
DIEM
 62
     7
  6
CONTINUOUS
 10
5.412018
 20
-0.375000
 30
0.000000
 11
5.893515
 21
-0.375000
 31
0.000000
  0
LINE
  8
DIEM
 62
     7
  6
CONTINUOUS
 10
5.412018
 20
0.375000
 30
0.000000
 11
5.893515
 21
0.375000
 31
0.000000
  0
TEXT
  8
DIEM
 62
     7
 10
5.474286
 20
-0.062573
 30
0.000000
 40
0.125000
  1
3/4"
  0
LINE
  8
DIEM
 62
     7
  6
CONTINUOUS
 10
5.643515
 20
-0.375000
 30
0.000000
 11
5.643515
 21
-0.093823
 31
0.000000
  0
LINE
  8
DIEM
 62
     7
  6
CONTINUOUS
 10
5.643515
 20
0.093822
 30
0.000000
 11
5.643515
 21
0.375000
 31
0.000000
  0
LINE
  8
DIEM
 62
     7
  6
CONTINUOUS
 10
10.240558
 20
0.703796
 30
0.000000
 11
10.149045
 21
0.788946
 31
0.000000
  0
LINE
  8
DIEM
 62
     7
  6
CONTINUOUS
 10
10.240558
 20
0.703796
 30
0.000000
 11
10.268543
 21
0.825623
 31
0.000000
  0
LINE
  8
DIEM
 62
     7
  6
CONTINUOUS
 10
10.240558
 20
0.703796
 30
0.000000
 11
9.918181
 21
1.754125
 31
0.000000
  0
LINE
  8
DIEM
 62
     7
  6
CONTINUOUS
 10
9.918181
 20
1.754125
 30
0.000000
 11
10.418181
 21
1.754125
 31
0.000000
  0
TEXT
  8
DIEM
 62
     7
 10
10.480681
 20
1.691625
 30
0.000000
 40
0.125000
  1
SEE NOTE A
  0
LINE
  8
DIEM
 62
     7
  6
CONTINUOUS
 10
4.422018
 20
-1.190117
 30
0.000000
 11
4.313765
 21
-1.252617
 31
0.000000
  0
LINE
  8
DIEM
 62
     7
  6
CONTINUOUS
 10
4.422018
 20
-1.190117
 30
0.000000
 11
4.313765
 21
-1.127617
 31
0.000000
  0
LINE
  8
DIEM
 62
     7
  6
CONTINUOUS
 10
4.610018
 20
-1.190117
 30
0.000000
 11
4.718271
 21
-1.127617
 31
0.000000
  0
LINE
  8
DIEM
 62
     7
  6
CONTINUOUS
 10
4.610018
 20
-1.190117
 30
0.000000
 11
4.718271
 21
-1.252617
 31
0.000000
  0
LINE
  8
DIEM
 62
     7
  6
CONTINUOUS
 10
4.422018
 20
-1.007500
 30
0.000000
 11
4.422018
 21
-1.440117
 31
0.000000
  0
LINE
  8
DIEM
 62
     7
  6
CONTINUOUS
 10
4.610018
 20
-1.007500
 30
0.000000
 11
4.610018
 21
-1.440117
 31
0.000000
  0
TEXT
  8
DIEM
 62
     7
 10
3.754837
 20
-1.252838
 30
0.000000
 40
0.125000
  1
3/16"
  0
LINE
  8
DIEM
 62
     7
  6
CONTINUOUS
 10
4.422018
 20
-1.190117
 30
0.000000
 11
4.172018
 21
-1.190117
 31
0.000000
  0
LINE
  8
DIEM
 62
     7
  6
CONTINUOUS
 10
4.610018
 20
-1.190117
 30
0.000000
 11
4.860018
 21
-1.190117
 31
0.000000
  0
LINE
  8
DIEM
 62
     7
  6
CONTINUOUS
 10
4.610018
 20
-2.109643
 30
0.000000
 11
4.718271
 21
-2.047143
 31
0.000000
  0
LINE
  8
DIEM
 62
     7
  6
CONTINUOUS
 10
4.610018
 20
-2.109643
 30
0.000000
 11
4.718271
 21
-2.172143
 31
0.000000
  0
LINE
  8
DIEM
 62
     7
  6
CONTINUOUS
 10
5.235018
 20
-2.109643
 30
0.000000
 11
5.126765
 21
-2.172143
 31
0.000000
  0
LINE
  8
DIEM
 62
     7
  6
CONTINUOUS
 10
5.235018
 20
-2.109643
 30
0.000000
 11
5.126765
 21
-2.047143
 31
0.000000
  0
LINE
  8
DIEM
 62
     7
  6
CONTINUOUS
 10
4.610018
 20
-2.000000
 30
0.000000
 11
4.610018
 21
-2.359643
 31
0.000000
  0
LINE
  8
DIEM
 62
     7
  6
CONTINUOUS
 10
5.235018
 20
-2.000000
 30
0.000000
 11
5.235018
 21
-2.359643
 31
0.000000
  0
TEXT
  8
DIEM
 62
     7
 10
4.763311
 20
-2.172668
 30
0.000000
 40
0.125000
  1
5/8"
  0
LINE
  8
DIEM
 62
     7
  6
CONTINUOUS
 10
4.610018
 20
-2.109643
 30
0.000000
 11
4.732060
 21
-2.109643
 31
0.000000
  0
LINE
  8
DIEM
 62
     7
  6
CONTINUOUS
 10
5.112976
 20
-2.109643
 30
0.000000
 11
5.235018
 21
-2.109643
 31
0.000000
  0
LINE
  8
DIEM
 62
     7
  6
CONTINUOUS
 10
5.235018
 20
-2.109643
 30
0.000000
 11
5.343271
 21
-2.047143
 31
0.000000
  0
LINE
  8
DIEM
 62
     7
  6
CONTINUOUS
 10
5.235018
 20
-2.109643
 30
0.000000
 11
5.343271
 21
-2.172143
 31
0.000000
  0
LINE
  8
DIEM
 62
     7
  6
CONTINUOUS
 10
6.741698
 20
-2.109643
 30
0.000000
 11
6.633445
 21
-2.172143
 31
0.000000
  0
LINE
  8
DIEM
 62
     7
  6
CONTINUOUS
 10
6.741698
 20
-2.109643
 30
0.000000
 11
6.633445
 21
-2.047143
 31
0.000000
  0
LINE
  8
DIEM
 62
     7
  6
CONTINUOUS
 10
5.235018
 20
-2.000000
 30
0.000000
 11
5.235018
 21
-2.359643
 31
0.000000
  0
LINE
  8
DIEM
 62
     7
  6
CONTINUOUS
 10
6.741698
 20
-1.187491
 30
0.000000
 11
6.741698
 21
-2.359643
 31
0.000000
  0
TEXT
  8
DIEM
 62
     7
 10
5.803904
 20
-2.172230
 30
0.000000
 40
0.125000
  1
1 1/2"
  0
LINE
  8
DIEM
 62
     7
  6
CONTINUOUS
 10
5.235018
 20
-2.109643
 30
0.000000
 11
5.772654
 21
-2.109643
 31
0.000000
  0
LINE
  8
DIEM
 62
     7
  6
CONTINUOUS
 10
6.204062
 20
-2.109643
 30
0.000000
 11
6.741698
 21
-2.109643
 31
0.000000
  0
LINE
  8
DIEM
 62
     7
  6
CONTINUOUS
 10
4.422018
 20
-2.634214
 30
0.000000
 11
4.530271
 21
-2.571714
 31
0.000000
  0
LINE
  8
DIEM
 62
     7
  6
CONTINUOUS
 10
4.422018
 20
-2.634214
 30
0.000000
 11
4.530271
 21
-2.696714
 31
0.000000
  0
LINE
  8
DIEM
 62
     7
  6
CONTINUOUS
 10
6.741698
 20
-2.634214
 30
0.000000
 11
6.633445
 21
-2.696714
 31
0.000000
  0
LINE
  8
DIEM
 62
     7
  6
CONTINUOUS
 10
6.741698
 20
-2.634214
 30
0.000000
 11
6.633445
 21
-2.571714
 31
0.000000
  0
LINE
  8
DIEM
 62
     7
  6
CONTINUOUS
 10
4.422018
 20
-1.007500
 30
0.000000
 11
4.422018
 21
-2.884214
 31
0.000000
  0
LINE
  8
DIEM
 62
     7
  6
CONTINUOUS
 10
6.741698
 20
-1.187491
 30
0.000000
 11
6.741698
 21
-2.884214
 31
0.000000
  0
TEXT
  8
DIEM
 62
     7
 10
5.308331
 20
-2.697020
 30
0.000000
 40
0.125000
  1
2 5/16"
  0
LINE
  8
DIEM
 62
     7
  6
CONTINUOUS
 10
4.422018
 20
-2.634214
 30
0.000000
 11
5.277081
 21
-2.634214
 31
0.000000
  0
LINE
  8
DIEM
 62
     7
  6
CONTINUOUS
 10
5.886636
 20
-2.634214
 30
0.000000
 11
6.741698
 21
-2.634214
 31
0.000000
  0
LINE
  8
DIEM
 62
     7
  6
CONTINUOUS
 10
4.526105
 20
-0.945000
 30
0.000000
 11
4.547597
 21
-1.068139
 31
0.000000
  0
LINE
  8
DIEM
 62
     7
  6
CONTINUOUS
 10
4.526105
 20
-0.945000
 30
0.000000
 11
4.430210
 21
-1.025182
 31
0.000000
  0
LINE
  8
DIEM
 62
     7
  6
CONTINUOUS
 10
4.526105
 20
-0.945000
 30
0.000000
 11
4.286230
 21
-1.600501
 31
0.000000
  0
LINE
  8
DIEM
 62
     7
  6
CONTINUOUS
 10
4.286230
 20
-1.600501
 30
0.000000
 11
3.786230
 21
-1.600501
 31
0.000000
  0
TEXT
  8
DIEM
 62
     7
 10
2.945066
 20
-1.663001
 30
0.000000
 40
0.125000
  1
LOCATING
  0
TEXT
  8
DIEM
 62
     7
 10
2.951305
 20
-1.850501
 30
0.000000
 40
0.125000
  1
PROJECTION
  0
LINE
  8
DIEM
 62
     7
  6
CONTINUOUS
 10
7.089764
 20
-1.124991
 30
0.000000
 11
7.027264
 21
-1.016737
 31
0.000000
  0
LINE
  8
DIEM
 62
     7
  6
CONTINUOUS
 10
7.089764
 20
-1.124991
 30
0.000000
 11
7.152264
 21
-1.016737
 31
0.000000
  0
LINE
  8
DIEM
 62
     7
  6
CONTINUOUS
 10
7.089764
 20
1.125000
 30
0.000000
 11
7.152264
 21
1.016746
 31
0.000000
  0
LINE
  8
DIEM
 62
     7
  6
CONTINUOUS
 10
7.089764
 20
1.125000
 30
0.000000
 11
7.027264
 21
1.016746
 31
0.000000
  0
LINE
  8
DIEM
 62
     7
  6
CONTINUOUS
 10
6.804198
 20
-1.124991
 30
0.000000
 11
7.339764
 21
-1.124991
 31
0.000000
  0
LINE
  8
DIEM
 62
     7
  6
CONTINUOUS
 10
6.804198
 20
1.125000
 30
0.000000
 11
7.339764
 21
1.125000
 31
0.000000
  0
TEXT
  8
DIEM
 62
     7
 10
6.864576
 20
-0.274517
 30
0.000000
 40
0.125000
  1
2 1/4"
  0
LINE
  8
DIEM
 62
     7
  6
CONTINUOUS
 10
7.089764
 20
-1.124991
 30
0.000000
 11
7.089764
 21
-0.305767
 31
0.000000
  0
LINE
  8
DIEM
 62
     7
  6
CONTINUOUS
 10
7.089764
 20
-0.118094
 30
0.000000
 11
7.089764
 21
1.125000
 31
0.000000
  0
LINE
  8
DIEM
 62
     7
  6
CONTINUOUS
 10
7.719435
 20
-1.937500
 30
0.000000
 11
7.656935
 21
-1.829247
 31
0.000000
  0
LINE
  8
DIEM
 62
     7
  6
CONTINUOUS
 10
7.719435
 20
-1.937500
 30
0.000000
 11
7.781935
 21
-1.829247
 31
0.000000
  0
LINE
  8
DIEM
 62
     7
  6
CONTINUOUS
 10
7.719435
 20
1.937501
 30
0.000000
 11
7.781935
 21
1.829247
 31
0.000000
  0
LINE
  8
DIEM
 62
     7
  6
CONTINUOUS
 10
7.719435
 20
1.937501
 30
0.000000
 11
7.656935
 21
1.829247
 31
0.000000
  0
LINE
  8
DIEM
 62
     7
  6
CONTINUOUS
 10
5.297518
 20
-1.937500
 30
0.000000
 11
7.969435
 21
-1.937500
 31
0.000000
  0
LINE
  8
DIEM
 62
     7
  6
CONTINUOUS
 10
5.297518
 20
1.937501
 30
0.000000
 11
7.969435
 21
1.937501
 31
0.000000
  0
TEXT
  8
DIEM
 62
     7
 10
7.466040
 20
0.234304
 30
0.000000
 40
0.125000
  1
3 7/8"
  0
LINE
  8
DIEM
 62
     7
  6
CONTINUOUS
 10
7.719435
 20
-1.937500
 30
0.000000
 11
7.719435
 21
0.203053
 31
0.000000
  0
LINE
  8
DIEM
 62
     7
  6
CONTINUOUS
 10
7.719435
 20
0.391369
 30
0.000000
 11
7.719435
 21
1.937501
 31
0.000000
  0
LINE
  8
DIEM
 62
     7
  6
CONTINUOUS
 10
5.859178
 20
0.849547
 30
0.000000
 11
5.964587
 21
0.782362
 31
0.000000
  0
LINE
  8
DIEM
 62
     7
  6
CONTINUOUS
 10
5.859178
 20
0.849547
 30
0.000000
 11
5.853698
 21
0.724667
 31
0.000000
  0
LINE
  8
DIEM
 62
     7
  6
CONTINUOUS
 10
5.859178
 20
0.849547
 30
0.000000
 11
7.599498
 21
-2.495357
 31
0.000000
  0
LINE
  8
DIEM
 62
     7
  6
CONTINUOUS
 10
7.599498
 20
-2.495357
 30
0.000000
 11
8.099498
 21
-2.495357
 31
0.000000
  0
TEXT
  8
DIEM
 62
     7
 10
8.161998
 20
-2.557857
 30
0.000000
 40
0.125000
  1
BORE TO SUIT BUSHING
  0
TEXT
  8
DIEM
 62
     7
 10
9.550919
 20
5.617823
 30
0.000000
 40
0.125000
  1
ELECTRO AUTOMOTIVE
  0
TEXT
  8
DIEM
 62
     7
 10
9.550919
 20
5.430324
 30
0.000000
 40
0.125000
  1
P.O. BOX 1113 FELTON CA. 95018-1113
  0
TEXT
  8
DIEM
 62
     7
 10
9.550919
 20
5.055323
 30
0.000000
 40
0.125000
  1
DRAWN BY MICHAEL P. BROWN
  0
LINE
  8
DIEM
 62
     7
  6
CONTINUOUS
 10
9.418173
 20
5.855319
 30
0.000000
 11
12.984623
 21
5.855319
 31
0.000000
  0
LINE
  8
DIEM
 62
     7
  6
CONTINUOUS
 10
12.984623
 20
5.855319
 30
0.000000
 11
12.984623
 21
4.955334
 31
0.000000
  0
LINE
  8
DIEM
 62
     7
  6
CONTINUOUS
 10
12.984623
 20
4.955334
 30
0.000000
 11
9.418173
 21
4.955334
 31
0.000000
  0
LINE
  8
DIEM
 62
     7
  6
CONTINUOUS
 10
9.418173
 20
4.955334
 30
0.000000
 11
9.418173
 21
5.855319
 31
0.000000
  0
LINE
  8
DIEM
 62
     7
  6
CONTINUOUS
 10
-0.586815
 20
1.016393
 30
0.000000
 11
-0.649315
 21
0.908140
 31
0.000000
  0
LINE
  8
DIEM
 62
     7
  6
CONTINUOUS
 10
-0.586815
 20
1.016393
 30
0.000000
 11
-0.711815
 21
1.016393
 31
0.000000
  0
LINE
  8
DIEM
 62
     7
  6
CONTINUOUS
 10
-1.173630
 20
-0.000000
 30
0.000000
 11
-1.236130
 21
0.108253
 31
0.000000
  0
LINE
  8
DIEM
 62
     7
  6
CONTINUOUS
 10
-1.173630
 20
-0.000000
 30
0.000000
 11
-1.111130
 21
0.108253
 31
0.000000
  0
LINE
  8
DIEM
 62
     7
  6
CONTINUOUS
 10
-0.382750
 20
0.662942
 30
0.000000
 11
-0.711815
 21
1.232899
 31
0.000000
  0
LINE
  8
DIEM
 62
     7
  6
CONTINUOUS
 10
-0.765499
 20
-0.000000
 30
0.000000
 11
-1.423630
 21
-0.000000
 31
0.000000
  0
TEXT
  8
DIEM
 62
     7
 10
-1.144953
 20
0.524090
 30
0.000000
 40
0.125000
  1
60¦
  0
ARC
  8
DIEM
 62
     7
  6
CONTINUOUS
 10
0.000000
 20
-0.000000
 30
0.000000
 40
1.173630
 50
120.000024
 51
144.544419
  0
ARC
  8
DIEM
 62
     7
  6
CONTINUOUS
 10
0.000000
 20
-0.000000
 30
0.000000
 40
1.173630
 50
155.169958
 51
180.000000
  0
LINE
  8
DIEM
 62
     7
  6
CONTINUOUS
 10
1.296355
 20
-1.912836
 30
0.000000
 11
1.358855
 21
-1.912836
 31
0.000000
  0
LINE
  8
DIEM
 62
     7
  6
CONTINUOUS
 10
0.394394
 20
-0.581948
 30
0.000000
 11
0.281924
 21
-0.527399
 31
0.000000
  0
LINE
  8
DIEM
 62
     7
  6
CONTINUOUS
 10
0.394394
 20
-0.581948
 30
0.000000
 11
0.385400
 21
-0.457272
 31
0.000000
  0
LINE
  8
DIEM
 62
     7
  6
CONTINUOUS
 10
-0.394393
 20
0.581947
 30
0.000000
 11
-0.281924
 21
0.527398
 31
0.000000
  0
LINE
  8
DIEM
 62
     7
  6
CONTINUOUS
 10
-0.394393
 20
0.581947
 30
0.000000
 11
-0.385400
 21
0.457271
 31
0.000000
  0
TEXT
  8
DIEM
 62
     7
 10
1.390105
 20
-1.975422
 30
0.000000
 40
0.125000
  1
1 13/32"
  0
LINE
  8
DIEM
 62
     7
  6
CONTINUOUS
 10
-0.394393
 20
0.581947
 30
0.000000
 11
1.296355
 21
-1.912836
 31
0.000000
  0
CIRCLE
  8
HUBFT
 62
     7
  6
CONTINUOUS
 10
-1.005301
 20
1.013283
 30
0.000000
 40
0.203499
  0
CIRCLE
  8
HUBFT
 62
     7
  6
CONTINUOUS
 10
-1.419563
 20
-0.124894
 30
0.000000
 40
0.203500
  0
CIRCLE
  8
HUBFT
 62
     7
  6
CONTINUOUS
 10
0.929097
 20
1.097741
 30
0.000000
 40
0.203499
  0
CIRCLE
  8
HUBFT
 62
     7
  6
CONTINUOUS
 10
-0.913131
 20
-1.097741
 30
0.000000
 40
0.203499
  0
CIRCLE
  8
HUBFT
 62
     7
  6
CONTINUOUS
 10
0.132878
 20
-1.427547
 30
0.000000
 40
0.203500
  0
CIRCLE
  8
HUBFT
 62
     7
  6
CONTINUOUS
 10
1.105725
 20
-0.921114
 30
0.000000
 40
0.203500
  0
CIRCLE
  8
HUBFT
 62
     7
  6
CONTINUOUS
 10
1.435530
 20
0.124895
 30
0.000000
 40
0.203500
  0
CIRCLE
  8
HUBFT
 62
     7
  6
CONTINUOUS
 10
0.007983
 20
-0.000000
 30
0.000000
 40
0.375000
  0
CIRCLE
  8
HUBFT
 62
     7
  6
CONTINUOUS
 10
0.007983
 20
-0.000000
 30
0.000000
 40
0.703000
  0
CIRCLE
  8
HUBFT
 62
     7
  6
CONTINUOUS
 10
-0.695016
 20
-0.000000
 30
0.000000
 40
0.101550
  0
CIRCLE
  8
HUBFT
 62
     7
  6
CONTINUOUS
 10
-0.695016
 20
-0.000000
 30
0.000000
 40
0.179700
  0
CIRCLE
  8
HUBFT
 62
     7
  6
CONTINUOUS
 10
-0.343516
 20
-0.608816
 30
0.000000
 40
0.101550
  0
CIRCLE
  8
HUBFT
 62
     7
  6
CONTINUOUS
 10
-0.343516
 20
-0.608816
 30
0.000000
 40
0.179699
  0
CIRCLE
  8
HUBFT
 62
     7
  6
CONTINUOUS
 10
0.359484
 20
-0.608816
 30
0.000000
 40
0.101550
  0
CIRCLE
  8
HUBFT
 62
     7
  6
CONTINUOUS
 10
0.359484
 20
-0.608816
 30
0.000000
 40
0.179700
  0
CIRCLE
  8
HUBFT
 62
     7
  6
CONTINUOUS
 10
0.710984
 20
-0.000000
 30
0.000000
 40
0.101550
  0
CIRCLE
  8
HUBFT
 62
     7
  6
CONTINUOUS
 10
0.710984
 20
-0.000000
 30
0.000000
 40
0.179700
  0
CIRCLE
  8
HUBFT
 62
     7
  6
CONTINUOUS
 10
0.359483
 20
0.608816
 30
0.000000
 40
0.101550
  0
CIRCLE
  8
HUBFT
 62
     7
  6
CONTINUOUS
 10
0.359483
 20
0.608816
 30
0.000000
 40
0.179701
  0
CIRCLE
  8
HUBFT
 62
     7
  6
CONTINUOUS
 10
-0.343517
 20
0.608816
 30
0.000000
 40
0.101550
  0
CIRCLE
  8
HUBFT
 62
     7
  6
CONTINUOUS
 10
-0.343517
 20
0.608816
 30
0.000000
 40
0.179700
  0
CIRCLE
  8
HUBFT
 62
     7
  6
CONTINUOUS
 10
0.000000
 20
1.436500
 30
0.000000
 40
0.203500
  0
CIRCLE
  8
HUBFT
 62
     7
  6
CONTINUOUS
 10
0.000000
 20
0.000000
 30
0.000000
 40
1.436501
  0
CIRCLE
  8
HUBFT
 62
     7
  6
CONTINUOUS
 10
0.000000
 20
0.000000
 30
0.000000
 40
0.945001
  0
CIRCLE
  8
HUBFT
 62
     7
  6
CONTINUOUS
 10
0.000000
 20
0.000000
 30
0.000000
 40
1.937501
  0
POINT
  8
HUB2
 62
     7
 10
4.422018
 20
0.000001
 30
0.000000
  0
LINE
  8
HUB2
 62
     7
  6
CONTINUOUS
 10
4.610018
 20
1.937501
 30
0.000000
 11
5.235018
 21
1.937501
 31
0.000000
  0
LINE
  8
HUB2
 62
     7
  6
CONTINUOUS
 10
4.610018
 20
-1.937499
 30
0.000000
 11
5.235018
 21
-1.937499
 31
0.000000
  0
LINE
  8
HUB2
 62
     7
  6
CONTINUOUS
 10
4.610018
 20
-0.944999
 30
0.000000
 11
4.610018
 21
-1.937499
 31
0.000000
  0
LINE
  8
HUB2
 62
     7
  6
CONTINUOUS
 10
5.235018
 20
1.125001
 30
0.000000
 11
5.235018
 21
1.937501
 31
0.000000
  0
LINE
  8
HUB2
 62
     7
  6
CONTINUOUS
 10
5.235018
 20
-1.124990
 30
0.000000
 11
5.235018
 21
-1.937499
 31
0.000000
  0
LINE
  8
HUB2
 62
     7
  6
CONTINUOUS
 10
4.610018
 20
1.612500
 30
0.000000
 11
5.235018
 21
1.612500
 31
0.000000
  0
LINE
  8
HUB2
 62
     7
  6
CONTINUOUS
 10
4.610018
 20
1.253501
 30
0.000000
 11
5.235018
 21
1.253501
 31
0.000000
  0
LINE
  8
HUB2
 62
     7
  6
CONTINUOUS
 10
4.641019
 20
1.584763
 30
0.000000
 11
4.641019
 21
1.281237
 31
0.000000
  0
LINE
  8
HUB2
 62
     7
  6
CONTINUOUS
 10
4.672518
 20
1.612500
 30
0.000000
 11
4.672518
 21
1.253501
 31
0.000000
  0
LINE
  8
HUB2
 62
     7
  6
CONTINUOUS
 10
4.703768
 20
1.584763
 30
0.000000
 11
4.703768
 21
1.281237
 31
0.000000
  0
LINE
  8
HUB2
 62
     7
  6
CONTINUOUS
 10
4.766518
 20
1.584763
 30
0.000000
 11
4.766518
 21
1.281237
 31
0.000000
  0
LINE
  8
HUB2
 62
     7
  6
CONTINUOUS
 10
4.829268
 20
1.584763
 30
0.000000
 11
4.829268
 21
1.281237
 31
0.000000
  0
LINE
  8
HUB2
 62
     7
  6
CONTINUOUS
 10
4.892018
 20
1.584763
 30
0.000000
 11
4.892018
 21
1.281237
 31
0.000000
  0
LINE
  8
HUB2
 62
     7
  6
CONTINUOUS
 10
4.954768
 20
1.584763
 30
0.000000
 11
4.954768
 21
1.281237
 31
0.000000
  0
LINE
  8
HUB2
 62
     7
  6
CONTINUOUS
 10
5.017518
 20
1.584763
 30
0.000000
 11
5.017518
 21
1.281237
 31
0.000000
  0
LINE
  8
HUB2
 62
     7
  6
CONTINUOUS
 10
5.080268
 20
1.584763
 30
0.000000
 11
5.080268
 21
1.281237
 31
0.000000
  0
LINE
  8
HUB2
 62
     7
  6
CONTINUOUS
 10
5.143018
 20
1.584763
 30
0.000000
 11
5.143018
 21
1.281237
 31
0.000000
  0
LINE
  8
HUB2
 62
     7
  6
CONTINUOUS
 10
5.205767
 20
1.584763
 30
0.000000
 11
5.205767
 21
1.281237
 31
0.000000
  0
LINE
  8
HUB2
 62
     7
  6
CONTINUOUS
 10
4.735018
 20
1.612500
 30
0.000000
 11
4.735018
 21
1.253501
 31
0.000000
  0
LINE
  8
HUB2
 62
     7
  6
CONTINUOUS
 10
4.797518
 20
1.612500
 30
0.000000
 11
4.797518
 21
1.253501
 31
0.000000
  0
LINE
  8
HUB2
 62
     7
  6
CONTINUOUS
 10
4.860018
 20
1.612500
 30
0.000000
 11
4.860018
 21
1.253501
 31
0.000000
  0
LINE
  8
HUB2
 62
     7
  6
CONTINUOUS
 10
4.922518
 20
1.612500
 30
0.000000
 11
4.922518
 21
1.253501
 31
0.000000
  0
LINE
  8
HUB2
 62
     7
  6
CONTINUOUS
 10
4.985018
 20
1.612500
 30
0.000000
 11
4.985018
 21
1.253501
 31
0.000000
  0
LINE
  8
HUB2
 62
     7
  6
CONTINUOUS
 10
5.047518
 20
1.612500
 30
0.000000
 11
5.047518
 21
1.253501
 31
0.000000
  0
LINE
  8
HUB2
 62
     7
  6
CONTINUOUS
 10
5.110018
 20
1.612500
 30
0.000000
 11
5.110018
 21
1.253501
 31
0.000000
  0
LINE
  8
HUB2
 62
     7
  6
CONTINUOUS
 10
5.172518
 20
1.612500
 30
0.000000
 11
5.172518
 21
1.253501
 31
0.000000
  0
LINE
  8
HUB2
 62
     7
  6
CONTINUOUS
 10
5.235018
 20
1.612500
 30
0.000000
 11
5.235018
 21
1.253501
 31
0.000000
  0
LINE
  8
HUB2
 62
     7
  6
CONTINUOUS
 10
4.313449
 20
1.436500
 30
0.000000
 11
5.272229
 21
1.436500
 31
0.000000
  0
LINE
  8
HUB2
 62
     7
  6
CONTINUOUS
 10
5.349519
 20
-0.800000
 30
0.000000
 11
5.349519
 21
0.806572
 31
0.000000
  0
LINE
  8
HUB2
 62
     7
  6
CONTINUOUS
 10
5.235018
 20
-1.124990
 30
0.000000
 11
6.741698
 21
-1.124990
 31
0.000000
  0
LINE
  8
HUB2
 62
     7
  6
CONTINUOUS
 10
5.235018
 20
1.125001
 30
0.000000
 11
6.741698
 21
1.125001
 31
0.000000
  0
LINE
  8
HUB2
 62
     7
  6
CONTINUOUS
 10
5.349519
 20
-0.800000
 30
0.000000
 11
6.741698
 21
-0.938745
 31
0.000000
  0
POINT
  8
HUB2
 62
     7
 10
5.349519
 20
0.703109
 30
0.000000
  0
LINE
  8
HUB2
 62
     7
  6
CONTINUOUS
 10
5.349519
 20
0.703109
 30
0.000000
 11
4.291940
 21
0.703109
 31
0.000000
  0
LINE
  8
HUB2
 62
     7
  6
CONTINUOUS
 10
5.349519
 20
0.375001
 30
0.000000
 11
4.422018
 21
0.375001
 31
0.000000
  0
LINE
  8
HUB2
 62
     7
  6
CONTINUOUS
 10
5.349519
 20
-0.375000
 30
0.000000
 11
4.422018
 21
-0.375000
 31
0.000000
  0
POINT
  8
HUB2
 62
     7
 10
4.422018
 20
0.703109
 30
0.000000
  0
POINT
  8
HUB2
 62
     7
 10
4.609518
 20
0.704132
 30
0.000000
  0
POINT
  8
HUB2
 62
     7
 10
4.609518
 20
0.805682
 30
0.000000
  0
POINT
  8
HUB2
 62
     7
 10
4.609518
 20
0.602582
 30
0.000000
  0
LINE
  8
HUB2
 62
     7
  6
CONTINUOUS
 10
4.422018
 20
0.539110
 30
0.000000
 11
4.609518
 21
0.539110
 31
0.000000
  0
LINE
  8
HUB2
 62
     7
  6
CONTINUOUS
 10
4.422018
 20
0.867109
 30
0.000000
 11
4.609518
 21
0.867109
 31
0.000000
  0
LINE
  8
HUB2
 62
     7
  6
CONTINUOUS
 10
4.609518
 20
0.867109
 30
0.000000
 11
4.609518
 21
0.539110
 31
0.000000
  0
LINE
  8
HUB2
 62
     7
  6
CONTINUOUS
 10
4.609518
 20
0.805682
 30
0.000000
 11
5.419024
 21
0.805682
 31
0.000000
  0
LINE
  8
HUB2
 62
     7
  6
CONTINUOUS
 10
5.419024
 20
0.805682
 30
0.000000
 11
6.741698
 21
0.937501
 31
0.000000
  0
LINE
  8
HUB2
 62
     7
  6
CONTINUOUS
 10
4.609518
 20
0.602582
 30
0.000000
 11
5.349519
 21
0.602582
 31
0.000000
  0
POINT
  8
HUB2
 62
     7
 10
4.422018
 20
0.000001
 30
0.000000
  0
LINE
  8
HUB2
 62
     7
  6
CONTINUOUS
 10
6.741698
 20
-1.124990
 30
0.000000
 11
6.741698
 21
1.125001
 31
0.000000
  0
LINE
  8
HUB2
 62
     7
  6
CONTINUOUS
 10
4.422018
 20
0.945001
 30
0.000000
 11
4.422018
 21
-0.944999
 31
0.000000
  0
LINE
  8
HUB2
 62
     7
  6
CONTINUOUS
 10
4.422018
 20
-0.944999
 30
0.000000
 11
4.610018
 21
-0.944999
 31
0.000000
  0
LINE
  8
HUB2
 62
     7
  6
CONTINUOUS
 10
4.422018
 20
0.945001
 30
0.000000
 11
4.610018
 21
0.945001
 31
0.000000
  0
LINE
  8
HUB2
 62
     7
  6
CONTINUOUS
 10
4.610018
 20
0.945001
 30
0.000000
 11
4.610018
 21
1.937501
 31
0.000000
  0
LINE
  8
DIEM
 62
     7
  6
CONTINUOUS
 10
3.682209
 20
-0.945000
 30
0.000000
 11
3.619709
 21
-0.836747
 31
0.000000
  0
LINE
  8
DIEM
 62
     7
  6
CONTINUOUS
 10
3.682209
 20
-0.945000
 30
0.000000
 11
3.744709
 21
-0.836747
 31
0.000000
  0
LINE
  8
DIEM
 62
     7
  6
CONTINUOUS
 10
3.682209
 20
0.945001
 30
0.000000
 11
3.744709
 21
0.836747
 31
0.000000
  0
LINE
  8
DIEM
 62
     7
  6
CONTINUOUS
 10
3.682209
 20
0.945001
 30
0.000000
 11
3.619709
 21
0.836747
 31
0.000000
  0
LINE
  8
DIEM
 62
     7
  6
CONTINUOUS
 10
4.359518
 20
-0.945000
 30
0.000000
 11
3.432209
 21
-0.945000
 31
0.000000
  0
LINE
  8
DIEM
 62
     7
  6
CONTINUOUS
 10
4.359518
 20
0.945001
 30
0.000000
 11
3.432209
 21
0.945001
 31
0.000000
  0
TEXT
  8
DIEM
 62
     7
 10
3.239226
 20
-0.297822
 30
0.000000
 40
0.125000
  1
1.890"
  0
TEXT
  8
DIEM
 62
     7
 10
3.650541
 20
-0.203523
 30
0.000000
 40
0.125000
  1
+.000"
  0
TEXT
  8
DIEM
 62
     7
 10
3.650541
 20
-0.392121
 30
0.000000
 40
0.125000
  1
-.001"
  0
LINE
  8
DIEM
 62
     7
  6
CONTINUOUS
 10
3.682209
 20
-0.945000
 30
0.000000
 11
3.682209
 21
-0.423119
 31
0.000000
  0
LINE
  8
DIEM
 62
     7
  6
CONTINUOUS
 10
3.682209
 20
-0.046428
 30
0.000000
 11
3.682209
 21
0.945001
 31
0.000000
  0
TEXT
  8
DIEM
 62
     7
 10
7.956116
 20
3.638428
 30
0.000000
 40
0.125000
  1
NOTE C--
  0
POINT
  8
DIEM
 62
     7
 10
7.956117
 20
3.638428
 30
0.000000
  0
TEXT
  8
DIEM
 62
     7
 10
7.956116
 20
3.450928
 30
0.000000
 40
0.125000
  1
TO LOCATING PROJECTION DIAMETER x 3/16" HIGH AND THEN
  0
TEXT
  8
DIEM
 62
     7
 10
7.956116
 20
3.263428
 30
0.000000
 40
0.125000
  1
TAP HOLES IN FACE OF HUB 10 x 1.0 mm THROUGH
  0
TEXT
  8
DIEM
 62
     7
 10
7.956116
 20
3.638428
 30
0.000000
 40
0.125000
  1
         DRILL 23/64" THROUGH TURN FACE OF HUB
  0
TEXT
  8
DIEM
 62
     7
 10
7.956116
 20
4.665429
 30
0.000000
 40
0.125000
  1
MOTOR HUB AND BUSHING TO ADAPT A 2002  PT CRUISER
  0
POINT
  8
DIEM
 62
     7
 10
7.981679
 20
4.483547
 30
0.000000
  0
TEXT
  8
DIEM
 62
     7
 10
7.956116
 20
4.483547
 30
0.000000
 40
0.125000
  1
TO AN ADC 9" MOTOR.   DRAWING PLOTTED TO SCALE
  0
LINE
  8
DIEM
 62
     7
  6
CONTINUOUS
 10
1.127889
 20
1.141261
 30
0.000000
 11
1.171325
 21
1.258471
 31
0.000000
  0
LINE
  8
DIEM
 62
     7
  6
CONTINUOUS
 10
1.127889
 20
1.141261
 30
0.000000
 11
1.251114
 21
1.162249
 31
0.000000
  0
LINE
  8
DIEM
 62
     7
  6
CONTINUOUS
 10
1.127889
 20
1.141261
 30
0.000000
 11
1.795134
 21
1.694554
 31
0.000000
  0
LINE
  8
DIEM
 62
     7
  6
CONTINUOUS
 10
1.795134
 20
1.694554
 30
0.000000
 11
2.295134
 21
1.694554
 31
0.000000
  0
TEXT
  8
DIEM
 62
     7
 10
2.357634
 20
1.632054
 30
0.000000
 40
0.125000
  1
SEE NOTE C
  0
TEXT
  8
DIEM
 62
     7
 10
9.550919
 20
5.242823
 30
0.000000
 40
0.125000
  1
PHONE 831-429-1989 FAX 831-429-1907
  0
LINE
  8
Default
 62
     9
  6
CONTINUOUS
 10
0.000000
 20
1.750000
 30
0.000000
 11
6.000000
 21
1.750000
 31
0.000000
  0
LINE
  8
Default
 62
     9
  6
CONTINUOUS
 10
0.000000
 20
-1.750000
 30
0.000000
 11
6.000000
 21
-1.750000
 31
0.000000
  0
CIRCLE
  8
Default
 62
     9
  6
CONTINUOUS
 10
0.000000
 20
0.000000
 30
0.000000
 40
1.750000
  0
POINT
  8
Default
 62
     7
 10
0.929097
 20
1.097741
 30
0.000000
  0
ENDSEC
  0
EOF
