  0
SECTION
  2
HEADER
  9
$ACADVER
  1
AC1006
  0
ENDSEC
  0
SECTION
  2
TABLES
  0
TABLE
  2
LTYPE
 70
    25
  0
LTYPE
  2
CONTINUOUS
 70
    64
  3
Solid line
 72
    64
 73
     0
 40
0.000000
  0
LTYPE
  2
DASHDOT
 70
    64
  3
__ . __ . __ . __ . __ . __ . __ . __ . __ . __
 72
    65
 73
     4
 40
1.000000
 49
0.500000
 49
-0.250000
 49
0.000000
 49
-0.250000
  0
LTYPE
  2
DASHED
 70
    64
  3
__ __ __ __ __ __ __ __ __ __ __ __ __ __ __ __
 72
    65
 73
     2
 40
0.750000
 49
0.500000
 49
-0.250000
  0
LTYPE
  2
DIVIDE
 70
    64
  3
____ . . ____ . . ____ . . ____ . . ____ . . __
 72
    65
 73
     6
 40
1.250000
 49
0.500000
 49
-0.250000
 49
0.000000
 49
-0.250000
 49
0.000000
 49
-0.250000
  0
LTYPE
  2
DOT
 70
    64
  3
. . . . . . . . . . . . . . . . . . . . . . . . 
 72
    65
 73
     2
 40
0.250000
 49
0.000000
 49
-0.250000
  0
ENDTAB
  0
ENDSEC
  0
SECTION
  2
BLOCKS
  0
BLOCK
  8
0
  2
Object_0
 70
    64
 10
0.000000
 20
0.000000
 30
0.000000
  0
ENDBLK
  0
ENDSEC
  0
SECTION
  2
ENTITIES
  0
CIRCLE
  8
HOLE2
 62
     6
  6
CONTINUOUS
 10
7.873108
 20
-1.714306
 30
-0.000000
 40
0.250000
  0
CIRCLE
  8
HOLE2
 62
     6
  6
CONTINUOUS
 10
-6.507030
 20
2.961772
 30
-0.000000
 40
0.250000
  0
CIRCLE
  8
HOLE2
 62
     6
  6
CONTINUOUS
 10
-6.203190
 20
-2.767174
 30
-0.000000
 40
0.250000
  0
CIRCLE
  8
HOLE2
 62
     6
  6
CONTINUOUS
 10
-0.050430
 20
-6.654538
 30
-0.000000
 40
0.304001
  0
CIRCLE
  8
HOLE2
 62
     6
  6
CONTINUOUS
 10
4.402569
 20
-5.030228
 30
-0.000000
 40
0.250000
  0
CIRCLE
  8
HOLE2
 62
     6
  6
CONTINUOUS
 10
7.875130
 20
1.690692
 30
0.000000
 40
0.250000
  0
CIRCLE
  8
HOLE2
 62
     6
  6
CONTINUOUS
 10
4.430801
 20
5.026649
 30
-0.000000
 40
0.250000
  0
CIRCLE
  8
HOLE2
 62
     6
  6
CONTINUOUS
 10
-0.050430
 20
6.650459
 30
-0.000000
 40
0.304001
  0
CIRCLE
  8
PLATCENT
 62
     3
  6
DASHDOT
 10
-0.000431
 20
-0.000039
 30
0.000000
 40
3.625000
  0
CIRCLE
  8
PLATCENT
 62
     3
  6
CONTINUOUS
 10
-0.000431
 20
-0.000039
 30
0.000000
 40
3.000000
  0
CIRCLE
  8
PLATCENT
 62
     9
  6
CONTINUOUS
 10
3.624569
 20
-0.000039
 30
0.000000
 40
0.265499
  0
CIRCLE
  8
PLATCENT
 62
     9
  6
CONTINUOUS
 10
-0.000431
 20
3.624961
 30
0.000000
 40
0.265499
  0
CIRCLE
  8
PLATCENT
 62
     9
  6
CONTINUOUS
 10
-3.625431
 20
-0.000039
 30
0.000000
 40
0.265499
  0
CIRCLE
  8
PLATCENT
 62
     9
  6
CONTINUOUS
 10
-0.000431
 20
-3.625039
 30
0.000000
 40
0.265499
  0
POINT
  8
0
 62
     1
 10
7.873108
 20
-1.714306
 30
0.000000
  0
POINT
  8
0
 62
     1
 10
7.875130
 20
1.690692
 30
0.000000
  0
POINT
  8
0
 62
     1
 10
-3.625431
 20
-0.000039
 30
0.000000
  0
POINT
  8
0
 62
     1
 10
-0.000431
 20
3.624961
 30
0.000000
  0
POINT
  8
0
 62
     1
 10
3.624569
 20
-0.000039
 30
0.000000
  0
POINT
  8
0
 62
     1
 10
-0.000431
 20
-3.625039
 30
0.000000
  0
POINT
  8
0
 62
     1
 10
4.430801
 20
5.026649
 30
0.000000
  0
POINT
  8
0
 62
     1
 10
-0.050430
 20
6.650459
 30
0.000000
  0
POINT
  8
0
 62
     1
 10
-6.507030
 20
2.961772
 30
0.000000
  0
POINT
  8
0
 62
     1
 10
-6.203190
 20
-2.767174
 30
0.000000
  0
POINT
  8
0
 62
     1
 10
-0.050430
 20
-6.654538
 30
0.000000
  0
POINT
  8
0
 62
     1
 10
4.402569
 20
-5.030228
 30
0.000000
  0
CIRCLE
  8
PLATCENT
 62
     3
  6
CONTINUOUS
 10
-0.000431
 20
-0.000039
 30
0.000000
 40
4.250000
  0
LINE
  8
Default
 62
     7
  6
CONTINUOUS
 10
8.475510
 20
2.329623
 30
0.000000
 11
4.749505
 21
5.411912
 31
0.000000
  0
LINE
  8
Default
 62
     7
  6
CONTINUOUS
 10
8.472728
 20
-2.354362
 30
0.000000
 11
8.475510
 21
2.329623
 31
0.000000
  0
LINE
  8
Default
 62
     7
  6
CONTINUOUS
 10
8.472728
 20
-2.354362
 30
0.000000
 11
4.718679
 21
-5.417623
 31
0.000000
  0
ARC
  8
Default
 62
     7
  6
CONTINUOUS
 10
4.402569
 20
-5.030228
 30
0.000000
 40
0.500000
 50
290.644731
 51
309.214046
  0
LINE
  8
Default
 62
     7
  6
CONTINUOUS
 10
4.578855
 20
-5.498120
 30
0.000000
 11
0.143485
 21
-7.169220
 31
0.000000
  0
ARC
  8
Default
 62
     7
  6
CONTINUOUS
 10
-0.050430
 20
-6.654538
 30
0.000000
 40
0.550000
 50
284.591599
 51
290.644731
  0
LINE
  8
Default
 62
     7
  6
CONTINUOUS
 10
-0.500000
 20
-7.375000
 30
0.000000
 11
0.088130
 21
-7.186798
 31
0.000000
  0
LINE
  8
Default
 62
     7
  6
CONTINUOUS
 10
-0.500000
 20
-7.375000
 30
0.000000
 11
-1.000000
 21
-7.535000
 31
0.000000
  0
LINE
  8
Default
 62
     7
  6
CONTINUOUS
 10
-1.000000
 20
-7.535000
 30
0.000000
 11
-1.500000
 21
-7.665000
 31
0.000000
  0
LINE
  8
Default
 62
     7
  6
CONTINUOUS
 10
-1.500000
 20
-7.665000
 30
0.000000
 11
-2.000000
 21
-7.810000
 31
0.000000
  0
LINE
  8
Default
 62
     7
  6
CONTINUOUS
 10
-2.000000
 20
-7.810000
 30
0.000000
 11
-2.500000
 21
-7.950000
 31
0.000000
  0
LINE
  8
Default
 62
     7
  6
CONTINUOUS
 10
-2.500000
 20
-7.950000
 30
0.000000
 11
-3.000000
 21
-8.000000
 31
0.000000
  0
LINE
  8
Default
 62
     7
  6
CONTINUOUS
 10
-3.000000
 20
-8.000000
 30
0.000000
 11
-3.500000
 21
-8.000000
 31
0.000000
  0
INSERT
  8
Default
 62
     7
  2
Object_0
 10
-10.160000
 20
10.160000
 30
0.000000
 50
-1.570796
  0
LINE
  8
Default
 62
     7
  6
CONTINUOUS
 10
-3.500000
 20
-8.000000
 30
0.000000
 11
-4.000000
 21
-7.915000
 31
0.000000
  0
LINE
  8
Default
 62
     7
  6
CONTINUOUS
 10
-4.000000
 20
-7.915000
 30
0.000000
 11
-4.500000
 21
-7.715000
 31
0.000000
  0
LINE
  8
Default
 62
     7
  6
CONTINUOUS
 10
-4.500000
 20
-7.715000
 30
0.000000
 11
-5.000000
 21
-7.375000
 31
0.000000
  0
LINE
  8
Default
 62
     7
  6
CONTINUOUS
 10
-5.000000
 20
-7.375000
 30
0.000000
 11
-5.500000
 21
-6.860000
 31
0.000000
  0
LINE
  8
Default
 62
     7
  6
CONTINUOUS
 10
-5.500000
 20
-6.860000
 30
0.000000
 11
-6.000000
 21
-6.000000
 31
0.000000
  0
LINE
  8
Default
 62
     7
  6
CONTINUOUS
 10
-6.000000
 20
-6.000000
 30
0.000000
 11
-6.315000
 21
-5.000000
 31
0.000000
  0
LINE
  8
Default
 62
     7
  6
CONTINUOUS
 10
-6.315000
 20
-5.000000
 30
0.000000
 11
-6.638375
 21
-2.832088
 31
0.000000
  0
ARC
  8
Default
 62
     7
  6
CONTINUOUS
 10
-6.203190
 20
-2.767174
 30
0.000000
 40
0.440000
 50
183.135762
 51
188.483935
  0
LINE
  8
Default
 62
     7
  6
CONTINUOUS
 10
-6.642531
 20
-2.791243
 30
0.000000
 11
-6.956356
 21
2.937156
 31
0.000000
  0
ARC
  8
Default
 62
     7
  6
CONTINUOUS
 10
-6.507030
 20
2.961772
 30
0.000000
 40
0.450000
 50
120.741263
 51
183.135762
  0
LINE
  8
Default
 62
     7
  6
CONTINUOUS
 10
-6.737053
 20
3.348540
 30
0.000000
 11
-0.346904
 21
7.148960
 31
0.000000
  0
ARC
  8
Default
 62
     7
  6
CONTINUOUS
 10
-0.050430
 20
6.650459
 30
0.000000
 40
0.580000
 50
69.119895
 51
120.741263
  0
LINE
  8
Default
 62
     7
  6
CONTINUOUS
 10
0.156290
 20
7.192369
 30
0.000000
 11
4.609008
 21
5.493813
 31
0.000000
  0
ARC
  8
Default
 62
     7
  6
CONTINUOUS
 10
4.430801
 20
5.026649
 30
0.000000
 40
0.500000
 50
50.401185
 51
69.119895
  0
CIRCLE
  8
Default
 62
     4
  6
CONTINUOUS
 10
-0.050430
 20
-6.654538
 30
-0.000000
 40
0.054001
  0
CIRCLE
  8
Default
 62
     4
  6
CONTINUOUS
 10
-0.050430
 20
6.650459
 30
-0.000000
 40
0.054001
  0
LINE
  8
Default
 62
     4
  6
CONTINUOUS
 10
10.251731
 20
3.300157
 30
0.000000
 11
9.773675
 21
2.722262
 31
0.000000
  0
ARC
  8
Default
 62
     4
  6
CONTINUOUS
 10
9.195781
 20
3.200318
 30
0.000000
 40
0.750000
 50
230.401185
 51
320.401185
  0
LINE
  8
Default
 62
     4
  6
CONTINUOUS
 10
8.717725
 20
2.622423
 30
0.000000
 11
4.991720
 21
5.704712
 31
0.000000
  0
ARC
  8
Default
 62
     4
  6
CONTINUOUS
 10
4.430801
 20
5.026649
 30
0.000000
 40
0.880000
 50
50.401185
 51
69.119895
  0
LINE
  8
Default
 62
     4
  6
CONTINUOUS
 10
4.744445
 20
5.848858
 30
0.000000
 11
0.291727
 21
7.547414
 31
0.000000
  0
ARC
  8
Default
 62
     4
  6
CONTINUOUS
 10
-0.050430
 20
6.650459
 30
0.000000
 40
0.960000
 50
69.119895
 51
120.741263
  0
LINE
  8
Default
 62
     4
  6
CONTINUOUS
 10
-0.541146
 20
7.475564
 30
0.000000
 11
-6.931294
 21
3.675144
 31
0.000000
  0
ARC
  8
Default
 62
     4
  6
CONTINUOUS
 10
-6.507030
 20
2.961772
 30
0.000000
 40
0.830000
 50
120.741263
 51
183.135762
  0
LINE
  8
Default
 62
     4
  6
CONTINUOUS
 10
-7.335787
 20
2.916369
 30
0.000000
 11
-7.021962
 21
-2.812030
 31
0.000000
  0
ARC
  8
Default
 62
     4
  6
CONTINUOUS
 10
-6.203190
 20
-2.767174
 30
0.000000
 40
0.820000
 50
183.135762
 51
188.483935
  0
LINE
  8
Default
 62
     4
  6
CONTINUOUS
 10
-7.014217
 20
-2.888150
 30
0.000000
 11
-6.690842
 21
-5.056062
 31
0.000000
  0
ARC
  8
Default
 62
     4
  6
CONTINUOUS
 10
-6.315000
 20
-5.000000
 30
0.000000
 40
0.380000
 50
188.483935
 51
197.484427
  0
LINE
  8
Default
 62
     4
  6
CONTINUOUS
 10
-6.677443
 20
-5.114170
 30
0.000000
 11
-6.362443
 21
-6.114170
 31
0.000000
  0
ARC
  8
Default
 62
     4
  6
CONTINUOUS
 10
-6.000000
 20
-6.000000
 30
0.000000
 40
0.380000
 50
197.484427
 51
210.173520
  0
LINE
  8
Default
 62
     4
  6
CONTINUOUS
 10
-6.328513
 20
-6.190996
 30
0.000000
 11
-5.828513
 21
-7.050996
 31
0.000000
  0
ARC
  8
Default
 62
     4
  6
CONTINUOUS
 10
-5.500000
 20
-6.860000
 30
0.000000
 40
0.380000
 50
210.173520
 51
224.153326
  0
LINE
  8
Default
 62
     4
  6
CONTINUOUS
 10
-5.772642
 20
-7.124701
 30
0.000000
 11
-5.272642
 21
-7.639701
 31
0.000000
  0
ARC
  8
Default
 62
     4
  6
CONTINUOUS
 10
-5.000000
 20
-7.375000
 30
0.000000
 40
0.380000
 50
224.153326
 51
235.784298
  0
LINE
  8
Default
 62
     4
  6
CONTINUOUS
 10
-5.213678
 20
-7.689232
 30
0.000000
 11
-4.713678
 21
-8.029232
 31
0.000000
  0
ARC
  8
Default
 62
     4
  6
CONTINUOUS
 10
-4.500000
 20
-7.715000
 30
0.000000
 40
0.380000
 50
235.784298
 51
248.198591
  0
LINE
  8
Default
 62
     4
  6
CONTINUOUS
 10
-4.641128
 20
-8.067821
 30
0.000000
 11
-4.141128
 21
-8.267821
 31
0.000000
  0
ARC
  8
Default
 62
     4
  6
CONTINUOUS
 10
-4.000000
 20
-7.915000
 30
0.000000
 40
0.380000
 50
248.198591
 51
260.351955
  0
LINE
  8
Default
 62
     4
  6
CONTINUOUS
 10
-4.063686
 20
-8.289625
 30
0.000000
 11
-3.563686
 21
-8.374625
 31
0.000000
  0
ARC
  8
Default
 62
     4
  6
CONTINUOUS
 10
-3.500000
 20
-8.000000
 30
0.000000
 40
0.380000
 50
260.351955
 51
270.000000
  0
LINE
  8
Default
 62
     4
  6
CONTINUOUS
 10
-3.500000
 20
-8.380000
 30
0.000000
 11
-3.000000
 21
-8.380000
 31
0.000000
  0
ARC
  8
Default
 62
     4
  6
CONTINUOUS
 10
-3.000000
 20
-8.000000
 30
0.000000
 40
0.380000
 50
270.000000
 51
275.710593
  0
LINE
  8
Default
 62
     4
  6
CONTINUOUS
 10
-2.962189
 20
-8.378114
 30
0.000000
 11
-2.462189
 21
-8.328114
 31
0.000000
  0
ARC
  8
Default
 62
     4
  6
CONTINUOUS
 10
-2.500000
 20
-7.950000
 30
0.000000
 40
0.380000
 50
275.710593
 51
285.642246
  0
LINE
  8
Default
 62
     4
  6
CONTINUOUS
 10
-2.397541
 20
-8.315926
 30
0.000000
 11
-1.897541
 21
-8.175926
 31
0.000000
  0
ARC
  8
Default
 62
     4
  6
CONTINUOUS
 10
-2.000000
 20
-7.810000
 30
0.000000
 40
0.380000
 50
285.642246
 51
286.172159
  0
LINE
  8
Default
 62
     4
  6
CONTINUOUS
 10
-1.894161
 20
-8.174963
 30
0.000000
 11
-1.399250
 21
-8.031439
 31
0.000000
  0
LINE
  8
Default
 62
     4
  6
CONTINUOUS
 10
-1.399250
 20
-8.031439
 30
0.000000
 11
-0.904379
 21
-7.902773
 31
0.000000
  0
ARC
  8
Default
 62
     4
  6
CONTINUOUS
 10
-1.000000
 20
-7.535000
 30
0.000000
 40
0.380000
 50
284.574216
 51
287.744672
  0
LINE
  8
Default
 62
     4
  6
CONTINUOUS
 10
-0.884185
 20
-7.896921
 30
0.000000
 11
-0.384185
 21
-7.736921
 31
0.000000
  0
LINE
  8
Default
 62
     4
  6
CONTINUOUS
 10
-0.384185
 20
-7.736921
 30
0.000000
 11
0.195285
 21
-7.551491
 31
0.000000
  0
ARC
  8
Default
 62
     4
  6
CONTINUOUS
 10
-0.050430
 20
-6.654538
 30
0.000000
 40
0.930000
 50
285.320009
 51
290.644731
  0
LINE
  8
Default
 62
     4
  6
CONTINUOUS
 10
0.277462
 20
-7.524818
 30
0.000000
 11
4.712833
 21
-5.853718
 31
0.000000
  0
ARC
  8
Default
 62
     4
  6
CONTINUOUS
 10
4.402569
 20
-5.030228
 30
0.000000
 40
0.880000
 50
290.644731
 51
309.214046
  0
LINE
  8
Default
 62
     4
  6
CONTINUOUS
 10
4.958922
 20
-5.712043
 30
0.000000
 11
8.712971
 21
-2.648782
 31
0.000000
  0
ARC
  8
Default
 62
     4
  6
CONTINUOUS
 10
8.472728
 20
-2.354362
 30
0.000000
 40
0.380000
 50
309.214046
 51
359.965976
  0
LINE
  8
Default
 62
     4
  6
CONTINUOUS
 10
8.852728
 20
-2.354588
 30
0.000000
 11
8.855509
 21
2.329397
 31
0.000000
  0
ARC
  8
Default
 62
     4
  6
CONTINUOUS
 10
8.475510
 20
2.329623
 30
0.000000
 40
0.380000
 50
359.965976
 51
410.401185
  0
ARC
  8
Default
 62
     4
  6
CONTINUOUS
 10
9.195781
 20
3.200318
 30
0.000000
 40
0.750000
 50
140.401185
 51
230.401185
  0
LINE
  8
Default
 62
     4
  6
CONTINUOUS
 10
8.617886
 20
3.678374
 30
0.000000
 11
9.095942
 21
4.256269
 31
0.000000
  0
LINE
  8
Default
 62
     4
  6
CONTINUOUS
 10
4.988533
 20
5.700860
 30
0.000000
 11
8.714538
 21
2.618570
 31
0.000000
  0
ARC
  8
Default
 62
     4
  6
CONTINUOUS
 10
8.475510
 20
2.329623
 30
0.000000
 40
0.375000
 50
359.965976
 51
410.401185
  0
LINE
  8
Default
 62
     4
  6
CONTINUOUS
 10
8.850509
 20
2.329400
 30
0.000000
 11
8.847728
 21
-2.354585
 31
0.000000
  0
ARC
  8
Default
 62
     4
  6
CONTINUOUS
 10
8.472728
 20
-2.354362
 30
0.000000
 40
0.375000
 50
309.214046
 51
359.965976
  0
LINE
  8
Default
 62
     4
  6
CONTINUOUS
 10
8.709810
 20
-2.644908
 30
0.000000
 11
4.955761
 21
-5.708169
 31
0.000000
  0
ARC
  8
Default
 62
     4
  6
CONTINUOUS
 10
4.402569
 20
-5.030228
 30
0.000000
 40
0.875000
 50
290.644731
 51
309.214046
  0
LINE
  8
Default
 62
     4
  6
CONTINUOUS
 10
4.711070
 20
-5.849039
 30
0.000000
 11
0.275699
 21
-7.520139
 31
0.000000
  0
ARC
  8
Default
 62
     4
  6
CONTINUOUS
 10
-0.050430
 20
-6.654538
 30
0.000000
 40
0.925000
 50
285.313463
 51
290.644731
  0
LINE
  8
Default
 62
     4
  6
CONTINUOUS
 10
0.193862
 20
-7.546696
 30
0.000000
 11
-0.385709
 21
-7.732159
 31
0.000000
  0
LINE
  8
Default
 62
     4
  6
CONTINUOUS
 10
-0.385709
 20
-7.732159
 30
0.000000
 11
-0.885709
 21
-7.892159
 31
0.000000
  0
ARC
  8
Default
 62
     4
  6
CONTINUOUS
 10
-1.000000
 20
-7.535000
 30
0.000000
 40
0.375000
 50
284.574216
 51
287.744672
  0
LINE
  8
Default
 62
     4
  6
CONTINUOUS
 10
-0.905637
 20
-7.897933
 30
0.000000
 11
-1.400576
 21
-8.026617
 31
0.000000
  0
LINE
  8
Default
 62
     4
  6
CONTINUOUS
 10
-1.400576
 20
-8.026617
 30
0.000000
 11
-1.895553
 21
-8.170161
 31
0.000000
  0
ARC
  8
Default
 62
     4
  6
CONTINUOUS
 10
-2.000000
 20
-7.810000
 30
0.000000
 40
0.375000
 50
285.642246
 51
286.172159
  0
LINE
  8
Default
 62
     4
  6
CONTINUOUS
 10
-1.898889
 20
-8.171112
 30
0.000000
 11
-2.398889
 21
-8.311112
 31
0.000000
  0
ARC
  8
Default
 62
     4
  6
CONTINUOUS
 10
-2.500000
 20
-7.950000
 30
0.000000
 40
0.375000
 50
275.710593
 51
285.642246
  0
LINE
  8
Default
 62
     4
  6
CONTINUOUS
 10
-2.462686
 20
-8.323139
 30
0.000000
 11
-2.962686
 21
-8.373139
 31
0.000000
  0
ARC
  8
Default
 62
     4
  6
CONTINUOUS
 10
-3.000000
 20
-8.000000
 30
0.000000
 40
0.375000
 50
270.000000
 51
275.710593
  0
LINE
  8
Default
 62
     4
  6
CONTINUOUS
 10
-3.000000
 20
-8.375000
 30
0.000000
 11
-3.500000
 21
-8.375000
 31
0.000000
  0
ARC
  8
Default
 62
     4
  6
CONTINUOUS
 10
-3.500000
 20
-8.000000
 30
0.000000
 40
0.375000
 50
260.351955
 51
270.000000
  0
LINE
  8
Default
 62
     4
  6
CONTINUOUS
 10
-3.562848
 20
-8.369696
 30
0.000000
 11
-4.062848
 21
-8.284696
 31
0.000000
  0
ARC
  8
Default
 62
     4
  6
CONTINUOUS
 10
-4.000000
 20
-7.915000
 30
0.000000
 40
0.375000
 50
248.198591
 51
260.351955
  0
LINE
  8
Default
 62
     4
  6
CONTINUOUS
 10
-4.139272
 20
-8.263179
 30
0.000000
 11
-4.639272
 21
-8.063179
 31
0.000000
  0
ARC
  8
Default
 62
     4
  6
CONTINUOUS
 10
-4.500000
 20
-7.715000
 30
0.000000
 40
0.375000
 50
235.784298
 51
248.198591
  0
LINE
  8
Default
 62
     4
  6
CONTINUOUS
 10
-4.710866
 20
-8.025097
 30
0.000000
 11
-5.210866
 21
-7.685097
 31
0.000000
  0
ARC
  8
Default
 62
     4
  6
CONTINUOUS
 10
-5.000000
 20
-7.375000
 30
0.000000
 40
0.375000
 50
224.153326
 51
235.784298
  0
LINE
  8
Default
 62
     4
  6
CONTINUOUS
 10
-5.269054
 20
-7.636218
 30
0.000000
 11
-5.769054
 21
-7.121218
 31
0.000000
  0
ARC
  8
Default
 62
     4
  6
CONTINUOUS
 10
-5.500000
 20
-6.860000
 30
0.000000
 40
0.375000
 50
210.173520
 51
224.153326
  0
LINE
  8
Default
 62
     4
  6
CONTINUOUS
 10
-5.824190
 20
-7.048483
 30
0.000000
 11
-6.324190
 21
-6.188483
 31
0.000000
  0
ARC
  8
Default
 62
     4
  6
CONTINUOUS
 10
-6.000000
 20
-6.000000
 30
0.000000
 40
0.375000
 50
197.484427
 51
210.173520
  0
LINE
  8
Default
 62
     4
  6
CONTINUOUS
 10
-6.357674
 20
-6.112667
 30
0.000000
 11
-6.672674
 21
-5.112667
 31
0.000000
  0
ARC
  8
Default
 62
     4
  6
CONTINUOUS
 10
-6.315000
 20
-5.000000
 30
0.000000
 40
0.375000
 50
188.483935
 51
197.484427
  0
LINE
  8
Default
 62
     4
  6
CONTINUOUS
 10
-6.685896
 20
-5.055325
 30
0.000000
 11
-7.009272
 21
-2.887413
 31
0.000000
  0
ARC
  8
Default
 62
     4
  6
CONTINUOUS
 10
-6.203190
 20
-2.767174
 30
0.000000
 40
0.815000
 50
183.135762
 51
188.483935
  0
LINE
  8
Default
 62
     4
  6
CONTINUOUS
 10
-7.016970
 20
-2.811756
 30
0.000000
 11
-7.330795
 21
2.916643
 31
0.000000
  0
ARC
  8
Default
 62
     4
  6
CONTINUOUS
 10
-6.507030
 20
2.961772
 30
0.000000
 40
0.825000
 50
120.741263
 51
183.135762
  0
LINE
  8
Default
 62
     4
  6
CONTINUOUS
 10
-6.928739
 20
3.670847
 30
0.000000
 11
-0.538590
 21
7.471267
 31
0.000000
  0
ARC
  8
Default
 62
     4
  6
CONTINUOUS
 10
-0.050430
 20
6.650459
 30
0.000000
 40
0.955000
 50
69.119895
 51
120.741263
  0
LINE
  8
Default
 62
     4
  6
CONTINUOUS
 10
0.289945
 20
7.542743
 30
0.000000
 11
4.742663
 21
5.844186
 31
0.000000
  0
ARC
  8
Default
 62
     4
  6
CONTINUOUS
 10
4.430801
 20
5.026649
 30
0.000000
 40
0.875000
 50
50.401185
 51
69.119895
  0
CIRCLE
  8
Default
 62
     4
  6
CONTINUOUS
 10
-0.000431
 20
-0.000039
 30
0.000000
 40
2.620000
  0
CIRCLE
  8
Default
 62
     4
  6
CONTINUOUS
 10
-0.000431
 20
-0.000039
 30
0.000000
 40
2.625000
  0
ENDSEC
  0
EOF
