  0
SECTION
  2
HEADER
  9
$ACADVER
  1
AC1006
  0
ENDSEC
  0
SECTION
  2
TABLES
  0
TABLE
  2
LTYPE
 70
    25
  0
LTYPE
  2
CONTINUOUS
 70
    64
  3
Solid line
 72
    64
 73
     0
 40
0.000000
  0
LTYPE
  2
DASHDOT
 70
    64
  3
__ . __ . __ . __ . __ . __ . __ . __ . __ . __
 72
    65
 73
     4
 40
1.000000
 49
0.500000
 49
-0.250000
 49
0.000000
 49
-0.250000
  0
LTYPE
  2
DASHED
 70
    64
  3
__ __ __ __ __ __ __ __ __ __ __ __ __ __ __ __
 72
    65
 73
     2
 40
0.750000
 49
0.500000
 49
-0.250000
  0
LTYPE
  2
DIVIDE
 70
    64
  3
____ . . ____ . . ____ . . ____ . . ____ . . __
 72
    65
 73
     6
 40
1.250000
 49
0.500000
 49
-0.250000
 49
0.000000
 49
-0.250000
 49
0.000000
 49
-0.250000
  0
LTYPE
  2
DOT
 70
    64
  3
. . . . . . . . . . . . . . . . . . . . . . . . 
 72
    65
 73
     2
 40
0.250000
 49
0.000000
 49
-0.250000
  0
ENDTAB
  0
ENDSEC
  0
SECTION
  2
BLOCKS
  0
BLOCK
  8
0
  2
Object_0
 70
    64
 10
0.000000
 20
0.000000
 30
0.000000
  0
ENDBLK
  0
BLOCK
  8
0
  2
Object_1
 70
    64
 10
0.000000
 20
0.000000
 30
0.000000
  0
ENDBLK
  0
ENDSEC
  0
SECTION
  2
ENTITIES
  0
CIRCLE
  8
Default
 62
     7
  6
CONTINUOUS
 10
-0.454962
 20
7.006244
 30
0.000000
 40
0.303500
  0
POINT
  8
Default
 62
     7
 10
7.920000
 20
-2.675000
 30
0.000000
  0
LINE
  8
Default
 62
     7
  6
CONTINUOUS
 10
-0.454962
 20
7.006244
 30
0.000000
 11
-0.654925
 21
-6.990387
 31
0.000000
  0
LINE
  8
Default
 62
     7
  6
CONTINUOUS
 10
-0.654925
 20
-6.990387
 30
0.000000
 11
0.000000
 21
0.000000
 31
0.000000
  0
CIRCLE
  8
Default
 62
     6
  6
CONTINUOUS
 10
0.000000
 20
0.000000
 30
-0.625000
 40
2.637500
  0
CIRCLE
  8
Default
 62
     9
  6
CONTINUOUS
 10
3.625000
 20
-0.000000
 30
0.000000
 40
0.265625
  0
CIRCLE
  8
Default
 62
     9
  6
CONTINUOUS
 10
0.000000
 20
0.000000
 30
-0.625000
 40
3.000000
  0
CIRCLE
  8
Default
 62
     9
  6
CONTINUOUS
 10
0.000000
 20
-3.625000
 30
0.000000
 40
0.265625
  0
CIRCLE
  8
Default
 62
     9
  6
CONTINUOUS
 10
0.000000
 20
3.625000
 30
0.000000
 40
0.265625
  0
CIRCLE
  8
Default
 62
     9
  6
CONTINUOUS
 10
-3.625000
 20
-0.000000
 30
0.000000
 40
0.265625
  0
CIRCLE
  8
Default
 62
     7
  6
CONTINUOUS
 10
-0.654925
 20
-6.990387
 30
0.000000
 40
0.303500
  0
POINT
  8
Default
 62
     7
 10
8.000000
 20
6.000000
 30
0.000000
  0
LINE
  8
Default
 62
     4
  6
CONTINUOUS
 10
8.265107
 20
2.999818
 30
0.000000
 11
-0.191870
 21
7.500594
 31
0.000000
  0
ARC
  8
Default
 62
     4
  6
CONTINUOUS
 10
-0.454962
 20
7.006244
 30
0.000000
 40
0.560000
 50
61.978232
 51
126.922088
  0
LINE
  8
Default
 62
     4
  6
CONTINUOUS
 10
-5.567862
 20
3.864766
 30
0.000000
 11
-0.791370
 21
7.453937
 31
0.000000
  0
ARC
  8
Default
 62
     4
  6
CONTINUOUS
 10
-5.267497
 20
3.465039
 30
0.000000
 40
0.500000
 50
126.922088
 51
172.752980
  0
ARC
  8
Default
 62
     4
  6
CONTINUOUS
 10
23.734788
 20
-0.222985
 30
0.000000
 40
29.735835
 50
172.752980
 51
188.514205
  0
ARC
  8
Default
 62
     4
  6
CONTINUOUS
 10
-5.178845
 20
-4.551484
 30
0.000000
 40
0.500000
 50
188.514205
 51
269.181500
  0
LINE
  8
Default
 62
     4
  6
CONTINUOUS
 10
-5.185987
 20
-5.051433
 30
-0.000000
 11
-4.150895
 21
-5.066221
 31
0.000000
  0
ARC
  8
Default
 62
     4
  6
CONTINUOUS
 10
-4.184375
 20
-7.409682
 30
0.000000
 40
2.343700
 50
37.865655
 51
89.181500
  0
LINE
  8
Default
 62
     7
  6
CONTINUOUS
 10
-0.454962
 20
7.006244
 30
0.000000
 11
0.000000
 21
0.000000
 31
0.000000
  0
LINE
  8
Default
 62
     4
  6
CONTINUOUS
 10
-1.245871
 20
-7.370758
 30
0.000000
 11
-2.334135
 21
-5.971091
 31
0.000000
  0
ARC
  8
Default
 62
     4
  6
CONTINUOUS
 10
-5.332890
 20
-3.354144
 30
0.000000
 40
1.825000
 50
89.181500
 51
89.450577
  0
ARC
  8
Default
 62
     4
  6
CONTINUOUS
 10
-0.653782
 20
-6.910399
 30
0.000000
 40
0.750000
 50
217.865655
 51
280.436726
  0
LINE
  8
Default
 62
     4
  6
CONTINUOUS
 10
2.837059
 20
-7.030013
 30
0.000000
 11
-0.517920
 21
-7.647990
 31
0.000000
  0
ARC
  8
Default
 62
     4
  6
CONTINUOUS
 10
2.701197
 20
-6.292422
 30
-0.000000
 40
0.750000
 50
280.436726
 51
305.350941
  0
LINE
  8
Default
 62
     6
  6
CONTINUOUS
 10
-7.000000
 20
-0.675000
 30
0.000000
 11
7.000000
 21
-0.475000
 31
0.000000
  0
POINT
  8
Default
 62
     7
 10
-7.000000
 20
-0.675000
 30
0.000000
  0
POINT
  8
Default
 62
     7
 10
7.000000
 20
-0.475000
 30
0.000000
  0
POINT
  8
Default
 62
     7
 10
0.000000
 20
0.000000
 30
0.000000
  0
LINE
  8
Default
 62
     6
  6
CONTINUOUS
 10
8.125000
 20
2.460000
 30
0.000000
 11
0.000000
 21
0.000000
 31
0.000000
  0
POINT
  8
Default
 62
     7
 10
8.125000
 20
2.460000
 30
0.000000
  0
LINE
  8
Default
 62
     6
  6
CONTINUOUS
 10
7.920000
 20
-2.675000
 30
0.000000
 11
0.000000
 21
0.000000
 31
0.000000
  0
LINE
  8
Default
 62
     6
  6
CONTINUOUS
 10
7.920000
 20
-2.675000
 30
0.000000
 11
8.125000
 21
2.460000
 31
0.000000
  0
LINE
  8
Default
 62
     6
  6
CONTINUOUS
 10
7.920000
 20
-2.675000
 30
0.000000
 11
-0.654925
 21
-6.990387
 31
0.000000
  0
LINE
  8
Default
 62
     6
  6
CONTINUOUS
 10
8.125000
 20
2.460000
 30
0.000000
 11
-0.454962
 21
7.006244
 31
0.000000
  0
INSERT
  8
Default
 62
     7
  2
Object_0
 10
-10.160000
 20
-10.160000
 30
0.000000
 50
1.570796
  0
POINT
  8
Default
 62
     7
 10
-0.338979
 20
-7.615030
 30
0.000000
  0
POINT
  8
Default
 62
     7
 10
8.274914
 20
-3.258107
 30
0.000000
  0
POINT
  8
Default
 62
     7
 10
3.000000
 20
-7.000000
 30
0.000000
  0
LINE
  8
Default
 62
     4
  6
CONTINUOUS
 10
8.237194
 20
-3.284865
 30
0.000000
 11
3.135134
 21
-6.904139
 31
0.000000
  0
ARC
  8
Default
 62
     4
  6
CONTINUOUS
 10
8.671131
 20
-3.896583
 30
-0.000000
 40
0.750000
 50
119.328765
 51
125.350941
  0
ARC
  8
Default
 62
     4
  6
CONTINUOUS
 10
7.936401
 20
-2.588847
 30
-0.000000
 40
0.750000
 50
299.328765
 51
360.275036
  0
LINE
  8
Default
 62
     4
  6
CONTINUOUS
 10
8.686392
 20
-2.585247
 30
0.000000
 11
8.662743
 21
2.341341
 31
0.000000
  0
CIRCLE
  8
Default
 62
     6
  6
CONTINUOUS
 10
-0.454962
 20
7.006244
 30
0.000000
 40
0.111000
  0
CIRCLE
  8
Default
 62
     6
  6
CONTINUOUS
 10
-0.454962
 20
7.006244
 30
0.000000
 40
0.116000
  0
CIRCLE
  8
Default
 62
     6
  6
CONTINUOUS
 10
-0.654925
 20
-6.990387
 30
0.000000
 40
0.111000
  0
CIRCLE
  8
Default
 62
     6
  6
CONTINUOUS
 10
-0.654925
 20
-6.990387
 30
0.000000
 40
0.116000
  0
ARC
  8
Default
 62
     6
  6
CONTINUOUS
 10
7.912752
 20
2.337741
 30
0.000000
 40
1.117500
 50
0.275036
 51
61.978232
  0
ARC
  8
Default
 62
     6
  6
CONTINUOUS
 10
11.030216
 20
2.352706
 30
0.000000
 40
2.000000
 50
90.275036
 51
180.275036
  0
LINE
  8
Default
 62
     6
  6
CONTINUOUS
 10
9.030239
 20
2.343105
 30
0.000000
 11
9.053888
 21
-2.583483
 31
0.000000
  0
ARC
  8
Default
 62
     6
  6
CONTINUOUS
 10
7.936401
 20
-2.588847
 30
0.000000
 40
1.117500
 50
299.328765
 51
360.275036
  0
ARC
  8
Default
 62
     6
  6
CONTINUOUS
 10
8.671131
 20
-3.896583
 30
0.000000
 40
0.382500
 50
119.328765
 51
125.350941
  0
LINE
  8
Default
 62
     6
  6
CONTINUOUS
 10
8.449823
 20
-3.584607
 30
0.000000
 11
3.347763
 21
-7.203881
 31
0.000000
  0
ARC
  8
Default
 62
     6
  6
CONTINUOUS
 10
2.701197
 20
-6.292422
 30
0.000000
 40
1.117500
 50
280.436726
 51
305.350941
  0
LINE
  8
Default
 62
     6
  6
CONTINUOUS
 10
2.903632
 20
-7.391433
 30
0.000000
 11
-0.451348
 21
-8.009410
 31
0.000000
  0
ARC
  8
Default
 62
     6
  6
CONTINUOUS
 10
-0.653782
 20
-6.910399
 30
0.000000
 40
1.117500
 50
217.865655
 51
280.436726
  0
LINE
  8
Default
 62
     6
  6
CONTINUOUS
 10
-1.535995
 20
-7.596334
 30
0.000000
 11
-2.624259
 21
-6.196667
 31
0.000000
  0
ARC
  8
Default
 62
     6
  6
CONTINUOUS
 10
-4.184375
 20
-7.409682
 30
0.000000
 40
1.976200
 50
37.865655
 51
89.181500
  0
LINE
  8
Default
 62
     6
  6
CONTINUOUS
 10
-4.156144
 20
-5.433684
 30
0.000000
 11
-5.191237
 21
-5.418896
 31
-0.000000
  0
ARC
  8
Default
 62
     6
  6
CONTINUOUS
 10
-5.178845
 20
-4.551484
 30
-0.000000
 40
0.867500
 50
188.514205
 51
269.181500
  0
ARC
  8
Default
 62
     6
  6
CONTINUOUS
 10
23.734788
 20
-0.222985
 30
0.000000
 40
30.103335
 50
172.752980
 51
188.514205
  0
ARC
  8
Default
 62
     6
  6
CONTINUOUS
 10
-5.267497
 20
3.465039
 30
0.000000
 40
0.867500
 50
126.922088
 51
172.752980
  0
LINE
  8
Default
 62
     6
  6
CONTINUOUS
 10
-5.788629
 20
4.158565
 30
0.000000
 11
-1.012138
 21
7.747736
 31
0.000000
  0
ARC
  8
Default
 62
     6
  6
CONTINUOUS
 10
-0.454962
 20
7.006244
 30
0.000000
 40
0.927500
 50
61.978232
 51
126.922088
  0
LINE
  8
Default
 62
     6
  6
CONTINUOUS
 10
-0.019216
 20
7.825012
 30
0.000000
 11
8.437761
 21
3.324235
 31
0.000000
  0
ARC
  8
Default
 62
     6
  6
CONTINUOUS
 10
11.030216
 20
2.352706
 30
0.000000
 40
2.000000
 50
180.275036
 51
270.275036
  0
LINE
  8
Default
 62
     6
  6
CONTINUOUS
 10
8.435412
 20
3.319822
 30
0.000000
 11
-0.021565
 21
7.820598
 31
0.000000
  0
ARC
  8
Default
 62
     6
  6
CONTINUOUS
 10
-0.454962
 20
7.006244
 30
0.000000
 40
0.922500
 50
61.978232
 51
126.922088
  0
LINE
  8
Default
 62
     6
  6
CONTINUOUS
 10
-1.009134
 20
7.743739
 30
0.000000
 11
-5.785626
 21
4.154568
 31
0.000000
  0
ARC
  8
Default
 62
     6
  6
CONTINUOUS
 10
-5.267497
 20
3.465039
 30
0.000000
 40
0.862500
 50
126.922088
 51
172.752980
  0
ARC
  8
Default
 62
     6
  6
CONTINUOUS
 10
23.734788
 20
-0.222985
 30
0.000000
 40
30.098335
 50
172.752980
 51
188.514205
  0
ARC
  8
Default
 62
     6
  6
CONTINUOUS
 10
-5.178845
 20
-4.551484
 30
-0.000000
 40
0.862500
 50
188.514205
 51
269.181500
  0
LINE
  8
Default
 62
     6
  6
CONTINUOUS
 10
-5.191166
 20
-5.413896
 30
-0.000000
 11
-4.156073
 21
-5.428684
 31
0.000000
  0
ARC
  8
Default
 62
     6
  6
CONTINUOUS
 10
-4.184375
 20
-7.409682
 30
0.000000
 40
1.981200
 50
37.865655
 51
89.181500
  0
LINE
  8
Default
 62
     6
  6
CONTINUOUS
 10
-2.620312
 20
-6.193598
 30
0.000000
 11
-1.532048
 21
-7.593265
 31
0.000000
  0
ARC
  8
Default
 62
     6
  6
CONTINUOUS
 10
-0.653782
 20
-6.910399
 30
0.000000
 40
1.112500
 50
217.865655
 51
280.436726
  0
LINE
  8
Default
 62
     6
  6
CONTINUOUS
 10
-0.452253
 20
-8.004493
 30
0.000000
 11
2.902726
 21
-7.386516
 31
0.000000
  0
ARC
  8
Default
 62
     6
  6
CONTINUOUS
 10
2.701197
 20
-6.292422
 30
0.000000
 40
1.112500
 50
280.436726
 51
305.350941
  0
LINE
  8
Default
 62
     6
  6
CONTINUOUS
 10
3.344871
 20
-7.199803
 30
0.000000
 11
8.446930
 21
-3.580528
 31
0.000000
  0
ARC
  8
Default
 62
     6
  6
CONTINUOUS
 10
8.671131
 20
-3.896583
 30
0.000000
 40
0.387500
 50
119.328765
 51
125.350941
  0
ARC
  8
Default
 62
     6
  6
CONTINUOUS
 10
7.936401
 20
-2.588847
 30
0.000000
 40
1.112500
 50
299.328765
 51
360.275036
  0
LINE
  8
Default
 62
     6
  6
CONTINUOUS
 10
9.048888
 20
-2.583507
 30
0.000000
 11
9.025239
 21
2.343081
 31
0.000000
  0
ARC
  8
Default
 62
     6
  6
CONTINUOUS
 10
7.912752
 20
2.337741
 30
0.000000
 40
1.112500
 50
0.275036
 51
61.978232
  0
CIRCLE
  8
Default
 62
     6
  6
CONTINUOUS
 10
0.000000
 20
0.000000
 30
-0.625000
 40
2.632500
  0
CIRCLE
  8
Default
 62
     9
  6
CONTINUOUS
 10
0.000000
 20
0.000000
 30
-0.125000
 40
4.251000
  0
CIRCLE
  8
Default
 62
     6
  6
CONTINUOUS
 10
0.000000
 20
0.000000
 30
-0.625000
 40
2.632500
  0
CIRCLE
  8
Default
 62
     6
  6
CONTINUOUS
 10
0.000000
 20
0.000000
 30
-0.625000
 40
2.637500
  0
POINT
  8
Default
 62
     7
 10
-0.454962
 20
7.006244
 30
0.000000
  0
POINT
  8
Default
 62
     7
 10
-0.654925
 20
-6.990387
 30
0.000000
  0
POINT
  8
Default
 62
     7
 10
-5.351278
 20
-3.277109
 30
0.000000
  0
POINT
  8
Default
 62
     7
 10
-5.255477
 20
3.428643
 30
0.000000
  0
ARC
  8
Default
 62
     4
  6
CONTINUOUS
 10
7.912752
 20
2.337741
 30
-0.000000
 40
0.750000
 50
0.275036
 51
61.978232
  0
LINE
  8
1002
 62
     3
  6
CONTINUOUS
 10
5.125000
 20
-0.000000
 30
0.000000
 11
5.125000
 21
-0.000000
 31
1.968504
  0
TEXT
  8
1002
 62
     3
 10
4.485236
 20
-0.000000
 30
1.968504
 40
0.196850
  1
Start Here
 72
     1
 11
5.125000
 21
-0.000000
 31
1.968504
  0
INSERT
  8
Default
 62
     7
  2
Object_1
 10
11.745000
 20
-10.160000
 30
0.000000
  0
POINT
  8
Default
 62
     7
 10
7.000000
 20
4.000000
 30
0.000000
  0
POINT
  8
Default
 62
     7
 10
2.000000
 20
2.000000
 30
0.000000
  0
CIRCLE
  8
Default
 62
     6
  6
CONTINUOUS
 10
0.000000
 20
0.000000
 30
0.000000
 40
5.625000
  0
LINE
  8
Default
 62
     6
  6
CONTINUOUS
 10
8.558736
 20
3.551548
 30
0.000000
 11
0.101759
 21
8.052325
 31
0.000000
  0
ARC
  8
Default
 62
     6
  6
CONTINUOUS
 10
-0.454962
 20
7.006244
 30
0.000000
 40
1.185000
 50
61.978232
 51
126.922088
  0
LINE
  8
Default
 62
     6
  6
CONTINUOUS
 10
-1.166825
 20
7.953596
 30
0.000000
 11
-5.943317
 21
4.364424
 31
0.000000
  0
ARC
  8
Default
 62
     6
  6
CONTINUOUS
 10
-5.267497
 20
3.465039
 30
0.000000
 40
1.125000
 50
126.922088
 51
172.752980
  0
ARC
  8
Default
 62
     6
  6
CONTINUOUS
 10
23.734788
 20
-0.222985
 30
0.000000
 40
30.360835
 50
172.752980
 51
188.514205
  0
ARC
  8
Default
 62
     6
  6
CONTINUOUS
 10
-5.178845
 20
-4.551484
 30
0.000000
 40
1.125000
 50
188.514205
 51
269.181500
  0
LINE
  8
Default
 62
     6
  6
CONTINUOUS
 10
-5.194915
 20
-5.676370
 30
-0.000000
 11
-4.159823
 21
-5.691157
 31
0.000000
  0
ARC
  8
Default
 62
     6
  6
CONTINUOUS
 10
-4.184375
 20
-7.409682
 30
0.000000
 40
1.718700
 50
37.865655
 51
89.181500
  0
LINE
  8
Default
 62
     6
  6
CONTINUOUS
 10
-2.827543
 20
-6.354723
 30
0.000000
 11
-1.739279
 21
-7.754390
 31
0.000000
  0
ARC
  8
Default
 62
     6
  6
CONTINUOUS
 10
-0.653782
 20
-6.910399
 30
0.000000
 40
1.375000
 50
217.865655
 51
280.436726
  0
LINE
  8
Default
 62
     6
  6
CONTINUOUS
 10
-0.404702
 20
-8.262650
 30
0.000000
 11
2.950278
 21
-7.644673
 31
0.000000
  0
ARC
  8
Default
 62
     6
  6
CONTINUOUS
 10
2.701197
 20
-6.292422
 30
-0.000000
 40
1.375000
 50
280.436726
 51
305.350941
  0
LINE
  8
Default
 62
     6
  6
CONTINUOUS
 10
3.496749
 20
-7.413904
 30
0.000000
 11
8.598808
 21
-3.794630
 31
0.000000
  0
ARC
  8
Default
 62
     6
  6
CONTINUOUS
 10
8.671131
 20
-3.896583
 30
-0.000000
 40
0.125000
 50
119.328765
 51
125.350941
  0
ARC
  8
Default
 62
     6
  6
CONTINUOUS
 10
7.936401
 20
-2.588847
 30
-0.000000
 40
1.375000
 50
299.328765
 51
360.275036
  0
LINE
  8
Default
 62
     6
  6
CONTINUOUS
 10
9.311385
 20
-2.582247
 30
0.000000
 11
9.287736
 21
2.344341
 31
0.000000
  0
ARC
  8
Default
 62
     6
  6
CONTINUOUS
 10
7.912752
 20
2.337741
 30
-0.000000
 40
1.375000
 50
0.275036
 51
61.978232
  0
CIRCLE
  8
Default
 62
     6
  6
CONTINUOUS
 10
0.000000
 20
0.000000
 30
0.000000
 40
5.000000
  0
LINE
  8
Default
 62
     6
  6
CONTINUOUS
 10
7.440911
 20
4.763122
 30
0.000000
 11
8.000000
 21
6.000000
 31
0.000000
  0
ARC
  8
Default
 62
     6
  6
CONTINUOUS
 10
8.579952
 20
4.248257
 30
0.000000
 40
1.250000
 50
155.676248
 51
241.978232
  0
LINE
  8
Default
 62
     6
  6
CONTINUOUS
 10
7.992693
 20
3.144796
 30
0.000000
 11
8.265107
 21
2.999818
 31
0.000000
  0
ARC
  8
Default
 62
     6
  6
CONTINUOUS
 10
7.912752
 20
2.337741
 30
0.000000
 40
0.750000
 50
0.275036
 51
61.978232
  0
LINE
  8
Default
 62
     6
  6
CONTINUOUS
 10
8.686392
 20
-2.585247
 30
0.000000
 11
8.662743
 21
2.341341
 31
0.000000
  0
ARC
  8
Default
 62
     6
  6
CONTINUOUS
 10
7.936401
 20
-2.588847
 30
0.000000
 40
0.750000
 50
299.328765
 51
360.275036
  0
ARC
  8
Default
 62
     6
  6
CONTINUOUS
 10
8.671131
 20
-3.896583
 30
0.000000
 40
0.750000
 50
119.328765
 51
125.350941
  0
LINE
  8
Default
 62
     6
  6
CONTINUOUS
 10
3.135134
 20
-6.904139
 30
0.000000
 11
8.237194
 21
-3.284865
 31
0.000000
  0
ARC
  8
Default
 62
     6
  6
CONTINUOUS
 10
2.701197
 20
-6.292422
 30
0.000000
 40
0.750000
 50
280.436726
 51
305.350941
  0
LINE
  8
Default
 62
     6
  6
CONTINUOUS
 10
-0.517920
 20
-7.647990
 30
0.000000
 11
2.837059
 21
-7.030013
 31
0.000000
  0
ARC
  8
Default
 62
     6
  6
CONTINUOUS
 10
-0.653782
 20
-6.910399
 30
0.000000
 40
0.750000
 50
217.865655
 51
280.436726
  0
LINE
  8
Default
 62
     6
  6
CONTINUOUS
 10
-2.334135
 20
-5.971091
 30
0.000000
 11
-1.245871
 21
-7.370758
 31
0.000000
  0
ARC
  8
Default
 62
     6
  6
CONTINUOUS
 10
-4.184375
 20
-7.409682
 30
0.000000
 40
2.343700
 50
37.865655
 51
89.181500
  0
LINE
  8
Default
 62
     6
  6
CONTINUOUS
 10
-5.185987
 20
-5.051433
 30
-0.000000
 11
-4.150895
 21
-5.066221
 31
0.000000
  0
ARC
  8
Default
 62
     6
  6
CONTINUOUS
 10
-5.178845
 20
-4.551484
 30
0.000000
 40
0.500000
 50
188.514205
 51
269.181500
  0
ARC
  8
Default
 62
     6
  6
CONTINUOUS
 10
23.734788
 20
-0.222985
 30
0.000000
 40
29.735835
 50
172.752980
 51
188.514205
  0
ARC
  8
Default
 62
     6
  6
CONTINUOUS
 10
-5.267497
 20
3.465039
 30
0.000000
 40
0.500000
 50
126.922088
 51
172.752980
  0
LINE
  8
Default
 62
     6
  6
CONTINUOUS
 10
-0.791370
 20
7.453937
 30
0.000000
 11
-5.567862
 21
3.864766
 31
0.000000
  0
ARC
  8
Default
 62
     6
  6
CONTINUOUS
 10
-0.454962
 20
7.006244
 30
0.000000
 40
0.560000
 50
61.978232
 51
126.922088
  0
LINE
  8
Default
 62
     6
  6
CONTINUOUS
 10
8.001450
 20
3.140135
 30
0.000000
 11
-0.191870
 21
7.500594
 31
0.000000
  0
LINE
  8
Default
 62
     6
  6
CONTINUOUS
 10
7.707891
 20
2.588367
 30
0.000000
 11
8.001450
 21
3.140135
 31
0.000000
  0
LINE
  8
Default
 62
     6
  6
CONTINUOUS
 10
7.971478
 20
2.448087
 30
0.000000
 11
7.707891
 21
2.588367
 31
0.000000
  0
ARC
  8
Default
 62
     6
  6
CONTINUOUS
 10
7.912752
 20
2.337741
 30
0.000000
 40
0.125000
 50
0.275036
 51
61.978232
  0
LINE
  8
Default
 62
     6
  6
CONTINUOUS
 10
8.061400
 20
-2.588247
 30
0.000000
 11
8.037750
 21
2.338341
 31
0.000000
  0
ARC
  8
Default
 62
     6
  6
CONTINUOUS
 10
7.936401
 20
-2.588847
 30
0.000000
 40
0.125000
 50
299.328765
 51
360.275036
  0
ARC
  8
Default
 62
     6
  6
CONTINUOUS
 10
8.671131
 20
-3.896583
 30
0.000000
 40
1.375000
 50
119.328765
 51
125.350941
  0
LINE
  8
Default
 62
     6
  6
CONTINUOUS
 10
2.773520
 20
-6.394374
 30
0.000000
 11
7.875580
 21
-2.775100
 31
0.000000
  0
ARC
  8
Default
 62
     6
  6
CONTINUOUS
 10
2.701197
 20
-6.292422
 30
0.000000
 40
0.125000
 50
280.436726
 51
305.350941
  0
LINE
  8
Default
 62
     6
  6
CONTINUOUS
 10
-0.631138
 20
-7.033331
 30
0.000000
 11
2.723841
 21
-6.415354
 31
0.000000
  0
ARC
  8
Default
 62
     6
  6
CONTINUOUS
 10
-0.653782
 20
-6.910399
 30
0.000000
 40
0.125000
 50
217.865655
 51
280.436726
  0
LINE
  8
Default
 62
     6
  6
CONTINUOUS
 10
-1.460048
 20
-6.077068
 30
0.000000
 11
-0.752464
 21
-6.987125
 31
0.000000
  0
ARC
  8
Default
 62
     6
  6
CONTINUOUS
 10
0.000000
 20
0.000000
 30
0.000000
 40
6.250000
 50
256.490437
 51
360.000000
  0
ARC
  8
Default
 62
     6
  6
CONTINUOUS
 10
0.000000
 20
0.000000
 30
0.000000
 40
6.250000
 50
0.000000
 51
42.884420
  0
LINE
  8
Default
 62
     6
  6
CONTINUOUS
 10
7.707821
 20
2.588404
 30
0.000000
 11
4.579550
 21
4.253260
 31
0.000000
  0
LINE
  8
Default
 62
     6
  6
CONTINUOUS
 10
7.414192
 20
2.036554
 30
0.000000
 11
7.707821
 21
2.588404
 31
0.000000
  0
LINE
  8
Default
 62
     6
  6
CONTINUOUS
 10
7.435111
 20
-2.321273
 30
0.000000
 11
7.414192
 21
2.036554
 31
0.000000
  0
LINE
  8
Default
 62
     6
  6
CONTINUOUS
 10
6.015738
 20
-3.328141
 30
0.000000
 11
7.435111
 21
-2.321273
 31
0.000000
  0
ARC
  8
Default
 62
     6
  6
CONTINUOUS
 10
0.000000
 20
0.000000
 30
0.000000
 40
6.875000
 50
331.046924
 51
360.000000
  0
ARC
  8
Default
 62
     6
  6
CONTINUOUS
 10
0.000000
 20
0.000000
 30
0.000000
 40
6.875000
 50
0.000000
 51
22.167848
  0
LINE
  8
Default
 62
     6
  6
CONTINUOUS
 10
7.414191
 20
2.036674
 30
0.000000
 11
6.366817
 21
2.594083
 31
0.000000
  0
LINE
  8
Default
 62
     6
  6
CONTINUOUS
 10
5.625000
 20
0.000120
 30
0.000000
 11
7.414191
 21
2.036674
 31
0.000000
  0
ARC
  8
Default
 62
     6
  6
CONTINUOUS
 10
0.000000
 20
0.000000
 30
0.000000
 40
5.625000
 50
0.001222
 51
360.000000
  0
LINE
  8
Default
 62
     6
  6
CONTINUOUS
 10
5.628937
 20
-0.000000
 30
0.000000
 11
5.625000
 21
-0.000000
 31
0.000000
  0
ARC
  8
Default
 62
     6
  6
CONTINUOUS
 10
0.000000
 20
0.000000
 30
0.000000
 40
5.628937
 50
0.000000
 51
82.508573
  0
LINE
  8
Default
 62
     6
  6
CONTINUOUS
 10
-0.448878
 20
6.929374
 30
0.000000
 11
0.733889
 21
5.580891
 31
0.000000
  0
LINE
  8
Default
 62
     6
  6
CONTINUOUS
 10
0.969953
 20
6.174277
 30
0.000000
 11
-0.448878
 21
6.929374
 31
0.000000
  0
ARC
  8
Default
 62
     6
  6
CONTINUOUS
 10
0.000000
 20
0.000000
 30
0.000000
 40
6.250000
 50
81.072043
 51
105.281509
  0
LINE
  8
Default
 62
     6
  6
CONTINUOUS
 10
-0.448984
 20
6.929430
 30
0.000000
 11
-1.647261
 21
6.029016
 31
0.000000
  0
LINE
  8
Default
 62
     6
  6
CONTINUOUS
 10
-1.016698
 20
5.534356
 30
0.000000
 11
-0.448984
 21
6.929430
 31
0.000000
  0
ARC
  8
Default
 62
     6
  6
CONTINUOUS
 10
0.000000
 20
0.000000
 30
0.000000
 40
5.626969
 50
100.409550
 51
215.303506
  0
LINE
  8
Default
 62
     6
  6
CONTINUOUS
 10
-5.070757
 20
-4.427897
 30
0.000000
 11
-4.592182
 21
-3.251868
 31
0.000000
  0
ARC
  8
Default
 62
     6
  6
CONTINUOUS
 10
23.734788
 20
-0.222985
 30
0.000000
 40
29.110835
 50
186.417743
 51
188.305138
  0
ARC
  8
Default
 62
     6
  6
CONTINUOUS
 10
0.000000
 20
0.000000
 30
0.000000
 40
6.250000
 50
213.800541
 51
225.235980
  0
TEXT
  8
1002
 62
     3
 10
-5.710504
 20
-4.428016
 30
1.968504
 40
0.196850
  1
Start Here
 72
     1
 11
-5.070740
 21
-4.428016
 31
1.968504
  0
LINE
  8
Default
 62
     6
  6
CONTINUOUS
 10
-5.070740
 20
-4.428016
 30
-0.000000
 11
-4.401178
 21
-4.437582
 31
-0.000000
  0
LINE
  8
1002
 62
     3
  6
CONTINUOUS
 10
-5.070740
 20
-4.428016
 30
-0.000000
 11
-5.070740
 21
-4.428016
 31
1.968504
  0
ENDSEC
  0
EOF
