  0
SECTION
  2
HEADER
  9
$ACADVER
  1
AC1006
  0
ENDSEC
  0
SECTION
  2
TABLES
  0
TABLE
  2
LTYPE
 70
    25
  0
LTYPE
  2
CONTINUOUS
 70
    64
  3
Solid line
 72
    64
 73
     0
 40
0.000000
  0
LTYPE
  2
DASHDOT
 70
    64
  3
__ . __ . __ . __ . __ . __ . __ . __ . __ . __
 72
    65
 73
     4
 40
1.000000
 49
0.500000
 49
-0.250000
 49
0.000000
 49
-0.250000
  0
LTYPE
  2
DASHED
 70
    64
  3
__ __ __ __ __ __ __ __ __ __ __ __ __ __ __ __
 72
    65
 73
     2
 40
0.750000
 49
0.500000
 49
-0.250000
  0
LTYPE
  2
DIVIDE
 70
    64
  3
____ . . ____ . . ____ . . ____ . . ____ . . __
 72
    65
 73
     6
 40
1.250000
 49
0.500000
 49
-0.250000
 49
0.000000
 49
-0.250000
 49
0.000000
 49
-0.250000
  0
LTYPE
  2
DOT
 70
    64
  3
. . . . . . . . . . . . . . . . . . . . . . . . 
 72
    65
 73
     2
 40
0.250000
 49
0.000000
 49
-0.250000
  0
ENDTAB
  0
ENDSEC
  0
SECTION
  2
BLOCKS
  0
BLOCK
  8
0
  2
Object_0
 70
    64
 10
0.000000
 20
0.000000
 30
0.000000
  0
ENDBLK
  0
BLOCK
  8
0
  2
Object_1
 70
    64
 10
0.000000
 20
0.000000
 30
0.000000
  0
ENDBLK
  0
ENDSEC
  0
SECTION
  2
ENTITIES
  0
CIRCLE
  8
Default
 62
     7
  6
CONTINUOUS
 10
-0.454962
 20
7.006244
 30
0.000000
 40
0.303500
  0
POINT
  8
Default
 62
     7
 10
7.920000
 20
-2.675000
 30
0.000000
  0
LINE
  8
Default
 62
     7
  6
CONTINUOUS
 10
-0.454962
 20
7.006244
 30
0.000000
 11
-0.654925
 21
-6.990387
 31
0.000000
  0
LINE
  8
Default
 62
     7
  6
CONTINUOUS
 10
-0.654925
 20
-6.990387
 30
0.000000
 11
0.000000
 21
0.000000
 31
0.000000
  0
CIRCLE
  8
Default
 62
     6
  6
CONTINUOUS
 10
0.000000
 20
0.000000
 30
-0.625000
 40
2.637500
  0
CIRCLE
  8
Default
 62
     9
  6
CONTINUOUS
 10
3.625000
 20
-0.000000
 30
0.000000
 40
0.265625
  0
CIRCLE
  8
Default
 62
     9
  6
CONTINUOUS
 10
0.000000
 20
0.000000
 30
-0.625000
 40
3.000000
  0
CIRCLE
  8
Default
 62
     9
  6
CONTINUOUS
 10
0.000000
 20
-3.625000
 30
0.000000
 40
0.265625
  0
CIRCLE
  8
Default
 62
     9
  6
CONTINUOUS
 10
0.000000
 20
3.625000
 30
0.000000
 40
0.265625
  0
CIRCLE
  8
Default
 62
     9
  6
CONTINUOUS
 10
-3.625000
 20
-0.000000
 30
0.000000
 40
0.265625
  0
CIRCLE
  8
Default
 62
     7
  6
CONTINUOUS
 10
-0.654925
 20
-6.990387
 30
0.000000
 40
0.303500
  0
ARC
  8
Default
 62
     4
  6
CONTINUOUS
 10
-0.454962
 20
7.006244
 30
0.000000
 40
0.560000
 50
61.978232
 51
126.922088
  0
LINE
  8
Default
 62
     4
  6
CONTINUOUS
 10
-5.567862
 20
3.864766
 30
0.000000
 11
-0.791370
 21
7.453937
 31
0.000000
  0
ARC
  8
Default
 62
     4
  6
CONTINUOUS
 10
-5.267497
 20
3.465039
 30
0.000000
 40
0.500000
 50
126.922088
 51
172.752980
  0
ARC
  8
Default
 62
     4
  6
CONTINUOUS
 10
23.734788
 20
-0.222985
 30
0.000000
 40
29.735835
 50
172.752980
 51
188.514205
  0
ARC
  8
Default
 62
     4
  6
CONTINUOUS
 10
-5.178845
 20
-4.551484
 30
0.000000
 40
0.500000
 50
188.514205
 51
269.181500
  0
LINE
  8
Default
 62
     4
  6
CONTINUOUS
 10
-5.185987
 20
-5.051433
 30
-0.000000
 11
-4.150895
 21
-5.066221
 31
0.000000
  0
ARC
  8
Default
 62
     4
  6
CONTINUOUS
 10
-4.184375
 20
-7.409682
 30
0.000000
 40
2.343700
 50
37.865655
 51
89.181500
  0
LINE
  8
Default
 62
     4
  6
CONTINUOUS
 10
-1.245871
 20
-7.370758
 30
0.000000
 11
-2.334135
 21
-5.971091
 31
0.000000
  0
ARC
  8
Default
 62
     4
  6
CONTINUOUS
 10
-5.332890
 20
-3.354144
 30
0.000000
 40
1.825000
 50
89.181500
 51
89.450577
  0
LINE
  8
Default
 62
     7
  6
CONTINUOUS
 10
-0.454962
 20
7.006244
 30
0.000000
 11
0.000000
 21
0.000000
 31
0.000000
  0
ARC
  8
Default
 62
     4
  6
CONTINUOUS
 10
-0.653782
 20
-6.910399
 30
0.000000
 40
0.750000
 50
217.865655
 51
280.436726
  0
LINE
  8
Default
 62
     4
  6
CONTINUOUS
 10
2.837059
 20
-7.030013
 30
0.000000
 11
-0.517920
 21
-7.647990
 31
0.000000
  0
ARC
  8
Default
 62
     4
  6
CONTINUOUS
 10
2.701197
 20
-6.292422
 30
-0.000000
 40
0.750000
 50
280.436726
 51
305.350941
  0
LINE
  8
Default
 62
     4
  6
CONTINUOUS
 10
8.237194
 20
-3.284865
 30
0.000000
 11
3.135134
 21
-6.904139
 31
0.000000
  0
ARC
  8
Default
 62
     4
  6
CONTINUOUS
 10
8.671131
 20
-3.896583
 30
-0.000000
 40
0.750000
 50
119.328765
 51
125.350941
  0
LINE
  8
Default
 62
     6
  6
CONTINUOUS
 10
-7.000000
 20
-0.675000
 30
0.000000
 11
7.000000
 21
-0.475000
 31
0.000000
  0
POINT
  8
Default
 62
     7
 10
-7.000000
 20
-0.675000
 30
0.000000
  0
POINT
  8
Default
 62
     7
 10
7.000000
 20
-0.475000
 30
0.000000
  0
POINT
  8
Default
 62
     7
 10
0.000000
 20
0.000000
 30
0.000000
  0
LINE
  8
Default
 62
     6
  6
CONTINUOUS
 10
8.125000
 20
2.460000
 30
0.000000
 11
0.000000
 21
0.000000
 31
0.000000
  0
POINT
  8
Default
 62
     7
 10
8.125000
 20
2.460000
 30
0.000000
  0
LINE
  8
Default
 62
     6
  6
CONTINUOUS
 10
7.920000
 20
-2.675000
 30
0.000000
 11
0.000000
 21
0.000000
 31
0.000000
  0
LINE
  8
Default
 62
     6
  6
CONTINUOUS
 10
7.920000
 20
-2.675000
 30
0.000000
 11
8.125000
 21
2.460000
 31
0.000000
  0
LINE
  8
Default
 62
     6
  6
CONTINUOUS
 10
7.920000
 20
-2.675000
 30
0.000000
 11
-0.654925
 21
-6.990387
 31
0.000000
  0
LINE
  8
Default
 62
     6
  6
CONTINUOUS
 10
8.125000
 20
2.460000
 30
0.000000
 11
-0.454962
 21
7.006244
 31
0.000000
  0
INSERT
  8
Default
 62
     7
  2
Object_0
 10
-10.160000
 20
-10.160000
 30
0.000000
 50
1.570796
  0
POINT
  8
Default
 62
     7
 10
-0.338979
 20
-7.615030
 30
0.000000
  0
POINT
  8
Default
 62
     7
 10
8.274914
 20
-3.258107
 30
0.000000
  0
POINT
  8
Default
 62
     7
 10
3.000000
 20
-7.000000
 30
0.000000
  0
ARC
  8
Default
 62
     4
  6
CONTINUOUS
 10
7.936401
 20
-2.588847
 30
-0.000000
 40
0.750000
 50
299.328765
 51
360.275036
  0
LINE
  8
Default
 62
     4
  6
CONTINUOUS
 10
8.686392
 20
-2.585247
 30
0.000000
 11
8.662743
 21
2.341341
 31
0.000000
  0
ARC
  8
Default
 62
     4
  6
CONTINUOUS
 10
7.912752
 20
2.337741
 30
-0.000000
 40
0.750000
 50
0.275036
 51
61.978232
  0
LINE
  8
Default
 62
     4
  6
CONTINUOUS
 10
8.265107
 20
2.999818
 30
0.000000
 11
-0.191870
 21
7.500594
 31
0.000000
  0
CIRCLE
  8
Default
 62
     6
  6
CONTINUOUS
 10
-0.454962
 20
7.006244
 30
0.000000
 40
0.111000
  0
CIRCLE
  8
Default
 62
     6
  6
CONTINUOUS
 10
-0.454962
 20
7.006244
 30
0.000000
 40
0.116000
  0
CIRCLE
  8
Default
 62
     6
  6
CONTINUOUS
 10
-0.654925
 20
-6.990387
 30
0.000000
 40
0.111000
  0
CIRCLE
  8
Default
 62
     6
  6
CONTINUOUS
 10
-0.654925
 20
-6.990387
 30
0.000000
 40
0.116000
  0
ARC
  8
Default
 62
     6
  6
CONTINUOUS
 10
7.912752
 20
2.337741
 30
0.000000
 40
1.117500
 50
0.275036
 51
61.978232
  0
ARC
  8
Default
 62
     6
  6
CONTINUOUS
 10
11.030216
 20
2.352706
 30
0.000000
 40
2.000000
 50
90.275036
 51
180.275036
  0
LINE
  8
Default
 62
     6
  6
CONTINUOUS
 10
9.030239
 20
2.343105
 30
0.000000
 11
9.053888
 21
-2.583483
 31
0.000000
  0
ARC
  8
Default
 62
     6
  6
CONTINUOUS
 10
7.936401
 20
-2.588847
 30
0.000000
 40
1.117500
 50
299.328765
 51
360.275036
  0
ARC
  8
Default
 62
     6
  6
CONTINUOUS
 10
8.671131
 20
-3.896583
 30
0.000000
 40
0.382500
 50
119.328765
 51
125.350941
  0
LINE
  8
Default
 62
     6
  6
CONTINUOUS
 10
8.449823
 20
-3.584607
 30
0.000000
 11
3.347763
 21
-7.203881
 31
0.000000
  0
ARC
  8
Default
 62
     6
  6
CONTINUOUS
 10
2.701197
 20
-6.292422
 30
0.000000
 40
1.117500
 50
280.436726
 51
305.350941
  0
LINE
  8
Default
 62
     6
  6
CONTINUOUS
 10
2.903632
 20
-7.391433
 30
0.000000
 11
-0.451348
 21
-8.009410
 31
0.000000
  0
ARC
  8
Default
 62
     6
  6
CONTINUOUS
 10
-0.653782
 20
-6.910399
 30
0.000000
 40
1.117500
 50
217.865655
 51
280.436726
  0
LINE
  8
Default
 62
     6
  6
CONTINUOUS
 10
-1.535995
 20
-7.596334
 30
0.000000
 11
-2.624259
 21
-6.196667
 31
0.000000
  0
ARC
  8
Default
 62
     6
  6
CONTINUOUS
 10
-4.184375
 20
-7.409682
 30
0.000000
 40
1.976200
 50
37.865655
 51
89.181500
  0
LINE
  8
Default
 62
     6
  6
CONTINUOUS
 10
-4.156144
 20
-5.433684
 30
0.000000
 11
-5.191237
 21
-5.418896
 31
-0.000000
  0
ARC
  8
Default
 62
     6
  6
CONTINUOUS
 10
-5.178845
 20
-4.551484
 30
-0.000000
 40
0.867500
 50
188.514205
 51
269.181500
  0
ARC
  8
Default
 62
     6
  6
CONTINUOUS
 10
23.734788
 20
-0.222985
 30
0.000000
 40
30.103335
 50
172.752980
 51
188.514205
  0
ARC
  8
Default
 62
     6
  6
CONTINUOUS
 10
-5.267497
 20
3.465039
 30
0.000000
 40
0.867500
 50
126.922088
 51
172.752980
  0
LINE
  8
Default
 62
     6
  6
CONTINUOUS
 10
-5.788629
 20
4.158565
 30
0.000000
 11
-1.012138
 21
7.747736
 31
0.000000
  0
ARC
  8
Default
 62
     6
  6
CONTINUOUS
 10
-0.454962
 20
7.006244
 30
0.000000
 40
0.927500
 50
61.978232
 51
126.922088
  0
LINE
  8
Default
 62
     6
  6
CONTINUOUS
 10
-0.019216
 20
7.825012
 30
0.000000
 11
8.437761
 21
3.324235
 31
0.000000
  0
ARC
  8
Default
 62
     6
  6
CONTINUOUS
 10
11.030216
 20
2.352706
 30
0.000000
 40
2.000000
 50
180.275036
 51
270.275036
  0
LINE
  8
Default
 62
     6
  6
CONTINUOUS
 10
8.435412
 20
3.319822
 30
0.000000
 11
-0.021565
 21
7.820598
 31
0.000000
  0
ARC
  8
Default
 62
     6
  6
CONTINUOUS
 10
-0.454962
 20
7.006244
 30
0.000000
 40
0.922500
 50
61.978232
 51
126.922088
  0
LINE
  8
Default
 62
     6
  6
CONTINUOUS
 10
-1.009134
 20
7.743739
 30
0.000000
 11
-5.785626
 21
4.154568
 31
0.000000
  0
ARC
  8
Default
 62
     6
  6
CONTINUOUS
 10
-5.267497
 20
3.465039
 30
0.000000
 40
0.862500
 50
126.922088
 51
172.752980
  0
ARC
  8
Default
 62
     6
  6
CONTINUOUS
 10
23.734788
 20
-0.222985
 30
0.000000
 40
30.098335
 50
172.752980
 51
188.514205
  0
ARC
  8
Default
 62
     6
  6
CONTINUOUS
 10
-5.178845
 20
-4.551484
 30
-0.000000
 40
0.862500
 50
188.514205
 51
269.181500
  0
LINE
  8
Default
 62
     6
  6
CONTINUOUS
 10
-5.191166
 20
-5.413896
 30
-0.000000
 11
-4.156073
 21
-5.428684
 31
0.000000
  0
ARC
  8
Default
 62
     6
  6
CONTINUOUS
 10
-4.184375
 20
-7.409682
 30
0.000000
 40
1.981200
 50
37.865655
 51
89.181500
  0
LINE
  8
Default
 62
     6
  6
CONTINUOUS
 10
-2.620312
 20
-6.193598
 30
0.000000
 11
-1.532048
 21
-7.593265
 31
0.000000
  0
ARC
  8
Default
 62
     6
  6
CONTINUOUS
 10
-0.653782
 20
-6.910399
 30
0.000000
 40
1.112500
 50
217.865655
 51
280.436726
  0
LINE
  8
Default
 62
     6
  6
CONTINUOUS
 10
-0.452253
 20
-8.004493
 30
0.000000
 11
2.902726
 21
-7.386516
 31
0.000000
  0
ARC
  8
Default
 62
     6
  6
CONTINUOUS
 10
2.701197
 20
-6.292422
 30
0.000000
 40
1.112500
 50
280.436726
 51
305.350941
  0
LINE
  8
Default
 62
     6
  6
CONTINUOUS
 10
3.344871
 20
-7.199803
 30
0.000000
 11
8.446930
 21
-3.580528
 31
0.000000
  0
ARC
  8
Default
 62
     6
  6
CONTINUOUS
 10
8.671131
 20
-3.896583
 30
0.000000
 40
0.387500
 50
119.328765
 51
125.350941
  0
ARC
  8
Default
 62
     6
  6
CONTINUOUS
 10
7.936401
 20
-2.588847
 30
0.000000
 40
1.112500
 50
299.328765
 51
360.275036
  0
LINE
  8
Default
 62
     6
  6
CONTINUOUS
 10
9.048888
 20
-2.583507
 30
0.000000
 11
9.025239
 21
2.343081
 31
0.000000
  0
ARC
  8
Default
 62
     6
  6
CONTINUOUS
 10
7.912752
 20
2.337741
 30
0.000000
 40
1.112500
 50
0.275036
 51
61.978232
  0
CIRCLE
  8
Default
 62
     6
  6
CONTINUOUS
 10
0.000000
 20
0.000000
 30
-0.625000
 40
2.632500
  0
CIRCLE
  8
Default
 62
     9
  6
CONTINUOUS
 10
0.000000
 20
0.000000
 30
-0.125000
 40
4.251000
  0
CIRCLE
  8
Default
 62
     6
  6
CONTINUOUS
 10
0.000000
 20
0.000000
 30
-0.625000
 40
2.632500
  0
CIRCLE
  8
Default
 62
     6
  6
CONTINUOUS
 10
0.000000
 20
0.000000
 30
-0.625000
 40
2.637500
  0
POINT
  8
Default
 62
     7
 10
-0.454962
 20
7.006244
 30
0.000000
  0
POINT
  8
Default
 62
     7
 10
-0.654925
 20
-6.990387
 30
0.000000
  0
POINT
  8
Default
 62
     7
 10
-5.351278
 20
-3.277109
 30
0.000000
  0
POINT
  8
Default
 62
     7
 10
-5.255477
 20
3.428643
 30
0.000000
  0
ARC
  8
Default
 62
     6
  6
CONTINUOUS
 10
-0.454962
 20
7.006244
 30
0.000000
 40
1.060000
 50
61.978232
 51
126.922088
  0
LINE
  8
Default
 62
     6
  6
CONTINUOUS
 10
-1.091734
 20
7.853664
 30
0.000000
 11
-5.868226
 21
4.264492
 31
0.000000
  0
ARC
  8
Default
 62
     6
  6
CONTINUOUS
 10
-5.267497
 20
3.465039
 30
0.000000
 40
1.000000
 50
126.922088
 51
172.752980
  0
ARC
  8
Default
 62
     6
  6
CONTINUOUS
 10
23.734788
 20
-0.222985
 30
0.000000
 40
30.235835
 50
172.752980
 51
188.514205
  0
ARC
  8
Default
 62
     6
  6
CONTINUOUS
 10
-5.178845
 20
-4.551484
 30
0.000000
 40
1.000000
 50
188.514205
 51
269.181500
  0
LINE
  8
Default
 62
     6
  6
CONTINUOUS
 10
-5.193130
 20
-5.551382
 30
-0.000000
 11
-4.158037
 21
-5.566170
 31
0.000000
  0
ARC
  8
Default
 62
     6
  6
CONTINUOUS
 10
-4.184375
 20
-7.409682
 30
0.000000
 40
1.843700
 50
37.865655
 51
89.181500
  0
LINE
  8
Default
 62
     6
  6
CONTINUOUS
 10
-2.728862
 20
-6.277997
 30
0.000000
 11
-1.640597
 21
-7.677664
 31
0.000000
  0
ARC
  8
Default
 62
     6
  6
CONTINUOUS
 10
-0.653782
 20
-6.910399
 30
0.000000
 40
1.250000
 50
217.865655
 51
280.436726
  0
LINE
  8
Default
 62
     6
  6
CONTINUOUS
 10
-0.427345
 20
-8.139718
 30
0.000000
 11
2.927634
 21
-7.521741
 31
0.000000
  0
ARC
  8
Default
 62
     6
  6
CONTINUOUS
 10
2.701197
 20
-6.292422
 30
-0.000000
 40
1.250000
 50
280.436726
 51
305.350941
  0
LINE
  8
Default
 62
     6
  6
CONTINUOUS
 10
3.424426
 20
-7.311951
 30
0.000000
 11
8.526486
 21
-3.692677
 31
0.000000
  0
ARC
  8
Default
 62
     6
  6
CONTINUOUS
 10
8.671131
 20
-3.896583
 30
-0.000000
 40
0.250000
 50
119.328765
 51
125.350941
  0
ARC
  8
Default
 62
     6
  6
CONTINUOUS
 10
7.936401
 20
-2.588847
 30
-0.000000
 40
1.250000
 50
299.328765
 51
360.275036
  0
LINE
  8
Default
 62
     6
  6
CONTINUOUS
 10
9.186387
 20
-2.582847
 30
0.000000
 11
9.162737
 21
2.343741
 31
0.000000
  0
ARC
  8
Default
 62
     6
  6
CONTINUOUS
 10
7.912752
 20
2.337741
 30
-0.000000
 40
1.250000
 50
0.275036
 51
61.978232
  0
LINE
  8
Default
 62
     6
  6
CONTINUOUS
 10
8.500011
 20
3.441202
 30
0.000000
 11
0.043033
 21
7.941979
 31
0.000000
  0
CIRCLE
  8
Default
 62
     6
  6
CONTINUOUS
 10
0.000000
 20
0.000000
 30
0.000000
 40
4.500000
  0
POINT
  8
Default
 62
     7
 10
8.000000
 20
6.000000
 30
0.000000
  0
LINE
  8
Default
 62
     6
  6
CONTINUOUS
 10
6.614661
 20
5.767501
 30
0.000000
 11
8.000000
 21
6.000000
 31
0.000000
  0
LINE
  8
1002
 62
     3
  6
CONTINUOUS
 10
5.125000
 20
-0.000000
 30
0.000000
 11
5.125000
 21
-0.000000
 31
1.968504
  0
ARC
  8
Default
 62
     6
  6
CONTINUOUS
 10
6.780174
 20
4.781294
 30
0.000000
 40
1.000000
 50
99.527057
 51
241.978232
  0
LINE
  8
Default
 62
     6
  6
CONTINUOUS
 10
6.310367
 20
3.898524
 30
0.000000
 11
8.206381
 21
2.889472
 31
0.000000
  0
ARC
  8
Default
 62
     6
  6
CONTINUOUS
 10
7.912752
 20
2.337741
 30
-0.000000
 40
0.625000
 50
0.275036
 51
61.978232
  0
LINE
  8
Default
 62
     6
  6
CONTINUOUS
 10
8.561394
 20
-2.585847
 30
0.000000
 11
8.537745
 21
2.340741
 31
0.000000
  0
ARC
  8
Default
 62
     6
  6
CONTINUOUS
 10
7.936401
 20
-2.588847
 30
-0.000000
 40
0.625000
 50
299.328765
 51
360.275036
  0
ARC
  8
Default
 62
     6
  6
CONTINUOUS
 10
8.671131
 20
-3.896583
 30
-0.000000
 40
0.875000
 50
119.328765
 51
125.350941
  0
LINE
  8
Default
 62
     6
  6
CONTINUOUS
 10
3.062811
 20
-6.802186
 30
0.000000
 11
8.164871
 21
-3.182912
 31
0.000000
  0
ARC
  8
Default
 62
     6
  6
CONTINUOUS
 10
2.701197
 20
-6.292422
 30
-0.000000
 40
0.625000
 50
280.436726
 51
305.350941
  0
LINE
  8
Default
 62
     6
  6
CONTINUOUS
 10
-0.540564
 20
-7.525058
 30
0.000000
 11
2.814415
 21
-6.907081
 31
0.000000
  0
ARC
  8
Default
 62
     6
  6
CONTINUOUS
 10
-0.653782
 20
-6.910399
 30
0.000000
 40
0.625000
 50
217.865655
 51
280.436726
  0
LINE
  8
Default
 62
     6
  6
CONTINUOUS
 10
-2.235454
 20
-5.894364
 30
0.000000
 11
-1.147190
 21
-7.294031
 31
0.000000
  0
ARC
  8
Default
 62
     6
  6
CONTINUOUS
 10
-4.184375
 20
-7.409682
 30
0.000000
 40
2.468700
 50
37.865655
 51
89.181500
  0
LINE
  8
Default
 62
     6
  6
CONTINUOUS
 10
-5.184202
 20
-4.926446
 30
-0.000000
 11
-4.149109
 21
-4.941234
 31
0.000000
  0
ARC
  8
Default
 62
     6
  6
CONTINUOUS
 10
-5.178845
 20
-4.551484
 30
0.000000
 40
0.375000
 50
188.514205
 51
269.181500
  0
ARC
  8
Default
 62
     6
  6
CONTINUOUS
 10
23.734788
 20
-0.222985
 30
0.000000
 40
29.610835
 50
172.752980
 51
188.514205
  0
ARC
  8
Default
 62
     6
  6
CONTINUOUS
 10
-5.267497
 20
3.465039
 30
0.000000
 40
0.375000
 50
126.922088
 51
172.752980
  0
LINE
  8
Default
 62
     6
  6
CONTINUOUS
 10
-0.716279
 20
7.354006
 30
0.000000
 11
-5.492770
 21
3.764834
 31
0.000000
  0
ARC
  8
Default
 62
     6
  6
CONTINUOUS
 10
-0.454962
 20
7.006244
 30
-0.000000
 40
0.435000
 50
61.978232
 51
126.922088
  0
LINE
  8
Default
 62
     6
  6
CONTINUOUS
 10
6.319124
 20
3.893864
 30
0.000000
 11
-0.250596
 21
7.390248
 31
0.000000
  0
LINE
  8
Default
 62
     6
  6
CONTINUOUS
 10
6.025565
 20
3.342096
 30
0.000000
 11
6.319124
 21
3.893864
 31
0.000000
  0
LINE
  8
Default
 62
     6
  6
CONTINUOUS
 10
7.912752
 20
2.337741
 30
0.000000
 11
6.025565
 21
3.342096
 31
0.000000
  0
LINE
  8
Default
 62
     6
  6
CONTINUOUS
 10
7.936401
 20
-2.588847
 30
0.000000
 11
7.912752
 21
2.337741
 31
0.000000
  0
ARC
  8
Default
 62
     6
  6
CONTINUOUS
 10
8.671131
 20
-3.896583
 30
-0.000000
 40
1.500000
 50
119.328765
 51
125.350941
  0
LINE
  8
Default
 62
     6
  6
CONTINUOUS
 10
2.701197
 20
-6.292422
 30
0.000000
 11
7.803257
 21
-2.673147
 31
0.000000
  0
LINE
  8
Default
 62
     6
  6
CONTINUOUS
 10
-0.653782
 20
-6.910399
 30
0.000000
 11
2.701197
 21
-6.292422
 31
0.000000
  0
LINE
  8
Default
 62
     6
  6
CONTINUOUS
 10
-1.742046
 20
-5.510732
 30
0.000000
 11
-0.653782
 21
-6.910399
 31
0.000000
  0
ARC
  8
Default
 62
     6
  6
CONTINUOUS
 10
-4.184375
 20
-7.409682
 30
0.000000
 40
3.093700
 50
37.865655
 51
38.846431
  0
ARC
  8
Default
 62
     6
  6
CONTINUOUS
 10
0.000000
 20
0.000000
 30
0.000000
 40
5.750000
 50
252.020318
 51
360.000000
  0
ARC
  8
Default
 62
     6
  6
CONTINUOUS
 10
0.000000
 20
0.000000
 30
0.000000
 40
5.750000
 50
0.000000
 51
118.263836
  0
LINE
  8
Default
 62
     6
  6
CONTINUOUS
 10
-0.437487
 20
6.781712
 30
0.000000
 11
-2.722811
 21
5.064464
 31
0.000000
  0
LINE
  8
Default
 62
     6
  6
CONTINUOUS
 10
6.025495
 20
3.342133
 30
0.000000
 11
-0.437487
 21
6.781712
 31
0.000000
  0
LINE
  8
Default
 62
     6
  6
CONTINUOUS
 10
5.731971
 20
2.790346
 30
0.000000
 11
6.025495
 21
3.342133
 31
0.000000
  0
LINE
  8
Default
 62
     6
  6
CONTINUOUS
 10
7.289551
 20
1.961407
 30
0.000000
 11
5.731971
 21
2.790346
 31
0.000000
  0
LINE
  8
Default
 62
     6
  6
CONTINUOUS
 10
7.309800
 20
-2.256908
 30
0.000000
 11
7.289551
 21
1.961407
 31
0.000000
  0
LINE
  8
Default
 62
     6
  6
CONTINUOUS
 10
5.100824
 20
-3.823901
 30
0.000000
 11
7.309800
 21
-2.256908
 31
0.000000
  0
ARC
  8
Default
 62
     6
  6
CONTINUOUS
 10
0.000000
 20
0.000000
 30
0.000000
 40
6.375000
 50
323.142452
 51
360.000000
  0
TEXT
  8
1002
 62
     3
 10
4.485236
 20
-0.000000
 30
1.968504
 40
0.196850
  1
Start Here
 72
     1
 11
5.125000
 21
-0.000000
 31
1.968504
  0
INSERT
  8
Default
 62
     7
  2
Object_1
 10
11.745000
 20
-10.160000
 30
0.000000
  0
POINT
  8
Default
 62
     7
 10
7.000000
 20
4.000000
 30
0.000000
  0
ARC
  8
Default
 62
     6
  6
CONTINUOUS
 10
0.000000
 20
0.000000
 30
0.000000
 40
6.375000
 50
0.000000
 51
25.957873
  0
POINT
  8
Default
 62
     7
 10
2.000000
 20
2.000000
 30
0.000000
  0
LINE
  8
Default
 62
     6
  6
CONTINUOUS
 10
5.125000
 20
0.000120
 30
0.000000
 11
5.731865
 21
2.790402
 31
0.000000
  0
ARC
  8
Default
 62
     6
  6
CONTINUOUS
 10
0.000000
 20
0.000000
 30
0.000000
 40
5.125000
 50
0.001342
 51
360.000000
  0
ENDSEC
  0
EOF
