  0
SECTION
  2
HEADER
  9
$ACADVER
  1
AC1006
  0
ENDSEC
  0
SECTION
  2
TABLES
  0
TABLE
  2
LTYPE
 70
    25
  0
LTYPE
  2
CONTINUOUS
 70
    64
  3
Solid line
 72
    64
 73
     0
 40
0.000000
  0
LTYPE
  2
DASHDOT
 70
    64
  3
__ . __ . __ . __ . __ . __ . __ . __ . __ . __
 72
    65
 73
     4
 40
1.000000
 49
0.500000
 49
-0.250000
 49
0.000000
 49
-0.250000
  0
LTYPE
  2
DASHED
 70
    64
  3
__ __ __ __ __ __ __ __ __ __ __ __ __ __ __ __
 72
    65
 73
     2
 40
0.750000
 49
0.500000
 49
-0.250000
  0
LTYPE
  2
DIVIDE
 70
    64
  3
____ . . ____ . . ____ . . ____ . . ____ . . __
 72
    65
 73
     6
 40
1.250000
 49
0.500000
 49
-0.250000
 49
0.000000
 49
-0.250000
 49
0.000000
 49
-0.250000
  0
LTYPE
  2
DOT
 70
    64
  3
. . . . . . . . . . . . . . . . . . . . . . . . 
 72
    65
 73
     2
 40
0.250000
 49
0.000000
 49
-0.250000
  0
ENDTAB
  0
ENDSEC
  0
SECTION
  2
BLOCKS
  0
BLOCK
  8
0
  2
Object_0
 70
    64
 10
0.000000
 20
0.000000
 30
0.000000
  0
ENDBLK
  0
ENDSEC
  0
SECTION
  2
ENTITIES
  0
POINT
  8
Default
 62
     7
 10
6.471893
 20
-1.471146
 30
0.000000
  0
LINE
  8
Default
 62
     6
  6
CONTINUOUS
 10
-0.000000
 20
0.000031
 30
0.000000
 11
-6.432046
 21
-1.636599
 31
0.000000
  0
LINE
  8
Default
 62
     6
  6
CONTINUOUS
 10
-0.000000
 20
0.000031
 30
0.000000
 11
0.019924
 21
-1.553867
 31
0.000000
  0
POINT
  8
Default
 62
     7
 10
2.348592
 20
6.370919
 30
0.000000
  0
POINT
  8
Default
 62
     7
 10
0.019924
 20
-1.553867
 30
0.000000
  0
LINE
  8
Default
 62
     6
  6
CONTINUOUS
 10
6.471893
 20
-1.471146
 30
0.000000
 11
-0.000000
 21
0.000031
 31
0.000000
  0
LINE
  8
Default
 62
     6
  6
CONTINUOUS
 10
0.019924
 20
-1.553872
 30
0.000000
 11
6.471893
 21
-1.471146
 31
0.000000
  0
LINE
  8
Default
 62
     6
  6
CONTINUOUS
 10
0.019924
 20
-1.553872
 30
0.000000
 11
-6.432046
 21
-1.636599
 31
0.000000
  0
CIRCLE
  8
Default
 62
     6
  6
CONTINUOUS
 10
-6.432046
 20
-1.636599
 30
0.000000
 40
0.335000
  0
CIRCLE
  8
Default
 62
     6
  6
CONTINUOUS
 10
6.471893
 20
-1.471146
 30
0.000000
 40
0.335000
  0
LINE
  8
Default
 62
     7
  6
CONTINUOUS
 10
-6.431942
 20
-1.644726
 30
0.000000
 11
-6.413481
 21
-3.084526
 31
0.000000
  0
LINE
  8
Default
 62
     7
  6
CONTINUOUS
 10
6.471997
 20
-1.479273
 30
0.000000
 11
6.490458
 21
-2.919073
 31
0.000000
  0
LINE
  8
Default
 62
     7
  6
CONTINUOUS
 10
-6.413637
 20
-3.072335
 30
0.000000
 11
6.490302
 21
-2.906882
 31
0.000000
  0
LINE
  8
Default
 62
     7
  6
CONTINUOUS
 10
-6.413637
 20
-3.072335
 30
0.000000
 11
-6.333798
 21
-3.059310
 31
0.000000
  0
LINE
  8
Default
 62
     7
  6
CONTINUOUS
 10
-6.413637
 20
-3.072335
 30
0.000000
 11
-6.333490
 21
-3.083308
 31
0.000000
  0
LINE
  8
Default
 62
     7
  6
CONTINUOUS
 10
6.490302
 20
-2.906882
 30
0.000000
 11
6.410462
 21
-2.919906
 31
0.000000
  0
LINE
  8
Default
 62
     7
  6
CONTINUOUS
 10
6.490302
 20
-2.906882
 30
0.000000
 11
6.410154
 21
-2.895908
 31
0.000000
  0
TEXT
  8
Default
 62
     7
 10
-0.633584
 20
-2.845811
 30
0.000000
 40
0.375000
  1
12.905
 50
0.734600
 72
     1
 11
0.041361
 21
-2.837157
 31
0.000000
  0
CIRCLE
  8
Default
 62
     9
  6
CONTINUOUS
 10
0.000000
 20
0.000000
 30
-0.125000
 40
4.251000
  0
CIRCLE
  8
Default
 62
     9
  6
CONTINUOUS
 10
0.000000
 20
0.000000
 30
-0.625000
 40
3.000000
  0
CIRCLE
  8
Default
 62
     9
  6
CONTINUOUS
 10
0.000000
 20
3.625000
 30
0.000000
 40
0.265625
  0
CIRCLE
  8
Default
 62
     9
  6
CONTINUOUS
 10
3.625000
 20
0.000000
 30
0.000000
 40
0.265625
  0
CIRCLE
  8
Default
 62
     9
  6
CONTINUOUS
 10
-3.625000
 20
0.000000
 30
0.000000
 40
0.265625
  0
CIRCLE
  8
Default
 62
     9
  6
CONTINUOUS
 10
-0.000000
 20
-3.625000
 30
0.000000
 40
0.265625
  0
POINT
  8
Default
 62
     7
 10
-0.000000
 20
0.000031
 30
0.000000
  0
POINT
  8
Default
 62
     7
 10
-2.496836
 20
6.357288
 30
0.000000
  0
POINT
  8
Default
 62
     7
 10
-6.432046
 20
-1.636599
 30
0.000000
  0
LINE
  8
Default
 62
     6
  6
CONTINUOUS
 10
0.000001
 20
3.625031
 30
0.000000
 11
-0.000000
 21
0.000031
 31
0.000000
  0
POINT
  8
Default
 62
     7
 10
-4.067421
 20
-5.418152
 30
0.000000
  0
POINT
  8
Default
 62
     7
 10
3.930280
 20
-5.782785
 30
0.000000
  0
CIRCLE
  8
Default
 62
     6
  6
CONTINUOUS
 10
2.348592
 20
6.370919
 30
0.000000
 40
0.218750
  0
CIRCLE
  8
Default
 62
     6
  6
CONTINUOUS
 10
-2.496836
 20
6.357288
 30
0.000000
 40
0.218750
  0
CIRCLE
  8
Default
 62
     6
  6
CONTINUOUS
 10
-4.067421
 20
-5.418152
 30
0.000000
 40
0.218750
  0
CIRCLE
  8
Default
 62
     6
  6
CONTINUOUS
 10
3.930280
 20
-5.782785
 30
0.000000
 40
0.218750
  0
LINE
  8
Default
 62
     7
  6
CONTINUOUS
 10
6.473695
 20
-1.463220
 30
0.000000
 11
6.510453
 21
-1.301517
 31
0.000000
  0
LINE
  8
Default
 62
     7
  6
CONTINUOUS
 10
0.001801
 20
0.007957
 30
0.000000
 11
0.038559
 21
0.169660
 31
0.000000
  0
LINE
  8
Default
 62
     7
  6
CONTINUOUS
 10
6.507750
 20
-1.313406
 30
0.000000
 11
0.035857
 21
0.157771
 31
0.000000
  0
LINE
  8
Default
 62
     7
  6
CONTINUOUS
 10
6.507750
 20
-1.313406
 30
0.000000
 11
6.427080
 21
-1.307374
 31
0.000000
  0
LINE
  8
Default
 62
     7
  6
CONTINUOUS
 10
6.507750
 20
-1.313406
 30
0.000000
 11
6.432400
 21
-1.283971
 31
0.000000
  0
LINE
  8
Default
 62
     7
  6
CONTINUOUS
 10
0.035857
 20
0.157771
 30
0.000000
 11
0.116527
 21
0.151740
 31
0.000000
  0
LINE
  8
Default
 62
     7
  6
CONTINUOUS
 10
0.035857
 20
0.157771
 30
0.000000
 11
0.111207
 21
0.128337
 31
0.000000
  0
TEXT
  8
Default
 62
     7
 10
4.498167
 20
-0.700304
 30
0.000000
 40
0.375000
  1
6.637
 50
-12.806723
 72
     1
 11
5.064957
 21
-0.829145
 31
0.000000
  0
LINE
  8
Default
 62
     7
  6
CONTINUOUS
 10
-6.434051
 20
-1.628722
 30
0.000000
 11
-6.472817
 21
-1.476369
 31
0.000000
  0
LINE
  8
Default
 62
     7
  6
CONTINUOUS
 10
-0.002005
 20
0.007908
 30
0.000000
 11
-0.040771
 21
0.160261
 31
0.000000
  0
LINE
  8
Default
 62
     7
  6
CONTINUOUS
 10
-6.469810
 20
-1.488184
 30
0.000000
 11
-0.037765
 21
0.148445
 31
0.000000
  0
LINE
  8
Default
 62
     7
  6
CONTINUOUS
 10
-6.469810
 20
-1.488184
 30
0.000000
 11
-6.395240
 21
-1.456828
 31
0.000000
  0
LINE
  8
Default
 62
     7
  6
CONTINUOUS
 10
-6.469810
 20
-1.488184
 30
0.000000
 11
-6.389322
 21
-1.480086
 31
0.000000
  0
LINE
  8
Default
 62
     7
  6
CONTINUOUS
 10
-0.037765
 20
0.148445
 30
0.000000
 11
-0.112335
 21
0.117089
 31
0.000000
  0
LINE
  8
Default
 62
     7
  6
CONTINUOUS
 10
-0.037765
 20
0.148445
 30
0.000000
 11
-0.118254
 21
0.140348
 31
0.000000
  0
TEXT
  8
Default
 62
     7
 10
-5.716627
 20
-1.139281
 30
0.000000
 40
0.375000
  1
6.637
 50
14.275924
 72
     1
 11
-5.153327
 21
-0.995950
 31
0.000000
  0
LINE
  8
Default
 62
     7
  6
CONTINUOUS
 10
-6.431942
 20
-1.644726
 30
0.000000
 11
-6.423397
 21
-2.311146
 31
0.000000
  0
LINE
  8
Default
 62
     7
  6
CONTINUOUS
 10
0.020027
 20
-1.562000
 30
0.000000
 11
0.028572
 21
-2.228420
 31
0.000000
  0
LINE
  8
Default
 62
     7
  6
CONTINUOUS
 10
-6.423553
 20
-2.298955
 30
0.000000
 11
0.028416
 21
-2.216229
 31
0.000000
  0
LINE
  8
Default
 62
     7
  6
CONTINUOUS
 10
-6.423553
 20
-2.298955
 30
0.000000
 11
-6.343714
 21
-2.285930
 31
0.000000
  0
LINE
  8
Default
 62
     7
  6
CONTINUOUS
 10
-6.423553
 20
-2.298955
 30
0.000000
 11
-6.343406
 21
-2.309928
 31
0.000000
  0
LINE
  8
Default
 62
     7
  6
CONTINUOUS
 10
0.028416
 20
-2.216229
 30
0.000000
 11
-0.051424
 21
-2.229253
 31
0.000000
  0
LINE
  8
Default
 62
     7
  6
CONTINUOUS
 10
0.028416
 20
-2.216229
 30
0.000000
 11
-0.051731
 21
-2.205255
 31
0.000000
  0
TEXT
  8
Default
 62
     7
 10
-5.330574
 20
-2.132528
 30
0.000000
 40
0.375000
  1
6.452
 50
0.734600
 72
     1
 11
-4.730624
 21
-2.124836
 31
0.000000
  0
LINE
  8
Default
 62
     7
  6
CONTINUOUS
 10
6.471997
 20
-1.479273
 30
0.000000
 11
6.480715
 21
-2.159174
 31
0.000000
  0
LINE
  8
Default
 62
     7
  6
CONTINUOUS
 10
0.020028
 20
-1.562000
 30
0.000000
 11
0.028746
 21
-2.241901
 31
0.000000
  0
LINE
  8
Default
 62
     7
  6
CONTINUOUS
 10
6.480559
 20
-2.146983
 30
0.000000
 11
0.028589
 21
-2.229710
 31
0.000000
  0
LINE
  8
Default
 62
     7
  6
CONTINUOUS
 10
6.480559
 20
-2.146983
 30
0.000000
 11
6.400719
 21
-2.160008
 31
0.000000
  0
LINE
  8
Default
 62
     7
  6
CONTINUOUS
 10
6.480559
 20
-2.146983
 30
0.000000
 11
6.400411
 21
-2.136010
 31
0.000000
  0
LINE
  8
Default
 62
     7
  6
CONTINUOUS
 10
0.028589
 20
-2.229710
 30
0.000000
 11
0.108429
 21
-2.216685
 31
0.000000
  0
LINE
  8
Default
 62
     7
  6
CONTINUOUS
 10
0.028589
 20
-2.229710
 30
0.000000
 11
0.108737
 21
-2.240683
 31
0.000000
  0
TEXT
  8
Default
 62
     7
 10
4.346326
 20
-2.021936
 30
0.000000
 40
0.375000
  1
6.452
 50
0.734605
 72
     1
 11
4.946277
 21
-2.014243
 31
0.000000
  0
LINE
  8
Default
 62
     7
  6
CONTINUOUS
 10
0.008127
 20
0.000135
 30
0.000000
 11
0.660167
 21
0.008496
 31
0.000000
  0
LINE
  8
Default
 62
     7
  6
CONTINUOUS
 10
0.028051
 20
-1.553762
 30
0.000000
 11
0.680091
 21
-1.545402
 31
0.000000
  0
LINE
  8
Default
 62
     7
  6
CONTINUOUS
 10
0.647976
 20
0.008339
 30
0.000000
 11
0.654815
 21
-0.525039
 31
0.000000
  0
LINE
  8
Default
 62
     7
  6
CONTINUOUS
 10
0.662443
 20
-1.120002
 30
0.000000
 11
0.667900
 21
-1.545558
 31
0.000000
  0
LINE
  8
Default
 62
     7
  6
CONTINUOUS
 10
0.647976
 20
0.008339
 30
0.000000
 11
0.661000
 21
-0.071500
 31
0.000000
  0
LINE
  8
Default
 62
     7
  6
CONTINUOUS
 10
0.647976
 20
0.008339
 30
0.000000
 11
0.637002
 21
-0.071808
 31
0.000000
  0
LINE
  8
Default
 62
     7
  6
CONTINUOUS
 10
0.667900
 20
-1.545558
 30
0.000000
 11
0.654875
 21
-1.465719
 31
0.000000
  0
LINE
  8
Default
 62
     7
  6
CONTINUOUS
 10
0.667900
 20
-1.545558
 30
0.000000
 11
0.678873
 21
-1.465411
 31
0.000000
  0
TEXT
  8
Default
 62
     7
 10
0.098339
 20
-0.998468
 30
0.000000
 40
0.375000
  1
1.554
 50
0.734600
 72
     1
 11
0.660792
 21
-0.991256
 31
0.000000
  0
POINT
  8
Default
 62
     7
 10
0.000000
 20
-6.439968
 30
0.000000
  0
POINT
  8
Default
 62
     7
 10
-2.604785
 20
-6.473398
 30
0.000000
  0
POINT
  8
Default
 62
     7
 10
-4.666127
 20
-5.704718
 30
0.000000
  0
ARC
  8
Default
 62
     6
  6
CONTINUOUS
 10
-8.168520
 20
-6.240229
 30
-0.000000
 40
17.205249
 50
29.001476
 51
40.554254
  0
ARC
  8
Default
 62
     6
  6
CONTINUOUS
 10
5.567405
 20
1.374181
 30
0.000000
 40
1.500000
 50
1.935933
 51
29.001476
  0
POINT
  8
Default
 62
     7
 10
7.170936
 20
-1.663407
 30
0.000000
  0
POINT
  8
Default
 62
     7
 10
4.019670
 20
-6.388460
 30
0.000000
  0
LINE
  8
Default
 62
     6
  6
CONTINUOUS
 10
7.066549
 20
1.424854
 30
0.000000
 11
7.166993
 21
-1.546763
 31
0.000000
  0
POINT
  8
Default
 62
     7
 10
6.850358
 20
-3.256472
 30
0.000000
  0
ARC
  8
Default
 62
     6
  6
CONTINUOUS
 10
6.167564
 20
-1.580545
 30
0.000000
 40
1.000000
 50
348.622139
 51
361.935933
  0
POINT
  8
Default
 62
     7
 10
-6.000000
 20
-4.500000
 30
0.000000
  0
LINE
  8
Default
 62
     6
  6
CONTINUOUS
 10
7.147911
 20
-1.777824
 30
0.000000
 11
6.931671
 21
-2.852398
 31
0.000000
  0
ARC
  8
Default
 62
     6
  6
CONTINUOUS
 10
5.461150
 20
-2.556480
 30
0.000000
 40
1.500000
 50
317.892754
 51
348.622139
  0
POINT
  8
Default
 62
     7
 10
-2.785635
 20
7.092607
 30
0.000000
  0
POINT
  8
Default
 62
     7
 10
-7.301198
 20
-2.179923
 30
0.000000
  0
LINE
  8
Default
 62
     6
  6
CONTINUOUS
 10
6.573987
 20
-3.562261
 30
0.000000
 11
4.239159
 21
-6.145609
 31
0.000000
  0
ARC
  8
Default
 62
     6
  6
CONTINUOUS
 10
3.682740
 20
-5.642719
 30
0.000000
 40
0.750000
 50
270.734600
 51
317.892754
  0
LINE
  8
Default
 62
     6
  6
CONTINUOUS
 10
3.692356
 20
-6.392657
 30
0.000000
 11
-2.324291
 21
-6.469802
 31
0.000000
  0
ARC
  8
Default
 62
     6
  6
CONTINUOUS
 10
-2.343522
 20
-4.969925
 30
0.000000
 40
1.500000
 50
249.549364
 51
270.734600
  0
POINT
  8
Default
 62
     7
 10
2.635680
 20
7.149688
 30
0.000000
  0
LINE
  8
Default
 62
     6
  6
CONTINUOUS
 10
-4.480924
 20
-5.773781
 30
0.000000
 11
-2.867623
 21
-6.375385
 31
0.000000
  0
POINT
  8
Default
 62
     7
 10
4.903868
 20
4.946070
 30
0.000000
  0
ARC
  8
Default
 62
     6
  6
CONTINUOUS
 10
-3.956824
 20
-4.368320
 30
0.000000
 40
1.500000
 50
233.549314
 51
249.549364
  0
ARC
  8
Default
 62
     6
  6
CONTINUOUS
 10
-0.754942
 20
-0.033428
 30
0.000000
 40
6.889187
 50
198.154140
 51
233.549314
  0
LINE
  8
Default
 62
     6
  6
CONTINUOUS
 10
-7.301198
 20
-2.179923
 30
0.000000
 11
-8.100537
 21
1.057538
 31
0.000000
  0
ARC
  8
Default
 62
     6
  6
CONTINUOUS
 10
-6.158845
 20
1.536947
 30
0.000000
 40
2.000000
 50
130.813733
 51
193.869128
  0
LINE
  8
Default
 62
     6
  6
CONTINUOUS
 10
-7.466049
 20
3.050624
 30
0.000000
 11
-2.993417
 21
6.913168
 31
0.000000
  0
ARC
  8
Default
 62
     6
  6
CONTINUOUS
 10
-2.503215
 20
6.345539
 30
0.000000
 40
0.750000
 50
90.603236
 51
130.813733
  0
LINE
  8
Default
 62
     6
  6
CONTINUOUS
 10
-2.511112
 20
7.095498
 30
0.000000
 11
2.326754
 21
7.146435
 31
0.000000
  0
ARC
  8
Default
 62
     6
  6
CONTINUOUS
 10
2.334650
 20
6.396477
 30
0.000000
 40
0.750000
 50
45.827258
 51
90.603236
  0
LINE
  8
Default
 62
     6
  6
CONTINUOUS
 10
2.857268
 20
6.934408
 30
0.000000
 11
4.903868
 21
4.946070
 31
0.000000
  0
POINT
  8
Default
 62
     7
 10
7.054646
 20
1.776992
 30
0.000000
  0
INSERT
  8
Default
 62
     7
  2
Object_0
 10
-10.160000
 20
-10.160000
 30
0.000000
  0
CIRCLE
  8
Default
 62
     6
  6
CONTINUOUS
 10
6.471893
 20
-1.471146
 30
0.000000
 40
0.090000
  0
CIRCLE
  8
Default
 62
     6
  6
CONTINUOUS
 10
6.471893
 20
-1.471146
 30
0.000000
 40
0.085000
  0
CIRCLE
  8
Default
 62
     6
  6
CONTINUOUS
 10
-6.432046
 20
-1.636599
 30
0.000000
 40
0.090000
  0
CIRCLE
  8
Default
 62
     6
  6
CONTINUOUS
 10
-6.432046
 20
-1.636599
 30
0.000000
 40
0.085000
  0
ARC
  8
Default
 62
     6
  6
CONTINUOUS
 10
8.075341
 20
2.764437
 30
-0.000000
 40
1.000000
 50
209.001476
 51
299.001476
  0
ARC
  8
Default
 62
     6
  6
CONTINUOUS
 10
-8.168520
 20
-6.240229
 30
0.000000
 40
17.572749
 50
29.001476
 51
40.554254
  0
ARC
  8
Default
 62
     6
  6
CONTINUOUS
 10
4.903868
 20
4.946070
 30
-0.000000
 40
0.367500
 50
40.554254
 51
45.827258
  0
LINE
  8
Default
 62
     6
  6
CONTINUOUS
 10
5.159951
 20
5.209656
 30
0.000000
 11
3.113351
 21
7.197995
 31
0.000000
  0
ARC
  8
Default
 62
     6
  6
CONTINUOUS
 10
2.334650
 20
6.396477
 30
0.000000
 40
1.117500
 50
45.827258
 51
90.603236
  0
LINE
  8
Default
 62
     6
  6
CONTINUOUS
 10
2.322884
 20
7.513915
 30
0.000000
 11
-2.514981
 21
7.462977
 31
0.000000
  0
ARC
  8
Default
 62
     6
  6
CONTINUOUS
 10
-2.503215
 20
6.345539
 30
0.000000
 40
1.117500
 50
90.603236
 51
130.813733
  0
LINE
  8
Default
 62
     6
  6
CONTINUOUS
 10
-3.233616
 20
7.191306
 30
0.000000
 11
-7.706248
 21
3.328762
 31
0.000000
  0
ARC
  8
Default
 62
     6
  6
CONTINUOUS
 10
-6.158845
 20
1.536947
 30
0.000000
 40
2.367500
 50
130.813733
 51
193.869128
  0
LINE
  8
Default
 62
     6
  6
CONTINUOUS
 10
-8.457323
 20
0.969446
 30
0.000000
 11
-7.657983
 21
-2.268014
 31
0.000000
  0
ARC
  8
Default
 62
     6
  6
CONTINUOUS
 10
-7.301198
 20
-2.179923
 30
0.000000
 40
0.367500
 50
193.869128
 51
198.154140
  0
ARC
  8
Default
 62
     6
  6
CONTINUOUS
 10
-0.754942
 20
-0.033428
 30
0.000000
 40
7.256687
 50
198.154140
 51
233.549314
  0
ARC
  8
Default
 62
     6
  6
CONTINUOUS
 10
-3.956824
 20
-4.368320
 30
0.000000
 40
1.867500
 50
233.549314
 51
249.549364
  0
LINE
  8
Default
 62
     6
  6
CONTINUOUS
 10
-4.609329
 20
-6.118118
 30
0.000000
 11
-2.996027
 21
-6.719723
 31
0.000000
  0
ARC
  8
Default
 62
     6
  6
CONTINUOUS
 10
-2.343522
 20
-4.969925
 30
0.000000
 40
1.867500
 50
249.549364
 51
270.734600
  0
LINE
  8
Default
 62
     6
  6
CONTINUOUS
 10
-2.319580
 20
-6.837272
 30
0.000000
 11
3.697068
 21
-6.760127
 31
0.000000
  0
ARC
  8
Default
 62
     6
  6
CONTINUOUS
 10
3.682740
 20
-5.642719
 30
0.000000
 40
1.117500
 50
270.734600
 51
317.892754
  0
LINE
  8
Default
 62
     6
  6
CONTINUOUS
 10
4.511804
 20
-6.392025
 30
0.000000
 11
6.846632
 21
-3.808677
 31
0.000000
  0
ARC
  8
Default
 62
     6
  6
CONTINUOUS
 10
5.461150
 20
-2.556480
 30
0.000000
 40
1.867500
 50
317.892754
 51
348.622139
  0
LINE
  8
Default
 62
     6
  6
CONTINUOUS
 10
7.291949
 20
-2.924898
 30
0.000000
 11
7.508189
 21
-1.850324
 31
0.000000
  0
ARC
  8
Default
 62
     6
  6
CONTINUOUS
 10
6.167564
 20
-1.580545
 30
0.000000
 40
1.367500
 50
348.622139
 51
361.935933
  0
LINE
  8
Default
 62
     6
  6
CONTINUOUS
 10
7.534283
 20
-1.534349
 30
0.000000
 11
7.433839
 21
1.437268
 31
0.000000
  0
ARC
  8
Default
 62
     6
  6
CONTINUOUS
 10
5.567405
 20
1.374181
 30
0.000000
 40
1.867500
 50
1.935933
 51
29.001476
  0
ARC
  8
Default
 62
     6
  6
CONTINUOUS
 10
8.075341
 20
2.764437
 30
0.000000
 40
1.000000
 50
119.001476
 51
209.001476
  0
ARC
  8
Default
 62
     6
  6
CONTINUOUS
 10
-8.168520
 20
-6.240229
 30
-0.000000
 40
17.567749
 50
29.001476
 51
40.554254
  0
ARC
  8
Default
 62
     6
  6
CONTINUOUS
 10
5.567405
 20
1.374181
 30
0.000000
 40
1.862500
 50
1.935933
 51
29.001476
  0
LINE
  8
Default
 62
     6
  6
CONTINUOUS
 10
7.428842
 20
1.437100
 30
0.000000
 11
7.529286
 21
-1.534518
 31
0.000000
  0
ARC
  8
Default
 62
     6
  6
CONTINUOUS
 10
6.167564
 20
-1.580545
 30
0.000000
 40
1.362500
 50
348.622139
 51
361.935933
  0
LINE
  8
Default
 62
     6
  6
CONTINUOUS
 10
7.503287
 20
-1.849337
 30
0.000000
 11
7.287047
 21
-2.923911
 31
0.000000
  0
ARC
  8
Default
 62
     6
  6
CONTINUOUS
 10
5.461150
 20
-2.556480
 30
0.000000
 40
1.862500
 50
317.892754
 51
348.622139
  0
LINE
  8
Default
 62
     6
  6
CONTINUOUS
 10
6.842922
 20
-3.805324
 30
0.000000
 11
4.508094
 21
-6.388673
 31
0.000000
  0
ARC
  8
Default
 62
     6
  6
CONTINUOUS
 10
3.682740
 20
-5.642719
 30
0.000000
 40
1.112500
 50
270.734600
 51
317.892754
  0
LINE
  8
Default
 62
     6
  6
CONTINUOUS
 10
3.697004
 20
-6.755127
 30
0.000000
 11
-2.319644
 21
-6.832272
 31
0.000000
  0
ARC
  8
Default
 62
     6
  6
CONTINUOUS
 10
-2.343522
 20
-4.969925
 30
0.000000
 40
1.862500
 50
249.549364
 51
270.734600
  0
LINE
  8
Default
 62
     6
  6
CONTINUOUS
 10
-2.994280
 20
-6.715038
 30
0.000000
 11
-4.607582
 21
-6.113434
 31
0.000000
  0
ARC
  8
Default
 62
     6
  6
CONTINUOUS
 10
-3.956824
 20
-4.368320
 30
0.000000
 40
1.862500
 50
233.549314
 51
249.549364
  0
ARC
  8
Default
 62
     6
  6
CONTINUOUS
 10
-0.754942
 20
-0.033428
 30
0.000000
 40
7.251687
 50
198.154140
 51
233.549314
  0
ARC
  8
Default
 62
     6
  6
CONTINUOUS
 10
-7.301198
 20
-2.179923
 30
0.000000
 40
0.362500
 50
193.869128
 51
198.154140
  0
LINE
  8
Default
 62
     6
  6
CONTINUOUS
 10
-7.653129
 20
-2.266816
 30
0.000000
 11
-8.452469
 21
0.970644
 31
0.000000
  0
ARC
  8
Default
 62
     6
  6
CONTINUOUS
 10
-6.158845
 20
1.536947
 30
0.000000
 40
2.362500
 50
130.813733
 51
193.869128
  0
LINE
  8
Default
 62
     6
  6
CONTINUOUS
 10
-7.702980
 20
3.324978
 30
0.000000
 11
-3.230348
 21
7.187522
 31
0.000000
  0
ARC
  8
Default
 62
     6
  6
CONTINUOUS
 10
-2.503215
 20
6.345539
 30
0.000000
 40
1.112500
 50
90.603236
 51
130.813733
  0
LINE
  8
Default
 62
     6
  6
CONTINUOUS
 10
-2.514928
 20
7.457978
 30
0.000000
 11
2.322937
 21
7.508915
 31
0.000000
  0
ARC
  8
Default
 62
     6
  6
CONTINUOUS
 10
2.334650
 20
6.396477
 30
0.000000
 40
1.112500
 50
45.827258
 51
90.603236
  0
LINE
  8
Default
 62
     6
  6
CONTINUOUS
 10
3.109866
 20
7.194408
 30
0.000000
 11
5.156467
 21
5.206070
 31
0.000000
  0
ARC
  8
Default
 62
     6
  6
CONTINUOUS
 10
4.903868
 20
4.946070
 30
0.000000
 40
0.362500
 50
40.554254
 51
45.827258
  0
CIRCLE
  8
Default
 62
     6
  6
CONTINUOUS
 10
0.000000
 20
0.000000
 30
-0.625000
 40
2.632500
  0
CIRCLE
  8
Default
 62
     6
  6
CONTINUOUS
 10
0.000000
 20
0.000000
 30
-0.625000
 40
2.637500
  0
ENDSEC
  0
EOF
