  0
SECTION
  2
HEADER
  9
$ACADVER
  1
AC1006
  0
ENDSEC
  0
SECTION
  2
TABLES
  0
TABLE
  2
LTYPE
 70
    25
  0
LTYPE
  2
CONTINUOUS
 70
    64
  3
Solid line
 72
    64
 73
     0
 40
0.000000
  0
LTYPE
  2
DASHDOT
 70
    64
  3
__ . __ . __ . __ . __ . __ . __ . __ . __ . __
 72
    65
 73
     4
 40
1.000000
 49
0.500000
 49
-0.250000
 49
0.000000
 49
-0.250000
  0
LTYPE
  2
DASHED
 70
    64
  3
__ __ __ __ __ __ __ __ __ __ __ __ __ __ __ __
 72
    65
 73
     2
 40
0.750000
 49
0.500000
 49
-0.250000
  0
LTYPE
  2
DIVIDE
 70
    64
  3
____ . . ____ . . ____ . . ____ . . ____ . . __
 72
    65
 73
     6
 40
1.250000
 49
0.500000
 49
-0.250000
 49
0.000000
 49
-0.250000
 49
0.000000
 49
-0.250000
  0
LTYPE
  2
DOT
 70
    64
  3
. . . . . . . . . . . . . . . . . . . . . . . . 
 72
    65
 73
     2
 40
0.250000
 49
0.000000
 49
-0.250000
  0
ENDTAB
  0
ENDSEC
  0
SECTION
  2
BLOCKS
  0
BLOCK
  8
0
  2
Object_0
 70
    64
 10
0.000000
 20
0.000000
 30
0.000000
  0
ENDBLK
  0
BLOCK
  8
0
  2
Object_1
 70
    64
 10
0.000000
 20
0.000000
 30
0.000000
  0
ENDBLK
  0
ENDSEC
  0
SECTION
  2
ENTITIES
  0
LINE
  8
Default
 62
     6
  6
CONTINUOUS
 10
-0.113279
 20
-1.693516
 30
0.000000
 11
-6.125344
 21
-1.291370
 31
0.000000
  0
POINT
  8
Default
 62
     7
 10
0.000005
 20
6.286393
 30
0.000000
  0
LINE
  8
Default
 62
     6
  6
CONTINUOUS
 10
-0.113279
 20
-1.693516
 30
0.000000
 11
5.898786
 21
-2.095661
 31
0.000000
  0
CIRCLE
  8
Default
 62
     6
  6
CONTINUOUS
 10
5.898786
 20
-2.095661
 30
0.000000
 40
0.315000
  0
POINT
  8
Default
 62
     7
 10
-0.113279
 20
-1.693516
 30
0.000000
  0
LINE
  8
Default
 62
     6
  6
CONTINUOUS
 10
0.000002
 20
0.000036
 30
0.000000
 11
-0.113279
 21
-1.693516
 31
0.000000
  0
LINE
  8
Default
 62
     6
  6
CONTINUOUS
 10
0.000002
 20
0.000036
 30
0.000000
 11
5.898786
 21
-2.095661
 31
0.000000
  0
LINE
  8
Default
 62
     6
  6
CONTINUOUS
 10
0.000002
 20
0.000036
 30
0.000000
 11
-6.125344
 21
-1.291370
 31
0.000000
  0
LINE
  8
DIM
 62
     7
  6
CONTINUOUS
 10
-8.546949
 20
-1.275595
 30
0.000000
 11
-6.125344
 21
-1.291370
 31
0.000000
  0
LINE
  8
DIM
 62
     7
  6
CONTINUOUS
 10
-6.440337
 20
-1.289318
 30
0.000000
 11
-6.520414
 21
-1.300797
 31
0.000000
  0
LINE
  8
DIM
 62
     7
  6
CONTINUOUS
 10
-6.440337
 20
-1.289318
 30
0.000000
 11
-6.520257
 21
-1.276797
 31
0.000000
  0
TEXT
  8
DIM
 62
     7
 10
-8.526800
 20
-1.127952
 30
0.000000
 40
0.375000
  1
R0.6300
 72
     1
 11
-7.664300
 21
-1.127952
 31
0.000000
  0
LINE
  8
DIM
 62
     7
  6
CONTINUOUS
 10
-5.109135
 20
6.630481
 30
0.000000
 11
-5.066757
 21
6.627188
 31
0.000000
  0
LINE
  8
DIM
 62
     7
  6
CONTINUOUS
 10
-4.856492
 20
6.610850
 30
0.000000
 11
-2.623615
 21
6.437350
 31
0.000000
  0
LINE
  8
DIM
 62
     7
  6
CONTINUOUS
 10
-2.841707
 20
6.454297
 30
0.000000
 11
-2.922397
 21
6.448530
 31
0.000000
  0
LINE
  8
DIM
 62
     7
  6
CONTINUOUS
 10
-2.841707
 20
6.454297
 30
0.000000
 11
-2.920537
 21
6.472458
 31
0.000000
  0
TEXT
  8
DIM
 62
     7
 10
-5.050550
 20
6.724609
 30
0.000000
 40
0.375000
  1
7/16-14
 72
     1
 11
-4.206800
 21
6.724609
 31
0.000000
  0
LINE
  8
DIM
 62
     7
  6
CONTINUOUS
 10
-5.131593
 20
2.973766
 30
0.000000
 11
-5.131593
 21
3.731286
 31
0.000000
  0
LINE
  8
DIM
 62
     7
  6
CONTINUOUS
 10
-4.819093
 20
2.973766
 30
0.000000
 11
-4.819093
 21
3.731286
 31
0.000000
  0
LINE
  8
DIM
 62
     7
  6
CONTINUOUS
 10
-5.270423
 20
3.727476
 30
0.000000
 11
-4.680263
 21
3.727476
 31
0.000000
  0
LINE
  8
DIM
 62
     7
  6
CONTINUOUS
 10
-5.131593
 20
3.727476
 30
0.000000
 11
-5.106593
 21
3.739976
 31
0.000000
  0
LINE
  8
DIM
 62
     7
  6
CONTINUOUS
 10
-5.131593
 20
3.727476
 30
0.000000
 11
-5.106593
 21
3.714976
 31
0.000000
  0
LINE
  8
DIM
 62
     7
  6
CONTINUOUS
 10
-4.819093
 20
3.727476
 30
0.000000
 11
-4.844093
 21
3.714976
 31
0.000000
  0
LINE
  8
DIM
 62
     7
  6
CONTINUOUS
 10
-4.819093
 20
3.727476
 30
0.000000
 11
-4.844093
 21
3.739976
 31
0.000000
  0
TEXT
  8
DIM
 62
     7
 10
-5.265343
 20
3.808756
 30
0.000000
 40
0.200000
  1
0.313
 72
     1
 11
-4.975343
 21
3.808756
 31
0.000000
  0
TEXT
  8
DIM
 62
     7
 10
-0.634069
 20
5.773163
 30
0.000000
 40
0.200000
  1
Tap 5/16-18
 72
     1
 11
0.065931
 21
5.773163
 31
0.000000
  0
TEXT
  8
DIM
 62
     7
 10
-1.764069
 20
4.634674
 30
0.000000
 40
0.200000
  1
10.906 x 1/8" boss on back side
 72
     1
 11
0.065931
 21
4.634674
 31
0.000000
  0
LINE
  8
DIM
 62
     7
  6
CONTINUOUS
 10
-6.127021
 20
-1.283417
 30
0.000000
 11
-6.143854
 21
-1.203575
 31
0.000000
  0
LINE
  8
DIM
 62
     7
  6
CONTINUOUS
 10
-0.001674
 20
0.007989
 30
0.000000
 11
-0.018507
 21
0.087831
 31
0.000000
  0
LINE
  8
DIM
 62
     7
  6
CONTINUOUS
 10
-6.141339
 20
-1.215505
 30
0.000000
 11
-0.015992
 21
0.075901
 31
0.000000
  0
LINE
  8
DIM
 62
     7
  6
CONTINUOUS
 10
-6.141339
 20
-1.215505
 30
0.000000
 11
-6.065535
 21
-1.187260
 31
0.000000
  0
LINE
  8
DIM
 62
     7
  6
CONTINUOUS
 10
-6.141339
 20
-1.215505
 30
0.000000
 11
-6.060584
 21
-1.210743
 31
0.000000
  0
LINE
  8
DIM
 62
     7
  6
CONTINUOUS
 10
-0.015992
 20
0.075901
 30
0.000000
 11
-0.091796
 21
0.047655
 31
0.000000
  0
LINE
  8
DIM
 62
     7
  6
CONTINUOUS
 10
-0.015992
 20
0.075901
 30
0.000000
 11
-0.096747
 21
0.071139
 31
0.000000
  0
TEXT
  8
DIM
 62
     7
 10
-5.829850
 20
-0.994084
 30
0.000000
 40
0.375000
  1
6.26
 50
11.905312
 72
     1
 11
-5.389530
 21
-0.901251
 31
0.000000
  0
POINT
  8
Default
 62
     7
 10
-6.125344
 20
-1.291370
 30
0.000000
  0
CIRCLE
  8
Default
 62
     6
  6
CONTINUOUS
 10
-6.125344
 20
-1.291370
 30
0.000000
 40
0.315000
  0
CIRCLE
  8
Default
 62
     9
  6
CONTINUOUS
 10
0.000000
 20
0.000000
 30
-0.125000
 40
4.251000
  0
CIRCLE
  8
Default
 62
     9
  6
CONTINUOUS
 10
0.000000
 20
0.000000
 30
-0.625000
 40
3.000000
  0
CIRCLE
  8
Default
 62
     9
  6
CONTINUOUS
 10
0.000000
 20
3.625000
 30
0.000000
 40
0.265625
  0
CIRCLE
  8
Default
 62
     9
  6
CONTINUOUS
 10
3.625000
 20
0.000000
 30
0.000000
 40
0.265625
  0
CIRCLE
  8
Default
 62
     9
  6
CONTINUOUS
 10
-3.625000
 20
0.000000
 30
0.000000
 40
0.265625
  0
CIRCLE
  8
Default
 62
     9
  6
CONTINUOUS
 10
-0.000000
 20
-3.625000
 30
0.000000
 40
0.265625
  0
CIRCLE
  8
Default
 62
     3
  6
CONTINUOUS
 10
0.000000
 20
0.000000
 30
0.000000
 40
5.453000
  0
CIRCLE
  8
Default
 62
     6
  6
CONTINUOUS
 10
0.000005
 20
6.286393
 30
0.000000
 40
0.156250
  0
CIRCLE
  8
Default
 62
     6
  6
CONTINUOUS
 10
-4.975343
 20
2.971226
 30
0.000000
 40
0.156250
  0
POINT
  8
Default
 62
     7
 10
5.837293
 20
2.288908
 30
0.000000
  0
CIRCLE
  8
Default
 62
     6
  6
CONTINUOUS
 10
5.837293
 20
2.288908
 30
0.000000
 40
0.218750
  0
POINT
  8
Default
 62
     7
 10
-2.623615
 20
6.437350
 30
0.000000
  0
CIRCLE
  8
Default
 62
     6
  6
CONTINUOUS
 10
2.573707
 20
6.138308
 30
0.000000
 40
0.218750
  0
CIRCLE
  8
Default
 62
     6
  6
CONTINUOUS
 10
-2.623615
 20
6.437350
 30
0.000000
 40
0.218750
  0
POINT
  8
Default
 62
     7
 10
-1.877725
 20
-5.514856
 30
0.000000
  0
CIRCLE
  8
Default
 62
     6
  6
CONTINUOUS
 10
-1.877725
 20
-5.514856
 30
0.000000
 40
0.156250
  0
POINT
  8
Default
 62
     7
 10
3.831855
 20
-4.345288
 30
0.000000
  0
CIRCLE
  8
Default
 62
     6
  6
CONTINUOUS
 10
3.831855
 20
-4.345288
 30
0.000000
 40
0.156250
  0
POINT
  8
Default
 62
     7
 10
0.000002
 20
0.000036
 30
0.000000
  0
ARC
  8
Default
 62
     6
  6
CONTINUOUS
 10
0.000000
 20
0.000000
 30
-0.000000
 40
5.900000
 50
355.439456
 51
366.314470
  0
ARC
  8
Default
 62
     6
  6
CONTINUOUS
 10
6.878154
 20
-0.548636
 30
0.000000
 40
1.000000
 50
175.439456
 51
204.918384
  0
LINE
  8
Default
 62
     6
  6
CONTINUOUS
 10
5.971245
 20
-0.969963
 30
0.000000
 11
6.388517
 21
-1.868145
 31
0.000000
  0
ARC
  8
Default
 62
     6
  6
CONTINUOUS
 10
5.898786
 20
-2.095661
 30
0.000000
 40
0.540000
 50
319.822422
 51
384.918384
  0
ARC
  8
Default
 62
     6
  6
CONTINUOUS
 10
-0.479273
 20
2.384854
 30
0.000000
 40
8.332536
 50
259.961177
 51
324.582961
  0
ARC
  8
Default
 62
     6
  6
CONTINUOUS
 10
-1.877725
 20
-5.514856
 30
0.000000
 40
0.310000
 50
238.147175
 51
259.961177
  0
POINT
  8
Default
 62
     7
 10
2.573707
 20
6.138308
 30
0.000000
  0
ARC
  8
Default
 62
     6
  6
CONTINUOUS
 10
6.447554
 20
7.884843
 30
0.000000
 40
16.085367
 50
216.123492
 51
238.147175
  0
ARC
  8
Default
 62
     6
  6
CONTINUOUS
 10
-6.125344
 20
-1.291370
 30
0.000000
 40
0.520000
 50
104.697695
 51
216.123492
  0
ARC
  8
Default
 62
     6
  6
CONTINUOUS
 10
-6.797995
 20
1.273041
 30
0.000000
 40
2.131163
 50
284.697695
 51
402.975341
  0
ARC
  8
Default
 62
     6
  6
CONTINUOUS
 10
-4.975343
 20
2.971226
 30
0.000000
 40
0.360000
 50
131.940813
 51
222.975341
  0
LINE
  8
Default
 62
     6
  6
CONTINUOUS
 10
-5.215953
 20
3.239006
 30
0.000000
 11
-3.966159
 21
4.361991
 31
0.000000
  0
ARC
  8
Default
 62
     6
  6
CONTINUOUS
 10
-4.634521
 20
5.105826
 30
0.000000
 40
1.000000
 50
311.940813
 51
341.817438
  0
LINE
  8
Default
 62
     6
  6
CONTINUOUS
 10
-3.684454
 20
4.793780
 30
0.000000
 11
-3.093898
 21
6.591813
 31
0.000000
  0
ARC
  8
Default
 62
     6
  6
CONTINUOUS
 10
-2.623615
 20
6.437350
 30
0.000000
 40
0.495000
 50
89.569683
 51
161.817438
  0
LINE
  8
Default
 62
     6
  6
CONTINUOUS
 10
2.579377
 20
6.893286
 30
0.000000
 11
-2.619897
 21
6.932336
 31
0.000000
  0
ARC
  8
Default
 62
     6
  6
CONTINUOUS
 10
2.573707
 20
6.138308
 30
0.000000
 40
0.755000
 50
17.144089
 51
89.569683
  0
LINE
  8
Default
 62
     6
  6
CONTINUOUS
 10
3.808586
 20
4.696501
 30
0.000000
 11
3.295159
 21
6.360863
 31
0.000000
  0
ARC
  8
Default
 62
     6
  6
CONTINUOUS
 10
0.000000
 20
0.000000
 30
0.000000
 40
5.900000
 50
340.441426
 51
340.472818
  0
ARC
  8
Default
 62
     6
  6
CONTINUOUS
 10
0.000000
 20
0.000000
 30
0.000000
 40
5.900000
 50
152.529466
 51
152.530024
  0
ARC
  8
Default
 62
     6
  6
CONTINUOUS
 10
4.764153
 20
4.991277
 30
0.000000
 40
1.000000
 50
197.144089
 51
226.333710
  0
ARC
  8
Default
 62
     6
  6
CONTINUOUS
 10
0.000000
 20
0.000000
 30
-0.000000
 40
5.900000
 50
36.507605
 51
46.333710
  0
POINT
  8
Default
 62
     7
 10
-4.975343
 20
2.971226
 30
0.000000
  0
ARC
  8
Default
 62
     6
  6
CONTINUOUS
 10
5.546068
 20
4.105013
 30
-0.000000
 40
1.000000
 50
216.507605
 51
248.622447
  0
LINE
  8
Default
 62
     6
  6
CONTINUOUS
 10
5.181556
 20
3.173815
 30
-0.000000
 11
6.050533
 21
2.833659
 31
0.000000
  0
ARC
  8
Default
 62
     6
  6
CONTINUOUS
 10
5.837293
 20
2.288908
 30
0.000000
 40
0.585000
 50
334.199628
 51
428.622447
  0
LINE
  8
Default
 62
     6
  6
CONTINUOUS
 10
5.957823
 20
1.194136
 30
0.000000
 11
6.363978
 21
2.034294
 31
0.000000
  0
ARC
  8
Default
 62
     6
  6
CONTINUOUS
 10
6.858139
 20
0.758899
 30
0.000000
 40
1.000000
 50
154.199628
 51
186.314470
  0
LINE
  8
DIM
 62
     7
  6
CONTINUOUS
 10
-0.012132
 20
6.912812
 30
-0.000000
 11
7.009513
 21
6.912818
 31
-0.000372
  0
LINE
  8
DIM
 62
     7
  6
CONTINUOUS
 10
0.008128
 20
0.000000
 30
-0.125000
 11
7.009513
 21
0.000007
 31
-0.125371
  0
LINE
  8
DIM
 62
     7
  6
CONTINUOUS
 10
6.997321
 20
6.912818
 30
-0.000372
 11
6.997321
 21
0.000007
 31
-0.125371
  0
LINE
  8
DIM
 62
     7
  6
CONTINUOUS
 10
6.997321
 20
6.912818
 30
-0.000372
 11
7.009321
 21
6.832831
 31
-0.001819
  0
LINE
  8
DIM
 62
     7
  6
CONTINUOUS
 10
6.997321
 20
6.912818
 30
-0.000372
 11
6.985321
 21
6.832831
 31
-0.001817
  0
LINE
  8
DIM
 62
     7
  6
CONTINUOUS
 10
6.997321
 20
0.000007
 30
-0.125371
 11
6.985321
 21
0.079994
 31
-0.123924
  0
LINE
  8
DIM
 62
     7
  6
CONTINUOUS
 10
6.997321
 20
0.000007
 30
-0.125371
 11
7.009321
 21
0.079994
 31
-0.123925
  0
TEXT
  8
DIM
 62
     7
 10
6.927123
 20
3.769744
 30
-0.124980
 40
0.200000
  1
6.914
 50
89.832110
 72
     1
 11
6.928024
 21
4.077034
 31
-0.124980
210
0.000053
220
-0.018079
230
0.999837
  0
LINE
  8
DIM
 62
     7
  6
CONTINUOUS
 10
0.008128
 20
-0.000001
 30
-0.125052
 11
7.009513
 21
-0.000870
 31
-0.169992
  0
LINE
  8
DIM
 62
     7
  6
CONTINUOUS
 10
-1.923635
 20
-5.820111
 30
-0.000052
 11
7.009513
 21
-5.821220
 31
-0.057392
  0
LINE
  8
DIM
 62
     7
  6
CONTINUOUS
 10
6.997321
 20
-0.000869
 30
-0.169914
 11
6.997321
 21
-5.821219
 31
-0.057314
  0
LINE
  8
DIM
 62
     7
  6
CONTINUOUS
 10
6.997321
 20
-0.000869
 30
-0.169914
 11
7.009321
 21
-0.080855
 31
-0.168444
  0
LINE
  8
DIM
 62
     7
  6
CONTINUOUS
 10
6.997321
 20
-0.000869
 30
-0.169914
 11
6.985321
 21
-0.080853
 31
-0.168290
  0
LINE
  8
DIM
 62
     7
  6
CONTINUOUS
 10
6.997321
 20
-5.821219
 30
-0.057314
 11
6.985321
 21
-5.741232
 31
-0.058784
  0
LINE
  8
DIM
 62
     7
  6
CONTINUOUS
 10
6.997321
 20
-5.821219
 30
-0.057314
 11
7.009321
 21
-5.741235
 31
-0.058938
  0
TEXT
  8
DIM
 62
     7
 10
-7.700650
 20
1.243838
 30
-0.124974
 40
0.200000
  1
5.821
 50
-71.641943
 72
     1
 11
-7.603867
 21
0.952186
 31
-0.124974
210
0.006420
220
0.019342
230
0.999792
  0
LINE
  8
DIM
 62
     7
  6
CONTINUOUS
 10
-0.000000
 20
-0.008128
 30
-0.125050
 11
-0.000000
 21
-6.393445
 31
-0.164351
  0
LINE
  8
DIM
 62
     7
  6
CONTINUOUS
 10
6.422293
 20
2.280780
 30
-0.000050
 11
6.422293
 21
-6.394128
 31
-0.053444
  0
LINE
  8
DIM
 62
     7
  6
CONTINUOUS
 10
-0.000000
 20
-6.381254
 30
-0.164276
 11
6.422293
 21
-6.381936
 31
-0.053369
  0
LINE
  8
DIM
 62
     7
  6
CONTINUOUS
 10
-0.000000
 20
-6.381254
 30
-0.164276
 11
0.079988
 21
-6.369262
 31
-0.162821
  0
LINE
  8
DIM
 62
     7
  6
CONTINUOUS
 10
-0.000000
 20
-6.381254
 30
-0.164276
 11
0.079988
 21
-6.393262
 31
-0.162969
  0
LINE
  8
DIM
 62
     7
  6
CONTINUOUS
 10
6.422293
 20
-6.381936
 30
-0.053369
 11
6.342305
 21
-6.393927
 31
-0.054824
  0
LINE
  8
DIM
 62
     7
  6
CONTINUOUS
 10
6.422293
 20
-6.381936
 30
-0.053369
 11
6.342305
 21
-6.369928
 31
-0.054676
  0
TEXT
  8
DIM
 62
     7
 10
7.821146
 20
3.175512
 30
-0.124979
 40
0.200000
  1
6.423
 50
70.380872
 72
     1
 11
7.924325
 21
3.464964
 31
-0.124979
210
-0.017267
220
-0.006154
230
0.999832
  0
INSERT
  8
Default
 62
     7
  2
Object_0
 10
-10.160000
 20
-10.160000
 30
0.000000
  0
POINT
  8
Default
 62
     7
 10
5.898786
 20
-2.095661
 30
0.000000
  0
INSERT
  8
Default
 62
     7
  2
Object_1
 10
5.130000
 20
-10.160000
 30
0.000000
  0
CIRCLE
  8
CAM
 62
     6
  6
CONTINUOUS
 10
-6.125344
 20
-1.291370
 30
0.000000
 40
0.127500
  0
CIRCLE
  8
CAM
 62
     6
  6
CONTINUOUS
 10
-6.125344
 20
-1.291370
 30
0.000000
 40
0.122500
  0
CIRCLE
  8
CAM
 62
     6
  6
CONTINUOUS
 10
5.898786
 20
-2.095661
 30
0.000000
 40
0.127500
  0
CIRCLE
  8
CAM
 62
     6
  6
CONTINUOUS
 10
5.898786
 20
-2.095661
 30
0.000000
 40
0.122500
  0
LINE
  8
Default
 62
     6
  6
CONTINUOUS
 10
6.240180
 20
-0.497748
 30
0.000000
 11
10.227516
 21
-0.815798
 31
0.000000
  0
ARC
  8
Default
 62
     6
  6
CONTINUOUS
 10
0.000000
 20
0.000000
 30
0.000000
 40
6.260000
 50
355.439456
 51
366.314470
  0
ARC
  8
Default
 62
     6
  6
CONTINUOUS
 10
6.858139
 20
0.758899
 30
0.000000
 40
0.640000
 50
154.199628
 51
186.314470
  0
LINE
  8
Default
 62
     6
  6
CONTINUOUS
 10
6.281937
 20
1.037450
 30
0.000000
 11
6.688092
 21
1.877609
 31
0.000000
  0
ARC
  8
Default
 62
     6
  6
CONTINUOUS
 10
5.837293
 20
2.288908
 30
0.000000
 40
0.945000
 50
334.199628
 51
428.622447
  0
LINE
  8
Default
 62
     6
  6
CONTINUOUS
 10
6.181757
 20
3.168890
 30
0.000000
 11
5.312780
 21
3.509046
 31
-0.000000
  0
ARC
  8
Default
 62
     6
  6
CONTINUOUS
 10
5.546068
 20
4.105013
 30
-0.000000
 40
0.640000
 50
216.507605
 51
248.622447
  0
ARC
  8
Default
 62
     6
  6
CONTINUOUS
 10
0.000000
 20
0.000000
 30
0.000000
 40
6.260000
 50
36.507605
 51
46.333710
  0
ARC
  8
Default
 62
     6
  6
CONTINUOUS
 10
4.764153
 20
4.991277
 30
0.000000
 40
0.640000
 50
197.144089
 51
226.333710
  0
LINE
  8
Default
 62
     6
  6
CONTINUOUS
 10
4.152590
 20
4.802621
 30
0.000000
 11
3.639163
 21
6.466983
 31
0.000000
  0
ARC
  8
Default
 62
     6
  6
CONTINUOUS
 10
2.573707
 20
6.138308
 30
0.000000
 40
1.115000
 50
17.144089
 51
89.569683
  0
LINE
  8
Default
 62
     6
  6
CONTINUOUS
 10
2.582081
 20
7.253276
 30
0.000000
 11
-2.617193
 21
7.292326
 31
0.000000
  0
ARC
  8
Default
 62
     6
  6
CONTINUOUS
 10
-2.623615
 20
6.437350
 30
0.000000
 40
0.855000
 50
89.569683
 51
161.817438
  0
LINE
  8
Default
 62
     6
  6
CONTINUOUS
 10
-3.435922
 20
6.704149
 30
0.000000
 11
-4.026479
 21
4.906117
 31
0.000000
  0
ARC
  8
Default
 62
     6
  6
CONTINUOUS
 10
-4.634521
 20
5.105826
 30
0.000000
 40
0.640000
 50
311.940813
 51
341.817438
  0
LINE
  8
Default
 62
     6
  6
CONTINUOUS
 10
-4.206769
 20
4.629771
 30
0.000000
 11
-5.456564
 21
3.506787
 31
0.000000
  0
ARC
  8
Default
 62
     6
  6
CONTINUOUS
 10
-4.975343
 20
2.971226
 30
0.000000
 40
0.720000
 50
131.940813
 51
222.975341
  0
ARC
  8
Default
 62
     6
  6
CONTINUOUS
 10
-6.797995
 20
1.273041
 30
0.000000
 40
1.771163
 50
284.697695
 51
402.975341
  0
ARC
  8
Default
 62
     6
  6
CONTINUOUS
 10
-6.125344
 20
-1.291370
 30
0.000000
 40
0.880000
 50
104.697695
 51
216.123492
  0
ARC
  8
Default
 62
     6
  6
CONTINUOUS
 10
6.447554
 20
7.884843
 30
0.000000
 40
16.445367
 50
216.123492
 51
238.147175
  0
ARC
  8
Default
 62
     6
  6
CONTINUOUS
 10
-1.877725
 20
-5.514856
 30
0.000000
 40
0.670000
 50
238.147175
 51
259.961177
  0
ARC
  8
Default
 62
     6
  6
CONTINUOUS
 10
-0.479273
 20
2.384854
 30
0.000000
 40
8.692536
 50
259.961177
 51
324.495844
  0
LINE
  8
Default
 62
     6
  6
CONTINUOUS
 10
6.293197
 20
-0.820392
 30
0.000000
 11
6.710470
 21
-1.718574
 31
0.000000
  0
ARC
  8
Default
 62
     6
  6
CONTINUOUS
 10
6.878154
 20
-0.548636
 30
0.000000
 40
0.645000
 50
175.439456
 51
204.918384
  0
ARC
  8
Default
 62
     6
  6
CONTINUOUS
 10
0.000000
 20
0.000000
 30
-0.000000
 40
6.255000
 50
355.439456
 51
366.314470
  0
ARC
  8
Default
 62
     6
  6
CONTINUOUS
 10
6.858139
 20
0.758899
 30
0.000000
 40
0.645000
 50
154.199628
 51
186.314470
  0
LINE
  8
Default
 62
     6
  6
CONTINUOUS
 10
6.683590
 20
1.879785
 30
0.000000
 11
6.277435
 21
1.039627
 31
0.000000
  0
ARC
  8
Default
 62
     6
  6
CONTINUOUS
 10
5.837293
 20
2.288908
 30
0.000000
 40
0.940000
 50
334.199628
 51
428.622447
  0
LINE
  8
Default
 62
     6
  6
CONTINUOUS
 10
5.310957
 20
3.504390
 30
-0.000000
 11
6.179935
 21
3.164234
 31
0.000000
  0
ARC
  8
Default
 62
     6
  6
CONTINUOUS
 10
5.546068
 20
4.105013
 30
-0.000000
 40
0.645000
 50
216.507605
 51
248.622447
  0
ARC
  8
Default
 62
     6
  6
CONTINUOUS
 10
0.000000
 20
0.000000
 30
-0.000000
 40
6.255000
 50
36.507605
 51
46.333710
  0
ARC
  8
Default
 62
     6
  6
CONTINUOUS
 10
4.764153
 20
4.991277
 30
0.000000
 40
0.645000
 50
197.144089
 51
226.333710
  0
LINE
  8
Default
 62
     6
  6
CONTINUOUS
 10
3.634386
 20
6.465509
 30
0.000000
 11
4.147812
 21
4.801147
 31
0.000000
  0
ARC
  8
Default
 62
     6
  6
CONTINUOUS
 10
2.573707
 20
6.138308
 30
0.000000
 40
1.110000
 50
17.144089
 51
89.569683
  0
LINE
  8
Default
 62
     6
  6
CONTINUOUS
 10
-2.617231
 20
7.287326
 30
0.000000
 11
2.582043
 21
7.248276
 31
0.000000
  0
ARC
  8
Default
 62
     6
  6
CONTINUOUS
 10
-2.623615
 20
6.437350
 30
0.000000
 40
0.850000
 50
89.569683
 51
161.817438
  0
LINE
  8
Default
 62
     6
  6
CONTINUOUS
 10
-4.021728
 20
4.904557
 30
0.000000
 11
-3.431172
 21
6.702589
 31
0.000000
  0
ARC
  8
Default
 62
     6
  6
CONTINUOUS
 10
-4.634521
 20
5.105826
 30
0.000000
 40
0.645000
 50
311.940813
 51
341.817438
  0
LINE
  8
Default
 62
     6
  6
CONTINUOUS
 10
-5.453222
 20
3.503068
 30
0.000000
 11
-4.203428
 21
4.626052
 31
0.000000
  0
ARC
  8
Default
 62
     6
  6
CONTINUOUS
 10
-4.975343
 20
2.971226
 30
0.000000
 40
0.715000
 50
131.940813
 51
222.975341
  0
ARC
  8
Default
 62
     6
  6
CONTINUOUS
 10
-6.797995
 20
1.273041
 30
0.000000
 40
1.776163
 50
284.697695
 51
402.975341
  0
ARC
  8
Default
 62
     6
  6
CONTINUOUS
 10
-6.125344
 20
-1.291370
 30
0.000000
 40
0.875000
 50
104.697695
 51
216.123492
  0
ARC
  8
Default
 62
     6
  6
CONTINUOUS
 10
6.447554
 20
7.884843
 30
0.000000
 40
16.440367
 50
216.123492
 51
238.147175
  0
ARC
  8
Default
 62
     6
  6
CONTINUOUS
 10
-1.877725
 20
-5.514856
 30
0.000000
 40
0.665000
 50
238.147175
 51
259.961177
  0
ARC
  8
Default
 62
     6
  6
CONTINUOUS
 10
-0.479273
 20
2.384854
 30
0.000000
 40
8.687536
 50
259.961177
 51
324.496885
  0
ARC
  8
Default
 62
     6
  6
CONTINUOUS
 10
5.898786
 20
-2.095661
 30
0.000000
 40
0.895000
 50
320.875880
 51
384.918384
  0
CIRCLE
  8
CAM
 62
     6
  6
CONTINUOUS
 10
0.000000
 20
0.000000
 30
-0.625000
 40
2.640000
  0
CIRCLE
  8
CAM
 62
     6
  6
CONTINUOUS
 10
0.000000
 20
0.000000
 30
-0.625000
 40
2.645000
  0
ARC
  8
Default
 62
     6
  6
CONTINUOUS
 10
5.898786
 20
-2.095661
 30
0.000000
 40
0.900000
 50
320.885954
 51
384.918384
  0
LINE
  8
Default
 62
     6
  6
CONTINUOUS
 10
6.715004
 20
-1.716467
 30
0.000000
 11
6.297732
 21
-0.818285
 31
0.000000
  0
ARC
  8
Default
 62
     6
  6
CONTINUOUS
 10
6.878154
 20
-0.548636
 30
0.000000
 40
0.640000
 50
175.439456
 51
204.918384
  0
LINE
  8
Default
 62
     6
  6
CONTINUOUS
 10
10.227516
 20
-0.815798
 30
-0.000000
 11
6.240180
 21
-0.497748
 31
-0.000000
  0
LINE
  8
DIM
 62
     7
  6
CONTINUOUS
 10
-5.575254
 20
-5.532163
 30
0.000000
 11
-1.877725
 21
-5.514856
 31
0.000000
  0
LINE
  8
DIM
 62
     7
  6
CONTINUOUS
 10
-2.033973
 20
-5.515587
 30
0.000000
 11
-2.113916
 21
-5.527962
 31
0.000000
  0
LINE
  8
DIM
 62
     7
  6
CONTINUOUS
 10
-2.033973
 20
-5.515587
 30
0.000000
 11
-2.114029
 21
-5.503962
 31
0.000000
  0
TEXT
  8
DIM
 62
     7
 10
-5.559200
 20
-5.376540
 30
0.000000
 40
0.375000
  1
R0.3125
 72
     1
 11
-4.734200
 21
-5.376540
 31
0.000000
  0
LINE
  8
DIM
 62
     7
  6
CONTINUOUS
 10
0.000000
 20
-0.008128
 30
-0.124975
 11
0.000000
 21
-6.394407
 31
-0.105163
  0
LINE
  8
DIM
 62
     7
  6
CONTINUOUS
 10
-6.615246
 20
-1.125154
 30
0.000025
 11
-6.615246
 21
-6.394030
 31
0.016370
  0
LINE
  8
DIM
 62
     7
  6
CONTINUOUS
 10
0.000000
 20
-6.382216
 30
-0.105201
 11
-6.615246
 21
-6.381838
 31
0.016333
  0
LINE
  8
DIM
 62
     7
  6
CONTINUOUS
 10
0.000000
 20
-6.382216
 30
-0.105201
 11
-0.079986
 21
-6.394211
 31
-0.103694
  0
LINE
  8
DIM
 62
     7
  6
CONTINUOUS
 10
0.000000
 20
-6.382216
 30
-0.105201
 11
-0.079986
 21
-6.370211
 31
-0.103769
  0
LINE
  8
DIM
 62
     7
  6
CONTINUOUS
 10
-6.615246
 20
-6.381838
 30
0.016333
 11
-6.535259
 21
-6.369843
 31
0.014826
  0
LINE
  8
DIM
 62
     7
  6
CONTINUOUS
 10
-6.615246
 20
-6.381838
 30
0.016333
 11
-6.535259
 21
-6.393843
 31
0.014900
  0
TEXT
  8
DIM
 62
     7
 10
-5.191223
 20
7.096982
 30
-0.124978
 40
0.200000
  1
6.616
 50
-99.585975
 72
     1
 11
-5.242395
 21
6.793981
 31
-0.124978
210
0.018369
220
0.003102
230
0.999826
  0
LINE
  8
DIM
 62
     7
  6
CONTINUOUS
 10
0.008112
 20
-0.000507
 30
0.000000
 11
0.152479
 21
-0.010163
 31
0.000000
  0
LINE
  8
DIM
 62
     7
  6
CONTINUOUS
 10
-0.105169
 20
-1.694058
 30
0.000000
 11
0.039197
 21
-1.703715
 31
0.000000
  0
LINE
  8
DIM
 62
     7
  6
CONTINUOUS
 10
0.140314
 20
-0.009349
 30
0.000000
 11
0.107254
 21
-0.503592
 31
0.000000
  0
LINE
  8
DIM
 62
     7
  6
CONTINUOUS
 10
0.067543
 20
-1.097277
 30
0.000000
 11
0.027033
 21
-1.702901
 31
0.000000
  0
LINE
  8
DIM
 62
     7
  6
CONTINUOUS
 10
0.140314
 20
-0.009349
 30
0.000000
 11
0.146948
 21
-0.089972
 31
0.000000
  0
LINE
  8
DIM
 62
     7
  6
CONTINUOUS
 10
0.140314
 20
-0.009349
 30
0.000000
 11
0.123001
 21
-0.088370
 31
0.000000
  0
LINE
  8
DIM
 62
     7
  6
CONTINUOUS
 10
0.027033
 20
-1.702901
 30
0.000000
 11
0.020399
 21
-1.622279
 31
0.000000
  0
LINE
  8
DIM
 62
     7
  6
CONTINUOUS
 10
0.027033
 20
-1.702901
 30
0.000000
 11
0.044345
 21
-1.623880
 31
0.000000
  0
TEXT
  8
DIM
 62
     7
 10
-0.597359
 20
-0.923758
 30
0.000000
 40
0.375000
  1
1.6973
 50
-3.826800
 72
     1
 11
0.076136
 21
-0.968808
 31
0.000000
  0
LINE
  8
DIM
 62
     7
  6
CONTINUOUS
 10
-6.125887
 20
-1.299480
 30
0.000000
 11
-6.170651
 21
-1.968715
 31
0.000000
  0
LINE
  8
DIM
 62
     7
  6
CONTINUOUS
 10
-0.113821
 20
-1.701626
 30
0.000000
 11
-0.158586
 21
-2.370861
 31
0.000000
  0
LINE
  8
DIM
 62
     7
  6
CONTINUOUS
 10
-6.169838
 20
-1.956550
 30
0.000000
 11
-0.157773
 21
-2.358696
 31
0.000000
  0
LINE
  8
DIM
 62
     7
  6
CONTINUOUS
 10
-6.169838
 20
-1.956550
 30
0.000000
 11
-6.089215
 21
-1.949916
 31
0.000000
  0
LINE
  8
DIM
 62
     7
  6
CONTINUOUS
 10
-6.169838
 20
-1.956550
 30
0.000000
 11
-6.090817
 21
-1.973863
 31
0.000000
  0
LINE
  8
DIM
 62
     7
  6
CONTINUOUS
 10
-0.157773
 20
-2.358696
 30
0.000000
 11
-0.238395
 21
-2.365330
 31
0.000000
  0
LINE
  8
DIM
 62
     7
  6
CONTINUOUS
 10
-0.157773
 20
-2.358696
 30
0.000000
 11
-0.236793
 21
-2.341383
 31
0.000000
  0
TEXT
  8
DIM
 62
     7
 10
-3.960955
 20
-1.951561
 30
0.000000
 40
0.375000
  1
6.0255
 50
-3.826800
 72
     1
 11
-3.250044
 21
-1.999114
 31
0.000000
  0
LINE
  8
DIM
 62
     7
  6
CONTINUOUS
 10
0.002723
 20
0.007695
 30
0.000000
 11
0.032592
 21
0.091767
 31
0.000000
  0
LINE
  8
DIM
 62
     7
  6
CONTINUOUS
 10
5.901507
 20
-2.088002
 30
0.000000
 11
5.931377
 21
-2.003929
 31
0.000000
  0
LINE
  8
DIM
 62
     7
  6
CONTINUOUS
 10
0.028511
 20
0.080279
 30
0.000000
 11
5.927295
 21
-2.015417
 31
0.000000
  0
LINE
  8
DIM
 62
     7
  6
CONTINUOUS
 10
0.028511
 20
0.080279
 30
0.000000
 11
0.107912
 21
0.064804
 31
0.000000
  0
LINE
  8
DIM
 62
     7
  6
CONTINUOUS
 10
0.028511
 20
0.080279
 30
0.000000
 11
0.099877
 21
0.042189
 31
0.000000
  0
LINE
  8
DIM
 62
     7
  6
CONTINUOUS
 10
5.927295
 20
-2.015417
 30
0.000000
 11
5.847894
 21
-1.999943
 31
0.000000
  0
LINE
  8
DIM
 62
     7
  6
CONTINUOUS
 10
5.927295
 20
-2.015417
 30
0.000000
 11
5.855929
 21
-1.977328
 31
0.000000
  0
TEXT
  8
DIM
 62
     7
 10
4.318692
 20
-1.282187
 30
0.000000
 40
0.375000
  1
6.26
 50
-19.558901
 72
     1
 11
4.742726
 21
-1.432836
 31
0.000000
  0
LINE
  8
DIM
 62
     7
  6
CONTINUOUS
 10
-6.125887
 20
-1.299480
 30
0.000000
 11
-6.215029
 21
-2.632160
 31
0.000000
  0
LINE
  8
DIM
 62
     7
  6
CONTINUOUS
 10
5.898244
 20
-2.103771
 30
0.000000
 11
5.809101
 21
-3.436451
 31
0.000000
  0
LINE
  8
DIM
 62
     7
  6
CONTINUOUS
 10
-6.214216
 20
-2.619995
 30
0.000000
 11
5.809915
 21
-3.424286
 31
0.000000
  0
LINE
  8
DIM
 62
     7
  6
CONTINUOUS
 10
-6.214216
 20
-2.619995
 30
0.000000
 11
-6.133593
 21
-2.613361
 31
0.000000
  0
LINE
  8
DIM
 62
     7
  6
CONTINUOUS
 10
-6.214216
 20
-2.619995
 30
0.000000
 11
-6.135195
 21
-2.637308
 31
0.000000
  0
LINE
  8
DIM
 62
     7
  6
CONTINUOUS
 10
5.809915
 20
-3.424286
 30
0.000000
 11
5.729292
 21
-3.430920
 31
0.000000
  0
LINE
  8
DIM
 62
     7
  6
CONTINUOUS
 10
5.809915
 20
-3.424286
 30
0.000000
 11
5.730894
 21
-3.406974
 31
0.000000
  0
TEXT
  8
DIM
 62
     7
 10
-0.962646
 20
-2.818531
 30
0.000000
 40
0.375000
  1
12.0510
 50
-3.826800
 72
     1
 11
-0.195610
 21
-2.869838
 31
0.000000
  0
LINE
  8
DIM
 62
     7
  6
CONTINUOUS
 10
5.898244
 20
-2.103771
 30
0.000000
 11
5.853479
 21
-2.773006
 31
0.000000
  0
LINE
  8
DIM
 62
     7
  6
CONTINUOUS
 10
-0.113821
 20
-1.701626
 30
0.000000
 11
-0.158586
 21
-2.370861
 31
0.000000
  0
LINE
  8
DIM
 62
     7
  6
CONTINUOUS
 10
5.854293
 20
-2.760841
 30
0.000000
 11
-0.157773
 21
-2.358696
 31
0.000000
  0
LINE
  8
DIM
 62
     7
  6
CONTINUOUS
 10
5.854293
 20
-2.760841
 30
0.000000
 11
5.773670
 21
-2.767475
 31
0.000000
  0
LINE
  8
DIM
 62
     7
  6
CONTINUOUS
 10
5.854293
 20
-2.760841
 30
0.000000
 11
5.775272
 21
-2.743529
 31
0.000000
  0
LINE
  8
DIM
 62
     7
  6
CONTINUOUS
 10
-0.157773
 20
-2.358696
 30
0.000000
 11
-0.077150
 21
-2.352062
 31
0.000000
  0
LINE
  8
DIM
 62
     7
  6
CONTINUOUS
 10
-0.157773
 20
-2.358696
 30
0.000000
 11
-0.078752
 21
-2.376009
 31
0.000000
  0
TEXT
  8
DIM
 62
     7
 10
2.275110
 20
-2.368690
 30
0.000000
 40
0.375000
  1
6.0255
 50
-3.826795
 72
     1
 11
2.986021
 21
-2.416243
 31
0.000000
  0
LINE
  8
DIM
 62
     7
  6
CONTINUOUS
 10
5.618544
 20
2.291448
 30
0.000000
 11
5.618544
 21
3.111468
 31
0.000000
  0
LINE
  8
DIM
 62
     7
  6
CONTINUOUS
 10
6.056044
 20
2.291448
 30
0.000000
 11
6.056044
 21
3.111468
 31
0.000000
  0
LINE
  8
DIM
 62
     7
  6
CONTINUOUS
 10
5.442214
 20
3.107658
 30
0.000000
 11
6.232374
 21
3.107658
 31
0.000000
  0
LINE
  8
DIM
 62
     7
  6
CONTINUOUS
 10
5.618544
 20
3.107658
 30
0.000000
 11
5.643544
 21
3.120158
 31
0.000000
  0
LINE
  8
DIM
 62
     7
  6
CONTINUOUS
 10
5.618544
 20
3.107658
 30
0.000000
 11
5.643544
 21
3.095158
 31
0.000000
  0
LINE
  8
DIM
 62
     7
  6
CONTINUOUS
 10
6.056044
 20
3.107658
 30
0.000000
 11
6.031044
 21
3.095158
 31
0.000000
  0
LINE
  8
DIM
 62
     7
  6
CONTINUOUS
 10
6.056044
 20
3.107658
 30
0.000000
 11
6.031044
 21
3.120158
 31
0.000000
  0
TEXT
  8
DIM
 62
     7
 10
5.447293
 20
3.188938
 30
0.000000
 40
0.200000
  1
0.4375
 72
     1
 11
5.837294
 21
3.188938
 31
0.000000
  0
ENDSEC
  0
EOF
