  0
SECTION
  2
HEADER
  9
$ACADVER
  1
AC1006
  0
ENDSEC
  0
SECTION
  2
TABLES
  0
TABLE
  2
LTYPE
 70
    25
  0
LTYPE
  2
CONTINUOUS
 70
    64
  3
Solid line
 72
    64
 73
     0
 40
0.000000
  0
LTYPE
  2
DASHDOT
 70
    64
  3
__ . __ . __ . __ . __ . __ . __ . __ . __ . __
 72
    65
 73
     4
 40
1.000000
 49
0.500000
 49
-0.250000
 49
0.000000
 49
-0.250000
  0
LTYPE
  2
DASHED
 70
    64
  3
__ __ __ __ __ __ __ __ __ __ __ __ __ __ __ __
 72
    65
 73
     2
 40
0.750000
 49
0.500000
 49
-0.250000
  0
LTYPE
  2
DIVIDE
 70
    64
  3
____ . . ____ . . ____ . . ____ . . ____ . . __
 72
    65
 73
     6
 40
1.250000
 49
0.500000
 49
-0.250000
 49
0.000000
 49
-0.250000
 49
0.000000
 49
-0.250000
  0
LTYPE
  2
DOT
 70
    64
  3
. . . . . . . . . . . . . . . . . . . . . . . . 
 72
    65
 73
     2
 40
0.250000
 49
0.000000
 49
-0.250000
  0
ENDTAB
  0
ENDSEC
  0
SECTION
  2
ENTITIES
  0
LINE
  8
HUB
 62
     7
  6
CONTINUOUS
 10
5.232126
 20
5.548719
 30
0.000000
 11
5.132126
 21
5.548719
 31
0.000000
  0
LINE
  8
HUB
 62
     7
  6
CONTINUOUS
 10
5.132126
 20
5.548719
 30
0.000000
 11
5.082126
 21
5.498719
 31
0.000000
  0
LINE
  8
HUB
 62
     7
  6
CONTINUOUS
 10
5.232126
 20
3.895719
 30
0.000000
 11
5.132126
 21
3.895719
 31
0.000000
  0
LINE
  8
HUB
 62
     7
  6
CONTINUOUS
 10
5.132126
 20
3.895719
 30
0.000000
 11
5.082126
 21
3.945719
 31
0.000000
  0
LINE
  8
HUB
 62
     7
  6
CONTINUOUS
 10
5.232126
 20
6.612219
 30
0.000000
 11
5.232126
 21
5.548719
 31
0.000000
  0
LINE
  8
HUB
 62
     7
  6
CONTINUOUS
 10
5.232126
 20
2.832219
 30
0.000000
 11
5.232126
 21
3.895719
 31
0.000000
  0
LINE
  8
HUB
 62
     7
  6
CONTINUOUS
 10
5.082126
 20
5.498719
 30
0.000000
 11
5.082126
 21
3.945719
 31
0.000000
  0
LINE
  8
HUB
 62
     7
  6
CONTINUOUS
 10
5.432126
 20
5.604718
 30
0.000000
 11
5.432126
 21
5.245719
 31
0.000000
  0
LINE
  8
HUB
 62
     7
  6
CONTINUOUS
 10
5.082126
 20
5.245719
 30
0.000000
 11
5.432126
 21
5.245719
 31
0.000000
  0
LINE
  8
HUB
 62
     7
  6
CONTINUOUS
 10
5.232126
 20
5.604718
 30
0.000000
 11
5.432126
 21
5.604718
 31
0.000000
  0
LINE
  8
DIM
 62
     1
  6
CONTINUOUS
 10
4.286256
 20
3.895719
 30
0.000000
 11
4.234492
 21
4.088904
 31
0.000000
  0
LINE
  8
DIM
 62
     1
  6
CONTINUOUS
 10
4.286256
 20
3.895719
 30
0.000000
 11
4.338020
 21
4.088904
 31
0.000000
  0
LINE
  8
DIM
 62
     1
  6
CONTINUOUS
 10
4.286256
 20
5.548719
 30
0.000000
 11
4.338020
 21
5.355533
 31
0.000000
  0
LINE
  8
DIM
 62
     1
  6
CONTINUOUS
 10
4.286256
 20
5.548719
 30
0.000000
 11
4.234492
 21
5.355533
 31
0.000000
  0
LINE
  8
DIM
 62
     1
  6
CONTINUOUS
 10
5.062126
 20
3.895719
 30
0.000000
 11
4.236256
 21
3.895719
 31
0.000000
  0
LINE
  8
DIM
 62
     1
  6
CONTINUOUS
 10
5.062126
 20
5.548719
 30
0.000000
 11
4.236256
 21
5.548719
 31
0.000000
  0
TEXT
  8
DIM
 62
     1
 10
3.814014
 20
4.656868
 30
0.000000
 40
0.125000
  1
1.653
  0
TEXT
  8
DIM
 62
     1
 10
4.250901
 20
4.772218
 30
0.000000
 40
0.125000
  1
+.000
  0
TEXT
  8
DIM
 62
     1
 10
4.250901
 20
4.541517
 30
0.000000
 40
0.125000
  1
-.002
  0
LINE
  8
DIM
 62
     1
  6
CONTINUOUS
 10
4.286256
 20
3.895719
 30
0.000000
 11
4.286256
 21
4.491516
 31
0.000000
  0
LINE
  8
DIM
 62
     1
  6
CONTINUOUS
 10
4.286256
 20
4.952921
 30
0.000000
 11
4.286256
 21
5.548719
 31
0.000000
  0
LINE
  8
DIM
 62
     1
  6
CONTINUOUS
 10
3.380921
 20
2.832219
 30
0.000000
 11
3.329157
 21
3.025404
 31
0.000000
  0
LINE
  8
DIM
 62
     1
  6
CONTINUOUS
 10
3.380921
 20
2.832219
 30
0.000000
 11
3.432685
 21
3.025404
 31
0.000000
  0
LINE
  8
DIM
 62
     1
  6
CONTINUOUS
 10
3.380921
 20
6.612219
 30
0.000000
 11
3.432685
 21
6.419033
 31
0.000000
  0
LINE
  8
DIM
 62
     1
  6
CONTINUOUS
 10
3.380921
 20
6.612219
 30
0.000000
 11
3.329157
 21
6.419033
 31
0.000000
  0
LINE
  8
DIM
 62
     1
  6
CONTINUOUS
 10
5.162126
 20
2.832219
 30
0.000000
 11
3.330921
 21
2.832219
 31
0.000000
  0
LINE
  8
DIM
 62
     1
  6
CONTINUOUS
 10
5.162126
 20
6.612219
 30
0.000000
 11
3.330921
 21
6.612219
 31
0.000000
  0
TEXT
  8
DIM
 62
     1
 10
3.200473
 20
4.656715
 30
0.000000
 40
0.125000
  1
3.78
  0
LINE
  8
DIM
 62
     1
  6
CONTINUOUS
 10
3.380921
 20
2.832219
 30
0.000000
 11
3.380921
 21
4.606715
 31
0.000000
  0
LINE
  8
DIM
 62
     1
  6
CONTINUOUS
 10
3.380921
 20
4.837722
 30
0.000000
 11
3.380921
 21
6.612219
 31
0.000000
  0
LINE
  8
DIM
 62
     1
  6
CONTINUOUS
 10
5.084006
 20
3.896700
 30
0.000000
 11
5.055734
 21
3.698708
 31
0.000000
  0
LINE
  8
DIM
 62
     1
  6
CONTINUOUS
 10
5.084006
 20
3.896700
 30
0.000000
 11
4.960526
 21
3.739370
 31
0.000000
  0
LINE
  8
DIM
 62
     1
  6
CONTINUOUS
 10
5.084006
 20
3.896700
 30
0.000000
 11
4.865790
 21
3.385755
 31
0.000000
  0
LINE
  8
DIM
 62
     1
  6
CONTINUOUS
 10
4.865790
 20
3.385755
 30
0.000000
 11
4.665790
 21
3.385755
 31
0.000000
  0
TEXT
  8
DIM
 62
     1
 10
3.734053
 20
3.323255
 30
0.000000
 40
0.125000
  1
.03 X .03
  0
LINE
  8
DIM
 62
     1
  6
CONTINUOUS
 10
6.610910
 20
5.593796
 30
0.000000
 11
6.723225
 21
5.428310
 31
0.000000
  0
LINE
  8
DIM
 62
     1
  6
CONTINUOUS
 10
6.610910
 20
5.593796
 30
0.000000
 11
6.625435
 21
5.394324
 31
0.000000
  0
LINE
  8
DIM
 62
     1
  6
CONTINUOUS
 10
6.610910
 20
5.593796
 30
0.000000
 11
7.433768
 21
3.226188
 31
0.000000
  0
LINE
  8
DIM
 62
     1
  6
CONTINUOUS
 10
7.433768
 20
3.226188
 30
0.000000
 11
7.633768
 21
3.226188
 31
0.000000
  0
TEXT
  8
DIM
 62
     1
 10
7.733768
 20
3.163688
 30
0.000000
 40
0.125000
  1
NOTE B
  0
CIRCLE
  8
HUB
 62
     7
  6
CONTINUOUS
 10
0.627123
 20
4.722219
 30
0.000000
 40
1.890000
  0
CIRCLE
  8
HUB
 62
     7
  6
CONTINUOUS
 10
0.627123
 20
4.722219
 30
0.000000
 40
0.375000
  0
CIRCLE
  8
HUB
 62
     7
  6
CONTINUOUS
 10
0.627123
 20
4.722219
 30
0.000000
 40
0.703001
  0
CIRCLE
  8
HUB
 62
     7
  6
CONTINUOUS
 10
0.018307
 20
5.073719
 30
0.000000
 40
0.101500
  0
CIRCLE
  8
HUB
 62
     7
  6
CONTINUOUS
 10
0.018307
 20
4.370718
 30
0.000000
 40
0.101500
  0
CIRCLE
  8
HUB
 62
     7
  6
CONTINUOUS
 10
0.627124
 20
4.019218
 30
0.000000
 40
0.101499
  0
CIRCLE
  8
HUB
 62
     7
  6
CONTINUOUS
 10
1.235939
 20
4.370720
 30
0.000000
 40
0.101500
  0
CIRCLE
  8
HUB
 62
     7
  6
CONTINUOUS
 10
1.235938
 20
5.073720
 30
0.000000
 40
0.101500
  0
CIRCLE
  8
HUB
 62
     7
  6
CONTINUOUS
 10
0.627123
 20
5.425219
 30
0.000000
 40
0.101499
  0
ARC
  8
HUB
 62
     7
  6
CONTINUOUS
 10
0.627123
 20
4.722219
 30
0.000000
 40
0.826500
 50
39.803341
 51
80.196873
  0
ARC
  8
HUB
 62
     7
  6
CONTINUOUS
 10
0.627123
 20
4.722219
 30
0.000000
 40
0.826500
 50
99.803213
 51
140.196873
  0
ARC
  8
HUB
 62
     7
  6
CONTINUOUS
 10
0.627123
 20
4.722219
 30
0.000000
 40
0.826500
 50
159.803176
 51
200.196815
  0
ARC
  8
HUB
 62
     7
  6
CONTINUOUS
 10
0.627123
 20
4.722219
 30
0.000000
 40
0.826500
 50
219.803185
 51
260.196873
  0
ARC
  8
HUB
 62
     7
  6
CONTINUOUS
 10
0.627123
 20
4.722219
 30
0.000000
 40
0.826500
 50
279.803213
 51
320.196886
  0
ARC
  8
HUB
 62
     7
  6
CONTINUOUS
 10
0.627123
 20
4.722219
 30
0.000000
 40
0.826500
 50
339.803319
 51
380.196970
  0
ARC
  8
HUB
 62
     7
  6
CONTINUOUS
 10
0.018307
 20
5.073719
 30
0.000000
 40
0.179499
 50
98.373946
 51
201.626103
  0
ARC
  8
HUB
 62
     7
  6
CONTINUOUS
 10
0.018307
 20
5.073719
 30
0.000000
 40
0.179499
 50
201.626103
 51
458.373946
  0
ARC
  8
HUB
 62
     7
  6
CONTINUOUS
 10
0.018307
 20
4.370718
 30
0.000000
 40
0.179500
 50
158.373914
 51
261.626086
  0
ARC
  8
HUB
 62
     7
  6
CONTINUOUS
 10
0.018307
 20
4.370718
 30
0.000000
 40
0.179500
 50
261.626086
 51
518.373914
  0
ARC
  8
HUB
 62
     7
  6
CONTINUOUS
 10
0.627124
 20
4.019218
 30
0.000000
 40
0.179500
 50
218.374020
 51
321.626066
  0
ARC
  8
HUB
 62
     7
  6
CONTINUOUS
 10
0.627124
 20
4.019218
 30
0.000000
 40
0.179500
 50
321.626066
 51
578.374020
  0
ARC
  8
HUB
 62
     7
  6
CONTINUOUS
 10
1.235939
 20
4.370720
 30
0.000000
 40
0.179501
 50
21.625990
 51
278.374214
  0
ARC
  8
HUB
 62
     7
  6
CONTINUOUS
 10
1.235939
 20
4.370720
 30
0.000000
 40
0.179501
 50
278.374214
 51
381.625990
  0
ARC
  8
HUB
 62
     7
  6
CONTINUOUS
 10
1.235938
 20
5.073720
 30
0.000000
 40
0.179500
 50
81.626241
 51
338.374070
  0
ARC
  8
HUB
 62
     7
  6
CONTINUOUS
 10
1.235938
 20
5.073720
 30
0.000000
 40
0.179500
 50
338.374070
 51
441.626241
  0
ARC
  8
HUB
 62
     7
  6
CONTINUOUS
 10
0.627123
 20
5.425219
 30
0.000000
 40
0.179500
 50
38.374020
 51
141.626066
  0
ARC
  8
HUB
 62
     7
  6
CONTINUOUS
 10
0.627123
 20
5.425219
 30
0.000000
 40
0.179500
 50
141.626066
 51
398.374020
  0
LINE
  8
CENTER
 62
     7
  6
CONTINUOUS
 10
0.627123
 20
6.767821
 30
0.000000
 11
0.627123
 21
2.613635
 31
0.000000
  0
LINE
  8
CENTER
 62
     7
  6
CONTINUOUS
 10
2.704217
 20
4.690728
 30
0.000000
 11
-1.449970
 21
4.690728
 31
0.000000
  0
CIRCLE
  8
HUB
 62
     7
  6
CONTINUOUS
 10
0.627123
 20
6.139219
 30
0.000000
 40
0.181000
  0
CIRCLE
  8
HUB
 62
     7
  6
CONTINUOUS
 10
0.627123
 20
6.139219
 30
0.000000
 40
0.211000
  0
CIRCLE
  8
HUB
 62
     7
  6
CONTINUOUS
 10
-0.374847
 20
5.724189
 30
0.000000
 40
0.181000
  0
CIRCLE
  8
HUB
 62
     7
  6
CONTINUOUS
 10
-0.374847
 20
5.724189
 30
0.000000
 40
0.211000
  0
CIRCLE
  8
HUB
 62
     7
  6
CONTINUOUS
 10
-0.789877
 20
4.722219
 30
0.000000
 40
0.181000
  0
CIRCLE
  8
HUB
 62
     7
  6
CONTINUOUS
 10
-0.789877
 20
4.722219
 30
0.000000
 40
0.211000
  0
CIRCLE
  8
HUB
 62
     7
  6
CONTINUOUS
 10
-0.374847
 20
3.720248
 30
0.000000
 40
0.181000
  0
CIRCLE
  8
HUB
 62
     7
  6
CONTINUOUS
 10
-0.374847
 20
3.720248
 30
0.000000
 40
0.211000
  0
CIRCLE
  8
HUB
 62
     7
  6
CONTINUOUS
 10
0.627123
 20
3.305219
 30
0.000000
 40
0.181000
  0
CIRCLE
  8
HUB
 62
     7
  6
CONTINUOUS
 10
0.627123
 20
3.305219
 30
0.000000
 40
0.211000
  0
CIRCLE
  8
HUB
 62
     7
  6
CONTINUOUS
 10
1.629094
 20
3.720248
 30
0.000000
 40
0.181000
  0
CIRCLE
  8
HUB
 62
     7
  6
CONTINUOUS
 10
1.629094
 20
3.720248
 30
0.000000
 40
0.211000
  0
CIRCLE
  8
HUB
 62
     7
  6
CONTINUOUS
 10
2.044123
 20
4.722219
 30
0.000000
 40
0.181000
  0
CIRCLE
  8
HUB
 62
     7
  6
CONTINUOUS
 10
2.044123
 20
4.722219
 30
0.000000
 40
0.211000
  0
CIRCLE
  8
HUB
 62
     7
  6
CONTINUOUS
 10
1.629094
 20
5.724189
 30
0.000000
 40
0.181000
  0
CIRCLE
  8
HUB
 62
     7
  6
CONTINUOUS
 10
1.629094
 20
5.724189
 30
0.000000
 40
0.211000
  0
LINE
  8
DIM
 62
     1
  6
CONTINUOUS
 10
1.513370
 20
6.992786
 30
0.000000
 11
1.713370
 21
6.992786
 31
0.000000
  0
LINE
  8
DIM
 62
     1
  6
CONTINUOUS
 10
1.142350
 20
6.042230
 30
0.000000
 11
1.120328
 21
5.843446
 31
0.000000
  0
LINE
  8
DIM
 62
     1
  6
CONTINUOUS
 10
1.142350
 20
6.042230
 30
0.000000
 11
1.023886
 21
5.881089
 31
0.000000
  0
LINE
  8
DIM
 62
     1
  6
CONTINUOUS
 10
0.111897
 20
3.402207
 30
0.000000
 11
0.133919
 21
3.600991
 31
0.000000
  0
LINE
  8
DIM
 62
     1
  6
CONTINUOUS
 10
0.111897
 20
3.402207
 30
0.000000
 11
0.230361
 21
3.563348
 31
0.000000
  0
TEXT
  8
DIM
 62
     1
 10
1.763370
 20
6.927203
 30
0.000000
 40
0.125000
  1
BC 2.834
  0
LINE
  8
DIM
 62
     1
  6
CONTINUOUS
 10
0.111897
 20
3.402207
 30
0.000000
 11
1.513370
 21
6.992786
 31
0.000000
  0
LINE
  8
DIM
 62
     1
  6
CONTINUOUS
 10
1.343521
 20
4.213117
 30
0.000000
 11
1.488931
 21
4.075800
 31
0.000000
  0
LINE
  8
DIM
 62
     1
  6
CONTINUOUS
 10
1.343521
 20
4.213117
 30
0.000000
 11
1.400791
 21
4.021492
 31
0.000000
  0
LINE
  8
DIM
 62
     1
  6
CONTINUOUS
 10
1.343521
 20
4.213117
 30
0.000000
 11
1.981045
 21
3.178446
 31
0.000000
  0
LINE
  8
DIM
 62
     1
  6
CONTINUOUS
 10
1.981045
 20
3.178446
 30
0.000000
 11
2.181045
 21
3.178446
 31
0.000000
  0
TEXT
  8
DIM
 62
     1
 10
2.281045
 20
3.115946
 30
0.000000
 40
0.125000
  1
NOTE A
  0
LINE
  8
DIM
 62
     1
  6
CONTINUOUS
 10
0.747801
 20
6.329293
 30
0.000000
 11
0.776561
 21
6.527214
 31
0.000000
  0
LINE
  8
DIM
 62
     1
  6
CONTINUOUS
 10
0.747801
 20
6.329293
 30
0.000000
 11
0.871669
 21
6.486318
 31
0.000000
  0
LINE
  8
DIM
 62
     1
  6
CONTINUOUS
 10
0.747801
 20
6.329293
 30
0.000000
 11
1.186727
 21
7.350051
 31
0.000000
  0
LINE
  8
DIM
 62
     1
  6
CONTINUOUS
 10
1.186727
 20
7.350051
 30
0.000000
 11
1.386727
 21
7.350051
 31
0.000000
  0
TEXT
  8
DIM
 62
     1
 10
1.486727
 20
7.287551
 30
0.000000
 40
0.125000
  1
NOTE C
  0
CIRCLE
  8
HUB
 62
     7
  6
CONTINUOUS
 10
10.443192
 20
4.722219
 30
0.000000
 40
0.375000
  0
CIRCLE
  8
HUB
 62
     7
  6
CONTINUOUS
 10
10.443192
 20
4.722219
 30
0.000000
 40
0.703001
  0
CIRCLE
  8
HUB
 62
     7
  6
CONTINUOUS
 10
9.834376
 20
5.073719
 30
0.000000
 40
0.101500
  0
CIRCLE
  8
HUB
 62
     7
  6
CONTINUOUS
 10
9.834376
 20
4.370718
 30
0.000000
 40
0.101500
  0
CIRCLE
  8
HUB
 62
     7
  6
CONTINUOUS
 10
10.443193
 20
4.019218
 30
0.000000
 40
0.101499
  0
CIRCLE
  8
HUB
 62
     7
  6
CONTINUOUS
 10
11.052008
 20
4.370720
 30
0.000000
 40
0.101500
  0
CIRCLE
  8
HUB
 62
     7
  6
CONTINUOUS
 10
11.052007
 20
5.073720
 30
0.000000
 40
0.101500
  0
CIRCLE
  8
HUB
 62
     7
  6
CONTINUOUS
 10
10.443192
 20
5.425219
 30
0.000000
 40
0.101499
  0
CIRCLE
  8
HUB
 62
     7
  6
CONTINUOUS
 10
10.443192
 20
4.722219
 30
0.000000
 40
0.946436
  0
CIRCLE
  8
HUB
 62
     7
  6
CONTINUOUS
 10
10.443192
 20
4.722219
 30
0.000000
 40
1.890000
  0
CIRCLE
  8
HUB
 62
     7
  6
CONTINUOUS
 10
10.443192
 20
4.722219
 30
0.000000
 40
1.124999
  0
CIRCLE
  8
HUB
 62
     7
  6
CONTINUOUS
 10
10.443192
 20
4.722219
 30
0.000000
 40
0.800000
  0
LINE
  8
CENTER
 62
     7
  6
CONTINUOUS
 10
10.443192
 20
6.767821
 30
0.000000
 11
10.443192
 21
2.613635
 31
0.000000
  0
LINE
  8
CENTER
 62
     7
  6
CONTINUOUS
 10
12.520286
 20
4.722219
 30
0.000000
 11
8.366099
 21
4.722219
 31
0.000000
  0
LINE
  8
DIM
 62
     7
  6
CONTINUOUS
 10
4.898704
 20
4.722219
 30
0.000000
 11
6.173683
 21
4.722219
 31
0.000000
  0
LINE
  8
DIM
 62
     7
  6
CONTINUOUS
 10
6.581921
 20
4.722219
 30
0.000000
 11
7.157640
 21
4.722219
 31
0.000000
  0
CIRCLE
  8
HUB
 62
     7
  6
CONTINUOUS
 10
10.443192
 20
6.139219
 30
0.000000
 40
0.181000
  0
CIRCLE
  8
HUB
 62
     7
  6
CONTINUOUS
 10
10.443192
 20
6.139219
 30
0.000000
 40
0.211000
  0
CIRCLE
  8
HUB
 62
     7
  6
CONTINUOUS
 10
9.441222
 20
5.724189
 30
0.000000
 40
0.181000
  0
CIRCLE
  8
HUB
 62
     7
  6
CONTINUOUS
 10
9.441222
 20
5.724189
 30
0.000000
 40
0.211000
  0
CIRCLE
  8
HUB
 62
     7
  6
CONTINUOUS
 10
9.026192
 20
4.722219
 30
0.000000
 40
0.181000
  0
CIRCLE
  8
HUB
 62
     7
  6
CONTINUOUS
 10
9.026192
 20
4.722219
 30
0.000000
 40
0.211000
  0
CIRCLE
  8
HUB
 62
     7
  6
CONTINUOUS
 10
9.441222
 20
3.720248
 30
0.000000
 40
0.181000
  0
CIRCLE
  8
HUB
 62
     7
  6
CONTINUOUS
 10
9.441222
 20
3.720248
 30
0.000000
 40
0.211000
  0
CIRCLE
  8
HUB
 62
     7
  6
CONTINUOUS
 10
10.443192
 20
3.305219
 30
0.000000
 40
0.181000
  0
CIRCLE
  8
HUB
 62
     7
  6
CONTINUOUS
 10
10.443192
 20
3.305219
 30
0.000000
 40
0.211000
  0
CIRCLE
  8
HUB
 62
     7
  6
CONTINUOUS
 10
11.445163
 20
3.720248
 30
0.000000
 40
0.181000
  0
CIRCLE
  8
HUB
 62
     7
  6
CONTINUOUS
 10
11.445163
 20
3.720248
 30
0.000000
 40
0.211000
  0
CIRCLE
  8
HUB
 62
     7
  6
CONTINUOUS
 10
11.860192
 20
4.722219
 30
0.000000
 40
0.181000
  0
CIRCLE
  8
HUB
 62
     7
  6
CONTINUOUS
 10
11.860192
 20
4.722219
 30
0.000000
 40
0.211000
  0
CIRCLE
  8
HUB
 62
     7
  6
CONTINUOUS
 10
11.445163
 20
5.724189
 30
0.000000
 40
0.181000
  0
CIRCLE
  8
HUB
 62
     7
  6
CONTINUOUS
 10
11.445163
 20
5.724189
 30
0.000000
 40
0.211000
  0
TEXT
  8
DIM
 62
     7
 10
3.388139
 20
9.501228
 30
0.000000
 40
0.125000
  1
ELECTRO AUTOMOTIVE
  0
TEXT
  8
DIM
 62
     7
 10
3.388139
 20
9.313728
 30
0.000000
 40
0.125000
  1
P.O. BOX 1113 FELTON CA. 95018-1113
  0
LINE
  8
DIM
 62
     7
  6
CONTINUOUS
 10
3.255393
 20
9.738724
 30
0.000000
 11
6.821844
 21
9.738724
 31
0.000000
  0
LINE
  8
DIM
 62
     7
  6
CONTINUOUS
 10
6.821844
 20
9.738724
 30
0.000000
 11
6.821844
 21
8.838739
 31
0.000000
  0
LINE
  8
DIM
 62
     7
  6
CONTINUOUS
 10
6.821844
 20
8.838739
 30
0.000000
 11
3.255393
 21
8.838739
 31
0.000000
  0
LINE
  8
DIM
 62
     7
  6
CONTINUOUS
 10
3.255393
 20
8.838739
 30
0.000000
 11
3.255393
 21
9.738724
 31
0.000000
  0
TEXT
  8
DIM
 62
     7
 10
3.388139
 20
9.126228
 30
0.000000
 40
0.125000
  1
PHONE 831-429-1989 FAX 831-429-1907
  0
TEXT
  8
DIM
 62
     7
 10
3.388139
 20
8.938728
 30
0.000000
 40
0.125000
  1
DRAWN BY DAN SULLIVAN
  0
TEXT
  8
DIM
 62
     7
 10
7.787902
 20
9.597450
 30
0.000000
 40
0.125000
  1
HUB, 1976 BMW 2002 2.0L (NON-TURBO) 4 SP
  0
TEXT
  8
DIM
 62
     7
 10
7.787902
 20
9.222449
 30
0.000000
 40
0.125000
  1
2/26/09   REV A
  0
TEXT
  8
DIM
 62
     7
 10
7.910728
 20
8.030352
 30
0.000000
 40
0.125000
  1
NOTE B - 2.500 TPF
  0
TEXT
  8
DIM
 62
     7
 10
7.889735
 20
7.672531
 30
0.000000
 40
0.125000
  1
NOTE C - 8X DRILL & TAP
  0
TEXT
  8
DIM
 62
     7
 10
7.889735
 20
7.485031
 30
0.000000
 40
0.125000
  1
12mm - 1.5 THRU. EQ. SPC.
  0
TEXT
  8
DIM
 62
     7
 10
7.889735
 20
7.297531
 30
0.000000
 40
0.125000
  1
ON BC.
  0
TEXT
  8
DIM
 62
     7
 10
7.894761
 20
8.758550
 30
0.000000
 40
0.125000
  1
NOTE A - 6X DRILL 13/64 (.203) THRU, 
  0
TEXT
  8
DIM
 62
     7
 10
7.894761
 20
8.571049
 30
0.000000
 40
0.125000
  1
CB 23/64 (.359) X .36 DEEP ON BC
  0
TEXT
  8
DIM
 62
     7
 10
7.894761
 20
8.383549
 30
0.000000
 40
0.125000
  1
1 13/32 (1.406). EQ SPC.
  0
POINT
  8
HUB
 62
     7
 10
5.732126
 20
4.722218
 30
0.000000
  0
POINT
  8
HUB
 62
     7
 10
5.732126
 20
4.722218
 30
0.000000
  0
LINE
  8
HUB
 62
     7
  6
CONTINUOUS
 10
7.107126
 20
5.668655
 30
0.000000
 11
5.732126
 21
5.522219
 31
0.000000
  0
LINE
  8
HUB
 62
     7
  6
CONTINUOUS
 10
7.107126
 20
5.847218
 30
0.000000
 11
7.107126
 21
5.668655
 31
0.000000
  0
LINE
  8
HUB
 62
     7
  6
CONTINUOUS
 10
5.732126
 20
5.522219
 30
0.000000
 11
5.732126
 21
4.722219
 31
0.000000
  0
LINE
  8
HUB
 62
     7
  6
CONTINUOUS
 10
5.082126
 20
5.097219
 30
0.000000
 11
5.732126
 21
5.097219
 31
0.000000
  0
LINE
  8
HUB
 62
     7
  6
CONTINUOUS
 10
5.232126
 20
6.612219
 30
0.000000
 11
5.932126
 21
6.612219
 31
0.000000
  0
LINE
  8
HUB
 62
     7
  6
CONTINUOUS
 10
5.932126
 20
6.612219
 30
0.000000
 11
5.932126
 21
5.847218
 31
0.000000
  0
LINE
  8
HUB
 62
     7
  6
CONTINUOUS
 10
5.932126
 20
5.847218
 30
0.000000
 11
7.107126
 21
5.847218
 31
0.000000
  0
LINE
  8
HUB
 62
     7
  6
CONTINUOUS
 10
7.107126
 20
3.775783
 30
0.000000
 11
5.732126
 21
3.922218
 31
0.000000
  0
LINE
  8
HUB
 62
     7
  6
CONTINUOUS
 10
7.107126
 20
3.597219
 30
0.000000
 11
7.107126
 21
3.775783
 31
0.000000
  0
LINE
  8
HUB
 62
     7
  6
CONTINUOUS
 10
5.732126
 20
3.922218
 30
0.000000
 11
5.732126
 21
4.722219
 31
0.000000
  0
LINE
  8
HUB
 62
     7
  6
CONTINUOUS
 10
5.082126
 20
4.347219
 30
0.000000
 11
5.732126
 21
4.347219
 31
0.000000
  0
LINE
  8
HUB
 62
     7
  6
CONTINUOUS
 10
5.232126
 20
2.832219
 30
0.000000
 11
5.932126
 21
2.832219
 31
0.000000
  0
LINE
  8
HUB
 62
     7
  6
CONTINUOUS
 10
5.932126
 20
2.832219
 30
0.000000
 11
5.932126
 21
3.597219
 31
0.000000
  0
LINE
  8
HUB
 62
     7
  6
CONTINUOUS
 10
5.932126
 20
3.597219
 30
0.000000
 11
7.107126
 21
3.597219
 31
0.000000
  0
LINE
  8
HUB
 62
     7
  6
CONTINUOUS
 10
5.232126
 20
6.331967
 30
0.000000
 11
5.932126
 21
6.331967
 31
0.000000
  0
LINE
  8
HUB
 62
     7
  6
CONTINUOUS
 10
5.232126
 20
5.946470
 30
0.000000
 11
5.932126
 21
5.946470
 31
0.000000
  0
LINE
  8
HUB
 62
     7
  6
CONTINUOUS
 10
5.232126
 20
6.281967
 30
0.000000
 11
5.932126
 21
6.281967
 31
0.000000
  0
LINE
  8
HUB
 62
     7
  6
CONTINUOUS
 10
5.232126
 20
5.996470
 30
0.000000
 11
5.932126
 21
5.996470
 31
0.000000
  0
LINE
  8
HUB
 62
     7
  6
CONTINUOUS
 10
5.232126
 20
3.112470
 30
0.000000
 11
5.932126
 21
3.112470
 31
0.000000
  0
LINE
  8
HUB
 62
     7
  6
CONTINUOUS
 10
5.232126
 20
3.497967
 30
0.000000
 11
5.932126
 21
3.497967
 31
0.000000
  0
LINE
  8
HUB
 62
     7
  6
CONTINUOUS
 10
5.232126
 20
3.162470
 30
0.000000
 11
5.932126
 21
3.162470
 31
0.000000
  0
LINE
  8
HUB
 62
     7
  6
CONTINUOUS
 10
5.232126
 20
3.447967
 30
0.000000
 11
5.932126
 21
3.447967
 31
0.000000
  0
LINE
  8
HUB
 62
     7
  6
CONTINUOUS
 10
5.432126
 20
5.526718
 30
0.000000
 11
5.774369
 21
5.526718
 31
0.000000
  0
LINE
  8
HUB
 62
     7
  6
CONTINUOUS
 10
5.432126
 20
5.323719
 30
0.000000
 11
5.732126
 21
5.323719
 31
0.000000
  0
LINE
  8
HUB
 62
     7
  6
CONTINUOUS
 10
7.107126
 20
5.668655
 30
0.000000
 11
7.107126
 21
3.775783
 31
0.000000
  0
LINE
  8
CENTER
 62
     7
  6
CONTINUOUS
 10
5.232126
 20
6.139219
 30
0.000000
 11
5.932126
 21
6.139219
 31
0.000000
  0
LINE
  8
CENTER
 62
     7
  6
CONTINUOUS
 10
5.232126
 20
3.305219
 30
0.000000
 11
5.932126
 21
3.305219
 31
0.000000
  0
LINE
  8
CENTER
 62
     7
  6
CONTINUOUS
 10
5.082126
 20
5.425219
 30
0.000000
 11
5.732126
 21
5.425219
 31
0.000000
  0
LINE
  8
DIM
 62
     1
  6
CONTINUOUS
 10
8.104495
 20
3.597219
 30
0.000000
 11
8.052731
 21
3.790404
 31
0.000000
  0
LINE
  8
DIM
 62
     1
  6
CONTINUOUS
 10
8.104495
 20
3.597219
 30
0.000000
 11
8.156258
 21
3.790404
 31
0.000000
  0
LINE
  8
DIM
 62
     1
  6
CONTINUOUS
 10
8.104495
 20
5.847218
 30
0.000000
 11
8.156258
 21
5.654033
 31
0.000000
  0
LINE
  8
DIM
 62
     1
  6
CONTINUOUS
 10
8.104495
 20
5.847218
 30
0.000000
 11
8.052731
 21
5.654033
 31
0.000000
  0
LINE
  8
DIM
 62
     1
  6
CONTINUOUS
 10
7.177126
 20
3.597219
 30
0.000000
 11
8.154495
 21
3.597219
 31
0.000000
  0
LINE
  8
DIM
 62
     1
  6
CONTINUOUS
 10
7.177126
 20
5.847218
 30
0.000000
 11
8.154495
 21
5.847218
 31
0.000000
  0
TEXT
  8
DIM
 62
     1
 10
7.933851
 20
4.656636
 30
0.000000
 40
0.125000
  1
2.25
  0
LINE
  8
DIM
 62
     1
  6
CONTINUOUS
 10
8.104495
 20
3.597219
 30
0.000000
 11
8.104495
 21
4.606636
 31
0.000000
  0
LINE
  8
DIM
 62
     1
  6
CONTINUOUS
 10
8.104495
 20
4.837801
 30
0.000000
 11
8.104495
 21
5.847218
 31
0.000000
  0
LINE
  8
DIM
 62
     1
  6
CONTINUOUS
 10
7.611037
 20
3.922218
 30
0.000000
 11
7.559273
 21
4.115403
 31
0.000000
  0
LINE
  8
DIM
 62
     1
  6
CONTINUOUS
 10
7.611037
 20
3.922218
 30
0.000000
 11
7.662801
 21
4.115403
 31
0.000000
  0
LINE
  8
DIM
 62
     1
  6
CONTINUOUS
 10
7.611037
 20
5.522219
 30
0.000000
 11
7.662801
 21
5.329034
 31
0.000000
  0
LINE
  8
DIM
 62
     1
  6
CONTINUOUS
 10
7.611037
 20
5.522219
 30
0.000000
 11
7.559273
 21
5.329034
 31
0.000000
  0
LINE
  8
DIM
 62
     1
  6
CONTINUOUS
 10
5.802126
 20
3.922218
 30
0.000000
 11
7.661037
 21
3.922218
 31
0.000000
  0
LINE
  8
DIM
 62
     1
  6
CONTINUOUS
 10
5.802126
 20
5.522219
 30
0.000000
 11
7.661037
 21
5.522219
 31
0.000000
  0
TEXT
  8
DIM
 62
     1
 10
7.377688
 20
4.656866
 30
0.000000
 40
0.125000
  1
1.600
  0
LINE
  8
DIM
 62
     1
  6
CONTINUOUS
 10
7.611037
 20
3.922218
 30
0.000000
 11
7.611037
 21
4.606866
 31
0.000000
  0
LINE
  8
DIM
 62
     1
  6
CONTINUOUS
 10
7.611037
 20
4.837571
 30
0.000000
 11
7.611037
 21
5.522219
 31
0.000000
  0
LINE
  8
DIM
 62
     1
  6
CONTINUOUS
 10
6.486169
 20
4.347219
 30
0.000000
 11
6.434405
 21
4.540404
 31
0.000000
  0
LINE
  8
DIM
 62
     1
  6
CONTINUOUS
 10
6.486169
 20
4.347219
 30
0.000000
 11
6.537933
 21
4.540404
 31
0.000000
  0
LINE
  8
DIM
 62
     1
  6
CONTINUOUS
 10
6.486169
 20
5.097219
 30
0.000000
 11
6.537933
 21
4.904033
 31
0.000000
  0
LINE
  8
DIM
 62
     1
  6
CONTINUOUS
 10
6.486169
 20
5.097219
 30
0.000000
 11
6.434405
 21
4.904033
 31
0.000000
  0
LINE
  8
DIM
 62
     1
  6
CONTINUOUS
 10
5.775373
 20
4.347219
 30
0.000000
 11
6.536169
 21
4.347219
 31
0.000000
  0
LINE
  8
DIM
 62
     1
  6
CONTINUOUS
 10
5.775373
 20
5.097219
 30
0.000000
 11
6.536169
 21
5.097219
 31
0.000000
  0
TEXT
  8
DIM
 62
     1
 10
6.365174
 20
4.658282
 30
0.000000
 40
0.125000
  1
.75
  0
LINE
  8
DIM
 62
     1
  6
CONTINUOUS
 10
6.486169
 20
4.347219
 30
0.000000
 11
6.486169
 21
4.608282
 31
0.000000
  0
LINE
  8
DIM
 62
     1
  6
CONTINUOUS
 10
6.486169
 20
4.836155
 30
0.000000
 11
6.486169
 21
5.097219
 31
0.000000
  0
LINE
  8
DIM
 62
     1
  6
CONTINUOUS
 10
5.732126
 20
2.504972
 30
0.000000
 11
5.925311
 21
2.556736
 31
0.000000
  0
LINE
  8
DIM
 62
     1
  6
CONTINUOUS
 10
5.732126
 20
2.504972
 30
0.000000
 11
5.925311
 21
2.453208
 31
0.000000
  0
LINE
  8
DIM
 62
     1
  6
CONTINUOUS
 10
7.107126
 20
2.504972
 30
0.000000
 11
6.913941
 21
2.453208
 31
0.000000
  0
LINE
  8
DIM
 62
     1
  6
CONTINUOUS
 10
7.107126
 20
2.504972
 30
0.000000
 11
6.913941
 21
2.556736
 31
0.000000
  0
LINE
  8
DIM
 62
     1
  6
CONTINUOUS
 10
5.732126
 20
3.852218
 30
0.000000
 11
5.732126
 21
2.454972
 31
0.000000
  0
LINE
  8
DIM
 62
     1
  6
CONTINUOUS
 10
7.107126
 20
3.527219
 30
0.000000
 11
7.107126
 21
2.454972
 31
0.000000
  0
TEXT
  8
DIM
 62
     1
 10
6.205011
 20
2.440722
 30
0.000000
 40
0.125000
  1
1.375
  0
LINE
  8
DIM
 62
     1
  6
CONTINUOUS
 10
5.732126
 20
2.504972
 30
0.000000
 11
6.155011
 21
2.504972
 31
0.000000
  0
LINE
  8
DIM
 62
     1
  6
CONTINUOUS
 10
6.684241
 20
2.504972
 30
0.000000
 11
7.107126
 21
2.504972
 31
0.000000
  0
LINE
  8
DIM
 62
     1
  6
CONTINUOUS
 10
5.082126
 20
7.480897
 30
0.000000
 11
5.275311
 21
7.532661
 31
0.000000
  0
LINE
  8
DIM
 62
     1
  6
CONTINUOUS
 10
5.082126
 20
7.480897
 30
0.000000
 11
5.275311
 21
7.429133
 31
0.000000
  0
LINE
  8
DIM
 62
     1
  6
CONTINUOUS
 10
7.107126
 20
7.480897
 30
0.000000
 11
6.913941
 21
7.429133
 31
0.000000
  0
LINE
  8
DIM
 62
     1
  6
CONTINUOUS
 10
7.107126
 20
7.480897
 30
0.000000
 11
6.913941
 21
7.532661
 31
0.000000
  0
LINE
  8
DIM
 62
     1
  6
CONTINUOUS
 10
5.082126
 20
5.568719
 30
0.000000
 11
5.082126
 21
7.530897
 31
0.000000
  0
LINE
  8
DIM
 62
     1
  6
CONTINUOUS
 10
7.107126
 20
5.917218
 30
0.000000
 11
7.107126
 21
7.530897
 31
0.000000
  0
TEXT
  8
DIM
 62
     1
 10
5.861314
 20
7.415314
 30
0.000000
 40
0.125000
  1
2.025
  0
LINE
  8
DIM
 62
     1
  6
CONTINUOUS
 10
5.082126
 20
7.480897
 30
0.000000
 11
5.811314
 21
7.480897
 31
0.000000
  0
LINE
  8
DIM
 62
     1
  6
CONTINUOUS
 10
6.377938
 20
7.480897
 30
0.000000
 11
7.107126
 21
7.480897
 31
0.000000
  0
LINE
  8
DIM
 62
     1
  6
CONTINUOUS
 10
5.082126
 20
7.215644
 30
0.000000
 11
5.275311
 21
7.267408
 31
0.000000
  0
LINE
  8
DIM
 62
     1
  6
CONTINUOUS
 10
5.082126
 20
7.215644
 30
0.000000
 11
5.275311
 21
7.163881
 31
0.000000
  0
LINE
  8
DIM
 62
     1
  6
CONTINUOUS
 10
5.932126
 20
7.215644
 30
0.000000
 11
5.738941
 21
7.163881
 31
0.000000
  0
LINE
  8
DIM
 62
     1
  6
CONTINUOUS
 10
5.932126
 20
7.215644
 30
0.000000
 11
5.738941
 21
7.267408
 31
0.000000
  0
LINE
  8
DIM
 62
     1
  6
CONTINUOUS
 10
5.082126
 20
5.568719
 30
0.000000
 11
5.082126
 21
7.265644
 31
0.000000
  0
LINE
  8
DIM
 62
     1
  6
CONTINUOUS
 10
5.932126
 20
6.682219
 30
0.000000
 11
5.932126
 21
7.265644
 31
0.000000
  0
TEXT
  8
DIM
 62
     1
 10
5.383940
 20
7.150141
 30
0.000000
 40
0.125000
  1
.85
  0
LINE
  8
DIM
 62
     1
  6
CONTINUOUS
 10
5.082126
 20
7.215644
 30
0.000000
 11
5.333940
 21
7.215644
 31
0.000000
  0
LINE
  8
DIM
 62
     1
  6
CONTINUOUS
 10
5.680312
 20
7.215644
 30
0.000000
 11
5.932126
 21
7.215644
 31
0.000000
  0
LINE
  8
DIM
 62
     1
  6
CONTINUOUS
 10
5.082126
 20
6.959704
 30
0.000000
 11
4.888941
 21
6.907940
 31
0.000000
  0
LINE
  8
DIM
 62
     1
  6
CONTINUOUS
 10
5.082126
 20
6.959704
 30
0.000000
 11
4.888941
 21
7.011468
 31
0.000000
  0
LINE
  8
DIM
 62
     1
  6
CONTINUOUS
 10
5.232126
 20
6.959704
 30
0.000000
 11
5.425311
 21
7.011468
 31
0.000000
  0
LINE
  8
DIM
 62
     1
  6
CONTINUOUS
 10
5.232126
 20
6.959704
 30
0.000000
 11
5.425311
 21
6.907940
 31
0.000000
  0
LINE
  8
DIM
 62
     1
  6
CONTINUOUS
 10
5.082126
 20
5.568719
 30
0.000000
 11
5.082126
 21
7.009704
 31
0.000000
  0
LINE
  8
DIM
 62
     1
  6
CONTINUOUS
 10
5.232126
 20
6.682219
 30
0.000000
 11
5.232126
 21
7.009704
 31
0.000000
  0
TEXT
  8
DIM
 62
     1
 10
4.341257
 20
6.895454
 30
0.000000
 40
0.125000
  1
.15
  0
LINE
  8
DIM
 62
     1
  6
CONTINUOUS
 10
5.082126
 20
6.959704
 30
0.000000
 11
4.682126
 21
6.959704
 31
0.000000
  0
LINE
  8
DIM
 62
     1
  6
CONTINUOUS
 10
5.232126
 20
6.959704
 30
0.000000
 11
5.632126
 21
6.959704
 31
0.000000
  0
CIRCLE
  8
CENTER
 62
     7
  6
CONTINUOUS
 10
0.627123
 20
4.722219
 30
0.000000
 40
1.417000
  0
CIRCLE
  8
CENTER
 62
     7
  6
CONTINUOUS
 10
10.443192
 20
4.722219
 30
0.000000
 40
1.417000
  0
ENDSEC
  0
EOF
