  0
SECTION
  2
HEADER
  9
$ACADVER
  1
AC1006
  0
ENDSEC
  0
SECTION
  2
TABLES
  0
TABLE
  2
LTYPE
 70
    25
  0
LTYPE
  2
CONTINUOUS
 70
    64
  3
Solid line
 72
    64
 73
     0
 40
0.000000
  0
LTYPE
  2
DASHDOT
 70
    64
  3
__ . __ . __ . __ . __ . __ . __ . __ . __ . __
 72
    65
 73
     4
 40
1.000000
 49
0.500000
 49
-0.250000
 49
0.000000
 49
-0.250000
  0
LTYPE
  2
DASHED
 70
    64
  3
__ __ __ __ __ __ __ __ __ __ __ __ __ __ __ __
 72
    65
 73
     2
 40
0.750000
 49
0.500000
 49
-0.250000
  0
LTYPE
  2
DIVIDE
 70
    64
  3
____ . . ____ . . ____ . . ____ . . ____ . . __
 72
    65
 73
     6
 40
1.250000
 49
0.500000
 49
-0.250000
 49
0.000000
 49
-0.250000
 49
0.000000
 49
-0.250000
  0
LTYPE
  2
DOT
 70
    64
  3
. . . . . . . . . . . . . . . . . . . . . . . . 
 72
    65
 73
     2
 40
0.250000
 49
0.000000
 49
-0.250000
  0
ENDTAB
  0
ENDSEC
  0
SECTION
  2
ENTITIES
  0
CIRCLE
  8
PLATE
 62
     7
  6
CONTINUOUS
 10
5.746136
 20
4.797381
 30
0.000000
 40
0.301638
  0
CIRCLE
  8
PLATE
 62
     7
  6
CONTINUOUS
 10
16.226238
 20
11.063688
 30
0.000000
 40
0.301638
  0
CIRCLE
  8
PLATE
 62
     7
  6
CONTINUOUS
 10
10.007149
 20
15.951785
 30
0.000000
 40
0.237614
  0
LINE
  8
PLATE
 62
     7
  6
CONTINUOUS
 10
14.399717
 20
15.031981
 30
0.000000
 11
16.796190
 21
11.130928
 31
0.000000
  0
LINE
  8
PLATE
 62
     7
  6
CONTINUOUS
 10
3.405991
 20
9.539922
 30
0.000000
 11
4.713726
 21
12.848433
 31
0.000000
  0
LINE
  8
PLATE
 62
     7
  6
CONTINUOUS
 10
4.694246
 20
13.071190
 30
0.000000
 11
3.519761
 21
14.983053
 31
0.000000
  0
ARC
  8
PLATE
 62
     7
  6
CONTINUOUS
 10
4.481229
 20
12.940331
 30
0.000000
 40
0.250000
 50
338.432898
 51
391.563000
  0
LINE
  8
PLATE
 62
     7
  6
CONTINUOUS
 10
3.519761
 20
14.983053
 30
0.000000
 11
8.117741
 21
17.807658
 31
0.000000
  0
LINE
  8
PLATE
 62
     7
  6
CONTINUOUS
 10
14.399717
 20
15.031981
 30
0.000000
 11
8.117741
 21
17.807658
 31
0.000000
  0
CIRCLE
  8
PLATE
 62
     7
  6
CONTINUOUS
 10
3.854230
 20
9.555784
 30
0.000000
 40
0.204781
  0
LINE
  8
PLATE
 62
     7
  6
CONTINUOUS
 10
16.844084
 20
11.052966
 30
0.000000
 11
15.020673
 21
4.791391
 31
0.000000
  0
LINE
  8
PLATE
 62
     7
  6
CONTINUOUS
 10
16.796190
 20
11.130928
 30
0.000000
 11
16.844084
 21
11.052966
 31
0.000000
  0
CIRCLE
  8
PLATE
 62
     7
  6
CONTINUOUS
 10
8.113042
 20
17.308421
 30
0.000000
 40
0.204781
  0
CIRCLE
  8
PLATE
 62
     7
  6
CONTINUOUS
 10
4.099579
 20
14.862541
 30
0.000000
 40
0.204781
  0
CIRCLE
  8
PLATE
 62
     7
  6
CONTINUOUS
 10
13.914777
 20
14.669321
 30
0.000000
 40
0.237614
  0
LINE
  8
PLATE
 62
     7
  6
CONTINUOUS
 10
12.383029
 20
3.171048
 30
0.000000
 11
15.020673
 21
4.791391
 31
0.000000
  0
LINE
  8
PLATE
 62
     7
  6
CONTINUOUS
 10
5.808246
 20
3.171068
 30
0.000000
 11
3.405991
 21
9.539922
 31
0.000000
  0
LINE
  8
PLATE
 62
     7
  6
CONTINUOUS
 10
5.808246
 20
3.171068
 30
0.000000
 11
12.383029
 21
3.171048
 31
0.000000
  0
CIRCLE
  8
PLATE
 62
     7
  6
CONTINUOUS
 10
10.079074
 20
5.826817
 30
0.000000
 40
0.250000
  0
CIRCLE
  8
PLATE
 62
     7
  6
CONTINUOUS
 10
13.701773
 20
9.452335
 30
0.000000
 40
0.250000
  0
CIRCLE
  8
PLATE
 62
     7
  6
CONTINUOUS
 10
10.076255
 20
13.075033
 30
0.000000
 40
0.250000
  0
CIRCLE
  8
PLATE
 62
     7
  6
CONTINUOUS
 10
6.453557
 20
9.449516
 30
0.000000
 40
0.250000
  0
CIRCLE
  8
PLATE
 62
     7
  6
CONTINUOUS
 10
10.077665
 20
9.450925
 30
0.000000
 40
3.000000
  0
CIRCLE
  8
PLATE
 62
     7
  6
CONTINUOUS
 10
10.077665
 20
9.450925
 30
0.000000
 40
4.250000
  0
LINE
  8
CENTER
 62
     7
  6
CONTINUOUS
 10
10.077665
 20
14.700925
 30
0.000000
 11
10.077665
 21
4.200925
 31
0.000000
  0
LINE
  8
CENTER
 62
     7
  6
CONTINUOUS
 10
4.827665
 20
9.450925
 30
0.000000
 11
15.327665
 21
9.450925
 31
0.000000
  0
LINE
  8
DIM
 62
     1
  6
CONTINUOUS
 10
3.519761
 20
18.837993
 30
0.000000
 11
3.712946
 21
18.889757
 31
0.000000
  0
LINE
  8
DIM
 62
     1
  6
CONTINUOUS
 10
3.519761
 20
18.837993
 30
0.000000
 11
3.712946
 21
18.786229
 31
0.000000
  0
LINE
  8
DIM
 62
     1
  6
CONTINUOUS
 10
16.844084
 20
18.837993
 30
0.000000
 11
16.650899
 21
18.786229
 31
0.000000
  0
LINE
  8
DIM
 62
     1
  6
CONTINUOUS
 10
16.844084
 20
18.837993
 30
0.000000
 11
16.650899
 21
18.889757
 31
0.000000
  0
LINE
  8
DIM
 62
     1
  6
CONTINUOUS
 10
3.519761
 20
15.053053
 30
0.000000
 11
3.519761
 21
18.887993
 31
0.000000
  0
LINE
  8
DIM
 62
     1
  6
CONTINUOUS
 10
16.844084
 20
11.122966
 30
0.000000
 11
16.844084
 21
18.887993
 31
0.000000
  0
TEXT
  8
DIM
 62
     1
 10
9.968211
 20
18.772410
 30
0.000000
 40
0.150000
  1
13.32
  0
LINE
  8
DIM
 62
     1
  6
CONTINUOUS
 10
3.519761
 20
18.837993
 30
0.000000
 11
9.918211
 21
18.837993
 31
0.000000
  0
LINE
  8
DIM
 62
     1
  6
CONTINUOUS
 10
10.445633
 20
18.837993
 30
0.000000
 11
16.844084
 21
18.837993
 31
0.000000
  0
LINE
  8
DIM
 62
     1
  6
CONTINUOUS
 10
3.519761
 20
18.427092
 30
0.000000
 11
3.712946
 21
18.478856
 31
0.000000
  0
LINE
  8
DIM
 62
     1
  6
CONTINUOUS
 10
3.519761
 20
18.427092
 30
0.000000
 11
3.712946
 21
18.375328
 31
0.000000
  0
LINE
  8
DIM
 62
     1
  6
CONTINUOUS
 10
8.117741
 20
18.427092
 30
0.000000
 11
7.924556
 21
18.375328
 31
0.000000
  0
LINE
  8
DIM
 62
     1
  6
CONTINUOUS
 10
8.117741
 20
18.427092
 30
0.000000
 11
7.924556
 21
18.478856
 31
0.000000
  0
LINE
  8
DIM
 62
     1
  6
CONTINUOUS
 10
3.519761
 20
15.053053
 30
0.000000
 11
3.519761
 21
18.477092
 31
0.000000
  0
LINE
  8
DIM
 62
     1
  6
CONTINUOUS
 10
8.117741
 20
17.877658
 30
0.000000
 11
8.117741
 21
18.477092
 31
0.000000
  0
TEXT
  8
DIM
 62
     1
 10
5.625899
 20
18.361740
 30
0.000000
 40
0.150000
  1
4.60
  0
LINE
  8
DIM
 62
     1
  6
CONTINUOUS
 10
3.519761
 20
18.427092
 30
0.000000
 11
5.575899
 21
18.427092
 31
0.000000
  0
LINE
  8
DIM
 62
     1
  6
CONTINUOUS
 10
6.061604
 20
18.427092
 30
0.000000
 11
8.117741
 21
18.427092
 31
0.000000
  0
LINE
  8
DIM
 62
     1
  6
CONTINUOUS
 10
8.117741
 20
18.427092
 30
0.000000
 11
8.310927
 21
18.478856
 31
0.000000
  0
LINE
  8
DIM
 62
     1
  6
CONTINUOUS
 10
8.117741
 20
18.427092
 30
0.000000
 11
8.310927
 21
18.375328
 31
0.000000
  0
LINE
  8
DIM
 62
     1
  6
CONTINUOUS
 10
14.399717
 20
18.427092
 30
0.000000
 11
14.206532
 21
18.375328
 31
0.000000
  0
LINE
  8
DIM
 62
     1
  6
CONTINUOUS
 10
14.399717
 20
18.427092
 30
0.000000
 11
14.206532
 21
18.478856
 31
0.000000
  0
LINE
  8
DIM
 62
     1
  6
CONTINUOUS
 10
8.117741
 20
17.877658
 30
0.000000
 11
8.117741
 21
18.477092
 31
0.000000
  0
LINE
  8
DIM
 62
     1
  6
CONTINUOUS
 10
14.399717
 20
15.101981
 30
0.000000
 11
14.399717
 21
18.477092
 31
0.000000
  0
TEXT
  8
DIM
 62
     1
 10
11.078149
 20
18.361509
 30
0.000000
 40
0.150000
  1
6.28
  0
LINE
  8
DIM
 62
     1
  6
CONTINUOUS
 10
8.117741
 20
18.427092
 30
0.000000
 11
11.028148
 21
18.427092
 31
0.000000
  0
LINE
  8
DIM
 62
     1
  6
CONTINUOUS
 10
11.489311
 20
18.427092
 30
0.000000
 11
14.399717
 21
18.427092
 31
0.000000
  0
LINE
  8
DIM
 62
     1
  6
CONTINUOUS
 10
5.808246
 20
2.333659
 30
0.000000
 11
6.001431
 21
2.385423
 31
0.000000
  0
LINE
  8
DIM
 62
     1
  6
CONTINUOUS
 10
5.808246
 20
2.333659
 30
0.000000
 11
6.001431
 21
2.281896
 31
0.000000
  0
LINE
  8
DIM
 62
     1
  6
CONTINUOUS
 10
12.383029
 20
2.333659
 30
0.000000
 11
12.189843
 21
2.281896
 31
0.000000
  0
LINE
  8
DIM
 62
     1
  6
CONTINUOUS
 10
12.383029
 20
2.333659
 30
0.000000
 11
12.189843
 21
2.385423
 31
0.000000
  0
LINE
  8
DIM
 62
     1
  6
CONTINUOUS
 10
5.808246
 20
3.101068
 30
0.000000
 11
5.808246
 21
2.283659
 31
0.000000
  0
LINE
  8
DIM
 62
     1
  6
CONTINUOUS
 10
12.383029
 20
3.101048
 30
0.000000
 11
12.383029
 21
2.283659
 31
0.000000
  0
TEXT
  8
DIM
 62
     1
 10
8.915487
 20
2.268309
 30
0.000000
 40
0.150000
  1
6.57
  0
LINE
  8
DIM
 62
     1
  6
CONTINUOUS
 10
5.808246
 20
2.333659
 30
0.000000
 11
8.865487
 21
2.333659
 31
0.000000
  0
LINE
  8
DIM
 62
     1
  6
CONTINUOUS
 10
9.325787
 20
2.333659
 30
0.000000
 11
12.383029
 21
2.333659
 31
0.000000
  0
LINE
  8
DIM
 62
     1
  6
CONTINUOUS
 10
12.383029
 20
2.333659
 30
0.000000
 11
12.576214
 21
2.385423
 31
0.000000
  0
LINE
  8
DIM
 62
     1
  6
CONTINUOUS
 10
12.383029
 20
2.333659
 30
0.000000
 11
12.576214
 21
2.281896
 31
0.000000
  0
LINE
  8
DIM
 62
     1
  6
CONTINUOUS
 10
15.020673
 20
2.333659
 30
0.000000
 11
14.827488
 21
2.281896
 31
0.000000
  0
LINE
  8
DIM
 62
     1
  6
CONTINUOUS
 10
15.020673
 20
2.333659
 30
0.000000
 11
14.827488
 21
2.385423
 31
0.000000
  0
LINE
  8
DIM
 62
     1
  6
CONTINUOUS
 10
12.383029
 20
3.101048
 30
0.000000
 11
12.383029
 21
2.283659
 31
0.000000
  0
LINE
  8
DIM
 62
     1
  6
CONTINUOUS
 10
15.020673
 20
4.721391
 30
0.000000
 11
15.020673
 21
2.283659
 31
0.000000
  0
TEXT
  8
DIM
 62
     1
 10
13.519178
 20
2.268077
 30
0.000000
 40
0.150000
  1
2.64
  0
LINE
  8
DIM
 62
     1
  6
CONTINUOUS
 10
12.383029
 20
2.333659
 30
0.000000
 11
13.469178
 21
2.333659
 31
0.000000
  0
LINE
  8
DIM
 62
     1
  6
CONTINUOUS
 10
13.934523
 20
2.333659
 30
0.000000
 11
15.020673
 21
2.333659
 31
0.000000
  0
LINE
  8
DIM
 62
     1
  6
CONTINUOUS
 10
17.564941
 20
3.171048
 30
0.000000
 11
17.513177
 21
3.364233
 31
0.000000
  0
LINE
  8
DIM
 62
     1
  6
CONTINUOUS
 10
17.564941
 20
3.171048
 30
0.000000
 11
17.616705
 21
3.364233
 31
0.000000
  0
LINE
  8
DIM
 62
     1
  6
CONTINUOUS
 10
17.564941
 20
4.791391
 30
0.000000
 11
17.616705
 21
4.598206
 31
0.000000
  0
LINE
  8
DIM
 62
     1
  6
CONTINUOUS
 10
17.564941
 20
4.791391
 30
0.000000
 11
17.513177
 21
4.598206
 31
0.000000
  0
LINE
  8
DIM
 62
     1
  6
CONTINUOUS
 10
12.453029
 20
3.171048
 30
0.000000
 11
17.614941
 21
3.171048
 31
0.000000
  0
LINE
  8
DIM
 62
     1
  6
CONTINUOUS
 10
15.090673
 20
4.791391
 30
0.000000
 11
17.614941
 21
4.791391
 31
0.000000
  0
TEXT
  8
DIM
 62
     1
 10
17.404440
 20
3.915637
 30
0.000000
 40
0.150000
  1
1.62
  0
LINE
  8
DIM
 62
     1
  6
CONTINUOUS
 10
17.564941
 20
3.171048
 30
0.000000
 11
17.564941
 21
3.865637
 31
0.000000
  0
LINE
  8
DIM
 62
     1
  6
CONTINUOUS
 10
17.564941
 20
4.096802
 30
0.000000
 11
17.564941
 21
4.791391
 31
0.000000
  0
LINE
  8
DIM
 62
     1
  6
CONTINUOUS
 10
17.564941
 20
4.791391
 30
0.000000
 11
17.513177
 21
4.984576
 31
0.000000
  0
LINE
  8
DIM
 62
     1
  6
CONTINUOUS
 10
17.564941
 20
4.791391
 30
0.000000
 11
17.616705
 21
4.984576
 31
0.000000
  0
LINE
  8
DIM
 62
     1
  6
CONTINUOUS
 10
17.564941
 20
11.052966
 30
0.000000
 11
17.616705
 21
10.859781
 31
0.000000
  0
LINE
  8
DIM
 62
     1
  6
CONTINUOUS
 10
17.564941
 20
11.052966
 30
0.000000
 11
17.513177
 21
10.859781
 31
0.000000
  0
LINE
  8
DIM
 62
     1
  6
CONTINUOUS
 10
15.090673
 20
4.791391
 30
0.000000
 11
17.614941
 21
4.791391
 31
0.000000
  0
LINE
  8
DIM
 62
     1
  6
CONTINUOUS
 10
16.914084
 20
11.052966
 30
0.000000
 11
17.614941
 21
11.052966
 31
0.000000
  0
TEXT
  8
DIM
 62
     1
 10
17.382722
 20
7.856595
 30
0.000000
 40
0.150000
  1
6.26
  0
LINE
  8
DIM
 62
     1
  6
CONTINUOUS
 10
17.564941
 20
4.791391
 30
0.000000
 11
17.564941
 21
7.806596
 31
0.000000
  0
LINE
  8
DIM
 62
     1
  6
CONTINUOUS
 10
17.564941
 20
8.037761
 30
0.000000
 11
17.564941
 21
11.052966
 31
0.000000
  0
LINE
  8
DIM
 62
     1
  6
CONTINUOUS
 10
17.564941
 20
11.052966
 30
0.000000
 11
17.513177
 21
11.246151
 31
0.000000
  0
LINE
  8
DIM
 62
     1
  6
CONTINUOUS
 10
17.564941
 20
11.052966
 30
0.000000
 11
17.616705
 21
11.246151
 31
0.000000
  0
LINE
  8
DIM
 62
     1
  6
CONTINUOUS
 10
17.564941
 20
15.031981
 30
0.000000
 11
17.616705
 21
14.838796
 31
0.000000
  0
LINE
  8
DIM
 62
     1
  6
CONTINUOUS
 10
17.564941
 20
15.031981
 30
0.000000
 11
17.513177
 21
14.838796
 31
0.000000
  0
LINE
  8
DIM
 62
     1
  6
CONTINUOUS
 10
16.914084
 20
11.052966
 30
0.000000
 11
17.614941
 21
11.052966
 31
0.000000
  0
LINE
  8
DIM
 62
     1
  6
CONTINUOUS
 10
14.469717
 20
15.031981
 30
0.000000
 11
17.614941
 21
15.031981
 31
0.000000
  0
TEXT
  8
DIM
 62
     1
 10
17.380670
 20
12.957782
 30
0.000000
 40
0.150000
  1
3.98
  0
LINE
  8
DIM
 62
     1
  6
CONTINUOUS
 10
17.564941
 20
11.052966
 30
0.000000
 11
17.564941
 21
12.907782
 31
0.000000
  0
LINE
  8
DIM
 62
     1
  6
CONTINUOUS
 10
17.564941
 20
13.177165
 30
0.000000
 11
17.564941
 21
15.031981
 31
0.000000
  0
LINE
  8
DIM
 62
     1
  6
CONTINUOUS
 10
17.564941
 20
15.031981
 30
0.000000
 11
17.513177
 21
15.225167
 31
0.000000
  0
LINE
  8
DIM
 62
     1
  6
CONTINUOUS
 10
17.564941
 20
15.031981
 30
0.000000
 11
17.616705
 21
15.225167
 31
0.000000
  0
LINE
  8
DIM
 62
     1
  6
CONTINUOUS
 10
17.564941
 20
17.807658
 30
0.000000
 11
17.616705
 21
17.614472
 31
0.000000
  0
LINE
  8
DIM
 62
     1
  6
CONTINUOUS
 10
17.564941
 20
17.807658
 30
0.000000
 11
17.513177
 21
17.614472
 31
0.000000
  0
LINE
  8
DIM
 62
     1
  6
CONTINUOUS
 10
14.469717
 20
15.031981
 30
0.000000
 11
17.614941
 21
15.031981
 31
0.000000
  0
LINE
  8
DIM
 62
     1
  6
CONTINUOUS
 10
8.187741
 20
17.807658
 30
0.000000
 11
17.614941
 21
17.807658
 31
0.000000
  0
TEXT
  8
DIM
 62
     1
 10
17.388188
 20
16.354237
 30
0.000000
 40
0.150000
  1
2.78
  0
LINE
  8
DIM
 62
     1
  6
CONTINUOUS
 10
17.564941
 20
15.031981
 30
0.000000
 11
17.564941
 21
16.304237
 31
0.000000
  0
LINE
  8
DIM
 62
     1
  6
CONTINUOUS
 10
17.564941
 20
16.535402
 30
0.000000
 11
17.564941
 21
17.807658
 31
0.000000
  0
LINE
  8
DIM
 62
     1
  6
CONTINUOUS
 10
2.310549
 20
3.171068
 30
0.000000
 11
2.258786
 21
3.364253
 31
0.000000
  0
LINE
  8
DIM
 62
     1
  6
CONTINUOUS
 10
2.310549
 20
3.171068
 30
0.000000
 11
2.362313
 21
3.364253
 31
0.000000
  0
LINE
  8
DIM
 62
     1
  6
CONTINUOUS
 10
2.310549
 20
9.539922
 30
0.000000
 11
2.362313
 21
9.346736
 31
0.000000
  0
LINE
  8
DIM
 62
     1
  6
CONTINUOUS
 10
2.310549
 20
9.539922
 30
0.000000
 11
2.258786
 21
9.346736
 31
0.000000
  0
LINE
  8
DIM
 62
     1
  6
CONTINUOUS
 10
5.738246
 20
3.171068
 30
0.000000
 11
2.260549
 21
3.171068
 31
0.000000
  0
LINE
  8
DIM
 62
     1
  6
CONTINUOUS
 10
3.335991
 20
9.539922
 30
0.000000
 11
2.260549
 21
9.539922
 31
0.000000
  0
TEXT
  8
DIM
 62
     1
 10
2.128465
 20
6.290144
 30
0.000000
 40
0.150000
  1
6.37
  0
LINE
  8
DIM
 62
     1
  6
CONTINUOUS
 10
2.310549
 20
3.171068
 30
0.000000
 11
2.310549
 21
6.240144
 31
0.000000
  0
LINE
  8
DIM
 62
     1
  6
CONTINUOUS
 10
2.310549
 20
6.470846
 30
0.000000
 11
2.310549
 21
9.539922
 31
0.000000
  0
LINE
  8
DIM
 62
     1
  6
CONTINUOUS
 10
2.310549
 20
9.539922
 30
0.000000
 11
2.258786
 21
9.733107
 31
0.000000
  0
LINE
  8
DIM
 62
     1
  6
CONTINUOUS
 10
2.310549
 20
9.539922
 30
0.000000
 11
2.362313
 21
9.733107
 31
0.000000
  0
LINE
  8
DIM
 62
     1
  6
CONTINUOUS
 10
2.310549
 20
14.983053
 30
0.000000
 11
2.362313
 21
14.789867
 31
0.000000
  0
LINE
  8
DIM
 62
     1
  6
CONTINUOUS
 10
2.310549
 20
14.983053
 30
0.000000
 11
2.258786
 21
14.789867
 31
0.000000
  0
LINE
  8
DIM
 62
     1
  6
CONTINUOUS
 10
3.335991
 20
9.539922
 30
0.000000
 11
2.260549
 21
9.539922
 31
0.000000
  0
LINE
  8
DIM
 62
     1
  6
CONTINUOUS
 10
3.449761
 20
14.983053
 30
0.000000
 11
2.260549
 21
14.983053
 31
0.000000
  0
TEXT
  8
DIM
 62
     1
 10
2.125662
 20
12.197550
 30
0.000000
 40
0.150000
  1
5.44
  0
LINE
  8
DIM
 62
     1
  6
CONTINUOUS
 10
2.310549
 20
9.539922
 30
0.000000
 11
2.310549
 21
12.147550
 31
0.000000
  0
LINE
  8
DIM
 62
     1
  6
CONTINUOUS
 10
2.310549
 20
12.375424
 30
0.000000
 11
2.310549
 21
14.983053
 31
0.000000
  0
LINE
  8
DIM
 62
     1
  6
CONTINUOUS
 10
2.310549
 20
14.983053
 30
0.000000
 11
2.258786
 21
15.176238
 31
0.000000
  0
LINE
  8
DIM
 62
     1
  6
CONTINUOUS
 10
2.310549
 20
14.983053
 30
0.000000
 11
2.362313
 21
15.176238
 31
0.000000
  0
LINE
  8
DIM
 62
     1
  6
CONTINUOUS
 10
2.310549
 20
17.807658
 30
0.000000
 11
2.362313
 21
17.614472
 31
0.000000
  0
LINE
  8
DIM
 62
     1
  6
CONTINUOUS
 10
2.310549
 20
17.807658
 30
0.000000
 11
2.258786
 21
17.614472
 31
0.000000
  0
LINE
  8
DIM
 62
     1
  6
CONTINUOUS
 10
3.449761
 20
14.983053
 30
0.000000
 11
2.260549
 21
14.983053
 31
0.000000
  0
LINE
  8
DIM
 62
     1
  6
CONTINUOUS
 10
8.047741
 20
17.807658
 30
0.000000
 11
2.260549
 21
17.807658
 31
0.000000
  0
TEXT
  8
DIM
 62
     1
 10
2.136635
 20
16.329772
 30
0.000000
 40
0.150000
  1
2.82
  0
LINE
  8
DIM
 62
     1
  6
CONTINUOUS
 10
2.310549
 20
14.983053
 30
0.000000
 11
2.310549
 21
16.279773
 31
0.000000
  0
LINE
  8
DIM
 62
     1
  6
CONTINUOUS
 10
2.310549
 20
16.510938
 30
0.000000
 11
2.310549
 21
17.807658
 31
0.000000
  0
LINE
  8
DIM
 62
     1
  6
CONTINUOUS
 10
14.399717
 20
18.427165
 30
0.000000
 11
14.592903
 21
18.478929
 31
0.000000
  0
LINE
  8
DIM
 62
     1
  6
CONTINUOUS
 10
14.399717
 20
18.427165
 30
0.000000
 11
14.592903
 21
18.375402
 31
0.000000
  0
LINE
  8
DIM
 62
     1
  6
CONTINUOUS
 10
16.844084
 20
18.427165
 30
0.000000
 11
16.650899
 21
18.375402
 31
0.000000
  0
LINE
  8
DIM
 62
     1
  6
CONTINUOUS
 10
16.844084
 20
18.427165
 30
0.000000
 11
16.650899
 21
18.478929
 31
0.000000
  0
LINE
  8
DIM
 62
     1
  6
CONTINUOUS
 10
14.399717
 20
15.101981
 30
0.000000
 11
14.399717
 21
18.477165
 31
0.000000
  0
LINE
  8
DIM
 62
     1
  6
CONTINUOUS
 10
16.844084
 20
11.122966
 30
0.000000
 11
16.844084
 21
18.477165
 31
0.000000
  0
TEXT
  8
DIM
 62
     1
 10
15.438773
 20
18.361583
 30
0.000000
 40
0.150000
  1
2.44
  0
LINE
  8
DIM
 62
     1
  6
CONTINUOUS
 10
14.399717
 20
18.427165
 30
0.000000
 11
15.388774
 21
18.427165
 31
0.000000
  0
LINE
  8
DIM
 62
     1
  6
CONTINUOUS
 10
15.855028
 20
18.427165
 30
0.000000
 11
16.844084
 21
18.427165
 31
0.000000
  0
LINE
  8
DIM
 62
     1
  6
CONTINUOUS
 10
3.405991
 20
18.426122
 30
0.000000
 11
3.212806
 21
18.374358
 31
0.000000
  0
LINE
  8
DIM
 62
     1
  6
CONTINUOUS
 10
3.405991
 20
18.426122
 30
0.000000
 11
3.212806
 21
18.477886
 31
0.000000
  0
LINE
  8
DIM
 62
     1
  6
CONTINUOUS
 10
3.519761
 20
18.426122
 30
0.000000
 11
3.712946
 21
18.477886
 31
0.000000
  0
LINE
  8
DIM
 62
     1
  6
CONTINUOUS
 10
3.519761
 20
18.426122
 30
0.000000
 11
3.712946
 21
18.374358
 31
0.000000
  0
LINE
  8
DIM
 62
     1
  6
CONTINUOUS
 10
3.405991
 20
9.609922
 30
0.000000
 11
3.405991
 21
18.476122
 31
0.000000
  0
LINE
  8
DIM
 62
     1
  6
CONTINUOUS
 10
3.519761
 20
15.053053
 30
0.000000
 11
3.519761
 21
18.476122
 31
0.000000
  0
TEXT
  8
DIM
 62
     1
 10
2.740699
 20
18.361873
 30
0.000000
 40
0.150000
  1
.11
  0
LINE
  8
DIM
 62
     1
  6
CONTINUOUS
 10
3.405991
 20
18.426122
 30
0.000000
 11
3.005991
 21
18.426122
 31
0.000000
  0
LINE
  8
DIM
 62
     1
  6
CONTINUOUS
 10
3.519761
 20
18.426122
 30
0.000000
 11
3.919761
 21
18.426122
 31
0.000000
  0
LINE
  8
DIM
 62
     1
  6
CONTINUOUS
 10
1.774860
 20
3.171068
 30
0.000000
 11
1.723096
 21
3.364253
 31
0.000000
  0
LINE
  8
DIM
 62
     1
  6
CONTINUOUS
 10
1.774860
 20
3.171068
 30
0.000000
 11
1.826624
 21
3.364253
 31
0.000000
  0
LINE
  8
DIM
 62
     1
  6
CONTINUOUS
 10
1.774860
 20
17.807658
 30
0.000000
 11
1.826624
 21
17.614472
 31
0.000000
  0
LINE
  8
DIM
 62
     1
  6
CONTINUOUS
 10
1.774860
 20
17.807658
 30
0.000000
 11
1.723096
 21
17.614472
 31
0.000000
  0
LINE
  8
DIM
 62
     1
  6
CONTINUOUS
 10
5.738246
 20
3.171068
 30
0.000000
 11
1.724860
 21
3.171068
 31
0.000000
  0
LINE
  8
DIM
 62
     1
  6
CONTINUOUS
 10
8.047741
 20
17.807658
 30
0.000000
 11
1.724860
 21
17.807658
 31
0.000000
  0
TEXT
  8
DIM
 62
     1
 10
1.547628
 20
10.424012
 30
0.000000
 40
0.150000
  1
14.64
  0
LINE
  8
DIM
 62
     1
  6
CONTINUOUS
 10
1.774860
 20
3.171068
 30
0.000000
 11
1.774860
 21
10.374012
 31
0.000000
  0
LINE
  8
DIM
 62
     1
  6
CONTINUOUS
 10
1.774860
 20
10.604713
 30
0.000000
 11
1.774860
 21
17.807658
 31
0.000000
  0
CIRCLE
  8
CENTER
 62
     7
  6
CONTINUOUS
 10
10.077665
 20
9.450925
 30
0.000000
 40
3.625000
  0
CIRCLE
  8
PLATE
 62
     7
  6
CONTINUOUS
 10
-8.274109
 20
4.797381
 30
0.000000
 40
0.301638
  0
CIRCLE
  8
PLATE
 62
     7
  6
CONTINUOUS
 10
-18.754211
 20
11.063688
 30
0.000000
 40
0.301638
  0
CIRCLE
  8
PLATE
 62
     7
  6
CONTINUOUS
 10
-12.535121
 20
15.951785
 30
0.000000
 40
0.237614
  0
LINE
  8
PLATE
 62
     7
  6
CONTINUOUS
 10
-16.927690
 20
15.031981
 30
0.000000
 11
-19.324163
 21
11.130928
 31
0.000000
  0
LINE
  8
PLATE
 62
     7
  6
CONTINUOUS
 10
-5.933964
 20
9.539922
 30
0.000000
 11
-7.241699
 21
12.848433
 31
0.000000
  0
LINE
  8
PLATE
 62
     7
  6
CONTINUOUS
 10
-7.222218
 20
13.071190
 30
0.000000
 11
-6.047734
 21
14.983053
 31
0.000000
  0
ARC
  8
PLATE
 62
     7
  6
CONTINUOUS
 10
-7.009202
 20
12.940331
 30
0.000000
 40
0.250000
 50
148.437000
 51
201.567102
  0
LINE
  8
PLATE
 62
     7
  6
CONTINUOUS
 10
-6.047734
 20
14.983053
 30
0.000000
 11
-10.645714
 21
17.807658
 31
0.000000
  0
LINE
  8
PLATE
 62
     7
  6
CONTINUOUS
 10
-16.927690
 20
15.031981
 30
0.000000
 11
-10.645714
 21
17.807658
 31
0.000000
  0
CIRCLE
  8
PLATE
 62
     7
  6
CONTINUOUS
 10
-6.382202
 20
9.555784
 30
0.000000
 40
0.204781
  0
LINE
  8
PLATE
 62
     7
  6
CONTINUOUS
 10
-19.372056
 20
11.052966
 30
0.000000
 11
-17.548646
 21
4.791391
 31
0.000000
  0
LINE
  8
PLATE
 62
     7
  6
CONTINUOUS
 10
-19.324163
 20
11.130928
 30
0.000000
 11
-19.372056
 21
11.052966
 31
0.000000
  0
CIRCLE
  8
PLATE
 62
     7
  6
CONTINUOUS
 10
-10.641015
 20
17.308421
 30
0.000000
 40
0.204781
  0
CIRCLE
  8
PLATE
 62
     7
  6
CONTINUOUS
 10
-6.627551
 20
14.862541
 30
0.000000
 40
0.204781
  0
CIRCLE
  8
PLATE
 62
     7
  6
CONTINUOUS
 10
-16.442750
 20
14.669321
 30
0.000000
 40
0.237614
  0
LINE
  8
PLATE
 62
     7
  6
CONTINUOUS
 10
-14.911001
 20
3.171048
 30
0.000000
 11
-17.548646
 21
4.791391
 31
0.000000
  0
LINE
  8
PLATE
 62
     7
  6
CONTINUOUS
 10
-8.336219
 20
3.171068
 30
0.000000
 11
-5.933964
 21
9.539922
 31
0.000000
  0
LINE
  8
PLATE
 62
     7
  6
CONTINUOUS
 10
-8.336219
 20
3.171068
 30
0.000000
 11
-14.911001
 21
3.171048
 31
0.000000
  0
CIRCLE
  8
PLATE
 62
     7
  6
CONTINUOUS
 10
-12.607047
 20
5.826817
 30
0.000000
 40
0.250000
  0
CIRCLE
  8
PLATE
 62
     7
  6
CONTINUOUS
 10
-16.229746
 20
9.452335
 30
0.000000
 40
0.250000
  0
CIRCLE
  8
PLATE
 62
     7
  6
CONTINUOUS
 10
-12.604228
 20
13.075033
 30
0.000000
 40
0.250000
  0
CIRCLE
  8
PLATE
 62
     7
  6
CONTINUOUS
 10
-8.981530
 20
9.449516
 30
0.000000
 40
0.250000
  0
CIRCLE
  8
PLATE
 62
     7
  6
CONTINUOUS
 10
-12.605637
 20
9.450925
 30
0.000000
 40
3.000000
  0
LINE
  8
CENTER
 62
     7
  6
CONTINUOUS
 10
-12.605637
 20
14.700925
 30
0.000000
 11
-12.605637
 21
4.200925
 31
0.000000
  0
LINE
  8
CENTER
 62
     7
  6
CONTINUOUS
 10
-7.355637
 20
9.450925
 30
0.000000
 11
-17.855637
 21
9.450925
 31
0.000000
  0
CIRCLE
  8
CENTER
 62
     7
  6
CONTINUOUS
 10
-12.605637
 20
9.450925
 30
0.000000
 40
3.625000
  0
CIRCLE
  8
PLATE
 62
     7
  6
CONTINUOUS
 10
-12.605637
 20
9.450925
 30
0.000000
 40
5.250000
  0
CIRCLE
  8
PLATE
 62
     7
  6
CONTINUOUS
 10
-12.607047
 20
5.826817
 30
0.000000
 40
0.448457
  0
CIRCLE
  8
PLATE
 62
     7
  6
CONTINUOUS
 10
-16.229746
 20
9.452335
 30
0.000000
 40
0.448457
  0
CIRCLE
  8
PLATE
 62
     7
  6
CONTINUOUS
 10
-12.604228
 20
13.075033
 30
0.000000
 40
0.448457
  0
CIRCLE
  8
PLATE
 62
     7
  6
CONTINUOUS
 10
-8.981529
 20
9.449516
 30
0.000000
 40
0.448457
  0
LINE
  8
DIM
 62
     1
  6
CONTINUOUS
 10
-5.138326
 20
3.171068
 30
0.000000
 11
-5.190090
 21
3.364253
 31
0.000000
  0
LINE
  8
DIM
 62
     1
  6
CONTINUOUS
 10
-5.138326
 20
3.171068
 30
0.000000
 11
-5.086563
 21
3.364253
 31
0.000000
  0
LINE
  8
DIM
 62
     1
  6
CONTINUOUS
 10
-5.138326
 20
4.797381
 30
0.000000
 11
-5.086563
 21
4.604196
 31
0.000000
  0
LINE
  8
DIM
 62
     1
  6
CONTINUOUS
 10
-5.138326
 20
4.797381
 30
0.000000
 11
-5.190090
 21
4.604196
 31
0.000000
  0
LINE
  8
DIM
 62
     1
  6
CONTINUOUS
 10
-8.266219
 20
3.171068
 30
0.000000
 11
-5.088326
 21
3.171068
 31
0.000000
  0
LINE
  8
DIM
 62
     1
  6
CONTINUOUS
 10
-8.204109
 20
4.797381
 30
0.000000
 11
-5.088326
 21
4.797381
 31
0.000000
  0
TEXT
  8
DIM
 62
     1
 10
-5.357983
 20
3.918642
 30
0.000000
 40
0.150000
  1
1.626
  0
LINE
  8
DIM
 62
     1
  6
CONTINUOUS
 10
-5.138326
 20
3.171068
 30
0.000000
 11
-5.138326
 21
3.868642
 31
0.000000
  0
LINE
  8
DIM
 62
     1
  6
CONTINUOUS
 10
-5.138326
 20
4.099807
 30
0.000000
 11
-5.138326
 21
4.797381
 31
0.000000
  0
LINE
  8
DIM
 62
     1
  6
CONTINUOUS
 10
-5.138326
 20
4.797381
 30
0.000000
 11
-5.190090
 21
4.990566
 31
0.000000
  0
LINE
  8
DIM
 62
     1
  6
CONTINUOUS
 10
-5.138326
 20
4.797381
 30
0.000000
 11
-5.086563
 21
4.990566
 31
0.000000
  0
LINE
  8
DIM
 62
     1
  6
CONTINUOUS
 10
-5.138326
 20
9.555784
 30
0.000000
 11
-5.086563
 21
9.362599
 31
0.000000
  0
LINE
  8
DIM
 62
     1
  6
CONTINUOUS
 10
-5.138326
 20
9.555784
 30
0.000000
 11
-5.190090
 21
9.362599
 31
0.000000
  0
LINE
  8
DIM
 62
     1
  6
CONTINUOUS
 10
-8.204109
 20
4.797381
 30
0.000000
 11
-5.088326
 21
4.797381
 31
0.000000
  0
LINE
  8
DIM
 62
     1
  6
CONTINUOUS
 10
-6.312202
 20
9.555784
 30
0.000000
 11
-5.088326
 21
9.555784
 31
0.000000
  0
TEXT
  8
DIM
 62
     1
 10
-5.376449
 20
7.111080
 30
0.000000
 40
0.150000
  1
4.758
  0
LINE
  8
DIM
 62
     1
  6
CONTINUOUS
 10
-5.138326
 20
4.797381
 30
0.000000
 11
-5.138326
 21
7.061080
 31
0.000000
  0
LINE
  8
DIM
 62
     1
  6
CONTINUOUS
 10
-5.138326
 20
7.292086
 30
0.000000
 11
-5.138326
 21
9.555784
 31
0.000000
  0
LINE
  8
DIM
 62
     1
  6
CONTINUOUS
 10
-5.138326
 20
9.555784
 30
0.000000
 11
-5.190090
 21
9.748969
 31
0.000000
  0
LINE
  8
DIM
 62
     1
  6
CONTINUOUS
 10
-5.138326
 20
9.555784
 30
0.000000
 11
-5.086563
 21
9.748969
 31
0.000000
  0
LINE
  8
DIM
 62
     1
  6
CONTINUOUS
 10
-5.138326
 20
14.862541
 30
0.000000
 11
-5.086563
 21
14.669356
 31
0.000000
  0
LINE
  8
DIM
 62
     1
  6
CONTINUOUS
 10
-5.138326
 20
14.862541
 30
0.000000
 11
-5.190090
 21
14.669356
 31
0.000000
  0
LINE
  8
DIM
 62
     1
  6
CONTINUOUS
 10
-6.312202
 20
9.555784
 30
0.000000
 11
-5.088326
 21
9.555784
 31
0.000000
  0
LINE
  8
DIM
 62
     1
  6
CONTINUOUS
 10
-6.557551
 20
14.862541
 30
0.000000
 11
-5.088326
 21
14.862541
 31
0.000000
  0
TEXT
  8
DIM
 62
     1
 10
-5.378172
 20
12.143811
 30
0.000000
 40
0.150000
  1
5.307
  0
LINE
  8
DIM
 62
     1
  6
CONTINUOUS
 10
-5.138326
 20
9.555784
 30
0.000000
 11
-5.138326
 21
12.093811
 31
0.000000
  0
LINE
  8
DIM
 62
     1
  6
CONTINUOUS
 10
-5.138326
 20
12.324515
 30
0.000000
 11
-5.138326
 21
14.862541
 31
0.000000
  0
LINE
  8
DIM
 62
     1
  6
CONTINUOUS
 10
-5.138326
 20
14.862541
 30
0.000000
 11
-5.190090
 21
15.055726
 31
0.000000
  0
LINE
  8
DIM
 62
     1
  6
CONTINUOUS
 10
-5.138326
 20
14.862541
 30
0.000000
 11
-5.086563
 21
15.055726
 31
0.000000
  0
LINE
  8
DIM
 62
     1
  6
CONTINUOUS
 10
-5.138326
 20
17.308421
 30
0.000000
 11
-5.086563
 21
17.115236
 31
0.000000
  0
LINE
  8
DIM
 62
     1
  6
CONTINUOUS
 10
-5.138326
 20
17.308421
 30
0.000000
 11
-5.190090
 21
17.115236
 31
0.000000
  0
LINE
  8
DIM
 62
     1
  6
CONTINUOUS
 10
-6.557551
 20
14.862541
 30
0.000000
 11
-5.088326
 21
14.862541
 31
0.000000
  0
LINE
  8
DIM
 62
     1
  6
CONTINUOUS
 10
-10.571015
 20
17.308421
 30
0.000000
 11
-5.088326
 21
17.308421
 31
0.000000
  0
TEXT
  8
DIM
 62
     1
 10
-5.380608
 20
16.019899
 30
0.000000
 40
0.150000
  1
2.446
  0
LINE
  8
DIM
 62
     1
  6
CONTINUOUS
 10
-5.138326
 20
14.862541
 30
0.000000
 11
-5.138326
 21
15.969898
 31
0.000000
  0
LINE
  8
DIM
 62
     1
  6
CONTINUOUS
 10
-5.138326
 20
16.201064
 30
0.000000
 11
-5.138326
 21
17.308421
 31
0.000000
  0
LINE
  8
DIM
 62
     1
  6
CONTINUOUS
 10
-20.005638
 20
3.171048
 30
0.000000
 11
-20.057401
 21
3.364233
 31
0.000000
  0
LINE
  8
DIM
 62
     1
  6
CONTINUOUS
 10
-20.005638
 20
3.171048
 30
0.000000
 11
-19.953874
 21
3.364233
 31
0.000000
  0
LINE
  8
DIM
 62
     1
  6
CONTINUOUS
 10
-20.005638
 20
11.063688
 30
0.000000
 11
-19.953874
 21
10.870503
 31
0.000000
  0
LINE
  8
DIM
 62
     1
  6
CONTINUOUS
 10
-20.005638
 20
11.063688
 30
0.000000
 11
-20.057401
 21
10.870503
 31
0.000000
  0
LINE
  8
DIM
 62
     1
  6
CONTINUOUS
 10
-14.981001
 20
3.171048
 30
0.000000
 11
-20.055638
 21
3.171048
 31
0.000000
  0
LINE
  8
DIM
 62
     1
  6
CONTINUOUS
 10
-18.824211
 20
11.063688
 30
0.000000
 11
-20.055638
 21
11.063688
 31
0.000000
  0
TEXT
  8
DIM
 62
     1
 10
-20.245234
 20
7.032677
 30
0.000000
 40
0.150000
  1
7.893
  0
LINE
  8
DIM
 62
     1
  6
CONTINUOUS
 10
-20.005638
 20
3.171048
 30
0.000000
 11
-20.005638
 21
6.982677
 31
0.000000
  0
LINE
  8
DIM
 62
     1
  6
CONTINUOUS
 10
-20.005638
 20
7.252059
 30
0.000000
 11
-20.005638
 21
11.063688
 31
0.000000
  0
LINE
  8
DIM
 62
     1
  6
CONTINUOUS
 10
-20.005638
 20
11.063688
 30
0.000000
 11
-20.057401
 21
11.256873
 31
0.000000
  0
LINE
  8
DIM
 62
     1
  6
CONTINUOUS
 10
-20.005638
 20
11.063688
 30
0.000000
 11
-19.953874
 21
11.256873
 31
0.000000
  0
LINE
  8
DIM
 62
     1
  6
CONTINUOUS
 10
-20.005638
 20
14.669321
 30
0.000000
 11
-19.953874
 21
14.476136
 31
0.000000
  0
LINE
  8
DIM
 62
     1
  6
CONTINUOUS
 10
-20.005638
 20
14.669321
 30
0.000000
 11
-20.057401
 21
14.476136
 31
0.000000
  0
LINE
  8
DIM
 62
     1
  6
CONTINUOUS
 10
-18.824211
 20
11.063688
 30
0.000000
 11
-20.055638
 21
11.063688
 31
0.000000
  0
LINE
  8
DIM
 62
     1
  6
CONTINUOUS
 10
-16.512750
 20
14.669321
 30
0.000000
 11
-20.055638
 21
14.669321
 31
0.000000
  0
TEXT
  8
DIM
 62
     1
 10
-20.254219
 20
12.801152
 30
0.000000
 40
0.150000
  1
3.606
  0
LINE
  8
DIM
 62
     1
  6
CONTINUOUS
 10
-20.005638
 20
11.063688
 30
0.000000
 11
-20.005638
 21
12.751152
 31
0.000000
  0
LINE
  8
DIM
 62
     1
  6
CONTINUOUS
 10
-20.005638
 20
12.981857
 30
0.000000
 11
-20.005638
 21
14.669321
 31
0.000000
  0
LINE
  8
DIM
 62
     1
  6
CONTINUOUS
 10
-20.005638
 20
14.669321
 30
0.000000
 11
-20.057401
 21
14.862506
 31
0.000000
  0
LINE
  8
DIM
 62
     1
  6
CONTINUOUS
 10
-20.005638
 20
14.669321
 30
0.000000
 11
-19.953874
 21
14.862506
 31
0.000000
  0
LINE
  8
DIM
 62
     1
  6
CONTINUOUS
 10
-20.005638
 20
15.951785
 30
0.000000
 11
-19.953874
 21
15.758600
 31
0.000000
  0
LINE
  8
DIM
 62
     1
  6
CONTINUOUS
 10
-20.005638
 20
15.951785
 30
0.000000
 11
-20.057401
 21
15.758600
 31
0.000000
  0
LINE
  8
DIM
 62
     1
  6
CONTINUOUS
 10
-16.512750
 20
14.669321
 30
0.000000
 11
-20.055638
 21
14.669321
 31
0.000000
  0
LINE
  8
DIM
 62
     1
  6
CONTINUOUS
 10
-12.605121
 20
15.951785
 30
0.000000
 11
-20.055638
 21
15.951785
 31
0.000000
  0
TEXT
  8
DIM
 62
     1
 10
-20.216990
 20
15.244971
 30
0.000000
 40
0.150000
  1
1.282
  0
LINE
  8
DIM
 62
     1
  6
CONTINUOUS
 10
-20.005638
 20
14.669321
 30
0.000000
 11
-20.005638
 21
15.194971
 31
0.000000
  0
LINE
  8
DIM
 62
     1
  6
CONTINUOUS
 10
-20.005638
 20
15.426136
 30
0.000000
 11
-20.005638
 21
15.951785
 31
0.000000
  0
LINE
  8
DIM
 62
     1
  6
CONTINUOUS
 10
-20.819629
 20
3.171048
 30
0.000000
 11
-20.871393
 21
3.364233
 31
0.000000
  0
LINE
  8
DIM
 62
     1
  6
CONTINUOUS
 10
-20.819629
 20
3.171048
 30
0.000000
 11
-20.767865
 21
3.364233
 31
0.000000
  0
LINE
  8
DIM
 62
     1
  6
CONTINUOUS
 10
-20.819629
 20
9.452335
 30
0.000000
 11
-20.767865
 21
9.259149
 31
0.000000
  0
LINE
  8
DIM
 62
     1
  6
CONTINUOUS
 10
-20.819629
 20
9.452335
 30
0.000000
 11
-20.871393
 21
9.259149
 31
0.000000
  0
LINE
  8
DIM
 62
     1
  6
CONTINUOUS
 10
-14.981001
 20
3.171048
 30
0.000000
 11
-20.869629
 21
3.171048
 31
0.000000
  0
LINE
  8
DIM
 62
     1
  6
CONTINUOUS
 10
-16.299746
 20
9.452335
 30
0.000000
 11
-20.869629
 21
9.452335
 31
0.000000
  0
TEXT
  8
DIM
 62
     1
 10
-21.192908
 20
6.246109
 30
0.000000
 40
0.150000
  1
3X 6.281
  0
LINE
  8
DIM
 62
     1
  6
CONTINUOUS
 10
-20.819629
 20
3.171048
 30
0.000000
 11
-20.819629
 21
6.196109
 31
0.000000
  0
LINE
  8
DIM
 62
     1
  6
CONTINUOUS
 10
-20.819629
 20
6.427274
 30
0.000000
 11
-20.819629
 21
9.452335
 31
0.000000
  0
LINE
  8
DIM
 62
     1
  6
CONTINUOUS
 10
-8.274109
 20
1.909736
 30
0.000000
 11
-8.080923
 21
1.961500
 31
0.000000
  0
LINE
  8
DIM
 62
     1
  6
CONTINUOUS
 10
-8.274109
 20
1.909736
 30
0.000000
 11
-8.080923
 21
1.857972
 31
0.000000
  0
LINE
  8
DIM
 62
     1
  6
CONTINUOUS
 10
-6.627551
 20
1.909736
 30
0.000000
 11
-6.820737
 21
1.857972
 31
0.000000
  0
LINE
  8
DIM
 62
     1
  6
CONTINUOUS
 10
-6.627551
 20
1.909736
 30
0.000000
 11
-6.820737
 21
1.961500
 31
0.000000
  0
LINE
  8
DIM
 62
     1
  6
CONTINUOUS
 10
-8.274109
 20
4.727381
 30
0.000000
 11
-8.274109
 21
1.859736
 31
0.000000
  0
LINE
  8
DIM
 62
     1
  6
CONTINUOUS
 10
-6.627551
 20
14.792541
 30
0.000000
 11
-6.627551
 21
1.859736
 31
0.000000
  0
TEXT
  8
DIM
 62
     1
 10
-7.673779
 20
1.844385
 30
0.000000
 40
0.150000
  1
1.647
  0
LINE
  8
DIM
 62
     1
  6
CONTINUOUS
 10
-8.274109
 20
1.909736
 30
0.000000
 11
-7.723779
 21
1.909736
 31
0.000000
  0
LINE
  8
DIM
 62
     1
  6
CONTINUOUS
 10
-7.177881
 20
1.909736
 30
0.000000
 11
-6.627551
 21
1.909736
 31
0.000000
  0
LINE
  8
DIM
 62
     1
  6
CONTINUOUS
 10
-8.336219
 20
1.909736
 30
0.000000
 11
-8.529404
 21
1.857972
 31
0.000000
  0
LINE
  8
DIM
 62
     1
  6
CONTINUOUS
 10
-8.336219
 20
1.909736
 30
0.000000
 11
-8.529404
 21
1.961500
 31
0.000000
  0
LINE
  8
DIM
 62
     1
  6
CONTINUOUS
 10
-8.274109
 20
1.909736
 30
0.000000
 11
-8.080923
 21
1.961500
 31
0.000000
  0
LINE
  8
DIM
 62
     1
  6
CONTINUOUS
 10
-8.274109
 20
1.909736
 30
0.000000
 11
-8.080923
 21
1.857972
 31
0.000000
  0
LINE
  8
DIM
 62
     1
  6
CONTINUOUS
 10
-8.336219
 20
3.101068
 30
0.000000
 11
-8.336219
 21
1.859736
 31
0.000000
  0
LINE
  8
DIM
 62
     1
  6
CONTINUOUS
 10
-8.274109
 20
4.727381
 30
0.000000
 11
-8.274109
 21
1.859736
 31
0.000000
  0
TEXT
  8
DIM
 62
     1
 10
-9.151962
 20
1.844154
 30
0.000000
 40
0.150000
  1
.062
  0
LINE
  8
DIM
 62
     1
  6
CONTINUOUS
 10
-8.336219
 20
1.909736
 30
0.000000
 11
-8.736219
 21
1.909736
 31
0.000000
  0
LINE
  8
DIM
 62
     1
  6
CONTINUOUS
 10
-8.274109
 20
1.909736
 30
0.000000
 11
-7.874109
 21
1.909736
 31
0.000000
  0
LINE
  8
DIM
 62
     1
  6
CONTINUOUS
 10
-6.627551
 20
1.909736
 30
0.000000
 11
-6.820737
 21
1.857972
 31
0.000000
  0
LINE
  8
DIM
 62
     1
  6
CONTINUOUS
 10
-6.627551
 20
1.909736
 30
0.000000
 11
-6.820737
 21
1.961500
 31
0.000000
  0
LINE
  8
DIM
 62
     1
  6
CONTINUOUS
 10
-6.382202
 20
1.909736
 30
0.000000
 11
-6.189017
 21
1.961500
 31
0.000000
  0
LINE
  8
DIM
 62
     1
  6
CONTINUOUS
 10
-6.382202
 20
1.909736
 30
0.000000
 11
-6.189017
 21
1.857972
 31
0.000000
  0
LINE
  8
DIM
 62
     1
  6
CONTINUOUS
 10
-6.627551
 20
14.792541
 30
0.000000
 11
-6.627551
 21
1.859736
 31
0.000000
  0
LINE
  8
DIM
 62
     1
  6
CONTINUOUS
 10
-6.382202
 20
9.485784
 30
0.000000
 11
-6.382202
 21
1.859736
 31
0.000000
  0
TEXT
  8
DIM
 62
     1
 10
-5.944626
 20
1.844154
 30
0.000000
 40
0.150000
  1
.245
  0
LINE
  8
DIM
 62
     1
  6
CONTINUOUS
 10
-6.627551
 20
1.909736
 30
0.000000
 11
-7.027551
 21
1.909736
 31
0.000000
  0
LINE
  8
DIM
 62
     1
  6
CONTINUOUS
 10
-6.382202
 20
1.909736
 30
0.000000
 11
-5.982202
 21
1.909736
 31
0.000000
  0
LINE
  8
DIM
 62
     1
  6
CONTINUOUS
 10
-10.641015
 20
1.462525
 30
0.000000
 11
-10.447830
 21
1.514288
 31
0.000000
  0
LINE
  8
DIM
 62
     1
  6
CONTINUOUS
 10
-10.641015
 20
1.462525
 30
0.000000
 11
-10.447830
 21
1.410761
 31
0.000000
  0
LINE
  8
DIM
 62
     1
  6
CONTINUOUS
 10
-8.336219
 20
1.462525
 30
0.000000
 11
-8.529404
 21
1.410761
 31
0.000000
  0
LINE
  8
DIM
 62
     1
  6
CONTINUOUS
 10
-8.336219
 20
1.462525
 30
0.000000
 11
-8.529404
 21
1.514288
 31
0.000000
  0
LINE
  8
DIM
 62
     1
  6
CONTINUOUS
 10
-10.641015
 20
17.238421
 30
0.000000
 11
-10.641015
 21
1.412525
 31
0.000000
  0
LINE
  8
DIM
 62
     1
  6
CONTINUOUS
 10
-8.336219
 20
3.031068
 30
0.000000
 11
-8.336219
 21
1.412525
 31
0.000000
  0
TEXT
  8
DIM
 62
     1
 10
-9.725624
 20
1.396942
 30
0.000000
 40
0.150000
  1
2.305
  0
LINE
  8
DIM
 62
     1
  6
CONTINUOUS
 10
-10.641015
 20
1.462525
 30
0.000000
 11
-9.775624
 21
1.462525
 31
0.000000
  0
LINE
  8
DIM
 62
     1
  6
CONTINUOUS
 10
-9.201610
 20
1.462525
 30
0.000000
 11
-8.336219
 21
1.462525
 31
0.000000
  0
LINE
  8
DIM
 62
     1
  6
CONTINUOUS
 10
-12.535121
 20
1.462525
 30
0.000000
 11
-12.341936
 21
1.514288
 31
0.000000
  0
LINE
  8
DIM
 62
     1
  6
CONTINUOUS
 10
-12.535121
 20
1.462525
 30
0.000000
 11
-12.341936
 21
1.410761
 31
0.000000
  0
LINE
  8
DIM
 62
     1
  6
CONTINUOUS
 10
-10.641015
 20
1.462525
 30
0.000000
 11
-10.834200
 21
1.410761
 31
0.000000
  0
LINE
  8
DIM
 62
     1
  6
CONTINUOUS
 10
-10.641015
 20
1.462525
 30
0.000000
 11
-10.834200
 21
1.514288
 31
0.000000
  0
LINE
  8
DIM
 62
     1
  6
CONTINUOUS
 10
-12.535121
 20
15.881785
 30
0.000000
 11
-12.535121
 21
1.412525
 31
0.000000
  0
LINE
  8
DIM
 62
     1
  6
CONTINUOUS
 10
-10.641015
 20
17.238421
 30
0.000000
 11
-10.641015
 21
1.412525
 31
0.000000
  0
TEXT
  8
DIM
 62
     1
 10
-11.813203
 20
1.377833
 30
0.000000
 40
0.150000
  1
1.894
  0
LINE
  8
DIM
 62
     1
  6
CONTINUOUS
 10
-12.535121
 20
1.462525
 30
0.000000
 11
-11.863203
 21
1.462525
 31
0.000000
  0
LINE
  8
DIM
 62
     1
  6
CONTINUOUS
 10
-11.312933
 20
1.462525
 30
0.000000
 11
-10.641015
 21
1.462525
 31
0.000000
  0
LINE
  8
DIM
 62
     1
  6
CONTINUOUS
 10
-16.442750
 20
1.462525
 30
0.000000
 11
-16.249565
 21
1.514288
 31
0.000000
  0
LINE
  8
DIM
 62
     1
  6
CONTINUOUS
 10
-16.442750
 20
1.462525
 30
0.000000
 11
-16.249565
 21
1.410761
 31
0.000000
  0
LINE
  8
DIM
 62
     1
  6
CONTINUOUS
 10
-12.535121
 20
1.462525
 30
0.000000
 11
-12.728307
 21
1.410761
 31
0.000000
  0
LINE
  8
DIM
 62
     1
  6
CONTINUOUS
 10
-12.535121
 20
1.462525
 30
0.000000
 11
-12.728307
 21
1.514288
 31
0.000000
  0
LINE
  8
DIM
 62
     1
  6
CONTINUOUS
 10
-16.442750
 20
14.599321
 30
0.000000
 11
-16.442750
 21
1.412525
 31
0.000000
  0
LINE
  8
DIM
 62
     1
  6
CONTINUOUS
 10
-12.535121
 20
15.881785
 30
0.000000
 11
-12.535121
 21
1.412525
 31
0.000000
  0
TEXT
  8
DIM
 62
     1
 10
-14.735874
 20
1.377833
 30
0.000000
 40
0.150000
  1
3.908
  0
LINE
  8
DIM
 62
     1
  6
CONTINUOUS
 10
-16.442750
 20
1.462525
 30
0.000000
 11
-14.785874
 21
1.462525
 31
0.000000
  0
LINE
  8
DIM
 62
     1
  6
CONTINUOUS
 10
-14.191997
 20
1.462525
 30
0.000000
 11
-12.535121
 21
1.462525
 31
0.000000
  0
LINE
  8
DIM
 62
     1
  6
CONTINUOUS
 10
-18.754211
 20
1.462525
 30
0.000000
 11
-18.561026
 21
1.514288
 31
0.000000
  0
LINE
  8
DIM
 62
     1
  6
CONTINUOUS
 10
-18.754211
 20
1.462525
 30
0.000000
 11
-18.561026
 21
1.410761
 31
0.000000
  0
LINE
  8
DIM
 62
     1
  6
CONTINUOUS
 10
-16.442750
 20
1.462525
 30
0.000000
 11
-16.635935
 21
1.410761
 31
0.000000
  0
LINE
  8
DIM
 62
     1
  6
CONTINUOUS
 10
-16.442750
 20
1.462525
 30
0.000000
 11
-16.635935
 21
1.514288
 31
0.000000
  0
LINE
  8
DIM
 62
     1
  6
CONTINUOUS
 10
-18.754211
 20
10.993688
 30
0.000000
 11
-18.754211
 21
1.412525
 31
0.000000
  0
LINE
  8
DIM
 62
     1
  6
CONTINUOUS
 10
-16.442750
 20
14.599321
 30
0.000000
 11
-16.442750
 21
1.412525
 31
0.000000
  0
TEXT
  8
DIM
 62
     1
 10
-17.793447
 20
1.396942
 30
0.000000
 40
0.150000
  1
2.311
  0
LINE
  8
DIM
 62
     1
  6
CONTINUOUS
 10
-18.754211
 20
1.462525
 30
0.000000
 11
-17.843446
 21
1.462525
 31
0.000000
  0
LINE
  8
DIM
 62
     1
  6
CONTINUOUS
 10
-17.353514
 20
1.462525
 30
0.000000
 11
-16.442750
 21
1.462525
 31
0.000000
  0
LINE
  8
DIM
 62
     1
  6
CONTINUOUS
 10
-12.607047
 20
2.326181
 30
0.000000
 11
-12.413862
 21
2.377944
 31
0.000000
  0
LINE
  8
DIM
 62
     1
  6
CONTINUOUS
 10
-12.607047
 20
2.326181
 30
0.000000
 11
-12.413862
 21
2.274417
 31
0.000000
  0
LINE
  8
DIM
 62
     1
  6
CONTINUOUS
 10
-8.336219
 20
2.326181
 30
0.000000
 11
-8.529404
 21
2.274417
 31
0.000000
  0
LINE
  8
DIM
 62
     1
  6
CONTINUOUS
 10
-8.336219
 20
2.326181
 30
0.000000
 11
-8.529404
 21
2.377944
 31
0.000000
  0
LINE
  8
DIM
 62
     1
  6
CONTINUOUS
 10
-12.607047
 20
5.756817
 30
0.000000
 11
-12.607047
 21
2.276181
 31
0.000000
  0
LINE
  8
DIM
 62
     1
  6
CONTINUOUS
 10
-8.336219
 20
3.101068
 30
0.000000
 11
-8.336219
 21
2.276181
 31
0.000000
  0
TEXT
  8
DIM
 62
     1
 10
-10.397393
 20
2.260598
 30
0.000000
 40
0.150000
  1
3X 4.271
  0
LINE
  8
DIM
 62
     1
  6
CONTINUOUS
 10
-12.607047
 20
2.326181
 30
0.000000
 11
-10.447393
 21
2.326181
 31
0.000000
  0
LINE
  8
DIM
 62
     1
  6
CONTINUOUS
 10
-9.604311
 20
2.326181
 30
0.000000
 11
-8.336219
 21
2.326181
 31
0.000000
  0
LINE
  8
DIM
 62
     1
  6
CONTINUOUS
 10
8.610385
 20
14.232402
 30
0.000000
 11
8.410385
 21
14.232402
 31
0.000000
  0
LINE
  8
DIM
 62
     1
  6
CONTINUOUS
 10
9.014215
 20
12.916427
 30
0.000000
 11
9.120375
 21
12.746927
 31
0.000000
  0
LINE
  8
DIM
 62
     1
  6
CONTINUOUS
 10
9.014215
 20
12.916427
 30
0.000000
 11
9.021403
 21
12.716556
 31
0.000000
  0
LINE
  8
DIM
 62
     1
  6
CONTINUOUS
 10
11.141114
 20
5.985424
 30
0.000000
 11
11.034954
 21
6.154923
 31
0.000000
  0
LINE
  8
DIM
 62
     1
  6
CONTINUOUS
 10
11.141114
 20
5.985424
 30
0.000000
 11
11.133926
 21
6.185294
 31
0.000000
  0
TEXT
  8
DIM
 62
     1
 10
7.577915
 20
14.166820
 30
0.000000
 40
0.150000
  1
BC 7.250
  0
LINE
  8
DIM
 62
     1
  6
CONTINUOUS
 10
11.141114
 20
5.985424
 30
0.000000
 11
8.610385
 21
14.232402
 31
0.000000
  0
TEXT
  8
HOLE TABLE
 62
     7
 10
-8.931644
 20
4.275179
 30
0.000000
 40
0.300000
  1
A
  0
TEXT
  8
HOLE TABLE
 62
     7
 10
-18.370968
 20
11.290894
 30
0.000000
 40
0.300000
  1
A
  0
TEXT
  8
HOLE TABLE
 62
     7
 10
-15.947357
 20
14.671192
 30
0.000000
 40
0.250000
  1
B
  0
TEXT
  8
HOLE TABLE
 62
     7
 10
-12.120604
 20
15.914887
 30
0.000000
 40
0.250000
  1
B
  0
TEXT
  8
HOLE TABLE
 62
     7
 10
-11.259585
 20
16.903464
 30
0.000000
 40
0.250000
  1
C
  0
TEXT
  8
HOLE TABLE
 62
     7
 10
-7.209605
 20
14.926308
 30
0.000000
 40
0.250000
  1
C
  0
TEXT
  8
HOLE TABLE
 62
     7
 10
-7.050156
 20
9.473186
 30
0.000000
 40
0.250000
  1
C
  0
LINE
  8
PLATE
 62
     7
  6
CONTINUOUS
 10
-1.344838
 20
4.200925
 30
0.000000
 11
-1.344838
 21
14.700925
 31
0.000000
  0
LINE
  8
PLATE
 62
     7
  6
CONTINUOUS
 10
-0.869632
 20
3.558866
 30
0.000000
 11
-0.869632
 21
15.360572
 31
0.000000
  0
LINE
  8
PLATE
 62
     7
  6
CONTINUOUS
 10
-0.869632
 20
17.807658
 30
0.000000
 11
-1.494632
 21
17.807658
 31
0.000000
  0
LINE
  8
PLATE
 62
     7
  6
CONTINUOUS
 10
-1.494632
 20
17.807658
 30
0.000000
 11
-1.494632
 21
3.171068
 31
0.000000
  0
LINE
  8
PLATE
 62
     7
  6
CONTINUOUS
 10
-1.494632
 20
3.171068
 30
0.000000
 11
-0.869632
 21
3.171068
 31
0.000000
  0
LINE
  8
PLATE
 62
     7
  6
CONTINUOUS
 10
-0.869632
 20
3.171068
 30
0.000000
 11
-0.869632
 21
17.807658
 31
0.000000
  0
LINE
  8
PLATE
 62
     7
  6
CONTINUOUS
 10
-1.344838
 20
4.200925
 30
0.000000
 11
-1.494632
 21
4.200925
 31
0.000000
  0
LINE
  8
PLATE
 62
     7
  6
CONTINUOUS
 10
-1.344838
 20
14.700925
 30
0.000000
 11
-1.494632
 21
14.700925
 31
0.000000
  0
POINT
  8
PLATE
 62
     7
 10
-1.369632
 20
5.825925
 30
0.000000
  0
POINT
  8
PLATE
 62
     7
 10
-1.369632
 20
5.825925
 30
0.000000
  0
LINE
  8
PLATE
 62
     7
  6
CONTINUOUS
 10
-1.118631
 20
6.091525
 30
0.000000
 11
-1.118631
 21
5.560325
 31
0.000000
  0
LINE
  8
PLATE
 62
     7
  6
CONTINUOUS
 10
-0.869632
 20
5.200925
 30
0.000000
 11
-0.994632
 21
5.200925
 31
0.000000
  0
LINE
  8
PLATE
 62
     7
  6
CONTINUOUS
 10
-0.994632
 20
6.091525
 30
0.000000
 11
-1.118631
 21
6.091525
 31
0.000000
  0
LINE
  8
PLATE
 62
     7
  6
CONTINUOUS
 10
-0.994632
 20
5.560325
 30
0.000000
 11
-1.118631
 21
5.560325
 31
0.000000
  0
LINE
  8
PLATE
 62
     7
  6
CONTINUOUS
 10
-0.994632
 20
5.200925
 30
0.000000
 11
-0.994632
 21
13.700925
 31
0.000000
  0
LINE
  8
PLATE
 62
     7
  6
CONTINUOUS
 10
-1.344838
 20
5.377468
 30
0.000000
 11
-1.118631
 21
5.560325
 31
0.000000
  0
LINE
  8
PLATE
 62
     7
  6
CONTINUOUS
 10
-1.118631
 20
6.091525
 30
0.000000
 11
-1.344838
 21
6.274383
 31
0.000000
  0
LINE
  8
PLATE
 62
     7
  6
CONTINUOUS
 10
-0.994632
 20
6.450925
 30
0.000000
 11
-1.344838
 21
6.450925
 31
0.000000
  0
LINE
  8
PLATE
 62
     7
  6
CONTINUOUS
 10
-0.994632
 20
12.450925
 30
0.000000
 11
-1.344838
 21
12.450925
 31
0.000000
  0
POINT
  8
PLATE
 62
     7
 10
-1.369632
 20
13.075925
 30
0.000000
  0
POINT
  8
PLATE
 62
     7
 10
-1.369632
 20
13.075925
 30
0.000000
  0
LINE
  8
PLATE
 62
     7
  6
CONTINUOUS
 10
-1.118631
 20
12.810325
 30
0.000000
 11
-1.118631
 21
13.341525
 31
0.000000
  0
LINE
  8
PLATE
 62
     7
  6
CONTINUOUS
 10
-0.994632
 20
12.810325
 30
0.000000
 11
-1.118631
 21
12.810325
 31
0.000000
  0
LINE
  8
PLATE
 62
     7
  6
CONTINUOUS
 10
-0.994632
 20
13.341525
 30
0.000000
 11
-1.118631
 21
13.341525
 31
0.000000
  0
LINE
  8
PLATE
 62
     7
  6
CONTINUOUS
 10
-1.344838
 20
13.524383
 30
0.000000
 11
-1.118631
 21
13.341525
 31
0.000000
  0
LINE
  8
PLATE
 62
     7
  6
CONTINUOUS
 10
-1.118631
 20
12.810325
 30
0.000000
 11
-1.344838
 21
12.627468
 31
0.000000
  0
LINE
  8
PLATE
 62
     7
  6
CONTINUOUS
 10
-0.994632
 20
13.700925
 30
0.000000
 11
-0.869632
 21
13.700925
 31
0.000000
  0
LINE
  8
DIM
 62
     1
  6
CONTINUOUS
 10
-3.223766
 20
4.200925
 30
0.000000
 11
-3.275530
 21
4.394110
 31
0.000000
  0
LINE
  8
DIM
 62
     1
  6
CONTINUOUS
 10
-3.223766
 20
4.200925
 30
0.000000
 11
-3.172002
 21
4.394110
 31
0.000000
  0
LINE
  8
DIM
 62
     1
  6
CONTINUOUS
 10
-3.223766
 20
14.700925
 30
0.000000
 11
-3.172002
 21
14.507740
 31
0.000000
  0
LINE
  8
DIM
 62
     1
  6
CONTINUOUS
 10
-3.223766
 20
14.700925
 30
0.000000
 11
-3.275530
 21
14.507740
 31
0.000000
  0
LINE
  8
DIM
 62
     1
  6
CONTINUOUS
 10
-1.564632
 20
4.200925
 30
0.000000
 11
-3.273766
 21
4.200925
 31
0.000000
  0
LINE
  8
DIM
 62
     1
  6
CONTINUOUS
 10
-1.564632
 20
14.700925
 30
0.000000
 11
-3.273766
 21
14.700925
 31
0.000000
  0
TEXT
  8
DIM
 62
     1
 10
-3.452208
 20
9.385573
 30
0.000000
 40
0.150000
  1
10.50
  0
LINE
  8
DIM
 62
     1
  6
CONTINUOUS
 10
-3.223766
 20
4.200925
 30
0.000000
 11
-3.223766
 21
9.335573
 31
0.000000
  0
LINE
  8
DIM
 62
     1
  6
CONTINUOUS
 10
-3.223766
 20
9.566277
 30
0.000000
 11
-3.223766
 21
14.700925
 31
0.000000
  0
LINE
  8
PLATE
 62
     1
  6
CONTINUOUS
 10
-2.454317
 20
6.450925
 30
0.000000
 11
-2.506080
 21
6.644110
 31
0.000000
  0
LINE
  8
PLATE
 62
     1
  6
CONTINUOUS
 10
-2.454317
 20
6.450925
 30
0.000000
 11
-2.402553
 21
6.644110
 31
0.000000
  0
LINE
  8
PLATE
 62
     1
  6
CONTINUOUS
 10
-2.454317
 20
12.450925
 30
0.000000
 11
-2.402553
 21
12.257740
 31
0.000000
  0
LINE
  8
PLATE
 62
     1
  6
CONTINUOUS
 10
-2.454317
 20
12.450925
 30
0.000000
 11
-2.506080
 21
12.257740
 31
0.000000
  0
LINE
  8
PLATE
 62
     1
  6
CONTINUOUS
 10
-1.414838
 20
6.450925
 30
0.000000
 11
-2.504317
 21
6.450925
 31
0.000000
  0
LINE
  8
PLATE
 62
     1
  6
CONTINUOUS
 10
-1.414838
 20
12.450925
 30
0.000000
 11
-2.504317
 21
12.450925
 31
0.000000
  0
TEXT
  8
PLATE
 62
     1
 10
-2.650228
 20
9.385573
 30
0.000000
 40
0.150000
  1
6.00
  0
LINE
  8
PLATE
 62
     1
  6
CONTINUOUS
 10
-2.454317
 20
6.450925
 30
0.000000
 11
-2.454317
 21
9.335573
 31
0.000000
  0
LINE
  8
PLATE
 62
     1
  6
CONTINUOUS
 10
-2.454317
 20
9.566277
 30
0.000000
 11
-2.454317
 21
12.450925
 31
0.000000
  0
LINE
  8
DIM
 62
     1
  6
CONTINUOUS
 10
0.057753
 20
5.200925
 30
0.000000
 11
0.005989
 21
5.394110
 31
0.000000
  0
LINE
  8
DIM
 62
     1
  6
CONTINUOUS
 10
0.057753
 20
5.200925
 30
0.000000
 11
0.109517
 21
5.394110
 31
0.000000
  0
LINE
  8
DIM
 62
     1
  6
CONTINUOUS
 10
0.057753
 20
13.700925
 30
0.000000
 11
0.109517
 21
13.507740
 31
0.000000
  0
LINE
  8
DIM
 62
     1
  6
CONTINUOUS
 10
0.057753
 20
13.700925
 30
0.000000
 11
0.005989
 21
13.507740
 31
0.000000
  0
LINE
  8
DIM
 62
     1
  6
CONTINUOUS
 10
-0.799632
 20
5.200925
 30
0.000000
 11
0.107753
 21
5.200925
 31
0.000000
  0
LINE
  8
DIM
 62
     1
  6
CONTINUOUS
 10
-0.799632
 20
13.700925
 30
0.000000
 11
0.107753
 21
13.700925
 31
0.000000
  0
TEXT
  8
DIM
 62
     1
 10
-0.434388
 20
9.385422
 30
0.000000
 40
0.150000
  1
8.500
  0
TEXT
  8
DIM
 62
     1
 10
0.062657
 20
9.500925
 30
0.000000
 40
0.150000
  1
+.002
  0
TEXT
  8
DIM
 62
     1
 10
0.062657
 20
9.269919
 30
0.000000
 40
0.150000
  1
-.000
  0
LINE
  8
DIM
 62
     1
  6
CONTINUOUS
 10
0.057753
 20
5.200925
 30
0.000000
 11
0.057753
 21
9.219839
 31
0.000000
  0
LINE
  8
DIM
 62
     1
  6
CONTINUOUS
 10
0.057753
 20
9.682011
 30
0.000000
 11
0.057753
 21
13.700925
 31
0.000000
  0
LINE
  8
DIM
 62
     1
  6
CONTINUOUS
 10
-0.994632
 20
13.432105
 30
0.000000
 11
-1.187817
 21
13.380341
 31
0.000000
  0
LINE
  8
DIM
 62
     1
  6
CONTINUOUS
 10
-0.994632
 20
13.432105
 30
0.000000
 11
-1.187817
 21
13.483869
 31
0.000000
  0
LINE
  8
DIM
 62
     1
  6
CONTINUOUS
 10
-0.869632
 20
13.432105
 30
0.000000
 11
-0.676447
 21
13.483869
 31
0.000000
  0
LINE
  8
DIM
 62
     1
  6
CONTINUOUS
 10
-0.869632
 20
13.432105
 30
0.000000
 11
-0.676447
 21
13.380341
 31
0.000000
  0
LINE
  8
DIM
 62
     1
  6
CONTINUOUS
 10
-0.994632
 20
13.630925
 30
0.000000
 11
-0.994632
 21
13.382105
 31
0.000000
  0
LINE
  8
DIM
 62
     1
  6
CONTINUOUS
 10
-0.869632
 20
13.630925
 30
0.000000
 11
-0.869632
 21
13.382105
 31
0.000000
  0
TEXT
  8
DIM
 62
     1
 10
-0.427905
 20
13.366523
 30
0.000000
 40
0.150000
  1
.12
  0
LINE
  8
DIM
 62
     1
  6
CONTINUOUS
 10
-0.994632
 20
13.432105
 30
0.000000
 11
-1.394632
 21
13.432105
 31
0.000000
  0
LINE
  8
DIM
 62
     1
  6
CONTINUOUS
 10
-0.869632
 20
13.432105
 30
0.000000
 11
-0.469632
 21
13.432105
 31
0.000000
  0
LINE
  8
DIM
 62
     1
  6
CONTINUOUS
 10
-1.494632
 20
14.258774
 30
0.000000
 11
-1.687817
 21
14.207010
 31
0.000000
  0
LINE
  8
DIM
 62
     1
  6
CONTINUOUS
 10
-1.494632
 20
14.258774
 30
0.000000
 11
-1.687817
 21
14.310538
 31
0.000000
  0
LINE
  8
DIM
 62
     1
  6
CONTINUOUS
 10
-1.344838
 20
14.258774
 30
0.000000
 11
-1.151653
 21
14.310538
 31
0.000000
  0
LINE
  8
DIM
 62
     1
  6
CONTINUOUS
 10
-1.344838
 20
14.258774
 30
0.000000
 11
-1.151653
 21
14.207010
 31
0.000000
  0
LINE
  8
DIM
 62
     1
  6
CONTINUOUS
 10
-1.494632
 20
14.630925
 30
0.000000
 11
-1.494632
 21
14.208774
 31
0.000000
  0
LINE
  8
DIM
 62
     1
  6
CONTINUOUS
 10
-1.344838
 20
14.630925
 30
0.000000
 11
-1.344838
 21
14.208774
 31
0.000000
  0
TEXT
  8
DIM
 62
     1
 10
-2.203560
 20
14.194525
 30
0.000000
 40
0.150000
  1
.15
  0
LINE
  8
DIM
 62
     1
  6
CONTINUOUS
 10
-1.494632
 20
14.258774
 30
0.000000
 11
-1.894632
 21
14.258774
 31
0.000000
  0
LINE
  8
DIM
 62
     1
  6
CONTINUOUS
 10
-1.344838
 20
14.258774
 30
0.000000
 11
-0.944838
 21
14.258774
 31
0.000000
  0
TEXT
  8
HOLE TABLE
 62
     7
 10
-18.368224
 20
17.867817
 30
0.000000
 40
0.150000
  1
HOLE TABLE
  0
TEXT
  8
HOLE TABLE
 62
     7
 10
-18.368224
 20
17.642817
 30
0.000000
 40
0.150000
  1
A - .511 +.005 / -.000
  0
TEXT
  8
HOLE TABLE
 62
     7
 10
-18.368224
 20
17.417818
 30
0.000000
 40
0.150000
  1
B - .42
  0
TEXT
  8
HOLE TABLE
 62
     7
 10
-18.368224
 20
17.192818
 30
0.000000
 40
0.150000
  1
C - .35
  0
LINE
  8
HOLE TABLE
 62
     7
  6
CONTINUOUS
 10
-18.474489
 20
17.826286
 30
0.000000
 11
-15.823081
 21
17.826286
 31
0.000000
  0
LINE
  8
DIM
 62
     1
  6
CONTINUOUS
 10
-12.268508
 20
13.386003
 30
0.000000
 11
-12.144889
 21
13.543223
 31
0.000000
  0
LINE
  8
DIM
 62
     1
  6
CONTINUOUS
 10
-12.268508
 20
13.386003
 30
0.000000
 11
-12.082840
 21
13.460350
 31
0.000000
  0
LINE
  8
DIM
 62
     1
  6
CONTINUOUS
 10
-12.268508
 20
13.386003
 30
0.000000
 11
-10.063441
 21
15.036976
 31
0.000000
  0
LINE
  8
DIM
 62
     1
  6
CONTINUOUS
 10
-10.063441
 20
15.036976
 30
0.000000
 11
-9.863441
 21
15.036976
 31
0.000000
  0
TEXT
  8
DIM
 62
     1
 10
-9.763441
 20
14.974476
 30
0.000000
 40
0.150000
  1
4X .515 THRU,
  0
TEXT
  8
DIM
 62
     1
 10
-9.763441
 20
14.786976
 30
0.000000
 40
0.150000
  1
CS 82 DEG X .32 DEEP
  0
TEXT
  8
DIM
 62
     1
 10
-9.763441
 20
14.599476
 30
0.000000
 40
0.150000
  1
ON BC, EQ. SPC. AS 
  0
TEXT
  8
DIM
 62
     1
 10
-9.763441
 20
14.411976
 30
0.000000
 40
0.150000
  1
SHOWN.
  0
TEXT
  8
DIM
 62
     7
 10
-12.564315
 20
18.091045
 30
0.000000
 40
0.150000
  1
FLYWHEEL/CLUTCH SIDE
  0
TEXT
  8
DIM
 62
     7
 10
-6.863033
 20
19.548882
 30
0.000000
 40
0.125000
  1
ADAPTER, 1976 BMW 2002 2.0L (NON-TURBO) 4 SP
  0
TEXT
  8
DIM
 62
     7
 10
-6.863033
 20
19.173882
 30
0.000000
 40
0.125000
  1
2/26/09   REV A
  0
TEXT
  8
DIM
 62
     7
 10
-6.681942
 20
18.593392
 30
0.000000
 40
0.125000
  1
NOTE - MATERIAL: 5/8 ALUM 6061
  0
TEXT
  8
DIM
 62
     7
 10
-11.002663
 20
19.597353
 30
0.000000
 40
0.125000
  1
ELECTRO AUTOMOTIVE
  0
TEXT
  8
DIM
 62
     7
 10
-11.002663
 20
19.409853
 30
0.000000
 40
0.125000
  1
P.O. BOX 1113 FELTON CA. 95018-1113
  0
LINE
  8
DIM
 62
     7
  6
CONTINUOUS
 10
-11.135409
 20
19.834848
 30
0.000000
 11
-7.568958
 21
19.834848
 31
0.000000
  0
LINE
  8
DIM
 62
     7
  6
CONTINUOUS
 10
-7.568958
 20
19.834848
 30
0.000000
 11
-7.568958
 21
18.934864
 31
0.000000
  0
LINE
  8
DIM
 62
     7
  6
CONTINUOUS
 10
-7.568958
 20
18.934864
 30
0.000000
 11
-11.135409
 21
18.934864
 31
0.000000
  0
LINE
  8
DIM
 62
     7
  6
CONTINUOUS
 10
-11.135409
 20
18.934864
 30
0.000000
 11
-11.135409
 21
19.834848
 31
0.000000
  0
TEXT
  8
DIM
 62
     7
 10
-11.002663
 20
19.222353
 30
0.000000
 40
0.125000
  1
PHONE 831-429-1989 FAX 831-429-1907
  0
TEXT
  8
DIM
 62
     7
 10
-11.002663
 20
19.034853
 30
0.000000
 40
0.125000
  1
DRAWN BY DAN SULLIVAN
  0
LINE
  8
DIM
 62
     1
  6
CONTINUOUS
 10
3.405991
 20
2.329572
 30
0.000000
 11
3.599176
 21
2.381336
 31
0.000000
  0
LINE
  8
DIM
 62
     1
  6
CONTINUOUS
 10
3.405991
 20
2.329572
 30
0.000000
 11
3.599176
 21
2.277809
 31
0.000000
  0
LINE
  8
DIM
 62
     1
  6
CONTINUOUS
 10
5.808246
 20
2.329572
 30
0.000000
 11
5.615061
 21
2.277809
 31
0.000000
  0
LINE
  8
DIM
 62
     1
  6
CONTINUOUS
 10
5.808246
 20
2.329572
 30
0.000000
 11
5.615061
 21
2.381336
 31
0.000000
  0
LINE
  8
DIM
 62
     1
  6
CONTINUOUS
 10
3.405991
 20
9.469922
 30
0.000000
 11
3.405991
 21
2.279572
 31
0.000000
  0
LINE
  8
DIM
 62
     1
  6
CONTINUOUS
 10
5.808246
 20
3.101068
 30
0.000000
 11
5.808246
 21
2.279572
 31
0.000000
  0
TEXT
  8
DIM
 62
     1
 10
4.368445
 20
2.263990
 30
0.000000
 40
0.150000
  1
2.402
  0
LINE
  8
DIM
 62
     1
  6
CONTINUOUS
 10
3.405991
 20
2.329572
 30
0.000000
 11
4.318445
 21
2.329572
 31
0.000000
  0
LINE
  8
DIM
 62
     1
  6
CONTINUOUS
 10
4.895792
 20
2.329572
 30
0.000000
 11
5.808246
 21
2.329572
 31
0.000000
  0
ENDSEC
  0
EOF
