  0
SECTION
  2
HEADER
  9
$ACADVER
  1
AC1006
  0
ENDSEC
  0
SECTION
  2
TABLES
  0
TABLE
  2
LTYPE
 70
    25
  0
LTYPE
  2
CONTINUOUS
 70
    64
  3
Solid line
 72
    64
 73
     0
 40
0.000000
  0
LTYPE
  2
DASHDOT
 70
    64
  3
__ . __ . __ . __ . __ . __ . __ . __ . __ . __
 72
    65
 73
     4
 40
1.000000
 49
0.500000
 49
-0.250000
 49
0.000000
 49
-0.250000
  0
LTYPE
  2
DASHED
 70
    64
  3
__ __ __ __ __ __ __ __ __ __ __ __ __ __ __ __
 72
    65
 73
     2
 40
0.750000
 49
0.500000
 49
-0.250000
  0
LTYPE
  2
DIVIDE
 70
    64
  3
____ . . ____ . . ____ . . ____ . . ____ . . __
 72
    65
 73
     6
 40
1.250000
 49
0.500000
 49
-0.250000
 49
0.000000
 49
-0.250000
 49
0.000000
 49
-0.250000
  0
LTYPE
  2
DOT
 70
    64
  3
. . . . . . . . . . . . . . . . . . . . . . . . 
 72
    65
 73
     2
 40
0.250000
 49
0.000000
 49
-0.250000
  0
ENDTAB
  0
ENDSEC
  0
SECTION
  2
ENTITIES
  0
LINE
  8
CNTRLINE
 62
     7
  6
CONTINUOUS
 10
0.987419
 20
6.589471
 30
0.000000
 11
17.087420
 21
6.589471
 31
0.000000
  0
POINT
  8
BUSHING
 62
     7
 10
14.286327
 20
6.589471
 30
0.000000
  0
POINT
  8
BUSHING
 62
     7
 10
14.286327
 20
6.589471
 30
0.000000
  0
LINE
  8
BUSHING
 62
     7
  6
CONTINUOUS
 10
14.286327
 20
6.589471
 30
0.000000
 11
14.286327
 21
5.776971
 31
0.000000
  0
POINT
  8
BUSHING
 62
     7
 10
15.411648
 20
7.292580
 30
0.000000
  0
POINT
  8
BUSHING
 62
     7
 10
15.411648
 20
7.292580
 30
0.000000
  0
POINT
  8
BUSHING
 62
     7
 10
15.411655
 20
7.292580
 30
0.000000
  0
POINT
  8
BUSHING
 62
     7
 10
15.411655
 20
7.292580
 30
0.000000
  0
POINT
  8
BUSHING
 62
     7
 10
14.285187
 20
7.293499
 30
0.000000
  0
POINT
  8
BUSHING
 62
     7
 10
14.410187
 20
7.293499
 30
0.000000
  0
POINT
  8
BUSHING
 62
     7
 10
14.535187
 20
7.293499
 30
0.000000
  0
POINT
  8
BUSHING
 62
     7
 10
14.535187
 20
7.293499
 30
0.000000
  0
LINE
  8
BUSHING
 62
     7
  6
CONTINUOUS
 10
14.410187
 20
7.293499
 30
0.000000
 11
14.410187
 21
7.348199
 31
0.000000
  0
LINE
  8
BUSHING
 62
     7
  6
CONTINUOUS
 10
14.410187
 20
7.293499
 30
0.000000
 11
14.410187
 21
7.238799
 31
0.000000
  0
LINE
  8
BUSHING
 62
     7
  6
CONTINUOUS
 10
14.535187
 20
7.293499
 30
0.000000
 11
14.535187
 21
7.379886
 31
0.000000
  0
LINE
  8
BUSHING
 62
     7
  6
CONTINUOUS
 10
14.535187
 20
7.293499
 30
0.000000
 11
14.535187
 21
7.207112
 31
0.000000
  0
POINT
  8
BUSHING
 62
     7
 10
14.785187
 20
7.293499
 30
0.000000
  0
POINT
  8
BUSHING
 62
     7
 10
14.660187
 20
7.293499
 30
0.000000
  0
POINT
  8
BUSHING
 62
     7
 10
14.660187
 20
7.293499
 30
0.000000
  0
LINE
  8
BUSHING
 62
     7
  6
CONTINUOUS
 10
14.660187
 20
7.293499
 30
0.000000
 11
14.660187
 21
7.348199
 31
0.000000
  0
LINE
  8
BUSHING
 62
     7
  6
CONTINUOUS
 10
14.660187
 20
7.293499
 30
0.000000
 11
14.660187
 21
7.238799
 31
0.000000
  0
POINT
  8
BUSHING
 62
     7
 10
14.910187
 20
7.293499
 30
0.000000
  0
LINE
  8
BUSHING
 62
     7
  6
CONTINUOUS
 10
14.910187
 20
7.293499
 30
0.000000
 11
14.910187
 21
7.348199
 31
0.000000
  0
LINE
  8
BUSHING
 62
     7
  6
CONTINUOUS
 10
14.910187
 20
7.293499
 30
0.000000
 11
14.910187
 21
7.238799
 31
0.000000
  0
POINT
  8
BUSHING
 62
     7
 10
15.160187
 20
7.293499
 30
0.000000
  0
LINE
  8
BUSHING
 62
     7
  6
CONTINUOUS
 10
15.160187
 20
7.293499
 30
0.000000
 11
15.160187
 21
7.348199
 31
0.000000
  0
LINE
  8
BUSHING
 62
     7
  6
CONTINUOUS
 10
15.160187
 20
7.293499
 30
0.000000
 11
15.160187
 21
7.238799
 31
0.000000
  0
POINT
  8
BUSHING
 62
     7
 10
15.410187
 20
7.293499
 30
0.000000
  0
LINE
  8
BUSHING
 62
     7
  6
CONTINUOUS
 10
15.410187
 20
7.293499
 30
0.000000
 11
15.410187
 21
7.348199
 31
0.000000
  0
LINE
  8
BUSHING
 62
     7
  6
CONTINUOUS
 10
15.410187
 20
7.293499
 30
0.000000
 11
15.410187
 21
7.238799
 31
0.000000
  0
POINT
  8
BUSHING
 62
     7
 10
14.785187
 20
7.293499
 30
0.000000
  0
POINT
  8
BUSHING
 62
     7
 10
14.785187
 20
7.293499
 30
0.000000
  0
LINE
  8
BUSHING
 62
     7
  6
CONTINUOUS
 10
14.785187
 20
7.293499
 30
0.000000
 11
14.785187
 21
7.379886
 31
0.000000
  0
LINE
  8
BUSHING
 62
     7
  6
CONTINUOUS
 10
14.785187
 20
7.293499
 30
0.000000
 11
14.785187
 21
7.207112
 31
0.000000
  0
POINT
  8
BUSHING
 62
     7
 10
15.035187
 20
7.293499
 30
0.000000
  0
POINT
  8
BUSHING
 62
     7
 10
15.035187
 20
7.293499
 30
0.000000
  0
LINE
  8
BUSHING
 62
     7
  6
CONTINUOUS
 10
15.035187
 20
7.293499
 30
0.000000
 11
15.035187
 21
7.379886
 31
0.000000
  0
LINE
  8
BUSHING
 62
     7
  6
CONTINUOUS
 10
15.035187
 20
7.293499
 30
0.000000
 11
15.035187
 21
7.207112
 31
0.000000
  0
POINT
  8
BUSHING
 62
     7
 10
15.285187
 20
7.293499
 30
0.000000
  0
POINT
  8
BUSHING
 62
     7
 10
15.285187
 20
7.293499
 30
0.000000
  0
LINE
  8
BUSHING
 62
     7
  6
CONTINUOUS
 10
15.285187
 20
7.293499
 30
0.000000
 11
15.285187
 21
7.379886
 31
0.000000
  0
LINE
  8
BUSHING
 62
     7
  6
CONTINUOUS
 10
15.285187
 20
7.293499
 30
0.000000
 11
15.285187
 21
7.207112
 31
0.000000
  0
POINT
  8
BUSHING
 62
     7
 10
14.286327
 20
6.589471
 30
0.000000
  0
LINE
  8
BUSHING
 62
     7
  6
CONTINUOUS
 10
14.286327
 20
7.401971
 30
0.000000
 11
14.286327
 21
6.589471
 31
0.000000
  0
LINE
  8
BUSHING
 62
     7
  6
CONTINUOUS
 10
15.536327
 20
6.589471
 30
0.000000
 11
15.536327
 21
7.526971
 31
0.000000
  0
LINE
  8
BUSHING
 62
     7
  6
CONTINUOUS
 10
15.536327
 20
6.589471
 30
0.000000
 11
15.536327
 21
5.651971
 31
0.000000
  0
LINE
  8
BUSHING
 62
     7
  6
CONTINUOUS
 10
14.286327
 20
7.151962
 30
0.000000
 11
15.536327
 21
7.151962
 31
0.000000
  0
LINE
  8
BUSHING
 62
     7
  6
CONTINUOUS
 10
14.286327
 20
7.206630
 30
0.000000
 11
15.536327
 21
7.206630
 31
0.000000
  0
LINE
  8
BUSHING
 62
     7
  6
CONTINUOUS
 10
14.288834
 20
6.026979
 30
0.000000
 11
15.536327
 21
6.026979
 31
0.000000
  0
LINE
  8
BUSHING
 62
     7
  6
CONTINUOUS
 10
14.286327
 20
5.776971
 30
0.000000
 11
15.536327
 21
5.651971
 31
0.000000
  0
LINE
  8
BUSHING
 62
     7
  6
CONTINUOUS
 10
14.286327
 20
7.401971
 30
0.000000
 11
15.536327
 21
7.526971
 31
0.000000
  0
LINE
  8
BUSHING
 62
     7
  6
CONTINUOUS
 10
14.286327
 20
7.378530
 30
0.000000
 11
15.536327
 21
7.378530
 31
0.000000
  0
LINE
  8
BUSHING
 62
     7
  6
CONTINUOUS
 10
14.285187
 20
7.293499
 30
0.000000
 11
15.536327
 21
7.293499
 31
0.000000
  0
LINE
  8
BUSHING
 62
     7
  6
CONTINUOUS
 10
14.286327
 20
7.934246
 30
0.000000
 11
14.394581
 21
7.996746
 31
0.000000
  0
LINE
  8
BUSHING
 62
     7
  6
CONTINUOUS
 10
14.286327
 20
7.934246
 30
0.000000
 11
14.394581
 21
7.871746
 31
0.000000
  0
LINE
  8
BUSHING
 62
     7
  6
CONTINUOUS
 10
15.536327
 20
7.934246
 30
0.000000
 11
15.428074
 21
7.871746
 31
0.000000
  0
LINE
  8
BUSHING
 62
     7
  6
CONTINUOUS
 10
15.536327
 20
7.934246
 30
0.000000
 11
15.428074
 21
7.996746
 31
0.000000
  0
LINE
  8
BUSHING
 62
     7
  6
CONTINUOUS
 10
14.286327
 20
7.464471
 30
0.000000
 11
14.286327
 21
8.184246
 31
0.000000
  0
LINE
  8
BUSHING
 62
     7
  6
CONTINUOUS
 10
15.536327
 20
7.589471
 30
0.000000
 11
15.536327
 21
8.184246
 31
0.000000
  0
TEXT
  8
BUSHING
 62
     7
 10
14.535891
 20
7.871673
 30
0.000000
 40
0.125000
  1
1 1/4"
  0
LINE
  8
BUSHING
 62
     7
  6
CONTINUOUS
 10
14.286327
 20
7.934246
 30
0.000000
 11
14.504641
 21
7.934246
 31
0.000000
  0
LINE
  8
BUSHING
 62
     7
  6
CONTINUOUS
 10
15.318013
 20
7.934246
 30
0.000000
 11
15.536327
 21
7.934246
 31
0.000000
  0
LINE
  8
BUSHING
 62
     7
  6
CONTINUOUS
 10
13.815229
 20
5.776971
 30
0.000000
 11
13.752729
 21
5.885224
 31
0.000000
  0
LINE
  8
BUSHING
 62
     7
  6
CONTINUOUS
 10
13.815229
 20
5.776971
 30
0.000000
 11
13.877729
 21
5.885224
 31
0.000000
  0
LINE
  8
BUSHING
 62
     7
  6
CONTINUOUS
 10
13.815229
 20
7.401971
 30
0.000000
 11
13.877729
 21
7.293718
 31
0.000000
  0
LINE
  8
BUSHING
 62
     7
  6
CONTINUOUS
 10
13.815229
 20
7.401971
 30
0.000000
 11
13.752729
 21
7.293718
 31
0.000000
  0
LINE
  8
BUSHING
 62
     7
  6
CONTINUOUS
 10
14.223827
 20
5.776971
 30
0.000000
 11
13.565229
 21
5.776971
 31
0.000000
  0
LINE
  8
BUSHING
 62
     7
  6
CONTINUOUS
 10
14.223827
 20
7.401971
 30
0.000000
 11
13.565229
 21
7.401971
 31
0.000000
  0
TEXT
  8
BUSHING
 62
     7
 10
13.437081
 20
6.750574
 30
0.000000
 40
0.125000
  1
1 5/8"
  0
LINE
  8
BUSHING
 62
     7
  6
CONTINUOUS
 10
13.815229
 20
5.776971
 30
0.000000
 11
13.815229
 21
6.719324
 31
0.000000
  0
LINE
  8
BUSHING
 62
     7
  6
CONTINUOUS
 10
13.815229
 20
6.907873
 30
0.000000
 11
13.815229
 21
7.401971
 31
0.000000
  0
LINE
  8
BUSHING
 62
     7
  6
CONTINUOUS
 10
15.983883
 20
6.026979
 30
0.000000
 11
15.921383
 21
6.135233
 31
0.000000
  0
LINE
  8
BUSHING
 62
     7
  6
CONTINUOUS
 10
15.983883
 20
6.026979
 30
0.000000
 11
16.046383
 21
6.135233
 31
0.000000
  0
LINE
  8
BUSHING
 62
     7
  6
CONTINUOUS
 10
15.983883
 20
7.151962
 30
0.000000
 11
16.046383
 21
7.043709
 31
0.000000
  0
LINE
  8
BUSHING
 62
     7
  6
CONTINUOUS
 10
15.983883
 20
7.151962
 30
0.000000
 11
15.921383
 21
7.043709
 31
0.000000
  0
LINE
  8
BUSHING
 62
     7
  6
CONTINUOUS
 10
15.598827
 20
6.026979
 30
0.000000
 11
16.233883
 21
6.026979
 31
0.000000
  0
LINE
  8
BUSHING
 62
     7
  6
CONTINUOUS
 10
15.598827
 20
7.151962
 30
0.000000
 11
16.233883
 21
7.151962
 31
0.000000
  0
TEXT
  8
BUSHING
 62
     7
 10
15.606435
 20
6.377142
 30
0.000000
 40
0.125000
  1
1 1/8"
  0
LINE
  8
BUSHING
 62
     7
  6
CONTINUOUS
 10
15.983883
 20
6.026979
 30
0.000000
 11
15.983883
 21
6.345892
 31
0.000000
  0
LINE
  8
BUSHING
 62
     7
  6
CONTINUOUS
 10
15.983883
 20
6.534208
 30
0.000000
 11
15.983883
 21
7.151962
 31
0.000000
  0
LINE
  8
BUSHING
 62
     7
  6
CONTINUOUS
 10
16.578941
 20
5.651971
 30
0.000000
 11
16.516441
 21
5.760224
 31
0.000000
  0
LINE
  8
BUSHING
 62
     7
  6
CONTINUOUS
 10
16.578941
 20
5.651971
 30
0.000000
 11
16.641441
 21
5.760224
 31
0.000000
  0
LINE
  8
BUSHING
 62
     7
  6
CONTINUOUS
 10
16.578941
 20
7.526971
 30
0.000000
 11
16.641441
 21
7.418718
 31
0.000000
  0
LINE
  8
BUSHING
 62
     7
  6
CONTINUOUS
 10
16.578941
 20
7.526971
 30
0.000000
 11
16.516441
 21
7.418718
 31
0.000000
  0
LINE
  8
BUSHING
 62
     7
  6
CONTINUOUS
 10
15.598827
 20
5.651971
 30
0.000000
 11
16.828941
 21
5.651971
 31
0.000000
  0
LINE
  8
BUSHING
 62
     7
  6
CONTINUOUS
 10
15.598827
 20
7.526971
 30
0.000000
 11
16.828941
 21
7.526971
 31
0.000000
  0
TEXT
  8
BUSHING
 62
     7
 10
16.201493
 20
6.713336
 30
0.000000
 40
0.125000
  1
1 7/8"
  0
LINE
  8
BUSHING
 62
     7
  6
CONTINUOUS
 10
16.578941
 20
5.651971
 30
0.000000
 11
16.578941
 21
6.682086
 31
0.000000
  0
LINE
  8
BUSHING
 62
     7
  6
CONTINUOUS
 10
16.578941
 20
6.870402
 30
0.000000
 11
16.578941
 21
7.526971
 31
0.000000
  0
LINE
  8
BUSHING
 62
     7
  6
CONTINUOUS
 10
14.516075
 20
5.748984
 30
0.000000
 11
14.629637
 21
5.696747
 31
0.000000
  0
LINE
  8
BUSHING
 62
     7
  6
CONTINUOUS
 10
14.516075
 20
5.748984
 30
0.000000
 11
14.527618
 21
5.624518
 31
0.000000
  0
LINE
  8
BUSHING
 62
     7
  6
CONTINUOUS
 10
14.516075
 20
5.748984
 30
0.000000
 11
15.018568
 21
5.039242
 31
0.000000
  0
LINE
  8
BUSHING
 62
     7
  6
CONTINUOUS
 10
15.018568
 20
5.039242
 30
0.000000
 11
15.143568
 21
5.039242
 31
0.000000
  0
TEXT
  8
BUSHING
 62
     7
 10
15.206068
 20
4.976742
 30
0.000000
 40
0.125000
  1
2.500TPF
  0
LINE
  8
HUB
 62
     7
  6
CONTINUOUS
 10
9.414068
 20
8.093373
 30
0.000000
 11
10.164068
 21
8.093373
 31
0.000000
  0
LINE
  8
HUB
 62
     7
  6
CONTINUOUS
 10
10.164068
 20
5.093373
 30
0.000000
 11
9.414068
 21
5.093373
 31
0.000000
  0
LINE
  8
HUB
 62
     7
  6
CONTINUOUS
 10
10.164068
 20
7.718373
 30
0.000000
 11
11.289068
 21
7.718373
 31
0.000000
  0
LINE
  8
HUB
 62
     7
  6
CONTINUOUS
 10
10.164068
 20
7.718373
 30
0.000000
 11
10.164068
 21
8.093373
 31
0.000000
  0
LINE
  8
HUB
 62
     7
  6
CONTINUOUS
 10
10.164068
 20
5.468373
 30
0.000000
 11
10.164068
 21
5.093373
 31
0.000000
  0
LINE
  8
HUB
 62
     7
  6
CONTINUOUS
 10
11.289068
 20
5.468373
 30
0.000000
 11
10.164068
 21
5.468373
 31
0.000000
  0
LINE
  8
HUB
 62
     7
  6
CONTINUOUS
 10
9.914068
 20
5.793374
 30
0.000000
 11
11.289068
 21
5.655873
 31
0.000000
  0
LINE
  8
HUB
 62
     7
  6
CONTINUOUS
 10
9.414068
 20
7.222874
 30
0.000000
 11
9.289068
 21
7.222874
 31
0.000000
  0
LINE
  8
HUB
 62
     7
  6
CONTINUOUS
 10
9.289068
 20
7.222874
 30
0.000000
 11
9.289068
 21
5.963874
 31
0.000000
  0
LINE
  8
HUB
 62
     7
  6
CONTINUOUS
 10
9.289068
 20
5.963874
 30
0.000000
 11
9.414068
 21
5.963874
 31
0.000000
  0
LINE
  8
HUB
 62
     7
  6
CONTINUOUS
 10
9.414068
 20
7.222874
 30
0.000000
 11
9.414068
 21
8.093373
 31
0.000000
  0
LINE
  8
HUB
 62
     7
  6
CONTINUOUS
 10
9.414068
 20
5.963874
 30
0.000000
 11
9.414068
 21
5.093373
 31
0.000000
  0
LINE
  8
HUB
 62
     7
  6
CONTINUOUS
 10
9.289068
 20
6.999873
 30
0.000000
 11
9.914068
 21
6.999873
 31
0.000000
  0
LINE
  8
HUB
 62
     7
  6
CONTINUOUS
 10
9.289068
 20
6.186873
 30
0.000000
 11
9.914068
 21
6.186873
 31
0.000000
  0
POINT
  8
HUB
 62
     7
 10
9.414068
 20
7.296373
 30
0.000000
  0
POINT
  8
HUB
 62
     7
 10
9.601568
 20
7.297396
 30
0.000000
  0
POINT
  8
HUB
 62
     7
 10
9.601568
 20
7.398946
 30
0.000000
  0
POINT
  8
HUB
 62
     7
 10
9.601568
 20
7.195846
 30
0.000000
  0
LINE
  8
HUB
 62
     7
  6
CONTINUOUS
 10
9.601568
 20
7.461396
 30
0.000000
 11
9.601568
 21
7.133396
 31
0.000000
  0
LINE
  8
HUB
 62
     7
  6
CONTINUOUS
 10
9.414068
 20
7.460374
 30
0.000000
 11
9.601568
 21
7.460374
 31
0.000000
  0
LINE
  8
HUB
 62
     7
  6
CONTINUOUS
 10
9.601568
 20
7.132374
 30
0.000000
 11
9.289068
 21
7.132374
 31
0.000000
  0
LINE
  8
HUB
 62
     7
  6
CONTINUOUS
 10
9.601568
 20
7.195846
 30
0.000000
 11
9.914068
 21
7.195846
 31
0.000000
  0
LINE
  8
HUB
 62
     7
  6
CONTINUOUS
 10
11.289068
 20
7.530873
 30
0.000000
 11
9.969791
 21
7.398946
 31
0.000000
  0
LINE
  8
HUB
 62
     7
  6
CONTINUOUS
 10
9.601568
 20
7.398946
 30
0.000000
 11
9.969791
 21
7.398946
 31
0.000000
  0
LINE
  8
HUB
 62
     7
  6
CONTINUOUS
 10
9.914068
 20
5.793374
 30
0.000000
 11
9.914068
 21
7.398946
 31
0.000000
  0
LINE
  8
HUB
 62
     7
  6
CONTINUOUS
 10
9.414068
 20
7.930373
 30
0.000000
 11
10.039068
 21
7.930373
 31
0.000000
  0
LINE
  8
HUB
 62
     7
  6
CONTINUOUS
 10
10.039068
 20
7.930373
 30
0.000000
 11
10.039068
 21
7.571373
 31
0.000000
  0
LINE
  8
HUB
 62
     7
  6
CONTINUOUS
 10
10.039068
 20
7.571373
 30
0.000000
 11
9.414068
 21
7.571373
 31
0.000000
  0
LINE
  8
HUB
 62
     7
  6
CONTINUOUS
 10
9.242325
 20
7.750874
 30
0.000000
 11
10.039068
 21
7.750874
 31
0.000000
  0
LINE
  8
HUB
 62
     7
  6
CONTINUOUS
 10
9.445068
 20
7.895937
 30
0.000000
 11
9.445068
 21
7.605810
 31
0.000000
  0
LINE
  8
HUB
 62
     7
  6
CONTINUOUS
 10
9.476568
 20
7.930373
 30
0.000000
 11
9.476568
 21
7.571373
 31
0.000000
  0
LINE
  8
HUB
 62
     7
  6
CONTINUOUS
 10
9.507818
 20
7.895937
 30
0.000000
 11
9.507818
 21
7.605810
 31
0.000000
  0
LINE
  8
HUB
 62
     7
  6
CONTINUOUS
 10
9.570568
 20
7.895937
 30
0.000000
 11
9.570568
 21
7.605810
 31
0.000000
  0
LINE
  8
HUB
 62
     7
  6
CONTINUOUS
 10
9.633318
 20
7.895937
 30
0.000000
 11
9.633318
 21
7.605810
 31
0.000000
  0
LINE
  8
HUB
 62
     7
  6
CONTINUOUS
 10
9.696068
 20
7.895937
 30
0.000000
 11
9.696068
 21
7.605810
 31
0.000000
  0
LINE
  8
HUB
 62
     7
  6
CONTINUOUS
 10
9.758818
 20
7.895937
 30
0.000000
 11
9.758818
 21
7.605810
 31
0.000000
  0
LINE
  8
HUB
 62
     7
  6
CONTINUOUS
 10
9.821568
 20
7.895937
 30
0.000000
 11
9.821568
 21
7.605810
 31
0.000000
  0
LINE
  8
HUB
 62
     7
  6
CONTINUOUS
 10
9.884317
 20
7.895937
 30
0.000000
 11
9.884317
 21
7.605810
 31
0.000000
  0
LINE
  8
HUB
 62
     7
  6
CONTINUOUS
 10
9.539068
 20
7.930373
 30
0.000000
 11
9.539068
 21
7.571373
 31
0.000000
  0
LINE
  8
HUB
 62
     7
  6
CONTINUOUS
 10
9.601568
 20
7.930373
 30
0.000000
 11
9.601568
 21
7.571373
 31
0.000000
  0
LINE
  8
HUB
 62
     7
  6
CONTINUOUS
 10
9.664068
 20
7.930373
 30
0.000000
 11
9.664068
 21
7.571373
 31
0.000000
  0
LINE
  8
HUB
 62
     7
  6
CONTINUOUS
 10
9.726568
 20
7.930373
 30
0.000000
 11
9.726568
 21
7.571373
 31
0.000000
  0
LINE
  8
HUB
 62
     7
  6
CONTINUOUS
 10
9.789068
 20
7.930373
 30
0.000000
 11
9.789068
 21
7.571373
 31
0.000000
  0
LINE
  8
HUB
 62
     7
  6
CONTINUOUS
 10
9.851568
 20
7.930373
 30
0.000000
 11
9.851568
 21
7.571373
 31
0.000000
  0
LINE
  8
HUB
 62
     7
  6
CONTINUOUS
 10
9.914068
 20
7.930373
 30
0.000000
 11
9.914068
 21
7.571373
 31
0.000000
  0
LINE
  8
HUB
 62
     7
  6
CONTINUOUS
 10
11.289068
 20
7.530873
 30
0.000000
 11
11.289068
 21
7.718373
 31
0.000000
  0
LINE
  8
HUB
 62
     7
  6
CONTINUOUS
 10
11.289068
 20
5.655873
 30
0.000000
 11
11.289068
 21
5.468373
 31
0.000000
  0
CIRCLE
  8
HUB
 62
     7
  6
CONTINUOUS
 10
5.237419
 20
6.589471
 30
0.000000
 40
1.500000
  0
CIRCLE
  8
HUB
 62
     7
  6
CONTINUOUS
 10
5.237419
 20
6.589471
 30
0.000000
 40
0.406500
  0
CIRCLE
  8
HUB
 62
     7
  6
CONTINUOUS
 10
5.237419
 20
6.589471
 30
0.000000
 40
0.703001
  0
CIRCLE
  8
HUB
 62
     7
  6
CONTINUOUS
 10
5.940420
 20
6.589471
 30
0.000000
 40
0.101551
  0
CIRCLE
  8
HUB
 62
     7
  6
CONTINUOUS
 10
5.940420
 20
6.589471
 30
0.000000
 40
0.163998
  0
CIRCLE
  8
HUB
 62
     7
  6
CONTINUOUS
 10
5.588919
 20
7.198287
 30
0.000000
 40
0.101552
  0
CIRCLE
  8
HUB
 62
     7
  6
CONTINUOUS
 10
5.588919
 20
7.198287
 30
0.000000
 40
0.164000
  0
CIRCLE
  8
HUB
 62
     7
  6
CONTINUOUS
 10
4.885920
 20
7.198288
 30
0.000000
 40
0.101551
  0
CIRCLE
  8
HUB
 62
     7
  6
CONTINUOUS
 10
4.885920
 20
7.198288
 30
0.000000
 40
0.163999
  0
CIRCLE
  8
HUB
 62
     7
  6
CONTINUOUS
 10
4.534418
 20
6.589472
 30
0.000000
 40
0.101551
  0
CIRCLE
  8
HUB
 62
     7
  6
CONTINUOUS
 10
4.534418
 20
6.589472
 30
0.000000
 40
0.163998
  0
CIRCLE
  8
HUB
 62
     7
  6
CONTINUOUS
 10
4.885920
 20
5.980656
 30
0.000000
 40
0.101552
  0
CIRCLE
  8
HUB
 62
     7
  6
CONTINUOUS
 10
4.885920
 20
5.980656
 30
0.000000
 40
0.164001
  0
CIRCLE
  8
HUB
 62
     7
  6
CONTINUOUS
 10
5.588919
 20
5.980655
 30
0.000000
 40
0.101550
  0
CIRCLE
  8
HUB
 62
     7
  6
CONTINUOUS
 10
5.588919
 20
5.980655
 30
0.000000
 40
0.163999
  0
ARC
  8
HUB
 62
     7
  6
CONTINUOUS
 10
5.237418
 20
6.589466
 30
0.000000
 40
0.629494
 50
252.652823
 51
287.347468
  0
ARC
  8
HUB
 62
     7
  6
CONTINUOUS
 10
5.237425
 20
6.589468
 30
0.000000
 40
0.629492
 50
312.652488
 51
347.347728
  0
ARC
  8
HUB
 62
     7
  6
CONTINUOUS
 10
5.237420
 20
6.589471
 30
0.000000
 40
0.629498
 50
12.652499
 51
47.347305
  0
ARC
  8
HUB
 62
     7
  6
CONTINUOUS
 10
5.237419
 20
6.589463
 30
0.000000
 40
0.629508
 50
72.653006
 51
107.346994
  0
ARC
  8
HUB
 62
     7
  6
CONTINUOUS
 10
5.237411
 20
6.589475
 30
0.000000
 40
0.629491
 50
132.652345
 51
167.347600
  0
ARC
  8
HUB
 62
     7
  6
CONTINUOUS
 10
5.237421
 20
6.589473
 30
0.000000
 40
0.629502
 50
192.652548
 51
227.347129
  0
CIRCLE
  8
HUB
 62
     7
  6
CONTINUOUS
 10
5.237419
 20
6.589471
 30
0.000000
 40
1.157500
  0
CIRCLE
  8
HUB
 62
     7
  6
CONTINUOUS
 10
4.234995
 20
7.168221
 30
0.000000
 40
0.210000
  0
CIRCLE
  8
HUB
 62
     7
  6
CONTINUOUS
 10
4.234994
 20
6.010721
 30
0.000000
 40
0.209999
  0
CIRCLE
  8
HUB
 62
     7
  6
CONTINUOUS
 10
5.237419
 20
5.431972
 30
0.000000
 40
0.210000
  0
CIRCLE
  8
HUB
 62
     7
  6
CONTINUOUS
 10
6.239843
 20
6.010721
 30
0.000000
 40
0.210000
  0
CIRCLE
  8
HUB
 62
     7
  6
CONTINUOUS
 10
5.136536
 20
7.742566
 30
0.000000
 40
0.210001
  0
CIRCLE
  8
HUB
 62
     7
  6
CONTINUOUS
 10
6.286470
 20
7.078651
 30
0.000000
 40
0.210000
  0
POINT
  8
PLATE
 62
     7
 10
5.237419
 20
6.589471
 30
0.000000
  0
POINT
  8
PLATE
 62
     7
 10
5.237419
 20
6.589471
 30
0.000000
  0
POINT
  8
PLATE
 62
     7
 10
5.237419
 20
6.589471
 30
0.000000
  0
POINT
  8
PLATE
 62
     7
 10
5.237419
 20
2.964471
 30
0.000000
  0
CIRCLE
  8
PLATE
 62
     7
  6
CONTINUOUS
 10
5.237419
 20
2.964471
 30
0.000000
 40
0.265600
  0
POINT
  8
PLATE
 62
     7
 10
5.237419
 20
10.214471
 30
0.000000
  0
CIRCLE
  8
PLATE
 62
     7
  6
CONTINUOUS
 10
5.237419
 20
10.214471
 30
0.000000
 40
0.265600
  0
CIRCLE
  8
PLATE
 62
     7
  6
CONTINUOUS
 10
5.237419
 20
6.589471
 30
0.000000
 40
1.940000
  0
ARC
  8
PLATE
 62
     7
  6
CONTINUOUS
 10
5.237419
 20
6.589471
 30
0.000000
 40
4.249999
 50
243.222878
 51
297.367514
  0
ARC
  8
PLATE
 62
     7
  6
CONTINUOUS
 10
5.237419
 20
6.589462
 30
0.000000
 40
4.250008
 50
62.710248
 51
117.362850
  0
ARC
  8
PLATE
 62
     7
  6
CONTINUOUS
 10
5.237419
 20
6.589470
 30
0.000000
 40
3.624999
 50
237.947997
 51
302.165976
  0
ARC
  8
PLATE
 62
     7
  6
CONTINUOUS
 10
5.237418
 20
6.589470
 30
0.000000
 40
3.625001
 50
57.923699
 51
122.409016
  0
ARC
  8
PLATE
 62
     7
  6
CONTINUOUS
 10
5.237419
 20
6.589471
 30
0.000000
 40
3.000000
 50
229.512954
 51
309.802982
  0
ARC
  8
PLATE
 62
     7
  6
CONTINUOUS
 10
5.237420
 20
6.589468
 30
0.000000
 40
3.000002
 50
49.189639
 51
130.025458
  0
CIRCLE
  8
PLATE
 62
     7
  6
CONTINUOUS
 10
5.237419
 20
10.214471
 30
0.000000
 40
0.468500
  0
CIRCLE
  8
PLATE
 62
     7
  6
CONTINUOUS
 10
5.237419
 20
2.964471
 30
0.000000
 40
0.468500
  0
LINE
  8
CNTRLINE
 62
     7
  6
CONTINUOUS
 10
5.237419
 20
12.214471
 30
0.000000
 11
5.237419
 21
2.214471
 31
0.000000
  0
TEXT
  8
DIMEN
 62
     7
 10
13.483312
 20
11.823363
 30
0.000000
 40
0.125000
  1
ELECTRO AUTOMOTIVE
  0
TEXT
  8
DIMEN
 62
     7
 10
13.483312
 20
11.635861
 30
0.000000
 40
0.125000
  1
P.O. BOX 1113 FELTON CA. 95018-1113
  0
TEXT
  8
DIMEN
 62
     7
 10
13.483312
 20
11.260861
 30
0.000000
 40
0.125000
  1
DRAWN BY MICHAEL P. BROWN
  0
LINE
  8
DIMEN
 62
     7
  6
CONTINUOUS
 10
13.350565
 20
12.060858
 30
0.000000
 11
16.917017
 21
12.060858
 31
0.000000
  0
LINE
  8
DIMEN
 62
     7
  6
CONTINUOUS
 10
16.917017
 20
12.060858
 30
0.000000
 11
16.917017
 21
11.160872
 31
0.000000
  0
LINE
  8
DIMEN
 62
     7
  6
CONTINUOUS
 10
16.917017
 20
11.160872
 30
0.000000
 11
13.350565
 21
11.160872
 31
0.000000
  0
LINE
  8
DIMEN
 62
     7
  6
CONTINUOUS
 10
13.350565
 20
11.160872
 30
0.000000
 11
13.350565
 21
12.060858
 31
0.000000
  0
TEXT
  8
DIMEN
 62
     7
 10
13.483312
 20
11.448362
 30
0.000000
 40
0.125000
  1
PHONE 831-429-1989 FAX 831-429-1907
  0
LINE
  8
DIMEN
 62
     7
  6
CONTINUOUS
 10
6.970012
 20
11.357776
 30
0.000000
 11
7.032512
 21
11.357776
 31
0.000000
  0
LINE
  8
DIMEN
 62
     7
  6
CONTINUOUS
 10
6.688839
 20
10.583952
 30
0.000000
 11
6.710612
 21
10.460862
 31
0.000000
  0
LINE
  8
DIMEN
 62
     7
  6
CONTINUOUS
 10
6.688839
 20
10.583952
 30
0.000000
 11
6.593127
 21
10.503551
 31
0.000000
  0
LINE
  8
DIMEN
 62
     7
  6
CONTINUOUS
 10
3.785999
 20
2.594971
 30
0.000000
 11
3.764227
 21
2.718060
 31
0.000000
  0
LINE
  8
DIMEN
 62
     7
  6
CONTINUOUS
 10
3.785999
 20
2.594971
 30
0.000000
 11
3.881711
 21
2.675371
 31
0.000000
  0
TEXT
  8
DIMEN
 62
     7
 10
7.071415
 20
11.294727
 30
0.000000
 40
0.125000
  1
8.500"
  0
TEXT
  8
DIMEN
 62
     7
 10
7.555168
 20
11.389026
 30
0.000000
 40
0.125000
  1
+.002"
  0
TEXT
  8
DIMEN
 62
     7
 10
7.555168
 20
11.200428
 30
0.000000
 40
0.125000
  1
-.000"
  0
LINE
  8
DIMEN
 62
     7
  6
CONTINUOUS
 10
3.785999
 20
2.594971
 30
0.000000
 11
6.970012
 21
11.357776
 31
0.000000
  0
LINE
  8
DIMEN
 62
     7
  6
CONTINUOUS
 10
8.701221
 20
5.963874
 30
0.000000
 11
8.638721
 21
6.072127
 31
0.000000
  0
LINE
  8
DIMEN
 62
     7
  6
CONTINUOUS
 10
8.701221
 20
5.963874
 30
0.000000
 11
8.763721
 21
6.072127
 31
0.000000
  0
LINE
  8
DIMEN
 62
     7
  6
CONTINUOUS
 10
8.701221
 20
7.222874
 30
0.000000
 11
8.763721
 21
7.114621
 31
0.000000
  0
LINE
  8
DIMEN
 62
     7
  6
CONTINUOUS
 10
8.701221
 20
7.222874
 30
0.000000
 11
8.638721
 21
7.114621
 31
0.000000
  0
LINE
  8
DIMEN
 62
     7
  6
CONTINUOUS
 10
9.226568
 20
5.963874
 30
0.000000
 11
8.451221
 21
5.963874
 31
0.000000
  0
LINE
  8
DIMEN
 62
     7
  6
CONTINUOUS
 10
9.226568
 20
7.222874
 30
0.000000
 11
8.451221
 21
7.222874
 31
0.000000
  0
TEXT
  8
DIMEN
 62
     7
 10
8.262626
 20
6.796028
 30
0.000000
 40
0.125000
  1
1.259"
  0
TEXT
  8
DIMEN
 62
     7
 10
8.665164
 20
6.890084
 30
0.000000
 40
0.125000
  1
+.000"
  0
TEXT
  8
DIMEN
 62
     7
 10
8.665164
 20
6.701971
 30
0.000000
 40
0.125000
  1
-.001"
  0
LINE
  8
DIMEN
 62
     7
  6
CONTINUOUS
 10
8.701221
 20
5.963874
 30
0.000000
 11
8.701221
 21
6.670730
 31
0.000000
  0
LINE
  8
DIMEN
 62
     7
  6
CONTINUOUS
 10
8.701221
 20
7.046938
 30
0.000000
 11
8.701221
 21
7.222874
 31
0.000000
  0
LINE
  8
CNTRLINE
 62
     7
  6
CONTINUOUS
 10
5.237419
 20
6.589471
 30
0.000000
 11
6.239843
 21
6.010721
 31
0.000000
  0
LINE
  8
CNTRLINE
 62
     7
  6
CONTINUOUS
 10
5.237419
 20
6.589471
 30
0.000000
 11
4.234994
 21
6.010721
 31
0.000000
  0
LINE
  8
CNTRLINE
 62
     7
  6
CONTINUOUS
 10
5.237419
 20
6.589461
 30
0.000000
 11
4.234995
 21
7.168221
 31
0.000000
  0
LINE
  8
CNTRLINE
 62
     7
  6
CONTINUOUS
 10
5.237419
 20
6.589471
 30
0.000000
 11
5.136536
 21
7.742566
 31
0.000000
  0
LINE
  8
CNTRLINE
 62
     7
  6
CONTINUOUS
 10
5.237419
 20
6.589471
 30
0.000000
 11
6.286470
 21
7.078651
 31
0.000000
  0
LINE
  8
DIMEN
 62
     7
  6
CONTINUOUS
 10
7.287331
 20
7.545361
 30
0.000000
 11
7.184937
 21
7.617058
 31
0.000000
  0
LINE
  8
DIMEN
 62
     7
  6
CONTINUOUS
 10
7.287331
 20
7.545361
 30
0.000000
 11
7.298226
 21
7.669885
 31
0.000000
  0
LINE
  8
DIMEN
 62
     7
  6
CONTINUOUS
 10
5.040287
 20
8.842692
 30
0.000000
 11
5.142681
 21
8.914389
 31
0.000000
  0
LINE
  8
DIMEN
 62
     7
  6
CONTINUOUS
 10
5.040287
 20
8.842692
 30
0.000000
 11
5.153576
 21
8.789865
 31
0.000000
  0
LINE
  8
DIMEN
 62
     7
  6
CONTINUOUS
 10
6.343114
 20
7.105065
 30
0.000000
 11
7.513908
 21
7.651015
 31
0.000000
  0
LINE
  8
DIMEN
 62
     7
  6
CONTINUOUS
 10
5.131089
 20
7.804828
 30
0.000000
 11
5.018498
 21
9.091740
 31
0.000000
  0
TEXT
  8
DIMEN
 62
     7
 10
6.244431
 20
8.485547
 30
0.000000
 40
0.125000
  1
70¦
  0
ARC
  8
DIMEN
 62
     7
  6
CONTINUOUS
 10
5.237419
 20
6.589471
 30
0.000000
 40
2.261828
 50
25.000006
 51
55.535541
  0
ARC
  8
DIMEN
 62
     7
  6
CONTINUOUS
 10
5.237419
 20
6.589471
 30
0.000000
 40
2.261828
 50
64.443310
 51
95.000012
  0
LINE
  8
DIMEN
 62
     7
  6
CONTINUOUS
 10
5.042938
 20
8.812404
 30
0.000000
 11
4.940544
 21
8.740707
 31
0.000000
  0
LINE
  8
DIMEN
 62
     7
  6
CONTINUOUS
 10
5.042938
 20
8.812404
 30
0.000000
 11
4.929650
 21
8.865231
 31
0.000000
  0
LINE
  8
DIMEN
 62
     7
  6
CONTINUOUS
 10
3.304949
 20
7.705193
 30
0.000000
 11
3.304950
 21
7.830193
 31
0.000000
  0
LINE
  8
DIMEN
 62
     7
  6
CONTINUOUS
 10
3.304949
 20
7.705193
 30
0.000000
 11
3.413203
 21
7.767692
 31
0.000000
  0
LINE
  8
DIMEN
 62
     7
  6
CONTINUOUS
 10
5.131089
 20
7.804828
 30
0.000000
 11
5.021149
 21
9.061452
 31
0.000000
  0
LINE
  8
DIMEN
 62
     7
  6
CONTINUOUS
 10
4.180869
 20
7.199472
 30
0.000000
 11
3.088444
 21
7.830195
 31
0.000000
  0
TEXT
  8
DIMEN
 62
     7
 10
3.918775
 20
8.408632
 30
0.000000
 40
0.125000
  1
55¦
  0
ARC
  8
DIMEN
 62
     7
  6
CONTINUOUS
 10
5.237419
 20
6.589461
 30
0.000000
 40
2.231434
 50
94.999971
 51
118.011417
  0
ARC
  8
DIMEN
 62
     7
  6
CONTINUOUS
 10
5.237419
 20
6.589461
 30
0.000000
 40
2.231434
 50
126.751039
 51
149.999561
  0
LINE
  8
DIMEN
 62
     7
  6
CONTINUOUS
 10
3.304504
 20
7.705442
 30
0.000000
 11
3.304504
 21
7.580442
 31
0.000000
  0
LINE
  8
DIMEN
 62
     7
  6
CONTINUOUS
 10
3.304504
 20
7.705442
 30
0.000000
 11
3.196250
 21
7.642942
 31
0.000000
  0
LINE
  8
DIMEN
 62
     7
  6
CONTINUOUS
 10
3.304503
 20
5.473502
 30
0.000000
 11
3.196249
 21
5.536002
 31
0.000000
  0
LINE
  8
DIMEN
 62
     7
  6
CONTINUOUS
 10
3.304503
 20
5.473502
 30
0.000000
 11
3.304503
 21
5.598502
 31
0.000000
  0
LINE
  8
DIMEN
 62
     7
  6
CONTINUOUS
 10
4.180868
 20
7.199472
 30
0.000000
 11
3.087997
 21
7.830442
 31
0.000000
  0
LINE
  8
DIMEN
 62
     7
  6
CONTINUOUS
 10
4.180868
 20
5.979471
 30
0.000000
 11
3.087996
 21
5.348502
 31
0.000000
  0
TEXT
  8
DIMEN
 62
     7
 10
2.885460
 20
6.721814
 30
0.000000
 40
0.125000
  1
60¦
  0
ARC
  8
DIMEN
 62
     7
  6
CONTINUOUS
 10
5.237419
 20
6.589471
 30
0.000000
 40
2.231939
 50
149.999970
 51
172.559119
  0
ARC
  8
DIMEN
 62
     7
  6
CONTINUOUS
 10
5.237419
 20
6.589471
 30
0.000000
 40
2.231939
 50
177.403949
 51
209.999978
  0
LINE
  8
DIMEN
 62
     7
  6
CONTINUOUS
 10
7.168733
 20
5.474435
 30
0.000000
 11
7.168732
 21
5.599435
 31
0.000000
  0
LINE
  8
DIMEN
 62
     7
  6
CONTINUOUS
 10
7.168733
 20
5.474435
 30
0.000000
 11
7.276986
 21
5.536936
 31
0.000000
  0
LINE
  8
DIMEN
 62
     7
  6
CONTINUOUS
 10
7.258551
 20
7.531949
 30
0.000000
 11
7.360946
 21
7.460253
 31
0.000000
  0
LINE
  8
DIMEN
 62
     7
  6
CONTINUOUS
 10
7.258551
 20
7.531949
 30
0.000000
 11
7.247657
 21
7.407425
 31
0.000000
  0
LINE
  8
DIMEN
 62
     7
  6
CONTINUOUS
 10
6.293970
 20
5.979472
 30
0.000000
 11
7.385240
 21
5.349437
 31
0.000000
  0
LINE
  8
DIMEN
 62
     7
  6
CONTINUOUS
 10
6.343114
 20
7.105065
 30
0.000000
 11
7.485127
 21
7.637606
 31
0.000000
  0
TEXT
  8
DIMEN
 62
     7
 10
7.339367
 20
6.332948
 30
0.000000
 40
0.125000
  1
55¦
  0
ARC
  8
DIMEN
 62
     7
  6
CONTINUOUS
 10
5.237419
 20
6.589461
 30
0.000000
 40
2.230080
 50
330.000408
 51
352.586030
  0
ARC
  8
DIMEN
 62
     7
  6
CONTINUOUS
 10
5.237419
 20
6.589461
 30
0.000000
 40
2.230080
 50
357.438893
 51
385.000434
  0
LINE
  8
DIMEN
 62
     7
  6
CONTINUOUS
 10
3.288287
 20
5.464149
 30
0.000000
 11
3.396540
 21
5.401648
 31
0.000000
  0
LINE
  8
DIMEN
 62
     7
  6
CONTINUOUS
 10
3.288287
 20
5.464149
 30
0.000000
 11
3.288286
 21
5.339149
 31
0.000000
  0
LINE
  8
DIMEN
 62
     7
  6
CONTINUOUS
 10
5.237419
 20
4.338808
 30
0.000000
 11
5.129166
 21
4.276308
 31
0.000000
  0
LINE
  8
DIMEN
 62
     7
  6
CONTINUOUS
 10
5.237419
 20
4.338808
 30
0.000000
 11
5.129166
 21
4.401308
 31
0.000000
  0
LINE
  8
DIMEN
 62
     7
  6
CONTINUOUS
 10
4.180868
 20
5.979472
 30
0.000000
 11
3.071780
 21
5.339151
 31
0.000000
  0
LINE
  8
DIMEN
 62
     7
  6
CONTINUOUS
 10
5.237419
 20
5.369472
 30
0.000000
 11
5.237419
 21
4.088808
 31
0.000000
  0
TEXT
  8
DIMEN
 62
     7
 10
3.983525
 20
4.577617
 30
0.000000
 40
0.125000
  1
60¦
  0
ARC
  8
DIMEN
 62
     7
  6
CONTINUOUS
 10
5.237419
 20
6.589461
 30
0.000000
 40
2.250654
 50
209.999569
 51
235.514462
  0
ARC
  8
DIMEN
 62
     7
  6
CONTINUOUS
 10
5.237419
 20
6.589461
 30
0.000000
 40
2.250654
 50
244.596065
 51
270.000000
  0
LINE
  8
DIMEN
 62
     7
  6
CONTINUOUS
 10
7.175275
 20
4.770126
 30
0.000000
 11
7.237775
 21
4.770126
 31
0.000000
  0
LINE
  8
DIMEN
 62
     7
  6
CONTINUOUS
 10
6.081293
 20
5.797205
 30
0.000000
 11
5.959592
 21
5.825735
 31
0.000000
  0
LINE
  8
DIMEN
 62
     7
  6
CONTINUOUS
 10
6.081293
 20
5.797205
 30
0.000000
 11
6.045150
 21
5.916866
 31
0.000000
  0
LINE
  8
DIMEN
 62
     7
  6
CONTINUOUS
 10
4.393546
 20
7.381736
 30
0.000000
 11
4.515246
 21
7.353207
 31
0.000000
  0
LINE
  8
DIMEN
 62
     7
  6
CONTINUOUS
 10
4.393546
 20
7.381736
 30
0.000000
 11
4.429689
 21
7.262076
 31
0.000000
  0
TEXT
  8
DIMEN
 62
     7
 10
7.269025
 20
4.707320
 30
0.000000
 40
0.125000
  1
2.315"
  0
LINE
  8
DIMEN
 62
     7
  6
CONTINUOUS
 10
4.393546
 20
7.381736
 30
0.000000
 11
7.175275
 21
4.770126
 31
0.000000
  0
TEXT
  8
DIMEN
 62
     7
 10
7.300275
 20
4.520126
 30
0.000000
 40
0.125000
  1
BOLT
  0
TEXT
  8
DIMEN
 62
     7
 10
7.300275
 20
4.332626
 30
0.000000
 40
0.125000
  1
CIRCLE
  0
LINE
  8
DIMEN
 62
     7
  6
CONTINUOUS
 10
5.237419
 20
4.376286
 30
0.000000
 11
5.345672
 21
4.438786
 31
0.000000
  0
LINE
  8
DIMEN
 62
     7
  6
CONTINUOUS
 10
5.237419
 20
4.376286
 30
0.000000
 11
5.345672
 21
4.313786
 31
0.000000
  0
LINE
  8
DIMEN
 62
     7
  6
CONTINUOUS
 10
7.154093
 20
5.482887
 30
0.000000
 11
7.154094
 21
5.357887
 31
0.000000
  0
LINE
  8
DIMEN
 62
     7
  6
CONTINUOUS
 10
7.154093
 20
5.482887
 30
0.000000
 11
7.045841
 21
5.420386
 31
0.000000
  0
LINE
  8
DIMEN
 62
     7
  6
CONTINUOUS
 10
5.237419
 20
5.369472
 30
0.000000
 11
5.237419
 21
4.126286
 31
0.000000
  0
LINE
  8
DIMEN
 62
     7
  6
CONTINUOUS
 10
6.293970
 20
5.979472
 30
0.000000
 11
7.370600
 21
5.357889
 31
0.000000
  0
TEXT
  8
DIMEN
 62
     7
 10
6.215454
 20
4.610074
 30
0.000000
 40
0.125000
  1
60¦
  0
ARC
  8
DIMEN
 62
     7
  6
CONTINUOUS
 10
5.237419
 20
6.589461
 30
0.000000
 40
2.213176
 50
270.000000
 51
295.327679
  0
ARC
  8
DIMEN
 62
     7
  6
CONTINUOUS
 10
5.237419
 20
6.589461
 30
0.000000
 40
2.213176
 50
304.557014
 51
330.000408
  0
LINE
  8
DIMEN
 62
     7
  6
CONTINUOUS
 10
5.412204
 20
10.649146
 30
0.000000
 11
5.406065
 21
10.773995
 31
0.000000
  0
LINE
  8
DIMEN
 62
     7
  6
CONTINUOUS
 10
5.412204
 20
10.649146
 30
0.000000
 11
5.517257
 21
10.716887
 31
0.000000
  0
LINE
  8
DIMEN
 62
     7
  6
CONTINUOUS
 10
5.412204
 20
10.649146
 30
0.000000
 11
5.928095
 21
11.653611
 31
0.000000
  0
LINE
  8
DIMEN
 62
     7
  6
CONTINUOUS
 10
5.928095
 20
11.653611
 30
0.000000
 11
6.428095
 21
11.653611
 31
0.000000
  0
TEXT
  8
DIMEN
 62
     7
 10
6.490595
 20
11.591111
 30
0.000000
 40
0.125000
  1
SEE NOTE B
  0
LINE
  8
DIMEN
 62
     7
  6
CONTINUOUS
 10
6.710006
 20
9.901889
 30
0.000000
 11
6.736212
 21
10.024111
 31
0.000000
  0
LINE
  8
DIMEN
 62
     7
  6
CONTINUOUS
 10
6.710006
 20
9.901889
 30
0.000000
 11
6.828956
 21
9.940304
 31
0.000000
  0
LINE
  8
DIMEN
 62
     7
  6
CONTINUOUS
 10
6.710006
 20
9.901889
 30
0.000000
 11
7.004587
 21
10.227885
 31
0.000000
  0
LINE
  8
DIMEN
 62
     7
  6
CONTINUOUS
 10
7.004587
 20
10.227885
 30
0.000000
 11
7.504587
 21
10.227885
 31
0.000000
  0
TEXT
  8
DIMEN
 62
     7
 10
7.567087
 20
10.165385
 30
0.000000
 40
0.125000
  1
7 1/4"BOLT CIRCLE
  0
LINE
  8
DIMEN
 62
     7
  6
CONTINUOUS
 10
6.544158
 20
9.289922
 30
0.000000
 11
6.560937
 21
9.413791
 31
0.000000
  0
LINE
  8
DIMEN
 62
     7
  6
CONTINUOUS
 10
6.544158
 20
9.289922
 30
0.000000
 11
6.659821
 21
9.337325
 31
0.000000
  0
LINE
  8
DIMEN
 62
     7
  6
CONTINUOUS
 10
6.544158
 20
9.289922
 30
0.000000
 11
6.733124
 21
9.534289
 31
0.000000
  0
LINE
  8
DIMEN
 62
     7
  6
CONTINUOUS
 10
6.733124
 20
9.534289
 30
0.000000
 11
7.233124
 21
9.534289
 31
0.000000
  0
TEXT
  8
DIMEN
 62
     7
 10
7.295624
 20
9.471789
 30
0.000000
 40
0.125000
  1
6" HUB CUTOUT
  0
TEXT
  8
DIMEN
 62
     7
 10
8.184048
 20
11.268281
 30
0.000000
 40
0.125000
  1
x 1/8" DEEP
  0
LINE
  8
DIMEN
 62
     7
  6
CONTINUOUS
 10
7.483800
 20
8.135673
 30
0.000000
 11
7.546300
 21
8.135673
 31
0.000000
  0
LINE
  8
DIMEN
 62
     7
  6
CONTINUOUS
 10
5.816503
 20
6.988059
 30
0.000000
 11
5.762768
 21
6.875198
 31
0.000000
  0
LINE
  8
DIMEN
 62
     7
  6
CONTINUOUS
 10
5.816503
 20
6.988059
 30
0.000000
 11
5.691895
 21
6.978165
 31
0.000000
  0
LINE
  8
DIMEN
 62
     7
  6
CONTINUOUS
 10
4.658335
 20
6.190883
 30
0.000000
 11
4.712071
 21
6.303743
 31
0.000000
  0
LINE
  8
DIMEN
 62
     7
  6
CONTINUOUS
 10
4.658335
 20
6.190883
 30
0.000000
 11
4.782943
 21
6.200777
 31
0.000000
  0
TEXT
  8
DIMEN
 62
     7
 10
7.577549
 20
8.073086
 30
0.000000
 40
0.125000
  1
1 13/32"
  0
LINE
  8
DIMEN
 62
     7
  6
CONTINUOUS
 10
4.658335
 20
6.190883
 30
0.000000
 11
7.483800
 21
8.135673
 31
0.000000
  0
TEXT
  8
DIMEN
 62
     7
 10
7.608799
 20
7.885673
 30
0.000000
 40
0.125000
  1
BOLT
  0
TEXT
  8
DIMEN
 62
     7
 10
7.608799
 20
7.698173
 30
0.000000
 40
0.125000
  1
CIRCLE
  0
LINE
  8
DIMEN
 62
     7
  6
CONTINUOUS
 10
5.334404
 20
5.245708
 30
0.000000
 11
5.455305
 21
5.213959
 31
0.000000
  0
LINE
  8
DIMEN
 62
     7
  6
CONTINUOUS
 10
5.334404
 20
5.245708
 30
0.000000
 11
5.367359
 21
5.125131
 31
0.000000
  0
LINE
  8
DIMEN
 62
     7
  6
CONTINUOUS
 10
5.334404
 20
5.245708
 30
0.000000
 11
6.812703
 21
3.782093
 31
0.000000
  0
LINE
  8
DIMEN
 62
     7
  6
CONTINUOUS
 10
6.812703
 20
3.782093
 30
0.000000
 11
7.312703
 21
3.782093
 31
0.000000
  0
TEXT
  8
DIMEN
 62
     7
 10
7.375203
 20
3.719593
 30
0.000000
 40
0.125000
  1
SEE NOTE C
  0
LINE
  8
DIMEN
 62
     7
  6
CONTINUOUS
 10
4.803919
 20
5.838627
 30
0.000000
 11
4.776193
 21
5.716741
 31
0.000000
  0
LINE
  8
DIMEN
 62
     7
  6
CONTINUOUS
 10
4.803919
 20
5.838627
 30
0.000000
 11
4.684499
 21
5.801695
 31
0.000000
  0
LINE
  8
DIMEN
 62
     7
  6
CONTINUOUS
 10
4.803919
 20
5.838627
 30
0.000000
 11
3.719810
 21
4.668525
 31
0.000000
  0
LINE
  8
DIMEN
 62
     7
  6
CONTINUOUS
 10
3.719810
 20
4.668525
 30
0.000000
 11
3.219810
 21
4.668525
 31
0.000000
  0
TEXT
  8
DIMEN
 62
     7
 10
2.172056
 20
4.606025
 30
0.000000
 40
0.125000
  1
SEE NOTE D
  0
LINE
  8
HUB
 62
     7
  6
CONTINUOUS
 10
11.289068
 20
7.530873
 30
0.000000
 11
11.289068
 21
5.655873
 31
0.000000
  0
LINE
  8
DIMEN
 62
     7
  6
CONTINUOUS
 10
9.289068
 20
5.730165
 30
0.000000
 11
9.180815
 21
5.667665
 31
0.000000
  0
LINE
  8
DIMEN
 62
     7
  6
CONTINUOUS
 10
9.289068
 20
5.730165
 30
0.000000
 11
9.180815
 21
5.792665
 31
0.000000
  0
LINE
  8
DIMEN
 62
     7
  6
CONTINUOUS
 10
9.414068
 20
5.730165
 30
0.000000
 11
9.522321
 21
5.792665
 31
0.000000
  0
LINE
  8
DIMEN
 62
     7
  6
CONTINUOUS
 10
9.414068
 20
5.730165
 30
0.000000
 11
9.522321
 21
5.667665
 31
0.000000
  0
LINE
  8
DIMEN
 62
     7
  6
CONTINUOUS
 10
9.289068
 20
5.901374
 30
0.000000
 11
9.289068
 21
5.480165
 31
0.000000
  0
LINE
  8
DIMEN
 62
     7
  6
CONTINUOUS
 10
9.414068
 20
5.901374
 30
0.000000
 11
9.414068
 21
5.480165
 31
0.000000
  0
TEXT
  8
DIMEN
 62
     7
 10
8.750197
 20
5.667257
 30
0.000000
 40
0.125000
  1
1/8"
  0
LINE
  8
DIMEN
 62
     7
  6
CONTINUOUS
 10
9.289068
 20
5.730165
 30
0.000000
 11
9.039068
 21
5.730165
 31
0.000000
  0
LINE
  8
DIMEN
 62
     7
  6
CONTINUOUS
 10
9.414068
 20
5.730165
 30
0.000000
 11
9.664068
 21
5.730165
 31
0.000000
  0
LINE
  8
DIMEN
 62
     7
  6
CONTINUOUS
 10
9.414068
 20
4.869554
 30
0.000000
 11
9.522321
 21
4.932054
 31
0.000000
  0
LINE
  8
DIMEN
 62
     7
  6
CONTINUOUS
 10
9.414068
 20
4.869554
 30
0.000000
 11
9.522321
 21
4.807054
 31
0.000000
  0
LINE
  8
DIMEN
 62
     7
  6
CONTINUOUS
 10
10.164068
 20
4.869554
 30
0.000000
 11
10.055815
 21
4.807054
 31
0.000000
  0
LINE
  8
DIMEN
 62
     7
  6
CONTINUOUS
 10
10.164068
 20
4.869554
 30
0.000000
 11
10.055815
 21
4.932054
 31
0.000000
  0
LINE
  8
DIMEN
 62
     7
  6
CONTINUOUS
 10
9.414068
 20
5.030873
 30
0.000000
 11
9.414068
 21
4.619554
 31
0.000000
  0
LINE
  8
DIMEN
 62
     7
  6
CONTINUOUS
 10
10.164068
 20
5.030873
 30
0.000000
 11
10.164068
 21
4.619554
 31
0.000000
  0
TEXT
  8
DIMEN
 62
     7
 10
9.619839
 20
4.806981
 30
0.000000
 40
0.125000
  1
3/4"
  0
LINE
  8
DIMEN
 62
     7
  6
CONTINUOUS
 10
9.414068
 20
4.869554
 30
0.000000
 11
9.588589
 21
4.869554
 31
0.000000
  0
LINE
  8
DIMEN
 62
     7
  6
CONTINUOUS
 10
9.989547
 20
4.869554
 30
0.000000
 11
10.164068
 21
4.869554
 31
0.000000
  0
LINE
  8
DIMEN
 62
     7
  6
CONTINUOUS
 10
10.164068
 20
4.869554
 30
0.000000
 11
10.272321
 21
4.932054
 31
0.000000
  0
LINE
  8
DIMEN
 62
     7
  6
CONTINUOUS
 10
10.164068
 20
4.869554
 30
0.000000
 11
10.272321
 21
4.807054
 31
0.000000
  0
LINE
  8
DIMEN
 62
     7
  6
CONTINUOUS
 10
11.289068
 20
4.869554
 30
0.000000
 11
11.180815
 21
4.807054
 31
0.000000
  0
LINE
  8
DIMEN
 62
     7
  6
CONTINUOUS
 10
11.289068
 20
4.869554
 30
0.000000
 11
11.180815
 21
4.932054
 31
0.000000
  0
LINE
  8
DIMEN
 62
     7
  6
CONTINUOUS
 10
10.164068
 20
5.030873
 30
0.000000
 11
10.164068
 21
4.619554
 31
0.000000
  0
LINE
  8
DIMEN
 62
     7
  6
CONTINUOUS
 10
11.289068
 20
5.405873
 30
0.000000
 11
11.289068
 21
4.619554
 31
0.000000
  0
TEXT
  8
DIMEN
 62
     7
 10
10.542837
 20
4.806646
 30
0.000000
 40
0.125000
  1
1 1/8"
  0
LINE
  8
DIMEN
 62
     7
  6
CONTINUOUS
 10
10.164068
 20
4.869554
 30
0.000000
 11
10.511587
 21
4.869554
 31
0.000000
  0
LINE
  8
DIMEN
 62
     7
  6
CONTINUOUS
 10
10.941549
 20
4.869554
 30
0.000000
 11
11.289068
 21
4.869554
 31
0.000000
  0
LINE
  8
DIMEN
 62
     7
  6
CONTINUOUS
 10
9.289068
 20
4.418086
 30
0.000000
 11
9.397321
 21
4.480586
 31
0.000000
  0
LINE
  8
DIMEN
 62
     7
  6
CONTINUOUS
 10
9.289068
 20
4.418086
 30
0.000000
 11
9.397321
 21
4.355586
 31
0.000000
  0
LINE
  8
DIMEN
 62
     7
  6
CONTINUOUS
 10
11.289068
 20
4.418086
 30
0.000000
 11
11.180815
 21
4.355586
 31
0.000000
  0
LINE
  8
DIMEN
 62
     7
  6
CONTINUOUS
 10
11.289068
 20
4.418086
 30
0.000000
 11
11.180815
 21
4.480586
 31
0.000000
  0
LINE
  8
DIMEN
 62
     7
  6
CONTINUOUS
 10
9.289068
 20
5.901374
 30
0.000000
 11
9.289068
 21
4.168086
 31
0.000000
  0
LINE
  8
DIMEN
 62
     7
  6
CONTINUOUS
 10
11.289068
 20
5.405873
 30
0.000000
 11
11.289068
 21
4.168086
 31
0.000000
  0
TEXT
  8
DIMEN
 62
     7
 10
10.225215
 20
4.355499
 30
0.000000
 40
0.125000
  1
2"
  0
LINE
  8
DIMEN
 62
     7
  6
CONTINUOUS
 10
9.289068
 20
4.418086
 30
0.000000
 11
10.193965
 21
4.418086
 31
0.000000
  0
LINE
  8
DIMEN
 62
     7
  6
CONTINUOUS
 10
10.384171
 20
4.418086
 30
0.000000
 11
11.289068
 21
4.418086
 31
0.000000
  0
LINE
  8
DIMEN
 62
     7
  6
CONTINUOUS
 10
9.914068
 20
5.941790
 30
0.000000
 11
10.022321
 21
6.004290
 31
0.000000
  0
LINE
  8
DIMEN
 62
     7
  6
CONTINUOUS
 10
9.914068
 20
5.941790
 30
0.000000
 11
10.022321
 21
5.879290
 31
0.000000
  0
LINE
  8
DIMEN
 62
     7
  6
CONTINUOUS
 10
11.289068
 20
5.941790
 30
0.000000
 11
11.180815
 21
5.879290
 31
0.000000
  0
LINE
  8
DIMEN
 62
     7
  6
CONTINUOUS
 10
11.289068
 20
5.941790
 30
0.000000
 11
11.180815
 21
6.004290
 31
0.000000
  0
LINE
  8
DIMEN
 62
     7
  6
CONTINUOUS
 10
9.914068
 20
5.855874
 30
0.000000
 11
9.914068
 21
6.191790
 31
0.000000
  0
LINE
  8
DIMEN
 62
     7
  6
CONTINUOUS
 10
11.289068
 20
5.718373
 30
0.000000
 11
11.289068
 21
6.191790
 31
0.000000
  0
TEXT
  8
DIMEN
 62
     7
 10
10.382113
 20
5.878882
 30
0.000000
 40
0.125000
  1
1 3/8"
  0
LINE
  8
DIMEN
 62
     7
  6
CONTINUOUS
 10
9.914068
 20
5.941790
 30
0.000000
 11
10.350862
 21
5.941790
 31
0.000000
  0
LINE
  8
DIMEN
 62
     7
  6
CONTINUOUS
 10
10.852274
 20
5.941790
 30
0.000000
 11
11.289068
 21
5.941790
 31
0.000000
  0
LINE
  8
DIMEN
 62
     7
  6
CONTINUOUS
 10
11.607595
 20
5.468373
 30
0.000000
 11
11.545095
 21
5.576626
 31
0.000000
  0
LINE
  8
DIMEN
 62
     7
  6
CONTINUOUS
 10
11.607595
 20
5.468373
 30
0.000000
 11
11.670095
 21
5.576626
 31
0.000000
  0
LINE
  8
DIMEN
 62
     7
  6
CONTINUOUS
 10
11.607595
 20
7.718373
 30
0.000000
 11
11.670095
 21
7.610120
 31
0.000000
  0
LINE
  8
DIMEN
 62
     7
  6
CONTINUOUS
 10
11.607595
 20
7.718373
 30
0.000000
 11
11.545095
 21
7.610120
 31
0.000000
  0
LINE
  8
DIMEN
 62
     7
  6
CONTINUOUS
 10
11.351568
 20
5.468373
 30
0.000000
 11
11.857595
 21
5.468373
 31
0.000000
  0
LINE
  8
DIMEN
 62
     7
  6
CONTINUOUS
 10
11.351568
 20
7.718373
 30
0.000000
 11
11.857595
 21
7.718373
 31
0.000000
  0
TEXT
  8
DIMEN
 62
     7
 10
11.382407
 20
6.316563
 30
0.000000
 40
0.125000
  1
2 1/4"
  0
LINE
  8
DIMEN
 62
     7
  6
CONTINUOUS
 10
11.607595
 20
5.468373
 30
0.000000
 11
11.607595
 21
6.285313
 31
0.000000
  0
LINE
  8
DIMEN
 62
     7
  6
CONTINUOUS
 10
11.607595
 20
6.472986
 30
0.000000
 11
11.607595
 21
7.718373
 31
0.000000
  0
LINE
  8
DIMEN
 62
     7
  6
CONTINUOUS
 10
12.155969
 20
5.093373
 30
0.000000
 11
12.093469
 21
5.201626
 31
0.000000
  0
LINE
  8
DIMEN
 62
     7
  6
CONTINUOUS
 10
12.155969
 20
5.093373
 30
0.000000
 11
12.218469
 21
5.201626
 31
0.000000
  0
LINE
  8
DIMEN
 62
     7
  6
CONTINUOUS
 10
12.155969
 20
8.093373
 30
0.000000
 11
12.218469
 21
7.985120
 31
0.000000
  0
LINE
  8
DIMEN
 62
     7
  6
CONTINUOUS
 10
12.155969
 20
8.093373
 30
0.000000
 11
12.093469
 21
7.985120
 31
0.000000
  0
LINE
  8
DIMEN
 62
     7
  6
CONTINUOUS
 10
10.226568
 20
5.093373
 30
0.000000
 11
12.405969
 21
5.093373
 31
0.000000
  0
LINE
  8
DIMEN
 62
     7
  6
CONTINUOUS
 10
10.226568
 20
8.093373
 30
0.000000
 11
12.405969
 21
8.093373
 31
0.000000
  0
TEXT
  8
DIMEN
 62
     7
 10
12.088700
 20
6.725791
 30
0.000000
 40
0.125000
  1
3"
  0
LINE
  8
DIMEN
 62
     7
  6
CONTINUOUS
 10
12.155969
 20
5.093373
 30
0.000000
 11
12.155969
 21
6.694541
 31
0.000000
  0
LINE
  8
DIMEN
 62
     7
  6
CONTINUOUS
 10
12.155969
 20
6.882042
 30
0.000000
 11
12.155969
 21
8.093373
 31
0.000000
  0
LINE
  8
DIMEN
 62
     7
  6
CONTINUOUS
 10
9.606035
 20
6.186873
 30
0.000000
 11
9.543535
 21
6.295127
 31
0.000000
  0
LINE
  8
DIMEN
 62
     7
  6
CONTINUOUS
 10
9.606035
 20
6.186873
 30
0.000000
 11
9.668535
 21
6.295127
 31
0.000000
  0
LINE
  8
DIMEN
 62
     7
  6
CONTINUOUS
 10
9.606035
 20
6.999873
 30
0.000000
 11
9.668535
 21
6.891620
 31
0.000000
  0
LINE
  8
DIMEN
 62
     7
  6
CONTINUOUS
 10
9.606035
 20
6.999873
 30
0.000000
 11
9.543535
 21
6.891620
 31
0.000000
  0
LINE
  8
DIMEN
 62
     7
  6
CONTINUOUS
 10
9.851568
 20
6.186873
 30
0.000000
 11
9.356035
 21
6.186873
 31
0.000000
  0
LINE
  8
DIMEN
 62
     7
  6
CONTINUOUS
 10
9.851568
 20
6.999873
 30
0.000000
 11
9.356035
 21
6.999873
 31
0.000000
  0
TEXT
  8
DIMEN
 62
     7
 10
9.407694
 20
6.401079
 30
0.000000
 40
0.125000
  1
13/16"
  0
LINE
  8
DIMEN
 62
     7
  6
CONTINUOUS
 10
9.606035
 20
6.186873
 30
0.000000
 11
9.606035
 21
6.369829
 31
0.000000
  0
LINE
  8
DIMEN
 62
     7
  6
CONTINUOUS
 10
9.606035
 20
6.557771
 30
0.000000
 11
9.606035
 21
6.999873
 31
0.000000
  0
LINE
  8
DIMEN
 62
     7
  6
CONTINUOUS
 10
10.578553
 20
7.459822
 30
0.000000
 11
10.689127
 21
7.401525
 31
0.000000
  0
LINE
  8
DIMEN
 62
     7
  6
CONTINUOUS
 10
10.578553
 20
7.459822
 30
0.000000
 11
10.583354
 21
7.334914
 31
0.000000
  0
LINE
  8
DIMEN
 62
     7
  6
CONTINUOUS
 10
10.578553
 20
7.459822
 30
0.000000
 11
12.334189
 21
4.672036
 31
0.000000
  0
LINE
  8
DIMEN
 62
     7
  6
CONTINUOUS
 10
12.334189
 20
4.672036
 30
0.000000
 11
12.834189
 21
4.672036
 31
0.000000
  0
TEXT
  8
DIMEN
 62
     7
 10
12.896689
 20
4.609536
 30
0.000000
 40
0.125000
  1
BORE TO SUIT BUSHING
  0
TEXT
  8
DIMEN
 62
     7
 10
13.261989
 20
10.923344
 30
0.000000
 40
0.125000
  1
1988-1994 CHEVY CAVALIER WITH A 3.1L V6
  0
TEXT
  8
DIMEN
 62
     7
 10
13.261989
 20
10.735845
 30
0.000000
 40
0.125000
  1
ENGINE TO ADC 9" MOTOR ADAPTOR HUB
  0
TEXT
  8
DIMEN
 62
     7
 10
13.261989
 20
10.548344
 30
0.000000
 40
0.125000
  1
AND BUSHING DRAWING PLOTTED TO SCALE
  0
TEXT
  8
DIMEN
 62
     7
 10
13.261989
 20
10.360845
 30
0.000000
 40
0.125000
  1
NOTE A - TAP 10-24 x 1" DEEP
  0
TEXT
  8
DIMEN
 62
     7
 10
13.261989
 20
10.173345
 30
0.000000
 40
0.125000
  1
NOTE B - DRILL 17/32" COUNTERSINK TO SUIT
  0
TEXT
  8
DIMEN
 62
     7
 10
13.261989
 20
9.985845
 30
0.000000
 40
0.125000
  1
1/2-13 FLAT HEAD BOLT
  0
TEXT
  8
DIMEN
 62
     7
 10
13.261989
 20
9.798345
 30
0.000000
 40
0.125000
  1
NOTE C - DRILL 23/64" x 5/8" DEEP THEN
  0
TEXT
  8
DIMEN
 62
     7
 10
13.261989
 20
9.610844
 30
0.000000
 40
0.125000
  1
TAP 10-1.0 mm x 1/2" DEEP
  0
TEXT
  8
DIMEN
 62
     7
 10
13.261989
 20
9.423345
 30
0.000000
 40
0.125000
  1
NOTE D - DRILL 13/64" COUNTERBORE 23/64"
  0
TEXT
  8
DIMEN
 62
     7
 10
13.261989
 20
9.235845
 30
0.000000
 40
0.125000
  1
x 5/16" DEEP THEN TURN FACE OF HUB TO
  0
TEXT
  8
DIMEN
 62
     7
 10
13.261989
 20
9.048345
 30
0.000000
 40
0.125000
  1
LOCATING PROJECTION DIAMETER
  0
ENDSEC
  0
EOF
