  0
SECTION
  2
HEADER
  9
$ACADVER
  1
AC1006
  0
ENDSEC
  0
SECTION
  2
TABLES
  0
TABLE
  2
LTYPE
 70
    25
  0
LTYPE
  2
CONTINUOUS
 70
    64
  3
Solid line
 72
    64
 73
     0
 40
0.000000
  0
LTYPE
  2
DASHDOT
 70
    64
  3
__ . __ . __ . __ . __ . __ . __ . __ . __ . __
 72
    65
 73
     4
 40
1.000000
 49
0.500000
 49
-0.250000
 49
0.000000
 49
-0.250000
  0
LTYPE
  2
DASHED
 70
    64
  3
__ __ __ __ __ __ __ __ __ __ __ __ __ __ __ __
 72
    65
 73
     2
 40
0.750000
 49
0.500000
 49
-0.250000
  0
LTYPE
  2
DIVIDE
 70
    64
  3
____ . . ____ . . ____ . . ____ . . ____ . . __
 72
    65
 73
     6
 40
1.250000
 49
0.500000
 49
-0.250000
 49
0.000000
 49
-0.250000
 49
0.000000
 49
-0.250000
  0
LTYPE
  2
DOT
 70
    64
  3
. . . . . . . . . . . . . . . . . . . . . . . . 
 72
    65
 73
     2
 40
0.250000
 49
0.000000
 49
-0.250000
  0
ENDTAB
  0
ENDSEC
  0
SECTION
  2
ENTITIES
  0
LINE
  8
PARTS
 62
     7
  6
CONTINUOUS
 10
5.359978
 20
12.174517
 30
0.000000
 11
5.709978
 21
12.174517
 31
0.000000
  0
LINE
  8
PARTS
 62
     7
  6
CONTINUOUS
 10
5.709978
 20
12.174517
 30
0.000000
 11
5.709978
 21
11.971517
 31
0.000000
  0
LINE
  8
PARTS
 62
     7
  6
CONTINUOUS
 10
5.709978
 20
11.971517
 30
0.000000
 11
6.647978
 21
11.971517
 31
0.000000
  0
LINE
  8
PARTS
 62
     7
  6
CONTINUOUS
 10
6.647978
 20
2.127517
 30
0.000000
 11
5.709978
 21
2.127517
 31
0.000000
  0
LINE
  8
PARTS
 62
     7
  6
CONTINUOUS
 10
5.359978
 20
1.924517
 30
0.000000
 11
5.709978
 21
1.924517
 31
0.000000
  0
LINE
  8
PARTS
 62
     7
  6
CONTINUOUS
 10
5.709978
 20
2.127517
 30
0.000000
 11
5.709978
 21
1.924517
 31
0.000000
  0
LINE
  8
PARTS
 62
     7
  6
CONTINUOUS
 10
5.359978
 20
10.971517
 30
0.000000
 11
5.484978
 21
10.971517
 31
0.000000
  0
LINE
  8
PARTS
 62
     7
  6
CONTINUOUS
 10
5.484978
 20
3.127517
 30
0.000000
 11
5.359978
 21
3.127517
 31
0.000000
  0
POINT
  8
PARTS
 62
     7
 10
5.359978
 20
7.049517
 30
0.000000
  0
LINE
  8
PARTS
 62
     7
  6
CONTINUOUS
 10
5.484978
 20
9.534017
 30
0.000000
 11
5.859978
 21
9.534017
 31
0.000000
  0
LINE
  8
PARTS
 62
     7
  6
CONTINUOUS
 10
5.859978
 20
4.565017
 30
0.000000
 11
5.484978
 21
4.565017
 31
0.000000
  0
LINE
  8
PARTS
 62
     7
  6
CONTINUOUS
 10
6.047978
 20
8.815017
 30
0.000000
 11
6.047978
 21
5.284017
 31
0.000000
  0
LINE
  8
PARTS
 62
     7
  6
CONTINUOUS
 10
6.047978
 20
5.284017
 30
0.000000
 11
5.859978
 21
4.565017
 31
0.000000
  0
LINE
  8
PARTS
 62
     7
  6
CONTINUOUS
 10
6.047978
 20
8.815017
 30
0.000000
 11
5.859978
 21
9.534017
 31
0.000000
  0
LINE
  8
PARTS
 62
     7
  6
CONTINUOUS
 10
6.235978
 20
8.613517
 30
0.000000
 11
6.235978
 21
5.485517
 31
0.000000
  0
LINE
  8
PARTS
 62
     7
  6
CONTINUOUS
 10
6.235978
 20
5.485517
 30
0.000000
 11
6.460978
 21
5.485517
 31
0.000000
  0
LINE
  8
PARTS
 62
     7
  6
CONTINUOUS
 10
6.235978
 20
8.613517
 30
0.000000
 11
6.460978
 21
8.613517
 31
0.000000
  0
LINE
  8
PARTS
 62
     7
  6
CONTINUOUS
 10
6.460978
 20
8.613517
 30
0.000000
 11
6.460978
 21
8.909017
 31
0.000000
  0
LINE
  8
PARTS
 62
     7
  6
CONTINUOUS
 10
6.460978
 20
5.485517
 30
0.000000
 11
6.460978
 21
5.190016
 31
0.000000
  0
POINT
  8
PARTS
 62
     7
 10
6.647978
 20
3.330517
 30
0.000000
  0
POINT
  8
PARTS
 62
     7
 10
6.647978
 20
10.768517
 30
0.000000
  0
LINE
  8
PARTS
 62
     7
  6
CONTINUOUS
 10
6.647978
 20
10.768517
 30
0.000000
 11
6.647978
 21
11.971517
 31
0.000000
  0
LINE
  8
PARTS
 62
     7
  6
CONTINUOUS
 10
6.647978
 20
3.330517
 30
0.000000
 11
6.647978
 21
2.127517
 31
0.000000
  0
LINE
  8
PARTS
 62
     7
  6
CONTINUOUS
 10
6.646614
 20
10.766740
 30
0.000000
 11
6.542966
 21
10.569359
 31
0.000000
  0
LINE
  8
PARTS
 62
     7
  6
CONTINUOUS
 10
6.542966
 20
10.569359
 30
0.000000
 11
6.443606
 21
10.317517
 31
0.000000
  0
LINE
  8
PARTS
 62
     7
  6
CONTINUOUS
 10
6.443606
 20
10.317517
 30
0.000000
 11
6.364989
 21
10.058449
 31
0.000000
  0
LINE
  8
PARTS
 62
     7
  6
CONTINUOUS
 10
6.364989
 20
10.058449
 30
0.000000
 11
6.323571
 21
9.839391
 31
0.000000
  0
LINE
  8
PARTS
 62
     7
  6
CONTINUOUS
 10
6.323571
 20
9.839391
 30
0.000000
 11
6.306864
 21
9.611444
 31
0.000000
  0
LINE
  8
PARTS
 62
     7
  6
CONTINUOUS
 10
6.306864
 20
9.611444
 30
0.000000
 11
6.307073
 21
9.329555
 31
0.000000
  0
LINE
  8
PARTS
 62
     7
  6
CONTINUOUS
 10
6.307073
 20
9.329555
 30
0.000000
 11
6.321547
 21
9.192216
 31
0.000000
  0
LINE
  8
PARTS
 62
     7
  6
CONTINUOUS
 10
6.321547
 20
9.192216
 30
0.000000
 11
6.349882
 21
9.069991
 31
0.000000
  0
LINE
  8
PARTS
 62
     7
  6
CONTINUOUS
 10
6.349882
 20
9.069991
 30
0.000000
 11
6.370251
 21
9.017526
 31
0.000000
  0
LINE
  8
PARTS
 62
     7
  6
CONTINUOUS
 10
6.370251
 20
9.017526
 30
0.000000
 11
6.395289
 21
8.972414
 31
0.000000
  0
LINE
  8
PARTS
 62
     7
  6
CONTINUOUS
 10
6.395289
 20
8.972414
 30
0.000000
 11
6.409684
 21
8.952987
 31
0.000000
  0
LINE
  8
PARTS
 62
     7
  6
CONTINUOUS
 10
6.409684
 20
8.952987
 30
0.000000
 11
6.425398
 21
8.935847
 31
0.000000
  0
LINE
  8
PARTS
 62
     7
  6
CONTINUOUS
 10
6.425398
 20
8.935847
 30
0.000000
 11
6.442479
 21
8.921140
 31
0.000000
  0
LINE
  8
PARTS
 62
     7
  6
CONTINUOUS
 10
6.442479
 20
8.921140
 30
0.000000
 11
6.460978
 21
8.909017
 31
0.000000
  0
LINE
  8
PARTS
 62
     7
  6
CONTINUOUS
 10
6.460978
 20
8.909017
 30
0.000000
 11
6.461141
 21
8.908941
 31
0.000000
  0
LINE
  8
PARTS
 62
     7
  6
CONTINUOUS
 10
6.461141
 20
8.908941
 30
0.000000
 11
6.461315
 21
8.908891
 31
0.000000
  0
LINE
  8
PARTS
 62
     7
  6
CONTINUOUS
 10
6.461315
 20
8.908891
 30
0.000000
 11
6.461498
 21
8.908865
 31
0.000000
  0
LINE
  8
PARTS
 62
     7
  6
CONTINUOUS
 10
6.461498
 20
8.908865
 30
0.000000
 11
6.461689
 21
8.908861
 31
0.000000
  0
LINE
  8
PARTS
 62
     7
  6
CONTINUOUS
 10
6.461689
 20
8.908861
 30
0.000000
 11
6.461889
 21
8.908879
 31
0.000000
  0
LINE
  8
PARTS
 62
     7
  6
CONTINUOUS
 10
6.461889
 20
8.908879
 30
0.000000
 11
6.462312
 21
8.908971
 31
0.000000
  0
LINE
  8
PARTS
 62
     7
  6
CONTINUOUS
 10
6.462312
 20
8.908971
 30
0.000000
 11
6.462759
 21
8.909131
 31
0.000000
  0
LINE
  8
PARTS
 62
     7
  6
CONTINUOUS
 10
6.462759
 20
8.909131
 30
0.000000
 11
6.463710
 21
8.909604
 31
0.000000
  0
LINE
  8
PARTS
 62
     7
  6
CONTINUOUS
 10
6.463710
 20
8.909604
 30
0.000000
 11
6.465693
 21
8.910846
 31
0.000000
  0
LINE
  8
PARTS
 62
     7
  6
CONTINUOUS
 10
6.465693
 20
8.910846
 30
0.000000
 11
6.466983
 21
8.911616
 31
0.000000
  0
LINE
  8
PARTS
 62
     7
  6
CONTINUOUS
 10
6.466983
 20
8.911616
 30
0.000000
 11
6.467566
 21
8.911886
 31
0.000000
  0
LINE
  8
PARTS
 62
     7
  6
CONTINUOUS
 10
6.467566
 20
8.911886
 30
0.000000
 11
6.467836
 21
8.911980
 31
0.000000
  0
LINE
  8
PARTS
 62
     7
  6
CONTINUOUS
 10
6.467836
 20
8.911980
 30
0.000000
 11
6.468090
 21
8.912041
 31
0.000000
  0
LINE
  8
PARTS
 62
     7
  6
CONTINUOUS
 10
6.647978
 20
3.330517
 30
0.000000
 11
6.537313
 21
3.526527
 31
0.000000
  0
LINE
  8
PARTS
 62
     7
  6
CONTINUOUS
 10
6.537313
 20
3.526527
 30
0.000000
 11
6.431356
 21
3.778814
 31
0.000000
  0
LINE
  8
PARTS
 62
     7
  6
CONTINUOUS
 10
6.431356
 20
3.778814
 30
0.000000
 11
6.347834
 21
4.039389
 31
0.000000
  0
LINE
  8
PARTS
 62
     7
  6
CONTINUOUS
 10
6.347834
 20
4.039389
 30
0.000000
 11
6.304478
 21
4.260267
 31
0.000000
  0
LINE
  8
PARTS
 62
     7
  6
CONTINUOUS
 10
6.304478
 20
4.260267
 30
0.000000
 11
6.304455
 21
4.357937
 31
0.000000
  0
LINE
  8
PARTS
 62
     7
  6
CONTINUOUS
 10
6.304455
 20
4.357937
 30
0.000000
 11
6.318185
 21
4.471431
 31
0.000000
  0
LINE
  8
PARTS
 62
     7
  6
CONTINUOUS
 10
6.318185
 20
4.471431
 30
0.000000
 11
6.370589
 21
4.724844
 31
0.000000
  0
LINE
  8
PARTS
 62
     7
  6
CONTINUOUS
 10
6.370589
 20
4.724844
 30
0.000000
 11
6.429062
 21
4.978406
 31
0.000000
  0
LINE
  8
PARTS
 62
     7
  6
CONTINUOUS
 10
6.429062
 20
4.978406
 30
0.000000
 11
6.460978
 21
5.190016
 31
0.000000
  0
LINE
  8
PARTS
 62
     7
  6
CONTINUOUS
 10
6.235978
 20
7.424517
 30
0.000000
 11
6.047978
 21
7.424517
 31
0.000000
  0
LINE
  8
PARTS
 62
     7
  6
CONTINUOUS
 10
6.235978
 20
6.674517
 30
0.000000
 11
6.047978
 21
6.674517
 31
0.000000
  0
LINE
  8
PARTS
 62
     7
  6
CONTINUOUS
 10
6.235978
 20
8.544517
 30
0.000000
 11
6.047978
 21
8.544517
 31
0.000000
  0
LINE
  8
PARTS
 62
     7
  6
CONTINUOUS
 10
6.235978
 20
8.054517
 30
0.000000
 11
6.047978
 21
8.054517
 31
0.000000
  0
LINE
  8
PLATE
 62
     7
  6
CONTINUOUS
 10
6.162978
 20
12.424517
 30
0.000000
 11
6.162978
 21
13.023841
 31
0.000000
  0
LINE
  8
PLATE
 62
     7
  6
CONTINUOUS
 10
6.162978
 20
12.424517
 30
0.000000
 11
6.756978
 21
12.424517
 31
0.000000
  0
LINE
  8
PLATE
 62
     7
  6
CONTINUOUS
 10
6.756978
 20
12.424517
 30
0.000000
 11
6.756978
 21
10.049517
 31
0.000000
  0
LINE
  8
PLATE
 62
     7
  6
CONTINUOUS
 10
6.162978
 20
1.674517
 30
0.000000
 11
6.756978
 21
1.674517
 31
0.000000
  0
LINE
  8
PLATE
 62
     7
  6
CONTINUOUS
 10
6.756978
 20
1.674517
 30
0.000000
 11
6.756978
 21
4.049517
 31
0.000000
  0
LINE
  8
PLATE
 62
     7
  6
CONTINUOUS
 10
6.162978
 20
1.674517
 30
0.000000
 11
6.162978
 21
0.937350
 31
0.000000
  0
LINE
  8
PLATE
 62
     7
  6
CONTINUOUS
 10
6.162978
 20
0.937350
 30
0.000000
 11
7.412978
 21
0.937350
 31
0.000000
  0
LINE
  8
PLATE
 62
     7
  6
CONTINUOUS
 10
7.412978
 20
2.799517
 30
0.000000
 11
7.287978
 21
2.799517
 31
0.000000
  0
LINE
  8
PLATE
 62
     7
  6
CONTINUOUS
 10
7.287978
 20
2.799517
 30
0.000000
 11
7.287978
 21
4.049517
 31
0.000000
  0
LINE
  8
PLATE
 62
     7
  6
CONTINUOUS
 10
7.412978
 20
0.937350
 30
0.000000
 11
7.412978
 21
2.799517
 31
0.000000
  0
LINE
  8
PLATE
 62
     7
  6
CONTINUOUS
 10
6.756978
 20
4.049517
 30
0.000000
 11
7.287978
 21
4.049517
 31
0.000000
  0
LINE
  8
PLATE
 62
     7
  6
CONTINUOUS
 10
6.756978
 20
4.049517
 30
0.000000
 11
6.756978
 21
5.487017
 31
0.000000
  0
LINE
  8
PLATE
 62
     7
  6
CONTINUOUS
 10
7.287978
 20
4.049517
 30
0.000000
 11
7.287978
 21
5.924517
 31
0.000000
  0
LINE
  8
PLATE
 62
     7
  6
CONTINUOUS
 10
7.412978
 20
11.299517
 30
0.000000
 11
7.287978
 21
11.299517
 31
0.000000
  0
LINE
  8
PLATE
 62
     7
  6
CONTINUOUS
 10
7.287978
 20
11.299517
 30
0.000000
 11
7.287978
 21
10.049517
 31
0.000000
  0
LINE
  8
PLATE
 62
     7
  6
CONTINUOUS
 10
6.756978
 20
10.049517
 30
0.000000
 11
7.287978
 21
10.049517
 31
0.000000
  0
LINE
  8
PLATE
 62
     7
  6
CONTINUOUS
 10
7.412978
 20
13.023841
 30
0.000000
 11
7.412978
 21
11.299517
 31
0.000000
  0
LINE
  8
PLATE
 62
     7
  6
CONTINUOUS
 10
6.162978
 20
13.023841
 30
0.000000
 11
7.412978
 21
13.023841
 31
0.000000
  0
LINE
  8
PLATE
 62
     7
  6
CONTINUOUS
 10
7.287978
 20
10.049517
 30
0.000000
 11
7.287978
 21
8.174517
 31
0.000000
  0
LINE
  8
PLATE
 62
     7
  6
CONTINUOUS
 10
6.756978
 20
10.049517
 30
0.000000
 11
6.756978
 21
8.612017
 31
0.000000
  0
POINT
  8
PLATE
 62
     7
 10
6.756978
 20
10.674517
 30
0.000000
  0
LINE
  8
PLATE
 62
     7
  6
CONTINUOUS
 10
6.756978
 20
11.143017
 30
0.000000
 11
6.756978
 21
10.206017
 31
0.000000
  0
LINE
  8
PLATE
 62
     7
  6
CONTINUOUS
 10
7.007978
 20
10.408916
 30
0.000000
 11
7.007978
 21
10.940117
 31
0.000000
  0
LINE
  8
PLATE
 62
     7
  6
CONTINUOUS
 10
6.756978
 20
11.143017
 30
0.000000
 11
7.007978
 21
10.940117
 31
0.000000
  0
LINE
  8
PLATE
 62
     7
  6
CONTINUOUS
 10
7.007978
 20
10.408916
 30
0.000000
 11
6.756978
 21
10.206017
 31
0.000000
  0
LINE
  8
PLATE
 62
     7
  6
CONTINUOUS
 10
7.007978
 20
10.408916
 30
0.000000
 11
7.287978
 21
10.408916
 31
0.000000
  0
LINE
  8
PLATE
 62
     7
  6
CONTINUOUS
 10
7.007978
 20
10.940117
 30
0.000000
 11
7.287978
 21
10.940117
 31
0.000000
  0
POINT
  8
PLATE
 62
     7
 10
7.287978
 20
7.049517
 30
0.000000
  0
POINT
  8
ADC8
 62
     7
 10
7.050978
 20
7.049517
 30
0.000000
  0
LINE
  8
ADC8
 62
     7
  6
CONTINUOUS
 10
10.639626
 20
3.049504
 30
0.000000
 11
9.014626
 21
3.049504
 31
0.000000
  0
LINE
  8
ADC8
 62
     7
  6
CONTINUOUS
 10
10.639626
 20
11.049503
 30
0.000000
 11
9.014626
 21
11.049503
 31
0.000000
  0
LINE
  8
ADC8
 62
     7
  6
CONTINUOUS
 10
9.014626
 20
11.049503
 30
0.000000
 11
9.014626
 21
3.049504
 31
0.000000
  0
POINT
  8
ADC8
 62
     7
 10
9.014626
 20
7.049504
 30
0.000000
  0
POINT
  8
ADC8
 62
     7
 10
8.420925
 20
7.049504
 30
0.000000
  0
LINE
  8
ADC8
 62
     7
  6
CONTINUOUS
 10
8.420925
 20
7.049504
 30
0.000000
 11
8.420925
 21
10.674503
 31
0.000000
  0
LINE
  8
ADC8
 62
     7
  6
CONTINUOUS
 10
8.420925
 20
10.674503
 30
0.000000
 11
8.420925
 21
3.424504
 31
0.000000
  0
LINE
  8
ADC8
 62
     7
  6
CONTINUOUS
 10
8.420925
 20
10.674503
 30
0.000000
 11
9.014626
 21
11.049503
 31
0.000000
  0
LINE
  8
ADC8
 62
     7
  6
CONTINUOUS
 10
8.420925
 20
3.424504
 30
0.000000
 11
9.014626
 21
3.049504
 31
0.000000
  0
POINT
  8
ADC8
 62
     7
 10
8.420925
 20
7.049504
 30
0.000000
  0
POINT
  8
ADC8
 62
     7
 10
8.420925
 20
7.049504
 30
0.000000
  0
POINT
  8
ADC8
 62
     7
 10
8.420792
 20
5.425244
 30
0.000000
  0
POINT
  8
ADC8
 62
     7
 10
8.420691
 20
8.674604
 30
0.000000
  0
LINE
  8
ADC8
 62
     7
  6
CONTINUOUS
 10
8.420691
 20
8.674604
 30
0.000000
 11
8.295691
 21
8.674604
 31
0.000000
  0
LINE
  8
ADC8
 62
     7
  6
CONTINUOUS
 10
8.420792
 20
5.425244
 30
0.000000
 11
8.295792
 21
5.425244
 31
0.000000
  0
LINE
  8
ADC8
 62
     7
  6
CONTINUOUS
 10
8.295792
 20
5.425244
 30
0.000000
 11
8.295792
 21
8.674604
 31
0.000000
  0
POINT
  8
ADC8
 62
     7
 10
8.420925
 20
7.049504
 30
0.000000
  0
POINT
  8
ADC8
 62
     7
 10
8.420925
 20
7.049504
 30
0.000000
  0
POINT
  8
ADC8
 62
     7
 10
7.050978
 20
7.049517
 30
0.000000
  0
LINE
  8
ADC8
 62
     7
  6
CONTINUOUS
 10
7.050978
 20
7.049517
 30
0.000000
 11
7.050978
 21
7.533867
 31
0.000000
  0
POINT
  8
ADC8
 62
     7
 10
7.050978
 20
7.049517
 30
0.000000
  0
LINE
  8
RING
 62
     7
  6
CONTINUOUS
 10
7.287978
 20
11.299517
 30
0.000000
 11
7.475478
 21
11.299517
 31
0.000000
  0
LINE
  8
RING
 62
     7
  6
CONTINUOUS
 10
7.595377
 20
11.424517
 30
0.000000
 11
7.475478
 21
11.299517
 31
0.000000
  0
LINE
  8
RING
 62
     7
  6
CONTINUOUS
 10
7.287978
 20
2.799517
 30
0.000000
 11
7.475478
 21
2.799517
 31
0.000000
  0
LINE
  8
RING
 62
     7
  6
CONTINUOUS
 10
7.595377
 20
2.674517
 30
0.000000
 11
7.475478
 21
2.799517
 31
0.000000
  0
POINT
  8
RING
 62
     7
 10
7.287980
 20
4.049430
 30
0.000000
  0
POINT
  8
RING
 62
     7
 10
7.287822
 20
10.050066
 30
0.000000
  0
LINE
  8
RING
 62
     7
  6
CONTINUOUS
 10
7.287822
 20
10.050066
 30
0.000000
 11
7.600322
 21
10.050066
 31
0.000000
  0
LINE
  8
RING
 62
     7
  6
CONTINUOUS
 10
7.287980
 20
4.049430
 30
0.000000
 11
7.600480
 21
4.049430
 31
0.000000
  0
LINE
  8
RING
 62
     7
  6
CONTINUOUS
 10
8.121687
 20
10.674267
 30
0.000000
 11
6.977319
 21
10.674267
 31
0.000000
  0
POINT
  8
RING
 62
     7
 10
7.287978
 20
3.746849
 30
0.000000
  0
POINT
  8
RING
 62
     7
 10
7.287978
 20
3.746849
 30
0.000000
  0
POINT
  8
RING
 62
     7
 10
7.287978
 20
3.746849
 30
0.000000
  0
POINT
  8
RING
 62
     7
 10
7.287978
 20
3.449957
 30
0.000000
  0
POINT
  8
RING
 62
     7
 10
7.287978
 20
4.043728
 30
0.000000
  0
LINE
  8
RING
 62
     7
  6
CONTINUOUS
 10
7.287978
 20
4.043728
 30
0.000000
 11
7.662978
 21
4.043728
 31
0.000000
  0
LINE
  8
RING
 62
     7
  6
CONTINUOUS
 10
7.287978
 20
3.449957
 30
0.000000
 11
7.662978
 21
3.449957
 31
0.000000
  0
LINE
  8
RING
 62
     7
  6
CONTINUOUS
 10
7.662978
 20
4.043728
 30
0.000000
 11
7.662978
 21
3.449957
 31
0.000000
  0
POINT
  8
RING
 62
     7
 10
7.287159
 20
10.672466
 30
0.000000
  0
POINT
  8
RING
 62
     7
 10
7.286743
 20
10.922466
 30
0.000000
  0
POINT
  8
RING
 62
     7
 10
7.287159
 20
10.672466
 30
0.000000
  0
POINT
  8
RING
 62
     7
 10
7.286631
 20
10.422467
 30
0.000000
  0
POINT
  8
RING
 62
     7
 10
7.287159
 20
10.672466
 30
0.000000
  0
POINT
  8
RING
 62
     7
 10
7.349657
 20
10.671824
 30
0.000000
  0
POINT
  8
RING
 62
     7
 10
7.349657
 20
10.671824
 30
0.000000
  0
POINT
  8
RING
 62
     7
 10
7.412148
 20
10.670765
 30
0.000000
  0
POINT
  8
RING
 62
     7
 10
7.412148
 20
10.671824
 30
0.000000
  0
POINT
  8
RING
 62
     7
 10
7.474639
 20
10.671824
 30
0.000000
  0
POINT
  8
RING
 62
     7
 10
7.537131
 20
10.671824
 30
0.000000
  0
POINT
  8
RING
 62
     7
 10
7.599622
 20
10.671824
 30
0.000000
  0
POINT
  8
RING
 62
     7
 10
7.662114
 20
10.671824
 30
0.000000
  0
POINT
  8
RING
 62
     7
 10
7.724605
 20
10.671824
 30
0.000000
  0
POINT
  8
RING
 62
     7
 10
7.787097
 20
10.671824
 30
0.000000
  0
POINT
  8
RING
 62
     7
 10
7.849588
 20
10.671824
 30
0.000000
  0
LINE
  8
RING
 62
     7
  6
CONTINUOUS
 10
7.349657
 20
10.671824
 30
0.000000
 11
7.349657
 21
10.922401
 31
0.000000
  0
LINE
  8
RING
 62
     7
  6
CONTINUOUS
 10
7.349657
 20
10.671824
 30
0.000000
 11
7.349657
 21
10.429959
 31
0.000000
  0
LINE
  8
RING
 62
     7
  6
CONTINUOUS
 10
7.412148
 20
10.671824
 30
0.000000
 11
7.412148
 21
10.882825
 31
0.000000
  0
LINE
  8
RING
 62
     7
  6
CONTINUOUS
 10
7.412148
 20
10.670765
 30
0.000000
 11
7.412148
 21
10.459764
 31
0.000000
  0
POINT
  8
RING
 62
     7
 10
7.474639
 20
10.671824
 30
0.000000
  0
POINT
  8
RING
 62
     7
 10
7.474639
 20
10.671824
 30
0.000000
  0
LINE
  8
RING
 62
     7
  6
CONTINUOUS
 10
7.474639
 20
10.671824
 30
0.000000
 11
7.474639
 21
10.922401
 31
0.000000
  0
LINE
  8
RING
 62
     7
  6
CONTINUOUS
 10
7.474639
 20
10.671824
 30
0.000000
 11
7.474639
 21
10.429959
 31
0.000000
  0
POINT
  8
RING
 62
     7
 10
7.599622
 20
10.671824
 30
0.000000
  0
POINT
  8
RING
 62
     7
 10
7.599622
 20
10.671824
 30
0.000000
  0
LINE
  8
RING
 62
     7
  6
CONTINUOUS
 10
7.599622
 20
10.671824
 30
0.000000
 11
7.599622
 21
10.922401
 31
0.000000
  0
LINE
  8
RING
 62
     7
  6
CONTINUOUS
 10
7.599622
 20
10.671824
 30
0.000000
 11
7.599622
 21
10.429959
 31
0.000000
  0
POINT
  8
RING
 62
     7
 10
7.724605
 20
10.671824
 30
0.000000
  0
POINT
  8
RING
 62
     7
 10
7.724605
 20
10.671824
 30
0.000000
  0
LINE
  8
RING
 62
     7
  6
CONTINUOUS
 10
7.724605
 20
10.671824
 30
0.000000
 11
7.724605
 21
10.922401
 31
0.000000
  0
LINE
  8
RING
 62
     7
  6
CONTINUOUS
 10
7.724605
 20
10.671824
 30
0.000000
 11
7.724605
 21
10.429959
 31
0.000000
  0
POINT
  8
RING
 62
     7
 10
7.849588
 20
10.671824
 30
0.000000
  0
POINT
  8
RING
 62
     7
 10
7.849588
 20
10.671824
 30
0.000000
  0
LINE
  8
RING
 62
     7
  6
CONTINUOUS
 10
7.849588
 20
10.671824
 30
0.000000
 11
7.849588
 21
10.922401
 31
0.000000
  0
LINE
  8
RING
 62
     7
  6
CONTINUOUS
 10
7.849588
 20
10.671824
 30
0.000000
 11
7.849588
 21
10.429959
 31
0.000000
  0
POINT
  8
RING
 62
     7
 10
7.537131
 20
10.670765
 30
0.000000
  0
POINT
  8
RING
 62
     7
 10
7.537131
 20
10.671824
 30
0.000000
  0
LINE
  8
RING
 62
     7
  6
CONTINUOUS
 10
7.537131
 20
10.671824
 30
0.000000
 11
7.537131
 21
10.882825
 31
0.000000
  0
LINE
  8
RING
 62
     7
  6
CONTINUOUS
 10
7.537131
 20
10.670765
 30
0.000000
 11
7.537131
 21
10.459764
 31
0.000000
  0
POINT
  8
RING
 62
     7
 10
7.662114
 20
10.670765
 30
0.000000
  0
POINT
  8
RING
 62
     7
 10
7.662114
 20
10.671824
 30
0.000000
  0
LINE
  8
RING
 62
     7
  6
CONTINUOUS
 10
7.662114
 20
10.671824
 30
0.000000
 11
7.662114
 21
10.882825
 31
0.000000
  0
LINE
  8
RING
 62
     7
  6
CONTINUOUS
 10
7.662114
 20
10.670765
 30
0.000000
 11
7.662114
 21
10.459764
 31
0.000000
  0
POINT
  8
RING
 62
     7
 10
7.787097
 20
10.670765
 30
0.000000
  0
POINT
  8
RING
 62
     7
 10
7.787097
 20
10.671824
 30
0.000000
  0
LINE
  8
RING
 62
     7
  6
CONTINUOUS
 10
7.787097
 20
10.671824
 30
0.000000
 11
7.787097
 21
10.882825
 31
0.000000
  0
LINE
  8
RING
 62
     7
  6
CONTINUOUS
 10
7.787097
 20
10.670765
 30
0.000000
 11
7.787097
 21
10.459764
 31
0.000000
  0
LINE
  8
RING
 62
     7
  6
CONTINUOUS
 10
7.595377
 20
11.424517
 30
0.000000
 11
8.420925
 21
11.424517
 31
0.000000
  0
LINE
  8
RING
 62
     7
  6
CONTINUOUS
 10
8.420925
 20
10.674503
 30
0.000000
 11
8.420925
 21
11.424517
 31
0.000000
  0
LINE
  8
RING
 62
     7
  6
CONTINUOUS
 10
7.286743
 20
10.922466
 30
0.000000
 11
8.420925
 21
10.922466
 31
0.000000
  0
LINE
  8
RING
 62
     7
  6
CONTINUOUS
 10
7.286631
 20
10.422467
 30
0.000000
 11
8.420925
 21
10.422467
 31
0.000000
  0
LINE
  8
RING
 62
     7
  6
CONTINUOUS
 10
7.600322
 20
10.050066
 30
0.000000
 11
7.600322
 21
8.174517
 31
0.000000
  0
POINT
  8
RING
 62
     7
 10
7.287978
 20
8.174517
 30
0.000000
  0
LINE
  8
RING
 62
     7
  6
CONTINUOUS
 10
7.287978
 20
8.174517
 30
0.000000
 11
7.287978
 21
11.299517
 31
0.000000
  0
LINE
  8
RING
 62
     7
  6
CONTINUOUS
 10
8.295792
 20
5.425244
 30
0.000000
 11
7.600480
 21
5.425244
 31
0.000000
  0
LINE
  8
RING
 62
     7
  6
CONTINUOUS
 10
8.295691
 20
8.674604
 30
0.000000
 11
7.600322
 21
8.674604
 31
0.000000
  0
LINE
  8
RING
 62
     7
  6
CONTINUOUS
 10
7.595377
 20
2.674517
 30
0.000000
 11
8.420925
 21
2.674517
 31
0.000000
  0
LINE
  8
RING
 62
     7
  6
CONTINUOUS
 10
8.420925
 20
3.424504
 30
0.000000
 11
8.420925
 21
2.674517
 31
0.000000
  0
LINE
  8
RING
 62
     7
  6
CONTINUOUS
 10
7.662978
 20
3.541910
 30
0.000000
 11
8.420925
 21
3.541910
 31
0.000000
  0
LINE
  8
RING
 62
     7
  6
CONTINUOUS
 10
7.662978
 20
3.948059
 30
0.000000
 11
8.420925
 21
3.948059
 31
0.000000
  0
LINE
  8
RING
 62
     7
  6
CONTINUOUS
 10
6.998167
 20
3.746849
 30
0.000000
 11
8.420925
 21
3.746849
 31
0.000000
  0
POINT
  8
RING
 62
     7
 10
7.287978
 20
5.924517
 30
0.000000
  0
POINT
  8
RING
 62
     7
 10
7.600480
 20
5.924517
 30
0.000000
  0
LINE
  8
RING
 62
     7
  6
CONTINUOUS
 10
7.287978
 20
5.924517
 30
0.000000
 11
7.287978
 21
2.799517
 31
0.000000
  0
LINE
  8
RING
 62
     7
  6
CONTINUOUS
 10
7.600480
 20
4.049430
 30
0.000000
 11
7.600480
 21
5.924517
 31
0.000000
  0
POINT
  8
RING
 62
     7
 10
13.612978
 20
7.049517
 30
0.000000
  0
POINT
  8
BUSHING
 62
     7
 10
13.612978
 20
7.049517
 30
0.000000
  0
POINT
  8
BUSHING
 62
     7
 10
13.612978
 20
7.049517
 30
0.000000
  0
LINE
  8
BUSHING
 62
     7
  6
CONTINUOUS
 10
13.612978
 20
7.049517
 30
0.000000
 11
13.612978
 21
6.237017
 31
0.000000
  0
POINT
  8
BUSHING
 62
     7
 10
14.738298
 20
7.752625
 30
0.000000
  0
POINT
  8
BUSHING
 62
     7
 10
14.738298
 20
7.752625
 30
0.000000
  0
POINT
  8
BUSHING
 62
     7
 10
14.738306
 20
7.752625
 30
0.000000
  0
POINT
  8
BUSHING
 62
     7
 10
14.738306
 20
7.752625
 30
0.000000
  0
POINT
  8
BUSHING
 62
     7
 10
13.611837
 20
7.753544
 30
0.000000
  0
POINT
  8
BUSHING
 62
     7
 10
13.736837
 20
7.753544
 30
0.000000
  0
POINT
  8
BUSHING
 62
     7
 10
13.861837
 20
7.753544
 30
0.000000
  0
POINT
  8
BUSHING
 62
     7
 10
13.861837
 20
7.753544
 30
0.000000
  0
LINE
  8
BUSHING
 62
     7
  6
CONTINUOUS
 10
13.736837
 20
7.753544
 30
0.000000
 11
13.736837
 21
7.808244
 31
0.000000
  0
LINE
  8
BUSHING
 62
     7
  6
CONTINUOUS
 10
13.736837
 20
7.753544
 30
0.000000
 11
13.736837
 21
7.698844
 31
0.000000
  0
LINE
  8
BUSHING
 62
     7
  6
CONTINUOUS
 10
13.861837
 20
7.753544
 30
0.000000
 11
13.861837
 21
7.839931
 31
0.000000
  0
LINE
  8
BUSHING
 62
     7
  6
CONTINUOUS
 10
13.861837
 20
7.753544
 30
0.000000
 11
13.861837
 21
7.667158
 31
0.000000
  0
POINT
  8
BUSHING
 62
     7
 10
14.111837
 20
7.753544
 30
0.000000
  0
POINT
  8
BUSHING
 62
     7
 10
13.986837
 20
7.753544
 30
0.000000
  0
POINT
  8
BUSHING
 62
     7
 10
13.986837
 20
7.753544
 30
0.000000
  0
LINE
  8
BUSHING
 62
     7
  6
CONTINUOUS
 10
13.986837
 20
7.753544
 30
0.000000
 11
13.986837
 21
7.808244
 31
0.000000
  0
LINE
  8
BUSHING
 62
     7
  6
CONTINUOUS
 10
13.986837
 20
7.753544
 30
0.000000
 11
13.986837
 21
7.698844
 31
0.000000
  0
POINT
  8
BUSHING
 62
     7
 10
14.236837
 20
7.753544
 30
0.000000
  0
LINE
  8
BUSHING
 62
     7
  6
CONTINUOUS
 10
14.236837
 20
7.753544
 30
0.000000
 11
14.236837
 21
7.808244
 31
0.000000
  0
LINE
  8
BUSHING
 62
     7
  6
CONTINUOUS
 10
14.236837
 20
7.753544
 30
0.000000
 11
14.236837
 21
7.698844
 31
0.000000
  0
POINT
  8
BUSHING
 62
     7
 10
14.486837
 20
7.753544
 30
0.000000
  0
LINE
  8
BUSHING
 62
     7
  6
CONTINUOUS
 10
14.486837
 20
7.753544
 30
0.000000
 11
14.486837
 21
7.808244
 31
0.000000
  0
LINE
  8
BUSHING
 62
     7
  6
CONTINUOUS
 10
14.486837
 20
7.753544
 30
0.000000
 11
14.486837
 21
7.698844
 31
0.000000
  0
POINT
  8
BUSHING
 62
     7
 10
14.736837
 20
7.753544
 30
0.000000
  0
LINE
  8
BUSHING
 62
     7
  6
CONTINUOUS
 10
14.736837
 20
7.753544
 30
0.000000
 11
14.736837
 21
7.808244
 31
0.000000
  0
LINE
  8
BUSHING
 62
     7
  6
CONTINUOUS
 10
14.736837
 20
7.753544
 30
0.000000
 11
14.736837
 21
7.698844
 31
0.000000
  0
POINT
  8
BUSHING
 62
     7
 10
14.111837
 20
7.753544
 30
0.000000
  0
POINT
  8
BUSHING
 62
     7
 10
14.111837
 20
7.753544
 30
0.000000
  0
LINE
  8
BUSHING
 62
     7
  6
CONTINUOUS
 10
14.111837
 20
7.753544
 30
0.000000
 11
14.111837
 21
7.839931
 31
0.000000
  0
LINE
  8
BUSHING
 62
     7
  6
CONTINUOUS
 10
14.111837
 20
7.753544
 30
0.000000
 11
14.111837
 21
7.667158
 31
0.000000
  0
POINT
  8
BUSHING
 62
     7
 10
14.361837
 20
7.753544
 30
0.000000
  0
POINT
  8
BUSHING
 62
     7
 10
14.361837
 20
7.753544
 30
0.000000
  0
LINE
  8
BUSHING
 62
     7
  6
CONTINUOUS
 10
14.361837
 20
7.753544
 30
0.000000
 11
14.361837
 21
7.839931
 31
0.000000
  0
LINE
  8
BUSHING
 62
     7
  6
CONTINUOUS
 10
14.361837
 20
7.753544
 30
0.000000
 11
14.361837
 21
7.667158
 31
0.000000
  0
POINT
  8
BUSHING
 62
     7
 10
14.611837
 20
7.753544
 30
0.000000
  0
POINT
  8
BUSHING
 62
     7
 10
14.611837
 20
7.753544
 30
0.000000
  0
LINE
  8
BUSHING
 62
     7
  6
CONTINUOUS
 10
14.611837
 20
7.753544
 30
0.000000
 11
14.611837
 21
7.839931
 31
0.000000
  0
LINE
  8
BUSHING
 62
     7
  6
CONTINUOUS
 10
14.611837
 20
7.753544
 30
0.000000
 11
14.611837
 21
7.667158
 31
0.000000
  0
POINT
  8
BUSHING
 62
     7
 10
13.612978
 20
7.049517
 30
0.000000
  0
POINT
  8
BUSHING
 62
     7
 10
14.175468
 20
7.052970
 30
0.000000
  0
LINE
  8
BUSHING
 62
     7
  6
CONTINUOUS
 10
13.612978
 20
7.862017
 30
0.000000
 11
13.612978
 21
7.049517
 31
0.000000
  0
LINE
  8
BUSHING
 62
     7
  6
CONTINUOUS
 10
13.612978
 20
7.049517
 30
0.000000
 11
14.862978
 21
7.049517
 31
0.000000
  0
LINE
  8
BUSHING
 62
     7
  6
CONTINUOUS
 10
14.862978
 20
7.049517
 30
0.000000
 11
14.862978
 21
7.987017
 31
0.000000
  0
LINE
  8
BUSHING
 62
     7
  6
CONTINUOUS
 10
14.862978
 20
7.049517
 30
0.000000
 11
14.862978
 21
6.112017
 31
0.000000
  0
LINE
  8
BUSHING
 62
     7
  6
CONTINUOUS
 10
13.612978
 20
7.612008
 30
0.000000
 11
14.862978
 21
7.612008
 31
0.000000
  0
LINE
  8
BUSHING
 62
     7
  6
CONTINUOUS
 10
13.612978
 20
7.666675
 30
0.000000
 11
14.862978
 21
7.666675
 31
0.000000
  0
LINE
  8
BUSHING
 62
     7
  6
CONTINUOUS
 10
13.615484
 20
6.487025
 30
0.000000
 11
14.862978
 21
6.487025
 31
0.000000
  0
LINE
  8
BUSHING
 62
     7
  6
CONTINUOUS
 10
13.612978
 20
6.237017
 30
0.000000
 11
14.862978
 21
6.112017
 31
0.000000
  0
LINE
  8
BUSHING
 62
     7
  6
CONTINUOUS
 10
13.612978
 20
7.862017
 30
0.000000
 11
14.862978
 21
7.987017
 31
0.000000
  0
LINE
  8
BUSHING
 62
     7
  6
CONTINUOUS
 10
13.612978
 20
7.838575
 30
0.000000
 11
14.862978
 21
7.838575
 31
0.000000
  0
LINE
  8
BUSHING
 62
     7
  6
CONTINUOUS
 10
13.611837
 20
7.753544
 30
0.000000
 11
14.862978
 21
7.753544
 31
0.000000
  0
LINE
  8
BUSHING
 62
     7
  6
CONTINUOUS
 10
13.612978
 20
8.394291
 30
0.000000
 11
13.721231
 21
8.456791
 31
0.000000
  0
LINE
  8
BUSHING
 62
     7
  6
CONTINUOUS
 10
13.612978
 20
8.394291
 30
0.000000
 11
13.721231
 21
8.331791
 31
0.000000
  0
LINE
  8
BUSHING
 62
     7
  6
CONTINUOUS
 10
14.862978
 20
8.394291
 30
0.000000
 11
14.754725
 21
8.331791
 31
0.000000
  0
LINE
  8
BUSHING
 62
     7
  6
CONTINUOUS
 10
14.862978
 20
8.394291
 30
0.000000
 11
14.754725
 21
8.456791
 31
0.000000
  0
LINE
  8
BUSHING
 62
     7
  6
CONTINUOUS
 10
13.612978
 20
7.924517
 30
0.000000
 11
13.612978
 21
8.644291
 31
0.000000
  0
LINE
  8
BUSHING
 62
     7
  6
CONTINUOUS
 10
14.862978
 20
8.049517
 30
0.000000
 11
14.862978
 21
8.644291
 31
0.000000
  0
TEXT
  8
BUSHING
 62
     7
 10
13.862543
 20
8.331719
 30
0.000000
 40
0.125000
  1
1 1/4"
  0
LINE
  8
BUSHING
 62
     7
  6
CONTINUOUS
 10
13.612978
 20
8.394291
 30
0.000000
 11
13.831292
 21
8.394291
 31
0.000000
  0
LINE
  8
BUSHING
 62
     7
  6
CONTINUOUS
 10
14.644664
 20
8.394291
 30
0.000000
 11
14.862978
 21
8.394291
 31
0.000000
  0
LINE
  8
BUSHING
 62
     7
  6
CONTINUOUS
 10
13.141880
 20
6.237017
 30
0.000000
 11
13.079380
 21
6.345270
 31
0.000000
  0
LINE
  8
BUSHING
 62
     7
  6
CONTINUOUS
 10
13.141880
 20
6.237017
 30
0.000000
 11
13.204380
 21
6.345270
 31
0.000000
  0
LINE
  8
BUSHING
 62
     7
  6
CONTINUOUS
 10
13.141880
 20
7.862017
 30
0.000000
 11
13.204380
 21
7.753764
 31
0.000000
  0
LINE
  8
BUSHING
 62
     7
  6
CONTINUOUS
 10
13.141880
 20
7.862017
 30
0.000000
 11
13.079380
 21
7.753764
 31
0.000000
  0
LINE
  8
BUSHING
 62
     7
  6
CONTINUOUS
 10
13.550478
 20
6.237017
 30
0.000000
 11
12.891880
 21
6.237017
 31
0.000000
  0
LINE
  8
BUSHING
 62
     7
  6
CONTINUOUS
 10
13.550478
 20
7.862017
 30
0.000000
 11
12.891880
 21
7.862017
 31
0.000000
  0
TEXT
  8
BUSHING
 62
     7
 10
12.763732
 20
7.210619
 30
0.000000
 40
0.125000
  1
1 5/8"
  0
LINE
  8
BUSHING
 62
     7
  6
CONTINUOUS
 10
13.141880
 20
6.237017
 30
0.000000
 11
13.141880
 21
7.179370
 31
0.000000
  0
LINE
  8
BUSHING
 62
     7
  6
CONTINUOUS
 10
13.141880
 20
7.367919
 30
0.000000
 11
13.141880
 21
7.862017
 31
0.000000
  0
LINE
  8
BUSHING
 62
     7
  6
CONTINUOUS
 10
15.310534
 20
6.487025
 30
0.000000
 11
15.248034
 21
6.595278
 31
0.000000
  0
LINE
  8
BUSHING
 62
     7
  6
CONTINUOUS
 10
15.310534
 20
6.487025
 30
0.000000
 11
15.373034
 21
6.595278
 31
0.000000
  0
LINE
  8
BUSHING
 62
     7
  6
CONTINUOUS
 10
15.310534
 20
7.612008
 30
0.000000
 11
15.373034
 21
7.503755
 31
0.000000
  0
LINE
  8
BUSHING
 62
     7
  6
CONTINUOUS
 10
15.310534
 20
7.612008
 30
0.000000
 11
15.248034
 21
7.503755
 31
0.000000
  0
LINE
  8
BUSHING
 62
     7
  6
CONTINUOUS
 10
14.925478
 20
6.487025
 30
0.000000
 11
15.560534
 21
6.487025
 31
0.000000
  0
LINE
  8
BUSHING
 62
     7
  6
CONTINUOUS
 10
14.925478
 20
7.612008
 30
0.000000
 11
15.560534
 21
7.612008
 31
0.000000
  0
TEXT
  8
BUSHING
 62
     7
 10
14.933085
 20
6.837188
 30
0.000000
 40
0.125000
  1
1 1/8"
  0
LINE
  8
BUSHING
 62
     7
  6
CONTINUOUS
 10
15.310534
 20
6.487025
 30
0.000000
 11
15.310534
 21
6.805937
 31
0.000000
  0
LINE
  8
BUSHING
 62
     7
  6
CONTINUOUS
 10
15.310534
 20
6.994254
 30
0.000000
 11
15.310534
 21
7.612008
 31
0.000000
  0
LINE
  8
BUSHING
 62
     7
  6
CONTINUOUS
 10
15.905592
 20
6.112017
 30
0.000000
 11
15.843092
 21
6.220270
 31
0.000000
  0
LINE
  8
BUSHING
 62
     7
  6
CONTINUOUS
 10
15.905592
 20
6.112017
 30
0.000000
 11
15.968092
 21
6.220270
 31
0.000000
  0
LINE
  8
BUSHING
 62
     7
  6
CONTINUOUS
 10
15.905592
 20
7.987017
 30
0.000000
 11
15.968092
 21
7.878764
 31
0.000000
  0
LINE
  8
BUSHING
 62
     7
  6
CONTINUOUS
 10
15.905592
 20
7.987017
 30
0.000000
 11
15.843092
 21
7.878764
 31
0.000000
  0
LINE
  8
BUSHING
 62
     7
  6
CONTINUOUS
 10
14.925478
 20
6.112017
 30
0.000000
 11
16.155592
 21
6.112017
 31
0.000000
  0
LINE
  8
BUSHING
 62
     7
  6
CONTINUOUS
 10
14.925478
 20
7.987017
 30
0.000000
 11
16.155592
 21
7.987017
 31
0.000000
  0
TEXT
  8
BUSHING
 62
     7
 10
15.528144
 20
7.173381
 30
0.000000
 40
0.125000
  1
1 7/8"
  0
LINE
  8
BUSHING
 62
     7
  6
CONTINUOUS
 10
15.905592
 20
6.112017
 30
0.000000
 11
15.905592
 21
7.142131
 31
0.000000
  0
LINE
  8
BUSHING
 62
     7
  6
CONTINUOUS
 10
15.905592
 20
7.330448
 30
0.000000
 11
15.905592
 21
7.987017
 31
0.000000
  0
LINE
  8
BUSHING
 62
     7
  6
CONTINUOUS
 10
13.842726
 20
6.209030
 30
0.000000
 11
13.956288
 21
6.156793
 31
0.000000
  0
LINE
  8
BUSHING
 62
     7
  6
CONTINUOUS
 10
13.842726
 20
6.209030
 30
0.000000
 11
13.854268
 21
6.084564
 31
0.000000
  0
LINE
  8
BUSHING
 62
     7
  6
CONTINUOUS
 10
13.842726
 20
6.209030
 30
0.000000
 11
14.345219
 21
5.499287
 31
0.000000
  0
LINE
  8
BUSHING
 62
     7
  6
CONTINUOUS
 10
14.345219
 20
5.499287
 30
0.000000
 11
14.470219
 21
5.499287
 31
0.000000
  0
TEXT
  8
BUSHING
 62
     7
 10
14.532718
 20
5.436787
 30
0.000000
 40
0.125000
  1
2.500TPF
  0
CIRCLE
  8
HUB
 62
     7
  6
CONTINUOUS
 10
2.859978
 20
7.049517
 30
0.000000
 40
1.250000
  0
CIRCLE
  8
HUB
 62
     7
  6
CONTINUOUS
 10
2.859978
 20
7.049517
 30
0.000000
 40
0.375000
  0
CIRCLE
  8
HUB
 62
     7
  6
CONTINUOUS
 10
2.859978
 20
7.049517
 30
0.000000
 40
0.703000
  0
CIRCLE
  8
HUB
 62
     7
  6
CONTINUOUS
 10
3.562978
 20
7.049517
 30
0.000000
 40
0.101551
  0
CIRCLE
  8
HUB
 62
     7
  6
CONTINUOUS
 10
3.562978
 20
7.049517
 30
0.000000
 40
0.164000
  0
CIRCLE
  8
HUB
 62
     7
  6
CONTINUOUS
 10
3.211478
 20
7.658333
 30
0.000000
 40
0.101551
  0
CIRCLE
  8
HUB
 62
     7
  6
CONTINUOUS
 10
3.211478
 20
7.658333
 30
0.000000
 40
0.163999
  0
CIRCLE
  8
HUB
 62
     7
  6
CONTINUOUS
 10
2.508478
 20
7.658333
 30
0.000000
 40
0.101551
  0
CIRCLE
  8
HUB
 62
     7
  6
CONTINUOUS
 10
2.508478
 20
7.658333
 30
0.000000
 40
0.163999
  0
CIRCLE
  8
HUB
 62
     7
  6
CONTINUOUS
 10
2.156978
 20
7.049518
 30
0.000000
 40
0.101551
  0
CIRCLE
  8
HUB
 62
     7
  6
CONTINUOUS
 10
2.156978
 20
7.049518
 30
0.000000
 40
0.164000
  0
CIRCLE
  8
HUB
 62
     7
  6
CONTINUOUS
 10
2.508477
 20
6.440701
 30
0.000000
 40
0.101551
  0
CIRCLE
  8
HUB
 62
     7
  6
CONTINUOUS
 10
2.508477
 20
6.440701
 30
0.000000
 40
0.164000
  0
CIRCLE
  8
HUB
 62
     7
  6
CONTINUOUS
 10
3.211477
 20
6.440701
 30
0.000000
 40
0.101551
  0
CIRCLE
  8
HUB
 62
     7
  6
CONTINUOUS
 10
3.211477
 20
6.440701
 30
0.000000
 40
0.163999
  0
CIRCLE
  8
HUB
 62
     7
  6
CONTINUOUS
 10
2.859978
 20
8.299517
 30
0.000000
 40
0.202000
  0
CIRCLE
  8
HUB
 62
     7
  6
CONTINUOUS
 10
1.777446
 20
7.674517
 30
0.000000
 40
0.202000
  0
CIRCLE
  8
HUB
 62
     7
  6
CONTINUOUS
 10
1.777446
 20
6.424517
 30
0.000000
 40
0.202000
  0
CIRCLE
  8
HUB
 62
     7
  6
CONTINUOUS
 10
2.859978
 20
5.799517
 30
0.000000
 40
0.202000
  0
CIRCLE
  8
HUB
 62
     7
  6
CONTINUOUS
 10
3.942510
 20
6.424517
 30
0.000000
 40
0.202000
  0
CIRCLE
  8
HUB
 62
     7
  6
CONTINUOUS
 10
3.942510
 20
7.674517
 30
0.000000
 40
0.202000
  0
ARC
  8
PLATE
 62
     7
  6
CONTINUOUS
 10
2.859977
 20
7.049516
 30
0.000000
 40
3.000001
 50
42.791782
 51
139.730185
  0
ARC
  8
PLATE
 62
     7
  6
CONTINUOUS
 10
2.859978
 20
7.049514
 30
0.000000
 40
3.625003
 50
53.932660
 51
125.758316
  0
ARC
  8
PLATE
 62
     7
  6
CONTINUOUS
 10
2.859977
 20
7.049516
 30
0.000000
 40
3.624999
 50
235.094509
 51
306.691897
  0
POINT
  8
PLATE
 62
     7
 10
2.859977
 20
10.674517
 30
0.000000
  0
LINE
  8
PLATE
 62
     7
  6
CONTINUOUS
 10
2.859978
 20
11.458184
 30
0.000000
 11
2.859978
 21
9.709386
 31
0.000000
  0
POINT
  8
PLATE
 62
     7
 10
2.859978
 20
3.424516
 30
0.000000
  0
LINE
  8
PLATE
 62
     7
  6
CONTINUOUS
 10
2.859978
 20
3.102814
 30
0.000000
 11
2.859978
 21
4.268680
 31
0.000000
  0
POINT
  8
PLATE
 62
     7
 10
2.859978
 20
7.049517
 30
0.000000
  0
POINT
  8
PLATE
 62
     7
 10
2.859978
 20
7.049517
 30
0.000000
  0
POINT
  8
PLATE
 62
     7
 10
2.859978
 20
7.049517
 30
0.000000
  0
ARC
  8
PLATE
 62
     7
  6
CONTINUOUS
 10
2.859978
 20
7.049517
 30
0.000000
 40
4.250000
 50
234.208583
 51
302.358131
  0
POINT
  8
PLATE
 62
     7
 10
2.859977
 20
10.674517
 30
0.000000
  0
CIRCLE
  8
PLATE
 62
     7
  6
CONTINUOUS
 10
2.859977
 20
10.674517
 30
0.000000
 40
0.468500
  0
CIRCLE
  8
PLATE
 62
     7
  6
CONTINUOUS
 10
2.859977
 20
10.674517
 30
0.000000
 40
0.265600
  0
POINT
  8
PLATE
 62
     7
 10
2.859978
 20
3.424516
 30
0.000000
  0
CIRCLE
  8
PLATE
 62
     7
  6
CONTINUOUS
 10
2.859978
 20
3.424516
 30
0.000000
 40
0.468501
  0
CIRCLE
  8
PLATE
 62
     7
  6
CONTINUOUS
 10
2.859978
 20
3.424516
 30
0.000000
 40
0.265601
  0
ARC
  8
PLATE
 62
     7
  6
CONTINUOUS
 10
2.859978
 20
7.049519
 30
0.000000
 40
5.374998
 50
65.178948
 51
120.445550
  0
ARC
  8
PLATE
 62
     7
  6
CONTINUOUS
 10
2.859978
 20
7.049517
 30
0.000000
 40
5.374999
 50
240.782939
 51
296.123836
  0
TEXT
  8
DIEM
 62
     7
 10
3.507873
 20
4.619847
 30
0.000000
 40
0.125000
  1
BOLT CIRCLE
  0
ARC
  8
PLATE
 62
     7
  6
CONTINUOUS
 10
2.859978
 20
7.049517
 30
0.000000
 40
3.000001
 50
222.592534
 51
303.298201
  0
LINE
  8
DIEM
 62
     7
  6
CONTINUOUS
 10
2.859978
 20
8.948132
 30
0.000000
 11
2.643471
 21
8.823132
 31
0.000000
  0
LINE
  8
DIEM
 62
     7
  6
CONTINUOUS
 10
2.859978
 20
8.948132
 30
0.000000
 11
2.643471
 21
9.073132
 31
0.000000
  0
LINE
  8
DIEM
 62
     7
  6
CONTINUOUS
 10
1.215729
 20
7.998824
 30
0.000000
 11
1.215729
 21
8.248824
 31
0.000000
  0
LINE
  8
DIEM
 62
     7
  6
CONTINUOUS
 10
1.215729
 20
7.998824
 30
0.000000
 11
1.432235
 21
8.123824
 31
0.000000
  0
LINE
  8
DIEM
 62
     7
  6
CONTINUOUS
 10
2.859978
 20
8.362017
 30
0.000000
 11
2.859978
 21
9.198132
 31
0.000000
  0
LINE
  8
DIEM
 62
     7
  6
CONTINUOUS
 10
1.723319
 20
7.705767
 30
0.000000
 11
0.999223
 21
8.123824
 31
0.000000
  0
TEXT
  8
DIEM
 62
     7
 10
1.744610
 20
8.631041
 30
0.000000
 40
0.125000
  1
60¦
  0
ARC
  8
DIEM
 62
     7
  6
CONTINUOUS
 10
2.859978
 20
7.049517
 30
0.000000
 40
1.898615
 50
90.000000
 51
113.720056
  0
ARC
  8
DIEM
 62
     7
  6
CONTINUOUS
 10
2.859978
 20
7.049517
 30
0.000000
 40
1.898615
 50
125.261177
 51
150.000001
  0
LINE
  8
DIEM
 62
     7
  6
CONTINUOUS
 10
0.983628
 20
7.049518
 30
0.000000
 11
1.108628
 21
6.833012
 31
0.000000
  0
LINE
  8
DIEM
 62
     7
  6
CONTINUOUS
 10
0.983628
 20
7.049518
 30
0.000000
 11
0.858628
 21
6.833012
 31
0.000000
  0
LINE
  8
DIEM
 62
     7
  6
CONTINUOUS
 10
1.921801
 20
5.424552
 30
0.000000
 11
1.671801
 21
5.424552
 31
0.000000
  0
LINE
  8
DIEM
 62
     7
  6
CONTINUOUS
 10
1.921801
 20
5.424552
 30
0.000000
 11
1.796801
 21
5.641058
 31
0.000000
  0
LINE
  8
DIEM
 62
     7
  6
CONTINUOUS
 10
2.094478
 20
7.049518
 30
0.000000
 11
0.733628
 21
7.049519
 31
0.000000
  0
LINE
  8
DIEM
 62
     7
  6
CONTINUOUS
 10
2.477227
 20
6.386575
 30
0.000000
 11
1.796801
 21
5.208046
 31
0.000000
  0
TEXT
  8
DIEM
 62
     7
 10
1.068950
 20
6.048619
 30
0.000000
 40
0.125000
  1
60¦
  0
ARC
  8
DIEM
 62
     7
  6
CONTINUOUS
 10
2.859978
 20
7.049517
 30
0.000000
 40
1.876350
 50
179.999961
 51
206.738253
  0
ARC
  8
DIEM
 62
     7
  6
CONTINUOUS
 10
2.859978
 20
7.049517
 30
0.000000
 40
1.876350
 50
213.372700
 51
239.999923
  0
LINE
  8
DIEM
 62
     7
  6
CONTINUOUS
 10
3.988465
 20
5.950850
 30
0.000000
 11
4.050965
 21
5.950850
 31
0.000000
  0
LINE
  8
DIEM
 62
     7
  6
CONTINUOUS
 10
3.363684
 20
6.559120
 30
0.000000
 11
3.121358
 21
6.620586
 31
0.000000
  0
LINE
  8
DIEM
 62
     7
  6
CONTINUOUS
 10
3.363684
 20
6.559120
 30
0.000000
 11
3.295753
 21
6.799714
 31
0.000000
  0
LINE
  8
DIEM
 62
     7
  6
CONTINUOUS
 10
2.356271
 20
7.539913
 30
0.000000
 11
2.598597
 21
7.478447
 31
0.000000
  0
LINE
  8
DIEM
 62
     7
  6
CONTINUOUS
 10
2.356271
 20
7.539913
 30
0.000000
 11
2.424203
 21
7.299320
 31
0.000000
  0
TEXT
  8
DIEM
 62
     7
 10
4.082215
 20
5.888263
 30
0.000000
 40
0.125000
  1
1 13/32"
  0
LINE
  8
DIEM
 62
     7
  6
CONTINUOUS
 10
2.356271
 20
7.539913
 30
0.000000
 11
3.988465
 21
5.950850
 31
0.000000
  0
TEXT
  8
DIEM
 62
     7
 10
4.111507
 20
5.697601
 30
0.000000
 40
0.125000
  1
BOLT CIRCLE
  0
LINE
  8
PARTS
 62
     7
  6
CONTINUOUS
 10
5.359978
 20
5.904804
 30
0.000000
 11
5.359978
 21
12.174517
 31
0.000000
  0
LINE
  8
PARTS
 62
     7
  6
CONTINUOUS
 10
5.359978
 20
5.617022
 30
0.000000
 11
5.359978
 21
1.924517
 31
0.000000
  0
LINE
  8
PARTS
 62
     7
  6
CONTINUOUS
 10
5.484978
 20
5.904804
 30
0.000000
 11
5.484978
 21
10.971517
 31
0.000000
  0
LINE
  8
PARTS
 62
     7
  6
CONTINUOUS
 10
5.484978
 20
5.605511
 30
0.000000
 11
5.484978
 21
3.127517
 31
0.000000
  0
LINE
  8
DIEM
 62
     7
  6
CONTINUOUS
 10
4.066765
 20
8.379732
 30
0.000000
 11
4.129265
 21
8.379732
 31
0.000000
  0
LINE
  8
DIEM
 62
     7
  6
CONTINUOUS
 10
3.111944
 20
7.327254
 30
0.000000
 11
3.059050
 21
7.082913
 31
0.000000
  0
LINE
  8
DIEM
 62
     7
  6
CONTINUOUS
 10
3.111944
 20
7.327254
 30
0.000000
 11
2.873892
 21
7.250891
 31
0.000000
  0
LINE
  8
DIEM
 62
     7
  6
CONTINUOUS
 10
2.608011
 20
6.771780
 30
0.000000
 11
2.660905
 21
7.016120
 31
0.000000
  0
LINE
  8
DIEM
 62
     7
  6
CONTINUOUS
 10
2.608011
 20
6.771780
 30
0.000000
 11
2.846063
 21
6.848142
 31
0.000000
  0
TEXT
  8
DIEM
 62
     7
 10
4.160515
 20
8.317159
 30
0.000000
 40
0.125000
  1
3/4"
  0
LINE
  8
DIEM
 62
     7
  6
CONTINUOUS
 10
2.608011
 20
6.771780
 30
0.000000
 11
4.066765
 21
8.379732
 31
0.000000
  0
LINE
  8
DIEM
 62
     7
  6
CONTINUOUS
 10
3.298658
 20
6.301793
 30
0.000000
 11
3.447195
 21
6.100704
 31
0.000000
  0
LINE
  8
DIEM
 62
     7
  6
CONTINUOUS
 10
3.298658
 20
6.301793
 30
0.000000
 11
3.198779
 21
6.072612
 31
0.000000
  0
LINE
  8
DIEM
 62
     7
  6
CONTINUOUS
 10
3.298658
 20
6.301793
 30
0.000000
 11
3.395623
 21
5.444353
 31
0.000000
  0
LINE
  8
DIEM
 62
     7
  6
CONTINUOUS
 10
3.395623
 20
5.444353
 30
0.000000
 11
3.895623
 21
5.444353
 31
0.000000
  0
TEXT
  8
DIEM
 62
     7
 10
3.958123
 20
5.381852
 30
0.000000
 40
0.125000
  1
SEE NOTE B
  0
LINE
  8
DIEM
 62
     7
  6
CONTINUOUS
 10
2.901783
 20
5.601891
 30
0.000000
 11
3.129303
 21
5.498283
 31
0.000000
  0
LINE
  8
DIEM
 62
     7
  6
CONTINUOUS
 10
2.901783
 20
5.601891
 30
0.000000
 11
2.925817
 21
5.353048
 31
0.000000
  0
LINE
  8
DIEM
 62
     7
  6
CONTINUOUS
 10
2.901783
 20
5.601891
 30
0.000000
 11
3.227838
 21
5.145059
 31
0.000000
  0
LINE
  8
DIEM
 62
     7
  6
CONTINUOUS
 10
3.227838
 20
5.145059
 30
0.000000
 11
3.727838
 21
5.145059
 31
0.000000
  0
TEXT
  8
DIEM
 62
     7
 10
3.790338
 20
5.082559
 30
0.000000
 40
0.125000
  1
SEE NOTE C
  0
ARC
  8
PLATE
 62
     7
  6
CONTINUOUS
 10
2.859986
 20
7.049526
 30
0.000000
 40
4.249988
 50
56.445340
 51
64.153769
  0
ARC
  8
PLATE
 62
     7
  6
CONTINUOUS
 10
2.859978
 20
7.049514
 30
0.000000
 40
4.250002
 50
73.864035
 51
122.324689
  0
LINE
  8
DIEM
 62
     7
  6
CONTINUOUS
 10
13.612978
 20
7.741679
 30
0.000000
 11
13.402240
 21
7.876176
 31
0.000000
  0
LINE
  8
DIEM
 62
     7
  6
CONTINUOUS
 10
13.612978
 20
7.741679
 30
0.000000
 11
13.624087
 21
7.991432
 31
0.000000
  0
LINE
  8
DIEM
 62
     7
  6
CONTINUOUS
 10
13.612978
 20
7.741679
 30
0.000000
 11
13.094466
 21
8.739721
 31
0.000000
  0
LINE
  8
DIEM
 62
     7
  6
CONTINUOUS
 10
13.094466
 20
8.739721
 30
0.000000
 11
13.344466
 21
8.739721
 31
0.000000
  0
TEXT
  8
DIEM
 62
     7
 10
13.406967
 20
8.677222
 30
0.000000
 40
0.125000
  1
SEE NOTE A
  0
CIRCLE
  8
HUB
 62
     7
  6
CONTINUOUS
 10
2.859978
 20
7.049517
 30
0.000000
 40
1.575000
  0
LINE
  8
DIEM
 62
     7
  6
CONTINUOUS
 10
3.578316
 20
8.855377
 30
0.000000
 11
3.640816
 21
8.855377
 31
0.000000
  0
LINE
  8
DIEM
 62
     7
  6
CONTINUOUS
 10
3.442118
 20
8.512984
 30
0.000000
 11
3.478243
 21
8.265608
 31
0.000000
  0
LINE
  8
DIEM
 62
     7
  6
CONTINUOUS
 10
3.442118
 20
8.512984
 30
0.000000
 11
3.245947
 21
8.358011
 31
0.000000
  0
LINE
  8
DIEM
 62
     7
  6
CONTINUOUS
 10
2.277837
 20
5.586049
 30
0.000000
 11
2.241712
 21
5.833426
 31
0.000000
  0
LINE
  8
DIEM
 62
     7
  6
CONTINUOUS
 10
2.277837
 20
5.586049
 30
0.000000
 11
2.474009
 21
5.741022
 31
0.000000
  0
TEXT
  8
DIEM
 62
     7
 10
3.672066
 20
8.792547
 30
0.000000
 40
0.125000
  1
3.150"
  0
TEXT
  8
DIEM
 62
     7
 10
4.271670
 20
8.886627
 30
0.000000
 40
0.125000
  1
+.000"
  0
TEXT
  8
DIEM
 62
     7
 10
4.271670
 20
8.698467
 30
0.000000
 40
0.125000
  1
-.002"
  0
LINE
  8
DIEM
 62
     7
  6
CONTINUOUS
 10
2.277837
 20
5.586049
 30
0.000000
 11
3.578316
 21
8.855377
 31
0.000000
  0
LINE
  8
DIEM
 62
     7
  6
CONTINUOUS
 10
3.377040
 20
4.864651
 30
0.000000
 11
3.439540
 21
4.864651
 31
0.000000
  0
LINE
  8
DIEM
 62
     7
  6
CONTINUOUS
 10
3.147847
 20
5.833116
 30
0.000000
 11
2.976346
 21
6.015016
 31
0.000000
  0
LINE
  8
DIEM
 62
     7
  6
CONTINUOUS
 10
3.147847
 20
5.833116
 30
0.000000
 11
3.219626
 21
6.072589
 31
0.000000
  0
LINE
  8
DIEM
 62
     7
  6
CONTINUOUS
 10
2.572109
 20
8.265918
 30
0.000000
 11
2.743609
 21
8.084018
 31
0.000000
  0
LINE
  8
DIEM
 62
     7
  6
CONTINUOUS
 10
2.572109
 20
8.265918
 30
0.000000
 11
2.500329
 21
8.026444
 31
0.000000
  0
TEXT
  8
DIEM
 62
     7
 10
3.470790
 20
4.801844
 30
0.000000
 40
0.125000
  1
2.475"
  0
LINE
  8
DIEM
 62
     7
  6
CONTINUOUS
 10
2.572109
 20
8.265918
 30
0.000000
 11
3.377040
 21
4.864651
 31
0.000000
  0
POINT
  8
HUB
 62
     7
 10
7.873517
 20
7.049517
 30
0.000000
  0
LINE
  8
HUB
 62
     7
  6
CONTINUOUS
 10
7.873517
 20
8.612017
 30
0.000000
 11
7.873517
 21
5.487017
 31
0.000000
  0
LINE
  8
HUB
 62
     7
  6
CONTINUOUS
 10
9.873517
 20
8.174517
 30
0.000000
 11
9.873517
 21
5.924517
 31
0.000000
  0
LINE
  8
HUB
 62
     7
  6
CONTINUOUS
 10
7.873517
 20
5.487017
 30
0.000000
 11
8.623517
 21
5.487017
 31
0.000000
  0
LINE
  8
HUB
 62
     7
  6
CONTINUOUS
 10
8.623517
 20
8.612017
 30
0.000000
 11
7.873517
 21
8.612017
 31
0.000000
  0
LINE
  8
HUB
 62
     7
  6
CONTINUOUS
 10
9.873517
 20
5.924517
 30
0.000000
 11
8.623517
 21
5.924517
 31
0.000000
  0
LINE
  8
HUB
 62
     7
  6
CONTINUOUS
 10
9.873517
 20
8.174517
 30
0.000000
 11
8.623517
 21
8.174517
 31
0.000000
  0
LINE
  8
HUB
 62
     7
  6
CONTINUOUS
 10
8.623517
 20
5.924517
 30
0.000000
 11
8.623517
 21
5.487017
 31
0.000000
  0
LINE
  8
HUB
 62
     7
  6
CONTINUOUS
 10
8.623517
 20
8.174517
 30
0.000000
 11
8.623517
 21
8.612017
 31
0.000000
  0
LINE
  8
HUB
 62
     7
  6
CONTINUOUS
 10
8.498517
 20
6.249516
 30
0.000000
 11
9.873517
 21
6.112017
 31
0.000000
  0
LINE
  8
HUB
 62
     7
  6
CONTINUOUS
 10
7.873517
 20
7.424517
 30
0.000000
 11
8.498517
 21
7.424517
 31
0.000000
  0
LINE
  8
HUB
 62
     7
  6
CONTINUOUS
 10
7.873517
 20
6.674517
 30
0.000000
 11
8.498517
 21
6.674517
 31
0.000000
  0
LINE
  8
HUB
 62
     7
  6
CONTINUOUS
 10
7.873517
 20
8.536016
 30
0.000000
 11
8.561017
 21
8.536016
 31
0.000000
  0
LINE
  8
HUB
 62
     7
  6
CONTINUOUS
 10
7.873517
 20
8.063017
 30
0.000000
 11
8.561517
 21
8.063017
 31
0.000000
  0
LINE
  8
HUB
 62
     7
  6
CONTINUOUS
 10
8.561517
 20
8.063017
 30
0.000000
 11
8.561517
 21
8.536016
 31
0.000000
  0
LINE
  8
HUB
 62
     7
  6
CONTINUOUS
 10
8.561517
 20
8.299517
 30
0.000000
 11
7.509428
 21
8.299517
 31
0.000000
  0
POINT
  8
HUB
 62
     7
 10
8.559873
 20
7.753539
 30
0.000000
  0
POINT
  8
HUB
 62
     7
 10
7.873517
 20
7.752517
 30
0.000000
  0
POINT
  8
HUB
 62
     7
 10
8.061017
 20
7.753539
 30
0.000000
  0
POINT
  8
HUB
 62
     7
 10
8.061017
 20
7.855089
 30
0.000000
  0
POINT
  8
HUB
 62
     7
 10
8.061017
 20
7.651989
 30
0.000000
  0
LINE
  8
HUB
 62
     7
  6
CONTINUOUS
 10
8.061017
 20
7.855089
 30
0.000000
 11
8.561013
 21
7.855089
 31
0.000000
  0
LINE
  8
HUB
 62
     7
  6
CONTINUOUS
 10
8.061017
 20
7.917539
 30
0.000000
 11
8.061017
 21
7.589540
 31
0.000000
  0
LINE
  8
HUB
 62
     7
  6
CONTINUOUS
 10
7.873517
 20
7.588517
 30
0.000000
 11
8.061017
 21
7.588517
 31
0.000000
  0
LINE
  8
HUB
 62
     7
  6
CONTINUOUS
 10
7.873517
 20
7.916517
 30
0.000000
 11
8.061017
 21
7.916517
 31
0.000000
  0
POINT
  8
HUB
 62
     7
 10
8.498517
 20
7.651989
 30
0.000000
  0
LINE
  8
HUB
 62
     7
  6
CONTINUOUS
 10
8.061017
 20
7.651989
 30
0.000000
 11
8.498517
 21
7.651989
 31
0.000000
  0
LINE
  8
HUB
 62
     7
  6
CONTINUOUS
 10
8.559873
 20
7.753539
 30
0.000000
 11
7.748870
 21
7.753539
 31
0.000000
  0
LINE
  8
HUB
 62
     7
  6
CONTINUOUS
 10
9.873517
 20
7.987017
 30
0.000000
 11
8.554240
 21
7.855089
 31
0.000000
  0
LINE
  8
HUB
 62
     7
  6
CONTINUOUS
 10
8.498517
 20
6.249516
 30
0.000000
 11
8.498517
 21
7.855089
 31
0.000000
  0
POINT
  8
HUB
 62
     7
 10
7.873517
 20
8.299517
 30
0.000000
  0
POINT
  8
HUB
 62
     7
 10
7.873517
 20
8.299517
 30
0.000000
  0
POINT
  8
HUB
 62
     7
 10
7.873517
 20
8.299517
 30
0.000000
  0
POINT
  8
HUB
 62
     7
 10
7.904517
 20
8.299517
 30
0.000000
  0
POINT
  8
HUB
 62
     7
 10
7.936017
 20
8.299517
 30
0.000000
  0
POINT
  8
HUB
 62
     7
 10
7.967267
 20
8.299517
 30
0.000000
  0
POINT
  8
HUB
 62
     7
 10
7.998517
 20
8.299517
 30
0.000000
  0
LINE
  8
HUB
 62
     7
  6
CONTINUOUS
 10
7.904517
 20
8.501516
 30
0.000000
 11
7.904517
 21
8.097517
 31
0.000000
  0
LINE
  8
HUB
 62
     7
  6
CONTINUOUS
 10
7.936017
 20
8.536016
 30
0.000000
 11
7.936017
 21
8.063017
 31
0.000000
  0
LINE
  8
HUB
 62
     7
  6
CONTINUOUS
 10
7.967267
 20
8.501516
 30
0.000000
 11
7.967267
 21
8.097517
 31
0.000000
  0
LINE
  8
HUB
 62
     7
  6
CONTINUOUS
 10
8.030017
 20
8.501516
 30
0.000000
 11
8.030017
 21
8.097517
 31
0.000000
  0
LINE
  8
HUB
 62
     7
  6
CONTINUOUS
 10
8.092767
 20
8.501516
 30
0.000000
 11
8.092767
 21
8.097517
 31
0.000000
  0
LINE
  8
HUB
 62
     7
  6
CONTINUOUS
 10
8.155517
 20
8.501516
 30
0.000000
 11
8.155517
 21
8.097517
 31
0.000000
  0
LINE
  8
HUB
 62
     7
  6
CONTINUOUS
 10
8.218267
 20
8.501516
 30
0.000000
 11
8.218267
 21
8.097517
 31
0.000000
  0
LINE
  8
HUB
 62
     7
  6
CONTINUOUS
 10
8.281017
 20
8.501516
 30
0.000000
 11
8.281017
 21
8.097517
 31
0.000000
  0
LINE
  8
HUB
 62
     7
  6
CONTINUOUS
 10
8.343766
 20
8.501516
 30
0.000000
 11
8.343766
 21
8.097517
 31
0.000000
  0
LINE
  8
HUB
 62
     7
  6
CONTINUOUS
 10
8.406516
 20
8.501516
 30
0.000000
 11
8.406516
 21
8.097517
 31
0.000000
  0
LINE
  8
HUB
 62
     7
  6
CONTINUOUS
 10
7.998517
 20
8.536016
 30
0.000000
 11
7.998517
 21
8.063017
 31
0.000000
  0
LINE
  8
HUB
 62
     7
  6
CONTINUOUS
 10
8.061017
 20
8.536016
 30
0.000000
 11
8.061017
 21
8.063017
 31
0.000000
  0
LINE
  8
HUB
 62
     7
  6
CONTINUOUS
 10
8.123517
 20
8.536016
 30
0.000000
 11
8.123517
 21
8.063017
 31
0.000000
  0
LINE
  8
HUB
 62
     7
  6
CONTINUOUS
 10
8.186017
 20
8.536016
 30
0.000000
 11
8.186017
 21
8.063017
 31
0.000000
  0
LINE
  8
HUB
 62
     7
  6
CONTINUOUS
 10
8.248517
 20
8.536016
 30
0.000000
 11
8.248517
 21
8.063017
 31
0.000000
  0
LINE
  8
HUB
 62
     7
  6
CONTINUOUS
 10
8.311017
 20
8.536016
 30
0.000000
 11
8.311017
 21
8.063017
 31
0.000000
  0
LINE
  8
HUB
 62
     7
  6
CONTINUOUS
 10
8.373517
 20
8.536016
 30
0.000000
 11
8.373517
 21
8.063017
 31
0.000000
  0
LINE
  8
HUB
 62
     7
  6
CONTINUOUS
 10
8.436017
 20
8.536016
 30
0.000000
 11
8.436017
 21
8.063017
 31
0.000000
  0
LINE
  8
DIEM
 62
     7
  6
CONTINUOUS
 10
7.873517
 20
5.310983
 30
0.000000
 11
8.090024
 21
5.435983
 31
0.000000
  0
LINE
  8
DIEM
 62
     7
  6
CONTINUOUS
 10
7.873517
 20
5.310983
 30
0.000000
 11
8.090024
 21
5.185983
 31
0.000000
  0
LINE
  8
DIEM
 62
     7
  6
CONTINUOUS
 10
8.623517
 20
5.310983
 30
0.000000
 11
8.407011
 21
5.185983
 31
0.000000
  0
LINE
  8
DIEM
 62
     7
  6
CONTINUOUS
 10
8.623517
 20
5.310983
 30
0.000000
 11
8.407011
 21
5.435983
 31
0.000000
  0
LINE
  8
DIEM
 62
     7
  6
CONTINUOUS
 10
7.873517
 20
5.424517
 30
0.000000
 11
7.873517
 21
5.060983
 31
0.000000
  0
LINE
  8
DIEM
 62
     7
  6
CONTINUOUS
 10
8.623517
 20
5.424517
 30
0.000000
 11
8.623517
 21
5.060983
 31
0.000000
  0
TEXT
  8
DIEM
 62
     7
 10
8.023038
 20
5.248411
 30
0.000000
 40
0.125000
  1
3/4"
  0
LINE
  8
DIEM
 62
     7
  6
CONTINUOUS
 10
7.873517
 20
5.310983
 30
0.000000
 11
7.991789
 21
5.310983
 31
0.000000
  0
LINE
  8
DIEM
 62
     7
  6
CONTINUOUS
 10
8.505246
 20
5.310983
 30
0.000000
 11
8.623517
 21
5.310983
 31
0.000000
  0
LINE
  8
DIEM
 62
     7
  6
CONTINUOUS
 10
8.623517
 20
5.310983
 30
0.000000
 11
8.840024
 21
5.435983
 31
0.000000
  0
LINE
  8
DIEM
 62
     7
  6
CONTINUOUS
 10
8.623517
 20
5.310983
 30
0.000000
 11
8.840024
 21
5.185983
 31
0.000000
  0
LINE
  8
DIEM
 62
     7
  6
CONTINUOUS
 10
9.873517
 20
5.310983
 30
0.000000
 11
9.657011
 21
5.185983
 31
0.000000
  0
LINE
  8
DIEM
 62
     7
  6
CONTINUOUS
 10
9.873517
 20
5.310983
 30
0.000000
 11
9.657011
 21
5.435983
 31
0.000000
  0
LINE
  8
DIEM
 62
     7
  6
CONTINUOUS
 10
8.623517
 20
5.424517
 30
0.000000
 11
8.623517
 21
5.060983
 31
0.000000
  0
LINE
  8
DIEM
 62
     7
  6
CONTINUOUS
 10
9.873517
 20
5.862017
 30
0.000000
 11
9.873517
 21
5.060983
 31
0.000000
  0
TEXT
  8
DIEM
 62
     7
 10
8.961889
 20
5.248411
 30
0.000000
 40
0.125000
  1
1 1/4"
  0
LINE
  8
DIEM
 62
     7
  6
CONTINUOUS
 10
8.623517
 20
5.310983
 30
0.000000
 11
8.930639
 21
5.310983
 31
0.000000
  0
LINE
  8
DIEM
 62
     7
  6
CONTINUOUS
 10
9.566396
 20
5.310983
 30
0.000000
 11
9.873517
 21
5.310983
 31
0.000000
  0
LINE
  8
DIEM
 62
     7
  6
CONTINUOUS
 10
7.873517
 20
4.893483
 30
0.000000
 11
8.090024
 21
5.018483
 31
0.000000
  0
LINE
  8
DIEM
 62
     7
  6
CONTINUOUS
 10
7.873517
 20
4.893483
 30
0.000000
 11
8.090024
 21
4.768483
 31
0.000000
  0
LINE
  8
DIEM
 62
     7
  6
CONTINUOUS
 10
9.873517
 20
4.893483
 30
0.000000
 11
9.657011
 21
4.768483
 31
0.000000
  0
LINE
  8
DIEM
 62
     7
  6
CONTINUOUS
 10
9.873517
 20
4.893483
 30
0.000000
 11
9.657011
 21
5.018483
 31
0.000000
  0
LINE
  8
DIEM
 62
     7
  6
CONTINUOUS
 10
7.873517
 20
5.424517
 30
0.000000
 11
7.873517
 21
4.643483
 31
0.000000
  0
LINE
  8
DIEM
 62
     7
  6
CONTINUOUS
 10
9.873517
 20
5.862017
 30
0.000000
 11
9.873517
 21
4.643483
 31
0.000000
  0
TEXT
  8
DIEM
 62
     7
 10
8.790914
 20
4.830896
 30
0.000000
 40
0.125000
  1
2"
  0
LINE
  8
DIEM
 62
     7
  6
CONTINUOUS
 10
7.873517
 20
4.893483
 30
0.000000
 11
8.759664
 21
4.893483
 31
0.000000
  0
LINE
  8
DIEM
 62
     7
  6
CONTINUOUS
 10
8.987370
 20
4.893483
 30
0.000000
 11
9.873517
 21
4.893483
 31
0.000000
  0
LINE
  8
DIEM
 62
     7
  6
CONTINUOUS
 10
8.498517
 20
6.464603
 30
0.000000
 11
8.715024
 21
6.589603
 31
0.000000
  0
LINE
  8
DIEM
 62
     7
  6
CONTINUOUS
 10
8.498517
 20
6.464603
 30
0.000000
 11
8.715024
 21
6.339603
 31
0.000000
  0
LINE
  8
DIEM
 62
     7
  6
CONTINUOUS
 10
9.873517
 20
6.464603
 30
0.000000
 11
9.657011
 21
6.339603
 31
0.000000
  0
LINE
  8
DIEM
 62
     7
  6
CONTINUOUS
 10
9.873517
 20
6.464603
 30
0.000000
 11
9.657011
 21
6.589603
 31
0.000000
  0
LINE
  8
DIEM
 62
     7
  6
CONTINUOUS
 10
8.498517
 20
6.312016
 30
0.000000
 11
8.498517
 21
6.714603
 31
0.000000
  0
LINE
  8
DIEM
 62
     7
  6
CONTINUOUS
 10
9.873517
 20
6.174517
 30
0.000000
 11
9.873517
 21
6.714603
 31
0.000000
  0
TEXT
  8
DIEM
 62
     7
 10
8.872812
 20
6.401695
 30
0.000000
 40
0.125000
  1
1 3/8"
  0
LINE
  8
DIEM
 62
     7
  6
CONTINUOUS
 10
8.498517
 20
6.464603
 30
0.000000
 11
8.841561
 21
6.464603
 31
0.000000
  0
LINE
  8
DIEM
 62
     7
  6
CONTINUOUS
 10
9.530473
 20
6.464603
 30
0.000000
 11
9.873517
 21
6.464603
 31
0.000000
  0
LINE
  8
DIEM
 62
     7
  6
CONTINUOUS
 10
8.203005
 20
6.674517
 30
0.000000
 11
8.078005
 21
6.891023
 31
0.000000
  0
LINE
  8
DIEM
 62
     7
  6
CONTINUOUS
 10
8.203005
 20
6.674517
 30
0.000000
 11
8.328005
 21
6.891023
 31
0.000000
  0
LINE
  8
DIEM
 62
     7
  6
CONTINUOUS
 10
8.203005
 20
7.424517
 30
0.000000
 11
8.328005
 21
7.208010
 31
0.000000
  0
LINE
  8
DIEM
 62
     7
  6
CONTINUOUS
 10
8.203005
 20
7.424517
 30
0.000000
 11
8.078005
 21
7.208010
 31
0.000000
  0
LINE
  8
DIEM
 62
     7
  6
CONTINUOUS
 10
8.436017
 20
6.674517
 30
0.000000
 11
7.953005
 21
6.674517
 31
0.000000
  0
LINE
  8
DIEM
 62
     7
  6
CONTINUOUS
 10
8.436017
 20
7.424517
 30
0.000000
 11
7.953005
 21
7.424517
 31
0.000000
  0
TEXT
  8
DIEM
 62
     7
 10
7.977526
 20
6.885453
 30
0.000000
 40
0.125000
  1
3/4"
  0
LINE
  8
DIEM
 62
     7
  6
CONTINUOUS
 10
8.203005
 20
6.674517
 30
0.000000
 11
8.203005
 21
6.854203
 31
0.000000
  0
LINE
  8
DIEM
 62
     7
  6
CONTINUOUS
 10
8.203005
 20
7.041848
 30
0.000000
 11
8.203005
 21
7.424517
 31
0.000000
  0
LINE
  8
DIEM
 62
     7
  6
CONTINUOUS
 10
10.252816
 20
5.924517
 30
0.000000
 11
10.127816
 21
6.141023
 31
0.000000
  0
LINE
  8
DIEM
 62
     7
  6
CONTINUOUS
 10
10.252816
 20
5.924517
 30
0.000000
 11
10.377816
 21
6.141023
 31
0.000000
  0
LINE
  8
DIEM
 62
     7
  6
CONTINUOUS
 10
10.252816
 20
8.174517
 30
0.000000
 11
10.377816
 21
7.958010
 31
0.000000
  0
LINE
  8
DIEM
 62
     7
  6
CONTINUOUS
 10
10.252816
 20
8.174517
 30
0.000000
 11
10.127816
 21
7.958010
 31
0.000000
  0
LINE
  8
DIEM
 62
     7
  6
CONTINUOUS
 10
9.936017
 20
5.924517
 30
0.000000
 11
10.502816
 21
5.924517
 31
0.000000
  0
LINE
  8
DIEM
 62
     7
  6
CONTINUOUS
 10
9.936017
 20
8.174517
 30
0.000000
 11
10.502816
 21
8.174517
 31
0.000000
  0
TEXT
  8
DIEM
 62
     7
 10
9.933877
 20
6.742609
 30
0.000000
 40
0.125000
  1
2 1/4"
  0
LINE
  8
DIEM
 62
     7
  6
CONTINUOUS
 10
10.252816
 20
5.924517
 30
0.000000
 11
10.252816
 21
6.711359
 31
0.000000
  0
LINE
  8
DIEM
 62
     7
  6
CONTINUOUS
 10
10.252816
 20
6.899033
 30
0.000000
 11
10.252816
 21
8.174517
 31
0.000000
  0
LINE
  8
DIEM
 62
     7
  6
CONTINUOUS
 10
9.425853
 20
7.942250
 30
0.000000
 11
9.617304
 21
7.781482
 31
0.000000
  0
LINE
  8
DIEM
 62
     7
  6
CONTINUOUS
 10
9.425853
 20
7.942250
 30
0.000000
 11
9.382349
 21
7.696065
 31
0.000000
  0
LINE
  8
DIEM
 62
     7
  6
CONTINUOUS
 10
9.425853
 20
7.942250
 30
0.000000
 11
10.411042
 21
5.232314
 31
0.000000
  0
LINE
  8
DIEM
 62
     7
  6
CONTINUOUS
 10
10.411042
 20
5.232314
 30
0.000000
 11
10.661042
 21
5.232314
 31
0.000000
  0
TEXT
  8
DIEM
 62
     7
 10
10.723543
 20
5.169814
 30
0.000000
 40
0.125000
  1
BORE TO SUIT BUSHING
  0
LINE
  8
DIEM
 62
     7
  6
CONTINUOUS
 10
7.195663
 20
5.474517
 30
0.000000
 11
7.070663
 21
5.691023
 31
0.000000
  0
LINE
  8
DIEM
 62
     7
  6
CONTINUOUS
 10
7.195663
 20
5.474517
 30
0.000000
 11
7.320663
 21
5.691023
 31
0.000000
  0
LINE
  8
DIEM
 62
     7
  6
CONTINUOUS
 10
7.195663
 20
8.624516
 30
0.000000
 11
7.320663
 21
8.408010
 31
0.000000
  0
LINE
  8
DIEM
 62
     7
  6
CONTINUOUS
 10
7.195663
 20
8.624516
 30
0.000000
 11
7.070663
 21
8.408010
 31
0.000000
  0
LINE
  8
DIEM
 62
     7
  6
CONTINUOUS
 10
7.811017
 20
5.474517
 30
0.000000
 11
6.945663
 21
5.474517
 31
0.000000
  0
LINE
  8
DIEM
 62
     7
  6
CONTINUOUS
 10
7.811017
 20
8.624516
 30
0.000000
 11
6.945663
 21
8.624516
 31
0.000000
  0
TEXT
  8
DIEM
 62
     7
 10
6.564785
 20
6.734566
 30
0.000000
 40
0.125000
  1
3.150"
  0
TEXT
  8
DIEM
 62
     7
 10
7.164389
 20
6.828646
 30
0.000000
 40
0.125000
  1
+.000"
  0
TEXT
  8
DIEM
 62
     7
 10
7.164389
 20
6.640485
 30
0.000000
 40
0.125000
  1
-.002"
  0
LINE
  8
DIEM
 62
     7
  6
CONTINUOUS
 10
7.195663
 20
5.474517
 30
0.000000
 11
7.195663
 21
6.609268
 31
0.000000
  0
LINE
  8
DIEM
 62
     7
  6
CONTINUOUS
 10
7.195663
 20
6.985523
 30
0.000000
 11
7.195663
 21
8.624516
 31
0.000000
  0
LINE
  8
CNTRLINE
 62
     7
  6
CONTINUOUS
 10
0.255870
 20
7.049517
 30
0.000000
 11
16.747459
 21
7.049517
 31
0.000000
  0
LINE
  8
CNTRLINE
 62
     7
  6
CONTINUOUS
 10
2.859978
 20
9.221182
 30
0.000000
 11
2.859978
 21
3.892173
 31
0.000000
  0
TEXT
  8
DIEM
 62
     7
 10
11.069338
 20
10.505237
 30
0.000000
 40
0.125000
  1
1984-1987 HONDA CIVIC TO ADVANCED DC 
  0
TEXT
  8
DIEM
 62
     7
 10
11.069338
 20
10.317736
 30
0.000000
 40
0.125000
  1
8" MOTOR WITH NON STANDARD 8" RING
  0
TEXT
  8
DIEM
 62
     7
 10
11.055495
 20
10.092057
 30
0.000000
 40
0.125000
  1
NOTE A-- TAP 10-24 x 1" DEEP
  0
TEXT
  8
DIEM
 62
     7
 10
11.055495
 20
9.904557
 30
0.000000
 40
0.125000
  1
NOTE B-- DRILL 13/64" COUNTERBORE 
  0
TEXT
  8
DIEM
 62
     7
 10
11.055495
 20
9.717057
 30
0.000000
 40
0.125000
  1
23/64" x 13/64" DEEP
  0
TEXT
  8
DIEM
 62
     7
 10
11.055495
 20
9.529557
 30
0.000000
 40
0.125000
  1
NOTE C-- DRILL WITH Y BIT 11/16" DEEP
  0
TEXT
  8
DIEM
 62
     7
 10
11.055495
 20
9.342057
 30
0.000000
 40
0.125000
  1
TAP 12 x 1.0 x 9/16" DEEP
  0
LINE
  8
CNTRLINE
 62
     7
  6
CONTINUOUS
 10
2.859978
 20
9.790325
 30
0.000000
 11
2.859978
 21
12.298256
 31
0.000000
  0
TEXT
  8
HUB
 62
     7
 10
12.456570
 20
11.502716
 30
0.000000
 40
0.125000
  1
ELECTRO AUTOMOTIVE
  0
TEXT
  8
HUB
 62
     7
 10
12.456570
 20
11.315216
 30
0.000000
 40
0.125000
  1
P.O. BOX 1113 FELTON CA. 95018-1113
  0
TEXT
  8
HUB
 62
     7
 10
12.456570
 20
11.127716
 30
0.000000
 40
0.125000
  1
PHONE 408-429-1989 FAX 408-429-1907
  0
TEXT
  8
HUB
 62
     7
 10
12.456570
 20
10.940217
 30
0.000000
 40
0.125000
  1
DRAWN BY MICHAEL P. BROWN
  0
LINE
  8
HUB
 62
     7
  6
CONTINUOUS
 10
12.323823
 20
11.740211
 30
0.000000
 11
15.890275
 21
11.740211
 31
0.000000
  0
LINE
  8
HUB
 62
     7
  6
CONTINUOUS
 10
15.890275
 20
11.740211
 30
0.000000
 11
15.890275
 21
10.840227
 31
0.000000
  0
LINE
  8
HUB
 62
     7
  6
CONTINUOUS
 10
15.890275
 20
10.840227
 30
0.000000
 11
12.323823
 21
10.840227
 31
0.000000
  0
LINE
  8
HUB
 62
     7
  6
CONTINUOUS
 10
12.323823
 20
10.840227
 30
0.000000
 11
12.323823
 21
11.740211
 31
0.000000
  0
ENDSEC
  0
EOF
