  0
SECTION
  2
HEADER
  9
$ACADVER
  1
AC1006
  0
ENDSEC
  0
SECTION
  2
TABLES
  0
TABLE
  2
LTYPE
 70
    25
  0
LTYPE
  2
CONTINUOUS
 70
    64
  3
Solid line
 72
    64
 73
     0
 40
0.000000
  0
LTYPE
  2
DASHDOT
 70
    64
  3
__ . __ . __ . __ . __ . __ . __ . __ . __ . __
 72
    65
 73
     4
 40
1.000000
 49
0.500000
 49
-0.250000
 49
0.000000
 49
-0.250000
  0
LTYPE
  2
DASHED
 70
    64
  3
__ __ __ __ __ __ __ __ __ __ __ __ __ __ __ __
 72
    65
 73
     2
 40
0.750000
 49
0.500000
 49
-0.250000
  0
LTYPE
  2
DIVIDE
 70
    64
  3
____ . . ____ . . ____ . . ____ . . ____ . . __
 72
    65
 73
     6
 40
1.250000
 49
0.500000
 49
-0.250000
 49
0.000000
 49
-0.250000
 49
0.000000
 49
-0.250000
  0
LTYPE
  2
DOT
 70
    64
  3
. . . . . . . . . . . . . . . . . . . . . . . . 
 72
    65
 73
     2
 40
0.250000
 49
0.000000
 49
-0.250000
  0
ENDTAB
  0
ENDSEC
  0
SECTION
  2
ENTITIES
  0
POINT
  8
RING
 62
     7
 10
5.881841
 20
5.602791
 30
0.000000
  0
POINT
  8
RING
 62
     7
 10
7.274958
 20
9.235309
 30
0.000000
  0
LINE
  8
RING
 62
     7
  6
CONTINUOUS
 10
7.274958
 20
9.235309
 30
0.000000
 11
5.387019
 21
9.235309
 31
0.000000
  0
POINT
  8
RING
 62
     7
 10
5.881841
 20
9.235309
 30
0.000000
  0
POINT
  8
RING
 62
     7
 10
5.881423
 20
9.485309
 30
0.000000
  0
POINT
  8
RING
 62
     7
 10
5.881841
 20
9.235309
 30
0.000000
  0
POINT
  8
RING
 62
     7
 10
5.881312
 20
8.985309
 30
0.000000
  0
LINE
  8
RING
 62
     7
  6
CONTINUOUS
 10
5.881423
 20
9.485309
 30
0.000000
 11
7.275176
 21
9.485309
 31
0.000000
  0
LINE
  8
RING
 62
     7
  6
CONTINUOUS
 10
5.881312
 20
8.985309
 30
0.000000
 11
7.274958
 21
8.985309
 31
0.000000
  0
POINT
  8
RING
 62
     7
 10
5.881841
 20
9.235309
 30
0.000000
  0
POINT
  8
RING
 62
     7
 10
5.944339
 20
9.234666
 30
0.000000
  0
POINT
  8
RING
 62
     7
 10
5.944339
 20
9.234666
 30
0.000000
  0
POINT
  8
RING
 62
     7
 10
6.006829
 20
9.233607
 30
0.000000
  0
POINT
  8
RING
 62
     7
 10
6.006829
 20
9.234666
 30
0.000000
  0
POINT
  8
RING
 62
     7
 10
6.069320
 20
9.234666
 30
0.000000
  0
POINT
  8
RING
 62
     7
 10
6.131812
 20
9.234666
 30
0.000000
  0
POINT
  8
RING
 62
     7
 10
6.194304
 20
9.234666
 30
0.000000
  0
POINT
  8
RING
 62
     7
 10
6.256795
 20
9.234666
 30
0.000000
  0
POINT
  8
RING
 62
     7
 10
6.319285
 20
9.234666
 30
0.000000
  0
POINT
  8
RING
 62
     7
 10
6.381778
 20
9.234666
 30
0.000000
  0
POINT
  8
RING
 62
     7
 10
6.444270
 20
9.234666
 30
0.000000
  0
POINT
  8
RING
 62
     7
 10
6.506760
 20
9.234666
 30
0.000000
  0
POINT
  8
RING
 62
     7
 10
6.569251
 20
9.234666
 30
0.000000
  0
POINT
  8
RING
 62
     7
 10
6.631743
 20
9.234666
 30
0.000000
  0
POINT
  8
RING
 62
     7
 10
6.694236
 20
9.234666
 30
0.000000
  0
POINT
  8
RING
 62
     7
 10
6.756726
 20
9.234666
 30
0.000000
  0
POINT
  8
RING
 62
     7
 10
6.819217
 20
9.234666
 30
0.000000
  0
POINT
  8
RING
 62
     7
 10
6.881709
 20
9.234666
 30
0.000000
  0
POINT
  8
RING
 62
     7
 10
6.944201
 20
9.234666
 30
0.000000
  0
POINT
  8
RING
 62
     7
 10
7.006692
 20
9.234666
 30
0.000000
  0
POINT
  8
RING
 62
     7
 10
7.069182
 20
9.234666
 30
0.000000
  0
POINT
  8
RING
 62
     7
 10
7.131675
 20
9.234666
 30
0.000000
  0
POINT
  8
RING
 62
     7
 10
7.194167
 20
9.234666
 30
0.000000
  0
LINE
  8
RING
 62
     7
  6
CONTINUOUS
 10
5.944339
 20
9.234666
 30
0.000000
 11
5.944339
 21
9.485244
 31
0.000000
  0
LINE
  8
RING
 62
     7
  6
CONTINUOUS
 10
5.944339
 20
9.234666
 30
0.000000
 11
5.944339
 21
8.992801
 31
0.000000
  0
LINE
  8
RING
 62
     7
  6
CONTINUOUS
 10
6.006829
 20
9.234666
 30
0.000000
 11
6.006829
 21
9.445666
 31
0.000000
  0
LINE
  8
RING
 62
     7
  6
CONTINUOUS
 10
6.006829
 20
9.233607
 30
0.000000
 11
6.006829
 21
9.022607
 31
0.000000
  0
POINT
  8
RING
 62
     7
 10
6.069320
 20
9.234666
 30
0.000000
  0
POINT
  8
RING
 62
     7
 10
6.069320
 20
9.234666
 30
0.000000
  0
LINE
  8
RING
 62
     7
  6
CONTINUOUS
 10
6.069320
 20
9.234666
 30
0.000000
 11
6.069320
 21
9.485244
 31
0.000000
  0
LINE
  8
RING
 62
     7
  6
CONTINUOUS
 10
6.069320
 20
9.234666
 30
0.000000
 11
6.069320
 21
8.992801
 31
0.000000
  0
POINT
  8
RING
 62
     7
 10
6.194304
 20
9.234666
 30
0.000000
  0
POINT
  8
RING
 62
     7
 10
6.194304
 20
9.234666
 30
0.000000
  0
LINE
  8
RING
 62
     7
  6
CONTINUOUS
 10
6.194304
 20
9.234666
 30
0.000000
 11
6.194304
 21
9.485244
 31
0.000000
  0
LINE
  8
RING
 62
     7
  6
CONTINUOUS
 10
6.194304
 20
9.234666
 30
0.000000
 11
6.194304
 21
8.992801
 31
0.000000
  0
POINT
  8
RING
 62
     7
 10
6.319285
 20
9.234666
 30
0.000000
  0
POINT
  8
RING
 62
     7
 10
6.319285
 20
9.234666
 30
0.000000
  0
LINE
  8
RING
 62
     7
  6
CONTINUOUS
 10
6.319285
 20
9.234666
 30
0.000000
 11
6.319285
 21
9.485244
 31
0.000000
  0
LINE
  8
RING
 62
     7
  6
CONTINUOUS
 10
6.319285
 20
9.234666
 30
0.000000
 11
6.319285
 21
8.992801
 31
0.000000
  0
POINT
  8
RING
 62
     7
 10
6.444270
 20
9.234666
 30
0.000000
  0
POINT
  8
RING
 62
     7
 10
6.444270
 20
9.234666
 30
0.000000
  0
LINE
  8
RING
 62
     7
  6
CONTINUOUS
 10
6.444270
 20
9.234666
 30
0.000000
 11
6.444270
 21
9.485244
 31
0.000000
  0
LINE
  8
RING
 62
     7
  6
CONTINUOUS
 10
6.444270
 20
9.234666
 30
0.000000
 11
6.444270
 21
8.992801
 31
0.000000
  0
POINT
  8
RING
 62
     7
 10
6.569251
 20
9.234666
 30
0.000000
  0
POINT
  8
RING
 62
     7
 10
6.569251
 20
9.234666
 30
0.000000
  0
LINE
  8
RING
 62
     7
  6
CONTINUOUS
 10
6.569251
 20
9.234666
 30
0.000000
 11
6.569251
 21
9.485244
 31
0.000000
  0
LINE
  8
RING
 62
     7
  6
CONTINUOUS
 10
6.569251
 20
9.234666
 30
0.000000
 11
6.569251
 21
8.992801
 31
0.000000
  0
POINT
  8
RING
 62
     7
 10
6.694236
 20
9.234666
 30
0.000000
  0
POINT
  8
RING
 62
     7
 10
6.694236
 20
9.234666
 30
0.000000
  0
LINE
  8
RING
 62
     7
  6
CONTINUOUS
 10
6.694236
 20
9.234666
 30
0.000000
 11
6.694236
 21
9.485244
 31
0.000000
  0
LINE
  8
RING
 62
     7
  6
CONTINUOUS
 10
6.694236
 20
9.234666
 30
0.000000
 11
6.694236
 21
8.992801
 31
0.000000
  0
POINT
  8
RING
 62
     7
 10
6.819217
 20
9.234666
 30
0.000000
  0
POINT
  8
RING
 62
     7
 10
6.819217
 20
9.234666
 30
0.000000
  0
LINE
  8
RING
 62
     7
  6
CONTINUOUS
 10
6.819217
 20
9.234666
 30
0.000000
 11
6.819217
 21
9.485244
 31
0.000000
  0
LINE
  8
RING
 62
     7
  6
CONTINUOUS
 10
6.819217
 20
9.234666
 30
0.000000
 11
6.819217
 21
8.992801
 31
0.000000
  0
POINT
  8
RING
 62
     7
 10
6.944201
 20
9.234666
 30
0.000000
  0
POINT
  8
RING
 62
     7
 10
6.944201
 20
9.234666
 30
0.000000
  0
LINE
  8
RING
 62
     7
  6
CONTINUOUS
 10
6.944201
 20
9.234666
 30
0.000000
 11
6.944201
 21
9.485244
 31
0.000000
  0
LINE
  8
RING
 62
     7
  6
CONTINUOUS
 10
6.944201
 20
9.234666
 30
0.000000
 11
6.944201
 21
8.992801
 31
0.000000
  0
POINT
  8
RING
 62
     7
 10
7.069182
 20
9.234666
 30
0.000000
  0
POINT
  8
RING
 62
     7
 10
7.069182
 20
9.234666
 30
0.000000
  0
LINE
  8
RING
 62
     7
  6
CONTINUOUS
 10
7.069182
 20
9.234666
 30
0.000000
 11
7.069182
 21
9.485244
 31
0.000000
  0
LINE
  8
RING
 62
     7
  6
CONTINUOUS
 10
7.069182
 20
9.234666
 30
0.000000
 11
7.069182
 21
8.992801
 31
0.000000
  0
POINT
  8
RING
 62
     7
 10
7.194167
 20
9.234666
 30
0.000000
  0
POINT
  8
RING
 62
     7
 10
7.194167
 20
9.234666
 30
0.000000
  0
LINE
  8
RING
 62
     7
  6
CONTINUOUS
 10
7.194167
 20
9.234666
 30
0.000000
 11
7.194167
 21
9.485244
 31
0.000000
  0
LINE
  8
RING
 62
     7
  6
CONTINUOUS
 10
7.194167
 20
9.234666
 30
0.000000
 11
7.194167
 21
8.992801
 31
0.000000
  0
POINT
  8
RING
 62
     7
 10
6.131812
 20
9.233607
 30
0.000000
  0
POINT
  8
RING
 62
     7
 10
6.131812
 20
9.234666
 30
0.000000
  0
LINE
  8
RING
 62
     7
  6
CONTINUOUS
 10
6.131812
 20
9.234666
 30
0.000000
 11
6.131812
 21
9.445666
 31
0.000000
  0
LINE
  8
RING
 62
     7
  6
CONTINUOUS
 10
6.131812
 20
9.233607
 30
0.000000
 11
6.131812
 21
9.022607
 31
0.000000
  0
POINT
  8
RING
 62
     7
 10
6.256795
 20
9.233607
 30
0.000000
  0
POINT
  8
RING
 62
     7
 10
6.256795
 20
9.234666
 30
0.000000
  0
LINE
  8
RING
 62
     7
  6
CONTINUOUS
 10
6.256795
 20
9.234666
 30
0.000000
 11
6.256795
 21
9.445666
 31
0.000000
  0
LINE
  8
RING
 62
     7
  6
CONTINUOUS
 10
6.256795
 20
9.233607
 30
0.000000
 11
6.256795
 21
9.022607
 31
0.000000
  0
POINT
  8
RING
 62
     7
 10
6.381778
 20
9.233607
 30
0.000000
  0
POINT
  8
RING
 62
     7
 10
6.381778
 20
9.234666
 30
0.000000
  0
LINE
  8
RING
 62
     7
  6
CONTINUOUS
 10
6.381778
 20
9.234666
 30
0.000000
 11
6.381778
 21
9.445666
 31
0.000000
  0
LINE
  8
RING
 62
     7
  6
CONTINUOUS
 10
6.381778
 20
9.233607
 30
0.000000
 11
6.381778
 21
9.022607
 31
0.000000
  0
POINT
  8
RING
 62
     7
 10
6.506760
 20
9.233607
 30
0.000000
  0
POINT
  8
RING
 62
     7
 10
6.506760
 20
9.234666
 30
0.000000
  0
LINE
  8
RING
 62
     7
  6
CONTINUOUS
 10
6.506760
 20
9.234666
 30
0.000000
 11
6.506760
 21
9.445666
 31
0.000000
  0
LINE
  8
RING
 62
     7
  6
CONTINUOUS
 10
6.506760
 20
9.233607
 30
0.000000
 11
6.506760
 21
9.022607
 31
0.000000
  0
POINT
  8
RING
 62
     7
 10
6.631743
 20
9.233607
 30
0.000000
  0
POINT
  8
RING
 62
     7
 10
6.631743
 20
9.234666
 30
0.000000
  0
LINE
  8
RING
 62
     7
  6
CONTINUOUS
 10
6.631743
 20
9.234666
 30
0.000000
 11
6.631743
 21
9.445666
 31
0.000000
  0
LINE
  8
RING
 62
     7
  6
CONTINUOUS
 10
6.631743
 20
9.233607
 30
0.000000
 11
6.631743
 21
9.022607
 31
0.000000
  0
POINT
  8
RING
 62
     7
 10
6.756726
 20
9.233607
 30
0.000000
  0
POINT
  8
RING
 62
     7
 10
6.756726
 20
9.234666
 30
0.000000
  0
LINE
  8
RING
 62
     7
  6
CONTINUOUS
 10
6.756726
 20
9.234666
 30
0.000000
 11
6.756726
 21
9.445666
 31
0.000000
  0
LINE
  8
RING
 62
     7
  6
CONTINUOUS
 10
6.756726
 20
9.233607
 30
0.000000
 11
6.756726
 21
9.022607
 31
0.000000
  0
POINT
  8
RING
 62
     7
 10
6.881709
 20
9.233607
 30
0.000000
  0
POINT
  8
RING
 62
     7
 10
6.881709
 20
9.234666
 30
0.000000
  0
LINE
  8
RING
 62
     7
  6
CONTINUOUS
 10
6.881709
 20
9.234666
 30
0.000000
 11
6.881709
 21
9.445666
 31
0.000000
  0
LINE
  8
RING
 62
     7
  6
CONTINUOUS
 10
6.881709
 20
9.233607
 30
0.000000
 11
6.881709
 21
9.022607
 31
0.000000
  0
POINT
  8
RING
 62
     7
 10
7.006692
 20
9.233607
 30
0.000000
  0
POINT
  8
RING
 62
     7
 10
7.006692
 20
9.234666
 30
0.000000
  0
LINE
  8
RING
 62
     7
  6
CONTINUOUS
 10
7.006692
 20
9.234666
 30
0.000000
 11
7.006692
 21
9.445666
 31
0.000000
  0
LINE
  8
RING
 62
     7
  6
CONTINUOUS
 10
7.006692
 20
9.233607
 30
0.000000
 11
7.006692
 21
9.022607
 31
0.000000
  0
POINT
  8
RING
 62
     7
 10
7.131675
 20
9.233607
 30
0.000000
  0
POINT
  8
RING
 62
     7
 10
7.131675
 20
9.234666
 30
0.000000
  0
LINE
  8
RING
 62
     7
  6
CONTINUOUS
 10
7.131675
 20
9.234666
 30
0.000000
 11
7.131675
 21
9.445666
 31
0.000000
  0
LINE
  8
RING
 62
     7
  6
CONTINUOUS
 10
7.131675
 20
9.233607
 30
0.000000
 11
7.131675
 21
9.022607
 31
0.000000
  0
LINE
  8
RING
 62
     7
  6
CONTINUOUS
 10
7.271533
 20
1.410311
 30
0.000000
 11
5.650138
 21
1.410311
 31
0.000000
  0
POINT
  8
RING
 62
     7
 10
5.881841
 20
1.410311
 30
0.000000
  0
POINT
  8
RING
 62
     7
 10
5.881841
 20
1.410311
 30
0.000000
  0
POINT
  8
RING
 62
     7
 10
5.881841
 20
1.410311
 30
0.000000
  0
POINT
  8
RING
 62
     7
 10
5.881841
 20
1.410311
 30
0.000000
  0
LINE
  8
RING
 62
     7
  6
CONTINUOUS
 10
6.178712
 20
1.113317
 30
0.000000
 11
6.553712
 21
1.113317
 31
0.000000
  0
LINE
  8
RING
 62
     7
  6
CONTINUOUS
 10
6.553712
 20
1.113317
 30
0.000000
 11
6.553712
 21
1.707317
 31
0.000000
  0
LINE
  8
RING
 62
     7
  6
CONTINUOUS
 10
6.552703
 20
1.613309
 30
0.000000
 11
7.270760
 21
1.613309
 31
0.000000
  0
LINE
  8
RING
 62
     7
  6
CONTINUOUS
 10
6.552703
 20
1.207312
 30
0.000000
 11
7.270776
 21
1.207312
 31
0.000000
  0
LINE
  8
RING
 62
     7
  6
CONTINUOUS
 10
7.275176
 20
9.485309
 30
0.000000
 11
7.275176
 21
8.985309
 31
0.000000
  0
LINE
  8
RING
 62
     7
  6
CONTINUOUS
 10
5.881841
 20
1.360310
 30
0.000000
 11
6.067759
 21
1.360310
 31
0.000000
  0
LINE
  8
RING
 62
     7
  6
CONTINUOUS
 10
6.196448
 20
8.610309
 30
0.000000
 11
5.881841
 21
8.610309
 31
0.000000
  0
LINE
  8
RING
 62
     7
  6
CONTINUOUS
 10
5.881841
 20
2.610310
 30
0.000000
 11
6.196448
 21
2.610310
 31
0.000000
  0
LINE
  8
RING
 62
     7
  6
CONTINUOUS
 10
6.553712
 20
1.707317
 30
0.000000
 11
5.881841
 21
1.707317
 31
0.000000
  0
LINE
  8
RING
 62
     7
  6
CONTINUOUS
 10
6.196448
 20
8.610309
 30
0.000000
 11
6.196448
 21
2.610310
 31
0.000000
  0
LINE
  8
RING
 62
     7
  6
CONTINUOUS
 10
5.881841
 20
1.360310
 30
0.000000
 11
5.881841
 21
9.845271
 31
0.000000
  0
POINT
  8
RING
 62
     7
 10
5.881841
 20
5.602791
 30
0.000000
  0
LINE
  8
RING
 62
     7
  6
CONTINUOUS
 10
5.881841
 20
9.845271
 30
0.000000
 11
6.087838
 21
9.845271
 31
0.000000
  0
LINE
  8
RING
 62
     7
  6
CONTINUOUS
 10
6.203220
 20
10.166578
 30
0.000000
 11
6.087838
 21
9.845271
 31
0.000000
  0
LINE
  8
RING
 62
     7
  6
CONTINUOUS
 10
6.067759
 20
1.360310
 30
0.000000
 11
6.211373
 21
1.036579
 31
0.000000
  0
LINE
  8
RING
 62
     7
  6
CONTINUOUS
 10
6.196448
 20
7.610310
 30
0.000000
 11
8.611517
 21
7.610310
 31
0.000000
  0
LINE
  8
RING
 62
     7
  6
CONTINUOUS
 10
6.196448
 20
3.610310
 30
0.000000
 11
8.611517
 21
3.610310
 31
0.000000
  0
LINE
  8
CENTERLINE
 62
     7
  6
CONTINUOUS
 10
-1.766897
 20
5.602791
 30
0.000000
 11
14.533103
 21
5.602791
 31
0.000000
  0
POINT
  8
BUSHING
 62
     7
 10
11.190973
 20
5.602920
 30
0.000000
  0
POINT
  8
BUSHING
 62
     7
 10
11.190973
 20
5.602920
 30
0.000000
  0
LINE
  8
BUSHING
 62
     7
  6
CONTINUOUS
 10
11.190973
 20
5.602920
 30
0.000000
 11
11.190973
 21
4.790420
 31
0.000000
  0
POINT
  8
BUSHING
 62
     7
 10
12.316294
 20
6.306029
 30
0.000000
  0
POINT
  8
BUSHING
 62
     7
 10
12.316294
 20
6.306029
 30
0.000000
  0
POINT
  8
BUSHING
 62
     7
 10
12.316301
 20
6.306029
 30
0.000000
  0
POINT
  8
BUSHING
 62
     7
 10
12.316301
 20
6.306029
 30
0.000000
  0
POINT
  8
BUSHING
 62
     7
 10
11.189832
 20
6.306948
 30
0.000000
  0
POINT
  8
BUSHING
 62
     7
 10
11.314832
 20
6.306948
 30
0.000000
  0
POINT
  8
BUSHING
 62
     7
 10
11.439832
 20
6.306948
 30
0.000000
  0
POINT
  8
BUSHING
 62
     7
 10
11.439832
 20
6.306948
 30
0.000000
  0
LINE
  8
BUSHING
 62
     7
  6
CONTINUOUS
 10
11.314832
 20
6.306948
 30
0.000000
 11
11.314832
 21
6.361648
 31
0.000000
  0
LINE
  8
BUSHING
 62
     7
  6
CONTINUOUS
 10
11.314832
 20
6.306948
 30
0.000000
 11
11.314832
 21
6.252248
 31
0.000000
  0
LINE
  8
BUSHING
 62
     7
  6
CONTINUOUS
 10
11.439832
 20
6.306948
 30
0.000000
 11
11.439832
 21
6.393335
 31
0.000000
  0
LINE
  8
BUSHING
 62
     7
  6
CONTINUOUS
 10
11.439832
 20
6.306948
 30
0.000000
 11
11.439832
 21
6.220562
 31
0.000000
  0
POINT
  8
BUSHING
 62
     7
 10
11.689832
 20
6.306948
 30
0.000000
  0
POINT
  8
BUSHING
 62
     7
 10
11.564832
 20
6.306948
 30
0.000000
  0
POINT
  8
BUSHING
 62
     7
 10
11.564832
 20
6.306948
 30
0.000000
  0
LINE
  8
BUSHING
 62
     7
  6
CONTINUOUS
 10
11.564832
 20
6.306948
 30
0.000000
 11
11.564832
 21
6.361648
 31
0.000000
  0
LINE
  8
BUSHING
 62
     7
  6
CONTINUOUS
 10
11.564832
 20
6.306948
 30
0.000000
 11
11.564832
 21
6.252248
 31
0.000000
  0
POINT
  8
BUSHING
 62
     7
 10
11.814832
 20
6.306948
 30
0.000000
  0
LINE
  8
BUSHING
 62
     7
  6
CONTINUOUS
 10
11.814832
 20
6.306948
 30
0.000000
 11
11.814832
 21
6.361648
 31
0.000000
  0
LINE
  8
BUSHING
 62
     7
  6
CONTINUOUS
 10
11.814832
 20
6.306948
 30
0.000000
 11
11.814832
 21
6.252248
 31
0.000000
  0
POINT
  8
BUSHING
 62
     7
 10
12.064832
 20
6.306948
 30
0.000000
  0
LINE
  8
BUSHING
 62
     7
  6
CONTINUOUS
 10
12.064832
 20
6.306948
 30
0.000000
 11
12.064832
 21
6.361648
 31
0.000000
  0
LINE
  8
BUSHING
 62
     7
  6
CONTINUOUS
 10
12.064832
 20
6.306948
 30
0.000000
 11
12.064832
 21
6.252248
 31
0.000000
  0
POINT
  8
BUSHING
 62
     7
 10
12.314832
 20
6.306948
 30
0.000000
  0
LINE
  8
BUSHING
 62
     7
  6
CONTINUOUS
 10
12.314832
 20
6.306948
 30
0.000000
 11
12.314832
 21
6.361648
 31
0.000000
  0
LINE
  8
BUSHING
 62
     7
  6
CONTINUOUS
 10
12.314832
 20
6.306948
 30
0.000000
 11
12.314832
 21
6.252248
 31
0.000000
  0
POINT
  8
BUSHING
 62
     7
 10
11.689832
 20
6.306948
 30
0.000000
  0
POINT
  8
BUSHING
 62
     7
 10
11.689832
 20
6.306948
 30
0.000000
  0
LINE
  8
BUSHING
 62
     7
  6
CONTINUOUS
 10
11.689832
 20
6.306948
 30
0.000000
 11
11.689832
 21
6.393335
 31
0.000000
  0
LINE
  8
BUSHING
 62
     7
  6
CONTINUOUS
 10
11.689832
 20
6.306948
 30
0.000000
 11
11.689832
 21
6.220562
 31
0.000000
  0
POINT
  8
BUSHING
 62
     7
 10
11.939832
 20
6.306948
 30
0.000000
  0
POINT
  8
BUSHING
 62
     7
 10
11.939832
 20
6.306948
 30
0.000000
  0
LINE
  8
BUSHING
 62
     7
  6
CONTINUOUS
 10
11.939832
 20
6.306948
 30
0.000000
 11
11.939832
 21
6.393335
 31
0.000000
  0
LINE
  8
BUSHING
 62
     7
  6
CONTINUOUS
 10
11.939832
 20
6.306948
 30
0.000000
 11
11.939832
 21
6.220562
 31
0.000000
  0
POINT
  8
BUSHING
 62
     7
 10
12.189832
 20
6.306948
 30
0.000000
  0
POINT
  8
BUSHING
 62
     7
 10
12.189832
 20
6.306948
 30
0.000000
  0
LINE
  8
BUSHING
 62
     7
  6
CONTINUOUS
 10
12.189832
 20
6.306948
 30
0.000000
 11
12.189832
 21
6.393335
 31
0.000000
  0
LINE
  8
BUSHING
 62
     7
  6
CONTINUOUS
 10
12.189832
 20
6.306948
 30
0.000000
 11
12.189832
 21
6.220562
 31
0.000000
  0
POINT
  8
BUSHING
 62
     7
 10
11.190973
 20
5.602920
 30
0.000000
  0
LINE
  8
BUSHING
 62
     7
  6
CONTINUOUS
 10
11.190973
 20
6.415420
 30
0.000000
 11
11.190973
 21
5.602920
 31
0.000000
  0
LINE
  8
BUSHING
 62
     7
  6
CONTINUOUS
 10
12.440973
 20
5.602920
 30
0.000000
 11
12.440973
 21
6.540420
 31
0.000000
  0
LINE
  8
BUSHING
 62
     7
  6
CONTINUOUS
 10
12.440973
 20
5.602920
 30
0.000000
 11
12.440973
 21
4.665420
 31
0.000000
  0
LINE
  8
BUSHING
 62
     7
  6
CONTINUOUS
 10
11.190973
 20
6.165412
 30
0.000000
 11
12.440973
 21
6.165412
 31
0.000000
  0
LINE
  8
BUSHING
 62
     7
  6
CONTINUOUS
 10
11.190973
 20
6.220079
 30
0.000000
 11
12.440973
 21
6.220079
 31
0.000000
  0
LINE
  8
BUSHING
 62
     7
  6
CONTINUOUS
 10
11.193479
 20
5.040429
 30
0.000000
 11
12.440973
 21
5.040429
 31
0.000000
  0
LINE
  8
BUSHING
 62
     7
  6
CONTINUOUS
 10
11.190973
 20
4.790420
 30
0.000000
 11
12.440973
 21
4.665420
 31
0.000000
  0
LINE
  8
BUSHING
 62
     7
  6
CONTINUOUS
 10
11.190973
 20
6.415420
 30
0.000000
 11
12.440973
 21
6.540420
 31
0.000000
  0
LINE
  8
BUSHING
 62
     7
  6
CONTINUOUS
 10
11.190973
 20
6.391978
 30
0.000000
 11
12.440973
 21
6.391978
 31
0.000000
  0
LINE
  8
BUSHING
 62
     7
  6
CONTINUOUS
 10
11.189832
 20
6.306948
 30
0.000000
 11
12.440973
 21
6.306948
 31
0.000000
  0
LINE
  8
BUSHING
 62
     7
  6
CONTINUOUS
 10
11.190973
 20
6.947695
 30
0.000000
 11
11.299226
 21
7.010195
 31
0.000000
  0
LINE
  8
BUSHING
 62
     7
  6
CONTINUOUS
 10
11.190973
 20
6.947695
 30
0.000000
 11
11.299226
 21
6.885195
 31
0.000000
  0
LINE
  8
BUSHING
 62
     7
  6
CONTINUOUS
 10
12.440973
 20
6.947695
 30
0.000000
 11
12.332720
 21
6.885195
 31
0.000000
  0
LINE
  8
BUSHING
 62
     7
  6
CONTINUOUS
 10
12.440973
 20
6.947695
 30
0.000000
 11
12.332720
 21
7.010195
 31
0.000000
  0
LINE
  8
BUSHING
 62
     7
  6
CONTINUOUS
 10
11.190973
 20
6.477920
 30
0.000000
 11
11.190973
 21
7.197695
 31
0.000000
  0
LINE
  8
BUSHING
 62
     7
  6
CONTINUOUS
 10
12.440973
 20
6.602920
 30
0.000000
 11
12.440973
 21
7.197695
 31
0.000000
  0
TEXT
  8
BUSHING
 62
     7
 10
11.440537
 20
6.885122
 30
0.000000
 40
0.125000
  1
1 1/4"
  0
LINE
  8
BUSHING
 62
     7
  6
CONTINUOUS
 10
11.190973
 20
6.947695
 30
0.000000
 11
11.409287
 21
6.947695
 31
0.000000
  0
LINE
  8
BUSHING
 62
     7
  6
CONTINUOUS
 10
12.222659
 20
6.947695
 30
0.000000
 11
12.440973
 21
6.947695
 31
0.000000
  0
LINE
  8
BUSHING
 62
     7
  6
CONTINUOUS
 10
10.719875
 20
4.790420
 30
0.000000
 11
10.657375
 21
4.898673
 31
0.000000
  0
LINE
  8
BUSHING
 62
     7
  6
CONTINUOUS
 10
10.719875
 20
4.790420
 30
0.000000
 11
10.782375
 21
4.898673
 31
0.000000
  0
LINE
  8
BUSHING
 62
     7
  6
CONTINUOUS
 10
10.719875
 20
6.415420
 30
0.000000
 11
10.782375
 21
6.307167
 31
0.000000
  0
LINE
  8
BUSHING
 62
     7
  6
CONTINUOUS
 10
10.719875
 20
6.415420
 30
0.000000
 11
10.657375
 21
6.307167
 31
0.000000
  0
LINE
  8
BUSHING
 62
     7
  6
CONTINUOUS
 10
11.128473
 20
4.790420
 30
0.000000
 11
10.469875
 21
4.790420
 31
0.000000
  0
LINE
  8
BUSHING
 62
     7
  6
CONTINUOUS
 10
11.128473
 20
6.415420
 30
0.000000
 11
10.469875
 21
6.415420
 31
0.000000
  0
TEXT
  8
BUSHING
 62
     7
 10
10.341727
 20
5.764023
 30
0.000000
 40
0.125000
  1
1 5/8"
  0
LINE
  8
BUSHING
 62
     7
  6
CONTINUOUS
 10
10.719875
 20
4.790420
 30
0.000000
 11
10.719875
 21
5.732773
 31
0.000000
  0
LINE
  8
BUSHING
 62
     7
  6
CONTINUOUS
 10
10.719875
 20
5.921323
 30
0.000000
 11
10.719875
 21
6.415420
 31
0.000000
  0
LINE
  8
BUSHING
 62
     7
  6
CONTINUOUS
 10
12.888529
 20
5.040429
 30
0.000000
 11
12.826029
 21
5.148682
 31
0.000000
  0
LINE
  8
BUSHING
 62
     7
  6
CONTINUOUS
 10
12.888529
 20
5.040429
 30
0.000000
 11
12.951029
 21
5.148682
 31
0.000000
  0
LINE
  8
BUSHING
 62
     7
  6
CONTINUOUS
 10
12.888529
 20
6.165412
 30
0.000000
 11
12.951029
 21
6.057159
 31
0.000000
  0
LINE
  8
BUSHING
 62
     7
  6
CONTINUOUS
 10
12.888529
 20
6.165412
 30
0.000000
 11
12.826029
 21
6.057159
 31
0.000000
  0
LINE
  8
BUSHING
 62
     7
  6
CONTINUOUS
 10
12.503473
 20
5.040429
 30
0.000000
 11
13.138529
 21
5.040429
 31
0.000000
  0
LINE
  8
BUSHING
 62
     7
  6
CONTINUOUS
 10
12.503473
 20
6.165412
 30
0.000000
 11
13.138529
 21
6.165412
 31
0.000000
  0
TEXT
  8
BUSHING
 62
     7
 10
12.511080
 20
5.390591
 30
0.000000
 40
0.125000
  1
1 1/8"
  0
LINE
  8
BUSHING
 62
     7
  6
CONTINUOUS
 10
12.888529
 20
5.040429
 30
0.000000
 11
12.888529
 21
5.359341
 31
0.000000
  0
LINE
  8
BUSHING
 62
     7
  6
CONTINUOUS
 10
12.888529
 20
5.547657
 30
0.000000
 11
12.888529
 21
6.165412
 31
0.000000
  0
LINE
  8
BUSHING
 62
     7
  6
CONTINUOUS
 10
13.483587
 20
4.665420
 30
0.000000
 11
13.421087
 21
4.773673
 31
0.000000
  0
LINE
  8
BUSHING
 62
     7
  6
CONTINUOUS
 10
13.483587
 20
4.665420
 30
0.000000
 11
13.546087
 21
4.773673
 31
0.000000
  0
LINE
  8
BUSHING
 62
     7
  6
CONTINUOUS
 10
13.483587
 20
6.540420
 30
0.000000
 11
13.546087
 21
6.432167
 31
0.000000
  0
LINE
  8
BUSHING
 62
     7
  6
CONTINUOUS
 10
13.483587
 20
6.540420
 30
0.000000
 11
13.421087
 21
6.432167
 31
0.000000
  0
LINE
  8
BUSHING
 62
     7
  6
CONTINUOUS
 10
12.503473
 20
4.665420
 30
0.000000
 11
13.733587
 21
4.665420
 31
0.000000
  0
LINE
  8
BUSHING
 62
     7
  6
CONTINUOUS
 10
12.503473
 20
6.540420
 30
0.000000
 11
13.733587
 21
6.540420
 31
0.000000
  0
TEXT
  8
BUSHING
 62
     7
 10
13.106139
 20
5.726785
 30
0.000000
 40
0.125000
  1
1 7/8"
  0
LINE
  8
BUSHING
 62
     7
  6
CONTINUOUS
 10
13.483587
 20
4.665420
 30
0.000000
 11
13.483587
 21
5.695535
 31
0.000000
  0
LINE
  8
BUSHING
 62
     7
  6
CONTINUOUS
 10
13.483587
 20
5.883851
 30
0.000000
 11
13.483587
 21
6.540420
 31
0.000000
  0
LINE
  8
BUSHING
 62
     7
  6
CONTINUOUS
 10
11.420721
 20
4.762433
 30
0.000000
 11
11.534283
 21
4.710196
 31
0.000000
  0
LINE
  8
BUSHING
 62
     7
  6
CONTINUOUS
 10
11.420721
 20
4.762433
 30
0.000000
 11
11.432263
 21
4.637967
 31
0.000000
  0
LINE
  8
BUSHING
 62
     7
  6
CONTINUOUS
 10
11.420721
 20
4.762433
 30
0.000000
 11
11.923214
 21
4.052691
 31
0.000000
  0
LINE
  8
BUSHING
 62
     7
  6
CONTINUOUS
 10
11.923214
 20
4.052691
 30
0.000000
 11
12.048214
 21
4.052691
 31
0.000000
  0
TEXT
  8
BUSHING
 62
     7
 10
12.110713
 20
3.990191
 30
0.000000
 40
0.125000
  1
2.500TPF
  0
LINE
  8
CENTERLINE
 62
     7
  6
CONTINUOUS
 10
1.819972
 20
10.977791
 30
0.000000
 11
1.819972
 21
0.243489
 31
0.000000
  0
TEXT
  8
DIMENSIONS
 62
     7
 10
10.665766
 20
10.582148
 30
0.000000
 40
0.125000
  1
ELECTRO AUTOMOTIVE
  0
TEXT
  8
DIMENSIONS
 62
     7
 10
10.665766
 20
10.394648
 30
0.000000
 40
0.125000
  1
P.O. BOX 1113 FELTON CA. 95018-1113
  0
TEXT
  8
DIMENSIONS
 62
     7
 10
10.665766
 20
10.019648
 30
0.000000
 40
0.125000
  1
DRAWN BY MICHAEL P. BROWN
  0
LINE
  8
DIMENSIONS
 62
     7
  6
CONTINUOUS
 10
10.533020
 20
10.819643
 30
0.000000
 11
14.099471
 21
10.819643
 31
0.000000
  0
LINE
  8
DIMENSIONS
 62
     7
  6
CONTINUOUS
 10
14.099471
 20
10.819643
 30
0.000000
 11
14.099471
 21
9.919659
 31
0.000000
  0
LINE
  8
DIMENSIONS
 62
     7
  6
CONTINUOUS
 10
14.099471
 20
9.919659
 30
0.000000
 11
10.533020
 21
9.919659
 31
0.000000
  0
LINE
  8
DIMENSIONS
 62
     7
  6
CONTINUOUS
 10
10.533020
 20
9.919659
 30
0.000000
 11
10.533020
 21
10.819643
 31
0.000000
  0
TEXT
  8
DIMENSIONS
 62
     7
 10
10.665766
 20
10.207148
 30
0.000000
 40
0.125000
  1
PHONE 831-429-1989 FAX 831-429-1907
  0
TEXT
  8
DIMENSIONS
 62
     7
 10
10.538752
 20
9.653355
 30
0.000000
 40
0.125000
  1
72-78 FORD COURIER TO WARP 9
  0
TEXT
  8
DIMENSIONS
 62
     7
 10
10.538752
 20
9.465855
 30
0.000000
 40
0.125000
  1
MOTOR HUB DETAIL DRAWING
  0
TEXT
  8
DIMENSIONS
 62
     7
 10
10.538752
 20
9.278355
 30
0.000000
 40
0.125000
  1
PRINTED TO SCALE
  0
TEXT
  8
DIMENSIONS
 62
     7
 10
10.538752
 20
8.903354
 30
0.000000
 40
0.125000
  1
10-24 x 1" DEEP
  0
TEXT
  8
DIMENSIONS
 62
     7
 10
10.538752
 20
8.715855
 30
0.000000
 40
0.125000
  1
NOTE B : DRILL 13/64" COUNTER-
  0
TEXT
  8
DIMENSIONS
 62
     7
 10
10.538752
 20
8.528355
 30
0.000000
 40
0.125000
  1
BORE 23/64" x 13/64" DEEP
  0
TEXT
  8
DIMENSIONS
 62
     7
 10
10.538752
 20
8.340855
 30
0.000000
 40
0.125000
  1
NOTE C : DRILL 12.5 mm x 7/8" DEEP
  0
TEXT
  8
DIMENSIONS
 62
     7
 10
10.538752
 20
8.153355
 30
0.000000
 40
0.125000
  1
TAP 14mm- 1.5mm x 3/4"DEEP
  0
TEXT
  8
DIMENSIONS
 62
     7
 10
10.538752
 20
9.090855
 30
0.000000
 40
0.125000
  1
NOTE  A :  DRILL THROUGH TAP
  0
CIRCLE
  8
HUBFT
 62
     7
  6
CONTINUOUS
 10
1.819972
 20
5.602791
 30
0.000000
 40
1.750000
  0
CIRCLE
  8
HUBFT
 62
     7
  6
CONTINUOUS
 10
1.819972
 20
5.602791
 30
0.000000
 40
1.573500
  0
CIRCLE
  8
HUBFT
 62
     7
  6
CONTINUOUS
 10
1.819972
 20
5.602791
 30
0.000000
 40
1.175500
  0
CIRCLE
  8
HUBFT
 62
     7
  6
CONTINUOUS
 10
1.819972
 20
6.778291
 30
0.000000
 40
0.246500
  0
CIRCLE
  8
HUBFT
 62
     7
  6
CONTINUOUS
 10
0.801959
 20
6.190541
 30
0.000000
 40
0.246500
  0
CIRCLE
  8
HUBFT
 62
     7
  6
CONTINUOUS
 10
0.801959
 20
5.015041
 30
0.000000
 40
0.246500
  0
CIRCLE
  8
HUBFT
 62
     7
  6
CONTINUOUS
 10
1.819972
 20
4.427291
 30
0.000000
 40
0.246500
  0
CIRCLE
  8
HUBFT
 62
     7
  6
CONTINUOUS
 10
2.837985
 20
5.015041
 30
0.000000
 40
0.246500
  0
CIRCLE
  8
HUBFT
 62
     7
  6
CONTINUOUS
 10
2.837985
 20
6.190541
 30
0.000000
 40
0.246500
  0
CIRCLE
  8
HUBFT
 62
     7
  6
CONTINUOUS
 10
1.819972
 20
5.602791
 30
0.000000
 40
0.375000
  0
CIRCLE
  8
HUBFT
 62
     7
  6
CONTINUOUS
 10
1.819972
 20
5.602791
 30
0.000000
 40
0.703001
  0
CIRCLE
  8
HUBFT
 62
     7
  6
CONTINUOUS
 10
1.468471
 20
6.211607
 30
0.000000
 40
0.101500
  0
CIRCLE
  8
HUBFT
 62
     7
  6
CONTINUOUS
 10
1.468471
 20
6.211607
 30
0.000000
 40
0.179499
  0
CIRCLE
  8
HUBFT
 62
     7
  6
CONTINUOUS
 10
1.116972
 20
5.602791
 30
0.000000
 40
0.101500
  0
CIRCLE
  8
HUBFT
 62
     7
  6
CONTINUOUS
 10
1.116972
 20
5.602791
 30
0.000000
 40
0.179500
  0
CIRCLE
  8
HUBFT
 62
     7
  6
CONTINUOUS
 10
1.468472
 20
4.993975
 30
0.000000
 40
0.101499
  0
CIRCLE
  8
HUBFT
 62
     7
  6
CONTINUOUS
 10
1.468472
 20
4.993975
 30
0.000000
 40
0.179500
  0
CIRCLE
  8
HUBFT
 62
     7
  6
CONTINUOUS
 10
2.171472
 20
4.993976
 30
0.000000
 40
0.101500
  0
CIRCLE
  8
HUBFT
 62
     7
  6
CONTINUOUS
 10
2.171472
 20
4.993976
 30
0.000000
 40
0.179501
  0
CIRCLE
  8
HUBFT
 62
     7
  6
CONTINUOUS
 10
2.522972
 20
5.602793
 30
0.000000
 40
0.101500
  0
CIRCLE
  8
HUBFT
 62
     7
  6
CONTINUOUS
 10
2.522972
 20
5.602793
 30
0.000000
 40
0.179500
  0
CIRCLE
  8
HUBFT
 62
     7
  6
CONTINUOUS
 10
2.171471
 20
6.211607
 30
0.000000
 40
0.101499
  0
CIRCLE
  8
HUBFT
 62
     7
  6
CONTINUOUS
 10
2.171471
 20
6.211607
 30
0.000000
 40
0.179500
  0
LINE
  8
DIMENSIONS
 62
     7
  6
CONTINUOUS
 10
1.819972
 20
7.857949
 30
0.000000
 11
1.603465
 21
7.732949
 31
0.000000
  0
LINE
  8
DIMENSIONS
 62
     7
  6
CONTINUOUS
 10
1.819972
 20
7.857949
 30
0.000000
 11
1.603465
 21
7.982949
 31
0.000000
  0
LINE
  8
DIMENSIONS
 62
     7
  6
CONTINUOUS
 10
-0.133053
 20
6.730370
 30
0.000000
 11
-0.133053
 21
6.980370
 31
0.000000
  0
LINE
  8
DIMENSIONS
 62
     7
  6
CONTINUOUS
 10
-0.133053
 20
6.730370
 30
0.000000
 11
0.083454
 21
6.855370
 31
0.000000
  0
LINE
  8
DIMENSIONS
 62
     7
  6
CONTINUOUS
 10
1.819972
 20
6.903291
 30
0.000000
 11
1.819972
 21
8.107949
 31
0.000000
  0
LINE
  8
DIMENSIONS
 62
     7
  6
CONTINUOUS
 10
0.693706
 20
6.253041
 30
0.000000
 11
-0.349559
 21
6.855370
 31
0.000000
  0
TEXT
  8
DIMENSIONS
 62
     7
 10
0.526332
 20
7.493090
 30
0.000000
 40
0.125000
  1
60¦
  0
ARC
  8
DIMENSIONS
 62
     7
  6
CONTINUOUS
 10
1.819972
 20
5.602791
 30
0.000000
 40
2.255158
 50
90.000000
 51
114.811074
  0
ARC
  8
DIMENSIONS
 62
     7
  6
CONTINUOUS
 10
1.819972
 20
5.602791
 30
0.000000
 40
2.255158
 50
124.476907
 51
150.000000
  0
LINE
  8
DIMENSIONS
 62
     7
  6
CONTINUOUS
 10
-0.316365
 20
5.602791
 30
0.000000
 11
-0.191365
 21
5.386284
 31
0.000000
  0
LINE
  8
DIMENSIONS
 62
     7
  6
CONTINUOUS
 10
-0.316365
 20
5.602791
 30
0.000000
 11
-0.441365
 21
5.386284
 31
0.000000
  0
LINE
  8
DIMENSIONS
 62
     7
  6
CONTINUOUS
 10
0.751805
 20
3.752668
 30
0.000000
 11
0.501805
 21
3.752668
 31
0.000000
  0
LINE
  8
DIMENSIONS
 62
     7
  6
CONTINUOUS
 10
0.751805
 20
3.752668
 30
0.000000
 11
0.626805
 21
3.969174
 31
0.000000
  0
LINE
  8
DIMENSIONS
 62
     7
  6
CONTINUOUS
 10
0.812472
 20
5.602791
 30
0.000000
 11
-0.566365
 21
5.602791
 31
0.000000
  0
LINE
  8
DIMENSIONS
 62
     7
  6
CONTINUOUS
 10
1.405972
 20
4.885721
 30
0.000000
 11
0.626805
 21
3.536162
 31
0.000000
  0
TEXT
  8
DIMENSIONS
 62
     7
 10
-0.196210
 20
4.471897
 30
0.000000
 40
0.125000
  1
60¦
  0
ARC
  8
DIMENSIONS
 62
     7
  6
CONTINUOUS
 10
1.819972
 20
5.602791
 30
0.000000
 40
2.136337
 50
180.000000
 51
207.130043
  0
ARC
  8
DIMENSIONS
 62
     7
  6
CONTINUOUS
 10
1.819972
 20
5.602791
 30
0.000000
 40
2.136337
 50
212.955604
 51
240.000043
  0
LINE
  8
DIMENSIONS
 62
     7
  6
CONTINUOUS
 10
2.390210
 20
7.902600
 30
0.000000
 11
2.640210
 21
7.902600
 31
0.000000
  0
LINE
  8
DIMENSIONS
 62
     7
  6
CONTINUOUS
 10
2.102871
 20
6.743741
 30
0.000000
 11
2.172092
 21
6.503516
 31
0.000000
  0
LINE
  8
DIMENSIONS
 62
     7
  6
CONTINUOUS
 10
2.102871
 20
6.743741
 30
0.000000
 11
1.929440
 21
6.563681
 31
0.000000
  0
LINE
  8
DIMENSIONS
 62
     7
  6
CONTINUOUS
 10
1.537073
 20
4.461840
 30
0.000000
 11
1.467852
 21
4.702066
 31
0.000000
  0
LINE
  8
DIMENSIONS
 62
     7
  6
CONTINUOUS
 10
1.537073
 20
4.461840
 30
0.000000
 11
1.710504
 21
4.641900
 31
0.000000
  0
TEXT
  8
DIMENSIONS
 62
     7
 10
2.671460
 20
7.839793
 30
0.000000
 40
0.125000
  1
2.351"
  0
LINE
  8
DIMENSIONS
 62
     7
  6
CONTINUOUS
 10
1.537073
 20
4.461840
 30
0.000000
 11
2.390210
 21
7.902600
 31
0.000000
  0
TEXT
  8
DIMENSIONS
 62
     7
 10
2.645302
 20
7.647507
 30
0.000000
 40
0.125000
  1
BOLT
  0
TEXT
  8
DIMENSIONS
 62
     7
 10
2.645302
 20
7.460008
 30
0.000000
 40
0.125000
  1
CIRCLE
  0
LINE
  8
DIMENSIONS
 62
     7
  6
CONTINUOUS
 10
0.080204
 20
6.414560
 30
0.000000
 11
-0.169796
 21
6.414560
 31
0.000000
  0
LINE
  8
DIMENSIONS
 62
     7
  6
CONTINUOUS
 10
1.182907
 20
5.900042
 30
0.000000
 11
1.431961
 21
5.921772
 31
0.000000
  0
LINE
  8
DIMENSIONS
 62
     7
  6
CONTINUOUS
 10
1.182907
 20
5.900042
 30
0.000000
 11
1.326253
 21
5.695220
 31
0.000000
  0
LINE
  8
DIMENSIONS
 62
     7
  6
CONTINUOUS
 10
2.457036
 20
5.305539
 30
0.000000
 11
2.207982
 21
5.283809
 31
0.000000
  0
LINE
  8
DIMENSIONS
 62
     7
  6
CONTINUOUS
 10
2.457036
 20
5.305539
 30
0.000000
 11
2.313691
 21
5.510361
 31
0.000000
  0
TEXT
  8
DIMENSIONS
 62
     7
 10
-1.037855
 20
6.351973
 30
0.000000
 40
0.125000
  1
1 13/32"
  0
LINE
  8
DIMENSIONS
 62
     7
  6
CONTINUOUS
 10
2.457036
 20
5.305539
 30
0.000000
 11
0.080204
 21
6.414560
 31
0.000000
  0
TEXT
  8
DIMENSIONS
 62
     7
 10
-1.037855
 20
6.164473
 30
0.000000
 40
0.125000
  1
BOLT
  0
TEXT
  8
DIMENSIONS
 62
     7
 10
-1.037855
 20
5.976973
 30
0.000000
 40
0.125000
  1
CIRCLE
  0
LINE
  8
DIMENSIONS
 62
     7
  6
CONTINUOUS
 10
2.248492
 20
4.841488
 30
0.000000
 11
2.450650
 21
4.694409
 31
0.000000
  0
LINE
  8
DIMENSIONS
 62
     7
  6
CONTINUOUS
 10
2.248492
 20
4.841488
 30
0.000000
 11
2.222197
 21
4.592875
 31
0.000000
  0
LINE
  8
DIMENSIONS
 62
     7
  6
CONTINUOUS
 10
2.248492
 20
4.841488
 30
0.000000
 11
2.701990
 21
3.821117
 31
0.000000
  0
LINE
  8
DIMENSIONS
 62
     7
  6
CONTINUOUS
 10
2.701990
 20
3.821117
 30
0.000000
 11
2.951990
 21
3.821117
 31
0.000000
  0
TEXT
  8
DIMENSIONS
 62
     7
 10
3.014490
 20
3.758617
 30
0.000000
 40
0.125000
  1
SEE NOTE B
  0
LINE
  8
DIMENSIONS
 62
     7
  6
CONTINUOUS
 10
1.819972
 20
4.180791
 30
0.000000
 11
2.028700
 21
4.043195
 31
0.000000
  0
LINE
  8
DIMENSIONS
 62
     7
  6
CONTINUOUS
 10
1.819972
 20
4.180791
 30
0.000000
 11
1.805175
 21
3.931229
 31
0.000000
  0
LINE
  8
DIMENSIONS
 62
     7
  6
CONTINUOUS
 10
1.819972
 20
4.180791
 30
0.000000
 11
2.191804
 21
3.438478
 31
0.000000
  0
LINE
  8
DIMENSIONS
 62
     7
  6
CONTINUOUS
 10
2.191804
 20
3.438478
 30
0.000000
 11
2.441804
 21
3.438478
 31
0.000000
  0
TEXT
  8
DIMENSIONS
 62
     7
 10
2.504304
 20
3.375978
 30
0.000000
 40
0.125000
  1
SEE NOTE C
  0
LINE
  8
CENTERLINE
 62
     7
  6
CONTINUOUS
 10
4.751593
 20
6.778291
 30
0.000000
 11
7.127907
 21
6.778291
 31
0.000000
  0
LINE
  8
HUB
 62
     7
  6
CONTINUOUS
 10
5.930588
 20
7.176291
 30
0.000000
 11
5.930588
 21
4.029291
 31
0.000000
  0
LINE
  8
HUB
 62
     7
  6
CONTINUOUS
 10
5.930588
 20
4.029291
 30
0.000000
 11
6.243588
 21
4.029291
 31
0.000000
  0
LINE
  8
HUB
 62
     7
  6
CONTINUOUS
 10
6.243588
 20
7.176291
 30
0.000000
 11
5.930588
 21
7.176291
 31
0.000000
  0
LINE
  8
HUB
 62
     7
  6
CONTINUOUS
 10
6.243588
 20
7.352791
 30
0.000000
 11
6.243588
 21
7.176291
 31
0.000000
  0
LINE
  8
HUB
 62
     7
  6
CONTINUOUS
 10
6.243588
 20
4.029291
 30
0.000000
 11
6.243588
 21
3.852791
 31
0.000000
  0
LINE
  8
HUB
 62
     7
  6
CONTINUOUS
 10
5.930588
 20
7.024791
 30
0.000000
 11
6.805588
 21
7.024791
 31
0.000000
  0
LINE
  8
HUB
 62
     7
  6
CONTINUOUS
 10
6.805588
 20
7.024791
 30
0.000000
 11
6.805588
 21
6.531791
 31
0.000000
  0
LINE
  8
HUB
 62
     7
  6
CONTINUOUS
 10
6.805588
 20
6.531791
 30
0.000000
 11
5.930588
 21
6.531791
 31
0.000000
  0
POINT
  8
HUB
 62
     7
 10
6.805588
 20
6.778291
 30
0.000000
  0
LINE
  8
HUB
 62
     7
  6
CONTINUOUS
 10
6.680588
 20
6.531791
 30
0.000000
 11
6.680588
 21
7.024791
 31
0.000000
  0
LINE
  8
HUB
 62
     7
  6
CONTINUOUS
 10
5.961588
 20
6.970868
 30
0.000000
 11
5.961588
 21
6.585713
 31
0.000000
  0
LINE
  8
HUB
 62
     7
  6
CONTINUOUS
 10
6.024338
 20
6.970868
 30
0.000000
 11
6.024338
 21
6.585713
 31
0.000000
  0
LINE
  8
HUB
 62
     7
  6
CONTINUOUS
 10
6.087088
 20
6.970868
 30
0.000000
 11
6.087088
 21
6.585713
 31
0.000000
  0
LINE
  8
HUB
 62
     7
  6
CONTINUOUS
 10
6.149838
 20
6.970868
 30
0.000000
 11
6.149838
 21
6.585713
 31
0.000000
  0
LINE
  8
HUB
 62
     7
  6
CONTINUOUS
 10
6.212588
 20
6.970868
 30
0.000000
 11
6.212588
 21
6.585713
 31
0.000000
  0
LINE
  8
HUB
 62
     7
  6
CONTINUOUS
 10
6.275338
 20
6.970868
 30
0.000000
 11
6.275338
 21
6.585713
 31
0.000000
  0
LINE
  8
HUB
 62
     7
  6
CONTINUOUS
 10
6.338088
 20
6.970868
 30
0.000000
 11
6.338088
 21
6.585713
 31
0.000000
  0
LINE
  8
HUB
 62
     7
  6
CONTINUOUS
 10
6.400838
 20
6.970868
 30
0.000000
 11
6.400838
 21
6.585713
 31
0.000000
  0
LINE
  8
HUB
 62
     7
  6
CONTINUOUS
 10
6.463587
 20
6.970868
 30
0.000000
 11
6.463587
 21
6.585713
 31
0.000000
  0
LINE
  8
HUB
 62
     7
  6
CONTINUOUS
 10
6.526337
 20
6.970868
 30
0.000000
 11
6.526337
 21
6.585713
 31
0.000000
  0
LINE
  8
HUB
 62
     7
  6
CONTINUOUS
 10
6.589087
 20
6.970868
 30
0.000000
 11
6.589087
 21
6.585713
 31
0.000000
  0
LINE
  8
HUB
 62
     7
  6
CONTINUOUS
 10
6.651837
 20
6.970868
 30
0.000000
 11
6.651837
 21
6.585713
 31
0.000000
  0
LINE
  8
HUB
 62
     7
  6
CONTINUOUS
 10
5.993088
 20
7.024791
 30
0.000000
 11
5.993088
 21
6.531791
 31
0.000000
  0
LINE
  8
HUB
 62
     7
  6
CONTINUOUS
 10
6.055588
 20
7.024791
 30
0.000000
 11
6.055588
 21
6.531791
 31
0.000000
  0
LINE
  8
HUB
 62
     7
  6
CONTINUOUS
 10
6.118088
 20
7.024791
 30
0.000000
 11
6.118088
 21
6.531791
 31
0.000000
  0
LINE
  8
HUB
 62
     7
  6
CONTINUOUS
 10
6.180588
 20
7.024791
 30
0.000000
 11
6.180588
 21
6.531791
 31
0.000000
  0
LINE
  8
HUB
 62
     7
  6
CONTINUOUS
 10
6.243088
 20
7.024791
 30
0.000000
 11
6.243088
 21
6.531791
 31
0.000000
  0
LINE
  8
HUB
 62
     7
  6
CONTINUOUS
 10
6.305588
 20
7.024791
 30
0.000000
 11
6.305588
 21
6.531791
 31
0.000000
  0
LINE
  8
HUB
 62
     7
  6
CONTINUOUS
 10
6.368088
 20
7.024791
 30
0.000000
 11
6.368088
 21
6.531791
 31
0.000000
  0
LINE
  8
HUB
 62
     7
  6
CONTINUOUS
 10
6.430588
 20
7.024791
 30
0.000000
 11
6.430588
 21
6.531791
 31
0.000000
  0
LINE
  8
HUB
 62
     7
  6
CONTINUOUS
 10
6.493088
 20
7.024791
 30
0.000000
 11
6.493088
 21
6.531791
 31
0.000000
  0
LINE
  8
HUB
 62
     7
  6
CONTINUOUS
 10
6.555588
 20
7.024791
 30
0.000000
 11
6.555588
 21
6.531791
 31
0.000000
  0
LINE
  8
HUB
 62
     7
  6
CONTINUOUS
 10
6.618088
 20
7.024791
 30
0.000000
 11
6.618088
 21
6.531791
 31
0.000000
  0
LINE
  8
HUB
 62
     7
  6
CONTINUOUS
 10
6.243588
 20
7.352791
 30
0.000000
 11
6.930588
 21
7.352791
 31
0.000000
  0
LINE
  8
HUB
 62
     7
  6
CONTINUOUS
 10
6.930588
 20
6.727791
 30
0.000000
 11
6.930588
 21
7.352791
 31
0.000000
  0
LINE
  8
HUB
 62
     7
  6
CONTINUOUS
 10
6.243588
 20
3.852791
 30
0.000000
 11
6.931588
 21
3.852791
 31
0.000000
  0
LINE
  8
HUB
 62
     7
  6
CONTINUOUS
 10
6.931588
 20
3.852791
 30
0.000000
 11
6.931588
 21
4.477791
 31
0.000000
  0
LINE
  8
HUB
 62
     7
  6
CONTINUOUS
 10
6.930588
 20
6.727791
 30
0.000000
 11
8.305588
 21
6.727791
 31
0.000000
  0
LINE
  8
HUB
 62
     7
  6
CONTINUOUS
 10
8.305588
 20
4.477791
 30
0.000000
 11
6.931588
 21
4.477791
 31
0.000000
  0
LINE
  8
HUB
 62
     7
  6
CONTINUOUS
 10
6.930588
 20
4.802791
 30
0.000000
 11
8.305588
 21
4.665291
 31
0.000000
  0
LINE
  8
HUB
 62
     7
  6
CONTINUOUS
 10
5.930588
 20
5.977791
 30
0.000000
 11
6.930588
 21
5.977791
 31
0.000000
  0
LINE
  8
HUB
 62
     7
  6
CONTINUOUS
 10
5.930588
 20
5.227791
 30
0.000000
 11
6.930588
 21
5.227791
 31
0.000000
  0
POINT
  8
HUB
 62
     7
 10
6.616944
 20
6.306813
 30
0.000000
  0
POINT
  8
HUB
 62
     7
 10
5.930588
 20
6.305791
 30
0.000000
  0
POINT
  8
HUB
 62
     7
 10
6.118088
 20
6.306813
 30
0.000000
  0
POINT
  8
HUB
 62
     7
 10
6.118088
 20
6.408363
 30
0.000000
  0
POINT
  8
HUB
 62
     7
 10
6.118088
 20
6.205263
 30
0.000000
  0
LINE
  8
HUB
 62
     7
  6
CONTINUOUS
 10
5.930588
 20
6.141791
 30
0.000000
 11
6.118088
 21
6.141791
 31
0.000000
  0
LINE
  8
HUB
 62
     7
  6
CONTINUOUS
 10
5.930588
 20
6.469791
 30
0.000000
 11
6.118088
 21
6.469791
 31
0.000000
  0
LINE
  8
HUB
 62
     7
  6
CONTINUOUS
 10
6.118088
 20
6.408363
 30
0.000000
 11
6.986313
 21
6.408363
 31
0.000000
  0
LINE
  8
HUB
 62
     7
  6
CONTINUOUS
 10
6.118088
 20
6.205263
 30
0.000000
 11
6.930588
 21
6.205263
 31
0.000000
  0
LINE
  8
HUB
 62
     7
  6
CONTINUOUS
 10
6.986313
 20
6.408363
 30
0.000000
 11
8.305588
 21
6.540291
 31
0.000000
  0
LINE
  8
HUB
 62
     7
  6
CONTINUOUS
 10
6.930588
 20
6.408363
 30
0.000000
 11
6.930588
 21
4.802791
 31
0.000000
  0
LINE
  8
HUB
 62
     7
  6
CONTINUOUS
 10
6.118088
 20
6.469791
 30
0.000000
 11
6.118088
 21
6.142813
 31
0.000000
  0
LINE
  8
HUB
 62
     7
  6
CONTINUOUS
 10
8.305588
 20
6.727791
 30
0.000000
 11
8.305588
 21
4.477791
 31
0.000000
  0
POINT
  8
BUSHING
 62
     7
 10
8.305588
 20
5.602791
 30
0.000000
  0
POINT
  8
9
 62
     7
 10
5.930588
 20
5.602791
 30
0.000000
  0
LINE
  8
CENTERLINE
 62
     7
  6
CONTINUOUS
 10
5.349494
 20
6.305791
 30
0.000000
 11
7.014336
 21
6.305791
 31
0.000000
  0
LINE
  8
DIMENSIONS
 62
     7
  6
CONTINUOUS
 10
5.930588
 20
3.655213
 30
0.000000
 11
5.714082
 21
3.530213
 31
0.000000
  0
LINE
  8
DIMENSIONS
 62
     7
  6
CONTINUOUS
 10
5.930588
 20
3.655213
 30
0.000000
 11
5.714082
 21
3.780213
 31
0.000000
  0
LINE
  8
DIMENSIONS
 62
     7
  6
CONTINUOUS
 10
6.243588
 20
3.655213
 30
0.000000
 11
6.460095
 21
3.780213
 31
0.000000
  0
LINE
  8
DIMENSIONS
 62
     7
  6
CONTINUOUS
 10
6.243588
 20
3.655213
 30
0.000000
 11
6.460095
 21
3.530213
 31
0.000000
  0
LINE
  8
DIMENSIONS
 62
     7
  6
CONTINUOUS
 10
5.930588
 20
3.904291
 30
0.000000
 11
5.930588
 21
3.405213
 31
0.000000
  0
LINE
  8
DIMENSIONS
 62
     7
  6
CONTINUOUS
 10
6.243588
 20
3.727791
 30
0.000000
 11
6.243588
 21
3.405213
 31
0.000000
  0
TEXT
  8
DIMENSIONS
 62
     7
 10
4.831050
 20
3.592406
 30
0.000000
 40
0.125000
  1
5/16"
  0
LINE
  8
DIMENSIONS
 62
     7
  6
CONTINUOUS
 10
5.930588
 20
3.655213
 30
0.000000
 11
5.430588
 21
3.655213
 31
0.000000
  0
LINE
  8
DIMENSIONS
 62
     7
  6
CONTINUOUS
 10
6.243588
 20
3.655213
 30
0.000000
 11
6.743588
 21
3.655213
 31
0.000000
  0
LINE
  8
DIMENSIONS
 62
     7
  6
CONTINUOUS
 10
5.607086
 20
5.227791
 30
0.000000
 11
5.732086
 21
5.011284
 31
0.000000
  0
LINE
  8
DIMENSIONS
 62
     7
  6
CONTINUOUS
 10
5.607086
 20
5.227791
 30
0.000000
 11
5.482086
 21
5.011284
 31
0.000000
  0
LINE
  8
DIMENSIONS
 62
     7
  6
CONTINUOUS
 10
5.607086
 20
5.977791
 30
0.000000
 11
5.482086
 21
6.194297
 31
0.000000
  0
LINE
  8
DIMENSIONS
 62
     7
  6
CONTINUOUS
 10
5.607086
 20
5.977791
 30
0.000000
 11
5.732086
 21
6.194297
 31
0.000000
  0
LINE
  8
DIMENSIONS
 62
     7
  6
CONTINUOUS
 10
5.805588
 20
5.227791
 30
0.000000
 11
5.357086
 21
5.227791
 31
0.000000
  0
LINE
  8
DIMENSIONS
 62
     7
  6
CONTINUOUS
 10
5.805588
 20
5.977791
 30
0.000000
 11
5.357086
 21
5.977791
 31
0.000000
  0
TEXT
  8
DIMENSIONS
 62
     7
 10
5.381607
 20
5.381375
 30
0.000000
 40
0.125000
  1
3/4"
  0
LINE
  8
DIMENSIONS
 62
     7
  6
CONTINUOUS
 10
5.607086
 20
5.227791
 30
0.000000
 11
5.607086
 21
4.727791
 31
0.000000
  0
LINE
  8
DIMENSIONS
 62
     7
  6
CONTINUOUS
 10
5.607086
 20
5.977791
 30
0.000000
 11
5.607086
 21
6.477791
 31
0.000000
  0
LINE
  8
DIMENSIONS
 62
     7
  6
CONTINUOUS
 10
4.770350
 20
4.029291
 30
0.000000
 11
4.645350
 21
4.245797
 31
0.000000
  0
LINE
  8
DIMENSIONS
 62
     7
  6
CONTINUOUS
 10
4.770350
 20
4.029291
 30
0.000000
 11
4.895350
 21
4.245797
 31
0.000000
  0
LINE
  8
DIMENSIONS
 62
     7
  6
CONTINUOUS
 10
4.770350
 20
7.176291
 30
0.000000
 11
4.895350
 21
6.959784
 31
0.000000
  0
LINE
  8
DIMENSIONS
 62
     7
  6
CONTINUOUS
 10
4.770350
 20
7.176291
 30
0.000000
 11
4.645350
 21
6.959784
 31
0.000000
  0
LINE
  8
DIMENSIONS
 62
     7
  6
CONTINUOUS
 10
5.805588
 20
4.029291
 30
0.000000
 11
4.520350
 21
4.029291
 31
0.000000
  0
LINE
  8
DIMENSIONS
 62
     7
  6
CONTINUOUS
 10
5.805588
 20
7.176291
 30
0.000000
 11
4.520350
 21
7.176291
 31
0.000000
  0
TEXT
  8
DIMENSIONS
 62
     7
 10
4.139615
 20
6.499052
 30
0.000000
 40
0.125000
  1
3.147"
  0
TEXT
  8
DIMENSIONS
 62
     7
 10
4.738934
 20
6.592881
 30
0.000000
 40
0.125000
  1
+.000"
  0
TEXT
  8
DIMENSIONS
 62
     7
 10
4.738934
 20
6.405223
 30
0.000000
 40
0.125000
  1
-.001"
  0
LINE
  8
DIMENSIONS
 62
     7
  6
CONTINUOUS
 10
4.770350
 20
4.029291
 30
0.000000
 11
4.770350
 21
6.373755
 31
0.000000
  0
LINE
  8
DIMENSIONS
 62
     7
  6
CONTINUOUS
 10
4.770350
 20
6.749508
 30
0.000000
 11
4.770350
 21
7.176291
 31
0.000000
  0
LINE
  8
DIMENSIONS
 62
     7
  6
CONTINUOUS
 10
6.931588
 20
2.924959
 30
0.000000
 11
7.148095
 21
3.049959
 31
0.000000
  0
LINE
  8
DIMENSIONS
 62
     7
  6
CONTINUOUS
 10
6.931588
 20
2.924959
 30
0.000000
 11
7.148095
 21
2.799959
 31
0.000000
  0
LINE
  8
DIMENSIONS
 62
     7
  6
CONTINUOUS
 10
8.305588
 20
2.924959
 30
0.000000
 11
8.089082
 21
2.799959
 31
0.000000
  0
LINE
  8
DIMENSIONS
 62
     7
  6
CONTINUOUS
 10
8.305588
 20
2.924959
 30
0.000000
 11
8.089082
 21
3.049959
 31
0.000000
  0
LINE
  8
DIMENSIONS
 62
     7
  6
CONTINUOUS
 10
6.931588
 20
3.727791
 30
0.000000
 11
6.931588
 21
2.674959
 31
0.000000
  0
LINE
  8
DIMENSIONS
 62
     7
  6
CONTINUOUS
 10
8.305588
 20
4.352791
 30
0.000000
 11
8.305588
 21
2.674959
 31
0.000000
  0
TEXT
  8
DIMENSIONS
 62
     7
 10
7.301300
 20
2.862051
 30
0.000000
 40
0.125000
  1
1 3/8"
  0
LINE
  8
DIMENSIONS
 62
     7
  6
CONTINUOUS
 10
6.931588
 20
2.924959
 30
0.000000
 11
7.270050
 21
2.924959
 31
0.000000
  0
LINE
  8
DIMENSIONS
 62
     7
  6
CONTINUOUS
 10
7.958962
 20
2.924959
 30
0.000000
 11
8.305588
 21
2.924959
 31
0.000000
  0
LINE
  8
DIMENSIONS
 62
     7
  6
CONTINUOUS
 10
6.243588
 20
3.347470
 30
0.000000
 11
6.027082
 21
3.222470
 31
0.000000
  0
LINE
  8
DIMENSIONS
 62
     7
  6
CONTINUOUS
 10
6.243588
 20
3.347470
 30
0.000000
 11
6.027082
 21
3.472470
 31
0.000000
  0
LINE
  8
DIMENSIONS
 62
     7
  6
CONTINUOUS
 10
6.931588
 20
3.347470
 30
0.000000
 11
7.148095
 21
3.472470
 31
0.000000
  0
LINE
  8
DIMENSIONS
 62
     7
  6
CONTINUOUS
 10
6.931588
 20
3.347470
 30
0.000000
 11
7.148095
 21
3.222470
 31
0.000000
  0
LINE
  8
DIMENSIONS
 62
     7
  6
CONTINUOUS
 10
6.243588
 20
3.727791
 30
0.000000
 11
6.243588
 21
3.097470
 31
0.000000
  0
LINE
  8
DIMENSIONS
 62
     7
  6
CONTINUOUS
 10
6.931588
 20
3.727791
 30
0.000000
 11
6.931588
 21
3.097470
 31
0.000000
  0
TEXT
  8
DIMENSIONS
 62
     7
 10
6.318722
 20
3.284748
 30
0.000000
 40
0.125000
  1
11/16"
  0
LINE
  8
DIMENSIONS
 62
     7
  6
CONTINUOUS
 10
6.243588
 20
3.347470
 30
0.000000
 11
5.743588
 21
3.347470
 31
0.000000
  0
LINE
  8
DIMENSIONS
 62
     7
  6
CONTINUOUS
 10
6.931588
 20
3.347470
 30
0.000000
 11
7.431588
 21
3.347470
 31
0.000000
  0
LINE
  8
DIMENSIONS
 62
     7
  6
CONTINUOUS
 10
5.930588
 20
2.423492
 30
0.000000
 11
6.147095
 21
2.548492
 31
0.000000
  0
LINE
  8
DIMENSIONS
 62
     7
  6
CONTINUOUS
 10
5.930588
 20
2.423492
 30
0.000000
 11
6.147095
 21
2.298492
 31
0.000000
  0
LINE
  8
DIMENSIONS
 62
     7
  6
CONTINUOUS
 10
8.305588
 20
2.423492
 30
0.000000
 11
8.089082
 21
2.298492
 31
0.000000
  0
LINE
  8
DIMENSIONS
 62
     7
  6
CONTINUOUS
 10
8.305588
 20
2.423492
 30
0.000000
 11
8.089082
 21
2.548492
 31
0.000000
  0
LINE
  8
DIMENSIONS
 62
     7
  6
CONTINUOUS
 10
5.930588
 20
3.904291
 30
0.000000
 11
5.930588
 21
2.173492
 31
0.000000
  0
LINE
  8
DIMENSIONS
 62
     7
  6
CONTINUOUS
 10
8.305588
 20
4.352791
 30
0.000000
 11
8.305588
 21
2.173492
 31
0.000000
  0
TEXT
  8
DIMENSIONS
 62
     7
 10
6.772573
 20
2.360584
 30
0.000000
 40
0.125000
  1
2 3/8"
  0
LINE
  8
DIMENSIONS
 62
     7
  6
CONTINUOUS
 10
5.930588
 20
2.423492
 30
0.000000
 11
6.741323
 21
2.423492
 31
0.000000
  0
LINE
  8
DIMENSIONS
 62
     7
  6
CONTINUOUS
 10
7.494854
 20
2.423492
 30
0.000000
 11
8.305588
 21
2.423492
 31
0.000000
  0
LINE
  8
DIMENSIONS
 62
     7
  6
CONTINUOUS
 10
7.571297
 20
6.466862
 30
0.000000
 11
7.798216
 21
6.361944
 31
0.000000
  0
LINE
  8
DIMENSIONS
 62
     7
  6
CONTINUOUS
 10
7.571297
 20
6.466862
 30
0.000000
 11
7.593896
 21
6.217885
 31
0.000000
  0
LINE
  8
DIMENSIONS
 62
     7
  6
CONTINUOUS
 10
7.571297
 20
6.466862
 30
0.000000
 11
9.932324
 21
3.118195
 31
0.000000
  0
LINE
  8
DIMENSIONS
 62
     7
  6
CONTINUOUS
 10
9.932324
 20
3.118195
 30
0.000000
 11
10.182324
 21
3.118195
 31
0.000000
  0
TEXT
  8
DIMENSIONS
 62
     7
 10
10.244824
 20
3.055695
 30
0.000000
 40
0.125000
  1
BORE TO SUIT BUSHING
  0
LINE
  8
DIMENSIONS
 62
     7
  6
CONTINUOUS
 10
9.068158
 20
4.477791
 30
0.000000
 11
8.943158
 21
4.694297
 31
0.000000
  0
LINE
  8
DIMENSIONS
 62
     7
  6
CONTINUOUS
 10
9.068158
 20
4.477791
 30
0.000000
 11
9.193158
 21
4.694297
 31
0.000000
  0
LINE
  8
DIMENSIONS
 62
     7
  6
CONTINUOUS
 10
9.068158
 20
6.727791
 30
0.000000
 11
9.193158
 21
6.511284
 31
0.000000
  0
LINE
  8
DIMENSIONS
 62
     7
  6
CONTINUOUS
 10
9.068158
 20
6.727791
 30
0.000000
 11
8.943158
 21
6.511284
 31
0.000000
  0
LINE
  8
DIMENSIONS
 62
     7
  6
CONTINUOUS
 10
8.430588
 20
4.477791
 30
0.000000
 11
9.318158
 21
4.477791
 31
0.000000
  0
LINE
  8
DIMENSIONS
 62
     7
  6
CONTINUOUS
 10
8.430588
 20
6.727791
 30
0.000000
 11
9.318158
 21
6.727791
 31
0.000000
  0
TEXT
  8
DIMENSIONS
 62
     7
 10
8.749220
 20
5.061708
 30
0.000000
 40
0.125000
  1
2 1/4"
  0
LINE
  8
DIMENSIONS
 62
     7
  6
CONTINUOUS
 10
9.068158
 20
4.477791
 30
0.000000
 11
9.068158
 21
5.030458
 31
0.000000
  0
LINE
  8
DIMENSIONS
 62
     7
  6
CONTINUOUS
 10
9.068158
 20
5.218131
 30
0.000000
 11
9.068158
 21
6.727791
 31
0.000000
  0
LINE
  8
DIMENSIONS
 62
     7
  6
CONTINUOUS
 10
9.731714
 20
3.852791
 30
0.000000
 11
9.606714
 21
4.069297
 31
0.000000
  0
LINE
  8
DIMENSIONS
 62
     7
  6
CONTINUOUS
 10
9.731714
 20
3.852791
 30
0.000000
 11
9.856714
 21
4.069297
 31
0.000000
  0
LINE
  8
DIMENSIONS
 62
     7
  6
CONTINUOUS
 10
9.731714
 20
7.352791
 30
0.000000
 11
9.856714
 21
7.136284
 31
0.000000
  0
LINE
  8
DIMENSIONS
 62
     7
  6
CONTINUOUS
 10
9.731714
 20
7.352791
 30
0.000000
 11
9.606714
 21
7.136284
 31
0.000000
  0
LINE
  8
DIMENSIONS
 62
     7
  6
CONTINUOUS
 10
7.056588
 20
3.852791
 30
0.000000
 11
9.981714
 21
3.852791
 31
0.000000
  0
LINE
  8
DIMENSIONS
 62
     7
  6
CONTINUOUS
 10
7.055588
 20
7.352791
 30
0.000000
 11
9.981714
 21
7.352791
 31
0.000000
  0
TEXT
  8
DIMENSIONS
 62
     7
 10
9.417785
 20
5.880568
 30
0.000000
 40
0.125000
  1
3 1/2"
  0
LINE
  8
DIMENSIONS
 62
     7
  6
CONTINUOUS
 10
9.731714
 20
3.852791
 30
0.000000
 11
9.731714
 21
5.849319
 31
0.000000
  0
LINE
  8
DIMENSIONS
 62
     7
  6
CONTINUOUS
 10
9.731714
 20
6.036992
 30
0.000000
 11
9.731714
 21
7.352791
 31
0.000000
  0
ENDSEC
  0
EOF
