  0
SECTION
  2
HEADER
  9
$ACADVER
  1
AC1006
  0
ENDSEC
  0
SECTION
  2
TABLES
  0
TABLE
  2
LTYPE
 70
    25
  0
LTYPE
  2
CONTINUOUS
 70
    64
  3
Solid line
 72
    64
 73
     0
 40
0.000000
  0
LTYPE
  2
DASHDOT
 70
    64
  3
__ . __ . __ . __ . __ . __ . __ . __ . __ . __
 72
    65
 73
     4
 40
1.000000
 49
0.500000
 49
-0.250000
 49
0.000000
 49
-0.250000
  0
LTYPE
  2
DASHED
 70
    64
  3
__ __ __ __ __ __ __ __ __ __ __ __ __ __ __ __
 72
    65
 73
     2
 40
0.750000
 49
0.500000
 49
-0.250000
  0
LTYPE
  2
DIVIDE
 70
    64
  3
____ . . ____ . . ____ . . ____ . . ____ . . __
 72
    65
 73
     6
 40
1.250000
 49
0.500000
 49
-0.250000
 49
0.000000
 49
-0.250000
 49
0.000000
 49
-0.250000
  0
LTYPE
  2
DOT
 70
    64
  3
. . . . . . . . . . . . . . . . . . . . . . . . 
 72
    65
 73
     2
 40
0.250000
 49
0.000000
 49
-0.250000
  0
ENDTAB
  0
ENDSEC
  0
SECTION
  2
ENTITIES
  0
POINT
  8
MIRROR
 62
     7
 10
6.192050
 20
-1.870017
 30
0.000000
  0
CIRCLE
  8
MIRROR
 62
     7
  6
CONTINUOUS
 10
0.076727
 20
0.034448
 30
0.000000
 40
0.186000
  0
POINT
  8
MIRROR
 62
     7
 10
0.076727
 20
0.034448
 30
0.000000
  0
LINE
  8
MIRROR
 62
     7
  6
CONTINUOUS
 10
6.586498
 20
1.947228
 30
0.000000
 11
3.953804
 21
5.673902
 31
0.000000
  0
LINE
  8
MIRROR
 62
     7
  6
CONTINUOUS
 10
3.953804
 20
5.673902
 30
0.000000
 11
0.174703
 21
6.864351
 31
0.000000
  0
POINT
  8
MIRROR
 62
     7
 10
-5.401860
 20
-2.931968
 30
0.000000
  0
LINE
  8
MIRROR
 62
     7
  6
CONTINUOUS
 10
-5.401860
 20
-2.556968
 30
0.000000
 11
-5.401860
 21
-3.306968
 31
0.000000
  0
CIRCLE
  8
MIRROR
 62
     7
  6
CONTINUOUS
 10
-5.401860
 20
-2.931968
 30
0.000000
 40
0.248000
  0
LINE
  8
MIRROR
 62
     7
  6
CONTINUOUS
 10
-5.106638
 20
-2.931968
 30
0.000000
 11
-5.726984
 21
-2.931968
 31
0.000000
  0
POINT
  8
MIRROR
 62
     7
 10
-2.110614
 20
-5.795650
 30
0.000000
  0
CIRCLE
  8
MIRROR
 62
     7
  6
CONTINUOUS
 10
-2.110614
 20
-5.795650
 30
0.000000
 40
0.248000
  0
LINE
  8
MIRROR
 62
     7
  6
CONTINUOUS
 10
-1.815392
 20
-5.795650
 30
0.000000
 11
-2.435738
 21
-5.795650
 31
0.000000
  0
POINT
  8
MIRROR
 62
     7
 10
2.141255
 20
-5.821487
 30
0.000000
  0
LINE
  8
MIRROR
 62
     7
  6
CONTINUOUS
 10
2.141255
 20
-5.446487
 30
0.000000
 11
2.141255
 21
-6.196487
 31
0.000000
  0
CIRCLE
  8
MIRROR
 62
     7
  6
CONTINUOUS
 10
2.141255
 20
-5.821487
 30
0.000000
 40
0.248000
  0
LINE
  8
MIRROR
 62
     7
  6
CONTINUOUS
 10
2.436477
 20
-5.821487
 30
0.000000
 11
1.816131
 21
-5.821487
 31
0.000000
  0
POINT
  8
MIRROR
 62
     7
 10
5.072543
 20
-3.655956
 30
0.000000
  0
LINE
  8
MIRROR
 62
     7
  6
CONTINUOUS
 10
5.072543
 20
-3.280956
 30
0.000000
 11
5.072543
 21
-4.030956
 31
0.000000
  0
CIRCLE
  8
MIRROR
 62
     7
  6
CONTINUOUS
 10
5.072543
 20
-3.655956
 30
0.000000
 40
0.248000
  0
LINE
  8
MIRROR
 62
     7
  6
CONTINUOUS
 10
5.367765
 20
-3.655956
 30
0.000000
 11
4.747420
 21
-3.655956
 31
0.000000
  0
POINT
  8
MIRROR
 62
     7
 10
6.122753
 20
1.947166
 30
0.000000
  0
LINE
  8
MIRROR
 62
     7
  6
CONTINUOUS
 10
6.122753
 20
2.322166
 30
0.000000
 11
6.122753
 21
1.572166
 31
0.000000
  0
CIRCLE
  8
MIRROR
 62
     7
  6
CONTINUOUS
 10
6.122753
 20
1.947166
 30
0.000000
 40
0.248000
  0
LINE
  8
MIRROR
 62
     7
  6
CONTINUOUS
 10
6.417975
 20
1.947166
 30
0.000000
 11
5.797629
 21
1.947166
 31
0.000000
  0
POINT
  8
MIRROR
 62
     7
 10
0.076607
 20
0.035333
 30
0.000000
  0
LINE
  8
MIRROR
 62
     7
  6
CONTINUOUS
 10
0.076607
 20
0.410333
 30
0.000000
 11
0.076607
 21
-0.339667
 31
0.000000
  0
CIRCLE
  8
MIRROR
 62
     7
  6
CONTINUOUS
 10
0.076607
 20
0.035333
 30
0.000000
 40
0.313000
  0
LINE
  8
MIRROR
 62
     7
  6
CONTINUOUS
 10
0.470894
 20
0.035333
 30
0.000000
 11
-0.348839
 21
0.035333
 31
0.000000
  0
POINT
  8
MIRROR
 62
     7
 10
3.667068
 20
5.273133
 30
0.000000
  0
LINE
  8
MIRROR
 62
     7
  6
CONTINUOUS
 10
3.667068
 20
5.648133
 30
0.000000
 11
3.667068
 21
4.898133
 31
0.000000
  0
CIRCLE
  8
MIRROR
 62
     7
  6
CONTINUOUS
 10
3.667068
 20
5.273133
 30
0.000000
 40
0.248000
  0
LINE
  8
MIRROR
 62
     7
  6
CONTINUOUS
 10
3.962290
 20
5.273133
 30
0.000000
 11
3.341945
 21
5.273133
 31
0.000000
  0
POINT
  8
MIRROR
 62
     7
 10
0.134215
 20
6.385585
 30
0.000000
  0
LINE
  8
MIRROR
 62
     7
  6
CONTINUOUS
 10
0.134215
 20
6.760585
 30
0.000000
 11
0.134215
 21
6.010585
 31
0.000000
  0
CIRCLE
  8
MIRROR
 62
     7
  6
CONTINUOUS
 10
0.134215
 20
6.385585
 30
0.000000
 40
0.248000
  0
LINE
  8
MIRROR
 62
     7
  6
CONTINUOUS
 10
0.429437
 20
6.385585
 30
0.000000
 11
-0.190908
 21
6.385585
 31
0.000000
  0
POINT
  8
MIRROR
 62
     7
 10
-3.607809
 20
5.358854
 30
0.000000
  0
LINE
  8
MIRROR
 62
     7
  6
CONTINUOUS
 10
-3.607809
 20
5.733854
 30
0.000000
 11
-3.607809
 21
4.983854
 31
0.000000
  0
CIRCLE
  8
MIRROR
 62
     7
  6
CONTINUOUS
 10
-3.607809
 20
5.358854
 30
0.000000
 40
0.248000
  0
LINE
  8
MIRROR
 62
     7
  6
CONTINUOUS
 10
-3.312587
 20
5.358854
 30
0.000000
 11
-3.932932
 21
5.358854
 31
0.000000
  0
CIRCLE
  8
MIRROR
 62
     7
  6
CONTINUOUS
 10
-6.090356
 20
2.014364
 30
0.000000
 40
0.248000
  0
POINT
  8
MIRROR
 62
     7
 10
-6.090356
 20
2.014364
 30
0.000000
  0
LINE
  8
MIRROR
 62
     7
  6
CONTINUOUS
 10
-6.090356
 20
2.389364
 30
0.000000
 11
-6.090356
 21
1.639364
 31
0.000000
  0
POINT
  8
MIRROR
 62
     7
 10
-6.437584
 20
2.014364
 30
0.000000
  0
LINE
  8
MIRROR
 62
     7
  6
CONTINUOUS
 10
-5.795134
 20
2.014364
 30
0.000000
 11
-6.437584
 21
2.014364
 31
0.000000
  0
POINT
  8
MIRROR
 62
     7
 10
-5.324213
 20
5.385520
 30
0.000000
  0
LINE
  8
MIRROR
 62
     7
  6
CONTINUOUS
 10
-3.818879
 20
3.361606
 30
0.000000
 11
-3.819772
 21
3.364925
 31
0.000000
  0
LINE
  8
MIRROR
 62
     7
  6
CONTINUOUS
 10
0.174703
 20
6.864351
 30
0.000000
 11
-5.351633
 21
5.377734
 31
0.000000
  0
ARC
  8
MIRROR
 62
     7
  6
CONTINUOUS
 10
-4.862552
 20
3.705210
 30
0.000000
 40
1.742566
 50
105.362803
 51
180.000000
  0
LINE
  8
MIRROR
 62
     7
  6
CONTINUOUS
 10
-6.657424
 20
-1.757794
 30
0.000000
 11
-6.380653
 21
-2.639922
 31
0.000000
  0
LINE
  8
MIRROR
 62
     7
  6
CONTINUOUS
 10
-2.110614
 20
-5.420650
 30
0.000000
 11
-2.110614
 21
-6.239995
 31
0.000000
  0
LINE
  8
MIRROR
 62
     7
  6
CONTINUOUS
 10
-2.108697
 20
-6.239991
 30
0.000000
 11
2.135905
 21
-6.281934
 31
0.000000
  0
LINE
  8
MIRROR
 62
     7
  6
CONTINUOUS
 10
2.135905
 20
-6.281934
 30
0.000000
 11
5.391742
 21
-4.004084
 31
0.000000
  0
LINE
  8
MIRROR
 62
     7
  6
CONTINUOUS
 10
-6.605118
 20
3.705210
 30
0.000000
 11
-6.657424
 21
-1.757794
 31
0.000000
  0
LINE
  8
MIRROR
 62
     7
  6
CONTINUOUS
 10
-6.380653
 20
-2.639922
 30
0.000000
 11
-2.276448
 21
-6.239991
 31
0.000000
  0
LINE
  8
MIRROR
 62
     7
  6
CONTINUOUS
 10
-2.108697
 20
-6.239991
 30
0.000000
 11
-2.276448
 21
-6.239991
 31
0.000000
  0
CIRCLE
  8
MIRROR
 62
     7
  6
CONTINUOUS
 10
6.192050
 20
-1.870017
 30
0.000000
 40
0.295000
  0
LINE
  8
MIRROR
 62
     7
  6
CONTINUOUS
 10
5.391742
 20
-4.004084
 30
0.000000
 11
6.878103
 21
-1.875179
 31
0.000000
  0
LINE
  8
MIRROR
 62
     7
  6
CONTINUOUS
 10
6.878103
 20
-1.875179
 30
0.000000
 11
6.586498
 21
1.947228
 31
0.000000
  0
CIRCLE
  8
MIRROR
 62
     7
  6
CONTINUOUS
 10
-6.090927
 20
-1.757794
 30
0.000000
 40
0.295000
  0
POINT
  8
MIRROR
 62
     7
 10
-6.090927
 20
-1.757794
 30
0.000000
  0
LINE
  8
MIRROR
 62
     7
  6
CONTINUOUS
 10
-6.090927
 20
-1.382794
 30
0.000000
 11
-6.090927
 21
-2.132794
 31
0.000000
  0
LINE
  8
MIRROR
 62
     7
  6
CONTINUOUS
 10
-5.795705
 20
-1.757794
 30
0.000000
 11
-6.416051
 21
-1.757794
 31
0.000000
  0
POINT
  8
MIRROR
 62
     7
 10
6.192050
 20
-1.870017
 30
0.000000
  0
LINE
  8
MIRROR
 62
     7
  6
CONTINUOUS
 10
6.192050
 20
-1.495017
 30
0.000000
 11
6.192050
 21
-2.245017
 31
0.000000
  0
LINE
  8
MIRROR
 62
     7
  6
CONTINUOUS
 10
6.487272
 20
-1.870017
 30
0.000000
 11
5.866926
 21
-1.870017
 31
0.000000
  0
POINT
  8
MIRROR
 62
     7
 10
0.076727
 20
0.034448
 30
0.000000
  0
CIRCLE
  8
MIRROR
 62
     7
  6
CONTINUOUS
 10
0.076727
 20
0.034448
 30
0.000000
 40
3.000000
  0
CIRCLE
  8
MIRROR
 62
     7
  6
CONTINUOUS
 10
0.076727
 20
0.034448
 30
0.000000
 40
3.625000
  0
POINT
  8
MIRROR
 62
     7
 10
0.076727
 20
0.034448
 30
0.000000
  0
LINE
  8
MIRROR
 62
     7
  6
CONTINUOUS
 10
0.076727
 20
7.318781
 30
0.000000
 11
0.076727
 21
5.858373
 31
0.000000
  0
LINE
  8
MIRROR
 62
     7
  6
CONTINUOUS
 10
0.076727
 20
5.271928
 30
0.000000
 11
0.076727
 21
-1.886966
 31
0.000000
  0
LINE
  8
MIRROR
 62
     7
  6
CONTINUOUS
 10
0.076727
 20
-2.827270
 30
0.000000
 11
0.076727
 21
-7.288207
 31
0.000000
  0
TEXT
  8
MIRROR
 62
     7
 10
-3.058182
 20
5.415450
 30
0.000000
 40
0.375000
  1
TRANSMISSION SIDE
  0
LINE
  8
MIRROR
 62
     7
  6
CONTINUOUS
 10
16.658644
 20
0.034448
 30
0.000000
 11
-5.947355
 21
0.034448
 31
0.000000
  0
POINT
  8
MIRROR
 62
     7
 10
11.833626
 20
0.034448
 30
0.000000
  0
LINE
  8
PLATE
 62
     7
  6
CONTINUOUS
 10
11.833626
 20
6.233198
 30
0.000000
 11
12.458626
 21
6.233198
 31
0.000000
  0
LINE
  8
PLATE
 62
     7
  6
CONTINUOUS
 10
11.833626
 20
6.233198
 30
0.000000
 11
12.458626
 21
6.233198
 31
0.000000
  0
LINE
  8
PLATE
 62
     7
  6
CONTINUOUS
 10
12.458626
 20
-7.266802
 30
0.000000
 11
11.833626
 21
-7.266802
 31
0.000000
  0
POINT
  8
PLATE
 62
     7
 10
11.833626
 20
3.108198
 30
0.000000
  0
LINE
  8
PLATE
 62
     7
  6
CONTINUOUS
 10
12.084626
 20
2.842598
 30
0.000000
 11
12.084626
 21
3.373798
 31
0.000000
  0
LINE
  8
PLATE
 62
     7
  6
CONTINUOUS
 10
11.833626
 20
3.576698
 30
0.000000
 11
12.084626
 21
3.373798
 31
0.000000
  0
LINE
  8
PLATE
 62
     7
  6
CONTINUOUS
 10
12.084626
 20
2.842598
 30
0.000000
 11
11.833626
 21
2.639698
 31
0.000000
  0
LINE
  8
PLATE
 62
     7
  6
CONTINUOUS
 10
12.333626
 20
2.842598
 30
0.000000
 11
12.084626
 21
2.842598
 31
0.000000
  0
LINE
  8
PLATE
 62
     7
  6
CONTINUOUS
 10
12.333626
 20
3.373798
 30
0.000000
 11
12.084626
 21
3.373798
 31
0.000000
  0
LINE
  8
PLATE
 62
     7
  6
CONTINUOUS
 10
12.458626
 20
3.733198
 30
0.000000
 11
12.333626
 21
3.733198
 31
0.000000
  0
LINE
  8
PLATE
 62
     7
  6
CONTINUOUS
 10
12.333626
 20
3.733198
 30
0.000000
 11
12.333626
 21
2.483198
 31
0.000000
  0
LINE
  8
PLATE
 62
     7
  6
CONTINUOUS
 10
12.458626
 20
-4.766802
 30
0.000000
 11
12.333626
 21
-4.766802
 31
0.000000
  0
LINE
  8
PLATE
 62
     7
  6
CONTINUOUS
 10
12.333626
 20
-4.766802
 30
0.000000
 11
12.333626
 21
-3.516802
 31
0.000000
  0
LINE
  8
PLATE
 62
     7
  6
CONTINUOUS
 10
12.458626
 20
6.233198
 30
0.000000
 11
12.458626
 21
3.733198
 31
0.000000
  0
LINE
  8
PLATE
 62
     7
  6
CONTINUOUS
 10
12.458626
 20
-4.766802
 30
0.000000
 11
12.458626
 21
-7.266802
 31
0.000000
  0
LINE
  8
PLATE
 62
     7
  6
CONTINUOUS
 10
11.833626
 20
-3.641802
 30
0.000000
 11
12.021626
 21
-3.516802
 31
0.000000
  0
LINE
  8
PLATE
 62
     7
  6
CONTINUOUS
 10
12.021626
 20
-3.516802
 30
0.000000
 11
12.333626
 21
-3.516802
 31
0.000000
  0
LINE
  8
PLATE
 62
     7
  6
CONTINUOUS
 10
12.021626
 20
2.483198
 30
0.000000
 11
11.833626
 21
2.608198
 31
0.000000
  0
LINE
  8
PLATE
 62
     7
  6
CONTINUOUS
 10
12.021626
 20
2.483198
 30
0.000000
 11
12.333626
 21
2.483198
 31
0.000000
  0
LINE
  8
PLATE
 62
     7
  6
CONTINUOUS
 10
12.021626
 20
2.483198
 30
0.000000
 11
12.021626
 21
1.253198
 31
0.000000
  0
LINE
  8
PLATE
 62
     7
  6
CONTINUOUS
 10
12.333626
 20
2.483198
 30
0.000000
 11
12.333626
 21
1.233198
 31
0.000000
  0
LINE
  8
PLATE
 62
     7
  6
CONTINUOUS
 10
12.021626
 20
-3.516802
 30
0.000000
 11
12.021626
 21
-2.286802
 31
0.000000
  0
LINE
  8
PLATE
 62
     7
  6
CONTINUOUS
 10
12.333626
 20
-3.516802
 30
0.000000
 11
12.333626
 21
-2.266802
 31
0.000000
  0
LINE
  8
PLATE
 62
     7
  6
CONTINUOUS
 10
11.833626
 20
3.576698
 30
0.000000
 11
11.833626
 21
6.233198
 31
0.000000
  0
LINE
  8
PLATE
 62
     7
  6
CONTINUOUS
 10
11.833626
 20
3.576698
 30
0.000000
 11
12.084626
 21
3.373798
 31
0.000000
  0
LINE
  8
PLATE
 62
     7
  6
CONTINUOUS
 10
12.084626
 20
3.373798
 30
0.000000
 11
12.333626
 21
3.373798
 31
0.000000
  0
LINE
  8
PLATE
 62
     7
  6
CONTINUOUS
 10
12.021626
 20
1.253198
 30
0.000000
 11
12.021626
 21
-2.286802
 31
0.000000
  0
LINE
  8
PLATE
 62
     7
  6
CONTINUOUS
 10
12.333626
 20
1.233198
 30
0.000000
 11
12.333626
 21
-2.266802
 31
0.000000
  0
LINE
  8
PLATE
 62
     7
  6
CONTINUOUS
 10
12.458626
 20
3.733198
 30
0.000000
 11
12.458626
 21
-4.766802
 31
0.000000
  0
LINE
  8
MIRROR
 62
     7
  6
CONTINUOUS
 10
11.833626
 20
6.233198
 30
0.000000
 11
11.833626
 21
-7.266802
 31
0.000000
  0
CIRCLE
  8
MIRROR
 62
     7
  6
CONTINUOUS
 10
0.076607
 20
0.035333
 30
0.000000
 40
3.125000
  0
POINT
  8
MIRROR
 62
     7
 10
0.076727
 20
-3.590552
 30
0.000000
  0
CIRCLE
  8
MIRROR
 62
     7
  6
CONTINUOUS
 10
0.076727
 20
-3.590552
 30
0.000000
 40
0.468501
  0
CIRCLE
  8
MIRROR
 62
     7
  6
CONTINUOUS
 10
0.076727
 20
-3.590552
 30
0.000000
 40
0.265601
  0
POINT
  8
MIRROR
 62
     7
 10
3.702492
 20
0.035454
 30
0.000000
  0
CIRCLE
  8
MIRROR
 62
     7
  6
CONTINUOUS
 10
3.702492
 20
0.035454
 30
0.000000
 40
0.468501
  0
CIRCLE
  8
MIRROR
 62
     7
  6
CONTINUOUS
 10
3.702492
 20
0.035454
 30
0.000000
 40
0.265601
  0
POINT
  8
MIRROR
 62
     7
 10
0.076486
 20
3.661219
 30
0.000000
  0
CIRCLE
  8
MIRROR
 62
     7
  6
CONTINUOUS
 10
0.076486
 20
3.661219
 30
0.000000
 40
0.468501
  0
CIRCLE
  8
MIRROR
 62
     7
  6
CONTINUOUS
 10
0.076486
 20
3.661219
 30
0.000000
 40
0.265601
  0
POINT
  8
MIRROR
 62
     7
 10
-3.549279
 20
0.035213
 30
0.000000
  0
CIRCLE
  8
MIRROR
 62
     7
  6
CONTINUOUS
 10
-3.549279
 20
0.035213
 30
0.000000
 40
0.468501
  0
CIRCLE
  8
MIRROR
 62
     7
  6
CONTINUOUS
 10
-3.549279
 20
0.035213
 30
0.000000
 40
0.265601
  0
LINE
  8
MIRROR
 62
     7
  6
CONTINUOUS
 10
6.941926
 20
4.670676
 30
0.000000
 11
7.191926
 21
4.670676
 31
0.000000
  0
LINE
  8
MIRROR
 62
     7
  6
CONTINUOUS
 10
2.666540
 20
1.784010
 30
0.000000
 11
2.557051
 21
1.559261
 31
0.000000
  0
LINE
  8
MIRROR
 62
     7
  6
CONTINUOUS
 10
2.666540
 20
1.784010
 30
0.000000
 11
2.417157
 21
1.766456
 31
0.000000
  0
LINE
  8
MIRROR
 62
     7
  6
CONTINUOUS
 10
-2.513327
 20
-1.713344
 30
0.000000
 11
-2.403838
 21
-1.488595
 31
0.000000
  0
LINE
  8
MIRROR
 62
     7
  6
CONTINUOUS
 10
-2.513327
 20
-1.713344
 30
0.000000
 11
-2.263944
 21
-1.695789
 31
0.000000
  0
TEXT
  8
MIRROR
 62
     7
 10
7.223175
 20
4.576179
 30
0.000000
 40
0.188000
  1
6.250"
  0
LINE
  8
MIRROR
 62
     7
  6
CONTINUOUS
 10
-2.513327
 20
-1.713344
 30
0.000000
 11
6.941926
 21
4.670676
 31
0.000000
  0
LINE
  8
MIRROR
 62
     7
  6
CONTINUOUS
 10
6.564971
 20
3.162858
 30
0.000000
 11
6.814971
 21
3.162858
 31
0.000000
  0
LINE
  8
MIRROR
 62
     7
  6
CONTINUOUS
 10
2.779009
 20
1.337396
 30
0.000000
 11
2.638278
 21
1.130769
 31
0.000000
  0
LINE
  8
MIRROR
 62
     7
  6
CONTINUOUS
 10
2.779009
 20
1.337396
 30
0.000000
 11
2.529699
 21
1.355959
 31
0.000000
  0
LINE
  8
MIRROR
 62
     7
  6
CONTINUOUS
 10
-2.625555
 20
-1.268500
 30
0.000000
 11
-2.484824
 21
-1.061872
 31
0.000000
  0
LINE
  8
MIRROR
 62
     7
  6
CONTINUOUS
 10
-2.625555
 20
-1.268500
 30
0.000000
 11
-2.376245
 21
-1.287063
 31
0.000000
  0
TEXT
  8
MIRROR
 62
     7
 10
6.846220
 20
3.068410
 30
0.000000
 40
0.188000
  1
6.000"
  0
LINE
  8
MIRROR
 62
     7
  6
CONTINUOUS
 10
-2.625555
 20
-1.268500
 30
0.000000
 11
6.564971
 21
3.162858
 31
0.000000
  0
LINE
  8
MIRROR
 62
     7
  6
CONTINUOUS
 10
10.249071
 20
-3.641802
 30
0.000000
 11
10.124071
 21
-3.425296
 31
0.000000
  0
LINE
  8
MIRROR
 62
     7
  6
CONTINUOUS
 10
10.249071
 20
-3.641802
 30
0.000000
 11
10.374071
 21
-3.425296
 31
0.000000
  0
LINE
  8
MIRROR
 62
     7
  6
CONTINUOUS
 10
10.249071
 20
2.608198
 30
0.000000
 11
10.374071
 21
2.391692
 31
0.000000
  0
LINE
  8
MIRROR
 62
     7
  6
CONTINUOUS
 10
10.249071
 20
2.608198
 30
0.000000
 11
10.124071
 21
2.391692
 31
0.000000
  0
LINE
  8
MIRROR
 62
     7
  6
CONTINUOUS
 10
11.708626
 20
-3.641802
 30
0.000000
 11
9.999071
 21
-3.641802
 31
0.000000
  0
LINE
  8
MIRROR
 62
     7
  6
CONTINUOUS
 10
11.708626
 20
2.608198
 30
0.000000
 11
9.999071
 21
2.608198
 31
0.000000
  0
TEXT
  8
MIRROR
 62
     7
 10
9.745256
 20
-0.611299
 30
0.000000
 40
0.188000
  1
6.250"
  0
LINE
  8
MIRROR
 62
     7
  6
CONTINUOUS
 10
10.249071
 20
-3.641802
 30
0.000000
 11
10.249071
 21
-0.642549
 31
0.000000
  0
LINE
  8
MIRROR
 62
     7
  6
CONTINUOUS
 10
10.249071
 20
-0.391055
 30
0.000000
 11
10.249071
 21
2.608198
 31
0.000000
  0
LINE
  8
MIRROR
 62
     7
  6
CONTINUOUS
 10
11.102129
 20
-3.516802
 30
0.000000
 11
10.977129
 21
-3.300296
 31
0.000000
  0
LINE
  8
MIRROR
 62
     7
  6
CONTINUOUS
 10
11.102129
 20
-3.516802
 30
0.000000
 11
11.227129
 21
-3.300296
 31
0.000000
  0
LINE
  8
MIRROR
 62
     7
  6
CONTINUOUS
 10
11.102129
 20
2.483198
 30
0.000000
 11
11.227129
 21
2.266692
 31
0.000000
  0
LINE
  8
MIRROR
 62
     7
  6
CONTINUOUS
 10
11.102129
 20
2.483198
 30
0.000000
 11
10.977129
 21
2.266692
 31
0.000000
  0
LINE
  8
MIRROR
 62
     7
  6
CONTINUOUS
 10
11.896626
 20
-3.516802
 30
0.000000
 11
10.852129
 21
-3.516802
 31
0.000000
  0
LINE
  8
MIRROR
 62
     7
  6
CONTINUOUS
 10
11.896626
 20
2.483198
 30
0.000000
 11
10.852129
 21
2.483198
 31
0.000000
  0
TEXT
  8
MIRROR
 62
     7
 10
10.579117
 20
-1.245334
 30
0.000000
 40
0.188000
  1
6.000"
  0
LINE
  8
MIRROR
 62
     7
  6
CONTINUOUS
 10
11.102129
 20
-3.516802
 30
0.000000
 11
11.102129
 21
-1.276584
 31
0.000000
  0
LINE
  8
MIRROR
 62
     7
  6
CONTINUOUS
 10
11.102129
 20
-1.025190
 30
0.000000
 11
11.102129
 21
2.483198
 31
0.000000
  0
LINE
  8
MIRROR
 62
     7
  6
CONTINUOUS
 10
11.833626
 20
-3.330559
 30
0.000000
 11
11.617120
 21
-3.455559
 31
0.000000
  0
LINE
  8
MIRROR
 62
     7
  6
CONTINUOUS
 10
11.833626
 20
-3.330559
 30
0.000000
 11
11.617120
 21
-3.205559
 31
0.000000
  0
LINE
  8
MIRROR
 62
     7
  6
CONTINUOUS
 10
12.021626
 20
-3.330559
 30
0.000000
 11
12.238132
 21
-3.205559
 31
0.000000
  0
LINE
  8
MIRROR
 62
     7
  6
CONTINUOUS
 10
12.021626
 20
-3.330559
 30
0.000000
 11
12.238132
 21
-3.455559
 31
0.000000
  0
LINE
  8
MIRROR
 62
     7
  6
CONTINUOUS
 10
11.833626
 20
-3.516802
 30
0.000000
 11
11.833626
 21
-3.080559
 31
0.000000
  0
LINE
  8
MIRROR
 62
     7
  6
CONTINUOUS
 10
12.021626
 20
-3.391802
 30
0.000000
 11
12.021626
 21
-3.080559
 31
0.000000
  0
TEXT
  8
MIRROR
 62
     7
 10
12.684214
 20
-3.425384
 30
0.000000
 40
0.188000
  1
0.188"
  0
LINE
  8
MIRROR
 62
     7
  6
CONTINUOUS
 10
11.833626
 20
-3.330559
 30
0.000000
 11
11.333626
 21
-3.330559
 31
0.000000
  0
LINE
  8
MIRROR
 62
     7
  6
CONTINUOUS
 10
12.021626
 20
-3.330559
 30
0.000000
 11
12.521626
 21
-3.330559
 31
0.000000
  0
ENDSEC
  0
EOF
