  0
SECTION
  2
HEADER
  9
$ACADVER
  1
AC1006
  0
ENDSEC
  0
SECTION
  2
TABLES
  0
TABLE
  2
LTYPE
 70
    25
  0
LTYPE
  2
CONTINUOUS
 70
    64
  3
Solid line
 72
    64
 73
     0
 40
0.000000
  0
LTYPE
  2
DASHDOT
 70
    64
  3
__ . __ . __ . __ . __ . __ . __ . __ . __ . __
 72
    65
 73
     4
 40
1.000000
 49
0.500000
 49
-0.250000
 49
0.000000
 49
-0.250000
  0
LTYPE
  2
DASHED
 70
    64
  3
__ __ __ __ __ __ __ __ __ __ __ __ __ __ __ __
 72
    65
 73
     2
 40
0.750000
 49
0.500000
 49
-0.250000
  0
LTYPE
  2
DIVIDE
 70
    64
  3
____ . . ____ . . ____ . . ____ . . ____ . . __
 72
    65
 73
     6
 40
1.250000
 49
0.500000
 49
-0.250000
 49
0.000000
 49
-0.250000
 49
0.000000
 49
-0.250000
  0
LTYPE
  2
DOT
 70
    64
  3
. . . . . . . . . . . . . . . . . . . . . . . . 
 72
    65
 73
     2
 40
0.250000
 49
0.000000
 49
-0.250000
  0
ENDTAB
  0
ENDSEC
  0
SECTION
  2
ENTITIES
  0
LINE
  8
HUB
 62
     7
  6
CONTINUOUS
 10
4.251466
 20
1.110802
 30
0.000000
 11
4.251466
 21
-1.047203
 31
0.000000
  0
LINE
  8
HUB
 62
     7
  6
CONTINUOUS
 10
4.251466
 20
-1.047203
 30
0.000000
 11
4.501466
 21
-1.047203
 31
0.000000
  0
LINE
  8
HUB
 62
     7
  6
CONTINUOUS
 10
4.251466
 20
1.110802
 30
0.000000
 11
4.501466
 21
1.110802
 31
0.000000
  0
LINE
  8
HUB
 62
     7
  6
CONTINUOUS
 10
4.501466
 20
1.110802
 30
0.000000
 11
4.501466
 21
2.125802
 31
0.000000
  0
LINE
  8
HUB
 62
     7
  6
CONTINUOUS
 10
4.501466
 20
-1.047203
 30
0.000000
 11
4.501466
 21
-2.062202
 31
0.000000
  0
LINE
  8
HUB
 62
     7
  6
CONTINUOUS
 10
4.501466
 20
2.125802
 30
0.000000
 11
5.001466
 21
2.125802
 31
0.000000
  0
LINE
  8
HUB
 62
     7
  6
CONTINUOUS
 10
5.001466
 20
-2.062202
 30
0.000000
 11
4.501466
 21
-2.062202
 31
0.000000
  0
LINE
  8
HUB
 62
     7
  6
CONTINUOUS
 10
5.001466
 20
1.156800
 30
0.000000
 11
6.376466
 21
1.156800
 31
0.000000
  0
LINE
  8
HUB
 62
     7
  6
CONTINUOUS
 10
6.376466
 20
-1.093200
 30
0.000000
 11
5.001466
 21
-1.093200
 31
0.000000
  0
POINT
  8
MAINSHFT
 62
     7
 10
4.094468
 20
0.031800
 30
0.000000
  0
LINE
  8
HUB
 62
     7
  6
CONTINUOUS
 10
5.001466
 20
1.156800
 30
0.000000
 11
5.001466
 21
2.125802
 31
0.000000
  0
LINE
  8
HUB
 62
     7
  6
CONTINUOUS
 10
5.001466
 20
-1.093200
 30
0.000000
 11
5.001466
 21
-2.062202
 31
0.000000
  0
LINE
  8
HUB
 62
     7
  6
CONTINUOUS
 10
5.001466
 20
-0.768112
 30
0.000000
 11
6.376466
 21
-0.905700
 31
0.000000
  0
LINE
  8
HUB
 62
     7
  6
CONTINUOUS
 10
6.376466
 20
0.969300
 30
0.000000
 11
6.376466
 21
1.156800
 31
0.000000
  0
LINE
  8
HUB
 62
     7
  6
CONTINUOUS
 10
6.376466
 20
-0.905700
 30
0.000000
 11
6.376466
 21
-1.093200
 31
0.000000
  0
POINT
  8
HUB
 62
     7
 10
4.251466
 20
0.734795
 30
0.000000
  0
POINT
  8
HUB
 62
     7
 10
4.438966
 20
0.735817
 30
0.000000
  0
POINT
  8
HUB
 62
     7
 10
4.438966
 20
0.837372
 30
0.000000
  0
POINT
  8
HUB
 62
     7
 10
4.438966
 20
0.634270
 30
0.000000
  0
LINE
  8
HUB
 62
     7
  6
CONTINUOUS
 10
4.251466
 20
0.898797
 30
0.000000
 11
4.438966
 21
0.898797
 31
0.000000
  0
LINE
  8
HUB
 62
     7
  6
CONTINUOUS
 10
4.438966
 20
0.837372
 30
0.000000
 11
5.057199
 21
0.837372
 31
0.000000
  0
LINE
  8
HUB
 62
     7
  6
CONTINUOUS
 10
5.001466
 20
-0.768112
 30
0.000000
 11
5.001466
 21
0.837372
 31
0.000000
  0
LINE
  8
HUB
 62
     7
  6
CONTINUOUS
 10
5.057199
 20
0.837372
 30
0.000000
 11
6.376466
 21
0.969300
 31
0.000000
  0
LINE
  8
HUB
 62
     7
  6
CONTINUOUS
 10
4.501466
 20
1.944802
 30
0.000000
 11
5.001466
 21
1.944802
 31
0.000000
  0
LINE
  8
HUB
 62
     7
  6
CONTINUOUS
 10
4.501466
 20
1.553803
 30
0.000000
 11
5.001466
 21
1.553803
 31
0.000000
  0
LINE
  8
HUB
 62
     7
  6
CONTINUOUS
 10
5.138249
 20
1.749299
 30
0.000000
 11
4.501466
 21
1.749299
 31
0.000000
  0
LINE
  8
HUB
 62
     7
  6
CONTINUOUS
 10
4.501466
 20
1.749299
 30
0.000000
 11
4.143609
 21
1.749299
 31
0.000000
  0
LINE
  8
HUB
 62
     7
  6
CONTINUOUS
 10
4.532466
 20
1.911088
 30
0.000000
 11
4.532466
 21
1.587517
 31
0.000000
  0
LINE
  8
HUB
 62
     7
  6
CONTINUOUS
 10
4.563966
 20
1.944802
 30
0.000000
 11
4.563966
 21
1.553803
 31
0.000000
  0
LINE
  8
HUB
 62
     7
  6
CONTINUOUS
 10
4.595216
 20
1.911088
 30
0.000000
 11
4.595216
 21
1.587517
 31
0.000000
  0
LINE
  8
HUB
 62
     7
  6
CONTINUOUS
 10
4.657966
 20
1.911088
 30
0.000000
 11
4.657966
 21
1.587517
 31
0.000000
  0
LINE
  8
HUB
 62
     7
  6
CONTINUOUS
 10
4.720716
 20
1.911088
 30
0.000000
 11
4.720716
 21
1.587517
 31
0.000000
  0
LINE
  8
HUB
 62
     7
  6
CONTINUOUS
 10
4.783466
 20
1.911088
 30
0.000000
 11
4.783466
 21
1.587517
 31
0.000000
  0
LINE
  8
HUB
 62
     7
  6
CONTINUOUS
 10
4.846216
 20
1.911088
 30
0.000000
 11
4.846216
 21
1.587517
 31
0.000000
  0
LINE
  8
HUB
 62
     7
  6
CONTINUOUS
 10
4.908966
 20
1.911088
 30
0.000000
 11
4.908966
 21
1.587517
 31
0.000000
  0
LINE
  8
HUB
 62
     7
  6
CONTINUOUS
 10
4.971715
 20
1.911088
 30
0.000000
 11
4.971715
 21
1.587517
 31
0.000000
  0
LINE
  8
HUB
 62
     7
  6
CONTINUOUS
 10
4.626466
 20
1.944802
 30
0.000000
 11
4.626466
 21
1.553803
 31
0.000000
  0
LINE
  8
HUB
 62
     7
  6
CONTINUOUS
 10
4.688966
 20
1.944802
 30
0.000000
 11
4.688966
 21
1.553803
 31
0.000000
  0
LINE
  8
HUB
 62
     7
  6
CONTINUOUS
 10
4.751466
 20
1.944802
 30
0.000000
 11
4.751466
 21
1.553803
 31
0.000000
  0
LINE
  8
HUB
 62
     7
  6
CONTINUOUS
 10
4.813966
 20
1.944802
 30
0.000000
 11
4.813966
 21
1.553803
 31
0.000000
  0
LINE
  8
HUB
 62
     7
  6
CONTINUOUS
 10
4.876466
 20
1.944802
 30
0.000000
 11
4.876466
 21
1.553803
 31
0.000000
  0
LINE
  8
HUB
 62
     7
  6
CONTINUOUS
 10
4.938966
 20
1.944802
 30
0.000000
 11
4.938966
 21
1.553803
 31
0.000000
  0
LINE
  8
HUB
 62
     7
  6
CONTINUOUS
 10
4.501466
 20
1.944802
 30
0.000000
 11
4.501466
 21
2.125802
 31
0.000000
  0
LINE
  8
HUB
 62
     7
  6
CONTINUOUS
 10
4.501466
 20
2.125802
 30
0.000000
 11
5.001466
 21
2.125802
 31
0.000000
  0
LINE
  8
HUB
 62
     7
  6
CONTINUOUS
 10
5.001466
 20
2.125802
 30
0.000000
 11
5.001466
 21
1.944802
 31
0.000000
  0
LINE
  8
HUB
 62
     7
  6
CONTINUOUS
 10
5.001466
 20
1.944802
 30
0.000000
 11
4.501466
 21
1.944802
 31
0.000000
  0
LINE
  8
HUB
 62
     7
  6
CONTINUOUS
 10
4.501466
 20
2.033897
 30
0.000000
 11
4.590562
 21
1.944802
 31
0.000000
  0
LINE
  8
HUB
 62
     7
  6
CONTINUOUS
 10
4.501466
 20
2.122993
 30
0.000000
 11
4.679657
 21
1.944802
 31
0.000000
  0
LINE
  8
HUB
 62
     7
  6
CONTINUOUS
 10
4.587753
 20
2.125802
 30
0.000000
 11
4.768753
 21
1.944802
 31
0.000000
  0
LINE
  8
HUB
 62
     7
  6
CONTINUOUS
 10
4.676848
 20
2.125802
 30
0.000000
 11
4.857848
 21
1.944802
 31
0.000000
  0
LINE
  8
HUB
 62
     7
  6
CONTINUOUS
 10
4.765944
 20
2.125802
 30
0.000000
 11
4.946944
 21
1.944802
 31
0.000000
  0
LINE
  8
HUB
 62
     7
  6
CONTINUOUS
 10
4.855039
 20
2.125802
 30
0.000000
 11
5.001466
 21
1.979375
 31
0.000000
  0
LINE
  8
HUB
 62
     7
  6
CONTINUOUS
 10
4.944135
 20
2.125802
 30
0.000000
 11
5.001466
 21
2.068470
 31
0.000000
  0
LINE
  8
HUB
 62
     7
  6
CONTINUOUS
 10
5.057199
 20
0.837372
 30
0.000000
 11
4.438966
 21
0.837372
 31
0.000000
  0
LINE
  8
HUB
 62
     7
  6
CONTINUOUS
 10
4.438966
 20
0.837372
 30
0.000000
 11
4.438966
 21
0.898798
 31
0.000000
  0
LINE
  8
HUB
 62
     7
  6
CONTINUOUS
 10
4.438966
 20
0.898798
 30
0.000000
 11
4.251466
 21
0.898798
 31
0.000000
  0
LINE
  8
HUB
 62
     7
  6
CONTINUOUS
 10
4.251466
 20
0.898798
 30
0.000000
 11
4.251466
 21
1.110800
 31
0.000000
  0
LINE
  8
HUB
 62
     7
  6
CONTINUOUS
 10
4.251466
 20
1.110800
 30
0.000000
 11
4.501466
 21
1.110800
 31
0.000000
  0
LINE
  8
HUB
 62
     7
  6
CONTINUOUS
 10
4.501466
 20
1.110800
 30
0.000000
 11
4.501466
 21
1.553801
 31
0.000000
  0
LINE
  8
HUB
 62
     7
  6
CONTINUOUS
 10
4.501466
 20
1.553801
 30
0.000000
 11
5.001466
 21
1.553801
 31
0.000000
  0
LINE
  8
HUB
 62
     7
  6
CONTINUOUS
 10
5.001466
 20
1.553801
 30
0.000000
 11
5.001466
 21
1.156800
 31
0.000000
  0
LINE
  8
HUB
 62
     7
  6
CONTINUOUS
 10
5.001466
 20
1.156800
 30
0.000000
 11
6.376466
 21
1.156800
 31
0.000000
  0
LINE
  8
HUB
 62
     7
  6
CONTINUOUS
 10
6.376466
 20
1.156800
 30
0.000000
 11
6.376466
 21
0.969300
 31
0.000000
  0
LINE
  8
HUB
 62
     7
  6
CONTINUOUS
 10
6.376466
 20
0.969300
 30
0.000000
 11
5.057199
 21
0.837372
 31
0.000000
  0
LINE
  8
HUB
 62
     7
  6
CONTINUOUS
 10
4.251466
 20
0.930341
 30
0.000000
 11
4.283009
 21
0.898798
 31
0.000000
  0
LINE
  8
HUB
 62
     7
  6
CONTINUOUS
 10
4.251466
 20
1.019436
 30
0.000000
 11
4.372104
 21
0.898799
 31
0.000000
  0
LINE
  8
HUB
 62
     7
  6
CONTINUOUS
 10
4.251466
 20
1.108532
 30
0.000000
 11
4.522626
 21
0.837372
 31
0.000000
  0
LINE
  8
HUB
 62
     7
  6
CONTINUOUS
 10
4.338293
 20
1.110800
 30
0.000000
 11
4.611721
 21
0.837372
 31
0.000000
  0
LINE
  8
HUB
 62
     7
  6
CONTINUOUS
 10
4.427389
 20
1.110800
 30
0.000000
 11
4.700817
 21
0.837372
 31
0.000000
  0
LINE
  8
HUB
 62
     7
  6
CONTINUOUS
 10
4.501466
 20
1.125818
 30
0.000000
 11
4.789912
 21
0.837372
 31
0.000000
  0
LINE
  8
HUB
 62
     7
  6
CONTINUOUS
 10
4.501466
 20
1.214914
 30
0.000000
 11
4.879008
 21
0.837372
 31
0.000000
  0
LINE
  8
HUB
 62
     7
  6
CONTINUOUS
 10
4.501466
 20
1.304009
 30
0.000000
 11
4.968103
 21
0.837372
 31
0.000000
  0
LINE
  8
HUB
 62
     7
  6
CONTINUOUS
 10
4.501466
 20
1.393105
 30
0.000000
 11
5.057199
 21
0.837372
 31
0.000000
  0
LINE
  8
HUB
 62
     7
  6
CONTINUOUS
 10
4.501466
 20
1.482200
 30
0.000000
 11
5.138194
 21
0.845472
 31
0.000000
  0
LINE
  8
HUB
 62
     7
  6
CONTINUOUS
 10
4.518961
 20
1.553801
 30
0.000000
 11
5.219190
 21
0.853572
 31
0.000000
  0
LINE
  8
HUB
 62
     7
  6
CONTINUOUS
 10
4.608056
 20
1.553801
 30
0.000000
 11
5.001466
 21
1.160391
 31
0.000000
  0
LINE
  8
HUB
 62
     7
  6
CONTINUOUS
 10
5.005057
 20
1.156800
 30
0.000000
 11
5.300186
 21
0.861671
 31
0.000000
  0
LINE
  8
HUB
 62
     7
  6
CONTINUOUS
 10
4.697152
 20
1.553801
 30
0.000000
 11
5.001466
 21
1.249486
 31
0.000000
  0
LINE
  8
HUB
 62
     7
  6
CONTINUOUS
 10
5.094153
 20
1.156800
 30
0.000000
 11
5.381182
 21
0.869771
 31
0.000000
  0
LINE
  8
HUB
 62
     7
  6
CONTINUOUS
 10
4.786247
 20
1.553801
 30
0.000000
 11
5.001466
 21
1.338582
 31
0.000000
  0
LINE
  8
HUB
 62
     7
  6
CONTINUOUS
 10
5.183248
 20
1.156800
 30
0.000000
 11
5.462178
 21
0.877870
 31
0.000000
  0
LINE
  8
HUB
 62
     7
  6
CONTINUOUS
 10
4.875342
 20
1.553801
 30
0.000000
 11
5.001466
 21
1.427677
 31
0.000000
  0
LINE
  8
HUB
 62
     7
  6
CONTINUOUS
 10
5.272344
 20
1.156800
 30
0.000000
 11
5.543174
 21
0.885970
 31
0.000000
  0
LINE
  8
HUB
 62
     7
  6
CONTINUOUS
 10
4.964438
 20
1.553801
 30
0.000000
 11
5.001466
 21
1.516773
 31
0.000000
  0
LINE
  8
HUB
 62
     7
  6
CONTINUOUS
 10
5.361439
 20
1.156800
 30
0.000000
 11
5.624169
 21
0.894070
 31
0.000000
  0
LINE
  8
HUB
 62
     7
  6
CONTINUOUS
 10
5.450535
 20
1.156800
 30
0.000000
 11
5.705165
 21
0.902169
 31
0.000000
  0
LINE
  8
HUB
 62
     7
  6
CONTINUOUS
 10
5.539630
 20
1.156800
 30
0.000000
 11
5.786161
 21
0.910269
 31
0.000000
  0
LINE
  8
HUB
 62
     7
  6
CONTINUOUS
 10
5.628726
 20
1.156800
 30
0.000000
 11
5.867157
 21
0.918369
 31
0.000000
  0
LINE
  8
HUB
 62
     7
  6
CONTINUOUS
 10
5.717821
 20
1.156800
 30
0.000000
 11
5.948153
 21
0.926468
 31
0.000000
  0
LINE
  8
HUB
 62
     7
  6
CONTINUOUS
 10
5.806917
 20
1.156800
 30
0.000000
 11
6.029149
 21
0.934568
 31
0.000000
  0
LINE
  8
HUB
 62
     7
  6
CONTINUOUS
 10
5.896012
 20
1.156800
 30
0.000000
 11
6.110144
 21
0.942667
 31
0.000000
  0
LINE
  8
HUB
 62
     7
  6
CONTINUOUS
 10
5.985108
 20
1.156800
 30
0.000000
 11
6.191140
 21
0.950767
 31
0.000000
  0
LINE
  8
HUB
 62
     7
  6
CONTINUOUS
 10
6.074203
 20
1.156800
 30
0.000000
 11
6.272136
 21
0.958867
 31
0.000000
  0
LINE
  8
HUB
 62
     7
  6
CONTINUOUS
 10
6.163298
 20
1.156800
 30
0.000000
 11
6.353132
 21
0.966966
 31
0.000000
  0
LINE
  8
HUB
 62
     7
  6
CONTINUOUS
 10
6.252394
 20
1.156800
 30
0.000000
 11
6.376466
 21
1.032727
 31
0.000000
  0
LINE
  8
HUB
 62
     7
  6
CONTINUOUS
 10
6.341489
 20
1.156800
 30
0.000000
 11
6.376466
 21
1.121823
 31
0.000000
  0
POINT
  8
MAINSHFT
 62
     7
 10
5.094468
 20
0.031800
 30
0.000000
  0
LINE
  8
HUB
 62
     7
  6
CONTINUOUS
 10
6.376466
 20
0.969300
 30
0.000000
 11
6.376466
 21
-0.905700
 31
0.000000
  0
CIRCLE
  8
HUB
 62
     7
  6
CONTINUOUS
 10
0.064468
 20
0.031800
 30
0.000000
 40
2.094002
  0
CIRCLE
  8
HUB
 62
     7
  6
CONTINUOUS
 10
0.064468
 20
0.031800
 30
0.000000
 40
1.079002
  0
CIRCLE
  8
HUB
 62
     7
  6
CONTINUOUS
 10
0.064468
 20
0.031800
 30
0.000000
 40
0.500000
  0
CIRCLE
  8
CNTRLINE
 62
     7
  6
CONTINUOUS
 10
0.064468
 20
0.031800
 30
0.000000
 40
1.717499
  0
CIRCLE
  8
FWBOLTCR
 62
     7
  6
CONTINUOUS
 10
0.064468
 20
0.031800
 30
0.000000
 40
1.717499
  0
CIRCLE
  8
FWBOLTCR
 62
     7
  6
CONTINUOUS
 10
0.064468
 20
1.749299
 30
0.000000
 40
0.227501
  0
POINT
  8
FWBOLTCR
 62
     7
 10
1.716728
 20
0.500672
 30
0.000000
  0
POINT
  8
FWBOLTCR
 62
     7
 10
1.551767
 20
-0.827121
 30
0.000000
  0
POINT
  8
FWBOLTCR
 62
     7
 10
0.064468
 20
-1.685699
 30
0.000000
  0
POINT
  8
FWBOLTCR
 62
     7
 10
-1.478552
 20
-0.722450
 30
0.000000
  0
POINT
  8
FWBOLTCR
 62
     7
 10
-1.422905
 20
0.890591
 30
0.000000
  0
CIRCLE
  8
FWBOLTCR
 62
     7
  6
CONTINUOUS
 10
1.716728
 20
0.500672
 30
0.000000
 40
0.227501
  0
CIRCLE
  8
FWBOLTCR
 62
     7
  6
CONTINUOUS
 10
1.551767
 20
-0.827121
 30
0.000000
 40
0.227501
  0
CIRCLE
  8
FWBOLTCR
 62
     7
  6
CONTINUOUS
 10
0.064468
 20
-1.685699
 30
0.000000
 40
0.227501
  0
CIRCLE
  8
FWBOLTCR
 62
     7
  6
CONTINUOUS
 10
-1.478552
 20
-0.722450
 30
0.000000
 40
0.227501
  0
CIRCLE
  8
FWBOLTCR
 62
     7
  6
CONTINUOUS
 10
-1.422905
 20
0.890591
 30
0.000000
 40
0.227501
  0
POINT
  8
FWBOLTCR
 62
     7
 10
0.064468
 20
0.031800
 30
0.000000
  0
LINE
  8
FWBOLTCR
 62
     7
  6
CONTINUOUS
 10
0.064468
 20
0.031800
 30
0.000000
 11
1.716728
 21
0.500672
 31
0.000000
  0
LINE
  8
FWBOLTCR
 62
     7
  6
CONTINUOUS
 10
0.064468
 20
0.031800
 30
0.000000
 11
1.551767
 21
-0.827121
 31
0.000000
  0
LINE
  8
FWBOLTCR
 62
     7
  6
CONTINUOUS
 10
0.064468
 20
0.031800
 30
0.000000
 11
-1.478552
 21
-0.722450
 31
0.000000
  0
LINE
  8
FWBOLTCR
 62
     7
  6
CONTINUOUS
 10
0.064468
 20
0.031800
 30
0.000000
 11
-1.422905
 21
0.890591
 31
0.000000
  0
LINE
  8
BUSHING
 62
     7
  6
CONTINUOUS
 10
9.226469
 20
0.031800
 30
0.000000
 11
9.226469
 21
-0.780700
 31
0.000000
  0
POINT
  8
BUSHING
 62
     7
 10
10.351789
 20
0.734910
 30
0.000000
  0
POINT
  8
BUSHING
 62
     7
 10
10.351789
 20
0.734910
 30
0.000000
  0
POINT
  8
BUSHING
 62
     7
 10
10.351797
 20
0.734910
 30
0.000000
  0
POINT
  8
BUSHING
 62
     7
 10
10.351797
 20
0.734910
 30
0.000000
  0
POINT
  8
BUSHING
 62
     7
 10
9.225328
 20
0.735829
 30
0.000000
  0
POINT
  8
BUSHING
 62
     7
 10
9.350328
 20
0.735829
 30
0.000000
  0
POINT
  8
BUSHING
 62
     7
 10
9.475328
 20
0.735829
 30
0.000000
  0
POINT
  8
BUSHING
 62
     7
 10
9.475328
 20
0.735829
 30
0.000000
  0
LINE
  8
BUSHING
 62
     7
  6
CONTINUOUS
 10
9.350328
 20
0.735829
 30
0.000000
 11
9.350328
 21
0.790528
 31
0.000000
  0
LINE
  8
BUSHING
 62
     7
  6
CONTINUOUS
 10
9.350328
 20
0.735829
 30
0.000000
 11
9.350328
 21
0.681126
 31
0.000000
  0
LINE
  8
BUSHING
 62
     7
  6
CONTINUOUS
 10
9.475328
 20
0.735829
 30
0.000000
 11
9.475328
 21
0.822213
 31
0.000000
  0
LINE
  8
BUSHING
 62
     7
  6
CONTINUOUS
 10
9.475328
 20
0.735829
 30
0.000000
 11
9.475328
 21
0.649441
 31
0.000000
  0
POINT
  8
BUSHING
 62
     7
 10
9.725328
 20
0.735829
 30
0.000000
  0
POINT
  8
BUSHING
 62
     7
 10
9.600328
 20
0.735829
 30
0.000000
  0
POINT
  8
BUSHING
 62
     7
 10
9.600328
 20
0.735829
 30
0.000000
  0
LINE
  8
BUSHING
 62
     7
  6
CONTINUOUS
 10
9.600328
 20
0.735829
 30
0.000000
 11
9.600328
 21
0.790528
 31
0.000000
  0
LINE
  8
BUSHING
 62
     7
  6
CONTINUOUS
 10
9.600328
 20
0.735829
 30
0.000000
 11
9.600328
 21
0.681126
 31
0.000000
  0
POINT
  8
BUSHING
 62
     7
 10
9.850328
 20
0.735829
 30
0.000000
  0
LINE
  8
BUSHING
 62
     7
  6
CONTINUOUS
 10
9.850328
 20
0.735829
 30
0.000000
 11
9.850328
 21
0.790528
 31
0.000000
  0
LINE
  8
BUSHING
 62
     7
  6
CONTINUOUS
 10
9.850328
 20
0.735829
 30
0.000000
 11
9.850328
 21
0.681126
 31
0.000000
  0
POINT
  8
BUSHING
 62
     7
 10
10.100328
 20
0.735829
 30
0.000000
  0
LINE
  8
BUSHING
 62
     7
  6
CONTINUOUS
 10
10.100328
 20
0.735829
 30
0.000000
 11
10.100328
 21
0.790528
 31
0.000000
  0
LINE
  8
BUSHING
 62
     7
  6
CONTINUOUS
 10
10.100328
 20
0.735829
 30
0.000000
 11
10.100328
 21
0.681126
 31
0.000000
  0
POINT
  8
BUSHING
 62
     7
 10
10.350328
 20
0.735829
 30
0.000000
  0
LINE
  8
BUSHING
 62
     7
  6
CONTINUOUS
 10
10.350328
 20
0.735829
 30
0.000000
 11
10.350328
 21
0.790528
 31
0.000000
  0
LINE
  8
BUSHING
 62
     7
  6
CONTINUOUS
 10
10.350328
 20
0.735829
 30
0.000000
 11
10.350328
 21
0.681126
 31
0.000000
  0
POINT
  8
BUSHING
 62
     7
 10
9.725328
 20
0.735829
 30
0.000000
  0
POINT
  8
BUSHING
 62
     7
 10
9.725328
 20
0.735829
 30
0.000000
  0
LINE
  8
BUSHING
 62
     7
  6
CONTINUOUS
 10
9.725328
 20
0.735829
 30
0.000000
 11
9.725328
 21
0.822213
 31
0.000000
  0
LINE
  8
BUSHING
 62
     7
  6
CONTINUOUS
 10
9.725328
 20
0.735829
 30
0.000000
 11
9.725328
 21
0.649441
 31
0.000000
  0
POINT
  8
BUSHING
 62
     7
 10
9.975328
 20
0.735829
 30
0.000000
  0
POINT
  8
BUSHING
 62
     7
 10
9.975328
 20
0.735829
 30
0.000000
  0
LINE
  8
BUSHING
 62
     7
  6
CONTINUOUS
 10
9.975328
 20
0.735829
 30
0.000000
 11
9.975328
 21
0.822213
 31
0.000000
  0
LINE
  8
BUSHING
 62
     7
  6
CONTINUOUS
 10
9.975328
 20
0.735829
 30
0.000000
 11
9.975328
 21
0.649441
 31
0.000000
  0
POINT
  8
BUSHING
 62
     7
 10
10.225328
 20
0.735829
 30
0.000000
  0
POINT
  8
BUSHING
 62
     7
 10
10.225328
 20
0.735829
 30
0.000000
  0
LINE
  8
BUSHING
 62
     7
  6
CONTINUOUS
 10
10.225328
 20
0.735829
 30
0.000000
 11
10.225328
 21
0.822213
 31
0.000000
  0
LINE
  8
BUSHING
 62
     7
  6
CONTINUOUS
 10
10.225328
 20
0.735829
 30
0.000000
 11
10.225328
 21
0.649441
 31
0.000000
  0
LINE
  8
BUSHING
 62
     7
  6
CONTINUOUS
 10
9.226469
 20
0.844300
 30
0.000000
 11
9.226469
 21
0.031800
 31
0.000000
  0
LINE
  8
BUSHING
 62
     7
  6
CONTINUOUS
 10
10.476469
 20
0.031800
 30
0.000000
 11
10.476469
 21
0.969300
 31
0.000000
  0
LINE
  8
BUSHING
 62
     7
  6
CONTINUOUS
 10
10.476469
 20
0.031800
 30
0.000000
 11
10.476469
 21
-0.905700
 31
0.000000
  0
LINE
  8
BUSHING
 62
     7
  6
CONTINUOUS
 10
9.226469
 20
0.594292
 30
0.000000
 11
10.476469
 21
0.594292
 31
0.000000
  0
LINE
  8
BUSHING
 62
     7
  6
CONTINUOUS
 10
9.226469
 20
0.648957
 30
0.000000
 11
10.476469
 21
0.648957
 31
0.000000
  0
LINE
  8
BUSHING
 62
     7
  6
CONTINUOUS
 10
9.228975
 20
-0.530693
 30
0.000000
 11
10.476469
 21
-0.530693
 31
0.000000
  0
LINE
  8
BUSHING
 62
     7
  6
CONTINUOUS
 10
9.226469
 20
-0.780700
 30
0.000000
 11
10.476469
 21
-0.905700
 31
0.000000
  0
LINE
  8
BUSHING
 62
     7
  6
CONTINUOUS
 10
9.226469
 20
0.844300
 30
0.000000
 11
10.476469
 21
0.969300
 31
0.000000
  0
LINE
  8
BUSHING
 62
     7
  6
CONTINUOUS
 10
9.226469
 20
0.820858
 30
0.000000
 11
10.476469
 21
0.820858
 31
0.000000
  0
LINE
  8
CNTRLINE
 62
     7
  6
CONTINUOUS
 10
9.226469
 20
-0.780700
 30
0.000000
 11
9.228975
 21
-0.780700
 31
0.000000
  0
LINE
  8
CNTRLINE
 62
     7
  6
CONTINUOUS
 10
9.228975
 20
-0.780700
 30
0.000000
 11
9.228975
 21
-0.530692
 31
0.000000
  0
LINE
  8
CNTRLINE
 62
     7
  6
CONTINUOUS
 10
9.228975
 20
-0.530692
 30
0.000000
 11
10.476469
 21
-0.530692
 31
0.000000
  0
LINE
  8
CNTRLINE
 62
     7
  6
CONTINUOUS
 10
10.476469
 20
-0.530692
 30
0.000000
 11
10.476469
 21
-0.905700
 31
0.000000
  0
LINE
  8
CNTRLINE
 62
     7
  6
CONTINUOUS
 10
10.476469
 20
-0.905700
 30
0.000000
 11
9.226469
 21
-0.780700
 31
0.000000
  0
LINE
  8
BUSHING
 62
     7
  6
CONTINUOUS
 10
10.431764
 20
-0.901230
 30
0.000000
 11
10.476468
 21
-0.856526
 31
0.000000
  0
LINE
  8
BUSHING
 62
     7
  6
CONTINUOUS
 10
10.351411
 20
-0.893195
 30
0.000000
 11
10.476469
 21
-0.768137
 31
0.000000
  0
LINE
  8
BUSHING
 62
     7
  6
CONTINUOUS
 10
10.271058
 20
-0.885159
 30
0.000000
 11
10.476469
 21
-0.679749
 31
0.000000
  0
LINE
  8
BUSHING
 62
     7
  6
CONTINUOUS
 10
10.190705
 20
-0.877124
 30
0.000000
 11
10.476469
 21
-0.591361
 31
0.000000
  0
LINE
  8
BUSHING
 62
     7
  6
CONTINUOUS
 10
10.110352
 20
-0.869089
 30
0.000000
 11
10.448749
 21
-0.530692
 31
0.000000
  0
LINE
  8
BUSHING
 62
     7
  6
CONTINUOUS
 10
10.029999
 20
-0.861053
 30
0.000000
 11
10.360361
 21
-0.530692
 31
0.000000
  0
LINE
  8
BUSHING
 62
     7
  6
CONTINUOUS
 10
9.949646
 20
-0.853018
 30
0.000000
 11
10.271972
 21
-0.530692
 31
0.000000
  0
LINE
  8
BUSHING
 62
     7
  6
CONTINUOUS
 10
9.869293
 20
-0.844983
 30
0.000000
 11
10.183584
 21
-0.530692
 31
0.000000
  0
LINE
  8
BUSHING
 62
     7
  6
CONTINUOUS
 10
9.788940
 20
-0.836947
 30
0.000000
 11
10.095196
 21
-0.530692
 31
0.000000
  0
LINE
  8
BUSHING
 62
     7
  6
CONTINUOUS
 10
9.708587
 20
-0.828912
 30
0.000000
 11
10.006807
 21
-0.530692
 31
0.000000
  0
LINE
  8
BUSHING
 62
     7
  6
CONTINUOUS
 10
9.628234
 20
-0.820877
 30
0.000000
 11
9.918419
 21
-0.530692
 31
0.000000
  0
LINE
  8
BUSHING
 62
     7
  6
CONTINUOUS
 10
9.547881
 20
-0.812841
 30
0.000000
 11
9.830031
 21
-0.530692
 31
0.000000
  0
LINE
  8
BUSHING
 62
     7
  6
CONTINUOUS
 10
9.467528
 20
-0.804806
 30
0.000000
 11
9.741642
 21
-0.530692
 31
0.000000
  0
LINE
  8
BUSHING
 62
     7
  6
CONTINUOUS
 10
9.387175
 20
-0.796771
 30
0.000000
 11
9.653254
 21
-0.530692
 31
0.000000
  0
LINE
  8
BUSHING
 62
     7
  6
CONTINUOUS
 10
9.306822
 20
-0.788736
 30
0.000000
 11
9.564866
 21
-0.530692
 31
0.000000
  0
LINE
  8
BUSHING
 62
     7
  6
CONTINUOUS
 10
9.228975
 20
-0.778194
 30
0.000000
 11
9.476477
 21
-0.530692
 31
0.000000
  0
LINE
  8
BUSHING
 62
     7
  6
CONTINUOUS
 10
9.228975
 20
-0.689806
 30
0.000000
 11
9.388089
 21
-0.530692
 31
0.000000
  0
LINE
  8
BUSHING
 62
     7
  6
CONTINUOUS
 10
9.228975
 20
-0.601417
 30
0.000000
 11
9.299700
 21
-0.530692
 31
0.000000
  0
LINE
  8
CNTRLINE
 62
     7
  6
CONTINUOUS
 10
10.476469
 20
0.969300
 30
0.000000
 11
10.476469
 21
0.820858
 31
0.000000
  0
LINE
  8
CNTRLINE
 62
     7
  6
CONTINUOUS
 10
10.476469
 20
0.820858
 30
0.000000
 11
9.226469
 21
0.820858
 31
0.000000
  0
LINE
  8
CNTRLINE
 62
     7
  6
CONTINUOUS
 10
9.226469
 20
0.820858
 30
0.000000
 11
9.226469
 21
0.844300
 31
0.000000
  0
LINE
  8
CNTRLINE
 62
     7
  6
CONTINUOUS
 10
9.226469
 20
0.844300
 30
0.000000
 11
10.476469
 21
0.969300
 31
0.000000
  0
LINE
  8
BUSHING
 62
     7
  6
CONTINUOUS
 10
10.416415
 20
0.820858
 30
0.000000
 11
10.476469
 21
0.880911
 31
0.000000
  0
LINE
  8
BUSHING
 62
     7
  6
CONTINUOUS
 10
10.328027
 20
0.820858
 30
0.000000
 11
10.476469
 21
0.969300
 31
0.000000
  0
LINE
  8
BUSHING
 62
     7
  6
CONTINUOUS
 10
10.239638
 20
0.820858
 30
0.000000
 11
10.378259
 21
0.959479
 31
0.000000
  0
LINE
  8
BUSHING
 62
     7
  6
CONTINUOUS
 10
10.151250
 20
0.820858
 30
0.000000
 11
10.280050
 21
0.949658
 31
0.000000
  0
LINE
  8
BUSHING
 62
     7
  6
CONTINUOUS
 10
10.062862
 20
0.820858
 30
0.000000
 11
10.181841
 21
0.939837
 31
0.000000
  0
LINE
  8
BUSHING
 62
     7
  6
CONTINUOUS
 10
9.974473
 20
0.820858
 30
0.000000
 11
10.083632
 21
0.930016
 31
0.000000
  0
LINE
  8
BUSHING
 62
     7
  6
CONTINUOUS
 10
9.886085
 20
0.820858
 30
0.000000
 11
9.985422
 21
0.920195
 31
0.000000
  0
LINE
  8
BUSHING
 62
     7
  6
CONTINUOUS
 10
9.797697
 20
0.820858
 30
0.000000
 11
9.887213
 21
0.910374
 31
0.000000
  0
LINE
  8
BUSHING
 62
     7
  6
CONTINUOUS
 10
9.709308
 20
0.820858
 30
0.000000
 11
9.789004
 21
0.900553
 31
0.000000
  0
LINE
  8
BUSHING
 62
     7
  6
CONTINUOUS
 10
9.620920
 20
0.820858
 30
0.000000
 11
9.690794
 21
0.890732
 31
0.000000
  0
LINE
  8
BUSHING
 62
     7
  6
CONTINUOUS
 10
9.532532
 20
0.820858
 30
0.000000
 11
9.592585
 21
0.880912
 31
0.000000
  0
LINE
  8
BUSHING
 62
     7
  6
CONTINUOUS
 10
9.444143
 20
0.820858
 30
0.000000
 11
9.494376
 21
0.871091
 31
0.000000
  0
LINE
  8
BUSHING
 62
     7
  6
CONTINUOUS
 10
9.355755
 20
0.820858
 30
0.000000
 11
9.396167
 21
0.861270
 31
0.000000
  0
LINE
  8
BUSHING
 62
     7
  6
CONTINUOUS
 10
9.267367
 20
0.820858
 30
0.000000
 11
9.297957
 21
0.851449
 31
0.000000
  0
LINE
  8
CNTRLINE
 62
     7
  6
CONTINUOUS
 10
10.476469
 20
0.648957
 30
0.000000
 11
10.476469
 21
0.594290
 31
0.000000
  0
LINE
  8
CNTRLINE
 62
     7
  6
CONTINUOUS
 10
10.476469
 20
0.594290
 30
0.000000
 11
9.226469
 21
0.594290
 31
0.000000
  0
LINE
  8
CNTRLINE
 62
     7
  6
CONTINUOUS
 10
9.226469
 20
0.594290
 30
0.000000
 11
9.226469
 21
0.648957
 31
0.000000
  0
LINE
  8
CNTRLINE
 62
     7
  6
CONTINUOUS
 10
9.226469
 20
0.648957
 30
0.000000
 11
10.476469
 21
0.648957
 31
0.000000
  0
LINE
  8
BUSHING
 62
     7
  6
CONTINUOUS
 10
10.421802
 20
0.594290
 30
0.000000
 11
10.476469
 21
0.648957
 31
0.000000
  0
LINE
  8
BUSHING
 62
     7
  6
CONTINUOUS
 10
10.333413
 20
0.594290
 30
0.000000
 11
10.388080
 21
0.648957
 31
0.000000
  0
LINE
  8
BUSHING
 62
     7
  6
CONTINUOUS
 10
10.245025
 20
0.594290
 30
0.000000
 11
10.299692
 21
0.648957
 31
0.000000
  0
LINE
  8
BUSHING
 62
     7
  6
CONTINUOUS
 10
10.156637
 20
0.594290
 30
0.000000
 11
10.211304
 21
0.648957
 31
0.000000
  0
LINE
  8
BUSHING
 62
     7
  6
CONTINUOUS
 10
10.068248
 20
0.594290
 30
0.000000
 11
10.122915
 21
0.648957
 31
0.000000
  0
LINE
  8
BUSHING
 62
     7
  6
CONTINUOUS
 10
9.979860
 20
0.594290
 30
0.000000
 11
10.034527
 21
0.648957
 31
0.000000
  0
LINE
  8
BUSHING
 62
     7
  6
CONTINUOUS
 10
9.891472
 20
0.594290
 30
0.000000
 11
9.946139
 21
0.648957
 31
0.000000
  0
LINE
  8
BUSHING
 62
     7
  6
CONTINUOUS
 10
9.803083
 20
0.594290
 30
0.000000
 11
9.857750
 21
0.648957
 31
0.000000
  0
LINE
  8
BUSHING
 62
     7
  6
CONTINUOUS
 10
9.714695
 20
0.594290
 30
0.000000
 11
9.769362
 21
0.648957
 31
0.000000
  0
LINE
  8
BUSHING
 62
     7
  6
CONTINUOUS
 10
9.626306
 20
0.594290
 30
0.000000
 11
9.680973
 21
0.648957
 31
0.000000
  0
LINE
  8
BUSHING
 62
     7
  6
CONTINUOUS
 10
9.537918
 20
0.594290
 30
0.000000
 11
9.592585
 21
0.648957
 31
0.000000
  0
LINE
  8
BUSHING
 62
     7
  6
CONTINUOUS
 10
9.449530
 20
0.594290
 30
0.000000
 11
9.504197
 21
0.648957
 31
0.000000
  0
LINE
  8
BUSHING
 62
     7
  6
CONTINUOUS
 10
9.361141
 20
0.594290
 30
0.000000
 11
9.415808
 21
0.648957
 31
0.000000
  0
LINE
  8
BUSHING
 62
     7
  6
CONTINUOUS
 10
9.272753
 20
0.594290
 30
0.000000
 11
9.327420
 21
0.648957
 31
0.000000
  0
LINE
  8
BUSHING
 62
     7
  6
CONTINUOUS
 10
9.226469
 20
0.636394
 30
0.000000
 11
9.239032
 21
0.648957
 31
0.000000
  0
LINE
  8
BUSHING
 62
     7
  6
CONTINUOUS
 10
9.225328
 20
0.735829
 30
0.000000
 11
10.476469
 21
0.735829
 31
0.000000
  0
CIRCLE
  8
HUB
 62
     7
  6
CONTINUOUS
 10
0.064468
 20
0.031800
 30
0.000000
 40
0.703001
  0
CIRCLE
  8
HUB
 62
     7
  6
CONTINUOUS
 10
0.767469
 20
0.031800
 30
0.000000
 40
0.101551
  0
CIRCLE
  8
HUB
 62
     7
  6
CONTINUOUS
 10
0.767469
 20
0.031800
 30
0.000000
 40
0.163998
  0
CIRCLE
  8
HUB
 62
     7
  6
CONTINUOUS
 10
0.415968
 20
0.640614
 30
0.000000
 40
0.101554
  0
CIRCLE
  8
HUB
 62
     7
  6
CONTINUOUS
 10
0.415968
 20
0.640614
 30
0.000000
 40
0.164001
  0
CIRCLE
  8
HUB
 62
     7
  6
CONTINUOUS
 10
-0.287031
 20
0.640618
 30
0.000000
 40
0.101550
  0
CIRCLE
  8
HUB
 62
     7
  6
CONTINUOUS
 10
-0.287031
 20
0.640618
 30
0.000000
 40
0.163998
  0
CIRCLE
  8
HUB
 62
     7
  6
CONTINUOUS
 10
-0.638533
 20
0.031800
 30
0.000000
 40
0.101551
  0
CIRCLE
  8
HUB
 62
     7
  6
CONTINUOUS
 10
-0.638533
 20
0.031800
 30
0.000000
 40
0.163998
  0
CIRCLE
  8
HUB
 62
     7
  6
CONTINUOUS
 10
-0.287031
 20
-0.577014
 30
0.000000
 40
0.101554
  0
CIRCLE
  8
HUB
 62
     7
  6
CONTINUOUS
 10
-0.287031
 20
-0.577014
 30
0.000000
 40
0.164001
  0
CIRCLE
  8
HUB
 62
     7
  6
CONTINUOUS
 10
0.415968
 20
-0.577018
 30
0.000000
 40
0.101550
  0
CIRCLE
  8
HUB
 62
     7
  6
CONTINUOUS
 10
0.415968
 20
-0.577018
 30
0.000000
 40
0.163998
  0
LINE
  8
DIMEN
 62
     7
  6
CONTINUOUS
 10
3.548203
 20
-1.047203
 30
0.000000
 11
3.485703
 21
-0.938949
 31
0.000000
  0
LINE
  8
DIMEN
 62
     7
  6
CONTINUOUS
 10
3.548203
 20
-1.047203
 30
0.000000
 11
3.610703
 21
-0.938949
 31
0.000000
  0
LINE
  8
DIMEN
 62
     7
  6
CONTINUOUS
 10
3.548203
 20
1.110802
 30
0.000000
 11
3.610703
 21
1.002549
 31
0.000000
  0
LINE
  8
DIMEN
 62
     7
  6
CONTINUOUS
 10
3.548203
 20
1.110802
 30
0.000000
 11
3.485703
 21
1.002549
 31
0.000000
  0
LINE
  8
DIMEN
 62
     7
  6
CONTINUOUS
 10
4.188466
 20
-1.047203
 30
0.000000
 11
3.485203
 21
-1.047203
 31
0.000000
  0
LINE
  8
DIMEN
 62
     7
  6
CONTINUOUS
 10
4.188466
 20
1.110802
 30
0.000000
 11
3.485203
 21
1.110802
 31
0.000000
  0
TEXT
  8
DIMEN
 62
     7
 10
3.022869
 20
0.319804
 30
0.000000
 40
0.125000
  1
2.158"
  0
TEXT
  8
DIMEN
 62
     7
 10
3.505137
 20
0.413806
 30
0.000000
 40
0.125000
  1
+.000"
  0
TEXT
  8
DIMEN
 62
     7
 10
3.545101
 20
0.225806
 30
0.000000
 40
0.125000
  1
-.001"
  0
LINE
  8
DIMEN
 62
     7
  6
CONTINUOUS
 10
3.548203
 20
-1.047203
 30
0.000000
 11
3.548203
 21
0.225806
 31
0.000000
  0
LINE
  8
DIMEN
 62
     7
  6
CONTINUOUS
 10
3.548203
 20
0.538806
 30
0.000000
 11
3.548203
 21
1.110802
 31
0.000000
  0
LINE
  8
DIMEN
 62
     7
  6
CONTINUOUS
 10
2.194837
 20
2.166783
 30
0.000000
 11
2.257837
 21
2.166783
 31
0.000000
  0
LINE
  8
DIMEN
 62
     7
  6
CONTINUOUS
 10
1.277608
 20
1.247568
 30
0.000000
 11
1.245387
 21
1.126792
 31
0.000000
  0
LINE
  8
DIMEN
 62
     7
  6
CONTINUOUS
 10
1.277608
 20
1.247568
 30
0.000000
 11
1.156903
 21
1.215085
 31
0.000000
  0
LINE
  8
DIMEN
 62
     7
  6
CONTINUOUS
 10
-1.148673
 20
-1.183968
 30
0.000000
 11
-1.116451
 21
-1.063193
 31
0.000000
  0
LINE
  8
DIMEN
 62
     7
  6
CONTINUOUS
 10
-1.148673
 20
-1.183968
 30
0.000000
 11
-1.027967
 21
-1.151485
 31
0.000000
  0
LINE
  8
DIMEN
 62
     7
  6
CONTINUOUS
 10
-1.148673
 20
-1.183968
 30
0.000000
 11
2.194837
 21
2.166783
 31
0.000000
  0
TEXT
  8
DIMEN
 62
     7
 10
2.289336
 20
2.104283
 30
0.000000
 40
0.125000
  1
3.435"
  0
TEXT
  8
DIMEN
 62
     7
 10
2.320837
 20
1.916782
 30
0.000000
 40
0.125000
  1
BOLT
  0
TEXT
  8
DIMEN
 62
     7
 10
2.320837
 20
1.729282
 30
0.000000
 40
0.125000
  1
CIRCLE
  0
LINE
  8
DIMEN
 62
     7
  6
CONTINUOUS
 10
2.693229
 20
-2.150169
 30
0.000000
 11
2.756229
 21
-2.150169
 31
0.000000
  0
LINE
  8
DIMEN
 62
     7
  6
CONTINUOUS
 10
0.605405
 20
-0.417197
 30
0.000000
 11
0.482189
 21
-0.396149
 31
0.000000
  0
LINE
  8
DIMEN
 62
     7
  6
CONTINUOUS
 10
0.605405
 20
-0.417197
 30
0.000000
 11
0.562025
 21
-0.299966
 31
0.000000
  0
LINE
  8
DIMEN
 62
     7
  6
CONTINUOUS
 10
-0.476468
 20
0.480797
 30
0.000000
 11
-0.353253
 21
0.459749
 31
0.000000
  0
LINE
  8
DIMEN
 62
     7
  6
CONTINUOUS
 10
-0.476468
 20
0.480797
 30
0.000000
 11
-0.433088
 21
0.363565
 31
0.000000
  0
LINE
  8
DIMEN
 62
     7
  6
CONTINUOUS
 10
-0.476468
 20
0.480797
 30
0.000000
 11
2.693229
 21
-2.150169
 31
0.000000
  0
TEXT
  8
DIMEN
 62
     7
 10
2.787729
 20
-2.212669
 30
0.000000
 40
0.125000
  1
1 13/32"
  0
TEXT
  8
DIMEN
 62
     7
 10
2.819229
 20
-2.400170
 30
0.000000
 40
0.125000
  1
BOLT
  0
TEXT
  8
DIMEN
 62
     7
 10
2.819229
 20
-2.587670
 30
0.000000
 40
0.125000
  1
CIRCLE
  0
LINE
  8
DIMEN
 62
     7
  6
CONTINUOUS
 10
2.370224
 20
0.686119
 30
0.000000
 11
2.280545
 21
0.773197
 31
0.000000
  0
LINE
  8
DIMEN
 62
     7
  6
CONTINUOUS
 10
2.370224
 20
0.686119
 30
0.000000
 11
2.400797
 21
0.807322
 31
0.000000
  0
LINE
  8
DIMEN
 62
     7
  6
CONTINUOUS
 10
0.064468
 20
2.428598
 30
0.000000
 11
0.172721
 21
2.491098
 31
0.000000
  0
LINE
  8
DIMEN
 62
     7
  6
CONTINUOUS
 10
0.064468
 20
2.428598
 30
0.000000
 11
0.172721
 21
2.366098
 31
0.000000
  0
LINE
  8
DIMEN
 62
     7
  6
CONTINUOUS
 10
1.777335
 20
0.517871
 30
0.000000
 11
2.430831
 21
0.703317
 31
0.000000
  0
LINE
  8
DIMEN
 62
     7
  6
CONTINUOUS
 10
0.064468
 20
1.812299
 30
0.000000
 11
0.064468
 21
2.491598
 31
0.000000
  0
TEXT
  8
DIMEN
 62
     7
 10
1.216905
 20
1.881485
 30
0.000000
 40
0.125000
  1
74°
  0
ARC
  8
DIMEN
 62
     7
  6
CONTINUOUS
 10
0.064468
 20
0.031800
 30
0.000000
 40
2.396799
 50
15.842682
 51
49.340015
  0
ARC
  8
DIMEN
 62
     7
  6
CONTINUOUS
 10
0.064468
 20
0.031800
 30
0.000000
 40
2.396799
 50
56.827553
 51
90.000000
  0
LINE
  8
DIMEN
 62
     7
  6
CONTINUOUS
 10
2.141388
 20
-1.167630
 30
0.000000
 11
2.141403
 21
-1.042630
 31
0.000000
  0
LINE
  8
DIMEN
 62
     7
  6
CONTINUOUS
 10
2.141388
 20
-1.167630
 30
0.000000
 11
2.249649
 21
-1.105142
 31
0.000000
  0
LINE
  8
DIMEN
 62
     7
  6
CONTINUOUS
 10
2.371746
 20
0.686550
 30
0.000000
 11
2.461424
 21
0.599472
 31
0.000000
  0
LINE
  8
DIMEN
 62
     7
  6
CONTINUOUS
 10
2.371746
 20
0.686550
 30
0.000000
 11
2.341173
 21
0.565347
 31
0.000000
  0
LINE
  8
DIMEN
 62
     7
  6
CONTINUOUS
 10
1.606323
 20
-0.858628
 30
0.000000
 11
2.195944
 21
-1.199136
 31
0.000000
  0
LINE
  8
DIMEN
 62
     7
  6
CONTINUOUS
 10
1.777335
 20
0.517871
 30
0.000000
 11
2.432353
 21
0.703749
 31
0.000000
  0
TEXT
  8
DIMEN
 62
     7
 10
2.147274
 20
-0.326394
 30
0.000000
 40
0.125000
  1
46°
  0
ARC
  8
DIMEN
 62
     7
  6
CONTINUOUS
 10
0.064468
 20
0.031800
 30
0.000000
 40
2.398381
 50
329.993396
 51
350.649001
  0
ARC
  8
DIMEN
 62
     7
  6
CONTINUOUS
 10
0.064468
 20
0.031800
 30
0.000000
 40
2.398381
 50
355.175960
 51
375.842682
  0
LINE
  8
DIMEN
 62
     7
  6
CONTINUOUS
 10
0.064468
 20
-2.365839
 30
0.000000
 11
0.172722
 21
-2.303339
 31
0.000000
  0
LINE
  8
DIMEN
 62
     7
  6
CONTINUOUS
 10
0.064468
 20
-2.365839
 30
0.000000
 11
0.172722
 21
-2.428339
 31
0.000000
  0
LINE
  8
DIMEN
 62
     7
  6
CONTINUOUS
 10
2.140746
 20
-1.167259
 30
0.000000
 11
2.140732
 21
-1.292259
 31
0.000000
  0
LINE
  8
DIMEN
 62
     7
  6
CONTINUOUS
 10
2.140746
 20
-1.167259
 30
0.000000
 11
2.032486
 21
-1.229747
 31
0.000000
  0
LINE
  8
DIMEN
 62
     7
  6
CONTINUOUS
 10
0.064468
 20
-1.748699
 30
0.000000
 11
0.064468
 21
-2.428839
 31
0.000000
  0
LINE
  8
DIMEN
 62
     7
  6
CONTINUOUS
 10
1.606323
 20
-0.858628
 30
0.000000
 11
2.195302
 21
-1.198766
 31
0.000000
  0
TEXT
  8
DIMEN
 62
     7
 10
0.966662
 20
-2.107186
 30
0.000000
 40
0.125000
  1
60°
  0
ARC
  8
DIMEN
 62
     7
  6
CONTINUOUS
 10
0.064468
 20
0.031800
 30
0.000000
 40
2.397639
 50
270.000000
 51
296.251757
  0
ARC
  8
DIMEN
 62
     7
  6
CONTINUOUS
 10
0.064468
 20
0.031800
 30
0.000000
 40
2.397639
 50
303.888870
 51
329.993388
  0
LINE
  8
DIMEN
 62
     7
  6
CONTINUOUS
 10
-2.076328
 20
-1.014651
 30
0.000000
 11
-1.972638
 21
-1.084460
 31
0.000000
  0
LINE
  8
DIMEN
 62
     7
  6
CONTINUOUS
 10
-2.076328
 20
-1.014651
 30
0.000000
 11
-2.084939
 21
-1.139354
 31
0.000000
  0
LINE
  8
DIMEN
 62
     7
  6
CONTINUOUS
 10
0.064468
 20
-2.351070
 30
0.000000
 11
-0.043785
 21
-2.413570
 31
0.000000
  0
LINE
  8
DIMEN
 62
     7
  6
CONTINUOUS
 10
0.064468
 20
-2.351070
 30
0.000000
 11
-0.043785
 21
-2.288570
 31
0.000000
  0
LINE
  8
DIMEN
 62
     7
  6
CONTINUOUS
 10
-1.535152
 20
-0.750117
 30
0.000000
 11
-2.132928
 21
-1.042318
 31
0.000000
  0
LINE
  8
DIMEN
 62
     7
  6
CONTINUOUS
 10
0.064468
 20
-1.748699
 30
0.000000
 11
0.064468
 21
-2.414070
 31
0.000000
  0
TEXT
  8
DIMEN
 62
     7
 10
-1.494655
 20
-2.052038
 30
0.000000
 40
0.125000
  1
64°
  0
ARC
  8
DIMEN
 62
     7
  6
CONTINUOUS
 10
0.064468
 20
0.031800
 30
0.000000
 40
2.382870
 50
206.050022
 51
233.981884
  0
ARC
  8
DIMEN
 62
     7
  6
CONTINUOUS
 10
0.064468
 20
0.031800
 30
0.000000
 40
2.382870
 50
241.885534
 51
270.000000
  0
LINE
  8
DIMEN
 62
     7
  6
CONTINUOUS
 10
-2.013940
 20
1.231847
 30
0.000000
 11
-2.013943
 21
1.106847
 31
0.000000
  0
LINE
  8
DIMEN
 62
     7
  6
CONTINUOUS
 10
-2.013940
 20
1.231847
 30
0.000000
 11
-2.122195
 21
1.169350
 31
0.000000
  0
LINE
  8
DIMEN
 62
     7
  6
CONTINUOUS
 10
-2.091698
 20
-1.022164
 30
0.000000
 11
-2.195389
 21
-0.952355
 31
0.000000
  0
LINE
  8
DIMEN
 62
     7
  6
CONTINUOUS
 10
-2.091698
 20
-1.022164
 30
0.000000
 11
-2.083088
 21
-0.897461
 31
0.000000
  0
LINE
  8
DIMEN
 62
     7
  6
CONTINUOUS
 10
-1.477464
 20
0.922093
 30
0.000000
 11
-2.068498
 21
1.263349
 31
0.000000
  0
LINE
  8
DIMEN
 62
     7
  6
CONTINUOUS
 10
-1.535152
 20
-0.750117
 30
0.000000
 11
-2.148298
 21
-1.049831
 31
0.000000
  0
TEXT
  8
DIMEN
 62
     7
 10
-2.613053
 20
-0.288173
 30
0.000000
 40
0.125000
  1
56°
  0
ARC
  8
DIMEN
 62
     7
  6
CONTINUOUS
 10
0.064468
 20
0.031800
 30
0.000000
 40
2.399978
 50
149.998392
 51
183.905685
  0
ARC
  8
DIMEN
 62
     7
  6
CONTINUOUS
 10
0.064468
 20
0.031800
 30
0.000000
 40
2.399978
 50
188.421158
 51
206.050015
  0
LINE
  8
DIMEN
 62
     7
  6
CONTINUOUS
 10
-1.325998
 20
2.440155
 30
0.000000
 11
-1.388498
 21
2.331902
 31
0.000000
  0
LINE
  8
DIMEN
 62
     7
  6
CONTINUOUS
 10
-1.325998
 20
2.440155
 30
0.000000
 11
-1.450998
 21
2.440155
 31
0.000000
  0
LINE
  8
DIMEN
 62
     7
  6
CONTINUOUS
 10
-2.716462
 20
0.031800
 30
0.000000
 11
-2.778962
 21
0.140053
 31
0.000000
  0
LINE
  8
DIMEN
 62
     7
  6
CONTINUOUS
 10
-2.716462
 20
0.031800
 30
0.000000
 11
-2.653962
 21
0.140053
 31
0.000000
  0
LINE
  8
DIMEN
 62
     7
  6
CONTINUOUS
 10
-0.400532
 20
0.837202
 30
0.000000
 11
-1.357498
 21
2.494715
 31
0.000000
  0
LINE
  8
DIMEN
 62
     7
  6
CONTINUOUS
 10
-0.865530
 20
0.031800
 30
0.000000
 11
-2.779462
 21
0.031800
 31
0.000000
  0
TEXT
  8
DIMEN
 62
     7
 10
-2.640394
 20
1.359764
 30
0.000000
 40
0.125000
  1
60°
  0
ARC
  8
DIMEN
 62
     7
  6
CONTINUOUS
 10
0.064468
 20
0.031800
 30
0.000000
 40
2.780930
 50
120.000022
 51
147.737333
  0
ARC
  8
DIMEN
 62
     7
  6
CONTINUOUS
 10
0.064468
 20
0.031800
 30
0.000000
 40
2.780930
 50
152.212205
 51
180.000000
  0
LINE
  8
DIMEN
 62
     7
  6
CONTINUOUS
 10
0.064468
 20
2.430030
 30
0.000000
 11
-0.043785
 21
2.367530
 31
0.000000
  0
LINE
  8
DIMEN
 62
     7
  6
CONTINUOUS
 10
0.064468
 20
2.430030
 30
0.000000
 11
-0.043785
 21
2.492530
 31
0.000000
  0
LINE
  8
DIMEN
 62
     7
  6
CONTINUOUS
 10
-2.012426
 20
1.230973
 30
0.000000
 11
-2.012422
 21
1.355973
 31
0.000000
  0
LINE
  8
DIMEN
 62
     7
  6
CONTINUOUS
 10
-2.012426
 20
1.230973
 30
0.000000
 11
-1.904171
 21
1.293470
 31
0.000000
  0
LINE
  8
DIMEN
 62
     7
  6
CONTINUOUS
 10
0.064468
 20
1.812299
 30
0.000000
 11
0.064468
 21
2.493030
 31
0.000000
  0
LINE
  8
DIMEN
 62
     7
  6
CONTINUOUS
 10
-1.477464
 20
0.922093
 30
0.000000
 11
-2.066985
 21
1.262475
 31
0.000000
  0
TEXT
  8
DIMEN
 62
     7
 10
-1.144537
 20
2.187149
 30
0.000000
 40
0.125000
  1
60°
  0
ARC
  8
DIMEN
 62
     7
  6
CONTINUOUS
 10
0.064468
 20
0.031800
 30
0.000000
 40
2.398230
 50
90.000000
 51
108.836538
  0
ARC
  8
DIMEN
 62
     7
  6
CONTINUOUS
 10
0.064468
 20
0.031800
 30
0.000000
 40
2.398230
 50
115.983264
 51
149.998392
  0
LINE
  8
DIMEN
 62
     7
  6
CONTINUOUS
 10
-0.178164
 20
-0.699668
 30
0.000000
 11
1.441531
 21
-2.810665
 31
0.000000
  0
LINE
  8
DIMEN
 62
     7
  6
CONTINUOUS
 10
-0.178164
 20
-0.699668
 30
0.000000
 11
-0.062680
 21
-0.747508
 31
0.000000
  0
LINE
  8
DIMEN
 62
     7
  6
CONTINUOUS
 10
-0.178164
 20
-0.699668
 30
0.000000
 11
-0.161853
 21
-0.823600
 31
0.000000
  0
LINE
  8
DIMEN
 62
     7
  6
CONTINUOUS
 10
1.441531
 20
-2.810665
 30
0.000000
 11
1.566531
 21
-2.810665
 31
0.000000
  0
TEXT
  8
DIMEN
 62
     7
 10
1.629531
 20
-2.873166
 30
0.000000
 40
0.125000
  1
SEE NOTE B
  0
LINE
  8
DIMEN
 62
     7
  6
CONTINUOUS
 10
0.233569
 20
-1.837886
 30
0.000000
 11
1.256643
 21
-3.191204
 31
0.000000
  0
LINE
  8
DIMEN
 62
     7
  6
CONTINUOUS
 10
0.233569
 20
-1.837886
 30
0.000000
 11
0.348707
 21
-1.886550
 31
0.000000
  0
LINE
  8
DIMEN
 62
     7
  6
CONTINUOUS
 10
0.233569
 20
-1.837886
 30
0.000000
 11
0.248994
 21
-1.961931
 31
0.000000
  0
LINE
  8
DIMEN
 62
     7
  6
CONTINUOUS
 10
1.256643
 20
-3.191204
 30
0.000000
 11
1.381643
 21
-3.191204
 31
0.000000
  0
TEXT
  8
DIMEN
 62
     7
 10
1.444643
 20
-3.253703
 30
0.000000
 40
0.125000
  1
SEE NOTE C
  0
LINE
  8
DIMEN
 62
     7
  6
CONTINUOUS
 10
4.251466
 20
-1.268352
 30
0.000000
 11
4.143213
 21
-1.330852
 31
0.000000
  0
LINE
  8
DIMEN
 62
     7
  6
CONTINUOUS
 10
4.251466
 20
-1.268352
 30
0.000000
 11
4.143213
 21
-1.205852
 31
0.000000
  0
LINE
  8
DIMEN
 62
     7
  6
CONTINUOUS
 10
4.501466
 20
-1.268352
 30
0.000000
 11
4.609719
 21
-1.205852
 31
0.000000
  0
LINE
  8
DIMEN
 62
     7
  6
CONTINUOUS
 10
4.501466
 20
-1.268352
 30
0.000000
 11
4.609719
 21
-1.330852
 31
0.000000
  0
LINE
  8
DIMEN
 62
     7
  6
CONTINUOUS
 10
4.251466
 20
-1.110203
 30
0.000000
 11
4.251466
 21
-1.331352
 31
0.000000
  0
LINE
  8
DIMEN
 62
     7
  6
CONTINUOUS
 10
4.501466
 20
-1.110203
 30
0.000000
 11
4.501466
 21
-1.331352
 31
0.000000
  0
TEXT
  8
DIMEN
 62
     7
 10
3.602869
 20
-1.330853
 30
0.000000
 40
0.125000
  1
1/4"
  0
LINE
  8
DIMEN
 62
     7
  6
CONTINUOUS
 10
4.251466
 20
-1.268352
 30
0.000000
 11
4.001466
 21
-1.268352
 31
0.000000
  0
LINE
  8
DIMEN
 62
     7
  6
CONTINUOUS
 10
4.501466
 20
-1.268352
 30
0.000000
 11
4.751466
 21
-1.268352
 31
0.000000
  0
LINE
  8
DIMEN
 62
     7
  6
CONTINUOUS
 10
4.501466
 20
-2.243587
 30
0.000000
 11
4.393213
 21
-2.306087
 31
0.000000
  0
LINE
  8
DIMEN
 62
     7
  6
CONTINUOUS
 10
4.501466
 20
-2.243587
 30
0.000000
 11
4.393213
 21
-2.181087
 31
0.000000
  0
LINE
  8
DIMEN
 62
     7
  6
CONTINUOUS
 10
5.001466
 20
-2.243587
 30
0.000000
 11
5.109719
 21
-2.181087
 31
0.000000
  0
LINE
  8
DIMEN
 62
     7
  6
CONTINUOUS
 10
5.001466
 20
-2.243587
 30
0.000000
 11
5.109719
 21
-2.306087
 31
0.000000
  0
LINE
  8
DIMEN
 62
     7
  6
CONTINUOUS
 10
4.501466
 20
-2.125202
 30
0.000000
 11
4.501466
 21
-2.306587
 31
0.000000
  0
LINE
  8
DIMEN
 62
     7
  6
CONTINUOUS
 10
5.001466
 20
-2.125202
 30
0.000000
 11
5.001466
 21
-2.306587
 31
0.000000
  0
TEXT
  8
DIMEN
 62
     7
 10
4.598262
 20
-2.306086
 30
0.000000
 40
0.125000
  1
1/2"
  0
LINE
  8
DIMEN
 62
     7
  6
CONTINUOUS
 10
4.501466
 20
-2.243587
 30
0.000000
 11
4.251466
 21
-2.243587
 31
0.000000
  0
LINE
  8
DIMEN
 62
     7
  6
CONTINUOUS
 10
5.001466
 20
-2.243587
 30
0.000000
 11
5.251466
 21
-2.243587
 31
0.000000
  0
LINE
  8
DIMEN
 62
     7
  6
CONTINUOUS
 10
5.001466
 20
-2.243587
 30
0.000000
 11
5.109719
 21
-2.181087
 31
0.000000
  0
LINE
  8
DIMEN
 62
     7
  6
CONTINUOUS
 10
5.001466
 20
-2.243587
 30
0.000000
 11
5.109719
 21
-2.306087
 31
0.000000
  0
LINE
  8
DIMEN
 62
     7
  6
CONTINUOUS
 10
6.376466
 20
-2.243587
 30
0.000000
 11
6.268213
 21
-2.306087
 31
0.000000
  0
LINE
  8
DIMEN
 62
     7
  6
CONTINUOUS
 10
6.376466
 20
-2.243587
 30
0.000000
 11
6.268213
 21
-2.181087
 31
0.000000
  0
LINE
  8
DIMEN
 62
     7
  6
CONTINUOUS
 10
5.001466
 20
-2.125202
 30
0.000000
 11
5.001466
 21
-2.306587
 31
0.000000
  0
LINE
  8
DIMEN
 62
     7
  6
CONTINUOUS
 10
6.376466
 20
-1.156200
 30
0.000000
 11
6.376466
 21
-2.306587
 31
0.000000
  0
TEXT
  8
DIMEN
 62
     7
 10
5.422635
 20
-2.306086
 30
0.000000
 40
0.125000
  1
1 3/8"
  0
LINE
  8
DIMEN
 62
     7
  6
CONTINUOUS
 10
5.001466
 20
-2.243587
 30
0.000000
 11
5.391135
 21
-2.243587
 31
0.000000
  0
LINE
  8
DIMEN
 62
     7
  6
CONTINUOUS
 10
5.986797
 20
-2.243587
 30
0.000000
 11
6.376466
 21
-2.243587
 31
0.000000
  0
LINE
  8
DIMEN
 62
     7
  6
CONTINUOUS
 10
4.251466
 20
-2.477241
 30
0.000000
 11
4.359719
 21
-2.414741
 31
0.000000
  0
LINE
  8
DIMEN
 62
     7
  6
CONTINUOUS
 10
4.251466
 20
-2.477241
 30
0.000000
 11
4.359719
 21
-2.539741
 31
0.000000
  0
LINE
  8
DIMEN
 62
     7
  6
CONTINUOUS
 10
6.376466
 20
-2.477241
 30
0.000000
 11
6.268213
 21
-2.539741
 31
0.000000
  0
LINE
  8
DIMEN
 62
     7
  6
CONTINUOUS
 10
6.376466
 20
-2.477241
 30
0.000000
 11
6.268213
 21
-2.414741
 31
0.000000
  0
LINE
  8
DIMEN
 62
     7
  6
CONTINUOUS
 10
4.251466
 20
-1.110203
 30
0.000000
 11
4.251466
 21
-2.540241
 31
0.000000
  0
LINE
  8
DIMEN
 62
     7
  6
CONTINUOUS
 10
6.376466
 20
-1.156200
 30
0.000000
 11
6.376466
 21
-2.540241
 31
0.000000
  0
TEXT
  8
DIMEN
 62
     7
 10
5.051051
 20
-2.539741
 30
0.000000
 40
0.125000
  1
2 1/8"
  0
LINE
  8
DIMEN
 62
     7
  6
CONTINUOUS
 10
4.251466
 20
-2.477241
 30
0.000000
 11
5.019551
 21
-2.477241
 31
0.000000
  0
LINE
  8
DIMEN
 62
     7
  6
CONTINUOUS
 10
5.608382
 20
-2.477241
 30
0.000000
 11
6.376466
 21
-2.477241
 31
0.000000
  0
LINE
  8
DIMEN
 62
     7
  6
CONTINUOUS
 10
6.894948
 20
-1.093200
 30
0.000000
 11
6.832448
 21
-0.984947
 31
0.000000
  0
LINE
  8
DIMEN
 62
     7
  6
CONTINUOUS
 10
6.894948
 20
-1.093200
 30
0.000000
 11
6.957448
 21
-0.984947
 31
0.000000
  0
LINE
  8
DIMEN
 62
     7
  6
CONTINUOUS
 10
6.894948
 20
1.156800
 30
0.000000
 11
6.957448
 21
1.048547
 31
0.000000
  0
LINE
  8
DIMEN
 62
     7
  6
CONTINUOUS
 10
6.894948
 20
1.156800
 30
0.000000
 11
6.832448
 21
1.048547
 31
0.000000
  0
LINE
  8
DIMEN
 62
     7
  6
CONTINUOUS
 10
6.439466
 20
-1.093200
 30
0.000000
 11
6.957948
 21
-1.093200
 31
0.000000
  0
LINE
  8
DIMEN
 62
     7
  6
CONTINUOUS
 10
6.439466
 20
1.156800
 30
0.000000
 11
6.957948
 21
1.156800
 31
0.000000
  0
TEXT
  8
DIMEN
 62
     7
 10
6.622885
 20
0.192835
 30
0.000000
 40
0.125000
  1
2 1/4"
  0
LINE
  8
DIMEN
 62
     7
  6
CONTINUOUS
 10
6.894948
 20
-1.093200
 30
0.000000
 11
6.894948
 21
0.161333
 31
0.000000
  0
LINE
  8
DIMEN
 62
     7
  6
CONTINUOUS
 10
6.894948
 20
0.349333
 30
0.000000
 11
6.894948
 21
1.156800
 31
0.000000
  0
LINE
  8
DIMEN
 62
     7
  6
CONTINUOUS
 10
7.542705
 20
-2.062202
 30
0.000000
 11
7.480205
 21
-1.953949
 31
0.000000
  0
LINE
  8
DIMEN
 62
     7
  6
CONTINUOUS
 10
7.542705
 20
-2.062202
 30
0.000000
 11
7.605205
 21
-1.953949
 31
0.000000
  0
LINE
  8
DIMEN
 62
     7
  6
CONTINUOUS
 10
7.542705
 20
2.125802
 30
0.000000
 11
7.605205
 21
2.017548
 31
0.000000
  0
LINE
  8
DIMEN
 62
     7
  6
CONTINUOUS
 10
7.542705
 20
2.125802
 30
0.000000
 11
7.480205
 21
2.017548
 31
0.000000
  0
LINE
  8
DIMEN
 62
     7
  6
CONTINUOUS
 10
5.064466
 20
-2.062202
 30
0.000000
 11
7.605705
 21
-2.062202
 31
0.000000
  0
LINE
  8
DIMEN
 62
     7
  6
CONTINUOUS
 10
5.064466
 20
2.125802
 30
0.000000
 11
7.605705
 21
2.125802
 31
0.000000
  0
TEXT
  8
DIMEN
 62
     7
 10
7.203629
 20
-0.315062
 30
0.000000
 40
0.125000
  1
4 3/16"
  0
LINE
  8
DIMEN
 62
     7
  6
CONTINUOUS
 10
7.542705
 20
-2.062202
 30
0.000000
 11
7.542705
 21
-0.346563
 31
0.000000
  0
LINE
  8
DIMEN
 62
     7
  6
CONTINUOUS
 10
7.542705
 20
-0.158563
 30
0.000000
 11
7.542705
 21
2.125802
 31
0.000000
  0
LINE
  8
DIMEN
 62
     7
  6
CONTINUOUS
 10
5.721457
 20
0.903798
 30
0.000000
 11
8.468072
 21
-2.109554
 31
0.000000
  0
LINE
  8
DIMEN
 62
     7
  6
CONTINUOUS
 10
5.721457
 20
0.903798
 30
0.000000
 11
5.840571
 21
0.865895
 31
0.000000
  0
LINE
  8
DIMEN
 62
     7
  6
CONTINUOUS
 10
5.721457
 20
0.903798
 30
0.000000
 11
5.748189
 21
0.781690
 31
0.000000
  0
LINE
  8
DIMEN
 62
     7
  6
CONTINUOUS
 10
8.468072
 20
-2.109554
 30
0.000000
 11
8.593072
 21
-2.109554
 31
0.000000
  0
TEXT
  8
DIMEN
 62
     7
 10
8.656072
 20
-2.172054
 30
0.000000
 40
0.125000
  1
BORE TO SUIT BUSHING
  0
LINE
  8
DIMEN
 62
     7
  6
CONTINUOUS
 10
9.225328
 20
0.735829
 30
0.000000
 11
8.843879
 21
1.642006
 31
0.000000
  0
LINE
  8
DIMEN
 62
     7
  6
CONTINUOUS
 10
9.225328
 20
0.735829
 30
0.000000
 11
9.125724
 21
0.811355
 31
0.000000
  0
LINE
  8
DIMEN
 62
     7
  6
CONTINUOUS
 10
9.225328
 20
0.735829
 30
0.000000
 11
9.240933
 21
0.859851
 31
0.000000
  0
LINE
  8
DIMEN
 62
     7
  6
CONTINUOUS
 10
8.843879
 20
1.642006
 30
0.000000
 11
8.968879
 21
1.642006
 31
0.000000
  0
TEXT
  8
DIMEN
 62
     7
 10
9.031879
 20
1.579505
 30
0.000000
 40
0.125000
  1
SEE NOTE A
  0
LINE
  8
CALCS
 62
     7
  6
CONTINUOUS
 10
-7.989102
 20
26.167639
 30
0.000000
 11
7.258898
 21
26.167639
 31
0.000000
  0
CIRCLE
  8
CALCS
 62
     7
  6
CONTINUOUS
 10
-7.989102
 20
26.167639
 30
0.000000
 40
7.864000
  0
CIRCLE
  8
CALCS
 62
     7
  6
CONTINUOUS
 10
7.258898
 20
26.167639
 30
0.000000
 40
7.820000
  0
LINE
  8
CALCS
 62
     2
  6
CONTINUOUS
 10
-0.342473
 20
24.331457
 30
0.000000
 11
-0.342473
 21
26.167639
 31
0.000000
  0
LINE
  8
PILOTBRN
 62
     7
  6
CONTINUOUS
 10
4.251466
 20
-0.343200
 30
0.000000
 11
4.807466
 21
-0.343200
 31
0.000000
  0
LINE
  8
MAINSHFT
 62
     7
  6
CONTINUOUS
 10
5.094468
 20
0.405800
 30
0.000000
 11
5.094468
 21
-0.342201
 31
0.000000
  0
LINE
  8
MAINSHFT
 62
     7
  6
CONTINUOUS
 10
5.094468
 20
-0.342201
 30
0.000000
 11
4.094468
 21
-0.342201
 31
0.000000
  0
LINE
  8
MAINSHFT
 62
     7
  6
CONTINUOUS
 10
4.094468
 20
-0.342201
 30
0.000000
 11
4.094468
 21
0.405800
 31
0.000000
  0
LINE
  8
MAINSHFT
 62
     7
  6
CONTINUOUS
 10
4.094468
 20
0.405800
 30
0.000000
 11
5.094468
 21
0.405800
 31
0.000000
  0
LINE
  8
CNTRLINE
 62
     7
  6
CONTINUOUS
 10
11.976469
 20
0.031800
 30
0.000000
 11
-3.258203
 21
0.031800
 31
0.000000
  0
LINE
  8
CNTRLINE
 62
     7
  6
CONTINUOUS
 10
0.064468
 20
3.354471
 30
0.000000
 11
0.064468
 21
-3.290871
 31
0.000000
  0
TEXT
  8
APPLICATION INFO
 62
     7
 10
-2.245529
 20
5.498407
 30
0.000000
 40
0.100000
  1
MFG:
  0
TEXT
  8
APPLICATION INFO
 62
     7
 10
-2.343187
 20
5.248403
 30
0.000000
 40
0.100000
  1
MAKE:
  0
TEXT
  8
APPLICATION INFO
 62
     7
 10
-2.242940
 20
4.998404
 30
0.000000
 40
0.100000
  1
MOD:
  0
TEXT
  8
APPLICATION INFO
 62
     7
 10
-2.320221
 20
4.748405
 30
0.000000
 40
0.100000
  1
YR(S):
  0
TEXT
  8
APPLICATION INFO
 62
     7
 10
-2.239295
 20
4.498406
 30
0.000000
 40
0.100000
  1
ENG:
  0
TEXT
  8
APPLICATION INFO
 62
     7
 10
-2.421810
 20
4.248407
 30
0.000000
 40
0.100000
  1
TRANS:
  0
TEXT
  8
APPLICATION INFO
 62
     7
 10
-2.223695
 20
3.998403
 30
0.000000
 40
0.100000
  1
M.D.:
  0
LINE
  8
APPLICATION INFO
 62
     7
  6
CONTINUOUS
 10
-0.212613
 20
5.992555
 30
0.000000
 11
-2.539103
 21
5.992555
 31
0.000000
  0
LINE
  8
APPLICATION INFO
 62
     7
  6
CONTINUOUS
 10
-2.539103
 20
5.417542
 30
0.000000
 11
-0.212613
 21
5.417542
 31
0.000000
  0
LINE
  8
APPLICATION INFO
 62
     7
  6
CONTINUOUS
 10
-2.539103
 20
5.166387
 30
0.000000
 11
-0.212613
 21
5.166387
 31
0.000000
  0
LINE
  8
APPLICATION INFO
 62
     7
  6
CONTINUOUS
 10
-2.539103
 20
4.915232
 30
0.000000
 11
-0.212613
 21
4.915232
 31
0.000000
  0
LINE
  8
APPLICATION INFO
 62
     7
  6
CONTINUOUS
 10
-2.539103
 20
4.664076
 30
0.000000
 11
-0.212613
 21
4.664076
 31
0.000000
  0
LINE
  8
APPLICATION INFO
 62
     7
  6
CONTINUOUS
 10
-2.539103
 20
4.412921
 30
0.000000
 11
-0.212613
 21
4.412921
 31
0.000000
  0
LINE
  8
APPLICATION INFO
 62
     7
  6
CONTINUOUS
 10
-2.539103
 20
4.161766
 30
0.000000
 11
-0.212613
 21
4.161766
 31
0.000000
  0
LINE
  8
APPLICATION INFO
 62
     7
  6
CONTINUOUS
 10
-2.539103
 20
3.910611
 30
0.000000
 11
-0.212613
 21
3.910611
 31
0.000000
  0
LINE
  8
APPLICATION INFO
 62
     7
  6
CONTINUOUS
 10
-2.539103
 20
5.668697
 30
0.000000
 11
-0.212613
 21
5.668697
 31
0.000000
  0
LINE
  8
APPLICATION INFO
 62
     7
  6
CONTINUOUS
 10
-2.539103
 20
3.659456
 30
0.000000
 11
-0.212613
 21
3.659456
 31
0.000000
  0
LINE
  8
APPLICATION INFO
 62
     7
  6
CONTINUOUS
 10
-2.539103
 20
3.408300
 30
0.000000
 11
-0.212613
 21
3.408300
 31
0.000000
  0
LINE
  8
APPLICATION INFO
 62
     7
  6
CONTINUOUS
 10
-1.878169
 20
5.668697
 30
0.000000
 11
-1.878169
 21
3.910611
 31
0.000000
  0
TEXT
  8
APPLICATION INFO
 62
     7
 10
-2.402823
 20
5.781192
 30
0.000000
 40
0.100000
  1
APPLICATION INFORMATION
  0
LINE
  8
APPLICATION INFO
 62
     7
  6
CONTINUOUS
 10
-2.539103
 20
3.157145
 30
0.000000
 11
-0.212613
 21
3.157145
 31
0.000000
  0
LINE
  8
APPLICATION INFO
 62
     7
  6
CONTINUOUS
 10
-2.539103
 20
2.905990
 30
0.000000
 11
-0.212613
 21
2.905990
 31
0.000000
  0
LINE
  8
APPLICATION INFO
 62
     7
  6
CONTINUOUS
 10
-2.539103
 20
5.992555
 30
0.000000
 11
-2.539103
 21
2.905990
 31
0.000000
  0
LINE
  8
APPLICATION INFO
 62
     7
  6
CONTINUOUS
 10
-1.375858
 20
3.910611
 30
0.000000
 11
-1.375858
 21
2.905990
 31
0.000000
  0
LINE
  8
APPLICATION INFO
 62
     7
  6
CONTINUOUS
 10
-0.212613
 20
2.905990
 30
0.000000
 11
-0.212613
 21
5.992555
 31
0.000000
  0
TEXT
  8
APPLICATION INFO
 62
     7
 10
-2.354042
 20
3.718939
 30
0.000000
 40
0.100000
  1
MOTOR       RING DIM
  0
TEXT
  8
APPLICATION INFO
 62
     7
 10
-2.214924
 20
5.484609
 30
0.000000
 40
0.100000
  1
          CHRYSLER
  0
TEXT
  8
APPLICATION INFO
 62
     7
 10
-2.214924
 20
5.234610
 30
0.000000
 40
0.100000
  1
          DODGE
  0
TEXT
  8
APPLICATION INFO
 62
     7
 10
-2.214924
 20
4.984611
 30
0.000000
 40
0.100000
  1
          DAKOTA
  0
TEXT
  8
APPLICATION INFO
 62
     7
 10
-2.214924
 20
4.734612
 30
0.000000
 40
0.100000
  1
          '87-'01
  0
TEXT
  8
APPLICATION INFO
 62
     7
 10
-2.214924
 20
4.484608
 30
0.000000
 40
0.100000
  1
          3.9 L V6
  0
TEXT
  8
APPLICATION INFO
 62
     7
 10
-2.214924
 20
4.234609
 30
0.000000
 40
0.100000
  1
          UNKNOWN
  0
TEXT
  8
APPLICATION INFO
 62
     7
 10
-2.214924
 20
3.984610
 30
0.000000
 40
0.100000
  1
          1.642"
  0
TEXT
  8
APPLICATION INFO
 62
     7
 10
-2.214924
 20
3.484612
 30
0.000000
 40
0.100000
  1
ADC 9"     1.655"
  0
LINE
  8
DIMEN
 62
     7
  6
CONTINUOUS
 10
8.755371
 20
-0.780700
 30
0.000000
 11
8.692871
 21
-0.672447
 31
0.000000
  0
LINE
  8
DIMEN
 62
     7
  6
CONTINUOUS
 10
8.755371
 20
-0.780700
 30
0.000000
 11
8.817871
 21
-0.672447
 31
0.000000
  0
LINE
  8
DIMEN
 62
     7
  6
CONTINUOUS
 10
8.755371
 20
0.844300
 30
0.000000
 11
8.817871
 21
0.736047
 31
0.000000
  0
LINE
  8
DIMEN
 62
     7
  6
CONTINUOUS
 10
8.755371
 20
0.844300
 30
0.000000
 11
8.692871
 21
0.736047
 31
0.000000
  0
LINE
  8
DIMEN
 62
     7
  6
CONTINUOUS
 10
9.163969
 20
-0.780700
 30
0.000000
 11
8.505371
 21
-0.780700
 31
0.000000
  0
LINE
  8
DIMEN
 62
     7
  6
CONTINUOUS
 10
9.163969
 20
0.844300
 30
0.000000
 11
8.505371
 21
0.844300
 31
0.000000
  0
TEXT
  8
DIMEN
 62
     7
 10
8.435596
 20
0.192902
 30
0.000000
 40
0.125000
  1
1 5/8"
  0
LINE
  8
DIMEN
 62
     7
  6
CONTINUOUS
 10
8.755371
 20
-0.780700
 30
0.000000
 11
8.755371
 21
0.161653
 31
0.000000
  0
LINE
  8
DIMEN
 62
     7
  6
CONTINUOUS
 10
8.755371
 20
0.350202
 30
0.000000
 11
8.755371
 21
0.844300
 31
0.000000
  0
LINE
  8
DIMEN
 62
     7
  6
CONTINUOUS
 10
10.924024
 20
-0.530693
 30
0.000000
 11
10.861524
 21
-0.422439
 31
0.000000
  0
LINE
  8
DIMEN
 62
     7
  6
CONTINUOUS
 10
10.924024
 20
-0.530693
 30
0.000000
 11
10.986524
 21
-0.422439
 31
0.000000
  0
LINE
  8
DIMEN
 62
     7
  6
CONTINUOUS
 10
10.924024
 20
0.594292
 30
0.000000
 11
10.986524
 21
0.486039
 31
0.000000
  0
LINE
  8
DIMEN
 62
     7
  6
CONTINUOUS
 10
10.924024
 20
0.594292
 30
0.000000
 11
10.861524
 21
0.486039
 31
0.000000
  0
LINE
  8
DIMEN
 62
     7
  6
CONTINUOUS
 10
10.538969
 20
-0.530693
 30
0.000000
 11
11.174024
 21
-0.530693
 31
0.000000
  0
LINE
  8
DIMEN
 62
     7
  6
CONTINUOUS
 10
10.538969
 20
0.594292
 30
0.000000
 11
11.174024
 21
0.594292
 31
0.000000
  0
TEXT
  8
DIMEN
 62
     7
 10
10.604250
 20
-0.180530
 30
0.000000
 40
0.125000
  1
1 1/8"
  0
LINE
  8
DIMEN
 62
     7
  6
CONTINUOUS
 10
10.924024
 20
-0.530693
 30
0.000000
 11
10.924024
 21
-0.211779
 31
0.000000
  0
LINE
  8
DIMEN
 62
     7
  6
CONTINUOUS
 10
10.924024
 20
-0.023463
 30
0.000000
 11
10.924024
 21
0.594292
 31
0.000000
  0
LINE
  8
DIMEN
 62
     7
  6
CONTINUOUS
 10
11.519083
 20
-0.905700
 30
0.000000
 11
11.456583
 21
-0.797447
 31
0.000000
  0
LINE
  8
DIMEN
 62
     7
  6
CONTINUOUS
 10
11.519083
 20
-0.905700
 30
0.000000
 11
11.581583
 21
-0.797447
 31
0.000000
  0
LINE
  8
DIMEN
 62
     7
  6
CONTINUOUS
 10
11.519083
 20
0.969300
 30
0.000000
 11
11.581583
 21
0.861047
 31
0.000000
  0
LINE
  8
DIMEN
 62
     7
  6
CONTINUOUS
 10
11.519083
 20
0.969300
 30
0.000000
 11
11.456583
 21
0.861047
 31
0.000000
  0
LINE
  8
DIMEN
 62
     7
  6
CONTINUOUS
 10
10.538969
 20
-0.905700
 30
0.000000
 11
11.769083
 21
-0.905700
 31
0.000000
  0
LINE
  8
DIMEN
 62
     7
  6
CONTINUOUS
 10
10.538969
 20
0.969300
 30
0.000000
 11
11.769083
 21
0.969300
 31
0.000000
  0
TEXT
  8
DIMEN
 62
     7
 10
11.199308
 20
0.155666
 30
0.000000
 40
0.125000
  1
1 7/8"
  0
LINE
  8
DIMEN
 62
     7
  6
CONTINUOUS
 10
11.519083
 20
-0.905700
 30
0.000000
 11
11.519083
 21
0.124415
 31
0.000000
  0
LINE
  8
DIMEN
 62
     7
  6
CONTINUOUS
 10
11.519083
 20
0.312731
 30
0.000000
 11
11.519083
 21
0.969300
 31
0.000000
  0
LINE
  8
DIMEN
 62
     7
  6
CONTINUOUS
 10
9.456216
 20
-0.808689
 30
0.000000
 11
9.958709
 21
-1.518428
 31
0.000000
  0
LINE
  8
DIMEN
 62
     7
  6
CONTINUOUS
 10
9.456216
 20
-0.808689
 30
0.000000
 11
9.569778
 21
-0.860925
 31
0.000000
  0
LINE
  8
DIMEN
 62
     7
  6
CONTINUOUS
 10
9.456216
 20
-0.808689
 30
0.000000
 11
9.467759
 21
-0.933155
 31
0.000000
  0
LINE
  8
DIMEN
 62
     7
  6
CONTINUOUS
 10
9.958709
 20
-1.518428
 30
0.000000
 11
10.083709
 21
-1.518428
 31
0.000000
  0
TEXT
  8
DIMEN
 62
     7
 10
10.146209
 20
-1.580929
 30
0.000000
 40
0.125000
  1
2.500TPF
  0
LINE
  8
DIMEN
 62
     7
  6
CONTINUOUS
 10
9.226469
 20
1.130921
 30
0.000000
 11
9.334722
 21
1.193421
 31
0.000000
  0
LINE
  8
DIMEN
 62
     7
  6
CONTINUOUS
 10
9.226469
 20
1.130921
 30
0.000000
 11
9.334722
 21
1.068421
 31
0.000000
  0
LINE
  8
DIMEN
 62
     7
  6
CONTINUOUS
 10
10.476469
 20
1.130921
 30
0.000000
 11
10.368215
 21
1.068421
 31
0.000000
  0
LINE
  8
DIMEN
 62
     7
  6
CONTINUOUS
 10
10.476469
 20
1.130921
 30
0.000000
 11
10.368215
 21
1.193421
 31
0.000000
  0
LINE
  8
DIMEN
 62
     7
  6
CONTINUOUS
 10
9.226469
 20
0.906800
 30
0.000000
 11
9.226469
 21
1.380921
 31
0.000000
  0
LINE
  8
DIMEN
 62
     7
  6
CONTINUOUS
 10
10.476469
 20
1.031800
 30
0.000000
 11
10.476469
 21
1.380921
 31
0.000000
  0
TEXT
  8
DIMEN
 62
     7
 10
9.531695
 20
1.068348
 30
0.000000
 40
0.125000
  1
1 1/4"
  0
LINE
  8
DIMEN
 62
     7
  6
CONTINUOUS
 10
9.226469
 20
1.130921
 30
0.000000
 11
9.444783
 21
1.130921
 31
0.000000
  0
LINE
  8
DIMEN
 62
     7
  6
CONTINUOUS
 10
10.258154
 20
1.130921
 30
0.000000
 11
10.476469
 21
1.130921
 31
0.000000
  0
TEXT
  8
DIMEN
 62
     7
 10
3.652605
 20
2.755271
 30
0.000000
 40
0.125000
  1
PILOT BEARING DETAIL
  0
LINE
  8
PILOTBRN
 62
     7
  6
CONTINUOUS
 10
4.834664
 20
4.031163
 30
0.000000
 11
4.278664
 21
4.031163
 31
0.000000
  0
LINE
  8
PILOTBRN
 62
     7
  6
CONTINUOUS
 10
4.278664
 20
3.095163
 30
0.000000
 11
4.834664
 21
3.095163
 31
0.000000
  0
LINE
  8
PILOTBRN
 62
     7
  6
CONTINUOUS
 10
4.278664
 20
4.031163
 30
0.000000
 11
4.278664
 21
3.095163
 31
0.000000
  0
LINE
  8
PILOTBRN
 62
     7
  6
CONTINUOUS
 10
4.834664
 20
4.031163
 30
0.000000
 11
4.834664
 21
3.095163
 31
0.000000
  0
LINE
  8
PILOTBRN
 62
     7
  6
CONTINUOUS
 10
4.278664
 20
3.186163
 30
0.000000
 11
4.834664
 21
3.186163
 31
0.000000
  0
LINE
  8
PILOTBRN
 62
     7
  6
CONTINUOUS
 10
4.278664
 20
3.940163
 30
0.000000
 11
4.834664
 21
3.940163
 31
0.000000
  0
LINE
  8
DIMEN
 62
     7
  6
CONTINUOUS
 10
5.636381
 20
3.186163
 30
0.000000
 11
5.573881
 21
3.294416
 31
0.000000
  0
LINE
  8
DIMEN
 62
     7
  6
CONTINUOUS
 10
5.636381
 20
3.186163
 30
0.000000
 11
5.698881
 21
3.294416
 31
0.000000
  0
LINE
  8
DIMEN
 62
     7
  6
CONTINUOUS
 10
5.636381
 20
3.940163
 30
0.000000
 11
5.698881
 21
3.831910
 31
0.000000
  0
LINE
  8
DIMEN
 62
     7
  6
CONTINUOUS
 10
5.636381
 20
3.940163
 30
0.000000
 11
5.573881
 21
3.831910
 31
0.000000
  0
LINE
  8
DIMEN
 62
     7
  6
CONTINUOUS
 10
4.897664
 20
3.186163
 30
0.000000
 11
5.699381
 21
3.186163
 31
0.000000
  0
LINE
  8
DIMEN
 62
     7
  6
CONTINUOUS
 10
4.897664
 20
3.940163
 30
0.000000
 11
5.699381
 21
3.940163
 31
0.000000
  0
TEXT
  8
DIMEN
 62
     7
 10
5.409470
 20
3.500664
 30
0.000000
 40
0.125000
  1
.754"
  0
LINE
  8
DIMEN
 62
     7
  6
CONTINUOUS
 10
5.636381
 20
3.186163
 30
0.000000
 11
5.636381
 21
3.469163
 31
0.000000
  0
LINE
  8
DIMEN
 62
     7
  6
CONTINUOUS
 10
5.636381
 20
3.657163
 30
0.000000
 11
5.636381
 21
3.940163
 31
0.000000
  0
LINE
  8
DIMEN
 62
     7
  6
CONTINUOUS
 10
3.444296
 20
3.095163
 30
0.000000
 11
3.381796
 21
3.203416
 31
0.000000
  0
LINE
  8
DIMEN
 62
     7
  6
CONTINUOUS
 10
3.444296
 20
3.095163
 30
0.000000
 11
3.506796
 21
3.203416
 31
0.000000
  0
LINE
  8
DIMEN
 62
     7
  6
CONTINUOUS
 10
3.444296
 20
4.031163
 30
0.000000
 11
3.506796
 21
3.922910
 31
0.000000
  0
LINE
  8
DIMEN
 62
     7
  6
CONTINUOUS
 10
3.444296
 20
4.031163
 30
0.000000
 11
3.381796
 21
3.922910
 31
0.000000
  0
LINE
  8
DIMEN
 62
     7
  6
CONTINUOUS
 10
4.215664
 20
3.095163
 30
0.000000
 11
3.381296
 21
3.095163
 31
0.000000
  0
LINE
  8
DIMEN
 62
     7
  6
CONTINUOUS
 10
4.215664
 20
4.031163
 30
0.000000
 11
3.381296
 21
4.031163
 31
0.000000
  0
TEXT
  8
DIMEN
 62
     7
 10
3.213991
 20
3.500664
 30
0.000000
 40
0.125000
  1
.936"
  0
LINE
  8
DIMEN
 62
     7
  6
CONTINUOUS
 10
3.444296
 20
3.095163
 30
0.000000
 11
3.444296
 21
3.469163
 31
0.000000
  0
LINE
  8
DIMEN
 62
     7
  6
CONTINUOUS
 10
3.444296
 20
3.657163
 30
0.000000
 11
3.444296
 21
4.031163
 31
0.000000
  0
LINE
  8
DIMEN
 62
     7
  6
CONTINUOUS
 10
4.278664
 20
4.595344
 30
0.000000
 11
4.386917
 21
4.657844
 31
0.000000
  0
LINE
  8
DIMEN
 62
     7
  6
CONTINUOUS
 10
4.278664
 20
4.595344
 30
0.000000
 11
4.386917
 21
4.532844
 31
0.000000
  0
LINE
  8
DIMEN
 62
     7
  6
CONTINUOUS
 10
4.834664
 20
4.595344
 30
0.000000
 11
4.726411
 21
4.532844
 31
0.000000
  0
LINE
  8
DIMEN
 62
     7
  6
CONTINUOUS
 10
4.834664
 20
4.595344
 30
0.000000
 11
4.726411
 21
4.657844
 31
0.000000
  0
LINE
  8
DIMEN
 62
     7
  6
CONTINUOUS
 10
4.278664
 20
4.094163
 30
0.000000
 11
4.278664
 21
4.658344
 31
0.000000
  0
LINE
  8
DIMEN
 62
     7
  6
CONTINUOUS
 10
4.834664
 20
4.094163
 30
0.000000
 11
4.834664
 21
4.658344
 31
0.000000
  0
TEXT
  8
DIMEN
 62
     7
 10
5.167784
 20
4.532845
 30
0.000000
 40
0.125000
  1
.556"
  0
LINE
  8
DIMEN
 62
     7
  6
CONTINUOUS
 10
4.278664
 20
4.595344
 30
0.000000
 11
5.136284
 21
4.595344
 31
0.000000
  0
TEXT
  8
PILOTBRN
 62
     7
 10
2.385165
 20
5.794038
 30
0.000000
 40
0.125000
  1
NOTE: PILOT BEARING OEM #4338876
  0
TEXT
  8
PILOTBRN
 62
     7
 10
2.385165
 20
5.606535
 30
0.000000
 40
0.125000
  1
FROM S.C. NISSAN/DODGE ("WOODY" SALESMAN)
  0
TEXT
  8
PILOTBRN
 62
     7
 10
2.385165
 20
5.419037
 30
0.000000
 40
0.125000
  1
INCLUDES AN OUTER STEEL BUSHING THAT
  0
TEXT
  8
PILOTBRN
 62
     7
 10
2.385165
 20
5.231539
 30
0.000000
 40
0.125000
  1
MEASURES 1.815" O.D. AND THE BRONZE
  0
TEXT
  8
PILOTBRN
 62
     7
 10
2.385165
 20
5.044036
 30
0.000000
 40
0.125000
  1
BEARING CAN BE PRESSED OUT AND MEASURES
  0
TEXT
  8
PILOTBRN
 62
     7
 10
2.385165
 20
4.856538
 30
0.000000
 40
0.125000
  1
AS SHOWN BELOW. 
  0
LINE
  8
DIMEN
 62
     7
  6
CONTINUOUS
 10
7.792352
 20
6.058711
 30
0.000000
 11
11.358804
 21
6.058711
 31
0.000000
  0
LINE
  8
DIMEN
 62
     7
  6
CONTINUOUS
 10
7.792352
 20
4.956286
 30
0.000000
 11
7.792352
 21
6.058711
 31
0.000000
  0
LINE
  8
DIMEN
 62
     7
  6
CONTINUOUS
 10
11.358804
 20
6.058711
 30
0.000000
 11
11.358804
 21
4.956286
 31
0.000000
  0
LINE
  8
DIMEN
 62
     7
  6
CONTINUOUS
 10
11.358804
 20
4.956286
 30
0.000000
 11
7.792352
 21
4.956286
 31
0.000000
  0
TEXT
  8
DIMEN
 62
     7
 10
7.925098
 20
5.821215
 30
0.000000
 40
0.125000
  1
COPYRIGHT ELECTRO AUTOMOTIVE
  0
TEXT
  8
DIMEN
 62
     7
 10
7.925098
 20
5.633717
 30
0.000000
 40
0.125000
  1
P.O. BOX 1113 FELTON CA. 95018-1113
  0
TEXT
  8
DIMEN
 62
     7
 10
7.925098
 20
5.446214
 30
0.000000
 40
0.125000
  1
PHONE 831-429-1989 FAX 831-429-1907
  0
TEXT
  8
DIMEN
 62
     7
 10
7.925098
 20
5.258716
 30
0.000000
 40
0.125000
  1
DRAWN BY MICHAEL P. BROWN
  0
TEXT
  8
DIMEN
 62
     7
 10
7.925098
 20
5.071213
 30
0.000000
 40
0.125000
  1
REVISED: MARTY RATTAY 9/2/08
  0
TEXT
  8
DIMEN
 62
     7
 10
7.880022
 20
4.619640
 30
0.000000
 40
0.125000
  1
87-01 DODGE DAKOTA WITH A 3.9L V6
  0
TEXT
  8
DIMEN
 62
     7
 10
7.880022
 20
4.432142
 30
0.000000
 40
0.125000
  1
TO AN ADV DC 9" MOTOR WITH
  0
TEXT
  8
DIMEN
 62
     7
 10
7.880022
 20
4.244639
 30
0.000000
 40
0.125000
  1
A NON-STANDARD 9" RING
  0
TEXT
  8
DIMEN
 62
     7
 10
7.880022
 20
4.057141
 30
0.000000
 40
0.125000
  1
HUB DETAIL DRAWING 
  0
TEXT
  8
DIMEN
 62
     7
 10
7.880022
 20
3.869643
 30
0.000000
 40
0.125000
  1
PRINTED TO SCALE = 1 : 1
  0
TEXT
  8
DIMEN
 62
     7
 10
7.858264
 20
3.536737
 30
0.000000
 40
0.125000
  1
NOTE A: TAP 10-24 x 1" DEEP
  0
TEXT
  8
DIMEN
 62
     7
 10
7.845208
 20
3.270907
 30
0.000000
 40
0.125000
  1
NOTE B: DRILL 13/64" COUNTERBORE
  0
TEXT
  8
DIMEN
 62
     7
 10
7.858264
 20
2.778411
 30
0.000000
 40
0.125000
  1
NOTE C: DRILL 25/64" THROUGH THEN
  0
TEXT
  8
DIMEN
 62
     7
 10
8.119364
 20
3.044241
 30
0.000000
 40
0.125000
  1
21/64" x 13/64" DEEP
  0
TEXT
  8
DIMEN
 62
     7
 10
8.080199
 20
2.538692
 30
0.000000
 40
0.125000
  1
TAP 7/16-20 THROUGH
  0
TEXT
  8
DIMEN
 62
     7
 10
7.871319
 20
2.207586
 30
0.000000
 40
0.125000
  1
NOTE D: BORE TO SUIT A PILOT BEARING
  0
TEXT
  8
DIMEN
 62
     7
 10
8.041035
 20
2.046196
 30
0.000000
 40
0.125000
  1
WITH A .9365" OD.
  0
LINE
  8
DIMEN
 62
     7
  6
CONTINUOUS
 10
4.891907
 20
0.485521
 30
0.000000
 11
7.745122
 21
-2.568499
 31
0.000000
  0
LINE
  8
DIMEN
 62
     7
  6
CONTINUOUS
 10
4.891907
 20
0.485521
 30
0.000000
 11
5.011479
 21
0.449085
 31
0.000000
  0
LINE
  8
DIMEN
 62
     7
  6
CONTINUOUS
 10
4.891907
 20
0.485521
 30
0.000000
 11
4.920139
 21
0.363751
 31
0.000000
  0
LINE
  8
DIMEN
 62
     7
  6
CONTINUOUS
 10
7.745122
 20
-2.568499
 30
0.000000
 11
7.870122
 21
-2.568499
 31
0.000000
  0
TEXT
  8
DIMEN
 62
     7
 10
7.933122
 20
-2.630998
 30
0.000000
 40
0.125000
  1
SEE NOTE D
  0
POINT
  8
PILOTBRN
 62
     7
 10
4.251466
 20
0.500300
 30
0.000000
  0
LINE
  8
PILOTBRN
 62
     7
  6
CONTINUOUS
 10
4.807466
 20
0.500300
 30
0.000000
 11
4.251466
 21
0.500300
 31
0.000000
  0
LINE
  8
PILOTBRN
 62
     7
  6
CONTINUOUS
 10
4.251466
 20
-0.435700
 30
0.000000
 11
4.807466
 21
-0.435700
 31
0.000000
  0
LINE
  8
PILOTBRN
 62
     7
  6
CONTINUOUS
 10
4.251466
 20
0.500300
 30
0.000000
 11
4.251466
 21
-0.435700
 31
0.000000
  0
LINE
  8
PILOTBRN
 62
     7
  6
CONTINUOUS
 10
4.807466
 20
0.500300
 30
0.000000
 11
4.807466
 21
-0.435700
 31
0.000000
  0
LINE
  8
PILOTBRN
 62
     7
  6
CONTINUOUS
 10
4.251466
 20
-0.344700
 30
0.000000
 11
4.807466
 21
-0.344700
 31
0.000000
  0
LINE
  8
PILOTBRN
 62
     7
  6
CONTINUOUS
 10
4.251466
 20
0.409300
 30
0.000000
 11
4.807466
 21
0.409300
 31
0.000000
  0
POINT
  8
PILOTBRN
 62
     7
 10
4.251466
 20
0.570801
 30
0.000000
  0
LINE
  8
HUB
 62
     7
  6
CONTINUOUS
 10
4.438966
 20
0.899819
 30
0.000000
 11
4.438966
 21
0.570801
 31
0.000000
  0
LINE
  8
HUB
 62
     7
  6
CONTINUOUS
 10
4.251466
 20
0.570801
 30
0.000000
 11
4.438966
 21
0.570801
 31
0.000000
  0
LINE
  8
HUB
 62
     7
  6
CONTINUOUS
 10
4.438966
 20
0.634270
 30
0.000000
 11
5.001466
 21
0.634270
 31
0.000000
  0
LINE
  8
HUB
 62
     7
  6
CONTINUOUS
 10
4.251466
 20
-0.436700
 30
0.000000
 11
5.001466
 21
-0.436700
 31
0.000000
  0
LINE
  8
HUB
 62
     7
  6
CONTINUOUS
 10
4.251466
 20
0.500300
 30
0.000000
 11
5.001466
 21
0.500300
 31
0.000000
  0
ENDSEC
  0
EOF
