  0
SECTION
  2
HEADER
  9
$ACADVER
  1
AC1006
  0
ENDSEC
  0
SECTION
  2
TABLES
  0
TABLE
  2
LTYPE
 70
    25
  0
LTYPE
  2
CONTINUOUS
 70
    64
  3
Solid line
 72
    64
 73
     0
 40
0.000000
  0
LTYPE
  2
DASHDOT
 70
    64
  3
__ . __ . __ . __ . __ . __ . __ . __ . __ . __
 72
    65
 73
     4
 40
1.000000
 49
0.500000
 49
-0.250000
 49
0.000000
 49
-0.250000
  0
LTYPE
  2
DASHED
 70
    64
  3
__ __ __ __ __ __ __ __ __ __ __ __ __ __ __ __
 72
    65
 73
     2
 40
0.750000
 49
0.500000
 49
-0.250000
  0
LTYPE
  2
DIVIDE
 70
    64
  3
____ . . ____ . . ____ . . ____ . . ____ . . __
 72
    65
 73
     6
 40
1.250000
 49
0.500000
 49
-0.250000
 49
0.000000
 49
-0.250000
 49
0.000000
 49
-0.250000
  0
LTYPE
  2
DOT
 70
    64
  3
. . . . . . . . . . . . . . . . . . . . . . . . 
 72
    65
 73
     2
 40
0.250000
 49
0.000000
 49
-0.250000
  0
ENDTAB
  0
ENDSEC
  0
SECTION
  2
ENTITIES
  0
CIRCLE
  8
HUB
 62
     7
  6
CONTINUOUS
 10
2.604658
 20
4.001528
 30
0.000000
 40
0.208000
  0
CIRCLE
  8
HUB
 62
     7
  6
CONTINUOUS
 10
1.483362
 20
3.186859
 30
0.000000
 40
0.208000
  0
CIRCLE
  8
HUB
 62
     7
  6
CONTINUOUS
 10
1.911659
 20
1.868697
 30
0.000000
 40
0.208000
  0
CIRCLE
  8
HUB
 62
     7
  6
CONTINUOUS
 10
3.297657
 20
1.868697
 30
0.000000
 40
0.208000
  0
CIRCLE
  8
HUB
 62
     7
  6
CONTINUOUS
 10
3.725954
 20
3.186859
 30
0.000000
 40
0.208000
  0
CIRCLE
  8
HUB
 62
     7
  6
CONTINUOUS
 10
2.604658
 20
4.001528
 30
0.000000
 40
0.162249
  0
CIRCLE
  8
HUB
 62
     7
  6
CONTINUOUS
 10
1.483362
 20
3.186859
 30
0.000000
 40
0.162249
  0
CIRCLE
  8
HUB
 62
     7
  6
CONTINUOUS
 10
1.911659
 20
1.868697
 30
0.000000
 40
0.162249
  0
CIRCLE
  8
HUB
 62
     7
  6
CONTINUOUS
 10
3.297657
 20
1.868697
 30
0.000000
 40
0.162249
  0
CIRCLE
  8
HUB
 62
     7
  6
CONTINUOUS
 10
3.725954
 20
3.186859
 30
0.000000
 40
0.162249
  0
CIRCLE
  8
HUB
 62
     7
  6
CONTINUOUS
 10
2.604658
 20
2.822528
 30
0.000000
 40
1.562500
  0
CIRCLE
  8
HUB
 62
     7
  6
CONTINUOUS
 10
2.604658
 20
2.822528
 30
0.000000
 40
0.375000
  0
POINT
  8
HUB
 62
     7
 10
2.604658
 20
2.822528
 30
0.000000
  0
CIRCLE
  8
HUB
 62
     7
  6
CONTINUOUS
 10
2.253158
 20
3.431344
 30
0.000000
 40
0.101500
  0
CIRCLE
  8
HUB
 62
     7
  6
CONTINUOUS
 10
2.253158
 20
3.431344
 30
0.000000
 40
0.179499
  0
CIRCLE
  8
HUB
 62
     7
  6
CONTINUOUS
 10
1.901658
 20
2.822528
 30
0.000000
 40
0.101500
  0
CIRCLE
  8
HUB
 62
     7
  6
CONTINUOUS
 10
1.901658
 20
2.822528
 30
0.000000
 40
0.179500
  0
CIRCLE
  8
HUB
 62
     7
  6
CONTINUOUS
 10
2.253159
 20
2.213712
 30
0.000000
 40
0.101499
  0
CIRCLE
  8
HUB
 62
     7
  6
CONTINUOUS
 10
2.253159
 20
2.213712
 30
0.000000
 40
0.179500
  0
CIRCLE
  8
HUB
 62
     7
  6
CONTINUOUS
 10
2.956159
 20
2.213714
 30
0.000000
 40
0.101500
  0
CIRCLE
  8
HUB
 62
     7
  6
CONTINUOUS
 10
2.956159
 20
2.213714
 30
0.000000
 40
0.179501
  0
CIRCLE
  8
HUB
 62
     7
  6
CONTINUOUS
 10
3.307658
 20
2.822530
 30
0.000000
 40
0.101500
  0
CIRCLE
  8
HUB
 62
     7
  6
CONTINUOUS
 10
3.307658
 20
2.822530
 30
0.000000
 40
0.179500
  0
CIRCLE
  8
HUB
 62
     7
  6
CONTINUOUS
 10
2.956158
 20
3.431344
 30
0.000000
 40
0.101499
  0
CIRCLE
  8
HUB
 62
     7
  6
CONTINUOUS
 10
2.956158
 20
3.431344
 30
0.000000
 40
0.179500
  0
POINT
  8
HUB
 62
     7
 10
3.307658
 20
2.822530
 30
0.000000
  0
POINT
  8
HUB
 62
     7
 10
2.956158
 20
3.431344
 30
0.000000
  0
POINT
  8
HUB
 62
     7
 10
2.253158
 20
3.431344
 30
0.000000
  0
POINT
  8
HUB
 62
     7
 10
1.901658
 20
2.822528
 30
0.000000
  0
POINT
  8
HUB
 62
     7
 10
2.253159
 20
2.213712
 30
0.000000
  0
POINT
  8
HUB
 62
     7
 10
2.956159
 20
2.213714
 30
0.000000
  0
CIRCLE
  8
DIM
 62
     7
  6
CONTINUOUS
 10
2.604658
 20
2.822528
 30
0.000000
 40
1.179000
  0
CIRCLE
  8
DIM
 62
     7
  6
CONTINUOUS
 10
2.604658
 20
2.822528
 30
0.000000
 40
0.703001
  0
LINE
  8
DIM
 62
     1
  6
CONTINUOUS
 10
3.153260
 20
4.973933
 30
0.000000
 11
3.653260
 21
4.973933
 31
0.000000
  0
LINE
  8
DIM
 62
     1
  6
CONTINUOUS
 10
2.895977
 20
3.964970
 30
0.000000
 11
2.898402
 21
3.764985
 31
0.000000
  0
LINE
  8
DIM
 62
     1
  6
CONTINUOUS
 10
2.895977
 20
3.964970
 30
0.000000
 11
2.798084
 21
3.790565
 31
0.000000
  0
LINE
  8
DIM
 62
     1
  6
CONTINUOUS
 10
2.313339
 20
1.680086
 30
0.000000
 11
2.310914
 21
1.880071
 31
0.000000
  0
LINE
  8
DIM
 62
     1
  6
CONTINUOUS
 10
2.313339
 20
1.680086
 30
0.000000
 11
2.411232
 21
1.854490
 31
0.000000
  0
TEXT
  8
DIM
 62
     7
 10
3.703260
 20
4.908351
 30
0.000000
 40
0.125000
  1
BC 2.358
  0
LINE
  8
DIM
 62
     1
  6
CONTINUOUS
 10
2.313339
 20
1.680086
 30
0.000000
 11
3.153260
 21
4.973933
 31
0.000000
  0
LINE
  8
DIM
 62
     7
  6
CONTINUOUS
 10
0.614013
 20
2.822528
 30
0.000000
 11
10.466020
 21
2.822528
 31
0.000000
  0
POINT
  8
HUB
 62
     7
 10
8.794265
 20
2.822527
 30
0.000000
  0
POINT
  8
HUB
 62
     7
 10
8.794265
 20
2.822527
 30
0.000000
  0
LINE
  8
HUB
 62
     7
  6
CONTINUOUS
 10
8.794265
 20
2.022528
 30
0.000000
 11
10.169265
 21
1.876091
 31
0.000000
  0
LINE
  8
HUB
 62
     7
  6
CONTINUOUS
 10
10.169265
 20
3.768964
 30
0.000000
 11
8.794265
 21
3.622528
 31
0.000000
  0
LINE
  8
HUB
 62
     7
  6
CONTINUOUS
 10
10.169265
 20
1.876091
 30
0.000000
 11
10.169265
 21
1.697528
 31
0.000000
  0
LINE
  8
HUB
 62
     7
  6
CONTINUOUS
 10
10.169265
 20
3.947527
 30
0.000000
 11
10.169265
 21
3.768964
 31
0.000000
  0
POINT
  8
HUB
 62
     7
 10
8.794265
 20
2.118197
 30
0.000000
  0
LINE
  8
HUB
 62
     7
  6
CONTINUOUS
 10
8.794265
 20
3.622528
 30
0.000000
 11
8.794265
 21
2.022528
 31
0.000000
  0
LINE
  8
HUB
 62
     7
  6
CONTINUOUS
 10
9.169265
 20
3.947527
 30
0.000000
 11
10.169265
 21
3.947527
 31
0.000000
  0
LINE
  8
HUB
 62
     7
  6
CONTINUOUS
 10
10.169265
 20
1.697528
 30
0.000000
 11
9.169265
 21
1.697528
 31
0.000000
  0
LINE
  8
HUB
 62
     7
  6
CONTINUOUS
 10
9.169265
 20
4.385028
 30
0.000000
 11
9.169265
 21
3.947527
 31
0.000000
  0
LINE
  8
HUB
 62
     7
  6
CONTINUOUS
 10
9.169265
 20
1.260028
 30
0.000000
 11
9.169265
 21
1.697528
 31
0.000000
  0
LINE
  8
HUB
 62
     7
  6
CONTINUOUS
 10
8.294265
 20
3.197527
 30
0.000000
 11
8.794265
 21
3.197527
 31
0.000000
  0
LINE
  8
HUB
 62
     7
  6
CONTINUOUS
 10
8.294265
 20
2.447527
 30
0.000000
 11
8.794265
 21
2.447527
 31
0.000000
  0
LINE
  8
HUB
 62
     7
  6
CONTINUOUS
 10
8.294265
 20
4.385028
 30
0.000000
 11
9.169265
 21
4.385028
 31
0.000000
  0
LINE
  8
HUB
 62
     7
  6
CONTINUOUS
 10
8.294265
 20
1.260028
 30
0.000000
 11
9.169265
 21
1.260028
 31
0.000000
  0
LINE
  8
HUB
 62
     7
  6
CONTINUOUS
 10
8.294265
 20
4.385028
 30
0.000000
 11
8.294265
 21
1.260028
 31
0.000000
  0
LINE
  8
HUB
 62
     7
  6
CONTINUOUS
 10
8.908265
 20
4.200528
 30
0.000000
 11
8.908265
 21
3.810528
 31
0.000000
  0
LINE
  8
HUB
 62
     7
  6
CONTINUOUS
 10
8.294265
 20
4.200528
 30
0.000000
 11
8.908265
 21
4.200528
 31
0.000000
  0
LINE
  8
HUB
 62
     7
  6
CONTINUOUS
 10
8.294265
 20
3.810528
 30
0.000000
 11
8.908265
 21
3.810528
 31
0.000000
  0
LINE
  8
HUB
 62
     7
  6
CONTINUOUS
 10
8.294265
 20
4.140528
 30
0.000000
 11
8.908265
 21
4.140528
 31
0.000000
  0
LINE
  8
HUB
 62
     7
  6
CONTINUOUS
 10
8.294265
 20
3.870528
 30
0.000000
 11
8.908265
 21
3.870528
 31
0.000000
  0
LINE
  8
HUB
 62
     7
  6
CONTINUOUS
 10
8.294265
 20
4.005528
 30
0.000000
 11
9.169265
 21
4.005528
 31
0.000000
  0
LINE
  8
DIM
 62
     1
  6
CONTINUOUS
 10
4.024107
 20
1.645591
 30
0.000000
 11
4.524107
 21
1.645591
 31
0.000000
  0
LINE
  8
DIM
 62
     1
  6
CONTINUOUS
 10
3.145830
 20
2.373815
 30
0.000000
 11
2.964075
 21
2.457274
 31
0.000000
  0
LINE
  8
DIM
 62
     1
  6
CONTINUOUS
 10
3.145830
 20
2.373815
 30
0.000000
 11
3.030155
 21
2.536970
 31
0.000000
  0
LINE
  8
DIM
 62
     1
  6
CONTINUOUS
 10
2.063487
 20
3.271241
 30
0.000000
 11
2.245241
 21
3.187782
 31
0.000000
  0
LINE
  8
DIM
 62
     1
  6
CONTINUOUS
 10
2.063487
 20
3.271241
 30
0.000000
 11
2.179161
 21
3.108086
 31
0.000000
  0
TEXT
  8
DIM
 62
     7
 10
4.574106
 20
1.566889
 30
0.000000
 40
0.125000
  1
BC 1 13/32
  0
LINE
  8
DIM
 62
     1
  6
CONTINUOUS
 10
2.063487
 20
3.271241
 30
0.000000
 11
4.024107
 21
1.645591
 31
0.000000
  0
LINE
  8
DIM
 62
     1
  6
CONTINUOUS
 10
9.413631
 20
3.657918
 30
0.000000
 11
9.520935
 21
3.489140
 31
0.000000
  0
LINE
  8
DIM
 62
     1
  6
CONTINUOUS
 10
9.413631
 20
3.657918
 30
0.000000
 11
9.422170
 21
3.458100
 31
0.000000
  0
LINE
  8
DIM
 62
     1
  6
CONTINUOUS
 10
9.413631
 20
3.657918
 30
0.000000
 11
9.546440
 21
3.235344
 31
0.000000
  0
LINE
  8
DIM
 62
     1
  6
CONTINUOUS
 10
9.546440
 20
3.235344
 30
0.000000
 11
10.046440
 21
3.235344
 31
0.000000
  0
TEXT
  8
DIM
 62
     7
 10
10.146441
 20
3.172843
 30
0.000000
 40
0.125000
  1
NOTE A
  0
LINE
  8
DIM
 62
     1
  6
CONTINUOUS
 10
2.493358
 20
4.183141
 30
0.000000
 11
2.384467
 21
4.350899
 31
0.000000
  0
LINE
  8
DIM
 62
     1
  6
CONTINUOUS
 10
2.493358
 20
4.183141
 30
0.000000
 11
2.482935
 21
4.382869
 31
0.000000
  0
LINE
  8
DIM
 62
     1
  6
CONTINUOUS
 10
2.493358
 20
4.183141
 30
0.000000
 11
2.236521
 21
4.974199
 31
0.000000
  0
LINE
  8
DIM
 62
     1
  6
CONTINUOUS
 10
2.236521
 20
4.974199
 30
0.000000
 11
1.736521
 21
4.974199
 31
0.000000
  0
TEXT
  8
DIM
 62
     7
 10
1.002506
 20
4.911699
 30
0.000000
 40
0.125000
  1
NOTE B
  0
LINE
  8
DIM
 62
     1
  6
CONTINUOUS
 10
2.955665
 20
2.035983
 30
0.000000
 11
3.044310
 21
1.856701
 31
0.000000
  0
LINE
  8
DIM
 62
     1
  6
CONTINUOUS
 10
2.955665
 20
2.035983
 30
0.000000
 11
2.942793
 21
1.836398
 31
0.000000
  0
LINE
  8
DIM
 62
     1
  6
CONTINUOUS
 10
2.955665
 20
2.035983
 30
0.000000
 11
3.161134
 21
1.008635
 31
0.000000
  0
LINE
  8
DIM
 62
     1
  6
CONTINUOUS
 10
3.161134
 20
1.008635
 30
0.000000
 11
3.661134
 21
1.008635
 31
0.000000
  0
TEXT
  8
DIM
 62
     7
 10
3.761134
 20
0.946135
 30
0.000000
 40
0.125000
  1
NOTE C
  0
TEXT
  8
DIM
 62
     7
 10
9.774429
 20
7.331445
 30
0.000000
 40
0.125000
  1
ELECTRO AUTOMOTIVE
  0
TEXT
  8
DIM
 62
     7
 10
9.774429
 20
7.143945
 30
0.000000
 40
0.125000
  1
P.O. BOX 1113 FELTON CA. 95018-1113
  0
TEXT
  8
DIM
 62
     7
 10
9.774429
 20
6.956444
 30
0.000000
 40
0.125000
  1
PHONE 831-429-1989 FAX 831-429-1907
  0
LINE
  8
DIM
 62
     7
  6
CONTINUOUS
 10
13.347567
 20
7.568941
 30
0.000000
 11
13.347567
 21
6.668955
 31
0.000000
  0
LINE
  8
DIM
 62
     7
  6
CONTINUOUS
 10
13.347567
 20
6.668955
 30
0.000000
 11
9.641683
 21
6.668955
 31
0.000000
  0
LINE
  8
DIM
 62
     7
  6
CONTINUOUS
 10
9.641683
 20
7.568941
 30
0.000000
 11
13.347567
 21
7.568941
 31
0.000000
  0
TEXT
  8
DIM
 62
     7
 10
9.774429
 20
6.768944
 30
0.000000
 40
0.125000
  1
DRAWN BY DAN SULLIVAN
  0
LINE
  8
DIM
 62
     7
  6
CONTINUOUS
 10
9.641683
 20
6.668955
 30
0.000000
 11
9.641683
 21
7.568941
 31
0.000000
  0
TEXT
  8
DIM
 62
     7
 10
9.762343
 20
6.271860
 30
0.000000
 40
0.125000
  1
HUB, DKW
  0
TEXT
  8
DIM
 62
     7
 10
9.762343
 20
6.084360
 30
0.000000
 40
0.125000
  1
1/7/09   REV A
  0
TEXT
  8
DIM
 62
     7
 10
9.762343
 20
5.709361
 30
0.000000
 40
0.125000
  1
NOTE A - MAKE TAPER AND BORE TO MATCH STD
  0
TEXT
  8
DIM
 62
     7
 10
9.762343
 20
5.521861
 30
0.000000
 40
0.125000
  1
HUB FOR AC24 MOTORS.
  0
TEXT
  8
DIM
 62
     7
 10
9.762343
 20
5.334360
 30
0.000000
 40
0.125000
  1
NOTE B - 5X ON BC - DRILL AND TAP 10MM X
  0
TEXT
  8
DIM
 62
     7
 10
9.762343
 20
5.146860
 30
0.000000
 40
0.125000
  1
1.25 X .8 DEEP.
  0
TEXT
  8
DIM
 62
     7
 10
9.762343
 20
4.959361
 30
0.000000
 40
0.125000
  1
NOTE C - 6X ON BC - DRILL 13/64 X
  0
TEXT
  8
DIM
 62
     7
 10
9.762343
 20
4.771861
 30
0.000000
 40
0.125000
  1
CB 23/64 X 7/16 DEEP.
  0
TEXT
  8
DIM
 62
     7
 10
9.762343
 20
4.584360
 30
0.000000
 40
0.125000
  1
NOTE - BREAK SHARP CORNERS AND EDGES.
  0
TEXT
  8
DIM
 62
     7
 10
9.762343
 20
4.396860
 30
0.000000
 40
0.125000
  1
CS THREADED HOLES.
  0
LINE
  8
DIM
 62
     1
  6
CONTINUOUS
 10
8.294265
 20
0.669475
 30
0.000000
 11
8.487450
 21
0.721239
 31
0.000000
  0
LINE
  8
DIM
 62
     1
  6
CONTINUOUS
 10
8.294265
 20
0.669475
 30
0.000000
 11
8.487450
 21
0.617712
 31
0.000000
  0
LINE
  8
DIM
 62
     1
  6
CONTINUOUS
 10
10.169265
 20
0.669475
 30
0.000000
 11
9.976080
 21
0.617712
 31
0.000000
  0
LINE
  8
DIM
 62
     1
  6
CONTINUOUS
 10
10.169265
 20
0.669475
 30
0.000000
 11
9.976080
 21
0.721239
 31
0.000000
  0
LINE
  8
DIM
 62
     1
  6
CONTINUOUS
 10
8.294265
 20
1.190028
 30
0.000000
 11
8.294265
 21
0.619475
 31
0.000000
  0
LINE
  8
DIM
 62
     1
  6
CONTINUOUS
 10
10.169265
 20
1.627528
 30
0.000000
 11
10.169265
 21
0.619475
 31
0.000000
  0
TEXT
  8
DIM
 62
     7
 10
9.067871
 20
0.603972
 30
0.000000
 40
0.125000
  1
1.88
  0
LINE
  8
DIM
 62
     1
  6
CONTINUOUS
 10
8.294265
 20
0.669475
 30
0.000000
 11
9.017871
 21
0.669475
 31
0.000000
  0
LINE
  8
DIM
 62
     1
  6
CONTINUOUS
 10
9.445659
 20
0.669475
 30
0.000000
 11
10.169265
 21
0.669475
 31
0.000000
  0
LINE
  8
DIM
 62
     1
  6
CONTINUOUS
 10
8.294265
 20
4.978581
 30
0.000000
 11
8.487450
 21
5.030345
 31
0.000000
  0
LINE
  8
DIM
 62
     1
  6
CONTINUOUS
 10
8.294265
 20
4.978581
 30
0.000000
 11
8.487450
 21
4.926817
 31
0.000000
  0
LINE
  8
DIM
 62
     1
  6
CONTINUOUS
 10
9.169265
 20
4.978581
 30
0.000000
 11
8.976080
 21
4.926817
 31
0.000000
  0
LINE
  8
DIM
 62
     1
  6
CONTINUOUS
 10
9.169265
 20
4.978581
 30
0.000000
 11
8.976080
 21
5.030345
 31
0.000000
  0
LINE
  8
DIM
 62
     1
  6
CONTINUOUS
 10
8.294265
 20
4.455028
 30
0.000000
 11
8.294265
 21
5.028581
 31
0.000000
  0
LINE
  8
DIM
 62
     1
  6
CONTINUOUS
 10
9.169265
 20
4.455028
 30
0.000000
 11
9.169265
 21
5.028581
 31
0.000000
  0
TEXT
  8
DIM
 62
     7
 10
8.605308
 20
4.913078
 30
0.000000
 40
0.125000
  1
.88
  0
LINE
  8
DIM
 62
     1
  6
CONTINUOUS
 10
8.294265
 20
4.978581
 30
0.000000
 11
8.555309
 21
4.978581
 31
0.000000
  0
LINE
  8
DIM
 62
     1
  6
CONTINUOUS
 10
8.908221
 20
4.978581
 30
0.000000
 11
9.169265
 21
4.978581
 31
0.000000
  0
LINE
  8
DIM
 62
     1
  6
CONTINUOUS
 10
6.703121
 20
1.260028
 30
0.000000
 11
6.651358
 21
1.453213
 31
0.000000
  0
LINE
  8
DIM
 62
     1
  6
CONTINUOUS
 10
6.703121
 20
1.260028
 30
0.000000
 11
6.754885
 21
1.453213
 31
0.000000
  0
LINE
  8
DIM
 62
     1
  6
CONTINUOUS
 10
6.703121
 20
4.385028
 30
0.000000
 11
6.754885
 21
4.191843
 31
0.000000
  0
LINE
  8
DIM
 62
     1
  6
CONTINUOUS
 10
6.703121
 20
4.385028
 30
0.000000
 11
6.651358
 21
4.191843
 31
0.000000
  0
LINE
  8
DIM
 62
     1
  6
CONTINUOUS
 10
8.224265
 20
1.260028
 30
0.000000
 11
6.653121
 21
1.260028
 31
0.000000
  0
LINE
  8
DIM
 62
     1
  6
CONTINUOUS
 10
8.224265
 20
4.385028
 30
0.000000
 11
6.653121
 21
4.385028
 31
0.000000
  0
TEXT
  8
DIM
 62
     7
 10
6.237548
 20
3.150183
 30
0.000000
 40
0.125000
  1
3.125
  0
TEXT
  8
DIM
 62
     7
 10
6.661101
 20
3.265766
 30
0.000000
 40
0.125000
  1
+.000
  0
TEXT
  8
DIM
 62
     7
 10
6.661101
 20
3.034601
 30
0.000000
 40
0.125000
  1
-.002
  0
LINE
  8
DIM
 62
     1
  6
CONTINUOUS
 10
6.703121
 20
1.260028
 30
0.000000
 11
6.703121
 21
2.984831
 31
0.000000
  0
LINE
  8
DIM
 62
     1
  6
CONTINUOUS
 10
6.703121
 20
3.446700
 30
0.000000
 11
6.703121
 21
4.385028
 31
0.000000
  0
LINE
  8
DIM
 62
     1
  6
CONTINUOUS
 10
7.558733
 20
2.447527
 30
0.000000
 11
7.506969
 21
2.640712
 31
0.000000
  0
LINE
  8
DIM
 62
     1
  6
CONTINUOUS
 10
7.558733
 20
2.447527
 30
0.000000
 11
7.610497
 21
2.640712
 31
0.000000
  0
LINE
  8
DIM
 62
     1
  6
CONTINUOUS
 10
7.558733
 20
3.197527
 30
0.000000
 11
7.610497
 21
3.004342
 31
0.000000
  0
LINE
  8
DIM
 62
     1
  6
CONTINUOUS
 10
7.558733
 20
3.197527
 30
0.000000
 11
7.506969
 21
3.004342
 31
0.000000
  0
LINE
  8
DIM
 62
     1
  6
CONTINUOUS
 10
8.224265
 20
2.447527
 30
0.000000
 11
7.508733
 21
2.447527
 31
0.000000
  0
LINE
  8
DIM
 62
     1
  6
CONTINUOUS
 10
8.224265
 20
3.197527
 30
0.000000
 11
7.508733
 21
3.197527
 31
0.000000
  0
TEXT
  8
DIM
 62
     7
 10
7.437739
 20
2.758590
 30
0.000000
 40
0.125000
  1
.75
  0
LINE
  8
DIM
 62
     1
  6
CONTINUOUS
 10
7.558733
 20
2.447527
 30
0.000000
 11
7.558733
 21
2.708591
 31
0.000000
  0
LINE
  8
DIM
 62
     1
  6
CONTINUOUS
 10
7.558733
 20
2.936464
 30
0.000000
 11
7.558733
 21
3.197527
 31
0.000000
  0
LINE
  8
DIM
 62
     1
  6
CONTINUOUS
 10
4.627537
 20
2.822533
 30
0.000000
 11
4.575773
 21
3.015719
 31
0.000000
  0
LINE
  8
DIM
 62
     1
  6
CONTINUOUS
 10
4.627537
 20
2.822533
 30
0.000000
 11
4.679301
 21
3.015719
 31
0.000000
  0
LINE
  8
DIM
 62
     1
  6
CONTINUOUS
 10
3.616096
 20
4.574393
 30
0.000000
 11
3.809281
 21
4.522630
 31
0.000000
  0
LINE
  8
DIM
 62
     1
  6
CONTINUOUS
 10
3.616096
 20
4.574393
 30
0.000000
 11
3.757518
 21
4.432972
 31
0.000000
  0
LINE
  8
DIM
 62
     1
  6
CONTINUOUS
 10
3.377658
 20
2.822530
 30
0.000000
 11
4.677537
 21
2.822534
 31
0.000000
  0
LINE
  8
DIM
 62
     1
  6
CONTINUOUS
 10
2.991158
 20
3.491966
 30
0.000000
 11
3.641096
 21
4.617694
 31
0.000000
  0
TEXT
  8
DIM
 62
     7
 10
4.088966
 20
3.768647
 30
0.000000
 40
0.125000
  1
6X 60
  0
ARC
  8
DIM
 62
     1
  6
CONTINUOUS
 10
2.604658
 20
2.822528
 30
0.000000
 40
2.022879
 50
0.000155
 51
26.294983
  0
ARC
  8
DIM
 62
     1
  6
CONTINUOUS
 10
2.604658
 20
2.822528
 30
0.000000
 40
2.022879
 50
33.849292
 51
60.000043
  0
LINE
  8
DIM
 62
     1
  6
CONTINUOUS
 10
0.711088
 20
3.437786
 30
0.000000
 11
0.700621
 21
3.238060
 31
0.000000
  0
LINE
  8
DIM
 62
     1
  6
CONTINUOUS
 10
0.711088
 20
3.437786
 30
0.000000
 11
0.602160
 21
3.270052
 31
0.000000
  0
LINE
  8
DIM
 62
     1
  6
CONTINUOUS
 10
1.434367
 20
1.211761
 30
0.000000
 11
1.247651
 21
1.283434
 31
0.000000
  0
LINE
  8
DIM
 62
     1
  6
CONTINUOUS
 10
1.434367
 20
1.211761
 30
0.000000
 11
1.308503
 21
1.367190
 31
0.000000
  0
LINE
  8
DIM
 62
     1
  6
CONTINUOUS
 10
1.416788
 20
3.208490
 30
0.000000
 11
0.663535
 21
3.453237
 31
0.000000
  0
LINE
  8
DIM
 62
     1
  6
CONTINUOUS
 10
1.870514
 20
1.812066
 30
0.000000
 11
1.404978
 21
1.171310
 31
0.000000
  0
TEXT
  8
DIM
 62
     7
 10
0.462448
 20
2.141932
 30
0.000000
 40
0.125000
  1
5X 72
  0
ARC
  8
DIM
 62
     1
  6
CONTINUOUS
 10
2.604658
 20
2.822528
 30
0.000000
 40
1.991018
 50
162.000000
 51
194.541913
  0
ARC
  8
DIM
 62
     1
  6
CONTINUOUS
 10
2.604658
 20
2.822528
 30
0.000000
 40
1.991018
 50
201.527382
 51
234.000000
  0
ENDSEC
  0
EOF
