  0
SECTION
  2
HEADER
  9
$ACADVER
  1
AC1009
  9
$DWGCODEPAGE
  3
ansi_1252
  9
$INSBASE
 10
0.0
 20
0.0
 30
0.0
  9
$EXTMIN
 10
1.000000000000000E+20
 20
1.000000000000000E+20
 30
1.000000000000000E+20
  9
$EXTMAX
 10
-1.000000000000000E+20
 20
-1.000000000000000E+20
 30
-1.000000000000000E+20
  9
$LIMMIN
 10
0.0
 20
0.0
  9
$LIMMAX
 10
12.0
 20
9.0
  9
$ORTHOMODE
 70
     0
  9
$REGENMODE
 70
     1
  9
$FILLMODE
 70
     1
  9
$QTEXTMODE
 70
     0
  9
$MIRRTEXT
 70
     1
  9
$DRAGMODE
 70
     2
  9
$LTSCALE
 40
1.0
  9
$OSMODE
 70
    37
  9
$ATTMODE
 70
     1
  9
$TEXTSIZE
 40
0.2
  9
$TRACEWID
 40
0.05
  9
$TEXTSTYLE
  7
STANDARD
  9
$CLAYER
  8
0
  9
$CELTYPE
  6
BYLAYER
  9
$CECOLOR
 62
   256
  9
$DIMSCALE
 40
1.0
  9
$DIMASZ
 40
0.18
  9
$DIMEXO
 40
0.0625
  9
$DIMDLI
 40
0.38
  9
$DIMRND
 40
0.0
  9
$DIMDLE
 40
0.0
  9
$DIMEXE
 40
0.18
  9
$DIMTP
 40
0.0
  9
$DIMTM
 40
0.0
  9
$DIMTXT
 40
0.18
  9
$DIMCEN
 40
0.09
  9
$DIMTSZ
 40
0.0
  9
$DIMTOL
 70
     0
  9
$DIMLIM
 70
     0
  9
$DIMTIH
 70
     1
  9
$DIMTOH
 70
     1
  9
$DIMSE1
 70
     0
  9
$DIMSE2
 70
     0
  9
$DIMTAD
 70
     0
  9
$DIMZIN
 70
     0
  9
$DIMBLK
  1

  9
$DIMASO
 70
     1
  9
$DIMSHO
 70
     1
  9
$DIMPOST
  1

  9
$DIMAPOST
  1

  9
$DIMALT
 70
     0
  9
$DIMALTD
 70
     2
  9
$DIMALTF
 40
25.4
  9
$DIMLFAC
 40
1.0
  9
$DIMTOFL
 70
     0
  9
$DIMTVP
 40
0.0
  9
$DIMTIX
 70
     0
  9
$DIMSOXD
 70
     0
  9
$DIMSAH
 70
     0
  9
$DIMBLK1
  1

  9
$DIMBLK2
  1

  9
$DIMSTYLE
  2
STANDARD
  9
$DIMCLRD
 70
     0
  9
$DIMCLRE
 70
     0
  9
$DIMCLRT
 70
     0
  9
$DIMTFAC
 40
1.0
  9
$DIMGAP
 40
0.09
  9
$LUNITS
 70
     2
  9
$LUPREC
 70
     3
  9
$SKETCHINC
 40
0.1
  9
$FILLETRAD
 40
0.5
  9
$AUNITS
 70
     0
  9
$AUPREC
 70
     0
  9
$MENU
  1
.
  9
$ELEVATION
 40
0.0
  9
$PELEVATION
 40
0.0
  9
$THICKNESS
 40
0.0
  9
$LIMCHECK
 70
     0
  9
$CHAMFERA
 40
0.5
  9
$CHAMFERB
 40
0.5
  9
$SKPOLY
 70
     0
  9
$TDCREATE
 40
2454233.709494375
  9
$TDUPDATE
 40
2454233.709494387
  9
$TDINDWG
 40
0.0000000116
  9
$TDUSRTIMER
 40
0.0000000116
  9
$USRTIMER
 70
     1
  9
$ANGBASE
 50
0.0
  9
$ANGDIR
 70
     0
  9
$PDMODE
 70
     2
  9
$PDSIZE
 40
-2.0
  9
$PLINEWID
 40
0.0
  9
$COORDS
 70
     1
  9
$SPLFRAME
 70
     0
  9
$SPLINETYPE
 70
     6
  9
$SPLINESEGS
 70
     8
  9
$ATTDIA
 70
     0
  9
$ATTREQ
 70
     1
  9
$HANDLING
 70
     1
  9
$HANDSEED
  5
180
  9
$SURFTAB1
 70
     6
  9
$SURFTAB2
 70
     6
  9
$SURFTYPE
 70
     6
  9
$SURFU
 70
     6
  9
$SURFV
 70
     6
  9
$UCSNAME
  2

  9
$UCSORG
 10
0.0
 20
0.0
 30
0.0
  9
$UCSXDIR
 10
1.0
 20
0.0
 30
0.0
  9
$UCSYDIR
 10
0.0
 20
1.0
 30
0.0
  9
$PUCSNAME
  2

  9
$PUCSORG
 10
0.0
 20
0.0
 30
0.0
  9
$PUCSXDIR
 10
1.0
 20
0.0
 30
0.0
  9
$PUCSYDIR
 10
0.0
 20
1.0
 30
0.0
  9
$USERI1
 70
     0
  9
$USERI2
 70
     0
  9
$USERI3
 70
     0
  9
$USERI4
 70
     0
  9
$USERI5
 70
     0
  9
$USERR1
 40
0.0
  9
$USERR2
 40
0.0
  9
$USERR3
 40
0.0
  9
$USERR4
 40
0.0
  9
$USERR5
 40
0.0
  9
$WORLDVIEW
 70
     1
  9
$SHADEDGE
 70
     3
  9
$SHADEDIF
 70
    70
  9
$TILEMODE
 70
     1
  9
$MAXACTVP
 70
    64
  9
$PLIMCHECK
 70
     0
  9
$PEXTMIN
 10
1.000000000000000E+20
 20
1.000000000000000E+20
 30
1.000000000000000E+20
  9
$PEXTMAX
 10
-1.000000000000000E+20
 20
-1.000000000000000E+20
 30
-1.000000000000000E+20
  9
$PLIMMIN
 10
0.0
 20
0.0
  9
$PLIMMAX
 10
12.0
 20
9.0
  9
$UNITMODE
 70
     0
  9
$VISRETAIN
 70
     1
  9
$PLINEGEN
 70
     0
  9
$PSLTSCALE
 70
     1
  0
ENDSEC
  0
SECTION
  2
TABLES
  0
TABLE
  2
VPORT
 70
     1
  0
VPORT
  2
*ACTIVE
 70
     0
 10
0.0
 20
0.0
 11
1.0
 21
1.0
 12
10.42990654205607
 22
4.5
 13
0.0
 23
0.0
 14
0.5
 24
0.5
 15
0.5
 25
0.5
 16
0.0
 26
0.0
 36
1.0
 17
0.0
 27
0.0
 37
0.0
 40
9.0
 41
1.972972972850329
 42
50.0
 43
0.0
 44
0.0
 50
0.0
 51
0.0
 71
     0
 72
   100
 73
     1
 74
     3
 75
     0
 76
     0
 77
     0
 78
     0
  0
ENDTAB
  0
TABLE
  2
LTYPE
 70
     4
  0
LTYPE
  2
CONTINUOUS
 70
     0
  3
Solid line
 72
    65
 73
     0
 40
0.0
  0
LTYPE
  2
GC___4
 70
     0
  3
____       ________       ____
 72
    65
 73
     2
 40
0.5
 49
0.175
 49
-0.325
  0
LTYPE
  2
GC___6
 70
     0
  3
_____  _  __________  _  _____
 72
    65
 73
     4
 40
0.5
 49
0.3
 49
-0.075
 49
0.05
 49
-0.075
  0
LTYPE
  2
GC___9
 70
     0
  3
..............................
 72
    65
 73
     2
 40
0.05
 49
0.0
 49
-0.05
  0
ENDTAB
  0
TABLE
  2
LAYER
 70
     6
  0
LAYER
  2
0
 70
     0
 62
     7
  6
CONTINUOUS
  0
LAYER
  2
TRANSSIDECENTERLINES
 70
     0
 62
     7
  6
CONTINUOUS
  0
LAYER
  2
DIEM
 70
     0
 62
     7
  6
CONTINUOUS
  0
LAYER
  2
MOTORSIDE
 70
     0
 62
     7
  6
CONTINUOUS
  0
LAYER
  2
MOTORSIDECENTERLINES
 70
     0
 62
     7
  6
CONTINUOUS
  0
LAYER
  2
TRANSIDE
 70
     0
 62
     7
  6
CONTINUOUS
  0
ENDTAB
  0
TABLE
  2
STYLE
 70
     2
  0
STYLE
  2
STANDARD
 70
     0
 40
0.0
 41
1.0
 50
0.0
 71
     0
 42
0.2
  3
txt
  4

  0
STYLE
  2
ENGINEER
 70
     0
 40
0.2
 41
1.0
 50
0.0
 71
     0
 42
0.2
  3
ENGINEER.SHX
  4

  0
ENDTAB
  0
TABLE
  2
VIEW
 70
     0
  0
ENDTAB
  0
TABLE
  2
UCS
 70
     0
  0
ENDTAB
  0
TABLE
  2
APPID
 70
     1
  0
APPID
  2
ACAD
 70
     0
  0
ENDTAB
  0
TABLE
  2
DIMSTYLE
 70
     1
  0
DIMSTYLE
  2
STANDARD
 70
     0
  3

  4

  5

  6

  7

 40
1.0
 41
0.18
 42
0.0625
 43
0.38
 44
0.18
 45
0.0
 46
0.0
 47
0.0
 48
0.0
140
0.18
141
0.09
142
0.0
143
25.4
144
1.0
145
0.0
146
1.0
147
0.09
 71
     0
 72
     0
 73
     1
 74
     1
 75
     0
 76
     0
 77
     0
 78
     0
170
     0
171
     2
172
     0
173
     0
174
     0
175
     0
176
     0
177
     0
178
     0
  0
ENDTAB
  0
ENDSEC
  0
SECTION
  2
BLOCKS
  0
BLOCK
  8
0
  2
$MODEL_SPACE
 70
     0
 10
0.0
 20
0.0
 30
0.0
  3
$MODEL_SPACE
  1

  0
ENDBLK
  5
21
  8
0
  0
BLOCK
 67
     1
  8
0
  2
$PAPER_SPACE
 70
     0
 10
0.0
 20
0.0
 30
0.0
  3
$PAPER_SPACE
  1

  0
ENDBLK
  5
1D
 67
     1
  8
0
  0
BLOCK
  8
0
  2
LABEL
 70
     0
 10
0.0
 20
0.0
 30
0.0
  3
LABEL
  1

  0
TEXT
  5
2F
  8
TRANSSIDECENTERLINES
  6
CONTINUOUS
 62
    93
 10
0.1327463388442993
 20
0.6624889373779297
 30
0.0
 40
0.125
  1
ELECTRO AUTOMOTIVE
  7
ENGINEER
  0
TEXT
  5
30
  8
TRANSSIDECENTERLINES
  6
CONTINUOUS
 62
    93
 10
0.1327463388442993
 20
0.4749889373779297
 30
0.0
 40
0.125
  1
P.O. BOX 1113 FELTON CA. 95018-1113
  7
ENGINEER
  0
TEXT
  5
31
  8
TRANSSIDECENTERLINES
  6
CONTINUOUS
 62
    93
 10
0.1327463388442993
 20
0.0999889373779297
 30
0.0
 40
0.125
  1
DRAWN BY MICHAEL P. BROWN
  7
ENGINEER
  0
LINE
  5
32
  8
TRANSSIDECENTERLINES
  6
CONTINUOUS
 62
    93
 10
0.0
 20
0.8999843597412109
 30
0.0
 11
3.566451191902161
 21
0.8999843597412109
 31
0.0
  0
LINE
  5
33
  8
TRANSSIDECENTERLINES
  6
CONTINUOUS
 62
    93
 10
3.566451191902161
 20
0.8999843597412109
 30
0.0
 11
3.566451191902161
 21
0.0
 31
0.0
  0
LINE
  5
34
  8
TRANSSIDECENTERLINES
  6
CONTINUOUS
 62
    93
 10
3.566451191902161
 20
0.0
 30
0.0
 11
0.0
 21
0.0
 31
0.0
  0
LINE
  5
35
  8
TRANSSIDECENTERLINES
  6
CONTINUOUS
 62
    93
 10
0.0
 20
0.0
 30
0.0
 11
0.0
 21
0.8999843597412109
 31
0.0
  0
TEXT
  5
36
  8
TRANSSIDECENTERLINES
  6
CONTINUOUS
 62
    93
 10
0.1327463388442993
 20
0.2874889373779297
 30
0.0
 40
0.125
  1
PHONE 831-429-1989 FAX 831-429-1907
  7
ENGINEER
  0
ENDBLK
  5
2C
  8
0
  0
ENDSEC
  0
SECTION
  2
ENTITIES
  0
LINE
  5
37
  8
DIEM
  6
CONTINUOUS
 62
   173
 10
9.305918100352516
 20
-6.162081352948379
 30
0.0
 11
9.305918100352516
 21
-6.060235191047005
 31
0.0
  0
LINE
  5
39
  8
MOTORSIDE
  6
CONTINUOUS
 62
    93
 10
19.47626469541683
 20
11.94847365266568
 30
0.0
 11
21.87450274702758
 21
8.812053633716591
 31
0.0
  0
POINT
  5
3B
  8
MOTORSIDE
  6
CONTINUOUS
 62
    93
 10
11.18080534740706
 20
8.852376547167221
 30
0.0
  0
POINT
  5
3C
  8
MOTORSIDE
  6
CONTINUOUS
 62
    93
 10
11.17961497832992
 20
8.853266311965651
 30
0.0
  0
LINE
  5
3D
  8
MOTORSIDE
  6
CONTINUOUS
 62
    93
 10
11.17961497832992
 20
8.853266311965651
 30
0.0
 11
12.39166528913146
 21
10.24773219877004
 31
0.0
  0
POINT
  5
3E
  8
MOTORSIDE
  6
CONTINUOUS
 62
    93
 10
11.71954978866972
 20
8.616551859754662
 30
0.0
  0
LINE
  5
3F
  8
MOTORSIDE
  6
CONTINUOUS
 62
    93
 10
13.64681375944606
 20
11.69862700377483
 30
0.0
 11
13.64681375944606
 21
11.69862700377483
 31
0.0
  0
POINT
  5
40
  8
MOTORSIDE
  6
CONTINUOUS
 62
    93
 10
16.71614456658465
 20
11.94846974055817
 30
0.0
  0
POINT
  5
41
  8
MOTORSIDE
  6
CONTINUOUS
 62
    93
 10
16.71614456658465
 20
11.94846974055817
 30
0.0
  0
CIRCLE
  5
42
  8
MOTORSIDE
  6
CONTINUOUS
 62
    93
 10
16.71614456658465
 20
0.1724697405581708
 30
0.0
 40
0.011
  0
POINT
  5
43
  8
MOTORSIDE
  6
CONTINUOUS
 62
    93
 10
16.71614456658465
 20
9.42446974055817
 30
0.0
  0
POINT
  5
44
  8
MOTORSIDE
  6
CONTINUOUS
 62
    93
 10
16.71614456658465
 20
9.42446974055817
 30
0.0
  0
CIRCLE
  5
45
  8
MOTORSIDE
  6
GC___4
 62
    93
 10
16.71614456658465
 20
9.42446974055817
 30
0.0
 40
0.2656006813049334
  0
POINT
  5
47
  8
MOTORSIDE
  6
CONTINUOUS
 62
    93
 10
13.09114456658465
 20
5.79946974055817
 30
0.0
  0
POINT
  5
48
  8
MOTORSIDE
  6
CONTINUOUS
 62
    93
 10
13.09114456658465
 20
5.79946974055817
 30
0.0
  0
CIRCLE
  5
49
  8
MOTORSIDE
  6
GC___4
 62
    93
 10
13.09114456658465
 20
5.79946974055817
 30
0.0
 40
0.2656006813049334
  0
POINT
  5
4A
  8
MOTORSIDE
  6
CONTINUOUS
 62
    93
 10
16.71614456658465
 20
2.174469740558168
 30
0.0
  0
POINT
  5
4B
  8
MOTORSIDE
  6
CONTINUOUS
 62
    93
 10
16.71614456658465
 20
2.174469740558168
 30
0.0
  0
POINT
  5
4C
  8
MOTORSIDE
  6
CONTINUOUS
 62
    93
 10
20.34114456658465
 20
5.79946974055817
 30
0.0
  0
POINT
  5
4D
  8
MOTORSIDE
  6
CONTINUOUS
 62
    93
 10
20.34114456658465
 20
5.79946974055817
 30
0.0
  0
CIRCLE
  5
4E
  8
MOTORSIDE
  6
GC___4
 62
    93
 10
20.34114456658465
 20
5.79946974055817
 30
0.0
 40
0.2656006813049352
  0
POINT
  5
4F
  8
MOTORSIDE
  6
CONTINUOUS
 62
    93
 10
16.71614456658465
 20
5.799469740558169
 30
0.0
  0
CIRCLE
  5
50
  8
MOTORSIDE
  6
CONTINUOUS
 62
    93
 10
21.49329473427878
 20
0.1883733339224527
 30
0.0
 40
0.1250000000000007
  0
LINE
  5
51
  8
MOTORSIDE
  6
CONTINUOUS
 62
    93
 10
13.64681375944606
 20
3.40698622961877
 30
0.0
 11
13.64681375944606
 21
3.40698622961877
 31
0.0
  0
LINE
  5
52
  8
MOTORSIDE
  6
CONTINUOUS
 62
    93
 10
11.17961497832992
 20
8.853266311965651
 30
0.0
 11
8.525517439119078
 21
-3.847254917300282
 31
0.0
  0
LINE
  5
53
  8
MOTORSIDE
  6
CONTINUOUS
 62
    93
 10
21.87450274702758
 20
8.812053633716591
 30
0.0
 11
24.62411018132205
 21
-3.938608227050988
 31
0.0
  0
POINT
  5
54
  8
MOTORSIDE
  6
CONTINUOUS
 62
    93
 10
16.71614456658465
 20
-4.965530259441831
 30
0.0
  0
POINT
  5
55
  8
MOTORSIDE
  6
CONTINUOUS
 62
    93
 10
16.71614456658465
 20
-4.965530259441831
 30
0.0
  0
CIRCLE
  5
56
  8
MOTORSIDE
  6
CONTINUOUS
 62
    93
 10
16.71614456658465
 20
-4.965530259441831
 30
0.0
 40
0.0
  0
CIRCLE
  5
57
  8
MOTORSIDE
  6
CONTINUOUS
 62
    93
 10
16.71614456658465
 20
-4.965530259441831
 30
0.0
 40
0.625
  0
POINT
  5
58
  8
MOTORSIDE
  6
CONTINUOUS
 62
    93
 10
16.71614456658465
 20
-1.340530259441831
 30
0.0
  0
CIRCLE
  5
59
  8
MOTORSIDE
  6
CONTINUOUS
 62
    93
 10
16.71614456658465
 20
-1.340530259441831
 30
0.0
 40
0.2656006813049316
  0
POINT
  5
5A
  8
MOTORSIDE
  6
CONTINUOUS
 62
    93
 10
13.09114456658465
 20
-4.965530259441831
 30
0.0
  0
CIRCLE
  5
5B
  8
MOTORSIDE
  6
CONTINUOUS
 62
    93
 10
13.09114456658465
 20
-4.965530259441831
 30
0.0
 40
0.2656006813049316
  0
POINT
  5
5C
  8
MOTORSIDE
  6
CONTINUOUS
 62
    93
 10
16.71614456658465
 20
-8.590530259441831
 30
0.0
  0
CIRCLE
  5
5D
  8
MOTORSIDE
  6
CONTINUOUS
 62
    93
 10
16.71614456658465
 20
-8.590530259441831
 30
0.0
 40
0.2656006813049316
  0
POINT
  5
5E
  8
MOTORSIDE
  6
CONTINUOUS
 62
    93
 10
20.34114456658465
 20
-4.965530259441833
 30
0.0
  0
CIRCLE
  5
5F
  8
MOTORSIDE
  6
CONTINUOUS
 62
    93
 10
20.34114456658465
 20
-4.965530259441833
 30
0.0
 40
0.2656006813049316
  0
CIRCLE
  5
60
  8
MOTORSIDE
  6
GC___6
 62
    93
 10
16.71614456658465
 20
-4.965530259441831
 30
0.0
 40
3.625
  0
LINE
  5
62
  8
MOTORSIDE
  6
CONTINUOUS
 62
    93
 10
8.681174351164659
 20
-5.728137926017881
 30
0.0
 11
8.525517439119078
 21
-3.847254917300282
 31
0.0
  0
LINE
  5
63
  8
MOTORSIDE
  6
CONTINUOUS
 62
    93
 10
24.62411018132205
 20
-3.938608227050988
 30
0.0
 11
25.01939908547667
 21
-7.490887028730225
 31
0.0
  0
LINE
  5
64
  8
MOTORSIDE
  6
CONTINUOUS
 62
    93
 10
15.96913398212724
 20
-11.87874100580735
 30
0.0
 11
11.86315153115289
 21
-9.774182978755846
 31
0.0
  0
LINE
  5
65
  8
MOTORSIDE
  6
CONTINUOUS
 62
    93
 10
8.681174351164659
 20
-5.728137926017881
 30
0.0
 11
9.96717283760878
 21
-5.640677365297753
 31
0.0
  0
ARC
  5
66
  8
MOTORSIDE
  6
CONTINUOUS
 62
    93
 10
16.56621055275897
 20
-5.115376766378082
 30
0.0
 40
6.619912347244486
 50
184.5512963396968
 51
224.7291693211727
  0
ARC
  5
67
  8
MOTORSIDE
  6
CONTINUOUS
 62
    93
 10
19.03313255163761
 20
-3.873497475473415
 30
0.0
 40
6.994347302942074
 50
309.6442910299996
 51
328.856211724934
  0
CIRCLE
  5
68
  8
MOTORSIDE
  6
CONTINUOUS
 62
    93
 10
16.1207803598189
 20
-11.45641282069547
 30
0.0
 40
0.1250000000000007
  0
POINT
  5
69
  8
MOTORSIDE
  6
CONTINUOUS
 62
    93
 10
16.71614456658465
 20
5.79946974055817
 30
0.0
  0
POINT
  5
6A
  8
MOTORSIDE
  6
CONTINUOUS
 62
    93
 10
16.71614456658465
 20
5.79946974055817
 30
0.0
  0
CIRCLE
  5
6B
  8
MOTORSIDE
  6
CONTINUOUS
 62
    93
 10
16.71614456658465
 20
5.79946974055817
 30
0.0
 40
0.0
  0
CIRCLE
  5
6C
  8
MOTORSIDE
  6
CONTINUOUS
 62
    93
 10
16.71614456658465
 20
5.79946974055817
 30
0.0
 40
0.625
  0
POINT
  5
6D
  8
MOTORSIDE
  6
CONTINUOUS
 62
    93
 10
16.71614456658465
 20
9.42446974055817
 30
0.0
  0
CIRCLE
  5
6E
  8
MOTORSIDE
  6
CONTINUOUS
 62
    93
 10
16.71614456658465
 20
9.42446974055817
 30
0.0
 40
0.2656006813049316
  0
POINT
  5
6F
  8
MOTORSIDE
  6
CONTINUOUS
 62
    93
 10
13.09114456658465
 20
5.79946974055817
 30
0.0
  0
CIRCLE
  5
70
  8
MOTORSIDE
  6
CONTINUOUS
 62
    93
 10
13.09114456658465
 20
5.79946974055817
 30
0.0
 40
0.2656006813049316
  0
POINT
  5
71
  8
MOTORSIDE
  6
CONTINUOUS
 62
    93
 10
16.71614456658465
 20
2.17446974055817
 30
0.0
  0
POINT
  5
72
  8
MOTORSIDE
  6
CONTINUOUS
 62
    93
 10
20.34114456658465
 20
5.799469740558166
 30
0.0
  0
CIRCLE
  5
73
  8
MOTORSIDE
  6
CONTINUOUS
 62
    93
 10
20.34114456658465
 20
5.799469740558166
 30
0.0
 40
0.2656006813049316
  0
CIRCLE
  5
74
  8
MOTORSIDE
  6
GC___6
 62
    93
 10
16.71614456658465
 20
5.79946974055817
 30
0.0
 40
3.625
  0
POINT
  5
75
  8
MOTORSIDE
  6
CONTINUOUS
 62
    93
 10
16.71614456658465
 20
1.908869059253238
 30
0.0
  0
CIRCLE
  5
76
  8
MOTORSIDE
  6
CONTINUOUS
 62
    93
 10
16.71614456658465
 20
2.174469740558168
 30
0.0
 40
0.2656006813049299
  0
CIRCLE
  5
77
  8
MOTORSIDE
  6
CONTINUOUS
 62
    93
 10
21.49329473427878
 20
0.1883733339224527
 30
0.0
 40
0.1250000000000007
  0
CIRCLE
  5
78
  8
MOTORSIDE
  6
CONTINUOUS
 62
    93
 10
9.032798179245608
 20
-3.963664509799857
 30
0.0
 40
0.1249999999999995
  0
POINT
  5
79
  8
MOTORSIDE
  6
CONTINUOUS
 62
    93
 10
11.71954978866972
 20
0.3249110855986004
 30
0.0
  0
POINT
  5
7A
  8
MOTORSIDE
  6
CONTINUOUS
 62
    93
 10
11.71954978866972
 20
0.3249110855986004
 30
0.0
  0
POINT
  5
7B
  8
MOTORSIDE
  6
CONTINUOUS
 62
    93
 10
11.71954978866972
 20
0.3249110855986004
 30
0.0
  0
CIRCLE
  5
7C
  8
MOTORSIDE
  6
CONTINUOUS
 62
    93
 10
11.71954978866972
 20
0.3249110855986004
 30
0.0
 40
0.1249999999999995
  0
POINT
  5
7D
  8
MOTORSIDE
  6
CONTINUOUS
 62
    93
 10
11.71954978866972
 20
0.3249110855986004
 30
0.0
  0
POINT
  5
7E
  8
MOTORSIDE
  6
CONTINUOUS
 62
    93
 10
11.71954978866972
 20
0.3249110855986004
 30
0.0
  0
POINT
  5
7F
  8
MOTORSIDE
  6
CONTINUOUS
 62
    93
 10
11.71954978866972
 20
0.3249110855986004
 30
0.0
  0
LINE
  5
80
  8
MOTORSIDECENTERLINES
  6
GC___6
 62
    93
 10
24.53466462043344
 20
5.799469740558169
 30
0.0
 11
9.450442707472803
 21
5.799469740558169
 31
0.0
  0
LINE
  5
82
  8
MOTORSIDE
  6
CONTINUOUS
 62
    93
 10
15.96913398212724
 20
-11.87874100580735
 30
0.0
 11
18.81682168070016
 21
-11.87874100580735
 31
0.0
  0
LINE
  5
83
  8
MOTORSIDE
  6
CONTINUOUS
 62
    93
 10
23.49566199401185
 20
-9.259286662780699
 30
0.0
 11
18.81682168070015
 21
-11.87874100580735
 31
0.0
  0
POINT
  5
84
  8
MOTORSIDE
  6
CONTINUOUS
 62
    93
 10
16.71614456658465
 20
-11.87874100580735
 30
0.0
  0
LINE
  5
85
  8
TRANSIDE
  6
CONTINUOUS
 62
    93
 10
41.14306812273689
 20
11.94847365266568
 30
0.0
 11
38.74483007112613
 21
8.812053633716589
 31
0.0
  0
POINT
  5
87
  8
TRANSIDE
  6
CONTINUOUS
 62
    93
 10
49.43852747074666
 20
8.852376547167214
 30
0.0
  0
POINT
  5
88
  8
TRANSIDE
  6
CONTINUOUS
 62
    93
 10
49.4397178398238
 20
8.853266311965644
 30
0.0
  0
LINE
  5
89
  8
TRANSIDE
  6
CONTINUOUS
 62
    93
 10
49.4397178398238
 20
8.853266311965644
 30
0.0
 11
48.22766752902226
 21
10.24773219877004
 31
0.0
  0
POINT
  5
8A
  8
TRANSIDE
  6
CONTINUOUS
 62
    93
 10
43.90318825156907
 20
11.94846974055817
 30
0.0
  0
POINT
  5
8B
  8
TRANSIDE
  6
CONTINUOUS
 62
    93
 10
43.90318825156907
 20
11.94846974055817
 30
0.0
  0
CIRCLE
  5
8C
  8
TRANSIDE
  6
CONTINUOUS
 62
    93
 10
43.90318825156906
 20
0.1724697405581663
 30
0.0
 40
0.011
  0
POINT
  5
8D
  8
TRANSIDE
  6
CONTINUOUS
 62
    93
 10
43.90318825156907
 20
9.424469740558164
 30
0.0
  0
POINT
  5
8E
  8
TRANSIDE
  6
CONTINUOUS
 62
    93
 10
43.90318825156907
 20
9.424469740558164
 30
0.0
  0
CIRCLE
  5
8F
  8
TRANSIDE
  6
CONTINUOUS
 62
    93
 10
43.90318825156907
 20
9.424469740558164
 30
0.0
 40
0.4685006141662615
  0
CIRCLE
  5
90
  8
TRANSIDE
  6
GC___4
 62
    93
 10
43.90318825156907
 20
9.424469740558164
 30
0.0
 40
0.2656006813049334
  0
POINT
  5
91
  8
TRANSIDE
  6
CONTINUOUS
 62
    93
 10
47.52818825156906
 20
5.799469740558163
 30
0.0
  0
POINT
  5
92
  8
TRANSIDE
  6
CONTINUOUS
 62
    93
 10
47.52818825156906
 20
5.799469740558163
 30
0.0
  0
CIRCLE
  5
93
  8
TRANSIDE
  6
CONTINUOUS
 62
    93
 10
47.52818825156906
 20
5.799469740558163
 30
0.0
 40
0.4685006141662669
  0
CIRCLE
  5
94
  8
TRANSIDE
  6
GC___4
 62
    93
 10
47.52818825156906
 20
5.799469740558163
 30
0.0
 40
0.2656006813049388
  0
POINT
  5
95
  8
TRANSIDE
  6
CONTINUOUS
 62
    93
 10
43.90318825156906
 20
2.174469740558163
 30
0.0
  0
POINT
  5
96
  8
TRANSIDE
  6
CONTINUOUS
 62
    93
 10
43.90318825156906
 20
2.174469740558163
 30
0.0
  0
CIRCLE
  5
97
  8
TRANSIDE
  6
CONTINUOUS
 62
    93
 10
43.90318825156906
 20
2.174469740558163
 30
0.0
 40
0.4685006141662615
  0
POINT
  5
98
  8
TRANSIDE
  6
CONTINUOUS
 62
    93
 10
40.27818825156907
 20
5.799469740558166
 30
0.0
  0
POINT
  5
99
  8
TRANSIDE
  6
CONTINUOUS
 62
    93
 10
40.27818825156907
 20
5.799469740558166
 30
0.0
  0
CIRCLE
  5
9A
  8
TRANSIDE
  6
CONTINUOUS
 62
    93
 10
40.27818825156907
 20
5.799469740558166
 30
0.0
 40
0.4685006141662669
  0
CIRCLE
  5
9B
  8
TRANSIDE
  6
GC___4
 62
    93
 10
40.27818825156907
 20
5.799469740558166
 30
0.0
 40
0.2656006813049388
  0
POINT
  5
9C
  8
TRANSIDE
  6
CONTINUOUS
 62
    93
 10
43.90318825156907
 20
5.799469740558164
 30
0.0
  0
CIRCLE
  5
9D
  8
TRANSIDE
  6
CONTINUOUS
 62
    93
 10
39.12603808387493
 20
0.1883733339224499
 30
0.0
 40
0.1250000000000007
  0
LINE
  5
9E
  8
TRANSIDE
  6
CONTINUOUS
 62
    93
 10
46.97251905870765
 20
3.406986229618764
 30
0.0
 11
46.97251905870765
 21
3.406986229618764
 31
0.0
  0
LINE
  5
9F
  8
TRANSIDE
  6
CONTINUOUS
 62
    93
 10
49.4397178398238
 20
8.853266311965644
 30
0.0
 11
52.09381537903464
 21
-3.847254917300289
 31
0.0
  0
LINE
  5
A0
  8
TRANSIDE
  6
CONTINUOUS
 62
    93
 10
38.74483007112613
 20
8.812053633716589
 30
0.0
 11
35.99522263683166
 21
-3.93860822705099
 31
0.0
  0
POINT
  5
A1
  8
TRANSIDE
  6
CONTINUOUS
 62
    93
 10
43.90318825156906
 20
-4.965530259441835
 30
0.0
  0
POINT
  5
A2
  8
TRANSIDE
  6
CONTINUOUS
 62
    93
 10
43.90318825156906
 20
-4.965530259441835
 30
0.0
  0
CIRCLE
  5
A3
  8
TRANSIDE
  6
CONTINUOUS
 62
    93
 10
43.90318825156906
 20
-4.965530259441835
 30
0.0
 40
0.0
  0
CIRCLE
  5
A4
  8
TRANSIDE
  6
CONTINUOUS
 62
    93
 10
43.90318825156906
 20
-4.965530259441835
 30
0.0
 40
0.625
  0
POINT
  5
A5
  8
TRANSIDE
  6
CONTINUOUS
 62
    93
 10
43.90318825156906
 20
-1.340530259441835
 30
0.0
  0
CIRCLE
  5
A6
  8
TRANSIDE
  6
CONTINUOUS
 62
    93
 10
43.90318825156906
 20
-1.340530259441835
 30
0.0
 40
0.4685006141662597
  0
CIRCLE
  5
A7
  8
TRANSIDE
  6
CONTINUOUS
 62
    93
 10
43.90318825156906
 20
-1.340530259441835
 30
0.0
 40
0.2656006813049316
  0
POINT
  5
A8
  8
TRANSIDE
  6
CONTINUOUS
 62
    93
 10
47.52818825156906
 20
-4.965530259441837
 30
0.0
  0
CIRCLE
  5
A9
  8
TRANSIDE
  6
CONTINUOUS
 62
    93
 10
47.52818825156906
 20
-4.965530259441837
 30
0.0
 40
0.4685006141662598
  0
CIRCLE
  5
AA
  8
TRANSIDE
  6
CONTINUOUS
 62
    93
 10
47.52818825156906
 20
-4.965530259441837
 30
0.0
 40
0.2656006813049316
  0
POINT
  5
AB
  8
TRANSIDE
  6
CONTINUOUS
 62
    93
 10
43.90318825156906
 20
-8.590530259441836
 30
0.0
  0
CIRCLE
  5
AC
  8
TRANSIDE
  6
CONTINUOUS
 62
    93
 10
43.90318825156906
 20
-8.590530259441836
 30
0.0
 40
0.4685006141662598
  0
CIRCLE
  5
AD
  8
TRANSIDE
  6
CONTINUOUS
 62
    93
 10
43.90318825156906
 20
-8.590530259441836
 30
0.0
 40
0.2656006813049316
  0
POINT
  5
AE
  8
TRANSIDE
  6
CONTINUOUS
 62
    93
 10
40.27818825156906
 20
-4.965530259441836
 30
0.0
  0
CIRCLE
  5
AF
  8
TRANSIDE
  6
CONTINUOUS
 62
    93
 10
40.27818825156906
 20
-4.965530259441836
 30
0.0
 40
0.4685006141662598
  0
CIRCLE
  5
B0
  8
TRANSIDE
  6
CONTINUOUS
 62
    93
 10
40.27818825156906
 20
-4.965530259441836
 30
0.0
 40
0.2656006813049316
  0
CIRCLE
  5
B1
  8
TRANSIDE
  6
GC___6
 62
    93
 10
43.90318825156906
 20
-4.965530259441835
 30
0.0
 40
3.625
  0
LINE
  5
B2
  8
TRANSIDE
  6
CONTINUOUS
 62
    93
 10
51.93815846698905
 20
-5.728137926017888
 30
0.0
 11
52.09381537903464
 21
-3.847254917300289
 31
0.0
  0
LINE
  5
B3
  8
TRANSIDE
  6
CONTINUOUS
 62
    93
 10
35.99522263683166
 20
-3.93860822705099
 30
0.0
 11
35.59993373267704
 21
-7.490887028730227
 31
0.0
  0
LINE
  5
B4
  8
TRANSIDE
  6
CONTINUOUS
 62
    93
 10
44.65019883602647
 20
-11.87874100580736
 30
0.0
 11
48.75618128700082
 21
-9.774182978755853
 31
0.0
  0
LINE
  5
B5
  8
TRANSIDE
  6
CONTINUOUS
 62
    93
 10
51.93815846698905
 20
-5.728137926017888
 30
0.0
 11
50.65215998054494
 21
-5.64067736529776
 31
0.0
  0
ARC
  5
B6
  8
TRANSIDE
  6
CONTINUOUS
 62
    93
 10
44.05312226539475
 20
-5.115376766378077
 30
0.0
 40
6.619912347244489
 50
315.2708306788272
 51
355.4487036603031
  0
ARC
  5
B7
  8
TRANSIDE
  6
CONTINUOUS
 62
    93
 10
41.58620026651629
 20
-3.873497475473279
 30
0.0
 40
6.994347302942304
 50
211.1437882750662
 51
230.35570897
  0
CIRCLE
  5
B8
  8
TRANSIDE
  6
CONTINUOUS
 62
    93
 10
44.49855245833481
 20
-11.45641282069547
 30
0.0
 40
0.1250000000000007
  0
POINT
  5
B9
  8
TRANSIDE
  6
CONTINUOUS
 62
    93
 10
43.90318825156907
 20
5.799469740558165
 30
0.0
  0
POINT
  5
BA
  8
TRANSIDE
  6
CONTINUOUS
 62
    93
 10
43.90318825156907
 20
5.799469740558165
 30
0.0
  0
CIRCLE
  5
BB
  8
TRANSIDE
  6
CONTINUOUS
 62
    93
 10
43.90318825156907
 20
5.799469740558165
 30
0.0
 40
0.0
  0
CIRCLE
  5
BC
  8
TRANSIDE
  6
CONTINUOUS
 62
    93
 10
43.90318825156907
 20
5.799469740558165
 30
0.0
 40
0.625
  0
POINT
  5
BD
  8
TRANSIDE
  6
CONTINUOUS
 62
    93
 10
43.90318825156907
 20
9.424469740558164
 30
0.0
  0
CIRCLE
  5
BE
  8
TRANSIDE
  6
CONTINUOUS
 62
    93
 10
43.90318825156907
 20
9.424469740558164
 30
0.0
 40
0.4685006141662598
  0
CIRCLE
  5
BF
  8
TRANSIDE
  6
CONTINUOUS
 62
    93
 10
43.90318825156907
 20
9.424469740558164
 30
0.0
 40
0.2656006813049316
  0
POINT
  5
C0
  8
TRANSIDE
  6
CONTINUOUS
 62
    93
 10
47.52818825156906
 20
5.799469740558163
 30
0.0
  0
CIRCLE
  5
C1
  8
TRANSIDE
  6
CONTINUOUS
 62
    93
 10
47.52818825156906
 20
5.799469740558163
 30
0.0
 40
0.4685006141662598
  0
CIRCLE
  5
C2
  8
TRANSIDE
  6
CONTINUOUS
 62
    93
 10
47.52818825156906
 20
5.799469740558163
 30
0.0
 40
0.2656006813049316
  0
POINT
  5
C3
  8
TRANSIDE
  6
CONTINUOUS
 62
    93
 10
43.90318825156906
 20
2.174469740558165
 30
0.0
  0
CIRCLE
  5
C4
  8
TRANSIDE
  6
CONTINUOUS
 62
    93
 10
43.90318825156906
 20
2.174469740558165
 30
0.0
 40
0.4685006141662598
  0
POINT
  5
C5
  8
TRANSIDE
  6
CONTINUOUS
 62
    93
 10
40.27818825156908
 20
5.799469740558163
 30
0.0
  0
CIRCLE
  5
C6
  8
TRANSIDE
  6
CONTINUOUS
 62
    93
 10
40.27818825156908
 20
5.799469740558163
 30
0.0
 40
0.4685006141662598
  0
CIRCLE
  5
C7
  8
TRANSIDE
  6
CONTINUOUS
 62
    93
 10
40.27818825156908
 20
5.799469740558163
 30
0.0
 40
0.2656006813049316
  0
CIRCLE
  5
C8
  8
TRANSIDE
  6
GC___6
 62
    93
 10
43.90318825156907
 20
5.799469740558165
 30
0.0
 40
3.624999999999999
  0
POINT
  5
C9
  8
TRANSIDE
  6
CONTINUOUS
 62
    93
 10
43.90318825156906
 20
1.908869059253234
 30
0.0
  0
CIRCLE
  5
CA
  8
TRANSIDE
  6
CONTINUOUS
 62
    93
 10
43.90318825156906
 20
2.174469740558163
 30
0.0
 40
0.2656006813049299
  0
CIRCLE
  5
CB
  8
TRANSIDE
  6
CONTINUOUS
 62
    93
 10
39.12603808387493
 20
0.1883733339224499
 30
0.0
 40
0.1250000000000007
  0
CIRCLE
  5
CC
  8
TRANSIDE
  6
CONTINUOUS
 62
    93
 10
36.92080407479887
 20
-4.428575691541353
 30
0.0
 40
0.124999999999999
  0
CIRCLE
  5
CD
  8
TRANSIDE
  6
CONTINUOUS
 62
    93
 10
51.58653463890811
 20
-3.963664509799865
 30
0.0
 40
0.125
  0
POINT
  5
CE
  8
TRANSIDE
  6
CONTINUOUS
 62
    93
 10
48.899783029484
 20
0.3249110855985941
 30
0.0
  0
POINT
  5
CF
  8
TRANSIDE
  6
CONTINUOUS
 62
    93
 10
48.899783029484
 20
0.3249110855985941
 30
0.0
  0
POINT
  5
D0
  8
TRANSIDE
  6
CONTINUOUS
 62
    93
 10
48.899783029484
 20
0.3249110855985941
 30
0.0
  0
CIRCLE
  5
D1
  8
TRANSIDE
  6
CONTINUOUS
 62
    93
 10
48.899783029484
 20
0.3249110855985941
 30
0.0
 40
0.1249999999999999
  0
POINT
  5
D2
  8
TRANSIDE
  6
CONTINUOUS
 62
    93
 10
48.899783029484
 20
0.3249110855985941
 30
0.0
  0
POINT
  5
D3
  8
TRANSIDE
  6
CONTINUOUS
 62
    93
 10
48.899783029484
 20
0.3249110855985941
 30
0.0
  0
POINT
  5
D4
  8
TRANSIDE
  6
CONTINUOUS
 62
    93
 10
48.899783029484
 20
0.3249110855985941
 30
0.0
  0
CIRCLE
  5
D5
  8
TRANSIDE
  6
CONTINUOUS
 62
    93
 10
48.899783029484
 20
0.3249110855985941
 30
0.0
 40
0.1249999999999999
  0
LINE
  5
D6
  8
TRANSIDE
  6
CONTINUOUS
 62
    93
 10
44.65019883602647
 20
-11.87874100580736
 30
0.0
 11
41.80251113745356
 21
-11.87874100580735
 31
0.0
  0
LINE
  5
D7
  8
TRANSIDE
  6
CONTINUOUS
 62
    93
 10
37.12367082414185
 20
-9.259286662780701
 30
0.0
 11
41.80251113745356
 21
-11.87874100580735
 31
0.0
  0
POINT
  5
D8
  8
TRANSIDE
  6
CONTINUOUS
 62
    93
 10
43.90318825156906
 20
-11.87874100580736
 30
0.0
  0
CIRCLE
  5
D9
  8
MOTORSIDE
  6
CONTINUOUS
 62
    93
 10
16.71614456658465
 20
-4.965530259441831
 30
0.0
 40
4.25
  0
CIRCLE
  5
DA
  8
MOTORSIDE
  6
CONTINUOUS
 62
    93
 10
16.71614456658465
 20
5.799469740558169
 30
0.0
 40
4.250000000000001
  0
CIRCLE
  5
DB
  8
MOTORSIDE
  6
CONTINUOUS
 62
    93
 10
16.71614456658465
 20
-4.965530259441831
 30
0.0
 40
3.0
  0
CIRCLE
  5
DC
  8
MOTORSIDE
  6
CONTINUOUS
 62
    93
 10
16.71614456658465
 20
5.79946974055817
 30
0.0
 40
3.0
  0
CIRCLE
  5
DD
  8
TRANSIDE
  6
CONTINUOUS
 62
    93
 10
43.90318825156907
 20
5.799469740558165
 30
0.0
 40
3.000000000000001
  0
CIRCLE
  5
DE
  8
TRANSIDE
  6
CONTINUOUS
 62
    93
 10
43.90318825156906
 20
-4.965530259441835
 30
0.0
 40
3.0
  0
LINE
  5
DF
  8
MOTORSIDE
  6
GC___9
 62
    93
 10
8.525517439119078
 20
-3.847254917300282
 30
0.0
 11
11.18107124604668
 21
0.5607482250776723
 31
0.0
  0
LINE
  5
E1
  8
MOTORSIDE
  6
GC___9
 62
    93
 10
11.17961497832992
 20
0.5616255378095918
 30
0.0
 11
12.39166528913146
 21
1.956091424613982
 31
0.0
  0
LINE
  5
E2
  8
MOTORSIDE
  6
GC___9
 62
    93
 10
12.39166528913146
 20
1.956091424613982
 30
0.0
 11
13.86294566090955
 21
3.656824922367667
 31
0.0
  0
LINE
  5
E3
  8
MOTORSIDE
  6
GC___9
 62
    93
 10
13.8629655492739
 20
3.656824922395856
 30
0.0
 11
19.47626469541683
 21
3.656832878509617
 31
0.0
  0
LINE
  5
E4
  8
MOTORSIDE
  6
GC___9
 62
    93
 10
19.47626469541683
 20
3.656832878509617
 30
0.0
 11
21.87450274702758
 21
0.5204128595605297
 31
0.0
  0
LINE
  5
E5
  8
MOTORSIDE
  6
GC___9
 62
    93
 10
21.87450274702758
 20
0.5204128595605297
 30
0.0
 11
24.62411018132205
 21
-3.938608227050988
 31
0.0
  0
LINE
  5
E6
  8
TRANSIDE
  6
GC___9
 62
    93
 10
38.74483007112613
 20
0.5204128595605271
 30
0.0
 11
35.99522263683166
 21
-3.93860822705099
 31
0.0
  0
LINE
  5
E7
  8
TRANSIDE
  6
GC___9
 62
    93
 10
41.14306812273689
 20
3.656832878509613
 30
0.0
 11
38.74483007112613
 21
0.5204128595605271
 31
0.0
  0
LINE
  5
E8
  8
TRANSIDE
  6
GC___9
 62
    93
 10
46.75636726887981
 20
3.65682492239585
 30
0.0
 11
41.14306812273689
 21
3.656832878509613
 31
0.0
  0
LINE
  5
E9
  8
TRANSIDE
  6
GC___9
 62
    93
 10
48.22766752902226
 20
1.956091424613976
 30
0.0
 11
46.75638715724417
 21
3.656824922367661
 31
0.0
  0
LINE
  5
EA
  8
TRANSIDE
  6
GC___9
 62
    93
 10
49.43971783982379
 20
0.5616255378095852
 30
0.0
 11
48.22766752902226
 21
1.956091424613976
 31
0.0
  0
LINE
  5
EB
  8
TRANSIDE
  6
GC___9
 62
    93
 10
52.09381537903464
 20
-3.847254917300289
 30
0.0
 11
49.43826157210703
 21
0.5607482250776658
 31
0.0
  0
LINE
  5
EC
  8
MOTORSIDECENTERLINES
  6
GC___6
 62
    93
 10
16.71614456658465
 20
12.20563432256349
 30
0.0
 11
16.71614456658465
 21
-12.88602571122583
 31
0.0
  0
LINE
  5
ED
  8
MOTORSIDECENTERLINES
  6
GC___6
 62
    93
 10
6.639269466190921
 20
-4.965530259441831
 30
0.0
 11
30.30966640907686
 21
-4.965530259441831
 31
0.0
  0
LINE
  5
EE
  8
TRANSSIDECENTERLINES
  6
GC___6
 62
    93
 10
36.08466819772028
 20
5.799469740558167
 30
0.0
 11
51.16889011068091
 21
5.799469740558162
 31
0.0
  0
LINE
  5
EF
  8
TRANSSIDECENTERLINES
  6
GC___6
 62
    93
 10
43.90318825156907
 20
12.20563432256348
 30
0.0
 11
43.90318825156906
 21
-12.88602571122584
 31
0.0
  0
LINE
  5
F0
  8
TRANSSIDECENTERLINES
  6
GC___6
 62
    93
 10
31.64963911315314
 20
-4.965530259441831
 30
0.0
 11
56.24841514819181
 21
-4.965530259441831
 31
0.0
  0
CIRCLE
  5
F1
  8
MOTORSIDE
  6
CONTINUOUS
 62
    93
 10
11.71954978866972
 20
0.3249110855986004
 30
0.0
 40
0.365
  0
CIRCLE
  5
F2
  8
MOTORSIDE
  6
CONTINUOUS
 62
    93
 10
23.69852874335484
 20
-4.428575691541351
 30
0.0
 40
0.3650000000000002
  0
LINE
  5
F3
  8
DIEM
  6
CONTINUOUS
 62
   133
 10
23.69852874335484
 20
-4.428575691541351
 30
0.0
 11
11.71954978866972
 21
0.3249110855986004
 31
0.0
  0
LINE
  5
F4
  8
DIEM
  6
CONTINUOUS
 62
   133
 10
11.71954978866972
 20
0.3249110855986004
 30
0.0
 11
16.71614456658465
 21
-4.965530259441831
 31
0.0
  0
LINE
  5
F5
  8
DIEM
  6
CONTINUOUS
 62
   133
 10
16.71614456658465
 20
-4.965530259441831
 30
0.0
 11
23.69852874335484
 21
-4.428575691541351
 31
0.0
  0
LINE
  5
F6
  8
DIEM
  6
CONTINUOUS
 62
   133
 10
17.85048390763397
 20
-2.107960228079969
 30
0.0
 11
16.71614456658465
 21
-4.965530259441831
 31
0.0
  0
LINE
  5
F7
  8
DIEM
  6
CONTINUOUS
 62
   133
 10
17.66787140286935
 20
-5.343327191969021
 30
0.0
 11
17.63157109705397
 21
-5.095976655689614
 31
0.0
  0
LINE
  5
F8
  8
DIEM
  6
CONTINUOUS
 62
   133
 10
17.66787140286935
 20
-5.343327191969021
 30
0.0
 11
17.86393310251332
 21
-5.188214942508445
 31
0.0
  0
LINE
  5
F9
  8
DIEM
  6
CONTINUOUS
 62
   133
 10
18.80221074391866
 20
-2.485757160607158
 30
0.0
 11
18.83851104973405
 21
-2.733107696886564
 31
0.0
  0
LINE
  5
FA
  8
DIEM
  6
CONTINUOUS
 62
   133
 10
18.80221074391866
 20
-2.485757160607158
 30
0.0
 11
18.6061490442747
 21
-2.640869410067734
 31
0.0
  0
LINE
  5
FB
  8
DIEM
  6
CONTINUOUS
 62
   133
 10
16.77423506649194
 20
-4.988589830567953
 30
0.0
 11
17.90023340249852
 21
-5.435565476473511
 31
0.0
  0
LINE
  5
FC
  8
DIEM
  6
CONTINUOUS
 62
   133
 10
17.90857440754126
 20
-2.131019799206091
 30
0.0
 11
19.03457274354784
 21
-2.577995445111649
 31
0.0
  0
TEXT
  5
FD
  8
DIEM
  6
CONTINUOUS
 62
   133
 10
17.55579555580486
 20
-4.040136836927852
 30
0.0
 40
0.25
  1
3.074"
  7
ENGINEER
  0
LINE
  5
FE
  8
DIEM
  6
CONTINUOUS
 62
   133
 10
17.66787140286935
 20
-5.343327191969021
 30
0.0
 11
18.17278010794274
 21
-4.071386836927852
 31
0.0
  0
LINE
  5
FF
  8
DIEM
  6
CONTINUOUS
 62
   133
 10
18.29730203884528
 20
-3.757697515648326
 30
0.0
 11
18.80221074391866
 21
-2.485757160607158
 31
0.0
  0
LINE
  5
100
  8
DIEM
  6
CONTINUOUS
 62
   133
 10
11.96680337958235
 20
0.9480001359892621
 30
0.0
 11
12.21414951128737
 21
0.9843304419411624
 31
0.0
  0
LINE
  5
101
  8
DIEM
  6
CONTINUOUS
 62
   133
 10
11.96680337958235
 20
0.9480001359892621
 30
0.0
 11
12.12193940763662
 21
0.7519572508861726
 31
0.0
  0
LINE
  5
102
  8
DIEM
  6
CONTINUOUS
 62
   133
 10
18.09773749854659
 20
-1.484871177689306
 30
0.0
 11
17.85039136684156
 21
-1.521201483641207
 31
0.0
  0
LINE
  5
103
  8
DIEM
  6
CONTINUOUS
 62
   133
 10
18.09773749854659
 20
-1.484871177689306
 30
0.0
 11
17.94260147049232
 21
-1.288828292586217
 31
0.0
  0
LINE
  5
104
  8
DIEM
  6
CONTINUOUS
 62
   133
 10
11.742602314004
 20
0.3830043819047352
 30
0.0
 11
12.05901348091946
 21
1.180373321213802
 31
0.0
  0
LINE
  5
105
  8
DIEM
  6
CONTINUOUS
 62
   133
 10
17.87353643296824
 20
-2.049866931773834
 30
0.0
 11
18.18994759988371
 21
-1.252497992464767
 31
0.0
  0
TEXT
  5
106
  8
DIEM
  6
CONTINUOUS
 62
   133
 10
14.3524643891513
 20
-0.3940483986832134
 30
0.0
 40
0.25
  1
6.596"
  7
ENGINEER
  0
LINE
  5
107
  8
DIEM
  6
CONTINUOUS
 62
   133
 10
11.96680337958235
 20
0.9480001359892621
 30
0.0
 11
14.63696964189559
 21
-0.1115726430168306
 31
0.0
  0
LINE
  5
108
  8
DIEM
  6
CONTINUOUS
 62
   133
 10
15.42757123623335
 20
-0.425298398683213
 30
0.0
 11
18.09773749854659
 21
-1.484871177689306
 31
0.0
  0
LINE
  5
109
  8
DIEM
  6
CONTINUOUS
 62
   133
 10
12.33086915265911
 20
1.865460610431085
 30
0.0
 11
12.57821528436414
 21
1.901790916382985
 31
0.0
  0
LINE
  5
10A
  8
DIEM
  6
CONTINUOUS
 62
   133
 10
12.33086915265911
 20
1.865460610431085
 30
0.0
 11
12.48600518071339
 21
1.669417725327996
 31
0.0
  0
LINE
  5
10B
  8
DIEM
  6
CONTINUOUS
 62
   133
 10
24.30984810734424
 20
-2.88802616670887
 30
0.0
 11
24.06250197563921
 21
-2.92435647266077
 31
0.0
  0
LINE
  5
10C
  8
DIEM
  6
CONTINUOUS
 62
   133
 10
24.30984810734424
 20
-2.88802616670887
 30
0.0
 11
24.15471207928996
 21
-2.69198328160578
 31
0.0
  0
LINE
  5
10D
  8
DIEM
  6
CONTINUOUS
 62
   133
 10
11.742602314004
 20
0.3830043819047352
 30
0.0
 11
12.42307925399623
 21
2.097833795655625
 31
0.0
  0
LINE
  5
10E
  8
DIEM
  6
CONTINUOUS
 62
   133
 10
23.72158126868912
 20
-4.370482395235216
 30
0.0
 11
24.40205820868136
 21
-2.65565298148433
 31
0.0
  0
TEXT
  5
10F
  8
DIEM
  6
CONTINUOUS
 62
   133
 10
17.61894976088045
 20
-0.6370988961110277
 30
0.0
 40
0.25
  1
12.888"
  7
ENGINEER
  0
LINE
  5
110
  8
DIEM
  6
CONTINUOUS
 62
   133
 10
12.33086915265911
 20
1.865460610431085
 30
0.0
 11
17.92454565946169
 21
-0.3542166601667565
 31
0.0
  0
LINE
  5
111
  8
DIEM
  6
CONTINUOUS
 62
   133
 10
18.71617160054166
 20
-0.6683488961110276
 30
0.0
 11
24.30984810734424
 21
-2.88802616670887
 31
0.0
  0
LINE
  5
112
  8
DIEM
  6
CONTINUOUS
 62
   133
 10
11.04758019279595
 20
-0.3097353559138925
 30
0.0
 11
11.28711567145444
 21
-0.3813087760071751
 31
0.0
  0
LINE
  5
113
  8
DIEM
  6
CONTINUOUS
 62
   133
 10
11.04758019279595
 20
-0.3097353559138925
 30
0.0
 11
11.10536352504169
 21
-0.5529658772605746
 31
0.0
  0
LINE
  5
114
  8
DIEM
  6
CONTINUOUS
 62
   133
 10
16.04417497071088
 20
-5.600176700954325
 30
0.0
 11
15.80463949205239
 21
-5.528603280861042
 31
0.0
  0
LINE
  5
115
  8
DIEM
  6
CONTINUOUS
 62
   133
 10
16.04417497071088
 20
-5.600176700954325
 30
0.0
 11
15.98639163846514
 21
-5.356946179607643
 31
0.0
  0
LINE
  5
116
  8
DIEM
  6
CONTINUOUS
 62
   133
 10
11.67411175320661
 20
0.2819968113620079
 30
0.0
 11
10.86582805094352
 21
-0.481392452860262
 31
0.0
  0
LINE
  5
117
  8
DIEM
  6
CONTINUOUS
 62
   133
 10
16.67070653112154
 20
-5.008444533678423
 30
0.0
 11
15.86242282885845
 21
-5.771833797900695
 31
0.0
  0
TEXT
  5
118
  8
DIEM
  6
CONTINUOUS
 62
   133
 10
11.99051087215321
 20
-2.118116841082395
 30
0.0
 40
0.25
  1
7.277"
  7
ENGINEER
  0
LINE
  5
119
  8
DIEM
  6
CONTINUOUS
 62
   133
 10
11.04758019279595
 20
-0.3097353559138925
 30
0.0
 11
12.48953691865929
 21
-1.83649264149268
 31
0.0
  0
LINE
  5
11A
  8
DIEM
  6
CONTINUOUS
 62
   133
 10
12.78503317121293
 20
-2.149366841082395
 30
0.0
 11
16.04417497071088
 21
-5.600176700954325
 31
0.0
  0
LINE
  5
11B
  8
DIEM
  6
CONTINUOUS
 62
   133
 10
16.77949167806842
 20
-5.789275684679264
 30
0.0
 11
16.98577629661778
 21
-5.648043053357942
 31
0.0
  0
LINE
  5
11C
  8
DIEM
  6
CONTINUOUS
 62
   133
 10
16.77949167806842
 20
-5.789275684679264
 30
0.0
 11
17.00494503078075
 21
-5.897307095624271
 31
0.0
  0
LINE
  5
11D
  8
DIEM
  6
CONTINUOUS
 62
   133
 10
23.76187585483861
 20
-5.252321116778784
 30
0.0
 11
23.55559123628925
 21
-5.393553748100107
 31
0.0
  0
LINE
  5
11E
  8
DIEM
  6
CONTINUOUS
 62
   133
 10
23.76187585483861
 20
-5.252321116778784
 30
0.0
 11
23.53642250212628
 21
-5.144289705833778
 31
0.0
  0
LINE
  5
11F
  8
DIEM
  6
CONTINUOUS
 62
   133
 10
16.72093675000515
 20
-5.027846268444849
 30
0.0
 11
16.79866041175043
 21
-6.038539720691338
 31
0.0
  0
LINE
  5
120
  8
DIEM
  6
CONTINUOUS
 62
   133
 10
23.70332092677534
 20
-4.490891700544369
 30
0.0
 11
23.78104458852062
 21
-5.501585152790858
 31
0.0
  0
TEXT
  5
121
  8
DIEM
  6
CONTINUOUS
 62
   133
 10
21.19405725871156
 20
-5.523268057752327
 30
0.0
 40
0.25
  1
7.003"
  7
ENGINEER
  0
LINE
  5
122
  8
DIEM
  6
CONTINUOUS
 62
   133
 10
16.77949167806842
 20
-5.789275684679264
 30
0.0
 11
21.16280725871156
 21
-5.452192925554373
 31
0.0
  0
LINE
  5
123
  8
DIEM
  6
CONTINUOUS
 62
   133
 10
22.58071601849924
 20
-5.343153868670758
 30
0.0
 11
23.76187585483861
 21
-5.252321116778784
 31
0.0
  0
LINE
  5
124
  8
DIEM
  6
CONTINUOUS
 62
   133
 10
16.19171248732761
 20
-11.35195999201415
 30
0.0
 11
16.29833133498051
 21
-11.12583520052687
 31
0.0
  0
LINE
  5
125
  8
DIEM
  6
CONTINUOUS
 62
   133
 10
16.19171248732761
 20
-11.35195999201415
 30
0.0
 11
16.44085172560805
 21
-11.33123223407832
 31
0.0
  0
LINE
  5
126
  8
DIEM
  6
CONTINUOUS
 62
   133
 10
16.19171248732761
 20
-11.35195999201415
 30
0.0
 11
16.85055812909266
 21
-10.89480179160575
 31
0.0
  0
LINE
  5
127
  8
DIEM
  6
CONTINUOUS
 62
   133
 10
16.85055812909266
 20
-10.89480179160575
 30
0.0
 11
17.10055812909266
 21
-10.89480179160575
 31
0.0
  0
TEXT
  5
128
  8
DIEM
  6
CONTINUOUS
 62
   133
 10
17.16305812909266
 20
-11.01980179160575
 30
0.0
 40
0.25
  1
DRILL 17/32"
  7
ENGINEER
  0
LINE
  5
129
  8
DIEM
  6
CONTINUOUS
 62
   133
 10
23.63902125942183
 20
-4.753031341831682
 30
0.0
 11
23.56040963166497
 21
-4.990350140036582
 31
0.0
  0
LINE
  5
12A
  8
DIEM
  6
CONTINUOUS
 62
   133
 10
23.63902125942183
 20
-4.753031341831682
 30
0.0
 11
23.39419133603695
 21
-4.803611067170524
 31
0.0
  0
LINE
  5
12B
  8
DIEM
  6
CONTINUOUS
 62
   133
 10
23.63902125942183
 20
-4.753031341831682
 30
0.0
 11
21.11736799957107
 21
-6.997579847852683
 31
0.0
  0
LINE
  5
12C
  8
DIEM
  6
CONTINUOUS
 62
   133
 10
21.11736799957107
 20
-6.997579847852683
 30
0.0
 11
21.36736799957107
 21
-6.997579847852683
 31
0.0
  0
TEXT
  5
12D
  8
DIEM
  6
CONTINUOUS
 62
   133
 10
21.42986799957107
 20
-7.122579847852683
 30
0.0
 40
0.25
  1
DOWEL B
  7
ENGINEER
  0
TEXT
  5
12E
  8
DIEM
  6
CONTINUOUS
 62
   133
 10
21.42986799957107
 20
-7.497579847852683
 30
0.0
 40
0.25
  1
BORE .730"
  7
ENGINEER
  0
LINE
  5
12F
  8
DIEM
  6
CONTINUOUS
 62
   133
 10
11.6774362233224
 20
-0.0145617896990031
 30
0.0
 11
11.63577393823675
 21
-0.2610658545771351
 31
0.0
  0
LINE
  5
130
  8
DIEM
  6
CONTINUOUS
 62
   133
 10
11.6774362233224
 20
-0.0145617896990031
 30
0.0
 11
11.44312629593341
 21
-0.1017332180856529
 31
0.0
  0
LINE
  5
131
  8
DIEM
  6
CONTINUOUS
 62
   133
 10
11.6774362233224
 20
-0.0145617896990031
 30
0.0
 11
9.706310784093743
 21
-2.39783163894819
 31
0.0
  0
LINE
  5
132
  8
DIEM
  6
CONTINUOUS
 62
   133
 10
9.706310784093743
 20
-2.39783163894819
 30
0.0
 11
9.956310784093743
 21
-2.39783163894819
 31
0.0
  0
TEXT
  5
133
  8
DIEM
  6
CONTINUOUS
 62
   133
 10
10.01881078409374
 20
-2.52283163894819
 30
0.0
 40
0.25
  1
DOWEL A
  7
ENGINEER
  0
TEXT
  5
134
  8
DIEM
  6
CONTINUOUS
 62
   133
 10
10.01881078409374
 20
-2.89783163894819
 30
0.0
 40
0.25
  1
BORE .730"
  7
ENGINEER
  0
LINE
  5
135
  8
DIEM
  6
CONTINUOUS
 62
   133
 10
17.94163914745801
 20
-7.703807643537538
 30
0.0
 11
18.18388762133223
 21
-7.765578809186327
 31
0.0
  0
LINE
  5
136
  8
DIEM
  6
CONTINUOUS
 62
   133
 10
17.94163914745801
 20
-7.703807643537538
 30
0.0
 11
18.00926797874883
 21
-7.944486560724394
 31
0.0
  0
LINE
  5
137
  8
DIEM
  6
CONTINUOUS
 62
   133
 10
17.94163914745801
 20
-7.703807643537538
 30
0.0
 11
21.61160978166522
 21
-11.28581543765193
 31
0.0
  0
LINE
  5
138
  8
DIEM
  6
CONTINUOUS
 62
   133
 10
21.61160978166522
 20
-11.28581543765193
 30
0.0
 11
21.86160978166522
 21
-11.28581543765193
 31
0.0
  0
LINE
  5
139
  8
DIEM
  6
CONTINUOUS
 62
   133
 10
19.29518284839287
 20
-7.512918439709555
 30
0.0
 11
19.51498796651244
 21
-7.632022218190508
 31
0.0
  0
LINE
  5
13A
  8
DIEM
  6
CONTINUOUS
 62
   133
 10
19.29518284839287
 20
-7.512918439709555
 30
0.0
 11
19.30193850236097
 21
-7.76282714531915
 31
0.0
  0
LINE
  5
13B
  8
DIEM
  6
CONTINUOUS
 62
   133
 10
19.29518284839287
 20
-7.512918439709555
 30
0.0
 11
21.61160978166522
 21
-11.28581543765193
 31
0.0
  0
LINE
  5
13C
  8
DIEM
  6
CONTINUOUS
 62
   133
 10
21.61160978166522
 20
-11.28581543765193
 30
0.0
 11
21.86160978166522
 21
-11.28581543765193
 31
0.0
  0
LINE
  5
13D
  8
DIEM
  6
CONTINUOUS
 62
   133
 10
19.96701421317747
 20
-7.69119940938586
 30
0.0
 11
20.17075791176547
 21
-7.836073510886718
 31
0.0
  0
LINE
  5
13E
  8
DIEM
  6
CONTINUOUS
 62
   133
 10
19.96701421317747
 20
-7.69119940938586
 30
0.0
 11
19.94342140301049
 21
-7.940083678290957
 31
0.0
  0
LINE
  5
13F
  8
DIEM
  6
CONTINUOUS
 62
   133
 10
19.96701421317747
 20
-7.69119940938586
 30
0.0
 11
21.61160978166522
 21
-11.28581543765193
 31
0.0
  0
LINE
  5
140
  8
DIEM
  6
CONTINUOUS
 62
   133
 10
21.61160978166522
 20
-11.28581543765193
 30
0.0
 11
21.86160978166522
 21
-11.28581543765193
 31
0.0
  0
LINE
  5
141
  8
DIEM
  6
CONTINUOUS
 62
   133
 10
16.88927107786469
 20
-8.771933640106376
 30
0.0
 11
17.13912303091301
 21
-8.763331224286288
 31
0.0
  0
LINE
  5
142
  8
DIEM
  6
CONTINUOUS
 62
   133
 10
16.88927107786469
 20
-8.771933640106376
 30
0.0
 11
17.02164695887857
 21
-8.984010574556587
 31
0.0
  0
LINE
  5
143
  8
DIEM
  6
CONTINUOUS
 62
   133
 10
16.88927107786469
 20
-8.771933640106376
 30
0.0
 11
21.61160978166522
 21
-11.28581543765193
 31
0.0
  0
LINE
  5
144
  8
DIEM
  6
CONTINUOUS
 62
   133
 10
21.61160978166522
 20
-11.28581543765193
 30
0.0
 11
21.86160978166522
 21
-11.28581543765193
 31
0.0
  0
TEXT
  5
145
  8
DIEM
  6
CONTINUOUS
 62
   133
 10
21.92410978166522
 20
-11.41081543765193
 30
0.0
 40
0.25
  1
INSERT AS PER NEMA C FACE
  7
ENGINEER
  0
TEXT
  5
146
  8
DIEM
  6
CONTINUOUS
 62
   133
 10
21.92410978166522
 20
-11.78581543765193
 30
0.0
 40
0.25
  1
SPECIFICATIONS x 1/8" DEEP
  7
ENGINEER
  0
POINT
  5
147
  8
DIEM
  6
CONTINUOUS
 62
   133
 10
24.73838355554148
 20
-4.965530259441831
 30
0.0
  0
LINE
  5
148
  8
DIEM
  6
CONTINUOUS
 62
   133
 10
26.18820466511065
 20
-4.965530259441831
 30
0.0
 11
26.06320466197429
 21
-4.749023910306501
 31
0.0
  0
LINE
  5
149
  8
DIEM
  6
CONTINUOUS
 62
   133
 10
26.18820466511065
 20
-4.965530259441831
 30
0.0
 11
26.31320466824701
 21
-4.749023910306501
 31
0.0
  0
LINE
  5
14A
  8
DIEM
  6
CONTINUOUS
 62
   133
 10
26.18820466511065
 20
5.799469740558169
 30
0.0
 11
26.31320466824701
 21
5.582963391422839
 31
0.0
  0
LINE
  5
14B
  8
DIEM
  6
CONTINUOUS
 62
   133
 10
26.18820466511065
 20
5.799469740558169
 30
0.0
 11
26.06320466197429
 21
5.582963391422839
 31
0.0
  0
LINE
  5
14C
  8
DIEM
  6
CONTINUOUS
 62
   133
 10
24.80088355554148
 20
-4.965530259441831
 30
0.0
 11
26.43820466511065
 21
-4.965530259441831
 31
0.0
  0
LINE
  5
14D
  8
DIEM
  6
CONTINUOUS
 62
   133
 10
24.59716462043344
 20
5.799469740558169
 30
0.0
 11
26.43820466511065
 21
5.799469740558169
 31
0.0
  0
TEXT
  5
14E
  8
DIEM
  6
CONTINUOUS
 62
   133
 10
24.79938738225141
 20
0.2913091422801235
 30
0.0
 40
0.25
  1
10.765"
  7
ENGINEER
  0
TEXT
  5
14F
  8
DIEM
  6
CONTINUOUS
 62
   133
 10
26.28333531962821
 20
0.4482197405581691
 30
0.0
 40
0.25
  1
+.002"
  7
ENGINEER
  0
TEXT
  5
150
  8
DIEM
  6
CONTINUOUS
 62
   133
 10
26.28333531962821
 20
0.1343985440020778
 30
0.0
 40
0.25
  1
-.000"
  7
ENGINEER
  0
LINE
  5
151
  8
DIEM
  6
CONTINUOUS
 62
   133
 10
26.18820466511065
 20
-4.965530259441831
 30
0.0
 11
26.18820466511065
 21
0.1031861239157017
 31
0.0
  0
LINE
  5
152
  8
DIEM
  6
CONTINUOUS
 62
   133
 10
26.18820466511065
 20
0.7307533572006379
 30
0.0
 11
26.18820466511065
 21
5.799469740558169
 31
0.0
  0
LINE
  5
153
  8
DIEM
  6
CONTINUOUS
 62
   133
 10
18.10100745154756
 20
-1.476630763858815
 30
0.0
 11
18.34835358325259
 21
-1.440300457906915
 31
0.0
  0
LINE
  5
154
  8
DIEM
  6
CONTINUOUS
 62
   133
 10
18.10100745154756
 20
-1.476630763858815
 30
0.0
 11
18.25614347960184
 21
-1.672673648961905
 31
0.0
  0
LINE
  5
155
  8
DIEM
  6
CONTINUOUS
 62
   133
 10
23.94905228726844
 20
-3.797246227320197
 30
0.0
 11
23.70170615556341
 21
-3.833576533272098
 31
0.0
  0
LINE
  5
156
  8
DIEM
  6
CONTINUOUS
 62
   133
 10
23.94905228726844
 20
-3.797246227320197
 30
0.0
 11
23.79391625921416
 21
-3.601203342217108
 31
0.0
  0
LINE
  5
157
  8
DIEM
  6
CONTINUOUS
 62
   133
 10
17.87353643296824
 20
-2.049866931773834
 30
0.0
 11
18.19321755288468
 21
-1.244257578634275
 31
0.0
  0
LINE
  5
158
  8
DIEM
  6
CONTINUOUS
 62
   133
 10
23.72158126868912
 20
-4.370482395235216
 30
0.0
 11
24.04126238860556
 21
-3.564873042095658
 31
0.0
  0
TEXT
  5
159
  8
DIEM
  6
CONTINUOUS
 62
   133
 10
21.27592012238341
 20
-3.12472040178403
 30
0.0
 40
0.25
  1
6.292"
  7
ENGINEER
  0
LINE
  5
15A
  8
DIEM
  6
CONTINUOUS
 62
   133
 10
18.10100745154756
 20
-1.476630763858815
 30
0.0
 11
21.54312390188946
 21
-2.842528065621477
 31
0.0
  0
LINE
  5
15B
  8
DIEM
  6
CONTINUOUS
 62
   133
 10
22.33301126761338
 20
-3.15597040178403
 30
0.0
 11
23.94905228726844
 21
-3.797246227320197
 31
0.0
  0
LINE
  5
15C
  8
DIEM
  6
CONTINUOUS
 62
   133
 10
20.89283784361548
 20
6.585429834714033
 30
0.0
 11
21.04229624313968
 21
6.78583489156556
 31
0.0
  0
LINE
  5
15D
  8
DIEM
  6
CONTINUOUS
 62
   133
 10
20.89283784361548
 20
6.585429834714033
 30
0.0
 11
21.14112291281094
 21
6.556197585149443
 31
0.0
  0
LINE
  5
15E
  8
DIEM
  6
CONTINUOUS
 62
   133
 10
20.89283784361548
 20
6.585429834714033
 30
0.0
 11
22.97865496002319
 21
7.483081711819516
 31
0.0
  0
LINE
  5
15F
  8
DIEM
  6
CONTINUOUS
 62
   133
 10
22.97865496002319
 20
7.483081711819516
 30
0.0
 11
23.22865496002319
 21
7.483081711819516
 31
0.0
  0
TEXT
  5
160
  8
DIEM
  6
CONTINUOUS
 62
   133
 10
23.29115496002319
 20
7.358081711819516
 30
0.0
 40
0.25
  1
SAME LOWER SPECIFICATIONS
  7
ENGINEER
  0
TEXT
  5
161
  8
DIEM
  6
CONTINUOUS
 62
   133
 10
23.29115496002319
 20
6.983081711819516
 30
0.0
 40
0.25
  1
AS LOWER RECESS 
  7
ENGINEER
  0
TEXT
  5
162
  8
DIEM
  6
CONTINUOUS
 62
    93
 10
14.8075681268678
 20
-14.98794739896683
 30
0.0
 40
0.375
  1
MOTOR SIDE
  7
ENGINEER
  0
POINT
  5
163
  8
DIEM
  6
CONTINUOUS
 62
   133
 10
43.90318825156906
 20
-14.98794739896683
 30
0.0
  0
TEXT
  5
164
  8
DIEM
  6
CONTINUOUS
 62
    93
 10
40.76700177034842
 20
-14.98794739896683
 30
0.0
 40
0.375
  1
TRANSMISSION SIDE
  7
ENGINEER
  0
TEXT
  5
165
  8
DIEM
  6
CONTINUOUS
 62
   133
 10
25.35822863775651
 20
16.12250697229271
 30
0.0
 40
0.375
  1
ELECTRO AUTOMOTIVE
  7
ENGINEER
  0
TEXT
  5
166
  8
DIEM
  6
CONTINUOUS
 62
   133
 10
25.35822863775651
 20
15.56000697229271
 30
0.0
 40
0.375
  1
P.O. BOX 1113 FELTON CA. 95018-1113
  7
ENGINEER
  0
TEXT
  5
167
  8
DIEM
  6
CONTINUOUS
 62
   133
 10
25.35822863775651
 20
14.43500697229271
 30
0.0
 40
0.375
  1
DRAWN BY MICHAEL P. BROWN
  7
ENGINEER
  0
LINE
  5
168
  8
DIEM
  6
CONTINUOUS
 62
   133
 10
24.95998962122361
 20
16.83499323938256
 30
0.0
 11
35.6593431969301
 21
16.83499323938256
 31
0.0
  0
LINE
  5
169
  8
DIEM
  6
CONTINUOUS
 62
   133
 10
35.6593431969301
 20
16.83499323938256
 30
0.0
 11
35.6593431969301
 21
14.13504016015892
 31
0.0
  0
LINE
  5
16A
  8
DIEM
  6
CONTINUOUS
 62
   133
 10
24.95998962122361
 20
14.13504016015892
 30
0.0
 11
24.95998962122361
 21
16.83499323938256
 31
0.0
  0
TEXT
  5
16B
  8
DIEM
  6
CONTINUOUS
 62
   133
 10
25.35822863775651
 20
14.99750697229271
 30
0.0
 40
0.375
  1
PHONE 831-429-1989 FAX 831-429-1907
  7
ENGINEER
  0
LINE
  5
16C
  8
MOTORSIDE
  6
CONTINUOUS
 62
    93
 10
12.39166528913146
 20
10.24773219877004
 30
0.0
 11
13.86294566090955
 21
11.94846569652373
 31
0.0
  0
LINE
  5
16D
  8
MOTORSIDE
  6
CONTINUOUS
 62
    93
 10
13.86294566090955
 20
11.94846569652373
 30
0.0
 11
19.47626469541683
 21
11.94847365266568
 31
0.0
  0
LINE
  5
16E
  8
TRANSIDE
  6
CONTINUOUS
 62
    93
 10
46.75638715724417
 20
11.94846569652372
 30
0.0
 11
41.14306812273689
 21
11.94847365266568
 31
0.0
  0
LINE
  5
16F
  8
TRANSIDE
  6
CONTINUOUS
 62
    93
 10
48.22766752902226
 20
10.24773219877004
 30
0.0
 11
46.75638715724416
 21
11.94846569652372
 31
0.0
  0
LINE
  5
170
  8
DIEM
  6
CONTINUOUS
 62
   133
 10
35.6593431969301
 20
14.13504016015892
 30
0.0
 11
24.95998962122361
 21
14.13504016015892
 31
0.0
  0
TEXT
  5
171
  8
DIEM
  6
CONTINUOUS
 62
   133
 10
25.00065136387031
 20
13.40532554048488
 30
0.0
 40
0.375
  1
TRANSMISSION ADAPTOR FOR TWO
  7
ENGINEER
  0
TEXT
  5
172
  8
DIEM
  6
CONTINUOUS
 62
   133
 10
25.00065136387031
 20
12.84282554048488
 30
0.0
 40
0.375
  1
GREIFFENBERGER AC MOTORS TO A
  7
ENGINEER
  0
TEXT
  5
173
  8
DIEM
  6
CONTINUOUS
 62
   133
 10
25.00065136387031
 20
12.28032554048488
 30
0.0
 40
0.375
  1
PONTIAC FIERO TRANSMISSION.  
  7
ENGINEER
  0
TEXT
  5
174
  8
DIEM
  6
CONTINUOUS
 62
   133
 10
25.00065136387031
 20
11.71782554048488
 30
0.0
 40
0.375
  1
MATERIAL 5/8" ALUMINUM
  7
ENGINEER
  0
TEXT
  5
175
  8
DIEM
  6
CONTINUOUS
 62
   133
 10
25.00065136387031
 20
11.15532554048488
 30
0.0
 40
0.375
  1
NOTE A:   UNLESS NOTED ALL HOLES
  7
ENGINEER
  0
TEXT
  5
176
  8
DIEM
  6
CONTINUOUS
 62
   133
 10
25.00065136387031
 20
10.59282554048488
 30
0.0
 40
0.375
  1
DRILLED 1/2"
  7
ENGINEER
  0
TEXT
  5
177
  8
DIEM
  6
CONTINUOUS
 62
   133
 10
25.00065136387031
 20
10.03032554048488
 30
0.0
 40
0.375
  1
NOTE B:  HEAVY DOTTED LINE SHOWS
  7
ENGINEER
  0
TEXT
  5
178
  8
DIEM
  6
CONTINUOUS
 62
   133
 10
25.00065136387031
 20
9.467825540484881
 30
0.0
 40
0.375
  1
THE UPPER OUTLINE OF THE ORIGINAL
  7
ENGINEER
  0
TEXT
  5
179
  8
DIEM
  6
CONTINUOUS
 62
   133
 10
25.00065136387031
 20
8.905325540484881
 30
0.0
 40
0.375
  1
FIERO TRANSMISSION
  7
ENGINEER
  0
ENDSEC
  0
EOF
