  0
SECTION
  2
HEADER
  9
$ACADVER
  1
AC1006
  0
ENDSEC
  0
SECTION
  2
TABLES
  0
TABLE
  2
LTYPE
 70
    25
  0
LTYPE
  2
CONTINUOUS
 70
    64
  3
Solid line
 72
    64
 73
     0
 40
0.000000
  0
LTYPE
  2
DASHDOT
 70
    64
  3
__ . __ . __ . __ . __ . __ . __ . __ . __ . __
 72
    65
 73
     4
 40
1.000000
 49
0.500000
 49
-0.250000
 49
0.000000
 49
-0.250000
  0
LTYPE
  2
DASHED
 70
    64
  3
__ __ __ __ __ __ __ __ __ __ __ __ __ __ __ __
 72
    65
 73
     2
 40
0.750000
 49
0.500000
 49
-0.250000
  0
LTYPE
  2
DIVIDE
 70
    64
  3
____ . . ____ . . ____ . . ____ . . ____ . . __
 72
    65
 73
     6
 40
1.250000
 49
0.500000
 49
-0.250000
 49
0.000000
 49
-0.250000
 49
0.000000
 49
-0.250000
  0
LTYPE
  2
DOT
 70
    64
  3
. . . . . . . . . . . . . . . . . . . . . . . . 
 72
    65
 73
     2
 40
0.250000
 49
0.000000
 49
-0.250000
  0
ENDTAB
  0
ENDSEC
  0
SECTION
  2
ENTITIES
  0
LINE
  8
CENTERLINE
 62
     7
  6
CONTINUOUS
 10
-6.000000
 20
6.403603
 30
0.000000
 11
-6.000000
 21
-5.682554
 31
0.000000
  0
CIRCLE
  8
DIMENSIONS
 62
     7
  6
CONTINUOUS
 10
-6.000000
 20
0.000000
 30
0.000000
 40
1.023600
  0
LINE
  8
DIMENSIONS
 62
     7
  6
CONTINUOUS
 10
-6.000000
 20
2.047607
 30
0.000000
 11
-6.173867
 21
2.001019
 31
0.000000
  0
LINE
  8
DIMENSIONS
 62
     7
  6
CONTINUOUS
 10
-6.000000
 20
2.047607
 30
0.000000
 11
-6.173867
 21
2.094194
 31
0.000000
  0
LINE
  8
DIMENSIONS
 62
     7
  6
CONTINUOUS
 10
-7.977836
 20
0.529960
 30
0.000000
 11
-7.977836
 21
0.709960
 31
0.000000
  0
LINE
  8
DIMENSIONS
 62
     7
  6
CONTINUOUS
 10
-7.977836
 20
0.529960
 30
0.000000
 11
-7.887836
 21
0.685844
 31
0.000000
  0
LINE
  8
DIMENSIONS
 62
     7
  6
CONTINUOUS
 10
-6.000000
 20
1.148600
 30
0.000000
 11
-6.000000
 21
2.297607
 31
0.000000
  0
LINE
  8
DIMENSIONS
 62
     7
  6
CONTINUOUS
 10
-7.109462
 20
0.297280
 30
0.000000
 11
-8.219317
 21
0.594664
 31
0.000000
  0
TEXT
  8
DIMENSIONS
 62
     7
 10
-7.402794
 20
1.561669
 30
0.000000
 40
0.125000
  1
75¦
  0
ARC
  8
DIMENSIONS
 62
     7
  6
CONTINUOUS
 10
-6.000000
 20
-0.000000
 30
0.000000
 40
2.047607
 50
90.000000
 51
122.934973
  0
ARC
  8
DIMENSIONS
 62
     7
  6
CONTINUOUS
 10
-6.000000
 20
0.000000
 30
0.000000
 40
2.047607
 50
131.632746
 51
165.000000
  0
LINE
  8
DIMENSIONS
 62
     7
  6
CONTINUOUS
 10
-7.305781
 20
-1.556169
 30
0.000000
 11
-7.142646
 21
-1.632241
 31
0.000000
  0
LINE
  8
DIMENSIONS
 62
     7
  6
CONTINUOUS
 10
-7.305781
 20
-1.556169
 30
0.000000
 11
-7.202537
 21
-1.703617
 31
0.000000
  0
LINE
  8
DIMENSIONS
 62
     7
  6
CONTINUOUS
 10
-4.694219
 20
-1.556169
 30
0.000000
 11
-4.797463
 21
-1.703617
 31
0.000000
  0
LINE
  8
DIMENSIONS
 62
     7
  6
CONTINUOUS
 10
-4.694219
 20
-1.556169
 30
0.000000
 11
-4.857354
 21
-1.632241
 31
0.000000
  0
LINE
  8
DIMENSIONS
 62
     7
  6
CONTINUOUS
 10
-6.738306
 20
-0.879879
 30
0.000000
 11
-7.466478
 21
-1.747680
 31
0.000000
  0
LINE
  8
DIMENSIONS
 62
     7
  6
CONTINUOUS
 10
-5.261694
 20
-0.879879
 30
0.000000
 11
-4.533522
 21
-1.747680
 31
0.000000
  0
TEXT
  8
DIMENSIONS
 62
     7
 10
-6.159050
 20
-2.094483
 30
0.000000
 40
0.125000
  1
80¦
  0
ARC
  8
DIMENSIONS
 62
     7
  6
CONTINUOUS
 10
-6.000000
 20
-0.000000
 30
0.000000
 40
2.031435
 50
230.000000
 51
264.624795
  0
ARC
  8
DIMENSIONS
 62
     7
  6
CONTINUOUS
 10
-6.000000
 20
-0.000000
 30
0.000000
 40
2.031435
 50
275.375205
 51
310.000000
  0
LINE
  8
DIMENSIONS
 62
     7
  6
CONTINUOUS
 10
-4.029867
 20
0.527895
 30
0.000000
 11
-4.119867
 21
0.683780
 31
0.000000
  0
LINE
  8
DIMENSIONS
 62
     7
  6
CONTINUOUS
 10
-4.029867
 20
0.527895
 30
0.000000
 11
-4.029867
 21
0.707895
 31
0.000000
  0
LINE
  8
DIMENSIONS
 62
     7
  6
CONTINUOUS
 10
-6.000000
 20
2.039631
 30
0.000000
 11
-5.826133
 21
2.086219
 31
0.000000
  0
LINE
  8
DIMENSIONS
 62
     7
  6
CONTINUOUS
 10
-6.000000
 20
2.039631
 30
0.000000
 11
-5.826133
 21
1.993044
 31
0.000000
  0
LINE
  8
DIMENSIONS
 62
     7
  6
CONTINUOUS
 10
-4.890538
 20
0.297280
 30
0.000000
 11
-3.788386
 21
0.592600
 31
0.000000
  0
LINE
  8
DIMENSIONS
 62
     7
  6
CONTINUOUS
 10
-6.000000
 20
1.148600
 30
0.000000
 11
-6.000000
 21
2.289631
 31
0.000000
  0
TEXT
  8
DIMENSIONS
 62
     7
 10
-4.914641
 20
1.555342
 30
0.000000
 40
0.125000
  1
75¦
  0
ARC
  8
DIMENSIONS
 62
     7
  6
CONTINUOUS
 10
-6.000000
 20
-0.000000
 30
0.000000
 40
2.039631
 50
15.000000
 51
48.351767
  0
ARC
  8
DIMENSIONS
 62
     7
  6
CONTINUOUS
 10
-6.000000
 20
0.000000
 30
0.000000
 40
2.039631
 50
57.083960
 51
90.000000
  0
LINE
  8
DIMENSIONS
 62
     7
  6
CONTINUOUS
 10
-4.697651
 20
-1.552079
 30
0.000000
 11
-4.594408
 21
-1.404631
 31
0.000000
  0
LINE
  8
DIMENSIONS
 62
     7
  6
CONTINUOUS
 10
-4.697651
 20
-1.552079
 30
0.000000
 11
-4.534516
 21
-1.476007
 31
0.000000
  0
LINE
  8
DIMENSIONS
 62
     7
  6
CONTINUOUS
 10
-4.042943
 20
0.524392
 30
0.000000
 11
-3.952943
 21
0.368507
 31
0.000000
  0
LINE
  8
DIMENSIONS
 62
     7
  6
CONTINUOUS
 10
-4.042943
 20
0.524392
 30
0.000000
 11
-4.042943
 21
0.344392
 31
0.000000
  0
LINE
  8
DIMENSIONS
 62
     7
  6
CONTINUOUS
 10
-5.261694
 20
-0.879879
 30
0.000000
 11
-4.536955
 21
-1.743590
 31
0.000000
  0
LINE
  8
DIMENSIONS
 62
     7
  6
CONTINUOUS
 10
-4.890538
 20
0.297280
 30
0.000000
 11
-3.801461
 21
0.589097
 31
0.000000
  0
TEXT
  8
DIMENSIONS
 62
     7
 10
-4.223542
 20
-0.655681
 30
0.000000
 40
0.125000
  1
65¦
  0
ARC
  8
DIMENSIONS
 62
     7
  6
CONTINUOUS
 10
-6.000000
 20
0.000000
 30
0.000000
 40
2.026095
 50
310.000000
 51
340.181477
  0
ARC
  8
DIMENSIONS
 62
     7
  6
CONTINUOUS
 10
-6.000000
 20
0.000000
 30
0.000000
 40
2.026095
 50
345.747415
 51
375.000000
  0
LINE
  8
DIMENSIONS
 62
     7
  6
CONTINUOUS
 10
-7.954456
 20
0.523695
 30
0.000000
 11
-7.954456
 21
0.343695
 31
0.000000
  0
LINE
  8
DIMENSIONS
 62
     7
  6
CONTINUOUS
 10
-7.954456
 20
0.523695
 30
0.000000
 11
-8.044456
 21
0.367810
 31
0.000000
  0
LINE
  8
DIMENSIONS
 62
     7
  6
CONTINUOUS
 10
-7.300618
 20
-1.550016
 30
0.000000
 11
-7.463753
 21
-1.473945
 31
0.000000
  0
LINE
  8
DIMENSIONS
 62
     7
  6
CONTINUOUS
 10
-7.300618
 20
-1.550016
 30
0.000000
 11
-7.403862
 21
-1.402569
 31
0.000000
  0
LINE
  8
DIMENSIONS
 62
     7
  6
CONTINUOUS
 10
-7.109462
 20
0.297280
 30
0.000000
 11
-8.195938
 21
0.588400
 31
0.000000
  0
LINE
  8
DIMENSIONS
 62
     7
  6
CONTINUOUS
 10
-6.738306
 20
-0.879879
 30
0.000000
 11
-7.461315
 21
-1.741527
 31
0.000000
  0
TEXT
  8
DIMENSIONS
 62
     7
 10
-8.090701
 20
-0.671255
 30
0.000000
 40
0.125000
  1
65¦
  0
ARC
  8
DIMENSIONS
 62
     7
  6
CONTINUOUS
 10
-6.000000
 20
-0.000000
 30
0.000000
 40
2.023402
 50
165.000000
 51
194.727460
  0
ARC
  8
DIMENSIONS
 62
     7
  6
CONTINUOUS
 10
-6.000000
 20
-0.000000
 30
0.000000
 40
2.023402
 50
200.315545
 51
230.000000
  0
LINE
  8
DIMENSIONS
 62
     7
  6
CONTINUOUS
 10
-4.071255
 20
-1.299555
 30
0.000000
 11
-3.821255
 21
-1.299555
 31
0.000000
  0
LINE
  8
DIMENSIONS
 62
     7
  6
CONTINUOUS
 10
-5.151112
 20
-0.571966
 30
0.000000
 11
-5.321334
 21
-0.513449
 31
0.000000
  0
LINE
  8
DIMENSIONS
 62
     7
  6
CONTINUOUS
 10
-5.151112
 20
-0.571966
 30
0.000000
 11
-5.269270
 21
-0.436178
 31
0.000000
  0
LINE
  8
DIMENSIONS
 62
     7
  6
CONTINUOUS
 10
-6.848888
 20
0.571966
 30
0.000000
 11
-6.678666
 21
0.513449
 31
0.000000
  0
LINE
  8
DIMENSIONS
 62
     7
  6
CONTINUOUS
 10
-6.848888
 20
0.571966
 30
0.000000
 11
-6.730730
 21
0.436178
 31
0.000000
  0
TEXT
  8
DIMENSIONS
 62
     7
 10
-3.790005
 20
-1.362366
 30
0.000000
 40
0.125000
  1
2.047"DIA
  0
LINE
  8
DIMENSIONS
 62
     7
  6
CONTINUOUS
 10
-6.848888
 20
0.571966
 30
0.000000
 11
-4.071255
 21
-1.299555
 31
0.000000
  0
CIRCLE
  8
DIMENSIONS
 62
     7
  6
CONTINUOUS
 10
-6.000000
 20
0.000000
 30
0.000000
 40
0.703001
  0
LINE
  8
DIMENSIONS
 62
     7
  6
CONTINUOUS
 10
-5.010110
 20
3.125889
 30
0.000000
 11
-4.760110
 21
3.125889
 31
0.000000
  0
LINE
  8
DIMENSIONS
 62
     7
  6
CONTINUOUS
 10
-5.787765
 20
0.670199
 30
0.000000
 11
-5.795841
 21
0.490380
 31
0.000000
  0
LINE
  8
DIMENSIONS
 62
     7
  6
CONTINUOUS
 10
-5.787765
 20
0.670199
 30
0.000000
 11
-5.884669
 21
0.518510
 31
0.000000
  0
LINE
  8
DIMENSIONS
 62
     7
  6
CONTINUOUS
 10
-6.212235
 20
-0.670199
 30
0.000000
 11
-6.204159
 21
-0.490380
 31
0.000000
  0
LINE
  8
DIMENSIONS
 62
     7
  6
CONTINUOUS
 10
-6.212235
 20
-0.670199
 30
0.000000
 11
-6.115331
 21
-0.518510
 31
0.000000
  0
TEXT
  8
DIMENSIONS
 62
     7
 10
-4.728860
 20
3.063303
 30
0.000000
 40
0.125000
  1
1 13/32"
  0
LINE
  8
DIMENSIONS
 62
     7
  6
CONTINUOUS
 10
-6.212235
 20
-0.670199
 30
0.000000
 11
-5.010110
 21
3.125889
 31
0.000000
  0
LINE
  8
DIMENSIONS
 62
     7
  6
CONTINUOUS
 10
-7.556938
 20
-0.505879
 30
0.000000
 11
-7.458903
 21
-0.656839
 31
0.000000
  0
LINE
  8
DIMENSIONS
 62
     7
  6
CONTINUOUS
 10
-7.556938
 20
-0.505879
 30
0.000000
 11
-7.547517
 21
-0.685632
 31
0.000000
  0
LINE
  8
DIMENSIONS
 62
     7
  6
CONTINUOUS
 10
-6.000000
 20
-1.637061
 30
0.000000
 11
-6.173867
 21
-1.683648
 31
0.000000
  0
LINE
  8
DIMENSIONS
 62
     7
  6
CONTINUOUS
 10
-6.000000
 20
-1.637061
 30
0.000000
 11
-6.173867
 21
-1.590473
 31
0.000000
  0
LINE
  8
DIMENSIONS
 62
     7
  6
CONTINUOUS
 10
-6.787473
 20
-0.255865
 30
0.000000
 11
-7.652043
 21
-0.536780
 31
0.000000
  0
LINE
  8
DIMENSIONS
 62
     7
  6
CONTINUOUS
 10
-6.000000
 20
-0.827998
 30
0.000000
 11
-6.000000
 21
-1.737061
 31
0.000000
  0
TEXT
  8
DIMENSIONS
 62
     7
 10
-6.982695
 20
-1.474258
 30
0.000000
 40
0.125000
  1
72¦
  0
ARC
  8
DIMENSIONS
 62
     7
  6
CONTINUOUS
 10
-6.000000
 20
0.000000
 30
0.000000
 40
1.637061
 50
197.999965
 51
246.836512
  0
ARC
  8
DIMENSIONS
 62
     7
  6
CONTINUOUS
 10
-6.000000
 20
0.000000
 30
0.000000
 40
1.637061
 50
246.873663
 51
270.000000
  0
TEXT
  8
DIMENSIONS
 62
     7
 10
-3.460687
 20
1.204094
 30
0.000000
 40
0.125000
  1
HUB DIAMETER
  0
LINE
  8
DIMENSIONS
 62
     7
  6
CONTINUOUS
 10
-3.737590
 20
1.647140
 30
0.000000
 11
-3.487590
 21
1.647140
 31
0.000000
  0
LINE
  8
DIMENSIONS
 62
     7
  6
CONTINUOUS
 10
-4.855009
 20
0.833607
 30
0.000000
 11
-4.968149
 21
0.693609
 31
0.000000
  0
LINE
  8
DIMENSIONS
 62
     7
  6
CONTINUOUS
 10
-4.855009
 20
0.833607
 30
0.000000
 11
-5.022990
 21
0.768936
 31
0.000000
  0
LINE
  8
DIMENSIONS
 62
     7
  6
CONTINUOUS
 10
-7.144991
 20
-0.833607
 30
0.000000
 11
-7.031851
 21
-0.693609
 31
0.000000
  0
LINE
  8
DIMENSIONS
 62
     7
  6
CONTINUOUS
 10
-7.144991
 20
-0.833607
 30
0.000000
 11
-6.977010
 21
-0.768936
 31
0.000000
  0
TEXT
  8
DIMENSIONS
 62
     7
 10
-3.456340
 20
1.584167
 30
0.000000
 40
0.125000
  1
2.8326"
  0
TEXT
  8
DIMENSIONS
 62
     7
 10
-2.668014
 20
1.678390
 30
0.000000
 40
0.125000
  1
+.000"
  0
TEXT
  8
DIMENSIONS
 62
     7
 10
-2.668014
 20
1.489944
 30
0.000000
 40
0.125000
  1
-.001"
  0
LINE
  8
DIMENSIONS
 62
     7
  6
CONTINUOUS
 10
-7.144991
 20
-0.833607
 30
0.000000
 11
-3.737590
 21
1.647140
 31
0.000000
  0
TEXT
  8
DIMENSIONS
 62
     7
 10
-3.764618
 20
-2.169441
 30
0.000000
 40
0.125000
  1
13/16" DEEP
  0
TEXT
  8
DIMENSIONS
 62
     7
 10
-3.768533
 20
-2.399666
 30
0.000000
 40
0.125000
  1
5 TIMES AS SHOWN
  0
TEXT
  8
DIMENSIONS
 62
     7
 10
-3.760725
 20
-1.681584
 30
0.000000
 40
0.125000
  1
BOLT CIRCLE
  0
TEXT
  8
DIMENSIONS
 62
     7
 10
-4.735230
 20
2.825591
 30
0.000000
 40
0.125000
  1
BOLT CIRCLE
  0
TEXT
  8
DIMENSIONS
 62
     7
 10
-3.766587
 20
-1.915747
 30
0.000000
 40
0.125000
  1
D/T M12 X 1.25
  0
TEXT
  8
DIMENSIONS
 62
     7
 10
-4.736789
 20
2.609805
 30
0.000000
 40
0.125000
  1
SEE NOTE "B"
  0
LINE
  8
CENTERLINE
 62
     7
  6
CONTINUOUS
 10
-8.377122
 20
0.000000
 30
0.000000
 11
8.622879
 21
0.000000
 31
0.000000
  0
LINE
  8
LAYOUT_AND_RING_DIM
 62
     7
  6
CONTINUOUS
 10
0.000000
 20
0.000000
 30
0.000000
 11
5.150171
 21
0.000000
 31
0.000000
  0
POINT
  8
HUB_DETAIL
 62
     7
 10
-6.000000
 20
0.000000
 30
0.000000
  0
POINT
  8
HUB_DETAIL
 62
     7
 10
-6.000000
 20
0.000000
 30
0.000000
  0
POINT
  8
HUB_DETAIL
 62
     7
 10
-6.000000
 20
1.417300
 30
0.000000
  0
POINT
  8
HUB_DETAIL
 62
     7
 10
-6.000000
 20
-1.417300
 30
0.000000
  0
CIRCLE
  8
HUB_DETAIL
 62
     7
  6
CONTINUOUS
 10
-6.000000
 20
0.000000
 30
0.000000
 40
1.416300
  0
POINT
  8
HUB_DETAIL
 62
     7
 10
-6.000000
 20
1.023600
 30
0.000000
  0
POINT
  8
HUB_DETAIL
 62
     7
 10
-5.011278
 20
0.264927
 30
0.000000
  0
POINT
  8
HUB_DETAIL
 62
     7
 10
-6.988722
 20
0.264927
 30
0.000000
  0
POINT
  8
HUB_DETAIL
 62
     7
 10
-6.000000
 20
1.023600
 30
0.000000
  0
CIRCLE
  8
HUB_DETAIL
 62
     7
  6
CONTINUOUS
 10
-6.000000
 20
1.023600
 30
0.000000
 40
0.210000
  0
CIRCLE
  8
HUB_DETAIL
 62
     7
  6
CONTINUOUS
 10
-6.000000
 20
1.023600
 30
0.000000
 40
0.235000
  0
POINT
  8
HUB_DETAIL
 62
     7
 10
-6.988722
 20
0.264927
 30
0.000000
  0
CIRCLE
  8
HUB_DETAIL
 62
     7
  6
CONTINUOUS
 10
-6.988722
 20
0.264927
 30
0.000000
 40
0.210000
  0
CIRCLE
  8
HUB_DETAIL
 62
     7
  6
CONTINUOUS
 10
-6.988722
 20
0.264927
 30
0.000000
 40
0.235000
  0
POINT
  8
HUB_DETAIL
 62
     7
 10
-5.011278
 20
0.264927
 30
0.000000
  0
CIRCLE
  8
HUB_DETAIL
 62
     7
  6
CONTINUOUS
 10
-5.011278
 20
0.264927
 30
0.000000
 40
0.210000
  0
CIRCLE
  8
HUB_DETAIL
 62
     7
  6
CONTINUOUS
 10
-5.011278
 20
0.264927
 30
0.000000
 40
0.235000
  0
POINT
  8
HUB_DETAIL
 62
     7
 10
-6.657957
 20
-0.784123
 30
0.000000
  0
POINT
  8
HUB_DETAIL
 62
     7
 10
-5.342043
 20
-0.784123
 30
0.000000
  0
POINT
  8
HUB_DETAIL
 62
     7
 10
-6.657957
 20
-0.784123
 30
0.000000
  0
CIRCLE
  8
HUB_DETAIL
 62
     7
  6
CONTINUOUS
 10
-6.657957
 20
-0.784123
 30
0.000000
 40
0.210000
  0
CIRCLE
  8
HUB_DETAIL
 62
     7
  6
CONTINUOUS
 10
-6.657957
 20
-0.784123
 30
0.000000
 40
0.235000
  0
POINT
  8
HUB_DETAIL
 62
     7
 10
-5.342043
 20
-0.784123
 30
0.000000
  0
CIRCLE
  8
HUB_DETAIL
 62
     7
  6
CONTINUOUS
 10
-5.342043
 20
-0.784123
 30
0.000000
 40
0.210000
  0
CIRCLE
  8
HUB_DETAIL
 62
     7
  6
CONTINUOUS
 10
-5.342043
 20
-0.784123
 30
0.000000
 40
0.235000
  0
POINT
  8
HUB_DETAIL
 62
     7
 10
-6.000000
 20
-0.704000
 30
0.000000
  0
CIRCLE
  8
HUB_DETAIL
 62
     7
  6
CONTINUOUS
 10
-6.000000
 20
0.000000
 30
0.000000
 40
0.375000
  0
CIRCLE
  8
HUB_DETAIL
 62
     7
  6
CONTINUOUS
 10
-6.000000
 20
-0.702998
 30
0.000000
 40
0.101552
  0
CIRCLE
  8
HUB_DETAIL
 62
     7
  6
CONTINUOUS
 10
-6.000000
 20
-0.702998
 30
0.000000
 40
0.164001
  0
CIRCLE
  8
HUB_DETAIL
 62
     7
  6
CONTINUOUS
 10
-5.331409
 20
-0.217239
 30
0.000000
 40
0.101552
  0
CIRCLE
  8
HUB_DETAIL
 62
     7
  6
CONTINUOUS
 10
-5.331409
 20
-0.217239
 30
0.000000
 40
0.164001
  0
CIRCLE
  8
HUB_DETAIL
 62
     7
  6
CONTINUOUS
 10
-5.586788
 20
0.568737
 30
0.000000
 40
0.101552
  0
CIRCLE
  8
HUB_DETAIL
 62
     7
  6
CONTINUOUS
 10
-5.586788
 20
0.568737
 30
0.000000
 40
0.164001
  0
CIRCLE
  8
HUB_DETAIL
 62
     7
  6
CONTINUOUS
 10
-6.413212
 20
0.568738
 30
0.000000
 40
0.101552
  0
CIRCLE
  8
HUB_DETAIL
 62
     7
  6
CONTINUOUS
 10
-6.413212
 20
0.568738
 30
0.000000
 40
0.164001
  0
CIRCLE
  8
HUB_DETAIL
 62
     7
  6
CONTINUOUS
 10
-6.668591
 20
-0.217238
 30
0.000000
 40
0.101552
  0
CIRCLE
  8
HUB_DETAIL
 62
     7
  6
CONTINUOUS
 10
-6.668591
 20
-0.217238
 30
0.000000
 40
0.164001
  0
POINT
  8
HUB_DETAIL
 62
     7
 10
-6.413212
 20
0.568738
 30
0.000000
  0
POINT
  8
HUB_DETAIL
 62
     7
 10
-6.668591
 20
-0.217238
 30
0.000000
  0
POINT
  8
HUB_DETAIL
 62
     7
 10
-5.331409
 20
-0.217239
 30
0.000000
  0
POINT
  8
HUB_DETAIL
 62
     7
 10
-5.586788
 20
0.568737
 30
0.000000
  0
POINT
  8
HUB
 62
     7
 10
-0.796399
 20
0.000000
 30
0.000000
  0
LINE
  8
HUB
 62
     7
  6
CONTINUOUS
 10
-0.796399
 20
1.416300
 30
0.000000
 11
-0.796399
 21
-1.416300
 31
0.000000
  0
POINT
  8
HUB
 62
     7
 10
-0.796399
 20
1.023600
 30
0.000000
  0
LINE
  8
HUB
 62
     7
  6
CONTINUOUS
 10
-0.796399
 20
1.259600
 30
0.000000
 11
0.015601
 21
1.259600
 31
0.000000
  0
LINE
  8
HUB
 62
     7
  6
CONTINUOUS
 10
-0.796399
 20
0.787600
 30
0.000000
 11
0.015601
 21
0.787600
 31
0.000000
  0
POINT
  8
HUB
 62
     7
 10
-0.796399
 20
1.023600
 30
0.000000
  0
LINE
  8
HUB
 62
     7
  6
CONTINUOUS
 10
-0.765399
 20
1.226700
 30
0.000000
 11
-0.765399
 21
0.820500
 31
0.000000
  0
LINE
  8
HUB
 62
     7
  6
CONTINUOUS
 10
-0.733899
 20
1.198046
 30
0.000000
 11
-0.733899
 21
0.849154
 31
0.000000
  0
LINE
  8
HUB
 62
     7
  6
CONTINUOUS
 10
-0.702649
 20
1.226700
 30
0.000000
 11
-0.702649
 21
0.820500
 31
0.000000
  0
LINE
  8
HUB
 62
     7
  6
CONTINUOUS
 10
-0.639899
 20
1.226700
 30
0.000000
 11
-0.639899
 21
0.820500
 31
0.000000
  0
LINE
  8
HUB
 62
     7
  6
CONTINUOUS
 10
-0.577149
 20
1.226700
 30
0.000000
 11
-0.577149
 21
0.820500
 31
0.000000
  0
LINE
  8
HUB
 62
     7
  6
CONTINUOUS
 10
-0.514400
 20
1.226700
 30
0.000000
 11
-0.514400
 21
0.820500
 31
0.000000
  0
LINE
  8
HUB
 62
     7
  6
CONTINUOUS
 10
-0.451650
 20
1.226700
 30
0.000000
 11
-0.451650
 21
0.820500
 31
0.000000
  0
LINE
  8
HUB
 62
     7
  6
CONTINUOUS
 10
-0.388900
 20
1.226700
 30
0.000000
 11
-0.388900
 21
0.820500
 31
0.000000
  0
LINE
  8
HUB
 62
     7
  6
CONTINUOUS
 10
-0.326150
 20
1.226700
 30
0.000000
 11
-0.326150
 21
0.820500
 31
0.000000
  0
LINE
  8
HUB
 62
     7
  6
CONTINUOUS
 10
-0.263400
 20
1.226700
 30
0.000000
 11
-0.263400
 21
0.820500
 31
0.000000
  0
LINE
  8
HUB
 62
     7
  6
CONTINUOUS
 10
-0.200650
 20
1.226700
 30
0.000000
 11
-0.200650
 21
0.820500
 31
0.000000
  0
LINE
  8
HUB
 62
     7
  6
CONTINUOUS
 10
-0.137900
 20
1.226700
 30
0.000000
 11
-0.137900
 21
0.820500
 31
0.000000
  0
LINE
  8
HUB
 62
     7
  6
CONTINUOUS
 10
-0.671399
 20
1.198046
 30
0.000000
 11
-0.671399
 21
0.849154
 31
0.000000
  0
LINE
  8
HUB
 62
     7
  6
CONTINUOUS
 10
-0.608899
 20
1.198046
 30
0.000000
 11
-0.608899
 21
0.849154
 31
0.000000
  0
LINE
  8
HUB
 62
     7
  6
CONTINUOUS
 10
-0.546399
 20
1.198046
 30
0.000000
 11
-0.546399
 21
0.849154
 31
0.000000
  0
LINE
  8
HUB
 62
     7
  6
CONTINUOUS
 10
-0.483899
 20
1.198046
 30
0.000000
 11
-0.483899
 21
0.849154
 31
0.000000
  0
LINE
  8
HUB
 62
     7
  6
CONTINUOUS
 10
-0.421399
 20
1.198046
 30
0.000000
 11
-0.421399
 21
0.849154
 31
0.000000
  0
LINE
  8
HUB
 62
     7
  6
CONTINUOUS
 10
-0.358899
 20
1.198046
 30
0.000000
 11
-0.358899
 21
0.849154
 31
0.000000
  0
LINE
  8
HUB
 62
     7
  6
CONTINUOUS
 10
-0.296399
 20
1.198046
 30
0.000000
 11
-0.296399
 21
0.849154
 31
0.000000
  0
LINE
  8
HUB
 62
     7
  6
CONTINUOUS
 10
-0.233899
 20
1.198046
 30
0.000000
 11
-0.233899
 21
0.849154
 31
0.000000
  0
LINE
  8
HUB
 62
     7
  6
CONTINUOUS
 10
-0.171399
 20
1.198046
 30
0.000000
 11
-0.171399
 21
0.849154
 31
0.000000
  0
LINE
  8
HUB
 62
     7
  6
CONTINUOUS
 10
-0.075650
 20
1.226700
 30
0.000000
 11
-0.075650
 21
0.820500
 31
0.000000
  0
LINE
  8
HUB
 62
     7
  6
CONTINUOUS
 10
-0.012900
 20
1.226700
 30
0.000000
 11
-0.012900
 21
0.820500
 31
0.000000
  0
LINE
  8
HUB
 62
     7
  6
CONTINUOUS
 10
-0.108899
 20
1.198046
 30
0.000000
 11
-0.108899
 21
0.849154
 31
0.000000
  0
LINE
  8
HUB
 62
     7
  6
CONTINUOUS
 10
-0.046399
 20
1.198046
 30
0.000000
 11
-0.046399
 21
0.849154
 31
0.000000
  0
LINE
  8
HUB
 62
     7
  6
CONTINUOUS
 10
-0.796399
 20
1.416300
 30
0.000000
 11
0.203601
 21
1.416300
 31
0.000000
  0
LINE
  8
HUB
 62
     7
  6
CONTINUOUS
 10
-0.796399
 20
-1.416300
 30
0.000000
 11
0.203601
 21
-1.416300
 31
0.000000
  0
POINT
  8
HUB
 62
     7
 10
0.203601
 20
1.023600
 30
0.000000
  0
LINE
  8
HUB
 62
     7
  6
CONTINUOUS
 10
0.015601
 20
1.259600
 30
0.000000
 11
0.078601
 21
1.023600
 31
0.000000
  0
LINE
  8
HUB
 62
     7
  6
CONTINUOUS
 10
0.078601
 20
1.023600
 30
0.000000
 11
0.015601
 21
0.787600
 31
0.000000
  0
LINE
  8
HUB
 62
     7
  6
CONTINUOUS
 10
0.203601
 20
1.125000
 30
0.000000
 11
1.578601
 21
1.125000
 31
0.000000
  0
LINE
  8
HUB
 62
     7
  6
CONTINUOUS
 10
0.203601
 20
-1.125000
 30
0.000000
 11
1.578601
 21
-1.125000
 31
0.000000
  0
LINE
  8
HUB
 62
     7
  6
CONTINUOUS
 10
1.578601
 20
0.937500
 30
0.000000
 11
0.203601
 21
0.800000
 31
0.000000
  0
LINE
  8
HUB
 62
     7
  6
CONTINUOUS
 10
1.578601
 20
-0.937500
 30
0.000000
 11
0.203601
 21
-0.800000
 31
0.000000
  0
LINE
  8
HUB
 62
     7
  6
CONTINUOUS
 10
1.578601
 20
1.125000
 30
0.000000
 11
1.578601
 21
0.937500
 31
0.000000
  0
LINE
  8
HUB
 62
     7
  6
CONTINUOUS
 10
1.578601
 20
-0.937500
 30
0.000000
 11
1.578601
 21
-1.125000
 31
0.000000
  0
LINE
  8
HUB
 62
     7
  6
CONTINUOUS
 10
0.203601
 20
1.416300
 30
0.000000
 11
0.203601
 21
1.125000
 31
0.000000
  0
LINE
  8
HUB
 62
     7
  6
CONTINUOUS
 10
0.203601
 20
0.800000
 30
0.000000
 11
0.203601
 21
-0.800000
 31
0.000000
  0
LINE
  8
HUB
 62
     7
  6
CONTINUOUS
 10
0.203601
 20
-1.125000
 30
0.000000
 11
0.203601
 21
-1.416300
 31
0.000000
  0
POINT
  8
HUB
 62
     7
 10
-0.921399
 20
1.023600
 30
0.000000
  0
POINT
  8
HUB
 62
     7
 10
-0.921399
 20
1.023600
 30
0.000000
  0
LINE
  8
HUB
 62
     7
  6
CONTINUOUS
 10
0.078601
 20
1.023600
 30
0.000000
 11
-0.921399
 21
1.023600
 31
0.000000
  0
LINE
  8
HUB
 62
     7
  6
CONTINUOUS
 10
0.328601
 20
0.812500
 30
0.000000
 11
1.578601
 21
0.937500
 31
0.000000
  0
POINT
  8
HUB
 62
     7
 10
0.391101
 20
0.000000
 30
0.000000
  0
POINT
  8
HUB
 62
     7
 10
0.328601
 20
0.000000
 30
0.000000
  0
POINT
  8
HUB
 62
     7
 10
-0.796399
 20
-0.703972
 30
0.000000
  0
LINE
  8
HUB
 62
     7
  6
CONTINUOUS
 10
-0.608899
 20
-0.538950
 30
0.000000
 11
-0.608899
 21
-0.866950
 31
0.000000
  0
LINE
  8
HUB
 62
     7
  6
CONTINUOUS
 10
-0.796399
 20
-0.539972
 30
0.000000
 11
-0.608899
 21
-0.539972
 31
0.000000
  0
LINE
  8
HUB
 62
     7
  6
CONTINUOUS
 10
-0.608899
 20
-0.601400
 30
0.000000
 11
0.203601
 21
-0.601400
 31
0.000000
  0
POINT
  8
HUB
 62
     7
 10
-0.796399
 20
-0.703972
 30
0.000000
  0
LINE
  8
HUB
 62
     7
  6
CONTINUOUS
 10
-0.796399
 20
-0.867972
 30
0.000000
 11
-0.608899
 21
-0.867972
 31
0.000000
  0
LINE
  8
HUB
 62
     7
  6
CONTINUOUS
 10
-0.608899
 20
-0.804500
 30
0.000000
 11
0.248602
 21
-0.804500
 31
0.000000
  0
LINE
  8
HUB
 62
     7
  6
CONTINUOUS
 10
-0.796399
 20
0.375000
 30
0.000000
 11
0.203601
 21
0.375000
 31
0.000000
  0
LINE
  8
HUB
 62
     7
  6
CONTINUOUS
 10
-0.796399
 20
-0.375000
 30
0.000000
 11
0.203601
 21
-0.375000
 31
0.000000
  0
LINE
  8
HUB
 62
     7
  6
CONTINUOUS
 10
-0.796399
 20
-0.703972
 30
0.000000
 11
0.263748
 21
-0.703972
 31
0.000000
  0
LINE
  8
DIMENSIONS
 62
     7
  6
CONTINUOUS
 10
0.864385
 20
0.854720
 30
0.000000
 11
0.995761
 21
0.731674
 31
0.000000
  0
LINE
  8
DIMENSIONS
 62
     7
  6
CONTINUOUS
 10
0.864385
 20
0.854720
 30
0.000000
 11
0.916637
 21
0.682471
 31
0.000000
  0
LINE
  8
DIMENSIONS
 62
     7
  6
CONTINUOUS
 10
0.864385
 20
0.854720
 30
0.000000
 11
2.348650
 21
-1.532140
 31
0.000000
  0
LINE
  8
DIMENSIONS
 62
     7
  6
CONTINUOUS
 10
2.348650
 20
-1.532140
 30
0.000000
 11
2.598650
 21
-1.532140
 31
0.000000
  0
TEXT
  8
DIMENSIONS
 62
     7
 10
2.661150
 20
-1.594640
 30
0.000000
 40
0.125000
  1
BORE TO SUIT BUSHING
  0
LINE
  8
DIMENSIONS
 62
     7
  6
CONTINUOUS
 10
-1.625898
 20
-0.375000
 30
0.000000
 11
-1.672485
 21
-0.201133
 31
0.000000
  0
LINE
  8
DIMENSIONS
 62
     7
  6
CONTINUOUS
 10
-1.625898
 20
-0.375000
 30
0.000000
 11
-1.579310
 21
-0.201133
 31
0.000000
  0
LINE
  8
DIMENSIONS
 62
     7
  6
CONTINUOUS
 10
-1.625898
 20
0.375000
 30
0.000000
 11
-1.579310
 21
0.201133
 31
0.000000
  0
LINE
  8
DIMENSIONS
 62
     7
  6
CONTINUOUS
 10
-1.625898
 20
0.375000
 30
0.000000
 11
-1.672485
 21
0.201133
 31
0.000000
  0
LINE
  8
DIMENSIONS
 62
     7
  6
CONTINUOUS
 10
-0.921399
 20
-0.375000
 30
0.000000
 11
-1.725898
 21
-0.375000
 31
0.000000
  0
LINE
  8
DIMENSIONS
 62
     7
  6
CONTINUOUS
 10
-0.921399
 20
0.375000
 30
0.000000
 11
-1.725898
 21
0.375000
 31
0.000000
  0
TEXT
  8
DIMENSIONS
 62
     7
 10
-1.851376
 20
0.018674
 30
0.000000
 40
0.125000
  1
3/4"
  0
LINE
  8
DIMENSIONS
 62
     7
  6
CONTINUOUS
 10
-1.625898
 20
-0.375000
 30
0.000000
 11
-1.625898
 21
-0.012576
 31
0.000000
  0
LINE
  8
DIMENSIONS
 62
     7
  6
CONTINUOUS
 10
-1.625898
 20
0.175069
 30
0.000000
 11
-1.625898
 21
0.375000
 31
0.000000
  0
LINE
  8
DIMENSIONS
 62
     7
  6
CONTINUOUS
 10
-0.796399
 20
2.253114
 30
0.000000
 11
-0.622532
 21
2.299701
 31
0.000000
  0
LINE
  8
DIMENSIONS
 62
     7
  6
CONTINUOUS
 10
-0.796399
 20
2.253114
 30
0.000000
 11
-0.622532
 21
2.206526
 31
0.000000
  0
LINE
  8
DIMENSIONS
 62
     7
  6
CONTINUOUS
 10
1.578601
 20
2.253114
 30
0.000000
 11
1.404734
 21
2.206526
 31
0.000000
  0
LINE
  8
DIMENSIONS
 62
     7
  6
CONTINUOUS
 10
1.578601
 20
2.253114
 30
0.000000
 11
1.404734
 21
2.299701
 31
0.000000
  0
LINE
  8
DIMENSIONS
 62
     7
  6
CONTINUOUS
 10
-0.796399
 20
1.541300
 30
0.000000
 11
-0.796399
 21
2.353114
 31
0.000000
  0
LINE
  8
DIMENSIONS
 62
     7
  6
CONTINUOUS
 10
1.578601
 20
1.250000
 30
0.000000
 11
1.578601
 21
2.353114
 31
0.000000
  0
TEXT
  8
DIMENSIONS
 62
     7
 10
0.080587
 20
2.190527
 30
0.000000
 40
0.125000
  1
2 1/2"
  0
LINE
  8
DIMENSIONS
 62
     7
  6
CONTINUOUS
 10
-0.796399
 20
2.253114
 30
0.000000
 11
0.049337
 21
2.253114
 31
0.000000
  0
LINE
  8
DIMENSIONS
 62
     7
  6
CONTINUOUS
 10
0.732865
 20
2.253114
 30
0.000000
 11
1.578601
 21
2.253114
 31
0.000000
  0
LINE
  8
DIMENSIONS
 62
     7
  6
CONTINUOUS
 10
-0.796399
 20
-2.231650
 30
0.000000
 11
-0.622532
 21
-2.185063
 31
0.000000
  0
LINE
  8
DIMENSIONS
 62
     7
  6
CONTINUOUS
 10
-0.796399
 20
-2.231650
 30
0.000000
 11
-0.622532
 21
-2.278238
 31
0.000000
  0
LINE
  8
DIMENSIONS
 62
     7
  6
CONTINUOUS
 10
0.203601
 20
-2.231650
 30
0.000000
 11
0.029734
 21
-2.278238
 31
0.000000
  0
LINE
  8
DIMENSIONS
 62
     7
  6
CONTINUOUS
 10
0.203601
 20
-2.231650
 30
0.000000
 11
0.029734
 21
-2.185063
 31
0.000000
  0
LINE
  8
DIMENSIONS
 62
     7
  6
CONTINUOUS
 10
-0.796399
 20
-1.541300
 30
0.000000
 11
-0.796399
 21
-2.331650
 31
0.000000
  0
LINE
  8
DIMENSIONS
 62
     7
  6
CONTINUOUS
 10
0.203601
 20
-1.541300
 30
0.000000
 11
0.203601
 21
-2.331650
 31
0.000000
  0
TEXT
  8
DIMENSIONS
 62
     7
 10
-0.346693
 20
-2.294223
 30
0.000000
 40
0.125000
  1
1"
  0
LINE
  8
DIMENSIONS
 62
     7
  6
CONTINUOUS
 10
-0.796399
 20
-2.231650
 30
0.000000
 11
-0.377943
 21
-2.231650
 31
0.000000
  0
LINE
  8
DIMENSIONS
 62
     7
  6
CONTINUOUS
 10
-0.214855
 20
-2.231650
 30
0.000000
 11
0.203601
 21
-2.231650
 31
0.000000
  0
LINE
  8
DIMENSIONS
 62
     7
  6
CONTINUOUS
 10
2.435776
 20
-1.125000
 30
0.000000
 11
2.389188
 21
-0.951133
 31
0.000000
  0
LINE
  8
DIMENSIONS
 62
     7
  6
CONTINUOUS
 10
2.435776
 20
-1.125000
 30
0.000000
 11
2.482363
 21
-0.951133
 31
0.000000
  0
LINE
  8
DIMENSIONS
 62
     7
  6
CONTINUOUS
 10
2.435776
 20
1.125000
 30
0.000000
 11
2.482363
 21
0.951133
 31
0.000000
  0
LINE
  8
DIMENSIONS
 62
     7
  6
CONTINUOUS
 10
2.435776
 20
1.125000
 30
0.000000
 11
2.389188
 21
0.951133
 31
0.000000
  0
LINE
  8
DIMENSIONS
 62
     7
  6
CONTINUOUS
 10
1.703601
 20
-1.125000
 30
0.000000
 11
2.535776
 21
-1.125000
 31
0.000000
  0
LINE
  8
DIMENSIONS
 62
     7
  6
CONTINUOUS
 10
1.703601
 20
1.125000
 30
0.000000
 11
2.535776
 21
1.125000
 31
0.000000
  0
TEXT
  8
DIMENSIONS
 62
     7
 10
2.116837
 20
0.075072
 30
0.000000
 40
0.125000
  1
2 1/4"
  0
LINE
  8
DIMENSIONS
 62
     7
  6
CONTINUOUS
 10
2.435776
 20
-1.125000
 30
0.000000
 11
2.435776
 21
0.043822
 31
0.000000
  0
LINE
  8
DIMENSIONS
 62
     7
  6
CONTINUOUS
 10
2.435776
 20
0.231496
 30
0.000000
 11
2.435776
 21
1.125000
 31
0.000000
  0
TEXT
  8
LAYOUT_AND_RING_DIM
 62
     7
 10
1.823840
 20
6.002437
 30
0.000000
 40
0.125000
  1
ELECTRO AUTOMOTIVE
  0
TEXT
  8
LAYOUT_AND_RING_DIM
 62
     7
 10
1.823840
 20
5.814937
 30
0.000000
 40
0.125000
  1
P.O. BOX 1113 FELTON CA. 95018-1113
  0
LINE
  8
LAYOUT_AND_RING_DIM
 62
     7
  6
CONTINUOUS
 10
1.691094
 20
6.239932
 30
0.000000
 11
5.257545
 21
6.239932
 31
0.000000
  0
LINE
  8
LAYOUT_AND_RING_DIM
 62
     7
  6
CONTINUOUS
 10
5.257545
 20
6.239932
 30
0.000000
 11
5.257545
 21
5.339948
 31
0.000000
  0
LINE
  8
LAYOUT_AND_RING_DIM
 62
     7
  6
CONTINUOUS
 10
1.691094
 20
5.339948
 30
0.000000
 11
1.691094
 21
6.239932
 31
0.000000
  0
TEXT
  8
LAYOUT_AND_RING_DIM
 62
     7
 10
1.823840
 20
5.627437
 30
0.000000
 40
0.125000
  1
PHONE 831-429-1989 FAX 831-429-1907
  0
TEXT
  8
LAYOUT_AND_RING_DIM
 62
     7
 10
1.823840
 20
5.439937
 30
0.000000
 40
0.125000
  1
DRAWN BY MARTIN RATTAY
  0
LINE
  8
LAYOUT_AND_RING_DIM
 62
     7
  6
CONTINUOUS
 10
1.691094
 20
5.339948
 30
0.000000
 11
5.257545
 21
5.339948
 31
0.000000
  0
TEXT
  8
LAYOUT_AND_RING_DIM
 62
     7
 10
1.767652
 20
4.979316
 30
0.000000
 40
0.125000
  1
1993 MITSUBISHI ECLIPSE 5SPD
  0
TEXT
  8
LAYOUT_AND_RING_DIM
 62
     7
 10
1.767652
 20
4.791816
 30
0.000000
 40
0.125000
  1
TO A WARP 9 MOTOR.
  0
TEXT
  8
LAYOUT_AND_RING_DIM
 62
     7
 10
1.767652
 20
4.416816
 30
0.000000
 40
0.125000
  1
SCALE: 1:1  PRINTED TO SCALE.
  0
TEXT
  8
NOTES
 62
     7
 10
1.787712
 20
3.861355
 30
0.000000
 40
0.125000
  1
10-24 x 1" DEEP
  0
TEXT
  8
NOTES
 62
     7
 10
1.787712
 20
4.048855
 30
0.000000
 40
0.125000
  1
NOTE  A :  DRILL THROUGH TAP
  0
TEXT
  8
NOTES
 62
     7
 10
1.784569
 20
3.552860
 30
0.000000
 40
0.125000
  1
NOTE B : DRILL 13/64" COUNTER-
  0
TEXT
  8
NOTES
 62
     7
 10
1.784569
 20
3.365360
 30
0.000000
 40
0.125000
  1
BORE 23/64" x 13/64" DEEP
  0
LINE
  8
BUSHING_DETAIL
 62
     7
  6
CONTINUOUS
 10
4.071727
 20
1.344775
 30
0.000000
 11
4.179981
 21
1.407275
 31
0.000000
  0
LINE
  8
BUSHING_DETAIL
 62
     7
  6
CONTINUOUS
 10
4.071727
 20
1.344775
 30
0.000000
 11
4.179981
 21
1.282275
 31
0.000000
  0
LINE
  8
BUSHING_DETAIL
 62
     7
  6
CONTINUOUS
 10
5.321727
 20
1.344775
 30
0.000000
 11
5.213474
 21
1.282275
 31
0.000000
  0
LINE
  8
BUSHING_DETAIL
 62
     7
  6
CONTINUOUS
 10
5.321727
 20
1.344775
 30
0.000000
 11
5.213474
 21
1.407275
 31
0.000000
  0
LINE
  8
BUSHING_DETAIL
 62
     7
  6
CONTINUOUS
 10
4.071727
 20
0.875000
 30
0.000000
 11
4.071727
 21
1.594775
 31
0.000000
  0
LINE
  8
BUSHING_DETAIL
 62
     7
  6
CONTINUOUS
 10
5.321727
 20
1.000000
 30
0.000000
 11
5.321727
 21
1.594775
 31
0.000000
  0
TEXT
  8
BUSHING_DETAIL
 62
     7
 10
4.321291
 20
1.282202
 30
0.000000
 40
0.125000
  1
1 1/4"
  0
LINE
  8
BUSHING_DETAIL
 62
     7
  6
CONTINUOUS
 10
4.071727
 20
1.344775
 30
0.000000
 11
4.290041
 21
1.344775
 31
0.000000
  0
LINE
  8
BUSHING_DETAIL
 62
     7
  6
CONTINUOUS
 10
5.103413
 20
1.344775
 30
0.000000
 11
5.321727
 21
1.344775
 31
0.000000
  0
LINE
  8
BUSHING_DETAIL
 62
     7
  6
CONTINUOUS
 10
3.600629
 20
-0.812500
 30
0.000000
 11
3.538129
 21
-0.704247
 31
0.000000
  0
LINE
  8
BUSHING_DETAIL
 62
     7
  6
CONTINUOUS
 10
3.600629
 20
-0.812500
 30
0.000000
 11
3.663129
 21
-0.704247
 31
0.000000
  0
LINE
  8
BUSHING_DETAIL
 62
     7
  6
CONTINUOUS
 10
3.600629
 20
0.812500
 30
0.000000
 11
3.663129
 21
0.704247
 31
0.000000
  0
LINE
  8
BUSHING_DETAIL
 62
     7
  6
CONTINUOUS
 10
3.600629
 20
0.812500
 30
0.000000
 11
3.538129
 21
0.704247
 31
0.000000
  0
LINE
  8
BUSHING_DETAIL
 62
     7
  6
CONTINUOUS
 10
4.009227
 20
-0.812500
 30
0.000000
 11
3.350629
 21
-0.812500
 31
0.000000
  0
LINE
  8
BUSHING_DETAIL
 62
     7
  6
CONTINUOUS
 10
4.009227
 20
0.812500
 30
0.000000
 11
3.350629
 21
0.812500
 31
0.000000
  0
TEXT
  8
BUSHING_DETAIL
 62
     7
 10
3.222481
 20
0.161103
 30
0.000000
 40
0.125000
  1
1 5/8"
  0
LINE
  8
BUSHING_DETAIL
 62
     7
  6
CONTINUOUS
 10
3.600629
 20
-0.812500
 30
0.000000
 11
3.600629
 21
0.129853
 31
0.000000
  0
LINE
  8
BUSHING_DETAIL
 62
     7
  6
CONTINUOUS
 10
3.600629
 20
0.318402
 30
0.000000
 11
3.600629
 21
0.812500
 31
0.000000
  0
LINE
  8
BUSHING_DETAIL
 62
     7
  6
CONTINUOUS
 10
5.769283
 20
-0.562491
 30
0.000000
 11
5.706783
 21
-0.454238
 31
0.000000
  0
LINE
  8
BUSHING_DETAIL
 62
     7
  6
CONTINUOUS
 10
5.769283
 20
-0.562491
 30
0.000000
 11
5.831783
 21
-0.454238
 31
0.000000
  0
LINE
  8
BUSHING_DETAIL
 62
     7
  6
CONTINUOUS
 10
5.769283
 20
0.562491
 30
0.000000
 11
5.831783
 21
0.454238
 31
0.000000
  0
LINE
  8
BUSHING_DETAIL
 62
     7
  6
CONTINUOUS
 10
5.769283
 20
0.562491
 30
0.000000
 11
5.706783
 21
0.454238
 31
0.000000
  0
LINE
  8
BUSHING_DETAIL
 62
     7
  6
CONTINUOUS
 10
5.384227
 20
-0.562491
 30
0.000000
 11
6.019283
 21
-0.562491
 31
0.000000
  0
LINE
  8
BUSHING_DETAIL
 62
     7
  6
CONTINUOUS
 10
5.384227
 20
0.562491
 30
0.000000
 11
6.019283
 21
0.562491
 31
0.000000
  0
TEXT
  8
BUSHING_DETAIL
 62
     7
 10
5.391834
 20
-0.212329
 30
0.000000
 40
0.125000
  1
1 1/8"
  0
LINE
  8
BUSHING_DETAIL
 62
     7
  6
CONTINUOUS
 10
5.769283
 20
-0.562491
 30
0.000000
 11
5.769283
 21
-0.243579
 31
0.000000
  0
LINE
  8
BUSHING_DETAIL
 62
     7
  6
CONTINUOUS
 10
5.769283
 20
-0.055263
 30
0.000000
 11
5.769283
 21
0.562491
 31
0.000000
  0
LINE
  8
BUSHING_DETAIL
 62
     7
  6
CONTINUOUS
 10
6.364341
 20
-0.937500
 30
0.000000
 11
6.301841
 21
-0.829247
 31
0.000000
  0
LINE
  8
BUSHING_DETAIL
 62
     7
  6
CONTINUOUS
 10
6.364341
 20
-0.937500
 30
0.000000
 11
6.426841
 21
-0.829247
 31
0.000000
  0
LINE
  8
BUSHING_DETAIL
 62
     7
  6
CONTINUOUS
 10
6.364341
 20
0.937500
 30
0.000000
 11
6.426841
 21
0.829247
 31
0.000000
  0
LINE
  8
BUSHING_DETAIL
 62
     7
  6
CONTINUOUS
 10
6.364341
 20
0.937500
 30
0.000000
 11
6.301841
 21
0.829247
 31
0.000000
  0
LINE
  8
BUSHING_DETAIL
 62
     7
  6
CONTINUOUS
 10
5.384227
 20
-0.937500
 30
0.000000
 11
6.614341
 21
-0.937500
 31
0.000000
  0
LINE
  8
BUSHING_DETAIL
 62
     7
  6
CONTINUOUS
 10
5.384227
 20
0.937500
 30
0.000000
 11
6.614341
 21
0.937500
 31
0.000000
  0
TEXT
  8
BUSHING_DETAIL
 62
     7
 10
5.986893
 20
0.123865
 30
0.000000
 40
0.125000
  1
1 7/8"
  0
LINE
  8
BUSHING_DETAIL
 62
     7
  6
CONTINUOUS
 10
6.364341
 20
-0.937500
 30
0.000000
 11
6.364341
 21
0.092615
 31
0.000000
  0
LINE
  8
BUSHING_DETAIL
 62
     7
  6
CONTINUOUS
 10
6.364341
 20
0.280931
 30
0.000000
 11
6.364341
 21
0.937500
 31
0.000000
  0
POINT
  8
BUSHING_DETAIL
 62
     7
 10
4.071727
 20
0.000000
 30
0.000000
  0
LINE
  8
BUSHING_DETAIL
 62
     7
  6
CONTINUOUS
 10
4.071727
 20
0.562491
 30
0.000000
 11
5.321727
 21
0.562491
 31
0.000000
  0
LINE
  8
BUSHING_DETAIL
 62
     7
  6
CONTINUOUS
 10
4.071727
 20
-0.812500
 30
0.000000
 11
5.321727
 21
-0.937500
 31
0.000000
  0
LINE
  8
BUSHING_DETAIL
 62
     7
  6
CONTINUOUS
 10
5.321727
 20
0.937500
 30
0.000000
 11
4.071727
 21
0.812500
 31
0.000000
  0
LINE
  8
BUSHING_DETAIL
 62
     7
  6
CONTINUOUS
 10
4.071727
 20
-0.812500
 30
0.000000
 11
4.071727
 21
0.812500
 31
0.000000
  0
POINT
  8
BUSHING_DETAIL
 62
     7
 10
4.071727
 20
0.000000
 30
0.000000
  0
POINT
  8
BUSHING_DETAIL
 62
     7
 10
4.195587
 20
-0.703972
 30
0.000000
  0
POINT
  8
BUSHING_DETAIL
 62
     7
 10
4.320587
 20
-0.703972
 30
0.000000
  0
POINT
  8
BUSHING_DETAIL
 62
     7
 10
4.320587
 20
-0.703972
 30
0.000000
  0
LINE
  8
BUSHING_DETAIL
 62
     7
  6
CONTINUOUS
 10
4.195587
 20
-0.703972
 30
0.000000
 11
4.195587
 21
-0.649272
 31
0.000000
  0
LINE
  8
BUSHING_DETAIL
 62
     7
  6
CONTINUOUS
 10
4.195587
 20
-0.703972
 30
0.000000
 11
4.195587
 21
-0.758672
 31
0.000000
  0
LINE
  8
BUSHING_DETAIL
 62
     7
  6
CONTINUOUS
 10
4.320587
 20
-0.703972
 30
0.000000
 11
4.320587
 21
-0.617586
 31
0.000000
  0
LINE
  8
BUSHING_DETAIL
 62
     7
  6
CONTINUOUS
 10
4.320587
 20
-0.703972
 30
0.000000
 11
4.320587
 21
-0.790359
 31
0.000000
  0
POINT
  8
BUSHING_DETAIL
 62
     7
 10
4.570587
 20
-0.703972
 30
0.000000
  0
POINT
  8
BUSHING_DETAIL
 62
     7
 10
4.445587
 20
-0.703972
 30
0.000000
  0
POINT
  8
BUSHING_DETAIL
 62
     7
 10
4.445587
 20
-0.703972
 30
0.000000
  0
LINE
  8
BUSHING_DETAIL
 62
     7
  6
CONTINUOUS
 10
4.445587
 20
-0.703972
 30
0.000000
 11
4.445587
 21
-0.649272
 31
0.000000
  0
LINE
  8
BUSHING_DETAIL
 62
     7
  6
CONTINUOUS
 10
4.445587
 20
-0.703972
 30
0.000000
 11
4.445587
 21
-0.758672
 31
0.000000
  0
POINT
  8
BUSHING_DETAIL
 62
     7
 10
4.695587
 20
-0.703972
 30
0.000000
  0
LINE
  8
BUSHING_DETAIL
 62
     7
  6
CONTINUOUS
 10
4.695587
 20
-0.703972
 30
0.000000
 11
4.695587
 21
-0.649272
 31
0.000000
  0
LINE
  8
BUSHING_DETAIL
 62
     7
  6
CONTINUOUS
 10
4.695587
 20
-0.703972
 30
0.000000
 11
4.695587
 21
-0.758672
 31
0.000000
  0
POINT
  8
BUSHING_DETAIL
 62
     7
 10
4.945587
 20
-0.703972
 30
0.000000
  0
LINE
  8
BUSHING_DETAIL
 62
     7
  6
CONTINUOUS
 10
4.945587
 20
-0.703972
 30
0.000000
 11
4.945587
 21
-0.649272
 31
0.000000
  0
LINE
  8
BUSHING_DETAIL
 62
     7
  6
CONTINUOUS
 10
4.945587
 20
-0.703972
 30
0.000000
 11
4.945587
 21
-0.758672
 31
0.000000
  0
LINE
  8
BUSHING_DETAIL
 62
     7
  6
CONTINUOUS
 10
5.195587
 20
-0.703972
 30
0.000000
 11
5.195587
 21
-0.649272
 31
0.000000
  0
LINE
  8
BUSHING_DETAIL
 62
     7
  6
CONTINUOUS
 10
5.195587
 20
-0.703972
 30
0.000000
 11
5.195587
 21
-0.758672
 31
0.000000
  0
POINT
  8
BUSHING_DETAIL
 62
     7
 10
4.570587
 20
-0.703972
 30
0.000000
  0
POINT
  8
BUSHING_DETAIL
 62
     7
 10
4.570587
 20
-0.703972
 30
0.000000
  0
LINE
  8
BUSHING_DETAIL
 62
     7
  6
CONTINUOUS
 10
4.570587
 20
-0.703972
 30
0.000000
 11
4.570587
 21
-0.617586
 31
0.000000
  0
LINE
  8
BUSHING_DETAIL
 62
     7
  6
CONTINUOUS
 10
4.570587
 20
-0.703972
 30
0.000000
 11
4.570587
 21
-0.790359
 31
0.000000
  0
POINT
  8
BUSHING_DETAIL
 62
     7
 10
4.820587
 20
-0.703972
 30
0.000000
  0
POINT
  8
BUSHING_DETAIL
 62
     7
 10
4.820587
 20
-0.703972
 30
0.000000
  0
LINE
  8
BUSHING_DETAIL
 62
     7
  6
CONTINUOUS
 10
4.820587
 20
-0.703972
 30
0.000000
 11
4.820587
 21
-0.617586
 31
0.000000
  0
LINE
  8
BUSHING_DETAIL
 62
     7
  6
CONTINUOUS
 10
4.820587
 20
-0.703972
 30
0.000000
 11
4.820587
 21
-0.790359
 31
0.000000
  0
POINT
  8
BUSHING_DETAIL
 62
     7
 10
5.070587
 20
-0.703972
 30
0.000000
  0
POINT
  8
BUSHING_DETAIL
 62
     7
 10
5.070587
 20
-0.703972
 30
0.000000
  0
LINE
  8
BUSHING_DETAIL
 62
     7
  6
CONTINUOUS
 10
5.070587
 20
-0.703972
 30
0.000000
 11
5.070587
 21
-0.617586
 31
0.000000
  0
LINE
  8
BUSHING_DETAIL
 62
     7
  6
CONTINUOUS
 10
5.070587
 20
-0.703972
 30
0.000000
 11
5.070587
 21
-0.790359
 31
0.000000
  0
LINE
  8
BUSHING_DETAIL
 62
     7
  6
CONTINUOUS
 10
4.071727
 20
-0.790842
 30
0.000000
 11
5.321727
 21
-0.790842
 31
0.000000
  0
LINE
  8
BUSHING_DETAIL
 62
     7
  6
CONTINUOUS
 10
4.071727
 20
-0.618942
 30
0.000000
 11
5.321727
 21
-0.618942
 31
0.000000
  0
LINE
  8
BUSHING_DETAIL
 62
     7
  6
CONTINUOUS
 10
4.070587
 20
-0.703972
 30
0.000000
 11
5.321727
 21
-0.703972
 31
0.000000
  0
POINT
  8
BUSHING_DETAIL
 62
     7
 10
4.071727
 20
-0.703972
 30
0.000000
  0
LINE
  8
BUSHING_DETAIL
 62
     7
  6
CONTINUOUS
 10
4.071727
 20
-0.562491
 30
0.000000
 11
5.321727
 21
-0.562491
 31
0.000000
  0
LINE
  8
BUSHING_DETAIL
 62
     7
  6
CONTINUOUS
 10
5.321727
 20
0.937500
 30
0.000000
 11
5.321727
 21
-0.937500
 31
0.000000
  0
ENDSEC
  0
EOF
