  0
SECTION
  2
HEADER
  9
$ACADVER
  1
AC1009
  9
$DWGCODEPAGE
  3
ansi_1252
  9
$INSBASE
 10
0.0
 20
0.0
 30
0.0
  9
$EXTMIN
 10
1.000000000000000E+20
 20
1.000000000000000E+20
 30
1.000000000000000E+20
  9
$EXTMAX
 10
-1.000000000000000E+20
 20
-1.000000000000000E+20
 30
-1.000000000000000E+20
  9
$LIMMIN
 10
0.0
 20
0.0
  9
$LIMMAX
 10
12.0
 20
9.0
  9
$ORTHOMODE
 70
     0
  9
$REGENMODE
 70
     1
  9
$FILLMODE
 70
     1
  9
$QTEXTMODE
 70
     0
  9
$MIRRTEXT
 70
     1
  9
$DRAGMODE
 70
     2
  9
$LTSCALE
 40
1.0
  9
$OSMODE
 70
    37
  9
$ATTMODE
 70
     1
  9
$TEXTSIZE
 40
0.2
  9
$TRACEWID
 40
0.05
  9
$TEXTSTYLE
  7
STANDARD
  9
$CLAYER
  8
0
  9
$CELTYPE
  6
BYLAYER
  9
$CECOLOR
 62
   256
  9
$DIMSCALE
 40
1.0
  9
$DIMASZ
 40
0.18
  9
$DIMEXO
 40
0.0625
  9
$DIMDLI
 40
0.38
  9
$DIMRND
 40
0.0
  9
$DIMDLE
 40
0.0
  9
$DIMEXE
 40
0.18
  9
$DIMTP
 40
0.0
  9
$DIMTM
 40
0.0
  9
$DIMTXT
 40
0.18
  9
$DIMCEN
 40
0.09
  9
$DIMTSZ
 40
0.0
  9
$DIMTOL
 70
     0
  9
$DIMLIM
 70
     0
  9
$DIMTIH
 70
     1
  9
$DIMTOH
 70
     1
  9
$DIMSE1
 70
     0
  9
$DIMSE2
 70
     0
  9
$DIMTAD
 70
     0
  9
$DIMZIN
 70
     0
  9
$DIMBLK
  1

  9
$DIMASO
 70
     1
  9
$DIMSHO
 70
     1
  9
$DIMPOST
  1

  9
$DIMAPOST
  1

  9
$DIMALT
 70
     0
  9
$DIMALTD
 70
     2
  9
$DIMALTF
 40
25.4
  9
$DIMLFAC
 40
1.0
  9
$DIMTOFL
 70
     0
  9
$DIMTVP
 40
0.0
  9
$DIMTIX
 70
     0
  9
$DIMSOXD
 70
     0
  9
$DIMSAH
 70
     0
  9
$DIMBLK1
  1

  9
$DIMBLK2
  1

  9
$DIMSTYLE
  2
STANDARD
  9
$DIMCLRD
 70
     0
  9
$DIMCLRE
 70
     0
  9
$DIMCLRT
 70
     0
  9
$DIMTFAC
 40
1.0
  9
$DIMGAP
 40
0.09
  9
$LUNITS
 70
     2
  9
$LUPREC
 70
     3
  9
$SKETCHINC
 40
0.1
  9
$FILLETRAD
 40
0.5
  9
$AUNITS
 70
     0
  9
$AUPREC
 70
     0
  9
$MENU
  1
.
  9
$ELEVATION
 40
0.0
  9
$PELEVATION
 40
0.0
  9
$THICKNESS
 40
0.0
  9
$LIMCHECK
 70
     0
  9
$CHAMFERA
 40
0.5
  9
$CHAMFERB
 40
0.5
  9
$SKPOLY
 70
     0
  9
$TDCREATE
 40
2454477.75136522
  9
$TDUPDATE
 40
2454477.751365231
  9
$TDINDWG
 40
0.0000000116
  9
$TDUSRTIMER
 40
0.0000000116
  9
$USRTIMER
 70
     1
  9
$ANGBASE
 50
0.0
  9
$ANGDIR
 70
     0
  9
$PDMODE
 70
     2
  9
$PDSIZE
 40
-2.0
  9
$PLINEWID
 40
0.0
  9
$COORDS
 70
     1
  9
$SPLFRAME
 70
     0
  9
$SPLINETYPE
 70
     6
  9
$SPLINESEGS
 70
     8
  9
$ATTDIA
 70
     0
  9
$ATTREQ
 70
     1
  9
$HANDLING
 70
     1
  9
$HANDSEED
  5
FB
  9
$SURFTAB1
 70
     6
  9
$SURFTAB2
 70
     6
  9
$SURFTYPE
 70
     6
  9
$SURFU
 70
     6
  9
$SURFV
 70
     6
  9
$UCSNAME
  2

  9
$UCSORG
 10
0.0
 20
0.0
 30
0.0
  9
$UCSXDIR
 10
1.0
 20
0.0
 30
0.0
  9
$UCSYDIR
 10
0.0
 20
1.0
 30
0.0
  9
$PUCSNAME
  2

  9
$PUCSORG
 10
0.0
 20
0.0
 30
0.0
  9
$PUCSXDIR
 10
1.0
 20
0.0
 30
0.0
  9
$PUCSYDIR
 10
0.0
 20
1.0
 30
0.0
  9
$USERI1
 70
     0
  9
$USERI2
 70
     0
  9
$USERI3
 70
     0
  9
$USERI4
 70
     0
  9
$USERI5
 70
     0
  9
$USERR1
 40
0.0
  9
$USERR2
 40
0.0
  9
$USERR3
 40
0.0
  9
$USERR4
 40
0.0
  9
$USERR5
 40
0.0
  9
$WORLDVIEW
 70
     1
  9
$SHADEDGE
 70
     3
  9
$SHADEDIF
 70
    70
  9
$TILEMODE
 70
     1
  9
$MAXACTVP
 70
    64
  9
$PLIMCHECK
 70
     0
  9
$PEXTMIN
 10
1.000000000000000E+20
 20
1.000000000000000E+20
 30
1.000000000000000E+20
  9
$PEXTMAX
 10
-1.000000000000000E+20
 20
-1.000000000000000E+20
 30
-1.000000000000000E+20
  9
$PLIMMIN
 10
0.0
 20
0.0
  9
$PLIMMAX
 10
12.0
 20
9.0
  9
$UNITMODE
 70
     0
  9
$VISRETAIN
 70
     1
  9
$PLINEGEN
 70
     0
  9
$PSLTSCALE
 70
     1
  0
ENDSEC
  0
SECTION
  2
TABLES
  0
TABLE
  2
VPORT
 70
     1
  0
VPORT
  2
*ACTIVE
 70
     0
 10
0.0
 20
0.0
 11
1.0
 21
1.0
 12
10.42990654205607
 22
4.5
 13
0.0
 23
0.0
 14
0.5
 24
0.5
 15
0.5
 25
0.5
 16
0.0
 26
0.0
 36
1.0
 17
0.0
 27
0.0
 37
0.0
 40
9.0
 41
1.972972972850329
 42
50.0
 43
0.0
 44
0.0
 50
0.0
 51
0.0
 71
     0
 72
   100
 73
     1
 74
     3
 75
     0
 76
     0
 77
     0
 78
     0
  0
ENDTAB
  0
TABLE
  2
LTYPE
 70
     2
  0
LTYPE
  2
CONTINUOUS
 70
     0
  3
Solid line
 72
    65
 73
     0
 40
0.0
  0
LTYPE
  2
GC___6
 70
     0
  3
_____  _  __________  _  _____
 72
    65
 73
     4
 40
0.5
 49
0.3
 49
-0.075
 49
0.05
 49
-0.075
  0
ENDTAB
  0
TABLE
  2
LAYER
 70
     3
  0
LAYER
  2
0
 70
     0
 62
     7
  6
CONTINUOUS
  0
LAYER
  2
PROFILE_PLATE
 70
     0
 62
     7
  6
CONTINUOUS
  0
LAYER
  2
DIMENSIONS
 70
     0
 62
     7
  6
CONTINUOUS
  0
ENDTAB
  0
TABLE
  2
STYLE
 70
     2
  0
STYLE
  2
STANDARD
 70
     0
 40
0.0
 41
1.0
 50
0.0
 71
     0
 42
0.2
  3
txt
  4

  0
STYLE
  2
ENGINEER
 70
     0
 40
0.2
 41
1.0
 50
0.0
 71
     0
 42
0.2
  3
ENGINEER.SHX
  4

  0
ENDTAB
  0
TABLE
  2
VIEW
 70
     0
  0
ENDTAB
  0
TABLE
  2
UCS
 70
     0
  0
ENDTAB
  0
TABLE
  2
APPID
 70
     1
  0
APPID
  2
ACAD
 70
     0
  0
ENDTAB
  0
TABLE
  2
DIMSTYLE
 70
     1
  0
DIMSTYLE
  2
STANDARD
 70
     0
  3

  4

  5

  6

  7

 40
1.0
 41
0.18
 42
0.0625
 43
0.38
 44
0.18
 45
0.0
 46
0.0
 47
0.0
 48
0.0
140
0.18
141
0.09
142
0.0
143
25.4
144
1.0
145
0.0
146
1.0
147
0.09
 71
     0
 72
     0
 73
     1
 74
     1
 75
     0
 76
     0
 77
     0
 78
     0
170
     0
171
     2
172
     0
173
     0
174
     0
175
     0
176
     0
177
     0
178
     0
  0
ENDTAB
  0
ENDSEC
  0
SECTION
  2
BLOCKS
  0
BLOCK
  8
0
  2
$MODEL_SPACE
 70
     0
 10
0.0
 20
0.0
 30
0.0
  3
$MODEL_SPACE
  1

  0
ENDBLK
  5
21
  8
0
  0
BLOCK
 67
     1
  8
0
  2
$PAPER_SPACE
 70
     0
 10
0.0
 20
0.0
 30
0.0
  3
$PAPER_SPACE
  1

  0
ENDBLK
  5
1D
 67
     1
  8
0
  0
ENDSEC
  0
SECTION
  2
ENTITIES
  0
POINT
  5
2A
  8
PROFILE_PLATE
  6
CONTINUOUS
 62
     3
 10
-5.744747388997658
 20
-2.544070895709985
 30
0.0
  0
POINT
  5
2C
  8
PROFILE_PLATE
  6
CONTINUOUS
 62
     3
 10
-4.70330106051917
 20
-4.208903050666454
 30
0.0
  0
POINT
  5
2D
  8
PROFILE_PLATE
  6
CONTINUOUS
 62
     3
 10
-6.086174114337967
 20
-1.627416556989164
 30
0.0
  0
POINT
  5
2E
  8
PROFILE_PLATE
  6
CONTINUOUS
 62
     3
 10
6.092379389476873
 20
-1.627436442592271
 30
0.0
  0
LINE
  5
2F
  8
PROFILE_PLATE
  6
CONTINUOUS
 62
     3
 10
6.092379389476873
 20
-1.627436442592271
 30
0.0
 11
-6.086174114337967
 21
-1.627416556989164
 31
0.0
  0
POINT
  5
30
  8
PROFILE_PLATE
  6
CONTINUOUS
 62
     3
 10
0.0
 20
0.0
 30
0.0
  0
LINE
  5
31
  8
PROFILE_PLATE
  6
CONTINUOUS
 62
     3
 10
0.0
 20
0.0
 30
0.0
 11
-6.086174114337967
 21
-1.627416556989164
 31
0.0
  0
LINE
  5
32
  8
PROFILE_PLATE
  6
CONTINUOUS
 62
     3
 10
6.092379389476873
 20
-1.627436442592271
 30
0.0
 11
0.0
 21
0.0
 31
0.0
  0
LINE
  5
33
  8
PROFILE_PLATE
  6
CONTINUOUS
 62
     3
 10
0.0
 20
0.0
 30
0.0
 11
-0.000002657323577
 21
-1.627426494720275
 31
0.0
  0
POINT
  5
34
  8
PROFILE_PLATE
  6
CONTINUOUS
 62
   133
 10
-5.744747388997658
 20
-2.544070895709985
 30
0.0
  0
CIRCLE
  5
35
  8
PROFILE_PLATE
  6
CONTINUOUS
 62
   133
 10
-5.744747388997658
 20
-2.544070895709985
 30
0.0
 40
0.1849999999999987
  0
LINE
  5
36
  8
PROFILE_PLATE
  6
GC___6
 62
   133
 10
-5.929747388997656
 20
-2.544070895709985
 30
0.0
 11
-5.559747388997657
 21
-2.544070895709985
 31
0.0
  0
LINE
  5
38
  8
PROFILE_PLATE
  6
GC___6
 62
   133
 10
-5.744747388997658
 20
-2.359070895709984
 30
0.0
 11
-5.744747388997658
 21
-2.729070895709985
 31
0.0
  0
CIRCLE
  5
39
  8
PROFILE_PLATE
  6
CONTINUOUS
 62
     3
 10
-5.744747388997658
 20
-2.544070895709985
 30
0.0
 40
0.1250000000000002
  0
POINT
  5
3A
  8
PROFILE_PLATE
  6
CONTINUOUS
 62
   133
 10
-4.703301060519169
 20
-4.208903050666454
 30
0.0
  0
CIRCLE
  5
3B
  8
PROFILE_PLATE
  6
CONTINUOUS
 62
   133
 10
-4.703301060519169
 20
-4.208903050666454
 30
0.0
 40
0.1849999999999987
  0
LINE
  5
3C
  8
PROFILE_PLATE
  6
GC___6
 62
   133
 10
-4.888301060519168
 20
-4.208903050666454
 30
0.0
 11
-4.518301060519169
 21
-4.208903050666454
 31
0.0
  0
LINE
  5
3D
  8
PROFILE_PLATE
  6
GC___6
 62
   133
 10
-4.703301060519169
 20
-4.023903050666455
 30
0.0
 11
-4.703301060519169
 21
-4.393903050666455
 31
0.0
  0
POINT
  5
3E
  8
PROFILE_PLATE
  6
CONTINUOUS
 62
   133
 10
-6.086174114337967
 20
-1.627416556989165
 30
0.0
  0
POINT
  5
3F
  8
PROFILE_PLATE
  6
CONTINUOUS
 62
   133
 10
-6.086174114337967
 20
-1.627416556989165
 30
0.0
  0
CIRCLE
  5
40
  8
PROFILE_PLATE
  6
CONTINUOUS
 62
   133
 10
-6.086174114337967
 20
-1.627416556989165
 30
0.0
 40
0.2509999999999995
  0
LINE
  5
41
  8
PROFILE_PLATE
  6
GC___6
 62
   133
 10
-6.337174114337967
 20
-1.627416556989165
 30
0.0
 11
-5.835174114337966
 21
-1.627416556989165
 31
0.0
  0
LINE
  5
42
  8
PROFILE_PLATE
  6
GC___6
 62
   133
 10
-6.086174114337967
 20
-1.376416556989166
 30
0.0
 11
-6.086174114337967
 21
-1.896416556989165
 31
0.0
  0
POINT
  5
43
  8
PROFILE_PLATE
  6
CONTINUOUS
 62
     3
 10
6.092379389476872
 20
-1.627436442592271
 30
0.0
  0
POINT
  5
44
  8
PROFILE_PLATE
  6
CONTINUOUS
 62
   133
 10
6.092379389476872
 20
-1.627436442592272
 30
0.0
  0
POINT
  5
45
  8
PROFILE_PLATE
  6
CONTINUOUS
 62
   133
 10
6.092379389476872
 20
-1.627436442592272
 30
0.0
  0
CIRCLE
  5
46
  8
PROFILE_PLATE
  6
CONTINUOUS
 62
   133
 10
6.092379389476872
 20
-1.627436442592272
 30
0.0
 40
0.2509999999999995
  0
LINE
  5
47
  8
PROFILE_PLATE
  6
GC___6
 62
   133
 10
5.841379389476873
 20
-1.627436442592272
 30
0.0
 11
6.343379389476874
 21
-1.627436442592272
 31
0.0
  0
LINE
  5
48
  8
PROFILE_PLATE
  6
GC___6
 62
   133
 10
6.092379389476872
 20
-1.376436442592273
 30
0.0
 11
6.092379389476872
 21
-1.896436442592272
 31
0.0
  0
POINT
  5
49
  8
PROFILE_PLATE
  6
CONTINUOUS
 62
     3
 10
2.164817998789932
 20
6.288067886384548
 30
0.0
  0
POINT
  5
4A
  8
PROFILE_PLATE
  6
CONTINUOUS
 62
   133
 10
2.164817998789933
 20
6.288067886384548
 30
0.0
  0
POINT
  5
4B
  8
PROFILE_PLATE
  6
CONTINUOUS
 62
   133
 10
2.164817998789933
 20
6.288067886384548
 30
0.0
  0
CIRCLE
  5
4C
  8
PROFILE_PLATE
  6
CONTINUOUS
 62
   133
 10
2.164817998789933
 20
6.288067886384548
 30
0.0
 40
0.2180000000000002
  0
LINE
  5
4D
  8
PROFILE_PLATE
  6
GC___6
 62
   133
 10
1.946817998789933
 20
6.288067886384548
 30
0.0
 11
2.382817998789933
 21
6.288067886384548
 31
0.0
  0
LINE
  5
4E
  8
PROFILE_PLATE
  6
GC___6
 62
   133
 10
2.164817998789933
 20
6.506067886384548
 30
0.0
 11
2.164817998789933
 21
6.043067886384548
 31
0.0
  0
POINT
  5
4F
  8
PROFILE_PLATE
  6
CONTINUOUS
 62
     3
 10
-2.162051039110335
 20
6.326737574830053
 30
0.0
  0
POINT
  5
50
  8
PROFILE_PLATE
  6
CONTINUOUS
 62
   133
 10
-2.162051039110335
 20
6.326737574830053
 30
0.0
  0
POINT
  5
51
  8
PROFILE_PLATE
  6
CONTINUOUS
 62
   133
 10
-2.162051039110335
 20
6.326737574830053
 30
0.0
  0
CIRCLE
  5
52
  8
PROFILE_PLATE
  6
CONTINUOUS
 62
   133
 10
-2.162051039110335
 20
6.326737574830053
 30
0.0
 40
0.218
  0
LINE
  5
53
  8
PROFILE_PLATE
  6
GC___6
 62
   133
 10
-2.380051039110335
 20
6.326737574830053
 30
0.0
 11
-1.944051039110335
 21
6.326737574830053
 31
0.0
  0
LINE
  5
54
  8
PROFILE_PLATE
  6
GC___6
 62
   133
 10
-2.162051039110335
 20
6.544737574830053
 30
0.0
 11
-2.162051039110335
 21
6.081737574830053
 31
0.0
  0
LINE
  5
55
  8
PROFILE_PLATE
  6
CONTINUOUS
 62
     3
 10
-6.509989422932979
 20
-1.851554882344777
 30
0.0
 11
-6.070649691322449
 21
-2.682286992237851
 31
0.0
  0
LINE
  5
56
  8
PROFILE_PLATE
  6
CONTINUOUS
 62
     3
 10
-5.69398643737671
 20
2.467917384584418
 30
0.0
 11
-6.55484735028044
 21
-1.526407633601602
 31
0.0
  0
ARC
  5
57
  8
PROFILE_PLATE
  6
CONTINUOUS
 62
     3
 10
-6.08617411433797
 20
-1.627416556989166
 30
0.0
 40
0.4794344633969286
 50
167.8375908140881
 51
207.8725049855487
  0
ARC
  5
58
  8
PROFILE_PLATE
  6
CONTINUOUS
 62
     3
 10
-5.744747388997658
 20
-2.544070895709985
 30
0.0
 40
0.3539999999999998
 50
202.9819394174211
 51
271.1098260292527
  0
LINE
  5
59
  8
PROFILE_PLATE
  6
CONTINUOUS
 62
     3
 10
-5.737890795893229
 20
-2.898004487123685
 30
0.0
 11
-5.363616109596253
 21
-2.890753835319272
 31
0.0
  0
ARC
  5
5A
  8
PROFILE_PLATE
  6
CONTINUOUS
 62
     3
 10
-5.356759516491825
 20
-3.244687426732975
 30
0.0
 40
0.3540000000000024
 50
34.00749241973252
 51
91.1098260292524
  0
LINE
  5
5B
  8
PROFILE_PLATE
  6
CONTINUOUS
 62
     3
 10
-5.023373287782706
 20
-4.047610680700294
 30
0.0
 11
-4.825568145919608
 21
-3.655081682995163
 31
0.0
  0
LINE
  5
5C
  8
PROFILE_PLATE
  6
CONTINUOUS
 62
     3
 10
-5.063306104282735
 20
-3.046694763073829
 30
0.0
 11
-4.84350392170698
 21
-3.372472997962894
 31
0.0
  0
ARC
  5
5D
  8
PROFILE_PLATE
  6
CONTINUOUS
 62
     3
 10
-5.075613965262193
 20
-3.52907736469894
 30
0.0
 40
0.2800000000000016
 50
333.2553265546626
 51
34.00749241973205
  0
LINE
  5
5E
  8
PROFILE_PLATE
  6
CONTINUOUS
 62
     3
 10
-5.6366528765746
 20
2.591253808466794
 30
0.0
 11
-2.529782044641616
 21
6.610960486265983
 31
0.0
  0
LINE
  5
5F
  8
PROFILE_PLATE
  6
CONTINUOUS
 62
     3
 10
-2.1604889514676
 20
6.791502370932727
 30
0.0
 11
2.166461176909364
 21
6.77695936900363
 31
0.0
  0
LINE
  5
60
  8
PROFILE_PLATE
  6
CONTINUOUS
 62
     3
 10
2.386271309642699
 20
6.723930264807101
 30
0.0
 11
5.476140280728918
 21
5.154027131105327
 31
0.0
  0
LINE
  5
61
  8
PROFILE_PLATE
  6
CONTINUOUS
 62
     3
 10
6.515652628188724
 20
3.472661180367347
 30
0.0
 11
6.550124532137844
 21
-1.624340633101035
 31
0.0
  0
LINE
  5
62
  8
PROFILE_PLATE
  6
CONTINUOUS
 62
     3
 10
3.450904351960916
 20
-4.67360205910909
 30
0.0
 11
3.409424521631356
 21
-4.618942370981277
 31
0.0
  0
ARC
  5
63
  8
PROFILE_PLATE
  6
CONTINUOUS
 62
     3
 10
3.502626019583353
 20
-4.548214153277804
 30
0.0
 40
0.1170000000000252
 50
127.6002340477704
 51
217.1939267863002
  0
LINE
  5
64
  8
PROFILE_PLATE
  6
CONTINUOUS
 62
     3
 10
6.111738788651526
 20
-2.084782496833166
 30
0.0
 11
5.456041002279545
 21
-2.086251443079039
 31
0.0
  0
ARC
  5
65
  8
PROFILE_PLATE
  6
CONTINUOUS
 62
     3
 10
0.000000000000027
 20
-0.0000000000000313
 30
0.0
 40
5.623613296254862
 50
307.6002340477417
 51
335.9062059065784
  0
ARC
  5
66
  8
PROFILE_PLATE
  6
CONTINUOUS
 62
     3
 10
5.456834059198349
 20
-2.440250554745617
 30
0.0
 40
0.3540000000000046
 50
90.12835834002667
 51
155.9062059065779
  0
ARC
  5
67
  8
PROFILE_PLATE
  6
CONTINUOUS
 62
     3
 10
4.615340579278159
 20
3.459809041635455
 30
0.0
 40
1.900355509031049
 50
0.3874953486832348
 51
63.0657502122249
  0
ARC
  5
68
  8
PROFILE_PLATE
  6
CONTINUOUS
 62
     3
 10
2.164817998789931
 20
6.288067886384536
 30
0.0
 40
0.488894243995394
 50
63.0657502122253
 51
89.80742798745794
  0
ARC
  5
69
  8
PROFILE_PLATE
  6
CONTINUOUS
 62
     3
 10
-2.162051039110335
 20
6.326737574830054
 30
0.0
 40
0.4647674212056629
 50
89.80742798745813
 51
142.2992106805768
  0
ARC
  5
6A
  8
PROFILE_PLATE
  6
CONTINUOUS
 62
     3
 10
-5.393208801987115
 20
2.403093488530989
 30
0.0
 40
0.30768380433507
 50
142.2992106805764
 51
167.8375908140885
  0
LINE
  5
6B
  8
PROFILE_PLATE
  6
CONTINUOUS
 62
     3
 10
3.354004915642795
 20
-5.131998406369936
 30
0.0
 11
0.9325141342111909
 21
-6.28809112560213
 31
0.0
  0
ARC
  5
6C
  8
PROFILE_PLATE
  6
CONTINUOUS
 62
     3
 10
0.1351403947213074
 20
1.47552402117937
 30
0.0
 40
7.822280371787828
 50
229.6368509244697
 51
275.1317806141729
  0
ARC
  5
6D
  8
PROFILE_PLATE
  6
CONTINUOUS
 62
     3
 10
0.8054506763329847
 20
-6.021950714205977
 30
0.0
 40
0.2949166677318876
 50
275.7149034831831
 51
295.5212164726528
  0
ARC
  5
6E
  8
PROFILE_PLATE
  6
CONTINUOUS
 62
     3
 10
-4.70330106051917
 20
-4.208903050666454
 30
0.0
 40
0.3584152051388757
 50
153.2553265546624
 51
230.4813359033566
  0
ARC
  5
6F
  8
PROFILE_PLATE
  6
CONTINUOUS
 62
     3
 10
3.226856960365862
 20
-4.865681011182894
 30
0.0
 40
0.2951127877783623
 50
295.5212164726531
 51
40.60694492548794
  0
ARC
  5
70
  8
PROFILE_PLATE
  6
CONTINUOUS
 62
     3
 10
6.092379389476872
 20
-1.627436442592271
 30
0.0
 40
0.4577556112885123
 50
272.4238758939227
 51
0.3874953486831601
  0
POINT
  5
71
  8
PROFILE_PLATE
  6
CONTINUOUS
 62
     3
 10
-2.162051039110335
 20
6.326737574830053
 30
0.0
  0
CIRCLE
  5
72
  8
PROFILE_PLATE
  6
CONTINUOUS
 62
     3
 10
2.164817998789933
 20
6.288067886384548
 30
0.0
 40
0.1250000000000001
  0
POINT
  5
73
  8
PROFILE_PLATE
  6
CONTINUOUS
 62
     3
 10
2.164817998789933
 20
6.288067886384548
 30
0.0
  0
CIRCLE
  5
74
  8
PROFILE_PLATE
  6
CONTINUOUS
 62
     3
 10
6.092379389476873
 20
-1.627436442592271
 30
0.0
 40
0.1250000000000003
  0
POINT
  5
75
  8
PROFILE_PLATE
  6
CONTINUOUS
 62
     3
 10
6.092379389476873
 20
-1.627436442592271
 30
0.0
  0
CIRCLE
  5
76
  8
PROFILE_PLATE
  6
CONTINUOUS
 62
     3
 10
-6.086174114337967
 20
-1.627416556989164
 30
0.0
 40
0.125
  0
POINT
  5
77
  8
PROFILE_PLATE
  6
CONTINUOUS
 62
     3
 10
-5.744747388997658
 20
-2.544070895709985
 30
0.0
  0
POINT
  5
78
  8
PROFILE_PLATE
  6
CONTINUOUS
 62
     3
 10
-6.086174114337967
 20
-1.627416556989164
 30
0.0
  0
CIRCLE
  5
79
  8
PROFILE_PLATE
  6
CONTINUOUS
 62
     3
 10
-4.70330106051917
 20
-4.208903050666454
 30
0.0
 40
0.1249999999999995
  0
POINT
  5
7A
  8
PROFILE_PLATE
  6
CONTINUOUS
 62
     3
 10
-4.70330106051917
 20
-4.208903050666454
 30
0.0
  0
CIRCLE
  5
7B
  8
PROFILE_PLATE
  6
CONTINUOUS
 62
     3
 10
-2.162051039110335
 20
6.326737574830053
 30
0.0
 40
0.1249999999999999
  0
POINT
  5
7C
  8
PROFILE_PLATE
  6
CONTINUOUS
 62
   133
 10
0.0
 20
0.0
 30
0.0
  0
LINE
  5
7D
  8
PROFILE_PLATE
  6
GC___6
 62
   133
 10
-0.3104999999999993
 20
0.0
 30
0.0
 11
0.3104999999999993
 21
0.0
 31
0.0
  0
LINE
  5
7E
  8
PROFILE_PLATE
  6
GC___6
 62
   133
 10
0.0
 20
0.3099999999999996
 30
0.0
 11
0.0
 21
-0.3109999999999999
 31
0.0
  0
POINT
  5
7F
  8
PROFILE_PLATE
  6
CONTINUOUS
 62
    93
 10
0.0
 20
0.0
 30
0.0
  0
CIRCLE
  5
80
  8
PROFILE_PLATE
  6
CONTINUOUS
 62
    93
 10
0.0
 20
0.0
 30
0.0
 40
3.0
  0
CIRCLE
  5
81
  8
PROFILE_PLATE
  6
GC___6
 62
    93
 10
0.0
 20
0.0
 30
0.0
 40
3.625
  0
CIRCLE
  5
82
  8
PROFILE_PLATE
  6
CONTINUOUS
 62
    93
 10
0.0
 20
0.0
 30
0.0
 40
4.25
  0
LINE
  5
83
  8
PROFILE_PLATE
  6
GC___6
 62
    93
 10
0.0
 20
0.0
 30
0.0
 11
0.0
 21
0.0
 31
0.0
  0
CIRCLE
  5
84
  8
PROFILE_PLATE
  6
CONTINUOUS
 62
    93
 10
-0.0014095306396484
 20
3.62410831451416
 30
0.0
 40
0.25
  0
CIRCLE
  5
85
  8
PROFILE_PLATE
  6
CONTINUOUS
 62
    93
 10
-3.62410831451416
 20
-0.0014095306396484
 30
0.0
 40
0.25
  0
CIRCLE
  5
86
  8
PROFILE_PLATE
  6
CONTINUOUS
 62
    93
 10
0.0014095306396484
 20
-3.624108076095581
 30
0.0
 40
0.25
  0
CIRCLE
  5
87
  8
PROFILE_PLATE
  6
CONTINUOUS
 62
    93
 10
3.624107837677002
 20
0.0014095306396484
 30
0.0
 40
0.2500000000000036
  0
POINT
  5
88
  8
PROFILE_PLATE
  6
CONTINUOUS
 62
    93
 10
0.0
 20
0.0
 30
0.0
  0
LINE
  5
89
  8
PROFILE_PLATE
  6
GC___6
 62
    93
 10
0.0
 20
7.284333213705267
 30
0.0
 11
0.0
 21
-7.322655208695172
 31
0.0
  0
LINE
  5
8A
  8
PROFILE_PLATE
  6
GC___6
 62
    93
 10
-6.163624017724541
 20
0.0
 30
0.0
 11
6.024081947215823
 21
0.0
 31
0.0
  0
TEXT
  5
8D
  8
DIMENSIONS
  6
CONTINUOUS
 62
    93
 10
0.2287530173189794
 20
5.121813821566461
 30
0.0
 40
0.2
  1
1993 MITSUBISHI ECLIPSE
  7
ENGINEER
  0
TEXT
  5
8E
  8
DIMENSIONS
  6
CONTINUOUS
 62
    93
 10
0.2287530173189794
 20
4.821813821566461
 30
0.0
 40
0.2
  1
TO A WARP 9 MOTOR 
  7
ENGINEER
  0
TEXT
  5
8F
  8
DIMENSIONS
  6
CONTINUOUS
 62
    93
 10
0.2287530173189794
 20
4.521813821566461
 30
0.0
 40
0.2
  1
PROFILE PLATE PATTERN
  7
ENGINEER
  0
LINE
  5
90
  8
DIMENSIONS
  6
CONTINUOUS
 62
    93
 10
2.441974352742149
 20
2.692247686227423
 30
0.0
 11
2.541370247363017
 21
2.865800145537331
 31
0.0
  0
LINE
  5
91
  8
DIMENSIONS
  6
CONTINUOUS
 62
    93
 10
2.441974352742149
 20
2.692247686227423
 30
0.0
 11
2.614829952170656
 21
2.792850577568634
 31
0.0
  0
LINE
  5
92
  8
DIMENSIONS
  6
CONTINUOUS
 62
    93
 10
2.441974352742149
 20
2.692247686227423
 30
0.0
 11
3.46888990243818
 21
3.726344463543706
 31
0.0
  0
LINE
  5
93
  8
DIMENSIONS
  6
CONTINUOUS
 62
    93
 10
3.46888990243818
 20
3.726344463543706
 30
0.0
 11
3.71888990243818
 21
3.726344463543706
 31
0.0
  0
TEXT
  5
94
  8
DIMENSIONS
  6
CONTINUOUS
 62
    93
 10
3.78138990243818
 20
3.663844463543706
 30
0.0
 40
0.125
  1
PLATE TO RING
  7
ENGINEER
  0
TEXT
  5
95
  8
DIMENSIONS
  6
CONTINUOUS
 62
    93
 10
3.78138990243818
 20
3.476344463543706
 30
0.0
 40
0.125
  1
BOLT CIRCLE
  7
ENGINEER
  0
TEXT
  5
96
  8
DIMENSIONS
  6
CONTINUOUS
 62
    93
 10
3.78138990243818
 20
3.288844463543706
 30
0.0
 40
0.125
  1
7.25" DIA.
  7
ENGINEER
  0
TEXT
  5
97
  8
DIMENSIONS
  6
CONTINUOUS
 62
    93
 10
3.78138990243818
 20
3.101344463543706
 30
0.0
 40
0.125
  1
DRILL 17/32" 4 X.
  7
ENGINEER
  0
LINE
  5
98
  8
DIMENSIONS
  6
CONTINUOUS
 62
    93
 10
-0.2909780138409808
 20
-4.250761279863079
 30
0.0
 11
-0.3826263020677087
 21
-4.428526831264668
 31
0.0
  0
LINE
  5
99
  8
DIMENSIONS
  6
CONTINUOUS
 62
    93
 10
-0.2909780138409808
 20
-4.250761279863079
 30
0.0
 11
-0.4592305353594794
 21
-4.358886619181239
 31
0.0
  0
LINE
  5
9A
  8
DIMENSIONS
  6
CONTINUOUS
 62
    93
 10
-0.2909780138409808
 20
-4.250761279863079
 30
0.0
 11
-0.6450868240809928
 21
-4.640280971127091
 31
0.0
  0
LINE
  5
9B
  8
DIMENSIONS
  6
CONTINUOUS
 62
    93
 10
-0.6450868240809928
 20
-4.640280971127091
 30
0.0
 11
-0.8950868240809928
 21
-4.640280971127091
 31
0.0
  0
TEXT
  5
9C
  8
DIMENSIONS
  6
CONTINUOUS
 62
    93
 10
-2.349266193925489
 20
-4.702780971127091
 30
0.0
 40
0.125
  1
RING RECESS
  7
ENGINEER
  0
TEXT
  5
9D
  8
DIMENSIONS
  6
CONTINUOUS
 62
    93
 10
-2.349266193925489
 20
-4.890280971127091
 30
0.0
 40
0.125
  1
AS PER STANDARD
  7
ENGINEER
  0
TEXT
  5
9E
  8
DIMENSIONS
  6
CONTINUOUS
 62
    93
 10
-2.349266193925489
 20
-5.077780971127091
 30
0.0
 40
0.125
  1
MOTOR RING DWG.
  7
ENGINEER
  0
LINE
  5
9F
  8
DIMENSIONS
  6
CONTINUOUS
 62
    93
 10
2.506481587055102
 20
1.698266732169099
 30
0.0
 11
2.653442081056483
 21
1.833922963883201
 31
0.0
  0
LINE
  5
A0
  8
DIMENSIONS
  6
CONTINUOUS
 62
    93
 10
2.506481587055102
 20
1.698266732169099
 30
0.0
 11
2.701581224070059
 21
1.742268228014489
 31
0.0
  0
LINE
  5
A1
  8
DIMENSIONS
  6
CONTINUOUS
 62
    93
 10
2.506481587055102
 20
1.698266732169099
 30
0.0
 11
3.790146659886693
 21
2.372476700010685
 31
0.0
  0
LINE
  5
A2
  8
DIMENSIONS
  6
CONTINUOUS
 62
    93
 10
3.790146659886693
 20
2.372476700010685
 30
0.0
 11
4.040146659886693
 21
2.372476700010685
 31
0.0
  0
TEXT
  5
A3
  8
DIMENSIONS
  6
CONTINUOUS
 62
    93
 10
4.102646659886693
 20
2.309976700010685
 30
0.0
 40
0.125
  1
HUB CUTOUT
  7
ENGINEER
  0
TEXT
  5
A4
  8
DIMENSIONS
  6
CONTINUOUS
 62
    93
 10
4.102646659886693
 20
2.122476700010685
 30
0.0
 40
0.125
  1
6" DIA.
  7
ENGINEER
  0
LINE
  5
A5
  8
DIMENSIONS
  6
CONTINUOUS
 62
    93
 10
-6.236669419800507
 20
-1.064597757769098
 30
0.0
 11
-6.063412709925363
 21
-0.9646872353841165
 31
0.0
  0
LINE
  5
A6
  8
DIMENSIONS
  6
CONTINUOUS
 62
    93
 10
-6.236669419800507
 20
-1.064597757769098
 30
0.0
 11
-6.036669446480031
 21
-1.064701062215903
 31
0.0
  0
LINE
  5
A7
  8
DIMENSIONS
  6
CONTINUOUS
 62
    93
 10
-0.1504953054625401
 20
0.5628187992200668
 30
0.0
 11
-0.3237520153376853
 21
0.4629082768350858
 31
0.0
  0
LINE
  5
A8
  8
DIMENSIONS
  6
CONTINUOUS
 62
    93
 10
-0.1504953054625401
 20
0.5628187992200668
 30
0.0
 11
-0.3504952787830166
 21
0.5629221036668721
 31
0.0
  0
LINE
  5
A9
  8
DIMENSIONS
  6
CONTINUOUS
 62
    93
 10
-6.102319119863654
 20
-1.567037845537399
 30
0.0
 11
-6.268959430851879
 21
-0.9438403348655663
 31
0.0
  0
LINE
  5
AA
  8
DIMENSIONS
  6
CONTINUOUS
 62
    93
 10
-0.0161450055256861
 20
0.0603787114517655
 30
0.0
 11
-0.1827853165139123
 21
0.6835762221235979
 31
0.0
  0
TEXT
  5
AB
  8
DIMENSIONS
  6
CONTINUOUS
 62
    93
 10
-5.005566621030158
 20
-0.8004098021088424
 30
0.0
 40
0.125
  1
6.300"
 50
14.9704054546497
  7
ENGINEER
  0
LINE
  5
AC
  8
DIMENSIONS
  6
CONTINUOUS
 62
    93
 10
-6.236669419800507
 20
-1.064597757769098
 30
0.0
 11
-5.051977788676246
 21
-0.7478163546744799
 31
0.0
  0
LINE
  5
AD
  8
DIMENSIONS
  6
CONTINUOUS
 62
    93
 10
-4.327896768052212
 20
-0.5542002307471176
 30
0.0
 11
-0.1504953054625401
 21
0.5628187992200668
 31
0.0
  0
LINE
  5
AE
  8
DIMENSIONS
  6
CONTINUOUS
 62
    93
 10
-6.086174475647918
 20
-1.84869385708497
 30
0.0
 11
-5.892989225868456
 21
-1.796930363504584
 31
0.0
  0
LINE
  5
AF
  8
DIMENSIONS
  6
CONTINUOUS
 62
    93
 10
-6.086174475647918
 20
-1.84869385708497
 30
0.0
 11
-5.892989394912268
 21
-1.900457981545454
 31
0.0
  0
LINE
  5
B0
  8
DIMENSIONS
  6
CONTINUOUS
 62
    93
 10
6.092379028166922
 20
-1.848713742688079
 30
0.0
 11
5.89919377838746
 21
-1.900477236268464
 31
0.0
  0
LINE
  5
B1
  8
DIMENSIONS
  6
CONTINUOUS
 62
    93
 10
6.092379028166922
 20
-1.848713742688079
 30
0.0
 11
5.899193947431273
 21
-1.796949618227594
 31
0.0
  0
LINE
  5
B2
  8
DIMENSIONS
  6
CONTINUOUS
 62
    93
 10
-6.086174114337967
 20
-1.689916556989164
 30
0.0
 11
-6.086174114337967
 21
-1.973693857085265
 31
0.0
  0
LINE
  5
B3
  8
DIMENSIONS
  6
CONTINUOUS
 62
    93
 10
6.092379389476873
 20
-1.689936442592271
 30
0.0
 11
6.092379389476873
 21
-1.973713742688374
 31
0.0
  0
TEXT
  5
B4
  8
DIMENSIONS
  6
CONTINUOUS
 62
    93
 10
-0.7323271820585444
 20
-1.911318390792709
 30
0.0
 40
0.125
  1
12.179"
 50
359.9999064452827
  7
ENGINEER
  0
LINE
  5
B5
  8
DIMENSIONS
  6
CONTINUOUS
 62
    93
 10
-6.086174475647918
 20
-1.84869385708497
 30
0.0
 11
-0.7635770798170674
 21
-1.848702548023453
 31
0.0
  0
LINE
  5
B6
  8
DIMENSIONS
  6
CONTINUOUS
 62
    93
 10
-0.0441145239848657
 20
-1.848703722789146
 30
0.0
 11
6.092379028166922
 21
-1.848713742688079
 31
0.0
  0
LINE
  5
B7
  8
DIMENSIONS
  6
CONTINUOUS
 62
    93
 10
0.1458857884030486
 20
0.5461298194039461
 30
0.0
 11
0.3458857294713555
 21
0.5462833533539239
 31
0.0
  0
LINE
  5
B8
  8
DIMENSIONS
  6
CONTINUOUS
 62
    93
 10
0.1458857884030486
 20
0.5461298194039461
 30
0.0
 11
0.319167585098582
 21
0.4462628131708169
 31
0.0
  0
LINE
  5
B9
  8
DIMENSIONS
  6
CONTINUOUS
 62
    93
 10
6.238265177879922
 20
-1.081306623188326
 30
0.0
 11
6.038265236811615
 21
-1.081460157138303
 31
0.0
  0
LINE
  5
BA
  8
DIMENSIONS
  6
CONTINUOUS
 62
    93
 10
6.238265177879922
 20
-1.081306623188326
 30
0.0
 11
6.064983381184389
 21
-0.9814396169551962
 31
0.0
  0
LINE
  5
BB
  8
DIMENSIONS
  6
CONTINUOUS
 62
    93
 10
0.0161298410501137
 20
0.0603827643264042
 30
0.0
 11
0.1781454705032761
 21
0.6668953480567544
 31
0.0
  0
LINE
  5
BC
  8
DIMENSIONS
  6
CONTINUOUS
 62
    93
 10
6.108509230526987
 20
-1.567053678265867
 30
0.0
 11
6.270524859980149
 21
-0.9605410945355172
 31
0.0
  0
TEXT
  5
BD
  8
DIMENSIONS
  6
CONTINUOUS
 62
    93
 10
4.393266967362109
 20
-0.6534577988325487
 30
0.0
 40
0.125
  1
6.306"
 50
345.0439842410486
  7
ENGINEER
  0
LINE
  5
BE
  8
DIMENSIONS
  6
CONTINUOUS
 62
    93
 10
0.1458857884030486
 20
0.5461298194039461
 30
0.0
 11
4.379282160501805
 21
-0.5847228559549678
 31
0.0
  0
LINE
  5
BF
  8
DIMENSIONS
  6
CONTINUOUS
 62
    93
 10
5.100770654733772
 20
-0.7774516066385244
 30
0.0
 11
6.238265177879922
 21
-1.081306623188326
 31
0.0
  0
POINT
  5
C0
  8
PROFILE_PLATE
  6
CONTINUOUS
 62
     3
 10
0.0000000000000009
 20
-1.627426494724614
 30
0.0
  0
LINE
  5
C1
  8
DIMENSIONS
  6
CONTINUOUS
 62
    93
 10
0.493385382267574
 20
-1.627426494724614
 30
0.0
 11
0.4416215732470698
 21
-1.4342413294668
 31
0.0
  0
LINE
  5
C2
  8
DIMENSIONS
  6
CONTINUOUS
 62
    93
 10
0.493385382267574
 20
-1.627426494724614
 30
0.0
 11
0.5451491912880782
 21
-1.4342413294668
 31
0.0
  0
LINE
  5
C3
  8
DIMENSIONS
  6
CONTINUOUS
 62
    93
 10
0.4933853822675741
 20
0.0
 30
0.0
 11
0.5451491912880782
 21
-0.1931851652578137
 31
0.0
  0
LINE
  5
C4
  8
DIMENSIONS
  6
CONTINUOUS
 62
    93
 10
0.4933853822675741
 20
0.0
 30
0.0
 11
0.44162157324707
 21
-0.1931851652578137
 31
0.0
  0
LINE
  5
C5
  8
DIMENSIONS
  6
CONTINUOUS
 62
    93
 10
0.0625000000000009
 20
-1.627426494724614
 30
0.0
 11
0.618385382267574
 21
-1.627426494724614
 31
0.0
  0
LINE
  5
C6
  8
DIMENSIONS
  6
CONTINUOUS
 62
    93
 10
0.0625
 20
0.0
 30
0.0
 11
0.6183853822675741
 21
-0.0000000000000002
 31
0.0
  0
TEXT
  5
C7
  8
DIMENSIONS
  6
CONTINUOUS
 62
    93
 10
0.1992791043975597
 20
-0.8791366616528729
 30
0.0
 40
0.125
  1
1.627"
  7
ENGINEER
  0
LINE
  5
C8
  8
DIMENSIONS
  6
CONTINUOUS
 62
    93
 10
0.493385382267574
 20
-1.627426494724614
 30
0.0
 11
0.493385382267574
 21
-0.9103866616528729
 31
0.0
  0
LINE
  5
C9
  8
DIMENSIONS
  6
CONTINUOUS
 62
    93
 10
0.4933853822675741
 20
-0.7224154935715969
 30
0.0
 11
0.4933853822675741
 21
0.0
 31
0.0
  0
POINT
  5
CA
  8
PROFILE_PLATE
  6
CONTINUOUS
 62
     3
 10
5.775412560750007
 20
1.744835638540413
 30
0.0
  0
CIRCLE
  5
CB
  8
PROFILE_PLATE
  6
CONTINUOUS
 62
   133
 10
5.775412560750008
 20
1.744835638540413
 30
0.0
 40
0.25
  0
LINE
  5
CC
  8
PROFILE_PLATE
  6
CONTINUOUS
 62
   133
 10
5.775412560750008
 20
1.994835638540413
 30
0.0
 11
5.775412560750008
 21
1.494835638540413
 31
0.0
  0
LINE
  5
CD
  8
PROFILE_PLATE
  6
CONTINUOUS
 62
   133
 10
5.525412560750008
 20
1.744835638540413
 30
0.0
 11
6.025412560750008
 21
1.744835638540413
 31
0.0
  0
POINT
  5
CE
  8
PROFILE_PLATE
  6
CONTINUOUS
 62
     3
 10
5.775412560750008
 20
1.744835638540413
 30
0.0
  0
CIRCLE
  5
CF
  8
PROFILE_PLATE
  6
CONTINUOUS
 62
     3
 10
5.775412560750007
 20
1.744835638540413
 30
0.0
 40
0.1250000000000001
  0
TEXT
  5
D0
  8
DIMENSIONS
  6
CONTINUOUS
 62
    93
 10
-6.076075933300512
 20
-1.29023828627955
 30
0.0
 40
0.125
  1
DWL "A"
  7
ENGINEER
  0
TEXT
  5
D1
  8
DIMENSIONS
  6
CONTINUOUS
 62
    93
 10
5.317684571845117
 20
-1.317105982720837
 30
0.0
 40
0.125
  1
DWL "B"
  7
ENGINEER
  0
CIRCLE
  5
D2
  8
PROFILE_PLATE
  6
CONTINUOUS
 62
     3
 10
0.0
 20
0.0
 30
0.0
 40
0.3125
  0
LINE
  5
D3
  8
DIMENSIONS
  6
CONTINUOUS
 62
    93
 10
-5.55214130187316
 20
-2.541586512017984
 30
0.0
 11
-5.357347177573877
 21
-2.586921367686394
 31
0.0
  0
LINE
  5
D4
  8
DIMENSIONS
  6
CONTINUOUS
 62
    93
 10
-5.55214130187316
 20
-2.541586512017984
 30
0.0
 11
-5.406112069556243
 21
-2.678244710853369
 31
0.0
  0
LINE
  5
D5
  8
DIMENSIONS
  6
CONTINUOUS
 62
    93
 10
-5.55214130187316
 20
-2.541586512017984
 30
0.0
 11
-4.903597926236347
 21
-2.887896081532787
 31
0.0
  0
LINE
  5
D6
  8
DIMENSIONS
  6
CONTINUOUS
 62
    93
 10
-4.903597926236347
 20
-2.887896081532787
 30
0.0
 11
-4.653597926236347
 21
-2.887896081532787
 31
0.0
  0
TEXT
  5
D7
  8
DIMENSIONS
  6
CONTINUOUS
 62
    93
 10
-4.591097926236347
 20
-2.950396081532787
 30
0.0
 40
0.125
  1
DRILL .386
  7
ENGINEER
  0
TEXT
  5
D8
  8
DIMENSIONS
  6
CONTINUOUS
 62
    93
 10
-4.591097926236347
 20
-3.137896081532787
 30
0.0
 40
0.125
  1
THRU 2X
  7
ENGINEER
  0
TEXT
  5
D9
  8
DIMENSIONS
  6
CONTINUOUS
 62
    93
 10
-4.591097926236347
 20
-3.325396081532787
 30
0.0
 40
0.125
  1
DRILL SIZE "W"
  7
ENGINEER
  0
LINE
  5
DA
  8
DIMENSIONS
  6
CONTINUOUS
 62
    93
 10
-4.697486587327659
 20
-4.017412653627996
 30
0.0
 11
-4.595050915181306
 21
-3.36664485410999
 31
0.0
  0
LINE
  5
DB
  8
DIMENSIONS
  6
CONTINUOUS
 62
    93
 10
-4.697486587327659
 20
-4.015937849627534
 30
0.0
 11
-4.657034820457853
 21
-3.935034315887922
 31
0.0
  0
LINE
  5
DC
  8
DIMENSIONS
  6
CONTINUOUS
 62
    93
 10
-4.696362927136831
 20
-4.014814189436706
 30
0.0
 11
-4.71321782999925
 21
-3.931663335315438
 31
0.0
  0
TEXT
  5
DD
  8
DIMENSIONS
  6
CONTINUOUS
 62
    93
 10
-6.160022007895869
 20
-0.1842054184914328
 30
0.0
 40
0.125
  1
BORE DOWEL HOLES
  7
ENGINEER
  0
TEXT
  5
DE
  8
DIMENSIONS
  6
CONTINUOUS
 62
    93
 10
-6.160022007895869
 20
-0.3717054184914328
 30
0.0
 40
0.125
  1
.5512" FOR 14mm DWL
  7
ENGINEER
  0
TEXT
  5
DF
  8
DIMENSIONS
  6
CONTINUOUS
 62
    93
 10
-6.160022007895869
 20
-0.5592054184914328
 30
0.0
 40
0.125
  1
2 X
  7
ENGINEER
  0
LINE
  5
E0
  8
DIMENSIONS
  6
CONTINUOUS
 62
    93
 10
5.557347725815248
 20
1.579239947934579
 30
0.0
 11
5.421137084795897
 21
1.432793161445091
 31
0.0
  0
LINE
  5
E1
  8
DIMENSIONS
  6
CONTINUOUS
 62
    93
 10
5.557347725815248
 20
1.579239947934579
 30
0.0
 11
5.366162457181984
 21
1.520518631041762
 31
0.0
  0
LINE
  5
E2
  8
DIMENSIONS
  6
CONTINUOUS
 62
    93
 10
5.557347725815248
 20
1.579239947934579
 30
0.0
 11
4.412065734654374
 21
0.8615299001404315
 31
0.0
  0
LINE
  5
E3
  8
DIMENSIONS
  6
CONTINUOUS
 62
    93
 10
4.412065734654374
 20
0.8615299001404315
 30
0.0
 11
4.662065734654374
 21
0.8615299001404316
 31
0.0
  0
TEXT
  5
E4
  8
DIMENSIONS
  6
CONTINUOUS
 62
    93
 10
4.724565734654374
 20
0.7990299001404316
 30
0.0
 40
0.125
  1
DRILL 33/64"
  7
ENGINEER
  0
LINE
  5
E5
  8
DIMENSIONS
  6
CONTINUOUS
 62
    93
 10
-2.235907308274808
 20
6.115551709756046
 30
0.0
 11
-2.297992335171363
 21
5.925432143600287
 31
0.0
  0
LINE
  5
E6
  8
DIMENSIONS
  6
CONTINUOUS
 62
    93
 10
-2.235907308274808
 20
6.115551709756046
 30
0.0
 11
-2.384734301839744
 21
5.98194584915696
 31
0.0
  0
LINE
  5
E7
  8
DIMENSIONS
  6
CONTINUOUS
 62
    93
 10
-2.235907308274808
 20
6.115551709756046
 30
0.0
 11
-2.549622801969854
 21
5.63403490547993
 31
0.0
  0
LINE
  5
E8
  8
DIMENSIONS
  6
CONTINUOUS
 62
    93
 10
-2.549622801969854
 20
5.63403490547993
 30
0.0
 11
-2.299622801969854
 21
5.63403490547993
 31
0.0
  0
TEXT
  5
E9
  8
DIMENSIONS
  6
CONTINUOUS
 62
    93
 10
-2.237122801969854
 20
5.57153490547993
 30
0.0
 40
0.125
  1
DRILL 7/16"
  7
ENGINEER
  0
LINE
  5
EA
  8
DIMENSIONS
  6
CONTINUOUS
 62
    93
 10
0.0
 20
0.0
 30
0.0
 11
0.1931851652578137
 21
0.0517638090205041
 31
0.0
  0
LINE
  5
EB
  8
DIMENSIONS
  6
CONTINUOUS
 62
    93
 10
0.0
 20
0.0
 30
0.0
 11
0.1931851652578137
 21
-0.0517638090205041
 31
0.0
  0
LINE
  5
EC
  8
DIMENSIONS
  6
CONTINUOUS
 62
    93
 10
0.0
 20
0.0
 30
0.0
 11
0.0
 21
0.0
 31
0.0
  0
LINE
  5
ED
  8
DIMENSIONS
  6
CONTINUOUS
 62
    93
 10
0.0
 20
0.0
 30
0.0
 11
0.0
 21
0.0
 31
0.0
  0
LINE
  5
EE
  8
DIMENSIONS
  6
CONTINUOUS
 62
    93
 10
2.039378256964638
 20
6.100960291444648
 30
0.0
 11
1.95826204777555
 21
5.918148473974354
 31
0.0
  0
LINE
  5
EF
  8
DIMENSIONS
  6
CONTINUOUS
 62
    93
 10
2.039378256964638
 20
6.100960291444648
 30
0.0
 11
1.877723650413048
 21
5.983198717997913
 31
0.0
  0
LINE
  5
F0
  8
DIMENSIONS
  6
CONTINUOUS
 62
    93
 10
2.039378256964638
 20
6.100960291444648
 30
0.0
 11
1.732958472425292
 21
5.721583415348315
 31
0.0
  0
LINE
  5
F1
  8
DIMENSIONS
  6
CONTINUOUS
 62
    93
 10
1.732958472425292
 20
5.721583415348315
 30
0.0
 11
1.982958472425292
 21
5.721583415348315
 31
0.0
  0
TEXT
  5
F2
  8
DIMENSIONS
  6
CONTINUOUS
 62
    93
 10
2.045458472425292
 20
5.659083415348315
 30
0.0
 40
0.125
  1
DRILL 7/16"
  7
ENGINEER
  0
TEXT
  5
F3
  8
DIMENSIONS
  6
CONTINUOUS
 62
    93
 10
-0.6075048417689608
 20
6.404888858223512
 30
0.0
 40
0.2
  1
TOP 
  7
ENGINEER
  0
TEXT
  5
F4
  8
DIMENSIONS
  6
CONTINUOUS
 62
    93
 10
-1.237108549373071
 20
6.104888858223513
 30
0.0
 40
0.2
  1
MOTOR SIDE
  7
ENGINEER
  0
ENDSEC
  0
EOF
