  0
SECTION
  2
HEADER
  9
$ACADVER
  1
AC1015
  9
$ACADMAINTVER
 70
     6
  9
$DWGCODEPAGE
  3
ANSI_1252
  9
$INSBASE
 10
0.0
 20
0.0
 30
0.0
  9
$EXTMIN
 10
0.7419351648365433
 20
0.7012331790739194
 30
0.0
  9
$EXTMAX
 10
13.62707516513209
 20
9.490615157050854
 30
0.0
  9
$LIMMIN
 10
0.0
 20
0.0
  9
$LIMMAX
 10
12.0
 20
9.0
  9
$ORTHOMODE
 70
     0
  9
$REGENMODE
 70
     1
  9
$FILLMODE
 70
     1
  9
$QTEXTMODE
 70
     0
  9
$MIRRTEXT
 70
     1
  9
$LTSCALE
 40
1.0
  9
$ATTMODE
 70
     1
  9
$TEXTSIZE
 40
0.2
  9
$TRACEWID
 40
0.05
  9
$TEXTSTYLE
  7
Standard
  9
$CLAYER
  8
0
  9
$CELTYPE
  6
ByLayer
  9
$CECOLOR
 62
   256
  9
$CELTSCALE
 40
1.0
  9
$DISPSILH
 70
     0
  9
$DIMSCALE
 40
1.0
  9
$DIMASZ
 40
0.18
  9
$DIMEXO
 40
0.0625
  9
$DIMDLI
 40
0.38
  9
$DIMRND
 40
0.0
  9
$DIMDLE
 40
0.0
  9
$DIMEXE
 40
0.18
  9
$DIMTP
 40
0.0
  9
$DIMTM
 40
0.0
  9
$DIMTXT
 40
0.18
  9
$DIMCEN
 40
0.09
  9
$DIMTSZ
 40
0.0
  9
$DIMTOL
 70
     0
  9
$DIMLIM
 70
     0
  9
$DIMTIH
 70
     1
  9
$DIMTOH
 70
     1
  9
$DIMSE1
 70
     0
  9
$DIMSE2
 70
     0
  9
$DIMTAD
 70
     0
  9
$DIMZIN
 70
     0
  9
$DIMBLK
  1

  9
$DIMASO
 70
     1
  9
$DIMSHO
 70
     1
  9
$DIMPOST
  1

  9
$DIMAPOST
  1

  9
$DIMALT
 70
     0
  9
$DIMALTD
 70
     2
  9
$DIMALTF
 40
25.4
  9
$DIMLFAC
 40
1.0
  9
$DIMTOFL
 70
     0
  9
$DIMTVP
 40
0.0
  9
$DIMTIX
 70
     0
  9
$DIMSOXD
 70
     0
  9
$DIMSAH
 70
     0
  9
$DIMBLK1
  1

  9
$DIMBLK2
  1

  9
$DIMSTYLE
  2
Standard
  9
$DIMCLRD
 70
     0
  9
$DIMCLRE
 70
     0
  9
$DIMCLRT
 70
     0
  9
$DIMTFAC
 40
1.0
  9
$DIMGAP
 40
0.09
  9
$DIMJUST
 70
     0
  9
$DIMSD1
 70
     0
  9
$DIMSD2
 70
     0
  9
$DIMTOLJ
 70
     1
  9
$DIMTZIN
 70
     0
  9
$DIMALTZ
 70
     0
  9
$DIMALTTZ
 70
     0
  9
$DIMUPT
 70
     0
  9
$DIMDEC
 70
     4
  9
$DIMTDEC
 70
     4
  9
$DIMALTU
 70
     2
  9
$DIMALTTD
 70
     2
  9
$DIMTXSTY
  7
Standard
  9
$DIMAUNIT
 70
     0
  9
$DIMADEC
 70
     0
  9
$DIMALTRND
 40
0.0
  9
$DIMAZIN
 70
     0
  9
$DIMDSEP
 70
    46
  9
$DIMATFIT
 70
     3
  9
$DIMFRAC
 70
     0
  9
$DIMLDRBLK
  1

  9
$DIMLUNIT
 70
     2
  9
$DIMLWD
 70
    -2
  9
$DIMLWE
 70
    -2
  9
$DIMTMOVE
 70
     0
  9
$LUNITS
 70
     2
  9
$LUPREC
 70
     4
  9
$SKETCHINC
 40
0.1
  9
$FILLETRAD
 40
0.5
  9
$AUNITS
 70
     0
  9
$AUPREC
 70
     0
  9
$MENU
  1
.
  9
$ELEVATION
 40
0.0
  9
$PELEVATION
 40
0.0
  9
$THICKNESS
 40
0.0
  9
$LIMCHECK
 70
     0
  9
$CHAMFERA
 40
0.5
  9
$CHAMFERB
 40
0.5
  9
$CHAMFERC
 40
1.0
  9
$CHAMFERD
 40
0.0
  9
$SKPOLY
 70
     0
  9
$TDCREATE
 40
2455002.649096689
  9
$TDUCREATE
 40
2455002.940763356
  9
$TDUPDATE
 40
2455002.649762233
  9
$TDUUPDATE
 40
2455002.941428900
  9
$TDINDWG
 40
0.0006656597
  9
$TDUSRTIMER
 40
0.0006656597
  9
$USRTIMER
 70
     1
  9
$ANGBASE
 50
0.0
  9
$ANGDIR
 70
     0
  9
$PDMODE
 70
     0
  9
$PDSIZE
 40
0.0
  9
$PLINEWID
 40
0.0
  9
$SPLFRAME
 70
     0
  9
$SPLINETYPE
 70
     6
  9
$SPLINESEGS
 70
     8
  9
$HANDSEED
  5
1C2
  9
$SURFTAB1
 70
     6
  9
$SURFTAB2
 70
     6
  9
$SURFTYPE
 70
     6
  9
$SURFU
 70
     6
  9
$SURFV
 70
     6
  9
$UCSBASE
  2

  9
$UCSNAME
  2

  9
$UCSORG
 10
0.0
 20
0.0
 30
0.0
  9
$UCSXDIR
 10
1.0
 20
0.0
 30
0.0
  9
$UCSYDIR
 10
0.0
 20
1.0
 30
0.0
  9
$UCSORTHOREF
  2

  9
$UCSORTHOVIEW
 70
     0
  9
$UCSORGTOP
 10
0.0
 20
0.0
 30
0.0
  9
$UCSORGBOTTOM
 10
0.0
 20
0.0
 30
0.0
  9
$UCSORGLEFT
 10
0.0
 20
0.0
 30
0.0
  9
$UCSORGRIGHT
 10
0.0
 20
0.0
 30
0.0
  9
$UCSORGFRONT
 10
0.0
 20
0.0
 30
0.0
  9
$UCSORGBACK
 10
0.0
 20
0.0
 30
0.0
  9
$PUCSBASE
  2

  9
$PUCSNAME
  2

  9
$PUCSORG
 10
0.0
 20
0.0
 30
0.0
  9
$PUCSXDIR
 10
1.0
 20
0.0
 30
0.0
  9
$PUCSYDIR
 10
0.0
 20
1.0
 30
0.0
  9
$PUCSORTHOREF
  2

  9
$PUCSORTHOVIEW
 70
     0
  9
$PUCSORGTOP
 10
0.0
 20
0.0
 30
0.0
  9
$PUCSORGBOTTOM
 10
0.0
 20
0.0
 30
0.0
  9
$PUCSORGLEFT
 10
0.0
 20
0.0
 30
0.0
  9
$PUCSORGRIGHT
 10
0.0
 20
0.0
 30
0.0
  9
$PUCSORGFRONT
 10
0.0
 20
0.0
 30
0.0
  9
$PUCSORGBACK
 10
0.0
 20
0.0
 30
0.0
  9
$USERI1
 70
     0
  9
$USERI2
 70
     0
  9
$USERI3
 70
     0
  9
$USERI4
 70
     0
  9
$USERI5
 70
     0
  9
$USERR1
 40
0.0
  9
$USERR2
 40
0.0
  9
$USERR3
 40
0.0
  9
$USERR4
 40
0.0
  9
$USERR5
 40
0.0
  9
$WORLDVIEW
 70
     1
  9
$SHADEDGE
 70
     3
  9
$SHADEDIF
 70
    70
  9
$TILEMODE
 70
     1
  9
$MAXACTVP
 70
    64
  9
$PINSBASE
 10
0.0
 20
0.0
 30
0.0
  9
$PLIMCHECK
 70
     0
  9
$PEXTMIN
 10
1.000000000000000E+20
 20
1.000000000000000E+20
 30
1.000000000000000E+20
  9
$PEXTMAX
 10
-1.000000000000000E+20
 20
-1.000000000000000E+20
 30
-1.000000000000000E+20
  9
$PLIMMIN
 10
0.0
 20
0.0
  9
$PLIMMAX
 10
12.0
 20
9.0
  9
$UNITMODE
 70
     0
  9
$VISRETAIN
 70
     1
  9
$PLINEGEN
 70
     0
  9
$PSLTSCALE
 70
     1
  9
$TREEDEPTH
 70
  3020
  9
$CMLSTYLE
  2
Standard
  9
$CMLJUST
 70
     0
  9
$CMLSCALE
 40
1.0
  9
$PROXYGRAPHICS
 70
     1
  9
$MEASUREMENT
 70
     0
  9
$CELWEIGHT
370
    -1
  9
$ENDCAPS
280
     0
  9
$JOINSTYLE
280
     0
  9
$LWDISPLAY
290
     0
  9
$INSUNITS
 70
     1
  9
$HYPERLINKBASE
  1

  9
$STYLESHEET
  1

  9
$XEDIT
290
     1
  9
$CEPSNTYPE
380
     0
  9
$PSTYLEMODE
290
     1
  9
$FINGERPRINTGUID
  2
{5A8D4ABB-7740-4E7D-809E-FAFE50714C22}
  9
$VERSIONGUID
  2
{32054B9F-4E4C-46DF-B83E-7DA93504D535}
  9
$EXTNAMES
290
     1
  9
$PSVPSCALE
 40
0.0
  9
$OLESTARTUP
290
     0
  0
ENDSEC
  0
SECTION
  2
CLASSES
  0
CLASS
  1
ACDBDICTIONARYWDFLT
  2
AcDbDictionaryWithDefault
  3
AutoCAD 2000
 90
        0
280
     0
281
     0
  0
CLASS
  1
ACDBPLACEHOLDER
  2
AcDbPlaceHolder
  3
AutoCAD 2000
 90
        0
280
     0
281
     0
  0
CLASS
  1
LAYOUT
  2
AcDbLayout
  3
AutoCAD 2000
 90
        0
280
     0
281
     0
  0
ENDSEC
  0
SECTION
  2
TABLES
  0
TABLE
  2
VPORT
  5
8
330
0
100
AcDbSymbolTable
 70
     3
  0
VPORT
  5
1C1
330
8
100
AcDbSymbolTableRecord
100
AcDbViewportTableRecord
  2
*Active
 70
     0
 10
0.0
 20
0.0
 11
1.0
 21
1.0
 12
7.66161616161616
 22
4.5
 13
0.0
 23
0.0
 14
0.5
 24
0.5
 15
0.5
 25
0.5
 16
0.0
 26
0.0
 36
1.0
 17
0.0
 27
0.0
 37
0.0
 40
9.838129353758146
 41
1.621149897330595
 42
50.0
 43
0.0
 44
0.0
 50
0.0
 51
0.0
 71
     0
 72
   100
 73
     1
 74
     3
 75
     0
 76
     0
 77
     0
 78
     0
281
     0
 65
     1
110
0.0
120
0.0
130
0.0
111
1.0
121
0.0
131
0.0
112
0.0
122
1.0
132
0.0
 79
     0
146
0.0
  0
ENDTAB
  0
TABLE
  2
LTYPE
  5
5
330
0
100
AcDbSymbolTable
 70
     3
  0
LTYPE
  5
14
330
5
100
AcDbSymbolTableRecord
100
AcDbLinetypeTableRecord
  2
ByBlock
 70
     0
  3

 72
    65
 73
     0
 40
0.0
  0
LTYPE
  5
15
330
5
100
AcDbSymbolTableRecord
100
AcDbLinetypeTableRecord
  2
ByLayer
 70
     0
  3

 72
    65
 73
     0
 40
0.0
  0
LTYPE
  5
16
330
5
100
AcDbSymbolTableRecord
100
AcDbLinetypeTableRecord
  2
Continuous
 70
     0
  3
Solid line
 72
    65
 73
     0
 40
0.0
  0
LTYPE
  5
F5
330
5
100
AcDbSymbolTableRecord
100
AcDbLinetypeTableRecord
  2
CENTERD
 70
     0
  3
_____ _ _____ _____ _ _____.
 72
    65
 73
     4
 40
0.4844000000000001
 49
0.2969
 74
     0
 49
-0.0625
 74
     0
 49
0.0625
 74
     0
 49
-0.0625
 74
     0
  0
LTYPE
  5
F6
330
5
100
AcDbSymbolTableRecord
100
AcDbLinetypeTableRecord
  2
CONTOURD
 70
     0
  3
_______ _______ _______ _______.
 72
    65
 73
     2
 40
0.4688
 49
0.4063
 74
     0
 49
-0.0625
 74
     0
  0
ENDTAB
  0
TABLE
  2
LAYER
  5
2
330
0
100
AcDbSymbolTable
 70
     4
  0
LAYER
  5
10
330
2
100
AcDbSymbolTableRecord
100
AcDbLayerTableRecord
  2
0
 70
     0
 62
     7
  6
Continuous
370
    -3
390
F
  0
LAYER
  5
F7
330
2
100
AcDbSymbolTableRecord
100
AcDbLayerTableRecord
  2
DIMS
 70
     0
 62
     7
  6
Continuous
370
    -3
390
F
  0
LAYER
  5
F8
330
2
100
AcDbSymbolTableRecord
100
AcDbLayerTableRecord
  2
CENTERLINES
 70
     0
 62
     7
  6
Continuous
370
    -3
390
F
  0
LAYER
  5
F9
330
2
100
AcDbSymbolTableRecord
100
AcDbLayerTableRecord
  2
HUB
 70
     0
 62
     7
  6
Continuous
370
    -3
390
F
  0
ENDTAB
  0
TABLE
  2
STYLE
  5
3
330
0
100
AcDbSymbolTable
 70
     4
  0
STYLE
  5
11
330
3
100
AcDbSymbolTableRecord
100
AcDbTextStyleTableRecord
  2
Standard
 70
     0
 40
0.0
 41
1.0
 50
0.0
 71
     0
 42
0.2
  3
txt
  4

  0
STYLE
  5
FA
330
3
100
AcDbSymbolTableRecord
100
AcDbTextStyleTableRecord
  2
ENGINEER
 70
     0
 40
0.2
 41
1.0
 50
0.0
 71
     0
 42
0.2
  3

  4

1001
ACAD
1000
ENGINEER
1071
       34
  0
STYLE
  5
FB
330
3
100
AcDbSymbolTableRecord
100
AcDbTextStyleTableRecord
  2
AEC_TECH
 70
     0
 40
0.125
 41
1.0
 50
0.0
 71
     0
 42
0.2
  3

  4

1001
ACAD
1000
AEC_TECH
1071
       34
  0
STYLE
  5
FC
330
3
100
AcDbSymbolTableRecord
100
AcDbTextStyleTableRecord
  2
MAIN
 70
     0
 40
0.2
 41
1.0
 50
0.0
 71
     0
 42
0.2
  3

  4

1001
ACAD
1000
MAIN
1071
       34
  0
ENDTAB
  0
TABLE
  2
VIEW
  5
6
330
0
100
AcDbSymbolTable
 70
     0
  0
ENDTAB
  0
TABLE
  2
UCS
  5
7
330
0
100
AcDbSymbolTable
 70
     0
  0
ENDTAB
  0
TABLE
  2
APPID
  5
9
330
0
100
AcDbSymbolTable
 70
     1
  0
APPID
  5
12
330
9
100
AcDbSymbolTableRecord
100
AcDbRegAppTableRecord
  2
ACAD
 70
     0
  0
ENDTAB
  0
TABLE
  2
DIMSTYLE
  5
A
330
0
100
AcDbSymbolTable
 70
     7
100
AcDbDimStyleTable
 71
     0
  0
DIMSTYLE
105
27
330
A
100
AcDbSymbolTableRecord
100
AcDbDimStyleTableRecord
  2
Standard
 70
     0
340
11
  0
DIMSTYLE
105
FD
102
{ACAD_REACTORS
330
173
102
}
330
A
100
AcDbSymbolTableRecord
100
AcDbDimStyleTableRecord
  2
DimStyle1
 70
     0
 41
0.15
 42
0.07
 44
0.05
 47
1.0
 48
1.0
 73
     0
 74
     0
 78
     4
 79
     1
140
0.125
147
0.1
176
     1
177
     1
178
     1
179
     3
271
     3
340
FB
  0
DIMSTYLE
105
FE
102
{ACAD_REACTORS
330
15F
330
113
330
112
102
}
330
A
100
AcDbSymbolTableRecord
100
AcDbDimStyleTableRecord
  2
DimStyle2
 70
     0
 41
0.15
 42
0.07
 44
0.05
 47
1.0
 48
1.0
 78
     4
 79
     1
140
0.125
147
0.1
176
     1
177
     1
178
     1
179
     3
271
     3
340
FB
  0
DIMSTYLE
105
FF
102
{ACAD_REACTORS
330
10F
102
}
330
A
100
AcDbSymbolTableRecord
100
AcDbDimStyleTableRecord
  2
DimStyle3
 70
     0
 41
0.15
 42
0.07
 44
0.05
 48
0.002
 78
     4
 79
     1
140
0.125
147
0.1
176
     1
177
     1
178
     1
179
     3
271
     3
340
FB
  0
DIMSTYLE
105
100
102
{ACAD_REACTORS
330
178
330
110
330
15E
102
}
330
A
100
AcDbSymbolTableRecord
100
AcDbDimStyleTableRecord
  2
DimStyle4
 70
     0
 41
0.15
 42
0.07
 44
0.05
 47
1.0
 48
1.0
 78
     4
 79
     1
140
0.125
147
0.1
176
     1
177
     1
178
     1
179
     2
271
     2
340
FB
  0
DIMSTYLE
105
101
102
{ACAD_REACTORS
330
15C
330
15B
330
15A
102
}
330
A
100
AcDbSymbolTableRecord
100
AcDbDimStyleTableRecord
  2
DimStyle5
 70
     0
 41
0.15
 42
0.07
 44
0.05
 47
1.0
 48
1.0
 73
     0
 74
     0
 78
     4
 79
     1
140
0.125
147
0.1
176
     1
177
     1
178
     1
179
     2
271
     2
340
FB
  0
DIMSTYLE
105
102
102
{ACAD_REACTORS
330
115
330
122
330
11D
330
128
330
12B
330
114
102
}
330
A
100
AcDbSymbolTableRecord
100
AcDbDimStyleTableRecord
  2
DimStyle6
 70
     0
 41
0.15
 42
0.07
 44
0.05
 47
1.0
 48
1.0
 78
     4
 79
     1
140
0.125
147
0.1
176
     1
177
     1
178
     1
179
     1
271
     1
340
FB
  0
ENDTAB
  0
TABLE
  2
BLOCK_RECORD
  5
1
330
0
100
AcDbSymbolTable
 70
    19
  0
BLOCK_RECORD
  5
1F
330
1
100
AcDbSymbolTableRecord
100
AcDbBlockTableRecord
  2
*Model_Space
340
22
  0
BLOCK_RECORD
  5
1B
330
1
100
AcDbSymbolTableRecord
100
AcDbBlockTableRecord
  2
*Paper_Space
340
1E
  0
BLOCK_RECORD
  5
23
330
1
100
AcDbSymbolTableRecord
100
AcDbBlockTableRecord
  2
*Paper_Space0
340
26
  0
BLOCK_RECORD
  5
2B
330
1
100
AcDbSymbolTableRecord
100
AcDbBlockTableRecord
  2
_D1
340
0
  0
BLOCK_RECORD
  5
37
330
1
100
AcDbSymbolTableRecord
100
AcDbBlockTableRecord
  2
_D2
340
0
  0
BLOCK_RECORD
  5
43
330
1
100
AcDbSymbolTableRecord
100
AcDbBlockTableRecord
  2
_D3
340
0
  0
BLOCK_RECORD
  5
51
330
1
100
AcDbSymbolTableRecord
100
AcDbBlockTableRecord
  2
_D4
340
0
  0
BLOCK_RECORD
  5
5D
330
1
100
AcDbSymbolTableRecord
100
AcDbBlockTableRecord
  2
_D5
340
0
  0
BLOCK_RECORD
  5
69
330
1
100
AcDbSymbolTableRecord
100
AcDbBlockTableRecord
  2
_D6
340
0
  0
BLOCK_RECORD
  5
75
330
1
100
AcDbSymbolTableRecord
100
AcDbBlockTableRecord
  2
_D7
340
0
  0
BLOCK_RECORD
  5
81
330
1
100
AcDbSymbolTableRecord
100
AcDbBlockTableRecord
  2
_D8
340
0
  0
BLOCK_RECORD
  5
8D
330
1
100
AcDbSymbolTableRecord
100
AcDbBlockTableRecord
  2
_D9
340
0
  0
BLOCK_RECORD
  5
99
330
1
100
AcDbSymbolTableRecord
100
AcDbBlockTableRecord
  2
_D10
340
0
  0
BLOCK_RECORD
  5
A5
330
1
100
AcDbSymbolTableRecord
100
AcDbBlockTableRecord
  2
_D11
340
0
  0
BLOCK_RECORD
  5
B1
330
1
100
AcDbSymbolTableRecord
100
AcDbBlockTableRecord
  2
_D12
340
0
  0
BLOCK_RECORD
  5
BD
330
1
100
AcDbSymbolTableRecord
100
AcDbBlockTableRecord
  2
_D13
340
0
  0
BLOCK_RECORD
  5
C9
330
1
100
AcDbSymbolTableRecord
100
AcDbBlockTableRecord
  2
_D14
340
0
  0
BLOCK_RECORD
  5
D3
330
1
100
AcDbSymbolTableRecord
100
AcDbBlockTableRecord
  2
_D15
340
0
  0
BLOCK_RECORD
  5
DD
330
1
100
AcDbSymbolTableRecord
100
AcDbBlockTableRecord
  2
_D16
340
0
  0
BLOCK_RECORD
  5
E9
330
1
100
AcDbSymbolTableRecord
100
AcDbBlockTableRecord
  2
_D17
340
0
  0
BLOCK_RECORD
  5
103
330
1
100
AcDbSymbolTableRecord
100
AcDbBlockTableRecord
  2
A$C78A7205E
340
0
102
{BLKREFS
331
1C0
102
}
  0
ENDTAB
  0
ENDSEC
  0
SECTION
  2
BLOCKS
  0
BLOCK
  5
20
330
1F
100
AcDbEntity
  8
0
100
AcDbBlockBegin
  2
*Model_Space
 70
     0
 10
0.0
 20
0.0
 30
0.0
  3
*Model_Space
  1

  0
ENDBLK
  5
21
330
1F
100
AcDbEntity
  8
0
100
AcDbBlockEnd
  0
BLOCK
  5
1C
330
1B
100
AcDbEntity
 67
     1
  8
0
100
AcDbBlockBegin
  2
*Paper_Space
 70
     0
 10
0.0
 20
0.0
 30
0.0
  3
*Paper_Space
  1

  0
ENDBLK
  5
1D
330
1B
100
AcDbEntity
 67
     1
  8
0
100
AcDbBlockEnd
  0
BLOCK
  5
24
330
23
100
AcDbEntity
  8
0
100
AcDbBlockBegin
  2
*Paper_Space0
 70
     0
 10
0.0
 20
0.0
 30
0.0
  3
*Paper_Space0
  1

  0
ENDBLK
  5
25
330
23
100
AcDbEntity
  8
0
100
AcDbBlockEnd
  0
BLOCK
  5
35
330
2B
100
AcDbEntity
  8
0
100
AcDbBlockBegin
  2
_D1
 70
     0
 10
0.0
 20
0.0
 30
0.0
  3
_D1
  1

  0
LINE
  5
2C
330
2B
100
AcDbEntity
  8
DIMS
  6
Continuous
 62
     1
370
     0
100
AcDbLine
 10
9.08147536977122
 20
3.342576649771657
 30
0.0
 11
9.226364243714581
 21
3.381399506537035
 31
0.0
  0
LINE
  5
2D
330
2B
100
AcDbEntity
  8
DIMS
  6
Continuous
 62
     1
370
     0
100
AcDbLine
 10
9.08147536977122
 20
3.342576649771657
 30
0.0
 11
9.226364243714581
 21
3.303753793006278
 31
0.0
  0
LINE
  5
2E
330
2B
100
AcDbEntity
  8
DIMS
  6
Continuous
 62
     1
370
     0
100
AcDbLine
 10
10.45647536977122
 20
3.342576649771657
 30
0.0
 11
10.31158649582786
 21
3.303753793006278
 31
0.0
  0
LINE
  5
2F
330
2B
100
AcDbEntity
  8
DIMS
  6
Continuous
 62
     1
370
     0
100
AcDbLine
 10
10.45647536977122
 20
3.342576649771657
 30
0.0
 11
10.31158649582786
 21
3.381399506537035
 31
0.0
  0
LINE
  5
30
330
2B
100
AcDbEntity
  8
DIMS
  6
Continuous
 62
     1
370
     0
100
AcDbLine
 10
9.08147536977122
 20
3.663178108234852
 30
0.0
 11
9.08147536977122
 21
3.292576649771656
 31
0.0
  0
LINE
  5
31
330
2B
100
AcDbEntity
  8
DIMS
  6
Continuous
 62
     1
370
     0
100
AcDbLine
 10
10.45647536977122
 20
3.800676963825678
 30
0.0
 11
10.45647536977122
 21
3.292576649771656
 31
0.0
  0
TEXT
  5
32
330
2B
100
AcDbEntity
  8
DIMS
  6
Continuous
 62
     1
370
     0
100
AcDbText
 10
9.55436020510341
 20
3.280076649771657
 30
0.0
 40
0.125
  1
1.375
 50
360.0
  7
AEC_TECH
100
AcDbText
  0
LINE
  5
33
330
2B
100
AcDbEntity
  8
DIMS
  6
Continuous
 62
     1
370
     0
100
AcDbLine
 10
9.08147536977122
 20
3.342576649771657
 30
0.0
 11
9.504360205103411
 21
3.342576649771657
 31
0.0
  0
LINE
  5
34
330
2B
100
AcDbEntity
  8
DIMS
  6
Continuous
 62
     1
370
     0
100
AcDbLine
 10
10.03359053443902
 20
3.342576649771657
 30
0.0
 11
10.45647536977122
 21
3.342576649771657
 31
0.0
  0
ENDBLK
  5
36
330
2B
100
AcDbEntity
  8
0
100
AcDbBlockEnd
  0
BLOCK
  5
41
330
37
100
AcDbEntity
  8
0
100
AcDbBlockBegin
  2
_D2
 70
     0
 10
0.0
 20
0.0
 30
0.0
  3
_D2
  1

  0
LINE
  5
38
330
37
100
AcDbEntity
  8
DIMS
  6
Continuous
 62
     1
370
     0
100
AcDbLine
 10
11.85399856197132
 20
2.133176765034614
 30
0.0
 11
11.81517570520594
 21
2.278065638977973
 31
0.0
  0
LINE
  5
39
330
37
100
AcDbEntity
  8
DIMS
  6
Continuous
 62
     1
370
     0
100
AcDbLine
 10
11.85399856197132
 20
2.133176765034614
 30
0.0
 11
11.89282141873669
 21
2.278065638977973
 31
0.0
  0
LINE
  5
3A
330
37
100
AcDbEntity
  8
DIMS
  6
Continuous
 62
     1
370
     0
100
AcDbLine
 10
11.85399856197132
 20
3.733178108234851
 30
0.0
 11
11.89282141873669
 21
3.588289234291491
 31
0.0
  0
LINE
  5
3B
330
37
100
AcDbEntity
  8
DIMS
  6
Continuous
 62
     1
370
     0
100
AcDbLine
 10
11.85399856197132
 20
3.733178108234851
 30
0.0
 11
11.81517570520594
 21
3.588289234291491
 31
0.0
  0
LINE
  5
3C
330
37
100
AcDbEntity
  8
DIMS
  6
Continuous
 62
     1
370
     0
100
AcDbLine
 10
9.151475369771221
 20
2.133176765034614
 30
0.0
 11
11.90399856197132
 21
2.133176765034614
 31
0.0
  0
LINE
  5
3D
330
37
100
AcDbEntity
  8
DIMS
  6
Continuous
 62
     1
370
     0
100
AcDbLine
 10
9.151475369771221
 20
3.733178108234851
 30
0.0
 11
11.90399856197132
 21
3.733178108234851
 31
0.0
  0
TEXT
  5
3E
330
37
100
AcDbEntity
  8
DIMS
  6
Continuous
 62
     1
370
     0
100
AcDbText
 10
11.6206495040865
 20
2.870677436634732
 30
0.0
 40
0.125
  1
1.600
  7
AEC_TECH
100
AcDbText
  0
LINE
  5
3F
330
37
100
AcDbEntity
  8
DIMS
  6
Continuous
 62
     1
370
     0
100
AcDbLine
 10
11.85399856197132
 20
2.133176765034614
 30
0.0
 11
11.85399856197132
 21
2.820677436634733
 31
0.0
  0
LINE
  5
40
330
37
100
AcDbEntity
  8
DIMS
  6
Continuous
 62
     1
370
     0
100
AcDbLine
 10
11.85399856197132
 20
3.045677436634733
 30
0.0
 11
11.85399856197132
 21
3.733178108234851
 31
0.0
  0
ENDBLK
  5
42
330
37
100
AcDbEntity
  8
0
100
AcDbBlockEnd
  0
BLOCK
  5
4F
330
43
100
AcDbEntity
  8
0
100
AcDbBlockBegin
  2
_D3
 70
     0
 10
0.0
 20
0.0
 30
0.0
  3
_D3
  1

  0
LINE
  5
44
330
43
100
AcDbEntity
  8
DIMS
  6
Continuous
 62
     1
370
     0
100
AcDbLine
 10
6.663181247113351
 20
1.810181251331999
 30
0.0
 11
6.624358390347973
 21
1.955070125275359
 31
0.0
  0
LINE
  5
45
330
43
100
AcDbEntity
  8
DIMS
  6
Continuous
 62
     1
370
     0
100
AcDbLine
 10
6.663181247113351
 20
1.810181251331999
 30
0.0
 11
6.702004103878728
 21
1.955070125275359
 31
0.0
  0
LINE
  5
46
330
43
100
AcDbEntity
  8
DIMS
  6
Continuous
 62
     1
370
     0
100
AcDbLine
 10
6.663181247113351
 20
4.056181251331998
 30
0.0
 11
6.702004103878728
 21
3.911292377388638
 31
0.0
  0
LINE
  5
47
330
43
100
AcDbEntity
  8
DIMS
  6
Continuous
 62
     1
370
     0
100
AcDbLine
 10
6.663181247113351
 20
4.056181251331998
 30
0.0
 11
6.624358390347973
 21
3.911292377388638
 31
0.0
  0
LINE
  5
48
330
43
100
AcDbEntity
  8
DIMS
  6
Continuous
 62
     1
370
     0
100
AcDbLine
 10
8.099479184468483
 20
1.810181251331999
 30
0.0
 11
6.613181247113351
 21
1.810181251331999
 31
0.0
  0
LINE
  5
49
330
43
100
AcDbEntity
  8
DIMS
  6
Continuous
 62
     1
370
     0
100
AcDbLine
 10
8.099479184468483
 20
4.056181251331998
 30
0.0
 11
6.613181247113351
 21
4.056181251331998
 31
0.0
  0
TEXT
  5
4A
330
43
100
AcDbEntity
  8
DIMS
  6
Continuous
 62
     1
370
     0
100
AcDbText
 10
6.174222329201188
 20
2.870681251331998
 30
0.0
 40
0.125
  1
2.246
  7
AEC_TECH
100
AcDbText
  0
TEXT
  5
4B
330
43
100
AcDbEntity
  8
DIMS
  6
Continuous
 62
     1
370
     0
100
AcDbText
 10
6.6445435133021
 20
2.983181251331998
 30
0.0
 40
0.125
  1
+.000
  7
AEC_TECH
100
AcDbText
  0
TEXT
  5
4C
330
43
100
AcDbEntity
  8
DIMS
  6
Continuous
 62
     1
370
     0
100
AcDbText
 10
6.654722571019767
 20
2.758181251331999
 30
0.0
 40
0.125
  1
-.002
  7
AEC_TECH
100
AcDbText
  0
LINE
  5
4D
330
43
100
AcDbEntity
  8
DIMS
  6
Continuous
 62
     1
370
     0
100
AcDbLine
 10
6.663181247113351
 20
1.810181251331999
 30
0.0
 11
6.663181247113351
 21
2.758181251331999
 31
0.0
  0
LINE
  5
4E
330
43
100
AcDbEntity
  8
DIMS
  6
Continuous
 62
     1
370
     0
100
AcDbLine
 10
6.663181247113351
 20
3.108181251331998
 30
0.0
 11
6.663181247113351
 21
4.056181251331998
 31
0.0
  0
ENDBLK
  5
50
330
43
100
AcDbEntity
  8
0
100
AcDbBlockEnd
  0
BLOCK
  5
5B
330
51
100
AcDbEntity
  8
0
100
AcDbBlockBegin
  2
_D4
 70
     0
 10
0.0
 20
0.0
 30
0.0
  3
_D4
  1

  0
LINE
  5
52
330
51
100
AcDbEntity
  8
DIMS
  6
Continuous
 62
     1
370
     0
100
AcDbLine
 10
7.547639983615102
 20
2.433181251331999
 30
0.0
 11
7.508817126849724
 21
2.578070125275358
 31
0.0
  0
LINE
  5
53
330
51
100
AcDbEntity
  8
DIMS
  6
Continuous
 62
     1
370
     0
100
AcDbLine
 10
7.547639983615102
 20
2.433181251331999
 30
0.0
 11
7.586462840380482
 21
2.578070125275358
 31
0.0
  0
LINE
  5
54
330
51
100
AcDbEntity
  8
DIMS
  6
Continuous
 62
     1
370
     0
100
AcDbLine
 10
7.547639983615102
 20
3.433181251331998
 30
0.0
 11
7.586462840380482
 21
3.288292377388638
 31
0.0
  0
LINE
  5
55
330
51
100
AcDbEntity
  8
DIMS
  6
Continuous
 62
     1
370
     0
100
AcDbLine
 10
7.547639983615102
 20
3.433181251331998
 30
0.0
 11
7.508817126849724
 21
3.288292377388638
 31
0.0
  0
LINE
  5
56
330
51
100
AcDbEntity
  8
DIMS
  6
Continuous
 62
     1
370
     0
100
AcDbLine
 10
8.069479184468484
 20
2.433181251331999
 30
0.0
 11
7.497639983615103
 21
2.433181251331999
 31
0.0
  0
LINE
  5
57
330
51
100
AcDbEntity
  8
DIMS
  6
Continuous
 62
     1
370
     0
100
AcDbLine
 10
8.069479184468484
 20
3.433181251331998
 30
0.0
 11
7.497639983615103
 21
3.433181251331998
 31
0.0
  0
TEXT
  5
58
330
51
100
AcDbEntity
  8
DIMS
  6
Continuous
 62
     1
370
     0
100
AcDbText
 10
7.373446027155671
 20
2.870681251331998
 30
0.0
 40
0.125
  1
1.00
  7
AEC_TECH
100
AcDbText
  0
LINE
  5
59
330
51
100
AcDbEntity
  8
DIMS
  6
Continuous
 62
     1
370
     0
100
AcDbLine
 10
7.547639983615102
 20
2.433181251331999
 30
0.0
 11
7.547639983615102
 21
2.820681251331998
 31
0.0
  0
LINE
  5
5A
330
51
100
AcDbEntity
  8
DIMS
  6
Continuous
 62
     1
370
     0
100
AcDbLine
 10
7.547639983615102
 20
3.045681251331998
 30
0.0
 11
7.547639983615102
 21
3.433181251331998
 31
0.0
  0
ENDBLK
  5
5C
330
51
100
AcDbEntity
  8
0
100
AcDbBlockEnd
  0
BLOCK
  5
67
330
5D
100
AcDbEntity
  8
0
100
AcDbBlockBegin
  2
_D5
 70
     0
 10
0.0
 20
0.0
 30
0.0
  3
_D5
  1

  0
LINE
  5
5E
330
5D
100
AcDbEntity
  8
DIMS
  6
Continuous
 62
     1
370
     0
100
AcDbLine
 10
8.139479184468484
 20
4.904789592911546
 30
0.0
 11
8.284368058411844
 21
4.943612449676924
 31
0.0
  0
LINE
  5
5F
330
5D
100
AcDbEntity
  8
DIMS
  6
Continuous
 62
     1
370
     0
100
AcDbLine
 10
8.139479184468484
 20
4.904789592911546
 30
0.0
 11
8.284368058411844
 21
4.865966736146168
 31
0.0
  0
LINE
  5
60
330
5D
100
AcDbEntity
  8
DIMS
  6
Continuous
 62
     1
370
     0
100
AcDbLine
 10
8.968975369771216
 20
4.904789592911545
 30
0.0
 11
8.824086495827856
 21
4.865966736146166
 31
0.0
  0
LINE
  5
61
330
5D
100
AcDbEntity
  8
DIMS
  6
Continuous
 62
     1
370
     0
100
AcDbLine
 10
8.968975369771216
 20
4.904789592911545
 30
0.0
 11
8.824086495827856
 21
4.943612449676924
 31
0.0
  0
LINE
  5
62
330
5D
100
AcDbEntity
  8
DIMS
  6
Continuous
 62
     1
370
     0
100
AcDbLine
 10
8.139479184468484
 20
4.096181251331998
 30
0.0
 11
8.139479184468484
 21
4.954789592911545
 31
0.0
  0
LINE
  5
63
330
5D
100
AcDbEntity
  8
DIMS
  6
Continuous
 62
     1
370
     0
100
AcDbLine
 10
8.968975369771216
 20
4.253628524586393
 30
0.0
 11
8.968975369771216
 21
4.954789592911545
 31
0.0
  0
TEXT
  5
64
330
5D
100
AcDbEntity
  8
DIMS
  6
Continuous
 62
     1
370
     0
100
AcDbText
 10
8.429106477441102
 20
4.842289592911546
 30
0.0
 40
0.125
  1
.83
 50
359.9999999999998
  7
AEC_TECH
100
AcDbText
  0
LINE
  5
65
330
5D
100
AcDbEntity
  8
DIMS
  6
Continuous
 62
     1
370
     0
100
AcDbLine
 10
8.139479184468484
 20
4.904789592911546
 30
0.0
 11
8.379106477441103
 21
4.904789592911546
 31
0.0
  0
LINE
  5
66
330
5D
100
AcDbEntity
  8
DIMS
  6
Continuous
 62
     1
370
     0
100
AcDbLine
 10
8.729348076798599
 20
4.904789592911545
 30
0.0
 11
8.968975369771216
 21
4.904789592911545
 31
0.0
  0
ENDBLK
  5
68
330
5D
100
AcDbEntity
  8
0
100
AcDbBlockEnd
  0
BLOCK
  5
73
330
69
100
AcDbEntity
  8
0
100
AcDbBlockBegin
  2
_D6
 70
     0
 10
0.0
 20
0.0
 30
0.0
  3
_D6
  1

  0
LINE
  5
6A
330
69
100
AcDbEntity
  8
DIMS
  6
Continuous
 62
     1
370
     0
100
AcDbLine
 10
8.968975369771216
 20
5.222089707153748
 30
0.0
 11
8.824086495827856
 21
5.18326685038837
 31
0.0
  0
LINE
  5
6B
330
69
100
AcDbEntity
  8
DIMS
  6
Continuous
 62
     1
370
     0
100
AcDbLine
 10
8.968975369771216
 20
5.222089707153748
 30
0.0
 11
8.824086495827856
 21
5.260912563919128
 31
0.0
  0
LINE
  5
6C
330
69
100
AcDbEntity
  8
DIMS
  6
Continuous
 62
     1
370
     0
100
AcDbLine
 10
9.218975369771216
 20
5.222089707153748
 30
0.0
 11
9.36386424371458
 21
5.260912563919128
 31
0.0
  0
LINE
  5
6D
330
69
100
AcDbEntity
  8
DIMS
  6
Continuous
 62
     1
370
     0
100
AcDbLine
 10
9.218975369771216
 20
5.222089707153748
 30
0.0
 11
9.36386424371458
 21
5.18326685038837
 31
0.0
  0
LINE
  5
6E
330
69
100
AcDbEntity
  8
DIMS
  6
Continuous
 62
     1
370
     0
100
AcDbLine
 10
8.968975369771216
 20
4.253628524586393
 30
0.0
 11
8.968975369771216
 21
5.272089707153749
 31
0.0
  0
LINE
  5
6F
330
69
100
AcDbEntity
  8
DIMS
  6
Continuous
 62
     1
370
     0
100
AcDbLine
 10
9.218975369771216
 20
4.253628524586393
 30
0.0
 11
9.218975369771216
 21
5.272089707153749
 31
0.0
  0
TEXT
  5
70
330
69
100
AcDbEntity
  8
DIMS
  6
Continuous
 62
     1
370
     0
100
AcDbText
 10
9.535935186236876
 20
5.159589707153748
 30
0.0
 40
0.125
  1
.25
  7
AEC_TECH
100
AcDbText
  0
LINE
  5
71
330
69
100
AcDbEntity
  8
DIMS
  6
Continuous
 62
     1
370
     0
100
AcDbLine
 10
8.968975369771216
 20
5.222089707153748
 30
0.0
 11
8.668975369771217
 21
5.222089707153748
 31
0.0
  0
LINE
  5
72
330
69
100
AcDbEntity
  8
DIMS
  6
Continuous
 62
     1
370
     0
100
AcDbLine
 10
9.218975369771216
 20
5.222089707153748
 30
0.0
 11
9.51897536977122
 21
5.222089707153748
 31
0.0
  0
ENDBLK
  5
74
330
69
100
AcDbEntity
  8
0
100
AcDbBlockEnd
  0
BLOCK
  5
7F
330
75
100
AcDbEntity
  8
0
100
AcDbBlockBegin
  2
_D7
 70
     0
 10
0.0
 20
0.0
 30
0.0
  3
_D7
  1

  0
LINE
  5
76
330
75
100
AcDbEntity
  8
DIMS
  6
Continuous
 62
     1
370
     0
100
AcDbLine
 10
5.807778451826485
 20
1.682728971287443
 30
0.0
 11
5.768955595061107
 21
1.827617845230804
 31
0.0
  0
LINE
  5
77
330
75
100
AcDbEntity
  8
DIMS
  6
Continuous
 62
     1
370
     0
100
AcDbLine
 10
5.807778451826485
 20
1.682728971287443
 30
0.0
 11
5.846601308591862
 21
1.827617845230804
 31
0.0
  0
LINE
  5
78
330
75
100
AcDbEntity
  8
DIMS
  6
Continuous
 62
     1
370
     0
100
AcDbLine
 10
5.807778451826485
 20
4.183628524586393
 30
0.0
 11
5.846601308591862
 21
4.038739650643033
 31
0.0
  0
LINE
  5
79
330
75
100
AcDbEntity
  8
DIMS
  6
Continuous
 62
     1
370
     0
100
AcDbLine
 10
5.807778451826485
 20
4.183628524586393
 30
0.0
 11
5.768955595061107
 21
4.038739650643033
 31
0.0
  0
LINE
  5
7A
330
75
100
AcDbEntity
  8
DIMS
  6
Continuous
 62
     1
370
     0
100
AcDbLine
 10
8.898975369771216
 20
1.682728971287443
 30
0.0
 11
5.757778451826485
 21
1.682728971287444
 31
0.0
  0
LINE
  5
7B
330
75
100
AcDbEntity
  8
DIMS
  6
Continuous
 62
     1
370
     0
100
AcDbLine
 10
8.898975369771216
 20
4.183628524586393
 30
0.0
 11
5.757778451826485
 21
4.183628524586393
 31
0.0
  0
TEXT
  5
7C
330
75
100
AcDbEntity
  8
DIMS
  6
Continuous
 62
     1
370
     0
100
AcDbText
 10
5.626954234841486
 20
2.870678747936917
 30
0.0
 40
0.125
  1
2.50
  7
AEC_TECH
100
AcDbText
  0
LINE
  5
7D
330
75
100
AcDbEntity
  8
DIMS
  6
Continuous
 62
     1
370
     0
100
AcDbLine
 10
5.807778451826485
 20
1.682728971287443
 30
0.0
 11
5.807778451826485
 21
2.820678747936918
 31
0.0
  0
LINE
  5
7E
330
75
100
AcDbEntity
  8
DIMS
  6
Continuous
 62
     1
370
     0
100
AcDbLine
 10
5.807778451826485
 20
3.045678747936918
 30
0.0
 11
5.807778451826485
 21
4.183628524586393
 31
0.0
  0
ENDBLK
  5
80
330
75
100
AcDbEntity
  8
0
100
AcDbBlockEnd
  0
BLOCK
  5
8B
330
81
100
AcDbEntity
  8
0
100
AcDbBlockBegin
  2
_D8
 70
     0
 10
0.0
 20
0.0
 30
0.0
  3
_D8
  1

  0
LINE
  5
82
330
81
100
AcDbEntity
  8
DIMS
  6
Continuous
 62
     1
370
     0
100
AcDbLine
 10
3.125767610697379
 20
4.893067497723379
 30
0.0
 11
2.980878736754019
 21
4.854244640958001
 31
0.0
  0
LINE
  5
83
330
81
100
AcDbEntity
  8
DIMS
  6
Continuous
 62
     1
370
     0
100
AcDbLine
 10
3.125767610697379
 20
4.893067497723379
 30
0.0
 11
2.980878736754019
 21
4.931890354488757
 31
0.0
  0
LINE
  5
84
330
81
100
AcDbEntity
  8
DIMS
  6
Continuous
 62
     1
370
     0
100
AcDbLine
 10
1.428452306502063
 20
3.913122049946542
 30
0.0
 11
1.467275163267441
 21
4.058010923889903
 31
0.0
  0
LINE
  5
85
330
81
100
AcDbEntity
  8
DIMS
  6
Continuous
 62
     1
370
     0
100
AcDbLine
 10
1.428452306502063
 20
3.913122049946542
 30
0.0
 11
1.534518323680045
 21
4.019188067124524
 31
0.0
  0
LINE
  5
86
330
81
100
AcDbEntity
  8
DIMS
  6
Continuous
 62
     1
370
     0
100
AcDbLine
 10
3.125767610697379
 20
3.868176602169704
 30
0.0
 11
3.125767610697379
 21
4.943067497723379
 31
0.0
  0
LINE
  5
87
330
81
100
AcDbEntity
  8
DIMS
  6
Continuous
 62
     1
370
     0
100
AcDbLine
 10
2.316033858158935
 20
3.400676602169701
 30
0.0
 11
1.385151036312842
 21
3.938122049946542
 31
0.0
  0
TEXT
  5
88
330
81
100
AcDbEntity
  8
DIMS
  6
Continuous
 62
     1
370
     0
100
AcDbText
 10
1.949910734735443
 20
4.567991906365021
 30
0.0
 40
0.125
  1
60.0
  7
AEC_TECH
100
AcDbText
  0
ARC
  5
89
330
81
100
AcDbEntity
  8
DIMS
  6
Continuous
 62
     1
370
     0
100
AcDbCircle
 10
3.125767610697383
 20
2.933176602169691
 30
0.0
 40
1.959890895553686
100
AcDbArc
 50
90.0
 51
112.5677231901454
  0
ARC
  5
8A
330
81
100
AcDbEntity
  8
DIMS
  6
Continuous
 62
     1
370
     0
100
AcDbCircle
 10
3.125767610697384
 20
2.933176602169703
 30
0.0
 40
1.959890895553679
100
AcDbArc
 50
126.0382661811207
 51
150.0
  0
ENDBLK
  5
8C
330
81
100
AcDbEntity
  8
0
100
AcDbBlockEnd
  0
BLOCK
  5
97
330
8D
100
AcDbEntity
  8
0
100
AcDbBlockBegin
  2
_D9
 70
     0
 10
0.0
 20
0.0
 30
0.0
  3
_D9
  1

  0
LINE
  5
8E
330
8D
100
AcDbEntity
  8
DIMS
  6
Continuous
 62
     1
370
     0
100
AcDbLine
 10
1.428452306502063
 20
3.913122049946542
 30
0.0
 11
1.389629449736685
 21
3.768233176003181
 31
0.0
  0
LINE
  5
8F
330
8D
100
AcDbEntity
  8
DIMS
  6
Continuous
 62
     1
370
     0
100
AcDbLine
 10
1.428452306502063
 20
3.913122049946542
 30
0.0
 11
1.322386289324081
 21
3.807056032768561
 31
0.0
  0
LINE
  5
90
330
8D
100
AcDbEntity
  8
DIMS
  6
Continuous
 62
     1
370
     0
100
AcDbLine
 10
1.428452306502071
 20
1.95323115439285
 30
0.0
 11
1.322386289324089
 21
2.05929717157083
 31
0.0
  0
LINE
  5
91
330
8D
100
AcDbEntity
  8
DIMS
  6
Continuous
 62
     1
370
     0
100
AcDbLine
 10
1.428452306502071
 20
1.95323115439285
 30
0.0
 11
1.389629449736693
 21
2.09812002833621
 31
0.0
  0
LINE
  5
92
330
8D
100
AcDbEntity
  8
DIMS
  6
Continuous
 62
     1
370
     0
100
AcDbLine
 10
2.316033858158935
 20
3.400676602169701
 30
0.0
 11
1.385151036312842
 21
3.938122049946542
 31
0.0
  0
LINE
  5
93
330
8D
100
AcDbEntity
  8
DIMS
  6
Continuous
 62
     1
370
     0
100
AcDbLine
 10
2.316033858158944
 20
2.4656766021697
 30
0.0
 11
1.38515103631285
 21
1.928231154392849
 31
0.0
  0
TEXT
  5
94
330
8D
100
AcDbEntity
  8
DIMS
  6
Continuous
 62
     1
370
     0
100
AcDbText
 10
0.9699652869586035
 20
2.870676602169695
 30
0.0
 40
0.125
  1
60.0
  7
AEC_TECH
100
AcDbText
  0
ARC
  5
95
330
8D
100
AcDbEntity
  8
DIMS
  6
Continuous
 62
     1
370
     0
100
AcDbCircle
 10
3.125767610697379
 20
2.933176602169703
 30
0.0
 40
1.959890895553674
100
AcDbArc
 50
149.9999999999999
 51
176.7093473632139
  0
ARC
  5
96
330
8D
100
AcDbEntity
  8
DIMS
  6
Continuous
 62
     1
370
     0
100
AcDbCircle
 10
3.125767610697379
 20
2.933176602169703
 30
0.0
 40
1.959890895553675
100
AcDbArc
 50
183.2906526367865
 51
210.0000000000004
  0
ENDBLK
  5
98
330
8D
100
AcDbEntity
  8
0
100
AcDbBlockEnd
  0
BLOCK
  5
A3
330
99
100
AcDbEntity
  8
0
100
AcDbBlockBegin
  2
_D10
 70
     0
 10
0.0
 20
0.0
 30
0.0
  3
_D10
  1

  0
LINE
  5
9A
330
99
100
AcDbEntity
  8
DIMS
  6
Continuous
 62
     1
370
     0
100
AcDbLine
 10
1.428452306502071
 20
1.95323115439285
 30
0.0
 11
1.534518323680054
 21
1.847165137214868
 31
0.0
  0
LINE
  5
9B
330
99
100
AcDbEntity
  8
DIMS
  6
Continuous
 62
     1
370
     0
100
AcDbLine
 10
1.428452306502071
 20
1.95323115439285
 30
0.0
 11
1.46727516326745
 21
1.808342280449489
 31
0.0
  0
LINE
  5
9C
330
99
100
AcDbEntity
  8
DIMS
  6
Continuous
 62
     1
370
     0
100
AcDbLine
 10
3.125767610697379
 20
0.9732857066160267
 30
0.0
 11
2.980878736754019
 21
0.9344628498506486
 31
0.0
  0
LINE
  5
9D
330
99
100
AcDbEntity
  8
DIMS
  6
Continuous
 62
     1
370
     0
100
AcDbLine
 10
3.125767610697379
 20
0.9732857066160267
 30
0.0
 11
2.980878736754019
 21
1.012108563381405
 31
0.0
  0
LINE
  5
9E
330
99
100
AcDbEntity
  8
DIMS
  6
Continuous
 62
     1
370
     0
100
AcDbLine
 10
2.316033858158944
 20
2.4656766021697
 30
0.0
 11
1.38515103631285
 21
1.928231154392849
 31
0.0
  0
LINE
  5
9F
330
99
100
AcDbEntity
  8
DIMS
  6
Continuous
 62
     1
370
     0
100
AcDbLine
 10
3.125767610697392
 20
1.998176602169708
 30
0.0
 11
3.125767610697392
 21
0.9232857066160267
 31
0.0
  0
TEXT
  5
A0
330
99
100
AcDbEntity
  8
DIMS
  6
Continuous
 62
     1
370
     0
100
AcDbText
 10
1.949910734735448
 20
1.17336129797438
 30
0.0
 40
0.125
  1
60.0
  7
AEC_TECH
100
AcDbText
  0
ARC
  5
A1
330
99
100
AcDbEntity
  8
DIMS
  6
Continuous
 62
     1
370
     0
100
AcDbCircle
 10
3.125767610697379
 20
2.933176602169701
 30
0.0
 40
1.959890895553673
100
AcDbArc
 50
210.0000000000004
 51
233.9617338188793
  0
ARC
  5
A2
330
99
100
AcDbEntity
  8
DIMS
  6
Continuous
 62
     1
370
     0
100
AcDbCircle
 10
3.125767610697379
 20
2.933176602169705
 30
0.0
 40
1.959890895553678
100
AcDbArc
 50
247.4322768098548
 51
270.0
  0
ENDBLK
  5
A4
330
99
100
AcDbEntity
  8
0
100
AcDbBlockEnd
  0
BLOCK
  5
AF
330
A5
100
AcDbEntity
  8
0
100
AcDbBlockBegin
  2
_D11
 70
     0
 10
0.0
 20
0.0
 30
0.0
  3
_D11
  1

  0
LINE
  5
A6
330
A5
100
AcDbEntity
  8
DIMS
  6
Continuous
 62
     1
370
     0
100
AcDbLine
 10
3.125767610697379
 20
0.9732857066160267
 30
0.0
 11
3.27065648464074
 21
1.012108563381405
 31
0.0
  0
LINE
  5
A7
330
A5
100
AcDbEntity
  8
DIMS
  6
Continuous
 62
     1
370
     0
100
AcDbLine
 10
3.125767610697379
 20
0.9732857066160267
 30
0.0
 11
3.27065648464074
 21
0.9344628498506486
 31
0.0
  0
LINE
  5
A8
330
A5
100
AcDbEntity
  8
DIMS
  6
Continuous
 62
     1
370
     0
100
AcDbLine
 10
4.823082914892713
 20
1.953231154392893
 30
0.0
 11
4.784260058127337
 21
1.808342280449531
 31
0.0
  0
LINE
  5
A9
330
A5
100
AcDbEntity
  8
DIMS
  6
Continuous
 62
     1
370
     0
100
AcDbLine
 10
4.823082914892713
 20
1.953231154392893
 30
0.0
 11
4.717016897714733
 21
1.847165137214909
 31
0.0
  0
LINE
  5
AA
330
A5
100
AcDbEntity
  8
DIMS
  6
Continuous
 62
     1
370
     0
100
AcDbLine
 10
3.125767610697392
 20
1.998176602169708
 30
0.0
 11
3.125767610697392
 21
0.9232857066160267
 31
0.0
  0
LINE
  5
AB
330
A5
100
AcDbEntity
  8
DIMS
  6
Continuous
 62
     1
370
     0
100
AcDbLine
 10
3.935501363235839
 20
2.465676602169715
 30
0.0
 11
4.866384185081936
 21
1.928231154392893
 31
0.0
  0
TEXT
  5
AC
330
A5
100
AcDbEntity
  8
DIMS
  6
Continuous
 62
     1
370
     0
100
AcDbText
 10
3.909801630289131
 20
1.173361297974393
 30
0.0
 40
0.125
  1
60.0
  7
AEC_TECH
100
AcDbText
  0
ARC
  5
AD
330
A5
100
AcDbEntity
  8
DIMS
  6
Continuous
 62
     1
370
     0
100
AcDbCircle
 10
3.125767610697379
 20
2.933176602169709
 30
0.0
 40
1.959890895553683
100
AcDbArc
 50
270.0
 51
292.567723190146
  0
ARC
  5
AE
330
A5
100
AcDbEntity
  8
DIMS
  6
Continuous
 62
     1
370
     0
100
AcDbCircle
 10
3.125767610697379
 20
2.933176602169703
 30
0.0
 40
1.959890895553675
100
AcDbArc
 50
306.0382661811211
 51
330.0000000000009
  0
ENDBLK
  5
B0
330
A5
100
AcDbEntity
  8
0
100
AcDbBlockEnd
  0
BLOCK
  5
BB
330
B1
100
AcDbEntity
  8
0
100
AcDbBlockBegin
  2
_D12
 70
     0
 10
0.0
 20
0.0
 30
0.0
  3
_D12
  1

  0
LINE
  5
B2
330
B1
100
AcDbEntity
  8
DIMS
  6
Continuous
 62
     1
370
     0
100
AcDbLine
 10
4.823082914892713
 20
1.953231154392891
 30
0.0
 11
4.861905771658089
 21
2.098120028336253
 31
0.0
  0
LINE
  5
B3
330
B1
100
AcDbEntity
  8
DIMS
  6
Continuous
 62
     1
370
     0
100
AcDbLine
 10
4.823082914892713
 20
1.953231154392891
 30
0.0
 11
4.929148932070693
 21
2.059297171570876
 31
0.0
  0
LINE
  5
B4
330
B1
100
AcDbEntity
  8
DIMS
  6
Continuous
 62
     1
370
     0
100
AcDbLine
 10
4.750590801219919
 20
4.029133682540257
 30
0.0
 11
4.863797238253336
 21
3.930724828191681
 31
0.0
  0
LINE
  5
B5
330
B1
100
AcDbEntity
  8
DIMS
  6
Continuous
 62
     1
370
     0
100
AcDbLine
 10
4.750590801219919
 20
4.029133682540257
 30
0.0
 11
4.799426024388494
 21
3.88730589620036
 31
0.0
  0
LINE
  5
B6
330
B1
100
AcDbEntity
  8
DIMS
  6
Continuous
 62
     1
370
     0
100
AcDbLine
 10
3.935501363235839
 20
2.465676602169714
 30
0.0
 11
4.866384185081936
 21
1.928231154392891
 31
0.0
  0
LINE
  5
B7
330
B1
100
AcDbEntity
  8
DIMS
  6
Continuous
 62
     1
370
     0
100
AcDbLine
 10
3.900917741036343
 20
3.456021966914859
 30
0.0
 11
4.792042679847671
 21
4.057093327713794
 31
0.0
  0
TEXT
  5
B8
330
B1
100
AcDbEntity
  8
DIMS
  6
Continuous
 62
     1
370
     0
100
AcDbText
 10
4.891611837438501
 20
2.939075808016363
 30
0.0
 40
0.125
  1
64.0
  7
AEC_TECH
100
AcDbText
  0
ARC
  5
B9
330
B1
100
AcDbEntity
  8
DIMS
  6
Continuous
 62
     1
370
     0
100
AcDbCircle
 10
3.125767610697379
 20
2.933176602169703
 30
0.0
 40
1.959890895553676
100
AcDbArc
 50
330.0000000000008
 51
358.7106411577485
  0
ARC
  5
BA
330
B1
100
AcDbEntity
  8
DIMS
  6
Continuous
 62
     1
370
     0
100
AcDbCircle
 10
3.125767610697368
 20
2.933176602169696
 30
0.0
 40
1.959890895553688
100
AcDbArc
 50
5.295975753675521
 51
34.00000000000037
  0
ENDBLK
  5
BC
330
B1
100
AcDbEntity
  8
0
100
AcDbBlockEnd
  0
BLOCK
  5
C7
330
BD
100
AcDbEntity
  8
0
100
AcDbBlockBegin
  2
_D13
 70
     0
 10
0.0
 20
0.0
 30
0.0
  3
_D13
  1

  0
LINE
  5
BE
330
BD
100
AcDbEntity
  8
DIMS
  6
Continuous
 62
     1
370
     0
100
AcDbLine
 10
4.750590801219918
 20
4.029133682540257
 30
0.0
 11
4.637384364186502
 21
4.127542536888832
 31
0.0
  0
LINE
  5
BF
330
BD
100
AcDbEntity
  8
DIMS
  6
Continuous
 62
     1
370
     0
100
AcDbLine
 10
4.750590801219918
 20
4.029133682540257
 30
0.0
 11
4.701755578051343
 21
4.170961468880153
 31
0.0
  0
LINE
  5
C0
330
BD
100
AcDbEntity
  8
DIMS
  6
Continuous
 62
     1
370
     0
100
AcDbLine
 10
3.125767610697379
 20
4.893067497723379
 30
0.0
 11
3.270656484640741
 21
4.931890354488757
 31
0.0
  0
LINE
  5
C1
330
BD
100
AcDbEntity
  8
DIMS
  6
Continuous
 62
     1
370
     0
100
AcDbLine
 10
3.125767610697379
 20
4.893067497723379
 30
0.0
 11
3.270656484640741
 21
4.854244640958
 31
0.0
  0
LINE
  5
C2
330
BD
100
AcDbEntity
  8
DIMS
  6
Continuous
 62
     1
370
     0
100
AcDbLine
 10
3.900917741036343
 20
3.456021966914859
 30
0.0
 11
4.79204267984767
 21
4.057093327713794
 31
0.0
  0
LINE
  5
C3
330
BD
100
AcDbEntity
  8
DIMS
  6
Continuous
 62
     1
370
     0
100
AcDbLine
 10
3.125767610697379
 20
3.868176602169704
 30
0.0
 11
3.125767610697379
 21
4.943067497723379
 31
0.0
  0
TEXT
  5
C4
330
BD
100
AcDbEntity
  8
DIMS
  6
Continuous
 62
     1
370
     0
100
AcDbText
 10
3.858389270528365
 20
4.601157550664952
 30
0.0
 40
0.125
  1
56.0
  7
AEC_TECH
100
AcDbText
  0
ARC
  5
C5
330
BD
100
AcDbEntity
  8
DIMS
  6
Continuous
 62
     1
370
     0
100
AcDbCircle
 10
3.125767610697382
 20
2.933176602169705
 30
0.0
 40
1.959890895553673
100
AcDbArc
 50
34.00000000000039
 51
55.64393095698463
  0
ARC
  5
C6
330
BD
100
AcDbEntity
  8
DIMS
  6
Continuous
 62
     1
370
     0
100
AcDbCircle
 10
3.125767610697383
 20
2.933176602169721
 30
0.0
 40
1.959890895553659
100
AcDbArc
 50
69.61688934861647
 51
90.0
  0
ENDBLK
  5
C8
330
BD
100
AcDbEntity
  8
0
100
AcDbBlockEnd
  0
BLOCK
  5
D1
330
C9
100
AcDbEntity
  8
0
100
AcDbBlockBegin
  2
_D14
 70
     0
 10
0.0
 20
0.0
 30
0.0
  3
_D14
  1

  0
LINE
  5
CA
330
C9
100
AcDbEntity
  8
DIMS
  6
Continuous
 62
     1
370
     0
100
AcDbLine
 10
3.611858439531078
 20
5.265002292043639
 30
0.0
 11
3.811858439531079
 21
5.265002292043639
 31
0.0
  0
LINE
  5
CB
330
C9
100
AcDbEntity
  8
DIMS
  6
Continuous
 62
     1
370
     0
100
AcDbLine
 10
3.269230660244428
 20
3.621383012654983
 30
0.0
 11
3.277668690026506
 21
3.471620535200193
 31
0.0
  0
LINE
  5
CC
330
C9
100
AcDbEntity
  8
DIMS
  6
Continuous
 62
     1
370
     0
100
AcDbLine
 10
3.269230660244428
 20
3.621383012654983
 30
0.0
 11
3.201656969666201
 21
3.487465887754401
 31
0.0
  0
LINE
  5
CD
330
C9
100
AcDbEntity
  8
DIMS
  6
Continuous
 62
     1
370
     0
100
AcDbLine
 10
2.982304561150346
 20
2.244970191684429
 30
0.0
 11
2.973866531368268
 21
2.39473266913922
 31
0.0
  0
LINE
  5
CE
330
C9
100
AcDbEntity
  8
DIMS
  6
Continuous
 62
     1
370
     0
100
AcDbLine
 10
2.982304561150346
 20
2.244970191684429
 30
0.0
 11
3.049878251728573
 21
2.37888731658501
 31
0.0
  0
LINE
  5
CF
330
C9
100
AcDbEntity
  8
DIMS
  6
Continuous
 62
     1
370
     0
100
AcDbLine
 10
2.982304561150344
 20
2.24497019168443
 30
0.0
 11
3.611858439531078
 21
5.265002292043639
 31
0.0
  0
TEXT
  5
D0
330
C9
100
AcDbEntity
  8
DIMS
  6
Continuous
 62
     1
370
     0
100
AcDbText
 10
3.861858439531078
 20
5.202502292043639
 30
0.0
 40
0.125
  1
1.406 B.C.
  7
AEC_TECH
100
AcDbText
  0
ENDBLK
  5
D2
330
C9
100
AcDbEntity
  8
0
100
AcDbBlockEnd
  0
BLOCK
  5
DB
330
D3
100
AcDbEntity
  8
0
100
AcDbBlockBegin
  2
_D15
 70
     0
 10
0.0
 20
0.0
 30
0.0
  3
_D15
  1

  0
LINE
  5
D4
330
D3
100
AcDbEntity
  8
DIMS
  6
Continuous
 62
     1
370
     0
100
AcDbLine
 10
2.530389671844858
 20
5.265002292043639
 30
0.0
 11
2.330389671844858
 21
5.265002292043639
 31
0.0
  0
LINE
  5
D5
330
D3
100
AcDbEntity
  8
DIMS
  6
Continuous
 62
     1
370
     0
100
AcDbLine
 10
2.911774966341841
 20
3.771288854891087
 30
0.0
 11
2.985235157340162
 21
3.640508121071116
 31
0.0
  0
LINE
  5
D6
330
D3
100
AcDbEntity
  8
DIMS
  6
Continuous
 62
     1
370
     0
100
AcDbLine
 10
2.911774966341841
 20
3.771288854891087
 30
0.0
 11
2.910002991003258
 21
3.621299321578261
 31
0.0
  0
LINE
  5
D7
330
D3
100
AcDbEntity
  8
DIMS
  6
Continuous
 62
     1
370
     0
100
AcDbLine
 10
3.339760255052918
 20
2.095064349448318
 30
0.0
 11
3.266300064054598
 21
2.225845083268288
 31
0.0
  0
LINE
  5
D8
330
D3
100
AcDbEntity
  8
DIMS
  6
Continuous
 62
     1
370
     0
100
AcDbLine
 10
3.339760255052918
 20
2.095064349448318
 30
0.0
 11
3.341532230391501
 21
2.245053882761144
 31
0.0
  0
LINE
  5
D9
330
D3
100
AcDbEntity
  8
DIMS
  6
Continuous
 62
     1
370
     0
100
AcDbLine
 10
3.339760255052918
 20
2.095064349448318
 30
0.0
 11
2.530389671844858
 21
5.265002292043639
 31
0.0
  0
TEXT
  5
DA
330
D3
100
AcDbEntity
  8
DIMS
  6
Continuous
 62
     1
370
     0
100
AcDbText
 10
1.428469409327884
 20
5.202502292043639
 30
0.0
 40
0.125
  1
1.730 B.C.
  7
AEC_TECH
100
AcDbText
  0
ENDBLK
  5
DC
330
D3
100
AcDbEntity
  8
0
100
AcDbBlockEnd
  0
BLOCK
  5
E7
330
DD
100
AcDbEntity
  8
0
100
AcDbBlockBegin
  2
_D16
 70
     0
 10
0.0
 20
0.0
 30
0.0
  3
_D16
  1

  0
LINE
  5
DE
330
DD
100
AcDbEntity
  8
DIMS
  6
Continuous
 62
     1
370
     0
100
AcDbLine
 10
8.139479184468484
 20
5.619106327060802
 30
0.0
 11
8.284368058411844
 21
5.657929183826182
 31
0.0
  0
LINE
  5
DF
330
DD
100
AcDbEntity
  8
DIMS
  6
Continuous
 62
     1
370
     0
100
AcDbLine
 10
8.139479184468484
 20
5.619106327060802
 30
0.0
 11
8.284368058411844
 21
5.580283470295424
 31
0.0
  0
LINE
  5
E0
330
DD
100
AcDbEntity
  8
DIMS
  6
Continuous
 62
     1
370
     0
100
AcDbLine
 10
10.45647536977122
 20
5.619106327060802
 30
0.0
 11
10.31158649582786
 21
5.580283470295424
 31
0.0
  0
LINE
  5
E1
330
DD
100
AcDbEntity
  8
DIMS
  6
Continuous
 62
     1
370
     0
100
AcDbLine
 10
10.45647536977122
 20
5.619106327060802
 30
0.0
 11
10.31158649582786
 21
5.657929183826182
 31
0.0
  0
LINE
  5
E2
330
DD
100
AcDbEntity
  8
DIMS
  6
Continuous
 62
     1
370
     0
100
AcDbLine
 10
8.139479184468484
 20
4.096181251331998
 30
0.0
 11
8.139479184468484
 21
5.669106327060803
 31
0.0
  0
LINE
  5
E3
330
DD
100
AcDbEntity
  8
DIMS
  6
Continuous
 62
     1
370
     0
100
AcDbLine
 10
10.45647536977122
 20
4.151628288075163
 30
0.0
 11
10.45647536977122
 21
5.669106327060803
 31
0.0
  0
TEXT
  5
E4
330
DD
100
AcDbEntity
  8
DIMS
  6
Continuous
 62
     1
370
     0
100
AcDbText
 10
9.125398574869556
 20
5.556606327060802
 30
0.0
 40
0.125
  1
2.32
  7
AEC_TECH
100
AcDbText
  0
LINE
  5
E5
330
DD
100
AcDbEntity
  8
DIMS
  6
Continuous
 62
     1
370
     0
100
AcDbLine
 10
8.139479184468484
 20
5.619106327060802
 30
0.0
 11
9.075398574869556
 21
5.619106327060802
 31
0.0
  0
LINE
  5
E6
330
DD
100
AcDbEntity
  8
DIMS
  6
Continuous
 62
     1
370
     0
100
AcDbLine
 10
9.520555979370151
 20
5.619106327060802
 30
0.0
 11
10.45647536977122
 21
5.619106327060802
 31
0.0
  0
ENDBLK
  5
E8
330
DD
100
AcDbEntity
  8
0
100
AcDbBlockEnd
  0
BLOCK
  5
F3
330
E9
100
AcDbEntity
  8
0
100
AcDbBlockBegin
  2
_D17
 70
     0
 10
0.0
 20
0.0
 30
0.0
  3
_D17
  1

  0
LINE
  5
EA
330
E9
100
AcDbEntity
  8
DIMS
  6
Continuous
 62
     1
370
     0
100
AcDbLine
 10
12.45017264452392
 20
1.784728254124356
 30
0.0
 11
12.41134978775853
 21
1.929617128067718
 31
0.0
  0
LINE
  5
EB
330
E9
100
AcDbEntity
  8
DIMS
  6
Continuous
 62
     1
370
     0
100
AcDbLine
 10
12.45017264452392
 20
1.784728254124356
 30
0.0
 11
12.48899550128928
 21
1.929617128067718
 31
0.0
  0
LINE
  5
EC
330
E9
100
AcDbEntity
  8
DIMS
  6
Continuous
 62
     1
370
     0
100
AcDbLine
 10
12.45017264452392
 20
4.081628288075163
 30
0.0
 11
12.4889955012893
 21
3.936739414131803
 31
0.0
  0
LINE
  5
ED
330
E9
100
AcDbEntity
  8
DIMS
  6
Continuous
 62
     1
370
     0
100
AcDbLine
 10
12.45017264452392
 20
4.081628288075163
 30
0.0
 11
12.41134978775853
 21
3.936739414131803
 31
0.0
  0
LINE
  5
EE
330
E9
100
AcDbEntity
  8
DIMS
  6
Continuous
 62
     1
370
     0
100
AcDbLine
 10
10.52647536977122
 20
1.784728254124356
 30
0.0
 11
12.50017264452391
 21
1.784728254124356
 31
0.0
  0
LINE
  5
EF
330
E9
100
AcDbEntity
  8
DIMS
  6
Continuous
 62
     1
370
     0
100
AcDbLine
 10
10.52647536977122
 20
4.081628288075163
 30
0.0
 11
12.50017264452392
 21
4.081628288075163
 31
0.0
  0
TEXT
  5
F0
330
E9
100
AcDbEntity
  8
DIMS
  6
Continuous
 62
     1
370
     0
100
AcDbText
 10
12.26741384147467
 20
2.870678271099759
 30
0.0
 40
0.125
  1
2.30
  7
AEC_TECH
100
AcDbText
  0
LINE
  5
F1
330
E9
100
AcDbEntity
  8
DIMS
  6
Continuous
 62
     1
370
     0
100
AcDbLine
 10
12.45017264452392
 20
1.784728254124356
 30
0.0
 11
12.45017264452392
 21
2.82067827109976
 31
0.0
  0
LINE
  5
F2
330
E9
100
AcDbEntity
  8
DIMS
  6
Continuous
 62
     1
370
     0
100
AcDbLine
 10
12.45017264452392
 20
3.04567827109976
 30
0.0
 11
12.45017264452392
 21
4.081628288075163
 31
0.0
  0
ENDBLK
  5
F4
330
E9
100
AcDbEntity
  8
0
100
AcDbBlockEnd
  0
BLOCK
  5
1BE
330
103
100
AcDbEntity
  8
0
100
AcDbBlockBegin
  2
A$C78A7205E
 70
     0
 10
0.0
 20
0.0
 30
0.0
  3
A$C78A7205E
  1

  0
TEXT
  5
104
330
103
100
AcDbEntity
  8
DIMS
  6
Continuous
 62
     7
370
     0
100
AcDbText
 10
5.670854294224771
 20
6.418594405915879
 30
0.0
 40
0.15
  1
^IDEEP ON B.C..
  7
ENGINEER
100
AcDbText
  0
TEXT
  5
105
330
103
100
AcDbEntity
  8
DIMS
  6
Continuous
 62
     1
370
     0
100
AcDbText
 10
5.540473044941462
 20
3.750774424700704
 30
0.0
 40
0.125
  1
.03 x .03
  7
AEC_TECH
100
AcDbText
  0
TEXT
  5
106
330
103
100
AcDbEntity
  8
DIMS
  6
Continuous
 62
     7
370
     0
100
AcDbText
 10
5.670854294224771
 20
5.293594405915879
 30
0.0
 40
0.15
  1
FINISH: N/A
  7
ENGINEER
100
AcDbText
  0
TEXT
  5
107
330
103
100
AcDbEntity
  8
DIMS
  6
Continuous
 62
     7
370
     0
100
AcDbText
 10
5.670854294224771
 20
5.518594405915878
 30
0.0
 40
0.15
  1
MATERIAL: C 1144
  7
ENGINEER
100
AcDbText
  0
TEXT
  5
108
330
103
100
AcDbEntity
  8
DIMS
  6
Continuous
 62
     7
370
     0
100
AcDbText
 10
5.670854294224771
 20
5.743594405915878
 30
0.0
 40
0.15
  1
^IOTHERWISE NOTED.
  7
ENGINEER
100
AcDbText
  0
TEXT
  5
109
330
103
100
AcDbEntity
  8
DIMS
  6
Continuous
 62
     7
370
     0
100
AcDbText
 10
5.670854294224771
 20
5.068594405915878
 30
0.0
 40
0.15
  1
TOL: .XX = +/-.01, .XXX = +/-.005, ANG = +/-1
  7
ENGINEER
100
AcDbText
  0
TEXT
  5
10A
330
103
100
AcDbEntity
  8
DIMS
  6
Continuous
 62
     7
370
     0
100
AcDbText
 10
5.670854294224771
 20
6.193594405915878
 30
0.0
 40
0.15
  1
NOTE C - DO NOT RADIUS OR CHAMFER THIS CORNER.
  7
ENGINEER
100
AcDbText
  0
TEXT
  5
10B
330
103
100
AcDbEntity
  8
DIMS
  6
Continuous
 62
     7
370
     0
100
AcDbText
 10
5.670854294224771
 20
6.868594405915878
 30
0.0
 40
0.15
  1
^ION B.C., EQUALLY SPACED.
  7
ENGINEER
100
AcDbText
  0
TEXT
  5
10C
330
103
100
AcDbEntity
  8
DIMS
  6
Continuous
 62
     7
370
     0
100
AcDbText
 10
5.670854294224771
 20
7.093594405915878
 30
0.0
 40
0.15
  1
NOTE A - 6X DRILL .203 THRU; CB .328 X .25 DEEP
  7
ENGINEER
100
AcDbText
  0
TEXT
  5
10D
330
103
100
AcDbEntity
  8
DIMS
  6
Continuous
 62
     7
370
     0
100
AcDbText
 10
5.670854294224771
 20
5.968594405915879
 30
0.0
 40
0.15
  1
NOTE ---  BREAK EDGES AND CORNERS .01 - .02, UNLESS
  7
ENGINEER
100
AcDbText
  0
TEXT
  5
10E
330
103
100
AcDbEntity
  8
DIMS
  6
Continuous
 62
     7
370
     0
100
AcDbText
 10
5.670854294224771
 20
6.643594405915878
 30
0.0
 40
0.15
  1
NOTE B - 6X DRILL (.90 DEEP MAX.) & TAP 3/8-24 X .75"
  7
ENGINEER
100
AcDbText
  0
DIMENSION
  5
10F
330
103
100
AcDbEntity
  8
DIMS
  6
Continuous
 62
     1
370
     0
100
AcDbDimension
  2
_D3
 10
5.693215968369697
 20
1.755253391572406
 30
0.0
 11
-0.9699652787436541
 21
-0.9232857137900687
 31
0.0
 12
-0.9699652787436541
 22
-0.9232857137900687
 32
0.0
 71
     5
 42
-1.0
  3
DimStyle3
100
AcDbAlignedDimension
 13
7.199513905724829
 23
3.132895537541929
 33
0.0
 14
7.199513905724829
 24
0.8868955375419311
 34
0.0
 50
90.0
100
AcDbRotatedDimension
  0
DIMENSION
  5
110
330
103
100
AcDbEntity
  8
DIMS
  6
Continuous
 62
     1
370
     0
100
AcDbDimension
  2
_D7
 10
4.837813173082831
 20
1.982403521288767
 30
0.0
 11
-0.9699652787436541
 21
-0.9232857137900687
 31
0.0
 12
-0.9699652787436541
 22
-0.9232857137900687
 32
0.0
 71
     5
 42
-1.0
  3
DimStyle4
100
AcDbAlignedDimension
 13
7.999010091027562
 23
3.260342810796324
 33
0.0
 14
7.999010091027562
 24
0.7594432574973745
 34
0.0
 50
90.0
100
AcDbRotatedDimension
  0
TEXT
  5
111
330
103
100
AcDbEntity
  8
DIMS
  6
Continuous
 62
     7
370
     5
100
AcDbText
 10
1.878944648309962
 20
8.176886548439611
 30
0.0
 40
0.125
  1
PHONE 831-429-1989 FAX 831-429-1907
  7
ENGINEER
100
AcDbText
  0
DIMENSION
  5
112
330
103
100
AcDbEntity
  8
DIMS
  6
Continuous
 62
     1
370
     0
100
AcDbDimension
  2
_D15
 10
1.560424393101204
 20
4.34171657825357
 30
0.0
 11
-0.9699652787436541
 21
-0.9232857137900687
 31
0.0
 12
-0.9699652787436541
 22
-0.9232857137900687
 32
0.0
 70
     3
 71
     5
 42
-1.0
  3
DimStyle2
100
AcDbDiametricDimension
 15
1.290802331953731
 25
2.009890888379634
 35
0.0
 40
0.0
  0
DIMENSION
  5
113
330
103
100
AcDbEntity
  8
DIMS
  6
Continuous
 62
     1
370
     0
100
AcDbDimension
  2
_D14
 10
2.641893160787424
 20
4.34171657825357
 30
0.0
 11
-0.9699652787436541
 21
-0.9232857137900687
 31
0.0
 12
-0.9699652787436541
 22
-0.9232857137900687
 32
0.0
 70
     3
 71
     5
 42
-1.0
  3
DimStyle2
100
AcDbDiametricDimension
 15
2.507302843123166
 25
1.401074741529052
 35
0.0
 40
0.0
  0
DIMENSION
  5
114
330
103
100
AcDbEntity
  8
DIMS
  6
Continuous
 62
     1
370
     0
100
AcDbDimension
  2
_D13
 10
2.155802331953725
 20
2.874890888379636
 30
0.0
 11
-0.9699652787436541
 21
-0.9232857137900687
 31
0.0
 12
-0.9699652787436541
 22
-0.9232857137900687
 32
0.0
 70
     5
 71
     5
 42
-1.0
  3
DimStyle6
100
AcDb3PointAngularDimension
 13
2.155802331953725
 23
2.009890888379634
 33
0.0
 14
2.872919832213837
 24
2.493592749881837
 34
0.0
 15
-0.9699652787436541
 25
-0.9232857137900687
 35
0.0
  0
DIMENSION
  5
115
330
103
100
AcDbEntity
  8
DIMS
  6
Continuous
 62
     1
370
     0
100
AcDbDimension
  2
_D8
 10
1.406690357680191
 20
2.442390888379631
 30
0.0
 11
-0.9699652787436541
 21
-0.9232857137900687
 31
0.0
 12
-0.9699652787436541
 22
-0.9232857137900687
 32
0.0
 70
     5
 71
     5
 42
-1.0
  3
DimStyle6
100
AcDb3PointAngularDimension
 13
2.155802331953725
 23
2.009890888379634
 33
0.0
 14
2.155802331953725
 24
2.874890888379636
 34
0.0
 15
-0.9699652787436541
 25
-0.9232857137900687
 35
0.0
  0
LINE
  5
116
330
103
100
AcDbEntity
  8
DIMS
  6
Continuous
 62
     1
370
     0
100
AcDbLine
 10
2.054196327625232
 20
3.032474104124201
 30
0.0
 11
1.647257651820536
 21
4.696943545741745
 31
0.0
  0
POINT
  5
117
330
103
100
AcDbEntity
  8
HUB
  6
Continuous
 62
    93
370
     0
100
AcDbPoint
 10
1.586982689886777
 20
2.423162792371337
 30
0.0
  0
CIRCLE
  5
118
330
103
100
AcDbEntity
  8
HUB
  6
Continuous
 62
    93
370
     0
100
AcDbCircle
 10
1.804301820784299
 20
2.618707035230223
 30
0.0
 40
0.1794990280797903
  0
POINT
  5
119
330
103
100
AcDbEntity
  8
HUB
  6
Continuous
 62
    93
370
     0
100
AcDbPoint
 10
1.586982451468199
 20
1.596618984387938
 30
0.0
  0
CIRCLE
  5
11A
330
103
100
AcDbEntity
  8
HUB
  6
Continuous
 62
    93
370
     0
100
AcDbCircle
 10
1.804302774458616
 20
1.401074741529052
 30
0.0
 40
0.1794995049179039
  0
CIRCLE
  5
11B
330
103
100
AcDbEntity
  8
CENTERLINES
  6
CENTERD
 62
     9
 48
1.104270610975676
370
     0
100
AcDbCircle
 10
2.155802331953733
 20
2.009890888379638
 30
0.0
 40
0.7030005049915451
  0
CIRCLE
  5
11C
330
103
100
AcDbEntity
  8
CENTERLINES
  6
CENTERD
 62
     9
 48
1.358738822677577
370
     0
100
AcDbCircle
 10
2.155802331953725
 20
2.009890888379634
 30
0.0
 40
0.8649999999999948
  0
DIMENSION
  5
11D
330
103
100
AcDbEntity
  8
DIMS
  6
Continuous
 62
     1
370
     0
100
AcDbDimension
  2
_D10
 10
2.155802331953738
 20
1.144890888379639
 30
0.0
 11
-0.9699652787436541
 21
-0.9232857137900687
 31
0.0
 12
-0.9699652787436541
 22
-0.9232857137900687
 32
0.0
 70
     5
 71
     5
 42
-1.0
  3
DimStyle6
100
AcDb3PointAngularDimension
 13
2.155802331953725
 23
2.009890888379634
 33
0.0
 14
1.4066903576802
 24
1.577390888379632
 34
0.0
 15
-0.9699652787436541
 25
-0.9232857137900687
 35
0.0
  0
CIRCLE
  5
11E
330
103
100
AcDbEntity
  8
HUB
  6
Continuous
 62
    93
370
     0
100
AcDbCircle
 10
1.452802263289183
 20
2.009890888379638
 30
0.0
 40
0.179499626159668
  0
CIRCLE
  5
11F
330
103
100
AcDbEntity
  8
HUB
  6
Continuous
 62
    93
370
     5
100
AcDbCircle
 10
2.155801855116574
 20
2.009893749402587
 30
0.0
 40
1.122999999999998
  0
CIRCLE
  5
120
330
103
100
AcDbEntity
  8
HUB
  6
Continuous
 62
    93
370
     5
100
AcDbCircle
 10
2.155802331953733
 20
2.009890888379638
 30
0.0
 40
1.25
  0
LINE
  5
121
330
103
100
AcDbEntity
  8
CENTERLINES
  6
CENTERD
 62
     9
 48
0.625
370
     0
100
AcDbLine
 10
3.405802331953734
 20
2.009890888379638
 30
0.0
 11
0.9058023319537337
 21
2.009890888379638
 31
0.0
  0
DIMENSION
  5
122
330
103
100
AcDbEntity
  8
DIMS
  6
Continuous
 62
     1
370
     0
100
AcDbDimension
  2
_D9
 10
1.4066903576802
 20
1.577390888379632
 30
0.0
 11
-0.9699652787436541
 21
-0.9232857137900687
 31
0.0
 12
-0.9699652787436541
 22
-0.9232857137900687
 32
0.0
 70
     5
 71
     5
 42
-1.0
  3
DimStyle6
100
AcDb3PointAngularDimension
 13
2.155802331953725
 23
2.009890888379634
 33
0.0
 14
1.406690357680191
 24
2.442390888379631
 34
0.0
 15
-0.9699652787436541
 25
-0.9232857137900687
 35
0.0
  0
CIRCLE
  5
123
330
103
100
AcDbEntity
  8
HUB
  6
CONTOURD
 62
    93
 48
0.2945243112740434
370
     0
100
AcDbCircle
 10
1.406690357680191
 20
2.442390888379631
 30
0.0
 40
0.1875000000000002
  0
CIRCLE
  5
124
330
103
100
AcDbEntity
  8
HUB
  6
Continuous
 62
    93
370
     0
100
AcDbCircle
 10
1.406690357680191
 20
2.442390888379631
 30
0.0
 40
0.166000000000002
  0
CIRCLE
  5
125
330
103
100
AcDbEntity
  8
HUB
  6
CONTOURD
 62
    93
 48
0.2945243112740446
370
     0
100
AcDbCircle
 10
1.4066903576802
 20
1.577390888379632
 30
0.0
 40
0.1875000000000009
  0
CIRCLE
  5
126
330
103
100
AcDbEntity
  8
HUB
  6
Continuous
 62
    93
370
     0
100
AcDbCircle
 10
1.4066903576802
 20
1.577390888379632
 30
0.0
 40
0.1659999999999986
  0
CIRCLE
  5
127
330
103
100
AcDbEntity
  8
HUB
  6
Continuous
 62
    93
370
     0
100
AcDbCircle
 10
1.452802263289183
 20
2.009890888379638
 30
0.0
 40
0.1014995574951172
  0
DIMENSION
  5
128
330
103
100
AcDbEntity
  8
DIMS
  6
Continuous
 62
     1
370
     0
100
AcDbDimension
  2
_D11
 10
2.904914306227274
 20
1.577390888379645
 30
0.0
 11
-0.9699652787436541
 21
-0.9232857137900687
 31
0.0
 12
-0.9699652787436541
 22
-0.9232857137900687
 32
0.0
 70
     5
 71
     5
 42
-1.0
  3
DimStyle6
100
AcDb3PointAngularDimension
 13
2.155802331953725
 23
2.009890888379634
 33
0.0
 14
2.155802331953738
 24
1.144890888379639
 34
0.0
 15
-0.9699652787436541
 25
-0.9232857137900687
 35
0.0
  0
LINE
  5
129
330
103
100
AcDbEntity
  8
CENTERLINES
  6
CENTERD
 62
     9
 48
0.625
370
     0
100
AcDbLine
 10
2.155802331953733
 20
3.259890888379637
 30
0.0
 11
2.155802331953733
 21
0.759890888379638
 31
0.0
  0
LINE
  5
12A
330
103
100
AcDbEntity
  8
DIMS
  6
Continuous
 62
     1
370
     0
100
AcDbLine
 10
3.762831591527886
 20
3.836504891159277
 30
0.0
 11
3.962831591527886
 21
3.836504891159277
 31
0.0
  0
DIMENSION
  5
12B
330
103
100
AcDbEntity
  8
DIMS
  6
Continuous
 62
     1
370
     0
100
AcDbDimension
  2
_D12
 10
2.872919832213837
 20
2.493592749881837
 30
0.0
 11
-0.9699652787436541
 21
-0.9232857137900687
 31
0.0
 12
-0.9699652787436541
 22
-0.9232857137900687
 32
0.0
 70
     5
 71
     5
 42
-1.0
  3
DimStyle6
100
AcDb3PointAngularDimension
 13
2.155802331953725
 23
2.009890888379634
 33
0.0
 14
2.904914306227274
 24
1.577390888379645
 34
0.0
 15
-0.9699652787436541
 25
-0.9232857137900687
 35
0.0
  0
CIRCLE
  5
12C
330
103
100
AcDbEntity
  8
HUB
  6
Continuous
 62
    93
370
     0
100
AcDbCircle
 10
2.872919832213837
 20
2.493592749881837
 30
0.0
 40
0.1660000000000004
  0
POINT
  5
12D
330
103
100
AcDbEntity
  8
HUB
  6
Continuous
 62
    93
370
     0
100
AcDbPoint
 10
2.813128791838376
 20
2.487466190503661
 30
0.0
  0
CIRCLE
  5
12E
330
103
100
AcDbEntity
  8
HUB
  6
CONTOURD
 62
    93
 48
0.2945243112740437
370
     0
100
AcDbCircle
 10
2.872919832213837
 20
2.493592749881837
 30
0.0
 40
0.1875000000000004
  0
CIRCLE
  5
12F
330
103
100
AcDbEntity
  8
HUB
  6
Continuous
 62
    93
370
     5
100
AcDbCircle
 10
2.155802331953733
 20
2.009890888379638
 30
0.0
 40
0.5
  0
CIRCLE
  5
130
330
103
100
AcDbEntity
  8
HUB
  6
Continuous
 62
    93
370
     0
100
AcDbCircle
 10
2.858802400618284
 20
2.00989279572827
 30
0.0
 40
0.1794996261698016
  0
CIRCLE
  5
131
330
103
100
AcDbEntity
  8
HUB
  6
CONTOURD
 62
    93
 48
0.2945243112740426
370
     0
100
AcDbCircle
 10
2.155802331953738
 20
1.144890888379639
 30
0.0
 40
0.1874999999999997
  0
CIRCLE
  5
132
330
103
100
AcDbEntity
  8
HUB
  6
Continuous
 62
    93
370
     0
100
AcDbCircle
 10
2.155802331953738
 20
1.144890888379639
 30
0.0
 40
0.1660000000000004
  0
CIRCLE
  5
133
330
103
100
AcDbEntity
  8
HUB
  6
Continuous
 62
    93
370
     0
100
AcDbCircle
 10
1.804302774458616
 20
1.401074741529052
 30
0.0
 40
0.1014991392861593
  0
POINT
  5
134
330
103
100
AcDbEntity
  8
HUB
  6
Continuous
 62
    93
370
     0
100
AcDbPoint
 10
2.37307222941467
 20
1.341203067945067
 30
0.0
  0
CIRCLE
  5
135
330
103
100
AcDbEntity
  8
HUB
  6
Continuous
 62
    93
370
     0
100
AcDbCircle
 10
2.507302843123166
 20
1.401076648877684
 30
0.0
 40
0.1795006798957843
  0
CIRCLE
  5
136
330
103
100
AcDbEntity
  8
HUB
  6
Continuous
 62
    93
370
     0
100
AcDbCircle
 10
2.507302843123166
 20
1.401076648877684
 30
0.0
 40
0.1014998374231879
  0
POINT
  5
137
330
103
100
AcDbEntity
  8
HUB
  6
Continuous
 62
    93
370
     0
100
AcDbPoint
 10
2.155802331953733
 20
2.009890888379638
 30
0.0
  0
POINT
  5
138
330
103
100
AcDbEntity
  8
HUB
  6
Continuous
 62
    93
370
     0
100
AcDbPoint
 10
2.155802331953733
 20
2.009890888379638
 30
0.0
  0
POINT
  5
139
330
103
100
AcDbEntity
  8
HUB
  6
Continuous
 62
    93
370
     0
100
AcDbPoint
 10
2.155802331953733
 20
2.009890888379638
 30
0.0
  0
CIRCLE
  5
13A
330
103
100
AcDbEntity
  8
HUB
  6
CONTOURD
 62
    93
 48
0.2945243112740434
370
     0
100
AcDbCircle
 10
2.904914306227274
 20
1.577390888379645
 30
0.0
 40
0.1875000000000002
  0
CIRCLE
  5
13B
330
103
100
AcDbEntity
  8
HUB
  6
Continuous
 62
    93
370
     0
100
AcDbCircle
 10
2.904914306227274
 20
1.577390888379645
 30
0.0
 40
0.1660000000000002
  0
CIRCLE
  5
13C
330
103
100
AcDbEntity
  8
HUB
  6
Continuous
 62
    93
370
     0
100
AcDbCircle
 10
2.858802400618284
 20
2.00989279572827
 30
0.0
 40
0.1014995575130383
  0
POINT
  5
13D
330
103
100
AcDbEntity
  8
HUB
  6
Continuous
 62
    93
370
     0
100
AcDbPoint
 10
2.858902774840085
 20
2.009890888379638
 30
0.0
  0
LINE
  5
13E
330
103
100
AcDbEntity
  8
DIMS
  6
Continuous
 62
     1
370
     0
100
AcDbLine
 10
2.601171813899069
 20
2.77170543244236
 30
0.0
 11
2.734212601177008
 21
2.840988539477672
 31
0.0
  0
LINE
  5
13F
330
103
100
AcDbEntity
  8
DIMS
  6
Continuous
 62
     1
370
     0
100
AcDbLine
 10
2.601171813899069
 20
2.77170543244236
 30
0.0
 11
3.762831591527886
 21
3.836504891159277
 31
0.0
  0
LINE
  5
140
330
103
100
AcDbEntity
  8
DIMS
  6
Continuous
 62
     1
370
     0
100
AcDbLine
 10
2.054196327625232
 20
3.032474104124201
 30
0.0
 11
2.057498688854767
 21
3.182437747752614
 31
0.0
  0
CIRCLE
  5
141
330
103
100
AcDbEntity
  8
HUB
  6
CONTOURD
 62
    93
 48
0.2945243112740426
370
     0
100
AcDbCircle
 10
2.155802331953725
 20
2.874890888379636
 30
0.0
 40
0.1874999999999997
  0
CIRCLE
  5
142
330
103
100
AcDbEntity
  8
HUB
  6
Continuous
 62
    93
370
     0
100
AcDbCircle
 10
2.155802331953725
 20
2.874890888379636
 30
0.0
 40
0.1660000000000004
  0
CIRCLE
  5
143
330
103
100
AcDbEntity
  8
HUB
  6
Continuous
 62
    93
370
     0
100
AcDbCircle
 10
1.804301820784299
 20
2.618707035230223
 30
0.0
 40
0.1014998374231879
  0
LINE
  5
144
330
103
100
AcDbEntity
  8
DIMS
  6
Continuous
 62
     1
370
     0
100
AcDbLine
 10
2.054196327625232
 20
3.032474104124201
 30
0.0
 11
1.982074434528274
 21
3.16399760976525
 31
0.0
  0
CIRCLE
  5
145
330
103
100
AcDbEntity
  8
HUB
  6
Continuous
 62
    93
370
     0
100
AcDbCircle
 10
2.50730188944885
 20
2.618707035230223
 30
0.0
 40
0.1794995049179039
  0
LINE
  5
146
330
103
100
AcDbEntity
  8
DIMS
  6
Continuous
 62
     1
370
     0
100
AcDbLine
 10
2.601171813899069
 20
2.77170543244236
 30
0.0
 11
2.681746961903589
 21
2.898226756827025
 31
0.0
  0
POINT
  5
147
330
103
100
AcDbEntity
  8
HUB
  6
Continuous
 62
    93
370
     0
100
AcDbPoint
 10
2.37307222941467
 20
2.678578708814208
 30
0.0
  0
CIRCLE
  5
148
330
103
100
AcDbEntity
  8
HUB
  6
Continuous
 62
    93
370
     0
100
AcDbCircle
 10
2.50730188944885
 20
2.618707035230223
 30
0.0
 40
0.1014991392861593
  0
TEXT
  5
149
330
103
100
AcDbEntity
  8
DIMS
  6
Continuous
 62
     1
370
     0
100
AcDbText
 10
4.062831591527886
 20
3.774004891159277
 30
0.0
 40
0.125
  1
NOTE A
  7
AEC_TECH
100
AcDbText
  0
LINE
  5
14A
330
103
100
AcDbEntity
  8
DIMS
  6
Continuous
 62
     1
370
     0
100
AcDbLine
 10
1.647257651820536
 20
4.696943545741745
 30
0.0
 11
1.447257651820537
 21
4.696943545741745
 31
0.0
  0
TEXT
  5
14B
330
103
100
AcDbEntity
  8
DIMS
  6
Continuous
 62
     1
370
     0
100
AcDbText
 10
0.7132431465303309
 20
4.634443545741745
 30
0.0
 40
0.125
  1
NOTE B
  7
AEC_TECH
100
AcDbText
  0
TEXT
  5
14C
330
103
100
AcDbEntity
  8
DIMS
  6
Continuous
 62
     7
370
     0
100
AcDbText
 10
1.771057622223859
 20
6.919474963757867
 30
0.0
 40
0.125
  1
HUB DESIGN STARTED AS
  7
MAIN
100
AcDbText
  0
TEXT
  5
14D
330
103
100
AcDbEntity
  8
DIMS
  6
Continuous
 62
     7
370
     0
100
AcDbText
 10
1.771057622223859
 20
5.794474963757867
 30
0.0
 40
0.125
  1
USE 10-24 X 1.25 FOR
  7
MAIN
100
AcDbText
  0
TEXT
  5
14E
330
103
100
AcDbEntity
  8
DIMS
  6
Continuous
 62
     7
370
     0
100
AcDbText
 10
1.771057622223859
 20
6.356974963757867
 30
0.0
 40
0.125
  1
FLYWHEEL RECESS AND
  7
MAIN
100
AcDbText
  0
TEXT
  5
14F
330
103
100
AcDbEntity
  8
DIMS
  6
Continuous
 62
     7
370
     0
100
AcDbText
 10
1.771057622223859
 20
6.731974963757867
 30
0.0
 40
0.125
  1
PORADPHD.gxd
  7
MAIN
100
AcDbText
  0
TEXT
  5
150
330
103
100
AcDbEntity
  8
DIMS
  6
Continuous
 62
     7
370
     0
100
AcDbText
 10
1.771057622223859
 20
6.544474963757867
 30
0.0
 40
0.125
  1
MODIFIED TO FIT
  7
MAIN
100
AcDbText
  0
TEXT
  5
151
330
103
100
AcDbEntity
  8
DIMS
  6
Continuous
 62
     7
370
     0
100
AcDbText
 10
1.771057622223859
 20
5.606974963757867
 30
0.0
 40
0.125
  1
HUB TO BUSHING.
  7
MAIN
100
AcDbText
  0
TEXT
  5
152
330
103
100
AcDbEntity
  8
DIMS
  6
Continuous
 62
     7
370
     0
100
AcDbText
 10
1.771057622223859
 20
6.169474963757867
 30
0.0
 40
0.125
  1
BOLT PATTERN.
  7
MAIN
100
AcDbText
  0
TEXT
  5
153
330
103
100
AcDbEntity
  8
DIMS
  6
Continuous
 62
     7
370
     5
100
AcDbText
 10
1.878944648309962
 20
7.989386548439611
 30
0.0
 40
0.125
  1
DRAWN BY DAN SULLIVAN
  7
ENGINEER
100
AcDbText
  0
TEXT
  5
154
330
103
100
AcDbEntity
  8
DIMS
  6
Continuous
 62
     7
370
     5
100
AcDbText
 10
1.878944648309962
 20
8.551886548439611
 30
0.0
 40
0.125
  1
ELECTRO AUTOMOTIVE
  7
ENGINEER
100
AcDbText
  0
LINE
  5
155
330
103
100
AcDbEntity
  8
DIMS
  6
Continuous
 62
     7
370
     5
100
AcDbLine
 10
1.746198309465664
 20
8.789381970802892
 30
0.0
 11
5.439152602502867
 21
8.789381970802892
 31
0.0
  0
LINE
  5
156
330
103
100
AcDbEntity
  8
DIMS
  6
Continuous
 62
     7
370
     5
100
AcDbLine
 10
5.439152602502867
 20
7.889397611061681
 30
0.0
 11
1.746198309465664
 21
7.889397611061681
 31
0.0
  0
TEXT
  5
157
330
103
100
AcDbEntity
  8
DIMS
  6
Continuous
 62
     7
370
     5
100
AcDbText
 10
1.878944648309962
 20
8.364386548439611
 30
0.0
 40
0.125
  1
P.O. BOX 1113 FELTON CA. 95018-1113
  7
ENGINEER
100
AcDbText
  0
LINE
  5
158
330
103
100
AcDbEntity
  8
DIMS
  6
Continuous
 62
     7
370
     5
100
AcDbLine
 10
1.746198309465664
 20
7.889397611061681
 30
0.0
 11
1.746198309465664
 21
8.789381970802892
 31
0.0
  0
LINE
  5
159
330
103
100
AcDbEntity
  8
DIMS
  6
Continuous
 62
     7
370
     5
100
AcDbLine
 10
5.439152602502867
 20
8.789381970802892
 30
0.0
 11
5.439152602502867
 21
7.889397611061681
 31
0.0
  0
DIMENSION
  5
15A
330
103
100
AcDbEntity
  8
DIMS
  6
Continuous
 62
     1
370
     0
100
AcDbDimension
  2
_D16
 10
7.170707751161058
 20
4.695820613270735
 30
0.0
 11
-0.9699652787436541
 21
-0.9232857137900687
 31
0.0
 12
-0.9699652787436541
 22
-0.9232857137900687
 32
0.0
 71
     5
 42
-1.0
  3
DimStyle5
100
AcDbAlignedDimension
 13
7.16951390572483
 23
3.10289553754193
 33
0.0
 14
9.486510091027566
 24
3.158342574285094
 34
0.0
100
AcDbRotatedDimension
  0
DIMENSION
  5
15B
330
103
100
AcDbEntity
  8
DIMS
  6
Continuous
 62
     1
370
     0
100
AcDbDimension
  2
_D6
 10
8.265289936263618
 20
4.298803993363679
 30
0.0
 11
-0.9699652787436541
 21
-0.9232857137900687
 31
0.0
 12
-0.9699652787436541
 22
-0.9232857137900687
 32
0.0
 71
     5
 42
-1.0
  3
DimStyle5
100
AcDbAlignedDimension
 13
7.999010091027562
 23
3.260342810796324
 33
0.0
 14
8.249010091027562
 24
3.260342810796324
 34
0.0
100
AcDbRotatedDimension
  0
DIMENSION
  5
15C
330
103
100
AcDbEntity
  8
DIMS
  6
Continuous
 62
     1
370
     0
100
AcDbDimension
  2
_D5
 10
7.770301758045778
 20
3.981503879121476
 30
0.0
 11
-0.9699652787436541
 21
-0.9232857137900687
 31
0.0
 12
-0.9699652787436541
 22
-0.9232857137900687
 32
0.0
 71
     5
 42
-1.0
  3
DimStyle5
100
AcDbAlignedDimension
 13
7.16951390572483
 23
3.10289553754193
 33
0.0
 14
7.999010091027562
 24
3.260342810796324
 34
0.0
100
AcDbRotatedDimension
  0
LINE
  5
15D
330
103
100
AcDbEntity
  8
DIMS
  6
Continuous
 62
     1
370
     0
100
AcDbLine
 10
10.25793465370465
 20
3.626127751170209
 30
0.0
 11
10.45793465370465
 21
3.626127751170209
 31
0.0
  0
DIMENSION
  5
15E
330
103
100
AcDbEntity
  8
DIMS
  6
Continuous
 62
     1
370
     0
100
AcDbDimension
  2
_D17
 10
11.48020736578026
 20
1.189333349201694
 30
0.0
 11
-0.9699652787436541
 21
-0.9232857137900687
 31
0.0
 12
-0.9699652787436541
 22
-0.9232857137900687
 32
0.0
 71
     5
 42
-1.0
  3
DimStyle4
100
AcDbAlignedDimension
 13
9.486510091027566
 23
3.158342574285094
 33
0.0
 14
9.486510091027566
 24
0.8614425403342879
 34
0.0
 50
90.0
100
AcDbRotatedDimension
  0
DIMENSION
  5
15F
330
103
100
AcDbEntity
  8
DIMS
  6
Continuous
 62
     1
370
     0
100
AcDbDimension
  2
_D2
 10
10.88403328322766
 20
1.850399240672021
 30
0.0
 11
-0.9699652787436541
 21
-0.9232857137900687
 31
0.0
 12
-0.9699652787436541
 22
-0.9232857137900687
 32
0.0
 71
     5
 42
-1.0
  3
DimStyle2
100
AcDbAlignedDimension
 13
8.111510091027566
 23
1.209891051244545
 33
0.0
 14
8.111510091027566
 24
2.809892394444783
 34
0.0
 50
90.0
100
AcDbRotatedDimension
  0
LINE
  5
160
330
103
100
AcDbEntity
  8
HUB
  6
Continuous
 62
    93
370
     0
100
AcDbLine
 10
9.486510091027566
 20
1.072392195653725
 30
0.0
 11
9.486510091027566
 21
0.8614425403342879
 31
0.0
  0
LINE
  5
161
330
103
100
AcDbEntity
  8
HUB
  6
Continuous
 62
    93
370
     5
100
AcDbLine
 10
7.199513905724831
 20
0.8868955375419311
 30
0.0
 11
7.16951390572483
 21
0.9168955375419312
 31
0.0
  0
HATCH
  5
162
330
103
100
AcDbEntity
  8
HUB
  6
Continuous
 62
    93
370
     0
100
AcDbHatch
 10
0.0
 20
0.0
 30
0.0
210
0.0
220
0.0
230
1.0
  2
ANSI31
 70
     0
 71
     0
 91
        1
 92
        3
 72
     0
 73
     1
 93
       18
 10
7.16951390572483
 20
1.50989553754193
 10
7.16951390572483
 20
1.332392676518981
 10
8.044024815260868
 20
1.332392676518981
 10
8.044024815260868
 20
1.305892676518981
 10
8.109513905724831
 20
1.144892676518981
 10
8.044024815260868
 20
0.9838926765189821
 10
8.044024815260868
 20
0.957392676518982
 10
7.16951390572483
 20
0.957392676518982
 10
7.16951390572483
 20
0.9168955375419312
 10
7.199513905724831
 20
0.8868955375419311
 10
7.999010091027562
 20
0.8868955375419311
 10
7.999010091027562
 20
0.7594432574973745
 10
8.249010091027562
 20
0.7594432574973745
 10
8.249010091027562
 20
0.8614425403342879
 10
9.486510091027566
 20
0.8614425403342879
 10
9.486510091027566
 20
1.072392195653725
 10
8.111510091027566
 20
1.209891051244545
 10
8.111510091027566
 20
1.50989553754193
 97
        0
 75
     0
 76
     2
 52
90.0
 41
0.8
 77
     0
 78
     1
 53
135.0
 43
-0.9699652787436541
 44
-0.9232857137900687
 45
-0.0707106781186548
 46
-0.0707106781186548
 79
     1
 49
8000.0
 98
        0
  0
LINE
  5
163
330
103
100
AcDbEntity
  8
HUB
  6
Continuous
 62
    93
370
     5
100
AcDbLine
 10
8.249010091027562
 20
0.7594432574973745
 30
0.0
 11
7.999010091027562
 21
0.7594432574973745
 31
0.0
  0
LINE
  5
164
330
103
100
AcDbEntity
  8
HUB
  6
Continuous
 62
    93
370
     5
100
AcDbLine
 10
7.999010091027562
 20
0.8868955375419311
 30
0.0
 11
7.199513905724831
 21
0.8868955375419311
 31
0.0
  0
LINE
  5
165
330
103
100
AcDbEntity
  8
HUB
  6
Continuous
 62
    93
370
     5
100
AcDbLine
 10
7.999010091027562
 20
0.7594432574973745
 30
0.0
 11
7.999010091027562
 21
0.8868955375419311
 31
0.0
  0
LINE
  5
166
330
103
100
AcDbEntity
  8
HUB
  6
Continuous
 62
    93
370
     5
100
AcDbLine
 10
9.486510091027566
 20
0.8614425403342879
 30
0.0
 11
8.249010091027562
 21
0.8614425403342879
 31
0.0
  0
LINE
  5
167
330
103
100
AcDbEntity
  8
HUB
  6
Continuous
 62
    93
370
     5
100
AcDbLine
 10
8.249010091027562
 20
0.8614425403342879
 30
0.0
 11
8.249010091027562
 21
0.7594432574973745
 31
0.0
  0
LINE
  5
168
330
103
100
AcDbEntity
  8
HUB
  6
Continuous
 62
    93
370
     5
100
AcDbLine
 10
8.249010091027562
 20
3.260342810796324
 30
0.0
 11
7.999010091027562
 21
3.260342810796324
 31
0.0
  0
LINE
  5
169
330
103
100
AcDbEntity
  8
HUB
  6
Continuous
 62
    93
370
     5
100
AcDbLine
 10
7.41951390572483
 20
2.815570090459409
 30
0.0
 11
8.168287133259429
 21
2.815570090459409
 31
0.0
  0
POINT
  5
16A
330
103
100
AcDbEntity
  8
HUB
  6
Continuous
 62
    93
370
     0
100
AcDbPoint
 10
8.061585431298562
 20
2.009892676518981
 30
0.0
  0
POINT
  5
16B
330
103
100
AcDbEntity
  8
HUB
  6
Continuous
 62
    93
370
     0
100
AcDbPoint
 10
8.061585431298562
 20
2.009892676518981
 30
0.0
  0
POINT
  5
16C
330
103
100
AcDbEntity
  8
HUB
  6
Continuous
 62
    93
370
     0
100
AcDbPoint
 10
8.061585431298562
 20
2.009892676518981
 30
0.0
  0
POINT
  5
16D
330
103
100
AcDbEntity
  8
HUB
  6
Continuous
 62
    93
370
     0
100
AcDbPoint
 10
8.061585431298562
 20
2.009892676518981
 30
0.0
  0
POINT
  5
16E
330
103
100
AcDbEntity
  8
HUB
  6
Continuous
 62
    93
370
     0
100
AcDbPoint
 10
8.061585431298562
 20
2.009892676518981
 30
0.0
  0
POINT
  5
16F
330
103
100
AcDbEntity
  8
HUB
  6
Continuous
 62
    93
370
     0
100
AcDbPoint
 10
8.061585431298562
 20
2.009892676518981
 30
0.0
  0
HATCH
  5
170
330
103
100
AcDbEntity
  8
HUB
  6
Continuous
 62
    93
370
     0
100
AcDbHatch
 10
0.0
 20
0.0
 30
0.0
210
0.0
220
0.0
230
1.0
  2
ANSI31
 70
     0
 71
     0
 91
        1
 92
        3
 72
     0
 73
     1
 93
       12
 10
7.16951390572483
 20
3.10289553754193
 10
7.16951390572483
 20
2.89269754712445
 10
7.41951390572483
 20
2.89269754712445
 10
7.41951390572483
 20
2.815570090459409
 10
8.168287133259429
 20
2.815570090459409
 10
9.486510091027566
 20
2.947391250035609
 10
9.486510091027566
 20
3.158342574285094
 10
8.249010091027562
 20
3.158342574285094
 10
8.249010091027562
 20
3.260342810796324
 10
7.999010091027562
 20
3.260342810796324
 10
7.999010091027562
 20
3.132895537541929
 10
7.199513905724831
 20
3.132895537541929
 97
        0
 75
     0
 76
     2
 52
90.0
 41
0.8
 77
     0
 78
     1
 53
135.0
 43
-0.9699652787436541
 44
-0.9232857137900687
 45
-0.0707106781186548
 46
-0.0707106781186548
 79
     1
 49
8000.0
 98
        0
  0
LINE
  5
171
330
103
100
AcDbEntity
  8
HUB
  6
Continuous
 62
    93
370
     0
100
AcDbLine
 10
8.111510091027566
 20
2.809892394444783
 30
0.0
 11
9.486510091027566
 21
2.947392195653722
 31
0.0
  0
LINE
  5
172
330
103
100
AcDbEntity
  8
HUB
  6
Continuous
 62
    93
370
     0
100
AcDbLine
 10
8.111510091027566
 20
1.209891051244545
 30
0.0
 11
9.486510091027566
 21
1.072392195653725
 31
0.0
  0
DIMENSION
  5
173
330
103
100
AcDbEntity
  8
DIMS
  6
Continuous
 62
     1
370
     0
100
AcDbDimension
  2
_D1
 10
8.965840273412478
 20
2.419290935981588
 30
0.0
 11
-0.9699652787436541
 21
-0.9232857137900687
 31
0.0
 12
-0.9699652787436541
 22
-0.9232857137900687
 32
0.0
 71
     5
 42
-1.0
  3
DimStyle1
100
AcDbAlignedDimension
 13
8.111510091027566
 23
2.809892394444783
 33
0.0
 14
9.486510091027566
 24
2.947391250035609
 34
0.0
100
AcDbRotatedDimension
  0
LINE
  5
174
330
103
100
AcDbEntity
  8
CENTERLINES
  6
CENTERD
 62
     9
 48
0.5792490463256837
370
     0
100
AcDbLine
 10
7.16951390572483
 20
2.009895537541929
 30
0.0
 11
9.486510091027566
 21
2.009895537541929
 31
0.0
  0
POINT
  5
175
330
103
100
AcDbEntity
  8
HUB
  6
Continuous
 62
    93
370
     0
100
AcDbPoint
 10
7.167093480309791
 20
2.447390769170348
 30
0.0
  0
LINE
  5
176
330
103
100
AcDbEntity
  8
HUB
  6
Continuous
 62
    93
370
     0
100
AcDbLine
 10
8.111510091027566
 20
1.209891051244545
 30
0.0
 11
8.111510091027566
 21
2.809892394444783
 31
0.0
  0
LINE
  5
177
330
103
100
AcDbEntity
  8
HUB
  6
Continuous
 62
    93
370
     5
100
AcDbLine
 10
7.16951390572483
 20
3.10289553754193
 30
0.0
 11
7.16951390572483
 21
0.9168955375419312
 31
0.0
  0
DIMENSION
  5
178
330
103
100
AcDbEntity
  8
DIMS
  6
Continuous
 62
     1
370
     0
100
AcDbDimension
  2
_D4
 10
6.577674704871448
 20
2.026006066011718
 30
0.0
 11
-0.9699652787436541
 21
-0.9232857137900687
 31
0.0
 12
-0.9699652787436541
 22
-0.9232857137900687
 32
0.0
 71
     5
 42
-1.0
  3
DimStyle4
100
AcDbAlignedDimension
 13
7.16951390572483
 23
2.509895537541929
 33
0.0
 14
7.16951390572483
 24
1.50989553754193
 34
0.0
 50
90.0
100
AcDbRotatedDimension
  0
POINT
  5
179
330
103
100
AcDbEntity
  8
HUB
  6
Continuous
 62
    93
370
     0
100
AcDbPoint
 10
7.167051518639869
 20
1.572390769170348
 30
0.0
  0
LINE
  5
17A
330
103
100
AcDbEntity
  8
HUB
  6
Continuous
 62
    93
370
     5
100
AcDbLine
 10
7.16951390572483
 20
1.50989553754193
 30
0.0
 11
8.111510091027566
 21
1.50989553754193
 31
0.0
  0
LINE
  5
17B
330
103
100
AcDbEntity
  8
HUB
  6
CONTOURD
 62
    93
 48
0.2186277273840096
370
     0
100
AcDbLine
 10
7.16951390572483
 20
0.983892676518983
 30
0.0
 11
8.044024815260868
 21
0.983892676518983
 31
0.0
  0
LINE
  5
17C
330
103
100
AcDbEntity
  8
HUB
  6
CONTOURD
 62
    93
 48
0.2186277273840096
370
     0
100
AcDbLine
 10
7.16951390572483
 20
1.305892676518981
 30
0.0
 11
8.044024815260868
 21
1.305892676518981
 31
0.0
  0
LINE
  5
17D
330
103
100
AcDbEntity
  8
HUB
  6
Continuous
 62
    93
370
     0
100
AcDbLine
 10
7.16951390572483
 20
1.332392676518981
 30
0.0
 11
8.044024815260868
 21
1.332392676518981
 31
0.0
  0
LINE
  5
17E
330
103
100
AcDbEntity
  8
HUB
  6
Continuous
 62
    93
370
     0
100
AcDbLine
 10
7.16951390572483
 20
0.957392676518982
 30
0.0
 11
8.044024815260868
 21
0.957392676518982
 31
0.0
  0
LINE
  5
17F
330
103
100
AcDbEntity
  8
CENTERLINES
  6
CENTERD
 62
     9
 48
0.2186277273840096
370
     0
100
AcDbLine
 10
7.16951390572483
 20
1.144892676518982
 30
0.0
 11
8.044024815260868
 21
1.144892676518982
 31
0.0
  0
LINE
  5
180
330
103
100
AcDbEntity
  8
HUB
  6
Continuous
 62
    93
370
     5
100
AcDbLine
 10
8.109513905724831
 20
1.144892676518982
 30
0.0
 11
8.044024815260868
 21
1.305892676518981
 31
0.0
  0
LINE
  5
181
330
103
100
AcDbEntity
  8
HUB
  6
Continuous
 62
    93
370
     5
100
AcDbLine
 10
8.044024815260868
 20
1.305892676518981
 30
0.0
 11
8.044024815260868
 21
0.9838926765189821
 31
0.0
  0
LINE
  5
182
330
103
100
AcDbEntity
  8
HUB
  6
Continuous
 62
    93
370
     5
100
AcDbLine
 10
8.109513905724831
 20
1.144892676518981
 30
0.0
 11
8.044024815260868
 21
0.9838926765189821
 31
0.0
  0
LINE
  5
183
330
103
100
AcDbEntity
  8
HUB
  6
Continuous
 62
    93
370
     5
100
AcDbLine
 10
8.044024815260868
 20
0.9838926765189821
 30
0.0
 11
8.044024815260868
 21
0.957392676518982
 31
0.0
  0
LINE
  5
184
330
103
100
AcDbEntity
  8
HUB
  6
Continuous
 62
    93
370
     5
100
AcDbLine
 10
8.044024815260868
 20
1.305892676518981
 30
0.0
 11
8.044024815260868
 21
1.332392676518981
 31
0.0
  0
POINT
  5
185
330
103
100
AcDbEntity
  8
HUB
  6
Continuous
 62
    93
370
     0
100
AcDbPoint
 10
7.16951390572483
 20
2.009897444890563
 30
0.0
  0
POINT
  5
186
330
103
100
AcDbEntity
  8
HUB
  6
Continuous
 62
    93
370
     0
100
AcDbPoint
 10
7.16951390572483
 20
2.009897444890563
 30
0.0
  0
POINT
  5
187
330
103
100
AcDbEntity
  8
HUB
  6
Continuous
 62
    93
370
     0
100
AcDbPoint
 10
7.989513905724829
 20
2.009895537541929
 30
0.0
  0
POINT
  5
188
330
103
100
AcDbEntity
  8
HUB
  6
Continuous
 62
    93
370
     0
100
AcDbPoint
 10
7.989513905724829
 20
2.009895537541929
 30
0.0
  0
POINT
  5
189
330
103
100
AcDbEntity
  8
HUB
  6
Continuous
 62
    93
370
     0
100
AcDbPoint
 10
7.989513905724829
 20
2.009895537541929
 30
0.0
  0
POINT
  5
18A
330
103
100
AcDbEntity
  8
HUB
  6
Continuous
 62
    93
370
     0
100
AcDbPoint
 10
7.989513905724829
 20
2.009895537541929
 30
0.0
  0
POINT
  5
18B
330
103
100
AcDbEntity
  8
HUB
  6
Continuous
 62
    93
370
     0
100
AcDbPoint
 10
7.989513905724829
 20
2.009895537541929
 30
0.0
  0
POINT
  5
18C
330
103
100
AcDbEntity
  8
HUB
  6
Continuous
 62
    93
370
     0
100
AcDbPoint
 10
7.989513905724829
 20
2.009895537541929
 30
0.0
  0
POINT
  5
18D
330
103
100
AcDbEntity
  8
HUB
  6
Continuous
 62
    93
370
     0
100
AcDbPoint
 10
7.989513905724829
 20
2.009895537541929
 30
0.0
  0
LINE
  5
18E
330
103
100
AcDbEntity
  8
DIMS
  6
Continuous
 62
     1
370
     0
100
AcDbLine
 10
7.16020285902716
 20
3.145262447729767
 30
0.0
 11
6.643658714043819
 21
3.813274424700704
 31
0.0
  0
LINE
  5
18F
330
103
100
AcDbEntity
  8
DIMS
  6
Continuous
 62
     1
370
     0
100
AcDbLine
 10
6.643658714043819
 20
3.813274424700704
 30
0.0
 11
6.443658714043818
 21
3.813274424700704
 31
0.0
  0
LINE
  5
190
330
103
100
AcDbEntity
  8
HUB
  6
Continuous
 62
    93
370
     5
100
AcDbLine
 10
7.999010091027562
 20
3.260342810796324
 30
0.0
 11
7.999010091027562
 21
3.132895537541929
 31
0.0
  0
LINE
  5
191
330
103
100
AcDbEntity
  8
DIMS
  6
Continuous
 62
     1
370
     0
100
AcDbLine
 10
7.16020285902716
 20
3.145262447729767
 30
0.0
 11
7.102285081107417
 21
3.283629824668262
 31
0.0
  0
LINE
  5
192
330
103
100
AcDbEntity
  8
DIMS
  6
Continuous
 62
     1
370
     0
100
AcDbLine
 10
7.16020285902716
 20
3.145262447729767
 30
0.0
 11
7.04086090354867
 21
3.236133222253649
 31
0.0
  0
HATCH
  5
193
330
103
100
AcDbEntity
  8
HUB
  6
Continuous
 62
    93
370
     0
100
AcDbHatch
 10
0.0
 20
0.0
 30
0.0
210
0.0
220
0.0
230
1.0
  2
ANSI31
 70
     0
 71
     0
 91
        1
 92
        3
 72
     0
 73
     1
 93
        6
 10
7.41951390572483
 20
2.612469885991637
 10
7.41951390572483
 20
2.533297751592223
 10
7.16951390572483
 20
2.533297751592223
 10
7.16951390572483
 20
2.509895537541929
 10
8.111510091027566
 20
2.509895537541929
 10
8.111510091027566
 20
2.612469885991637
 97
        0
 75
     0
 76
     2
 52
90.0
 41
0.8
 77
     0
 78
     1
 53
135.0
 43
-0.9699652787436541
 44
-0.9232857137900687
 45
-0.0707106781186548
 46
-0.0707106781186548
 79
     1
 49
8000.0
 98
        0
  0
LINE
  5
194
330
103
100
AcDbEntity
  8
HUB
  6
Continuous
 62
    93
370
     5
100
AcDbLine
 10
7.41951390572483
 20
2.612469885991637
 30
0.0
 11
8.111510091027566
 21
2.612469885991637
 31
0.0
  0
LINE
  5
195
330
103
100
AcDbEntity
  8
HUB
  6
Continuous
 62
    93
370
     5
100
AcDbLine
 10
7.16951390572483
 20
2.509895537541929
 30
0.0
 11
8.111510091027566
 21
2.509895537541929
 31
0.0
  0
LINE
  5
196
330
103
100
AcDbEntity
  8
HUB
  6
Continuous
 62
    93
370
     5
100
AcDbLine
 10
7.999010091027562
 20
3.132895537541929
 30
0.0
 11
7.199513905724831
 21
3.132895537541929
 31
0.0
  0
LINE
  5
197
330
103
100
AcDbEntity
  8
CENTERLINES
  6
CENTERD
 62
     9
 48
0.2354990463256836
370
     0
100
AcDbLine
 10
8.111510091027566
 20
2.712997649358336
 30
0.0
 11
7.16951390572483
 21
2.712997649358336
 31
0.0
  0
POINT
  5
198
330
103
100
AcDbEntity
  8
HUB
  6
Continuous
 62
    93
370
     0
100
AcDbPoint
 10
7.16951390572483
 20
2.712997649358336
 30
0.0
  0
POINT
  5
199
330
103
100
AcDbEntity
  8
HUB
  6
Continuous
 62
    93
370
     0
100
AcDbPoint
 10
7.16951390572483
 20
2.712997649358336
 30
0.0
  0
POINT
  5
19A
330
103
100
AcDbEntity
  8
HUB
  6
Continuous
 62
    93
370
     0
100
AcDbPoint
 10
7.41951390572483
 20
2.714019988225524
 30
0.0
  0
POINT
  5
19B
330
103
100
AcDbEntity
  8
HUB
  6
Continuous
 62
    93
370
     0
100
AcDbPoint
 10
7.41951390572483
 20
2.815570090459409
 30
0.0
  0
LINE
  5
19C
330
103
100
AcDbEntity
  8
HUB
  6
Continuous
 62
    93
370
     5
100
AcDbLine
 10
7.41951390572483
 20
2.533297751592223
 30
0.0
 11
7.41951390572483
 21
2.89269754712445
 31
0.0
  0
LINE
  5
19D
330
103
100
AcDbEntity
  8
HUB
  6
Continuous
 62
    93
370
     5
100
AcDbLine
 10
7.16951390572483
 20
2.533297751592223
 30
0.0
 11
7.41951390572483
 21
2.533297751592223
 31
0.0
  0
POINT
  5
19E
330
103
100
AcDbEntity
  8
HUB
  6
Continuous
 62
    93
370
     0
100
AcDbPoint
 10
7.16951390572483
 20
2.533297751592223
 30
0.0
  0
POINT
  5
19F
330
103
100
AcDbEntity
  8
HUB
  6
Continuous
 62
    93
370
     0
100
AcDbPoint
 10
7.41951390572483
 20
2.612469885991637
 30
0.0
  0
LINE
  5
1A0
330
103
100
AcDbEntity
  8
HUB
  6
Continuous
 62
    93
370
     5
100
AcDbLine
 10
7.16951390572483
 20
2.89269754712445
 30
0.0
 11
7.41951390572483
 21
2.89269754712445
 31
0.0
  0
POINT
  5
1A1
330
103
100
AcDbEntity
  8
HUB
  6
Continuous
 62
    93
370
     0
100
AcDbPoint
 10
7.16951390572483
 20
2.89269754712445
 30
0.0
  0
LINE
  5
1A2
330
103
100
AcDbEntity
  8
HUB
  6
Continuous
 62
    93
370
     5
100
AcDbLine
 10
7.16951390572483
 20
3.10289553754193
 30
0.0
 11
7.199513905724831
 21
3.132895537541929
 31
0.0
  0
LINE
  5
1A3
330
103
100
AcDbEntity
  8
HUB
  6
Continuous
 62
    93
370
     0
100
AcDbLine
 10
9.486510091027566
 20
2.947392195653722
 30
0.0
 11
9.486510091027566
 21
1.072392195653725
 31
0.0
  0
LINE
  5
1A4
330
103
100
AcDbEntity
  8
DIMS
  6
Continuous
 62
     1
370
     0
100
AcDbLine
 10
9.196975788600266
 20
1.101345384917754
 30
0.0
 11
10.25793465370465
 21
3.626127751170209
 31
0.0
  0
LINE
  5
1A5
330
103
100
AcDbEntity
  8
DIMS
  6
Continuous
 62
     1
370
     0
100
AcDbLine
 10
9.196975788600266
 20
1.101345384917754
 30
0.0
 11
9.217315019572167
 21
1.249960039926847
 31
0.0
  0
LINE
  5
1A6
330
103
100
AcDbEntity
  8
DIMS
  6
Continuous
 62
     1
370
     0
100
AcDbLine
 10
9.196975788600266
 20
1.101345384917754
 30
0.0
 11
9.288897406819916
 21
1.219879836044338
 31
0.0
  0
POINT
  5
1A7
330
103
100
AcDbEntity
  8
HUB
  6
Continuous
 62
    93
370
     0
100
AcDbPoint
 10
8.311510091027562
 20
2.009891722844664
 30
0.0
  0
POINT
  5
1A8
330
103
100
AcDbEntity
  8
HUB
  6
Continuous
 62
    93
370
     0
100
AcDbPoint
 10
8.311510091027562
 20
2.009891722844664
 30
0.0
  0
POINT
  5
1A9
330
103
100
AcDbEntity
  8
HUB
  6
Continuous
 62
    93
370
     0
100
AcDbPoint
 10
9.544510091027566
 20
2.009892676518981
 30
0.0
  0
POINT
  5
1AA
330
103
100
AcDbEntity
  8
HUB
  6
Continuous
 62
    93
370
     0
100
AcDbPoint
 10
9.544510091027566
 20
2.009892676518981
 30
0.0
  0
POINT
  5
1AB
330
103
100
AcDbEntity
  8
HUB
  6
Continuous
 62
    93
370
     0
100
AcDbPoint
 10
9.544510091027566
 20
2.009892676518981
 30
0.0
  0
POINT
  5
1AC
330
103
100
AcDbEntity
  8
HUB
  6
Continuous
 62
    93
370
     0
100
AcDbPoint
 10
9.544510091027566
 20
2.009892676518981
 30
0.0
  0
POINT
  5
1AD
330
103
100
AcDbEntity
  8
HUB
  6
Continuous
 62
    93
370
     0
100
AcDbPoint
 10
9.544510091027566
 20
2.009892676518981
 30
0.0
  0
POINT
  5
1AE
330
103
100
AcDbEntity
  8
HUB
  6
Continuous
 62
    93
370
     0
100
AcDbPoint
 10
9.544510091027566
 20
2.009892676518981
 30
0.0
  0
POINT
  5
1AF
330
103
100
AcDbEntity
  8
HUB
  6
Continuous
 62
    93
370
     0
100
AcDbPoint
 10
9.544510091027566
 20
2.009892676518981
 30
0.0
  0
POINT
  5
1B0
330
103
100
AcDbEntity
  8
HUB
  6
Continuous
 62
    93
370
     0
100
AcDbPoint
 10
9.544510091027566
 20
2.009892676518981
 30
0.0
  0
TEXT
  5
1B1
330
103
100
AcDbEntity
  8
DIMS
  6
Continuous
 62
     1
370
     0
100
AcDbText
 10
8.84653923346225
 20
3.645014529050911
 30
0.0
 40
0.1
  1
NOTE C
  7
AEC_TECH
100
AcDbText
  0
LINE
  5
1B2
330
103
100
AcDbEntity
  8
HUB
  6
Continuous
 62
    93
370
     5
100
AcDbLine
 10
9.486510091027566
 20
3.158342574285094
 30
0.0
 11
8.249010091027562
 21
3.158342574285094
 31
0.0
  0
LINE
  5
1B3
330
103
100
AcDbEntity
  8
HUB
  6
Continuous
 62
    93
370
     5
100
AcDbLine
 10
8.249010091027562
 20
3.158342574285094
 30
0.0
 11
8.249010091027562
 21
3.260342810796324
 31
0.0
  0
POINT
  5
1B4
330
103
100
AcDbEntity
  8
HUB
  6
Continuous
 62
    93
370
     0
100
AcDbPoint
 10
8.310369496545142
 20
2.714019988225524
 30
0.0
  0
LINE
  5
1B5
330
103
100
AcDbEntity
  8
DIMS
  6
Continuous
 62
     1
370
     0
100
AcDbLine
 10
8.546539233462251
 20
3.695014529050911
 30
0.0
 11
8.74653923346225
 21
3.695014529050911
 31
0.0
  0
LINE
  5
1B6
330
103
100
AcDbEntity
  8
DIMS
  6
Continuous
 62
     1
370
     0
100
AcDbLine
 10
8.249010091027562
 20
3.260342810796324
 30
0.0
 11
8.546539233462251
 21
3.695014529050911
 31
0.0
  0
LINE
  5
1B7
330
103
100
AcDbEntity
  8
DIMS
  6
Continuous
 62
     1
370
     0
100
AcDbLine
 10
8.249010091027562
 20
3.260342810796324
 30
0.0
 11
8.298812808228447
 21
3.401833762307044
 31
0.0
  0
LINE
  5
1B8
330
103
100
AcDbEntity
  8
DIMS
  6
Continuous
 62
     1
370
     0
100
AcDbLine
 10
8.249010091027562
 20
3.260342810796324
 30
0.0
 11
8.362885985056383
 21
3.357976210609799
 31
0.0
  0
LINE
  5
1B9
330
103
100
AcDbEntity
  8
HUB
  6
Continuous
 62
    93
370
     0
100
AcDbLine
 10
9.486510091027566
 20
2.947391250035609
 30
0.0
 11
9.486510091027566
 21
3.158342574285094
 31
0.0
  0
TEXT
  5
1BA
330
103
100
AcDbEntity
  8
DIMS
  6
Continuous
 62
     1
370
     0
100
AcDbText
 10
10.55793465370465
 20
3.563627751170209
 30
0.0
 40
0.125
  1
2.500 TPF
  7
AEC_TECH
100
AcDbText
  0
TEXT
  5
1BB
330
103
100
AcDbEntity
  8
DIMS
  6
Continuous
 62
     7
370
     0
100
AcDbText
 10
6.28760688680997
 20
8.175036898706155
 30
0.0
 40
0.15
  1
79 ELECTRAVAN  to  AC24LS MOTOR
  7
ENGINEER
100
AcDbText
  0
TEXT
  5
1BC
330
103
100
AcDbEntity
  8
DIMS
  6
Continuous
 62
     7
370
     0
100
AcDbText
 10
6.28760688680997
 20
7.725036898706155
 30
0.0
 40
0.15
  1
06/3/09  REV A
  7
ENGINEER
100
AcDbText
  0
TEXT
  5
1BD
330
103
100
AcDbEntity
  8
DIMS
  6
Continuous
 62
     7
370
     0
100
AcDbText
 10
6.30924008870179
 20
8.560199459799951
 30
0.0
 40
0.15
  1
HUB
  7
ENGINEER
100
AcDbText
  0
ENDBLK
  5
1BF
330
103
100
AcDbEntity
  8
0
100
AcDbBlockEnd
  0
ENDSEC
  0
SECTION
  2
ENTITIES
  0
INSERT
  5
1C0
330
1F
100
AcDbEntity
  8
0
100
AcDbBlockReference
  2
A$C78A7205E
 10
0.7419351566215937
 20
0.7012331862479613
 30
0.0
  0
ENDSEC
  0
SECTION
  2
OBJECTS
  0
DICTIONARY
  5
C
330
0
100
AcDbDictionary
281
     1
  3
ACAD_GROUP
350
D
  3
ACAD_PLOTSTYLENAME
350
E
  3
ACAD_MLINESTYLE
350
17
  3
ACAD_PLOTSETTINGS
350
19
  3
ACAD_LAYOUT
350
1A
  0
DICTIONARY
  5
D
102
{ACAD_REACTORS
330
C
102
}
330
C
100
AcDbDictionary
281
     1
  0
ACDBDICTIONARYWDFLT
  5
E
102
{ACAD_REACTORS
330
C
102
}
330
C
100
AcDbDictionary
281
     1
  3
Normal
350
F
100
AcDbDictionaryWithDefault
340
F
  0
DICTIONARY
  5
17
102
{ACAD_REACTORS
330
C
102
}
330
C
100
AcDbDictionary
281
     1
  3
Standard
350
18
  0
DICTIONARY
  5
19
102
{ACAD_REACTORS
330
C
102
}
330
C
100
AcDbDictionary
281
     1
  0
DICTIONARY
  5
1A
102
{ACAD_REACTORS
330
C
102
}
330
C
100
AcDbDictionary
281
     1
  3
Layout1
350
1E
  3
Model
350
22
  3
Layout2
350
26
  0
ACDBPLACEHOLDER
  5
F
102
{ACAD_REACTORS
330
E
102
}
330
E
  0
MLINESTYLE
  5
18
102
{ACAD_REACTORS
330
17
102
}
330
17
100
AcDbMlineStyle
  2
STANDARD
 70
     0
  3

 62
   256
 51
90.0
 52
90.0
 71
     2
 49
0.5
 62
   256
  6
BYLAYER
 49
-0.5
 62
   256
  6
BYLAYER
  0
LAYOUT
  5
1E
102
{ACAD_REACTORS
330
1A
102
}
330
1A
100
AcDbPlotSettings
  1

  2
\\ZIPPY\SparcPrinter
  4

  6

 40
0.0
 41
0.0
 42
0.0
 43
0.0
 44
0.0
 45
0.0
 46
0.0
 47
0.0
 48
0.0
 49
0.0
140
0.0
141
0.0
142
1.0
143
1.0
 70
   688
 72
     0
 73
     0
 74
     5
  7
^A
 75
    16
147
1.0
148
0.0
149
0.0
100
AcDbLayout
  1
Layout1
 70
     1
 71
     1
 10
0.0
 20
0.0
 11
12.0
 21
9.0
 12
0.0
 22
0.0
 32
0.0
 14
1.000000000000000E+20
 24
1.000000000000000E+20
 34
1.000000000000000E+20
 15
-1.000000000000000E+20
 25
-1.000000000000000E+20
 35
-1.000000000000000E+20
146
0.0
 13
0.0
 23
0.0
 33
0.0
 16
1.0
 26
0.0
 36
0.0
 17
0.0
 27
1.0
 37
0.0
 76
     0
330
1B
  0
LAYOUT
  5
22
102
{ACAD_REACTORS
330
1A
102
}
330
1A
100
AcDbPlotSettings
  1

  2
\\ZIPPY\SparcPrinter
  4

  6

 40
0.0
 41
0.0
 42
0.0
 43
0.0
 44
0.0
 45
0.0
 46
0.0
 47
0.0
 48
0.0
 49
0.0
140
0.0
141
0.0
142
1.0
143
1.0
 70
  1712
 72
     0
 73
     0
 74
     0
  7
^A
 75
     0
147
1.0
148
0.0
149
0.0
100
AcDbLayout
  1
Model
 70
     1
 71
     0
 10
0.0
 20
0.0
 11
12.0
 21
9.0
 12
0.0
 22
0.0
 32
0.0
 14
0.0
 24
0.0
 34
0.0
 15
0.0
 25
0.0
 35
0.0
146
0.0
 13
0.0
 23
0.0
 33
0.0
 16
1.0
 26
0.0
 36
0.0
 17
0.0
 27
1.0
 37
0.0
 76
     0
330
1F
  0
LAYOUT
  5
26
102
{ACAD_REACTORS
330
1A
102
}
330
1A
100
AcDbPlotSettings
  1

  2
\\ZIPPY\SparcPrinter
  4

  6

 40
0.0
 41
0.0
 42
0.0
 43
0.0
 44
0.0
 45
0.0
 46
0.0
 47
0.0
 48
0.0
 49
0.0
140
0.0
141
0.0
142
1.0
143
1.0
 70
   688
 72
     0
 73
     0
 74
     5
  7
^A
 75
    16
147
1.0
148
0.0
149
0.0
100
AcDbLayout
  1
Layout2
 70
     1
 71
     2
 10
0.0
 20
0.0
 11
12.0
 21
9.0
 12
0.0
 22
0.0
 32
0.0
 14
0.0
 24
0.0
 34
0.0
 15
0.0
 25
0.0
 35
0.0
146
0.0
 13
0.0
 23
0.0
 33
0.0
 16
1.0
 26
0.0
 36
0.0
 17
0.0
 27
1.0
 37
0.0
 76
     0
330
23
  0
ENDSEC
  0
EOF
