  0
SECTION
  2
HEADER
  9
$ACADVER
  1
AC1006
  0
ENDSEC
  0
SECTION
  2
TABLES
  0
TABLE
  2
LTYPE
 70
    25
  0
LTYPE
  2
CONTINUOUS
 70
    64
  3
Solid line
 72
    64
 73
     0
 40
0.000000
  0
LTYPE
  2
DASHDOT
 70
    64
  3
__ . __ . __ . __ . __ . __ . __ . __ . __ . __
 72
    65
 73
     4
 40
1.000000
 49
0.500000
 49
-0.250000
 49
0.000000
 49
-0.250000
  0
LTYPE
  2
DASHED
 70
    64
  3
__ __ __ __ __ __ __ __ __ __ __ __ __ __ __ __
 72
    65
 73
     2
 40
0.750000
 49
0.500000
 49
-0.250000
  0
LTYPE
  2
DIVIDE
 70
    64
  3
____ . . ____ . . ____ . . ____ . . ____ . . __
 72
    65
 73
     6
 40
1.250000
 49
0.500000
 49
-0.250000
 49
0.000000
 49
-0.250000
 49
0.000000
 49
-0.250000
  0
LTYPE
  2
DOT
 70
    64
  3
. . . . . . . . . . . . . . . . . . . . . . . . 
 72
    65
 73
     2
 40
0.250000
 49
0.000000
 49
-0.250000
  0
ENDTAB
  0
ENDSEC
  0
SECTION
  2
ENTITIES
  0
TEXT
  8
DIMS
 62
     7
 10
2.848910
 20
9.475172
 30
0.000000
 40
0.125000
  1
ELECTRO AUTOMOTIVE
  0
TEXT
  8
DIMS
 62
     7
 10
2.848910
 20
9.287672
 30
0.000000
 40
0.125000
  1
P.O. BOX 1113 FELTON CA. 95018-1113
  0
LINE
  8
DIMS
 62
     7
  6
CONTINUOUS
 10
2.716164
 20
8.812683
 30
0.000000
 11
2.716164
 21
9.712668
 31
0.000000
  0
TEXT
  8
DIMS
 62
     7
 10
2.848910
 20
9.100172
 30
0.000000
 40
0.125000
  1
PHONE 831-429-1989 FAX 831-429-1907
  0
LINE
  8
DIMS
 62
     7
  6
CONTINUOUS
 10
6.409118
 20
9.712668
 30
0.000000
 11
6.409118
 21
8.812683
 31
0.000000
  0
LINE
  8
DIMS
 62
     7
  6
CONTINUOUS
 10
6.409118
 20
8.812683
 30
0.000000
 11
2.716164
 21
8.812683
 31
0.000000
  0
LINE
  8
DIMS
 62
     7
  6
CONTINUOUS
 10
2.716164
 20
9.712668
 30
0.000000
 11
6.409118
 21
9.712668
 31
0.000000
  0
TEXT
  8
DIMS
 62
     7
 10
2.848910
 20
8.912673
 30
0.000000
 40
0.125000
  1
DRAWN BY DAN SULLIVAN
  0
TEXT
  8
DIMS
 62
     7
 10
7.279205
 20
9.483485
 30
0.000000
 40
0.150000
  1
HUB
  0
TEXT
  8
DIMS
 62
     7
 10
7.257572
 20
9.098323
 30
0.000000
 40
0.150000
  1
79 ELECTRAVAN  to  AC24LS MOTOR
  0
TEXT
  8
DIMS
 62
     7
 10
7.257572
 20
8.648322
 30
0.000000
 40
0.150000
  1
06/3/09  REV A
  0
LINE
  8
CENTERLINES
 62
     7
  6
CONTINUOUS
 10
9.081475
 20
3.636283
 30
0.000000
 11
8.139479
 21
3.636283
 31
0.000000
  0
LINE
  8
CENTERLINES
 62
     7
  6
CONTINUOUS
 10
8.139479
 20
2.068178
 30
0.000000
 11
9.013990
 21
2.068178
 31
0.000000
  0
LINE
  8
CENTERLINES
 62
     7
  6
CONTINUOUS
 10
8.139479
 20
2.933181
 30
0.000000
 11
10.456475
 21
2.933181
 31
0.000000
  0
LINE
  8
DIMS
 62
     1
  6
CONTINUOUS
 10
9.081475
 20
3.342577
 30
0.000000
 11
9.226364
 21
3.381400
 31
0.000000
  0
LINE
  8
DIMS
 62
     1
  6
CONTINUOUS
 10
9.081475
 20
3.342577
 30
0.000000
 11
9.226364
 21
3.303754
 31
0.000000
  0
LINE
  8
DIMS
 62
     1
  6
CONTINUOUS
 10
10.456475
 20
3.342577
 30
0.000000
 11
10.311586
 21
3.303754
 31
0.000000
  0
LINE
  8
DIMS
 62
     1
  6
CONTINUOUS
 10
10.456475
 20
3.342577
 30
0.000000
 11
10.311586
 21
3.381400
 31
0.000000
  0
LINE
  8
DIMS
 62
     1
  6
CONTINUOUS
 10
9.081475
 20
3.663178
 30
0.000000
 11
9.081475
 21
3.292577
 31
0.000000
  0
LINE
  8
DIMS
 62
     1
  6
CONTINUOUS
 10
10.456475
 20
3.800677
 30
0.000000
 11
10.456475
 21
3.292577
 31
0.000000
  0
TEXT
  8
DIMS
 62
     7
 10
9.554360
 20
3.280077
 30
0.000000
 40
0.125000
  1
1.375
 50
0.000010
  0
LINE
  8
DIMS
 62
     1
  6
CONTINUOUS
 10
9.081475
 20
3.342577
 30
0.000000
 11
9.504360
 21
3.342577
 31
0.000000
  0
LINE
  8
DIMS
 62
     1
  6
CONTINUOUS
 10
10.033591
 20
3.342577
 30
0.000000
 11
10.456475
 21
3.342577
 31
0.000000
  0
LINE
  8
DIMS
 62
     1
  6
CONTINUOUS
 10
11.853999
 20
2.133177
 30
0.000000
 11
11.815176
 21
2.278066
 31
0.000000
  0
LINE
  8
DIMS
 62
     1
  6
CONTINUOUS
 10
11.853999
 20
2.133177
 30
0.000000
 11
11.892821
 21
2.278066
 31
0.000000
  0
LINE
  8
DIMS
 62
     1
  6
CONTINUOUS
 10
11.853999
 20
3.733178
 30
0.000000
 11
11.892821
 21
3.588289
 31
0.000000
  0
LINE
  8
DIMS
 62
     1
  6
CONTINUOUS
 10
11.853999
 20
3.733178
 30
0.000000
 11
11.815176
 21
3.588289
 31
0.000000
  0
LINE
  8
DIMS
 62
     1
  6
CONTINUOUS
 10
9.151475
 20
2.133177
 30
0.000000
 11
11.903999
 21
2.133177
 31
0.000000
  0
LINE
  8
DIMS
 62
     1
  6
CONTINUOUS
 10
9.151475
 20
3.733178
 30
0.000000
 11
11.903999
 21
3.733178
 31
0.000000
  0
TEXT
  8
DIMS
 62
     7
 10
11.620649
 20
2.870677
 30
0.000000
 40
0.125000
  1
1.600
  0
LINE
  8
DIMS
 62
     1
  6
CONTINUOUS
 10
11.853999
 20
2.133177
 30
0.000000
 11
11.853999
 21
2.820677
 31
0.000000
  0
LINE
  8
DIMS
 62
     1
  6
CONTINUOUS
 10
11.853999
 20
3.045677
 30
0.000000
 11
11.853999
 21
3.733178
 31
0.000000
  0
LINE
  8
DIMS
 62
     1
  6
CONTINUOUS
 10
6.663181
 20
1.810181
 30
0.000000
 11
6.624358
 21
1.955070
 31
0.000000
  0
LINE
  8
DIMS
 62
     1
  6
CONTINUOUS
 10
6.663181
 20
1.810181
 30
0.000000
 11
6.702004
 21
1.955070
 31
0.000000
  0
LINE
  8
DIMS
 62
     1
  6
CONTINUOUS
 10
6.663181
 20
4.056181
 30
0.000000
 11
6.702004
 21
3.911292
 31
0.000000
  0
LINE
  8
DIMS
 62
     1
  6
CONTINUOUS
 10
6.663181
 20
4.056181
 30
0.000000
 11
6.624358
 21
3.911292
 31
0.000000
  0
LINE
  8
DIMS
 62
     1
  6
CONTINUOUS
 10
8.099479
 20
1.810181
 30
0.000000
 11
6.613181
 21
1.810181
 31
0.000000
  0
LINE
  8
DIMS
 62
     1
  6
CONTINUOUS
 10
8.099479
 20
4.056181
 30
0.000000
 11
6.613181
 21
4.056181
 31
0.000000
  0
TEXT
  8
DIMS
 62
     7
 10
6.174222
 20
2.870681
 30
0.000000
 40
0.125000
  1
2.246
  0
TEXT
  8
DIMS
 62
     7
 10
6.644544
 20
2.983181
 30
0.000000
 40
0.125000
  1
+.000
  0
TEXT
  8
DIMS
 62
     7
 10
6.654723
 20
2.758181
 30
0.000000
 40
0.125000
  1
-.002
  0
LINE
  8
DIMS
 62
     1
  6
CONTINUOUS
 10
6.663181
 20
1.810181
 30
0.000000
 11
6.663181
 21
2.758181
 31
0.000000
  0
LINE
  8
DIMS
 62
     1
  6
CONTINUOUS
 10
6.663181
 20
3.108181
 30
0.000000
 11
6.663181
 21
4.056181
 31
0.000000
  0
LINE
  8
DIMS
 62
     1
  6
CONTINUOUS
 10
7.547640
 20
2.433181
 30
0.000000
 11
7.508817
 21
2.578070
 31
0.000000
  0
LINE
  8
DIMS
 62
     1
  6
CONTINUOUS
 10
7.547640
 20
2.433181
 30
0.000000
 11
7.586463
 21
2.578070
 31
0.000000
  0
LINE
  8
DIMS
 62
     1
  6
CONTINUOUS
 10
7.547640
 20
3.433181
 30
0.000000
 11
7.586463
 21
3.288292
 31
0.000000
  0
LINE
  8
DIMS
 62
     1
  6
CONTINUOUS
 10
7.547640
 20
3.433181
 30
0.000000
 11
7.508817
 21
3.288292
 31
0.000000
  0
LINE
  8
DIMS
 62
     1
  6
CONTINUOUS
 10
8.069479
 20
2.433181
 30
0.000000
 11
7.497640
 21
2.433181
 31
0.000000
  0
LINE
  8
DIMS
 62
     1
  6
CONTINUOUS
 10
8.069479
 20
3.433181
 30
0.000000
 11
7.497640
 21
3.433181
 31
0.000000
  0
TEXT
  8
DIMS
 62
     7
 10
7.373446
 20
2.870681
 30
0.000000
 40
0.125000
  1
1.00
  0
LINE
  8
DIMS
 62
     1
  6
CONTINUOUS
 10
7.547640
 20
2.433181
 30
0.000000
 11
7.547640
 21
2.820681
 31
0.000000
  0
LINE
  8
DIMS
 62
     1
  6
CONTINUOUS
 10
7.547640
 20
3.045681
 30
0.000000
 11
7.547640
 21
3.433181
 31
0.000000
  0
LINE
  8
DIMS
 62
     1
  6
CONTINUOUS
 10
8.139479
 20
4.904790
 30
0.000000
 11
8.284368
 21
4.943612
 31
0.000000
  0
LINE
  8
DIMS
 62
     1
  6
CONTINUOUS
 10
8.139479
 20
4.904790
 30
0.000000
 11
8.284368
 21
4.865967
 31
0.000000
  0
LINE
  8
DIMS
 62
     1
  6
CONTINUOUS
 10
8.968975
 20
4.904790
 30
0.000000
 11
8.824086
 21
4.865967
 31
0.000000
  0
LINE
  8
DIMS
 62
     1
  6
CONTINUOUS
 10
8.968975
 20
4.904790
 30
0.000000
 11
8.824086
 21
4.943612
 31
0.000000
  0
LINE
  8
DIMS
 62
     1
  6
CONTINUOUS
 10
8.139479
 20
4.096181
 30
0.000000
 11
8.139479
 21
4.954790
 31
0.000000
  0
LINE
  8
DIMS
 62
     1
  6
CONTINUOUS
 10
8.968975
 20
4.253629
 30
0.000000
 11
8.968975
 21
4.954790
 31
0.000000
  0
TEXT
  8
DIMS
 62
     7
 10
8.429106
 20
4.842290
 30
0.000000
 40
0.125000
  1
.83
 50
0.000010
  0
LINE
  8
DIMS
 62
     1
  6
CONTINUOUS
 10
8.139479
 20
4.904790
 30
0.000000
 11
8.379106
 21
4.904790
 31
0.000000
  0
LINE
  8
DIMS
 62
     1
  6
CONTINUOUS
 10
8.729348
 20
4.904790
 30
0.000000
 11
8.968975
 21
4.904790
 31
0.000000
  0
LINE
  8
DIMS
 62
     1
  6
CONTINUOUS
 10
8.968975
 20
5.222090
 30
0.000000
 11
8.824086
 21
5.183267
 31
0.000000
  0
LINE
  8
DIMS
 62
     1
  6
CONTINUOUS
 10
8.968975
 20
5.222090
 30
0.000000
 11
8.824086
 21
5.260913
 31
0.000000
  0
LINE
  8
DIMS
 62
     1
  6
CONTINUOUS
 10
9.218975
 20
5.222090
 30
0.000000
 11
9.363864
 21
5.260913
 31
0.000000
  0
LINE
  8
DIMS
 62
     1
  6
CONTINUOUS
 10
9.218975
 20
5.222090
 30
0.000000
 11
9.363864
 21
5.183267
 31
0.000000
  0
LINE
  8
DIMS
 62
     1
  6
CONTINUOUS
 10
8.968975
 20
4.253629
 30
0.000000
 11
8.968975
 21
5.272090
 31
0.000000
  0
LINE
  8
DIMS
 62
     1
  6
CONTINUOUS
 10
9.218975
 20
4.253629
 30
0.000000
 11
9.218975
 21
5.272090
 31
0.000000
  0
TEXT
  8
DIMS
 62
     7
 10
9.535935
 20
5.159590
 30
0.000000
 40
0.125000
  1
.25
  0
LINE
  8
DIMS
 62
     1
  6
CONTINUOUS
 10
8.968975
 20
5.222090
 30
0.000000
 11
8.668975
 21
5.222090
 31
0.000000
  0
LINE
  8
DIMS
 62
     1
  6
CONTINUOUS
 10
9.218975
 20
5.222090
 30
0.000000
 11
9.518975
 21
5.222090
 31
0.000000
  0
LINE
  8
DIMS
 62
     1
  6
CONTINUOUS
 10
10.166941
 20
2.024631
 30
0.000000
 11
11.227900
 21
4.549413
 31
0.000000
  0
LINE
  8
DIMS
 62
     1
  6
CONTINUOUS
 10
10.166941
 20
2.024631
 30
0.000000
 11
10.187280
 21
2.173246
 31
0.000000
  0
LINE
  8
DIMS
 62
     1
  6
CONTINUOUS
 10
10.166941
 20
2.024631
 30
0.000000
 11
10.258863
 21
2.143166
 31
0.000000
  0
LINE
  8
DIMS
 62
     1
  6
CONTINUOUS
 10
11.227900
 20
4.549413
 30
0.000000
 11
11.427900
 21
4.549413
 31
0.000000
  0
TEXT
  8
DIMS
 62
     7
 10
11.527900
 20
4.486914
 30
0.000000
 40
0.125000
  1
2.500 TPF
  0
LINE
  8
DIMS
 62
     1
  6
CONTINUOUS
 10
5.807778
 20
1.682729
 30
0.000000
 11
5.768956
 21
1.827618
 31
0.000000
  0
LINE
  8
DIMS
 62
     1
  6
CONTINUOUS
 10
5.807778
 20
1.682729
 30
0.000000
 11
5.846601
 21
1.827618
 31
0.000000
  0
LINE
  8
DIMS
 62
     1
  6
CONTINUOUS
 10
5.807778
 20
4.183629
 30
0.000000
 11
5.846601
 21
4.038740
 31
0.000000
  0
LINE
  8
DIMS
 62
     1
  6
CONTINUOUS
 10
5.807778
 20
4.183629
 30
0.000000
 11
5.768956
 21
4.038740
 31
0.000000
  0
LINE
  8
DIMS
 62
     1
  6
CONTINUOUS
 10
8.898975
 20
1.682729
 30
0.000000
 11
5.757778
 21
1.682729
 31
0.000000
  0
LINE
  8
DIMS
 62
     1
  6
CONTINUOUS
 10
8.898975
 20
4.183629
 30
0.000000
 11
5.757778
 21
4.183629
 31
0.000000
  0
TEXT
  8
DIMS
 62
     7
 10
5.626954
 20
2.870679
 30
0.000000
 40
0.125000
  1
2.50
  0
LINE
  8
DIMS
 62
     1
  6
CONTINUOUS
 10
5.807778
 20
1.682729
 30
0.000000
 11
5.807778
 21
2.820679
 31
0.000000
  0
LINE
  8
DIMS
 62
     1
  6
CONTINUOUS
 10
5.807778
 20
3.045679
 30
0.000000
 11
5.807778
 21
4.183629
 31
0.000000
  0
LINE
  8
DIMS
 62
     1
  6
CONTINUOUS
 10
8.130168
 20
4.068548
 30
0.000000
 11
7.613624
 21
4.736560
 31
0.000000
  0
LINE
  8
DIMS
 62
     1
  6
CONTINUOUS
 10
8.130168
 20
4.068548
 30
0.000000
 11
8.010826
 21
4.159419
 31
0.000000
  0
LINE
  8
DIMS
 62
     1
  6
CONTINUOUS
 10
8.130168
 20
4.068548
 30
0.000000
 11
8.072250
 21
4.206916
 31
0.000000
  0
LINE
  8
DIMS
 62
     1
  6
CONTINUOUS
 10
7.613624
 20
4.736560
 30
0.000000
 11
7.413624
 21
4.736560
 31
0.000000
  0
TEXT
  8
DIMS
 62
     7
 10
6.510438
 20
4.674060
 30
0.000000
 40
0.125000
  1
.03 x .03
  0
CIRCLE
  8
CENTERLINES
 62
     7
  6
CONTINUOUS
 10
3.125768
 20
2.933177
 30
0.000000
 40
0.865000
  0
CIRCLE
  8
CENTERLINES
 62
     7
  6
CONTINUOUS
 10
3.125768
 20
2.933177
 30
0.000000
 40
0.703001
  0
LINE
  8
CENTERLINES
 62
     7
  6
CONTINUOUS
 10
3.125768
 20
4.183177
 30
0.000000
 11
3.125768
 21
1.683177
 31
0.000000
  0
LINE
  8
CENTERLINES
 62
     7
  6
CONTINUOUS
 10
4.375768
 20
2.933177
 30
0.000000
 11
1.875768
 21
2.933177
 31
0.000000
  0
POINT
  8
HUB
 62
     7
 10
8.139479
 20
2.933183
 30
0.000000
  0
POINT
  8
HUB
 62
     7
 10
8.139479
 20
2.933183
 30
0.000000
  0
POINT
  8
HUB
 62
     7
 10
8.137059
 20
3.370676
 30
0.000000
  0
POINT
  8
HUB
 62
     7
 10
8.137017
 20
2.495676
 30
0.000000
  0
POINT
  8
HUB
 62
     7
 10
8.139479
 20
3.636283
 30
0.000000
  0
POINT
  8
HUB
 62
     7
 10
8.139479
 20
3.636283
 30
0.000000
  0
POINT
  8
HUB
 62
     7
 10
8.139479
 20
3.815983
 30
0.000000
  0
POINT
  8
HUB
 62
     7
 10
8.139479
 20
3.456583
 30
0.000000
  0
LINE
  8
HUB
 62
     7
  6
CONTINUOUS
 10
8.139479
 20
4.026181
 30
0.000000
 11
8.169479
 21
4.056181
 31
0.000000
  0
LINE
  8
HUB
 62
     7
  6
CONTINUOUS
 10
8.139479
 20
4.026181
 30
0.000000
 11
8.139479
 21
1.840181
 31
0.000000
  0
LINE
  8
HUB
 62
     7
  6
CONTINUOUS
 10
8.169479
 20
1.810181
 30
0.000000
 11
8.139479
 21
1.840181
 31
0.000000
  0
POINT
  8
HUB
 62
     7
 10
8.959479
 20
2.933181
 30
0.000000
  0
POINT
  8
HUB
 62
     7
 10
8.959479
 20
2.933181
 30
0.000000
  0
POINT
  8
HUB
 62
     7
 10
8.959479
 20
2.933181
 30
0.000000
  0
POINT
  8
HUB
 62
     7
 10
8.959479
 20
2.933181
 30
0.000000
  0
POINT
  8
HUB
 62
     7
 10
8.959479
 20
2.933181
 30
0.000000
  0
POINT
  8
HUB
 62
     7
 10
8.959479
 20
2.933181
 30
0.000000
  0
POINT
  8
HUB
 62
     7
 10
8.959479
 20
2.933181
 30
0.000000
  0
POINT
  8
HUB
 62
     7
 10
10.514475
 20
2.933178
 30
0.000000
  0
POINT
  8
HUB
 62
     7
 10
10.514475
 20
2.933178
 30
0.000000
  0
POINT
  8
HUB
 62
     7
 10
10.514475
 20
2.933178
 30
0.000000
  0
POINT
  8
HUB
 62
     7
 10
10.514475
 20
2.933178
 30
0.000000
  0
POINT
  8
HUB
 62
     7
 10
10.514475
 20
2.933178
 30
0.000000
  0
POINT
  8
HUB
 62
     7
 10
10.514475
 20
2.933178
 30
0.000000
  0
POINT
  8
HUB
 62
     7
 10
10.514475
 20
2.933178
 30
0.000000
  0
POINT
  8
HUB
 62
     7
 10
10.514475
 20
2.933178
 30
0.000000
  0
LINE
  8
HUB
 62
     7
  6
CONTINUOUS
 10
9.218975
 20
4.081628
 30
0.000000
 11
9.218975
 21
4.183629
 31
0.000000
  0
LINE
  8
HUB
 62
     7
  6
CONTINUOUS
 10
9.218975
 20
1.784728
 30
0.000000
 11
9.218975
 21
1.682729
 31
0.000000
  0
LINE
  8
HUB
 62
     7
  6
CONTINUOUS
 10
9.218975
 20
1.682729
 30
0.000000
 11
8.968975
 21
1.682729
 31
0.000000
  0
LINE
  8
HUB
 62
     7
  6
CONTINUOUS
 10
9.218975
 20
4.183629
 30
0.000000
 11
8.968975
 21
4.183629
 31
0.000000
  0
POINT
  8
HUB
 62
     7
 10
9.281475
 20
2.933177
 30
0.000000
  0
POINT
  8
HUB
 62
     7
 10
9.281475
 20
2.933177
 30
0.000000
  0
POINT
  8
HUB
 62
     7
 10
9.031551
 20
2.933178
 30
0.000000
  0
POINT
  8
HUB
 62
     7
 10
9.031551
 20
2.933178
 30
0.000000
  0
POINT
  8
HUB
 62
     7
 10
9.031551
 20
2.933178
 30
0.000000
  0
POINT
  8
HUB
 62
     7
 10
9.031551
 20
2.933178
 30
0.000000
  0
POINT
  8
HUB
 62
     7
 10
9.031551
 20
2.933178
 30
0.000000
  0
POINT
  8
HUB
 62
     7
 10
9.031551
 20
2.933178
 30
0.000000
  0
POINT
  8
HUB
 62
     7
 10
9.280335
 20
3.637306
 30
0.000000
  0
LINE
  8
HUB
 62
     7
  6
CONTINUOUS
 10
8.968975
 20
1.682729
 30
0.000000
 11
8.968975
 21
1.810181
 31
0.000000
  0
LINE
  8
HUB
 62
     7
  6
CONTINUOUS
 10
8.968975
 20
4.183629
 30
0.000000
 11
8.968975
 21
4.056181
 31
0.000000
  0
LINE
  8
HUB
 62
     7
  6
CONTINUOUS
 10
8.139479
 20
1.880678
 30
0.000000
 11
9.013990
 21
1.880678
 31
0.000000
  0
LINE
  8
HUB
 62
     7
  6
CONTINUOUS
 10
8.139479
 20
2.255678
 30
0.000000
 11
9.013990
 21
2.255678
 31
0.000000
  0
LINE
  8
HUB
 62
     7
  6
CONTINUOUS
 10
9.079479
 20
2.068178
 30
0.000000
 11
9.013990
 21
1.907178
 31
0.000000
  0
LINE
  8
HUB
 62
     7
  6
CONTINUOUS
 10
9.079479
 20
2.068178
 30
0.000000
 11
9.013990
 21
2.229178
 31
0.000000
  0
LINE
  8
HUB
 62
     7
  6
CONTINUOUS
 10
9.013990
 20
2.229178
 30
0.000000
 11
9.013990
 21
1.907178
 31
0.000000
  0
LINE
  8
HUB
 62
     7
  6
CONTINUOUS
 10
9.013990
 20
2.229178
 30
0.000000
 11
9.013990
 21
2.255678
 31
0.000000
  0
LINE
  8
HUB
 62
     7
  6
CONTINUOUS
 10
9.013990
 20
1.907178
 30
0.000000
 11
9.013990
 21
1.880678
 31
0.000000
  0
LINE
  8
HUB
 62
     7
  6
CONTINUOUS
 10
8.139479
 20
2.229178
 30
0.000000
 11
9.013990
 21
2.229178
 31
0.000000
  0
LINE
  8
HUB
 62
     7
  6
CONTINUOUS
 10
8.139479
 20
1.907178
 30
0.000000
 11
9.013990
 21
1.907178
 31
0.000000
  0
LINE
  8
HUB
 62
     7
  6
CONTINUOUS
 10
8.968975
 20
4.056181
 30
0.000000
 11
8.169479
 21
4.056181
 31
0.000000
  0
LINE
  8
HUB
 62
     7
  6
CONTINUOUS
 10
8.968975
 20
1.810181
 30
0.000000
 11
8.169479
 21
1.810181
 31
0.000000
  0
LINE
  8
HUB
 62
     7
  6
CONTINUOUS
 10
10.456475
 20
4.081628
 30
0.000000
 11
9.218975
 21
4.081628
 31
0.000000
  0
LINE
  8
HUB
 62
     7
  6
CONTINUOUS
 10
10.456475
 20
1.784728
 30
0.000000
 11
9.218975
 21
1.784728
 31
0.000000
  0
LINE
  8
HUB
 62
     7
  6
CONTINUOUS
 10
10.456475
 20
3.870678
 30
0.000000
 11
10.456475
 21
1.995678
 31
0.000000
  0
LINE
  8
HUB
 62
     7
  6
CONTINUOUS
 10
8.139479
 20
3.433181
 30
0.000000
 11
9.081475
 21
3.433181
 31
0.000000
  0
LINE
  8
HUB
 62
     7
  6
CONTINUOUS
 10
8.139479
 20
2.433181
 30
0.000000
 11
9.081475
 21
2.433181
 31
0.000000
  0
LINE
  8
HUB
 62
     7
  6
CONTINUOUS
 10
8.139479
 20
3.815983
 30
0.000000
 11
8.389479
 21
3.815983
 31
0.000000
  0
LINE
  8
HUB
 62
     7
  6
CONTINUOUS
 10
8.139479
 20
3.456583
 30
0.000000
 11
8.389479
 21
3.456583
 31
0.000000
  0
LINE
  8
HUB
 62
     7
  6
CONTINUOUS
 10
8.389479
 20
3.456583
 30
0.000000
 11
8.389479
 21
3.815983
 31
0.000000
  0
POINT
  8
HUB
 62
     7
 10
8.389479
 20
3.637306
 30
0.000000
  0
POINT
  8
HUB
 62
     7
 10
8.389479
 20
3.738856
 30
0.000000
  0
POINT
  8
HUB
 62
     7
 10
8.389479
 20
3.535756
 30
0.000000
  0
LINE
  8
HUB
 62
     7
  6
CONTINUOUS
 10
8.389479
 20
3.535756
 30
0.000000
 11
9.081475
 21
3.535756
 31
0.000000
  0
LINE
  8
HUB
 62
     7
  6
CONTINUOUS
 10
8.389479
 20
3.738856
 30
0.000000
 11
9.138252
 21
3.738856
 31
0.000000
  0
LINE
  8
HUB
 62
     7
  6
CONTINUOUS
 10
9.081475
 20
2.133177
 30
0.000000
 11
10.456475
 21
1.995678
 31
0.000000
  0
LINE
  8
HUB
 62
     7
  6
CONTINUOUS
 10
9.081475
 20
3.733178
 30
0.000000
 11
10.456475
 21
3.870678
 31
0.000000
  0
LINE
  8
HUB
 62
     7
  6
CONTINUOUS
 10
9.081475
 20
2.133177
 30
0.000000
 11
9.081475
 21
3.733178
 31
0.000000
  0
LINE
  8
HUB
 62
     7
  6
CONTINUOUS
 10
10.456475
 20
1.995678
 30
0.000000
 11
10.456475
 21
1.784728
 31
0.000000
  0
LINE
  8
HUB
 62
     7
  6
CONTINUOUS
 10
10.456475
 20
3.870677
 30
0.000000
 11
10.456475
 21
4.081628
 31
0.000000
  0
CIRCLE
  8
HUB
 62
     7
  6
CONTINUOUS
 10
3.125768
 20
2.933177
 30
0.000000
 40
1.250000
  0
POINT
  8
HUB
 62
     7
 10
3.125768
 20
2.933177
 30
0.000000
  0
POINT
  8
HUB
 62
     7
 10
3.125768
 20
2.933177
 30
0.000000
  0
POINT
  8
HUB
 62
     7
 10
3.125768
 20
2.933177
 30
0.000000
  0
POINT
  8
HUB
 62
     7
 10
3.828868
 20
2.933177
 30
0.000000
  0
POINT
  8
HUB
 62
     7
 10
3.343038
 20
3.601864
 30
0.000000
  0
POINT
  8
HUB
 62
     7
 10
2.556948
 20
3.346449
 30
0.000000
  0
POINT
  8
HUB
 62
     7
 10
2.556948
 20
2.519905
 30
0.000000
  0
POINT
  8
HUB
 62
     7
 10
3.343038
 20
2.264489
 30
0.000000
  0
POINT
  8
HUB
 62
     7
 10
3.783094
 20
3.410752
 30
0.000000
  0
CIRCLE
  8
HUB
 62
     7
  6
CONTINUOUS
 10
3.125767
 20
2.933179
 30
0.000000
 40
1.123000
  0
CIRCLE
  8
HUB
 62
     7
  6
CONTINUOUS
 10
2.774267
 20
3.541993
 30
0.000000
 40
0.101500
  0
CIRCLE
  8
HUB
 62
     7
  6
CONTINUOUS
 10
2.774267
 20
3.541993
 30
0.000000
 40
0.179499
  0
CIRCLE
  8
HUB
 62
     7
  6
CONTINUOUS
 10
2.422768
 20
2.933177
 30
0.000000
 40
0.101500
  0
CIRCLE
  8
HUB
 62
     7
  6
CONTINUOUS
 10
2.422768
 20
2.933177
 30
0.000000
 40
0.179500
  0
CIRCLE
  8
HUB
 62
     7
  6
CONTINUOUS
 10
2.774268
 20
2.324360
 30
0.000000
 40
0.101499
  0
CIRCLE
  8
HUB
 62
     7
  6
CONTINUOUS
 10
2.774268
 20
2.324360
 30
0.000000
 40
0.179500
  0
CIRCLE
  8
HUB
 62
     7
  6
CONTINUOUS
 10
3.477268
 20
2.324362
 30
0.000000
 40
0.101500
  0
CIRCLE
  8
HUB
 62
     7
  6
CONTINUOUS
 10
3.477268
 20
2.324362
 30
0.000000
 40
0.179501
  0
CIRCLE
  8
HUB
 62
     7
  6
CONTINUOUS
 10
3.828768
 20
2.933179
 30
0.000000
 40
0.101500
  0
CIRCLE
  8
HUB
 62
     7
  6
CONTINUOUS
 10
3.828768
 20
2.933179
 30
0.000000
 40
0.179500
  0
CIRCLE
  8
HUB
 62
     7
  6
CONTINUOUS
 10
3.477267
 20
3.541993
 30
0.000000
 40
0.101499
  0
CIRCLE
  8
HUB
 62
     7
  6
CONTINUOUS
 10
3.477267
 20
3.541993
 30
0.000000
 40
0.179500
  0
CIRCLE
  8
HUB
 62
     7
  6
CONTINUOUS
 10
3.125768
 20
3.798177
 30
0.000000
 40
0.166000
  0
CIRCLE
  8
HUB
 62
     7
  6
CONTINUOUS
 10
3.125768
 20
3.798177
 30
0.000000
 40
0.187500
  0
CIRCLE
  8
HUB
 62
     7
  6
CONTINUOUS
 10
2.376656
 20
3.365677
 30
0.000000
 40
0.166000
  0
CIRCLE
  8
HUB
 62
     7
  6
CONTINUOUS
 10
2.376656
 20
3.365677
 30
0.000000
 40
0.187500
  0
CIRCLE
  8
HUB
 62
     7
  6
CONTINUOUS
 10
2.376656
 20
2.500677
 30
0.000000
 40
0.166000
  0
CIRCLE
  8
HUB
 62
     7
  6
CONTINUOUS
 10
2.376656
 20
2.500677
 30
0.000000
 40
0.187500
  0
CIRCLE
  8
HUB
 62
     7
  6
CONTINUOUS
 10
3.125768
 20
2.068177
 30
0.000000
 40
0.166000
  0
CIRCLE
  8
HUB
 62
     7
  6
CONTINUOUS
 10
3.125768
 20
2.068177
 30
0.000000
 40
0.187500
  0
CIRCLE
  8
HUB
 62
     7
  6
CONTINUOUS
 10
3.874880
 20
2.500677
 30
0.000000
 40
0.166000
  0
CIRCLE
  8
HUB
 62
     7
  6
CONTINUOUS
 10
3.874880
 20
2.500677
 30
0.000000
 40
0.187500
  0
CIRCLE
  8
HUB
 62
     7
  6
CONTINUOUS
 10
3.125768
 20
2.933177
 30
0.000000
 40
0.500000
  0
CIRCLE
  8
HUB
 62
     7
  6
CONTINUOUS
 10
3.842885
 20
3.416878
 30
0.000000
 40
0.166000
  0
CIRCLE
  8
HUB
 62
     7
  6
CONTINUOUS
 10
3.842885
 20
3.416878
 30
0.000000
 40
0.187500
  0
LINE
  8
DIMS
 62
     1
  6
CONTINUOUS
 10
3.024162
 20
3.955760
 30
0.000000
 11
2.617223
 21
5.620229
 31
0.000000
  0
LINE
  8
DIMS
 62
     1
  6
CONTINUOUS
 10
3.024162
 20
3.955760
 30
0.000000
 11
2.952040
 21
4.087283
 31
0.000000
  0
LINE
  8
DIMS
 62
     1
  6
CONTINUOUS
 10
3.024162
 20
3.955760
 30
0.000000
 11
3.027464
 21
4.105723
 31
0.000000
  0
LINE
  8
DIMS
 62
     1
  6
CONTINUOUS
 10
2.617223
 20
5.620229
 30
0.000000
 11
2.417223
 21
5.620229
 31
0.000000
  0
TEXT
  8
DIMS
 62
     7
 10
1.683208
 20
5.557729
 30
0.000000
 40
0.125000
  1
NOTE B
  0
LINE
  8
DIMS
 62
     1
  6
CONTINUOUS
 10
3.571137
 20
3.694991
 30
0.000000
 11
4.732797
 21
4.759791
 31
0.000000
  0
LINE
  8
DIMS
 62
     1
  6
CONTINUOUS
 10
3.571137
 20
3.694991
 30
0.000000
 11
3.651712
 21
3.821512
 31
0.000000
  0
LINE
  8
DIMS
 62
     1
  6
CONTINUOUS
 10
3.571137
 20
3.694991
 30
0.000000
 11
3.704178
 21
3.764274
 31
0.000000
  0
LINE
  8
DIMS
 62
     1
  6
CONTINUOUS
 10
4.732797
 20
4.759791
 30
0.000000
 11
4.932797
 21
4.759791
 31
0.000000
  0
TEXT
  8
DIMS
 62
     7
 10
5.032797
 20
4.697291
 30
0.000000
 40
0.125000
  1
NOTE A
  0
LINE
  8
DIMS
 62
     1
  6
CONTINUOUS
 10
3.125768
 20
4.893067
 30
0.000000
 11
2.980879
 21
4.854245
 31
0.000000
  0
LINE
  8
DIMS
 62
     1
  6
CONTINUOUS
 10
3.125768
 20
4.893067
 30
0.000000
 11
2.980879
 21
4.931890
 31
0.000000
  0
LINE
  8
DIMS
 62
     1
  6
CONTINUOUS
 10
1.428452
 20
3.913122
 30
0.000000
 11
1.467275
 21
4.058011
 31
0.000000
  0
LINE
  8
DIMS
 62
     1
  6
CONTINUOUS
 10
1.428452
 20
3.913122
 30
0.000000
 11
1.534518
 21
4.019188
 31
0.000000
  0
LINE
  8
DIMS
 62
     1
  6
CONTINUOUS
 10
3.125768
 20
3.868177
 30
0.000000
 11
3.125768
 21
4.943067
 31
0.000000
  0
LINE
  8
DIMS
 62
     1
  6
CONTINUOUS
 10
2.316034
 20
3.400677
 30
0.000000
 11
1.385151
 21
3.938122
 31
0.000000
  0
TEXT
  8
DIMS
 62
     7
 10
1.949911
 20
4.567992
 30
0.000000
 40
0.125000
  1
60.0
  0
ARC
  8
DIMS
 62
     1
  6
CONTINUOUS
 10
3.125768
 20
2.933177
 30
0.000000
 40
1.959891
 50
90.000000
 51
112.567723
  0
ARC
  8
DIMS
 62
     1
  6
CONTINUOUS
 10
3.125768
 20
2.933177
 30
0.000000
 40
1.959891
 50
126.038266
 51
150.000000
  0
LINE
  8
DIMS
 62
     1
  6
CONTINUOUS
 10
1.428452
 20
3.913122
 30
0.000000
 11
1.389629
 21
3.768233
 31
0.000000
  0
LINE
  8
DIMS
 62
     1
  6
CONTINUOUS
 10
1.428452
 20
3.913122
 30
0.000000
 11
1.322386
 21
3.807056
 31
0.000000
  0
LINE
  8
DIMS
 62
     1
  6
CONTINUOUS
 10
1.428452
 20
1.953231
 30
0.000000
 11
1.322386
 21
2.059297
 31
0.000000
  0
LINE
  8
DIMS
 62
     1
  6
CONTINUOUS
 10
1.428452
 20
1.953231
 30
0.000000
 11
1.389629
 21
2.098120
 31
0.000000
  0
LINE
  8
DIMS
 62
     1
  6
CONTINUOUS
 10
2.316034
 20
3.400677
 30
0.000000
 11
1.385151
 21
3.938122
 31
0.000000
  0
LINE
  8
DIMS
 62
     1
  6
CONTINUOUS
 10
2.316034
 20
2.465677
 30
0.000000
 11
1.385151
 21
1.928231
 31
0.000000
  0
TEXT
  8
DIMS
 62
     7
 10
0.969965
 20
2.870677
 30
0.000000
 40
0.125000
  1
60.0
  0
ARC
  8
DIMS
 62
     1
  6
CONTINUOUS
 10
3.125768
 20
2.933177
 30
0.000000
 40
1.959891
 50
150.000000
 51
176.709347
  0
ARC
  8
DIMS
 62
     1
  6
CONTINUOUS
 10
3.125768
 20
2.933177
 30
0.000000
 40
1.959891
 50
183.290653
 51
210.000000
  0
LINE
  8
DIMS
 62
     1
  6
CONTINUOUS
 10
1.428452
 20
1.953231
 30
0.000000
 11
1.534518
 21
1.847165
 31
0.000000
  0
LINE
  8
DIMS
 62
     1
  6
CONTINUOUS
 10
1.428452
 20
1.953231
 30
0.000000
 11
1.467275
 21
1.808342
 31
0.000000
  0
LINE
  8
DIMS
 62
     1
  6
CONTINUOUS
 10
3.125768
 20
0.973286
 30
0.000000
 11
2.980879
 21
0.934463
 31
0.000000
  0
LINE
  8
DIMS
 62
     1
  6
CONTINUOUS
 10
3.125768
 20
0.973286
 30
0.000000
 11
2.980879
 21
1.012109
 31
0.000000
  0
LINE
  8
DIMS
 62
     1
  6
CONTINUOUS
 10
2.316034
 20
2.465677
 30
0.000000
 11
1.385151
 21
1.928231
 31
0.000000
  0
LINE
  8
DIMS
 62
     1
  6
CONTINUOUS
 10
3.125768
 20
1.998177
 30
0.000000
 11
3.125768
 21
0.923286
 31
0.000000
  0
TEXT
  8
DIMS
 62
     7
 10
1.949911
 20
1.173361
 30
0.000000
 40
0.125000
  1
60.0
  0
ARC
  8
DIMS
 62
     1
  6
CONTINUOUS
 10
3.125768
 20
2.933177
 30
0.000000
 40
1.959891
 50
210.000000
 51
233.961734
  0
ARC
  8
DIMS
 62
     1
  6
CONTINUOUS
 10
3.125768
 20
2.933177
 30
0.000000
 40
1.959891
 50
247.432277
 51
270.000000
  0
LINE
  8
DIMS
 62
     1
  6
CONTINUOUS
 10
3.125768
 20
0.973286
 30
0.000000
 11
3.270656
 21
1.012109
 31
0.000000
  0
LINE
  8
DIMS
 62
     1
  6
CONTINUOUS
 10
3.125768
 20
0.973286
 30
0.000000
 11
3.270656
 21
0.934463
 31
0.000000
  0
LINE
  8
DIMS
 62
     1
  6
CONTINUOUS
 10
4.823083
 20
1.953231
 30
0.000000
 11
4.784260
 21
1.808342
 31
0.000000
  0
LINE
  8
DIMS
 62
     1
  6
CONTINUOUS
 10
4.823083
 20
1.953231
 30
0.000000
 11
4.717017
 21
1.847165
 31
0.000000
  0
LINE
  8
DIMS
 62
     1
  6
CONTINUOUS
 10
3.125768
 20
1.998177
 30
0.000000
 11
3.125768
 21
0.923286
 31
0.000000
  0
LINE
  8
DIMS
 62
     1
  6
CONTINUOUS
 10
3.935501
 20
2.465677
 30
0.000000
 11
4.866384
 21
1.928231
 31
0.000000
  0
TEXT
  8
DIMS
 62
     7
 10
3.909802
 20
1.173361
 30
0.000000
 40
0.125000
  1
60.0
  0
ARC
  8
DIMS
 62
     1
  6
CONTINUOUS
 10
3.125768
 20
2.933177
 30
0.000000
 40
1.959891
 50
270.000000
 51
292.567723
  0
ARC
  8
DIMS
 62
     1
  6
CONTINUOUS
 10
3.125768
 20
2.933177
 30
0.000000
 40
1.959891
 50
306.038266
 51
330.000000
  0
LINE
  8
DIMS
 62
     1
  6
CONTINUOUS
 10
4.823083
 20
1.953231
 30
0.000000
 11
4.861906
 21
2.098120
 31
0.000000
  0
LINE
  8
DIMS
 62
     1
  6
CONTINUOUS
 10
4.823083
 20
1.953231
 30
0.000000
 11
4.929149
 21
2.059297
 31
0.000000
  0
LINE
  8
DIMS
 62
     1
  6
CONTINUOUS
 10
4.750591
 20
4.029134
 30
0.000000
 11
4.863797
 21
3.930725
 31
0.000000
  0
LINE
  8
DIMS
 62
     1
  6
CONTINUOUS
 10
4.750591
 20
4.029134
 30
0.000000
 11
4.799426
 21
3.887306
 31
0.000000
  0
LINE
  8
DIMS
 62
     1
  6
CONTINUOUS
 10
3.935501
 20
2.465677
 30
0.000000
 11
4.866384
 21
1.928231
 31
0.000000
  0
LINE
  8
DIMS
 62
     1
  6
CONTINUOUS
 10
3.900918
 20
3.456022
 30
0.000000
 11
4.792043
 21
4.057093
 31
0.000000
  0
TEXT
  8
DIMS
 62
     7
 10
4.891612
 20
2.939076
 30
0.000000
 40
0.125000
  1
64.0
  0
ARC
  8
DIMS
 62
     1
  6
CONTINUOUS
 10
3.125768
 20
2.933177
 30
0.000000
 40
1.959891
 50
330.000000
 51
358.710641
  0
ARC
  8
DIMS
 62
     1
  6
CONTINUOUS
 10
3.125768
 20
2.933177
 30
0.000000
 40
1.959891
 50
5.295976
 51
34.000000
  0
LINE
  8
DIMS
 62
     1
  6
CONTINUOUS
 10
4.750591
 20
4.029134
 30
0.000000
 11
4.637384
 21
4.127543
 31
0.000000
  0
LINE
  8
DIMS
 62
     1
  6
CONTINUOUS
 10
4.750591
 20
4.029134
 30
0.000000
 11
4.701756
 21
4.170961
 31
0.000000
  0
LINE
  8
DIMS
 62
     1
  6
CONTINUOUS
 10
3.125768
 20
4.893067
 30
0.000000
 11
3.270656
 21
4.931890
 31
0.000000
  0
LINE
  8
DIMS
 62
     1
  6
CONTINUOUS
 10
3.125768
 20
4.893067
 30
0.000000
 11
3.270656
 21
4.854245
 31
0.000000
  0
LINE
  8
DIMS
 62
     1
  6
CONTINUOUS
 10
3.900918
 20
3.456022
 30
0.000000
 11
4.792043
 21
4.057093
 31
0.000000
  0
LINE
  8
DIMS
 62
     1
  6
CONTINUOUS
 10
3.125768
 20
3.868177
 30
0.000000
 11
3.125768
 21
4.943067
 31
0.000000
  0
TEXT
  8
DIMS
 62
     7
 10
3.858389
 20
4.601157
 30
0.000000
 40
0.125000
  1
56.0
  0
ARC
  8
DIMS
 62
     1
  6
CONTINUOUS
 10
3.125768
 20
2.933177
 30
0.000000
 40
1.959891
 50
34.000000
 51
55.643931
  0
ARC
  8
DIMS
 62
     1
  6
CONTINUOUS
 10
3.125768
 20
2.933177
 30
0.000000
 40
1.959891
 50
69.616889
 51
90.000000
  0
LINE
  8
DIMS
 62
     1
  6
CONTINUOUS
 10
3.611858
 20
5.265002
 30
0.000000
 11
3.811858
 21
5.265002
 31
0.000000
  0
LINE
  8
DIMS
 62
     1
  6
CONTINUOUS
 10
3.269231
 20
3.621383
 30
0.000000
 11
3.277669
 21
3.471621
 31
0.000000
  0
LINE
  8
DIMS
 62
     1
  6
CONTINUOUS
 10
3.269231
 20
3.621383
 30
0.000000
 11
3.201657
 21
3.487466
 31
0.000000
  0
LINE
  8
DIMS
 62
     1
  6
CONTINUOUS
 10
2.982305
 20
2.244970
 30
0.000000
 11
2.973867
 21
2.394733
 31
0.000000
  0
LINE
  8
DIMS
 62
     1
  6
CONTINUOUS
 10
2.982305
 20
2.244970
 30
0.000000
 11
3.049878
 21
2.378887
 31
0.000000
  0
LINE
  8
DIMS
 62
     1
  6
CONTINUOUS
 10
2.982305
 20
2.244970
 30
0.000000
 11
3.611858
 21
5.265002
 31
0.000000
  0
TEXT
  8
DIMS
 62
     7
 10
3.861858
 20
5.202502
 30
0.000000
 40
0.125000
  1
1.406 B.C.
  0
LINE
  8
DIMS
 62
     1
  6
CONTINUOUS
 10
2.530390
 20
5.265002
 30
0.000000
 11
2.330390
 21
5.265002
 31
0.000000
  0
LINE
  8
DIMS
 62
     1
  6
CONTINUOUS
 10
2.911775
 20
3.771289
 30
0.000000
 11
2.985235
 21
3.640508
 31
0.000000
  0
LINE
  8
DIMS
 62
     1
  6
CONTINUOUS
 10
2.911775
 20
3.771289
 30
0.000000
 11
2.910003
 21
3.621299
 31
0.000000
  0
LINE
  8
DIMS
 62
     1
  6
CONTINUOUS
 10
3.339760
 20
2.095064
 30
0.000000
 11
3.266300
 21
2.225845
 31
0.000000
  0
LINE
  8
DIMS
 62
     1
  6
CONTINUOUS
 10
3.339760
 20
2.095064
 30
0.000000
 11
3.341532
 21
2.245054
 31
0.000000
  0
LINE
  8
DIMS
 62
     1
  6
CONTINUOUS
 10
3.339760
 20
2.095064
 30
0.000000
 11
2.530390
 21
5.265002
 31
0.000000
  0
TEXT
  8
DIMS
 62
     7
 10
1.428469
 20
5.202502
 30
0.000000
 40
0.125000
  1
1.730 B.C.
  0
LINE
  8
DIMS
 62
     1
  6
CONTINUOUS
 10
8.139479
 20
5.619106
 30
0.000000
 11
8.284368
 21
5.657929
 31
0.000000
  0
LINE
  8
DIMS
 62
     1
  6
CONTINUOUS
 10
8.139479
 20
5.619106
 30
0.000000
 11
8.284368
 21
5.580283
 31
0.000000
  0
LINE
  8
DIMS
 62
     1
  6
CONTINUOUS
 10
10.456475
 20
5.619106
 30
0.000000
 11
10.311586
 21
5.580283
 31
0.000000
  0
LINE
  8
DIMS
 62
     1
  6
CONTINUOUS
 10
10.456475
 20
5.619106
 30
0.000000
 11
10.311586
 21
5.657929
 31
0.000000
  0
LINE
  8
DIMS
 62
     1
  6
CONTINUOUS
 10
8.139479
 20
4.096181
 30
0.000000
 11
8.139479
 21
5.669106
 31
0.000000
  0
LINE
  8
DIMS
 62
     1
  6
CONTINUOUS
 10
10.456475
 20
4.151628
 30
0.000000
 11
10.456475
 21
5.669106
 31
0.000000
  0
TEXT
  8
DIMS
 62
     7
 10
9.125399
 20
5.556606
 30
0.000000
 40
0.125000
  1
2.32
  0
LINE
  8
DIMS
 62
     1
  6
CONTINUOUS
 10
8.139479
 20
5.619106
 30
0.000000
 11
9.075399
 21
5.619106
 31
0.000000
  0
LINE
  8
DIMS
 62
     1
  6
CONTINUOUS
 10
9.520556
 20
5.619106
 30
0.000000
 11
10.456475
 21
5.619106
 31
0.000000
  0
LINE
  8
DIMS
 62
     1
  6
CONTINUOUS
 10
12.450173
 20
1.784728
 30
0.000000
 11
12.411350
 21
1.929617
 31
0.000000
  0
LINE
  8
DIMS
 62
     1
  6
CONTINUOUS
 10
12.450173
 20
1.784728
 30
0.000000
 11
12.488996
 21
1.929617
 31
0.000000
  0
LINE
  8
DIMS
 62
     1
  6
CONTINUOUS
 10
12.450173
 20
4.081628
 30
0.000000
 11
12.488996
 21
3.936739
 31
0.000000
  0
LINE
  8
DIMS
 62
     1
  6
CONTINUOUS
 10
12.450173
 20
4.081628
 30
0.000000
 11
12.411350
 21
3.936739
 31
0.000000
  0
LINE
  8
DIMS
 62
     1
  6
CONTINUOUS
 10
10.526475
 20
1.784728
 30
0.000000
 11
12.500173
 21
1.784728
 31
0.000000
  0
LINE
  8
DIMS
 62
     1
  6
CONTINUOUS
 10
10.526475
 20
4.081628
 30
0.000000
 11
12.500173
 21
4.081628
 31
0.000000
  0
TEXT
  8
DIMS
 62
     7
 10
12.267414
 20
2.870678
 30
0.000000
 40
0.125000
  1
2.30
  0
LINE
  8
DIMS
 62
     1
  6
CONTINUOUS
 10
12.450173
 20
1.784728
 30
0.000000
 11
12.450173
 21
2.820678
 31
0.000000
  0
LINE
  8
DIMS
 62
     1
  6
CONTINUOUS
 10
12.450173
 20
3.045678
 30
0.000000
 11
12.450173
 21
4.081628
 31
0.000000
  0
LINE
  8
DIMS
 62
     1
  6
CONTINUOUS
 10
9.218975
 20
4.183629
 30
0.000000
 11
9.516505
 21
4.618300
 31
0.000000
  0
LINE
  8
DIMS
 62
     1
  6
CONTINUOUS
 10
9.218975
 20
4.183629
 30
0.000000
 11
9.268778
 21
4.325119
 31
0.000000
  0
LINE
  8
DIMS
 62
     1
  6
CONTINUOUS
 10
9.218975
 20
4.183629
 30
0.000000
 11
9.332851
 21
4.281262
 31
0.000000
  0
LINE
  8
DIMS
 62
     1
  6
CONTINUOUS
 10
9.516505
 20
4.618300
 30
0.000000
 11
9.716505
 21
4.618300
 31
0.000000
  0
TEXT
  8
DIMS
 62
     7
 10
9.816505
 20
4.568300
 30
0.000000
 40
0.100000
  1
NOTE C
  0
TEXT
  8
DIMS
 62
     7
 10
6.640820
 20
8.016880
 30
0.000000
 40
0.150000
  1
NOTE A - 6X DRILL .203 THRU; CB .328 X .25 DEEP
  0
TEXT
  8
DIMS
 62
     7
 10
6.640820
 20
7.791880
 30
0.000000
 40
0.150000
  1
	ON B.C., EQUALLY SPACED.
  0
TEXT
  8
DIMS
 62
     7
 10
6.640820
 20
7.566880
 30
0.000000
 40
0.150000
  1
NOTE B - 6X DRILL (.90 DEEP MAX.) & TAP 3/8-24 X .75"
  0
TEXT
  8
DIMS
 62
     7
 10
6.640820
 20
7.341880
 30
0.000000
 40
0.150000
  1
	DEEP ON B.C..
  0
TEXT
  8
DIMS
 62
     7
 10
6.640820
 20
7.116880
 30
0.000000
 40
0.150000
  1
NOTE C - DO NOT RADIUS OR CHAMFER THIS CORNER.
  0
TEXT
  8
DIMS
 62
     7
 10
6.640820
 20
6.891880
 30
0.000000
 40
0.150000
  1
NOTE ---  BREAK EDGES AND CORNERS .01 - .02, UNLESS
  0
TEXT
  8
DIMS
 62
     7
 10
6.640820
 20
6.666880
 30
0.000000
 40
0.150000
  1
	OTHERWISE NOTED.
  0
TEXT
  8
DIMS
 62
     7
 10
6.640820
 20
6.441880
 30
0.000000
 40
0.150000
  1
MATERIAL: C 1144
  0
TEXT
  8
DIMS
 62
     7
 10
6.640820
 20
6.216880
 30
0.000000
 40
0.150000
  1
FINISH: N/A
  0
TEXT
  8
DIMS
 62
     7
 10
6.640820
 20
5.991880
 30
0.000000
 40
0.150000
  1
TOL: .XX = +/-.01, .XXX = +/-.005, ANG = +/-1
  0
TEXT
  8
DIMS
 62
     7
 10
2.741023
 20
7.842760
 30
0.000000
 40
0.125000
  1
HUB DESIGN STARTED AS
  0
TEXT
  8
DIMS
 62
     7
 10
2.741023
 20
7.655261
 30
0.000000
 40
0.125000
  1
PORADPHD.gxd
  0
TEXT
  8
DIMS
 62
     7
 10
2.741023
 20
7.467761
 30
0.000000
 40
0.125000
  1
MODIFIED TO FIT
  0
TEXT
  8
DIMS
 62
     7
 10
2.741023
 20
7.280261
 30
0.000000
 40
0.125000
  1
FLYWHEEL RECESS AND
  0
TEXT
  8
DIMS
 62
     7
 10
2.741023
 20
7.092761
 30
0.000000
 40
0.125000
  1
BOLT PATTERN.
  0
TEXT
  8
DIMS
 62
     7
 10
2.741023
 20
6.717761
 30
0.000000
 40
0.125000
  1
USE 10-24 X 1.25 FOR
  0
TEXT
  8
DIMS
 62
     7
 10
2.741023
 20
6.530261
 30
0.000000
 40
0.125000
  1
HUB TO BUSHING.
  0
ENDSEC
  0
EOF
