  0
SECTION
  2
HEADER
  9
$ACADVER
  1
AC1006
  0
ENDSEC
  0
SECTION
  2
TABLES
  0
TABLE
  2
LTYPE
 70
    25
  0
LTYPE
  2
CONTINUOUS
 70
    64
  3
Solid line
 72
    64
 73
     0
 40
0.000000
  0
LTYPE
  2
DASHDOT
 70
    64
  3
__ . __ . __ . __ . __ . __ . __ . __ . __ . __
 72
    65
 73
     4
 40
1.000000
 49
0.500000
 49
-0.250000
 49
0.000000
 49
-0.250000
  0
LTYPE
  2
DASHED
 70
    64
  3
__ __ __ __ __ __ __ __ __ __ __ __ __ __ __ __
 72
    65
 73
     2
 40
0.750000
 49
0.500000
 49
-0.250000
  0
LTYPE
  2
DIVIDE
 70
    64
  3
____ . . ____ . . ____ . . ____ . . ____ . . __
 72
    65
 73
     6
 40
1.250000
 49
0.500000
 49
-0.250000
 49
0.000000
 49
-0.250000
 49
0.000000
 49
-0.250000
  0
LTYPE
  2
DOT
 70
    64
  3
. . . . . . . . . . . . . . . . . . . . . . . . 
 72
    65
 73
     2
 40
0.250000
 49
0.000000
 49
-0.250000
  0
ENDTAB
  0
ENDSEC
  0
SECTION
  2
ENTITIES
  0
POINT
  8
PARTS
 62
     7
 10
6.000000
 20
6.750000
 30
0.000000
  0
LINE
  8
PARTS
 62
     7
  6
CONTINUOUS
 10
6.403000
 20
1.106501
 30
0.000000
 11
6.783000
 21
1.106501
 31
0.000000
  0
LINE
  8
PARTS
 62
     7
  6
CONTINUOUS
 10
6.403000
 20
12.393499
 30
0.000000
 11
6.783000
 21
12.393499
 31
0.000000
  0
LINE
  8
PARTS
 62
     7
  6
CONTINUOUS
 10
6.000000
 20
12.162499
 30
0.000000
 11
6.403000
 21
12.162499
 31
0.000000
  0
LINE
  8
PARTS
 62
     7
  6
CONTINUOUS
 10
6.000000
 20
1.337501
 30
0.000000
 11
6.403000
 21
1.337501
 31
0.000000
  0
LINE
  8
PARTS
 62
     7
  6
CONTINUOUS
 10
6.403000
 20
12.162499
 30
0.000000
 11
6.403000
 21
12.393499
 31
0.000000
  0
LINE
  8
PARTS
 62
     7
  6
CONTINUOUS
 10
6.403000
 20
1.337501
 30
0.000000
 11
6.403000
 21
1.106501
 31
0.000000
  0
LINE
  8
PARTS
 62
     7
  6
CONTINUOUS
 10
6.783000
 20
11.832500
 30
0.000000
 11
6.783000
 21
12.393499
 31
0.000000
  0
LINE
  8
PARTS
 62
     7
  6
CONTINUOUS
 10
6.783000
 20
1.667501
 30
0.000000
 11
6.783000
 21
1.106501
 31
0.000000
  0
LINE
  8
PARTS
 62
     7
  6
CONTINUOUS
 10
6.783000
 20
1.667501
 30
0.000000
 11
7.153000
 21
1.667501
 31
0.000000
  0
LINE
  8
PARTS
 62
     7
  6
CONTINUOUS
 10
6.783000
 20
11.832500
 30
0.000000
 11
7.153000
 21
11.832500
 31
0.000000
  0
POINT
  8
PARTS
 62
     7
 10
7.153000
 20
10.809500
 30
0.000000
  0
POINT
  8
PARTS
 62
     7
 10
7.153000
 20
2.690500
 30
0.000000
  0
LINE
  8
PARTS
 62
     7
  6
CONTINUOUS
 10
7.153000
 20
2.690500
 30
0.000000
 11
6.523000
 21
2.690500
 31
0.000000
  0
LINE
  8
PARTS
 62
     7
  6
CONTINUOUS
 10
7.153000
 20
10.809500
 30
0.000000
 11
6.523000
 21
10.809500
 31
0.000000
  0
LINE
  8
PARTS
 62
     7
  6
CONTINUOUS
 10
7.153000
 20
2.690500
 30
0.000000
 11
7.153000
 21
1.667501
 31
0.000000
  0
LINE
  8
PARTS
 62
     7
  6
CONTINUOUS
 10
7.153000
 20
10.809500
 30
0.000000
 11
7.153000
 21
11.832500
 31
0.000000
  0
POINT
  8
PARTS
 62
     7
 10
6.523000
 20
9.476000
 30
0.000000
  0
POINT
  8
PARTS
 62
     7
 10
6.523000
 20
4.024000
 30
0.000000
  0
LINE
  8
PARTS
 62
     7
  6
CONTINUOUS
 10
6.523000
 20
4.024000
 30
0.000000
 11
6.523000
 21
2.690500
 31
0.000000
  0
LINE
  8
PARTS
 62
     7
  6
CONTINUOUS
 10
6.523000
 20
9.476000
 30
0.000000
 11
6.523000
 21
10.809500
 31
0.000000
  0
LINE
  8
PARTS
 62
     7
  6
CONTINUOUS
 10
6.523000
 20
9.476000
 30
0.000000
 11
6.869000
 21
9.139000
 31
0.000000
  0
LINE
  8
PARTS
 62
     7
  6
CONTINUOUS
 10
6.523000
 20
4.024000
 30
0.000000
 11
6.869000
 21
4.361001
 31
0.000000
  0
POINT
  8
PARTS
 62
     7
 10
6.017654
 20
9.319940
 30
0.000000
  0
POINT
  8
PARTS
 62
     7
 10
6.000000
 20
4.180000
 30
0.000000
  0
LINE
  8
PARTS
 62
     7
  6
CONTINUOUS
 10
6.542000
 20
8.875000
 30
0.000000
 11
6.542000
 21
4.625000
 31
0.000000
  0
POINT
  8
PARTS
 62
     7
 10
6.542000
 20
6.750000
 30
0.000000
  0
LINE
  8
PARTS
 62
     7
  6
CONTINUOUS
 10
6.017654
 20
9.319940
 30
0.000000
 11
6.542000
 21
8.875000
 31
0.000000
  0
LINE
  8
PARTS
 62
     7
  6
CONTINUOUS
 10
6.000000
 20
4.180000
 30
0.000000
 11
6.542000
 21
4.625000
 31
0.000000
  0
LINE
  8
PARTS
 62
     7
  6
CONTINUOUS
 10
6.542000
 20
8.330000
 30
0.000000
 11
6.869000
 21
8.330000
 31
0.000000
  0
LINE
  8
PARTS
 62
     7
  6
CONTINUOUS
 10
6.542000
 20
7.922001
 30
0.000000
 11
6.869000
 21
7.922001
 31
0.000000
  0
POINT
  8
PARTS
 62
     7
 10
6.542000
 20
8.126000
 30
0.000000
  0
LINE
  8
HUB
 62
     7
  6
CONTINUOUS
 10
6.759600
 20
6.119500
 30
0.000000
 11
6.759600
 21
7.380500
 31
0.000000
  0
LINE
  8
PARTS
 62
     7
  6
CONTINUOUS
 10
6.542000
 20
6.119500
 30
0.000000
 11
6.884600
 21
6.119500
 31
0.000000
  0
LINE
  8
PARTS
 62
     7
  6
CONTINUOUS
 10
6.542000
 20
7.380500
 30
0.000000
 11
6.884600
 21
7.380500
 31
0.000000
  0
LINE
  8
HUB
 62
     7
  6
CONTINUOUS
 10
6.884600
 20
6.119500
 30
0.000000
 11
6.884600
 21
5.000000
 31
0.000000
  0
LINE
  8
HUB
 62
     7
  6
CONTINUOUS
 10
6.884600
 20
7.380500
 30
0.000000
 11
6.884600
 21
8.500000
 31
0.000000
  0
POINT
  8
HUB
 62
     7
 10
6.759600
 20
6.750000
 30
0.000000
  0
LINE
  8
HUB
 62
     7
  6
CONTINUOUS
 10
6.884600
 20
5.000000
 30
0.000000
 11
7.634600
 21
5.000000
 31
0.000000
  0
LINE
  8
HUB
 62
     7
  6
CONTINUOUS
 10
6.884600
 20
8.500000
 30
0.000000
 11
7.634600
 21
8.500000
 31
0.000000
  0
LINE
  8
HUB
 62
     7
  6
CONTINUOUS
 10
8.759600
 20
7.875000
 30
0.000000
 11
8.759600
 21
5.629731
 31
0.000000
  0
LINE
  8
HUB
 62
     7
  6
CONTINUOUS
 10
8.759600
 20
7.875000
 30
0.000000
 11
7.634600
 21
7.875000
 31
0.000000
  0
LINE
  8
HUB
 62
     7
  6
CONTINUOUS
 10
8.759600
 20
5.629731
 30
0.000000
 11
7.634600
 21
5.629731
 31
0.000000
  0
LINE
  8
HUB
 62
     7
  6
CONTINUOUS
 10
7.634600
 20
5.629731
 30
0.000000
 11
7.634600
 21
5.000000
 31
0.000000
  0
LINE
  8
HUB
 62
     7
  6
CONTINUOUS
 10
7.634600
 20
7.875000
 30
0.000000
 11
7.634600
 21
8.500000
 31
0.000000
  0
POINT
  8
HUB
 62
     7
 10
8.759600
 20
6.750000
 30
0.000000
  0
LINE
  8
HUB
 62
     7
  6
CONTINUOUS
 10
8.759600
 20
6.750000
 30
0.000000
 11
8.759600
 21
7.687500
 31
0.000000
  0
LINE
  8
HUB
 62
     7
  6
CONTINUOUS
 10
8.759600
 20
6.750000
 30
0.000000
 11
8.759600
 21
5.812500
 31
0.000000
  0
POINT
  8
HUB
 62
     7
 10
8.759600
 20
5.812500
 30
0.000000
  0
POINT
  8
HUB
 62
     7
 10
8.759600
 20
7.687500
 30
0.000000
  0
LINE
  8
HUB
 62
     7
  6
CONTINUOUS
 10
7.384600
 20
5.950000
 30
0.000000
 11
8.759600
 21
5.812500
 31
0.000000
  0
LINE
  8
HUB
 62
     7
  6
CONTINUOUS
 10
6.759600
 20
7.125000
 30
0.000000
 11
7.384600
 21
7.125000
 31
0.000000
  0
LINE
  8
HUB
 62
     7
  6
CONTINUOUS
 10
6.759600
 20
6.375000
 30
0.000000
 11
7.384600
 21
6.375000
 31
0.000000
  0
POINT
  8
HUB
 62
     7
 10
6.884600
 20
7.453000
 30
0.000000
  0
POINT
  8
HUB
 62
     7
 10
6.884600
 20
7.453000
 30
0.000000
  0
POINT
  8
HUB
 62
     7
 10
6.884600
 20
7.632700
 30
0.000000
  0
LINE
  8
HUB
 62
     7
  6
CONTINUOUS
 10
6.884600
 20
7.632700
 30
0.000000
 11
7.072100
 21
7.632700
 31
0.000000
  0
LINE
  8
HUB
 62
     7
  6
CONTINUOUS
 10
7.072100
 20
7.273300
 30
0.000000
 11
7.072100
 21
7.632700
 31
0.000000
  0
POINT
  8
HUB
 62
     7
 10
7.072100
 20
7.454022
 30
0.000000
  0
POINT
  8
HUB
 62
     7
 10
7.072100
 20
7.555573
 30
0.000000
  0
POINT
  8
HUB
 62
     7
 10
7.072100
 20
7.352472
 30
0.000000
  0
LINE
  8
HUB
 62
     7
  6
CONTINUOUS
 10
7.072100
 20
7.273300
 30
0.000000
 11
6.759600
 21
7.273300
 31
0.000000
  0
LINE
  8
HUB
 62
     7
  6
CONTINUOUS
 10
7.072100
 20
7.352472
 30
0.000000
 11
7.384600
 21
7.352472
 31
0.000000
  0
LINE
  8
HUB
 62
     7
  6
CONTINUOUS
 10
7.072100
 20
7.555573
 30
0.000000
 11
7.440323
 21
7.555573
 31
0.000000
  0
LINE
  8
HUB
 62
     7
  6
CONTINUOUS
 10
7.440323
 20
7.555573
 30
0.000000
 11
8.759600
 21
7.687500
 31
0.000000
  0
LINE
  8
HUB
 62
     7
  6
CONTINUOUS
 10
7.384600
 20
5.950000
 30
0.000000
 11
7.384600
 21
7.555573
 31
0.000000
  0
LINE
  8
HUB
 62
     7
  6
CONTINUOUS
 10
6.884600
 20
7.453000
 30
0.000000
 11
7.427586
 21
7.453000
 31
0.000000
  0
LINE
  8
HUB
 62
     7
  6
CONTINUOUS
 10
6.542000
 20
8.126000
 30
0.000000
 11
8.199940
 21
8.126000
 31
0.000000
  0
POINT
  8
HUB
 62
     7
 10
6.884600
 20
8.126000
 30
0.000000
  0
LINE
  8
HUB
 62
     7
  6
CONTINUOUS
 10
6.884600
 20
8.305700
 30
0.000000
 11
7.634600
 21
8.305700
 31
0.000000
  0
LINE
  8
HUB
 62
     7
  6
CONTINUOUS
 10
6.884600
 20
7.946301
 30
0.000000
 11
7.634600
 21
7.946301
 31
0.000000
  0
POINT
  8
HUB
 62
     7
 10
6.884600
 20
8.126000
 30
0.000000
  0
POINT
  8
HUB
 62
     7
 10
6.884600
 20
8.126000
 30
0.000000
  0
POINT
  8
HUB
 62
     7
 10
6.915600
 20
8.126000
 30
0.000000
  0
POINT
  8
HUB
 62
     7
 10
6.947100
 20
8.126000
 30
0.000000
  0
POINT
  8
HUB
 62
     7
 10
6.978350
 20
8.126000
 30
0.000000
  0
POINT
  8
HUB
 62
     7
 10
7.009600
 20
8.126000
 30
0.000000
  0
LINE
  8
HUB
 62
     7
  6
CONTINUOUS
 10
6.915600
 20
8.305700
 30
0.000000
 11
6.915600
 21
7.946301
 31
0.000000
  0
LINE
  8
HUB
 62
     7
  6
CONTINUOUS
 10
6.947100
 20
8.268997
 30
0.000000
 11
6.947100
 21
7.983004
 31
0.000000
  0
LINE
  8
HUB
 62
     7
  6
CONTINUOUS
 10
6.978350
 20
8.305700
 30
0.000000
 11
6.978350
 21
7.946301
 31
0.000000
  0
LINE
  8
HUB
 62
     7
  6
CONTINUOUS
 10
7.041100
 20
8.305700
 30
0.000000
 11
7.041100
 21
7.946301
 31
0.000000
  0
LINE
  8
HUB
 62
     7
  6
CONTINUOUS
 10
7.103850
 20
8.305700
 30
0.000000
 11
7.103850
 21
7.946301
 31
0.000000
  0
LINE
  8
HUB
 62
     7
  6
CONTINUOUS
 10
7.166600
 20
8.305700
 30
0.000000
 11
7.166600
 21
7.946301
 31
0.000000
  0
LINE
  8
HUB
 62
     7
  6
CONTINUOUS
 10
7.229350
 20
8.305700
 30
0.000000
 11
7.229350
 21
7.946301
 31
0.000000
  0
LINE
  8
HUB
 62
     7
  6
CONTINUOUS
 10
7.292099
 20
8.305700
 30
0.000000
 11
7.292099
 21
7.946301
 31
0.000000
  0
LINE
  8
HUB
 62
     7
  6
CONTINUOUS
 10
7.354849
 20
8.305700
 30
0.000000
 11
7.354849
 21
7.946301
 31
0.000000
  0
LINE
  8
HUB
 62
     7
  6
CONTINUOUS
 10
7.417599
 20
8.305700
 30
0.000000
 11
7.417599
 21
7.946301
 31
0.000000
  0
LINE
  8
HUB
 62
     7
  6
CONTINUOUS
 10
7.480349
 20
8.305700
 30
0.000000
 11
7.480349
 21
7.946301
 31
0.000000
  0
LINE
  8
HUB
 62
     7
  6
CONTINUOUS
 10
7.543099
 20
8.305700
 30
0.000000
 11
7.543099
 21
7.946301
 31
0.000000
  0
LINE
  8
HUB
 62
     7
  6
CONTINUOUS
 10
7.605849
 20
8.305700
 30
0.000000
 11
7.605849
 21
7.946301
 31
0.000000
  0
LINE
  8
HUB
 62
     7
  6
CONTINUOUS
 10
7.009600
 20
8.268997
 30
0.000000
 11
7.009600
 21
7.983004
 31
0.000000
  0
LINE
  8
HUB
 62
     7
  6
CONTINUOUS
 10
7.072100
 20
8.268997
 30
0.000000
 11
7.072100
 21
7.983004
 31
0.000000
  0
LINE
  8
HUB
 62
     7
  6
CONTINUOUS
 10
7.134600
 20
8.268997
 30
0.000000
 11
7.134600
 21
7.983004
 31
0.000000
  0
LINE
  8
HUB
 62
     7
  6
CONTINUOUS
 10
7.197100
 20
8.268997
 30
0.000000
 11
7.197100
 21
7.983004
 31
0.000000
  0
LINE
  8
HUB
 62
     7
  6
CONTINUOUS
 10
7.259600
 20
8.268997
 30
0.000000
 11
7.259600
 21
7.983004
 31
0.000000
  0
LINE
  8
HUB
 62
     7
  6
CONTINUOUS
 10
7.322100
 20
8.268997
 30
0.000000
 11
7.322100
 21
7.983004
 31
0.000000
  0
LINE
  8
HUB
 62
     7
  6
CONTINUOUS
 10
7.384600
 20
8.268997
 30
0.000000
 11
7.384600
 21
7.983004
 31
0.000000
  0
LINE
  8
HUB
 62
     7
  6
CONTINUOUS
 10
7.447100
 20
8.268997
 30
0.000000
 11
7.447100
 21
7.983004
 31
0.000000
  0
LINE
  8
HUB
 62
     7
  6
CONTINUOUS
 10
7.509600
 20
8.268997
 30
0.000000
 11
7.509600
 21
7.983004
 31
0.000000
  0
LINE
  8
HUB
 62
     7
  6
CONTINUOUS
 10
7.572100
 20
8.268997
 30
0.000000
 11
7.572100
 21
7.983004
 31
0.000000
  0
POINT
  8
RING9
 62
     7
 10
14.417000
 20
6.750000
 30
0.000000
  0
POINT
  8
RING9
 62
     7
 10
14.417000
 20
6.750000
 30
0.000000
  0
LINE
  8
RING9
 62
     7
  6
CONTINUOUS
 10
14.417000
 20
6.750000
 30
0.000000
 11
14.417000
 21
5.937500
 31
0.000000
  0
POINT
  8
RING9
 62
     7
 10
15.542320
 20
7.453108
 30
0.000000
  0
POINT
  8
RING9
 62
     7
 10
15.542320
 20
7.453108
 30
0.000000
  0
POINT
  8
RING9
 62
     7
 10
15.542328
 20
7.453108
 30
0.000000
  0
POINT
  8
RING9
 62
     7
 10
15.542328
 20
7.453108
 30
0.000000
  0
POINT
  8
RING9
 62
     7
 10
14.415859
 20
7.454028
 30
0.000000
  0
POINT
  8
RING9
 62
     7
 10
14.540859
 20
7.454028
 30
0.000000
  0
POINT
  8
RING9
 62
     7
 10
14.665859
 20
7.454028
 30
0.000000
  0
POINT
  8
RING9
 62
     7
 10
14.665859
 20
7.454028
 30
0.000000
  0
LINE
  8
RING9
 62
     7
  6
CONTINUOUS
 10
14.540859
 20
7.454028
 30
0.000000
 11
14.540859
 21
7.508728
 31
0.000000
  0
LINE
  8
RING9
 62
     7
  6
CONTINUOUS
 10
14.540859
 20
7.454028
 30
0.000000
 11
14.540859
 21
7.399328
 31
0.000000
  0
LINE
  8
RING9
 62
     7
  6
CONTINUOUS
 10
14.665859
 20
7.454028
 30
0.000000
 11
14.665859
 21
7.540414
 31
0.000000
  0
LINE
  8
RING9
 62
     7
  6
CONTINUOUS
 10
14.665859
 20
7.454028
 30
0.000000
 11
14.665859
 21
7.367641
 31
0.000000
  0
POINT
  8
RING9
 62
     7
 10
14.915859
 20
7.454028
 30
0.000000
  0
POINT
  8
RING9
 62
     7
 10
14.790859
 20
7.454028
 30
0.000000
  0
POINT
  8
RING9
 62
     7
 10
14.790859
 20
7.454028
 30
0.000000
  0
LINE
  8
RING9
 62
     7
  6
CONTINUOUS
 10
14.790859
 20
7.454028
 30
0.000000
 11
14.790859
 21
7.508728
 31
0.000000
  0
LINE
  8
RING9
 62
     7
  6
CONTINUOUS
 10
14.790859
 20
7.454028
 30
0.000000
 11
14.790859
 21
7.399328
 31
0.000000
  0
POINT
  8
RING9
 62
     7
 10
15.040859
 20
7.454028
 30
0.000000
  0
LINE
  8
RING9
 62
     7
  6
CONTINUOUS
 10
15.040859
 20
7.454028
 30
0.000000
 11
15.040859
 21
7.508728
 31
0.000000
  0
LINE
  8
RING9
 62
     7
  6
CONTINUOUS
 10
15.040859
 20
7.454028
 30
0.000000
 11
15.040859
 21
7.399328
 31
0.000000
  0
POINT
  8
RING9
 62
     7
 10
15.290859
 20
7.454028
 30
0.000000
  0
LINE
  8
RING9
 62
     7
  6
CONTINUOUS
 10
15.290859
 20
7.454028
 30
0.000000
 11
15.290859
 21
7.508728
 31
0.000000
  0
LINE
  8
RING9
 62
     7
  6
CONTINUOUS
 10
15.290859
 20
7.454028
 30
0.000000
 11
15.290859
 21
7.399328
 31
0.000000
  0
POINT
  8
RING9
 62
     7
 10
15.540859
 20
7.454028
 30
0.000000
  0
LINE
  8
RING9
 62
     7
  6
CONTINUOUS
 10
15.540859
 20
7.454028
 30
0.000000
 11
15.540859
 21
7.508728
 31
0.000000
  0
LINE
  8
RING9
 62
     7
  6
CONTINUOUS
 10
15.540859
 20
7.454028
 30
0.000000
 11
15.540859
 21
7.399328
 31
0.000000
  0
POINT
  8
RING9
 62
     7
 10
14.915859
 20
7.454028
 30
0.000000
  0
POINT
  8
RING9
 62
     7
 10
14.915859
 20
7.454028
 30
0.000000
  0
LINE
  8
RING9
 62
     7
  6
CONTINUOUS
 10
14.915859
 20
7.454028
 30
0.000000
 11
14.915859
 21
7.540414
 31
0.000000
  0
LINE
  8
RING9
 62
     7
  6
CONTINUOUS
 10
14.915859
 20
7.454028
 30
0.000000
 11
14.915859
 21
7.367641
 31
0.000000
  0
POINT
  8
RING9
 62
     7
 10
15.165859
 20
7.454028
 30
0.000000
  0
POINT
  8
RING9
 62
     7
 10
15.165859
 20
7.454028
 30
0.000000
  0
LINE
  8
RING9
 62
     7
  6
CONTINUOUS
 10
15.165859
 20
7.454028
 30
0.000000
 11
15.165859
 21
7.540414
 31
0.000000
  0
LINE
  8
RING9
 62
     7
  6
CONTINUOUS
 10
15.165859
 20
7.454028
 30
0.000000
 11
15.165859
 21
7.367641
 31
0.000000
  0
POINT
  8
RING9
 62
     7
 10
15.415859
 20
7.454028
 30
0.000000
  0
POINT
  8
RING9
 62
     7
 10
15.415859
 20
7.454028
 30
0.000000
  0
LINE
  8
RING9
 62
     7
  6
CONTINUOUS
 10
15.415859
 20
7.454028
 30
0.000000
 11
15.415859
 21
7.540414
 31
0.000000
  0
LINE
  8
RING9
 62
     7
  6
CONTINUOUS
 10
15.415859
 20
7.454028
 30
0.000000
 11
15.415859
 21
7.367641
 31
0.000000
  0
POINT
  8
RING9
 62
     7
 10
14.417000
 20
6.750000
 30
0.000000
  0
POINT
  8
RING9
 62
     7
 10
14.979490
 20
6.753453
 30
0.000000
  0
LINE
  8
PARTS
 62
     7
  6
CONTINUOUS
 10
14.417000
 20
7.562500
 30
0.000000
 11
14.417000
 21
6.750000
 31
0.000000
  0
LINE
  8
PARTS
 62
     7
  6
CONTINUOUS
 10
14.417000
 20
6.750000
 30
0.000000
 11
15.667000
 21
6.750000
 31
0.000000
  0
LINE
  8
PARTS
 62
     7
  6
CONTINUOUS
 10
15.667000
 20
6.750000
 30
0.000000
 11
15.667000
 21
7.687500
 31
0.000000
  0
LINE
  8
PARTS
 62
     7
  6
CONTINUOUS
 10
15.667000
 20
6.750000
 30
0.000000
 11
15.667000
 21
5.812500
 31
0.000000
  0
LINE
  8
PARTS
 62
     7
  6
CONTINUOUS
 10
14.417000
 20
7.312491
 30
0.000000
 11
15.667000
 21
7.312491
 31
0.000000
  0
LINE
  8
PARTS
 62
     7
  6
CONTINUOUS
 10
14.417000
 20
7.367158
 30
0.000000
 11
15.667000
 21
7.367158
 31
0.000000
  0
LINE
  8
RING9
 62
     7
  6
CONTINUOUS
 10
14.419506
 20
6.187509
 30
0.000000
 11
15.667000
 21
6.187509
 31
0.000000
  0
LINE
  8
PARTS
 62
     7
  6
CONTINUOUS
 10
14.417000
 20
5.937500
 30
0.000000
 11
15.667000
 21
5.812500
 31
0.000000
  0
LINE
  8
PARTS
 62
     7
  6
CONTINUOUS
 10
14.417000
 20
7.562500
 30
0.000000
 11
15.667000
 21
7.687500
 31
0.000000
  0
LINE
  8
RING9
 62
     7
  6
CONTINUOUS
 10
14.417000
 20
7.539058
 30
0.000000
 11
15.667000
 21
7.539058
 31
0.000000
  0
LINE
  8
PARTS
 62
     7
  6
CONTINUOUS
 10
14.415859
 20
7.454028
 30
0.000000
 11
15.667000
 21
7.454028
 31
0.000000
  0
LINE
  8
RING9
 62
     7
  6
CONTINUOUS
 10
14.417000
 20
8.094775
 30
0.000000
 11
14.525253
 21
8.157275
 31
0.000000
  0
LINE
  8
RING9
 62
     7
  6
CONTINUOUS
 10
14.417000
 20
8.094775
 30
0.000000
 11
14.525253
 21
8.032275
 31
0.000000
  0
LINE
  8
RING9
 62
     7
  6
CONTINUOUS
 10
15.667000
 20
8.094775
 30
0.000000
 11
15.558747
 21
8.032275
 31
0.000000
  0
LINE
  8
RING9
 62
     7
  6
CONTINUOUS
 10
15.667000
 20
8.094775
 30
0.000000
 11
15.558747
 21
8.157275
 31
0.000000
  0
LINE
  8
RING9
 62
     7
  6
CONTINUOUS
 10
14.417000
 20
7.625000
 30
0.000000
 11
14.417000
 21
8.344775
 31
0.000000
  0
LINE
  8
RING9
 62
     7
  6
CONTINUOUS
 10
15.667000
 20
7.750000
 30
0.000000
 11
15.667000
 21
8.344775
 31
0.000000
  0
TEXT
  8
RING9
 62
     7
 10
14.666564
 20
8.032202
 30
0.000000
 40
0.125000
  1
1 1/4"
  0
LINE
  8
RING9
 62
     7
  6
CONTINUOUS
 10
14.417000
 20
8.094775
 30
0.000000
 11
14.635314
 21
8.094775
 31
0.000000
  0
LINE
  8
RING9
 62
     7
  6
CONTINUOUS
 10
15.448686
 20
8.094775
 30
0.000000
 11
15.667000
 21
8.094775
 31
0.000000
  0
LINE
  8
RING9
 62
     7
  6
CONTINUOUS
 10
13.945902
 20
5.937500
 30
0.000000
 11
13.883402
 21
6.045753
 31
0.000000
  0
LINE
  8
RING9
 62
     7
  6
CONTINUOUS
 10
13.945902
 20
5.937500
 30
0.000000
 11
14.008402
 21
6.045753
 31
0.000000
  0
LINE
  8
RING9
 62
     7
  6
CONTINUOUS
 10
13.945902
 20
7.562500
 30
0.000000
 11
14.008402
 21
7.454247
 31
0.000000
  0
LINE
  8
RING9
 62
     7
  6
CONTINUOUS
 10
13.945902
 20
7.562500
 30
0.000000
 11
13.883402
 21
7.454247
 31
0.000000
  0
LINE
  8
RING9
 62
     7
  6
CONTINUOUS
 10
14.354500
 20
5.937500
 30
0.000000
 11
13.695902
 21
5.937500
 31
0.000000
  0
LINE
  8
RING9
 62
     7
  6
CONTINUOUS
 10
14.354500
 20
7.562500
 30
0.000000
 11
13.695902
 21
7.562500
 31
0.000000
  0
TEXT
  8
RING9
 62
     7
 10
13.567754
 20
6.911103
 30
0.000000
 40
0.125000
  1
1 5/8"
  0
LINE
  8
RING9
 62
     7
  6
CONTINUOUS
 10
13.945902
 20
5.937500
 30
0.000000
 11
13.945902
 21
6.879853
 31
0.000000
  0
LINE
  8
RING9
 62
     7
  6
CONTINUOUS
 10
13.945902
 20
7.068402
 30
0.000000
 11
13.945902
 21
7.562500
 31
0.000000
  0
LINE
  8
RING9
 62
     7
  6
CONTINUOUS
 10
16.114555
 20
6.187509
 30
0.000000
 11
16.052055
 21
6.295762
 31
0.000000
  0
LINE
  8
RING9
 62
     7
  6
CONTINUOUS
 10
16.114555
 20
6.187509
 30
0.000000
 11
16.177055
 21
6.295762
 31
0.000000
  0
LINE
  8
RING9
 62
     7
  6
CONTINUOUS
 10
16.114555
 20
7.312491
 30
0.000000
 11
16.177055
 21
7.204238
 31
0.000000
  0
LINE
  8
RING9
 62
     7
  6
CONTINUOUS
 10
16.114555
 20
7.312491
 30
0.000000
 11
16.052055
 21
7.204238
 31
0.000000
  0
LINE
  8
RING9
 62
     7
  6
CONTINUOUS
 10
15.729500
 20
6.187509
 30
0.000000
 11
16.364555
 21
6.187509
 31
0.000000
  0
LINE
  8
RING9
 62
     7
  6
CONTINUOUS
 10
15.729500
 20
7.312491
 30
0.000000
 11
16.364555
 21
7.312491
 31
0.000000
  0
TEXT
  8
RING9
 62
     7
 10
15.737106
 20
6.537671
 30
0.000000
 40
0.125000
  1
1 1/8"
  0
LINE
  8
RING9
 62
     7
  6
CONTINUOUS
 10
16.114555
 20
6.187509
 30
0.000000
 11
16.114555
 21
6.506421
 31
0.000000
  0
LINE
  8
RING9
 62
     7
  6
CONTINUOUS
 10
16.114555
 20
6.694737
 30
0.000000
 11
16.114555
 21
7.312491
 31
0.000000
  0
LINE
  8
RING9
 62
     7
  6
CONTINUOUS
 10
16.709614
 20
5.812500
 30
0.000000
 11
16.647114
 21
5.920753
 31
0.000000
  0
LINE
  8
RING9
 62
     7
  6
CONTINUOUS
 10
16.709614
 20
5.812500
 30
0.000000
 11
16.772114
 21
5.920753
 31
0.000000
  0
LINE
  8
RING9
 62
     7
  6
CONTINUOUS
 10
16.709614
 20
7.687500
 30
0.000000
 11
16.772114
 21
7.579247
 31
0.000000
  0
LINE
  8
RING9
 62
     7
  6
CONTINUOUS
 10
16.709614
 20
7.687500
 30
0.000000
 11
16.647114
 21
7.579247
 31
0.000000
  0
LINE
  8
RING9
 62
     7
  6
CONTINUOUS
 10
15.729500
 20
5.812500
 30
0.000000
 11
16.959614
 21
5.812500
 31
0.000000
  0
LINE
  8
RING9
 62
     7
  6
CONTINUOUS
 10
15.729500
 20
7.687500
 30
0.000000
 11
16.959614
 21
7.687500
 31
0.000000
  0
TEXT
  8
RING9
 62
     7
 10
16.332166
 20
6.873865
 30
0.000000
 40
0.125000
  1
1 7/8"
  0
LINE
  8
RING9
 62
     7
  6
CONTINUOUS
 10
16.709614
 20
5.812500
 30
0.000000
 11
16.709614
 21
6.842615
 31
0.000000
  0
LINE
  8
RING9
 62
     7
  6
CONTINUOUS
 10
16.709614
 20
7.030931
 30
0.000000
 11
16.709614
 21
7.687500
 31
0.000000
  0
LINE
  8
RING9
 62
     7
  6
CONTINUOUS
 10
14.646748
 20
5.909513
 30
0.000000
 11
14.760310
 21
5.857276
 31
0.000000
  0
LINE
  8
RING9
 62
     7
  6
CONTINUOUS
 10
14.646748
 20
5.909513
 30
0.000000
 11
14.658290
 21
5.785047
 31
0.000000
  0
LINE
  8
RING9
 62
     7
  6
CONTINUOUS
 10
14.646748
 20
5.909513
 30
0.000000
 11
15.149240
 21
5.199770
 31
0.000000
  0
LINE
  8
RING9
 62
     7
  6
CONTINUOUS
 10
15.149240
 20
5.199770
 30
0.000000
 11
15.274240
 21
5.199770
 31
0.000000
  0
TEXT
  8
RING9
 62
     7
 10
15.336741
 20
5.137270
 30
0.000000
 40
0.125000
  1
2.500TPF
  0
ARC
  8
PLATE
 62
     7
  6
CONTINUOUS
 10
3.249999
 20
6.749999
 30
0.000000
 40
3.000001
 50
42.791781
 51
139.730186
  0
ARC
  8
PLATE
 62
     7
  6
CONTINUOUS
 10
3.250000
 20
6.750000
 30
0.000000
 40
3.000001
 50
222.592534
 51
317.391345
  0
POINT
  8
PLATE
 62
     7
 10
3.250000
 20
10.375000
 30
0.000000
  0
CIRCLE
  8
PLATE
 62
     7
  6
CONTINUOUS
 10
3.250000
 20
10.375000
 30
0.000000
 40
0.265600
  0
POINT
  8
PLATE
 62
     7
 10
3.250000
 20
3.125000
 30
0.000000
  0
POINT
  8
PLATE
 62
     7
 10
3.250000
 20
6.750000
 30
0.000000
  0
POINT
  8
PLATE
 62
     7
 10
3.250000
 20
6.750000
 30
0.000000
  0
POINT
  8
PLATE
 62
     7
 10
3.250000
 20
6.750000
 30
0.000000
  0
LINE
  8
PLATE
 62
     7
  6
CONTINUOUS
 10
3.250000
 20
1.231968
 30
0.000000
 11
3.250000
 21
12.696044
 31
0.000000
  0
ARC
  8
PLATE
 62
     7
  6
CONTINUOUS
 10
3.250000
 20
6.750001
 30
0.000000
 40
4.250000
 50
235.680460
 51
301.822285
  0
POINT
  8
PLATE
 62
     7
 10
3.250000
 20
3.124999
 30
0.000000
  0
CIRCLE
  8
PLATE
 62
     7
  6
CONTINUOUS
 10
3.250000
 20
3.125000
 30
0.000000
 40
0.265600
  0
CIRCLE
  8
HUB
 62
     7
  6
CONTINUOUS
 10
3.250000
 20
6.750000
 30
0.000000
 40
1.750000
  0
CIRCLE
  8
HUB
 62
     7
  6
CONTINUOUS
 10
3.250000
 20
6.750000
 30
0.000000
 40
0.630500
  0
CIRCLE
  8
HUB
 62
     7
  6
CONTINUOUS
 10
3.250000
 20
6.750000
 30
0.000000
 40
0.375000
  0
CIRCLE
  8
HUB
 62
     7
  6
CONTINUOUS
 10
3.250000
 20
6.750000
 30
0.000000
 40
0.703000
  0
CIRCLE
  8
RING9
 62
     7
  6
CONTINUOUS
 10
3.953000
 20
6.750000
 30
0.000000
 40
0.101550
  0
CIRCLE
  8
RING9
 62
     7
  6
CONTINUOUS
 10
3.953000
 20
6.750000
 30
0.000000
 40
0.179700
  0
CIRCLE
  8
RING9
 62
     7
  6
CONTINUOUS
 10
3.601500
 20
7.358816
 30
0.000000
 40
0.101550
  0
CIRCLE
  8
RING9
 62
     7
  6
CONTINUOUS
 10
3.601500
 20
7.358816
 30
0.000000
 40
0.179700
  0
CIRCLE
  8
RING9
 62
     7
  6
CONTINUOUS
 10
2.898499
 20
7.358816
 30
0.000000
 40
0.101550
  0
CIRCLE
  8
RING9
 62
     7
  6
CONTINUOUS
 10
2.898499
 20
7.358816
 30
0.000000
 40
0.179700
  0
CIRCLE
  8
RING9
 62
     7
  6
CONTINUOUS
 10
2.547000
 20
6.750000
 30
0.000000
 40
0.101550
  0
CIRCLE
  8
RING9
 62
     7
  6
CONTINUOUS
 10
2.547000
 20
6.750000
 30
0.000000
 40
0.179700
  0
CIRCLE
  8
RING9
 62
     7
  6
CONTINUOUS
 10
2.898500
 20
6.141184
 30
0.000000
 40
0.101550
  0
CIRCLE
  8
RING9
 62
     7
  6
CONTINUOUS
 10
2.898500
 20
6.141184
 30
0.000000
 40
0.179700
  0
CIRCLE
  8
RING9
 62
     7
  6
CONTINUOUS
 10
3.601501
 20
6.141184
 30
0.000000
 40
0.101550
  0
CIRCLE
  8
RING9
 62
     7
  6
CONTINUOUS
 10
3.601501
 20
6.141184
 30
0.000000
 40
0.179700
  0
CIRCLE
  8
HUB
 62
     7
  6
CONTINUOUS
 10
3.250000
 20
6.750000
 30
0.000000
 40
1.376000
  0
LINE
  8
HUB
 62
     7
  6
CONTINUOUS
 10
3.250000
 20
6.750000
 30
0.000000
 11
4.996567
 21
7.758381
 31
0.000000
  0
CIRCLE
  8
HUB
 62
     7
  6
CONTINUOUS
 10
4.441651
 20
7.438000
 30
0.000000
 40
0.204000
  0
CIRCLE
  8
HUB
 62
     7
  6
CONTINUOUS
 10
3.250000
 20
8.126000
 30
0.000000
 40
0.204000
  0
CIRCLE
  8
HUB
 62
     7
  6
CONTINUOUS
 10
2.058349
 20
7.438000
 30
0.000000
 40
0.204000
  0
CIRCLE
  8
HUB
 62
     7
  6
CONTINUOUS
 10
2.058349
 20
6.062000
 30
0.000000
 40
0.204000
  0
CIRCLE
  8
HUB
 62
     7
  6
CONTINUOUS
 10
3.250000
 20
5.374000
 30
0.000000
 40
0.204000
  0
LINE
  8
HUB
 62
     7
  6
CONTINUOUS
 10
3.250000
 20
6.750000
 30
0.000000
 11
1.175728
 21
7.947581
 31
0.000000
  0
LINE
  8
HUB
 62
     7
  6
CONTINUOUS
 10
3.250000
 20
6.750000
 30
0.000000
 11
1.176063
 21
5.552612
 31
0.000000
  0
LINE
  8
HUB
 62
     7
  6
CONTINUOUS
 10
3.250000
 20
6.750000
 30
0.000000
 11
5.065583
 21
5.864481
 31
0.000000
  0
CIRCLE
  8
HUB
 62
     7
  6
CONTINUOUS
 10
4.486741
 20
6.146801
 30
0.000000
 40
0.204000
  0
LINE
  8
PLATE
 62
     7
  6
CONTINUOUS
 10
7.450000
 20
12.947720
 30
0.000000
 11
8.075000
 21
12.947720
 31
0.000000
  0
LINE
  8
PLATE
 62
     7
  6
CONTINUOUS
 10
7.450000
 20
0.552280
 30
0.000000
 11
8.075000
 21
0.552280
 31
0.000000
  0
LINE
  8
PLATE
 62
     7
  6
CONTINUOUS
 10
7.450000
 20
5.000000
 30
0.000000
 11
7.450000
 21
0.552280
 31
0.000000
  0
POINT
  8
BUSH
 62
     7
 10
7.509600
 20
6.750000
 30
0.000000
  0
POINT
  8
BUSH
 62
     7
 10
7.509600
 20
6.750000
 30
0.000000
  0
LINE
  8
BUSH
 62
     7
  6
CONTINUOUS
 10
7.509600
 20
6.750000
 30
0.000000
 11
7.509600
 21
5.937500
 31
0.000000
  0
POINT
  8
BUSH
 62
     7
 10
8.634920
 20
7.453108
 30
0.000000
  0
POINT
  8
BUSH
 62
     7
 10
8.634920
 20
7.453108
 30
0.000000
  0
POINT
  8
BUSH
 62
     7
 10
8.634928
 20
7.453108
 30
0.000000
  0
POINT
  8
BUSH
 62
     7
 10
8.634928
 20
7.453108
 30
0.000000
  0
POINT
  8
BUSH
 62
     7
 10
7.508459
 20
7.454028
 30
0.000000
  0
POINT
  8
BUSH
 62
     7
 10
7.633459
 20
7.454028
 30
0.000000
  0
POINT
  8
BUSH
 62
     7
 10
7.758459
 20
7.454028
 30
0.000000
  0
POINT
  8
BUSH
 62
     7
 10
7.758459
 20
7.454028
 30
0.000000
  0
LINE
  8
BUSH
 62
     7
  6
CONTINUOUS
 10
7.633459
 20
7.454028
 30
0.000000
 11
7.633459
 21
7.508728
 31
0.000000
  0
LINE
  8
BUSH
 62
     7
  6
CONTINUOUS
 10
7.633459
 20
7.454028
 30
0.000000
 11
7.633459
 21
7.399328
 31
0.000000
  0
LINE
  8
BUSH
 62
     7
  6
CONTINUOUS
 10
7.758459
 20
7.454028
 30
0.000000
 11
7.758459
 21
7.540414
 31
0.000000
  0
LINE
  8
BUSH
 62
     7
  6
CONTINUOUS
 10
7.758459
 20
7.454028
 30
0.000000
 11
7.758459
 21
7.367641
 31
0.000000
  0
POINT
  8
BUSH
 62
     7
 10
8.008459
 20
7.454028
 30
0.000000
  0
POINT
  8
BUSH
 62
     7
 10
7.883459
 20
7.454028
 30
0.000000
  0
POINT
  8
BUSH
 62
     7
 10
7.883459
 20
7.454028
 30
0.000000
  0
LINE
  8
BUSH
 62
     7
  6
CONTINUOUS
 10
7.883459
 20
7.454028
 30
0.000000
 11
7.883459
 21
7.508728
 31
0.000000
  0
LINE
  8
BUSH
 62
     7
  6
CONTINUOUS
 10
7.883459
 20
7.454028
 30
0.000000
 11
7.883459
 21
7.399328
 31
0.000000
  0
POINT
  8
BUSH
 62
     7
 10
8.133459
 20
7.454028
 30
0.000000
  0
LINE
  8
BUSH
 62
     7
  6
CONTINUOUS
 10
8.133459
 20
7.454028
 30
0.000000
 11
8.133459
 21
7.508728
 31
0.000000
  0
LINE
  8
BUSH
 62
     7
  6
CONTINUOUS
 10
8.133459
 20
7.454028
 30
0.000000
 11
8.133459
 21
7.399328
 31
0.000000
  0
POINT
  8
BUSH
 62
     7
 10
8.383459
 20
7.454028
 30
0.000000
  0
LINE
  8
BUSH
 62
     7
  6
CONTINUOUS
 10
8.383459
 20
7.454028
 30
0.000000
 11
8.383459
 21
7.508728
 31
0.000000
  0
LINE
  8
BUSH
 62
     7
  6
CONTINUOUS
 10
8.383459
 20
7.454028
 30
0.000000
 11
8.383459
 21
7.399328
 31
0.000000
  0
POINT
  8
BUSH
 62
     7
 10
8.633459
 20
7.454028
 30
0.000000
  0
LINE
  8
BUSH
 62
     7
  6
CONTINUOUS
 10
8.633459
 20
7.454028
 30
0.000000
 11
8.633459
 21
7.508728
 31
0.000000
  0
LINE
  8
BUSH
 62
     7
  6
CONTINUOUS
 10
8.633459
 20
7.454028
 30
0.000000
 11
8.633459
 21
7.399328
 31
0.000000
  0
POINT
  8
BUSH
 62
     7
 10
8.008459
 20
7.454028
 30
0.000000
  0
POINT
  8
BUSH
 62
     7
 10
8.008459
 20
7.454028
 30
0.000000
  0
LINE
  8
BUSH
 62
     7
  6
CONTINUOUS
 10
8.008459
 20
7.454028
 30
0.000000
 11
8.008459
 21
7.540414
 31
0.000000
  0
LINE
  8
BUSH
 62
     7
  6
CONTINUOUS
 10
8.008459
 20
7.454028
 30
0.000000
 11
8.008459
 21
7.367641
 31
0.000000
  0
POINT
  8
BUSH
 62
     7
 10
8.258459
 20
7.454028
 30
0.000000
  0
POINT
  8
BUSH
 62
     7
 10
8.258459
 20
7.454028
 30
0.000000
  0
LINE
  8
BUSH
 62
     7
  6
CONTINUOUS
 10
8.258459
 20
7.454028
 30
0.000000
 11
8.258459
 21
7.540414
 31
0.000000
  0
LINE
  8
BUSH
 62
     7
  6
CONTINUOUS
 10
8.258459
 20
7.454028
 30
0.000000
 11
8.258459
 21
7.367641
 31
0.000000
  0
POINT
  8
BUSH
 62
     7
 10
8.508459
 20
7.454028
 30
0.000000
  0
POINT
  8
BUSH
 62
     7
 10
8.508459
 20
7.454028
 30
0.000000
  0
LINE
  8
BUSH
 62
     7
  6
CONTINUOUS
 10
8.508459
 20
7.454028
 30
0.000000
 11
8.508459
 21
7.540414
 31
0.000000
  0
LINE
  8
BUSH
 62
     7
  6
CONTINUOUS
 10
8.508459
 20
7.454028
 30
0.000000
 11
8.508459
 21
7.367641
 31
0.000000
  0
POINT
  8
BUSH
 62
     7
 10
7.509600
 20
6.750000
 30
0.000000
  0
LINE
  8
BUSH
 62
     7
  6
CONTINUOUS
 10
7.509600
 20
7.562500
 30
0.000000
 11
7.509600
 21
6.750000
 31
0.000000
  0
LINE
  8
BUSH
 62
     7
  6
CONTINUOUS
 10
7.509600
 20
6.750000
 30
0.000000
 11
8.759600
 21
6.750000
 31
0.000000
  0
LINE
  8
BUSH
 62
     7
  6
CONTINUOUS
 10
8.759600
 20
6.750000
 30
0.000000
 11
8.759600
 21
7.687500
 31
0.000000
  0
LINE
  8
BUSH
 62
     7
  6
CONTINUOUS
 10
8.759600
 20
6.750000
 30
0.000000
 11
8.759600
 21
5.812500
 31
0.000000
  0
LINE
  8
BUSH
 62
     7
  6
CONTINUOUS
 10
7.509600
 20
7.312491
 30
0.000000
 11
8.759600
 21
7.312491
 31
0.000000
  0
LINE
  8
BUSH
 62
     7
  6
CONTINUOUS
 10
7.509600
 20
7.367158
 30
0.000000
 11
8.759600
 21
7.367158
 31
0.000000
  0
LINE
  8
BUSH
 62
     7
  6
CONTINUOUS
 10
7.512106
 20
6.187509
 30
0.000000
 11
8.759600
 21
6.187509
 31
0.000000
  0
LINE
  8
BUSH
 62
     7
  6
CONTINUOUS
 10
7.509600
 20
5.937500
 30
0.000000
 11
8.759600
 21
5.812500
 31
0.000000
  0
LINE
  8
BUSH
 62
     7
  6
CONTINUOUS
 10
7.509600
 20
7.562500
 30
0.000000
 11
8.759600
 21
7.687500
 31
0.000000
  0
LINE
  8
BUSH
 62
     7
  6
CONTINUOUS
 10
7.509600
 20
7.539058
 30
0.000000
 11
8.759600
 21
7.539058
 31
0.000000
  0
LINE
  8
BUSH
 62
     7
  6
CONTINUOUS
 10
7.508459
 20
7.454028
 30
0.000000
 11
8.759600
 21
7.454028
 31
0.000000
  0
POINT
  8
PLATE
 62
     7
 10
8.075000
 20
11.007999
 30
0.000000
  0
POINT
  8
PLATE
 62
     7
 10
8.075000
 20
2.492001
 30
0.000000
  0
POINT
  8
PLATE
 62
     7
 10
8.075000
 20
10.375000
 30
0.000000
  0
LINE
  8
PLATE
 62
     7
  6
CONTINUOUS
 10
8.075000
 20
11.007999
 30
0.000000
 11
7.950000
 21
11.007999
 31
0.000000
  0
LINE
  8
PLATE
 62
     7
  6
CONTINUOUS
 10
7.950000
 20
11.007999
 30
0.000000
 11
7.950000
 21
9.750000
 31
0.000000
  0
LINE
  8
PLATE
 62
     7
  6
CONTINUOUS
 10
8.075000
 20
10.375000
 30
0.000000
 11
7.218571
 21
10.375000
 31
0.000000
  0
POINT
  8
PLATE
 62
     7
 10
7.450000
 20
10.375000
 30
0.000000
  0
LINE
  8
PLATE
 62
     7
  6
CONTINUOUS
 10
7.950000
 20
10.109400
 30
0.000000
 11
7.950000
 21
10.640600
 31
0.000000
  0
POINT
  8
PLATE
 62
     7
 10
7.450000
 20
10.375000
 30
0.000000
  0
LINE
  8
PLATE
 62
     7
  6
CONTINUOUS
 10
7.450000
 20
10.843500
 30
0.000000
 11
7.450000
 21
9.906500
 31
0.000000
  0
LINE
  8
PLATE
 62
     7
  6
CONTINUOUS
 10
7.701000
 20
10.109400
 30
0.000000
 11
7.701000
 21
10.640600
 31
0.000000
  0
LINE
  8
PLATE
 62
     7
  6
CONTINUOUS
 10
7.450000
 20
10.843500
 30
0.000000
 11
7.701000
 21
10.640600
 31
0.000000
  0
LINE
  8
PLATE
 62
     7
  6
CONTINUOUS
 10
7.701000
 20
10.109400
 30
0.000000
 11
7.450000
 21
9.906500
 31
0.000000
  0
LINE
  8
PLATE
 62
     7
  6
CONTINUOUS
 10
7.950000
 20
10.109400
 30
0.000000
 11
7.701000
 21
10.109400
 31
0.000000
  0
LINE
  8
PLATE
 62
     7
  6
CONTINUOUS
 10
7.950000
 20
10.640600
 30
0.000000
 11
7.701000
 21
10.640600
 31
0.000000
  0
LINE
  8
PLATE
 62
     7
  6
CONTINUOUS
 10
8.075000
 20
0.552280
 30
0.000000
 11
8.075000
 21
2.492001
 31
0.000000
  0
LINE
  8
PLATE
 62
     7
  6
CONTINUOUS
 10
8.075000
 20
11.007999
 30
0.000000
 11
8.075000
 21
12.947720
 31
0.000000
  0
LINE
  8
PLATE
 62
     7
  6
CONTINUOUS
 10
7.950000
 20
9.750000
 30
0.000000
 11
7.450000
 21
9.750000
 31
0.000000
  0
LINE
  8
PLATE
 62
     7
  6
CONTINUOUS
 10
7.950000
 20
9.750000
 30
0.000000
 11
7.950000
 21
7.875000
 31
0.000000
  0
LINE
  8
PLATE
 62
     7
  6
CONTINUOUS
 10
7.450000
 20
8.504262
 30
0.000000
 11
7.450000
 21
12.947720
 31
0.000000
  0
POINT
  8
ADV9
 62
     7
 10
9.588276
 20
6.750000
 30
0.000000
  0
LINE
  8
ADV9
 62
     7
  6
CONTINUOUS
 10
9.588276
 20
6.750000
 30
0.000000
 11
9.588276
 21
11.315000
 31
0.000000
  0
LINE
  8
ADV9
 62
     7
  6
CONTINUOUS
 10
9.588276
 20
6.750000
 30
0.000000
 11
9.588276
 21
2.185000
 31
0.000000
  0
LINE
  8
ADV9
 62
     7
  6
CONTINUOUS
 10
9.588276
 20
2.185000
 30
0.000000
 11
11.118183
 21
2.185000
 31
0.000000
  0
LINE
  8
ADV9
 62
     7
  6
CONTINUOUS
 10
9.588276
 20
11.315000
 30
0.000000
 11
11.086409
 21
11.315000
 31
0.000000
  0
POINT
  8
ADV9
 62
     7
 10
9.588276
 20
6.750000
 30
0.000000
  0
POINT
  8
ADV9
 62
     7
 10
9.592600
 20
8.749995
 30
0.000000
  0
POINT
  8
ADV9
 62
     7
 10
9.588276
 20
6.750000
 30
0.000000
  0
LINE
  8
ADV9
 62
     7
  6
CONTINUOUS
 10
9.588276
 20
11.315000
 30
0.000000
 11
9.588276
 21
6.750000
 31
0.000000
  0
POINT
  8
ADV9
 62
     7
 10
9.592724
 20
4.750005
 30
0.000000
  0
LINE
  8
ADV9
 62
     7
  6
CONTINUOUS
 10
9.592600
 20
8.749995
 30
0.000000
 11
9.401600
 21
8.749995
 31
0.000000
  0
LINE
  8
ADV9
 62
     7
  6
CONTINUOUS
 10
9.592724
 20
4.750005
 30
0.000000
 11
9.401724
 21
4.750005
 31
0.000000
  0
LINE
  8
ADV9
 62
     7
  6
CONTINUOUS
 10
9.401600
 20
8.749995
 30
0.000000
 11
9.401600
 21
4.750005
 31
0.000000
  0
POINT
  8
ADV9
 62
     7
 10
9.401600
 20
6.750000
 30
0.000000
  0
POINT
  8
ADV9
 62
     7
 10
9.411543
 20
8.348969
 30
0.000000
  0
POINT
  8
ADV9
 62
     7
 10
9.408356
 20
5.150971
 30
0.000000
  0
POINT
  8
ADV9
 62
     7
 10
9.401600
 20
6.750000
 30
0.000000
  0
POINT
  8
ADV9
 62
     7
 10
9.059599
 20
6.750000
 30
0.000000
  0
LINE
  8
ADV9
 62
     7
  6
CONTINUOUS
 10
9.059599
 20
6.750000
 30
0.000000
 11
9.059599
 21
8.190000
 31
0.000000
  0
LINE
  8
ADV9
 62
     7
  6
CONTINUOUS
 10
9.059599
 20
6.750000
 30
0.000000
 11
9.059599
 21
5.310000
 31
0.000000
  0
LINE
  8
ADV9
 62
     7
  6
CONTINUOUS
 10
9.059599
 20
5.310000
 30
0.000000
 11
9.408356
 21
5.150971
 31
0.000000
  0
LINE
  8
ADV9
 62
     7
  6
CONTINUOUS
 10
9.059599
 20
8.190000
 30
0.000000
 11
9.411543
 21
8.348969
 31
0.000000
  0
POINT
  8
ADV9
 62
     7
 10
9.059599
 20
6.750000
 30
0.000000
  0
POINT
  8
ADV9
 62
     7
 10
9.059599
 20
6.750000
 30
0.000000
  0
POINT
  8
ADV9
 62
     7
 10
7.571599
 20
6.750000
 30
0.000000
  0
LINE
  8
ADV9
 62
     7
  6
CONTINUOUS
 10
7.571599
 20
6.750000
 30
0.000000
 11
7.571599
 21
7.249930
 31
0.000000
  0
LINE
  8
ADV9
 62
     7
  6
CONTINUOUS
 10
7.571599
 20
6.750000
 30
0.000000
 11
7.571599
 21
6.250000
 31
0.000000
  0
POINT
  8
ADV9
 62
     7
 10
7.571599
 20
6.750000
 30
0.000000
  0
POINT
  8
ADV9
 62
     7
 10
7.571599
 20
6.750000
 30
0.000000
  0
POINT
  8
ADV9
 62
     7
 10
7.631588
 20
6.751209
 30
0.000000
  0
POINT
  8
ADV9
 62
     7
 10
7.631588
 20
6.188709
 30
0.000000
  0
LINE
  8
ADV9
 62
     7
  6
CONTINUOUS
 10
7.631588
 20
6.188709
 30
0.000000
 11
9.059599
 21
6.188709
 31
0.000000
  0
LINE
  8
ADV9
 62
     7
  6
CONTINUOUS
 10
7.631588
 20
6.751209
 30
0.000000
 11
7.631588
 21
6.188709
 31
0.000000
  0
LINE
  8
ADV9
 62
     7
  6
CONTINUOUS
 10
7.631588
 20
6.188709
 30
0.000000
 11
7.571599
 21
6.250000
 31
0.000000
  0
CIRCLE
  8
ADV9
 62
     7
  6
CONTINUOUS
 10
8.759600
 20
7.312491
 30
0.000000
 40
0.001313
  0
LINE
  8
ADV9
 62
     7
  6
CONTINUOUS
 10
7.631588
 20
6.751209
 30
0.000000
 11
7.631588
 21
7.311179
 31
0.000000
  0
LINE
  8
ADV9
 62
     7
  6
CONTINUOUS
 10
7.631588
 20
7.311179
 30
0.000000
 11
9.059599
 21
7.311179
 31
0.000000
  0
LINE
  8
ADV9
 62
     7
  6
CONTINUOUS
 10
7.571599
 20
7.249930
 30
0.000000
 11
7.631588
 21
7.311179
 31
0.000000
  0
POINT
  8
DIEM
 62
     7
 10
9.339693
 20
6.750000
 30
0.000000
  0
POINT
  8
DIEM
 62
     7
 10
9.339693
 20
6.750000
 30
0.000000
  0
POINT
  8
DIEM
 62
     7
 10
9.339693
 20
6.750000
 30
0.000000
  0
POINT
  8
DIEM
 62
     7
 10
9.339693
 20
6.750000
 30
0.000000
  0
POINT
  8
DIEM
 62
     7
 10
9.339693
 20
6.750000
 30
0.000000
  0
POINT
  8
DIEM
 62
     7
 10
9.339693
 20
6.750000
 30
0.000000
  0
POINT
  8
DIEM
 62
     7
 10
9.339693
 20
6.750000
 30
0.000000
  0
POINT
  8
DIEM
 62
     7
 10
7.950000
 20
6.750000
 30
0.000000
  0
POINT
  8
DIEM
 62
     7
 10
7.950000
 20
6.750000
 30
0.000000
  0
POINT
  8
DIEM
 62
     7
 10
7.950000
 20
6.750000
 30
0.000000
  0
POINT
  8
DIEM
 62
     7
 10
7.950000
 20
6.750000
 30
0.000000
  0
POINT
  8
DIEM
 62
     7
 10
7.950000
 20
6.750000
 30
0.000000
  0
POINT
  8
DIEM
 62
     7
 10
7.950000
 20
6.750000
 30
0.000000
  0
LINE
  8
PLATE
 62
     7
  6
CONTINUOUS
 10
8.075000
 20
2.492001
 30
0.000000
 11
7.950000
 21
2.492001
 31
0.000000
  0
LINE
  8
PLATE
 62
     7
  6
CONTINUOUS
 10
7.450000
 20
3.750000
 30
0.000000
 11
7.950000
 21
3.750000
 31
0.000000
  0
LINE
  8
DIEM
 62
     7
  6
CONTINUOUS
 10
4.174824
 20
11.018408
 30
0.000000
 11
4.237324
 21
11.018408
 31
0.000000
  0
LINE
  8
DIEM
 62
     7
  6
CONTINUOUS
 10
3.383511
 20
7.366202
 30
0.000000
 11
3.421670
 21
7.247169
 31
0.000000
  0
LINE
  8
DIEM
 62
     7
  6
CONTINUOUS
 10
3.383511
 20
7.366202
 30
0.000000
 11
3.299505
 21
7.273638
 31
0.000000
  0
LINE
  8
DIEM
 62
     7
  6
CONTINUOUS
 10
3.116489
 20
6.133798
 30
0.000000
 11
3.078330
 21
6.252831
 31
0.000000
  0
LINE
  8
DIEM
 62
     7
  6
CONTINUOUS
 10
3.116489
 20
6.133798
 30
0.000000
 11
3.200495
 21
6.226362
 31
0.000000
  0
TEXT
  8
DIEM
 62
     7
 10
4.268574
 20
10.955672
 30
0.000000
 40
0.125000
  1
1.261"
  0
TEXT
  8
DIEM
 62
     7
 10
4.601409
 20
11.049658
 30
0.000000
 40
0.125000
  1
+.000"
  0
TEXT
  8
DIEM
 62
     7
 10
4.601409
 20
10.861687
 30
0.000000
 40
0.125000
  1
-.002"
  0
LINE
  8
DIEM
 62
     7
  6
CONTINUOUS
 10
3.116489
 20
6.133798
 30
0.000000
 11
4.174824
 21
11.018408
 31
0.000000
  0
LINE
  8
DIEM
 62
     7
  6
CONTINUOUS
 10
3.781700
 20
11.457695
 30
0.000000
 11
3.844200
 21
11.457695
 31
0.000000
  0
LINE
  8
DIEM
 62
     7
  6
CONTINUOUS
 10
3.726974
 20
10.973150
 30
0.000000
 11
3.776930
 21
10.858567
 31
0.000000
  0
LINE
  8
DIEM
 62
     7
  6
CONTINUOUS
 10
3.726974
 20
10.973150
 30
0.000000
 11
3.652720
 21
10.872595
 31
0.000000
  0
LINE
  8
DIEM
 62
     7
  6
CONTINUOUS
 10
2.773025
 20
2.526852
 30
0.000000
 11
2.723069
 21
2.641435
 31
0.000000
  0
LINE
  8
DIEM
 62
     7
  6
CONTINUOUS
 10
2.773025
 20
2.526852
 30
0.000000
 11
2.847279
 21
2.627407
 31
0.000000
  0
TEXT
  8
DIEM
 62
     7
 10
3.875450
 20
11.394646
 30
0.000000
 40
0.125000
  1
8.500"
  0
TEXT
  8
DIEM
 62
     7
 10
4.359203
 20
11.488944
 30
0.000000
 40
0.125000
  1
+.000"
  0
TEXT
  8
DIEM
 62
     7
 10
4.359203
 20
11.300348
 30
0.000000
 40
0.125000
  1
-.002"
  0
LINE
  8
DIEM
 62
     7
  6
CONTINUOUS
 10
2.773025
 20
2.526852
 30
0.000000
 11
3.781700
 21
11.457695
 31
0.000000
  0
POINT
  8
HUB
 62
     7
 10
10.685588
 20
6.750000
 30
0.000000
  0
LINE
  8
HUB
 62
     7
  6
CONTINUOUS
 10
10.685588
 20
6.119500
 30
0.000000
 11
10.685588
 21
7.380500
 31
0.000000
  0
LINE
  8
HUB
 62
     7
  6
CONTINUOUS
 10
10.810588
 20
6.119500
 30
0.000000
 11
10.810588
 21
5.000000
 31
0.000000
  0
LINE
  8
HUB
 62
     7
  6
CONTINUOUS
 10
10.810588
 20
7.380500
 30
0.000000
 11
10.810588
 21
8.500000
 31
0.000000
  0
POINT
  8
HUB
 62
     7
 10
10.685588
 20
6.750000
 30
0.000000
  0
LINE
  8
HUB
 62
     7
  6
CONTINUOUS
 10
10.810588
 20
5.000000
 30
0.000000
 11
11.560588
 21
5.000000
 31
0.000000
  0
LINE
  8
HUB
 62
     7
  6
CONTINUOUS
 10
10.810588
 20
8.500000
 30
0.000000
 11
11.560588
 21
8.500000
 31
0.000000
  0
LINE
  8
HUB
 62
     7
  6
CONTINUOUS
 10
12.685588
 20
7.875000
 30
0.000000
 11
12.685588
 21
5.629731
 31
0.000000
  0
LINE
  8
HUB
 62
     7
  6
CONTINUOUS
 10
12.685588
 20
7.875000
 30
0.000000
 11
11.560588
 21
7.875000
 31
0.000000
  0
LINE
  8
HUB
 62
     7
  6
CONTINUOUS
 10
12.685588
 20
5.629731
 30
0.000000
 11
11.560588
 21
5.629731
 31
0.000000
  0
LINE
  8
HUB
 62
     7
  6
CONTINUOUS
 10
11.560588
 20
5.629731
 30
0.000000
 11
11.560588
 21
5.000000
 31
0.000000
  0
LINE
  8
HUB
 62
     7
  6
CONTINUOUS
 10
11.560588
 20
7.875000
 30
0.000000
 11
11.560588
 21
8.500000
 31
0.000000
  0
POINT
  8
HUB
 62
     7
 10
12.685588
 20
6.750000
 30
0.000000
  0
LINE
  8
HUB
 62
     7
  6
CONTINUOUS
 10
12.685588
 20
6.750000
 30
0.000000
 11
12.685588
 21
7.687500
 31
0.000000
  0
LINE
  8
HUB
 62
     7
  6
CONTINUOUS
 10
12.685588
 20
6.750000
 30
0.000000
 11
12.685588
 21
5.812500
 31
0.000000
  0
POINT
  8
HUB
 62
     7
 10
12.685588
 20
5.812500
 30
0.000000
  0
POINT
  8
HUB
 62
     7
 10
12.685588
 20
7.687500
 30
0.000000
  0
LINE
  8
HUB
 62
     7
  6
CONTINUOUS
 10
11.310588
 20
5.950000
 30
0.000000
 11
12.685588
 21
5.812500
 31
0.000000
  0
LINE
  8
HUB
 62
     7
  6
CONTINUOUS
 10
10.685588
 20
7.125000
 30
0.000000
 11
11.310588
 21
7.125000
 31
0.000000
  0
LINE
  8
HUB
 62
     7
  6
CONTINUOUS
 10
10.685588
 20
6.375000
 30
0.000000
 11
11.310588
 21
6.375000
 31
0.000000
  0
POINT
  8
HUB
 62
     7
 10
10.810588
 20
7.453000
 30
0.000000
  0
POINT
  8
HUB
 62
     7
 10
10.810588
 20
7.453000
 30
0.000000
  0
POINT
  8
HUB
 62
     7
 10
10.810588
 20
7.632700
 30
0.000000
  0
LINE
  8
HUB
 62
     7
  6
CONTINUOUS
 10
10.810588
 20
7.632700
 30
0.000000
 11
10.998088
 21
7.632700
 31
0.000000
  0
LINE
  8
HUB
 62
     7
  6
CONTINUOUS
 10
10.998088
 20
7.273300
 30
0.000000
 11
10.998088
 21
7.632700
 31
0.000000
  0
POINT
  8
HUB
 62
     7
 10
10.998088
 20
7.454022
 30
0.000000
  0
POINT
  8
HUB
 62
     7
 10
10.998088
 20
7.555573
 30
0.000000
  0
POINT
  8
HUB
 62
     7
 10
10.998088
 20
7.352472
 30
0.000000
  0
LINE
  8
HUB
 62
     7
  6
CONTINUOUS
 10
10.998088
 20
7.273300
 30
0.000000
 11
10.685588
 21
7.273300
 31
0.000000
  0
LINE
  8
HUB
 62
     7
  6
CONTINUOUS
 10
10.998088
 20
7.352472
 30
0.000000
 11
11.310588
 21
7.352472
 31
0.000000
  0
LINE
  8
HUB
 62
     7
  6
CONTINUOUS
 10
10.998088
 20
7.555573
 30
0.000000
 11
11.366311
 21
7.555573
 31
0.000000
  0
LINE
  8
HUB
 62
     7
  6
CONTINUOUS
 10
11.366311
 20
7.555573
 30
0.000000
 11
12.685588
 21
7.687500
 31
0.000000
  0
LINE
  8
HUB
 62
     7
  6
CONTINUOUS
 10
11.310588
 20
5.950000
 30
0.000000
 11
11.310588
 21
7.555573
 31
0.000000
  0
LINE
  8
HUB
 62
     7
  6
CONTINUOUS
 10
10.810588
 20
7.453000
 30
0.000000
 11
11.353574
 21
7.453000
 31
0.000000
  0
LINE
  8
HUB
 62
     7
  6
CONTINUOUS
 10
10.467988
 20
8.126000
 30
0.000000
 11
12.125928
 21
8.126000
 31
0.000000
  0
POINT
  8
HUB
 62
     7
 10
10.810588
 20
8.126000
 30
0.000000
  0
LINE
  8
HUB
 62
     7
  6
CONTINUOUS
 10
10.810588
 20
8.305700
 30
0.000000
 11
11.560588
 21
8.305700
 31
0.000000
  0
LINE
  8
HUB
 62
     7
  6
CONTINUOUS
 10
10.810588
 20
7.946301
 30
0.000000
 11
11.560588
 21
7.946301
 31
0.000000
  0
POINT
  8
HUB
 62
     7
 10
10.810588
 20
8.126000
 30
0.000000
  0
POINT
  8
HUB
 62
     7
 10
10.810588
 20
8.126000
 30
0.000000
  0
POINT
  8
HUB
 62
     7
 10
10.841588
 20
8.126000
 30
0.000000
  0
POINT
  8
HUB
 62
     7
 10
10.873088
 20
8.126000
 30
0.000000
  0
POINT
  8
HUB
 62
     7
 10
10.904338
 20
8.126000
 30
0.000000
  0
POINT
  8
HUB
 62
     7
 10
10.935588
 20
8.126000
 30
0.000000
  0
LINE
  8
HUB
 62
     7
  6
CONTINUOUS
 10
10.841588
 20
8.305700
 30
0.000000
 11
10.841588
 21
7.946301
 31
0.000000
  0
LINE
  8
HUB
 62
     7
  6
CONTINUOUS
 10
10.873088
 20
8.268997
 30
0.000000
 11
10.873088
 21
7.983004
 31
0.000000
  0
LINE
  8
HUB
 62
     7
  6
CONTINUOUS
 10
10.904338
 20
8.305700
 30
0.000000
 11
10.904338
 21
7.946301
 31
0.000000
  0
LINE
  8
HUB
 62
     7
  6
CONTINUOUS
 10
10.967088
 20
8.305700
 30
0.000000
 11
10.967088
 21
7.946301
 31
0.000000
  0
LINE
  8
HUB
 62
     7
  6
CONTINUOUS
 10
11.029838
 20
8.305700
 30
0.000000
 11
11.029838
 21
7.946301
 31
0.000000
  0
LINE
  8
HUB
 62
     7
  6
CONTINUOUS
 10
11.092587
 20
8.305700
 30
0.000000
 11
11.092587
 21
7.946301
 31
0.000000
  0
LINE
  8
HUB
 62
     7
  6
CONTINUOUS
 10
11.155337
 20
8.305700
 30
0.000000
 11
11.155337
 21
7.946301
 31
0.000000
  0
LINE
  8
HUB
 62
     7
  6
CONTINUOUS
 10
11.218087
 20
8.305700
 30
0.000000
 11
11.218087
 21
7.946301
 31
0.000000
  0
LINE
  8
HUB
 62
     7
  6
CONTINUOUS
 10
11.280837
 20
8.305700
 30
0.000000
 11
11.280837
 21
7.946301
 31
0.000000
  0
LINE
  8
HUB
 62
     7
  6
CONTINUOUS
 10
11.343587
 20
8.305700
 30
0.000000
 11
11.343587
 21
7.946301
 31
0.000000
  0
LINE
  8
HUB
 62
     7
  6
CONTINUOUS
 10
11.406337
 20
8.305700
 30
0.000000
 11
11.406337
 21
7.946301
 31
0.000000
  0
LINE
  8
HUB
 62
     7
  6
CONTINUOUS
 10
11.469087
 20
8.305700
 30
0.000000
 11
11.469087
 21
7.946301
 31
0.000000
  0
LINE
  8
HUB
 62
     7
  6
CONTINUOUS
 10
11.531837
 20
8.305700
 30
0.000000
 11
11.531837
 21
7.946301
 31
0.000000
  0
LINE
  8
HUB
 62
     7
  6
CONTINUOUS
 10
10.935588
 20
8.268997
 30
0.000000
 11
10.935588
 21
7.983004
 31
0.000000
  0
LINE
  8
HUB
 62
     7
  6
CONTINUOUS
 10
10.998088
 20
8.268997
 30
0.000000
 11
10.998088
 21
7.983004
 31
0.000000
  0
LINE
  8
HUB
 62
     7
  6
CONTINUOUS
 10
11.060588
 20
8.268997
 30
0.000000
 11
11.060588
 21
7.983004
 31
0.000000
  0
LINE
  8
HUB
 62
     7
  6
CONTINUOUS
 10
11.123088
 20
8.268997
 30
0.000000
 11
11.123088
 21
7.983004
 31
0.000000
  0
LINE
  8
HUB
 62
     7
  6
CONTINUOUS
 10
11.185588
 20
8.268997
 30
0.000000
 11
11.185588
 21
7.983004
 31
0.000000
  0
LINE
  8
HUB
 62
     7
  6
CONTINUOUS
 10
11.248088
 20
8.268997
 30
0.000000
 11
11.248088
 21
7.983004
 31
0.000000
  0
LINE
  8
HUB
 62
     7
  6
CONTINUOUS
 10
11.310588
 20
8.268997
 30
0.000000
 11
11.310588
 21
7.983004
 31
0.000000
  0
LINE
  8
HUB
 62
     7
  6
CONTINUOUS
 10
11.373088
 20
8.268997
 30
0.000000
 11
11.373088
 21
7.983004
 31
0.000000
  0
LINE
  8
HUB
 62
     7
  6
CONTINUOUS
 10
11.435588
 20
8.268997
 30
0.000000
 11
11.435588
 21
7.983004
 31
0.000000
  0
LINE
  8
HUB
 62
     7
  6
CONTINUOUS
 10
11.498088
 20
8.268997
 30
0.000000
 11
11.498088
 21
7.983004
 31
0.000000
  0
LINE
  8
HUB
 62
     7
  6
CONTINUOUS
 10
10.685588
 20
7.380500
 30
0.000000
 11
10.810588
 21
7.380500
 31
0.000000
  0
LINE
  8
DIEM
 62
     7
  6
CONTINUOUS
 10
10.134355
 20
6.119500
 30
0.000000
 11
10.071855
 21
6.227753
 31
0.000000
  0
LINE
  8
DIEM
 62
     7
  6
CONTINUOUS
 10
10.134355
 20
6.119500
 30
0.000000
 11
10.196855
 21
6.227753
 31
0.000000
  0
LINE
  8
DIEM
 62
     7
  6
CONTINUOUS
 10
10.134355
 20
7.380500
 30
0.000000
 11
10.196855
 21
7.272247
 31
0.000000
  0
LINE
  8
DIEM
 62
     7
  6
CONTINUOUS
 10
10.134355
 20
7.380500
 30
0.000000
 11
10.071855
 21
7.272247
 31
0.000000
  0
LINE
  8
DIEM
 62
     7
  6
CONTINUOUS
 10
10.623088
 20
6.119500
 30
0.000000
 11
9.884355
 21
6.119500
 31
0.000000
  0
LINE
  8
DIEM
 62
     7
  6
CONTINUOUS
 10
10.623088
 20
7.380500
 30
0.000000
 11
9.884355
 21
7.380500
 31
0.000000
  0
TEXT
  8
DIEM
 62
     7
 10
9.730611
 20
6.952615
 30
0.000000
 40
0.125000
  1
1.261"
  0
TEXT
  8
DIEM
 62
     7
 10
10.063447
 20
7.046601
 30
0.000000
 40
0.125000
  1
+.000"
  0
TEXT
  8
DIEM
 62
     7
 10
10.063447
 20
6.858630
 30
0.000000
 40
0.125000
  1
-.002"
  0
LINE
  8
DIEM
 62
     7
  6
CONTINUOUS
 10
10.134355
 20
6.119500
 30
0.000000
 11
10.134355
 21
6.827318
 31
0.000000
  0
LINE
  8
DIEM
 62
     7
  6
CONTINUOUS
 10
10.134355
 20
7.203384
 30
0.000000
 11
10.134355
 21
7.380500
 31
0.000000
  0
LINE
  8
DIEM
 62
     7
  6
CONTINUOUS
 10
3.981607
 20
8.649101
 30
0.000000
 11
4.044107
 21
8.649101
 31
0.000000
  0
LINE
  8
DIEM
 62
     7
  6
CONTINUOUS
 10
3.744652
 20
8.034016
 30
0.000000
 11
3.764059
 21
7.910531
 31
0.000000
  0
LINE
  8
DIEM
 62
     7
  6
CONTINUOUS
 10
3.744652
 20
8.034016
 30
0.000000
 11
3.647415
 21
7.955467
 31
0.000000
  0
LINE
  8
DIEM
 62
     7
  6
CONTINUOUS
 10
2.755348
 20
5.465984
 30
0.000000
 11
2.735941
 21
5.589469
 31
0.000000
  0
LINE
  8
DIEM
 62
     7
  6
CONTINUOUS
 10
2.755348
 20
5.465984
 30
0.000000
 11
2.852585
 21
5.544533
 31
0.000000
  0
TEXT
  8
DIEM
 62
     7
 10
4.075357
 20
8.586295
 30
0.000000
 40
0.125000
  1
2.752" BOLTCIRCLE
  0
LINE
  8
DIEM
 62
     7
  6
CONTINUOUS
 10
2.755348
 20
5.465984
 30
0.000000
 11
3.981607
 21
8.649101
 31
0.000000
  0
LINE
  8
DIEM
 62
     7
  6
CONTINUOUS
 10
4.190706
 20
9.719704
 30
0.000000
 11
4.253206
 21
9.719704
 31
0.000000
  0
LINE
  8
DIEM
 62
     7
  6
CONTINUOUS
 10
4.155938
 20
9.609943
 30
0.000000
 11
4.182829
 21
9.487870
 31
0.000000
  0
LINE
  8
DIEM
 62
     7
  6
CONTINUOUS
 10
4.155938
 20
9.609943
 30
0.000000
 11
4.063665
 21
9.525618
 31
0.000000
  0
LINE
  8
DIEM
 62
     7
  6
CONTINUOUS
 10
2.344061
 20
3.890055
 30
0.000000
 11
2.317169
 21
4.012128
 31
0.000000
  0
LINE
  8
DIEM
 62
     7
  6
CONTINUOUS
 10
2.344061
 20
3.890055
 30
0.000000
 11
2.436333
 21
3.974381
 31
0.000000
  0
TEXT
  8
DIEM
 62
     7
 10
4.284456
 20
9.656982
 30
0.000000
 40
0.125000
  1
6" HUB CUTOUT
  0
LINE
  8
DIEM
 62
     7
  6
CONTINUOUS
 10
2.344061
 20
3.890055
 30
0.000000
 11
4.190706
 21
9.719704
 31
0.000000
  0
ARC
  8
PLATE
 62
     7
  6
CONTINUOUS
 10
3.250000
 20
6.749998
 30
0.000000
 40
3.625003
 50
60.366434
 51
125.758325
  0
ARC
  8
PLATE
 62
     7
  6
CONTINUOUS
 10
3.250000
 20
6.749996
 30
0.000000
 40
4.250005
 50
69.504143
 51
120.912178
  0
LINE
  8
DIEM
 62
     7
  6
CONTINUOUS
 10
4.287177
 20
10.464299
 30
0.000000
 11
4.349677
 21
10.464299
 31
0.000000
  0
LINE
  8
DIEM
 62
     7
  6
CONTINUOUS
 10
4.224945
 20
10.241434
 30
0.000000
 11
4.256027
 21
10.120360
 31
0.000000
  0
LINE
  8
DIEM
 62
     7
  6
CONTINUOUS
 10
4.224945
 20
10.241434
 30
0.000000
 11
4.135633
 21
10.153979
 31
0.000000
  0
LINE
  8
DIEM
 62
     7
  6
CONTINUOUS
 10
2.275056
 20
3.258561
 30
0.000000
 11
2.243973
 21
3.379635
 31
0.000000
  0
LINE
  8
DIEM
 62
     7
  6
CONTINUOUS
 10
2.275056
 20
3.258561
 30
0.000000
 11
2.364368
 21
3.346017
 31
0.000000
  0
TEXT
  8
DIEM
 62
     7
 10
4.380927
 20
10.401727
 30
0.000000
 40
0.125000
  1
7 1/4" BOLT CIRCLE=
  0
LINE
  8
DIEM
 62
     7
  6
CONTINUOUS
 10
2.275056
 20
3.258561
 30
0.000000
 11
4.287177
 21
10.464299
 31
0.000000
  0
ARC
  8
PLATE
 62
     7
  6
CONTINUOUS
 10
3.250756
 20
6.751291
 30
0.000000
 40
4.248505
 50
54.081012
 51
58.216563
  0
LINE
  8
DIEM
 62
     7
  6
CONTINUOUS
 10
2.209005
 20
8.553052
 30
0.000000
 11
2.146505
 21
8.444799
 31
0.000000
  0
LINE
  8
DIEM
 62
     7
  6
CONTINUOUS
 10
2.209005
 20
8.553052
 30
0.000000
 11
2.084005
 21
8.553052
 31
0.000000
  0
LINE
  8
DIEM
 62
     7
  6
CONTINUOUS
 10
1.168015
 20
6.749997
 30
0.000000
 11
1.105515
 21
6.858250
 31
0.000000
  0
LINE
  8
DIEM
 62
     7
  6
CONTINUOUS
 10
1.168015
 20
6.749997
 30
0.000000
 11
1.230515
 21
6.858250
 31
0.000000
  0
LINE
  8
DIEM
 62
     7
  6
CONTINUOUS
 10
2.867249
 20
7.412942
 30
0.000000
 11
2.084005
 21
8.769558
 31
0.000000
  0
LINE
  8
DIEM
 62
     7
  6
CONTINUOUS
 10
2.484500
 20
6.749999
 30
0.000000
 11
0.918015
 21
6.749996
 31
0.000000
  0
TEXT
  8
DIEM
 62
     7
 10
1.504959
 20
7.999395
 30
0.000000
 40
0.125000
  1
60
  0
ARC
  8
DIEM
 62
     7
  6
CONTINUOUS
 10
3.250000
 20
6.750001
 30
0.000000
 40
2.081985
 50
120.000066
 51
137.517756
  0
ARC
  8
DIEM
 62
     7
  6
CONTINUOUS
 10
3.250000
 20
6.750001
 30
0.000000
 40
2.081985
 50
144.190822
 51
180.000117
  0
LINE
  8
DIEM
 62
     7
  6
CONTINUOUS
 10
1.537036
 20
5.761019
 30
0.000000
 11
1.645289
 21
5.698519
 31
0.000000
  0
LINE
  8
DIEM
 62
     7
  6
CONTINUOUS
 10
1.537036
 20
5.761019
 30
0.000000
 11
1.537036
 21
5.636019
 31
0.000000
  0
LINE
  8
DIEM
 62
     7
  6
CONTINUOUS
 10
3.250000
 20
4.772040
 30
0.000000
 11
3.141747
 21
4.709540
 31
0.000000
  0
LINE
  8
DIEM
 62
     7
  6
CONTINUOUS
 10
3.250000
 20
4.772040
 30
0.000000
 11
3.141747
 21
4.834540
 31
0.000000
  0
LINE
  8
DIEM
 62
     7
  6
CONTINUOUS
 10
2.004222
 20
6.030750
 30
0.000000
 11
1.320530
 21
5.636019
 31
0.000000
  0
LINE
  8
DIEM
 62
     7
  6
CONTINUOUS
 10
3.250000
 20
5.311500
 30
0.000000
 11
3.250000
 21
4.522040
 31
0.000000
  0
TEXT
  8
DIEM
 62
     7
 10
2.132460
 20
4.974311
 30
0.000000
 40
0.125000
  1
60
  0
ARC
  8
DIEM
 62
     7
  6
CONTINUOUS
 10
3.250000
 20
6.750001
 30
0.000000
 40
1.977961
 50
210.000039
 51
234.936383
  0
ARC
  8
DIEM
 62
     7
  6
CONTINUOUS
 10
3.250000
 20
6.750001
 30
0.000000
 40
1.977961
 50
245.215637
 51
270.000000
  0
LINE
  8
DIEM
 62
     7
  6
CONTINUOUS
 10
3.250000
 20
4.771712
 30
0.000000
 11
3.358253
 21
4.834212
 31
0.000000
  0
LINE
  8
DIEM
 62
     7
  6
CONTINUOUS
 10
3.250000
 20
4.771712
 30
0.000000
 11
3.358253
 21
4.709212
 31
0.000000
  0
LINE
  8
DIEM
 62
     7
  6
CONTINUOUS
 10
5.028074
 20
5.882776
 30
0.000000
 11
5.036793
 21
5.758080
 31
0.000000
  0
LINE
  8
DIEM
 62
     7
  6
CONTINUOUS
 10
5.028074
 20
5.882776
 30
0.000000
 11
4.924444
 21
5.812877
 31
0.000000
  0
LINE
  8
DIEM
 62
     7
  6
CONTINUOUS
 10
3.250000
 20
5.311500
 30
0.000000
 11
3.250000
 21
4.521712
 31
0.000000
  0
LINE
  8
DIEM
 62
     7
  6
CONTINUOUS
 10
4.542916
 20
6.119403
 30
0.000000
 11
5.252772
 21
5.773183
 31
0.000000
  0
TEXT
  8
DIEM
 62
     7
 10
4.169002
 20
5.009668
 30
0.000000
 40
0.125000
  1
64
  0
ARC
  8
DIEM
 62
     7
  6
CONTINUOUS
 10
3.250000
 20
6.750001
 30
0.000000
 40
1.978289
 50
270.000000
 51
296.663362
  0
ARC
  8
DIEM
 62
     7
  6
CONTINUOUS
 10
3.250000
 20
6.750001
 30
0.000000
 40
1.978289
 50
306.814137
 51
333.999983
  0
LINE
  8
DIEM
 62
     7
  6
CONTINUOUS
 10
5.041713
 20
5.876123
 30
0.000000
 11
5.032993
 21
6.000819
 31
0.000000
  0
LINE
  8
DIEM
 62
     7
  6
CONTINUOUS
 10
5.041713
 20
5.876123
 30
0.000000
 11
5.145343
 21
5.946022
 31
0.000000
  0
LINE
  8
DIEM
 62
     7
  6
CONTINUOUS
 10
4.976391
 20
7.746732
 30
0.000000
 11
5.084644
 21
7.684232
 31
0.000000
  0
LINE
  8
DIEM
 62
     7
  6
CONTINUOUS
 10
4.976391
 20
7.746732
 30
0.000000
 11
4.976391
 21
7.621732
 31
0.000000
  0
LINE
  8
DIEM
 62
     7
  6
CONTINUOUS
 10
4.542916
 20
6.119403
 30
0.000000
 11
5.266411
 21
5.766531
 31
0.000000
  0
LINE
  8
DIEM
 62
     7
  6
CONTINUOUS
 10
4.495778
 20
7.469250
 30
0.000000
 11
5.192897
 21
7.871732
 31
0.000000
  0
TEXT
  8
DIEM
 62
     7
 10
5.097165
 20
6.988159
 30
0.000000
 40
0.125000
  1
56
  0
ARC
  8
DIEM
 62
     7
  6
CONTINUOUS
 10
3.250000
 20
6.750001
 30
0.000000
 40
1.993464
 50
333.999983
 51
365.957649
  0
ARC
  8
DIEM
 62
     7
  6
CONTINUOUS
 10
3.250000
 20
6.750001
 30
0.000000
 40
1.993464
 50
11.429273
 51
29.999960
  0
LINE
  8
DIEM
 62
     7
  6
CONTINUOUS
 10
4.974770
 20
7.745798
 30
0.000000
 11
4.866517
 21
7.808297
 31
0.000000
  0
LINE
  8
DIEM
 62
     7
  6
CONTINUOUS
 10
4.974770
 20
7.745798
 30
0.000000
 11
4.974770
 21
7.870798
 31
0.000000
  0
LINE
  8
DIEM
 62
     7
  6
CONTINUOUS
 10
3.250000
 20
8.741592
 30
0.000000
 11
3.358253
 21
8.804092
 31
0.000000
  0
LINE
  8
DIEM
 62
     7
  6
CONTINUOUS
 10
3.250000
 20
8.741592
 30
0.000000
 11
3.358253
 21
8.679092
 31
0.000000
  0
LINE
  8
DIEM
 62
     7
  6
CONTINUOUS
 10
4.495778
 20
7.469250
 30
0.000000
 11
5.191276
 21
7.870798
 31
0.000000
  0
LINE
  8
DIEM
 62
     7
  6
CONTINUOUS
 10
3.250000
 20
8.188500
 30
0.000000
 11
3.250000
 21
8.991592
 31
0.000000
  0
TEXT
  8
DIEM
 62
     7
 10
4.656717
 20
7.955884
 30
0.000000
 40
0.125000
  1
60
  0
ARC
  8
DIEM
 62
     7
  6
CONTINUOUS
 10
3.250000
 20
6.749998
 30
0.000000
 40
1.991595
 50
30.000090
 51
36.142589
  0
ARC
  8
DIEM
 62
     7
  6
CONTINUOUS
 10
3.250000
 20
6.749998
 30
0.000000
 40
1.991595
 50
43.170217
 51
90.000000
  0
LINE
  8
DIEM
 62
     7
  6
CONTINUOUS
 10
4.686771
 20
8.413967
 30
0.000000
 11
4.749271
 21
8.413967
 31
0.000000
  0
LINE
  8
DIEM
 62
     7
  6
CONTINUOUS
 10
3.709441
 20
7.282093
 30
0.000000
 11
3.685999
 21
7.159311
 31
0.000000
  0
LINE
  8
DIEM
 62
     7
  6
CONTINUOUS
 10
3.709441
 20
7.282093
 30
0.000000
 11
3.591388
 21
7.241004
 31
0.000000
  0
LINE
  8
DIEM
 62
     7
  6
CONTINUOUS
 10
2.790559
 20
6.217907
 30
0.000000
 11
2.814001
 21
6.340689
 31
0.000000
  0
LINE
  8
DIEM
 62
     7
  6
CONTINUOUS
 10
2.790559
 20
6.217907
 30
0.000000
 11
2.908612
 21
6.258996
 31
0.000000
  0
TEXT
  8
DIEM
 62
     7
 10
4.780521
 20
8.351380
 30
0.000000
 40
0.125000
  1
1 13/32" BOLTCIRCLE
  0
LINE
  8
DIEM
 62
     7
  6
CONTINUOUS
 10
2.790559
 20
6.217907
 30
0.000000
 11
4.686771
 21
8.413967
 31
0.000000
  0
LINE
  8
PARTS
 62
     7
  6
CONTINUOUS
 10
6.000000
 20
8.835073
 30
0.000000
 11
6.000000
 21
12.162499
 31
0.000000
  0
LINE
  8
DIEM
 62
     7
  6
CONTINUOUS
 10
3.741387
 20
6.032534
 30
0.000000
 11
3.865951
 21
6.022105
 31
0.000000
  0
LINE
  8
DIEM
 62
     7
  6
CONTINUOUS
 10
3.741387
 20
6.032534
 30
0.000000
 11
3.794638
 21
5.919444
 31
0.000000
  0
LINE
  8
DIEM
 62
     7
  6
CONTINUOUS
 10
3.741387
 20
6.032534
 30
0.000000
 11
4.870203
 21
5.248403
 31
0.000000
  0
LINE
  8
DIEM
 62
     7
  6
CONTINUOUS
 10
4.870203
 20
5.248403
 30
0.000000
 11
5.370203
 21
5.248403
 31
0.000000
  0
TEXT
  8
DIEM
 62
     7
 10
5.432703
 20
5.185903
 30
0.000000
 40
0.125000
  1
SEE NOTE B
  0
LINE
  8
DIEM
 62
     7
  6
CONTINUOUS
 10
3.346301
 20
5.204840
 30
0.000000
 11
3.469191
 21
5.227712
 31
0.000000
  0
LINE
  8
DIEM
 62
     7
  6
CONTINUOUS
 10
3.346301
 20
5.204840
 30
0.000000
 11
3.427553
 21
5.109850
 31
0.000000
  0
LINE
  8
DIEM
 62
     7
  6
CONTINUOUS
 10
3.346301
 20
5.204840
 30
0.000000
 11
4.291685
 21
4.870859
 31
0.000000
  0
LINE
  8
DIEM
 62
     7
  6
CONTINUOUS
 10
4.291685
 20
4.870859
 30
0.000000
 11
4.791685
 21
4.870859
 31
0.000000
  0
TEXT
  8
DIEM
 62
     7
 10
4.854185
 20
4.808359
 30
0.000000
 40
0.125000
  1
SEE NOTE C
  0
LINE
  8
PARTS
 62
     7
  6
CONTINUOUS
 10
6.000000
 20
5.350050
 30
0.000000
 11
6.000000
 21
8.138069
 31
0.000000
  0
LINE
  8
PARTS
 62
     7
  6
CONTINUOUS
 10
6.000000
 20
5.059631
 30
0.000000
 11
6.000000
 21
1.337501
 31
0.000000
  0
ARC
  8
PLATE
 62
     7
  6
CONTINUOUS
 10
3.250000
 20
6.749998
 30
0.000000
 40
3.624999
 50
235.094509
 51
294.916123
  0
ARC
  8
PLATE
 62
     7
  6
CONTINUOUS
 10
3.250652
 20
6.751146
 30
0.000000
 40
4.248683
 50
66.436984
 51
124.404875
  0
ARC
  8
PLATE
 62
     7
  6
CONTINUOUS
 10
3.250652
 20
6.751142
 30
0.000000
 40
4.248685
 50
236.550730
 51
270.000000
  0
LINE
  8
DIEM
 62
     7
  6
CONTINUOUS
 10
6.000000
 20
12.282277
 30
0.000000
 11
6.108253
 21
12.344777
 31
0.000000
  0
LINE
  8
DIEM
 62
     7
  6
CONTINUOUS
 10
6.000000
 20
12.282277
 30
0.000000
 11
6.108253
 21
12.219777
 31
0.000000
  0
LINE
  8
DIEM
 62
     7
  6
CONTINUOUS
 10
7.450000
 20
12.282277
 30
0.000000
 11
7.341747
 21
12.219777
 31
0.000000
  0
LINE
  8
DIEM
 62
     7
  6
CONTINUOUS
 10
7.450000
 20
12.282277
 30
0.000000
 11
7.341747
 21
12.344777
 31
0.000000
  0
LINE
  8
DIEM
 62
     7
  6
CONTINUOUS
 10
6.000000
 20
12.224999
 30
0.000000
 11
6.000000
 21
12.532277
 31
0.000000
  0
LINE
  8
DIEM
 62
     7
  6
CONTINUOUS
 10
7.450000
 20
12.885220
 30
0.000000
 11
7.450000
 21
12.032277
 31
0.000000
  0
TEXT
  8
DIEM
 62
     7
 10
5.294405
 20
12.219447
 30
0.000000
 40
0.125000
  1
1.450"
  0
LINE
  8
DIEM
 62
     7
  6
CONTINUOUS
 10
5.747777
 20
12.282277
 30
0.000000
 11
7.450000
 21
12.282277
 31
0.000000
  0
LINE
  8
DIEM
 62
     7
  6
CONTINUOUS
 10
7.450000
 20
12.612862
 30
0.000000
 11
7.341747
 21
12.550362
 31
0.000000
  0
LINE
  8
DIEM
 62
     7
  6
CONTINUOUS
 10
7.450000
 20
12.612862
 30
0.000000
 11
7.341747
 21
12.675362
 31
0.000000
  0
LINE
  8
DIEM
 62
     7
  6
CONTINUOUS
 10
8.075000
 20
12.612862
 30
0.000000
 11
8.183253
 21
12.675362
 31
0.000000
  0
LINE
  8
DIEM
 62
     7
  6
CONTINUOUS
 10
8.075000
 20
12.612862
 30
0.000000
 11
8.183253
 21
12.550362
 31
0.000000
  0
LINE
  8
DIEM
 62
     7
  6
CONTINUOUS
 10
7.450000
 20
12.885220
 30
0.000000
 11
7.450000
 21
12.362862
 31
0.000000
  0
LINE
  8
DIEM
 62
     7
  6
CONTINUOUS
 10
8.075000
 20
12.885220
 30
0.000000
 11
8.075000
 21
12.362862
 31
0.000000
  0
TEXT
  8
DIEM
 62
     7
 10
8.373792
 20
12.549837
 30
0.000000
 40
0.125000
  1
5/8"
  0
LINE
  8
DIEM
 62
     7
  6
CONTINUOUS
 10
7.450000
 20
12.612862
 30
0.000000
 11
7.200000
 21
12.612862
 31
0.000000
  0
LINE
  8
DIEM
 62
     7
  6
CONTINUOUS
 10
8.075000
 20
12.612862
 30
0.000000
 11
8.325000
 21
12.612862
 31
0.000000
  0
LINE
  8
DIEM
 62
     7
  6
CONTINUOUS
 10
10.810588
 20
4.812237
 30
0.000000
 11
10.918841
 21
4.874737
 31
0.000000
  0
LINE
  8
DIEM
 62
     7
  6
CONTINUOUS
 10
10.810588
 20
4.812237
 30
0.000000
 11
10.918841
 21
4.749737
 31
0.000000
  0
LINE
  8
DIEM
 62
     7
  6
CONTINUOUS
 10
11.560588
 20
4.812237
 30
0.000000
 11
11.452335
 21
4.749737
 31
0.000000
  0
LINE
  8
DIEM
 62
     7
  6
CONTINUOUS
 10
11.560588
 20
4.812237
 30
0.000000
 11
11.452335
 21
4.874737
 31
0.000000
  0
LINE
  8
DIEM
 62
     7
  6
CONTINUOUS
 10
10.810588
 20
4.937500
 30
0.000000
 11
10.810588
 21
4.562237
 31
0.000000
  0
LINE
  8
DIEM
 62
     7
  6
CONTINUOUS
 10
11.560588
 20
4.937500
 30
0.000000
 11
11.560588
 21
4.562237
 31
0.000000
  0
TEXT
  8
DIEM
 62
     7
 10
11.016359
 20
4.749664
 30
0.000000
 40
0.125000
  1
3/4"
  0
LINE
  8
DIEM
 62
     7
  6
CONTINUOUS
 10
10.810588
 20
4.812237
 30
0.000000
 11
10.985109
 21
4.812237
 31
0.000000
  0
LINE
  8
DIEM
 62
     7
  6
CONTINUOUS
 10
11.386067
 20
4.812237
 30
0.000000
 11
11.560588
 21
4.812237
 31
0.000000
  0
LINE
  8
DIEM
 62
     7
  6
CONTINUOUS
 10
11.560588
 20
4.812237
 30
0.000000
 11
11.668841
 21
4.874737
 31
0.000000
  0
LINE
  8
DIEM
 62
     7
  6
CONTINUOUS
 10
11.560588
 20
4.812237
 30
0.000000
 11
11.668841
 21
4.749737
 31
0.000000
  0
LINE
  8
DIEM
 62
     7
  6
CONTINUOUS
 10
12.685588
 20
4.812237
 30
0.000000
 11
12.577335
 21
4.749737
 31
0.000000
  0
LINE
  8
DIEM
 62
     7
  6
CONTINUOUS
 10
12.685588
 20
4.812237
 30
0.000000
 11
12.577335
 21
4.874737
 31
0.000000
  0
LINE
  8
DIEM
 62
     7
  6
CONTINUOUS
 10
11.560588
 20
4.937500
 30
0.000000
 11
11.560588
 21
4.562237
 31
0.000000
  0
LINE
  8
DIEM
 62
     7
  6
CONTINUOUS
 10
12.685588
 20
5.567231
 30
0.000000
 11
12.685588
 21
4.562237
 31
0.000000
  0
TEXT
  8
DIEM
 62
     7
 10
11.939357
 20
4.749329
 30
0.000000
 40
0.125000
  1
1 1/8"
  0
LINE
  8
DIEM
 62
     7
  6
CONTINUOUS
 10
11.560588
 20
4.812237
 30
0.000000
 11
11.908107
 21
4.812237
 31
0.000000
  0
LINE
  8
DIEM
 62
     7
  6
CONTINUOUS
 10
12.338069
 20
4.812237
 30
0.000000
 11
12.685588
 21
4.812237
 31
0.000000
  0
LINE
  8
DIEM
 62
     7
  6
CONTINUOUS
 10
10.685588
 20
4.311804
 30
0.000000
 11
10.793841
 21
4.374304
 31
0.000000
  0
LINE
  8
DIEM
 62
     7
  6
CONTINUOUS
 10
10.685588
 20
4.311804
 30
0.000000
 11
10.793841
 21
4.249304
 31
0.000000
  0
LINE
  8
DIEM
 62
     7
  6
CONTINUOUS
 10
12.685588
 20
4.311804
 30
0.000000
 11
12.577335
 21
4.249304
 31
0.000000
  0
LINE
  8
DIEM
 62
     7
  6
CONTINUOUS
 10
12.685588
 20
4.311804
 30
0.000000
 11
12.577335
 21
4.374304
 31
0.000000
  0
LINE
  8
DIEM
 62
     7
  6
CONTINUOUS
 10
10.685588
 20
6.057000
 30
0.000000
 11
10.685588
 21
4.061804
 31
0.000000
  0
LINE
  8
DIEM
 62
     7
  6
CONTINUOUS
 10
12.685588
 20
5.567231
 30
0.000000
 11
12.685588
 21
4.061804
 31
0.000000
  0
TEXT
  8
DIEM
 62
     7
 10
11.621734
 20
4.249217
 30
0.000000
 40
0.125000
  1
2"
  0
LINE
  8
DIEM
 62
     7
  6
CONTINUOUS
 10
10.685588
 20
4.311804
 30
0.000000
 11
11.590485
 21
4.311804
 31
0.000000
  0
LINE
  8
DIEM
 62
     7
  6
CONTINUOUS
 10
11.780691
 20
4.311804
 30
0.000000
 11
12.685588
 21
4.311804
 31
0.000000
  0
LINE
  8
DIEM
 62
     7
  6
CONTINUOUS
 10
11.310588
 20
6.100851
 30
0.000000
 11
11.418841
 21
6.163351
 31
0.000000
  0
LINE
  8
DIEM
 62
     7
  6
CONTINUOUS
 10
11.310588
 20
6.100851
 30
0.000000
 11
11.418841
 21
6.038351
 31
0.000000
  0
LINE
  8
DIEM
 62
     7
  6
CONTINUOUS
 10
12.685588
 20
6.100851
 30
0.000000
 11
12.577335
 21
6.038351
 31
0.000000
  0
LINE
  8
DIEM
 62
     7
  6
CONTINUOUS
 10
12.685588
 20
6.100851
 30
0.000000
 11
12.577335
 21
6.163351
 31
0.000000
  0
LINE
  8
DIEM
 62
     7
  6
CONTINUOUS
 10
11.310588
 20
6.012500
 30
0.000000
 11
11.310588
 21
6.350851
 31
0.000000
  0
LINE
  8
DIEM
 62
     7
  6
CONTINUOUS
 10
12.685588
 20
5.875000
 30
0.000000
 11
12.685588
 21
6.350851
 31
0.000000
  0
TEXT
  8
DIEM
 62
     7
 10
11.778632
 20
6.037942
 30
0.000000
 40
0.125000
  1
1 3/8"
  0
LINE
  8
DIEM
 62
     7
  6
CONTINUOUS
 10
11.310588
 20
6.100851
 30
0.000000
 11
11.747382
 21
6.100851
 31
0.000000
  0
LINE
  8
DIEM
 62
     7
  6
CONTINUOUS
 10
12.248794
 20
6.100851
 30
0.000000
 11
12.685588
 21
6.100851
 31
0.000000
  0
LINE
  8
DIEM
 62
     7
  6
CONTINUOUS
 10
11.013498
 20
6.375000
 30
0.000000
 11
10.950998
 21
6.483253
 31
0.000000
  0
LINE
  8
DIEM
 62
     7
  6
CONTINUOUS
 10
11.013498
 20
6.375000
 30
0.000000
 11
11.075998
 21
6.483253
 31
0.000000
  0
LINE
  8
DIEM
 62
     7
  6
CONTINUOUS
 10
11.013498
 20
7.125000
 30
0.000000
 11
11.075998
 21
7.016747
 31
0.000000
  0
LINE
  8
DIEM
 62
     7
  6
CONTINUOUS
 10
11.013498
 20
7.125000
 30
0.000000
 11
10.950998
 21
7.016747
 31
0.000000
  0
LINE
  8
DIEM
 62
     7
  6
CONTINUOUS
 10
11.248088
 20
6.375000
 30
0.000000
 11
10.763498
 21
6.375000
 31
0.000000
  0
LINE
  8
DIEM
 62
     7
  6
CONTINUOUS
 10
11.248088
 20
7.125000
 30
0.000000
 11
10.763498
 21
7.125000
 31
0.000000
  0
TEXT
  8
DIEM
 62
     7
 10
10.844270
 20
6.851481
 30
0.000000
 40
0.125000
  1
3/4"
  0
LINE
  8
DIEM
 62
     7
  6
CONTINUOUS
 10
11.013498
 20
6.375000
 30
0.000000
 11
11.013498
 21
6.820231
 31
0.000000
  0
LINE
  8
DIEM
 62
     7
  6
CONTINUOUS
 10
11.013498
 20
7.007876
 30
0.000000
 11
11.013498
 21
7.125000
 31
0.000000
  0
LINE
  8
DIEM
 62
     7
  6
CONTINUOUS
 10
12.946453
 20
5.629731
 30
0.000000
 11
12.883953
 21
5.737984
 31
0.000000
  0
LINE
  8
DIEM
 62
     7
  6
CONTINUOUS
 10
12.946453
 20
5.629731
 30
0.000000
 11
13.008953
 21
5.737984
 31
0.000000
  0
LINE
  8
DIEM
 62
     7
  6
CONTINUOUS
 10
12.946453
 20
7.875000
 30
0.000000
 11
13.008953
 21
7.766747
 31
0.000000
  0
LINE
  8
DIEM
 62
     7
  6
CONTINUOUS
 10
12.946453
 20
7.875000
 30
0.000000
 11
12.883953
 21
7.766747
 31
0.000000
  0
LINE
  8
DIEM
 62
     7
  6
CONTINUOUS
 10
12.748088
 20
5.629731
 30
0.000000
 11
13.196453
 21
5.629731
 31
0.000000
  0
LINE
  8
DIEM
 62
     7
  6
CONTINUOUS
 10
12.748088
 20
7.875000
 30
0.000000
 11
13.196453
 21
7.875000
 31
0.000000
  0
TEXT
  8
DIEM
 62
     7
 10
12.721264
 20
6.851467
 30
0.000000
 40
0.125000
  1
2 1/4"
  0
LINE
  8
DIEM
 62
     7
  6
CONTINUOUS
 10
12.946453
 20
5.629731
 30
0.000000
 11
12.946453
 21
6.820217
 31
0.000000
  0
LINE
  8
DIEM
 62
     7
  6
CONTINUOUS
 10
12.946453
 20
7.007891
 30
0.000000
 11
12.946453
 21
7.875000
 31
0.000000
  0
LINE
  8
DIEM
 62
     7
  6
CONTINUOUS
 10
13.274691
 20
5.000000
 30
0.000000
 11
13.212191
 21
5.108253
 31
0.000000
  0
LINE
  8
DIEM
 62
     7
  6
CONTINUOUS
 10
13.274691
 20
5.000000
 30
0.000000
 11
13.337191
 21
5.108253
 31
0.000000
  0
LINE
  8
DIEM
 62
     7
  6
CONTINUOUS
 10
13.274691
 20
8.500000
 30
0.000000
 11
13.337191
 21
8.391747
 31
0.000000
  0
LINE
  8
DIEM
 62
     7
  6
CONTINUOUS
 10
13.274691
 20
8.500000
 30
0.000000
 11
13.212191
 21
8.391747
 31
0.000000
  0
LINE
  8
DIEM
 62
     7
  6
CONTINUOUS
 10
11.623088
 20
5.000000
 30
0.000000
 11
13.524691
 21
5.000000
 31
0.000000
  0
LINE
  8
DIEM
 62
     7
  6
CONTINUOUS
 10
11.623088
 20
8.500000
 30
0.000000
 11
13.524691
 21
8.500000
 31
0.000000
  0
TEXT
  8
DIEM
 62
     7
 10
13.054512
 20
6.476142
 30
0.000000
 40
0.125000
  1
3 1/2"
  0
LINE
  8
DIEM
 62
     7
  6
CONTINUOUS
 10
13.274691
 20
5.000000
 30
0.000000
 11
13.274691
 21
6.444892
 31
0.000000
  0
LINE
  8
DIEM
 62
     7
  6
CONTINUOUS
 10
13.274691
 20
6.632566
 30
0.000000
 11
13.274691
 21
8.500000
 31
0.000000
  0
LINE
  8
DIEM
 62
     7
  6
CONTINUOUS
 10
2.863247
 20
8.709476
 30
0.000000
 11
2.800747
 21
8.709476
 31
0.000000
  0
LINE
  8
DIEM
 62
     7
  6
CONTINUOUS
 10
3.177385
 20
7.117902
 30
0.000000
 11
3.259664
 21
7.023801
 31
0.000000
  0
LINE
  8
DIEM
 62
     7
  6
CONTINUOUS
 10
3.177385
 20
7.117902
 30
0.000000
 11
3.137030
 21
6.999595
 31
0.000000
  0
LINE
  8
DIEM
 62
     7
  6
CONTINUOUS
 10
3.322615
 20
6.382098
 30
0.000000
 11
3.240336
 21
6.476199
 31
0.000000
  0
LINE
  8
DIEM
 62
     7
  6
CONTINUOUS
 10
3.322615
 20
6.382098
 30
0.000000
 11
3.362970
 21
6.500405
 31
0.000000
  0
TEXT
  8
DIEM
 62
     7
 10
2.431039
 20
8.646903
 30
0.000000
 40
0.125000
  1
3/4"
  0
LINE
  8
DIEM
 62
     7
  6
CONTINUOUS
 10
3.322615
 20
6.382098
 30
0.000000
 11
2.863247
 21
8.709476
 31
0.000000
  0
LINE
  8
DIEM
 62
     7
  6
CONTINUOUS
 10
11.902564
 20
7.616516
 30
0.000000
 11
12.015934
 21
7.563864
 31
0.000000
  0
LINE
  8
DIEM
 62
     7
  6
CONTINUOUS
 10
11.902564
 20
7.616516
 30
0.000000
 11
11.913652
 21
7.492008
 31
0.000000
  0
LINE
  8
DIEM
 62
     7
  6
CONTINUOUS
 10
11.902564
 20
7.616516
 30
0.000000
 11
13.732067
 21
5.012329
 31
0.000000
  0
LINE
  8
DIEM
 62
     7
  6
CONTINUOUS
 10
13.732067
 20
5.012329
 30
0.000000
 11
14.232067
 21
5.012329
 31
0.000000
  0
TEXT
  8
DIEM
 62
     7
 10
14.294567
 20
4.949829
 30
0.000000
 40
0.125000
  1
BORE TO SUIT BUSHING
  0
LINE
  8
DIEM
 62
     7
  6
CONTINUOUS
 10
14.415993
 20
7.458153
 30
0.000000
 11
14.324420
 21
7.543237
 31
0.000000
  0
LINE
  8
DIEM
 62
     7
  6
CONTINUOUS
 10
14.415993
 20
7.458153
 30
0.000000
 11
14.443891
 21
7.580000
 31
0.000000
  0
LINE
  8
DIEM
 62
     7
  6
CONTINUOUS
 10
14.415993
 20
7.458153
 30
0.000000
 11
14.091128
 21
8.513905
 31
0.000000
  0
LINE
  8
DIEM
 62
     7
  6
CONTINUOUS
 10
14.091128
 20
8.513905
 30
0.000000
 11
14.591128
 21
8.513905
 31
0.000000
  0
TEXT
  8
DIEM
 62
     7
 10
14.653628
 20
8.451405
 30
0.000000
 40
0.125000
  1
SEE NOTE A
  0
LINE
  8
DIEM
 62
     7
  6
CONTINUOUS
 10
9.580880
 20
4.209041
 30
0.000000
 11
9.698075
 21
4.252520
 31
0.000000
  0
LINE
  8
DIEM
 62
     7
  6
CONTINUOUS
 10
9.580880
 20
4.209041
 30
0.000000
 11
9.677132
 21
4.129287
 31
0.000000
  0
LINE
  8
DIEM
 62
     7
  6
CONTINUOUS
 10
9.580880
 20
4.209041
 30
0.000000
 11
11.424445
 21
3.895737
 31
0.000000
  0
LINE
  8
DIEM
 62
     7
  6
CONTINUOUS
 10
11.424445
 20
3.895737
 30
0.000000
 11
11.924445
 21
3.895737
 31
0.000000
  0
TEXT
  8
DIEM
 62
     7
 10
11.986945
 20
3.833237
 30
0.000000
 40
0.125000
  1
RING DIAMETERS AS PER STD 9" RING PRINT
  0
LINE
  8
DIEM
 62
     7
  6
CONTINUOUS
 10
9.584348
 20
10.354401
 30
0.000000
 11
9.675855
 21
10.269245
 31
0.000000
  0
LINE
  8
DIEM
 62
     7
  6
CONTINUOUS
 10
9.584348
 20
10.354401
 30
0.000000
 11
9.556354
 21
10.232575
 31
0.000000
  0
LINE
  8
DIEM
 62
     7
  6
CONTINUOUS
 10
9.584348
 20
10.354401
 30
0.000000
 11
10.033345
 21
8.891190
 31
0.000000
  0
LINE
  8
DIEM
 62
     7
  6
CONTINUOUS
 10
10.033345
 20
8.891190
 30
0.000000
 11
10.533345
 21
8.891190
 31
0.000000
  0
TEXT
  8
DIEM
 62
     7
 10
10.595845
 20
8.828690
 30
0.000000
 40
0.125000
  1
DRILL, TAP, AND COUNTERBORE AS PER STD 9" PRINT
  0
LINE
  8
DIEM
 62
     7
  6
CONTINUOUS
 10
10.755632
 20
6.120464
 30
0.000000
 11
10.793437
 21
6.001318
 31
0.000000
  0
LINE
  8
DIEM
 62
     7
  6
CONTINUOUS
 10
10.755632
 20
6.120464
 30
0.000000
 11
10.671351
 21
6.028152
 31
0.000000
  0
LINE
  8
DIEM
 62
     7
  6
CONTINUOUS
 10
10.755632
 20
6.120464
 30
0.000000
 11
10.168767
 21
3.450375
 31
0.000000
  0
LINE
  8
DIEM
 62
     7
  6
CONTINUOUS
 10
10.168767
 20
3.450375
 30
0.000000
 11
10.668767
 21
3.450375
 31
0.000000
  0
TEXT
  8
DIEM
 62
     7
 10
10.731267
 20
3.387875
 30
0.000000
 40
0.125000
  1
LOCATING PROJECTION
  0
LINE
  8
DIEM
 62
     7
  6
CONTINUOUS
 10
1.223772
 20
7.919843
 30
0.000000
 11
1.223772
 21
7.794843
 31
0.000000
  0
LINE
  8
DIEM
 62
     7
  6
CONTINUOUS
 10
1.223772
 20
7.919843
 30
0.000000
 11
1.115519
 21
7.857343
 31
0.000000
  0
LINE
  8
DIEM
 62
     7
  6
CONTINUOUS
 10
1.223773
 20
5.580157
 30
0.000000
 11
1.115520
 21
5.642657
 31
0.000000
  0
LINE
  8
DIEM
 62
     7
  6
CONTINUOUS
 10
1.223773
 20
5.580157
 30
0.000000
 11
1.223773
 21
5.705157
 31
0.000000
  0
LINE
  8
DIEM
 62
     7
  6
CONTINUOUS
 10
2.004222
 20
7.469250
 30
0.000000
 11
1.007265
 21
8.044843
 31
0.000000
  0
LINE
  8
DIEM
 62
     7
  6
CONTINUOUS
 10
2.004222
 20
6.030750
 30
0.000000
 11
1.007267
 21
5.455156
 31
0.000000
  0
TEXT
  8
DIEM
 62
     7
 10
0.801383
 20
6.974562
 30
0.000000
 40
0.125000
  1
60
  0
ARC
  8
DIEM
 62
     7
  6
CONTINUOUS
 10
3.250000
 20
6.750001
 30
0.000000
 40
2.339686
 50
150.000030
 51
170.621630
  0
ARC
  8
DIEM
 62
     7
  6
CONTINUOUS
 10
3.250000
 20
6.750001
 30
0.000000
 40
2.339686
 50
175.260677
 51
210.000039
  0
LINE
  8
DIEM
 62
     7
  6
CONTINUOUS
 10
3.250000
 20
9.115588
 30
0.000000
 11
3.141747
 21
9.053088
 31
0.000000
  0
LINE
  8
DIEM
 62
     7
  6
CONTINUOUS
 10
3.250000
 20
9.115588
 30
0.000000
 11
3.141747
 21
9.178088
 31
0.000000
  0
LINE
  8
DIEM
 62
     7
  6
CONTINUOUS
 10
1.201340
 20
7.932794
 30
0.000000
 11
1.201340
 21
8.057794
 31
0.000000
  0
LINE
  8
DIEM
 62
     7
  6
CONTINUOUS
 10
1.201340
 20
7.932794
 30
0.000000
 11
1.309593
 21
7.995294
 31
0.000000
  0
LINE
  8
DIEM
 62
     7
  6
CONTINUOUS
 10
3.250000
 20
8.188500
 30
0.000000
 11
3.250000
 21
9.365588
 31
0.000000
  0
LINE
  8
DIEM
 62
     7
  6
CONTINUOUS
 10
2.004222
 20
7.469250
 30
0.000000
 11
0.984834
 21
8.057793
 31
0.000000
  0
TEXT
  8
DIEM
 62
     7
 10
1.938645
 20
8.735935
 30
0.000000
 40
0.125000
  1
60
  0
ARC
  8
DIEM
 62
     7
  6
CONTINUOUS
 10
3.250000
 20
6.750001
 30
0.000000
 40
2.365587
 50
90.000000
 51
115.622764
  0
ARC
  8
DIEM
 62
     7
  6
CONTINUOUS
 10
3.250000
 20
6.750001
 30
0.000000
 40
2.365587
 50
124.279533
 51
150.000030
  0
LINE
  8
DIEM
 62
     7
  6
CONTINUOUS
 10
3.353693
 20
10.625831
 30
0.000000
 11
3.318803
 21
10.745863
 31
0.000000
  0
LINE
  8
DIEM
 62
     7
  6
CONTINUOUS
 10
3.353693
 20
10.625831
 30
0.000000
 11
3.440199
 21
10.716062
 31
0.000000
  0
LINE
  8
DIEM
 62
     7
  6
CONTINUOUS
 10
3.353693
 20
10.625831
 30
0.000000
 11
3.661785
 21
11.880861
 31
0.000000
  0
LINE
  8
DIEM
 62
     7
  6
CONTINUOUS
 10
3.661785
 20
11.880861
 30
0.000000
 11
4.161785
 21
11.880861
 31
0.000000
  0
TEXT
  8
DIEM
 62
     7
 10
4.224285
 20
11.818361
 30
0.000000
 40
0.125000
  1
DRILL 17/32"
  0
TEXT
  8
RING9
 62
     7
 10
11.241521
 20
11.581145
 30
0.000000
 40
0.125000
  1
92 FORD ESCORT TO ADVANCED DC 9" MOTOR WITH NON STANDARD
  0
TEXT
  8
RING9
 62
     7
 10
11.241521
 20
11.393644
 30
0.000000
 40
0.125000
  1
9" RING
  0
TEXT
  8
RING9
 62
     7
 10
11.241521
 20
11.206145
 30
0.000000
 40
0.125000
  1
NOTE A-- TAP 10-24 x 1" DEEP
  0
TEXT
  8
RING9
 62
     7
 10
11.241521
 20
11.023284
 30
0.000000
 40
0.125000
  1
NOTE B-- DRILL 13/64" COUNTERBORE 23/64" x 5/16" DEEP THEN
  0
TEXT
  8
RING9
 62
     7
 10
11.241521
 20
10.835784
 30
0.000000
 40
0.125000
  1
TURN FACE OF HUB TO LOCATING PROJECTION DIAMETER
  0
TEXT
  8
RING9
 62
     7
 10
11.241521
 20
10.648283
 30
0.000000
 40
0.125000
  1
NOTE C-- DRILL 23/64" THROUGH THEN TAP 10 x 1.0 mm
  0
POINT
  8
7
 62
     7
 10
0.500000
 20
6.750000
 30
0.000000
  0
LINE
  8
7
 62
     7
  6
CONTINUOUS
 10
0.500000
 20
6.750000
 30
0.000000
 11
17.000000
 21
6.750000
 31
0.000000
  0
POINT
  8
7
 62
     7
 10
9.339693
 20
6.750000
 30
0.000000
  0
POINT
  8
7
 62
     7
 10
9.339693
 20
6.750000
 30
0.000000
  0
POINT
  8
7
 62
     7
 10
9.339693
 20
6.750000
 30
0.000000
  0
POINT
  8
7
 62
     7
 10
9.339693
 20
6.750000
 30
0.000000
  0
POINT
  8
7
 62
     7
 10
9.339693
 20
6.750000
 30
0.000000
  0
POINT
  8
7
 62
     7
 10
9.339693
 20
6.750000
 30
0.000000
  0
POINT
  8
7
 62
     7
 10
9.343119
 20
10.374998
 30
0.000000
  0
POINT
  8
7
 62
     7
 10
7.950000
 20
10.374998
 30
0.000000
  0
POINT
  8
7
 62
     7
 10
7.949583
 20
10.624998
 30
0.000000
  0
POINT
  8
7
 62
     7
 10
7.950000
 20
10.374998
 30
0.000000
  0
POINT
  8
7
 62
     7
 10
7.949471
 20
10.124999
 30
0.000000
  0
POINT
  8
7
 62
     7
 10
7.950000
 20
10.374998
 30
0.000000
  0
POINT
  8
7
 62
     7
 10
8.012497
 20
10.374356
 30
0.000000
  0
POINT
  8
7
 62
     7
 10
8.012497
 20
10.374356
 30
0.000000
  0
POINT
  8
7
 62
     7
 10
8.074988
 20
10.373297
 30
0.000000
  0
POINT
  8
7
 62
     7
 10
8.074988
 20
10.374356
 30
0.000000
  0
POINT
  8
7
 62
     7
 10
8.137480
 20
10.374356
 30
0.000000
  0
POINT
  8
7
 62
     7
 10
8.199971
 20
10.374356
 30
0.000000
  0
POINT
  8
7
 62
     7
 10
8.262463
 20
10.374356
 30
0.000000
  0
POINT
  8
7
 62
     7
 10
8.324954
 20
10.374356
 30
0.000000
  0
POINT
  8
7
 62
     7
 10
8.387445
 20
10.374356
 30
0.000000
  0
POINT
  8
7
 62
     7
 10
8.449937
 20
10.374356
 30
0.000000
  0
POINT
  8
7
 62
     7
 10
8.512428
 20
10.374356
 30
0.000000
  0
POINT
  8
7
 62
     7
 10
8.574920
 20
10.374356
 30
0.000000
  0
POINT
  8
7
 62
     7
 10
8.637411
 20
10.374356
 30
0.000000
  0
POINT
  8
7
 62
     7
 10
8.699903
 20
10.374356
 30
0.000000
  0
POINT
  8
7
 62
     7
 10
8.762394
 20
10.374356
 30
0.000000
  0
POINT
  8
7
 62
     7
 10
8.824885
 20
10.374356
 30
0.000000
  0
POINT
  8
7
 62
     7
 10
8.887377
 20
10.374356
 30
0.000000
  0
POINT
  8
7
 62
     7
 10
8.949868
 20
10.374356
 30
0.000000
  0
POINT
  8
7
 62
     7
 10
9.012360
 20
10.374356
 30
0.000000
  0
POINT
  8
7
 62
     7
 10
9.074851
 20
10.374356
 30
0.000000
  0
POINT
  8
7
 62
     7
 10
9.137342
 20
10.374356
 30
0.000000
  0
POINT
  8
7
 62
     7
 10
9.199834
 20
10.374356
 30
0.000000
  0
POINT
  8
7
 62
     7
 10
9.262325
 20
10.374356
 30
0.000000
  0
LINE
  8
7
 62
     7
  6
CONTINUOUS
 10
8.012497
 20
10.374356
 30
0.000000
 11
8.012497
 21
10.624933
 31
0.000000
  0
LINE
  8
7
 62
     7
  6
CONTINUOUS
 10
8.012497
 20
10.374356
 30
0.000000
 11
8.012497
 21
10.132491
 31
0.000000
  0
LINE
  8
7
 62
     7
  6
CONTINUOUS
 10
8.074988
 20
10.374356
 30
0.000000
 11
8.074988
 21
10.585357
 31
0.000000
  0
LINE
  8
7
 62
     7
  6
CONTINUOUS
 10
8.074988
 20
10.373297
 30
0.000000
 11
8.074988
 21
10.162296
 31
0.000000
  0
POINT
  8
7
 62
     7
 10
8.137480
 20
10.374356
 30
0.000000
  0
POINT
  8
7
 62
     7
 10
8.137480
 20
10.374356
 30
0.000000
  0
LINE
  8
7
 62
     7
  6
CONTINUOUS
 10
8.137480
 20
10.374356
 30
0.000000
 11
8.137480
 21
10.624933
 31
0.000000
  0
LINE
  8
7
 62
     7
  6
CONTINUOUS
 10
8.137480
 20
10.374356
 30
0.000000
 11
8.137480
 21
10.132491
 31
0.000000
  0
POINT
  8
7
 62
     7
 10
8.262463
 20
10.374356
 30
0.000000
  0
POINT
  8
7
 62
     7
 10
8.262463
 20
10.374356
 30
0.000000
  0
LINE
  8
7
 62
     7
  6
CONTINUOUS
 10
8.262463
 20
10.374356
 30
0.000000
 11
8.262463
 21
10.624933
 31
0.000000
  0
LINE
  8
7
 62
     7
  6
CONTINUOUS
 10
8.262463
 20
10.374356
 30
0.000000
 11
8.262463
 21
10.132491
 31
0.000000
  0
POINT
  8
7
 62
     7
 10
8.387445
 20
10.374356
 30
0.000000
  0
POINT
  8
7
 62
     7
 10
8.387445
 20
10.374356
 30
0.000000
  0
LINE
  8
7
 62
     7
  6
CONTINUOUS
 10
8.387445
 20
10.374356
 30
0.000000
 11
8.387445
 21
10.624933
 31
0.000000
  0
LINE
  8
7
 62
     7
  6
CONTINUOUS
 10
8.387445
 20
10.374356
 30
0.000000
 11
8.387445
 21
10.132491
 31
0.000000
  0
POINT
  8
7
 62
     7
 10
8.512428
 20
10.374356
 30
0.000000
  0
POINT
  8
7
 62
     7
 10
8.512428
 20
10.374356
 30
0.000000
  0
LINE
  8
7
 62
     7
  6
CONTINUOUS
 10
8.512428
 20
10.374356
 30
0.000000
 11
8.512428
 21
10.624933
 31
0.000000
  0
LINE
  8
7
 62
     7
  6
CONTINUOUS
 10
8.512428
 20
10.374356
 30
0.000000
 11
8.512428
 21
10.132491
 31
0.000000
  0
POINT
  8
7
 62
     7
 10
8.637411
 20
10.374356
 30
0.000000
  0
POINT
  8
7
 62
     7
 10
8.637411
 20
10.374356
 30
0.000000
  0
LINE
  8
7
 62
     7
  6
CONTINUOUS
 10
8.637411
 20
10.374356
 30
0.000000
 11
8.637411
 21
10.624933
 31
0.000000
  0
LINE
  8
7
 62
     7
  6
CONTINUOUS
 10
8.637411
 20
10.374356
 30
0.000000
 11
8.637411
 21
10.132491
 31
0.000000
  0
POINT
  8
7
 62
     7
 10
8.762394
 20
10.374356
 30
0.000000
  0
POINT
  8
7
 62
     7
 10
8.762394
 20
10.374356
 30
0.000000
  0
LINE
  8
7
 62
     7
  6
CONTINUOUS
 10
8.762394
 20
10.374356
 30
0.000000
 11
8.762394
 21
10.624933
 31
0.000000
  0
LINE
  8
7
 62
     7
  6
CONTINUOUS
 10
8.762394
 20
10.374356
 30
0.000000
 11
8.762394
 21
10.132491
 31
0.000000
  0
POINT
  8
7
 62
     7
 10
8.887377
 20
10.374356
 30
0.000000
  0
POINT
  8
7
 62
     7
 10
8.887377
 20
10.374356
 30
0.000000
  0
LINE
  8
7
 62
     7
  6
CONTINUOUS
 10
8.887377
 20
10.374356
 30
0.000000
 11
8.887377
 21
10.624933
 31
0.000000
  0
LINE
  8
7
 62
     7
  6
CONTINUOUS
 10
8.887377
 20
10.374356
 30
0.000000
 11
8.887377
 21
10.132491
 31
0.000000
  0
POINT
  8
7
 62
     7
 10
9.012360
 20
10.374356
 30
0.000000
  0
POINT
  8
7
 62
     7
 10
9.012360
 20
10.374356
 30
0.000000
  0
LINE
  8
7
 62
     7
  6
CONTINUOUS
 10
9.012360
 20
10.374356
 30
0.000000
 11
9.012360
 21
10.624933
 31
0.000000
  0
LINE
  8
7
 62
     7
  6
CONTINUOUS
 10
9.012360
 20
10.374356
 30
0.000000
 11
9.012360
 21
10.132491
 31
0.000000
  0
POINT
  8
7
 62
     7
 10
9.137342
 20
10.374356
 30
0.000000
  0
POINT
  8
7
 62
     7
 10
9.137342
 20
10.374356
 30
0.000000
  0
LINE
  8
7
 62
     7
  6
CONTINUOUS
 10
9.137342
 20
10.374356
 30
0.000000
 11
9.137342
 21
10.624933
 31
0.000000
  0
LINE
  8
7
 62
     7
  6
CONTINUOUS
 10
9.137342
 20
10.374356
 30
0.000000
 11
9.137342
 21
10.132491
 31
0.000000
  0
POINT
  8
7
 62
     7
 10
9.262325
 20
10.374356
 30
0.000000
  0
POINT
  8
7
 62
     7
 10
9.262325
 20
10.374356
 30
0.000000
  0
LINE
  8
7
 62
     7
  6
CONTINUOUS
 10
9.262325
 20
10.374356
 30
0.000000
 11
9.262325
 21
10.624933
 31
0.000000
  0
LINE
  8
7
 62
     7
  6
CONTINUOUS
 10
9.262325
 20
10.374356
 30
0.000000
 11
9.262325
 21
10.132491
 31
0.000000
  0
POINT
  8
7
 62
     7
 10
8.199971
 20
10.373297
 30
0.000000
  0
POINT
  8
7
 62
     7
 10
8.199971
 20
10.374356
 30
0.000000
  0
LINE
  8
7
 62
     7
  6
CONTINUOUS
 10
8.199971
 20
10.374356
 30
0.000000
 11
8.199971
 21
10.585357
 31
0.000000
  0
LINE
  8
7
 62
     7
  6
CONTINUOUS
 10
8.199971
 20
10.373297
 30
0.000000
 11
8.199971
 21
10.162296
 31
0.000000
  0
POINT
  8
7
 62
     7
 10
8.324954
 20
10.373297
 30
0.000000
  0
POINT
  8
7
 62
     7
 10
8.324954
 20
10.374356
 30
0.000000
  0
LINE
  8
7
 62
     7
  6
CONTINUOUS
 10
8.324954
 20
10.374356
 30
0.000000
 11
8.324954
 21
10.585357
 31
0.000000
  0
LINE
  8
7
 62
     7
  6
CONTINUOUS
 10
8.324954
 20
10.373297
 30
0.000000
 11
8.324954
 21
10.162296
 31
0.000000
  0
POINT
  8
7
 62
     7
 10
8.449937
 20
10.373297
 30
0.000000
  0
POINT
  8
7
 62
     7
 10
8.449937
 20
10.374356
 30
0.000000
  0
LINE
  8
7
 62
     7
  6
CONTINUOUS
 10
8.449937
 20
10.374356
 30
0.000000
 11
8.449937
 21
10.585357
 31
0.000000
  0
LINE
  8
7
 62
     7
  6
CONTINUOUS
 10
8.449937
 20
10.373297
 30
0.000000
 11
8.449937
 21
10.162296
 31
0.000000
  0
POINT
  8
7
 62
     7
 10
8.574920
 20
10.373297
 30
0.000000
  0
POINT
  8
7
 62
     7
 10
8.574920
 20
10.374356
 30
0.000000
  0
LINE
  8
7
 62
     7
  6
CONTINUOUS
 10
8.574920
 20
10.374356
 30
0.000000
 11
8.574920
 21
10.585357
 31
0.000000
  0
LINE
  8
7
 62
     7
  6
CONTINUOUS
 10
8.574920
 20
10.373297
 30
0.000000
 11
8.574920
 21
10.162296
 31
0.000000
  0
POINT
  8
7
 62
     7
 10
8.699903
 20
10.373297
 30
0.000000
  0
POINT
  8
7
 62
     7
 10
8.699903
 20
10.374356
 30
0.000000
  0
LINE
  8
7
 62
     7
  6
CONTINUOUS
 10
8.699903
 20
10.374356
 30
0.000000
 11
8.699903
 21
10.585357
 31
0.000000
  0
LINE
  8
7
 62
     7
  6
CONTINUOUS
 10
8.699903
 20
10.373297
 30
0.000000
 11
8.699903
 21
10.162296
 31
0.000000
  0
POINT
  8
7
 62
     7
 10
8.824885
 20
10.373297
 30
0.000000
  0
POINT
  8
7
 62
     7
 10
8.824885
 20
10.374356
 30
0.000000
  0
LINE
  8
7
 62
     7
  6
CONTINUOUS
 10
8.824885
 20
10.374356
 30
0.000000
 11
8.824885
 21
10.585357
 31
0.000000
  0
LINE
  8
7
 62
     7
  6
CONTINUOUS
 10
8.824885
 20
10.373297
 30
0.000000
 11
8.824885
 21
10.162296
 31
0.000000
  0
POINT
  8
7
 62
     7
 10
8.949868
 20
10.373297
 30
0.000000
  0
POINT
  8
7
 62
     7
 10
8.949868
 20
10.374356
 30
0.000000
  0
LINE
  8
7
 62
     7
  6
CONTINUOUS
 10
8.949868
 20
10.374356
 30
0.000000
 11
8.949868
 21
10.585357
 31
0.000000
  0
LINE
  8
7
 62
     7
  6
CONTINUOUS
 10
8.949868
 20
10.373297
 30
0.000000
 11
8.949868
 21
10.162296
 31
0.000000
  0
POINT
  8
7
 62
     7
 10
9.074851
 20
10.373297
 30
0.000000
  0
POINT
  8
7
 62
     7
 10
9.074851
 20
10.374356
 30
0.000000
  0
LINE
  8
7
 62
     7
  6
CONTINUOUS
 10
9.074851
 20
10.374356
 30
0.000000
 11
9.074851
 21
10.585357
 31
0.000000
  0
LINE
  8
7
 62
     7
  6
CONTINUOUS
 10
9.074851
 20
10.373297
 30
0.000000
 11
9.074851
 21
10.162296
 31
0.000000
  0
POINT
  8
7
 62
     7
 10
9.199834
 20
10.373297
 30
0.000000
  0
POINT
  8
7
 62
     7
 10
9.199834
 20
10.374356
 30
0.000000
  0
LINE
  8
7
 62
     7
  6
CONTINUOUS
 10
9.199834
 20
10.374356
 30
0.000000
 11
9.199834
 21
10.585357
 31
0.000000
  0
LINE
  8
7
 62
     7
  6
CONTINUOUS
 10
9.199834
 20
10.373297
 30
0.000000
 11
9.199834
 21
10.162296
 31
0.000000
  0
POINT
  8
7
 62
     7
 10
9.339693
 20
6.750000
 30
0.000000
  0
POINT
  8
7
 62
     7
 10
7.950000
 20
2.507709
 30
0.000000
  0
POINT
  8
7
 62
     7
 10
7.950000
 20
2.550000
 30
0.000000
  0
POINT
  8
7
 62
     7
 10
7.950000
 20
2.550000
 30
0.000000
  0
POINT
  8
7
 62
     7
 10
7.948070
 20
2.846994
 30
0.000000
  0
POINT
  8
7
 62
     7
 10
7.950000
 20
2.507709
 30
0.000000
  0
POINT
  8
7
 62
     7
 10
7.950000
 20
2.550000
 30
0.000000
  0
POINT
  8
7
 62
     7
 10
7.950000
 20
2.550000
 30
0.000000
  0
LINE
  8
7
 62
     7
  6
CONTINUOUS
 10
8.246871
 20
2.253007
 30
0.000000
 11
8.621871
 21
2.253007
 31
0.000000
  0
LINE
  8
7
 62
     7
  6
CONTINUOUS
 10
8.621871
 20
2.253007
 30
0.000000
 11
8.621871
 21
2.847007
 31
0.000000
  0
LINE
  8
7
 62
     7
  6
CONTINUOUS
 10
8.621871
 20
2.847007
 30
0.000000
 11
7.948070
 21
2.847007
 31
0.000000
  0
POINT
  8
7
 62
     7
 10
7.950000
 20
6.750000
 30
0.000000
  0
LINE
  8
7
 62
     7
  6
CONTINUOUS
 10
7.950000
 20
11.000000
 30
0.000000
 11
8.137500
 21
11.000000
 31
0.000000
  0
LINE
  8
7
 62
     7
  6
CONTINUOUS
 10
8.137500
 20
11.000000
 30
0.000000
 11
8.274513
 21
11.315000
 31
0.000000
  0
LINE
  8
7
 62
     7
  6
CONTINUOUS
 10
7.950000
 20
2.507709
 30
0.000000
 11
8.132500
 21
2.507709
 31
0.000000
  0
LINE
  8
7
 62
     7
  6
CONTINUOUS
 10
8.132500
 20
2.507709
 30
0.000000
 11
8.275659
 21
2.185000
 31
0.000000
  0
POINT
  8
7
 62
     7
 10
7.950000
 20
6.750000
 30
0.000000
  0
POINT
  8
7
 62
     7
 10
7.950000
 20
6.750000
 30
0.000000
  0
POINT
  8
7
 62
     7
 10
7.950000
 20
6.750000
 30
0.000000
  0
POINT
  8
7
 62
     7
 10
7.952106
 20
9.749999
 30
0.000000
  0
LINE
  8
7
 62
     7
  6
CONTINUOUS
 10
7.952106
 20
9.749999
 30
0.000000
 11
8.264606
 21
9.749999
 31
0.000000
  0
LINE
  8
7
 62
     7
  6
CONTINUOUS
 10
8.264606
 20
9.749999
 30
0.000000
 11
8.264606
 21
8.750000
 31
0.000000
  0
POINT
  8
7
 62
     7
 10
7.950000
 20
6.750000
 30
0.000000
  0
POINT
  8
7
 62
     7
 10
7.950000
 20
6.750000
 30
0.000000
  0
POINT
  8
7
 62
     7
 10
7.949512
 20
3.750000
 30
0.000000
  0
LINE
  8
7
 62
     7
  6
CONTINUOUS
 10
7.949512
 20
3.750000
 30
0.000000
 11
8.262012
 21
3.750000
 31
0.000000
  0
LINE
  8
7
 62
     7
  6
CONTINUOUS
 10
8.262012
 20
3.750000
 30
0.000000
 11
8.262012
 21
4.750000
 31
0.000000
  0
LINE
  8
7
 62
     7
  6
CONTINUOUS
 10
9.343334
 20
10.624998
 30
0.000000
 11
9.343334
 21
10.124999
 31
0.000000
  0
LINE
  8
7
 62
     7
  6
CONTINUOUS
 10
8.264606
 20
8.750000
 30
0.000000
 11
8.264606
 21
7.875000
 31
0.000000
  0
LINE
  8
7
 62
     7
  6
CONTINUOUS
 10
7.950000
 20
3.750000
 30
0.000000
 11
7.950000
 21
5.629731
 31
0.000000
  0
LINE
  8
7
 62
     7
  6
CONTINUOUS
 10
8.258622
 20
4.750000
 30
0.000000
 11
8.258622
 21
5.629731
 31
0.000000
  0
LINE
  8
7
 62
     7
  6
CONTINUOUS
 10
8.258622
 20
4.750000
 30
0.000000
 11
9.401600
 21
4.750000
 31
0.000000
  0
LINE
  8
7
 62
     7
  6
CONTINUOUS
 10
8.620861
 20
2.752999
 30
0.000000
 11
9.588276
 21
2.752999
 31
0.000000
  0
LINE
  8
7
 62
     7
  6
CONTINUOUS
 10
7.718297
 20
2.550000
 30
0.000000
 11
9.887832
 21
2.550000
 31
0.000000
  0
LINE
  8
7
 62
     7
  6
CONTINUOUS
 10
8.620861
 20
2.347002
 30
0.000000
 11
9.588276
 21
2.347002
 31
0.000000
  0
LINE
  8
7
 62
     7
  6
CONTINUOUS
 10
8.275659
 20
2.185000
 30
0.000000
 11
9.588276
 21
2.185000
 31
0.000000
  0
LINE
  8
7
 62
     7
  6
CONTINUOUS
 10
8.274513
 20
11.315000
 30
0.000000
 11
9.588276
 21
11.315000
 31
0.000000
  0
LINE
  8
7
 62
     7
  6
CONTINUOUS
 10
7.949583
 20
10.624998
 30
0.000000
 11
9.588276
 21
10.624998
 31
0.000000
  0
LINE
  8
7
 62
     7
  6
CONTINUOUS
 10
7.455178
 20
10.374998
 30
0.000000
 11
9.924981
 21
10.374998
 31
0.000000
  0
LINE
  8
7
 62
     7
  6
CONTINUOUS
 10
7.949471
 20
10.124999
 30
0.000000
 11
9.588276
 21
10.124999
 31
0.000000
  0
LINE
  8
7
 62
     7
  6
CONTINUOUS
 10
8.257506
 20
8.750000
 30
0.000000
 11
9.401600
 21
8.750000
 31
0.000000
  0
LINE
  8
DIEM
 62
     7
  6
CONTINUOUS
 10
7.950000
 20
11.508751
 30
0.000000
 11
7.841747
 21
11.446251
 31
0.000000
  0
LINE
  8
DIEM
 62
     7
  6
CONTINUOUS
 10
7.950000
 20
11.508751
 30
0.000000
 11
7.841747
 21
11.571251
 31
0.000000
  0
LINE
  8
DIEM
 62
     7
  6
CONTINUOUS
 10
8.075000
 20
11.508751
 30
0.000000
 11
8.183253
 21
11.571251
 31
0.000000
  0
LINE
  8
DIEM
 62
     7
  6
CONTINUOUS
 10
8.075000
 20
11.508751
 30
0.000000
 11
8.183253
 21
11.446251
 31
0.000000
  0
LINE
  8
DIEM
 62
     7
  6
CONTINUOUS
 10
7.950000
 20
11.070499
 30
0.000000
 11
7.950000
 21
11.758751
 31
0.000000
  0
LINE
  8
DIEM
 62
     7
  6
CONTINUOUS
 10
8.075000
 20
11.070499
 30
0.000000
 11
8.075000
 21
11.758751
 31
0.000000
  0
TEXT
  8
DIEM
 62
     7
 10
8.403695
 20
11.445842
 30
0.000000
 40
0.125000
  1
1/8"
  0
LINE
  8
DIEM
 62
     7
  6
CONTINUOUS
 10
7.950000
 20
11.508751
 30
0.000000
 11
7.700000
 21
11.508751
 31
0.000000
  0
LINE
  8
DIEM
 62
     7
  6
CONTINUOUS
 10
8.075000
 20
11.508751
 30
0.000000
 11
8.325000
 21
11.508751
 31
0.000000
  0
LINE
  8
DIEM
 62
     7
  6
CONTINUOUS
 10
7.950000
 20
11.809011
 30
0.000000
 11
8.058253
 21
11.871511
 31
0.000000
  0
LINE
  8
DIEM
 62
     7
  6
CONTINUOUS
 10
7.950000
 20
11.809011
 30
0.000000
 11
8.058253
 21
11.746511
 31
0.000000
  0
LINE
  8
DIEM
 62
     7
  6
CONTINUOUS
 10
9.588276
 20
11.809011
 30
0.000000
 11
9.480023
 21
11.746511
 31
0.000000
  0
LINE
  8
DIEM
 62
     7
  6
CONTINUOUS
 10
9.588276
 20
11.809011
 30
0.000000
 11
9.480023
 21
11.871511
 31
0.000000
  0
LINE
  8
DIEM
 62
     7
  6
CONTINUOUS
 10
7.950000
 20
11.070499
 30
0.000000
 11
7.950000
 21
12.059011
 31
0.000000
  0
LINE
  8
DIEM
 62
     7
  6
CONTINUOUS
 10
9.588276
 20
11.377500
 30
0.000000
 11
9.588276
 21
12.059011
 31
0.000000
  0
TEXT
  8
DIEM
 62
     7
 10
8.567719
 20
11.746038
 30
0.000000
 40
0.125000
  1
1.638"
  0
LINE
  8
DIEM
 62
     7
  6
CONTINUOUS
 10
7.950000
 20
11.809011
 30
0.000000
 11
8.536469
 21
11.809011
 31
0.000000
  0
LINE
  8
DIEM
 62
     7
  6
CONTINUOUS
 10
9.001807
 20
11.809011
 30
0.000000
 11
9.588276
 21
11.809011
 31
0.000000
  0
ENDSEC
  0
EOF
