  0
SECTION
  2
HEADER
  9
$ACADVER
  1
AC1006
  0
ENDSEC
  0
SECTION
  2
TABLES
  0
TABLE
  2
LTYPE
 70
    25
  0
LTYPE
  2
CONTINUOUS
 70
    64
  3
Solid line
 72
    64
 73
     0
 40
0.000000
  0
LTYPE
  2
DASHDOT
 70
    64
  3
__ . __ . __ . __ . __ . __ . __ . __ . __ . __
 72
    65
 73
     4
 40
1.000000
 49
0.500000
 49
-0.250000
 49
0.000000
 49
-0.250000
  0
LTYPE
  2
DASHED
 70
    64
  3
__ __ __ __ __ __ __ __ __ __ __ __ __ __ __ __
 72
    65
 73
     2
 40
0.750000
 49
0.500000
 49
-0.250000
  0
LTYPE
  2
DIVIDE
 70
    64
  3
____ . . ____ . . ____ . . ____ . . ____ . . __
 72
    65
 73
     6
 40
1.250000
 49
0.500000
 49
-0.250000
 49
0.000000
 49
-0.250000
 49
0.000000
 49
-0.250000
  0
LTYPE
  2
DOT
 70
    64
  3
. . . . . . . . . . . . . . . . . . . . . . . . 
 72
    65
 73
     2
 40
0.250000
 49
0.000000
 49
-0.250000
  0
ENDTAB
  0
ENDSEC
  0
SECTION
  2
ENTITIES
  0
LINE
  8
PILOTBRNG
 62
     7
  6
CONTINUOUS
 10
1.613000
 20
5.568500
 30
0.000000
 11
1.613000
 21
4.192500
 31
0.000000
  0
LINE
  8
PILOTBRNG
 62
     7
  6
CONTINUOUS
 10
1.613000
 20
5.568500
 30
0.000000
 11
1.182000
 21
5.568500
 31
0.000000
  0
LINE
  8
PILOTBRNG
 62
     7
  6
CONTINUOUS
 10
1.182000
 20
5.568500
 30
0.000000
 11
1.182000
 21
4.191500
 31
0.000000
  0
LINE
  8
PILOTBRNG
 62
     7
  6
CONTINUOUS
 10
1.182000
 20
4.191500
 30
0.000000
 11
1.613000
 21
4.191500
 31
0.000000
  0
POINT
  8
PILOTBRNG
 62
     7
 10
1.613000
 20
4.880500
 30
0.000000
  0
LINE
  8
CENTERLINE
 62
     7
  6
CONTINUOUS
 10
-8.089958
 20
4.880500
 30
0.000000
 11
7.780042
 21
4.880500
 31
0.000000
  0
POINT
  8
HUB
 62
     7
 10
-0.154958
 20
4.880500
 30
0.000000
  0
LINE
  8
HUB
 62
     7
  6
CONTINUOUS
 10
-0.342958
 20
6.513000
 30
0.000000
 11
-0.154958
 21
6.513000
 31
0.000000
  0
LINE
  8
HUB
 62
     7
  6
CONTINUOUS
 10
-0.342958
 20
3.248000
 30
0.000000
 11
-0.154958
 21
3.248000
 31
0.000000
  0
LINE
  8
HUB
 62
     7
  6
CONTINUOUS
 10
-0.154958
 20
6.755500
 30
0.000000
 11
-0.154958
 21
6.513000
 31
0.000000
  0
LINE
  8
HUB
 62
     7
  6
CONTINUOUS
 10
-0.154958
 20
3.248000
 30
0.000000
 11
-0.154958
 21
3.005500
 31
0.000000
  0
LINE
  8
HUB
 62
     7
  6
CONTINUOUS
 10
-0.154958
 20
6.755500
 30
0.000000
 11
0.657042
 21
6.755500
 31
0.000000
  0
LINE
  8
HUB
 62
     7
  6
CONTINUOUS
 10
0.657042
 20
3.005500
 30
0.000000
 11
-0.154958
 21
3.005500
 31
0.000000
  0
LINE
  8
HUB
 62
     7
  6
CONTINUOUS
 10
-0.154958
 20
5.255500
 30
0.000000
 11
0.657042
 21
5.255500
 31
0.000000
  0
LINE
  8
HUB
 62
     7
  6
CONTINUOUS
 10
-0.154958
 20
4.505500
 30
0.000000
 11
0.657042
 21
4.505500
 31
0.000000
  0
POINT
  8
HUB
 62
     7
 10
0.032542
 20
5.584522
 30
0.000000
  0
POINT
  8
HUB
 62
     7
 10
0.032542
 20
5.686072
 30
0.000000
  0
POINT
  8
HUB
 62
     7
 10
0.032542
 20
5.482972
 30
0.000000
  0
LINE
  8
HUB
 62
     7
  6
CONTINUOUS
 10
0.032542
 20
5.748522
 30
0.000000
 11
0.032542
 21
5.420523
 31
0.000000
  0
LINE
  8
HUB
 62
     7
  6
CONTINUOUS
 10
-0.154958
 20
5.419500
 30
0.000000
 11
0.032542
 21
5.419500
 31
0.000000
  0
LINE
  8
HUB
 62
     7
  6
CONTINUOUS
 10
-0.342958
 20
5.747500
 30
0.000000
 11
0.032542
 21
5.747500
 31
0.000000
  0
LINE
  8
HUB
 62
     7
  6
CONTINUOUS
 10
0.657042
 20
6.005500
 30
0.000000
 11
2.032042
 21
6.005500
 31
0.000000
  0
LINE
  8
HUB
 62
     7
  6
CONTINUOUS
 10
2.032042
 20
3.755500
 30
0.000000
 11
0.657821
 21
3.755500
 31
0.000000
  0
LINE
  8
HUB
 62
     7
  6
CONTINUOUS
 10
0.657042
 20
6.755500
 30
0.000000
 11
0.657042
 21
6.005500
 31
0.000000
  0
LINE
  8
HUB
 62
     7
  6
CONTINUOUS
 10
0.657042
 20
3.755500
 30
0.000000
 11
0.657042
 21
3.005500
 31
0.000000
  0
LINE
  8
HUB
 62
     7
  6
CONTINUOUS
 10
0.657042
 20
4.080500
 30
0.000000
 11
2.032042
 21
3.943000
 31
0.000000
  0
LINE
  8
HUB
 62
     7
  6
CONTINUOUS
 10
0.032542
 20
5.482972
 30
0.000000
 11
0.657042
 21
5.482972
 31
0.000000
  0
LINE
  8
HUB
 62
     7
  6
CONTINUOUS
 10
0.032542
 20
5.686072
 30
0.000000
 11
0.712766
 21
5.686072
 31
0.000000
  0
LINE
  8
HUB
 62
     7
  6
CONTINUOUS
 10
0.657042
 20
5.686072
 30
0.000000
 11
0.657042
 21
4.080500
 31
0.000000
  0
LINE
  8
HUB
 62
     7
  6
CONTINUOUS
 10
2.032042
 20
5.818000
 30
0.000000
 11
0.712766
 21
5.686072
 31
0.000000
  0
LINE
  8
HUB
 62
     7
  6
CONTINUOUS
 10
2.032042
 20
6.005500
 30
0.000000
 11
2.032042
 21
5.818000
 31
0.000000
  0
LINE
  8
HUB
 62
     7
  6
CONTINUOUS
 10
2.032042
 20
3.943000
 30
0.000000
 11
2.032042
 21
3.755500
 31
0.000000
  0
LINE
  8
HUB
 62
     7
  6
CONTINUOUS
 10
0.532042
 20
6.368500
 30
0.000000
 11
0.532042
 21
5.935500
 31
0.000000
  0
LINE
  8
HUB
 62
     7
  6
CONTINUOUS
 10
0.532042
 20
6.152000
 30
0.000000
 11
-0.703474
 21
6.152000
 31
0.000000
  0
LINE
  8
HUB
 62
     7
  6
CONTINUOUS
 10
0.532042
 20
5.935500
 30
0.000000
 11
-0.342958
 21
5.935500
 31
0.000000
  0
LINE
  8
HUB
 62
     7
  6
CONTINUOUS
 10
-0.342958
 20
6.368500
 30
0.000000
 11
0.532042
 21
6.368500
 31
0.000000
  0
LINE
  8
HUB
 62
     7
  6
CONTINUOUS
 10
-0.311958
 20
6.339500
 30
0.000000
 11
-0.311958
 21
5.964500
 31
0.000000
  0
LINE
  8
HUB
 62
     7
  6
CONTINUOUS
 10
-0.280458
 20
6.368500
 30
0.000000
 11
-0.280458
 21
5.935500
 31
0.000000
  0
LINE
  8
HUB
 62
     7
  6
CONTINUOUS
 10
-0.249208
 20
6.339500
 30
0.000000
 11
-0.249208
 21
5.964500
 31
0.000000
  0
LINE
  8
HUB
 62
     7
  6
CONTINUOUS
 10
-0.186458
 20
6.339500
 30
0.000000
 11
-0.186458
 21
5.964500
 31
0.000000
  0
LINE
  8
HUB
 62
     7
  6
CONTINUOUS
 10
-0.123708
 20
6.339500
 30
0.000000
 11
-0.123708
 21
5.964500
 31
0.000000
  0
LINE
  8
HUB
 62
     7
  6
CONTINUOUS
 10
-0.060959
 20
6.339500
 30
0.000000
 11
-0.060959
 21
5.964500
 31
0.000000
  0
LINE
  8
HUB
 62
     7
  6
CONTINUOUS
 10
0.001791
 20
6.339500
 30
0.000000
 11
0.001791
 21
5.964500
 31
0.000000
  0
LINE
  8
HUB
 62
     7
  6
CONTINUOUS
 10
0.064541
 20
6.339500
 30
0.000000
 11
0.064541
 21
5.964500
 31
0.000000
  0
LINE
  8
HUB
 62
     7
  6
CONTINUOUS
 10
0.127291
 20
6.339500
 30
0.000000
 11
0.127291
 21
5.964500
 31
0.000000
  0
LINE
  8
HUB
 62
     7
  6
CONTINUOUS
 10
0.190041
 20
6.339500
 30
0.000000
 11
0.190041
 21
5.964500
 31
0.000000
  0
LINE
  8
HUB
 62
     7
  6
CONTINUOUS
 10
0.252791
 20
6.339500
 30
0.000000
 11
0.252791
 21
5.964500
 31
0.000000
  0
LINE
  8
HUB
 62
     7
  6
CONTINUOUS
 10
0.315541
 20
6.339500
 30
0.000000
 11
0.315541
 21
5.964500
 31
0.000000
  0
LINE
  8
HUB
 62
     7
  6
CONTINUOUS
 10
0.378291
 20
6.339500
 30
0.000000
 11
0.378291
 21
5.964500
 31
0.000000
  0
LINE
  8
HUB
 62
     7
  6
CONTINUOUS
 10
0.441040
 20
6.339500
 30
0.000000
 11
0.441040
 21
5.964500
 31
0.000000
  0
LINE
  8
HUB
 62
     7
  6
CONTINUOUS
 10
0.503790
 20
6.339500
 30
0.000000
 11
0.503790
 21
5.964500
 31
0.000000
  0
LINE
  8
HUB
 62
     7
  6
CONTINUOUS
 10
-0.217958
 20
6.368500
 30
0.000000
 11
-0.217958
 21
5.935500
 31
0.000000
  0
LINE
  8
HUB
 62
     7
  6
CONTINUOUS
 10
-0.155458
 20
6.368500
 30
0.000000
 11
-0.155458
 21
5.935500
 31
0.000000
  0
LINE
  8
HUB
 62
     7
  6
CONTINUOUS
 10
-0.092958
 20
6.368500
 30
0.000000
 11
-0.092958
 21
5.935500
 31
0.000000
  0
LINE
  8
HUB
 62
     7
  6
CONTINUOUS
 10
-0.030458
 20
6.368500
 30
0.000000
 11
-0.030458
 21
5.935500
 31
0.000000
  0
LINE
  8
HUB
 62
     7
  6
CONTINUOUS
 10
0.032042
 20
6.368500
 30
0.000000
 11
0.032042
 21
5.935500
 31
0.000000
  0
LINE
  8
HUB
 62
     7
  6
CONTINUOUS
 10
0.094542
 20
6.368500
 30
0.000000
 11
0.094542
 21
5.935500
 31
0.000000
  0
LINE
  8
HUB
 62
     7
  6
CONTINUOUS
 10
0.157042
 20
6.368500
 30
0.000000
 11
0.157042
 21
5.935500
 31
0.000000
  0
LINE
  8
HUB
 62
     7
  6
CONTINUOUS
 10
0.219542
 20
6.368500
 30
0.000000
 11
0.219542
 21
5.935500
 31
0.000000
  0
LINE
  8
HUB
 62
     7
  6
CONTINUOUS
 10
0.282042
 20
6.368500
 30
0.000000
 11
0.282042
 21
5.935500
 31
0.000000
  0
LINE
  8
HUB
 62
     7
  6
CONTINUOUS
 10
0.344542
 20
6.368500
 30
0.000000
 11
0.344542
 21
5.935500
 31
0.000000
  0
LINE
  8
HUB
 62
     7
  6
CONTINUOUS
 10
0.407042
 20
6.368500
 30
0.000000
 11
0.407042
 21
5.935500
 31
0.000000
  0
LINE
  8
HUB
 62
     7
  6
CONTINUOUS
 10
0.469542
 20
6.368500
 30
0.000000
 11
0.469542
 21
5.935500
 31
0.000000
  0
POINT
  8
BUSHING
 62
     7
 10
4.906181
 20
4.880500
 30
0.000000
  0
POINT
  8
BUSHING
 62
     7
 10
4.906181
 20
4.880500
 30
0.000000
  0
LINE
  8
BUSHING
 62
     7
  6
CONTINUOUS
 10
4.906181
 20
4.880500
 30
0.000000
 11
4.906181
 21
4.068000
 31
0.000000
  0
POINT
  8
BUSHING
 62
     7
 10
6.031502
 20
5.583608
 30
0.000000
  0
POINT
  8
BUSHING
 62
     7
 10
6.031502
 20
5.583608
 30
0.000000
  0
POINT
  8
BUSHING
 62
     7
 10
6.031510
 20
5.583608
 30
0.000000
  0
POINT
  8
BUSHING
 62
     7
 10
6.031510
 20
5.583608
 30
0.000000
  0
POINT
  8
BUSHING
 62
     7
 10
4.905041
 20
5.584528
 30
0.000000
  0
POINT
  8
BUSHING
 62
     7
 10
5.030041
 20
5.584528
 30
0.000000
  0
POINT
  8
BUSHING
 62
     7
 10
5.155041
 20
5.584528
 30
0.000000
  0
POINT
  8
BUSHING
 62
     7
 10
5.155041
 20
5.584528
 30
0.000000
  0
LINE
  8
BUSHING
 62
     7
  6
CONTINUOUS
 10
5.030041
 20
5.584528
 30
0.000000
 11
5.030041
 21
5.639228
 31
0.000000
  0
LINE
  8
BUSHING
 62
     7
  6
CONTINUOUS
 10
5.030041
 20
5.584528
 30
0.000000
 11
5.030041
 21
5.529828
 31
0.000000
  0
LINE
  8
BUSHING
 62
     7
  6
CONTINUOUS
 10
5.155041
 20
5.584528
 30
0.000000
 11
5.155041
 21
5.670914
 31
0.000000
  0
LINE
  8
BUSHING
 62
     7
  6
CONTINUOUS
 10
5.155041
 20
5.584528
 30
0.000000
 11
5.155041
 21
5.498141
 31
0.000000
  0
POINT
  8
BUSHING
 62
     7
 10
5.405041
 20
5.584528
 30
0.000000
  0
POINT
  8
BUSHING
 62
     7
 10
5.280041
 20
5.584528
 30
0.000000
  0
POINT
  8
BUSHING
 62
     7
 10
5.280041
 20
5.584528
 30
0.000000
  0
LINE
  8
BUSHING
 62
     7
  6
CONTINUOUS
 10
5.280041
 20
5.584528
 30
0.000000
 11
5.280041
 21
5.639228
 31
0.000000
  0
LINE
  8
BUSHING
 62
     7
  6
CONTINUOUS
 10
5.280041
 20
5.584528
 30
0.000000
 11
5.280041
 21
5.529828
 31
0.000000
  0
POINT
  8
BUSHING
 62
     7
 10
5.530041
 20
5.584528
 30
0.000000
  0
LINE
  8
BUSHING
 62
     7
  6
CONTINUOUS
 10
5.530041
 20
5.584528
 30
0.000000
 11
5.530041
 21
5.639228
 31
0.000000
  0
LINE
  8
BUSHING
 62
     7
  6
CONTINUOUS
 10
5.530041
 20
5.584528
 30
0.000000
 11
5.530041
 21
5.529828
 31
0.000000
  0
POINT
  8
BUSHING
 62
     7
 10
5.780041
 20
5.584528
 30
0.000000
  0
LINE
  8
BUSHING
 62
     7
  6
CONTINUOUS
 10
5.780041
 20
5.584528
 30
0.000000
 11
5.780041
 21
5.639228
 31
0.000000
  0
LINE
  8
BUSHING
 62
     7
  6
CONTINUOUS
 10
5.780041
 20
5.584528
 30
0.000000
 11
5.780041
 21
5.529828
 31
0.000000
  0
POINT
  8
BUSHING
 62
     7
 10
6.030041
 20
5.584528
 30
0.000000
  0
LINE
  8
BUSHING
 62
     7
  6
CONTINUOUS
 10
6.030041
 20
5.584528
 30
0.000000
 11
6.030041
 21
5.639228
 31
0.000000
  0
LINE
  8
BUSHING
 62
     7
  6
CONTINUOUS
 10
6.030041
 20
5.584528
 30
0.000000
 11
6.030041
 21
5.529828
 31
0.000000
  0
POINT
  8
BUSHING
 62
     7
 10
5.405041
 20
5.584528
 30
0.000000
  0
POINT
  8
BUSHING
 62
     7
 10
5.405041
 20
5.584528
 30
0.000000
  0
LINE
  8
BUSHING
 62
     7
  6
CONTINUOUS
 10
5.405041
 20
5.584528
 30
0.000000
 11
5.405041
 21
5.670914
 31
0.000000
  0
LINE
  8
BUSHING
 62
     7
  6
CONTINUOUS
 10
5.405041
 20
5.584528
 30
0.000000
 11
5.405041
 21
5.498141
 31
0.000000
  0
POINT
  8
BUSHING
 62
     7
 10
5.655041
 20
5.584528
 30
0.000000
  0
POINT
  8
BUSHING
 62
     7
 10
5.655041
 20
5.584528
 30
0.000000
  0
LINE
  8
BUSHING
 62
     7
  6
CONTINUOUS
 10
5.655041
 20
5.584528
 30
0.000000
 11
5.655041
 21
5.670914
 31
0.000000
  0
LINE
  8
BUSHING
 62
     7
  6
CONTINUOUS
 10
5.655041
 20
5.584528
 30
0.000000
 11
5.655041
 21
5.498141
 31
0.000000
  0
POINT
  8
BUSHING
 62
     7
 10
5.905041
 20
5.584528
 30
0.000000
  0
POINT
  8
BUSHING
 62
     7
 10
5.905041
 20
5.584528
 30
0.000000
  0
LINE
  8
BUSHING
 62
     7
  6
CONTINUOUS
 10
5.905041
 20
5.584528
 30
0.000000
 11
5.905041
 21
5.670914
 31
0.000000
  0
LINE
  8
BUSHING
 62
     7
  6
CONTINUOUS
 10
5.905041
 20
5.584528
 30
0.000000
 11
5.905041
 21
5.498141
 31
0.000000
  0
POINT
  8
BUSHING
 62
     7
 10
4.906181
 20
4.880500
 30
0.000000
  0
POINT
  8
BUSHING
 62
     7
 10
5.468672
 20
4.883953
 30
0.000000
  0
LINE
  8
BUSHING
 62
     7
  6
CONTINUOUS
 10
4.906181
 20
5.693000
 30
0.000000
 11
4.906181
 21
4.880500
 31
0.000000
  0
LINE
  8
BUSHING
 62
     7
  6
CONTINUOUS
 10
4.906181
 20
4.880500
 30
0.000000
 11
6.156181
 21
4.880500
 31
0.000000
  0
LINE
  8
BUSHING
 62
     7
  6
CONTINUOUS
 10
6.156181
 20
4.880500
 30
0.000000
 11
6.156181
 21
5.818000
 31
0.000000
  0
LINE
  8
BUSHING
 62
     7
  6
CONTINUOUS
 10
6.156181
 20
4.880500
 30
0.000000
 11
6.156181
 21
3.943000
 31
0.000000
  0
LINE
  8
BUSHING
 62
     7
  6
CONTINUOUS
 10
4.906181
 20
5.442991
 30
0.000000
 11
6.156181
 21
5.442991
 31
0.000000
  0
LINE
  8
BUSHING
 62
     7
  6
CONTINUOUS
 10
4.906181
 20
5.497658
 30
0.000000
 11
6.156181
 21
5.497658
 31
0.000000
  0
LINE
  8
BUSHING
 62
     7
  6
CONTINUOUS
 10
4.908688
 20
4.318009
 30
0.000000
 11
6.156181
 21
4.318009
 31
0.000000
  0
LINE
  8
BUSHING
 62
     7
  6
CONTINUOUS
 10
4.906181
 20
4.068000
 30
0.000000
 11
6.156181
 21
3.943000
 31
0.000000
  0
LINE
  8
BUSHING
 62
     7
  6
CONTINUOUS
 10
4.906181
 20
5.693000
 30
0.000000
 11
6.156181
 21
5.818000
 31
0.000000
  0
LINE
  8
BUSHING
 62
     7
  6
CONTINUOUS
 10
4.906181
 20
5.669558
 30
0.000000
 11
6.156181
 21
5.669558
 31
0.000000
  0
LINE
  8
BUSHING
 62
     7
  6
CONTINUOUS
 10
4.905041
 20
5.584528
 30
0.000000
 11
6.156181
 21
5.584528
 31
0.000000
  0
LINE
  8
BUSHING
 62
     7
  6
CONTINUOUS
 10
4.906181
 20
6.225275
 30
0.000000
 11
5.014435
 21
6.287775
 31
0.000000
  0
LINE
  8
BUSHING
 62
     7
  6
CONTINUOUS
 10
4.906181
 20
6.225275
 30
0.000000
 11
5.014435
 21
6.162775
 31
0.000000
  0
LINE
  8
BUSHING
 62
     7
  6
CONTINUOUS
 10
6.156181
 20
6.225275
 30
0.000000
 11
6.047928
 21
6.162775
 31
0.000000
  0
LINE
  8
BUSHING
 62
     7
  6
CONTINUOUS
 10
6.156181
 20
6.225275
 30
0.000000
 11
6.047928
 21
6.287775
 31
0.000000
  0
LINE
  8
BUSHING
 62
     7
  6
CONTINUOUS
 10
4.906181
 20
5.755500
 30
0.000000
 11
4.906181
 21
6.475275
 31
0.000000
  0
LINE
  8
BUSHING
 62
     7
  6
CONTINUOUS
 10
6.156181
 20
5.880500
 30
0.000000
 11
6.156181
 21
6.475275
 31
0.000000
  0
TEXT
  8
BUSHING
 62
     7
 10
5.155745
 20
6.162702
 30
0.000000
 40
0.125000
  1
1 1/4"
  0
LINE
  8
BUSHING
 62
     7
  6
CONTINUOUS
 10
4.906181
 20
6.225275
 30
0.000000
 11
5.124496
 21
6.225275
 31
0.000000
  0
LINE
  8
BUSHING
 62
     7
  6
CONTINUOUS
 10
5.937867
 20
6.225275
 30
0.000000
 11
6.156181
 21
6.225275
 31
0.000000
  0
LINE
  8
BUSHING
 62
     7
  6
CONTINUOUS
 10
4.435084
 20
4.068000
 30
0.000000
 11
4.372584
 21
4.176253
 31
0.000000
  0
LINE
  8
BUSHING
 62
     7
  6
CONTINUOUS
 10
4.435084
 20
4.068000
 30
0.000000
 11
4.497584
 21
4.176253
 31
0.000000
  0
LINE
  8
BUSHING
 62
     7
  6
CONTINUOUS
 10
4.435084
 20
5.693000
 30
0.000000
 11
4.497584
 21
5.584747
 31
0.000000
  0
LINE
  8
BUSHING
 62
     7
  6
CONTINUOUS
 10
4.435084
 20
5.693000
 30
0.000000
 11
4.372584
 21
5.584747
 31
0.000000
  0
LINE
  8
BUSHING
 62
     7
  6
CONTINUOUS
 10
4.843681
 20
4.068000
 30
0.000000
 11
4.185084
 21
4.068000
 31
0.000000
  0
LINE
  8
BUSHING
 62
     7
  6
CONTINUOUS
 10
4.843681
 20
5.693000
 30
0.000000
 11
4.185084
 21
5.693000
 31
0.000000
  0
TEXT
  8
BUSHING
 62
     7
 10
4.056935
 20
5.041603
 30
0.000000
 40
0.125000
  1
1 5/8"
  0
LINE
  8
BUSHING
 62
     7
  6
CONTINUOUS
 10
4.435084
 20
4.068000
 30
0.000000
 11
4.435084
 21
5.010353
 31
0.000000
  0
LINE
  8
BUSHING
 62
     7
  6
CONTINUOUS
 10
4.435084
 20
5.198902
 30
0.000000
 11
4.435084
 21
5.693000
 31
0.000000
  0
LINE
  8
BUSHING
 62
     7
  6
CONTINUOUS
 10
6.603737
 20
4.318009
 30
0.000000
 11
6.541237
 21
4.426262
 31
0.000000
  0
LINE
  8
BUSHING
 62
     7
  6
CONTINUOUS
 10
6.603737
 20
4.318009
 30
0.000000
 11
6.666237
 21
4.426262
 31
0.000000
  0
LINE
  8
BUSHING
 62
     7
  6
CONTINUOUS
 10
6.603737
 20
5.442991
 30
0.000000
 11
6.666237
 21
5.334738
 31
0.000000
  0
LINE
  8
BUSHING
 62
     7
  6
CONTINUOUS
 10
6.603737
 20
5.442991
 30
0.000000
 11
6.541237
 21
5.334738
 31
0.000000
  0
LINE
  8
BUSHING
 62
     7
  6
CONTINUOUS
 10
6.218681
 20
4.318009
 30
0.000000
 11
6.853737
 21
4.318009
 31
0.000000
  0
LINE
  8
BUSHING
 62
     7
  6
CONTINUOUS
 10
6.218681
 20
5.442991
 30
0.000000
 11
6.853737
 21
5.442991
 31
0.000000
  0
TEXT
  8
BUSHING
 62
     7
 10
6.226289
 20
4.668171
 30
0.000000
 40
0.125000
  1
1 1/8"
  0
LINE
  8
BUSHING
 62
     7
  6
CONTINUOUS
 10
6.603737
 20
4.318009
 30
0.000000
 11
6.603737
 21
4.636921
 31
0.000000
  0
LINE
  8
BUSHING
 62
     7
  6
CONTINUOUS
 10
6.603737
 20
4.825237
 30
0.000000
 11
6.603737
 21
5.442991
 31
0.000000
  0
LINE
  8
BUSHING
 62
     7
  6
CONTINUOUS
 10
7.198795
 20
3.943000
 30
0.000000
 11
7.136295
 21
4.051253
 31
0.000000
  0
LINE
  8
BUSHING
 62
     7
  6
CONTINUOUS
 10
7.198795
 20
3.943000
 30
0.000000
 11
7.261295
 21
4.051253
 31
0.000000
  0
LINE
  8
BUSHING
 62
     7
  6
CONTINUOUS
 10
7.198795
 20
5.818000
 30
0.000000
 11
7.261295
 21
5.709747
 31
0.000000
  0
LINE
  8
BUSHING
 62
     7
  6
CONTINUOUS
 10
7.198795
 20
5.818000
 30
0.000000
 11
7.136295
 21
5.709747
 31
0.000000
  0
LINE
  8
BUSHING
 62
     7
  6
CONTINUOUS
 10
6.218681
 20
3.943000
 30
0.000000
 11
7.448795
 21
3.943000
 31
0.000000
  0
LINE
  8
BUSHING
 62
     7
  6
CONTINUOUS
 10
6.218681
 20
5.818000
 30
0.000000
 11
7.448795
 21
5.818000
 31
0.000000
  0
TEXT
  8
BUSHING
 62
     7
 10
6.821347
 20
5.004365
 30
0.000000
 40
0.125000
  1
1 7/8"
  0
LINE
  8
BUSHING
 62
     7
  6
CONTINUOUS
 10
7.198795
 20
3.943000
 30
0.000000
 11
7.198795
 21
4.973115
 31
0.000000
  0
LINE
  8
BUSHING
 62
     7
  6
CONTINUOUS
 10
7.198795
 20
5.161431
 30
0.000000
 11
7.198795
 21
5.818000
 31
0.000000
  0
LINE
  8
BUSHING
 62
     7
  6
CONTINUOUS
 10
5.135929
 20
4.040013
 30
0.000000
 11
5.249491
 21
3.987776
 31
0.000000
  0
LINE
  8
BUSHING
 62
     7
  6
CONTINUOUS
 10
5.135929
 20
4.040013
 30
0.000000
 11
5.147472
 21
3.915547
 31
0.000000
  0
LINE
  8
BUSHING
 62
     7
  6
CONTINUOUS
 10
5.135929
 20
4.040013
 30
0.000000
 11
5.638422
 21
3.330270
 31
0.000000
  0
LINE
  8
BUSHING
 62
     7
  6
CONTINUOUS
 10
5.638422
 20
3.330270
 30
0.000000
 11
5.763422
 21
3.330270
 31
0.000000
  0
TEXT
  8
BUSHING
 62
     7
 10
5.825922
 20
3.267770
 30
0.000000
 40
0.125000
  1
2.500TPF
  0
LINE
  8
BORDER
 62
     7
  6
CONTINUOUS
 10
-8.089958
 20
10.255500
 30
0.000000
 11
-8.089958
 21
-0.494500
 31
0.000000
  0
LINE
  8
BORDER
 62
     7
  6
CONTINUOUS
 10
-8.089958
 20
-0.494500
 30
0.000000
 11
7.780042
 21
-0.494500
 31
0.000000
  0
LINE
  8
BORDER
 62
     7
  6
CONTINUOUS
 10
7.780042
 20
-0.494500
 30
0.000000
 11
7.780042
 21
10.255500
 31
0.000000
  0
LINE
  8
BORDER
 62
     7
  6
CONTINUOUS
 10
7.780042
 20
10.255500
 30
0.000000
 11
-8.089958
 21
10.255500
 31
0.000000
  0
POINT
  8
ORIGONPOINT
 62
     7
 10
7.780042
 20
-0.494500
 30
0.000000
  0
POINT
  8
HUB
 62
     7
 10
-4.982066
 20
4.880500
 30
0.000000
  0
CIRCLE
  8
HUBFT
 62
     7
  6
CONTINUOUS
 10
-4.982066
 20
4.880500
 30
0.000000
 40
1.875000
  0
LINE
  8
CENTERLINE
 62
     7
  6
CONTINUOUS
 10
-4.982066
 20
10.255500
 30
0.000000
 11
-4.982066
 21
-0.494500
 31
0.000000
  0
CIRCLE
  8
HUBFT
 62
     7
  6
CONTINUOUS
 10
-4.982066
 20
4.880500
 30
0.000000
 40
0.375000
  0
CIRCLE
  8
HUBFT
 62
     7
  6
CONTINUOUS
 10
-4.982066
 20
4.880500
 30
0.000000
 40
1.632500
  0
CIRCLE
  8
HUBFT
 62
     7
  6
CONTINUOUS
 10
-4.982066
 20
4.880500
 30
0.000000
 40
0.695000
  0
CIRCLE
  8
HUBFT
 62
     7
  6
CONTINUOUS
 10
-4.982066
 20
4.880500
 30
0.000000
 40
0.703001
  0
CIRCLE
  8
HUBFT
 62
     7
  6
CONTINUOUS
 10
-5.333567
 20
5.489316
 30
0.000000
 40
0.101500
  0
CIRCLE
  8
HUBFT
 62
     7
  6
CONTINUOUS
 10
-5.333567
 20
5.489316
 30
0.000000
 40
0.179499
  0
CIRCLE
  8
HUBFT
 62
     7
  6
CONTINUOUS
 10
-5.685066
 20
4.880500
 30
0.000000
 40
0.101500
  0
CIRCLE
  8
HUBFT
 62
     7
  6
CONTINUOUS
 10
-5.685066
 20
4.880500
 30
0.000000
 40
0.179500
  0
CIRCLE
  8
HUBFT
 62
     7
  6
CONTINUOUS
 10
-5.333566
 20
4.271684
 30
0.000000
 40
0.101499
  0
CIRCLE
  8
HUBFT
 62
     7
  6
CONTINUOUS
 10
-5.333566
 20
4.271684
 30
0.000000
 40
0.179500
  0
CIRCLE
  8
HUBFT
 62
     7
  6
CONTINUOUS
 10
-4.630565
 20
4.271686
 30
0.000000
 40
0.101500
  0
CIRCLE
  8
HUBFT
 62
     7
  6
CONTINUOUS
 10
-4.630565
 20
4.271686
 30
0.000000
 40
0.179501
  0
CIRCLE
  8
HUBFT
 62
     7
  6
CONTINUOUS
 10
-4.279066
 20
4.880502
 30
0.000000
 40
0.101500
  0
CIRCLE
  8
HUBFT
 62
     7
  6
CONTINUOUS
 10
-4.279066
 20
4.880502
 30
0.000000
 40
0.179500
  0
CIRCLE
  8
HUBFT
 62
     7
  6
CONTINUOUS
 10
-4.630566
 20
5.489316
 30
0.000000
 40
0.101499
  0
CIRCLE
  8
HUBFT
 62
     7
  6
CONTINUOUS
 10
-4.630566
 20
5.489316
 30
0.000000
 40
0.179500
  0
CIRCLE
  8
HUBFT
 62
     7
  6
CONTINUOUS
 10
-4.982066
 20
4.880500
 30
0.000000
 40
1.271500
  0
CIRCLE
  8
HUBFT
 62
     7
  6
CONTINUOUS
 10
-4.982066
 20
6.152000
 30
0.000000
 40
0.248500
  0
CIRCLE
  8
HUBFT
 62
     7
  6
CONTINUOUS
 10
-6.083217
 20
5.516250
 30
0.000000
 40
0.248500
  0
CIRCLE
  8
HUBFT
 62
     7
  6
CONTINUOUS
 10
-6.083217
 20
4.244750
 30
0.000000
 40
0.248500
  0
CIRCLE
  8
HUBFT
 62
     7
  6
CONTINUOUS
 10
-4.982066
 20
3.609000
 30
0.000000
 40
0.248500
  0
CIRCLE
  8
HUBFT
 62
     7
  6
CONTINUOUS
 10
-3.880915
 20
4.244750
 30
0.000000
 40
0.248500
  0
CIRCLE
  8
HUBFT
 62
     7
  6
CONTINUOUS
 10
-3.880915
 20
5.516250
 30
0.000000
 40
0.248500
  0
LINE
  8
DIMENSIONS
 62
     7
  6
CONTINUOUS
 10
-1.730309
 20
3.248000
 30
0.000000
 11
-1.855309
 21
3.464506
 31
0.000000
  0
LINE
  8
DIMENSIONS
 62
     7
  6
CONTINUOUS
 10
-1.730309
 20
3.248000
 30
0.000000
 11
-1.605309
 21
3.464506
 31
0.000000
  0
LINE
  8
DIMENSIONS
 62
     7
  6
CONTINUOUS
 10
-1.730309
 20
6.513000
 30
0.000000
 11
-1.605309
 21
6.296494
 31
0.000000
  0
LINE
  8
DIMENSIONS
 62
     7
  6
CONTINUOUS
 10
-1.730309
 20
6.513000
 30
0.000000
 11
-1.855309
 21
6.296494
 31
0.000000
  0
LINE
  8
DIMENSIONS
 62
     7
  6
CONTINUOUS
 10
-0.467958
 20
3.248000
 30
0.000000
 11
-1.980309
 21
3.248000
 31
0.000000
  0
LINE
  8
DIMENSIONS
 62
     7
  6
CONTINUOUS
 10
-0.467958
 20
6.513000
 30
0.000000
 11
-1.980309
 21
6.513000
 31
0.000000
  0
TEXT
  8
DIMENSIONS
 62
     7
 10
-2.392129
 20
5.213993
 30
0.000000
 40
0.125000
  1
3.265"
  0
TEXT
  8
DIMENSIONS
 62
     7
 10
-1.730641
 20
5.308050
 30
0.000000
 40
0.125000
  1
+.000"
  0
TEXT
  8
DIMENSIONS
 62
     7
 10
-1.730641
 20
5.119936
 30
0.000000
 40
0.125000
  1
--.001"
  0
LINE
  8
DIMENSIONS
 62
     7
  6
CONTINUOUS
 10
-1.730309
 20
3.248000
 30
0.000000
 11
-1.730309
 21
5.088696
 31
0.000000
  0
LINE
  8
DIMENSIONS
 62
     7
  6
CONTINUOUS
 10
-1.730309
 20
5.464903
 30
0.000000
 11
-1.730309
 21
6.513000
 31
0.000000
  0
LINE
  8
DIMENSIONS
 62
     7
  6
CONTINUOUS
 10
-4.247776
 20
6.943893
 30
0.000000
 11
-3.997776
 21
6.943893
 31
0.000000
  0
LINE
  8
DIMENSIONS
 62
     7
  6
CONTINUOUS
 10
-4.555772
 20
6.078409
 30
0.000000
 11
-4.510594
 21
5.832525
 31
0.000000
  0
LINE
  8
DIMENSIONS
 62
     7
  6
CONTINUOUS
 10
-4.555772
 20
6.078409
 30
0.000000
 11
-4.746125
 21
5.916342
 31
0.000000
  0
LINE
  8
DIMENSIONS
 62
     7
  6
CONTINUOUS
 10
-5.408360
 20
3.682591
 30
0.000000
 11
-5.453538
 21
3.928475
 31
0.000000
  0
LINE
  8
DIMENSIONS
 62
     7
  6
CONTINUOUS
 10
-5.408360
 20
3.682591
 30
0.000000
 11
-5.218007
 21
3.844658
 31
0.000000
  0
TEXT
  8
DIMENSIONS
 62
     7
 10
-3.966526
 20
6.881086
 30
0.000000
 40
0.125000
  1
2.543"
  0
LINE
  8
DIMENSIONS
 62
     7
  6
CONTINUOUS
 10
-5.408360
 20
3.682591
 30
0.000000
 11
-4.247776
 21
6.943893
 31
0.000000
  0
TEXT
  8
DIMENSIONS
 62
     7
 10
-3.966526
 20
6.693586
 30
0.000000
 40
0.125000
  1
BOLT
  0
TEXT
  8
DIMENSIONS
 62
     7
 10
-3.966526
 20
6.506086
 30
0.000000
 40
0.125000
  1
CIRCLE
  0
LINE
  8
DIMENSIONS
 62
     7
  6
CONTINUOUS
 10
-3.456242
 20
6.293263
 30
0.000000
 11
-3.206242
 21
6.293263
 31
0.000000
  0
LINE
  8
DIMENSIONS
 62
     7
  6
CONTINUOUS
 10
-4.466226
 20
5.358117
 30
0.000000
 11
-4.540167
 21
5.119302
 31
0.000000
  0
LINE
  8
DIMENSIONS
 62
     7
  6
CONTINUOUS
 10
-4.466226
 20
5.358117
 30
0.000000
 11
-4.710016
 21
5.302745
 31
0.000000
  0
LINE
  8
DIMENSIONS
 62
     7
  6
CONTINUOUS
 10
-5.497906
 20
4.402883
 30
0.000000
 11
-5.423965
 21
4.641698
 31
0.000000
  0
LINE
  8
DIMENSIONS
 62
     7
  6
CONTINUOUS
 10
-5.497906
 20
4.402883
 30
0.000000
 11
-5.254116
 21
4.458255
 31
0.000000
  0
TEXT
  8
DIMENSIONS
 62
     7
 10
-3.174992
 20
6.230677
 30
0.000000
 40
0.125000
  1
1 13/32"
  0
LINE
  8
DIMENSIONS
 62
     7
  6
CONTINUOUS
 10
-5.497906
 20
4.402883
 30
0.000000
 11
-3.456242
 21
6.293263
 31
0.000000
  0
TEXT
  8
DIMENSIONS
 62
     7
 10
-3.174992
 20
6.043177
 30
0.000000
 40
0.125000
  1
BOLT 
  0
TEXT
  8
DIMENSIONS
 62
     7
 10
-3.174992
 20
5.855677
 30
0.000000
 40
0.125000
  1
CIRCLE
  0
LINE
  8
DIMENSIONS
 62
     7
  6
CONTINUOUS
 10
-4.453725
 20
4.240895
 30
0.000000
 11
-4.207013
 21
4.200485
 31
0.000000
  0
LINE
  8
DIMENSIONS
 62
     7
  6
CONTINUOUS
 10
-4.453725
 20
4.240895
 30
0.000000
 11
-4.365366
 21
4.007031
 31
0.000000
  0
LINE
  8
DIMENSIONS
 62
     7
  6
CONTINUOUS
 10
-4.453725
 20
4.240895
 30
0.000000
 11
-3.687566
 21
3.613751
 31
0.000000
  0
LINE
  8
DIMENSIONS
 62
     7
  6
CONTINUOUS
 10
-3.687566
 20
3.613751
 30
0.000000
 11
-3.437566
 21
3.613751
 31
0.000000
  0
TEXT
  8
DIMENSIONS
 62
     7
 10
-3.375066
 20
3.551251
 30
0.000000
 40
0.125000
  1
SEE NOTE B
  0
LINE
  8
DIMENSIONS
 62
     7
  6
CONTINUOUS
 10
-4.768314
 20
3.482262
 30
0.000000
 11
-4.528895
 21
3.554222
 31
0.000000
  0
LINE
  8
DIMENSIONS
 62
     7
  6
CONTINUOUS
 10
-4.768314
 20
3.482262
 30
0.000000
 11
-4.586285
 21
3.310899
 31
0.000000
  0
LINE
  8
DIMENSIONS
 62
     7
  6
CONTINUOUS
 10
-4.768314
 20
3.482262
 30
0.000000
 11
-3.874303
 21
3.271400
 31
0.000000
  0
LINE
  8
DIMENSIONS
 62
     7
  6
CONTINUOUS
 10
-3.874303
 20
3.271400
 30
0.000000
 11
-3.624303
 21
3.271400
 31
0.000000
  0
TEXT
  8
DIMENSIONS
 62
     7
 10
-3.561803
 20
3.208900
 30
0.000000
 40
0.125000
  1
SEE NOTE C
  0
LINE
  8
DIMENSIONS
 62
     7
  6
CONTINUOUS
 10
-4.982066
 20
7.058232
 30
0.000000
 11
-5.198572
 21
6.933232
 31
0.000000
  0
LINE
  8
DIMENSIONS
 62
     7
  6
CONTINUOUS
 10
-4.982066
 20
7.058232
 30
0.000000
 11
-5.198572
 21
7.183232
 31
0.000000
  0
LINE
  8
DIMENSIONS
 62
     7
  6
CONTINUOUS
 10
-6.868037
 20
5.969366
 30
0.000000
 11
-6.868037
 21
6.219366
 31
0.000000
  0
LINE
  8
DIMENSIONS
 62
     7
  6
CONTINUOUS
 10
-6.868037
 20
5.969366
 30
0.000000
 11
-6.651531
 21
6.094366
 31
0.000000
  0
LINE
  8
DIMENSIONS
 62
     7
  6
CONTINUOUS
 10
-4.982066
 20
6.880500
 30
0.000000
 11
-4.982066
 21
7.308232
 31
0.000000
  0
LINE
  8
DIMENSIONS
 62
     7
  6
CONTINUOUS
 10
-6.191470
 20
5.578750
 30
0.000000
 11
-7.084543
 21
6.094366
 31
0.000000
  0
TEXT
  8
DIMENSIONS
 62
     7
 10
-6.236992
 20
6.703747
 30
0.000000
 40
0.125000
  1
60¦
  0
ARC
  8
DIMENSIONS
 62
     7
  6
CONTINUOUS
 10
-4.982066
 20
4.880500
 30
0.000000
 40
2.177732
 50
90.000000
 51
114.608003
  0
ARC
  8
DIMENSIONS
 62
     7
  6
CONTINUOUS
 10
-4.982066
 20
4.880500
 30
0.000000
 40
2.177732
 50
124.626580
 51
150.000000
  0
LINE
  8
DIMENSIONS
 62
     7
  6
CONTINUOUS
 10
-7.228138
 20
4.880500
 30
0.000000
 11
-7.103138
 21
4.663994
 31
0.000000
  0
LINE
  8
DIMENSIONS
 62
     7
  6
CONTINUOUS
 10
-7.228138
 20
4.880500
 30
0.000000
 11
-7.353138
 21
4.663994
 31
0.000000
  0
LINE
  8
DIMENSIONS
 62
     7
  6
CONTINUOUS
 10
-6.105101
 20
2.935344
 30
0.000000
 11
-6.355101
 21
2.935343
 31
0.000000
  0
LINE
  8
DIMENSIONS
 62
     7
  6
CONTINUOUS
 10
-6.105101
 20
2.935344
 30
0.000000
 11
-6.230101
 21
3.151850
 31
0.000000
  0
LINE
  8
DIMENSIONS
 62
     7
  6
CONTINUOUS
 10
-5.810066
 20
4.880500
 30
0.000000
 11
-7.478138
 21
4.880500
 31
0.000000
  0
LINE
  8
DIMENSIONS
 62
     7
  6
CONTINUOUS
 10
-5.396065
 20
4.163431
 30
0.000000
 11
-6.230100
 21
2.718837
 31
0.000000
  0
TEXT
  8
DIMENSIONS
 62
     7
 10
-7.093281
 20
3.694739
 30
0.000000
 40
0.125000
  1
60¦
  0
ARC
  8
DIMENSIONS
 62
     7
  6
CONTINUOUS
 10
-4.982066
 20
4.880500
 30
0.000000
 40
2.246072
 50
180.000000
 51
207.268488
  0
ARC
  8
DIMENSIONS
 62
     7
  6
CONTINUOUS
 10
-4.982066
 20
4.880500
 30
0.000000
 40
2.246072
 50
212.808976
 51
240.000043
  0
LINE
  8
DIMENSIONS
 62
     7
  6
CONTINUOUS
 10
4.905041
 20
5.584528
 30
0.000000
 11
4.735756
 21
5.768491
 31
0.000000
  0
LINE
  8
DIMENSIONS
 62
     7
  6
CONTINUOUS
 10
4.905041
 20
5.584528
 30
0.000000
 11
4.979716
 21
5.823114
 31
0.000000
  0
LINE
  8
DIMENSIONS
 62
     7
  6
CONTINUOUS
 10
4.905041
 20
5.584528
 30
0.000000
 11
4.646094
 21
6.741044
 31
0.000000
  0
LINE
  8
DIMENSIONS
 62
     7
  6
CONTINUOUS
 10
4.646094
 20
6.741044
 30
0.000000
 11
4.896094
 21
6.741044
 31
0.000000
  0
TEXT
  8
DIMENSIONS
 62
     7
 10
4.958594
 20
6.678544
 30
0.000000
 40
0.125000
  1
SEE NOTE A
  0
LINE
  8
HUB
 62
     7
  6
CONTINUOUS
 10
-0.342958
 20
5.599500
 30
0.000000
 11
-0.154958
 21
5.599500
 31
0.000000
  0
LINE
  8
HUB
 62
     7
  6
CONTINUOUS
 10
-0.342958
 20
5.599500
 30
0.000000
 11
-0.342958
 21
6.513000
 31
0.000000
  0
LINE
  8
HUB
 62
     7
  6
CONTINUOUS
 10
-0.154958
 20
5.599500
 30
0.000000
 11
-0.154958
 21
4.161500
 31
0.000000
  0
LINE
  8
HUB
 62
     7
  6
CONTINUOUS
 10
-0.154958
 20
4.161500
 30
0.000000
 11
-0.342958
 21
4.161500
 31
0.000000
  0
LINE
  8
HUB
 62
     7
  6
CONTINUOUS
 10
-0.342958
 20
4.161500
 30
0.000000
 11
-0.342958
 21
3.248000
 31
0.000000
  0
LINE
  8
DIMENSIONS
 62
     7
  6
CONTINUOUS
 10
-0.725657
 20
4.161500
 30
0.000000
 11
-0.850657
 21
4.378006
 31
0.000000
  0
LINE
  8
DIMENSIONS
 62
     7
  6
CONTINUOUS
 10
-0.725657
 20
4.161500
 30
0.000000
 11
-0.600657
 21
4.378006
 31
0.000000
  0
LINE
  8
DIMENSIONS
 62
     7
  6
CONTINUOUS
 10
-0.725657
 20
5.599500
 30
0.000000
 11
-0.600657
 21
5.382994
 31
0.000000
  0
LINE
  8
DIMENSIONS
 62
     7
  6
CONTINUOUS
 10
-0.725657
 20
5.599500
 30
0.000000
 11
-0.850657
 21
5.382994
 31
0.000000
  0
LINE
  8
DIMENSIONS
 62
     7
  6
CONTINUOUS
 10
-0.467958
 20
4.161500
 30
0.000000
 11
-0.975657
 21
4.161500
 31
0.000000
  0
LINE
  8
DIMENSIONS
 62
     7
  6
CONTINUOUS
 10
-0.467958
 20
5.599500
 30
0.000000
 11
-0.975657
 21
5.599500
 31
0.000000
  0
TEXT
  8
DIMENSIONS
 62
     7
 10
-1.078462
 20
4.582438
 30
0.000000
 40
0.125000
  1
1 7/16"
  0
LINE
  8
DIMENSIONS
 62
     7
  6
CONTINUOUS
 10
-0.725657
 20
4.161500
 30
0.000000
 11
-0.725657
 21
4.551188
 31
0.000000
  0
LINE
  8
DIMENSIONS
 62
     7
  6
CONTINUOUS
 10
-0.725657
 20
4.739130
 30
0.000000
 11
-0.725657
 21
5.599500
 31
0.000000
  0
LINE
  8
DIMENSIONS
 62
     7
  6
CONTINUOUS
 10
-0.342958
 20
3.937286
 30
0.000000
 11
-0.559464
 21
3.812286
 31
0.000000
  0
LINE
  8
DIMENSIONS
 62
     7
  6
CONTINUOUS
 10
-0.342958
 20
3.937286
 30
0.000000
 11
-0.559464
 21
4.062286
 31
0.000000
  0
LINE
  8
DIMENSIONS
 62
     7
  6
CONTINUOUS
 10
-0.154958
 20
3.937286
 30
0.000000
 11
0.061548
 21
4.062286
 31
0.000000
  0
LINE
  8
DIMENSIONS
 62
     7
  6
CONTINUOUS
 10
-0.154958
 20
3.937286
 30
0.000000
 11
0.061548
 21
3.812286
 31
0.000000
  0
LINE
  8
DIMENSIONS
 62
     7
  6
CONTINUOUS
 10
-0.342958
 20
4.036500
 30
0.000000
 11
-0.342958
 21
3.687286
 31
0.000000
  0
LINE
  8
DIMENSIONS
 62
     7
  6
CONTINUOUS
 10
-0.154958
 20
4.036500
 30
0.000000
 11
-0.154958
 21
3.687286
 31
0.000000
  0
TEXT
  8
DIMENSIONS
 62
     7
 10
-1.404873
 20
3.874564
 30
0.000000
 40
0.125000
  1
3/16"
  0
LINE
  8
DIMENSIONS
 62
     7
  6
CONTINUOUS
 10
-0.342958
 20
3.937286
 30
0.000000
 11
-0.842958
 21
3.937286
 31
0.000000
  0
LINE
  8
DIMENSIONS
 62
     7
  6
CONTINUOUS
 10
-0.154958
 20
3.937286
 30
0.000000
 11
0.345042
 21
3.937286
 31
0.000000
  0
LINE
  8
DIMENSIONS
 62
     7
  6
CONTINUOUS
 10
0.941506
 20
4.505500
 30
0.000000
 11
0.816506
 21
4.722006
 31
0.000000
  0
LINE
  8
DIMENSIONS
 62
     7
  6
CONTINUOUS
 10
0.941506
 20
4.505500
 30
0.000000
 11
1.066506
 21
4.722006
 31
0.000000
  0
LINE
  8
DIMENSIONS
 62
     7
  6
CONTINUOUS
 10
0.941506
 20
5.255500
 30
0.000000
 11
1.066506
 21
5.038994
 31
0.000000
  0
LINE
  8
DIMENSIONS
 62
     7
  6
CONTINUOUS
 10
0.941506
 20
5.255500
 30
0.000000
 11
0.816506
 21
5.038994
 31
0.000000
  0
LINE
  8
DIMENSIONS
 62
     7
  6
CONTINUOUS
 10
0.782042
 20
4.505500
 30
0.000000
 11
1.191506
 21
4.505500
 31
0.000000
  0
LINE
  8
DIMENSIONS
 62
     7
  6
CONTINUOUS
 10
0.782042
 20
5.255500
 30
0.000000
 11
1.191506
 21
5.255500
 31
0.000000
  0
TEXT
  8
DIMENSIONS
 62
     7
 10
0.716027
 20
4.926570
 30
0.000000
 40
0.125000
  1
3/4"
  0
LINE
  8
DIMENSIONS
 62
     7
  6
CONTINUOUS
 10
0.941506
 20
4.505500
 30
0.000000
 11
0.941506
 21
4.895320
 31
0.000000
  0
LINE
  8
DIMENSIONS
 62
     7
  6
CONTINUOUS
 10
0.941506
 20
5.082966
 30
0.000000
 11
0.941506
 21
5.255500
 31
0.000000
  0
LINE
  8
DIMENSIONS
 62
     7
  6
CONTINUOUS
 10
-0.154958
 20
2.488869
 30
0.000000
 11
0.061548
 21
2.613869
 31
0.000000
  0
LINE
  8
DIMENSIONS
 62
     7
  6
CONTINUOUS
 10
-0.154958
 20
2.488869
 30
0.000000
 11
0.061548
 21
2.363869
 31
0.000000
  0
LINE
  8
DIMENSIONS
 62
     7
  6
CONTINUOUS
 10
0.657042
 20
2.488869
 30
0.000000
 11
0.440536
 21
2.363869
 31
0.000000
  0
LINE
  8
DIMENSIONS
 62
     7
  6
CONTINUOUS
 10
0.657042
 20
2.488869
 30
0.000000
 11
0.440536
 21
2.613869
 31
0.000000
  0
LINE
  8
DIMENSIONS
 62
     7
  6
CONTINUOUS
 10
-0.154958
 20
2.880500
 30
0.000000
 11
-0.154958
 21
2.238869
 31
0.000000
  0
LINE
  8
DIMENSIONS
 62
     7
  6
CONTINUOUS
 10
0.657042
 20
2.880500
 30
0.000000
 11
0.657042
 21
2.238869
 31
0.000000
  0
TEXT
  8
DIMENSIONS
 62
     7
 10
-0.041049
 20
2.426147
 30
0.000000
 40
0.125000
  1
13/16"
  0
LINE
  8
DIMENSIONS
 62
     7
  6
CONTINUOUS
 10
-0.154958
 20
2.488869
 30
0.000000
 11
-0.072299
 21
2.488869
 31
0.000000
  0
LINE
  8
DIMENSIONS
 62
     7
  6
CONTINUOUS
 10
0.574383
 20
2.488869
 30
0.000000
 11
0.657042
 21
2.488869
 31
0.000000
  0
LINE
  8
DIMENSIONS
 62
     7
  6
CONTINUOUS
 10
0.657042
 20
2.488869
 30
0.000000
 11
0.873548
 21
2.613869
 31
0.000000
  0
LINE
  8
DIMENSIONS
 62
     7
  6
CONTINUOUS
 10
0.657042
 20
2.488869
 30
0.000000
 11
0.873548
 21
2.363869
 31
0.000000
  0
LINE
  8
DIMENSIONS
 62
     7
  6
CONTINUOUS
 10
2.032042
 20
2.488869
 30
0.000000
 11
1.815536
 21
2.363869
 31
0.000000
  0
LINE
  8
DIMENSIONS
 62
     7
  6
CONTINUOUS
 10
2.032042
 20
2.488869
 30
0.000000
 11
1.815536
 21
2.613869
 31
0.000000
  0
LINE
  8
DIMENSIONS
 62
     7
  6
CONTINUOUS
 10
0.657042
 20
2.880500
 30
0.000000
 11
0.657042
 21
2.238869
 31
0.000000
  0
LINE
  8
DIMENSIONS
 62
     7
  6
CONTINUOUS
 10
2.032042
 20
3.630500
 30
0.000000
 11
2.032042
 21
2.238869
 31
0.000000
  0
TEXT
  8
DIMENSIONS
 62
     7
 10
1.031336
 20
2.425960
 30
0.000000
 40
0.125000
  1
1 3/8"
  0
LINE
  8
DIMENSIONS
 62
     7
  6
CONTINUOUS
 10
0.657042
 20
2.488869
 30
0.000000
 11
1.000086
 21
2.488869
 31
0.000000
  0
LINE
  8
DIMENSIONS
 62
     7
  6
CONTINUOUS
 10
1.688998
 20
2.488869
 30
0.000000
 11
2.032042
 21
2.488869
 31
0.000000
  0
LINE
  8
DIMENSIONS
 62
     7
  6
CONTINUOUS
 10
-0.342958
 20
2.804689
 30
0.000000
 11
-0.559464
 21
2.679689
 31
0.000000
  0
LINE
  8
DIMENSIONS
 62
     7
  6
CONTINUOUS
 10
-0.342958
 20
2.804689
 30
0.000000
 11
-0.559464
 21
2.929689
 31
0.000000
  0
LINE
  8
DIMENSIONS
 62
     7
  6
CONTINUOUS
 10
-0.154958
 20
2.804689
 30
0.000000
 11
0.061548
 21
2.929689
 31
0.000000
  0
LINE
  8
DIMENSIONS
 62
     7
  6
CONTINUOUS
 10
-0.154958
 20
2.804689
 30
0.000000
 11
0.061548
 21
2.679689
 31
0.000000
  0
LINE
  8
DIMENSIONS
 62
     7
  6
CONTINUOUS
 10
-0.342958
 20
3.123000
 30
0.000000
 11
-0.342958
 21
2.554689
 31
0.000000
  0
LINE
  8
DIMENSIONS
 62
     7
  6
CONTINUOUS
 10
-0.154958
 20
2.880500
 30
0.000000
 11
-0.154958
 21
2.554689
 31
0.000000
  0
TEXT
  8
DIMENSIONS
 62
     7
 10
-1.429878
 20
2.741967
 30
0.000000
 40
0.125000
  1
3/16"
  0
LINE
  8
DIMENSIONS
 62
     7
  6
CONTINUOUS
 10
-0.342958
 20
2.804689
 30
0.000000
 11
-0.842958
 21
2.804689
 31
0.000000
  0
LINE
  8
DIMENSIONS
 62
     7
  6
CONTINUOUS
 10
-0.154958
 20
2.804689
 30
0.000000
 11
0.345042
 21
2.804689
 31
0.000000
  0
LINE
  8
DIMENSIONS
 62
     7
  6
CONTINUOUS
 10
-0.342958
 20
1.986254
 30
0.000000
 11
-0.126452
 21
2.111254
 31
0.000000
  0
LINE
  8
DIMENSIONS
 62
     7
  6
CONTINUOUS
 10
-0.342958
 20
1.986254
 30
0.000000
 11
-0.126452
 21
1.861254
 31
0.000000
  0
LINE
  8
DIMENSIONS
 62
     7
  6
CONTINUOUS
 10
2.032042
 20
1.986254
 30
0.000000
 11
1.815536
 21
1.861254
 31
0.000000
  0
LINE
  8
DIMENSIONS
 62
     7
  6
CONTINUOUS
 10
2.032042
 20
1.986254
 30
0.000000
 11
1.815536
 21
2.111254
 31
0.000000
  0
LINE
  8
DIMENSIONS
 62
     7
  6
CONTINUOUS
 10
-0.342958
 20
3.123000
 30
0.000000
 11
-0.342958
 21
1.736254
 31
0.000000
  0
LINE
  8
DIMENSIONS
 62
     7
  6
CONTINUOUS
 10
2.032042
 20
3.630500
 30
0.000000
 11
2.032042
 21
1.736254
 31
0.000000
  0
TEXT
  8
DIMENSIONS
 62
     7
 10
0.499026
 20
1.923346
 30
0.000000
 40
0.125000
  1
2 3/8"
  0
LINE
  8
DIMENSIONS
 62
     7
  6
CONTINUOUS
 10
-0.342958
 20
1.986254
 30
0.000000
 11
0.467776
 21
1.986254
 31
0.000000
  0
LINE
  8
DIMENSIONS
 62
     7
  6
CONTINUOUS
 10
1.221307
 20
1.986254
 30
0.000000
 11
2.032042
 21
1.986254
 31
0.000000
  0
LINE
  8
HUB
 62
     7
  6
CONTINUOUS
 10
2.032042
 20
5.818000
 30
0.000000
 11
2.032042
 21
3.943000
 31
0.000000
  0
LINE
  8
DIMENSIONS
 62
     7
  6
CONTINUOUS
 10
2.432546
 20
3.755500
 30
0.000000
 11
2.307546
 21
3.972006
 31
0.000000
  0
LINE
  8
DIMENSIONS
 62
     7
  6
CONTINUOUS
 10
2.432546
 20
3.755500
 30
0.000000
 11
2.557546
 21
3.972006
 31
0.000000
  0
LINE
  8
DIMENSIONS
 62
     7
  6
CONTINUOUS
 10
2.432546
 20
6.005500
 30
0.000000
 11
2.557546
 21
5.788994
 31
0.000000
  0
LINE
  8
DIMENSIONS
 62
     7
  6
CONTINUOUS
 10
2.432546
 20
6.005500
 30
0.000000
 11
2.307546
 21
5.788994
 31
0.000000
  0
LINE
  8
DIMENSIONS
 62
     7
  6
CONTINUOUS
 10
2.157042
 20
3.755500
 30
0.000000
 11
2.682546
 21
3.755500
 31
0.000000
  0
LINE
  8
DIMENSIONS
 62
     7
  6
CONTINUOUS
 10
2.157042
 20
6.005500
 30
0.000000
 11
2.682546
 21
6.005500
 31
0.000000
  0
TEXT
  8
DIMENSIONS
 62
     7
 10
2.113608
 20
4.646282
 30
0.000000
 40
0.125000
  1
2 1/4"
  0
LINE
  8
DIMENSIONS
 62
     7
  6
CONTINUOUS
 10
2.432546
 20
3.755500
 30
0.000000
 11
2.432546
 21
4.615032
 31
0.000000
  0
LINE
  8
DIMENSIONS
 62
     7
  6
CONTINUOUS
 10
2.432546
 20
4.802706
 30
0.000000
 11
2.432546
 21
6.005500
 31
0.000000
  0
LINE
  8
DIMENSIONS
 62
     7
  6
CONTINUOUS
 10
3.238433
 20
3.005500
 30
0.000000
 11
3.113433
 21
3.222006
 31
0.000000
  0
LINE
  8
DIMENSIONS
 62
     7
  6
CONTINUOUS
 10
3.238433
 20
3.005500
 30
0.000000
 11
3.363433
 21
3.222006
 31
0.000000
  0
LINE
  8
DIMENSIONS
 62
     7
  6
CONTINUOUS
 10
3.238433
 20
6.755500
 30
0.000000
 11
3.363433
 21
6.538994
 31
0.000000
  0
LINE
  8
DIMENSIONS
 62
     7
  6
CONTINUOUS
 10
3.238433
 20
6.755500
 30
0.000000
 11
3.113433
 21
6.538994
 31
0.000000
  0
LINE
  8
DIMENSIONS
 62
     7
  6
CONTINUOUS
 10
0.782042
 20
3.005500
 30
0.000000
 11
3.488433
 21
3.005500
 31
0.000000
  0
LINE
  8
DIMENSIONS
 62
     7
  6
CONTINUOUS
 10
0.782042
 20
6.755500
 30
0.000000
 11
3.488433
 21
6.755500
 31
0.000000
  0
TEXT
  8
DIMENSIONS
 62
     7
 10
2.880354
 20
5.082373
 30
0.000000
 40
0.125000
  1
3 3/4"
  0
LINE
  8
DIMENSIONS
 62
     7
  6
CONTINUOUS
 10
3.238433
 20
3.005500
 30
0.000000
 11
3.238433
 21
5.051123
 31
0.000000
  0
LINE
  8
DIMENSIONS
 62
     7
  6
CONTINUOUS
 10
3.238433
 20
5.238768
 30
0.000000
 11
3.238433
 21
6.755500
 31
0.000000
  0
LINE
  8
DIMENSIONS
 62
     7
  6
CONTINUOUS
 10
1.376534
 20
5.752449
 30
0.000000
 11
1.571368
 21
5.595797
 31
0.000000
  0
LINE
  8
DIMENSIONS
 62
     7
  6
CONTINUOUS
 10
1.376534
 20
5.752449
 30
0.000000
 11
1.338286
 21
5.505392
 31
0.000000
  0
LINE
  8
DIMENSIONS
 62
     7
  6
CONTINUOUS
 10
1.376534
 20
5.752449
 30
0.000000
 11
2.595902
 21
2.608663
 31
0.000000
  0
LINE
  8
DIMENSIONS
 62
     7
  6
CONTINUOUS
 10
2.595902
 20
2.608663
 30
0.000000
 11
2.845902
 21
2.608663
 31
0.000000
  0
TEXT
  8
DIMENSIONS
 62
     7
 10
2.908401
 20
2.546163
 30
0.000000
 40
0.125000
  1
BORE TO SUIT BUSHING
  0
LINE
  8
DIMENSIONS
 62
     7
  6
CONTINUOUS
 10
-0.264316
 20
5.392302
 30
0.000000
 11
-0.470606
 21
5.533526
 31
0.000000
  0
LINE
  8
DIMENSIONS
 62
     7
  6
CONTINUOUS
 10
-0.264316
 20
5.392302
 30
0.000000
 11
-0.245157
 21
5.641567
 31
0.000000
  0
LINE
  8
DIMENSIONS
 62
     7
  6
CONTINUOUS
 10
-0.264316
 20
5.392302
 30
0.000000
 11
-1.508040
 21
7.987587
 31
0.000000
  0
LINE
  8
DIMENSIONS
 62
     7
  6
CONTINUOUS
 10
-1.508040
 20
7.987587
 30
0.000000
 11
-1.258040
 21
7.987587
 31
0.000000
  0
TEXT
  8
DIMENSIONS
 62
     7
 10
-1.195540
 20
7.925087
 30
0.000000
 40
0.125000
  1
PILOT BEARING
  0
TEXT
  8
DIMENSIONS
 62
     7
 10
-1.195540
 20
7.737587
 30
0.000000
 40
0.125000
  1
CLEARANCE HOLE
  0
TEXT
  8
DIMENSIONS
 62
     7
 10
3.980450
 20
9.757266
 30
0.000000
 40
0.125000
  1
ELECTRO AUTOMOTIVE
  0
TEXT
  8
DIMENSIONS
 62
     7
 10
3.980450
 20
9.569766
 30
0.000000
 40
0.125000
  1
P.O. BOX 1113 FELTON CA. 95018-1113
  0
TEXT
  8
DIMENSIONS
 62
     7
 10
3.980450
 20
9.194765
 30
0.000000
 40
0.125000
  1
DRAWN BY MICHAEL P. BROWN
  0
LINE
  8
DIMENSIONS
 62
     7
  6
CONTINUOUS
 10
3.847704
 20
9.994761
 30
0.000000
 11
7.414155
 21
9.994761
 31
0.000000
  0
LINE
  8
DIMENSIONS
 62
     7
  6
CONTINUOUS
 10
7.414155
 20
9.994761
 30
0.000000
 11
7.414155
 21
9.094777
 31
0.000000
  0
LINE
  8
DIMENSIONS
 62
     7
  6
CONTINUOUS
 10
7.414155
 20
9.094777
 30
0.000000
 11
3.847704
 21
9.094777
 31
0.000000
  0
LINE
  8
DIMENSIONS
 62
     7
  6
CONTINUOUS
 10
3.847704
 20
9.094777
 30
0.000000
 11
3.847704
 21
9.994761
 31
0.000000
  0
TEXT
  8
DIMENSIONS
 62
     7
 10
3.980450
 20
9.382266
 30
0.000000
 40
0.125000
  1
PHONE 831-429-1989 FAX 831-429-1907
  0
TEXT
  8
DIMENSIONS
 62
     7
 10
3.441541
 20
8.889999
 30
0.000000
 40
0.125000
  1
88-91 FORD FESTIVA 1.3L 4CYL
  0
TEXT
  8
DIMENSIONS
 62
     7
 10
3.441541
 20
8.702499
 30
0.000000
 40
0.125000
  1
TO AN ADVANCED DC 8"MOTOR 
  0
TEXT
  8
DIMENSIONS
 62
     7
 10
3.441541
 20
8.514999
 30
0.000000
 40
0.125000
  1
HUB AND BUSHING DETAIL DRAWING
  0
TEXT
  8
DIMENSIONS
 62
     7
 10
3.441541
 20
8.327499
 30
0.000000
 40
0.125000
  1
NOTE A:  TAP 10-24 x 1" DEEP
  0
TEXT
  8
DIMENSIONS
 62
     7
 10
3.441541
 20
7.952499
 30
0.000000
 40
0.125000
  1
23/64" x 3/8" DEEP THEN BORE
  0
TEXT
  8
DIMENSIONS
 62
     7
 10
3.441541
 20
7.764999
 30
0.000000
 40
0.125000
  1
PILOT BEARING CLEARANCE HOLE
  0
TEXT
  8
DIMENSIONS
 62
     7
 10
3.441541
 20
7.577499
 30
0.000000
 40
0.125000
  1
1 17/16" DIA. x 3/16"DEEP
  0
TEXT
  8
DIMENSIONS
 62
     7
 10
3.441541
 20
7.389999
 30
0.000000
 40
0.125000
  1
NOTE C:  DRILL 11mm x 7/8" DEEP
  0
TEXT
  8
DIMENSIONS
 62
     7
 10
3.441541
 20
7.202499
 30
0.000000
 40
0.125000
  1
THEN TAP 12mm x 3/4" DEEP
  0
TEXT
  8
DIMENSIONS
 62
     7
 10
3.441541
 20
8.139999
 30
0.000000
 40
0.125000
  1
NOTE B:  DRILL 13/64" COUNTERBORE
  0
ENDSEC
  0
EOF
