  0
SECTION
  2
HEADER
  9
$ACADVER
  1
AC1015
  9
$ACADMAINTVER
 70
     6
  9
$DWGCODEPAGE
  3
ANSI_1252
  9
$INSBASE
 10
0.0
 20
0.0
 30
0.0
  9
$EXTMIN
 10
1.000000000000000E+20
 20
1.000000000000000E+20
 30
1.000000000000000E+20
  9
$EXTMAX
 10
-1.000000000000000E+20
 20
-1.000000000000000E+20
 30
-1.000000000000000E+20
  9
$LIMMIN
 10
0.0
 20
0.0
  9
$LIMMAX
 10
12.0
 20
9.0
  9
$ORTHOMODE
 70
     0
  9
$REGENMODE
 70
     1
  9
$FILLMODE
 70
     1
  9
$QTEXTMODE
 70
     0
  9
$MIRRTEXT
 70
     1
  9
$LTSCALE
 40
1.0
  9
$ATTMODE
 70
     1
  9
$TEXTSIZE
 40
0.2
  9
$TRACEWID
 40
0.05
  9
$TEXTSTYLE
  7
Standard
  9
$CLAYER
  8
0
  9
$CELTYPE
  6
ByLayer
  9
$CECOLOR
 62
   256
  9
$CELTSCALE
 40
1.0
  9
$DISPSILH
 70
     0
  9
$DIMSCALE
 40
1.0
  9
$DIMASZ
 40
0.18
  9
$DIMEXO
 40
0.0625
  9
$DIMDLI
 40
0.38
  9
$DIMRND
 40
0.0
  9
$DIMDLE
 40
0.0
  9
$DIMEXE
 40
0.18
  9
$DIMTP
 40
0.0
  9
$DIMTM
 40
0.0
  9
$DIMTXT
 40
0.18
  9
$DIMCEN
 40
0.09
  9
$DIMTSZ
 40
0.0
  9
$DIMTOL
 70
     0
  9
$DIMLIM
 70
     0
  9
$DIMTIH
 70
     1
  9
$DIMTOH
 70
     1
  9
$DIMSE1
 70
     0
  9
$DIMSE2
 70
     0
  9
$DIMTAD
 70
     0
  9
$DIMZIN
 70
     0
  9
$DIMBLK
  1

  9
$DIMASO
 70
     1
  9
$DIMSHO
 70
     1
  9
$DIMPOST
  1

  9
$DIMAPOST
  1

  9
$DIMALT
 70
     0
  9
$DIMALTD
 70
     2
  9
$DIMALTF
 40
25.4
  9
$DIMLFAC
 40
1.0
  9
$DIMTOFL
 70
     0
  9
$DIMTVP
 40
0.0
  9
$DIMTIX
 70
     0
  9
$DIMSOXD
 70
     0
  9
$DIMSAH
 70
     0
  9
$DIMBLK1
  1

  9
$DIMBLK2
  1

  9
$DIMSTYLE
  2
Standard
  9
$DIMCLRD
 70
     0
  9
$DIMCLRE
 70
     0
  9
$DIMCLRT
 70
     0
  9
$DIMTFAC
 40
1.0
  9
$DIMGAP
 40
0.09
  9
$DIMJUST
 70
     0
  9
$DIMSD1
 70
     0
  9
$DIMSD2
 70
     0
  9
$DIMTOLJ
 70
     1
  9
$DIMTZIN
 70
     0
  9
$DIMALTZ
 70
     0
  9
$DIMALTTZ
 70
     0
  9
$DIMUPT
 70
     0
  9
$DIMDEC
 70
     4
  9
$DIMTDEC
 70
     4
  9
$DIMALTU
 70
     2
  9
$DIMALTTD
 70
     2
  9
$DIMTXSTY
  7
Standard
  9
$DIMAUNIT
 70
     0
  9
$DIMADEC
 70
     0
  9
$DIMALTRND
 40
0.0
  9
$DIMAZIN
 70
     0
  9
$DIMDSEP
 70
    46
  9
$DIMATFIT
 70
     3
  9
$DIMFRAC
 70
     0
  9
$DIMLDRBLK
  1

  9
$DIMLUNIT
 70
     2
  9
$DIMLWD
 70
    -2
  9
$DIMLWE
 70
    -2
  9
$DIMTMOVE
 70
     0
  9
$LUNITS
 70
     2
  9
$LUPREC
 70
     4
  9
$SKETCHINC
 40
0.1
  9
$FILLETRAD
 40
0.5
  9
$AUNITS
 70
     0
  9
$AUPREC
 70
     0
  9
$MENU
  1
.
  9
$ELEVATION
 40
0.0
  9
$PELEVATION
 40
0.0
  9
$THICKNESS
 40
0.0
  9
$LIMCHECK
 70
     0
  9
$CHAMFERA
 40
0.5
  9
$CHAMFERB
 40
0.5
  9
$CHAMFERC
 40
1.0
  9
$CHAMFERD
 40
0.0
  9
$SKPOLY
 70
     0
  9
$TDCREATE
 40
2454621.644888102
  9
$TDUCREATE
 40
2454621.936554769
  9
$TDUPDATE
 40
2454621.644888113
  9
$TDUUPDATE
 40
2454621.93655478
  9
$TDINDWG
 40
0.0000000116
  9
$TDUSRTIMER
 40
0.0000000116
  9
$USRTIMER
 70
     1
  9
$ANGBASE
 50
0.0
  9
$ANGDIR
 70
     0
  9
$PDMODE
 70
     2
  9
$PDSIZE
 40
-2.0
  9
$PLINEWID
 40
0.0
  9
$SPLFRAME
 70
     0
  9
$SPLINETYPE
 70
     6
  9
$SPLINESEGS
 70
     8
  9
$HANDSEED
  5
EA
  9
$SURFTAB1
 70
     6
  9
$SURFTAB2
 70
     6
  9
$SURFTYPE
 70
     6
  9
$SURFU
 70
     6
  9
$SURFV
 70
     6
  9
$UCSBASE
  2

  9
$UCSNAME
  2

  9
$UCSORG
 10
0.0
 20
0.0
 30
0.0
  9
$UCSXDIR
 10
1.0
 20
0.0
 30
0.0
  9
$UCSYDIR
 10
0.0
 20
1.0
 30
0.0
  9
$UCSORTHOREF
  2

  9
$UCSORTHOVIEW
 70
     0
  9
$UCSORGTOP
 10
0.0
 20
0.0
 30
0.0
  9
$UCSORGBOTTOM
 10
0.0
 20
0.0
 30
0.0
  9
$UCSORGLEFT
 10
0.0
 20
0.0
 30
0.0
  9
$UCSORGRIGHT
 10
0.0
 20
0.0
 30
0.0
  9
$UCSORGFRONT
 10
0.0
 20
0.0
 30
0.0
  9
$UCSORGBACK
 10
0.0
 20
0.0
 30
0.0
  9
$PUCSBASE
  2

  9
$PUCSNAME
  2

  9
$PUCSORG
 10
0.0
 20
0.0
 30
0.0
  9
$PUCSXDIR
 10
1.0
 20
0.0
 30
0.0
  9
$PUCSYDIR
 10
0.0
 20
1.0
 30
0.0
  9
$PUCSORTHOREF
  2

  9
$PUCSORTHOVIEW
 70
     0
  9
$PUCSORGTOP
 10
0.0
 20
0.0
 30
0.0
  9
$PUCSORGBOTTOM
 10
0.0
 20
0.0
 30
0.0
  9
$PUCSORGLEFT
 10
0.0
 20
0.0
 30
0.0
  9
$PUCSORGRIGHT
 10
0.0
 20
0.0
 30
0.0
  9
$PUCSORGFRONT
 10
0.0
 20
0.0
 30
0.0
  9
$PUCSORGBACK
 10
0.0
 20
0.0
 30
0.0
  9
$USERI1
 70
     0
  9
$USERI2
 70
     0
  9
$USERI3
 70
     0
  9
$USERI4
 70
     0
  9
$USERI5
 70
     0
  9
$USERR1
 40
0.0
  9
$USERR2
 40
0.0
  9
$USERR3
 40
0.0
  9
$USERR4
 40
0.0
  9
$USERR5
 40
0.0
  9
$WORLDVIEW
 70
     1
  9
$SHADEDGE
 70
     3
  9
$SHADEDIF
 70
    70
  9
$TILEMODE
 70
     1
  9
$MAXACTVP
 70
    64
  9
$PINSBASE
 10
0.0
 20
0.0
 30
0.0
  9
$PLIMCHECK
 70
     0
  9
$PEXTMIN
 10
1.000000000000000E+20
 20
1.000000000000000E+20
 30
1.000000000000000E+20
  9
$PEXTMAX
 10
-1.000000000000000E+20
 20
-1.000000000000000E+20
 30
-1.000000000000000E+20
  9
$PLIMMIN
 10
0.0
 20
0.0
  9
$PLIMMAX
 10
12.0
 20
9.0
  9
$UNITMODE
 70
     0
  9
$VISRETAIN
 70
     1
  9
$PLINEGEN
 70
     0
  9
$PSLTSCALE
 70
     1
  9
$TREEDEPTH
 70
  3020
  9
$CMLSTYLE
  2
Standard
  9
$CMLJUST
 70
     0
  9
$CMLSCALE
 40
1.0
  9
$PROXYGRAPHICS
 70
     1
  9
$MEASUREMENT
 70
     0
  9
$CELWEIGHT
370
    -1
  9
$ENDCAPS
280
     0
  9
$JOINSTYLE
280
     0
  9
$LWDISPLAY
290
     1
  9
$INSUNITS
 70
     1
  9
$HYPERLINKBASE
  1

  9
$STYLESHEET
  1

  9
$XEDIT
290
     1
  9
$CEPSNTYPE
380
     0
  9
$PSTYLEMODE
290
     1
  9
$FINGERPRINTGUID
  2
{FAEB1C30-E019-11D5-929B-00C0DF256EC4}
  9
$VERSIONGUID
  2
{FAEB1C32-E019-11D5-929B-00C0DF256EC4}
  9
$EXTNAMES
290
     1
  9
$PSVPSCALE
 40
0.0
  9
$OLESTARTUP
290
     0
  0
ENDSEC
  0
SECTION
  2
CLASSES
  0
CLASS
  1
ACDBDICTIONARYWDFLT
  2
AcDbDictionaryWithDefault
  3
ObjectDBX Classes
 90
        0
280
     0
281
     0
  0
CLASS
  1
ACDBPLACEHOLDER
  2
AcDbPlaceHolder
  3
ObjectDBX Classes
 90
        0
280
     0
281
     0
  0
CLASS
  1
LAYOUT
  2
AcDbLayout
  3
ObjectDBX Classes
 90
        0
280
     0
281
     0
  0
ENDSEC
  0
SECTION
  2
TABLES
  0
TABLE
  2
VPORT
  5
8
330
0
100
AcDbSymbolTable
 70
     1
  0
VPORT
  5
29
330
8
100
AcDbSymbolTableRecord
100
AcDbViewportTableRecord
  2
*Active
 70
     0
 10
0.0
 20
0.0
 11
1.0
 21
1.0
 12
10.42990654205607
 22
4.5
 13
0.0
 23
0.0
 14
0.5
 24
0.5
 15
0.5
 25
0.5
 16
0.0
 26
0.0
 36
1.0
 17
0.0
 27
0.0
 37
0.0
 40
9.0
 41
1.972972972850329
 42
50.0
 43
0.0
 44
0.0
 50
0.0
 51
0.0
 71
     0
 72
   100
 73
     1
 74
     3
 75
     0
 76
     0
 77
     0
 78
     0
281
     0
 65
     1
110
0.0
120
0.0
130
0.0
111
1.0
121
0.0
131
0.0
112
0.0
122
1.0
132
0.0
 79
     0
146
0.0
  0
ENDTAB
  0
TABLE
  2
LTYPE
  5
5
330
0
100
AcDbSymbolTable
 70
     2
  0
LTYPE
  5
14
330
5
100
AcDbSymbolTableRecord
100
AcDbLinetypeTableRecord
  2
ByBlock
 70
     0
  3

 72
    65
 73
     0
 40
0.0
  0
LTYPE
  5
15
330
5
100
AcDbSymbolTableRecord
100
AcDbLinetypeTableRecord
  2
ByLayer
 70
     0
  3

 72
    65
 73
     0
 40
0.0
  0
LTYPE
  5
16
330
5
100
AcDbSymbolTableRecord
100
AcDbLinetypeTableRecord
  2
Continuous
 70
     0
  3
Solid line
 72
    65
 73
     0
 40
0.0
  0
LTYPE
  5
48
330
5
100
AcDbSymbolTableRecord
100
AcDbLinetypeTableRecord
  2
GC   6
 70
     0
  3
_____  _  __________  _  _____
 72
    65
 73
     4
 40
0.5
 49
0.3
 74
     0
 49
-0.075
 74
     0
 49
0.05
 74
     0
 49
-0.075
 74
     0
  0
ENDTAB
  0
TABLE
  2
LAYER
  5
2
330
0
100
AcDbSymbolTable
 70
     3
  0
LAYER
  5
10
330
2
100
AcDbSymbolTableRecord
100
AcDbLayerTableRecord
  2
0
 70
     0
 62
     7
  6
Continuous
370
    -3
390
F
  0
LAYER
  5
2B
330
2
100
AcDbSymbolTableRecord
100
AcDbLayerTableRecord
  2
PROFILE PLATE
 70
     0
 62
     7
  6
Continuous
370
    -3
390
F
  0
LAYER
  5
4B
330
2
100
AcDbSymbolTableRecord
100
AcDbLayerTableRecord
  2
DIMENSIONS
 70
     0
 62
     7
  6
Continuous
370
    -3
390
F
  0
ENDTAB
  0
TABLE
  2
STYLE
  5
3
330
0
100
AcDbSymbolTable
 70
     2
  0
STYLE
  5
11
330
3
100
AcDbSymbolTableRecord
100
AcDbTextStyleTableRecord
  2
Standard
 70
     0
 40
0.0
 41
1.0
 50
0.0
 71
     0
 42
0.2
  3
txt
  4

  0
STYLE
  5
4D
330
3
100
AcDbSymbolTableRecord
100
AcDbTextStyleTableRecord
  2
ENGINEER
 70
     0
 40
0.2
 41
1.0
 50
0.0
 71
     0
 42
0.2
  3
ENGINEER.SHX
  4

1001
ACAD
1000
ENGINEER
1071
       34
  0
ENDTAB
  0
TABLE
  2
VIEW
  5
6
330
0
100
AcDbSymbolTable
 70
     0
  0
ENDTAB
  0
TABLE
  2
UCS
  5
7
330
0
100
AcDbSymbolTable
 70
     0
  0
ENDTAB
  0
TABLE
  2
APPID
  5
9
330
0
100
AcDbSymbolTable
 70
     1
  0
APPID
  5
12
330
9
100
AcDbSymbolTableRecord
100
AcDbRegAppTableRecord
  2
ACAD
 70
     0
  0
ENDTAB
  0
TABLE
  2
DIMSTYLE
  5
A
330
0
100
AcDbSymbolTable
 70
     1
100
AcDbDimStyleTable
  0
DIMSTYLE
105
27
330
A
100
AcDbSymbolTableRecord
100
AcDbDimStyleTableRecord
  2
Standard
 70
     0
340
11
  0
ENDTAB
  0
TABLE
  2
BLOCK_RECORD
  5
1
330
0
100
AcDbSymbolTable
 70
     1
  0
BLOCK_RECORD
  5
1F
330
1
100
AcDbSymbolTableRecord
100
AcDbBlockTableRecord
  2
*Model_Space
340
22
  0
BLOCK_RECORD
  5
1B
330
1
100
AcDbSymbolTableRecord
100
AcDbBlockTableRecord
  2
*Paper_Space
340
1E
  0
BLOCK_RECORD
  5
23
330
1
100
AcDbSymbolTableRecord
100
AcDbBlockTableRecord
  2
*Paper_Space0
340
26
  0
ENDTAB
  0
ENDSEC
  0
SECTION
  2
BLOCKS
  0
BLOCK
  5
20
330
1F
100
AcDbEntity
  8
0
100
AcDbBlockBegin
  2
*Model_Space
 70
     0
 71
     0
 10
0.0
 20
0.0
 30
0.0
  3
*Model_Space
  1

  0
ENDBLK
  5
21
330
1F
100
AcDbEntity
  8
0
100
AcDbBlockEnd
  0
BLOCK
  5
1C
330
1B
100
AcDbEntity
 67
     1
  8
0
100
AcDbBlockBegin
  2
*Paper_Space
 70
     0
 71
     0
 10
0.0
 20
0.0
 30
0.0
  3
*Paper_Space
  1

  0
ENDBLK
  5
1D
330
1B
100
AcDbEntity
 67
     1
  8
0
100
AcDbBlockEnd
  0
BLOCK
  5
24
330
23
100
AcDbEntity
  8
0
100
AcDbBlockBegin
  2
*Paper_Space0
 70
     0
 71
     0
 10
0.0
 20
0.0
 30
0.0
  3
*Paper_Space0
  1

  0
ENDBLK
  5
25
330
23
100
AcDbEntity
  8
0
100
AcDbBlockEnd
  0
ENDSEC
  0
SECTION
  2
ENTITIES
  0
CIRCLE
  5
2A
330
1F
100
AcDbEntity
  8
PROFILE PLATE
  6
Continuous
 62
    93
370
    18
100
AcDbCircle
 10
-6.329824041481706
 20
0.1220026818402125
 30
0.0
 40
0.3750000000000013
  0
CIRCLE
  5
2C
330
1F
100
AcDbEntity
  8
PROFILE PLATE
  6
Continuous
 62
    93
370
    18
100
AcDbCircle
 10
6.343827321616063
 20
0.12199684332629
 30
0.0
 40
0.3749999999999995
  0
ARC
  5
2D
330
1F
100
AcDbEntity
  8
PROFILE PLATE
  6
Continuous
 62
    93
370
    18
100
AcDbCircle
 10
2.079916993055848
 20
-3.866886033922175
 30
0.0
 40
1.499999999999903
100
AcDbArc
 50
282.9674499999996
 51
299.1304910000006
  0
ARC
  5
2E
330
1F
100
AcDbEntity
  8
PROFILE PLATE
  6
Continuous
 62
    93
370
    18
100
AcDbCircle
 10
3.220037778585088
 20
7.386915869173607
 30
0.0
 40
0.6249999999999948
100
AcDbArc
 50
14.11488999999996
 51
89.97342400000041
  0
LINE
  5
2F
330
1F
100
AcDbEntity
  8
PROFILE PLATE
  6
Continuous
 62
    93
370
    18
100
AcDbLine
 10
-3.212894368073037
 20
8.014900474260024
 30
0.0
 11
3.220327939562804
 21
8.011915801818887
 31
0.0
  0
ARC
  5
30
330
1F
100
AcDbEntity
  8
PROFILE PLATE
  6
Continuous
 62
    93
370
    18
100
AcDbCircle
 10
-3.213183529050867
 20
7.389900541150483
 30
0.0
 40
0.625
100
AcDbArc
 50
89.97342399999985
 51
165.8323239999999
  0
ARC
  5
31
330
1F
100
AcDbEntity
  8
PROFILE PLATE
  6
Continuous
 62
    93
370
    18
100
AcDbCircle
 10
-6.585555995866726
 20
-4.474426088011379
 30
0.0
 40
2.51303
100
AcDbArc
 50
3.825150999999978
 51
76.41803399999998
  0
ARC
  5
32
330
1F
100
AcDbEntity
  8
PROFILE PLATE
  6
Continuous
 62
    93
370
    18
100
AcDbCircle
 10
-3.454516468714617
 20
-4.265081674235611
 30
0.0
 40
0.6250000000000036
100
AcDbArc
 50
183.8251510000003
 51
241.3904759999999
  0
LINE
  5
33
330
1F
100
AcDbEntity
  8
PROFILE PLATE
  6
Continuous
 62
    93
370
    18
100
AcDbLine
 10
-3.753790234504862
 20
-4.813771793257024
 30
0.0
 11
-2.532521354166057
 21
-5.479891848358955
 31
0.0
  0
ARC
  5
34
330
1F
100
AcDbEntity
  8
PROFILE PLATE
  6
Continuous
 62
    93
370
    18
100
AcDbCircle
 10
-1.814264917012209
 20
-4.1630371624288
 30
0.0
 40
1.500000000000048
100
AcDbArc
 50
241.3904760000004
 51
267.6125429999995
  0
LINE
  5
35
330
1F
100
AcDbEntity
  8
PROFILE PLATE
  6
Continuous
 62
    93
370
    18
100
AcDbLine
 10
-0.238902231666521
 20
-5.730021705342202
 30
0.0
 11
-1.876750705699918
 21
-5.661735314439812
 31
0.0
  0
ARC
  5
36
330
1F
100
AcDbEntity
  8
PROFILE PLATE
  6
Continuous
 62
    93
370
    18
100
AcDbCircle
 10
-0.0000000000000047
 20
0.0000000000000574
 30
0.0
 40
5.735000000000059
100
AcDbArc
 50
267.6125430000001
 51
282.9674499999999
  0
POINT
  5
37
330
1F
100
AcDbEntity
  8
PROFILE PLATE
  6
Continuous
 62
    93
370
    18
100
AcDbPoint
 10
-3.053680833124983
 20
7.486137501188586
 30
0.0
  0
POINT
  5
38
330
1F
100
AcDbEntity
  8
PROFILE PLATE
  6
Continuous
 62
    93
370
    18
100
AcDbPoint
 10
3.099341107690798
 20
7.467349912184241
 30
0.0
  0
POINT
  5
39
330
1F
100
AcDbEntity
  8
PROFILE PLATE
  6
Continuous
 62
    93
370
    18
100
AcDbPoint
 10
-5.716894933736141
 20
-1.771253079166003
 30
0.0
  0
LINE
  5
3A
330
1F
100
AcDbEntity
  8
PROFILE PLATE
  6
Continuous
 62
    93
370
    18
100
AcDbLine
 10
2.416513402030776
 20
-5.328633458880021
 30
0.0
 11
1.286919521981027
 21
-5.588744064408043
 31
0.0
  0
LINE
  5
3B
330
1F
100
AcDbEntity
  8
PROFILE PLATE
  6
Continuous
 62
    93
370
    18
100
AcDbLine
 10
2.810116768922899
 20
-5.177156175896118
 30
0.0
 11
5.67048212798114
 21
-3.583103950363775
 31
0.0
  0
LINE
  5
3C
330
1F
100
AcDbEntity
  8
PROFILE PLATE
  6
Continuous
 62
    93
370
    18
100
AcDbLine
 10
-3.819173574392626
 20
7.542875893098736
 30
0.0
 11
-4.763382161486113
 21
3.802526845989372
 31
0.0
  0
LINE
  5
3D
330
1F
100
AcDbEntity
  8
PROFILE PLATE
  6
Continuous
 62
    93
370
    18
100
AcDbLine
 10
3.826168604937302
 20
7.539333484778156
 30
0.0
 11
4.766944791954982
 21
3.798060319129132
 31
0.0
  0
LINE
  5
3E
330
1F
100
AcDbEntity
  8
PROFILE PLATE
  6
Continuous
 62
    93
370
    18
100
AcDbLine
 10
6.823067180112599
 20
-0.0205816627684926
 30
0.0
 11
5.817881502999282
 21
-3.399242361824295
 31
0.0
  0
ARC
  5
3F
330
1F
100
AcDbEntity
  8
PROFILE PLATE
  6
Continuous
 62
    93
370
    18
100
AcDbCircle
 10
5.51835684167105
 20
-3.310130295631173
 30
0.0
 40
0.3124999999999997
100
AcDbArc
 50
299.1304909999997
 51
343.4317279999999
  0
LINE
  5
40
330
1F
100
AcDbEntity
  8
PROFILE PLATE
  6
Continuous
 62
    93
370
    18
100
AcDbLine
 10
-6.800957822569304
 20
-0.0454266087815395
 30
0.0
 11
-6.176625371350968
 21
-1.802244649172663
 31
0.0
  0
ARC
  5
41
330
1F
100
AcDbEntity
  8
PROFILE PLATE
  6
Continuous
 62
    93
370
    18
100
AcDbCircle
 10
-5.747893590412688
 20
-1.649883674725466
 30
0.0
 40
0.4550000000000102
100
AcDbArc
 50
199.5640380000004
 51
237.0449049999994
  0
LINE
  5
42
330
1F
100
AcDbEntity
  8
PROFILE PLATE
  6
Continuous
 62
    93
370
    18
100
AcDbLine
 10
-6.761806198390189
 20
0.3737802599576753
 30
0.0
 11
-4.763382161486113
 21
3.802526845989372
 31
0.0
  0
ARC
  5
43
330
1F
100
AcDbEntity
  8
PROFILE PLATE
  6
Continuous
 62
    93
370
    18
100
AcDbCircle
 10
-6.329824041481706
 20
0.1220026818402118
 30
0.0
 40
0.500000000000001
100
AcDbArc
 50
149.764497
 51
199.5640379999999
  0
LINE
  5
44
330
1F
100
AcDbEntity
  8
PROFILE PLATE
  6
Continuous
 62
    93
370
    18
100
AcDbLine
 10
6.775091826560474
 20
0.3749996527831252
 30
0.0
 11
4.766944791954982
 21
3.798060319129132
 31
0.0
  0
ARC
  5
45
330
1F
100
AcDbEntity
  8
PROFILE PLATE
  6
Continuous
 62
    93
370
    18
100
AcDbCircle
 10
6.343827321616065
 20
0.1219968433262926
 30
0.0
 40
0.4999999999999973
100
AcDbArc
 50
343.4317279999996
 51
30.39812599999982
  0
CIRCLE
  5
46
330
1F
100
AcDbEntity
  8
PROFILE PLATE
  6
Continuous
 62
    93
370
    18
100
AcDbCircle
 10
0.0
 20
0.0
 30
0.0
 40
3.0
  0
CIRCLE
  5
47
330
1F
100
AcDbEntity
  8
PROFILE PLATE
  6
GC   6
 62
    93
 48
5.6941366846315
370
    18
100
AcDbCircle
 10
0.0
 20
0.0
 30
0.0
 40
3.625
  0
CIRCLE
  5
49
330
1F
100
AcDbEntity
  8
PROFILE PLATE
  6
Continuous
 62
    93
370
    18
100
AcDbCircle
 10
0.0
 20
0.0
 30
0.0
 40
4.25
  0
LINE
  5
4A
330
1F
100
AcDbEntity
  8
DIMENSIONS
  6
GC   6
 62
    93
 48
2.492854529217944
370
    18
100
AcDbLine
 10
-4.985709058435888
 20
0.0000000000000006
 30
0.0
 11
4.985709058435888
 21
0.0
 31
0.0
  0
POINT
  5
4C
330
1F
100
AcDbEntity
  8
DIMENSIONS
  6
Continuous
 62
     1
370
    18
100
AcDbPoint
 10
0.0
 20
0.0
 30
0.0
  0
TEXT
  5
4E
330
1F
100
AcDbEntity
  8
DIMENSIONS
  6
Continuous
 62
    93
370
    18
100
AcDbText
 10
-1.321523756770533
 20
7.567953696371043
 30
0.0
 40
0.25
  1
MOTOR SIDE TOP
  7
ENGINEER
100
AcDbText
  0
LINE
  5
4F
330
1F
100
AcDbEntity
  8
DIMENSIONS
  6
Continuous
 62
    93
370
    18
100
AcDbLine
 10
5.310918849236422
 20
-3.25302139207381
 30
0.0
 11
5.185919491565088
 21
-3.252620665540891
 31
0.0
  0
LINE
  5
50
330
1F
100
AcDbEntity
  8
DIMENSIONS
  6
Continuous
 62
    93
370
    18
100
AcDbLine
 10
5.310918849236422
 20
-3.25302139207381
 30
0.0
 11
5.248766212900383
 21
-3.144568407806524
 31
0.0
  0
LINE
  5
51
330
1F
100
AcDbEntity
  8
DIMENSIONS
  6
Continuous
 62
    93
370
    18
100
AcDbLine
 10
5.310918849236422
 20
-3.25302139207381
 30
0.0
 11
4.869292580548601
 21
-2.996157133755385
 31
0.0
  0
LINE
  5
52
330
1F
100
AcDbEntity
  8
DIMENSIONS
  6
Continuous
 62
    93
370
    18
100
AcDbLine
 10
4.869292580548601
 20
-2.996157133755385
 30
0.0
 11
4.744292580548601
 21
-2.996157133755385
 31
0.0
  0
TEXT
  5
53
330
1F
100
AcDbEntity
  8
DIMENSIONS
  6
Continuous
 62
    93
370
    18
100
AcDbText
 10
3.095639941009138
 20
-3.058657133755385
 30
0.0
 40
0.125
  1
DRILL 7/16 THRU
  7
ENGINEER
100
AcDbText
  0
LINE
  5
54
330
1F
100
AcDbEntity
  8
DIMENSIONS
  6
Continuous
 62
    93
370
    18
100
AcDbLine
 10
-2.935817608140436
 20
7.397655970758881
 30
0.0
 11
-2.81271167420294
 21
7.375978124247367
 31
0.0
  0
LINE
  5
55
330
1F
100
AcDbEntity
  8
DIMENSIONS
  6
Continuous
 62
    93
370
    18
100
AcDbLine
 10
-2.935817608140436
 20
7.397655970758881
 30
0.0
 11
-2.893038206949999
 21
7.280204181356643
 31
0.0
  0
LINE
  5
56
330
1F
100
AcDbEntity
  8
DIMENSIONS
  6
Continuous
 62
    93
370
    18
100
AcDbLine
 10
-2.935817608140436
 20
7.397655970758881
 30
0.0
 11
-2.566639313805562
 21
7.088022562607051
 31
0.0
  0
LINE
  5
57
330
1F
100
AcDbEntity
  8
DIMENSIONS
  6
Continuous
 62
    93
370
    18
100
AcDbLine
 10
-2.566639313805562
 20
7.088022562607051
 30
0.0
 11
-2.441639313805562
 21
7.088022562607051
 31
0.0
  0
TEXT
  5
58
330
1F
100
AcDbEntity
  8
DIMENSIONS
  6
Continuous
 62
    93
370
    18
100
AcDbText
 10
-2.378639313805562
 20
7.025522562607051
 30
0.0
 40
0.125
  1
DRILL 1/2" THRU
  7
ENGINEER
100
AcDbText
  0
LINE
  5
59
330
1F
100
AcDbEntity
  8
DIMENSIONS
  6
Continuous
 62
    93
370
    18
100
AcDbLine
 10
3.010636307408765
 20
7.352309457769848
 30
0.0
 11
2.948621439147357
 21
7.243777637023487
 31
0.0
  0
LINE
  5
5A
330
1F
100
AcDbEntity
  8
DIMENSIONS
  6
Continuous
 62
    93
370
    18
100
AcDbLine
 10
3.010636307408765
 20
7.352309457769848
 30
0.0
 11
2.885637559376525
 21
7.351750002344914
 31
0.0
  0
LINE
  5
5B
330
1F
100
AcDbEntity
  8
DIMENSIONS
  6
Continuous
 62
    93
370
    18
100
AcDbLine
 10
3.010636307408765
 20
7.352309457769848
 30
0.0
 11
2.616611993563595
 21
7.122461941360165
 31
0.0
  0
LINE
  5
5C
330
1F
100
AcDbEntity
  8
DIMENSIONS
  6
Continuous
 62
    93
370
    18
100
AcDbLine
 10
2.616611993563595
 20
7.122461941360165
 30
0.0
 11
2.491611993563595
 21
7.122461941360165
 31
0.0
  0
TEXT
  5
5D
330
1F
100
AcDbEntity
  8
DIMENSIONS
  6
Continuous
 62
    93
370
    18
100
AcDbText
 10
0.8978237308075021
 20
7.059961941360165
 30
0.0
 40
0.125
  1
DRILL 1/2" THRU
  7
ENGINEER
100
AcDbText
  0
TEXT
  5
5E
330
1F
100
AcDbEntity
  8
DIMENSIONS
  6
Continuous
 62
    93
370
    18
100
AcDbText
 10
-6.564219724092267
 20
-0.5228486360843858
 30
0.0
 40
0.125
  1
DWL "A"
  7
ENGINEER
100
AcDbText
  0
TEXT
  5
5F
330
1F
100
AcDbEntity
  8
DIMENSIONS
  6
Continuous
 62
    93
370
    18
100
AcDbText
 10
5.852628835008129
 20
-0.5099441993076401
 30
0.0
 40
0.125
  1
DWL "B"
  7
ENGINEER
100
AcDbText
  0
LINE
  5
60
330
1F
100
AcDbEntity
  8
DIMENSIONS
  6
Continuous
 62
    93
370
    18
100
AcDbLine
 10
-6.329824041481706
 20
0.3749692982379313
 30
0.0
 11
-6.221570866008651
 21
0.4374692982379313
 31
0.0
  0
LINE
  5
61
330
1F
100
AcDbEntity
  8
DIMENSIONS
  6
Continuous
 62
    93
370
    18
100
AcDbLine
 10
-6.329824041481706
 20
0.3749692982379313
 30
0.0
 11
-6.221570866008651
 21
0.3124692982379313
 31
0.0
  0
LINE
  5
62
330
1F
100
AcDbEntity
  8
DIMENSIONS
  6
Continuous
 62
    93
370
    18
100
AcDbLine
 10
6.343827321616063
 20
0.3749692982379314
 30
0.0
 11
6.235574146143008
 21
0.3124692982379314
 31
0.0
  0
LINE
  5
63
330
1F
100
AcDbEntity
  8
DIMENSIONS
  6
Continuous
 62
    93
370
    18
100
AcDbLine
 10
6.343827321616063
 20
0.3749692982379314
 30
0.0
 11
6.235574146143008
 21
0.4374692982379314
 31
0.0
  0
LINE
  5
64
330
1F
100
AcDbEntity
  8
DIMENSIONS
  6
Continuous
 62
    93
370
    18
100
AcDbLine
 10
-6.329824041481706
 20
0.1850026818402125
 30
0.0
 11
-6.329824041481706
 21
0.4379692982379313
 31
0.0
  0
LINE
  5
65
330
1F
100
AcDbEntity
  8
DIMENSIONS
  6
Continuous
 62
    93
370
    18
100
AcDbLine
 10
6.343827321616063
 20
0.18499684332629
 30
0.0
 11
6.343827321616063
 21
0.4379692982379314
 31
0.0
  0
TEXT
  5
66
330
1F
100
AcDbEntity
  8
DIMENSIONS
  6
Continuous
 62
    93
370
    18
100
AcDbText
 10
-0.3598934431333617
 20
0.3122337141972933
 30
0.0
 40
0.125
  1
12.6737"
  7
ENGINEER
100
AcDbText
  0
LINE
  5
67
330
1F
100
AcDbEntity
  8
DIMENSIONS
  6
Continuous
 62
    93
370
    18
100
AcDbLine
 10
-6.329824041481706
 20
0.3749692982379313
 30
0.0
 11
-0.3913934431333619
 21
0.3749692982379313
 31
0.0
  0
LINE
  5
68
330
1F
100
AcDbEntity
  8
DIMENSIONS
  6
Continuous
 62
    93
370
    18
100
AcDbLine
 10
0.4053967232677183
 20
0.3749692982379314
 30
0.0
 11
6.343827321616063
 21
0.3749692982379314
 31
0.0
  0
LINE
  5
69
330
1F
100
AcDbEntity
  8
DIMENSIONS
  6
Continuous
 62
    93
370
    18
100
AcDbLine
 10
-6.337861787281431
 20
-0.2950169757197984
 30
0.0
 11
-6.228424296454294
 21
-0.2346146942938426
 31
0.0
  0
LINE
  5
6A
330
1F
100
AcDbEntity
  8
DIMENSIONS
  6
Continuous
 62
    93
370
    18
100
AcDbLine
 10
-6.337861787281431
 20
-0.2950169757197984
 30
0.0
 11
-6.230833131706447
 21
-0.3595914821895474
 31
0.0
  0
LINE
  5
6B
330
1F
100
AcDbEntity
  8
DIMENSIONS
  6
Continuous
 62
    93
370
    18
100
AcDbLine
 10
-0.0080377457997236
 20
-0.4170196575600125
 30
0.0
 11
-0.1174752366268604
 21
-0.4774219389859682
 31
0.0
  0
LINE
  5
6C
330
1F
100
AcDbEntity
  8
DIMENSIONS
  6
Continuous
 62
    93
370
    18
100
AcDbLine
 10
-0.0080377457997236
 20
-0.4170196575600125
 30
0.0
 11
-0.1150664013747066
 21
-0.3524451510902634
 31
0.0
  0
LINE
  5
6D
330
1F
100
AcDbEntity
  8
DIMENSIONS
  6
Continuous
 62
    93
370
    18
100
AcDbLine
 10
-6.331038094448792
 20
0.0590143807407773
 30
0.0
 11
-6.339075840248516
 21
-0.3580052768192336
 31
0.0
  0
LINE
  5
6E
330
1F
100
AcDbEntity
  8
DIMENSIONS
  6
Continuous
 62
    93
370
    18
100
AcDbLine
 10
-0.0012140529670855
 20
-0.0629883010994352
 30
0.0
 11
-0.0092517987668091
 21
-0.4800079586594477
 31
0.0
  0
TEXT
  5
6F
330
1F
100
AcDbEntity
  8
DIMENSIONS
  6
Continuous
 62
    93
370
    18
100
AcDbText
 10
-2.879761643740696
 20
-0.4305842181500084
 30
0.0
 40
0.125
  1
6.3310"
  7
ENGINEER
100
AcDbText
  0
LINE
  5
70
330
1F
100
AcDbEntity
  8
DIMENSIONS
  6
Continuous
 62
    93
370
    18
100
AcDbLine
 10
-6.337861787281431
 20
-0.2950169757197984
 30
0.0
 11
-2.911261643740696
 21
-0.3610621618681597
 31
0.0
  0
LINE
  5
71
330
1F
100
AcDbEntity
  8
DIMENSIONS
  6
Continuous
 62
    93
370
    18
100
AcDbLine
 10
-2.213468260441382
 20
-0.3745116137920942
 30
0.0
 11
-0.0080377457997236
 21
-0.4170196575600125
 31
0.0
  0
LINE
  5
72
330
1F
100
AcDbEntity
  8
DIMENSIONS
  6
Continuous
 62
    93
370
    18
100
AcDbLine
 10
0.0079283992970739
 20
-0.4122762090076147
 30
0.0
 11
0.1149598605325907
 21
-0.3477063529926749
 31
0.0
  0
LINE
  5
73
330
1F
100
AcDbEntity
  8
DIMENSIONS
  6
Continuous
 62
    93
370
    18
100
AcDbLine
 10
0.0079283992970739
 20
-0.4122762090076147
 30
0.0
 11
0.1173632655424736
 21
-0.4726832454342718
 31
0.0
  0
LINE
  5
74
330
1F
100
AcDbEntity
  8
DIMENSIONS
  6
Continuous
 62
    93
370
    18
100
AcDbLine
 10
6.351755720913137
 20
-0.2902793656813246
 30
0.0
 11
6.244724259677621
 21
-0.3548492216962644
 31
0.0
  0
LINE
  5
75
330
1F
100
AcDbEntity
  8
DIMENSIONS
  6
Continuous
 62
    93
370
    18
100
AcDbLine
 10
6.351755720913137
 20
-0.2902793656813246
 30
0.0
 11
6.242320854667737
 21
-0.2298723292546676
 31
0.0
  0
LINE
  5
76
330
1F
100
AcDbEntity
  8
DIMENSIONS
  6
Continuous
 62
    93
370
    18
100
AcDbLine
 10
0.0012113161249809
 20
-0.0629883537905648
 30
0.0
 11
0.0091397154220546
 21
-0.4752645627981795
 31
0.0
  0
LINE
  5
77
330
1F
100
AcDbEntity
  8
DIMENSIONS
  6
Continuous
 62
    93
370
    18
100
AcDbLine
 10
6.345038637741044
 20
0.0590084895357252
 30
0.0
 11
6.352967037038118
 21
-0.3532677194718894
 31
0.0
  0
TEXT
  5
78
330
1F
100
AcDbEntity
  8
DIMENSIONS
  6
Continuous
 62
    93
370
    18
100
AcDbText
 10
2.126372784721824
 20
-0.4274967940319521
 30
0.0
 40
0.125
  1
6.3450"
  7
ENGINEER
100
AcDbText
  0
LINE
  5
79
330
1F
100
AcDbEntity
  8
DIMENSIONS
  6
Continuous
 62
    93
370
    18
100
AcDbLine
 10
0.0079283992970739
 20
-0.4122762090076147
 30
0.0
 11
2.094872784721823
 21
-0.372142609161381
 31
0.0
  0
LINE
  5
7A
330
1F
100
AcDbEntity
  8
DIMENSIONS
  6
Continuous
 62
    93
370
    18
100
AcDbLine
 10
2.872387623017752
 20
-0.3571903806244777
 30
0.0
 11
6.351755720913137
 21
-0.2902793656813246
 31
0.0
  0
TEXT
  5
7B
330
1F
100
AcDbEntity
  8
DIMENSIONS
  6
Continuous
 62
    93
370
    18
100
AcDbText
 10
-3.540873397310741
 20
6.07427427008583
 30
0.0
 40
0.2
  1
'88-'97 FORD FESTIVA
  7
ENGINEER
100
AcDbText
  0
TEXT
  5
7C
330
1F
100
AcDbEntity
  8
DIMENSIONS
  6
Continuous
 62
    93
370
    18
100
AcDbText
 10
-3.540873397310741
 20
5.77427427008583
 30
0.0
 40
0.2
  1
TRANSMISSION PROFILE PLATE
  7
ENGINEER
100
AcDbText
  0
LINE
  5
7D
330
1F
100
AcDbEntity
  8
DIMENSIONS
  6
Continuous
 62
   133
370
    18
100
AcDbLine
 10
0.0
 20
0.0
 30
0.0
 11
0.0000000562030082
 21
0.1219997658087499
 31
0.0
  0
CIRCLE
  5
7E
330
1F
100
AcDbEntity
  8
PROFILE PLATE
  6
Continuous
 62
    93
370
    18
100
AcDbCircle
 10
-3.053680833124983
 20
7.486137501188586
 30
0.0
 40
0.2499999999999997
  0
CIRCLE
  5
7F
330
1F
100
AcDbEntity
  8
PROFILE PLATE
  6
Continuous
 62
    93
370
    18
100
AcDbCircle
 10
3.099341107690798
 20
7.467349912184241
 30
0.0
 40
0.25
  0
CIRCLE
  5
80
330
1F
100
AcDbEntity
  8
PROFILE PLATE
  6
Continuous
 62
    93
370
    18
100
AcDbCircle
 10
-5.716894933736141
 20
-1.771253079166003
 30
0.0
 40
0.2189999999999999
  0
CIRCLE
  5
81
330
1F
100
AcDbEntity
  8
PROFILE PLATE
  6
Continuous
 62
    93
370
    18
100
AcDbCircle
 10
5.518356841671049
 20
-3.310130295631174
 30
0.0
 40
0.2189999999999998
  0
POINT
  5
82
330
1F
100
AcDbEntity
  8
PROFILE PLATE
  6
Continuous
 62
    93
370
    18
100
AcDbPoint
 10
-3.625
 20
0.0000000000000005
 30
0.0
  0
CIRCLE
  5
83
330
1F
100
AcDbEntity
  8
PROFILE PLATE
  6
Continuous
 62
    93
370
    18
100
AcDbCircle
 10
-3.625
 20
0.0000000000000005
 30
0.0
 40
0.2650000000000001
  0
POINT
  5
84
330
1F
100
AcDbEntity
  8
PROFILE PLATE
  6
Continuous
 62
    93
370
    18
100
AcDbPoint
 10
0.0000000000000012
 20
3.625
 30
0.0
  0
CIRCLE
  5
85
330
1F
100
AcDbEntity
  8
PROFILE PLATE
  6
Continuous
 62
    93
370
    18
100
AcDbCircle
 10
0.0000000000000012
 20
3.625
 30
0.0
 40
0.2650000000000001
  0
POINT
  5
86
330
1F
100
AcDbEntity
  8
PROFILE PLATE
  6
Continuous
 62
    93
370
    18
100
AcDbPoint
 10
-0.0000000000000006
 20
-3.624999999999999
 30
0.0
  0
CIRCLE
  5
87
330
1F
100
AcDbEntity
  8
PROFILE PLATE
  6
Continuous
 62
    93
370
    18
100
AcDbCircle
 10
-0.0000000000000006
 20
-3.624999999999999
 30
0.0
 40
0.265
  0
POINT
  5
88
330
1F
100
AcDbEntity
  8
PROFILE PLATE
  6
Continuous
 62
    93
370
    18
100
AcDbPoint
 10
3.624999999999999
 20
0.0000000000000001
 30
0.0
  0
CIRCLE
  5
89
330
1F
100
AcDbEntity
  8
PROFILE PLATE
  6
Continuous
 62
    93
370
    18
100
AcDbCircle
 10
3.624999999999999
 20
0.0000000000000001
 30
0.0
 40
0.265
  0
LINE
  5
8A
330
1F
100
AcDbEntity
  8
DIMENSIONS
  6
Continuous
 62
    93
370
    18
100
AcDbLine
 10
-5.572573746102248
 20
-1.580185477468252
 30
0.0
 11
-5.560144253079911
 21
-1.455804981797879
 31
0.0
  0
LINE
  5
8B
330
1F
100
AcDbEntity
  8
DIMENSIONS
  6
Continuous
 62
    93
370
    18
100
AcDbLine
 10
-5.572573746102248
 20
-1.580185477468252
 30
0.0
 11
-5.458642329115298
 21
-1.528759489647444
 31
0.0
  0
LINE
  5
8C
330
1F
100
AcDbEntity
  8
DIMENSIONS
  6
Continuous
 62
    93
370
    18
100
AcDbLine
 10
-5.572573746102248
 20
-1.580185477468252
 30
0.0
 11
-5.357651365415774
 21
-1.281163034774028
 31
0.0
  0
LINE
  5
8D
330
1F
100
AcDbEntity
  8
DIMENSIONS
  6
Continuous
 62
    93
370
    18
100
AcDbLine
 10
-5.357651365415774
 20
-1.281163034774028
 30
0.0
 11
-5.232651365415774
 21
-1.281163034774028
 31
0.0
  0
TEXT
  5
8E
330
1F
100
AcDbEntity
  8
DIMENSIONS
  6
Continuous
 62
    93
370
    18
100
AcDbText
 10
-5.169651365415774
 20
-1.343663034774028
 30
0.0
 40
0.125
  1
DRILL 7/16" 
  7
ENGINEER
100
AcDbText
  0
TEXT
  5
8F
330
1F
100
AcDbEntity
  8
DIMENSIONS
  6
Continuous
 62
    93
370
    18
100
AcDbText
 10
-5.169651365415774
 20
-1.531163034774028
 30
0.0
 40
0.125
  1
THRU
  7
ENGINEER
100
AcDbText
  0
POINT
  5
90
330
1F
100
AcDbEntity
  8
PROFILE PLATE
  6
Continuous
 62
    93
370
    18
100
AcDbPoint
 10
-5.716894933736141
 20
-1.771253079166003
 30
0.0
  0
POINT
  5
91
330
1F
100
AcDbEntity
  8
PROFILE PLATE
  6
Continuous
 62
    93
370
    18
100
AcDbPoint
 10
-3.053680833124983
 20
7.486137501188586
 30
0.0
  0
POINT
  5
92
330
1F
100
AcDbEntity
  8
PROFILE PLATE
  6
Continuous
 62
    93
370
    18
100
AcDbPoint
 10
3.099341107690798
 20
7.467349912184241
 30
0.0
  0
POINT
  5
93
330
1F
100
AcDbEntity
  8
PROFILE PLATE
  6
Continuous
 62
    93
370
    18
100
AcDbPoint
 10
-6.329824041481706
 20
0.1220026818402125
 30
0.0
  0
POINT
  5
94
330
1F
100
AcDbEntity
  8
PROFILE PLATE
  6
Continuous
 62
    93
370
    18
100
AcDbPoint
 10
6.343827321616063
 20
0.12199684332629
 30
0.0
  0
POINT
  5
95
330
1F
100
AcDbEntity
  8
PROFILE PLATE
  6
Continuous
 62
    93
370
    18
100
AcDbPoint
 10
5.518356841671049
 20
-3.310130295631174
 30
0.0
  0
CIRCLE
  5
96
330
1F
100
AcDbEntity
  8
DIMENSIONS
  6
Continuous
 62
    93
370
    18
100
AcDbCircle
 10
0.0
 20
0.0
 30
0.0
 40
0.295
  0
POINT
  5
97
330
1F
100
AcDbEntity
  8
PROFILE PLATE
  6
Continuous
 62
    93
370
    18
100
AcDbPoint
 10
0.0
 20
0.0
 30
0.0
  0
LINE
  5
98
330
1F
100
AcDbEntity
  8
DIMENSIONS
  6
Continuous
 62
    93
370
    18
100
AcDbLine
 10
2.905685907256783
 20
0.788025281687093
 30
0.0
 11
3.010326664061253
 21
0.9584668024952214
 31
0.0
  0
LINE
  5
99
330
1F
100
AcDbEntity
  8
DIMENSIONS
  6
Continuous
 62
    93
370
    18
100
AcDbLine
 10
2.905685907256783
 20
0.788025281687093
 30
0.0
 11
3.081528221324748
 21
0.8833115901643511
 31
0.0
  0
LINE
  5
9A
330
1F
100
AcDbEntity
  8
DIMENSIONS
  6
Continuous
 62
    93
370
    18
100
AcDbLine
 10
2.905685907256783
 20
0.788025281687093
 30
0.0
 11
3.954649489190644
 21
1.781806527591522
 31
0.0
  0
LINE
  5
9B
330
1F
100
AcDbEntity
  8
DIMENSIONS
  6
Continuous
 62
    93
370
    18
100
AcDbLine
 10
3.954649489190644
 20
1.781806527591522
 30
0.0
 11
4.204649489190644
 21
1.781806527591522
 31
0.0
  0
TEXT
  5
9C
330
1F
100
AcDbEntity
  8
DIMENSIONS
  6
Continuous
 62
    93
370
    18
100
AcDbText
 10
4.267149489190644
 20
1.719306527591522
 30
0.0
 40
0.125
  1
HUB CUTOUT
  7
ENGINEER
100
AcDbText
  0
TEXT
  5
9D
330
1F
100
AcDbEntity
  8
DIMENSIONS
  6
Continuous
 62
    93
370
    18
100
AcDbText
 10
4.267149489190644
 20
1.531806527591522
 30
0.0
 40
0.125
  1
6" DIA. THRU
  7
ENGINEER
100
AcDbText
  0
LINE
  5
9E
330
1F
100
AcDbEntity
  8
DIMENSIONS
  6
Continuous
 62
    93
370
    18
100
AcDbLine
 10
0.1521352215712915
 20
3.88025102679106
 30
0.0
 11
0.1912187387845311
 21
4.076395052145498
 31
0.0
  0
LINE
  5
9F
330
1F
100
AcDbEntity
  8
DIMENSIONS
  6
Continuous
 62
    93
370
    18
100
AcDbLine
 10
0.1521352215712915
 20
3.88025102679106
 30
0.0
 11
0.2840545530244224
 21
4.030574976941923
 31
0.0
  0
LINE
  5
A0
330
1F
100
AcDbEntity
  8
DIMENSIONS
  6
Continuous
 62
    93
370
    18
100
AcDbLine
 10
0.1521352215712915
 20
3.88025102679106
 30
0.0
 11
0.8105737863457914
 21
5.214309952190121
 31
0.0
  0
LINE
  5
A1
330
1F
100
AcDbEntity
  8
DIMENSIONS
  6
Continuous
 62
    93
370
    18
100
AcDbLine
 10
0.8105737863457914
 20
5.214309952190121
 30
0.0
 11
1.060573786345791
 21
5.214309952190121
 31
0.0
  0
TEXT
  5
A2
330
1F
100
AcDbEntity
  8
DIMENSIONS
  6
Continuous
 62
    93
370
    18
100
AcDbText
 10
1.123073786345791
 20
5.151809952190121
 30
0.0
 40
0.125
  1
(4) DRILL 17/32" THRU 
  7
ENGINEER
100
AcDbText
  0
TEXT
  5
A3
330
1F
100
AcDbEntity
  8
DIMENSIONS
  6
Continuous
 62
    93
370
    18
100
AcDbText
 10
1.123073786345791
 20
4.964309952190121
 30
0.0
 40
0.125
  1
EQUALLY SPACED ON A
  7
ENGINEER
100
AcDbText
  0
TEXT
  5
A4
330
1F
100
AcDbEntity
  8
DIMENSIONS
  6
Continuous
 62
    93
370
    18
100
AcDbText
 10
1.123073786345791
 20
4.776809952190121
 30
0.0
 40
0.125
  1
7.250" DIA BOLT CIRCLE
  7
ENGINEER
100
AcDbText
  0
TEXT
  5
A5
330
1F
100
AcDbEntity
  8
DIMENSIONS
  6
Continuous
 62
    93
370
    18
100
AcDbText
 10
1.123073786345791
 20
4.589309952190121
 30
0.0
 40
0.125
  1
AS SHOWN
  7
ENGINEER
100
AcDbText
  0
LINE
  5
A6
330
1F
100
AcDbEntity
  8
DIMENSIONS
  6
Continuous
 62
    93
370
    18
100
AcDbLine
 10
6.188512748157109
 20
0.4871637432503551
 30
0.0
 11
6.092442600484926
 21
0.5671357804023811
 31
0.0
  0
LINE
  5
A7
330
1F
100
AcDbEntity
  8
DIMENSIONS
  6
Continuous
 62
    93
370
    18
100
AcDbLine
 10
6.188512748157109
 20
0.4871637432503551
 30
0.0
 11
6.209735490087065
 21
0.6103489502558006
 31
0.0
  0
LINE
  5
A8
330
1F
100
AcDbEntity
  8
DIMENSIONS
  6
Continuous
 62
    93
370
    18
100
AcDbLine
 10
6.188512748157109
 20
0.4871637432503551
 30
0.0
 11
6.037755296160108
 21
0.8963625415279288
 31
0.0
  0
LINE
  5
A9
330
1F
100
AcDbEntity
  8
DIMENSIONS
  6
Continuous
 62
    93
370
    18
100
AcDbLine
 10
6.037755296160108
 20
0.8963625415279288
 30
0.0
 11
5.912755296160108
 21
0.8963625415279288
 31
0.0
  0
TEXT
  5
AA
330
1F
100
AcDbEntity
  8
DIMENSIONS
  6
Continuous
 62
    93
370
    18
100
AcDbText
 10
4.468150091872192
 20
0.8338625415279288
 30
0.0
 40
0.125
  1
BORE .750 DIA
  7
ENGINEER
100
AcDbText
  0
TEXT
  5
AB
330
1F
100
AcDbEntity
  8
DIMENSIONS
  6
Continuous
 62
    93
370
    18
100
AcDbText
 10
4.468150091872192
 20
0.6463625415279288
 30
0.0
 40
0.125
  1
TO SUIT .749
  7
ENGINEER
100
AcDbText
  0
TEXT
  5
AC
330
1F
100
AcDbEntity
  8
DIMENSIONS
  6
Continuous
 62
    93
370
    18
100
AcDbText
 10
4.468150091872192
 20
0.4588625415279288
 30
0.0
 40
0.125
  1
DWL SLEEVE
  7
ENGINEER
100
AcDbText
  0
LINE
  5
AD
330
1F
100
AcDbEntity
  8
DIMENSIONS
  6
Continuous
 62
    93
370
    18
100
AcDbLine
 10
-6.117938634923938
 20
0.4711410625178023
 30
0.0
 11
-6.109308177968956
 21
0.5958427674490028
 31
0.0
  0
LINE
  5
AE
330
1F
100
AcDbEntity
  8
DIMENSIONS
  6
Continuous
 62
    93
370
    18
100
AcDbLine
 10
-6.117938634923938
 20
0.4711410625178023
 30
0.0
 11
-6.005628562080796
 21
0.5260177200141197
 31
0.0
  0
LINE
  5
AF
330
1F
100
AcDbEntity
  8
DIMENSIONS
  6
Continuous
 62
    93
370
    18
100
AcDbLine
 10
-6.117938634923938
 20
0.4711410625178023
 30
0.0
 11
-5.783227818047691
 21
0.9681359118188961
 31
0.0
  0
LINE
  5
B0
330
1F
100
AcDbEntity
  8
DIMENSIONS
  6
Continuous
 62
    93
370
    18
100
AcDbLine
 10
-5.783227818047691
 20
0.9681359118188961
 30
0.0
 11
-5.658227818047691
 21
0.9681359118188961
 31
0.0
  0
TEXT
  5
B1
330
1F
100
AcDbEntity
  8
DIMENSIONS
  6
Continuous
 62
    93
370
    18
100
AcDbText
 10
-5.595227818047691
 20
0.9056359118188961
 30
0.0
 40
0.125
  1
BORE .750 DIA 
  7
ENGINEER
100
AcDbText
  0
TEXT
  5
B2
330
1F
100
AcDbEntity
  8
DIMENSIONS
  6
Continuous
 62
    93
370
    18
100
AcDbText
 10
-5.595227818047691
 20
0.7181359118188961
 30
0.0
 40
0.125
  1
TO SUIT .749 
  7
ENGINEER
100
AcDbText
  0
TEXT
  5
B3
330
1F
100
AcDbEntity
  8
DIMENSIONS
  6
Continuous
 62
    93
370
    18
100
AcDbText
 10
-5.595227818047691
 20
0.5306359118188961
 30
0.0
 40
0.125
  1
DWL SLEEVE 
  7
ENGINEER
100
AcDbText
  0
LINE
  5
B4
330
1F
100
AcDbEntity
  8
DIMENSIONS
  6
Continuous
 62
    93
370
    18
100
AcDbLine
 10
0.2353417412233609
 20
-0.2086822116589318
 30
0.0
 11
0.3515376700052679
 21
-0.2547637278504592
 31
0.0
  0
LINE
  5
B5
330
1F
100
AcDbEntity
  8
DIMENSIONS
  6
Continuous
 62
    93
370
    18
100
AcDbLine
 10
0.2353417412233609
 20
-0.2086822116589318
 30
0.0
 11
0.2535319419475476
 21
-0.3323515958961543
 31
0.0
  0
LINE
  5
B6
330
1F
100
AcDbEntity
  8
DIMENSIONS
  6
Continuous
 62
    93
370
    18
100
AcDbLine
 10
0.2353417412233609
 20
-0.2086822116589318
 30
0.0
 11
0.697697406196526
 21
-0.7927104200460882
 31
0.0
  0
LINE
  5
B7
330
1F
100
AcDbEntity
  8
DIMENSIONS
  6
Continuous
 62
    93
370
    18
100
AcDbLine
 10
0.697697406196526
 20
-0.7927104200460882
 30
0.0
 11
0.822697406196526
 21
-0.7927104200460882
 31
0.0
  0
TEXT
  5
B8
330
1F
100
AcDbEntity
  8
DIMENSIONS
  6
Continuous
 62
    93
370
    18
100
AcDbText
 10
0.8856974061965259
 20
-0.8552104200460882
 30
0.0
 40
0.125
  1
MAINSHAFT SHOWN
  7
ENGINEER
100
AcDbText
  0
TEXT
  5
B9
330
1F
100
AcDbEntity
  8
DIMENSIONS
  6
Continuous
 62
    93
370
    18
100
AcDbText
 10
0.8856974061965259
 20
-1.042710420046088
 30
0.0
 40
0.125
  1
FOR REFERENCE.
  7
ENGINEER
100
AcDbText
  0
TEXT
  5
BA
330
1F
100
AcDbEntity
  8
DIMENSIONS
  6
Continuous
 62
    93
370
    18
100
AcDbText
 10
0.8856974061965259
 20
-1.230210420046088
 30
0.0
 40
0.125
  1
  (.590 DIA)
  7
ENGINEER
100
AcDbText
  0
LINE
  5
BB
330
1F
100
AcDbEntity
  8
DIMENSIONS
  6
Continuous
 62
    93
370
    18
100
AcDbLine
 10
-6.329824041481706
 20
0.1220026818402125
 30
0.0
 11
6.343827321616063
 21
0.12199684332629
 31
0.0
  0
LINE
  5
BC
330
1F
100
AcDbEntity
  8
DIMENSIONS
  6
Continuous
 62
    93
370
    18
100
AcDbLine
 10
6.343827321616063
 20
0.12199684332629
 30
0.0
 11
0.0
 21
0.0
 31
0.0
  0
LINE
  5
BD
330
1F
100
AcDbEntity
  8
DIMENSIONS
  6
Continuous
 62
    93
370
    18
100
AcDbLine
 10
0.0
 20
0.0
 30
0.0
 11
-6.329824041481706
 21
0.1220026818402125
 31
0.0
  0
LINE
  5
BE
330
1F
100
AcDbEntity
  8
DIMENSIONS
  6
Continuous
 62
    93
370
    18
100
AcDbLine
 10
0.0
 20
0.0
 30
0.0
 11
0.0000000562030082
 21
0.1219997658087499
 31
0.0
  0
LINE
  5
BF
330
1F
100
AcDbEntity
  8
DIMENSIONS
  6
GC   6
 62
    93
 48
2.680177264608973
370
    18
100
AcDbLine
 10
0.0000000000000015
 20
4.985709058435888
 30
0.0
 11
-0.00000000000001
 21
-5.735000000000001
 31
0.0
  0
POINT
  5
C0
330
1F
100
AcDbEntity
  8
DIMENSIONS
  6
Continuous
 62
    93
370
    18
100
AcDbPoint
 10
-0.00000000000001
 20
-5.735000000000002
 30
0.0
  0
LINE
  5
C1
330
1F
100
AcDbEntity
  8
DIMENSIONS
  6
Continuous
 62
    93
370
    18
100
AcDbLine
 10
-8.367837611717597
 20
-5.735000000000002
 30
0.0
 11
-8.400189992355413
 21
-5.614259271713869
 31
0.0
  0
LINE
  5
C2
330
1F
100
AcDbEntity
  8
DIMENSIONS
  6
Continuous
 62
    93
370
    18
100
AcDbLine
 10
-8.367837611717597
 20
-5.735000000000002
 30
0.0
 11
-8.335485231079781
 21
-5.614259271713869
 31
0.0
  0
LINE
  5
C3
330
1F
100
AcDbEntity
  8
DIMENSIONS
  6
Continuous
 62
    93
370
    18
100
AcDbLine
 10
-8.367837611717595
 20
8.014900474260024
 30
0.0
 11
-8.33548523107978
 21
7.894159745973891
 31
0.0
  0
LINE
  5
C4
330
1F
100
AcDbEntity
  8
DIMENSIONS
  6
Continuous
 62
    93
370
    18
100
AcDbLine
 10
-8.367837611717595
 20
8.014900474260024
 30
0.0
 11
-8.400189992355411
 21
7.894159745973891
 31
0.0
  0
LINE
  5
C5
330
1F
100
AcDbEntity
  8
DIMENSIONS
  6
Continuous
 62
    93
370
    18
100
AcDbLine
 10
-0.06300000000001
 20
-5.735000000000002
 30
0.0
 11
-8.430837611717598
 21
-5.735000000000001
 31
0.0
  0
LINE
  5
C6
330
1F
100
AcDbEntity
  8
DIMENSIONS
  6
Continuous
 62
    93
370
    18
100
AcDbLine
 10
-3.275894368073037
 20
8.014900474260024
 30
0.0
 11
-8.430837611717594
 21
8.014900474260024
 31
0.0
  0
TEXT
  5
C7
330
1F
100
AcDbEntity
  8
DIMENSIONS
  6
Continuous
 62
    93
370
    18
100
AcDbText
 10
-8.704041494793684
 20
1.07737758651861
 30
0.0
 40
0.125
  1
13 3/4"
  7
ENGINEER
100
AcDbText
  0
LINE
  5
C8
330
1F
100
AcDbEntity
  8
DIMENSIONS
  6
Continuous
 62
    93
370
    18
100
AcDbLine
 10
-8.367837611717597
 20
-5.735000000000002
 30
0.0
 11
-8.367837611717597
 21
1.045877586518611
 31
0.0
  0
LINE
  5
C9
330
1F
100
AcDbEntity
  8
DIMENSIONS
  6
Continuous
 62
    93
370
    18
100
AcDbLine
 10
-8.367837611717595
 20
1.234022887741411
 30
0.0
 11
-8.367837611717595
 21
8.014900474260024
 31
0.0
  0
POINT
  5
CA
330
1F
100
AcDbEntity
  8
DIMENSIONS
  6
Continuous
 62
    93
370
    18
100
AcDbPoint
 10
6.843827321616062
 20
0.12199684332629
 30
0.0
  0
POINT
  5
CB
330
1F
100
AcDbEntity
  8
DIMENSIONS
  6
Continuous
 62
    93
370
    18
100
AcDbPoint
 10
-6.829824041481706
 20
0.1220026818402125
 30
0.0
  0
LINE
  5
CC
330
1F
100
AcDbEntity
  8
DIMENSIONS
  6
Continuous
 62
    93
370
    18
100
AcDbLine
 10
-6.829824041481706
 20
-4.709673059119909
 30
0.0
 11
-6.709083313195573
 21
-4.677320678482094
 31
0.0
  0
LINE
  5
CD
330
1F
100
AcDbEntity
  8
DIMENSIONS
  6
Continuous
 62
    93
370
    18
100
AcDbLine
 10
-6.829824041481706
 20
-4.709673059119909
 30
0.0
 11
-6.709083313195573
 21
-4.742025439757724
 31
0.0
  0
LINE
  5
CE
330
1F
100
AcDbEntity
  8
DIMENSIONS
  6
Continuous
 62
    93
370
    18
100
AcDbLine
 10
6.843827321616062
 20
-4.70967305911991
 30
0.0
 11
6.723086593329929
 21
-4.742025439757725
 31
0.0
  0
LINE
  5
CF
330
1F
100
AcDbEntity
  8
DIMENSIONS
  6
Continuous
 62
    93
370
    18
100
AcDbLine
 10
6.843827321616062
 20
-4.70967305911991
 30
0.0
 11
6.723086593329929
 21
-4.677320678482095
 31
0.0
  0
LINE
  5
D0
330
1F
100
AcDbEntity
  8
DIMENSIONS
  6
Continuous
 62
    93
370
    18
100
AcDbLine
 10
-6.829824041481706
 20
0.0590026818402125
 30
0.0
 11
-6.829824041481707
 21
-4.772673059119909
 31
0.0
  0
LINE
  5
D1
330
1F
100
AcDbEntity
  8
DIMENSIONS
  6
Continuous
 62
    93
370
    18
100
AcDbLine
 10
6.843827321616062
 20
0.05899684332629
 30
0.0
 11
6.843827321616061
 21
-4.77267305911991
 31
0.0
  0
TEXT
  5
D2
330
1F
100
AcDbEntity
  8
DIMENSIONS
  6
Continuous
 62
    93
370
    18
100
AcDbText
 10
0.2695622291356786
 20
-4.772394464298219
 30
0.0
 40
0.125
  1
13 11/16"
  7
ENGINEER
100
AcDbText
  0
LINE
  5
D3
330
1F
100
AcDbEntity
  8
DIMENSIONS
  6
Continuous
 62
    93
370
    18
100
AcDbLine
 10
-6.829824041481706
 20
-4.709673059119909
 30
0.0
 11
0.2380622291356778
 21
-4.70967305911991
 31
0.0
  0
LINE
  5
D4
330
1F
100
AcDbEntity
  8
DIMENSIONS
  6
Continuous
 62
    93
370
    18
100
AcDbLine
 10
1.013369936821655
 20
-4.70967305911991
 30
0.0
 11
6.843827321616062
 21
-4.70967305911991
 31
0.0
  0
TEXT
  5
D5
330
1F
100
AcDbEntity
  8
DIMENSIONS
  6
Continuous
 62
    93
370
    18
100
AcDbText
 10
0.4024685162166612
 20
-4.96570576672565
 30
0.0
 40
0.125
  1
(REF)
  7
ENGINEER
100
AcDbText
  0
TEXT
  5
D6
330
1F
100
AcDbEntity
  8
DIMENSIONS
  6
Continuous
 62
    93
370
    18
100
AcDbText
 10
-7.890671103322151
 20
1.0793972824876
 30
0.0
 40
0.125
  1
(REF)
  7
ENGINEER
100
AcDbText
  0
TEXT
  5
D7
330
1F
100
AcDbEntity
  8
DIMENSIONS
  6
Continuous
 62
    93
370
    18
100
AcDbText
 10
4.930014275226403
 20
7.756329096234793
 30
0.0
 40
0.1250000000000001
  1
ELECTRO AUTOMOTIVE
 41
0.9999999999999991
  7
ENGINEER
100
AcDbText
  0
TEXT
  5
D8
330
1F
100
AcDbEntity
  8
DIMENSIONS
  6
Continuous
 62
    93
370
    18
100
AcDbText
 10
4.930014275226403
 20
7.568829096234793
 30
0.0
 40
0.1250000000000001
  1
P.O. BOX 1113 FELTON CA. 95018-1113
 41
0.9999999999999991
  7
ENGINEER
100
AcDbText
  0
LINE
  5
D9
330
1F
100
AcDbEntity
  8
DIMENSIONS
  6
Continuous
 62
    93
370
    18
100
AcDbLine
 10
4.797267936382104
 20
7.993824518598074
 30
0.0
 11
8.363719128284265
 21
7.993824518598074
 31
0.0
  0
LINE
  5
DA
330
1F
100
AcDbEntity
  8
DIMENSIONS
  6
Continuous
 62
    93
370
    18
100
AcDbLine
 10
8.363719128284265
 20
7.993824518598074
 30
0.0
 11
8.363719128284265
 21
7.093840158856863
 31
0.0
  0
LINE
  5
DB
330
1F
100
AcDbEntity
  8
DIMENSIONS
  6
Continuous
 62
    93
370
    18
100
AcDbLine
 10
8.363719128284265
 20
7.093840158856863
 30
0.0
 11
4.797267936382104
 21
7.093840158856863
 31
0.0
  0
LINE
  5
DC
330
1F
100
AcDbEntity
  8
DIMENSIONS
  6
Continuous
 62
    93
370
    18
100
AcDbLine
 10
4.797267936382104
 20
7.093840158856863
 30
0.0
 11
4.797267936382104
 21
7.993824518598074
 31
0.0
  0
TEXT
  5
DD
330
1F
100
AcDbEntity
  8
DIMENSIONS
  6
Continuous
 62
    93
370
    18
100
AcDbText
 10
4.930014275226403
 20
7.381329096234793
 30
0.0
 40
0.1250000000000001
  1
PHONE 831-429-1989 FAX 831-429-1907
 41
0.9999999999999991
  7
ENGINEER
100
AcDbText
  0
TEXT
  5
DE
330
1F
100
AcDbEntity
  8
DIMENSIONS
  6
Continuous
 62
    93
370
    18
100
AcDbText
 10
4.930014275226403
 20
7.193829096234793
 30
0.0
 40
0.125
  1
DRAWN BY MARTIN RATTAY
  7
ENGINEER
100
AcDbText
  0
TEXT
  5
DF
330
1F
100
AcDbEntity
  8
DIMENSIONS
  6
Continuous
 62
    93
370
    18
100
AcDbText
 10
4.931477165754447
 20
6.796576416037253
 30
0.0
 40
0.125
  1
TRANSMISSION PROFILE PLATE 
  7
ENGINEER
100
AcDbText
  0
TEXT
  5
E0
330
1F
100
AcDbEntity
  8
DIMENSIONS
  6
Continuous
 62
    93
370
    18
100
AcDbText
 10
4.931477165754447
 20
6.609076416037253
 30
0.0
 40
0.125
  1
'88 - '97 FORD FESTIVA TO AN
  7
ENGINEER
100
AcDbText
  0
TEXT
  5
E1
330
1F
100
AcDbEntity
  8
DIMENSIONS
  6
Continuous
 62
    93
370
    18
100
AcDbText
 10
4.931477165754447
 20
6.421576416037253
 30
0.0
 40
0.125
  1
ADVANCED DC 8" MOTOR.
  7
ENGINEER
100
AcDbText
  0
LINE
  5
E2
330
1F
100
AcDbEntity
  8
DIMENSIONS
  6
Continuous
 62
    93
370
    18
100
AcDbLine
 10
2.397021846182943
 20
3.537542593782661
 30
0.0
 11
2.420949834020769
 21
3.660231025992192
 31
0.0
  0
LINE
  5
E3
330
1F
100
AcDbEntity
  8
DIMENSIONS
  6
Continuous
 62
    93
370
    18
100
AcDbLine
 10
2.397021846182943
 20
3.537542593782661
 30
0.0
 11
2.515237140322714
 21
3.578164561133435
 31
0.0
  0
LINE
  5
E4
330
1F
100
AcDbEntity
  8
DIMENSIONS
  6
Continuous
 62
    93
370
    18
100
AcDbLine
 10
2.397021846182943
 20
3.537542593782661
 30
0.0
 11
2.713544875063758
 21
3.90120031715443
 31
0.0
  0
LINE
  5
E5
330
1F
100
AcDbEntity
  8
DIMENSIONS
  6
Continuous
 62
    93
370
    18
100
AcDbLine
 10
2.713544875063758
 20
3.90120031715443
 30
0.0
 11
2.838544875063758
 21
3.90120031715443
 31
0.0
  0
TEXT
  5
E6
330
1F
100
AcDbEntity
  8
DIMENSIONS
  6
Continuous
 62
    93
370
    18
100
AcDbText
 10
2.901544875063758
 20
3.83870031715443
 30
0.0
 40
0.125
  1
RING RECESS
  7
ENGINEER
100
AcDbText
  0
TEXT
  5
E7
330
1F
100
AcDbEntity
  8
DIMENSIONS
  6
Continuous
 62
    93
370
    18
100
AcDbText
 10
2.901544875063758
 20
3.65120031715443
 30
0.0
 40
0.125
  1
AS PER 
  7
ENGINEER
100
AcDbText
  0
TEXT
  5
E8
330
1F
100
AcDbEntity
  8
DIMENSIONS
  6
Continuous
 62
    93
370
    18
100
AcDbText
 10
2.901544875063758
 20
3.46370031715443
 30
0.0
 40
0.125
  1
STANDARD MOTOR
  7
ENGINEER
100
AcDbText
  0
TEXT
  5
E9
330
1F
100
AcDbEntity
  8
DIMENSIONS
  6
Continuous
 62
    93
370
    18
100
AcDbText
 10
2.901544875063758
 20
3.27620031715443
 30
0.0
 40
0.125
  1
RING DWG.
  7
ENGINEER
100
AcDbText
  0
ENDSEC
  0
SECTION
  2
OBJECTS
  0
DICTIONARY
  5
C
330
0
100
AcDbDictionary
281
     1
  3
ACAD_GROUP
350
D
  3
ACAD_LAYOUT
350
1A
  3
ACAD_MLINESTYLE
350
17
  3
ACAD_PLOTSETTINGS
350
19
  3
ACAD_PLOTSTYLENAME
350
E
  0
DICTIONARY
  5
D
102
{ACAD_REACTORS
330
C
102
}
330
C
100
AcDbDictionary
281
     1
  0
DICTIONARY
  5
1A
102
{ACAD_REACTORS
330
C
102
}
330
C
100
AcDbDictionary
281
     1
  3
Layout1
350
1E
  3
Layout2
350
26
  3
Model
350
22
  0
DICTIONARY
  5
17
102
{ACAD_REACTORS
330
C
102
}
330
C
100
AcDbDictionary
281
     1
  3
Standard
350
18
  0
DICTIONARY
  5
19
102
{ACAD_REACTORS
330
C
102
}
330
C
100
AcDbDictionary
281
     1
  0
ACDBDICTIONARYWDFLT
  5
E
102
{ACAD_REACTORS
330
C
102
}
330
C
100
AcDbDictionary
281
     1
  3
Normal
350
F
100
AcDbDictionaryWithDefault
340
F
  0
LAYOUT
  5
1E
102
{ACAD_REACTORS
330
1A
102
}
330
1A
100
AcDbPlotSettings
  1

  2

  4

  6

 40
0.0
 41
0.0
 42
0.0
 43
0.0
 44
0.0
 45
0.0
 46
0.0
 47
0.0
 48
0.0
 49
0.0
140
0.0
141
0.0
142
1.0
143
1.0
 70
   688
 72
     0
 73
     0
 74
     5
  7

 75
    16
147
1.0
148
0.0
149
0.0
100
AcDbLayout
  1
Layout1
 70
     1
 71
     1
 10
0.0
 20
0.0
 11
12.0
 21
9.0
 12
0.0
 22
0.0
 32
0.0
 14
1.000000000000000E+20
 24
1.000000000000000E+20
 34
1.000000000000000E+20
 15
-1.000000000000000E+20
 25
-1.000000000000000E+20
 35
-1.000000000000000E+20
146
0.0
 13
0.0
 23
0.0
 33
0.0
 16
1.0
 26
0.0
 36
0.0
 17
0.0
 27
1.0
 37
0.0
 76
     0
330
1B
  0
LAYOUT
  5
26
102
{ACAD_REACTORS
330
1A
102
}
330
1A
100
AcDbPlotSettings
  1

  2

  4

  6

 40
0.0
 41
0.0
 42
0.0
 43
0.0
 44
0.0
 45
0.0
 46
0.0
 47
0.0
 48
0.0
 49
0.0
140
0.0
141
0.0
142
1.0
143
1.0
 70
   688
 72
     0
 73
     0
 74
     5
  7

 75
    16
147
1.0
148
0.0
149
0.0
100
AcDbLayout
  1
Layout2
 70
     1
 71
     2
 10
0.0
 20
0.0
 11
0.0
 21
0.0
 12
0.0
 22
0.0
 32
0.0
 14
0.0
 24
0.0
 34
0.0
 15
0.0
 25
0.0
 35
0.0
146
0.0
 13
0.0
 23
0.0
 33
0.0
 16
1.0
 26
0.0
 36
0.0
 17
0.0
 27
1.0
 37
0.0
 76
     0
330
23
  0
LAYOUT
  5
22
102
{ACAD_REACTORS
330
1A
102
}
330
1A
100
AcDbPlotSettings
  1

  2

  4

  6

 40
0.0
 41
0.0
 42
0.0
 43
0.0
 44
0.0
 45
0.0
 46
0.0
 47
0.0
 48
0.0
 49
0.0
140
0.0
141
0.0
142
1.0
143
1.0
 70
  1712
 72
     0
 73
     0
 74
     0
  7

 75
     0
147
1.0
148
0.0
149
0.0
100
AcDbLayout
  1
Model
 70
     1
 71
     0
 10
0.0
 20
0.0
 11
0.0
 21
0.0
 12
0.0
 22
0.0
 32
0.0
 14
0.0
 24
0.0
 34
0.0
 15
0.0
 25
0.0
 35
0.0
146
0.0
 13
0.0
 23
0.0
 33
0.0
 16
1.0
 26
0.0
 36
0.0
 17
0.0
 27
1.0
 37
0.0
 76
     0
330
1F
  0
MLINESTYLE
  5
18
102
{ACAD_REACTORS
330
17
102
}
330
17
100
AcDbMlineStyle
  2
Standard
 70
     0
  3

 62
   256
 51
90.0
 52
90.0
 71
     2
 49
0.5
 62
   256
  6
BYLAYER
 49
-0.5
 62
   256
  6
BYLAYER
  0
ACDBPLACEHOLDER
  5
F
102
{ACAD_REACTORS
330
E
102
}
330
E
  0
ENDSEC
  0
EOF
