  0
SECTION
  2
HEADER
  9
$ACADVER
  1
AC1014
  9
$ACADMAINTVER
 70
     9
  9
$DWGCODEPAGE
  3
ANSI_1252
  9
$INSBASE
 10
0.0
 20
0.0
 30
0.0
  9
$EXTMIN
 10
1.000000000000000E+20
 20
1.000000000000000E+20
 30
1.000000000000000E+20
  9
$EXTMAX
 10
-1.000000000000000E+20
 20
-1.000000000000000E+20
 30
-1.000000000000000E+20
  9
$LIMMIN
 10
0.0
 20
0.0
  9
$LIMMAX
 10
12.0
 20
9.0
  9
$ORTHOMODE
 70
     0
  9
$REGENMODE
 70
     1
  9
$FILLMODE
 70
     1
  9
$QTEXTMODE
 70
     0
  9
$MIRRTEXT
 70
     1
  9
$DRAGMODE
 70
     2
  9
$LTSCALE
 40
1.0
  9
$OSMODE
 70
    37
  9
$ATTMODE
 70
     1
  9
$TEXTSIZE
 40
0.2
  9
$TRACEWID
 40
0.05
  9
$TEXTSTYLE
  7
STANDARD
  9
$CLAYER
  8
0
  9
$CELTYPE
  6
BYLAYER
  9
$CECOLOR
 62
   256
  9
$CELTSCALE
 40
1.0
  9
$DELOBJ
 70
     1
  9
$DISPSILH
 70
     0
  9
$DIMSCALE
 40
1.0
  9
$DIMASZ
 40
0.18
  9
$DIMEXO
 40
0.0625
  9
$DIMDLI
 40
0.38
  9
$DIMRND
 40
0.0
  9
$DIMDLE
 40
0.0
  9
$DIMEXE
 40
0.18
  9
$DIMTP
 40
0.0
  9
$DIMTM
 40
0.0
  9
$DIMTXT
 40
0.18
  9
$DIMCEN
 40
0.09
  9
$DIMTSZ
 40
0.0
  9
$DIMTOL
 70
     0
  9
$DIMLIM
 70
     0
  9
$DIMTIH
 70
     1
  9
$DIMTOH
 70
     1
  9
$DIMSE1
 70
     0
  9
$DIMSE2
 70
     0
  9
$DIMTAD
 70
     0
  9
$DIMZIN
 70
     0
  9
$DIMBLK
  1

  9
$DIMASO
 70
     1
  9
$DIMSHO
 70
     1
  9
$DIMPOST
  1

  9
$DIMAPOST
  1

  9
$DIMALT
 70
     0
  9
$DIMALTD
 70
     2
  9
$DIMALTF
 40
25.4
  9
$DIMLFAC
 40
1.0
  9
$DIMTOFL
 70
     0
  9
$DIMTVP
 40
0.0
  9
$DIMTIX
 70
     0
  9
$DIMSOXD
 70
     0
  9
$DIMSAH
 70
     0
  9
$DIMBLK1
  1

  9
$DIMBLK2
  1

  9
$DIMSTYLE
  2
STANDARD
  9
$DIMCLRD
 70
     0
  9
$DIMCLRE
 70
     0
  9
$DIMCLRT
 70
     0
  9
$DIMTFAC
 40
1.0
  9
$DIMGAP
 40
0.09
  9
$DIMJUST
 70
     0
  9
$DIMSD1
 70
     0
  9
$DIMSD2
 70
     0
  9
$DIMTOLJ
 70
     1
  9
$DIMTZIN
 70
     0
  9
$DIMALTZ
 70
     0
  9
$DIMALTTZ
 70
     0
  9
$DIMFIT
 70
     3
  9
$DIMUPT
 70
     0
  9
$DIMUNIT
 70
     2
  9
$DIMDEC
 70
     4
  9
$DIMTDEC
 70
     4
  9
$DIMALTU
 70
     2
  9
$DIMALTTD
 70
     2
  9
$DIMTXSTY
  7
STANDARD
  9
$DIMAUNIT
 70
     0
  9
$LUNITS
 70
     2
  9
$LUPREC
 70
     3
  9
$SKETCHINC
 40
0.1
  9
$FILLETRAD
 40
0.5
  9
$AUNITS
 70
     0
  9
$AUPREC
 70
     0
  9
$MENU
  1
.
  9
$ELEVATION
 40
0.0
  9
$PELEVATION
 40
0.0
  9
$THICKNESS
 40
0.0
  9
$LIMCHECK
 70
     0
  9
$CHAMFERA
 40
0.5
  9
$CHAMFERB
 40
0.5
  9
$CHAMFERC
 40
1.0
  9
$CHAMFERD
 40
0.0
  9
$SKPOLY
 70
     0
  9
$TDCREATE
 40
2455012.573056088
  9
$TDUPDATE
 40
2455012.573056099
  9
$TDINDWG
 40
0.0000000116
  9
$TDUSRTIMER
 40
0.0000000116
  9
$USRTIMER
 70
     1
  9
$ANGBASE
 50
0.0
  9
$ANGDIR
 70
     0
  9
$PDMODE
 70
     2
  9
$PDSIZE
 40
-2.0
  9
$PLINEWID
 40
0.0
  9
$COORDS
 70
     1
  9
$SPLFRAME
 70
     0
  9
$SPLINETYPE
 70
     6
  9
$SPLINESEGS
 70
     8
  9
$ATTDIA
 70
     0
  9
$ATTREQ
 70
     1
  9
$HANDLING
 70
     1
  9
$HANDSEED
  5
326
  9
$SURFTAB1
 70
     6
  9
$SURFTAB2
 70
     6
  9
$SURFTYPE
 70
     6
  9
$SURFU
 70
     6
  9
$SURFV
 70
     6
  9
$UCSNAME
  2

  9
$UCSORG
 10
0.0
 20
0.0
 30
0.0
  9
$UCSXDIR
 10
1.0
 20
0.0
 30
0.0
  9
$UCSYDIR
 10
0.0
 20
1.0
 30
0.0
  9
$PUCSNAME
  2

  9
$PUCSORG
 10
0.0
 20
0.0
 30
0.0
  9
$PUCSXDIR
 10
1.0
 20
0.0
 30
0.0
  9
$PUCSYDIR
 10
0.0
 20
1.0
 30
0.0
  9
$USERI1
 70
     0
  9
$USERI2
 70
     0
  9
$USERI3
 70
     0
  9
$USERI4
 70
     0
  9
$USERI5
 70
     0
  9
$USERR1
 40
0.0
  9
$USERR2
 40
0.0
  9
$USERR3
 40
0.0
  9
$USERR4
 40
0.0
  9
$USERR5
 40
0.0
  9
$WORLDVIEW
 70
     1
  9
$SHADEDGE
 70
     3
  9
$SHADEDIF
 70
    70
  9
$TILEMODE
 70
     1
  9
$MAXACTVP
 70
    64
  9
$PINSBASE
 10
0.0
 20
0.0
 30
0.0
  9
$PLIMCHECK
 70
     0
  9
$PEXTMIN
 10
1.000000000000000E+20
 20
1.000000000000000E+20
 30
1.000000000000000E+20
  9
$PEXTMAX
 10
-1.000000000000000E+20
 20
-1.000000000000000E+20
 30
-1.000000000000000E+20
  9
$PLIMMIN
 10
0.0
 20
0.0
  9
$PLIMMAX
 10
12.0
 20
9.0
  9
$UNITMODE
 70
     0
  9
$VISRETAIN
 70
     1
  9
$PLINEGEN
 70
     0
  9
$PSLTSCALE
 70
     1
  9
$TREEDEPTH
 70
  3020
  9
$PICKSTYLE
 70
     1
  9
$CMLSTYLE
  2
STANDARD
  9
$CMLJUST
 70
     0
  9
$CMLSCALE
 40
1.0
  9
$PROXYGRAPHICS
 70
     1
  9
$MEASUREMENT
 70
     0
  0
ENDSEC
  0
SECTION
  2
CLASSES
  0
CLASS
  1
ACDBDICTIONARYWDFLT
  2
AcDbDictionaryWithDefault
  3
ObjectDBX Classes
 90
        0
280
     0
281
     0
  0
CLASS
  1
VISUALSTYLE
  2
AcDbVisualStyle
  3
ObjectDBX Classes
 90
     4095
280
     0
281
     0
  0
CLASS
  1
SCALE
  2
AcDbScale
  3
ObjectDBX Classes
 90
     1153
280
     0
281
     0
  0
CLASS
  1
DICTIONARYVAR
  2
AcDbDictionaryVar
  3
ObjectDBX Classes
 90
        0
280
     0
281
     0
  0
CLASS
  1
XRECORD
  2
AcDbXrecord
  3
AutoCAD 2000
 90
        0
280
     0
281
     0
  0
CLASS
  1
LWPOLYLINE
  2
AcDbPolyline
  3
AutoCAD 2000
 90
        0
280
     0
281
     1
  0
CLASS
  1
HATCH
  2
AcDbHatch
  3
AutoCAD 2000
 90
        0
280
     0
281
     1
  0
CLASS
  1
ACDBPLACEHOLDER
  2
AcDbPlaceHolder
  3
ObjectDBX Classes
 90
        0
280
     0
281
     0
  0
CLASS
  1
LAYOUT
  2
AcDbLayout
  3
ObjectDBX Classes
 90
        0
280
     0
281
     0
  0
ENDSEC
  0
SECTION
  2
TABLES
  0
TABLE
  2
VPORT
  5
8
330
0
100
AcDbSymbolTable
 70
     1
  0
VPORT
  5
29
330
8
100
AcDbSymbolTableRecord
100
AcDbViewportTableRecord
  2
*ACTIVE
 70
     0
 10
0.0
 20
0.0
 11
1.0
 21
1.0
 12
21.86588682480444
 22
15.28029907205627
 13
0.0
 23
0.0
 14
0.5
 24
0.5
 15
0.5
 25
0.5
 16
0.0
 26
0.0
 36
1.0
 17
0.0
 27
0.0
 37
0.0
 40
34.97678160979336
 41
1.296110256616261
 42
50.0
 43
0.0
 44
0.0
 50
0.0
 51
0.0
 71
     0
 72
   100
 73
     1
 74
     3
 75
     0
 76
     0
 77
     0
 78
     0
  0
ENDTAB
  0
TABLE
  2
LTYPE
  5
5
330
0
100
AcDbSymbolTable
 70
     2
  0
LTYPE
  5
14
330
5
100
AcDbSymbolTableRecord
100
AcDbLinetypeTableRecord
  2
BYBLOCK
 70
     0
  3

 72
    65
 73
     0
 40
0.0
  0
LTYPE
  5
15
330
5
100
AcDbSymbolTableRecord
100
AcDbLinetypeTableRecord
  2
BYLAYER
 70
     0
  3

 72
    65
 73
     0
 40
0.0
  0
LTYPE
  5
16
330
5
100
AcDbSymbolTableRecord
100
AcDbLinetypeTableRecord
  2
CONTINUOUS
 70
     0
  3
Solid line
 72
    65
 73
     0
 40
0.0
  0
LTYPE
  5
6C
330
5
100
AcDbSymbolTableRecord
100
AcDbLinetypeTableRecord
  2
CENTERD
 70
     0
  3
_____ _ _____ _____ _ _____.
 72
    65
 73
     4
 40
0.4844
 49
0.2969
 74
     0
 49
-0.0625
 74
     0
 49
0.0625
 74
     0
 49
-0.0625
 74
     0
  0
ENDTAB
  0
TABLE
  2
LAYER
  5
2
330
0
100
AcDbSymbolTable
 70
     6
  0
LAYER
  5
10
330
2
100
AcDbSymbolTableRecord
100
AcDbLayerTableRecord
  2
0
 70
     0
 62
     7
  6
CONTINUOUS
  0
LAYER
  5
3C
330
2
100
AcDbSymbolTableRecord
100
AcDbLayerTableRecord
  2
ADAPTER_PLATE
 70
     0
 62
     7
  6
CONTINUOUS
  0
LAYER
  5
4F
330
2
100
AcDbSymbolTableRecord
100
AcDbLayerTableRecord
  2
TRANS_HOLE_SIZES
 70
     0
 62
     7
  6
CONTINUOUS
  0
LAYER
  5
5B
330
2
100
AcDbSymbolTableRecord
100
AcDbLayerTableRecord
  2
ADAPTER_PLT_HOLES
 70
     0
 62
     7
  6
CONTINUOUS
  0
LAYER
  5
6B
330
2
100
AcDbSymbolTableRecord
100
AcDbLayerTableRecord
  2
CENTERLINES
 70
     0
 62
     7
  6
CONTINUOUS
  0
LAYER
  5
A7
330
2
100
AcDbSymbolTableRecord
100
AcDbLayerTableRecord
  2
DIMENSIONS
 70
     0
 62
     7
  6
CONTINUOUS
  0
ENDTAB
  0
TABLE
  2
STYLE
  5
3
330
0
100
AcDbSymbolTable
 70
     4
  0
STYLE
  5
11
330
3
100
AcDbSymbolTableRecord
100
AcDbTextStyleTableRecord
  2
STANDARD
 70
     0
 40
0.0
 41
1.0
 50
0.0
 71
     0
 42
0.2
  3
txt
  4

  0
STYLE
  5
A9
330
3
100
AcDbSymbolTableRecord
100
AcDbTextStyleTableRecord
  2
ENGINEER
 70
     0
 40
0.2
 41
1.0
 50
0.0
 71
     0
 42
0.2
  3
ENGINEER.SHX
  4

1001
ACAD
1000
ENGINEER
1071
       34
  0
STYLE
  5
D6
330
3
100
AcDbSymbolTableRecord
100
AcDbTextStyleTableRecord
  2
AEC_TECH
 70
     0
 40
0.2
 41
1.0
 50
0.0
 71
     0
 42
0.2
  3
AEC_TECH.SHX
  4

1001
ACAD
1000
AEC_TECH
1071
       34
  0
STYLE
  5
DC
330
3
100
AcDbSymbolTableRecord
100
AcDbTextStyleTableRecord
  2
MAIN
 70
     0
 40
0.2
 41
1.0
 50
0.0
 71
     0
 42
0.2
  3
MAIN.SHX
  4

1001
ACAD
1000
MAIN
1071
       34
  0
ENDTAB
  0
TABLE
  2
VIEW
  5
6
330
0
100
AcDbSymbolTable
 70
     0
  0
ENDTAB
  0
TABLE
  2
UCS
  5
7
330
0
100
AcDbSymbolTable
 70
     0
  0
ENDTAB
  0
TABLE
  2
APPID
  5
9
330
0
100
AcDbSymbolTable
 70
     1
  0
APPID
  5
12
330
9
100
AcDbSymbolTableRecord
100
AcDbRegAppTableRecord
  2
ACAD
 70
     0
  0
ENDTAB
  0
TABLE
  2
DIMSTYLE
  5
A
330
0
100
AcDbSymbolTable
 70
     1
  0
DIMSTYLE
105
27
330
A
100
AcDbSymbolTableRecord
100
AcDbDimStyleTableRecord
  2
STANDARD
 70
     0
  3

  4

  5

  6

  7

 40
1.0
 41
0.18
 42
0.0625
 43
0.38
 44
0.18
 45
0.0
 46
0.0
 47
0.0
 48
0.0
140
0.18
141
0.09
142
0.0
143
25.4
144
1.0
145
0.0
146
1.0
147
0.09
 71
     0
 72
     0
 73
     1
 74
     1
 75
     0
 76
     0
 77
     0
 78
     0
170
     0
171
     2
172
     0
173
     0
174
     0
175
     0
176
     0
177
     0
178
     0
270
     2
271
     4
272
     4
273
     2
274
     2
340
11
275
     0
280
     0
281
     0
282
     0
283
     1
284
     0
285
     0
286
     0
287
     3
288
     0
  0
ENDTAB
  0
TABLE
  2
BLOCK_RECORD
  5
1
330
0
100
AcDbSymbolTable
 70
     1
  0
BLOCK_RECORD
  5
1F
330
1
100
AcDbSymbolTableRecord
100
AcDbBlockTableRecord
  2
*MODEL_SPACE
  0
BLOCK_RECORD
  5
1B
330
1
100
AcDbSymbolTableRecord
100
AcDbBlockTableRecord
  2
*PAPER_SPACE
  0
ENDTAB
  0
ENDSEC
  0
SECTION
  2
BLOCKS
  0
BLOCK
  5
20
330
1F
100
AcDbEntity
  8
0
100
AcDbBlockBegin
  2
*MODEL_SPACE
 70
     0
 10
0.0
 20
0.0
 30
0.0
  3
*MODEL_SPACE
  1

  0
ENDBLK
  5
21
330
1F
100
AcDbEntity
  8
0
100
AcDbBlockEnd
  0
BLOCK
  5
1C
330
1B
100
AcDbEntity
 67
     1
  8
0
100
AcDbBlockBegin
  2
*PAPER_SPACE
 70
     0
 10
0.0
 20
0.0
 30
0.0
  3
*PAPER_SPACE
  1

  0
ENDBLK
  5
1D
330
1B
100
AcDbEntity
 67
     1
  8
0
100
AcDbBlockEnd
  0
ENDSEC
  0
SECTION
  2
ENTITIES
  0
LINE
  5
3B
330
1F
100
AcDbEntity
  8
ADAPTER_PLATE
  6
CONTINUOUS
 62
     3
100
AcDbLine
 10
42.15501814939408
 20
22.30261576322164
 30
0.0
 11
39.50103039883193
 21
16.30502139777804
 31
0.0
  0
LINE
  5
3D
330
1F
100
AcDbEntity
  8
ADAPTER_PLATE
  6
CONTINUOUS
 62
     3
100
AcDbLine
 10
27.55808552130226
 20
24.12164512777755
 30
0.0
 11
30.90441790244584
 21
16.30502139777804
 31
0.0
  0
LINE
  5
3E
330
1F
100
AcDbEntity
  8
ADAPTER_PLATE
  6
CONTINUOUS
 62
     3
100
AcDbLine
 10
27.55808552130226
 20
28.23596901115884
 30
0.0
 11
27.55808552130226
 21
24.12164512777755
 31
0.0
  0
LINE
  5
3F
330
1F
100
AcDbEntity
  8
ADAPTER_PLATE
  6
CONTINUOUS
 62
     3
100
AcDbLine
 10
32.65451127419334
 20
30.53654991528522
 30
0.0
 11
27.55808552130226
 21
28.23596901115884
 31
0.0
  0
LINE
  5
40
330
1F
100
AcDbEntity
  8
ADAPTER_PLATE
  6
CONTINUOUS
 62
     3
100
AcDbLine
 10
42.15501814939408
 20
24.74734072404286
 30
0.0
 11
38.71105375777111
 21
30.53654991528522
 31
0.0
  0
LINE
  5
41
330
1F
100
AcDbEntity
  8
ADAPTER_PLATE
  6
CONTINUOUS
 62
     3
100
AcDbLine
 10
32.65451127419334
 20
30.53654991528522
 30
0.0
 11
38.71105375777111
 21
30.53654991528522
 31
0.0
  0
LINE
  5
42
330
1F
100
AcDbEntity
  8
ADAPTER_PLATE
  6
CONTINUOUS
 62
     3
100
AcDbLine
 10
42.15501814939408
 20
24.74734072404286
 30
0.0
 11
42.15501814939408
 21
22.30261576322164
 31
0.0
  0
LINE
  5
43
330
1F
100
AcDbEntity
  8
ADAPTER_PLATE
  6
CONTINUOUS
 62
     3
100
AcDbLine
 10
30.90441790244584
 20
16.30502139777804
 30
0.0
 11
39.50103039883193
 21
16.30502139777804
 31
0.0
  0
CIRCLE
  5
44
330
1F
100
AcDbEntity
  8
ADAPTER_PLATE
  6
CONTINUOUS
 62
     3
100
AcDbCircle
 10
35.24158770806658
 20
22.81782330345711
 30
0.0
 40
4.25
  0
CIRCLE
  5
45
330
1F
100
AcDbEntity
  8
ADAPTER_PLATE
  6
CONTINUOUS
 62
     3
100
AcDbCircle
 10
35.24158770806658
 20
22.81782330345711
 30
0.0
 40
3.0
  0
CIRCLE
  5
46
330
1F
100
AcDbEntity
  8
ADAPTER_PLATE
  6
CONTINUOUS
 62
     3
100
AcDbCircle
 10
35.24158770806658
 20
26.44282330345711
 30
0.0
 40
0.2654999999999959
  0
CIRCLE
  5
47
330
1F
100
AcDbEntity
  8
ADAPTER_PLATE
  6
CONTINUOUS
 62
     3
100
AcDbCircle
 10
32.67832562626535
 20
25.38108538525834
 30
0.0
 40
0.2655000000000012
  0
CIRCLE
  5
48
330
1F
100
AcDbEntity
  8
ADAPTER_PLATE
  6
CONTINUOUS
 62
     3
100
AcDbCircle
 10
31.61658770806658
 20
22.81782330345711
 30
0.0
 40
0.2654999999999994
  0
CIRCLE
  5
49
330
1F
100
AcDbEntity
  8
ADAPTER_PLATE
  6
CONTINUOUS
 62
     3
100
AcDbCircle
 10
32.67832562626535
 20
20.25456122165587
 30
0.0
 40
0.2655000000000012
  0
CIRCLE
  5
4A
330
1F
100
AcDbEntity
  8
ADAPTER_PLATE
  6
CONTINUOUS
 62
     3
100
AcDbCircle
 10
35.24158770806658
 20
19.1928233034571
 30
0.0
 40
0.2654999999999959
  0
CIRCLE
  5
4B
330
1F
100
AcDbEntity
  8
ADAPTER_PLATE
  6
CONTINUOUS
 62
     3
100
AcDbCircle
 10
37.80484978986782
 20
20.25456122165587
 30
0.0
 40
0.2655000000000037
  0
CIRCLE
  5
4C
330
1F
100
AcDbEntity
  8
ADAPTER_PLATE
  6
CONTINUOUS
 62
     3
100
AcDbCircle
 10
38.86658770806658
 20
22.81782330345711
 30
0.0
 40
0.265500000000003
  0
CIRCLE
  5
4D
330
1F
100
AcDbEntity
  8
ADAPTER_PLATE
  6
CONTINUOUS
 62
     3
100
AcDbCircle
 10
37.80484978986782
 20
25.38108538525834
 30
0.0
 40
0.2655000000000012
  0
CIRCLE
  5
4E
330
1F
100
AcDbEntity
  8
TRANS_HOLE_SIZES
  6
CONTINUOUS
 62
   173
100
AcDbCircle
 10
29.05619905422869
 20
23.08926496505639
 30
0.0
 40
0.2120000000000016
  0
CIRCLE
  5
50
330
1F
100
AcDbEntity
  8
TRANS_HOLE_SIZES
  6
CONTINUOUS
 62
   173
100
AcDbCircle
 10
38.47157529760533
 20
29.94386095122687
 30
0.0
 40
0.2095000000000028
  0
CIRCLE
  5
51
330
1F
100
AcDbEntity
  8
TRANS_HOLE_SIZES
  6
CONTINUOUS
 62
   173
100
AcDbCircle
 10
41.42860541536945
 20
23.04235514426902
 30
0.0
 40
0.2145000000000005
  0
CIRCLE
  5
52
330
1F
100
AcDbEntity
  8
TRANS_HOLE_SIZES
  6
CONTINUOUS
 62
   173
100
AcDbCircle
 10
39.08641406943178
 20
17.35720498435202
 30
0.0
 40
0.1559999999999923
  0
CIRCLE
  5
53
330
1F
100
AcDbEntity
  8
TRANS_HOLE_SIZES
  6
CONTINUOUS
 62
   173
100
AcDbCircle
 10
28.5737003990839
 20
24.36425294263523
 30
0.0
 40
0.1875
  0
CIRCLE
  5
54
330
1F
100
AcDbEntity
  8
TRANS_HOLE_SIZES
  6
CONTINUOUS
 62
   173
100
AcDbCircle
 10
31.54552467416366
 20
28.87411657442488
 30
0.0
 40
0.1875
  0
CIRCLE
  5
55
330
1F
100
AcDbEntity
  8
TRANS_HOLE_SIZES
  6
CONTINUOUS
 62
   173
100
AcDbCircle
 10
32.9105576345855
 20
29.95141601969857
 30
0.0
 40
0.2209999999999971
  0
CIRCLE
  5
56
330
1F
100
AcDbEntity
  8
TRANS_HOLE_SIZES
  6
CONTINUOUS
 62
   173
100
AcDbCircle
 10
34.42186994123478
 20
30.05075503293701
 30
0.0
 40
0.1875
  0
CIRCLE
  5
57
330
1F
100
AcDbEntity
  8
TRANS_HOLE_SIZES
  6
CONTINUOUS
 62
   173
100
AcDbCircle
 10
31.38330210824632
 20
17.36960766484356
 30
0.0
 40
0.1559999999999993
  0
CIRCLE
  5
58
330
1F
100
AcDbEntity
  8
TRANS_HOLE_SIZES
  6
CONTINUOUS
 62
   173
100
AcDbCircle
 10
41.09608742849164
 20
25.46810188131828
 30
0.0
 40
0.1875
  0
CIRCLE
  5
59
330
1F
100
AcDbEntity
  8
TRANS_HOLE_SIZES
  6
CONTINUOUS
 62
   173
100
AcDbCircle
 10
32.75783600281476
 20
16.77341090208919
 30
0.0
 40
0.1875
  0
CIRCLE
  5
5A
330
1F
100
AcDbEntity
  8
ADAPTER_PLT_HOLES
  6
CONTINUOUS
 62
     3
100
AcDbCircle
 10
32.9105576345855
 20
29.95141601969857
 30
0.0
 40
0.25
  0
CIRCLE
  5
5C
330
1F
100
AcDbEntity
  8
ADAPTER_PLT_HOLES
  6
CONTINUOUS
 62
     3
100
AcDbCircle
 10
31.54552467416366
 20
28.87411657442488
 30
0.0
 40
0.2184999999999988
  0
CIRCLE
  5
5D
330
1F
100
AcDbEntity
  8
ADAPTER_PLT_HOLES
  6
CONTINUOUS
 62
     3
100
AcDbCircle
 10
28.5737003990839
 20
24.36425294263523
 30
0.0
 40
0.2184999999999988
  0
CIRCLE
  5
5E
330
1F
100
AcDbEntity
  8
ADAPTER_PLT_HOLES
  6
CONTINUOUS
 62
     3
100
AcDbCircle
 10
29.05619905422869
 20
23.08926496505639
 30
0.0
 40
0.2109999999999985
  0
CIRCLE
  5
5F
330
1F
100
AcDbEntity
  8
ADAPTER_PLT_HOLES
  6
CONTINUOUS
 62
     3
100
AcDbCircle
 10
31.38330210824632
 20
17.36960766484356
 30
0.0
 40
0.1875
  0
CIRCLE
  5
60
330
1F
100
AcDbEntity
  8
ADAPTER_PLT_HOLES
  6
CONTINUOUS
 62
     3
100
AcDbCircle
 10
39.08641406943178
 20
17.35720498435202
 30
0.0
 40
0.1875
  0
CIRCLE
  5
61
330
1F
100
AcDbEntity
  8
ADAPTER_PLT_HOLES
  6
CONTINUOUS
 62
     3
100
AcDbCircle
 10
32.75783600281476
 20
16.77341090208919
 30
0.0
 40
0.1875
  0
CIRCLE
  5
62
330
1F
100
AcDbEntity
  8
ADAPTER_PLT_HOLES
  6
CONTINUOUS
 62
     3
100
AcDbCircle
 10
41.42860541536945
 20
23.04235514426902
 30
0.0
 40
0.2109999999999985
  0
CIRCLE
  5
63
330
1F
100
AcDbEntity
  8
ADAPTER_PLT_HOLES
  6
CONTINUOUS
 62
     3
100
AcDbCircle
 10
41.09608742849164
 20
25.46810188131828
 30
0.0
 40
0.1875
  0
CIRCLE
  5
64
330
1F
100
AcDbEntity
  8
ADAPTER_PLT_HOLES
  6
CONTINUOUS
 62
     3
100
AcDbCircle
 10
38.47157529760533
 20
29.94386095122687
 30
0.0
 40
0.2184999999999988
  0
CIRCLE
  5
65
330
1F
100
AcDbEntity
  8
ADAPTER_PLT_HOLES
  6
CONTINUOUS
 62
     3
100
AcDbCircle
 10
34.42186994123478
 20
30.05075503293701
 30
0.0
 40
0.1875
  0
LINE
  5
66
330
1F
100
AcDbEntity
  8
ADAPTER_PLATE
  6
CONTINUOUS
 62
     3
100
AcDbLine
 10
21.75010459609601
 20
30.53654991528522
 30
0.0
 11
21.75010459609601
 21
16.30502139777803
 31
0.0
  0
LINE
  5
67
330
1F
100
AcDbEntity
  8
ADAPTER_PLATE
  6
CONTINUOUS
 62
     3
100
AcDbLine
 10
21.75010459609601
 20
16.30502139777803
 30
0.0
 11
22.37510459609601
 21
16.30502139777803
 31
0.0
  0
LINE
  5
68
330
1F
100
AcDbEntity
  8
ADAPTER_PLATE
  6
CONTINUOUS
 62
     3
100
AcDbLine
 10
22.37510459609601
 20
16.30502139777803
 30
0.0
 11
22.37510459609601
 21
30.53654991528522
 31
0.0
  0
LINE
  5
69
330
1F
100
AcDbEntity
  8
ADAPTER_PLATE
  6
CONTINUOUS
 62
     3
100
AcDbLine
 10
22.37510459609601
 20
30.53654991528522
 30
0.0
 11
21.75010459609601
 21
30.53654991528522
 31
0.0
  0
LINE
  5
6A
330
1F
100
AcDbEntity
  8
CENTERLINES
  6
CENTERD
 62
     9
 48
0.15625
100
AcDbLine
 10
21.75010459609601
 20
22.81782330345711
 30
0.0
 11
22.37510459609601
 21
22.81782330345711
 31
0.0
  0
LINE
  5
6D
330
1F
100
AcDbEntity
  8
ADAPTER_PLATE
  6
CONTINUOUS
 62
     3
100
AcDbLine
 10
22.25010459609601
 20
19.81782330345711
 30
0.0
 11
21.75010459609601
 21
19.81782330345711
 31
0.0
  0
LINE
  5
6E
330
1F
100
AcDbEntity
  8
ADAPTER_PLATE
  6
CONTINUOUS
 62
     3
100
AcDbLine
 10
22.25010459609601
 20
25.81782330345711
 30
0.0
 11
21.75010459609601
 21
25.81782330345711
 31
0.0
  0
LINE
  5
6F
330
1F
100
AcDbEntity
  8
ADAPTER_PLATE
  6
CONTINUOUS
 62
     3
100
AcDbLine
 10
22.37510459609601
 20
18.56782330345711
 30
0.0
 11
22.25010459609601
 21
18.56782330345711
 31
0.0
  0
LINE
  5
70
330
1F
100
AcDbEntity
  8
ADAPTER_PLATE
  6
CONTINUOUS
 62
     3
100
AcDbLine
 10
22.25010459609601
 20
27.0678233034571
 30
0.0
 11
22.25010459609601
 21
18.56782330345711
 31
0.0
  0
LINE
  5
71
330
1F
100
AcDbEntity
  8
ADAPTER_PLATE
  6
CONTINUOUS
 62
     3
100
AcDbLine
 10
22.37510459609601
 20
27.0678233034571
 30
0.0
 11
22.25010459609601
 21
27.0678233034571
 31
0.0
  0
POINT
  5
72
330
1F
100
AcDbEntity
  8
ADAPTER_PLATE
  6
CONTINUOUS
 62
     3
100
AcDbPoint
 10
21.75010459609601
 20
26.4428233034571
 30
0.0
  0
LINE
  5
73
330
1F
100
AcDbEntity
  8
ADAPTER_PLATE
  6
CONTINUOUS
 62
     3
100
AcDbLine
 10
22.25010459609601
 20
26.17722309898933
 30
0.0
 11
22.25010459609601
 21
26.70842350792488
 31
0.0
  0
POINT
  5
74
330
1F
100
AcDbEntity
  8
ADAPTER_PLATE
  6
CONTINUOUS
 62
     3
100
AcDbPoint
 10
21.75010459609601
 20
26.4428233034571
 30
0.0
  0
LINE
  5
75
330
1F
100
AcDbEntity
  8
ADAPTER_PLATE
  6
CONTINUOUS
 62
     3
100
AcDbLine
 10
21.75010459609601
 20
26.91132344078621
 30
0.0
 11
21.75010459609601
 21
25.974323166128
 31
0.0
  0
LINE
  5
76
330
1F
100
AcDbEntity
  8
ADAPTER_PLATE
  6
CONTINUOUS
 62
     3
100
AcDbLine
 10
22.00110500045392
 20
26.17722309898933
 30
0.0
 11
22.00110500045392
 21
26.70842350792488
 31
0.0
  0
LINE
  5
77
330
1F
100
AcDbEntity
  8
ADAPTER_PLATE
  6
CONTINUOUS
 62
     3
100
AcDbLine
 10
21.75010459609601
 20
26.91132344078621
 30
0.0
 11
22.00110500045392
 21
26.70842350792488
 31
0.0
  0
LINE
  5
78
330
1F
100
AcDbEntity
  8
ADAPTER_PLATE
  6
CONTINUOUS
 62
     3
100
AcDbLine
 10
22.00110500045392
 20
26.17722309898933
 30
0.0
 11
21.75010459609601
 21
25.974323166128
 31
0.0
  0
LINE
  5
79
330
1F
100
AcDbEntity
  8
ADAPTER_PLATE
  6
CONTINUOUS
 62
     3
100
AcDbLine
 10
22.25010459609601
 20
26.17722309898933
 30
0.0
 11
22.00110500045392
 21
26.17722309898933
 31
0.0
  0
LINE
  5
7A
330
1F
100
AcDbEntity
  8
ADAPTER_PLATE
  6
CONTINUOUS
 62
     3
100
AcDbLine
 10
22.25010459609601
 20
26.70842350792488
 30
0.0
 11
22.00110500045392
 21
26.70842350792488
 31
0.0
  0
POINT
  5
7B
330
1F
100
AcDbEntity
  8
ADAPTER_PLATE
  6
CONTINUOUS
 62
     3
100
AcDbPoint
 10
22.37510459609601
 20
22.81782330345711
 30
0.0
  0
POINT
  5
7C
330
1F
100
AcDbEntity
  8
ADAPTER_PLATE
  6
CONTINUOUS
 62
     3
100
AcDbPoint
 10
21.75010459609601
 20
22.81782330345711
 30
0.0
  0
POINT
  5
7D
330
1F
100
AcDbEntity
  8
ADAPTER_PLATE
  6
CONTINUOUS
 62
     3
100
AcDbPoint
 10
21.75010459609601
 20
19.19282330345711
 30
0.0
  0
LINE
  5
7E
330
1F
100
AcDbEntity
  8
ADAPTER_PLATE
  6
CONTINUOUS
 62
     3
100
AcDbLine
 10
22.25010459609601
 20
19.45842350792488
 30
0.0
 11
22.25010459609601
 21
18.92722309898934
 31
0.0
  0
POINT
  5
7F
330
1F
100
AcDbEntity
  8
ADAPTER_PLATE
  6
CONTINUOUS
 62
     3
100
AcDbPoint
 10
21.75010459609601
 20
19.19282330345711
 30
0.0
  0
LINE
  5
80
330
1F
100
AcDbEntity
  8
ADAPTER_PLATE
  6
CONTINUOUS
 62
     3
100
AcDbLine
 10
21.75010459609601
 20
18.72432316612801
 30
0.0
 11
21.75010459609601
 21
19.66132344078621
 31
0.0
  0
LINE
  5
81
330
1F
100
AcDbEntity
  8
ADAPTER_PLATE
  6
CONTINUOUS
 62
     3
100
AcDbLine
 10
22.00110500045392
 20
19.45842350792488
 30
0.0
 11
22.00110500045392
 21
18.92722309898934
 31
0.0
  0
LINE
  5
82
330
1F
100
AcDbEntity
  8
ADAPTER_PLATE
  6
CONTINUOUS
 62
     3
100
AcDbLine
 10
21.75010459609601
 20
18.72432316612801
 30
0.0
 11
22.00110500045392
 21
18.92722309898934
 31
0.0
  0
LINE
  5
83
330
1F
100
AcDbEntity
  8
ADAPTER_PLATE
  6
CONTINUOUS
 62
     3
100
AcDbLine
 10
22.00110500045392
 20
19.45842350792488
 30
0.0
 11
21.75010459609601
 21
19.66132344078621
 31
0.0
  0
LINE
  5
84
330
1F
100
AcDbEntity
  8
ADAPTER_PLATE
  6
CONTINUOUS
 62
     3
100
AcDbLine
 10
22.25010459609601
 20
19.45842350792488
 30
0.0
 11
22.00110500045392
 21
19.45842350792488
 31
0.0
  0
LINE
  5
85
330
1F
100
AcDbEntity
  8
ADAPTER_PLATE
  6
CONTINUOUS
 62
     3
100
AcDbLine
 10
22.25010459609601
 20
18.92722309898934
 30
0.0
 11
22.00110500045392
 21
18.92722309898934
 31
0.0
  0
LINE
  5
86
330
1F
100
AcDbEntity
  8
ADAPTER_PLATE
  6
CONTINUOUS
 62
     3
100
AcDbLine
 10
1.970191042797943
 20
22.30261576322165
 30
0.0
 11
4.624178793360095
 21
16.30502139777804
 31
0.0
  0
LINE
  5
87
330
1F
100
AcDbEntity
  8
ADAPTER_PLATE
  6
CONTINUOUS
 62
     3
100
AcDbLine
 10
16.56712367088977
 20
24.12164512777755
 30
0.0
 11
13.22079128974619
 21
16.30502139777804
 31
0.0
  0
LINE
  5
88
330
1F
100
AcDbEntity
  8
ADAPTER_PLATE
  6
CONTINUOUS
 62
     3
100
AcDbLine
 10
16.56712367088977
 20
28.23596901115884
 30
0.0
 11
16.56712367088977
 21
24.12164512777755
 31
0.0
  0
LINE
  5
89
330
1F
100
AcDbEntity
  8
ADAPTER_PLATE
  6
CONTINUOUS
 62
     3
100
AcDbLine
 10
11.47069791799869
 20
30.53654991528522
 30
0.0
 11
16.56712367088977
 21
28.23596901115884
 31
0.0
  0
LINE
  5
8A
330
1F
100
AcDbEntity
  8
ADAPTER_PLATE
  6
CONTINUOUS
 62
     3
100
AcDbLine
 10
1.970191042797943
 20
24.74734072404286
 30
0.0
 11
5.41415543442092
 21
30.53654991528522
 31
0.0
  0
LINE
  5
8B
330
1F
100
AcDbEntity
  8
ADAPTER_PLATE
  6
CONTINUOUS
 62
     3
100
AcDbLine
 10
11.47069791799869
 20
30.53654991528522
 30
0.0
 11
5.41415543442092
 21
30.53654991528522
 31
0.0
  0
LINE
  5
8C
330
1F
100
AcDbEntity
  8
ADAPTER_PLATE
  6
CONTINUOUS
 62
     3
100
AcDbLine
 10
1.970191042797943
 20
24.74734072404286
 30
0.0
 11
1.970191042797943
 21
22.30261576322165
 31
0.0
  0
LINE
  5
8D
330
1F
100
AcDbEntity
  8
ADAPTER_PLATE
  6
CONTINUOUS
 62
     3
100
AcDbLine
 10
13.22079128974619
 20
16.30502139777804
 30
0.0
 11
4.624178793360095
 21
16.30502139777804
 31
0.0
  0
CIRCLE
  5
8E
330
1F
100
AcDbEntity
  8
ADAPTER_PLATE
  6
CONTINUOUS
 62
     3
100
AcDbCircle
 10
8.883621484125442
 20
22.81782330345711
 30
0.0
 40
3.0
  0
CIRCLE
  5
8F
330
1F
100
AcDbEntity
  8
ADAPTER_PLATE
  6
CONTINUOUS
 62
     3
100
AcDbCircle
 10
8.883621484125442
 20
26.44282330345711
 30
0.0
 40
0.2654999999999959
  0
CIRCLE
  5
90
330
1F
100
AcDbEntity
  8
ADAPTER_PLATE
  6
CONTINUOUS
 62
     3
100
AcDbCircle
 10
11.44688356592668
 20
25.38108538525834
 30
0.0
 40
0.2655000000000012
  0
CIRCLE
  5
91
330
1F
100
AcDbEntity
  8
ADAPTER_PLATE
  6
CONTINUOUS
 62
     3
100
AcDbCircle
 10
12.50862148412545
 20
22.81782330345711
 30
0.0
 40
0.2654999999999994
  0
CIRCLE
  5
92
330
1F
100
AcDbEntity
  8
ADAPTER_PLATE
  6
CONTINUOUS
 62
     3
100
AcDbCircle
 10
11.44688356592668
 20
20.25456122165588
 30
0.0
 40
0.2655000000000012
  0
CIRCLE
  5
93
330
1F
100
AcDbEntity
  8
ADAPTER_PLATE
  6
CONTINUOUS
 62
     3
100
AcDbCircle
 10
8.883621484125449
 20
19.19282330345711
 30
0.0
 40
0.2654999999999959
  0
CIRCLE
  5
94
330
1F
100
AcDbEntity
  8
ADAPTER_PLATE
  6
CONTINUOUS
 62
     3
100
AcDbCircle
 10
6.320359402324208
 20
20.25456122165587
 30
0.0
 40
0.2655000000000037
  0
CIRCLE
  5
95
330
1F
100
AcDbEntity
  8
ADAPTER_PLATE
  6
CONTINUOUS
 62
     3
100
AcDbCircle
 10
5.258621484125442
 20
22.81782330345711
 30
0.0
 40
0.265500000000003
  0
CIRCLE
  5
96
330
1F
100
AcDbEntity
  8
ADAPTER_PLATE
  6
CONTINUOUS
 62
     3
100
AcDbCircle
 10
6.320359402324208
 20
25.38108538525834
 30
0.0
 40
0.2655000000000012
  0
CIRCLE
  5
97
330
1F
100
AcDbEntity
  8
ADAPTER_PLT_HOLES
  6
CONTINUOUS
 62
     3
100
AcDbCircle
 10
11.21465155760653
 20
29.95141601969857
 30
0.0
 40
0.25
  0
CIRCLE
  5
98
330
1F
100
AcDbEntity
  8
ADAPTER_PLT_HOLES
  6
CONTINUOUS
 62
     3
100
AcDbCircle
 10
12.57968451802837
 20
28.87411657442488
 30
0.0
 40
0.2184999999999988
  0
CIRCLE
  5
99
330
1F
100
AcDbEntity
  8
ADAPTER_PLT_HOLES
  6
CONTINUOUS
 62
     3
100
AcDbCircle
 10
15.55150879310813
 20
24.36425294263523
 30
0.0
 40
0.2184999999999988
  0
CIRCLE
  5
9A
330
1F
100
AcDbEntity
  8
ADAPTER_PLT_HOLES
  6
CONTINUOUS
 62
     3
100
AcDbCircle
 10
12.74190708394571
 20
17.36960766484357
 30
0.0
 40
0.1875
  0
CIRCLE
  5
9B
330
1F
100
AcDbEntity
  8
ADAPTER_PLT_HOLES
  6
CONTINUOUS
 62
     3
100
AcDbCircle
 10
5.038795122760241
 20
17.35720498435202
 30
0.0
 40
0.1875
  0
CIRCLE
  5
9C
330
1F
100
AcDbEntity
  8
ADAPTER_PLT_HOLES
  6
CONTINUOUS
 62
     3
100
AcDbCircle
 10
5.653633894586704
 20
29.94386095122688
 30
0.0
 40
0.2184999999999988
  0
CIRCLE
  5
9D
330
1F
100
AcDbEntity
  8
ADAPTER_PLATE
  6
CONTINUOUS
 62
     3
100
AcDbCircle
 10
8.883621484125445
 20
26.44282330345711
 30
0.0
 40
0.4685000000000006
  0
CIRCLE
  5
9E
330
1F
100
AcDbEntity
  8
ADAPTER_PLATE
  6
CONTINUOUS
 62
     3
100
AcDbCircle
 10
6.320359402324209
 20
25.38108538525834
 30
0.0
 40
0.4685000000000043
  0
CIRCLE
  5
9F
330
1F
100
AcDbEntity
  8
ADAPTER_PLATE
  6
CONTINUOUS
 62
     3
100
AcDbCircle
 10
5.258621484125442
 20
22.81782330345711
 30
0.0
 40
0.4684999999999988
  0
CIRCLE
  5
A0
330
1F
100
AcDbEntity
  8
ADAPTER_PLATE
  6
CONTINUOUS
 62
     3
100
AcDbCircle
 10
6.320359402324204
 20
20.25456122165588
 30
0.0
 40
0.4684999999999993
  0
CIRCLE
  5
A1
330
1F
100
AcDbEntity
  8
ADAPTER_PLATE
  6
CONTINUOUS
 62
     3
100
AcDbCircle
 10
8.883621484125438
 20
19.19282330345711
 30
0.0
 40
0.4685000000000006
  0
CIRCLE
  5
A2
330
1F
100
AcDbEntity
  8
ADAPTER_PLATE
  6
CONTINUOUS
 62
     3
100
AcDbCircle
 10
11.44688356592668
 20
20.25456122165587
 30
0.0
 40
0.4684999999999993
  0
CIRCLE
  5
A3
330
1F
100
AcDbEntity
  8
ADAPTER_PLATE
  6
CONTINUOUS
 62
     3
100
AcDbCircle
 10
12.50862148412544
 20
22.8178233034571
 30
0.0
 40
0.4684999999999988
  0
CIRCLE
  5
A4
330
1F
100
AcDbEntity
  8
ADAPTER_PLATE
  6
CONTINUOUS
 62
     3
100
AcDbCircle
 10
11.44688356592668
 20
25.38108538525834
 30
0.0
 40
0.4685000000000018
  0
LINE
  5
A5
330
1F
100
AcDbEntity
  8
CENTERLINES
  6
CENTERD
 62
     9
 48
1.8125
100
AcDbLine
 10
35.24158770806658
 20
19.19282330345711
 30
0.0
 11
35.24158770806658
 21
26.44282330345711
 31
0.0
  0
LINE
  5
A6
330
1F
100
AcDbEntity
  8
DIMENSIONS
  6
CONTINUOUS
 62
   133
100
AcDbLine
 10
35.24158770806658
 20
30.73593540258561
 30
0.0
 11
35.24158770806658
 21
31.10821968910188
 31
0.0
  0
LINE
  5
A8
330
1F
100
AcDbEntity
  8
DIMENSIONS
  6
CONTINUOUS
 62
   133
100
AcDbLine
 10
35.24158770806658
 20
31.10821968910188
 30
0.0
 11
35.04158770806659
 21
31.10821968910188
 31
0.0
  0
TEXT
  5
CC
330
1F
100
AcDbEntity
  8
DIMENSIONS
  6
CONTINUOUS
 62
     7
100
AcDbText
 10
34.76864695257663
 20
31.01241658550125
 30
0.0
 40
0.25
  1
A
  7
ENGINEER
100
AcDbText
  0
LINE
  5
CD
330
1F
100
AcDbEntity
  8
DIMENSIONS
  6
CONTINUOUS
 62
   133
100
AcDbLine
 10
35.24158770806658
 20
16.09200957189722
 30
0.0
 11
35.24158770806658
 21
15.71972528538095
 31
0.0
  0
LINE
  5
CE
330
1F
100
AcDbEntity
  8
DIMENSIONS
  6
CONTINUOUS
 62
   133
100
AcDbLine
 10
35.24158770806658
 20
15.71972528538095
 30
0.0
 11
35.04158770806659
 21
15.71972528538095
 31
0.0
  0
TEXT
  5
CF
330
1F
100
AcDbEntity
  8
DIMENSIONS
  6
CONTINUOUS
 62
     7
100
AcDbText
 10
34.76864695257663
 20
15.61552838898158
 30
0.0
 40
0.25
  1
A
  7
ENGINEER
100
AcDbText
  0
LINE
  5
D0
330
1F
100
AcDbEntity
  8
CENTERLINES
  6
CENTERD
 62
     9
 48
0.7752034328899713
100
AcDbLine
 10
35.24158770806658
 20
19.1928233034571
 30
0.0
 11
35.24158770806658
 21
16.09200957189722
 31
0.0
  0
LINE
  5
D1
330
1F
100
AcDbEntity
  8
CENTERLINES
  6
CENTERD
 62
     9
 48
1.073278024782126
100
AcDbLine
 10
35.24158770806658
 20
26.44282330345711
 30
0.0
 11
35.24158770806658
 21
30.73593540258561
 31
0.0
  0
LINE
  5
D2
330
1F
100
AcDbEntity
  8
CENTERLINES
  6
CONTINUOUS
 62
     1
100
AcDbLine
 10
31.90274724490899
 20
28.05937740531802
 30
0.0
 11
31.44200764279954
 21
28.3884771211105
 31
0.0
  0
LINE
  5
D3
330
1F
100
AcDbEntity
  8
CENTERLINES
  6
CONTINUOUS
 62
     1
100
AcDbLine
 10
31.90274724490899
 20
28.05937740531802
 30
0.0
 11
31.69673007314641
 21
28.13655852307973
 31
0.0
  0
LINE
  5
D4
330
1F
100
AcDbEntity
  8
CENTERLINES
  6
CONTINUOUS
 62
     1
100
AcDbLine
 10
31.90274724490899
 20
28.05937740531802
 30
0.0
 11
31.76292169942763
 21
28.22922679987343
 31
0.0
  0
LINE
  5
D5
330
1F
100
AcDbEntity
  8
CENTERLINES
  6
CONTINUOUS
 62
     1
100
AcDbLine
 10
31.44200764279954
 20
28.3884771211105
 30
0.0
 11
31.24200764279954
 21
28.3884771211105
 31
0.0
  0
TEXT
  5
D7
330
1F
100
AcDbEntity
  8
CENTERLINES
  6
CONTINUOUS
 62
     1
100
AcDbText
 10
30.17190117459428
 20
28.2934771211105
 30
0.0
 40
0.19
  1
NOTE C
  7
AEC_TECH
100
AcDbText
  0
LINE
  5
D8
330
1F
100
AcDbEntity
  8
CENTERLINES
  6
CENTERD
 62
     9
 48
0.6911094031641873
100
AcDbLine
 10
30.61925835331836
 20
28.05937740531802
 30
0.0
 11
33.38369596597511
 21
28.05937740531802
 31
0.0
  0
LINE
  5
D9
330
1F
100
AcDbEntity
  8
CENTERLINES
  6
CENTERD
 62
     9
 48
0.1316398863169894
100
AcDbLine
 10
33.38369596597511
 20
28.05937740531802
 30
0.0
 11
33.38369596597511
 21
27.53281786005007
 31
0.0
  0
LINE
  5
DA
330
1F
100
AcDbEntity
  8
CENTERLINES
  6
CENTERD
 62
     9
 48
0.6917374560569218
100
AcDbLine
 10
33.38369596597511
 20
27.53281786005007
 30
0.0
 11
30.61674614174742
 21
27.53281786005007
 31
0.0
  0
LINE
  5
DB
330
1F
100
AcDbEntity
  8
CENTERLINES
  6
CENTERD
 62
     9
 48
0.1318340117565615
100
AcDbLine
 10
30.61674614174742
 20
27.53281786005007
 30
0.0
 11
30.61674614174742
 21
28.06015390707631
 31
0.0
  0
TEXT
  5
DD
330
1F
100
AcDbEntity
  8
DIMENSIONS
  6
CONTINUOUS
 62
     7
100
AcDbText
 10
33.74056501931079
 20
14.46927875003515
 30
0.0
 40
0.25
  1
MOTOR SIDE
  7
MAIN
100
AcDbText
  0
LINE
  5
DE
330
1F
100
AcDbEntity
  8
CENTERLINES
  6
CENTERD
 62
     9
 48
2.125
100
AcDbLine
 10
30.99158770806658
 20
22.81782330345711
 30
0.0
 11
39.49158770806658
 21
22.81782330345711
 31
0.0
  0
LINE
  5
DF
330
1F
100
AcDbEntity
  8
DIMENSIONS
  6
CONTINUOUS
 62
     1
100
AcDbLine
 10
27.55808552130226
 20
21.69508074715668
 30
0.0
 11
27.77058920308585
 21
21.75202093707923
 31
0.0
  0
LINE
  5
E0
330
1F
100
AcDbEntity
  8
DIMENSIONS
  6
CONTINUOUS
 62
     1
100
AcDbLine
 10
27.55808552130226
 20
21.69508074715668
 30
0.0
 11
27.77058920308585
 21
21.63814055723413
 31
0.0
  0
LINE
  5
E1
330
1F
100
AcDbEntity
  8
DIMENSIONS
  6
CONTINUOUS
 62
     1
100
AcDbLine
 10
35.24158770806658
 20
21.69508074715668
 30
0.0
 11
35.02908402628299
 21
21.63814055723413
 31
0.0
  0
LINE
  5
E2
330
1F
100
AcDbEntity
  8
DIMENSIONS
  6
CONTINUOUS
 62
     1
100
AcDbLine
 10
35.24158770806658
 20
21.69508074715668
 30
0.0
 11
35.02908402628299
 21
21.75202093707923
 31
0.0
  0
LINE
  5
E3
330
1F
100
AcDbEntity
  8
DIMENSIONS
  6
CONTINUOUS
 62
     1
100
AcDbLine
 10
27.55808552130226
 20
24.05164512777755
 30
0.0
 11
27.55808552130226
 21
21.64508074715668
 31
0.0
  0
LINE
  5
E4
330
1F
100
AcDbEntity
  8
DIMENSIONS
  6
CONTINUOUS
 62
     1
100
AcDbLine
 10
35.24158770806658
 20
22.74782330345711
 30
0.0
 11
35.24158770806658
 21
21.64508074715668
 31
0.0
  0
TEXT
  5
E5
330
1F
100
AcDbEntity
  8
DIMENSIONS
  6
CONTINUOUS
 62
     1
100
AcDbText
 10
32.92426290739616
 20
21.60008074715668
 30
0.0
 40
0.19
  1
REF 7.684
  7
AEC_TECH
100
AcDbText
  0
LINE
  5
E6
330
1F
100
AcDbEntity
  8
DIMENSIONS
  6
CONTINUOUS
 62
     1
100
AcDbLine
 10
27.55808552130226
 20
21.69508074715668
 30
0.0
 11
32.82426290739616
 21
21.69508074715668
 31
0.0
  0
LINE
  5
E7
330
1F
100
AcDbEntity
  8
DIMENSIONS
  6
CONTINUOUS
 62
     1
100
AcDbLine
 10
34.3994860827199
 20
21.69508074715668
 30
0.0
 11
35.24158770806658
 21
21.69508074715668
 31
0.0
  0
LINE
  5
E8
330
1F
100
AcDbEntity
  8
DIMENSIONS
  6
CONTINUOUS
 62
     1
100
AcDbLine
 10
36.64666833320625
 20
16.30502139777804
 30
0.0
 11
36.58972814328369
 21
16.51752507956163
 31
0.0
  0
LINE
  5
E9
330
1F
100
AcDbEntity
  8
DIMENSIONS
  6
CONTINUOUS
 62
     1
100
AcDbLine
 10
36.64666833320625
 20
16.30502139777804
 30
0.0
 11
36.70360852312881
 21
16.51752507956163
 31
0.0
  0
LINE
  5
EA
330
1F
100
AcDbEntity
  8
DIMENSIONS
  6
CONTINUOUS
 62
     1
100
AcDbLine
 10
36.64666833320625
 20
22.81782330345711
 30
0.0
 11
36.70360852312881
 21
22.60531962167351
 31
0.0
  0
LINE
  5
EB
330
1F
100
AcDbEntity
  8
DIMENSIONS
  6
CONTINUOUS
 62
     1
100
AcDbLine
 10
36.64666833320625
 20
22.81782330345711
 30
0.0
 11
36.58972814328369
 21
22.60531962167351
 31
0.0
  0
LINE
  5
EC
330
1F
100
AcDbEntity
  8
DIMENSIONS
  6
CONTINUOUS
 62
     1
100
AcDbLine
 10
35.31158770806658
 20
16.30502139777804
 30
0.0
 11
36.69666833320625
 21
16.30502139777804
 31
0.0
  0
LINE
  5
ED
330
1F
100
AcDbEntity
  8
DIMENSIONS
  6
CONTINUOUS
 62
     1
100
AcDbLine
 10
35.31158770806658
 20
22.81782330345711
 30
0.0
 11
36.69666833320625
 21
22.81782330345711
 31
0.0
  0
TEXT
  5
EE
330
1F
100
AcDbEntity
  8
DIMENSIONS
  6
CONTINUOUS
 62
     1
100
AcDbText
 10
35.99642724246409
 20
21.182448567595
 30
0.0
 40
0.19
  1
REF 6.513
  7
AEC_TECH
100
AcDbText
  0
LINE
  5
EF
330
1F
100
AcDbEntity
  8
DIMENSIONS
  6
CONTINUOUS
 62
     1
100
AcDbLine
 10
36.64666833320625
 20
16.30502139777804
 30
0.0
 11
36.64666833320625
 21
21.08244856759499
 31
0.0
  0
LINE
  5
F0
330
1F
100
AcDbEntity
  8
DIMENSIONS
  6
CONTINUOUS
 62
     1
100
AcDbLine
 10
36.64666833320625
 20
21.47244856759499
 30
0.0
 11
36.64666833320625
 21
22.81782330345711
 31
0.0
  0
LINE
  5
F1
330
1F
100
AcDbEntity
  8
DIMENSIONS
  6
CONTINUOUS
 62
     1
100
AcDbLine
 10
23.44949145905709
 20
18.56782330345711
 30
0.0
 11
23.39255126913454
 21
18.7803269852407
 31
0.0
  0
LINE
  5
F2
330
1F
100
AcDbEntity
  8
DIMENSIONS
  6
CONTINUOUS
 62
     1
100
AcDbLine
 10
23.44949145905709
 20
18.56782330345711
 30
0.0
 11
23.50643164897965
 21
18.7803269852407
 31
0.0
  0
LINE
  5
F3
330
1F
100
AcDbEntity
  8
DIMENSIONS
  6
CONTINUOUS
 62
     1
100
AcDbLine
 10
23.44949145905709
 20
27.0678233034571
 30
0.0
 11
23.50643164897965
 21
26.85531962167351
 31
0.0
  0
LINE
  5
F4
330
1F
100
AcDbEntity
  8
DIMENSIONS
  6
CONTINUOUS
 62
     1
100
AcDbLine
 10
23.44949145905709
 20
27.0678233034571
 30
0.0
 11
23.39255126913454
 21
26.85531962167351
 31
0.0
  0
LINE
  5
F5
330
1F
100
AcDbEntity
  8
DIMENSIONS
  6
CONTINUOUS
 62
     1
100
AcDbLine
 10
22.44510459609601
 20
18.56782330345711
 30
0.0
 11
23.49949145905709
 21
18.56782330345711
 31
0.0
  0
LINE
  5
F6
330
1F
100
AcDbEntity
  8
DIMENSIONS
  6
CONTINUOUS
 62
     1
100
AcDbLine
 10
22.44510459609601
 20
27.0678233034571
 30
0.0
 11
23.49949145905709
 21
27.0678233034571
 31
0.0
  0
TEXT
  5
F7
330
1F
100
AcDbEntity
  8
DIMENSIONS
  6
CONTINUOUS
 62
     1
100
AcDbText
 10
22.70143787852639
 20
22.7228233034571
 30
0.0
 40
0.19
  1
8.500
  7
AEC_TECH
100
AcDbText
  0
TEXT
  5
F8
330
1F
100
AcDbEntity
  8
DIMENSIONS
  6
CONTINUOUS
 62
     1
100
AcDbText
 10
23.45694563539702
 20
22.91782330345711
 30
0.0
 40
0.19
  1
+.002
  7
AEC_TECH
100
AcDbText
  0
TEXT
  5
F9
330
1F
100
AcDbEntity
  8
DIMENSIONS
  6
CONTINUOUS
 62
     1
100
AcDbText
 10
23.44147029669907
 20
22.5278233034571
 30
0.0
 40
0.19
  1
-.000
  7
AEC_TECH
100
AcDbText
  0
LINE
  5
FA
330
1F
100
AcDbEntity
  8
DIMENSIONS
  6
CONTINUOUS
 62
     1
100
AcDbLine
 10
23.44949145905709
 20
18.56782330345711
 30
0.0
 11
23.44949145905709
 21
22.5278233034571
 31
0.0
  0
LINE
  5
FB
330
1F
100
AcDbEntity
  8
DIMENSIONS
  6
CONTINUOUS
 62
     1
100
AcDbLine
 10
23.44949145905709
 20
23.1078233034571
 30
0.0
 11
23.44949145905709
 21
27.0678233034571
 31
0.0
  0
LINE
  5
FC
330
1F
100
AcDbEntity
  8
DIMENSIONS
  6
CONTINUOUS
 62
     1
100
AcDbLine
 10
20.99938267229523
 20
19.81782330345711
 30
0.0
 11
20.94244248237267
 21
20.0303269852407
 31
0.0
  0
LINE
  5
FD
330
1F
100
AcDbEntity
  8
DIMENSIONS
  6
CONTINUOUS
 62
     1
100
AcDbLine
 10
20.99938267229523
 20
19.81782330345711
 30
0.0
 11
21.05632286221778
 21
20.0303269852407
 31
0.0
  0
LINE
  5
FE
330
1F
100
AcDbEntity
  8
DIMENSIONS
  6
CONTINUOUS
 62
     1
100
AcDbLine
 10
20.99938267229523
 20
25.81782330345711
 30
0.0
 11
21.05632286221778
 21
25.60531962167351
 31
0.0
  0
LINE
  5
FF
330
1F
100
AcDbEntity
  8
DIMENSIONS
  6
CONTINUOUS
 62
     1
100
AcDbLine
 10
20.99938267229523
 20
25.81782330345711
 30
0.0
 11
20.94244248237267
 21
25.60531962167351
 31
0.0
  0
LINE
  5
100
330
1F
100
AcDbEntity
  8
DIMENSIONS
  6
CONTINUOUS
 62
     1
100
AcDbLine
 10
21.68010459609601
 20
19.81782330345711
 30
0.0
 11
20.94938267229523
 21
19.81782330345711
 31
0.0
  0
LINE
  5
101
330
1F
100
AcDbEntity
  8
DIMENSIONS
  6
CONTINUOUS
 62
     1
100
AcDbLine
 10
21.68010459609601
 20
25.81782330345711
 30
0.0
 11
20.94938267229523
 21
25.81782330345711
 31
0.0
  0
TEXT
  5
102
330
1F
100
AcDbEntity
  8
DIMENSIONS
  6
CONTINUOUS
 62
     1
100
AcDbText
 10
20.70159730145387
 20
22.72282330345711
 30
0.0
 40
0.19
  1
6.00
  7
AEC_TECH
100
AcDbText
  0
LINE
  5
103
330
1F
100
AcDbEntity
  8
DIMENSIONS
  6
CONTINUOUS
 62
     1
100
AcDbLine
 10
20.99938267229523
 20
19.81782330345711
 30
0.0
 11
20.99938267229523
 21
22.62282330345711
 31
0.0
  0
LINE
  5
104
330
1F
100
AcDbEntity
  8
DIMENSIONS
  6
CONTINUOUS
 62
     1
100
AcDbLine
 10
20.99938267229523
 20
23.01282330345711
 30
0.0
 11
20.99938267229523
 21
25.81782330345711
 31
0.0
  0
LINE
  5
105
330
1F
100
AcDbEntity
  8
DIMENSIONS
  6
CONTINUOUS
 62
     1
100
AcDbLine
 10
21.75010459609601
 20
31.63134842276184
 30
0.0
 11
21.96260827787961
 21
31.6882886126844
 31
0.0
  0
LINE
  5
106
330
1F
100
AcDbEntity
  8
DIMENSIONS
  6
CONTINUOUS
 62
     1
100
AcDbLine
 10
21.75010459609601
 20
31.63134842276184
 30
0.0
 11
21.96260827787961
 21
31.57440823283929
 31
0.0
  0
LINE
  5
107
330
1F
100
AcDbEntity
  8
DIMENSIONS
  6
CONTINUOUS
 62
     1
100
AcDbLine
 10
22.37510459609601
 20
31.63134842276184
 30
0.0
 11
22.16260091431242
 21
31.57440823283929
 31
0.0
  0
LINE
  5
108
330
1F
100
AcDbEntity
  8
DIMENSIONS
  6
CONTINUOUS
 62
     1
100
AcDbLine
 10
22.37510459609601
 20
31.63134842276184
 30
0.0
 11
22.16260091431242
 21
31.6882886126844
 31
0.0
  0
LINE
  5
109
330
1F
100
AcDbEntity
  8
DIMENSIONS
  6
CONTINUOUS
 62
     1
100
AcDbLine
 10
21.75010459609601
 20
30.60654991528522
 30
0.0
 11
21.75010459609601
 21
31.68134842276184
 31
0.0
  0
LINE
  5
10A
330
1F
100
AcDbEntity
  8
DIMENSIONS
  6
CONTINUOUS
 62
     1
100
AcDbLine
 10
22.37510459609601
 20
30.60654991528522
 30
0.0
 11
22.37510459609601
 21
31.68134842276184
 31
0.0
  0
TEXT
  5
10B
330
1F
100
AcDbEntity
  8
DIMENSIONS
  6
CONTINUOUS
 62
     1
100
AcDbText
 10
22.54270967829659
 20
31.53634842276184
 30
0.0
 40
0.19
  1
5/8" STK
  7
AEC_TECH
100
AcDbText
  0
LINE
  5
10C
330
1F
100
AcDbEntity
  8
DIMENSIONS
  6
CONTINUOUS
 62
     1
100
AcDbLine
 10
21.75010459609601
 20
31.63134842276184
 30
0.0
 11
22.44270967829659
 21
31.63134842276184
 31
0.0
  0
HATCH
  5
10D
330
1F
100
AcDbEntity
  8
ADAPTER_PLATE
  6
CONTINUOUS
 62
    93
100
AcDbHatch
 10
0.0
 20
0.0
 30
0.0
210
0.0
220
0.0
230
1.0
  2
ANSI31
 70
     0
 71
     0
 91
        1
 92
        3
 72
     0
 73
     1
 93
        7
 10
21.75010459609601
 20
30.53654991528522
 10
21.75010459609601
 20
26.91132344078621
 10
22.00110500045392
 20
26.70842350792488
 10
22.25010459609601
 20
26.70842350792488
 10
22.25010459609601
 20
27.0678233034571
 10
22.37510459609601
 20
27.0678233034571
 10
22.37510459609601
 20
30.53654991528522
 97
        0
 75
     0
 76
     2
 52
90.0
 41
0.8
 77
     0
 78
     1
 53
135.0
 43
0.0
 44
0.0
 45
-0.0707106781186548
 46
-0.0707106781186548
 79
     1
 49
8000.0
 98
        0
  0
HATCH
  5
10E
330
1F
100
AcDbEntity
  8
ADAPTER_PLATE
  6
CONTINUOUS
 62
    93
100
AcDbHatch
 10
0.0
 20
0.0
 30
0.0
210
0.0
220
0.0
230
1.0
  2
ANSI31
 70
     0
 71
     0
 91
        1
 92
        3
 72
     0
 73
     1
 93
        5
 10
21.75010459609601
 20
25.974323166128
 10
21.75010459609601
 20
25.81782330345711
 10
22.25010459609601
 20
25.81782330345711
 10
22.25010459609601
 20
26.17722309898933
 10
22.00110500045392
 20
26.17722309898933
 97
        0
 75
     0
 76
     2
 52
90.0
 41
0.8
 77
     0
 78
     1
 53
135.0
 43
0.0
 44
0.0
 45
-0.0707106781186548
 46
-0.0707106781186548
 79
     1
 49
8000.0
 98
        0
  0
HATCH
  5
10F
330
1F
100
AcDbEntity
  8
ADAPTER_PLATE
  6
CONTINUOUS
 62
    93
100
AcDbHatch
 10
0.0
 20
0.0
 30
0.0
210
0.0
220
0.0
230
1.0
  2
ANSI31
 70
     0
 71
     0
 91
        1
 92
        3
 72
     0
 73
     1
 93
        5
 10
21.75010459609601
 20
19.81782330345711
 10
21.75010459609601
 20
19.66132344078621
 10
22.00110500045392
 20
19.45842350792488
 10
22.25010459609601
 20
19.45842350792488
 10
22.25010459609601
 20
19.81782330345711
 97
        0
 75
     0
 76
     2
 52
90.0
 41
0.8
 77
     0
 78
     1
 53
135.0
 43
0.0
 44
0.0
 45
-0.0707106781186548
 46
-0.0707106781186548
 79
     1
 49
8000.0
 98
        0
  0
HATCH
  5
110
330
1F
100
AcDbEntity
  8
ADAPTER_PLATE
  6
CONTINUOUS
 62
    93
100
AcDbHatch
 10
0.0
 20
0.0
 30
0.0
210
0.0
220
0.0
230
1.0
  2
ANSI31
 70
     0
 71
     0
 91
        1
 92
        3
 72
     0
 73
     1
 93
        7
 10
21.75010459609601
 20
18.72432316612801
 10
21.75010459609601
 20
16.30502139777803
 10
22.37510459609601
 20
16.30502139777803
 10
22.37510459609601
 20
18.56782330345711
 10
22.25010459609601
 20
18.56782330345711
 10
22.25010459609601
 20
18.92722309898934
 10
22.00110500045392
 20
18.92722309898934
 97
        0
 75
     0
 76
     2
 52
90.0
 41
0.8
 77
     0
 78
     1
 53
135.0
 43
0.0
 44
0.0
 45
-0.0707106781186548
 46
-0.0707106781186548
 79
     1
 49
8000.0
 98
        0
  0
LINE
  5
111
330
1F
100
AcDbEntity
  8
DIMENSIONS
  6
CONTINUOUS
 62
     1
100
AcDbLine
 10
22.25010459609601
 20
27.7089841328449
 30
0.0
 11
22.03760091431242
 21
27.65204394292235
 31
0.0
  0
LINE
  5
112
330
1F
100
AcDbEntity
  8
DIMENSIONS
  6
CONTINUOUS
 62
     1
100
AcDbLine
 10
22.25010459609601
 20
27.7089841328449
 30
0.0
 11
22.03760091431242
 21
27.76592432276746
 31
0.0
  0
LINE
  5
113
330
1F
100
AcDbEntity
  8
DIMENSIONS
  6
CONTINUOUS
 62
     1
100
AcDbLine
 10
22.37510459609601
 20
27.7089841328449
 30
0.0
 11
22.58760827787961
 21
27.76592432276746
 31
0.0
  0
LINE
  5
114
330
1F
100
AcDbEntity
  8
DIMENSIONS
  6
CONTINUOUS
 62
     1
100
AcDbLine
 10
22.37510459609601
 20
27.7089841328449
 30
0.0
 11
22.58760827787961
 21
27.65204394292235
 31
0.0
  0
LINE
  5
115
330
1F
100
AcDbEntity
  8
DIMENSIONS
  6
CONTINUOUS
 62
     1
100
AcDbLine
 10
22.25010459609601
 20
27.1378233034571
 30
0.0
 11
22.25010459609601
 21
27.7589841328449
 31
0.0
  0
LINE
  5
116
330
1F
100
AcDbEntity
  8
DIMENSIONS
  6
CONTINUOUS
 62
     1
100
AcDbLine
 10
22.37510459609601
 20
27.1378233034571
 30
0.0
 11
22.37510459609601
 21
27.7589841328449
 31
0.0
  0
TEXT
  5
117
330
1F
100
AcDbEntity
  8
DIMENSIONS
  6
CONTINUOUS
 62
     1
100
AcDbText
 10
22.78867243557109
 20
27.61398413284491
 30
0.0
 40
0.19
  1
.125
  7
AEC_TECH
100
AcDbText
  0
LINE
  5
118
330
1F
100
AcDbEntity
  8
DIMENSIONS
  6
CONTINUOUS
 62
     1
100
AcDbLine
 10
22.25010459609601
 20
27.7089841328449
 30
0.0
 11
21.81010459609601
 21
27.7089841328449
 31
0.0
  0
LINE
  5
119
330
1F
100
AcDbEntity
  8
DIMENSIONS
  6
CONTINUOUS
 62
     1
100
AcDbLine
 10
22.37510459609601
 20
27.7089841328449
 30
0.0
 11
22.81510459609601
 21
27.7089841328449
 31
0.0
  0
CIRCLE
  5
11A
330
1F
100
AcDbEntity
  8
ADAPTER_PLT_HOLES
  6
CONTINUOUS
 62
     5
100
AcDbCircle
 10
15.06901013796334
 20
23.0892649650564
 30
0.0
 40
0.2109999999999985
  0
CIRCLE
  5
11B
330
1F
100
AcDbEntity
  8
ADAPTER_PLT_HOLES
  6
CONTINUOUS
 62
     5
100
AcDbCircle
 10
11.36737318937726
 20
16.77341090208919
 30
0.0
 40
0.1875
  0
CIRCLE
  5
11C
330
1F
100
AcDbEntity
  8
ADAPTER_PLT_HOLES
  6
CONTINUOUS
 62
     5
100
AcDbCircle
 10
2.696603776822577
 20
23.04235514426903
 30
0.0
 40
0.2109999999999985
  0
CIRCLE
  5
11D
330
1F
100
AcDbEntity
  8
ADAPTER_PLT_HOLES
  6
CONTINUOUS
 62
     5
100
AcDbCircle
 10
3.029121763700388
 20
25.46810188131829
 30
0.0
 40
0.1875
  0
CIRCLE
  5
11E
330
1F
100
AcDbEntity
  8
ADAPTER_PLT_HOLES
  6
CONTINUOUS
 62
     5
100
AcDbCircle
 10
9.70333925095725
 20
30.05075503293701
 30
0.0
 40
0.1875
  0
LINE
  5
11F
330
1F
100
AcDbEntity
  8
CENTERLINES
  6
CENTERD
 62
     9
 48
1.812500000000001
100
AcDbLine
 10
8.883621484125449
 20
19.19282330345711
 30
0.0
 11
8.883621484125442
 21
26.44282330345711
 31
0.0
  0
LINE
  5
120
330
1F
100
AcDbEntity
  8
CENTERLINES
  6
CENTERD
 62
     9
 48
1.812500000000001
100
AcDbLine
 10
5.258621484125442
 20
22.81782330345711
 30
0.0
 11
12.50862148412545
 21
22.81782330345711
 31
0.0
  0
LINE
  5
121
330
1F
100
AcDbEntity
  8
DIMENSIONS
  6
CONTINUOUS
 62
     1
100
AcDbLine
 10
17.71538881918199
 20
16.30502139777804
 30
0.0
 11
17.65844862925944
 21
16.51752507956164
 31
0.0
  0
LINE
  5
122
330
1F
100
AcDbEntity
  8
DIMENSIONS
  6
CONTINUOUS
 62
     1
100
AcDbLine
 10
17.71538881918199
 20
16.30502139777804
 30
0.0
 11
17.77232900910454
 21
16.51752507956164
 31
0.0
  0
LINE
  5
123
330
1F
100
AcDbEntity
  8
DIMENSIONS
  6
CONTINUOUS
 62
     1
100
AcDbLine
 10
17.71538881918199
 20
17.36960766484357
 30
0.0
 11
17.77232900910454
 21
17.15710398305997
 31
0.0
  0
LINE
  5
124
330
1F
100
AcDbEntity
  8
DIMENSIONS
  6
CONTINUOUS
 62
     1
100
AcDbLine
 10
17.71538881918199
 20
17.36960766484357
 30
0.0
 11
17.65844862925944
 21
17.15710398305997
 31
0.0
  0
LINE
  5
125
330
1F
100
AcDbEntity
  8
DIMENSIONS
  6
CONTINUOUS
 62
     1
100
AcDbLine
 10
13.29079128974619
 20
16.30502139777804
 30
0.0
 11
17.76538881918199
 21
16.30502139777804
 31
0.0
  0
LINE
  5
126
330
1F
100
AcDbEntity
  8
DIMENSIONS
  6
CONTINUOUS
 62
     1
100
AcDbLine
 10
12.81190708394571
 20
17.36960766484357
 30
0.0
 11
17.76538881918199
 21
17.36960766484357
 31
0.0
  0
TEXT
  5
127
330
1F
100
AcDbEntity
  8
DIMENSIONS
  6
CONTINUOUS
 62
     1
100
AcDbText
 10
17.3734967217109
 20
16.7423145313108
 30
0.0
 40
0.19
  1
1.065
  7
AEC_TECH
100
AcDbText
  0
LINE
  5
128
330
1F
100
AcDbEntity
  8
DIMENSIONS
  6
CONTINUOUS
 62
     1
100
AcDbLine
 10
17.71538881918199
 20
16.30502139777804
 30
0.0
 11
17.71538881918199
 21
16.6423145313108
 31
0.0
  0
LINE
  5
129
330
1F
100
AcDbEntity
  8
DIMENSIONS
  6
CONTINUOUS
 62
     1
100
AcDbLine
 10
17.71538881918199
 20
17.0323145313108
 30
0.0
 11
17.71538881918199
 21
17.36960766484357
 31
0.0
  0
LINE
  5
12A
330
1F
100
AcDbEntity
  8
DIMENSIONS
  6
CONTINUOUS
 62
     1
100
AcDbLine
 10
17.71538881918199
 20
17.36960766484357
 30
0.0
 11
17.65844862925944
 21
17.58211134662716
 31
0.0
  0
LINE
  5
12B
330
1F
100
AcDbEntity
  8
DIMENSIONS
  6
CONTINUOUS
 62
     1
100
AcDbLine
 10
17.71538881918199
 20
17.36960766484357
 30
0.0
 11
17.77232900910454
 21
17.58211134662716
 31
0.0
  0
LINE
  5
12C
330
1F
100
AcDbEntity
  8
DIMENSIONS
  6
CONTINUOUS
 62
     1
100
AcDbLine
 10
17.71538881918199
 20
24.36425294263523
 30
0.0
 11
17.77232900910454
 21
24.15174926085164
 31
0.0
  0
LINE
  5
12D
330
1F
100
AcDbEntity
  8
DIMENSIONS
  6
CONTINUOUS
 62
     1
100
AcDbLine
 10
17.71538881918199
 20
24.36425294263523
 30
0.0
 11
17.65844862925944
 21
24.15174926085164
 31
0.0
  0
LINE
  5
12E
330
1F
100
AcDbEntity
  8
DIMENSIONS
  6
CONTINUOUS
 62
     1
100
AcDbLine
 10
12.81190708394571
 20
17.36960766484357
 30
0.0
 11
17.76538881918199
 21
17.36960766484357
 31
0.0
  0
LINE
  5
12F
330
1F
100
AcDbEntity
  8
DIMENSIONS
  6
CONTINUOUS
 62
     1
100
AcDbLine
 10
15.62150879310813
 20
24.36425294263523
 30
0.0
 11
17.76538881918199
 21
24.36425294263523
 31
0.0
  0
TEXT
  5
130
330
1F
100
AcDbEntity
  8
DIMENSIONS
  6
CONTINUOUS
 62
     1
100
AcDbText
 10
17.34584274947272
 20
20.7719303037394
 30
0.0
 40
0.19
  1
6.995
  7
AEC_TECH
100
AcDbText
  0
LINE
  5
131
330
1F
100
AcDbEntity
  8
DIMENSIONS
  6
CONTINUOUS
 62
     1
100
AcDbLine
 10
17.71538881918199
 20
17.36960766484357
 30
0.0
 11
17.71538881918199
 21
20.6719303037394
 31
0.0
  0
LINE
  5
132
330
1F
100
AcDbEntity
  8
DIMENSIONS
  6
CONTINUOUS
 62
     1
100
AcDbLine
 10
17.71538881918199
 20
21.0619303037394
 30
0.0
 11
17.71538881918199
 21
24.36425294263523
 31
0.0
  0
LINE
  5
133
330
1F
100
AcDbEntity
  8
DIMENSIONS
  6
CONTINUOUS
 62
     1
100
AcDbLine
 10
17.71538881918199
 20
24.36425294263523
 30
0.0
 11
17.65844862925944
 21
24.57675662441883
 31
0.0
  0
LINE
  5
134
330
1F
100
AcDbEntity
  8
DIMENSIONS
  6
CONTINUOUS
 62
     1
100
AcDbLine
 10
17.71538881918199
 20
24.36425294263523
 30
0.0
 11
17.77232900910454
 21
24.57675662441883
 31
0.0
  0
LINE
  5
135
330
1F
100
AcDbEntity
  8
DIMENSIONS
  6
CONTINUOUS
 62
     1
100
AcDbLine
 10
17.71538881918199
 20
28.87411657442488
 30
0.0
 11
17.77232900910454
 21
28.66161289264129
 31
0.0
  0
LINE
  5
136
330
1F
100
AcDbEntity
  8
DIMENSIONS
  6
CONTINUOUS
 62
     1
100
AcDbLine
 10
17.71538881918199
 20
28.87411657442488
 30
0.0
 11
17.65844862925944
 21
28.66161289264129
 31
0.0
  0
LINE
  5
137
330
1F
100
AcDbEntity
  8
DIMENSIONS
  6
CONTINUOUS
 62
     1
100
AcDbLine
 10
15.62150879310813
 20
24.36425294263523
 30
0.0
 11
17.76538881918199
 21
24.36425294263523
 31
0.0
  0
LINE
  5
138
330
1F
100
AcDbEntity
  8
DIMENSIONS
  6
CONTINUOUS
 62
     1
100
AcDbLine
 10
12.64968451802837
 20
28.87411657442488
 30
0.0
 11
17.76538881918199
 21
28.87411657442488
 31
0.0
  0
TEXT
  5
139
330
1F
100
AcDbEntity
  8
DIMENSIONS
  6
CONTINUOUS
 62
     1
100
AcDbText
 10
17.37280624037332
 20
26.52418475853006
 30
0.0
 40
0.19
  1
4.510
  7
AEC_TECH
100
AcDbText
  0
LINE
  5
13A
330
1F
100
AcDbEntity
  8
DIMENSIONS
  6
CONTINUOUS
 62
     1
100
AcDbLine
 10
17.71538881918199
 20
24.36425294263523
 30
0.0
 11
17.71538881918199
 21
26.42418475853006
 31
0.0
  0
LINE
  5
13B
330
1F
100
AcDbEntity
  8
DIMENSIONS
  6
CONTINUOUS
 62
     1
100
AcDbLine
 10
17.71538881918199
 20
26.81418475853006
 30
0.0
 11
17.71538881918199
 21
28.87411657442488
 31
0.0
  0
LINE
  5
13C
330
1F
100
AcDbEntity
  8
DIMENSIONS
  6
CONTINUOUS
 62
     1
100
AcDbLine
 10
17.71538881918199
 20
28.87411657442488
 30
0.0
 11
17.65844862925944
 21
29.08662025620848
 31
0.0
  0
LINE
  5
13D
330
1F
100
AcDbEntity
  8
DIMENSIONS
  6
CONTINUOUS
 62
     1
100
AcDbLine
 10
17.71538881918199
 20
28.87411657442488
 30
0.0
 11
17.77232900910454
 21
29.08662025620848
 31
0.0
  0
LINE
  5
13E
330
1F
100
AcDbEntity
  8
DIMENSIONS
  6
CONTINUOUS
 62
     1
100
AcDbLine
 10
17.71538881918199
 20
29.95141601969857
 30
0.0
 11
17.77232900910454
 21
29.73891233791498
 31
0.0
  0
LINE
  5
13F
330
1F
100
AcDbEntity
  8
DIMENSIONS
  6
CONTINUOUS
 62
     1
100
AcDbLine
 10
17.71538881918199
 20
29.95141601969857
 30
0.0
 11
17.65844862925944
 21
29.73891233791498
 31
0.0
  0
LINE
  5
140
330
1F
100
AcDbEntity
  8
DIMENSIONS
  6
CONTINUOUS
 62
     1
100
AcDbLine
 10
12.64968451802837
 20
28.87411657442488
 30
0.0
 11
17.76538881918199
 21
28.87411657442488
 31
0.0
  0
LINE
  5
141
330
1F
100
AcDbEntity
  8
DIMENSIONS
  6
CONTINUOUS
 62
     1
100
AcDbLine
 10
11.28465155760653
 20
29.95141601969857
 30
0.0
 11
17.76538881918199
 21
29.95141601969857
 31
0.0
  0
TEXT
  5
142
330
1F
100
AcDbEntity
  8
DIMENSIONS
  6
CONTINUOUS
 62
     1
100
AcDbText
 10
17.37767620886087
 20
29.31776629706173
 30
0.0
 40
0.19
  1
1.077
  7
AEC_TECH
100
AcDbText
  0
LINE
  5
143
330
1F
100
AcDbEntity
  8
DIMENSIONS
  6
CONTINUOUS
 62
     1
100
AcDbLine
 10
17.71538881918199
 20
28.87411657442488
 30
0.0
 11
17.71538881918199
 21
29.21776629706173
 31
0.0
  0
LINE
  5
144
330
1F
100
AcDbEntity
  8
DIMENSIONS
  6
CONTINUOUS
 62
     1
100
AcDbLine
 10
17.71538881918199
 20
29.60776629706173
 30
0.0
 11
17.71538881918199
 21
29.95141601969857
 31
0.0
  0
LINE
  5
145
330
1F
100
AcDbEntity
  8
DIMENSIONS
  6
CONTINUOUS
 62
     1
100
AcDbLine
 10
0.9228757389466655
 20
16.30502139777804
 30
0.0
 11
0.865935549024111
 21
16.51752507956164
 31
0.0
  0
LINE
  5
146
330
1F
100
AcDbEntity
  8
DIMENSIONS
  6
CONTINUOUS
 62
     1
100
AcDbLine
 10
0.9228757389466655
 20
16.30502139777804
 30
0.0
 11
0.9798159288692201
 21
16.51752507956164
 31
0.0
  0
LINE
  5
147
330
1F
100
AcDbEntity
  8
DIMENSIONS
  6
CONTINUOUS
 62
     1
100
AcDbLine
 10
0.9228757389466651
 20
17.35720498435202
 30
0.0
 11
0.9798159288692195
 21
17.14470130256842
 31
0.0
  0
LINE
  5
148
330
1F
100
AcDbEntity
  8
DIMENSIONS
  6
CONTINUOUS
 62
     1
100
AcDbLine
 10
0.9228757389466651
 20
17.35720498435202
 30
0.0
 11
0.8659355490241105
 21
17.14470130256842
 31
0.0
  0
LINE
  5
149
330
1F
100
AcDbEntity
  8
DIMENSIONS
  6
CONTINUOUS
 62
     1
100
AcDbLine
 10
4.554178793360094
 20
16.30502139777804
 30
0.0
 11
0.8728757389466657
 21
16.30502139777804
 31
0.0
  0
LINE
  5
14A
330
1F
100
AcDbEntity
  8
DIMENSIONS
  6
CONTINUOUS
 62
     1
100
AcDbLine
 10
4.968795122760241
 20
17.35720498435202
 30
0.0
 11
0.8728757389466653
 21
17.35720498435202
 31
0.0
  0
TEXT
  5
14B
330
1F
100
AcDbEntity
  8
DIMENSIONS
  6
CONTINUOUS
 62
     1
100
AcDbText
 10
0.5911177319859136
 20
16.73611319106503
 30
0.0
 40
0.19
  1
1.052
  7
AEC_TECH
100
AcDbText
  0
LINE
  5
14C
330
1F
100
AcDbEntity
  8
DIMENSIONS
  6
CONTINUOUS
 62
     1
100
AcDbLine
 10
0.9228757389466655
 20
16.30502139777804
 30
0.0
 11
0.9228757389466654
 21
16.63611319106503
 31
0.0
  0
LINE
  5
14D
330
1F
100
AcDbEntity
  8
DIMENSIONS
  6
CONTINUOUS
 62
     1
100
AcDbLine
 10
0.9228757389466652
 20
17.02611319106503
 30
0.0
 11
0.9228757389466651
 21
17.35720498435202
 31
0.0
  0
LINE
  5
14E
330
1F
100
AcDbEntity
  8
DIMENSIONS
  6
CONTINUOUS
 62
     1
100
AcDbLine
 10
0.922875738946666
 20
17.35720498435202
 30
0.0
 11
0.8659355490241114
 21
17.56970866613561
 31
0.0
  0
LINE
  5
14F
330
1F
100
AcDbEntity
  8
DIMENSIONS
  6
CONTINUOUS
 62
     1
100
AcDbLine
 10
0.922875738946666
 20
17.35720498435202
 30
0.0
 11
0.9798159288692205
 21
17.56970866613561
 31
0.0
  0
LINE
  5
150
330
1F
100
AcDbEntity
  8
DIMENSIONS
  6
CONTINUOUS
 62
     1
100
AcDbLine
 10
0.922875738946666
 20
29.94386095122688
 30
0.0
 11
0.9798159288692204
 21
29.73135726944328
 31
0.0
  0
LINE
  5
151
330
1F
100
AcDbEntity
  8
DIMENSIONS
  6
CONTINUOUS
 62
     1
100
AcDbLine
 10
0.922875738946666
 20
29.94386095122688
 30
0.0
 11
0.8659355490241114
 21
29.73135726944328
 31
0.0
  0
LINE
  5
152
330
1F
100
AcDbEntity
  8
DIMENSIONS
  6
CONTINUOUS
 62
     1
100
AcDbLine
 10
4.968795122760241
 20
17.35720498435202
 30
0.0
 11
0.8728757389466661
 21
17.35720498435202
 31
0.0
  0
LINE
  5
153
330
1F
100
AcDbEntity
  8
DIMENSIONS
  6
CONTINUOUS
 62
     1
100
AcDbLine
 10
5.583633894586704
 20
29.94386095122688
 30
0.0
 11
0.8728757389466661
 21
29.94386095122688
 31
0.0
  0
TEXT
  5
154
330
1F
100
AcDbEntity
  8
DIMENSIONS
  6
CONTINUOUS
 62
     1
100
AcDbText
 10
0.5148492267661287
 20
23.55553296778945
 30
0.0
 40
0.19
  1
12.587
  7
AEC_TECH
100
AcDbText
  0
LINE
  5
155
330
1F
100
AcDbEntity
  8
DIMENSIONS
  6
CONTINUOUS
 62
     1
100
AcDbLine
 10
0.922875738946666
 20
17.35720498435202
 30
0.0
 11
0.922875738946666
 21
23.45553296778945
 31
0.0
  0
LINE
  5
156
330
1F
100
AcDbEntity
  8
DIMENSIONS
  6
CONTINUOUS
 62
     1
100
AcDbLine
 10
0.922875738946666
 20
23.84553296778945
 30
0.0
 11
0.922875738946666
 21
29.94386095122688
 31
0.0
  0
LINE
  5
157
330
1F
100
AcDbEntity
  8
DIMENSIONS
  6
CONTINUOUS
 62
     1
100
AcDbLine
 10
12.57968451802837
 20
31.64074240615782
 30
0.0
 11
12.79218819981197
 21
31.69768259608037
 31
0.0
  0
LINE
  5
158
330
1F
100
AcDbEntity
  8
DIMENSIONS
  6
CONTINUOUS
 62
     1
100
AcDbLine
 10
12.57968451802837
 20
31.64074240615782
 30
0.0
 11
12.79218819981197
 21
31.58380221623527
 31
0.0
  0
LINE
  5
159
330
1F
100
AcDbEntity
  8
DIMENSIONS
  6
CONTINUOUS
 62
     1
100
AcDbLine
 10
15.55150879310813
 20
31.64074240615782
 30
0.0
 11
15.33900511132453
 21
31.58380221623526
 31
0.0
  0
LINE
  5
15A
330
1F
100
AcDbEntity
  8
DIMENSIONS
  6
CONTINUOUS
 62
     1
100
AcDbLine
 10
15.55150879310813
 20
31.64074240615782
 30
0.0
 11
15.33900511132453
 21
31.69768259608037
 31
0.0
  0
LINE
  5
15B
330
1F
100
AcDbEntity
  8
DIMENSIONS
  6
CONTINUOUS
 62
     1
100
AcDbLine
 10
12.57968451802837
 20
28.94411657442488
 30
0.0
 11
12.57968451802837
 21
31.69074240615782
 31
0.0
  0
LINE
  5
15C
330
1F
100
AcDbEntity
  8
DIMENSIONS
  6
CONTINUOUS
 62
     1
100
AcDbLine
 10
15.55150879310813
 20
24.43425294263523
 30
0.0
 11
15.55150879310813
 21
31.69074240615782
 31
0.0
  0
TEXT
  5
15D
330
1F
100
AcDbEntity
  8
DIMENSIONS
  6
CONTINUOUS
 62
     1
100
AcDbText
 10
13.71467064550938
 20
31.54574240615782
 30
0.0
 40
0.19
  1
2.972
  7
AEC_TECH
100
AcDbText
  0
LINE
  5
15E
330
1F
100
AcDbEntity
  8
DIMENSIONS
  6
CONTINUOUS
 62
     1
100
AcDbLine
 10
12.57968451802837
 20
31.64074240615782
 30
0.0
 11
13.61467064550938
 21
31.64074240615782
 31
0.0
  0
LINE
  5
15F
330
1F
100
AcDbEntity
  8
DIMENSIONS
  6
CONTINUOUS
 62
     1
100
AcDbLine
 10
14.51652266562712
 20
31.64074240615782
 30
0.0
 11
15.55150879310813
 21
31.64074240615782
 31
0.0
  0
LINE
  5
160
330
1F
100
AcDbEntity
  8
DIMENSIONS
  6
CONTINUOUS
 62
     1
100
AcDbLine
 10
11.21465155760653
 20
31.64074240615782
 30
0.0
 11
11.42715523939012
 21
31.69768259608037
 31
0.0
  0
LINE
  5
161
330
1F
100
AcDbEntity
  8
DIMENSIONS
  6
CONTINUOUS
 62
     1
100
AcDbLine
 10
11.21465155760653
 20
31.64074240615782
 30
0.0
 11
11.42715523939012
 21
31.58380221623527
 31
0.0
  0
LINE
  5
162
330
1F
100
AcDbEntity
  8
DIMENSIONS
  6
CONTINUOUS
 62
     1
100
AcDbLine
 10
12.57968451802837
 20
31.64074240615782
 30
0.0
 11
12.36718083624478
 21
31.58380221623527
 31
0.0
  0
LINE
  5
163
330
1F
100
AcDbEntity
  8
DIMENSIONS
  6
CONTINUOUS
 62
     1
100
AcDbLine
 10
12.57968451802837
 20
31.64074240615782
 30
0.0
 11
12.36718083624478
 21
31.69768259608037
 31
0.0
  0
LINE
  5
164
330
1F
100
AcDbEntity
  8
DIMENSIONS
  6
CONTINUOUS
 62
     1
100
AcDbLine
 10
11.21465155760653
 20
30.02141601969857
 30
0.0
 11
11.21465155760653
 21
31.69074240615782
 31
0.0
  0
LINE
  5
165
330
1F
100
AcDbEntity
  8
DIMENSIONS
  6
CONTINUOUS
 62
     1
100
AcDbLine
 10
12.57968451802837
 20
28.94411657442488
 30
0.0
 11
12.57968451802837
 21
31.69074240615782
 31
0.0
  0
TEXT
  5
166
330
1F
100
AcDbEntity
  8
DIMENSIONS
  6
CONTINUOUS
 62
     1
100
AcDbText
 10
11.56513384004252
 20
31.54574240615782
 30
0.0
 40
0.19
  1
1.365
  7
AEC_TECH
100
AcDbText
  0
LINE
  5
167
330
1F
100
AcDbEntity
  8
DIMENSIONS
  6
CONTINUOUS
 62
     1
100
AcDbLine
 10
11.21465155760653
 20
31.64074240615782
 30
0.0
 11
11.46513384004252
 21
31.64074240615782
 31
0.0
  0
LINE
  5
168
330
1F
100
AcDbEntity
  8
DIMENSIONS
  6
CONTINUOUS
 62
     1
100
AcDbLine
 10
12.32920223559238
 20
31.64074240615782
 30
0.0
 11
12.57968451802837
 21
31.64074240615782
 31
0.0
  0
LINE
  5
169
330
1F
100
AcDbEntity
  8
DIMENSIONS
  6
CONTINUOUS
 62
     1
100
AcDbLine
 10
5.653633894586704
 20
31.64074240615782
 30
0.0
 11
5.866137576370299
 21
31.69768259608037
 31
0.0
  0
LINE
  5
16A
330
1F
100
AcDbEntity
  8
DIMENSIONS
  6
CONTINUOUS
 62
     1
100
AcDbLine
 10
5.653633894586704
 20
31.64074240615782
 30
0.0
 11
5.866137576370299
 21
31.58380221623526
 31
0.0
  0
LINE
  5
16B
330
1F
100
AcDbEntity
  8
DIMENSIONS
  6
CONTINUOUS
 62
     1
100
AcDbLine
 10
11.21465155760653
 20
31.64074240615782
 30
0.0
 11
11.00214787582293
 21
31.58380221623527
 31
0.0
  0
LINE
  5
16C
330
1F
100
AcDbEntity
  8
DIMENSIONS
  6
CONTINUOUS
 62
     1
100
AcDbLine
 10
11.21465155760653
 20
31.64074240615782
 30
0.0
 11
11.00214787582293
 21
31.69768259608037
 31
0.0
  0
LINE
  5
16D
330
1F
100
AcDbEntity
  8
DIMENSIONS
  6
CONTINUOUS
 62
     1
100
AcDbLine
 10
5.653633894586704
 20
30.01386095122688
 30
0.0
 11
5.653633894586704
 21
31.69074240615782
 31
0.0
  0
LINE
  5
16E
330
1F
100
AcDbEntity
  8
DIMENSIONS
  6
CONTINUOUS
 62
     1
100
AcDbLine
 10
11.21465155760653
 20
30.02141601969857
 30
0.0
 11
11.21465155760653
 21
31.69074240615782
 31
0.0
  0
TEXT
  5
16F
330
1F
100
AcDbEntity
  8
DIMENSIONS
  6
CONTINUOUS
 62
     1
100
AcDbText
 10
8.105049099139345
 20
31.54574240615782
 30
0.0
 40
0.19
  1
5.561
  7
AEC_TECH
100
AcDbText
  0
LINE
  5
170
330
1F
100
AcDbEntity
  8
DIMENSIONS
  6
CONTINUOUS
 62
     1
100
AcDbLine
 10
5.653633894586704
 20
31.64074240615782
 30
0.0
 11
8.005049099139345
 21
31.64074240615782
 31
0.0
  0
LINE
  5
171
330
1F
100
AcDbEntity
  8
DIMENSIONS
  6
CONTINUOUS
 62
     1
100
AcDbLine
 10
8.863236353053889
 20
31.64074240615782
 30
0.0
 11
11.21465155760653
 21
31.64074240615782
 31
0.0
  0
LINE
  5
172
330
1F
100
AcDbEntity
  8
DIMENSIONS
  6
CONTINUOUS
 62
     1
100
AcDbLine
 10
12.74190708394571
 20
15.18253663073575
 30
0.0
 11
12.95441076572931
 21
15.23947682065831
 31
0.0
  0
LINE
  5
173
330
1F
100
AcDbEntity
  8
DIMENSIONS
  6
CONTINUOUS
 62
     1
100
AcDbLine
 10
12.74190708394571
 20
15.18253663073575
 30
0.0
 11
12.95441076572931
 21
15.1255964408132
 31
0.0
  0
LINE
  5
174
330
1F
100
AcDbEntity
  8
DIMENSIONS
  6
CONTINUOUS
 62
     1
100
AcDbLine
 10
16.56712367088977
 20
15.18253663073575
 30
0.0
 11
16.35461998910617
 21
15.1255964408132
 31
0.0
  0
LINE
  5
175
330
1F
100
AcDbEntity
  8
DIMENSIONS
  6
CONTINUOUS
 62
     1
100
AcDbLine
 10
16.56712367088977
 20
15.18253663073575
 30
0.0
 11
16.35461998910617
 21
15.23947682065831
 31
0.0
  0
LINE
  5
176
330
1F
100
AcDbEntity
  8
DIMENSIONS
  6
CONTINUOUS
 62
     1
100
AcDbLine
 10
12.74190708394571
 20
17.29960766484357
 30
0.0
 11
12.74190708394571
 21
15.13253663073575
 31
0.0
  0
LINE
  5
177
330
1F
100
AcDbEntity
  8
DIMENSIONS
  6
CONTINUOUS
 62
     1
100
AcDbLine
 10
16.56712367088977
 20
24.05164512777755
 30
0.0
 11
16.56712367088977
 21
15.13253663073575
 31
0.0
  0
TEXT
  5
178
330
1F
100
AcDbEntity
  8
DIMENSIONS
  6
CONTINUOUS
 62
     1
100
AcDbText
 10
14.30209315189299
 20
15.08753663073575
 30
0.0
 40
0.19
  1
3.825
  7
AEC_TECH
100
AcDbText
  0
LINE
  5
179
330
1F
100
AcDbEntity
  8
DIMENSIONS
  6
CONTINUOUS
 62
     1
100
AcDbLine
 10
12.74190708394571
 20
15.18253663073575
 30
0.0
 11
14.20209315189299
 21
15.18253663073575
 31
0.0
  0
LINE
  5
17A
330
1F
100
AcDbEntity
  8
DIMENSIONS
  6
CONTINUOUS
 62
     1
100
AcDbLine
 10
15.10693760294249
 20
15.18253663073575
 30
0.0
 11
16.56712367088977
 21
15.18253663073575
 31
0.0
  0
LINE
  5
17B
330
1F
100
AcDbEntity
  8
DIMENSIONS
  6
CONTINUOUS
 62
     1
100
AcDbLine
 10
5.038795122760241
 20
15.18253663073575
 30
0.0
 11
5.251298804543836
 21
15.23947682065831
 31
0.0
  0
LINE
  5
17C
330
1F
100
AcDbEntity
  8
DIMENSIONS
  6
CONTINUOUS
 62
     1
100
AcDbLine
 10
5.038795122760241
 20
15.18253663073575
 30
0.0
 11
5.251298804543836
 21
15.1255964408132
 31
0.0
  0
LINE
  5
17D
330
1F
100
AcDbEntity
  8
DIMENSIONS
  6
CONTINUOUS
 62
     1
100
AcDbLine
 10
12.74190708394571
 20
15.18253663073575
 30
0.0
 11
12.52940340216212
 21
15.1255964408132
 31
0.0
  0
LINE
  5
17E
330
1F
100
AcDbEntity
  8
DIMENSIONS
  6
CONTINUOUS
 62
     1
100
AcDbLine
 10
12.74190708394571
 20
15.18253663073575
 30
0.0
 11
12.52940340216212
 21
15.23947682065831
 31
0.0
  0
LINE
  5
17F
330
1F
100
AcDbEntity
  8
DIMENSIONS
  6
CONTINUOUS
 62
     1
100
AcDbLine
 10
5.038795122760241
 20
17.28720498435202
 30
0.0
 11
5.038795122760241
 21
15.13253663073575
 31
0.0
  0
LINE
  5
180
330
1F
100
AcDbEntity
  8
DIMENSIONS
  6
CONTINUOUS
 62
     1
100
AcDbLine
 10
12.74190708394571
 20
17.29960766484357
 30
0.0
 11
12.74190708394571
 21
15.13253663073575
 31
0.0
  0
TEXT
  5
181
330
1F
100
AcDbEntity
  8
DIMENSIONS
  6
CONTINUOUS
 62
     1
100
AcDbText
 10
8.524146173000933
 20
15.08753663073575
 30
0.0
 40
0.19
  1
7.703
  7
AEC_TECH
100
AcDbText
  0
LINE
  5
182
330
1F
100
AcDbEntity
  8
DIMENSIONS
  6
CONTINUOUS
 62
     1
100
AcDbLine
 10
5.038795122760241
 20
15.18253663073575
 30
0.0
 11
8.424146173000931
 21
15.18253663073575
 31
0.0
  0
LINE
  5
183
330
1F
100
AcDbEntity
  8
DIMENSIONS
  6
CONTINUOUS
 62
     1
100
AcDbLine
 10
9.356556033705022
 20
15.18253663073575
 30
0.0
 11
12.74190708394571
 21
15.18253663073575
 31
0.0
  0
LINE
  5
184
330
1F
100
AcDbEntity
  8
DIMENSIONS
  6
CONTINUOUS
 62
     1
100
AcDbLine
 10
15.55150879310813
 20
31.64074240615782
 30
0.0
 11
15.76401247489172
 21
31.69768259608037
 31
0.0
  0
LINE
  5
185
330
1F
100
AcDbEntity
  8
DIMENSIONS
  6
CONTINUOUS
 62
     1
100
AcDbLine
 10
15.55150879310813
 20
31.64074240615782
 30
0.0
 11
15.76401247489172
 21
31.58380221623526
 31
0.0
  0
LINE
  5
186
330
1F
100
AcDbEntity
  8
DIMENSIONS
  6
CONTINUOUS
 62
     1
100
AcDbLine
 10
16.56712367088977
 20
31.64074240615782
 30
0.0
 11
16.35461998910617
 21
31.58380221623526
 31
0.0
  0
LINE
  5
187
330
1F
100
AcDbEntity
  8
DIMENSIONS
  6
CONTINUOUS
 62
     1
100
AcDbLine
 10
16.56712367088977
 20
31.64074240615782
 30
0.0
 11
16.35461998910617
 21
31.69768259608037
 31
0.0
  0
LINE
  5
188
330
1F
100
AcDbEntity
  8
DIMENSIONS
  6
CONTINUOUS
 62
     1
100
AcDbLine
 10
15.55150879310813
 20
24.43425294263523
 30
0.0
 11
15.55150879310813
 21
31.69074240615782
 31
0.0
  0
LINE
  5
189
330
1F
100
AcDbEntity
  8
DIMENSIONS
  6
CONTINUOUS
 62
     1
100
AcDbLine
 10
16.56712367088977
 20
28.30596901115884
 30
0.0
 11
16.56712367088977
 21
31.69074240615782
 31
0.0
  0
TEXT
  5
18A
330
1F
100
AcDbEntity
  8
DIMENSIONS
  6
CONTINUOUS
 62
     1
100
AcDbText
 10
16.91044548696632
 20
31.54574240615782
 30
0.0
 40
0.19
  1
1.016
  7
AEC_TECH
100
AcDbText
  0
LINE
  5
18B
330
1F
100
AcDbEntity
  8
DIMENSIONS
  6
CONTINUOUS
 62
     1
100
AcDbLine
 10
15.55150879310813
 20
31.64074240615782
 30
0.0
 11
16.81044548696632
 21
31.64074240615782
 31
0.0
  0
LINE
  5
18C
330
1F
100
AcDbEntity
  8
DIMENSIONS
  6
CONTINUOUS
 62
     1
100
AcDbLine
 10
6.014633150717865
 20
29.2491593794168
 30
0.0
 11
6.214633150717865
 21
29.2491593794168
 31
0.0
  0
LINE
  5
18D
330
1F
100
AcDbEntity
  8
DIMENSIONS
  6
CONTINUOUS
 62
     1
100
AcDbLine
 10
5.754385516922701
 20
29.74997603537042
 30
0.0
 11
5.605873230313755
 21
29.91228469418499
 31
0.0
  0
LINE
  5
18E
330
1F
100
AcDbEntity
  8
DIMENSIONS
  6
CONTINUOUS
 62
     1
100
AcDbLine
 10
5.754385516922701
 20
29.74997603537042
 30
0.0
 11
5.70692443335252
 21
29.96479560046249
 31
0.0
  0
LINE
  5
18F
330
1F
100
AcDbEntity
  8
DIMENSIONS
  6
CONTINUOUS
 62
     1
100
AcDbLine
 10
5.552882272250708
 20
30.13774586708333
 30
0.0
 11
5.701394558859653
 21
29.97543720826877
 31
0.0
  0
LINE
  5
190
330
1F
100
AcDbEntity
  8
DIMENSIONS
  6
CONTINUOUS
 62
     1
100
AcDbLine
 10
5.552882272250708
 20
30.13774586708333
 30
0.0
 11
5.600343355820889
 21
29.92292630199127
 31
0.0
  0
LINE
  5
191
330
1F
100
AcDbEntity
  8
DIMENSIONS
  6
CONTINUOUS
 62
     1
100
AcDbLine
 10
5.552882272250708
 20
30.13774586708333
 30
0.0
 11
6.014633150717865
 21
29.2491593794168
 31
0.0
  0
TEXT
  5
192
330
1F
100
AcDbEntity
  8
DIMENSIONS
  6
CONTINUOUS
 62
     1
100
AcDbText
 10
6.314633150717865
 20
29.1541593794168
 30
0.0
 40
0.19
  1
.437
  7
AEC_TECH
100
AcDbText
  0
LINE
  5
193
330
1F
100
AcDbEntity
  8
DIMENSIONS
  6
CONTINUOUS
 62
     1
100
AcDbLine
 10
10.66921947157942
 20
29.27487532594089
 30
0.0
 11
10.46921947157942
 21
29.27487532594089
 31
0.0
  0
LINE
  5
194
330
1F
100
AcDbEntity
  8
DIMENSIONS
  6
CONTINUOUS
 62
     1
100
AcDbLine
 10
11.05774225123864
 20
29.75678953235641
 30
0.0
 11
11.1467891958629
 21
29.95796269570849
 31
0.0
  0
LINE
  5
195
330
1F
100
AcDbEntity
  8
DIMENSIONS
  6
CONTINUOUS
 62
     1
100
AcDbLine
 10
11.05774225123864
 20
29.75678953235641
 30
0.0
 11
11.23544574908868
 21
29.88648713006686
 31
0.0
  0
LINE
  5
196
330
1F
100
AcDbEntity
  8
DIMENSIONS
  6
CONTINUOUS
 62
     1
100
AcDbLine
 10
11.37156086397442
 20
30.14604250704073
 30
0.0
 11
11.28251391935016
 21
29.94486934368865
 31
0.0
  0
LINE
  5
197
330
1F
100
AcDbEntity
  8
DIMENSIONS
  6
CONTINUOUS
 62
     1
100
AcDbLine
 10
11.37156086397442
 20
30.14604250704073
 30
0.0
 11
11.19385736612438
 21
30.01634490933028
 31
0.0
  0
LINE
  5
198
330
1F
100
AcDbEntity
  8
DIMENSIONS
  6
CONTINUOUS
 62
     1
100
AcDbLine
 10
11.37156086397442
 20
30.14604250704073
 30
0.0
 11
10.66921947157942
 21
29.27487532594089
 31
0.0
  0
TEXT
  5
199
330
1F
100
AcDbEntity
  8
DIMENSIONS
  6
CONTINUOUS
 62
     1
100
AcDbText
 10
9.788566345516212
 20
29.17987532594089
 30
0.0
 40
0.19
  1
.500
  7
AEC_TECH
100
AcDbText
  0
LINE
  5
19A
330
1F
100
AcDbEntity
  8
DIMENSIONS
  6
CONTINUOUS
 62
     1
100
AcDbLine
 10
12.05788058388065
 20
28.29766935802521
 30
0.0
 11
11.85788058388065
 21
28.29766935802521
 31
0.0
  0
LINE
  5
19B
330
1F
100
AcDbEntity
  8
DIMENSIONS
  6
CONTINUOUS
 62
     1
100
AcDbLine
 10
12.43305033338785
 20
28.71212686519986
 30
0.0
 11
12.53344657733602
 21
28.90788333176252
 31
0.0
  0
LINE
  5
19C
330
1F
100
AcDbEntity
  8
DIMENSIONS
  6
CONTINUOUS
 62
     1
100
AcDbLine
 10
12.43305033338785
 20
28.71212686519986
 30
0.0
 11
12.61787426437284
 21
28.83145881622412
 31
0.0
  0
LINE
  5
19D
330
1F
100
AcDbEntity
  8
DIMENSIONS
  6
CONTINUOUS
 62
     1
100
AcDbLine
 10
12.72631870266889
 20
29.03610628364991
 30
0.0
 11
12.62592245872073
 21
28.84034981708724
 31
0.0
  0
LINE
  5
19E
330
1F
100
AcDbEntity
  8
DIMENSIONS
  6
CONTINUOUS
 62
     1
100
AcDbLine
 10
12.72631870266889
 20
29.03610628364991
 30
0.0
 11
12.54149477168391
 21
28.91677433262564
 31
0.0
  0
LINE
  5
19F
330
1F
100
AcDbEntity
  8
DIMENSIONS
  6
CONTINUOUS
 62
     1
100
AcDbLine
 10
12.72631870266889
 20
29.03610628364991
 30
0.0
 11
12.05788058388065
 21
28.29766935802521
 31
0.0
  0
TEXT
  5
1A0
330
1F
100
AcDbEntity
  8
DIMENSIONS
  6
CONTINUOUS
 62
     1
100
AcDbText
 10
11.20296229928297
 20
28.20266935802521
 30
0.0
 40
0.19
  1
.437
  7
AEC_TECH
100
AcDbText
  0
LINE
  5
1A1
330
1F
100
AcDbEntity
  8
DIMENSIONS
  6
CONTINUOUS
 62
     1
100
AcDbLine
 10
15.0666463272
 20
23.97739034197692
 30
0.0
 11
14.8666463272
 21
23.97739034197692
 31
0.0
  0
LINE
  5
1A2
330
1F
100
AcDbEntity
  8
DIMENSIONS
  6
CONTINUOUS
 62
     1
100
AcDbLine
 10
15.38071256481561
 20
24.22797785906876
 30
0.0
 11
15.51130889528208
 21
24.40502191705629
 31
0.0
  0
LINE
  5
1A3
330
1F
100
AcDbEntity
  8
DIMENSIONS
  6
CONTINUOUS
 62
     1
100
AcDbLine
 10
15.38071256481561
 20
24.22797785906876
 30
0.0
 11
15.58233433363437
 21
24.3160043456418
 31
0.0
  0
LINE
  5
1A4
330
1F
100
AcDbEntity
  8
DIMENSIONS
  6
CONTINUOUS
 62
     1
100
AcDbLine
 10
15.72230502140065
 20
24.5005280262017
 30
0.0
 11
15.59170869093417
 21
24.32348396821418
 31
0.0
  0
LINE
  5
1A5
330
1F
100
AcDbEntity
  8
DIMENSIONS
  6
CONTINUOUS
 62
     1
100
AcDbLine
 10
15.72230502140065
 20
24.5005280262017
 30
0.0
 11
15.52068325258189
 21
24.41250153962866
 31
0.0
  0
LINE
  5
1A6
330
1F
100
AcDbEntity
  8
DIMENSIONS
  6
CONTINUOUS
 62
     1
100
AcDbLine
 10
15.72230502140065
 20
24.5005280262017
 30
0.0
 11
15.0666463272
 21
23.97739034197692
 31
0.0
  0
TEXT
  5
1A7
330
1F
100
AcDbEntity
  8
DIMENSIONS
  6
CONTINUOUS
 62
     1
100
AcDbText
 10
14.21172804260231
 20
23.88239034197692
 30
0.0
 40
0.19
  1
.437
  7
AEC_TECH
100
AcDbText
  0
LINE
  5
1A8
330
1F
100
AcDbEntity
  8
DIMENSIONS
  6
CONTINUOUS
 62
     1
100
AcDbLine
 10
12.28932410259753
 20
17.88271101576593
 30
0.0
 11
12.08932410259753
 21
17.88271101576593
 31
0.0
  0
LINE
  5
1A9
330
1F
100
AcDbEntity
  8
DIMENSIONS
  6
CONTINUOUS
 62
     1
100
AcDbLine
 10
12.6178769536678
 20
17.51022337087687
 30
0.0
 11
12.80114919016799
 21
17.38852173847936
 31
0.0
  0
LINE
  5
1AA
330
1F
100
AcDbEntity
  8
DIMENSIONS
  6
CONTINUOUS
 62
     1
100
AcDbLine
 10
12.6178769536678
 20
17.51022337087687
 30
0.0
 11
12.7157445500866
 21
17.3131905472885
 31
0.0
  0
LINE
  5
1AB
330
1F
100
AcDbEntity
  8
DIMENSIONS
  6
CONTINUOUS
 62
     1
100
AcDbLine
 10
12.86593721422362
 20
17.22899195881026
 30
0.0
 11
12.68266497772343
 21
17.35069359120778
 31
0.0
  0
LINE
  5
1AC
330
1F
100
AcDbEntity
  8
DIMENSIONS
  6
CONTINUOUS
 62
     1
100
AcDbLine
 10
12.86593721422362
 20
17.22899195881026
 30
0.0
 11
12.76806961780483
 21
17.42602478239864
 31
0.0
  0
LINE
  5
1AD
330
1F
100
AcDbEntity
  8
DIMENSIONS
  6
CONTINUOUS
 62
     1
100
AcDbLine
 10
12.86593721422362
 20
17.22899195881026
 30
0.0
 11
12.28932410259753
 21
17.88271101576593
 31
0.0
  0
TEXT
  5
1AE
330
1F
100
AcDbEntity
  8
DIMENSIONS
  6
CONTINUOUS
 62
     1
100
AcDbText
 10
11.45070439629449
 20
17.78771101576594
 30
0.0
 40
0.19
  1
.375
  7
AEC_TECH
100
AcDbText
  0
LINE
  5
1AF
330
1F
100
AcDbEntity
  8
DIMENSIONS
  6
CONTINUOUS
 62
     1
100
AcDbLine
 10
5.500314220235925
 20
17.90842696229003
 30
0.0
 11
5.700314220235925
 21
17.90842696229003
 31
0.0
  0
LINE
  5
1B0
330
1F
100
AcDbEntity
  8
DIMENSIONS
  6
CONTINUOUS
 62
     1
100
AcDbLine
 10
5.15916298837169
 20
17.50096807741886
 30
0.0
 11
5.066401832170164
 21
17.30148031363332
 31
0.0
  0
LINE
  5
1B1
330
1F
100
AcDbEntity
  8
DIMENSIONS
  6
CONTINUOUS
 62
     1
100
AcDbLine
 10
5.15916298837169
 20
17.50096807741886
 30
0.0
 11
4.979085588723981
 21
17.37458718433719
 31
0.0
  0
LINE
  5
1B2
330
1F
100
AcDbEntity
  8
DIMENSIONS
  6
CONTINUOUS
 62
     1
100
AcDbLine
 10
4.918427257148793
 20
17.21344189128518
 30
0.0
 11
5.011188413350319
 21
17.41292965507072
 31
0.0
  0
LINE
  5
1B3
330
1F
100
AcDbEntity
  8
DIMENSIONS
  6
CONTINUOUS
 62
     1
100
AcDbLine
 10
4.918427257148793
 20
17.21344189128518
 30
0.0
 11
5.098504656796502
 21
17.33982278436685
 31
0.0
  0
LINE
  5
1B4
330
1F
100
AcDbEntity
  8
DIMENSIONS
  6
CONTINUOUS
 62
     1
100
AcDbLine
 10
4.918427257148792
 20
17.21344189128518
 30
0.0
 11
5.500314220235925
 21
17.90842696229003
 31
0.0
  0
TEXT
  5
1B5
330
1F
100
AcDbEntity
  8
DIMENSIONS
  6
CONTINUOUS
 62
     1
100
AcDbText
 10
5.800314220235925
 20
17.81342696229003
 30
0.0
 40
0.19
  1
.375
  7
AEC_TECH
100
AcDbText
  0
CIRCLE
  5
1B6
330
1F
100
AcDbEntity
  8
CENTERLINES
  6
CENTERD
 62
     9
 48
5.694136684631498
100
AcDbCircle
 10
8.883621484125442
 20
22.81782330345711
 30
0.0
 40
3.624999999999999
  0
LINE
  5
1B7
330
1F
100
AcDbEntity
  8
DIMENSIONS
  6
CONTINUOUS
 62
     1
100
AcDbLine
 10
7.068986958205841
 20
27.16616771096494
 30
0.0
 11
6.86898695820584
 21
27.16616771096494
 31
0.0
  0
LINE
  5
1B8
330
1F
100
AcDbEntity
  8
DIMENSIONS
  6
CONTINUOUS
 62
     1
100
AcDbLine
 10
7.487539456910214
 20
26.1632051909681
 30
0.0
 11
7.621928215777384
 21
25.98902235171537
 31
0.0
  0
LINE
  5
1B9
330
1F
100
AcDbEntity
  8
DIMENSIONS
  6
CONTINUOUS
 62
     1
100
AcDbLine
 10
7.487539456910214
 20
26.1632051909681
 30
0.0
 11
7.516832116445881
 21
25.94516404783835
 31
0.0
  0
LINE
  5
1BA
330
1F
100
AcDbEntity
  8
DIMENSIONS
  6
CONTINUOUS
 62
     1
100
AcDbLine
 10
10.27970351134067
 20
19.47244141594612
 30
0.0
 11
10.1453147524735
 21
19.64662425519885
 31
0.0
  0
LINE
  5
1BB
330
1F
100
AcDbEntity
  8
DIMENSIONS
  6
CONTINUOUS
 62
     1
100
AcDbLine
 10
10.27970351134067
 20
19.47244141594612
 30
0.0
 11
10.250410851805
 21
19.69048255907587
 31
0.0
  0
LINE
  5
1BC
330
1F
100
AcDbEntity
  8
DIMENSIONS
  6
CONTINUOUS
 62
     1
100
AcDbLine
 10
10.27970351134067
 20
19.47244141594611
 30
0.0
 11
7.068986958205841
 21
27.16616771096494
 31
0.0
  0
TEXT
  5
1BD
330
1F
100
AcDbEntity
  8
DIMENSIONS
  6
CONTINUOUS
 62
     1
100
AcDbText
 10
5.434196367789998
 20
27.07116771096494
 30
0.0
 40
0.19
  1
7.250 B.C.
  7
AEC_TECH
100
AcDbText
  0
LINE
  5
1BE
330
1F
100
AcDbEntity
  8
DIMENSIONS
  6
CONTINUOUS
 62
     1
100
AcDbLine
 10
8.631654928373228
 20
26.83779811883445
 30
0.0
 11
8.09762481916972
 21
27.86049826711556
 31
0.0
  0
LINE
  5
1BF
330
1F
100
AcDbEntity
  8
DIMENSIONS
  6
CONTINUOUS
 62
     1
100
AcDbLine
 10
8.631654928373228
 20
26.83779811883445
 30
0.0
 11
8.482819927113898
 21
26.99981090351558
 31
0.0
  0
LINE
  5
1C0
330
1F
100
AcDbEntity
  8
DIMENSIONS
  6
CONTINUOUS
 62
     1
100
AcDbLine
 10
8.631654928373228
 20
26.83779811883445
 30
0.0
 11
8.583766428650925
 21
27.05252280673584
 31
0.0
  0
LINE
  5
1C1
330
1F
100
AcDbEntity
  8
DIMENSIONS
  6
CONTINUOUS
 62
     1
100
AcDbLine
 10
8.09762481916972
 20
27.86049826711556
 30
0.0
 11
7.89762481916972
 21
27.86049826711556
 31
0.0
  0
TEXT
  5
1C2
330
1F
100
AcDbEntity
  8
DIMENSIONS
  6
CONTINUOUS
 62
     1
100
AcDbText
 10
6.714396526700321
 20
27.76549826711556
 30
0.0
 40
0.19
  1
NOTE A
  7
AEC_TECH
100
AcDbText
  0
LINE
  5
1C3
330
1F
100
AcDbEntity
  8
ADAPTER_PLATE
  6
CONTINUOUS
 62
     3
100
AcDbLine
 10
1.970191042797943
 20
4.969687358068544
 30
0.0
 11
4.624178793360095
 21
-1.02790700737506
 31
0.0
  0
LINE
  5
1C4
330
1F
100
AcDbEntity
  8
ADAPTER_PLATE
  6
CONTINUOUS
 62
     3
100
AcDbLine
 10
16.56712367088977
 20
6.78871672262445
 30
0.0
 11
13.22079128974619
 21
-1.02790700737506
 31
0.0
  0
LINE
  5
1C5
330
1F
100
AcDbEntity
  8
ADAPTER_PLATE
  6
CONTINUOUS
 62
     3
100
AcDbLine
 10
16.56712367088977
 20
10.90304060600574
 30
0.0
 11
16.56712367088977
 21
6.78871672262445
 31
0.0
  0
LINE
  5
1C6
330
1F
100
AcDbEntity
  8
ADAPTER_PLATE
  6
CONTINUOUS
 62
     3
100
AcDbLine
 10
11.47069791799869
 20
13.20362151013212
 30
0.0
 11
16.56712367088977
 21
10.90304060600574
 31
0.0
  0
LINE
  5
1C7
330
1F
100
AcDbEntity
  8
ADAPTER_PLATE
  6
CONTINUOUS
 62
     3
100
AcDbLine
 10
1.970191042797943
 20
7.414412318889759
 30
0.0
 11
5.41415543442092
 21
13.20362151013212
 31
0.0
  0
LINE
  5
1C8
330
1F
100
AcDbEntity
  8
ADAPTER_PLATE
  6
CONTINUOUS
 62
     3
100
AcDbLine
 10
11.47069791799869
 20
13.20362151013212
 30
0.0
 11
5.41415543442092
 21
13.20362151013212
 31
0.0
  0
LINE
  5
1C9
330
1F
100
AcDbEntity
  8
ADAPTER_PLATE
  6
CONTINUOUS
 62
     3
100
AcDbLine
 10
1.970191042797943
 20
7.414412318889759
 30
0.0
 11
1.970191042797943
 21
4.969687358068544
 31
0.0
  0
LINE
  5
1CA
330
1F
100
AcDbEntity
  8
ADAPTER_PLATE
  6
CONTINUOUS
 62
     3
100
AcDbLine
 10
13.22079128974619
 20
-1.02790700737506
 30
0.0
 11
4.624178793360095
 21
-1.02790700737506
 31
0.0
  0
CIRCLE
  5
1CB
330
1F
100
AcDbEntity
  8
ADAPTER_PLATE
  6
CONTINUOUS
 62
     3
100
AcDbCircle
 10
8.883621484125442
 20
5.48489489830401
 30
0.0
 40
3.0
  0
CIRCLE
  5
1CC
330
1F
100
AcDbEntity
  8
ADAPTER_PLATE
  6
CONTINUOUS
 62
     3
100
AcDbCircle
 10
8.883621484125442
 20
9.10989489830401
 30
0.0
 40
0.2654999999999959
  0
CIRCLE
  5
1CD
330
1F
100
AcDbEntity
  8
ADAPTER_PLATE
  6
CONTINUOUS
 62
     3
100
AcDbCircle
 10
11.44688356592668
 20
8.048156980105244
 30
0.0
 40
0.2655000000000012
  0
CIRCLE
  5
1CE
330
1F
100
AcDbEntity
  8
ADAPTER_PLATE
  6
CONTINUOUS
 62
     3
100
AcDbCircle
 10
12.50862148412545
 20
5.48489489830401
 30
0.0
 40
0.2654999999999994
  0
CIRCLE
  5
1CF
330
1F
100
AcDbEntity
  8
ADAPTER_PLATE
  6
CONTINUOUS
 62
     3
100
AcDbCircle
 10
11.44688356592668
 20
2.921632816502775
 30
0.0
 40
0.2655000000000012
  0
CIRCLE
  5
1D0
330
1F
100
AcDbEntity
  8
ADAPTER_PLATE
  6
CONTINUOUS
 62
     3
100
AcDbCircle
 10
8.883621484125449
 20
1.859894898304006
 30
0.0
 40
0.2654999999999959
  0
CIRCLE
  5
1D1
330
1F
100
AcDbEntity
  8
ADAPTER_PLATE
  6
CONTINUOUS
 62
     3
100
AcDbCircle
 10
6.320359402324208
 20
2.921632816502772
 30
0.0
 40
0.2655000000000037
  0
CIRCLE
  5
1D2
330
1F
100
AcDbEntity
  8
ADAPTER_PLATE
  6
CONTINUOUS
 62
     3
100
AcDbCircle
 10
5.258621484125442
 20
5.484894898304013
 30
0.0
 40
0.265500000000003
  0
CIRCLE
  5
1D3
330
1F
100
AcDbEntity
  8
ADAPTER_PLATE
  6
CONTINUOUS
 62
     3
100
AcDbCircle
 10
6.320359402324208
 20
8.04815698010524
 30
0.0
 40
0.2655000000000012
  0
CIRCLE
  5
1D4
330
1F
100
AcDbEntity
  8
ADAPTER_PLT_HOLES
  6
CONTINUOUS
 62
     3
100
AcDbCircle
 10
11.21465155760653
 20
12.61848761454547
 30
0.0
 40
0.25
  0
CIRCLE
  5
1D5
330
1F
100
AcDbEntity
  8
ADAPTER_PLT_HOLES
  6
CONTINUOUS
 62
     3
100
AcDbCircle
 10
12.57968451802837
 20
11.54118816927178
 30
0.0
 40
0.2184999999999988
  0
CIRCLE
  5
1D6
330
1F
100
AcDbEntity
  8
ADAPTER_PLT_HOLES
  6
CONTINUOUS
 62
     3
100
AcDbCircle
 10
15.55150879310813
 20
7.031324537482131
 30
0.0
 40
0.2184999999999988
  0
CIRCLE
  5
1D7
330
1F
100
AcDbEntity
  8
ADAPTER_PLT_HOLES
  6
CONTINUOUS
 62
     3
100
AcDbCircle
 10
12.74190708394571
 20
0.0366792596904659
 30
0.0
 40
0.1875
  0
CIRCLE
  5
1D8
330
1F
100
AcDbEntity
  8
ADAPTER_PLT_HOLES
  6
CONTINUOUS
 62
     3
100
AcDbCircle
 10
5.038795122760241
 20
0.0242765791989186
 30
0.0
 40
0.1875
  0
CIRCLE
  5
1D9
330
1F
100
AcDbEntity
  8
ADAPTER_PLT_HOLES
  6
CONTINUOUS
 62
     3
100
AcDbCircle
 10
5.653633894586704
 20
12.61093254607378
 30
0.0
 40
0.2184999999999988
  0
CIRCLE
  5
1DA
330
1F
100
AcDbEntity
  8
ADAPTER_PLATE
  6
CONTINUOUS
 62
     3
100
AcDbCircle
 10
8.883621484125445
 20
9.10989489830401
 30
0.0
 40
0.4685000000000006
  0
CIRCLE
  5
1DB
330
1F
100
AcDbEntity
  8
ADAPTER_PLATE
  6
CONTINUOUS
 62
     3
100
AcDbCircle
 10
6.320359402324209
 20
8.048156980105244
 30
0.0
 40
0.4685000000000043
  0
CIRCLE
  5
1DC
330
1F
100
AcDbEntity
  8
ADAPTER_PLATE
  6
CONTINUOUS
 62
     3
100
AcDbCircle
 10
5.258621484125442
 20
5.484894898304013
 30
0.0
 40
0.4684999999999988
  0
CIRCLE
  5
1DD
330
1F
100
AcDbEntity
  8
ADAPTER_PLATE
  6
CONTINUOUS
 62
     3
100
AcDbCircle
 10
6.320359402324204
 20
2.921632816502775
 30
0.0
 40
0.4684999999999993
  0
CIRCLE
  5
1DE
330
1F
100
AcDbEntity
  8
ADAPTER_PLATE
  6
CONTINUOUS
 62
     3
100
AcDbCircle
 10
8.883621484125438
 20
1.85989489830401
 30
0.0
 40
0.4685000000000006
  0
CIRCLE
  5
1DF
330
1F
100
AcDbEntity
  8
ADAPTER_PLATE
  6
CONTINUOUS
 62
     3
100
AcDbCircle
 10
11.44688356592668
 20
2.921632816502768
 30
0.0
 40
0.4684999999999993
  0
CIRCLE
  5
1E0
330
1F
100
AcDbEntity
  8
ADAPTER_PLATE
  6
CONTINUOUS
 62
     3
100
AcDbCircle
 10
12.50862148412544
 20
5.484894898304002
 30
0.0
 40
0.4684999999999988
  0
CIRCLE
  5
1E1
330
1F
100
AcDbEntity
  8
ADAPTER_PLATE
  6
CONTINUOUS
 62
     3
100
AcDbCircle
 10
11.44688356592668
 20
8.04815698010524
 30
0.0
 40
0.4685000000000018
  0
CIRCLE
  5
1E2
330
1F
100
AcDbEntity
  8
ADAPTER_PLT_HOLES
  6
CONTINUOUS
 62
     5
100
AcDbCircle
 10
15.06901013796334
 20
5.756336559903296
 30
0.0
 40
0.2109999999999985
  0
CIRCLE
  5
1E3
330
1F
100
AcDbEntity
  8
ADAPTER_PLT_HOLES
  6
CONTINUOUS
 62
     5
100
AcDbCircle
 10
11.36737318937726
 20
-0.5595175030639084
 30
0.0
 40
0.1875
  0
CIRCLE
  5
1E4
330
1F
100
AcDbEntity
  8
ADAPTER_PLT_HOLES
  6
CONTINUOUS
 62
     5
100
AcDbCircle
 10
2.696603776822577
 20
5.709426739115926
 30
0.0
 40
0.2109999999999985
  0
CIRCLE
  5
1E5
330
1F
100
AcDbEntity
  8
ADAPTER_PLT_HOLES
  6
CONTINUOUS
 62
     5
100
AcDbCircle
 10
3.029121763700388
 20
8.135173476165185
 30
0.0
 40
0.1875
  0
CIRCLE
  5
1E6
330
1F
100
AcDbEntity
  8
ADAPTER_PLT_HOLES
  6
CONTINUOUS
 62
     5
100
AcDbCircle
 10
9.70333925095725
 20
12.71782662778391
 30
0.0
 40
0.1875
  0
LINE
  5
1E7
330
1F
100
AcDbEntity
  8
CENTERLINES
  6
CENTERD
 62
     9
 48
3.093123822453631
100
AcDbLine
 10
15.06901013796334
 20
5.756336559903296
 30
0.0
 11
2.696603776822577
 21
5.709426739115926
 31
0.0
  0
LINE
  5
1E8
330
1F
100
AcDbEntity
  8
CENTERLINES
  6
CENTERD
 62
     9
 48
1.547835451822123
100
AcDbLine
 10
15.06901013796334
 20
5.756336559903296
 30
0.0
 11
8.883621484125442
 21
5.48489489830401
 31
0.0
  0
LINE
  5
1E9
330
1F
100
AcDbEntity
  8
CENTERLINES
  6
CENTERD
 62
     9
 48
1.547772646781852
100
AcDbLine
 10
8.883621484125442
 20
5.48489489830401
 30
0.0
 11
2.696603776822577
 21
5.709426739115926
 31
0.0
  0
LINE
  5
1EA
330
1F
100
AcDbEntity
  8
CENTERLINES
  6
CENTERD
 62
     9
 48
1.812500000000001
100
AcDbLine
 10
8.883621484125449
 20
1.859894898304006
 30
0.0
 11
8.883621484125442
 21
9.10989489830401
 31
0.0
  0
LINE
  5
1EB
330
1F
100
AcDbEntity
  8
CENTERLINES
  6
CENTERD
 62
     9
 48
1.812500000000001
100
AcDbLine
 10
5.258621484125442
 20
5.484894898304013
 30
0.0
 11
12.50862148412545
 21
5.484894898304013
 31
0.0
  0
TEXT
  5
1EC
330
1F
100
AcDbEntity
  8
DIMENSIONS
  6
CONTINUOUS
 62
     7
100
AcDbText
 10
0.2354972361123995
 20
15.25809813840679
 30
0.0
 40
0.25
  1
TRANS. SIDE - VIEW A
  7
MAIN
100
AcDbText
  0
LINE
  5
1ED
330
1F
100
AcDbEntity
  8
DIMENSIONS
  6
CONTINUOUS
 62
     1
100
AcDbLine
 10
2.634661471342041
 20
4.002594694923691
 30
0.0
 11
2.849090400952909
 21
4.051790570217639
 31
0.0
  0
LINE
  5
1EE
330
1F
100
AcDbEntity
  8
DIMENSIONS
  6
CONTINUOUS
 62
     1
100
AcDbLine
 10
2.634661471342041
 20
4.002594694923691
 30
0.0
 11
2.844960309338332
 21
3.937985107884228
 31
0.0
  0
LINE
  5
1EF
330
1F
100
AcDbEntity
  8
DIMENSIONS
  6
CONTINUOUS
 62
     1
100
AcDbLine
 10
8.821679178644988
 20
3.778062854111777
 30
0.0
 11
8.60725024903412
 21
3.728866978817829
 31
0.0
  0
LINE
  5
1F0
330
1F
100
AcDbEntity
  8
DIMENSIONS
  6
CONTINUOUS
 62
     1
100
AcDbLine
 10
8.821679178644988
 20
3.778062854111777
 30
0.0
 11
8.611380340648697
 21
3.842672441151241
 31
0.0
  0
LINE
  5
1F1
330
1F
100
AcDbEntity
  8
DIMENSIONS
  6
CONTINUOUS
 62
     1
100
AcDbLine
 10
2.694065091814557
 20
5.639472789417356
 30
0.0
 11
2.632848124907742
 21
3.952627587996141
 31
0.0
  0
LINE
  5
1F2
330
1F
100
AcDbEntity
  8
DIMENSIONS
  6
CONTINUOUS
 62
     1
100
AcDbLine
 10
8.881082799117504
 20
5.414940948605443
 30
0.0
 11
8.819865832210688
 21
3.728095747184227
 31
0.0
  0
TEXT
  5
1F3
330
1F
100
AcDbEntity
  8
DIMENSIONS
  6
CONTINUOUS
 62
     1
100
AcDbText
 10
4.591784789778039
 20
3.813734976891196
 30
0.0
 40
0.19
  1
REF 6.191
  7
AEC_TECH
100
AcDbText
  0
LINE
  5
1F4
330
1F
100
AcDbEntity
  8
DIMENSIONS
  6
CONTINUOUS
 62
     1
100
AcDbLine
 10
2.634661471342041
 20
4.002594694923691
 30
0.0
 11
4.491784789778039
 21
3.935198198416016
 31
0.0
  0
LINE
  5
1F5
330
1F
100
AcDbEntity
  8
DIMENSIONS
  6
CONTINUOUS
 62
     1
100
AcDbLine
 10
5.95018302473923
 20
3.882271755366377
 30
0.0
 11
8.821679178644988
 21
3.778062854111777
 31
0.0
  0
LINE
  5
1F6
330
1F
100
AcDbEntity
  8
DIMENSIONS
  6
CONTINUOUS
 62
     1
100
AcDbLine
 10
8.958486495153654
 20
3.778932788232142
 30
0.0
 11
9.168289468865996
 21
3.845134844253526
 31
0.0
  0
LINE
  5
1F7
330
1F
100
AcDbEntity
  8
DIMENSIONS
  6
CONTINUOUS
 62
     1
100
AcDbLine
 10
8.958486495153654
 20
3.778932788232142
 30
0.0
 11
9.173282228188752
 21
3.73136396367325
 31
0.0
  0
LINE
  5
1F8
330
1F
100
AcDbEntity
  8
DIMENSIONS
  6
CONTINUOUS
 62
     1
100
AcDbLine
 10
15.14387514899154
 20
4.050374449831428
 30
0.0
 11
14.9340721752792
 21
3.984172393810044
 31
0.0
  0
LINE
  5
1F9
330
1F
100
AcDbEntity
  8
DIMENSIONS
  6
CONTINUOUS
 62
     1
100
AcDbLine
 10
15.14387514899154
 20
4.050374449831428
 30
0.0
 11
14.92907941595645
 21
4.09794327439032
 31
0.0
  0
LINE
  5
1FA
330
1F
100
AcDbEntity
  8
DIMENSIONS
  6
CONTINUOUS
 62
     1
100
AcDbLine
 10
8.886690433781816
 20
5.41496220531992
 30
0.0
 11
8.96067860205106
 21
3.728980864672079
 31
0.0
  0
LINE
  5
1FB
330
1F
100
AcDbEntity
  8
DIMENSIONS
  6
CONTINUOUS
 62
     1
100
AcDbLine
 10
15.07207908761971
 20
5.686403866919209
 30
0.0
 11
15.14606725588895
 21
4.000422526271365
 31
0.0
  0
TEXT
  5
1FC
330
1F
100
AcDbEntity
  8
DIMENSIONS
  6
CONTINUOUS
 62
     1
100
AcDbText
 10
11.92474307886541
 20
3.841716967102247
 30
0.0
 40
0.19
  1
REF 6.191
  7
AEC_TECH
100
AcDbText
  0
LINE
  5
1FD
330
1F
100
AcDbEntity
  8
DIMENSIONS
  6
CONTINUOUS
 62
     1
100
AcDbLine
 10
8.958486495153654
 20
3.778932788232142
 30
0.0
 11
11.82474307886541
 21
3.904716549478877
 31
0.0
  0
LINE
  5
1FE
330
1F
100
AcDbEntity
  8
DIMENSIONS
  6
CONTINUOUS
 62
     1
100
AcDbLine
 10
13.2831413138266
 20
3.968717384725617
 30
0.0
 11
15.14387514899154
 21
4.050374449831428
 31
0.0
  0
LINE
  5
1FF
330
1F
100
AcDbEntity
  8
DIMENSIONS
  6
CONTINUOUS
 62
     1
100
AcDbLine
 10
2.693407469419479
 20
6.552448805337729
 30
0.0
 11
2.905693737357891
 21
6.610194285202221
 31
0.0
  0
LINE
  5
200
330
1F
100
AcDbEntity
  8
DIMENSIONS
  6
CONTINUOUS
 62
     1
100
AcDbLine
 10
2.693407469419479
 20
6.552448805337729
 30
0.0
 11
2.90612551026098
 21
6.496314723884895
 31
0.0
  0
LINE
  5
201
330
1F
100
AcDbEntity
  8
DIMENSIONS
  6
CONTINUOUS
 62
     1
100
AcDbLine
 10
15.06581383056024
 20
6.599358626125099
 30
0.0
 11
14.85352756262182
 21
6.541613146260607
 31
0.0
  0
LINE
  5
202
330
1F
100
AcDbEntity
  8
DIMENSIONS
  6
CONTINUOUS
 62
     1
100
AcDbLine
 10
15.06581383056024
 20
6.599358626125099
 30
0.0
 11
14.85309578971873
 21
6.655492707577933
 31
0.0
  0
LINE
  5
203
330
1F
100
AcDbEntity
  8
DIMENSIONS
  6
CONTINUOUS
 62
     1
100
AcDbLine
 10
2.696338374623732
 20
5.77942623598321
 30
0.0
 11
2.693217896420304
 21
6.602448445957217
 31
0.0
  0
LINE
  5
204
330
1F
100
AcDbEntity
  8
DIMENSIONS
  6
CONTINUOUS
 62
     1
100
AcDbLine
 10
15.06874473576449
 20
5.82633605677058
 30
0.0
 11
15.06562425756106
 21
6.649358266744587
 31
0.0
  0
TEXT
  5
205
330
1F
100
AcDbEntity
  8
DIMENSIONS
  6
CONTINUOUS
 62
     1
100
AcDbText
 10
6.817776131999949
 20
6.476636232190865
 30
0.0
 40
0.19
  1
12.372%%p.001
  7
AEC_TECH
100
AcDbText
  0
LINE
  5
206
330
1F
100
AcDbEntity
  8
DIMENSIONS
  6
CONTINUOUS
 62
     1
100
AcDbLine
 10
2.693407469419479
 20
6.552448805337729
 30
0.0
 11
6.88432115071612
 21
6.568338601064325
 31
0.0
  0
LINE
  5
207
330
1F
100
AcDbEntity
  8
DIMENSIONS
  6
CONTINUOUS
 62
     1
100
AcDbLine
 10
8.623813292953836
 20
6.574933863317406
 30
0.0
 11
15.06581383056024
 21
6.599358626125099
 31
0.0
  0
TEXT
  5
208
330
1F
100
AcDbEntity
  8
DIMENSIONS
  6
CONTINUOUS
 62
     7
100
AcDbText
 10
15.32091478102402
 20
6.033519292024678
 30
0.0
 40
0.2
  1
A
  7
MAIN
100
AcDbText
  0
TEXT
  5
209
330
1F
100
AcDbEntity
  8
DIMENSIONS
  6
CONTINUOUS
 62
     7
100
AcDbText
 10
2.235249124246238
 20
5.964978581288872
 30
0.0
 40
0.2
  1
A
  7
MAIN
100
AcDbText
  0
TEXT
  5
20A
330
1F
100
AcDbEntity
  8
DIMENSIONS
  6
CONTINUOUS
 62
     7
100
AcDbText
 10
3.334921566927669
 20
8.229813318747011
 30
0.0
 40
0.2
  1
B
  7
MAIN
100
AcDbText
  0
LINE
  5
20B
330
1F
100
AcDbEntity
  8
DIMENSIONS
  6
CONTINUOUS
 62
     1
100
AcDbLine
 10
3.703746319453716
 20
7.152644173079852
 30
0.0
 11
3.846699964069642
 21
7.31986933712828
 31
0.0
  0
LINE
  5
20C
330
1F
100
AcDbEntity
  8
DIMENSIONS
  6
CONTINUOUS
 62
     1
100
AcDbLine
 10
3.703746319453716
 20
7.152644173079852
 30
0.0
 11
3.911160389278894
 21
7.225988590989847
 31
0.0
  0
LINE
  5
20D
330
1F
100
AcDbEntity
  8
DIMENSIONS
  6
CONTINUOUS
 62
     1
100
AcDbLine
 10
10.37796380671058
 20
11.73529732469858
 30
0.0
 11
10.23501016209465
 21
11.56807216065015
 31
0.0
  0
LINE
  5
20E
330
1F
100
AcDbEntity
  8
DIMENSIONS
  6
CONTINUOUS
 62
     1
100
AcDbLine
 10
10.37796380671058
 20
11.73529732469858
 30
0.0
 11
10.1705497368854
 21
11.66195290678858
 31
0.0
  0
LINE
  5
20F
330
1F
100
AcDbEntity
  8
DIMENSIONS
  6
CONTINUOUS
 62
     1
100
AcDbLine
 10
3.068744302462419
 20
8.077466852437476
 30
0.0
 11
3.732048132855166
 21
7.111425156131489
 31
0.0
  0
LINE
  5
210
330
1F
100
AcDbEntity
  8
DIMENSIONS
  6
CONTINUOUS
 62
     1
100
AcDbLine
 10
9.74296178971928
 20
12.6601200040562
 30
0.0
 11
10.40626562011203
 21
11.69407830775021
 31
0.0
  0
TEXT
  5
211
330
1F
100
AcDbEntity
  8
DIMENSIONS
  6
CONTINUOUS
 62
     1
100
AcDbText
 10
6.128020841997218
 20
9.348970748889213
 30
0.0
 40
0.19
  1
8.096%%p.001
  7
AEC_TECH
100
AcDbText
  0
LINE
  5
212
330
1F
100
AcDbEntity
  8
DIMENSIONS
  6
CONTINUOUS
 62
     1
100
AcDbLine
 10
3.703746319453716
 20
7.152644173079852
 30
0.0
 11
6.756855299854294
 21
9.248970748889214
 31
0.0
  0
LINE
  5
213
330
1F
100
AcDbEntity
  8
DIMENSIONS
  6
CONTINUOUS
 62
     1
100
AcDbLine
 10
7.32485482631
 20
9.638970748889214
 30
0.0
 11
10.37796380671058
 21
11.73529732469858
 31
0.0
  0
LINE
  5
214
330
1F
100
AcDbEntity
  8
DIMENSIONS
  6
CONTINUOUS
 62
     1
100
AcDbLine
 10
8.883621484125442
 20
10.29639781996777
 30
0.0
 11
9.096125165909037
 21
10.35333800989033
 31
0.0
  0
LINE
  5
215
330
1F
100
AcDbEntity
  8
DIMENSIONS
  6
CONTINUOUS
 62
     1
100
AcDbLine
 10
8.883621484125442
 20
10.29639781996777
 30
0.0
 11
9.096125165909037
 21
10.23945763004522
 31
0.0
  0
LINE
  5
216
330
1F
100
AcDbEntity
  8
DIMENSIONS
  6
CONTINUOUS
 62
     1
100
AcDbLine
 10
16.56712367088977
 20
10.29639781996777
 30
0.0
 11
16.35461998910617
 21
10.23945763004522
 31
0.0
  0
LINE
  5
217
330
1F
100
AcDbEntity
  8
DIMENSIONS
  6
CONTINUOUS
 62
     1
100
AcDbLine
 10
16.56712367088977
 20
10.29639781996777
 30
0.0
 11
16.35461998910617
 21
10.35333800989033
 31
0.0
  0
LINE
  5
218
330
1F
100
AcDbEntity
  8
DIMENSIONS
  6
CONTINUOUS
 62
     1
100
AcDbLine
 10
8.883621484125442
 20
9.17989489830401
 30
0.0
 11
8.883621484125442
 21
10.34639781996778
 31
0.0
  0
LINE
  5
219
330
1F
100
AcDbEntity
  8
DIMENSIONS
  6
CONTINUOUS
 62
     1
100
AcDbLine
 10
16.56712367088977
 20
9.17989489830401
 30
0.0
 11
16.56712367088977
 21
10.34639781996778
 31
0.0
  0
TEXT
  5
21A
330
1F
100
AcDbEntity
  8
DIMENSIONS
  6
CONTINUOUS
 62
     1
100
AcDbText
 10
12.35596788281295
 20
10.20139781996777
 30
0.0
 40
0.19
  1
7.684
  7
AEC_TECH
100
AcDbText
  0
LINE
  5
21B
330
1F
100
AcDbEntity
  8
DIMENSIONS
  6
CONTINUOUS
 62
     1
100
AcDbLine
 10
8.883621484125442
 20
10.29639781996777
 30
0.0
 11
12.25596788281296
 21
10.29639781996777
 31
0.0
  0
LINE
  5
21C
330
1F
100
AcDbEntity
  8
DIMENSIONS
  6
CONTINUOUS
 62
     1
100
AcDbLine
 10
13.19477727220225
 20
10.29639781996777
 30
0.0
 11
16.56712367088977
 21
10.29639781996777
 31
0.0
  0
LINE
  5
21D
330
1F
100
AcDbEntity
  8
DIMENSIONS
  6
CONTINUOUS
 62
     1
100
AcDbLine
 10
8.883621484125442
 20
9.79953864641319
 30
0.0
 11
9.096125165909037
 21
9.856478836335745
 31
0.0
  0
LINE
  5
21E
330
1F
100
AcDbEntity
  8
DIMENSIONS
  6
CONTINUOUS
 62
     1
100
AcDbLine
 10
8.883621484125442
 20
9.79953864641319
 30
0.0
 11
9.096125165909037
 21
9.742598456490635
 31
0.0
  0
LINE
  5
21F
330
1F
100
AcDbEntity
  8
DIMENSIONS
  6
CONTINUOUS
 62
     1
100
AcDbLine
 10
15.06901013796334
 20
9.79953864641319
 30
0.0
 11
14.85650645617974
 21
9.742598456490635
 31
0.0
  0
LINE
  5
220
330
1F
100
AcDbEntity
  8
DIMENSIONS
  6
CONTINUOUS
 62
     1
100
AcDbLine
 10
15.06901013796334
 20
9.79953864641319
 30
0.0
 11
14.85650645617974
 21
9.856478836335745
 31
0.0
  0
LINE
  5
221
330
1F
100
AcDbEntity
  8
DIMENSIONS
  6
CONTINUOUS
 62
     1
100
AcDbLine
 10
8.883621484125442
 20
9.17989489830401
 30
0.0
 11
8.883621484125442
 21
9.84953864641319
 31
0.0
  0
LINE
  5
222
330
1F
100
AcDbEntity
  8
DIMENSIONS
  6
CONTINUOUS
 62
     1
100
AcDbLine
 10
15.06901013796334
 20
5.826336559903297
 30
0.0
 11
15.06901013796334
 21
9.84953864641319
 31
0.0
  0
TEXT
  5
223
330
1F
100
AcDbEntity
  8
DIMENSIONS
  6
CONTINUOUS
 62
     1
100
AcDbText
 10
11.10928215645591
 20
9.704538646413189
 30
0.0
 40
0.19
  1
6.185%%p.001
  7
AEC_TECH
100
AcDbText
  0
LINE
  5
224
330
1F
100
AcDbEntity
  8
DIMENSIONS
  6
CONTINUOUS
 62
     1
100
AcDbLine
 10
8.883621484125442
 20
9.79953864641319
 30
0.0
 11
11.17582717517208
 21
9.79953864641319
 31
0.0
  0
LINE
  5
225
330
1F
100
AcDbEntity
  8
DIMENSIONS
  6
CONTINUOUS
 62
     1
100
AcDbLine
 10
12.77680444691669
 20
9.79953864641319
 30
0.0
 11
15.06901013796334
 21
9.79953864641319
 31
0.0
  0
LINE
  5
226
330
1F
100
AcDbEntity
  8
DIMENSIONS
  6
CONTINUOUS
 62
     1
100
AcDbLine
 10
8.883621484125449
 20
-1.770182109214989
 30
0.0
 11
9.096125165909044
 21
-1.713241919292434
 31
0.0
  0
LINE
  5
227
330
1F
100
AcDbEntity
  8
DIMENSIONS
  6
CONTINUOUS
 62
     1
100
AcDbLine
 10
8.883621484125449
 20
-1.770182109214989
 30
0.0
 11
9.096125165909044
 21
-1.827122299137543
 31
0.0
  0
LINE
  5
228
330
1F
100
AcDbEntity
  8
DIMENSIONS
  6
CONTINUOUS
 62
     1
100
AcDbLine
 10
11.36737318937726
 20
-1.770182109214989
 30
0.0
 11
11.15486950759367
 21
-1.827122299137544
 31
0.0
  0
LINE
  5
229
330
1F
100
AcDbEntity
  8
DIMENSIONS
  6
CONTINUOUS
 62
     1
100
AcDbLine
 10
11.36737318937726
 20
-1.770182109214989
 30
0.0
 11
11.15486950759367
 21
-1.713241919292435
 31
0.0
  0
LINE
  5
22A
330
1F
100
AcDbEntity
  8
DIMENSIONS
  6
CONTINUOUS
 62
     1
100
AcDbLine
 10
8.883621484125449
 20
1.789894898304006
 30
0.0
 11
8.883621484125449
 21
-1.820182109214989
 31
0.0
  0
LINE
  5
22B
330
1F
100
AcDbEntity
  8
DIMENSIONS
  6
CONTINUOUS
 62
     1
100
AcDbLine
 10
11.36737318937726
 20
-0.6295175030639084
 30
0.0
 11
11.36737318937726
 21
-1.820182109214989
 31
0.0
  0
TEXT
  5
22C
330
1F
100
AcDbEntity
  8
DIMENSIONS
  6
CONTINUOUS
 62
     1
100
AcDbText
 10
9.759717103749605
 20
-1.865182109214989
 30
0.0
 40
0.19
  1
2.484
  7
AEC_TECH
100
AcDbText
  0
LINE
  5
22D
330
1F
100
AcDbEntity
  8
DIMENSIONS
  6
CONTINUOUS
 62
     1
100
AcDbLine
 10
8.883621484125449
 20
-1.770182109214989
 30
0.0
 11
9.659717103749605
 21
-1.770182109214989
 31
0.0
  0
LINE
  5
22E
330
1F
100
AcDbEntity
  8
DIMENSIONS
  6
CONTINUOUS
 62
     1
100
AcDbLine
 10
10.5912775697531
 20
-1.770182109214989
 30
0.0
 11
11.36737318937726
 21
-1.770182109214989
 31
0.0
  0
LINE
  5
22F
330
1F
100
AcDbEntity
  8
DIMENSIONS
  6
CONTINUOUS
 62
     1
100
AcDbLine
 10
3.029121763700388
 20
13.84539191678623
 30
0.0
 11
3.241625445483983
 21
13.90233210670879
 31
0.0
  0
LINE
  5
230
330
1F
100
AcDbEntity
  8
DIMENSIONS
  6
CONTINUOUS
 62
     1
100
AcDbLine
 10
3.029121763700388
 20
13.84539191678623
 30
0.0
 11
3.241625445483983
 21
13.78845172686368
 31
0.0
  0
LINE
  5
231
330
1F
100
AcDbEntity
  8
DIMENSIONS
  6
CONTINUOUS
 62
     1
100
AcDbLine
 10
8.883621484125442
 20
13.84539191678623
 30
0.0
 11
8.671117802341847
 21
13.78845172686368
 31
0.0
  0
LINE
  5
232
330
1F
100
AcDbEntity
  8
DIMENSIONS
  6
CONTINUOUS
 62
     1
100
AcDbLine
 10
8.883621484125442
 20
13.84539191678623
 30
0.0
 11
8.671117802341847
 21
13.90233210670879
 31
0.0
  0
LINE
  5
233
330
1F
100
AcDbEntity
  8
DIMENSIONS
  6
CONTINUOUS
 62
     1
100
AcDbLine
 10
3.029121763700388
 20
8.205173476165186
 30
0.0
 11
3.029121763700389
 21
13.89539191678623
 31
0.0
  0
LINE
  5
234
330
1F
100
AcDbEntity
  8
DIMENSIONS
  6
CONTINUOUS
 62
     1
100
AcDbLine
 10
8.883621484125442
 20
9.17989489830401
 30
0.0
 11
8.883621484125442
 21
13.89539191678623
 31
0.0
  0
TEXT
  5
235
330
1F
100
AcDbEntity
  8
DIMENSIONS
  6
CONTINUOUS
 62
     1
100
AcDbText
 10
5.596065397357906
 20
13.75039191678623
 30
0.0
 40
0.19
  1
5.854
  7
AEC_TECH
100
AcDbText
  0
LINE
  5
236
330
1F
100
AcDbEntity
  8
DIMENSIONS
  6
CONTINUOUS
 62
     1
100
AcDbLine
 10
3.029121763700388
 20
13.84539191678623
 30
0.0
 11
5.496065397357905
 21
13.84539191678623
 31
0.0
  0
LINE
  5
237
330
1F
100
AcDbEntity
  8
DIMENSIONS
  6
CONTINUOUS
 62
     1
100
AcDbLine
 10
6.416677850467924
 20
13.84539191678623
 30
0.0
 11
8.883621484125442
 21
13.84539191678623
 31
0.0
  0
LINE
  5
238
330
1F
100
AcDbEntity
  8
DIMENSIONS
  6
CONTINUOUS
 62
     1
100
AcDbLine
 10
1.058529003360213
 20
5.484894898304013
 30
0.0
 11
1.001588813437658
 21
5.697398580087608
 31
0.0
  0
LINE
  5
239
330
1F
100
AcDbEntity
  8
DIMENSIONS
  6
CONTINUOUS
 62
     1
100
AcDbLine
 10
1.058529003360213
 20
5.484894898304013
 30
0.0
 11
1.115469193282767
 21
5.697398580087608
 31
0.0
  0
LINE
  5
23A
330
1F
100
AcDbEntity
  8
DIMENSIONS
  6
CONTINUOUS
 62
     1
100
AcDbLine
 10
1.058529003360213
 20
8.135173476165185
 30
0.0
 11
1.115469193282768
 21
7.922669794381591
 31
0.0
  0
LINE
  5
23B
330
1F
100
AcDbEntity
  8
DIMENSIONS
  6
CONTINUOUS
 62
     1
100
AcDbLine
 10
1.058529003360213
 20
8.135173476165185
 30
0.0
 11
1.001588813437658
 21
7.922669794381591
 31
0.0
  0
LINE
  5
23C
330
1F
100
AcDbEntity
  8
DIMENSIONS
  6
CONTINUOUS
 62
     1
100
AcDbLine
 10
5.188621484125441
 20
5.484894898304013
 30
0.0
 11
1.008529003360213
 21
5.484894898304014
 31
0.0
  0
LINE
  5
23D
330
1F
100
AcDbEntity
  8
DIMENSIONS
  6
CONTINUOUS
 62
     1
100
AcDbLine
 10
2.959121763700388
 20
8.135173476165185
 30
0.0
 11
1.008529003360213
 21
8.135173476165185
 31
0.0
  0
TEXT
  5
23E
330
1F
100
AcDbEntity
  8
DIMENSIONS
  6
CONTINUOUS
 62
     1
100
AcDbText
 10
0.6937604393764427
 20
6.7150341872346
 30
0.0
 40
0.19
  1
2.650
  7
AEC_TECH
100
AcDbText
  0
LINE
  5
23F
330
1F
100
AcDbEntity
  8
DIMENSIONS
  6
CONTINUOUS
 62
     1
100
AcDbLine
 10
1.058529003360213
 20
5.484894898304013
 30
0.0
 11
1.058529003360213
 21
6.615034187234599
 31
0.0
  0
LINE
  5
240
330
1F
100
AcDbEntity
  8
DIMENSIONS
  6
CONTINUOUS
 62
     1
100
AcDbLine
 10
1.058529003360213
 20
7.005034187234599
 30
0.0
 11
1.058529003360213
 21
8.135173476165185
 31
0.0
  0
LINE
  5
241
330
1F
100
AcDbEntity
  8
DIMENSIONS
  6
CONTINUOUS
 62
     1
100
AcDbLine
 10
8.883621484125442
 20
13.84539191678623
 30
0.0
 11
9.096125165909037
 21
13.90233210670879
 31
0.0
  0
LINE
  5
242
330
1F
100
AcDbEntity
  8
DIMENSIONS
  6
CONTINUOUS
 62
     1
100
AcDbLine
 10
8.883621484125442
 20
13.84539191678623
 30
0.0
 11
9.096125165909037
 21
13.78845172686368
 31
0.0
  0
LINE
  5
243
330
1F
100
AcDbEntity
  8
DIMENSIONS
  6
CONTINUOUS
 62
     1
100
AcDbLine
 10
9.70333925095725
 20
13.84539191678623
 30
0.0
 11
9.490835569173655
 21
13.78845172686368
 31
0.0
  0
LINE
  5
244
330
1F
100
AcDbEntity
  8
DIMENSIONS
  6
CONTINUOUS
 62
     1
100
AcDbLine
 10
9.70333925095725
 20
13.84539191678623
 30
0.0
 11
9.490835569173655
 21
13.90233210670879
 31
0.0
  0
LINE
  5
245
330
1F
100
AcDbEntity
  8
DIMENSIONS
  6
CONTINUOUS
 62
     1
100
AcDbLine
 10
8.883621484125442
 20
9.17989489830401
 30
0.0
 11
8.883621484125442
 21
13.89539191678623
 31
0.0
  0
LINE
  5
246
330
1F
100
AcDbEntity
  8
DIMENSIONS
  6
CONTINUOUS
 62
     1
100
AcDbLine
 10
9.70333925095725
 20
12.78782662778391
 30
0.0
 11
9.70333925095725
 21
13.89539191678623
 31
0.0
  0
TEXT
  5
247
330
1F
100
AcDbEntity
  8
DIMENSIONS
  6
CONTINUOUS
 62
     1
100
AcDbText
 10
10.00609047622412
 20
13.75039191678623
 30
0.0
 40
0.19
  1
.820
  7
AEC_TECH
100
AcDbText
  0
LINE
  5
248
330
1F
100
AcDbEntity
  8
DIMENSIONS
  6
CONTINUOUS
 62
     1
100
AcDbLine
 10
8.883621484125442
 20
13.84539191678623
 30
0.0
 11
9.906090476224119
 21
13.84539191678623
 31
0.0
  0
TEXT
  5
249
330
1F
100
AcDbEntity
  8
DIMENSIONS
  6
CONTINUOUS
 62
     7
100
AcDbText
 10
12.76939643479575
 20
-1.762558049697612
 30
0.0
 40
0.25
  1
TRANS. SIDE - VIEW B
  7
MAIN
100
AcDbText
  0
LINE
  5
24A
330
1F
100
AcDbEntity
  8
DIMENSIONS
  6
CONTINUOUS
 62
     1
100
AcDbLine
 10
-0.3069353054575963
 20
11.46325068016833
 30
0.0
 11
-0.2240110003701321
 21
11.259477375671
 31
0.0
  0
LINE
  5
24B
330
1F
100
AcDbEntity
  8
DIMENSIONS
  6
CONTINUOUS
 62
     1
100
AcDbLine
 10
-0.3069353054575963
 20
11.46325068016833
 30
0.0
 11
-0.3370074029093455
 21
11.24531566931681
 31
0.0
  0
LINE
  5
24C
330
1F
100
AcDbEntity
  8
DIMENSIONS
  6
CONTINUOUS
 62
     1
100
AcDbLine
 10
1.357098632962414
 20
-1.814093450679492
 30
0.0
 11
1.274174327874949
 21
-1.610320146182163
 31
0.0
  0
LINE
  5
24D
330
1F
100
AcDbEntity
  8
DIMENSIONS
  6
CONTINUOUS
 62
     1
100
AcDbLine
 10
1.357098632962414
 20
-1.814093450679492
 30
0.0
 11
1.387170730414163
 21
-1.596158439827971
 31
0.0
  0
LINE
  5
24E
330
1F
100
AcDbEntity
  8
DIMENSIONS
  6
CONTINUOUS
 62
     1
100
AcDbLine
 10
9.633882614190643
 20
12.70912170911274
 30
0.0
 11
-0.3565471888623168
 21
11.45703288111749
 31
0.0
  0
LINE
  5
24F
330
1F
100
AcDbEntity
  8
DIMENSIONS
  6
CONTINUOUS
 62
     1
100
AcDbLine
 10
11.29791655261065
 20
-0.5682224217350766
 30
0.0
 11
1.307486749557693
 21
-1.820311249730326
 31
0.0
  0
TEXT
  5
250
330
1F
100
AcDbEntity
  8
DIMENSIONS
  6
CONTINUOUS
 62
     1
100
AcDbText
 10
-0.3972795218051919
 20
4.729578614744418
 30
0.0
 40
0.19
  1
13.381%%p.001
  7
AEC_TECH
100
AcDbText
  0
LINE
  5
251
330
1F
100
AcDbEntity
  8
DIMENSIONS
  6
CONTINUOUS
 62
     1
100
AcDbLine
 10
-0.3069353054575963
 20
11.46325068016833
 30
0.0
 11
0.5006425428865117
 21
5.019578614744416
 31
0.0
  0
LINE
  5
252
330
1F
100
AcDbEntity
  8
DIMENSIONS
  6
CONTINUOUS
 62
     1
100
AcDbLine
 10
0.5495207846183062
 20
4.629578614744417
 30
0.0
 11
1.357098632962414
 21
-1.814093450679492
 31
0.0
  0
TEXT
  5
253
330
1F
100
AcDbEntity
  8
DIMENSIONS
  6
CONTINUOUS
 62
     7
100
AcDbText
 10
20.90627254356005
 20
14.42896362652081
 30
0.0
 40
0.2
  1
SECTION A - A
  7
MAIN
100
AcDbText
  0
TEXT
  5
254
330
1F
100
AcDbEntity
  8
DIMENSIONS
  6
CONTINUOUS
 62
     7
100
AcDbText
 10
9.221544865825347
 20
24.22687042206038
 30
0.0
 40
0.15
  1
SEE VIEW B FOR
  7
MAIN
100
AcDbText
  0
TEXT
  5
255
330
1F
100
AcDbEntity
  8
DIMENSIONS
  6
CONTINUOUS
 62
     7
100
AcDbText
 10
9.221544865825347
 20
24.00187042206038
 30
0.0
 40
0.15
  1
HOLE PATTERN
  7
MAIN
100
AcDbText
  0
TEXT
  5
256
330
1F
100
AcDbEntity
  8
DIMENSIONS
  6
CONTINUOUS
 62
     7
100
AcDbText
 10
9.221544865825347
 20
23.77687042206038
 30
0.0
 40
0.15
  1
LOCATION
  7
MAIN
100
AcDbText
  0
TEXT
  5
257
330
1F
100
AcDbEntity
  8
DIMENSIONS
  6
CONTINUOUS
 62
     7
100
AcDbText
 10
10.04816967724236
 20
12.6215683529988
 30
0.0
 40
0.2
  1
B
  7
MAIN
100
AcDbText
  0
TEXT
  5
258
330
1F
100
AcDbEntity
  8
DIMENSIONS
  6
CONTINUOUS
 62
     7
100
AcDbText
 10
11.33885449343959
 20
-0.2202257458547532
 30
0.0
 40
0.2
  1
B
  7
MAIN
100
AcDbText
  0
LINE
  5
259
330
1F
100
AcDbEntity
  8
DIMENSIONS
  6
CONTINUOUS
 62
     1
100
AcDbLine
 10
27.55808552130226
 20
31.63472662072472
 30
0.0
 11
27.77058920308585
 21
31.69166681064727
 31
0.0
  0
LINE
  5
25A
330
1F
100
AcDbEntity
  8
DIMENSIONS
  6
CONTINUOUS
 62
     1
100
AcDbLine
 10
27.55808552130226
 20
31.63472662072472
 30
0.0
 11
27.77058920308585
 21
31.57778643080217
 31
0.0
  0
LINE
  5
25B
330
1F
100
AcDbEntity
  8
DIMENSIONS
  6
CONTINUOUS
 62
     1
100
AcDbLine
 10
32.60955726410999
 20
31.63472662072472
 30
0.0
 11
32.3970535823264
 21
31.57778643080217
 31
0.0
  0
LINE
  5
25C
330
1F
100
AcDbEntity
  8
DIMENSIONS
  6
CONTINUOUS
 62
     1
100
AcDbLine
 10
32.60955726410999
 20
31.63472662072472
 30
0.0
 11
32.3970535823264
 21
31.69166681064728
 31
0.0
  0
LINE
  5
25D
330
1F
100
AcDbEntity
  8
DIMENSIONS
  6
CONTINUOUS
 62
     1
100
AcDbLine
 10
27.55808552130226
 20
28.30596901115884
 30
0.0
 11
27.55808552130226
 21
31.68472662072472
 31
0.0
  0
LINE
  5
25E
330
1F
100
AcDbEntity
  8
DIMENSIONS
  6
CONTINUOUS
 62
     1
100
AcDbLine
 10
32.60955726410999
 20
30.61888295386434
 30
0.0
 11
32.60955726410999
 21
31.68472662072472
 31
0.0
  0
TEXT
  5
25F
330
1F
100
AcDbEntity
  8
DIMENSIONS
  6
CONTINUOUS
 62
     1
100
AcDbText
 10
29.80629330018834
 20
31.53972662072472
 30
0.0
 40
0.19
  1
5.05
  7
AEC_TECH
100
AcDbText
  0
LINE
  5
260
330
1F
100
AcDbEntity
  8
DIMENSIONS
  6
CONTINUOUS
 62
     1
100
AcDbLine
 10
27.55808552130226
 20
31.63472662072472
 30
0.0
 11
29.70629330018834
 21
31.63472662072472
 31
0.0
  0
LINE
  5
261
330
1F
100
AcDbEntity
  8
DIMENSIONS
  6
CONTINUOUS
 62
     1
100
AcDbLine
 10
30.46134948522391
 20
31.63472662072472
 30
0.0
 11
32.60955726410999
 21
31.63472662072472
 31
0.0
  0
LINE
  5
262
330
1F
100
AcDbEntity
  8
DIMENSIONS
  6
CONTINUOUS
 62
     1
100
AcDbLine
 10
32.60955726410999
 20
31.63472662072472
 30
0.0
 11
32.82206094589359
 21
31.69166681064727
 31
0.0
  0
LINE
  5
263
330
1F
100
AcDbEntity
  8
DIMENSIONS
  6
CONTINUOUS
 62
     1
100
AcDbLine
 10
32.60955726410999
 20
31.63472662072472
 30
0.0
 11
32.82206094589359
 21
31.57778643080217
 31
0.0
  0
LINE
  5
264
330
1F
100
AcDbEntity
  8
DIMENSIONS
  6
CONTINUOUS
 62
     1
100
AcDbLine
 10
38.71105375777111
 20
31.63472662072472
 30
0.0
 11
38.49855007598752
 21
31.57778643080217
 31
0.0
  0
LINE
  5
265
330
1F
100
AcDbEntity
  8
DIMENSIONS
  6
CONTINUOUS
 62
     1
100
AcDbLine
 10
38.71105375777111
 20
31.63472662072472
 30
0.0
 11
38.49855007598752
 21
31.69166681064727
 31
0.0
  0
LINE
  5
266
330
1F
100
AcDbEntity
  8
DIMENSIONS
  6
CONTINUOUS
 62
     1
100
AcDbLine
 10
32.60955726410999
 20
30.61888295386434
 30
0.0
 11
32.60955726410999
 21
31.68472662072472
 31
0.0
  0
LINE
  5
267
330
1F
100
AcDbEntity
  8
DIMENSIONS
  6
CONTINUOUS
 62
     1
100
AcDbLine
 10
38.71105375777111
 20
30.60654991528522
 30
0.0
 11
38.71105375777111
 21
31.68472662072472
 31
0.0
  0
TEXT
  5
268
330
1F
100
AcDbEntity
  8
DIMENSIONS
  6
CONTINUOUS
 62
     1
100
AcDbText
 10
35.40087035982629
 20
31.53972662072472
 30
0.0
 40
0.19
  1
6.10
  7
AEC_TECH
100
AcDbText
  0
LINE
  5
269
330
1F
100
AcDbEntity
  8
DIMENSIONS
  6
CONTINUOUS
 62
     1
100
AcDbLine
 10
32.60955726410999
 20
31.63472662072472
 30
0.0
 11
35.30087035982628
 21
31.63472662072472
 31
0.0
  0
LINE
  5
26A
330
1F
100
AcDbEntity
  8
DIMENSIONS
  6
CONTINUOUS
 62
     1
100
AcDbLine
 10
36.01974066205482
 20
31.63472662072472
 30
0.0
 11
38.71105375777111
 21
31.63472662072472
 31
0.0
  0
LINE
  5
26B
330
1F
100
AcDbEntity
  8
DIMENSIONS
  6
CONTINUOUS
 62
     1
100
AcDbLine
 10
27.55808552130226
 20
15.18001874599443
 30
0.0
 11
27.77058920308585
 21
15.23695893591699
 31
0.0
  0
LINE
  5
26C
330
1F
100
AcDbEntity
  8
DIMENSIONS
  6
CONTINUOUS
 62
     1
100
AcDbLine
 10
27.55808552130226
 20
15.18001874599443
 30
0.0
 11
27.77058920308585
 21
15.12307855607188
 31
0.0
  0
LINE
  5
26D
330
1F
100
AcDbEntity
  8
DIMENSIONS
  6
CONTINUOUS
 62
     1
100
AcDbLine
 10
30.90441790244584
 20
15.18001874599443
 30
0.0
 11
30.69191422066224
 21
15.12307855607188
 31
0.0
  0
LINE
  5
26E
330
1F
100
AcDbEntity
  8
DIMENSIONS
  6
CONTINUOUS
 62
     1
100
AcDbLine
 10
30.90441790244584
 20
15.18001874599443
 30
0.0
 11
30.69191422066224
 21
15.23695893591699
 31
0.0
  0
LINE
  5
26F
330
1F
100
AcDbEntity
  8
DIMENSIONS
  6
CONTINUOUS
 62
     1
100
AcDbLine
 10
27.55808552130226
 20
24.05164512777755
 30
0.0
 11
27.55808552130226
 21
15.13001874599443
 31
0.0
  0
LINE
  5
270
330
1F
100
AcDbEntity
  8
DIMENSIONS
  6
CONTINUOUS
 62
     1
100
AcDbLine
 10
30.90441790244584
 20
16.23502139777804
 30
0.0
 11
30.90441790244584
 21
15.13001874599443
 31
0.0
  0
TEXT
  5
271
330
1F
100
AcDbEntity
  8
DIMENSIONS
  6
CONTINUOUS
 62
     1
100
AcDbText
 10
28.96064094823477
 20
15.08501874599443
 30
0.0
 40
0.19
  1
3.35
  7
AEC_TECH
100
AcDbText
  0
LINE
  5
272
330
1F
100
AcDbEntity
  8
DIMENSIONS
  6
CONTINUOUS
 62
     1
100
AcDbLine
 10
27.55808552130226
 20
15.18001874599443
 30
0.0
 11
28.86064094823476
 21
15.18001874599443
 31
0.0
  0
LINE
  5
273
330
1F
100
AcDbEntity
  8
DIMENSIONS
  6
CONTINUOUS
 62
     1
100
AcDbLine
 10
29.60186247551334
 20
15.18001874599443
 30
0.0
 11
30.90441790244584
 21
15.18001874599443
 31
0.0
  0
LINE
  5
274
330
1F
100
AcDbEntity
  8
DIMENSIONS
  6
CONTINUOUS
 62
     1
100
AcDbLine
 10
30.90441790244584
 20
15.18001874599443
 30
0.0
 11
31.11692158422943
 21
15.23695893591699
 31
0.0
  0
LINE
  5
275
330
1F
100
AcDbEntity
  8
DIMENSIONS
  6
CONTINUOUS
 62
     1
100
AcDbLine
 10
30.90441790244584
 20
15.18001874599443
 30
0.0
 11
31.11692158422943
 21
15.12307855607188
 31
0.0
  0
LINE
  5
276
330
1F
100
AcDbEntity
  8
DIMENSIONS
  6
CONTINUOUS
 62
     1
100
AcDbLine
 10
39.50103039883193
 20
15.18001874599443
 30
0.0
 11
39.28852671704833
 21
15.12307855607188
 31
0.0
  0
LINE
  5
277
330
1F
100
AcDbEntity
  8
DIMENSIONS
  6
CONTINUOUS
 62
     1
100
AcDbLine
 10
39.50103039883193
 20
15.18001874599443
 30
0.0
 11
39.28852671704833
 21
15.23695893591699
 31
0.0
  0
LINE
  5
278
330
1F
100
AcDbEntity
  8
DIMENSIONS
  6
CONTINUOUS
 62
     1
100
AcDbLine
 10
30.90441790244584
 20
16.23502139777804
 30
0.0
 11
30.90441790244584
 21
15.13001874599443
 31
0.0
  0
LINE
  5
279
330
1F
100
AcDbEntity
  8
DIMENSIONS
  6
CONTINUOUS
 62
     1
100
AcDbLine
 10
39.50103039883193
 20
16.23502139777804
 30
0.0
 11
39.50103039883193
 21
15.13001874599443
 31
0.0
  0
TEXT
  5
27A
330
1F
100
AcDbEntity
  8
DIMENSIONS
  6
CONTINUOUS
 62
     1
100
AcDbText
 10
34.91276688126446
 20
15.08501874599443
 30
0.0
 40
0.19
  1
8.60
  7
AEC_TECH
100
AcDbText
  0
LINE
  5
27B
330
1F
100
AcDbEntity
  8
DIMENSIONS
  6
CONTINUOUS
 62
     1
100
AcDbLine
 10
30.90441790244584
 20
15.18001874599443
 30
0.0
 11
34.81276688126446
 21
15.18001874599443
 31
0.0
  0
LINE
  5
27C
330
1F
100
AcDbEntity
  8
DIMENSIONS
  6
CONTINUOUS
 62
     1
100
AcDbLine
 10
35.59268142001331
 20
15.18001874599443
 30
0.0
 11
39.50103039883193
 21
15.18001874599443
 31
0.0
  0
LINE
  5
27D
330
1F
100
AcDbEntity
  8
DIMENSIONS
  6
CONTINUOUS
 62
     1
100
AcDbLine
 10
27.55808552130226
 20
32.33078025332753
 30
0.0
 11
27.77058920308585
 21
32.38772044325008
 31
0.0
  0
LINE
  5
27E
330
1F
100
AcDbEntity
  8
DIMENSIONS
  6
CONTINUOUS
 62
     1
100
AcDbLine
 10
27.55808552130226
 20
32.33078025332753
 30
0.0
 11
27.77058920308585
 21
32.27384006340497
 31
0.0
  0
LINE
  5
27F
330
1F
100
AcDbEntity
  8
DIMENSIONS
  6
CONTINUOUS
 62
     1
100
AcDbLine
 10
42.15501814939408
 20
32.33078025332753
 30
0.0
 11
41.94251446761049
 21
32.27384006340497
 31
0.0
  0
LINE
  5
280
330
1F
100
AcDbEntity
  8
DIMENSIONS
  6
CONTINUOUS
 62
     1
100
AcDbLine
 10
42.15501814939408
 20
32.33078025332753
 30
0.0
 11
41.94251446761049
 21
32.38772044325008
 31
0.0
  0
LINE
  5
281
330
1F
100
AcDbEntity
  8
DIMENSIONS
  6
CONTINUOUS
 62
     1
100
AcDbLine
 10
27.55808552130226
 20
28.30596901115884
 30
0.0
 11
27.55808552130226
 21
32.38078025332752
 31
0.0
  0
LINE
  5
282
330
1F
100
AcDbEntity
  8
DIMENSIONS
  6
CONTINUOUS
 62
     1
100
AcDbLine
 10
42.15501814939408
 20
24.81734072404286
 30
0.0
 11
42.15501814939408
 21
32.38078025332752
 31
0.0
  0
TEXT
  5
283
330
1F
100
AcDbEntity
  8
DIMENSIONS
  6
CONTINUOUS
 62
     1
100
AcDbText
 10
34.50651044872976
 20
32.23578025332753
 30
0.0
 40
0.19
  1
14.60
  7
AEC_TECH
100
AcDbText
  0
LINE
  5
284
330
1F
100
AcDbEntity
  8
DIMENSIONS
  6
CONTINUOUS
 62
     1
100
AcDbLine
 10
27.55808552130226
 20
32.33078025332753
 30
0.0
 11
34.40651044872975
 21
32.33078025332753
 31
0.0
  0
LINE
  5
285
330
1F
100
AcDbEntity
  8
DIMENSIONS
  6
CONTINUOUS
 62
     1
100
AcDbLine
 10
35.30659322196659
 20
32.33078025332753
 30
0.0
 11
42.15501814939408
 21
32.33078025332753
 31
0.0
  0
LINE
  5
286
330
1F
100
AcDbEntity
  8
DIMENSIONS
  6
CONTINUOUS
 62
     1
100
AcDbLine
 10
26.48428529720532
 20
16.30502139777804
 30
0.0
 11
26.42734510728276
 21
16.51752507956163
 31
0.0
  0
LINE
  5
287
330
1F
100
AcDbEntity
  8
DIMENSIONS
  6
CONTINUOUS
 62
     1
100
AcDbLine
 10
26.48428529720532
 20
16.30502139777804
 30
0.0
 11
26.54122548712787
 21
16.51752507956163
 31
0.0
  0
LINE
  5
288
330
1F
100
AcDbEntity
  8
DIMENSIONS
  6
CONTINUOUS
 62
     1
100
AcDbLine
 10
26.48428529720532
 20
24.12164512777755
 30
0.0
 11
26.54122548712787
 21
23.90914144599395
 31
0.0
  0
LINE
  5
289
330
1F
100
AcDbEntity
  8
DIMENSIONS
  6
CONTINUOUS
 62
     1
100
AcDbLine
 10
26.48428529720532
 20
24.12164512777755
 30
0.0
 11
26.42734510728276
 21
23.90914144599395
 31
0.0
  0
LINE
  5
28A
330
1F
100
AcDbEntity
  8
DIMENSIONS
  6
CONTINUOUS
 62
     1
100
AcDbLine
 10
30.83441790244584
 20
16.30502139777804
 30
0.0
 11
26.43428529720532
 21
16.30502139777804
 31
0.0
  0
LINE
  5
28B
330
1F
100
AcDbEntity
  8
DIMENSIONS
  6
CONTINUOUS
 62
     1
100
AcDbLine
 10
27.48808552130226
 20
24.12164512777755
 30
0.0
 11
26.43428529720532
 21
24.12164512777755
 31
0.0
  0
TEXT
  5
28C
330
1F
100
AcDbEntity
  8
DIMENSIONS
  6
CONTINUOUS
 62
     1
100
AcDbText
 10
26.21562092852516
 20
20.1183332627778
 30
0.0
 40
0.19
  1
7.82
  7
AEC_TECH
100
AcDbText
  0
LINE
  5
28D
330
1F
100
AcDbEntity
  8
DIMENSIONS
  6
CONTINUOUS
 62
     1
100
AcDbLine
 10
26.48428529720532
 20
16.30502139777804
 30
0.0
 11
26.48428529720532
 21
20.01833326277779
 31
0.0
  0
LINE
  5
28E
330
1F
100
AcDbEntity
  8
DIMENSIONS
  6
CONTINUOUS
 62
     1
100
AcDbLine
 10
26.48428529720532
 20
20.40833326277779
 30
0.0
 11
26.48428529720532
 21
24.12164512777755
 31
0.0
  0
LINE
  5
28F
330
1F
100
AcDbEntity
  8
DIMENSIONS
  6
CONTINUOUS
 62
     1
100
AcDbLine
 10
26.48428529720532
 20
24.12164512777755
 30
0.0
 11
26.42734510728276
 21
24.33414880956114
 31
0.0
  0
LINE
  5
290
330
1F
100
AcDbEntity
  8
DIMENSIONS
  6
CONTINUOUS
 62
     1
100
AcDbLine
 10
26.48428529720532
 20
24.12164512777755
 30
0.0
 11
26.54122548712787
 21
24.33414880956114
 31
0.0
  0
LINE
  5
291
330
1F
100
AcDbEntity
  8
DIMENSIONS
  6
CONTINUOUS
 62
     1
100
AcDbLine
 10
26.48428529720532
 20
28.23596901115884
 30
0.0
 11
26.54122548712787
 21
28.02346532937524
 31
0.0
  0
LINE
  5
292
330
1F
100
AcDbEntity
  8
DIMENSIONS
  6
CONTINUOUS
 62
     1
100
AcDbLine
 10
26.48428529720532
 20
28.23596901115884
 30
0.0
 11
26.42734510728276
 21
28.02346532937524
 31
0.0
  0
LINE
  5
293
330
1F
100
AcDbEntity
  8
DIMENSIONS
  6
CONTINUOUS
 62
     1
100
AcDbLine
 10
27.48808552130226
 20
24.12164512777755
 30
0.0
 11
26.43428529720532
 21
24.12164512777755
 31
0.0
  0
LINE
  5
294
330
1F
100
AcDbEntity
  8
DIMENSIONS
  6
CONTINUOUS
 62
     1
100
AcDbLine
 10
27.48808552130226
 20
28.23596901115884
 30
0.0
 11
26.43428529720532
 21
28.23596901115884
 31
0.0
  0
TEXT
  5
295
330
1F
100
AcDbEntity
  8
DIMENSIONS
  6
CONTINUOUS
 62
     1
100
AcDbText
 10
26.26250988448056
 20
26.08380706946819
 30
0.0
 40
0.19
  1
4.11
  7
AEC_TECH
100
AcDbText
  0
LINE
  5
296
330
1F
100
AcDbEntity
  8
DIMENSIONS
  6
CONTINUOUS
 62
     1
100
AcDbLine
 10
26.48428529720532
 20
24.12164512777755
 30
0.0
 11
26.48428529720532
 21
25.98380706946819
 31
0.0
  0
LINE
  5
297
330
1F
100
AcDbEntity
  8
DIMENSIONS
  6
CONTINUOUS
 62
     1
100
AcDbLine
 10
26.48428529720532
 20
26.37380706946819
 30
0.0
 11
26.48428529720532
 21
28.23596901115884
 31
0.0
  0
LINE
  5
298
330
1F
100
AcDbEntity
  8
DIMENSIONS
  6
CONTINUOUS
 62
     1
100
AcDbLine
 10
43.1895724796726
 20
16.30502139777804
 30
0.0
 11
43.13263228975004
 21
16.51752507956163
 31
0.0
  0
LINE
  5
299
330
1F
100
AcDbEntity
  8
DIMENSIONS
  6
CONTINUOUS
 62
     1
100
AcDbLine
 10
43.1895724796726
 20
16.30502139777804
 30
0.0
 11
43.24651266959516
 21
16.51752507956163
 31
0.0
  0
LINE
  5
29A
330
1F
100
AcDbEntity
  8
DIMENSIONS
  6
CONTINUOUS
 62
     1
100
AcDbLine
 10
43.18957247967261
 20
22.30261576322164
 30
0.0
 11
43.24651266959516
 21
22.09011208143805
 31
0.0
  0
LINE
  5
29B
330
1F
100
AcDbEntity
  8
DIMENSIONS
  6
CONTINUOUS
 62
     1
100
AcDbLine
 10
43.18957247967261
 20
22.30261576322164
 30
0.0
 11
43.13263228975005
 21
22.09011208143805
 31
0.0
  0
LINE
  5
29C
330
1F
100
AcDbEntity
  8
DIMENSIONS
  6
CONTINUOUS
 62
     1
100
AcDbLine
 10
39.57103039883193
 20
16.30502139777804
 30
0.0
 11
43.2395724796726
 21
16.30502139777804
 31
0.0
  0
LINE
  5
29D
330
1F
100
AcDbEntity
  8
DIMENSIONS
  6
CONTINUOUS
 62
     1
100
AcDbLine
 10
42.22501814939408
 20
22.30261576322164
 30
0.0
 11
43.2395724796726
 21
22.30261576322164
 31
0.0
  0
TEXT
  5
29E
330
1F
100
AcDbEntity
  8
DIMENSIONS
  6
CONTINUOUS
 62
     1
100
AcDbText
 10
42.89178710883125
 20
19.20881858049984
 30
0.0
 40
0.19
  1
6.00
  7
AEC_TECH
100
AcDbText
  0
LINE
  5
29F
330
1F
100
AcDbEntity
  8
DIMENSIONS
  6
CONTINUOUS
 62
     1
100
AcDbLine
 10
43.1895724796726
 20
16.30502139777804
 30
0.0
 11
43.1895724796726
 21
19.10881858049984
 31
0.0
  0
LINE
  5
2A0
330
1F
100
AcDbEntity
  8
DIMENSIONS
  6
CONTINUOUS
 62
     1
100
AcDbLine
 10
43.18957247967261
 20
19.49881858049984
 30
0.0
 11
43.18957247967261
 21
22.30261576322164
 31
0.0
  0
LINE
  5
2A1
330
1F
100
AcDbEntity
  8
DIMENSIONS
  6
CONTINUOUS
 62
     1
100
AcDbLine
 10
43.18957247967261
 20
22.30261576322164
 30
0.0
 11
43.13263228975005
 21
22.51511944500524
 31
0.0
  0
LINE
  5
2A2
330
1F
100
AcDbEntity
  8
DIMENSIONS
  6
CONTINUOUS
 62
     1
100
AcDbLine
 10
43.18957247967261
 20
22.30261576322164
 30
0.0
 11
43.24651266959516
 21
22.51511944500524
 31
0.0
  0
LINE
  5
2A3
330
1F
100
AcDbEntity
  8
DIMENSIONS
  6
CONTINUOUS
 62
     1
100
AcDbLine
 10
43.18957247967261
 20
24.74734072404286
 30
0.0
 11
43.24651266959516
 21
24.53483704225926
 31
0.0
  0
LINE
  5
2A4
330
1F
100
AcDbEntity
  8
DIMENSIONS
  6
CONTINUOUS
 62
     1
100
AcDbLine
 10
43.18957247967261
 20
24.74734072404286
 30
0.0
 11
43.13263228975005
 21
24.53483704225926
 31
0.0
  0
LINE
  5
2A5
330
1F
100
AcDbEntity
  8
DIMENSIONS
  6
CONTINUOUS
 62
     1
100
AcDbLine
 10
42.22501814939408
 20
22.30261576322164
 30
0.0
 11
43.2395724796726
 21
22.30261576322164
 31
0.0
  0
LINE
  5
2A6
330
1F
100
AcDbEntity
  8
DIMENSIONS
  6
CONTINUOUS
 62
     1
100
AcDbLine
 10
42.22501814939408
 20
24.74734072404286
 30
0.0
 11
43.2395724796726
 21
24.74734072404286
 31
0.0
  0
TEXT
  5
2A7
330
1F
100
AcDbEntity
  8
DIMENSIONS
  6
CONTINUOUS
 62
     1
100
AcDbText
 10
42.91121956207457
 20
23.42997824363225
 30
0.0
 40
0.19
  1
2.44
  7
AEC_TECH
100
AcDbText
  0
LINE
  5
2A8
330
1F
100
AcDbEntity
  8
DIMENSIONS
  6
CONTINUOUS
 62
     1
100
AcDbLine
 10
43.18957247967261
 20
22.30261576322164
 30
0.0
 11
43.18957247967261
 21
23.32997824363225
 31
0.0
  0
LINE
  5
2A9
330
1F
100
AcDbEntity
  8
DIMENSIONS
  6
CONTINUOUS
 62
     1
100
AcDbLine
 10
43.18957247967261
 20
23.71997824363225
 30
0.0
 11
43.18957247967261
 21
24.74734072404286
 31
0.0
  0
LINE
  5
2AA
330
1F
100
AcDbEntity
  8
DIMENSIONS
  6
CONTINUOUS
 62
     1
100
AcDbLine
 10
25.45412592095317
 20
16.30502139777804
 30
0.0
 11
25.39718573103061
 21
16.51752507956163
 31
0.0
  0
LINE
  5
2AB
330
1F
100
AcDbEntity
  8
DIMENSIONS
  6
CONTINUOUS
 62
     1
100
AcDbLine
 10
25.45412592095317
 20
16.30502139777804
 30
0.0
 11
25.51106611087572
 21
16.51752507956163
 31
0.0
  0
LINE
  5
2AC
330
1F
100
AcDbEntity
  8
DIMENSIONS
  6
CONTINUOUS
 62
     1
100
AcDbLine
 10
25.45412592095317
 20
30.53654991528522
 30
0.0
 11
25.51106611087572
 21
30.32404623350163
 31
0.0
  0
LINE
  5
2AD
330
1F
100
AcDbEntity
  8
DIMENSIONS
  6
CONTINUOUS
 62
     1
100
AcDbLine
 10
25.45412592095317
 20
30.53654991528522
 30
0.0
 11
25.39718573103061
 21
30.32404623350163
 31
0.0
  0
LINE
  5
2AE
330
1F
100
AcDbEntity
  8
DIMENSIONS
  6
CONTINUOUS
 62
     1
100
AcDbLine
 10
30.83441790244584
 20
16.30502139777804
 30
0.0
 11
25.40412592095317
 21
16.30502139777804
 31
0.0
  0
LINE
  5
2AF
330
1F
100
AcDbEntity
  8
DIMENSIONS
  6
CONTINUOUS
 62
     1
100
AcDbLine
 10
32.58451127419334
 20
30.53654991528522
 30
0.0
 11
25.40412592095317
 21
30.53654991528522
 31
0.0
  0
TEXT
  5
2B0
330
1F
100
AcDbEntity
  8
DIMENSIONS
  6
CONTINUOUS
 62
     1
100
AcDbText
 10
25.12407652454124
 20
23.32578565653163
 30
0.0
 40
0.19
  1
14.23
  7
AEC_TECH
100
AcDbText
  0
LINE
  5
2B1
330
1F
100
AcDbEntity
  8
DIMENSIONS
  6
CONTINUOUS
 62
     1
100
AcDbLine
 10
25.45412592095317
 20
16.30502139777804
 30
0.0
 11
25.45412592095317
 21
23.22578565653163
 31
0.0
  0
LINE
  5
2B2
330
1F
100
AcDbEntity
  8
DIMENSIONS
  6
CONTINUOUS
 62
     1
100
AcDbLine
 10
25.45412592095317
 20
23.61578565653163
 30
0.0
 11
25.45412592095317
 21
30.53654991528522
 31
0.0
  0
LINE
  5
2B3
330
1F
100
AcDbEntity
  8
DIMENSIONS
  6
CONTINUOUS
 62
     1
100
AcDbLine
 10
17.76104576996575
 20
5.48489489830401
 30
0.0
 11
17.81798595988831
 21
5.272391216520415
 31
0.0
  0
LINE
  5
2B4
330
1F
100
AcDbEntity
  8
DIMENSIONS
  6
CONTINUOUS
 62
     1
100
AcDbLine
 10
17.76104576996575
 20
5.48489489830401
 30
0.0
 11
17.7041055800432
 21
5.272391216520415
 31
0.0
  0
LINE
  5
2B5
330
1F
100
AcDbEntity
  8
DIMENSIONS
  6
CONTINUOUS
 62
     1
100
AcDbLine
 10
17.76104576996575
 20
5.756336559903296
 30
0.0
 11
17.7041055800432
 21
5.968840241686891
 31
0.0
  0
LINE
  5
2B6
330
1F
100
AcDbEntity
  8
DIMENSIONS
  6
CONTINUOUS
 62
     1
100
AcDbLine
 10
17.76104576996575
 20
5.756336559903296
 30
0.0
 11
17.81798595988831
 21
5.968840241686891
 31
0.0
  0
LINE
  5
2B7
330
1F
100
AcDbEntity
  8
DIMENSIONS
  6
CONTINUOUS
 62
     1
100
AcDbLine
 10
12.57862148412545
 20
5.48489489830401
 30
0.0
 11
17.81104576996576
 21
5.48489489830401
 31
0.0
  0
LINE
  5
2B8
330
1F
100
AcDbEntity
  8
DIMENSIONS
  6
CONTINUOUS
 62
     1
100
AcDbLine
 10
15.13901013796334
 20
5.756336559903296
 30
0.0
 11
17.81104576996576
 21
5.756336559903296
 31
0.0
  0
TEXT
  5
2B9
330
1F
100
AcDbEntity
  8
DIMENSIONS
  6
CONTINUOUS
 62
     1
100
AcDbText
 10
16.75955559486533
 20
6.273844352822013
 30
0.0
 40
0.19
  1
2X .271%%p.001
  7
AEC_TECH
100
AcDbText
  0
LINE
  5
2BA
330
1F
100
AcDbEntity
  8
DIMENSIONS
  6
CONTINUOUS
 62
     1
100
AcDbLine
 10
17.76104576996575
 20
5.48489489830401
 30
0.0
 11
17.76104576996575
 21
5.044894898304009
 31
0.0
  0
LINE
  5
2BB
330
1F
100
AcDbEntity
  8
DIMENSIONS
  6
CONTINUOUS
 62
     1
100
AcDbLine
 10
17.76104576996575
 20
5.756336559903296
 30
0.0
 11
17.76104576996575
 21
6.196336559903297
 31
0.0
  0
LINE
  5
2BC
330
1F
100
AcDbEntity
  8
DIMENSIONS
  6
CONTINUOUS
 62
     1
100
AcDbLine
 10
18.45347324209429
 20
-1.02790700737506
 30
0.0
 11
18.39653305217173
 21
-0.8154033255914646
 31
0.0
  0
LINE
  5
2BD
330
1F
100
AcDbEntity
  8
DIMENSIONS
  6
CONTINUOUS
 62
     1
100
AcDbLine
 10
18.45347324209429
 20
-1.02790700737506
 30
0.0
 11
18.51041343201684
 21
-0.8154033255914646
 31
0.0
  0
LINE
  5
2BE
330
1F
100
AcDbEntity
  8
DIMENSIONS
  6
CONTINUOUS
 62
     1
100
AcDbLine
 10
18.45347324209429
 20
5.48489489830401
 30
0.0
 11
18.51041343201684
 21
5.272391216520415
 31
0.0
  0
LINE
  5
2BF
330
1F
100
AcDbEntity
  8
DIMENSIONS
  6
CONTINUOUS
 62
     1
100
AcDbLine
 10
18.45347324209429
 20
5.48489489830401
 30
0.0
 11
18.39653305217174
 21
5.272391216520415
 31
0.0
  0
LINE
  5
2C0
330
1F
100
AcDbEntity
  8
DIMENSIONS
  6
CONTINUOUS
 62
     1
100
AcDbLine
 10
13.29079128974619
 20
-1.02790700737506
 30
0.0
 11
18.50347324209429
 21
-1.02790700737506
 31
0.0
  0
LINE
  5
2C1
330
1F
100
AcDbEntity
  8
DIMENSIONS
  6
CONTINUOUS
 62
     1
100
AcDbLine
 10
12.57862148412545
 20
5.48489489830401
 30
0.0
 11
18.50347324209429
 21
5.48489489830401
 31
0.0
  0
TEXT
  5
2C2
330
1F
100
AcDbEntity
  8
DIMENSIONS
  6
CONTINUOUS
 62
     1
100
AcDbText
 10
18.12143904431936
 20
2.133493945464475
 30
0.0
 40
0.19
  1
6.513
  7
AEC_TECH
100
AcDbText
  0
LINE
  5
2C3
330
1F
100
AcDbEntity
  8
DIMENSIONS
  6
CONTINUOUS
 62
     1
100
AcDbLine
 10
18.45347324209429
 20
-1.02790700737506
 30
0.0
 11
18.45347324209429
 21
2.033493945464475
 31
0.0
  0
LINE
  5
2C4
330
1F
100
AcDbEntity
  8
DIMENSIONS
  6
CONTINUOUS
 62
     1
100
AcDbLine
 10
18.45347324209429
 20
2.423493945464475
 30
0.0
 11
18.45347324209429
 21
5.48489489830401
 31
0.0
  0
LINE
  5
2C5
330
1F
100
AcDbEntity
  8
DIMENSIONS
  6
CONTINUOUS
 62
     1
100
AcDbLine
 10
17.13353337334928
 20
-0.5595175030639084
 30
0.0
 11
17.07659318342673
 21
-0.3470138212803133
 31
0.0
  0
LINE
  5
2C6
330
1F
100
AcDbEntity
  8
DIMENSIONS
  6
CONTINUOUS
 62
     1
100
AcDbLine
 10
17.13353337334928
 20
-0.5595175030639084
 30
0.0
 11
17.19047356327183
 21
-0.3470138212803133
 31
0.0
  0
LINE
  5
2C7
330
1F
100
AcDbEntity
  8
DIMENSIONS
  6
CONTINUOUS
 62
     1
100
AcDbLine
 10
17.13353337334928
 20
5.48489489830401
 30
0.0
 11
17.19047356327183
 21
5.272391216520415
 31
0.0
  0
LINE
  5
2C8
330
1F
100
AcDbEntity
  8
DIMENSIONS
  6
CONTINUOUS
 62
     1
100
AcDbLine
 10
17.13353337334928
 20
5.48489489830401
 30
0.0
 11
17.07659318342673
 21
5.272391216520415
 31
0.0
  0
LINE
  5
2C9
330
1F
100
AcDbEntity
  8
DIMENSIONS
  6
CONTINUOUS
 62
     1
100
AcDbLine
 10
11.43737318937726
 20
-0.5595175030639084
 30
0.0
 11
17.18353337334928
 21
-0.5595175030639084
 31
0.0
  0
LINE
  5
2CA
330
1F
100
AcDbEntity
  8
DIMENSIONS
  6
CONTINUOUS
 62
     1
100
AcDbLine
 10
12.57862148412545
 20
5.48489489830401
 30
0.0
 11
17.18353337334928
 21
5.48489489830401
 31
0.0
  0
TEXT
  5
2CB
330
1F
100
AcDbEntity
  8
DIMENSIONS
  6
CONTINUOUS
 62
     1
100
AcDbText
 10
16.74979094837026
 20
2.528157209005804
 30
0.0
 40
0.19
  1
6.044
  7
AEC_TECH
100
AcDbText
  0
LINE
  5
2CC
330
1F
100
AcDbEntity
  8
DIMENSIONS
  6
CONTINUOUS
 62
     1
100
AcDbLine
 10
17.13353337334928
 20
-0.5595175030639084
 30
0.0
 11
17.13353337334928
 21
2.428157209005805
 31
0.0
  0
LINE
  5
2CD
330
1F
100
AcDbEntity
  8
DIMENSIONS
  6
CONTINUOUS
 62
     1
100
AcDbLine
 10
17.13353337334928
 20
2.818157209005805
 30
0.0
 11
17.13353337334928
 21
5.48489489830401
 31
0.0
  0
LINE
  5
2CE
330
1F
100
AcDbEntity
  8
DIMENSIONS
  6
CONTINUOUS
 62
     1
100
AcDbLine
 10
18.9944322046947
 20
5.48489489830401
 30
0.0
 11
18.93749201477215
 21
5.697398580087604
 31
0.0
  0
LINE
  5
2CF
330
1F
100
AcDbEntity
  8
DIMENSIONS
  6
CONTINUOUS
 62
     1
100
AcDbLine
 10
18.9944322046947
 20
5.48489489830401
 30
0.0
 11
19.05137239461726
 21
5.697398580087604
 31
0.0
  0
LINE
  5
2D0
330
1F
100
AcDbEntity
  8
DIMENSIONS
  6
CONTINUOUS
 62
     1
100
AcDbLine
 10
18.9944322046947
 20
12.71782662778391
 30
0.0
 11
19.05137239461726
 21
12.50532294600032
 31
0.0
  0
LINE
  5
2D1
330
1F
100
AcDbEntity
  8
DIMENSIONS
  6
CONTINUOUS
 62
     1
100
AcDbLine
 10
18.9944322046947
 20
12.71782662778391
 30
0.0
 11
18.93749201477215
 21
12.50532294600032
 31
0.0
  0
LINE
  5
2D2
330
1F
100
AcDbEntity
  8
DIMENSIONS
  6
CONTINUOUS
 62
     1
100
AcDbLine
 10
12.57862148412545
 20
5.48489489830401
 30
0.0
 11
19.0444322046947
 21
5.48489489830401
 31
0.0
  0
LINE
  5
2D3
330
1F
100
AcDbEntity
  8
DIMENSIONS
  6
CONTINUOUS
 62
     1
100
AcDbLine
 10
9.77333925095725
 20
12.71782662778391
 30
0.0
 11
19.0444322046947
 21
12.71782662778391
 31
0.0
  0
TEXT
  5
2D4
330
1F
100
AcDbEntity
  8
DIMENSIONS
  6
CONTINUOUS
 62
     1
100
AcDbText
 10
18.64240011706929
 20
9.00636076304396
 30
0.0
 40
0.19
  1
7.233
  7
AEC_TECH
100
AcDbText
  0
LINE
  5
2D5
330
1F
100
AcDbEntity
  8
DIMENSIONS
  6
CONTINUOUS
 62
     1
100
AcDbLine
 10
18.9944322046947
 20
5.48489489830401
 30
0.0
 11
18.9944322046947
 21
8.90636076304396
 31
0.0
  0
LINE
  5
2D6
330
1F
100
AcDbEntity
  8
DIMENSIONS
  6
CONTINUOUS
 62
     1
100
AcDbLine
 10
18.9944322046947
 20
9.29636076304396
 30
0.0
 11
18.9944322046947
 21
12.71782662778391
 31
0.0
  0
LINE
  5
2D7
330
1F
100
AcDbEntity
  8
DIMENSIONS
  6
CONTINUOUS
 62
     1
100
AcDbLine
 10
19.70849803532724
 20
-1.02790700737506
 30
0.0
 11
19.65155784540469
 21
-0.8154033255914646
 31
0.0
  0
LINE
  5
2D8
330
1F
100
AcDbEntity
  8
DIMENSIONS
  6
CONTINUOUS
 62
     1
100
AcDbLine
 10
19.70849803532724
 20
-1.02790700737506
 30
0.0
 11
19.76543822524979
 21
-0.8154033255914646
 31
0.0
  0
LINE
  5
2D9
330
1F
100
AcDbEntity
  8
DIMENSIONS
  6
CONTINUOUS
 62
     1
100
AcDbLine
 10
19.70849803532724
 20
5.756336559903296
 30
0.0
 11
19.76543822524979
 21
5.543832878119701
 31
0.0
  0
LINE
  5
2DA
330
1F
100
AcDbEntity
  8
DIMENSIONS
  6
CONTINUOUS
 62
     1
100
AcDbLine
 10
19.70849803532724
 20
5.756336559903296
 30
0.0
 11
19.65155784540469
 21
5.543832878119701
 31
0.0
  0
LINE
  5
2DB
330
1F
100
AcDbEntity
  8
DIMENSIONS
  6
CONTINUOUS
 62
     1
100
AcDbLine
 10
13.29079128974619
 20
-1.02790700737506
 30
0.0
 11
19.75849803532724
 21
-1.02790700737506
 31
0.0
  0
LINE
  5
2DC
330
1F
100
AcDbEntity
  8
DIMENSIONS
  6
CONTINUOUS
 62
     1
100
AcDbLine
 10
15.13901013796334
 20
5.756336559903296
 30
0.0
 11
19.75849803532724
 21
5.756336559903296
 31
0.0
  0
TEXT
  5
2DD
330
1F
100
AcDbEntity
  8
DIMENSIONS
  6
CONTINUOUS
 62
     1
100
AcDbText
 10
19.33909334063259
 20
1.944071554703491
 30
0.0
 40
0.19
  1
6.784
  7
AEC_TECH
100
AcDbText
  0
LINE
  5
2DE
330
1F
100
AcDbEntity
  8
DIMENSIONS
  6
CONTINUOUS
 62
     1
100
AcDbLine
 10
19.70849803532724
 20
-1.02790700737506
 30
0.0
 11
19.70849803532724
 21
1.844071554703491
 31
0.0
  0
LINE
  5
2DF
330
1F
100
AcDbEntity
  8
DIMENSIONS
  6
CONTINUOUS
 62
     1
100
AcDbLine
 10
19.70849803532724
 20
2.234071554703491
 30
0.0
 11
19.70849803532724
 21
5.756336559903296
 31
0.0
  0
TEXT
  5
2E0
330
1F
100
AcDbEntity
  8
DIMENSIONS
  6
CONTINUOUS
 62
     7
100
AcDbText
 10
19.83998699030744
 20
12.478463966576
 30
0.0
 40
0.2
  1
HOLES MARKED "A" WERE
  7
ENGINEER
100
AcDbText
  0
TEXT
  5
2E1
330
1F
100
AcDbEntity
  8
DIMENSIONS
  6
CONTINUOUS
 62
     7
100
AcDbText
 10
19.83998699030744
 20
12.178463966576
 30
0.0
 40
0.2
  1
USED TO ESTABLISH SCALE
  7
ENGINEER
100
AcDbText
  0
TEXT
  5
2E2
330
1F
100
AcDbEntity
  8
DIMENSIONS
  6
CONTINUOUS
 62
     7
100
AcDbText
 10
19.83998699030744
 20
11.878463966576
 30
0.0
 40
0.2
  1
DURING IMAGING AND
  7
ENGINEER
100
AcDbText
  0
TEXT
  5
2E3
330
1F
100
AcDbEntity
  8
DIMENSIONS
  6
CONTINUOUS
 62
     7
100
AcDbText
 10
19.83998699030744
 20
11.578463966576
 30
0.0
 40
0.2
  1
PLATE DESIGN.  USE THESE 2 HOLES
  7
ENGINEER
100
AcDbText
  0
TEXT
  5
2E4
330
1F
100
AcDbEntity
  8
DIMENSIONS
  6
CONTINUOUS
 62
     7
100
AcDbText
 10
19.83998699030744
 20
11.27846396657599
 30
0.0
 40
0.2
  1
as ALIGNMENT HOLES.
  7
ENGINEER
100
AcDbText
  0
TEXT
  5
2E5
330
1F
100
AcDbEntity
  8
DIMENSIONS
  6
CONTINUOUS
 62
     7
100
AcDbText
 10
19.83998699030744
 20
10.678463966576
 30
0.0
 40
0.2
  1
2X .422 THRU
  7
ENGINEER
100
AcDbText
  0
TEXT
  5
2E6
330
1F
100
AcDbEntity
  8
DIMENSIONS
  6
CONTINUOUS
 62
     7
100
AcDbText
 10
19.83998699030744
 20
10.378463966576
 30
0.0
 40
0.2
  1
DIA TOL - +.001. - .000
  7
ENGINEER
100
AcDbText
  0
TEXT
  5
2E7
330
1F
100
AcDbEntity
  8
DIMENSIONS
  6
CONTINUOUS
 62
     7
100
AcDbText
 10
19.87708152660857
 20
9.537975920604103
 30
0.0
 40
0.2
  1
HOLES MARKED B ARE
  7
MAIN
100
AcDbText
  0
TEXT
  5
2E8
330
1F
100
AcDbEntity
  8
DIMENSIONS
  6
CONTINUOUS
 62
     7
100
AcDbText
 10
19.87708152660857
 20
9.237975920604102
 30
0.0
 40
0.2
  1
DOWEL PIN HOLES,
  7
MAIN
100
AcDbText
  0
TEXT
  5
2E9
330
1F
100
AcDbEntity
  8
DIMENSIONS
  6
CONTINUOUS
 62
     7
100
AcDbText
 10
19.87708152660857
 20
8.937975920604103
 30
0.0
 40
0.2
  1
HOLE DIA .375 TOL: +.001, .000
  7
MAIN
100
AcDbText
  0
TEXT
  5
2EA
330
1F
100
AcDbEntity
  8
DIMENSIONS
  6
CONTINUOUS
 62
     7
100
AcDbText
 10
25.70678894789722
 20
6.567585363878781
 30
0.0
 40
0.15625
  1
ELECTRO AUTOMOTIVE
  7
ENGINEER
100
AcDbText
  0
TEXT
  5
2EB
330
1F
100
AcDbEntity
  8
DIMENSIONS
  6
CONTINUOUS
 62
     7
100
AcDbText
 10
25.70678894789722
 20
6.333210363878781
 30
0.0
 40
0.15625
  1
P.O. BOX 1113 FELTON CA. 95018-1113
  7
ENGINEER
100
AcDbText
  0
LINE
  5
2EC
330
1F
100
AcDbEntity
  8
DIMENSIONS
  6
CONTINUOUS
 62
     7
100
AcDbLine
 10
25.54085602434185
 20
6.864454641832882
 30
0.0
 11
29.99892001421955
 21
6.864454641832882
 31
0.0
  0
LINE
  5
2ED
330
1F
100
AcDbEntity
  8
DIMENSIONS
  6
CONTINUOUS
 62
     7
100
AcDbLine
 10
29.99892001421955
 20
6.864454641832882
 30
0.0
 11
29.99892001421955
 21
5.739474192156369
 31
0.0
  0
LINE
  5
2EE
330
1F
100
AcDbEntity
  8
DIMENSIONS
  6
CONTINUOUS
 62
     7
100
AcDbLine
 10
29.99892001421955
 20
5.739474192156369
 30
0.0
 11
25.54085602434185
 21
5.739474192156369
 31
0.0
  0
LINE
  5
2EF
330
1F
100
AcDbEntity
  8
DIMENSIONS
  6
CONTINUOUS
 62
     7
100
AcDbLine
 10
25.54085602434185
 20
5.739474192156369
 30
0.0
 11
25.54085602434185
 21
6.864454641832882
 31
0.0
  0
TEXT
  5
2F0
330
1F
100
AcDbEntity
  8
DIMENSIONS
  6
CONTINUOUS
 62
     7
100
AcDbText
 10
25.70678894789722
 20
6.098835363878781
 30
0.0
 40
0.15625
  1
PHONE 831-429-1989 FAX 831-429-1907
  7
ENGINEER
100
AcDbText
  0
TEXT
  5
2F1
330
1F
100
AcDbEntity
  8
DIMENSIONS
  6
CONTINUOUS
 62
     7
100
AcDbText
 10
25.70678894789722
 20
5.864460363878781
 30
0.0
 40
0.15625
  1
DRAWN BY DAN SULLIVAN
  7
ENGINEER
100
AcDbText
  0
TEXT
  5
2F2
330
1F
100
AcDbEntity
  8
DIMENSIONS
  6
CONTINUOUS
 62
     7
100
AcDbText
 10
25.90953097757399
 20
4.792636495011774
 30
0.0
 40
0.2
  1
REF TO:
  7
ENGINEER
100
AcDbText
  0
TEXT
  5
2F3
330
1F
100
AcDbEntity
  8
DIMENSIONS
  6
CONTINUOUS
 62
     7
100
AcDbText
 10
25.90953097757399
 20
4.492636495011774
 30
0.0
 40
0.2
  1
Ranchero IMAGE 6-19-09.gxd
  7
ENGINEER
100
AcDbText
  0
TEXT
  5
2F4
330
1F
100
AcDbEntity
  8
DIMENSIONS
  6
CONTINUOUS
 62
     7
100
AcDbText
 10
25.90953097757399
 20
4.192636495011774
 30
0.0
 40
0.2
  1
Ranchero LAYOUT 6-27-09.gxd
  7
ENGINEER
100
AcDbText
  0
TEXT
  5
2F5
330
1F
100
AcDbEntity
  8
DIMENSIONS
  6
CONTINUOUS
 62
     7
100
AcDbText
 10
30.89139025895147
 20
6.603027843767041
 30
0.0
 40
0.2
  1
ADAPTOR PLATE
  7
ENGINEER
100
AcDbText
  0
TEXT
  5
2F6
330
1F
100
AcDbEntity
  8
DIMENSIONS
  6
CONTINUOUS
 62
     7
100
AcDbText
 10
30.89139025895147
 20
6.303027843767041
 30
0.0
 40
0.2
  1
FORD RANCHERO 62 to WARP9
  7
ENGINEER
100
AcDbText
  0
TEXT
  5
2F7
330
1F
100
AcDbEntity
  8
DIMENSIONS
  6
CONTINUOUS
 62
     7
100
AcDbText
 10
30.89139025895147
 20
5.703027843767041
 30
0.0
 40
0.2
  1
6/27/09   REV A
  7
ENGINEER
100
AcDbText
  0
TEXT
  5
2F8
330
1F
100
AcDbEntity
  8
DIMENSIONS
  6
CONTINUOUS
 62
     7
100
AcDbText
 10
30.89139025895147
 20
5.103027843767041
 30
0.0
 40
0.2
  1
NOTE A - 8X DRILL .515, CS 90 X .3 DEEP
  7
ENGINEER
100
AcDbText
  0
TEXT
  5
2F9
330
1F
100
AcDbEntity
  8
DIMENSIONS
  6
CONTINUOUS
 62
     7
100
AcDbText
 10
30.89139025895147
 20
4.803027843767041
 30
0.0
 40
0.2
  1
ON B.C., EQUALLY SPACED.
  7
ENGINEER
100
AcDbText
  0
TEXT
  5
2FA
330
1F
100
AcDbEntity
  8
DIMENSIONS
  6
CONTINUOUS
 62
     7
100
AcDbText
 10
30.89139025895147
 20
4.203027843767041
 30
0.0
 40
0.2
  1
NOTE B - RADIUS ALL OUTSIDE CORNERS .5".
  7
ENGINEER
100
AcDbText
  0
TEXT
  5
2FB
330
1F
100
AcDbEntity
  8
DIMENSIONS
  6
CONTINUOUS
 62
     7
100
AcDbText
 10
37.35498750513786
 20
6.812492094173162
 30
0.0
 40
0.2
  1
NOTE C - MARK WHERE SHOWN
  7
ENGINEER
100
AcDbText
  0
TEXT
  5
2FC
330
1F
100
AcDbEntity
  8
DIMENSIONS
  6
CONTINUOUS
 62
     7
100
AcDbText
 10
37.35498750513786
 20
6.512492094173163
 30
0.0
 40
0.2
  1
"RANCHERO 62"
  7
ENGINEER
100
AcDbText
  0
TEXT
  5
2FD
330
1F
100
AcDbEntity
  8
DIMENSIONS
  6
CONTINUOUS
 62
     7
100
AcDbText
 10
37.35498750513786
 20
6.212492094173163
 30
0.0
 40
0.2
  1
IN BLACK MARKER, 3/8" H
  7
ENGINEER
100
AcDbText
  0
TEXT
  5
2FE
330
1F
100
AcDbEntity
  8
DIMENSIONS
  6
CONTINUOUS
 62
     7
100
AcDbText
 10
37.35498750513786
 20
5.912492094173162
 30
0.0
 40
0.2
  1
BLOCK CHARACTERS.
  7
ENGINEER
100
AcDbText
  0
TEXT
  5
2FF
330
1F
100
AcDbEntity
  8
DIMENSIONS
  6
CONTINUOUS
 62
     7
100
AcDbText
 10
37.35498750513786
 20
5.312492094173162
 30
0.0
 40
0.2
  1
BREAK ALL EDGES / CORNERS.
  7
ENGINEER
100
AcDbText
  0
TEXT
  5
300
330
1F
100
AcDbEntity
  8
DIMENSIONS
  6
CONTINUOUS
 62
     7
100
AcDbText
 10
37.35498750513786
 20
4.712492094173163
 30
0.0
 40
0.2
  1
MATERIAL: 5/8" TOOLING PLATE (PROVIDED)
  7
ENGINEER
100
AcDbText
  0
TEXT
  5
301
330
1F
100
AcDbEntity
  8
DIMENSIONS
  6
CONTINUOUS
 62
     7
100
AcDbText
 10
37.35498750513786
 20
4.112492094173162
 30
0.0
 40
0.2
  1
TOL: .XXX=.005, .XX=.015
  7
ENGINEER
100
AcDbText
  0
ENDSEC
  0
SECTION
  2
OBJECTS
  0
DICTIONARY
  5
C
330
0
100
AcDbDictionary
  3
ACAD_GROUP
350
D
  3
ACAD_LAYOUT
350
1A
  3
ACAD_MLEADERSTYLE
350
324
  3
ACAD_MLINESTYLE
350
17
  3
ACAD_PLOTSETTINGS
350
19
  3
ACAD_SCALELIST
350
AA
  3
ACAD_VISUALSTYLE
350
2A
  3
ACDBHEADERROUNDTRIPXREC
350
302
  3
ACDBVARIABLEDICTIONARY
350
322
  0
DICTIONARY
  5
D
102
{ACAD_REACTORS
330
C
102
}
330
C
100
AcDbDictionary
  0
DICTIONARY
  5
1A
102
{ACAD_REACTORS
330
C
102
}
330
C
100
AcDbDictionary
  0
DICTIONARY
  5
324
102
{ACAD_REACTORS
330
C
102
}
330
C
100
AcDbDictionary
  0
DICTIONARY
  5
17
102
{ACAD_REACTORS
330
C
102
}
330
C
100
AcDbDictionary
  3
STANDARD
350
18
  0
DICTIONARY
  5
19
102
{ACAD_REACTORS
330
C
102
}
330
C
100
AcDbDictionary
  0
DICTIONARY
  5
AA
102
{ACAD_REACTORS
330
C
102
}
330
C
100
AcDbDictionary
  3
A0
350
AB
  3
A1
350
AC
  3
A2
350
AD
  3
A3
350
AE
  3
A4
350
AF
  3
A5
350
B0
  3
A6
350
B1
  3
A7
350
B2
  3
A8
350
B3
  3
A9
350
B4
  3
B0
350
B5
  3
B1
350
B6
  3
B2
350
B7
  3
B3
350
B8
  3
B4
350
B9
  3
B5
350
BA
  3
B6
350
BB
  3
B7
350
BC
  3
B8
350
BD
  3
B9
350
BE
  3
C0
350
BF
  3
C1
350
C0
  3
C2
350
C1
  3
C3
350
C2
  3
C4
350
C3
  3
C5
350
C4
  3
C6
350
C5
  3
C7
350
C6
  3
C8
350
C7
  3
C9
350
C8
  3
D0
350
C9
  3
D1
350
CA
  3
D2
350
CB
  0
DICTIONARY
  5
2A
102
{ACAD_REACTORS
330
C
102
}
330
C
100
AcDbDictionary
  3
2DWIREFRAME
350
2F
  3
3D_HIDDEN
350
31
  3
3DWIREFRAME
350
30
  3
BASIC
350
32
  3
BRIGHTEN
350
36
  3
COLORCHANGE
350
3A
  3
CONCEPTUAL
350
34
  3
DIM
350
35
  3
FACEPATTERN
350
39
  3
FLAT
350
2B
  3
FLATWITHEDGES
350
2C
  3
GOURAUD
350
2D
  3
GOURAUDWITHEDGES
350
2E
  3
LINEPATTERN
350
38
  3
REALISTIC
350
33
  3
THICKEN
350
37
  0
DICTIONARY
  5
302
102
{ACAD_REACTORS
330
C
102
}
330
C
100
AcDbDictionary
  3
CEPSNTYPE
350
30B
  3
DIMSTYLEDATA
350
321
  3
FINGERPRINTGUID
350
30C
  3
HYPERLINKBASE
350
305
  3
INSUNITS
350
30A
  3
LAYOUTDICT
350
307
  3
LWETCUNION
350
309
  3
PLOTSETDICT
350
308
  3
PSVPSCALE
350
30E
  3
PUCSBASE
350
311
  3
PUCSORGBACK
350
317
  3
PUCSORGBOTTOM
350
313
  3
PUCSORGFRONT
350
316
  3
PUCSORGLEFT
350
314
  3
PUCSORGRIGHT
350
315
  3
PUCSORGTOP
350
312
  3
PUCSORTHOREF
350
30F
  3
PUCSORTHOVIEW
350
310
  3
STYLESHEET
350
306
  3
TSTACKALIGN
350
303
  3
TSTACKSIZE
350
304
  3
UCSBASE
350
31A
  3
UCSORGBACK
350
320
  3
UCSORGBOTTOM
350
31C
  3
UCSORGFRONT
350
31F
  3
UCSORGLEFT
350
31D
  3
UCSORGRIGHT
350
31E
  3
UCSORGTOP
350
31B
  3
UCSORTHOREF
350
318
  3
UCSORTHOVIEW
350
319
  3
VERSIONGUID
350
30D
  0
DICTIONARY
  5
322
102
{ACAD_REACTORS
330
C
102
}
330
C
100
AcDbDictionary
  3
CANNOSCALE
350
325
  0
MLINESTYLE
  5
18
102
{ACAD_REACTORS
330
17
102
}
330
17
100
AcDbMlineStyle
  2
Standard
 70
     0
  3

 62
   256
 51
90.0
 52
90.0
 71
     2
 49
0.5
 62
   256
  6
BYLAYER
 49
-0.5
 62
   256
  6
BYLAYER
  0
ACAD_PROXY_OBJECT
  5
AB
102
{ACAD_REACTORS
330
AA
102
}
330
AA
100
AcDbProxyObject
 90
      499
 91
      502
 93
       41
310
903313A31580
  0
ACAD_PROXY_OBJECT
  5
AC
102
{ACAD_REACTORS
330
AA
102
}
330
AA
100
AcDbProxyObject
 90
      499
 91
      502
 93
      105
310
903313A324000000000000004000
  0
ACAD_PROXY_OBJECT
  5
AD
102
{ACAD_REACTORS
330
AA
102
}
330
AA
100
AcDbProxyObject
 90
      499
 91
      502
 93
      105
310
903313A344000000000000104000
  0
ACAD_PROXY_OBJECT
  5
AE
102
{ACAD_REACTORS
330
AA
102
}
330
AA
100
AcDbProxyObject
 90
      499
 91
      502
 93
      105
310
903313A354000000000000144000
  0
ACAD_PROXY_OBJECT
  5
AF
102
{ACAD_REACTORS
330
AA
102
}
330
AA
100
AcDbProxyObject
 90
      499
 91
      502
 93
      105
310
903313A384000000000000204000
  0
ACAD_PROXY_OBJECT
  5
B0
102
{ACAD_REACTORS
330
AA
102
}
330
AA
100
AcDbProxyObject
 90
      499
 91
      502
 93
      113
310
904313A31304000000000000244000
  0
ACAD_PROXY_OBJECT
  5
B1
102
{ACAD_REACTORS
330
AA
102
}
330
AA
100
AcDbProxyObject
 90
      499
 91
      502
 93
      113
310
904313A31364000000000000304000
  0
ACAD_PROXY_OBJECT
  5
B2
102
{ACAD_REACTORS
330
AA
102
}
330
AA
100
AcDbProxyObject
 90
      499
 91
      502
 93
      113
310
904313A32304000000000000344000
  0
ACAD_PROXY_OBJECT
  5
B3
102
{ACAD_REACTORS
330
AA
102
}
330
AA
100
AcDbProxyObject
 90
      499
 91
      502
 93
      113
310
904313A333040000000000003E4000
  0
ACAD_PROXY_OBJECT
  5
B4
102
{ACAD_REACTORS
330
AA
102
}
330
AA
100
AcDbProxyObject
 90
      499
 91
      502
 93
      113
310
904313A34304000000000000444000
  0
ACAD_PROXY_OBJECT
  5
B5
102
{ACAD_REACTORS
330
AA
102
}
330
AA
100
AcDbProxyObject
 90
      499
 91
      502
 93
      113
310
904313A35304000000000000494000
  0
ACAD_PROXY_OBJECT
  5
B6
102
{ACAD_REACTORS
330
AA
102
}
330
AA
100
AcDbProxyObject
 90
      499
 91
      502
 93
      121
310
905313A3130304000000000000594000
  0
ACAD_PROXY_OBJECT
  5
B7
102
{ACAD_REACTORS
330
AA
102
}
330
AA
100
AcDbProxyObject
 90
      499
 91
      502
 93
      105
310
903323A310000000000000010100
  0
ACAD_PROXY_OBJECT
  5
B8
102
{ACAD_REACTORS
330
AA
102
}
330
AA
100
AcDbProxyObject
 90
      499
 91
      502
 93
      105
310
903343A310000000000000410100
  0
ACAD_PROXY_OBJECT
  5
B9
102
{ACAD_REACTORS
330
AA
102
}
330
AA
100
AcDbProxyObject
 90
      499
 91
      502
 93
      105
310
903383A310000000000000810100
  0
ACAD_PROXY_OBJECT
  5
BA
102
{ACAD_REACTORS
330
AA
102
}
330
AA
100
AcDbProxyObject
 90
      499
 91
      502
 93
      113
310
90431303A310000000000000910100
  0
ACAD_PROXY_OBJECT
  5
BB
102
{ACAD_REACTORS
330
AA
102
}
330
AA
100
AcDbProxyObject
 90
      499
 91
      502
 93
      121
310
9053130303A310000000000001650100
  0
ACAD_PROXY_OBJECT
  5
BC
102
{ACAD_REACTORS
330
AA
102
}
330
AA
100
AcDbProxyObject
 90
      499
 91
      502
 93
      257
310
90E312F31323822203D2031272D3022000000000000200FC000000000000284000
  0
ACAD_PROXY_OBJECT
  5
BD
102
{ACAD_REACTORS
330
AA
102
}
330
AA
100
AcDbProxyObject
 90
      499
 91
      502
 93
      249
310
90D312F363422203D2031272D3022000000000000240FC000000000000284000
  0
ACAD_PROXY_OBJECT
  5
BE
102
{ACAD_REACTORS
330
AA
102
}
330
AA
100
AcDbProxyObject
 90
      499
 91
      502
 93
      249
310
90D312F333222203D2031272D3022000000000000280FC000000000000284000
  0
ACAD_PROXY_OBJECT
  5
BF
102
{ACAD_REACTORS
330
AA
102
}
330
AA
100
AcDbProxyObject
 90
      499
 91
      502
 93
      249
310
90D312F313622203D2031272D30220000000000002C0FC000000000000284000
  0
ACAD_PROXY_OBJECT
  5
C0
102
{ACAD_REACTORS
330
AA
102
}
330
AA
100
AcDbProxyObject
 90
      499
 91
      502
 93
      249
310
90D332F333222203D2031272D30220000000000002E0FC000000000000284000
  0
ACAD_PROXY_OBJECT
  5
C1
102
{ACAD_REACTORS
330
AA
102
}
330
AA
100
AcDbProxyObject
 90
      499
 91
      502
 93
      241
310
90C312F3822203D2031272D3022000000000000300FC000000000000284000
  0
ACAD_PROXY_OBJECT
  5
C2
102
{ACAD_REACTORS
330
AA
102
}
330
AA
100
AcDbProxyObject
 90
      499
 91
      502
 93
      249
310
90D332F313622203D2031272D3022000000000000320FC000000000000284000
  0
ACAD_PROXY_OBJECT
  5
C3
102
{ACAD_REACTORS
330
AA
102
}
330
AA
100
AcDbProxyObject
 90
      499
 91
      502
 93
      241
310
90C312F3422203D2031272D3022000000000000340FC000000000000284000
  0
ACAD_PROXY_OBJECT
  5
C4
102
{ACAD_REACTORS
330
AA
102
}
330
AA
100
AcDbProxyObject
 90
      499
 91
      502
 93
      241
310
90C332F3822203D2031272D3022000000000000360FC000000000000284000
  0
ACAD_PROXY_OBJECT
  5
C5
102
{ACAD_REACTORS
330
AA
102
}
330
AA
100
AcDbProxyObject
 90
      499
 91
      502
 93
      241
310
90C312F3222203D2031272D3022000000000000380FC000000000000284000
  0
ACAD_PROXY_OBJECT
  5
C6
102
{ACAD_REACTORS
330
AA
102
}
330
AA
100
AcDbProxyObject
 90
      499
 91
      502
 93
      241
310
90C332F3422203D2031272D30220000000000003A0FC000000000000284000
  0
ACAD_PROXY_OBJECT
  5
C7
102
{ACAD_REACTORS
330
AA
102
}
330
AA
100
AcDbProxyObject
 90
      499
 91
      502
 93
      161
310
90A3122203D2031272D30224000000000000284000
  0
ACAD_PROXY_OBJECT
  5
C8
102
{ACAD_REACTORS
330
AA
102
}
330
AA
100
AcDbProxyObject
 90
      499
 91
      502
 93
      257
310
90E312D312F3222203D2031272D30220000000000003E0FC000000000000284000
  0
ACAD_PROXY_OBJECT
  5
C9
102
{ACAD_REACTORS
330
AA
102
}
330
AA
100
AcDbProxyObject
 90
      499
 91
      502
 93
      225
310
90A3322203D2031272D302200000000000002100000000000000284000
  0
ACAD_PROXY_OBJECT
  5
CA
102
{ACAD_REACTORS
330
AA
102
}
330
AA
100
AcDbProxyObject
 90
      499
 91
      502
 93
      225
310
90A3622203D2031272D302200000000000006100000000000000284000
  0
ACAD_PROXY_OBJECT
  5
CB
102
{ACAD_REACTORS
330
AA
102
}
330
AA
100
AcDbProxyObject
 90
      499
 91
      502
 93
      249
310
90D31272D3022203D2031272D30220000000000000A100000000000000284000
  0
ACAD_PROXY_OBJECT
  5
2F
102
{ACAD_REACTORS
330
2A
102
}
330
2A
100
AcDbProxyObject
 90
      499
 91
      501
 93
      436
310
42CC9915DA5C99599C985B595049028333333333333E3BF0000000000000FB0107901411070040501600405405064090741402480A0340
1001
ACAD
1000
AcDbSavedByObjectVersion
1070
     0
  0
ACAD_PROXY_OBJECT
  5
31
102
{ACAD_REACTORS
330
2A
102
}
330
2A
100
AcDbProxyObject
 90
      499
 91
      501
 93
      500
310
424CD108121A5919195B90640502408333333333333E3BF0000000000000FB01079024090700405020000000000001110200405405064090740C02480A0340
1001
ACAD
1000
AcDbSavedByObjectVersion
1070
     0
  0
ACAD_PROXY_OBJECT
  5
30
102
{ACAD_REACTORS
330
2A
102
}
330
2A
100
AcDbProxyObject
 90
      499
 91
      501
 93
      436
310
42CCD915DA5C99599C985B595059028333333333333E3BF0000000000000FB0107901411070040501600405405064090741402480A0340
1001
ACAD
1000
AcDbSavedByObjectVersion
1070
     0
  0
ACAD_PROXY_OBJECT
  5
32
102
{ACAD_REACTORS
330
2A
102
}
330
2A
100
AcDbProxyObject
 90
      499
 91
      501
 93
      388
310
4150985CDA58D07406404333333333333E3BF0000000000000FB0107A41107004050150841D405064090741402480A0350
1001
ACAD
1000
AcDbSavedByObjectVersion
1070
     0
  0
ACAD_PROXY_OBJECT
  5
36
102
{ACAD_REACTORS
330
2A
102
}
330
2A
100
AcDbProxyObject
 90
      499
 91
      501
 93
      428
310
42109C9A59DA1D195B90C409028333333333333E3BF0000000000000FB010790141107004050150841D405064090741402480A029950
1001
ACAD
1000
AcDbSavedByObjectVersion
1070
     0
  0
ACAD_PROXY_OBJECT
  5
3A
102
{ACAD_REACTORS
330
2A
102
}
330
2A
100
AcDbProxyObject
 90
      499
 91
      501
 93
      452
310
42D0DBDB1BDC90DA185B99D95104090240C333333333333E3BF0000000000000FB0108901411070040501508421405064090741402480A0350
1001
ACAD
1000
AcDbSavedByObjectVersion
1070
     0
  0
ACAD_PROXY_OBJECT
  5
34
102
{ACAD_REACTORS
330
2A
102
}
330
2A
100
AcDbProxyObject
 90
      499
 91
      501
 93
      500
310
4290DBDB98D95C1D1D585B10940D028333333333333E3BF0000000000000FB0107902409070040501000000000000111010841D405064090740C02480A0340
1001
ACAD
1000
AcDbSavedByObjectVersion
1070
     0
  0
ACAD_PROXY_OBJECT
  5
35
102
{ACAD_REACTORS
330
2A
102
}
330
2A
100
AcDbProxyObject
 90
      499
 91
      501
 93
      412
310
40D11A5B50B409028333333333333E3BF0000000000000FB010790141107004050150841D405064090741402480A02677FFFFFD0
1001
ACAD
1000
AcDbSavedByObjectVersion
1070
     0
  0
ACAD_PROXY_OBJECT
  5
39
102
{ACAD_REACTORS
330
2A
102
}
330
2A
100
AcDbProxyObject
 90
      499
 91
      501
 93
      444
310
42D19858D95C185D1D195C9B90F409028333333333333E3BF0000000000000FB010790141107004050150841D405064090741402480A0350
1001
ACAD
1000
AcDbSavedByObjectVersion
1070
     0
  0
ACAD_PROXY_OBJECT
  5
2B
102
{ACAD_REACTORS
330
2A
102
}
330
2A
100
AcDbProxyObject
 90
      499
 91
      501
 93
      388
310
41119B185D240901404333333333333E3BF0000000000000F9010740A41107004050150841D405064090741402480A1B50
1001
ACAD
1000
AcDbSavedByObjectVersion
1070
     0
  0
ACAD_PROXY_OBJECT
  5
2C
102
{ACAD_REACTORS
330
2A
102
}
330
2A
100
AcDbProxyObject
 90
      499
 91
      501
 93
      476
310
43519B185D15DA5D1A115919D95CD0140901404333333333333E3BF0000000000000F9010740901411070040501600405405064090741402480A1B50
1001
ACAD
1000
AcDbSavedByObjectVersion
1070
     0
  0
ACAD_PROXY_OBJECT
  5
2D
102
{ACAD_REACTORS
330
2A
102
}
330
2A
100
AcDbProxyObject
 90
      499
 91
      501
 93
      412
310
41D1DBDD5C985D5910240902404333333333333E3BF0000000000000F9010740A411070040501641D405064090741402480A1B50
1001
ACAD
1000
AcDbSavedByObjectVersion
1070
     0
  0
ACAD_PROXY_OBJECT
  5
2E
102
{ACAD_REACTORS
330
2A
102
}
330
2A
100
AcDbProxyObject
 90
      499
 91
      501
 93
      500
310
4411DBDD5C985D5915DA5D1A115919D95CD0340902404333333333333E3BF0000000000000F9010740901411070040501600405405064090741402480A1B50
1001
ACAD
1000
AcDbSavedByObjectVersion
1070
     0
  0
ACAD_PROXY_OBJECT
  5
38
102
{ACAD_REACTORS
330
2A
102
}
330
2A
100
AcDbProxyObject
 90
      499
 91
      501
 93
      444
310
42D31A5B995C185D1D195C9B90E409028333333333333E3BF0000000000000FB010790141107004050750841D405064090741402483A0350
1001
ACAD
1000
AcDbSavedByObjectVersion
1070
     0
  0
ACAD_PROXY_OBJECT
  5
33
102
{ACAD_REACTORS
330
2A
102
}
330
2A
100
AcDbProxyObject
 90
      499
 91
      501
 93
      420
310
425499585B1A5CDD1A58D08409028333333333333E3BF0000000000000FB01079019070040501508421405064090741402480A1B40
1001
ACAD
1000
AcDbSavedByObjectVersion
1070
     0
  0
ACAD_PROXY_OBJECT
  5
37
102
{ACAD_REACTORS
330
2A
102
}
330
2A
100
AcDbProxyObject
 90
      499
 91
      501
 93
      412
310
41D51A1A58DAD95B90D409028333333333333E3BF0000000000000FB010790141107004050150C41D405064090741402480A0350
1001
ACAD
1000
AcDbSavedByObjectVersion
1070
     0
  0
ACAD_PROXY_OBJECT
  5
30B
102
{ACAD_REACTORS
330
302
102
}
330
302
100
AcDbProxyObject
 90
      499
 91
      504
 93
       58
310
4196800000000000
  0
ACAD_PROXY_OBJECT
  5
321
102
{ACAD_REACTORS
330
302
102
}
330
302
100
AcDbProxyObject
 90
      499
 91
      504
 93
      306
310
497A00C180079114D51653117A80C040079ECB811500550044400000000000003A80C040079F40
  0
ACAD_PROXY_OBJECT
  5
30C
102
{ACAD_REACTORS
330
302
102
}
330
302
100
AcDbProxyObject
 90
      499
 91
      504
 93
      354
310
4AC0400980079ED150D18C8CD08C8E4B4E5150D0CB4D0CD0D18B4E4C108E0B510C508C910CCCCD8D4C10915F40
  0
ACAD_PROXY_OBJECT
  5
305
102
{ACAD_REACTORS
330
302
102
}
330
302
100
AcDbProxyObject
 90
      499
 91
      504
 93
       50
310
41404000000780
  0
ACAD_PROXY_OBJECT
  5
30A
102
{ACAD_REACTORS
330
302
102
}
330
302
100
AcDbProxyObject
 90
      499
 91
      504
 93
       58
310
4196800040000000
  0
ACAD_PROXY_OBJECT
  5
307
102
{ACAD_REACTORS
330
302
102
}
330
302
100
AcDbProxyObject
 90
      499
 91
      504
 93
       90
310
429500468000000000000000
  0
ACAD_PROXY_OBJECT
  5
309
102
{ACAD_REACTORS
330
302
102
}
330
302
100
AcDbProxyObject
 90
      499
 91
      504
 93
       58
310
419680074A000000
  0
ACAD_PROXY_OBJECT
  5
308
102
{ACAD_REACTORS
330
302
102
}
330
302
100
AcDbProxyObject
 90
      499
 91
      504
 93
       90
310
429500464000000000000000
  0
ACAD_PROXY_OBJECT
  5
30E
102
{ACAD_REACTORS
330
302
102
}
330
302
100
AcDbProxyObject
 90
      499
 91
      504
 93
       90
310
428A00000000000000000000
  0
ACAD_PROXY_OBJECT
  5
311
102
{ACAD_REACTORS
330
302
102
}
330
302
100
AcDbProxyObject
 90
      499
 91
      504
 93
       90
310
429500400000000000000000
  0
ACAD_PROXY_OBJECT
  5
317
102
{ACAD_REACTORS
330
302
102
}
330
302
100
AcDbProxyObject
 90
      499
 91
      504
 93
      218
310
46828000000000000000000000000000000000000000000000000000
  0
ACAD_PROXY_OBJECT
  5
313
102
{ACAD_REACTORS
330
302
102
}
330
302
100
AcDbProxyObject
 90
      499
 91
      504
 93
      218
310
46828000000000000000000000000000000000000000000000000000
  0
ACAD_PROXY_OBJECT
  5
316
102
{ACAD_REACTORS
330
302
102
}
330
302
100
AcDbProxyObject
 90
      499
 91
      504
 93
      218
310
46828000000000000000000000000000000000000000000000000000
  0
ACAD_PROXY_OBJECT
  5
314
102
{ACAD_REACTORS
330
302
102
}
330
302
100
AcDbProxyObject
 90
      499
 91
      504
 93
      218
310
46828000000000000000000000000000000000000000000000000000
  0
ACAD_PROXY_OBJECT
  5
315
102
{ACAD_REACTORS
330
302
102
}
330
302
100
AcDbProxyObject
 90
      499
 91
      504
 93
      218
310
46828000000000000000000000000000000000000000000000000000
  0
ACAD_PROXY_OBJECT
  5
312
102
{ACAD_REACTORS
330
302
102
}
330
302
100
AcDbProxyObject
 90
      499
 91
      504
 93
      218
310
46828000000000000000000000000000000000000000000000000000
  0
ACAD_PROXY_OBJECT
  5
30F
102
{ACAD_REACTORS
330
302
102
}
330
302
100
AcDbProxyObject
 90
      499
 91
      504
 93
       90
310
429500400000000000000000
  0
ACAD_PROXY_OBJECT
  5
310
102
{ACAD_REACTORS
330
302
102
}
330
302
100
AcDbProxyObject
 90
      499
 91
      504
 93
       42
310
411180000000
  0
ACAD_PROXY_OBJECT
  5
306
102
{ACAD_REACTORS
330
302
102
}
330
302
100
AcDbProxyObject
 90
      499
 91
      504
 93
       50
310
41404000000780
  0
ACAD_PROXY_OBJECT
  5
303
102
{ACAD_REACTORS
330
302
102
}
330
302
100
AcDbProxyObject
 90
      499
 91
      504
 93
       58
310
4196800040000000
  0
ACAD_PROXY_OBJECT
  5
304
102
{ACAD_REACTORS
330
302
102
}
330
302
100
AcDbProxyObject
 90
      499
 91
      504
 93
       58
310
4196801180000000
  0
ACAD_PROXY_OBJECT
  5
31A
102
{ACAD_REACTORS
330
302
102
}
330
302
100
AcDbProxyObject
 90
      499
 91
      504
 93
       90
310
429500400000000000000000
  0
ACAD_PROXY_OBJECT
  5
320
102
{ACAD_REACTORS
330
302
102
}
330
302
100
AcDbProxyObject
 90
      499
 91
      504
 93
      218
310
46828000000000000000000000000000000000000000000000000000
  0
ACAD_PROXY_OBJECT
  5
31C
102
{ACAD_REACTORS
330
302
102
}
330
302
100
AcDbProxyObject
 90
      499
 91
      504
 93
      218
310
46828000000000000000000000000000000000000000000000000000
  0
ACAD_PROXY_OBJECT
  5
31F
102
{ACAD_REACTORS
330
302
102
}
330
302
100
AcDbProxyObject
 90
      499
 91
      504
 93
      218
310
46828000000000000000000000000000000000000000000000000000
  0
ACAD_PROXY_OBJECT
  5
31D
102
{ACAD_REACTORS
330
302
102
}
330
302
100
AcDbProxyObject
 90
      499
 91
      504
 93
      218
310
46828000000000000000000000000000000000000000000000000000
  0
ACAD_PROXY_OBJECT
  5
31E
102
{ACAD_REACTORS
330
302
102
}
330
302
100
AcDbProxyObject
 90
      499
 91
      504
 93
      218
310
46828000000000000000000000000000000000000000000000000000
  0
ACAD_PROXY_OBJECT
  5
31B
102
{ACAD_REACTORS
330
302
102
}
330
302
100
AcDbProxyObject
 90
      499
 91
      504
 93
      218
310
46828000000000000000000000000000000000000000000000000000
  0
ACAD_PROXY_OBJECT
  5
318
102
{ACAD_REACTORS
330
302
102
}
330
302
100
AcDbProxyObject
 90
      499
 91
      504
 93
       90
310
429500400000000000000000
  0
ACAD_PROXY_OBJECT
  5
319
102
{ACAD_REACTORS
330
302
102
}
330
302
100
AcDbProxyObject
 90
      499
 91
      504
 93
       42
310
411180000000
  0
ACAD_PROXY_OBJECT
  5
30D
102
{ACAD_REACTORS
330
302
102
}
330
302
100
AcDbProxyObject
 90
      499
 91
      504
 93
      354
310
4AC0400980079ED19051508C50CCCC8B514C0C4E4B4C4C510D4B4E4C8E508B4C0C10CC11118C8D4D9150CD1F40
  0
DICTIONARYVAR
  5
325
102
{ACAD_REACTORS
330
322
102
}
330
322
100
DictionaryVariables
280
     0
  1
1:1
  0
ENDSEC
  0
EOF
