  0
SECTION
  2
HEADER
  9
$ACADVER
  1
AC1015
  9
$ACADMAINTVER
 70
     6
  9
$DWGCODEPAGE
  3
ANSI_1252
  9
$INSBASE
 10
0.0
 20
0.0
 30
0.0
  9
$EXTMIN
 10
1.000000000000000E+20
 20
1.000000000000000E+20
 30
1.000000000000000E+20
  9
$EXTMAX
 10
-1.000000000000000E+20
 20
-1.000000000000000E+20
 30
-1.000000000000000E+20
  9
$LIMMIN
 10
0.0
 20
0.0
  9
$LIMMAX
 10
12.0
 20
9.0
  9
$ORTHOMODE
 70
     0
  9
$REGENMODE
 70
     1
  9
$FILLMODE
 70
     1
  9
$QTEXTMODE
 70
     0
  9
$MIRRTEXT
 70
     1
  9
$LTSCALE
 40
2.0
  9
$ATTMODE
 70
     1
  9
$TEXTSIZE
 40
0.2
  9
$TRACEWID
 40
0.05
  9
$TEXTSTYLE
  7
Standard
  9
$CLAYER
  8
0
  9
$CELTYPE
  6
ByLayer
  9
$CECOLOR
 62
   256
  9
$CELTSCALE
 40
1.0
  9
$DISPSILH
 70
     0
  9
$DIMSCALE
 40
1.0
  9
$DIMASZ
 40
0.18
  9
$DIMEXO
 40
0.0625
  9
$DIMDLI
 40
0.38
  9
$DIMRND
 40
0.0
  9
$DIMDLE
 40
0.0
  9
$DIMEXE
 40
0.18
  9
$DIMTP
 40
0.0
  9
$DIMTM
 40
0.0
  9
$DIMTXT
 40
0.18
  9
$DIMCEN
 40
0.09
  9
$DIMTSZ
 40
0.0
  9
$DIMTOL
 70
     0
  9
$DIMLIM
 70
     0
  9
$DIMTIH
 70
     1
  9
$DIMTOH
 70
     1
  9
$DIMSE1
 70
     0
  9
$DIMSE2
 70
     0
  9
$DIMTAD
 70
     0
  9
$DIMZIN
 70
     0
  9
$DIMBLK
  1

  9
$DIMASO
 70
     1
  9
$DIMSHO
 70
     1
  9
$DIMPOST
  1

  9
$DIMAPOST
  1

  9
$DIMALT
 70
     0
  9
$DIMALTD
 70
     2
  9
$DIMALTF
 40
25.4
  9
$DIMLFAC
 40
1.0
  9
$DIMTOFL
 70
     0
  9
$DIMTVP
 40
0.0
  9
$DIMTIX
 70
     0
  9
$DIMSOXD
 70
     0
  9
$DIMSAH
 70
     0
  9
$DIMBLK1
  1

  9
$DIMBLK2
  1

  9
$DIMSTYLE
  2
Standard
  9
$DIMCLRD
 70
     0
  9
$DIMCLRE
 70
     0
  9
$DIMCLRT
 70
     0
  9
$DIMTFAC
 40
1.0
  9
$DIMGAP
 40
0.09
  9
$DIMJUST
 70
     0
  9
$DIMSD1
 70
     0
  9
$DIMSD2
 70
     0
  9
$DIMTOLJ
 70
     1
  9
$DIMTZIN
 70
     0
  9
$DIMALTZ
 70
     0
  9
$DIMALTTZ
 70
     0
  9
$DIMUPT
 70
     0
  9
$DIMDEC
 70
     4
  9
$DIMTDEC
 70
     4
  9
$DIMALTU
 70
     2
  9
$DIMALTTD
 70
     2
  9
$DIMTXSTY
  7
Standard
  9
$DIMAUNIT
 70
     0
  9
$DIMADEC
 70
     0
  9
$DIMALTRND
 40
0.0
  9
$DIMAZIN
 70
     0
  9
$DIMDSEP
 70
    46
  9
$DIMATFIT
 70
     3
  9
$DIMFRAC
 70
     0
  9
$DIMLDRBLK
  1

  9
$DIMLUNIT
 70
     2
  9
$DIMLWD
 70
    -2
  9
$DIMLWE
 70
    -2
  9
$DIMTMOVE
 70
     0
  9
$LUNITS
 70
     2
  9
$LUPREC
 70
     3
  9
$SKETCHINC
 40
0.1
  9
$FILLETRAD
 40
0.5
  9
$AUNITS
 70
     0
  9
$AUPREC
 70
     0
  9
$MENU
  1
.
  9
$ELEVATION
 40
0.0
  9
$PELEVATION
 40
0.0
  9
$THICKNESS
 40
0.0
  9
$LIMCHECK
 70
     0
  9
$CHAMFERA
 40
0.5
  9
$CHAMFERB
 40
0.5
  9
$CHAMFERC
 40
1.0
  9
$CHAMFERD
 40
0.0
  9
$SKPOLY
 70
     0
  9
$TDCREATE
 40
2455104.524728542
  9
$TDUCREATE
 40
2455104.816395208
  9
$TDUPDATE
 40
2455104.524728553
  9
$TDUUPDATE
 40
2455104.81639522
  9
$TDINDWG
 40
0.0000000116
  9
$TDUSRTIMER
 40
0.0000000116
  9
$USRTIMER
 70
     1
  9
$ANGBASE
 50
0.0
  9
$ANGDIR
 70
     0
  9
$PDMODE
 70
     2
  9
$PDSIZE
 40
-2.0
  9
$PLINEWID
 40
0.0
  9
$SPLFRAME
 70
     0
  9
$SPLINETYPE
 70
     6
  9
$SPLINESEGS
 70
     8
  9
$HANDSEED
  5
136
  9
$SURFTAB1
 70
     6
  9
$SURFTAB2
 70
     6
  9
$SURFTYPE
 70
     6
  9
$SURFU
 70
     6
  9
$SURFV
 70
     6
  9
$UCSBASE
  2

  9
$UCSNAME
  2

  9
$UCSORG
 10
0.0
 20
0.0
 30
0.0
  9
$UCSXDIR
 10
1.0
 20
0.0
 30
0.0
  9
$UCSYDIR
 10
0.0
 20
1.0
 30
0.0
  9
$UCSORTHOREF
  2

  9
$UCSORTHOVIEW
 70
     0
  9
$UCSORGTOP
 10
0.0
 20
0.0
 30
0.0
  9
$UCSORGBOTTOM
 10
0.0
 20
0.0
 30
0.0
  9
$UCSORGLEFT
 10
0.0
 20
0.0
 30
0.0
  9
$UCSORGRIGHT
 10
0.0
 20
0.0
 30
0.0
  9
$UCSORGFRONT
 10
0.0
 20
0.0
 30
0.0
  9
$UCSORGBACK
 10
0.0
 20
0.0
 30
0.0
  9
$PUCSBASE
  2

  9
$PUCSNAME
  2

  9
$PUCSORG
 10
0.0
 20
0.0
 30
0.0
  9
$PUCSXDIR
 10
1.0
 20
0.0
 30
0.0
  9
$PUCSYDIR
 10
0.0
 20
1.0
 30
0.0
  9
$PUCSORTHOREF
  2

  9
$PUCSORTHOVIEW
 70
     0
  9
$PUCSORGTOP
 10
0.0
 20
0.0
 30
0.0
  9
$PUCSORGBOTTOM
 10
0.0
 20
0.0
 30
0.0
  9
$PUCSORGLEFT
 10
0.0
 20
0.0
 30
0.0
  9
$PUCSORGRIGHT
 10
0.0
 20
0.0
 30
0.0
  9
$PUCSORGFRONT
 10
0.0
 20
0.0
 30
0.0
  9
$PUCSORGBACK
 10
0.0
 20
0.0
 30
0.0
  9
$USERI1
 70
     0
  9
$USERI2
 70
     0
  9
$USERI3
 70
     0
  9
$USERI4
 70
     0
  9
$USERI5
 70
     0
  9
$USERR1
 40
0.0
  9
$USERR2
 40
0.0
  9
$USERR3
 40
0.0
  9
$USERR4
 40
0.0
  9
$USERR5
 40
0.0
  9
$WORLDVIEW
 70
     1
  9
$SHADEDGE
 70
     3
  9
$SHADEDIF
 70
    70
  9
$TILEMODE
 70
     1
  9
$MAXACTVP
 70
    64
  9
$PINSBASE
 10
0.0
 20
0.0
 30
0.0
  9
$PLIMCHECK
 70
     0
  9
$PEXTMIN
 10
1.000000000000000E+20
 20
1.000000000000000E+20
 30
1.000000000000000E+20
  9
$PEXTMAX
 10
-1.000000000000000E+20
 20
-1.000000000000000E+20
 30
-1.000000000000000E+20
  9
$PLIMMIN
 10
0.0
 20
0.0
  9
$PLIMMAX
 10
12.0
 20
9.0
  9
$UNITMODE
 70
     0
  9
$VISRETAIN
 70
     1
  9
$PLINEGEN
 70
     0
  9
$PSLTSCALE
 70
     1
  9
$TREEDEPTH
 70
  3020
  9
$CMLSTYLE
  2
Standard
  9
$CMLJUST
 70
     0
  9
$CMLSCALE
 40
1.0
  9
$PROXYGRAPHICS
 70
     1
  9
$MEASUREMENT
 70
     0
  9
$CELWEIGHT
370
    -1
  9
$ENDCAPS
280
     0
  9
$JOINSTYLE
280
     0
  9
$LWDISPLAY
290
     1
  9
$INSUNITS
 70
     1
  9
$HYPERLINKBASE
  1

  9
$STYLESHEET
  1

  9
$XEDIT
290
     1
  9
$CEPSNTYPE
380
     0
  9
$PSTYLEMODE
290
     1
  9
$FINGERPRINTGUID
  2
{D1D47FFD-7222-480C-933F-7B83133506AC}
  9
$VERSIONGUID
  2
{FAEB1C32-E019-11D5-929B-00C0DF256EC4}
  9
$EXTNAMES
290
     1
  9
$PSVPSCALE
 40
0.0
  9
$OLESTARTUP
290
     0
  0
ENDSEC
  0
SECTION
  2
CLASSES
  0
CLASS
  1
ACDBDICTIONARYWDFLT
  2
AcDbDictionaryWithDefault
  3
ObjectDBX Classes
 90
        0
280
     0
281
     0
  0
CLASS
  1
VISUALSTYLE
  2
AcDbVisualStyle
  3
ObjectDBX Classes
 90
     4095
280
     0
281
     0
  0
CLASS
  1
SCALE
  2
AcDbScale
  3
ObjectDBX Classes
 90
     1153
280
     0
281
     0
  0
CLASS
  1
DICTIONARYVAR
  2
AcDbDictionaryVar
  3
ObjectDBX Classes
 90
        0
280
     0
281
     0
  0
CLASS
  1
ACDBPLACEHOLDER
  2
AcDbPlaceHolder
  3
ObjectDBX Classes
 90
        0
280
     0
281
     0
  0
CLASS
  1
LAYOUT
  2
AcDbLayout
  3
ObjectDBX Classes
 90
        0
280
     0
281
     0
  0
ENDSEC
  0
SECTION
  2
TABLES
  0
TABLE
  2
VPORT
  5
8
330
0
100
AcDbSymbolTable
 70
     1
  0
VPORT
  5
29
330
8
100
AcDbSymbolTableRecord
100
AcDbViewportTableRecord
  2
*Active
 70
     0
 10
0.0
 20
0.0
 11
1.0
 21
1.0
 12
27.5607057945218
 22
18.82486040303959
 13
0.0
 23
0.0
 14
0.5
 24
0.5
 15
0.5
 25
0.5
 16
0.0
 26
0.0
 36
1.0
 17
0.0
 27
0.0
 37
0.0
 40
15.27255432428612
 41
1.235461323396141
 42
50.0
 43
0.0
 44
0.0
 50
0.0
 51
0.0
 71
     0
 72
   100
 73
     1
 74
     3
 75
     0
 76
     0
 77
     0
 78
     0
281
     0
 65
     1
110
0.0
120
0.0
130
0.0
111
1.0
121
0.0
131
0.0
112
0.0
122
1.0
132
0.0
 79
     0
146
0.0
  0
ENDTAB
  0
TABLE
  2
LTYPE
  5
5
330
0
100
AcDbSymbolTable
 70
     2
  0
LTYPE
  5
14
330
5
100
AcDbSymbolTableRecord
100
AcDbLinetypeTableRecord
  2
ByBlock
 70
     0
  3

 72
    65
 73
     0
 40
0.0
  0
LTYPE
  5
15
330
5
100
AcDbSymbolTableRecord
100
AcDbLinetypeTableRecord
  2
ByLayer
 70
     0
  3

 72
    65
 73
     0
 40
0.0
  0
LTYPE
  5
16
330
5
100
AcDbSymbolTableRecord
100
AcDbLinetypeTableRecord
  2
Continuous
 70
     0
  3
Solid line
 72
    65
 73
     0
 40
0.0
  0
LTYPE
  5
65
330
5
100
AcDbSymbolTableRecord
100
AcDbLinetypeTableRecord
  2
CENTERD
 70
     0
  3
_____ _ _____ _____ _ _____.
 72
    65
 73
     4
 40
0.4844
 49
0.2969
 74
     0
 49
-0.0625
 74
     0
 49
0.0625
 74
     0
 49
-0.0625
 74
     0
  0
ENDTAB
  0
TABLE
  2
LAYER
  5
2
330
0
100
AcDbSymbolTable
 70
     5
  0
LAYER
  5
10
330
2
100
AcDbSymbolTableRecord
100
AcDbLayerTableRecord
  2
0
 70
     0
 62
     7
  6
Continuous
370
    -3
390
F
  0
LAYER
  5
3C
330
2
100
AcDbSymbolTableRecord
100
AcDbLayerTableRecord
  2
DIMENSIONS
 70
     0
 62
     7
  6
Continuous
370
    -3
390
F
  0
LAYER
  5
70
330
2
100
AcDbSymbolTableRecord
100
AcDbLayerTableRecord
  2
MOTOR PLATE
 70
     0
 62
     7
  6
Continuous
370
    -3
390
F
  0
LAYER
  5
87
330
2
100
AcDbSymbolTableRecord
100
AcDbLayerTableRecord
  2
CENTRLIN
 70
     0
 62
     7
  6
Continuous
370
    -3
390
F
  0
LAYER
  5
123
330
2
100
AcDbSymbolTableRecord
100
AcDbLayerTableRecord
  2
Plate
 70
     0
 62
     7
  6
Continuous
370
    -3
390
F
  0
ENDTAB
  0
TABLE
  2
STYLE
  5
3
330
0
100
AcDbSymbolTable
 70
     3
  0
STYLE
  5
11
330
3
100
AcDbSymbolTableRecord
100
AcDbTextStyleTableRecord
  2
Standard
 70
     0
 40
0.0
 41
1.0
 50
0.0
 71
     0
 42
0.2
  3
txt
  4

  0
STYLE
  5
3B
330
3
100
AcDbSymbolTableRecord
100
AcDbTextStyleTableRecord
  2
ENGINEER
 70
     0
 40
0.2
 41
1.0
 50
0.0
 71
     0
 42
0.2
  3
ENGINEER.SHX
  4

1001
ACAD
1000
ENGINEER
1071
       34
  0
STYLE
  5
6D
330
3
100
AcDbSymbolTableRecord
100
AcDbTextStyleTableRecord
  2
MAIN
 70
     0
 40
0.2
 41
1.0
 50
0.0
 71
     0
 42
0.2
  3
MAIN.SHX
  4

1001
ACAD
1000
MAIN
1071
       34
  0
ENDTAB
  0
TABLE
  2
VIEW
  5
6
330
0
100
AcDbSymbolTable
 70
     0
  0
ENDTAB
  0
TABLE
  2
UCS
  5
7
330
0
100
AcDbSymbolTable
 70
     0
  0
ENDTAB
  0
TABLE
  2
APPID
  5
9
330
0
100
AcDbSymbolTable
 70
     1
  0
APPID
  5
12
330
9
100
AcDbSymbolTableRecord
100
AcDbRegAppTableRecord
  2
ACAD
 70
     0
  0
ENDTAB
  0
TABLE
  2
DIMSTYLE
  5
A
330
0
100
AcDbSymbolTable
 70
     1
100
AcDbDimStyleTable
  0
DIMSTYLE
105
27
330
A
100
AcDbSymbolTableRecord
100
AcDbDimStyleTableRecord
  2
Standard
 70
     0
340
11
  0
ENDTAB
  0
TABLE
  2
BLOCK_RECORD
  5
1
330
0
100
AcDbSymbolTable
 70
     1
  0
BLOCK_RECORD
  5
1F
330
1
100
AcDbSymbolTableRecord
100
AcDbBlockTableRecord
  2
*Model_Space
340
22
  0
BLOCK_RECORD
  5
1B
330
1
100
AcDbSymbolTableRecord
100
AcDbBlockTableRecord
  2
*Paper_Space
340
1E
  0
BLOCK_RECORD
  5
23
330
1
100
AcDbSymbolTableRecord
100
AcDbBlockTableRecord
  2
*Paper_Space0
340
26
  0
ENDTAB
  0
ENDSEC
  0
SECTION
  2
BLOCKS
  0
BLOCK
  5
20
330
1F
100
AcDbEntity
  8
0
100
AcDbBlockBegin
  2
*Model_Space
 70
     0
 10
0.0
 20
0.0
 30
0.0
  3
*Model_Space
  1

  0
ENDBLK
  5
21
330
1F
100
AcDbEntity
  8
0
100
AcDbBlockEnd
  0
BLOCK
  5
1C
330
1B
100
AcDbEntity
 67
     1
  8
0
100
AcDbBlockBegin
  2
*Paper_Space
 70
     0
 10
0.0
 20
0.0
 30
0.0
  3
*Paper_Space
  1

  0
ENDBLK
  5
1D
330
1B
100
AcDbEntity
 67
     1
  8
0
100
AcDbBlockEnd
  0
BLOCK
  5
24
330
23
100
AcDbEntity
  8
0
100
AcDbBlockBegin
  2
*Paper_Space0
 70
     0
 10
0.0
 20
0.0
 30
0.0
  3
*Paper_Space0
  1

  0
ENDBLK
  5
25
330
23
100
AcDbEntity
  8
0
100
AcDbBlockEnd
  0
ENDSEC
  0
SECTION
  2
ENTITIES
  0
TEXT
  5
5F
330
1F
100
AcDbEntity
  8
DIMENSIONS
  6
Continuous
 62
     7
370
     0
100
AcDbText
 10
23.97450396039958
 20
11.71634650456994
 30
0.0
 40
0.2
  1
A
  7
ENGINEER
100
AcDbText
  0
TEXT
  5
60
330
1F
100
AcDbEntity
  8
DIMENSIONS
  6
Continuous
 62
     7
370
     0
100
AcDbText
 10
23.97450396039958
 20
22.00685920321128
 30
0.0
 40
0.2
  1
A
  7
ENGINEER
100
AcDbText
  0
LINE
  5
61
330
1F
100
AcDbEntity
  8
DIMENSIONS
  6
Continuous
 62
     1
370
     0
100
AcDbLine
 10
23.60368617683686
 20
22.14281550249627
 30
0.0
 11
23.60368617683686
 21
11.85230280385493
 31
0.0
  0
LINE
  5
62
330
1F
100
AcDbEntity
  8
DIMENSIONS
  6
Continuous
 62
     1
370
     0
100
AcDbLine
 10
23.60368617683686
 20
11.85230280385493
 30
0.0
 11
23.90368617683686
 21
11.85230280385493
 31
0.0
  0
LINE
  5
63
330
1F
100
AcDbEntity
  8
DIMENSIONS
  6
Continuous
 62
     1
370
     0
100
AcDbLine
 10
23.60368617683686
 20
22.14281550249627
 30
0.0
 11
23.90368617683686
 21
22.14281550249627
 31
0.0
  0
LINE
  5
64
330
1F
100
AcDbEntity
  8
DIMENSIONS
  6
CENTERD
 62
     9
 48
0.0430590214327746
370
     0
100
AcDbLine
 10
21.65897326935782
 20
20.60657466321028
 30
0.0
 11
21.9025518777288
 21
20.36299605483931
 31
0.0
  0
LINE
  5
66
330
1F
100
AcDbEntity
  8
DIMENSIONS
  6
CENTERD
 62
     9
 48
0.2966288143146656
370
     0
100
AcDbLine
 10
21.9025518777288
 20
20.36299605483931
 30
0.0
 11
20.22456590895099
 21
18.68501008606151
 31
0.0
  0
LINE
  5
67
330
1F
100
AcDbEntity
  8
DIMENSIONS
  6
CENTERD
 62
     9
 48
0.043059021432774
370
     0
100
AcDbLine
 10
20.22456590895099
 20
18.68501008606151
 30
0.0
 11
19.98098730058002
 21
18.92858869443248
 31
0.0
  0
LINE
  5
68
330
1F
100
AcDbEntity
  8
DIMENSIONS
  6
CENTERD
 62
     9
 48
0.2966288143146656
370
     0
100
AcDbLine
 10
19.98098730058002
 20
18.92858869443248
 30
0.0
 11
21.65897326935782
 21
20.60657466321028
 31
0.0
  0
LINE
  5
69
330
1F
100
AcDbEntity
  8
DIMENSIONS
  6
Continuous
 62
     1
370
     0
100
AcDbLine
 10
21.35979163700732
 20
20.30739303085978
 30
0.0
 11
20.41721166119594
 21
21.11601160665809
 31
0.0
  0
LINE
  5
6A
330
1F
100
AcDbEntity
  8
DIMENSIONS
  6
Continuous
 62
     1
370
     0
100
AcDbLine
 10
21.35979163700732
 20
20.30739303085978
 30
0.0
 11
21.1794637090457
 21
20.39389065161935
 31
0.0
  0
LINE
  5
6B
330
1F
100
AcDbEntity
  8
DIMENSIONS
  6
Continuous
 62
     1
370
     0
100
AcDbLine
 10
21.35979163700732
 20
20.30739303085978
 30
0.0
 11
21.24687188076052
 21
20.47246613178529
 31
0.0
  0
LINE
  5
6C
330
1F
100
AcDbEntity
  8
DIMENSIONS
  6
Continuous
 62
     1
370
     0
100
AcDbLine
 10
20.41721166119594
 20
21.11601160665809
 30
0.0
 11
20.21721166119594
 21
21.11601160665809
 31
0.0
  0
TEXT
  5
6E
330
1F
100
AcDbEntity
  8
DIMENSIONS
  6
Continuous
 62
     1
370
     0
100
AcDbText
 10
19.32971166119593
 20
21.04101160665809
 30
0.0
 40
0.15
  1
NOTE A
  7
MAIN
100
AcDbText
  0
LINE
  5
6F
330
1F
100
AcDbEntity
  8
MOTOR PLATE
  6
Continuous
 62
    93
370
     0
100
AcDbLine
 10
33.60559101440251
 20
20.3425591531756
 30
0.0
 11
33.85559101440251
 21
20.3425591531756
 31
0.0
  0
LINE
  5
71
330
1F
100
AcDbEntity
  8
MOTOR PLATE
  6
Continuous
 62
    93
370
     0
100
AcDbLine
 10
33.85559101440251
 20
20.3425591531756
 30
0.0
 11
33.85559101440251
 21
20.05755915317559
 31
0.0
  0
LINE
  5
72
330
1F
100
AcDbEntity
  8
MOTOR PLATE
  6
Continuous
 62
    93
370
     0
100
AcDbLine
 10
33.85559101440251
 20
20.05755915317559
 30
0.0
 11
33.60559101440251
 21
20.05755915317559
 31
0.0
  0
LINE
  5
73
330
1F
100
AcDbEntity
  8
MOTOR PLATE
  6
Continuous
 62
    93
370
     0
100
AcDbLine
 10
34.23059101440251
 20
21.69755915317559
 30
0.0
 11
34.1805910144025
 21
21.7475591531756
 31
0.0
  0
LINE
  5
74
330
1F
100
AcDbEntity
  8
MOTOR PLATE
  6
Continuous
 62
    93
370
     0
100
AcDbLine
 10
33.60559101440251
 20
21.69755915317559
 30
0.0
 11
33.65559101440251
 21
21.7475591531756
 31
0.0
  0
LINE
  5
75
330
1F
100
AcDbEntity
  8
MOTOR PLATE
  6
Continuous
 62
    93
370
     0
100
AcDbLine
 10
33.65559101440251
 20
21.7475591531756
 30
0.0
 11
34.1805910144025
 21
21.7475591531756
 31
0.0
  0
LINE
  5
76
330
1F
100
AcDbEntity
  8
MOTOR PLATE
  6
Continuous
 62
    93
370
     0
100
AcDbLine
 10
33.60559101440251
 20
21.69755915317559
 30
0.0
 11
33.60559101440251
 21
16.9975591531756
 31
0.0
  0
LINE
  5
77
330
1F
100
AcDbEntity
  8
MOTOR PLATE
  6
Continuous
 62
    93
370
     0
100
AcDbLine
 10
34.23059101440251
 20
21.2475591531756
 30
0.0
 11
34.23059101440251
 21
21.69755915317559
 31
0.0
  0
LINE
  5
78
330
1F
100
AcDbEntity
  8
MOTOR PLATE
  6
Continuous
 62
    93
370
     0
100
AcDbLine
 10
33.6055910144025
 20
13.6525591531756
 30
0.0
 11
33.8555910144025
 21
13.6525591531756
 31
0.0
  0
LINE
  5
79
330
1F
100
AcDbEntity
  8
MOTOR PLATE
  6
Continuous
 62
    93
370
     0
100
AcDbLine
 10
33.8555910144025
 20
13.6525591531756
 30
0.0
 11
33.8555910144025
 21
13.93755915317561
 31
0.0
  0
LINE
  5
7A
330
1F
100
AcDbEntity
  8
MOTOR PLATE
  6
Continuous
 62
    93
370
     0
100
AcDbLine
 10
33.8555910144025
 20
13.93755915317561
 30
0.0
 11
33.6055910144025
 21
13.93755915317561
 31
0.0
  0
LINE
  5
7B
330
1F
100
AcDbEntity
  8
MOTOR PLATE
  6
Continuous
 62
    93
370
     0
100
AcDbLine
 10
34.2305910144025
 20
12.29755915317561
 30
0.0
 11
34.1805910144025
 21
12.2475591531756
 31
0.0
  0
LINE
  5
7C
330
1F
100
AcDbEntity
  8
MOTOR PLATE
  6
Continuous
 62
    93
370
     0
100
AcDbLine
 10
33.6055910144025
 20
12.29755915317561
 30
0.0
 11
33.6555910144025
 21
12.2475591531756
 31
0.0
  0
LINE
  5
7D
330
1F
100
AcDbEntity
  8
MOTOR PLATE
  6
Continuous
 62
    93
370
     0
100
AcDbLine
 10
33.6555910144025
 20
12.2475591531756
 30
0.0
 11
34.1805910144025
 21
12.2475591531756
 31
0.0
  0
LINE
  5
7E
330
1F
100
AcDbEntity
  8
MOTOR PLATE
  6
Continuous
 62
    93
370
     0
100
AcDbLine
 10
33.6055910144025
 20
12.29755915317561
 30
0.0
 11
33.6055910144025
 21
16.9975591531756
 31
0.0
  0
LINE
  5
7F
330
1F
100
AcDbEntity
  8
MOTOR PLATE
  6
Continuous
 62
    93
370
     0
100
AcDbLine
 10
34.2305910144025
 20
12.7475591531756
 30
0.0
 11
34.2305910144025
 21
12.29755915317561
 31
0.0
  0
LINE
  5
80
330
1F
100
AcDbEntity
  8
MOTOR PLATE
  6
Continuous
 62
    93
370
     0
100
AcDbLine
 10
33.60559101440251
 20
21.53755915317559
 30
0.0
 11
34.23059101440251
 21
21.53755915317559
 31
0.0
  0
LINE
  5
81
330
1F
100
AcDbEntity
  8
MOTOR PLATE
  6
Continuous
 62
    93
370
     0
100
AcDbLine
 10
33.60559101440251
 20
21.17855915317559
 30
0.0
 11
34.23059101440251
 21
21.17855915317559
 31
0.0
  0
LINE
  5
82
330
1F
100
AcDbEntity
  8
MOTOR PLATE
  6
Continuous
 62
    93
370
     0
100
AcDbLine
 10
33.6055910144025
 20
12.45755915317561
 30
0.0
 11
34.2305910144025
 21
12.45755915317561
 31
0.0
  0
LINE
  5
83
330
1F
100
AcDbEntity
  8
MOTOR PLATE
  6
Continuous
 62
    93
370
     0
100
AcDbLine
 10
33.6055910144025
 20
12.81655915317561
 30
0.0
 11
34.2305910144025
 21
12.81655915317561
 31
0.0
  0
HATCH
  5
84
330
1F
100
AcDbEntity
  8
MOTOR PLATE
  6
Continuous
 62
    93
370
     0
100
AcDbHatch
 10
0.0
 20
0.0
 30
0.0
210
0.0
220
0.0
230
1.0
  2
ANSI31
 70
     0
 71
     0
 91
        1
 92
        3
 72
     0
 73
     1
 93
        6
 10
33.60559101440251
 20
21.69755915317559
 10
33.60559101440251
 20
21.53755915317559
 10
34.23059101440251
 20
21.53755915317559
 10
34.23059101440251
 20
21.69755915317559
 10
34.1805910144025
 20
21.7475591531756
 10
33.65559101440251
 20
21.7475591531756
 97
        0
 75
     0
 76
     2
 52
90.0
 41
0.6
 77
     0
 78
     1
 53
135.0
 43
0.0
 44
0.0
 45
-0.0530330085889911
 46
-0.0530330085889911
 79
     1
 49
6000.0
 98
        0
  0
HATCH
  5
85
330
1F
100
AcDbEntity
  8
MOTOR PLATE
  6
Continuous
 62
    93
370
     0
100
AcDbHatch
 10
0.0
 20
0.0
 30
0.0
210
0.0
220
0.0
230
1.0
  2
ANSI31
 70
     0
 71
     0
 91
        1
 92
        3
 72
     0
 73
     1
 93
        6
 10
33.6055910144025
 20
12.45755915317561
 10
33.6055910144025
 20
12.29755915317561
 10
33.6555910144025
 20
12.2475591531756
 10
34.1805910144025
 20
12.2475591531756
 10
34.2305910144025
 20
12.29755915317561
 10
34.2305910144025
 20
12.45755915317561
 97
        0
 75
     0
 76
     2
 52
90.0
 41
0.6
 77
     0
 78
     1
 53
135.0
 43
0.0
 44
0.0
 45
-0.0530330085889911
 46
-0.0530330085889911
 79
     1
 49
6000.0
 98
        0
  0
LINE
  5
86
330
1F
100
AcDbEntity
  8
CENTRLIN
  6
CENTERD
 62
     9
 48
0.1480210136185143
370
     0
100
AcDbLine
 10
34.51017506887657
 20
21.3580591531756
 30
0.0
 11
33.32600695992846
 21
21.3580591531756
 31
0.0
  0
LINE
  5
88
330
1F
100
AcDbEntity
  8
CENTRLIN
  6
CENTERD
 62
     9
 48
0.1480210136185143
370
     0
100
AcDbLine
 10
33.32600695992846
 20
16.9975591531756
 30
0.0
 11
34.51017506887657
 21
16.9975591531756
 31
0.0
  0
LINE
  5
89
330
1F
100
AcDbEntity
  8
CENTRLIN
  6
CENTERD
 62
     9
 48
0.1480210136185143
370
     0
100
AcDbLine
 10
34.51017506887657
 20
12.6370591531756
 30
0.0
 11
33.32600695992846
 21
12.6370591531756
 31
0.0
  0
LINE
  5
8A
330
1F
100
AcDbEntity
  8
DIMENSIONS
  6
Continuous
 62
     1
370
     0
100
AcDbLine
 10
34.23516194426202
 20
21.7225591531756
 30
0.0
 11
34.72909173568803
 21
22.21988207637244
 31
0.0
  0
LINE
  5
8B
330
1F
100
AcDbEntity
  8
DIMENSIONS
  6
Continuous
 62
     1
370
     0
100
AcDbLine
 10
34.23516194426202
 20
21.7225591531756
 30
0.0
 11
34.33456846799452
 21
21.89610552461395
 31
0.0
  0
LINE
  5
8C
330
1F
100
AcDbEntity
  8
DIMENSIONS
  6
Continuous
 62
     1
370
     0
100
AcDbLine
 10
34.23516194426202
 20
21.7225591531756
 30
0.0
 11
34.40802370483544
 21
21.82315145770957
 31
0.0
  0
LINE
  5
8D
330
1F
100
AcDbEntity
  8
DIMENSIONS
  6
Continuous
 62
     1
370
     0
100
AcDbLine
 10
34.72909173568803
 20
22.21988207637244
 30
0.0
 11
34.92909173568803
 21
22.21988207637244
 31
0.0
  0
TEXT
  5
8E
330
1F
100
AcDbEntity
  8
DIMENSIONS
  6
Continuous
 62
     1
370
     0
100
AcDbText
 10
35.02909173568803
 20
22.13488207637244
 30
0.0
 40
0.17
  1
2X .05 X .05
  7
MAIN
100
AcDbText
  0
LWPOLYLINE
  5
8F
330
1F
100
AcDbEntity
  8
DIMENSIONS
  6
Continuous
 62
     1
370
     0
100
AcDbPolyline
 90
        3
 70
     0
 43
0.0
 10
33.8555910144025
 20
13.6525591531756
 10
33.50655003866949
 20
13.85101581719827
 10
32.97305716400579
 20
13.03579075029643
  0
LINE
  5
90
330
1F
100
AcDbEntity
  8
DIMENSIONS
  6
Continuous
 62
     1
370
     0
100
AcDbLine
 10
33.8555910144025
 20
13.6525591531756
 30
0.0
 11
33.66206816748573
 21
13.70304586153758
 31
0.0
  0
LINE
  5
91
330
1F
100
AcDbEntity
  8
DIMENSIONS
  6
Continuous
 62
     1
370
     0
100
AcDbLine
 10
33.8555910144025
 20
13.6525591531756
 30
0.0
 11
33.71323866694087
 21
13.79304334862892
 31
0.0
  0
LINE
  5
92
330
1F
100
AcDbEntity
  8
DIMENSIONS
  6
Continuous
 62
     1
370
     0
100
AcDbLine
 10
32.97305716400579
 20
13.03579075029643
 30
0.0
 11
32.77305716400578
 21
13.03579075029643
 31
0.0
  0
TEXT
  5
93
330
1F
100
AcDbEntity
  8
DIMENSIONS
  6
Continuous
 62
     1
370
     0
100
AcDbText
 10
31.68868143444493
 20
12.96079075029643
 30
0.0
 40
0.15
  1
R .01 MAX
  7
MAIN
100
AcDbText
  0
LINE
  5
94
330
1F
100
AcDbEntity
  8
DIMENSIONS
  6
Continuous
 62
     1
370
     0
100
AcDbLine
 10
30.96188757651082
 20
13.6525591531756
 30
0.0
 11
30.91012376749032
 21
13.84574431843342
 31
0.0
  0
LINE
  5
95
330
1F
100
AcDbEntity
  8
DIMENSIONS
  6
Continuous
 62
     1
370
     0
100
AcDbLine
 10
30.96188757651082
 20
13.6525591531756
 30
0.0
 11
31.01365138553132
 21
13.84574431843342
 31
0.0
  0
LINE
  5
96
330
1F
100
AcDbEntity
  8
DIMENSIONS
  6
Continuous
 62
     1
370
     0
100
AcDbLine
 10
30.96188757651082
 20
20.3425591531756
 30
0.0
 11
31.01365138553132
 21
20.14937398791779
 31
0.0
  0
LINE
  5
97
330
1F
100
AcDbEntity
  8
DIMENSIONS
  6
Continuous
 62
     1
370
     0
100
AcDbLine
 10
30.96188757651082
 20
20.3425591531756
 30
0.0
 11
30.91012376749032
 21
20.14937398791779
 31
0.0
  0
LINE
  5
98
330
1F
100
AcDbEntity
  8
DIMENSIONS
  6
Continuous
 62
     1
370
     0
100
AcDbLine
 10
33.5355910144025
 20
13.6525591531756
 30
0.0
 11
30.91188757651082
 21
13.6525591531756
 31
0.0
  0
LINE
  5
99
330
1F
100
AcDbEntity
  8
DIMENSIONS
  6
Continuous
 62
     1
370
     0
100
AcDbLine
 10
33.53559101440251
 20
20.3425591531756
 30
0.0
 11
30.91188757651082
 21
20.3425591531756
 31
0.0
  0
TEXT
  5
9A
330
1F
100
AcDbEntity
  8
DIMENSIONS
  6
Continuous
 62
     1
370
     0
100
AcDbText
 10
30.27334636442891
 20
16.9125591531756
 30
0.0
 40
0.17
  1
6.69%%p.020
  7
MAIN
100
AcDbText
  0
LINE
  5
9B
330
1F
100
AcDbEntity
  8
DIMENSIONS
  6
Continuous
 62
     1
370
     0
100
AcDbLine
 10
30.96188757651082
 20
13.6525591531756
 30
0.0
 11
30.96188757651082
 21
16.8625591531756
 31
0.0
  0
LINE
  5
9C
330
1F
100
AcDbEntity
  8
DIMENSIONS
  6
Continuous
 62
     1
370
     0
100
AcDbLine
 10
30.96188757651082
 20
17.1325591531756
 30
0.0
 11
30.96188757651082
 21
20.3425591531756
 31
0.0
  0
LINE
  5
9D
330
1F
100
AcDbEntity
  8
DIMENSIONS
  6
Continuous
 62
     1
370
     0
100
AcDbLine
 10
32.45460031951365
 20
13.93755915317561
 30
0.0
 11
32.40283651049315
 21
14.13074431843343
 31
0.0
  0
LINE
  5
9E
330
1F
100
AcDbEntity
  8
DIMENSIONS
  6
Continuous
 62
     1
370
     0
100
AcDbLine
 10
32.45460031951365
 20
13.93755915317561
 30
0.0
 11
32.50636412853416
 21
14.13074431843343
 31
0.0
  0
LINE
  5
9F
330
1F
100
AcDbEntity
  8
DIMENSIONS
  6
Continuous
 62
     1
370
     0
100
AcDbLine
 10
32.45460031951365
 20
20.05755915317559
 30
0.0
 11
32.50636412853416
 21
19.86437398791778
 31
0.0
  0
LINE
  5
A0
330
1F
100
AcDbEntity
  8
DIMENSIONS
  6
Continuous
 62
     1
370
     0
100
AcDbLine
 10
32.45460031951365
 20
20.05755915317559
 30
0.0
 11
32.40283651049315
 21
19.86437398791778
 31
0.0
  0
LINE
  5
A1
330
1F
100
AcDbEntity
  8
DIMENSIONS
  6
Continuous
 62
     1
370
     0
100
AcDbLine
 10
33.5355910144025
 20
13.93755915317561
 30
0.0
 11
32.40460031951365
 21
13.93755915317561
 31
0.0
  0
LINE
  5
A2
330
1F
100
AcDbEntity
  8
DIMENSIONS
  6
Continuous
 62
     1
370
     0
100
AcDbLine
 10
33.53559101440251
 20
20.05755915317559
 30
0.0
 11
32.40460031951365
 21
20.05755915317559
 31
0.0
  0
TEXT
  5
A3
330
1F
100
AcDbEntity
  8
DIMENSIONS
  6
Continuous
 62
     1
370
     0
100
AcDbText
 10
31.94672483313975
 20
16.9125591531756
 30
0.0
 40
0.17
  1
6.120
  7
MAIN
100
AcDbText
  0
TEXT
  5
A4
330
1F
100
AcDbEntity
  8
DIMENSIONS
  6
Continuous
 62
     1
370
     0
100
AcDbText
 10
32.46735028708872
 20
17.0475591531756
 30
0.0
 40
0.17
  1
+.001
  7
MAIN
100
AcDbText
  0
TEXT
  5
A5
330
1F
100
AcDbEntity
  8
DIMENSIONS
  6
Continuous
 62
     1
370
     0
100
AcDbText
 10
32.43335015738901
 20
16.7775591531756
 30
0.0
 40
0.17
  1
-.000
  7
MAIN
100
AcDbText
  0
LINE
  5
A6
330
1F
100
AcDbEntity
  8
DIMENSIONS
  6
Continuous
 62
     1
370
     0
100
AcDbLine
 10
32.45460031951365
 20
13.93755915317561
 30
0.0
 11
32.45460031951365
 21
16.7775591531756
 31
0.0
  0
LINE
  5
A7
330
1F
100
AcDbEntity
  8
DIMENSIONS
  6
Continuous
 62
     1
370
     0
100
AcDbLine
 10
32.45460031951365
 20
17.2175591531756
 30
0.0
 11
32.45460031951365
 21
20.05755915317559
 31
0.0
  0
LINE
  5
A8
330
1F
100
AcDbEntity
  8
DIMENSIONS
  6
Continuous
 62
     1
370
     0
100
AcDbLine
 10
33.60559101440251
 20
22.55131232108389
 30
0.0
 11
33.79877617966033
 21
22.60307613010439
 31
0.0
  0
LINE
  5
A9
330
1F
100
AcDbEntity
  8
DIMENSIONS
  6
Continuous
 62
     1
370
     0
100
AcDbLine
 10
33.60559101440251
 20
22.55131232108389
 30
0.0
 11
33.79877617966033
 21
22.49954851206339
 31
0.0
  0
LINE
  5
AA
330
1F
100
AcDbEntity
  8
DIMENSIONS
  6
Continuous
 62
     1
370
     0
100
AcDbLine
 10
34.23059101440251
 20
22.55131232108389
 30
0.0
 11
34.0374058491447
 21
22.49954851206339
 31
0.0
  0
LINE
  5
AB
330
1F
100
AcDbEntity
  8
DIMENSIONS
  6
Continuous
 62
     1
370
     0
100
AcDbLine
 10
34.23059101440251
 20
22.55131232108389
 30
0.0
 11
34.0374058491447
 21
22.60307613010439
 31
0.0
  0
LINE
  5
AC
330
1F
100
AcDbEntity
  8
DIMENSIONS
  6
Continuous
 62
     1
370
     0
100
AcDbLine
 10
33.60559101440251
 20
21.76755915317559
 30
0.0
 11
33.60559101440251
 21
22.60131232108389
 31
0.0
  0
LINE
  5
AD
330
1F
100
AcDbEntity
  8
DIMENSIONS
  6
Continuous
 62
     1
370
     0
100
AcDbLine
 10
34.23059101440251
 20
21.76755915317559
 30
0.0
 11
34.23059101440251
 21
22.60131232108389
 31
0.0
  0
TEXT
  5
AE
330
1F
100
AcDbEntity
  8
DIMENSIONS
  6
Continuous
 62
     1
370
     0
100
AcDbText
 10
32.38798033880533
 20
22.47631232108389
 30
0.0
 40
0.15
  1
5/8" STK
  7
MAIN
100
AcDbText
  0
LINE
  5
AF
330
1F
100
AcDbEntity
  8
DIMENSIONS
  6
Continuous
 62
     1
370
     0
100
AcDbLine
 10
33.40548058199228
 20
22.55131232108389
 30
0.0
 11
34.23059101440251
 21
22.55131232108389
 31
0.0
  0
TEXT
  5
B0
330
1F
100
AcDbEntity
  8
DIMENSIONS
  6
Continuous
 62
     7
370
     0
100
AcDbText
 10
32.59163358562294
 20
11.59407945682764
 30
0.0
 40
0.17
  1
SECTION A - A
  7
ENGINEER
100
AcDbText
  0
LINE
  5
B1
330
1F
100
AcDbEntity
  8
DIMENSIONS
  6
Continuous
 62
     1
370
     0
100
AcDbLine
 10
28.06386213004062
 20
17.19490198585079
 30
0.0
 11
28.50675187383962
 21
18.13212407568385
 31
0.0
  0
LINE
  5
B2
330
1F
100
AcDbEntity
  8
DIMENSIONS
  6
Continuous
 62
     1
370
     0
100
AcDbLine
 10
28.06386213004062
 20
17.19490198585079
 30
0.0
 11
28.09959972854134
 21
17.39168314362105
 31
0.0
  0
LINE
  5
B3
330
1F
100
AcDbEntity
  8
DIMENSIONS
  6
Continuous
 62
     1
370
     0
100
AcDbLine
 10
28.06386213004062
 20
17.19490198585079
 30
0.0
 11
28.19320237709762
 21
17.34745066821558
 31
0.0
  0
LINE
  5
B4
330
1F
100
AcDbEntity
  8
DIMENSIONS
  6
Continuous
 62
     1
370
     0
100
AcDbLine
 10
28.50675187383962
 20
18.13212407568385
 30
0.0
 11
28.70675187383961
 21
18.13212407568385
 31
0.0
  0
TEXT
  5
B5
330
1F
100
AcDbEntity
  8
DIMENSIONS
  6
Continuous
 62
     1
370
     0
100
AcDbText
 10
28.80675187383962
 20
18.05712407568386
 30
0.0
 40
0.15
  1
4X .422
  7
MAIN
100
AcDbText
  0
TEXT
  5
B6
330
1F
100
AcDbEntity
  8
DIMENSIONS
  6
Continuous
 62
     1
370
     0
100
AcDbText
 10
28.70643936668706
 20
17.83212407568385
 30
0.0
 40
0.15
  1
CHAMFER
  7
MAIN
100
AcDbText
  0
TEXT
  5
B7
330
1F
100
AcDbEntity
  8
DIMENSIONS
  6
Continuous
 62
     1
370
     0
100
AcDbText
 10
28.73456380163503
 20
17.60712407568386
 30
0.0
 40
0.15
  1
.03 X .03
  7
MAIN
100
AcDbText
  0
TEXT
  5
B8
330
1F
100
AcDbEntity
  8
DIMENSIONS
  6
Continuous
 62
     1
370
     0
100
AcDbText
 10
28.54893936668706
 20
17.38212407568385
 30
0.0
 40
0.15
  1
BOTH SIDES
  7
MAIN
100
AcDbText
  0
LINE
  5
B9
330
1F
100
AcDbEntity
  8
DIMENSIONS
  6
Continuous
 62
     1
370
     0
100
AcDbLine
 10
33.60559101440251
 20
20.69241970950128
 30
0.0
 11
33.4124058491447
 21
20.64065590048078
 31
0.0
  0
LINE
  5
BA
330
1F
100
AcDbEntity
  8
DIMENSIONS
  6
Continuous
 62
     1
370
     0
100
AcDbLine
 10
33.60559101440251
 20
20.69241970950128
 30
0.0
 11
33.4124058491447
 21
20.74418351852178
 31
0.0
  0
LINE
  5
BB
330
1F
100
AcDbEntity
  8
DIMENSIONS
  6
Continuous
 62
     1
370
     0
100
AcDbLine
 10
33.85559101440251
 20
20.69241970950128
 30
0.0
 11
34.04877617966033
 21
20.74418351852178
 31
0.0
  0
LINE
  5
BC
330
1F
100
AcDbEntity
  8
DIMENSIONS
  6
Continuous
 62
     1
370
     0
100
AcDbLine
 10
33.85559101440251
 20
20.69241970950128
 30
0.0
 11
34.04877617966033
 21
20.64065590048078
 31
0.0
  0
LINE
  5
BD
330
1F
100
AcDbEntity
  8
DIMENSIONS
  6
Continuous
 62
     1
370
     0
100
AcDbLine
 10
33.60559101440251
 20
20.4125591531756
 30
0.0
 11
33.60559101440251
 21
20.74241970950128
 31
0.0
  0
LINE
  5
BE
330
1F
100
AcDbEntity
  8
DIMENSIONS
  6
Continuous
 62
     1
370
     0
100
AcDbLine
 10
33.85559101440251
 20
20.4125591531756
 30
0.0
 11
33.85559101440251
 21
20.74241970950128
 31
0.0
  0
TEXT
  5
BF
330
1F
100
AcDbEntity
  8
DIMENSIONS
  6
Continuous
 62
     1
370
     0
100
AcDbText
 10
31.85951839104359
 20
20.60741970950128
 30
0.0
 40
0.17
  1
.250%%p.002
  7
MAIN
100
AcDbText
  0
LINE
  5
C0
330
1F
100
AcDbEntity
  8
DIMENSIONS
  6
Continuous
 62
     1
370
     0
100
AcDbLine
 10
33.60559101440251
 20
20.69241970950128
 30
0.0
 11
33.20559101440251
 21
20.69241970950128
 31
0.0
  0
LINE
  5
C1
330
1F
100
AcDbEntity
  8
DIMENSIONS
  6
Continuous
 62
     1
370
     0
100
AcDbLine
 10
33.85559101440251
 20
20.69241970950128
 30
0.0
 11
34.25559101440251
 21
20.69241970950128
 31
0.0
  0
LINE
  5
C2
330
1F
100
AcDbEntity
  8
MOTOR PLATE
  6
Continuous
 62
    93
370
     0
100
AcDbLine
 10
33.60559101440251
 20
18.9675591531756
 30
0.0
 11
34.20059101440251
 21
18.9675591531756
 31
0.0
  0
LINE
  5
C3
330
1F
100
AcDbEntity
  8
MOTOR PLATE
  6
Continuous
 62
    93
370
     0
100
AcDbLine
 10
34.23059101440251
 20
21.2475591531756
 30
0.0
 11
34.23059101440251
 21
18.9975591531756
 31
0.0
  0
LINE
  5
C4
330
1F
100
AcDbEntity
  8
MOTOR PLATE
  6
Continuous
 62
    93
370
     0
100
AcDbLine
 10
34.20059101440251
 20
18.9675591531756
 30
0.0
 11
34.23059101440251
 21
18.9975591531756
 31
0.0
  0
LINE
  5
C5
330
1F
100
AcDbEntity
  8
MOTOR PLATE
  6
Continuous
 62
    93
370
     5
100
AcDbLine
 10
34.2305910144025
 20
12.7475591531756
 30
0.0
 11
34.2305910144025
 21
14.9975591531756
 31
0.0
  0
LINE
  5
C6
330
1F
100
AcDbEntity
  8
MOTOR PLATE
  6
Continuous
 62
    93
370
     5
100
AcDbLine
 10
33.6055910144025
 20
15.0275591531756
 30
0.0
 11
34.2005910144025
 21
15.0275591531756
 31
0.0
  0
LINE
  5
C7
330
1F
100
AcDbEntity
  8
MOTOR PLATE
  6
Continuous
 62
    93
370
     5
100
AcDbLine
 10
34.2305910144025
 20
14.9975591531756
 30
0.0
 11
34.2005910144025
 21
15.0275591531756
 31
0.0
  0
LINE
  5
C8
330
1F
100
AcDbEntity
  8
MOTOR PLATE
  6
Continuous
 62
    93
370
     0
100
AcDbLine
 10
34.2305910144025
 20
14.9975591531756
 30
0.0
 11
34.23059101440251
 21
18.9975591531756
 31
0.0
  0
LINE
  5
C9
330
1F
100
AcDbEntity
  8
MOTOR PLATE
  6
Continuous
 62
    93
370
     5
100
AcDbLine
 10
34.20059101440251
 20
18.9675591531756
 30
0.0
 11
34.2005910144025
 21
15.0275591531756
 31
0.0
  0
HATCH
  5
CA
330
1F
100
AcDbEntity
  8
MOTOR PLATE
  6
Continuous
 62
    93
370
     0
100
AcDbHatch
 10
0.0
 20
0.0
 30
0.0
210
0.0
220
0.0
230
1.0
  2
ANSI31
 70
     0
 71
     0
 91
        1
 92
        3
 72
     0
 73
     1
 93
        9
 10
33.60559101440251
 20
20.05755915317559
 10
33.60559101440251
 20
18.9675591531756
 10
34.20059101440251
 20
18.9675591531756
 10
34.23059101440251
 20
18.9975591531756
 10
34.23059101440251
 20
21.17855915317559
 10
33.60559101440251
 20
21.17855915317559
 10
33.60559101440251
 20
20.3425591531756
 10
33.85559101440251
 20
20.3425591531756
 10
33.85559101440251
 20
20.05755915317559
 97
        0
 75
     0
 76
     2
 52
90.0
 41
0.6
 77
     0
 78
     1
 53
135.0
 43
0.0
 44
0.0
 45
-0.0530330085889911
 46
-0.0530330085889911
 79
     1
 49
6000.0
 98
        0
  0
HATCH
  5
CB
330
1F
100
AcDbEntity
  8
MOTOR PLATE
  6
Continuous
 62
    93
370
     0
100
AcDbHatch
 10
0.0
 20
0.0
 30
0.0
210
0.0
220
0.0
230
1.0
  2
ANSI31
 70
     0
 71
     0
 91
        1
 92
        3
 72
     0
 73
     1
 93
        9
 10
33.6055910144025
 20
15.0275591531756
 10
33.6055910144025
 20
13.93755915317561
 10
33.8555910144025
 20
13.93755915317561
 10
33.8555910144025
 20
13.6525591531756
 10
33.6055910144025
 20
13.6525591531756
 10
33.6055910144025
 20
12.81655915317561
 10
34.2305910144025
 20
12.81655915317561
 10
34.2305910144025
 20
14.9975591531756
 10
34.2005910144025
 20
15.0275591531756
 97
        0
 75
     0
 76
     2
 52
90.0
 41
0.6
 77
     0
 78
     1
 53
135.0
 43
0.0
 44
0.0
 45
-0.0530330085889911
 46
-0.0530330085889911
 79
     1
 49
6000.0
 98
        0
  0
TEXT
  5
CC
330
1F
100
AcDbEntity
  8
DIMENSIONS
  6
Continuous
 62
     7
370
     0
100
AcDbText
 10
28.85595301933864
 20
24.82386994884849
 30
0.0
 40
0.15
  1
NOTE A - STAMP IN BLACK 5/32-3/16" BLOCK
  7
MAIN
100
AcDbText
  0
TEXT
  5
CD
330
1F
100
AcDbEntity
  8
DIMENSIONS
  6
Continuous
 62
     7
370
     0
100
AcDbText
 10
28.85595301933864
 20
24.59886994884848
 30
0.0
 40
0.15
  1
CHARACTERS .02-.03 DEEP:
  7
MAIN
100
AcDbText
  0
TEXT
  5
CE
330
1F
100
AcDbEntity
  8
DIMENSIONS
  6
Continuous
 62
     7
370
     0
100
AcDbText
 10
28.85595301933864
 20
24.37386994884849
 30
0.0
 40
0.15
  1
PLATE, 20KW MOTOR - 8/5/09 REV A
  7
MAIN
100
AcDbText
  0
TEXT
  5
CF
330
1F
100
AcDbEntity
  8
DIMENSIONS
  6
Continuous
 62
     7
370
     0
100
AcDbText
 10
28.85595301933864
 20
24.14886994884849
 30
0.0
 40
0.15
  1
(do not engrave)
  7
MAIN
100
AcDbText
  0
LINE
  5
D0
330
1F
100
AcDbEntity
  8
DIMENSIONS
  6
Continuous
 62
    93
370
     5
100
AcDbLine
 10
18.87981299491331
 20
26.31140664043474
 30
0.0
 11
22.89207058580324
 21
26.31140664043474
 31
0.0
  0
LINE
  5
D1
330
1F
100
AcDbEntity
  8
DIMENSIONS
  6
Continuous
 62
    93
370
     5
100
AcDbLine
 10
22.89207058580324
 20
26.31140664043474
 30
0.0
 11
22.89207058580324
 21
25.29892423572588
 31
0.0
  0
LINE
  5
D2
330
1F
100
AcDbEntity
  8
DIMENSIONS
  6
Continuous
 62
    93
370
     5
100
AcDbLine
 10
22.89207058580324
 20
25.29892423572588
 30
0.0
 11
18.87981299491331
 21
25.29892423572588
 31
0.0
  0
LINE
  5
D3
330
1F
100
AcDbEntity
  8
DIMENSIONS
  6
Continuous
 62
    93
370
     5
100
AcDbLine
 10
18.87981299491331
 20
25.29892423572588
 30
0.0
 11
18.87981299491331
 21
26.31140664043474
 31
0.0
  0
TEXT
  5
D4
330
1F
100
AcDbEntity
  8
DIMENSIONS
  6
Continuous
 62
    93
370
     5
100
AcDbText
 10
19.02915262611315
 20
25.95926666667593
 30
0.0
 40
0.140625
  1
ELECTRO AUTOMOTIVE
  7
ENGINEER
100
AcDbText
  0
TEXT
  5
D5
330
1F
100
AcDbEntity
  8
DIMENSIONS
  6
Continuous
 62
    93
370
     5
100
AcDbText
 10
19.02915262611315
 20
25.74832916667593
 30
0.0
 40
0.140625
  1
P.O. BOX 1113 FELTON CA. 95018-1113
  7
ENGINEER
100
AcDbText
  0
TEXT
  5
D6
330
1F
100
AcDbEntity
  8
DIMENSIONS
  6
Continuous
 62
    93
370
     5
100
AcDbText
 10
19.02915262611315
 20
25.53739166667593
 30
0.0
 40
0.140625
  1
PHONE 831-429-1994 FAX 831-429-1907
  7
ENGINEER
100
AcDbText
  0
TEXT
  5
D7
330
1F
100
AcDbEntity
  8
DIMENSIONS
  6
Continuous
 62
     7
370
     0
100
AcDbText
 10
23.37983897129214
 20
25.44877245996078
 30
0.0
 40
0.15
  1
DAN SULLIVAN   408 316 9222
  7
MAIN
100
AcDbText
  0
LINE
  5
D8
330
1F
100
AcDbEntity
  8
DIMENSIONS
  6
Continuous
 62
     1
370
     0
100
AcDbLine
 10
35.66697179935425
 20
15.0275591531756
 30
0.0
 11
35.61520799033374
 21
15.22074431843341
 31
0.0
  0
LINE
  5
D9
330
1F
100
AcDbEntity
  8
DIMENSIONS
  6
Continuous
 62
     1
370
     0
100
AcDbLine
 10
35.66697179935425
 20
15.0275591531756
 30
0.0
 11
35.71873560837476
 21
15.22074431843341
 31
0.0
  0
LINE
  5
DA
330
1F
100
AcDbEntity
  8
DIMENSIONS
  6
Continuous
 62
     1
370
     0
100
AcDbLine
 10
35.66697179935425
 20
18.9675591531756
 30
0.0
 11
35.71873560837476
 21
18.77437398791779
 31
0.0
  0
LINE
  5
DB
330
1F
100
AcDbEntity
  8
DIMENSIONS
  6
Continuous
 62
     1
370
     0
100
AcDbLine
 10
35.66697179935425
 20
18.9675591531756
 30
0.0
 11
35.61520799033374
 21
18.77437398791779
 31
0.0
  0
LINE
  5
DC
330
1F
100
AcDbEntity
  8
DIMENSIONS
  6
Continuous
 62
     1
370
     0
100
AcDbLine
 10
34.3005910144025
 20
15.0275591531756
 30
0.0
 11
35.71697179935425
 21
15.0275591531756
 31
0.0
  0
LINE
  5
DD
330
1F
100
AcDbEntity
  8
DIMENSIONS
  6
Continuous
 62
     1
370
     0
100
AcDbLine
 10
34.30059101440251
 20
18.9675591531756
 30
0.0
 11
35.71697179935425
 21
18.9675591531756
 31
0.0
  0
TEXT
  5
DE
330
1F
100
AcDbEntity
  8
DIMENSIONS
  6
Continuous
 62
     1
370
     0
100
AcDbText
 10
35.15884628437012
 20
16.9225591531756
 30
0.0
 40
0.15
  1
3.940
  7
MAIN
100
AcDbText
  0
TEXT
  5
DF
330
1F
100
AcDbEntity
  8
DIMENSIONS
  6
Continuous
 62
     1
370
     0
100
AcDbText
 10
35.67822191379517
 20
17.0475591531756
 30
0.0
 40
0.15
  1
+.002
  7
MAIN
100
AcDbText
  0
TEXT
  5
E0
330
1F
100
AcDbEntity
  8
DIMENSIONS
  6
Continuous
 62
     1
370
     0
100
AcDbText
 10
35.67822177074402
 20
16.7975591531756
 30
0.0
 40
0.15
  1
-.000
  7
MAIN
100
AcDbText
  0
LINE
  5
E1
330
1F
100
AcDbEntity
  8
DIMENSIONS
  6
Continuous
 62
     1
370
     0
100
AcDbLine
 10
35.66697179935425
 20
15.0275591531756
 30
0.0
 11
35.66697179935425
 21
16.7975591531756
 31
0.0
  0
LINE
  5
E2
330
1F
100
AcDbEntity
  8
DIMENSIONS
  6
Continuous
 62
     1
370
     0
100
AcDbLine
 10
35.66697179935425
 20
17.1975591531756
 30
0.0
 11
35.66697179935425
 21
18.9675591531756
 31
0.0
  0
LWPOLYLINE
  5
E3
330
1F
100
AcDbEntity
  8
DIMENSIONS
  6
Continuous
 62
     1
370
     0
100
AcDbPolyline
 90
        5
 70
     0
 43
0.0
 10
34.23059101440251
 20
18.94891145947971
 10
34.60005099942067
 20
18.54563234014589
 10
34.85351339116576
 20
19.44282193444059
 10
35.2627230857839
 20
19.44282193444059
 10
35.2627230857839
 20
19.44282193444059
  0
LINE
  5
E4
330
1F
100
AcDbEntity
  8
DIMENSIONS
  6
Continuous
 62
     1
370
     0
100
AcDbLine
 10
34.23059101440251
 20
18.94891145947971
 30
0.0
 11
34.39925811322124
 21
18.84143397450693
 31
0.0
  0
LINE
  5
E5
330
1F
100
AcDbEntity
  8
DIMENSIONS
  6
Continuous
 62
     1
370
     0
100
AcDbLine
 10
34.23059101440251
 20
18.94891145947971
 30
0.0
 11
34.32292226427576
 21
18.77149967774906
 31
0.0
  0
LINE
  5
E6
330
1F
100
AcDbEntity
  8
DIMENSIONS
  6
Continuous
 62
     1
370
     0
100
AcDbLine
 10
35.2627230857839
 20
19.44282193444059
 30
0.0
 11
35.46272308578391
 21
19.44282193444059
 31
0.0
  0
TEXT
  5
E7
330
1F
100
AcDbEntity
  8
DIMENSIONS
  6
Continuous
 62
     1
370
     0
100
AcDbText
 10
35.56272308578392
 20
19.36782193444059
 30
0.0
 40
0.15
  1
.03 X .03
  7
MAIN
100
AcDbText
  0
ARC
  5
E8
330
1F
100
AcDbEntity
  8
MOTOR PLATE
  6
Continuous
 62
    93
370
     0
100
AcDbCircle
 10
20.16261341438501
 20
11.82318545662312
 30
0.0
 40
2.199999999999986
100
AcDbArc
 50
16.2039899176845
 51
96.54644338344382
  0
CIRCLE
  5
E9
330
1F
100
AcDbEntity
  8
MOTOR PLATE
  6
Continuous
 62
    93
370
     0
100
AcDbCircle
 10
23.60368617683685
 20
16.9975591531756
 30
0.0
 40
3.344999999999999
  0
CIRCLE
  5
EA
330
1F
100
AcDbEntity
  8
MOTOR PLATE
  6
Continuous
 62
    93
370
     0
100
AcDbCircle
 10
23.60368617683685
 20
16.9975591531756
 30
0.0
 40
3.060000000000002
  0
CIRCLE
  5
EB
330
1F
100
AcDbEntity
  8
CENTRLIN
  6
CENTERD
 62
     9
 48
3.424728691494572
370
     0
100
AcDbCircle
 10
23.60368617683685
 20
16.9975591531756
 30
0.0
 40
4.360499999999998
  0
LINE
  5
EC
330
1F
100
AcDbEntity
  8
CENTRLIN
  6
CENTERD
 62
     9
 48
0.0624999999999996
370
     0
100
AcDbLine
 10
23.60368617683685
 20
21.6080591531756
 30
0.0
 11
23.60368617683685
 21
21.1080591531756
 31
0.0
  0
LINE
  5
ED
330
1F
100
AcDbEntity
  8
CENTRLIN
  6
CENTERD
 62
     9
 48
0.0625000000000009
370
     0
100
AcDbLine
 10
18.99318617683685
 20
16.9975591531756
 30
0.0
 11
19.49318617683686
 21
16.9975591531756
 31
0.0
  0
LINE
  5
EE
330
1F
100
AcDbEntity
  8
CENTRLIN
  6
CENTERD
 62
     9
 48
0.0625
370
     0
100
AcDbLine
 10
23.60368617683685
 20
12.38705915317561
 30
0.0
 11
23.60368617683685
 21
12.88705915317561
 31
0.0
  0
LINE
  5
EF
330
1F
100
AcDbEntity
  8
CENTRLIN
  6
CENTERD
 62
     9
 48
0.0625
370
     0
100
AcDbLine
 10
28.21418617683685
 20
16.99755915317559
 30
0.0
 11
27.71418617683685
 21
16.99755915317559
 31
0.0
  0
LINE
  5
F0
330
1F
100
AcDbEntity
  8
CENTRLIN
  6
CENTERD
 62
     9
 48
0.8362499999999997
370
     0
100
AcDbLine
 10
20.25868617683685
 20
16.9975591531756
 30
0.0
 11
26.94868617683685
 21
16.9975591531756
 31
0.0
  0
CIRCLE
  5
F1
330
1F
100
AcDbEntity
  8
MOTOR PLATE
  6
Continuous
 62
    93
370
     0
100
AcDbCircle
 10
23.60368617683685
 20
16.9975591531756
 30
0.0
 40
1.969999999999992
  0
CIRCLE
  5
F2
330
1F
100
AcDbEntity
  8
MOTOR PLATE
  6
Continuous
 62
    93
370
     0
100
AcDbCircle
 10
23.60368617683685
 20
21.3580591531756
 30
0.0
 40
0.2109999999999985
  0
CIRCLE
  5
F3
330
1F
100
AcDbEntity
  8
MOTOR PLATE
  6
Continuous
 62
    93
370
     0
100
AcDbCircle
 10
23.60368617683685
 20
21.3580591531756
 30
0.0
 40
0.2409999999999961
  0
CIRCLE
  5
F4
330
1F
100
AcDbEntity
  8
MOTOR PLATE
  6
Continuous
 62
    93
370
     0
100
AcDbCircle
 10
19.24318617683685
 20
16.9975591531756
 30
0.0
 40
0.2109999999999985
  0
CIRCLE
  5
F5
330
1F
100
AcDbEntity
  8
MOTOR PLATE
  6
Continuous
 62
    93
370
     0
100
AcDbCircle
 10
19.24318617683685
 20
16.9975591531756
 30
0.0
 40
0.2409999999999997
  0
CIRCLE
  5
F6
330
1F
100
AcDbEntity
  8
MOTOR PLATE
  6
Continuous
 62
    93
370
     0
100
AcDbCircle
 10
23.60368617683685
 20
12.63705915317561
 30
0.0
 40
0.2110000000000021
  0
CIRCLE
  5
F7
330
1F
100
AcDbEntity
  8
MOTOR PLATE
  6
Continuous
 62
    93
370
     0
100
AcDbCircle
 10
23.60368617683685
 20
12.63705915317561
 30
0.0
 40
0.2410000000000032
  0
CIRCLE
  5
F8
330
1F
100
AcDbEntity
  8
MOTOR PLATE
  6
Continuous
 62
    93
370
     0
100
AcDbCircle
 10
27.96418617683685
 20
16.99755915317559
 30
0.0
 40
0.210999999999995
  0
CIRCLE
  5
F9
330
1F
100
AcDbEntity
  8
MOTOR PLATE
  6
Continuous
 62
    93
370
     0
100
AcDbCircle
 10
27.96418617683685
 20
16.99755915317559
 30
0.0
 40
0.2409999999999961
  0
ARC
  5
FA
330
1F
100
AcDbEntity
  8
MOTOR PLATE
  6
Continuous
 62
    93
370
     0
100
AcDbCircle
 10
23.60368617683687
 20
16.99755915317559
 30
0.0
 40
4.750000000000003
100
AcDbArc
 50
253.7590261184548
 51
218.991407182673
  0
LINE
  5
FB
330
1F
100
AcDbEntity
  8
DIMENSIONS
  6
Continuous
 62
     1
370
     0
100
AcDbLine
 10
28.52677729360654
 20
20.05607207088133
 30
0.0
 11
28.72677729360654
 21
20.05607207088133
 31
0.0
  0
LINE
  5
FC
330
1F
100
AcDbEntity
  8
DIMENSIONS
  6
Continuous
 62
     1
370
     0
100
AcDbLine
 10
27.63844797707195
 20
19.50418980314453
 30
0.0
 11
27.50166831919734
 21
19.35827433038135
 31
0.0
  0
LINE
  5
FD
330
1F
100
AcDbEntity
  8
DIMENSIONS
  6
Continuous
 62
     1
370
     0
100
AcDbLine
 10
27.63844797707195
 20
19.50418980314453
 30
0.0
 11
27.44703558225
 21
19.4462131258637
 31
0.0
  0
LINE
  5
FE
330
1F
100
AcDbEntity
  8
DIMENSIONS
  6
Continuous
 62
     1
370
     0
100
AcDbLine
 10
19.56892437660177
 20
14.49092850320667
 30
0.0
 11
19.70570403447638
 21
14.63684397596986
 31
0.0
  0
LINE
  5
FF
330
1F
100
AcDbEntity
  8
DIMENSIONS
  6
Continuous
 62
     1
370
     0
100
AcDbLine
 10
19.56892437660177
 20
14.49092850320667
 30
0.0
 11
19.76033677142372
 21
14.5489051804875
 31
0.0
  0
LINE
  5
100
330
1F
100
AcDbEntity
  8
DIMENSIONS
  6
Continuous
 62
     1
370
     0
100
AcDbLine
 10
19.56892437660177
 20
14.49092850320667
 30
0.0
 11
28.52677729360654
 21
20.05607207088133
 31
0.0
  0
TEXT
  5
101
330
1F
100
AcDbEntity
  8
DIMENSIONS
  6
Continuous
 62
     1
370
     0
100
AcDbText
 10
28.60886169759824
 20
19.97107207088133
 30
0.0
 40
0.17
  1
9.50%%p.020
  7
MAIN
100
AcDbText
  0
LINE
  5
102
330
1F
100
AcDbEntity
  8
DIMENSIONS
  6
Continuous
 62
     1
370
     0
100
AcDbLine
 10
25.2272022312624
 20
22.24869291876164
 30
0.0
 11
25.4272022312624
 21
22.24869291876164
 31
0.0
  0
LINE
  5
103
330
1F
100
AcDbEntity
  8
DIMENSIONS
  6
Continuous
 62
     1
370
     0
100
AcDbLine
 10
24.89168659746034
 20
21.16349424226109
 30
0.0
 11
24.88407785860768
 21
20.96363902693491
 31
0.0
  0
LINE
  5
104
330
1F
100
AcDbEntity
  8
DIMENSIONS
  6
Continuous
 62
     1
370
     0
100
AcDbLine
 10
24.89168659746034
 20
21.16349424226109
 30
0.0
 11
24.78516962866009
 21
20.99421891813614
 31
0.0
  0
LINE
  5
105
330
1F
100
AcDbEntity
  8
DIMENSIONS
  6
Continuous
 62
     1
370
     0
100
AcDbLine
 10
22.31568575621338
 20
12.83162406409011
 30
0.0
 11
22.32329449506604
 21
13.03147927941629
 31
0.0
  0
LINE
  5
106
330
1F
100
AcDbEntity
  8
DIMENSIONS
  6
Continuous
 62
     1
370
     0
100
AcDbLine
 10
22.31568575621338
 20
12.83162406409011
 30
0.0
 11
22.42220272501363
 21
13.00089938821506
 31
0.0
  0
LINE
  5
107
330
1F
100
AcDbEntity
  8
DIMENSIONS
  6
Continuous
 62
     1
370
     0
100
AcDbLine
 10
22.31568575621337
 20
12.83162406409011
 30
0.0
 11
25.2272022312624
 21
22.24869291876164
 31
0.0
  0
TEXT
  5
108
330
1F
100
AcDbEntity
  8
DIMENSIONS
  6
Continuous
 62
     1
370
     0
100
AcDbText
 10
25.4772022312624
 20
22.16369291876164
 30
0.0
 40
0.17
  1
8.721 BC
  7
MAIN
100
AcDbText
  0
LINE
  5
109
330
1F
100
AcDbEntity
  8
DIMENSIONS
  6
Continuous
 62
     1
370
     0
100
AcDbLine
 10
20.16261341438501
 20
11.41331416564443
 30
0.0
 11
20.35579857964282
 21
11.46507797466493
 31
0.0
  0
LINE
  5
10A
330
1F
100
AcDbEntity
  8
DIMENSIONS
  6
Continuous
 62
     1
370
     0
100
AcDbLine
 10
20.16261341438501
 20
11.41331416564443
 30
0.0
 11
20.35579857964282
 21
11.36155035662392
 31
0.0
  0
LINE
  5
10B
330
1F
100
AcDbEntity
  8
DIMENSIONS
  6
Continuous
 62
     1
370
     0
100
AcDbLine
 10
23.60368617683686
 20
11.41331416564443
 30
0.0
 11
23.41050101157905
 21
11.36155035662392
 31
0.0
  0
LINE
  5
10C
330
1F
100
AcDbEntity
  8
DIMENSIONS
  6
Continuous
 62
     1
370
     0
100
AcDbLine
 10
23.60368617683686
 20
11.41331416564443
 30
0.0
 11
23.41050101157905
 21
11.46507797466493
 31
0.0
  0
LINE
  5
10D
330
1F
100
AcDbEntity
  8
DIMENSIONS
  6
Continuous
 62
     1
370
     0
100
AcDbLine
 10
20.16261341438501
 20
11.75318545662312
 30
0.0
 11
20.16261341438501
 21
11.36331416564443
 31
0.0
  0
LINE
  5
10E
330
1F
100
AcDbEntity
  8
DIMENSIONS
  6
Continuous
 62
     1
370
     0
100
AcDbLine
 10
23.60368617683686
 20
11.78230280385493
 30
0.0
 11
23.60368617683686
 21
11.36331416564443
 31
0.0
  0
TEXT
  5
10F
330
1F
100
AcDbEntity
  8
DIMENSIONS
  6
Continuous
 62
     1
370
     0
100
AcDbText
 10
21.68721223839047
 20
11.33831416564443
 30
0.0
 40
0.15
  1
3.44
  7
MAIN
100
AcDbText
  0
LINE
  5
110
330
1F
100
AcDbEntity
  8
DIMENSIONS
  6
Continuous
 62
     1
370
     0
100
AcDbLine
 10
20.16261341438501
 20
11.41331416564443
 30
0.0
 11
21.63721223839048
 21
11.41331416564443
 31
0.0
  0
LINE
  5
111
330
1F
100
AcDbEntity
  8
DIMENSIONS
  6
Continuous
 62
     1
370
     0
100
AcDbLine
 10
22.12908735283139
 20
11.41331416564443
 30
0.0
 11
23.60368617683686
 21
11.41331416564443
 31
0.0
  0
LINE
  5
112
330
1F
100
AcDbEntity
  8
DIMENSIONS
  6
Continuous
 62
     1
370
     0
100
AcDbLine
 10
18.45775145819507
 20
11.82318545662312
 30
0.0
 11
18.40598764917456
 21
12.01637062188094
 31
0.0
  0
LINE
  5
113
330
1F
100
AcDbEntity
  8
DIMENSIONS
  6
Continuous
 62
     1
370
     0
100
AcDbLine
 10
18.45775145819507
 20
11.82318545662312
 30
0.0
 11
18.50951526721557
 21
12.01637062188094
 31
0.0
  0
LINE
  5
114
330
1F
100
AcDbEntity
  8
DIMENSIONS
  6
Continuous
 62
     1
370
     0
100
AcDbLine
 10
18.45775145819507
 20
16.9975591531756
 30
0.0
 11
18.50951526721557
 21
16.80437398791779
 31
0.0
  0
LINE
  5
115
330
1F
100
AcDbEntity
  8
DIMENSIONS
  6
Continuous
 62
     1
370
     0
100
AcDbLine
 10
18.45775145819507
 20
16.9975591531756
 30
0.0
 11
18.40598764917456
 21
16.80437398791779
 31
0.0
  0
LINE
  5
116
330
1F
100
AcDbEntity
  8
DIMENSIONS
  6
Continuous
 62
     1
370
     0
100
AcDbLine
 10
20.09261341438501
 20
11.82318545662312
 30
0.0
 11
18.40775145819507
 21
11.82318545662312
 31
0.0
  0
LINE
  5
117
330
1F
100
AcDbEntity
  8
DIMENSIONS
  6
Continuous
 62
     1
370
     0
100
AcDbLine
 10
20.18868617683685
 20
16.9975591531756
 30
0.0
 11
18.40775145819507
 21
16.9975591531756
 31
0.0
  0
TEXT
  5
118
330
1F
100
AcDbEntity
  8
DIMENSIONS
  6
Continuous
 62
     1
370
     0
100
AcDbText
 10
18.2899389009746
 20
14.33537230489936
 30
0.0
 40
0.15
  1
5.17
  7
MAIN
100
AcDbText
  0
LINE
  5
119
330
1F
100
AcDbEntity
  8
DIMENSIONS
  6
Continuous
 62
     1
370
     0
100
AcDbLine
 10
18.45775145819507
 20
11.82318545662312
 30
0.0
 11
18.45775145819507
 21
14.28537230489936
 31
0.0
  0
LINE
  5
11A
330
1F
100
AcDbEntity
  8
DIMENSIONS
  6
Continuous
 62
     1
370
     0
100
AcDbLine
 10
18.45775145819507
 20
14.53537230489936
 30
0.0
 11
18.45775145819507
 21
16.9975591531756
 31
0.0
  0
TEXT
  5
11B
330
1F
100
AcDbEntity
  8
DIMENSIONS
  6
Continuous
 62
     7
370
     0
100
AcDbText
 10
19.17428880205809
 20
24.83184072533416
 30
0.0
 40
0.15
  1
PLATE, 20KW MOTOR
  7
MAIN
100
AcDbText
  0
TEXT
  5
11C
330
1F
100
AcDbEntity
  8
DIMENSIONS
  6
Continuous
 62
     7
370
     0
100
AcDbText
 10
19.17428880205809
 20
24.60684072533416
 30
0.0
 40
0.15
  1
GREEN VEHICLES - MOOSE ADAPTER SET for BS10 2/D TRANS. & 20kw MOTOR
  7
MAIN
100
AcDbText
  0
TEXT
  5
11D
330
1F
100
AcDbEntity
  8
DIMENSIONS
  6
Continuous
 62
     7
370
     0
100
AcDbText
 10
19.17428880205809
 20
24.15684072533416
 30
0.0
 40
0.15
  1
09/22/09  REV D
  7
MAIN
100
AcDbText
  0
TEXT
  5
11E
330
1F
100
AcDbEntity
  8
DIMENSIONS
  6
Continuous
 62
     7
370
     0
100
AcDbText
 10
19.17428880205809
 20
23.70684072533416
 30
0.0
 40
0.15
  1
MATERIAL: 5/8" ALUM.
  7
MAIN
100
AcDbText
  0
TEXT
  5
11F
330
1F
100
AcDbEntity
  8
DIMENSIONS
  6
Continuous
 62
     7
370
     0
100
AcDbText
 10
19.17428880205809
 20
23.25684072533416
 30
0.0
 40
0.15
  1
FINISH: N/A
  7
MAIN
100
AcDbText
  0
TEXT
  5
120
330
1F
100
AcDbEntity
  8
DIMENSIONS
  6
Continuous
 62
     7
370
     0
100
AcDbText
 10
19.17428880205809
 20
22.80684072533416
 30
0.0
 40
0.15
  1
TOL: .XX = .010, .XXX = .005
  7
MAIN
100
AcDbText
  0
TEXT
  5
121
330
1F
100
AcDbEntity
  8
DIMENSIONS
  6
Continuous
 62
     7
370
     0
100
AcDbText
 10
19.17428880205809
 20
22.58184072533416
 30
0.0
 40
0.15
  1
UNLESS OTHERWISE NOTED.
  7
MAIN
100
AcDbText
  0
LINE
  5
122
330
1F
100
AcDbEntity
  8
Plate
  6
CENTERD
 62
     9
 48
0.5017633659541839
370
     0
100
AcDbLine
 10
21.3808673269029
 20
13.6550854005706
 30
0.0
 11
23.60368617683685
 21
16.9975591531756
 31
0.0
  0
LINE
  5
124
330
1F
100
AcDbEntity
  8
Plate
  6
Continuous
 62
     1
370
     0
100
AcDbLine
 10
21.06713596966877
 20
16.9975591531756
 30
0.0
 11
21.11889977868927
 21
16.80437398791779
 31
0.0
  0
LINE
  5
125
330
1F
100
AcDbEntity
  8
Plate
  6
Continuous
 62
     1
370
     0
100
AcDbLine
 10
21.06713596966877
 20
16.9975591531756
 30
0.0
 11
21.01537216064827
 21
16.80437398791779
 31
0.0
  0
LINE
  5
126
330
1F
100
AcDbEntity
  8
Plate
  6
Continuous
 62
     1
370
     0
100
AcDbLine
 10
22.19906698857294
 20
14.88541997938869
 30
0.0
 11
22.0095409175396
 21
14.94929382692168
 31
0.0
  0
LINE
  5
127
330
1F
100
AcDbEntity
  8
Plate
  6
Continuous
 62
     1
370
     0
100
AcDbLine
 10
22.19906698857294
 20
14.88541997938869
 30
0.0
 11
22.06686952014511
 21
15.03549938950638
 31
0.0
  0
LINE
  5
128
330
1F
100
AcDbEntity
  8
Plate
  6
Continuous
 62
     1
370
     0
100
AcDbLine
 10
23.53368617683685
 20
16.9975591531756
 30
0.0
 11
21.01713596966877
 21
16.9975591531756
 31
0.0
  0
LINE
  5
129
330
1F
100
AcDbEntity
  8
Plate
  6
Continuous
 62
     1
370
     0
100
AcDbLine
 10
23.56492355234765
 20
16.93927142768636
 30
0.0
 11
22.17137939965207
 21
14.84378588975352
 31
0.0
  0
TEXT
  5
12A
330
1F
100
AcDbEntity
  8
Plate
  6
Continuous
 62
     1
370
     0
100
AcDbText
 10
21.48596366414842
 20
15.36912103972814
 30
0.0
 40
0.15
  1
56
  7
MAIN
100
AcDbText
  0
ARC
  5
12B
330
1F
100
AcDbEntity
  8
Plate
  6
Continuous
 62
     1
370
     0
100
AcDbCircle
 10
23.60368617683685
 20
16.9975591531756
 30
0.0
 40
2.536550207168077
100
AcDbArc
 50
180.0000000000001
 51
214.2733719847404
  0
ARC
  5
12C
330
1F
100
AcDbEntity
  8
Plate
  6
Continuous
 62
     1
370
     0
100
AcDbCircle
 10
23.60368617683685
 20
16.99755915317559
 30
0.0
 40
2.536550207168073
100
AcDbArc
 50
221.4297392822636
 51
236.375216650564
  0
LINE
  5
12D
330
1F
100
AcDbEntity
  8
DIMENSIONS
  6
Continuous
 62
     1
370
     0
100
AcDbLine
 10
21.65752839646668
 20
13.43725769674984
 30
0.0
 11
21.56423527343186
 21
13.26034983034925
 31
0.0
  0
LINE
  5
12E
330
1F
100
AcDbEntity
  8
DIMENSIONS
  6
Continuous
 62
     1
370
     0
100
AcDbLine
 10
21.65752839646668
 20
13.43725769674984
 30
0.0
 11
21.48828024871984
 21
13.33069755183503
 31
0.0
  0
LINE
  5
12F
330
1F
100
AcDbEntity
  8
DIMENSIONS
  6
Continuous
 62
     1
370
     0
100
AcDbLine
 10
20.162613414385
 20
11.82318545662312
 30
0.0
 11
20.79429890457317
 21
12.50522157668648
 31
0.0
  0
LINE
  5
130
330
1F
100
AcDbEntity
  8
DIMENSIONS
  6
Continuous
 62
     1
370
     0
100
AcDbLine
 10
21.0258429062785
 20
12.75522157668648
 30
0.0
 11
21.65752839646668
 21
13.43725769674984
 31
0.0
  0
TEXT
  5
131
330
1F
100
AcDbEntity
  8
DIMENSIONS
  6
Continuous
 62
     1
370
     0
100
AcDbText
 10
20.71413334820538
 20
12.55522157668648
 30
0.0
 40
0.15
  1
2.20
  7
MAIN
100
AcDbText
  0
ENDSEC
  0
SECTION
  2
OBJECTS
  0
DICTIONARY
  5
C
330
0
100
AcDbDictionary
281
     1
  3
ACAD_GROUP
350
D
  3
ACAD_LAYOUT
350
1A
  3
ACAD_MLEADERSTYLE
350
134
  3
ACAD_MLINESTYLE
350
17
  3
ACAD_PLOTSETTINGS
350
19
  3
ACAD_PLOTSTYLENAME
350
E
  3
ACAD_SCALELIST
350
3D
  3
ACAD_VISUALSTYLE
350
2A
  3
AcDbVariableDictionary
350
132
  0
DICTIONARY
  5
D
102
{ACAD_REACTORS
330
C
102
}
330
C
100
AcDbDictionary
281
     1
  0
DICTIONARY
  5
1A
102
{ACAD_REACTORS
330
C
102
}
330
C
100
AcDbDictionary
281
     1
  3
Layout1
350
1E
  3
Layout2
350
26
  3
Model
350
22
  0
DICTIONARY
  5
134
102
{ACAD_REACTORS
330
C
102
}
330
C
100
AcDbDictionary
281
     1
  0
DICTIONARY
  5
17
102
{ACAD_REACTORS
330
C
102
}
330
C
100
AcDbDictionary
281
     1
  3
Standard
350
18
  0
DICTIONARY
  5
19
102
{ACAD_REACTORS
330
C
102
}
330
C
100
AcDbDictionary
281
     1
  0
ACDBDICTIONARYWDFLT
  5
E
102
{ACAD_REACTORS
330
C
102
}
330
C
100
AcDbDictionary
281
     1
  3
Normal
350
F
100
AcDbDictionaryWithDefault
340
F
  0
DICTIONARY
  5
3D
102
{ACAD_REACTORS
330
C
102
}
330
C
100
AcDbDictionary
281
     1
  3
A0
350
3E
  3
A1
350
3F
  3
A2
350
40
  3
A3
350
41
  3
A4
350
42
  3
A5
350
43
  3
A6
350
44
  3
A7
350
45
  3
A8
350
46
  3
A9
350
47
  3
B0
350
48
  3
B1
350
49
  3
B2
350
4A
  3
B3
350
4B
  3
B4
350
4C
  3
B5
350
4D
  3
B6
350
4E
  3
B7
350
4F
  3
B8
350
50
  3
B9
350
51
  3
C0
350
52
  3
C1
350
53
  3
C2
350
54
  3
C3
350
55
  3
C4
350
56
  3
C5
350
57
  3
C6
350
58
  3
C7
350
59
  3
C8
350
5A
  3
C9
350
5B
  3
D0
350
5C
  3
D1
350
5D
  3
D2
350
5E
  0
DICTIONARY
  5
2A
102
{ACAD_REACTORS
330
C
102
}
330
C
100
AcDbDictionary
281
     1
  3
2dWireframe
350
2F
  3
3D Hidden
350
31
  3
3dWireframe
350
30
  3
Basic
350
32
  3
Brighten
350
36
  3
ColorChange
350
3A
  3
Conceptual
350
34
  3
Dim
350
35
  3
Facepattern
350
39
  3
Flat
350
2B
  3
FlatWithEdges
350
2C
  3
Gouraud
350
2D
  3
GouraudWithEdges
350
2E
  3
Linepattern
350
38
  3
Realistic
350
33
  3
Thicken
350
37
  0
DICTIONARY
  5
132
102
{ACAD_REACTORS
330
C
102
}
330
C
100
AcDbDictionary
281
     1
  3
CANNOSCALE
350
135
  0
LAYOUT
  5
1E
102
{ACAD_REACTORS
330
1A
102
}
330
1A
100
AcDbPlotSettings
  1

  2
none_device
  4

  6

 40
0.0
 41
0.0
 42
0.0
 43
0.0
 44
0.0
 45
0.0
 46
0.0
 47
0.0
 48
0.0
 49
0.0
140
0.0
141
0.0
142
1.0
143
1.0
 70
   688
 72
     0
 73
     0
 74
     5
  7

 75
    16
147
1.0
148
0.0
149
0.0
100
AcDbLayout
  1
Layout1
 70
     1
 71
     1
 10
0.0
 20
0.0
 11
12.0
 21
9.0
 12
0.0
 22
0.0
 32
0.0
 14
1.000000000000000E+20
 24
1.000000000000000E+20
 34
1.000000000000000E+20
 15
-1.000000000000000E+20
 25
-1.000000000000000E+20
 35
-1.000000000000000E+20
146
0.0
 13
0.0
 23
0.0
 33
0.0
 16
1.0
 26
0.0
 36
0.0
 17
0.0
 27
1.0
 37
0.0
 76
     0
330
1B
  0
LAYOUT
  5
26
102
{ACAD_REACTORS
330
1A
102
}
330
1A
100
AcDbPlotSettings
  1

  2
none_device
  4

  6

 40
0.0
 41
0.0
 42
0.0
 43
0.0
 44
0.0
 45
0.0
 46
0.0
 47
0.0
 48
0.0
 49
0.0
140
0.0
141
0.0
142
1.0
143
1.0
 70
   688
 72
     0
 73
     0
 74
     5
  7

 75
    16
147
1.0
148
0.0
149
0.0
100
AcDbLayout
  1
Layout2
 70
     1
 71
     2
 10
0.0
 20
0.0
 11
0.0
 21
0.0
 12
0.0
 22
0.0
 32
0.0
 14
0.0
 24
0.0
 34
0.0
 15
0.0
 25
0.0
 35
0.0
146
0.0
 13
0.0
 23
0.0
 33
0.0
 16
1.0
 26
0.0
 36
0.0
 17
0.0
 27
1.0
 37
0.0
 76
     0
330
23
  0
LAYOUT
  5
22
102
{ACAD_REACTORS
330
1A
102
}
330
1A
100
AcDbPlotSettings
  1

  2
none_device
  4

  6

 40
0.0
 41
0.0
 42
0.0
 43
0.0
 44
0.0
 45
0.0
 46
0.0
 47
0.0
 48
0.0
 49
0.0
140
0.0
141
0.0
142
1.0
143
1.0
 70
  1712
 72
     0
 73
     0
 74
     0
  7

 75
     0
147
1.0
148
0.0
149
0.0
100
AcDbLayout
  1
Model
 70
     1
 71
     0
 10
0.0
 20
0.0
 11
12.0
 21
9.0
 12
0.0
 22
0.0
 32
0.0
 14
1.000000000000000E+20
 24
1.000000000000000E+20
 34
1.000000000000000E+20
 15
-1.000000000000000E+20
 25
-1.000000000000000E+20
 35
-1.000000000000000E+20
146
0.0
 13
0.0
 23
0.0
 33
0.0
 16
1.0
 26
0.0
 36
0.0
 17
0.0
 27
1.0
 37
0.0
 76
     0
330
1F
331
29
  0
MLINESTYLE
  5
18
102
{ACAD_REACTORS
330
17
102
}
330
17
100
AcDbMlineStyle
  2
Standard
 70
     0
  3

 62
   256
 51
90.0
 52
90.0
 71
     2
 49
0.5
 62
   256
  6
BYLAYER
 49
-0.5
 62
   256
  6
BYLAYER
  0
ACDBPLACEHOLDER
  5
F
102
{ACAD_REACTORS
330
E
102
}
330
E
  0
SCALE
  5
3E
102
{ACAD_REACTORS
330
3D
102
}
330
3D
100
AcDbScale
 70
     0
300
1:1
140
1.0
141
1.0
290
     1
  0
SCALE
  5
3F
102
{ACAD_REACTORS
330
3D
102
}
330
3D
100
AcDbScale
 70
     0
300
1:2
140
1.0
141
2.0
290
     0
  0
SCALE
  5
40
102
{ACAD_REACTORS
330
3D
102
}
330
3D
100
AcDbScale
 70
     0
300
1:4
140
1.0
141
4.0
290
     0
  0
SCALE
  5
41
102
{ACAD_REACTORS
330
3D
102
}
330
3D
100
AcDbScale
 70
     0
300
1:5
140
1.0
141
5.0
290
     0
  0
SCALE
  5
42
102
{ACAD_REACTORS
330
3D
102
}
330
3D
100
AcDbScale
 70
     0
300
1:8
140
1.0
141
8.0
290
     0
  0
SCALE
  5
43
102
{ACAD_REACTORS
330
3D
102
}
330
3D
100
AcDbScale
 70
     0
300
1:10
140
1.0
141
10.0
290
     0
  0
SCALE
  5
44
102
{ACAD_REACTORS
330
3D
102
}
330
3D
100
AcDbScale
 70
     0
300
1:16
140
1.0
141
16.0
290
     0
  0
SCALE
  5
45
102
{ACAD_REACTORS
330
3D
102
}
330
3D
100
AcDbScale
 70
     0
300
1:20
140
1.0
141
20.0
290
     0
  0
SCALE
  5
46
102
{ACAD_REACTORS
330
3D
102
}
330
3D
100
AcDbScale
 70
     0
300
1:30
140
1.0
141
30.0
290
     0
  0
SCALE
  5
47
102
{ACAD_REACTORS
330
3D
102
}
330
3D
100
AcDbScale
 70
     0
300
1:40
140
1.0
141
40.0
290
     0
  0
SCALE
  5
48
102
{ACAD_REACTORS
330
3D
102
}
330
3D
100
AcDbScale
 70
     0
300
1:50
140
1.0
141
50.0
290
     0
  0
SCALE
  5
49
102
{ACAD_REACTORS
330
3D
102
}
330
3D
100
AcDbScale
 70
     0
300
1:100
140
1.0
141
100.0
290
     0
  0
SCALE
  5
4A
102
{ACAD_REACTORS
330
3D
102
}
330
3D
100
AcDbScale
 70
     0
300
2:1
140
2.0
141
1.0
290
     0
  0
SCALE
  5
4B
102
{ACAD_REACTORS
330
3D
102
}
330
3D
100
AcDbScale
 70
     0
300
4:1
140
4.0
141
1.0
290
     0
  0
SCALE
  5
4C
102
{ACAD_REACTORS
330
3D
102
}
330
3D
100
AcDbScale
 70
     0
300
8:1
140
8.0
141
1.0
290
     0
  0
SCALE
  5
4D
102
{ACAD_REACTORS
330
3D
102
}
330
3D
100
AcDbScale
 70
     0
300
10:1
140
10.0
141
1.0
290
     0
  0
SCALE
  5
4E
102
{ACAD_REACTORS
330
3D
102
}
330
3D
100
AcDbScale
 70
     0
300
100:1
140
100.0
141
1.0
290
     0
  0
SCALE
  5
4F
102
{ACAD_REACTORS
330
3D
102
}
330
3D
100
AcDbScale
 70
     0
300
1/128" = 1'-0"
140
0.0078125
141
12.0
290
     0
  0
SCALE
  5
50
102
{ACAD_REACTORS
330
3D
102
}
330
3D
100
AcDbScale
 70
     0
300
1/64" = 1'-0"
140
0.015625
141
12.0
290
     0
  0
SCALE
  5
51
102
{ACAD_REACTORS
330
3D
102
}
330
3D
100
AcDbScale
 70
     0
300
1/32" = 1'-0"
140
0.03125
141
12.0
290
     0
  0
SCALE
  5
52
102
{ACAD_REACTORS
330
3D
102
}
330
3D
100
AcDbScale
 70
     0
300
1/16" = 1'-0"
140
0.0625
141
12.0
290
     0
  0
SCALE
  5
53
102
{ACAD_REACTORS
330
3D
102
}
330
3D
100
AcDbScale
 70
     0
300
3/32" = 1'-0"
140
0.09375
141
12.0
290
     0
  0
SCALE
  5
54
102
{ACAD_REACTORS
330
3D
102
}
330
3D
100
AcDbScale
 70
     0
300
1/8" = 1'-0"
140
0.125
141
12.0
290
     0
  0
SCALE
  5
55
102
{ACAD_REACTORS
330
3D
102
}
330
3D
100
AcDbScale
 70
     0
300
3/16" = 1'-0"
140
0.1875
141
12.0
290
     0
  0
SCALE
  5
56
102
{ACAD_REACTORS
330
3D
102
}
330
3D
100
AcDbScale
 70
     0
300
1/4" = 1'-0"
140
0.25
141
12.0
290
     0
  0
SCALE
  5
57
102
{ACAD_REACTORS
330
3D
102
}
330
3D
100
AcDbScale
 70
     0
300
3/8" = 1'-0"
140
0.375
141
12.0
290
     0
  0
SCALE
  5
58
102
{ACAD_REACTORS
330
3D
102
}
330
3D
100
AcDbScale
 70
     0
300
1/2" = 1'-0"
140
0.5
141
12.0
290
     0
  0
SCALE
  5
59
102
{ACAD_REACTORS
330
3D
102
}
330
3D
100
AcDbScale
 70
     0
300
3/4" = 1'-0"
140
0.75
141
12.0
290
     0
  0
SCALE
  5
5A
102
{ACAD_REACTORS
330
3D
102
}
330
3D
100
AcDbScale
 70
     0
300
1" = 1'-0"
140
1.0
141
12.0
290
     0
  0
SCALE
  5
5B
102
{ACAD_REACTORS
330
3D
102
}
330
3D
100
AcDbScale
 70
     0
300
1-1/2" = 1'-0"
140
1.5
141
12.0
290
     0
  0
SCALE
  5
5C
102
{ACAD_REACTORS
330
3D
102
}
330
3D
100
AcDbScale
 70
     0
300
3" = 1'-0"
140
3.0
141
12.0
290
     0
  0
SCALE
  5
5D
102
{ACAD_REACTORS
330
3D
102
}
330
3D
100
AcDbScale
 70
     0
300
6" = 1'-0"
140
6.0
141
12.0
290
     0
  0
SCALE
  5
5E
102
{ACAD_REACTORS
330
3D
102
}
330
3D
100
AcDbScale
 70
     0
300
1'-0" = 1'-0"
140
12.0
141
12.0
290
     0
  0
VISUALSTYLE
  5
2F
102
{ACAD_REACTORS
330
2A
102
}
330
2A
100
AcDbVisualStyle
  2
2dWireframe
 70
     4
 71
     0
 72
     2
 73
     0
 90
        0
 40
-0.6
 41
-30.0
 62
     5
 63
     7
 74
     1
 91
        4
 64
     7
 65
   257
 75
     1
175
     1
 42
1.0
 92
        0
 66
   257
 43
1.0
 76
     1
 77
     6
 78
     2
 67
     7
 79
     5
170
     0
171
     0
290
     0
174
     0
 93
        1
 44
0.0
173
     0
291
     0
 45
0.0
1001
ACAD
1000
AcDbSavedByObjectVersion
1070
     0
  0
VISUALSTYLE
  5
31
102
{ACAD_REACTORS
330
2A
102
}
330
2A
100
AcDbVisualStyle
  2
3D Hidden
 70
     6
 71
     1
 72
     2
 73
     2
 90
        0
 40
-0.6
 41
-30.0
 62
     5
 63
     7
 74
     2
 91
        2
 64
     7
 65
   257
 75
     2
175
     1
 42
40.0
 92
        0
 66
   257
 43
1.0
 76
     1
 77
     6
 78
     2
 67
     7
 79
     3
170
     0
171
     0
290
     0
174
     0
 93
        1
 44
0.0
173
     0
291
     0
 45
0.0
1001
ACAD
1000
AcDbSavedByObjectVersion
1070
     0
  0
VISUALSTYLE
  5
30
102
{ACAD_REACTORS
330
2A
102
}
330
2A
100
AcDbVisualStyle
  2
3dWireframe
 70
     5
 71
     0
 72
     2
 73
     0
 90
        0
 40
-0.6
 41
-30.0
 62
     5
 63
     7
 74
     1
 91
        4
 64
     7
 65
   257
 75
     1
175
     1
 42
1.0
 92
        0
 66
   257
 43
1.0
 76
     1
 77
     6
 78
     2
 67
     7
 79
     5
170
     0
171
     0
290
     0
174
     0
 93
        1
 44
0.0
173
     0
291
     0
 45
0.0
1001
ACAD
1000
AcDbSavedByObjectVersion
1070
     0
  0
VISUALSTYLE
  5
32
102
{ACAD_REACTORS
330
2A
102
}
330
2A
100
AcDbVisualStyle
  2
Basic
 70
     7
 71
     1
 72
     0
 73
     1
 90
        0
 40
-0.6
 41
-30.0
 62
     5
 63
     7
 74
     0
 91
        4
 64
     7
 65
   257
 75
     1
175
     1
 42
1.0
 92
        8
 66
     7
 43
1.0
 76
     1
 77
     6
 78
     2
 67
     7
 79
     5
170
     0
171
     0
290
     0
174
     0
 93
        1
 44
0.0
173
     0
291
     1
 45
0.0
1001
ACAD
1000
AcDbSavedByObjectVersion
1070
     0
  0
VISUALSTYLE
  5
36
102
{ACAD_REACTORS
330
2A
102
}
330
2A
100
AcDbVisualStyle
  2
Brighten
 70
    12
 71
     2
 72
     2
 73
     0
 90
        0
 40
-0.6
 41
-30.0
 62
     5
 63
     7
 74
     1
 91
        4
 64
     7
 65
   257
 75
     1
175
     1
 42
1.0
 92
        8
 66
     7
 43
1.0
 76
     1
 77
     6
 78
     2
 67
     7
 79
     5
170
     0
171
     0
290
     0
174
     0
 93
        1
 44
50.0
173
     0
291
     1
 45
0.0
1001
ACAD
1000
AcDbSavedByObjectVersion
1070
     0
  0
VISUALSTYLE
  5
3A
102
{ACAD_REACTORS
330
2A
102
}
330
2A
100
AcDbVisualStyle
  2
ColorChange
 70
    16
 71
     2
 72
     2
 73
     3
 90
        0
 40
-0.6
 41
-30.0
 62
     5
 63
     8
 74
     1
 91
        4
 64
     7
 65
   257
 75
     1
175
     1
 42
1.0
 92
        8
 66
     8
 43
1.0
 76
     1
 77
     6
 78
     2
 67
     7
 79
     5
170
     0
171
     0
290
     0
174
     0
 93
        1
 44
0.0
173
     0
291
     1
 45
0.0
1001
ACAD
1000
AcDbSavedByObjectVersion
1070
     0
  0
VISUALSTYLE
  5
34
102
{ACAD_REACTORS
330
2A
102
}
330
2A
100
AcDbVisualStyle
  2
Conceptual
 70
     9
 71
     3
 72
     2
 73
     0
 90
        0
 40
-0.6
 41
-30.0
 62
     5
 63
     7
 74
     2
 91
        2
 64
     7
 65
   257
 75
     1
175
     1
 42
40.0
 92
        8
 66
     7
 43
1.0
 76
     1
 77
     6
 78
     2
 67
     7
 79
     3
170
     0
171
     0
290
     0
174
     0
 93
        1
 44
0.0
173
     0
291
     0
 45
0.0
1001
ACAD
1000
AcDbSavedByObjectVersion
1070
     0
  0
VISUALSTYLE
  5
35
102
{ACAD_REACTORS
330
2A
102
}
330
2A
100
AcDbVisualStyle
  2
Dim
 70
    11
 71
     2
 72
     2
 73
     0
 90
        0
 40
-0.6
 41
-30.0
 62
     5
 63
     7
 74
     1
 91
        4
 64
     7
 65
   257
 75
     1
175
     1
 42
1.0
 92
        8
 66
     7
 43
1.0
 76
     1
 77
     6
 78
     2
 67
     7
 79
     5
170
     0
171
     0
290
     0
174
     0
 93
        1
 44
-50.0
173
     0
291
     1
 45
0.0
1001
ACAD
1000
AcDbSavedByObjectVersion
1070
     0
  0
VISUALSTYLE
  5
39
102
{ACAD_REACTORS
330
2A
102
}
330
2A
100
AcDbVisualStyle
  2
Facepattern
 70
    15
 71
     2
 72
     2
 73
     0
 90
        0
 40
-0.6
 41
-30.0
 62
     5
 63
     7
 74
     1
 91
        4
 64
     7
 65
   257
 75
     1
175
     1
 42
1.0
 92
        8
 66
     7
 43
1.0
 76
     1
 77
     6
 78
     2
 67
     7
 79
     5
170
     0
171
     0
290
     0
174
     0
 93
        1
 44
0.0
173
     0
291
     1
 45
0.0
1001
ACAD
1000
AcDbSavedByObjectVersion
1070
     0
  0
VISUALSTYLE
  5
2B
102
{ACAD_REACTORS
330
2A
102
}
330
2A
100
AcDbVisualStyle
  2
Flat
 70
     0
 71
     2
 72
     1
 73
     1
 90
        2
 40
-0.6
 41
30.0
 62
     5
 63
     7
 74
     0
 91
        4
 64
     7
 65
   257
 75
     1
175
     1
 42
1.0
 92
        8
 66
     7
 43
1.0
 76
     1
 77
     6
 78
     2
 67
     7
 79
     5
170
     0
171
     0
290
     0
174
     0
 93
       13
 44
0.0
173
     0
291
     1
 45
0.0
1001
ACAD
1000
AcDbSavedByObjectVersion
1070
     0
  0
VISUALSTYLE
  5
2C
102
{ACAD_REACTORS
330
2A
102
}
330
2A
100
AcDbVisualStyle
  2
FlatWithEdges
 70
     1
 71
     2
 72
     1
 73
     1
 90
        2
 40
-0.6
 41
30.0
 62
     5
 63
     7
 74
     1
 91
        4
 64
     7
 65
   257
 75
     1
175
     1
 42
1.0
 92
        0
 66
   257
 43
1.0
 76
     1
 77
     6
 78
     2
 67
     7
 79
     5
170
     0
171
     0
290
     0
174
     0
 93
       13
 44
0.0
173
     0
291
     1
 45
0.0
1001
ACAD
1000
AcDbSavedByObjectVersion
1070
     0
  0
VISUALSTYLE
  5
2D
102
{ACAD_REACTORS
330
2A
102
}
330
2A
100
AcDbVisualStyle
  2
Gouraud
 70
     2
 71
     2
 72
     2
 73
     1
 90
        2
 40
-0.6
 41
30.0
 62
     5
 63
     7
 74
     0
 91
        4
 64
     7
 65
   257
 75
     1
175
     1
 42
1.0
 92
        0
 66
     7
 43
1.0
 76
     1
 77
     6
 78
     2
 67
     7
 79
     5
170
     0
171
     0
290
     0
174
     0
 93
       13
 44
0.0
173
     0
291
     1
 45
0.0
1001
ACAD
1000
AcDbSavedByObjectVersion
1070
     0
  0
VISUALSTYLE
  5
2E
102
{ACAD_REACTORS
330
2A
102
}
330
2A
100
AcDbVisualStyle
  2
GouraudWithEdges
 70
     3
 71
     2
 72
     2
 73
     1
 90
        2
 40
-0.6
 41
30.0
 62
     5
 63
     7
 74
     1
 91
        4
 64
     7
 65
   257
 75
     1
175
     1
 42
1.0
 92
        0
 66
   257
 43
1.0
 76
     1
 77
     6
 78
     2
 67
     7
 79
     5
170
     0
171
     0
290
     0
174
     0
 93
       13
 44
0.0
173
     0
291
     1
 45
0.0
1001
ACAD
1000
AcDbSavedByObjectVersion
1070
     0
  0
VISUALSTYLE
  5
38
102
{ACAD_REACTORS
330
2A
102
}
330
2A
100
AcDbVisualStyle
  2
Linepattern
 70
    14
 71
     2
 72
     2
 73
     0
 90
        0
 40
-0.6
 41
-30.0
 62
     5
 63
     7
 74
     1
 91
        4
 64
     7
 65
   257
 75
     7
175
     7
 42
1.0
 92
        8
 66
     7
 43
1.0
 76
     1
 77
     6
 78
     2
 67
     7
 79
     5
170
     0
171
     0
290
     0
174
     0
 93
        1
 44
0.0
173
     0
291
     1
 45
0.0
1001
ACAD
1000
AcDbSavedByObjectVersion
1070
     0
  0
VISUALSTYLE
  5
33
102
{ACAD_REACTORS
330
2A
102
}
330
2A
100
AcDbVisualStyle
  2
Realistic
 70
     8
 71
     2
 72
     2
 73
     0
 90
        0
 40
-0.6
 41
-30.0
 62
     5
 63
     7
 74
     1
 91
        0
 64
     7
 65
   257
 75
     1
175
     1
 42
1.0
 92
        8
 66
     8
 43
1.0
 76
     1
 77
     6
 78
     2
 67
     7
 79
     5
170
     0
171
     0
290
     0
174
     0
 93
       13
 44
0.0
173
     0
291
     0
 45
0.0
1001
ACAD
1000
AcDbSavedByObjectVersion
1070
     0
  0
VISUALSTYLE
  5
37
102
{ACAD_REACTORS
330
2A
102
}
330
2A
100
AcDbVisualStyle
  2
Thicken
 70
    13
 71
     2
 72
     2
 73
     0
 90
        0
 40
-0.6
 41
-30.0
 62
     5
 63
     7
 74
     1
 91
        4
 64
     7
 65
   257
 75
     1
175
     1
 42
1.0
 92
       12
 66
     7
 43
1.0
 76
     1
 77
     6
 78
     2
 67
     7
 79
     5
170
     0
171
     0
290
     0
174
     0
 93
        1
 44
0.0
173
     0
291
     1
 45
0.0
1001
ACAD
1000
AcDbSavedByObjectVersion
1070
     0
  0
DICTIONARYVAR
  5
135
102
{ACAD_REACTORS
330
132
102
}
330
132
100
DictionaryVariables
280
     0
  1
1:1
  0
ENDSEC
  0
EOF
