  0
SECTION
  2
HEADER
  9
$ACADVER
  1
AC1015
  9
$ACADMAINTVER
 70
     6
  9
$DWGCODEPAGE
  3
ANSI_1252
  9
$INSBASE
 10
0.0
 20
0.0
 30
0.0
  9
$EXTMIN
 10
1.000000000000000E+20
 20
1.000000000000000E+20
 30
1.000000000000000E+20
  9
$EXTMAX
 10
-1.000000000000000E+20
 20
-1.000000000000000E+20
 30
-1.000000000000000E+20
  9
$LIMMIN
 10
0.0
 20
0.0
  9
$LIMMAX
 10
12.0
 20
9.0
  9
$ORTHOMODE
 70
     0
  9
$REGENMODE
 70
     1
  9
$FILLMODE
 70
     1
  9
$QTEXTMODE
 70
     0
  9
$MIRRTEXT
 70
     1
  9
$LTSCALE
 40
2.0
  9
$ATTMODE
 70
     1
  9
$TEXTSIZE
 40
0.2
  9
$TRACEWID
 40
0.05
  9
$TEXTSTYLE
  7
Standard
  9
$CLAYER
  8
0
  9
$CELTYPE
  6
ByLayer
  9
$CECOLOR
 62
   256
  9
$CELTSCALE
 40
1.0
  9
$DISPSILH
 70
     0
  9
$DIMSCALE
 40
1.0
  9
$DIMASZ
 40
0.18
  9
$DIMEXO
 40
0.0625
  9
$DIMDLI
 40
0.38
  9
$DIMRND
 40
0.0
  9
$DIMDLE
 40
0.0
  9
$DIMEXE
 40
0.18
  9
$DIMTP
 40
0.0
  9
$DIMTM
 40
0.0
  9
$DIMTXT
 40
0.18
  9
$DIMCEN
 40
0.09
  9
$DIMTSZ
 40
0.0
  9
$DIMTOL
 70
     0
  9
$DIMLIM
 70
     0
  9
$DIMTIH
 70
     1
  9
$DIMTOH
 70
     1
  9
$DIMSE1
 70
     0
  9
$DIMSE2
 70
     0
  9
$DIMTAD
 70
     0
  9
$DIMZIN
 70
     0
  9
$DIMBLK
  1

  9
$DIMASO
 70
     1
  9
$DIMSHO
 70
     1
  9
$DIMPOST
  1

  9
$DIMAPOST
  1

  9
$DIMALT
 70
     0
  9
$DIMALTD
 70
     2
  9
$DIMALTF
 40
25.4
  9
$DIMLFAC
 40
1.0
  9
$DIMTOFL
 70
     0
  9
$DIMTVP
 40
0.0
  9
$DIMTIX
 70
     0
  9
$DIMSOXD
 70
     0
  9
$DIMSAH
 70
     0
  9
$DIMBLK1
  1

  9
$DIMBLK2
  1

  9
$DIMSTYLE
  2
Standard
  9
$DIMCLRD
 70
     0
  9
$DIMCLRE
 70
     0
  9
$DIMCLRT
 70
     0
  9
$DIMTFAC
 40
1.0
  9
$DIMGAP
 40
0.09
  9
$DIMJUST
 70
     0
  9
$DIMSD1
 70
     0
  9
$DIMSD2
 70
     0
  9
$DIMTOLJ
 70
     1
  9
$DIMTZIN
 70
     0
  9
$DIMALTZ
 70
     0
  9
$DIMALTTZ
 70
     0
  9
$DIMUPT
 70
     0
  9
$DIMDEC
 70
     4
  9
$DIMTDEC
 70
     4
  9
$DIMALTU
 70
     2
  9
$DIMALTTD
 70
     2
  9
$DIMTXSTY
  7
Standard
  9
$DIMAUNIT
 70
     0
  9
$DIMADEC
 70
     0
  9
$DIMALTRND
 40
0.0
  9
$DIMAZIN
 70
     0
  9
$DIMDSEP
 70
    46
  9
$DIMATFIT
 70
     3
  9
$DIMFRAC
 70
     0
  9
$DIMLDRBLK
  1

  9
$DIMLUNIT
 70
     2
  9
$DIMLWD
 70
    -2
  9
$DIMLWE
 70
    -2
  9
$DIMTMOVE
 70
     0
  9
$LUNITS
 70
     2
  9
$LUPREC
 70
     3
  9
$SKETCHINC
 40
0.1
  9
$FILLETRAD
 40
0.5
  9
$AUNITS
 70
     0
  9
$AUPREC
 70
     0
  9
$MENU
  1
.
  9
$ELEVATION
 40
0.0
  9
$PELEVATION
 40
0.0
  9
$THICKNESS
 40
0.0
  9
$LIMCHECK
 70
     0
  9
$CHAMFERA
 40
0.5
  9
$CHAMFERB
 40
0.5
  9
$CHAMFERC
 40
1.0
  9
$CHAMFERD
 40
0.0
  9
$SKPOLY
 70
     0
  9
$TDCREATE
 40
2455082.446418541
  9
$TDUCREATE
 40
2455082.738085208
  9
$TDUPDATE
 40
2455082.446418553
  9
$TDUUPDATE
 40
2455082.73808522
  9
$TDINDWG
 40
0.0000000116
  9
$TDUSRTIMER
 40
0.0000000116
  9
$USRTIMER
 70
     1
  9
$ANGBASE
 50
0.0
  9
$ANGDIR
 70
     0
  9
$PDMODE
 70
     2
  9
$PDSIZE
 40
-2.0
  9
$PLINEWID
 40
0.0
  9
$SPLFRAME
 70
     0
  9
$SPLINETYPE
 70
     6
  9
$SPLINESEGS
 70
     8
  9
$HANDSEED
  5
ED
  9
$SURFTAB1
 70
     6
  9
$SURFTAB2
 70
     6
  9
$SURFTYPE
 70
     6
  9
$SURFU
 70
     6
  9
$SURFV
 70
     6
  9
$UCSBASE
  2

  9
$UCSNAME
  2

  9
$UCSORG
 10
0.0
 20
0.0
 30
0.0
  9
$UCSXDIR
 10
1.0
 20
0.0
 30
0.0
  9
$UCSYDIR
 10
0.0
 20
1.0
 30
0.0
  9
$UCSORTHOREF
  2

  9
$UCSORTHOVIEW
 70
     0
  9
$UCSORGTOP
 10
0.0
 20
0.0
 30
0.0
  9
$UCSORGBOTTOM
 10
0.0
 20
0.0
 30
0.0
  9
$UCSORGLEFT
 10
0.0
 20
0.0
 30
0.0
  9
$UCSORGRIGHT
 10
0.0
 20
0.0
 30
0.0
  9
$UCSORGFRONT
 10
0.0
 20
0.0
 30
0.0
  9
$UCSORGBACK
 10
0.0
 20
0.0
 30
0.0
  9
$PUCSBASE
  2

  9
$PUCSNAME
  2

  9
$PUCSORG
 10
0.0
 20
0.0
 30
0.0
  9
$PUCSXDIR
 10
1.0
 20
0.0
 30
0.0
  9
$PUCSYDIR
 10
0.0
 20
1.0
 30
0.0
  9
$PUCSORTHOREF
  2

  9
$PUCSORTHOVIEW
 70
     0
  9
$PUCSORGTOP
 10
0.0
 20
0.0
 30
0.0
  9
$PUCSORGBOTTOM
 10
0.0
 20
0.0
 30
0.0
  9
$PUCSORGLEFT
 10
0.0
 20
0.0
 30
0.0
  9
$PUCSORGRIGHT
 10
0.0
 20
0.0
 30
0.0
  9
$PUCSORGFRONT
 10
0.0
 20
0.0
 30
0.0
  9
$PUCSORGBACK
 10
0.0
 20
0.0
 30
0.0
  9
$USERI1
 70
     0
  9
$USERI2
 70
     0
  9
$USERI3
 70
     0
  9
$USERI4
 70
     0
  9
$USERI5
 70
     0
  9
$USERR1
 40
0.0
  9
$USERR2
 40
0.0
  9
$USERR3
 40
0.0
  9
$USERR4
 40
0.0
  9
$USERR5
 40
0.0
  9
$WORLDVIEW
 70
     1
  9
$SHADEDGE
 70
     3
  9
$SHADEDIF
 70
    70
  9
$TILEMODE
 70
     1
  9
$MAXACTVP
 70
    64
  9
$PINSBASE
 10
0.0
 20
0.0
 30
0.0
  9
$PLIMCHECK
 70
     0
  9
$PEXTMIN
 10
1.000000000000000E+20
 20
1.000000000000000E+20
 30
1.000000000000000E+20
  9
$PEXTMAX
 10
-1.000000000000000E+20
 20
-1.000000000000000E+20
 30
-1.000000000000000E+20
  9
$PLIMMIN
 10
0.0
 20
0.0
  9
$PLIMMAX
 10
12.0
 20
9.0
  9
$UNITMODE
 70
     0
  9
$VISRETAIN
 70
     1
  9
$PLINEGEN
 70
     0
  9
$PSLTSCALE
 70
     1
  9
$TREEDEPTH
 70
  3020
  9
$CMLSTYLE
  2
Standard
  9
$CMLJUST
 70
     0
  9
$CMLSCALE
 40
1.0
  9
$PROXYGRAPHICS
 70
     1
  9
$MEASUREMENT
 70
     0
  9
$CELWEIGHT
370
    -1
  9
$ENDCAPS
280
     0
  9
$JOINSTYLE
280
     0
  9
$LWDISPLAY
290
     1
  9
$INSUNITS
 70
     1
  9
$HYPERLINKBASE
  1

  9
$STYLESHEET
  1

  9
$XEDIT
290
     1
  9
$CEPSNTYPE
380
     0
  9
$PSTYLEMODE
290
     1
  9
$FINGERPRINTGUID
  2
{B5B3DFA9-EF2B-492B-BE98-23057B034EDC}
  9
$VERSIONGUID
  2
{FAEB1C32-E019-11D5-929B-00C0DF256EC4}
  9
$EXTNAMES
290
     1
  9
$PSVPSCALE
 40
0.0
  9
$OLESTARTUP
290
     0
  0
ENDSEC
  0
SECTION
  2
CLASSES
  0
CLASS
  1
ACDBDICTIONARYWDFLT
  2
AcDbDictionaryWithDefault
  3
ObjectDBX Classes
 90
        0
280
     0
281
     0
  0
CLASS
  1
VISUALSTYLE
  2
AcDbVisualStyle
  3
ObjectDBX Classes
 90
     4095
280
     0
281
     0
  0
CLASS
  1
SCALE
  2
AcDbScale
  3
ObjectDBX Classes
 90
     1153
280
     0
281
     0
  0
CLASS
  1
DICTIONARYVAR
  2
AcDbDictionaryVar
  3
ObjectDBX Classes
 90
        0
280
     0
281
     0
  0
CLASS
  1
ACDBPLACEHOLDER
  2
AcDbPlaceHolder
  3
ObjectDBX Classes
 90
        0
280
     0
281
     0
  0
CLASS
  1
LAYOUT
  2
AcDbLayout
  3
ObjectDBX Classes
 90
        0
280
     0
281
     0
  0
ENDSEC
  0
SECTION
  2
TABLES
  0
TABLE
  2
VPORT
  5
8
330
0
100
AcDbSymbolTable
 70
     1
  0
VPORT
  5
29
330
8
100
AcDbSymbolTableRecord
100
AcDbViewportTableRecord
  2
*Active
 70
     0
 10
0.0
 20
0.0
 11
1.0
 21
1.0
 12
30.03653002647555
 22
21.91084292493589
 13
0.0
 23
0.0
 14
0.5
 24
0.5
 15
0.5
 25
0.5
 16
0.0
 26
0.0
 36
1.0
 17
0.0
 27
0.0
 37
0.0
 40
12.60062492178828
 41
1.288476646401353
 42
50.0
 43
0.0
 44
0.0
 50
0.0
 51
0.0
 71
     0
 72
   100
 73
     1
 74
     3
 75
     0
 76
     0
 77
     0
 78
     0
281
     0
 65
     1
110
0.0
120
0.0
130
0.0
111
1.0
121
0.0
131
0.0
112
0.0
122
1.0
132
0.0
 79
     0
146
0.0
  0
ENDTAB
  0
TABLE
  2
LTYPE
  5
5
330
0
100
AcDbSymbolTable
 70
     2
  0
LTYPE
  5
14
330
5
100
AcDbSymbolTableRecord
100
AcDbLinetypeTableRecord
  2
ByBlock
 70
     0
  3

 72
    65
 73
     0
 40
0.0
  0
LTYPE
  5
15
330
5
100
AcDbSymbolTableRecord
100
AcDbLinetypeTableRecord
  2
ByLayer
 70
     0
  3

 72
    65
 73
     0
 40
0.0
  0
LTYPE
  5
16
330
5
100
AcDbSymbolTableRecord
100
AcDbLinetypeTableRecord
  2
Continuous
 70
     0
  3
Solid line
 72
    65
 73
     0
 40
0.0
  0
LTYPE
  5
60
330
5
100
AcDbSymbolTableRecord
100
AcDbLinetypeTableRecord
  2
CENTERD
 70
     0
  3
_____ _ _____ _____ _ _____.
 72
    65
 73
     4
 40
0.4844
 49
0.2969
 74
     0
 49
-0.0625
 74
     0
 49
0.0625
 74
     0
 49
-0.0625
 74
     0
  0
ENDTAB
  0
TABLE
  2
LAYER
  5
2
330
0
100
AcDbSymbolTable
 70
     4
  0
LAYER
  5
10
330
2
100
AcDbSymbolTableRecord
100
AcDbLayerTableRecord
  2
0
 70
     0
 62
     7
  6
Continuous
370
    -3
390
F
  0
LAYER
  5
3C
330
2
100
AcDbSymbolTableRecord
100
AcDbLayerTableRecord
  2
SPACER RING
 70
     0
 62
     7
  6
Continuous
370
    -3
390
F
  0
LAYER
  5
5F
330
2
100
AcDbSymbolTableRecord
100
AcDbLayerTableRecord
  2
CONTERLINES
 70
     0
 62
     7
  6
Continuous
370
    -3
390
F
  0
LAYER
  5
63
330
2
100
AcDbSymbolTableRecord
100
AcDbLayerTableRecord
  2
DIMENSIONS
 70
     0
 62
     7
  6
Continuous
370
    -3
390
F
  0
ENDTAB
  0
TABLE
  2
STYLE
  5
3
330
0
100
AcDbSymbolTable
 70
     3
  0
STYLE
  5
11
330
3
100
AcDbSymbolTableRecord
100
AcDbTextStyleTableRecord
  2
Standard
 70
     0
 40
0.0
 41
1.0
 50
0.0
 71
     0
 42
0.2
  3
txt
  4

  0
STYLE
  5
67
330
3
100
AcDbSymbolTableRecord
100
AcDbTextStyleTableRecord
  2
MAIN
 70
     0
 40
0.2
 41
1.0
 50
0.0
 71
     0
 42
0.2
  3
MAIN.SHX
  4

1001
ACAD
1000
MAIN
1071
       34
  0
STYLE
  5
A8
330
3
100
AcDbSymbolTableRecord
100
AcDbTextStyleTableRecord
  2
ENGINEER
 70
     0
 40
0.2
 41
1.0
 50
0.0
 71
     0
 42
0.2
  3
ENGINEER.SHX
  4

1001
ACAD
1000
ENGINEER
1071
       34
  0
ENDTAB
  0
TABLE
  2
VIEW
  5
6
330
0
100
AcDbSymbolTable
 70
     0
  0
ENDTAB
  0
TABLE
  2
UCS
  5
7
330
0
100
AcDbSymbolTable
 70
     0
  0
ENDTAB
  0
TABLE
  2
APPID
  5
9
330
0
100
AcDbSymbolTable
 70
     1
  0
APPID
  5
12
330
9
100
AcDbSymbolTableRecord
100
AcDbRegAppTableRecord
  2
ACAD
 70
     0
  0
ENDTAB
  0
TABLE
  2
DIMSTYLE
  5
A
330
0
100
AcDbSymbolTable
 70
     1
100
AcDbDimStyleTable
  0
DIMSTYLE
105
27
330
A
100
AcDbSymbolTableRecord
100
AcDbDimStyleTableRecord
  2
Standard
 70
     0
340
11
  0
ENDTAB
  0
TABLE
  2
BLOCK_RECORD
  5
1
330
0
100
AcDbSymbolTable
 70
     1
  0
BLOCK_RECORD
  5
1F
330
1
100
AcDbSymbolTableRecord
100
AcDbBlockTableRecord
  2
*Model_Space
340
22
  0
BLOCK_RECORD
  5
1B
330
1
100
AcDbSymbolTableRecord
100
AcDbBlockTableRecord
  2
*Paper_Space
340
1E
  0
BLOCK_RECORD
  5
23
330
1
100
AcDbSymbolTableRecord
100
AcDbBlockTableRecord
  2
*Paper_Space0
340
26
  0
ENDTAB
  0
ENDSEC
  0
SECTION
  2
BLOCKS
  0
BLOCK
  5
20
330
1F
100
AcDbEntity
  8
0
100
AcDbBlockBegin
  2
*Model_Space
 70
     0
 10
0.0
 20
0.0
 30
0.0
  3
*Model_Space
  1

  0
ENDBLK
  5
21
330
1F
100
AcDbEntity
  8
0
100
AcDbBlockEnd
  0
BLOCK
  5
1C
330
1B
100
AcDbEntity
 67
     1
  8
0
100
AcDbBlockBegin
  2
*Paper_Space
 70
     0
 10
0.0
 20
0.0
 30
0.0
  3
*Paper_Space
  1

  0
ENDBLK
  5
1D
330
1B
100
AcDbEntity
 67
     1
  8
0
100
AcDbBlockEnd
  0
BLOCK
  5
24
330
23
100
AcDbEntity
  8
0
100
AcDbBlockBegin
  2
*Paper_Space0
 70
     0
 10
0.0
 20
0.0
 30
0.0
  3
*Paper_Space0
  1

  0
ENDBLK
  5
25
330
23
100
AcDbEntity
  8
0
100
AcDbBlockEnd
  0
ENDSEC
  0
SECTION
  2
ENTITIES
  0
LINE
  5
3B
330
1F
100
AcDbEntity
  8
SPACER RING
  6
Continuous
 62
    93
370
     0
100
AcDbLine
 10
22.15830635118306
 20
22.36406600249066
 30
0.0
 11
22.15830635118306
 21
22.12906600249066
 31
0.0
  0
LINE
  5
3D
330
1F
100
AcDbEntity
  8
SPACER RING
  6
Continuous
 62
    93
370
     0
100
AcDbLine
 10
22.17830635118307
 20
22.10906600249065
 30
0.0
 11
22.15830635118306
 21
22.12906600249066
 31
0.0
  0
LINE
  5
3E
330
1F
100
AcDbEntity
  8
SPACER RING
  6
Continuous
 62
    93
370
     0
100
AcDbLine
 10
22.15830635118306
 20
22.12906600249066
 30
0.0
 11
22.15830635118306
 21
19.04906600249066
 31
0.0
  0
LINE
  5
3F
330
1F
100
AcDbEntity
  8
SPACER RING
  6
Continuous
 62
    93
370
     0
100
AcDbLine
 10
22.15830635118306
 20
15.73406600249066
 30
0.0
 11
22.15830635118306
 21
15.96906600249066
 31
0.0
  0
LINE
  5
40
330
1F
100
AcDbEntity
  8
SPACER RING
  6
Continuous
 62
    93
370
     0
100
AcDbLine
 10
22.17830635118306
 20
15.98906600249066
 30
0.0
 11
22.15830635118306
 21
15.96906600249066
 31
0.0
  0
LINE
  5
41
330
1F
100
AcDbEntity
  8
SPACER RING
  6
Continuous
 62
    93
370
     0
100
AcDbLine
 10
22.15830635118306
 20
15.96906600249066
 30
0.0
 11
22.15830635118306
 21
19.04906600249066
 31
0.0
  0
LINE
  5
42
330
1F
100
AcDbEntity
  8
SPACER RING
  6
Continuous
 62
    93
370
     0
100
AcDbLine
 10
22.15830635118306
 20
22.36406600249066
 30
0.0
 11
24.07320635118306
 21
22.36406600249066
 31
0.0
  0
LINE
  5
43
330
1F
100
AcDbEntity
  8
SPACER RING
  6
Continuous
 62
    93
370
     0
100
AcDbLine
 10
24.07320635118306
 20
22.36406600249066
 30
0.0
 11
24.07320635118306
 21
22.12906600249066
 31
0.0
  0
LINE
  5
44
330
1F
100
AcDbEntity
  8
SPACER RING
  6
Continuous
 62
    93
370
     0
100
AcDbLine
 10
24.05320635118307
 20
22.10906600249065
 30
0.0
 11
24.07320635118306
 21
22.12906600249066
 31
0.0
  0
LINE
  5
45
330
1F
100
AcDbEntity
  8
SPACER RING
  6
Continuous
 62
    93
370
     0
100
AcDbLine
 10
24.07320635118306
 20
22.12906600249066
 30
0.0
 11
24.07320635118306
 21
19.04906600249066
 31
0.0
  0
LINE
  5
46
330
1F
100
AcDbEntity
  8
SPACER RING
  6
Continuous
 62
    93
370
     0
100
AcDbLine
 10
22.15830635118306
 20
15.73406600249066
 30
0.0
 11
24.07320635118306
 21
15.73406600249066
 31
0.0
  0
LINE
  5
47
330
1F
100
AcDbEntity
  8
SPACER RING
  6
Continuous
 62
    93
370
     0
100
AcDbLine
 10
24.07320635118306
 20
15.73406600249066
 30
0.0
 11
24.07320635118306
 21
15.96906600249066
 31
0.0
  0
LINE
  5
48
330
1F
100
AcDbEntity
  8
SPACER RING
  6
Continuous
 62
    93
370
     0
100
AcDbLine
 10
24.05320635118307
 20
15.98906600249066
 30
0.0
 11
24.07320635118306
 21
15.96906600249066
 31
0.0
  0
LINE
  5
49
330
1F
100
AcDbEntity
  8
SPACER RING
  6
Continuous
 62
    93
370
     0
100
AcDbLine
 10
24.07320635118306
 20
15.96906600249066
 30
0.0
 11
24.07320635118306
 21
19.04906600249066
 31
0.0
  0
LINE
  5
4A
330
1F
100
AcDbEntity
  8
SPACER RING
  6
Continuous
 62
    93
370
     0
100
AcDbLine
 10
22.45830635118307
 20
22.07906600249066
 30
0.0
 11
22.45830635118307
 21
22.10906600249065
 31
0.0
  0
LINE
  5
4B
330
1F
100
AcDbEntity
  8
SPACER RING
  6
Continuous
 62
    93
370
     0
100
AcDbLine
 10
22.45830635118307
 20
22.10906600249065
 30
0.0
 11
22.17830635118307
 21
22.10906600249065
 31
0.0
  0
LINE
  5
4C
330
1F
100
AcDbEntity
  8
SPACER RING
  6
Continuous
 62
    93
370
     0
100
AcDbLine
 10
23.77320635118307
 20
22.07906600249066
 30
0.0
 11
23.77320635118307
 21
22.10906600249065
 31
0.0
  0
LINE
  5
4D
330
1F
100
AcDbEntity
  8
SPACER RING
  6
Continuous
 62
    93
370
     0
100
AcDbLine
 10
23.77320635118307
 20
22.10906600249065
 30
0.0
 11
24.05320635118307
 21
22.10906600249065
 31
0.0
  0
LINE
  5
4E
330
1F
100
AcDbEntity
  8
SPACER RING
  6
Continuous
 62
    93
370
     0
100
AcDbLine
 10
22.45830635118307
 20
22.07906600249066
 30
0.0
 11
23.77320635118307
 21
22.07906600249066
 31
0.0
  0
LINE
  5
4F
330
1F
100
AcDbEntity
  8
SPACER RING
  6
Continuous
 62
    93
370
     0
100
AcDbLine
 10
22.45830635118307
 20
16.01906600249066
 30
0.0
 11
22.45830635118307
 21
15.98906600249066
 31
0.0
  0
LINE
  5
50
330
1F
100
AcDbEntity
  8
SPACER RING
  6
Continuous
 62
    93
370
     0
100
AcDbLine
 10
22.45830635118307
 20
15.98906600249066
 30
0.0
 11
22.17830635118306
 21
15.98906600249066
 31
0.0
  0
LINE
  5
51
330
1F
100
AcDbEntity
  8
SPACER RING
  6
Continuous
 62
    93
370
     0
100
AcDbLine
 10
23.77320635118307
 20
16.01906600249066
 30
0.0
 11
23.77320635118307
 21
15.98906600249066
 31
0.0
  0
LINE
  5
52
330
1F
100
AcDbEntity
  8
SPACER RING
  6
Continuous
 62
    93
370
     0
100
AcDbLine
 10
23.77320635118307
 20
15.98906600249066
 30
0.0
 11
24.05320635118307
 21
15.98906600249066
 31
0.0
  0
LINE
  5
53
330
1F
100
AcDbEntity
  8
SPACER RING
  6
Continuous
 62
    93
370
     0
100
AcDbLine
 10
22.45830635118307
 20
16.01906600249066
 30
0.0
 11
23.77320635118307
 21
16.01906600249066
 31
0.0
  0
LINE
  5
54
330
1F
100
AcDbEntity
  8
SPACER RING
  6
Continuous
 62
    93
370
     0
100
AcDbLine
 10
37.15952117122464
 20
22.36406600249066
 30
0.0
 11
37.15952117122464
 21
22.12906600249066
 31
0.0
  0
LINE
  5
55
330
1F
100
AcDbEntity
  8
SPACER RING
  6
Continuous
 62
    93
370
     0
100
AcDbLine
 10
37.15952117122464
 20
22.12906600249066
 30
0.0
 11
37.15952117122464
 21
19.04906600249066
 31
0.0
  0
LINE
  5
56
330
1F
100
AcDbEntity
  8
SPACER RING
  6
Continuous
 62
    93
370
     0
100
AcDbLine
 10
37.15952117122464
 20
15.73406600249066
 30
0.0
 11
37.15952117122464
 21
15.96906600249066
 31
0.0
  0
LINE
  5
57
330
1F
100
AcDbEntity
  8
SPACER RING
  6
Continuous
 62
    93
370
     0
100
AcDbLine
 10
37.15952117122464
 20
15.96906600249066
 30
0.0
 11
37.15952117122464
 21
19.04906600249066
 31
0.0
  0
LINE
  5
58
330
1F
100
AcDbEntity
  8
SPACER RING
  6
Continuous
 62
    93
370
     0
100
AcDbLine
 10
37.15952117122464
 20
22.36406600249066
 30
0.0
 11
35.24462117122464
 21
22.36406600249066
 31
0.0
  0
LINE
  5
59
330
1F
100
AcDbEntity
  8
SPACER RING
  6
Continuous
 62
    93
370
     0
100
AcDbLine
 10
35.24462117122464
 20
22.36406600249066
 30
0.0
 11
35.24462117122464
 21
22.12906600249066
 31
0.0
  0
LINE
  5
5A
330
1F
100
AcDbEntity
  8
SPACER RING
  6
Continuous
 62
    93
370
     0
100
AcDbLine
 10
35.24462117122464
 20
22.12906600249066
 30
0.0
 11
35.24462117122464
 21
19.04906600249066
 31
0.0
  0
LINE
  5
5B
330
1F
100
AcDbEntity
  8
SPACER RING
  6
Continuous
 62
    93
370
     0
100
AcDbLine
 10
37.15952117122464
 20
15.73406600249066
 30
0.0
 11
35.24462117122464
 21
15.73406600249066
 31
0.0
  0
LINE
  5
5C
330
1F
100
AcDbEntity
  8
SPACER RING
  6
Continuous
 62
    93
370
     0
100
AcDbLine
 10
35.24462117122464
 20
15.73406600249066
 30
0.0
 11
35.24462117122464
 21
15.96906600249066
 31
0.0
  0
LINE
  5
5D
330
1F
100
AcDbEntity
  8
SPACER RING
  6
Continuous
 62
    93
370
     0
100
AcDbLine
 10
35.24462117122464
 20
15.96906600249066
 30
0.0
 11
35.24462117122464
 21
19.04906600249066
 31
0.0
  0
LINE
  5
5E
330
1F
100
AcDbEntity
  8
CONTERLINES
  6
CENTERD
 62
     9
 48
0.2393624999999999
370
     0
100
AcDbLine
 10
24.07320635118306
 20
19.04906600249066
 30
0.0
 11
22.15830635118306
 21
19.04906600249066
 31
0.0
  0
LINE
  5
61
330
1F
100
AcDbEntity
  8
CONTERLINES
  6
CENTERD
 62
     9
 48
0.2393624999999995
370
     0
100
AcDbLine
 10
35.24462117122464
 20
19.04906600249066
 30
0.0
 11
37.15952117122464
 21
19.04906600249066
 31
0.0
  0
LINE
  5
62
330
1F
100
AcDbEntity
  8
DIMENSIONS
  6
Continuous
 62
     1
370
     0
100
AcDbLine
 10
35.81496565073705
 20
19.7408399436767
 30
0.0
 11
34.97855767151123
 21
20.34305368871929
 31
0.0
  0
LINE
  5
64
330
1F
100
AcDbEntity
  8
DIMENSIONS
  6
Continuous
 62
     1
370
     0
100
AcDbLine
 10
35.81496565073705
 20
19.7408399436767
 30
0.0
 11
35.62794341663293
 21
19.81171084003552
 31
0.0
  0
LINE
  5
65
330
1F
100
AcDbEntity
  8
DIMENSIONS
  6
Continuous
 62
     1
370
     0
100
AcDbLine
 10
35.81496565073705
 20
19.7408399436767
 30
0.0
 11
35.68843509310977
 21
19.89572705736447
 31
0.0
  0
LINE
  5
66
330
1F
100
AcDbEntity
  8
DIMENSIONS
  6
Continuous
 62
     1
370
     0
100
AcDbLine
 10
34.97855767151123
 20
20.34305368871929
 30
0.0
 11
34.77855767151123
 21
20.34305368871929
 31
0.0
  0
TEXT
  5
8A
330
1F
100
AcDbEntity
  8
DIMENSIONS
  6
Continuous
 62
     1
370
     0
100
AcDbText
 10
33.89105752846008
 20
20.26805368871929
 30
0.0
 40
0.15
  1
NOTE C
  7
MAIN
100
AcDbText
  0
LINE
  5
8B
330
1F
100
AcDbEntity
  8
DIMENSIONS
  6
CENTERD
 62
     9
 48
0.0595395590863221
370
     0
100
AcDbLine
 10
36.91827166458186
 20
19.6780479716736
 30
0.0
 11
36.91827166458186
 21
19.20173149898302
 31
0.0
  0
LINE
  5
8C
330
1F
100
AcDbEntity
  8
DIMENSIONS
  6
CENTERD
 62
     9
 48
0.1790501233393025
370
     0
100
AcDbLine
 10
36.91827166458186
 20
19.20173149898302
 30
0.0
 11
35.48587067786744
 21
19.20173149898302
 31
0.0
  0
LINE
  5
8D
330
1F
100
AcDbEntity
  8
DIMENSIONS
  6
CENTERD
 62
     9
 48
0.0586766669256509
370
     0
100
AcDbLine
 10
35.48587067786744
 20
19.20173149898302
 30
0.0
 11
35.48587067786744
 21
19.67114483438823
 31
0.0
  0
LINE
  5
8E
330
1F
100
AcDbEntity
  8
DIMENSIONS
  6
CENTERD
 62
     9
 48
0.1790501233393025
370
     0
100
AcDbLine
 10
35.48587067786744
 20
19.67114483438823
 30
0.0
 11
36.91827166458186
 21
19.67114483438823
 31
0.0
  0
LINE
  5
8F
330
1F
100
AcDbEntity
  8
DIMENSIONS
  6
Continuous
 62
     1
370
     0
100
AcDbLine
 10
25.15095765463949
 20
15.98906600249066
 30
0.0
 11
25.09919384561898
 21
16.18225116774847
 31
0.0
  0
LINE
  5
90
330
1F
100
AcDbEntity
  8
DIMENSIONS
  6
Continuous
 62
     1
370
     0
100
AcDbLine
 10
25.15095765463949
 20
15.98906600249066
 30
0.0
 11
25.20272146365999
 21
16.18225116774847
 31
0.0
  0
LINE
  5
91
330
1F
100
AcDbEntity
  8
DIMENSIONS
  6
Continuous
 62
     1
370
     0
100
AcDbLine
 10
25.15095765463949
 20
22.10906600249065
 30
0.0
 11
25.20272146365999
 21
21.91588083723284
 31
0.0
  0
LINE
  5
92
330
1F
100
AcDbEntity
  8
DIMENSIONS
  6
Continuous
 62
     1
370
     0
100
AcDbLine
 10
25.15095765463949
 20
22.10906600249065
 30
0.0
 11
25.09919384561898
 21
21.91588083723284
 31
0.0
  0
LINE
  5
93
330
1F
100
AcDbEntity
  8
DIMENSIONS
  6
Continuous
 62
     1
370
     0
100
AcDbLine
 10
24.12320635118307
 20
15.98906600249066
 30
0.0
 11
25.20095765463949
 21
15.98906600249066
 31
0.0
  0
LINE
  5
94
330
1F
100
AcDbEntity
  8
DIMENSIONS
  6
Continuous
 62
     1
370
     0
100
AcDbLine
 10
24.12320635118307
 20
22.10906600249065
 30
0.0
 11
25.20095765463949
 21
22.10906600249065
 31
0.0
  0
TEXT
  5
95
330
1F
100
AcDbEntity
  8
DIMENSIONS
  6
Continuous
 62
     1
370
     0
100
AcDbText
 10
24.5153318964684
 20
18.97406600249066
 30
0.0
 40
0.15
  1
2X 6.119
  7
MAIN
100
AcDbText
  0
TEXT
  5
96
330
1F
100
AcDbEntity
  8
DIMENSIONS
  6
Continuous
 62
     1
370
     0
100
AcDbText
 10
25.28970772616506
 20
19.09906600249066
 30
0.0
 40
0.15
  1
+.000
  7
MAIN
100
AcDbText
  0
TEXT
  5
97
330
1F
100
AcDbEntity
  8
DIMENSIONS
  6
Continuous
 62
     1
370
     0
100
AcDbText
 10
25.28970786921621
 20
18.84906600249066
 30
0.0
 40
0.15
  1
-.002
  7
MAIN
100
AcDbText
  0
LINE
  5
98
330
1F
100
AcDbEntity
  8
DIMENSIONS
  6
Continuous
 62
     1
370
     0
100
AcDbLine
 10
25.15095765463949
 20
15.98906600249066
 30
0.0
 11
25.15095765463949
 21
18.69906600249065
 31
0.0
  0
LINE
  5
99
330
1F
100
AcDbEntity
  8
DIMENSIONS
  6
Continuous
 62
     1
370
     0
100
AcDbLine
 10
25.15095765463949
 20
19.39906600249065
 30
0.0
 11
25.15095765463949
 21
22.10906600249065
 31
0.0
  0
LINE
  5
9A
330
1F
100
AcDbEntity
  8
DIMENSIONS
  6
Continuous
 62
     1
370
     0
100
AcDbLine
 10
22.15830635118306
 20
23.24492380871547
 30
0.0
 11
22.35149151644088
 21
23.29668761773597
 31
0.0
  0
LINE
  5
9B
330
1F
100
AcDbEntity
  8
DIMENSIONS
  6
Continuous
 62
     1
370
     0
100
AcDbLine
 10
22.15830635118306
 20
23.24492380871547
 30
0.0
 11
22.35149151644088
 21
23.19315999969497
 31
0.0
  0
LINE
  5
9C
330
1F
100
AcDbEntity
  8
DIMENSIONS
  6
Continuous
 62
     1
370
     0
100
AcDbLine
 10
24.07320635118306
 20
23.24492380871547
 30
0.0
 11
23.88002118592525
 21
23.19315999969497
 31
0.0
  0
LINE
  5
9D
330
1F
100
AcDbEntity
  8
DIMENSIONS
  6
Continuous
 62
     1
370
     0
100
AcDbLine
 10
24.07320635118306
 20
23.24492380871547
 30
0.0
 11
23.88002118592525
 21
23.29668761773597
 31
0.0
  0
LINE
  5
9E
330
1F
100
AcDbEntity
  8
DIMENSIONS
  6
Continuous
 62
     1
370
     0
100
AcDbLine
 10
22.15830635118306
 20
22.43406600249066
 30
0.0
 11
22.15830635118306
 21
23.29492380871547
 31
0.0
  0
LINE
  5
9F
330
1F
100
AcDbEntity
  8
DIMENSIONS
  6
Continuous
 62
     1
370
     0
100
AcDbLine
 10
24.07320635118306
 20
22.43406600249066
 30
0.0
 11
24.07320635118306
 21
23.29492380871547
 31
0.0
  0
TEXT
  5
A0
330
1F
100
AcDbEntity
  8
DIMENSIONS
  6
Continuous
 62
     1
370
     0
100
AcDbText
 10
22.94935002965749
 20
23.18242380871547
 30
0.0
 40
0.125
  1
1.915
  7
MAIN
100
AcDbText
  0
LINE
  5
A1
330
1F
100
AcDbEntity
  8
DIMENSIONS
  6
Continuous
 62
     1
370
     0
100
AcDbLine
 10
22.15830635118306
 20
23.24492380871547
 30
0.0
 11
22.89935002965749
 21
23.24492380871547
 31
0.0
  0
LINE
  5
A2
330
1F
100
AcDbEntity
  8
DIMENSIONS
  6
Continuous
 62
     1
370
     0
100
AcDbLine
 10
23.33216267270864
 20
23.24492380871547
 30
0.0
 11
24.07320635118306
 21
23.24492380871547
 31
0.0
  0
TEXT
  5
A3
330
1F
100
AcDbEntity
  8
DIMENSIONS
  6
Continuous
 62
     7
370
     0
100
AcDbText
 10
23.54132757920454
 20
26.75601801074145
 30
0.0
 40
0.15
  1
DAN SULLIVAN   408 316 9222
  7
MAIN
100
AcDbText
  0
LINE
  5
A4
330
1F
100
AcDbEntity
  8
DIMENSIONS
  6
Continuous
 62
    93
370
     5
100
AcDbLine
 10
23.18858202317328
 20
28.08761984738113
 30
0.0
 11
27.20083961406321
 21
28.08761984738113
 31
0.0
  0
LINE
  5
A5
330
1F
100
AcDbEntity
  8
DIMENSIONS
  6
Continuous
 62
    93
370
     5
100
AcDbLine
 10
27.20083961406321
 20
28.08761984738113
 30
0.0
 11
27.20083961406321
 21
27.07513744267226
 31
0.0
  0
LINE
  5
A6
330
1F
100
AcDbEntity
  8
DIMENSIONS
  6
Continuous
 62
    93
370
     5
100
AcDbLine
 10
27.20083961406321
 20
27.07513744267226
 30
0.0
 11
23.18858202317328
 21
27.07513744267226
 31
0.0
  0
LINE
  5
A7
330
1F
100
AcDbEntity
  8
DIMENSIONS
  6
Continuous
 62
    93
370
     5
100
AcDbLine
 10
23.18858202317328
 20
27.07513744267226
 30
0.0
 11
23.18858202317328
 21
28.08761984738113
 31
0.0
  0
TEXT
  5
A9
330
1F
100
AcDbEntity
  8
DIMENSIONS
  6
Continuous
 62
    93
370
     5
100
AcDbText
 10
23.33792165437312
 20
27.73547987362231
 30
0.0
 40
0.140625
  1
ELECTRO AUTOMOTIVE
  7
ENGINEER
100
AcDbText
  0
TEXT
  5
AA
330
1F
100
AcDbEntity
  8
DIMENSIONS
  6
Continuous
 62
    93
370
     5
100
AcDbText
 10
23.33792165437312
 20
27.52454237362231
 30
0.0
 40
0.140625
  1
P.O. BOX 1113 FELTON CA. 95018-1113
  7
ENGINEER
100
AcDbText
  0
TEXT
  5
AB
330
1F
100
AcDbEntity
  8
DIMENSIONS
  6
Continuous
 62
    93
370
     5
100
AcDbText
 10
23.33792165437312
 20
27.31360487362231
 30
0.0
 40
0.140625
  1
PHONE 831-429-1994 FAX 831-429-1907
  7
ENGINEER
100
AcDbText
  0
LINE
  5
AC
330
1F
100
AcDbEntity
  8
SPACER RING
  6
Continuous
 62
    93
370
     0
100
AcDbLine
 10
22.07789721187405
 20
25.84998896880981
 30
0.0
 11
22.07789721187405
 21
25.37998896880981
 31
0.0
  0
LINE
  5
AD
330
1F
100
AcDbEntity
  8
SPACER RING
  6
Continuous
 62
    93
370
     0
100
AcDbLine
 10
22.11789721187406
 20
25.33998896880979
 30
0.0
 11
22.07789721187405
 21
25.37998896880981
 31
0.0
  0
LINE
  5
AE
330
1F
100
AcDbEntity
  8
SPACER RING
  6
Continuous
 62
    93
370
     0
100
AcDbLine
 10
22.07789721187405
 20
25.84998896880981
 30
0.0
 11
25.90769721187405
 21
25.84998896880981
 31
0.0
  0
LINE
  5
AF
330
1F
100
AcDbEntity
  8
SPACER RING
  6
Continuous
 62
    93
370
     0
100
AcDbLine
 10
25.90769721187405
 20
25.84998896880981
 30
0.0
 11
25.90769721187405
 21
25.37998896880981
 31
0.0
  0
LINE
  5
B0
330
1F
100
AcDbEntity
  8
SPACER RING
  6
Continuous
 62
    93
370
     0
100
AcDbLine
 10
25.86769721187406
 20
25.33998896880979
 30
0.0
 11
25.90769721187405
 21
25.37998896880981
 31
0.0
  0
LINE
  5
B1
330
1F
100
AcDbEntity
  8
SPACER RING
  6
Continuous
 62
    93
370
     0
100
AcDbLine
 10
22.67789721187405
 20
25.27998896880981
 30
0.0
 11
22.67789721187405
 21
25.33998896880979
 31
0.0
  0
LINE
  5
B2
330
1F
100
AcDbEntity
  8
SPACER RING
  6
Continuous
 62
    93
370
     0
100
AcDbLine
 10
22.67789721187405
 20
25.33998896880979
 30
0.0
 11
22.11789721187406
 21
25.33998896880979
 31
0.0
  0
LINE
  5
B3
330
1F
100
AcDbEntity
  8
SPACER RING
  6
Continuous
 62
    93
370
     0
100
AcDbLine
 10
25.30769721187405
 20
25.27998896880981
 30
0.0
 11
25.30769721187405
 21
25.33998896880979
 31
0.0
  0
LINE
  5
B4
330
1F
100
AcDbEntity
  8
SPACER RING
  6
Continuous
 62
    93
370
     0
100
AcDbLine
 10
25.30769721187405
 20
25.33998896880979
 30
0.0
 11
25.86769721187406
 21
25.33998896880979
 31
0.0
  0
LINE
  5
B5
330
1F
100
AcDbEntity
  8
SPACER RING
  6
Continuous
 62
    93
370
     0
100
AcDbLine
 10
22.67789721187405
 20
25.27998896880981
 30
0.0
 11
25.30769721187405
 21
25.27998896880981
 31
0.0
  0
HATCH
  5
B6
330
1F
100
AcDbEntity
  8
SPACER RING
  6
Continuous
 62
    93
370
     0
100
AcDbHatch
 10
0.0
 20
0.0
 30
0.0
210
0.0
220
0.0
230
1.0
  2
ANSI31
 70
     0
 71
     0
 91
        1
 92
        3
 72
     0
 73
     1
 93
       10
 10
22.07789721187405
 20
25.84998896880981
 10
22.07789721187405
 20
25.37998896880981
 10
22.11789721187406
 20
25.33998896880979
 10
22.67789721187405
 20
25.33998896880979
 10
22.67789721187405
 20
25.27998896880981
 10
25.30769721187405
 20
25.27998896880981
 10
25.30769721187405
 20
25.33998896880979
 10
25.86769721187406
 20
25.33998896880979
 10
25.90769721187405
 20
25.37998896880981
 10
25.90769721187405
 20
25.84998896880981
 97
        0
 75
     0
 76
     2
 52
90.0
 41
0.6
 77
     0
 78
     1
 53
135.0
 43
0.0
 44
0.0
 45
-0.0530330085889911
 46
-0.0530330085889911
 79
     1
 49
6000.0
 98
        0
  0
LINE
  5
B7
330
1F
100
AcDbEntity
  8
DIMENSIONS
  6
Continuous
 62
     1
370
     0
100
AcDbLine
 10
25.30769721187405
 20
24.74247470366625
 30
0.0
 11
25.50088237713187
 21
24.79423851268675
 31
0.0
  0
LINE
  5
B8
330
1F
100
AcDbEntity
  8
DIMENSIONS
  6
Continuous
 62
     1
370
     0
100
AcDbLine
 10
25.30769721187405
 20
24.74247470366625
 30
0.0
 11
25.50088237713187
 21
24.69071089464575
 31
0.0
  0
LINE
  5
B9
330
1F
100
AcDbEntity
  8
DIMENSIONS
  6
Continuous
 62
     1
370
     0
100
AcDbLine
 10
25.90769721187405
 20
24.74247470366625
 30
0.0
 11
25.71451204661624
 21
24.69071089464575
 31
0.0
  0
LINE
  5
BA
330
1F
100
AcDbEntity
  8
DIMENSIONS
  6
Continuous
 62
     1
370
     0
100
AcDbLine
 10
25.90769721187405
 20
24.74247470366625
 30
0.0
 11
25.71451204661624
 21
24.79423851268675
 31
0.0
  0
LINE
  5
BB
330
1F
100
AcDbEntity
  8
DIMENSIONS
  6
Continuous
 62
     1
370
     0
100
AcDbLine
 10
25.30769721187405
 20
25.20998896880981
 30
0.0
 11
25.30769721187405
 21
24.69247470366625
 31
0.0
  0
LINE
  5
BC
330
1F
100
AcDbEntity
  8
DIMENSIONS
  6
Continuous
 62
     1
370
     0
100
AcDbLine
 10
25.90769721187405
 20
25.30998896880981
 30
0.0
 11
25.90769721187405
 21
24.69247470366625
 31
0.0
  0
TEXT
  5
BD
330
1F
100
AcDbEntity
  8
DIMENSIONS
  6
Continuous
 62
     1
370
     0
100
AcDbText
 10
24.3428308959576
 20
24.66747470366625
 30
0.0
 40
0.15
  1
NOTE A
  7
MAIN
100
AcDbText
  0
LINE
  5
BE
330
1F
100
AcDbEntity
  8
DIMENSIONS
  6
Continuous
 62
     1
370
     0
100
AcDbLine
 10
25.1803308959576
 20
24.74247470366625
 30
0.0
 11
25.90769721187405
 21
24.74247470366625
 31
0.0
  0
TEXT
  5
BF
330
1F
100
AcDbEntity
  8
DIMENSIONS
  6
Continuous
 62
   173
370
     0
100
AcDbText
 10
22.55563574499819
 20
24.16152850319644
 30
0.0
 40
0.15
  1
SECTION A - A
  7
ENGINEER
100
AcDbText
  0
TEXT
  5
C0
330
1F
100
AcDbEntity
  8
DIMENSIONS
  6
Continuous
 62
   173
370
     0
100
AcDbText
 10
22.83496282291967
 20
23.93652850319644
 30
0.0
 40
0.15
  1
SCALE 2:1
  7
ENGINEER
100
AcDbText
  0
CIRCLE
  5
C1
330
1F
100
AcDbEntity
  8
SPACER RING
  6
Continuous
 62
    93
370
     0
100
AcDbCircle
 10
29.82100934534069
 20
19.04906600249066
 30
0.0
 40
3.314999999999998
  0
CIRCLE
  5
C2
330
1F
100
AcDbEntity
  8
SPACER RING
  6
Continuous
 62
    93
370
     0
100
AcDbCircle
 10
29.82100934534069
 20
19.04906600249066
 30
0.0
 40
3.030000000000001
  0
CIRCLE
  5
C3
330
1F
100
AcDbEntity
  8
SPACER RING
  6
Continuous
 62
    93
370
     0
100
AcDbCircle
 10
29.82100934534069
 20
19.04906600249066
 30
0.0
 40
3.060000000000002
  0
LINE
  5
C4
330
1F
100
AcDbEntity
  8
DIMENSIONS
  6
Continuous
 62
     1
370
     0
100
AcDbLine
 10
29.82100934534069
 20
22.63539691723353
 30
0.0
 11
29.6210093453407
 21
22.63539691723353
 31
0.0
  0
LINE
  5
C5
330
1F
100
AcDbEntity
  8
DIMENSIONS
  6
Continuous
 62
     1
370
     0
100
AcDbLine
 10
29.82100934534069
 20
21.66516366133158
 30
0.0
 11
29.82100934534069
 21
22.63539691723353
 31
0.0
  0
LINE
  5
C6
330
1F
100
AcDbEntity
  8
DIMENSIONS
  6
Continuous
 62
     1
370
     0
100
AcDbLine
 10
29.82100934534069
 20
21.66516366133158
 30
0.0
 11
29.6210093453407
 21
21.66516366133158
 31
0.0
  0
TEXT
  5
C7
330
1F
100
AcDbEntity
  8
DIMENSIONS
  6
Continuous
 62
     7
370
     0
100
AcDbText
 10
29.39850519977016
 20
22.55175611931095
 30
0.0
 40
0.17
  1
A
  7
ENGINEER
100
AcDbText
  0
TEXT
  5
C8
330
1F
100
AcDbEntity
  8
DIMENSIONS
  6
Continuous
 62
     7
370
     0
100
AcDbText
 10
29.39850519977016
 20
21.58152286340901
 30
0.0
 40
0.17
  1
A
  7
ENGINEER
100
AcDbText
  0
LINE
  5
C9
330
1F
100
AcDbEntity
  8
CONTERLINES
  6
CENTERD
 62
     9
 48
0.828749999999999
370
     0
100
AcDbLine
 10
33.13600934534069
 20
19.04906600249066
 30
0.0
 11
26.5060093453407
 21
19.04906600249066
 31
0.0
  0
LINE
  5
CA
330
1F
100
AcDbEntity
  8
CONTERLINES
  6
CENTERD
 62
     9
 48
0.7413872073551149
370
     0
100
AcDbLine
 10
29.82100934534069
 20
21.66516366133158
 30
0.0
 11
29.82100934534069
 21
15.73406600249066
 31
0.0
  0
LINE
  5
CB
330
1F
100
AcDbEntity
  8
DIMENSIONS
  6
Continuous
 62
     1
370
     0
100
AcDbLine
 10
25.93713323219119
 20
25.33017957451898
 30
0.0
 11
26.14764124823034
 21
24.95822874594764
 31
0.0
  0
LINE
  5
CC
330
1F
100
AcDbEntity
  8
DIMENSIONS
  6
Continuous
 62
     1
370
     0
100
AcDbLine
 10
25.93713323219119
 20
25.33017957451898
 30
0.0
 11
26.0773349429598
 21
25.18754900171793
 31
0.0
  0
LINE
  5
CD
330
1F
100
AcDbEntity
  8
DIMENSIONS
  6
Continuous
 62
     1
370
     0
100
AcDbLine
 10
25.93713323219119
 20
25.33017957451898
 30
0.0
 11
25.98723618897032
 21
25.13655701973264
 31
0.0
  0
LINE
  5
CE
330
1F
100
AcDbEntity
  8
DIMENSIONS
  6
Continuous
 62
     1
370
     0
100
AcDbLine
 10
26.14764124823034
 20
24.95822874594764
 30
0.0
 11
26.34764124823034
 21
24.95822874594764
 31
0.0
  0
TEXT
  5
CF
330
1F
100
AcDbEntity
  8
DIMENSIONS
  6
Continuous
 62
     1
370
     0
100
AcDbText
 10
26.44764124823034
 20
24.89572874594764
 30
0.0
 40
0.125
  1
2X .04 X .04
  7
MAIN
100
AcDbText
  0
LINE
  5
D0
330
1F
100
AcDbEntity
  8
DIMENSIONS
  6
Continuous
 62
     1
370
     0
100
AcDbLine
 10
36.20207117122465
 20
22.23606903114634
 30
0.0
 11
36.20207117122465
 21
21.70622733014667
 31
0.0
  0
LINE
  5
D1
330
1F
100
AcDbEntity
  8
DIMENSIONS
  6
Continuous
 62
     1
370
     0
100
AcDbLine
 10
36.20207117122465
 20
22.23606903114634
 30
0.0
 11
36.25383498024515
 21
22.04288386588852
 31
0.0
  0
LINE
  5
D2
330
1F
100
AcDbEntity
  8
DIMENSIONS
  6
Continuous
 62
     1
370
     0
100
AcDbLine
 10
36.20207117122465
 20
22.23606903114634
 30
0.0
 11
36.15030736220414
 21
22.04288386588852
 31
0.0
  0
LINE
  5
D3
330
1F
100
AcDbEntity
  8
DIMENSIONS
  6
Continuous
 62
     1
370
     0
100
AcDbLine
 10
36.20207117122465
 20
21.70622733014667
 30
0.0
 11
36.20207117122465
 21
21.70622733014667
 31
0.0
  0
LINE
  5
D4
330
1F
100
AcDbEntity
  8
DIMENSIONS
  6
Continuous
 62
     1
370
     0
100
AcDbLine
 10
36.20621912120453
 20
21.30791217516564
 30
0.0
 11
36.20621912120453
 21
21.78920965410105
 31
0.0
  0
LINE
  5
D5
330
1F
100
AcDbEntity
  8
DIMENSIONS
  6
Continuous
 62
     1
370
     0
100
AcDbLine
 10
36.20621912120453
 20
21.30791217516564
 30
0.0
 11
36.15445531218402
 21
21.50109734042346
 31
0.0
  0
LINE
  5
D6
330
1F
100
AcDbEntity
  8
DIMENSIONS
  6
Continuous
 62
     1
370
     0
100
AcDbLine
 10
36.20621912120453
 20
21.30791217516564
 30
0.0
 11
36.25798293022503
 21
21.50109734042346
 31
0.0
  0
LINE
  5
D7
330
1F
100
AcDbEntity
  8
DIMENSIONS
  6
Continuous
 62
     1
370
     0
100
AcDbLine
 10
36.20621912120453
 20
21.78920965410105
 30
0.0
 11
36.20621912120453
 21
21.78920965410105
 31
0.0
  0
LINE
  5
D8
330
1F
100
AcDbEntity
  8
DIMENSIONS
  6
Continuous
 62
     1
370
     0
100
AcDbLine
 10
36.18962265641365
 20
21.7560167245193
 30
0.0
 11
35.60874638873298
 21
22.65222582322662
 31
0.0
  0
LINE
  5
D9
330
1F
100
AcDbEntity
  8
DIMENSIONS
  6
Continuous
 62
     1
370
     0
100
AcDbLine
 10
36.18962265641365
 20
21.7560167245193
 30
0.0
 11
36.04111236826638
 21
21.88997453248291
 31
0.0
  0
LINE
  5
DA
330
1F
100
AcDbEntity
  8
DIMENSIONS
  6
Continuous
 62
     1
370
     0
100
AcDbLine
 10
36.18962265641365
 20
21.7560167245193
 30
0.0
 11
36.12798787813657
 21
21.9462827333247
 31
0.0
  0
LINE
  5
DB
330
1F
100
AcDbEntity
  8
DIMENSIONS
  6
Continuous
 62
     1
370
     0
100
AcDbLine
 10
35.60874638873298
 20
22.65222582322662
 30
0.0
 11
35.40874638873298
 21
22.65222582322662
 31
0.0
  0
TEXT
  5
DC
330
1F
100
AcDbEntity
  8
DIMENSIONS
  6
Continuous
 62
     1
370
     0
100
AcDbText
 10
34.65249632912833
 20
22.58972582322662
 30
0.0
 40
0.125
  1
NOTE B
  7
MAIN
100
AcDbText
  0
TEXT
  5
DD
330
1F
100
AcDbEntity
  8
DIMENSIONS
  6
Continuous
 62
     7
370
     0
100
AcDbText
 10
29.03087712679135
 20
27.8361950023247
 30
0.0
 40
0.15
  1
RING, SPACER - ADAPTER / MOTOR PLATES
  7
MAIN
100
AcDbText
  0
TEXT
  5
DE
330
1F
100
AcDbEntity
  8
DIMENSIONS
  6
Continuous
 62
     7
370
     0
100
AcDbText
 10
29.03087712679135
 20
27.6111950023247
 30
0.0
 40
0.15
  1
GREEN VEHICLES - BS10 2/D MOOSE TRANS. / 20kw MOTOR ADAPTER SET
  7
MAIN
100
AcDbText
  0
TEXT
  5
DF
330
1F
100
AcDbEntity
  8
DIMENSIONS
  6
Continuous
 62
     7
370
     0
100
AcDbText
 10
29.03087712679135
 20
27.1611950023247
 30
0.0
 40
0.15
  1
9/07/09  REV B
  7
MAIN
100
AcDbText
  0
TEXT
  5
E0
330
1F
100
AcDbEntity
  8
DIMENSIONS
  6
Continuous
 62
     7
370
     0
100
AcDbText
 10
29.03087712679135
 20
26.7111950023247
 30
0.0
 40
0.15
  1
MATERIAL: PIPE, ALUM - SCH 40 6061-T6
  7
MAIN
100
AcDbText
  0
TEXT
  5
E1
330
1F
100
AcDbEntity
  8
DIMENSIONS
  6
Continuous
 62
     7
370
     0
100
AcDbText
 10
29.03087712679135
 20
26.4861950023247
 30
0.0
 40
0.15
  1
NOM. 6.0 DIA. (6.63 OD X 6.06 ID X .285 W)
  7
MAIN
100
AcDbText
  0
TEXT
  5
E2
330
1F
100
AcDbEntity
  8
DIMENSIONS
  6
Continuous
 62
     7
370
     0
100
AcDbText
 10
29.03087712679135
 20
26.0361950023247
 30
0.0
 40
0.15
  1
TOL: .XX = .010, .XXX = .005
  7
MAIN
100
AcDbText
  0
TEXT
  5
E3
330
1F
100
AcDbEntity
  8
DIMENSIONS
  6
Continuous
 62
     7
370
     0
100
AcDbText
 10
29.03087712679135
 20
25.8111950023247
 30
0.0
 40
0.15
  1
UNLESS OTHERWISE NOTED.
  7
MAIN
100
AcDbText
  0
TEXT
  5
E4
330
1F
100
AcDbEntity
  8
DIMENSIONS
  6
Continuous
 62
     7
370
     0
100
AcDbText
 10
29.03087712679135
 20
25.3611950023247
 30
0.0
 40
0.15
  1
NOTE A - MIN. .30 OR AS NEED TO HOLD PART.
  7
MAIN
100
AcDbText
  0
TEXT
  5
E5
330
1F
100
AcDbEntity
  8
DIMENSIONS
  6
Continuous
 62
     7
370
     0
100
AcDbText
 10
29.03087712679135
 20
24.9111950023247
 30
0.0
 40
0.15
  1
NOTE B - FINISH: GRAIN DIRECTION AS SHOW.
  7
MAIN
100
AcDbText
  0
TEXT
  5
E6
330
1F
100
AcDbEntity
  8
DIMENSIONS
  6
Continuous
 62
     7
370
     0
100
AcDbText
 10
29.03087712679135
 20
24.4611950023247
 30
0.0
 40
0.15
  1
NOTE C - STAMP IN BLACK 5/32-3/16" BLOCK
  7
MAIN
100
AcDbText
  0
TEXT
  5
E7
330
1F
100
AcDbEntity
  8
DIMENSIONS
  6
Continuous
 62
     7
370
     0
100
AcDbText
 10
29.03087712679135
 20
24.2361950023247
 30
0.0
 40
0.15
  1
CHARACTERS:
  7
MAIN
100
AcDbText
  0
TEXT
  5
E8
330
1F
100
AcDbEntity
  8
DIMENSIONS
  6
Continuous
 62
     7
370
     0
100
AcDbText
 10
29.03087712679135
 20
24.0111950023247
 30
0.0
 40
0.15
  1
RING, ADPT/MOTOR PLATES - 8/5/09 REV A
  7
MAIN
100
AcDbText
  0
ENDSEC
  0
SECTION
  2
OBJECTS
  0
DICTIONARY
  5
C
330
0
100
AcDbDictionary
281
     1
  3
ACAD_GROUP
350
D
  3
ACAD_LAYOUT
350
1A
  3
ACAD_MLEADERSTYLE
350
EB
  3
ACAD_MLINESTYLE
350
17
  3
ACAD_PLOTSETTINGS
350
19
  3
ACAD_PLOTSTYLENAME
350
E
  3
ACAD_SCALELIST
350
68
  3
ACAD_VISUALSTYLE
350
2A
  3
AcDbVariableDictionary
350
E9
  0
DICTIONARY
  5
D
102
{ACAD_REACTORS
330
C
102
}
330
C
100
AcDbDictionary
281
     1
  0
DICTIONARY
  5
1A
102
{ACAD_REACTORS
330
C
102
}
330
C
100
AcDbDictionary
281
     1
  3
Layout1
350
1E
  3
Layout2
350
26
  3
Model
350
22
  0
DICTIONARY
  5
EB
102
{ACAD_REACTORS
330
C
102
}
330
C
100
AcDbDictionary
281
     1
  0
DICTIONARY
  5
17
102
{ACAD_REACTORS
330
C
102
}
330
C
100
AcDbDictionary
281
     1
  3
Standard
350
18
  0
DICTIONARY
  5
19
102
{ACAD_REACTORS
330
C
102
}
330
C
100
AcDbDictionary
281
     1
  0
ACDBDICTIONARYWDFLT
  5
E
102
{ACAD_REACTORS
330
C
102
}
330
C
100
AcDbDictionary
281
     1
  3
Normal
350
F
100
AcDbDictionaryWithDefault
340
F
  0
DICTIONARY
  5
68
102
{ACAD_REACTORS
330
C
102
}
330
C
100
AcDbDictionary
281
     1
  3
A0
350
69
  3
A1
350
6A
  3
A2
350
6B
  3
A3
350
6C
  3
A4
350
6D
  3
A5
350
6E
  3
A6
350
6F
  3
A7
350
70
  3
A8
350
71
  3
A9
350
72
  3
B0
350
73
  3
B1
350
74
  3
B2
350
75
  3
B3
350
76
  3
B4
350
77
  3
B5
350
78
  3
B6
350
79
  3
B7
350
7A
  3
B8
350
7B
  3
B9
350
7C
  3
C0
350
7D
  3
C1
350
7E
  3
C2
350
7F
  3
C3
350
80
  3
C4
350
81
  3
C5
350
82
  3
C6
350
83
  3
C7
350
84
  3
C8
350
85
  3
C9
350
86
  3
D0
350
87
  3
D1
350
88
  3
D2
350
89
  0
DICTIONARY
  5
2A
102
{ACAD_REACTORS
330
C
102
}
330
C
100
AcDbDictionary
281
     1
  3
2dWireframe
350
2F
  3
3D Hidden
350
31
  3
3dWireframe
350
30
  3
Basic
350
32
  3
Brighten
350
36
  3
ColorChange
350
3A
  3
Conceptual
350
34
  3
Dim
350
35
  3
Facepattern
350
39
  3
Flat
350
2B
  3
FlatWithEdges
350
2C
  3
Gouraud
350
2D
  3
GouraudWithEdges
350
2E
  3
Linepattern
350
38
  3
Realistic
350
33
  3
Thicken
350
37
  0
DICTIONARY
  5
E9
102
{ACAD_REACTORS
330
C
102
}
330
C
100
AcDbDictionary
281
     1
  3
CANNOSCALE
350
EC
  0
LAYOUT
  5
1E
102
{ACAD_REACTORS
330
1A
102
}
330
1A
100
AcDbPlotSettings
  1

  2
none_device
  4

  6

 40
0.0
 41
0.0
 42
0.0
 43
0.0
 44
0.0
 45
0.0
 46
0.0
 47
0.0
 48
0.0
 49
0.0
140
0.0
141
0.0
142
1.0
143
1.0
 70
   688
 72
     0
 73
     0
 74
     5
  7

 75
    16
147
1.0
148
0.0
149
0.0
100
AcDbLayout
  1
Layout1
 70
     1
 71
     1
 10
0.0
 20
0.0
 11
12.0
 21
9.0
 12
0.0
 22
0.0
 32
0.0
 14
1.000000000000000E+20
 24
1.000000000000000E+20
 34
1.000000000000000E+20
 15
-1.000000000000000E+20
 25
-1.000000000000000E+20
 35
-1.000000000000000E+20
146
0.0
 13
0.0
 23
0.0
 33
0.0
 16
1.0
 26
0.0
 36
0.0
 17
0.0
 27
1.0
 37
0.0
 76
     0
330
1B
  0
LAYOUT
  5
26
102
{ACAD_REACTORS
330
1A
102
}
330
1A
100
AcDbPlotSettings
  1

  2
none_device
  4

  6

 40
0.0
 41
0.0
 42
0.0
 43
0.0
 44
0.0
 45
0.0
 46
0.0
 47
0.0
 48
0.0
 49
0.0
140
0.0
141
0.0
142
1.0
143
1.0
 70
   688
 72
     0
 73
     0
 74
     5
  7

 75
    16
147
1.0
148
0.0
149
0.0
100
AcDbLayout
  1
Layout2
 70
     1
 71
     2
 10
0.0
 20
0.0
 11
0.0
 21
0.0
 12
0.0
 22
0.0
 32
0.0
 14
0.0
 24
0.0
 34
0.0
 15
0.0
 25
0.0
 35
0.0
146
0.0
 13
0.0
 23
0.0
 33
0.0
 16
1.0
 26
0.0
 36
0.0
 17
0.0
 27
1.0
 37
0.0
 76
     0
330
23
  0
LAYOUT
  5
22
102
{ACAD_REACTORS
330
1A
102
}
330
1A
100
AcDbPlotSettings
  1

  2
none_device
  4

  6

 40
0.0
 41
0.0
 42
0.0
 43
0.0
 44
0.0
 45
0.0
 46
0.0
 47
0.0
 48
0.0
 49
0.0
140
0.0
141
0.0
142
1.0
143
1.0
 70
  1712
 72
     0
 73
     0
 74
     0
  7

 75
     0
147
1.0
148
0.0
149
0.0
100
AcDbLayout
  1
Model
 70
     1
 71
     0
 10
0.0
 20
0.0
 11
12.0
 21
9.0
 12
0.0
 22
0.0
 32
0.0
 14
1.000000000000000E+20
 24
1.000000000000000E+20
 34
1.000000000000000E+20
 15
-1.000000000000000E+20
 25
-1.000000000000000E+20
 35
-1.000000000000000E+20
146
0.0
 13
0.0
 23
0.0
 33
0.0
 16
1.0
 26
0.0
 36
0.0
 17
0.0
 27
1.0
 37
0.0
 76
     0
330
1F
331
29
  0
MLINESTYLE
  5
18
102
{ACAD_REACTORS
330
17
102
}
330
17
100
AcDbMlineStyle
  2
Standard
 70
     0
  3

 62
   256
 51
90.0
 52
90.0
 71
     2
 49
0.5
 62
   256
  6
BYLAYER
 49
-0.5
 62
   256
  6
BYLAYER
  0
ACDBPLACEHOLDER
  5
F
102
{ACAD_REACTORS
330
E
102
}
330
E
  0
SCALE
  5
69
102
{ACAD_REACTORS
330
68
102
}
330
68
100
AcDbScale
 70
     0
300
1:1
140
1.0
141
1.0
290
     1
  0
SCALE
  5
6A
102
{ACAD_REACTORS
330
68
102
}
330
68
100
AcDbScale
 70
     0
300
1:2
140
1.0
141
2.0
290
     0
  0
SCALE
  5
6B
102
{ACAD_REACTORS
330
68
102
}
330
68
100
AcDbScale
 70
     0
300
1:4
140
1.0
141
4.0
290
     0
  0
SCALE
  5
6C
102
{ACAD_REACTORS
330
68
102
}
330
68
100
AcDbScale
 70
     0
300
1:5
140
1.0
141
5.0
290
     0
  0
SCALE
  5
6D
102
{ACAD_REACTORS
330
68
102
}
330
68
100
AcDbScale
 70
     0
300
1:8
140
1.0
141
8.0
290
     0
  0
SCALE
  5
6E
102
{ACAD_REACTORS
330
68
102
}
330
68
100
AcDbScale
 70
     0
300
1:10
140
1.0
141
10.0
290
     0
  0
SCALE
  5
6F
102
{ACAD_REACTORS
330
68
102
}
330
68
100
AcDbScale
 70
     0
300
1:16
140
1.0
141
16.0
290
     0
  0
SCALE
  5
70
102
{ACAD_REACTORS
330
68
102
}
330
68
100
AcDbScale
 70
     0
300
1:20
140
1.0
141
20.0
290
     0
  0
SCALE
  5
71
102
{ACAD_REACTORS
330
68
102
}
330
68
100
AcDbScale
 70
     0
300
1:30
140
1.0
141
30.0
290
     0
  0
SCALE
  5
72
102
{ACAD_REACTORS
330
68
102
}
330
68
100
AcDbScale
 70
     0
300
1:40
140
1.0
141
40.0
290
     0
  0
SCALE
  5
73
102
{ACAD_REACTORS
330
68
102
}
330
68
100
AcDbScale
 70
     0
300
1:50
140
1.0
141
50.0
290
     0
  0
SCALE
  5
74
102
{ACAD_REACTORS
330
68
102
}
330
68
100
AcDbScale
 70
     0
300
1:100
140
1.0
141
100.0
290
     0
  0
SCALE
  5
75
102
{ACAD_REACTORS
330
68
102
}
330
68
100
AcDbScale
 70
     0
300
2:1
140
2.0
141
1.0
290
     0
  0
SCALE
  5
76
102
{ACAD_REACTORS
330
68
102
}
330
68
100
AcDbScale
 70
     0
300
4:1
140
4.0
141
1.0
290
     0
  0
SCALE
  5
77
102
{ACAD_REACTORS
330
68
102
}
330
68
100
AcDbScale
 70
     0
300
8:1
140
8.0
141
1.0
290
     0
  0
SCALE
  5
78
102
{ACAD_REACTORS
330
68
102
}
330
68
100
AcDbScale
 70
     0
300
10:1
140
10.0
141
1.0
290
     0
  0
SCALE
  5
79
102
{ACAD_REACTORS
330
68
102
}
330
68
100
AcDbScale
 70
     0
300
100:1
140
100.0
141
1.0
290
     0
  0
SCALE
  5
7A
102
{ACAD_REACTORS
330
68
102
}
330
68
100
AcDbScale
 70
     0
300
1/128" = 1'-0"
140
0.0078125
141
12.0
290
     0
  0
SCALE
  5
7B
102
{ACAD_REACTORS
330
68
102
}
330
68
100
AcDbScale
 70
     0
300
1/64" = 1'-0"
140
0.015625
141
12.0
290
     0
  0
SCALE
  5
7C
102
{ACAD_REACTORS
330
68
102
}
330
68
100
AcDbScale
 70
     0
300
1/32" = 1'-0"
140
0.03125
141
12.0
290
     0
  0
SCALE
  5
7D
102
{ACAD_REACTORS
330
68
102
}
330
68
100
AcDbScale
 70
     0
300
1/16" = 1'-0"
140
0.0625
141
12.0
290
     0
  0
SCALE
  5
7E
102
{ACAD_REACTORS
330
68
102
}
330
68
100
AcDbScale
 70
     0
300
3/32" = 1'-0"
140
0.09375
141
12.0
290
     0
  0
SCALE
  5
7F
102
{ACAD_REACTORS
330
68
102
}
330
68
100
AcDbScale
 70
     0
300
1/8" = 1'-0"
140
0.125
141
12.0
290
     0
  0
SCALE
  5
80
102
{ACAD_REACTORS
330
68
102
}
330
68
100
AcDbScale
 70
     0
300
3/16" = 1'-0"
140
0.1875
141
12.0
290
     0
  0
SCALE
  5
81
102
{ACAD_REACTORS
330
68
102
}
330
68
100
AcDbScale
 70
     0
300
1/4" = 1'-0"
140
0.25
141
12.0
290
     0
  0
SCALE
  5
82
102
{ACAD_REACTORS
330
68
102
}
330
68
100
AcDbScale
 70
     0
300
3/8" = 1'-0"
140
0.375
141
12.0
290
     0
  0
SCALE
  5
83
102
{ACAD_REACTORS
330
68
102
}
330
68
100
AcDbScale
 70
     0
300
1/2" = 1'-0"
140
0.5
141
12.0
290
     0
  0
SCALE
  5
84
102
{ACAD_REACTORS
330
68
102
}
330
68
100
AcDbScale
 70
     0
300
3/4" = 1'-0"
140
0.75
141
12.0
290
     0
  0
SCALE
  5
85
102
{ACAD_REACTORS
330
68
102
}
330
68
100
AcDbScale
 70
     0
300
1" = 1'-0"
140
1.0
141
12.0
290
     0
  0
SCALE
  5
86
102
{ACAD_REACTORS
330
68
102
}
330
68
100
AcDbScale
 70
     0
300
1-1/2" = 1'-0"
140
1.5
141
12.0
290
     0
  0
SCALE
  5
87
102
{ACAD_REACTORS
330
68
102
}
330
68
100
AcDbScale
 70
     0
300
3" = 1'-0"
140
3.0
141
12.0
290
     0
  0
SCALE
  5
88
102
{ACAD_REACTORS
330
68
102
}
330
68
100
AcDbScale
 70
     0
300
6" = 1'-0"
140
6.0
141
12.0
290
     0
  0
SCALE
  5
89
102
{ACAD_REACTORS
330
68
102
}
330
68
100
AcDbScale
 70
     0
300
1'-0" = 1'-0"
140
12.0
141
12.0
290
     0
  0
VISUALSTYLE
  5
2F
102
{ACAD_REACTORS
330
2A
102
}
330
2A
100
AcDbVisualStyle
  2
2dWireframe
 70
     4
 71
     0
 72
     2
 73
     0
 90
        0
 40
-0.6
 41
-30.0
 62
     5
 63
     7
 74
     1
 91
        4
 64
     7
 65
   257
 75
     1
175
     1
 42
1.0
 92
        0
 66
   257
 43
1.0
 76
     1
 77
     6
 78
     2
 67
     7
 79
     5
170
     0
171
     0
290
     0
174
     0
 93
        1
 44
0.0
173
     0
291
     0
 45
0.0
1001
ACAD
1000
AcDbSavedByObjectVersion
1070
     0
  0
VISUALSTYLE
  5
31
102
{ACAD_REACTORS
330
2A
102
}
330
2A
100
AcDbVisualStyle
  2
3D Hidden
 70
     6
 71
     1
 72
     2
 73
     2
 90
        0
 40
-0.6
 41
-30.0
 62
     5
 63
     7
 74
     2
 91
        2
 64
     7
 65
   257
 75
     2
175
     1
 42
40.0
 92
        0
 66
   257
 43
1.0
 76
     1
 77
     6
 78
     2
 67
     7
 79
     3
170
     0
171
     0
290
     0
174
     0
 93
        1
 44
0.0
173
     0
291
     0
 45
0.0
1001
ACAD
1000
AcDbSavedByObjectVersion
1070
     0
  0
VISUALSTYLE
  5
30
102
{ACAD_REACTORS
330
2A
102
}
330
2A
100
AcDbVisualStyle
  2
3dWireframe
 70
     5
 71
     0
 72
     2
 73
     0
 90
        0
 40
-0.6
 41
-30.0
 62
     5
 63
     7
 74
     1
 91
        4
 64
     7
 65
   257
 75
     1
175
     1
 42
1.0
 92
        0
 66
   257
 43
1.0
 76
     1
 77
     6
 78
     2
 67
     7
 79
     5
170
     0
171
     0
290
     0
174
     0
 93
        1
 44
0.0
173
     0
291
     0
 45
0.0
1001
ACAD
1000
AcDbSavedByObjectVersion
1070
     0
  0
VISUALSTYLE
  5
32
102
{ACAD_REACTORS
330
2A
102
}
330
2A
100
AcDbVisualStyle
  2
Basic
 70
     7
 71
     1
 72
     0
 73
     1
 90
        0
 40
-0.6
 41
-30.0
 62
     5
 63
     7
 74
     0
 91
        4
 64
     7
 65
   257
 75
     1
175
     1
 42
1.0
 92
        8
 66
     7
 43
1.0
 76
     1
 77
     6
 78
     2
 67
     7
 79
     5
170
     0
171
     0
290
     0
174
     0
 93
        1
 44
0.0
173
     0
291
     1
 45
0.0
1001
ACAD
1000
AcDbSavedByObjectVersion
1070
     0
  0
VISUALSTYLE
  5
36
102
{ACAD_REACTORS
330
2A
102
}
330
2A
100
AcDbVisualStyle
  2
Brighten
 70
    12
 71
     2
 72
     2
 73
     0
 90
        0
 40
-0.6
 41
-30.0
 62
     5
 63
     7
 74
     1
 91
        4
 64
     7
 65
   257
 75
     1
175
     1
 42
1.0
 92
        8
 66
     7
 43
1.0
 76
     1
 77
     6
 78
     2
 67
     7
 79
     5
170
     0
171
     0
290
     0
174
     0
 93
        1
 44
50.0
173
     0
291
     1
 45
0.0
1001
ACAD
1000
AcDbSavedByObjectVersion
1070
     0
  0
VISUALSTYLE
  5
3A
102
{ACAD_REACTORS
330
2A
102
}
330
2A
100
AcDbVisualStyle
  2
ColorChange
 70
    16
 71
     2
 72
     2
 73
     3
 90
        0
 40
-0.6
 41
-30.0
 62
     5
 63
     8
 74
     1
 91
        4
 64
     7
 65
   257
 75
     1
175
     1
 42
1.0
 92
        8
 66
     8
 43
1.0
 76
     1
 77
     6
 78
     2
 67
     7
 79
     5
170
     0
171
     0
290
     0
174
     0
 93
        1
 44
0.0
173
     0
291
     1
 45
0.0
1001
ACAD
1000
AcDbSavedByObjectVersion
1070
     0
  0
VISUALSTYLE
  5
34
102
{ACAD_REACTORS
330
2A
102
}
330
2A
100
AcDbVisualStyle
  2
Conceptual
 70
     9
 71
     3
 72
     2
 73
     0
 90
        0
 40
-0.6
 41
-30.0
 62
     5
 63
     7
 74
     2
 91
        2
 64
     7
 65
   257
 75
     1
175
     1
 42
40.0
 92
        8
 66
     7
 43
1.0
 76
     1
 77
     6
 78
     2
 67
     7
 79
     3
170
     0
171
     0
290
     0
174
     0
 93
        1
 44
0.0
173
     0
291
     0
 45
0.0
1001
ACAD
1000
AcDbSavedByObjectVersion
1070
     0
  0
VISUALSTYLE
  5
35
102
{ACAD_REACTORS
330
2A
102
}
330
2A
100
AcDbVisualStyle
  2
Dim
 70
    11
 71
     2
 72
     2
 73
     0
 90
        0
 40
-0.6
 41
-30.0
 62
     5
 63
     7
 74
     1
 91
        4
 64
     7
 65
   257
 75
     1
175
     1
 42
1.0
 92
        8
 66
     7
 43
1.0
 76
     1
 77
     6
 78
     2
 67
     7
 79
     5
170
     0
171
     0
290
     0
174
     0
 93
        1
 44
-50.0
173
     0
291
     1
 45
0.0
1001
ACAD
1000
AcDbSavedByObjectVersion
1070
     0
  0
VISUALSTYLE
  5
39
102
{ACAD_REACTORS
330
2A
102
}
330
2A
100
AcDbVisualStyle
  2
Facepattern
 70
    15
 71
     2
 72
     2
 73
     0
 90
        0
 40
-0.6
 41
-30.0
 62
     5
 63
     7
 74
     1
 91
        4
 64
     7
 65
   257
 75
     1
175
     1
 42
1.0
 92
        8
 66
     7
 43
1.0
 76
     1
 77
     6
 78
     2
 67
     7
 79
     5
170
     0
171
     0
290
     0
174
     0
 93
        1
 44
0.0
173
     0
291
     1
 45
0.0
1001
ACAD
1000
AcDbSavedByObjectVersion
1070
     0
  0
VISUALSTYLE
  5
2B
102
{ACAD_REACTORS
330
2A
102
}
330
2A
100
AcDbVisualStyle
  2
Flat
 70
     0
 71
     2
 72
     1
 73
     1
 90
        2
 40
-0.6
 41
30.0
 62
     5
 63
     7
 74
     0
 91
        4
 64
     7
 65
   257
 75
     1
175
     1
 42
1.0
 92
        8
 66
     7
 43
1.0
 76
     1
 77
     6
 78
     2
 67
     7
 79
     5
170
     0
171
     0
290
     0
174
     0
 93
       13
 44
0.0
173
     0
291
     1
 45
0.0
1001
ACAD
1000
AcDbSavedByObjectVersion
1070
     0
  0
VISUALSTYLE
  5
2C
102
{ACAD_REACTORS
330
2A
102
}
330
2A
100
AcDbVisualStyle
  2
FlatWithEdges
 70
     1
 71
     2
 72
     1
 73
     1
 90
        2
 40
-0.6
 41
30.0
 62
     5
 63
     7
 74
     1
 91
        4
 64
     7
 65
   257
 75
     1
175
     1
 42
1.0
 92
        0
 66
   257
 43
1.0
 76
     1
 77
     6
 78
     2
 67
     7
 79
     5
170
     0
171
     0
290
     0
174
     0
 93
       13
 44
0.0
173
     0
291
     1
 45
0.0
1001
ACAD
1000
AcDbSavedByObjectVersion
1070
     0
  0
VISUALSTYLE
  5
2D
102
{ACAD_REACTORS
330
2A
102
}
330
2A
100
AcDbVisualStyle
  2
Gouraud
 70
     2
 71
     2
 72
     2
 73
     1
 90
        2
 40
-0.6
 41
30.0
 62
     5
 63
     7
 74
     0
 91
        4
 64
     7
 65
   257
 75
     1
175
     1
 42
1.0
 92
        0
 66
     7
 43
1.0
 76
     1
 77
     6
 78
     2
 67
     7
 79
     5
170
     0
171
     0
290
     0
174
     0
 93
       13
 44
0.0
173
     0
291
     1
 45
0.0
1001
ACAD
1000
AcDbSavedByObjectVersion
1070
     0
  0
VISUALSTYLE
  5
2E
102
{ACAD_REACTORS
330
2A
102
}
330
2A
100
AcDbVisualStyle
  2
GouraudWithEdges
 70
     3
 71
     2
 72
     2
 73
     1
 90
        2
 40
-0.6
 41
30.0
 62
     5
 63
     7
 74
     1
 91
        4
 64
     7
 65
   257
 75
     1
175
     1
 42
1.0
 92
        0
 66
   257
 43
1.0
 76
     1
 77
     6
 78
     2
 67
     7
 79
     5
170
     0
171
     0
290
     0
174
     0
 93
       13
 44
0.0
173
     0
291
     1
 45
0.0
1001
ACAD
1000
AcDbSavedByObjectVersion
1070
     0
  0
VISUALSTYLE
  5
38
102
{ACAD_REACTORS
330
2A
102
}
330
2A
100
AcDbVisualStyle
  2
Linepattern
 70
    14
 71
     2
 72
     2
 73
     0
 90
        0
 40
-0.6
 41
-30.0
 62
     5
 63
     7
 74
     1
 91
        4
 64
     7
 65
   257
 75
     7
175
     7
 42
1.0
 92
        8
 66
     7
 43
1.0
 76
     1
 77
     6
 78
     2
 67
     7
 79
     5
170
     0
171
     0
290
     0
174
     0
 93
        1
 44
0.0
173
     0
291
     1
 45
0.0
1001
ACAD
1000
AcDbSavedByObjectVersion
1070
     0
  0
VISUALSTYLE
  5
33
102
{ACAD_REACTORS
330
2A
102
}
330
2A
100
AcDbVisualStyle
  2
Realistic
 70
     8
 71
     2
 72
     2
 73
     0
 90
        0
 40
-0.6
 41
-30.0
 62
     5
 63
     7
 74
     1
 91
        0
 64
     7
 65
   257
 75
     1
175
     1
 42
1.0
 92
        8
 66
     8
 43
1.0
 76
     1
 77
     6
 78
     2
 67
     7
 79
     5
170
     0
171
     0
290
     0
174
     0
 93
       13
 44
0.0
173
     0
291
     0
 45
0.0
1001
ACAD
1000
AcDbSavedByObjectVersion
1070
     0
  0
VISUALSTYLE
  5
37
102
{ACAD_REACTORS
330
2A
102
}
330
2A
100
AcDbVisualStyle
  2
Thicken
 70
    13
 71
     2
 72
     2
 73
     0
 90
        0
 40
-0.6
 41
-30.0
 62
     5
 63
     7
 74
     1
 91
        4
 64
     7
 65
   257
 75
     1
175
     1
 42
1.0
 92
       12
 66
     7
 43
1.0
 76
     1
 77
     6
 78
     2
 67
     7
 79
     5
170
     0
171
     0
290
     0
174
     0
 93
        1
 44
0.0
173
     0
291
     1
 45
0.0
1001
ACAD
1000
AcDbSavedByObjectVersion
1070
     0
  0
DICTIONARYVAR
  5
EC
102
{ACAD_REACTORS
330
E9
102
}
330
E9
100
DictionaryVariables
280
     0
  1
1:1
  0
ENDSEC
  0
EOF
