  0
SECTION
  2
HEADER
  9
$ACADVER
  1
AC1006
  0
ENDSEC
  0
SECTION
  2
TABLES
  0
TABLE
  2
LTYPE
 70
    25
  0
LTYPE
  2
CONTINUOUS
 70
    64
  3
Solid line
 72
    64
 73
     0
 40
0.000000
  0
LTYPE
  2
DASHDOT
 70
    64
  3
__ . __ . __ . __ . __ . __ . __ . __ . __ . __
 72
    65
 73
     4
 40
1.000000
 49
0.500000
 49
-0.250000
 49
0.000000
 49
-0.250000
  0
LTYPE
  2
DASHED
 70
    64
  3
__ __ __ __ __ __ __ __ __ __ __ __ __ __ __ __
 72
    65
 73
     2
 40
0.750000
 49
0.500000
 49
-0.250000
  0
LTYPE
  2
DIVIDE
 70
    64
  3
____ . . ____ . . ____ . . ____ . . ____ . . __
 72
    65
 73
     6
 40
1.250000
 49
0.500000
 49
-0.250000
 49
0.000000
 49
-0.250000
 49
0.000000
 49
-0.250000
  0
LTYPE
  2
DOT
 70
    64
  3
. . . . . . . . . . . . . . . . . . . . . . . . 
 72
    65
 73
     2
 40
0.250000
 49
0.000000
 49
-0.250000
  0
ENDTAB
  0
ENDSEC
  0
SECTION
  2
ENTITIES
  0
LINE
  8
SPACER RING
 62
     7
  6
CONTINUOUS
 10
-5.747803
 20
3.315000
 30
0.000000
 11
-5.747803
 21
3.080000
 31
0.000000
  0
LINE
  8
SPACER RING
 62
     7
  6
CONTINUOUS
 10
-5.767803
 20
3.060000
 30
0.000000
 11
-5.747803
 21
3.080000
 31
0.000000
  0
LINE
  8
SPACER RING
 62
     7
  6
CONTINUOUS
 10
-5.747803
 20
3.080000
 30
0.000000
 11
-5.747803
 21
0.000000
 31
0.000000
  0
LINE
  8
SPACER RING
 62
     7
  6
CONTINUOUS
 10
-5.747803
 20
-3.315000
 30
0.000000
 11
-5.747803
 21
-3.080000
 31
0.000000
  0
LINE
  8
SPACER RING
 62
     7
  6
CONTINUOUS
 10
-5.767803
 20
-3.060000
 30
0.000000
 11
-5.747803
 21
-3.080000
 31
0.000000
  0
LINE
  8
SPACER RING
 62
     7
  6
CONTINUOUS
 10
-5.747803
 20
-3.080000
 30
0.000000
 11
-5.747803
 21
0.000000
 31
0.000000
  0
LINE
  8
SPACER RING
 62
     7
  6
CONTINUOUS
 10
-6.047803
 20
3.030000
 30
0.000000
 11
-6.047803
 21
3.060000
 31
0.000000
  0
LINE
  8
SPACER RING
 62
     7
  6
CONTINUOUS
 10
-6.047803
 20
3.060000
 30
0.000000
 11
-5.767803
 21
3.060000
 31
0.000000
  0
LINE
  8
SPACER RING
 62
     7
  6
CONTINUOUS
 10
-6.047803
 20
-3.030000
 30
0.000000
 11
-6.047803
 21
-3.060000
 31
0.000000
  0
LINE
  8
SPACER RING
 62
     7
  6
CONTINUOUS
 10
-6.047803
 20
-3.060000
 30
0.000000
 11
-5.767803
 21
-3.060000
 31
0.000000
  0
LINE
  8
SPACER RING
 62
     7
  6
CONTINUOUS
 10
7.338512
 20
3.315000
 30
0.000000
 11
7.338512
 21
3.080000
 31
0.000000
  0
LINE
  8
SPACER RING
 62
     7
  6
CONTINUOUS
 10
7.338512
 20
3.080000
 30
0.000000
 11
7.338512
 21
0.000000
 31
0.000000
  0
LINE
  8
SPACER RING
 62
     7
  6
CONTINUOUS
 10
7.338512
 20
-3.315000
 30
0.000000
 11
7.338512
 21
-3.080000
 31
0.000000
  0
LINE
  8
SPACER RING
 62
     7
  6
CONTINUOUS
 10
7.338512
 20
-3.080000
 30
0.000000
 11
7.338512
 21
0.000000
 31
0.000000
  0
LINE
  8
SPACER RING
 62
     7
  6
CONTINUOUS
 10
7.338512
 20
3.315000
 30
0.000000
 11
5.423612
 21
3.315000
 31
0.000000
  0
LINE
  8
SPACER RING
 62
     7
  6
CONTINUOUS
 10
5.423612
 20
3.315000
 30
0.000000
 11
5.423612
 21
3.080000
 31
0.000000
  0
LINE
  8
SPACER RING
 62
     7
  6
CONTINUOUS
 10
5.423612
 20
3.080000
 30
0.000000
 11
5.423612
 21
0.000000
 31
0.000000
  0
LINE
  8
SPACER RING
 62
     7
  6
CONTINUOUS
 10
7.338512
 20
-3.315000
 30
0.000000
 11
5.423612
 21
-3.315000
 31
0.000000
  0
LINE
  8
SPACER RING
 62
     7
  6
CONTINUOUS
 10
5.423612
 20
-3.315000
 30
0.000000
 11
5.423612
 21
-3.080000
 31
0.000000
  0
LINE
  8
SPACER RING
 62
     7
  6
CONTINUOUS
 10
5.423612
 20
-3.080000
 30
0.000000
 11
5.423612
 21
0.000000
 31
0.000000
  0
LINE
  8
CONTERLINES
 62
     7
  6
CONTINUOUS
 10
5.423612
 20
0.000000
 30
0.000000
 11
7.338512
 21
0.000000
 31
0.000000
  0
LINE
  8
DIMENSIONS
 62
     1
  6
CONTINUOUS
 10
5.993956
 20
0.691774
 30
0.000000
 11
5.157548
 21
1.293988
 31
0.000000
  0
LINE
  8
DIMENSIONS
 62
     1
  6
CONTINUOUS
 10
5.993956
 20
0.691774
 30
0.000000
 11
5.806934
 21
0.762645
 31
0.000000
  0
LINE
  8
DIMENSIONS
 62
     1
  6
CONTINUOUS
 10
5.993956
 20
0.691774
 30
0.000000
 11
5.867426
 21
0.846661
 31
0.000000
  0
LINE
  8
DIMENSIONS
 62
     1
  6
CONTINUOUS
 10
5.157548
 20
1.293988
 30
0.000000
 11
4.957548
 21
1.293988
 31
0.000000
  0
TEXT
  8
DIMENSIONS
 62
     1
 10
4.070049
 20
1.218989
 30
0.000000
 40
0.150000
  1
NOTE C
  0
LINE
  8
DIMENSIONS
 62
     7
  6
CONTINUOUS
 10
7.097262
 20
0.628982
 30
0.000000
 11
7.097262
 21
0.152665
 31
0.000000
  0
LINE
  8
DIMENSIONS
 62
     7
  6
CONTINUOUS
 10
7.097262
 20
0.152665
 30
0.000000
 11
5.664861
 21
0.152665
 31
0.000000
  0
LINE
  8
DIMENSIONS
 62
     7
  6
CONTINUOUS
 10
5.664861
 20
0.152665
 30
0.000000
 11
5.664861
 21
0.622079
 31
0.000000
  0
LINE
  8
DIMENSIONS
 62
     7
  6
CONTINUOUS
 10
5.664861
 20
0.622079
 30
0.000000
 11
7.097262
 21
0.622079
 31
0.000000
  0
LINE
  8
DIMENSIONS
 62
     1
  6
CONTINUOUS
 10
-4.670052
 20
-3.060000
 30
0.000000
 11
-4.721815
 21
-2.866815
 31
0.000000
  0
LINE
  8
DIMENSIONS
 62
     1
  6
CONTINUOUS
 10
-4.670052
 20
-3.060000
 30
0.000000
 11
-4.618288
 21
-2.866815
 31
0.000000
  0
LINE
  8
DIMENSIONS
 62
     1
  6
CONTINUOUS
 10
-4.670052
 20
3.060000
 30
0.000000
 11
-4.618288
 21
2.866815
 31
0.000000
  0
LINE
  8
DIMENSIONS
 62
     1
  6
CONTINUOUS
 10
-4.670052
 20
3.060000
 30
0.000000
 11
-4.721815
 21
2.866815
 31
0.000000
  0
LINE
  8
DIMENSIONS
 62
     1
  6
CONTINUOUS
 10
-5.697803
 20
-3.060000
 30
0.000000
 11
-4.620052
 21
-3.060000
 31
0.000000
  0
LINE
  8
DIMENSIONS
 62
     1
  6
CONTINUOUS
 10
-5.697803
 20
3.060000
 30
0.000000
 11
-4.620052
 21
3.060000
 31
0.000000
  0
TEXT
  8
DIMENSIONS
 62
     1
 10
-5.305677
 20
-0.075000
 30
0.000000
 40
0.150000
  1
2X 6.119
  0
TEXT
  8
DIMENSIONS
 62
     1
 10
-4.531301
 20
0.050000
 30
0.000000
 40
0.150000
  1
+.000
  0
TEXT
  8
DIMENSIONS
 62
     1
 10
-4.531301
 20
-0.200000
 30
0.000000
 40
0.150000
  1
-.002
  0
LINE
  8
DIMENSIONS
 62
     1
  6
CONTINUOUS
 10
-4.670052
 20
-3.060000
 30
0.000000
 11
-4.670052
 21
-0.350000
 31
0.000000
  0
LINE
  8
DIMENSIONS
 62
     1
  6
CONTINUOUS
 10
-4.670052
 20
0.350000
 30
0.000000
 11
-4.670052
 21
3.060000
 31
0.000000
  0
TEXT
  8
DIMENSIONS
 62
     7
 10
-6.279683
 20
7.706951
 30
0.000000
 40
0.150000
  1
DAN SULLIVAN   408 316 9222
  0
LINE
  8
DIMENSIONS
 62
     7
  6
CONTINUOUS
 10
-6.632427
 20
9.038554
 30
0.000000
 11
-2.620170
 21
9.038554
 31
0.000000
  0
LINE
  8
DIMENSIONS
 62
     7
  6
CONTINUOUS
 10
-2.620170
 20
9.038554
 30
0.000000
 11
-2.620170
 21
8.026071
 31
0.000000
  0
LINE
  8
DIMENSIONS
 62
     7
  6
CONTINUOUS
 10
-2.620170
 20
8.026071
 30
0.000000
 11
-6.632427
 21
8.026071
 31
0.000000
  0
LINE
  8
DIMENSIONS
 62
     7
  6
CONTINUOUS
 10
-6.632427
 20
8.026071
 30
0.000000
 11
-6.632427
 21
9.038554
 31
0.000000
  0
TEXT
  8
DIMENSIONS
 62
     7
 10
-6.483088
 20
8.686414
 30
0.000000
 40
0.140625
  1
ELECTRO AUTOMOTIVE
  0
TEXT
  8
DIMENSIONS
 62
     7
 10
-6.483088
 20
8.475475
 30
0.000000
 40
0.140625
  1
P.O. BOX 1113 FELTON CA. 95018-1113
  0
TEXT
  8
DIMENSIONS
 62
     7
 10
-6.483088
 20
8.264539
 30
0.000000
 40
0.140625
  1
PHONE 831-429-1994 FAX 831-429-1907
  0
LINE
  8
SPACER RING
 62
     7
  6
CONTINUOUS
 10
-7.743112
 20
6.800923
 30
0.000000
 11
-7.743112
 21
6.330923
 31
0.000000
  0
LINE
  8
SPACER RING
 62
     7
  6
CONTINUOUS
 10
-7.703112
 20
6.290923
 30
0.000000
 11
-7.743112
 21
6.330923
 31
0.000000
  0
LINE
  8
SPACER RING
 62
     7
  6
CONTINUOUS
 10
-7.743112
 20
6.800923
 30
0.000000
 11
-3.913312
 21
6.800923
 31
0.000000
  0
LINE
  8
SPACER RING
 62
     7
  6
CONTINUOUS
 10
-3.913312
 20
6.800923
 30
0.000000
 11
-3.913312
 21
6.330923
 31
0.000000
  0
LINE
  8
SPACER RING
 62
     7
  6
CONTINUOUS
 10
-3.953312
 20
6.290923
 30
0.000000
 11
-3.913312
 21
6.330923
 31
0.000000
  0
LINE
  8
SPACER RING
 62
     7
  6
CONTINUOUS
 10
-7.143112
 20
6.230923
 30
0.000000
 11
-7.143112
 21
6.290923
 31
0.000000
  0
LINE
  8
SPACER RING
 62
     7
  6
CONTINUOUS
 10
-7.143112
 20
6.290923
 30
0.000000
 11
-7.703112
 21
6.290923
 31
0.000000
  0
LINE
  8
SPACER RING
 62
     7
  6
CONTINUOUS
 10
-4.513312
 20
6.230923
 30
0.000000
 11
-4.513312
 21
6.290923
 31
0.000000
  0
LINE
  8
SPACER RING
 62
     7
  6
CONTINUOUS
 10
-4.513312
 20
6.290923
 30
0.000000
 11
-3.953312
 21
6.290923
 31
0.000000
  0
LINE
  8
SPACER RING
 62
     7
  6
CONTINUOUS
 10
-7.143112
 20
6.230923
 30
0.000000
 11
-4.513312
 21
6.230923
 31
0.000000
  0
LINE
  8
DIMENSIONS
 62
     1
  6
CONTINUOUS
 10
-4.513312
 20
5.693409
 30
0.000000
 11
-4.320127
 21
5.745173
 31
0.000000
  0
LINE
  8
DIMENSIONS
 62
     1
  6
CONTINUOUS
 10
-4.513312
 20
5.693409
 30
0.000000
 11
-4.320127
 21
5.641645
 31
0.000000
  0
LINE
  8
DIMENSIONS
 62
     1
  6
CONTINUOUS
 10
-3.913312
 20
5.693409
 30
0.000000
 11
-4.106497
 21
5.641645
 31
0.000000
  0
LINE
  8
DIMENSIONS
 62
     1
  6
CONTINUOUS
 10
-3.913312
 20
5.693409
 30
0.000000
 11
-4.106497
 21
5.745173
 31
0.000000
  0
LINE
  8
DIMENSIONS
 62
     1
  6
CONTINUOUS
 10
-4.513312
 20
6.160923
 30
0.000000
 11
-4.513312
 21
5.643409
 31
0.000000
  0
LINE
  8
DIMENSIONS
 62
     1
  6
CONTINUOUS
 10
-3.913312
 20
6.260923
 30
0.000000
 11
-3.913312
 21
5.643409
 31
0.000000
  0
TEXT
  8
DIMENSIONS
 62
     1
 10
-5.478178
 20
5.618407
 30
0.000000
 40
0.150000
  1
NOTE A
  0
LINE
  8
DIMENSIONS
 62
     1
  6
CONTINUOUS
 10
-4.640678
 20
5.693409
 30
0.000000
 11
-3.913312
 21
5.693409
 31
0.000000
  0
TEXT
  8
DIMENSIONS
 62
     7
 10
-7.265374
 20
5.112462
 30
0.000000
 40
0.150000
  1
SECTION A - A
  0
TEXT
  8
DIMENSIONS
 62
     7
 10
-6.986047
 20
4.887464
 30
0.000000
 40
0.150000
  1
SCALE 2:1
  0
CIRCLE
  8
SPACER RING
 62
     7
  6
CONTINUOUS
 10
-0.000000
 20
0.000000
 30
0.000000
 40
3.315000
  0
CIRCLE
  8
SPACER RING
 62
     7
  6
CONTINUOUS
 10
-0.000000
 20
0.000000
 30
0.000000
 40
3.030000
  0
CIRCLE
  8
SPACER RING
 62
     7
  6
CONTINUOUS
 10
-0.000000
 20
0.000000
 30
0.000000
 40
3.060000
  0
LINE
  8
DIMENSIONS
 62
     1
  6
CONTINUOUS
 10
-0.000000
 20
3.586331
 30
0.000000
 11
-0.200000
 21
3.586331
 31
0.000000
  0
LINE
  8
DIMENSIONS
 62
     1
  6
CONTINUOUS
 10
-0.000000
 20
2.616098
 30
0.000000
 11
-0.000000
 21
3.586331
 31
0.000000
  0
LINE
  8
DIMENSIONS
 62
     1
  6
CONTINUOUS
 10
-0.000000
 20
2.616098
 30
0.000000
 11
-0.200000
 21
2.616098
 31
0.000000
  0
TEXT
  8
DIMENSIONS
 62
     7
 10
-0.422504
 20
3.502689
 30
0.000000
 40
0.170000
  1
A
  0
TEXT
  8
DIMENSIONS
 62
     7
 10
-0.422504
 20
2.532456
 30
0.000000
 40
0.170000
  1
A
  0
LINE
  8
CONTERLINES
 62
     7
  6
CONTINUOUS
 10
3.315000
 20
0.000000
 30
0.000000
 11
-3.315000
 21
0.000000
 31
0.000000
  0
LINE
  8
CONTERLINES
 62
     7
  6
CONTINUOUS
 10
-0.000000
 20
2.616098
 30
0.000000
 11
-0.000000
 21
-3.315000
 31
0.000000
  0
LINE
  8
SPACER RING
 62
     7
  6
CONTINUOUS
 10
-7.867703
 20
3.315000
 30
0.000000
 11
-7.867703
 21
3.080000
 31
0.000000
  0
LINE
  8
SPACER RING
 62
     7
  6
CONTINUOUS
 10
-7.847703
 20
3.060000
 30
0.000000
 11
-7.867703
 21
3.080000
 31
0.000000
  0
LINE
  8
SPACER RING
 62
     7
  6
CONTINUOUS
 10
-7.867703
 20
3.080000
 30
0.000000
 11
-7.867703
 21
0.000000
 31
0.000000
  0
LINE
  8
SPACER RING
 62
     7
  6
CONTINUOUS
 10
-7.867703
 20
-3.315000
 30
0.000000
 11
-7.867703
 21
-3.080000
 31
0.000000
  0
LINE
  8
SPACER RING
 62
     7
  6
CONTINUOUS
 10
-7.847703
 20
-3.060000
 30
0.000000
 11
-7.867703
 21
-3.080000
 31
0.000000
  0
LINE
  8
SPACER RING
 62
     7
  6
CONTINUOUS
 10
-7.867703
 20
-3.080000
 30
0.000000
 11
-7.867703
 21
0.000000
 31
0.000000
  0
LINE
  8
SPACER RING
 62
     7
  6
CONTINUOUS
 10
-7.867703
 20
3.315000
 30
0.000000
 11
-5.747803
 21
3.315000
 31
0.000000
  0
LINE
  8
SPACER RING
 62
     7
  6
CONTINUOUS
 10
-7.867703
 20
-3.315000
 30
0.000000
 11
-5.747803
 21
-3.315000
 31
0.000000
  0
LINE
  8
SPACER RING
 62
     7
  6
CONTINUOUS
 10
-7.567703
 20
3.030000
 30
0.000000
 11
-7.567703
 21
3.060000
 31
0.000000
  0
LINE
  8
SPACER RING
 62
     7
  6
CONTINUOUS
 10
-7.567703
 20
3.060000
 30
0.000000
 11
-7.847703
 21
3.060000
 31
0.000000
  0
LINE
  8
SPACER RING
 62
     7
  6
CONTINUOUS
 10
-7.567703
 20
3.030000
 30
0.000000
 11
-6.047803
 21
3.030000
 31
0.000000
  0
LINE
  8
SPACER RING
 62
     7
  6
CONTINUOUS
 10
-7.567703
 20
-3.030000
 30
0.000000
 11
-7.567703
 21
-3.060000
 31
0.000000
  0
LINE
  8
SPACER RING
 62
     7
  6
CONTINUOUS
 10
-7.567703
 20
-3.060000
 30
0.000000
 11
-7.847703
 21
-3.060000
 31
0.000000
  0
LINE
  8
SPACER RING
 62
     7
  6
CONTINUOUS
 10
-7.567703
 20
-3.030000
 30
0.000000
 11
-6.047803
 21
-3.030000
 31
0.000000
  0
LINE
  8
CONTERLINES
 62
     7
  6
CONTINUOUS
 10
-5.747803
 20
0.000000
 30
0.000000
 11
-7.867703
 21
0.000000
 31
0.000000
  0
LINE
  8
DIMENSIONS
 62
     1
  6
CONTINUOUS
 10
-7.867703
 20
4.195858
 30
0.000000
 11
-7.674518
 21
4.247622
 31
0.000000
  0
LINE
  8
DIMENSIONS
 62
     1
  6
CONTINUOUS
 10
-7.867703
 20
4.195858
 30
0.000000
 11
-7.674518
 21
4.144094
 31
0.000000
  0
LINE
  8
DIMENSIONS
 62
     1
  6
CONTINUOUS
 10
-5.747803
 20
4.195858
 30
0.000000
 11
-5.940988
 21
4.144094
 31
0.000000
  0
LINE
  8
DIMENSIONS
 62
     1
  6
CONTINUOUS
 10
-5.747803
 20
4.195858
 30
0.000000
 11
-5.940988
 21
4.247622
 31
0.000000
  0
LINE
  8
DIMENSIONS
 62
     1
  6
CONTINUOUS
 10
-7.867703
 20
3.385000
 30
0.000000
 11
-7.867703
 21
4.245858
 31
0.000000
  0
LINE
  8
DIMENSIONS
 62
     1
  6
CONTINUOUS
 10
-5.747803
 20
3.385000
 30
0.000000
 11
-5.747803
 21
4.245858
 31
0.000000
  0
TEXT
  8
DIMENSIONS
 62
     1
 10
-6.999160
 20
4.133358
 30
0.000000
 40
0.125000
  1
2.120
  0
LINE
  8
DIMENSIONS
 62
     1
  6
CONTINUOUS
 10
-7.867703
 20
4.195858
 30
0.000000
 11
-7.049159
 21
4.195858
 31
0.000000
  0
LINE
  8
DIMENSIONS
 62
     1
  6
CONTINUOUS
 10
-6.566347
 20
4.195858
 30
0.000000
 11
-5.747803
 21
4.195858
 31
0.000000
  0
LINE
  8
DIMENSIONS
 62
     1
  6
CONTINUOUS
 10
-3.883876
 20
6.281114
 30
0.000000
 11
-3.673368
 21
5.909163
 31
0.000000
  0
LINE
  8
DIMENSIONS
 62
     1
  6
CONTINUOUS
 10
-3.883876
 20
6.281114
 30
0.000000
 11
-3.743674
 21
6.138483
 31
0.000000
  0
LINE
  8
DIMENSIONS
 62
     1
  6
CONTINUOUS
 10
-3.883876
 20
6.281114
 30
0.000000
 11
-3.833773
 21
6.087491
 31
0.000000
  0
LINE
  8
DIMENSIONS
 62
     1
  6
CONTINUOUS
 10
-3.673368
 20
5.909163
 30
0.000000
 11
-3.473368
 21
5.909163
 31
0.000000
  0
TEXT
  8
DIMENSIONS
 62
     1
 10
-3.373368
 20
5.846662
 30
0.000000
 40
0.125000
  1
2X .04 X .04
  0
TEXT
  8
DIMENSIONS
 62
     7
 10
-0.790132
 20
8.787129
 30
0.000000
 40
0.150000
  1
RING, SPACER - ADAPTER / MOTOR PLATES
  0
TEXT
  8
DIMENSIONS
 62
     7
 10
-0.790132
 20
8.562128
 30
0.000000
 40
0.150000
  1
GREEN VEHICLES -  QR512-1700010AF (TRIAC) TRANS. / 20kw MOTOR ADAPTER SET
  0
TEXT
  8
DIMENSIONS
 62
     7
 10
-0.790132
 20
8.112129
 30
0.000000
 40
0.150000
  1
9/3/09  REV A
  0
TEXT
  8
DIMENSIONS
 62
     7
 10
-0.790132
 20
7.662129
 30
0.000000
 40
0.150000
  1
MATERIAL: PIPE, ALUM - SCH 40 6061-T6
  0
TEXT
  8
DIMENSIONS
 62
     7
 10
-0.790132
 20
7.437128
 30
0.000000
 40
0.150000
  1
NOM. 6.0 DIA. (6.63 OD X 6.06 ID X .285 W)
  0
TEXT
  8
DIMENSIONS
 62
     7
 10
-0.790132
 20
6.987128
 30
0.000000
 40
0.150000
  1
TOL: .XX = .010, .XXX = .005
  0
TEXT
  8
DIMENSIONS
 62
     7
 10
-0.790132
 20
6.762129
 30
0.000000
 40
0.150000
  1
UNLESS OTHERWISE NOTED.
  0
TEXT
  8
DIMENSIONS
 62
     7
 10
-0.790132
 20
6.312130
 30
0.000000
 40
0.150000
  1
NOTE A - MIN. .30 OR AS NEED TO HOLD PART.
  0
TEXT
  8
DIMENSIONS
 62
     7
 10
-0.790132
 20
5.862128
 30
0.000000
 40
0.150000
  1
NOTE B - FINISH: GRAIN DIRECTION AS SHOWN
  0
TEXT
  8
DIMENSIONS
 62
     7
 10
-0.790132
 20
5.412128
 30
0.000000
 40
0.150000
  1
NOTE C - STAMP IN BLACK 5/32-3/16" BLOCK
  0
TEXT
  8
DIMENSIONS
 62
     7
 10
-0.790132
 20
5.187129
 30
0.000000
 40
0.150000
  1
CHARACTERS:
  0
TEXT
  8
DIMENSIONS
 62
     7
 10
-0.790132
 20
4.962128
 30
0.000000
 40
0.150000
  1
RING, ADPT/MOTOR PLATES - 8/5/09 REV A
  0
TEXT
  8
DIMENSIONS
 62
     7
 10
-0.790132
 20
4.737130
 30
0.000000
 40
0.150000
  1
(do not engrave)
  0
LINE
  8
DIMENSIONS
 62
     1
  6
CONTINUOUS
 10
6.381062
 20
3.059006
 30
0.000000
 11
6.381062
 21
2.529164
 31
0.000000
  0
LINE
  8
DIMENSIONS
 62
     1
  6
CONTINUOUS
 10
6.381062
 20
3.059006
 30
0.000000
 11
6.432826
 21
2.865821
 31
0.000000
  0
LINE
  8
DIMENSIONS
 62
     1
  6
CONTINUOUS
 10
6.381062
 20
3.059006
 30
0.000000
 11
6.329298
 21
2.865821
 31
0.000000
  0
LINE
  8
DIMENSIONS
 62
     1
  6
CONTINUOUS
 10
6.385210
 20
2.130849
 30
0.000000
 11
6.385210
 21
2.612147
 31
0.000000
  0
LINE
  8
DIMENSIONS
 62
     1
  6
CONTINUOUS
 10
6.385210
 20
2.130849
 30
0.000000
 11
6.333446
 21
2.324034
 31
0.000000
  0
LINE
  8
DIMENSIONS
 62
     1
  6
CONTINUOUS
 10
6.385210
 20
2.130849
 30
0.000000
 11
6.436974
 21
2.324034
 31
0.000000
  0
LINE
  8
DIMENSIONS
 62
     1
  6
CONTINUOUS
 10
6.368613
 20
2.578954
 30
0.000000
 11
5.787737
 21
3.475163
 31
0.000000
  0
LINE
  8
DIMENSIONS
 62
     1
  6
CONTINUOUS
 10
6.368613
 20
2.578954
 30
0.000000
 11
6.220103
 21
2.712912
 31
0.000000
  0
LINE
  8
DIMENSIONS
 62
     1
  6
CONTINUOUS
 10
6.368613
 20
2.578954
 30
0.000000
 11
6.306979
 21
2.769220
 31
0.000000
  0
LINE
  8
DIMENSIONS
 62
     1
  6
CONTINUOUS
 10
5.787737
 20
3.475163
 30
0.000000
 11
5.587737
 21
3.475163
 31
0.000000
  0
TEXT
  8
DIMENSIONS
 62
     1
 10
4.831487
 20
3.412662
 30
0.000000
 40
0.125000
  1
NOTE B
  0
ENDSEC
  0
EOF
