  0
SECTION
  2
HEADER
  9
$ACADVER
  1
AC1006
  0
ENDSEC
  0
SECTION
  2
TABLES
  0
TABLE
  2
LTYPE
 70
    25
  0
LTYPE
  2
CONTINUOUS
 70
    64
  3
Solid line
 72
    64
 73
     0
 40
0.000000
  0
LTYPE
  2
DASHDOT
 70
    64
  3
__ . __ . __ . __ . __ . __ . __ . __ . __ . __
 72
    65
 73
     4
 40
1.000000
 49
0.500000
 49
-0.250000
 49
0.000000
 49
-0.250000
  0
LTYPE
  2
DASHED
 70
    64
  3
__ __ __ __ __ __ __ __ __ __ __ __ __ __ __ __
 72
    65
 73
     2
 40
0.750000
 49
0.500000
 49
-0.250000
  0
LTYPE
  2
DIVIDE
 70
    64
  3
____ . . ____ . . ____ . . ____ . . ____ . . __
 72
    65
 73
     6
 40
1.250000
 49
0.500000
 49
-0.250000
 49
0.000000
 49
-0.250000
 49
0.000000
 49
-0.250000
  0
LTYPE
  2
DOT
 70
    64
  3
. . . . . . . . . . . . . . . . . . . . . . . . 
 72
    65
 73
     2
 40
0.250000
 49
0.000000
 49
-0.250000
  0
ENDTAB
  0
ENDSEC
  0
SECTION
  2
ENTITIES
  0
LINE
  8
HUB
 62
     7
  6
CONTINUOUS
 10
9.494444
 20
6.911476
 30
0.000000
 11
9.494444
 21
5.886476
 31
0.000000
  0
LINE
  8
HUB
 62
     7
  6
CONTINUOUS
 10
10.394444
 20
6.911476
 30
0.000000
 11
10.392439
 21
6.911476
 31
0.000000
  0
LINE
  8
HUB
 62
     7
  6
CONTINUOUS
 10
9.494444
 20
6.911476
 30
0.000000
 11
10.494444
 21
6.911476
 31
0.000000
  0
LINE
  8
HUB
 62
     7
  6
CONTINUOUS
 10
10.494444
 20
6.911476
 30
0.000000
 11
10.494444
 21
5.911476
 31
0.000000
  0
LINE
  8
HUB
 62
     7
  6
CONTINUOUS
 10
9.494444
 20
1.911476
 30
0.000000
 11
9.494444
 21
2.936476
 31
0.000000
  0
LINE
  8
HUB
 62
     7
  6
CONTINUOUS
 10
10.394444
 20
1.911476
 30
0.000000
 11
10.392439
 21
1.911476
 31
0.000000
  0
LINE
  8
HUB
 62
     7
  6
CONTINUOUS
 10
9.494444
 20
1.911476
 30
0.000000
 11
10.494444
 21
1.911476
 31
0.000000
  0
LINE
  8
HUB
 62
     7
  6
CONTINUOUS
 10
10.494444
 20
1.911476
 30
0.000000
 11
10.494444
 21
2.911476
 31
0.000000
  0
POINT
  8
HUB
 62
     7
 10
9.492444
 20
6.288476
 30
0.000000
  0
POINT
  8
HUB
 62
     7
 10
9.492444
 20
6.288476
 30
0.000000
  0
POINT
  8
HUB
 62
     7
 10
9.492444
 20
6.288476
 30
0.000000
  0
POINT
  8
HUB
 62
     7
 10
9.523444
 20
6.288476
 30
0.000000
  0
POINT
  8
HUB
 62
     7
 10
9.554944
 20
6.288476
 30
0.000000
  0
POINT
  8
HUB
 62
     7
 10
9.586194
 20
6.288476
 30
0.000000
  0
POINT
  8
HUB
 62
     7
 10
9.617444
 20
6.288476
 30
0.000000
  0
LINE
  8
HUB
 62
     7
  6
CONTINUOUS
 10
9.523444
 20
6.460326
 30
0.000000
 11
9.523444
 21
6.116625
 31
0.000000
  0
LINE
  8
HUB
 62
     7
  6
CONTINUOUS
 10
9.554944
 20
6.438210
 30
0.000000
 11
9.554944
 21
6.138740
 31
0.000000
  0
LINE
  8
HUB
 62
     7
  6
CONTINUOUS
 10
9.586194
 20
6.460326
 30
0.000000
 11
9.586194
 21
6.116625
 31
0.000000
  0
LINE
  8
HUB
 62
     7
  6
CONTINUOUS
 10
9.648944
 20
6.460326
 30
0.000000
 11
9.648944
 21
6.116625
 31
0.000000
  0
LINE
  8
HUB
 62
     7
  6
CONTINUOUS
 10
9.711694
 20
6.460326
 30
0.000000
 11
9.711694
 21
6.116625
 31
0.000000
  0
LINE
  8
HUB
 62
     7
  6
CONTINUOUS
 10
9.774444
 20
6.460326
 30
0.000000
 11
9.774444
 21
6.116625
 31
0.000000
  0
LINE
  8
HUB
 62
     7
  6
CONTINUOUS
 10
9.837194
 20
6.460326
 30
0.000000
 11
9.837194
 21
6.116625
 31
0.000000
  0
LINE
  8
HUB
 62
     7
  6
CONTINUOUS
 10
9.899943
 20
6.460326
 30
0.000000
 11
9.899943
 21
6.116625
 31
0.000000
  0
LINE
  8
HUB
 62
     7
  6
CONTINUOUS
 10
9.962693
 20
6.460326
 30
0.000000
 11
9.962693
 21
6.116625
 31
0.000000
  0
LINE
  8
HUB
 62
     7
  6
CONTINUOUS
 10
10.025443
 20
6.460326
 30
0.000000
 11
10.025443
 21
6.116625
 31
0.000000
  0
LINE
  8
HUB
 62
     7
  6
CONTINUOUS
 10
10.088193
 20
6.460326
 30
0.000000
 11
10.088193
 21
6.116625
 31
0.000000
  0
LINE
  8
HUB
 62
     7
  6
CONTINUOUS
 10
9.617444
 20
6.438210
 30
0.000000
 11
9.617444
 21
6.138740
 31
0.000000
  0
LINE
  8
HUB
 62
     7
  6
CONTINUOUS
 10
9.679944
 20
6.438210
 30
0.000000
 11
9.679944
 21
6.138740
 31
0.000000
  0
LINE
  8
HUB
 62
     7
  6
CONTINUOUS
 10
9.742444
 20
6.438210
 30
0.000000
 11
9.742444
 21
6.138740
 31
0.000000
  0
LINE
  8
HUB
 62
     7
  6
CONTINUOUS
 10
9.804944
 20
6.438210
 30
0.000000
 11
9.804944
 21
6.138740
 31
0.000000
  0
LINE
  8
HUB
 62
     7
  6
CONTINUOUS
 10
9.867444
 20
6.438210
 30
0.000000
 11
9.867444
 21
6.138740
 31
0.000000
  0
LINE
  8
HUB
 62
     7
  6
CONTINUOUS
 10
9.929944
 20
6.438210
 30
0.000000
 11
9.929944
 21
6.138740
 31
0.000000
  0
LINE
  8
HUB
 62
     7
  6
CONTINUOUS
 10
9.992444
 20
6.438210
 30
0.000000
 11
9.992444
 21
6.138740
 31
0.000000
  0
LINE
  8
HUB
 62
     7
  6
CONTINUOUS
 10
10.054944
 20
6.438210
 30
0.000000
 11
10.054944
 21
6.138740
 31
0.000000
  0
LINE
  8
HUB
 62
     7
  6
CONTINUOUS
 10
9.494444
 20
6.496476
 30
0.000000
 11
10.494444
 21
6.496476
 31
0.000000
  0
LINE
  8
HUB
 62
     7
  6
CONTINUOUS
 10
9.494444
 20
6.080476
 30
0.000000
 11
10.494444
 21
6.080476
 31
0.000000
  0
LINE
  8
HUB
 62
     7
  6
CONTINUOUS
 10
9.494444
 20
2.326476
 30
0.000000
 11
10.494444
 21
2.326476
 31
0.000000
  0
LINE
  8
HUB
 62
     7
  6
CONTINUOUS
 10
9.494444
 20
2.742476
 30
0.000000
 11
10.494444
 21
2.742476
 31
0.000000
  0
POINT
  8
HUB
 62
     7
 10
10.736850
 20
4.411476
 30
0.000000
  0
POINT
  8
HUB
 62
     7
 10
10.736850
 20
4.411476
 30
0.000000
  0
POINT
  8
HUB
 62
     7
 10
10.736850
 20
4.411476
 30
0.000000
  0
POINT
  8
HUB
 62
     7
 10
10.736850
 20
4.411476
 30
0.000000
  0
POINT
  8
HUB
 62
     7
 10
10.736850
 20
4.411476
 30
0.000000
  0
LINE
  8
HUB
 62
     7
  6
CONTINUOUS
 10
10.189440
 20
4.791476
 30
0.000000
 11
9.771444
 21
4.791476
 31
0.000000
  0
LINE
  8
HUB
 62
     7
  6
CONTINUOUS
 10
11.564440
 20
4.411476
 30
0.000000
 11
11.564440
 21
5.911476
 31
0.000000
  0
LINE
  8
HUB
 62
     7
  6
CONTINUOUS
 10
11.564440
 20
5.911476
 30
0.000000
 11
10.494444
 21
5.911476
 31
0.000000
  0
POINT
  8
HUB
 62
     7
 10
10.736850
 20
4.411476
 30
0.000000
  0
POINT
  8
HUB
 62
     7
 10
10.736850
 20
4.411476
 30
0.000000
  0
POINT
  8
HUB
 62
     7
 10
10.736850
 20
4.411476
 30
0.000000
  0
POINT
  8
HUB
 62
     7
 10
10.736850
 20
4.411476
 30
0.000000
  0
POINT
  8
HUB
 62
     7
 10
10.736850
 20
4.411476
 30
0.000000
  0
LINE
  8
HUB
 62
     7
  6
CONTINUOUS
 10
10.189440
 20
4.031476
 30
0.000000
 11
9.771444
 21
4.031476
 31
0.000000
  0
LINE
  8
HUB
 62
     7
  6
CONTINUOUS
 10
11.564440
 20
4.411476
 30
0.000000
 11
11.564440
 21
2.911476
 31
0.000000
  0
LINE
  8
HUB
 62
     7
  6
CONTINUOUS
 10
11.564440
 20
2.911476
 30
0.000000
 11
10.494444
 21
2.911476
 31
0.000000
  0
POINT
  8
HUB
 62
     7
 10
9.814439
 20
4.411476
 30
0.000000
  0
POINT
  8
HUB
 62
     7
 10
9.769444
 20
4.411476
 30
0.000000
  0
LINE
  8
HUB
 62
     7
  6
CONTINUOUS
 10
9.494444
 20
5.886476
 30
0.000000
 11
9.771444
 21
5.886476
 31
0.000000
  0
LINE
  8
HUB
 62
     7
  6
CONTINUOUS
 10
9.771444
 20
5.886476
 30
0.000000
 11
9.771444
 21
4.411476
 31
0.000000
  0
LINE
  8
HUB
 62
     7
  6
CONTINUOUS
 10
11.564440
 20
5.536476
 30
0.000000
 11
11.564440
 21
5.348968
 31
0.000000
  0
LINE
  8
HUB
 62
     7
  6
CONTINUOUS
 10
11.564440
 20
5.348968
 30
0.000000
 11
10.189440
 21
5.211476
 31
0.000000
  0
LINE
  8
HUB
 62
     7
  6
CONTINUOUS
 10
10.189440
 20
5.211476
 30
0.000000
 11
10.189440
 21
4.411476
 31
0.000000
  0
LINE
  8
HUB
 62
     7
  6
CONTINUOUS
 10
11.564440
 20
4.411476
 30
0.000000
 11
11.564440
 21
5.536476
 31
0.000000
  0
POINT
  8
HUB
 62
     7
 10
9.814439
 20
3.819181
 30
0.000000
  0
POINT
  8
HUB
 62
     7
 10
9.814439
 20
3.888075
 30
0.000000
  0
LINE
  8
HUB
 62
     7
  6
CONTINUOUS
 10
9.814439
 20
3.888075
 30
0.000000
 11
10.001939
 21
3.888075
 31
0.000000
  0
LINE
  8
HUB
 62
     7
  6
CONTINUOUS
 10
10.001939
 20
3.528675
 30
0.000000
 11
10.001939
 21
3.888075
 31
0.000000
  0
POINT
  8
HUB
 62
     7
 10
10.001939
 20
3.709398
 30
0.000000
  0
POINT
  8
HUB
 62
     7
 10
10.001939
 20
3.810948
 30
0.000000
  0
POINT
  8
HUB
 62
     7
 10
10.001939
 20
3.607848
 30
0.000000
  0
LINE
  8
HUB
 62
     7
  6
CONTINUOUS
 10
10.001939
 20
3.528675
 30
0.000000
 11
9.769444
 21
3.528675
 31
0.000000
  0
LINE
  8
HUB
 62
     7
  6
CONTINUOUS
 10
10.001939
 20
3.810948
 30
0.000000
 11
10.189440
 21
3.810948
 31
0.000000
  0
LINE
  8
HUB
 62
     7
  6
CONTINUOUS
 10
9.769444
 20
3.528675
 30
0.000000
 11
10.001939
 21
3.528675
 31
0.000000
  0
LINE
  8
HUB
 62
     7
  6
CONTINUOUS
 10
10.001939
 20
3.528675
 30
0.000000
 11
10.001939
 21
3.888075
 31
0.000000
  0
LINE
  8
HUB
 62
     7
  6
CONTINUOUS
 10
10.001939
 20
3.888075
 30
0.000000
 11
9.771444
 21
3.888075
 31
0.000000
  0
LINE
  8
HUB
 62
     7
  6
CONTINUOUS
 10
10.001939
 20
3.810948
 30
0.000000
 11
10.189440
 21
3.810948
 31
0.000000
  0
LINE
  8
HUB
 62
     7
  6
CONTINUOUS
 10
10.001939
 20
3.607848
 30
0.000000
 11
10.189440
 21
3.607848
 31
0.000000
  0
POINT
  8
HUB
 62
     7
 10
9.814439
 20
4.411476
 30
0.000000
  0
POINT
  8
HUB
 62
     7
 10
9.769444
 20
4.411476
 30
0.000000
  0
LINE
  8
HUB
 62
     7
  6
CONTINUOUS
 10
9.494444
 20
2.936476
 30
0.000000
 11
9.771444
 21
2.936476
 31
0.000000
  0
LINE
  8
HUB
 62
     7
  6
CONTINUOUS
 10
9.771444
 20
2.936476
 30
0.000000
 11
9.771444
 21
4.411476
 31
0.000000
  0
LINE
  8
HUB
 62
     7
  6
CONTINUOUS
 10
11.564440
 20
3.286476
 30
0.000000
 11
11.564440
 21
3.473983
 31
0.000000
  0
LINE
  8
HUB
 62
     7
  6
CONTINUOUS
 10
11.564440
 20
3.473983
 30
0.000000
 11
10.189440
 21
3.611475
 31
0.000000
  0
LINE
  8
HUB
 62
     7
  6
CONTINUOUS
 10
10.189440
 20
3.611475
 30
0.000000
 11
10.189440
 21
4.411476
 31
0.000000
  0
LINE
  8
HUB
 62
     7
  6
CONTINUOUS
 10
11.564440
 20
4.411476
 30
0.000000
 11
11.564440
 21
3.286476
 31
0.000000
  0
LINE
  8
HUB
 62
     7
  6
CONTINUOUS
 10
10.148193
 20
6.460326
 30
0.000000
 11
10.148193
 21
6.116625
 31
0.000000
  0
LINE
  8
HUB
 62
     7
  6
CONTINUOUS
 10
10.208193
 20
6.460326
 30
0.000000
 11
10.208193
 21
6.116625
 31
0.000000
  0
LINE
  8
HUB
 62
     7
  6
CONTINUOUS
 10
10.268193
 20
6.460326
 30
0.000000
 11
10.268193
 21
6.116625
 31
0.000000
  0
LINE
  8
HUB
 62
     7
  6
CONTINUOUS
 10
10.328193
 20
6.460326
 30
0.000000
 11
10.328193
 21
6.116625
 31
0.000000
  0
LINE
  8
HUB
 62
     7
  6
CONTINUOUS
 10
10.388193
 20
6.460326
 30
0.000000
 11
10.388193
 21
6.116625
 31
0.000000
  0
LINE
  8
HUB
 62
     7
  6
CONTINUOUS
 10
10.114944
 20
6.438210
 30
0.000000
 11
10.114944
 21
6.138740
 31
0.000000
  0
LINE
  8
HUB
 62
     7
  6
CONTINUOUS
 10
10.174944
 20
6.438210
 30
0.000000
 11
10.174944
 21
6.138740
 31
0.000000
  0
LINE
  8
HUB
 62
     7
  6
CONTINUOUS
 10
10.234944
 20
6.438210
 30
0.000000
 11
10.234944
 21
6.138740
 31
0.000000
  0
LINE
  8
HUB
 62
     7
  6
CONTINUOUS
 10
10.294944
 20
6.438210
 30
0.000000
 11
10.294944
 21
6.138740
 31
0.000000
  0
LINE
  8
HUB
 62
     7
  6
CONTINUOUS
 10
10.354944
 20
6.438210
 30
0.000000
 11
10.354944
 21
6.138740
 31
0.000000
  0
POINT
  8
HUB
 62
     7
 10
9.492444
 20
2.534476
 30
0.000000
  0
POINT
  8
HUB
 62
     7
 10
9.492444
 20
2.534476
 30
0.000000
  0
POINT
  8
HUB
 62
     7
 10
9.492444
 20
2.534476
 30
0.000000
  0
POINT
  8
HUB
 62
     7
 10
9.523444
 20
2.534476
 30
0.000000
  0
POINT
  8
HUB
 62
     7
 10
9.554944
 20
2.534476
 30
0.000000
  0
POINT
  8
HUB
 62
     7
 10
9.586194
 20
2.534476
 30
0.000000
  0
POINT
  8
HUB
 62
     7
 10
9.617444
 20
2.534476
 30
0.000000
  0
LINE
  8
HUB
 62
     7
  6
CONTINUOUS
 10
9.523444
 20
2.362625
 30
0.000000
 11
9.523444
 21
2.706326
 31
0.000000
  0
LINE
  8
HUB
 62
     7
  6
CONTINUOUS
 10
9.554944
 20
2.384741
 30
0.000000
 11
9.554944
 21
2.684211
 31
0.000000
  0
LINE
  8
HUB
 62
     7
  6
CONTINUOUS
 10
9.586194
 20
2.362625
 30
0.000000
 11
9.586194
 21
2.706326
 31
0.000000
  0
LINE
  8
HUB
 62
     7
  6
CONTINUOUS
 10
9.648944
 20
2.362625
 30
0.000000
 11
9.648944
 21
2.706326
 31
0.000000
  0
LINE
  8
HUB
 62
     7
  6
CONTINUOUS
 10
9.711694
 20
2.362625
 30
0.000000
 11
9.711694
 21
2.706326
 31
0.000000
  0
LINE
  8
HUB
 62
     7
  6
CONTINUOUS
 10
9.774444
 20
2.362625
 30
0.000000
 11
9.774444
 21
2.706326
 31
0.000000
  0
LINE
  8
HUB
 62
     7
  6
CONTINUOUS
 10
9.837194
 20
2.362625
 30
0.000000
 11
9.837194
 21
2.706326
 31
0.000000
  0
LINE
  8
HUB
 62
     7
  6
CONTINUOUS
 10
9.899943
 20
2.362625
 30
0.000000
 11
9.899943
 21
2.706326
 31
0.000000
  0
LINE
  8
HUB
 62
     7
  6
CONTINUOUS
 10
9.962693
 20
2.362625
 30
0.000000
 11
9.962693
 21
2.706326
 31
0.000000
  0
LINE
  8
HUB
 62
     7
  6
CONTINUOUS
 10
10.025443
 20
2.362625
 30
0.000000
 11
10.025443
 21
2.706326
 31
0.000000
  0
LINE
  8
HUB
 62
     7
  6
CONTINUOUS
 10
10.088193
 20
2.362625
 30
0.000000
 11
10.088193
 21
2.706326
 31
0.000000
  0
LINE
  8
HUB
 62
     7
  6
CONTINUOUS
 10
9.617444
 20
2.384741
 30
0.000000
 11
9.617444
 21
2.684211
 31
0.000000
  0
LINE
  8
HUB
 62
     7
  6
CONTINUOUS
 10
9.679944
 20
2.384741
 30
0.000000
 11
9.679944
 21
2.684211
 31
0.000000
  0
LINE
  8
HUB
 62
     7
  6
CONTINUOUS
 10
9.742444
 20
2.384741
 30
0.000000
 11
9.742444
 21
2.684211
 31
0.000000
  0
LINE
  8
HUB
 62
     7
  6
CONTINUOUS
 10
9.804944
 20
2.384741
 30
0.000000
 11
9.804944
 21
2.684211
 31
0.000000
  0
LINE
  8
HUB
 62
     7
  6
CONTINUOUS
 10
9.867444
 20
2.384741
 30
0.000000
 11
9.867444
 21
2.684211
 31
0.000000
  0
LINE
  8
HUB
 62
     7
  6
CONTINUOUS
 10
9.929944
 20
2.384741
 30
0.000000
 11
9.929944
 21
2.684211
 31
0.000000
  0
LINE
  8
HUB
 62
     7
  6
CONTINUOUS
 10
9.992444
 20
2.384741
 30
0.000000
 11
9.992444
 21
2.684211
 31
0.000000
  0
LINE
  8
HUB
 62
     7
  6
CONTINUOUS
 10
10.054944
 20
2.384741
 30
0.000000
 11
10.054944
 21
2.684211
 31
0.000000
  0
LINE
  8
HUB
 62
     7
  6
CONTINUOUS
 10
10.148193
 20
2.362625
 30
0.000000
 11
10.148193
 21
2.706326
 31
0.000000
  0
LINE
  8
HUB
 62
     7
  6
CONTINUOUS
 10
10.208193
 20
2.362625
 30
0.000000
 11
10.208193
 21
2.706326
 31
0.000000
  0
LINE
  8
HUB
 62
     7
  6
CONTINUOUS
 10
10.268193
 20
2.362625
 30
0.000000
 11
10.268193
 21
2.706326
 31
0.000000
  0
LINE
  8
HUB
 62
     7
  6
CONTINUOUS
 10
10.328193
 20
2.362625
 30
0.000000
 11
10.328193
 21
2.706326
 31
0.000000
  0
LINE
  8
HUB
 62
     7
  6
CONTINUOUS
 10
10.388193
 20
2.362625
 30
0.000000
 11
10.388193
 21
2.706326
 31
0.000000
  0
LINE
  8
HUB
 62
     7
  6
CONTINUOUS
 10
10.114944
 20
2.384741
 30
0.000000
 11
10.114944
 21
2.684211
 31
0.000000
  0
LINE
  8
HUB
 62
     7
  6
CONTINUOUS
 10
10.174944
 20
2.384741
 30
0.000000
 11
10.174944
 21
2.684211
 31
0.000000
  0
LINE
  8
HUB
 62
     7
  6
CONTINUOUS
 10
10.234944
 20
2.384741
 30
0.000000
 11
10.234944
 21
2.684211
 31
0.000000
  0
LINE
  8
HUB
 62
     7
  6
CONTINUOUS
 10
10.294944
 20
2.384741
 30
0.000000
 11
10.294944
 21
2.684211
 31
0.000000
  0
LINE
  8
HUB
 62
     7
  6
CONTINUOUS
 10
10.354944
 20
2.384741
 30
0.000000
 11
10.354944
 21
2.684211
 31
0.000000
  0
LINE
  8
HUB
 62
     7
  6
CONTINUOUS
 10
10.196628
 20
6.288476
 30
0.000000
 11
9.248185
 21
6.288476
 31
0.000000
  0
LINE
  8
HUB
 62
     7
  6
CONTINUOUS
 10
10.196628
 20
2.534476
 30
0.000000
 11
9.248185
 21
2.534476
 31
0.000000
  0
LINE
  8
DIEM
 62
     1
  6
CONTINUOUS
 10
9.494444
 20
1.295338
 30
0.000000
 11
9.301259
 21
1.243575
 31
0.000000
  0
LINE
  8
DIEM
 62
     1
  6
CONTINUOUS
 10
9.494444
 20
1.295338
 30
0.000000
 11
9.301259
 21
1.347102
 31
0.000000
  0
LINE
  8
DIEM
 62
     1
  6
CONTINUOUS
 10
9.771444
 20
1.295338
 30
0.000000
 11
9.964629
 21
1.347102
 31
0.000000
  0
LINE
  8
DIEM
 62
     1
  6
CONTINUOUS
 10
9.771444
 20
1.295338
 30
0.000000
 11
9.964629
 21
1.243575
 31
0.000000
  0
LINE
  8
DIEM
 62
     1
  6
CONTINUOUS
 10
9.494444
 20
1.841476
 30
0.000000
 11
9.494444
 21
1.245338
 31
0.000000
  0
LINE
  8
DIEM
 62
     1
  6
CONTINUOUS
 10
9.771444
 20
2.866476
 30
0.000000
 11
9.771444
 21
1.245338
 31
0.000000
  0
TEXT
  8
DIEM
 62
     7
 10
10.236917
 20
1.229756
 30
0.000000
 40
0.125000
  1
.277
  0
TEXT
  8
DIEM
 62
     7
 10
10.586041
 20
1.345339
 30
0.000000
 40
0.125000
  1
+.005
  0
TEXT
  8
DIEM
 62
     7
 10
10.586041
 20
1.114173
 30
0.000000
 40
0.125000
  1
-.000
  0
LINE
  8
DIEM
 62
     1
  6
CONTINUOUS
 10
9.494444
 20
1.295338
 30
0.000000
 11
9.094444
 21
1.295338
 31
0.000000
  0
LINE
  8
DIEM
 62
     1
  6
CONTINUOUS
 10
9.771444
 20
1.295338
 30
0.000000
 11
10.171444
 21
1.295338
 31
0.000000
  0
LINE
  8
DIEM
 62
     1
  6
CONTINUOUS
 10
10.189440
 20
4.504268
 30
0.000000
 11
10.382625
 21
4.556032
 31
0.000000
  0
LINE
  8
DIEM
 62
     1
  6
CONTINUOUS
 10
10.189440
 20
4.504268
 30
0.000000
 11
10.382625
 21
4.452504
 31
0.000000
  0
LINE
  8
DIEM
 62
     1
  6
CONTINUOUS
 10
11.564440
 20
4.504268
 30
0.000000
 11
11.371255
 21
4.452504
 31
0.000000
  0
LINE
  8
DIEM
 62
     1
  6
CONTINUOUS
 10
11.564440
 20
4.504268
 30
0.000000
 11
11.371255
 21
4.556032
 31
0.000000
  0
LINE
  8
DIEM
 62
     1
  6
CONTINUOUS
 10
10.189440
 20
4.101476
 30
0.000000
 11
10.189440
 21
4.554268
 31
0.000000
  0
LINE
  8
DIEM
 62
     1
  6
CONTINUOUS
 10
11.564440
 20
4.101476
 30
0.000000
 11
11.564440
 21
4.554268
 31
0.000000
  0
TEXT
  8
DIEM
 62
     7
 10
10.714380
 20
4.438765
 30
0.000000
 40
0.125000
  1
1.38
  0
LINE
  8
DIEM
 62
     1
  6
CONTINUOUS
 10
10.189440
 20
4.504268
 30
0.000000
 11
10.664381
 21
4.504268
 31
0.000000
  0
LINE
  8
DIEM
 62
     1
  6
CONTINUOUS
 10
11.089498
 20
4.504268
 30
0.000000
 11
11.564440
 21
4.504268
 31
0.000000
  0
LINE
  8
DIEM
 62
     1
  6
CONTINUOUS
 10
12.400157
 20
2.911476
 30
0.000000
 11
12.348393
 21
3.104661
 31
0.000000
  0
LINE
  8
DIEM
 62
     1
  6
CONTINUOUS
 10
12.400157
 20
2.911476
 30
0.000000
 11
12.451921
 21
3.104661
 31
0.000000
  0
LINE
  8
DIEM
 62
     1
  6
CONTINUOUS
 10
12.400157
 20
5.911476
 30
0.000000
 11
12.451921
 21
5.718290
 31
0.000000
  0
LINE
  8
DIEM
 62
     1
  6
CONTINUOUS
 10
12.400157
 20
5.911476
 30
0.000000
 11
12.348393
 21
5.718290
 31
0.000000
  0
LINE
  8
DIEM
 62
     1
  6
CONTINUOUS
 10
11.634440
 20
2.911476
 30
0.000000
 11
12.450157
 21
2.911476
 31
0.000000
  0
LINE
  8
DIEM
 62
     1
  6
CONTINUOUS
 10
11.634440
 20
5.911476
 30
0.000000
 11
12.450157
 21
5.911476
 31
0.000000
  0
TEXT
  8
DIEM
 62
     7
 10
12.269887
 20
4.346124
 30
0.000000
 40
0.125000
  1
3.0
  0
LINE
  8
DIEM
 62
     1
  6
CONTINUOUS
 10
12.400157
 20
2.911476
 30
0.000000
 11
12.400157
 21
4.296124
 31
0.000000
  0
LINE
  8
DIEM
 62
     1
  6
CONTINUOUS
 10
12.400157
 20
4.526828
 30
0.000000
 11
12.400157
 21
5.911476
 31
0.000000
  0
POINT
  8
BUSH
 62
     7
 10
14.687024
 20
4.411475
 30
0.000000
  0
POINT
  8
BUSH
 62
     7
 10
14.687024
 20
4.411475
 30
0.000000
  0
LINE
  8
BUSH
 62
     7
  6
CONTINUOUS
 10
14.687024
 20
4.411475
 30
0.000000
 11
14.687024
 21
3.598974
 31
0.000000
  0
POINT
  8
BUSH
 62
     7
 10
15.812345
 20
5.114582
 30
0.000000
  0
POINT
  8
BUSH
 62
     7
 10
15.812345
 20
5.114582
 30
0.000000
  0
POINT
  8
BUSH
 62
     7
 10
15.812352
 20
5.114582
 30
0.000000
  0
POINT
  8
BUSH
 62
     7
 10
15.812352
 20
5.114582
 30
0.000000
  0
POINT
  8
BUSH
 62
     7
 10
14.685884
 20
5.115502
 30
0.000000
  0
POINT
  8
BUSH
 62
     7
 10
14.810884
 20
5.115502
 30
0.000000
  0
POINT
  8
BUSH
 62
     7
 10
14.935884
 20
5.115502
 30
0.000000
  0
POINT
  8
BUSH
 62
     7
 10
14.935884
 20
5.115502
 30
0.000000
  0
LINE
  8
BUSH
 62
     7
  6
CONTINUOUS
 10
14.810884
 20
5.115502
 30
0.000000
 11
14.810884
 21
5.170202
 31
0.000000
  0
LINE
  8
BUSH
 62
     7
  6
CONTINUOUS
 10
14.810884
 20
5.115502
 30
0.000000
 11
14.810884
 21
5.060802
 31
0.000000
  0
LINE
  8
BUSH
 62
     7
  6
CONTINUOUS
 10
14.935884
 20
5.115502
 30
0.000000
 11
14.935884
 21
5.201888
 31
0.000000
  0
LINE
  8
BUSH
 62
     7
  6
CONTINUOUS
 10
14.935884
 20
5.115502
 30
0.000000
 11
14.935884
 21
5.029116
 31
0.000000
  0
POINT
  8
BUSH
 62
     7
 10
15.185884
 20
5.115502
 30
0.000000
  0
POINT
  8
BUSH
 62
     7
 10
15.060884
 20
5.115502
 30
0.000000
  0
POINT
  8
BUSH
 62
     7
 10
15.060884
 20
5.115502
 30
0.000000
  0
LINE
  8
BUSH
 62
     7
  6
CONTINUOUS
 10
15.060884
 20
5.115502
 30
0.000000
 11
15.060884
 21
5.170202
 31
0.000000
  0
LINE
  8
BUSH
 62
     7
  6
CONTINUOUS
 10
15.060884
 20
5.115502
 30
0.000000
 11
15.060884
 21
5.060802
 31
0.000000
  0
POINT
  8
BUSH
 62
     7
 10
15.310884
 20
5.115502
 30
0.000000
  0
LINE
  8
BUSH
 62
     7
  6
CONTINUOUS
 10
15.310884
 20
5.115502
 30
0.000000
 11
15.310884
 21
5.170202
 31
0.000000
  0
LINE
  8
BUSH
 62
     7
  6
CONTINUOUS
 10
15.310884
 20
5.115502
 30
0.000000
 11
15.310884
 21
5.060802
 31
0.000000
  0
POINT
  8
BUSH
 62
     7
 10
15.560884
 20
5.115502
 30
0.000000
  0
LINE
  8
BUSH
 62
     7
  6
CONTINUOUS
 10
15.560884
 20
5.115502
 30
0.000000
 11
15.560884
 21
5.170202
 31
0.000000
  0
LINE
  8
BUSH
 62
     7
  6
CONTINUOUS
 10
15.560884
 20
5.115502
 30
0.000000
 11
15.560884
 21
5.060802
 31
0.000000
  0
POINT
  8
BUSH
 62
     7
 10
15.810884
 20
5.115502
 30
0.000000
  0
LINE
  8
BUSH
 62
     7
  6
CONTINUOUS
 10
15.810884
 20
5.115502
 30
0.000000
 11
15.810884
 21
5.170202
 31
0.000000
  0
LINE
  8
BUSH
 62
     7
  6
CONTINUOUS
 10
15.810884
 20
5.115502
 30
0.000000
 11
15.810884
 21
5.060802
 31
0.000000
  0
POINT
  8
BUSH
 62
     7
 10
15.185884
 20
5.115502
 30
0.000000
  0
POINT
  8
BUSH
 62
     7
 10
15.185884
 20
5.115502
 30
0.000000
  0
LINE
  8
BUSH
 62
     7
  6
CONTINUOUS
 10
15.185884
 20
5.115502
 30
0.000000
 11
15.185884
 21
5.201888
 31
0.000000
  0
LINE
  8
BUSH
 62
     7
  6
CONTINUOUS
 10
15.185884
 20
5.115502
 30
0.000000
 11
15.185884
 21
5.029116
 31
0.000000
  0
POINT
  8
BUSH
 62
     7
 10
15.435884
 20
5.115502
 30
0.000000
  0
POINT
  8
BUSH
 62
     7
 10
15.435884
 20
5.115502
 30
0.000000
  0
LINE
  8
BUSH
 62
     7
  6
CONTINUOUS
 10
15.435884
 20
5.115502
 30
0.000000
 11
15.435884
 21
5.201888
 31
0.000000
  0
LINE
  8
BUSH
 62
     7
  6
CONTINUOUS
 10
15.435884
 20
5.115502
 30
0.000000
 11
15.435884
 21
5.029116
 31
0.000000
  0
POINT
  8
BUSH
 62
     7
 10
15.685884
 20
5.115502
 30
0.000000
  0
POINT
  8
BUSH
 62
     7
 10
15.685884
 20
5.115502
 30
0.000000
  0
LINE
  8
BUSH
 62
     7
  6
CONTINUOUS
 10
15.685884
 20
5.115502
 30
0.000000
 11
15.685884
 21
5.201888
 31
0.000000
  0
LINE
  8
BUSH
 62
     7
  6
CONTINUOUS
 10
15.685884
 20
5.115502
 30
0.000000
 11
15.685884
 21
5.029116
 31
0.000000
  0
POINT
  8
BUSH
 62
     7
 10
14.687024
 20
4.411475
 30
0.000000
  0
LINE
  8
BUSH
 62
     7
  6
CONTINUOUS
 10
14.687024
 20
5.223975
 30
0.000000
 11
14.687024
 21
4.411475
 31
0.000000
  0
LINE
  8
BUSH
 62
     7
  6
CONTINUOUS
 10
15.937024
 20
4.411475
 30
0.000000
 11
15.937024
 21
5.348975
 31
0.000000
  0
LINE
  8
BUSH
 62
     7
  6
CONTINUOUS
 10
15.937024
 20
4.411475
 30
0.000000
 11
15.937024
 21
3.473974
 31
0.000000
  0
LINE
  8
BUSH
 62
     7
  6
CONTINUOUS
 10
14.687024
 20
4.973966
 30
0.000000
 11
15.937024
 21
4.973966
 31
0.000000
  0
LINE
  8
BUSH
 62
     7
  6
CONTINUOUS
 10
14.687024
 20
5.028633
 30
0.000000
 11
15.937024
 21
5.028633
 31
0.000000
  0
LINE
  8
BUSH
 62
     7
  6
CONTINUOUS
 10
14.689531
 20
3.848983
 30
0.000000
 11
15.937024
 21
3.848983
 31
0.000000
  0
LINE
  8
BUSH
 62
     7
  6
CONTINUOUS
 10
14.687024
 20
3.598974
 30
0.000000
 11
15.937024
 21
3.473974
 31
0.000000
  0
LINE
  8
BUSH
 62
     7
  6
CONTINUOUS
 10
14.687024
 20
5.223975
 30
0.000000
 11
15.937024
 21
5.348975
 31
0.000000
  0
LINE
  8
BUSH
 62
     7
  6
CONTINUOUS
 10
14.687024
 20
5.200532
 30
0.000000
 11
15.937024
 21
5.200532
 31
0.000000
  0
LINE
  8
BUSH
 62
     7
  6
CONTINUOUS
 10
14.685884
 20
5.115502
 30
0.000000
 11
15.937024
 21
5.115502
 31
0.000000
  0
LINE
  8
BUSH
 62
     7
  6
CONTINUOUS
 10
14.687024
 20
5.756249
 30
0.000000
 11
14.795278
 21
5.818749
 31
0.000000
  0
LINE
  8
BUSH
 62
     7
  6
CONTINUOUS
 10
14.687024
 20
5.756249
 30
0.000000
 11
14.795278
 21
5.693749
 31
0.000000
  0
LINE
  8
BUSH
 62
     7
  6
CONTINUOUS
 10
15.937024
 20
5.756249
 30
0.000000
 11
15.828771
 21
5.693749
 31
0.000000
  0
LINE
  8
BUSH
 62
     7
  6
CONTINUOUS
 10
15.937024
 20
5.756249
 30
0.000000
 11
15.828771
 21
5.818749
 31
0.000000
  0
LINE
  8
BUSH
 62
     7
  6
CONTINUOUS
 10
14.687024
 20
5.286475
 30
0.000000
 11
14.687024
 21
6.006249
 31
0.000000
  0
LINE
  8
BUSH
 62
     7
  6
CONTINUOUS
 10
15.937024
 20
5.411475
 30
0.000000
 11
15.937024
 21
6.006249
 31
0.000000
  0
TEXT
  8
BUSH
 62
     7
 10
14.936587
 20
5.693677
 30
0.000000
 40
0.125000
  1
1 1/4"
  0
LINE
  8
BUSH
 62
     7
  6
CONTINUOUS
 10
14.687024
 20
5.756249
 30
0.000000
 11
14.905339
 21
5.756249
 31
0.000000
  0
LINE
  8
BUSH
 62
     7
  6
CONTINUOUS
 10
15.718710
 20
5.756249
 30
0.000000
 11
15.937024
 21
5.756249
 31
0.000000
  0
LINE
  8
BUSH
 62
     7
  6
CONTINUOUS
 10
14.215926
 20
3.598974
 30
0.000000
 11
14.153426
 21
3.707227
 31
0.000000
  0
LINE
  8
BUSH
 62
     7
  6
CONTINUOUS
 10
14.215926
 20
3.598974
 30
0.000000
 11
14.278426
 21
3.707227
 31
0.000000
  0
LINE
  8
BUSH
 62
     7
  6
CONTINUOUS
 10
14.215926
 20
5.223975
 30
0.000000
 11
14.278426
 21
5.115721
 31
0.000000
  0
LINE
  8
BUSH
 62
     7
  6
CONTINUOUS
 10
14.215926
 20
5.223975
 30
0.000000
 11
14.153426
 21
5.115721
 31
0.000000
  0
LINE
  8
BUSH
 62
     7
  6
CONTINUOUS
 10
14.624524
 20
3.598974
 30
0.000000
 11
13.965926
 21
3.598974
 31
0.000000
  0
LINE
  8
BUSH
 62
     7
  6
CONTINUOUS
 10
14.624524
 20
5.223975
 30
0.000000
 11
13.965926
 21
5.223975
 31
0.000000
  0
TEXT
  8
BUSH
 62
     7
 10
13.837779
 20
4.572577
 30
0.000000
 40
0.125000
  1
1 5/8"
  0
LINE
  8
BUSH
 62
     7
  6
CONTINUOUS
 10
14.215926
 20
3.598974
 30
0.000000
 11
14.215926
 21
4.541327
 31
0.000000
  0
LINE
  8
BUSH
 62
     7
  6
CONTINUOUS
 10
14.215926
 20
4.729877
 30
0.000000
 11
14.215926
 21
5.223975
 31
0.000000
  0
LINE
  8
BUSH
 62
     7
  6
CONTINUOUS
 10
14.916772
 20
3.570987
 30
0.000000
 11
14.995570
 21
3.473951
 31
0.000000
  0
LINE
  8
BUSH
 62
     7
  6
CONTINUOUS
 10
14.916772
 20
3.570987
 30
0.000000
 11
14.872136
 21
3.454228
 31
0.000000
  0
LINE
  8
BUSH
 62
     7
  6
CONTINUOUS
 10
14.916772
 20
3.570987
 30
0.000000
 11
14.945176
 21
3.393227
 31
0.000000
  0
LINE
  8
BUSH
 62
     7
  6
CONTINUOUS
 10
14.945176
 20
3.393227
 30
0.000000
 11
14.820176
 21
3.393227
 31
0.000000
  0
TEXT
  8
BUSH
 62
     7
 10
13.806490
 20
3.330726
 30
0.000000
 40
0.125000
  1
2.500TPF
  0
LINE
  8
BUSH
 62
     7
  6
CONTINUOUS
 10
16.335227
 20
3.848983
 30
0.000000
 11
16.272727
 21
3.957236
 31
0.000000
  0
LINE
  8
BUSH
 62
     7
  6
CONTINUOUS
 10
16.335227
 20
3.848983
 30
0.000000
 11
16.397727
 21
3.957236
 31
0.000000
  0
LINE
  8
BUSH
 62
     7
  6
CONTINUOUS
 10
16.335227
 20
4.973966
 30
0.000000
 11
16.397727
 21
4.865713
 31
0.000000
  0
LINE
  8
BUSH
 62
     7
  6
CONTINUOUS
 10
16.335227
 20
4.973966
 30
0.000000
 11
16.272727
 21
4.865713
 31
0.000000
  0
LINE
  8
BUSH
 62
     7
  6
CONTINUOUS
 10
15.999524
 20
3.848983
 30
0.000000
 11
16.585227
 21
3.848983
 31
0.000000
  0
LINE
  8
BUSH
 62
     7
  6
CONTINUOUS
 10
15.999524
 20
4.973966
 30
0.000000
 11
16.585227
 21
4.973966
 31
0.000000
  0
TEXT
  8
BUSH
 62
     7
 10
15.957777
 20
4.199145
 30
0.000000
 40
0.125000
  1
1 1/8"
  0
LINE
  8
BUSH
 62
     7
  6
CONTINUOUS
 10
16.335227
 20
3.848983
 30
0.000000
 11
16.335227
 21
4.167895
 31
0.000000
  0
LINE
  8
BUSH
 62
     7
  6
CONTINUOUS
 10
16.335227
 20
4.356211
 30
0.000000
 11
16.335227
 21
4.973966
 31
0.000000
  0
LINE
  8
BUSH
 62
     7
  6
CONTINUOUS
 10
16.772101
 20
3.473974
 30
0.000000
 11
16.709601
 21
3.582227
 31
0.000000
  0
LINE
  8
BUSH
 62
     7
  6
CONTINUOUS
 10
16.772101
 20
3.473974
 30
0.000000
 11
16.834601
 21
3.582227
 31
0.000000
  0
LINE
  8
BUSH
 62
     7
  6
CONTINUOUS
 10
16.772101
 20
5.348975
 30
0.000000
 11
16.834601
 21
5.240721
 31
0.000000
  0
LINE
  8
BUSH
 62
     7
  6
CONTINUOUS
 10
16.772101
 20
5.348975
 30
0.000000
 11
16.709601
 21
5.240721
 31
0.000000
  0
LINE
  8
BUSH
 62
     7
  6
CONTINUOUS
 10
15.999524
 20
3.473974
 30
0.000000
 11
17.022101
 21
3.473974
 31
0.000000
  0
LINE
  8
BUSH
 62
     7
  6
CONTINUOUS
 10
15.999524
 20
5.348975
 30
0.000000
 11
17.022101
 21
5.348975
 31
0.000000
  0
TEXT
  8
BUSH
 62
     7
 10
16.394652
 20
4.535339
 30
0.000000
 40
0.125000
  1
1 7/8"
  0
LINE
  8
BUSH
 62
     7
  6
CONTINUOUS
 10
16.772101
 20
3.473974
 30
0.000000
 11
16.772101
 21
4.504089
 31
0.000000
  0
LINE
  8
BUSH
 62
     7
  6
CONTINUOUS
 10
16.772101
 20
4.692405
 30
0.000000
 11
16.772101
 21
5.348975
 31
0.000000
  0
TEXT
  8
DIEM
 62
     7
 10
14.882996
 20
2.271995
 30
0.000000
 40
0.120000
  1
BUSHING, HUB
  0
TEXT
  8
DIEM
 62
     7
 10
14.882996
 20
2.091994
 30
0.000000
 40
0.120000
  1
REF ONLY
  0
CIRCLE
  8
PARTS
 62
     7
  6
CONTINUOUS
 10
4.965084
 20
4.411476
 30
0.000000
 40
2.500000
  0
CIRCLE
  8
PARTS
 62
     7
  6
CONTINUOUS
 10
4.965084
 20
4.411476
 30
0.000000
 40
1.475000
  0
CIRCLE
  8
PARTS
 62
     7
  6
CONTINUOUS
 10
4.965084
 20
4.411476
 30
0.000000
 40
0.380000
  0
POINT
  8
PARTS
 62
     7
 10
4.965084
 20
4.411476
 30
0.000000
  0
CIRCLE
  8
PARTS
 62
     7
  6
CONTINUOUS
 10
4.965084
 20
4.411476
 30
0.000000
 40
0.781000
  0
CIRCLE
  8
PARTS
 62
     7
  6
CONTINUOUS
 10
4.574584
 20
5.087841
 30
0.000000
 40
0.093000
  0
CIRCLE
  8
PARTS
 62
     7
  6
CONTINUOUS
 10
4.184084
 20
4.411476
 30
0.000000
 40
0.093000
  0
CIRCLE
  8
PARTS
 62
     7
  6
CONTINUOUS
 10
4.574584
 20
3.735110
 30
0.000000
 40
0.093000
  0
CIRCLE
  8
PARTS
 62
     7
  6
CONTINUOUS
 10
5.355584
 20
3.735110
 30
0.000000
 40
0.093000
  0
CIRCLE
  8
PARTS
 62
     7
  6
CONTINUOUS
 10
5.746084
 20
4.411476
 30
0.000000
 40
0.093000
  0
CIRCLE
  8
PARTS
 62
     7
  6
CONTINUOUS
 10
5.355584
 20
5.087841
 30
0.000000
 40
0.093000
  0
CIRCLE
  8
PARTS
 62
     7
  6
CONTINUOUS
 10
5.355584
 20
3.735110
 30
0.000000
 40
0.179500
  0
CIRCLE
  8
PARTS
 62
     7
  6
CONTINUOUS
 10
5.746084
 20
4.411476
 30
0.000000
 40
0.179500
  0
CIRCLE
  8
PARTS
 62
     7
  6
CONTINUOUS
 10
5.355584
 20
5.087841
 30
0.000000
 40
0.179500
  0
CIRCLE
  8
PARTS
 62
     7
  6
CONTINUOUS
 10
4.574584
 20
5.087841
 30
0.000000
 40
0.179500
  0
CIRCLE
  8
PARTS
 62
     7
  6
CONTINUOUS
 10
4.184084
 20
4.411476
 30
0.000000
 40
0.179500
  0
CIRCLE
  8
PARTS
 62
     7
  6
CONTINUOUS
 10
4.574584
 20
3.735110
 30
0.000000
 40
0.179500
  0
CIRCLE
  8
PARTS
 62
     7
  6
CONTINUOUS
 10
4.965084
 20
6.288476
 30
0.000000
 40
0.195000
  0
CIRCLE
  8
PARTS
 62
     7
  6
CONTINUOUS
 10
4.965084
 20
6.288476
 30
0.000000
 40
0.150000
  0
CIRCLE
  8
PARTS
 62
     7
  6
CONTINUOUS
 10
4.965084
 20
6.288476
 30
0.000000
 40
0.195000
  0
CIRCLE
  8
PARTS
 62
     7
  6
CONTINUOUS
 10
4.965084
 20
6.288476
 30
0.000000
 40
0.150000
  0
CIRCLE
  8
PARTS
 62
     7
  6
CONTINUOUS
 10
4.965084
 20
6.288476
 30
0.000000
 40
0.195000
  0
CIRCLE
  8
PARTS
 62
     7
  6
CONTINUOUS
 10
4.965084
 20
6.288476
 30
0.000000
 40
0.150000
  0
CIRCLE
  8
PARTS
 62
     7
  6
CONTINUOUS
 10
4.965084
 20
6.288476
 30
0.000000
 40
0.195000
  0
CIRCLE
  8
PARTS
 62
     7
  6
CONTINUOUS
 10
4.965084
 20
6.288476
 30
0.000000
 40
0.150000
  0
CIRCLE
  8
PARTS
 62
     7
  6
CONTINUOUS
 10
4.965084
 20
6.288476
 30
0.000000
 40
0.195000
  0
CIRCLE
  8
PARTS
 62
     7
  6
CONTINUOUS
 10
4.965084
 20
6.288476
 30
0.000000
 40
0.150000
  0
CIRCLE
  8
PARTS
 62
     7
  6
CONTINUOUS
 10
4.965084
 20
6.288476
 30
0.000000
 40
0.150000
  0
CIRCLE
  8
PARTS
 62
     7
  6
CONTINUOUS
 10
3.339554
 20
5.349976
 30
0.000000
 40
0.150000
  0
CIRCLE
  8
PARTS
 62
     7
  6
CONTINUOUS
 10
3.339554
 20
3.472976
 30
0.000000
 40
0.150000
  0
CIRCLE
  8
PARTS
 62
     7
  6
CONTINUOUS
 10
4.965084
 20
2.534476
 30
0.000000
 40
0.150000
  0
CIRCLE
  8
PARTS
 62
     7
  6
CONTINUOUS
 10
6.590614
 20
3.472976
 30
0.000000
 40
0.150000
  0
CIRCLE
  8
PARTS
 62
     7
  6
CONTINUOUS
 10
6.590614
 20
5.349976
 30
0.000000
 40
0.150000
  0
CIRCLE
  8
PARTS
 62
     7
  6
CONTINUOUS
 10
4.965084
 20
4.411476
 30
0.000000
 40
1.877000
  0
CIRCLE
  8
PARTS
 62
     7
  6
CONTINUOUS
 10
4.965084
 20
6.288476
 30
0.000000
 40
0.195000
  0
CIRCLE
  8
PARTS
 62
     7
  6
CONTINUOUS
 10
3.339554
 20
5.349976
 30
0.000000
 40
0.195000
  0
CIRCLE
  8
PARTS
 62
     7
  6
CONTINUOUS
 10
3.339554
 20
3.472976
 30
0.000000
 40
0.195000
  0
CIRCLE
  8
PARTS
 62
     7
  6
CONTINUOUS
 10
4.965084
 20
2.534476
 30
0.000000
 40
0.195000
  0
CIRCLE
  8
PARTS
 62
     7
  6
CONTINUOUS
 10
6.590614
 20
3.472976
 30
0.000000
 40
0.195000
  0
CIRCLE
  8
PARTS
 62
     7
  6
CONTINUOUS
 10
6.590614
 20
5.349976
 30
0.000000
 40
0.195000
  0
LINE
  8
DIEM
 62
     1
  6
CONTINUOUS
 10
4.228410
 20
7.496933
 30
0.000000
 11
3.978410
 21
7.496933
 31
0.000000
  0
LINE
  8
DIEM
 62
     1
  6
CONTINUOUS
 10
4.529189
 20
6.237160
 30
0.000000
 11
4.624401
 21
6.061278
 31
0.000000
  0
LINE
  8
DIEM
 62
     1
  6
CONTINUOUS
 10
4.529189
 20
6.237160
 30
0.000000
 11
4.523704
 21
6.037236
 31
0.000000
  0
LINE
  8
DIEM
 62
     1
  6
CONTINUOUS
 10
4.624401
 20
6.061278
 30
0.000000
 11
4.523704
 21
6.037236
 31
0.000000
  0
LINE
  8
DIEM
 62
     1
  6
CONTINUOUS
 10
5.400979
 20
2.585791
 30
0.000000
 11
5.305767
 21
2.761673
 31
0.000000
  0
LINE
  8
DIEM
 62
     1
  6
CONTINUOUS
 10
5.400979
 20
2.585791
 30
0.000000
 11
5.406464
 21
2.785716
 31
0.000000
  0
LINE
  8
DIEM
 62
     1
  6
CONTINUOUS
 10
5.305767
 20
2.761673
 30
0.000000
 11
5.406464
 21
2.785716
 31
0.000000
  0
TEXT
  8
DIEM
 62
     7
 10
3.275355
 20
7.546933
 30
0.000000
 40
0.125000
  1
3.755
  0
TEXT
  8
DIEM
 62
     7
 10
3.275355
 20
7.319060
 30
0.000000
 40
0.125000
  1
3.753
  0
TEXT
  8
DIEM
 62
     7
 10
2.902686
 20
7.431949
 30
0.000000
 40
0.125000
  1
 BC 
  0
LINE
  8
DIEM
 62
     1
  6
CONTINUOUS
 10
5.400979
 20
2.585791
 30
0.000000
 11
4.228410
 21
7.496933
 31
0.000000
  0
LINE
  8
DIEM
 62
     1
  6
CONTINUOUS
 10
5.054386
 20
6.481388
 30
0.000000
 11
5.044912
 21
6.681164
 31
0.000000
  0
LINE
  8
DIEM
 62
     1
  6
CONTINUOUS
 10
5.054386
 20
6.481388
 30
0.000000
 11
5.146069
 21
6.659136
 31
0.000000
  0
LINE
  8
DIEM
 62
     1
  6
CONTINUOUS
 10
5.054386
 20
6.481388
 30
0.000000
 11
5.453417
 21
8.313862
 31
0.000000
  0
LINE
  8
DIEM
 62
     1
  6
CONTINUOUS
 10
5.453417
 20
8.313862
 30
0.000000
 11
5.703417
 21
8.313862
 31
0.000000
  0
TEXT
  8
DIEM
 62
     7
 10
5.803417
 20
8.251362
 30
0.000000
 40
0.125000
  1
6X CHAMFER 45X.06,
  0
TEXT
  8
DIEM
 62
     7
 10
5.803417
 20
8.063862
 30
0.000000
 40
0.125000
  1
10MM-1.25 THRU
  0
LINE
  8
DIEM
 62
     1
  6
CONTINUOUS
 10
4.038131
 20
4.311363
 30
0.000000
 11
3.902316
 21
4.164549
 31
0.000000
  0
LINE
  8
DIEM
 62
     1
  6
CONTINUOUS
 10
4.038131
 20
4.311363
 30
0.000000
 11
3.847105
 21
4.252125
 31
0.000000
  0
LINE
  8
DIEM
 62
     1
  6
CONTINUOUS
 10
4.038131
 20
4.311363
 30
0.000000
 11
2.284655
 21
3.205911
 31
0.000000
  0
LINE
  8
DIEM
 62
     1
  6
CONTINUOUS
 10
2.284655
 20
3.205911
 30
0.000000
 11
2.034655
 21
3.205911
 31
0.000000
  0
TEXT
  8
DIEM
 62
     7
 10
1.287794
 20
3.143411
 30
0.000000
 40
0.125000
  1
NOTE A
  0
LINE
  8
DIEM
 62
     1
  6
CONTINUOUS
 10
2.773056
 20
6.369791
 30
0.000000
 11
2.523056
 21
6.369791
 31
0.000000
  0
LINE
  8
DIEM
 62
     1
  6
CONTINUOUS
 10
4.382658
 20
4.931803
 30
0.000000
 11
4.561211
 21
4.841700
 31
0.000000
  0
LINE
  8
DIEM
 62
     1
  6
CONTINUOUS
 10
4.382658
 20
4.931803
 30
0.000000
 11
4.492238
 21
4.764495
 31
0.000000
  0
LINE
  8
DIEM
 62
     1
  6
CONTINUOUS
 10
4.561211
 20
4.841700
 30
0.000000
 11
4.492238
 21
4.764495
 31
0.000000
  0
LINE
  8
DIEM
 62
     1
  6
CONTINUOUS
 10
5.547510
 20
3.891148
 30
0.000000
 11
5.368956
 21
3.981251
 31
0.000000
  0
LINE
  8
DIEM
 62
     1
  6
CONTINUOUS
 10
5.547510
 20
3.891148
 30
0.000000
 11
5.437930
 21
4.058457
 31
0.000000
  0
LINE
  8
DIEM
 62
     1
  6
CONTINUOUS
 10
5.368956
 20
3.981251
 30
0.000000
 11
5.437930
 21
4.058457
 31
0.000000
  0
TEXT
  8
DIEM
 62
     7
 10
1.849834
 20
6.419791
 30
0.000000
 40
0.125000
  1
1.563
  0
TEXT
  8
DIEM
 62
     7
 10
1.849834
 20
6.189090
 30
0.000000
 40
0.125000
  1
1.561
  0
TEXT
  8
DIEM
 62
     7
 10
1.477165
 20
6.304807
 30
0.000000
 40
0.125000
  1
 BC 
  0
LINE
  8
DIEM
 62
     1
  6
CONTINUOUS
 10
5.547510
 20
3.891148
 30
0.000000
 11
2.773056
 21
6.369791
 31
0.000000
  0
LINE
  8
DIEM
 62
     1
  6
CONTINUOUS
 10
8.281256
 20
2.936476
 30
0.000000
 11
8.229493
 21
3.129661
 31
0.000000
  0
LINE
  8
DIEM
 62
     1
  6
CONTINUOUS
 10
8.281256
 20
2.936476
 30
0.000000
 11
8.333020
 21
3.129661
 31
0.000000
  0
LINE
  8
DIEM
 62
     1
  6
CONTINUOUS
 10
8.281256
 20
5.886476
 30
0.000000
 11
8.333020
 21
5.693290
 31
0.000000
  0
LINE
  8
DIEM
 62
     1
  6
CONTINUOUS
 10
8.281256
 20
5.886476
 30
0.000000
 11
8.229493
 21
5.693290
 31
0.000000
  0
LINE
  8
DIEM
 62
     1
  6
CONTINUOUS
 10
9.424444
 20
2.936476
 30
0.000000
 11
8.231256
 21
2.936476
 31
0.000000
  0
LINE
  8
DIEM
 62
     1
  6
CONTINUOUS
 10
9.424444
 20
5.886476
 30
0.000000
 11
8.231256
 21
5.886476
 31
0.000000
  0
TEXT
  8
DIEM
 62
     7
 10
7.797665
 20
4.326704
 30
0.000000
 40
0.125000
  1
2.950
  0
TEXT
  8
DIEM
 62
     7
 10
8.277613
 20
4.461475
 30
0.000000
 40
0.125000
  1
+.002
  0
TEXT
  8
DIEM
 62
     7
 10
8.277613
 20
4.191934
 30
0.000000
 40
0.125000
  1
-.000
  0
LINE
  8
DIEM
 62
     1
  6
CONTINUOUS
 10
8.281256
 20
2.936476
 30
0.000000
 11
8.281256
 21
4.161122
 31
0.000000
  0
LINE
  8
DIEM
 62
     1
  6
CONTINUOUS
 10
8.281256
 20
4.661829
 30
0.000000
 11
8.281256
 21
5.886476
 31
0.000000
  0
LINE
  8
DIEM
 62
     1
  6
CONTINUOUS
 10
9.177054
 20
4.031476
 30
0.000000
 11
9.125290
 21
4.224661
 31
0.000000
  0
LINE
  8
DIEM
 62
     1
  6
CONTINUOUS
 10
9.177054
 20
4.031476
 30
0.000000
 11
9.228818
 21
4.224661
 31
0.000000
  0
LINE
  8
DIEM
 62
     1
  6
CONTINUOUS
 10
9.177054
 20
4.791476
 30
0.000000
 11
9.228818
 21
4.598290
 31
0.000000
  0
LINE
  8
DIEM
 62
     1
  6
CONTINUOUS
 10
9.177054
 20
4.791476
 30
0.000000
 11
9.125290
 21
4.598290
 31
0.000000
  0
LINE
  8
DIEM
 62
     1
  6
CONTINUOUS
 10
9.701444
 20
4.031476
 30
0.000000
 11
9.127054
 21
4.031476
 31
0.000000
  0
LINE
  8
DIEM
 62
     1
  6
CONTINUOUS
 10
9.701444
 20
4.791476
 30
0.000000
 11
9.127054
 21
4.791476
 31
0.000000
  0
TEXT
  8
DIEM
 62
     7
 10
9.056059
 20
4.347539
 30
0.000000
 40
0.125000
  1
.75
  0
LINE
  8
DIEM
 62
     1
  6
CONTINUOUS
 10
9.177054
 20
4.031476
 30
0.000000
 11
9.177054
 21
4.297539
 31
0.000000
  0
LINE
  8
DIEM
 62
     1
  6
CONTINUOUS
 10
9.177054
 20
4.525412
 30
0.000000
 11
9.177054
 21
4.791476
 31
0.000000
  0
LINE
  8
DIEM
 62
     1
  6
CONTINUOUS
 10
10.494444
 20
7.418064
 30
0.000000
 11
10.687629
 21
7.469828
 31
0.000000
  0
LINE
  8
DIEM
 62
     1
  6
CONTINUOUS
 10
10.494444
 20
7.418064
 30
0.000000
 11
10.687629
 21
7.366300
 31
0.000000
  0
LINE
  8
DIEM
 62
     1
  6
CONTINUOUS
 10
11.564440
 20
7.418064
 30
0.000000
 11
11.371255
 21
7.366300
 31
0.000000
  0
LINE
  8
DIEM
 62
     1
  6
CONTINUOUS
 10
11.564440
 20
7.418064
 30
0.000000
 11
11.371255
 21
7.469828
 31
0.000000
  0
LINE
  8
DIEM
 62
     1
  6
CONTINUOUS
 10
10.494444
 20
6.981476
 30
0.000000
 11
10.494444
 21
7.468064
 31
0.000000
  0
LINE
  8
DIEM
 62
     1
  6
CONTINUOUS
 10
11.564440
 20
5.981476
 30
0.000000
 11
11.564440
 21
7.468064
 31
0.000000
  0
TEXT
  8
DIEM
 62
     7
 10
10.862589
 20
7.352712
 30
0.000000
 40
0.125000
  1
1.07
  0
LINE
  8
DIEM
 62
     1
  6
CONTINUOUS
 10
10.494444
 20
7.418064
 30
0.000000
 11
10.812589
 21
7.418064
 31
0.000000
  0
LINE
  8
DIEM
 62
     1
  6
CONTINUOUS
 10
11.246295
 20
7.418064
 30
0.000000
 11
11.564440
 21
7.418064
 31
0.000000
  0
LINE
  8
DIEM
 62
     1
  6
CONTINUOUS
 10
9.494444
 20
7.723017
 30
0.000000
 11
9.687629
 21
7.774780
 31
0.000000
  0
LINE
  8
DIEM
 62
     1
  6
CONTINUOUS
 10
9.494444
 20
7.723017
 30
0.000000
 11
9.687629
 21
7.671253
 31
0.000000
  0
LINE
  8
DIEM
 62
     1
  6
CONTINUOUS
 10
10.494444
 20
7.723017
 30
0.000000
 11
10.301259
 21
7.671253
 31
0.000000
  0
LINE
  8
DIEM
 62
     1
  6
CONTINUOUS
 10
10.494444
 20
7.723017
 30
0.000000
 11
10.301259
 21
7.774780
 31
0.000000
  0
LINE
  8
DIEM
 62
     1
  6
CONTINUOUS
 10
9.494444
 20
6.981476
 30
0.000000
 11
9.494444
 21
7.773017
 31
0.000000
  0
LINE
  8
DIEM
 62
     1
  6
CONTINUOUS
 10
10.494444
 20
6.981476
 30
0.000000
 11
10.494444
 21
7.773017
 31
0.000000
  0
TEXT
  8
DIEM
 62
     7
 10
9.820251
 20
7.657664
 30
0.000000
 40
0.125000
  1
1.00
  0
LINE
  8
DIEM
 62
     1
  6
CONTINUOUS
 10
9.494444
 20
7.723017
 30
0.000000
 11
9.770250
 21
7.723017
 31
0.000000
  0
LINE
  8
DIEM
 62
     1
  6
CONTINUOUS
 10
10.218638
 20
7.723017
 30
0.000000
 11
10.494444
 21
7.723017
 31
0.000000
  0
TEXT
  8
DIEM
 62
     7
 10
12.561988
 20
8.672995
 30
0.000000
 40
0.150000
  1
HUB/BUSH - 2000 HONDA INSIGHT
  0
TEXT
  8
DIEM
 62
     7
 10
12.919185
 20
8.250853
 30
0.000000
 40
0.150000
  1
12/17/08   REV A
  0
TEXT
  8
DIEM
 62
     7
 10
13.431749
 20
9.859898
 30
0.000000
 40
0.125000
  1
ELECTRO AUTOMOTIVE
  0
TEXT
  8
DIEM
 62
     7
 10
13.431749
 20
9.672397
 30
0.000000
 40
0.125000
  1
P.O. BOX 1113 FELTON CA. 95018-1113
  0
TEXT
  8
DIEM
 62
     7
 10
13.431749
 20
9.484897
 30
0.000000
 40
0.125000
  1
PHONE 408-429-1989 FAX 408-429-1907
  0
LINE
  8
DIEM
 62
     7
  6
CONTINUOUS
 10
16.865454
 20
9.197408
 30
0.000000
 11
13.299002
 21
9.197408
 31
0.000000
  0
LINE
  8
Default
 62
     7
  6
CONTINUOUS
 10
16.865454
 20
9.197408
 30
0.000000
 11
16.865454
 21
10.097393
 31
0.000000
  0
LINE
  8
DIEM
 62
     7
  6
CONTINUOUS
 10
13.299002
 20
9.197408
 30
0.000000
 11
13.299002
 21
10.097393
 31
0.000000
  0
TEXT
  8
DIEM
 62
     7
 10
13.431749
 20
9.297398
 30
0.000000
 40
0.125000
  1
DRAWN BY DAN SULLIVAN
  0
TEXT
  8
DIEM
 62
     7
 10
12.576795
 20
7.681343
 30
0.000000
 40
0.125000
  1
NOTE A - 6X DRILL 13/64", CB 23/64" X 13/64 DEEP.
  0
LINE
  8
DIEM
 62
     1
  6
CONTINUOUS
 10
9.771444
 20
5.886476
 30
0.000000
 11
9.663549
 21
5.718076
 31
0.000000
  0
LINE
  8
DIEM
 62
     1
  6
CONTINUOUS
 10
9.771444
 20
5.886476
 30
0.000000
 11
9.593804
 21
5.794585
 31
0.000000
  0
LINE
  8
DIEM
 62
     1
  6
CONTINUOUS
 10
9.771444
 20
5.886476
 30
0.000000
 11
9.266032
 21
5.425748
 31
0.000000
  0
LINE
  8
DIEM
 62
     1
  6
CONTINUOUS
 10
9.266032
 20
5.425748
 30
0.000000
 11
9.016032
 21
5.425748
 31
0.000000
  0
TEXT
  8
DIEM
 62
     7
 10
8.559478
 20
5.363248
 30
0.000000
 40
0.125000
  1
MAX
  0
TEXT
  8
DIEM
 62
     7
 10
8.559478
 20
5.175748
 30
0.000000
 40
0.125000
  1
R .01
  0
TEXT
  8
DIEM
 62
     7
 10
12.578225
 20
7.341623
 30
0.000000
 40
0.125000
  1
NOTE - BREAK / DEBUR EDGES AND CORNERS, MAX R .01.
  0
LINE
  8
DIEM
 62
     7
  6
CONTINUOUS
 10
13.299002
 20
10.097393
 30
0.000000
 11
16.865454
 21
10.097393
 31
0.000000
  0
LINE
  8
Default
 62
     1
  6
CONTINUOUS
 10
10.681944
 20
6.911476
 30
0.000000
 11
13.106342
 21
6.911476
 31
0.000000
  0
LINE
  8
Default
 62
     1
  6
CONTINUOUS
 10
10.681944
 20
1.911476
 30
0.000000
 11
13.106342
 21
1.911476
 31
0.000000
  0
LINE
  8
Default
 62
     1
  6
CONTINUOUS
 10
13.068242
 20
6.911476
 30
0.000000
 11
13.068242
 21
1.911476
 31
0.000000
  0
LINE
  8
Default
 62
     1
  6
CONTINUOUS
 10
13.068242
 20
6.911476
 30
0.000000
 11
13.118242
 21
6.661476
 31
0.000000
  0
LINE
  8
Default
 62
     1
  6
CONTINUOUS
 10
13.068242
 20
6.911476
 30
0.000000
 11
13.018242
 21
6.661476
 31
0.000000
  0
LINE
  8
Default
 62
     1
  6
CONTINUOUS
 10
13.068242
 20
1.911476
 30
0.000000
 11
13.018242
 21
2.161476
 31
0.000000
  0
LINE
  8
Default
 62
     1
  6
CONTINUOUS
 10
13.068242
 20
1.911476
 30
0.000000
 11
13.118242
 21
2.161476
 31
0.000000
  0
TEXT
  8
Default
 62
     7
 10
13.017442
 20
4.321094
 30
0.000000
 40
0.125000
  1
5.00
 50
90.000003
 72
     1
 11
13.017442
 21
4.466927
 31
0.000000
  0
ENDSEC
  0
EOF
