  0
SECTION
  2
HEADER
  9
$ACADVER
  1
AC1009
  9
$DWGCODEPAGE
  3
ansi_1252
  9
$INSBASE
 10
0.0
 20
0.0
 30
0.0
  9
$EXTMIN
 10
1.000000000000000E+20
 20
1.000000000000000E+20
 30
1.000000000000000E+20
  9
$EXTMAX
 10
-1.000000000000000E+20
 20
-1.000000000000000E+20
 30
-1.000000000000000E+20
  9
$LIMMIN
 10
0.0
 20
0.0
  9
$LIMMAX
 10
12.0
 20
9.0
  9
$ORTHOMODE
 70
     0
  9
$REGENMODE
 70
     1
  9
$FILLMODE
 70
     1
  9
$QTEXTMODE
 70
     0
  9
$MIRRTEXT
 70
     1
  9
$DRAGMODE
 70
     2
  9
$LTSCALE
 40
1.0
  9
$OSMODE
 70
    37
  9
$ATTMODE
 70
     1
  9
$TEXTSIZE
 40
0.2
  9
$TRACEWID
 40
0.05
  9
$TEXTSTYLE
  7
STANDARD
  9
$CLAYER
  8
0
  9
$CELTYPE
  6
BYLAYER
  9
$CECOLOR
 62
   256
  9
$DIMSCALE
 40
1.0
  9
$DIMASZ
 40
0.18
  9
$DIMEXO
 40
0.0625
  9
$DIMDLI
 40
0.38
  9
$DIMRND
 40
0.0
  9
$DIMDLE
 40
0.0
  9
$DIMEXE
 40
0.18
  9
$DIMTP
 40
0.0
  9
$DIMTM
 40
0.0
  9
$DIMTXT
 40
0.18
  9
$DIMCEN
 40
0.09
  9
$DIMTSZ
 40
0.0
  9
$DIMTOL
 70
     0
  9
$DIMLIM
 70
     0
  9
$DIMTIH
 70
     1
  9
$DIMTOH
 70
     1
  9
$DIMSE1
 70
     0
  9
$DIMSE2
 70
     0
  9
$DIMTAD
 70
     0
  9
$DIMZIN
 70
     0
  9
$DIMBLK
  1

  9
$DIMASO
 70
     1
  9
$DIMSHO
 70
     1
  9
$DIMPOST
  1

  9
$DIMAPOST
  1

  9
$DIMALT
 70
     0
  9
$DIMALTD
 70
     2
  9
$DIMALTF
 40
25.4
  9
$DIMLFAC
 40
1.0
  9
$DIMTOFL
 70
     0
  9
$DIMTVP
 40
0.0
  9
$DIMTIX
 70
     0
  9
$DIMSOXD
 70
     0
  9
$DIMSAH
 70
     0
  9
$DIMBLK1
  1

  9
$DIMBLK2
  1

  9
$DIMSTYLE
  2
STANDARD
  9
$DIMCLRD
 70
     0
  9
$DIMCLRE
 70
     0
  9
$DIMCLRT
 70
     0
  9
$DIMTFAC
 40
1.0
  9
$DIMGAP
 40
0.09
  9
$LUNITS
 70
     2
  9
$LUPREC
 70
     4
  9
$SKETCHINC
 40
0.1
  9
$FILLETRAD
 40
0.5
  9
$AUNITS
 70
     0
  9
$AUPREC
 70
     0
  9
$MENU
  1
.
  9
$ELEVATION
 40
0.0
  9
$PELEVATION
 40
0.0
  9
$THICKNESS
 40
0.0
  9
$LIMCHECK
 70
     0
  9
$CHAMFERA
 40
0.5
  9
$CHAMFERB
 40
0.5
  9
$SKPOLY
 70
     0
  9
$TDCREATE
 40
2454477.753742951
  9
$TDUPDATE
 40
2454477.753742963
  9
$TDINDWG
 40
0.0000000116
  9
$TDUSRTIMER
 40
0.0000000116
  9
$USRTIMER
 70
     1
  9
$ANGBASE
 50
0.0
  9
$ANGDIR
 70
     0
  9
$PDMODE
 70
     2
  9
$PDSIZE
 40
-2.0
  9
$PLINEWID
 40
0.0
  9
$COORDS
 70
     1
  9
$SPLFRAME
 70
     0
  9
$SPLINETYPE
 70
     6
  9
$SPLINESEGS
 70
     8
  9
$ATTDIA
 70
     0
  9
$ATTREQ
 70
     1
  9
$HANDLING
 70
     1
  9
$HANDSEED
  5
CB
  9
$SURFTAB1
 70
     6
  9
$SURFTAB2
 70
     6
  9
$SURFTYPE
 70
     6
  9
$SURFU
 70
     6
  9
$SURFV
 70
     6
  9
$UCSNAME
  2

  9
$UCSORG
 10
0.0
 20
0.0
 30
0.0
  9
$UCSXDIR
 10
1.0
 20
0.0
 30
0.0
  9
$UCSYDIR
 10
0.0
 20
1.0
 30
0.0
  9
$PUCSNAME
  2

  9
$PUCSORG
 10
0.0
 20
0.0
 30
0.0
  9
$PUCSXDIR
 10
1.0
 20
0.0
 30
0.0
  9
$PUCSYDIR
 10
0.0
 20
1.0
 30
0.0
  9
$USERI1
 70
     0
  9
$USERI2
 70
     0
  9
$USERI3
 70
     0
  9
$USERI4
 70
     0
  9
$USERI5
 70
     0
  9
$USERR1
 40
0.0
  9
$USERR2
 40
0.0
  9
$USERR3
 40
0.0
  9
$USERR4
 40
0.0
  9
$USERR5
 40
0.0
  9
$WORLDVIEW
 70
     1
  9
$SHADEDGE
 70
     3
  9
$SHADEDIF
 70
    70
  9
$TILEMODE
 70
     1
  9
$MAXACTVP
 70
    64
  9
$PLIMCHECK
 70
     0
  9
$PEXTMIN
 10
1.000000000000000E+20
 20
1.000000000000000E+20
 30
1.000000000000000E+20
  9
$PEXTMAX
 10
-1.000000000000000E+20
 20
-1.000000000000000E+20
 30
-1.000000000000000E+20
  9
$PLIMMIN
 10
0.0
 20
0.0
  9
$PLIMMAX
 10
12.0
 20
9.0
  9
$UNITMODE
 70
     0
  9
$VISRETAIN
 70
     1
  9
$PLINEGEN
 70
     0
  9
$PSLTSCALE
 70
     1
  0
ENDSEC
  0
SECTION
  2
TABLES
  0
TABLE
  2
VPORT
 70
     1
  0
VPORT
  2
*ACTIVE
 70
     0
 10
0.0
 20
0.0
 11
1.0
 21
1.0
 12
10.42990654205607
 22
4.5
 13
0.0
 23
0.0
 14
0.5
 24
0.5
 15
0.5
 25
0.5
 16
0.0
 26
0.0
 36
1.0
 17
0.0
 27
0.0
 37
0.0
 40
9.0
 41
1.972972972850329
 42
50.0
 43
0.0
 44
0.0
 50
0.0
 51
0.0
 71
     0
 72
   100
 73
     1
 74
     3
 75
     0
 76
     0
 77
     0
 78
     0
  0
ENDTAB
  0
TABLE
  2
LTYPE
 70
     2
  0
LTYPE
  2
CONTINUOUS
 70
     0
  3
Solid line
 72
    65
 73
     0
 40
0.0
  0
LTYPE
  2
GC___6
 70
     0
  3
_____  _  __________  _  _____
 72
    65
 73
     4
 40
0.5
 49
0.3
 49
-0.075
 49
0.05
 49
-0.075
  0
ENDTAB
  0
TABLE
  2
LAYER
 70
     2
  0
LAYER
  2
0
 70
     0
 62
     7
  6
CONTINUOUS
  0
LAYER
  2
HUB
 70
     0
 62
     7
  6
CONTINUOUS
  0
ENDTAB
  0
TABLE
  2
STYLE
 70
     2
  0
STYLE
  2
STANDARD
 70
     0
 40
0.0
 41
1.0
 50
0.0
 71
     0
 42
0.2
  3
txt
  4

  0
STYLE
  2
ENGINEER
 70
     0
 40
0.2
 41
1.0
 50
0.0
 71
     0
 42
0.2
  3
ENGINEER.SHX
  4

  0
ENDTAB
  0
TABLE
  2
VIEW
 70
     0
  0
ENDTAB
  0
TABLE
  2
UCS
 70
     0
  0
ENDTAB
  0
TABLE
  2
APPID
 70
     1
  0
APPID
  2
ACAD
 70
     0
  0
ENDTAB
  0
TABLE
  2
DIMSTYLE
 70
     1
  0
DIMSTYLE
  2
STANDARD
 70
     0
  3

  4

  5

  6

  7

 40
1.0
 41
0.18
 42
0.0625
 43
0.38
 44
0.18
 45
0.0
 46
0.0
 47
0.0
 48
0.0
140
0.18
141
0.09
142
0.0
143
25.4
144
1.0
145
0.0
146
1.0
147
0.09
 71
     0
 72
     0
 73
     1
 74
     1
 75
     0
 76
     0
 77
     0
 78
     0
170
     0
171
     2
172
     0
173
     0
174
     0
175
     0
176
     0
177
     0
178
     0
  0
ENDTAB
  0
ENDSEC
  0
SECTION
  2
BLOCKS
  0
BLOCK
  8
0
  2
$MODEL_SPACE
 70
     0
 10
0.0
 20
0.0
 30
0.0
  3
$MODEL_SPACE
  1

  0
ENDBLK
  5
21
  8
0
  0
BLOCK
 67
     1
  8
0
  2
$PAPER_SPACE
 70
     0
 10
0.0
 20
0.0
 30
0.0
  3
$PAPER_SPACE
  1

  0
ENDBLK
  5
1D
 67
     1
  8
0
  0
ENDSEC
  0
SECTION
  2
ENTITIES
  0
CIRCLE
  5
2A
  8
HUB
  6
CONTINUOUS
 62
   133
 10
-2.665305109595031
 20
6.340628999975724
 30
0.0
 40
0.1574
  0
CIRCLE
  5
2C
  8
HUB
  6
CONTINUOUS
 62
   133
 10
-2.665297681455144
 20
-6.045633030665274
 30
0.0
 40
0.1571000000000002
  0
POINT
  5
2D
  8
HUB
  6
CONTINUOUS
 62
   133
 10
-2.665305109595031
 20
6.340628999975724
 30
0.0
  0
POINT
  5
2E
  8
HUB
  6
CONTINUOUS
 62
   133
 10
-2.665297681455144
 20
-6.045633030665274
 30
0.0
  0
POINT
  5
2F
  8
HUB
  6
CONTINUOUS
 62
   133
 10
3.200245684539936
 20
-5.743380763851855
 30
0.0
  0
CIRCLE
  5
30
  8
HUB
  6
CONTINUOUS
 62
   133
 10
3.200245684539936
 20
-5.743380763851855
 30
0.0
 40
0.1669999999999999
  0
LINE
  5
31
  8
HUB
  6
CONTINUOUS
 62
   133
 10
6.395307698000112
 20
-2.977634329697623
 30
0.0
 11
3.580480300181245
 21
-6.087537699440149
 31
0.0
  0
LINE
  5
32
  8
HUB
  6
CONTINUOUS
 62
   133
 10
3.226607125741925
 20
-6.255559866962449
 30
0.0
 11
-2.638954593309062
 21
-6.557455550399339
 31
0.0
  0
LINE
  5
33
  8
HUB
  6
CONTINUOUS
 62
   133
 10
-3.028795338764183
 20
-6.406916441758061
 30
0.0
 11
-7.657557440755362
 21
-1.749785423133648
 31
0.0
  0
LINE
  5
34
  8
HUB
  6
CONTINUOUS
 62
   133
 10
-3.026957208979765
 20
6.638330134159164
 30
0.0
 11
-7.780025777719
 21
0.8642264139330208
 31
0.0
  0
POINT
  5
35
  8
HUB
  6
CONTINUOUS
 62
   133
 10
-0.1679944879213506
 20
6.910053745430775
 30
0.0
  0
POINT
  5
36
  8
HUB
  6
CONTINUOUS
 62
   133
 10
6.599286842242187
 20
0.1116043683692563
 30
0.0
  0
LINE
  5
37
  8
HUB
  6
CONTINUOUS
 62
   133
 10
-0.1679944879213506
 20
6.910053745430775
 30
0.0
 11
2.437593306932862
 21
6.852096557258602
 31
0.0
  0
LINE
  5
38
  8
HUB
  6
CONTINUOUS
 62
   133
 10
-0.1679944879213506
 20
6.910053745430775
 30
0.0
 11
-2.684163808596717
 21
6.808670190209506
 31
0.0
  0
LINE
  5
39
  8
HUB
  6
CONTINUOUS
 62
   133
 10
2.76104017604283
 20
6.712345466671287
 30
0.0
 11
6.258351027815735
 21
3.158295165569069
 31
0.0
  0
LINE
  5
3A
  8
HUB
  6
CONTINUOUS
 62
   133
 10
6.599286842242187
 20
0.1116043683692563
 30
0.0
 11
6.391560572539045
 21
2.864999766296492
 31
0.0
  0
LINE
  5
3B
  8
HUB
  6
CONTINUOUS
 62
   133
 10
6.599286842242187
 20
0.1116043683692563
 30
0.0
 11
6.524680423783487
 21
-2.654943536855789
 31
0.0
  0
ARC
  5
3C
  8
HUB
  6
CONTINUOUS
 62
   133
 10
5.924487916470472
 20
2.829762088265032
 30
0.0
 40
0.4684000000000001
 50
4.314431048690069
 51
44.53897400129102
  0
ARC
  5
3D
  8
HUB
  6
CONTINUOUS
 62
   133
 10
6.023868153850779
 20
-2.641437965631344
 30
0.0
 40
0.5009943414543225
 50
317.851209716115
 51
358.4552600291823
  0
ARC
  5
3E
  8
HUB
  6
CONTINUOUS
 62
   133
 10
-2.665305109595032
 20
6.340628999975724
 30
0.0
 40
0.4684209712251272
 50
92.30736034312922
 51
140.5398153743141
  0
ARC
  5
3F
  8
HUB
  6
CONTINUOUS
 62
   133
 10
2.427177064697565
 20
6.383812389367247
 30
0.0
 40
0.468400000000004
 50
44.5389740012911
 51
88.72575593779148
  0
ARC
  5
40
  8
HUB
  6
CONTINUOUS
 62
   133
 10
-6.274458318242864
 20
-0.3751114498267797
 30
0.0
 40
1.950049157221975
 50
140.5398153743143
 51
224.824958771926
  0
ARC
  5
41
  8
HUB
  6
CONTINUOUS
 62
   133
 10
-2.665297681455146
 20
-6.045633030665277
 30
0.0
 40
0.5124999999999965
 50
224.3380370461206
 51
272.946367214317
  0
ARC
  5
42
  8
HUB
  6
CONTINUOUS
 62
   133
 10
3.200245684539934
 20
-5.74338076385185
 30
0.0
 40
0.5128570553725704
 50
272.9463672142738
 51
317.8512097161147
  0
POINT
  5
43
  8
HUB
  6
CONTINUOUS
 62
   133
 10
2.427177064697567
 20
6.38381238936725
 30
0.0
  0
CIRCLE
  5
44
  8
HUB
  6
CONTINUOUS
 62
   133
 10
2.427177064697567
 20
6.38381238936725
 30
0.0
 40
0.1669999999999998
  0
POINT
  5
45
  8
HUB
  6
CONTINUOUS
 62
   133
 10
5.924487916470472
 20
2.829762088265032
 30
0.0
  0
CIRCLE
  5
46
  8
HUB
  6
CONTINUOUS
 62
   133
 10
5.924487916470472
 20
2.829762088265032
 30
0.0
 40
0.1670000000000002
  0
POINT
  5
47
  8
HUB
  6
CONTINUOUS
 62
   133
 10
6.023868153850781
 20
-2.641437965631346
 30
0.0
  0
CIRCLE
  5
48
  8
HUB
  6
CONTINUOUS
 62
   133
 10
6.023868153850781
 20
-2.641437965631346
 30
0.0
 40
0.1669999999999998
  0
LINE
  5
49
  8
HUB
  6
CONTINUOUS
 62
   133
 10
-2.665305109595031
 20
6.340628999975724
 30
0.0
 11
-2.665297681455144
 21
-6.045633030665274
 31
0.0
  0
LINE
  5
4A
  8
HUB
  6
CONTINUOUS
 62
   133
 10
-2.665297681455144
 20
-6.045633030665274
 30
0.0
 11
0.0
 21
0.0
 31
0.0
  0
LINE
  5
4B
  8
HUB
  6
CONTINUOUS
 62
   133
 10
0.0
 20
0.0
 30
0.0
 11
-2.665305109595031
 21
6.340628999975724
 31
0.0
  0
CIRCLE
  5
4C
  8
HUB
  6
CONTINUOUS
 62
   133
 10
-2.665305109595031
 20
6.340628999975724
 30
0.0
 40
0.1250000000000002
  0
CIRCLE
  5
4D
  8
HUB
  6
CONTINUOUS
 62
   133
 10
2.427177064697567
 20
6.38381238936725
 30
0.0
 40
0.1250000000000001
  0
CIRCLE
  5
4E
  8
HUB
  6
CONTINUOUS
 62
   133
 10
5.924487916470472
 20
2.829762088265032
 30
0.0
 40
0.1250000000000003
  0
CIRCLE
  5
4F
  8
HUB
  6
CONTINUOUS
 62
   133
 10
6.023868153850781
 20
-2.641437965631346
 30
0.0
 40
0.125
  0
CIRCLE
  5
50
  8
HUB
  6
CONTINUOUS
 62
   133
 10
3.200245684539936
 20
-5.743380763851855
 30
0.0
 40
0.125
  0
CIRCLE
  5
51
  8
HUB
  6
CONTINUOUS
 62
   133
 10
-2.665297681455144
 20
-6.045633030665274
 30
0.0
 40
0.125
  0
POINT
  5
52
  8
HUB
  6
GC___6
 62
     1
 10
2.427177064697567
 20
6.38381238936725
 30
0.0
  0
LINE
  5
54
  8
HUB
  6
GC___6
 62
     1
 10
2.427177064697567
 20
6.75881238936725
 30
0.0
 11
2.427177064697567
 21
6.00881238936725
 31
0.0
  0
LINE
  5
55
  8
HUB
  6
GC___6
 62
     1
 10
2.147124025359187
 20
6.38381238936725
 30
0.0
 11
2.68335486539976
 21
6.38381238936725
 31
0.0
  0
POINT
  5
56
  8
HUB
  6
GC___6
 62
     1
 10
5.924487916470472
 20
2.829762088265032
 30
0.0
  0
LINE
  5
57
  8
HUB
  6
GC___6
 62
     1
 10
5.924487916470472
 20
3.204762088265032
 30
0.0
 11
5.924487916470472
 21
2.454762088265032
 31
0.0
  0
LINE
  5
58
  8
HUB
  6
GC___6
 62
     1
 10
5.644434877132092
 20
2.829762088265032
 30
0.0
 11
6.180665717172666
 21
2.829762088265032
 31
0.0
  0
POINT
  5
59
  8
HUB
  6
GC___6
 62
     1
 10
6.023868153850781
 20
-2.641437965631346
 30
0.0
  0
LINE
  5
5A
  8
HUB
  6
GC___6
 62
     1
 10
6.023868153850781
 20
-2.266437965631347
 30
0.0
 11
6.023868153850781
 21
-3.016437965631347
 31
0.0
  0
LINE
  5
5B
  8
HUB
  6
GC___6
 62
     1
 10
5.743815114512401
 20
-2.641437965631346
 30
0.0
 11
6.280045954552975
 21
-2.641437965631346
 31
0.0
  0
POINT
  5
5C
  8
HUB
  6
GC___6
 62
     1
 10
3.200245684539936
 20
-5.743380763851855
 30
0.0
  0
LINE
  5
5D
  8
HUB
  6
GC___6
 62
     1
 10
3.200245684539936
 20
-5.368380763851855
 30
0.0
 11
3.200245684539936
 21
-6.118380763851855
 31
0.0
  0
LINE
  5
5E
  8
HUB
  6
GC___6
 62
     1
 10
2.920192645201556
 20
-5.743380763851855
 30
0.0
 11
3.45642348524213
 21
-5.743380763851855
 31
0.0
  0
POINT
  5
5F
  8
HUB
  6
GC___6
 62
     1
 10
-2.665297681455144
 20
-6.045633030665274
 30
0.0
  0
LINE
  5
60
  8
HUB
  6
GC___6
 62
     1
 10
-2.665297681455144
 20
-5.670633030665274
 30
0.0
 11
-2.665297681455144
 21
-6.420633030665274
 31
0.0
  0
LINE
  5
61
  8
HUB
  6
GC___6
 62
     1
 10
-2.945350720793524
 20
-6.045633030665274
 30
0.0
 11
-2.40911988075295
 21
-6.045633030665274
 31
0.0
  0
POINT
  5
62
  8
HUB
  6
GC___6
 62
     1
 10
-2.665305109595031
 20
6.340628999975724
 30
0.0
  0
LINE
  5
63
  8
HUB
  6
GC___6
 62
     1
 10
-2.665305109595031
 20
6.715628999975724
 30
0.0
 11
-2.665305109595031
 21
5.965628999975724
 31
0.0
  0
LINE
  5
64
  8
HUB
  6
GC___6
 62
     1
 10
-2.945358148933411
 20
6.340628999975724
 30
0.0
 11
-2.409127308892837
 21
6.340628999975724
 31
0.0
  0
TEXT
  5
66
  8
HUB
  6
CONTINUOUS
 62
     4
 10
-0.8421705576424756
 20
6.277707127832644
 30
0.0
 40
0.125
  1
TOP MOTOR SIDE
  7
ENGINEER
  0
TEXT
  5
67
  8
HUB
  6
CONTINUOUS
 62
     4
 10
-0.8732991248590203
 20
5.655135783501777
 30
0.0
 40
0.125
  1
1965 DATSUN L320
  7
ENGINEER
  0
TEXT
  5
68
  8
HUB
  6
CONTINUOUS
 62
     4
 10
-0.8732991248590203
 20
5.467635783501777
 30
0.0
 40
0.125
  1
ADAPTER PLATE
  7
ENGINEER
  0
TEXT
  5
69
  8
HUB
  6
CONTINUOUS
 62
     4
 10
-2.336341784036559
 20
6.308835695049186
 30
0.0
 40
0.125
  1
" A "
  7
ENGINEER
  0
CIRCLE
  5
6A
  8
HUB
  6
CONTINUOUS
 62
   133
 10
0.0
 20
0.0
 30
0.0
 40
0.311
  0
POINT
  5
6B
  8
HUB
  6
CONTINUOUS
 62
   133
 10
0.0
 20
0.0
 30
0.0
  0
POINT
  5
6C
  8
HUB
  6
GC___6
 62
   133
 10
0.0
 20
0.0
 30
0.0
  0
LINE
  5
6D
  8
HUB
  6
GC___6
 62
   133
 10
0.0
 20
0.3749999999999996
 30
0.0
 11
0.0
 21
-0.3750000000000004
 31
0.0
  0
LINE
  5
6E
  8
HUB
  6
GC___6
 62
   133
 10
-0.2800530393383802
 20
0.0
 30
0.0
 11
0.2561778007021935
 21
0.0
 31
0.0
  0
POINT
  5
6F
  8
HUB
  6
CONTINUOUS
 62
   133
 10
0.0
 20
0.0
 30
0.0
  0
CIRCLE
  5
70
  8
HUB
  6
CONTINUOUS
 62
   133
 10
0.0
 20
0.0
 30
0.0
 40
3.0
  0
CIRCLE
  5
71
  8
HUB
  6
GC___6
 62
   133
 10
0.0
 20
0.0
 30
0.0
 40
3.625
  0
CIRCLE
  5
72
  8
HUB
  6
CONTINUOUS
 62
   133
 10
0.0
 20
0.0
 30
0.0
 40
4.25
  0
LINE
  5
73
  8
HUB
  6
GC___6
 62
   133
 10
0.0
 20
0.0
 30
0.0
 11
0.0
 21
0.0
 31
0.0
  0
CIRCLE
  5
74
  8
HUB
  6
CONTINUOUS
 62
   133
 10
-0.0014095306396484
 20
3.62410831451416
 30
0.0
 40
0.25
  0
CIRCLE
  5
75
  8
HUB
  6
CONTINUOUS
 62
   133
 10
-3.62410831451416
 20
-0.0014095306396484
 30
0.0
 40
0.25
  0
CIRCLE
  5
76
  8
HUB
  6
CONTINUOUS
 62
   133
 10
0.0014095306396484
 20
-3.624108076095581
 30
0.0
 40
0.25
  0
CIRCLE
  5
77
  8
HUB
  6
CONTINUOUS
 62
   133
 10
3.624107837677002
 20
0.0014095306396484
 30
0.0
 40
0.2500000000000036
  0
POINT
  5
78
  8
HUB
  6
CONTINUOUS
 62
   133
 10
0.0
 20
0.0
 30
0.0
  0
LINE
  5
79
  8
HUB
  6
GC___6
 62
   133
 10
0.0
 20
7.284333213705267
 30
0.0
 11
0.0
 21
-7.322655208695172
 31
0.0
  0
LINE
  5
7A
  8
HUB
  6
GC___6
 62
   133
 10
-6.163624017724541
 20
0.0
 30
0.0
 11
6.024081947215823
 21
0.0
 31
0.0
  0
TEXT
  5
7B
  8
HUB
  6
CONTINUOUS
 62
     4
 10
-2.554583376722324
 20
-5.970727717232409
 30
0.0
 40
0.125
  1
" B "
  7
ENGINEER
  0
LINE
  5
7C
  8
HUB
  6
CONTINUOUS
 62
     4
 10
-3.114555964450143
 20
-6.045633030665274
 30
0.0
 11
-3.161143392568597
 21
-5.871766381933242
 31
0.0
  0
LINE
  5
7D
  8
HUB
  6
CONTINUOUS
 62
     4
 10
-3.114555964450143
 20
-6.045633030665274
 30
0.0
 11
-3.067968536331689
 21
-5.871766381933242
 31
0.0
  0
LINE
  5
7E
  8
HUB
  6
CONTINUOUS
 62
     4
 10
-3.114555964450142
 20
6.340628999975724
 30
0.0
 11
-3.067968536331688
 21
6.166762351243692
 31
0.0
  0
LINE
  5
7F
  8
HUB
  6
CONTINUOUS
 62
     4
 10
-3.114555964450142
 20
6.340628999975724
 30
0.0
 11
-3.161143392568595
 21
6.166762351243692
 31
0.0
  0
LINE
  5
80
  8
HUB
  6
CONTINUOUS
 62
     4
 10
-2.790297681455144
 20
-6.045633030665274
 30
0.0
 11
-3.214555964450143
 21
-6.045633030665274
 31
0.0
  0
LINE
  5
81
  8
HUB
  6
CONTINUOUS
 62
     4
 10
-2.790305109595031
 20
6.340628999975724
 30
0.0
 11
-3.214555964450142
 21
6.340628999975724
 31
0.0
  0
TEXT
  5
82
  8
HUB
  6
CONTINUOUS
 62
     4
 10
-3.476409783557779
 20
3.506756515739489
 30
0.0
 40
0.125
  1
12.386"
  7
ENGINEER
  0
LINE
  5
83
  8
HUB
  6
CONTINUOUS
 62
     4
 10
-3.114555964450143
 20
-6.045633030665274
 30
0.0
 11
-3.114555964450142
 21
3.475506515739486
 31
0.0
  0
LINE
  5
84
  8
HUB
  6
CONTINUOUS
 62
     4
 10
-3.114555964450142
 20
3.663951826779174
 30
0.0
 11
-3.114555964450142
 21
6.340628999975724
 31
0.0
  0
LINE
  5
85
  8
HUB
  6
CONTINUOUS
 62
     4
 10
-1.874458974003975
 20
6.67306388082152
 30
0.0
 11
-1.764136655502871
 21
6.530835240806434
 31
0.0
  0
LINE
  5
86
  8
HUB
  6
CONTINUOUS
 62
     4
 10
-1.874458974003975
 20
6.67306388082152
 30
0.0
 11
-1.850031363585163
 21
6.494729106172192
 31
0.0
  0
LINE
  5
87
  8
HUB
  6
CONTINUOUS
 62
     4
 10
0.7908461355910538
 20
0.3324348808457945
 30
0.0
 11
0.6805238170899489
 21
0.47466352086088
 31
0.0
  0
LINE
  5
88
  8
HUB
  6
CONTINUOUS
 62
     4
 10
0.7908461355910538
 20
0.3324348808457945
 30
0.0
 11
0.7664185251722417
 21
0.5107696554951229
 31
0.0
  0
LINE
  5
89
  8
HUB
  6
CONTINUOUS
 62
     4
 10
-2.550071891708577
 20
6.389067677657232
 30
0.0
 11
-1.782272399694812
 21
6.711814822966725
 31
0.0
  0
LINE
  5
8A
  8
HUB
  6
CONTINUOUS
 62
     4
 10
0.1152332178864542
 20
0.0484386776815076
 30
0.0
 11
0.8830327099002171
 21
0.3711858229910006
 31
0.0
  0
TEXT
  5
8B
  8
HUB
  6
CONTINUOUS
 62
     4
 10
-1.257704787025733
 20
4.369778189452219
 30
0.0
 40
0.125
  1
6.878"
  7
ENGINEER
  0
LINE
  5
8C
  8
HUB
  6
CONTINUOUS
 62
     4
 10
-1.874458974003975
 20
6.67306388082152
 30
0.0
 11
-0.9723425347095206
 21
4.526973500491906
 31
0.0
  0
LINE
  5
8D
  8
HUB
  6
CONTINUOUS
 62
     4
 10
-0.8931289030027572
 20
4.338528189452219
 30
0.0
 11
0.7908461355910538
 21
0.3324348808457945
 31
0.0
  0
LINE
  5
8E
  8
HUB
  6
CONTINUOUS
 62
     4
 10
-2.119524927292422
 20
-6.286244203869615
 30
0.0
 11
-2.092015662369028
 21
-6.108358734133118
 31
0.0
  0
LINE
  5
8F
  8
HUB
  6
CONTINUOUS
 62
     4
 10
-2.119524927292422
 20
-6.286244203869615
 30
0.0
 11
-2.006758470161078
 21
-6.145945500575377
 31
0.0
  0
LINE
  5
90
  8
HUB
  6
CONTINUOUS
 62
     4
 10
0.5457727541627246
 20
-0.2406111732043431
 30
0.0
 11
0.5182634892393309
 21
-0.4184966429408411
 31
0.0
  0
LINE
  5
91
  8
HUB
  6
CONTINUOUS
 62
     4
 10
0.5457727541627246
 20
-0.2406111732043431
 30
0.0
 11
0.4330062970313805
 21
-0.3809098764985814
 31
0.0
  0
LINE
  5
92
  8
HUB
  6
CONTINUOUS
 62
     4
 10
-2.55091973169049
 20
-6.096058070155932
 30
0.0
 11
-2.028022567480699
 21
-6.326584235462142
 31
0.0
  0
LINE
  5
93
  8
HUB
  6
CONTINUOUS
 62
     4
 10
0.1143779497646534
 20
-0.0504250394906582
 30
0.0
 11
0.6372751139744473
 21
-0.2809512047968697
 31
0.0
  0
TEXT
  5
94
  8
HUB
  6
CONTINUOUS
 62
     4
 10
-1.619507776959459
 20
-4.44284062849583
 30
0.0
 40
0.125
  1
6.607"
  7
ENGINEER
  0
LINE
  5
95
  8
HUB
  6
CONTINUOUS
 62
     4
 10
-2.119524927292422
 20
-6.286244203869615
 30
0.0
 11
-1.320612936044268
 21
-4.47409062849583
 31
0.0
  0
LINE
  5
96
  8
HUB
  6
CONTINUOUS
 62
     4
 10
-1.237688904705554
 20
-4.285995967856067
 30
0.0
 11
0.5457727541627246
 21
-0.2406111732043431
 31
0.0
  0
LINE
  5
97
  8
HUB
  6
CONTINUOUS
 62
     4
 10
1.423537262431171
 20
2.63604758596845
 30
0.0
 11
1.513537262431171
 21
2.791932158649649
 31
0.0
  0
LINE
  5
98
  8
HUB
  6
CONTINUOUS
 62
     4
 10
1.423537262431171
 20
2.63604758596845
 30
0.0
 11
1.57942183511237
 21
2.72604758596845
 31
0.0
  0
LINE
  5
99
  8
HUB
  6
CONTINUOUS
 62
     4
 10
1.423537262431171
 20
2.63604758596845
 30
0.0
 11
2.580549241375513
 21
3.793059564912793
 31
0.0
  0
LINE
  5
9A
  8
HUB
  6
CONTINUOUS
 62
     4
 10
2.580549241375513
 20
3.793059564912793
 30
0.0
 11
2.830549241375513
 21
3.793059564912793
 31
0.0
  0
TEXT
  5
9B
  8
HUB
  6
CONTINUOUS
 62
     4
 10
2.893049241375513
 20
3.730559564912793
 30
0.0
 40
0.125
  1
6" DIA 
  7
ENGINEER
  0
TEXT
  5
9C
  8
HUB
  6
CONTINUOUS
 62
     4
 10
2.878748205020962
 20
3.995834860191698
 30
0.0
 40
0.125
  1
HUB CUTOUT
  7
ENGINEER
  0
LINE
  5
9D
  8
HUB
  6
CONTINUOUS
 62
     4
 10
3.594425717770039
 20
0.4293752549921273
 30
0.0
 11
3.652106498660318
 21
0.5998831067640842
 31
0.0
  0
LINE
  5
9E
  8
HUB
  6
CONTINUOUS
 62
     4
 10
3.594425717770039
 20
0.4293752549921273
 30
0.0
 11
3.729632665217123
 21
0.5481989957262141
 31
0.0
  0
LINE
  5
9F
  8
HUB
  6
CONTINUOUS
 62
     4
 10
3.594425717770039
 20
0.4293752549921273
 30
0.0
 11
4.286247313427481
 21
1.46710764847829
 31
0.0
  0
LINE
  5
A0
  8
HUB
  6
CONTINUOUS
 62
     4
 10
4.286247313427481
 20
1.46710764847829
 30
0.0
 11
4.536247313427481
 21
1.46710764847829
 31
0.0
  0
TEXT
  5
A1
  8
HUB
  6
CONTINUOUS
 62
     4
 10
4.598747313427481
 20
1.40460764847829
 30
0.0
 40
0.125
  1
PLATE TO RING
  7
ENGINEER
  0
TEXT
  5
A2
  8
HUB
  6
CONTINUOUS
 62
     4
 10
4.598747313427481
 20
1.21710764847829
 30
0.0
 40
0.125
  1
BOLT CIRCLE
  7
ENGINEER
  0
TEXT
  5
A3
  8
HUB
  6
CONTINUOUS
 62
     4
 10
4.598747313427481
 20
1.02960764847829
 30
0.0
 40
0.125
  1
7.25" DIA
  7
ENGINEER
  0
TEXT
  5
A4
  8
HUB
  6
CONTINUOUS
 62
     4
 10
4.598747313427481
 20
0.8421076484782901
 30
0.0
 40
0.125
  1
DRILL 17/32"
  7
ENGINEER
  0
TEXT
  5
A5
  8
HUB
  6
CONTINUOUS
 62
     4
 10
4.598747313427481
 20
0.6546076484782901
 30
0.0
 40
0.125
  1
4 X
  7
ENGINEER
  0
POINT
  5
A6
  8
HUB
  6
CONTINUOUS
 62
   133
 10
-2.665301307069373
 20
0.0
 30
0.0
  0
LINE
  5
A7
  8
HUB
  6
CONTINUOUS
 62
     4
 10
-2.665301307069373
 20
0.2171476152052154
 30
0.0
 11
-2.49143465833734
 21
0.2637350433236692
 31
0.0
  0
LINE
  5
A8
  8
HUB
  6
CONTINUOUS
 62
     4
 10
-2.665301307069373
 20
0.2171476152052154
 30
0.0
 11
-2.49143465833734
 21
0.1705601870867617
 31
0.0
  0
LINE
  5
A9
  8
HUB
  6
CONTINUOUS
 62
     4
 10
0.0
 20
0.2171476152052154
 30
0.0
 11
-0.1738666487320323
 21
0.1705601870867617
 31
0.0
  0
LINE
  5
AA
  8
HUB
  6
CONTINUOUS
 62
     4
 10
0.0
 20
0.2171476152052154
 30
0.0
 11
-0.1738666487320323
 21
0.2637350433236692
 31
0.0
  0
LINE
  5
AB
  8
HUB
  6
CONTINUOUS
 62
     4
 10
-2.665301307069373
 20
0.125
 30
0.0
 11
-2.665301307069373
 21
0.3171476152052154
 31
0.0
  0
LINE
  5
AC
  8
HUB
  6
CONTINUOUS
 62
     4
 10
0.0
 20
0.125
 30
0.0
 11
0.0
 21
0.3171476152052154
 31
0.0
  0
TEXT
  5
AD
  8
HUB
  6
CONTINUOUS
 62
     4
 10
-1.666266595461523
 20
0.1543411762886198
 30
0.0
 40
0.125
  1
2.665"
  7
ENGINEER
  0
LINE
  5
AE
  8
HUB
  6
CONTINUOUS
 62
     4
 10
-2.665301307069373
 20
0.2171476152052154
 30
0.0
 11
-1.697516595461523
 21
0.2171476152052154
 31
0.0
  0
LINE
  5
AF
  8
HUB
  6
CONTINUOUS
 62
     4
 10
-0.9677847116078493
 20
0.2171476152052154
 30
0.0
 11
0.0
 21
0.2171476152052154
 31
0.0
  0
TEXT
  5
B0
  8
HUB
  6
CONTINUOUS
 62
     4
 10
-4.921314253754411
 20
3.305264881693478
 30
0.0
 40
0.125
  1
(DRILL SIZE "O" )
 50
49.96974072811029
 41
1.0
  7
ENGINEER
  0
LINE
  5
B1
  8
HUB
  6
CONTINUOUS
 62
   133
 10
-3.578778484698938
 20
5.258398019475447
 30
0.0
 11
-2.791983332318191
 21
6.204832767991417
 31
0.0
  0
LINE
  5
B2
  8
HUB
  6
CONTINUOUS
 62
   133
 10
-2.791983332318191
 20
6.204832767991417
 30
0.0
 11
-2.951622928453414
 21
6.102207313333059
 31
0.0
  0
LINE
  5
B3
  8
HUB
  6
CONTINUOUS
 62
   133
 10
-2.79198333231819
 20
6.203008315464158
 30
0.0
 11
-2.869978677858542
 21
6.033334230429006
 31
0.0
  0
TEXT
  5
B4
  8
HUB
  6
CONTINUOUS
 62
     4
 10
-5.064883915902463
 20
3.425863397897841
 30
0.0
 40
0.125
  1
DRILL .316 THRU 
 50
49.9697
  7
ENGINEER
  0
TEXT
  5
B5
  8
HUB
  6
CONTINUOUS
 62
     4
 10
-5.132836915653931
 20
-3.683342811951627
 30
0.0
 40
0.125
  1
DRILL .316" THRU
 50
315.0
  7
ENGINEER
  0
TEXT
  5
B6
  8
HUB
  6
CONTINUOUS
 62
     4
 10
-5.265419437126409
 20
-3.815925333424105
 30
0.0
 40
0.125
  1
(DRILL SIZE "O" )
 50
315.0
  7
ENGINEER
  0
LINE
  5
B7
  8
HUB
  6
CONTINUOUS
 62
   133
 10
-3.752746634810585
 20
-5.120726361959131
 30
0.0
 11
-2.802110844291056
 21
-5.930927319788276
 31
0.0
  0
LINE
  5
B8
  8
HUB
  6
CONTINUOUS
 62
   133
 10
-2.802110844291056
 20
-5.930927319788276
 30
0.0
 11
-2.866926920917387
 21
-5.801295166535613
 31
0.0
  0
LINE
  5
B9
  8
HUB
  6
CONTINUOUS
 62
   133
 10
-2.803815267046785
 20
-5.931983581777741
 30
0.0
 11
-2.943721968742437
 21
-5.884595827977601
 31
0.0
  0
TEXT
  5
BA
  8
HUB
  6
CONTINUOUS
 62
     4
 10
0.0698988751533698
 20
-5.235932323952626
 30
0.0
 40
0.125
  1
DRILL "A" AND "B" AS SHOWN
  7
ENGINEER
  0
TEXT
  5
BB
  8
HUB
  6
CONTINUOUS
 62
     4
 10
0.0643821801892557
 20
-5.535541938995895
 30
0.0
 40
0.125
  1
REMAINING HOLES
  7
ENGINEER
  0
TEXT
  5
BC
  8
HUB
  6
CONTINUOUS
 62
     4
 10
0.0643821801892557
 20
-5.723041938995895
 30
0.0
 40
0.125
  1
DRILL 11/32" THRU 4 X.
  7
ENGINEER
  0
LINE
  5
BD
  8
HUB
  6
CONTINUOUS
 62
     4
 10
3.26036785987993
 20
-2.731383722435219
 30
0.0
 11
3.399601248369676
 21
-2.84546292093198
 31
0.0
  0
LINE
  5
BE
  8
HUB
  6
CONTINUOUS
 62
     4
 10
3.26036785987993
 20
-2.731383722435219
 30
0.0
 11
3.323907912118657
 21
-2.899795900621655
 31
0.0
  0
LINE
  5
BF
  8
HUB
  6
CONTINUOUS
 62
     4
 10
3.26036785987993
 20
-2.731383722435219
 30
0.0
 11
3.470269922843444
 21
-3.023806253325775
 31
0.0
  0
LINE
  5
C0
  8
HUB
  6
CONTINUOUS
 62
     4
 10
3.470269922843444
 20
-3.023806253325775
 30
0.0
 11
3.720269922843444
 21
-3.023806253325775
 31
0.0
  0
TEXT
  5
C1
  8
HUB
  6
CONTINUOUS
 62
     4
 10
3.782769922843444
 20
-3.086306253325775
 30
0.0
 40
0.125
  1
RING RECESS 
  7
ENGINEER
  0
TEXT
  5
C2
  8
HUB
  6
CONTINUOUS
 62
     4
 10
3.782769922843444
 20
-3.273806253325775
 30
0.0
 40
0.125
  1
AS PER STD.
  7
ENGINEER
  0
TEXT
  5
C3
  8
HUB
  6
CONTINUOUS
 62
     4
 10
3.782769922843444
 20
-3.461306253325775
 30
0.0
 40
0.125
  1
MOTOR RING
  7
ENGINEER
  0
TEXT
  5
C4
  8
HUB
  6
CONTINUOUS
 62
     4
 10
3.782769922843444
 20
-3.648806253325775
 30
0.0
 40
0.125
  1
DRAWING
  7
ENGINEER
  0
ENDSEC
  0
EOF
