  0
SECTION
  2
HEADER
  9
$ACADVER
  1
AC1006
  0
ENDSEC
  0
SECTION
  2
TABLES
  0
TABLE
  2
LTYPE
 70
    25
  0
LTYPE
  2
CONTINUOUS
 70
    64
  3
Solid line
 72
    64
 73
     0
 40
0.000000
  0
LTYPE
  2
DASHDOT
 70
    64
  3
__ . __ . __ . __ . __ . __ . __ . __ . __ . __
 72
    65
 73
     4
 40
1.000000
 49
0.500000
 49
-0.250000
 49
0.000000
 49
-0.250000
  0
LTYPE
  2
DASHED
 70
    64
  3
__ __ __ __ __ __ __ __ __ __ __ __ __ __ __ __
 72
    65
 73
     2
 40
0.750000
 49
0.500000
 49
-0.250000
  0
LTYPE
  2
DIVIDE
 70
    64
  3
____ . . ____ . . ____ . . ____ . . ____ . . __
 72
    65
 73
     6
 40
1.250000
 49
0.500000
 49
-0.250000
 49
0.000000
 49
-0.250000
 49
0.000000
 49
-0.250000
  0
LTYPE
  2
DOT
 70
    64
  3
. . . . . . . . . . . . . . . . . . . . . . . . 
 72
    65
 73
     2
 40
0.250000
 49
0.000000
 49
-0.250000
  0
ENDTAB
  0
ENDSEC
  0
SECTION
  2
ENTITIES
  0
POINT
  8
HUB_DETAIL
 62
     7
 10
0.000000
 20
0.000000
 30
0.000000
  0
POINT
  8
HUB_DETAIL
 62
     7
 10
0.000000
 20
0.000000
 30
0.000000
  0
CIRCLE
  8
HUB_DETAIL
 62
     7
  6
CONTINUOUS
 10
0.000000
 20
0.000000
 30
0.000000
 40
0.703001
  0
CIRCLE
  8
HUB_DETAIL
 62
     7
  6
CONTINUOUS
 10
-0.351500
 20
0.608816
 30
0.000000
 40
0.101500
  0
CIRCLE
  8
HUB_DETAIL
 62
     7
  6
CONTINUOUS
 10
-0.351500
 20
0.608816
 30
0.000000
 40
0.179499
  0
CIRCLE
  8
HUB_DETAIL
 62
     7
  6
CONTINUOUS
 10
-0.703000
 20
0.000000
 30
0.000000
 40
0.101500
  0
CIRCLE
  8
HUB_DETAIL
 62
     7
  6
CONTINUOUS
 10
-0.703000
 20
0.000000
 30
0.000000
 40
0.179500
  0
CIRCLE
  8
HUB_DETAIL
 62
     7
  6
CONTINUOUS
 10
-0.351499
 20
-0.608816
 30
0.000000
 40
0.101499
  0
CIRCLE
  8
HUB_DETAIL
 62
     7
  6
CONTINUOUS
 10
-0.351499
 20
-0.608816
 30
0.000000
 40
0.179500
  0
CIRCLE
  8
HUB_DETAIL
 62
     7
  6
CONTINUOUS
 10
0.351501
 20
-0.608814
 30
0.000000
 40
0.101500
  0
CIRCLE
  8
HUB_DETAIL
 62
     7
  6
CONTINUOUS
 10
0.351501
 20
-0.608814
 30
0.000000
 40
0.179501
  0
CIRCLE
  8
HUB_DETAIL
 62
     7
  6
CONTINUOUS
 10
0.703001
 20
0.000002
 30
0.000000
 40
0.101500
  0
CIRCLE
  8
HUB_DETAIL
 62
     7
  6
CONTINUOUS
 10
0.703001
 20
0.000002
 30
0.000000
 40
0.179500
  0
CIRCLE
  8
HUB_DETAIL
 62
     7
  6
CONTINUOUS
 10
0.351500
 20
0.608816
 30
0.000000
 40
0.101499
  0
CIRCLE
  8
HUB_DETAIL
 62
     7
  6
CONTINUOUS
 10
0.351500
 20
0.608816
 30
0.000000
 40
0.179500
  0
POINT
  8
HUB_DETAIL
 62
     7
 10
0.351501
 20
-0.608814
 30
0.000000
  0
POINT
  8
HUB_DETAIL
 62
     7
 10
0.000000
 20
1.565000
 30
0.000000
  0
CIRCLE
  8
HUB_DETAIL
 62
     7
  6
CONTINUOUS
 10
0.000000
 20
0.000000
 30
0.000000
 40
1.565000
  0
CIRCLE
  8
HUB_DETAIL
 62
     7
  6
CONTINUOUS
 10
0.000000
 20
1.565000
 30
0.000000
 40
0.182000
  0
CIRCLE
  8
HUB_DETAIL
 62
     7
  6
CONTINUOUS
 10
0.000000
 20
1.565000
 30
0.000000
 40
0.197000
  0
POINT
  8
HUB_DETAIL
 62
     7
 10
-1.355329
 20
0.782500
 30
0.000000
  0
CIRCLE
  8
HUB_DETAIL
 62
     7
  6
CONTINUOUS
 10
-1.355329
 20
0.782500
 30
0.000000
 40
0.182000
  0
CIRCLE
  8
HUB_DETAIL
 62
     7
  6
CONTINUOUS
 10
-1.355329
 20
0.782500
 30
0.000000
 40
0.197000
  0
POINT
  8
HUB_DETAIL
 62
     7
 10
-1.355329
 20
-0.782500
 30
0.000000
  0
CIRCLE
  8
HUB_DETAIL
 62
     7
  6
CONTINUOUS
 10
-1.355329
 20
-0.782500
 30
0.000000
 40
0.182000
  0
CIRCLE
  8
HUB_DETAIL
 62
     7
  6
CONTINUOUS
 10
-1.355329
 20
-0.782500
 30
0.000000
 40
0.197000
  0
POINT
  8
HUB_DETAIL
 62
     7
 10
0.000000
 20
-1.565000
 30
0.000000
  0
CIRCLE
  8
HUB_DETAIL
 62
     7
  6
CONTINUOUS
 10
0.000000
 20
-1.565000
 30
0.000000
 40
0.182000
  0
CIRCLE
  8
HUB_DETAIL
 62
     7
  6
CONTINUOUS
 10
0.000000
 20
-1.565000
 30
0.000000
 40
0.197000
  0
POINT
  8
HUB_DETAIL
 62
     7
 10
1.355330
 20
-0.782500
 30
0.000000
  0
CIRCLE
  8
HUB_DETAIL
 62
     7
  6
CONTINUOUS
 10
1.355330
 20
-0.782500
 30
0.000000
 40
0.182000
  0
CIRCLE
  8
HUB_DETAIL
 62
     7
  6
CONTINUOUS
 10
1.355330
 20
-0.782500
 30
0.000000
 40
0.197000
  0
POINT
  8
HUB_DETAIL
 62
     7
 10
1.355330
 20
0.782500
 30
0.000000
  0
CIRCLE
  8
HUB_DETAIL
 62
     7
  6
CONTINUOUS
 10
1.355330
 20
0.782500
 30
0.000000
 40
0.182000
  0
CIRCLE
  8
HUB_DETAIL
 62
     7
  6
CONTINUOUS
 10
1.355330
 20
0.782500
 30
0.000000
 40
0.197000
  0
LINE
  8
CENTER_LINE
 62
     7
  6
CONTINUOUS
 10
0.000000
 20
6.403603
 30
0.000000
 11
0.000000
 21
-5.682554
 31
0.000000
  0
LINE
  8
CENTER_LINE
 62
     7
  6
CONTINUOUS
 10
-5.479306
 20
0.000000
 30
0.000000
 11
11.520695
 21
0.000000
 31
0.000000
  0
POINT
  8
BUSHING
 62
     7
 10
10.258081
 20
0.005318
 30
0.000000
  0
POINT
  8
BUSHING
 62
     7
 10
10.258081
 20
0.005318
 30
0.000000
  0
LINE
  8
BUSHING
 62
     7
  6
CONTINUOUS
 10
10.258081
 20
0.005318
 30
0.000000
 11
10.258081
 21
-0.807182
 31
0.000000
  0
POINT
  8
BUSHING
 62
     7
 10
11.383402
 20
0.708427
 30
0.000000
  0
POINT
  8
BUSHING
 62
     7
 10
11.383402
 20
0.708427
 30
0.000000
  0
POINT
  8
BUSHING
 62
     7
 10
11.383409
 20
0.708427
 30
0.000000
  0
POINT
  8
BUSHING
 62
     7
 10
11.383409
 20
0.708427
 30
0.000000
  0
POINT
  8
BUSHING
 62
     7
 10
10.256941
 20
0.709346
 30
0.000000
  0
POINT
  8
BUSHING
 62
     7
 10
10.381941
 20
0.709346
 30
0.000000
  0
POINT
  8
BUSHING
 62
     7
 10
10.506941
 20
0.709346
 30
0.000000
  0
POINT
  8
BUSHING
 62
     7
 10
10.506941
 20
0.709346
 30
0.000000
  0
LINE
  8
BUSHING
 62
     7
  6
CONTINUOUS
 10
10.381941
 20
0.709346
 30
0.000000
 11
10.381941
 21
0.764046
 31
0.000000
  0
LINE
  8
BUSHING
 62
     7
  6
CONTINUOUS
 10
10.381941
 20
0.709346
 30
0.000000
 11
10.381941
 21
0.654646
 31
0.000000
  0
LINE
  8
BUSHING
 62
     7
  6
CONTINUOUS
 10
10.506941
 20
0.709346
 30
0.000000
 11
10.506941
 21
0.795733
 31
0.000000
  0
LINE
  8
BUSHING
 62
     7
  6
CONTINUOUS
 10
10.506941
 20
0.709346
 30
0.000000
 11
10.506941
 21
0.622960
 31
0.000000
  0
POINT
  8
BUSHING
 62
     7
 10
10.756941
 20
0.709346
 30
0.000000
  0
POINT
  8
BUSHING
 62
     7
 10
10.631941
 20
0.709346
 30
0.000000
  0
POINT
  8
BUSHING
 62
     7
 10
10.631941
 20
0.709346
 30
0.000000
  0
LINE
  8
BUSHING
 62
     7
  6
CONTINUOUS
 10
10.631941
 20
0.709346
 30
0.000000
 11
10.631941
 21
0.764046
 31
0.000000
  0
LINE
  8
BUSHING
 62
     7
  6
CONTINUOUS
 10
10.631941
 20
0.709346
 30
0.000000
 11
10.631941
 21
0.654646
 31
0.000000
  0
POINT
  8
BUSHING
 62
     7
 10
10.881941
 20
0.709346
 30
0.000000
  0
LINE
  8
BUSHING
 62
     7
  6
CONTINUOUS
 10
10.881941
 20
0.709346
 30
0.000000
 11
10.881941
 21
0.764046
 31
0.000000
  0
LINE
  8
BUSHING
 62
     7
  6
CONTINUOUS
 10
10.881941
 20
0.709346
 30
0.000000
 11
10.881941
 21
0.654646
 31
0.000000
  0
POINT
  8
BUSHING
 62
     7
 10
11.131941
 20
0.709346
 30
0.000000
  0
LINE
  8
BUSHING
 62
     7
  6
CONTINUOUS
 10
11.131941
 20
0.709346
 30
0.000000
 11
11.131941
 21
0.764046
 31
0.000000
  0
LINE
  8
BUSHING
 62
     7
  6
CONTINUOUS
 10
11.131941
 20
0.709346
 30
0.000000
 11
11.131941
 21
0.654646
 31
0.000000
  0
POINT
  8
BUSHING
 62
     7
 10
11.381941
 20
0.709346
 30
0.000000
  0
LINE
  8
BUSHING
 62
     7
  6
CONTINUOUS
 10
11.381941
 20
0.709346
 30
0.000000
 11
11.381941
 21
0.764046
 31
0.000000
  0
LINE
  8
BUSHING
 62
     7
  6
CONTINUOUS
 10
11.381941
 20
0.709346
 30
0.000000
 11
11.381941
 21
0.654646
 31
0.000000
  0
POINT
  8
BUSHING
 62
     7
 10
10.756941
 20
0.709346
 30
0.000000
  0
POINT
  8
BUSHING
 62
     7
 10
10.756941
 20
0.709346
 30
0.000000
  0
LINE
  8
BUSHING
 62
     7
  6
CONTINUOUS
 10
10.756941
 20
0.709346
 30
0.000000
 11
10.756941
 21
0.795733
 31
0.000000
  0
LINE
  8
BUSHING
 62
     7
  6
CONTINUOUS
 10
10.756941
 20
0.709346
 30
0.000000
 11
10.756941
 21
0.622960
 31
0.000000
  0
POINT
  8
BUSHING
 62
     7
 10
11.006941
 20
0.709346
 30
0.000000
  0
POINT
  8
BUSHING
 62
     7
 10
11.006941
 20
0.709346
 30
0.000000
  0
LINE
  8
BUSHING
 62
     7
  6
CONTINUOUS
 10
11.006941
 20
0.709346
 30
0.000000
 11
11.006941
 21
0.795733
 31
0.000000
  0
LINE
  8
BUSHING
 62
     7
  6
CONTINUOUS
 10
11.006941
 20
0.709346
 30
0.000000
 11
11.006941
 21
0.622960
 31
0.000000
  0
POINT
  8
BUSHING
 62
     7
 10
11.256941
 20
0.709346
 30
0.000000
  0
POINT
  8
BUSHING
 62
     7
 10
11.256941
 20
0.709346
 30
0.000000
  0
LINE
  8
BUSHING
 62
     7
  6
CONTINUOUS
 10
11.256941
 20
0.709346
 30
0.000000
 11
11.256941
 21
0.795733
 31
0.000000
  0
LINE
  8
BUSHING
 62
     7
  6
CONTINUOUS
 10
11.256941
 20
0.709346
 30
0.000000
 11
11.256941
 21
0.622960
 31
0.000000
  0
POINT
  8
BUSHING
 62
     7
 10
10.258081
 20
0.005318
 30
0.000000
  0
POINT
  8
BUSHING
 62
     7
 10
10.820572
 20
0.008772
 30
0.000000
  0
LINE
  8
BUSHING
 62
     7
  6
CONTINUOUS
 10
10.258081
 20
0.817818
 30
0.000000
 11
10.258081
 21
0.005318
 31
0.000000
  0
LINE
  8
BUSHING
 62
     7
  6
CONTINUOUS
 10
10.258081
 20
0.005318
 30
0.000000
 11
11.508081
 21
0.005318
 31
0.000000
  0
LINE
  8
BUSHING
 62
     7
  6
CONTINUOUS
 10
11.508081
 20
0.005318
 30
0.000000
 11
11.508081
 21
0.942818
 31
0.000000
  0
LINE
  8
BUSHING
 62
     7
  6
CONTINUOUS
 10
11.508081
 20
0.005318
 30
0.000000
 11
11.508081
 21
-0.932182
 31
0.000000
  0
LINE
  8
BUSHING
 62
     7
  6
CONTINUOUS
 10
10.258081
 20
0.567810
 30
0.000000
 11
11.508081
 21
0.567810
 31
0.000000
  0
LINE
  8
BUSHING
 62
     7
  6
CONTINUOUS
 10
10.258081
 20
0.622477
 30
0.000000
 11
11.508081
 21
0.622477
 31
0.000000
  0
LINE
  8
BUSHING
 62
     7
  6
CONTINUOUS
 10
10.260588
 20
-0.557173
 30
0.000000
 11
11.508081
 21
-0.557173
 31
0.000000
  0
LINE
  8
BUSHING
 62
     7
  6
CONTINUOUS
 10
10.258081
 20
-0.807182
 30
0.000000
 11
11.508081
 21
-0.932182
 31
0.000000
  0
LINE
  8
BUSHING
 62
     7
  6
CONTINUOUS
 10
10.258081
 20
0.817818
 30
0.000000
 11
11.508081
 21
0.942818
 31
0.000000
  0
LINE
  8
BUSHING
 62
     7
  6
CONTINUOUS
 10
10.258081
 20
0.794377
 30
0.000000
 11
11.508081
 21
0.794377
 31
0.000000
  0
LINE
  8
BUSHING
 62
     7
  6
CONTINUOUS
 10
10.256941
 20
0.709346
 30
0.000000
 11
11.508081
 21
0.709346
 31
0.000000
  0
TEXT
  8
DIMENSIONS
 62
     7
 10
7.080941
 20
4.325804
 30
0.000000
 40
0.125000
  1
NOTE A-- TAP 10/24 x 1" DEEP
  0
TEXT
  8
DIMENSIONS
 62
     7
 10
7.072315
 20
3.459091
 30
0.000000
 40
0.125000
  1
NOTE C--   DRILL 23/64" THRU AND
  0
TEXT
  8
DIMENSIONS
 62
     7
 10
8.107500
 20
3.153103
 30
0.000000
 40
0.125000
  1
TAP HOLES IN FACE OF HUB M10 x 1.0 mm THRU
  0
TEXT
  8
DIMENSIONS
 62
     7
 10
7.080941
 20
3.922640
 30
0.000000
 40
0.125000
  1
NOTE B-- DRILL 13/64" COUNTERBORE 23/64" x 13/64" DEEP
  0
CIRCLE
  8
HUB_NEW
 62
     7
  6
CONTINUOUS
 10
0.000000
 20
0.000000
 30
0.000000
 40
0.408000
  0
POINT
  8
PILOT_BEARING
 62
     7
 10
2.012570
 20
3.594220
 30
0.000000
  0
POINT
  8
PILOT_BEARING
 62
     7
 10
2.705570
 20
3.594220
 30
0.000000
  0
TEXT
  8
DIMENSIONS
 62
     7
 10
-2.163052
 20
-1.537765
 30
0.000000
 40
0.125000
  1
(6 X)
  0
LINE
  8
DIMENSIONS
 62
     7
  6
CONTINUOUS
 10
0.000000
 20
2.457761
 30
0.000000
 11
-0.173867
 21
2.411174
 31
0.000000
  0
LINE
  8
DIMENSIONS
 62
     7
  6
CONTINUOUS
 10
0.000000
 20
2.457761
 30
0.000000
 11
-0.173867
 21
2.504348
 31
0.000000
  0
LINE
  8
DIMENSIONS
 62
     7
  6
CONTINUOUS
 10
-2.128483
 20
1.228881
 30
0.000000
 11
-2.081896
 21
1.402747
 31
0.000000
  0
LINE
  8
DIMENSIONS
 62
     7
  6
CONTINUOUS
 10
-2.128483
 20
1.228881
 30
0.000000
 11
-2.001204
 21
1.356160
 31
0.000000
  0
LINE
  8
DIMENSIONS
 62
     7
  6
CONTINUOUS
 10
0.000000
 20
1.690000
 30
0.000000
 11
0.000000
 21
2.557761
 31
0.000000
  0
LINE
  8
DIMENSIONS
 62
     7
  6
CONTINUOUS
 10
-1.463582
 20
0.845000
 30
0.000000
 11
-2.215086
 21
1.278881
 31
0.000000
  0
TEXT
  8
DIMENSIONS
 62
     7
 10
-1.394940
 20
2.065759
 30
0.000000
 40
0.125000
  1
60¦
  0
ARC
  8
DIMENSIONS
 62
     7
  6
CONTINUOUS
 10
-0.000000
 20
0.000000
 30
0.000000
 40
2.457761
 50
90.000000
 51
115.276020
  0
ARC
  8
DIMENSIONS
 62
     7
  6
CONTINUOUS
 10
0.000000
 20
-0.000000
 30
0.000000
 40
2.457761
 50
124.127663
 51
149.999991
  0
LINE
  8
DIMENSIONS
 62
     7
  6
CONTINUOUS
 10
-2.388526
 20
0.000000
 30
0.000000
 11
-2.341939
 21
-0.173867
 31
0.000000
  0
LINE
  8
DIMENSIONS
 62
     7
  6
CONTINUOUS
 10
-2.388526
 20
0.000000
 30
0.000000
 11
-2.435114
 21
-0.173867
 31
0.000000
  0
LINE
  8
DIMENSIONS
 62
     7
  6
CONTINUOUS
 10
-1.194261
 20
-2.068526
 30
0.000000
 11
-1.368128
 21
-2.021938
 31
0.000000
  0
LINE
  8
DIMENSIONS
 62
     7
  6
CONTINUOUS
 10
-1.194261
 20
-2.068526
 30
0.000000
 11
-1.321541
 21
-1.941247
 31
0.000000
  0
LINE
  8
DIMENSIONS
 62
     7
  6
CONTINUOUS
 10
-0.929499
 20
0.000000
 30
0.000000
 11
-2.488526
 21
0.000000
 31
0.000000
  0
LINE
  8
DIMENSIONS
 62
     7
  6
CONTINUOUS
 10
-0.413999
 20
-0.717069
 30
0.000000
 11
-1.244261
 21
-2.155128
 31
0.000000
  0
TEXT
  8
DIMENSIONS
 62
     7
 10
-2.234584
 20
-1.256989
 30
0.000000
 40
0.125000
  1
60¦
  0
ARC
  8
DIMENSIONS
 62
     7
  6
CONTINUOUS
 10
0.000000
 20
-0.000000
 30
0.000000
 40
2.388527
 50
180.000000
 51
207.429454
  0
ARC
  8
DIMENSIONS
 62
     7
  6
CONTINUOUS
 10
0.000000
 20
-0.000000
 30
0.000000
 40
2.388527
 50
212.639029
 51
240.000043
  0
TEXT
  8
DIMENSIONS
 62
     7
 10
-0.813859
 20
2.118936
 30
0.000000
 40
0.125000
  1
(6 X)
  0
LINE
  8
DIMENSIONS
 62
     7
  6
CONTINUOUS
 10
1.333772
 20
1.768058
 30
0.000000
 11
1.583772
 21
1.768058
 31
0.000000
  0
LINE
  8
DIMENSIONS
 62
     7
  6
CONTINUOUS
 10
0.942491
 20
1.249374
 30
0.000000
 11
0.874975
 21
1.082516
 31
0.000000
  0
LINE
  8
DIMENSIONS
 62
     7
  6
CONTINUOUS
 10
0.942491
 20
1.249374
 30
0.000000
 11
0.800592
 21
1.138629
 31
0.000000
  0
LINE
  8
DIMENSIONS
 62
     7
  6
CONTINUOUS
 10
-0.942491
 20
-1.249374
 30
0.000000
 11
-0.874975
 21
-1.082516
 31
0.000000
  0
LINE
  8
DIMENSIONS
 62
     7
  6
CONTINUOUS
 10
-0.942491
 20
-1.249374
 30
0.000000
 11
-0.800592
 21
-1.138629
 31
0.000000
  0
TEXT
  8
DIMENSIONS
 62
     7
 10
1.615022
 20
1.705261
 30
0.000000
 40
0.125000
  1
3.130"
  0
LINE
  8
DIMENSIONS
 62
     7
  6
CONTINUOUS
 10
-0.942491
 20
-1.249374
 30
0.000000
 11
1.333772
 21
1.768058
 31
0.000000
  0
TEXT
  8
DIMENSIONS
 62
     7
 10
1.617988
 20
1.485355
 30
0.000000
 40
0.125000
  1
BOLT CIRCLE
  0
TEXT
  8
DIMENSIONS
 62
     7
 10
1.617988
 20
1.297855
 30
0.000000
 40
0.125000
  1
SEE NOTE C
  0
LINE
  8
DIMENSIONS
 62
     7
  6
CONTINUOUS
 10
1.433993
 20
-1.313725
 30
0.000000
 11
1.683993
 21
-1.313725
 31
0.000000
  0
LINE
  8
DIMENSIONS
 62
     7
  6
CONTINUOUS
 10
0.518358
 20
-0.474884
 30
0.000000
 11
0.358687
 21
-0.391787
 31
0.000000
  0
LINE
  8
DIMENSIONS
 62
     7
  6
CONTINUOUS
 10
0.518358
 20
-0.474884
 30
0.000000
 11
0.421628
 21
-0.323084
 31
0.000000
  0
LINE
  8
DIMENSIONS
 62
     7
  6
CONTINUOUS
 10
-0.518357
 20
0.474884
 30
0.000000
 11
-0.358686
 21
0.391787
 31
0.000000
  0
LINE
  8
DIMENSIONS
 62
     7
  6
CONTINUOUS
 10
-0.518357
 20
0.474884
 30
0.000000
 11
-0.421627
 21
0.323084
 31
0.000000
  0
TEXT
  8
DIMENSIONS
 62
     7
 10
1.715243
 20
-1.376312
 30
0.000000
 40
0.125000
  1
1 13/32"
  0
LINE
  8
DIMENSIONS
 62
     7
  6
CONTINUOUS
 10
-0.518357
 20
0.474884
 30
0.000000
 11
1.433993
 21
-1.313725
 31
0.000000
  0
TEXT
  8
DIMENSIONS
 62
     7
 10
1.747916
 20
-1.632207
 30
0.000000
 40
0.125000
  1
BOLT CIRCLE 
  0
TEXT
  8
DIMENSIONS
 62
     7
 10
1.747916
 20
-1.819707
 30
0.000000
 40
0.125000
  1
SEE NOTE B
  0
LINE
  8
DIMENSIONS
 62
     7
  6
CONTINUOUS
 10
12.016521
 20
-0.557173
 30
0.000000
 11
11.969934
 21
-0.383306
 31
0.000000
  0
LINE
  8
DIMENSIONS
 62
     7
  6
CONTINUOUS
 10
12.016521
 20
-0.557173
 30
0.000000
 11
12.063109
 21
-0.383306
 31
0.000000
  0
LINE
  8
DIMENSIONS
 62
     7
  6
CONTINUOUS
 10
12.016521
 20
0.567810
 30
0.000000
 11
12.063109
 21
0.393943
 31
0.000000
  0
LINE
  8
DIMENSIONS
 62
     7
  6
CONTINUOUS
 10
12.016521
 20
0.567810
 30
0.000000
 11
11.969934
 21
0.393943
 31
0.000000
  0
LINE
  8
DIMENSIONS
 62
     7
  6
CONTINUOUS
 10
11.633081
 20
-0.557173
 30
0.000000
 11
12.116521
 21
-0.557173
 31
0.000000
  0
LINE
  8
DIMENSIONS
 62
     7
  6
CONTINUOUS
 10
11.633081
 20
0.567810
 30
0.000000
 11
12.116521
 21
0.567810
 31
0.000000
  0
TEXT
  8
DIMENSIONS
 62
     7
 10
11.739041
 20
-0.057590
 30
0.000000
 40
0.125000
  1
1 1/8"
  0
LINE
  8
DIMENSIONS
 62
     7
  6
CONTINUOUS
 10
12.016521
 20
-0.557173
 30
0.000000
 11
12.016521
 21
-0.088840
 31
0.000000
  0
LINE
  8
DIMENSIONS
 62
     7
  6
CONTINUOUS
 10
12.016521
 20
0.099476
 30
0.000000
 11
12.016521
 21
0.567810
 31
0.000000
  0
LINE
  8
DIMENSIONS
 62
     7
  6
CONTINUOUS
 10
10.258081
 20
1.709796
 30
0.000000
 11
10.431948
 21
1.756383
 31
0.000000
  0
LINE
  8
DIMENSIONS
 62
     7
  6
CONTINUOUS
 10
10.258081
 20
1.709796
 30
0.000000
 11
10.431948
 21
1.663208
 31
0.000000
  0
LINE
  8
DIMENSIONS
 62
     7
  6
CONTINUOUS
 10
11.508081
 20
1.709796
 30
0.000000
 11
11.334215
 21
1.663208
 31
0.000000
  0
LINE
  8
DIMENSIONS
 62
     7
  6
CONTINUOUS
 10
11.508081
 20
1.709796
 30
0.000000
 11
11.334215
 21
1.756383
 31
0.000000
  0
LINE
  8
DIMENSIONS
 62
     7
  6
CONTINUOUS
 10
10.258081
 20
0.942818
 30
0.000000
 11
10.258081
 21
1.809796
 31
0.000000
  0
LINE
  8
DIMENSIONS
 62
     7
  6
CONTINUOUS
 10
11.508081
 20
1.067818
 30
0.000000
 11
11.508081
 21
1.809796
 31
0.000000
  0
TEXT
  8
DIMENSIONS
 62
     7
 10
10.596453
 20
1.647223
 30
0.000000
 40
0.125000
  1
1 1/4"
  0
LINE
  8
DIMENSIONS
 62
     7
  6
CONTINUOUS
 10
10.258081
 20
1.709796
 30
0.000000
 11
10.565203
 21
1.709796
 31
0.000000
  0
LINE
  8
DIMENSIONS
 62
     7
  6
CONTINUOUS
 10
11.200960
 20
1.709796
 30
0.000000
 11
11.508081
 21
1.709796
 31
0.000000
  0
LINE
  8
DIMENSIONS
 62
     7
  6
CONTINUOUS
 10
9.425135
 20
-0.807182
 30
0.000000
 11
9.378547
 21
-0.633315
 31
0.000000
  0
LINE
  8
DIMENSIONS
 62
     7
  6
CONTINUOUS
 10
9.425135
 20
-0.807182
 30
0.000000
 11
9.471722
 21
-0.633315
 31
0.000000
  0
LINE
  8
DIMENSIONS
 62
     7
  6
CONTINUOUS
 10
9.425135
 20
0.817818
 30
0.000000
 11
9.471722
 21
0.643952
 31
0.000000
  0
LINE
  8
DIMENSIONS
 62
     7
  6
CONTINUOUS
 10
9.425135
 20
0.817818
 30
0.000000
 11
9.378547
 21
0.643952
 31
0.000000
  0
LINE
  8
DIMENSIONS
 62
     7
  6
CONTINUOUS
 10
10.133081
 20
-0.807182
 30
0.000000
 11
9.325135
 21
-0.807182
 31
0.000000
  0
LINE
  8
DIMENSIONS
 62
     7
  6
CONTINUOUS
 10
10.133081
 20
0.817818
 30
0.000000
 11
9.325135
 21
0.817818
 31
0.000000
  0
TEXT
  8
DIMENSIONS
 62
     7
 10
9.112802
 20
0.104279
 30
0.000000
 40
0.125000
  1
1 5/8"
  0
LINE
  8
DIMENSIONS
 62
     7
  6
CONTINUOUS
 10
9.425135
 20
-0.807182
 30
0.000000
 11
9.425135
 21
0.073029
 31
0.000000
  0
LINE
  8
DIMENSIONS
 62
     7
  6
CONTINUOUS
 10
9.425135
 20
0.261579
 30
0.000000
 11
9.425135
 21
0.817818
 31
0.000000
  0
LINE
  8
DIMENSIONS
 62
     7
  6
CONTINUOUS
 10
10.271302
 20
0.713787
 30
0.000000
 11
10.140784
 21
0.837743
 31
0.000000
  0
LINE
  8
DIMENSIONS
 62
     7
  6
CONTINUOUS
 10
10.271302
 20
0.713787
 30
0.000000
 11
10.220249
 21
0.886395
 31
0.000000
  0
LINE
  8
DIMENSIONS
 62
     7
  6
CONTINUOUS
 10
10.271302
 20
0.713787
 30
0.000000
 11
9.213593
 21
2.441378
 31
0.000000
  0
LINE
  8
DIMENSIONS
 62
     7
  6
CONTINUOUS
 10
9.213593
 20
2.441378
 30
0.000000
 11
9.463593
 21
2.441378
 31
0.000000
  0
TEXT
  8
DIMENSIONS
 62
     7
 10
9.526093
 20
2.378878
 30
0.000000
 40
0.125000
  1
SEE NOTE A
  0
LINE
  8
DIMENSIONS
 62
     7
  6
CONTINUOUS
 10
12.860924
 20
-0.932182
 30
0.000000
 11
12.814337
 21
-0.758315
 31
0.000000
  0
LINE
  8
DIMENSIONS
 62
     7
  6
CONTINUOUS
 10
12.860924
 20
-0.932182
 30
0.000000
 11
12.907512
 21
-0.758315
 31
0.000000
  0
LINE
  8
DIMENSIONS
 62
     7
  6
CONTINUOUS
 10
12.860924
 20
0.942818
 30
0.000000
 11
12.907512
 21
0.768952
 31
0.000000
  0
LINE
  8
DIMENSIONS
 62
     7
  6
CONTINUOUS
 10
12.860924
 20
0.942818
 30
0.000000
 11
12.814337
 21
0.768952
 31
0.000000
  0
LINE
  8
DIMENSIONS
 62
     7
  6
CONTINUOUS
 10
11.633081
 20
-0.932182
 30
0.000000
 11
12.960924
 21
-0.932182
 31
0.000000
  0
LINE
  8
DIMENSIONS
 62
     7
  6
CONTINUOUS
 10
11.633081
 20
0.942818
 30
0.000000
 11
12.960924
 21
0.942818
 31
0.000000
  0
TEXT
  8
DIMENSIONS
 62
     7
 10
12.549505
 20
-0.057590
 30
0.000000
 40
0.125000
  1
1 7/8"
  0
LINE
  8
DIMENSIONS
 62
     7
  6
CONTINUOUS
 10
12.860924
 20
-0.932182
 30
0.000000
 11
12.860924
 21
-0.088840
 31
0.000000
  0
LINE
  8
DIMENSIONS
 62
     7
  6
CONTINUOUS
 10
12.860924
 20
0.099476
 30
0.000000
 11
12.860924
 21
0.942818
 31
0.000000
  0
POINT
  8
HUB_DETAIL
 62
     7
 10
4.587545
 20
1.576369
 30
0.000000
  0
POINT
  8
HUB_DETAIL
 62
     7
 10
4.587545
 20
1.576369
 30
0.000000
  0
POINT
  8
HUB_DETAIL
 62
     7
 10
4.587545
 20
1.576369
 30
0.000000
  0
POINT
  8
HUB_DETAIL
 62
     7
 10
4.587545
 20
1.576369
 30
0.000000
  0
POINT
  8
HUB_DETAIL
 62
     7
 10
4.928752
 20
1.575868
 30
0.000000
  0
LINE
  8
HUB_DETAIL
 62
     7
  6
CONTINUOUS
 10
4.636292
 20
1.575868
 30
0.000000
 11
4.636292
 21
1.771318
 31
0.000000
  0
LINE
  8
HUB_DETAIL
 62
     7
  6
CONTINUOUS
 10
4.636292
 20
1.575868
 30
0.000000
 11
4.636292
 21
1.387214
 31
0.000000
  0
LINE
  8
HUB_DETAIL
 62
     7
  6
CONTINUOUS
 10
4.685036
 20
1.575868
 30
0.000000
 11
4.685036
 21
1.740449
 31
0.000000
  0
LINE
  8
HUB_DETAIL
 62
     7
  6
CONTINUOUS
 10
4.685036
 20
1.575042
 30
0.000000
 11
4.685036
 21
1.410462
 31
0.000000
  0
LINE
  8
HUB_DETAIL
 62
     7
  6
CONTINUOUS
 10
4.733779
 20
1.575868
 30
0.000000
 11
4.733779
 21
1.771318
 31
0.000000
  0
LINE
  8
HUB_DETAIL
 62
     7
  6
CONTINUOUS
 10
4.733779
 20
1.575868
 30
0.000000
 11
4.733779
 21
1.387214
 31
0.000000
  0
LINE
  8
HUB_DETAIL
 62
     7
  6
CONTINUOUS
 10
4.831266
 20
1.575868
 30
0.000000
 11
4.831266
 21
1.771318
 31
0.000000
  0
LINE
  8
HUB_DETAIL
 62
     7
  6
CONTINUOUS
 10
4.831266
 20
1.575868
 30
0.000000
 11
4.831266
 21
1.387214
 31
0.000000
  0
POINT
  8
HUB_DETAIL
 62
     7
 10
4.928752
 20
1.575868
 30
0.000000
  0
POINT
  8
HUB_DETAIL
 62
     7
 10
4.928752
 20
1.575868
 30
0.000000
  0
LINE
  8
HUB_DETAIL
 62
     7
  6
CONTINUOUS
 10
4.928752
 20
1.575868
 30
0.000000
 11
4.928752
 21
1.771318
 31
0.000000
  0
LINE
  8
HUB_DETAIL
 62
     7
  6
CONTINUOUS
 10
4.928752
 20
1.575868
 30
0.000000
 11
4.928752
 21
1.387214
 31
0.000000
  0
LINE
  8
HUB_DETAIL
 62
     7
  6
CONTINUOUS
 10
5.026239
 20
1.575868
 30
0.000000
 11
5.026239
 21
1.771318
 31
0.000000
  0
LINE
  8
HUB_DETAIL
 62
     7
  6
CONTINUOUS
 10
5.026239
 20
1.575868
 30
0.000000
 11
5.026239
 21
1.387214
 31
0.000000
  0
LINE
  8
HUB_DETAIL
 62
     7
  6
CONTINUOUS
 10
5.123725
 20
1.575868
 30
0.000000
 11
5.123725
 21
1.771318
 31
0.000000
  0
LINE
  8
HUB_DETAIL
 62
     7
  6
CONTINUOUS
 10
5.123725
 20
1.575868
 30
0.000000
 11
5.123725
 21
1.387214
 31
0.000000
  0
LINE
  8
HUB_DETAIL
 62
     7
  6
CONTINUOUS
 10
4.782522
 20
1.575868
 30
0.000000
 11
4.782522
 21
1.740449
 31
0.000000
  0
LINE
  8
HUB_DETAIL
 62
     7
  6
CONTINUOUS
 10
4.782522
 20
1.575042
 30
0.000000
 11
4.782522
 21
1.410462
 31
0.000000
  0
LINE
  8
HUB_DETAIL
 62
     7
  6
CONTINUOUS
 10
4.880009
 20
1.575868
 30
0.000000
 11
4.880009
 21
1.740449
 31
0.000000
  0
LINE
  8
HUB_DETAIL
 62
     7
  6
CONTINUOUS
 10
4.880009
 20
1.575042
 30
0.000000
 11
4.880009
 21
1.410462
 31
0.000000
  0
LINE
  8
HUB_DETAIL
 62
     7
  6
CONTINUOUS
 10
4.977495
 20
1.575868
 30
0.000000
 11
4.977495
 21
1.740449
 31
0.000000
  0
LINE
  8
HUB_DETAIL
 62
     7
  6
CONTINUOUS
 10
4.977495
 20
1.575042
 30
0.000000
 11
4.977495
 21
1.410462
 31
0.000000
  0
LINE
  8
HUB_DETAIL
 62
     7
  6
CONTINUOUS
 10
5.074982
 20
1.575868
 30
0.000000
 11
5.074982
 21
1.740449
 31
0.000000
  0
LINE
  8
HUB_DETAIL
 62
     7
  6
CONTINUOUS
 10
5.074982
 20
1.575042
 30
0.000000
 11
5.074982
 21
1.410462
 31
0.000000
  0
LINE
  8
HUB_DETAIL
 62
     7
  6
CONTINUOUS
 10
5.172469
 20
1.575868
 30
0.000000
 11
5.172469
 21
1.740449
 31
0.000000
  0
LINE
  8
HUB_DETAIL
 62
     7
  6
CONTINUOUS
 10
5.172469
 20
1.575042
 30
0.000000
 11
5.172469
 21
1.410462
 31
0.000000
  0
POINT
  8
HUB_DETAIL
 62
     7
 10
4.587545
 20
0.716369
 30
0.000000
  0
POINT
  8
HUB_DETAIL
 62
     7
 10
4.587545
 20
0.716369
 30
0.000000
  0
LINE
  8
HUB_DETAIL
 62
     7
  6
CONTINUOUS
 10
4.587545
 20
0.552369
 30
0.000000
 11
4.775045
 21
0.552369
 31
0.000000
  0
LINE
  8
HUB_DETAIL
 62
     7
  6
CONTINUOUS
 10
4.587545
 20
0.880369
 30
0.000000
 11
4.775045
 21
0.880369
 31
0.000000
  0
LINE
  8
HUB_DETAIL
 62
     7
  6
CONTINUOUS
 10
4.395739
 20
0.716369
 30
0.000000
 11
5.456271
 21
0.716369
 31
0.000000
  0
LINE
  8
HUB_DETAIL
 62
     7
  6
CONTINUOUS
 10
4.775045
 20
0.880369
 30
0.000000
 11
4.775045
 21
0.552369
 31
0.000000
  0
LINE
  8
HUB_DETAIL
 62
     7
  6
CONTINUOUS
 10
3.925599
 20
1.576369
 30
0.000000
 11
6.212545
 21
1.576369
 31
0.000000
  0
CIRCLE
  8
HUB_DETAIL
 62
     7
  6
CONTINUOUS
 10
0.000000
 20
0.000000
 30
0.000000
 40
1.936400
  0
TEXT
  8
DIMENSIONS
 62
     7
 10
7.228211
 20
6.171922
 30
0.000000
 40
0.125000
  1
ELECTRO AUTOMOTIVE
  0
TEXT
  8
DIMENSIONS
 62
     7
 10
7.228211
 20
5.984422
 30
0.000000
 40
0.125000
  1
P.O. BOX 1113 FELTON CA. 95018-1113
  0
LINE
  8
DIMENSIONS
 62
     7
  6
CONTINUOUS
 10
7.095465
 20
6.409418
 30
0.000000
 11
10.661916
 21
6.409418
 31
0.000000
  0
LINE
  8
DIMENSIONS
 62
     7
  6
CONTINUOUS
 10
10.661916
 20
6.409418
 30
0.000000
 11
10.661916
 21
5.509433
 31
0.000000
  0
LINE
  8
DIMENSIONS
 62
     7
  6
CONTINUOUS
 10
7.095465
 20
5.509433
 30
0.000000
 11
7.095465
 21
6.409418
 31
0.000000
  0
TEXT
  8
DIMENSIONS
 62
     7
 10
7.228211
 20
5.796922
 30
0.000000
 40
0.125000
  1
PHONE 831-429-1989 FAX 831-429-1907
  0
LINE
  8
DIMENSIONS
 62
     7
  6
CONTINUOUS
 10
10.661916
 20
5.509433
 30
0.000000
 11
7.095465
 21
5.509433
 31
0.000000
  0
TEXT
  8
DIMENSIONS
 62
     7
 10
7.228211
 20
5.609422
 30
0.000000
 40
0.125000
  1
DRAWN BY MARTIN RATTAY
  0
TEXT
  8
DIMENSIONS
 62
     7
 10
7.106821
 20
5.132174
 30
0.000000
 40
0.125000
  1
1965 DATSUN L320 PICKUP
  0
TEXT
  8
DIMENSIONS
 62
     7
 10
7.106821
 20
4.860649
 30
0.000000
 40
0.125000
  1
ADAPTER FOR AN ADC 9" MOTOR
  0
TEXT
  8
DIMENSIONS
 62
     7
 10
2.042973
 20
2.663222
 30
0.000000
 40
0.125000
  1
PILOT BEARING
  0
LINE
  8
DIMENSIONS
 62
     7
  6
CONTINUOUS
 10
1.053292
 20
3.282220
 30
0.000000
 11
1.006704
 21
3.456086
 31
0.000000
  0
LINE
  8
DIMENSIONS
 62
     7
  6
CONTINUOUS
 10
1.053292
 20
3.282220
 30
0.000000
 11
1.099879
 21
3.456086
 31
0.000000
  0
LINE
  8
DIMENSIONS
 62
     7
  6
CONTINUOUS
 10
1.053292
 20
3.906220
 30
0.000000
 11
1.099879
 21
3.732353
 31
0.000000
  0
LINE
  8
DIMENSIONS
 62
     7
  6
CONTINUOUS
 10
1.053292
 20
3.906220
 30
0.000000
 11
1.006704
 21
3.732353
 31
0.000000
  0
LINE
  8
DIMENSIONS
 62
     7
  6
CONTINUOUS
 10
1.887570
 20
3.282220
 30
0.000000
 11
0.953292
 21
3.282220
 31
0.000000
  0
LINE
  8
DIMENSIONS
 62
     7
  6
CONTINUOUS
 10
1.887570
 20
3.906220
 30
0.000000
 11
0.953292
 21
3.906220
 31
0.000000
  0
TEXT
  8
DIMENSIONS
 62
     7
 10
0.786765
 20
3.531484
 30
0.000000
 40
0.125000
  1
.624"
  0
LINE
  8
DIMENSIONS
 62
     7
  6
CONTINUOUS
 10
1.053292
 20
3.282220
 30
0.000000
 11
1.053292
 21
3.500234
 31
0.000000
  0
LINE
  8
DIMENSIONS
 62
     7
  6
CONTINUOUS
 10
1.053292
 20
3.688205
 30
0.000000
 11
1.053292
 21
3.906220
 31
0.000000
  0
LINE
  8
DIMENSIONS
 62
     7
  6
CONTINUOUS
 10
7.011995
 20
0.869425
 30
0.000000
 11
7.136805
 21
0.739723
 31
0.000000
  0
LINE
  8
DIMENSIONS
 62
     7
  6
CONTINUOUS
 10
7.011995
 20
0.869425
 30
0.000000
 11
7.055232
 21
0.694695
 31
0.000000
  0
LINE
  8
DIMENSIONS
 62
     7
  6
CONTINUOUS
 10
7.011995
 20
0.869425
 30
0.000000
 11
8.434661
 21
-1.707869
 31
0.000000
  0
LINE
  8
DIMENSIONS
 62
     7
  6
CONTINUOUS
 10
8.434661
 20
-1.707869
 30
0.000000
 11
8.684661
 21
-1.707869
 31
0.000000
  0
TEXT
  8
DIMENSIONS
 62
     7
 10
8.747162
 20
-1.770369
 30
0.000000
 40
0.125000
  1
BORE TO SUIT BUSHING
  0
POINT
  8
HUB_DETAIL
 62
     7
 10
4.587545
 20
0.000000
 30
0.000000
  0
POINT
  8
HUB_DETAIL
 62
     7
 10
0.000000
 20
-1.936400
 30
0.000000
  0
LINE
  8
DIMENSIONS
 62
     7
  6
CONTINUOUS
 10
5.729935
 20
0.408315
 30
0.000000
 11
5.885192
 21
0.317237
 31
0.000000
  0
LINE
  8
DIMENSIONS
 62
     7
  6
CONTINUOUS
 10
5.729935
 20
0.408315
 30
0.000000
 11
5.818852
 21
0.251811
 31
0.000000
  0
LINE
  8
DIMENSIONS
 62
     7
  6
CONTINUOUS
 10
5.729935
 20
0.408315
 30
0.000000
 11
8.449218
 21
-2.348912
 31
0.000000
  0
LINE
  8
DIMENSIONS
 62
     7
  6
CONTINUOUS
 10
8.449218
 20
-2.348912
 30
0.000000
 11
8.699218
 21
-2.348912
 31
0.000000
  0
TEXT
  8
DIMENSIONS
 62
     7
 10
8.761718
 20
-2.411412
 30
0.000000
 40
0.125000
  1
BORE TO SUIT PILOT 
  0
TEXT
  8
DIMENSIONS
 62
     7
 10
8.761718
 20
-2.598912
 30
0.000000
 40
0.125000
  1
BEARING
  0
POINT
  8
HUB_DETAIL
 62
     7
 10
0.000000
 20
1.936400
 30
0.000000
  0
LINE
  8
HUB_DETAIL
 62
     7
  6
CONTINUOUS
 10
4.587545
 20
1.936400
 30
0.000000
 11
4.587545
 21
-1.936400
 31
0.000000
  0
LINE
  8
HUB_DETAIL
 62
     7
  6
CONTINUOUS
 10
3.781021
 20
-1.936400
 30
0.000000
 11
3.734433
 21
-1.762533
 31
0.000000
  0
LINE
  8
HUB_DETAIL
 62
     7
  6
CONTINUOUS
 10
3.781021
 20
-1.936400
 30
0.000000
 11
3.827608
 21
-1.762533
 31
0.000000
  0
LINE
  8
HUB_DETAIL
 62
     7
  6
CONTINUOUS
 10
3.781021
 20
1.936400
 30
0.000000
 11
3.827608
 21
1.762533
 31
0.000000
  0
LINE
  8
HUB_DETAIL
 62
     7
  6
CONTINUOUS
 10
3.781021
 20
1.936400
 30
0.000000
 11
3.734433
 21
1.762533
 31
0.000000
  0
LINE
  8
HUB_DETAIL
 62
     7
  6
CONTINUOUS
 10
4.462545
 20
-1.936400
 30
0.000000
 11
3.681021
 21
-1.936400
 31
0.000000
  0
LINE
  8
HUB_DETAIL
 62
     7
  6
CONTINUOUS
 10
4.462545
 20
1.936400
 30
0.000000
 11
3.681021
 21
1.936400
 31
0.000000
  0
TEXT
  8
HUB_DETAIL
 62
     7
 10
3.061163
 20
0.133140
 30
0.000000
 40
0.125000
  1
3.8728"
  0
TEXT
  8
HUB_DETAIL
 62
     7
 10
3.838727
 20
0.227298
 30
0.000000
 40
0.125000
  1
+.000"
  0
TEXT
  8
HUB_DETAIL
 62
     7
 10
3.838727
 20
0.038981
 30
0.000000
 40
0.125000
  1
-.001"
  0
LINE
  8
HUB_DETAIL
 62
     7
  6
CONTINUOUS
 10
3.781021
 20
-1.936400
 30
0.000000
 11
3.781021
 21
0.007842
 31
0.000000
  0
LINE
  8
HUB_DETAIL
 62
     7
  6
CONTINUOUS
 10
3.781021
 20
0.384253
 30
0.000000
 11
3.781021
 21
1.936400
 31
0.000000
  0
LINE
  8
HUB_DETAIL
 62
     7
  6
CONTINUOUS
 10
6.337545
 20
1.125500
 30
0.000000
 11
7.837545
 21
1.125500
 31
0.000000
  0
LINE
  8
HUB_DETAIL
 62
     7
  6
CONTINUOUS
 10
6.337545
 20
-1.124500
 30
0.000000
 11
7.837545
 21
-1.124500
 31
0.000000
  0
LINE
  8
HUB_DETAIL
 62
     7
  6
CONTINUOUS
 10
7.837545
 20
0.938000
 30
0.000000
 11
6.462545
 21
0.800500
 31
0.000000
  0
LINE
  8
HUB_DETAIL
 62
     7
  6
CONTINUOUS
 10
7.837545
 20
-0.937000
 30
0.000000
 11
6.462545
 21
-0.799500
 31
0.000000
  0
LINE
  8
HUB_DETAIL
 62
     7
  6
CONTINUOUS
 10
7.837545
 20
1.125500
 30
0.000000
 11
7.837545
 21
0.938000
 31
0.000000
  0
LINE
  8
HUB_DETAIL
 62
     7
  6
CONTINUOUS
 10
7.837545
 20
-0.937000
 30
0.000000
 11
7.837545
 21
-1.124500
 31
0.000000
  0
LINE
  8
HUB_DETAIL
 62
     7
  6
CONTINUOUS
 10
6.462545
 20
0.800500
 30
0.000000
 11
6.462545
 21
-0.799500
 31
0.000000
  0
LINE
  8
HUB_DETAIL
 62
     7
  6
CONTINUOUS
 10
6.337545
 20
-1.124500
 30
0.000000
 11
6.337545
 21
-1.936400
 31
0.000000
  0
LINE
  8
HUB_DETAIL
 62
     7
  6
CONTINUOUS
 10
6.337545
 20
1.936400
 30
0.000000
 11
6.337545
 21
1.125500
 31
0.000000
  0
LINE
  8
HUB_DETAIL
 62
     7
  6
CONTINUOUS
 10
4.587545
 20
1.936400
 30
0.000000
 11
6.337545
 21
1.936400
 31
0.000000
  0
LINE
  8
HUB_DETAIL
 62
     7
  6
CONTINUOUS
 10
6.337545
 20
1.771369
 30
0.000000
 11
4.587219
 21
1.771369
 31
0.000000
  0
LINE
  8
HUB_DETAIL
 62
     7
  6
CONTINUOUS
 10
6.337545
 20
1.381370
 30
0.000000
 11
4.587132
 21
1.381370
 31
0.000000
  0
LINE
  8
HUB_DETAIL
 62
     7
  6
CONTINUOUS
 10
6.646958
 20
0.818941
 30
0.000000
 11
4.775045
 21
0.818941
 31
0.000000
  0
LINE
  8
HUB_DETAIL
 62
     7
  6
CONTINUOUS
 10
6.462545
 20
0.408000
 30
0.000000
 11
4.587545
 21
0.408000
 31
0.000000
  0
LINE
  8
HUB_DETAIL
 62
     7
  6
CONTINUOUS
 10
6.462545
 20
-0.408000
 30
0.000000
 11
4.587545
 21
-0.408000
 31
0.000000
  0
LINE
  8
HUB_DETAIL
 62
     7
  6
CONTINUOUS
 10
4.587545
 20
-1.936400
 30
0.000000
 11
6.337545
 21
-1.936400
 31
0.000000
  0
POINT
  8
HUB_DETAIL
 62
     7
 10
6.462545
 20
0.000000
 30
0.000000
  0
LINE
  8
HUB_DETAIL
 62
     7
  6
CONTINUOUS
 10
6.462545
 20
0.615841
 30
0.000000
 11
4.775045
 21
0.615841
 31
0.000000
  0
LINE
  8
PILOT_BEARING
 62
     7
  6
CONTINUOUS
 10
2.012570
 20
3.906220
 30
0.000000
 11
3.812570
 21
3.906220
 31
0.000000
  0
LINE
  8
PILOT_BEARING
 62
     7
  6
CONTINUOUS
 10
2.012570
 20
3.282220
 30
0.000000
 11
3.812570
 21
3.282220
 31
0.000000
  0
LINE
  8
PILOT_BEARING
 62
     7
  6
CONTINUOUS
 10
2.012570
 20
3.962220
 30
0.000000
 11
2.052570
 21
4.002220
 31
0.000000
  0
LINE
  8
PILOT_BEARING
 62
     7
  6
CONTINUOUS
 10
2.012570
 20
3.962220
 30
0.000000
 11
2.012570
 21
3.226220
 31
0.000000
  0
LINE
  8
PILOT_BEARING
 62
     7
  6
CONTINUOUS
 10
2.012570
 20
3.226220
 30
0.000000
 11
2.052570
 21
3.186220
 31
0.000000
  0
LINE
  8
PILOT_BEARING
 62
     7
  6
CONTINUOUS
 10
2.052570
 20
4.002220
 30
0.000000
 11
3.772570
 21
4.002220
 31
0.000000
  0
LINE
  8
PILOT_BEARING
 62
     7
  6
CONTINUOUS
 10
3.772570
 20
4.002220
 30
0.000000
 11
3.812570
 21
3.962220
 31
0.000000
  0
LINE
  8
PILOT_BEARING
 62
     7
  6
CONTINUOUS
 10
2.052570
 20
3.186220
 30
0.000000
 11
3.772570
 21
3.186220
 31
0.000000
  0
LINE
  8
PILOT_BEARING
 62
     7
  6
CONTINUOUS
 10
3.812570
 20
3.962220
 30
0.000000
 11
3.812570
 21
3.226220
 31
0.000000
  0
LINE
  8
PILOT_BEARING
 62
     7
  6
CONTINUOUS
 10
3.772570
 20
3.186220
 30
0.000000
 11
3.812570
 21
3.226220
 31
0.000000
  0
LINE
  8
HUB_DETAIL
 62
     7
  6
CONTINUOUS
 10
2.012570
 20
4.557034
 30
0.000000
 11
2.186437
 21
4.603622
 31
0.000000
  0
LINE
  8
HUB_DETAIL
 62
     7
  6
CONTINUOUS
 10
2.012570
 20
4.557034
 30
0.000000
 11
2.186437
 21
4.510447
 31
0.000000
  0
LINE
  8
HUB_DETAIL
 62
     7
  6
CONTINUOUS
 10
3.812570
 20
4.557034
 30
0.000000
 11
3.638703
 21
4.510447
 31
0.000000
  0
LINE
  8
HUB_DETAIL
 62
     7
  6
CONTINUOUS
 10
3.812570
 20
4.557034
 30
0.000000
 11
3.638703
 21
4.603622
 31
0.000000
  0
LINE
  8
HUB_DETAIL
 62
     7
  6
CONTINUOUS
 10
2.012570
 20
4.087220
 30
0.000000
 11
2.012570
 21
4.657034
 31
0.000000
  0
LINE
  8
HUB_DETAIL
 62
     7
  6
CONTINUOUS
 10
3.812570
 20
4.087220
 30
0.000000
 11
3.812570
 21
4.657034
 31
0.000000
  0
TEXT
  8
HUB_DETAIL
 62
     7
 10
2.686134
 20
4.493986
 30
0.000000
 40
0.125000
  1
1.80"
  0
LINE
  8
HUB_DETAIL
 62
     7
  6
CONTINUOUS
 10
2.012570
 20
4.557034
 30
0.000000
 11
2.654884
 21
4.557034
 31
0.000000
  0
LINE
  8
HUB_DETAIL
 62
     7
  6
CONTINUOUS
 10
3.170256
 20
4.557034
 30
0.000000
 11
3.812570
 21
4.557034
 31
0.000000
  0
LINE
  8
HUB_DETAIL
 62
     7
  6
CONTINUOUS
 10
4.962010
 20
3.186220
 30
0.000000
 11
4.915422
 21
3.360086
 31
0.000000
  0
LINE
  8
HUB_DETAIL
 62
     7
  6
CONTINUOUS
 10
4.962010
 20
3.186220
 30
0.000000
 11
5.008597
 21
3.360086
 31
0.000000
  0
LINE
  8
HUB_DETAIL
 62
     7
  6
CONTINUOUS
 10
4.962010
 20
4.002220
 30
0.000000
 11
5.008597
 21
3.828353
 31
0.000000
  0
LINE
  8
HUB_DETAIL
 62
     7
  6
CONTINUOUS
 10
4.962010
 20
4.002220
 30
0.000000
 11
4.915422
 21
3.828353
 31
0.000000
  0
LINE
  8
HUB_DETAIL
 62
     7
  6
CONTINUOUS
 10
3.897570
 20
3.186220
 30
0.000000
 11
5.062010
 21
3.186220
 31
0.000000
  0
LINE
  8
HUB_DETAIL
 62
     7
  6
CONTINUOUS
 10
3.897570
 20
4.002220
 30
0.000000
 11
5.062010
 21
4.002220
 31
0.000000
  0
TEXT
  8
HUB_DETAIL
 62
     7
 10
4.662602
 20
3.531171
 30
0.000000
 40
0.125000
  1
0.816"
  0
LINE
  8
HUB_DETAIL
 62
     7
  6
CONTINUOUS
 10
4.962010
 20
3.186220
 30
0.000000
 11
4.962010
 21
3.499921
 31
0.000000
  0
LINE
  8
HUB_DETAIL
 62
     7
  6
CONTINUOUS
 10
4.962010
 20
3.688518
 30
0.000000
 11
4.962010
 21
4.002220
 31
0.000000
  0
LINE
  8
HUB_DETAIL
 62
     7
  6
CONTINUOUS
 10
4.587545
 20
-2.343826
 30
0.000000
 11
4.761411
 21
-2.297239
 31
0.000000
  0
LINE
  8
HUB_DETAIL
 62
     7
  6
CONTINUOUS
 10
4.587545
 20
-2.343826
 30
0.000000
 11
4.761411
 21
-2.390414
 31
0.000000
  0
LINE
  8
HUB_DETAIL
 62
     7
  6
CONTINUOUS
 10
6.337545
 20
-2.343826
 30
0.000000
 11
6.163678
 21
-2.390414
 31
0.000000
  0
LINE
  8
HUB_DETAIL
 62
     7
  6
CONTINUOUS
 10
6.337545
 20
-2.343826
 30
0.000000
 11
6.163678
 21
-2.297239
 31
0.000000
  0
LINE
  8
HUB_DETAIL
 62
     7
  6
CONTINUOUS
 10
4.587545
 20
-2.061400
 30
0.000000
 11
4.587545
 21
-2.443826
 31
0.000000
  0
LINE
  8
HUB_DETAIL
 62
     7
  6
CONTINUOUS
 10
6.337545
 20
-2.061400
 30
0.000000
 11
6.337545
 21
-2.443826
 31
0.000000
  0
TEXT
  8
HUB_DETAIL
 62
     7
 10
5.140191
 20
-2.406399
 30
0.000000
 40
0.125000
  1
1 3/4"
  0
LINE
  8
HUB_DETAIL
 62
     7
  6
CONTINUOUS
 10
4.587545
 20
-2.343826
 30
0.000000
 11
5.108941
 21
-2.343826
 31
0.000000
  0
LINE
  8
HUB_DETAIL
 62
     7
  6
CONTINUOUS
 10
5.816148
 20
-2.343826
 30
0.000000
 11
6.337545
 21
-2.343826
 31
0.000000
  0
LINE
  8
HUB_DETAIL
 62
     7
  6
CONTINUOUS
 10
4.587545
 20
-2.780481
 30
0.000000
 11
4.761411
 21
-2.733893
 31
0.000000
  0
LINE
  8
HUB_DETAIL
 62
     7
  6
CONTINUOUS
 10
4.587545
 20
-2.780481
 30
0.000000
 11
4.761411
 21
-2.827068
 31
0.000000
  0
LINE
  8
HUB_DETAIL
 62
     7
  6
CONTINUOUS
 10
7.837545
 20
-2.780481
 30
0.000000
 11
7.663678
 21
-2.827068
 31
0.000000
  0
LINE
  8
HUB_DETAIL
 62
     7
  6
CONTINUOUS
 10
7.837545
 20
-2.780481
 30
0.000000
 11
7.663678
 21
-2.733893
 31
0.000000
  0
LINE
  8
HUB_DETAIL
 62
     7
  6
CONTINUOUS
 10
4.587545
 20
-2.061400
 30
0.000000
 11
4.587545
 21
-2.880481
 31
0.000000
  0
LINE
  8
HUB_DETAIL
 62
     7
  6
CONTINUOUS
 10
7.837545
 20
-1.249500
 30
0.000000
 11
7.837545
 21
-2.880481
 31
0.000000
  0
TEXT
  8
HUB_DETAIL
 62
     7
 10
5.890191
 20
-2.843053
 30
0.000000
 40
0.125000
  1
3 1/4"
  0
LINE
  8
HUB_DETAIL
 62
     7
  6
CONTINUOUS
 10
4.587545
 20
-2.780481
 30
0.000000
 11
5.858941
 21
-2.780481
 31
0.000000
  0
LINE
  8
HUB_DETAIL
 62
     7
  6
CONTINUOUS
 10
6.566148
 20
-2.780481
 30
0.000000
 11
7.837545
 21
-2.780481
 31
0.000000
  0
ENDSEC
  0
EOF
