  0
SECTION
  2
HEADER
  9
$ACADVER
  1
AC1006
  0
ENDSEC
  0
SECTION
  2
TABLES
  0
TABLE
  2
LTYPE
 70
    25
  0
LTYPE
  2
CONTINUOUS
 70
    64
  3
Solid line
 72
    64
 73
     0
 40
0.000000
  0
LTYPE
  2
DASHDOT
 70
    64
  3
__ . __ . __ . __ . __ . __ . __ . __ . __ . __
 72
    65
 73
     4
 40
1.000000
 49
0.500000
 49
-0.250000
 49
0.000000
 49
-0.250000
  0
LTYPE
  2
DASHED
 70
    64
  3
__ __ __ __ __ __ __ __ __ __ __ __ __ __ __ __
 72
    65
 73
     2
 40
0.750000
 49
0.500000
 49
-0.250000
  0
LTYPE
  2
DIVIDE
 70
    64
  3
____ . . ____ . . ____ . . ____ . . ____ . . __
 72
    65
 73
     6
 40
1.250000
 49
0.500000
 49
-0.250000
 49
0.000000
 49
-0.250000
 49
0.000000
 49
-0.250000
  0
LTYPE
  2
DOT
 70
    64
  3
. . . . . . . . . . . . . . . . . . . . . . . . 
 72
    65
 73
     2
 40
0.250000
 49
0.000000
 49
-0.250000
  0
ENDTAB
  0
ENDSEC
  0
SECTION
  2
ENTITIES
  0
POINT
  8
4
 62
     7
 10
0.000000
 20
0.000000
 30
0.000000
  0
POINT
  8
DIMENSIONS
 62
     7
 10
0.000000
 20
0.000000
 30
0.000000
  0
CIRCLE
  8
HUB
 62
     7
  6
CONTINUOUS
 10
0.000000
 20
0.000000
 30
0.000000
 40
1.250000
  0
POINT
  8
HUB
 62
     7
 10
0.000000
 20
1.250000
 30
0.000000
  0
CIRCLE
  8
HUB
 62
     7
  6
CONTINUOUS
 10
0.000000
 20
1.250000
 30
0.000000
 40
0.197000
  0
POINT
  8
HUB
 62
     7
 10
-1.082532
 20
0.625000
 30
0.000000
  0
CIRCLE
  8
HUB
 62
     7
  6
CONTINUOUS
 10
-1.082532
 20
0.625000
 30
0.000000
 40
0.197000
  0
POINT
  8
HUB
 62
     7
 10
-1.082532
 20
-0.625000
 30
0.000000
  0
CIRCLE
  8
HUB
 62
     7
  6
CONTINUOUS
 10
-1.082532
 20
-0.625000
 30
0.000000
 40
0.197000
  0
POINT
  8
HUB
 62
     7
 10
-0.000000
 20
-1.250000
 30
0.000000
  0
CIRCLE
  8
HUB
 62
     7
  6
CONTINUOUS
 10
-0.000000
 20
-1.250000
 30
0.000000
 40
0.197000
  0
POINT
  8
HUB
 62
     7
 10
1.082532
 20
-0.625000
 30
0.000000
  0
CIRCLE
  8
HUB
 62
     7
  6
CONTINUOUS
 10
1.082532
 20
-0.625000
 30
0.000000
 40
0.197000
  0
POINT
  8
HUB
 62
     7
 10
1.082532
 20
0.625000
 30
0.000000
  0
CIRCLE
  8
HUB
 62
     7
  6
CONTINUOUS
 10
1.082532
 20
0.625000
 30
0.000000
 40
0.197000
  0
CIRCLE
  8
HUB
 62
     7
  6
CONTINUOUS
 10
0.000000
 20
0.000000
 30
0.000000
 40
1.561500
  0
CIRCLE
  8
HUB
 62
     7
  6
CONTINUOUS
 10
0.000000
 20
0.000000
 30
0.000000
 40
1.750000
  0
CIRCLE
  8
HUB
 62
     7
  6
CONTINUOUS
 10
0.000000
 20
0.000000
 30
0.000000
 40
0.703001
  0
CIRCLE
  8
HUB
 62
     7
  6
CONTINUOUS
 10
-0.351501
 20
0.608816
 30
0.000000
 40
0.101500
  0
CIRCLE
  8
HUB
 62
     7
  6
CONTINUOUS
 10
-0.351501
 20
0.608816
 30
0.000000
 40
0.179499
  0
CIRCLE
  8
HUB
 62
     7
  6
CONTINUOUS
 10
-0.703000
 20
0.000000
 30
0.000000
 40
0.101500
  0
CIRCLE
  8
HUB
 62
     7
  6
CONTINUOUS
 10
-0.703000
 20
0.000000
 30
0.000000
 40
0.179500
  0
CIRCLE
  8
HUB
 62
     7
  6
CONTINUOUS
 10
-0.351500
 20
-0.608816
 30
0.000000
 40
0.101499
  0
CIRCLE
  8
HUB
 62
     7
  6
CONTINUOUS
 10
-0.351500
 20
-0.608816
 30
0.000000
 40
0.179500
  0
CIRCLE
  8
HUB
 62
     7
  6
CONTINUOUS
 10
0.351501
 20
-0.608814
 30
0.000000
 40
0.101500
  0
CIRCLE
  8
HUB
 62
     7
  6
CONTINUOUS
 10
0.351501
 20
-0.608814
 30
0.000000
 40
0.179501
  0
CIRCLE
  8
HUB
 62
     7
  6
CONTINUOUS
 10
0.703000
 20
0.000002
 30
0.000000
 40
0.101500
  0
CIRCLE
  8
HUB
 62
     7
  6
CONTINUOUS
 10
0.703000
 20
0.000002
 30
0.000000
 40
0.179500
  0
CIRCLE
  8
HUB
 62
     7
  6
CONTINUOUS
 10
0.351500
 20
0.608816
 30
0.000000
 40
0.101499
  0
CIRCLE
  8
HUB
 62
     7
  6
CONTINUOUS
 10
0.351500
 20
0.608816
 30
0.000000
 40
0.179500
  0
CIRCLE
  8
HUB
 62
     7
  6
CONTINUOUS
 10
0.000000
 20
0.000000
 30
0.000000
 40
0.425000
  0
LINE
  8
DIMENSIONS
 62
     7
  6
CONTINUOUS
 10
0.000000
 20
2.264076
 30
0.000000
 11
-0.096593
 21
2.238194
 31
0.000000
  0
LINE
  8
DIMENSIONS
 62
     7
  6
CONTINUOUS
 10
0.000000
 20
2.264076
 30
0.000000
 11
-0.096593
 21
2.289958
 31
0.000000
  0
LINE
  8
DIMENSIONS
 62
     7
  6
CONTINUOUS
 10
-1.960748
 20
1.132038
 30
0.000000
 11
-1.934866
 21
1.228631
 31
0.000000
  0
LINE
  8
DIMENSIONS
 62
     7
  6
CONTINUOUS
 10
-1.960748
 20
1.132038
 30
0.000000
 11
-1.890037
 21
1.202749
 31
0.000000
  0
LINE
  8
DIMENSIONS
 62
     7
  6
CONTINUOUS
 10
0.000000
 20
1.375000
 30
0.000000
 11
0.000000
 21
2.364076
 31
0.000000
  0
LINE
  8
DIMENSIONS
 62
     7
  6
CONTINUOUS
 10
-1.190785
 20
0.687500
 30
0.000000
 11
-2.047350
 21
1.182038
 31
0.000000
  0
TEXT
  8
DIMENSIONS
 62
     7
 10
-1.298098
 20
1.898023
 30
0.000000
 40
0.125000
  1
60¦
  0
ARC
  8
DIMENSIONS
 62
     7
  6
CONTINUOUS
 10
0.000000
 20
-0.000000
 30
0.000000
 40
2.264076
 50
90.000000
 51
114.833475
  0
ARC
  8
DIMENSIONS
 62
     7
  6
CONTINUOUS
 10
-0.000000
 20
0.000000
 30
0.000000
 40
2.264076
 50
124.460290
 51
150.000000
  0
LINE
  8
DIMENSIONS
 62
     7
  6
CONTINUOUS
 10
1.251791
 20
1.259195
 30
0.000000
 11
1.288322
 21
1.352283
 31
0.000000
  0
LINE
  8
DIMENSIONS
 62
     7
  6
CONTINUOUS
 10
1.251791
 20
1.259195
 30
0.000000
 11
1.329972
 21
1.321546
 31
0.000000
  0
LINE
  8
DIMENSIONS
 62
     7
  6
CONTINUOUS
 10
1.251791
 20
1.259195
 30
0.000000
 11
1.658870
 21
1.810804
 31
0.000000
  0
LINE
  8
DIMENSIONS
 62
     7
  6
CONTINUOUS
 10
1.658870
 20
1.810804
 30
0.000000
 11
1.908870
 21
1.810804
 31
0.000000
  0
TEXT
  8
DIMENSIONS
 62
     7
 10
1.971371
 20
1.748304
 30
0.000000
 40
0.125000
  1
3-1/2" DIA
  0
LINE
  8
DIMENSIONS
 62
     7
  6
CONTINUOUS
 10
0.014025
 20
1.257913
 30
0.000000
 11
0.057232
 21
1.348097
 31
0.000000
  0
LINE
  8
DIMENSIONS
 62
     7
  6
CONTINUOUS
 10
0.014025
 20
1.257913
 30
0.000000
 11
0.096535
 21
1.314411
 31
0.000000
  0
LINE
  8
DIMENSIONS
 62
     7
  6
CONTINUOUS
 10
0.014025
 20
1.257913
 30
0.000000
 11
0.943407
 21
2.342292
 31
0.000000
  0
LINE
  8
DIMENSIONS
 62
     7
  6
CONTINUOUS
 10
0.943407
 20
2.342292
 30
0.000000
 11
1.193407
 21
2.342292
 31
0.000000
  0
TEXT
  8
DIMENSIONS
 62
     7
 10
1.255907
 20
2.279792
 30
0.000000
 40
0.125000
  1
SEE NOTE C
  0
LINE
  8
DIMENSIONS
 62
     7
  6
CONTINUOUS
 10
1.174245
 20
-2.033844
 30
0.000000
 11
1.244956
 21
-1.963133
 31
0.000000
  0
LINE
  8
DIMENSIONS
 62
     7
  6
CONTINUOUS
 10
1.174245
 20
-2.033844
 30
0.000000
 11
1.270838
 21
-2.007962
 31
0.000000
  0
LINE
  8
DIMENSIONS
 62
     7
  6
CONTINUOUS
 10
2.348483
 20
0.000006
 30
0.000000
 11
2.374365
 21
-0.096586
 31
0.000000
  0
LINE
  8
DIMENSIONS
 62
     7
  6
CONTINUOUS
 10
2.348483
 20
0.000006
 30
0.000000
 11
2.322601
 21
-0.096586
 31
0.000000
  0
LINE
  8
DIMENSIONS
 62
     7
  6
CONTINUOUS
 10
0.414001
 20
-0.717067
 30
0.000000
 11
1.224245
 21
-2.120446
 31
0.000000
  0
LINE
  8
DIMENSIONS
 62
     7
  6
CONTINUOUS
 10
0.828000
 20
0.000002
 30
0.000000
 11
2.448483
 21
0.000007
 31
0.000000
  0
TEXT
  8
DIMENSIONS
 62
     7
 10
1.867788
 20
-1.236961
 30
0.000000
 40
0.125000
  1
60¦
  0
ARC
  8
DIMENSIONS
 62
     7
  6
CONTINUOUS
 10
0.000000
 20
-0.000000
 30
0.000000
 40
2.348483
 50
300.000102
 51
327.315468
  0
ARC
  8
DIMENSIONS
 62
     7
  6
CONTINUOUS
 10
0.000000
 20
-0.000000
 30
0.000000
 40
2.348483
 50
332.613990
 51
360.000155
  0
LINE
  8
DIMENSIONS
 62
     7
  6
CONTINUOUS
 10
0.356174
 20
-0.608876
 30
0.000000
 11
0.399706
 21
-0.698904
 31
0.000000
  0
LINE
  8
DIMENSIONS
 62
     7
  6
CONTINUOUS
 10
0.356174
 20
-0.608876
 30
0.000000
 11
0.348860
 21
-0.708608
 31
0.000000
  0
LINE
  8
DIMENSIONS
 62
     7
  6
CONTINUOUS
 10
0.356174
 20
-0.608876
 30
0.000000
 11
0.711372
 21
-2.469872
 31
0.000000
  0
LINE
  8
DIMENSIONS
 62
     7
  6
CONTINUOUS
 10
0.711372
 20
-2.469872
 30
0.000000
 11
0.961372
 21
-2.469872
 31
0.000000
  0
TEXT
  8
DIMENSIONS
 62
     7
 10
1.023872
 20
-2.532372
 30
0.000000
 40
0.125000
  1
SEE NOTE B
  0
LINE
  8
DIMENSIONS
 62
     7
  6
CONTINUOUS
 10
4.515769
 20
-2.114509
 30
0.000000
 11
4.419177
 21
-2.140390
 31
0.000000
  0
LINE
  8
DIMENSIONS
 62
     7
  6
CONTINUOUS
 10
4.515769
 20
-2.114509
 30
0.000000
 11
4.419177
 21
-2.088627
 31
0.000000
  0
LINE
  8
DIMENSIONS
 62
     7
  6
CONTINUOUS
 10
4.703769
 20
-2.114509
 30
0.000000
 11
4.800362
 21
-2.088627
 31
0.000000
  0
LINE
  8
DIMENSIONS
 62
     7
  6
CONTINUOUS
 10
4.703769
 20
-2.114509
 30
0.000000
 11
4.800362
 21
-2.140390
 31
0.000000
  0
LINE
  8
DIMENSIONS
 62
     7
  6
CONTINUOUS
 10
4.515769
 20
-1.686500
 30
0.000000
 11
4.515769
 21
-2.214509
 31
0.000000
  0
LINE
  8
DIMENSIONS
 62
     7
  6
CONTINUOUS
 10
4.703769
 20
-1.875000
 30
0.000000
 11
4.703769
 21
-2.214509
 31
0.000000
  0
TEXT
  8
DIMENSIONS
 62
     7
 10
3.714875
 20
-2.177230
 30
0.000000
 40
0.125000
  1
3/16"
  0
LINE
  8
DIMENSIONS
 62
     7
  6
CONTINUOUS
 10
4.515769
 20
-2.114509
 30
0.000000
 11
4.315769
 21
-2.114509
 31
0.000000
  0
LINE
  8
DIMENSIONS
 62
     7
  6
CONTINUOUS
 10
4.703769
 20
-2.114509
 30
0.000000
 11
4.903769
 21
-2.114509
 31
0.000000
  0
LINE
  8
DIMENSIONS
 62
     7
  6
CONTINUOUS
 10
0.000000
 20
5.250000
 30
0.000000
 11
-0.000000
 21
-2.497346
 31
0.000000
  0
LINE
  8
DIMENSIONS
 62
     7
  6
CONTINUOUS
 10
-2.331328
 20
0.000000
 30
0.000000
 11
11.011873
 21
0.000000
 31
0.000000
  0
LINE
  8
DIMENSIONS
 62
     7
  6
CONTINUOUS
 10
4.327966
 20
-0.425000
 30
0.000000
 11
4.302084
 21
-0.328407
 31
0.000000
  0
LINE
  8
DIMENSIONS
 62
     7
  6
CONTINUOUS
 10
4.327966
 20
-0.425000
 30
0.000000
 11
4.353848
 21
-0.328407
 31
0.000000
  0
LINE
  8
DIMENSIONS
 62
     7
  6
CONTINUOUS
 10
4.327966
 20
0.425000
 30
0.000000
 11
4.353848
 21
0.328407
 31
0.000000
  0
LINE
  8
DIMENSIONS
 62
     7
  6
CONTINUOUS
 10
4.327966
 20
0.425000
 30
0.000000
 11
4.302084
 21
0.328407
 31
0.000000
  0
LINE
  8
DIMENSIONS
 62
     7
  6
CONTINUOUS
 10
4.390769
 20
-0.425000
 30
0.000000
 11
4.227966
 21
-0.425000
 31
0.000000
  0
LINE
  8
DIMENSIONS
 62
     7
  6
CONTINUOUS
 10
4.390769
 20
0.425000
 30
0.000000
 11
4.227966
 21
0.425000
 31
0.000000
  0
TEXT
  8
DIMENSIONS
 62
     7
 10
4.066678
 20
-0.204833
 30
0.000000
 40
0.125000
  1
.850"
  0
LINE
  8
DIMENSIONS
 62
     7
  6
CONTINUOUS
 10
4.327966
 20
-0.425000
 30
0.000000
 11
4.327966
 21
-0.236083
 31
0.000000
  0
LINE
  8
DIMENSIONS
 62
     7
  6
CONTINUOUS
 10
4.327966
 20
-0.047486
 30
0.000000
 11
4.327966
 21
0.425000
 31
0.000000
  0
LINE
  8
DIMENSIONS
 62
     7
  6
CONTINUOUS
 10
3.573317
 20
-1.561500
 30
0.000000
 11
3.547435
 21
-1.464907
 31
0.000000
  0
LINE
  8
DIMENSIONS
 62
     7
  6
CONTINUOUS
 10
3.573317
 20
-1.561500
 30
0.000000
 11
3.599199
 21
-1.464907
 31
0.000000
  0
LINE
  8
DIMENSIONS
 62
     7
  6
CONTINUOUS
 10
3.573317
 20
1.561500
 30
0.000000
 11
3.599199
 21
1.464907
 31
0.000000
  0
LINE
  8
DIMENSIONS
 62
     7
  6
CONTINUOUS
 10
3.573317
 20
1.561500
 30
0.000000
 11
3.547435
 21
1.464907
 31
0.000000
  0
LINE
  8
DIMENSIONS
 62
     7
  6
CONTINUOUS
 10
4.390769
 20
-1.561500
 30
0.000000
 11
3.473317
 21
-1.561500
 31
0.000000
  0
LINE
  8
DIMENSIONS
 62
     7
  6
CONTINUOUS
 10
4.390769
 20
1.561500
 30
0.000000
 11
3.473317
 21
1.561500
 31
0.000000
  0
TEXT
  8
DIMENSIONS
 62
     7
 10
2.949220
 20
0.768359
 30
0.000000
 40
0.125000
  1
3.123"
  0
TEXT
  8
DIMENSIONS
 62
     7
 10
3.535263
 20
0.862202
 30
0.000000
 40
0.125000
  1
+.000"
  0
TEXT
  8
DIMENSIONS
 62
     7
 10
3.535263
 20
0.674515
 30
0.000000
 40
0.125000
  1
-.001"
  0
LINE
  8
DIMENSIONS
 62
     7
  6
CONTINUOUS
 10
3.573317
 20
-1.561500
 30
0.000000
 11
3.573317
 21
0.643061
 31
0.000000
  0
LINE
  8
DIMENSIONS
 62
     7
  6
CONTINUOUS
 10
3.573317
 20
1.018843
 30
0.000000
 11
3.573317
 21
1.561500
 31
0.000000
  0
TEXT
  8
DIMENSIONS
 62
     7
 10
2.685929
 20
0.475750
 30
0.000000
 40
0.125000
  1
LOCATING
  0
TEXT
  8
DIMENSIONS
 62
     7
 10
2.685929
 20
0.288250
 30
0.000000
 40
0.125000
  1
PROJECTION
  0
POINT
  8
DIMENSIONS
 62
     7
 10
4.515769
 20
0.000000
 30
0.000000
  0
LINE
  8
HUB
 62
     7
  6
CONTINUOUS
 10
4.515769
 20
1.561500
 30
0.000000
 11
4.515769
 21
-1.561500
 31
0.000000
  0
LINE
  8
HUB
 62
     7
  6
CONTINUOUS
 10
4.703769
 20
-1.561500
 30
0.000000
 11
4.703769
 21
-1.750000
 31
0.000000
  0
LINE
  8
HUB
 62
     7
  6
CONTINUOUS
 10
4.515769
 20
-1.561500
 30
0.000000
 11
4.703769
 21
-1.561500
 31
0.000000
  0
LINE
  8
HUB
 62
     7
  6
CONTINUOUS
 10
4.515769
 20
1.561500
 30
0.000000
 11
4.703769
 21
1.561500
 31
0.000000
  0
LINE
  8
HUB
 62
     7
  6
CONTINUOUS
 10
4.703769
 20
1.750000
 30
0.000000
 11
4.703769
 21
1.561500
 31
0.000000
  0
LINE
  8
HUB
 62
     7
  6
CONTINUOUS
 10
5.221420
 20
1.250000
 30
0.000000
 11
4.421034
 21
1.250000
 31
0.000000
  0
LINE
  8
HUB
 62
     7
  6
CONTINUOUS
 10
4.615769
 20
1.404819
 30
0.000000
 11
4.615769
 21
1.094998
 31
0.000000
  0
POINT
  8
HUB
 62
     7
 10
4.615769
 20
1.250000
 30
0.000000
  0
POINT
  8
HUB
 62
     7
 10
4.515769
 20
1.250000
 30
0.000000
  0
LINE
  8
HUB
 62
     7
  6
CONTINUOUS
 10
4.715769
 20
1.404819
 30
0.000000
 11
4.715769
 21
1.094998
 31
0.000000
  0
LINE
  8
HUB
 62
     7
  6
CONTINUOUS
 10
4.815769
 20
1.404819
 30
0.000000
 11
4.815769
 21
1.094998
 31
0.000000
  0
LINE
  8
HUB
 62
     7
  6
CONTINUOUS
 10
4.915769
 20
1.404819
 30
0.000000
 11
4.915769
 21
1.094998
 31
0.000000
  0
LINE
  8
HUB
 62
     7
  6
CONTINUOUS
 10
5.015769
 20
1.404819
 30
0.000000
 11
5.015769
 21
1.094998
 31
0.000000
  0
LINE
  8
HUB
 62
     7
  6
CONTINUOUS
 10
4.565769
 20
1.427000
 30
0.000000
 11
4.565769
 21
1.063000
 31
0.000000
  0
LINE
  8
HUB
 62
     7
  6
CONTINUOUS
 10
4.665769
 20
1.427000
 30
0.000000
 11
4.665769
 21
1.063000
 31
0.000000
  0
LINE
  8
HUB
 62
     7
  6
CONTINUOUS
 10
4.765769
 20
1.427000
 30
0.000000
 11
4.765769
 21
1.063000
 31
0.000000
  0
LINE
  8
HUB
 62
     7
  6
CONTINUOUS
 10
4.865769
 20
1.427000
 30
0.000000
 11
4.865769
 21
1.063000
 31
0.000000
  0
LINE
  8
HUB
 62
     7
  6
CONTINUOUS
 10
4.965769
 20
1.427000
 30
0.000000
 11
4.965769
 21
1.063000
 31
0.000000
  0
LINE
  8
HUB
 62
     7
  6
CONTINUOUS
 10
5.050921
 20
1.427000
 30
0.000000
 11
5.140769
 21
1.250000
 31
0.000000
  0
LINE
  8
HUB
 62
     7
  6
CONTINUOUS
 10
4.515769
 20
1.427000
 30
0.000000
 11
5.050921
 21
1.427000
 31
0.000000
  0
LINE
  8
HUB
 62
     7
  6
CONTINUOUS
 10
4.515769
 20
1.063000
 30
0.000000
 11
5.045845
 21
1.063000
 31
0.000000
  0
LINE
  8
HUB
 62
     7
  6
CONTINUOUS
 10
5.140769
 20
1.250000
 30
0.000000
 11
5.045845
 21
1.063000
 31
0.000000
  0
POINT
  8
HUB
 62
     7
 10
4.515769
 20
0.000000
 30
0.000000
  0
LINE
  8
HUB
 62
     7
  6
CONTINUOUS
 10
5.140769
 20
-0.703100
 30
0.000000
 11
4.421100
 21
-0.703100
 31
0.000000
  0
POINT
  8
HUB
 62
     7
 10
4.515769
 20
-0.703100
 30
0.000000
  0
LINE
  8
HUB
 62
     7
  6
CONTINUOUS
 10
4.765769
 20
-0.536310
 30
0.000000
 11
4.765769
 21
-0.864309
 31
0.000000
  0
LINE
  8
HUB
 62
     7
  6
CONTINUOUS
 10
4.765769
 20
-0.536310
 30
0.000000
 11
4.515769
 21
-0.536310
 31
0.000000
  0
LINE
  8
HUB
 62
     7
  6
CONTINUOUS
 10
4.515769
 20
-0.864309
 30
0.000000
 11
4.765769
 21
-0.864309
 31
0.000000
  0
POINT
  8
DIMENSIONS
 62
     7
 10
5.347869
 20
0.000000
 30
0.000000
  0
POINT
  8
DIMENSIONS
 62
     7
 10
5.222869
 20
0.000000
 30
0.000000
  0
LINE
  8
HUB
 62
     7
  6
CONTINUOUS
 10
5.222869
 20
0.800000
 30
0.000000
 11
6.597869
 21
0.937500
 31
0.000000
  0
LINE
  8
HUB
 62
     7
  6
CONTINUOUS
 10
6.597869
 20
0.937500
 30
0.000000
 11
6.597869
 21
1.125000
 31
0.000000
  0
LINE
  8
HUB
 62
     7
  6
CONTINUOUS
 10
6.597869
 20
-0.937500
 30
0.000000
 11
6.597869
 21
-1.125000
 31
0.000000
  0
LINE
  8
HUB
 62
     7
  6
CONTINUOUS
 10
5.472869
 20
1.125000
 30
0.000000
 11
6.597869
 21
1.125000
 31
0.000000
  0
LINE
  8
HUB
 62
     7
  6
CONTINUOUS
 10
6.597869
 20
-1.125000
 30
0.000000
 11
5.472869
 21
-1.125000
 31
0.000000
  0
LINE
  8
HUB
 62
     7
  6
CONTINUOUS
 10
5.472869
 20
1.750000
 30
0.000000
 11
5.472869
 21
1.125000
 31
0.000000
  0
LINE
  8
HUB
 62
     7
  6
CONTINUOUS
 10
5.472869
 20
-1.125000
 30
0.000000
 11
5.472869
 21
-1.750000
 31
0.000000
  0
LINE
  8
HUB
 62
     7
  6
CONTINUOUS
 10
5.222869
 20
-0.800000
 30
0.000000
 11
6.597869
 21
-0.937500
 31
0.000000
  0
LINE
  8
HUB
 62
     7
  6
CONTINUOUS
 10
5.222869
 20
0.800000
 30
0.000000
 11
5.222869
 21
-0.800000
 31
0.000000
  0
POINT
  8
DIMENSIONS
 62
     7
 10
5.222869
 20
0.000000
 30
0.000000
  0
LINE
  8
HUB
 62
     7
  6
CONTINUOUS
 10
4.703769
 20
1.750000
 30
0.000000
 11
5.472869
 21
1.750000
 31
0.000000
  0
LINE
  8
HUB
 62
     7
  6
CONTINUOUS
 10
4.515769
 20
0.425000
 30
0.000000
 11
5.222869
 21
0.425000
 31
0.000000
  0
LINE
  8
HUB
 62
     7
  6
CONTINUOUS
 10
5.222869
 20
-0.425000
 30
0.000000
 11
4.515769
 21
-0.425000
 31
0.000000
  0
LINE
  8
HUB
 62
     7
  6
CONTINUOUS
 10
4.765769
 20
-0.597736
 30
0.000000
 11
5.222869
 21
-0.597736
 31
0.000000
  0
LINE
  8
HUB
 62
     7
  6
CONTINUOUS
 10
4.765769
 20
-0.800836
 30
0.000000
 11
5.231235
 21
-0.800836
 31
0.000000
  0
LINE
  8
HUB
 62
     7
  6
CONTINUOUS
 10
4.703769
 20
-1.750000
 30
0.000000
 11
5.472869
 21
-1.750000
 31
0.000000
  0
LINE
  8
DIMENSIONS
 62
     7
  6
CONTINUOUS
 10
5.713090
 20
-0.800000
 30
0.000000
 11
5.688825
 21
-0.709444
 31
0.000000
  0
LINE
  8
DIMENSIONS
 62
     7
  6
CONTINUOUS
 10
5.713090
 20
-0.800000
 30
0.000000
 11
5.737354
 21
-0.709444
 31
0.000000
  0
LINE
  8
DIMENSIONS
 62
     7
  6
CONTINUOUS
 10
5.713090
 20
0.800000
 30
0.000000
 11
5.737354
 21
0.709444
 31
0.000000
  0
LINE
  8
DIMENSIONS
 62
     7
  6
CONTINUOUS
 10
5.713090
 20
0.800000
 30
0.000000
 11
5.688825
 21
0.709444
 31
0.000000
  0
LINE
  8
DIMENSIONS
 62
     7
  6
CONTINUOUS
 10
5.347869
 20
-0.800000
 30
0.000000
 11
5.806840
 21
-0.800000
 31
0.000000
  0
LINE
  8
DIMENSIONS
 62
     7
  6
CONTINUOUS
 10
5.347869
 20
0.800000
 30
0.000000
 11
5.806840
 21
0.800000
 31
0.000000
  0
TEXT
  8
DIMENSIONS
 62
     7
 10
5.405305
 20
0.076058
 30
0.000000
 40
0.125000
  1
1.600"
  0
LINE
  8
DIMENSIONS
 62
     7
  6
CONTINUOUS
 10
5.713090
 20
-0.800000
 30
0.000000
 11
5.713090
 21
0.044808
 31
0.000000
  0
LINE
  8
DIMENSIONS
 62
     7
  6
CONTINUOUS
 10
5.713090
 20
0.232903
 30
0.000000
 11
5.713090
 21
0.800000
 31
0.000000
  0
LINE
  8
DIMENSIONS
 62
     7
  6
CONTINUOUS
 10
6.050738
 20
-0.875855
 30
0.000000
 11
6.148050
 21
-0.724428
 31
0.000000
  0
LINE
  8
DIMENSIONS
 62
     7
  6
CONTINUOUS
 10
6.050738
 20
-0.875855
 30
0.000000
 11
6.210727
 21
-0.793371
 31
0.000000
  0
LINE
  8
DIMENSIONS
 62
     7
  6
CONTINUOUS
 10
6.050738
 20
-0.875855
 30
0.000000
 11
6.416520
 21
-0.543326
 31
0.000000
  0
LINE
  8
DIMENSIONS
 62
     7
  6
CONTINUOUS
 10
6.416520
 20
-0.543326
 30
0.000000
 11
6.666520
 21
-0.543326
 31
0.000000
  0
TEXT
  8
DIMENSIONS
 62
     7
 10
6.729020
 20
-0.605826
 30
0.000000
 40
0.125000
  1
BORE TO SUIT
  0
TEXT
  8
DIMENSIONS
 62
     7
 10
6.729020
 20
-0.793326
 30
0.000000
 40
0.125000
  1
BUSHING
  0
LINE
  8
DIMENSIONS
 62
     7
  6
CONTINUOUS
 10
5.222869
 20
-2.109804
 30
0.000000
 11
5.319461
 21
-2.083922
 31
0.000000
  0
LINE
  8
DIMENSIONS
 62
     7
  6
CONTINUOUS
 10
5.222869
 20
-2.109804
 30
0.000000
 11
5.319461
 21
-2.135686
 31
0.000000
  0
LINE
  8
DIMENSIONS
 62
     7
  6
CONTINUOUS
 10
6.597869
 20
-2.109804
 30
0.000000
 11
6.501276
 21
-2.135686
 31
0.000000
  0
LINE
  8
DIMENSIONS
 62
     7
  6
CONTINUOUS
 10
6.597869
 20
-2.109804
 30
0.000000
 11
6.501276
 21
-2.083922
 31
0.000000
  0
LINE
  8
DIMENSIONS
 62
     7
  6
CONTINUOUS
 10
5.222869
 20
-0.925000
 30
0.000000
 11
5.222869
 21
-2.209804
 31
0.000000
  0
LINE
  8
DIMENSIONS
 62
     7
  6
CONTINUOUS
 10
6.597869
 20
-1.250000
 30
0.000000
 11
6.597869
 21
-2.209804
 31
0.000000
  0
TEXT
  8
DIMENSIONS
 62
     7
 10
5.597163
 20
-2.172712
 30
0.000000
 40
0.125000
  1
1 3/8"
  0
LINE
  8
DIMENSIONS
 62
     7
  6
CONTINUOUS
 10
5.222869
 20
-2.109804
 30
0.000000
 11
5.565913
 21
-2.109804
 31
0.000000
  0
LINE
  8
DIMENSIONS
 62
     7
  6
CONTINUOUS
 10
6.254825
 20
-2.109804
 30
0.000000
 11
6.597869
 21
-2.109804
 31
0.000000
  0
TEXT
  8
DIMENSIONS
 62
     7
 10
2.294236
 20
-1.224330
 30
0.000000
 40
0.125000
  1
(6X)
  0
TEXT
  8
DIMENSIONS
 62
     7
 10
-1.850405
 20
1.892267
 30
0.000000
 40
0.125000
  1
(6X)
  0
LINE
  8
DIMENSIONS
 62
     7
  6
CONTINUOUS
 10
8.360709
 20
-1.750000
 30
0.000000
 11
8.334827
 21
-1.653407
 31
0.000000
  0
LINE
  8
DIMENSIONS
 62
     7
  6
CONTINUOUS
 10
8.360709
 20
-1.750000
 30
0.000000
 11
8.386591
 21
-1.653407
 31
0.000000
  0
LINE
  8
DIMENSIONS
 62
     7
  6
CONTINUOUS
 10
8.360709
 20
1.750000
 30
0.000000
 11
8.386591
 21
1.653407
 31
0.000000
  0
LINE
  8
DIMENSIONS
 62
     7
  6
CONTINUOUS
 10
8.360709
 20
1.750000
 30
0.000000
 11
8.334827
 21
1.653407
 31
0.000000
  0
LINE
  8
DIMENSIONS
 62
     7
  6
CONTINUOUS
 10
5.597869
 20
-1.750000
 30
0.000000
 11
8.460709
 21
-1.750000
 31
0.000000
  0
LINE
  8
DIMENSIONS
 62
     7
  6
CONTINUOUS
 10
5.597869
 20
1.750000
 30
0.000000
 11
8.460709
 21
1.750000
 31
0.000000
  0
TEXT
  8
DIMENSIONS
 62
     7
 10
8.046780
 20
-0.212304
 30
0.000000
 40
0.125000
  1
3 1/2"
  0
LINE
  8
DIMENSIONS
 62
     7
  6
CONTINUOUS
 10
8.360709
 20
-1.750000
 30
0.000000
 11
8.360709
 21
-0.243554
 31
0.000000
  0
LINE
  8
DIMENSIONS
 62
     7
  6
CONTINUOUS
 10
8.360709
 20
-0.055881
 30
0.000000
 11
8.360709
 21
1.750000
 31
0.000000
  0
LINE
  8
DIMENSIONS
 62
     7
  6
CONTINUOUS
 10
7.763818
 20
-1.125000
 30
0.000000
 11
7.737936
 21
-1.028407
 31
0.000000
  0
LINE
  8
DIMENSIONS
 62
     7
  6
CONTINUOUS
 10
7.763818
 20
-1.125000
 30
0.000000
 11
7.789700
 21
-1.028407
 31
0.000000
  0
LINE
  8
DIMENSIONS
 62
     7
  6
CONTINUOUS
 10
7.763818
 20
1.125000
 30
0.000000
 11
7.789700
 21
1.028408
 31
0.000000
  0
LINE
  8
DIMENSIONS
 62
     7
  6
CONTINUOUS
 10
7.763818
 20
1.125000
 30
0.000000
 11
7.737936
 21
1.028408
 31
0.000000
  0
LINE
  8
DIMENSIONS
 62
     7
  6
CONTINUOUS
 10
6.722869
 20
-1.125000
 30
0.000000
 11
7.863818
 21
-1.125000
 31
0.000000
  0
LINE
  8
DIMENSIONS
 62
     7
  6
CONTINUOUS
 10
6.722869
 20
1.125000
 30
0.000000
 11
7.863818
 21
1.125000
 31
0.000000
  0
TEXT
  8
DIMENSIONS
 62
     7
 10
7.444880
 20
0.160753
 30
0.000000
 40
0.125000
  1
2 1/4"
  0
LINE
  8
DIMENSIONS
 62
     7
  6
CONTINUOUS
 10
7.763818
 20
-1.125000
 30
0.000000
 11
7.763818
 21
0.129503
 31
0.000000
  0
LINE
  8
DIMENSIONS
 62
     7
  6
CONTINUOUS
 10
7.763818
 20
0.317176
 30
0.000000
 11
7.763818
 21
1.125000
 31
0.000000
  0
LINE
  8
PILOT BEARING
 62
     7
  6
DOT
 10
0.372119
 20
6.718771
 30
0.000000
 11
0.372119
 21
2.605279
 31
0.000000
  0
LINE
  8
PILOT BEARING
 62
     7
  6
DOT
 10
0.372119
 20
2.605279
 30
0.000000
 11
5.073056
 21
2.605279
 31
0.000000
  0
LINE
  8
PILOT BEARING
 62
     7
  6
DOT
 10
5.073056
 20
2.605279
 30
0.000000
 11
5.073056
 21
6.718771
 31
0.000000
  0
LINE
  8
PILOT BEARING
 62
     7
  6
DOT
 10
5.073056
 20
6.718771
 30
0.000000
 11
0.372119
 21
6.718771
 31
0.000000
  0
TEXT
  8
PILOT BEARING
 62
     7
 10
0.753606
 20
3.610675
 30
0.000000
 40
0.125000
  1
PILOT BEARING DETAIL
  0
TEXT
  8
PILOT BEARING
 62
     7
 10
0.753606
 20
3.235675
 30
0.000000
 40
0.125000
  1
NOTE: PILOT BEARING IS PRESSED
  0
TEXT
  8
PILOT BEARING
 62
     7
 10
0.753606
 20
3.048175
 30
0.000000
 40
0.125000
  1
   INTO FLYWHEEL AND DOES NOT
  0
TEXT
  8
PILOT BEARING
 62
     7
 10
0.753606
 20
2.860675
 30
0.000000
 40
0.125000
  1
   AFFECT THE ADAPTOR HUB.
  0
LINE
  8
PILOT BEARING
 62
     7
  6
CONTINUOUS
 10
2.957285
 20
4.942780
 30
0.000000
 11
2.957285
 21
4.092780
 31
0.000000
  0
LINE
  8
PILOT BEARING
 62
     7
  6
CONTINUOUS
 10
2.225285
 20
4.942780
 30
0.000000
 11
2.957285
 21
4.942780
 31
0.000000
  0
LINE
  8
PILOT BEARING
 62
     7
  6
CONTINUOUS
 10
2.225285
 20
4.092780
 30
0.000000
 11
2.957285
 21
4.092780
 31
0.000000
  0
LINE
  8
PILOT BEARING
 62
     7
  6
CONTINUOUS
 10
2.225285
 20
4.942780
 30
0.000000
 11
2.225285
 21
4.092780
 31
0.000000
  0
LINE
  8
PILOT BEARING
 62
     7
  6
CONTINUOUS
 10
2.957285
 20
4.853780
 30
0.000000
 11
2.225285
 21
4.853780
 31
0.000000
  0
LINE
  8
PILOT BEARING
 62
     7
  6
CONTINUOUS
 10
2.957285
 20
4.181780
 30
0.000000
 11
2.225285
 21
4.181780
 31
0.000000
  0
LINE
  8
PILOT BEARING
 62
     7
  6
CONTINUOUS
 10
2.225285
 20
5.431339
 30
0.000000
 11
2.128692
 21
5.405458
 31
0.000000
  0
LINE
  8
PILOT BEARING
 62
     7
  6
CONTINUOUS
 10
2.225285
 20
5.431339
 30
0.000000
 11
2.128692
 21
5.457221
 31
0.000000
  0
LINE
  8
PILOT BEARING
 62
     7
  6
CONTINUOUS
 10
2.957285
 20
5.431339
 30
0.000000
 11
3.053877
 21
5.457221
 31
0.000000
  0
LINE
  8
PILOT BEARING
 62
     7
  6
CONTINUOUS
 10
2.957285
 20
5.431339
 30
0.000000
 11
3.053877
 21
5.405458
 31
0.000000
  0
LINE
  8
PILOT BEARING
 62
     7
  6
CONTINUOUS
 10
2.225285
 20
5.067780
 30
0.000000
 11
2.225285
 21
5.531339
 31
0.000000
  0
LINE
  8
PILOT BEARING
 62
     7
  6
CONTINUOUS
 10
2.957285
 20
5.067780
 30
0.000000
 11
2.957285
 21
5.531339
 31
0.000000
  0
TEXT
  8
PILOT BEARING
 62
     7
 10
2.334425
 20
5.368746
 30
0.000000
 40
0.125000
  1
.732"
  0
LINE
  8
PILOT BEARING
 62
     7
  6
CONTINUOUS
 10
2.225285
 20
5.431339
 30
0.000000
 11
2.025285
 21
5.431339
 31
0.000000
  0
LINE
  8
PILOT BEARING
 62
     7
  6
CONTINUOUS
 10
2.957285
 20
5.431339
 30
0.000000
 11
3.157285
 21
5.431339
 31
0.000000
  0
LINE
  8
PILOT BEARING
 62
     7
  6
CONTINUOUS
 10
3.616198
 20
4.181780
 30
0.000000
 11
3.590316
 21
4.278373
 31
0.000000
  0
LINE
  8
PILOT BEARING
 62
     7
  6
CONTINUOUS
 10
3.616198
 20
4.181780
 30
0.000000
 11
3.642080
 21
4.278373
 31
0.000000
  0
LINE
  8
PILOT BEARING
 62
     7
  6
CONTINUOUS
 10
3.616198
 20
4.853780
 30
0.000000
 11
3.642080
 21
4.757188
 31
0.000000
  0
LINE
  8
PILOT BEARING
 62
     7
  6
CONTINUOUS
 10
3.616198
 20
4.853780
 30
0.000000
 11
3.590316
 21
4.757188
 31
0.000000
  0
LINE
  8
PILOT BEARING
 62
     7
  6
CONTINUOUS
 10
3.082285
 20
4.181780
 30
0.000000
 11
3.716198
 21
4.181780
 31
0.000000
  0
LINE
  8
PILOT BEARING
 62
     7
  6
CONTINUOUS
 10
3.082285
 20
4.853780
 30
0.000000
 11
3.716198
 21
4.853780
 31
0.000000
  0
TEXT
  8
PILOT BEARING
 62
     7
 10
3.356467
 20
4.455045
 30
0.000000
 40
0.125000
  1
.672"
  0
LINE
  8
PILOT BEARING
 62
     7
  6
CONTINUOUS
 10
3.616198
 20
4.181780
 30
0.000000
 11
3.616198
 21
4.423795
 31
0.000000
  0
LINE
  8
PILOT BEARING
 62
     7
  6
CONTINUOUS
 10
3.616198
 20
4.611766
 30
0.000000
 11
3.616198
 21
4.853780
 31
0.000000
  0
LINE
  8
PILOT BEARING
 62
     7
  6
CONTINUOUS
 10
1.468691
 20
4.092780
 30
0.000000
 11
1.442809
 21
4.189373
 31
0.000000
  0
LINE
  8
PILOT BEARING
 62
     7
  6
CONTINUOUS
 10
1.468691
 20
4.092780
 30
0.000000
 11
1.494573
 21
4.189373
 31
0.000000
  0
LINE
  8
PILOT BEARING
 62
     7
  6
CONTINUOUS
 10
1.468691
 20
4.942780
 30
0.000000
 11
1.494573
 21
4.846188
 31
0.000000
  0
LINE
  8
PILOT BEARING
 62
     7
  6
CONTINUOUS
 10
1.468691
 20
4.942780
 30
0.000000
 11
1.442809
 21
4.846188
 31
0.000000
  0
LINE
  8
PILOT BEARING
 62
     7
  6
CONTINUOUS
 10
2.125285
 20
4.092780
 30
0.000000
 11
1.368691
 21
4.092780
 31
0.000000
  0
LINE
  8
PILOT BEARING
 62
     7
  6
CONTINUOUS
 10
2.125285
 20
4.942780
 30
0.000000
 11
1.368691
 21
4.942780
 31
0.000000
  0
TEXT
  8
PILOT BEARING
 62
     7
 10
1.207403
 20
4.454732
 30
0.000000
 40
0.125000
  1
.850"
  0
LINE
  8
PILOT BEARING
 62
     7
  6
CONTINUOUS
 10
1.468691
 20
4.092780
 30
0.000000
 11
1.468691
 21
4.423482
 31
0.000000
  0
LINE
  8
PILOT BEARING
 62
     7
  6
CONTINUOUS
 10
1.468691
 20
4.612079
 30
0.000000
 11
1.468691
 21
4.942780
 31
0.000000
  0
TEXT
  8
PILOT BEARING
 62
     7
 10
0.968709
 20
6.391186
 30
0.000000
 40
0.125000
  1
NOTE! THE PILOT BEARING
  0
TEXT
  8
PILOT BEARING
 62
     7
 10
0.968709
 20
6.203686
 30
0.000000
 40
0.125000
  1
DIMENSIONS ARE NOT 
  0
TEXT
  8
PILOT BEARING
 62
     7
 10
0.968709
 20
6.016186
 30
0.000000
 40
0.125000
  1
VERIFIED AND ARE FOR 
  0
TEXT
  8
PILOT BEARING
 62
     7
 10
0.968709
 20
5.828686
 30
0.000000
 40
0.125000
  1
REFERENCE ONLY UNTIL APPROVED
  0
LINE
  8
DIMENSIONS
 62
     7
  6
CONTINUOUS
 10
4.515769
 20
2.420006
 30
0.000000
 11
4.612362
 21
2.445888
 31
0.000000
  0
LINE
  8
DIMENSIONS
 62
     7
  6
CONTINUOUS
 10
4.515769
 20
2.420006
 30
0.000000
 11
4.612362
 21
2.394124
 31
0.000000
  0
LINE
  8
DIMENSIONS
 62
     7
  6
CONTINUOUS
 10
6.597869
 20
2.420006
 30
0.000000
 11
6.501276
 21
2.394124
 31
0.000000
  0
LINE
  8
DIMENSIONS
 62
     7
  6
CONTINUOUS
 10
6.597869
 20
2.420006
 30
0.000000
 11
6.501276
 21
2.445888
 31
0.000000
  0
LINE
  8
DIMENSIONS
 62
     7
  6
CONTINUOUS
 10
4.515769
 20
1.686500
 30
0.000000
 11
4.515769
 21
2.520006
 31
0.000000
  0
LINE
  8
DIMENSIONS
 62
     7
  6
CONTINUOUS
 10
6.597869
 20
1.250000
 30
0.000000
 11
6.597869
 21
2.520006
 31
0.000000
  0
TEXT
  8
DIMENSIONS
 62
     7
 10
5.231389
 20
2.356957
 30
0.000000
 40
0.125000
  1
2.082"
  0
LINE
  8
DIMENSIONS
 62
     7
  6
CONTINUOUS
 10
4.515769
 20
2.420006
 30
0.000000
 11
5.200139
 21
2.420006
 31
0.000000
  0
LINE
  8
DIMENSIONS
 62
     7
  6
CONTINUOUS
 10
5.913499
 20
2.420006
 30
0.000000
 11
6.597869
 21
2.420006
 31
0.000000
  0
LINE
  8
DIMENSIONS
 62
     7
  6
CONTINUOUS
 10
4.515769
 20
2.076859
 30
0.000000
 11
4.419177
 21
2.050977
 31
0.000000
  0
LINE
  8
DIMENSIONS
 62
     7
  6
CONTINUOUS
 10
4.515769
 20
2.076859
 30
0.000000
 11
4.419177
 21
2.102741
 31
0.000000
  0
LINE
  8
DIMENSIONS
 62
     7
  6
CONTINUOUS
 10
5.472869
 20
2.076859
 30
0.000000
 11
5.569461
 21
2.102741
 31
0.000000
  0
LINE
  8
DIMENSIONS
 62
     7
  6
CONTINUOUS
 10
5.472869
 20
2.076859
 30
0.000000
 11
5.569461
 21
2.050977
 31
0.000000
  0
LINE
  8
DIMENSIONS
 62
     7
  6
CONTINUOUS
 10
4.515769
 20
1.686500
 30
0.000000
 11
4.515769
 21
2.176859
 31
0.000000
  0
LINE
  8
DIMENSIONS
 62
     7
  6
CONTINUOUS
 10
5.472869
 20
1.875000
 30
0.000000
 11
5.472869
 21
2.176859
 31
0.000000
  0
TEXT
  8
DIMENSIONS
 62
     7
 10
4.732045
 20
2.014052
 30
0.000000
 40
0.125000
  1
.957"
  0
LINE
  8
DIMENSIONS
 62
     7
  6
CONTINUOUS
 10
4.515769
 20
2.076859
 30
0.000000
 11
4.315769
 21
2.076859
 31
0.000000
  0
LINE
  8
DIMENSIONS
 62
     7
  6
CONTINUOUS
 10
5.472869
 20
2.076859
 30
0.000000
 11
5.672869
 21
2.076859
 31
0.000000
  0
TEXT
  8
DIMENSIONS
 62
     7
 10
6.944624
 20
4.117502
 30
0.000000
 40
0.125000
  1
NOTE A - DRILL & TAP 10-24 BY 1" DEEP.
  0
TEXT
  8
DIMENSIONS
 62
     7
 10
6.949275
 20
3.591694
 30
0.000000
 40
0.125000
  1
NOTE B - DRILL & CNT'R BORE FOR 10-24 SHCS
  0
TEXT
  8
DIMENSIONS
 62
     7
 10
6.949275
 20
3.404194
 30
0.000000
 40
0.125000
  1
   (6 X) EQUALLY SPACED ON A
  0
TEXT
  8
DIMENSIONS
 62
     7
 10
6.949275
 20
3.216694
 30
0.000000
 40
0.125000
  1
   1-13/32" BOLT CIRCLE AS SHOWN.
  0
TEXT
  8
DIMENSIONS
 62
     7
 10
6.907886
 20
2.808844
 30
0.000000
 40
0.125000
  1
NOTE C - DRILL & TAP 3/8"-24 UNF
  0
TEXT
  8
DIMENSIONS
 62
     7
 10
6.907886
 20
2.621344
 30
0.000000
 40
0.125000
  1
   BY 5/8" DEEP (6) TIMES EQUALLY
  0
TEXT
  8
DIMENSIONS
 62
     7
 10
6.907886
 20
2.433844
 30
0.000000
 40
0.125000
  1
   SPACED ON A 2.5" BOLT CIRCLE.
  0
TEXT
  8
DIMENSIONS
 62
     7
 10
7.244599
 20
6.124530
 30
0.000000
 40
0.125000
  1
P.O. BOX 1113 FELTON CA. 95018-1113
  0
LINE
  8
DIMENSIONS
 62
     7
  6
CONTINUOUS
 10
7.111853
 20
6.549526
 30
0.000000
 11
10.678304
 21
6.549526
 31
0.000000
  0
LINE
  8
DIMENSIONS
 62
     7
  6
CONTINUOUS
 10
10.678304
 20
6.549526
 30
0.000000
 11
10.678304
 21
5.649541
 31
0.000000
  0
LINE
  8
DIMENSIONS
 62
     7
  6
CONTINUOUS
 10
10.678304
 20
5.649541
 30
0.000000
 11
7.111853
 21
5.649541
 31
0.000000
  0
LINE
  8
DIMENSIONS
 62
     7
  6
CONTINUOUS
 10
7.111853
 20
5.649541
 30
0.000000
 11
7.111853
 21
6.549526
 31
0.000000
  0
TEXT
  8
DIMENSIONS
 62
     7
 10
7.244599
 20
5.937030
 30
0.000000
 40
0.125000
  1
PHONE 831-429-1989 FAX 831-429-1907
  0
TEXT
  8
DIMENSIONS
 62
     7
 10
6.958676
 20
5.271570
 30
0.000000
 40
0.125000
  1
LOTUS EUROPA TO THE IMPULSE 9"
  0
TEXT
  8
DIMENSIONS
 62
     7
 10
6.958676
 20
5.084071
 30
0.000000
 40
0.125000
  1
MOTOR
  0
TEXT
  8
DIMENSIONS
 62
     7
 10
6.909440
 20
4.553445
 30
0.000000
 40
0.125000
  1
PRINTED TO SCALE.
  0
TEXT
  8
DIMENSIONS
 62
     7
 10
6.924170
 20
4.751685
 30
0.000000
 40
0.125000
  1
ADAPTOR DETAIL DRAWING  SCALE = 1 : 1
  0
TEXT
  8
DIMENSIONS
 62
     7
 10
7.244599
 20
5.749530
 30
0.000000
 40
0.125000
  1
DRAWN BY MARTY RATTAY  07/24/08
  0
POINT
  8
BUSHING
 62
     7
 10
9.954444
 20
0.015035
 30
0.000000
  0
POINT
  8
HUB
 62
     7
 10
9.954444
 20
0.015035
 30
0.000000
  0
POINT
  8
5
 62
     7
 10
9.954444
 20
0.015035
 30
0.000000
  0
POINT
  8
5
 62
     7
 10
10.016944
 20
0.015035
 30
0.000000
  0
POINT
  8
5
 62
     7
 10
9.954444
 20
0.015035
 30
0.000000
  0
POINT
  8
5
 62
     7
 10
9.954444
 20
0.015035
 30
0.000000
  0
POINT
  8
HUB
 62
     7
 10
9.954444
 20
0.015035
 30
0.000000
  0
POINT
  8
HUB
 62
     7
 10
9.954444
 20
0.015035
 30
0.000000
  0
POINT
  8
HUB
 62
     7
 10
9.954444
 20
0.015035
 30
0.000000
  0
LINE
  8
HUB
 62
     7
  6
CONTINUOUS
 10
9.954444
 20
0.015035
 30
0.000000
 11
9.954444
 21
0.827535
 31
0.000000
  0
POINT
  8
HUB
 62
     7
 10
11.079764
 20
-0.688073
 30
0.000000
  0
POINT
  8
HUB
 62
     7
 10
11.079764
 20
-0.688073
 30
0.000000
  0
POINT
  8
HUB
 62
     7
 10
11.079772
 20
-0.688073
 30
0.000000
  0
POINT
  8
HUB
 62
     7
 10
11.079772
 20
-0.688073
 30
0.000000
  0
POINT
  8
HUB
 62
     7
 10
10.078303
 20
-0.688993
 30
0.000000
  0
POINT
  8
HUB
 62
     7
 10
10.203303
 20
-0.688993
 30
0.000000
  0
POINT
  8
HUB
 62
     7
 10
10.203303
 20
-0.688993
 30
0.000000
  0
LINE
  8
HUB
 62
     7
  6
CONTINUOUS
 10
10.078303
 20
-0.688993
 30
0.000000
 11
10.078303
 21
-0.743693
 31
0.000000
  0
LINE
  8
HUB
 62
     7
  6
CONTINUOUS
 10
10.078303
 20
-0.688993
 30
0.000000
 11
10.078303
 21
-0.634293
 31
0.000000
  0
LINE
  8
HUB
 62
     7
  6
CONTINUOUS
 10
10.203303
 20
-0.688993
 30
0.000000
 11
10.203303
 21
-0.775380
 31
0.000000
  0
LINE
  8
HUB
 62
     7
  6
CONTINUOUS
 10
10.203303
 20
-0.688993
 30
0.000000
 11
10.203303
 21
-0.602607
 31
0.000000
  0
POINT
  8
HUB
 62
     7
 10
10.453303
 20
-0.688993
 30
0.000000
  0
POINT
  8
HUB
 62
     7
 10
10.328303
 20
-0.688993
 30
0.000000
  0
POINT
  8
HUB
 62
     7
 10
10.328303
 20
-0.688993
 30
0.000000
  0
LINE
  8
HUB
 62
     7
  6
CONTINUOUS
 10
10.328303
 20
-0.688993
 30
0.000000
 11
10.328303
 21
-0.743693
 31
0.000000
  0
LINE
  8
HUB
 62
     7
  6
CONTINUOUS
 10
10.328303
 20
-0.688993
 30
0.000000
 11
10.328303
 21
-0.634293
 31
0.000000
  0
POINT
  8
HUB
 62
     7
 10
10.578303
 20
-0.688993
 30
0.000000
  0
LINE
  8
HUB
 62
     7
  6
CONTINUOUS
 10
10.578303
 20
-0.688993
 30
0.000000
 11
10.578303
 21
-0.743693
 31
0.000000
  0
LINE
  8
HUB
 62
     7
  6
CONTINUOUS
 10
10.578303
 20
-0.688993
 30
0.000000
 11
10.578303
 21
-0.634293
 31
0.000000
  0
POINT
  8
HUB
 62
     7
 10
10.828303
 20
-0.688993
 30
0.000000
  0
LINE
  8
HUB
 62
     7
  6
CONTINUOUS
 10
10.828303
 20
-0.688993
 30
0.000000
 11
10.828303
 21
-0.743693
 31
0.000000
  0
LINE
  8
HUB
 62
     7
  6
CONTINUOUS
 10
10.828303
 20
-0.688993
 30
0.000000
 11
10.828303
 21
-0.634293
 31
0.000000
  0
POINT
  8
HUB
 62
     7
 10
11.078303
 20
-0.688993
 30
0.000000
  0
LINE
  8
HUB
 62
     7
  6
CONTINUOUS
 10
11.078303
 20
-0.688993
 30
0.000000
 11
11.078303
 21
-0.743693
 31
0.000000
  0
LINE
  8
HUB
 62
     7
  6
CONTINUOUS
 10
11.078303
 20
-0.688993
 30
0.000000
 11
11.078303
 21
-0.634293
 31
0.000000
  0
POINT
  8
HUB
 62
     7
 10
10.453303
 20
-0.688993
 30
0.000000
  0
POINT
  8
HUB
 62
     7
 10
10.453303
 20
-0.688993
 30
0.000000
  0
LINE
  8
HUB
 62
     7
  6
CONTINUOUS
 10
10.453303
 20
-0.688993
 30
0.000000
 11
10.453303
 21
-0.775380
 31
0.000000
  0
LINE
  8
HUB
 62
     7
  6
CONTINUOUS
 10
10.453303
 20
-0.688993
 30
0.000000
 11
10.453303
 21
-0.602607
 31
0.000000
  0
POINT
  8
HUB
 62
     7
 10
10.703303
 20
-0.688993
 30
0.000000
  0
POINT
  8
HUB
 62
     7
 10
10.703303
 20
-0.688993
 30
0.000000
  0
LINE
  8
HUB
 62
     7
  6
CONTINUOUS
 10
10.703303
 20
-0.688993
 30
0.000000
 11
10.703303
 21
-0.775380
 31
0.000000
  0
LINE
  8
HUB
 62
     7
  6
CONTINUOUS
 10
10.703303
 20
-0.688993
 30
0.000000
 11
10.703303
 21
-0.602607
 31
0.000000
  0
POINT
  8
HUB
 62
     7
 10
10.953303
 20
-0.688993
 30
0.000000
  0
POINT
  8
HUB
 62
     7
 10
10.953303
 20
-0.688993
 30
0.000000
  0
LINE
  8
HUB
 62
     7
  6
CONTINUOUS
 10
10.953303
 20
-0.688993
 30
0.000000
 11
10.953303
 21
-0.775380
 31
0.000000
  0
LINE
  8
HUB
 62
     7
  6
CONTINUOUS
 10
10.953303
 20
-0.688993
 30
0.000000
 11
10.953303
 21
-0.602607
 31
0.000000
  0
POINT
  8
HUB
 62
     7
 10
9.954444
 20
0.015035
 30
0.000000
  0
LINE
  8
HUB
 62
     7
  6
CONTINUOUS
 10
9.954444
 20
-0.797465
 30
0.000000
 11
9.954444
 21
0.015035
 31
0.000000
  0
LINE
  8
HUB
 62
     7
  6
CONTINUOUS
 10
11.204444
 20
0.015035
 30
0.000000
 11
11.204444
 21
-0.922465
 31
0.000000
  0
LINE
  8
HUB
 62
     7
  6
CONTINUOUS
 10
11.204444
 20
0.015035
 30
0.000000
 11
11.204444
 21
0.952535
 31
0.000000
  0
LINE
  8
HUB
 62
     7
  6
CONTINUOUS
 10
9.954444
 20
-0.547457
 30
0.000000
 11
11.204444
 21
-0.547457
 31
0.000000
  0
LINE
  8
HUB
 62
     7
  6
CONTINUOUS
 10
9.954444
 20
-0.602124
 30
0.000000
 11
11.204444
 21
-0.602124
 31
0.000000
  0
LINE
  8
HUB
 62
     7
  6
CONTINUOUS
 10
9.954444
 20
0.827535
 30
0.000000
 11
11.204444
 21
0.952535
 31
0.000000
  0
LINE
  8
HUB
 62
     7
  6
CONTINUOUS
 10
9.954444
 20
-0.797465
 30
0.000000
 11
11.204444
 21
-0.922465
 31
0.000000
  0
LINE
  8
HUB
 62
     7
  6
CONTINUOUS
 10
9.954444
 20
-0.774023
 30
0.000000
 11
11.204444
 21
-0.774023
 31
0.000000
  0
LINE
  8
HUB
 62
     7
  6
CONTINUOUS
 10
9.953303
 20
-0.688993
 30
0.000000
 11
11.204444
 21
-0.688993
 31
0.000000
  0
LINE
  8
HUB
 62
     7
  6
CONTINUOUS
 10
9.954444
 20
0.577526
 30
0.000000
 11
11.204444
 21
0.577526
 31
0.000000
  0
POINT
  8
HUB
 62
     7
 10
10.016944
 20
0.015035
 30
0.000000
  0
LINE
  8
DIMENSIONS
 62
     7
  6
CONTINUOUS
 10
11.827269
 20
-0.547457
 30
0.000000
 11
11.780681
 21
-0.373590
 31
0.000000
  0
LINE
  8
DIMENSIONS
 62
     7
  6
CONTINUOUS
 10
11.827269
 20
-0.547457
 30
0.000000
 11
11.873856
 21
-0.373590
 31
0.000000
  0
LINE
  8
DIMENSIONS
 62
     7
  6
CONTINUOUS
 10
11.827269
 20
0.577526
 30
0.000000
 11
11.873856
 21
0.403660
 31
0.000000
  0
LINE
  8
DIMENSIONS
 62
     7
  6
CONTINUOUS
 10
11.827269
 20
0.577526
 30
0.000000
 11
11.780681
 21
0.403660
 31
0.000000
  0
LINE
  8
DIMENSIONS
 62
     7
  6
CONTINUOUS
 10
11.329444
 20
-0.547457
 30
0.000000
 11
11.927269
 21
-0.547457
 31
0.000000
  0
LINE
  8
DIMENSIONS
 62
     7
  6
CONTINUOUS
 10
11.329444
 20
0.577526
 30
0.000000
 11
11.927269
 21
0.577526
 31
0.000000
  0
TEXT
  8
DIMENSIONS
 62
     7
 10
11.549788
 20
-0.172712
 30
0.000000
 40
0.125000
  1
1 1/8"
  0
LINE
  8
DIMENSIONS
 62
     7
  6
CONTINUOUS
 10
11.827269
 20
-0.547457
 30
0.000000
 11
11.827269
 21
-0.203962
 31
0.000000
  0
LINE
  8
DIMENSIONS
 62
     7
  6
CONTINUOUS
 10
11.827269
 20
-0.015645
 30
0.000000
 11
11.827269
 21
0.577526
 31
0.000000
  0
LINE
  8
DIMENSIONS
 62
     7
  6
CONTINUOUS
 10
9.954444
 20
1.490740
 30
0.000000
 11
10.128310
 21
1.537327
 31
0.000000
  0
LINE
  8
DIMENSIONS
 62
     7
  6
CONTINUOUS
 10
9.954444
 20
1.490740
 30
0.000000
 11
10.128310
 21
1.444152
 31
0.000000
  0
LINE
  8
DIMENSIONS
 62
     7
  6
CONTINUOUS
 10
11.204444
 20
1.490740
 30
0.000000
 11
11.030577
 21
1.444152
 31
0.000000
  0
LINE
  8
DIMENSIONS
 62
     7
  6
CONTINUOUS
 10
11.204444
 20
1.490740
 30
0.000000
 11
11.030577
 21
1.537327
 31
0.000000
  0
LINE
  8
DIMENSIONS
 62
     7
  6
CONTINUOUS
 10
9.954444
 20
0.952535
 30
0.000000
 11
9.954444
 21
1.590740
 31
0.000000
  0
LINE
  8
DIMENSIONS
 62
     7
  6
CONTINUOUS
 10
11.204444
 20
1.077535
 30
0.000000
 11
11.204444
 21
1.590740
 31
0.000000
  0
TEXT
  8
DIMENSIONS
 62
     7
 10
10.292815
 20
1.428167
 30
0.000000
 40
0.125000
  1
1 1/4"
  0
LINE
  8
DIMENSIONS
 62
     7
  6
CONTINUOUS
 10
9.954444
 20
1.490740
 30
0.000000
 11
10.261565
 21
1.490740
 31
0.000000
  0
LINE
  8
DIMENSIONS
 62
     7
  6
CONTINUOUS
 10
10.897322
 20
1.490740
 30
0.000000
 11
11.204444
 21
1.490740
 31
0.000000
  0
LINE
  8
DIMENSIONS
 62
     7
  6
CONTINUOUS
 10
10.179921
 20
-0.825320
 30
0.000000
 11
10.293483
 21
-0.877557
 31
0.000000
  0
LINE
  8
DIMENSIONS
 62
     7
  6
CONTINUOUS
 10
10.179921
 20
-0.825320
 30
0.000000
 11
10.191464
 21
-0.949786
 31
0.000000
  0
LINE
  8
DIMENSIONS
 62
     7
  6
CONTINUOUS
 10
10.179921
 20
-0.825320
 30
0.000000
 11
10.682414
 21
-1.535063
 31
0.000000
  0
LINE
  8
DIMENSIONS
 62
     7
  6
CONTINUOUS
 10
10.682414
 20
-1.535063
 30
0.000000
 11
10.807414
 21
-1.535063
 31
0.000000
  0
TEXT
  8
DIMENSIONS
 62
     7
 10
10.869914
 20
-1.597563
 30
0.000000
 40
0.125000
  1
2.500TPF
  0
LINE
  8
DIMENSIONS
 62
     7
  6
CONTINUOUS
 10
12.391321
 20
-0.922465
 30
0.000000
 11
12.344734
 21
-0.748599
 31
0.000000
  0
LINE
  8
DIMENSIONS
 62
     7
  6
CONTINUOUS
 10
12.391321
 20
-0.922465
 30
0.000000
 11
12.437909
 21
-0.748599
 31
0.000000
  0
LINE
  8
DIMENSIONS
 62
     7
  6
CONTINUOUS
 10
12.391321
 20
0.952535
 30
0.000000
 11
12.437909
 21
0.778668
 31
0.000000
  0
LINE
  8
DIMENSIONS
 62
     7
  6
CONTINUOUS
 10
12.391321
 20
0.952535
 30
0.000000
 11
12.344734
 21
0.778668
 31
0.000000
  0
LINE
  8
DIMENSIONS
 62
     7
  6
CONTINUOUS
 10
11.329444
 20
-0.922465
 30
0.000000
 11
12.491321
 21
-0.922465
 31
0.000000
  0
LINE
  8
DIMENSIONS
 62
     7
  6
CONTINUOUS
 10
11.329444
 20
0.952535
 30
0.000000
 11
12.491321
 21
0.952535
 31
0.000000
  0
TEXT
  8
DIMENSIONS
 62
     7
 10
12.079902
 20
0.099381
 30
0.000000
 40
0.125000
  1
1 7/8"
  0
LINE
  8
DIMENSIONS
 62
     7
  6
CONTINUOUS
 10
12.391321
 20
-0.922465
 30
0.000000
 11
12.391321
 21
0.068131
 31
0.000000
  0
LINE
  8
DIMENSIONS
 62
     7
  6
CONTINUOUS
 10
12.391321
 20
0.256447
 30
0.000000
 11
12.391321
 21
0.952535
 31
0.000000
  0
LINE
  8
DIMENSIONS
 62
     7
  6
CONTINUOUS
 10
9.934137
 20
-0.699034
 30
0.000000
 11
9.876517
 21
-0.869562
 31
0.000000
  0
LINE
  8
DIMENSIONS
 62
     7
  6
CONTINUOUS
 10
9.934137
 20
-0.699034
 30
0.000000
 11
9.798973
 21
-0.817905
 31
0.000000
  0
LINE
  8
DIMENSIONS
 62
     7
  6
CONTINUOUS
 10
9.934137
 20
-0.699034
 30
0.000000
 11
9.025234
 21
-2.063441
 31
0.000000
  0
LINE
  8
DIMENSIONS
 62
     7
  6
CONTINUOUS
 10
9.025234
 20
-2.063441
 30
0.000000
 11
8.775234
 21
-2.063441
 31
0.000000
  0
TEXT
  8
DIMENSIONS
 62
     7
 10
7.379151
 20
-2.125941
 30
0.000000
 40
0.125000
  1
SEE NOTE A
  0
LINE
  8
DIMENSIONS
 62
     7
  6
CONTINUOUS
 10
9.328177
 20
-0.797465
 30
0.000000
 11
9.281589
 21
-0.623599
 31
0.000000
  0
LINE
  8
DIMENSIONS
 62
     7
  6
CONTINUOUS
 10
9.328177
 20
-0.797465
 30
0.000000
 11
9.374764
 21
-0.623599
 31
0.000000
  0
LINE
  8
DIMENSIONS
 62
     7
  6
CONTINUOUS
 10
9.328177
 20
0.827535
 30
0.000000
 11
9.374764
 21
0.653668
 31
0.000000
  0
LINE
  8
DIMENSIONS
 62
     7
  6
CONTINUOUS
 10
9.328177
 20
0.827535
 30
0.000000
 11
9.281589
 21
0.653668
 31
0.000000
  0
LINE
  8
DIMENSIONS
 62
     7
  6
CONTINUOUS
 10
9.829444
 20
-0.797465
 30
0.000000
 11
9.228177
 21
-0.797465
 31
0.000000
  0
LINE
  8
DIMENSIONS
 62
     7
  6
CONTINUOUS
 10
9.829444
 20
0.827535
 30
0.000000
 11
9.228177
 21
0.827535
 31
0.000000
  0
TEXT
  8
DIMENSIONS
 62
     7
 10
9.015844
 20
0.113989
 30
0.000000
 40
0.125000
  1
1 5/8"
  0
LINE
  8
DIMENSIONS
 62
     7
  6
CONTINUOUS
 10
9.328177
 20
-0.797465
 30
0.000000
 11
9.328177
 21
0.082739
 31
0.000000
  0
LINE
  8
DIMENSIONS
 62
     7
  6
CONTINUOUS
 10
9.328177
 20
0.271289
 30
0.000000
 11
9.328177
 21
0.827535
 31
0.000000
  0
TEXT
  8
DIMENSIONS
 62
     7
 10
9.875491
 20
-2.089078
 30
0.000000
 40
0.125000
  1
BUSHING DETAIL
  0
TEXT
  8
DIMENSIONS
 62
     7
 10
7.244599
 20
6.312031
 30
0.000000
 40
0.125000
  1
COPYRIGHT ELECTRO AUTOMOTIVE
  0
ENDSEC
  0
EOF
