  0
SECTION
  2
HEADER
  9
$ACADVER
  1
AC1006
  0
ENDSEC
  0
SECTION
  2
TABLES
  0
TABLE
  2
LTYPE
 70
    25
  0
LTYPE
  2
CONTINUOUS
 70
    64
  3
Solid line
 72
    64
 73
     0
 40
0.000000
  0
LTYPE
  2
DASHDOT
 70
    64
  3
__ . __ . __ . __ . __ . __ . __ . __ . __ . __
 72
    65
 73
     4
 40
1.000000
 49
0.500000
 49
-0.250000
 49
0.000000
 49
-0.250000
  0
LTYPE
  2
DASHED
 70
    64
  3
__ __ __ __ __ __ __ __ __ __ __ __ __ __ __ __
 72
    65
 73
     2
 40
0.750000
 49
0.500000
 49
-0.250000
  0
LTYPE
  2
DIVIDE
 70
    64
  3
____ . . ____ . . ____ . . ____ . . ____ . . __
 72
    65
 73
     6
 40
1.250000
 49
0.500000
 49
-0.250000
 49
0.000000
 49
-0.250000
 49
0.000000
 49
-0.250000
  0
LTYPE
  2
DOT
 70
    64
  3
. . . . . . . . . . . . . . . . . . . . . . . . 
 72
    65
 73
     2
 40
0.250000
 49
0.000000
 49
-0.250000
  0
ENDTAB
  0
ENDSEC
  0
SECTION
  2
ENTITIES
  0
LINE
  8
PARTS
 62
     7
  6
CONTINUOUS
 10
6.505981
 20
6.491785
 30
0.000000
 11
6.880981
 21
6.491785
 31
0.000000
  0
LINE
  8
PARTS
 62
     7
  6
CONTINUOUS
 10
6.880981
 20
17.861786
 30
0.000000
 11
6.505981
 21
17.861786
 31
0.000000
  0
LINE
  8
PARTS
 62
     7
  6
CONTINUOUS
 10
6.112980
 20
17.529285
 30
0.000000
 11
6.505981
 21
17.529285
 31
0.000000
  0
LINE
  8
PARTS
 62
     7
  6
CONTINUOUS
 10
6.112980
 20
6.824285
 30
0.000000
 11
6.505981
 21
6.824285
 31
0.000000
  0
LINE
  8
PARTS
 62
     7
  6
CONTINUOUS
 10
7.197980
 20
7.179784
 30
0.000000
 11
6.880981
 21
7.179784
 31
0.000000
  0
LINE
  8
PARTS
 62
     7
  6
CONTINUOUS
 10
7.197980
 20
17.173786
 30
0.000000
 11
6.880981
 21
17.173786
 31
0.000000
  0
LINE
  8
PARTS
 62
     7
  6
CONTINUOUS
 10
7.198783
 20
7.485783
 30
0.000000
 11
6.880981
 21
7.639283
 31
0.000000
  0
LINE
  8
PARTS
 62
     7
  6
CONTINUOUS
 10
7.197980
 20
16.867786
 30
0.000000
 11
6.880980
 21
16.714287
 31
0.000000
  0
LINE
  8
PARTS
 62
     7
  6
CONTINUOUS
 10
7.154981
 20
14.017782
 30
0.000000
 11
6.880980
 21
14.291782
 31
0.000000
  0
LINE
  8
PARTS
 62
     7
  6
CONTINUOUS
 10
7.154981
 20
10.335783
 30
0.000000
 11
6.880981
 21
10.061783
 31
0.000000
  0
LINE
  8
PARTS
 62
     7
  6
CONTINUOUS
 10
7.197980
 20
16.867786
 30
0.000000
 11
7.197980
 21
17.173786
 31
0.000000
  0
LINE
  8
PARTS
 62
     7
  6
CONTINUOUS
 10
7.197980
 20
7.485783
 30
0.000000
 11
7.197980
 21
7.179784
 31
0.000000
  0
LINE
  8
PARTS
 62
     7
  6
CONTINUOUS
 10
6.880981
 20
7.639283
 30
0.000000
 11
6.880981
 21
10.061783
 31
0.000000
  0
LINE
  8
PARTS
 62
     7
  6
CONTINUOUS
 10
6.880981
 20
7.179784
 30
0.000000
 11
6.880981
 21
6.491785
 31
0.000000
  0
LINE
  8
PARTS
 62
     7
  6
CONTINUOUS
 10
6.880981
 20
16.714287
 30
0.000000
 11
6.880981
 21
14.291782
 31
0.000000
  0
LINE
  8
PARTS
 62
     7
  6
CONTINUOUS
 10
6.880981
 20
17.173786
 30
0.000000
 11
6.880981
 21
17.861786
 31
0.000000
  0
LINE
  8
PARTS
 62
     7
  6
CONTINUOUS
 10
6.505981
 20
17.529285
 30
0.000000
 11
6.505981
 21
17.861786
 31
0.000000
  0
LINE
  8
PARTS
 62
     7
  6
CONTINUOUS
 10
6.505981
 20
6.824285
 30
0.000000
 11
6.505981
 21
6.491785
 31
0.000000
  0
LINE
  8
PARTS
 62
     7
  6
CONTINUOUS
 10
6.112980
 20
14.631783
 30
0.000000
 11
6.505981
 21
14.631783
 31
0.000000
  0
LINE
  8
PARTS
 62
     7
  6
CONTINUOUS
 10
6.505981
 20
14.631783
 30
0.000000
 11
6.505981
 21
9.721783
 31
0.000000
  0
LINE
  8
PARTS
 62
     7
  6
CONTINUOUS
 10
6.505981
 20
9.721783
 30
0.000000
 11
6.108584
 21
9.721783
 31
0.000000
  0
LINE
  8
PARTS
 62
     7
  6
CONTINUOUS
 10
6.505981
 20
14.157784
 30
0.000000
 11
6.687981
 21
14.157784
 31
0.000000
  0
LINE
  8
PARTS
 62
     7
  6
CONTINUOUS
 10
6.687981
 20
14.157784
 30
0.000000
 11
6.687981
 21
10.195784
 31
0.000000
  0
LINE
  8
PARTS
 62
     7
  6
CONTINUOUS
 10
6.687981
 20
10.195784
 30
0.000000
 11
6.502607
 21
10.195784
 31
0.000000
  0
LINE
  8
PARTS
 62
     7
  6
CONTINUOUS
 10
7.019011
 20
13.705156
 30
0.000000
 11
6.687981
 21
13.705156
 31
0.000000
  0
LINE
  8
PARTS
 62
     7
  6
CONTINUOUS
 10
7.019011
 20
13.210155
 30
0.000000
 11
6.687981
 21
13.210155
 31
0.000000
  0
LINE
  8
PARTS
 62
     7
  6
CONTINUOUS
 10
7.019011
 20
12.868656
 30
0.000000
 11
6.687981
 21
12.868656
 31
0.000000
  0
LINE
  8
PARTS
 62
     7
  6
CONTINUOUS
 10
7.019011
 20
11.490656
 30
0.000000
 11
6.687981
 21
11.490656
 31
0.000000
  0
LINE
  8
PARTS
 62
     7
  6
CONTINUOUS
 10
7.019011
 20
13.808783
 30
0.000000
 11
7.019011
 21
10.544783
 31
0.000000
  0
LINE
  8
PARTS
 62
     7
  6
CONTINUOUS
 10
7.154981
 20
10.335783
 30
0.000000
 11
7.154981
 21
10.544783
 31
0.000000
  0
LINE
  8
PARTS
 62
     7
  6
CONTINUOUS
 10
7.019011
 20
10.544783
 30
0.000000
 11
7.154981
 21
10.544783
 31
0.000000
  0
LINE
  8
PARTS
 62
     7
  6
CONTINUOUS
 10
7.154981
 20
14.017782
 30
0.000000
 11
7.154981
 21
13.808783
 31
0.000000
  0
LINE
  8
PARTS
 62
     7
  6
CONTINUOUS
 10
7.019011
 20
13.808783
 30
0.000000
 11
7.154981
 21
13.808783
 31
0.000000
  0
LINE
  8
HUB
 62
     7
  6
CONTINUOUS
 10
7.020011
 20
13.807783
 30
0.000000
 11
7.020011
 21
10.545784
 31
0.000000
  0
LINE
  8
PLATE
 62
     7
  6
CONTINUOUS
 10
7.570981
 20
18.271370
 30
0.000000
 11
7.570981
 21
13.807783
 31
0.000000
  0
LINE
  8
PLATE
 62
     7
  6
CONTINUOUS
 10
7.570981
 20
10.545784
 30
0.000000
 11
7.570981
 21
6.082201
 31
0.000000
  0
LINE
  8
HUB
 62
     7
  6
CONTINUOUS
 10
7.020011
 20
13.807783
 30
0.000000
 11
8.020009
 21
13.807783
 31
0.000000
  0
LINE
  8
HUB
 62
     7
  6
CONTINUOUS
 10
7.020011
 20
10.545784
 30
0.000000
 11
8.020009
 21
10.545784
 31
0.000000
  0
LINE
  8
HUB
 62
     7
  6
CONTINUOUS
 10
7.020011
 20
12.879784
 30
0.000000
 11
7.145011
 21
12.879784
 31
0.000000
  0
LINE
  8
HUB
 62
     7
  6
CONTINUOUS
 10
7.145011
 20
12.879784
 30
0.000000
 11
7.145011
 21
11.473783
 31
0.000000
  0
LINE
  8
HUB
 62
     7
  6
CONTINUOUS
 10
7.145011
 20
11.473783
 30
0.000000
 11
7.020011
 21
11.473783
 31
0.000000
  0
LINE
  8
HUB
 62
     7
  6
CONTINUOUS
 10
7.020011
 20
13.656282
 30
0.000000
 11
7.833011
 21
13.656282
 31
0.000000
  0
LINE
  8
HUB
 62
     7
  6
CONTINUOUS
 10
7.833011
 20
13.656282
 30
0.000000
 11
7.833011
 21
13.252283
 31
0.000000
  0
LINE
  8
HUB
 62
     7
  6
CONTINUOUS
 10
7.833011
 20
13.252283
 30
0.000000
 11
7.019597
 21
13.252283
 31
0.000000
  0
LINE
  8
HUB
 62
     7
  6
CONTINUOUS
 10
7.833011
 20
13.454283
 30
0.000000
 11
6.560332
 21
13.454283
 31
0.000000
  0
LINE
  8
HUB
 62
     7
  6
CONTINUOUS
 10
7.332511
 20
13.044807
 30
0.000000
 11
7.332511
 21
12.716806
 31
0.000000
  0
LINE
  8
HUB
 62
     7
  6
CONTINUOUS
 10
7.145011
 20
12.715784
 30
0.000000
 11
7.332511
 21
12.715784
 31
0.000000
  0
LINE
  8
HUB
 62
     7
  6
CONTINUOUS
 10
7.332511
 20
13.043785
 30
0.000000
 11
7.020011
 21
13.043785
 31
0.000000
  0
LINE
  8
HUB
 62
     7
  6
CONTINUOUS
 10
8.020009
 20
11.051785
 30
0.000000
 11
8.020009
 21
10.545784
 31
0.000000
  0
LINE
  8
HUB
 62
     7
  6
CONTINUOUS
 10
8.020009
 20
13.301785
 30
0.000000
 11
8.020009
 21
13.807783
 31
0.000000
  0
LINE
  8
HUB
 62
     7
  6
CONTINUOUS
 10
7.895009
 20
11.376783
 30
0.000000
 11
9.270009
 21
11.239283
 31
0.000000
  0
LINE
  8
HUB
 62
     7
  6
CONTINUOUS
 10
9.270009
 20
13.301785
 30
0.000000
 11
8.020009
 21
13.301785
 31
0.000000
  0
LINE
  8
HUB
 62
     7
  6
CONTINUOUS
 10
7.332511
 20
12.982357
 30
0.000000
 11
7.950742
 21
12.982357
 31
0.000000
  0
LINE
  8
HUB
 62
     7
  6
CONTINUOUS
 10
7.332511
 20
12.779257
 30
0.000000
 11
7.895009
 21
12.779257
 31
0.000000
  0
LINE
  8
HUB
 62
     7
  6
CONTINUOUS
 10
7.895009
 20
12.551785
 30
0.000000
 11
7.145011
 21
12.551785
 31
0.000000
  0
LINE
  8
HUB
 62
     7
  6
CONTINUOUS
 10
7.895009
 20
11.801785
 30
0.000000
 11
7.145011
 21
11.801785
 31
0.000000
  0
LINE
  8
HUB
 62
     7
  6
CONTINUOUS
 10
9.270009
 20
11.051785
 30
0.000000
 11
8.020009
 21
11.051785
 31
0.000000
  0
LINE
  8
HUB
 62
     7
  6
CONTINUOUS
 10
7.950742
 20
12.982357
 30
0.000000
 11
9.270009
 21
13.114283
 31
0.000000
  0
LINE
  8
HUB
 62
     7
  6
CONTINUOUS
 10
7.895009
 20
11.376783
 30
0.000000
 11
7.895009
 21
12.982357
 31
0.000000
  0
LINE
  8
HUB
 62
     7
  6
CONTINUOUS
 10
7.051011
 20
13.617741
 30
0.000000
 11
7.051011
 21
13.290825
 31
0.000000
  0
LINE
  8
HUB
 62
     7
  6
CONTINUOUS
 10
7.082511
 20
13.656282
 30
0.000000
 11
7.082511
 21
13.252283
 31
0.000000
  0
LINE
  8
HUB
 62
     7
  6
CONTINUOUS
 10
7.113761
 20
13.617741
 30
0.000000
 11
7.113761
 21
13.290825
 31
0.000000
  0
LINE
  8
HUB
 62
     7
  6
CONTINUOUS
 10
7.176511
 20
13.617741
 30
0.000000
 11
7.176511
 21
13.290825
 31
0.000000
  0
LINE
  8
HUB
 62
     7
  6
CONTINUOUS
 10
7.239261
 20
13.617741
 30
0.000000
 11
7.239261
 21
13.290825
 31
0.000000
  0
LINE
  8
HUB
 62
     7
  6
CONTINUOUS
 10
7.302011
 20
13.617741
 30
0.000000
 11
7.302011
 21
13.290825
 31
0.000000
  0
LINE
  8
HUB
 62
     7
  6
CONTINUOUS
 10
7.364760
 20
13.617741
 30
0.000000
 11
7.364760
 21
13.290825
 31
0.000000
  0
LINE
  8
HUB
 62
     7
  6
CONTINUOUS
 10
7.427510
 20
13.617741
 30
0.000000
 11
7.427510
 21
13.290825
 31
0.000000
  0
LINE
  8
HUB
 62
     7
  6
CONTINUOUS
 10
7.490260
 20
13.617741
 30
0.000000
 11
7.490260
 21
13.290825
 31
0.000000
  0
LINE
  8
HUB
 62
     7
  6
CONTINUOUS
 10
7.553010
 20
13.617741
 30
0.000000
 11
7.553010
 21
13.290825
 31
0.000000
  0
LINE
  8
HUB
 62
     7
  6
CONTINUOUS
 10
7.615760
 20
13.617741
 30
0.000000
 11
7.615760
 21
13.290825
 31
0.000000
  0
LINE
  8
HUB
 62
     7
  6
CONTINUOUS
 10
7.678510
 20
13.617741
 30
0.000000
 11
7.678510
 21
13.290825
 31
0.000000
  0
LINE
  8
HUB
 62
     7
  6
CONTINUOUS
 10
7.145011
 20
13.656282
 30
0.000000
 11
7.145011
 21
13.252283
 31
0.000000
  0
LINE
  8
HUB
 62
     7
  6
CONTINUOUS
 10
7.207511
 20
13.656282
 30
0.000000
 11
7.207511
 21
13.252283
 31
0.000000
  0
LINE
  8
HUB
 62
     7
  6
CONTINUOUS
 10
7.270011
 20
13.656282
 30
0.000000
 11
7.270011
 21
13.252283
 31
0.000000
  0
LINE
  8
HUB
 62
     7
  6
CONTINUOUS
 10
7.332511
 20
13.656282
 30
0.000000
 11
7.332511
 21
13.252283
 31
0.000000
  0
LINE
  8
HUB
 62
     7
  6
CONTINUOUS
 10
7.395011
 20
13.656282
 30
0.000000
 11
7.395011
 21
13.252283
 31
0.000000
  0
LINE
  8
HUB
 62
     7
  6
CONTINUOUS
 10
7.457511
 20
13.656282
 30
0.000000
 11
7.457511
 21
13.252283
 31
0.000000
  0
LINE
  8
HUB
 62
     7
  6
CONTINUOUS
 10
7.520011
 20
13.656282
 30
0.000000
 11
7.520011
 21
13.252283
 31
0.000000
  0
LINE
  8
HUB
 62
     7
  6
CONTINUOUS
 10
7.582511
 20
13.656282
 30
0.000000
 11
7.582511
 21
13.252283
 31
0.000000
  0
LINE
  8
HUB
 62
     7
  6
CONTINUOUS
 10
7.645011
 20
13.656282
 30
0.000000
 11
7.645011
 21
13.252283
 31
0.000000
  0
LINE
  8
HUB
 62
     7
  6
CONTINUOUS
 10
7.707511
 20
13.656282
 30
0.000000
 11
7.707511
 21
13.252283
 31
0.000000
  0
LINE
  8
HUB
 62
     7
  6
CONTINUOUS
 10
9.270009
 20
13.114283
 30
0.000000
 11
9.270009
 21
13.301785
 31
0.000000
  0
LINE
  8
HUB
 62
     7
  6
CONTINUOUS
 10
9.270009
 20
11.239283
 30
0.000000
 11
9.270009
 21
11.051783
 31
0.000000
  0
LINE
  8
HUB
 62
     7
  6
CONTINUOUS
 10
11.520009
 20
13.807783
 30
0.000000
 11
11.520009
 21
10.545784
 31
0.000000
  0
POINT
  8
HUB
 62
     7
 10
11.520009
 20
12.176783
 30
0.000000
  0
LINE
  8
HUB
 62
     7
  6
CONTINUOUS
 10
11.520009
 20
13.807783
 30
0.000000
 11
12.520009
 21
13.807783
 31
0.000000
  0
LINE
  8
HUB
 62
     7
  6
CONTINUOUS
 10
11.520009
 20
10.545784
 30
0.000000
 11
12.520009
 21
10.545784
 31
0.000000
  0
LINE
  8
HUB
 62
     7
  6
CONTINUOUS
 10
11.520009
 20
12.879784
 30
0.000000
 11
11.645009
 21
12.879784
 31
0.000000
  0
LINE
  8
HUB
 62
     7
  6
CONTINUOUS
 10
11.645009
 20
12.879784
 30
0.000000
 11
11.645009
 21
11.473783
 31
0.000000
  0
LINE
  8
HUB
 62
     7
  6
CONTINUOUS
 10
11.645009
 20
11.473783
 30
0.000000
 11
11.520009
 21
11.473783
 31
0.000000
  0
LINE
  8
HUB
 62
     7
  6
CONTINUOUS
 10
11.520009
 20
13.656282
 30
0.000000
 11
12.333009
 21
13.656282
 31
0.000000
  0
LINE
  8
HUB
 62
     7
  6
CONTINUOUS
 10
12.333009
 20
13.656282
 30
0.000000
 11
12.333009
 21
13.252283
 31
0.000000
  0
LINE
  8
HUB
 62
     7
  6
CONTINUOUS
 10
12.333009
 20
13.252283
 30
0.000000
 11
11.519595
 21
13.252283
 31
0.000000
  0
LINE
  8
HUB
 62
     7
  6
CONTINUOUS
 10
12.333009
 20
13.454283
 30
0.000000
 11
11.060330
 21
13.454283
 31
0.000000
  0
POINT
  8
HUB
 62
     7
 10
12.331365
 20
12.880806
 30
0.000000
  0
LINE
  8
HUB
 62
     7
  6
CONTINUOUS
 10
11.832509
 20
13.044807
 30
0.000000
 11
11.832509
 21
12.716806
 31
0.000000
  0
LINE
  8
HUB
 62
     7
  6
CONTINUOUS
 10
11.645009
 20
12.715784
 30
0.000000
 11
11.832509
 21
12.715784
 31
0.000000
  0
LINE
  8
HUB
 62
     7
  6
CONTINUOUS
 10
11.832509
 20
13.043785
 30
0.000000
 11
11.520009
 21
13.043785
 31
0.000000
  0
LINE
  8
HUB
 62
     7
  6
CONTINUOUS
 10
12.520009
 20
11.051785
 30
0.000000
 11
12.520009
 21
10.545784
 31
0.000000
  0
LINE
  8
HUB
 62
     7
  6
CONTINUOUS
 10
12.520009
 20
13.301785
 30
0.000000
 11
12.520009
 21
13.807783
 31
0.000000
  0
LINE
  8
HUB
 62
     7
  6
CONTINUOUS
 10
12.395009
 20
11.376783
 30
0.000000
 11
13.770009
 21
11.239283
 31
0.000000
  0
LINE
  8
HUB
 62
     7
  6
CONTINUOUS
 10
13.770009
 20
13.301785
 30
0.000000
 11
12.520009
 21
13.301785
 31
0.000000
  0
LINE
  8
HUB
 62
     7
  6
CONTINUOUS
 10
11.832509
 20
12.982357
 30
0.000000
 11
12.450742
 21
12.982357
 31
0.000000
  0
LINE
  8
HUB
 62
     7
  6
CONTINUOUS
 10
11.832509
 20
12.779257
 30
0.000000
 11
12.395009
 21
12.779257
 31
0.000000
  0
LINE
  8
HUB
 62
     7
  6
CONTINUOUS
 10
12.395009
 20
12.551785
 30
0.000000
 11
11.645009
 21
12.551785
 31
0.000000
  0
LINE
  8
HUB
 62
     7
  6
CONTINUOUS
 10
12.395009
 20
11.801785
 30
0.000000
 11
11.645009
 21
11.801785
 31
0.000000
  0
LINE
  8
HUB
 62
     7
  6
CONTINUOUS
 10
13.770009
 20
11.051785
 30
0.000000
 11
12.520009
 21
11.051785
 31
0.000000
  0
LINE
  8
HUB
 62
     7
  6
CONTINUOUS
 10
12.450742
 20
12.982357
 30
0.000000
 11
13.770009
 21
13.114283
 31
0.000000
  0
LINE
  8
HUB
 62
     7
  6
CONTINUOUS
 10
11.551009
 20
13.617741
 30
0.000000
 11
11.551009
 21
13.290825
 31
0.000000
  0
LINE
  8
HUB
 62
     7
  6
CONTINUOUS
 10
11.582509
 20
13.656282
 30
0.000000
 11
11.582509
 21
13.252283
 31
0.000000
  0
LINE
  8
HUB
 62
     7
  6
CONTINUOUS
 10
11.613759
 20
13.617741
 30
0.000000
 11
11.613759
 21
13.290825
 31
0.000000
  0
LINE
  8
HUB
 62
     7
  6
CONTINUOUS
 10
11.676509
 20
13.617741
 30
0.000000
 11
11.676509
 21
13.290825
 31
0.000000
  0
LINE
  8
HUB
 62
     7
  6
CONTINUOUS
 10
11.739259
 20
13.617741
 30
0.000000
 11
11.739259
 21
13.290825
 31
0.000000
  0
LINE
  8
HUB
 62
     7
  6
CONTINUOUS
 10
11.802009
 20
13.617741
 30
0.000000
 11
11.802009
 21
13.290825
 31
0.000000
  0
LINE
  8
HUB
 62
     7
  6
CONTINUOUS
 10
11.864758
 20
13.617741
 30
0.000000
 11
11.864758
 21
13.290825
 31
0.000000
  0
LINE
  8
HUB
 62
     7
  6
CONTINUOUS
 10
11.927508
 20
13.617741
 30
0.000000
 11
11.927508
 21
13.290825
 31
0.000000
  0
LINE
  8
HUB
 62
     7
  6
CONTINUOUS
 10
11.990258
 20
13.617741
 30
0.000000
 11
11.990258
 21
13.290825
 31
0.000000
  0
LINE
  8
HUB
 62
     7
  6
CONTINUOUS
 10
12.053008
 20
13.617741
 30
0.000000
 11
12.053008
 21
13.290825
 31
0.000000
  0
LINE
  8
HUB
 62
     7
  6
CONTINUOUS
 10
12.115758
 20
13.617741
 30
0.000000
 11
12.115758
 21
13.290825
 31
0.000000
  0
LINE
  8
HUB
 62
     7
  6
CONTINUOUS
 10
12.178508
 20
13.617741
 30
0.000000
 11
12.178508
 21
13.290825
 31
0.000000
  0
LINE
  8
HUB
 62
     7
  6
CONTINUOUS
 10
11.645009
 20
13.656282
 30
0.000000
 11
11.645009
 21
13.252283
 31
0.000000
  0
LINE
  8
HUB
 62
     7
  6
CONTINUOUS
 10
11.707509
 20
13.656282
 30
0.000000
 11
11.707509
 21
13.252283
 31
0.000000
  0
LINE
  8
HUB
 62
     7
  6
CONTINUOUS
 10
11.770009
 20
13.656282
 30
0.000000
 11
11.770009
 21
13.252283
 31
0.000000
  0
LINE
  8
HUB
 62
     7
  6
CONTINUOUS
 10
11.832509
 20
13.656282
 30
0.000000
 11
11.832509
 21
13.252283
 31
0.000000
  0
LINE
  8
HUB
 62
     7
  6
CONTINUOUS
 10
11.895009
 20
13.656282
 30
0.000000
 11
11.895009
 21
13.252283
 31
0.000000
  0
LINE
  8
HUB
 62
     7
  6
CONTINUOUS
 10
11.957509
 20
13.656282
 30
0.000000
 11
11.957509
 21
13.252283
 31
0.000000
  0
LINE
  8
HUB
 62
     7
  6
CONTINUOUS
 10
12.020009
 20
13.656282
 30
0.000000
 11
12.020009
 21
13.252283
 31
0.000000
  0
LINE
  8
HUB
 62
     7
  6
CONTINUOUS
 10
12.082509
 20
13.656282
 30
0.000000
 11
12.082509
 21
13.252283
 31
0.000000
  0
LINE
  8
HUB
 62
     7
  6
CONTINUOUS
 10
12.145009
 20
13.656282
 30
0.000000
 11
12.145009
 21
13.252283
 31
0.000000
  0
LINE
  8
HUB
 62
     7
  6
CONTINUOUS
 10
12.207509
 20
13.656282
 30
0.000000
 11
12.207509
 21
13.252283
 31
0.000000
  0
LINE
  8
HUB
 62
     7
  6
CONTINUOUS
 10
13.770009
 20
13.114283
 30
0.000000
 11
13.770009
 21
13.301785
 31
0.000000
  0
LINE
  8
HUB
 62
     7
  6
CONTINUOUS
 10
13.770009
 20
11.239283
 30
0.000000
 11
13.770009
 21
11.051783
 31
0.000000
  0
LINE
  8
PLATE
 62
     7
  6
CONTINUOUS
 10
7.570981
 20
18.271370
 30
0.000000
 11
8.195979
 21
18.271370
 31
0.000000
  0
LINE
  8
PLATE
 62
     7
  6
CONTINUOUS
 10
7.570981
 20
6.082201
 30
0.000000
 11
8.195979
 21
6.082201
 31
0.000000
  0
LINE
  8
PLATE
 62
     7
  6
CONTINUOUS
 10
8.195979
 20
16.426785
 30
0.000000
 11
8.070979
 21
16.426785
 31
0.000000
  0
LINE
  8
PLATE
 62
     7
  6
CONTINUOUS
 10
8.070979
 20
7.926784
 30
0.000000
 11
8.196858
 21
7.926784
 31
0.000000
  0
LINE
  8
PLATE
 62
     7
  6
CONTINUOUS
 10
8.195979
 20
16.426785
 30
0.000000
 11
8.195979
 21
18.271370
 31
0.000000
  0
LINE
  8
PLATE
 62
     7
  6
CONTINUOUS
 10
8.195979
 20
7.926784
 30
0.000000
 11
8.195979
 21
6.082202
 31
0.000000
  0
LINE
  8
PLATE
 62
     7
  6
CONTINUOUS
 10
8.070979
 20
15.176785
 30
0.000000
 11
7.570981
 21
15.176785
 31
0.000000
  0
LINE
  8
PLATE
 62
     7
  6
CONTINUOUS
 10
8.070979
 20
9.176785
 30
0.000000
 11
7.570981
 21
9.176785
 31
0.000000
  0
LINE
  8
PLATE
 62
     7
  6
CONTINUOUS
 10
8.070979
 20
16.062284
 30
0.000000
 11
7.570981
 21
16.062284
 31
0.000000
  0
LINE
  8
PLATE
 62
     7
  6
CONTINUOUS
 10
8.070979
 20
15.541285
 30
0.000000
 11
7.570981
 21
15.541285
 31
0.000000
  0
LINE
  8
PLATE
 62
     7
  6
CONTINUOUS
 10
8.070979
 20
13.301785
 30
0.000000
 11
8.070979
 21
16.426785
 31
0.000000
  0
LINE
  8
PLATE
 62
     7
  6
CONTINUOUS
 10
8.070979
 20
11.051785
 30
0.000000
 11
8.070979
 21
7.926784
 31
0.000000
  0
POINT
  8
RING
 62
     7
 10
9.466098
 20
15.801781
 30
0.000000
  0
LINE
  8
RING
 62
     7
  6
CONTINUOUS
 10
9.466098
 20
15.801781
 30
0.000000
 11
7.578158
 21
15.801781
 31
0.000000
  0
POINT
  8
RING
 62
     7
 10
8.072980
 20
15.801781
 30
0.000000
  0
POINT
  8
RING
 62
     7
 10
8.072562
 20
16.051783
 30
0.000000
  0
POINT
  8
RING
 62
     7
 10
8.072980
 20
15.801781
 30
0.000000
  0
POINT
  8
RING
 62
     7
 10
8.072452
 20
15.551783
 30
0.000000
  0
POINT
  8
RING
 62
     7
 10
8.072980
 20
15.801781
 30
0.000000
  0
POINT
  8
RING
 62
     7
 10
8.135476
 20
15.801140
 30
0.000000
  0
POINT
  8
RING
 62
     7
 10
8.135476
 20
15.801140
 30
0.000000
  0
POINT
  8
RING
 62
     7
 10
8.197968
 20
15.800079
 30
0.000000
  0
POINT
  8
RING
 62
     7
 10
8.197968
 20
15.801140
 30
0.000000
  0
POINT
  8
RING
 62
     7
 10
8.260459
 20
15.801140
 30
0.000000
  0
POINT
  8
RING
 62
     7
 10
8.322951
 20
15.801140
 30
0.000000
  0
POINT
  8
RING
 62
     7
 10
8.385442
 20
15.801140
 30
0.000000
  0
POINT
  8
RING
 62
     7
 10
8.447934
 20
15.801140
 30
0.000000
  0
POINT
  8
RING
 62
     7
 10
8.510425
 20
15.801140
 30
0.000000
  0
POINT
  8
RING
 62
     7
 10
8.572917
 20
15.801140
 30
0.000000
  0
POINT
  8
RING
 62
     7
 10
8.635407
 20
15.801140
 30
0.000000
  0
POINT
  8
RING
 62
     7
 10
8.697900
 20
15.801140
 30
0.000000
  0
POINT
  8
RING
 62
     7
 10
8.760390
 20
15.801140
 30
0.000000
  0
POINT
  8
RING
 62
     7
 10
8.822883
 20
15.801140
 30
0.000000
  0
POINT
  8
RING
 62
     7
 10
8.885373
 20
15.801140
 30
0.000000
  0
POINT
  8
RING
 62
     7
 10
8.947865
 20
15.801140
 30
0.000000
  0
POINT
  8
RING
 62
     7
 10
9.010356
 20
15.801140
 30
0.000000
  0
POINT
  8
RING
 62
     7
 10
9.072848
 20
15.801140
 30
0.000000
  0
POINT
  8
RING
 62
     7
 10
9.135339
 20
15.801140
 30
0.000000
  0
POINT
  8
RING
 62
     7
 10
9.197831
 20
15.801140
 30
0.000000
  0
POINT
  8
RING
 62
     7
 10
9.260322
 20
15.801140
 30
0.000000
  0
POINT
  8
RING
 62
     7
 10
9.322814
 20
15.801140
 30
0.000000
  0
POINT
  8
RING
 62
     7
 10
9.385304
 20
15.801140
 30
0.000000
  0
LINE
  8
RING
 62
     7
  6
CONTINUOUS
 10
8.135476
 20
15.801140
 30
0.000000
 11
8.135476
 21
16.051718
 31
0.000000
  0
LINE
  8
RING
 62
     7
  6
CONTINUOUS
 10
8.135476
 20
15.801140
 30
0.000000
 11
8.135476
 21
15.559275
 31
0.000000
  0
LINE
  8
RING
 62
     7
  6
CONTINUOUS
 10
8.197968
 20
15.801140
 30
0.000000
 11
8.197968
 21
16.012140
 31
0.000000
  0
LINE
  8
RING
 62
     7
  6
CONTINUOUS
 10
8.197968
 20
15.800079
 30
0.000000
 11
8.197968
 21
15.589079
 31
0.000000
  0
POINT
  8
RING
 62
     7
 10
8.260459
 20
15.801140
 30
0.000000
  0
POINT
  8
RING
 62
     7
 10
8.260459
 20
15.801140
 30
0.000000
  0
LINE
  8
RING
 62
     7
  6
CONTINUOUS
 10
8.260459
 20
15.801140
 30
0.000000
 11
8.260459
 21
16.051718
 31
0.000000
  0
LINE
  8
RING
 62
     7
  6
CONTINUOUS
 10
8.260459
 20
15.801140
 30
0.000000
 11
8.260459
 21
15.559275
 31
0.000000
  0
POINT
  8
RING
 62
     7
 10
8.385442
 20
15.801140
 30
0.000000
  0
POINT
  8
RING
 62
     7
 10
8.385442
 20
15.801140
 30
0.000000
  0
LINE
  8
RING
 62
     7
  6
CONTINUOUS
 10
8.385442
 20
15.801140
 30
0.000000
 11
8.385442
 21
16.051718
 31
0.000000
  0
LINE
  8
RING
 62
     7
  6
CONTINUOUS
 10
8.385442
 20
15.801140
 30
0.000000
 11
8.385442
 21
15.559275
 31
0.000000
  0
POINT
  8
RING
 62
     7
 10
8.510425
 20
15.801140
 30
0.000000
  0
POINT
  8
RING
 62
     7
 10
8.510425
 20
15.801140
 30
0.000000
  0
LINE
  8
RING
 62
     7
  6
CONTINUOUS
 10
8.510425
 20
15.801140
 30
0.000000
 11
8.510425
 21
16.051718
 31
0.000000
  0
LINE
  8
RING
 62
     7
  6
CONTINUOUS
 10
8.510425
 20
15.801140
 30
0.000000
 11
8.510425
 21
15.559275
 31
0.000000
  0
POINT
  8
RING
 62
     7
 10
8.635407
 20
15.801140
 30
0.000000
  0
POINT
  8
RING
 62
     7
 10
8.635407
 20
15.801140
 30
0.000000
  0
LINE
  8
RING
 62
     7
  6
CONTINUOUS
 10
8.635407
 20
15.801140
 30
0.000000
 11
8.635407
 21
16.051718
 31
0.000000
  0
LINE
  8
RING
 62
     7
  6
CONTINUOUS
 10
8.635407
 20
15.801140
 30
0.000000
 11
8.635407
 21
15.559275
 31
0.000000
  0
POINT
  8
RING
 62
     7
 10
8.760390
 20
15.801140
 30
0.000000
  0
POINT
  8
RING
 62
     7
 10
8.760390
 20
15.801140
 30
0.000000
  0
LINE
  8
RING
 62
     7
  6
CONTINUOUS
 10
8.760390
 20
15.801140
 30
0.000000
 11
8.760390
 21
16.051718
 31
0.000000
  0
LINE
  8
RING
 62
     7
  6
CONTINUOUS
 10
8.760390
 20
15.801140
 30
0.000000
 11
8.760390
 21
15.559275
 31
0.000000
  0
POINT
  8
RING
 62
     7
 10
8.885373
 20
15.801140
 30
0.000000
  0
POINT
  8
RING
 62
     7
 10
8.885373
 20
15.801140
 30
0.000000
  0
LINE
  8
RING
 62
     7
  6
CONTINUOUS
 10
8.885373
 20
15.801140
 30
0.000000
 11
8.885373
 21
16.051718
 31
0.000000
  0
LINE
  8
RING
 62
     7
  6
CONTINUOUS
 10
8.885373
 20
15.801140
 30
0.000000
 11
8.885373
 21
15.559275
 31
0.000000
  0
POINT
  8
RING
 62
     7
 10
9.010356
 20
15.801140
 30
0.000000
  0
POINT
  8
RING
 62
     7
 10
9.010356
 20
15.801140
 30
0.000000
  0
LINE
  8
RING
 62
     7
  6
CONTINUOUS
 10
9.010356
 20
15.801140
 30
0.000000
 11
9.010356
 21
16.051718
 31
0.000000
  0
LINE
  8
RING
 62
     7
  6
CONTINUOUS
 10
9.010356
 20
15.801140
 30
0.000000
 11
9.010356
 21
15.559275
 31
0.000000
  0
POINT
  8
RING
 62
     7
 10
9.135339
 20
15.801140
 30
0.000000
  0
POINT
  8
RING
 62
     7
 10
9.135339
 20
15.801140
 30
0.000000
  0
LINE
  8
RING
 62
     7
  6
CONTINUOUS
 10
9.135339
 20
15.801140
 30
0.000000
 11
9.135339
 21
16.051718
 31
0.000000
  0
LINE
  8
RING
 62
     7
  6
CONTINUOUS
 10
9.135339
 20
15.801140
 30
0.000000
 11
9.135339
 21
15.559275
 31
0.000000
  0
POINT
  8
RING
 62
     7
 10
9.260322
 20
15.801140
 30
0.000000
  0
POINT
  8
RING
 62
     7
 10
9.260322
 20
15.801140
 30
0.000000
  0
LINE
  8
RING
 62
     7
  6
CONTINUOUS
 10
9.260322
 20
15.801140
 30
0.000000
 11
9.260322
 21
16.051718
 31
0.000000
  0
LINE
  8
RING
 62
     7
  6
CONTINUOUS
 10
9.260322
 20
15.801140
 30
0.000000
 11
9.260322
 21
15.559275
 31
0.000000
  0
POINT
  8
RING
 62
     7
 10
9.385304
 20
15.801140
 30
0.000000
  0
POINT
  8
RING
 62
     7
 10
9.385304
 20
15.801140
 30
0.000000
  0
LINE
  8
RING
 62
     7
  6
CONTINUOUS
 10
9.385304
 20
15.801140
 30
0.000000
 11
9.385304
 21
16.051718
 31
0.000000
  0
LINE
  8
RING
 62
     7
  6
CONTINUOUS
 10
9.385304
 20
15.801140
 30
0.000000
 11
9.385304
 21
15.559275
 31
0.000000
  0
POINT
  8
RING
 62
     7
 10
8.322951
 20
15.800079
 30
0.000000
  0
POINT
  8
RING
 62
     7
 10
8.322951
 20
15.801140
 30
0.000000
  0
LINE
  8
RING
 62
     7
  6
CONTINUOUS
 10
8.322951
 20
15.801140
 30
0.000000
 11
8.322951
 21
16.012140
 31
0.000000
  0
LINE
  8
RING
 62
     7
  6
CONTINUOUS
 10
8.322951
 20
15.800079
 30
0.000000
 11
8.322951
 21
15.589079
 31
0.000000
  0
POINT
  8
RING
 62
     7
 10
8.447934
 20
15.800079
 30
0.000000
  0
POINT
  8
RING
 62
     7
 10
8.447934
 20
15.801140
 30
0.000000
  0
LINE
  8
RING
 62
     7
  6
CONTINUOUS
 10
8.447934
 20
15.801140
 30
0.000000
 11
8.447934
 21
16.012140
 31
0.000000
  0
LINE
  8
RING
 62
     7
  6
CONTINUOUS
 10
8.447934
 20
15.800079
 30
0.000000
 11
8.447934
 21
15.589079
 31
0.000000
  0
POINT
  8
RING
 62
     7
 10
8.572917
 20
15.800079
 30
0.000000
  0
POINT
  8
RING
 62
     7
 10
8.572917
 20
15.801140
 30
0.000000
  0
LINE
  8
RING
 62
     7
  6
CONTINUOUS
 10
8.572917
 20
15.801140
 30
0.000000
 11
8.572917
 21
16.012140
 31
0.000000
  0
LINE
  8
RING
 62
     7
  6
CONTINUOUS
 10
8.572917
 20
15.800079
 30
0.000000
 11
8.572917
 21
15.589079
 31
0.000000
  0
POINT
  8
RING
 62
     7
 10
8.697900
 20
15.800079
 30
0.000000
  0
POINT
  8
RING
 62
     7
 10
8.697900
 20
15.801140
 30
0.000000
  0
LINE
  8
RING
 62
     7
  6
CONTINUOUS
 10
8.697900
 20
15.801140
 30
0.000000
 11
8.697900
 21
16.012140
 31
0.000000
  0
LINE
  8
RING
 62
     7
  6
CONTINUOUS
 10
8.697900
 20
15.800079
 30
0.000000
 11
8.697900
 21
15.589079
 31
0.000000
  0
POINT
  8
RING
 62
     7
 10
8.822883
 20
15.800079
 30
0.000000
  0
POINT
  8
RING
 62
     7
 10
8.822883
 20
15.801140
 30
0.000000
  0
LINE
  8
RING
 62
     7
  6
CONTINUOUS
 10
8.822883
 20
15.801140
 30
0.000000
 11
8.822883
 21
16.012140
 31
0.000000
  0
LINE
  8
RING
 62
     7
  6
CONTINUOUS
 10
8.822883
 20
15.800079
 30
0.000000
 11
8.822883
 21
15.589079
 31
0.000000
  0
POINT
  8
RING
 62
     7
 10
8.947865
 20
15.800079
 30
0.000000
  0
POINT
  8
RING
 62
     7
 10
8.947865
 20
15.801140
 30
0.000000
  0
LINE
  8
RING
 62
     7
  6
CONTINUOUS
 10
8.947865
 20
15.801140
 30
0.000000
 11
8.947865
 21
16.012140
 31
0.000000
  0
LINE
  8
RING
 62
     7
  6
CONTINUOUS
 10
8.947865
 20
15.800079
 30
0.000000
 11
8.947865
 21
15.589079
 31
0.000000
  0
POINT
  8
RING
 62
     7
 10
9.072848
 20
15.800079
 30
0.000000
  0
POINT
  8
RING
 62
     7
 10
9.072848
 20
15.801140
 30
0.000000
  0
LINE
  8
RING
 62
     7
  6
CONTINUOUS
 10
9.072848
 20
15.801140
 30
0.000000
 11
9.072848
 21
16.012140
 31
0.000000
  0
LINE
  8
RING
 62
     7
  6
CONTINUOUS
 10
9.072848
 20
15.800079
 30
0.000000
 11
9.072848
 21
15.589079
 31
0.000000
  0
POINT
  8
RING
 62
     7
 10
9.197831
 20
15.800079
 30
0.000000
  0
POINT
  8
RING
 62
     7
 10
9.197831
 20
15.801140
 30
0.000000
  0
LINE
  8
RING
 62
     7
  6
CONTINUOUS
 10
9.197831
 20
15.801140
 30
0.000000
 11
9.197831
 21
16.012140
 31
0.000000
  0
LINE
  8
RING
 62
     7
  6
CONTINUOUS
 10
9.197831
 20
15.800079
 30
0.000000
 11
9.197831
 21
15.589079
 31
0.000000
  0
POINT
  8
RING
 62
     7
 10
9.322814
 20
15.800079
 30
0.000000
  0
POINT
  8
RING
 62
     7
 10
9.322814
 20
15.801140
 30
0.000000
  0
LINE
  8
RING
 62
     7
  6
CONTINUOUS
 10
9.322814
 20
15.801140
 30
0.000000
 11
9.322814
 21
16.012140
 31
0.000000
  0
LINE
  8
RING
 62
     7
  6
CONTINUOUS
 10
9.322814
 20
15.800079
 30
0.000000
 11
9.322814
 21
15.589079
 31
0.000000
  0
POINT
  8
RING
 62
     7
 10
8.072980
 20
7.934492
 30
0.000000
  0
POINT
  8
RING
 62
     7
 10
8.072980
 20
7.976783
 30
0.000000
  0
POINT
  8
RING
 62
     7
 10
8.072980
 20
7.976783
 30
0.000000
  0
POINT
  8
RING
 62
     7
 10
8.071050
 20
8.273777
 30
0.000000
  0
POINT
  8
RING
 62
     7
 10
8.072980
 20
7.934492
 30
0.000000
  0
POINT
  8
RING
 62
     7
 10
8.072980
 20
7.976783
 30
0.000000
  0
POINT
  8
RING
 62
     7
 10
8.072980
 20
7.976783
 30
0.000000
  0
LINE
  8
RING
 62
     7
  6
CONTINUOUS
 10
8.369851
 20
7.679790
 30
0.000000
 11
8.744851
 21
7.679790
 31
0.000000
  0
LINE
  8
RING
 62
     7
  6
CONTINUOUS
 10
8.744851
 20
7.679790
 30
0.000000
 11
8.744851
 21
8.273790
 31
0.000000
  0
LINE
  8
RING
 62
     7
  6
CONTINUOUS
 10
8.744851
 20
8.273790
 30
0.000000
 11
8.071050
 21
8.273790
 31
0.000000
  0
LINE
  8
RING
 62
     7
  6
CONTINUOUS
 10
8.072980
 20
16.426781
 30
0.000000
 11
8.260480
 21
16.426781
 31
0.000000
  0
LINE
  8
RING
 62
     7
  6
CONTINUOUS
 10
8.260480
 20
16.426781
 30
0.000000
 11
8.397492
 21
16.741783
 31
0.000000
  0
LINE
  8
RING
 62
     7
  6
CONTINUOUS
 10
8.072980
 20
7.934492
 30
0.000000
 11
8.255479
 21
7.934492
 31
0.000000
  0
LINE
  8
RING
 62
     7
  6
CONTINUOUS
 10
8.255479
 20
7.934492
 30
0.000000
 11
8.398639
 21
7.611783
 31
0.000000
  0
POINT
  8
RING
 62
     7
 10
8.075086
 20
15.176783
 30
0.000000
  0
LINE
  8
RING
 62
     7
  6
CONTINUOUS
 10
8.075086
 20
15.176783
 30
0.000000
 11
8.387586
 21
15.176783
 31
0.000000
  0
LINE
  8
RING
 62
     7
  6
CONTINUOUS
 10
8.387586
 20
15.176783
 30
0.000000
 11
8.387586
 21
14.176783
 31
0.000000
  0
POINT
  8
RING
 62
     7
 10
8.072492
 20
9.176783
 30
0.000000
  0
LINE
  8
RING
 62
     7
  6
CONTINUOUS
 10
8.072492
 20
9.176783
 30
0.000000
 11
8.384992
 21
9.176783
 31
0.000000
  0
LINE
  8
RING
 62
     7
  6
CONTINUOUS
 10
8.384992
 20
9.176783
 30
0.000000
 11
8.384992
 21
10.176783
 31
0.000000
  0
LINE
  8
RING
 62
     7
  6
CONTINUOUS
 10
9.466313
 20
16.051783
 30
0.000000
 11
9.466313
 21
15.551783
 31
0.000000
  0
LINE
  8
RING
 62
     7
  6
CONTINUOUS
 10
8.072980
 20
11.051785
 30
0.000000
 11
8.072980
 21
7.926783
 31
0.000000
  0
LINE
  8
RING
 62
     7
  6
CONTINUOUS
 10
8.387586
 20
13.301785
 30
0.000000
 11
8.387586
 21
14.176783
 31
0.000000
  0
LINE
  8
RING
 62
     7
  6
CONTINUOUS
 10
8.387586
 20
10.176783
 30
0.000000
 11
8.387586
 21
11.051785
 31
0.000000
  0
LINE
  8
RING
 62
     7
  6
CONTINUOUS
 10
8.072980
 20
16.426781
 30
0.000000
 11
8.072980
 21
13.301785
 31
0.000000
  0
LINE
  8
BUSHING
 62
     7
  6
CONTINUOUS
 10
8.019683
 20
12.176783
 30
0.000000
 11
8.019683
 21
11.364283
 31
0.000000
  0
POINT
  8
BUSHING
 62
     7
 10
9.145003
 20
12.879892
 30
0.000000
  0
POINT
  8
BUSHING
 62
     7
 10
9.145003
 20
12.879892
 30
0.000000
  0
POINT
  8
BUSHING
 62
     7
 10
9.145011
 20
12.879892
 30
0.000000
  0
POINT
  8
BUSHING
 62
     7
 10
9.145011
 20
12.879892
 30
0.000000
  0
POINT
  8
BUSHING
 62
     7
 10
8.018542
 20
12.880812
 30
0.000000
  0
POINT
  8
BUSHING
 62
     7
 10
8.143542
 20
12.880812
 30
0.000000
  0
POINT
  8
BUSHING
 62
     7
 10
8.268542
 20
12.880812
 30
0.000000
  0
POINT
  8
BUSHING
 62
     7
 10
8.268542
 20
12.880812
 30
0.000000
  0
LINE
  8
BUSHING
 62
     7
  6
CONTINUOUS
 10
8.143542
 20
12.880812
 30
0.000000
 11
8.143542
 21
12.935511
 31
0.000000
  0
LINE
  8
BUSHING
 62
     7
  6
CONTINUOUS
 10
8.143542
 20
12.880812
 30
0.000000
 11
8.143542
 21
12.826111
 31
0.000000
  0
LINE
  8
BUSHING
 62
     7
  6
CONTINUOUS
 10
8.268542
 20
12.880812
 30
0.000000
 11
8.268542
 21
12.967197
 31
0.000000
  0
LINE
  8
BUSHING
 62
     7
  6
CONTINUOUS
 10
8.268542
 20
12.880812
 30
0.000000
 11
8.268542
 21
12.794424
 31
0.000000
  0
POINT
  8
BUSHING
 62
     7
 10
8.518542
 20
12.880812
 30
0.000000
  0
POINT
  8
BUSHING
 62
     7
 10
8.393542
 20
12.880812
 30
0.000000
  0
POINT
  8
BUSHING
 62
     7
 10
8.393542
 20
12.880812
 30
0.000000
  0
LINE
  8
BUSHING
 62
     7
  6
CONTINUOUS
 10
8.393542
 20
12.880812
 30
0.000000
 11
8.393542
 21
12.935511
 31
0.000000
  0
LINE
  8
BUSHING
 62
     7
  6
CONTINUOUS
 10
8.393542
 20
12.880812
 30
0.000000
 11
8.393542
 21
12.826111
 31
0.000000
  0
POINT
  8
BUSHING
 62
     7
 10
8.643542
 20
12.880812
 30
0.000000
  0
LINE
  8
BUSHING
 62
     7
  6
CONTINUOUS
 10
8.643542
 20
12.880812
 30
0.000000
 11
8.643542
 21
12.935511
 31
0.000000
  0
LINE
  8
BUSHING
 62
     7
  6
CONTINUOUS
 10
8.643542
 20
12.880812
 30
0.000000
 11
8.643542
 21
12.826111
 31
0.000000
  0
POINT
  8
BUSHING
 62
     7
 10
8.893542
 20
12.880812
 30
0.000000
  0
LINE
  8
BUSHING
 62
     7
  6
CONTINUOUS
 10
8.893542
 20
12.880812
 30
0.000000
 11
8.893542
 21
12.935511
 31
0.000000
  0
LINE
  8
BUSHING
 62
     7
  6
CONTINUOUS
 10
8.893542
 20
12.880812
 30
0.000000
 11
8.893542
 21
12.826111
 31
0.000000
  0
POINT
  8
BUSHING
 62
     7
 10
9.143542
 20
12.880812
 30
0.000000
  0
LINE
  8
BUSHING
 62
     7
  6
CONTINUOUS
 10
9.143542
 20
12.880812
 30
0.000000
 11
9.143542
 21
12.935511
 31
0.000000
  0
LINE
  8
BUSHING
 62
     7
  6
CONTINUOUS
 10
9.143542
 20
12.880812
 30
0.000000
 11
9.143542
 21
12.826111
 31
0.000000
  0
POINT
  8
BUSHING
 62
     7
 10
8.518542
 20
12.880812
 30
0.000000
  0
POINT
  8
BUSHING
 62
     7
 10
8.518542
 20
12.880812
 30
0.000000
  0
LINE
  8
BUSHING
 62
     7
  6
CONTINUOUS
 10
8.518542
 20
12.880812
 30
0.000000
 11
8.518542
 21
12.967197
 31
0.000000
  0
LINE
  8
BUSHING
 62
     7
  6
CONTINUOUS
 10
8.518542
 20
12.880812
 30
0.000000
 11
8.518542
 21
12.794424
 31
0.000000
  0
POINT
  8
BUSHING
 62
     7
 10
8.768542
 20
12.880812
 30
0.000000
  0
POINT
  8
BUSHING
 62
     7
 10
8.768542
 20
12.880812
 30
0.000000
  0
LINE
  8
BUSHING
 62
     7
  6
CONTINUOUS
 10
8.768542
 20
12.880812
 30
0.000000
 11
8.768542
 21
12.967197
 31
0.000000
  0
LINE
  8
BUSHING
 62
     7
  6
CONTINUOUS
 10
8.768542
 20
12.880812
 30
0.000000
 11
8.768542
 21
12.794424
 31
0.000000
  0
POINT
  8
BUSHING
 62
     7
 10
9.018542
 20
12.880812
 30
0.000000
  0
POINT
  8
BUSHING
 62
     7
 10
9.018542
 20
12.880812
 30
0.000000
  0
LINE
  8
BUSHING
 62
     7
  6
CONTINUOUS
 10
9.018542
 20
12.880812
 30
0.000000
 11
9.018542
 21
12.967197
 31
0.000000
  0
LINE
  8
BUSHING
 62
     7
  6
CONTINUOUS
 10
9.018542
 20
12.880812
 30
0.000000
 11
9.018542
 21
12.794424
 31
0.000000
  0
LINE
  8
BUSHING
 62
     7
  6
CONTINUOUS
 10
8.019683
 20
12.989283
 30
0.000000
 11
8.019683
 21
12.176783
 31
0.000000
  0
LINE
  8
BUSHING
 62
     7
  6
CONTINUOUS
 10
8.019683
 20
12.739275
 30
0.000000
 11
9.269683
 21
12.739275
 31
0.000000
  0
LINE
  8
BUSHING
 62
     7
  6
CONTINUOUS
 10
8.019683
 20
12.793941
 30
0.000000
 11
9.269683
 21
12.793941
 31
0.000000
  0
LINE
  8
BUSHING
 62
     7
  6
CONTINUOUS
 10
8.022189
 20
11.614292
 30
0.000000
 11
9.269683
 21
11.614292
 31
0.000000
  0
LINE
  8
BUSHING
 62
     7
  6
CONTINUOUS
 10
8.019683
 20
11.364283
 30
0.000000
 11
9.269683
 21
11.239283
 31
0.000000
  0
LINE
  8
BUSHING
 62
     7
  6
CONTINUOUS
 10
8.019683
 20
12.989283
 30
0.000000
 11
9.269683
 21
13.114283
 31
0.000000
  0
LINE
  8
BUSHING
 62
     7
  6
CONTINUOUS
 10
8.019683
 20
12.965841
 30
0.000000
 11
9.269683
 21
12.965841
 31
0.000000
  0
LINE
  8
BUSHING
 62
     7
  6
CONTINUOUS
 10
9.269683
 20
11.614292
 30
0.000000
 11
9.269683
 21
11.239283
 31
0.000000
  0
LINE
  8
BUSHING
 62
     7
  6
CONTINUOUS
 10
9.269683
 20
12.739275
 30
0.000000
 11
9.269683
 21
13.114283
 31
0.000000
  0
LINE
  8
BUSHING
 62
     7
  6
CONTINUOUS
 10
9.269683
 20
12.880812
 30
0.000000
 11
7.332511
 21
12.880812
 31
0.000000
  0
POINT
  8
BUSHING
 62
     7
 10
8.082683
 20
12.176783
 30
0.000000
  0
POINT
  8
ADC9
 62
     7
 10
10.099360
 20
12.176783
 30
0.000000
  0
LINE
  8
ADC9
 62
     7
  6
CONTINUOUS
 10
10.099360
 20
12.176783
 30
0.000000
 11
10.099360
 21
16.741783
 31
0.000000
  0
LINE
  8
ADC9
 62
     7
  6
CONTINUOUS
 10
10.099360
 20
16.741783
 30
0.000000
 11
11.629268
 21
16.741783
 31
0.000000
  0
LINE
  8
ADC9
 62
     7
  6
CONTINUOUS
 10
10.099360
 20
7.611784
 30
0.000000
 11
11.597491
 21
7.611784
 31
0.000000
  0
POINT
  8
ADC9
 62
     7
 10
10.099360
 20
12.176783
 30
0.000000
  0
POINT
  8
ADC9
 62
     7
 10
10.103683
 20
10.176788
 30
0.000000
  0
POINT
  8
ADC9
 62
     7
 10
10.099360
 20
12.176783
 30
0.000000
  0
POINT
  8
ADC9
 62
     7
 10
10.103808
 20
14.176779
 30
0.000000
  0
LINE
  8
ADC9
 62
     7
  6
CONTINUOUS
 10
10.103683
 20
10.176788
 30
0.000000
 11
9.912683
 21
10.176788
 31
0.000000
  0
LINE
  8
ADC9
 62
     7
  6
CONTINUOUS
 10
10.103808
 20
14.176779
 30
0.000000
 11
9.912808
 21
14.176779
 31
0.000000
  0
POINT
  8
ADC9
 62
     7
 10
9.912683
 20
12.176783
 30
0.000000
  0
POINT
  8
ADC9
 62
     7
 10
9.922627
 20
10.577814
 30
0.000000
  0
POINT
  8
ADC9
 62
     7
 10
9.919440
 20
13.775812
 30
0.000000
  0
POINT
  8
ADC9
 62
     7
 10
9.912683
 20
12.176783
 30
0.000000
  0
POINT
  8
ADC9
 62
     7
 10
9.570683
 20
12.176783
 30
0.000000
  0
LINE
  8
ADC9
 62
     7
  6
CONTINUOUS
 10
9.570683
 20
12.176783
 30
0.000000
 11
9.570683
 21
10.736784
 31
0.000000
  0
LINE
  8
ADC9
 62
     7
  6
CONTINUOUS
 10
9.570683
 20
12.176783
 30
0.000000
 11
9.570683
 21
13.616783
 31
0.000000
  0
LINE
  8
ADC9
 62
     7
  6
CONTINUOUS
 10
9.570683
 20
13.616783
 30
0.000000
 11
9.919440
 21
13.775812
 31
0.000000
  0
LINE
  8
ADC9
 62
     7
  6
CONTINUOUS
 10
9.570683
 20
10.736784
 30
0.000000
 11
9.922627
 21
10.577814
 31
0.000000
  0
POINT
  8
ADC9
 62
     7
 10
9.570683
 20
12.176783
 30
0.000000
  0
POINT
  8
ADC9
 62
     7
 10
9.570683
 20
12.176783
 30
0.000000
  0
POINT
  8
ADC9
 62
     7
 10
8.082683
 20
12.176783
 30
0.000000
  0
LINE
  8
ADC9
 62
     7
  6
CONTINUOUS
 10
8.082683
 20
12.176783
 30
0.000000
 11
8.082683
 21
11.676853
 31
0.000000
  0
LINE
  8
ADC9
 62
     7
  6
CONTINUOUS
 10
8.082683
 20
12.176783
 30
0.000000
 11
8.082683
 21
12.676783
 31
0.000000
  0
POINT
  8
ADC9
 62
     7
 10
8.082683
 20
12.176783
 30
0.000000
  0
POINT
  8
ADC9
 62
     7
 10
8.082683
 20
12.176783
 30
0.000000
  0
POINT
  8
ADC9
 62
     7
 10
8.142671
 20
12.175573
 30
0.000000
  0
POINT
  8
ADC9
 62
     7
 10
8.142671
 20
11.613073
 30
0.000000
  0
POINT
  8
ADC9
 62
     7
 10
8.142671
 20
12.738073
 30
0.000000
  0
LINE
  8
ADC9
 62
     7
  6
CONTINUOUS
 10
8.142671
 20
11.613073
 30
0.000000
 11
9.570683
 21
11.613073
 31
0.000000
  0
LINE
  8
ADC9
 62
     7
  6
CONTINUOUS
 10
8.142671
 20
12.738073
 30
0.000000
 11
9.570683
 21
12.738073
 31
0.000000
  0
LINE
  8
ADC9
 62
     7
  6
CONTINUOUS
 10
8.142671
 20
12.175573
 30
0.000000
 11
8.142671
 21
11.613073
 31
0.000000
  0
LINE
  8
ADC9
 62
     7
  6
CONTINUOUS
 10
8.142671
 20
12.175573
 30
0.000000
 11
8.142671
 21
12.738073
 31
0.000000
  0
LINE
  8
ADC9
 62
     7
  6
CONTINUOUS
 10
8.142671
 20
12.738073
 30
0.000000
 11
8.082683
 21
12.676783
 31
0.000000
  0
LINE
  8
ADC9
 62
     7
  6
CONTINUOUS
 10
8.082683
 20
11.676853
 30
0.000000
 11
8.142671
 21
11.613073
 31
0.000000
  0
LINE
  8
RING
 62
     7
  6
CONTINUOUS
 10
8.072562
 20
16.051783
 30
0.000000
 11
10.099360
 21
16.051783
 31
0.000000
  0
LINE
  8
RING
 62
     7
  6
CONTINUOUS
 10
8.072452
 20
15.551783
 30
0.000000
 11
10.099360
 21
15.551783
 31
0.000000
  0
LINE
  8
RING
 62
     7
  6
CONTINUOUS
 10
8.397492
 20
16.741783
 30
0.000000
 11
10.099360
 21
16.741783
 31
0.000000
  0
LINE
  8
RING
 62
     7
  6
CONTINUOUS
 10
8.380486
 20
14.176783
 30
0.000000
 11
9.912683
 21
14.176783
 31
0.000000
  0
LINE
  8
RING
 62
     7
  6
CONTINUOUS
 10
8.381602
 20
10.176783
 30
0.000000
 11
9.912683
 21
10.176783
 31
0.000000
  0
LINE
  8
RING
 62
     7
  6
CONTINUOUS
 10
8.398639
 20
7.611783
 30
0.000000
 11
10.099360
 21
7.611783
 31
0.000000
  0
LINE
  8
RING
 62
     7
  6
CONTINUOUS
 10
8.743840
 20
7.773785
 30
0.000000
 11
10.099360
 21
7.773785
 31
0.000000
  0
LINE
  8
RING
 62
     7
  6
CONTINUOUS
 10
7.841277
 20
7.976783
 30
0.000000
 11
10.099360
 21
7.976783
 31
0.000000
  0
LINE
  8
RING
 62
     7
  6
CONTINUOUS
 10
8.743840
 20
8.179783
 30
0.000000
 11
10.099360
 21
8.179783
 31
0.000000
  0
LINE
  8
HUB
 62
     7
  6
CONTINUOUS
 10
13.770009
 20
13.114283
 30
0.000000
 11
13.770009
 21
11.239283
 31
0.000000
  0
LINE
  8
CNTRLINE
 62
     7
  6
CONTINUOUS
 10
2.012980
 20
12.176783
 30
0.000000
 11
18.112980
 21
12.176783
 31
0.000000
  0
LINE
  8
CNTRLINE
 62
     7
  6
CONTINUOUS
 10
4.054795
 20
17.692757
 30
0.000000
 11
4.054795
 21
6.107590
 31
0.000000
  0
CIRCLE
  8
HUB
 62
     7
  6
CONTINUOUS
 10
4.054795
 20
12.176783
 30
0.000000
 40
1.631001
  0
POINT
  8
HUB
 62
     7
 10
4.054795
 20
12.176783
 30
0.000000
  0
CIRCLE
  8
HUB
 62
     7
  6
CONTINUOUS
 10
4.054795
 20
12.176783
 30
0.000000
 40
0.375000
  0
CIRCLE
  8
HUB
 62
     7
  6
CONTINUOUS
 10
4.054795
 20
12.176783
 30
0.000000
 40
1.277500
  0
CIRCLE
  8
HUB
 62
     7
  6
CONTINUOUS
 10
4.054795
 20
13.454283
 30
0.000000
 40
0.202000
  0
CIRCLE
  8
HUB
 62
     7
  6
CONTINUOUS
 10
2.948447
 20
12.815533
 30
0.000000
 40
0.201999
  0
CIRCLE
  8
HUB
 62
     7
  6
CONTINUOUS
 10
2.948447
 20
11.538033
 30
0.000000
 40
0.201999
  0
CIRCLE
  8
HUB
 62
     7
  6
CONTINUOUS
 10
4.054795
 20
10.899282
 30
0.000000
 40
0.202000
  0
CIRCLE
  8
HUB
 62
     7
  6
CONTINUOUS
 10
5.161143
 20
11.538033
 30
0.000000
 40
0.201999
  0
CIRCLE
  8
HUB
 62
     7
  6
CONTINUOUS
 10
5.161143
 20
12.815533
 30
0.000000
 40
0.201999
  0
CIRCLE
  8
HUB
 62
     7
  6
CONTINUOUS
 10
4.757795
 20
12.176783
 30
0.000000
 40
0.101551
  0
CIRCLE
  8
HUB
 62
     7
  6
CONTINUOUS
 10
4.757795
 20
12.176783
 30
0.000000
 40
0.164000
  0
CIRCLE
  8
HUB
 62
     7
  6
CONTINUOUS
 10
4.406295
 20
11.567966
 30
0.000000
 40
0.101551
  0
CIRCLE
  8
HUB
 62
     7
  6
CONTINUOUS
 10
4.406295
 20
11.567966
 30
0.000000
 40
0.163998
  0
CIRCLE
  8
HUB
 62
     7
  6
CONTINUOUS
 10
3.703295
 20
11.567966
 30
0.000000
 40
0.101551
  0
CIRCLE
  8
HUB
 62
     7
  6
CONTINUOUS
 10
3.703295
 20
11.567966
 30
0.000000
 40
0.163999
  0
CIRCLE
  8
HUB
 62
     7
  6
CONTINUOUS
 10
3.351795
 20
12.176783
 30
0.000000
 40
0.101551
  0
CIRCLE
  8
HUB
 62
     7
  6
CONTINUOUS
 10
3.351795
 20
12.176783
 30
0.000000
 40
0.164000
  0
CIRCLE
  8
HUB
 62
     7
  6
CONTINUOUS
 10
3.703294
 20
12.785599
 30
0.000000
 40
0.101551
  0
CIRCLE
  8
HUB
 62
     7
  6
CONTINUOUS
 10
3.703294
 20
12.785599
 30
0.000000
 40
0.164000
  0
CIRCLE
  8
HUB
 62
     7
  6
CONTINUOUS
 10
4.406294
 20
12.785599
 30
0.000000
 40
0.101551
  0
CIRCLE
  8
HUB
 62
     7
  6
CONTINUOUS
 10
4.406294
 20
12.785599
 30
0.000000
 40
0.163999
  0
ARC
  8
HUB
 62
     7
  6
CONTINUOUS
 10
4.054798
 20
12.176783
 30
0.000000
 40
0.702997
 50
13.424771
 51
46.532655
  0
ARC
  8
HUB
 62
     7
  6
CONTINUOUS
 10
4.054795
 20
12.176799
 30
0.000000
 40
0.702983
 50
72.962975
 51
106.268891
  0
ARC
  8
HUB
 62
     7
  6
CONTINUOUS
 10
4.054802
 20
12.176778
 30
0.000000
 40
0.703008
 50
133.490743
 51
166.557953
  0
ARC
  8
HUB
 62
     7
  6
CONTINUOUS
 10
4.054811
 20
12.176790
 30
0.000000
 40
0.703017
 50
193.435990
 51
226.591008
  0
ARC
  8
HUB
 62
     7
  6
CONTINUOUS
 10
4.054793
 20
12.176774
 30
0.000000
 40
0.702993
 50
253.316378
 51
286.779200
  0
ARC
  8
HUB
 62
     7
  6
CONTINUOUS
 10
4.054803
 20
12.176776
 30
0.000000
 40
0.702990
 50
313.420724
 51
346.603628
  0
POINT
  8
PLATE
 62
     7
 10
4.054795
 20
12.176783
 30
0.000000
  0
POINT
  8
PLATE
 62
     7
 10
4.054795
 20
12.176783
 30
0.000000
  0
POINT
  8
PLATE
 62
     7
 10
4.054795
 20
12.176783
 30
0.000000
  0
POINT
  8
PLATE
 62
     7
 10
4.054795
 20
8.551783
 30
0.000000
  0
CIRCLE
  8
PLATE
 62
     7
  6
CONTINUOUS
 10
4.054795
 20
8.551783
 30
0.000000
 40
0.265600
  0
POINT
  8
PLATE
 62
     7
 10
4.054795
 20
15.801783
 30
0.000000
  0
CIRCLE
  8
PLATE
 62
     7
  6
CONTINUOUS
 10
4.054795
 20
15.801783
 30
0.000000
 40
0.265600
  0
ARC
  8
PLATE
 62
     7
  6
CONTINUOUS
 10
4.054794
 20
12.176779
 30
0.000000
 40
3.624996
 50
237.947985
 51
302.166017
  0
ARC
  8
PLATE
 62
     7
  6
CONTINUOUS
 10
4.054794
 20
12.176781
 30
0.000000
 40
3.625001
 50
57.923699
 51
122.409016
  0
LINE
  8
ADC9
 62
     7
  6
CONTINUOUS
 10
9.912683
 20
10.994862
 30
0.000000
 11
9.912683
 21
10.176788
 31
0.000000
  0
LINE
  8
ADC9
 62
     7
  6
CONTINUOUS
 10
9.912683
 20
11.238108
 30
0.000000
 11
9.912683
 21
14.176779
 31
0.000000
  0
LINE
  8
ADC9
 62
     7
  6
CONTINUOUS
 10
10.099360
 20
11.238108
 30
0.000000
 11
10.099360
 21
12.176783
 31
0.000000
  0
LINE
  8
ADC9
 62
     7
  6
CONTINUOUS
 10
10.099360
 20
10.983805
 30
0.000000
 11
10.099360
 21
7.611784
 31
0.000000
  0
LINE
  8
DIMEN
 62
     7
  6
CONTINUOUS
 10
6.112980
 20
17.383541
 30
0.000000
 11
6.221234
 21
17.446041
 31
0.000000
  0
LINE
  8
DIMEN
 62
     7
  6
CONTINUOUS
 10
6.112980
 20
17.383541
 30
0.000000
 11
6.221234
 21
17.321041
 31
0.000000
  0
LINE
  8
DIMEN
 62
     7
  6
CONTINUOUS
 10
7.570981
 20
17.383541
 30
0.000000
 11
7.462728
 21
17.321041
 31
0.000000
  0
LINE
  8
DIMEN
 62
     7
  6
CONTINUOUS
 10
7.570981
 20
17.383541
 30
0.000000
 11
7.462728
 21
17.446041
 31
0.000000
  0
LINE
  8
DIMEN
 62
     7
  6
CONTINUOUS
 10
6.112980
 20
17.466285
 30
0.000000
 11
6.112980
 21
17.320541
 31
0.000000
  0
LINE
  8
DIMEN
 62
     7
  6
CONTINUOUS
 10
7.570981
 20
18.208370
 30
0.000000
 11
7.570981
 21
17.320541
 31
0.000000
  0
TEXT
  8
DIMEN
 62
     7
 10
5.172499
 20
17.320516
 30
0.000000
 40
0.125000
  1
1.458"
  0
LINE
  8
DIMEN
 62
     7
  6
CONTINUOUS
 10
5.991296
 20
17.383541
 30
0.000000
 11
7.570981
 21
17.383541
 31
0.000000
  0
LINE
  8
DIMEN
 62
     7
  6
CONTINUOUS
 10
8.072980
 20
17.628429
 30
0.000000
 11
8.181233
 21
17.690929
 31
0.000000
  0
LINE
  8
DIMEN
 62
     7
  6
CONTINUOUS
 10
8.072980
 20
17.628429
 30
0.000000
 11
8.181233
 21
17.565929
 31
0.000000
  0
LINE
  8
DIMEN
 62
     7
  6
CONTINUOUS
 10
10.099360
 20
17.628429
 30
0.000000
 11
9.991107
 21
17.565929
 31
0.000000
  0
LINE
  8
DIMEN
 62
     7
  6
CONTINUOUS
 10
10.099360
 20
17.628429
 30
0.000000
 11
9.991107
 21
17.690929
 31
0.000000
  0
LINE
  8
DIMEN
 62
     7
  6
CONTINUOUS
 10
8.072980
 20
16.489781
 30
0.000000
 11
8.072980
 21
17.691429
 31
0.000000
  0
LINE
  8
DIMEN
 62
     7
  6
CONTINUOUS
 10
10.099360
 20
16.804783
 30
0.000000
 11
10.099360
 21
17.691429
 31
0.000000
  0
TEXT
  8
DIMEN
 62
     7
 10
8.709301
 20
17.565618
 30
0.000000
 40
0.125000
  1
2.026"
  0
LINE
  8
DIMEN
 62
     7
  6
CONTINUOUS
 10
8.072980
 20
17.628429
 30
0.000000
 11
8.646801
 21
17.628429
 31
0.000000
  0
LINE
  8
DIMEN
 62
     7
  6
CONTINUOUS
 10
9.525539
 20
17.628429
 30
0.000000
 11
10.099360
 21
17.628429
 31
0.000000
  0
LINE
  8
DIMEN
 62
     7
  6
CONTINUOUS
 10
4.707017
 20
10.215117
 30
0.000000
 11
4.770017
 21
10.215117
 31
0.000000
  0
LINE
  8
DIMEN
 62
     7
  6
CONTINUOUS
 10
4.457849
 20
10.964531
 30
0.000000
 11
4.364387
 21
11.047536
 31
0.000000
  0
LINE
  8
DIMEN
 62
     7
  6
CONTINUOUS
 10
4.457849
 20
10.964531
 30
0.000000
 11
4.483003
 21
11.086974
 31
0.000000
  0
LINE
  8
DIMEN
 62
     7
  6
CONTINUOUS
 10
3.651741
 20
13.389034
 30
0.000000
 11
3.745203
 21
13.306029
 31
0.000000
  0
LINE
  8
DIMEN
 62
     7
  6
CONTINUOUS
 10
3.651741
 20
13.389034
 30
0.000000
 11
3.626587
 21
13.266591
 31
0.000000
  0
TEXT
  8
DIMEN
 62
     7
 10
4.832517
 20
10.152310
 30
0.000000
 40
0.125000
  1
2.555"
  0
LINE
  8
DIMEN
 62
     7
  6
CONTINUOUS
 10
3.651741
 20
13.389034
 30
0.000000
 11
4.707017
 21
10.215117
 31
0.000000
  0
TEXT
  8
DIMEN
 62
     7
 10
4.895017
 20
9.965116
 30
0.000000
 40
0.125000
  1
BOLT
  0
TEXT
  8
DIMEN
 62
     7
 10
4.895017
 20
9.777616
 30
0.000000
 40
0.125000
  1
CIRCLE
  0
LINE
  8
DIMEN
 62
     7
  6
CONTINUOUS
 10
3.793462
 20
16.724293
 30
0.000000
 11
3.730462
 21
16.724293
 31
0.000000
  0
LINE
  8
DIMEN
 62
     7
  6
CONTINUOUS
 10
3.810961
 20
16.419781
 30
0.000000
 11
3.879569
 21
16.315292
 31
0.000000
  0
LINE
  8
DIMEN
 62
     7
  6
CONTINUOUS
 10
3.810961
 20
16.419781
 30
0.000000
 11
3.754775
 21
16.308121
 31
0.000000
  0
LINE
  8
DIMEN
 62
     7
  6
CONTINUOUS
 10
4.298626
 20
7.933776
 30
0.000000
 11
4.230019
 21
8.038266
 31
0.000000
  0
LINE
  8
DIMEN
 62
     7
  6
CONTINUOUS
 10
4.298626
 20
7.933776
 30
0.000000
 11
4.354813
 21
8.045437
 31
0.000000
  0
TEXT
  8
DIMEN
 62
     7
 10
2.157641
 20
16.661245
 30
0.000000
 40
0.125000
  1
8.500"
  0
TEXT
  8
DIMEN
 62
     7
 10
2.914224
 20
16.849293
 30
0.000000
 40
0.125000
  1
+.002"
  0
TEXT
  8
DIMEN
 62
     7
 10
2.914224
 20
16.473195
 30
0.000000
 40
0.125000
  1
-.000"
  0
LINE
  8
DIMEN
 62
     7
  6
CONTINUOUS
 10
4.298626
 20
7.933776
 30
0.000000
 11
3.793462
 21
16.724293
 31
0.000000
  0
LINE
  8
DIMEN
 62
     7
  6
CONTINUOUS
 10
3.064680
 20
15.358548
 30
0.000000
 11
3.001680
 21
15.358548
 31
0.000000
  0
LINE
  8
DIMEN
 62
     7
  6
CONTINUOUS
 10
3.163404
 20
15.041293
 30
0.000000
 11
3.255247
 21
14.956500
 31
0.000000
  0
LINE
  8
DIMEN
 62
     7
  6
CONTINUOUS
 10
3.163404
 20
15.041293
 30
0.000000
 11
3.135892
 21
14.919359
 31
0.000000
  0
LINE
  8
DIMEN
 62
     7
  6
CONTINUOUS
 10
4.946185
 20
9.312272
 30
0.000000
 11
4.854342
 21
9.397065
 31
0.000000
  0
LINE
  8
DIMEN
 62
     7
  6
CONTINUOUS
 10
4.946185
 20
9.312272
 30
0.000000
 11
4.973697
 21
9.434207
 31
0.000000
  0
TEXT
  8
DIMEN
 62
     7
 10
2.688294
 20
15.295827
 30
0.000000
 40
0.125000
  1
6"
  0
LINE
  8
DIMEN
 62
     7
  6
CONTINUOUS
 10
4.946185
 20
9.312272
 30
0.000000
 11
3.064680
 21
15.358548
 31
0.000000
  0
TEXT
  8
DIMEN
 62
     7
 10
2.354268
 20
14.921050
 30
0.000000
 40
0.125000
  1
CUTOUT
  0
TEXT
  8
DIMEN
 62
     7
 10
2.576045
 20
15.108549
 30
0.000000
 40
0.125000
  1
HUB
  0
ARC
  8
PLATE
 62
     7
  6
CONTINUOUS
 10
4.054794
 20
12.176779
 30
0.000000
 40
3.000004
 50
49.189621
 51
108.857998
  0
ARC
  8
PLATE
 62
     7
  6
CONTINUOUS
 10
4.054823
 20
12.176742
 30
0.000000
 40
3.000049
 50
115.346068
 51
130.025393
  0
LINE
  8
DIMEN
 62
     7
  6
CONTINUOUS
 10
4.054794
 20
14.479645
 30
0.000000
 11
3.946541
 21
14.417145
 31
0.000000
  0
LINE
  8
DIMEN
 62
     7
  6
CONTINUOUS
 10
4.054794
 20
14.479645
 30
0.000000
 11
3.946541
 21
14.542145
 31
0.000000
  0
LINE
  8
DIMEN
 62
     7
  6
CONTINUOUS
 10
2.060457
 20
13.328218
 30
0.000000
 11
2.060457
 21
13.453218
 31
0.000000
  0
LINE
  8
DIMEN
 62
     7
  6
CONTINUOUS
 10
2.060457
 20
13.328218
 30
0.000000
 11
2.168710
 21
13.390718
 31
0.000000
  0
LINE
  8
DIMEN
 62
     7
  6
CONTINUOUS
 10
4.054795
 20
13.517283
 30
0.000000
 11
4.054795
 21
14.542645
 31
0.000000
  0
LINE
  8
DIMEN
 62
     7
  6
CONTINUOUS
 10
2.893888
 20
12.847033
 30
0.000000
 11
2.005897
 21
13.359718
 31
0.000000
  0
TEXT
  8
DIMEN
 62
     7
 10
2.715190
 20
14.108397
 30
0.000000
 40
0.125000
  1
60
  0
ARC
  8
DIMEN
 62
     7
  6
CONTINUOUS
 10
4.054794
 20
12.176779
 30
0.000000
 40
2.302866
 50
90.000000
 51
113.025804
  0
ARC
  8
DIMEN
 62
     7
  6
CONTINUOUS
 10
4.054794
 20
12.176779
 30
0.000000
 40
2.302866
 50
125.742702
 51
149.999830
  0
LINE
  8
DIMEN
 62
     7
  6
CONTINUOUS
 10
5.063562
 20
10.429558
 30
0.000000
 11
5.126062
 21
10.537811
 31
0.000000
  0
LINE
  8
DIMEN
 62
     7
  6
CONTINUOUS
 10
5.063562
 20
10.429558
 30
0.000000
 11
5.188562
 21
10.429558
 31
0.000000
  0
LINE
  8
DIMEN
 62
     7
  6
CONTINUOUS
 10
6.072316
 20
12.176790
 30
0.000000
 11
6.134816
 21
12.068537
 31
0.000000
  0
LINE
  8
DIMEN
 62
     7
  6
CONTINUOUS
 10
6.072316
 20
12.176790
 30
0.000000
 11
6.009816
 21
12.068537
 31
0.000000
  0
LINE
  8
DIMEN
 62
     7
  6
CONTINUOUS
 10
4.437796
 20
11.513407
 30
0.000000
 11
5.095063
 21
10.374998
 31
0.000000
  0
LINE
  8
DIMEN
 62
     7
  6
CONTINUOUS
 10
4.820795
 20
12.176783
 30
0.000000
 11
6.135316
 21
12.176790
 31
0.000000
  0
TEXT
  8
DIMEN
 62
     7
 10
5.613850
 20
11.105301
 30
0.000000
 40
0.125000
  1
60
  0
ARC
  8
DIMEN
 62
     7
  6
CONTINUOUS
 10
4.054794
 20
12.176779
 30
0.000000
 40
2.017522
 50
300.000247
 51
325.801319
  0
ARC
  8
DIMEN
 62
     7
  6
CONTINUOUS
 10
4.054794
 20
12.176779
 30
0.000000
 40
2.017522
 50
334.028295
 51
360.000311
  0
LINE
  8
DIMEN
 62
     7
  6
CONTINUOUS
 10
3.500836
 20
10.487666
 30
0.000000
 11
3.437836
 21
10.487666
 31
0.000000
  0
LINE
  8
DIMEN
 62
     7
  6
CONTINUOUS
 10
3.546531
 20
10.626998
 30
0.000000
 11
3.520878
 21
10.749338
 31
0.000000
  0
LINE
  8
DIMEN
 62
     7
  6
CONTINUOUS
 10
3.546531
 20
10.626998
 30
0.000000
 11
3.639654
 21
10.710384
 31
0.000000
  0
LINE
  8
DIMEN
 62
     7
  6
CONTINUOUS
 10
4.563058
 20
13.726567
 30
0.000000
 11
4.588711
 21
13.604227
 31
0.000000
  0
LINE
  8
DIMEN
 62
     7
  6
CONTINUOUS
 10
4.563058
 20
13.726567
 30
0.000000
 11
4.469936
 21
13.643181
 31
0.000000
  0
TEXT
  8
DIMEN
 62
     7
 10
2.622509
 20
10.424931
 30
0.000000
 40
0.125000
  1
3.262"
  0
LINE
  8
DIMEN
 62
     7
  6
CONTINUOUS
 10
4.563058
 20
13.726567
 30
0.000000
 11
3.500836
 21
10.487666
 31
0.000000
  0
LINE
  8
DIMEN
 62
     7
  6
CONTINUOUS
 10
3.823915
 20
10.254928
 30
0.000000
 11
3.760915
 21
10.254928
 31
0.000000
  0
LINE
  8
DIMEN
 62
     7
  6
CONTINUOUS
 10
3.970943
 20
11.478800
 30
0.000000
 11
3.921801
 21
11.593735
 31
0.000000
  0
LINE
  8
DIMEN
 62
     7
  6
CONTINUOUS
 10
3.970943
 20
11.478800
 30
0.000000
 11
4.045909
 21
11.578826
 31
0.000000
  0
LINE
  8
DIMEN
 62
     7
  6
CONTINUOUS
 10
4.138643
 20
12.874750
 30
0.000000
 11
4.187785
 21
12.759815
 31
0.000000
  0
LINE
  8
DIMEN
 62
     7
  6
CONTINUOUS
 10
4.138643
 20
12.874750
 30
0.000000
 11
4.063677
 21
12.774724
 31
0.000000
  0
TEXT
  8
DIMEN
 62
     7
 10
2.697026
 20
10.192341
 30
0.000000
 40
0.125000
  1
1 13/32"
  0
LINE
  8
DIMEN
 62
     7
  6
CONTINUOUS
 10
4.138643
 20
12.874750
 30
0.000000
 11
3.823915
 21
10.254928
 31
0.000000
  0
TEXT
  8
DIMEN
 62
     7
 10
2.635915
 20
10.004928
 30
0.000000
 40
0.125000
  1
BOLT CIRCLE
  0
TEXT
  8
DIMEN
 62
     7
 10
2.635915
 20
9.817429
 30
0.000000
 40
0.125000
  1
AND PILOT
  0
TEXT
  8
DIMEN
 62
     7
 10
2.635915
 20
9.629929
 30
0.000000
 40
0.125000
  1
BEARING
  0
TEXT
  8
DIMEN
 62
     7
 10
2.635915
 20
9.442429
 30
0.000000
 40
0.125000
  1
RECESS
  0
ARC
  8
PLATE
 62
     7
  6
CONTINUOUS
 10
4.053978
 20
12.175430
 30
0.000000
 40
2.998420
 50
236.305924
 51
240.882217
  0
ARC
  8
PLATE
 62
     7
  6
CONTINUOUS
 10
4.054795
 20
12.176781
 30
0.000000
 40
2.999997
 50
247.956015
 51
309.803037
  0
LINE
  8
DIMEN
 62
     7
  6
CONTINUOUS
 10
4.212637
 20
16.015392
 30
0.000000
 11
4.193173
 21
16.138867
 31
0.000000
  0
LINE
  8
DIMEN
 62
     7
  6
CONTINUOUS
 10
4.212637
 20
16.015392
 30
0.000000
 11
4.309838
 21
16.093987
 31
0.000000
  0
LINE
  8
DIMEN
 62
     7
  6
CONTINUOUS
 10
4.212637
 20
16.015392
 30
0.000000
 11
4.471159
 21
16.687408
 31
0.000000
  0
LINE
  8
DIMEN
 62
     7
  6
CONTINUOUS
 10
4.471159
 20
16.687408
 30
0.000000
 11
4.596159
 21
16.687408
 31
0.000000
  0
TEXT
  8
DIMEN
 62
     7
 10
4.721159
 20
16.624908
 30
0.000000
 40
0.125000
  1
SEE NOTE D
  0
LINE
  8
DIMEN
 62
     7
  6
CONTINUOUS
 10
4.142315
 20
13.636339
 30
0.000000
 11
4.125539
 21
13.760208
 31
0.000000
  0
LINE
  8
DIMEN
 62
     7
  6
CONTINUOUS
 10
4.142315
 20
13.636339
 30
0.000000
 11
4.241201
 21
13.712802
 31
0.000000
  0
LINE
  8
DIMEN
 62
     7
  6
CONTINUOUS
 10
4.142315
 20
13.636339
 30
0.000000
 11
4.458123
 21
14.406855
 31
0.000000
  0
LINE
  8
DIMEN
 62
     7
  6
CONTINUOUS
 10
4.458123
 20
14.406855
 30
0.000000
 11
4.583123
 21
14.406855
 31
0.000000
  0
TEXT
  8
DIMEN
 62
     7
 10
4.708123
 20
14.344355
 30
0.000000
 40
0.125000
  1
SEE NOTE C
  0
LINE
  8
DIMEN
 62
     7
  6
CONTINUOUS
 10
4.468235
 20
12.937450
 30
0.000000
 11
4.454908
 21
13.061738
 31
0.000000
  0
LINE
  8
DIMEN
 62
     7
  6
CONTINUOUS
 10
4.468235
 20
12.937450
 30
0.000000
 11
4.569208
 21
13.011136
 31
0.000000
  0
LINE
  8
DIMEN
 62
     7
  6
CONTINUOUS
 10
4.468235
 20
12.937450
 30
0.000000
 11
4.875262
 21
13.856838
 31
0.000000
  0
LINE
  8
DIMEN
 62
     7
  6
CONTINUOUS
 10
4.875262
 20
13.856838
 30
0.000000
 11
5.000262
 21
13.856838
 31
0.000000
  0
TEXT
  8
DIMEN
 62
     7
 10
5.125262
 20
13.794338
 30
0.000000
 40
0.125000
  1
SEE NOTE B
  0
LINE
  8
PARTS
 62
     7
  6
CONTINUOUS
 10
6.112980
 20
13.977573
 30
0.000000
 11
6.112980
 21
17.529285
 31
0.000000
  0
LINE
  8
PARTS
 62
     7
  6
CONTINUOUS
 10
6.112980
 20
13.709274
 30
0.000000
 11
6.112980
 21
6.824285
 31
0.000000
  0
LINE
  8
DIMEN
 62
     7
  6
CONTINUOUS
 10
8.072980
 20
16.879608
 30
0.000000
 11
7.964727
 21
16.817108
 31
0.000000
  0
LINE
  8
DIMEN
 62
     7
  6
CONTINUOUS
 10
8.072980
 20
16.879608
 30
0.000000
 11
7.964727
 21
16.942108
 31
0.000000
  0
LINE
  8
DIMEN
 62
     7
  6
CONTINUOUS
 10
8.195979
 20
16.879608
 30
0.000000
 11
8.304232
 21
16.942108
 31
0.000000
  0
LINE
  8
DIMEN
 62
     7
  6
CONTINUOUS
 10
8.195979
 20
16.879608
 30
0.000000
 11
8.304232
 21
16.817108
 31
0.000000
  0
LINE
  8
DIMEN
 62
     7
  6
CONTINUOUS
 10
8.072980
 20
16.489781
 30
0.000000
 11
8.072980
 21
16.942608
 31
0.000000
  0
LINE
  8
DIMEN
 62
     7
  6
CONTINUOUS
 10
8.195979
 20
16.489785
 30
0.000000
 11
8.195979
 21
16.942608
 31
0.000000
  0
TEXT
  8
DIMEN
 62
     7
 10
8.533003
 20
16.816701
 30
0.000000
 40
0.125000
  1
1/8"
  0
LINE
  8
DIMEN
 62
     7
  6
CONTINUOUS
 10
8.072980
 20
16.879608
 30
0.000000
 11
7.822980
 21
16.879608
 31
0.000000
  0
LINE
  8
DIMEN
 62
     7
  6
CONTINUOUS
 10
8.195979
 20
16.879608
 30
0.000000
 11
8.445979
 21
16.879608
 31
0.000000
  0
LINE
  8
DIMEN
 62
     7
  6
CONTINUOUS
 10
11.520009
 20
12.442322
 30
0.000000
 11
11.411756
 21
12.379822
 31
0.000000
  0
LINE
  8
DIMEN
 62
     7
  6
CONTINUOUS
 10
11.520009
 20
12.442322
 30
0.000000
 11
11.411756
 21
12.504822
 31
0.000000
  0
LINE
  8
DIMEN
 62
     7
  6
CONTINUOUS
 10
11.645009
 20
12.442322
 30
0.000000
 11
11.753262
 21
12.504822
 31
0.000000
  0
LINE
  8
DIMEN
 62
     7
  6
CONTINUOUS
 10
11.645009
 20
12.442322
 30
0.000000
 11
11.753262
 21
12.379822
 31
0.000000
  0
LINE
  8
DIMEN
 62
     7
  6
CONTINUOUS
 10
11.520009
 20
12.816784
 30
0.000000
 11
11.520009
 21
12.379322
 31
0.000000
  0
LINE
  8
DIMEN
 62
     7
  6
CONTINUOUS
 10
11.645009
 20
12.816784
 30
0.000000
 11
11.645009
 21
12.379322
 31
0.000000
  0
TEXT
  8
DIMEN
 62
     7
 10
11.980515
 20
12.379414
 30
0.000000
 40
0.125000
  1
1/8"
  0
LINE
  8
DIMEN
 62
     7
  6
CONTINUOUS
 10
11.520009
 20
12.442322
 30
0.000000
 11
11.270009
 21
12.442322
 31
0.000000
  0
LINE
  8
DIMEN
 62
     7
  6
CONTINUOUS
 10
11.645009
 20
12.442322
 30
0.000000
 11
11.895009
 21
12.442322
 31
0.000000
  0
LINE
  8
HUB
 62
     7
  6
CONTINUOUS
 10
12.395009
 20
12.361629
 30
0.000000
 11
12.395009
 21
11.376783
 31
0.000000
  0
LINE
  8
HUB
 62
     7
  6
CONTINUOUS
 10
12.395009
 20
12.523014
 30
0.000000
 11
12.395009
 21
12.982357
 31
0.000000
  0
LINE
  8
DIMEN
 62
     7
  6
CONTINUOUS
 10
10.963749
 20
11.473783
 30
0.000000
 11
10.901249
 21
11.582037
 31
0.000000
  0
LINE
  8
DIMEN
 62
     7
  6
CONTINUOUS
 10
10.963749
 20
11.473783
 30
0.000000
 11
11.026249
 21
11.582037
 31
0.000000
  0
LINE
  8
DIMEN
 62
     7
  6
CONTINUOUS
 10
10.963749
 20
12.879784
 30
0.000000
 11
11.026249
 21
12.771530
 31
0.000000
  0
LINE
  8
DIMEN
 62
     7
  6
CONTINUOUS
 10
10.963749
 20
12.879784
 30
0.000000
 11
10.901249
 21
12.771530
 31
0.000000
  0
LINE
  8
DIMEN
 62
     7
  6
CONTINUOUS
 10
11.457009
 20
11.473783
 30
0.000000
 11
10.900749
 21
11.473783
 31
0.000000
  0
LINE
  8
DIMEN
 62
     7
  6
CONTINUOUS
 10
11.457009
 20
12.879784
 30
0.000000
 11
10.900749
 21
12.879784
 31
0.000000
  0
TEXT
  8
DIMEN
 62
     7
 10
10.463054
 20
12.552069
 30
0.000000
 40
0.125000
  1
1 13/32"
  0
LINE
  8
DIMEN
 62
     7
  6
CONTINUOUS
 10
10.963749
 20
11.473783
 30
0.000000
 11
10.963749
 21
12.489569
 31
0.000000
  0
LINE
  8
DIMEN
 62
     7
  6
CONTINUOUS
 10
10.963749
 20
12.739742
 30
0.000000
 11
10.963749
 21
12.879784
 31
0.000000
  0
LINE
  8
DIMEN
 62
     7
  6
CONTINUOUS
 10
10.375013
 20
10.545784
 30
0.000000
 11
10.312513
 21
10.654037
 31
0.000000
  0
LINE
  8
DIMEN
 62
     7
  6
CONTINUOUS
 10
10.375013
 20
10.545784
 30
0.000000
 11
10.437513
 21
10.654037
 31
0.000000
  0
LINE
  8
DIMEN
 62
     7
  6
CONTINUOUS
 10
10.375013
 20
13.807783
 30
0.000000
 11
10.437513
 21
13.699530
 31
0.000000
  0
LINE
  8
DIMEN
 62
     7
  6
CONTINUOUS
 10
10.375013
 20
13.807783
 30
0.000000
 11
10.312513
 21
13.699530
 31
0.000000
  0
LINE
  8
DIMEN
 62
     7
  6
CONTINUOUS
 10
11.457009
 20
10.545784
 30
0.000000
 11
10.312013
 21
10.545784
 31
0.000000
  0
LINE
  8
DIMEN
 62
     7
  6
CONTINUOUS
 10
11.457009
 20
13.807783
 30
0.000000
 11
10.312013
 21
13.807783
 31
0.000000
  0
TEXT
  8
DIMEN
 62
     7
 10
9.621816
 20
11.053749
 30
0.000000
 40
0.125000
  1
3.262"
  0
TEXT
  8
DIMEN
 62
     7
 10
10.374643
 20
11.241485
 30
0.000000
 40
0.125000
  1
+.000"
  0
TEXT
  8
DIMEN
 62
     7
 10
10.374643
 20
10.866013
 30
0.000000
 40
0.125000
  1
-.001"
  0
LINE
  8
DIMEN
 62
     7
  6
CONTINUOUS
 10
10.375013
 20
10.545784
 30
0.000000
 11
10.375013
 21
10.803452
 31
0.000000
  0
LINE
  8
DIMEN
 62
     7
  6
CONTINUOUS
 10
10.375013
 20
11.429518
 30
0.000000
 11
10.375013
 21
13.807783
 31
0.000000
  0
LINE
  8
DIMEN
 62
     7
  6
CONTINUOUS
 10
12.738797
 20
11.801785
 30
0.000000
 11
12.676297
 21
11.910038
 31
0.000000
  0
LINE
  8
DIMEN
 62
     7
  6
CONTINUOUS
 10
12.738797
 20
11.801785
 30
0.000000
 11
12.801297
 21
11.910038
 31
0.000000
  0
LINE
  8
DIMEN
 62
     7
  6
CONTINUOUS
 10
12.738797
 20
12.551785
 30
0.000000
 11
12.801297
 21
12.443531
 31
0.000000
  0
LINE
  8
DIMEN
 62
     7
  6
CONTINUOUS
 10
12.738797
 20
12.551785
 30
0.000000
 11
12.676297
 21
12.443531
 31
0.000000
  0
LINE
  8
DIMEN
 62
     7
  6
CONTINUOUS
 10
12.458009
 20
11.801785
 30
0.000000
 11
12.801797
 21
11.801785
 31
0.000000
  0
LINE
  8
DIMEN
 62
     7
  6
CONTINUOUS
 10
12.458009
 20
12.551785
 30
0.000000
 11
12.801797
 21
12.551785
 31
0.000000
  0
TEXT
  8
DIMEN
 62
     7
 10
12.488507
 20
11.934992
 30
0.000000
 40
0.125000
  1
3/4"
  0
LINE
  8
DIMEN
 62
     7
  6
CONTINUOUS
 10
12.738797
 20
11.801785
 30
0.000000
 11
12.738797
 21
11.872493
 31
0.000000
  0
LINE
  8
DIMEN
 62
     7
  6
CONTINUOUS
 10
12.738797
 20
12.122638
 30
0.000000
 11
12.738797
 21
12.551785
 31
0.000000
  0
LINE
  8
DIMEN
 62
     7
  6
CONTINUOUS
 10
11.520009
 20
14.036334
 30
0.000000
 11
11.628262
 21
14.098834
 31
0.000000
  0
LINE
  8
DIMEN
 62
     7
  6
CONTINUOUS
 10
11.520009
 20
14.036334
 30
0.000000
 11
11.628262
 21
13.973834
 31
0.000000
  0
LINE
  8
DIMEN
 62
     7
  6
CONTINUOUS
 10
13.770009
 20
14.036334
 30
0.000000
 11
13.661756
 21
13.973834
 31
0.000000
  0
LINE
  8
DIMEN
 62
     7
  6
CONTINUOUS
 10
13.770009
 20
14.036334
 30
0.000000
 11
13.661756
 21
14.098834
 31
0.000000
  0
LINE
  8
DIMEN
 62
     7
  6
CONTINUOUS
 10
11.520009
 20
13.870783
 30
0.000000
 11
11.520009
 21
14.099334
 31
0.000000
  0
LINE
  8
DIMEN
 62
     7
  6
CONTINUOUS
 10
13.770009
 20
13.364785
 30
0.000000
 11
13.770009
 21
14.099334
 31
0.000000
  0
TEXT
  8
DIMEN
 62
     7
 10
12.269488
 20
13.973747
 30
0.000000
 40
0.125000
  1
2 1/4"
  0
LINE
  8
DIMEN
 62
     7
  6
CONTINUOUS
 10
11.520009
 20
14.036334
 30
0.000000
 11
12.206988
 21
14.036334
 31
0.000000
  0
LINE
  8
DIMEN
 62
     7
  6
CONTINUOUS
 10
13.083030
 20
14.036334
 30
0.000000
 11
13.770009
 21
14.036334
 31
0.000000
  0
LINE
  8
DIMEN
 62
     7
  6
CONTINUOUS
 10
11.520009
 20
10.356619
 30
0.000000
 11
11.628262
 21
10.419119
 31
0.000000
  0
LINE
  8
DIMEN
 62
     7
  6
CONTINUOUS
 10
11.520009
 20
10.356619
 30
0.000000
 11
11.628262
 21
10.294119
 31
0.000000
  0
LINE
  8
DIMEN
 62
     7
  6
CONTINUOUS
 10
12.520009
 20
10.356619
 30
0.000000
 11
12.411756
 21
10.294119
 31
0.000000
  0
LINE
  8
DIMEN
 62
     7
  6
CONTINUOUS
 10
12.520009
 20
10.356619
 30
0.000000
 11
12.411756
 21
10.419119
 31
0.000000
  0
LINE
  8
DIMEN
 62
     7
  6
CONTINUOUS
 10
11.520009
 20
10.482784
 30
0.000000
 11
11.520009
 21
10.293619
 31
0.000000
  0
LINE
  8
DIMEN
 62
     7
  6
CONTINUOUS
 10
12.520009
 20
10.482784
 30
0.000000
 11
12.520009
 21
10.293619
 31
0.000000
  0
TEXT
  8
DIMEN
 62
     7
 10
11.894864
 20
10.294046
 30
0.000000
 40
0.125000
  1
1"
  0
LINE
  8
DIMEN
 62
     7
  6
CONTINUOUS
 10
11.520009
 20
10.356619
 30
0.000000
 11
11.832364
 21
10.356619
 31
0.000000
  0
LINE
  8
DIMEN
 62
     7
  6
CONTINUOUS
 10
12.207654
 20
10.356619
 30
0.000000
 11
12.520009
 21
10.356619
 31
0.000000
  0
LINE
  8
DIMEN
 62
     7
  6
CONTINUOUS
 10
12.520009
 20
10.342733
 30
0.000000
 11
12.628262
 21
10.405233
 31
0.000000
  0
LINE
  8
DIMEN
 62
     7
  6
CONTINUOUS
 10
12.520009
 20
10.342733
 30
0.000000
 11
12.628262
 21
10.280233
 31
0.000000
  0
LINE
  8
DIMEN
 62
     7
  6
CONTINUOUS
 10
13.770009
 20
10.342733
 30
0.000000
 11
13.661756
 21
10.280233
 31
0.000000
  0
LINE
  8
DIMEN
 62
     7
  6
CONTINUOUS
 10
13.770009
 20
10.342733
 30
0.000000
 11
13.661756
 21
10.405233
 31
0.000000
  0
LINE
  8
DIMEN
 62
     7
  6
CONTINUOUS
 10
12.520009
 20
10.988785
 30
0.000000
 11
12.520009
 21
10.279733
 31
0.000000
  0
LINE
  8
DIMEN
 62
     7
  6
CONTINUOUS
 10
13.770009
 20
10.988783
 30
0.000000
 11
13.770009
 21
10.279733
 31
0.000000
  0
TEXT
  8
DIMEN
 62
     7
 10
12.769574
 20
10.280161
 30
0.000000
 40
0.125000
  1
1 1/4"
  0
LINE
  8
DIMEN
 62
     7
  6
CONTINUOUS
 10
12.520009
 20
10.342733
 30
0.000000
 11
12.707073
 21
10.342733
 31
0.000000
  0
LINE
  8
DIMEN
 62
     7
  6
CONTINUOUS
 10
13.582945
 20
10.342733
 30
0.000000
 11
13.770009
 21
10.342733
 31
0.000000
  0
LINE
  8
DIMEN
 62
     7
  6
CONTINUOUS
 10
14.281910
 20
11.051785
 30
0.000000
 11
14.219410
 21
11.160038
 31
0.000000
  0
LINE
  8
DIMEN
 62
     7
  6
CONTINUOUS
 10
14.281910
 20
11.051785
 30
0.000000
 11
14.344410
 21
11.160038
 31
0.000000
  0
LINE
  8
DIMEN
 62
     7
  6
CONTINUOUS
 10
14.281910
 20
13.301785
 30
0.000000
 11
14.344410
 21
13.193531
 31
0.000000
  0
LINE
  8
DIMEN
 62
     7
  6
CONTINUOUS
 10
14.281910
 20
13.301785
 30
0.000000
 11
14.219410
 21
13.193531
 31
0.000000
  0
LINE
  8
DIMEN
 62
     7
  6
CONTINUOUS
 10
13.833009
 20
11.051785
 30
0.000000
 11
14.344910
 21
11.051785
 31
0.000000
  0
LINE
  8
DIMEN
 62
     7
  6
CONTINUOUS
 10
13.833009
 20
13.301785
 30
0.000000
 11
14.344910
 21
13.301785
 31
0.000000
  0
TEXT
  8
DIMEN
 62
     7
 10
13.906389
 20
11.849232
 30
0.000000
 40
0.125000
  1
2 1/4"
  0
LINE
  8
DIMEN
 62
     7
  6
CONTINUOUS
 10
14.281910
 20
11.051785
 30
0.000000
 11
14.281910
 21
11.786732
 31
0.000000
  0
LINE
  8
DIMEN
 62
     7
  6
CONTINUOUS
 10
14.281910
 20
12.036905
 30
0.000000
 11
14.281910
 21
13.301785
 31
0.000000
  0
LINE
  8
DIMEN
 62
     7
  6
CONTINUOUS
 10
13.188413
 20
13.056124
 30
0.000000
 11
13.290940
 21
12.984618
 31
0.000000
  0
LINE
  8
DIMEN
 62
     7
  6
CONTINUOUS
 10
13.188413
 20
13.056124
 30
0.000000
 11
13.177751
 21
12.931579
 31
0.000000
  0
LINE
  8
DIMEN
 62
     7
  6
CONTINUOUS
 10
13.188413
 20
13.056124
 30
0.000000
 11
14.447143
 21
10.369877
 31
0.000000
  0
LINE
  8
DIMEN
 62
     7
  6
CONTINUOUS
 10
14.447143
 20
10.369877
 30
0.000000
 11
14.572143
 21
10.369877
 31
0.000000
  0
TEXT
  8
DIMEN
 62
     7
 10
14.697143
 20
10.307377
 30
0.000000
 40
0.125000
  1
BORE TO SUIT BUSHING
  0
POINT
  8
BUSHING
 62
     7
 10
15.243672
 20
12.172329
 30
0.000000
  0
POINT
  8
BUSHING
 62
     7
 10
15.243672
 20
12.172329
 30
0.000000
  0
LINE
  8
BUSHING
 62
     7
  6
CONTINUOUS
 10
15.243672
 20
12.172329
 30
0.000000
 11
15.243672
 21
11.359829
 31
0.000000
  0
POINT
  8
BUSHING
 62
     7
 10
16.368992
 20
12.875439
 30
0.000000
  0
POINT
  8
BUSHING
 62
     7
 10
16.368992
 20
12.875439
 30
0.000000
  0
POINT
  8
BUSHING
 62
     7
 10
16.368999
 20
12.875439
 30
0.000000
  0
POINT
  8
BUSHING
 62
     7
 10
16.368999
 20
12.875439
 30
0.000000
  0
POINT
  8
BUSHING
 62
     7
 10
15.242532
 20
12.876358
 30
0.000000
  0
POINT
  8
BUSHING
 62
     7
 10
15.367532
 20
12.876358
 30
0.000000
  0
POINT
  8
BUSHING
 62
     7
 10
15.492532
 20
12.876358
 30
0.000000
  0
POINT
  8
BUSHING
 62
     7
 10
15.492532
 20
12.876358
 30
0.000000
  0
LINE
  8
BUSHING
 62
     7
  6
CONTINUOUS
 10
15.367532
 20
12.876358
 30
0.000000
 11
15.367532
 21
12.931057
 31
0.000000
  0
LINE
  8
BUSHING
 62
     7
  6
CONTINUOUS
 10
15.367532
 20
12.876358
 30
0.000000
 11
15.367532
 21
12.821657
 31
0.000000
  0
LINE
  8
BUSHING
 62
     7
  6
CONTINUOUS
 10
15.492532
 20
12.876358
 30
0.000000
 11
15.492532
 21
12.962744
 31
0.000000
  0
LINE
  8
BUSHING
 62
     7
  6
CONTINUOUS
 10
15.492532
 20
12.876358
 30
0.000000
 11
15.492532
 21
12.789970
 31
0.000000
  0
POINT
  8
BUSHING
 62
     7
 10
15.742532
 20
12.876358
 30
0.000000
  0
POINT
  8
BUSHING
 62
     7
 10
15.617532
 20
12.876358
 30
0.000000
  0
POINT
  8
BUSHING
 62
     7
 10
15.617532
 20
12.876358
 30
0.000000
  0
LINE
  8
BUSHING
 62
     7
  6
CONTINUOUS
 10
15.617532
 20
12.876358
 30
0.000000
 11
15.617532
 21
12.931057
 31
0.000000
  0
LINE
  8
BUSHING
 62
     7
  6
CONTINUOUS
 10
15.617532
 20
12.876358
 30
0.000000
 11
15.617532
 21
12.821657
 31
0.000000
  0
POINT
  8
BUSHING
 62
     7
 10
15.867532
 20
12.876358
 30
0.000000
  0
LINE
  8
BUSHING
 62
     7
  6
CONTINUOUS
 10
15.867532
 20
12.876358
 30
0.000000
 11
15.867532
 21
12.931057
 31
0.000000
  0
LINE
  8
BUSHING
 62
     7
  6
CONTINUOUS
 10
15.867532
 20
12.876358
 30
0.000000
 11
15.867532
 21
12.821657
 31
0.000000
  0
POINT
  8
BUSHING
 62
     7
 10
16.117531
 20
12.876358
 30
0.000000
  0
LINE
  8
BUSHING
 62
     7
  6
CONTINUOUS
 10
16.117531
 20
12.876358
 30
0.000000
 11
16.117531
 21
12.931057
 31
0.000000
  0
LINE
  8
BUSHING
 62
     7
  6
CONTINUOUS
 10
16.117531
 20
12.876358
 30
0.000000
 11
16.117531
 21
12.821657
 31
0.000000
  0
POINT
  8
BUSHING
 62
     7
 10
16.367531
 20
12.876358
 30
0.000000
  0
LINE
  8
BUSHING
 62
     7
  6
CONTINUOUS
 10
16.367531
 20
12.876358
 30
0.000000
 11
16.367531
 21
12.931057
 31
0.000000
  0
LINE
  8
BUSHING
 62
     7
  6
CONTINUOUS
 10
16.367531
 20
12.876358
 30
0.000000
 11
16.367531
 21
12.821657
 31
0.000000
  0
POINT
  8
BUSHING
 62
     7
 10
15.742532
 20
12.876358
 30
0.000000
  0
POINT
  8
BUSHING
 62
     7
 10
15.742532
 20
12.876358
 30
0.000000
  0
LINE
  8
BUSHING
 62
     7
  6
CONTINUOUS
 10
15.742532
 20
12.876358
 30
0.000000
 11
15.742532
 21
12.962744
 31
0.000000
  0
LINE
  8
BUSHING
 62
     7
  6
CONTINUOUS
 10
15.742532
 20
12.876358
 30
0.000000
 11
15.742532
 21
12.789970
 31
0.000000
  0
POINT
  8
BUSHING
 62
     7
 10
15.992532
 20
12.876358
 30
0.000000
  0
POINT
  8
BUSHING
 62
     7
 10
15.992532
 20
12.876358
 30
0.000000
  0
LINE
  8
BUSHING
 62
     7
  6
CONTINUOUS
 10
15.992532
 20
12.876358
 30
0.000000
 11
15.992532
 21
12.962744
 31
0.000000
  0
LINE
  8
BUSHING
 62
     7
  6
CONTINUOUS
 10
15.992532
 20
12.876358
 30
0.000000
 11
15.992532
 21
12.789970
 31
0.000000
  0
POINT
  8
BUSHING
 62
     7
 10
16.242531
 20
12.876358
 30
0.000000
  0
POINT
  8
BUSHING
 62
     7
 10
16.242531
 20
12.876358
 30
0.000000
  0
LINE
  8
BUSHING
 62
     7
  6
CONTINUOUS
 10
16.242531
 20
12.876358
 30
0.000000
 11
16.242531
 21
12.962744
 31
0.000000
  0
LINE
  8
BUSHING
 62
     7
  6
CONTINUOUS
 10
16.242531
 20
12.876358
 30
0.000000
 11
16.242531
 21
12.789970
 31
0.000000
  0
POINT
  8
BUSHING
 62
     7
 10
15.243672
 20
12.172329
 30
0.000000
  0
LINE
  8
BUSHING
 62
     7
  6
CONTINUOUS
 10
15.243672
 20
12.984829
 30
0.000000
 11
15.243672
 21
12.172329
 31
0.000000
  0
LINE
  8
BUSHING
 62
     7
  6
CONTINUOUS
 10
16.493671
 20
12.172329
 30
0.000000
 11
16.493671
 21
13.109829
 31
0.000000
  0
LINE
  8
BUSHING
 62
     7
  6
CONTINUOUS
 10
16.493671
 20
12.172329
 30
0.000000
 11
16.493671
 21
11.234829
 31
0.000000
  0
LINE
  8
BUSHING
 62
     7
  6
CONTINUOUS
 10
15.243672
 20
12.734821
 30
0.000000
 11
16.493671
 21
12.734821
 31
0.000000
  0
LINE
  8
BUSHING
 62
     7
  6
CONTINUOUS
 10
15.243672
 20
12.789488
 30
0.000000
 11
16.493671
 21
12.789488
 31
0.000000
  0
LINE
  8
BUSHING
 62
     7
  6
CONTINUOUS
 10
15.246179
 20
11.609838
 30
0.000000
 11
16.493671
 21
11.609838
 31
0.000000
  0
LINE
  8
BUSHING
 62
     7
  6
CONTINUOUS
 10
15.243672
 20
11.359829
 30
0.000000
 11
16.493671
 21
11.234829
 31
0.000000
  0
LINE
  8
BUSHING
 62
     7
  6
CONTINUOUS
 10
15.243672
 20
12.984829
 30
0.000000
 11
16.493671
 21
13.109829
 31
0.000000
  0
LINE
  8
BUSHING
 62
     7
  6
CONTINUOUS
 10
15.243672
 20
12.961388
 30
0.000000
 11
16.493671
 21
12.961388
 31
0.000000
  0
LINE
  8
BUSHING
 62
     7
  6
CONTINUOUS
 10
15.242532
 20
12.876358
 30
0.000000
 11
16.493671
 21
12.876358
 31
0.000000
  0
LINE
  8
BUSHING
 62
     7
  6
CONTINUOUS
 10
15.243672
 20
13.517104
 30
0.000000
 11
15.351926
 21
13.579604
 31
0.000000
  0
LINE
  8
BUSHING
 62
     7
  6
CONTINUOUS
 10
15.243672
 20
13.517104
 30
0.000000
 11
15.351926
 21
13.454604
 31
0.000000
  0
LINE
  8
BUSHING
 62
     7
  6
CONTINUOUS
 10
16.493671
 20
13.517104
 30
0.000000
 11
16.385418
 21
13.454604
 31
0.000000
  0
LINE
  8
BUSHING
 62
     7
  6
CONTINUOUS
 10
16.493671
 20
13.517104
 30
0.000000
 11
16.385418
 21
13.579604
 31
0.000000
  0
LINE
  8
BUSHING
 62
     7
  6
CONTINUOUS
 10
15.243672
 20
13.047329
 30
0.000000
 11
15.243672
 21
13.767104
 31
0.000000
  0
LINE
  8
BUSHING
 62
     7
  6
CONTINUOUS
 10
16.493671
 20
13.172329
 30
0.000000
 11
16.493671
 21
13.767104
 31
0.000000
  0
TEXT
  8
BUSHING
 62
     7
 10
15.493236
 20
13.454531
 30
0.000000
 40
0.125000
  1
1 1/4"
  0
LINE
  8
BUSHING
 62
     7
  6
CONTINUOUS
 10
15.243672
 20
13.517104
 30
0.000000
 11
15.461986
 21
13.517104
 31
0.000000
  0
LINE
  8
BUSHING
 62
     7
  6
CONTINUOUS
 10
16.275358
 20
13.517104
 30
0.000000
 11
16.493671
 21
13.517104
 31
0.000000
  0
LINE
  8
BUSHING
 62
     7
  6
CONTINUOUS
 10
14.772574
 20
11.359829
 30
0.000000
 11
14.710074
 21
11.468082
 31
0.000000
  0
LINE
  8
BUSHING
 62
     7
  6
CONTINUOUS
 10
14.772574
 20
11.359829
 30
0.000000
 11
14.835074
 21
11.468082
 31
0.000000
  0
LINE
  8
BUSHING
 62
     7
  6
CONTINUOUS
 10
14.772574
 20
12.984829
 30
0.000000
 11
14.835074
 21
12.876576
 31
0.000000
  0
LINE
  8
BUSHING
 62
     7
  6
CONTINUOUS
 10
14.772574
 20
12.984829
 30
0.000000
 11
14.710074
 21
12.876576
 31
0.000000
  0
LINE
  8
BUSHING
 62
     7
  6
CONTINUOUS
 10
15.181172
 20
11.359829
 30
0.000000
 11
14.522574
 21
11.359829
 31
0.000000
  0
LINE
  8
BUSHING
 62
     7
  6
CONTINUOUS
 10
15.181172
 20
12.984829
 30
0.000000
 11
14.522574
 21
12.984829
 31
0.000000
  0
TEXT
  8
BUSHING
 62
     7
 10
14.394426
 20
12.333432
 30
0.000000
 40
0.125000
  1
1 5/8"
  0
LINE
  8
BUSHING
 62
     7
  6
CONTINUOUS
 10
14.772574
 20
11.359829
 30
0.000000
 11
14.772574
 21
12.302182
 31
0.000000
  0
LINE
  8
BUSHING
 62
     7
  6
CONTINUOUS
 10
14.772574
 20
12.490731
 30
0.000000
 11
14.772574
 21
12.984829
 31
0.000000
  0
LINE
  8
BUSHING
 62
     7
  6
CONTINUOUS
 10
16.941227
 20
11.609838
 30
0.000000
 11
16.878727
 21
11.718092
 31
0.000000
  0
LINE
  8
BUSHING
 62
     7
  6
CONTINUOUS
 10
16.941227
 20
11.609838
 30
0.000000
 11
17.003727
 21
11.718092
 31
0.000000
  0
LINE
  8
BUSHING
 62
     7
  6
CONTINUOUS
 10
16.941227
 20
12.734821
 30
0.000000
 11
17.003727
 21
12.626568
 31
0.000000
  0
LINE
  8
BUSHING
 62
     7
  6
CONTINUOUS
 10
16.941227
 20
12.734821
 30
0.000000
 11
16.878727
 21
12.626568
 31
0.000000
  0
LINE
  8
BUSHING
 62
     7
  6
CONTINUOUS
 10
16.556171
 20
11.609838
 30
0.000000
 11
17.191227
 21
11.609838
 31
0.000000
  0
LINE
  8
BUSHING
 62
     7
  6
CONTINUOUS
 10
16.556171
 20
12.734821
 30
0.000000
 11
17.191227
 21
12.734821
 31
0.000000
  0
TEXT
  8
BUSHING
 62
     7
 10
16.563778
 20
11.960001
 30
0.000000
 40
0.125000
  1
1 1/8"
  0
LINE
  8
BUSHING
 62
     7
  6
CONTINUOUS
 10
16.941227
 20
11.609838
 30
0.000000
 11
16.941227
 21
11.928751
 31
0.000000
  0
LINE
  8
BUSHING
 62
     7
  6
CONTINUOUS
 10
16.941227
 20
12.117067
 30
0.000000
 11
16.941227
 21
12.734821
 31
0.000000
  0
LINE
  8
BUSHING
 62
     7
  6
CONTINUOUS
 10
17.536285
 20
11.234829
 30
0.000000
 11
17.473785
 21
11.343082
 31
0.000000
  0
LINE
  8
BUSHING
 62
     7
  6
CONTINUOUS
 10
17.536285
 20
11.234829
 30
0.000000
 11
17.598785
 21
11.343082
 31
0.000000
  0
LINE
  8
BUSHING
 62
     7
  6
CONTINUOUS
 10
17.536285
 20
13.109829
 30
0.000000
 11
17.598785
 21
13.001576
 31
0.000000
  0
LINE
  8
BUSHING
 62
     7
  6
CONTINUOUS
 10
17.536285
 20
13.109829
 30
0.000000
 11
17.473785
 21
13.001576
 31
0.000000
  0
LINE
  8
BUSHING
 62
     7
  6
CONTINUOUS
 10
16.556171
 20
11.234829
 30
0.000000
 11
17.786285
 21
11.234829
 31
0.000000
  0
LINE
  8
BUSHING
 62
     7
  6
CONTINUOUS
 10
16.556171
 20
13.109829
 30
0.000000
 11
17.786285
 21
13.109829
 31
0.000000
  0
TEXT
  8
BUSHING
 62
     7
 10
17.158838
 20
12.296194
 30
0.000000
 40
0.125000
  1
1 7/8"
  0
LINE
  8
BUSHING
 62
     7
  6
CONTINUOUS
 10
17.536285
 20
11.234829
 30
0.000000
 11
17.536285
 21
12.264944
 31
0.000000
  0
LINE
  8
BUSHING
 62
     7
  6
CONTINUOUS
 10
17.536285
 20
12.453260
 30
0.000000
 11
17.536285
 21
13.109829
 31
0.000000
  0
LINE
  8
BUSHING
 62
     7
  6
CONTINUOUS
 10
15.473420
 20
11.331842
 30
0.000000
 11
15.586982
 21
11.279605
 31
0.000000
  0
LINE
  8
BUSHING
 62
     7
  6
CONTINUOUS
 10
15.473420
 20
11.331842
 30
0.000000
 11
15.484962
 21
11.207376
 31
0.000000
  0
LINE
  8
BUSHING
 62
     7
  6
CONTINUOUS
 10
15.473420
 20
11.331842
 30
0.000000
 11
15.975911
 21
10.622101
 31
0.000000
  0
LINE
  8
BUSHING
 62
     7
  6
CONTINUOUS
 10
15.975911
 20
10.622101
 30
0.000000
 11
16.100911
 21
10.622101
 31
0.000000
  0
TEXT
  8
BUSHING
 62
     7
 10
16.163411
 20
10.559601
 30
0.000000
 40
0.125000
  1
2.500TPF
  0
LINE
  8
DIMEN
 62
     7
  6
CONTINUOUS
 10
3.252911
 20
16.300653
 30
0.000000
 11
3.189911
 21
16.300653
 31
0.000000
  0
LINE
  8
DIMEN
 62
     7
  6
CONTINUOUS
 10
3.362876
 20
15.735135
 30
0.000000
 11
3.444889
 21
15.640802
 31
0.000000
  0
LINE
  8
DIMEN
 62
     7
  6
CONTINUOUS
 10
3.362876
 20
15.735135
 30
0.000000
 11
3.322188
 21
15.616943
 31
0.000000
  0
LINE
  8
DIMEN
 62
     7
  6
CONTINUOUS
 10
4.746713
 20
8.618430
 30
0.000000
 11
4.664699
 21
8.712763
 31
0.000000
  0
LINE
  8
DIMEN
 62
     7
  6
CONTINUOUS
 10
4.746713
 20
8.618430
 30
0.000000
 11
4.787401
 21
8.736623
 31
0.000000
  0
TEXT
  8
DIMEN
 62
     7
 10
2.373448
 20
16.237823
 30
0.000000
 40
0.125000
  1
7.250"
  0
LINE
  8
DIMEN
 62
     7
  6
CONTINUOUS
 10
4.746713
 20
8.618430
 30
0.000000
 11
3.252911
 21
16.300653
 31
0.000000
  0
ARC
  8
PLATE
 62
     7
  6
CONTINUOUS
 10
4.054795
 20
12.176795
 30
0.000000
 40
4.250011
 50
243.222925
 51
294.878975
  0
TEXT
  8
DIMEN
 62
     7
 10
2.314911
 20
16.050653
 30
0.000000
 40
0.125000
  1
BOLT
  0
TEXT
  8
DIMEN
 62
     7
 10
2.314911
 20
15.863154
 30
0.000000
 40
0.125000
  1
CIRCLE
  0
ARC
  8
PLATE
 62
     7
  6
CONTINUOUS
 10
4.054799
 20
12.176787
 30
0.000000
 40
4.249994
 50
62.710217
 51
99.969523
  0
ARC
  8
PLATE
 62
     7
  6
CONTINUOUS
 10
4.055744
 20
12.174880
 30
0.000000
 40
4.252126
 50
114.645686
 51
117.362480
  0
LINE
  8
DIMEN
 62
     7
  6
CONTINUOUS
 10
10.099360
 20
8.777168
 30
0.000000
 11
10.100606
 21
8.902162
 31
0.000000
  0
LINE
  8
DIMEN
 62
     7
  6
CONTINUOUS
 10
10.099360
 20
8.777168
 30
0.000000
 11
10.208231
 21
8.838587
 31
0.000000
  0
LINE
  8
DIMEN
 62
     7
  6
CONTINUOUS
 10
10.099360
 20
8.777168
 30
0.000000
 11
10.675874
 21
9.753135
 31
0.000000
  0
LINE
  8
DIMEN
 62
     7
  6
CONTINUOUS
 10
10.675874
 20
9.753135
 30
0.000000
 11
10.800874
 21
9.753135
 31
0.000000
  0
TEXT
  8
DIMEN
 62
     7
 10
10.925873
 20
9.690635
 30
0.000000
 40
0.125000
  1
RING DIAMETERS
  0
TEXT
  8
DIMEN
 62
     7
 10
10.925873
 20
9.503135
 30
0.000000
 40
0.125000
  1
AND BOLT CIRCLES
  0
TEXT
  8
DIMEN
 62
     7
 10
10.925873
 20
9.315635
 30
0.000000
 40
0.125000
  1
AS PER STD 9" RING
  0
TEXT
  8
DIMEN
 62
     7
 10
10.925873
 20
9.128135
 30
0.000000
 40
0.125000
  1
PRINT
  0
LINE
  8
DIMEN
 62
     7
  6
CONTINUOUS
 10
9.930066
 20
15.805797
 30
0.000000
 11
10.054872
 21
15.812768
 31
0.000000
  0
LINE
  8
DIMEN
 62
     7
  6
CONTINUOUS
 10
9.930066
 20
15.805797
 30
0.000000
 11
9.998506
 21
15.701198
 31
0.000000
  0
LINE
  8
DIMEN
 62
     7
  6
CONTINUOUS
 10
9.930066
 20
15.805797
 30
0.000000
 11
10.495538
 21
15.520122
 31
0.000000
  0
LINE
  8
DIMEN
 62
     7
  6
CONTINUOUS
 10
10.495538
 20
15.520122
 30
0.000000
 11
10.620538
 21
15.520122
 31
0.000000
  0
TEXT
  8
DIMEN
 62
     7
 10
10.745537
 20
15.457622
 30
0.000000
 40
0.125000
  1
DRILL AND TAP
  0
TEXT
  8
DIMEN
 62
     7
 10
10.745537
 20
15.270121
 30
0.000000
 40
0.125000
  1
AS PER STD 9"
  0
TEXT
  8
DIMEN
 62
     7
 10
10.745537
 20
15.082622
 30
0.000000
 40
0.125000
  1
RING PRINT
  0
TEXT
  8
DIMEN
 62
     7
 10
14.285945
 20
17.910858
 30
0.000000
 40
0.125000
  1
ELECTRO AUTOMOTIVE
  0
TEXT
  8
DIMEN
 62
     7
 10
14.285945
 20
17.723354
 30
0.000000
 40
0.125000
  1
P.O. BOX 1113 FELTON CA. 95018-1113
  0
TEXT
  8
DIMEN
 62
     7
 10
14.285945
 20
17.348354
 30
0.000000
 40
0.125000
  1
DRAWN BY MICHAEL P. BROWN
  0
LINE
  8
DIMEN
 62
     7
  6
CONTINUOUS
 10
14.153197
 20
18.148354
 30
0.000000
 11
17.719650
 21
18.148354
 31
0.000000
  0
LINE
  8
DIMEN
 62
     7
  6
CONTINUOUS
 10
17.719650
 20
18.148354
 30
0.000000
 11
17.719650
 21
17.248367
 31
0.000000
  0
LINE
  8
DIMEN
 62
     7
  6
CONTINUOUS
 10
17.719650
 20
17.248367
 30
0.000000
 11
14.153197
 21
17.248367
 31
0.000000
  0
LINE
  8
DIMEN
 62
     7
  6
CONTINUOUS
 10
14.153197
 20
17.248367
 30
0.000000
 11
14.153197
 21
18.148354
 31
0.000000
  0
TEXT
  8
DIMEN
 62
     7
 10
14.285945
 20
17.535855
 30
0.000000
 40
0.125000
  1
PHONE 831-429-1989 FAX 831-429-1907
  0
TEXT
  8
DIMEN
 62
     7
 10
13.292424
 20
17.011975
 30
0.000000
 40
0.125000
  1
MAZADA 323 1986-1989 TO ADC
  0
TEXT
  8
DIMEN
 62
     7
 10
13.292424
 20
16.824474
 30
0.000000
 40
0.125000
  1
9" MOTOR ADAPTOR WITH NON STANDARD
  0
TEXT
  8
DIMEN
 62
     7
 10
13.292424
 20
16.449471
 30
0.000000
 40
0.125000
  1
NOTE A--DRILL 11/64" THROUGH
  0
TEXT
  8
DIMEN
 62
     7
 10
13.292424
 20
16.261973
 30
0.000000
 40
0.125000
  1
TAP 10-24 x 1" DEEP
  0
TEXT
  8
DIMEN
 62
     7
 10
13.292424
 20
16.074472
 30
0.000000
 40
0.125000
  1
NOTE B--DRILL 13/64" COUNTERBORE
  0
TEXT
  8
DIMEN
 62
     7
 10
13.292424
 20
15.886973
 30
0.000000
 40
0.125000
  1
23/64" x 5/16".  THEN COUNTERBORE
  0
TEXT
  8
DIMEN
 62
     7
 10
13.292424
 20
15.699473
 30
0.000000
 40
0.125000
  1
1 13/32" DIA x 1/8" DEEP FOR PILOT
  0
TEXT
  8
DIMEN
 62
     7
 10
13.292424
 20
15.511972
 30
0.000000
 40
0.125000
  1
BEARING RECESS
  0
TEXT
  8
DIMEN
 62
     7
 10
13.292424
 20
15.324473
 30
0.000000
 40
0.125000
  1
NOTE C--DRILL WITH Y BIT 13/16" DEEP
  0
TEXT
  8
DIMEN
 62
     7
 10
13.292424
 20
14.949473
 30
0.000000
 40
0.125000
  1
NOTE D--DRILL 17/32" THROUGH
  0
TEXT
  8
DIMEN
 62
     7
 10
13.292424
 20
14.761973
 30
0.000000
 40
0.125000
  1
NOTE E--SUPPLY FOUR 3/8"-16 x 2"
  0
TEXT
  8
DIMEN
 62
     7
 10
13.292424
 20
14.574472
 30
0.000000
 40
0.125000
  1
ALLEN HEAD CAP SCREWS FOR RING TO
  0
TEXT
  8
DIMEN
 62
     7
 10
13.292424
 20
14.386973
 30
0.000000
 40
0.125000
  1
MOTOR ASSEMBLY
  0
TEXT
  8
DIMEN
 62
     7
 10
13.292424
 20
16.636975
 30
0.000000
 40
0.125000
  1
9" RING.  DRAWN TO SCALE 11/28/00
  0
TEXT
  8
DIMEN
 62
     7
 10
13.292424
 20
15.136972
 30
0.000000
 40
0.125000
  1
TAP 12mm-1.0 x 11/16" DEEP
  0
LINE
  8
DIMEN
 62
     7
  6
CONTINUOUS
 10
15.243672
 20
12.898646
 30
0.000000
 11
15.154138
 21
12.985873
 31
0.000000
  0
LINE
  8
DIMEN
 62
     7
  6
CONTINUOUS
 10
15.243672
 20
12.898646
 30
0.000000
 11
15.274446
 21
13.019799
 31
0.000000
  0
LINE
  8
DIMEN
 62
     7
  6
CONTINUOUS
 10
15.243672
 20
12.898646
 30
0.000000
 11
14.937291
 21
13.985144
 31
0.000000
  0
LINE
  8
DIMEN
 62
     7
  6
CONTINUOUS
 10
14.937291
 20
13.985144
 30
0.000000
 11
15.062291
 21
13.985144
 31
0.000000
  0
TEXT
  8
DIMEN
 62
     7
 10
15.187291
 20
13.922644
 30
0.000000
 40
0.125000
  1
SEE NOTE A
  0
ENDSEC
  0
EOF
