  0
SECTION
  2
HEADER
  9
$ACADVER
  1
AC1006
  0
ENDSEC
  0
SECTION
  2
TABLES
  0
TABLE
  2
LTYPE
 70
    25
  0
LTYPE
  2
CONTINUOUS
 70
    64
  3
Solid line
 72
    64
 73
     0
 40
0.000000
  0
LTYPE
  2
DASHDOT
 70
    64
  3
__ . __ . __ . __ . __ . __ . __ . __ . __ . __
 72
    65
 73
     4
 40
1.000000
 49
0.500000
 49
-0.250000
 49
0.000000
 49
-0.250000
  0
LTYPE
  2
DASHED
 70
    64
  3
__ __ __ __ __ __ __ __ __ __ __ __ __ __ __ __
 72
    65
 73
     2
 40
0.750000
 49
0.500000
 49
-0.250000
  0
LTYPE
  2
DIVIDE
 70
    64
  3
____ . . ____ . . ____ . . ____ . . ____ . . __
 72
    65
 73
     6
 40
1.250000
 49
0.500000
 49
-0.250000
 49
0.000000
 49
-0.250000
 49
0.000000
 49
-0.250000
  0
LTYPE
  2
DOT
 70
    64
  3
. . . . . . . . . . . . . . . . . . . . . . . . 
 72
    65
 73
     2
 40
0.250000
 49
0.000000
 49
-0.250000
  0
ENDTAB
  0
ENDSEC
  0
SECTION
  2
ENTITIES
  0
LINE
  8
PARTS
 62
     7
  6
CONTINUOUS
 10
0.969159
 20
7.272235
 30
0.000000
 11
17.969160
 21
7.272235
 31
0.000000
  0
POINT
  8
PARTS
 62
     7
 10
14.781659
 20
7.272235
 30
0.000000
  0
POINT
  8
0
 62
     7
 10
14.781659
 20
7.272235
 30
0.000000
  0
POINT
  8
0
 62
     7
 10
14.781659
 20
7.272235
 30
0.000000
  0
LINE
  8
0
 62
     7
  6
CONTINUOUS
 10
14.781659
 20
7.272235
 30
0.000000
 11
14.781659
 21
6.459735
 31
0.000000
  0
POINT
  8
0
 62
     7
 10
15.906980
 20
7.975344
 30
0.000000
  0
POINT
  8
0
 62
     7
 10
15.906980
 20
7.975344
 30
0.000000
  0
POINT
  8
0
 62
     7
 10
15.906987
 20
7.975344
 30
0.000000
  0
POINT
  8
0
 62
     7
 10
15.906987
 20
7.975344
 30
0.000000
  0
POINT
  8
0
 62
     7
 10
14.780519
 20
7.976263
 30
0.000000
  0
POINT
  8
0
 62
     7
 10
14.905519
 20
7.976263
 30
0.000000
  0
POINT
  8
0
 62
     7
 10
15.030519
 20
7.976263
 30
0.000000
  0
POINT
  8
0
 62
     7
 10
15.030519
 20
7.976263
 30
0.000000
  0
LINE
  8
0
 62
     7
  6
CONTINUOUS
 10
14.905519
 20
7.976263
 30
0.000000
 11
14.905519
 21
8.030963
 31
0.000000
  0
LINE
  8
0
 62
     7
  6
CONTINUOUS
 10
14.905519
 20
7.976263
 30
0.000000
 11
14.905519
 21
7.921563
 31
0.000000
  0
LINE
  8
0
 62
     7
  6
CONTINUOUS
 10
15.030519
 20
7.976263
 30
0.000000
 11
15.030519
 21
8.062650
 31
0.000000
  0
LINE
  8
0
 62
     7
  6
CONTINUOUS
 10
15.030519
 20
7.976263
 30
0.000000
 11
15.030519
 21
7.889877
 31
0.000000
  0
POINT
  8
0
 62
     7
 10
15.280519
 20
7.976263
 30
0.000000
  0
POINT
  8
0
 62
     7
 10
15.155519
 20
7.976263
 30
0.000000
  0
POINT
  8
0
 62
     7
 10
15.155519
 20
7.976263
 30
0.000000
  0
LINE
  8
0
 62
     7
  6
CONTINUOUS
 10
15.155519
 20
7.976263
 30
0.000000
 11
15.155519
 21
8.030963
 31
0.000000
  0
LINE
  8
0
 62
     7
  6
CONTINUOUS
 10
15.155519
 20
7.976263
 30
0.000000
 11
15.155519
 21
7.921563
 31
0.000000
  0
POINT
  8
0
 62
     7
 10
15.405519
 20
7.976263
 30
0.000000
  0
LINE
  8
0
 62
     7
  6
CONTINUOUS
 10
15.405519
 20
7.976263
 30
0.000000
 11
15.405519
 21
8.030963
 31
0.000000
  0
LINE
  8
0
 62
     7
  6
CONTINUOUS
 10
15.405519
 20
7.976263
 30
0.000000
 11
15.405519
 21
7.921563
 31
0.000000
  0
POINT
  8
0
 62
     7
 10
15.655519
 20
7.976263
 30
0.000000
  0
LINE
  8
0
 62
     7
  6
CONTINUOUS
 10
15.655519
 20
7.976263
 30
0.000000
 11
15.655519
 21
8.030963
 31
0.000000
  0
LINE
  8
0
 62
     7
  6
CONTINUOUS
 10
15.655519
 20
7.976263
 30
0.000000
 11
15.655519
 21
7.921563
 31
0.000000
  0
POINT
  8
0
 62
     7
 10
15.905519
 20
7.976263
 30
0.000000
  0
LINE
  8
0
 62
     7
  6
CONTINUOUS
 10
15.905519
 20
7.976263
 30
0.000000
 11
15.905519
 21
8.030963
 31
0.000000
  0
LINE
  8
0
 62
     7
  6
CONTINUOUS
 10
15.905519
 20
7.976263
 30
0.000000
 11
15.905519
 21
7.921563
 31
0.000000
  0
POINT
  8
0
 62
     7
 10
15.280519
 20
7.976263
 30
0.000000
  0
POINT
  8
0
 62
     7
 10
15.280519
 20
7.976263
 30
0.000000
  0
LINE
  8
0
 62
     7
  6
CONTINUOUS
 10
15.280519
 20
7.976263
 30
0.000000
 11
15.280519
 21
8.062650
 31
0.000000
  0
LINE
  8
0
 62
     7
  6
CONTINUOUS
 10
15.280519
 20
7.976263
 30
0.000000
 11
15.280519
 21
7.889877
 31
0.000000
  0
POINT
  8
0
 62
     7
 10
15.530519
 20
7.976263
 30
0.000000
  0
POINT
  8
0
 62
     7
 10
15.530519
 20
7.976263
 30
0.000000
  0
LINE
  8
0
 62
     7
  6
CONTINUOUS
 10
15.530519
 20
7.976263
 30
0.000000
 11
15.530519
 21
8.062650
 31
0.000000
  0
LINE
  8
0
 62
     7
  6
CONTINUOUS
 10
15.530519
 20
7.976263
 30
0.000000
 11
15.530519
 21
7.889877
 31
0.000000
  0
POINT
  8
0
 62
     7
 10
15.780519
 20
7.976263
 30
0.000000
  0
POINT
  8
0
 62
     7
 10
15.780519
 20
7.976263
 30
0.000000
  0
LINE
  8
0
 62
     7
  6
CONTINUOUS
 10
15.780519
 20
7.976263
 30
0.000000
 11
15.780519
 21
8.062650
 31
0.000000
  0
LINE
  8
0
 62
     7
  6
CONTINUOUS
 10
15.780519
 20
7.976263
 30
0.000000
 11
15.780519
 21
7.889877
 31
0.000000
  0
POINT
  8
0
 62
     7
 10
14.781659
 20
7.272235
 30
0.000000
  0
POINT
  8
0
 62
     7
 10
15.344150
 20
7.275689
 30
0.000000
  0
LINE
  8
PARTS
 62
     7
  6
CONTINUOUS
 10
14.781659
 20
8.084735
 30
0.000000
 11
14.781659
 21
7.272235
 31
0.000000
  0
LINE
  8
PARTS
 62
     7
  6
CONTINUOUS
 10
14.781659
 20
7.272235
 30
0.000000
 11
16.031659
 21
7.272235
 31
0.000000
  0
LINE
  8
PARTS
 62
     7
  6
CONTINUOUS
 10
16.031659
 20
7.272235
 30
0.000000
 11
16.031659
 21
8.209735
 31
0.000000
  0
LINE
  8
PARTS
 62
     7
  6
CONTINUOUS
 10
16.031659
 20
7.272235
 30
0.000000
 11
16.031659
 21
6.334735
 31
0.000000
  0
LINE
  8
PARTS
 62
     7
  6
CONTINUOUS
 10
14.781659
 20
7.834727
 30
0.000000
 11
16.031659
 21
7.834727
 31
0.000000
  0
LINE
  8
PARTS
 62
     7
  6
CONTINUOUS
 10
14.781659
 20
7.889394
 30
0.000000
 11
16.031659
 21
7.889394
 31
0.000000
  0
LINE
  8
0
 62
     7
  6
CONTINUOUS
 10
14.784165
 20
6.709744
 30
0.000000
 11
16.031659
 21
6.709744
 31
0.000000
  0
LINE
  8
PARTS
 62
     7
  6
CONTINUOUS
 10
14.781659
 20
6.459735
 30
0.000000
 11
16.031659
 21
6.334735
 31
0.000000
  0
LINE
  8
PARTS
 62
     7
  6
CONTINUOUS
 10
14.781659
 20
8.084735
 30
0.000000
 11
16.031659
 21
8.209735
 31
0.000000
  0
LINE
  8
0
 62
     7
  6
CONTINUOUS
 10
14.781659
 20
8.061294
 30
0.000000
 11
16.031659
 21
8.061294
 31
0.000000
  0
LINE
  8
PARTS
 62
     7
  6
CONTINUOUS
 10
14.780519
 20
7.976263
 30
0.000000
 11
16.031659
 21
7.976263
 31
0.000000
  0
LINE
  8
0
 62
     7
  6
CONTINUOUS
 10
14.781659
 20
8.617010
 30
0.000000
 11
14.889912
 21
8.679510
 31
0.000000
  0
LINE
  8
0
 62
     7
  6
CONTINUOUS
 10
14.781659
 20
8.617010
 30
0.000000
 11
14.889912
 21
8.554510
 31
0.000000
  0
LINE
  8
0
 62
     7
  6
CONTINUOUS
 10
16.031659
 20
8.617010
 30
0.000000
 11
15.923406
 21
8.554510
 31
0.000000
  0
LINE
  8
0
 62
     7
  6
CONTINUOUS
 10
16.031659
 20
8.617010
 30
0.000000
 11
15.923406
 21
8.679510
 31
0.000000
  0
LINE
  8
0
 62
     7
  6
CONTINUOUS
 10
14.781659
 20
8.147235
 30
0.000000
 11
14.781659
 21
8.867010
 31
0.000000
  0
LINE
  8
0
 62
     7
  6
CONTINUOUS
 10
16.031659
 20
8.272235
 30
0.000000
 11
16.031659
 21
8.867010
 31
0.000000
  0
TEXT
  8
0
 62
     7
 10
15.031223
 20
8.554438
 30
0.000000
 40
0.125000
  1
1 1/4"
  0
LINE
  8
0
 62
     7
  6
CONTINUOUS
 10
14.781659
 20
8.617010
 30
0.000000
 11
14.999973
 21
8.617010
 31
0.000000
  0
LINE
  8
0
 62
     7
  6
CONTINUOUS
 10
15.813345
 20
8.617010
 30
0.000000
 11
16.031659
 21
8.617010
 31
0.000000
  0
LINE
  8
0
 62
     7
  6
CONTINUOUS
 10
14.310561
 20
6.459735
 30
0.000000
 11
14.248061
 21
6.567989
 31
0.000000
  0
LINE
  8
0
 62
     7
  6
CONTINUOUS
 10
14.310561
 20
6.459735
 30
0.000000
 11
14.373061
 21
6.567989
 31
0.000000
  0
LINE
  8
0
 62
     7
  6
CONTINUOUS
 10
14.310561
 20
8.084735
 30
0.000000
 11
14.373061
 21
7.976482
 31
0.000000
  0
LINE
  8
0
 62
     7
  6
CONTINUOUS
 10
14.310561
 20
8.084735
 30
0.000000
 11
14.248061
 21
7.976482
 31
0.000000
  0
LINE
  8
0
 62
     7
  6
CONTINUOUS
 10
14.719159
 20
6.459735
 30
0.000000
 11
14.060561
 21
6.459735
 31
0.000000
  0
LINE
  8
0
 62
     7
  6
CONTINUOUS
 10
14.719159
 20
8.084735
 30
0.000000
 11
14.060561
 21
8.084735
 31
0.000000
  0
TEXT
  8
0
 62
     7
 10
13.932413
 20
7.433338
 30
0.000000
 40
0.125000
  1
1 5/8"
  0
LINE
  8
0
 62
     7
  6
CONTINUOUS
 10
14.310561
 20
6.459735
 30
0.000000
 11
14.310561
 21
7.402088
 31
0.000000
  0
LINE
  8
0
 62
     7
  6
CONTINUOUS
 10
14.310561
 20
7.590638
 30
0.000000
 11
14.310561
 21
8.084735
 31
0.000000
  0
LINE
  8
0
 62
     7
  6
CONTINUOUS
 10
16.479215
 20
6.709744
 30
0.000000
 11
16.416715
 21
6.817997
 31
0.000000
  0
LINE
  8
0
 62
     7
  6
CONTINUOUS
 10
16.479215
 20
6.709744
 30
0.000000
 11
16.541715
 21
6.817997
 31
0.000000
  0
LINE
  8
0
 62
     7
  6
CONTINUOUS
 10
16.479215
 20
7.834727
 30
0.000000
 11
16.541715
 21
7.726474
 31
0.000000
  0
LINE
  8
0
 62
     7
  6
CONTINUOUS
 10
16.479215
 20
7.834727
 30
0.000000
 11
16.416715
 21
7.726474
 31
0.000000
  0
LINE
  8
0
 62
     7
  6
CONTINUOUS
 10
16.094159
 20
6.709744
 30
0.000000
 11
16.729215
 21
6.709744
 31
0.000000
  0
LINE
  8
0
 62
     7
  6
CONTINUOUS
 10
16.094159
 20
7.834727
 30
0.000000
 11
16.729215
 21
7.834727
 31
0.000000
  0
TEXT
  8
0
 62
     7
 10
16.101766
 20
7.059906
 30
0.000000
 40
0.125000
  1
1 1/8"
  0
LINE
  8
0
 62
     7
  6
CONTINUOUS
 10
16.479215
 20
6.709744
 30
0.000000
 11
16.479215
 21
7.028656
 31
0.000000
  0
LINE
  8
0
 62
     7
  6
CONTINUOUS
 10
16.479215
 20
7.216972
 30
0.000000
 11
16.479215
 21
7.834727
 31
0.000000
  0
LINE
  8
0
 62
     7
  6
CONTINUOUS
 10
17.074273
 20
6.334735
 30
0.000000
 11
17.011773
 21
6.442989
 31
0.000000
  0
LINE
  8
0
 62
     7
  6
CONTINUOUS
 10
17.074273
 20
6.334735
 30
0.000000
 11
17.136773
 21
6.442989
 31
0.000000
  0
LINE
  8
0
 62
     7
  6
CONTINUOUS
 10
17.074273
 20
8.209735
 30
0.000000
 11
17.136773
 21
8.101482
 31
0.000000
  0
LINE
  8
0
 62
     7
  6
CONTINUOUS
 10
17.074273
 20
8.209735
 30
0.000000
 11
17.011773
 21
8.101482
 31
0.000000
  0
LINE
  8
0
 62
     7
  6
CONTINUOUS
 10
16.094159
 20
6.334735
 30
0.000000
 11
17.324273
 21
6.334735
 31
0.000000
  0
LINE
  8
0
 62
     7
  6
CONTINUOUS
 10
16.094159
 20
8.209735
 30
0.000000
 11
17.324273
 21
8.209735
 31
0.000000
  0
TEXT
  8
0
 62
     7
 10
16.696824
 20
7.396100
 30
0.000000
 40
0.125000
  1
1 7/8"
  0
LINE
  8
0
 62
     7
  6
CONTINUOUS
 10
17.074273
 20
6.334735
 30
0.000000
 11
17.074273
 21
7.364850
 31
0.000000
  0
LINE
  8
0
 62
     7
  6
CONTINUOUS
 10
17.074273
 20
7.553166
 30
0.000000
 11
17.074273
 21
8.209735
 31
0.000000
  0
LINE
  8
0
 62
     7
  6
CONTINUOUS
 10
15.011407
 20
6.431748
 30
0.000000
 11
15.124969
 21
6.379512
 31
0.000000
  0
LINE
  8
0
 62
     7
  6
CONTINUOUS
 10
15.011407
 20
6.431748
 30
0.000000
 11
15.022949
 21
6.307282
 31
0.000000
  0
LINE
  8
0
 62
     7
  6
CONTINUOUS
 10
15.011407
 20
6.431748
 30
0.000000
 11
15.513900
 21
5.722006
 31
0.000000
  0
LINE
  8
0
 62
     7
  6
CONTINUOUS
 10
15.513900
 20
5.722006
 30
0.000000
 11
15.638900
 21
5.722006
 31
0.000000
  0
TEXT
  8
0
 62
     7
 10
15.701400
 20
5.659506
 30
0.000000
 40
0.125000
  1
2.500TPF
  0
POINT
  8
PARTS
 62
     7
 10
11.768049
 20
7.272235
 30
0.000000
  0
POINT
  8
0
 62
     7
 10
11.768049
 20
7.272235
 30
0.000000
  0
POINT
  8
0
 62
     7
 10
11.768049
 20
7.272235
 30
0.000000
  0
POINT
  8
0
 62
     7
 10
11.768049
 20
7.272235
 30
0.000000
  0
LINE
  8
PARTS
 62
     7
  6
CONTINUOUS
 10
11.768049
 20
7.272235
 30
0.000000
 11
13.018049
 21
7.272235
 31
0.000000
  0
LINE
  8
PARTS
 62
     7
  6
CONTINUOUS
 10
13.018049
 20
7.272235
 30
0.000000
 11
13.018049
 21
8.209736
 31
0.000000
  0
LINE
  8
PARTS
 62
     7
  6
CONTINUOUS
 10
13.018049
 20
7.272235
 30
0.000000
 11
13.018049
 21
6.334735
 31
0.000000
  0
LINE
  8
PARTS
 62
     7
  6
CONTINUOUS
 10
13.018049
 20
7.272235
 30
0.000000
 11
11.518049
 21
7.272235
 31
0.000000
  0
LINE
  8
PARTS
 62
     7
  6
CONTINUOUS
 10
13.018049
 20
6.334735
 30
0.000000
 11
13.018049
 21
6.148696
 31
0.000000
  0
LINE
  8
PARTS
 62
     7
  6
CONTINUOUS
 10
13.018049
 20
6.334735
 30
0.000000
 11
11.518049
 21
6.484735
 31
0.000000
  0
LINE
  8
PARTS
 62
     7
  6
CONTINUOUS
 10
11.518049
 20
7.272235
 30
0.000000
 11
11.518049
 21
6.484735
 31
0.000000
  0
LINE
  8
PARTS
 62
     7
  6
CONTINUOUS
 10
13.018049
 20
8.397236
 30
0.000000
 11
11.893049
 21
8.397236
 31
0.000000
  0
LINE
  8
PARTS
 62
     7
  6
CONTINUOUS
 10
13.018049
 20
6.148696
 30
0.000000
 11
11.893049
 21
6.148696
 31
0.000000
  0
LINE
  8
PARTS
 62
     7
  6
CONTINUOUS
 10
10.705549
 20
8.597235
 30
0.000000
 11
11.893049
 21
8.597235
 31
0.000000
  0
LINE
  8
PARTS
 62
     7
  6
CONTINUOUS
 10
10.705549
 20
5.947236
 30
0.000000
 11
11.893049
 21
5.947236
 31
0.000000
  0
LINE
  8
PARTS
 62
     7
  6
CONTINUOUS
 10
11.893049
 20
8.397236
 30
0.000000
 11
11.893049
 21
8.597235
 31
0.000000
  0
LINE
  8
PARTS
 62
     7
  6
CONTINUOUS
 10
11.893049
 20
6.148696
 30
0.000000
 11
11.893049
 21
5.947236
 31
0.000000
  0
LINE
  8
PARTS
 62
     7
  6
CONTINUOUS
 10
10.705549
 20
7.865985
 30
0.000000
 11
10.768049
 21
7.865985
 31
0.000000
  0
LINE
  8
PARTS
 62
     7
  6
CONTINUOUS
 10
10.705549
 20
6.678485
 30
0.000000
 11
10.768049
 21
6.678485
 31
0.000000
  0
LINE
  8
PARTS
 62
     7
  6
CONTINUOUS
 10
10.768049
 20
6.678485
 30
0.000000
 11
10.768049
 21
7.865985
 31
0.000000
  0
LINE
  8
PARTS
 62
     7
  6
CONTINUOUS
 10
10.705549
 20
7.865985
 30
0.000000
 11
10.705549
 21
8.597235
 31
0.000000
  0
LINE
  8
PARTS
 62
     7
  6
CONTINUOUS
 10
10.705549
 20
6.678485
 30
0.000000
 11
10.705549
 21
5.947236
 31
0.000000
  0
LINE
  8
PARTS
 62
     7
  6
CONTINUOUS
 10
11.518049
 20
6.897235
 30
0.000000
 11
10.768049
 21
6.897235
 31
0.000000
  0
LINE
  8
PARTS
 62
     7
  6
CONTINUOUS
 10
11.518049
 20
7.647235
 30
0.000000
 11
10.768049
 21
7.647235
 31
0.000000
  0
LINE
  8
PARTS
 62
     7
  6
CONTINUOUS
 10
10.705549
 20
6.050235
 30
0.000000
 11
11.455549
 21
6.050235
 31
0.000000
  0
LINE
  8
PARTS
 62
     7
  6
CONTINUOUS
 10
11.455549
 20
6.050235
 30
0.000000
 11
11.455549
 21
6.456235
 31
0.000000
  0
LINE
  8
PARTS
 62
     7
  6
CONTINUOUS
 10
11.455549
 20
6.456235
 30
0.000000
 11
10.705549
 21
6.456235
 31
0.000000
  0
POINT
  8
PARTS
 62
     7
 10
10.705549
 20
7.976263
 30
0.000000
  0
LINE
  8
PARTS
 62
     7
  6
CONTINUOUS
 10
10.705549
 20
8.155962
 30
0.000000
 11
11.080549
 21
8.155962
 31
0.000000
  0
LINE
  8
PARTS
 62
     7
  6
CONTINUOUS
 10
11.080549
 20
8.155962
 30
0.000000
 11
11.080549
 21
7.796563
 31
0.000000
  0
LINE
  8
PARTS
 62
     7
  6
CONTINUOUS
 10
11.080549
 20
7.796563
 30
0.000000
 11
10.768049
 21
7.796563
 31
0.000000
  0
LINE
  8
PARTS
 62
     7
  6
CONTINUOUS
 10
11.518808
 20
7.889393
 30
0.000000
 11
11.080549
 21
7.889393
 31
0.000000
  0
LINE
  8
0
 62
     7
  6
CONTINUOUS
 10
11.080549
 20
8.061293
 30
0.000000
 11
11.518049
 21
8.061293
 31
0.000000
  0
LINE
  8
PARTS
 62
     7
  6
CONTINUOUS
 10
13.018551
 20
8.209999
 30
0.000000
 11
11.518049
 21
8.061293
 31
0.000000
  0
LINE
  8
PARTS
 62
     7
  6
CONTINUOUS
 10
13.018551
 20
8.209999
 30
0.000000
 11
13.018551
 21
8.397236
 31
0.000000
  0
POINT
  8
PARTS
 62
     7
 10
10.411352
 20
6.253235
 30
0.000000
  0
LINE
  8
PARTS
 62
     7
  6
CONTINUOUS
 10
10.411352
 20
6.253235
 30
0.000000
 11
11.596403
 21
6.253235
 31
0.000000
  0
LINE
  8
PARTS
 62
     7
  6
CONTINUOUS
 10
11.631646
 20
7.976263
 30
0.000000
 11
10.534035
 21
7.976263
 31
0.000000
  0
POINT
  8
PARTS
 62
     7
 10
10.768049
 20
7.272235
 30
0.000000
  0
LINE
  8
0
 62
     7
  6
CONTINUOUS
 10
13.579825
 20
6.148696
 30
0.000000
 11
13.517325
 21
6.256950
 31
0.000000
  0
LINE
  8
0
 62
     7
  6
CONTINUOUS
 10
13.579825
 20
6.148696
 30
0.000000
 11
13.642325
 21
6.256950
 31
0.000000
  0
LINE
  8
0
 62
     7
  6
CONTINUOUS
 10
13.579825
 20
8.397236
 30
0.000000
 11
13.642325
 21
8.288983
 31
0.000000
  0
LINE
  8
0
 62
     7
  6
CONTINUOUS
 10
13.579825
 20
8.397236
 30
0.000000
 11
13.517325
 21
8.288983
 31
0.000000
  0
LINE
  8
0
 62
     7
  6
CONTINUOUS
 10
13.080549
 20
6.148696
 30
0.000000
 11
13.829825
 21
6.148696
 31
0.000000
  0
LINE
  8
0
 62
     7
  6
CONTINUOUS
 10
13.080549
 20
8.397236
 30
0.000000
 11
13.829825
 21
8.397236
 31
0.000000
  0
TEXT
  8
0
 62
     7
 10
13.204305
 20
7.041627
 30
0.000000
 40
0.125000
  1
2 1/4"
  0
LINE
  8
0
 62
     7
  6
CONTINUOUS
 10
13.579825
 20
6.148696
 30
0.000000
 11
13.579825
 21
7.010377
 31
0.000000
  0
LINE
  8
0
 62
     7
  6
CONTINUOUS
 10
13.579825
 20
7.198050
 30
0.000000
 11
13.579825
 21
8.397236
 31
0.000000
  0
POINT
  8
PARTS
 62
     7
 10
7.219281
 20
7.272235
 30
0.000000
  0
POINT
  8
0
 62
     7
 10
7.219281
 20
7.272235
 30
0.000000
  0
POINT
  8
0
 62
     7
 10
7.219281
 20
7.272235
 30
0.000000
  0
LINE
  8
0
 62
     7
  6
CONTINUOUS
 10
7.219281
 20
7.272235
 30
0.000000
 11
7.219281
 21
6.459735
 31
0.000000
  0
POINT
  8
0
 62
     7
 10
8.344602
 20
7.975343
 30
0.000000
  0
POINT
  8
0
 62
     7
 10
8.344602
 20
7.975343
 30
0.000000
  0
POINT
  8
0
 62
     7
 10
8.344609
 20
7.975343
 30
0.000000
  0
POINT
  8
0
 62
     7
 10
8.344609
 20
7.975343
 30
0.000000
  0
POINT
  8
0
 62
     7
 10
7.218140
 20
7.976263
 30
0.000000
  0
POINT
  8
0
 62
     7
 10
7.343140
 20
7.976263
 30
0.000000
  0
POINT
  8
0
 62
     7
 10
7.468140
 20
7.976263
 30
0.000000
  0
POINT
  8
0
 62
     7
 10
7.468140
 20
7.976263
 30
0.000000
  0
LINE
  8
0
 62
     7
  6
CONTINUOUS
 10
7.343140
 20
7.976263
 30
0.000000
 11
7.343140
 21
8.030962
 31
0.000000
  0
LINE
  8
0
 62
     7
  6
CONTINUOUS
 10
7.343140
 20
7.976263
 30
0.000000
 11
7.343140
 21
7.921563
 31
0.000000
  0
LINE
  8
0
 62
     7
  6
CONTINUOUS
 10
7.468140
 20
7.976263
 30
0.000000
 11
7.468140
 21
8.062649
 31
0.000000
  0
LINE
  8
0
 62
     7
  6
CONTINUOUS
 10
7.468140
 20
7.976263
 30
0.000000
 11
7.468140
 21
7.889877
 31
0.000000
  0
POINT
  8
0
 62
     7
 10
7.718140
 20
7.976263
 30
0.000000
  0
POINT
  8
0
 62
     7
 10
7.593140
 20
7.976263
 30
0.000000
  0
POINT
  8
0
 62
     7
 10
7.593140
 20
7.976263
 30
0.000000
  0
LINE
  8
0
 62
     7
  6
CONTINUOUS
 10
7.593140
 20
7.976263
 30
0.000000
 11
7.593140
 21
8.030962
 31
0.000000
  0
LINE
  8
0
 62
     7
  6
CONTINUOUS
 10
7.593140
 20
7.976263
 30
0.000000
 11
7.593140
 21
7.921563
 31
0.000000
  0
POINT
  8
0
 62
     7
 10
7.843140
 20
7.976263
 30
0.000000
  0
LINE
  8
0
 62
     7
  6
CONTINUOUS
 10
7.843140
 20
7.976263
 30
0.000000
 11
7.843140
 21
8.030962
 31
0.000000
  0
LINE
  8
0
 62
     7
  6
CONTINUOUS
 10
7.843140
 20
7.976263
 30
0.000000
 11
7.843140
 21
7.921563
 31
0.000000
  0
POINT
  8
0
 62
     7
 10
8.093141
 20
7.976263
 30
0.000000
  0
LINE
  8
0
 62
     7
  6
CONTINUOUS
 10
8.093141
 20
7.976263
 30
0.000000
 11
8.093141
 21
8.030962
 31
0.000000
  0
LINE
  8
0
 62
     7
  6
CONTINUOUS
 10
8.093141
 20
7.976263
 30
0.000000
 11
8.093141
 21
7.921563
 31
0.000000
  0
POINT
  8
0
 62
     7
 10
8.343141
 20
7.976263
 30
0.000000
  0
LINE
  8
0
 62
     7
  6
CONTINUOUS
 10
8.343141
 20
7.976263
 30
0.000000
 11
8.343141
 21
8.030962
 31
0.000000
  0
LINE
  8
0
 62
     7
  6
CONTINUOUS
 10
8.343141
 20
7.976263
 30
0.000000
 11
8.343141
 21
7.921563
 31
0.000000
  0
POINT
  8
0
 62
     7
 10
7.718140
 20
7.976263
 30
0.000000
  0
POINT
  8
0
 62
     7
 10
7.718140
 20
7.976263
 30
0.000000
  0
LINE
  8
0
 62
     7
  6
CONTINUOUS
 10
7.718140
 20
7.976263
 30
0.000000
 11
7.718140
 21
8.062649
 31
0.000000
  0
LINE
  8
0
 62
     7
  6
CONTINUOUS
 10
7.718140
 20
7.976263
 30
0.000000
 11
7.718140
 21
7.889877
 31
0.000000
  0
POINT
  8
0
 62
     7
 10
7.968140
 20
7.976263
 30
0.000000
  0
POINT
  8
0
 62
     7
 10
7.968140
 20
7.976263
 30
0.000000
  0
LINE
  8
0
 62
     7
  6
CONTINUOUS
 10
7.968140
 20
7.976263
 30
0.000000
 11
7.968140
 21
8.062649
 31
0.000000
  0
LINE
  8
0
 62
     7
  6
CONTINUOUS
 10
7.968140
 20
7.976263
 30
0.000000
 11
7.968140
 21
7.889877
 31
0.000000
  0
POINT
  8
0
 62
     7
 10
8.218141
 20
7.976263
 30
0.000000
  0
POINT
  8
0
 62
     7
 10
8.218141
 20
7.976263
 30
0.000000
  0
LINE
  8
0
 62
     7
  6
CONTINUOUS
 10
8.218141
 20
7.976263
 30
0.000000
 11
8.218141
 21
8.062649
 31
0.000000
  0
LINE
  8
0
 62
     7
  6
CONTINUOUS
 10
8.218141
 20
7.976263
 30
0.000000
 11
8.218141
 21
7.889877
 31
0.000000
  0
POINT
  8
0
 62
     7
 10
7.219281
 20
7.272235
 30
0.000000
  0
LINE
  8
PARTS
 62
     7
  6
CONTINUOUS
 10
7.219281
 20
8.084736
 30
0.000000
 11
7.219281
 21
7.272235
 31
0.000000
  0
LINE
  8
PARTS
 62
     7
  6
CONTINUOUS
 10
8.469281
 20
6.334735
 30
0.000000
 11
8.469281
 21
6.148696
 31
0.000000
  0
LINE
  8
PARTS
 62
     7
  6
CONTINUOUS
 10
8.469281
 20
8.209736
 30
0.000000
 11
8.469281
 21
8.397236
 31
0.000000
  0
LINE
  8
PARTS
 62
     7
  6
CONTINUOUS
 10
8.469281
 20
6.334735
 30
0.000000
 11
6.969281
 21
6.484735
 31
0.000000
  0
LINE
  8
PARTS
 62
     7
  6
CONTINUOUS
 10
8.469281
 20
8.209736
 30
0.000000
 11
6.969281
 21
8.059734
 31
0.000000
  0
LINE
  8
PARTS
 62
     7
  6
CONTINUOUS
 10
6.969281
 20
7.272235
 30
0.000000
 11
6.969281
 21
6.484735
 31
0.000000
  0
LINE
  8
PARTS
 62
     7
  6
CONTINUOUS
 10
8.469281
 20
8.397236
 30
0.000000
 11
7.344281
 21
8.397236
 31
0.000000
  0
LINE
  8
PARTS
 62
     7
  6
CONTINUOUS
 10
8.469281
 20
6.148696
 30
0.000000
 11
7.344281
 21
6.148696
 31
0.000000
  0
LINE
  8
PARTS
 62
     7
  6
CONTINUOUS
 10
6.156781
 20
8.597235
 30
0.000000
 11
7.344281
 21
8.597235
 31
0.000000
  0
LINE
  8
PARTS
 62
     7
  6
CONTINUOUS
 10
6.156781
 20
5.947236
 30
0.000000
 11
7.344281
 21
5.947236
 31
0.000000
  0
LINE
  8
PARTS
 62
     7
  6
CONTINUOUS
 10
7.344281
 20
8.397236
 30
0.000000
 11
7.344281
 21
8.597235
 31
0.000000
  0
LINE
  8
PARTS
 62
     7
  6
CONTINUOUS
 10
7.344281
 20
6.148696
 30
0.000000
 11
7.344281
 21
5.947236
 31
0.000000
  0
LINE
  8
PARTS
 62
     7
  6
CONTINUOUS
 10
6.156781
 20
7.865985
 30
0.000000
 11
6.219281
 21
7.865985
 31
0.000000
  0
LINE
  8
PARTS
 62
     7
  6
CONTINUOUS
 10
6.156781
 20
6.678485
 30
0.000000
 11
6.219281
 21
6.678485
 31
0.000000
  0
LINE
  8
PARTS
 62
     7
  6
CONTINUOUS
 10
6.219281
 20
6.678485
 30
0.000000
 11
6.219281
 21
7.865985
 31
0.000000
  0
LINE
  8
PARTS
 62
     7
  6
CONTINUOUS
 10
6.156781
 20
7.865985
 30
0.000000
 11
6.156781
 21
8.597235
 31
0.000000
  0
LINE
  8
PARTS
 62
     7
  6
CONTINUOUS
 10
6.156781
 20
6.678485
 30
0.000000
 11
6.156781
 21
5.947236
 31
0.000000
  0
LINE
  8
PARTS
 62
     7
  6
CONTINUOUS
 10
6.969281
 20
6.897235
 30
0.000000
 11
6.219281
 21
6.897235
 31
0.000000
  0
LINE
  8
PARTS
 62
     7
  6
CONTINUOUS
 10
6.969281
 20
7.647235
 30
0.000000
 11
6.219281
 21
7.647235
 31
0.000000
  0
LINE
  8
PARTS
 62
     7
  6
CONTINUOUS
 10
6.156781
 20
6.050235
 30
0.000000
 11
6.906781
 21
6.050235
 31
0.000000
  0
LINE
  8
PARTS
 62
     7
  6
CONTINUOUS
 10
6.906781
 20
6.050235
 30
0.000000
 11
6.906781
 21
6.456235
 31
0.000000
  0
LINE
  8
PARTS
 62
     7
  6
CONTINUOUS
 10
6.906781
 20
6.456235
 30
0.000000
 11
6.156781
 21
6.456235
 31
0.000000
  0
LINE
  8
PARTS
 62
     7
  6
CONTINUOUS
 10
8.469281
 20
7.976263
 30
0.000000
 11
6.004696
 21
7.976263
 31
0.000000
  0
LINE
  8
PARTS
 62
     7
  6
CONTINUOUS
 10
7.219281
 20
7.889393
 30
0.000000
 11
8.469281
 21
7.889393
 31
0.000000
  0
LINE
  8
0
 62
     7
  6
CONTINUOUS
 10
7.219281
 20
8.061293
 30
0.000000
 11
8.469281
 21
8.061293
 31
0.000000
  0
LINE
  8
PARTS
 62
     7
  6
CONTINUOUS
 10
6.969281
 20
7.272235
 30
0.000000
 11
6.969281
 21
8.061293
 31
0.000000
  0
POINT
  8
PARTS
 62
     7
 10
6.156781
 20
7.976263
 30
0.000000
  0
LINE
  8
PARTS
 62
     7
  6
CONTINUOUS
 10
6.156781
 20
8.155962
 30
0.000000
 11
6.531781
 21
8.155962
 31
0.000000
  0
LINE
  8
PARTS
 62
     7
  6
CONTINUOUS
 10
6.531781
 20
8.155962
 30
0.000000
 11
6.531781
 21
7.796563
 31
0.000000
  0
LINE
  8
PARTS
 62
     7
  6
CONTINUOUS
 10
6.531781
 20
7.796563
 30
0.000000
 11
6.219281
 21
7.796563
 31
0.000000
  0
LINE
  8
PARTS
 62
     7
  6
CONTINUOUS
 10
6.970041
 20
7.889393
 30
0.000000
 11
6.531781
 21
7.889393
 31
0.000000
  0
LINE
  8
0
 62
     7
  6
CONTINUOUS
 10
6.531781
 20
8.061293
 30
0.000000
 11
6.969281
 21
8.061293
 31
0.000000
  0
POINT
  8
PARTS
 62
     7
 10
6.219281
 20
7.272235
 30
0.000000
  0
LINE
  8
PARTS
 62
     7
  6
CONTINUOUS
 10
5.862585
 20
6.253235
 30
0.000000
 11
6.967312
 21
6.253235
 31
0.000000
  0
LINE
  8
PARTS
 62
     7
  6
CONTINUOUS
 10
6.166281
 20
8.610735
 30
0.000000
 11
6.323281
 21
8.610735
 31
0.000000
  0
LINE
  8
PARTS
 62
     7
  6
CONTINUOUS
 10
6.166281
 20
5.933735
 30
0.000000
 11
6.323281
 21
5.933735
 31
0.000000
  0
LINE
  8
PARTS
 62
     7
  6
CONTINUOUS
 10
5.531281
 20
12.272236
 30
0.000000
 11
6.363281
 21
12.272236
 31
0.000000
  0
LINE
  8
PARTS
 62
     7
  6
CONTINUOUS
 10
5.531281
 20
2.272235
 30
0.000000
 11
6.363281
 21
2.272235
 31
0.000000
  0
LINE
  8
PARTS
 62
     7
  6
CONTINUOUS
 10
6.363281
 20
2.272235
 30
0.000000
 11
6.363281
 21
3.164235
 31
0.000000
  0
LINE
  8
PARTS
 62
     7
  6
CONTINUOUS
 10
6.363281
 20
12.272236
 30
0.000000
 11
6.363281
 21
11.380236
 31
0.000000
  0
LINE
  8
PARTS
 62
     7
  6
CONTINUOUS
 10
6.080281
 20
5.567693
 30
0.000000
 11
6.323281
 21
5.708735
 31
0.000000
  0
LINE
  8
PARTS
 62
     7
  6
CONTINUOUS
 10
6.080281
 20
3.380256
 30
0.000000
 11
6.363281
 21
3.164235
 31
0.000000
  0
LINE
  8
PARTS
 62
     7
  6
CONTINUOUS
 10
6.080281
 20
5.567693
 30
0.000000
 11
6.080281
 21
3.380256
 31
0.000000
  0
LINE
  8
PARTS
 62
     7
  6
CONTINUOUS
 10
6.080281
 20
11.164213
 30
0.000000
 11
6.363281
 21
11.380236
 31
0.000000
  0
LINE
  8
PARTS
 62
     7
  6
CONTINUOUS
 10
6.080281
 20
8.976778
 30
0.000000
 11
6.323281
 21
8.835735
 31
0.000000
  0
LINE
  8
PARTS
 62
     7
  6
CONTINUOUS
 10
6.080281
 20
8.976778
 30
0.000000
 11
6.080281
 21
11.164213
 31
0.000000
  0
POINT
  8
PARTS
 62
     7
 10
5.846281
 20
7.272235
 30
0.000000
  0
LINE
  8
PARTS
 62
     7
  6
CONTINUOUS
 10
5.846281
 20
8.854235
 30
0.000000
 11
5.846281
 21
5.690236
 31
0.000000
  0
LINE
  8
PARTS
 62
     7
  6
CONTINUOUS
 10
5.661281
 20
9.947235
 30
0.000000
 11
5.531281
 21
9.947235
 31
0.000000
  0
LINE
  8
PARTS
 62
     7
  6
CONTINUOUS
 10
5.846281
 20
8.854235
 30
0.000000
 11
5.661281
 21
8.854235
 31
0.000000
  0
LINE
  8
PARTS
 62
     7
  6
CONTINUOUS
 10
5.846281
 20
5.690236
 30
0.000000
 11
5.661281
 21
5.690236
 31
0.000000
  0
LINE
  8
PARTS
 62
     7
  6
CONTINUOUS
 10
5.661281
 20
4.597235
 30
0.000000
 11
5.531281
 21
4.597235
 31
0.000000
  0
LINE
  8
PARTS
 62
     7
  6
CONTINUOUS
 10
5.531281
 20
4.597235
 30
0.000000
 11
5.531281
 21
2.272235
 31
0.000000
  0
LINE
  8
PARTS
 62
     7
  6
CONTINUOUS
 10
5.531281
 20
9.947235
 30
0.000000
 11
5.531281
 21
12.272236
 31
0.000000
  0
LINE
  8
PARTS
 62
     7
  6
CONTINUOUS
 10
5.661281
 20
8.854235
 30
0.000000
 11
5.661281
 21
9.947235
 31
0.000000
  0
LINE
  8
PARTS
 62
     7
  6
CONTINUOUS
 10
5.661281
 20
5.690236
 30
0.000000
 11
5.661281
 21
4.597235
 31
0.000000
  0
POINT
  8
PARTS
 62
     7
 10
5.846281
 20
7.861235
 30
0.000000
  0
POINT
  8
PARTS
 62
     7
 10
5.846281
 20
6.683236
 30
0.000000
  0
LINE
  8
PARTS
 62
     7
  6
CONTINUOUS
 10
6.219281
 20
6.683236
 30
0.000000
 11
5.846281
 21
6.683236
 31
0.000000
  0
LINE
  8
PARTS
 62
     7
  6
CONTINUOUS
 10
6.219281
 20
7.861235
 30
0.000000
 11
5.846281
 21
7.861235
 31
0.000000
  0
LINE
  8
PARTS
 62
     7
  6
CONTINUOUS
 10
6.219281
 20
7.861235
 30
0.000000
 11
6.219281
 21
6.683236
 31
0.000000
  0
LINE
  8
PARTS
 62
     7
  6
CONTINUOUS
 10
6.166281
 20
7.861235
 30
0.000000
 11
6.166281
 21
8.610735
 31
0.000000
  0
LINE
  8
PARTS
 62
     7
  6
CONTINUOUS
 10
6.166281
 20
6.683236
 30
0.000000
 11
6.166281
 21
5.933735
 31
0.000000
  0
POINT
  8
PARTS
 62
     7
 10
6.219281
 20
7.272235
 30
0.000000
  0
POINT
  8
PARTS
 62
     7
 10
6.561708
 20
6.253235
 30
0.000000
  0
LINE
  8
0
 62
     7
  6
CONTINUOUS
 10
10.270134
 20
6.678485
 30
0.000000
 11
10.207634
 21
6.786739
 31
0.000000
  0
LINE
  8
0
 62
     7
  6
CONTINUOUS
 10
10.270134
 20
6.678485
 30
0.000000
 11
10.332634
 21
6.786739
 31
0.000000
  0
LINE
  8
0
 62
     7
  6
CONTINUOUS
 10
10.270134
 20
7.865985
 30
0.000000
 11
10.332634
 21
7.757732
 31
0.000000
  0
LINE
  8
0
 62
     7
  6
CONTINUOUS
 10
10.270134
 20
7.865985
 30
0.000000
 11
10.207634
 21
7.757732
 31
0.000000
  0
LINE
  8
0
 62
     7
  6
CONTINUOUS
 10
10.643049
 20
6.678485
 30
0.000000
 11
10.020134
 21
6.678485
 31
0.000000
  0
LINE
  8
0
 62
     7
  6
CONTINUOUS
 10
10.643049
 20
7.865985
 30
0.000000
 11
10.020134
 21
7.865985
 31
0.000000
  0
TEXT
  8
0
 62
     7
 10
9.831084
 20
6.964478
 30
0.000000
 40
0.125000
  1
1 3/16"
  0
LINE
  8
0
 62
     7
  6
CONTINUOUS
 10
10.270134
 20
6.678485
 30
0.000000
 11
10.270134
 21
6.933228
 31
0.000000
  0
LINE
  8
0
 62
     7
  6
CONTINUOUS
 10
10.270134
 20
7.121171
 30
0.000000
 11
10.270134
 21
7.865985
 31
0.000000
  0
LINE
  8
0
 62
     7
  6
CONTINUOUS
 10
9.860709
 20
5.947236
 30
0.000000
 11
9.798209
 21
6.055489
 31
0.000000
  0
LINE
  8
0
 62
     7
  6
CONTINUOUS
 10
9.860709
 20
5.947236
 30
0.000000
 11
9.923209
 21
6.055489
 31
0.000000
  0
LINE
  8
0
 62
     7
  6
CONTINUOUS
 10
9.860709
 20
8.597235
 30
0.000000
 11
9.923209
 21
8.488982
 31
0.000000
  0
LINE
  8
0
 62
     7
  6
CONTINUOUS
 10
9.860709
 20
8.597235
 30
0.000000
 11
9.798209
 21
8.488982
 31
0.000000
  0
LINE
  8
0
 62
     7
  6
CONTINUOUS
 10
10.643049
 20
5.947236
 30
0.000000
 11
9.610709
 21
5.947236
 31
0.000000
  0
LINE
  8
0
 62
     7
  6
CONTINUOUS
 10
10.643049
 20
8.597235
 30
0.000000
 11
9.610709
 21
8.597235
 31
0.000000
  0
TEXT
  8
0
 62
     7
 10
9.044146
 20
8.142666
 30
0.000000
 40
0.125000
  1
2.650"
  0
TEXT
  8
0
 62
     7
 10
9.798109
 20
8.236746
 30
0.000000
 40
0.125000
  1
+0.000"
  0
TEXT
  8
0
 62
     7
 10
9.798109
 20
8.048585
 30
0.000000
 40
0.125000
  1
-0.002"
  0
LINE
  8
0
 62
     7
  6
CONTINUOUS
 10
9.860709
 20
5.947236
 30
0.000000
 11
9.860709
 21
8.017368
 31
0.000000
  0
LINE
  8
0
 62
     7
  6
CONTINUOUS
 10
9.860709
 20
8.393624
 30
0.000000
 11
9.860709
 21
8.597235
 31
0.000000
  0
POINT
  8
PARTS
 62
     7
 10
9.219281
 20
7.272235
 30
0.000000
  0
LINE
  8
PARTS
 62
     7
  6
CONTINUOUS
 10
8.469281
 20
7.275743
 30
0.000000
 11
8.469281
 21
7.272235
 31
0.000000
  0
LINE
  8
PARTS
 62
     7
  6
CONTINUOUS
 10
8.469281
 20
7.889393
 30
0.000000
 11
8.469281
 21
8.209736
 31
0.000000
  0
LINE
  8
0
 62
     7
  6
CONTINUOUS
 10
10.844281
 20
3.272235
 30
0.000000
 11
9.219281
 21
3.272235
 31
0.000000
  0
LINE
  8
0
 62
     7
  6
CONTINUOUS
 10
10.844281
 20
11.272236
 30
0.000000
 11
9.219281
 21
11.272236
 31
0.000000
  0
POINT
  8
0
 62
     7
 10
10.844281
 20
7.272235
 30
0.000000
  0
POINT
  8
0
 62
     7
 10
9.219281
 20
7.272235
 30
0.000000
  0
POINT
  8
0
 62
     7
 10
10.844281
 20
7.272235
 30
0.000000
  0
POINT
  8
0
 62
     7
 10
10.844281
 20
7.272235
 30
0.000000
  0
POINT
  8
0
 62
     7
 10
8.625582
 20
7.272235
 30
0.000000
  0
LINE
  8
0
 62
     7
  6
CONTINUOUS
 10
8.625582
 20
7.272235
 30
0.000000
 11
8.625582
 21
10.897236
 31
0.000000
  0
LINE
  8
0
 62
     7
  6
CONTINUOUS
 10
8.625582
 20
10.897236
 30
0.000000
 11
8.625582
 21
3.647235
 31
0.000000
  0
LINE
  8
0
 62
     7
  6
CONTINUOUS
 10
8.625582
 20
10.897236
 30
0.000000
 11
9.219281
 21
11.272236
 31
0.000000
  0
LINE
  8
0
 62
     7
  6
CONTINUOUS
 10
8.625582
 20
3.647235
 30
0.000000
 11
9.219281
 21
3.272235
 31
0.000000
  0
POINT
  8
0
 62
     7
 10
8.625582
 20
7.272235
 30
0.000000
  0
POINT
  8
0
 62
     7
 10
8.625582
 20
7.272235
 30
0.000000
  0
POINT
  8
0
 62
     7
 10
8.625448
 20
5.647975
 30
0.000000
  0
POINT
  8
0
 62
     7
 10
8.625346
 20
8.897337
 30
0.000000
  0
LINE
  8
0
 62
     7
  6
CONTINUOUS
 10
8.625346
 20
8.897337
 30
0.000000
 11
8.500346
 21
8.897337
 31
0.000000
  0
LINE
  8
0
 62
     7
  6
CONTINUOUS
 10
8.625448
 20
5.647975
 30
0.000000
 11
8.500448
 21
5.647975
 31
0.000000
  0
LINE
  8
0
 62
     7
  6
CONTINUOUS
 10
8.500448
 20
5.647975
 30
0.000000
 11
8.500448
 21
8.897337
 31
0.000000
  0
POINT
  8
0
 62
     7
 10
8.625582
 20
7.272235
 30
0.000000
  0
POINT
  8
0
 62
     7
 10
8.625582
 20
7.272235
 30
0.000000
  0
POINT
  8
0
 62
     7
 10
7.255634
 20
7.272248
 30
0.000000
  0
LINE
  8
0
 62
     7
  6
CONTINUOUS
 10
7.255634
 20
7.272248
 30
0.000000
 11
7.255634
 21
7.756598
 31
0.000000
  0
LINE
  8
0
 62
     7
  6
CONTINUOUS
 10
7.255634
 20
7.756598
 30
0.000000
 11
7.255634
 21
6.787898
 31
0.000000
  0
POINT
  8
0
 62
     7
 10
7.255634
 20
7.272248
 30
0.000000
  0
POINT
  8
0
 62
     7
 10
7.318138
 20
7.272235
 30
0.000000
  0
LINE
  8
0
 62
     7
  6
CONTINUOUS
 10
7.318138
 20
7.272235
 30
0.000000
 11
7.318138
 21
7.834735
 31
0.000000
  0
LINE
  8
0
 62
     7
  6
CONTINUOUS
 10
7.318138
 20
7.834735
 30
0.000000
 11
7.318138
 21
6.709735
 31
0.000000
  0
LINE
  8
0
 62
     7
  6
CONTINUOUS
 10
7.318138
 20
6.709735
 30
0.000000
 11
8.499729
 21
6.709735
 31
0.000000
  0
LINE
  8
0
 62
     7
  6
CONTINUOUS
 10
7.318138
 20
7.834735
 30
0.000000
 11
8.499729
 21
7.834735
 31
0.000000
  0
LINE
  8
0
 62
     7
  6
CONTINUOUS
 10
7.318138
 20
7.834735
 30
0.000000
 11
7.255634
 21
7.756598
 31
0.000000
  0
LINE
  8
0
 62
     7
  6
CONTINUOUS
 10
7.255634
 20
6.787898
 30
0.000000
 11
7.318138
 21
6.709735
 31
0.000000
  0
LINE
  8
0
 62
     7
  6
CONTINUOUS
 10
9.219281
 20
8.788338
 30
0.000000
 11
9.219281
 21
11.272236
 31
0.000000
  0
LINE
  8
0
 62
     7
  6
CONTINUOUS
 10
9.219281
 20
7.610200
 30
0.000000
 11
9.219281
 21
3.272235
 31
0.000000
  0
POINT
  8
PARTS
 62
     7
 10
6.656281
 20
7.272235
 30
0.000000
  0
POINT
  8
PARTS
 62
     7
 10
6.656281
 20
13.272236
 30
0.000000
  0
POINT
  8
PARTS
 62
     7
 10
6.656281
 20
13.272236
 30
0.000000
  0
POINT
  8
PARTS
 62
     7
 10
6.656281
 20
4.272235
 30
0.000000
  0
LINE
  8
PARTS
 62
     7
  6
CONTINUOUS
 10
6.656281
 20
4.272235
 30
0.000000
 11
6.656281
 21
1.272235
 31
0.000000
  0
LINE
  8
PARTS
 62
     7
  6
CONTINUOUS
 10
6.656281
 20
13.272236
 30
0.000000
 11
6.656281
 21
10.272236
 31
0.000000
  0
LINE
  8
PARTS
 62
     7
  6
CONTINUOUS
 10
6.656281
 20
13.272236
 30
0.000000
 11
7.281281
 21
13.272236
 31
0.000000
  0
LINE
  8
PARTS
 62
     7
  6
CONTINUOUS
 10
6.656281
 20
1.272235
 30
0.000000
 11
7.281281
 21
1.272235
 31
0.000000
  0
LINE
  8
PARTS
 62
     7
  6
CONTINUOUS
 10
6.656281
 20
4.272235
 30
0.000000
 11
6.656281
 21
5.947236
 31
0.000000
  0
LINE
  8
PARTS
 62
     7
  6
CONTINUOUS
 10
6.656281
 20
10.272236
 30
0.000000
 11
6.656281
 21
8.597235
 31
0.000000
  0
POINT
  8
PARTS
 62
     7
 10
7.281281
 20
11.522236
 30
0.000000
  0
POINT
  8
PARTS
 62
     7
 10
7.281281
 20
3.022235
 30
0.000000
  0
LINE
  8
PARTS
 62
     7
  6
CONTINUOUS
 10
7.281281
 20
1.272235
 30
0.000000
 11
7.281281
 21
3.022235
 31
0.000000
  0
LINE
  8
PARTS
 62
     7
  6
CONTINUOUS
 10
6.656281
 20
10.272236
 30
0.000000
 11
7.093781
 21
10.272236
 31
0.000000
  0
LINE
  8
PARTS
 62
     7
  6
CONTINUOUS
 10
7.281281
 20
13.272236
 30
0.000000
 11
7.281281
 21
11.522236
 31
0.000000
  0
POINT
  8
2
 62
     7
 10
7.093782
 20
7.272235
 30
0.000000
  0
LINE
  8
2
 62
     7
  6
CONTINUOUS
 10
7.713682
 20
11.647236
 30
0.000000
 11
7.401182
 21
11.647236
 31
0.000000
  0
LINE
  8
2
 62
     7
  6
CONTINUOUS
 10
7.401182
 20
11.647236
 30
0.000000
 11
7.281282
 21
11.522236
 31
0.000000
  0
LINE
  8
2
 62
     7
  6
CONTINUOUS
 10
7.713682
 20
2.897235
 30
0.000000
 11
7.401182
 21
2.897235
 31
0.000000
  0
LINE
  8
2
 62
     7
  6
CONTINUOUS
 10
7.401182
 20
2.897235
 30
0.000000
 11
7.281282
 21
3.022235
 31
0.000000
  0
POINT
  8
2
 62
     7
 10
7.093782
 20
7.272235
 30
0.000000
  0
LINE
  8
2
 62
     7
  6
CONTINUOUS
 10
7.093626
 20
10.272785
 30
0.000000
 11
7.406126
 21
10.272785
 31
0.000000
  0
POINT
  8
2
 62
     7
 10
7.093782
 20
7.272235
 30
0.000000
  0
POINT
  8
2
 62
     7
 10
7.093782
 20
3.969567
 30
0.000000
  0
POINT
  8
2
 62
     7
 10
7.093782
 20
3.969567
 30
0.000000
  0
POINT
  8
2
 62
     7
 10
7.093782
 20
3.969567
 30
0.000000
  0
LINE
  8
2
 62
     7
  6
CONTINUOUS
 10
7.713446
 20
8.897337
 30
0.000000
 11
7.588548
 21
8.897337
 31
0.000000
  0
POINT
  8
2
 62
     7
 10
7.713682
 20
7.272235
 30
0.000000
  0
POINT
  8
2
 62
     7
 10
7.713682
 20
7.272235
 30
0.000000
  0
POINT
  8
2
 62
     7
 10
7.713682
 20
7.272235
 30
0.000000
  0
POINT
  8
2
 62
     7
 10
7.713682
 20
7.272235
 30
0.000000
  0
LINE
  8
2
 62
     7
  6
CONTINUOUS
 10
7.588446
 20
8.897337
 30
0.000000
 11
7.406126
 21
8.897337
 31
0.000000
  0
LINE
  8
PARTS
 62
     7
  6
CONTINUOUS
 10
7.713446
 20
8.897337
 30
0.000000
 11
8.500448
 21
8.897337
 31
0.000000
  0
LINE
  8
PARTS
 62
     7
  6
CONTINUOUS
 10
7.713682
 20
2.897235
 30
0.000000
 11
8.625582
 21
2.897235
 31
0.000000
  0
LINE
  8
PARTS
 62
     7
  6
CONTINUOUS
 10
8.625582
 20
3.647235
 30
0.000000
 11
8.625582
 21
2.897235
 31
0.000000
  0
LINE
  8
PARTS
 62
     7
  6
CONTINUOUS
 10
7.713682
 20
11.647236
 30
0.000000
 11
8.625582
 21
11.647236
 31
0.000000
  0
LINE
  8
PARTS
 62
     7
  6
CONTINUOUS
 10
8.625582
 20
10.897236
 30
0.000000
 11
8.625582
 21
11.647236
 31
0.000000
  0
LINE
  8
2
 62
     7
  6
CONTINUOUS
 10
6.803971
 20
3.969567
 30
0.000000
 11
8.625582
 21
3.969567
 31
0.000000
  0
POINT
  8
PARTS
 62
     7
 10
7.156282
 20
11.522236
 30
0.000000
  0
LINE
  8
PARTS
 62
     7
  6
CONTINUOUS
 10
7.156282
 20
11.522236
 30
0.000000
 11
7.156282
 21
10.272785
 31
0.000000
  0
LINE
  8
2
 62
     7
  6
CONTINUOUS
 10
7.156282
 20
11.522236
 30
0.000000
 11
7.281282
 21
11.522236
 31
0.000000
  0
LINE
  8
2
 62
     7
  6
CONTINUOUS
 10
7.156282
 20
11.145185
 30
0.000000
 11
8.625582
 21
11.145185
 31
0.000000
  0
LINE
  8
2
 62
     7
  6
CONTINUOUS
 10
7.156282
 20
10.645185
 30
0.000000
 11
8.625582
 21
10.645185
 31
0.000000
  0
LINE
  8
PARTS
 62
     7
  6
CONTINUOUS
 10
7.156282
 20
10.272785
 30
0.000000
 11
7.156282
 21
8.597235
 31
0.000000
  0
POINT
  8
2
 62
     7
 10
7.155467
 20
10.895185
 30
0.000000
  0
POINT
  8
2
 62
     7
 10
7.155050
 20
11.145185
 30
0.000000
  0
POINT
  8
2
 62
     7
 10
7.155467
 20
10.895185
 30
0.000000
  0
POINT
  8
2
 62
     7
 10
7.154938
 20
10.645185
 30
0.000000
  0
POINT
  8
2
 62
     7
 10
7.155467
 20
10.895185
 30
0.000000
  0
POINT
  8
2
 62
     7
 10
7.217964
 20
10.894543
 30
0.000000
  0
POINT
  8
2
 62
     7
 10
7.217964
 20
10.894543
 30
0.000000
  0
POINT
  8
2
 62
     7
 10
7.280455
 20
10.893484
 30
0.000000
  0
POINT
  8
2
 62
     7
 10
7.280455
 20
10.894543
 30
0.000000
  0
POINT
  8
2
 62
     7
 10
7.342947
 20
10.894543
 30
0.000000
  0
POINT
  8
2
 62
     7
 10
7.405438
 20
10.894543
 30
0.000000
  0
POINT
  8
2
 62
     7
 10
7.467929
 20
10.894543
 30
0.000000
  0
POINT
  8
2
 62
     7
 10
7.530421
 20
10.894543
 30
0.000000
  0
POINT
  8
2
 62
     7
 10
7.592912
 20
10.894543
 30
0.000000
  0
POINT
  8
2
 62
     7
 10
7.655404
 20
10.894543
 30
0.000000
  0
POINT
  8
2
 62
     7
 10
7.717895
 20
10.894543
 30
0.000000
  0
LINE
  8
2
 62
     7
  6
CONTINUOUS
 10
7.217964
 20
10.894543
 30
0.000000
 11
7.217964
 21
11.145121
 31
0.000000
  0
LINE
  8
2
 62
     7
  6
CONTINUOUS
 10
7.217964
 20
10.894543
 30
0.000000
 11
7.217964
 21
10.652678
 31
0.000000
  0
LINE
  8
2
 62
     7
  6
CONTINUOUS
 10
7.280455
 20
10.894543
 30
0.000000
 11
7.280455
 21
11.105543
 31
0.000000
  0
LINE
  8
2
 62
     7
  6
CONTINUOUS
 10
7.280455
 20
10.893484
 30
0.000000
 11
7.280455
 21
10.682484
 31
0.000000
  0
POINT
  8
2
 62
     7
 10
7.342947
 20
10.894543
 30
0.000000
  0
POINT
  8
2
 62
     7
 10
7.342947
 20
10.894543
 30
0.000000
  0
LINE
  8
2
 62
     7
  6
CONTINUOUS
 10
7.342947
 20
10.894543
 30
0.000000
 11
7.342947
 21
11.145121
 31
0.000000
  0
LINE
  8
2
 62
     7
  6
CONTINUOUS
 10
7.342947
 20
10.894543
 30
0.000000
 11
7.342947
 21
10.652678
 31
0.000000
  0
POINT
  8
2
 62
     7
 10
7.467929
 20
10.894543
 30
0.000000
  0
POINT
  8
2
 62
     7
 10
7.467929
 20
10.894543
 30
0.000000
  0
LINE
  8
2
 62
     7
  6
CONTINUOUS
 10
7.467929
 20
10.894543
 30
0.000000
 11
7.467929
 21
11.145121
 31
0.000000
  0
LINE
  8
2
 62
     7
  6
CONTINUOUS
 10
7.467929
 20
10.894543
 30
0.000000
 11
7.467929
 21
10.652678
 31
0.000000
  0
POINT
  8
2
 62
     7
 10
7.592912
 20
10.894543
 30
0.000000
  0
POINT
  8
2
 62
     7
 10
7.592912
 20
10.894543
 30
0.000000
  0
LINE
  8
2
 62
     7
  6
CONTINUOUS
 10
7.592912
 20
10.894543
 30
0.000000
 11
7.592912
 21
11.145121
 31
0.000000
  0
LINE
  8
2
 62
     7
  6
CONTINUOUS
 10
7.592912
 20
10.894543
 30
0.000000
 11
7.592912
 21
10.652678
 31
0.000000
  0
POINT
  8
2
 62
     7
 10
7.717895
 20
10.894543
 30
0.000000
  0
POINT
  8
2
 62
     7
 10
7.717895
 20
10.894543
 30
0.000000
  0
LINE
  8
2
 62
     7
  6
CONTINUOUS
 10
7.717895
 20
10.894543
 30
0.000000
 11
7.717895
 21
11.145121
 31
0.000000
  0
LINE
  8
2
 62
     7
  6
CONTINUOUS
 10
7.717895
 20
10.894543
 30
0.000000
 11
7.717895
 21
10.652678
 31
0.000000
  0
POINT
  8
2
 62
     7
 10
7.405438
 20
10.893484
 30
0.000000
  0
POINT
  8
2
 62
     7
 10
7.405438
 20
10.894543
 30
0.000000
  0
LINE
  8
2
 62
     7
  6
CONTINUOUS
 10
7.405438
 20
10.894543
 30
0.000000
 11
7.405438
 21
11.105543
 31
0.000000
  0
LINE
  8
2
 62
     7
  6
CONTINUOUS
 10
7.405438
 20
10.893484
 30
0.000000
 11
7.405438
 21
10.682484
 31
0.000000
  0
POINT
  8
2
 62
     7
 10
7.530421
 20
10.893484
 30
0.000000
  0
POINT
  8
2
 62
     7
 10
7.530421
 20
10.894543
 30
0.000000
  0
LINE
  8
2
 62
     7
  6
CONTINUOUS
 10
7.530421
 20
10.894543
 30
0.000000
 11
7.530421
 21
11.105543
 31
0.000000
  0
LINE
  8
2
 62
     7
  6
CONTINUOUS
 10
7.530421
 20
10.893484
 30
0.000000
 11
7.530421
 21
10.682484
 31
0.000000
  0
POINT
  8
2
 62
     7
 10
7.655404
 20
10.893484
 30
0.000000
  0
POINT
  8
2
 62
     7
 10
7.655404
 20
10.894543
 30
0.000000
  0
LINE
  8
2
 62
     7
  6
CONTINUOUS
 10
7.655404
 20
10.894543
 30
0.000000
 11
7.655404
 21
11.105543
 31
0.000000
  0
LINE
  8
2
 62
     7
  6
CONTINUOUS
 10
7.655404
 20
10.893484
 30
0.000000
 11
7.655404
 21
10.682484
 31
0.000000
  0
POINT
  8
PARTS
 62
     7
 10
7.779894
 20
10.894543
 30
0.000000
  0
POINT
  8
PARTS
 62
     7
 10
7.842394
 20
10.894543
 30
0.000000
  0
POINT
  8
2
 62
     7
 10
7.779894
 20
10.894543
 30
0.000000
  0
POINT
  8
2
 62
     7
 10
7.779894
 20
10.893484
 30
0.000000
  0
POINT
  8
2
 62
     7
 10
7.779894
 20
10.894543
 30
0.000000
  0
LINE
  8
2
 62
     7
  6
CONTINUOUS
 10
7.779894
 20
10.894543
 30
0.000000
 11
7.779894
 21
11.105543
 31
0.000000
  0
LINE
  8
2
 62
     7
  6
CONTINUOUS
 10
7.779894
 20
10.893484
 30
0.000000
 11
7.779894
 21
10.682484
 31
0.000000
  0
POINT
  8
2
 62
     7
 10
7.904386
 20
10.893484
 30
0.000000
  0
POINT
  8
2
 62
     7
 10
7.842394
 20
10.894543
 30
0.000000
  0
POINT
  8
2
 62
     7
 10
7.842394
 20
10.894543
 30
0.000000
  0
POINT
  8
2
 62
     7
 10
7.842394
 20
10.894543
 30
0.000000
  0
LINE
  8
2
 62
     7
  6
CONTINUOUS
 10
7.842394
 20
10.894543
 30
0.000000
 11
7.842394
 21
11.145121
 31
0.000000
  0
LINE
  8
2
 62
     7
  6
CONTINUOUS
 10
7.842394
 20
10.894543
 30
0.000000
 11
7.842394
 21
10.652678
 31
0.000000
  0
POINT
  8
PARTS
 62
     7
 10
7.156282
 20
3.022235
 30
0.000000
  0
LINE
  8
PARTS
 62
     7
  6
CONTINUOUS
 10
7.156282
 20
3.022235
 30
0.000000
 11
7.156282
 21
3.672676
 31
0.000000
  0
LINE
  8
PARTS
 62
     7
  6
CONTINUOUS
 10
7.156282
 20
3.672676
 30
0.000000
 11
7.531282
 21
3.672676
 31
0.000000
  0
LINE
  8
PARTS
 62
     7
  6
CONTINUOUS
 10
7.531282
 20
3.672676
 30
0.000000
 11
7.531282
 21
4.297676
 31
0.000000
  0
LINE
  8
PARTS
 62
     7
  6
CONTINUOUS
 10
7.156282
 20
3.672676
 30
0.000000
 11
7.156282
 21
4.297676
 31
0.000000
  0
LINE
  8
PARTS
 62
     7
  6
CONTINUOUS
 10
7.531282
 20
4.297676
 30
0.000000
 11
7.156282
 21
4.297676
 31
0.000000
  0
LINE
  8
PARTS
 62
     7
  6
CONTINUOUS
 10
7.156282
 20
4.297676
 30
0.000000
 11
7.156282
 21
5.947236
 31
0.000000
  0
LINE
  8
PARTS
 62
     7
  6
CONTINUOUS
 10
6.656281
 20
4.272235
 30
0.000000
 11
7.156282
 21
4.272235
 31
0.000000
  0
LINE
  8
PARTS
 62
     7
  6
CONTINUOUS
 10
7.156282
 20
3.022235
 30
0.000000
 11
7.281282
 21
3.022235
 31
0.000000
  0
LINE
  8
PARTS
 62
     7
  6
CONTINUOUS
 10
8.500448
 20
5.647320
 30
0.000000
 11
7.406284
 21
5.647320
 31
0.000000
  0
LINE
  8
PARTS
 62
     7
  6
CONTINUOUS
 10
8.625582
 20
3.764628
 30
0.000000
 11
7.531282
 21
3.764628
 31
0.000000
  0
LINE
  8
PARTS
 62
     7
  6
CONTINUOUS
 10
8.625582
 20
4.170777
 30
0.000000
 11
7.531282
 21
4.170777
 31
0.000000
  0
POINT
  8
PARTS
 62
     7
 10
7.531282
 20
4.297676
 30
0.000000
  0
LINE
  8
PARTS
 62
     7
  6
CONTINUOUS
 10
7.406284
 20
5.647320
 30
0.000000
 11
7.406284
 21
6.148696
 31
0.000000
  0
LINE
  8
PARTS
 62
     7
  6
CONTINUOUS
 10
7.406126
 20
8.897337
 30
0.000000
 11
7.406126
 21
8.397236
 31
0.000000
  0
CIRCLE
  8
PARTS
 62
     7
  6
CONTINUOUS
 10
3.346282
 20
7.272235
 30
0.000000
 40
1.324999
  0
POINT
  8
PARTS
 62
     7
 10
3.346282
 20
7.272235
 30
0.000000
  0
CIRCLE
  8
PARTS
 62
     7
  6
CONTINUOUS
 10
3.346282
 20
7.272235
 30
0.000000
 40
0.375000
  0
CIRCLE
  8
0
 62
     7
  6
CONTINUOUS
 10
3.346282
 20
7.272235
 30
0.000000
 40
0.703000
  0
CIRCLE
  8
0
 62
     7
  6
CONTINUOUS
 10
4.049282
 20
7.272235
 30
0.000000
 40
0.101550
  0
CIRCLE
  8
0
 62
     7
  6
CONTINUOUS
 10
4.049282
 20
7.272235
 30
0.000000
 40
0.179700
  0
CIRCLE
  8
0
 62
     7
  6
CONTINUOUS
 10
3.697781
 20
7.881052
 30
0.000000
 40
0.101550
  0
CIRCLE
  8
0
 62
     7
  6
CONTINUOUS
 10
3.697781
 20
7.881052
 30
0.000000
 40
0.179700
  0
CIRCLE
  8
0
 62
     7
  6
CONTINUOUS
 10
2.994781
 20
7.881051
 30
0.000000
 40
0.101550
  0
CIRCLE
  8
0
 62
     7
  6
CONTINUOUS
 10
2.994781
 20
7.881051
 30
0.000000
 40
0.179700
  0
CIRCLE
  8
0
 62
     7
  6
CONTINUOUS
 10
2.643281
 20
7.272234
 30
0.000000
 40
0.101550
  0
CIRCLE
  8
0
 62
     7
  6
CONTINUOUS
 10
2.643281
 20
7.272234
 30
0.000000
 40
0.179700
  0
CIRCLE
  8
0
 62
     7
  6
CONTINUOUS
 10
2.994782
 20
6.663419
 30
0.000000
 40
0.101550
  0
CIRCLE
  8
0
 62
     7
  6
CONTINUOUS
 10
2.994782
 20
6.663419
 30
0.000000
 40
0.179700
  0
CIRCLE
  8
0
 62
     7
  6
CONTINUOUS
 10
3.697782
 20
6.663419
 30
0.000000
 40
0.101550
  0
CIRCLE
  8
0
 62
     7
  6
CONTINUOUS
 10
3.697782
 20
6.663419
 30
0.000000
 40
0.179700
  0
ARC
  8
3
 62
     7
  6
CONTINUOUS
 10
3.346281
 20
7.272235
 30
0.000000
 40
3.000001
 50
42.791784
 51
139.730184
  0
ARC
  8
3
 62
     7
  6
CONTINUOUS
 10
3.346281
 20
7.272233
 30
0.000000
 40
2.999999
 50
222.592501
 51
317.391366
  0
ARC
  8
3
 62
     7
  6
CONTINUOUS
 10
3.346282
 20
7.272235
 30
0.000000
 40
3.625001
 50
53.932650
 51
125.758351
  0
ARC
  8
3
 62
     7
  6
CONTINUOUS
 10
3.346281
 20
7.272234
 30
0.000000
 40
3.625000
 50
235.094510
 51
306.691896
  0
POINT
  8
3
 62
     7
 10
3.346281
 20
10.897236
 30
0.000000
  0
CIRCLE
  8
3
 62
     7
  6
CONTINUOUS
 10
3.346281
 20
10.897236
 30
0.000000
 40
0.375000
  0
CIRCLE
  8
3
 62
     7
  6
CONTINUOUS
 10
3.346281
 20
10.897236
 30
0.000000
 40
0.265600
  0
LINE
  8
3
 62
     7
  6
CONTINUOUS
 10
3.346282
 20
11.680902
 30
0.000000
 11
3.346282
 21
9.932104
 31
0.000000
  0
POINT
  8
3
 62
     7
 10
3.346282
 20
3.647235
 30
0.000000
  0
CIRCLE
  8
3
 62
     7
  6
CONTINUOUS
 10
3.346282
 20
3.647235
 30
0.000000
 40
0.375000
  0
CIRCLE
  8
3
 62
     7
  6
CONTINUOUS
 10
3.346282
 20
3.647235
 30
0.000000
 40
0.265600
  0
LINE
  8
3
 62
     7
  6
CONTINUOUS
 10
3.346282
 20
3.325533
 30
0.000000
 11
3.346282
 21
4.491398
 31
0.000000
  0
POINT
  8
3
 62
     7
 10
3.346282
 20
7.272235
 30
0.000000
  0
POINT
  8
3
 62
     7
 10
3.346282
 20
7.272235
 30
0.000000
  0
POINT
  8
3
 62
     7
 10
3.346282
 20
7.272235
 30
0.000000
  0
ARC
  8
PARTS
 62
     7
  6
CONTINUOUS
 10
3.346280
 20
7.272230
 30
0.000000
 40
4.250004
 50
63.781446
 51
122.444778
  0
ARC
  8
PARTS
 62
     7
  6
CONTINUOUS
 10
3.346281
 20
7.272233
 30
0.000000
 40
4.249999
 50
240.372571
 51
296.628129
  0
CIRCLE
  8
PARTS
 62
     7
  6
CONTINUOUS
 10
3.346282
 20
7.272235
 30
0.000000
 40
1.019000
  0
LINE
  8
PARTS
 62
     7
  6
CONTINUOUS
 10
3.346282
 20
13.675838
 30
0.000000
 11
3.346282
 21
1.589682
 31
0.000000
  0
CIRCLE
  8
PARTS
 62
     7
  6
CONTINUOUS
 10
3.346282
 20
8.291235
 30
0.000000
 40
0.171850
  0
CIRCLE
  8
PARTS
 62
     7
  6
CONTINUOUS
 10
2.463801
 20
7.781735
 30
0.000000
 40
0.171850
  0
CIRCLE
  8
PARTS
 62
     7
  6
CONTINUOUS
 10
2.463801
 20
6.762735
 30
0.000000
 40
0.171850
  0
CIRCLE
  8
PARTS
 62
     7
  6
CONTINUOUS
 10
3.346282
 20
6.253235
 30
0.000000
 40
0.171850
  0
CIRCLE
  8
PARTS
 62
     7
  6
CONTINUOUS
 10
4.228761
 20
6.762735
 30
0.000000
 40
0.171850
  0
CIRCLE
  8
PARTS
 62
     7
  6
CONTINUOUS
 10
4.228761
 20
7.781735
 30
0.000000
 40
0.171850
  0
POINT
  8
PARTS
 62
     7
 10
6.656281
 20
10.272236
 30
0.000000
  0
LINE
  8
PARTS
 62
     7
  6
CONTINUOUS
 10
6.656281
 20
11.271986
 30
0.000000
 11
6.906281
 21
11.271986
 31
0.000000
  0
POINT
  8
PARTS
 62
     7
 10
6.656281
 20
10.521986
 30
0.000000
  0
LINE
  8
PARTS
 62
     7
  6
CONTINUOUS
 10
6.656281
 20
10.521986
 30
0.000000
 11
6.906281
 21
10.521986
 31
0.000000
  0
LINE
  8
PARTS
 62
     7
  6
CONTINUOUS
 10
6.906281
 20
10.521986
 30
0.000000
 11
6.906281
 21
11.271986
 31
0.000000
  0
LINE
  8
PARTS
 62
     7
  6
CONTINUOUS
 10
7.155050
 20
11.145185
 30
0.000000
 11
6.906281
 21
11.145185
 31
0.000000
  0
LINE
  8
PARTS
 62
     7
  6
CONTINUOUS
 10
7.154938
 20
10.645185
 30
0.000000
 11
6.906281
 21
10.645185
 31
0.000000
  0
LINE
  8
PARTS
 62
     7
  6
CONTINUOUS
 10
8.338866
 20
10.895185
 30
0.000000
 11
6.417716
 21
10.895185
 31
0.000000
  0
POINT
  8
PARTS
 62
     7
 10
7.966304
 20
10.895185
 30
0.000000
  0
POINT
  8
PARTS
 62
     7
 10
7.966304
 20
10.895185
 30
0.000000
  0
POINT
  8
2
 62
     7
 10
7.966304
 20
10.895185
 30
0.000000
  0
POINT
  8
2
 62
     7
 10
7.966304
 20
10.895185
 30
0.000000
  0
POINT
  8
2
 62
     7
 10
7.966304
 20
10.895185
 30
0.000000
  0
LINE
  8
2
 62
     7
  6
CONTINUOUS
 10
7.966304
 20
10.895185
 30
0.000000
 11
7.966304
 21
11.145761
 31
0.000000
  0
LINE
  8
2
 62
     7
  6
CONTINUOUS
 10
7.966304
 20
10.895185
 30
0.000000
 11
7.966304
 21
10.653320
 31
0.000000
  0
POINT
  8
PARTS
 62
     7
 10
8.090215
 20
10.895185
 30
0.000000
  0
POINT
  8
2
 62
     7
 10
8.090215
 20
10.895185
 30
0.000000
  0
POINT
  8
2
 62
     7
 10
8.090215
 20
10.895185
 30
0.000000
  0
POINT
  8
2
 62
     7
 10
8.090215
 20
10.895185
 30
0.000000
  0
LINE
  8
2
 62
     7
  6
CONTINUOUS
 10
8.090215
 20
10.895185
 30
0.000000
 11
8.090215
 21
11.145761
 31
0.000000
  0
LINE
  8
2
 62
     7
  6
CONTINUOUS
 10
8.090215
 20
10.895185
 30
0.000000
 11
8.090215
 21
10.653320
 31
0.000000
  0
POINT
  8
PARTS
 62
     7
 10
8.214125
 20
10.895185
 30
0.000000
  0
POINT
  8
2
 62
     7
 10
8.214125
 20
10.895185
 30
0.000000
  0
POINT
  8
2
 62
     7
 10
8.214125
 20
10.895185
 30
0.000000
  0
POINT
  8
2
 62
     7
 10
8.214125
 20
10.895185
 30
0.000000
  0
LINE
  8
2
 62
     7
  6
CONTINUOUS
 10
8.214125
 20
10.895185
 30
0.000000
 11
8.214125
 21
11.145761
 31
0.000000
  0
LINE
  8
2
 62
     7
  6
CONTINUOUS
 10
8.214125
 20
10.895185
 30
0.000000
 11
8.214125
 21
10.653320
 31
0.000000
  0
LINE
  8
2
 62
     7
  6
CONTINUOUS
 10
8.156547
 20
10.895185
 30
0.000000
 11
8.156547
 21
10.684433
 31
0.000000
  0
LINE
  8
2
 62
     7
  6
CONTINUOUS
 10
8.282626
 20
10.895185
 30
0.000000
 11
8.282626
 21
10.685408
 31
0.000000
  0
LINE
  8
2
 62
     7
  6
CONTINUOUS
 10
8.282626
 20
11.108467
 30
0.000000
 11
8.282626
 21
10.895185
 31
0.000000
  0
LINE
  8
2
 62
     7
  6
CONTINUOUS
 10
8.156547
 20
11.107492
 30
0.000000
 11
8.156547
 21
10.895185
 31
0.000000
  0
LINE
  8
2
 62
     7
  6
CONTINUOUS
 10
8.030466
 20
10.683458
 30
0.000000
 11
8.030466
 21
10.895185
 31
0.000000
  0
LINE
  8
2
 62
     7
  6
CONTINUOUS
 10
8.030466
 20
11.106518
 30
0.000000
 11
8.030466
 21
10.895185
 31
0.000000
  0
LINE
  8
2
 62
     7
  6
CONTINUOUS
 10
7.904386
 20
10.895185
 30
0.000000
 11
7.904386
 21
11.105543
 31
0.000000
  0
LINE
  8
2
 62
     7
  6
CONTINUOUS
 10
7.904386
 20
10.682484
 30
0.000000
 11
7.904386
 21
10.895185
 31
0.000000
  0
LINE
  8
0
 62
     7
  6
CONTINUOUS
 10
10.705549
 20
5.578194
 30
0.000000
 11
10.813802
 21
5.640694
 31
0.000000
  0
LINE
  8
0
 62
     7
  6
CONTINUOUS
 10
10.705549
 20
5.578194
 30
0.000000
 11
10.813802
 21
5.515694
 31
0.000000
  0
LINE
  8
0
 62
     7
  6
CONTINUOUS
 10
11.893049
 20
5.578194
 30
0.000000
 11
11.784796
 21
5.515694
 31
0.000000
  0
LINE
  8
0
 62
     7
  6
CONTINUOUS
 10
11.893049
 20
5.578194
 30
0.000000
 11
11.784796
 21
5.640694
 31
0.000000
  0
LINE
  8
0
 62
     7
  6
CONTINUOUS
 10
10.705549
 20
5.884736
 30
0.000000
 11
10.705549
 21
5.328194
 31
0.000000
  0
LINE
  8
0
 62
     7
  6
CONTINUOUS
 10
11.893049
 20
5.884736
 30
0.000000
 11
11.893049
 21
5.328194
 31
0.000000
  0
TEXT
  8
0
 62
     7
 10
10.860250
 20
5.515473
 30
0.000000
 40
0.125000
  1
1 3/16"
  0
LINE
  8
0
 62
     7
  6
CONTINUOUS
 10
10.705549
 20
5.578194
 30
0.000000
 11
10.828999
 21
5.578194
 31
0.000000
  0
LINE
  8
0
 62
     7
  6
CONTINUOUS
 10
11.769599
 20
5.578194
 30
0.000000
 11
11.893049
 21
5.578194
 31
0.000000
  0
LINE
  8
0
 62
     7
  6
CONTINUOUS
 10
11.894320
 20
6.897235
 30
0.000000
 11
11.831820
 21
7.005489
 31
0.000000
  0
LINE
  8
0
 62
     7
  6
CONTINUOUS
 10
11.894320
 20
6.897235
 30
0.000000
 11
11.956820
 21
7.005489
 31
0.000000
  0
LINE
  8
0
 62
     7
  6
CONTINUOUS
 10
11.894320
 20
7.647235
 30
0.000000
 11
11.956820
 21
7.538982
 31
0.000000
  0
LINE
  8
0
 62
     7
  6
CONTINUOUS
 10
11.894320
 20
7.647235
 30
0.000000
 11
11.831820
 21
7.538982
 31
0.000000
  0
LINE
  8
0
 62
     7
  6
CONTINUOUS
 10
11.580549
 20
6.897235
 30
0.000000
 11
12.144320
 21
6.897235
 31
0.000000
  0
LINE
  8
0
 62
     7
  6
CONTINUOUS
 10
11.580549
 20
7.647235
 30
0.000000
 11
12.144320
 21
7.647235
 31
0.000000
  0
TEXT
  8
0
 62
     7
 10
11.644030
 20
7.351135
 30
0.000000
 40
0.125000
  1
3/4"
  0
LINE
  8
0
 62
     7
  6
CONTINUOUS
 10
11.894320
 20
6.897235
 30
0.000000
 11
11.894320
 21
7.319886
 31
0.000000
  0
LINE
  8
0
 62
     7
  6
CONTINUOUS
 10
11.894320
 20
7.507531
 30
0.000000
 11
11.894320
 21
7.647235
 31
0.000000
  0
LINE
  8
0
 62
     7
  6
CONTINUOUS
 10
10.705549
 20
8.967638
 30
0.000000
 11
10.813802
 21
9.030138
 31
0.000000
  0
LINE
  8
0
 62
     7
  6
CONTINUOUS
 10
10.705549
 20
8.967638
 30
0.000000
 11
10.813802
 21
8.905138
 31
0.000000
  0
LINE
  8
0
 62
     7
  6
CONTINUOUS
 10
13.018551
 20
8.967638
 30
0.000000
 11
12.910298
 21
8.905138
 31
0.000000
  0
LINE
  8
0
 62
     7
  6
CONTINUOUS
 10
13.018551
 20
8.967638
 30
0.000000
 11
12.910298
 21
9.030138
 31
0.000000
  0
LINE
  8
0
 62
     7
  6
CONTINUOUS
 10
10.705549
 20
8.659735
 30
0.000000
 11
10.705549
 21
9.217638
 31
0.000000
  0
LINE
  8
0
 62
     7
  6
CONTINUOUS
 10
13.018551
 20
8.459736
 30
0.000000
 11
13.018551
 21
9.217638
 31
0.000000
  0
TEXT
  8
0
 62
     7
 10
11.422405
 20
8.904832
 30
0.000000
 40
0.125000
  1
2 5/16"
  0
LINE
  8
0
 62
     7
  6
CONTINUOUS
 10
10.705549
 20
8.967638
 30
0.000000
 11
11.391155
 21
8.967638
 31
0.000000
  0
LINE
  8
0
 62
     7
  6
CONTINUOUS
 10
12.332945
 20
8.967638
 30
0.000000
 11
13.018551
 21
8.967638
 31
0.000000
  0
LINE
  8
0
 62
     7
  6
CONTINUOUS
 10
11.893049
 20
5.568407
 30
0.000000
 11
12.001302
 21
5.630907
 31
0.000000
  0
LINE
  8
0
 62
     7
  6
CONTINUOUS
 10
11.893049
 20
5.568407
 30
0.000000
 11
12.001302
 21
5.505907
 31
0.000000
  0
LINE
  8
0
 62
     7
  6
CONTINUOUS
 10
13.018049
 20
5.568407
 30
0.000000
 11
12.909796
 21
5.505907
 31
0.000000
  0
LINE
  8
0
 62
     7
  6
CONTINUOUS
 10
13.018049
 20
5.568407
 30
0.000000
 11
12.909796
 21
5.630907
 31
0.000000
  0
LINE
  8
0
 62
     7
  6
CONTINUOUS
 10
11.893049
 20
5.884736
 30
0.000000
 11
11.893049
 21
5.318407
 31
0.000000
  0
LINE
  8
0
 62
     7
  6
CONTINUOUS
 10
13.018049
 20
6.086196
 30
0.000000
 11
13.018049
 21
5.318407
 31
0.000000
  0
TEXT
  8
0
 62
     7
 10
12.078100
 20
5.505499
 30
0.000000
 40
0.125000
  1
1 1/8"
  0
LINE
  8
0
 62
     7
  6
CONTINUOUS
 10
11.893049
 20
5.568407
 30
0.000000
 11
12.046851
 21
5.568407
 31
0.000000
  0
LINE
  8
0
 62
     7
  6
CONTINUOUS
 10
12.864248
 20
5.568407
 30
0.000000
 11
13.018049
 21
5.568407
 31
0.000000
  0
LINE
  8
0
 62
     7
  6
CONTINUOUS
 10
12.320415
 20
8.146891
 30
0.000000
 11
12.432455
 21
8.091464
 31
0.000000
  0
LINE
  8
0
 62
     7
  6
CONTINUOUS
 10
12.320415
 20
8.146891
 30
0.000000
 11
12.328435
 21
8.022148
 31
0.000000
  0
LINE
  8
0
 62
     7
  6
CONTINUOUS
 10
12.320415
 20
8.146891
 30
0.000000
 11
14.290327
 21
5.190714
 31
0.000000
  0
LINE
  8
0
 62
     7
  6
CONTINUOUS
 10
14.290327
 20
5.190714
 30
0.000000
 11
14.540327
 21
5.190714
 31
0.000000
  0
TEXT
  8
0
 62
     7
 10
14.602827
 20
5.128214
 30
0.000000
 40
0.125000
  1
BORE TO SUIT BUSHING
  0
LINE
  8
0
 62
     7
  6
CONTINUOUS
 10
2.332576
 20
2.753295
 30
0.000000
 11
2.270076
 21
2.753295
 31
0.000000
  0
LINE
  8
0
 62
     7
  6
CONTINUOUS
 10
2.552827
 20
3.735138
 30
0.000000
 11
2.590116
 21
3.615829
 31
0.000000
  0
LINE
  8
0
 62
     7
  6
CONTINUOUS
 10
2.552827
 20
3.735138
 30
0.000000
 11
2.468147
 21
3.643190
 31
0.000000
  0
LINE
  8
0
 62
     7
  6
CONTINUOUS
 10
4.139736
 20
10.809331
 30
0.000000
 11
4.102447
 21
10.928640
 31
0.000000
  0
LINE
  8
0
 62
     7
  6
CONTINUOUS
 10
4.139736
 20
10.809331
 30
0.000000
 11
4.224416
 21
10.901279
 31
0.000000
  0
TEXT
  8
0
 62
     7
 10
1.484862
 20
2.690465
 30
0.000000
 40
0.125000
  1
7.250"
  0
LINE
  8
0
 62
     7
  6
CONTINUOUS
 10
4.139736
 20
10.809331
 30
0.000000
 11
2.332576
 21
2.753295
 31
0.000000
  0
LINE
  8
0
 62
     7
  6
CONTINUOUS
 10
2.237708
 20
3.046182
 30
0.000000
 11
2.175208
 21
3.046182
 31
0.000000
  0
LINE
  8
0
 62
     7
  6
CONTINUOUS
 10
2.585078
 20
4.370413
 30
0.000000
 11
2.618065
 21
4.249844
 31
0.000000
  0
LINE
  8
0
 62
     7
  6
CONTINUOUS
 10
2.585078
 20
4.370413
 30
0.000000
 11
2.497156
 21
4.281560
 31
0.000000
  0
LINE
  8
0
 62
     7
  6
CONTINUOUS
 10
4.107484
 20
10.174058
 30
0.000000
 11
4.074497
 21
10.294627
 31
0.000000
  0
LINE
  8
0
 62
     7
  6
CONTINUOUS
 10
4.107484
 20
10.174058
 30
0.000000
 11
4.195406
 21
10.262910
 31
0.000000
  0
TEXT
  8
0
 62
     7
 10
1.390390
 20
2.983385
 30
0.000000
 40
0.125000
  1
6.000"
  0
LINE
  8
0
 62
     7
  6
CONTINUOUS
 10
4.107484
 20
10.174058
 30
0.000000
 11
2.237708
 21
3.046182
 31
0.000000
  0
LINE
  8
0
 62
     7
  6
CONTINUOUS
 10
2.498595
 20
6.121501
 30
0.000000
 11
2.436095
 21
6.121501
 31
0.000000
  0
LINE
  8
0
 62
     7
  6
CONTINUOUS
 10
2.741915
 20
6.451808
 30
0.000000
 11
2.728031
 21
6.327582
 31
0.000000
  0
LINE
  8
0
 62
     7
  6
CONTINUOUS
 10
2.741915
 20
6.451808
 30
0.000000
 11
2.627389
 21
6.401719
 31
0.000000
  0
LINE
  8
0
 62
     7
  6
CONTINUOUS
 10
3.950648
 20
8.092663
 30
0.000000
 11
3.964532
 21
8.216889
 31
0.000000
  0
LINE
  8
0
 62
     7
  6
CONTINUOUS
 10
3.950648
 20
8.092663
 30
0.000000
 11
4.065174
 21
8.142752
 31
0.000000
  0
TEXT
  8
0
 62
     7
 10
1.648262
 20
6.058453
 30
0.000000
 40
0.125000
  1
2.038"
  0
LINE
  8
0
 62
     7
  6
CONTINUOUS
 10
3.950648
 20
8.092663
 30
0.000000
 11
2.498595
 21
6.121501
 31
0.000000
  0
LINE
  8
0
 62
     7
  6
CONTINUOUS
 10
2.190274
 20
6.414388
 30
0.000000
 11
2.127774
 21
6.414388
 31
0.000000
  0
LINE
  8
0
 62
     7
  6
CONTINUOUS
 10
2.781742
 20
6.853303
 30
0.000000
 11
2.732055
 21
6.738603
 31
0.000000
  0
LINE
  8
0
 62
     7
  6
CONTINUOUS
 10
2.781742
 20
6.853303
 30
0.000000
 11
2.657565
 21
6.838983
 31
0.000000
  0
LINE
  8
0
 62
     7
  6
CONTINUOUS
 10
3.910821
 20
7.691168
 30
0.000000
 11
3.960508
 21
7.805868
 31
0.000000
  0
LINE
  8
0
 62
     7
  6
CONTINUOUS
 10
3.910821
 20
7.691168
 30
0.000000
 11
4.034998
 21
7.705488
 31
0.000000
  0
TEXT
  8
0
 62
     7
 10
1.342956
 20
6.351590
 30
0.000000
 40
0.125000
  1
1.406"
  0
LINE
  8
0
 62
     7
  6
CONTINUOUS
 10
3.910821
 20
7.691168
 30
0.000000
 11
2.190274
 21
6.414388
 31
0.000000
  0
LINE
  8
0
 62
     7
  6
CONTINUOUS
 10
4.256468
 20
5.695751
 30
0.000000
 11
4.318968
 21
5.804005
 31
0.000000
  0
LINE
  8
0
 62
     7
  6
CONTINUOUS
 10
4.256468
 20
5.695751
 30
0.000000
 11
4.381468
 21
5.695752
 31
0.000000
  0
LINE
  8
0
 62
     7
  6
CONTINUOUS
 10
5.166648
 20
7.272238
 30
0.000000
 11
5.229148
 21
7.163985
 31
0.000000
  0
LINE
  8
0
 62
     7
  6
CONTINUOUS
 10
5.166648
 20
7.272238
 30
0.000000
 11
5.104148
 21
7.163985
 31
0.000000
  0
LINE
  8
0
 62
     7
  6
CONTINUOUS
 10
3.729032
 20
6.609293
 30
0.000000
 11
4.381469
 21
5.479245
 31
0.000000
  0
LINE
  8
0
 62
     7
  6
CONTINUOUS
 10
4.111782
 20
7.272236
 30
0.000000
 11
5.416648
 21
7.272239
 31
0.000000
  0
TEXT
  8
0
 62
     7
 10
4.546420
 20
6.299329
 30
0.000000
 40
0.125000
  1
60.00
  0
ARC
  8
0
 62
     7
  6
CONTINUOUS
 10
3.346281
 20
7.272233
 30
0.000000
 40
1.820367
 50
300.000136
 51
326.521652
  0
ARC
  8
0
 62
     7
  6
CONTINUOUS
 10
3.346281
 20
7.272233
 30
0.000000
 40
1.820367
 50
333.360605
 51
360.000155
  0
LINE
  8
0
 62
     7
  6
CONTINUOUS
 10
3.346281
 20
8.939434
 30
0.000000
 11
3.238028
 21
8.876934
 31
0.000000
  0
LINE
  8
0
 62
     7
  6
CONTINUOUS
 10
3.346281
 20
8.939434
 30
0.000000
 11
3.238028
 21
9.001934
 31
0.000000
  0
LINE
  8
0
 62
     7
  6
CONTINUOUS
 10
1.902444
 20
8.105836
 30
0.000000
 11
1.902444
 21
8.230836
 31
0.000000
  0
LINE
  8
0
 62
     7
  6
CONTINUOUS
 10
1.902444
 20
8.105836
 30
0.000000
 11
2.010697
 21
8.168336
 31
0.000000
  0
LINE
  8
0
 62
     7
  6
CONTINUOUS
 10
3.346282
 20
8.353735
 30
0.000000
 11
3.346282
 21
9.189434
 31
0.000000
  0
LINE
  8
0
 62
     7
  6
CONTINUOUS
 10
2.409675
 20
7.812985
 30
0.000000
 11
1.685938
 21
8.230836
 31
0.000000
  0
TEXT
  8
0
 62
     7
 10
2.136333
 20
8.653348
 30
0.000000
 40
0.125000
  1
60.00
  0
ARC
  8
0
 62
     7
  6
CONTINUOUS
 10
3.346281
 20
7.272233
 30
0.000000
 40
1.667201
 50
90.000000
 51
112.721608
  0
ARC
  8
0
 62
     7
  6
CONTINUOUS
 10
3.346281
 20
7.272233
 30
0.000000
 40
1.667201
 50
125.937372
 51
149.999923
  0
LINE
  8
0
 62
     7
  6
CONTINUOUS
 10
3.736548
 20
8.042822
 30
0.000000
 11
3.711086
 21
8.165201
 31
0.000000
  0
LINE
  8
0
 62
     7
  6
CONTINUOUS
 10
3.736548
 20
8.042822
 30
0.000000
 11
3.829800
 21
8.126062
 31
0.000000
  0
LINE
  8
0
 62
     7
  6
CONTINUOUS
 10
3.736548
 20
8.042822
 30
0.000000
 11
4.003152
 21
8.851475
 31
0.000000
  0
LINE
  8
0
 62
     7
  6
CONTINUOUS
 10
4.003152
 20
8.851475
 30
0.000000
 11
4.128152
 21
8.851475
 31
0.000000
  0
TEXT
  8
0
 62
     7
 10
4.190652
 20
8.788975
 30
0.000000
 40
0.125000
  1
SEE NOTE B
  0
LINE
  8
0
 62
     7
  6
CONTINUOUS
 10
4.325883
 20
7.927300
 30
0.000000
 11
4.265845
 21
8.036938
 31
0.000000
  0
LINE
  8
0
 62
     7
  6
CONTINUOUS
 10
4.325883
 20
7.927300
 30
0.000000
 11
4.390813
 21
8.034114
 31
0.000000
  0
LINE
  8
0
 62
     7
  6
CONTINUOUS
 10
4.325883
 20
7.927300
 30
0.000000
 11
4.339915
 21
8.548229
 31
0.000000
  0
LINE
  8
0
 62
     7
  6
CONTINUOUS
 10
4.339915
 20
8.548229
 30
0.000000
 11
4.464915
 21
8.548229
 31
0.000000
  0
TEXT
  8
0
 62
     7
 10
4.527415
 20
8.485729
 30
0.000000
 40
0.125000
  1
SEE NOTE C
  0
LINE
  8
0
 62
     7
  6
CONTINUOUS
 10
3.493767
 20
11.246405
 30
0.000000
 11
3.500168
 21
11.371241
 31
0.000000
  0
LINE
  8
0
 62
     7
  6
CONTINUOUS
 10
3.493767
 20
11.246405
 30
0.000000
 11
3.605079
 21
11.303279
 31
0.000000
  0
LINE
  8
0
 62
     7
  6
CONTINUOUS
 10
3.493767
 20
11.246405
 30
0.000000
 11
3.847991
 21
11.793207
 31
0.000000
  0
LINE
  8
0
 62
     7
  6
CONTINUOUS
 10
3.847991
 20
11.793207
 30
0.000000
 11
3.972991
 21
11.793207
 31
0.000000
  0
TEXT
  8
0
 62
     7
 10
4.035491
 20
11.730707
 30
0.000000
 40
0.125000
  1
SEE NOTE D
  0
LINE
  8
0
 62
     7
  6
CONTINUOUS
 10
3.741474
 20
5.250433
 30
0.000000
 11
3.803974
 21
5.250433
 31
0.000000
  0
LINE
  8
0
 62
     7
  6
CONTINUOUS
 10
3.600463
 20
5.971845
 30
0.000000
 11
3.518357
 21
6.066098
 31
0.000000
  0
LINE
  8
0
 62
     7
  6
CONTINUOUS
 10
3.600463
 20
5.971845
 30
0.000000
 11
3.641036
 21
6.090077
 31
0.000000
  0
LINE
  8
0
 62
     7
  6
CONTINUOUS
 10
3.092100
 20
8.572626
 30
0.000000
 11
3.174206
 21
8.478373
 31
0.000000
  0
LINE
  8
0
 62
     7
  6
CONTINUOUS
 10
3.092100
 20
8.572626
 30
0.000000
 11
3.051528
 21
8.454393
 31
0.000000
  0
TEXT
  8
0
 62
     7
 10
3.835310
 20
5.187603
 30
0.000000
 40
0.125000
  1
2.650"
  0
TEXT
  8
0
 62
     7
 10
4.589273
 20
5.281683
 30
0.000000
 40
0.125000
  1
+.000"
  0
TEXT
  8
0
 62
     7
 10
4.589273
 20
5.093523
 30
0.000000
 40
0.125000
  1
-.002"
  0
LINE
  8
0
 62
     7
  6
CONTINUOUS
 10
3.092100
 20
8.572626
 30
0.000000
 11
3.741474
 21
5.250433
 31
0.000000
  0
LINE
  8
0
 62
     7
  6
CONTINUOUS
 10
14.810332
 20
7.981501
 30
0.000000
 11
14.705656
 21
8.049823
 31
0.000000
  0
LINE
  8
0
 62
     7
  6
CONTINUOUS
 10
14.810332
 20
7.981501
 30
0.000000
 11
14.817163
 21
8.106314
 31
0.000000
  0
LINE
  8
0
 62
     7
  6
CONTINUOUS
 10
14.810332
 20
7.981501
 30
0.000000
 11
14.113939
 21
9.356087
 31
0.000000
  0
LINE
  8
0
 62
     7
  6
CONTINUOUS
 10
14.113939
 20
9.356087
 30
0.000000
 11
14.238939
 21
9.356087
 31
0.000000
  0
TEXT
  8
0
 62
     7
 10
14.301439
 20
9.293587
 30
0.000000
 40
0.125000
  1
SEE NOTE A
  0
LINE
  8
0
 62
     7
  6
CONTINUOUS
 10
5.531281
 20
11.992867
 30
0.000000
 11
5.639534
 21
12.055367
 31
0.000000
  0
LINE
  8
0
 62
     7
  6
CONTINUOUS
 10
5.531281
 20
11.992867
 30
0.000000
 11
5.639534
 21
11.930367
 31
0.000000
  0
LINE
  8
0
 62
     7
  6
CONTINUOUS
 10
6.656281
 20
11.992867
 30
0.000000
 11
6.548028
 21
11.930367
 31
0.000000
  0
LINE
  8
0
 62
     7
  6
CONTINUOUS
 10
6.656281
 20
11.992867
 30
0.000000
 11
6.548028
 21
12.055367
 31
0.000000
  0
LINE
  8
0
 62
     7
  6
CONTINUOUS
 10
5.531281
 20
12.209736
 30
0.000000
 11
5.531281
 21
11.742867
 31
0.000000
  0
LINE
  8
0
 62
     7
  6
CONTINUOUS
 10
6.656281
 20
11.944807
 30
0.000000
 11
6.656281
 21
11.742867
 31
0.000000
  0
TEXT
  8
0
 62
     7
 10
4.528401
 20
11.930060
 30
0.000000
 40
0.125000
  1
1.125"
  0
LINE
  8
0
 62
     7
  6
CONTINUOUS
 10
5.313329
 20
11.992867
 30
0.000000
 11
6.656281
 21
11.992867
 31
0.000000
  0
LINE
  8
0
 62
     7
  6
CONTINUOUS
 10
2.848069
 20
2.464323
 30
0.000000
 11
2.785569
 21
2.464323
 31
0.000000
  0
LINE
  8
0
 62
     7
  6
CONTINUOUS
 10
2.908228
 20
3.044870
 30
0.000000
 11
2.857218
 21
3.158989
 31
0.000000
  0
LINE
  8
0
 62
     7
  6
CONTINUOUS
 10
2.908228
 20
3.044870
 30
0.000000
 11
2.981553
 21
3.146105
 31
0.000000
  0
LINE
  8
0
 62
     7
  6
CONTINUOUS
 10
3.784334
 20
11.499597
 30
0.000000
 11
3.835344
 21
11.385478
 31
0.000000
  0
LINE
  8
0
 62
     7
  6
CONTINUOUS
 10
3.784334
 20
11.499597
 30
0.000000
 11
3.711009
 21
11.398362
 31
0.000000
  0
TEXT
  8
0
 62
     7
 10
1.244083
 20
2.401274
 30
0.000000
 40
0.125000
  1
8.500"
  0
TEXT
  8
0
 62
     7
 10
2.000666
 20
2.495573
 30
0.000000
 40
0.125000
  1
+.000"
  0
TEXT
  8
0
 62
     7
 10
2.000666
 20
2.306976
 30
0.000000
 40
0.125000
  1
-.002"
  0
LINE
  8
0
 62
     7
  6
CONTINUOUS
 10
3.784334
 20
11.499597
 30
0.000000
 11
2.848069
 21
2.464323
 31
0.000000
  0
LINE
  8
0
 62
     7
  6
CONTINUOUS
 10
10.705549
 20
7.511661
 30
0.000000
 11
10.597296
 21
7.449161
 31
0.000000
  0
LINE
  8
0
 62
     7
  6
CONTINUOUS
 10
10.705549
 20
7.511661
 30
0.000000
 11
10.597296
 21
7.574161
 31
0.000000
  0
LINE
  8
0
 62
     7
  6
CONTINUOUS
 10
10.768049
 20
7.511661
 30
0.000000
 11
10.876302
 21
7.574161
 31
0.000000
  0
LINE
  8
0
 62
     7
  6
CONTINUOUS
 10
10.768049
 20
7.511661
 30
0.000000
 11
10.876302
 21
7.449161
 31
0.000000
  0
LINE
  8
0
 62
     7
  6
CONTINUOUS
 10
10.705549
 20
7.803485
 30
0.000000
 11
10.705549
 21
7.261661
 31
0.000000
  0
LINE
  8
0
 62
     7
  6
CONTINUOUS
 10
10.768049
 20
7.584735
 30
0.000000
 11
10.768049
 21
7.261661
 31
0.000000
  0
TEXT
  8
0
 62
     7
 10
11.120293
 20
7.448939
 30
0.000000
 40
0.125000
  1
1/16"
  0
LINE
  8
0
 62
     7
  6
CONTINUOUS
 10
10.705549
 20
7.511661
 30
0.000000
 11
10.455549
 21
7.511661
 31
0.000000
  0
LINE
  8
0
 62
     7
  6
CONTINUOUS
 10
10.768049
 20
7.511661
 30
0.000000
 11
11.018049
 21
7.511661
 31
0.000000
  0
LINE
  8
PARTS
 62
     7
  6
CONTINUOUS
 10
11.518049
 20
7.385838
 30
0.000000
 11
11.518049
 21
7.272235
 31
0.000000
  0
LINE
  8
PARTS
 62
     7
  6
CONTINUOUS
 10
11.518049
 20
7.603141
 30
0.000000
 11
11.518049
 21
8.061293
 31
0.000000
  0
LINE
  8
0
 62
     7
  6
CONTINUOUS
 10
7.156282
 20
11.814001
 30
0.000000
 11
7.264535
 21
11.876501
 31
0.000000
  0
LINE
  8
0
 62
     7
  6
CONTINUOUS
 10
7.156282
 20
11.814001
 30
0.000000
 11
7.264535
 21
11.751501
 31
0.000000
  0
LINE
  8
0
 62
     7
  6
CONTINUOUS
 10
8.625582
 20
11.814001
 30
0.000000
 11
8.517329
 21
11.751501
 31
0.000000
  0
LINE
  8
0
 62
     7
  6
CONTINUOUS
 10
8.625582
 20
11.814001
 30
0.000000
 11
8.517329
 21
11.876501
 31
0.000000
  0
LINE
  8
0
 62
     7
  6
CONTINUOUS
 10
7.156282
 20
11.584736
 30
0.000000
 11
7.156282
 21
12.064001
 31
0.000000
  0
LINE
  8
0
 62
     7
  6
CONTINUOUS
 10
8.625582
 20
11.709736
 30
0.000000
 11
8.625582
 21
12.064001
 31
0.000000
  0
TEXT
  8
0
 62
     7
 10
7.515411
 20
11.751415
 30
0.000000
 40
0.125000
  1
1 1/2"
  0
LINE
  8
0
 62
     7
  6
CONTINUOUS
 10
7.156282
 20
11.814001
 30
0.000000
 11
7.484161
 21
11.814001
 31
0.000000
  0
LINE
  8
0
 62
     7
  6
CONTINUOUS
 10
8.297703
 20
11.814001
 30
0.000000
 11
8.625582
 21
11.814001
 31
0.000000
  0
LINE
  8
0
 62
     7
  6
CONTINUOUS
 10
8.651729
 20
4.641344
 30
0.000000
 11
8.717538
 21
4.747618
 31
0.000000
  0
LINE
  8
0
 62
     7
  6
CONTINUOUS
 10
8.651729
 20
4.641344
 30
0.000000
 11
8.776669
 21
4.637488
 31
0.000000
  0
LINE
  8
0
 62
     7
  6
CONTINUOUS
 10
8.651729
 20
4.641344
 30
0.000000
 11
9.419112
 21
5.053372
 31
0.000000
  0
LINE
  8
0
 62
     7
  6
CONTINUOUS
 10
9.419112
 20
5.053372
 30
0.000000
 11
9.544112
 21
5.053372
 31
0.000000
  0
TEXT
  8
0
 62
     7
 10
9.606612
 20
4.990872
 30
0.000000
 40
0.125000
  1
RING DIAMETERS AS PER PRINT
  0
LINE
  8
0
 62
     7
  6
CONTINUOUS
 10
7.156282
 20
12.032366
 30
0.000000
 11
7.048029
 21
11.969866
 31
0.000000
  0
LINE
  8
0
 62
     7
  6
CONTINUOUS
 10
7.156282
 20
12.032366
 30
0.000000
 11
7.048029
 21
12.094866
 31
0.000000
  0
LINE
  8
0
 62
     7
  6
CONTINUOUS
 10
7.281282
 20
12.032366
 30
0.000000
 11
7.389535
 21
12.094866
 31
0.000000
  0
LINE
  8
0
 62
     7
  6
CONTINUOUS
 10
7.281282
 20
12.032366
 30
0.000000
 11
7.389535
 21
11.969866
 31
0.000000
  0
LINE
  8
0
 62
     7
  6
CONTINUOUS
 10
7.156282
 20
11.584736
 30
0.000000
 11
7.156282
 21
12.282366
 31
0.000000
  0
LINE
  8
0
 62
     7
  6
CONTINUOUS
 10
7.281282
 20
11.584736
 30
0.000000
 11
7.281282
 21
12.282366
 31
0.000000
  0
TEXT
  8
0
 62
     7
 10
7.622262
 20
11.969458
 30
0.000000
 40
0.125000
  1
1/8"
  0
LINE
  8
0
 62
     7
  6
CONTINUOUS
 10
7.156282
 20
12.032366
 30
0.000000
 11
6.906282
 21
12.032366
 31
0.000000
  0
LINE
  8
0
 62
     7
  6
CONTINUOUS
 10
7.281282
 20
12.032366
 30
0.000000
 11
7.531282
 21
12.032366
 31
0.000000
  0
TEXT
  8
0
 62
     7
 10
13.365518
 20
11.892652
 30
0.000000
 40
0.125000
  1
ELECTRO AUTOMOTIVE
  0
TEXT
  8
0
 62
     7
 10
13.365518
 20
11.705153
 30
0.000000
 40
0.125000
  1
P.O. BOX 1113 FELTON CA. 95018-1113
  0
TEXT
  8
0
 62
     7
 10
13.365518
 20
11.517652
 30
0.000000
 40
0.125000
  1
PHONE 408-429-1989 FAX 408-429-1907
  0
TEXT
  8
0
 62
     7
 10
13.365518
 20
11.330153
 30
0.000000
 40
0.125000
  1
DRAWN BY MICHAEL P. BROWN
  0
LINE
  8
0
 62
     7
  6
CONTINUOUS
 10
13.232772
 20
12.130148
 30
0.000000
 11
16.799225
 21
12.130148
 31
0.000000
  0
LINE
  8
0
 62
     7
  6
CONTINUOUS
 10
16.799225
 20
12.130148
 30
0.000000
 11
16.799225
 21
11.230164
 31
0.000000
  0
LINE
  8
0
 62
     7
  6
CONTINUOUS
 10
16.799225
 20
11.230164
 30
0.000000
 11
13.232772
 21
11.230164
 31
0.000000
  0
LINE
  8
0
 62
     7
  6
CONTINUOUS
 10
13.232772
 20
11.230164
 30
0.000000
 11
13.232772
 21
12.130148
 31
0.000000
  0
TEXT
  8
0
 62
     7
 10
13.238629
 20
10.943876
 30
0.000000
 40
0.125000
  1
CHEVY SPRINT /GEO METRO ADAPTOR
  0
TEXT
  8
0
 62
     7
 10
13.238629
 20
10.568876
 30
0.000000
 40
0.125000
  1
FOR USE WITH NON-STANDARD 8" RING
  0
TEXT
  8
0
 62
     7
 10
13.238629
 20
10.756376
 30
0.000000
 40
0.125000
  1
1985 to 1992
  0
TEXT
  8
0
 62
     7
 10
12.932362
 20
4.736264
 30
0.000000
 40
0.125000
  1
NOTE A--DRILL 11/64" THROUGH
  0
TEXT
  8
0
 62
     7
 10
12.932362
 20
4.548764
 30
0.000000
 40
0.125000
  1
BUSHING. INSTALL IN HUB TO LOCATE
  0
TEXT
  8
0
 62
     7
 10
12.932362
 20
4.361395
 30
0.000000
 40
0.125000
  1
HOLES IN HUB, THEN TAP 10-24 1"
  0
TEXT
  8
0
 62
     7
 10
12.932362
 20
4.173895
 30
0.000000
 40
0.125000
  1
DEEP
  0
TEXT
  8
0
 62
     7
 10
12.932362
 20
3.986395
 30
0.000000
 40
0.125000
  1
NOTE B-- DRILL 13/64" COUNTERBORE
  0
TEXT
  8
0
 62
     7
 10
12.932362
 20
3.798895
 30
0.000000
 40
0.125000
  1
23/64" x 3/16" DEEP.
  0
TEXT
  8
0
 62
     7
 10
12.932362
 20
3.611395
 30
0.000000
 40
0.125000
  1
NOTE C--DRILL 11/32" TAP 10-1.25mm 
  0
TEXT
  8
0
 62
     7
 10
12.932362
 20
3.236395
 30
0.000000
 40
0.125000
  1
NOTE D-- DRILL 17/32" COUNTER BORE 
  0
TEXT
  8
0
 62
     7
 10
12.932362
 20
3.048895
 30
0.000000
 40
0.125000
  1
3/4" x 1/4" DEEP
  0
TEXT
  8
0
 62
     7
 10
12.932362
 20
3.423895
 30
0.000000
 40
0.125000
  1
1"DEEP 
  0
ENDSEC
  0
EOF
