  0
SECTION
  2
HEADER
  9
$ACADVER
  1
AC1006
  0
ENDSEC
  0
SECTION
  2
TABLES
  0
TABLE
  2
LTYPE
 70
    25
  0
LTYPE
  2
CONTINUOUS
 70
    64
  3
Solid line
 72
    64
 73
     0
 40
0.000000
  0
LTYPE
  2
DASHDOT
 70
    64
  3
__ . __ . __ . __ . __ . __ . __ . __ . __ . __
 72
    65
 73
     4
 40
1.000000
 49
0.500000
 49
-0.250000
 49
0.000000
 49
-0.250000
  0
LTYPE
  2
DASHED
 70
    64
  3
__ __ __ __ __ __ __ __ __ __ __ __ __ __ __ __
 72
    65
 73
     2
 40
0.750000
 49
0.500000
 49
-0.250000
  0
LTYPE
  2
DIVIDE
 70
    64
  3
____ . . ____ . . ____ . . ____ . . ____ . . __
 72
    65
 73
     6
 40
1.250000
 49
0.500000
 49
-0.250000
 49
0.000000
 49
-0.250000
 49
0.000000
 49
-0.250000
  0
LTYPE
  2
DOT
 70
    64
  3
. . . . . . . . . . . . . . . . . . . . . . . . 
 72
    65
 73
     2
 40
0.250000
 49
0.000000
 49
-0.250000
  0
ENDTAB
  0
ENDSEC
  0
SECTION
  2
ENTITIES
  0
LINE
  8
HUBDETAL
 62
     7
  6
CONTINUOUS
 10
0.000000
 20
6.808461
 30
0.000000
 11
0.000000
 21
-3.950092
 31
0.000000
  0
LINE
  8
HUBDETAL
 62
     7
  6
CONTINUOUS
 10
-2.500000
 20
0.000000
 30
0.000000
 11
14.000000
 21
0.000000
 31
0.000000
  0
CIRCLE
  8
HUBDETAL
 62
     7
  6
CONTINUOUS
 10
0.000000
 20
0.000000
 30
0.000000
 40
1.844000
  0
CIRCLE
  8
HUBDETAL
 62
     7
  6
CONTINUOUS
 10
0.000000
 20
0.000000
 30
0.000000
 40
0.703000
  0
CIRCLE
  8
HUBDETAL
 62
     7
  6
CONTINUOUS
 10
0.703000
 20
0.000000
 30
0.000000
 40
0.101551
  0
CIRCLE
  8
HUBDETAL
 62
     7
  6
CONTINUOUS
 10
0.703000
 20
0.000000
 30
0.000000
 40
0.164000
  0
CIRCLE
  8
HUBDETAL
 62
     7
  6
CONTINUOUS
 10
0.351501
 20
0.608816
 30
0.000000
 40
0.101551
  0
CIRCLE
  8
HUBDETAL
 62
     7
  6
CONTINUOUS
 10
0.351501
 20
0.608816
 30
0.000000
 40
0.164000
  0
CIRCLE
  8
HUBDETAL
 62
     7
  6
CONTINUOUS
 10
-0.351500
 20
0.608816
 30
0.000000
 40
0.101551
  0
CIRCLE
  8
HUBDETAL
 62
     7
  6
CONTINUOUS
 10
-0.351500
 20
0.608816
 30
0.000000
 40
0.163999
  0
CIRCLE
  8
HUBDETAL
 62
     7
  6
CONTINUOUS
 10
-0.703000
 20
0.000002
 30
0.000000
 40
0.101551
  0
CIRCLE
  8
HUBDETAL
 62
     7
  6
CONTINUOUS
 10
-0.703000
 20
0.000002
 30
0.000000
 40
0.164000
  0
CIRCLE
  8
HUBDETAL
 62
     7
  6
CONTINUOUS
 10
-0.351500
 20
-0.608816
 30
0.000000
 40
0.101550
  0
CIRCLE
  8
HUBDETAL
 62
     7
  6
CONTINUOUS
 10
-0.351500
 20
-0.608816
 30
0.000000
 40
0.164000
  0
CIRCLE
  8
HUBDETAL
 62
     7
  6
CONTINUOUS
 10
0.351500
 20
-0.608816
 30
0.000000
 40
0.101551
  0
CIRCLE
  8
HUBDETAL
 62
     7
  6
CONTINUOUS
 10
0.351500
 20
-0.608816
 30
0.000000
 40
0.163999
  0
CIRCLE
  8
HUBDETAL
 62
     7
  6
CONTINUOUS
 10
0.000000
 20
0.000000
 30
0.000000
 40
0.375000
  0
ARC
  8
HUBDETAL
 62
     7
  6
CONTINUOUS
 10
0.000003
 20
-0.000001
 30
0.000000
 40
0.822503
 50
128.470856
 51
171.529034
  0
ARC
  8
HUBDETAL
 62
     7
  6
CONTINUOUS
 10
0.000002
 20
0.000001
 30
0.000000
 40
0.822502
 50
188.470838
 51
231.528998
  0
ARC
  8
HUBDETAL
 62
     7
  6
CONTINUOUS
 10
-0.000000
 20
0.000007
 30
0.000000
 40
0.822507
 50
248.471045
 51
291.528955
  0
ARC
  8
HUBDETAL
 62
     7
  6
CONTINUOUS
 10
-0.000004
 20
0.000002
 30
0.000000
 40
0.822504
 50
308.470910
 51
351.529020
  0
ARC
  8
HUBDETAL
 62
     7
  6
CONTINUOUS
 10
-0.000006
 20
-0.000003
 30
0.000000
 40
0.822506
 50
8.471107
 51
51.528949
  0
ARC
  8
HUBDETAL
 62
     7
  6
CONTINUOUS
 10
0.000000
 20
-0.000009
 30
0.000000
 40
0.822510
 50
68.471079
 51
111.528921
  0
ARC
  8
HUBDETAL
 62
     7
  6
CONTINUOUS
 10
-0.000008
 20
0.000003
 30
0.000000
 40
0.593992
 50
130.880508
 51
169.119166
  0
ARC
  8
HUBDETAL
 62
     7
  6
CONTINUOUS
 10
0.000003
 20
0.000001
 30
0.000000
 40
0.594003
 50
190.880830
 51
229.118851
  0
ARC
  8
HUBDETAL
 62
     7
  6
CONTINUOUS
 10
-0.000000
 20
0.000011
 30
0.000000
 40
0.594011
 50
250.881290
 51
289.118710
  0
ARC
  8
HUBDETAL
 62
     7
  6
CONTINUOUS
 10
0.000005
 20
-0.000001
 30
0.000000
 40
0.593995
 50
310.880626
 51
349.119047
  0
ARC
  8
HUBDETAL
 62
     7
  6
CONTINUOUS
 10
0.000008
 20
0.000003
 30
0.000000
 40
0.593992
 50
10.880834
 51
49.119492
  0
ARC
  8
HUBDETAL
 62
     7
  6
CONTINUOUS
 10
0.000000
 20
-0.000016
 30
0.000000
 40
0.594016
 50
70.881382
 51
109.118618
  0
CIRCLE
  8
HUBDETAL
 62
     7
  6
CONTINUOUS
 10
0.000000
 20
0.000000
 30
0.000000
 40
1.331499
  0
CIRCLE
  8
HUBDETAL
 62
     7
  6
CONTINUOUS
 10
0.000000
 20
1.331499
 30
0.000000
 40
0.174000
  0
CIRCLE
  8
HUBDETAL
 62
     7
  6
CONTINUOUS
 10
-0.941513
 20
0.941513
 30
0.000000
 40
0.174001
  0
CIRCLE
  8
HUBDETAL
 62
     7
  6
CONTINUOUS
 10
-1.331500
 20
0.000000
 30
0.000000
 40
0.174000
  0
CIRCLE
  8
HUBDETAL
 62
     7
  6
CONTINUOUS
 10
-0.941513
 20
-0.941513
 30
0.000000
 40
0.173999
  0
CIRCLE
  8
HUBDETAL
 62
     7
  6
CONTINUOUS
 10
0.000000
 20
-1.331499
 30
0.000000
 40
0.174000
  0
CIRCLE
  8
HUBDETAL
 62
     7
  6
CONTINUOUS
 10
0.941513
 20
-0.941513
 30
0.000000
 40
0.174000
  0
CIRCLE
  8
HUBDETAL
 62
     7
  6
CONTINUOUS
 10
1.331500
 20
0.000000
 30
0.000000
 40
0.174000
  0
CIRCLE
  8
HUBDETAL
 62
     7
  6
CONTINUOUS
 10
0.941513
 20
0.941513
 30
0.000000
 40
0.173999
  0
POINT
  8
HUBDETAL
 62
     7
 10
10.007211
 20
-0.000013
 30
0.000000
  0
POINT
  8
HUBDETAL
 62
     7
 10
10.337211
 20
0.000000
 30
0.000000
  0
LINE
  8
HUBDETAL
 62
     7
  6
CONTINUOUS
 10
10.337211
 20
-1.834484
 30
0.000000
 11
10.900211
 21
-1.834484
 31
0.000000
  0
LINE
  8
HUBDETAL
 62
     7
  6
CONTINUOUS
 10
10.900211
 20
1.853516
 30
0.000000
 11
10.337211
 21
1.853516
 31
0.000000
  0
LINE
  8
HUBDETAL
 62
     7
  6
CONTINUOUS
 10
10.337211
 20
0.822501
 30
0.000000
 11
10.007211
 21
0.822501
 31
0.000000
  0
LINE
  8
HUBDETAL
 62
     7
  6
CONTINUOUS
 10
10.007211
 20
0.822501
 30
0.000000
 11
10.007211
 21
-0.822500
 31
0.000000
  0
LINE
  8
HUBDETAL
 62
     7
  6
CONTINUOUS
 10
10.007211
 20
-0.822500
 30
0.000000
 11
10.332630
 21
-0.822500
 31
0.000000
  0
POINT
  8
HUBDETAL
 62
     7
 10
10.337211
 20
0.703001
 30
0.000000
  0
POINT
  8
HUBDETAL
 62
     7
 10
10.524711
 20
0.704024
 30
0.000000
  0
POINT
  8
HUBDETAL
 62
     7
 10
10.524711
 20
0.805573
 30
0.000000
  0
POINT
  8
HUBDETAL
 62
     7
 10
10.524711
 20
0.602473
 30
0.000000
  0
LINE
  8
HUBDETAL
 62
     7
  6
CONTINUOUS
 10
10.524711
 20
0.868023
 30
0.000000
 11
10.524711
 21
0.540022
 31
0.000000
  0
LINE
  8
HUBDETAL
 62
     7
  6
CONTINUOUS
 10
10.337211
 20
0.867001
 30
0.000000
 11
10.524711
 21
0.867001
 31
0.000000
  0
LINE
  8
HUBDETAL
 62
     7
  6
CONTINUOUS
 10
10.900211
 20
1.125000
 30
0.000000
 11
12.275211
 21
1.125000
 31
0.000000
  0
LINE
  8
HUBDETAL
 62
     7
  6
CONTINUOUS
 10
12.275211
 20
-1.125000
 30
0.000000
 11
10.899176
 21
-1.125000
 31
0.000000
  0
LINE
  8
HUBDETAL
 62
     7
  6
CONTINUOUS
 10
10.337211
 20
1.144499
 30
0.000000
 11
10.900211
 21
1.144499
 31
0.000000
  0
LINE
  8
HUBDETAL
 62
     7
  6
CONTINUOUS
 10
10.900211
 20
0.800001
 30
0.000000
 11
12.275211
 21
0.937500
 31
0.000000
  0
LINE
  8
HUBDETAL
 62
     7
  6
CONTINUOUS
 10
10.900211
 20
-0.800001
 30
0.000000
 11
12.275211
 21
-0.937500
 31
0.000000
  0
LINE
  8
HUBDETAL
 62
     7
  6
CONTINUOUS
 10
10.900211
 20
-1.125000
 30
0.000000
 11
10.900211
 21
-1.834484
 31
0.000000
  0
LINE
  8
HUBDETAL
 62
     7
  6
CONTINUOUS
 10
10.900211
 20
0.800001
 30
0.000000
 11
10.900211
 21
-0.800001
 31
0.000000
  0
LINE
  8
HUBDETAL
 62
     7
  6
CONTINUOUS
 10
10.900211
 20
1.125000
 30
0.000000
 11
10.900211
 21
1.853516
 31
0.000000
  0
LINE
  8
HUBDETAL
 62
     7
  6
CONTINUOUS
 10
10.524711
 20
0.602473
 30
0.000000
 11
10.900211
 21
0.602473
 31
0.000000
  0
LINE
  8
HUBDETAL
 62
     7
  6
CONTINUOUS
 10
10.524711
 20
0.805573
 30
0.000000
 11
10.955935
 21
0.805573
 31
0.000000
  0
LINE
  8
HUBDETAL
 62
     7
  6
CONTINUOUS
 10
10.007211
 20
-0.594000
 30
0.000000
 11
10.337211
 21
-0.594000
 31
0.000000
  0
LINE
  8
HUBDETAL
 62
     7
  6
CONTINUOUS
 10
10.337211
 20
0.375000
 30
0.000000
 11
10.900211
 21
0.375000
 31
0.000000
  0
LINE
  8
HUBDETAL
 62
     7
  6
CONTINUOUS
 10
10.337211
 20
-0.375000
 30
0.000000
 11
10.900211
 21
-0.375000
 31
0.000000
  0
LINE
  8
HUBDETAL
 62
     7
  6
CONTINUOUS
 10
10.337211
 20
-0.822500
 30
0.000000
 11
10.337211
 21
-1.834484
 31
0.000000
  0
LINE
  8
HUBDETAL
 62
     7
  6
CONTINUOUS
 10
10.524711
 20
0.539000
 30
0.000000
 11
10.007211
 21
0.539000
 31
0.000000
  0
LINE
  8
HUBDETAL
 62
     7
  6
CONTINUOUS
 10
10.337211
 20
0.534312
 30
0.000000
 11
10.337211
 21
-0.594000
 31
0.000000
  0
LINE
  8
HUBDETAL
 62
     7
  6
CONTINUOUS
 10
11.439165
 20
1.316500
 30
0.000000
 11
9.737949
 21
1.316500
 31
0.000000
  0
LINE
  8
HUBDETAL
 62
     7
  6
CONTINUOUS
 10
10.368211
 20
1.444315
 30
0.000000
 11
10.368211
 21
1.188685
 31
0.000000
  0
LINE
  8
HUBDETAL
 62
     7
  6
CONTINUOUS
 10
10.399711
 20
1.488501
 30
0.000000
 11
10.399711
 21
1.144499
 31
0.000000
  0
LINE
  8
HUBDETAL
 62
     7
  6
CONTINUOUS
 10
10.430961
 20
1.444315
 30
0.000000
 11
10.430961
 21
1.188685
 31
0.000000
  0
LINE
  8
HUBDETAL
 62
     7
  6
CONTINUOUS
 10
10.493711
 20
1.444315
 30
0.000000
 11
10.493711
 21
1.188685
 31
0.000000
  0
LINE
  8
HUBDETAL
 62
     7
  6
CONTINUOUS
 10
10.556460
 20
1.444315
 30
0.000000
 11
10.556460
 21
1.188685
 31
0.000000
  0
LINE
  8
HUBDETAL
 62
     7
  6
CONTINUOUS
 10
10.619210
 20
1.444315
 30
0.000000
 11
10.619210
 21
1.188685
 31
0.000000
  0
LINE
  8
HUBDETAL
 62
     7
  6
CONTINUOUS
 10
10.681960
 20
1.444315
 30
0.000000
 11
10.681960
 21
1.188685
 31
0.000000
  0
LINE
  8
HUBDETAL
 62
     7
  6
CONTINUOUS
 10
10.744710
 20
1.444315
 30
0.000000
 11
10.744710
 21
1.188685
 31
0.000000
  0
LINE
  8
HUBDETAL
 62
     7
  6
CONTINUOUS
 10
10.807460
 20
1.444315
 30
0.000000
 11
10.807460
 21
1.188685
 31
0.000000
  0
LINE
  8
HUBDETAL
 62
     7
  6
CONTINUOUS
 10
10.870210
 20
1.444315
 30
0.000000
 11
10.870210
 21
1.188685
 31
0.000000
  0
LINE
  8
HUBDETAL
 62
     7
  6
CONTINUOUS
 10
10.462211
 20
1.488501
 30
0.000000
 11
10.462211
 21
1.144499
 31
0.000000
  0
LINE
  8
HUBDETAL
 62
     7
  6
CONTINUOUS
 10
10.524711
 20
1.488501
 30
0.000000
 11
10.524711
 21
1.144499
 31
0.000000
  0
LINE
  8
HUBDETAL
 62
     7
  6
CONTINUOUS
 10
10.649711
 20
1.488501
 30
0.000000
 11
10.649711
 21
1.144499
 31
0.000000
  0
LINE
  8
HUBDETAL
 62
     7
  6
CONTINUOUS
 10
10.712211
 20
1.488501
 30
0.000000
 11
10.712211
 21
1.144499
 31
0.000000
  0
LINE
  8
HUBDETAL
 62
     7
  6
CONTINUOUS
 10
10.774711
 20
1.488501
 30
0.000000
 11
10.774711
 21
1.144499
 31
0.000000
  0
LINE
  8
HUBDETAL
 62
     7
  6
CONTINUOUS
 10
10.837211
 20
1.488501
 30
0.000000
 11
10.837211
 21
1.144499
 31
0.000000
  0
LINE
  8
HUBDETAL
 62
     7
  6
CONTINUOUS
 10
12.275211
 20
1.125000
 30
0.000000
 11
12.275211
 21
0.937500
 31
0.000000
  0
POINT
  8
HUBDETAL
 62
     7
 10
10.007211
 20
0.000000
 30
0.000000
  0
LINE
  8
HUBDETAL
 62
     7
  6
CONTINUOUS
 10
10.337211
 20
0.822501
 30
0.000000
 11
10.337211
 21
1.853516
 31
0.000000
  0
LINE
  8
HUBDETAL
 62
     7
  6
CONTINUOUS
 10
10.337211
 20
1.489649
 30
0.000000
 11
10.900211
 21
1.489649
 31
0.000000
  0
LINE
  8
HUBDETAL
 62
     7
  6
CONTINUOUS
 10
12.275211
 20
-1.125000
 30
0.000000
 11
12.275211
 21
-0.937500
 31
0.000000
  0
LINE
  8
HUBDETAL
 62
     7
  6
CONTINUOUS
 10
10.587710
 20
1.488501
 30
0.000000
 11
10.587710
 21
1.144499
 31
0.000000
  0
LINE
  8
HUBDETAL
 62
     7
  6
CONTINUOUS
 10
-1.254326
 20
2.242623
 30
0.000000
 11
-1.316826
 21
2.242623
 31
0.000000
  0
LINE
  8
HUBDETAL
 62
     7
  6
CONTINUOUS
 10
-0.900142
 20
1.609373
 30
0.000000
 11
-0.685360
 21
1.481433
 31
0.000000
  0
LINE
  8
HUBDETAL
 62
     7
  6
CONTINUOUS
 10
-0.900142
 20
1.609373
 30
0.000000
 11
-0.903550
 21
1.359396
 31
0.000000
  0
LINE
  8
HUBDETAL
 62
     7
  6
CONTINUOUS
 10
0.900142
 20
-1.609372
 30
0.000000
 11
0.685360
 21
-1.481432
 31
0.000000
  0
LINE
  8
HUBDETAL
 62
     7
  6
CONTINUOUS
 10
0.900142
 20
-1.609372
 30
0.000000
 11
0.903550
 21
-1.359396
 31
0.000000
  0
TEXT
  8
HUBDETAL
 62
     7
 10
-2.151009
 20
2.179902
 30
0.000000
 40
0.125000
  1
3 11/16"
  0
LINE
  8
HUBDETAL
 62
     7
  6
CONTINUOUS
 10
0.900142
 20
-1.609372
 30
0.000000
 11
-1.254326
 21
2.242623
 31
0.000000
  0
LINE
  8
HUBDETAL
 62
     7
  6
CONTINUOUS
 10
-1.202201
 20
-1.619636
 30
0.000000
 11
-1.264701
 21
-1.619636
 31
0.000000
  0
LINE
  8
HUBDETAL
 62
     7
  6
CONTINUOUS
 10
-0.354034
 20
-0.476966
 30
0.000000
 11
-0.325363
 21
-0.228615
 31
0.000000
  0
LINE
  8
HUBDETAL
 62
     7
  6
CONTINUOUS
 10
-0.354034
 20
-0.476966
 30
0.000000
 11
-0.124621
 21
-0.377620
 31
0.000000
  0
LINE
  8
HUBDETAL
 62
     7
  6
CONTINUOUS
 10
0.354040
 20
0.476967
 30
0.000000
 11
0.325369
 21
0.228616
 31
0.000000
  0
LINE
  8
HUBDETAL
 62
     7
  6
CONTINUOUS
 10
0.354040
 20
0.476967
 30
0.000000
 11
0.124626
 21
0.377621
 31
0.000000
  0
TEXT
  8
HUBDETAL
 62
     7
 10
-2.005134
 20
-1.682357
 30
0.000000
 40
0.125000
  1
1 3/16"
  0
LINE
  8
HUBDETAL
 62
     7
  6
CONTINUOUS
 10
0.354040
 20
0.476967
 30
0.000000
 11
-1.202201
 21
-1.619636
 31
0.000000
  0
LINE
  8
HUBDETAL
 62
     7
  6
CONTINUOUS
 10
0.413681
 20
2.175570
 30
0.000000
 11
0.476181
 21
2.175570
 31
0.000000
  0
LINE
  8
HUBDETAL
 62
     7
  6
CONTINUOUS
 10
0.153645
 20
0.808023
 30
0.000000
 11
0.236001
 21
0.571977
 31
0.000000
  0
LINE
  8
HUBDETAL
 62
     7
  6
CONTINUOUS
 10
0.153645
 20
0.808023
 30
0.000000
 11
-0.009598
 21
0.618677
 31
0.000000
  0
LINE
  8
HUBDETAL
 62
     7
  6
CONTINUOUS
 10
-0.153645
 20
-0.808041
 30
0.000000
 11
-0.236001
 21
-0.571996
 31
0.000000
  0
LINE
  8
HUBDETAL
 62
     7
  6
CONTINUOUS
 10
-0.153645
 20
-0.808041
 30
0.000000
 11
0.009598
 21
-0.618696
 31
0.000000
  0
TEXT
  8
HUBDETAL
 62
     7
 10
0.507431
 20
2.112763
 30
0.000000
 40
0.125000
  1
1.645"
  0
TEXT
  8
HUBDETAL
 62
     7
 10
1.114319
 20
2.206820
 30
0.000000
 40
0.125000
  1
+.000"
  0
TEXT
  8
HUBDETAL
 62
     7
 10
1.114319
 20
2.018707
 30
0.000000
 40
0.125000
  1
-.002"
  0
LINE
  8
HUBDETAL
 62
     7
  6
CONTINUOUS
 10
-0.153645
 20
-0.808041
 30
0.000000
 11
0.413681
 21
2.175570
 31
0.000000
  0
LINE
  8
HUBDETAL
 62
     7
  6
CONTINUOUS
 10
1.951375
 20
1.250237
 30
0.000000
 11
2.013875
 21
1.250237
 31
0.000000
  0
LINE
  8
HUBDETAL
 62
     7
  6
CONTINUOUS
 10
0.315752
 20
0.202301
 30
0.000000
 11
0.200886
 21
-0.019748
 31
0.000000
  0
LINE
  8
HUBDETAL
 62
     7
  6
CONTINUOUS
 10
0.315752
 20
0.202301
 30
0.000000
 11
0.066019
 21
0.190753
 31
0.000000
  0
LINE
  8
HUBDETAL
 62
     7
  6
CONTINUOUS
 10
-0.315752
 20
-0.202301
 30
0.000000
 11
-0.200886
 21
0.019749
 31
0.000000
  0
LINE
  8
HUBDETAL
 62
     7
  6
CONTINUOUS
 10
-0.315752
 20
-0.202301
 30
0.000000
 11
-0.066019
 21
-0.190753
 31
0.000000
  0
TEXT
  8
HUBDETAL
 62
     7
 10
2.045125
 20
1.187665
 30
0.000000
 40
0.125000
  1
3/4"
  0
LINE
  8
HUBDETAL
 62
     7
  6
CONTINUOUS
 10
-0.315752
 20
-0.202301
 30
0.000000
 11
1.951375
 21
1.250237
 31
0.000000
  0
LINE
  8
HUBDETAL
 62
     7
  6
CONTINUOUS
 10
2.081688
 20
-0.815000
 30
0.000000
 11
2.144188
 21
-0.815000
 31
0.000000
  0
LINE
  8
HUBDETAL
 62
     7
  6
CONTINUOUS
 10
0.654618
 20
-0.256289
 30
0.000000
 11
0.407442
 21
-0.293755
 31
0.000000
  0
LINE
  8
HUBDETAL
 62
     7
  6
CONTINUOUS
 10
0.654618
 20
-0.256289
 30
0.000000
 11
0.498583
 21
-0.060961
 31
0.000000
  0
LINE
  8
HUBDETAL
 62
     7
  6
CONTINUOUS
 10
-0.654618
 20
0.256289
 30
0.000000
 11
-0.407442
 21
0.293756
 31
0.000000
  0
LINE
  8
HUBDETAL
 62
     7
  6
CONTINUOUS
 10
-0.654618
 20
0.256289
 30
0.000000
 11
-0.498583
 21
0.060962
 31
0.000000
  0
TEXT
  8
HUBDETAL
 62
     7
 10
2.175438
 20
-0.877587
 30
0.000000
 40
0.125000
  1
1 13/32"
  0
LINE
  8
HUBDETAL
 62
     7
  6
CONTINUOUS
 10
-0.654618
 20
0.256289
 30
0.000000
 11
2.081688
 21
-0.815000
 31
0.000000
  0
TEXT
  8
HUBDETAL
 62
     7
 10
2.206688
 20
-1.065000
 30
0.000000
 40
0.125000
  1
BOLT
  0
TEXT
  8
HUBDETAL
 62
     7
 10
2.206688
 20
-1.252500
 30
0.000000
 40
0.125000
  1
CIRCLE
  0
LINE
  8
HUBDETAL
 62
     7
  6
CONTINUOUS
 10
1.716812
 20
-1.700100
 30
0.000000
 11
1.779312
 21
-1.700100
 31
0.000000
  0
LINE
  8
HUBDETAL
 62
     7
  6
CONTINUOUS
 10
0.946105
 20
-0.936896
 30
0.000000
 11
0.704310
 21
-0.873373
 31
0.000000
  0
LINE
  8
HUBDETAL
 62
     7
  6
CONTINUOUS
 10
0.946105
 20
-0.936896
 30
0.000000
 11
0.880220
 21
-0.695734
 31
0.000000
  0
LINE
  8
HUBDETAL
 62
     7
  6
CONTINUOUS
 10
-0.946105
 20
0.936896
 30
0.000000
 11
-0.704310
 21
0.873373
 31
0.000000
  0
LINE
  8
HUBDETAL
 62
     7
  6
CONTINUOUS
 10
-0.946105
 20
0.936896
 30
0.000000
 11
-0.880220
 21
0.695734
 31
0.000000
  0
TEXT
  8
HUBDETAL
 62
     7
 10
1.810562
 20
-1.762836
 30
0.000000
 40
0.125000
  1
2.663"
  0
LINE
  8
HUBDETAL
 62
     7
  6
CONTINUOUS
 10
-0.946105
 20
0.936896
 30
0.000000
 11
1.716812
 21
-1.700100
 31
0.000000
  0
TEXT
  8
HUBDETAL
 62
     7
 10
1.841812
 20
-1.950100
 30
0.000000
 40
0.125000
  1
BOLT
  0
TEXT
  8
HUBDETAL
 62
     7
 10
1.841812
 20
-2.137600
 30
0.000000
 40
0.125000
  1
CIRCLE
  0
LINE
  8
HUBDETAL
 62
     7
  6
CONTINUOUS
 10
-1.589921
 20
1.589922
 30
0.000000
 11
-1.654625
 21
1.348440
 31
0.000000
  0
LINE
  8
HUBDETAL
 62
     7
  6
CONTINUOUS
 10
-1.589921
 20
1.589922
 30
0.000000
 11
-1.831402
 21
1.525217
 31
0.000000
  0
LINE
  8
HUBDETAL
 62
     7
  6
CONTINUOUS
 10
-2.248488
 20
0.000000
 30
0.000000
 11
-2.373488
 21
0.216507
 31
0.000000
  0
LINE
  8
HUBDETAL
 62
     7
  6
CONTINUOUS
 10
-2.248488
 20
0.000000
 30
0.000000
 11
-2.123488
 21
0.216507
 31
0.000000
  0
LINE
  8
HUBDETAL
 62
     7
  6
CONTINUOUS
 10
-0.985707
 20
0.985708
 30
0.000000
 11
-1.766697
 21
1.766699
 31
0.000000
  0
LINE
  8
HUBDETAL
 62
     7
  6
CONTINUOUS
 10
-1.394000
 20
0.000000
 30
0.000000
 11
-2.498488
 21
0.000000
 31
0.000000
  0
TEXT
  8
HUBDETAL
 62
     7
 10
-2.240418
 20
0.797653
 30
0.000000
 40
0.125000
  1
45¦
  0
ARC
  8
HUBDETAL
 62
     7
  6
CONTINUOUS
 10
0.000000
 20
0.000000
 30
0.000000
 40
2.248488
 50
134.999985
 51
154.880062
  0
ARC
  8
HUBDETAL
 62
     7
  6
CONTINUOUS
 10
0.000000
 20
0.000000
 30
0.000000
 40
2.248488
 50
160.071174
 51
180.000000
  0
LINE
  8
HUBDETAL
 62
     7
  6
CONTINUOUS
 10
-1.069630
 20
-1.852632
 30
0.000000
 11
-0.819630
 21
-1.852634
 31
0.000000
  0
LINE
  8
HUBDETAL
 62
     7
  6
CONTINUOUS
 10
-1.069630
 20
-1.852632
 30
0.000000
 11
-0.944632
 21
-2.069139
 31
0.000000
  0
LINE
  8
HUBDETAL
 62
     7
  6
CONTINUOUS
 10
1.069628
 20
-1.852633
 30
0.000000
 11
0.944629
 21
-2.069140
 31
0.000000
  0
LINE
  8
HUBDETAL
 62
     7
  6
CONTINUOUS
 10
1.069628
 20
-1.852633
 30
0.000000
 11
0.819628
 21
-1.852635
 31
0.000000
  0
LINE
  8
HUBDETAL
 62
     7
  6
CONTINUOUS
 10
-0.382751
 20
-0.662942
 30
0.000000
 11
-1.194632
 21
-2.069137
 31
0.000000
  0
LINE
  8
HUBDETAL
 62
     7
  6
CONTINUOUS
 10
0.382750
 20
-0.662942
 30
0.000000
 11
1.194629
 21
-2.069139
 31
0.000000
  0
TEXT
  8
HUBDETAL
 62
     7
 10
0.241931
 20
-2.162700
 30
0.000000
 40
0.125000
  1
60¦
  0
ARC
  8
HUBDETAL
 62
     7
  6
CONTINUOUS
 10
0.000000
 20
-0.000009
 30
0.000000
 40
2.139233
 50
239.999587
 51
275.651899
  0
ARC
  8
HUBDETAL
 62
     7
  6
CONTINUOUS
 10
0.000000
 20
-0.000009
 30
0.000000
 40
2.139233
 50
286.436493
 51
300.000346
  0
POINT
  8
HUBDETAL
 62
     7
 10
5.446685
 20
0.000000
 30
0.000000
  0
LINE
  8
HUBDETAL
 62
     7
  6
CONTINUOUS
 10
5.446685
 20
-1.834484
 30
0.000000
 11
6.009685
 21
-1.834484
 31
0.000000
  0
LINE
  8
HUBDETAL
 62
     7
  6
CONTINUOUS
 10
6.009685
 20
1.853516
 30
0.000000
 11
5.446685
 21
1.853516
 31
0.000000
  0
LINE
  8
HUBDETAL
 62
     7
  6
CONTINUOUS
 10
5.446685
 20
0.822501
 30
0.000000
 11
5.116685
 21
0.822501
 31
0.000000
  0
LINE
  8
HUBDETAL
 62
     7
  6
CONTINUOUS
 10
5.116685
 20
0.822501
 30
0.000000
 11
5.116685
 21
-0.822500
 31
0.000000
  0
LINE
  8
HUBDETAL
 62
     7
  6
CONTINUOUS
 10
5.116685
 20
-0.822500
 30
0.000000
 11
5.442104
 21
-0.822500
 31
0.000000
  0
LINE
  8
HUBDETAL
 62
     7
  6
CONTINUOUS
 10
6.009685
 20
1.125000
 30
0.000000
 11
7.384686
 21
1.125000
 31
0.000000
  0
LINE
  8
HUBDETAL
 62
     7
  6
CONTINUOUS
 10
7.384686
 20
-1.125000
 30
0.000000
 11
6.008649
 21
-1.125000
 31
0.000000
  0
LINE
  8
HUBDETAL
 62
     7
  6
CONTINUOUS
 10
5.446685
 20
1.144499
 30
0.000000
 11
6.009685
 21
1.144499
 31
0.000000
  0
LINE
  8
HUBDETAL
 62
     7
  6
CONTINUOUS
 10
5.446685
 20
1.488501
 30
0.000000
 11
6.009685
 21
1.488501
 31
0.000000
  0
LINE
  8
HUBDETAL
 62
     7
  6
CONTINUOUS
 10
6.009685
 20
0.800001
 30
0.000000
 11
7.384686
 21
0.937500
 31
0.000000
  0
LINE
  8
HUBDETAL
 62
     7
  6
CONTINUOUS
 10
6.009685
 20
-0.800001
 30
0.000000
 11
7.384686
 21
-0.937500
 31
0.000000
  0
LINE
  8
HUBDETAL
 62
     7
  6
CONTINUOUS
 10
6.009685
 20
-1.125000
 30
0.000000
 11
6.009685
 21
-1.834484
 31
0.000000
  0
LINE
  8
HUBDETAL
 62
     7
  6
CONTINUOUS
 10
6.009685
 20
0.800001
 30
0.000000
 11
6.009685
 21
-0.800001
 31
0.000000
  0
LINE
  8
HUBDETAL
 62
     7
  6
CONTINUOUS
 10
6.009685
 20
1.125000
 30
0.000000
 11
6.009685
 21
1.853516
 31
0.000000
  0
LINE
  8
HUBDETAL
 62
     7
  6
CONTINUOUS
 10
5.116685
 20
-0.594000
 30
0.000000
 11
5.446685
 21
-0.594000
 31
0.000000
  0
LINE
  8
HUBDETAL
 62
     7
  6
CONTINUOUS
 10
5.446685
 20
0.375000
 30
0.000000
 11
6.009685
 21
0.375000
 31
0.000000
  0
LINE
  8
HUBDETAL
 62
     7
  6
CONTINUOUS
 10
5.446685
 20
-0.375000
 30
0.000000
 11
6.009685
 21
-0.375000
 31
0.000000
  0
LINE
  8
HUBDETAL
 62
     7
  6
CONTINUOUS
 10
5.446685
 20
-0.822500
 30
0.000000
 11
5.446685
 21
-1.834484
 31
0.000000
  0
LINE
  8
HUBDETAL
 62
     7
  6
CONTINUOUS
 10
6.548640
 20
1.316500
 30
0.000000
 11
4.847424
 21
1.316500
 31
0.000000
  0
LINE
  8
HUBDETAL
 62
     7
  6
CONTINUOUS
 10
5.477685
 20
1.444315
 30
0.000000
 11
5.477685
 21
1.188685
 31
0.000000
  0
LINE
  8
HUBDETAL
 62
     7
  6
CONTINUOUS
 10
5.509185
 20
1.488501
 30
0.000000
 11
5.509185
 21
1.144499
 31
0.000000
  0
LINE
  8
HUBDETAL
 62
     7
  6
CONTINUOUS
 10
5.540435
 20
1.444315
 30
0.000000
 11
5.540435
 21
1.188685
 31
0.000000
  0
LINE
  8
HUBDETAL
 62
     7
  6
CONTINUOUS
 10
5.603185
 20
1.444315
 30
0.000000
 11
5.603185
 21
1.188685
 31
0.000000
  0
LINE
  8
HUBDETAL
 62
     7
  6
CONTINUOUS
 10
5.665935
 20
1.444315
 30
0.000000
 11
5.665935
 21
1.188685
 31
0.000000
  0
LINE
  8
HUBDETAL
 62
     7
  6
CONTINUOUS
 10
5.728684
 20
1.444315
 30
0.000000
 11
5.728684
 21
1.188685
 31
0.000000
  0
LINE
  8
HUBDETAL
 62
     7
  6
CONTINUOUS
 10
5.791434
 20
1.444315
 30
0.000000
 11
5.791434
 21
1.188685
 31
0.000000
  0
LINE
  8
HUBDETAL
 62
     7
  6
CONTINUOUS
 10
5.854184
 20
1.444315
 30
0.000000
 11
5.854184
 21
1.188685
 31
0.000000
  0
LINE
  8
HUBDETAL
 62
     7
  6
CONTINUOUS
 10
5.916934
 20
1.444315
 30
0.000000
 11
5.916934
 21
1.188685
 31
0.000000
  0
LINE
  8
HUBDETAL
 62
     7
  6
CONTINUOUS
 10
5.979684
 20
1.444315
 30
0.000000
 11
5.979684
 21
1.188685
 31
0.000000
  0
LINE
  8
HUBDETAL
 62
     7
  6
CONTINUOUS
 10
5.571685
 20
1.488501
 30
0.000000
 11
5.571685
 21
1.144499
 31
0.000000
  0
LINE
  8
HUBDETAL
 62
     7
  6
CONTINUOUS
 10
5.634185
 20
1.488501
 30
0.000000
 11
5.634185
 21
1.144499
 31
0.000000
  0
LINE
  8
HUBDETAL
 62
     7
  6
CONTINUOUS
 10
5.696685
 20
1.488501
 30
0.000000
 11
5.696685
 21
1.144499
 31
0.000000
  0
LINE
  8
HUBDETAL
 62
     7
  6
CONTINUOUS
 10
5.759185
 20
1.488501
 30
0.000000
 11
5.759185
 21
1.144499
 31
0.000000
  0
LINE
  8
HUBDETAL
 62
     7
  6
CONTINUOUS
 10
5.821685
 20
1.488501
 30
0.000000
 11
5.821685
 21
1.144499
 31
0.000000
  0
LINE
  8
HUBDETAL
 62
     7
  6
CONTINUOUS
 10
5.884185
 20
1.488501
 30
0.000000
 11
5.884185
 21
1.144499
 31
0.000000
  0
LINE
  8
HUBDETAL
 62
     7
  6
CONTINUOUS
 10
5.946685
 20
1.488501
 30
0.000000
 11
5.946685
 21
1.144499
 31
0.000000
  0
LINE
  8
HUBDETAL
 62
     7
  6
CONTINUOUS
 10
7.384686
 20
1.125000
 30
0.000000
 11
7.384686
 21
0.937500
 31
0.000000
  0
POINT
  8
HUBDETAL
 62
     7
 10
5.116685
 20
0.000000
 30
0.000000
  0
LINE
  8
HUBDETAL
 62
     7
  6
CONTINUOUS
 10
5.446685
 20
0.822501
 30
0.000000
 11
5.446685
 21
1.853516
 31
0.000000
  0
LINE
  8
HUBDETAL
 62
     7
  6
CONTINUOUS
 10
7.384686
 20
0.937500
 30
0.000000
 11
7.384686
 21
-0.937500
 31
0.000000
  0
LINE
  8
HUBDETAL
 62
     7
  6
CONTINUOUS
 10
5.446685
 20
-0.594000
 30
0.000000
 11
5.446685
 21
0.594000
 31
0.000000
  0
LINE
  8
HUBDETAL
 62
     7
  6
CONTINUOUS
 10
5.446685
 20
0.594000
 30
0.000000
 11
5.116685
 21
0.594000
 31
0.000000
  0
LINE
  8
HUBDETAL
 62
     7
  6
CONTINUOUS
 10
4.707897
 20
-0.594000
 30
0.000000
 11
4.582897
 21
-0.377493
 31
0.000000
  0
LINE
  8
HUBDETAL
 62
     7
  6
CONTINUOUS
 10
4.707897
 20
-0.594000
 30
0.000000
 11
4.832897
 21
-0.377493
 31
0.000000
  0
LINE
  8
HUBDETAL
 62
     7
  6
CONTINUOUS
 10
4.707897
 20
0.594000
 30
0.000000
 11
4.832897
 21
0.377494
 31
0.000000
  0
LINE
  8
HUBDETAL
 62
     7
  6
CONTINUOUS
 10
4.707897
 20
0.594000
 30
0.000000
 11
4.582897
 21
0.377494
 31
0.000000
  0
LINE
  8
HUBDETAL
 62
     7
  6
CONTINUOUS
 10
5.054185
 20
-0.594000
 30
0.000000
 11
4.457897
 21
-0.594000
 31
0.000000
  0
LINE
  8
HUBDETAL
 62
     7
  6
CONTINUOUS
 10
5.054185
 20
0.594000
 30
0.000000
 11
4.457897
 21
0.594000
 31
0.000000
  0
TEXT
  8
HUBDETAL
 62
     7
 10
4.353305
 20
-0.200792
 30
0.000000
 40
0.125000
  1
1 3/16"
  0
LINE
  8
HUBDETAL
 62
     7
  6
CONTINUOUS
 10
4.707897
 20
-0.594000
 30
0.000000
 11
4.707897
 21
-0.232042
 31
0.000000
  0
LINE
  8
HUBDETAL
 62
     7
  6
CONTINUOUS
 10
4.707897
 20
-0.044099
 30
0.000000
 11
4.707897
 21
0.594000
 31
0.000000
  0
LINE
  8
HUBDETAL
 62
     7
  6
CONTINUOUS
 10
3.772356
 20
-0.822500
 30
0.000000
 11
3.647356
 21
-0.605994
 31
0.000000
  0
LINE
  8
HUBDETAL
 62
     7
  6
CONTINUOUS
 10
3.772356
 20
-0.822500
 30
0.000000
 11
3.897356
 21
-0.605994
 31
0.000000
  0
LINE
  8
HUBDETAL
 62
     7
  6
CONTINUOUS
 10
3.772356
 20
0.822501
 30
0.000000
 11
3.897356
 21
0.605994
 31
0.000000
  0
LINE
  8
HUBDETAL
 62
     7
  6
CONTINUOUS
 10
3.772356
 20
0.822501
 30
0.000000
 11
3.647356
 21
0.605994
 31
0.000000
  0
LINE
  8
HUBDETAL
 62
     7
  6
CONTINUOUS
 10
5.054185
 20
-0.822500
 30
0.000000
 11
3.522356
 21
-0.822500
 31
0.000000
  0
LINE
  8
HUBDETAL
 62
     7
  6
CONTINUOUS
 10
5.054185
 20
0.822501
 30
0.000000
 11
3.522356
 21
0.822501
 31
0.000000
  0
TEXT
  8
HUBDETAL
 62
     7
 10
3.137837
 20
0.406587
 30
0.000000
 40
0.125000
  1
1.645"
  0
TEXT
  8
HUBDETAL
 62
     7
 10
3.744724
 20
0.500643
 30
0.000000
 40
0.125000
  1
+.000"
  0
TEXT
  8
HUBDETAL
 62
     7
 10
3.744724
 20
0.312530
 30
0.000000
 40
0.125000
  1
-.002"
  0
LINE
  8
HUBDETAL
 62
     7
  6
CONTINUOUS
 10
3.772356
 20
-0.822500
 30
0.000000
 11
3.772356
 21
0.281289
 31
0.000000
  0
LINE
  8
HUBDETAL
 62
     7
  6
CONTINUOUS
 10
3.772356
 20
0.657497
 30
0.000000
 11
3.772356
 21
0.822501
 31
0.000000
  0
LINE
  8
HUBDETAL
 62
     7
  6
CONTINUOUS
 10
5.116685
 20
-1.100843
 30
0.000000
 11
4.900179
 21
-1.225843
 31
0.000000
  0
LINE
  8
HUBDETAL
 62
     7
  6
CONTINUOUS
 10
5.116685
 20
-1.100843
 30
0.000000
 11
4.900179
 21
-0.975843
 31
0.000000
  0
LINE
  8
HUBDETAL
 62
     7
  6
CONTINUOUS
 10
5.446685
 20
-1.100843
 30
0.000000
 11
5.663191
 21
-0.975843
 31
0.000000
  0
LINE
  8
HUBDETAL
 62
     7
  6
CONTINUOUS
 10
5.446685
 20
-1.100843
 30
0.000000
 11
5.663191
 21
-1.225843
 31
0.000000
  0
LINE
  8
HUBDETAL
 62
     7
  6
CONTINUOUS
 10
5.116685
 20
-0.885000
 30
0.000000
 11
5.116685
 21
-1.350843
 31
0.000000
  0
LINE
  8
HUBDETAL
 62
     7
  6
CONTINUOUS
 10
5.446685
 20
-0.885000
 30
0.000000
 11
5.446685
 21
-1.350843
 31
0.000000
  0
TEXT
  8
HUBDETAL
 62
     7
 10
4.030699
 20
-1.163640
 30
0.000000
 40
0.125000
  1
.330"
  0
LINE
  8
HUBDETAL
 62
     7
  6
CONTINUOUS
 10
5.116685
 20
-1.100843
 30
0.000000
 11
4.616685
 21
-1.100843
 31
0.000000
  0
LINE
  8
HUBDETAL
 62
     7
  6
CONTINUOUS
 10
5.446685
 20
-1.100843
 30
0.000000
 11
5.946685
 21
-1.100843
 31
0.000000
  0
LINE
  8
HUBDETAL
 62
     7
  6
CONTINUOUS
 10
5.446685
 20
-2.017770
 30
0.000000
 11
5.230179
 21
-2.142770
 31
0.000000
  0
LINE
  8
HUBDETAL
 62
     7
  6
CONTINUOUS
 10
5.446685
 20
-2.017770
 30
0.000000
 11
5.230179
 21
-1.892770
 31
0.000000
  0
LINE
  8
HUBDETAL
 62
     7
  6
CONTINUOUS
 10
6.009685
 20
-2.017770
 30
0.000000
 11
6.226191
 21
-1.892770
 31
0.000000
  0
LINE
  8
HUBDETAL
 62
     7
  6
CONTINUOUS
 10
6.009685
 20
-2.017770
 30
0.000000
 11
6.226191
 21
-2.142770
 31
0.000000
  0
LINE
  8
HUBDETAL
 62
     7
  6
CONTINUOUS
 10
5.446685
 20
-1.896984
 30
0.000000
 11
5.446685
 21
-2.267770
 31
0.000000
  0
LINE
  8
HUBDETAL
 62
     7
  6
CONTINUOUS
 10
6.009685
 20
-1.896984
 30
0.000000
 11
6.009685
 21
-2.267770
 31
0.000000
  0
TEXT
  8
HUBDETAL
 62
     7
 10
5.467597
 20
-2.080491
 30
0.000000
 40
0.125000
  1
9/16"
  0
LINE
  8
HUBDETAL
 62
     7
  6
CONTINUOUS
 10
5.446685
 20
-2.017770
 30
0.000000
 11
4.946685
 21
-2.017770
 31
0.000000
  0
LINE
  8
HUBDETAL
 62
     7
  6
CONTINUOUS
 10
6.009685
 20
-2.017770
 30
0.000000
 11
6.509685
 21
-2.017770
 31
0.000000
  0
LINE
  8
HUBDETAL
 62
     7
  6
CONTINUOUS
 10
6.009685
 20
-1.709413
 30
0.000000
 11
6.226191
 21
-1.584413
 31
0.000000
  0
LINE
  8
HUBDETAL
 62
     7
  6
CONTINUOUS
 10
6.009685
 20
-1.709413
 30
0.000000
 11
6.226191
 21
-1.834413
 31
0.000000
  0
LINE
  8
HUBDETAL
 62
     7
  6
CONTINUOUS
 10
7.384686
 20
-1.709413
 30
0.000000
 11
7.168179
 21
-1.834413
 31
0.000000
  0
LINE
  8
HUBDETAL
 62
     7
  6
CONTINUOUS
 10
7.384686
 20
-1.709413
 30
0.000000
 11
7.168179
 21
-1.584413
 31
0.000000
  0
LINE
  8
HUBDETAL
 62
     7
  6
CONTINUOUS
 10
6.009685
 20
-1.771984
 30
0.000000
 11
6.009685
 21
-1.459413
 31
0.000000
  0
LINE
  8
HUBDETAL
 62
     7
  6
CONTINUOUS
 10
7.384686
 20
-1.187500
 30
0.000000
 11
7.384686
 21
-1.959413
 31
0.000000
  0
TEXT
  8
HUBDETAL
 62
     7
 10
6.383979
 20
-1.772321
 30
0.000000
 40
0.125000
  1
1 3/8"
  0
LINE
  8
HUBDETAL
 62
     7
  6
CONTINUOUS
 10
6.009685
 20
-1.709413
 30
0.000000
 11
6.352729
 21
-1.709413
 31
0.000000
  0
LINE
  8
HUBDETAL
 62
     7
  6
CONTINUOUS
 10
7.041641
 20
-1.709413
 30
0.000000
 11
7.384686
 21
-1.709413
 31
0.000000
  0
LINE
  8
HUBDETAL
 62
     7
  6
CONTINUOUS
 10
5.116685
 20
-2.529468
 30
0.000000
 11
5.333191
 21
-2.404468
 31
0.000000
  0
LINE
  8
HUBDETAL
 62
     7
  6
CONTINUOUS
 10
5.116685
 20
-2.529468
 30
0.000000
 11
5.333191
 21
-2.654468
 31
0.000000
  0
LINE
  8
HUBDETAL
 62
     7
  6
CONTINUOUS
 10
7.384686
 20
-2.529468
 30
0.000000
 11
7.168179
 21
-2.654468
 31
0.000000
  0
LINE
  8
HUBDETAL
 62
     7
  6
CONTINUOUS
 10
7.384686
 20
-2.529468
 30
0.000000
 11
7.168179
 21
-2.404468
 31
0.000000
  0
LINE
  8
HUBDETAL
 62
     7
  6
CONTINUOUS
 10
5.116685
 20
-0.885000
 30
0.000000
 11
5.116685
 21
-2.779468
 31
0.000000
  0
LINE
  8
HUBDETAL
 62
     7
  6
CONTINUOUS
 10
7.384686
 20
-1.187500
 30
0.000000
 11
7.384686
 21
-2.779468
 31
0.000000
  0
TEXT
  8
HUBDETAL
 62
     7
 10
5.831475
 20
-2.592084
 30
0.000000
 40
0.125000
  1
2 9/32"
  0
LINE
  8
HUBDETAL
 62
     7
  6
CONTINUOUS
 10
5.116685
 20
-2.529468
 30
0.000000
 11
5.800225
 21
-2.529468
 31
0.000000
  0
LINE
  8
HUBDETAL
 62
     7
  6
CONTINUOUS
 10
6.701146
 20
-2.529468
 30
0.000000
 11
7.384686
 21
-2.529468
 31
0.000000
  0
LINE
  8
HUBDETAL
 62
     7
  6
CONTINUOUS
 10
9.322606
 20
-1.834484
 30
0.000000
 11
9.197606
 21
-1.617977
 31
0.000000
  0
LINE
  8
HUBDETAL
 62
     7
  6
CONTINUOUS
 10
9.322606
 20
-1.834484
 30
0.000000
 11
9.447606
 21
-1.617977
 31
0.000000
  0
LINE
  8
HUBDETAL
 62
     7
  6
CONTINUOUS
 10
9.322606
 20
1.853516
 30
0.000000
 11
9.447606
 21
1.637010
 31
0.000000
  0
LINE
  8
HUBDETAL
 62
     7
  6
CONTINUOUS
 10
9.322606
 20
1.853516
 30
0.000000
 11
9.197606
 21
1.637010
 31
0.000000
  0
LINE
  8
HUBDETAL
 62
     7
  6
CONTINUOUS
 10
10.274711
 20
-1.834484
 30
0.000000
 11
9.072606
 21
-1.834484
 31
0.000000
  0
LINE
  8
HUBDETAL
 62
     7
  6
CONTINUOUS
 10
10.274711
 20
1.853516
 30
0.000000
 11
9.072606
 21
1.853516
 31
0.000000
  0
TEXT
  8
HUBDETAL
 62
     7
 10
8.921140
 20
0.242349
 30
0.000000
 40
0.125000
  1
3 11/16"
  0
LINE
  8
HUBDETAL
 62
     7
  6
CONTINUOUS
 10
9.322606
 20
-1.834484
 30
0.000000
 11
9.322606
 21
0.211100
 31
0.000000
  0
LINE
  8
HUBDETAL
 62
     7
  6
CONTINUOUS
 10
9.322606
 20
0.399043
 30
0.000000
 11
9.322606
 21
1.853516
 31
0.000000
  0
LINE
  8
HUBDETAL
 62
     7
  6
CONTINUOUS
 10
7.948515
 20
-1.125000
 30
0.000000
 11
7.823515
 21
-0.908493
 31
0.000000
  0
LINE
  8
HUBDETAL
 62
     7
  6
CONTINUOUS
 10
7.948515
 20
-1.125000
 30
0.000000
 11
8.073515
 21
-0.908493
 31
0.000000
  0
LINE
  8
HUBDETAL
 62
     7
  6
CONTINUOUS
 10
7.948515
 20
1.125000
 30
0.000000
 11
8.073515
 21
0.908494
 31
0.000000
  0
LINE
  8
HUBDETAL
 62
     7
  6
CONTINUOUS
 10
7.948515
 20
1.125000
 30
0.000000
 11
7.823515
 21
0.908494
 31
0.000000
  0
LINE
  8
HUBDETAL
 62
     7
  6
CONTINUOUS
 10
7.447186
 20
-1.125000
 30
0.000000
 11
8.198515
 21
-1.125000
 31
0.000000
  0
LINE
  8
HUBDETAL
 62
     7
  6
CONTINUOUS
 10
7.447186
 20
1.125000
 30
0.000000
 11
8.198515
 21
1.125000
 31
0.000000
  0
TEXT
  8
HUBDETAL
 62
     7
 10
7.629577
 20
0.147178
 30
0.000000
 40
0.125000
  1
2 1/4"
  0
LINE
  8
HUBDETAL
 62
     7
  6
CONTINUOUS
 10
7.948515
 20
-1.125000
 30
0.000000
 11
7.948515
 21
0.115928
 31
0.000000
  0
LINE
  8
HUBDETAL
 62
     7
  6
CONTINUOUS
 10
7.948515
 20
0.303602
 30
0.000000
 11
7.948515
 21
1.125000
 31
0.000000
  0
LINE
  8
HUBDETAL
 62
     7
  6
CONTINUOUS
 10
0.997608
 20
1.106222
 30
0.000000
 11
1.081001
 21
1.341904
 31
0.000000
  0
LINE
  8
HUBDETAL
 62
     7
  6
CONTINUOUS
 10
0.997608
 20
1.106222
 30
0.000000
 11
1.243411
 21
1.151843
 31
0.000000
  0
LINE
  8
HUBDETAL
 62
     7
  6
CONTINUOUS
 10
0.997608
 20
1.106222
 30
0.000000
 11
1.933076
 21
1.905592
 31
0.000000
  0
LINE
  8
HUBDETAL
 62
     7
  6
CONTINUOUS
 10
1.933076
 20
1.905592
 30
0.000000
 11
2.183076
 21
1.905592
 31
0.000000
  0
TEXT
  8
HUBDETAL
 62
     7
 10
2.245576
 20
1.843091
 30
0.000000
 40
0.125000
  1
SEE NOTE C
  0
LINE
  8
HUBDETAL
 62
     7
  6
CONTINUOUS
 10
0.833714
 20
0.099043
 30
0.000000
 11
0.928624
 21
0.330327
 31
0.000000
  0
LINE
  8
HUBDETAL
 62
     7
  6
CONTINUOUS
 10
0.833714
 20
0.099043
 30
0.000000
 11
1.081467
 21
0.132491
 31
0.000000
  0
LINE
  8
HUBDETAL
 62
     7
  6
CONTINUOUS
 10
0.833714
 20
0.099043
 30
0.000000
 11
1.793790
 21
0.840773
 31
0.000000
  0
LINE
  8
HUBDETAL
 62
     7
  6
CONTINUOUS
 10
1.793790
 20
0.840773
 30
0.000000
 11
2.043790
 21
0.840773
 31
0.000000
  0
TEXT
  8
HUBDETAL
 62
     7
 10
2.106290
 20
0.778273
 30
0.000000
 40
0.125000
  1
SEE NOTE B
  0
LINE
  8
HUBDETAL
 62
     7
  6
CONTINUOUS
 10
5.726200
 20
-0.375000
 30
0.000000
 11
5.601200
 21
-0.158493
 31
0.000000
  0
LINE
  8
HUBDETAL
 62
     7
  6
CONTINUOUS
 10
5.726200
 20
-0.375000
 30
0.000000
 11
5.851200
 21
-0.158493
 31
0.000000
  0
LINE
  8
HUBDETAL
 62
     7
  6
CONTINUOUS
 10
5.726200
 20
0.375000
 30
0.000000
 11
5.851200
 21
0.158494
 31
0.000000
  0
LINE
  8
HUBDETAL
 62
     7
  6
CONTINUOUS
 10
5.726200
 20
0.375000
 30
0.000000
 11
5.601200
 21
0.158494
 31
0.000000
  0
LINE
  8
HUBDETAL
 62
     7
  6
CONTINUOUS
 10
5.509185
 20
-0.375000
 30
0.000000
 11
5.976200
 21
-0.375000
 31
0.000000
  0
LINE
  8
HUBDETAL
 62
     7
  6
CONTINUOUS
 10
5.509185
 20
0.375000
 30
0.000000
 11
5.976200
 21
0.375000
 31
0.000000
  0
TEXT
  8
HUBDETAL
 62
     7
 10
5.500721
 20
0.052761
 30
0.000000
 40
0.125000
  1
3/4"
  0
LINE
  8
HUBDETAL
 62
     7
  6
CONTINUOUS
 10
5.726200
 20
-0.375000
 30
0.000000
 11
5.726200
 21
0.021511
 31
0.000000
  0
LINE
  8
HUBDETAL
 62
     7
  6
CONTINUOUS
 10
5.726200
 20
0.209157
 30
0.000000
 11
5.726200
 21
0.375000
 31
0.000000
  0
TEXT
  8
HUBDETAL
 62
     7
 10
8.769964
 20
6.311023
 30
0.000000
 40
0.125000
  1
ELECTRO AUTOMOTIVE
  0
TEXT
  8
HUBDETAL
 62
     7
 10
8.769964
 20
6.123523
 30
0.000000
 40
0.125000
  1
P.O. BOX 1113 FELTON CA. 95018-1113
  0
TEXT
  8
HUBDETAL
 62
     7
 10
8.769964
 20
5.936025
 30
0.000000
 40
0.125000
  1
PHONE 408-429-1989 FAX 408-429-1907
  0
TEXT
  8
HUBDETAL
 62
     7
 10
8.769964
 20
5.748524
 30
0.000000
 40
0.125000
  1
DRAWN BY MICHAEL P. BROWN
  0
LINE
  8
HUBDETAL
 62
     7
  6
CONTINUOUS
 10
8.637218
 20
6.548519
 30
0.000000
 11
12.203669
 21
6.548519
 31
0.000000
  0
LINE
  8
HUBDETAL
 62
     7
  6
CONTINUOUS
 10
12.203669
 20
6.548519
 30
0.000000
 11
12.203669
 21
5.648535
 31
0.000000
  0
LINE
  8
HUBDETAL
 62
     7
  6
CONTINUOUS
 10
12.203669
 20
5.648535
 30
0.000000
 11
8.637218
 21
5.648535
 31
0.000000
  0
LINE
  8
HUBDETAL
 62
     7
  6
CONTINUOUS
 10
8.637218
 20
5.648535
 30
0.000000
 11
8.637218
 21
6.548519
 31
0.000000
  0
TEXT
  8
HUBDETAL
 62
     7
 10
7.457486
 20
5.156368
 30
0.000000
 40
0.125000
  1
WITH CUSTOMER PROFILE PLATE AND
  0
TEXT
  8
HUBDETAL
 62
     7
 10
7.457486
 20
4.968867
 30
0.000000
 40
0.125000
  1
NON-STANDARD 8" RING
  0
TEXT
  8
HUBDETAL
 62
     7
 10
7.457486
 20
4.781369
 30
0.000000
 40
0.125000
  1
NOTE A-- TAP 10-24 x 1" DEEP
  0
TEXT
  8
HUBDETAL
 62
     7
 10
7.457486
 20
4.593869
 30
0.000000
 40
0.125000
  1
NOTE B-- DRILL 13/64" COUNTERBORE 
  0
TEXT
  8
HUBDETAL
 62
     7
 10
7.457486
 20
4.406368
 30
0.000000
 40
0.125000
  1
23/64" x 9/16" DEEP. THEN TURN TO
  0
TEXT
  8
HUBDETAL
 62
     7
 10
7.457486
 20
4.218868
 30
0.000000
 40
0.125000
  1
LOCATING  PROJECTION DIA. 1.645" x
  0
TEXT
  8
HUBDETAL
 62
     7
 10
7.457486
 20
4.031367
 30
0.000000
 40
0.125000
  1
.330" DEEP.THEN BORE MAINSHAFT 
  0
TEXT
  8
HUBDETAL
 62
     7
 10
7.457486
 20
3.843869
 30
0.000000
 40
0.125000
  1
CLEARANCE HOLE TO 1 3/16" DIA. x .330
  0
TEXT
  8
HUBDETAL
 62
     7
 10
7.457486
 20
3.656369
 30
0.000000
 40
0.125000
  1
DEEP
  0
TEXT
  8
HUBDETAL
 62
     7
 10
7.457486
 20
3.468868
 30
0.000000
 40
0.125000
  1
NOTE C-- DRILL 11/32" THROUGH 
  0
TEXT
  8
HUBDETAL
 62
     7
 10
7.457486
 20
3.281368
 30
0.000000
 40
0.125000
  1
TAP 10 x 1.25mm THROUGH
  0
TEXT
  8
HUBDETAL
 62
     7
 10
7.457486
 20
5.343868
 30
0.000000
 40
0.125000
  1
92 TOYOTA MR 2 TO ADC 8" OR 9"MOTOR
  0
LINE
  8
HUBDETAL
 62
     7
  6
CONTINUOUS
 10
12.275211
 20
0.937500
 30
0.000000
 11
12.275211
 21
-0.937500
 31
0.000000
  0
ENDSEC
  0
EOF
