  0
SECTION
  2
HEADER
  9
$ACADVER
  1
AC1006
  0
ENDSEC
  0
SECTION
  2
TABLES
  0
TABLE
  2
LTYPE
 70
    25
  0
LTYPE
  2
CONTINUOUS
 70
    64
  3
Solid line
 72
    64
 73
     0
 40
0.000000
  0
LTYPE
  2
DASHDOT
 70
    64
  3
__ . __ . __ . __ . __ . __ . __ . __ . __ . __
 72
    65
 73
     4
 40
1.000000
 49
0.500000
 49
-0.250000
 49
0.000000
 49
-0.250000
  0
LTYPE
  2
DASHED
 70
    64
  3
__ __ __ __ __ __ __ __ __ __ __ __ __ __ __ __
 72
    65
 73
     2
 40
0.750000
 49
0.500000
 49
-0.250000
  0
LTYPE
  2
DIVIDE
 70
    64
  3
____ . . ____ . . ____ . . ____ . . ____ . . __
 72
    65
 73
     6
 40
1.250000
 49
0.500000
 49
-0.250000
 49
0.000000
 49
-0.250000
 49
0.000000
 49
-0.250000
  0
LTYPE
  2
DOT
 70
    64
  3
. . . . . . . . . . . . . . . . . . . . . . . . 
 72
    65
 73
     2
 40
0.250000
 49
0.000000
 49
-0.250000
  0
ENDTAB
  0
ENDSEC
  0
SECTION
  2
ENTITIES
  0
LINE
  8
CNTRLINE
 62
     7
  6
CONTINUOUS
 10
0.500000
 20
6.750000
 30
0.000000
 11
17.000000
 21
6.750000
 31
0.000000
  0
POINT
  8
HUB
 62
     7
 10
4.103014
 20
6.750000
 30
0.000000
  0
CIRCLE
  8
HUB
 62
     7
  6
CONTINUOUS
 10
4.103014
 20
6.750000
 30
0.000000
 40
1.375000
  0
CIRCLE
  8
HUB
 62
     7
  6
CONTINUOUS
 10
4.103014
 20
6.750000
 30
0.000000
 40
1.280000
  0
CIRCLE
  8
HUB
 62
     7
  6
CONTINUOUS
 10
4.103014
 20
6.750000
 30
0.000000
 40
0.375000
  0
CIRCLE
  8
HUB
 62
     7
  6
CONTINUOUS
 10
4.103014
 20
6.750000
 30
0.000000
 40
0.860500
  0
CIRCLE
  8
HUB
 62
     7
  6
CONTINUOUS
 10
4.163039
 20
7.608404
 30
0.000000
 40
0.219000
  0
LINE
  8
HUB
 62
     7
  6
CONTINUOUS
 10
4.103014
 20
6.750000
 30
0.000000
 11
5.613103
 21
7.693609
 31
0.000000
  0
LINE
  8
HUB
 62
     7
  6
CONTINUOUS
 10
4.103014
 20
6.750000
 30
0.000000
 11
5.547627
 21
5.847305
 31
0.000000
  0
LINE
  8
HUB
 62
     7
  6
CONTINUOUS
 10
4.103014
 20
6.750000
 30
0.000000
 11
4.103014
 21
5.068938
 31
0.000000
  0
LINE
  8
HUB
 62
     7
  6
CONTINUOUS
 10
4.103014
 20
6.750000
 30
0.000000
 11
2.614131
 21
5.890393
 31
0.000000
  0
LINE
  8
HUB
 62
     7
  6
CONTINUOUS
 10
4.103014
 20
6.750000
 30
0.000000
 11
2.699027
 21
7.928085
 31
0.000000
  0
LINE
  8
HUB
 62
     7
  6
CONTINUOUS
 10
4.103014
 20
6.750000
 30
0.000000
 11
4.217530
 21
8.387667
 31
0.000000
  0
CIRCLE
  8
HUB
 62
     7
  6
CONTINUOUS
 10
4.832759
 20
7.205996
 30
0.000000
 40
0.219000
  0
CIRCLE
  8
HUB
 62
     7
  6
CONTINUOUS
 10
4.832758
 20
6.294004
 30
0.000000
 40
0.219000
  0
CIRCLE
  8
HUB
 62
     7
  6
CONTINUOUS
 10
4.103014
 20
5.889501
 30
0.000000
 40
0.219000
  0
CIRCLE
  8
HUB
 62
     7
  6
CONTINUOUS
 10
3.357799
 20
6.319750
 30
0.000000
 40
0.219000
  0
CIRCLE
  8
HUB
 62
     7
  6
CONTINUOUS
 10
3.443833
 20
7.303119
 30
0.000000
 40
0.219000
  0
CIRCLE
  8
HUB
 62
     7
  6
CONTINUOUS
 10
4.103014
 20
6.750000
 30
0.000000
 40
0.703000
  0
LINE
  8
HUB
 62
     7
  6
CONTINUOUS
 10
4.103014
 20
6.750000
 30
0.000000
 11
4.969173
 21
8.191530
 31
0.000000
  0
LINE
  8
HUB
 62
     7
  6
CONTINUOUS
 10
4.103014
 20
6.750000
 30
0.000000
 11
4.943140
 21
5.234372
 31
0.000000
  0
LINE
  8
HUB
 62
     7
  6
CONTINUOUS
 10
4.103014
 20
6.750000
 30
0.000000
 11
3.101728
 21
5.015723
 31
0.000000
  0
LINE
  8
HUB
 62
     7
  6
CONTINUOUS
 10
4.103014
 20
6.750000
 30
0.000000
 11
2.442291
 21
6.895294
 31
0.000000
  0
LINE
  8
HUB
 62
     7
  6
CONTINUOUS
 10
4.103014
 20
6.750000
 30
0.000000
 11
3.293638
 21
8.656769
 31
0.000000
  0
CIRCLE
  8
HUB
 62
     7
  6
CONTINUOUS
 10
4.465086
 20
7.352589
 30
0.000000
 40
0.101550
  0
CIRCLE
  8
HUB
 62
     7
  6
CONTINUOUS
 10
4.465086
 20
7.352589
 30
0.000000
 40
0.164000
  0
CIRCLE
  8
HUB
 62
     7
  6
CONTINUOUS
 10
4.806014
 20
6.750000
 30
0.000000
 40
0.101550
  0
CIRCLE
  8
HUB
 62
     7
  6
CONTINUOUS
 10
4.806014
 20
6.750000
 30
0.000000
 40
0.164000
  0
CIRCLE
  8
HUB
 62
     7
  6
CONTINUOUS
 10
4.443835
 20
6.135142
 30
0.000000
 40
0.101550
  0
CIRCLE
  8
HUB
 62
     7
  6
CONTINUOUS
 10
4.443835
 20
6.135142
 30
0.000000
 40
0.164000
  0
CIRCLE
  8
HUB
 62
     7
  6
CONTINUOUS
 10
3.751513
 20
6.141184
 30
0.000000
 40
0.101550
  0
CIRCLE
  8
HUB
 62
     7
  6
CONTINUOUS
 10
3.751513
 20
6.141184
 30
0.000000
 40
0.164000
  0
CIRCLE
  8
HUB
 62
     7
  6
CONTINUOUS
 10
3.402689
 20
6.811271
 30
0.000000
 40
0.101550
  0
CIRCLE
  8
HUB
 62
     7
  6
CONTINUOUS
 10
3.402689
 20
6.811271
 30
0.000000
 40
0.164000
  0
CIRCLE
  8
HUB
 62
     7
  6
CONTINUOUS
 10
3.828330
 20
7.397115
 30
0.000000
 40
0.101550
  0
CIRCLE
  8
HUB
 62
     7
  6
CONTINUOUS
 10
3.828330
 20
7.397115
 30
0.000000
 40
0.164000
  0
POINT
  8
HUB
 62
     7
 10
14.044650
 20
6.750000
 30
0.000000
  0
CIRCLE
  8
HUB
 62
     7
  6
CONTINUOUS
 10
14.044650
 20
6.750000
 30
0.000000
 40
1.375000
  0
CIRCLE
  8
HUB
 62
     7
  6
CONTINUOUS
 10
14.044650
 20
6.750000
 30
0.000000
 40
1.280000
  0
CIRCLE
  8
HUB
 62
     7
  6
CONTINUOUS
 10
14.044650
 20
6.750000
 30
0.000000
 40
0.375000
  0
CIRCLE
  8
HUB
 62
     7
  6
CONTINUOUS
 10
14.044650
 20
6.750000
 30
0.000000
 40
0.860500
  0
CIRCLE
  8
HUB
 62
     7
  6
CONTINUOUS
 10
14.104675
 20
7.608404
 30
0.000000
 40
0.219000
  0
LINE
  8
HUB
 62
     7
  6
CONTINUOUS
 10
14.044650
 20
6.750000
 30
0.000000
 11
15.554740
 21
7.693609
 31
0.000000
  0
LINE
  8
HUB
 62
     7
  6
CONTINUOUS
 10
14.044650
 20
6.750000
 30
0.000000
 11
15.489264
 21
5.847305
 31
0.000000
  0
LINE
  8
HUB
 62
     7
  6
CONTINUOUS
 10
14.044650
 20
6.750000
 30
0.000000
 11
14.044650
 21
5.068938
 31
0.000000
  0
LINE
  8
HUB
 62
     7
  6
CONTINUOUS
 10
14.044650
 20
6.750000
 30
0.000000
 11
12.555767
 21
5.890393
 31
0.000000
  0
LINE
  8
HUB
 62
     7
  6
CONTINUOUS
 10
14.044650
 20
6.750000
 30
0.000000
 11
12.640663
 21
7.928085
 31
0.000000
  0
LINE
  8
HUB
 62
     7
  6
CONTINUOUS
 10
14.044650
 20
6.750000
 30
0.000000
 11
14.159166
 21
8.387667
 31
0.000000
  0
CIRCLE
  8
HUB
 62
     7
  6
CONTINUOUS
 10
14.774395
 20
7.205996
 30
0.000000
 40
0.219000
  0
CIRCLE
  8
HUB
 62
     7
  6
CONTINUOUS
 10
14.774395
 20
6.294004
 30
0.000000
 40
0.219000
  0
CIRCLE
  8
HUB
 62
     7
  6
CONTINUOUS
 10
14.044650
 20
5.889501
 30
0.000000
 40
0.219000
  0
CIRCLE
  8
HUB
 62
     7
  6
CONTINUOUS
 10
13.299436
 20
6.319750
 30
0.000000
 40
0.219000
  0
CIRCLE
  8
HUB
 62
     7
  6
CONTINUOUS
 10
13.385469
 20
7.303119
 30
0.000000
 40
0.219000
  0
CIRCLE
  8
HUB
 62
     7
  6
CONTINUOUS
 10
14.044650
 20
6.750000
 30
0.000000
 40
0.703000
  0
LINE
  8
HUB
 62
     7
  6
CONTINUOUS
 10
14.044650
 20
6.750000
 30
0.000000
 11
14.910810
 21
8.191530
 31
0.000000
  0
LINE
  8
HUB
 62
     7
  6
CONTINUOUS
 10
14.044650
 20
6.750000
 30
0.000000
 11
14.884776
 21
5.234372
 31
0.000000
  0
LINE
  8
HUB
 62
     7
  6
CONTINUOUS
 10
14.044650
 20
6.750000
 30
0.000000
 11
12.383928
 21
6.895294
 31
0.000000
  0
LINE
  8
HUB
 62
     7
  6
CONTINUOUS
 10
14.044650
 20
6.750000
 30
0.000000
 11
13.235275
 21
8.656769
 31
0.000000
  0
CIRCLE
  8
HUB
 62
     7
  6
CONTINUOUS
 10
14.406722
 20
7.352589
 30
0.000000
 40
0.101550
  0
CIRCLE
  8
HUB
 62
     7
  6
CONTINUOUS
 10
14.406722
 20
7.352589
 30
0.000000
 40
0.164000
  0
CIRCLE
  8
HUB
 62
     7
  6
CONTINUOUS
 10
14.747650
 20
6.750000
 30
0.000000
 40
0.101550
  0
CIRCLE
  8
HUB
 62
     7
  6
CONTINUOUS
 10
14.747650
 20
6.750000
 30
0.000000
 40
0.164000
  0
CIRCLE
  8
HUB
 62
     7
  6
CONTINUOUS
 10
14.385471
 20
6.135142
 30
0.000000
 40
0.101550
  0
CIRCLE
  8
HUB
 62
     7
  6
CONTINUOUS
 10
14.385471
 20
6.135142
 30
0.000000
 40
0.164000
  0
CIRCLE
  8
HUB
 62
     7
  6
CONTINUOUS
 10
13.693150
 20
6.141184
 30
0.000000
 40
0.101550
  0
CIRCLE
  8
HUB
 62
     7
  6
CONTINUOUS
 10
13.693150
 20
6.141184
 30
0.000000
 40
0.164000
  0
CIRCLE
  8
HUB
 62
     7
  6
CONTINUOUS
 10
13.344325
 20
6.811271
 30
0.000000
 40
0.101550
  0
CIRCLE
  8
HUB
 62
     7
  6
CONTINUOUS
 10
13.344325
 20
6.811271
 30
0.000000
 40
0.164000
  0
CIRCLE
  8
HUB
 62
     7
  6
CONTINUOUS
 10
13.769966
 20
7.397115
 30
0.000000
 40
0.101550
  0
CIRCLE
  8
HUB
 62
     7
  6
CONTINUOUS
 10
13.769966
 20
7.397115
 30
0.000000
 40
0.164000
  0
LINE
  8
DIEM
 62
     7
  6
CONTINUOUS
 10
2.780402
 20
4.459170
 30
0.000000
 11
3.030402
 21
4.459170
 31
0.000000
  0
LINE
  8
DIEM
 62
     7
  6
CONTINUOUS
 10
2.780402
 20
4.459170
 30
0.000000
 11
2.905402
 21
4.242664
 31
0.000000
  0
LINE
  8
DIEM
 62
     7
  6
CONTINUOUS
 10
3.030402
 20
4.459170
 30
0.000000
 11
2.905402
 21
4.242664
 31
0.000000
  0
LINE
  8
DIEM
 62
     7
  6
CONTINUOUS
 10
4.103014
 20
4.104777
 30
0.000000
 11
3.886507
 21
3.979777
 31
0.000000
  0
LINE
  8
DIEM
 62
     7
  6
CONTINUOUS
 10
4.103014
 20
4.104777
 30
0.000000
 11
3.886507
 21
4.229777
 31
0.000000
  0
LINE
  8
DIEM
 62
     7
  6
CONTINUOUS
 10
3.886507
 20
3.979777
 30
0.000000
 11
3.886507
 21
4.229777
 31
0.000000
  0
LINE
  8
DIEM
 62
     7
  6
CONTINUOUS
 10
3.070478
 20
4.961597
 30
0.000000
 11
2.655402
 21
4.242664
 31
0.000000
  0
LINE
  8
DIEM
 62
     7
  6
CONTINUOUS
 10
4.103014
 20
5.006438
 30
0.000000
 11
4.103014
 21
3.854777
 31
0.000000
  0
TEXT
  8
DIEM
 62
     7
 10
3.092002
 20
4.069462
 30
0.000000
 40
0.250000
  1
30¦
  0
ARC
  8
DIEM
 62
     7
  6
CONTINUOUS
 10
4.103014
 20
6.750000
 30
0.000000
 40
2.645223
 50
240.000002
 51
246.795356
  0
ARC
  8
DIEM
 62
     7
  6
CONTINUOUS
 10
4.103014
 20
6.750000
 30
0.000000
 40
2.645223
 50
262.898835
 51
270.000000
  0
LINE
  8
DIEM
 62
     7
  6
CONTINUOUS
 10
1.468942
 20
6.980451
 30
0.000000
 11
1.574597
 21
6.753874
 31
0.000000
  0
LINE
  8
DIEM
 62
     7
  6
CONTINUOUS
 10
1.468942
 20
6.980451
 30
0.000000
 11
1.325548
 21
6.775663
 31
0.000000
  0
LINE
  8
DIEM
 62
     7
  6
CONTINUOUS
 10
1.574597
 20
6.753874
 30
0.000000
 11
1.325548
 21
6.775663
 31
0.000000
  0
LINE
  8
DIEM
 62
     7
  6
CONTINUOUS
 10
2.780947
 20
4.460114
 30
0.000000
 11
2.530947
 21
4.460114
 31
0.000000
  0
LINE
  8
DIEM
 62
     7
  6
CONTINUOUS
 10
2.780947
 20
4.460114
 30
0.000000
 11
2.655947
 21
4.676620
 31
0.000000
  0
LINE
  8
DIEM
 62
     7
  6
CONTINUOUS
 10
2.530947
 20
4.460114
 30
0.000000
 11
2.655947
 21
4.676620
 31
0.000000
  0
LINE
  8
DIEM
 62
     7
  6
CONTINUOUS
 10
2.380029
 20
6.900741
 30
0.000000
 11
1.219893
 21
7.002240
 31
0.000000
  0
LINE
  8
DIEM
 62
     7
  6
CONTINUOUS
 10
3.070478
 20
4.961597
 30
0.000000
 11
2.655947
 21
4.243607
 31
0.000000
  0
TEXT
  8
DIEM
 62
     7
 10
1.435742
 20
5.403462
 30
0.000000
 40
0.250000
  1
65¦
  0
ARC
  8
DIEM
 62
     7
  6
CONTINUOUS
 10
4.103014
 20
6.750000
 30
0.000000
 40
2.644133
 50
175.000006
 51
203.729789
  0
ARC
  8
DIEM
 62
     7
  6
CONTINUOUS
 10
4.103014
 20
6.750000
 30
0.000000
 40
2.644133
 50
211.404291
 51
240.000002
  0
LINE
  8
DIEM
 62
     7
  6
CONTINUOUS
 10
5.462835
 20
9.013122
 30
0.000000
 11
5.212874
 21
9.017485
 31
0.000000
  0
LINE
  8
DIEM
 62
     7
  6
CONTINUOUS
 10
5.462835
 20
9.013122
 30
0.000000
 11
5.341633
 21
9.231777
 31
0.000000
  0
LINE
  8
DIEM
 62
     7
  6
CONTINUOUS
 10
5.212874
 20
9.017485
 30
0.000000
 11
5.341633
 21
9.231777
 31
0.000000
  0
LINE
  8
DIEM
 62
     7
  6
CONTINUOUS
 10
3.071392
 20
9.180348
 30
0.000000
 11
3.221846
 21
9.380007
 31
0.000000
  0
LINE
  8
DIEM
 62
     7
  6
CONTINUOUS
 10
3.071392
 20
9.180348
 30
0.000000
 11
3.319528
 21
9.149881
 31
0.000000
  0
LINE
  8
DIEM
 62
     7
  6
CONTINUOUS
 10
3.221846
 20
9.380007
 30
0.000000
 11
3.319528
 21
9.149881
 31
0.000000
  0
LINE
  8
DIEM
 62
     7
  6
CONTINUOUS
 10
5.001363
 20
8.245103
 30
0.000000
 11
5.591595
 21
9.227414
 31
0.000000
  0
LINE
  8
DIEM
 62
     7
  6
CONTINUOUS
 10
3.269218
 20
8.714300
 30
0.000000
 11
2.973709
 21
9.410475
 31
0.000000
  0
TEXT
  8
DIEM
 62
     7
 10
3.961016
 20
9.258190
 30
0.000000
 40
0.250000
  1
54¦
  0
ARC
  8
DIEM
 62
     7
  6
CONTINUOUS
 10
4.103014
 20
6.750000
 30
0.000000
 40
2.640234
 50
58.999980
 51
78.162795
  0
ARC
  8
DIEM
 62
     7
  6
CONTINUOUS
 10
4.103014
 20
6.750000
 30
0.000000
 40
2.640234
 50
93.762356
 51
112.999999
  0
LINE
  8
DIEM
 62
     7
  6
CONTINUOUS
 10
6.738681
 20
6.750000
 30
0.000000
 11
6.613681
 21
6.966506
 31
0.000000
  0
LINE
  8
DIEM
 62
     7
  6
CONTINUOUS
 10
6.738681
 20
6.750000
 30
0.000000
 11
6.863681
 21
6.966506
 31
0.000000
  0
LINE
  8
DIEM
 62
     7
  6
CONTINUOUS
 10
6.613681
 20
6.966506
 30
0.000000
 11
6.863681
 21
6.966506
 31
0.000000
  0
LINE
  8
DIEM
 62
     7
  6
CONTINUOUS
 10
5.460484
 20
9.009208
 30
0.000000
 11
5.710446
 21
9.004845
 31
0.000000
  0
LINE
  8
DIEM
 62
     7
  6
CONTINUOUS
 10
5.460484
 20
9.009208
 30
0.000000
 11
5.581686
 21
8.790553
 31
0.000000
  0
LINE
  8
DIEM
 62
     7
  6
CONTINUOUS
 10
5.710446
 20
9.004845
 30
0.000000
 11
5.581686
 21
8.790553
 31
0.000000
  0
LINE
  8
DIEM
 62
     7
  6
CONTINUOUS
 10
4.868514
 20
6.750000
 30
0.000000
 11
6.988681
 21
6.750000
 31
0.000000
  0
LINE
  8
DIEM
 62
     7
  6
CONTINUOUS
 10
5.001363
 20
8.245103
 30
0.000000
 11
5.589243
 21
9.223500
 31
0.000000
  0
TEXT
  8
DIEM
 62
     7
 10
6.075086
 20
7.922252
 30
0.000000
 40
0.250000
  1
59¦
  0
ARC
  8
DIEM
 62
     7
  6
CONTINUOUS
 10
4.103014
 20
6.750000
 30
0.000000
 40
2.635668
 50
360.000000
 51
385.652250
  0
ARC
  8
DIEM
 62
     7
  6
CONTINUOUS
 10
4.103014
 20
6.750000
 30
0.000000
 40
2.635668
 50
33.500127
 51
58.999980
  0
LINE
  8
DIEM
 62
     7
  6
CONTINUOUS
 10
12.328003
 20
5.758893
 30
0.000000
 11
12.544510
 21
5.633893
 31
0.000000
  0
LINE
  8
DIEM
 62
     7
  6
CONTINUOUS
 10
12.328003
 20
5.758893
 30
0.000000
 11
12.328003
 21
5.508893
 31
0.000000
  0
LINE
  8
DIEM
 62
     7
  6
CONTINUOUS
 10
12.544510
 20
5.633893
 30
0.000000
 11
12.328003
 21
5.508893
 31
0.000000
  0
LINE
  8
DIEM
 62
     7
  6
CONTINUOUS
 10
14.044650
 20
4.767787
 30
0.000000
 11
13.828144
 21
4.642787
 31
0.000000
  0
LINE
  8
DIEM
 62
     7
  6
CONTINUOUS
 10
14.044650
 20
4.767787
 30
0.000000
 11
13.828144
 21
4.892787
 31
0.000000
  0
LINE
  8
DIEM
 62
     7
  6
CONTINUOUS
 10
13.828144
 20
4.642787
 30
0.000000
 11
13.828144
 21
4.892787
 31
0.000000
  0
LINE
  8
DIEM
 62
     7
  6
CONTINUOUS
 10
12.501640
 20
5.859143
 30
0.000000
 11
12.111497
 21
5.633893
 31
0.000000
  0
LINE
  8
DIEM
 62
     7
  6
CONTINUOUS
 10
14.044650
 20
5.006438
 30
0.000000
 11
14.044650
 21
4.517787
 31
0.000000
  0
TEXT
  8
DIEM
 62
     7
 10
12.721423
 20
4.907904
 30
0.000000
 40
0.250000
  1
60¦
  0
ARC
  8
DIEM
 62
     7
  6
CONTINUOUS
 10
14.044650
 20
6.750000
 30
0.000000
 40
1.982213
 50
210.000006
 51
231.903498
  0
ARC
  8
DIEM
 62
     7
  6
CONTINUOUS
 10
14.044650
 20
6.750000
 30
0.000000
 40
1.982213
 50
250.922646
 51
270.000000
  0
LINE
  8
DIEM
 62
     7
  6
CONTINUOUS
 10
14.182831
 20
8.726095
 30
0.000000
 11
13.958133
 21
8.616502
 31
0.000000
  0
LINE
  8
DIEM
 62
     7
  6
CONTINUOUS
 10
14.182831
 20
8.726095
 30
0.000000
 11
13.975572
 21
8.865893
 31
0.000000
  0
LINE
  8
DIEM
 62
     7
  6
CONTINUOUS
 10
13.958133
 20
8.616502
 30
0.000000
 11
13.975572
 21
8.865893
 31
0.000000
  0
LINE
  8
DIEM
 62
     7
  6
CONTINUOUS
 10
12.527177
 20
8.023311
 30
0.000000
 11
12.570589
 21
8.269513
 31
0.000000
  0
LINE
  8
DIEM
 62
     7
  6
CONTINUOUS
 10
12.527177
 20
8.023311
 30
0.000000
 11
12.762101
 21
8.108816
 31
0.000000
  0
LINE
  8
DIEM
 62
     7
  6
CONTINUOUS
 10
12.570589
 20
8.269513
 30
0.000000
 11
12.762101
 21
8.108816
 31
0.000000
  0
LINE
  8
DIEM
 62
     7
  6
CONTINUOUS
 10
14.163526
 20
8.450014
 30
0.000000
 11
14.200270
 21
8.975486
 31
0.000000
  0
LINE
  8
DIEM
 62
     7
  6
CONTINUOUS
 10
12.592785
 20
7.968260
 30
0.000000
 11
12.335666
 21
8.184008
 31
0.000000
  0
TEXT
  8
DIEM
 62
     7
 10
12.944472
 20
8.447834
 30
0.000000
 40
0.250000
  1
54¦
  0
ARC
  8
DIEM
 62
     7
  6
CONTINUOUS
 10
14.044650
 20
6.750000
 30
0.000000
 40
1.980920
 50
86.000019
 51
102.139880
  0
ARC
  8
DIEM
 62
     7
  6
CONTINUOUS
 10
14.044650
 20
6.750000
 30
0.000000
 40
1.980920
 50
122.720446
 51
139.999990
  0
LINE
  8
HUB
 62
     7
  6
CONTINUOUS
 10
14.044650
 20
6.750000
 30
0.000000
 11
13.357150
 21
5.559215
 31
0.000000
  0
LINE
  8
DIEM
 62
     7
  6
CONTINUOUS
 10
12.527788
 20
8.022798
 30
0.000000
 11
12.484376
 21
7.776597
 31
0.000000
  0
LINE
  8
DIEM
 62
     7
  6
CONTINUOUS
 10
12.527788
 20
8.022798
 30
0.000000
 11
12.292865
 21
7.937293
 31
0.000000
  0
LINE
  8
DIEM
 62
     7
  6
CONTINUOUS
 10
12.484376
 20
7.776597
 30
0.000000
 11
12.292865
 21
7.937293
 31
0.000000
  0
LINE
  8
DIEM
 62
     7
  6
CONTINUOUS
 10
12.329814
 20
5.759939
 30
0.000000
 11
12.113307
 21
5.884939
 31
0.000000
  0
LINE
  8
DIEM
 62
     7
  6
CONTINUOUS
 10
12.329814
 20
5.759939
 30
0.000000
 11
12.329814
 21
6.009939
 31
0.000000
  0
LINE
  8
DIEM
 62
     7
  6
CONTINUOUS
 10
12.113307
 20
5.884939
 30
0.000000
 11
12.329814
 21
6.009939
 31
0.000000
  0
LINE
  8
DIEM
 62
     7
  6
CONTINUOUS
 10
12.592785
 20
7.968260
 30
0.000000
 11
12.336277
 21
8.183495
 31
0.000000
  0
LINE
  8
DIEM
 62
     7
  6
CONTINUOUS
 10
12.501640
 20
5.859143
 30
0.000000
 11
12.113308
 21
5.634939
 31
0.000000
  0
TEXT
  8
DIEM
 62
     7
 10
11.749258
 20
6.797130
 30
0.000000
 40
0.250000
  1
70¦
  0
ARC
  8
DIEM
 62
     7
  6
CONTINUOUS
 10
14.044650
 20
6.750000
 30
0.000000
 40
1.980122
 50
139.999990
 51
170.427704
  0
ARC
  8
DIEM
 62
     7
  6
CONTINUOUS
 10
14.044650
 20
6.750000
 30
0.000000
 40
1.980122
 50
179.540507
 51
210.000006
  0
LINE
  8
DIEM
 62
     7
  6
CONTINUOUS
 10
15.724454
 20
7.799658
 30
0.000000
 11
15.503717
 21
7.917026
 31
0.000000
  0
LINE
  8
DIEM
 62
     7
  6
CONTINUOUS
 10
15.724454
 20
7.799658
 30
0.000000
 11
15.715729
 21
8.049506
 31
0.000000
  0
LINE
  8
DIEM
 62
     7
  6
CONTINUOUS
 10
15.503717
 20
7.917026
 30
0.000000
 11
15.715729
 21
8.049506
 31
0.000000
  0
LINE
  8
DIEM
 62
     7
  6
CONTINUOUS
 10
14.182822
 20
8.725963
 30
0.000000
 11
14.407521
 21
8.835556
 31
0.000000
  0
LINE
  8
DIEM
 62
     7
  6
CONTINUOUS
 10
14.182822
 20
8.725963
 30
0.000000
 11
14.390082
 21
8.586165
 31
0.000000
  0
LINE
  8
DIEM
 62
     7
  6
CONTINUOUS
 10
14.407521
 20
8.835556
 30
0.000000
 11
14.390082
 21
8.586165
 31
0.000000
  0
LINE
  8
DIEM
 62
     7
  6
CONTINUOUS
 10
15.607743
 20
7.726729
 30
0.000000
 11
15.936466
 21
7.932138
 31
0.000000
  0
LINE
  8
DIEM
 62
     7
  6
CONTINUOUS
 10
14.163526
 20
8.450014
 30
0.000000
 11
14.200261
 21
8.975354
 31
0.000000
  0
TEXT
  8
DIEM
 62
     7
 10
14.738660
 20
8.322254
 30
0.000000
 40
0.250000
  1
54¦
  0
ARC
  8
DIEM
 62
     7
  6
CONTINUOUS
 10
14.044650
 20
6.750000
 30
0.000000
 40
1.980788
 50
31.999997
 51
51.075561
  0
ARC
  8
DIEM
 62
     7
  6
CONTINUOUS
 10
14.044650
 20
6.750000
 30
0.000000
 40
1.980788
 50
69.448906
 51
86.000019
  0
LINE
  8
DIEM
 62
     7
  6
CONTINUOUS
 10
15.726506
 20
5.699059
 30
0.000000
 11
15.735231
 21
5.948907
 31
0.000000
  0
LINE
  8
DIEM
 62
     7
  6
CONTINUOUS
 10
15.726506
 20
5.699059
 30
0.000000
 11
15.947243
 21
5.816427
 31
0.000000
  0
LINE
  8
DIEM
 62
     7
  6
CONTINUOUS
 10
15.735231
 20
5.948907
 30
0.000000
 11
15.947243
 21
5.816427
 31
0.000000
  0
LINE
  8
DIEM
 62
     7
  6
CONTINUOUS
 10
15.726507
 20
7.800940
 30
0.000000
 11
15.947243
 21
7.683573
 31
0.000000
  0
LINE
  8
DIEM
 62
     7
  6
CONTINUOUS
 10
15.726507
 20
7.800940
 30
0.000000
 11
15.735231
 21
7.551093
 31
0.000000
  0
LINE
  8
DIEM
 62
     7
  6
CONTINUOUS
 10
15.947243
 20
7.683573
 30
0.000000
 11
15.735231
 21
7.551093
 31
0.000000
  0
LINE
  8
DIEM
 62
     7
  6
CONTINUOUS
 10
15.542267
 20
5.814185
 30
0.000000
 11
15.938519
 21
5.566580
 31
0.000000
  0
LINE
  8
DIEM
 62
     7
  6
CONTINUOUS
 10
15.607743
 20
7.726729
 30
0.000000
 11
15.938519
 21
7.933420
 31
0.000000
  0
TEXT
  8
DIEM
 62
     7
 10
15.677025
 20
6.888436
 30
0.000000
 40
0.250000
  1
64¦
  0
ARC
  8
DIEM
 62
     7
  6
CONTINUOUS
 10
14.044650
 20
6.750000
 30
0.000000
 40
1.983209
 50
327.999999
 51
363.098141
  0
ARC
  8
DIEM
 62
     7
  6
CONTINUOUS
 10
14.044650
 20
6.750000
 30
0.000000
 40
1.983209
 50
12.234856
 51
31.999997
  0
LINE
  8
DIEM
 62
     7
  6
CONTINUOUS
 10
14.044650
 20
4.768102
 30
0.000000
 11
14.261156
 21
4.893102
 31
0.000000
  0
LINE
  8
DIEM
 62
     7
  6
CONTINUOUS
 10
14.044650
 20
4.768102
 30
0.000000
 11
14.261156
 21
4.643102
 31
0.000000
  0
LINE
  8
DIEM
 62
     7
  6
CONTINUOUS
 10
14.261156
 20
4.893102
 30
0.000000
 11
14.261156
 21
4.643102
 31
0.000000
  0
LINE
  8
DIEM
 62
     7
  6
CONTINUOUS
 10
15.725395
 20
5.699754
 30
0.000000
 11
15.716670
 21
5.449906
 31
0.000000
  0
LINE
  8
DIEM
 62
     7
  6
CONTINUOUS
 10
15.725395
 20
5.699754
 30
0.000000
 11
15.504658
 21
5.582386
 31
0.000000
  0
LINE
  8
DIEM
 62
     7
  6
CONTINUOUS
 10
15.716670
 20
5.449906
 30
0.000000
 11
15.504658
 21
5.582386
 31
0.000000
  0
LINE
  8
DIEM
 62
     7
  6
CONTINUOUS
 10
14.044650
 20
5.006438
 30
0.000000
 11
14.044650
 21
4.518102
 31
0.000000
  0
LINE
  8
DIEM
 62
     7
  6
CONTINUOUS
 10
15.542267
 20
5.814185
 30
0.000000
 11
15.937407
 21
5.567274
 31
0.000000
  0
TEXT
  8
DIEM
 62
     7
 10
14.697618
 20
4.890543
 30
0.000000
 40
0.250000
  1
58¦
  0
ARC
  8
DIEM
 62
     7
  6
CONTINUOUS
 10
14.044650
 20
6.750000
 30
0.000000
 40
1.981898
 50
270.000000
 51
288.282231
  0
ARC
  8
DIEM
 62
     7
  6
CONTINUOUS
 10
14.044650
 20
6.750000
 30
0.000000
 40
1.981898
 50
307.320969
 51
327.999999
  0
LINE
  8
DIEM
 62
     7
  6
CONTINUOUS
 10
3.070691
 20
9.182000
 30
0.000000
 11
2.920237
 21
8.982341
 31
0.000000
  0
LINE
  8
DIEM
 62
     7
  6
CONTINUOUS
 10
3.070691
 20
9.182000
 30
0.000000
 11
2.822554
 21
9.212467
 31
0.000000
  0
LINE
  8
DIEM
 62
     7
  6
CONTINUOUS
 10
2.920237
 20
8.982341
 30
0.000000
 11
2.822554
 21
9.212467
 31
0.000000
  0
LINE
  8
DIEM
 62
     7
  6
CONTINUOUS
 10
1.471039
 20
6.980268
 30
0.000000
 11
1.365385
 21
7.206845
 31
0.000000
  0
LINE
  8
DIEM
 62
     7
  6
CONTINUOUS
 10
1.471039
 20
6.980268
 30
0.000000
 11
1.614433
 21
7.185056
 31
0.000000
  0
LINE
  8
DIEM
 62
     7
  6
CONTINUOUS
 10
1.365385
 20
7.206845
 30
0.000000
 11
1.614433
 21
7.185056
 31
0.000000
  0
LINE
  8
DIEM
 62
     7
  6
CONTINUOUS
 10
3.269218
 20
8.714300
 30
0.000000
 11
2.973008
 21
9.412126
 31
0.000000
  0
LINE
  8
DIEM
 62
     7
  6
CONTINUOUS
 10
2.380029
 20
6.900741
 30
0.000000
 11
1.221990
 21
7.002057
 31
0.000000
  0
TEXT
  8
DIEM
 62
     7
 10
1.648755
 20
8.177474
 30
0.000000
 40
0.250000
  1
62¦
  0
ARC
  8
DIEM
 62
     7
  6
CONTINUOUS
 10
4.103014
 20
6.750000
 30
0.000000
 40
2.642028
 50
112.999999
 51
139.676410
  0
ARC
  8
DIEM
 62
     7
  6
CONTINUOUS
 10
4.103014
 20
6.750000
 30
0.000000
 40
2.642028
 50
148.098085
 51
175.000006
  0
LINE
  8
DIEM
 62
     7
  6
CONTINUOUS
 10
5.380730
 20
4.444938
 30
0.000000
 11
5.509489
 21
4.659230
 31
0.000000
  0
LINE
  8
DIEM
 62
     7
  6
CONTINUOUS
 10
5.380730
 20
4.444938
 30
0.000000
 11
5.630691
 21
4.440575
 31
0.000000
  0
LINE
  8
DIEM
 62
     7
  6
CONTINUOUS
 10
5.509489
 20
4.659230
 30
0.000000
 11
5.630691
 21
4.440575
 31
0.000000
  0
LINE
  8
DIEM
 62
     7
  6
CONTINUOUS
 10
6.738515
 20
6.750000
 30
0.000000
 11
6.863515
 21
6.533494
 31
0.000000
  0
LINE
  8
DIEM
 62
     7
  6
CONTINUOUS
 10
6.738515
 20
6.750000
 30
0.000000
 11
6.613515
 21
6.533494
 31
0.000000
  0
LINE
  8
DIEM
 62
     7
  6
CONTINUOUS
 10
6.863515
 20
6.533494
 30
0.000000
 11
6.613515
 21
6.533494
 31
0.000000
  0
LINE
  8
DIEM
 62
     7
  6
CONTINUOUS
 10
4.973440
 20
5.179708
 30
0.000000
 11
5.501932
 21
4.226283
 31
0.000000
  0
LINE
  8
DIEM
 62
     7
  6
CONTINUOUS
 10
4.868514
 20
6.750000
 30
0.000000
 11
6.988515
 21
6.750000
 31
0.000000
  0
TEXT
  8
DIEM
 62
     7
 10
6.096645
 20
5.287084
 30
0.000000
 40
0.250000
  1
61¦
  0
ARC
  8
DIEM
 62
     7
  6
CONTINUOUS
 10
4.103014
 20
6.750000
 30
0.000000
 40
2.635502
 50
298.999986
 51
325.463024
  0
ARC
  8
DIEM
 62
     7
  6
CONTINUOUS
 10
4.103014
 20
6.750000
 30
0.000000
 40
2.635502
 50
333.375656
 51
360.000000
  0
LINE
  8
DIEM
 62
     7
  6
CONTINUOUS
 10
4.103014
 20
4.113872
 30
0.000000
 11
4.319520
 21
4.238872
 31
0.000000
  0
LINE
  8
DIEM
 62
     7
  6
CONTINUOUS
 10
4.103014
 20
4.113872
 30
0.000000
 11
4.319520
 21
3.988872
 31
0.000000
  0
LINE
  8
DIEM
 62
     7
  6
CONTINUOUS
 10
4.319520
 20
4.238872
 30
0.000000
 11
4.319520
 21
3.988872
 31
0.000000
  0
LINE
  8
DIEM
 62
     7
  6
CONTINUOUS
 10
5.381033
 20
4.444390
 30
0.000000
 11
5.252274
 21
4.230098
 31
0.000000
  0
LINE
  8
DIEM
 62
     7
  6
CONTINUOUS
 10
5.381033
 20
4.444390
 30
0.000000
 11
5.131071
 21
4.448753
 31
0.000000
  0
LINE
  8
DIEM
 62
     7
  6
CONTINUOUS
 10
5.252274
 20
4.230098
 30
0.000000
 11
5.131071
 21
4.448753
 31
0.000000
  0
LINE
  8
DIEM
 62
     7
  6
CONTINUOUS
 10
4.103014
 20
5.006438
 30
0.000000
 11
4.103014
 21
3.863872
 31
0.000000
  0
LINE
  8
DIEM
 62
     7
  6
CONTINUOUS
 10
4.973440
 20
5.179708
 30
0.000000
 11
5.502236
 21
4.225735
 31
0.000000
  0
TEXT
  8
DIEM
 62
     7
 10
4.446235
 20
4.072607
 30
0.000000
 40
0.250000
  1
29¦
  0
ARC
  8
DIEM
 62
     7
  6
CONTINUOUS
 10
4.103014
 20
6.750000
 30
0.000000
 40
2.636128
 50
270.000000
 51
276.796565
  0
ARC
  8
DIEM
 62
     7
  6
CONTINUOUS
 10
4.103014
 20
6.750000
 30
0.000000
 40
2.636128
 50
292.483375
 51
298.999986
  0
LINE
  8
DIEM
 62
     7
  6
CONTINUOUS
 10
4.103014
 20
3.899086
 30
0.000000
 11
4.351791
 21
3.923778
 31
0.000000
  0
LINE
  8
DIEM
 62
     7
  6
CONTINUOUS
 10
4.103014
 20
3.899086
 30
0.000000
 11
4.248786
 21
3.695984
 31
0.000000
  0
LINE
  8
DIEM
 62
     7
  6
CONTINUOUS
 10
4.351791
 20
3.923778
 30
0.000000
 11
4.248786
 21
3.695984
 31
0.000000
  0
LINE
  8
DIEM
 62
     7
  6
CONTINUOUS
 10
4.103014
 20
3.899086
 30
0.000000
 11
6.240304
 21
2.932637
 31
0.000000
  0
LINE
  8
DIEM
 62
     7
  6
CONTINUOUS
 10
6.240304
 20
2.932637
 30
0.000000
 11
7.240304
 21
2.932637
 31
0.000000
  0
TEXT
  8
DIEM
 62
     7
 10
7.302804
 20
2.807637
 30
0.000000
 40
0.250000
  1
SLIT CENTER LINE
  0
LINE
  8
DIEM
 62
     7
  6
CONTINUOUS
 10
14.044650
 20
4.532276
 30
0.000000
 11
14.002137
 21
4.285917
 31
0.000000
  0
LINE
  8
DIEM
 62
     7
  6
CONTINUOUS
 10
14.044650
 20
4.532276
 30
0.000000
 11
13.810041
 21
4.445914
 31
0.000000
  0
LINE
  8
DIEM
 62
     7
  6
CONTINUOUS
 10
14.002137
 20
4.285917
 30
0.000000
 11
13.810041
 21
4.445914
 31
0.000000
  0
LINE
  8
DIEM
 62
     7
  6
CONTINUOUS
 10
14.044650
 20
4.532276
 30
0.000000
 11
12.684556
 21
2.899312
 31
0.000000
  0
LINE
  8
DIEM
 62
     7
  6
CONTINUOUS
 10
12.684556
 20
2.899312
 30
0.000000
 11
11.684556
 21
2.899312
 31
0.000000
  0
TEXT
  8
BUSH
 62
     7
 10
2.070824
 20
10.487022
 30
0.000000
 40
0.250000
  1
CAPSCREW LOCATION
  0
TEXT
  8
PARTS
 62
     7
 10
12.797138
 20
11.895250
 30
0.000000
 40
0.125000
  1
ELECTRO AUTOMOTIVE
  0
TEXT
  8
PARTS
 62
     7
 10
12.797138
 20
11.707749
 30
0.000000
 40
0.125000
  1
P.O. BOX 1113 FELTON CA. 95018-1113
  0
TEXT
  8
PARTS
 62
     7
 10
12.797138
 20
11.520249
 30
0.000000
 40
0.125000
  1
PHONE 408-429-1989 FAX 408-429-1907
  0
TEXT
  8
PARTS
 62
     7
 10
12.797138
 20
11.332749
 30
0.000000
 40
0.125000
  1
DRAWN BY MICHAEL P. BROWN
  0
LINE
  8
PARTS
 62
     7
  6
CONTINUOUS
 10
12.664392
 20
12.132745
 30
0.000000
 11
16.230843
 21
12.132745
 31
0.000000
  0
LINE
  8
PARTS
 62
     7
  6
CONTINUOUS
 10
16.230843
 20
12.132745
 30
0.000000
 11
16.230843
 21
11.232760
 31
0.000000
  0
LINE
  8
PARTS
 62
     7
  6
CONTINUOUS
 10
16.230843
 20
11.232760
 30
0.000000
 11
12.664392
 21
11.232760
 31
0.000000
  0
LINE
  8
PARTS
 62
     7
  6
CONTINUOUS
 10
12.664392
 20
11.232760
 30
0.000000
 11
12.664392
 21
12.132745
 31
0.000000
  0
TEXT
  8
BUSH
 62
     7
 10
10.095257
 20
9.403392
 30
0.000000
 40
0.250000
  1
FLYWHEEL BOLT LOCATION
  0
TEXT
  8
BUSH
 62
     7
 10
12.688851
 20
10.918135
 30
0.000000
 40
0.125000
  1
PORSCHE 911 ADAPTOR
  0
TEXT
  8
BUSH
 62
     7
 10
12.688851
 20
10.730635
 30
0.000000
 40
0.125000
  1
HUB HOLE LOCATION PRINT
  0
ENDSEC
  0
EOF
