  0
SECTION
  2
HEADER
  9
$ACADVER
  1
AC1006
  0
ENDSEC
  0
SECTION
  2
TABLES
  0
TABLE
  2
LTYPE
 70
    25
  0
LTYPE
  2
CONTINUOUS
 70
    64
  3
Solid line
 72
    64
 73
     0
 40
0.000000
  0
LTYPE
  2
DASHDOT
 70
    64
  3
__ . __ . __ . __ . __ . __ . __ . __ . __ . __
 72
    65
 73
     4
 40
1.000000
 49
0.500000
 49
-0.250000
 49
0.000000
 49
-0.250000
  0
LTYPE
  2
DASHED
 70
    64
  3
__ __ __ __ __ __ __ __ __ __ __ __ __ __ __ __
 72
    65
 73
     2
 40
0.750000
 49
0.500000
 49
-0.250000
  0
LTYPE
  2
DIVIDE
 70
    64
  3
____ . . ____ . . ____ . . ____ . . ____ . . __
 72
    65
 73
     6
 40
1.250000
 49
0.500000
 49
-0.250000
 49
0.000000
 49
-0.250000
 49
0.000000
 49
-0.250000
  0
LTYPE
  2
DOT
 70
    64
  3
. . . . . . . . . . . . . . . . . . . . . . . . 
 72
    65
 73
     2
 40
0.250000
 49
0.000000
 49
-0.250000
  0
ENDTAB
  0
ENDSEC
  0
SECTION
  2
ENTITIES
  0
LINE
  8
CNTRLINE
 62
     7
  6
CONTINUOUS
 10
0.500000
 20
6.750000
 30
0.000000
 11
17.000000
 21
6.750000
 31
0.000000
  0
POINT
  8
PARTS
 62
     7
 10
5.500000
 20
6.750000
 30
0.000000
  0
POINT
  8
PARTS
 62
     7
 10
5.385000
 20
11.867499
 30
0.000000
  0
POINT
  8
PARTS
 62
     7
 10
5.385000
 20
1.632501
 30
0.000000
  0
LINE
  8
PARTS
 62
     7
  6
CONTINUOUS
 10
5.385000
 20
1.632501
 30
0.000000
 11
5.500000
 21
1.632501
 31
0.000000
  0
LINE
  8
PARTS
 62
     7
  6
CONTINUOUS
 10
5.385000
 20
11.867499
 30
0.000000
 11
5.500000
 21
11.867499
 31
0.000000
  0
LINE
  8
PARTS
 62
     7
  6
CONTINUOUS
 10
5.385000
 20
11.867500
 30
0.000000
 11
5.385000
 21
11.985000
 31
0.000000
  0
LINE
  8
PARTS
 62
     7
  6
CONTINUOUS
 10
5.385000
 20
1.632501
 30
0.000000
 11
5.385000
 21
1.515001
 31
0.000000
  0
LINE
  8
PARTS
 62
     7
  6
CONTINUOUS
 10
5.385000
 20
11.985000
 30
0.000000
 11
5.879000
 21
11.985000
 31
0.000000
  0
LINE
  8
PARTS
 62
     7
  6
CONTINUOUS
 10
5.500000
 20
11.867499
 30
0.000000
 11
5.500000
 21
1.632501
 31
0.000000
  0
LINE
  8
PARTS
 62
     7
  6
CONTINUOUS
 10
5.385000
 20
1.515001
 30
0.000000
 11
5.879000
 21
1.515001
 31
0.000000
  0
POINT
  8
PARTS
 62
     7
 10
5.879000
 20
10.265000
 30
0.000000
  0
POINT
  8
PARTS
 62
     7
 10
5.879000
 20
3.235000
 30
0.000000
  0
LINE
  8
PARTS
 62
     7
  6
CONTINUOUS
 10
5.385000
 20
1.632501
 30
0.000000
 11
5.385000
 21
11.867499
 31
0.000000
  0
LINE
  8
PARTS
 62
     7
  6
CONTINUOUS
 10
5.879000
 20
10.265000
 30
0.000000
 11
5.946000
 21
10.186000
 31
0.000000
  0
LINE
  8
PARTS
 62
     7
  6
CONTINUOUS
 10
5.879000
 20
10.265001
 30
0.000000
 11
5.879000
 21
11.985000
 31
0.000000
  0
LINE
  8
PARTS
 62
     7
  6
CONTINUOUS
 10
5.879000
 20
3.235000
 30
0.000000
 11
5.879000
 21
1.515001
 31
0.000000
  0
LINE
  8
PARTS
 62
     7
  6
CONTINUOUS
 10
5.879000
 20
3.235000
 30
0.000000
 11
5.946000
 21
3.314000
 31
0.000000
  0
POINT
  8
PARTS
 62
     7
 10
5.946000
 20
9.835000
 30
0.000000
  0
POINT
  8
PARTS
 62
     7
 10
5.946000
 20
3.665000
 30
0.000000
  0
LINE
  8
PARTS
 62
     7
  6
CONTINUOUS
 10
6.430000
 20
5.292000
 30
0.000000
 11
6.282000
 21
5.292000
 31
0.000000
  0
LINE
  8
PARTS
 62
     7
  6
CONTINUOUS
 10
6.430000
 20
8.208000
 30
0.000000
 11
6.282000
 21
8.208000
 31
0.000000
  0
LINE
  8
PARTS
 62
     7
  6
CONTINUOUS
 10
5.946000
 20
3.665000
 30
0.000000
 11
6.282000
 21
5.292000
 31
0.000000
  0
LINE
  8
PARTS
 62
     7
  6
CONTINUOUS
 10
5.946000
 20
9.835000
 30
0.000000
 11
5.946000
 21
10.186000
 31
0.000000
  0
LINE
  8
PARTS
 62
     7
  6
CONTINUOUS
 10
5.946000
 20
3.665000
 30
0.000000
 11
5.946000
 21
3.314000
 31
0.000000
  0
LINE
  8
PARTS
 62
     7
  6
CONTINUOUS
 10
5.946000
 20
9.835000
 30
0.000000
 11
6.282000
 21
8.208000
 31
0.000000
  0
LINE
  8
PARTS
 62
     7
  6
CONTINUOUS
 10
6.430000
 20
8.030000
 30
0.000000
 11
6.275000
 21
8.030000
 31
0.000000
  0
LINE
  8
PARTS
 62
     7
  6
CONTINUOUS
 10
6.430000
 20
5.470000
 30
0.000000
 11
6.275000
 21
5.470000
 31
0.000000
  0
LINE
  8
PARTS
 62
     7
  6
CONTINUOUS
 10
6.275000
 20
5.470000
 30
0.000000
 11
6.275000
 21
8.030000
 31
0.000000
  0
LINE
  8
PARTS
 62
     7
  6
CONTINUOUS
 10
6.430000
 20
8.030000
 30
0.000000
 11
6.430000
 21
8.208000
 31
0.000000
  0
LINE
  8
PARTS
 62
     7
  6
CONTINUOUS
 10
6.430000
 20
5.470000
 30
0.000000
 11
6.430000
 21
5.292000
 31
0.000000
  0
POINT
  8
PARTS
 62
     7
 10
5.500000
 20
3.984500
 30
0.000000
  0
POINT
  8
PARTS
 62
     7
 10
5.500000
 20
9.515500
 30
0.000000
  0
LINE
  8
PARTS
 62
     7
  6
CONTINUOUS
 10
5.500000
 20
9.515500
 30
0.000000
 11
5.703000
 21
9.515500
 31
0.000000
  0
LINE
  8
PARTS
 62
     7
  6
CONTINUOUS
 10
5.500000
 20
3.984500
 30
0.000000
 11
5.703000
 21
3.984500
 31
0.000000
  0
LINE
  8
PARTS
 62
     7
  6
CONTINUOUS
 10
5.933000
 20
5.402000
 30
0.000000
 11
5.879000
 21
5.402000
 31
0.000000
  0
LINE
  8
PARTS
 62
     7
  6
CONTINUOUS
 10
5.933000
 20
8.098000
 30
0.000000
 11
5.879000
 21
8.098000
 31
0.000000
  0
LINE
  8
PARTS
 62
     7
  6
CONTINUOUS
 10
5.879000
 20
8.470000
 30
0.000000
 11
5.879000
 21
8.098000
 31
0.000000
  0
LINE
  8
PARTS
 62
     7
  6
CONTINUOUS
 10
5.879000
 20
5.402000
 30
0.000000
 11
5.879000
 21
5.030000
 31
0.000000
  0
LINE
  8
PARTS
 62
     7
  6
CONTINUOUS
 10
5.703000
 20
9.515500
 30
0.000000
 11
5.879000
 21
8.470000
 31
0.000000
  0
LINE
  8
PARTS
 62
     7
  6
CONTINUOUS
 10
5.703000
 20
3.984500
 30
0.000000
 11
5.879000
 21
5.030000
 31
0.000000
  0
LINE
  8
PARTS
 62
     7
  6
CONTINUOUS
 10
5.503000
 20
6.256000
 30
0.000000
 11
6.275000
 21
6.256000
 31
0.000000
  0
LINE
  8
PARTS
 62
     7
  6
CONTINUOUS
 10
5.503000
 20
7.244000
 30
0.000000
 11
6.275000
 21
7.244000
 31
0.000000
  0
LINE
  8
PARTS
 62
     7
  6
CONTINUOUS
 10
5.933000
 20
7.244000
 30
0.000000
 11
5.933000
 21
8.098000
 31
0.000000
  0
LINE
  8
PARTS
 62
     7
  6
CONTINUOUS
 10
5.933000
 20
6.256000
 30
0.000000
 11
5.933000
 21
5.402000
 31
0.000000
  0
LINE
  8
PARTS
 62
     7
  6
CONTINUOUS
 10
5.500000
 20
7.059000
 30
0.000000
 11
6.275000
 21
7.059000
 31
0.000000
  0
LINE
  8
PARTS
 62
     7
  6
CONTINUOUS
 10
5.500000
 20
6.441000
 30
0.000000
 11
6.275000
 21
6.441000
 31
0.000000
  0
LINE
  8
PARTS
 62
     7
  6
CONTINUOUS
 10
5.933000
 20
7.852500
 30
0.000000
 11
6.275000
 21
7.852500
 31
0.000000
  0
LINE
  8
PARTS
 62
     7
  6
CONTINUOUS
 10
5.933000
 20
7.368500
 30
0.000000
 11
6.275000
 21
7.368500
 31
0.000000
  0
LINE
  8
PLATE
 62
     7
  6
CONTINUOUS
 10
5.995000
 20
12.175000
 30
0.000000
 11
6.120000
 21
12.175000
 31
0.000000
  0
LINE
  8
PLATE
 62
     7
  6
CONTINUOUS
 10
5.995000
 20
12.300000
 30
0.000000
 11
5.870000
 21
12.300000
 31
0.000000
  0
LINE
  8
PLATE
 62
     7
  6
CONTINUOUS
 10
5.870000
 20
12.300000
 30
0.000000
 11
5.870000
 21
12.175000
 31
0.000000
  0
LINE
  8
PLATE
 62
     7
  6
CONTINUOUS
 10
5.870000
 20
12.175000
 30
0.000000
 11
5.995000
 21
12.175000
 31
0.000000
  0
LINE
  8
PLATE
 62
     7
  6
CONTINUOUS
 10
5.995000
 20
12.300000
 30
0.000000
 11
5.995000
 21
12.556035
 31
0.000000
  0
POINT
  8
PLATE
 62
     7
 10
6.120000
 20
10.375000
 30
0.000000
  0
POINT
  8
PLATE
 62
     7
 10
6.120000
 20
10.375000
 30
0.000000
  0
LINE
  8
PLATE
 62
     7
  6
CONTINUOUS
 10
6.371000
 20
10.109400
 30
0.000000
 11
6.371000
 21
10.640600
 31
0.000000
  0
LINE
  8
PLATE
 62
     7
  6
CONTINUOUS
 10
6.120000
 20
10.843500
 30
0.000000
 11
6.371000
 21
10.640600
 31
0.000000
  0
LINE
  8
PLATE
 62
     7
  6
CONTINUOUS
 10
6.371000
 20
10.109400
 30
0.000000
 11
6.120000
 21
9.906500
 31
0.000000
  0
LINE
  8
PLATE
 62
     7
  6
CONTINUOUS
 10
5.995000
 20
12.556035
 30
0.000000
 11
6.620000
 21
12.556035
 31
0.000000
  0
LINE
  8
PLATE
 62
     7
  6
CONTINUOUS
 10
6.120000
 20
9.750000
 30
0.000000
 11
6.495000
 21
9.750000
 31
0.000000
  0
LINE
  8
PLATE
 62
     7
  6
CONTINUOUS
 10
6.620000
 20
11.000000
 30
0.000000
 11
6.495000
 21
11.000000
 31
0.000000
  0
LINE
  8
PLATE
 62
     7
  6
CONTINUOUS
 10
6.495000
 20
11.000000
 30
0.000000
 11
6.495000
 21
9.750000
 31
0.000000
  0
LINE
  8
PLATE
 62
     7
  6
CONTINUOUS
 10
6.120000
 20
10.843500
 30
0.000000
 11
6.120000
 21
9.750000
 31
0.000000
  0
LINE
  8
PLATE
 62
     7
  6
CONTINUOUS
 10
6.120000
 20
12.175000
 30
0.000000
 11
6.120000
 21
10.843500
 31
0.000000
  0
LINE
  8
PLATE
 62
     7
  6
CONTINUOUS
 10
6.495000
 20
3.750000
 30
0.000000
 11
6.120000
 21
3.750000
 31
0.000000
  0
LINE
  8
PLATE
 62
     7
  6
CONTINUOUS
 10
6.120000
 20
3.750000
 30
0.000000
 11
6.120000
 21
1.272702
 31
0.000000
  0
LINE
  8
PLATE
 62
     7
  6
CONTINUOUS
 10
6.120000
 20
1.272702
 30
0.000000
 11
6.620000
 21
1.272702
 31
0.000000
  0
LINE
  8
PLATE
 62
     7
  6
CONTINUOUS
 10
6.495000
 20
2.500000
 30
0.000000
 11
6.622792
 21
2.500000
 31
0.000000
  0
LINE
  8
PLATE
 62
     7
  6
CONTINUOUS
 10
6.620000
 20
12.556035
 30
0.000000
 11
6.620000
 21
11.000000
 31
0.000000
  0
LINE
  8
PLATE
 62
     7
  6
CONTINUOUS
 10
6.495000
 20
10.109400
 30
0.000000
 11
6.371000
 21
10.109400
 31
0.000000
  0
LINE
  8
PLATE
 62
     7
  6
CONTINUOUS
 10
6.495000
 20
10.640600
 30
0.000000
 11
6.371000
 21
10.640600
 31
0.000000
  0
LINE
  8
PLATE
 62
     7
  6
CONTINUOUS
 10
6.120000
 20
3.750000
 30
0.000000
 11
6.120000
 21
4.507554
 31
0.000000
  0
LINE
  8
PLATE
 62
     7
  6
CONTINUOUS
 10
6.120000
 20
9.750000
 30
0.000000
 11
6.120000
 21
8.992446
 31
0.000000
  0
LINE
  8
PLATE
 62
     7
  6
CONTINUOUS
 10
6.620000
 20
2.500000
 30
0.000000
 11
6.620000
 21
1.272702
 31
0.000000
  0
POINT
  8
ADC9
 62
     7
 10
9.231676
 20
6.750000
 30
0.000000
  0
LINE
  8
ADC9
 62
     7
  6
CONTINUOUS
 10
9.231676
 20
6.750000
 30
0.000000
 11
9.231676
 21
11.315000
 31
0.000000
  0
LINE
  8
ADC9
 62
     7
  6
CONTINUOUS
 10
9.231676
 20
2.185000
 30
0.000000
 11
10.761583
 21
2.185000
 31
0.000000
  0
LINE
  8
ADC9
 62
     7
  6
CONTINUOUS
 10
9.231676
 20
11.315000
 30
0.000000
 11
10.729809
 21
11.315000
 31
0.000000
  0
POINT
  8
ADC9
 62
     7
 10
9.231676
 20
6.750000
 30
0.000000
  0
POINT
  8
ADC9
 62
     7
 10
9.236000
 20
8.749995
 30
0.000000
  0
POINT
  8
ADC9
 62
     7
 10
9.231676
 20
6.750000
 30
0.000000
  0
LINE
  8
ADC9
 62
     7
  6
CONTINUOUS
 10
9.231676
 20
11.315000
 30
0.000000
 11
9.231676
 21
6.750000
 31
0.000000
  0
POINT
  8
ADC9
 62
     7
 10
9.236124
 20
4.750005
 30
0.000000
  0
LINE
  8
ADC9
 62
     7
  6
CONTINUOUS
 10
9.236000
 20
8.749995
 30
0.000000
 11
9.045000
 21
8.749995
 31
0.000000
  0
LINE
  8
ADC9
 62
     7
  6
CONTINUOUS
 10
9.236124
 20
4.750005
 30
0.000000
 11
9.045124
 21
4.750005
 31
0.000000
  0
LINE
  8
ADC9
 62
     7
  6
CONTINUOUS
 10
9.045000
 20
8.749995
 30
0.000000
 11
9.045000
 21
4.750005
 31
0.000000
  0
POINT
  8
ADC9
 62
     7
 10
9.045000
 20
6.750000
 30
0.000000
  0
POINT
  8
ADC9
 62
     7
 10
9.054943
 20
8.348969
 30
0.000000
  0
POINT
  8
ADC9
 62
     7
 10
9.051756
 20
5.150971
 30
0.000000
  0
POINT
  8
ADC9
 62
     7
 10
9.045000
 20
6.750000
 30
0.000000
  0
POINT
  8
ADC9
 62
     7
 10
8.702999
 20
6.750000
 30
0.000000
  0
LINE
  8
ADC9
 62
     7
  6
CONTINUOUS
 10
8.702999
 20
6.750000
 30
0.000000
 11
8.702999
 21
8.190000
 31
0.000000
  0
LINE
  8
ADC9
 62
     7
  6
CONTINUOUS
 10
8.702999
 20
6.750000
 30
0.000000
 11
8.702999
 21
5.310000
 31
0.000000
  0
LINE
  8
ADC9
 62
     7
  6
CONTINUOUS
 10
8.702999
 20
5.310000
 30
0.000000
 11
9.051756
 21
5.150971
 31
0.000000
  0
LINE
  8
ADC9
 62
     7
  6
CONTINUOUS
 10
8.702999
 20
8.190000
 30
0.000000
 11
9.054943
 21
8.348969
 31
0.000000
  0
POINT
  8
ADC9
 62
     7
 10
8.702999
 20
6.750000
 30
0.000000
  0
POINT
  8
ADC9
 62
     7
 10
8.702999
 20
6.750000
 30
0.000000
  0
POINT
  8
ADC9
 62
     7
 10
7.215000
 20
6.750000
 30
0.000000
  0
LINE
  8
ADC9
 62
     7
  6
CONTINUOUS
 10
7.215000
 20
6.750000
 30
0.000000
 11
7.215000
 21
7.249930
 31
0.000000
  0
LINE
  8
ADC9
 62
     7
  6
CONTINUOUS
 10
7.215000
 20
6.750000
 30
0.000000
 11
7.215000
 21
6.250000
 31
0.000000
  0
POINT
  8
ADC9
 62
     7
 10
7.215000
 20
6.750000
 30
0.000000
  0
POINT
  8
ADC9
 62
     7
 10
7.215000
 20
6.750000
 30
0.000000
  0
POINT
  8
ADC9
 62
     7
 10
7.274988
 20
6.751209
 30
0.000000
  0
POINT
  8
ADC9
 62
     7
 10
7.274988
 20
7.313709
 30
0.000000
  0
POINT
  8
ADC9
 62
     7
 10
7.274988
 20
6.188709
 30
0.000000
  0
LINE
  8
ADC9
 62
     7
  6
CONTINUOUS
 10
7.274988
 20
7.313709
 30
0.000000
 11
8.702999
 21
7.313709
 31
0.000000
  0
LINE
  8
ADC9
 62
     7
  6
CONTINUOUS
 10
7.274988
 20
6.188709
 30
0.000000
 11
8.702999
 21
6.188709
 31
0.000000
  0
LINE
  8
ADC9
 62
     7
  6
CONTINUOUS
 10
7.274988
 20
6.751209
 30
0.000000
 11
7.274988
 21
7.313709
 31
0.000000
  0
LINE
  8
ADC9
 62
     7
  6
CONTINUOUS
 10
7.274988
 20
6.751209
 30
0.000000
 11
7.274988
 21
6.188709
 31
0.000000
  0
LINE
  8
ADC9
 62
     7
  6
CONTINUOUS
 10
7.274988
 20
6.188709
 30
0.000000
 11
7.215000
 21
6.250000
 31
0.000000
  0
LINE
  8
ADC9
 62
     7
  6
CONTINUOUS
 10
7.215000
 20
7.249930
 30
0.000000
 11
7.274988
 21
7.313709
 31
0.000000
  0
POINT
  8
RING
 62
     7
 10
7.888119
 20
10.374998
 30
0.000000
  0
POINT
  8
RING
 62
     7
 10
6.495000
 20
10.374998
 30
0.000000
  0
POINT
  8
RING
 62
     7
 10
6.494583
 20
10.624998
 30
0.000000
  0
POINT
  8
RING
 62
     7
 10
6.495000
 20
10.374998
 30
0.000000
  0
POINT
  8
RING
 62
     7
 10
6.494472
 20
10.124999
 30
0.000000
  0
POINT
  8
RING
 62
     7
 10
6.495000
 20
10.374998
 30
0.000000
  0
POINT
  8
RING
 62
     7
 10
6.557497
 20
10.374356
 30
0.000000
  0
POINT
  8
RING
 62
     7
 10
6.557497
 20
10.374356
 30
0.000000
  0
POINT
  8
RING
 62
     7
 10
6.619988
 20
10.373297
 30
0.000000
  0
POINT
  8
RING
 62
     7
 10
6.619988
 20
10.374356
 30
0.000000
  0
POINT
  8
RING
 62
     7
 10
6.682480
 20
10.374356
 30
0.000000
  0
POINT
  8
RING
 62
     7
 10
6.744971
 20
10.374356
 30
0.000000
  0
POINT
  8
RING
 62
     7
 10
6.807463
 20
10.374356
 30
0.000000
  0
POINT
  8
RING
 62
     7
 10
6.869954
 20
10.374356
 30
0.000000
  0
POINT
  8
RING
 62
     7
 10
6.932446
 20
10.374356
 30
0.000000
  0
POINT
  8
RING
 62
     7
 10
6.994937
 20
10.374356
 30
0.000000
  0
POINT
  8
RING
 62
     7
 10
7.057428
 20
10.374356
 30
0.000000
  0
POINT
  8
RING
 62
     7
 10
7.119920
 20
10.374356
 30
0.000000
  0
POINT
  8
RING
 62
     7
 10
7.182411
 20
10.374356
 30
0.000000
  0
POINT
  8
RING
 62
     7
 10
7.244903
 20
10.374356
 30
0.000000
  0
POINT
  8
RING
 62
     7
 10
7.307394
 20
10.374356
 30
0.000000
  0
POINT
  8
RING
 62
     7
 10
7.369885
 20
10.374356
 30
0.000000
  0
POINT
  8
RING
 62
     7
 10
7.432377
 20
10.374356
 30
0.000000
  0
POINT
  8
RING
 62
     7
 10
7.494868
 20
10.374356
 30
0.000000
  0
POINT
  8
RING
 62
     7
 10
7.557360
 20
10.374356
 30
0.000000
  0
POINT
  8
RING
 62
     7
 10
7.619851
 20
10.374356
 30
0.000000
  0
POINT
  8
RING
 62
     7
 10
7.682343
 20
10.374356
 30
0.000000
  0
POINT
  8
RING
 62
     7
 10
7.744834
 20
10.374356
 30
0.000000
  0
POINT
  8
RING
 62
     7
 10
7.807325
 20
10.374356
 30
0.000000
  0
LINE
  8
RING
 62
     7
  6
CONTINUOUS
 10
6.557497
 20
10.374356
 30
0.000000
 11
6.557497
 21
10.624933
 31
0.000000
  0
LINE
  8
RING
 62
     7
  6
CONTINUOUS
 10
6.557497
 20
10.374356
 30
0.000000
 11
6.557497
 21
10.132491
 31
0.000000
  0
LINE
  8
RING
 62
     7
  6
CONTINUOUS
 10
6.619988
 20
10.374356
 30
0.000000
 11
6.619988
 21
10.585357
 31
0.000000
  0
LINE
  8
RING
 62
     7
  6
CONTINUOUS
 10
6.619988
 20
10.373297
 30
0.000000
 11
6.619988
 21
10.162296
 31
0.000000
  0
POINT
  8
RING
 62
     7
 10
6.682480
 20
10.374356
 30
0.000000
  0
POINT
  8
RING
 62
     7
 10
6.682480
 20
10.374356
 30
0.000000
  0
LINE
  8
RING
 62
     7
  6
CONTINUOUS
 10
6.682480
 20
10.374356
 30
0.000000
 11
6.682480
 21
10.624933
 31
0.000000
  0
LINE
  8
RING
 62
     7
  6
CONTINUOUS
 10
6.682480
 20
10.374356
 30
0.000000
 11
6.682480
 21
10.132491
 31
0.000000
  0
POINT
  8
RING
 62
     7
 10
6.807463
 20
10.374356
 30
0.000000
  0
POINT
  8
RING
 62
     7
 10
6.807463
 20
10.374356
 30
0.000000
  0
LINE
  8
RING
 62
     7
  6
CONTINUOUS
 10
6.807463
 20
10.374356
 30
0.000000
 11
6.807463
 21
10.624933
 31
0.000000
  0
LINE
  8
RING
 62
     7
  6
CONTINUOUS
 10
6.807463
 20
10.374356
 30
0.000000
 11
6.807463
 21
10.132491
 31
0.000000
  0
POINT
  8
RING
 62
     7
 10
6.932446
 20
10.374356
 30
0.000000
  0
POINT
  8
RING
 62
     7
 10
6.932446
 20
10.374356
 30
0.000000
  0
LINE
  8
RING
 62
     7
  6
CONTINUOUS
 10
6.932446
 20
10.374356
 30
0.000000
 11
6.932446
 21
10.624933
 31
0.000000
  0
LINE
  8
RING
 62
     7
  6
CONTINUOUS
 10
6.932446
 20
10.374356
 30
0.000000
 11
6.932446
 21
10.132491
 31
0.000000
  0
POINT
  8
RING
 62
     7
 10
7.057428
 20
10.374356
 30
0.000000
  0
POINT
  8
RING
 62
     7
 10
7.057428
 20
10.374356
 30
0.000000
  0
LINE
  8
RING
 62
     7
  6
CONTINUOUS
 10
7.057428
 20
10.374356
 30
0.000000
 11
7.057428
 21
10.624933
 31
0.000000
  0
LINE
  8
RING
 62
     7
  6
CONTINUOUS
 10
7.057428
 20
10.374356
 30
0.000000
 11
7.057428
 21
10.132491
 31
0.000000
  0
POINT
  8
RING
 62
     7
 10
7.182411
 20
10.374356
 30
0.000000
  0
POINT
  8
RING
 62
     7
 10
7.182411
 20
10.374356
 30
0.000000
  0
LINE
  8
RING
 62
     7
  6
CONTINUOUS
 10
7.182411
 20
10.374356
 30
0.000000
 11
7.182411
 21
10.624933
 31
0.000000
  0
LINE
  8
RING
 62
     7
  6
CONTINUOUS
 10
7.182411
 20
10.374356
 30
0.000000
 11
7.182411
 21
10.132491
 31
0.000000
  0
POINT
  8
RING
 62
     7
 10
7.307394
 20
10.374356
 30
0.000000
  0
POINT
  8
RING
 62
     7
 10
7.307394
 20
10.374356
 30
0.000000
  0
LINE
  8
RING
 62
     7
  6
CONTINUOUS
 10
7.307394
 20
10.374356
 30
0.000000
 11
7.307394
 21
10.624933
 31
0.000000
  0
LINE
  8
RING
 62
     7
  6
CONTINUOUS
 10
7.307394
 20
10.374356
 30
0.000000
 11
7.307394
 21
10.132491
 31
0.000000
  0
POINT
  8
RING
 62
     7
 10
7.432377
 20
10.374356
 30
0.000000
  0
POINT
  8
RING
 62
     7
 10
7.432377
 20
10.374356
 30
0.000000
  0
LINE
  8
RING
 62
     7
  6
CONTINUOUS
 10
7.432377
 20
10.374356
 30
0.000000
 11
7.432377
 21
10.624933
 31
0.000000
  0
LINE
  8
RING
 62
     7
  6
CONTINUOUS
 10
7.432377
 20
10.374356
 30
0.000000
 11
7.432377
 21
10.132491
 31
0.000000
  0
POINT
  8
RING
 62
     7
 10
7.557360
 20
10.374356
 30
0.000000
  0
POINT
  8
RING
 62
     7
 10
7.557360
 20
10.374356
 30
0.000000
  0
LINE
  8
RING
 62
     7
  6
CONTINUOUS
 10
7.557360
 20
10.374356
 30
0.000000
 11
7.557360
 21
10.624933
 31
0.000000
  0
LINE
  8
RING
 62
     7
  6
CONTINUOUS
 10
7.557360
 20
10.374356
 30
0.000000
 11
7.557360
 21
10.132491
 31
0.000000
  0
POINT
  8
RING
 62
     7
 10
7.682343
 20
10.374356
 30
0.000000
  0
POINT
  8
RING
 62
     7
 10
7.682343
 20
10.374356
 30
0.000000
  0
LINE
  8
RING
 62
     7
  6
CONTINUOUS
 10
7.682343
 20
10.374356
 30
0.000000
 11
7.682343
 21
10.624933
 31
0.000000
  0
LINE
  8
RING
 62
     7
  6
CONTINUOUS
 10
7.682343
 20
10.374356
 30
0.000000
 11
7.682343
 21
10.132491
 31
0.000000
  0
POINT
  8
RING
 62
     7
 10
7.807325
 20
10.374356
 30
0.000000
  0
POINT
  8
RING
 62
     7
 10
7.807325
 20
10.374356
 30
0.000000
  0
LINE
  8
RING
 62
     7
  6
CONTINUOUS
 10
7.807325
 20
10.374356
 30
0.000000
 11
7.807325
 21
10.624933
 31
0.000000
  0
LINE
  8
RING
 62
     7
  6
CONTINUOUS
 10
7.807325
 20
10.374356
 30
0.000000
 11
7.807325
 21
10.132491
 31
0.000000
  0
POINT
  8
RING
 62
     7
 10
6.744971
 20
10.373297
 30
0.000000
  0
POINT
  8
RING
 62
     7
 10
6.744971
 20
10.374356
 30
0.000000
  0
LINE
  8
RING
 62
     7
  6
CONTINUOUS
 10
6.744971
 20
10.374356
 30
0.000000
 11
6.744971
 21
10.585357
 31
0.000000
  0
LINE
  8
RING
 62
     7
  6
CONTINUOUS
 10
6.744971
 20
10.373297
 30
0.000000
 11
6.744971
 21
10.162296
 31
0.000000
  0
POINT
  8
RING
 62
     7
 10
6.869954
 20
10.373297
 30
0.000000
  0
POINT
  8
RING
 62
     7
 10
6.869954
 20
10.374356
 30
0.000000
  0
LINE
  8
RING
 62
     7
  6
CONTINUOUS
 10
6.869954
 20
10.374356
 30
0.000000
 11
6.869954
 21
10.585357
 31
0.000000
  0
LINE
  8
RING
 62
     7
  6
CONTINUOUS
 10
6.869954
 20
10.373297
 30
0.000000
 11
6.869954
 21
10.162296
 31
0.000000
  0
POINT
  8
RING
 62
     7
 10
6.994937
 20
10.373297
 30
0.000000
  0
POINT
  8
RING
 62
     7
 10
6.994937
 20
10.374356
 30
0.000000
  0
LINE
  8
RING
 62
     7
  6
CONTINUOUS
 10
6.994937
 20
10.374356
 30
0.000000
 11
6.994937
 21
10.585357
 31
0.000000
  0
LINE
  8
RING
 62
     7
  6
CONTINUOUS
 10
6.994937
 20
10.373297
 30
0.000000
 11
6.994937
 21
10.162296
 31
0.000000
  0
POINT
  8
RING
 62
     7
 10
7.119920
 20
10.373297
 30
0.000000
  0
POINT
  8
RING
 62
     7
 10
7.119920
 20
10.374356
 30
0.000000
  0
LINE
  8
RING
 62
     7
  6
CONTINUOUS
 10
7.119920
 20
10.374356
 30
0.000000
 11
7.119920
 21
10.585357
 31
0.000000
  0
LINE
  8
RING
 62
     7
  6
CONTINUOUS
 10
7.119920
 20
10.373297
 30
0.000000
 11
7.119920
 21
10.162296
 31
0.000000
  0
POINT
  8
RING
 62
     7
 10
7.244903
 20
10.373297
 30
0.000000
  0
POINT
  8
RING
 62
     7
 10
7.244903
 20
10.374356
 30
0.000000
  0
LINE
  8
RING
 62
     7
  6
CONTINUOUS
 10
7.244903
 20
10.374356
 30
0.000000
 11
7.244903
 21
10.585357
 31
0.000000
  0
LINE
  8
RING
 62
     7
  6
CONTINUOUS
 10
7.244903
 20
10.373297
 30
0.000000
 11
7.244903
 21
10.162296
 31
0.000000
  0
POINT
  8
RING
 62
     7
 10
7.369885
 20
10.373297
 30
0.000000
  0
POINT
  8
RING
 62
     7
 10
7.369885
 20
10.374356
 30
0.000000
  0
LINE
  8
RING
 62
     7
  6
CONTINUOUS
 10
7.369885
 20
10.374356
 30
0.000000
 11
7.369885
 21
10.585357
 31
0.000000
  0
LINE
  8
RING
 62
     7
  6
CONTINUOUS
 10
7.369885
 20
10.373297
 30
0.000000
 11
7.369885
 21
10.162296
 31
0.000000
  0
POINT
  8
RING
 62
     7
 10
7.494868
 20
10.373297
 30
0.000000
  0
POINT
  8
RING
 62
     7
 10
7.494868
 20
10.374356
 30
0.000000
  0
LINE
  8
RING
 62
     7
  6
CONTINUOUS
 10
7.494868
 20
10.374356
 30
0.000000
 11
7.494868
 21
10.585357
 31
0.000000
  0
LINE
  8
RING
 62
     7
  6
CONTINUOUS
 10
7.494868
 20
10.373297
 30
0.000000
 11
7.494868
 21
10.162296
 31
0.000000
  0
POINT
  8
RING
 62
     7
 10
7.619851
 20
10.373297
 30
0.000000
  0
POINT
  8
RING
 62
     7
 10
7.619851
 20
10.374356
 30
0.000000
  0
LINE
  8
RING
 62
     7
  6
CONTINUOUS
 10
7.619851
 20
10.374356
 30
0.000000
 11
7.619851
 21
10.585357
 31
0.000000
  0
LINE
  8
RING
 62
     7
  6
CONTINUOUS
 10
7.619851
 20
10.373297
 30
0.000000
 11
7.619851
 21
10.162296
 31
0.000000
  0
POINT
  8
RING
 62
     7
 10
7.744834
 20
10.373297
 30
0.000000
  0
POINT
  8
RING
 62
     7
 10
7.744834
 20
10.374356
 30
0.000000
  0
LINE
  8
RING
 62
     7
  6
CONTINUOUS
 10
7.744834
 20
10.374356
 30
0.000000
 11
7.744834
 21
10.585357
 31
0.000000
  0
LINE
  8
RING
 62
     7
  6
CONTINUOUS
 10
7.744834
 20
10.373297
 30
0.000000
 11
7.744834
 21
10.162296
 31
0.000000
  0
POINT
  8
RING
 62
     7
 10
6.495000
 20
2.507709
 30
0.000000
  0
POINT
  8
RING
 62
     7
 10
6.495000
 20
2.550000
 30
0.000000
  0
POINT
  8
RING
 62
     7
 10
6.495000
 20
2.550000
 30
0.000000
  0
POINT
  8
RING
 62
     7
 10
6.493070
 20
2.846994
 30
0.000000
  0
POINT
  8
RING
 62
     7
 10
6.495000
 20
2.507709
 30
0.000000
  0
POINT
  8
RING
 62
     7
 10
6.495000
 20
2.550000
 30
0.000000
  0
POINT
  8
RING
 62
     7
 10
6.495000
 20
2.550000
 30
0.000000
  0
LINE
  8
RING
 62
     7
  6
CONTINUOUS
 10
6.791871
 20
2.253007
 30
0.000000
 11
7.166871
 21
2.253007
 31
0.000000
  0
LINE
  8
RING
 62
     7
  6
CONTINUOUS
 10
7.166871
 20
2.253007
 30
0.000000
 11
7.166871
 21
2.847007
 31
0.000000
  0
LINE
  8
RING
 62
     7
  6
CONTINUOUS
 10
7.166871
 20
2.847007
 30
0.000000
 11
6.493070
 21
2.847007
 31
0.000000
  0
LINE
  8
RING
 62
     7
  6
CONTINUOUS
 10
6.495000
 20
11.000000
 30
0.000000
 11
6.682500
 21
11.000000
 31
0.000000
  0
LINE
  8
RING
 62
     7
  6
CONTINUOUS
 10
6.682500
 20
11.000000
 30
0.000000
 11
6.819513
 21
11.315000
 31
0.000000
  0
LINE
  8
RING
 62
     7
  6
CONTINUOUS
 10
6.495000
 20
2.507709
 30
0.000000
 11
6.677500
 21
2.507709
 31
0.000000
  0
LINE
  8
RING
 62
     7
  6
CONTINUOUS
 10
6.677500
 20
2.507709
 30
0.000000
 11
6.820659
 21
2.185000
 31
0.000000
  0
POINT
  8
RING
 62
     7
 10
6.497107
 20
9.749999
 30
0.000000
  0
LINE
  8
RING
 62
     7
  6
CONTINUOUS
 10
6.497107
 20
9.749999
 30
0.000000
 11
6.809607
 21
9.749999
 31
0.000000
  0
LINE
  8
RING
 62
     7
  6
CONTINUOUS
 10
6.809607
 20
9.749999
 30
0.000000
 11
6.809607
 21
8.750000
 31
0.000000
  0
POINT
  8
RING
 62
     7
 10
6.494513
 20
3.750000
 30
0.000000
  0
LINE
  8
RING
 62
     7
  6
CONTINUOUS
 10
6.494513
 20
3.750000
 30
0.000000
 11
6.807013
 21
3.750000
 31
0.000000
  0
LINE
  8
RING
 62
     7
  6
CONTINUOUS
 10
6.807013
 20
3.750000
 30
0.000000
 11
6.807013
 21
4.750000
 31
0.000000
  0
LINE
  8
RING
 62
     7
  6
CONTINUOUS
 10
7.888334
 20
10.624998
 30
0.000000
 11
7.888334
 21
10.124999
 31
0.000000
  0
LINE
  8
RING
 62
     7
  6
CONTINUOUS
 10
6.807013
 20
4.750000
 30
0.000000
 11
6.807013
 21
5.375000
 31
0.000000
  0
LINE
  8
RING
 62
     7
  6
CONTINUOUS
 10
6.809607
 20
8.750000
 30
0.000000
 11
6.809607
 21
8.125000
 31
0.000000
  0
LINE
  8
RING
 62
     7
  6
CONTINUOUS
 10
6.495000
 20
5.470000
 30
0.000000
 11
6.495000
 21
2.500000
 31
0.000000
  0
LINE
  8
RING
 62
     7
  6
CONTINUOUS
 10
6.495000
 20
8.030000
 30
0.000000
 11
6.495000
 21
11.000000
 31
0.000000
  0
LINE
  8
RING
 62
     7
  6
CONTINUOUS
 10
7.165861
 20
2.752999
 30
0.000000
 11
9.231676
 21
2.752999
 31
0.000000
  0
LINE
  8
RING
 62
     7
  6
CONTINUOUS
 10
6.263297
 20
2.550000
 30
0.000000
 11
9.231676
 21
2.550000
 31
0.000000
  0
LINE
  8
RING
 62
     7
  6
CONTINUOUS
 10
7.165861
 20
2.347002
 30
0.000000
 11
9.231676
 21
2.347002
 31
0.000000
  0
LINE
  8
RING
 62
     7
  6
CONTINUOUS
 10
6.820659
 20
2.185000
 30
0.000000
 11
9.231676
 21
2.185000
 31
0.000000
  0
POINT
  8
RING
 62
     7
 10
9.045124
 20
4.750005
 30
0.000000
  0
LINE
  8
RING
 62
     7
  6
CONTINUOUS
 10
9.045124
 20
4.750005
 30
0.000000
 11
6.807013
 21
4.750005
 31
0.000000
  0
LINE
  8
RING
 62
     7
  6
CONTINUOUS
 10
8.790771
 20
2.752999
 30
0.000000
 11
6.800391
 21
4.743379
 31
0.000000
  0
LINE
  8
RING
 62
     7
  6
CONTINUOUS
 10
6.802506
 20
8.750000
 30
0.000000
 11
9.045000
 21
8.750000
 31
0.000000
  0
LINE
  8
RING
 62
     7
  6
CONTINUOUS
 10
6.819513
 20
11.315000
 30
0.000000
 11
9.231676
 21
11.315000
 31
0.000000
  0
LINE
  8
RING
 62
     7
  6
CONTINUOUS
 10
6.494583
 20
10.624998
 30
0.000000
 11
9.231676
 21
10.624998
 31
0.000000
  0
LINE
  8
RING
 62
     7
  6
CONTINUOUS
 10
6.000178
 20
10.374998
 30
0.000000
 11
9.231676
 21
10.374998
 31
0.000000
  0
LINE
  8
RING
 62
     7
  6
CONTINUOUS
 10
6.494472
 20
10.124999
 30
0.000000
 11
9.231676
 21
10.124999
 31
0.000000
  0
LINE
  8
HUB
 62
     7
  6
CONTINUOUS
 10
10.651999
 20
8.125000
 30
0.000000
 11
10.901999
 21
8.125000
 31
0.000000
  0
LINE
  8
HUB
 62
     7
  6
CONTINUOUS
 10
10.651999
 20
5.375000
 30
0.000000
 11
10.901999
 21
5.375000
 31
0.000000
  0
LINE
  8
HUB
 62
     7
  6
CONTINUOUS
 10
10.651999
 20
5.375000
 30
0.000000
 11
10.651999
 21
5.470000
 31
0.000000
  0
LINE
  8
HUB
 62
     7
  6
CONTINUOUS
 10
10.901999
 20
5.375000
 30
0.000000
 11
10.901999
 21
5.470000
 31
0.000000
  0
LINE
  8
HUB
 62
     7
  6
CONTINUOUS
 10
10.651999
 20
8.125000
 30
0.000000
 11
10.651999
 21
8.030000
 31
0.000000
  0
LINE
  8
HUB
 62
     7
  6
CONTINUOUS
 10
10.901999
 20
8.125000
 30
0.000000
 11
10.901999
 21
8.030000
 31
0.000000
  0
LINE
  8
HUB
 62
     7
  6
CONTINUOUS
 10
10.651999
 20
8.030000
 30
0.000000
 11
10.276999
 21
8.030000
 31
0.000000
  0
LINE
  8
HUB
 62
     7
  6
CONTINUOUS
 10
10.901999
 20
8.030000
 30
0.000000
 11
12.526999
 21
8.030000
 31
0.000000
  0
LINE
  8
HUB
 62
     7
  6
CONTINUOUS
 10
10.651999
 20
5.470000
 30
0.000000
 11
10.276999
 21
5.470000
 31
0.000000
  0
LINE
  8
HUB
 62
     7
  6
CONTINUOUS
 10
10.276999
 20
7.125000
 30
0.000000
 11
11.026999
 21
7.125000
 31
0.000000
  0
LINE
  8
HUB
 62
     7
  6
CONTINUOUS
 10
10.276999
 20
6.375000
 30
0.000000
 11
11.026999
 21
6.375000
 31
0.000000
  0
LINE
  8
HUB
 62
     7
  6
CONTINUOUS
 10
12.526999
 20
8.030000
 30
0.000000
 11
12.526999
 21
5.470000
 31
0.000000
  0
POINT
  8
HUB
 62
     7
 10
10.276999
 20
7.610500
 30
0.000000
  0
LINE
  8
HUB
 62
     7
  6
CONTINUOUS
 10
10.276999
 20
7.829500
 30
0.000000
 11
10.965000
 21
7.829500
 31
0.000000
  0
LINE
  8
HUB
 62
     7
  6
CONTINUOUS
 10
10.276999
 20
7.391500
 30
0.000000
 11
10.965000
 21
7.391500
 31
0.000000
  0
LINE
  8
HUB
 62
     7
  6
CONTINUOUS
 10
10.965000
 20
7.391500
 30
0.000000
 11
10.965000
 21
7.829500
 31
0.000000
  0
LINE
  8
HUB
 62
     7
  6
CONTINUOUS
 10
11.026999
 20
7.550000
 30
0.000000
 11
12.526999
 21
7.687500
 31
0.000000
  0
POINT
  8
HUB
 62
     7
 10
10.963355
 20
6.048022
 30
0.000000
  0
POINT
  8
HUB
 62
     7
 10
10.276999
 20
6.047000
 30
0.000000
  0
POINT
  8
HUB
 62
     7
 10
10.276999
 20
6.226700
 30
0.000000
  0
POINT
  8
HUB
 62
     7
 10
10.276999
 20
5.867300
 30
0.000000
  0
LINE
  8
HUB
 62
     7
  6
CONTINUOUS
 10
10.276999
 20
6.226700
 30
0.000000
 11
10.464499
 21
6.226700
 31
0.000000
  0
LINE
  8
HUB
 62
     7
  6
CONTINUOUS
 10
10.276999
 20
5.867300
 30
0.000000
 11
10.464499
 21
5.867300
 31
0.000000
  0
LINE
  8
HUB
 62
     7
  6
CONTINUOUS
 10
10.464499
 20
5.867300
 30
0.000000
 11
10.464499
 21
6.226700
 31
0.000000
  0
POINT
  8
HUB
 62
     7
 10
10.464499
 20
6.048022
 30
0.000000
  0
POINT
  8
HUB
 62
     7
 10
10.464499
 20
6.149572
 30
0.000000
  0
POINT
  8
HUB
 62
     7
 10
10.464499
 20
5.946472
 30
0.000000
  0
LINE
  8
HUB
 62
     7
  6
CONTINUOUS
 10
10.464499
 20
6.149572
 30
0.000000
 11
11.026999
 21
6.149572
 31
0.000000
  0
LINE
  8
HUB
 62
     7
  6
CONTINUOUS
 10
10.464499
 20
5.946472
 30
0.000000
 11
11.065483
 21
5.946472
 31
0.000000
  0
LINE
  8
HUB
 62
     7
  6
CONTINUOUS
 10
11.026999
 20
7.550000
 30
0.000000
 11
11.026999
 21
5.946472
 31
0.000000
  0
LINE
  8
HUB
 62
     7
  6
CONTINUOUS
 10
12.526999
 20
5.812500
 30
0.000000
 11
11.065483
 21
5.946472
 31
0.000000
  0
LINE
  8
HUB
 62
     7
  6
CONTINUOUS
 10
10.276999
 20
6.047000
 30
0.000000
 11
11.097483
 21
6.047000
 31
0.000000
  0
LINE
  8
HUB
 62
     7
  6
CONTINUOUS
 10
10.965000
 20
7.610500
 30
0.000000
 11
9.547382
 21
7.610500
 31
0.000000
  0
POINT
  8
BUSH
 62
     7
 10
14.026999
 20
6.750000
 30
0.000000
  0
POINT
  8
BUSH
 62
     7
 10
14.026999
 20
6.750000
 30
0.000000
  0
POINT
  8
BUSH
 62
     7
 10
14.026999
 20
6.750000
 30
0.000000
  0
LINE
  8
BUSH
 62
     7
  6
CONTINUOUS
 10
14.026999
 20
6.750000
 30
0.000000
 11
14.026999
 21
5.937500
 31
0.000000
  0
POINT
  8
BUSH
 62
     7
 10
15.152320
 20
7.453108
 30
0.000000
  0
POINT
  8
BUSH
 62
     7
 10
15.152320
 20
7.453108
 30
0.000000
  0
POINT
  8
BUSH
 62
     7
 10
15.152328
 20
7.453108
 30
0.000000
  0
POINT
  8
BUSH
 62
     7
 10
15.152328
 20
7.453108
 30
0.000000
  0
POINT
  8
BUSH
 62
     7
 10
14.025859
 20
7.454028
 30
0.000000
  0
POINT
  8
BUSH
 62
     7
 10
14.150859
 20
7.454028
 30
0.000000
  0
POINT
  8
BUSH
 62
     7
 10
14.275859
 20
7.454028
 30
0.000000
  0
POINT
  8
BUSH
 62
     7
 10
14.275859
 20
7.454028
 30
0.000000
  0
LINE
  8
BUSH
 62
     7
  6
CONTINUOUS
 10
14.150859
 20
7.454028
 30
0.000000
 11
14.150859
 21
7.508728
 31
0.000000
  0
LINE
  8
BUSH
 62
     7
  6
CONTINUOUS
 10
14.150859
 20
7.454028
 30
0.000000
 11
14.150859
 21
7.399328
 31
0.000000
  0
LINE
  8
BUSH
 62
     7
  6
CONTINUOUS
 10
14.275859
 20
7.454028
 30
0.000000
 11
14.275859
 21
7.540414
 31
0.000000
  0
LINE
  8
BUSH
 62
     7
  6
CONTINUOUS
 10
14.275859
 20
7.454028
 30
0.000000
 11
14.275859
 21
7.367641
 31
0.000000
  0
POINT
  8
BUSH
 62
     7
 10
14.525859
 20
7.454028
 30
0.000000
  0
POINT
  8
BUSH
 62
     7
 10
14.400859
 20
7.454028
 30
0.000000
  0
POINT
  8
BUSH
 62
     7
 10
14.400859
 20
7.454028
 30
0.000000
  0
LINE
  8
BUSH
 62
     7
  6
CONTINUOUS
 10
14.400859
 20
7.454028
 30
0.000000
 11
14.400859
 21
7.508728
 31
0.000000
  0
LINE
  8
BUSH
 62
     7
  6
CONTINUOUS
 10
14.400859
 20
7.454028
 30
0.000000
 11
14.400859
 21
7.399328
 31
0.000000
  0
POINT
  8
BUSH
 62
     7
 10
14.650859
 20
7.454028
 30
0.000000
  0
LINE
  8
BUSH
 62
     7
  6
CONTINUOUS
 10
14.650859
 20
7.454028
 30
0.000000
 11
14.650859
 21
7.508728
 31
0.000000
  0
LINE
  8
BUSH
 62
     7
  6
CONTINUOUS
 10
14.650859
 20
7.454028
 30
0.000000
 11
14.650859
 21
7.399328
 31
0.000000
  0
POINT
  8
BUSH
 62
     7
 10
14.900859
 20
7.454028
 30
0.000000
  0
LINE
  8
BUSH
 62
     7
  6
CONTINUOUS
 10
14.900859
 20
7.454028
 30
0.000000
 11
14.900859
 21
7.508728
 31
0.000000
  0
LINE
  8
BUSH
 62
     7
  6
CONTINUOUS
 10
14.900859
 20
7.454028
 30
0.000000
 11
14.900859
 21
7.399328
 31
0.000000
  0
POINT
  8
BUSH
 62
     7
 10
15.150859
 20
7.454028
 30
0.000000
  0
LINE
  8
BUSH
 62
     7
  6
CONTINUOUS
 10
15.150859
 20
7.454028
 30
0.000000
 11
15.150859
 21
7.508728
 31
0.000000
  0
LINE
  8
BUSH
 62
     7
  6
CONTINUOUS
 10
15.150859
 20
7.454028
 30
0.000000
 11
15.150859
 21
7.399328
 31
0.000000
  0
POINT
  8
BUSH
 62
     7
 10
14.525859
 20
7.454028
 30
0.000000
  0
POINT
  8
BUSH
 62
     7
 10
14.525859
 20
7.454028
 30
0.000000
  0
LINE
  8
BUSH
 62
     7
  6
CONTINUOUS
 10
14.525859
 20
7.454028
 30
0.000000
 11
14.525859
 21
7.540414
 31
0.000000
  0
LINE
  8
BUSH
 62
     7
  6
CONTINUOUS
 10
14.525859
 20
7.454028
 30
0.000000
 11
14.525859
 21
7.367641
 31
0.000000
  0
POINT
  8
BUSH
 62
     7
 10
14.775859
 20
7.454028
 30
0.000000
  0
POINT
  8
BUSH
 62
     7
 10
14.775859
 20
7.454028
 30
0.000000
  0
LINE
  8
BUSH
 62
     7
  6
CONTINUOUS
 10
14.775859
 20
7.454028
 30
0.000000
 11
14.775859
 21
7.540414
 31
0.000000
  0
LINE
  8
BUSH
 62
     7
  6
CONTINUOUS
 10
14.775859
 20
7.454028
 30
0.000000
 11
14.775859
 21
7.367641
 31
0.000000
  0
POINT
  8
BUSH
 62
     7
 10
15.025859
 20
7.454028
 30
0.000000
  0
POINT
  8
BUSH
 62
     7
 10
15.025859
 20
7.454028
 30
0.000000
  0
LINE
  8
BUSH
 62
     7
  6
CONTINUOUS
 10
15.025859
 20
7.454028
 30
0.000000
 11
15.025859
 21
7.540414
 31
0.000000
  0
LINE
  8
BUSH
 62
     7
  6
CONTINUOUS
 10
15.025859
 20
7.454028
 30
0.000000
 11
15.025859
 21
7.367641
 31
0.000000
  0
POINT
  8
BUSH
 62
     7
 10
14.026999
 20
6.750000
 30
0.000000
  0
LINE
  8
BUSH
 62
     7
  6
CONTINUOUS
 10
14.026999
 20
7.562500
 30
0.000000
 11
14.026999
 21
6.750000
 31
0.000000
  0
LINE
  8
BUSH
 62
     7
  6
CONTINUOUS
 10
15.276999
 20
6.750000
 30
0.000000
 11
15.276999
 21
7.687500
 31
0.000000
  0
LINE
  8
BUSH
 62
     7
  6
CONTINUOUS
 10
15.276999
 20
6.750000
 30
0.000000
 11
15.276999
 21
5.812500
 31
0.000000
  0
LINE
  8
BUSH
 62
     7
  6
CONTINUOUS
 10
14.026999
 20
7.312491
 30
0.000000
 11
15.276999
 21
7.312491
 31
0.000000
  0
LINE
  8
BUSH
 62
     7
  6
CONTINUOUS
 10
14.026999
 20
7.367158
 30
0.000000
 11
15.276999
 21
7.367158
 31
0.000000
  0
LINE
  8
BUSH
 62
     7
  6
CONTINUOUS
 10
14.029506
 20
6.187509
 30
0.000000
 11
15.276999
 21
6.187509
 31
0.000000
  0
LINE
  8
BUSH
 62
     7
  6
CONTINUOUS
 10
14.026999
 20
5.937500
 30
0.000000
 11
15.276999
 21
5.812500
 31
0.000000
  0
LINE
  8
BUSH
 62
     7
  6
CONTINUOUS
 10
14.026999
 20
7.562500
 30
0.000000
 11
15.276999
 21
7.687500
 31
0.000000
  0
LINE
  8
BUSH
 62
     7
  6
CONTINUOUS
 10
14.026999
 20
7.539058
 30
0.000000
 11
15.276999
 21
7.539058
 31
0.000000
  0
LINE
  8
BUSH
 62
     7
  6
CONTINUOUS
 10
14.025859
 20
7.454028
 30
0.000000
 11
15.276999
 21
7.454028
 31
0.000000
  0
LINE
  8
BUSH
 62
     7
  6
CONTINUOUS
 10
14.256747
 20
5.909513
 30
0.000000
 11
14.370309
 21
5.857276
 31
0.000000
  0
LINE
  8
BUSH
 62
     7
  6
CONTINUOUS
 10
14.256747
 20
5.909513
 30
0.000000
 11
14.268290
 21
5.785047
 31
0.000000
  0
LINE
  8
BUSH
 62
     7
  6
CONTINUOUS
 10
14.256747
 20
5.909513
 30
0.000000
 11
14.759240
 21
5.199770
 31
0.000000
  0
LINE
  8
BUSH
 62
     7
  6
CONTINUOUS
 10
14.759240
 20
5.199770
 30
0.000000
 11
14.884240
 21
5.199770
 31
0.000000
  0
TEXT
  8
BUSH
 62
     7
 10
14.946740
 20
5.137270
 30
0.000000
 40
0.125000
  1
2.500TPF
  0
POINT
  8
HUB
 62
     7
 10
2.944411
 20
6.750000
 30
0.000000
  0
CIRCLE
  8
HUB
 62
     7
  6
CONTINUOUS
 10
2.944411
 20
6.750000
 30
0.000000
 40
1.375000
  0
CIRCLE
  8
HUB
 62
     7
  6
CONTINUOUS
 10
2.944411
 20
6.750000
 30
0.000000
 40
1.280000
  0
CIRCLE
  8
HUB
 62
     7
  6
CONTINUOUS
 10
2.944411
 20
6.750000
 30
0.000000
 40
0.375000
  0
CIRCLE
  8
HUB
 62
     7
  6
CONTINUOUS
 10
2.944411
 20
6.750000
 30
0.000000
 40
0.860500
  0
CIRCLE
  8
HUB
 62
     7
  6
CONTINUOUS
 10
3.004436
 20
7.608404
 30
0.000000
 40
0.219000
  0
CIRCLE
  8
HUB
 62
     7
  6
CONTINUOUS
 10
3.674156
 20
7.205996
 30
0.000000
 40
0.219000
  0
CIRCLE
  8
HUB
 62
     7
  6
CONTINUOUS
 10
3.674156
 20
6.294004
 30
0.000000
 40
0.219000
  0
CIRCLE
  8
HUB
 62
     7
  6
CONTINUOUS
 10
2.944411
 20
5.889501
 30
0.000000
 40
0.219000
  0
CIRCLE
  8
HUB
 62
     7
  6
CONTINUOUS
 10
2.199196
 20
6.319750
 30
0.000000
 40
0.219000
  0
CIRCLE
  8
HUB
 62
     7
  6
CONTINUOUS
 10
2.285230
 20
7.303119
 30
0.000000
 40
0.219000
  0
CIRCLE
  8
HUB
 62
     7
  6
CONTINUOUS
 10
2.944411
 20
6.750000
 30
0.000000
 40
0.703000
  0
CIRCLE
  8
HUB
 62
     7
  6
CONTINUOUS
 10
3.306483
 20
7.352589
 30
0.000000
 40
0.101550
  0
CIRCLE
  8
HUB
 62
     7
  6
CONTINUOUS
 10
3.306483
 20
7.352589
 30
0.000000
 40
0.164000
  0
CIRCLE
  8
HUB
 62
     7
  6
CONTINUOUS
 10
3.647411
 20
6.750000
 30
0.000000
 40
0.101550
  0
CIRCLE
  8
HUB
 62
     7
  6
CONTINUOUS
 10
3.647411
 20
6.750000
 30
0.000000
 40
0.164000
  0
CIRCLE
  8
HUB
 62
     7
  6
CONTINUOUS
 10
3.285232
 20
6.135142
 30
0.000000
 40
0.101550
  0
CIRCLE
  8
HUB
 62
     7
  6
CONTINUOUS
 10
3.285232
 20
6.135142
 30
0.000000
 40
0.164000
  0
CIRCLE
  8
HUB
 62
     7
  6
CONTINUOUS
 10
2.592911
 20
6.141184
 30
0.000000
 40
0.101550
  0
CIRCLE
  8
HUB
 62
     7
  6
CONTINUOUS
 10
2.592911
 20
6.141184
 30
0.000000
 40
0.164000
  0
CIRCLE
  8
HUB
 62
     7
  6
CONTINUOUS
 10
2.244086
 20
6.811271
 30
0.000000
 40
0.101550
  0
CIRCLE
  8
HUB
 62
     7
  6
CONTINUOUS
 10
2.244086
 20
6.811271
 30
0.000000
 40
0.164000
  0
CIRCLE
  8
HUB
 62
     7
  6
CONTINUOUS
 10
2.669727
 20
7.397115
 30
0.000000
 40
0.101550
  0
CIRCLE
  8
HUB
 62
     7
  6
CONTINUOUS
 10
2.669727
 20
7.397115
 30
0.000000
 40
0.164000
  0
ARC
  8
PLATE
 62
     7
  6
CONTINUOUS
 10
2.944411
 20
6.750001
 30
0.000000
 40
3.000001
 50
222.791781
 51
319.730186
  0
ARC
  8
PLATE
 62
     7
  6
CONTINUOUS
 10
2.944411
 20
6.749999
 30
0.000000
 40
3.000001
 50
42.592547
 51
137.391320
  0
ARC
  8
PLATE
 62
     7
  6
CONTINUOUS
 10
2.944410
 20
6.750003
 30
0.000000
 40
3.625003
 50
233.932661
 51
305.758315
  0
ARC
  8
PLATE
 62
     7
  6
CONTINUOUS
 10
2.944410
 20
6.749998
 30
0.000000
 40
3.625002
 50
55.094522
 51
126.691858
  0
POINT
  8
PLATE
 62
     7
 10
2.944411
 20
3.125000
 30
0.000000
  0
POINT
  8
PLATE
 62
     7
 10
2.944411
 20
10.375000
 30
0.000000
  0
POINT
  8
PLATE
 62
     7
 10
2.944411
 20
6.750000
 30
0.000000
  0
POINT
  8
PLATE
 62
     7
 10
2.944411
 20
6.750000
 30
0.000000
  0
POINT
  8
PLATE
 62
     7
 10
2.944411
 20
6.750000
 30
0.000000
  0
POINT
  8
PLATE
 62
     7
 10
2.944411
 20
10.375000
 30
0.000000
  0
CIRCLE
  8
PLATE
 62
     7
  6
CONTINUOUS
 10
2.944411
 20
10.375000
 30
0.000000
 40
0.468500
  0
CIRCLE
  8
PLATE
 62
     7
  6
CONTINUOUS
 10
2.944411
 20
10.375000
 30
0.000000
 40
0.265600
  0
POINT
  8
PLATE
 62
     7
 10
2.944411
 20
3.125000
 30
0.000000
  0
CIRCLE
  8
PLATE
 62
     7
  6
CONTINUOUS
 10
2.944411
 20
3.125000
 30
0.000000
 40
0.468501
  0
CIRCLE
  8
PLATE
 62
     7
  6
CONTINUOUS
 10
2.944411
 20
3.125000
 30
0.000000
 40
0.265601
  0
ARC
  8
PLATE
 62
     7
  6
CONTINUOUS
 10
2.944411
 20
6.750001
 30
0.000000
 40
4.249999
 50
59.871163
 51
120.331416
  0
ARC
  8
PLATE
 62
     7
  6
CONTINUOUS
 10
2.944411
 20
6.750000
 30
0.000000
 40
4.250001
 50
236.900115
 51
303.559719
  0
POINT
  8
HUB
 62
     7
 10
2.944411
 20
5.375000
 30
0.000000
  0
LINE
  8
CNTRLINE
 62
     7
  6
CONTINUOUS
 10
2.944411
 20
12.663070
 30
0.000000
 11
2.944411
 21
2.656499
 31
0.000000
  0
LINE
  8
DIEM
 62
     7
  6
CONTINUOUS
 10
9.845644
 20
5.470000
 30
0.000000
 11
9.720644
 21
5.686507
 31
0.000000
  0
LINE
  8
DIEM
 62
     7
  6
CONTINUOUS
 10
9.845644
 20
5.470000
 30
0.000000
 11
9.970644
 21
5.686507
 31
0.000000
  0
LINE
  8
DIEM
 62
     7
  6
CONTINUOUS
 10
9.845644
 20
8.030000
 30
0.000000
 11
9.970644
 21
7.813493
 31
0.000000
  0
LINE
  8
DIEM
 62
     7
  6
CONTINUOUS
 10
9.845644
 20
8.030000
 30
0.000000
 11
9.720644
 21
7.813493
 31
0.000000
  0
LINE
  8
DIEM
 62
     7
  6
CONTINUOUS
 10
10.214499
 20
5.470000
 30
0.000000
 11
9.595644
 21
5.470000
 31
0.000000
  0
LINE
  8
DIEM
 62
     7
  6
CONTINUOUS
 10
10.214499
 20
8.030000
 30
0.000000
 11
9.595644
 21
8.030000
 31
0.000000
  0
TEXT
  8
DIEM
 62
     7
 10
9.179585
 20
6.508158
 30
0.000000
 40
0.125000
  1
2.560"
  0
TEXT
  8
DIEM
 62
     7
 10
9.849551
 20
6.602238
 30
0.000000
 40
0.125000
  1
+.000"
  0
TEXT
  8
DIEM
 62
     7
 10
9.849551
 20
6.414077
 30
0.000000
 40
0.125000
  1
-.002"
  0
LINE
  8
DIEM
 62
     7
  6
CONTINUOUS
 10
9.845644
 20
5.470000
 30
0.000000
 11
9.845644
 21
6.382860
 31
0.000000
  0
LINE
  8
DIEM
 62
     7
  6
CONTINUOUS
 10
9.845644
 20
6.759115
 30
0.000000
 11
9.845644
 21
8.030000
 31
0.000000
  0
LINE
  8
ADC9
 62
     7
  6
CONTINUOUS
 10
9.231676
 20
6.657137
 30
0.000000
 11
9.231676
 21
6.750000
 31
0.000000
  0
LINE
  8
ADC9
 62
     7
  6
CONTINUOUS
 10
9.231676
 20
6.457164
 30
0.000000
 11
9.231676
 21
2.185000
 31
0.000000
  0
LINE
  8
HUB
 62
     7
  6
CONTINUOUS
 10
10.276999
 20
6.770848
 30
0.000000
 11
10.276999
 21
8.030000
 31
0.000000
  0
LINE
  8
HUB
 62
     7
  6
CONTINUOUS
 10
10.276999
 20
6.398349
 30
0.000000
 11
10.276999
 21
5.470000
 31
0.000000
  0
LINE
  8
DIEM
 62
     7
  6
CONTINUOUS
 10
3.132143
 20
8.376604
 30
0.000000
 11
3.194643
 21
8.376604
 31
0.000000
  0
LINE
  8
DIEM
 62
     7
  6
CONTINUOUS
 10
3.043069
 20
7.604825
 30
0.000000
 11
3.142422
 21
7.375415
 31
0.000000
  0
LINE
  8
DIEM
 62
     7
  6
CONTINUOUS
 10
3.043069
 20
7.604825
 30
0.000000
 11
2.894070
 21
7.404078
 31
0.000000
  0
LINE
  8
DIEM
 62
     7
  6
CONTINUOUS
 10
2.845752
 20
5.895175
 30
0.000000
 11
2.746399
 21
6.124585
 31
0.000000
  0
LINE
  8
DIEM
 62
     7
  6
CONTINUOUS
 10
2.845752
 20
5.895175
 30
0.000000
 11
2.994751
 21
6.095922
 31
0.000000
  0
TEXT
  8
DIEM
 62
     7
 10
3.225892
 20
8.314011
 30
0.000000
 40
0.125000
  1
1.721" BOLT CIRCLE
  0
LINE
  8
DIEM
 62
     7
  6
CONTINUOUS
 10
2.845752
 20
5.895175
 30
0.000000
 11
3.132143
 21
8.376604
 31
0.000000
  0
POINT
  8
PLATE
 62
     7
 10
2.944411
 20
12.175001
 30
0.000000
  0
ARC
  8
PLATE
 62
     7
  6
CONTINUOUS
 10
2.944412
 20
6.750001
 30
0.000000
 40
5.425000
 50
65.672875
 51
112.804108
  0
ARC
  8
PLATE
 62
     7
  6
CONTINUOUS
 10
2.944411
 20
6.750000
 30
0.000000
 40
5.425000
 50
244.445010
 51
294.532293
  0
ARC
  8
PLATE
 62
     7
  6
CONTINUOUS
 10
2.944410
 20
6.750004
 30
0.000000
 40
5.549998
 50
66.487787
 51
112.417640
  0
ARC
  8
PLATE
 62
     7
  6
CONTINUOUS
 10
2.944411
 20
6.750001
 30
0.000000
 40
5.550000
 50
245.582566
 51
292.212157
  0
LINE
  8
DIEM
 62
     7
  6
CONTINUOUS
 10
3.347179
 20
7.510419
 30
0.000000
 11
3.373457
 21
7.759034
 31
0.000000
  0
LINE
  8
DIEM
 62
     7
  6
CONTINUOUS
 10
3.347179
 20
7.510419
 30
0.000000
 11
3.575625
 21
7.611970
 31
0.000000
  0
LINE
  8
DIEM
 62
     7
  6
CONTINUOUS
 10
3.347179
 20
7.510419
 30
0.000000
 11
3.730412
 21
8.037246
 31
0.000000
  0
LINE
  8
DIEM
 62
     7
  6
CONTINUOUS
 10
3.730412
 20
8.037246
 30
0.000000
 11
3.980412
 21
8.037246
 31
0.000000
  0
TEXT
  8
DIEM
 62
     7
 10
4.042912
 20
7.974746
 30
0.000000
 40
0.125000
  1
SEE NOTE B
  0
LINE
  8
DIEM
 62
     7
  6
CONTINUOUS
 10
3.688158
 20
5.319787
 30
0.000000
 11
3.750658
 21
5.319787
 31
0.000000
  0
LINE
  8
DIEM
 62
     7
  6
CONTINUOUS
 10
3.268754
 20
6.126293
 30
0.000000
 11
3.479545
 21
5.991878
 31
0.000000
  0
LINE
  8
DIEM
 62
     7
  6
CONTINUOUS
 10
3.268754
 20
6.126293
 30
0.000000
 11
3.257743
 21
5.876536
 31
0.000000
  0
LINE
  8
DIEM
 62
     7
  6
CONTINUOUS
 10
2.620067
 20
7.373707
 30
0.000000
 11
2.409276
 21
7.508122
 31
0.000000
  0
LINE
  8
DIEM
 62
     7
  6
CONTINUOUS
 10
2.620067
 20
7.373707
 30
0.000000
 11
2.631078
 21
7.623464
 31
0.000000
  0
TEXT
  8
DIEM
 62
     7
 10
3.781908
 20
5.257201
 30
0.000000
 40
0.125000
  1
1 13/32"
  0
LINE
  8
DIEM
 62
     7
  6
CONTINUOUS
 10
2.620067
 20
7.373707
 30
0.000000
 11
3.688158
 21
5.319787
 31
0.000000
  0
TEXT
  8
DIEM
 62
     7
 10
3.808327
 20
5.097187
 30
0.000000
 40
0.125000
  1
BOLT CIRCLE
  0
LINE
  8
DIEM
 62
     7
  6
CONTINUOUS
 10
2.186180
 20
6.101137
 30
0.000000
 11
2.405125
 21
5.980460
 31
0.000000
  0
LINE
  8
DIEM
 62
     7
  6
CONTINUOUS
 10
2.186180
 20
6.101137
 30
0.000000
 11
2.191143
 21
5.851186
 31
0.000000
  0
LINE
  8
DIEM
 62
     7
  6
CONTINUOUS
 10
2.186180
 20
6.101137
 30
0.000000
 11
3.039246
 21
4.689086
 31
0.000000
  0
LINE
  8
DIEM
 62
     7
  6
CONTINUOUS
 10
3.039246
 20
4.689086
 30
0.000000
 11
3.289246
 21
4.689086
 31
0.000000
  0
TEXT
  8
DIEM
 62
     7
 10
3.351746
 20
4.626586
 30
0.000000
 40
0.125000
  1
SEE NOTE D
  0
LINE
  8
DIEM
 62
     7
  6
CONTINUOUS
 10
2.575489
 20
5.972596
 30
0.000000
 11
2.766623
 21
5.811451
 31
0.000000
  0
LINE
  8
DIEM
 62
     7
  6
CONTINUOUS
 10
2.575489
 20
5.972596
 30
0.000000
 11
2.531500
 21
5.726497
 31
0.000000
  0
LINE
  8
DIEM
 62
     7
  6
CONTINUOUS
 10
2.575489
 20
5.972596
 30
0.000000
 11
3.039246
 21
4.689086
 31
0.000000
  0
LINE
  8
DIEM
 62
     7
  6
CONTINUOUS
 10
3.039246
 20
4.689086
 30
0.000000
 11
3.289246
 21
4.689086
 31
0.000000
  0
LINE
  8
DIEM
 62
     7
  6
CONTINUOUS
 10
3.687551
 20
7.424585
 30
0.000000
 11
3.577792
 21
7.649203
 31
0.000000
  0
LINE
  8
DIEM
 62
     7
  6
CONTINUOUS
 10
3.687551
 20
7.424585
 30
0.000000
 11
3.827196
 21
7.631948
 31
0.000000
  0
LINE
  8
DIEM
 62
     7
  6
CONTINUOUS
 10
3.687551
 20
7.424585
 30
0.000000
 11
3.712192
 21
7.780757
 31
0.000000
  0
LINE
  8
DIEM
 62
     7
  6
CONTINUOUS
 10
3.712192
 20
7.780757
 30
0.000000
 11
3.962192
 21
7.780757
 31
0.000000
  0
TEXT
  8
DIEM
 62
     7
 10
4.024692
 20
7.718257
 30
0.000000
 40
0.125000
  1
SEE NOTE E
  0
POINT
  8
HUB
 62
     7
 10
10.276999
 20
7.610500
 30
0.000000
  0
POINT
  8
HUB
 62
     7
 10
10.276999
 20
7.610500
 30
0.000000
  0
POINT
  8
HUB
 62
     7
 10
10.308000
 20
7.610500
 30
0.000000
  0
POINT
  8
HUB
 62
     7
 10
10.339499
 20
7.610500
 30
0.000000
  0
POINT
  8
HUB
 62
     7
 10
10.370749
 20
7.610500
 30
0.000000
  0
POINT
  8
HUB
 62
     7
 10
10.401999
 20
7.610500
 30
0.000000
  0
LINE
  8
HUB
 62
     7
  6
CONTINUOUS
 10
10.308000
 20
7.829500
 30
0.000000
 11
10.308000
 21
7.391500
 31
0.000000
  0
LINE
  8
HUB
 62
     7
  6
CONTINUOUS
 10
10.339499
 20
7.792542
 30
0.000000
 11
10.339499
 21
7.428458
 31
0.000000
  0
POINT
  8
HUB
 62
     7
 10
10.904499
 20
7.610500
 30
0.000000
  0
LINE
  8
HUB
 62
     7
  6
CONTINUOUS
 10
10.370749
 20
7.829500
 30
0.000000
 11
10.370749
 21
7.391500
 31
0.000000
  0
LINE
  8
HUB
 62
     7
  6
CONTINUOUS
 10
10.433499
 20
7.829500
 30
0.000000
 11
10.433499
 21
7.391500
 31
0.000000
  0
LINE
  8
HUB
 62
     7
  6
CONTINUOUS
 10
10.496249
 20
7.829500
 30
0.000000
 11
10.496249
 21
7.391500
 31
0.000000
  0
LINE
  8
HUB
 62
     7
  6
CONTINUOUS
 10
10.558999
 20
7.829500
 30
0.000000
 11
10.558999
 21
7.391500
 31
0.000000
  0
LINE
  8
HUB
 62
     7
  6
CONTINUOUS
 10
10.621749
 20
7.829500
 30
0.000000
 11
10.621749
 21
7.391500
 31
0.000000
  0
LINE
  8
HUB
 62
     7
  6
CONTINUOUS
 10
10.684499
 20
7.829500
 30
0.000000
 11
10.684499
 21
7.391500
 31
0.000000
  0
LINE
  8
HUB
 62
     7
  6
CONTINUOUS
 10
10.747249
 20
7.829500
 30
0.000000
 11
10.747249
 21
7.391500
 31
0.000000
  0
LINE
  8
HUB
 62
     7
  6
CONTINUOUS
 10
10.809999
 20
7.829500
 30
0.000000
 11
10.809999
 21
7.391500
 31
0.000000
  0
LINE
  8
HUB
 62
     7
  6
CONTINUOUS
 10
10.872748
 20
7.829500
 30
0.000000
 11
10.872748
 21
7.391500
 31
0.000000
  0
LINE
  8
HUB
 62
     7
  6
CONTINUOUS
 10
10.401999
 20
7.792542
 30
0.000000
 11
10.401999
 21
7.428458
 31
0.000000
  0
LINE
  8
HUB
 62
     7
  6
CONTINUOUS
 10
10.464499
 20
7.792542
 30
0.000000
 11
10.464499
 21
7.428458
 31
0.000000
  0
LINE
  8
HUB
 62
     7
  6
CONTINUOUS
 10
10.526999
 20
7.792542
 30
0.000000
 11
10.526999
 21
7.428458
 31
0.000000
  0
LINE
  8
HUB
 62
     7
  6
CONTINUOUS
 10
10.589499
 20
7.792542
 30
0.000000
 11
10.589499
 21
7.428458
 31
0.000000
  0
LINE
  8
HUB
 62
     7
  6
CONTINUOUS
 10
10.651999
 20
7.792542
 30
0.000000
 11
10.651999
 21
7.428458
 31
0.000000
  0
LINE
  8
HUB
 62
     7
  6
CONTINUOUS
 10
10.714499
 20
7.792542
 30
0.000000
 11
10.714499
 21
7.428458
 31
0.000000
  0
LINE
  8
HUB
 62
     7
  6
CONTINUOUS
 10
10.776999
 20
7.792542
 30
0.000000
 11
10.776999
 21
7.428458
 31
0.000000
  0
LINE
  8
HUB
 62
     7
  6
CONTINUOUS
 10
10.839499
 20
7.792542
 30
0.000000
 11
10.839499
 21
7.428458
 31
0.000000
  0
LINE
  8
HUB
 62
     7
  6
CONTINUOUS
 10
10.901999
 20
7.792542
 30
0.000000
 11
10.901999
 21
7.428458
 31
0.000000
  0
LINE
  8
DIEM
 62
     7
  6
CONTINUOUS
 10
14.025859
 20
7.454028
 30
0.000000
 11
13.826565
 21
7.604964
 31
0.000000
  0
LINE
  8
DIEM
 62
     7
  6
CONTINUOUS
 10
14.025859
 20
7.454028
 30
0.000000
 11
14.056927
 21
7.702090
 31
0.000000
  0
LINE
  8
DIEM
 62
     7
  6
CONTINUOUS
 10
14.025859
 20
7.454028
 30
0.000000
 11
13.693897
 21
8.241376
 31
0.000000
  0
LINE
  8
DIEM
 62
     7
  6
CONTINUOUS
 10
13.693897
 20
8.241376
 30
0.000000
 11
13.943897
 21
8.241376
 31
0.000000
  0
TEXT
  8
DIEM
 62
     7
 10
14.006397
 20
8.178876
 30
0.000000
 40
0.125000
  1
SEE NOTE A
  0
LINE
  8
BUSH
 62
     7
  6
CONTINUOUS
 10
14.026999
 20
7.867966
 30
0.000000
 11
14.135253
 21
7.930466
 31
0.000000
  0
LINE
  8
BUSH
 62
     7
  6
CONTINUOUS
 10
14.026999
 20
7.867966
 30
0.000000
 11
14.135253
 21
7.805466
 31
0.000000
  0
LINE
  8
BUSH
 62
     7
  6
CONTINUOUS
 10
15.276999
 20
7.867966
 30
0.000000
 11
15.168746
 21
7.805466
 31
0.000000
  0
LINE
  8
BUSH
 62
     7
  6
CONTINUOUS
 10
15.276999
 20
7.867966
 30
0.000000
 11
15.168746
 21
7.930466
 31
0.000000
  0
LINE
  8
BUSH
 62
     7
  6
CONTINUOUS
 10
14.026999
 20
7.625000
 30
0.000000
 11
14.026999
 21
8.117966
 31
0.000000
  0
LINE
  8
BUSH
 62
     7
  6
CONTINUOUS
 10
15.276999
 20
7.750000
 30
0.000000
 11
15.276999
 21
8.117966
 31
0.000000
  0
TEXT
  8
BUSH
 62
     7
 10
14.276564
 20
7.805393
 30
0.000000
 40
0.125000
  1
1 1/4"
  0
LINE
  8
BUSH
 62
     7
  6
CONTINUOUS
 10
14.026999
 20
7.867966
 30
0.000000
 11
14.245314
 21
7.867966
 31
0.000000
  0
LINE
  8
BUSH
 62
     7
  6
CONTINUOUS
 10
15.058685
 20
7.867966
 30
0.000000
 11
15.276999
 21
7.867966
 31
0.000000
  0
LINE
  8
DIEM
 62
     7
  6
CONTINUOUS
 10
2.571055
 20
8.543557
 30
0.000000
 11
2.508555
 21
8.543557
 31
0.000000
  0
LINE
  8
DIEM
 62
     7
  6
CONTINUOUS
 10
2.683551
 20
8.003137
 30
0.000000
 11
2.850051
 21
7.816649
 31
0.000000
  0
LINE
  8
DIEM
 62
     7
  6
CONTINUOUS
 10
2.683551
 20
8.003137
 30
0.000000
 11
2.605298
 21
7.765700
 31
0.000000
  0
LINE
  8
DIEM
 62
     7
  6
CONTINUOUS
 10
3.205270
 20
5.496863
 30
0.000000
 11
3.038770
 21
5.683351
 31
0.000000
  0
LINE
  8
DIEM
 62
     7
  6
CONTINUOUS
 10
3.205270
 20
5.496863
 30
0.000000
 11
3.283523
 21
5.734300
 31
0.000000
  0
TEXT
  8
DIEM
 62
     7
 10
1.145188
 20
8.480727
 30
0.000000
 40
0.125000
  1
2.560"
  0
TEXT
  8
DIEM
 62
     7
 10
1.815154
 20
8.574807
 30
0.000000
 40
0.125000
  1
+.000"
  0
TEXT
  8
DIEM
 62
     7
 10
1.815154
 20
8.386647
 30
0.000000
 40
0.125000
  1
-.002"
  0
LINE
  8
DIEM
 62
     7
  6
CONTINUOUS
 10
3.205270
 20
5.496863
 30
0.000000
 11
2.571055
 21
8.543557
 31
0.000000
  0
LINE
  8
DIEM
 62
     7
  6
CONTINUOUS
 10
1.934316
 20
8.248684
 30
0.000000
 11
1.871816
 21
8.248684
 31
0.000000
  0
LINE
  8
DIEM
 62
     7
  6
CONTINUOUS
 10
2.175928
 20
7.890202
 30
0.000000
 11
1.951269
 21
7.999875
 31
0.000000
  0
LINE
  8
DIEM
 62
     7
  6
CONTINUOUS
 10
2.175928
 20
7.890202
 30
0.000000
 11
2.158579
 21
8.139599
 31
0.000000
  0
LINE
  8
DIEM
 62
     7
  6
CONTINUOUS
 10
3.712893
 20
5.609798
 30
0.000000
 11
3.937552
 21
5.500125
 31
0.000000
  0
LINE
  8
DIEM
 62
     7
  6
CONTINUOUS
 10
3.712893
 20
5.609798
 30
0.000000
 11
3.730242
 21
5.360401
 31
0.000000
  0
TEXT
  8
DIEM
 62
     7
 10
1.131239
 20
8.186097
 30
0.000000
 40
0.125000
  1
2 3/4"
  0
LINE
  8
DIEM
 62
     7
  6
CONTINUOUS
 10
3.712893
 20
5.609798
 30
0.000000
 11
1.934316
 21
8.248684
 31
0.000000
  0
LINE
  8
DIEM
 62
     7
  6
CONTINUOUS
 10
1.966153
 20
7.937429
 30
0.000000
 11
1.903653
 21
7.937429
 31
0.000000
  0
LINE
  8
DIEM
 62
     7
  6
CONTINUOUS
 10
2.705966
 20
7.039429
 30
0.000000
 11
2.471824
 21
7.127049
 31
0.000000
  0
LINE
  8
DIEM
 62
     7
  6
CONTINUOUS
 10
2.705966
 20
7.039429
 30
0.000000
 11
2.664776
 21
7.286012
 31
0.000000
  0
LINE
  8
DIEM
 62
     7
  6
CONTINUOUS
 10
3.182855
 20
6.460571
 30
0.000000
 11
3.416998
 21
6.372951
 31
0.000000
  0
LINE
  8
DIEM
 62
     7
  6
CONTINUOUS
 10
3.182855
 20
6.460571
 30
0.000000
 11
3.224045
 21
6.213988
 31
0.000000
  0
TEXT
  8
DIEM
 62
     7
 10
1.421445
 20
7.874856
 30
0.000000
 40
0.125000
  1
3/4"
  0
LINE
  8
DIEM
 62
     7
  6
CONTINUOUS
 10
3.182855
 20
6.460571
 30
0.000000
 11
1.966153
 21
7.937429
 31
0.000000
  0
LINE
  8
DIEM
 62
     7
  6
CONTINUOUS
 10
10.276999
 20
5.148392
 30
0.000000
 11
10.493506
 21
5.273392
 31
0.000000
  0
LINE
  8
DIEM
 62
     7
  6
CONTINUOUS
 10
10.276999
 20
5.148392
 30
0.000000
 11
10.493506
 21
5.023392
 31
0.000000
  0
LINE
  8
DIEM
 62
     7
  6
CONTINUOUS
 10
10.651999
 20
5.148392
 30
0.000000
 11
10.435493
 21
5.023392
 31
0.000000
  0
LINE
  8
DIEM
 62
     7
  6
CONTINUOUS
 10
10.651999
 20
5.148392
 30
0.000000
 11
10.435493
 21
5.273392
 31
0.000000
  0
LINE
  8
DIEM
 62
     7
  6
CONTINUOUS
 10
10.276999
 20
5.407500
 30
0.000000
 11
10.276999
 21
4.898392
 31
0.000000
  0
LINE
  8
DIEM
 62
     7
  6
CONTINUOUS
 10
10.651999
 20
5.312500
 30
0.000000
 11
10.651999
 21
4.898392
 31
0.000000
  0
TEXT
  8
DIEM
 62
     7
 10
9.712999
 20
5.085484
 30
0.000000
 40
0.125000
  1
3/8"
  0
LINE
  8
DIEM
 62
     7
  6
CONTINUOUS
 10
10.176911
 20
5.148392
 30
0.000000
 11
10.651999
 21
5.148392
 31
0.000000
  0
LINE
  8
DIEM
 62
     7
  6
CONTINUOUS
 10
10.651999
 20
5.148392
 30
0.000000
 11
10.868506
 21
5.273392
 31
0.000000
  0
LINE
  8
DIEM
 62
     7
  6
CONTINUOUS
 10
10.651999
 20
5.148392
 30
0.000000
 11
10.868506
 21
5.023392
 31
0.000000
  0
LINE
  8
DIEM
 62
     7
  6
CONTINUOUS
 10
10.901999
 20
5.148392
 30
0.000000
 11
10.685493
 21
5.023392
 31
0.000000
  0
LINE
  8
DIEM
 62
     7
  6
CONTINUOUS
 10
10.901999
 20
5.148392
 30
0.000000
 11
10.685493
 21
5.273392
 31
0.000000
  0
LINE
  8
DIEM
 62
     7
  6
CONTINUOUS
 10
10.651999
 20
5.312500
 30
0.000000
 11
10.651999
 21
4.898392
 31
0.000000
  0
LINE
  8
DIEM
 62
     7
  6
CONTINUOUS
 10
10.901999
 20
5.312500
 30
0.000000
 11
10.901999
 21
4.898392
 31
0.000000
  0
TEXT
  8
DIEM
 62
     7
 10
11.046633
 20
5.085819
 30
0.000000
 40
0.125000
  1
1/4"
  0
LINE
  8
DIEM
 62
     7
  6
CONTINUOUS
 10
10.651999
 20
5.148392
 30
0.000000
 11
11.015383
 21
5.148392
 31
0.000000
  0
LINE
  8
DIEM
 62
     7
  6
CONTINUOUS
 10
10.901999
 20
4.741448
 30
0.000000
 11
11.118506
 21
4.866448
 31
0.000000
  0
LINE
  8
DIEM
 62
     7
  6
CONTINUOUS
 10
10.901999
 20
4.741448
 30
0.000000
 11
11.118506
 21
4.616448
 31
0.000000
  0
LINE
  8
DIEM
 62
     7
  6
CONTINUOUS
 10
12.526999
 20
4.741448
 30
0.000000
 11
12.310493
 21
4.616448
 31
0.000000
  0
LINE
  8
DIEM
 62
     7
  6
CONTINUOUS
 10
12.526999
 20
4.741448
 30
0.000000
 11
12.310493
 21
4.866448
 31
0.000000
  0
LINE
  8
DIEM
 62
     7
  6
CONTINUOUS
 10
10.901999
 20
5.312500
 30
0.000000
 11
10.901999
 21
4.491448
 31
0.000000
  0
LINE
  8
DIEM
 62
     7
  6
CONTINUOUS
 10
12.526999
 20
5.407500
 30
0.000000
 11
12.526999
 21
4.491448
 31
0.000000
  0
TEXT
  8
DIEM
 62
     7
 10
11.402167
 20
4.678423
 30
0.000000
 40
0.125000
  1
1 5/8"
  0
LINE
  8
DIEM
 62
     7
  6
CONTINUOUS
 10
10.901999
 20
4.741448
 30
0.000000
 11
11.370917
 21
4.741448
 31
0.000000
  0
LINE
  8
DIEM
 62
     7
  6
CONTINUOUS
 10
12.058082
 20
4.741448
 30
0.000000
 11
12.526999
 21
4.741448
 31
0.000000
  0
LINE
  8
DIEM
 62
     7
  6
CONTINUOUS
 10
10.276999
 20
4.317548
 30
0.000000
 11
10.493506
 21
4.442548
 31
0.000000
  0
LINE
  8
DIEM
 62
     7
  6
CONTINUOUS
 10
10.276999
 20
4.317548
 30
0.000000
 11
10.493506
 21
4.192548
 31
0.000000
  0
LINE
  8
DIEM
 62
     7
  6
CONTINUOUS
 10
12.526999
 20
4.317548
 30
0.000000
 11
12.310493
 21
4.192548
 31
0.000000
  0
LINE
  8
DIEM
 62
     7
  6
CONTINUOUS
 10
12.526999
 20
4.317548
 30
0.000000
 11
12.310493
 21
4.442548
 31
0.000000
  0
LINE
  8
DIEM
 62
     7
  6
CONTINUOUS
 10
10.276999
 20
5.407500
 30
0.000000
 11
10.276999
 21
4.067548
 31
0.000000
  0
LINE
  8
DIEM
 62
     7
  6
CONTINUOUS
 10
12.526999
 20
5.407500
 30
0.000000
 11
12.526999
 21
4.067548
 31
0.000000
  0
TEXT
  8
DIEM
 62
     7
 10
11.083062
 20
4.254961
 30
0.000000
 40
0.125000
  1
2 1/4"
  0
LINE
  8
DIEM
 62
     7
  6
CONTINUOUS
 10
10.276999
 20
4.317548
 30
0.000000
 11
11.051811
 21
4.317548
 31
0.000000
  0
LINE
  8
DIEM
 62
     7
  6
CONTINUOUS
 10
11.752188
 20
4.317548
 30
0.000000
 11
12.526999
 21
4.317548
 31
0.000000
  0
LINE
  8
DIEM
 62
     7
  6
CONTINUOUS
 10
11.026999
 20
6.152758
 30
0.000000
 11
11.243506
 21
6.277758
 31
0.000000
  0
LINE
  8
DIEM
 62
     7
  6
CONTINUOUS
 10
11.026999
 20
6.152758
 30
0.000000
 11
11.243506
 21
6.027758
 31
0.000000
  0
LINE
  8
DIEM
 62
     7
  6
CONTINUOUS
 10
12.526999
 20
6.152758
 30
0.000000
 11
12.310493
 21
6.027758
 31
0.000000
  0
LINE
  8
DIEM
 62
     7
  6
CONTINUOUS
 10
12.526999
 20
6.152758
 30
0.000000
 11
12.310493
 21
6.277758
 31
0.000000
  0
LINE
  8
DIEM
 62
     7
  6
CONTINUOUS
 10
11.026999
 20
6.008972
 30
0.000000
 11
11.026999
 21
6.402758
 31
0.000000
  0
LINE
  8
DIEM
 62
     7
  6
CONTINUOUS
 10
12.526999
 20
5.875000
 30
0.000000
 11
12.526999
 21
6.402758
 31
0.000000
  0
TEXT
  8
DIEM
 62
     7
 10
11.498795
 20
6.090171
 30
0.000000
 40
0.125000
  1
1 1/2"
  0
LINE
  8
DIEM
 62
     7
  6
CONTINUOUS
 10
11.026999
 20
6.152758
 30
0.000000
 11
11.467545
 21
6.152758
 31
0.000000
  0
LINE
  8
DIEM
 62
     7
  6
CONTINUOUS
 10
12.086454
 20
6.152758
 30
0.000000
 11
12.526999
 21
6.152758
 31
0.000000
  0
LINE
  8
DIEM
 62
     7
  6
CONTINUOUS
 10
12.870076
 20
5.812500
 30
0.000000
 11
12.745076
 21
6.029006
 31
0.000000
  0
LINE
  8
DIEM
 62
     7
  6
CONTINUOUS
 10
12.870076
 20
5.812500
 30
0.000000
 11
12.995076
 21
6.029006
 31
0.000000
  0
LINE
  8
DIEM
 62
     7
  6
CONTINUOUS
 10
12.870076
 20
7.687500
 30
0.000000
 11
12.995076
 21
7.470994
 31
0.000000
  0
LINE
  8
DIEM
 62
     7
  6
CONTINUOUS
 10
12.870076
 20
7.687500
 30
0.000000
 11
12.745076
 21
7.470994
 31
0.000000
  0
LINE
  8
DIEM
 62
     7
  6
CONTINUOUS
 10
12.589499
 20
5.812500
 30
0.000000
 11
13.120076
 21
5.812500
 31
0.000000
  0
LINE
  8
DIEM
 62
     7
  6
CONTINUOUS
 10
12.589499
 20
7.687500
 30
0.000000
 11
13.120076
 21
7.687500
 31
0.000000
  0
TEXT
  8
DIEM
 62
     7
 10
12.558656
 20
6.458920
 30
0.000000
 40
0.125000
  1
1 7/8"
  0
LINE
  8
DIEM
 62
     7
  6
CONTINUOUS
 10
12.870076
 20
5.812500
 30
0.000000
 11
12.870076
 21
6.427671
 31
0.000000
  0
LINE
  8
DIEM
 62
     7
  6
CONTINUOUS
 10
12.870076
 20
6.615987
 30
0.000000
 11
12.870076
 21
7.687500
 31
0.000000
  0
LINE
  8
DIEM
 62
     7
  6
CONTINUOUS
 10
10.728144
 20
6.375000
 30
0.000000
 11
10.603144
 21
6.591506
 31
0.000000
  0
LINE
  8
DIEM
 62
     7
  6
CONTINUOUS
 10
10.728144
 20
6.375000
 30
0.000000
 11
10.853144
 21
6.591506
 31
0.000000
  0
LINE
  8
DIEM
 62
     7
  6
CONTINUOUS
 10
10.728144
 20
7.125000
 30
0.000000
 11
10.853144
 21
6.908494
 31
0.000000
  0
LINE
  8
DIEM
 62
     7
  6
CONTINUOUS
 10
10.728144
 20
7.125000
 30
0.000000
 11
10.603144
 21
6.908494
 31
0.000000
  0
LINE
  8
DIEM
 62
     7
  6
CONTINUOUS
 10
10.964499
 20
6.375000
 30
0.000000
 11
10.478144
 21
6.375000
 31
0.000000
  0
LINE
  8
DIEM
 62
     7
  6
CONTINUOUS
 10
10.964499
 20
7.125000
 30
0.000000
 11
10.478144
 21
7.125000
 31
0.000000
  0
TEXT
  8
DIEM
 62
     7
 10
10.502665
 20
6.764448
 30
0.000000
 40
0.125000
  1
3/4"
  0
LINE
  8
DIEM
 62
     7
  6
CONTINUOUS
 10
10.728144
 20
6.375000
 30
0.000000
 11
10.728144
 21
6.733198
 31
0.000000
  0
LINE
  8
DIEM
 62
     7
  6
CONTINUOUS
 10
10.728144
 20
6.920843
 30
0.000000
 11
10.728144
 21
7.125000
 31
0.000000
  0
LINE
  8
DIEM
 62
     7
  6
CONTINUOUS
 10
11.583909
 20
7.601050
 30
0.000000
 11
11.809619
 21
7.493557
 31
0.000000
  0
LINE
  8
DIEM
 62
     7
  6
CONTINUOUS
 10
11.583909
 20
7.601050
 30
0.000000
 11
11.603672
 21
7.351833
 31
0.000000
  0
LINE
  8
DIEM
 62
     7
  6
CONTINUOUS
 10
11.583909
 20
7.601050
 30
0.000000
 11
13.446751
 21
4.894052
 31
0.000000
  0
LINE
  8
DIEM
 62
     7
  6
CONTINUOUS
 10
13.446751
 20
4.894052
 30
0.000000
 11
13.696751
 21
4.894052
 31
0.000000
  0
TEXT
  8
DIEM
 62
     7
 10
13.759250
 20
4.831552
 30
0.000000
 40
0.125000
  1
BORE TO SUIT BUSHING
  0
TEXT
  8
PARTS
 62
     7
 10
12.216863
 20
13.011093
 30
0.000000
 40
0.125000
  1
ELECTRO AUTOMOTIVE
  0
TEXT
  8
PARTS
 62
     7
 10
12.216863
 20
12.823593
 30
0.000000
 40
0.125000
  1
P.O. BOX 1113 FELTON CA. 95018-1113
  0
TEXT
  8
PARTS
 62
     7
 10
12.216863
 20
12.636093
 30
0.000000
 40
0.125000
  1
PHONE 408-429-1989 FAX 408-429-1907
  0
TEXT
  8
PARTS
 62
     7
 10
12.216863
 20
12.448594
 30
0.000000
 40
0.125000
  1
DRAWN BY MICHAEL P. BROWN
  0
LINE
  8
PARTS
 62
     7
  6
CONTINUOUS
 10
12.084116
 20
13.248589
 30
0.000000
 11
15.650568
 21
13.248589
 31
0.000000
  0
LINE
  8
PARTS
 62
     7
  6
CONTINUOUS
 10
15.650568
 20
13.248589
 30
0.000000
 11
15.650568
 21
12.348604
 31
0.000000
  0
LINE
  8
PARTS
 62
     7
  6
CONTINUOUS
 10
15.650568
 20
12.348604
 30
0.000000
 11
12.084116
 21
12.348604
 31
0.000000
  0
LINE
  8
PARTS
 62
     7
  6
CONTINUOUS
 10
12.084116
 20
12.348604
 30
0.000000
 11
12.084116
 21
13.248589
 31
0.000000
  0
TEXT
  8
DIEM
 62
     7
 10
11.272020
 20
11.989445
 30
0.000000
 40
0.125000
  1
PORSCHE 911 TO ADVANCED 9" MOTOR
  0
TEXT
  8
DIEM
 62
     7
 10
11.272020
 20
11.801945
 30
0.000000
 40
0.125000
  1
WITH NON-STANDARD 9" RING
  0
TEXT
  8
DIEM
 62
     7
 10
11.272020
 20
11.614445
 30
0.000000
 40
0.125000
  1
NOTE A-- TAP 10-24 x 1" DEEP
  0
TEXT
  8
DIEM
 62
     7
 10
11.272020
 20
11.426944
 30
0.000000
 40
0.125000
  1
NOTE B-- DRILL 13/64" COUNTERBORE
  0
TEXT
  8
DIEM
 62
     7
 10
11.272020
 20
11.239445
 30
0.000000
 40
0.125000
  1
5/16" x 13/64" DEEP
  0
TEXT
  8
DIEM
 62
     7
 10
11.272020
 20
11.051945
 30
0.000000
 40
0.125000
  1
NOTE C-- DRILL 17/32" COUNTERSINK
  0
TEXT
  8
DIEM
 62
     7
 10
11.272020
 20
10.864445
 30
0.000000
 40
0.125000
  1
TO SUIT 1/2-13 FLATHEAD BOLT
  0
TEXT
  8
DIEM
 62
     7
 10
11.272020
 20
10.676945
 30
0.000000
 40
0.125000
  1
NOTE D-- SEE SEPARATE HUB HOLE 
  0
TEXT
  8
DIEM
 62
     7
 10
11.272020
 20
10.489444
 30
0.000000
 40
0.125000
  1
LOCATION PRINT FOR ANGLES BETWEEN 
  0
TEXT
  8
DIEM
 62
     7
 10
11.272020
 20
10.301945
 30
0.000000
 40
0.125000
  1
HOLES
  0
TEXT
  8
DIEM
 62
     7
 10
11.272020
 20
10.114445
 30
0.000000
 40
0.125000
  1
NOTE E-- DRILL 7/16" TAP 12-1.25mm
  0
TEXT
  8
DIEM
 62
     7
 10
11.272020
 20
9.926945
 30
0.000000
 40
0.125000
  1
5/8"DEEP
  0
TEXT
  8
DIEM
 62
     7
 10
11.272020
 20
9.739445
 30
0.000000
 40
0.125000
  1
NOTE F-- SUPPLY 4 3/8-16 x 2 3/4"
  0
TEXT
  8
DIEM
 62
     7
 10
11.272020
 20
9.551945
 30
0.000000
 40
0.125000
  1
ALLEN HEAD CAP SCREWS FOR RING TO
  0
TEXT
  8
DIEM
 62
     7
 10
11.272020
 20
9.364445
 30
0.000000
 40
0.125000
  1
MOTOR ASSEMBLY
  0
LINE
  8
BUSH
 62
     7
  6
CONTINUOUS
 10
15.687740
 20
6.187509
 30
0.000000
 11
15.625240
 21
6.295762
 31
0.000000
  0
LINE
  8
BUSH
 62
     7
  6
CONTINUOUS
 10
15.687740
 20
6.187509
 30
0.000000
 11
15.750240
 21
6.295762
 31
0.000000
  0
LINE
  8
BUSH
 62
     7
  6
CONTINUOUS
 10
15.687740
 20
7.312491
 30
0.000000
 11
15.750240
 21
7.204238
 31
0.000000
  0
LINE
  8
BUSH
 62
     7
  6
CONTINUOUS
 10
15.687740
 20
7.312491
 30
0.000000
 11
15.625240
 21
7.204238
 31
0.000000
  0
LINE
  8
BUSH
 62
     7
  6
CONTINUOUS
 10
15.339499
 20
6.187509
 30
0.000000
 11
15.937740
 21
6.187509
 31
0.000000
  0
LINE
  8
BUSH
 62
     7
  6
CONTINUOUS
 10
15.339499
 20
7.312491
 30
0.000000
 11
15.937740
 21
7.312491
 31
0.000000
  0
TEXT
  8
BUSH
 62
     7
 10
15.310292
 20
6.537671
 30
0.000000
 40
0.125000
  1
1 1/8"
  0
LINE
  8
BUSH
 62
     7
  6
CONTINUOUS
 10
15.687740
 20
6.187509
 30
0.000000
 11
15.687740
 21
6.506421
 31
0.000000
  0
LINE
  8
BUSH
 62
     7
  6
CONTINUOUS
 10
15.687740
 20
6.694737
 30
0.000000
 11
15.687740
 21
7.312491
 31
0.000000
  0
LINE
  8
BUSH
 62
     7
  6
CONTINUOUS
 10
16.206827
 20
5.812500
 30
0.000000
 11
16.144327
 21
5.920753
 31
0.000000
  0
LINE
  8
BUSH
 62
     7
  6
CONTINUOUS
 10
16.206827
 20
5.812500
 30
0.000000
 11
16.269327
 21
5.920753
 31
0.000000
  0
LINE
  8
BUSH
 62
     7
  6
CONTINUOUS
 10
16.206827
 20
7.687500
 30
0.000000
 11
16.269327
 21
7.579247
 31
0.000000
  0
LINE
  8
BUSH
 62
     7
  6
CONTINUOUS
 10
16.206827
 20
7.687500
 30
0.000000
 11
16.144327
 21
7.579247
 31
0.000000
  0
LINE
  8
BUSH
 62
     7
  6
CONTINUOUS
 10
15.339499
 20
5.812500
 30
0.000000
 11
16.456827
 21
5.812500
 31
0.000000
  0
LINE
  8
BUSH
 62
     7
  6
CONTINUOUS
 10
15.339499
 20
7.687500
 30
0.000000
 11
16.456827
 21
7.687500
 31
0.000000
  0
TEXT
  8
BUSH
 62
     7
 10
15.829379
 20
6.873865
 30
0.000000
 40
0.125000
  1
1 7/8"
  0
LINE
  8
BUSH
 62
     7
  6
CONTINUOUS
 10
16.206827
 20
5.812500
 30
0.000000
 11
16.206827
 21
6.842615
 31
0.000000
  0
LINE
  8
BUSH
 62
     7
  6
CONTINUOUS
 10
16.206827
 20
7.030931
 30
0.000000
 11
16.206827
 21
7.687500
 31
0.000000
  0
LINE
  8
BUSH
 62
     7
  6
CONTINUOUS
 10
13.668021
 20
5.937500
 30
0.000000
 11
13.605521
 21
6.045753
 31
0.000000
  0
LINE
  8
BUSH
 62
     7
  6
CONTINUOUS
 10
13.668021
 20
5.937500
 30
0.000000
 11
13.730521
 21
6.045753
 31
0.000000
  0
LINE
  8
BUSH
 62
     7
  6
CONTINUOUS
 10
13.668021
 20
7.562500
 30
0.000000
 11
13.730521
 21
7.454247
 31
0.000000
  0
LINE
  8
BUSH
 62
     7
  6
CONTINUOUS
 10
13.668021
 20
7.562500
 30
0.000000
 11
13.605521
 21
7.454247
 31
0.000000
  0
LINE
  8
BUSH
 62
     7
  6
CONTINUOUS
 10
13.964499
 20
5.937500
 30
0.000000
 11
13.418021
 21
5.937500
 31
0.000000
  0
LINE
  8
BUSH
 62
     7
  6
CONTINUOUS
 10
13.964499
 20
7.562500
 30
0.000000
 11
13.418021
 21
7.562500
 31
0.000000
  0
TEXT
  8
BUSH
 62
     7
 10
13.289873
 20
7.241762
 30
0.000000
 40
0.125000
  1
1 5/8"
  0
LINE
  8
BUSH
 62
     7
  6
CONTINUOUS
 10
13.668021
 20
5.937500
 30
0.000000
 11
13.668021
 21
7.210512
 31
0.000000
  0
LINE
  8
BUSH
 62
     7
  6
CONTINUOUS
 10
13.668021
 20
7.399062
 30
0.000000
 11
13.668021
 21
7.562500
 31
0.000000
  0
LINE
  8
DIEM
 62
     7
  6
CONTINUOUS
 10
13.262190
 20
5.375000
 30
0.000000
 11
13.137190
 21
5.591506
 31
0.000000
  0
LINE
  8
DIEM
 62
     7
  6
CONTINUOUS
 10
13.262190
 20
5.375000
 30
0.000000
 11
13.387190
 21
5.591506
 31
0.000000
  0
LINE
  8
DIEM
 62
     7
  6
CONTINUOUS
 10
13.262190
 20
8.125000
 30
0.000000
 11
13.387190
 21
7.908494
 31
0.000000
  0
LINE
  8
DIEM
 62
     7
  6
CONTINUOUS
 10
13.262190
 20
8.125000
 30
0.000000
 11
13.137190
 21
7.908494
 31
0.000000
  0
LINE
  8
DIEM
 62
     7
  6
CONTINUOUS
 10
10.964499
 20
5.375000
 30
0.000000
 11
13.512190
 21
5.375000
 31
0.000000
  0
LINE
  8
DIEM
 62
     7
  6
CONTINUOUS
 10
10.964499
 20
8.125000
 30
0.000000
 11
13.512190
 21
8.125000
 31
0.000000
  0
TEXT
  8
DIEM
 62
     7
 10
12.907526
 20
6.854255
 30
0.000000
 40
0.125000
  1
2 3/4"
  0
LINE
  8
DIEM
 62
     7
  6
CONTINUOUS
 10
13.262190
 20
5.375000
 30
0.000000
 11
13.262190
 21
6.823005
 31
0.000000
  0
LINE
  8
DIEM
 62
     7
  6
CONTINUOUS
 10
13.262190
 20
7.010678
 30
0.000000
 11
13.262190
 21
8.125000
 31
0.000000
  0
ENDSEC
  0
EOF
