  0
SECTION
  2
HEADER
  9
$ACADVER
  1
AC1006
  0
ENDSEC
  0
SECTION
  2
TABLES
  0
TABLE
  2
LTYPE
 70
    25
  0
LTYPE
  2
CONTINUOUS
 70
    64
  3
Solid line
 72
    64
 73
     0
 40
0.000000
  0
LTYPE
  2
DASHDOT
 70
    64
  3
__ . __ . __ . __ . __ . __ . __ . __ . __ . __
 72
    65
 73
     4
 40
1.000000
 49
0.500000
 49
-0.250000
 49
0.000000
 49
-0.250000
  0
LTYPE
  2
DASHED
 70
    64
  3
__ __ __ __ __ __ __ __ __ __ __ __ __ __ __ __
 72
    65
 73
     2
 40
0.750000
 49
0.500000
 49
-0.250000
  0
LTYPE
  2
DIVIDE
 70
    64
  3
____ . . ____ . . ____ . . ____ . . ____ . . __
 72
    65
 73
     6
 40
1.250000
 49
0.500000
 49
-0.250000
 49
0.000000
 49
-0.250000
 49
0.000000
 49
-0.250000
  0
LTYPE
  2
DOT
 70
    64
  3
. . . . . . . . . . . . . . . . . . . . . . . . 
 72
    65
 73
     2
 40
0.250000
 49
0.000000
 49
-0.250000
  0
ENDTAB
  0
ENDSEC
  0
SECTION
  2
ENTITIES
  0
TEXT
  8
Dimensions - Text
 62
     7
 10
2.372644
 20
0.343717
 30
0.000000
 40
0.259875
  1
8
  0
LINE
  8
Dimensions - Text
 62
     7
  6
CONTINUOUS
 10
0.378104
 20
5.606186
 30
0.000000
 11
0.897854
 21
5.606186
 31
0.000000
  0
TEXT
  8
Dimensions - Text
 62
     7
 10
0.538979
 20
2.780045
 30
0.000000
 40
0.259875
  1
A
  0
TEXT
  8
Dimensions - Text
 62
     7
 10
0.551354
 20
8.172451
 30
0.000000
 40
0.259875
  1
B
  0
LINE
  8
Dimensions - Text
 62
     7
  6
CONTINUOUS
 10
0.378104
 20
16.390998
 30
0.000000
 11
0.897854
 21
16.390998
 31
0.000000
  0
TEXT
  8
Dimensions - Text
 62
     7
 10
0.545166
 20
13.564858
 30
0.000000
 40
0.259875
  1
C
  0
LINE
  8
Dimensions - Text
 62
     7
  6
CONTINUOUS
 10
4.536104
 20
0.733530
 30
0.000000
 11
4.536104
 21
0.213780
 31
0.000000
  0
TEXT
  8
Dimensions - Text
 62
     7
 10
6.527396
 20
0.343717
 30
0.000000
 40
0.259875
  1
7
  0
LINE
  8
Dimensions - Text
 62
     7
  6
CONTINUOUS
 10
8.694104
 20
0.733530
 30
0.000000
 11
8.694104
 21
0.213780
 31
0.000000
  0
TEXT
  8
Dimensions - Text
 62
     7
 10
10.688645
 20
0.343717
 30
0.000000
 40
0.259875
  1
6
  0
LINE
  8
Dimensions - Text
 62
     7
  6
CONTINUOUS
 10
12.852104
 20
0.733530
 30
0.000000
 11
12.852104
 21
0.213780
 31
0.000000
  0
TEXT
  8
Dimensions - Text
 62
     7
 10
14.846644
 20
0.343717
 30
0.000000
 40
0.259875
  1
5
  0
TEXT
  8
Dimensions - Text
 62
     7
 10
0.551354
 20
18.957264
 30
0.000000
 40
0.259875
  1
D
  0
TEXT
  8
Dimensions - Text
 62
     7
 10
23.162645
 20
0.343717
 30
0.000000
 40
0.259875
  1
3
  0
LINE
  8
Dimensions - Text
 62
     7
  6
CONTINUOUS
 10
25.326104
 20
0.733530
 30
0.000000
 11
25.326104
 21
0.213780
 31
0.000000
  0
TEXT
  8
Dimensions - Text
 62
     7
 10
27.320646
 20
0.343717
 30
0.000000
 40
0.259875
  1
2
  0
LINE
  8
Dimensions - Text
 62
     7
  6
CONTINUOUS
 10
29.484104
 20
0.733530
 30
0.000000
 11
29.484104
 21
0.213780
 31
0.000000
  0
TEXT
  8
Dimensions - Text
 62
     7
 10
31.530620
 20
0.343717
 30
0.000000
 40
0.259875
  1
1
  0
LINE
  8
Dimensions - Text
 62
     7
  6
CONTINUOUS
 10
33.642104
 20
5.606186
 30
0.000000
 11
33.122354
 21
5.606186
 31
0.000000
  0
TEXT
  8
Dimensions - Text
 62
     7
 10
33.295603
 20
8.172451
 30
0.000000
 40
0.259875
  1
B
  0
TEXT
  8
Dimensions - Text
 62
     7
 10
33.289415
 20
13.564858
 30
0.000000
 40
0.259875
  1
C
  0
LINE
  8
Dimensions - Text
 62
     7
  6
CONTINUOUS
 10
33.642104
 20
16.390998
 30
0.000000
 11
33.122354
 21
16.390998
 31
0.000000
  0
TEXT
  8
Dimensions - Text
 62
     7
 10
33.295603
 20
18.957264
 30
0.000000
 40
0.259875
  1
D
  0
LINE
  8
Dimensions - Text
 62
     7
  6
CONTINUOUS
 10
33.642104
 20
0.213780
 30
0.000000
 11
0.378104
 21
0.213780
 31
0.000000
  0
TEXT
  8
Dimensions - Text
 62
     7
 10
33.349941
 20
4.247731
 30
0.000000
 40
0.259875
  1
A
  0
LINE
  8
Dimensions - Text
 62
     7
  6
CONTINUOUS
 10
27.784098
 20
0.733530
 30
0.000000
 11
27.784098
 21
3.091655
 31
0.000000
  0
LINE
  8
Dimensions - Text
 62
     7
  6
CONTINUOUS
 10
25.173317
 20
0.733530
 30
0.000000
 11
25.173317
 21
3.091655
 31
0.000000
  0
LINE
  8
Dimensions - Text
 62
     7
  6
CONTINUOUS
 10
23.067848
 20
0.733530
 30
0.000000
 11
23.067848
 21
3.091655
 31
0.000000
  0
LINE
  8
Dimensions - Text
 62
     7
  6
CONTINUOUS
 10
25.173317
 20
2.081030
 30
0.000000
 11
27.784098
 21
2.081030
 31
0.000000
  0
LINE
  8
Dimensions - Text
 62
     7
  6
CONTINUOUS
 10
25.173317
 20
2.054080
 30
0.000000
 11
27.784098
 21
2.054080
 31
0.000000
  0
LINE
  8
Dimensions - Text
 62
     7
  6
CONTINUOUS
 10
25.200267
 20
1.744155
 30
0.000000
 11
27.784098
 21
1.744155
 31
0.000000
  0
LINE
  8
Dimensions - Text
 62
     7
  6
CONTINUOUS
 10
25.200267
 20
1.407924
 30
0.000000
 11
27.784098
 21
1.407924
 31
0.000000
  0
LINE
  8
Dimensions - Text
 62
     7
  6
CONTINUOUS
 10
25.200267
 20
1.071049
 30
0.000000
 11
27.784098
 21
1.071049
 31
0.000000
  0
LINE
  8
Dimensions - Text
 62
     7
  6
CONTINUOUS
 10
23.076841
 20
2.081030
 30
0.000000
 11
25.175080
 21
2.081030
 31
0.000000
  0
LINE
  8
Dimensions - Text
 62
     7
  6
CONTINUOUS
 10
23.067848
 20
1.744155
 30
0.000000
 11
25.173317
 21
1.744155
 31
0.000000
  0
LINE
  8
Dimensions - Text
 62
     7
  6
CONTINUOUS
 10
23.067848
 20
1.070405
 30
0.000000
 11
25.200267
 21
1.070405
 31
0.000000
  0
LINE
  8
Dimensions - Text
 62
     7
  6
CONTINUOUS
 10
23.076841
 20
2.417905
 30
0.000000
 11
25.175080
 21
2.417905
 31
0.000000
  0
LINE
  8
Dimensions - Text
 62
     7
  6
CONTINUOUS
 10
23.076841
 20
2.754780
 30
0.000000
 11
25.175080
 21
2.754780
 31
0.000000
  0
TEXT
  8
Dimensions - Text
 62
     7
 10
29.632049
 20
0.779524
 30
0.000000
 40
0.063198
  1
ALL DIMENSIONS IN INCHES UNLESS OTHERWISE SPECIFIED
  0
TEXT
  8
Dimensions - Text
 62
     7
 10
25.271248
 20
2.148487
 30
0.000000
 40
0.084219
  1
FINISH:
  0
TEXT
  8
Dimensions - Text
 62
     7
 10
25.913153
 20
2.936929
 30
0.000000
 40
0.084893
  1
TOLERANCES:
  0
TEXT
  8
Dimensions - Text
 62
     7
 10
25.277900
 20
2.809590
 30
0.000000
 40
0.084893
  1
UNLESS OTHERWISE NOTED
  0
LINE
  8
Dimensions - Text
 62
     7
  6
CONTINUOUS
 10
25.691420
 20
2.399283
 30
0.000000
 11
25.837291
 21
2.146627
 31
0.000000
  0
LINE
  8
Dimensions - Text
 62
     7
  6
CONTINUOUS
 10
25.837291
 20
2.146627
 30
0.000000
 11
26.129033
 21
2.651939
 31
0.000000
  0
TEXT
  8
Dimensions - Text
 62
     7
 10
26.805307
 20
2.881108
 30
0.000000
 40
0.126665
  1
.X = ±
  0
TEXT
  8
Dimensions - Text
 62
     7
 10
26.683532
 20
2.649506
 30
0.000000
 40
0.126665
  1
.XX = ±
  0
TEXT
  8
Dimensions - Text
 62
     7
 10
26.562925
 20
2.396850
 30
0.000000
 40
0.126665
  1
.XXX = ±
  0
TEXT
  8
Dimensions - Text
 62
     7
 10
26.384268
 20
2.165248
 30
0.000000
 40
0.126665
  1
ANGLE = ±
  0
LINE
  8
Dimensions - Text
 62
     7
  6
CONTINUOUS
 10
27.784098
 20
1.202998
 30
0.000000
 11
30.058004
 21
1.202998
 31
0.000000
  0
TEXT
  8
Dimensions - Text
 62
     7
 10
27.884108
 20
1.339222
 30
0.000000
 40
0.063164
  1
DWG
  0
TEXT
  8
Dimensions - Text
 62
     7
 10
27.884108
 20
1.244476
 30
0.000000
 40
0.063164
  1
SIZE
  0
LINE
  8
Dimensions - Text
 62
     7
  6
CONTINUOUS
 10
28.710504
 20
1.470814
 30
0.000000
 11
28.710504
 21
1.202998
 31
0.000000
  0
LINE
  8
Dimensions - Text
 62
     7
  6
CONTINUOUS
 10
30.058004
 20
1.470814
 30
0.000000
 11
30.058004
 21
0.881282
 31
0.000000
  0
LINE
  8
Dimensions - Text
 62
     7
  6
CONTINUOUS
 10
30.084954
 20
1.470814
 30
0.000000
 11
30.084954
 21
0.881282
 31
0.000000
  0
TEXT
  8
Dimensions - Text
 62
     7
 10
30.148887
 20
1.218568
 30
0.000000
 40
0.084219
  1
NO.
  0
TEXT
  8
Dimensions - Text
 62
     7
 10
30.148887
 20
1.344896
 30
0.000000
 40
0.084219
  1
DWG
  0
LINE
  8
Dimensions - Text
 62
     7
  6
CONTINUOUS
 10
31.910817
 20
0.908232
 30
0.000000
 11
31.910817
 21
1.470814
 31
0.000000
  0
TEXT
  8
Dimensions - Text
 62
     7
 10
30.731754
 20
1.218157
 30
0.000000
 40
0.168438
  1
______
  0
TEXT
  8
Dimensions - Text
 62
     7
 10
31.991337
 20
1.338300
 30
0.000000
 40
0.084219
  1
REV
  0
TEXT
  8
Dimensions - Text
 62
     7
 10
31.991337
 20
1.211972
 30
0.000000
 40
0.084219
  1
LEVEL
  0
TEXT
  8
Dimensions - Text
 62
     7
 10
27.889272
 20
2.060096
 30
0.000000
 40
0.084219
  1
DWG TITLE
  0
TEXT
  8
Dimensions - Text
 62
     7
 10
28.539945
 20
2.567371
 30
0.000000
 40
0.148225
  1
P.O. BOX 1113 FELTON CA. 95018-1113
  0
TEXT
  8
Dimensions - Text
 62
     7
 10
28.511103
 20
2.324002
 30
0.000000
 40
0.148225
  1
PHONE 831-429-1989 FAX 831-429-1907
  0
TEXT
  8
Dimensions - Text
 62
     7
 10
25.299671
 20
1.512679
 30
0.000000
 40
0.134750
  1
DATE - 
  0
TEXT
  8
Dimensions - Text
 62
     7
 10
25.299671
 20
0.817597
 30
0.000000
 40
0.134750
  1
DATE - 
  0
TEXT
  8
Dimensions - Text
 62
     7
 10
23.874019
 20
0.859136
 30
0.000000
 40
0.084219
  1
USED ON
  0
TEXT
  8
Dimensions - Text
 62
     7
 10
27.300831
 20
2.165248
 30
0.000000
 40
0.126328
  1
1
  0
TEXT
  8
Dimensions - Text
 62
     7
 10
27.300831
 20
2.881108
 30
0.000000
 40
0.126328
  1
.015
  0
TEXT
  8
Dimensions - Text
 62
     7
 10
27.300831
 20
2.396850
 30
0.000000
 40
0.126395
  1
.005
  0
TEXT
  8
Dimensions - Text
 62
     7
 10
27.300831
 20
2.649506
 30
0.000000
 40
0.126395
  1
.010
  0
TEXT
  8
Dimensions - Text
 62
     7
 10
25.542526
 20
2.483502
 30
0.000000
 40
0.134750
  1
32
  0
TEXT
  8
Dimensions - Text
 62
     7
 10
31.952926
 20
1.007611
 30
0.000000
 40
0.084219
  1
SHT 1  OF
  0
TEXT
  8
Dimensions - Text
 62
     7
 10
25.310203
 20
1.828356
 30
0.000000
 40
0.134750
  1
DRAWN BY - DAN SULLIVAN
  0
TEXT
  8
Dimensions - Text
 62
     7
 10
25.278606
 20
1.175804
 30
0.000000
 40
0.134750
  1
REVIEWED BY - 
  0
TEXT
  8
Dimensions - Text
 62
     7
 10
28.810439
 20
1.297929
 30
0.000000
 40
0.063333
  1
E SCALE:
  0
TEXT
  8
Dimensions - Text
 62
     7
 10
26.192706
 20
0.807528
 30
0.000000
 40
0.126395
  1
XX/XX/XX
  0
TEXT
  8
Dimensions - Text
 62
     7
 10
32.620540
 20
1.007611
 30
0.000000
 40
0.084219
  1
X
  0
LINE
  8
Dimensions - Text
 62
     7
  6
CONTINUOUS
 10
23.067848
 20
3.091655
 30
0.000000
 11
33.060164
 21
3.091655
 31
0.000000
  0
TEXT
  8
Dimensions - Text
 62
     7
 10
28.321041
 20
1.266679
 30
0.000000
 40
0.126357
  1
E
  0
LINE
  8
Dimensions - Text
 62
     7
  6
CONTINUOUS
 10
29.342145
 20
0.733530
 30
0.000000
 11
29.342145
 21
0.901967
 31
0.000000
  0
TEXT
  8
Dimensions - Text
 62
     7
 10
28.084082
 20
0.779524
 30
0.000000
 40
0.063198
  1
DO NOT SCALE DRAWING
  0
LINE
  8
Dimensions - Text
 62
     7
  6
CONTINUOUS
 10
23.067848
 20
0.733530
 30
0.000000
 11
33.060164
 21
0.733530
 31
0.000000
  0
LINE
  8
Dimensions - Text
 62
     7
  6
CONTINUOUS
 10
27.811048
 20
0.908232
 30
0.000000
 11
33.033214
 21
0.908232
 31
0.000000
  0
LINE
  8
Dimensions - Text
 62
     7
  6
CONTINUOUS
 10
27.784098
 20
1.176048
 30
0.000000
 11
33.033214
 21
1.176048
 31
0.000000
  0
LINE
  8
Dimensions - Text
 62
     7
  6
CONTINUOUS
 10
27.784098
 20
1.470814
 30
0.000000
 11
33.033214
 21
1.470814
 31
0.000000
  0
LINE
  8
Dimensions - Text
 62
     7
  6
CONTINUOUS
 10
27.784098
 20
1.497764
 30
0.000000
 11
33.033214
 21
1.497764
 31
0.000000
  0
LINE
  8
Dimensions - Text
 62
     7
  6
CONTINUOUS
 10
27.784098
 20
2.201584
 30
0.000000
 11
33.033214
 21
2.201584
 31
0.000000
  0
LINE
  8
Dimensions - Text
 62
     7
  6
CONTINUOUS
 10
27.784098
 20
2.228534
 30
0.000000
 11
33.033214
 21
2.228534
 31
0.000000
  0
TEXT
  8
Dimensions - Text
 62
     7
 10
2.372644
 20
22.076966
 30
0.000000
 40
0.259875
  1
8
  0
LINE
  8
Dimensions - Text
 62
     7
  6
CONTINUOUS
 10
4.536104
 20
21.947030
 30
0.000000
 11
4.536104
 21
22.466780
 31
0.000000
  0
TEXT
  8
Dimensions - Text
 62
     7
 10
6.527396
 20
22.076966
 30
0.000000
 40
0.259875
  1
7
  0
LINE
  8
Dimensions - Text
 62
     7
  6
CONTINUOUS
 10
8.694104
 20
21.947030
 30
0.000000
 11
8.694104
 21
22.466780
 31
0.000000
  0
TEXT
  8
Dimensions - Text
 62
     7
 10
10.688645
 20
22.076966
 30
0.000000
 40
0.259875
  1
6
  0
LINE
  8
Dimensions - Text
 62
     7
  6
CONTINUOUS
 10
12.852104
 20
21.947030
 30
0.000000
 11
12.852104
 21
22.466780
 31
0.000000
  0
TEXT
  8
Dimensions - Text
 62
     7
 10
14.846644
 20
22.076966
 30
0.000000
 40
0.259875
  1
5
  0
LINE
  8
Dimensions - Text
 62
     7
  6
CONTINUOUS
 10
17.010189
 20
22.201317
 30
0.000000
 11
17.010189
 21
22.466780
 31
0.000000
  0
LINE
  8
Dimensions - Text
 62
     7
  6
CONTINUOUS
 10
16.880251
 20
22.201143
 30
0.000000
 11
17.140126
 21
22.201143
 31
0.000000
  0
LINE
  8
Dimensions - Text
 62
     7
  6
CONTINUOUS
 10
17.009782
 20
21.966791
 30
0.000000
 11
16.880251
 21
22.201143
 31
0.000000
  0
LINE
  8
Dimensions - Text
 62
     7
  6
CONTINUOUS
 10
17.140126
 20
22.201143
 30
0.000000
 11
17.009782
 21
21.966791
 31
0.000000
  0
TEXT
  8
Dimensions - Text
 62
     7
 10
19.004644
 20
22.076966
 30
0.000000
 40
0.259875
  1
4
  0
LINE
  8
Dimensions - Text
 62
     7
  6
CONTINUOUS
 10
21.168104
 20
21.947030
 30
0.000000
 11
21.168104
 21
22.466780
 31
0.000000
  0
TEXT
  8
Dimensions - Text
 62
     7
 10
23.162645
 20
22.076966
 30
0.000000
 40
0.259875
  1
3
  0
LINE
  8
Dimensions - Text
 62
     7
  6
CONTINUOUS
 10
25.326104
 20
21.947030
 30
0.000000
 11
25.326104
 21
22.466780
 31
0.000000
  0
LINE
  8
Dimensions - Text
 62
     7
  6
CONTINUOUS
 10
29.484104
 20
21.947030
 30
0.000000
 11
29.484104
 21
22.466780
 31
0.000000
  0
TEXT
  8
Dimensions - Text
 62
     7
 10
31.530620
 20
22.076966
 30
0.000000
 40
0.259875
  1
1
  0
LINE
  8
Dimensions - Text
 62
     7
  6
CONTINUOUS
 10
0.378104
 20
22.466780
 30
0.000000
 11
33.642104
 21
22.466780
 31
0.000000
  0
LINE
  8
Dimensions - Text
 62
     7
  6
CONTINUOUS
 10
32.981783
 20
21.562908
 30
0.000000
 11
24.477374
 21
21.562908
 31
0.000000
  0
LINE
  8
Dimensions - Text
 62
     7
  6
CONTINUOUS
 10
24.477374
 20
21.848770
 30
0.000000
 11
32.981783
 21
21.848770
 31
0.000000
  0
LINE
  8
Dimensions - Text
 62
     7
  6
CONTINUOUS
 10
24.477374
 20
21.277045
 30
0.000000
 11
32.981783
 21
21.277045
 31
0.000000
  0
LINE
  8
Dimensions - Text
 62
     7
  6
CONTINUOUS
 10
24.906168
 20
21.848770
 30
0.000000
 11
24.906168
 21
21.277045
 31
0.000000
  0
LINE
  8
Dimensions - Text
 62
     7
  6
CONTINUOUS
 10
26.335480
 20
21.848770
 30
0.000000
 11
26.335480
 21
21.277045
 31
0.000000
  0
LINE
  8
Dimensions - Text
 62
     7
  6
CONTINUOUS
 10
25.620824
 20
21.848770
 30
0.000000
 11
25.620824
 21
21.277045
 31
0.000000
  0
TEXT
  8
Dimensions - Text
 62
     7
 10
25.093766
 20
21.670107
 30
0.000000
 40
0.071466
  1
REV BY
  0
TEXT
  8
Dimensions - Text
 62
     7
 10
24.604225
 20
21.670107
 30
0.000000
 40
0.071466
  1
REV
  0
TEXT
  8
Dimensions - Text
 62
     7
 10
25.842927
 20
21.670107
 30
0.000000
 40
0.071466
  1
DCO #
  0
TEXT
  8
Dimensions - Text
 62
     7
 10
27.934525
 20
21.670107
 30
0.000000
 40
0.071466
  1
DESCRIPTION
  0
LINE
  8
Dimensions - Text
 62
     7
  6
CONTINUOUS
 10
30.123158
 20
21.848770
 30
0.000000
 11
30.123158
 21
21.277045
 31
0.000000
  0
LINE
  8
Dimensions - Text
 62
     7
  6
CONTINUOUS
 10
31.552471
 20
21.848770
 30
0.000000
 11
31.552471
 21
21.277045
 31
0.000000
  0
TEXT
  8
Dimensions - Text
 62
     7
 10
30.598404
 20
21.670107
 30
0.000000
 40
0.071466
  1
APPROVED
  0
TEXT
  8
Dimensions - Text
 62
     7
 10
32.149209
 20
21.670107
 30
0.000000
 40
0.071466
  1
DATE
  0
TEXT
  8
Dimensions - Text
 62
     7
 10
29.529993
 20
21.348512
 30
0.000000
 40
0.142931
  1
____
  0
TEXT
  8
Dimensions - Text
 62
     7
 10
24.638172
 20
21.348512
 30
0.000000
 40
0.142931
  1
A
  0
TEXT
  8
Dimensions - Text
 62
     7
 10
25.803062
 20
21.348512
 30
0.000000
 40
0.142931
  1
N/A
  0
TEXT
  8
Dimensions - Text
 62
     7
 10
25.088405
 20
21.348512
 30
0.000000
 40
0.142931
  1
DMS
  0
TEXT
  8
Dimensions - Text
 62
     7
 10
27.746010
 20
22.017039
 30
0.000000
 40
0.142931
  1
REVISIONS
  0
TEXT
  8
Dimensions - Text
 62
     7
 10
26.860630
 20
22.076966
 30
0.000000
 40
0.259875
  1
2
  0
LINE
  8
Dimensions - Text
 62
     7
  6
CONTINUOUS
 10
0.378104
 20
0.213780
 30
0.000000
 11
0.378104
 21
22.466780
 31
0.000000
  0
LINE
  8
Dimensions - Text
 62
     7
  6
CONTINUOUS
 10
33.642104
 20
22.466780
 30
0.000000
 11
33.642104
 21
0.213780
 31
0.000000
  0
LINE
  8
Dimensions - Text
 62
     7
  6
CONTINUOUS
 10
0.643567
 20
11.340280
 30
0.000000
 11
0.378104
 21
11.340280
 31
0.000000
  0
LINE
  8
Dimensions - Text
 62
     7
  6
CONTINUOUS
 10
0.643741
 20
11.210342
 30
0.000000
 11
0.643741
 21
11.470217
 31
0.000000
  0
LINE
  8
Dimensions - Text
 62
     7
  6
CONTINUOUS
 10
0.643741
 20
11.470217
 30
0.000000
 11
0.878092
 21
11.339873
 31
0.000000
  0
LINE
  8
Dimensions - Text
 62
     7
  6
CONTINUOUS
 10
0.878092
 20
11.339873
 30
0.000000
 11
0.643741
 21
11.210342
 31
0.000000
  0
LINE
  8
Dimensions - Text
 62
     7
  6
CONTINUOUS
 10
33.376467
 20
11.210342
 30
0.000000
 11
33.142115
 21
11.340686
 31
0.000000
  0
LINE
  8
Dimensions - Text
 62
     7
  6
CONTINUOUS
 10
33.142115
 20
11.340686
 30
0.000000
 11
33.376467
 21
11.470217
 31
0.000000
  0
LINE
  8
Dimensions - Text
 62
     7
  6
CONTINUOUS
 10
33.376641
 20
11.340280
 30
0.000000
 11
33.642104
 21
11.340280
 31
0.000000
  0
LINE
  8
Dimensions - Text
 62
     7
  6
CONTINUOUS
 10
33.376467
 20
11.470217
 30
0.000000
 11
33.376467
 21
11.210342
 31
0.000000
  0
TEXT
  8
Dimensions - Text
 62
     7
 10
13.749283
 20
0.887948
 30
0.000000
 40
0.084219
  1
REQD
  0
TEXT
  8
Dimensions - Text
 62
     7
 10
13.243970
 20
0.887948
 30
0.000000
 40
0.084219
  1
NO.
  0
TEXT
  8
Dimensions - Text
 62
     7
 10
13.348755
 20
1.252226
 30
0.000000
 40
0.168438
  1
1
  0
TEXT
  8
Dimensions - Text
 62
     7
 10
13.201861
 20
1.035331
 30
0.000000
 40
0.084219
  1
ITEM
  0
TEXT
  8
Dimensions - Text
 62
     7
 10
13.791392
 20
1.035331
 30
0.000000
 40
0.084219
  1
QTY
  0
TEXT
  8
Dimensions - Text
 62
     7
 10
14.519358
 20
0.972167
 30
0.000000
 40
0.084219
  1
DWG OR PART NO.
  0
TEXT
  8
Dimensions - Text
 62
     7
 10
21.419505
 20
0.972167
 30
0.000000
 40
0.084219
  1
MATERIAL SPECIFICATION
  0
TEXT
  8
Dimensions - Text
 62
     7
 10
17.302775
 20
0.972167
 30
0.000000
 40
0.084893
  1
MATERIAL / PART DESCRIPTION / MANUFACTURER
  0
TEXT
  8
Dimensions - Text
 62
     7
 10
13.684471
 20
1.261717
 30
0.000000
 40
0.168438
  1
A/R
  0
LINE
  8
Dimensions - Text
 62
     7
  6
CONTINUOUS
 10
13.075533
 20
1.161659
 30
0.000000
 11
23.067848
 21
1.161659
 31
0.000000
  0
LINE
  8
Dimensions - Text
 62
     7
  6
CONTINUOUS
 10
13.075533
 20
1.498534
 30
0.000000
 11
23.067848
 21
1.498534
 31
0.000000
  0
LINE
  8
Dimensions - Text
 62
     7
  6
CONTINUOUS
 10
13.075533
 20
1.835409
 30
0.000000
 11
23.067848
 21
1.835409
 31
0.000000
  0
LINE
  8
Dimensions - Text
 62
     7
  6
CONTINUOUS
 10
13.580845
 20
2.509159
 30
0.000000
 11
13.580845
 21
0.824784
 31
0.000000
  0
LINE
  8
Dimensions - Text
 62
     7
  6
CONTINUOUS
 10
14.254595
 20
2.509159
 30
0.000000
 11
14.254595
 21
0.824784
 31
0.000000
  0
LINE
  8
Dimensions - Text
 62
     7
  6
CONTINUOUS
 10
15.728423
 20
2.509159
 30
0.000000
 11
15.728423
 21
0.824784
 31
0.000000
  0
LINE
  8
Dimensions - Text
 62
     7
  6
CONTINUOUS
 10
13.075533
 20
2.172284
 30
0.000000
 11
23.067848
 21
2.172284
 31
0.000000
  0
LINE
  8
Dimensions - Text
 62
     7
  6
CONTINUOUS
 10
21.118423
 20
2.509159
 30
0.000000
 11
21.118423
 21
0.824784
 31
0.000000
  0
TEXT
  8
Dimensions - Text
 62
     7
 10
28.771713
 20
2.828403
 30
0.000000
 40
0.202125
  1
ELECTRO AUTOMOTIVE
  0
LINE
  8
Dimensions - Text
 62
     7
  6
CONTINUOUS
 10
16.880251
 20
0.586929
 30
0.000000
 11
17.010595
 21
0.821281
 31
0.000000
  0
LINE
  8
Dimensions - Text
 62
     7
  6
CONTINUOUS
 10
17.010595
 20
0.821281
 30
0.000000
 11
17.140126
 21
0.586929
 31
0.000000
  0
LINE
  8
Dimensions - Text
 62
     7
  6
CONTINUOUS
 10
17.140126
 20
0.586929
 30
0.000000
 11
16.880251
 21
0.586929
 31
0.000000
  0
TEXT
  8
Dimensions - Text
 62
     7
 10
19.004644
 20
0.494656
 30
0.000000
 40
0.259875
  1
4
  0
LINE
  8
Dimensions - Text
 62
     7
  6
CONTINUOUS
 10
17.010189
 20
0.586755
 30
0.000000
 11
17.010189
 21
0.454293
 31
0.000000
  0
LINE
  8
Dimensions - Text
 62
     7
  6
CONTINUOUS
 10
21.168104
 20
0.733530
 30
0.000000
 11
21.168104
 21
0.213780
 31
0.000000
  0
TEXT
  8
Dimensions - Text
 62
     7
 10
28.637722
 20
1.879806
 30
0.000000
 40
0.202510
  1
PLATE, UQM MOTOR
  0
TEXT
  8
Dimensions - Text
 62
     7
 10
28.637722
 20
1.576041
 30
0.000000
 40
0.202510
  1
MOUNT
  0
TEXT
  8
Dimensions - Text
 62
     7
 10
32.500348
 20
1.260267
 30
0.000000
 40
0.175560
  1
A
  0
TEXT
  8
Dimensions - Text
 62
     7
 10
29.421865
 20
1.270794
 30
0.000000
 40
0.127050
  1
1 : 1
  0
TEXT
  8
Dimensions - Text
 62
     7
 10
26.192706
 20
1.502610
 30
0.000000
 40
0.127050
  1
10/29/09
  0
TEXT
  8
Dimensions - Text
 62
     7
 10
15.978175
 20
1.246298
 30
0.000000
 40
0.168630
  1
5/8" ALUM TOOLING PLATE or 6061-T6
  0
TEXT
  8
Dimensions - Text
 62
     7
 10
1.397350
 20
1.745965
 30
0.000000
 40
0.157080
  1
1  - BREAK AND DEBURR ALL SHARP EDGES. .01-.02.
  0
TEXT
  8
Dimensions - Text
 62
     7
 10
1.159467
 20
1.001911
 30
0.000000
 40
0.207900
  1
NOTES:
  0
TEXT
  8
Dimensions - Text
 62
     7
 10
2.268159
 20
1.025566
 30
0.000000
 40
0.129937
  1
UNLESS OTHERWISE SPECIFIED
  0
CIRCLE
  8
Motor Plate - UQM - 143
 62
     7
  6
CONTINUOUS
 10
12.142997
 20
11.210062
 30
0.000000
 40
5.500000
  0
CIRCLE
  8
Motor Plate - UQM - 143
 62
     7
  6
CONTINUOUS
 10
12.142997
 20
11.210062
 30
0.000000
 40
2.000000
  0
CIRCLE
  8
Motor Plate - UQM - 143
 62
     7
  6
CONTINUOUS
 10
12.142997
 20
15.345062
 30
0.000000
 40
0.265000
  0
CIRCLE
  8
Motor Plate - UQM - 143
 62
     7
  6
CONTINUOUS
 10
8.007997
 20
11.210062
 30
0.000000
 40
0.265000
  0
CIRCLE
  8
Motor Plate - UQM - 143
 62
     7
  6
CONTINUOUS
 10
12.142997
 20
7.075062
 30
0.000000
 40
0.265000
  0
CIRCLE
  8
Motor Plate - UQM - 143
 62
     7
  6
CONTINUOUS
 10
16.277997
 20
11.210062
 30
0.000000
 40
0.265000
  0
CIRCLE
  8
Motor Plate - UQM - 143
 62
     7
  6
CONTINUOUS
 10
12.142997
 20
11.210062
 30
0.000000
 40
3.345000
  0
CIRCLE
  8
Motor Plate - UQM - 143
 62
     7
  6
CONTINUOUS
 10
12.142997
 20
11.210062
 30
0.000000
 40
5.400000
  0
LINE
  8
Centerlines - Phantoms
 62
     7
  6
CONTINUOUS
 10
12.142997
 20
13.210062
 30
0.000000
 11
12.142997
 21
9.210062
 31
0.000000
  0
LINE
  8
Centerlines - Phantoms
 62
     7
  6
CONTINUOUS
 10
14.142997
 20
11.210062
 30
0.000000
 11
10.142997
 21
11.210062
 31
0.000000
  0
CIRCLE
  8
Centerlines - Phantoms
 62
     7
  6
CONTINUOUS
 10
12.142997
 20
11.210062
 30
0.000000
 40
4.135000
  0
CIRCLE
  8
Motor Plate - UQM - 143
 62
     7
  6
CONTINUOUS
 10
12.142997
 20
11.210062
 30
0.000000
 40
3.060500
  0
TEXT
  8
Dimensions - Text
 62
     7
 10
12.575454
 20
17.195894
 30
0.000000
 40
0.200000
  1
A
  0
TEXT
  8
Dimensions - Text
 62
     7
 10
12.575454
 20
5.102669
 30
0.000000
 40
0.200000
  1
A
  0
LINE
  8
Dimensions - Text
 62
     7
  6
CONTINUOUS
 10
12.142997
 20
13.210062
 30
0.000000
 11
12.142997
 21
17.268092
 31
0.000000
  0
LINE
  8
Dimensions - Text
 62
     7
  6
CONTINUOUS
 10
12.142997
 20
17.268092
 30
0.000000
 11
12.442997
 21
17.268092
 31
0.000000
  0
LINE
  8
Dimensions - Text
 62
     7
  6
CONTINUOUS
 10
12.142997
 20
9.210062
 30
0.000000
 11
12.142997
 21
5.174868
 31
0.000000
  0
LINE
  8
Dimensions - Text
 62
     7
  6
CONTINUOUS
 10
12.142997
 20
5.174868
 30
0.000000
 11
12.442997
 21
5.174868
 31
0.000000
  0
LINE
  8
Motor Plate - UQM - 143
 62
     7
  6
CONTINUOUS
 10
24.610044
 20
13.210062
 30
0.000000
 11
23.985044
 21
13.210062
 31
0.000000
  0
LINE
  8
Motor Plate - UQM - 143
 62
     7
  6
CONTINUOUS
 10
24.610044
 20
9.210062
 30
0.000000
 11
23.985044
 21
9.210062
 31
0.000000
  0
LINE
  8
Motor Plate - UQM - 143
 62
     7
  6
CONTINUOUS
 10
23.985044
 20
14.555062
 30
0.000000
 11
24.235044
 21
14.555062
 31
0.000000
  0
LINE
  8
Motor Plate - UQM - 143
 62
     7
  6
CONTINUOUS
 10
24.235044
 20
14.555062
 30
0.000000
 11
24.235044
 21
14.270062
 31
0.000000
  0
LINE
  8
Motor Plate - UQM - 143
 62
     7
  6
CONTINUOUS
 10
24.235044
 20
14.270062
 30
0.000000
 11
23.985044
 21
14.270062
 31
0.000000
  0
LINE
  8
Motor Plate - UQM - 143
 62
     7
  6
CONTINUOUS
 10
23.985044
 20
7.865062
 30
0.000000
 11
24.235044
 21
7.865062
 31
0.000000
  0
LINE
  8
Motor Plate - UQM - 143
 62
     7
  6
CONTINUOUS
 10
24.235044
 20
7.865062
 30
0.000000
 11
24.235044
 21
8.150062
 31
0.000000
  0
LINE
  8
Motor Plate - UQM - 143
 62
     7
  6
CONTINUOUS
 10
24.235044
 20
8.150062
 30
0.000000
 11
23.985044
 21
8.150062
 31
0.000000
  0
ARC
  8
Motor Plate - UQM - 143
 62
     7
  6
CONTINUOUS
 10
24.510044
 20
16.610062
 30
0.000000
 40
0.100000
 50
360.000000
 51
450.000000
  0
LINE
  8
Motor Plate - UQM - 143
 62
     7
  6
CONTINUOUS
 10
24.510044
 20
16.710062
 30
0.000000
 11
24.085044
 21
16.710062
 31
0.000000
  0
ARC
  8
Motor Plate - UQM - 143
 62
     7
  6
CONTINUOUS
 10
24.085044
 20
16.610062
 30
0.000000
 40
0.100000
 50
90.000000
 51
180.000000
  0
LINE
  8
Motor Plate - UQM - 143
 62
     7
  6
CONTINUOUS
 10
24.610044
 20
5.810062
 30
0.000000
 11
24.610044
 21
16.610062
 31
0.000000
  0
ARC
  8
Motor Plate - UQM - 143
 62
     7
  6
CONTINUOUS
 10
24.510044
 20
5.810062
 30
0.000000
 40
0.100000
 50
270.000000
 51
360.000000
  0
LINE
  8
Motor Plate - UQM - 143
 62
     7
  6
CONTINUOUS
 10
24.085044
 20
5.710062
 30
0.000000
 11
24.510044
 21
5.710062
 31
0.000000
  0
LINE
  8
Motor Plate - UQM - 143
 62
     7
  6
CONTINUOUS
 10
23.985044
 20
16.610062
 30
0.000000
 11
23.985044
 21
5.810062
 31
0.000000
  0
ARC
  8
Motor Plate - UQM - 143
 62
     7
  6
CONTINUOUS
 10
24.085044
 20
5.810062
 30
0.000000
 40
0.100000
 50
180.000000
 51
270.000000
  0
LINE
  8
Motor Plate - UQM - 143
 62
     7
  6
CONTINUOUS
 10
23.985044
 20
15.610062
 30
0.000000
 11
24.610044
 21
15.610062
 31
0.000000
  0
LINE
  8
Motor Plate - UQM - 143
 62
     7
  6
CONTINUOUS
 10
23.985044
 20
15.080062
 30
0.000000
 11
24.610044
 21
15.080062
 31
0.000000
  0
LINE
  8
Motor Plate - UQM - 143
 62
     7
  6
CONTINUOUS
 10
23.985044
 20
7.340062
 30
0.000000
 11
24.610044
 21
7.340062
 31
0.000000
  0
LINE
  8
Motor Plate - UQM - 143
 62
     7
  6
CONTINUOUS
 10
23.985044
 20
6.810062
 30
0.000000
 11
24.610044
 21
6.810062
 31
0.000000
  0
LINE
  8
Centerlines - Phantoms
 62
     7
  6
CONTINUOUS
 10
24.910044
 20
11.210062
 30
0.000000
 11
23.685044
 21
11.210062
 31
0.000000
  0
LINE
  8
Centerlines - Phantoms
 62
     7
  6
CONTINUOUS
 10
24.910044
 20
15.345062
 30
0.000000
 11
23.685044
 21
15.345062
 31
0.000000
  0
LINE
  8
Centerlines - Phantoms
 62
     7
  6
CONTINUOUS
 10
24.910044
 20
7.075062
 30
0.000000
 11
23.685044
 21
7.075062
 31
0.000000
  0
TEXT
  8
Dimensions - Text
 62
     7
 10
23.468551
 20
4.723628
 30
0.000000
 40
0.150000
  1
SECTION A - A
  0
LINE
  8
Dimensions - Text
 62
     7
  6
CONTINUOUS
 10
24.014334
 20
16.680772
 30
0.000000
 11
23.395113
 21
17.106271
 31
0.000000
  0
LINE
  8
Dimensions - Text
 62
     7
  6
CONTINUOUS
 10
24.014334
 20
16.680772
 30
0.000000
 11
23.783355
 21
16.776423
 31
0.000000
  0
LINE
  8
Dimensions - Text
 62
     7
  6
CONTINUOUS
 10
24.014334
 20
16.680772
 30
0.000000
 11
23.842229
 21
16.862101
 31
0.000000
  0
LINE
  8
Dimensions - Text
 62
     7
  6
CONTINUOUS
 10
23.783355
 20
16.776423
 30
0.000000
 11
23.842229
 21
16.862101
 31
0.000000
  0
LINE
  8
Dimensions - Text
 62
     7
  6
CONTINUOUS
 10
23.395113
 20
17.106271
 30
0.000000
 11
23.195113
 21
17.106271
 31
0.000000
  0
TEXT
  8
Dimensions - Text
 62
     7
 10
20.665113
 20
17.006271
 30
0.000000
 40
0.200000
  1
2X .05 X .05
  0
LINE
  8
Dimensions - Text
 62
     7
  6
CONTINUOUS
 10
17.853652
 20
15.360316
 30
0.000000
 11
18.053652
 21
15.360316
 31
0.000000
  0
LINE
  8
Dimensions - Text
 62
     7
  6
CONTINUOUS
 10
16.592138
 20
14.443503
 30
0.000000
 11
16.424882
 21
14.257693
 31
0.000000
  0
LINE
  8
Dimensions - Text
 62
     7
  6
CONTINUOUS
 10
16.592138
 20
14.443503
 30
0.000000
 11
16.363766
 21
14.341787
 31
0.000000
  0
LINE
  8
Dimensions - Text
 62
     7
  6
CONTINUOUS
 10
16.424882
 20
14.257693
 30
0.000000
 11
16.363766
 21
14.341787
 31
0.000000
  0
LINE
  8
Dimensions - Text
 62
     7
  6
CONTINUOUS
 10
7.693856
 20
7.976621
 30
0.000000
 11
7.861113
 21
8.162430
 31
0.000000
  0
LINE
  8
Dimensions - Text
 62
     7
  6
CONTINUOUS
 10
7.693856
 20
7.976621
 30
0.000000
 11
7.922228
 21
8.078337
 31
0.000000
  0
LINE
  8
Dimensions - Text
 62
     7
  6
CONTINUOUS
 10
7.861113
 20
8.162430
 30
0.000000
 11
7.922228
 21
8.078337
 31
0.000000
  0
LINE
  8
Dimensions - Text
 62
     7
  6
CONTINUOUS
 10
7.693856
 20
7.976621
 30
0.000000
 11
17.853652
 21
15.360316
 31
0.000000
  0
TEXT
  8
Dimensions - Text
 62
     7
 10
18.208652
 20
15.260316
 30
0.000000
 40
0.200000
  1
11.00
  0
LINE
  8
Dimensions - Text
 62
     7
  6
CONTINUOUS
 10
23.985044
 20
18.674775
 30
0.000000
 11
24.182006
 21
18.709505
 31
0.000000
  0
LINE
  8
Dimensions - Text
 62
     7
  6
CONTINUOUS
 10
23.985044
 20
18.674775
 30
0.000000
 11
24.182006
 21
18.640046
 31
0.000000
  0
LINE
  8
Dimensions - Text
 62
     7
  6
CONTINUOUS
 10
24.182006
 20
18.709505
 30
0.000000
 11
24.182006
 21
18.640046
 31
0.000000
  0
LINE
  8
Dimensions - Text
 62
     7
  6
CONTINUOUS
 10
24.610044
 20
18.674775
 30
0.000000
 11
24.413083
 21
18.640046
 31
0.000000
  0
LINE
  8
Dimensions - Text
 62
     7
  6
CONTINUOUS
 10
24.610044
 20
18.674775
 30
0.000000
 11
24.413083
 21
18.709505
 31
0.000000
  0
LINE
  8
Dimensions - Text
 62
     7
  6
CONTINUOUS
 10
24.413083
 20
18.640046
 30
0.000000
 11
24.413083
 21
18.709505
 31
0.000000
  0
LINE
  8
Dimensions - Text
 62
     7
  6
CONTINUOUS
 10
23.985044
 20
16.680062
 30
0.000000
 11
23.985044
 21
18.724775
 31
0.000000
  0
LINE
  8
Dimensions - Text
 62
     7
  6
CONTINUOUS
 10
24.610044
 20
16.680062
 30
0.000000
 11
24.610044
 21
18.724775
 31
0.000000
  0
TEXT
  8
Dimensions - Text
 62
     7
 10
22.202081
 20
18.574775
 30
0.000000
 40
0.200000
  1
5/8" STK
  0
LINE
  8
Dimensions - Text
 62
     7
  6
CONTINUOUS
 10
23.822082
 20
18.674775
 30
0.000000
 11
24.610044
 21
18.674775
 31
0.000000
  0
LINE
  8
Dimensions - Text
 62
     7
  6
CONTINUOUS
 10
14.556152
 20
18.517726
 30
0.000000
 11
14.756152
 21
18.517726
 31
0.000000
  0
LINE
  8
Dimensions - Text
 62
     7
  6
CONTINUOUS
 10
13.191882
 20
14.386359
 30
0.000000
 11
13.164560
 21
14.137857
 31
0.000000
  0
LINE
  8
Dimensions - Text
 62
     7
  6
CONTINUOUS
 10
13.191882
 20
14.386359
 30
0.000000
 11
13.065847
 21
14.170454
 31
0.000000
  0
LINE
  8
Dimensions - Text
 62
     7
  6
CONTINUOUS
 10
13.164560
 20
14.137857
 30
0.000000
 11
13.065847
 21
14.170454
 31
0.000000
  0
LINE
  8
Dimensions - Text
 62
     7
  6
CONTINUOUS
 10
11.094112
 20
8.033764
 30
0.000000
 11
11.121435
 21
8.282267
 31
0.000000
  0
LINE
  8
Dimensions - Text
 62
     7
  6
CONTINUOUS
 10
11.094112
 20
8.033764
 30
0.000000
 11
11.220148
 21
8.249670
 31
0.000000
  0
LINE
  8
Dimensions - Text
 62
     7
  6
CONTINUOUS
 10
11.121435
 20
8.282267
 30
0.000000
 11
11.220148
 21
8.249670
 31
0.000000
  0
LINE
  8
Dimensions - Text
 62
     7
  6
CONTINUOUS
 10
11.094112
 20
8.033764
 30
0.000000
 11
14.556152
 21
18.517726
 31
0.000000
  0
TEXT
  8
Dimensions - Text
 62
     7
 10
14.891152
 20
18.417726
 30
0.000000
 40
0.200000
  1
6.69
  0
LINE
  8
Dimensions - Text
 62
     7
  6
CONTINUOUS
 10
16.014472
 20
17.418377
 30
0.000000
 11
16.264472
 21
17.418377
 31
0.000000
  0
LINE
  8
Dimensions - Text
 62
     7
  6
CONTINUOUS
 10
13.762435
 20
13.806999
 30
0.000000
 11
13.677145
 21
13.571997
 31
0.000000
  0
LINE
  8
Dimensions - Text
 62
     7
  6
CONTINUOUS
 10
13.762435
 20
13.806999
 30
0.000000
 11
13.588935
 21
13.627005
 31
0.000000
  0
LINE
  8
Dimensions - Text
 62
     7
  6
CONTINUOUS
 10
13.677145
 20
13.571997
 30
0.000000
 11
13.588935
 21
13.627005
 31
0.000000
  0
LINE
  8
Dimensions - Text
 62
     7
  6
CONTINUOUS
 10
10.523560
 20
8.613125
 30
0.000000
 11
10.608849
 21
8.848126
 31
0.000000
  0
LINE
  8
Dimensions - Text
 62
     7
  6
CONTINUOUS
 10
10.523560
 20
8.613125
 30
0.000000
 11
10.697059
 21
8.793119
 31
0.000000
  0
LINE
  8
Dimensions - Text
 62
     7
  6
CONTINUOUS
 10
10.608849
 20
8.848126
 30
0.000000
 11
10.697059
 21
8.793119
 31
0.000000
  0
LINE
  8
Dimensions - Text
 62
     7
  6
CONTINUOUS
 10
10.523560
 20
8.613125
 30
0.000000
 11
16.014472
 21
17.418377
 31
0.000000
  0
TEXT
  8
Dimensions - Text
 62
     7
 10
16.364472
 20
17.318377
 30
0.000000
 40
0.200000
  1
6.121
  0
TEXT
  8
Dimensions - Text
 62
     7
 10
17.056972
 20
17.518377
 30
0.000000
 40
0.200000
  1
+.001
  0
TEXT
  8
Dimensions - Text
 62
     7
 10
17.016973
 20
17.118376
 30
0.000000
 40
0.200000
  1
-.000
  0
LINE
  8
Dimensions - Text
 62
     7
  6
CONTINUOUS
 10
23.985044
 20
13.815956
 30
0.000000
 11
23.740507
 21
13.763978
 31
0.000000
  0
LINE
  8
Dimensions - Text
 62
     7
  6
CONTINUOUS
 10
23.985044
 20
13.815956
 30
0.000000
 11
23.740507
 21
13.867933
 31
0.000000
  0
LINE
  8
Dimensions - Text
 62
     7
  6
CONTINUOUS
 10
23.740507
 20
13.763978
 30
0.000000
 11
23.740507
 21
13.867933
 31
0.000000
  0
LINE
  8
Dimensions - Text
 62
     7
  6
CONTINUOUS
 10
24.235044
 20
13.815956
 30
0.000000
 11
24.479581
 21
13.867933
 31
0.000000
  0
LINE
  8
Dimensions - Text
 62
     7
  6
CONTINUOUS
 10
24.235044
 20
13.815956
 30
0.000000
 11
24.479581
 21
13.763978
 31
0.000000
  0
LINE
  8
Dimensions - Text
 62
     7
  6
CONTINUOUS
 10
24.479581
 20
13.867933
 30
0.000000
 11
24.479581
 21
13.763978
 31
0.000000
  0
LINE
  8
Dimensions - Text
 62
     7
  6
CONTINUOUS
 10
23.985044
 20
14.200062
 30
0.000000
 11
23.985044
 21
13.765956
 31
0.000000
  0
LINE
  8
Dimensions - Text
 62
     7
  6
CONTINUOUS
 10
24.235044
 20
14.200062
 30
0.000000
 11
24.235044
 21
13.765956
 31
0.000000
  0
TEXT
  8
Dimensions - Text
 62
     7
 10
21.328149
 20
13.715955
 30
0.000000
 40
0.200000
  1
.250±.003
  0
LINE
  8
Dimensions - Text
 62
     7
  6
CONTINUOUS
 10
23.985044
 20
13.815956
 30
0.000000
 11
23.485044
 21
13.815956
 31
0.000000
  0
LINE
  8
Dimensions - Text
 62
     7
  6
CONTINUOUS
 10
24.235044
 20
13.815956
 30
0.000000
 11
24.735044
 21
13.815956
 31
0.000000
  0
LINE
  8
Dimensions - Text
 62
     7
  6
CONTINUOUS
 10
17.203564
 20
7.165265
 30
0.000000
 11
17.453564
 21
7.165265
 31
0.000000
  0
LINE
  8
Dimensions - Text
 62
     7
  6
CONTINUOUS
 10
13.705285
 20
9.961360
 30
0.000000
 11
13.508631
 21
10.059986
 31
0.000000
  0
LINE
  8
Dimensions - Text
 62
     7
  6
CONTINUOUS
 10
13.705285
 20
9.961360
 30
0.000000
 11
13.565747
 21
10.131446
 31
0.000000
  0
LINE
  8
Dimensions - Text
 62
     7
  6
CONTINUOUS
 10
13.508631
 20
10.059986
 30
0.000000
 11
13.565747
 21
10.131446
 31
0.000000
  0
LINE
  8
Dimensions - Text
 62
     7
  6
CONTINUOUS
 10
10.580709
 20
12.458763
 30
0.000000
 11
10.777363
 21
12.360138
 31
0.000000
  0
LINE
  8
Dimensions - Text
 62
     7
  6
CONTINUOUS
 10
10.580709
 20
12.458763
 30
0.000000
 11
10.720247
 21
12.288678
 31
0.000000
  0
LINE
  8
Dimensions - Text
 62
     7
  6
CONTINUOUS
 10
10.777363
 20
12.360138
 30
0.000000
 11
10.720247
 21
12.288678
 31
0.000000
  0
LINE
  8
Dimensions - Text
 62
     7
  6
CONTINUOUS
 10
10.580709
 20
12.458763
 30
0.000000
 11
17.203564
 21
7.165265
 31
0.000000
  0
TEXT
  8
Dimensions - Text
 62
     7
 10
17.553564
 20
7.065265
 30
0.000000
 40
0.200000
  1
4.00
  0
LINE
  8
Dimensions - Text
 62
     7
  6
CONTINUOUS
 10
9.194022
 20
17.261327
 30
0.000000
 11
8.994022
 21
17.261327
 31
0.000000
  0
LINE
  8
Dimensions - Text
 62
     7
  6
CONTINUOUS
 10
10.331535
 20
14.927162
 30
0.000000
 11
10.485387
 21
14.730109
 31
0.000000
  0
LINE
  8
Dimensions - Text
 62
     7
  6
CONTINUOUS
 10
10.331535
 20
14.927162
 30
0.000000
 11
10.391937
 21
14.684568
 31
0.000000
  0
LINE
  8
Dimensions - Text
 62
     7
  6
CONTINUOUS
 10
10.485387
 20
14.730109
 30
0.000000
 11
10.391937
 21
14.684568
 31
0.000000
  0
LINE
  8
Dimensions - Text
 62
     7
  6
CONTINUOUS
 10
13.954459
 20
7.492962
 30
0.000000
 11
13.800607
 21
7.690014
 31
0.000000
  0
LINE
  8
Dimensions - Text
 62
     7
  6
CONTINUOUS
 10
13.954459
 20
7.492962
 30
0.000000
 11
13.894057
 21
7.735555
 31
0.000000
  0
LINE
  8
Dimensions - Text
 62
     7
  6
CONTINUOUS
 10
13.800607
 20
7.690014
 30
0.000000
 11
13.894057
 21
7.735555
 31
0.000000
  0
LINE
  8
Dimensions - Text
 62
     7
  6
CONTINUOUS
 10
13.954459
 20
7.492962
 30
0.000000
 11
9.194022
 21
17.261327
 31
0.000000
  0
TEXT
  8
Dimensions - Text
 62
     7
 10
6.958395
 20
17.161327
 30
0.000000
 40
0.200000
  1
8.270 B.C.
  0
LINE
  8
Dimensions - Text
 62
     7
  6
CONTINUOUS
 10
10.383113
 20
18.629904
 30
0.000000
 11
10.183113
 21
18.629904
 31
0.000000
  0
LINE
  8
Dimensions - Text
 62
     7
  6
CONTINUOUS
 10
12.017850
 20
15.578650
 30
0.000000
 11
12.179150
 21
15.387646
 31
0.000000
  0
LINE
  8
Dimensions - Text
 62
     7
  6
CONTINUOUS
 10
12.017850
 20
15.578650
 30
0.000000
 11
12.087517
 21
15.338553
 31
0.000000
  0
LINE
  8
Dimensions - Text
 62
     7
  6
CONTINUOUS
 10
12.179150
 20
15.387646
 30
0.000000
 11
12.087517
 21
15.338553
 31
0.000000
  0
LINE
  8
Dimensions - Text
 62
     7
  6
CONTINUOUS
 10
12.268144
 20
15.111474
 30
0.000000
 11
12.106844
 21
15.302478
 31
0.000000
  0
LINE
  8
Dimensions - Text
 62
     7
  6
CONTINUOUS
 10
12.268144
 20
15.111474
 30
0.000000
 11
12.198477
 21
15.351571
 31
0.000000
  0
LINE
  8
Dimensions - Text
 62
     7
  6
CONTINUOUS
 10
12.106844
 20
15.302478
 30
0.000000
 11
12.198477
 21
15.351571
 31
0.000000
  0
LINE
  8
Dimensions - Text
 62
     7
  6
CONTINUOUS
 10
12.268144
 20
15.111474
 30
0.000000
 11
10.383113
 21
18.629904
 31
0.000000
  0
TEXT
  8
Dimensions - Text
 62
     7
 10
7.147485
 20
18.529903
 30
0.000000
 40
0.200000
  1
4X .530 ON B.C.
  0
TEXT
  8
Dimensions - Text
 62
     7
 10
26.406947
 20
21.348512
 30
0.000000
 40
0.143000
  1
DRAWING RELEASED 11/02/09
  0
TEXT
  8
Dimensions - Text
 62
     7
 10
16.245026
 20
16.753885
 30
0.000000
 40
0.180000
  1
BREAK OUTSIDE
  0
TEXT
  8
Dimensions - Text
 62
     7
 10
16.245026
 20
16.483886
 30
0.000000
 40
0.180000
  1
CORNER .01-.02
  0
TEXT
  8
Dimensions - Text
 62
     7
 10
20.895938
 20
13.345282
 30
0.000000
 40
0.180000
  1
INSIDE CORNERS
  0
TEXT
  8
Dimensions - Text
 62
     7
 10
21.367312
 20
13.075282
 30
0.000000
 40
0.180000
  1
MAX R .015
  0
TEXT
  8
Dimensions - Text
 62
     7
 10
14.902377
 20
18.054297
 30
0.000000
 40
0.150000
  1
NO BREAK REQ.
  0
TEXT
  8
Dimensions - Text
 62
     7
 10
7.197309
 20
18.193882
 30
0.000000
 40
0.150000
  1
NO CHAMFERS REQ.
  0
TEXT
  8
Dimensions - Text
 62
     7
 10
23.621677
 20
1.390296
 30
0.000000
 40
0.134750
  1
UQM MOTOR
  0
TEXT
  8
Dimensions - Text
 62
     7
 10
23.621677
 20
1.188171
 30
0.000000
 40
0.134750
  1
SPM218-143-3
  0
TEXT
  8
Dimensions - Text
 62
     7
 10
21.320786
 20
1.246298
 30
0.000000
 40
0.168000
  1
N/A
  0
TEXT
  8
Dimensions - Text
 62
     7
 10
15.654069
 20
0.273170
 30
0.000000
 40
0.139000
  1
PRINT SCALE - 11 X 17 = 1 : 2.1   / 13 X 19 = 1 : 1.9
  0
ENDSEC
  0
EOF
