  0
SECTION
  2
HEADER
  9
$ACADVER
  1
AC1006
  0
ENDSEC
  0
SECTION
  2
TABLES
  0
TABLE
  2
LTYPE
 70
    25
  0
LTYPE
  2
CONTINUOUS
 70
    64
  3
Solid line
 72
    64
 73
     0
 40
0.000000
  0
LTYPE
  2
DASHDOT
 70
    64
  3
__ . __ . __ . __ . __ . __ . __ . __ . __ . __
 72
    65
 73
     4
 40
1.000000
 49
0.500000
 49
-0.250000
 49
0.000000
 49
-0.250000
  0
LTYPE
  2
DASHED
 70
    64
  3
__ __ __ __ __ __ __ __ __ __ __ __ __ __ __ __
 72
    65
 73
     2
 40
0.750000
 49
0.500000
 49
-0.250000
  0
LTYPE
  2
DIVIDE
 70
    64
  3
____ . . ____ . . ____ . . ____ . . ____ . . __
 72
    65
 73
     6
 40
1.250000
 49
0.500000
 49
-0.250000
 49
0.000000
 49
-0.250000
 49
0.000000
 49
-0.250000
  0
LTYPE
  2
DOT
 70
    64
  3
. . . . . . . . . . . . . . . . . . . . . . . . 
 72
    65
 73
     2
 40
0.250000
 49
0.000000
 49
-0.250000
  0
ENDTAB
  0
ENDSEC
  0
SECTION
  2
ENTITIES
  0
TEXT
  8
Dimensions - Text
 62
     7
 10
-0.173147
 20
0.498086
 30
0.000000
 40
0.259875
  1
8
  0
LINE
  8
Dimensions - Text
 62
     7
  6
CONTINUOUS
 10
-2.167688
 20
5.760554
 30
0.000000
 11
-1.647938
 21
5.760554
 31
0.000000
  0
TEXT
  8
Dimensions - Text
 62
     7
 10
-2.006813
 20
2.934414
 30
0.000000
 40
0.259875
  1
A
  0
TEXT
  8
Dimensions - Text
 62
     7
 10
-1.994438
 20
8.326820
 30
0.000000
 40
0.259875
  1
B
  0
LINE
  8
Dimensions - Text
 62
     7
  6
CONTINUOUS
 10
-2.167688
 20
16.545367
 30
0.000000
 11
-1.647938
 21
16.545367
 31
0.000000
  0
TEXT
  8
Dimensions - Text
 62
     7
 10
-2.000625
 20
13.719227
 30
0.000000
 40
0.259875
  1
C
  0
LINE
  8
Dimensions - Text
 62
     7
  6
CONTINUOUS
 10
1.990312
 20
0.887898
 30
0.000000
 11
1.990312
 21
0.368148
 31
0.000000
  0
TEXT
  8
Dimensions - Text
 62
     7
 10
3.981604
 20
0.498086
 30
0.000000
 40
0.259875
  1
7
  0
LINE
  8
Dimensions - Text
 62
     7
  6
CONTINUOUS
 10
6.148312
 20
0.887898
 30
0.000000
 11
6.148312
 21
0.368148
 31
0.000000
  0
TEXT
  8
Dimensions - Text
 62
     7
 10
8.142853
 20
0.498086
 30
0.000000
 40
0.259875
  1
6
  0
LINE
  8
Dimensions - Text
 62
     7
  6
CONTINUOUS
 10
10.306312
 20
0.887898
 30
0.000000
 11
10.306312
 21
0.368148
 31
0.000000
  0
TEXT
  8
Dimensions - Text
 62
     7
 10
12.300854
 20
0.498086
 30
0.000000
 40
0.259875
  1
5
  0
TEXT
  8
Dimensions - Text
 62
     7
 10
-1.994438
 20
19.111632
 30
0.000000
 40
0.259875
  1
D
  0
TEXT
  8
Dimensions - Text
 62
     7
 10
20.616854
 20
0.498086
 30
0.000000
 40
0.259875
  1
3
  0
LINE
  8
Dimensions - Text
 62
     7
  6
CONTINUOUS
 10
22.780312
 20
0.887898
 30
0.000000
 11
22.780312
 21
0.368148
 31
0.000000
  0
TEXT
  8
Dimensions - Text
 62
     7
 10
24.774852
 20
0.498086
 30
0.000000
 40
0.259875
  1
2
  0
LINE
  8
Dimensions - Text
 62
     7
  6
CONTINUOUS
 10
26.938312
 20
0.887898
 30
0.000000
 11
26.938312
 21
0.368148
 31
0.000000
  0
TEXT
  8
Dimensions - Text
 62
     7
 10
28.984829
 20
0.498086
 30
0.000000
 40
0.259875
  1
1
  0
LINE
  8
Dimensions - Text
 62
     7
  6
CONTINUOUS
 10
31.096312
 20
5.760554
 30
0.000000
 11
30.576562
 21
5.760554
 31
0.000000
  0
TEXT
  8
Dimensions - Text
 62
     7
 10
30.749812
 20
8.326820
 30
0.000000
 40
0.259875
  1
B
  0
TEXT
  8
Dimensions - Text
 62
     7
 10
30.743624
 20
13.719227
 30
0.000000
 40
0.259875
  1
C
  0
LINE
  8
Dimensions - Text
 62
     7
  6
CONTINUOUS
 10
31.096312
 20
16.545367
 30
0.000000
 11
30.576562
 21
16.545367
 31
0.000000
  0
TEXT
  8
Dimensions - Text
 62
     7
 10
30.749812
 20
19.111632
 30
0.000000
 40
0.259875
  1
D
  0
LINE
  8
Dimensions - Text
 62
     7
  6
CONTINUOUS
 10
31.096312
 20
0.368148
 30
0.000000
 11
-2.167688
 21
0.368148
 31
0.000000
  0
TEXT
  8
Dimensions - Text
 62
     7
 10
30.804150
 20
4.402099
 30
0.000000
 40
0.259875
  1
A
  0
LINE
  8
Dimensions - Text
 62
     7
  6
CONTINUOUS
 10
25.238307
 20
0.887898
 30
0.000000
 11
25.238307
 21
3.246023
 31
0.000000
  0
LINE
  8
Dimensions - Text
 62
     7
  6
CONTINUOUS
 10
22.627525
 20
0.887898
 30
0.000000
 11
22.627525
 21
3.246023
 31
0.000000
  0
LINE
  8
Dimensions - Text
 62
     7
  6
CONTINUOUS
 10
20.522057
 20
0.887898
 30
0.000000
 11
20.522057
 21
3.246023
 31
0.000000
  0
LINE
  8
Dimensions - Text
 62
     7
  6
CONTINUOUS
 10
22.627525
 20
2.235398
 30
0.000000
 11
25.238307
 21
2.235398
 31
0.000000
  0
LINE
  8
Dimensions - Text
 62
     7
  6
CONTINUOUS
 10
22.627525
 20
2.208448
 30
0.000000
 11
25.238307
 21
2.208448
 31
0.000000
  0
LINE
  8
Dimensions - Text
 62
     7
  6
CONTINUOUS
 10
22.654475
 20
1.898523
 30
0.000000
 11
25.238307
 21
1.898523
 31
0.000000
  0
LINE
  8
Dimensions - Text
 62
     7
  6
CONTINUOUS
 10
22.654475
 20
1.562293
 30
0.000000
 11
25.238307
 21
1.562293
 31
0.000000
  0
LINE
  8
Dimensions - Text
 62
     7
  6
CONTINUOUS
 10
22.654475
 20
1.225418
 30
0.000000
 11
25.238307
 21
1.225418
 31
0.000000
  0
LINE
  8
Dimensions - Text
 62
     7
  6
CONTINUOUS
 10
20.531050
 20
2.235398
 30
0.000000
 11
22.629288
 21
2.235398
 31
0.000000
  0
LINE
  8
Dimensions - Text
 62
     7
  6
CONTINUOUS
 10
20.522057
 20
1.898523
 30
0.000000
 11
22.627525
 21
1.898523
 31
0.000000
  0
LINE
  8
Dimensions - Text
 62
     7
  6
CONTINUOUS
 10
20.522057
 20
1.224773
 30
0.000000
 11
22.654475
 21
1.224773
 31
0.000000
  0
LINE
  8
Dimensions - Text
 62
     7
  6
CONTINUOUS
 10
20.531050
 20
2.572273
 30
0.000000
 11
22.629288
 21
2.572273
 31
0.000000
  0
LINE
  8
Dimensions - Text
 62
     7
  6
CONTINUOUS
 10
20.531050
 20
2.909148
 30
0.000000
 11
22.629288
 21
2.909148
 31
0.000000
  0
TEXT
  8
Dimensions - Text
 62
     7
 10
27.086259
 20
0.933892
 30
0.000000
 40
0.063198
  1
ALL DIMENSIONS IN INCHES UNLESS OTHERWISE SPECIFIED
  0
TEXT
  8
Dimensions - Text
 62
     7
 10
22.725455
 20
2.302856
 30
0.000000
 40
0.084219
  1
FINISH:
  0
TEXT
  8
Dimensions - Text
 62
     7
 10
23.367362
 20
3.091298
 30
0.000000
 40
0.084893
  1
TOLERANCES:
  0
TEXT
  8
Dimensions - Text
 62
     7
 10
22.732107
 20
2.963959
 30
0.000000
 40
0.084893
  1
UNLESS OTHERWISE NOTED
  0
LINE
  8
Dimensions - Text
 62
     7
  6
CONTINUOUS
 10
23.145628
 20
2.553652
 30
0.000000
 11
23.291500
 21
2.300995
 31
0.000000
  0
LINE
  8
Dimensions - Text
 62
     7
  6
CONTINUOUS
 10
23.291500
 20
2.300995
 30
0.000000
 11
23.583242
 21
2.806308
 31
0.000000
  0
TEXT
  8
Dimensions - Text
 62
     7
 10
24.259516
 20
3.035476
 30
0.000000
 40
0.126665
  1
.X = ±
  0
TEXT
  8
Dimensions - Text
 62
     7
 10
24.137741
 20
2.803875
 30
0.000000
 40
0.126665
  1
.XX = ±
  0
TEXT
  8
Dimensions - Text
 62
     7
 10
24.017135
 20
2.551218
 30
0.000000
 40
0.126665
  1
.XXX = ±
  0
TEXT
  8
Dimensions - Text
 62
     7
 10
23.838477
 20
2.319617
 30
0.000000
 40
0.126665
  1
ANGLE = ±
  0
LINE
  8
Dimensions - Text
 62
     7
  6
CONTINUOUS
 10
25.238307
 20
1.357367
 30
0.000000
 11
27.512213
 21
1.357367
 31
0.000000
  0
TEXT
  8
Dimensions - Text
 62
     7
 10
25.338317
 20
1.493590
 30
0.000000
 40
0.063164
  1
DWG
  0
TEXT
  8
Dimensions - Text
 62
     7
 10
25.338317
 20
1.398844
 30
0.000000
 40
0.063164
  1
SIZE
  0
LINE
  8
Dimensions - Text
 62
     7
  6
CONTINUOUS
 10
26.164713
 20
1.625182
 30
0.000000
 11
26.164713
 21
1.357367
 31
0.000000
  0
LINE
  8
Dimensions - Text
 62
     7
  6
CONTINUOUS
 10
27.512213
 20
1.625182
 30
0.000000
 11
27.512213
 21
1.035651
 31
0.000000
  0
LINE
  8
Dimensions - Text
 62
     7
  6
CONTINUOUS
 10
27.539163
 20
1.625182
 30
0.000000
 11
27.539163
 21
1.035651
 31
0.000000
  0
TEXT
  8
Dimensions - Text
 62
     7
 10
27.603097
 20
1.372936
 30
0.000000
 40
0.084219
  1
NO.
  0
TEXT
  8
Dimensions - Text
 62
     7
 10
27.603097
 20
1.499264
 30
0.000000
 40
0.084219
  1
DWG
  0
LINE
  8
Dimensions - Text
 62
     7
  6
CONTINUOUS
 10
29.365025
 20
1.062601
 30
0.000000
 11
29.365025
 21
1.625182
 31
0.000000
  0
TEXT
  8
Dimensions - Text
 62
     7
 10
28.185963
 20
1.372526
 30
0.000000
 40
0.168438
  1
______
  0
TEXT
  8
Dimensions - Text
 62
     7
 10
29.445546
 20
1.492668
 30
0.000000
 40
0.084219
  1
REV
  0
TEXT
  8
Dimensions - Text
 62
     7
 10
29.445546
 20
1.366340
 30
0.000000
 40
0.084219
  1
LEVEL
  0
TEXT
  8
Dimensions - Text
 62
     7
 10
25.343481
 20
2.214465
 30
0.000000
 40
0.084219
  1
DWG TITLE
  0
TEXT
  8
Dimensions - Text
 62
     7
 10
25.994155
 20
2.721739
 30
0.000000
 40
0.148225
  1
P.O. BOX 1113 FELTON CA. 95018-1113
  0
TEXT
  8
Dimensions - Text
 62
     7
 10
25.965312
 20
2.478371
 30
0.000000
 40
0.148225
  1
PHONE 831-429-1989 FAX 831-429-1907
  0
TEXT
  8
Dimensions - Text
 62
     7
 10
22.753880
 20
1.667048
 30
0.000000
 40
0.134750
  1
DATE - 
  0
TEXT
  8
Dimensions - Text
 62
     7
 10
22.753880
 20
0.971965
 30
0.000000
 40
0.134750
  1
DATE - 
  0
TEXT
  8
Dimensions - Text
 62
     7
 10
21.328228
 20
1.013505
 30
0.000000
 40
0.084219
  1
USED ON
  0
TEXT
  8
Dimensions - Text
 62
     7
 10
24.755040
 20
2.319617
 30
0.000000
 40
0.126328
  1
1
  0
TEXT
  8
Dimensions - Text
 62
     7
 10
24.755040
 20
3.035476
 30
0.000000
 40
0.126328
  1
.015
  0
TEXT
  8
Dimensions - Text
 62
     7
 10
24.755040
 20
2.551218
 30
0.000000
 40
0.126395
  1
.005
  0
TEXT
  8
Dimensions - Text
 62
     7
 10
24.755040
 20
2.803875
 30
0.000000
 40
0.126395
  1
.010
  0
TEXT
  8
Dimensions - Text
 62
     7
 10
22.996735
 20
2.637870
 30
0.000000
 40
0.134750
  1
32
  0
TEXT
  8
Dimensions - Text
 62
     7
 10
22.764410
 20
1.982725
 30
0.000000
 40
0.134750
  1
DRAWN BY - DAN SULLIVAN
  0
TEXT
  8
Dimensions - Text
 62
     7
 10
22.732815
 20
1.330173
 30
0.000000
 40
0.134750
  1
REVIEWED BY - 
  0
TEXT
  8
Dimensions - Text
 62
     7
 10
26.264648
 20
1.452297
 30
0.000000
 40
0.063333
  1
E SCALE:
  0
TEXT
  8
Dimensions - Text
 62
     7
 10
23.646915
 20
0.961896
 30
0.000000
 40
0.126395
  1
XX/XX/XX
  0
TEXT
  8
Dimensions - Text
 62
     7
 10
30.074746
 20
1.161979
 30
0.000000
 40
0.084219
  1
X
  0
LINE
  8
Dimensions - Text
 62
     7
  6
CONTINUOUS
 10
20.522057
 20
3.246023
 30
0.000000
 11
30.514372
 21
3.246023
 31
0.000000
  0
TEXT
  8
Dimensions - Text
 62
     7
 10
25.775247
 20
1.421047
 30
0.000000
 40
0.126357
  1
E
  0
LINE
  8
Dimensions - Text
 62
     7
  6
CONTINUOUS
 10
26.796354
 20
0.887898
 30
0.000000
 11
26.796354
 21
1.056336
 31
0.000000
  0
TEXT
  8
Dimensions - Text
 62
     7
 10
25.538292
 20
0.933892
 30
0.000000
 40
0.063198
  1
DO NOT SCALE DRAWING
  0
LINE
  8
Dimensions - Text
 62
     7
  6
CONTINUOUS
 10
20.522057
 20
0.887898
 30
0.000000
 11
30.514372
 21
0.887898
 31
0.000000
  0
LINE
  8
Dimensions - Text
 62
     7
  6
CONTINUOUS
 10
25.265257
 20
1.062601
 30
0.000000
 11
30.487422
 21
1.062601
 31
0.000000
  0
LINE
  8
Dimensions - Text
 62
     7
  6
CONTINUOUS
 10
25.238307
 20
1.330417
 30
0.000000
 11
30.487422
 21
1.330417
 31
0.000000
  0
LINE
  8
Dimensions - Text
 62
     7
  6
CONTINUOUS
 10
25.238307
 20
1.625182
 30
0.000000
 11
30.487422
 21
1.625182
 31
0.000000
  0
LINE
  8
Dimensions - Text
 62
     7
  6
CONTINUOUS
 10
25.238307
 20
1.652132
 30
0.000000
 11
30.487422
 21
1.652132
 31
0.000000
  0
LINE
  8
Dimensions - Text
 62
     7
  6
CONTINUOUS
 10
25.238307
 20
2.355952
 30
0.000000
 11
30.487422
 21
2.355952
 31
0.000000
  0
LINE
  8
Dimensions - Text
 62
     7
  6
CONTINUOUS
 10
25.238307
 20
2.382902
 30
0.000000
 11
30.487422
 21
2.382902
 31
0.000000
  0
TEXT
  8
Dimensions - Text
 62
     7
 10
-0.173147
 20
22.231335
 30
0.000000
 40
0.259875
  1
8
  0
LINE
  8
Dimensions - Text
 62
     7
  6
CONTINUOUS
 10
1.990312
 20
22.101398
 30
0.000000
 11
1.990312
 21
22.621148
 31
0.000000
  0
TEXT
  8
Dimensions - Text
 62
     7
 10
3.981604
 20
22.231335
 30
0.000000
 40
0.259875
  1
7
  0
LINE
  8
Dimensions - Text
 62
     7
  6
CONTINUOUS
 10
6.148312
 20
22.101398
 30
0.000000
 11
6.148312
 21
22.621148
 31
0.000000
  0
TEXT
  8
Dimensions - Text
 62
     7
 10
8.142853
 20
22.231335
 30
0.000000
 40
0.259875
  1
6
  0
LINE
  8
Dimensions - Text
 62
     7
  6
CONTINUOUS
 10
10.306312
 20
22.101398
 30
0.000000
 11
10.306312
 21
22.621148
 31
0.000000
  0
TEXT
  8
Dimensions - Text
 62
     7
 10
12.300854
 20
22.231335
 30
0.000000
 40
0.259875
  1
5
  0
LINE
  8
Dimensions - Text
 62
     7
  6
CONTINUOUS
 10
14.464397
 20
22.355685
 30
0.000000
 11
14.464397
 21
22.621148
 31
0.000000
  0
LINE
  8
Dimensions - Text
 62
     7
  6
CONTINUOUS
 10
14.334460
 20
22.355511
 30
0.000000
 11
14.594335
 21
22.355511
 31
0.000000
  0
LINE
  8
Dimensions - Text
 62
     7
  6
CONTINUOUS
 10
14.463991
 20
22.121159
 30
0.000000
 11
14.334460
 21
22.355511
 31
0.000000
  0
LINE
  8
Dimensions - Text
 62
     7
  6
CONTINUOUS
 10
14.594335
 20
22.355511
 30
0.000000
 11
14.463991
 21
22.121159
 31
0.000000
  0
TEXT
  8
Dimensions - Text
 62
     7
 10
16.458853
 20
22.231335
 30
0.000000
 40
0.259875
  1
4
  0
LINE
  8
Dimensions - Text
 62
     7
  6
CONTINUOUS
 10
18.622312
 20
22.101398
 30
0.000000
 11
18.622312
 21
22.621148
 31
0.000000
  0
TEXT
  8
Dimensions - Text
 62
     7
 10
20.616854
 20
22.231335
 30
0.000000
 40
0.259875
  1
3
  0
LINE
  8
Dimensions - Text
 62
     7
  6
CONTINUOUS
 10
22.780312
 20
22.101398
 30
0.000000
 11
22.780312
 21
22.621148
 31
0.000000
  0
LINE
  8
Dimensions - Text
 62
     7
  6
CONTINUOUS
 10
26.938312
 20
22.101398
 30
0.000000
 11
26.938312
 21
22.621148
 31
0.000000
  0
TEXT
  8
Dimensions - Text
 62
     7
 10
28.984829
 20
22.231335
 30
0.000000
 40
0.259875
  1
1
  0
LINE
  8
Dimensions - Text
 62
     7
  6
CONTINUOUS
 10
-2.167688
 20
22.621148
 30
0.000000
 11
31.096312
 21
22.621148
 31
0.000000
  0
LINE
  8
Dimensions - Text
 62
     7
  6
CONTINUOUS
 10
30.435992
 20
21.717276
 30
0.000000
 11
21.931583
 21
21.717276
 31
0.000000
  0
LINE
  8
Dimensions - Text
 62
     7
  6
CONTINUOUS
 10
21.931583
 20
22.003139
 30
0.000000
 11
30.435992
 21
22.003139
 31
0.000000
  0
LINE
  8
Dimensions - Text
 62
     7
  6
CONTINUOUS
 10
21.931583
 20
21.431414
 30
0.000000
 11
30.435992
 21
21.431414
 31
0.000000
  0
LINE
  8
Dimensions - Text
 62
     7
  6
CONTINUOUS
 10
22.360376
 20
22.003139
 30
0.000000
 11
22.360376
 21
21.431414
 31
0.000000
  0
LINE
  8
Dimensions - Text
 62
     7
  6
CONTINUOUS
 10
23.789689
 20
22.003139
 30
0.000000
 11
23.789689
 21
21.431414
 31
0.000000
  0
LINE
  8
Dimensions - Text
 62
     7
  6
CONTINUOUS
 10
23.075033
 20
22.003139
 30
0.000000
 11
23.075033
 21
21.431414
 31
0.000000
  0
TEXT
  8
Dimensions - Text
 62
     7
 10
22.547973
 20
21.824475
 30
0.000000
 40
0.071466
  1
REV BY
  0
TEXT
  8
Dimensions - Text
 62
     7
 10
22.058435
 20
21.824475
 30
0.000000
 40
0.071466
  1
REV
  0
TEXT
  8
Dimensions - Text
 62
     7
 10
23.297136
 20
21.824475
 30
0.000000
 40
0.071466
  1
DCO #
  0
TEXT
  8
Dimensions - Text
 62
     7
 10
25.388731
 20
21.824475
 30
0.000000
 40
0.071466
  1
DESCRIPTION
  0
LINE
  8
Dimensions - Text
 62
     7
  6
CONTINUOUS
 10
27.577367
 20
22.003139
 30
0.000000
 11
27.577367
 21
21.431414
 31
0.000000
  0
LINE
  8
Dimensions - Text
 62
     7
  6
CONTINUOUS
 10
29.006679
 20
22.003139
 30
0.000000
 11
29.006679
 21
21.431414
 31
0.000000
  0
TEXT
  8
Dimensions - Text
 62
     7
 10
28.052613
 20
21.824475
 30
0.000000
 40
0.071466
  1
APPROVED
  0
TEXT
  8
Dimensions - Text
 62
     7
 10
29.603418
 20
21.824475
 30
0.000000
 40
0.071466
  1
DATE
  0
TEXT
  8
Dimensions - Text
 62
     7
 10
26.984202
 20
21.502880
 30
0.000000
 40
0.142931
  1
____
  0
TEXT
  8
Dimensions - Text
 62
     7
 10
22.092381
 20
21.502880
 30
0.000000
 40
0.142931
  1
A
  0
TEXT
  8
Dimensions - Text
 62
     7
 10
23.257271
 20
21.502880
 30
0.000000
 40
0.142931
  1
N/A
  0
TEXT
  8
Dimensions - Text
 62
     7
 10
22.542614
 20
21.502880
 30
0.000000
 40
0.142931
  1
DMS
  0
TEXT
  8
Dimensions - Text
 62
     7
 10
25.200219
 20
22.171407
 30
0.000000
 40
0.142931
  1
REVISIONS
  0
TEXT
  8
Dimensions - Text
 62
     7
 10
24.314840
 20
22.231335
 30
0.000000
 40
0.259875
  1
2
  0
LINE
  8
Dimensions - Text
 62
     7
  6
CONTINUOUS
 10
-2.167688
 20
0.368148
 30
0.000000
 11
-2.167688
 21
22.621148
 31
0.000000
  0
LINE
  8
Dimensions - Text
 62
     7
  6
CONTINUOUS
 10
31.096312
 20
22.621148
 30
0.000000
 11
31.096312
 21
0.368148
 31
0.000000
  0
LINE
  8
Dimensions - Text
 62
     7
  6
CONTINUOUS
 10
-1.902224
 20
11.494648
 30
0.000000
 11
-2.167688
 21
11.494648
 31
0.000000
  0
LINE
  8
Dimensions - Text
 62
     7
  6
CONTINUOUS
 10
-1.902050
 20
11.364711
 30
0.000000
 11
-1.902050
 21
11.624586
 31
0.000000
  0
LINE
  8
Dimensions - Text
 62
     7
  6
CONTINUOUS
 10
-1.902050
 20
11.624586
 30
0.000000
 11
-1.667699
 21
11.494241
 31
0.000000
  0
LINE
  8
Dimensions - Text
 62
     7
  6
CONTINUOUS
 10
-1.667699
 20
11.494241
 30
0.000000
 11
-1.902050
 21
11.364711
 31
0.000000
  0
LINE
  8
Dimensions - Text
 62
     7
  6
CONTINUOUS
 10
30.830675
 20
11.364711
 30
0.000000
 11
30.596324
 21
11.495055
 31
0.000000
  0
LINE
  8
Dimensions - Text
 62
     7
  6
CONTINUOUS
 10
30.596324
 20
11.495055
 30
0.000000
 11
30.830675
 21
11.624586
 31
0.000000
  0
LINE
  8
Dimensions - Text
 62
     7
  6
CONTINUOUS
 10
30.830849
 20
11.494648
 30
0.000000
 11
31.096312
 21
11.494648
 31
0.000000
  0
LINE
  8
Dimensions - Text
 62
     7
  6
CONTINUOUS
 10
30.830675
 20
11.624586
 30
0.000000
 11
30.830675
 21
11.364711
 31
0.000000
  0
TEXT
  8
Dimensions - Text
 62
     7
 10
11.203491
 20
1.042317
 30
0.000000
 40
0.084219
  1
REQD
  0
TEXT
  8
Dimensions - Text
 62
     7
 10
10.698179
 20
1.042317
 30
0.000000
 40
0.084219
  1
NO.
  0
TEXT
  8
Dimensions - Text
 62
     7
 10
10.802964
 20
1.406595
 30
0.000000
 40
0.168438
  1
1
  0
TEXT
  8
Dimensions - Text
 62
     7
 10
10.656069
 20
1.189700
 30
0.000000
 40
0.084219
  1
ITEM
  0
TEXT
  8
Dimensions - Text
 62
     7
 10
11.245600
 20
1.189700
 30
0.000000
 40
0.084219
  1
QTY
  0
TEXT
  8
Dimensions - Text
 62
     7
 10
11.973567
 20
1.126535
 30
0.000000
 40
0.084219
  1
DWG OR PART NO.
  0
TEXT
  8
Dimensions - Text
 62
     7
 10
18.873714
 20
1.126535
 30
0.000000
 40
0.084219
  1
MATERIAL SPECIFICATION
  0
TEXT
  8
Dimensions - Text
 62
     7
 10
14.756983
 20
1.126535
 30
0.000000
 40
0.084893
  1
MATERIAL / PART DESCRIPTION / MANUFACTURER
  0
TEXT
  8
Dimensions - Text
 62
     7
 10
11.138679
 20
1.416085
 30
0.000000
 40
0.168438
  1
A/R
  0
LINE
  8
Dimensions - Text
 62
     7
  6
CONTINUOUS
 10
10.529741
 20
1.316028
 30
0.000000
 11
20.522057
 21
1.316028
 31
0.000000
  0
LINE
  8
Dimensions - Text
 62
     7
  6
CONTINUOUS
 10
10.529741
 20
1.652903
 30
0.000000
 11
20.522057
 21
1.652903
 31
0.000000
  0
LINE
  8
Dimensions - Text
 62
     7
  6
CONTINUOUS
 10
10.529741
 20
1.989778
 30
0.000000
 11
20.522057
 21
1.989778
 31
0.000000
  0
LINE
  8
Dimensions - Text
 62
     7
  6
CONTINUOUS
 10
11.035054
 20
2.663528
 30
0.000000
 11
11.035054
 21
0.979153
 31
0.000000
  0
LINE
  8
Dimensions - Text
 62
     7
  6
CONTINUOUS
 10
11.708804
 20
2.663528
 30
0.000000
 11
11.708804
 21
0.979153
 31
0.000000
  0
LINE
  8
Dimensions - Text
 62
     7
  6
CONTINUOUS
 10
13.182632
 20
2.663528
 30
0.000000
 11
13.182632
 21
0.979153
 31
0.000000
  0
LINE
  8
Dimensions - Text
 62
     7
  6
CONTINUOUS
 10
10.529741
 20
2.326653
 30
0.000000
 11
20.522057
 21
2.326653
 31
0.000000
  0
LINE
  8
Dimensions - Text
 62
     7
  6
CONTINUOUS
 10
18.572632
 20
2.663528
 30
0.000000
 11
18.572632
 21
0.979153
 31
0.000000
  0
TEXT
  8
Dimensions - Text
 62
     7
 10
26.225922
 20
2.982771
 30
0.000000
 40
0.202125
  1
ELECTRO AUTOMOTIVE
  0
LINE
  8
Dimensions - Text
 62
     7
  6
CONTINUOUS
 10
14.334460
 20
0.741297
 30
0.000000
 11
14.464804
 21
0.975649
 31
0.000000
  0
LINE
  8
Dimensions - Text
 62
     7
  6
CONTINUOUS
 10
14.464804
 20
0.975649
 30
0.000000
 11
14.594335
 21
0.741297
 31
0.000000
  0
LINE
  8
Dimensions - Text
 62
     7
  6
CONTINUOUS
 10
14.594335
 20
0.741297
 30
0.000000
 11
14.334460
 21
0.741297
 31
0.000000
  0
TEXT
  8
Dimensions - Text
 62
     7
 10
16.458853
 20
0.649024
 30
0.000000
 40
0.259875
  1
4
  0
LINE
  8
Dimensions - Text
 62
     7
  6
CONTINUOUS
 10
14.464397
 20
0.741123
 30
0.000000
 11
14.464397
 21
0.608662
 31
0.000000
  0
LINE
  8
Dimensions - Text
 62
     7
  6
CONTINUOUS
 10
18.622312
 20
0.887898
 30
0.000000
 11
18.622312
 21
0.368148
 31
0.000000
  0
TEXT
  8
Dimensions - Text
 62
     7
 10
29.954558
 20
1.414635
 30
0.000000
 40
0.175560
  1
A
  0
TEXT
  8
Dimensions - Text
 62
     7
 10
26.876072
 20
1.425163
 30
0.000000
 40
0.127050
  1
1 : 1
  0
TEXT
  8
Dimensions - Text
 62
     7
 10
23.646915
 20
1.656979
 30
0.000000
 40
0.127050
  1
10/29/09
  0
TEXT
  8
Dimensions - Text
 62
     7
 10
23.861154
 20
21.502880
 30
0.000000
 40
0.143000
  1
DRAWING RELEASED 11/02/09
  0
TEXT
  8
Dimensions - Text
 62
     7
 10
21.075886
 20
1.544665
 30
0.000000
 40
0.134750
  1
UQM MOTOR
  0
TEXT
  8
Dimensions - Text
 62
     7
 10
21.075886
 20
1.342540
 30
0.000000
 40
0.134750
  1
SPM218-143-3
  0
CIRCLE
  8
Spacer Ring - UQM - 143
 62
     7
  6
CONTINUOUS
 10
5.897679
 20
12.292707
 30
0.000000
 40
3.315000
  0
CIRCLE
  8
Spacer Ring - UQM - 143
 62
     7
  6
CONTINUOUS
 10
5.897679
 20
12.292707
 30
0.000000
 40
3.030000
  0
TEXT
  8
Dimensions - Text
 62
     7
 10
6.324175
 20
15.941501
 30
0.000000
 40
0.200000
  1
A
  0
LINE
  8
Dimensions - Text
 62
     7
  6
CONTINUOUS
 10
5.897679
 20
16.002335
 30
0.000000
 11
6.197679
 21
16.002335
 31
0.000000
  0
CIRCLE
  8
Spacer Ring - UQM - 143
 62
     7
  6
CONTINUOUS
 10
5.897679
 20
12.292707
 30
0.000000
 40
3.059000
  0
TEXT
  8
Spacer Ring - UQM - 143
 62
     7
 10
7.989747
 20
15.809673
 30
0.000000
 40
0.150000
  1
SEE MAT. SPEC.
  0
LINE
  8
Centerlines - Phantoms
 62
     7
  6
CONTINUOUS
 10
16.829890
 20
12.292707
 30
0.000000
 11
14.426890
 21
12.292707
 31
0.000000
  0
LINE
  8
Spacer Ring - UQM - 143
 62
     7
  6
CONTINUOUS
 10
16.829890
 20
15.607707
 30
0.000000
 11
16.829890
 21
15.372707
 31
0.000000
  0
LINE
  8
Spacer Ring - UQM - 143
 62
     7
  6
CONTINUOUS
 10
16.829890
 20
15.372707
 30
0.000000
 11
16.829890
 21
12.292707
 31
0.000000
  0
LINE
  8
Spacer Ring - UQM - 143
 62
     7
  6
CONTINUOUS
 10
16.829890
 20
8.977707
 30
0.000000
 11
16.829890
 21
9.212707
 31
0.000000
  0
LINE
  8
Spacer Ring - UQM - 143
 62
     7
  6
CONTINUOUS
 10
16.829890
 20
9.212707
 30
0.000000
 11
16.829890
 21
12.292707
 31
0.000000
  0
LINE
  8
Spacer Ring - UQM - 143
 62
     7
  6
CONTINUOUS
 10
14.426890
 20
15.607707
 30
0.000000
 11
14.426890
 21
15.372707
 31
0.000000
  0
LINE
  8
Spacer Ring - UQM - 143
 62
     7
  6
CONTINUOUS
 10
14.426890
 20
15.372707
 30
0.000000
 11
14.426890
 21
12.292707
 31
0.000000
  0
LINE
  8
Spacer Ring - UQM - 143
 62
     7
  6
CONTINUOUS
 10
14.426890
 20
8.977707
 30
0.000000
 11
14.426890
 21
9.212707
 31
0.000000
  0
LINE
  8
Spacer Ring - UQM - 143
 62
     7
  6
CONTINUOUS
 10
14.426890
 20
9.212707
 30
0.000000
 11
14.426890
 21
12.292707
 31
0.000000
  0
LINE
  8
Spacer Ring - UQM - 143
 62
     7
  6
CONTINUOUS
 10
14.426890
 20
15.607707
 30
0.000000
 11
16.829890
 21
15.607707
 31
0.000000
  0
LINE
  8
Spacer Ring - UQM - 143
 62
     7
  6
CONTINUOUS
 10
14.426890
 20
8.977707
 30
0.000000
 11
16.829890
 21
8.977707
 31
0.000000
  0
LINE
  8
Spacer Ring - UQM - 143
 62
     7
  6
CONTINUOUS
 10
16.809890
 20
15.351707
 30
0.000000
 11
16.829890
 21
15.371707
 31
0.000000
  0
LINE
  8
Spacer Ring - UQM - 143
 62
     7
  6
CONTINUOUS
 10
16.529890
 20
15.321707
 30
0.000000
 11
16.529890
 21
15.351707
 31
0.000000
  0
LINE
  8
Spacer Ring - UQM - 143
 62
     7
  6
CONTINUOUS
 10
16.529890
 20
15.351707
 30
0.000000
 11
16.809890
 21
15.351707
 31
0.000000
  0
LINE
  8
Spacer Ring - UQM - 143
 62
     7
  6
CONTINUOUS
 10
14.446890
 20
15.351707
 30
0.000000
 11
14.426890
 21
15.371707
 31
0.000000
  0
LINE
  8
Spacer Ring - UQM - 143
 62
     7
  6
CONTINUOUS
 10
14.726890
 20
15.321707
 30
0.000000
 11
14.726890
 21
15.351707
 31
0.000000
  0
LINE
  8
Spacer Ring - UQM - 143
 62
     7
  6
CONTINUOUS
 10
14.726890
 20
15.351707
 30
0.000000
 11
14.446890
 21
15.351707
 31
0.000000
  0
LINE
  8
Spacer Ring - UQM - 143
 62
     7
  6
CONTINUOUS
 10
14.726890
 20
15.321707
 30
0.000000
 11
16.529890
 21
15.321707
 31
0.000000
  0
LINE
  8
Spacer Ring - UQM - 143
 62
     7
  6
CONTINUOUS
 10
16.809890
 20
9.233707
 30
0.000000
 11
16.829890
 21
9.213707
 31
0.000000
  0
LINE
  8
Spacer Ring - UQM - 143
 62
     7
  6
CONTINUOUS
 10
16.529890
 20
9.263707
 30
0.000000
 11
16.529890
 21
9.233707
 31
0.000000
  0
LINE
  8
Spacer Ring - UQM - 143
 62
     7
  6
CONTINUOUS
 10
16.529890
 20
9.233707
 30
0.000000
 11
16.809890
 21
9.233707
 31
0.000000
  0
LINE
  8
Spacer Ring - UQM - 143
 62
     7
  6
CONTINUOUS
 10
14.446890
 20
9.233707
 30
0.000000
 11
14.426890
 21
9.213707
 31
0.000000
  0
LINE
  8
Spacer Ring - UQM - 143
 62
     7
  6
CONTINUOUS
 10
14.726890
 20
9.263707
 30
0.000000
 11
14.726890
 21
9.233707
 31
0.000000
  0
LINE
  8
Spacer Ring - UQM - 143
 62
     7
  6
CONTINUOUS
 10
14.726890
 20
9.233707
 30
0.000000
 11
14.446890
 21
9.233707
 31
0.000000
  0
LINE
  8
Spacer Ring - UQM - 143
 62
     7
  6
CONTINUOUS
 10
14.726890
 20
9.263707
 30
0.000000
 11
16.529890
 21
9.263707
 31
0.000000
  0
TEXT
  8
Dimensions - Text
 62
     7
 10
6.324175
 20
14.511068
 30
0.000000
 40
0.200000
  1
A
  0
LINE
  8
Dimensions - Text
 62
     7
  6
CONTINUOUS
 10
5.897679
 20
14.574310
 30
0.000000
 11
6.197679
 21
14.574310
 31
0.000000
  0
TEXT
  8
Dimensions - Text
 62
     7
 10
25.516730
 20
1.857190
 30
0.000000
 40
0.203000
  1
RING, SPACER - 99 911/996 PORSCHE
  0
TEXT
  8
Dimensions - Text
 62
     7
 10
29.407135
 20
1.161979
 30
0.000000
 40
0.084000
  1
SHT 1  OF 1
  0
TEXT
  8
Dimensions - Text
 62
     7
 10
13.270147
 20
1.725139
 30
0.000000
 40
0.169000
  1
PIPE, ALUM - SCH 40 6061-T6, NOM. 6.0 DIA.
  0
TEXT
  8
Dimensions - Text
 62
     7
 10
13.185215
 20
1.415415
 30
0.000000
 40
0.168000
  1
 (6.63 OD X 6.06 ID X .285 W)
  0
LINE
  8
Spacer Ring - UQM - 143
 62
     7
  6
CONTINUOUS
 10
23.371189
 20
13.015731
 30
0.000000
 11
23.371189
 21
12.545731
 31
0.000000
  0
LINE
  8
Spacer Ring - UQM - 143
 62
     7
  6
CONTINUOUS
 10
23.411189
 20
12.505731
 30
0.000000
 11
23.371189
 21
12.545731
 31
0.000000
  0
LINE
  8
Spacer Ring - UQM - 143
 62
     7
  6
CONTINUOUS
 10
23.371189
 20
13.015731
 30
0.000000
 11
27.200989
 21
13.015731
 31
0.000000
  0
LINE
  8
Spacer Ring - UQM - 143
 62
     7
  6
CONTINUOUS
 10
27.200989
 20
13.015731
 30
0.000000
 11
27.200989
 21
12.545731
 31
0.000000
  0
LINE
  8
Spacer Ring - UQM - 143
 62
     7
  6
CONTINUOUS
 10
27.160989
 20
12.505731
 30
0.000000
 11
27.200989
 21
12.545731
 31
0.000000
  0
LINE
  8
Spacer Ring - UQM - 143
 62
     7
  6
CONTINUOUS
 10
23.971189
 20
12.445731
 30
0.000000
 11
23.971189
 21
12.505731
 31
0.000000
  0
LINE
  8
Spacer Ring - UQM - 143
 62
     7
  6
CONTINUOUS
 10
23.971189
 20
12.505731
 30
0.000000
 11
23.411189
 21
12.505731
 31
0.000000
  0
LINE
  8
Spacer Ring - UQM - 143
 62
     7
  6
CONTINUOUS
 10
26.600989
 20
12.445731
 30
0.000000
 11
26.600989
 21
12.505731
 31
0.000000
  0
LINE
  8
Spacer Ring - UQM - 143
 62
     7
  6
CONTINUOUS
 10
26.600989
 20
12.505731
 30
0.000000
 11
27.160989
 21
12.505731
 31
0.000000
  0
LINE
  8
Spacer Ring - UQM - 143
 62
     7
  6
CONTINUOUS
 10
23.971189
 20
12.445731
 30
0.000000
 11
26.600989
 21
12.445731
 31
0.000000
  0
TEXT
  8
Dimensions - Text
 62
     7
 10
-0.995487
 20
1.658784
 30
0.000000
 40
0.207900
  1
NOTES:
  0
TEXT
  8
Dimensions - Text
 62
     7
 10
0.113205
 20
1.682439
 30
0.000000
 40
0.129937
  1
UNLESS OTHERWISE SPECIFIED
  0
TEXT
  8
Dimensions - Text
 62
     7
 10
-0.562187
 20
3.348665
 30
0.000000
 40
0.170000
  1
2  - MIN. DEPTH .30 + A/R FOR TOLLING OR PART HOLD
  0
TEXT
  8
Dimensions - Text
 62
     7
 10
-0.562187
 20
2.583665
 30
0.000000
 40
0.170000
  1
1  - BREAK AND DEBURR ALL SHARP EDGES. .01-.02.
  0
LINE
  8
Spacer Ring - UQM - 143
 62
     7
  6
CONTINUOUS
 10
12.894212
 20
9.233707
 30
0.000000
 11
12.842234
 21
9.478244
 31
0.000000
  0
LINE
  8
Spacer Ring - UQM - 143
 62
     7
  6
CONTINUOUS
 10
12.894212
 20
9.233707
 30
0.000000
 11
12.946189
 21
9.478244
 31
0.000000
  0
LINE
  8
Spacer Ring - UQM - 143
 62
     7
  6
CONTINUOUS
 10
12.842234
 20
9.478244
 30
0.000000
 11
12.946189
 21
9.478244
 31
0.000000
  0
LINE
  8
Spacer Ring - UQM - 143
 62
     7
  6
CONTINUOUS
 10
12.894212
 20
15.351707
 30
0.000000
 11
12.946189
 21
15.107170
 31
0.000000
  0
LINE
  8
Spacer Ring - UQM - 143
 62
     7
  6
CONTINUOUS
 10
12.894212
 20
15.351707
 30
0.000000
 11
12.842234
 21
15.107170
 31
0.000000
  0
LINE
  8
Spacer Ring - UQM - 143
 62
     7
  6
CONTINUOUS
 10
12.946189
 20
15.107170
 30
0.000000
 11
12.842234
 21
15.107170
 31
0.000000
  0
LINE
  8
Spacer Ring - UQM - 143
 62
     7
  6
CONTINUOUS
 10
14.376890
 20
9.233707
 30
0.000000
 11
12.844212
 21
9.233707
 31
0.000000
  0
LINE
  8
Spacer Ring - UQM - 143
 62
     7
  6
CONTINUOUS
 10
14.376890
 20
15.351707
 30
0.000000
 11
12.844212
 21
15.351707
 31
0.000000
  0
TEXT
  8
Spacer Ring - UQM - 143
 62
     7
 10
11.929211
 20
12.192707
 30
0.000000
 40
0.200000
  1
6.118
  0
TEXT
  8
Spacer Ring - UQM - 143
 62
     7
 10
12.936711
 20
12.392707
 30
0.000000
 40
0.200000
  1
+.002
  0
TEXT
  8
Spacer Ring - UQM - 143
 62
     7
 10
12.936711
 20
11.992707
 30
0.000000
 40
0.200000
  1
-.000
  0
LINE
  8
Spacer Ring - UQM - 143
 62
     7
  6
CONTINUOUS
 10
12.894212
 20
9.233707
 30
0.000000
 11
12.894212
 21
11.992706
 31
0.000000
  0
LINE
  8
Spacer Ring - UQM - 143
 62
     7
  6
CONTINUOUS
 10
12.894212
 20
12.592707
 30
0.000000
 11
12.894212
 21
15.351707
 31
0.000000
  0
LINE
  8
Spacer Ring - UQM - 143
 62
     7
  6
CONTINUOUS
 10
23.371189
 20
11.258167
 30
0.000000
 11
23.615726
 21
11.310145
 31
0.000000
  0
LINE
  8
Spacer Ring - UQM - 143
 62
     7
  6
CONTINUOUS
 10
23.371189
 20
11.258167
 30
0.000000
 11
23.615726
 21
11.206189
 31
0.000000
  0
LINE
  8
Spacer Ring - UQM - 143
 62
     7
  6
CONTINUOUS
 10
23.615726
 20
11.310145
 30
0.000000
 11
23.615726
 21
11.206189
 31
0.000000
  0
LINE
  8
Spacer Ring - UQM - 143
 62
     7
  6
CONTINUOUS
 10
23.971189
 20
11.258167
 30
0.000000
 11
23.726652
 21
11.206189
 31
0.000000
  0
LINE
  8
Spacer Ring - UQM - 143
 62
     7
  6
CONTINUOUS
 10
23.971189
 20
11.258167
 30
0.000000
 11
23.726652
 21
11.310145
 31
0.000000
  0
LINE
  8
Spacer Ring - UQM - 143
 62
     7
  6
CONTINUOUS
 10
23.726652
 20
11.206189
 30
0.000000
 11
23.726652
 21
11.310145
 31
0.000000
  0
LINE
  8
Spacer Ring - UQM - 143
 62
     7
  6
CONTINUOUS
 10
23.371189
 20
12.475731
 30
0.000000
 11
23.371189
 21
11.208167
 31
0.000000
  0
LINE
  8
Spacer Ring - UQM - 143
 62
     7
  6
CONTINUOUS
 10
23.971189
 20
12.375731
 30
0.000000
 11
23.971189
 21
11.208167
 31
0.000000
  0
TEXT
  8
Spacer Ring - UQM - 143
 62
     7
 10
21.957818
 20
11.158167
 30
0.000000
 40
0.200000
  1
NOTE 2
  0
LINE
  8
Spacer Ring - UQM - 143
 62
     7
  6
CONTINUOUS
 10
23.227820
 20
11.258167
 30
0.000000
 11
23.971189
 21
11.258167
 31
0.000000
  0
LINE
  8
Spacer Ring - UQM - 143
 62
     7
  6
CONTINUOUS
 10
7.612169
 20
16.154419
 30
0.000000
 11
7.862169
 21
16.154419
 31
0.000000
  0
LINE
  8
Spacer Ring - UQM - 143
 62
     7
  6
CONTINUOUS
 10
7.242832
 20
15.322524
 30
0.000000
 11
7.191110
 21
15.077932
 31
0.000000
  0
LINE
  8
Spacer Ring - UQM - 143
 62
     7
  6
CONTINUOUS
 10
7.242832
 20
15.322524
 30
0.000000
 11
7.096098
 21
15.120115
 31
0.000000
  0
LINE
  8
Spacer Ring - UQM - 143
 62
     7
  6
CONTINUOUS
 10
7.191110
 20
15.077932
 30
0.000000
 11
7.096098
 21
15.120115
 31
0.000000
  0
LINE
  8
Spacer Ring - UQM - 143
 62
     7
  6
CONTINUOUS
 10
4.552527
 20
9.262890
 30
0.000000
 11
4.604248
 21
9.507481
 31
0.000000
  0
LINE
  8
Spacer Ring - UQM - 143
 62
     7
  6
CONTINUOUS
 10
4.552527
 20
9.262890
 30
0.000000
 11
4.699261
 21
9.465298
 31
0.000000
  0
LINE
  8
Spacer Ring - UQM - 143
 62
     7
  6
CONTINUOUS
 10
4.604248
 20
9.507481
 30
0.000000
 11
4.699261
 21
9.465298
 31
0.000000
  0
LINE
  8
Spacer Ring - UQM - 143
 62
     7
  6
CONTINUOUS
 10
4.552527
 20
9.262890
 30
0.000000
 11
7.612169
 21
16.154419
 31
0.000000
  0
TEXT
  8
Spacer Ring - UQM - 143
 62
     7
 10
7.992169
 20
16.054418
 30
0.000000
 40
0.200000
  1
REF 6.63
  0
LINE
  8
Spacer Ring - UQM - 143
 62
     7
  6
CONTINUOUS
 10
23.357887
 20
12.498211
 30
0.000000
 11
22.793670
 21
12.025264
 31
0.000000
  0
LINE
  8
Spacer Ring - UQM - 143
 62
     7
  6
CONTINUOUS
 10
23.357887
 20
12.498211
 30
0.000000
 11
23.216389
 21
12.329753
 31
0.000000
  0
LINE
  8
Spacer Ring - UQM - 143
 62
     7
  6
CONTINUOUS
 10
23.357887
 20
12.498211
 30
0.000000
 11
23.167306
 21
12.388308
 31
0.000000
  0
LINE
  8
Spacer Ring - UQM - 143
 62
     7
  6
CONTINUOUS
 10
23.216389
 20
12.329753
 30
0.000000
 11
23.167306
 21
12.388308
 31
0.000000
  0
LINE
  8
Spacer Ring - UQM - 143
 62
     7
  6
CONTINUOUS
 10
22.793670
 20
12.025264
 30
0.000000
 11
22.543670
 21
12.025264
 31
0.000000
  0
TEXT
  8
Spacer Ring - UQM - 143
 62
     7
 10
20.013669
 20
11.925264
 30
0.000000
 40
0.200000
  1
2X .04 X .04
  0
LINE
  8
Centerlines - Phantoms
 62
     7
  6
CONTINUOUS
 10
8.763021
 20
12.292707
 30
0.000000
 11
3.032338
 21
12.292707
 31
0.000000
  0
LINE
  8
Centerlines - Phantoms
 62
     7
  6
CONTINUOUS
 10
5.897679
 20
14.499151
 30
0.000000
 11
5.897679
 21
9.427365
 31
0.000000
  0
LINE
  8
Centerlines - Phantoms
 62
     7
  6
CONTINUOUS
 10
5.897679
 20
16.002335
 30
0.000000
 11
5.897679
 21
14.574310
 31
0.000000
  0
TEXT
  8
Dimensions - Text
 62
     7
 10
13.108277
 20
0.427538
 30
0.000000
 40
0.139000
  1
PRINT SCALE - 11 X 17 = 1 : 2.1   / 13 X 19 = 1 : 1.9
  0
TEXT
  8
Dimensions - Text
 62
     7
 10
23.730711
 20
9.760108
 30
0.000000
 40
0.250000
  1
SECTION A - A
  0
TEXT
  8
Dimensions - Text
 62
     7
 10
23.730711
 20
9.385108
 30
0.000000
 40
0.250000
  1
SCALE  2:1
  0
LINE
  8
Dimensions - Text
 62
     7
  6
CONTINUOUS
 10
16.406292
 20
15.621850
 30
0.000000
 11
17.154523
 21
17.161966
 31
0.000000
  0
LINE
  8
Dimensions - Text
 62
     7
  6
CONTINUOUS
 10
16.406292
 20
15.621850
 30
0.000000
 11
16.466606
 21
15.833421
 31
0.000000
  0
LINE
  8
Dimensions - Text
 62
     7
  6
CONTINUOUS
 10
16.406292
 20
15.621850
 30
0.000000
 11
16.535331
 21
15.800033
 31
0.000000
  0
LINE
  8
Dimensions - Text
 62
     7
  6
CONTINUOUS
 10
16.466606
 20
15.833421
 30
0.000000
 11
16.535331
 21
15.800033
 31
0.000000
  0
LINE
  8
Dimensions - Text
 62
     7
  6
CONTINUOUS
 10
17.154523
 20
17.161966
 30
0.000000
 11
17.404523
 21
17.161966
 31
0.000000
  0
TEXT
  8
Dimensions - Text
 62
     7
 10
17.604523
 20
17.061966
 30
0.000000
 40
0.200000
  1
NOTE - MIN. MAT. REMOVAL
  0
TEXT
  8
Dimensions - Text
 62
     7
 10
17.604523
 20
16.761966
 30
0.000000
 40
0.200000
  1
OK TO CLEAN UP FOR PART HOLD
  0
LINE
  8
Dimensions - Text
 62
     7
  6
CONTINUOUS
 10
14.426890
 20
18.016244
 30
0.000000
 11
14.671427
 21
18.068222
 31
0.000000
  0
LINE
  8
Dimensions - Text
 62
     7
  6
CONTINUOUS
 10
14.426890
 20
18.016244
 30
0.000000
 11
14.671427
 21
17.964266
 31
0.000000
  0
LINE
  8
Dimensions - Text
 62
     7
  6
CONTINUOUS
 10
14.671427
 20
18.068222
 30
0.000000
 11
14.671427
 21
17.964266
 31
0.000000
  0
LINE
  8
Dimensions - Text
 62
     7
  6
CONTINUOUS
 10
16.829890
 20
18.016244
 30
0.000000
 11
16.585353
 21
17.964266
 31
0.000000
  0
LINE
  8
Dimensions - Text
 62
     7
  6
CONTINUOUS
 10
16.829890
 20
18.016244
 30
0.000000
 11
16.585353
 21
18.068222
 31
0.000000
  0
LINE
  8
Dimensions - Text
 62
     7
  6
CONTINUOUS
 10
16.585353
 20
17.964266
 30
0.000000
 11
16.585353
 21
18.068222
 31
0.000000
  0
LINE
  8
Dimensions - Text
 62
     7
  6
CONTINUOUS
 10
14.426890
 20
15.677707
 30
0.000000
 11
14.426890
 21
18.066244
 31
0.000000
  0
LINE
  8
Dimensions - Text
 62
     7
  6
CONTINUOUS
 10
16.829890
 20
15.677707
 30
0.000000
 11
16.829890
 21
18.066244
 31
0.000000
  0
TEXT
  8
Dimensions - Text
 62
     7
 10
15.163390
 20
17.916244
 30
0.000000
 40
0.200000
  1
2.403
  0
LINE
  8
Dimensions - Text
 62
     7
  6
CONTINUOUS
 10
14.426890
 20
18.016244
 30
0.000000
 11
15.028390
 21
18.016244
 31
0.000000
  0
LINE
  8
Dimensions - Text
 62
     7
  6
CONTINUOUS
 10
16.228391
 20
18.016244
 30
0.000000
 11
16.829890
 21
18.016244
 31
0.000000
  0
ENDSEC
  0
EOF
