  0
SECTION
  2
HEADER
  9
$ACADVER
  1
AC1006
  0
ENDSEC
  0
SECTION
  2
TABLES
  0
TABLE
  2
LTYPE
 70
    25
  0
LTYPE
  2
CONTINUOUS
 70
    64
  3
Solid line
 72
    64
 73
     0
 40
0.000000
  0
LTYPE
  2
DASHDOT
 70
    64
  3
__ . __ . __ . __ . __ . __ . __ . __ . __ . __
 72
    65
 73
     4
 40
1.000000
 49
0.500000
 49
-0.250000
 49
0.000000
 49
-0.250000
  0
LTYPE
  2
DASHED
 70
    64
  3
__ __ __ __ __ __ __ __ __ __ __ __ __ __ __ __
 72
    65
 73
     2
 40
0.750000
 49
0.500000
 49
-0.250000
  0
LTYPE
  2
DIVIDE
 70
    64
  3
____ . . ____ . . ____ . . ____ . . ____ . . __
 72
    65
 73
     6
 40
1.250000
 49
0.500000
 49
-0.250000
 49
0.000000
 49
-0.250000
 49
0.000000
 49
-0.250000
  0
LTYPE
  2
DOT
 70
    64
  3
. . . . . . . . . . . . . . . . . . . . . . . . 
 72
    65
 73
     2
 40
0.250000
 49
0.000000
 49
-0.250000
  0
ENDTAB
  0
ENDSEC
  0
SECTION
  2
ENTITIES
  0
POINT
  8
HUB
 62
     7
 10
0.007983
 20
0.000000
 30
0.000000
  0
LINE
  8
DIEM
 62
     7
  6
CONTINUOUS
 10
0.000000
 20
2.159548
 30
0.000000
 11
-0.108253
 21
2.097048
 31
0.000000
  0
LINE
  8
DIEM
 62
     7
  6
CONTINUOUS
 10
0.000000
 20
2.159548
 30
0.000000
 11
-0.108253
 21
2.222048
 31
0.000000
  0
LINE
  8
DIEM
 62
     7
  6
CONTINUOUS
 10
-1.527030
 20
1.527031
 30
0.000000
 11
-1.494678
 21
1.647772
 31
0.000000
  0
LINE
  8
DIEM
 62
     7
  6
CONTINUOUS
 10
-1.527030
 20
1.527031
 30
0.000000
 11
-1.406289
 21
1.559384
 31
0.000000
  0
LINE
  8
DIEM
 62
     7
  6
CONTINUOUS
 10
0.000000
 20
1.495500
 30
0.000000
 11
0.000000
 21
2.409548
 31
0.000000
  0
LINE
  8
DIEM
 62
     7
  6
CONTINUOUS
 10
-1.057477
 20
1.057478
 30
0.000000
 11
-1.703807
 21
1.703808
 31
0.000000
  0
TEXT
  8
DIEM
 62
     7
 10
-0.952009
 20
1.932355
 30
0.000000
 40
0.125000
  1
45¦
  0
ARC
  8
DIEM
 62
     7
  6
CONTINUOUS
 10
-0.000000
 20
-0.000000
 30
0.000000
 40
2.159548
 50
90.000000
 51
108.062779
  0
ARC
  8
DIEM
 62
     7
  6
CONTINUOUS
 10
-0.000000
 20
0.000000
 30
0.000000
 40
2.159548
 50
117.084731
 51
134.999980
  0
LINE
  8
DIEM
 62
     7
  6
CONTINUOUS
 10
-1.532718
 20
1.532719
 30
0.000000
 11
-1.565071
 21
1.411979
 31
0.000000
  0
LINE
  8
DIEM
 62
     7
  6
CONTINUOUS
 10
-1.532718
 20
1.532719
 30
0.000000
 11
-1.653459
 21
1.500367
 31
0.000000
  0
LINE
  8
DIEM
 62
     7
  6
CONTINUOUS
 10
-2.159343
 20
-0.188918
 30
0.000000
 11
-2.231041
 21
-0.086524
 31
0.000000
  0
LINE
  8
DIEM
 62
     7
  6
CONTINUOUS
 10
-2.159343
 20
-0.188918
 30
0.000000
 11
-2.106516
 21
-0.075630
 31
0.000000
  0
LINE
  8
DIEM
 62
     7
  6
CONTINUOUS
 10
-1.057477
 20
1.057478
 30
0.000000
 11
-1.709495
 21
1.709496
 31
0.000000
  0
LINE
  8
DIEM
 62
     7
  6
CONTINUOUS
 10
-1.489808
 20
-0.130341
 30
0.000000
 11
-2.408392
 21
-0.210707
 31
0.000000
  0
TEXT
  8
DIEM
 62
     7
 10
-2.161685
 20
0.678530
 30
0.000000
 40
0.125000
  1
50¦
  0
ARC
  8
DIEM
 62
     7
  6
CONTINUOUS
 10
0.000000
 20
-0.000000
 30
0.000000
 40
2.167592
 50
134.999980
 51
157.329969
  0
ARC
  8
DIEM
 62
     7
  6
CONTINUOUS
 10
-0.000000
 20
0.000000
 30
0.000000
 40
2.167592
 50
162.625435
 51
185.000001
  0
LINE
  8
DIEM
 62
     7
  6
CONTINUOUS
 10
-2.162153
 20
-0.189164
 30
0.000000
 11
-2.090456
 21
-0.291558
 31
0.000000
  0
LINE
  8
DIEM
 62
     7
  6
CONTINUOUS
 10
-2.162153
 20
-0.189164
 30
0.000000
 11
-2.214981
 21
-0.302452
 31
0.000000
  0
LINE
  8
DIEM
 62
     7
  6
CONTINUOUS
 10
-1.395114
 20
-1.662633
 30
0.000000
 11
-1.518215
 21
-1.640927
 31
0.000000
  0
LINE
  8
DIEM
 62
     7
  6
CONTINUOUS
 10
-1.395114
 20
-1.662633
 30
0.000000
 11
-1.437867
 21
-1.545171
 31
0.000000
  0
LINE
  8
DIEM
 62
     7
  6
CONTINUOUS
 10
-1.489808
 20
-0.130341
 30
0.000000
 11
-2.411202
 21
-0.210953
 31
0.000000
  0
LINE
  8
DIEM
 62
     7
  6
CONTINUOUS
 10
-0.961288
 20
-1.145619
 30
0.000000
 11
-1.555811
 21
-1.854144
 31
0.000000
  0
TEXT
  8
DIEM
 62
     7
 10
-2.050765
 20
-1.064992
 30
0.000000
 40
0.125000
  1
45¦
  0
ARC
  8
DIEM
 62
     7
  6
CONTINUOUS
 10
-0.000000
 20
-0.000000
 30
0.000000
 40
2.170413
 50
185.000001
 51
204.734430
  0
ARC
  8
DIEM
 62
     7
  6
CONTINUOUS
 10
0.000000
 20
0.000000
 30
0.000000
 40
2.170413
 50
210.336957
 51
230.000008
  0
LINE
  8
DIEM
 62
     7
  6
CONTINUOUS
 10
-1.386245
 20
-1.652062
 30
0.000000
 11
-1.263144
 21
-1.673768
 31
0.000000
  0
LINE
  8
DIEM
 62
     7
  6
CONTINUOUS
 10
-1.386245
 20
-1.652062
 30
0.000000
 11
-1.343492
 21
-1.769524
 31
0.000000
  0
LINE
  8
DIEM
 62
     7
  6
CONTINUOUS
 10
0.187961
 20
-2.148407
 30
0.000000
 11
0.085567
 21
-2.220105
 31
0.000000
  0
LINE
  8
DIEM
 62
     7
  6
CONTINUOUS
 10
0.187961
 20
-2.148407
 30
0.000000
 11
0.074673
 21
-2.095580
 31
0.000000
  0
LINE
  8
DIEM
 62
     7
  6
CONTINUOUS
 10
-0.961288
 20
-1.145619
 30
0.000000
 11
-1.546941
 21
-1.843574
 31
0.000000
  0
LINE
  8
DIEM
 62
     7
  6
CONTINUOUS
 10
0.130341
 20
-1.489808
 30
0.000000
 11
0.209750
 21
-2.397456
 31
0.000000
  0
TEXT
  8
DIEM
 62
     7
 10
-0.774092
 20
-2.119606
 30
0.000000
 40
0.125000
  1
45¦
  0
ARC
  8
DIEM
 62
     7
  6
CONTINUOUS
 10
-0.000000
 20
-0.000000
 30
0.000000
 40
2.156614
 50
230.000008
 51
248.072757
  0
ARC
  8
DIEM
 62
     7
  6
CONTINUOUS
 10
0.000000
 20
0.000000
 30
0.000000
 40
2.156614
 50
256.821675
 51
275.000001
  0
LINE
  8
DIEM
 62
     7
  6
CONTINUOUS
 10
1.668810
 20
-1.400297
 30
0.000000
 11
1.690516
 21
-1.277196
 31
0.000000
  0
LINE
  8
DIEM
 62
     7
  6
CONTINUOUS
 10
1.668810
 20
-1.400297
 30
0.000000
 11
1.786271
 21
-1.357545
 31
0.000000
  0
LINE
  8
DIEM
 62
     7
  6
CONTINUOUS
 10
2.170186
 20
0.189868
 30
0.000000
 11
2.241883
 21
0.087474
 31
0.000000
  0
LINE
  8
DIEM
 62
     7
  6
CONTINUOUS
 10
2.170186
 20
0.189868
 30
0.000000
 11
2.117359
 21
0.076580
 31
0.000000
  0
LINE
  8
DIEM
 62
     7
  6
CONTINUOUS
 10
1.145619
 20
-0.961288
 30
0.000000
 11
1.860321
 21
-1.560994
 31
0.000000
  0
LINE
  8
DIEM
 62
     7
  6
CONTINUOUS
 10
1.489809
 20
0.130342
 30
0.000000
 11
2.419235
 21
0.211657
 31
0.000000
  0
TEXT
  8
DIEM
 62
     7
 10
1.952064
 20
-0.717886
 30
0.000000
 40
0.125000
  1
45¦
  0
ARC
  8
DIEM
 62
     7
  6
CONTINUOUS
 10
-0.000000
 20
0.000000
 30
0.000000
 40
2.178476
 50
320.000006
 51
339.886512
  0
ARC
  8
DIEM
 62
     7
  6
CONTINUOUS
 10
0.000000
 20
0.000000
 30
0.000000
 40
2.178476
 50
345.076443
 51
365.000038
  0
LINE
  8
DIEM
 62
     7
  6
CONTINUOUS
 10
2.184313
 20
0.191104
 30
0.000000
 11
2.112616
 21
0.293498
 31
0.000000
  0
LINE
  8
DIEM
 62
     7
  6
CONTINUOUS
 10
2.184313
 20
0.191104
 30
0.000000
 11
2.237140
 21
0.304393
 31
0.000000
  0
LINE
  8
DIEM
 62
     7
  6
CONTINUOUS
 10
1.409413
 20
1.679672
 30
0.000000
 11
1.532514
 21
1.657966
 31
0.000000
  0
LINE
  8
DIEM
 62
     7
  6
CONTINUOUS
 10
1.409413
 20
1.679672
 30
0.000000
 11
1.452166
 21
1.562210
 31
0.000000
  0
LINE
  8
DIEM
 62
     7
  6
CONTINUOUS
 10
1.489809
 20
0.130342
 30
0.000000
 11
2.433361
 21
0.212893
 31
0.000000
  0
LINE
  8
DIEM
 62
     7
  6
CONTINUOUS
 10
0.961289
 20
1.145619
 30
0.000000
 11
1.570110
 21
1.871183
 31
0.000000
  0
TEXT
  8
DIEM
 62
     7
 10
1.819324
 20
0.949650
 30
0.000000
 40
0.125000
  1
45¦
  0
ARC
  8
DIEM
 62
     7
  6
CONTINUOUS
 10
0.000000
 20
0.000000
 30
0.000000
 40
2.192657
 50
5.000038
 51
24.762170
  0
ARC
  8
DIEM
 62
     7
  6
CONTINUOUS
 10
0.000000
 20
0.000000
 30
0.000000
 40
2.192657
 50
30.307779
 51
49.999977
  0
LINE
  8
DIEM
 62
     7
  6
CONTINUOUS
 10
1.402780
 20
1.671767
 30
0.000000
 11
1.279679
 21
1.693473
 31
0.000000
  0
LINE
  8
DIEM
 62
     7
  6
CONTINUOUS
 10
1.402780
 20
1.671767
 30
0.000000
 11
1.360028
 21
1.789229
 31
0.000000
  0
LINE
  8
DIEM
 62
     7
  6
CONTINUOUS
 10
0.000000
 20
2.182338
 30
0.000000
 11
0.108253
 21
2.244838
 31
0.000000
  0
LINE
  8
DIEM
 62
     7
  6
CONTINUOUS
 10
0.000000
 20
2.182338
 30
0.000000
 11
0.108253
 21
2.119838
 31
0.000000
  0
LINE
  8
DIEM
 62
     7
  6
CONTINUOUS
 10
0.961289
 20
1.145619
 30
0.000000
 11
1.563477
 21
1.863278
 31
0.000000
  0
LINE
  8
DIEM
 62
     7
  6
CONTINUOUS
 10
0.000000
 20
1.495500
 30
0.000000
 11
0.000000
 21
2.432338
 31
0.000000
  0
TEXT
  8
DIEM
 62
     7
 10
0.615706
 20
1.988002
 30
0.000000
 40
0.125000
  1
40¦
  0
ARC
  8
DIEM
 62
     7
  6
CONTINUOUS
 10
-0.000000
 20
-0.000000
 30
0.000000
 40
2.182338
 50
49.999977
 51
65.403287
  0
ARC
  8
DIEM
 62
     7
  6
CONTINUOUS
 10
0.000000
 20
0.000000
 30
0.000000
 40
2.182338
 50
74.465889
 51
90.000000
  0
LINE
  8
DIEM
 62
     7
  6
CONTINUOUS
 10
0.190127
 20
-2.173162
 30
0.000000
 11
0.292521
 21
-2.101465
 31
0.000000
  0
LINE
  8
DIEM
 62
     7
  6
CONTINUOUS
 10
0.190127
 20
-2.173162
 30
0.000000
 11
0.303416
 21
-2.225989
 31
0.000000
  0
LINE
  8
DIEM
 62
     7
  6
CONTINUOUS
 10
1.671098
 20
-1.402217
 30
0.000000
 11
1.649392
 21
-1.525318
 31
0.000000
  0
LINE
  8
DIEM
 62
     7
  6
CONTINUOUS
 10
1.671098
 20
-1.402217
 30
0.000000
 11
1.553636
 21
-1.444970
 31
0.000000
  0
LINE
  8
DIEM
 62
     7
  6
CONTINUOUS
 10
0.130341
 20
-1.489808
 30
0.000000
 11
0.211916
 21
-2.422210
 31
0.000000
  0
LINE
  8
DIEM
 62
     7
  6
CONTINUOUS
 10
1.145619
 20
-0.961288
 30
0.000000
 11
1.862609
 21
-1.562914
 31
0.000000
  0
TEXT
  8
DIEM
 62
     7
 10
1.268540
 20
-1.740661
 30
0.000000
 40
0.125000
  1
45¦
  0
ARC
  8
DIEM
 62
     7
  6
CONTINUOUS
 10
0.000000
 20
-0.000000
 30
0.000000
 40
2.181463
 50
275.000001
 51
305.682862
  0
ARC
  8
DIEM
 62
     7
  6
CONTINUOUS
 10
0.000000
 20
-0.000000
 30
0.000000
 40
2.181463
 50
313.445768
 51
320.000006
  0
LINE
  8
DIEM
 62
     7
  6
CONTINUOUS
 10
-0.586815
 20
1.016393
 30
0.000000
 11
-0.649315
 21
0.908140
 31
0.000000
  0
LINE
  8
DIEM
 62
     7
  6
CONTINUOUS
 10
-0.586815
 20
1.016393
 30
0.000000
 11
-0.711815
 21
1.016393
 31
0.000000
  0
LINE
  8
DIEM
 62
     7
  6
CONTINUOUS
 10
-1.173630
 20
0.000000
 30
0.000000
 11
-1.236130
 21
0.108253
 31
0.000000
  0
LINE
  8
DIEM
 62
     7
  6
CONTINUOUS
 10
-1.173630
 20
0.000000
 30
0.000000
 11
-1.111130
 21
0.108253
 31
0.000000
  0
LINE
  8
DIEM
 62
     7
  6
CONTINUOUS
 10
-0.382751
 20
0.662943
 30
0.000000
 11
-0.711816
 21
1.232899
 31
0.000000
  0
LINE
  8
DIEM
 62
     7
  6
CONTINUOUS
 10
-0.765499
 20
0.000000
 30
0.000000
 11
-1.423630
 21
0.000000
 31
0.000000
  0
TEXT
  8
DIEM
 62
     7
 10
-1.144954
 20
0.524090
 30
0.000000
 40
0.125000
  1
60¦
  0
ARC
  8
DIEM
 62
     7
  6
CONTINUOUS
 10
-0.000000
 20
0.000000
 30
0.000000
 40
1.173630
 50
120.000024
 51
144.544419
  0
ARC
  8
DIEM
 62
     7
  6
CONTINUOUS
 10
-0.000000
 20
0.000000
 30
0.000000
 40
1.173630
 50
155.169958
 51
180.000000
  0
POINT
  8
HUB
 62
     7
 10
0.007983
 20
0.000000
 30
0.000000
  0
CIRCLE
  8
HUB
 62
     7
  6
CONTINUOUS
 10
-1.005301
 20
1.013284
 30
0.000000
 40
0.203499
  0
CIRCLE
  8
HUB
 62
     7
  6
CONTINUOUS
 10
-1.419564
 20
-0.124894
 30
0.000000
 40
0.203500
  0
CIRCLE
  8
HUB
 62
     7
  6
CONTINUOUS
 10
0.929097
 20
1.097741
 30
0.000000
 40
0.203499
  0
CIRCLE
  8
HUB
 62
     7
  6
CONTINUOUS
 10
-0.913131
 20
-1.097741
 30
0.000000
 40
0.203499
  0
CIRCLE
  8
HUB
 62
     7
  6
CONTINUOUS
 10
0.132877
 20
-1.427546
 30
0.000000
 40
0.203500
  0
CIRCLE
  8
HUB
 62
     7
  6
CONTINUOUS
 10
1.105724
 20
-0.921114
 30
0.000000
 40
0.203500
  0
CIRCLE
  8
HUB
 62
     7
  6
CONTINUOUS
 10
1.435530
 20
0.124895
 30
0.000000
 40
0.203500
  0
CIRCLE
  8
HUB
 62
     7
  6
CONTINUOUS
 10
0.007983
 20
0.000000
 30
0.000000
 40
0.703000
  0
CIRCLE
  8
HUB
 62
     7
  6
CONTINUOUS
 10
-0.695017
 20
0.000000
 30
0.000000
 40
0.101550
  0
CIRCLE
  8
HUB
 62
     7
  6
CONTINUOUS
 10
-0.695017
 20
0.000000
 30
0.000000
 40
0.179700
  0
CIRCLE
  8
HUB
 62
     7
  6
CONTINUOUS
 10
-0.343516
 20
-0.608816
 30
0.000000
 40
0.101550
  0
CIRCLE
  8
HUB
 62
     7
  6
CONTINUOUS
 10
-0.343516
 20
-0.608816
 30
0.000000
 40
0.179699
  0
CIRCLE
  8
HUB
 62
     7
  6
CONTINUOUS
 10
0.359484
 20
-0.608815
 30
0.000000
 40
0.101550
  0
CIRCLE
  8
HUB
 62
     7
  6
CONTINUOUS
 10
0.359484
 20
-0.608815
 30
0.000000
 40
0.179700
  0
CIRCLE
  8
HUB
 62
     7
  6
CONTINUOUS
 10
0.710983
 20
0.000000
 30
0.000000
 40
0.101550
  0
CIRCLE
  8
HUB
 62
     7
  6
CONTINUOUS
 10
0.710983
 20
0.000000
 30
0.000000
 40
0.179700
  0
CIRCLE
  8
HUB
 62
     7
  6
CONTINUOUS
 10
0.359483
 20
0.608816
 30
0.000000
 40
0.101550
  0
CIRCLE
  8
HUB
 62
     7
  6
CONTINUOUS
 10
0.359483
 20
0.608816
 30
0.000000
 40
0.179701
  0
CIRCLE
  8
HUB
 62
     7
  6
CONTINUOUS
 10
-0.343517
 20
0.608816
 30
0.000000
 40
0.101550
  0
CIRCLE
  8
HUB
 62
     7
  6
CONTINUOUS
 10
-0.343517
 20
0.608816
 30
0.000000
 40
0.179700
  0
CIRCLE
  8
HUB
 62
     7
  6
CONTINUOUS
 10
0.000000
 20
1.436501
 30
0.000000
 40
0.203500
  0
CIRCLE
  8
HUB
 62
     7
  6
CONTINUOUS
 10
0.007983
 20
0.000000
 30
0.000000
 40
0.375000
  0
CIRCLE
  8
HUB
 62
     7
  6
CONTINUOUS
 10
0.007983
 20
0.000000
 30
0.000000
 40
1.436501
  0
CIRCLE
  8
HUB
 62
     7
  6
CONTINUOUS
 10
0.007983
 20
0.000000
 30
0.000000
 40
1.937501
  0
CIRCLE
  8
HUB
 62
     7
  6
CONTINUOUS
 10
0.007983
 20
0.000000
 30
0.000000
 40
0.946000
  0
ARC
  8
HUB
 62
     7
  6
CONTINUOUS
 10
0.007983
 20
0.000000
 30
0.000000
 40
0.795000
 50
131.851762
 51
168.148318
  0
ARC
  8
HUB
 62
     7
  6
CONTINUOUS
 10
0.007983
 20
-0.000000
 30
0.000000
 40
0.670000
 50
134.788135
 51
165.211900
  0
ARC
  8
HUB
 62
     7
  6
CONTINUOUS
 10
0.007983
 20
0.000000
 30
0.000000
 40
0.795000
 50
191.851682
 51
228.148397
  0
ARC
  8
HUB
 62
     7
  6
CONTINUOUS
 10
0.007983
 20
0.000000
 30
0.000000
 40
0.670000
 50
194.788100
 51
225.211990
  0
ARC
  8
HUB
 62
     7
  6
CONTINUOUS
 10
0.007983
 20
-0.000000
 30
0.000000
 40
0.670000
 50
254.788096
 51
285.211960
  0
ARC
  8
HUB
 62
     7
  6
CONTINUOUS
 10
0.007983
 20
-0.000000
 30
0.000000
 40
0.795000
 50
251.851689
 51
288.148388
  0
ARC
  8
HUB
 62
     7
  6
CONTINUOUS
 10
0.007983
 20
0.000000
 30
0.000000
 40
0.670000
 50
314.788166
 51
345.211906
  0
ARC
  8
HUB
 62
     7
  6
CONTINUOUS
 10
0.007983
 20
-0.000000
 30
0.000000
 40
0.795000
 50
311.851739
 51
348.148309
  0
ARC
  8
HUB
 62
     7
  6
CONTINUOUS
 10
0.007983
 20
0.000000
 30
0.000000
 40
0.670000
 50
74.788207
 51
105.211913
  0
ARC
  8
HUB
 62
     7
  6
CONTINUOUS
 10
0.007983
 20
-0.000000
 30
0.000000
 40
0.670000
 50
14.788094
 51
45.211878
  0
ARC
  8
HUB
 62
     7
  6
CONTINUOUS
 10
0.007983
 20
0.000000
 30
0.000000
 40
0.795000
 50
11.851691
 51
48.148280
  0
ARC
  8
HUB
 62
     7
  6
CONTINUOUS
 10
0.007983
 20
-0.000000
 30
0.000000
 40
0.795000
 50
71.851806
 51
108.148287
  0
LINE
  8
HUB
 62
     7
  6
CONTINUOUS
 10
0.000000
 20
0.000000
 30
0.000000
 11
13.861236
 21
0.000000
 31
0.000000
  0
CIRCLE
  8
HUB
 62
     7
  6
CONTINUOUS
 10
0.007983
 20
0.000000
 30
0.000000
 40
1.750000
  0
LINE
  8
DIEM
 62
     7
  6
CONTINUOUS
 10
0.696993
 20
-2.298902
 30
0.000000
 11
0.759493
 21
-2.298902
 31
0.000000
  0
LINE
  8
DIEM
 62
     7
  6
CONTINUOUS
 10
0.416791
 20
-1.374707
 30
0.000000
 11
0.325570
 21
-1.289244
 31
0.000000
  0
LINE
  8
DIEM
 62
     7
  6
CONTINUOUS
 10
0.416791
 20
-1.374707
 30
0.000000
 11
0.445193
 21
-1.252977
 31
0.000000
  0
LINE
  8
DIEM
 62
     7
  6
CONTINUOUS
 10
-0.416791
 20
1.374707
 30
0.000000
 11
-0.325570
 21
1.289244
 31
0.000000
  0
LINE
  8
DIEM
 62
     7
  6
CONTINUOUS
 10
-0.416791
 20
1.374707
 30
0.000000
 11
-0.445193
 21
1.252977
 31
0.000000
  0
TEXT
  8
DIEM
 62
     7
 10
0.790743
 20
-2.361810
 30
0.000000
 40
0.125000
  1
2.873" DIA B.C.
  0
LINE
  8
DIEM
 62
     7
  6
CONTINUOUS
 10
-0.416791
 20
1.374707
 30
0.000000
 11
0.696993
 21
-2.298902
 31
0.000000
  0
TEXT
  8
HUB
 62
     7
 10
0.678749
 20
-2.611340
 30
0.000000
 40
0.125000
  1
SEE NOTE "C"
  0
LINE
  8
DIEM
 62
     7
  6
CONTINUOUS
 10
2.020466
 20
1.666209
 30
0.000000
 11
2.082966
 21
1.666209
 31
0.000000
  0
LINE
  8
DIEM
 62
     7
  6
CONTINUOUS
 10
0.542364
 20
0.447269
 30
0.000000
 11
0.498611
 21
0.330177
 31
0.000000
  0
LINE
  8
DIEM
 62
     7
  6
CONTINUOUS
 10
0.542364
 20
0.447269
 30
0.000000
 11
0.419083
 21
0.426614
 31
0.000000
  0
LINE
  8
DIEM
 62
     7
  6
CONTINUOUS
 10
-0.542364
 20
-0.447269
 30
0.000000
 11
-0.498611
 21
-0.330177
 31
0.000000
  0
LINE
  8
DIEM
 62
     7
  6
CONTINUOUS
 10
-0.542364
 20
-0.447269
 30
0.000000
 11
-0.419083
 21
-0.426614
 31
0.000000
  0
TEXT
  8
DIEM
 62
     7
 10
2.114216
 20
1.603616
 30
0.000000
 40
0.125000
  1
1 13/32" DIA B.C.
  0
LINE
  8
DIEM
 62
     7
  6
CONTINUOUS
 10
-0.542364
 20
-0.447269
 30
0.000000
 11
2.020466
 21
1.666209
 31
0.000000
  0
TEXT
  8
HUB
 62
     7
 10
2.032961
 20
1.328828
 30
0.000000
 40
0.125000
  1
SEE NOTE "C"
  0
LINE
  8
HUB
 62
     7
  6
CONTINUOUS
 10
3.342000
 20
0.000000
 30
0.000000
 11
-2.603901
 21
0.000000
 31
0.000000
  0
LINE
  8
HUB
 62
     7
  6
CONTINUOUS
 10
13.529000
 20
0.000000
 30
0.000000
 11
3.342000
 21
0.000000
 31
0.000000
  0
LINE
  8
HUB
 62
     7
  6
CONTINUOUS
 10
0.000000
 20
4.432260
 30
0.000000
 11
0.000000
 21
-3.000000
 31
0.000000
  0
LINE
  8
HUB
 62
     7
  6
CONTINUOUS
 10
5.557700
 20
1.584763
 30
0.000000
 11
5.557700
 21
1.281237
 31
0.000000
  0
LINE
  8
HUB
 62
     7
  6
CONTINUOUS
 10
5.589199
 20
1.612499
 30
0.000000
 11
5.589199
 21
1.253500
 31
0.000000
  0
LINE
  8
HUB
 62
     7
  6
CONTINUOUS
 10
5.620449
 20
1.584763
 30
0.000000
 11
5.620449
 21
1.281237
 31
0.000000
  0
LINE
  8
HUB
 62
     7
  6
CONTINUOUS
 10
5.683199
 20
1.584763
 30
0.000000
 11
5.683199
 21
1.281237
 31
0.000000
  0
LINE
  8
HUB
 62
     7
  6
CONTINUOUS
 10
5.745949
 20
1.584763
 30
0.000000
 11
5.745949
 21
1.281237
 31
0.000000
  0
LINE
  8
HUB
 62
     7
  6
CONTINUOUS
 10
5.808699
 20
1.584763
 30
0.000000
 11
5.808699
 21
1.281237
 31
0.000000
  0
LINE
  8
HUB
 62
     7
  6
CONTINUOUS
 10
5.871449
 20
1.584763
 30
0.000000
 11
5.871449
 21
1.281237
 31
0.000000
  0
LINE
  8
HUB
 62
     7
  6
CONTINUOUS
 10
5.934199
 20
1.584763
 30
0.000000
 11
5.934199
 21
1.281237
 31
0.000000
  0
LINE
  8
HUB
 62
     7
  6
CONTINUOUS
 10
5.996949
 20
1.584763
 30
0.000000
 11
5.996949
 21
1.281237
 31
0.000000
  0
LINE
  8
HUB
 62
     7
  6
CONTINUOUS
 10
6.059699
 20
1.584763
 30
0.000000
 11
6.059699
 21
1.281237
 31
0.000000
  0
LINE
  8
HUB
 62
     7
  6
CONTINUOUS
 10
6.122448
 20
1.584763
 30
0.000000
 11
6.122448
 21
1.281237
 31
0.000000
  0
LINE
  8
HUB
 62
     7
  6
CONTINUOUS
 10
5.651699
 20
1.612499
 30
0.000000
 11
5.651699
 21
1.253500
 31
0.000000
  0
LINE
  8
HUB
 62
     7
  6
CONTINUOUS
 10
5.714199
 20
1.612499
 30
0.000000
 11
5.714199
 21
1.253500
 31
0.000000
  0
LINE
  8
HUB
 62
     7
  6
CONTINUOUS
 10
5.776699
 20
1.612499
 30
0.000000
 11
5.776699
 21
1.253500
 31
0.000000
  0
LINE
  8
HUB
 62
     7
  6
CONTINUOUS
 10
5.839199
 20
1.612499
 30
0.000000
 11
5.839199
 21
1.253500
 31
0.000000
  0
LINE
  8
HUB
 62
     7
  6
CONTINUOUS
 10
5.901699
 20
1.612499
 30
0.000000
 11
5.901699
 21
1.253500
 31
0.000000
  0
LINE
  8
HUB
 62
     7
  6
CONTINUOUS
 10
5.964199
 20
1.612499
 30
0.000000
 11
5.964199
 21
1.253500
 31
0.000000
  0
LINE
  8
HUB
 62
     7
  6
CONTINUOUS
 10
6.026699
 20
1.612499
 30
0.000000
 11
6.026699
 21
1.253500
 31
0.000000
  0
LINE
  8
HUB
 62
     7
  6
CONTINUOUS
 10
6.089199
 20
1.612499
 30
0.000000
 11
6.089199
 21
1.253500
 31
0.000000
  0
POINT
  8
HUB
 62
     7
 10
6.398200
 20
0.703109
 30
0.000000
  0
LINE
  8
HUB
 62
     7
  6
CONTINUOUS
 10
6.398200
 20
-0.800000
 30
0.000000
 11
6.398200
 21
0.805681
 31
0.000000
  0
LINE
  8
HUB
 62
     7
  6
CONTINUOUS
 10
6.848700
 20
0.703109
 30
0.000000
 11
5.791121
 21
0.703109
 31
0.000000
  0
LINE
  8
HUB
 62
     7
  6
CONTINUOUS
 10
6.108699
 20
0.867109
 30
0.000000
 11
6.108699
 21
0.539109
 31
0.000000
  0
LINE
  8
HUB
 62
     7
  6
CONTINUOUS
 10
6.108699
 20
0.805681
 30
0.000000
 11
6.467705
 21
0.805681
 31
0.000000
  0
LINE
  8
HUB
 62
     7
  6
CONTINUOUS
 10
6.108699
 20
0.602581
 30
0.000000
 11
6.398200
 21
0.602581
 31
0.000000
  0
LINE
  8
HUB
 62
     7
  6
CONTINUOUS
 10
5.908699
 20
0.539109
 30
0.000000
 11
6.108699
 21
0.539109
 31
0.000000
  0
LINE
  8
HUB
 62
     7
  6
CONTINUOUS
 10
5.526699
 20
1.612499
 30
0.000000
 11
6.276699
 21
1.612499
 31
0.000000
  0
LINE
  8
HUB
 62
     7
  6
CONTINUOUS
 10
5.526699
 20
1.253500
 30
0.000000
 11
6.276699
 21
1.253500
 31
0.000000
  0
LINE
  8
HUB
 62
     7
  6
CONTINUOUS
 10
6.192747
 20
1.584763
 30
0.000000
 11
6.192747
 21
1.281237
 31
0.000000
  0
LINE
  8
HUB
 62
     7
  6
CONTINUOUS
 10
6.159498
 20
1.612499
 30
0.000000
 11
6.159498
 21
1.253500
 31
0.000000
  0
LINE
  8
HUB
 62
     7
  6
CONTINUOUS
 10
6.263045
 20
1.584763
 30
0.000000
 11
6.263045
 21
1.281237
 31
0.000000
  0
LINE
  8
HUB
 62
     7
  6
CONTINUOUS
 10
6.229797
 20
1.612499
 30
0.000000
 11
6.229797
 21
1.253500
 31
0.000000
  0
LINE
  8
HUB
 62
     7
  6
CONTINUOUS
 10
5.230130
 20
1.436500
 30
0.000000
 11
6.492966
 21
1.436500
 31
0.000000
  0
LINE
  8
HUB
 62
     7
  6
CONTINUOUS
 10
5.908699
 20
-0.670000
 30
0.000000
 11
5.908699
 21
0.670000
 31
0.000000
  0
LINE
  8
HUB
 62
     7
  6
CONTINUOUS
 10
5.908699
 20
0.670000
 30
0.000000
 11
5.539700
 21
0.670000
 31
0.000000
  0
LINE
  8
HUB
 62
     7
  6
CONTINUOUS
 10
5.908699
 20
0.375000
 30
0.000000
 11
6.398200
 21
0.375000
 31
0.000000
  0
LINE
  8
HUB
 62
     7
  6
CONTINUOUS
 10
5.908699
 20
-0.670000
 30
0.000000
 11
5.539700
 21
-0.670000
 31
0.000000
  0
LINE
  8
HUB
 62
     7
  6
CONTINUOUS
 10
6.276699
 20
1.612499
 30
0.000000
 11
6.276699
 21
1.253500
 31
0.000000
  0
POINT
  8
HUB
 62
     7
 10
6.026699
 20
1.436500
 30
0.000000
  0
POINT
  8
HUB
 62
     7
 10
6.089199
 20
1.436500
 30
0.000000
  0
LINE
  8
HUB
 62
     7
  6
CONTINUOUS
 10
5.908699
 20
-0.375000
 30
0.000000
 11
6.398200
 21
-0.375000
 31
0.000000
  0
POINT
  8
BUSHING
 62
     7
 10
10.447280
 20
0.000000
 30
0.000000
  0
POINT
  8
BUSHING
 62
     7
 10
10.447280
 20
0.000000
 30
0.000000
  0
POINT
  8
BUSHING
 62
     7
 10
10.447280
 20
0.000000
 30
0.000000
  0
LINE
  8
BUSHING
 62
     7
  6
CONTINUOUS
 10
10.447280
 20
0.000000
 30
0.000000
 11
10.447280
 21
-0.812500
 31
0.000000
  0
POINT
  8
BUSHING
 62
     7
 10
11.572601
 20
0.703108
 30
0.000000
  0
POINT
  8
BUSHING
 62
     7
 10
11.572601
 20
0.703108
 30
0.000000
  0
POINT
  8
BUSHING
 62
     7
 10
11.572608
 20
0.703108
 30
0.000000
  0
POINT
  8
BUSHING
 62
     7
 10
11.572608
 20
0.703108
 30
0.000000
  0
POINT
  8
BUSHING
 62
     7
 10
10.446140
 20
0.704028
 30
0.000000
  0
POINT
  8
BUSHING
 62
     7
 10
10.571140
 20
0.704028
 30
0.000000
  0
POINT
  8
BUSHING
 62
     7
 10
10.696140
 20
0.704028
 30
0.000000
  0
POINT
  8
BUSHING
 62
     7
 10
10.696140
 20
0.704028
 30
0.000000
  0
LINE
  8
BUSHING
 62
     7
  6
CONTINUOUS
 10
10.571140
 20
0.704028
 30
0.000000
 11
10.571140
 21
0.758728
 31
0.000000
  0
LINE
  8
BUSHING
 62
     7
  6
CONTINUOUS
 10
10.571140
 20
0.704028
 30
0.000000
 11
10.571140
 21
0.649328
 31
0.000000
  0
LINE
  8
BUSHING
 62
     7
  6
CONTINUOUS
 10
10.696140
 20
0.704028
 30
0.000000
 11
10.696140
 21
0.790414
 31
0.000000
  0
LINE
  8
BUSHING
 62
     7
  6
CONTINUOUS
 10
10.696140
 20
0.704028
 30
0.000000
 11
10.696140
 21
0.617641
 31
0.000000
  0
POINT
  8
BUSHING
 62
     7
 10
10.946140
 20
0.704028
 30
0.000000
  0
POINT
  8
BUSHING
 62
     7
 10
10.821140
 20
0.704028
 30
0.000000
  0
POINT
  8
BUSHING
 62
     7
 10
10.821140
 20
0.704028
 30
0.000000
  0
LINE
  8
BUSHING
 62
     7
  6
CONTINUOUS
 10
10.821140
 20
0.704028
 30
0.000000
 11
10.821140
 21
0.758728
 31
0.000000
  0
LINE
  8
BUSHING
 62
     7
  6
CONTINUOUS
 10
10.821140
 20
0.704028
 30
0.000000
 11
10.821140
 21
0.649328
 31
0.000000
  0
POINT
  8
BUSHING
 62
     7
 10
11.071140
 20
0.704028
 30
0.000000
  0
LINE
  8
BUSHING
 62
     7
  6
CONTINUOUS
 10
11.071140
 20
0.704028
 30
0.000000
 11
11.071140
 21
0.758728
 31
0.000000
  0
LINE
  8
BUSHING
 62
     7
  6
CONTINUOUS
 10
11.071140
 20
0.704028
 30
0.000000
 11
11.071140
 21
0.649328
 31
0.000000
  0
POINT
  8
BUSHING
 62
     7
 10
11.321140
 20
0.704028
 30
0.000000
  0
LINE
  8
BUSHING
 62
     7
  6
CONTINUOUS
 10
11.321140
 20
0.704028
 30
0.000000
 11
11.321140
 21
0.758728
 31
0.000000
  0
LINE
  8
BUSHING
 62
     7
  6
CONTINUOUS
 10
11.321140
 20
0.704028
 30
0.000000
 11
11.321140
 21
0.649328
 31
0.000000
  0
POINT
  8
BUSHING
 62
     7
 10
11.571140
 20
0.704028
 30
0.000000
  0
LINE
  8
BUSHING
 62
     7
  6
CONTINUOUS
 10
11.571140
 20
0.704028
 30
0.000000
 11
11.571140
 21
0.758728
 31
0.000000
  0
LINE
  8
BUSHING
 62
     7
  6
CONTINUOUS
 10
11.571140
 20
0.704028
 30
0.000000
 11
11.571140
 21
0.649328
 31
0.000000
  0
POINT
  8
BUSHING
 62
     7
 10
10.946140
 20
0.704028
 30
0.000000
  0
POINT
  8
BUSHING
 62
     7
 10
10.946140
 20
0.704028
 30
0.000000
  0
LINE
  8
BUSHING
 62
     7
  6
CONTINUOUS
 10
10.946140
 20
0.704028
 30
0.000000
 11
10.946140
 21
0.790414
 31
0.000000
  0
LINE
  8
BUSHING
 62
     7
  6
CONTINUOUS
 10
10.946140
 20
0.704028
 30
0.000000
 11
10.946140
 21
0.617641
 31
0.000000
  0
POINT
  8
BUSHING
 62
     7
 10
11.196140
 20
0.704028
 30
0.000000
  0
POINT
  8
BUSHING
 62
     7
 10
11.196140
 20
0.704028
 30
0.000000
  0
LINE
  8
BUSHING
 62
     7
  6
CONTINUOUS
 10
11.196140
 20
0.704028
 30
0.000000
 11
11.196140
 21
0.790414
 31
0.000000
  0
LINE
  8
BUSHING
 62
     7
  6
CONTINUOUS
 10
11.196140
 20
0.704028
 30
0.000000
 11
11.196140
 21
0.617641
 31
0.000000
  0
POINT
  8
BUSHING
 62
     7
 10
11.446140
 20
0.704028
 30
0.000000
  0
POINT
  8
BUSHING
 62
     7
 10
11.446140
 20
0.704028
 30
0.000000
  0
LINE
  8
BUSHING
 62
     7
  6
CONTINUOUS
 10
11.446140
 20
0.704028
 30
0.000000
 11
11.446140
 21
0.790414
 31
0.000000
  0
LINE
  8
BUSHING
 62
     7
  6
CONTINUOUS
 10
11.446140
 20
0.704028
 30
0.000000
 11
11.446140
 21
0.617641
 31
0.000000
  0
POINT
  8
BUSHING
 62
     7
 10
10.447280
 20
0.000000
 30
0.000000
  0
POINT
  8
BUSHING
 62
     7
 10
11.009771
 20
0.003453
 30
0.000000
  0
LINE
  8
BUSHING
 62
     7
  6
CONTINUOUS
 10
10.447280
 20
0.812500
 30
0.000000
 11
10.447280
 21
0.000000
 31
0.000000
  0
LINE
  8
BUSHING
 62
     7
  6
CONTINUOUS
 10
10.447280
 20
0.000000
 30
0.000000
 11
11.697280
 21
0.000000
 31
0.000000
  0
LINE
  8
BUSHING
 62
     7
  6
CONTINUOUS
 10
11.697280
 20
0.000000
 30
0.000000
 11
11.697280
 21
0.937500
 31
0.000000
  0
LINE
  8
BUSHING
 62
     7
  6
CONTINUOUS
 10
11.697280
 20
0.000000
 30
0.000000
 11
11.697280
 21
-0.937500
 31
0.000000
  0
LINE
  8
BUSHING
 62
     7
  6
CONTINUOUS
 10
10.447280
 20
0.562491
 30
0.000000
 11
11.697280
 21
0.562491
 31
0.000000
  0
LINE
  8
BUSHING
 62
     7
  6
CONTINUOUS
 10
10.447280
 20
0.617158
 30
0.000000
 11
11.697280
 21
0.617158
 31
0.000000
  0
LINE
  8
BUSHING
 62
     7
  6
CONTINUOUS
 10
10.449786
 20
-0.562491
 30
0.000000
 11
11.697280
 21
-0.562491
 31
0.000000
  0
LINE
  8
BUSHING
 62
     7
  6
CONTINUOUS
 10
10.447280
 20
-0.812500
 30
0.000000
 11
11.697280
 21
-0.937500
 31
0.000000
  0
LINE
  8
BUSHING
 62
     7
  6
CONTINUOUS
 10
10.447280
 20
0.812500
 30
0.000000
 11
11.697280
 21
0.937500
 31
0.000000
  0
LINE
  8
BUSHING
 62
     7
  6
CONTINUOUS
 10
10.447280
 20
0.789058
 30
0.000000
 11
11.697280
 21
0.789058
 31
0.000000
  0
LINE
  8
BUSHING
 62
     7
  6
CONTINUOUS
 10
10.446140
 20
0.704028
 30
0.000000
 11
11.697280
 21
0.704028
 31
0.000000
  0
LINE
  8
DIEM
 62
     7
  6
CONTINUOUS
 10
10.677028
 20
-0.840487
 30
0.000000
 11
10.790590
 21
-0.892724
 31
0.000000
  0
LINE
  8
DIEM
 62
     7
  6
CONTINUOUS
 10
10.677028
 20
-0.840487
 30
0.000000
 11
10.688570
 21
-0.964953
 31
0.000000
  0
LINE
  8
DIEM
 62
     7
  6
CONTINUOUS
 10
10.677028
 20
-0.840487
 30
0.000000
 11
11.179521
 21
-1.550230
 31
0.000000
  0
LINE
  8
DIEM
 62
     7
  6
CONTINUOUS
 10
11.179521
 20
-1.550230
 30
0.000000
 11
11.304521
 21
-1.550230
 31
0.000000
  0
TEXT
  8
DIEM
 62
     7
 10
11.367020
 20
-1.612730
 30
0.000000
 40
0.125000
  1
2.500TPF
  0
LINE
  8
DIEM
 62
     7
  6
CONTINUOUS
 10
10.447280
 20
1.344775
 30
0.000000
 11
10.568021
 21
1.377127
 31
0.000000
  0
LINE
  8
DIEM
 62
     7
  6
CONTINUOUS
 10
10.447280
 20
1.344775
 30
0.000000
 11
10.568021
 21
1.312422
 31
0.000000
  0
LINE
  8
DIEM
 62
     7
  6
CONTINUOUS
 10
11.697280
 20
1.344775
 30
0.000000
 11
11.576539
 21
1.312422
 31
0.000000
  0
LINE
  8
DIEM
 62
     7
  6
CONTINUOUS
 10
11.697280
 20
1.344775
 30
0.000000
 11
11.576539
 21
1.377127
 31
0.000000
  0
LINE
  8
DIEM
 62
     7
  6
CONTINUOUS
 10
10.447280
 20
0.862500
 30
0.000000
 11
10.447280
 21
1.469775
 31
0.000000
  0
LINE
  8
DIEM
 62
     7
  6
CONTINUOUS
 10
11.697280
 20
0.987500
 30
0.000000
 11
11.697280
 21
1.469775
 31
0.000000
  0
TEXT
  8
DIEM
 62
     7
 10
10.696845
 20
1.282202
 30
0.000000
 40
0.125000
  1
1 1/4"
  0
LINE
  8
DIEM
 62
     7
  6
CONTINUOUS
 10
10.447280
 20
1.344775
 30
0.000000
 11
10.665594
 21
1.344775
 31
0.000000
  0
LINE
  8
DIEM
 62
     7
  6
CONTINUOUS
 10
11.478966
 20
1.344775
 30
0.000000
 11
11.697280
 21
1.344775
 31
0.000000
  0
LINE
  8
DIEM
 62
     7
  6
CONTINUOUS
 10
9.976182
 20
-0.812500
 30
0.000000
 11
9.943830
 21
-0.691759
 31
0.000000
  0
LINE
  8
DIEM
 62
     7
  6
CONTINUOUS
 10
9.976182
 20
-0.812500
 30
0.000000
 11
10.008535
 21
-0.691759
 31
0.000000
  0
LINE
  8
DIEM
 62
     7
  6
CONTINUOUS
 10
9.976182
 20
0.812500
 30
0.000000
 11
10.008535
 21
0.691759
 31
0.000000
  0
LINE
  8
DIEM
 62
     7
  6
CONTINUOUS
 10
9.976182
 20
0.812500
 30
0.000000
 11
9.943830
 21
0.691759
 31
0.000000
  0
LINE
  8
DIEM
 62
     7
  6
CONTINUOUS
 10
10.397280
 20
-0.812500
 30
0.000000
 11
9.851182
 21
-0.812500
 31
0.000000
  0
LINE
  8
DIEM
 62
     7
  6
CONTINUOUS
 10
10.397280
 20
0.812500
 30
0.000000
 11
9.851182
 21
0.812500
 31
0.000000
  0
TEXT
  8
DIEM
 62
     7
 10
9.598034
 20
0.161103
 30
0.000000
 40
0.125000
  1
1 5/8"
  0
LINE
  8
DIEM
 62
     7
  6
CONTINUOUS
 10
9.976182
 20
-0.812500
 30
0.000000
 11
9.976182
 21
0.129853
 31
0.000000
  0
LINE
  8
DIEM
 62
     7
  6
CONTINUOUS
 10
9.976182
 20
0.318402
 30
0.000000
 11
9.976182
 21
0.812500
 31
0.000000
  0
LINE
  8
DIEM
 62
     7
  6
CONTINUOUS
 10
12.144836
 20
-0.562491
 30
0.000000
 11
12.112483
 21
-0.441751
 31
0.000000
  0
LINE
  8
DIEM
 62
     7
  6
CONTINUOUS
 10
12.144836
 20
-0.562491
 30
0.000000
 11
12.177188
 21
-0.441751
 31
0.000000
  0
LINE
  8
DIEM
 62
     7
  6
CONTINUOUS
 10
12.144836
 20
0.562491
 30
0.000000
 11
12.177188
 21
0.441751
 31
0.000000
  0
LINE
  8
DIEM
 62
     7
  6
CONTINUOUS
 10
12.144836
 20
0.562491
 30
0.000000
 11
12.112483
 21
0.441751
 31
0.000000
  0
LINE
  8
DIEM
 62
     7
  6
CONTINUOUS
 10
11.747280
 20
-0.562491
 30
0.000000
 11
12.269836
 21
-0.562491
 31
0.000000
  0
LINE
  8
DIEM
 62
     7
  6
CONTINUOUS
 10
11.747280
 20
0.562491
 30
0.000000
 11
12.269836
 21
0.562491
 31
0.000000
  0
TEXT
  8
DIEM
 62
     7
 10
11.767387
 20
-0.212329
 30
0.000000
 40
0.125000
  1
1 1/8"
  0
LINE
  8
DIEM
 62
     7
  6
CONTINUOUS
 10
12.144836
 20
-0.562491
 30
0.000000
 11
12.144836
 21
-0.243579
 31
0.000000
  0
LINE
  8
DIEM
 62
     7
  6
CONTINUOUS
 10
12.144836
 20
-0.055263
 30
0.000000
 11
12.144836
 21
0.562491
 31
0.000000
  0
LINE
  8
DIEM
 62
     7
  6
CONTINUOUS
 10
12.739894
 20
-0.937500
 30
0.000000
 11
12.707542
 21
-0.816759
 31
0.000000
  0
LINE
  8
DIEM
 62
     7
  6
CONTINUOUS
 10
12.739894
 20
-0.937500
 30
0.000000
 11
12.772247
 21
-0.816759
 31
0.000000
  0
LINE
  8
DIEM
 62
     7
  6
CONTINUOUS
 10
12.739894
 20
0.937500
 30
0.000000
 11
12.772247
 21
0.816759
 31
0.000000
  0
LINE
  8
DIEM
 62
     7
  6
CONTINUOUS
 10
12.739894
 20
0.937500
 30
0.000000
 11
12.707542
 21
0.816759
 31
0.000000
  0
LINE
  8
DIEM
 62
     7
  6
CONTINUOUS
 10
11.747280
 20
-0.937500
 30
0.000000
 11
12.864894
 21
-0.937500
 31
0.000000
  0
LINE
  8
DIEM
 62
     7
  6
CONTINUOUS
 10
11.747280
 20
0.937500
 30
0.000000
 11
12.864894
 21
0.937500
 31
0.000000
  0
TEXT
  8
DIEM
 62
     7
 10
12.362446
 20
0.123865
 30
0.000000
 40
0.125000
  1
1 7/8"
  0
LINE
  8
DIEM
 62
     7
  6
CONTINUOUS
 10
12.739894
 20
-0.937500
 30
0.000000
 11
12.739894
 21
0.092615
 31
0.000000
  0
LINE
  8
DIEM
 62
     7
  6
CONTINUOUS
 10
12.739894
 20
0.280931
 30
0.000000
 11
12.739894
 21
0.937500
 31
0.000000
  0
LINE
  8
DIEM
 62
     7
  6
CONTINUOUS
 10
6.853146
 20
-0.375000
 30
0.000000
 11
6.827264
 21
-0.278407
 31
0.000000
  0
LINE
  8
DIEM
 62
     7
  6
CONTINUOUS
 10
6.853146
 20
-0.375000
 30
0.000000
 11
6.879028
 21
-0.278407
 31
0.000000
  0
LINE
  8
DIEM
 62
     7
  6
CONTINUOUS
 10
6.853146
 20
0.375000
 30
0.000000
 11
6.879028
 21
0.278407
 31
0.000000
  0
LINE
  8
DIEM
 62
     7
  6
CONTINUOUS
 10
6.853146
 20
0.375000
 30
0.000000
 11
6.827264
 21
0.278407
 31
0.000000
  0
LINE
  8
DIEM
 62
     7
  6
CONTINUOUS
 10
6.448200
 20
-0.375000
 30
0.000000
 11
6.953146
 21
-0.375000
 31
0.000000
  0
LINE
  8
DIEM
 62
     7
  6
CONTINUOUS
 10
6.448200
 20
0.375000
 30
0.000000
 11
6.953146
 21
0.375000
 31
0.000000
  0
TEXT
  8
DIEM
 62
     7
 10
6.627667
 20
0.045693
 30
0.000000
 40
0.125000
  1
3/4"
  0
LINE
  8
DIEM
 62
     7
  6
CONTINUOUS
 10
6.853146
 20
-0.375000
 30
0.000000
 11
6.853146
 21
0.014443
 31
0.000000
  0
LINE
  8
DIEM
 62
     7
  6
CONTINUOUS
 10
6.853146
 20
0.202089
 30
0.000000
 11
6.853146
 21
0.375000
 31
0.000000
  0
POINT
  8
HUB
 62
     7
 10
6.398200
 20
0.798754
 30
0.000000
  0
LINE
  8
DIEM
 62
     7
  6
CONTINUOUS
 10
7.707827
 20
-0.800000
 30
0.000000
 11
7.681945
 21
-0.703408
 31
0.000000
  0
LINE
  8
DIEM
 62
     7
  6
CONTINUOUS
 10
7.707827
 20
-0.800000
 30
0.000000
 11
7.733709
 21
-0.703408
 31
0.000000
  0
LINE
  8
DIEM
 62
     7
  6
CONTINUOUS
 10
7.707827
 20
0.798754
 30
0.000000
 11
7.733709
 21
0.702162
 31
0.000000
  0
LINE
  8
DIEM
 62
     7
  6
CONTINUOUS
 10
7.707827
 20
0.798754
 30
0.000000
 11
7.681945
 21
0.702162
 31
0.000000
  0
LINE
  8
DIEM
 62
     7
  6
CONTINUOUS
 10
6.448200
 20
-0.800000
 30
0.000000
 11
7.807827
 21
-0.800000
 31
0.000000
  0
LINE
  8
DIEM
 62
     7
  6
CONTINUOUS
 10
6.448200
 20
0.798754
 30
0.000000
 11
7.807827
 21
0.798754
 31
0.000000
  0
TEXT
  8
DIEM
 62
     7
 10
7.123192
 20
-0.221916
 30
0.000000
 40
0.125000
  1
1.60" (REF)
  0
LINE
  8
DIEM
 62
     7
  6
CONTINUOUS
 10
7.707827
 20
-0.800000
 30
0.000000
 11
7.707827
 21
-0.253166
 31
0.000000
  0
LINE
  8
DIEM
 62
     7
  6
CONTINUOUS
 10
7.707827
 20
-0.059991
 30
0.000000
 11
7.707827
 21
0.798754
 31
0.000000
  0
LINE
  8
HUB
 62
     7
  6
CONTINUOUS
 10
6.467705
 20
0.805681
 30
0.000000
 11
7.773200
 21
0.935788
 31
0.000000
  0
LINE
  8
HUB
 62
     7
  6
CONTINUOUS
 10
6.398200
 20
-0.800000
 30
0.000000
 11
7.773200
 21
-0.937033
 31
0.000000
  0
LINE
  8
HUB
 62
     7
  6
CONTINUOUS
 10
7.773200
 20
0.935788
 30
0.000000
 11
7.773200
 21
1.125000
 31
0.000000
  0
LINE
  8
HUB
 62
     7
  6
CONTINUOUS
 10
7.773200
 20
-1.124990
 30
0.000000
 11
7.773200
 21
-0.937033
 31
0.000000
  0
LINE
  8
HUB
 62
     7
  6
CONTINUOUS
 10
5.398200
 20
-0.945000
 30
0.000000
 11
5.526699
 21
-0.945000
 31
0.000000
  0
LINE
  8
HUB
 62
     7
  6
CONTINUOUS
 10
5.398200
 20
-0.811500
 30
0.000000
 11
5.539700
 21
-0.670000
 31
0.000000
  0
LINE
  8
HUB
 62
     7
  6
CONTINUOUS
 10
5.398200
 20
0.947000
 30
0.000000
 11
5.526699
 21
0.947000
 31
0.000000
  0
LINE
  8
HUB
 62
     7
  6
CONTINUOUS
 10
5.398200
 20
0.811500
 30
0.000000
 11
5.539700
 21
0.670000
 31
0.000000
  0
LINE
  8
HUB
 62
     7
  6
CONTINUOUS
 10
5.398200
 20
0.811500
 30
0.000000
 11
5.398200
 21
0.947000
 31
0.000000
  0
LINE
  8
HUB
 62
     7
  6
CONTINUOUS
 10
5.398200
 20
-0.945000
 30
0.000000
 11
5.398200
 21
-0.811500
 31
0.000000
  0
LINE
  8
HUB
 62
     7
  6
CONTINUOUS
 10
5.398200
 20
0.867109
 30
0.000000
 11
6.108699
 21
0.867109
 31
0.000000
  0
LINE
  8
DIEM
 62
     7
  6
CONTINUOUS
 10
5.398200
 20
-2.325141
 30
0.000000
 11
5.301607
 21
-2.351023
 31
0.000000
  0
LINE
  8
DIEM
 62
     7
  6
CONTINUOUS
 10
5.398200
 20
-2.325141
 30
0.000000
 11
5.301607
 21
-2.299259
 31
0.000000
  0
LINE
  8
DIEM
 62
     7
  6
CONTINUOUS
 10
5.526699
 20
-2.325141
 30
0.000000
 11
5.623292
 21
-2.299259
 31
0.000000
  0
LINE
  8
DIEM
 62
     7
  6
CONTINUOUS
 10
5.526699
 20
-2.325141
 30
0.000000
 11
5.623292
 21
-2.351023
 31
0.000000
  0
LINE
  8
DIEM
 62
     7
  6
CONTINUOUS
 10
5.398200
 20
-0.995000
 30
0.000000
 11
5.398200
 21
-2.425141
 31
0.000000
  0
LINE
  8
DIEM
 62
     7
  6
CONTINUOUS
 10
5.526699
 20
-1.987500
 30
0.000000
 11
5.526699
 21
-2.425141
 31
0.000000
  0
TEXT
  8
DIEM
 62
     7
 10
4.567541
 20
-2.388049
 30
0.000000
 40
0.125000
  1
1/8"
  0
LINE
  8
DIEM
 62
     7
  6
CONTINUOUS
 10
5.398200
 20
-2.325141
 30
0.000000
 11
5.198200
 21
-2.325141
 31
0.000000
  0
LINE
  8
DIEM
 62
     7
  6
CONTINUOUS
 10
5.526699
 20
-2.325141
 30
0.000000
 11
5.726699
 21
-2.325141
 31
0.000000
  0
LINE
  8
HUB
 62
     7
  6
CONTINUOUS
 10
6.773200
 20
-1.124990
 30
0.000000
 11
7.773200
 21
-1.124990
 31
0.000000
  0
LINE
  8
HUB
 62
     7
  6
CONTINUOUS
 10
6.773200
 20
1.125000
 30
0.000000
 11
7.773200
 21
1.125000
 31
0.000000
  0
LINE
  8
DIEM
 62
     7
  6
CONTINUOUS
 10
5.526699
 20
-2.677498
 30
0.000000
 11
5.623292
 21
-2.651616
 31
0.000000
  0
LINE
  8
DIEM
 62
     7
  6
CONTINUOUS
 10
5.526699
 20
-2.677498
 30
0.000000
 11
5.623292
 21
-2.703380
 31
0.000000
  0
LINE
  8
DIEM
 62
     7
  6
CONTINUOUS
 10
6.773200
 20
-2.677498
 30
0.000000
 11
6.676607
 21
-2.703380
 31
0.000000
  0
LINE
  8
DIEM
 62
     7
  6
CONTINUOUS
 10
6.773200
 20
-2.677498
 30
0.000000
 11
6.676607
 21
-2.651616
 31
0.000000
  0
LINE
  8
DIEM
 62
     7
  6
CONTINUOUS
 10
5.526699
 20
-1.987500
 30
0.000000
 11
5.526699
 21
-2.777498
 31
0.000000
  0
LINE
  8
DIEM
 62
     7
  6
CONTINUOUS
 10
6.773200
 20
-1.987500
 30
0.000000
 11
6.773200
 21
-2.777498
 31
0.000000
  0
TEXT
  8
DIEM
 62
     7
 10
5.863321
 20
-2.740071
 30
0.000000
 40
0.125000
  1
1 1/4"
  0
LINE
  8
DIEM
 62
     7
  6
CONTINUOUS
 10
5.526699
 20
-2.677498
 30
0.000000
 11
5.832071
 21
-2.677498
 31
0.000000
  0
LINE
  8
DIEM
 62
     7
  6
CONTINUOUS
 10
6.467828
 20
-2.677498
 30
0.000000
 11
6.773200
 21
-2.677498
 31
0.000000
  0
LINE
  8
DIEM
 62
     7
  6
CONTINUOUS
 10
6.773200
 20
-2.677498
 30
0.000000
 11
6.869792
 21
-2.651616
 31
0.000000
  0
LINE
  8
DIEM
 62
     7
  6
CONTINUOUS
 10
6.773200
 20
-2.677498
 30
0.000000
 11
6.869792
 21
-2.703380
 31
0.000000
  0
LINE
  8
DIEM
 62
     7
  6
CONTINUOUS
 10
7.773200
 20
-2.677498
 30
0.000000
 11
7.676607
 21
-2.703380
 31
0.000000
  0
LINE
  8
DIEM
 62
     7
  6
CONTINUOUS
 10
7.773200
 20
-2.677498
 30
0.000000
 11
7.676607
 21
-2.651616
 31
0.000000
  0
LINE
  8
DIEM
 62
     7
  6
CONTINUOUS
 10
6.773200
 20
-1.987500
 30
0.000000
 11
6.773200
 21
-2.777498
 31
0.000000
  0
LINE
  8
DIEM
 62
     7
  6
CONTINUOUS
 10
7.773200
 20
-1.174990
 30
0.000000
 11
7.773200
 21
-2.777498
 31
0.000000
  0
TEXT
  8
DIEM
 62
     7
 10
7.222906
 20
-2.740071
 30
0.000000
 40
0.125000
  1
1"
  0
LINE
  8
DIEM
 62
     7
  6
CONTINUOUS
 10
6.773200
 20
-2.677498
 30
0.000000
 11
7.191656
 21
-2.677498
 31
0.000000
  0
LINE
  8
DIEM
 62
     7
  6
CONTINUOUS
 10
7.354743
 20
-2.677498
 30
0.000000
 11
7.773200
 21
-2.677498
 31
0.000000
  0
POINT
  8
HUB
 62
     7
 10
5.908699
 20
0.000000
 30
0.000000
  0
LINE
  8
HUB
 62
     7
  6
CONTINUOUS
 10
5.526699
 20
-1.750000
 30
0.000000
 11
6.773200
 21
-1.750000
 31
0.000000
  0
LINE
  8
HUB
 62
     7
  6
CONTINUOUS
 10
6.773200
 20
-1.124990
 30
0.000000
 11
6.773200
 21
-1.750000
 31
0.000000
  0
LINE
  8
HUB
 62
     7
  6
CONTINUOUS
 10
5.526699
 20
-0.945000
 30
0.000000
 11
5.526699
 21
-1.750000
 31
0.000000
  0
LINE
  8
HUB
 62
     7
  6
CONTINUOUS
 10
5.526699
 20
1.750000
 30
0.000000
 11
6.773200
 21
1.750000
 31
0.000000
  0
LINE
  8
HUB
 62
     7
  6
CONTINUOUS
 10
5.526699
 20
0.947000
 30
0.000000
 11
5.526699
 21
1.750000
 31
0.000000
  0
LINE
  8
HUB
 62
     7
  6
CONTINUOUS
 10
6.773200
 20
1.750000
 30
0.000000
 11
6.773200
 21
1.125000
 31
0.000000
  0
LINE
  8
DIEM
 62
     7
  6
CONTINUOUS
 10
8.363380
 20
-1.124990
 30
0.000000
 11
8.337499
 21
-1.028398
 31
0.000000
  0
LINE
  8
DIEM
 62
     7
  6
CONTINUOUS
 10
8.363380
 20
-1.124990
 30
0.000000
 11
8.389262
 21
-1.028398
 31
0.000000
  0
LINE
  8
DIEM
 62
     7
  6
CONTINUOUS
 10
8.363380
 20
1.125000
 30
0.000000
 11
8.389262
 21
1.028407
 31
0.000000
  0
LINE
  8
DIEM
 62
     7
  6
CONTINUOUS
 10
8.363380
 20
1.125000
 30
0.000000
 11
8.337499
 21
1.028407
 31
0.000000
  0
LINE
  8
DIEM
 62
     7
  6
CONTINUOUS
 10
7.823200
 20
-1.124990
 30
0.000000
 11
8.463380
 21
-1.124990
 31
0.000000
  0
LINE
  8
DIEM
 62
     7
  6
CONTINUOUS
 10
7.823200
 20
1.125000
 30
0.000000
 11
8.463380
 21
1.125000
 31
0.000000
  0
TEXT
  8
DIEM
 62
     7
 10
8.044442
 20
-0.475244
 30
0.000000
 40
0.125000
  1
2 1/4"
  0
LINE
  8
DIEM
 62
     7
  6
CONTINUOUS
 10
8.363380
 20
-1.124990
 30
0.000000
 11
8.363380
 21
-0.506494
 31
0.000000
  0
LINE
  8
DIEM
 62
     7
  6
CONTINUOUS
 10
8.363380
 20
-0.318820
 30
0.000000
 11
8.363380
 21
1.125000
 31
0.000000
  0
LINE
  8
DIEM
 62
     7
  6
CONTINUOUS
 10
6.398200
 20
1.971065
 30
0.000000
 11
6.494792
 21
1.996947
 31
0.000000
  0
LINE
  8
DIEM
 62
     7
  6
CONTINUOUS
 10
6.398200
 20
1.971065
 30
0.000000
 11
6.494792
 21
1.945184
 31
0.000000
  0
LINE
  8
DIEM
 62
     7
  6
CONTINUOUS
 10
7.773200
 20
1.971065
 30
0.000000
 11
7.676607
 21
1.945184
 31
0.000000
  0
LINE
  8
DIEM
 62
     7
  6
CONTINUOUS
 10
7.773200
 20
1.971065
 30
0.000000
 11
7.676607
 21
1.996947
 31
0.000000
  0
LINE
  8
DIEM
 62
     7
  6
CONTINUOUS
 10
6.398200
 20
0.848754
 30
0.000000
 11
6.398200
 21
2.071065
 31
0.000000
  0
LINE
  8
DIEM
 62
     7
  6
CONTINUOUS
 10
7.773200
 20
1.175000
 30
0.000000
 11
7.773200
 21
2.071065
 31
0.000000
  0
TEXT
  8
DIEM
 62
     7
 10
6.772493
 20
1.908157
 30
0.000000
 40
0.125000
  1
1 3/8"
  0
LINE
  8
DIEM
 62
     7
  6
CONTINUOUS
 10
6.398200
 20
1.971065
 30
0.000000
 11
6.741244
 21
1.971065
 31
0.000000
  0
LINE
  8
DIEM
 62
     7
  6
CONTINUOUS
 10
7.430155
 20
1.971065
 30
0.000000
 11
7.773200
 21
1.971065
 31
0.000000
  0
TEXT
  8
HUB
 62
     7
 10
6.778268
 20
2.089048
 30
0.000000
 40
0.125000
  1
(REF)
  0
LINE
  8
DIEM
 62
     7
  6
CONTINUOUS
 10
8.837801
 20
-1.750000
 30
0.000000
 11
8.811919
 21
-1.653407
 31
0.000000
  0
LINE
  8
DIEM
 62
     7
  6
CONTINUOUS
 10
8.837801
 20
-1.750000
 30
0.000000
 11
8.863683
 21
-1.653407
 31
0.000000
  0
LINE
  8
DIEM
 62
     7
  6
CONTINUOUS
 10
8.837801
 20
1.750000
 30
0.000000
 11
8.863683
 21
1.653407
 31
0.000000
  0
LINE
  8
DIEM
 62
     7
  6
CONTINUOUS
 10
8.837801
 20
1.750000
 30
0.000000
 11
8.811919
 21
1.653407
 31
0.000000
  0
LINE
  8
DIEM
 62
     7
  6
CONTINUOUS
 10
6.823200
 20
-1.750000
 30
0.000000
 11
8.937801
 21
-1.750000
 31
0.000000
  0
LINE
  8
DIEM
 62
     7
  6
CONTINUOUS
 10
6.823200
 20
1.750000
 30
0.000000
 11
8.937801
 21
1.750000
 31
0.000000
  0
TEXT
  8
DIEM
 62
     7
 10
8.523871
 20
0.180684
 30
0.000000
 40
0.125000
  1
3 1/2"
  0
LINE
  8
DIEM
 62
     7
  6
CONTINUOUS
 10
8.837801
 20
-1.750000
 30
0.000000
 11
8.837801
 21
0.149434
 31
0.000000
  0
LINE
  8
DIEM
 62
     7
  6
CONTINUOUS
 10
8.837801
 20
0.337108
 30
0.000000
 11
8.837801
 21
1.750000
 31
0.000000
  0
LINE
  8
DIEM
 62
     7
  6
CONTINUOUS
 10
7.365676
 20
-0.898261
 30
0.000000
 11
7.445941
 21
-0.957906
 31
0.000000
  0
LINE
  8
DIEM
 62
     7
  6
CONTINUOUS
 10
7.365676
 20
-0.898261
 30
0.000000
 11
7.405365
 21
-0.990048
 31
0.000000
  0
LINE
  8
DIEM
 62
     7
  6
CONTINUOUS
 10
7.365676
 20
-0.898261
 30
0.000000
 11
8.321459
 21
-2.104854
 31
0.000000
  0
LINE
  8
DIEM
 62
     7
  6
CONTINUOUS
 10
8.321459
 20
-2.104854
 30
0.000000
 11
8.446459
 21
-2.104854
 31
0.000000
  0
TEXT
  8
DIEM
 62
     7
 10
8.508959
 20
-2.167354
 30
0.000000
 40
0.125000
  1
BORE TO SUIT
  0
TEXT
  8
DIEM
 62
     7
 10
8.508959
 20
-2.354854
 30
0.000000
 40
0.125000
  1
BUSHING
  0
TEXT
  8
HUB
 62
     7
 10
9.191332
 20
6.006256
 30
0.000000
 40
0.125000
  1
P.O. BOX 1113 FELTON CA. 95018-1113
  0
LINE
  8
HUB
 62
     7
  6
CONTINUOUS
 10
9.058586
 20
6.431253
 30
0.000000
 11
12.625038
 21
6.431253
 31
0.000000
  0
LINE
  8
HUB
 62
     7
  6
CONTINUOUS
 10
12.625038
 20
6.431253
 30
0.000000
 11
12.625038
 21
5.531268
 31
0.000000
  0
LINE
  8
HUB
 62
     7
  6
CONTINUOUS
 10
12.625038
 20
5.531268
 30
0.000000
 11
9.058586
 21
5.531268
 31
0.000000
  0
LINE
  8
HUB
 62
     7
  6
CONTINUOUS
 10
9.058586
 20
5.531268
 30
0.000000
 11
9.058586
 21
6.431253
 31
0.000000
  0
TEXT
  8
HUB
 62
     7
 10
9.191332
 20
5.818757
 30
0.000000
 40
0.125000
  1
PHONE 831-429-1989 FAX 831-429-1907
  0
TEXT
  8
HUB
 62
     7
 10
9.191332
 20
6.193758
 30
0.000000
 40
0.125000
  1
COPYRIGHT ELECTRO AUTOMOTIVE
  0
TEXT
  8
HUB
 62
     7
 10
9.119608
 20
5.261344
 30
0.000000
 40
0.125000
  1
2004 PT CRUISER 2.4L NON TURBO
  0
TEXT
  8
HUB
 62
     7
 10
9.119608
 20
5.073844
 30
0.000000
 40
0.125000
  1
WITH MODULAR CLUTCH
  0
TEXT
  8
HUB
 62
     7
 10
9.119608
 20
4.886344
 30
0.000000
 40
0.125000
  1
ADAPTOR HUB DETAIL DRAWING
  0
TEXT
  8
HUB
 62
     7
 10
9.171776
 20
4.669279
 30
0.000000
 40
0.125000
  1
PRINTED TO SCALE = 1 : 1
  0
LINE
  8
DIEM
 62
     7
  6
CONTINUOUS
 10
10.392712
 20
0.706861
 30
0.000000
 11
10.334817
 21
0.788398
 31
0.000000
  0
LINE
  8
DIEM
 62
     7
  6
CONTINUOUS
 10
10.392712
 20
0.706861
 30
0.000000
 11
10.383342
 21
0.806421
 31
0.000000
  0
LINE
  8
DIEM
 62
     7
  6
CONTINUOUS
 10
10.392712
 20
0.706861
 30
0.000000
 11
9.926505
 21
1.962033
 31
0.000000
  0
LINE
  8
DIEM
 62
     7
  6
CONTINUOUS
 10
9.926505
 20
1.962033
 30
0.000000
 11
10.051505
 21
1.962033
 31
0.000000
  0
TEXT
  8
DIEM
 62
     7
 10
10.114005
 20
1.899533
 30
0.000000
 40
0.125000
  1
SEE NOTE "A"
  0
LINE
  8
DIEM
 62
     7
  6
CONTINUOUS
 10
5.526699
 20
2.430454
 30
0.000000
 11
5.430107
 21
2.404573
 31
0.000000
  0
LINE
  8
DIEM
 62
     7
  6
CONTINUOUS
 10
5.526699
 20
2.430454
 30
0.000000
 11
5.430107
 21
2.456336
 31
0.000000
  0
LINE
  8
DIEM
 62
     7
  6
CONTINUOUS
 10
6.159498
 20
2.430454
 30
0.000000
 11
6.256091
 21
2.456336
 31
0.000000
  0
LINE
  8
DIEM
 62
     7
  6
CONTINUOUS
 10
6.159498
 20
2.430454
 30
0.000000
 11
6.256091
 21
2.404573
 31
0.000000
  0
LINE
  8
DIEM
 62
     7
  6
CONTINUOUS
 10
5.526699
 20
1.800000
 30
0.000000
 11
5.526699
 21
2.530454
 31
0.000000
  0
LINE
  8
DIEM
 62
     7
  6
CONTINUOUS
 10
6.159498
 20
1.662499
 30
0.000000
 11
6.159498
 21
2.530454
 31
0.000000
  0
TEXT
  8
DIEM
 62
     7
 10
6.403300
 20
2.367430
 30
0.000000
 40
0.125000
  1
5/8" MIN THREAD 
  0
LINE
  8
DIEM
 62
     7
  6
CONTINUOUS
 10
5.526699
 20
2.430454
 30
0.000000
 11
5.326699
 21
2.430454
 31
0.000000
  0
LINE
  8
DIEM
 62
     7
  6
CONTINUOUS
 10
6.159498
 20
2.430454
 30
0.000000
 11
6.359498
 21
2.430454
 31
0.000000
  0
LINE
  8
DIEM
 62
     7
  6
CONTINUOUS
 10
5.398200
 20
-2.951070
 30
0.000000
 11
5.494792
 21
-2.925188
 31
0.000000
  0
LINE
  8
DIEM
 62
     7
  6
CONTINUOUS
 10
5.398200
 20
-2.951070
 30
0.000000
 11
5.494792
 21
-2.976952
 31
0.000000
  0
LINE
  8
DIEM
 62
     7
  6
CONTINUOUS
 10
7.773200
 20
-2.951070
 30
0.000000
 11
7.676607
 21
-2.976952
 31
0.000000
  0
LINE
  8
DIEM
 62
     7
  6
CONTINUOUS
 10
7.773200
 20
-2.951070
 30
0.000000
 11
7.676607
 21
-2.925188
 31
0.000000
  0
LINE
  8
DIEM
 62
     7
  6
CONTINUOUS
 10
5.398200
 20
-0.995000
 30
0.000000
 11
5.398200
 21
-3.051070
 31
0.000000
  0
LINE
  8
DIEM
 62
     7
  6
CONTINUOUS
 10
7.773200
 20
-1.174990
 30
0.000000
 11
7.773200
 21
-3.051070
 31
0.000000
  0
TEXT
  8
DIEM
 62
     7
 10
6.240184
 20
-3.013978
 30
0.000000
 40
0.125000
  1
2 3/8"
  0
LINE
  8
DIEM
 62
     7
  6
CONTINUOUS
 10
5.398200
 20
-2.951070
 30
0.000000
 11
6.208934
 21
-2.951070
 31
0.000000
  0
LINE
  8
DIEM
 62
     7
  6
CONTINUOUS
 10
6.962465
 20
-2.951070
 30
0.000000
 11
7.773200
 21
-2.951070
 31
0.000000
  0
TEXT
  8
DIEM
 62
     7
 10
8.438229
 20
4.095827
 30
0.000000
 40
0.125000
  1
NOTE A - TAP 10-24 x 1" DEEP
  0
TEXT
  8
DIEM
 62
     7
 10
8.438229
 20
3.732057
 30
0.000000
 40
0.125000
  1
NOTE B - DRILL & TAP M10 x 1.0mm X 5/8" 
  0
TEXT
  8
DIEM
 62
     7
 10
8.438229
 20
3.544557
 30
0.000000
 40
0.125000
  1
     MINIMUM THREAD DEPTH.
  0
CIRCLE
  8
HUB
 62
     7
  6
CONTINUOUS
 10
5.908699
 20
0.670000
 30
0.000000
 40
0.864851
  0
LINE
  8
DIEM
 62
     7
  6
CONTINUOUS
 10
3.118402
 20
-0.945000
 30
0.000000
 11
3.092520
 21
-0.848407
 31
0.000000
  0
LINE
  8
DIEM
 62
     7
  6
CONTINUOUS
 10
3.118402
 20
-0.945000
 30
0.000000
 11
3.144284
 21
-0.848407
 31
0.000000
  0
LINE
  8
DIEM
 62
     7
  6
CONTINUOUS
 10
3.118402
 20
0.947000
 30
0.000000
 11
3.144284
 21
0.850407
 31
0.000000
  0
LINE
  8
DIEM
 62
     7
  6
CONTINUOUS
 10
3.118402
 20
0.947000
 30
0.000000
 11
3.092520
 21
0.850407
 31
0.000000
  0
LINE
  8
DIEM
 62
     7
  6
CONTINUOUS
 10
5.364700
 20
-0.945000
 30
0.000000
 11
3.018402
 21
-0.945000
 31
0.000000
  0
LINE
  8
DIEM
 62
     7
  6
CONTINUOUS
 10
5.364700
 20
0.947000
 30
0.000000
 11
3.018402
 21
0.947000
 31
0.000000
  0
TEXT
  8
DIEM
 62
     7
 10
2.495573
 20
-1.428009
 30
0.000000
 40
0.125000
  1
1.892"
  0
TEXT
  8
DIEM
 62
     7
 10
3.079081
 20
-1.333851
 30
0.000000
 40
0.125000
  1
+.000"
  0
TEXT
  8
DIEM
 62
     7
 10
3.079081
 20
-1.522167
 30
0.000000
 40
0.125000
  1
-.001"
  0
LINE
  8
DIEM
 62
     7
  6
CONTINUOUS
 10
3.118402
 20
-1.176895
 30
0.000000
 11
3.118402
 21
0.947000
 31
0.000000
  0
TEXT
  8
DIEM
 62
     7
 10
3.894850
 20
-1.328471
 30
0.000000
 40
0.125000
  1
LOCATING 
  0
TEXT
  8
DIEM
 62
     7
 10
3.894850
 20
-1.515972
 30
0.000000
 40
0.125000
  1
PROJECTION
  0
LINE
  8
DIEM
 62
     7
  6
CONTINUOUS
 10
3.966469
 20
-0.670000
 30
0.000000
 11
3.940587
 21
-0.573407
 31
0.000000
  0
LINE
  8
DIEM
 62
     7
  6
CONTINUOUS
 10
3.966469
 20
-0.670000
 30
0.000000
 11
3.992350
 21
-0.573407
 31
0.000000
  0
LINE
  8
DIEM
 62
     7
  6
CONTINUOUS
 10
3.966469
 20
0.670000
 30
0.000000
 11
3.992350
 21
0.573407
 31
0.000000
  0
LINE
  8
DIEM
 62
     7
  6
CONTINUOUS
 10
3.966469
 20
0.670000
 30
0.000000
 11
3.940587
 21
0.573407
 31
0.000000
  0
LINE
  8
DIEM
 62
     7
  6
CONTINUOUS
 10
5.489700
 20
-0.670000
 30
0.000000
 11
3.866469
 21
-0.670000
 31
0.000000
  0
LINE
  8
DIEM
 62
     7
  6
CONTINUOUS
 10
5.489700
 20
0.670000
 30
0.000000
 11
3.866469
 21
0.670000
 31
0.000000
  0
TEXT
  8
DIEM
 62
     7
 10
3.334821
 20
-0.350270
 30
0.000000
 40
0.125000
  1
1.340"
  0
TEXT
  8
DIEM
 62
     7
 10
3.946189
 20
-0.256222
 30
0.000000
 40
0.125000
  1
+.005"
  0
TEXT
  8
DIEM
 62
     7
 10
3.946189
 20
-0.444317
 30
0.000000
 40
0.125000
  1
-.000"
  0
LINE
  8
DIEM
 62
     7
  6
CONTINUOUS
 10
3.966469
 20
-0.670000
 30
0.000000
 11
3.966469
 21
-0.475600
 31
0.000000
  0
LINE
  8
DIEM
 62
     7
  6
CONTINUOUS
 10
3.966469
 20
-0.099345
 30
0.000000
 11
3.966469
 21
0.670000
 31
0.000000
  0
LINE
  8
DIEM
 62
     7
  6
CONTINUOUS
 10
5.398200
 20
0.416423
 30
0.000000
 11
5.301607
 21
0.390541
 31
0.000000
  0
LINE
  8
DIEM
 62
     7
  6
CONTINUOUS
 10
5.398200
 20
0.416423
 30
0.000000
 11
5.301607
 21
0.442305
 31
0.000000
  0
LINE
  8
DIEM
 62
     7
  6
CONTINUOUS
 10
5.908699
 20
0.416423
 30
0.000000
 11
6.005292
 21
0.442305
 31
0.000000
  0
LINE
  8
DIEM
 62
     7
  6
CONTINUOUS
 10
5.908699
 20
0.416423
 30
0.000000
 11
6.005292
 21
0.390541
 31
0.000000
  0
LINE
  8
DIEM
 62
     7
  6
CONTINUOUS
 10
5.398200
 20
0.897000
 30
0.000000
 11
5.398200
 21
0.316423
 31
0.000000
  0
LINE
  8
DIEM
 62
     7
  6
CONTINUOUS
 10
5.908699
 20
0.620000
 30
0.000000
 11
5.908699
 21
0.316423
 31
0.000000
  0
TEXT
  8
DIEM
 62
     7
 10
4.045153
 20
0.366158
 30
0.000000
 40
0.100000
  1
.510"
  0
TEXT
  8
DIEM
 62
     7
 10
4.412676
 20
0.447673
 30
0.000000
 40
0.100000
  1
+.005"
  0
TEXT
  8
DIEM
 62
     7
 10
4.412676
 20
0.284644
 30
0.000000
 40
0.100000
  1
-.000"
  0
LINE
  8
DIEM
 62
     7
  6
CONTINUOUS
 10
5.398200
 20
0.416423
 30
0.000000
 11
5.198200
 21
0.416423
 31
0.000000
  0
LINE
  8
DIEM
 62
     7
  6
CONTINUOUS
 10
5.908699
 20
0.416423
 30
0.000000
 11
6.108699
 21
0.416423
 31
0.000000
  0
LINE
  8
DIEM
 62
     7
  6
CONTINUOUS
 10
0.871027
 20
-0.373975
 30
0.000000
 11
0.962289
 21
-0.414857
 31
0.000000
  0
LINE
  8
DIEM
 62
     7
  6
CONTINUOUS
 10
0.871027
 20
-0.373975
 30
0.000000
 11
0.929621
 21
-0.455010
 31
0.000000
  0
LINE
  8
DIEM
 62
     7
  6
CONTINUOUS
 10
0.871027
 20
-0.373975
 30
0.000000
 11
2.672320
 21
-1.839433
 31
0.000000
  0
LINE
  8
DIEM
 62
     7
  6
CONTINUOUS
 10
2.672320
 20
-1.839433
 30
0.000000
 11
2.797320
 21
-1.839433
 31
0.000000
  0
TEXT
  8
DIEM
 62
     7
 10
2.859820
 20
-1.901933
 30
0.000000
 40
0.125000
  1
LOCATING PROJ DIA
  0
TEXT
  8
HUB
 62
     7
 10
4.827765
 20
-0.262030
 30
0.000000
 40
0.125000
  1
NOSE 
  0
TEXT
  8
HUB
 62
     7
 10
4.827765
 20
-0.449530
 30
0.000000
 40
0.125000
  1
RECESS
  0
TEXT
  8
DIEM
 62
     7
 10
8.438229
 20
3.201940
 30
0.000000
 40
0.125000
  1
NOTE C- DRILL & CNT'R BORE FOR
  0
TEXT
  8
DIEM
 62
     7
 10
8.438229
 20
3.014440
 30
0.000000
 40
0.125000
  1
10-24 SHCS. AS SHOWN IN DETAIL 'C'
  0
TEXT
  8
DIEM
 62
     7
 10
8.438229
 20
2.826940
 30
0.000000
 40
0.125000
  1
AT LEFT. 
  0
TEXT
  8
HUB
 62
     7
 10
9.191332
 20
5.631257
 30
0.000000
 40
0.125000
  1
DRAWN BY MARTY RATTAY   09/15/08
  0
CIRCLE
  8
HUB
 62
     7
  6
CONTINUOUS
 10
3.157058
 20
4.189516
 30
0.000000
 40
2.164244
  0
LINE
  8
HUB
 62
     7
  6
CONTINUOUS
 10
2.848429
 20
5.414068
 30
0.000000
 11
2.848429
 21
5.110542
 31
0.000000
  0
LINE
  8
HUB
 62
     7
  6
CONTINUOUS
 10
2.879929
 20
5.441805
 30
0.000000
 11
2.879929
 21
5.082805
 31
0.000000
  0
LINE
  8
HUB
 62
     7
  6
CONTINUOUS
 10
2.911179
 20
5.414068
 30
0.000000
 11
2.911179
 21
5.110542
 31
0.000000
  0
LINE
  8
HUB
 62
     7
  6
CONTINUOUS
 10
2.973928
 20
5.414068
 30
0.000000
 11
2.973928
 21
5.110542
 31
0.000000
  0
LINE
  8
HUB
 62
     7
  6
CONTINUOUS
 10
3.036678
 20
5.414068
 30
0.000000
 11
3.036678
 21
5.110542
 31
0.000000
  0
LINE
  8
HUB
 62
     7
  6
CONTINUOUS
 10
3.099428
 20
5.414068
 30
0.000000
 11
3.099428
 21
5.110542
 31
0.000000
  0
LINE
  8
HUB
 62
     7
  6
CONTINUOUS
 10
3.162178
 20
5.414068
 30
0.000000
 11
3.162178
 21
5.110542
 31
0.000000
  0
LINE
  8
HUB
 62
     7
  6
CONTINUOUS
 10
3.224928
 20
5.414068
 30
0.000000
 11
3.224928
 21
5.110542
 31
0.000000
  0
LINE
  8
HUB
 62
     7
  6
CONTINUOUS
 10
3.287678
 20
5.414068
 30
0.000000
 11
3.287678
 21
5.110542
 31
0.000000
  0
LINE
  8
HUB
 62
     7
  6
CONTINUOUS
 10
3.350428
 20
5.414068
 30
0.000000
 11
3.350428
 21
5.110542
 31
0.000000
  0
LINE
  8
HUB
 62
     7
  6
CONTINUOUS
 10
3.413177
 20
5.414068
 30
0.000000
 11
3.413177
 21
5.110542
 31
0.000000
  0
LINE
  8
HUB
 62
     7
  6
CONTINUOUS
 10
2.942429
 20
5.441805
 30
0.000000
 11
2.942429
 21
5.082805
 31
0.000000
  0
LINE
  8
HUB
 62
     7
  6
CONTINUOUS
 10
3.004929
 20
5.441805
 30
0.000000
 11
3.004929
 21
5.082805
 31
0.000000
  0
LINE
  8
HUB
 62
     7
  6
CONTINUOUS
 10
3.067429
 20
5.441805
 30
0.000000
 11
3.067429
 21
5.082805
 31
0.000000
  0
LINE
  8
HUB
 62
     7
  6
CONTINUOUS
 10
3.129929
 20
5.441805
 30
0.000000
 11
3.129929
 21
5.082805
 31
0.000000
  0
LINE
  8
HUB
 62
     7
  6
CONTINUOUS
 10
3.192429
 20
5.441805
 30
0.000000
 11
3.192429
 21
5.082805
 31
0.000000
  0
LINE
  8
HUB
 62
     7
  6
CONTINUOUS
 10
3.254929
 20
5.441805
 30
0.000000
 11
3.254929
 21
5.082805
 31
0.000000
  0
LINE
  8
HUB
 62
     7
  6
CONTINUOUS
 10
3.317429
 20
5.441805
 30
0.000000
 11
3.317429
 21
5.082805
 31
0.000000
  0
LINE
  8
HUB
 62
     7
  6
CONTINUOUS
 10
3.379929
 20
5.441805
 30
0.000000
 11
3.379929
 21
5.082805
 31
0.000000
  0
POINT
  8
HUB
 62
     7
 10
3.688929
 20
4.532414
 30
0.000000
  0
LINE
  8
HUB
 62
     7
  6
CONTINUOUS
 10
4.139429
 20
4.532414
 30
0.000000
 11
3.081850
 21
4.532414
 31
0.000000
  0
LINE
  8
HUB
 62
     7
  6
CONTINUOUS
 10
3.399428
 20
4.696414
 30
0.000000
 11
3.399428
 21
4.368415
 31
0.000000
  0
LINE
  8
HUB
 62
     7
  6
CONTINUOUS
 10
3.399428
 20
4.634987
 30
0.000000
 11
3.758434
 21
4.634987
 31
0.000000
  0
LINE
  8
HUB
 62
     7
  6
CONTINUOUS
 10
3.399428
 20
4.431886
 30
0.000000
 11
3.688929
 21
4.431886
 31
0.000000
  0
LINE
  8
HUB
 62
     7
  6
CONTINUOUS
 10
3.199428
 20
4.368415
 30
0.000000
 11
3.399428
 21
4.368415
 31
0.000000
  0
LINE
  8
HUB
 62
     7
  6
CONTINUOUS
 10
2.817429
 20
5.441805
 30
0.000000
 11
3.567429
 21
5.441805
 31
0.000000
  0
LINE
  8
HUB
 62
     7
  6
CONTINUOUS
 10
2.817429
 20
5.082805
 30
0.000000
 11
3.567429
 21
5.082805
 31
0.000000
  0
LINE
  8
HUB
 62
     7
  6
CONTINUOUS
 10
3.483476
 20
5.414068
 30
0.000000
 11
3.483476
 21
5.110542
 31
0.000000
  0
LINE
  8
HUB
 62
     7
  6
CONTINUOUS
 10
3.450227
 20
5.441805
 30
0.000000
 11
3.450227
 21
5.082805
 31
0.000000
  0
LINE
  8
HUB
 62
     7
  6
CONTINUOUS
 10
3.553774
 20
5.414068
 30
0.000000
 11
3.553774
 21
5.110542
 31
0.000000
  0
LINE
  8
HUB
 62
     7
  6
CONTINUOUS
 10
3.520526
 20
5.441805
 30
0.000000
 11
3.520526
 21
5.082805
 31
0.000000
  0
LINE
  8
HUB
 62
     7
  6
CONTINUOUS
 10
2.520859
 20
5.265805
 30
0.000000
 11
3.783695
 21
5.265805
 31
0.000000
  0
LINE
  8
HUB
 62
     7
  6
CONTINUOUS
 10
3.199428
 20
4.499305
 30
0.000000
 11
2.830429
 21
4.499305
 31
0.000000
  0
LINE
  8
HUB
 62
     7
  6
CONTINUOUS
 10
3.199428
 20
4.204305
 30
0.000000
 11
3.688929
 21
4.204305
 31
0.000000
  0
LINE
  8
HUB
 62
     7
  6
CONTINUOUS
 10
3.567429
 20
5.441805
 30
0.000000
 11
3.567429
 21
5.082805
 31
0.000000
  0
POINT
  8
HUB
 62
     7
 10
3.317429
 20
5.265805
 30
0.000000
  0
POINT
  8
HUB
 62
     7
 10
3.379929
 20
5.265805
 30
0.000000
  0
POINT
  8
HUB
 62
     7
 10
3.688929
 20
4.628060
 30
0.000000
  0
LINE
  8
HUB
 62
     7
  6
CONTINUOUS
 10
2.688929
 20
4.776305
 30
0.000000
 11
2.817429
 21
4.776305
 31
0.000000
  0
LINE
  8
HUB
 62
     7
  6
CONTINUOUS
 10
2.688929
 20
4.640806
 30
0.000000
 11
2.830429
 21
4.499305
 31
0.000000
  0
LINE
  8
HUB
 62
     7
  6
CONTINUOUS
 10
2.688929
 20
4.640806
 30
0.000000
 11
2.688929
 21
4.776305
 31
0.000000
  0
LINE
  8
HUB
 62
     7
  6
CONTINUOUS
 10
2.688929
 20
4.696414
 30
0.000000
 11
3.399428
 21
4.696414
 31
0.000000
  0
LINE
  8
HUB
 62
     7
  6
CONTINUOUS
 10
2.817429
 20
4.776305
 30
0.000000
 11
2.817429
 21
5.579305
 31
0.000000
  0
LINE
  8
HUB
 62
     7
  6
CONTINUOUS
 10
3.199428
 20
4.204305
 30
0.000000
 11
3.199428
 21
4.499305
 31
0.000000
  0
LINE
  8
HUB
 62
     7
  6
CONTINUOUS
 10
3.688929
 20
4.204305
 30
0.000000
 11
3.688929
 21
4.634987
 31
0.000000
  0
LINE
  8
DIEM
 62
     7
  6
CONTINUOUS
 10
2.688929
 20
3.925798
 30
0.000000
 11
2.592336
 21
3.899916
 31
0.000000
  0
LINE
  8
DIEM
 62
     7
  6
CONTINUOUS
 10
2.688929
 20
3.925798
 30
0.000000
 11
2.592336
 21
3.951680
 31
0.000000
  0
LINE
  8
DIEM
 62
     7
  6
CONTINUOUS
 10
3.399428
 20
3.925798
 30
0.000000
 11
3.496021
 21
3.951680
 31
0.000000
  0
LINE
  8
DIEM
 62
     7
  6
CONTINUOUS
 10
3.399428
 20
3.925798
 30
0.000000
 11
3.496021
 21
3.899916
 31
0.000000
  0
LINE
  8
DIEM
 62
     7
  6
CONTINUOUS
 10
2.688929
 20
4.590806
 30
0.000000
 11
2.688929
 21
3.825798
 31
0.000000
  0
LINE
  8
DIEM
 62
     7
  6
CONTINUOUS
 10
3.399428
 20
4.318415
 30
0.000000
 11
3.399428
 21
3.825798
 31
0.000000
  0
TEXT
  8
DIEM
 62
     7
 10
3.746598
 20
3.863219
 30
0.000000
 40
0.125000
  1
.71"
  0
TEXT
  8
DIEM
 62
     7
 10
4.055498
 20
3.957048
 30
0.000000
 40
0.125000
  1
+.010"
  0
TEXT
  8
DIEM
 62
     7
 10
4.055498
 20
3.769389
 30
0.000000
 40
0.125000
  1
-.010"
  0
LINE
  8
DIEM
 62
     7
  6
CONTINUOUS
 10
2.688929
 20
3.925798
 30
0.000000
 11
2.488929
 21
3.925798
 31
0.000000
  0
LINE
  8
DIEM
 62
     7
  6
CONTINUOUS
 10
3.399428
 20
3.925798
 30
0.000000
 11
3.599428
 21
3.925798
 31
0.000000
  0
LINE
  8
DIEM
 62
     7
  6
CONTINUOUS
 10
2.740522
 20
4.567216
 30
0.000000
 11
2.640534
 21
4.568803
 31
0.000000
  0
LINE
  8
DIEM
 62
     7
  6
CONTINUOUS
 10
2.740522
 20
4.567216
 30
0.000000
 11
2.654723
 21
4.618584
 31
0.000000
  0
LINE
  8
DIEM
 62
     7
  6
CONTINUOUS
 10
2.740522
 20
4.567216
 30
0.000000
 11
2.101456
 21
4.749369
 31
0.000000
  0
LINE
  8
DIEM
 62
     7
  6
CONTINUOUS
 10
2.101456
 20
4.749369
 30
0.000000
 11
1.976456
 21
4.749369
 31
0.000000
  0
TEXT
  8
DIEM
 62
     7
 10
1.150589
 20
4.699369
 30
0.000000
 40
0.100000
  1
CHAMFER
  0
TEXT
  8
DIEM
 62
     7
 10
1.150589
 20
4.549369
 30
0.000000
 40
0.100000
  1
45 DEG BY
  0
LINE
  8
DIEM
 62
     7
  6
CONTINUOUS
 10
2.688929
 20
4.385565
 30
0.000000
 11
2.592336
 21
4.359683
 31
0.000000
  0
LINE
  8
DIEM
 62
     7
  6
CONTINUOUS
 10
2.688929
 20
4.385565
 30
0.000000
 11
2.592336
 21
4.411447
 31
0.000000
  0
LINE
  8
DIEM
 62
     7
  6
CONTINUOUS
 10
2.830429
 20
4.385565
 30
0.000000
 11
2.927021
 21
4.411447
 31
0.000000
  0
LINE
  8
DIEM
 62
     7
  6
CONTINUOUS
 10
2.830429
 20
4.385565
 30
0.000000
 11
2.927021
 21
4.359683
 31
0.000000
  0
LINE
  8
DIEM
 62
     7
  6
CONTINUOUS
 10
2.688929
 20
4.590806
 30
0.000000
 11
2.688929
 21
4.285565
 31
0.000000
  0
LINE
  8
DIEM
 62
     7
  6
CONTINUOUS
 10
2.830429
 20
4.449305
 30
0.000000
 11
2.830429
 21
4.285565
 31
0.000000
  0
TEXT
  8
DIEM
 62
     7
 10
1.355484
 20
4.322843
 30
0.000000
 40
0.125000
  1
9/64"
  0
LINE
  8
DIEM
 62
     7
  6
CONTINUOUS
 10
2.688929
 20
4.385565
 30
0.000000
 11
2.488929
 21
4.385565
 31
0.000000
  0
LINE
  8
DIEM
 62
     7
  6
CONTINUOUS
 10
2.830429
 20
4.385565
 30
0.000000
 11
3.030429
 21
4.385565
 31
0.000000
  0
TEXT
  8
HUB
 62
     7
 10
2.280571
 20
2.641485
 30
0.000000
 40
0.125000
  1
DETAIL NOTE C
  0
LINE
  8
HUB
 62
     7
  6
CONTINUOUS
 10
2.230219
 20
2.549839
 30
0.000000
 11
4.022376
 21
2.549839
 31
0.000000
  0
LINE
  8
HUB
 62
     7
  6
CONTINUOUS
 10
4.119586
 20
2.251091
 30
0.000000
 11
5.249494
 21
1.241402
 31
0.000000
  0
TEXT
  8
HUB
 62
     7
 10
3.630302
 20
3.537239
 30
0.000000
 40
0.125000
  1
CNT'R BORE
  0
TEXT
  8
HUB
 62
     7
 10
3.630302
 20
3.349739
 30
0.000000
 40
0.125000
  1
DEPTH
  0
ENDSEC
  0
EOF
