  0
SECTION
  2
HEADER
  9
$ACADVER
  1
AC1009
  9
$DWGCODEPAGE
  3
ansi_1252
  9
$INSBASE
 10
0.0
 20
0.0
 30
0.0
  9
$EXTMIN
 10
1.000000000000000E+20
 20
1.000000000000000E+20
 30
1.000000000000000E+20
  9
$EXTMAX
 10
-1.000000000000000E+20
 20
-1.000000000000000E+20
 30
-1.000000000000000E+20
  9
$LIMMIN
 10
0.0
 20
0.0
  9
$LIMMAX
 10
12.0
 20
9.0
  9
$ORTHOMODE
 70
     0
  9
$REGENMODE
 70
     1
  9
$FILLMODE
 70
     1
  9
$QTEXTMODE
 70
     0
  9
$MIRRTEXT
 70
     1
  9
$DRAGMODE
 70
     2
  9
$LTSCALE
 40
1.0
  9
$OSMODE
 70
    37
  9
$ATTMODE
 70
     1
  9
$TEXTSIZE
 40
0.2
  9
$TRACEWID
 40
0.05
  9
$TEXTSTYLE
  7
STANDARD
  9
$CLAYER
  8
0
  9
$CELTYPE
  6
BYLAYER
  9
$CECOLOR
 62
   256
  9
$DIMSCALE
 40
1.0
  9
$DIMASZ
 40
0.18
  9
$DIMEXO
 40
0.0625
  9
$DIMDLI
 40
0.38
  9
$DIMRND
 40
0.0
  9
$DIMDLE
 40
0.0
  9
$DIMEXE
 40
0.18
  9
$DIMTP
 40
0.0
  9
$DIMTM
 40
0.0
  9
$DIMTXT
 40
0.18
  9
$DIMCEN
 40
0.09
  9
$DIMTSZ
 40
0.0
  9
$DIMTOL
 70
     0
  9
$DIMLIM
 70
     0
  9
$DIMTIH
 70
     1
  9
$DIMTOH
 70
     1
  9
$DIMSE1
 70
     0
  9
$DIMSE2
 70
     0
  9
$DIMTAD
 70
     0
  9
$DIMZIN
 70
     0
  9
$DIMBLK
  1

  9
$DIMASO
 70
     1
  9
$DIMSHO
 70
     1
  9
$DIMPOST
  1

  9
$DIMAPOST
  1

  9
$DIMALT
 70
     0
  9
$DIMALTD
 70
     2
  9
$DIMALTF
 40
25.4
  9
$DIMLFAC
 40
1.0
  9
$DIMTOFL
 70
     0
  9
$DIMTVP
 40
0.0
  9
$DIMTIX
 70
     0
  9
$DIMSOXD
 70
     0
  9
$DIMSAH
 70
     0
  9
$DIMBLK1
  1

  9
$DIMBLK2
  1

  9
$DIMSTYLE
  2
STANDARD
  9
$DIMCLRD
 70
     0
  9
$DIMCLRE
 70
     0
  9
$DIMCLRT
 70
     0
  9
$DIMTFAC
 40
1.0
  9
$DIMGAP
 40
0.09
  9
$LUNITS
 70
     2
  9
$LUPREC
 70
     3
  9
$SKETCHINC
 40
0.1
  9
$FILLETRAD
 40
0.5
  9
$AUNITS
 70
     0
  9
$AUPREC
 70
     0
  9
$MENU
  1
.
  9
$ELEVATION
 40
0.0
  9
$PELEVATION
 40
0.0
  9
$THICKNESS
 40
0.0
  9
$LIMCHECK
 70
     0
  9
$CHAMFERA
 40
0.5
  9
$CHAMFERB
 40
0.5
  9
$SKPOLY
 70
     0
  9
$TDCREATE
 40
2454399.506943299
  9
$TDUPDATE
 40
2454399.50694331
  9
$TDINDWG
 40
0.0000000116
  9
$TDUSRTIMER
 40
0.0000000116
  9
$USRTIMER
 70
     1
  9
$ANGBASE
 50
0.0
  9
$ANGDIR
 70
     0
  9
$PDMODE
 70
     2
  9
$PDSIZE
 40
-2.0
  9
$PLINEWID
 40
0.0
  9
$COORDS
 70
     1
  9
$SPLFRAME
 70
     0
  9
$SPLINETYPE
 70
     6
  9
$SPLINESEGS
 70
     8
  9
$ATTDIA
 70
     0
  9
$ATTREQ
 70
     1
  9
$HANDLING
 70
     1
  9
$HANDSEED
  5
239
  9
$SURFTAB1
 70
     6
  9
$SURFTAB2
 70
     6
  9
$SURFTYPE
 70
     6
  9
$SURFU
 70
     6
  9
$SURFV
 70
     6
  9
$UCSNAME
  2

  9
$UCSORG
 10
0.0
 20
0.0
 30
0.0
  9
$UCSXDIR
 10
1.0
 20
0.0
 30
0.0
  9
$UCSYDIR
 10
0.0
 20
1.0
 30
0.0
  9
$PUCSNAME
  2

  9
$PUCSORG
 10
0.0
 20
0.0
 30
0.0
  9
$PUCSXDIR
 10
1.0
 20
0.0
 30
0.0
  9
$PUCSYDIR
 10
0.0
 20
1.0
 30
0.0
  9
$USERI1
 70
     0
  9
$USERI2
 70
     0
  9
$USERI3
 70
     0
  9
$USERI4
 70
     0
  9
$USERI5
 70
     0
  9
$USERR1
 40
0.0
  9
$USERR2
 40
0.0
  9
$USERR3
 40
0.0
  9
$USERR4
 40
0.0
  9
$USERR5
 40
0.0
  9
$WORLDVIEW
 70
     1
  9
$SHADEDGE
 70
     3
  9
$SHADEDIF
 70
    70
  9
$TILEMODE
 70
     1
  9
$MAXACTVP
 70
    64
  9
$PLIMCHECK
 70
     0
  9
$PEXTMIN
 10
1.000000000000000E+20
 20
1.000000000000000E+20
 30
1.000000000000000E+20
  9
$PEXTMAX
 10
-1.000000000000000E+20
 20
-1.000000000000000E+20
 30
-1.000000000000000E+20
  9
$PLIMMIN
 10
0.0
 20
0.0
  9
$PLIMMAX
 10
12.0
 20
9.0
  9
$UNITMODE
 70
     0
  9
$VISRETAIN
 70
     1
  9
$PLINEGEN
 70
     0
  9
$PSLTSCALE
 70
     1
  0
ENDSEC
  0
SECTION
  2
TABLES
  0
TABLE
  2
VPORT
 70
     1
  0
VPORT
  2
*ACTIVE
 70
     0
 10
0.0
 20
0.0
 11
1.0
 21
1.0
 12
10.42990654205607
 22
4.5
 13
0.0
 23
0.0
 14
0.5
 24
0.5
 15
0.5
 25
0.5
 16
0.0
 26
0.0
 36
1.0
 17
0.0
 27
0.0
 37
0.0
 40
9.0
 41
1.972972972850329
 42
50.0
 43
0.0
 44
0.0
 50
0.0
 51
0.0
 71
     0
 72
   100
 73
     1
 74
     3
 75
     0
 76
     0
 77
     0
 78
     0
  0
ENDTAB
  0
TABLE
  2
LTYPE
 70
     2
  0
LTYPE
  2
CONTINUOUS
 70
     0
  3
Solid line
 72
    65
 73
     0
 40
0.0
  0
LTYPE
  2
GC___6
 70
     0
  3
_____  _  __________  _  _____
 72
    65
 73
     4
 40
0.5
 49
0.3
 49
-0.075
 49
0.05
 49
-0.075
  0
ENDTAB
  0
TABLE
  2
LAYER
 70
     7
  0
LAYER
  2
0
 70
     0
 62
     7
  6
CONTINUOUS
  0
LAYER
  2
BORDER
 70
     0
 62
     7
  6
CONTINUOUS
  0
LAYER
  2
BUSHDIME
 70
     0
 62
     7
  6
CONTINUOUS
  0
LAYER
  2
CNTRLINE
 70
     0
 62
     7
  6
CONTINUOUS
  0
LAYER
  2
DIEM
 70
     0
 62
     7
  6
CONTINUOUS
  0
LAYER
  2
HUBFT
 70
     0
 62
     7
  6
CONTINUOUS
  0
LAYER
  2
HUB2
 70
     0
 62
     7
  6
CONTINUOUS
  0
ENDTAB
  0
TABLE
  2
STYLE
 70
     2
  0
STYLE
  2
STANDARD
 70
     0
 40
0.0
 41
1.0
 50
0.0
 71
     0
 42
0.2
  3
txt
  4

  0
STYLE
  2
ENGINEER
 70
     0
 40
0.2
 41
1.0
 50
0.0
 71
     0
 42
0.2
  3
ENGINEER.SHX
  4

  0
ENDTAB
  0
TABLE
  2
VIEW
 70
     0
  0
ENDTAB
  0
TABLE
  2
UCS
 70
     0
  0
ENDTAB
  0
TABLE
  2
APPID
 70
     1
  0
APPID
  2
ACAD
 70
     0
  0
ENDTAB
  0
TABLE
  2
DIMSTYLE
 70
     1
  0
DIMSTYLE
  2
STANDARD
 70
     0
  3

  4

  5

  6

  7

 40
1.0
 41
0.18
 42
0.0625
 43
0.38
 44
0.18
 45
0.0
 46
0.0
 47
0.0
 48
0.0
140
0.18
141
0.09
142
0.0
143
25.4
144
1.0
145
0.0
146
1.0
147
0.09
 71
     0
 72
     0
 73
     1
 74
     1
 75
     0
 76
     0
 77
     0
 78
     0
170
     0
171
     2
172
     0
173
     0
174
     0
175
     0
176
     0
177
     0
178
     0
  0
ENDTAB
  0
ENDSEC
  0
SECTION
  2
BLOCKS
  0
BLOCK
  8
0
  2
$MODEL_SPACE
 70
     0
 10
0.0
 20
0.0
 30
0.0
  3
$MODEL_SPACE
  1

  0
ENDBLK
  5
21
  8
0
  0
BLOCK
 67
     1
  8
0
  2
$PAPER_SPACE
 70
     0
 10
0.0
 20
0.0
 30
0.0
  3
$PAPER_SPACE
  1

  0
ENDBLK
  5
1D
 67
     1
  8
0
  0
BLOCK
  8
0
  2
*X1
 70
     1
 10
0.0
 20
0.0
 30
0.0
  3
*X1
  1

  0
LINE
  5
1C8
  8
HUB2
  6
CONTINUOUS
 62
    93
 10
9.025585174560547
 20
5.49005126862781
 30
0.0
 11
9.027951156497652
 21
5.492417250564914
 31
0.0
  0
LINE
  5
1C9
  8
HUB2
  6
CONTINUOUS
 62
    93
 10
9.025585174560547
 20
5.401662920979492
 30
0.0
 11
9.116339504145969
 21
5.492417250564914
 31
0.0
  0
LINE
  5
1CA
  8
HUB2
  6
CONTINUOUS
 62
    93
 10
9.040618621752786
 20
5.328308020523411
 30
0.0
 11
9.204727851794289
 21
5.492417250564914
 31
0.0
  0
LINE
  5
1CB
  8
HUB2
  6
CONTINUOUS
 62
    93
 10
9.213085174560547
 20
5.500774573331173
 30
0.0
 11
9.268199645922708
 21
5.555889044693333
 31
0.0
  0
LINE
  5
1CC
  8
HUB2
  6
CONTINUOUS
 62
    93
 10
9.129006969401104
 20
5.328308020523411
 30
0.0
 11
9.356587993571026
 21
5.555889044693333
 31
0.0
  0
LINE
  5
1CD
  8
HUB2
  6
CONTINUOUS
 62
    93
 10
9.217395317049423
 20
5.328308020523411
 30
0.0
 11
9.444976341219345
 21
5.555889044693333
 31
0.0
  0
LINE
  5
1CE
  8
HUB2
  6
CONTINUOUS
 62
    93
 10
9.305783664697742
 20
5.328308020523411
 30
0.0
 11
9.533364688867662
 21
5.555889044693333
 31
0.0
  0
LINE
  5
1CF
  8
HUB2
  6
CONTINUOUS
 62
    93
 10
9.39417201234606
 20
5.328308020523412
 30
0.0
 11
9.621753036515981
 21
5.555889044693332
 31
0.0
  0
LINE
  5
1D0
  8
HUB2
  6
CONTINUOUS
 62
    93
 10
9.482560359994377
 20
5.328308020523411
 30
0.0
 11
9.710141384164299
 21
5.555889044693333
 31
0.0
  0
LINE
  5
1D1
  8
HUB2
  6
CONTINUOUS
 62
    93
 10
9.570948707642696
 20
5.328308020523412
 30
0.0
 11
9.798529731812618
 21
5.555889044693334
 31
0.0
  0
LINE
  5
1D2
  8
HUB2
  6
CONTINUOUS
 62
    93
 10
9.659337055291015
 20
5.328308020523411
 30
0.0
 11
9.886918079460937
 21
5.555889044693333
 31
0.0
  0
LINE
  5
1D3
  8
HUB2
  6
CONTINUOUS
 62
    93
 10
9.747725402939331
 20
5.32830802052341
 30
0.0
 11
9.953085422515869
 21
5.533668040099948
 31
0.0
  0
LINE
  5
1D4
  8
HUB2
  6
CONTINUOUS
 62
    93
 10
9.83611375058765
 20
5.32830802052341
 30
0.0
 11
9.953085422515869
 21
5.44527969245163
 31
0.0
  0
LINE
  5
1D5
  8
HUB2
  6
CONTINUOUS
 62
    93
 10
9.924502098235969
 20
5.32830802052341
 30
0.0
 11
9.953085422515869
 21
5.356891344803311
 31
0.0
  0
ENDBLK
  5
1D7
  8
0
  0
BLOCK
  8
0
  2
*X2
 70
     1
 10
0.0
 20
0.0
 30
0.0
  3
*X2
  1

  0
LINE
  5
1D9
  8
HUB2
  6
CONTINUOUS
 62
    93
 10
9.213585376739504
 20
6.827099990234905
 30
0.0
 11
9.27729340702801
 21
6.890808020523411
 31
0.0
  0
LINE
  5
1DA
  8
HUB2
  6
CONTINUOUS
 62
    93
 10
9.213585376739502
 20
6.738711642586586
 30
0.0
 11
9.365681754676327
 21
6.890808020523411
 31
0.0
  0
LINE
  5
1DB
  8
HUB2
  6
CONTINUOUS
 62
    93
 10
9.213585376739502
 20
6.650323294938268
 30
0.0
 11
9.454070102324645
 21
6.890808020523412
 31
0.0
  0
LINE
  5
1DC
  8
HUB2
  6
CONTINUOUS
 62
    93
 10
9.217457687033511
 20
6.565807257583957
 30
0.0
 11
9.542458449972964
 21
6.890808020523412
 31
0.0
  0
LINE
  5
1DD
  8
HUB2
  6
CONTINUOUS
 62
    93
 10
9.305846034681828
 20
6.565807257583957
 30
0.0
 11
9.630846797621283
 21
6.89080802052341
 31
0.0
  0
LINE
  5
1DE
  8
HUB2
  6
CONTINUOUS
 62
    93
 10
9.394234382330147
 20
6.565807257583958
 30
0.0
 11
9.719235145269602
 21
6.890808020523411
 31
0.0
  0
LINE
  5
1DF
  8
HUB2
  6
CONTINUOUS
 62
    93
 10
9.482622729978464
 20
6.565807257583958
 30
0.0
 11
9.807623492917919
 21
6.890808020523411
 31
0.0
  0
LINE
  5
1E0
  8
HUB2
  6
CONTINUOUS
 62
    93
 10
9.571011077626784
 20
6.565807257583957
 30
0.0
 11
9.838585376739502
 21
6.833381556696676
 31
0.0
  0
LINE
  5
1E1
  8
HUB2
  6
CONTINUOUS
 62
    93
 10
9.659399425275103
 20
6.565807257583957
 30
0.0
 11
9.838585376739502
 21
6.744993209048356
 31
0.0
  0
LINE
  5
1E2
  8
HUB2
  6
CONTINUOUS
 62
    93
 10
9.747787772923422
 20
6.565807257583957
 30
0.0
 11
9.838585376739502
 21
6.656604861400039
 31
0.0
  0
LINE
  5
1E3
  8
HUB2
  6
CONTINUOUS
 62
    93
 10
9.836176120571741
 20
6.565807257583958
 30
0.0
 11
9.838585376739504
 21
6.568216513751721
 31
0.0
  0
ENDBLK
  5
1E5
  8
0
  0
BLOCK
  8
0
  2
*X3
 70
     1
 10
0.0
 20
0.0
 30
0.0
  3
*X3
  1

  0
ENDBLK
  5
1E8
  8
0
  0
BLOCK
  8
0
  2
*X4
 70
     1
 10
0.0
 20
0.0
 30
0.0
  3
*X4
  1

  0
LINE
  5
1EA
  8
HUB2
  6
CONTINUOUS
 62
    93
 10
9.025585174560547
 20
4.517779444496307
 30
0.0
 11
9.086113273750494
 21
4.578307543686252
 31
0.0
  0
LINE
  5
1EB
  8
HUB2
  6
CONTINUOUS
 62
    93
 10
9.025585174560547
 20
4.429391096847989
 30
0.0
 11
9.174501621398811
 21
4.578307543686253
 31
0.0
  0
LINE
  5
1EC
  8
HUB2
  6
CONTINUOUS
 62
    93
 10
9.025585174560547
 20
4.341002749199671
 30
0.0
 11
9.26288996904713
 21
4.578307543686252
 31
0.0
  0
LINE
  5
1ED
  8
HUB2
  6
CONTINUOUS
 62
    93
 10
9.025585174560547
 20
4.252614401551353
 30
0.0
 11
9.351278316695447
 21
4.578307543686253
 31
0.0
  0
LINE
  5
1EE
  8
HUB2
  6
CONTINUOUS
 62
    93
 10
9.025585174560547
 20
4.164226053903033
 30
0.0
 11
9.439666664343767
 21
4.578307543686253
 31
0.0
  0
LINE
  5
1EF
  8
HUB2
  6
CONTINUOUS
 62
    93
 10
9.025585174560547
 20
4.075837706254715
 30
0.0
 11
9.528055011992086
 21
4.578307543686252
 31
0.0
  0
LINE
  5
1F0
  8
HUB2
  6
CONTINUOUS
 62
    93
 10
9.046443836477563
 20
4.008308020523412
 30
0.0
 11
9.616443359640403
 21
4.578307543686253
 31
0.0
  0
LINE
  5
1F1
  8
HUB2
  6
CONTINUOUS
 62
    93
 10
9.13483218412588
 20
4.008308020523412
 30
0.0
 11
9.704831707288722
 21
4.578307543686252
 31
0.0
  0
LINE
  5
1F2
  8
HUB2
  6
CONTINUOUS
 62
    93
 10
9.213585376739502
 20
3.998672865488715
 30
0.0
 11
9.79322005493704
 21
4.578307543686253
 31
0.0
  0
LINE
  5
1F3
  8
HUB2
  6
CONTINUOUS
 62
    93
 10
9.213585376739502
 20
3.910284517840396
 30
0.0
 11
9.881608402585359
 21
4.578307543686253
 31
0.0
  0
LINE
  5
1F4
  8
HUB2
  6
CONTINUOUS
 62
    93
 10
9.213585376739502
 20
3.821896170192078
 30
0.0
 11
9.953085422515867
 21
4.561396215968443
 31
0.0
  0
LINE
  5
1F5
  8
HUB2
  6
CONTINUOUS
 62
    93
 10
9.213585376739502
 20
3.73350782254376
 30
0.0
 11
9.953085422515869
 21
4.473007868320125
 31
0.0
  0
LINE
  5
1F6
  8
HUB2
  6
CONTINUOUS
 62
    93
 10
9.213585376739502
 20
3.645119474895441
 30
0.0
 11
9.953085422515869
 21
4.384619520671807
 31
0.0
  0
LINE
  5
1F7
  8
HUB2
  6
CONTINUOUS
 62
    93
 10
9.213585376739502
 20
3.556731127247122
 30
0.0
 11
9.953085422515867
 21
4.296231173023489
 31
0.0
  0
LINE
  5
1F8
  8
HUB2
  6
CONTINUOUS
 62
    93
 10
9.213585376739502
 20
3.468342779598804
 30
0.0
 11
9.953085422515869
 21
4.207842825375169
 31
0.0
  0
LINE
  5
1F9
  8
HUB2
  6
CONTINUOUS
 62
    93
 10
9.213585376739502
 20
3.379954431950485
 30
0.0
 11
9.983870698493728
 21
4.150239753704712
 31
0.0
  0
LINE
  5
1FA
  8
HUB2
  6
CONTINUOUS
 62
    93
 10
9.213585376739502
 20
3.291566084302168
 30
0.0
 11
10.06424854913084
 21
4.142229256693506
 31
0.0
  0
LINE
  5
1FB
  8
HUB2
  6
CONTINUOUS
 62
    93
 10
9.213585376739502
 20
3.203177736653849
 30
0.0
 11
9.838585376739502
 21
3.828177736653848
 31
0.0
  0
LINE
  5
1FC
  8
HUB2
  6
CONTINUOUS
 62
    93
 10
9.213585376739502
 20
3.11478938900553
 30
0.0
 11
9.838585376739502
 21
3.739789389005529
 31
0.0
  0
LINE
  5
1FD
  8
HUB2
  6
CONTINUOUS
 62
    93
 10
9.213585376739502
 20
3.026401041357212
 30
0.0
 11
9.838585376739502
 21
3.65140104135721
 31
0.0
  0
LINE
  5
1FE
  8
HUB2
  6
CONTINUOUS
 62
    93
 10
9.838725197352229
 20
3.828317557266575
 30
0.0
 11
10.14462639976795
 21
4.1342187596823
 31
0.0
  0
LINE
  5
1FF
  8
HUB2
  6
CONTINUOUS
 62
    93
 10
9.927113545000546
 20
3.828317557266575
 30
0.0
 11
10.22500425040507
 21
4.126208262671094
 31
0.0
  0
LINE
  5
200
  8
HUB2
  6
CONTINUOUS
 62
    93
 10
10.01550189264887
 20
3.828317557266574
 30
0.0
 11
10.30538210104218
 21
4.118197765659888
 31
0.0
  0
LINE
  5
201
  8
HUB2
  6
CONTINUOUS
 62
    93
 10
9.291380703554019
 20
3.01580802052341
 30
0.0
 11
9.8385853767395
 21
3.563012693708892
 31
0.0
  0
LINE
  5
202
  8
HUB2
  6
CONTINUOUS
 62
    93
 10
9.379769051202338
 20
3.01580802052341
 30
0.0
 11
9.838585376739502
 21
3.474624346060574
 31
0.0
  0
LINE
  5
203
  8
HUB2
  6
CONTINUOUS
 62
    93
 10
9.468157398850657
 20
3.015808020523411
 30
0.0
 11
9.838585376739502
 21
3.386235998412256
 31
0.0
  0
LINE
  5
204
  8
HUB2
  6
CONTINUOUS
 62
    93
 10
9.556545746498975
 20
3.01580802052341
 30
0.0
 11
9.838585376739502
 21
3.297847650763937
 31
0.0
  0
LINE
  5
205
  8
HUB2
  6
CONTINUOUS
 62
    93
 10
9.644934094147292
 20
3.015808020523411
 30
0.0
 11
9.838585376739502
 21
3.209459303115618
 31
0.0
  0
LINE
  5
206
  8
HUB2
  6
CONTINUOUS
 62
    93
 10
9.733322441795611
 20
3.01580802052341
 30
0.0
 11
9.8385853767395
 21
3.1210709554673
 31
0.0
  0
LINE
  5
207
  8
HUB2
  6
CONTINUOUS
 62
    93
 10
9.82171078944393
 20
3.01580802052341
 30
0.0
 11
9.838585376739502
 21
3.032682607818981
 31
0.0
  0
LINE
  5
208
  8
HUB2
  6
CONTINUOUS
 62
    93
 10
10.10389024029718
 20
3.828317557266575
 30
0.0
 11
10.38575995167929
 21
4.110187268648684
 31
0.0
  0
LINE
  5
209
  8
HUB2
  6
CONTINUOUS
 62
    93
 10
10.1922785879455
 20
3.828317557266574
 30
0.0
 11
10.4661378023164
 21
4.102176771637478
 31
0.0
  0
LINE
  5
20A
  8
HUB2
  6
CONTINUOUS
 62
    93
 10
10.28066693559382
 20
3.828317557266575
 30
0.0
 11
10.54651565295352
 21
4.094166274626272
 31
0.0
  0
LINE
  5
20B
  8
HUB2
  6
CONTINUOUS
 62
    93
 10
10.36905528324214
 20
3.828317557266575
 30
0.0
 11
10.62689350359063
 21
4.086155777615065
 31
0.0
  0
LINE
  5
20C
  8
HUB2
  6
CONTINUOUS
 62
    93
 10
10.45744363089046
 20
3.828317557266575
 30
0.0
 11
10.70727135422774
 21
4.078145280603859
 31
0.0
  0
LINE
  5
20D
  8
HUB2
  6
CONTINUOUS
 62
    93
 10
10.54583197853878
 20
3.828317557266575
 30
0.0
 11
10.78764920486485
 21
4.070134783592653
 31
0.0
  0
LINE
  5
20E
  8
HUB2
  6
CONTINUOUS
 62
    93
 10
10.63422032618709
 20
3.828317557266574
 30
0.0
 11
10.86802705550197
 21
4.062124286581447
 31
0.0
  0
LINE
  5
20F
  8
HUB2
  6
CONTINUOUS
 62
    93
 10
10.72260867383541
 20
3.828317557266576
 30
0.0
 11
10.94840490613908
 21
4.054113789570243
 31
0.0
  0
LINE
  5
210
  8
HUB2
  6
CONTINUOUS
 62
    93
 10
10.81099702148373
 20
3.828317557266576
 30
0.0
 11
11.02878275677619
 21
4.046103292559037
 31
0.0
  0
LINE
  5
211
  8
HUB2
  6
CONTINUOUS
 62
    93
 10
10.89938536913205
 20
3.828317557266577
 30
0.0
 11
11.10916060741331
 21
4.038092795547831
 31
0.0
  0
LINE
  5
212
  8
HUB2
  6
CONTINUOUS
 62
    93
 10
10.98777371678037
 20
3.828317557266576
 30
0.0
 11
11.18953845805042
 21
4.030082298536625
 31
0.0
  0
LINE
  5
213
  8
HUB2
  6
CONTINUOUS
 62
    93
 10
11.07616206442869
 20
3.828317557266576
 30
0.0
 11
11.26991630868753
 21
4.022071801525419
 31
0.0
  0
LINE
  5
214
  8
HUB2
  6
CONTINUOUS
 62
    93
 10
11.16455041207701
 20
3.828317557266576
 30
0.0
 11
11.34526491165161
 21
4.009032056841182
 31
0.0
  0
LINE
  5
215
  8
HUB2
  6
CONTINUOUS
 62
    93
 10
11.25293875972533
 20
3.828317557266576
 30
0.0
 11
11.34526491165161
 21
3.920643709192863
 31
0.0
  0
LINE
  5
216
  8
HUB2
  6
CONTINUOUS
 62
    93
 10
11.34132710737364
 20
3.828317557266577
 30
0.0
 11
11.34526491165161
 21
3.832255361544544
 31
0.0
  0
ENDBLK
  5
218
  8
0
  0
BLOCK
  8
0
  2
*X5
 70
     1
 10
0.0
 20
0.0
 30
0.0
  3
*X5
  1

  0
LINE
  5
21A
  8
HUB2
  6
CONTINUOUS
 62
    93
 10
9.213585376739502
 20
6.119993209048357
 30
0.0
 11
9.300400172955767
 21
6.206808005264621
 31
0.0
  0
LINE
  5
21B
  8
HUB2
  6
CONTINUOUS
 62
    93
 10
9.025585174560547
 20
5.843604659221082
 30
0.0
 11
9.080288535862874
 21
5.898308020523411
 31
0.0
  0
LINE
  5
21C
  8
HUB2
  6
CONTINUOUS
 62
    93
 10
9.213585376739502
 20
6.031604861400039
 30
0.0
 11
9.388788520604086
 21
6.206808005264621
 31
0.0
  0
LINE
  5
21D
  8
HUB2
  6
CONTINUOUS
 62
    93
 10
9.090785705380089
 20
5.820416842392307
 30
0.0
 11
9.168676883511193
 21
5.898308020523412
 31
0.0
  0
LINE
  5
21E
  8
HUB2
  6
CONTINUOUS
 62
    93
 10
9.213585376739502
 20
5.943216513751721
 30
0.0
 11
9.477176868252403
 21
6.206808005264622
 31
0.0
  0
LINE
  5
21F
  8
HUB2
  6
CONTINUOUS
 62
    93
 10
9.179174053028406
 20
5.820416842392307
 30
0.0
 11
9.565565215900723
 21
6.206808005264621
 31
0.0
  0
LINE
  5
220
  8
HUB2
  6
CONTINUOUS
 62
    93
 10
9.213085174560547
 20
5.765939616276128
 30
0.0
 11
9.65395356354904
 21
6.206808005264622
 31
0.0
  0
LINE
  5
221
  8
HUB2
  6
CONTINUOUS
 62
    93
 10
9.294523155093845
 20
5.758989249161107
 30
0.0
 11
9.742341911197359
 21
6.206808005264621
 31
0.0
  0
LINE
  5
222
  8
HUB2
  6
CONTINUOUS
 62
    93
 10
9.382911502742163
 20
5.758989249161107
 30
0.0
 11
9.830730258845678
 21
6.206808005264621
 31
0.0
  0
LINE
  5
223
  8
HUB2
  6
CONTINUOUS
 62
    93
 10
9.471299850390482
 20
5.758989249161107
 30
0.0
 11
9.838585376739502
 21
6.126274775510129
 31
0.0
  0
LINE
  5
224
  8
HUB2
  6
CONTINUOUS
 62
    93
 10
9.559688198038799
 20
5.758989249161107
 30
0.0
 11
9.879006969401104
 21
6.078308020523411
 31
0.0
  0
LINE
  5
225
  8
HUB2
  6
CONTINUOUS
 62
    93
 10
9.648076545687118
 20
5.758989249161107
 30
0.0
 11
9.967395317049421
 21
6.078308020523412
 31
0.0
  0
LINE
  5
226
  8
HUB2
  6
CONTINUOUS
 62
    93
 10
9.736464893335437
 20
5.758989249161107
 30
0.0
 11
10.05578366469774
 21
6.07830802052341
 31
0.0
  0
LINE
  5
227
  8
HUB2
  6
CONTINUOUS
 62
    93
 10
9.824853240983755
 20
5.758989249161107
 30
0.0
 11
10.14417201234606
 21
6.07830802052341
 31
0.0
  0
LINE
  5
228
  8
HUB2
  6
CONTINUOUS
 62
    93
 10
9.913241588632072
 20
5.758989249161107
 30
0.0
 11
10.23256035999438
 21
6.078308020523411
 31
0.0
  0
LINE
  5
229
  8
HUB2
  6
CONTINUOUS
 62
    93
 10
10.00162993628039
 20
5.758989249161107
 30
0.0
 11
10.3209487076427
 21
6.078308020523412
 31
0.0
  0
LINE
  5
22A
  8
HUB2
  6
CONTINUOUS
 62
    93
 10
10.09748194739138
 20
5.766452912623776
 30
0.0
 11
10.40933705529101
 21
6.078308020523412
 31
0.0
  0
LINE
  5
22B
  8
HUB2
  6
CONTINUOUS
 62
    93
 10
10.19565422771205
 20
5.776236845296128
 30
0.0
 11
10.49772540293933
 21
6.07830802052341
 31
0.0
  0
LINE
  5
22C
  8
HUB2
  6
CONTINUOUS
 62
    93
 10
10.29382650803272
 20
5.786020777968481
 30
0.0
 11
10.58611375058765
 21
6.07830802052341
 31
0.0
  0
LINE
  5
22D
  8
HUB2
  6
CONTINUOUS
 62
    93
 10
10.39199878835339
 20
5.795804710640835
 30
0.0
 11
10.67450209823597
 21
6.078308020523411
 31
0.0
  0
LINE
  5
22E
  8
HUB2
  6
CONTINUOUS
 62
    93
 10
10.49017106867406
 20
5.805588643313188
 30
0.0
 11
10.76289044588429
 21
6.078308020523412
 31
0.0
  0
LINE
  5
22F
  8
HUB2
  6
CONTINUOUS
 62
    93
 10
10.58834334899473
 20
5.81537257598554
 30
0.0
 11
10.85127879353261
 21
6.078308020523412
 31
0.0
  0
LINE
  5
230
  8
HUB2
  6
CONTINUOUS
 62
    93
 10
10.68651562931541
 20
5.825156508657893
 30
0.0
 11
10.93966714118093
 21
6.07830802052341
 31
0.0
  0
LINE
  5
231
  8
HUB2
  6
CONTINUOUS
 62
    93
 10
10.78468790963608
 20
5.834940441330245
 30
0.0
 11
11.02805548882924
 21
6.07830802052341
 31
0.0
  0
LINE
  5
232
  8
HUB2
  6
CONTINUOUS
 62
    93
 10
10.88286018995675
 20
5.844724374002598
 30
0.0
 11
11.11644383647756
 21
6.078308020523411
 31
0.0
  0
LINE
  5
233
  8
HUB2
  6
CONTINUOUS
 62
    93
 10
10.98103247027742
 20
5.854508306674951
 30
0.0
 11
11.20483218412588
 21
6.078308020523412
 31
0.0
  0
LINE
  5
234
  8
HUB2
  6
CONTINUOUS
 62
    93
 10
11.07920475059809
 20
5.864292239347304
 30
0.0
 11
11.2932205317742
 21
6.078308020523412
 31
0.0
  0
LINE
  5
235
  8
HUB2
  6
CONTINUOUS
 62
    93
 10
11.17737703091876
 20
5.874076172019652
 30
0.0
 11
11.34526491165161
 21
6.041964052752507
 31
0.0
  0
LINE
  5
236
  8
HUB2
  6
CONTINUOUS
 62
    93
 10
11.27554931123943
 20
5.883860104692005
 30
0.0
 11
11.34526491165161
 21
5.953575705104187
 31
0.0
  0
ENDBLK
  5
238
  8
0
  0
ENDSEC
  0
SECTION
  2
ENTITIES
  0
LINE
  5
2A
  8
BORDER
  6
CONTINUOUS
 62
    93
 10
17.78826522827148
 20
11.12176322937012
 30
0.0
 11
17.78826522827148
 21
1.121763467788696
 31
0.0
  0
LINE
  5
2C
  8
BORDER
  6
CONTINUOUS
 62
    93
 10
17.78826522827148
 20
11.12176322937012
 30
0.0
 11
5.327601432800293
 21
11.12176322937012
 31
0.0
  0
LINE
  5
2D
  8
BORDER
  6
CONTINUOUS
 62
    93
 10
17.78826522827148
 20
1.121763467788696
 30
0.0
 11
5.327601432800293
 21
1.121763467788696
 31
0.0
  0
POINT
  5
2E
  8
BUSHDIME
  6
CONTINUOUS
 62
    93
 10
14.84526538848877
 20
4.953076362609863
 30
0.0
  0
POINT
  5
30
  8
BUSHDIME
  6
CONTINUOUS
 62
    93
 10
14.84526538848877
 20
4.953076362609863
 30
0.0
  0
LINE
  5
31
  8
BUSHDIME
  6
CONTINUOUS
 62
    93
 10
14.84526538848877
 20
4.953076362609863
 30
0.0
 11
14.84526538848877
 21
4.140576362609863
 31
0.0
  0
POINT
  5
32
  8
BUSHDIME
  6
CONTINUOUS
 62
    93
 10
15.97058582305908
 20
5.656184196472168
 30
0.0
  0
POINT
  5
33
  8
BUSHDIME
  6
CONTINUOUS
 62
    93
 10
15.97058582305908
 20
5.656184196472168
 30
0.0
  0
POINT
  5
34
  8
BUSHDIME
  6
CONTINUOUS
 62
    93
 10
15.97059345245361
 20
5.656184196472168
 30
0.0
  0
POINT
  5
35
  8
BUSHDIME
  6
CONTINUOUS
 62
    93
 10
15.97059345245361
 20
5.656184196472168
 30
0.0
  0
POINT
  5
36
  8
BUSHDIME
  6
CONTINUOUS
 62
    93
 10
14.84412479400635
 20
5.657103538513184
 30
0.0
  0
POINT
  5
37
  8
BUSHDIME
  6
CONTINUOUS
 62
    93
 10
14.96912479400635
 20
5.657103538513184
 30
0.0
  0
POINT
  5
38
  8
BUSHDIME
  6
CONTINUOUS
 62
    93
 10
15.09412479400635
 20
5.657103538513184
 30
0.0
  0
POINT
  5
39
  8
BUSHDIME
  6
CONTINUOUS
 62
    93
 10
15.09412479400635
 20
5.657103538513184
 30
0.0
  0
LINE
  5
3A
  8
BUSHDIME
  6
GC___6
 62
    93
 10
14.96912479400635
 20
5.657103538513184
 30
0.0
 11
14.96912479400635
 21
5.711803436279297
 31
0.0
  0
LINE
  5
3C
  8
BUSHDIME
  6
GC___6
 62
    93
 10
14.96912479400635
 20
5.657103538513184
 30
0.0
 11
14.96912479400635
 21
5.60240364074707
 31
0.0
  0
LINE
  5
3D
  8
BUSHDIME
  6
GC___6
 62
    93
 10
15.09412479400635
 20
5.657103538513184
 30
0.0
 11
15.09412479400635
 21
5.743490219116211
 31
0.0
  0
LINE
  5
3E
  8
BUSHDIME
  6
GC___6
 62
    93
 10
15.09412479400635
 20
5.657103538513184
 30
0.0
 11
15.09412479400635
 21
5.570717811584473
 31
0.0
  0
POINT
  5
3F
  8
BUSHDIME
  6
CONTINUOUS
 62
    93
 10
15.34412479400635
 20
5.657103538513184
 30
0.0
  0
POINT
  5
40
  8
BUSHDIME
  6
CONTINUOUS
 62
    93
 10
15.21912479400635
 20
5.657103538513184
 30
0.0
  0
POINT
  5
41
  8
BUSHDIME
  6
CONTINUOUS
 62
    93
 10
15.21912479400635
 20
5.657103538513184
 30
0.0
  0
LINE
  5
42
  8
BUSHDIME
  6
GC___6
 62
    93
 10
15.21912479400635
 20
5.657103538513184
 30
0.0
 11
15.21912479400635
 21
5.711803436279297
 31
0.0
  0
LINE
  5
43
  8
BUSHDIME
  6
GC___6
 62
    93
 10
15.21912479400635
 20
5.657103538513184
 30
0.0
 11
15.21912479400635
 21
5.60240364074707
 31
0.0
  0
POINT
  5
44
  8
BUSHDIME
  6
CONTINUOUS
 62
    93
 10
15.46912479400635
 20
5.657103538513184
 30
0.0
  0
LINE
  5
45
  8
BUSHDIME
  6
GC___6
 62
    93
 10
15.46912479400635
 20
5.657103538513184
 30
0.0
 11
15.46912479400635
 21
5.711803436279297
 31
0.0
  0
LINE
  5
46
  8
BUSHDIME
  6
GC___6
 62
    93
 10
15.46912479400635
 20
5.657103538513184
 30
0.0
 11
15.46912479400635
 21
5.60240364074707
 31
0.0
  0
POINT
  5
47
  8
BUSHDIME
  6
CONTINUOUS
 62
    93
 10
15.71912479400635
 20
5.657103538513184
 30
0.0
  0
LINE
  5
48
  8
BUSHDIME
  6
GC___6
 62
    93
 10
15.71912479400635
 20
5.657103538513184
 30
0.0
 11
15.71912479400635
 21
5.711803436279297
 31
0.0
  0
LINE
  5
49
  8
BUSHDIME
  6
GC___6
 62
    93
 10
15.71912479400635
 20
5.657103538513184
 30
0.0
 11
15.71912479400635
 21
5.60240364074707
 31
0.0
  0
POINT
  5
4A
  8
BUSHDIME
  6
CONTINUOUS
 62
    93
 10
15.96912479400635
 20
5.657103538513184
 30
0.0
  0
LINE
  5
4B
  8
BUSHDIME
  6
GC___6
 62
    93
 10
15.96912479400635
 20
5.657103538513184
 30
0.0
 11
15.96912479400635
 21
5.711803436279297
 31
0.0
  0
LINE
  5
4C
  8
BUSHDIME
  6
GC___6
 62
    93
 10
15.96912479400635
 20
5.657103538513184
 30
0.0
 11
15.96912479400635
 21
5.60240364074707
 31
0.0
  0
POINT
  5
4D
  8
BUSHDIME
  6
CONTINUOUS
 62
    93
 10
15.34412479400635
 20
5.657103538513184
 30
0.0
  0
POINT
  5
4E
  8
BUSHDIME
  6
CONTINUOUS
 62
    93
 10
15.34412479400635
 20
5.657103538513184
 30
0.0
  0
LINE
  5
4F
  8
BUSHDIME
  6
GC___6
 62
    93
 10
15.34412479400635
 20
5.657103538513184
 30
0.0
 11
15.34412479400635
 21
5.743490219116211
 31
0.0
  0
LINE
  5
50
  8
BUSHDIME
  6
GC___6
 62
    93
 10
15.34412479400635
 20
5.657103538513184
 30
0.0
 11
15.34412479400635
 21
5.570717811584473
 31
0.0
  0
POINT
  5
51
  8
BUSHDIME
  6
CONTINUOUS
 62
    93
 10
15.59412479400635
 20
5.657103538513184
 30
0.0
  0
POINT
  5
52
  8
BUSHDIME
  6
CONTINUOUS
 62
    93
 10
15.59412479400635
 20
5.657103538513184
 30
0.0
  0
LINE
  5
53
  8
BUSHDIME
  6
GC___6
 62
    93
 10
15.59412479400635
 20
5.657103538513184
 30
0.0
 11
15.59412479400635
 21
5.743490219116211
 31
0.0
  0
LINE
  5
54
  8
BUSHDIME
  6
GC___6
 62
    93
 10
15.59412479400635
 20
5.657103538513184
 30
0.0
 11
15.59412479400635
 21
5.570717811584473
 31
0.0
  0
POINT
  5
55
  8
BUSHDIME
  6
CONTINUOUS
 62
    93
 10
15.84412479400635
 20
5.657103538513184
 30
0.0
  0
POINT
  5
56
  8
BUSHDIME
  6
CONTINUOUS
 62
    93
 10
15.84412479400635
 20
5.657103538513184
 30
0.0
  0
LINE
  5
57
  8
BUSHDIME
  6
GC___6
 62
    93
 10
15.84412479400635
 20
5.657103538513184
 30
0.0
 11
15.84412479400635
 21
5.743490219116211
 31
0.0
  0
LINE
  5
58
  8
BUSHDIME
  6
GC___6
 62
    93
 10
15.84412479400635
 20
5.657103538513184
 30
0.0
 11
15.84412479400635
 21
5.570717811584473
 31
0.0
  0
POINT
  5
59
  8
BUSHDIME
  6
CONTINUOUS
 62
    93
 10
14.84526538848877
 20
4.953076362609863
 30
0.0
  0
LINE
  5
5A
  8
BUSHDIME
  6
CONTINUOUS
 62
    93
 10
14.84526538848877
 20
5.765576362609863
 30
0.0
 11
14.84526538848877
 21
4.953076362609863
 31
0.0
  0
LINE
  5
5B
  8
BUSHDIME
  6
CONTINUOUS
 62
    93
 10
16.09526443481445
 20
4.953076362609863
 30
0.0
 11
16.09526443481445
 21
5.890576362609863
 31
0.0
  0
LINE
  5
5C
  8
BUSHDIME
  6
CONTINUOUS
 62
    93
 10
16.09526443481445
 20
4.953076362609863
 30
0.0
 11
16.09526443481445
 21
4.015576362609863
 31
0.0
  0
LINE
  5
5D
  8
BUSHDIME
  6
CONTINUOUS
 62
    93
 10
14.84526538848877
 20
5.515567779541016
 30
0.0
 11
16.09526443481445
 21
5.515567779541016
 31
0.0
  0
LINE
  5
5E
  8
BUSHDIME
  6
CONTINUOUS
 62
    93
 10
14.84526538848877
 20
5.570234298706055
 30
0.0
 11
16.09526443481445
 21
5.570234298706055
 31
0.0
  0
LINE
  5
5F
  8
BUSHDIME
  6
CONTINUOUS
 62
    93
 10
14.84777164459229
 20
4.390584945678711
 30
0.0
 11
16.09526443481445
 21
4.390584945678711
 31
0.0
  0
LINE
  5
60
  8
BUSHDIME
  6
CONTINUOUS
 62
    93
 10
14.84526538848877
 20
4.140576362609863
 30
0.0
 11
16.09526443481445
 21
4.015576362609863
 31
0.0
  0
LINE
  5
61
  8
BUSHDIME
  6
CONTINUOUS
 62
    93
 10
14.84526538848877
 20
5.765576362609863
 30
0.0
 11
16.09526443481445
 21
5.890576362609863
 31
0.0
  0
LINE
  5
62
  8
BUSHDIME
  6
CONTINUOUS
 62
    93
 10
14.84526538848877
 20
5.742134094238281
 30
0.0
 11
16.09526443481445
 21
5.742134094238281
 31
0.0
  0
LINE
  5
63
  8
BUSHDIME
  6
GC___6
 62
    93
 10
14.84412479400635
 20
5.657103538513184
 30
0.0
 11
16.09526443481445
 21
5.657103538513184
 31
0.0
  0
LINE
  5
64
  8
BUSHDIME
  6
CONTINUOUS
 62
    93
 10
14.84526538848877
 20
6.297851085662842
 30
0.0
 11
14.95351856305117
 21
6.360351087240141
 31
0.0
  0
LINE
  5
65
  8
BUSHDIME
  6
CONTINUOUS
 62
    93
 10
14.84526538848877
 20
6.297851085662842
 30
0.0
 11
14.95351856305117
 21
6.235351084085543
 31
0.0
  0
LINE
  5
66
  8
BUSHDIME
  6
CONTINUOUS
 62
    93
 10
16.09526443481445
 20
6.297851085662842
 30
0.0
 11
15.98701126025205
 21
6.235351084085543
 31
0.0
  0
LINE
  5
67
  8
BUSHDIME
  6
CONTINUOUS
 62
    93
 10
16.09526443481445
 20
6.297851085662842
 30
0.0
 11
15.98701126025205
 21
6.360351087240141
 31
0.0
  0
LINE
  5
68
  8
BUSHDIME
  6
CONTINUOUS
 62
    93
 10
14.84526538848877
 20
5.828076362609863
 30
0.0
 11
14.84526538848877
 21
6.547851085662842
 31
0.0
  0
LINE
  5
69
  8
BUSHDIME
  6
CONTINUOUS
 62
    93
 10
16.09526443481445
 20
5.953076362609863
 30
0.0
 11
16.09526443481445
 21
6.547851085662842
 31
0.0
  0
TEXT
  5
6B
  8
BUSHDIME
  6
CONTINUOUS
 62
    93
 10
15.09482900798321
 20
6.235278435051441
 30
0.0
 40
0.125
  1
1 1/4"
  7
ENGINEER
  0
LINE
  5
6C
  8
BUSHDIME
  6
CONTINUOUS
 62
    93
 10
14.84526538848877
 20
6.297851085662842
 30
0.0
 11
15.06357900798321
 21
6.297851085662842
 31
0.0
  0
LINE
  5
6D
  8
BUSHDIME
  6
CONTINUOUS
 62
    93
 10
15.87695081532002
 20
6.297851085662842
 30
0.0
 11
16.09526443481445
 21
6.297851085662842
 31
0.0
  0
LINE
  5
6E
  8
BUSHDIME
  6
CONTINUOUS
 62
    93
 10
16.54281997680664
 20
4.390584945678711
 30
0.0
 11
16.48031997522934
 21
4.498838120241111
 31
0.0
  0
LINE
  5
6F
  8
BUSHDIME
  6
CONTINUOUS
 62
    93
 10
16.54281997680664
 20
4.390584945678711
 30
0.0
 11
16.60531997838394
 21
4.498838120241111
 31
0.0
  0
LINE
  5
70
  8
BUSHDIME
  6
CONTINUOUS
 62
    93
 10
16.54281997680664
 20
5.515567779541016
 30
0.0
 11
16.60531997838394
 21
5.407314604978615
 31
0.0
  0
LINE
  5
71
  8
BUSHDIME
  6
CONTINUOUS
 62
    93
 10
16.54281997680664
 20
5.515567779541016
 30
0.0
 11
16.48031997522934
 21
5.407314604978615
 31
0.0
  0
LINE
  5
72
  8
BUSHDIME
  6
CONTINUOUS
 62
    93
 10
16.15776443481445
 20
4.390584945678711
 30
0.0
 11
16.79281997680664
 21
4.390584945678711
 31
0.0
  0
LINE
  5
73
  8
BUSHDIME
  6
CONTINUOUS
 62
    93
 10
16.15776443481445
 20
5.515567779541016
 30
0.0
 11
16.79281997680664
 21
5.515567779541016
 31
0.0
  0
TEXT
  5
74
  8
BUSHDIME
  6
CONTINUOUS
 62
    93
 10
16.16537162289023
 20
4.740747088566423
 30
0.0
 40
0.125
  1
1 1/8"
  7
ENGINEER
  0
LINE
  5
75
  8
BUSHDIME
  6
CONTINUOUS
 62
    93
 10
16.54281997680664
 20
4.390584945678711
 30
0.0
 11
16.54281997680664
 21
4.709497088566423
 31
0.0
  0
LINE
  5
76
  8
BUSHDIME
  6
CONTINUOUS
 62
    93
 10
16.54281997680664
 20
4.897813206538558
 30
0.0
 11
16.54281997680664
 21
5.515567779541016
 31
0.0
  0
LINE
  5
77
  8
BUSHDIME
  6
CONTINUOUS
 62
    93
 10
17.13787841796875
 20
4.015576362609863
 30
0.0
 11
17.07537841639145
 21
4.123829537172264
 31
0.0
  0
LINE
  5
78
  8
BUSHDIME
  6
CONTINUOUS
 62
    93
 10
17.13787841796875
 20
4.015576362609863
 30
0.0
 11
17.20037841954605
 21
4.123829537172264
 31
0.0
  0
LINE
  5
79
  8
BUSHDIME
  6
CONTINUOUS
 62
    93
 10
17.13787841796875
 20
5.890576362609863
 30
0.0
 11
17.20037841954605
 21
5.782323188047463
 31
0.0
  0
LINE
  5
7A
  8
BUSHDIME
  6
CONTINUOUS
 62
    93
 10
17.13787841796875
 20
5.890576362609863
 30
0.0
 11
17.07537841639145
 21
5.782323188047463
 31
0.0
  0
LINE
  5
7B
  8
BUSHDIME
  6
CONTINUOUS
 62
    93
 10
16.15776443481445
 20
4.015576362609863
 30
0.0
 11
17.38787841796875
 21
4.015576362609863
 31
0.0
  0
LINE
  5
7C
  8
BUSHDIME
  6
CONTINUOUS
 62
    93
 10
16.15776443481445
 20
5.890576362609863
 30
0.0
 11
17.38787841796875
 21
5.890576362609863
 31
0.0
  0
TEXT
  5
7D
  8
BUSHDIME
  6
CONTINUOUS
 62
    93
 10
16.76043006405234
 20
5.076941126957536
 30
0.0
 40
0.125
  1
1 7/8"
  7
ENGINEER
  0
LINE
  5
7E
  8
BUSHDIME
  6
CONTINUOUS
 62
    93
 10
17.13787841796875
 20
4.015576362609863
 30
0.0
 11
17.13787841796875
 21
5.045691126957536
 31
0.0
  0
LINE
  5
7F
  8
BUSHDIME
  6
CONTINUOUS
 62
    93
 10
17.13787841796875
 20
5.234007244929671
 30
0.0
 11
17.13787841796875
 21
5.890576362609863
 31
0.0
  0
LINE
  5
80
  8
BUSHDIME
  6
CONTINUOUS
 62
    93
 10
15.07501316070557
 20
4.112588882446289
 30
0.0
 11
15.18857508254081
 21
4.060352018938936
 31
0.0
  0
LINE
  5
81
  8
BUSHDIME
  6
CONTINUOUS
 62
    93
 10
15.07501316070557
 20
4.112588882446289
 30
0.0
 11
15.08655566718475
 21
3.988122941144349
 31
0.0
  0
LINE
  5
82
  8
BUSHDIME
  6
CONTINUOUS
 62
    93
 10
15.07501316070557
 20
4.112588882446289
 30
0.0
 11
15.57750606536865
 21
3.402846574783325
 31
0.0
  0
LINE
  5
83
  8
BUSHDIME
  6
CONTINUOUS
 62
    93
 10
15.57750606536865
 20
3.402846574783325
 30
0.0
 11
15.70250606536865
 21
3.402846574783325
 31
0.0
  0
TEXT
  5
84
  8
BUSHDIME
  6
CONTINUOUS
 62
    93
 10
15.76500606536865
 20
3.340346574783325
 30
0.0
 40
0.125
  1
2.500TPF
  7
ENGINEER
  0
LINE
  5
85
  8
BUSHDIME
  6
CONTINUOUS
 62
    93
 10
14.46069526672363
 20
4.140576362609863
 30
0.0
 11
14.39819526514634
 21
4.248829537172264
 31
0.0
  0
LINE
  5
86
  8
BUSHDIME
  6
CONTINUOUS
 62
    93
 10
14.46069526672363
 20
4.140576362609863
 30
0.0
 11
14.52319526830093
 21
4.248829537172264
 31
0.0
  0
LINE
  5
87
  8
BUSHDIME
  6
CONTINUOUS
 62
    93
 10
14.46069526672363
 20
5.765576362609863
 30
0.0
 11
14.52319526830093
 21
5.657323188047463
 31
0.0
  0
LINE
  5
88
  8
BUSHDIME
  6
CONTINUOUS
 62
    93
 10
14.46069526672363
 20
5.765576362609863
 30
0.0
 11
14.39819526514634
 21
5.657323188047463
 31
0.0
  0
LINE
  5
89
  8
BUSHDIME
  6
CONTINUOUS
 62
    93
 10
14.78276538848877
 20
4.140576362609863
 30
0.0
 11
14.21069526672363
 21
4.140576362609863
 31
0.0
  0
LINE
  5
8A
  8
BUSHDIME
  6
CONTINUOUS
 62
    93
 10
14.78276538848877
 20
5.765576362609863
 30
0.0
 11
14.21069526672363
 21
5.765576362609863
 31
0.0
  0
TEXT
  5
8B
  8
BUSHDIME
  6
CONTINUOUS
 62
    93
 10
14.0825469440897
 20
5.114179411641089
 30
0.0
 40
0.125
  1
1 5/8"
  7
ENGINEER
  0
LINE
  5
8C
  8
BUSHDIME
  6
CONTINUOUS
 62
    93
 10
14.46069526672363
 20
4.140576362609863
 30
0.0
 11
14.46069526672363
 21
5.082929411641089
 31
0.0
  0
LINE
  5
8D
  8
BUSHDIME
  6
CONTINUOUS
 62
    93
 10
14.46069526672363
 20
5.271478852519067
 30
0.0
 11
14.46069526672363
 21
5.765576362609863
 31
0.0
  0
LINE
  5
8E
  8
CNTRLINE
  6
GC___6
 62
    93
 10
1.696247577667236
 20
4.953307151794434
 30
0.0
 11
17.78826522827148
 21
4.953309059143066
 31
0.0
  0
TEXT
  5
91
  8
DIEM
  6
CONTINUOUS
 62
    93
 10
12.55968379974365
 20
8.96673583984375
 30
0.0
 40
0.125
  1
NOTE A-- TAP 10/24 x 1" DEEP
  7
ENGINEER
  0
TEXT
  5
92
  8
DIEM
  6
CONTINUOUS
 62
    93
 10
12.55968379974365
 20
8.77923583984375
 30
0.0
 40
0.125
  1
NOTE B-- DRILL 13/64" COUNTERBORE 23/64" x 13/64" DEEP
  7
ENGINEER
  0
LINE
  5
93
  8
DIEM
  6
CONTINUOUS
 62
    93
 10
4.603567123413086
 20
7.112854719161987
 30
0.0
 11
4.495313948850686
 21
7.050354717584688
 31
0.0
  0
LINE
  5
94
  8
DIEM
  6
CONTINUOUS
 62
    93
 10
4.603567123413086
 20
7.112854719161987
 30
0.0
 11
4.495313948850686
 21
7.175354720739287
 31
0.0
  0
LINE
  5
95
  8
DIEM
  6
CONTINUOUS
 62
    93
 10
3.076536933182348
 20
6.480338419924525
 30
0.0
 11
3.108889354675102
 21
6.601079137263604
 31
0.0
  0
LINE
  5
96
  8
DIEM
  6
CONTINUOUS
 62
    93
 10
3.076536933182348
 20
6.480338419924525
 30
0.0
 11
3.1972776733583
 21
6.512690756188901
 31
0.0
  0
LINE
  5
97
  8
DIEM
  6
CONTINUOUS
 62
    93
 10
4.603567123413086
 20
6.448806762695313
 30
0.0
 11
4.603567123413086
 21
7.362854719161987
 31
0.0
  0
LINE
  5
98
  8
DIEM
  6
CONTINUOUS
 62
    93
 10
3.54608995088932
 20
6.010785070769688
 30
0.0
 11
2.899760300277225
 21
6.657115177612655
 31
0.0
  0
TEXT
  5
99
  8
DIEM
  6
CONTINUOUS
 62
    93
 10
3.651558580282221
 20
6.885662655691961
 30
0.0
 40
0.125
  1
45¦
  7
ENGINEER
  0
ARC
  5
9A
  8
DIEM
  6
CONTINUOUS
 62
    93
 10
4.60356712341309
 20
4.953307151794406
 30
0.0
 40
2.159547567367581
 50
90.0
 51
108.0627790059331
  0
ARC
  5
9B
  8
DIEM
  6
CONTINUOUS
 62
    93
 10
4.603567123413092
 20
4.953307151794427
 30
0.0
 40
2.159547567367563
 50
117.0847311688256
 51
134.9999797780482
  0
LINE
  5
9C
  8
DIEM
  6
CONTINUOUS
 62
    93
 10
3.070848796514887
 20
6.486026560607124
 30
0.0
 11
3.038496375022133
 21
6.365285843268046
 31
0.0
  0
LINE
  5
9D
  8
DIEM
  6
CONTINUOUS
 62
    93
 10
3.070848796514887
 20
6.486026560607124
 30
0.0
 11
2.950108056338935
 21
6.453674224342749
 31
0.0
  0
LINE
  5
9E
  8
DIEM
  6
CONTINUOUS
 62
    93
 10
2.444223658050351
 20
4.76438903631582
 30
0.0
 11
2.372526600056866
 21
4.866783039436506
 31
0.0
  0
LINE
  5
9F
  8
DIEM
  6
CONTINUOUS
 62
    93
 10
2.444223658050351
 20
4.76438903631582
 30
0.0
 11
2.497050940252636
 21
4.87767750993569
 31
0.0
  0
LINE
  5
A0
  8
DIEM
  6
CONTINUOUS
 62
    93
 10
3.54608995088932
 20
6.010785070769688
 30
0.0
 11
2.894072163609765
 21
6.662803318295254
 31
0.0
  0
LINE
  5
A1
  8
DIEM
  6
CONTINUOUS
 62
    93
 10
3.113758692145409
 20
4.822965774531433
 30
0.0
 11
2.195174983943998
 21
4.742600095867333
 31
0.0
  0
TEXT
  5
A2
  8
DIEM
  6
CONTINUOUS
 62
    93
 10
2.441881967274817
 20
5.631837254235174
 30
0.0
 40
0.125
  1
50¦
  7
ENGINEER
  0
ARC
  5
A3
  8
DIEM
  6
CONTINUOUS
 62
    93
 10
4.603567123413083
 20
4.953307151794437
 30
0.0
 40
2.167591810226436
 50
134.9999797780482
 51
157.3299693022248
  0
ARC
  5
A4
  8
DIEM
  6
CONTINUOUS
 62
    93
 10
4.603567123413077
 20
4.953307151794435
 30
0.0
 40
2.167591810226432
 50
162.6254347493009
 51
185.0000010954407
  0
LINE
  5
A5
  8
DIEM
  6
CONTINUOUS
 62
    93
 10
2.441413661575749
 20
4.764143193425609
 30
0.0
 11
2.513110719569233
 21
4.661749190304923
 31
0.0
  0
LINE
  5
A6
  8
DIEM
  6
CONTINUOUS
 62
    93
 10
2.441413661575749
 20
4.764143193425609
 30
0.0
 11
2.388586379373463
 21
4.650854719805738
 31
0.0
  0
LINE
  5
A7
  8
DIEM
  6
CONTINUOUS
 62
    93
 10
3.208453052510476
 20
3.290674502996001
 30
0.0
 11
3.085352080221677
 21
3.312380507270216
 31
0.0
  0
LINE
  5
A8
  8
DIEM
  6
CONTINUOUS
 62
    93
 10
3.208453052510476
 20
3.290674502996001
 30
0.0
 11
3.165700520905141
 21
3.408136075611621
 31
0.0
  0
LINE
  5
A9
  8
DIEM
  6
CONTINUOUS
 62
    93
 10
3.113758692145409
 20
4.822965774531433
 30
0.0
 11
2.192364987469396
 21
4.742354252977122
 31
0.0
  0
LINE
  5
AA
  8
DIEM
  6
CONTINUOUS
 62
    93
 10
3.642279174608293
 20
3.807688480236431
 30
0.0
 11
3.047756175199022
 21
3.099163371146316
 31
0.0
  0
TEXT
  5
AB
  8
DIEM
  6
CONTINUOUS
 62
    93
 10
2.552801943081528
 20
3.888315587568935
 30
0.0
 40
0.125
  1
45¦
  7
ENGINEER
  0
ARC
  5
AC
  8
DIEM
  6
CONTINUOUS
 62
    93
 10
4.603567123413075
 20
4.953307151794432
 30
0.0
 40
2.17041254043578
 50
185.0000010954406
 51
204.7344300747833
  0
ARC
  5
AD
  8
DIEM
  6
CONTINUOUS
 62
    93
 10
4.603567123413082
 20
4.953307151794429
 30
0.0
 40
2.170412540435785
 50
210.3369566661304
 51
230.0000075123959
  0
LINE
  5
AE
  8
DIEM
  6
CONTINUOUS
 62
    93
 10
3.217322540057779
 20
3.301244749459586
 30
0.0
 11
3.340423512346578
 21
3.27953874518537
 31
0.0
  0
LINE
  5
AF
  8
DIEM
  6
CONTINUOUS
 62
    93
 10
3.217322540057779
 20
3.301244749459586
 30
0.0
 11
3.260075071663115
 21
3.183783176843965
 31
0.0
  0
LINE
  5
B0
  8
DIEM
  6
CONTINUOUS
 62
    93
 10
4.79152846515855
 20
2.804899657835347
 30
0.0
 11
4.689134462037864
 21
2.733202599841863
 31
0.0
  0
LINE
  5
B1
  8
DIEM
  6
CONTINUOUS
 62
    93
 10
4.79152846515855
 20
2.804899657835347
 30
0.0
 11
4.678239991538679
 21
2.857726940037633
 31
0.0
  0
LINE
  5
B2
  8
DIEM
  6
CONTINUOUS
 62
    93
 10
3.642279174608293
 20
3.807688480236431
 30
0.0
 11
3.056625662746325
 21
3.109733617609901
 31
0.0
  0
LINE
  5
B3
  8
DIEM
  6
CONTINUOUS
 62
    93
 10
4.733908500676087
 20
3.463498720526756
 30
0.0
 11
4.813317405607037
 21
2.555850983728995
 31
0.0
  0
TEXT
  5
B4
  8
DIEM
  6
CONTINUOUS
 62
    93
 10
3.829475101444789
 20
2.833701273988694
 30
0.0
 40
0.125
  1
45¦
  7
ENGINEER
  0
ARC
  5
B5
  8
DIEM
  6
CONTINUOUS
 62
    93
 10
4.603567123413102
 20
4.953307151794459
 30
0.0
 40
2.156614065170318
 50
230.000007512396
 51
248.0727573842077
  0
ARC
  5
B6
  8
DIEM
  6
CONTINUOUS
 62
    93
 10
4.603567123413085
 20
4.953307151794435
 30
0.0
 40
2.156614065170289
 50
256.8216746965975
 51
275.0000010954406
  0
LINE
  5
B7
  8
DIEM
  6
CONTINUOUS
 62
    93
 10
6.272376785493563
 20
3.553009894386967
 30
0.0
 11
6.294082792292232
 21
3.676110866230637
 31
0.0
  0
LINE
  5
B8
  8
DIEM
  6
CONTINUOUS
 62
    93
 10
6.272376785493563
 20
3.553009894386967
 30
0.0
 11
6.389838358985918
 21
3.595762423583497
 31
0.0
  0
LINE
  5
B9
  8
DIEM
  6
CONTINUOUS
 62
    93
 10
6.77375333261598
 20
5.143175302735036
 30
0.0
 11
6.845450457009497
 21
5.040781346108189
 31
0.0
  0
LINE
  5
BA
  8
DIEM
  6
CONTINUOUS
 62
    93
 10
6.77375333261598
 20
5.143175302735036
 30
0.0
 11
6.720926123878555
 21
5.029886794857968
 31
0.0
  0
LINE
  5
BB
  8
DIEM
  6
CONTINUOUS
 62
    93
 10
5.749186032565808
 20
3.992018963589224
 30
0.0
 11
6.463887914047809
 21
3.39231301314816
 31
0.0
  0
LINE
  5
BC
  8
DIEM
  6
CONTINUOUS
 62
    93
 10
6.093375789566928
 20
5.083649523107268
 30
0.0
 11
7.022801992592677
 21
5.164964404685591
 31
0.0
  0
TEXT
  5
BD
  8
DIEM
  6
CONTINUOUS
 62
    93
 10
6.555631137316797
 20
4.2354211253874
 30
0.0
 40
0.125
  1
45¦
  7
ENGINEER
  0
ARC
  5
BE
  8
DIEM
  6
CONTINUOUS
 62
    93
 10
4.603567123413105
 20
4.953307151794423
 30
0.0
 40
2.178476095199564
 50
320.0000063374213
 51
339.8865115198341
  0
ARC
  5
BF
  8
DIEM
  6
CONTINUOUS
 62
    93
 10
4.603567123413042
 20
4.953307151794437
 30
0.0
 40
2.178476095199629
 50
345.0764431503777
 51
5.000038250374701
  0
LINE
  5
C0
  8
DIEM
  6
CONTINUOUS
 62
    93
 10
6.78787979283387
 20
5.144411217362792
 30
0.0
 11
6.716182668440354
 21
5.246805173989639
 31
0.0
  0
LINE
  5
C1
  8
DIEM
  6
CONTINUOUS
 62
    93
 10
6.78787979283387
 20
5.144411217362792
 30
0.0
 11
6.840707001571295
 21
5.25769972523986
 31
0.0
  0
LINE
  5
C2
  8
DIEM
  6
CONTINUOUS
 62
    93
 10
6.012980235383902
 20
6.632978929694403
 30
0.0
 11
6.136081196161626
 21
6.611272860137684
 31
0.0
  0
LINE
  5
C3
  8
DIEM
  6
CONTINUOUS
 62
    93
 10
6.012980235383902
 20
6.632978929694403
 30
0.0
 11
6.055732704697394
 21
6.515517334406416
 31
0.0
  0
LINE
  5
C4
  8
DIEM
  6
CONTINUOUS
 62
    93
 10
6.093375789566928
 20
5.083649523107268
 30
0.0
 11
7.036928452810566
 21
5.166200319313346
 31
0.0
  0
LINE
  5
C5
  8
DIEM
  6
CONTINUOUS
 62
    93
 10
5.564856289701158
 20
6.098926040465948
 30
0.0
 11
6.173677214256893
 21
6.824489976323817
 31
0.0
  0
TEXT
  5
C6
  8
DIEM
  6
CONTINUOUS
 62
    93
 10
6.422891251806907
 20
5.902957079918017
 30
0.0
 40
0.125
  1
45¦
  7
ENGINEER
  0
ARC
  5
C7
  8
DIEM
  6
CONTINUOUS
 62
    93
 10
4.603567123413095
 20
4.953307151794435
 30
0.0
 40
2.192656517028799
 50
5.000038250374845
 51
24.76216980324283
  0
ARC
  5
C8
  8
DIEM
  6
CONTINUOUS
 62
    93
 10
4.603567123413069
 20
4.953307151794421
 30
0.0
 40
2.19265651702883
 50
30.30777915484896
 51
49.9999771274848
  0
LINE
  5
C9
  8
DIEM
  6
CONTINUOUS
 62
    93
 10
6.006347310405071
 20
6.625074123930045
 30
0.0
 11
5.883246349627346
 21
6.646780193486764
 31
0.0
  0
LINE
  5
CA
  8
DIEM
  6
CONTINUOUS
 62
    93
 10
6.006347310405071
 20
6.625074123930045
 30
0.0
 11
5.96359484109158
 21
6.742535719218032
 31
0.0
  0
LINE
  5
CB
  8
DIEM
  6
CONTINUOUS
 62
    93
 10
4.603567123413086
 20
7.135644674301148
 30
0.0
 11
4.711820297975487
 21
7.198144675878447
 31
0.0
  0
LINE
  5
CC
  8
DIEM
  6
CONTINUOUS
 62
    93
 10
4.603567123413086
 20
7.135644674301148
 30
0.0
 11
4.711820297975486
 21
7.073144672723848
 31
0.0
  0
LINE
  5
CD
  8
DIEM
  6
CONTINUOUS
 62
    93
 10
5.564856289701158
 20
6.098926040465948
 30
0.0
 11
6.167044289278062
 21
6.816585170559458
 31
0.0
  0
LINE
  5
CE
  8
DIEM
  6
CONTINUOUS
 62
    93
 10
4.603567123413086
 20
6.448806762695313
 30
0.0
 11
4.603567123413086
 21
7.385644674301148
 31
0.0
  0
TEXT
  5
CF
  8
DIEM
  6
CONTINUOUS
 62
    93
 10
5.219273364288626
 20
6.941308789067294
 30
0.0
 40
0.125
  1
40¦
  7
ENGINEER
  0
ARC
  5
D0
  8
DIEM
  6
CONTINUOUS
 62
    93
 10
4.603567123413114
 20
4.953307151794478
 30
0.0
 40
2.182337522506661
 50
49.99997712748475
 51
65.40328683110278
  0
ARC
  5
D1
  8
DIEM
  6
CONTINUOUS
 62
    93
 10
4.603567123413093
 20
4.953307151794466
 30
0.0
 40
2.182337522506681
 50
74.46588875616479
 51
90.0
  0
LINE
  5
D2
  8
DIEM
  6
CONTINUOUS
 62
    93
 10
4.793694172499136
 20
2.780145515110942
 30
0.0
 11
4.896088175619822
 21
2.851842573104427
 31
0.0
  0
LINE
  5
D3
  8
DIEM
  6
CONTINUOUS
 62
    93
 10
4.793694172499136
 20
2.780145515110942
 30
0.0
 11
4.906982646119007
 21
2.727318232908657
 31
0.0
  0
LINE
  5
D4
  8
DIEM
  6
CONTINUOUS
 62
    93
 10
6.27466470731077
 20
3.55109010046523
 30
0.0
 11
6.2529587005121
 21
3.42798912862156
 31
0.0
  0
LINE
  5
D5
  8
DIEM
  6
CONTINUOUS
 62
    93
 10
6.27466470731077
 20
3.55109010046523
 30
0.0
 11
6.157203133818415
 21
3.5083375712687
 31
0.0
  0
LINE
  5
D6
  8
DIEM
  6
CONTINUOUS
 62
    93
 10
4.733908500676087
 20
3.463498720526756
 30
0.0
 11
4.815483112947623
 21
2.531096841004589
 31
0.0
  0
LINE
  5
D7
  8
DIEM
  6
CONTINUOUS
 62
    93
 10
5.749186032565808
 20
3.992018963589224
 30
0.0
 11
6.466175835865015
 21
3.390393219226423
 31
0.0
  0
TEXT
  5
D8
  8
DIEM
  6
CONTINUOUS
 62
    93
 10
5.872106794874893
 20
3.212646481881707
 30
0.0
 40
0.125
  1
45¦
  7
ENGINEER
  0
ARC
  5
D9
  8
DIEM
  6
CONTINUOUS
 62
    93
 10
4.60356712341309
 20
4.953307151794428
 30
0.0
 40
2.181462764739985
 50
275.0000010954406
 51
305.682861615
  0
ARC
  5
DA
  8
DIEM
  6
CONTINUOUS
 62
    93
 10
4.603567123413004
 20
4.953307151794514
 30
0.0
 40
2.181462764740104
 50
313.4457681309278
 51
320.0000063374211
  0
LINE
  5
DB
  8
DIEM
  6
CONTINUOUS
 62
    93
 10
3.878035306930542
 20
4.807746887207031
 30
0.0
 11
3.791195345054435
 21
4.717836815349891
 31
0.0
  0
LINE
  5
DC
  8
DIEM
  6
CONTINUOUS
 62
    93
 10
3.878035306930542
 20
4.807746887207031
 30
0.0
 11
3.75675092058965
 21
4.837997467861182
 31
0.0
  0
LINE
  5
DD
  8
DIEM
  6
CONTINUOUS
 62
    93
 10
3.878035306930542
 20
4.807746887207031
 30
0.0
 11
2.269701719284058
 21
4.346713066101074
 31
0.0
  0
LINE
  5
DE
  8
DIEM
  6
CONTINUOUS
 62
    93
 10
2.269701719284058
 20
4.346713066101074
 30
0.0
 11
2.769701719284058
 21
4.346713066101074
 31
0.0
  0
TEXT
  5
DF
  8
DIEM
  6
CONTINUOUS
 62
    93
 10
2.832201719284058
 20
4.284213066101074
 30
0.0
 40
0.125
  1
SEE NOTE B
  7
ENGINEER
  0
LINE
  5
E0
  8
DIEM
  6
CONTINUOUS
 62
    93
 10
5.300560053171068
 20
2.654405231897526
 30
0.0
 11
5.363060053171068
 21
2.654405231897526
 31
0.0
  0
LINE
  5
E1
  8
DIEM
  6
CONTINUOUS
 62
    93
 10
5.020357871322408
 20
3.578600164599153
 30
0.0
 11
4.929137502127417
 21
3.664062695827344
 31
0.0
  0
LINE
  5
E2
  8
DIEM
  6
CONTINUOUS
 62
    93
 10
5.020357871322408
 20
3.578600164599153
 30
0.0
 11
5.048760413387583
 21
3.70033058645103
 31
0.0
  0
LINE
  5
E3
  8
DIEM
  6
CONTINUOUS
 62
    93
 10
4.186776375503764
 20
6.328014138989714
 30
0.0
 11
4.277996744698755
 21
6.242551607761523
 31
0.0
  0
LINE
  5
E4
  8
DIEM
  6
CONTINUOUS
 62
    93
 10
4.186776375503764
 20
6.328014138989714
 30
0.0
 11
4.158373833438589
 21
6.206283717137836
 31
0.0
  0
TEXT
  5
E5
  8
DIEM
  6
CONTINUOUS
 62
    93
 10
5.394310053171068
 20
2.591497172911458
 30
0.0
 40
0.125
  1
2.873"
  7
ENGINEER
  0
LINE
  5
E6
  8
DIEM
  6
CONTINUOUS
 62
    93
 10
4.186776375503764
 20
6.328014138989714
 30
0.0
 11
5.300560053171068
 21
2.654405231897526
 31
0.0
  0
TEXT
  5
E7
  8
DIEM
  6
CONTINUOUS
 62
    93
 10
5.425559997558594
 20
2.404405832290649
 30
0.0
 40
0.125
  1
BOLT
  7
ENGINEER
  0
TEXT
  5
E8
  8
DIEM
  6
CONTINUOUS
 62
    93
 10
5.425559997558594
 20
2.216906070709229
 30
0.0
 40
0.125
  1
CIRCLE
  7
ENGINEER
  0
TEXT
  5
E9
  8
DIEM
  6
CONTINUOUS
 62
    93
 10
6.024922370910645
 20
2.790472269058228
 30
0.0
 40
0.125
  1
BOLT
  7
ENGINEER
  0
TEXT
  5
EA
  8
DIEM
  6
CONTINUOUS
 62
    93
 10
6.024922370910645
 20
2.602972269058228
 30
0.0
 40
0.125
  1
CIRCLE
  7
ENGINEER
  0
LINE
  5
EB
  8
CNTRLINE
  6
GC___6
 62
    93
 10
4.603567123413086
 20
1.121763467788696
 30
0.0
 11
4.603567123413086
 21
11.12176322937012
 31
0.0
  0
LINE
  5
EC
  8
DIEM
  6
CONTINUOUS
 62
    93
 10
10.2470817565918
 20
4.578307151794434
 30
0.0
 11
10.1845817550145
 21
4.686560326356834
 31
0.0
  0
LINE
  5
ED
  8
DIEM
  6
CONTINUOUS
 62
    93
 10
10.2470817565918
 20
4.578307151794434
 30
0.0
 11
10.3095817581691
 21
4.686560326356834
 31
0.0
  0
LINE
  5
EE
  8
DIEM
  6
CONTINUOUS
 62
    93
 10
10.2470817565918
 20
5.328307151794434
 30
0.0
 11
10.3095817581691
 21
5.220053977232033
 31
0.0
  0
LINE
  5
EF
  8
DIEM
  6
CONTINUOUS
 62
    93
 10
10.2470817565918
 20
5.328307151794434
 30
0.0
 11
10.1845817550145
 21
5.220053977232033
 31
0.0
  0
LINE
  5
F0
  8
DIEM
  6
CONTINUOUS
 62
    93
 10
10.01558494567871
 20
4.578307151794434
 30
0.0
 11
10.4970817565918
 21
4.578307151794434
 31
0.0
  0
LINE
  5
F1
  8
DIEM
  6
CONTINUOUS
 62
    93
 10
10.01558494567871
 20
5.328307151794434
 30
0.0
 11
10.4970817565918
 21
5.328307151794434
 31
0.0
  0
TEXT
  5
F2
  8
DIEM
  6
CONTINUOUS
 62
    93
 10
10.07785296486691
 20
4.890734501183033
 30
0.0
 40
0.125
  1
3/4"
  7
ENGINEER
  0
LINE
  5
F3
  8
DIEM
  6
CONTINUOUS
 62
    93
 10
10.2470817565918
 20
4.578307151794434
 30
0.0
 11
10.2470817565918
 21
4.859484501183033
 31
0.0
  0
LINE
  5
F4
  8
DIEM
  6
CONTINUOUS
 62
    93
 10
10.2470817565918
 20
5.047129802405834
 30
0.0
 11
10.2470817565918
 21
5.328307151794434
 31
0.0
  0
LINE
  5
F5
  8
DIEM
  6
CONTINUOUS
 62
    93
 10
14.84412479400635
 20
5.657103538513184
 30
0.0
 11
14.75261218961292
 21
5.742253073081092
 31
0.0
  0
LINE
  5
F6
  8
DIEM
  6
CONTINUOUS
 62
    93
 10
14.84412479400635
 20
5.657103538513184
 30
0.0
 11
14.87211015541601
 21
5.778930545152806
 31
0.0
  0
LINE
  5
F7
  8
DIEM
  6
CONTINUOUS
 62
    93
 10
14.84412479400635
 20
5.657103538513184
 30
0.0
 11
14.52174758911133
 21
6.707432746887207
 31
0.0
  0
LINE
  5
F8
  8
DIEM
  6
CONTINUOUS
 62
    93
 10
14.52174758911133
 20
6.707432746887207
 30
0.0
 11
15.02174758911133
 21
6.707432746887207
 31
0.0
  0
TEXT
  5
F9
  8
DIEM
  6
CONTINUOUS
 62
    93
 10
15.08424758911133
 20
6.644932746887207
 30
0.0
 40
0.125
  1
SEE NOTE A
  7
ENGINEER
  0
LINE
  5
FA
  8
DIEM
  6
CONTINUOUS
 62
    93
 10
9.025585174560547
 20
3.763190746307373
 30
0.0
 11
8.917331999998146
 21
3.700690744730074
 31
0.0
  0
LINE
  5
FB
  8
DIEM
  6
CONTINUOUS
 62
    93
 10
9.025585174560547
 20
3.763190746307373
 30
0.0
 11
8.917331999998146
 21
3.825690747884672
 31
0.0
  0
LINE
  5
FC
  8
DIEM
  6
CONTINUOUS
 62
    93
 10
9.213584899902344
 20
3.763190746307373
 30
0.0
 11
9.321838074464745
 21
3.825690747884672
 31
0.0
  0
LINE
  5
FD
  8
DIEM
  6
CONTINUOUS
 62
    93
 10
9.213584899902344
 20
3.763190746307373
 30
0.0
 11
9.321838074464745
 21
3.700690744730074
 31
0.0
  0
LINE
  5
FE
  8
DIEM
  6
CONTINUOUS
 62
    93
 10
9.025585174560547
 20
3.945807456970215
 30
0.0
 11
9.025585174560547
 21
3.513190746307373
 31
0.0
  0
LINE
  5
FF
  8
DIEM
  6
CONTINUOUS
 62
    93
 10
9.213584899902344
 20
3.945807456970215
 30
0.0
 11
9.213584899902344
 21
3.513190746307373
 31
0.0
  0
TEXT
  5
100
  8
DIEM
  6
CONTINUOUS
 62
    93
 10
8.35840417467989
 20
3.700469341129065
 30
0.0
 40
0.125
  1
3/16"
  7
ENGINEER
  0
LINE
  5
101
  8
DIEM
  6
CONTINUOUS
 62
    93
 10
9.025585174560547
 20
3.763190746307373
 30
0.0
 11
8.775585174560547
 21
3.763190746307373
 31
0.0
  0
LINE
  5
102
  8
DIEM
  6
CONTINUOUS
 62
    93
 10
9.213584899902344
 20
3.763190746307373
 30
0.0
 11
9.463584899902344
 21
3.763190746307373
 31
0.0
  0
LINE
  5
103
  8
DIEM
  6
CONTINUOUS
 62
    93
 10
9.213584899902344
 20
2.843664407730103
 30
0.0
 11
9.321838074464745
 21
2.906164409307401
 31
0.0
  0
LINE
  5
104
  8
DIEM
  6
CONTINUOUS
 62
    93
 10
9.213584899902344
 20
2.843664407730103
 30
0.0
 11
9.321838074464745
 21
2.781164406152804
 31
0.0
  0
LINE
  5
105
  8
DIEM
  6
CONTINUOUS
 62
    93
 10
9.838584899902344
 20
2.843664407730103
 30
0.0
 11
9.730331725339942
 21
2.781164406152804
 31
0.0
  0
LINE
  5
106
  8
DIEM
  6
CONTINUOUS
 62
    93
 10
9.838584899902344
 20
2.843664407730103
 30
0.0
 11
9.730331725339942
 21
2.906164409307401
 31
0.0
  0
LINE
  5
107
  8
DIEM
  6
CONTINUOUS
 62
    93
 10
9.213584899902344
 20
2.953307390213013
 30
0.0
 11
9.213584899902344
 21
2.593664407730103
 31
0.0
  0
LINE
  5
108
  8
DIEM
  6
CONTINUOUS
 62
    93
 10
9.838584899902344
 20
2.953307390213013
 30
0.0
 11
9.838584899902344
 21
2.593664407730103
 31
0.0
  0
TEXT
  5
109
  8
DIEM
  6
CONTINUOUS
 62
    93
 10
9.366877342574298
 20
2.780639687291114
 30
0.0
 40
0.125
  1
5/8"
  7
ENGINEER
  0
LINE
  5
10A
  8
DIEM
  6
CONTINUOUS
 62
    93
 10
9.213584899902344
 20
2.843664407730103
 30
0.0
 11
9.335627342574298
 21
2.843664407730103
 31
0.0
  0
LINE
  5
10B
  8
DIEM
  6
CONTINUOUS
 62
    93
 10
9.716542457230389
 20
2.843664407730103
 30
0.0
 11
9.838584899902344
 21
2.843664407730103
 31
0.0
  0
LINE
  5
10C
  8
DIEM
  6
CONTINUOUS
 62
    93
 10
9.838584899902344
 20
2.843664407730103
 30
0.0
 11
9.946838074464745
 21
2.906164409307401
 31
0.0
  0
LINE
  5
10D
  8
DIEM
  6
CONTINUOUS
 62
    93
 10
9.838584899902344
 20
2.843664407730103
 30
0.0
 11
9.946838074464745
 21
2.781164406152804
 31
0.0
  0
LINE
  5
10E
  8
DIEM
  6
CONTINUOUS
 62
    93
 10
11.34526538848877
 20
2.843664407730103
 30
0.0
 11
11.23701221392637
 21
2.781164406152804
 31
0.0
  0
LINE
  5
10F
  8
DIEM
  6
CONTINUOUS
 62
    93
 10
11.34526538848877
 20
2.843664407730103
 30
0.0
 11
11.23701221392637
 21
2.906164409307401
 31
0.0
  0
LINE
  5
110
  8
DIEM
  6
CONTINUOUS
 62
    93
 10
9.838584899902344
 20
2.953307390213013
 30
0.0
 11
9.838584899902344
 21
2.593664407730103
 31
0.0
  0
LINE
  5
111
  8
DIEM
  6
CONTINUOUS
 62
    93
 10
11.34526538848877
 20
3.765816926956177
 30
0.0
 11
11.34526538848877
 21
2.593664407730103
 31
0.0
  0
TEXT
  5
112
  8
DIEM
  6
CONTINUOUS
 62
    93
 10
10.40747096436098
 20
2.781077578256372
 30
0.0
 40
0.125
  1
1 1/2"
  7
ENGINEER
  0
LINE
  5
113
  8
DIEM
  6
CONTINUOUS
 62
    93
 10
9.838584899902344
 20
2.843664407730103
 30
0.0
 11
10.37622096436098
 21
2.843664407730103
 31
0.0
  0
LINE
  5
114
  8
DIEM
  6
CONTINUOUS
 62
    93
 10
10.80762932403013
 20
2.843664407730103
 30
0.0
 11
11.34526538848877
 21
2.843664407730103
 31
0.0
  0
LINE
  5
115
  8
DIEM
  6
CONTINUOUS
 62
    93
 10
9.025585174560547
 20
2.319093465805054
 30
0.0
 11
9.133838349122948
 21
2.381593467382352
 31
0.0
  0
LINE
  5
116
  8
DIEM
  6
CONTINUOUS
 62
    93
 10
9.025585174560547
 20
2.319093465805054
 30
0.0
 11
9.133838349122948
 21
2.256593464227755
 31
0.0
  0
LINE
  5
117
  8
DIEM
  6
CONTINUOUS
 62
    93
 10
11.34526538848877
 20
2.319093465805054
 30
0.0
 11
11.23701221392637
 21
2.256593464227755
 31
0.0
  0
LINE
  5
118
  8
DIEM
  6
CONTINUOUS
 62
    93
 10
11.34526538848877
 20
2.319093465805054
 30
0.0
 11
11.23701221392637
 21
2.381593467382353
 31
0.0
  0
LINE
  5
119
  8
DIEM
  6
CONTINUOUS
 62
    93
 10
9.025585174560547
 20
3.945807456970215
 30
0.0
 11
9.025585174560547
 21
2.069093465805054
 31
0.0
  0
LINE
  5
11A
  8
DIEM
  6
CONTINUOUS
 62
    93
 10
11.34526538848877
 20
3.765816926956177
 30
0.0
 11
11.34526538848877
 21
2.069093465805054
 31
0.0
  0
TEXT
  5
11B
  8
DIEM
  6
CONTINUOUS
 62
    93
 10
9.911897719604895
 20
2.256287026888458
 30
0.0
 40
0.125
  1
2 5/16"
  7
ENGINEER
  0
LINE
  5
11C
  8
DIEM
  6
CONTINUOUS
 62
    93
 10
9.025585174560547
 20
2.319093465805054
 30
0.0
 11
9.880647719604895
 21
2.319093465805054
 31
0.0
  0
LINE
  5
11D
  8
DIEM
  6
CONTINUOUS
 62
    93
 10
10.49020284344442
 20
2.319093465805054
 30
0.0
 11
11.34526538848877
 21
2.319093465805054
 31
0.0
  0
LINE
  5
11E
  8
DIEM
  6
CONTINUOUS
 62
    93
 10
9.129672050476074
 20
4.008307456970215
 30
0.0
 11
9.151163907817189
 21
3.885168916829326
 31
0.0
  0
LINE
  5
11F
  8
DIEM
  6
CONTINUOUS
 62
    93
 10
9.129672050476074
 20
4.008307456970215
 30
0.0
 11
9.033776872863122
 21
3.928125695262329
 31
0.0
  0
LINE
  5
120
  8
DIEM
  6
CONTINUOUS
 62
    93
 10
9.129672050476074
 20
4.008307456970215
 30
0.0
 11
8.889797210693359
 21
3.352806806564331
 31
0.0
  0
LINE
  5
121
  8
DIEM
  6
CONTINUOUS
 62
    93
 10
8.889797210693359
 20
3.352806806564331
 30
0.0
 11
8.389797210693359
 21
3.352806806564331
 31
0.0
  0
TEXT
  5
122
  8
DIEM
  6
CONTINUOUS
 62
    93
 10
7.548633131664246
 20
3.290306806564331
 30
0.0
 40
0.125
  1
LOCATING
  7
ENGINEER
  0
TEXT
  5
123
  8
DIEM
  6
CONTINUOUS
 62
    93
 10
7.554871559143066
 20
3.102806806564331
 30
0.0
 40
0.125
  1
PROJECTION
  7
ENGINEER
  0
LINE
  5
124
  8
DIEM
  6
CONTINUOUS
 62
    93
 10
11.69333076477051
 20
3.828316926956177
 30
0.0
 11
11.63083076319321
 21
3.936570101518578
 31
0.0
  0
LINE
  5
125
  8
DIEM
  6
CONTINUOUS
 62
    93
 10
11.69333076477051
 20
3.828316926956177
 30
0.0
 11
11.75583076634781
 21
3.936570101518578
 31
0.0
  0
LINE
  5
126
  8
DIEM
  6
CONTINUOUS
 62
    93
 10
11.69333076477051
 20
6.078307151794434
 30
0.0
 11
11.75583076634781
 21
5.970053977232033
 31
0.0
  0
LINE
  5
127
  8
DIEM
  6
CONTINUOUS
 62
    93
 10
11.69333076477051
 20
6.078307151794434
 30
0.0
 11
11.63083076319321
 21
5.970053977232033
 31
0.0
  0
LINE
  5
128
  8
DIEM
  6
CONTINUOUS
 62
    93
 10
11.40776538848877
 20
3.828316926956177
 30
0.0
 11
11.94333076477051
 21
3.828316926956177
 31
0.0
  0
LINE
  5
129
  8
DIEM
  6
CONTINUOUS
 62
    93
 10
11.40776538848877
 20
6.078307151794434
 30
0.0
 11
11.94333076477051
 21
6.078307151794434
 31
0.0
  0
TEXT
  5
12A
  8
DIEM
  6
CONTINUOUS
 62
    93
 10
11.46814252040349
 20
4.678790166566614
 30
0.0
 40
0.125
  1
2 1/4"
  7
ENGINEER
  0
LINE
  5
12B
  8
DIEM
  6
CONTINUOUS
 62
    93
 10
11.69333076477051
 20
3.828316926956177
 30
0.0
 11
11.69333076477051
 21
4.647540166566614
 31
0.0
  0
LINE
  5
12C
  8
DIEM
  6
CONTINUOUS
 62
    93
 10
11.69333076477051
 20
4.835213825514074
 30
0.0
 11
11.69333076477051
 21
6.078307151794434
 31
0.0
  0
LINE
  5
12D
  8
DIEM
  6
CONTINUOUS
 62
    93
 10
12.32300186157227
 20
3.015807390213013
 30
0.0
 11
12.26050185999497
 21
3.124060564775414
 31
0.0
  0
LINE
  5
12E
  8
DIEM
  6
CONTINUOUS
 62
    93
 10
12.32300186157227
 20
3.015807390213013
 30
0.0
 11
12.38550186314957
 21
3.124060564775414
 31
0.0
  0
LINE
  5
12F
  8
DIEM
  6
CONTINUOUS
 62
    93
 10
12.32300186157227
 20
6.89080810546875
 30
0.0
 11
12.38550186314957
 21
6.78255493090635
 31
0.0
  0
LINE
  5
130
  8
DIEM
  6
CONTINUOUS
 62
    93
 10
12.32300186157227
 20
6.89080810546875
 30
0.0
 11
12.26050185999497
 21
6.78255493090635
 31
0.0
  0
LINE
  5
131
  8
DIEM
  6
CONTINUOUS
 62
    93
 10
9.901084899902344
 20
3.015807390213013
 30
0.0
 11
12.57300186157227
 21
3.015807390213013
 31
0.0
  0
LINE
  5
132
  8
DIEM
  6
CONTINUOUS
 62
    93
 10
9.901084899902344
 20
6.89080810546875
 30
0.0
 11
12.57300186157227
 21
6.89080810546875
 31
0.0
  0
TEXT
  5
133
  8
DIEM
  6
CONTINUOUS
 62
    93
 10
12.06960724899546
 20
5.187610859051347
 30
0.0
 40
0.125
  1
3 7/8"
  7
ENGINEER
  0
LINE
  5
134
  8
DIEM
  6
CONTINUOUS
 62
    93
 10
12.32300186157227
 20
3.015807390213013
 30
0.0
 11
12.32300186157227
 21
5.156360859051347
 31
0.0
  0
LINE
  5
135
  8
DIEM
  6
CONTINUOUS
 62
    93
 10
12.32300186157227
 20
5.344676977023482
 30
0.0
 11
12.32300186157227
 21
6.89080810546875
 31
0.0
  0
LINE
  5
136
  8
DIEM
  6
CONTINUOUS
 62
    93
 10
10.46274471282959
 20
5.802854537963867
 30
0.0
 11
10.56815400237158
 21
5.735669110390222
 31
0.0
  0
LINE
  5
137
  8
DIEM
  6
CONTINUOUS
 62
    93
 10
10.46274471282959
 20
5.802854537963867
 30
0.0
 11
10.45726506691857
 21
5.677974701798497
 31
0.0
  0
LINE
  5
138
  8
DIEM
  6
CONTINUOUS
 62
    93
 10
10.46274471282959
 20
5.802854537963867
 30
0.0
 11
12.20306491851807
 21
2.457950592041016
 31
0.0
  0
LINE
  5
139
  8
DIEM
  6
CONTINUOUS
 62
    93
 10
12.20306491851807
 20
2.457950592041016
 30
0.0
 11
12.70306491851807
 21
2.457950592041016
 31
0.0
  0
TEXT
  5
13A
  8
DIEM
  6
CONTINUOUS
 62
    93
 10
12.76556491851807
 20
2.395450592041016
 30
0.0
 40
0.125
  1
BORE TO SUIT BUSHING
  7
ENGINEER
  0
TEXT
  5
13B
  8
DIEM
  6
CONTINUOUS
 62
    93
 10
14.15448665618897
 20
10.57113075256348
 30
0.0
 40
0.125
  1
ELECTRO AUTOMOTIVE
  7
ENGINEER
  0
TEXT
  5
13C
  8
DIEM
  6
CONTINUOUS
 62
    93
 10
14.15448665618897
 20
10.38363075256348
 30
0.0
 40
0.125
  1
P.O. BOX 1113 FELTON CA. 95018-1113
  7
ENGINEER
  0
TEXT
  5
13D
  8
DIEM
  6
CONTINUOUS
 62
    93
 10
14.15448665618897
 20
10.00863075256348
 30
0.0
 40
0.125
  1
DRAWN BY MICHAEL P. BROWN
  7
ENGINEER
  0
LINE
  5
13E
  8
DIEM
  6
CONTINUOUS
 62
    93
 10
14.0217399597168
 20
10.80862617492676
 30
0.0
 11
17.58819007873535
 21
10.80862617492676
 31
0.0
  0
LINE
  5
13F
  8
DIEM
  6
CONTINUOUS
 62
    93
 10
17.58819007873535
 20
10.80862617492676
 30
0.0
 11
17.58819007873535
 21
9.908641815185547
 31
0.0
  0
LINE
  5
140
  8
DIEM
  6
CONTINUOUS
 62
    93
 10
17.58819007873535
 20
9.908641815185547
 30
0.0
 11
14.0217399597168
 21
9.908641815185547
 31
0.0
  0
LINE
  5
141
  8
DIEM
  6
CONTINUOUS
 62
    93
 10
14.0217399597168
 20
9.908641815185547
 30
0.0
 11
14.0217399597168
 21
10.80862617492676
 31
0.0
  0
LINE
  5
142
  8
DIEM
  6
CONTINUOUS
 62
    93
 10
4.016751691987823
 20
5.969700296385287
 30
0.0
 11
3.954251739559706
 21
5.861447093446607
 31
0.0
  0
LINE
  5
143
  8
DIEM
  6
CONTINUOUS
 62
    93
 10
4.016751691987823
 20
5.969700296385287
 30
0.0
 11
3.891751691987833
 21
5.969700245096631
 31
0.0
  0
LINE
  5
144
  8
DIEM
  6
CONTINUOUS
 62
    93
 10
3.429937124252319
 20
4.953307151794434
 30
0.0
 11
3.367437122675021
 21
5.061560326356834
 31
0.0
  0
LINE
  5
145
  8
DIEM
  6
CONTINUOUS
 62
    93
 10
3.429937124252319
 20
4.953307151794434
 30
0.0
 11
3.492437125829618
 21
5.061560326356834
 31
0.0
  0
LINE
  5
146
  8
DIEM
  6
CONTINUOUS
 62
    93
 10
4.220816589246367
 20
5.616249873104051
 30
0.0
 11
3.891751599998678
 21
6.186206594221414
 31
0.0
  0
LINE
  5
147
  8
DIEM
  6
CONTINUOUS
 62
    93
 10
3.838067770004273
 20
4.953307151794434
 30
0.0
 11
3.179937124252319
 21
4.953307151794434
 31
0.0
  0
TEXT
  5
148
  8
DIEM
  6
CONTINUOUS
 62
    93
 10
3.458613481613396
 20
5.477397255743856
 30
0.0
 40
0.125
  1
60¦
  7
ENGINEER
  0
ARC
  5
149
  8
DIEM
  6
CONTINUOUS
 62
    93
 10
4.603567123413085
 20
4.953307151794431
 30
0.0
 40
1.173629999160769
 50
120.0000243438142
 51
144.544419326413
  0
ARC
  5
14A
  8
DIEM
  6
CONTINUOUS
 62
    93
 10
4.603567123413082
 20
4.953307151794433
 30
0.0
 40
1.173629999160763
 50
155.1699577824089
 51
179.9999999999999
  0
LINE
  5
14B
  8
DIEM
  6
CONTINUOUS
 62
    93
 10
5.899921742574717
 20
3.040471862006683
 30
0.0
 11
5.962421742574717
 21
3.040471862006683
 31
0.0
  0
LINE
  5
14C
  8
DIEM
  6
CONTINUOUS
 62
    93
 10
4.997960799851465
 20
4.371359796333665
 30
0.0
 11
4.885491282905057
 21
4.425908927929333
 31
0.0
  0
LINE
  5
14D
  8
DIEM
  6
CONTINUOUS
 62
    93
 10
4.997960799851465
 20
4.371359796333665
 30
0.0
 11
4.988966978727666
 21
4.496035821220541
 31
0.0
  0
LINE
  5
14E
  8
DIEM
  6
CONTINUOUS
 62
    93
 10
4.209173446974707
 20
5.535254507255202
 30
0.0
 11
4.321642963921115
 21
5.480705375659534
 31
0.0
  0
LINE
  5
14F
  8
DIEM
  6
CONTINUOUS
 62
    93
 10
4.209173446974707
 20
5.535254507255202
 30
0.0
 11
4.218167268098506
 21
5.410578482368326
 31
0.0
  0
TEXT
  5
150
  8
DIEM
  6
CONTINUOUS
 62
    93
 10
5.993671742574717
 20
2.977885032532953
 30
0.0
 40
0.125
  1
1 13/32"
  7
ENGINEER
  0
LINE
  5
151
  8
DIEM
  6
CONTINUOUS
 62
    93
 10
4.209173446974707
 20
5.535254507255202
 30
0.0
 11
5.899921742574717
 21
3.040471862006683
 31
0.0
  0
CIRCLE
  5
152
  8
HUBFT
  6
CONTINUOUS
 62
    93
 10
3.598266363143921
 20
5.966590881347656
 30
0.0
 40
0.2034994831267635
  0
CIRCLE
  5
154
  8
HUBFT
  6
CONTINUOUS
 62
    93
 10
3.184003591537476
 20
4.828413009643555
 30
0.0
 40
0.2035002862534982
  0
CIRCLE
  5
155
  8
HUBFT
  6
CONTINUOUS
 62
    93
 10
5.532664299011231
 20
6.051048278808594
 30
0.0
 40
0.203499363034575
  0
CIRCLE
  5
156
  8
HUBFT
  6
CONTINUOUS
 62
    93
 10
3.690436124801636
 20
3.855566263198853
 30
0.0
 40
0.203499486901204
  0
CIRCLE
  5
157
  8
HUBFT
  6
CONTINUOUS
 62
    93
 10
4.736444473266602
 20
3.525760889053345
 30
0.0
 40
0.2034998112308979
  0
CIRCLE
  5
158
  8
HUBFT
  6
CONTINUOUS
 62
    93
 10
5.709291458129883
 20
4.032193183898926
 30
0.0
 40
0.2035000935921975
  0
CIRCLE
  5
159
  8
HUBFT
  6
CONTINUOUS
 62
    93
 10
6.039096832275391
 20
5.078202247619629
 30
0.0
 40
0.2034998112308979
  0
CIRCLE
  5
15A
  8
HUBFT
  6
CONTINUOUS
 62
    93
 10
4.611550331115723
 20
4.953307151794434
 30
0.0
 40
0.375
  0
CIRCLE
  5
15B
  8
HUBFT
  6
GC___6
 62
    93
 10
4.611550331115723
 20
4.953307151794434
 30
0.0
 40
0.7030000686645508
  0
CIRCLE
  5
15C
  8
HUBFT
  6
CONTINUOUS
 62
    93
 10
3.908550500869751
 20
4.953307151794434
 30
0.0
 40
0.1015501022338867
  0
CIRCLE
  5
15D
  8
HUBFT
  6
CONTINUOUS
 62
    93
 10
3.908550500869751
 20
4.953307151794434
 30
0.0
 40
0.1796998977661133
  0
CIRCLE
  5
15E
  8
HUBFT
  6
CONTINUOUS
 62
    93
 10
4.260050773620606
 20
4.344491004943848
 30
0.0
 40
0.1015498777977989
  0
CIRCLE
  5
15F
  8
HUBFT
  6
CONTINUOUS
 62
    93
 10
4.260050773620606
 20
4.344491004943848
 30
0.0
 40
0.1796994109071462
  0
CIRCLE
  5
160
  8
HUBFT
  6
CONTINUOUS
 62
    93
 10
4.963050842285156
 20
4.344491958618164
 30
0.0
 40
0.1015503546348914
  0
CIRCLE
  5
161
  8
HUBFT
  6
CONTINUOUS
 62
    93
 10
4.963050842285156
 20
4.344491958618164
 30
0.0
 40
0.1796998877449637
  0
CIRCLE
  5
162
  8
HUBFT
  6
CONTINUOUS
 62
    93
 10
5.314550399780273
 20
4.953307151794434
 30
0.0
 40
0.1015501022338867
  0
CIRCLE
  5
163
  8
HUBFT
  6
CONTINUOUS
 62
    93
 10
5.314550399780273
 20
4.953307151794434
 30
0.0
 40
0.1796998977661133
  0
CIRCLE
  5
164
  8
HUBFT
  6
CONTINUOUS
 62
    93
 10
4.96304988861084
 20
5.56212329864502
 30
0.0
 40
0.1015503546348914
  0
CIRCLE
  5
165
  8
HUBFT
  6
CONTINUOUS
 62
    93
 10
4.96304988861084
 20
5.56212329864502
 30
0.0
 40
0.1797007136503049
  0
CIRCLE
  5
166
  8
HUBFT
  6
CONTINUOUS
 62
    93
 10
4.260049819946289
 20
5.56212329864502
 30
0.0
 40
0.1015498777977989
  0
CIRCLE
  5
167
  8
HUBFT
  6
CONTINUOUS
 62
    93
 10
4.260049819946289
 20
5.56212329864502
 30
0.0
 40
0.179700236814679
  0
CIRCLE
  5
168
  8
HUBFT
  6
CONTINUOUS
 62
    93
 10
4.603567123413086
 20
6.38980770111084
 30
0.0
 40
0.2034997940063477
  0
POINT
  5
169
  8
HUBFT
  6
CONTINUOUS
 62
    93
 10
4.603567123413086
 20
4.953307496392115
 30
0.0
  0
CIRCLE
  5
16A
  8
HUBFT
  6
GC___6
 62
    93
 10
4.603567123413086
 20
4.953307496392115
 30
0.0
 40
1.436500549316406
  0
CIRCLE
  5
16B
  8
HUBFT
  6
CONTINUOUS
 62
    93
 10
4.603567123413086
 20
4.953307496392115
 30
0.0
 40
0.9450006484985352
  0
CIRCLE
  5
16C
  8
HUBFT
  6
CONTINUOUS
 62
    93
 10
4.603567123413086
 20
4.953307496392115
 30
0.0
 40
1.937500953674316
  0
POINT
  5
16D
  8
HUB2
  6
CONTINUOUS
 62
     1
 10
9.025585174560547
 20
4.953308020523411
 30
0.0
  0
LINE
  5
16F
  8
HUB2
  6
CONTINUOUS
 62
    93
 10
9.213585376739502
 20
6.890808020523411
 30
0.0
 11
9.838585376739502
 21
6.890808020523411
 31
0.0
  0
LINE
  5
170
  8
HUB2
  6
CONTINUOUS
 62
    93
 10
9.213585376739502
 20
3.015808020523411
 30
0.0
 11
9.838585376739502
 21
3.015808020523411
 31
0.0
  0
LINE
  5
171
  8
HUB2
  6
CONTINUOUS
 62
    93
 10
9.213585376739502
 20
4.008308325699193
 30
0.0
 11
9.213585376739502
 21
3.015808020523411
 31
0.0
  0
LINE
  5
172
  8
HUB2
  6
CONTINUOUS
 62
    93
 10
9.838585376739502
 20
6.078308020523411
 30
0.0
 11
9.838585376739502
 21
6.890808020523411
 31
0.0
  0
LINE
  5
173
  8
HUB2
  6
CONTINUOUS
 62
    93
 10
9.838585376739502
 20
3.828317557266575
 30
0.0
 11
9.838585376739502
 21
3.015808020523411
 31
0.0
  0
LINE
  5
174
  8
HUB2
  6
CONTINUOUS
 62
    93
 10
9.213585376739502
 20
6.565807257583958
 30
0.0
 11
9.838585376739502
 21
6.565807257583958
 31
0.0
  0
LINE
  5
175
  8
HUB2
  6
CONTINUOUS
 62
    93
 10
9.213585376739502
 20
6.206808005264622
 30
0.0
 11
9.838585376739502
 21
6.206808005264622
 31
0.0
  0
LINE
  5
176
  8
HUB2
  6
CONTINUOUS
 62
    93
 10
9.244585514068604
 20
6.538070593765599
 30
0.0
 11
9.244585514068604
 21
6.234544669082982
 31
0.0
  0
LINE
  5
177
  8
HUB2
  6
CONTINUOUS
 62
    93
 10
9.276085376739502
 20
6.565807257583958
 30
0.0
 11
9.276085376739502
 21
6.206808005264622
 31
0.0
  0
LINE
  5
178
  8
HUB2
  6
CONTINUOUS
 62
    93
 10
9.307335376739502
 20
6.538070593765599
 30
0.0
 11
9.307335376739502
 21
6.234544669082982
 31
0.0
  0
LINE
  5
179
  8
HUB2
  6
CONTINUOUS
 62
    93
 10
9.3700852394104
 20
6.538070593765599
 30
0.0
 11
9.3700852394104
 21
6.234544669082982
 31
0.0
  0
LINE
  5
17A
  8
HUB2
  6
CONTINUOUS
 62
    93
 10
9.432835102081299
 20
6.538070593765599
 30
0.0
 11
9.432835102081299
 21
6.234544669082982
 31
0.0
  0
LINE
  5
17B
  8
HUB2
  6
CONTINUOUS
 62
    93
 10
9.495584964752197
 20
6.538070593765599
 30
0.0
 11
9.495584964752197
 21
6.234544669082982
 31
0.0
  0
LINE
  5
17C
  8
HUB2
  6
CONTINUOUS
 62
    93
 10
9.558334827423096
 20
6.538070593765599
 30
0.0
 11
9.558334827423096
 21
6.234544669082982
 31
0.0
  0
LINE
  5
17D
  8
HUB2
  6
CONTINUOUS
 62
    93
 10
9.621084690093994
 20
6.538070593765599
 30
0.0
 11
9.621084690093994
 21
6.234544669082982
 31
0.0
  0
LINE
  5
17E
  8
HUB2
  6
CONTINUOUS
 62
    93
 10
9.683834552764893
 20
6.538070593765599
 30
0.0
 11
9.683834552764893
 21
6.234544669082982
 31
0.0
  0
LINE
  5
17F
  8
HUB2
  6
CONTINUOUS
 62
    93
 10
9.746584415435791
 20
6.538070593765599
 30
0.0
 11
9.746584415435791
 21
6.234544669082982
 31
0.0
  0
LINE
  5
180
  8
HUB2
  6
CONTINUOUS
 62
    93
 10
9.80933427810669
 20
6.538070593765599
 30
0.0
 11
9.80933427810669
 21
6.234544669082982
 31
0.0
  0
LINE
  5
181
  8
HUB2
  6
CONTINUOUS
 62
    93
 10
9.338585376739502
 20
6.565807257583958
 30
0.0
 11
9.338585376739502
 21
6.206808005264622
 31
0.0
  0
LINE
  5
182
  8
HUB2
  6
CONTINUOUS
 62
    93
 10
9.401085376739502
 20
6.565807257583958
 30
0.0
 11
9.401085376739502
 21
6.206808005264622
 31
0.0
  0
LINE
  5
183
  8
HUB2
  6
CONTINUOUS
 62
    93
 10
9.463585376739502
 20
6.565807257583958
 30
0.0
 11
9.463585376739502
 21
6.206808005264622
 31
0.0
  0
LINE
  5
184
  8
HUB2
  6
CONTINUOUS
 62
    93
 10
9.526085376739502
 20
6.565807257583958
 30
0.0
 11
9.526085376739502
 21
6.206808005264622
 31
0.0
  0
LINE
  5
185
  8
HUB2
  6
CONTINUOUS
 62
    93
 10
9.588585376739502
 20
6.565807257583958
 30
0.0
 11
9.588585376739502
 21
6.206808005264622
 31
0.0
  0
LINE
  5
186
  8
HUB2
  6
CONTINUOUS
 62
    93
 10
9.651085376739502
 20
6.565807257583958
 30
0.0
 11
9.651085376739502
 21
6.206808005264622
 31
0.0
  0
LINE
  5
187
  8
HUB2
  6
CONTINUOUS
 62
    93
 10
9.713585376739502
 20
6.565807257583958
 30
0.0
 11
9.713585376739502
 21
6.206808005264622
 31
0.0
  0
LINE
  5
188
  8
HUB2
  6
CONTINUOUS
 62
    93
 10
9.776085376739502
 20
6.565807257583958
 30
0.0
 11
9.776085376739502
 21
6.206808005264622
 31
0.0
  0
LINE
  5
189
  8
HUB2
  6
CONTINUOUS
 62
    93
 10
9.838585376739502
 20
6.565807257583958
 30
0.0
 11
9.838585376739502
 21
6.206808005264622
 31
0.0
  0
LINE
  5
18A
  8
HUB2
  6
GC___6
 62
    93
 10
8.91701602935791
 20
6.389807616165501
 30
0.0
 11
9.875795841217041
 21
6.389807616165501
 31
0.0
  0
LINE
  5
18B
  8
HUB2
  6
CONTINUOUS
 62
    93
 10
9.953085422515869
 20
4.153307829788548
 30
0.0
 11
9.953085422515869
 21
5.75987998097263
 31
0.0
  0
LINE
  5
18C
  8
HUB2
  6
CONTINUOUS
 62
    93
 10
9.838585376739502
 20
3.828317557266575
 30
0.0
 11
11.34526491165161
 21
3.828317557266575
 31
0.0
  0
LINE
  5
18D
  8
HUB2
  6
CONTINUOUS
 62
    93
 10
9.838585376739502
 20
6.078308020523411
 30
0.0
 11
11.34526491165161
 21
6.078308020523411
 31
0.0
  0
LINE
  5
18E
  8
HUB2
  6
CONTINUOUS
 62
    93
 10
9.953085422515869
 20
4.153307829788548
 30
0.0
 11
11.34526491165161
 21
4.014562521866185
 31
0.0
  0
POINT
  5
18F
  8
HUB2
  6
CONTINUOUS
 62
    93
 10
9.953085422515869
 20
5.656416808060032
 30
0.0
  0
LINE
  5
190
  8
HUB2
  6
GC___6
 62
    93
 10
9.953085422515869
 20
5.656416808060032
 30
0.0
 11
8.895506858825684
 21
5.656416808060032
 31
0.0
  0
LINE
  5
191
  8
HUB2
  6
CONTINUOUS
 62
    93
 10
9.953085422515869
 20
5.328308020523411
 30
0.0
 11
9.025585174560547
 21
5.328308020523411
 31
0.0
  0
LINE
  5
192
  8
HUB2
  6
CONTINUOUS
 62
    93
 10
9.953085422515869
 20
4.578307543686253
 30
0.0
 11
9.025585174560547
 21
4.578307543686253
 31
0.0
  0
POINT
  5
193
  8
HUB2
  6
CONTINUOUS
 62
    93
 10
9.025585174560547
 20
5.656416808060032
 30
0.0
  0
POINT
  5
194
  8
HUB2
  6
CONTINUOUS
 62
    93
 10
9.213085174560547
 20
5.65743914692722
 30
0.0
  0
POINT
  5
195
  8
HUB2
  6
CONTINUOUS
 62
    93
 10
9.213085174560547
 20
5.758989249161107
 30
0.0
  0
POINT
  5
196
  8
HUB2
  6
CONTINUOUS
 62
    93
 10
9.213085174560547
 20
5.555889044693333
 30
0.0
  0
LINE
  5
197
  8
HUB2
  6
CONTINUOUS
 62
    93
 10
9.025585174560547
 20
5.492417250564915
 30
0.0
 11
9.213085174560547
 21
5.492417250564915
 31
0.0
  0
LINE
  5
198
  8
HUB2
  6
CONTINUOUS
 62
    93
 10
9.025585174560547
 20
5.820416842392308
 30
0.0
 11
9.213085174560547
 21
5.820416842392308
 31
0.0
  0
LINE
  5
199
  8
HUB2
  6
CONTINUOUS
 62
    93
 10
9.213085174560547
 20
5.820416842392308
 30
0.0
 11
9.213085174560547
 21
5.492417250564915
 31
0.0
  0
LINE
  5
19A
  8
HUB2
  6
CONTINUOUS
 62
    93
 10
9.213085174560547
 20
5.758989249161107
 30
0.0
 11
10.022591319439
 21
5.758989249161107
 31
0.0
  0
LINE
  5
19B
  8
HUB2
  6
CONTINUOUS
 62
    93
 10
10.022591319439
 20
5.758989249161107
 30
0.0
 11
11.34526491165161
 21
5.890808020523411
 31
0.0
  0
LINE
  5
19C
  8
HUB2
  6
CONTINUOUS
 62
    93
 10
9.213085174560547
 20
5.555889044693333
 30
0.0
 11
9.953085422515869
 21
5.555889044693333
 31
0.0
  0
INSERT
  5
19D
  8
HUB2
  6
CONTINUOUS
 62
    93
  2
*X1
 10
0.0
 20
0.0
 30
0.0
1001
ACAD
1000
HATCH
1002
{
1070
    19
1000
ANSI31
1040
0.0625
1040
0.0
1000
R14_HATCH_DATA
1000
19D
1011
1.0
1021
0.0
1031
0.0
1021
0.0
1031
0.0
1011
0.0
1021
1.0
1031
0.0
1021
1.0
1031
0.0
1011
0.0
1021
0.0
1031
1.0
1021
0.0
1031
1.0
1040
0.0
1010
0.0
1020
0.0
1030
1.0
1020
0.0
1030
1.0
1000
ANSI31
1070
     0
1070
     2
1071
        1
1071
        3
1070
     0
1070
     1
1071
        6
1040
9.213085174560547
1040
5.555889044693333
1040
9.953085422515869
1040
5.555889044693333
1040
9.953085422515869
1040
5.328308020523411
1040
9.025585174560547
1040
5.328308020523411
1040
9.025585174560547
1040
5.492417250564915
1040
9.213085174560547
1040
5.492417250564915
1071
        0
1070
     0
1070
     2
1040
0.0
1040
0.0625
1070
     0
1070
     1
1040
0.7853981633974483
1040
0.0
1040
0.0
1040
0.0441941738241592
1040
-0.0441941738241592
1070
     1
1040
625.0
1071
        0
1002
}
  0
INSERT
  5
19E
  8
HUB2
  6
CONTINUOUS
 62
    93
  2
*X2
 10
0.0
 20
0.0
 30
0.0
1001
ACAD
1000
HATCH
1002
{
1070
    19
1000
ANSI31
1040
0.0625
1040
0.0
1000
R14_HATCH_DATA
1000
19E
1011
1.0
1021
0.0
1031
0.0
1021
0.0
1031
0.0
1011
0.0
1021
1.0
1031
0.0
1021
1.0
1031
0.0
1011
0.0
1021
0.0
1031
1.0
1021
0.0
1031
1.0
1040
0.0
1010
0.0
1020
0.0
1030
1.0
1020
0.0
1030
1.0
1000
ANSI31
1070
     0
1070
     2
1071
        1
1071
        3
1070
     0
1070
     1
1071
        4
1040
9.213585376739502
1040
6.890808020523411
1040
9.213585376739502
1040
6.565807257583958
1040
9.838585376739502
1040
6.565807257583958
1040
9.838585376739502
1040
6.890808020523411
1071
        0
1070
     0
1070
     2
1040
0.0
1040
0.0625
1070
     0
1070
     1
1040
0.7853981633974483
1040
0.0
1040
0.0
1040
0.0441941738241592
1040
-0.0441941738241592
1070
     1
1040
625.0
1071
        0
1002
}
  0
POINT
  5
19F
  8
HUB2
  6
CONTINUOUS
 62
     1
 10
9.025585174560547
 20
4.953308020523411
 30
0.0
  0
LINE
  5
1A0
  8
HUB2
  6
CONTINUOUS
 62
    93
 10
11.34526491165161
 20
3.828317557266575
 30
0.0
 11
11.34526491165161
 21
6.078308020523411
 31
0.0
  0
LINE
  5
1A1
  8
HUB2
  6
CONTINUOUS
 62
    93
 10
9.025585174560547
 20
5.898308020523412
 30
0.0
 11
9.025585174560547
 21
4.008308020523412
 31
0.0
  0
LINE
  5
1A2
  8
HUB2
  6
CONTINUOUS
 62
    93
 10
9.025585174560547
 20
4.008308020523412
 30
0.0
 11
9.213585376739502
 21
4.008308020523412
 31
0.0
  0
LINE
  5
1A3
  8
HUB2
  6
CONTINUOUS
 62
    93
 10
9.025585174560547
 20
5.898308020523412
 30
0.0
 11
9.213585174560548
 21
5.898308020523412
 31
0.0
  0
LINE
  5
1A4
  8
HUB2
  6
CONTINUOUS
 62
    93
 10
9.213585376739502
 20
5.898308020523412
 30
0.0
 11
9.213585376739502
 21
6.890808020523411
 31
0.0
  0
INSERT
  5
1A5
  8
HUB2
  6
CONTINUOUS
 62
    93
  2
*X3
 10
0.0
 20
0.0
 30
0.0
1001
ACAD
1000
HATCH
1002
{
1070
    19
1000
ANSI31
1040
0.0625
1040
1.570796326794897
1000
R14_HATCH_DATA
1000
1A5
1011
1.0
1021
0.0
1031
0.0
1021
0.0
1031
0.0
1011
0.0
1021
1.0
1031
0.0
1021
1.0
1031
0.0
1011
0.0
1021
0.0
1031
1.0
1021
0.0
1031
1.0
1040
0.0
1010
0.0
1020
0.0
1030
1.0
1020
0.0
1030
1.0
1000
ANSI31
1070
     0
1070
     2
1071
        0
1070
     0
1070
     2
1040
1.570796326794897
1040
0.0625
1070
     0
1070
     1
1040
2.356194490192345
1040
0.0
1040
0.0
1040
0.0441941738241592
1040
0.0441941738241592
1070
     1
1040
625.0
1071
        0
1002
}
  0
INSERT
  5
1A6
  8
HUB2
  6
CONTINUOUS
 62
    93
  2
*X4
 10
0.0
 20
0.0
 30
0.0
1001
ACAD
1000
HATCH
1002
{
1070
    19
1000
ANSI31
1040
0.0625
1040
0.0
1000
R14_HATCH_DATA
1000
1A6
1011
1.0
1021
0.0
1031
0.0
1021
0.0
1031
0.0
1011
0.0
1021
1.0
1031
0.0
1021
1.0
1031
0.0
1011
0.0
1021
0.0
1031
1.0
1021
0.0
1031
1.0
1040
0.0
1010
0.0
1020
0.0
1030
1.0
1020
0.0
1030
1.0
1000
ANSI31
1070
     0
1070
     2
1071
        1
1071
        3
1070
     0
1070
     1
1071
       10
1040
11.34526491165161
1040
4.014562521866185
1040
9.953085422515869
1040
4.153307829788548
1040
9.953085422515869
1040
4.578307543686253
1040
9.025585174560547
1040
4.578307543686253
1040
9.025585174560547
1040
4.008308020523412
1040
9.213585376739502
1040
4.008308020523412
1040
9.213585376739502
1040
3.015808020523411
1040
9.838585376739502
1040
3.015808020523411
1040
9.838585376739502
1040
3.828317557266575
1040
11.34526491165161
1040
3.828317557266575
1071
        0
1070
     0
1070
     2
1040
0.0
1040
0.0625
1070
     0
1070
     1
1040
0.7853981633974483
1040
0.0
1040
0.0
1040
0.0441941738241592
1040
-0.0441941738241592
1070
     1
1040
625.0
1071
        0
1002
}
  0
INSERT
  5
1A7
  8
HUB2
  6
CONTINUOUS
 62
    93
  2
*X5
 10
0.0
 20
0.0
 30
0.0
1001
ACAD
1000
HATCH
1002
{
1070
    19
1000
ANSI31
1040
0.0625
1040
0.0
1000
R14_HATCH_DATA
1000
1A7
1011
1.0
1021
0.0
1031
0.0
1021
0.0
1031
0.0
1011
0.0
1021
1.0
1031
0.0
1021
1.0
1031
0.0
1011
0.0
1021
0.0
1031
1.0
1021
0.0
1031
1.0
1040
0.0
1010
0.0
1020
0.0
1030
1.0
1020
0.0
1030
1.0
1000
ANSI31
1070
     0
1070
     2
1071
        1
1071
        3
1070
     0
1070
     1
1071
       11
1040
10.022591319439
1040
5.758989249161107
1040
11.34526491165161
1040
5.890808020523411
1040
11.34526491165161
1040
6.078308020523411
1040
9.838585376739502
1040
6.078308020523411
1040
9.838585376739502
1040
6.206808005264622
1040
9.213585376739502
1040
6.206808005264622
1040
9.213585376739502
1040
5.898308020523412
1040
9.025585174560547
1040
5.898308020523412
1040
9.025585174560547
1040
5.820416842392308
1040
9.213085174560547
1040
5.820416842392308
1040
9.213085174560547
1040
5.758989249161107
1071
        0
1070
     0
1070
     2
1040
0.0
1040
0.0625
1070
     0
1070
     1
1040
0.7853981633974483
1040
0.0
1040
0.0
1040
0.0441941738241592
1040
-0.0441941738241592
1070
     1
1040
625.0
1071
        0
1002
}
  0
LINE
  5
1A8
  8
DIEM
  6
CONTINUOUS
 62
    93
 10
8.285775815990579
 20
4.008307456970215
 30
0.0
 11
8.223275814422399
 21
4.11656063153788
 31
0.0
  0
LINE
  5
1A9
  8
DIEM
  6
CONTINUOUS
 62
    93
 10
8.285775815990579
 20
4.008307456970215
 30
0.0
 11
8.34827581755876
 21
4.11656063153788
 31
0.0
  0
LINE
  5
1AA
  8
DIEM
  6
CONTINUOUS
 62
    93
 10
8.285775815990579
 20
5.898308020523412
 30
0.0
 11
8.34827581755876
 21
5.790054845955746
 31
0.0
  0
LINE
  5
1AB
  8
DIEM
  6
CONTINUOUS
 62
    93
 10
8.285775815990579
 20
5.898308020523412
 30
0.0
 11
8.223275814422399
 21
5.790054845955746
 31
0.0
  0
LINE
  5
1AC
  8
DIEM
  6
CONTINUOUS
 62
    93
 10
8.963085174560547
 20
4.008307456970215
 30
0.0
 11
8.035775815990579
 21
4.008307456970215
 31
0.0
  0
LINE
  5
1AD
  8
DIEM
  6
CONTINUOUS
 62
    93
 10
8.963085174560547
 20
5.898308020523412
 30
0.0
 11
8.035775815990579
 21
5.898308020523412
 31
0.0
  0
TEXT
  5
1AE
  8
DIEM
  6
CONTINUOUS
 62
    93
 10
7.842792528371152
 20
4.655485479305584
 30
0.0
 40
0.125
  1
1.890"
  7
ENGINEER
  0
TEXT
  5
1AF
  8
DIEM
  6
CONTINUOUS
 62
    93
 10
8.254107886149374
 20
4.749784059967
 30
0.0
 40
0.125
  1
+.000"
  7
ENGINEER
  0
TEXT
  5
1B0
  8
DIEM
  6
CONTINUOUS
 62
    93
 10
8.254107886149374
 20
4.561186898644168
 30
0.0
 40
0.125
  1
-.001"
  7
ENGINEER
  0
LINE
  5
1B1
  8
DIEM
  6
CONTINUOUS
 62
    93
 10
8.285775815990579
 20
4.008307456970215
 30
0.0
 11
8.285775815990579
 21
4.530188148985703
 31
0.0
  0
LINE
  5
1B2
  8
DIEM
  6
CONTINUOUS
 62
    93
 10
8.285775815990579
 20
4.906879970948298
 30
0.0
 11
8.285775815990579
 21
5.898308020523412
 31
0.0
  0
TEXT
  5
1B3
  8
DIEM
  6
CONTINUOUS
 62
    93
 10
12.55968379974365
 20
8.59173583984375
 30
0.0
 40
0.125
  1
NOTE C--
  7
ENGINEER
  0
POINT
  5
1B4
  8
DIEM
  6
CONTINUOUS
 62
    93
 10
12.55968379974365
 20
8.59173583984375
 30
0.0
  0
TEXT
  5
1B5
  8
DIEM
  6
CONTINUOUS
 62
    93
 10
12.55968379974365
 20
8.40423583984375
 30
0.0
 40
0.125
  1
TO LOCATING PROJECTION DIAMETER x 3/16" HIGH AND THEN
  7
ENGINEER
  0
TEXT
  5
1B6
  8
DIEM
  6
CONTINUOUS
 62
    93
 10
12.55968379974365
 20
8.21673583984375
 30
0.0
 40
0.125
  1
TAP HOLES IN FACE OF HUB 10 x 1.0 mm THROUGH
  7
ENGINEER
  0
TEXT
  5
1B7
  8
DIEM
  6
CONTINUOUS
 62
    93
 10
12.55968379974365
 20
8.59173583984375
 30
0.0
 40
0.125
  1
         DRILL 23/64" THROUGH TURN FACE OF HUB
  7
ENGINEER
  0
TEXT
  5
1B8
  8
DIEM
  6
CONTINUOUS
 62
    93
 10
12.55968379974365
 20
9.618736267089844
 30
0.0
 40
0.125
  1
MOTOR HUB AND BUSHING TO ADAPT A 2002  PT CRUISER
  7
ENGINEER
  0
POINT
  5
1B9
  8
DIEM
  6
CONTINUOUS
 62
    93
 10
12.58524547443183
 20
9.436854856508557
 30
0.0
  0
TEXT
  5
1BA
  8
DIEM
  6
CONTINUOUS
 62
    93
 10
12.55968379974365
 20
9.436854856508557
 30
0.0
 40
0.125
  1
TO AN ADC 9" MOTOR.   DRAWING PLOTTED TO SCALE
  7
ENGINEER
  0
LINE
  5
1BB
  8
DIEM
  6
CONTINUOUS
 62
    93
 10
5.731455802917481
 20
6.094568252563477
 30
0.0
 11
5.774891865026453
 21
6.211778783269832
 31
0.0
  0
LINE
  5
1BC
  8
DIEM
  6
CONTINUOUS
 62
    93
 10
5.731455802917481
 20
6.094568252563477
 30
0.0
 11
5.854681131766352
 21
6.115556781099024
 31
0.0
  0
LINE
  5
1BD
  8
DIEM
  6
CONTINUOUS
 62
    93
 10
5.731455802917481
 20
6.094568252563477
 30
0.0
 11
6.398700714111328
 21
6.647861480712891
 31
0.0
  0
LINE
  5
1BE
  8
DIEM
  6
CONTINUOUS
 62
    93
 10
6.398700714111328
 20
6.647861480712891
 30
0.0
 11
6.898700714111328
 21
6.647861480712891
 31
0.0
  0
TEXT
  5
1BF
  8
DIEM
  6
CONTINUOUS
 62
    93
 10
6.961200714111328
 20
6.585361480712891
 30
0.0
 40
0.125
  1
SEE NOTE C
  7
ENGINEER
  0
TEXT
  5
1C0
  8
DIEM
  6
CONTINUOUS
 62
    93
 10
14.15448665618897
 20
10.19613075256348
 30
0.0
 40
0.125
  1
PHONE 831-429-1989 FAX 831-429-1907
  7
ENGINEER
  0
ENDSEC
  0
EOF
