  0
SECTION
  2
HEADER
999
AutoConvert v5.0, Generic Software, Inc.
  9
$EXTMIN
 10
15.310265
 20
-64.788589
  9
$EXTMAX
 10
47.510265
 20
-44.788593
  9
$LIMMIN
 10
15.310265
 20
-64.788589
  9
$LIMMAX
 10
47.510265
 20
-44.788593
  9
$LUNITS
 70
  2
  9
$LUPREC
 70
  3
  9
$ATTMODE
 70
  2
  9
$ATTREQ
 70
  1
  9
$AUNITS
 70
  0
  9
$AUPREC
 70
  3
  9
$BLIPMODE
 70
  1
  9
$CHAMFERA
 40
0.500000
  9
$CHAMFERB
 40
0.500000
  9
$COORDS
 70
  1
  9
$CLAYER
  8
DIMEN
  9
$DIMASZ
 40
0.125000
  9
$DIMEXE
 40
0.250000
  9
$DIMEXO
 40
0.063000
  9
$DIMPOST
  1
"
  9
$DIMSE1
 70
  0
  9
$DIMSE2
 70
  0
  9
$DRAGMODE
 70
  1
  9
$FILLMODE
 70
  1
  9
$ORTHOMODE
 70
  1
  9
$PDMODE
 70
  2
  9
$QTEXTMODE
 70
  0
  9
$TEXTSIZE
 40
0.313000
  9
$GRIDMODE
 70
  1
  9
$SNAPMODE
 70
  0
  9
$SNAPUNIT
 10
0.500000
 20
0.500000
  9
$GRIDUNIT
 10
0.500000
 20
0.500000
  9
$SNAPBASE
 10
0.000000
 20
0.000000
  0
ENDSEC
  0
SECTION
  2
TABLES
  0
TABLE
  2
LTYPE
 70
 30
  0
LTYPE
  2
CONTINUOUS
 70
 64
  3
SOLID LINE
 72
 65
 73
  0
 40
0.000000
  0
LTYPE
  2
DASHDOT
 70
 64
  3
__ . __ . __ . __ . __ . __ . __ . __ . __ . __
 72
 65
 73
  4
 40
1.000000
 49
0.500000
 49
-0.250000
 49
0.000000
 49
-0.250000
  0
ENDTAB
  0
TABLE
  2
LAYER
 70
255
  0
LAYER
  2
DIMEN
 62
  7
  6
CONTINUOUS
 70
 64
  0
LAYER
  2
PLATCENT
 62
 11
  6
CONTINUOUS
 70
 64
  0
LAYER
  2
BORD2TO1
 62
 11
  6
CONTINUOUS
 70
 64
  0
LAYER
  2
DOWTDOW
 62
 11
  6
CONTINUOUS
 70
 64
  0
LAYER
  2
HOLE2
 62
 11
  6
CONTINUOUS
 70
 64
  0
LAYER
  2
HOLES
 70
 64
 62
 15
  6
CONTINUOUS
  0
LAYER
  2
CENT2
 70
 64
 62
 15
  6
CONTINUOUS
  0
LAYER
  2
DEFPOINTS
 70
 64
 62
 -7
  6
CONTINUOUS
  0
ENDTAB
  0
TABLE
  2
STYLE
 70
100
  0
STYLE
  2
ENGINEER
 70
  0
 40
0.000000
 41
1.000000
 42
1.000000
 50
0.000000
 71
  0
  3
ROMANS
  0
ENDTAB
  0
ENDSEC
  0
SECTION
  2
BLOCKS
  0
BLOCK
  8
DIMEN
 62
11
  6
CONTINUOUS
  2
*D0
 10
0.000000
 20
0.000000
 30
0.000000
 70
  1
  0
LINE
  8
DIMEN
 62
11
  6
CONTINUOUS
 10
25.488607
 20
-50.928864
 30
0.000000
 11
26.364281
 21
-49.902439
 31
0.000000
  0
LINE
  8
DIMEN
 62
11
  6
CONTINUOUS
 10
26.364281
 20
-49.902439
 30
0.000000
 11
26.489281
 21
-49.902439
 31
0.000000
  0
LINE
  8
DIMEN
 62
11
  6
CONTINUOUS
 10
25.488607
 20
-50.928864
 30
0.000000
 11
25.606415
 21
-50.887074
 31
0.000000
  0
LINE
  8
DIMEN
 62
11
  6
CONTINUOUS
 10
25.511320
 20
-50.805943
 30
0.000000
 11
25.488607
 21
-50.928864
 31
0.000000
  0
TEXT
  8
DIMEN
 62
11
  6
CONTINUOUS
 10
26.552280
 20
-50.277439
 30
0.000000
 40
0.750000
  7
ENGINEER
  1
C
  0
ENDBLK
  8
0
  0
BLOCK
  8
DIMEN
 62
11
  6
CONTINUOUS
  2
*D1
 10
0.000000
 20
0.000000
 30
0.000000
 70
  1
  0
LINE
  8
DIMEN
 62
11
  6
CONTINUOUS
 10
25.500725
 20
-54.588638
 30
0.000000
 11
25.876223
 21
-54.147793
 31
0.000000
  0
LINE
  8
DIMEN
 62
11
  6
CONTINUOUS
 10
25.876223
 20
-54.147793
 30
0.000000
 11
26.001223
 21
-54.147793
 31
0.000000
  0
LINE
  8
DIMEN
 62
11
  6
CONTINUOUS
 10
25.500725
 20
-54.588638
 30
0.000000
 11
25.618500
 21
-54.546753
 31
0.000000
  0
LINE
  8
DIMEN
 62
11
  6
CONTINUOUS
 10
25.523340
 20
-54.465702
 30
0.000000
 11
25.500725
 21
-54.588638
 31
0.000000
  0
TEXT
  8
DIMEN
 62
11
  6
CONTINUOUS
 10
26.064222
 20
-54.522793
 30
0.000000
 40
0.750000
  7
ENGINEER
  1
A
  0
ENDBLK
  8
0
  0
BLOCK
  8
DIMEN
 62
11
  6
CONTINUOUS
  2
*D2
 10
0.000000
 20
0.000000
 30
0.000000
 70
  1
  0
LINE
  8
DIMEN
 62
11
  6
CONTINUOUS
 10
29.160469
 20
-54.610016
 30
0.000000
 11
29.793629
 21
-54.065517
 31
0.000000
  0
LINE
  8
DIMEN
 62
11
  6
CONTINUOUS
 10
29.793629
 20
-54.065517
 30
0.000000
 11
29.918629
 21
-54.065517
 31
0.000000
  0
LINE
  8
DIMEN
 62
11
  6
CONTINUOUS
 10
29.160469
 20
-54.610016
 30
0.000000
 11
29.283298
 21
-54.586819
 31
0.000000
  0
LINE
  8
DIMEN
 62
11
  6
CONTINUOUS
 10
29.201794
 20
-54.492046
 30
0.000000
 11
29.160469
 21
-54.610016
 31
0.000000
  0
TEXT
  8
DIMEN
 62
11
  6
CONTINUOUS
 10
29.981628
 20
-54.440517
 30
0.000000
 40
0.750000
  7
ENGINEER
  1
B
  0
ENDBLK
  8
0
  0
BLOCK
  8
DIMEN
 62
11
  6
CONTINUOUS
  2
*D3
 10
0.000000
 20
0.000000
 30
0.000000
 70
  1
  0
LINE
  8
DIMEN
 62
11
  6
CONTINUOUS
 10
21.503531
 20
-54.556759
 30
0.000000
 11
20.653015
 21
-53.873547
 31
0.000000
  0
LINE
  8
DIMEN
 62
11
  6
CONTINUOUS
 10
20.653015
 20
-53.873547
 30
0.000000
 11
20.528015
 21
-53.873547
 31
0.000000
  0
LINE
  8
DIMEN
 62
11
  6
CONTINUOUS
 10
21.503531
 20
-54.556759
 30
0.000000
 11
21.458277
 21
-54.440239
 31
0.000000
  0
LINE
  8
DIMEN
 62
11
  6
CONTINUOUS
 10
21.379993
 20
-54.537689
 30
0.000000
 11
21.503531
 21
-54.556759
 31
0.000000
  0
TEXT
  8
DIMEN
 62
11
  6
CONTINUOUS
 10
19.715015
 20
-54.248547
 30
0.000000
 40
0.750000
  7
ENGINEER
  1
D
  0
ENDBLK
  8
0
  0
BLOCK
  8
DIMEN
 62
11
  6
CONTINUOUS
  2
*D4
 10
0.000000
 20
0.000000
 30
0.000000
 70
  1
  0
LINE
  8
DIMEN
 62
11
  6
CONTINUOUS
 10
25.524590
 20
-58.531960
 30
0.000000
 11
26.329256
 21
-59.276218
 31
0.000000
  0
LINE
  8
DIMEN
 62
11
  6
CONTINUOUS
 10
26.329256
 20
-59.276218
 30
0.000000
 11
26.454256
 21
-59.276218
 31
0.000000
  0
LINE
  8
DIMEN
 62
11
  6
CONTINUOUS
 10
25.524590
 20
-58.531960
 30
0.000000
 11
25.561623
 21
-58.651348
 31
0.000000
  0
LINE
  8
DIMEN
 62
11
  6
CONTINUOUS
 10
25.646500
 20
-58.559582
 30
0.000000
 11
25.524590
 21
-58.531960
 31
0.000000
  0
TEXT
  8
DIMEN
 62
11
  6
CONTINUOUS
 10
26.517256
 20
-59.651218
 30
0.000000
 40
0.750000
  7
ENGINEER
  1
E
  0
ENDBLK
  8
0
  0
ENDSEC
  0
SECTION
  2
ENTITIES
  0
LINE
  8
DOWTDOW
 62
11
  6
CONTINUOUS
 10
18.659641
 20
-54.800430
 30
0.000000
 11
31.964638
 21
-54.800430
 31
0.000000
  0
CIRCLE
  8
HOLE2
 62
11
  6
CONTINUOUS
 10
18.659641
 20
-54.800430
 30
0.000000
 40
0.304001
  0
CIRCLE
  8
HOLE2
 62
11
  6
CONTINUOUS
 10
31.964638
 20
-54.800430
 30
0.000000
 40
0.304001
  0
POINT
  8
HOLE2
 62
11
  6
CONTINUOUS
 10
25.310139
 20
-54.750431
 30
0.000000
  0
LINE
  8
HOLE2
 62
11
  6
CONTINUOUS
 10
25.310139
 20
-54.750431
 30
0.000000
 11
25.310139
 21
-54.800430
 31
0.000000
  0
CIRCLE
  8
HOLE2
 62
11
  6
CONTINUOUS
 10
30.340328
 20
-50.347431
 30
0.000000
 40
0.250000
  0
CIRCLE
  8
HOLE2
 62
11
  6
CONTINUOUS
 10
27.024406
 20
-46.876892
 30
0.000000
 40
0.250000
  0
CIRCLE
  8
HOLE2
 62
11
  6
CONTINUOUS
 10
23.619408
 20
-46.874870
 30
0.000000
 40
0.250000
  0
CIRCLE
  8
HOLE2
 62
11
  6
CONTINUOUS
 10
20.283451
 20
-50.319199
 30
0.000000
 40
0.250000
  0
LINE
  8
HOLE2
 62
11
  6
CONTINUOUS
 10
31.964638
 20
-54.800430
 30
0.000000
 11
25.310139
 21
-54.750431
 31
0.000000
  0
LINE
  8
HOLE2
 62
11
  6
CONTINUOUS
 10
18.659641
 20
-54.800430
 30
0.000000
 11
25.310139
 21
-54.750431
 31
0.000000
  0
CIRCLE
  8
HOLE2
 62
11
  6
CONTINUOUS
 10
22.348328
 20
-61.257030
 30
0.000000
 40
0.250000
  0
CIRCLE
  8
HOLE2
 62
11
  6
CONTINUOUS
 10
28.077274
 20
-60.953190
 30
0.000000
 40
0.250000
  0
CIRCLE
  8
HOLE2
 62
11
  6
CONTINUOUS
 10
25.310139
 20
-54.750431
 30
0.000000
 40
0.250000
  0
TEXT
  8
HOLE2
 62
11
  6
CONTINUOUS
 10
32.977455
 20
-55.176735
 30
0.000000
  1
1
  7
ENGINEER
 40
1.000000
 41
1.050000
 50
0.000000
 51
0.000000
 72
  0
 73
  0
  0
TEXT
  8
HOLE2
 62
11
  6
CONTINUOUS
 10
31.001671
 20
-50.733601
 30
0.000000
  1
2
  7
ENGINEER
 40
1.000000
 41
1.050000
 50
0.000000
 51
0.000000
 72
  0
 73
  0
  0
TEXT
  8
HOLE2
 62
11
  6
CONTINUOUS
 10
27.031807
 20
-46.309296
 30
0.000000
  1
3
  7
ENGINEER
 40
0.750000
 41
1.050000
 50
0.000000
 51
0.000000
 72
  0
 73
  0
  0
TEXT
  8
HOLE2
 62
11
  6
CONTINUOUS
 10
23.592476
 20
-46.309296
 30
0.000000
  1
4
  7
ENGINEER
 40
0.750000
 41
1.050000
 50
0.000000
 51
0.000000
 72
  0
 73
  0
  0
TEXT
  8
HOLE2
 62
11
  6
CONTINUOUS
 10
22.348461
 20
-62.726292
 30
0.000000
  1
7
  7
ENGINEER
 40
0.750000
 41
1.050000
 50
0.000000
 51
0.000000
 72
  0
 73
  0
  0
TEXT
  8
HOLE2
 62
11
  6
CONTINUOUS
 10
28.092876
 20
-62.575676
 30
0.000000
  1
8
  7
ENGINEER
 40
0.750000
 41
1.050000
 50
0.000000
 51
0.000000
 72
  0
 73
  0
  0
POINT
  8
PLATCENT
 62
11
  6
CONTINUOUS
 10
25.310139
 20
-54.750431
 30
0.000000
  0
CIRCLE
  8
PLATCENT
 62
11
  6
CONTINUOUS
 10
25.310139
 20
-54.750431
 30
0.000000
 40
4.250000
  0
CIRCLE
  8
PLATCENT
 62
11
  6
CONTINUOUS
 10
25.310139
 20
-54.750431
 30
0.000000
 40
3.000000
  0
CIRCLE
  8
PLATCENT
 62
11
  6
DASHDOT
 10
25.310139
 20
-54.750431
 30
0.000000
 40
3.625000
  0
LINE
  8
PLATCENT
 62
11
  6
DASHDOT
 10
25.310139
 20
-49.463608
 30
0.000000
 11
25.310139
 21
-59.924236
 31
0.000000
  0
LINE
  8
PLATCENT
 62
11
  6
DASHDOT
 10
19.947861
 20
-54.750431
 30
0.000000
 11
30.586620
 21
-54.750431
 31
0.000000
  0
CIRCLE
  8
PLATCENT
 62
11
  6
CONTINUOUS
 10
25.310139
 20
-51.125431
 30
0.000000
 40
0.265499
  0
CIRCLE
  8
PLATCENT
 62
11
  6
CONTINUOUS
 10
21.685139
 20
-54.750431
 30
0.000000
 40
0.265499
  0
CIRCLE
  8
PLATCENT
 62
11
  6
CONTINUOUS
 10
25.310139
 20
-58.375431
 30
0.000000
 40
0.265499
  0
CIRCLE
  8
PLATCENT
 62
11
  6
CONTINUOUS
 10
28.935139
 20
-54.750431
 30
0.000000
 40
0.265499
  0
POINT
  8
BORD2TO1
 62
11
  6
CONTINUOUS
 10
15.310265
 20
-54.788593
 30
0.000000
  0
LINE
  8
BORD2TO1
 62
11
  6
CONTINUOUS
 10
47.510265
 20
-44.788593
 30
0.000000
 11
15.310266
 21
-44.788593
 31
0.000000
  0
LINE
  8
BORD2TO1
 62
11
  6
CONTINUOUS
 10
15.310266
 20
-44.788593
 30
0.000000
 11
15.310266
 21
-64.788589
 31
0.000000
  0
LINE
  8
BORD2TO1
 62
11
  6
CONTINUOUS
 10
15.310266
 20
-64.788589
 30
0.000000
 11
47.510265
 21
-64.788589
 31
0.000000
  0
LINE
  8
BORD2TO1
 62
11
  6
CONTINUOUS
 10
47.510265
 20
-44.788593
 30
0.000000
 11
47.510265
 21
-64.788589
 31
0.000000
  0
DIMENSION
  8
DIMEN
  2
*D0
 70
  6
 10
0.000000
 20
0.000000
 30
0.000000
 11
26.851053
 21
-49.331867
 31
0.000000
 13
25.488607
 23
-50.928864
 33
0.000000
 14
26.364281
 24
-49.902439
 34
0.000000
  0
DIMENSION
  8
DIMEN
  2
*D1
 70
  6
 10
0.000000
 20
0.000000
 30
0.000000
 11
26.362545
 21
-53.576836
 31
0.000000
 13
25.500725
 23
-54.588638
 33
0.000000
 14
25.876223
 24
-54.147793
 34
0.000000
  0
DIMENSION
  8
DIMEN
  2
*D2
 70
  6
 10
0.000000
 20
0.000000
 30
0.000000
 11
30.362276
 21
-53.576496
 31
0.000000
 13
29.160469
 23
-54.610016
 33
0.000000
 14
29.793629
 24
-54.065517
 34
0.000000
  0
DIMENSION
  8
DIMEN
  2
*D3
 70
  6
 10
0.000000
 20
0.000000
 30
0.000000
 11
20.068304
 21
-53.403854
 31
0.000000
 13
21.503531
 23
-54.556759
 33
0.000000
 14
20.653015
 24
-53.873547
 34
0.000000
  0
DIMENSION
  8
DIMEN
  2
*D4
 70
  6
 10
0.000000
 20
0.000000
 30
0.000000
 11
26.879850
 21
-59.785480
 31
0.000000
 13
25.524590
 23
-58.531960
 33
0.000000
 14
26.329256
 24
-59.276218
 34
0.000000
  0
TEXT
  8
DIMEN
 62
11
  6
CONTINUOUS
 10
40.112461
 20
-45.930939
 30
0.000000
  1
ELECTRO AUTOMOTIVE
  7
ENGINEER
 40
0.250000
 41
0.900000
 50
0.000000
 51
0.000000
 72
  0
 73
  0
  0
TEXT
  8
DIMEN
 62
11
  6
CONTINUOUS
 10
40.112461
 20
-46.305939
 30
0.000000
  1
P.O. BOX 1113 FELTON CA. 95018-1113
  7
ENGINEER
 40
0.250000
 41
0.900000
 50
0.000000
 51
0.000000
 72
  0
 73
  0
  0
TEXT
  8
DIMEN
 62
11
  6
CONTINUOUS
 10
40.112461
 20
-47.055939
 30
0.000000
  1
DRAWN BY MICHAEL P. BROWN
  7
ENGINEER
 40
0.250000
 41
0.900000
 50
0.000000
 51
0.000000
 72
  0
 73
  0
  0
LINE
  8
DIMEN
 62
11
  6
CONTINUOUS
 10
39.846966
 20
-45.455948
 30
0.000000
 11
46.979870
 21
-45.455948
 31
0.000000
  0
LINE
  8
DIMEN
 62
11
  6
CONTINUOUS
 10
46.979870
 20
-45.455948
 30
0.000000
 11
46.979870
 21
-47.255920
 31
0.000000
  0
LINE
  8
DIMEN
 62
11
  6
CONTINUOUS
 10
46.979870
 20
-47.255920
 30
0.000000
 11
39.846966
 21
-47.255920
 31
0.000000
  0
LINE
  8
DIMEN
 62
11
  6
CONTINUOUS
 10
39.846966
 20
-47.255920
 30
0.000000
 11
39.846966
 21
-45.455948
 31
0.000000
  0
TEXT
  8
DIMEN
 62
11
  6
CONTINUOUS
 10
40.112461
 20
-46.680939
 30
0.000000
  1
PHONE 831-429-1989 FAX 831-429-1907
  7
ENGINEER
 40
0.250000
 41
0.900000
 50
0.000000
 51
0.000000
 72
  0
 73
  0
  0
TEXT
  8
HOLE2
 62
11
  6
CONTINUOUS
 10
17.538425
 20
-55.045219
 30
0.000000
  1
6
  7
ENGINEER
 40
0.750000
 41
1.050000
 50
0.000000
 51
0.000000
 72
  0
 73
  0
  0
TEXT
  8
HOLE2
 62
11
  6
CONTINUOUS
 10
19.297430
 20
-50.557247
 30
0.000000
  1
5
  7
ENGINEER
 40
0.750000
 41
1.050000
 50
0.000000
 51
0.000000
 72
  0
 73
  0
  0
TEXT
  8
DIMEN
 62
11
  6
CONTINUOUS
 10
38.889355
 20
-48.007229
 30
0.000000
  1
PROFILE PLATE HOLE LOCATION
  7
ENGINEER
 40
0.313000
 41
1.050000
 50
0.000000
 51
0.000000
 72
  0
 73
  0
  0
TEXT
  8
DIMEN
 62
11
  6
CONTINUOUS
 10
38.889355
 20
-48.476730
 30
0.000000
  1
DRAWING FOR 1986-1992 2.9L &
  7
ENGINEER
 40
0.313000
 41
1.050000
 50
0.000000
 51
0.000000
 72
  0
 73
  0
  0
TEXT
  8
DIMEN
 62
11
  6
CONTINUOUS
 10
38.889355
 20
-48.946232
 30
0.000000
  1
1990-2002 4.0L V6 FORD RANGER
  7
ENGINEER
 40
0.313000
 41
1.050000
 50
0.000000
 51
0.000000
 72
  0
 73
  0
  0
TEXT
  8
DIMEN
 62
11
  6
CONTINUOUS
 10
38.889355
 20
-49.415733
 30
0.000000
  1
MOTOR TO TRANSMISSION ADAPTOR
  7
ENGINEER
 40
0.313000
 41
1.050000
 50
0.000000
 51
0.000000
 72
  0
 73
  0
  0
ENDSEC
  0
EOF
