  0
SECTION
  2
HEADER
  9
$ACADVER
  1
AC1006
  0
ENDSEC
  0
SECTION
  2
TABLES
  0
TABLE
  2
LTYPE
 70
    25
  0
LTYPE
  2
CONTINUOUS
 70
    64
  3
Solid line
 72
    64
 73
     0
 40
0.000000
  0
LTYPE
  2
DASHDOT
 70
    64
  3
__ . __ . __ . __ . __ . __ . __ . __ . __ . __
 72
    65
 73
     4
 40
1.000000
 49
0.500000
 49
-0.250000
 49
0.000000
 49
-0.250000
  0
LTYPE
  2
DASHED
 70
    64
  3
__ __ __ __ __ __ __ __ __ __ __ __ __ __ __ __
 72
    65
 73
     2
 40
0.750000
 49
0.500000
 49
-0.250000
  0
LTYPE
  2
DIVIDE
 70
    64
  3
____ . . ____ . . ____ . . ____ . . ____ . . __
 72
    65
 73
     6
 40
1.250000
 49
0.500000
 49
-0.250000
 49
0.000000
 49
-0.250000
 49
0.000000
 49
-0.250000
  0
LTYPE
  2
DOT
 70
    64
  3
. . . . . . . . . . . . . . . . . . . . . . . . 
 72
    65
 73
     2
 40
0.250000
 49
0.000000
 49
-0.250000
  0
ENDTAB
  0
ENDSEC
  0
SECTION
  2
ENTITIES
  0
POINT
  8
PARTS
 62
     7
 10
7.397116
 20
7.460319
 30
0.000000
  0
LINE
  8
PARTS
 62
     7
  6
CONTINUOUS
 10
7.397116
 20
12.872817
 30
0.000000
 11
8.071115
 21
12.872817
 31
0.000000
  0
LINE
  8
PARTS
 62
     7
  6
CONTINUOUS
 10
7.397116
 20
2.047819
 30
0.000000
 11
8.071115
 21
2.047819
 31
0.000000
  0
LINE
  8
PARTS
 62
     7
  6
CONTINUOUS
 10
7.397116
 20
12.872817
 30
0.000000
 11
7.397116
 21
2.047819
 31
0.000000
  0
LINE
  8
PARTS
 62
     7
  6
CONTINUOUS
 10
8.071115
 20
1.822819
 30
0.000000
 11
8.446115
 21
1.822819
 31
0.000000
  0
LINE
  8
PARTS
 62
     7
  6
CONTINUOUS
 10
8.071115
 20
13.097817
 30
0.000000
 11
8.446115
 21
13.097817
 31
0.000000
  0
LINE
  8
PARTS
 62
     7
  6
CONTINUOUS
 10
8.446115
 20
2.380319
 30
0.000000
 11
8.581116
 21
2.380319
 31
0.000000
  0
LINE
  8
PARTS
 62
     7
  6
CONTINUOUS
 10
8.446115
 20
12.540318
 30
0.000000
 11
8.581116
 21
12.540318
 31
0.000000
  0
LINE
  8
PARTS
 62
     7
  6
CONTINUOUS
 10
8.446115
 20
12.540318
 30
0.000000
 11
8.446115
 21
13.097817
 31
0.000000
  0
LINE
  8
PARTS
 62
     7
  6
CONTINUOUS
 10
8.446115
 20
2.380319
 30
0.000000
 11
8.446115
 21
1.822819
 31
0.000000
  0
LINE
  8
PARTS
 62
     7
  6
CONTINUOUS
 10
8.071115
 20
12.872817
 30
0.000000
 11
8.071115
 21
13.097817
 31
0.000000
  0
LINE
  8
PARTS
 62
     7
  6
CONTINUOUS
 10
8.071115
 20
2.047819
 30
0.000000
 11
8.071115
 21
1.822819
 31
0.000000
  0
LINE
  8
PARTS
 62
     7
  6
CONTINUOUS
 10
8.086116
 20
11.517817
 30
0.000000
 11
8.581116
 21
11.517817
 31
0.000000
  0
LINE
  8
PARTS
 62
     7
  6
CONTINUOUS
 10
8.086116
 20
3.402819
 30
0.000000
 11
8.581116
 21
3.402819
 31
0.000000
  0
LINE
  8
PARTS
 62
     7
  6
CONTINUOUS
 10
8.581116
 20
11.517817
 30
0.000000
 11
8.581116
 21
12.540318
 31
0.000000
  0
LINE
  8
PARTS
 62
     7
  6
CONTINUOUS
 10
8.581116
 20
3.402819
 30
0.000000
 11
8.581116
 21
2.380319
 31
0.000000
  0
POINT
  8
PARTS
 62
     7
 10
8.086116
 20
4.460319
 30
0.000000
  0
LINE
  8
PARTS
 62
     7
  6
CONTINUOUS
 10
8.086116
 20
4.460319
 30
0.000000
 11
8.471115
 21
5.377819
 31
0.000000
  0
LINE
  8
PARTS
 62
     7
  6
CONTINUOUS
 10
8.086116
 20
10.460319
 30
0.000000
 11
8.471115
 21
9.542817
 31
0.000000
  0
LINE
  8
PARTS
 62
     7
  6
CONTINUOUS
 10
8.086116
 20
10.460319
 30
0.000000
 11
8.086116
 21
11.517817
 31
0.000000
  0
LINE
  8
PARTS
 62
     7
  6
CONTINUOUS
 10
8.086116
 20
4.460319
 30
0.000000
 11
8.086116
 21
3.402819
 31
0.000000
  0
POINT
  8
PARTS
 62
     7
 10
7.742034
 20
7.459787
 30
0.000000
  0
LINE
  8
PARTS
 62
     7
  6
CONTINUOUS
 10
7.742034
 20
9.374785
 30
0.000000
 11
7.742034
 21
5.544788
 31
0.000000
  0
LINE
  8
PARTS
 62
     7
  6
CONTINUOUS
 10
7.397116
 20
4.670319
 30
0.000000
 11
7.742034
 21
5.544788
 31
0.000000
  0
LINE
  8
PARTS
 62
     7
  6
CONTINUOUS
 10
7.742034
 20
9.374785
 30
0.000000
 11
7.397116
 21
10.250318
 31
0.000000
  0
LINE
  8
PARTS
 62
     7
  6
CONTINUOUS
 10
7.742034
 20
8.089787
 30
0.000000
 11
8.471115
 21
8.089787
 31
0.000000
  0
LINE
  8
PARTS
 62
     7
  6
CONTINUOUS
 10
7.742034
 20
6.829787
 30
0.000000
 11
8.471115
 21
6.829787
 31
0.000000
  0
POINT
  8
PARTS
 62
     7
 10
7.742034
 20
8.837287
 30
0.000000
  0
LINE
  8
PARTS
 62
     7
  6
CONTINUOUS
 10
7.742034
 20
9.042287
 30
0.000000
 11
8.471115
 21
9.042287
 31
0.000000
  0
LINE
  8
PARTS
 62
     7
  6
CONTINUOUS
 10
7.742034
 20
8.632287
 30
0.000000
 11
8.471115
 21
8.632287
 31
0.000000
  0
LINE
  8
HUB
 62
     7
  6
CONTINUOUS
 10
8.502316
 20
9.210319
 30
0.000000
 11
9.221115
 21
9.210319
 31
0.000000
  0
LINE
  8
HUB
 62
     7
  6
CONTINUOUS
 10
8.502316
 20
5.710319
 30
0.000000
 11
9.221115
 21
5.710319
 31
0.000000
  0
POINT
  8
HUB
 62
     7
 10
10.165273
 20
8.429069
 30
0.000000
  0
POINT
  8
HUB
 62
     7
 10
10.165273
 20
6.491569
 30
0.000000
  0
LINE
  8
HUB
 62
     7
  6
CONTINUOUS
 10
10.165273
 20
8.429069
 30
0.000000
 11
10.165273
 21
8.585319
 31
0.000000
  0
LINE
  8
HUB
 62
     7
  6
CONTINUOUS
 10
10.165273
 20
6.491569
 30
0.000000
 11
10.165273
 21
6.335319
 31
0.000000
  0
LINE
  8
HUB
 62
     7
  6
CONTINUOUS
 10
10.165273
 20
6.335319
 30
0.000000
 11
9.221115
 21
6.335319
 31
0.000000
  0
LINE
  8
HUB
 62
     7
  6
CONTINUOUS
 10
9.221115
 20
5.710319
 30
0.000000
 11
9.221115
 21
6.335319
 31
0.000000
  0
LINE
  8
HUB
 62
     7
  6
CONTINUOUS
 10
10.165273
 20
8.585319
 30
0.000000
 11
9.221115
 21
8.585319
 31
0.000000
  0
LINE
  8
HUB
 62
     7
  6
CONTINUOUS
 10
9.221115
 20
9.210319
 30
0.000000
 11
9.221115
 21
8.585319
 31
0.000000
  0
POINT
  8
HUB
 62
     7
 10
8.852273
 20
7.460319
 30
0.000000
  0
POINT
  8
HUB
 62
     7
 10
8.852273
 20
8.164347
 30
0.000000
  0
LINE
  8
HUB
 62
     7
  6
CONTINUOUS
 10
8.852273
 20
8.291519
 30
0.000000
 11
10.165273
 21
8.429069
 31
0.000000
  0
LINE
  8
HUB
 62
     7
  6
CONTINUOUS
 10
8.852273
 20
6.629119
 30
0.000000
 11
10.165273
 21
6.491569
 31
0.000000
  0
LINE
  8
HUB
 62
     7
  6
CONTINUOUS
 10
8.852273
 20
8.291519
 30
0.000000
 11
8.852273
 21
6.629119
 31
0.000000
  0
POINT
  8
HUB
 62
     7
 10
8.502316
 20
8.164347
 30
0.000000
  0
POINT
  8
HUB
 62
     7
 10
9.188671
 20
8.165369
 30
0.000000
  0
POINT
  8
HUB
 62
     7
 10
8.502316
 20
8.164347
 30
0.000000
  0
POINT
  8
HUB
 62
     7
 10
8.502316
 20
8.344047
 30
0.000000
  0
LINE
  8
HUB
 62
     7
  6
CONTINUOUS
 10
8.502316
 20
8.344047
 30
0.000000
 11
8.689816
 21
8.344047
 31
0.000000
  0
LINE
  8
HUB
 62
     7
  6
CONTINUOUS
 10
8.689816
 20
7.984647
 30
0.000000
 11
8.689816
 21
8.344047
 31
0.000000
  0
POINT
  8
HUB
 62
     7
 10
8.689816
 20
8.165369
 30
0.000000
  0
POINT
  8
HUB
 62
     7
 10
8.689816
 20
8.266919
 30
0.000000
  0
POINT
  8
HUB
 62
     7
 10
8.689816
 20
8.063819
 30
0.000000
  0
POINT
  8
HUB
 62
     7
 10
8.852273
 20
8.266919
 30
0.000000
  0
POINT
  8
HUB
 62
     7
 10
8.852273
 20
8.063819
 30
0.000000
  0
LINE
  8
HUB
 62
     7
  6
CONTINUOUS
 10
8.689816
 20
8.266919
 30
0.000000
 11
8.852273
 21
8.266919
 31
0.000000
  0
LINE
  8
HUB
 62
     7
  6
CONTINUOUS
 10
8.689816
 20
8.063819
 30
0.000000
 11
8.852273
 21
8.063819
 31
0.000000
  0
LINE
  8
PARTS
 62
     7
  6
CONTINUOUS
 10
8.471115
 20
8.089787
 30
0.000000
 11
8.471115
 21
9.542817
 31
0.000000
  0
LINE
  8
PARTS
 62
     7
  6
CONTINUOUS
 10
8.471115
 20
6.829787
 30
0.000000
 11
8.471115
 21
5.377819
 31
0.000000
  0
LINE
  8
HUB
 62
     7
  6
CONTINUOUS
 10
8.502316
 20
8.089787
 30
0.000000
 11
8.502316
 21
9.210319
 31
0.000000
  0
LINE
  8
HUB
 62
     7
  6
CONTINUOUS
 10
8.502316
 20
6.829787
 30
0.000000
 11
8.502316
 21
5.710319
 31
0.000000
  0
LINE
  8
HUB
 62
     7
  6
CONTINUOUS
 10
8.254062
 20
8.089787
 30
0.000000
 11
8.254062
 21
6.829787
 31
0.000000
  0
LINE
  8
HUB
 62
     7
  6
CONTINUOUS
 10
8.502316
 20
8.089787
 30
0.000000
 11
8.254062
 21
8.089787
 31
0.000000
  0
LINE
  8
HUB
 62
     7
  6
CONTINUOUS
 10
8.689816
 20
7.984647
 30
0.000000
 11
8.254062
 21
7.984647
 31
0.000000
  0
LINE
  8
HUB
 62
     7
  6
CONTINUOUS
 10
8.502316
 20
6.829787
 30
0.000000
 11
8.254062
 21
6.829787
 31
0.000000
  0
POINT
  8
HUB
 62
     7
 10
8.502316
 20
8.837287
 30
0.000000
  0
LINE
  8
HUB
 62
     7
  6
CONTINUOUS
 10
8.502316
 20
9.016787
 30
0.000000
 11
9.127316
 21
9.016787
 31
0.000000
  0
LINE
  8
HUB
 62
     7
  6
CONTINUOUS
 10
8.502316
 20
8.657787
 30
0.000000
 11
9.127316
 21
8.657787
 31
0.000000
  0
LINE
  8
HUB
 62
     7
  6
CONTINUOUS
 10
9.127316
 20
9.016787
 30
0.000000
 11
9.127316
 21
8.657787
 31
0.000000
  0
POINT
  8
HUB
 62
     7
 10
8.502316
 20
8.837287
 30
0.000000
  0
POINT
  8
HUB
 62
     7
 10
8.502316
 20
8.837287
 30
0.000000
  0
POINT
  8
HUB
 62
     7
 10
8.533316
 20
8.837287
 30
0.000000
  0
POINT
  8
HUB
 62
     7
 10
8.564816
 20
8.837287
 30
0.000000
  0
POINT
  8
HUB
 62
     7
 10
8.596066
 20
8.837287
 30
0.000000
  0
POINT
  8
HUB
 62
     7
 10
8.627316
 20
8.837287
 30
0.000000
  0
LINE
  8
HUB
 62
     7
  6
CONTINUOUS
 10
8.533316
 20
9.016787
 30
0.000000
 11
8.533316
 21
8.657787
 31
0.000000
  0
LINE
  8
HUB
 62
     7
  6
CONTINUOUS
 10
8.564816
 20
8.984239
 30
0.000000
 11
8.564816
 21
8.690335
 31
0.000000
  0
POINT
  8
HUB
 62
     7
 10
9.064816
 20
8.837287
 30
0.000000
  0
LINE
  8
PARTS
 62
     7
  6
CONTINUOUS
 10
6.942435
 20
8.837287
 30
0.000000
 11
9.311644
 21
8.837287
 31
0.000000
  0
LINE
  8
HUB
 62
     7
  6
CONTINUOUS
 10
8.596066
 20
9.016787
 30
0.000000
 11
8.596066
 21
8.657787
 31
0.000000
  0
LINE
  8
HUB
 62
     7
  6
CONTINUOUS
 10
8.658815
 20
9.016787
 30
0.000000
 11
8.658815
 21
8.657787
 31
0.000000
  0
LINE
  8
HUB
 62
     7
  6
CONTINUOUS
 10
8.721565
 20
9.016787
 30
0.000000
 11
8.721565
 21
8.657787
 31
0.000000
  0
LINE
  8
HUB
 62
     7
  6
CONTINUOUS
 10
8.784315
 20
9.016787
 30
0.000000
 11
8.784315
 21
8.657787
 31
0.000000
  0
LINE
  8
HUB
 62
     7
  6
CONTINUOUS
 10
8.847065
 20
9.016787
 30
0.000000
 11
8.847065
 21
8.657787
 31
0.000000
  0
LINE
  8
HUB
 62
     7
  6
CONTINUOUS
 10
8.909815
 20
9.016787
 30
0.000000
 11
8.909815
 21
8.657787
 31
0.000000
  0
LINE
  8
HUB
 62
     7
  6
CONTINUOUS
 10
8.972565
 20
9.016787
 30
0.000000
 11
8.972565
 21
8.657787
 31
0.000000
  0
LINE
  8
HUB
 62
     7
  6
CONTINUOUS
 10
9.035315
 20
9.016787
 30
0.000000
 11
9.035315
 21
8.657787
 31
0.000000
  0
LINE
  8
HUB
 62
     7
  6
CONTINUOUS
 10
8.627316
 20
8.984239
 30
0.000000
 11
8.627316
 21
8.690335
 31
0.000000
  0
LINE
  8
HUB
 62
     7
  6
CONTINUOUS
 10
8.689816
 20
8.984239
 30
0.000000
 11
8.689816
 21
8.690335
 31
0.000000
  0
LINE
  8
HUB
 62
     7
  6
CONTINUOUS
 10
8.752316
 20
8.984239
 30
0.000000
 11
8.752316
 21
8.690335
 31
0.000000
  0
LINE
  8
HUB
 62
     7
  6
CONTINUOUS
 10
8.814816
 20
8.984239
 30
0.000000
 11
8.814816
 21
8.690335
 31
0.000000
  0
LINE
  8
HUB
 62
     7
  6
CONTINUOUS
 10
8.877316
 20
8.984239
 30
0.000000
 11
8.877316
 21
8.690335
 31
0.000000
  0
LINE
  8
HUB
 62
     7
  6
CONTINUOUS
 10
8.939816
 20
8.984239
 30
0.000000
 11
8.939816
 21
8.690335
 31
0.000000
  0
LINE
  8
HUB
 62
     7
  6
CONTINUOUS
 10
9.002316
 20
8.984239
 30
0.000000
 11
9.002316
 21
8.690335
 31
0.000000
  0
LINE
  8
HUB
 62
     7
  6
CONTINUOUS
 10
9.064816
 20
8.984239
 30
0.000000
 11
9.064816
 21
8.690335
 31
0.000000
  0
LINE
  8
HUB
 62
     7
  6
CONTINUOUS
 10
12.520102
 20
9.210319
 30
0.000000
 11
13.238902
 21
9.210319
 31
0.000000
  0
LINE
  8
HUB
 62
     7
  6
CONTINUOUS
 10
12.520102
 20
5.710319
 30
0.000000
 11
13.238902
 21
5.710319
 31
0.000000
  0
POINT
  8
HUB
 62
     7
 10
14.183060
 20
8.429069
 30
0.000000
  0
POINT
  8
HUB
 62
     7
 10
14.183060
 20
6.491569
 30
0.000000
  0
LINE
  8
HUB
 62
     7
  6
CONTINUOUS
 10
14.183060
 20
8.429069
 30
0.000000
 11
14.183060
 21
8.585319
 31
0.000000
  0
LINE
  8
HUB
 62
     7
  6
CONTINUOUS
 10
14.183060
 20
6.491569
 30
0.000000
 11
14.183060
 21
6.335319
 31
0.000000
  0
LINE
  8
HUB
 62
     7
  6
CONTINUOUS
 10
14.183060
 20
6.335319
 30
0.000000
 11
13.238902
 21
6.335319
 31
0.000000
  0
LINE
  8
HUB
 62
     7
  6
CONTINUOUS
 10
13.238902
 20
5.710319
 30
0.000000
 11
13.238902
 21
6.335319
 31
0.000000
  0
LINE
  8
HUB
 62
     7
  6
CONTINUOUS
 10
14.183060
 20
8.585319
 30
0.000000
 11
13.238902
 21
8.585319
 31
0.000000
  0
LINE
  8
HUB
 62
     7
  6
CONTINUOUS
 10
13.238902
 20
9.210319
 30
0.000000
 11
13.238902
 21
8.585319
 31
0.000000
  0
LINE
  8
HUB
 62
     7
  6
CONTINUOUS
 10
12.933060
 20
7.460319
 30
0.000000
 11
12.683060
 21
7.460319
 31
0.000000
  0
POINT
  8
HUB
 62
     7
 10
12.870060
 20
7.460319
 30
0.000000
  0
POINT
  8
HUB
 62
     7
 10
12.870060
 20
8.164347
 30
0.000000
  0
LINE
  8
HUB
 62
     7
  6
CONTINUOUS
 10
12.870060
 20
8.291519
 30
0.000000
 11
14.183060
 21
8.429069
 31
0.000000
  0
LINE
  8
HUB
 62
     7
  6
CONTINUOUS
 10
12.870060
 20
6.629119
 30
0.000000
 11
14.183060
 21
6.491569
 31
0.000000
  0
POINT
  8
HUB
 62
     7
 10
12.520102
 20
8.164347
 30
0.000000
  0
POINT
  8
HUB
 62
     7
 10
13.206457
 20
8.165369
 30
0.000000
  0
POINT
  8
HUB
 62
     7
 10
12.520102
 20
8.164347
 30
0.000000
  0
POINT
  8
HUB
 62
     7
 10
12.520102
 20
8.344047
 30
0.000000
  0
LINE
  8
HUB
 62
     7
  6
CONTINUOUS
 10
12.520102
 20
8.344047
 30
0.000000
 11
12.707602
 21
8.344047
 31
0.000000
  0
LINE
  8
HUB
 62
     7
  6
CONTINUOUS
 10
12.707602
 20
7.984647
 30
0.000000
 11
12.707602
 21
8.344047
 31
0.000000
  0
POINT
  8
HUB
 62
     7
 10
12.707602
 20
8.165369
 30
0.000000
  0
POINT
  8
HUB
 62
     7
 10
12.707602
 20
8.266919
 30
0.000000
  0
POINT
  8
HUB
 62
     7
 10
12.707602
 20
8.063819
 30
0.000000
  0
POINT
  8
HUB
 62
     7
 10
12.870060
 20
8.266919
 30
0.000000
  0
POINT
  8
HUB
 62
     7
 10
12.870060
 20
8.063819
 30
0.000000
  0
LINE
  8
HUB
 62
     7
  6
CONTINUOUS
 10
12.707602
 20
8.266919
 30
0.000000
 11
12.870060
 21
8.266919
 31
0.000000
  0
LINE
  8
HUB
 62
     7
  6
CONTINUOUS
 10
12.707602
 20
8.063819
 30
0.000000
 11
12.870060
 21
8.063819
 31
0.000000
  0
LINE
  8
HUB
 62
     7
  6
CONTINUOUS
 10
12.520102
 20
8.089787
 30
0.000000
 11
12.520102
 21
9.210319
 31
0.000000
  0
LINE
  8
HUB
 62
     7
  6
CONTINUOUS
 10
12.520102
 20
6.829787
 30
0.000000
 11
12.520102
 21
5.710319
 31
0.000000
  0
LINE
  8
HUB
 62
     7
  6
CONTINUOUS
 10
12.271849
 20
8.089787
 30
0.000000
 11
12.271849
 21
6.829787
 31
0.000000
  0
LINE
  8
HUB
 62
     7
  6
CONTINUOUS
 10
12.520102
 20
8.089787
 30
0.000000
 11
12.271849
 21
8.089787
 31
0.000000
  0
LINE
  8
HUB
 62
     7
  6
CONTINUOUS
 10
12.707602
 20
7.984647
 30
0.000000
 11
12.271849
 21
7.984647
 31
0.000000
  0
LINE
  8
HUB
 62
     7
  6
CONTINUOUS
 10
12.520102
 20
6.829787
 30
0.000000
 11
12.271849
 21
6.829787
 31
0.000000
  0
POINT
  8
HUB
 62
     7
 10
12.520102
 20
8.837287
 30
0.000000
  0
LINE
  8
HUB
 62
     7
  6
CONTINUOUS
 10
12.520102
 20
9.016787
 30
0.000000
 11
13.145102
 21
9.016787
 31
0.000000
  0
LINE
  8
HUB
 62
     7
  6
CONTINUOUS
 10
12.520102
 20
8.657787
 30
0.000000
 11
13.145102
 21
8.657787
 31
0.000000
  0
LINE
  8
HUB
 62
     7
  6
CONTINUOUS
 10
13.145102
 20
9.016787
 30
0.000000
 11
13.145102
 21
8.657787
 31
0.000000
  0
POINT
  8
HUB
 62
     7
 10
12.520102
 20
8.837287
 30
0.000000
  0
POINT
  8
HUB
 62
     7
 10
12.520102
 20
8.837287
 30
0.000000
  0
POINT
  8
HUB
 62
     7
 10
12.551102
 20
8.837287
 30
0.000000
  0
POINT
  8
HUB
 62
     7
 10
12.582602
 20
8.837287
 30
0.000000
  0
POINT
  8
HUB
 62
     7
 10
12.613852
 20
8.837287
 30
0.000000
  0
POINT
  8
HUB
 62
     7
 10
12.645102
 20
8.837287
 30
0.000000
  0
LINE
  8
HUB
 62
     7
  6
CONTINUOUS
 10
12.551102
 20
9.016787
 30
0.000000
 11
12.551102
 21
8.657787
 31
0.000000
  0
LINE
  8
HUB
 62
     7
  6
CONTINUOUS
 10
12.582602
 20
8.984239
 30
0.000000
 11
12.582602
 21
8.690335
 31
0.000000
  0
POINT
  8
HUB
 62
     7
 10
13.082602
 20
8.837287
 30
0.000000
  0
LINE
  8
HUB
 62
     7
  6
CONTINUOUS
 10
12.613852
 20
9.016787
 30
0.000000
 11
12.613852
 21
8.657787
 31
0.000000
  0
LINE
  8
HUB
 62
     7
  6
CONTINUOUS
 10
12.676601
 20
9.016787
 30
0.000000
 11
12.676601
 21
8.657787
 31
0.000000
  0
LINE
  8
HUB
 62
     7
  6
CONTINUOUS
 10
12.739351
 20
9.016787
 30
0.000000
 11
12.739351
 21
8.657787
 31
0.000000
  0
LINE
  8
HUB
 62
     7
  6
CONTINUOUS
 10
12.802101
 20
9.016787
 30
0.000000
 11
12.802101
 21
8.657787
 31
0.000000
  0
LINE
  8
HUB
 62
     7
  6
CONTINUOUS
 10
12.864851
 20
9.016787
 30
0.000000
 11
12.864851
 21
8.657787
 31
0.000000
  0
LINE
  8
HUB
 62
     7
  6
CONTINUOUS
 10
12.927601
 20
9.016787
 30
0.000000
 11
12.927601
 21
8.657787
 31
0.000000
  0
LINE
  8
HUB
 62
     7
  6
CONTINUOUS
 10
12.990351
 20
9.016787
 30
0.000000
 11
12.990351
 21
8.657787
 31
0.000000
  0
LINE
  8
HUB
 62
     7
  6
CONTINUOUS
 10
13.053101
 20
9.016787
 30
0.000000
 11
13.053101
 21
8.657787
 31
0.000000
  0
LINE
  8
HUB
 62
     7
  6
CONTINUOUS
 10
12.645102
 20
8.984239
 30
0.000000
 11
12.645102
 21
8.690335
 31
0.000000
  0
LINE
  8
HUB
 62
     7
  6
CONTINUOUS
 10
12.707602
 20
8.984239
 30
0.000000
 11
12.707602
 21
8.690335
 31
0.000000
  0
LINE
  8
HUB
 62
     7
  6
CONTINUOUS
 10
12.770102
 20
8.984239
 30
0.000000
 11
12.770102
 21
8.690335
 31
0.000000
  0
LINE
  8
HUB
 62
     7
  6
CONTINUOUS
 10
12.832602
 20
8.984239
 30
0.000000
 11
12.832602
 21
8.690335
 31
0.000000
  0
LINE
  8
HUB
 62
     7
  6
CONTINUOUS
 10
12.895102
 20
8.984239
 30
0.000000
 11
12.895102
 21
8.690335
 31
0.000000
  0
LINE
  8
HUB
 62
     7
  6
CONTINUOUS
 10
12.957602
 20
8.984239
 30
0.000000
 11
12.957602
 21
8.690335
 31
0.000000
  0
LINE
  8
HUB
 62
     7
  6
CONTINUOUS
 10
13.020102
 20
8.984239
 30
0.000000
 11
13.020102
 21
8.690335
 31
0.000000
  0
LINE
  8
HUB
 62
     7
  6
CONTINUOUS
 10
13.082602
 20
8.984239
 30
0.000000
 11
13.082602
 21
8.690335
 31
0.000000
  0
LINE
  8
HUB
 62
     7
  6
CONTINUOUS
 10
14.183060
 20
6.491569
 30
0.000000
 11
14.183060
 21
8.429069
 31
0.000000
  0
POINT
  8
PLATE
 62
     7
 10
9.167115
 20
13.464591
 30
0.000000
  0
LINE
  8
PLATE
 62
     7
  6
CONTINUOUS
 10
9.167115
 20
15.710319
 30
0.000000
 11
9.792115
 21
15.710319
 31
0.000000
  0
LINE
  8
PLATE
 62
     7
  6
CONTINUOUS
 10
9.792115
 20
15.710319
 30
0.000000
 11
9.792115
 21
11.710319
 31
0.000000
  0
LINE
  8
PLATE
 62
     7
  6
CONTINUOUS
 10
9.167115
 20
1.085319
 30
0.000000
 11
9.792115
 21
1.085319
 31
0.000000
  0
LINE
  8
PLATE
 62
     7
  6
CONTINUOUS
 10
9.792115
 20
1.085319
 30
0.000000
 11
9.792115
 21
3.218027
 31
0.000000
  0
LINE
  8
PLATE
 62
     7
  6
CONTINUOUS
 10
9.167115
 20
4.460319
 30
0.000000
 11
9.666592
 21
4.460319
 31
0.000000
  0
LINE
  8
PLATE
 62
     7
  6
CONTINUOUS
 10
9.167115
 20
10.460317
 30
0.000000
 11
9.667079
 21
10.460317
 31
0.000000
  0
LINE
  8
PLATE
 62
     7
  6
CONTINUOUS
 10
9.172257
 20
11.350917
 30
0.000000
 11
9.667079
 21
11.350917
 31
0.000000
  0
LINE
  8
PLATE
 62
     7
  6
CONTINUOUS
 10
9.167115
 20
1.085319
 30
0.000000
 11
9.167115
 21
5.710319
 31
0.000000
  0
LINE
  8
PLATE
 62
     7
  6
CONTINUOUS
 10
9.666592
 20
4.460319
 30
0.000000
 11
9.666592
 21
6.335319
 31
0.000000
  0
LINE
  8
PLATE
 62
     7
  6
CONTINUOUS
 10
9.167115
 20
15.710319
 30
0.000000
 11
9.167115
 21
9.210319
 31
0.000000
  0
LINE
  8
PLATE
 62
     7
  6
CONTINUOUS
 10
9.666551
 20
10.835317
 30
0.000000
 11
9.167115
 21
10.835317
 31
0.000000
  0
POINT
  8
HUB
 62
     7
 10
15.497419
 20
7.460319
 30
0.000000
  0
POINT
  8
HUB
 62
     7
 10
15.497419
 20
7.460319
 30
0.000000
  0
LINE
  8
HUB
 62
     7
  6
CONTINUOUS
 10
15.497419
 20
7.460319
 30
0.000000
 11
15.497419
 21
6.647819
 31
0.000000
  0
POINT
  8
HUB
 62
     7
 10
16.622740
 20
8.163427
 30
0.000000
  0
POINT
  8
HUB
 62
     7
 10
16.622740
 20
8.163427
 30
0.000000
  0
POINT
  8
HUB
 62
     7
 10
16.622747
 20
8.163427
 30
0.000000
  0
POINT
  8
HUB
 62
     7
 10
16.622747
 20
8.163427
 30
0.000000
  0
POINT
  8
HUB
 62
     7
 10
15.496279
 20
8.164347
 30
0.000000
  0
POINT
  8
HUB
 62
     7
 10
15.621279
 20
8.164347
 30
0.000000
  0
POINT
  8
HUB
 62
     7
 10
15.746279
 20
8.164347
 30
0.000000
  0
POINT
  8
HUB
 62
     7
 10
15.746279
 20
8.164347
 30
0.000000
  0
LINE
  8
HUB
 62
     7
  6
CONTINUOUS
 10
15.621279
 20
8.164347
 30
0.000000
 11
15.621279
 21
8.219047
 31
0.000000
  0
LINE
  8
HUB
 62
     7
  6
CONTINUOUS
 10
15.621279
 20
8.164347
 30
0.000000
 11
15.621279
 21
8.109647
 31
0.000000
  0
LINE
  8
HUB
 62
     7
  6
CONTINUOUS
 10
15.746279
 20
8.164347
 30
0.000000
 11
15.746279
 21
8.250733
 31
0.000000
  0
LINE
  8
HUB
 62
     7
  6
CONTINUOUS
 10
15.746279
 20
8.164347
 30
0.000000
 11
15.746279
 21
8.077961
 31
0.000000
  0
POINT
  8
HUB
 62
     7
 10
15.996279
 20
8.164347
 30
0.000000
  0
POINT
  8
HUB
 62
     7
 10
15.871279
 20
8.164347
 30
0.000000
  0
POINT
  8
HUB
 62
     7
 10
15.871279
 20
8.164347
 30
0.000000
  0
LINE
  8
HUB
 62
     7
  6
CONTINUOUS
 10
15.871279
 20
8.164347
 30
0.000000
 11
15.871279
 21
8.219047
 31
0.000000
  0
LINE
  8
HUB
 62
     7
  6
CONTINUOUS
 10
15.871279
 20
8.164347
 30
0.000000
 11
15.871279
 21
8.109647
 31
0.000000
  0
POINT
  8
HUB
 62
     7
 10
16.121279
 20
8.164347
 30
0.000000
  0
LINE
  8
HUB
 62
     7
  6
CONTINUOUS
 10
16.121279
 20
8.164347
 30
0.000000
 11
16.121279
 21
8.219047
 31
0.000000
  0
LINE
  8
HUB
 62
     7
  6
CONTINUOUS
 10
16.121279
 20
8.164347
 30
0.000000
 11
16.121279
 21
8.109647
 31
0.000000
  0
POINT
  8
HUB
 62
     7
 10
16.371279
 20
8.164347
 30
0.000000
  0
LINE
  8
HUB
 62
     7
  6
CONTINUOUS
 10
16.371279
 20
8.164347
 30
0.000000
 11
16.371279
 21
8.219047
 31
0.000000
  0
LINE
  8
HUB
 62
     7
  6
CONTINUOUS
 10
16.371279
 20
8.164347
 30
0.000000
 11
16.371279
 21
8.109647
 31
0.000000
  0
POINT
  8
HUB
 62
     7
 10
16.621279
 20
8.164347
 30
0.000000
  0
LINE
  8
HUB
 62
     7
  6
CONTINUOUS
 10
16.621279
 20
8.164347
 30
0.000000
 11
16.621279
 21
8.219047
 31
0.000000
  0
LINE
  8
HUB
 62
     7
  6
CONTINUOUS
 10
16.621279
 20
8.164347
 30
0.000000
 11
16.621279
 21
8.109647
 31
0.000000
  0
POINT
  8
HUB
 62
     7
 10
15.996279
 20
8.164347
 30
0.000000
  0
POINT
  8
HUB
 62
     7
 10
15.996279
 20
8.164347
 30
0.000000
  0
LINE
  8
HUB
 62
     7
  6
CONTINUOUS
 10
15.996279
 20
8.164347
 30
0.000000
 11
15.996279
 21
8.250733
 31
0.000000
  0
LINE
  8
HUB
 62
     7
  6
CONTINUOUS
 10
15.996279
 20
8.164347
 30
0.000000
 11
15.996279
 21
8.077961
 31
0.000000
  0
POINT
  8
HUB
 62
     7
 10
16.246279
 20
8.164347
 30
0.000000
  0
POINT
  8
HUB
 62
     7
 10
16.246279
 20
8.164347
 30
0.000000
  0
LINE
  8
HUB
 62
     7
  6
CONTINUOUS
 10
16.246279
 20
8.164347
 30
0.000000
 11
16.246279
 21
8.250733
 31
0.000000
  0
LINE
  8
HUB
 62
     7
  6
CONTINUOUS
 10
16.246279
 20
8.164347
 30
0.000000
 11
16.246279
 21
8.077961
 31
0.000000
  0
POINT
  8
HUB
 62
     7
 10
16.496279
 20
8.164347
 30
0.000000
  0
POINT
  8
HUB
 62
     7
 10
16.496279
 20
8.164347
 30
0.000000
  0
LINE
  8
HUB
 62
     7
  6
CONTINUOUS
 10
16.496279
 20
8.164347
 30
0.000000
 11
16.496279
 21
8.250733
 31
0.000000
  0
LINE
  8
HUB
 62
     7
  6
CONTINUOUS
 10
16.496279
 20
8.164347
 30
0.000000
 11
16.496279
 21
8.077961
 31
0.000000
  0
POINT
  8
HUB
 62
     7
 10
15.497419
 20
7.460319
 30
0.000000
  0
POINT
  8
HUB
 62
     7
 10
16.059910
 20
7.463772
 30
0.000000
  0
LINE
  8
HUB
 62
     7
  6
CONTINUOUS
 10
15.497419
 20
8.272820
 30
0.000000
 11
15.497419
 21
7.460319
 31
0.000000
  0
LINE
  8
HUB
 62
     7
  6
CONTINUOUS
 10
15.497419
 20
7.460319
 30
0.000000
 11
16.747419
 21
7.460319
 31
0.000000
  0
LINE
  8
HUB
 62
     7
  6
CONTINUOUS
 10
16.747419
 20
7.460319
 30
0.000000
 11
16.747419
 21
8.397819
 31
0.000000
  0
LINE
  8
HUB
 62
     7
  6
CONTINUOUS
 10
16.747419
 20
7.460319
 30
0.000000
 11
16.747419
 21
6.522819
 31
0.000000
  0
LINE
  8
HUB
 62
     7
  6
CONTINUOUS
 10
15.497419
 20
8.022810
 30
0.000000
 11
16.747419
 21
8.022810
 31
0.000000
  0
LINE
  8
HUB
 62
     7
  6
CONTINUOUS
 10
15.497419
 20
8.077477
 30
0.000000
 11
16.747419
 21
8.077477
 31
0.000000
  0
LINE
  8
HUB
 62
     7
  6
CONTINUOUS
 10
15.499926
 20
6.897828
 30
0.000000
 11
16.747419
 21
6.897828
 31
0.000000
  0
LINE
  8
HUB
 62
     7
  6
CONTINUOUS
 10
15.497419
 20
6.647819
 30
0.000000
 11
16.747419
 21
6.522819
 31
0.000000
  0
LINE
  8
HUB
 62
     7
  6
CONTINUOUS
 10
15.497419
 20
8.272820
 30
0.000000
 11
16.747419
 21
8.397819
 31
0.000000
  0
LINE
  8
HUB
 62
     7
  6
CONTINUOUS
 10
15.497419
 20
8.249377
 30
0.000000
 11
16.747419
 21
8.249377
 31
0.000000
  0
LINE
  8
HUB
 62
     7
  6
CONTINUOUS
 10
15.496279
 20
8.164347
 30
0.000000
 11
16.747419
 21
8.164347
 31
0.000000
  0
LINE
  8
HUB
 62
     7
  6
CONTINUOUS
 10
15.497419
 20
8.805093
 30
0.000000
 11
15.605673
 21
8.867593
 31
0.000000
  0
LINE
  8
HUB
 62
     7
  6
CONTINUOUS
 10
15.497419
 20
8.805093
 30
0.000000
 11
15.605673
 21
8.742593
 31
0.000000
  0
LINE
  8
HUB
 62
     7
  6
CONTINUOUS
 10
16.747419
 20
8.805093
 30
0.000000
 11
16.639166
 21
8.742593
 31
0.000000
  0
LINE
  8
HUB
 62
     7
  6
CONTINUOUS
 10
16.747419
 20
8.805093
 30
0.000000
 11
16.639166
 21
8.867593
 31
0.000000
  0
LINE
  8
HUB
 62
     7
  6
CONTINUOUS
 10
15.497419
 20
8.335320
 30
0.000000
 11
15.497419
 21
9.055093
 31
0.000000
  0
LINE
  8
HUB
 62
     7
  6
CONTINUOUS
 10
16.747419
 20
8.460319
 30
0.000000
 11
16.747419
 21
9.055093
 31
0.000000
  0
TEXT
  8
HUB
 62
     7
 10
15.746984
 20
8.742521
 30
0.000000
 40
0.125000
  1
1 1/4"
  0
LINE
  8
HUB
 62
     7
  6
CONTINUOUS
 10
15.497419
 20
8.805093
 30
0.000000
 11
15.715733
 21
8.805093
 31
0.000000
  0
LINE
  8
HUB
 62
     7
  6
CONTINUOUS
 10
16.529105
 20
8.805093
 30
0.000000
 11
16.747419
 21
8.805093
 31
0.000000
  0
LINE
  8
HUB
 62
     7
  6
CONTINUOUS
 10
15.026321
 20
6.647819
 30
0.000000
 11
14.963821
 21
6.756072
 31
0.000000
  0
LINE
  8
HUB
 62
     7
  6
CONTINUOUS
 10
15.026321
 20
6.647819
 30
0.000000
 11
15.088821
 21
6.756072
 31
0.000000
  0
LINE
  8
HUB
 62
     7
  6
CONTINUOUS
 10
15.026321
 20
8.272820
 30
0.000000
 11
15.088821
 21
8.164566
 31
0.000000
  0
LINE
  8
HUB
 62
     7
  6
CONTINUOUS
 10
15.026321
 20
8.272820
 30
0.000000
 11
14.963821
 21
8.164566
 31
0.000000
  0
LINE
  8
HUB
 62
     7
  6
CONTINUOUS
 10
15.434919
 20
6.647819
 30
0.000000
 11
14.776321
 21
6.647819
 31
0.000000
  0
LINE
  8
HUB
 62
     7
  6
CONTINUOUS
 10
15.434919
 20
8.272820
 30
0.000000
 11
14.776321
 21
8.272820
 31
0.000000
  0
TEXT
  8
HUB
 62
     7
 10
14.648173
 20
7.621422
 30
0.000000
 40
0.125000
  1
1 5/8"
  0
LINE
  8
HUB
 62
     7
  6
CONTINUOUS
 10
15.026321
 20
6.647819
 30
0.000000
 11
15.026321
 21
7.590172
 31
0.000000
  0
LINE
  8
HUB
 62
     7
  6
CONTINUOUS
 10
15.026321
 20
7.778722
 30
0.000000
 11
15.026321
 21
8.272820
 31
0.000000
  0
LINE
  8
HUB
 62
     7
  6
CONTINUOUS
 10
17.194975
 20
6.897828
 30
0.000000
 11
17.132475
 21
7.006081
 31
0.000000
  0
LINE
  8
HUB
 62
     7
  6
CONTINUOUS
 10
17.194975
 20
6.897828
 30
0.000000
 11
17.257475
 21
7.006081
 31
0.000000
  0
LINE
  8
HUB
 62
     7
  6
CONTINUOUS
 10
17.194975
 20
8.022810
 30
0.000000
 11
17.257475
 21
7.914557
 31
0.000000
  0
LINE
  8
HUB
 62
     7
  6
CONTINUOUS
 10
17.194975
 20
8.022810
 30
0.000000
 11
17.132475
 21
7.914557
 31
0.000000
  0
LINE
  8
HUB
 62
     7
  6
CONTINUOUS
 10
16.809919
 20
6.897828
 30
0.000000
 11
17.444975
 21
6.897828
 31
0.000000
  0
LINE
  8
HUB
 62
     7
  6
CONTINUOUS
 10
16.809919
 20
8.022810
 30
0.000000
 11
17.444975
 21
8.022810
 31
0.000000
  0
TEXT
  8
HUB
 62
     7
 10
16.817526
 20
7.247990
 30
0.000000
 40
0.125000
  1
1 1/8"
  0
LINE
  8
HUB
 62
     7
  6
CONTINUOUS
 10
17.194975
 20
6.897828
 30
0.000000
 11
17.194975
 21
7.216740
 31
0.000000
  0
LINE
  8
HUB
 62
     7
  6
CONTINUOUS
 10
17.194975
 20
7.405056
 30
0.000000
 11
17.194975
 21
8.022810
 31
0.000000
  0
LINE
  8
HUB
 62
     7
  6
CONTINUOUS
 10
17.790033
 20
6.522819
 30
0.000000
 11
17.727533
 21
6.631072
 31
0.000000
  0
LINE
  8
HUB
 62
     7
  6
CONTINUOUS
 10
17.790033
 20
6.522819
 30
0.000000
 11
17.852533
 21
6.631072
 31
0.000000
  0
LINE
  8
HUB
 62
     7
  6
CONTINUOUS
 10
17.790033
 20
8.397819
 30
0.000000
 11
17.852533
 21
8.289565
 31
0.000000
  0
LINE
  8
HUB
 62
     7
  6
CONTINUOUS
 10
17.790033
 20
8.397819
 30
0.000000
 11
17.727533
 21
8.289565
 31
0.000000
  0
LINE
  8
HUB
 62
     7
  6
CONTINUOUS
 10
16.809919
 20
6.522819
 30
0.000000
 11
18.040033
 21
6.522819
 31
0.000000
  0
LINE
  8
HUB
 62
     7
  6
CONTINUOUS
 10
16.809919
 20
8.397819
 30
0.000000
 11
18.040033
 21
8.397819
 31
0.000000
  0
TEXT
  8
HUB
 62
     7
 10
17.412585
 20
7.584183
 30
0.000000
 40
0.125000
  1
1 7/8"
  0
LINE
  8
HUB
 62
     7
  6
CONTINUOUS
 10
17.790033
 20
6.522819
 30
0.000000
 11
17.790033
 21
7.552934
 31
0.000000
  0
LINE
  8
HUB
 62
     7
  6
CONTINUOUS
 10
17.790033
 20
7.741250
 30
0.000000
 11
17.790033
 21
8.397819
 31
0.000000
  0
LINE
  8
HUB
 62
     7
  6
CONTINUOUS
 10
15.727167
 20
6.619832
 30
0.000000
 11
15.840729
 21
6.567595
 31
0.000000
  0
LINE
  8
HUB
 62
     7
  6
CONTINUOUS
 10
15.727167
 20
6.619832
 30
0.000000
 11
15.738710
 21
6.495366
 31
0.000000
  0
LINE
  8
HUB
 62
     7
  6
CONTINUOUS
 10
15.727167
 20
6.619832
 30
0.000000
 11
16.229660
 21
5.910089
 31
0.000000
  0
LINE
  8
HUB
 62
     7
  6
CONTINUOUS
 10
16.229660
 20
5.910089
 30
0.000000
 11
16.354660
 21
5.910089
 31
0.000000
  0
TEXT
  8
HUB
 62
     7
 10
16.417161
 20
5.847590
 30
0.000000
 40
0.125000
  1
2.500TPF
  0
LINE
  8
HUB
 62
     7
  6
CONTINUOUS
 10
8.852273
 20
7.874319
 30
0.000000
 11
8.254062
 21
7.874319
 31
0.000000
  0
POINT
  8
HUB
 62
     7
 10
8.852273
 20
7.046319
 30
0.000000
  0
LINE
  8
HUB
 62
     7
  6
CONTINUOUS
 10
8.852273
 20
7.046319
 30
0.000000
 11
8.254062
 21
7.046319
 31
0.000000
  0
LINE
  8
HUB
 62
     7
  6
CONTINUOUS
 10
12.870060
 20
7.874319
 30
0.000000
 11
12.271849
 21
7.874319
 31
0.000000
  0
POINT
  8
HUB
 62
     7
 10
12.870060
 20
7.046319
 30
0.000000
  0
LINE
  8
HUB
 62
     7
  6
CONTINUOUS
 10
12.870060
 20
7.046319
 30
0.000000
 11
12.271849
 21
7.046319
 31
0.000000
  0
LINE
  8
HUB
 62
     7
  6
CONTINUOUS
 10
12.870060
 20
7.687395
 30
0.000000
 11
12.870060
 21
8.291519
 31
0.000000
  0
LINE
  8
HUB
 62
     7
  6
CONTINUOUS
 10
12.870060
 20
7.527842
 30
0.000000
 11
12.870060
 21
6.629119
 31
0.000000
  0
POINT
  8
BUSHING
 62
     7
 10
8.977273
 20
7.460319
 30
0.000000
  0
POINT
  8
BUSHING
 62
     7
 10
8.977273
 20
7.460319
 30
0.000000
  0
LINE
  8
BUSHING
 62
     7
  6
CONTINUOUS
 10
8.977273
 20
7.460319
 30
0.000000
 11
8.977273
 21
6.647819
 31
0.000000
  0
POINT
  8
BUSHING
 62
     7
 10
10.102593
 20
8.163427
 30
0.000000
  0
POINT
  8
BUSHING
 62
     7
 10
10.102593
 20
8.163427
 30
0.000000
  0
POINT
  8
BUSHING
 62
     7
 10
10.102601
 20
8.163427
 30
0.000000
  0
POINT
  8
BUSHING
 62
     7
 10
10.102601
 20
8.163427
 30
0.000000
  0
POINT
  8
BUSHING
 62
     7
 10
8.976132
 20
8.164347
 30
0.000000
  0
POINT
  8
BUSHING
 62
     7
 10
9.101132
 20
8.164347
 30
0.000000
  0
POINT
  8
BUSHING
 62
     7
 10
9.226132
 20
8.164347
 30
0.000000
  0
POINT
  8
BUSHING
 62
     7
 10
9.226132
 20
8.164347
 30
0.000000
  0
LINE
  8
BUSHING
 62
     7
  6
CONTINUOUS
 10
9.101132
 20
8.164347
 30
0.000000
 11
9.101132
 21
8.219047
 31
0.000000
  0
LINE
  8
BUSHING
 62
     7
  6
CONTINUOUS
 10
9.101132
 20
8.164347
 30
0.000000
 11
9.101132
 21
8.109647
 31
0.000000
  0
LINE
  8
BUSHING
 62
     7
  6
CONTINUOUS
 10
9.226132
 20
8.164347
 30
0.000000
 11
9.226132
 21
8.250733
 31
0.000000
  0
LINE
  8
BUSHING
 62
     7
  6
CONTINUOUS
 10
9.226132
 20
8.164347
 30
0.000000
 11
9.226132
 21
8.077960
 31
0.000000
  0
POINT
  8
BUSHING
 62
     7
 10
9.476132
 20
8.164347
 30
0.000000
  0
POINT
  8
BUSHING
 62
     7
 10
9.351132
 20
8.164347
 30
0.000000
  0
POINT
  8
BUSHING
 62
     7
 10
9.351132
 20
8.164347
 30
0.000000
  0
LINE
  8
BUSHING
 62
     7
  6
CONTINUOUS
 10
9.351132
 20
8.164347
 30
0.000000
 11
9.351132
 21
8.219047
 31
0.000000
  0
LINE
  8
BUSHING
 62
     7
  6
CONTINUOUS
 10
9.351132
 20
8.164347
 30
0.000000
 11
9.351132
 21
8.109647
 31
0.000000
  0
POINT
  8
BUSHING
 62
     7
 10
9.601132
 20
8.164347
 30
0.000000
  0
LINE
  8
BUSHING
 62
     7
  6
CONTINUOUS
 10
9.601132
 20
8.164347
 30
0.000000
 11
9.601132
 21
8.219047
 31
0.000000
  0
LINE
  8
BUSHING
 62
     7
  6
CONTINUOUS
 10
9.601132
 20
8.164347
 30
0.000000
 11
9.601132
 21
8.109647
 31
0.000000
  0
POINT
  8
BUSHING
 62
     7
 10
9.851132
 20
8.164347
 30
0.000000
  0
LINE
  8
BUSHING
 62
     7
  6
CONTINUOUS
 10
9.851132
 20
8.164347
 30
0.000000
 11
9.851132
 21
8.219047
 31
0.000000
  0
LINE
  8
BUSHING
 62
     7
  6
CONTINUOUS
 10
9.851132
 20
8.164347
 30
0.000000
 11
9.851132
 21
8.109647
 31
0.000000
  0
POINT
  8
BUSHING
 62
     7
 10
10.101132
 20
8.164347
 30
0.000000
  0
LINE
  8
BUSHING
 62
     7
  6
CONTINUOUS
 10
10.101132
 20
8.164347
 30
0.000000
 11
10.101132
 21
8.219047
 31
0.000000
  0
LINE
  8
BUSHING
 62
     7
  6
CONTINUOUS
 10
10.101132
 20
8.164347
 30
0.000000
 11
10.101132
 21
8.109647
 31
0.000000
  0
POINT
  8
BUSHING
 62
     7
 10
9.476132
 20
8.164347
 30
0.000000
  0
POINT
  8
BUSHING
 62
     7
 10
9.476132
 20
8.164347
 30
0.000000
  0
LINE
  8
BUSHING
 62
     7
  6
CONTINUOUS
 10
9.476132
 20
8.164347
 30
0.000000
 11
9.476132
 21
8.250733
 31
0.000000
  0
LINE
  8
BUSHING
 62
     7
  6
CONTINUOUS
 10
9.476132
 20
8.164347
 30
0.000000
 11
9.476132
 21
8.077960
 31
0.000000
  0
POINT
  8
BUSHING
 62
     7
 10
9.726132
 20
8.164347
 30
0.000000
  0
POINT
  8
BUSHING
 62
     7
 10
9.726132
 20
8.164347
 30
0.000000
  0
LINE
  8
BUSHING
 62
     7
  6
CONTINUOUS
 10
9.726132
 20
8.164347
 30
0.000000
 11
9.726132
 21
8.250733
 31
0.000000
  0
LINE
  8
BUSHING
 62
     7
  6
CONTINUOUS
 10
9.726132
 20
8.164347
 30
0.000000
 11
9.726132
 21
8.077960
 31
0.000000
  0
POINT
  8
BUSHING
 62
     7
 10
9.976132
 20
8.164347
 30
0.000000
  0
POINT
  8
BUSHING
 62
     7
 10
9.976132
 20
8.164347
 30
0.000000
  0
LINE
  8
BUSHING
 62
     7
  6
CONTINUOUS
 10
9.976132
 20
8.164347
 30
0.000000
 11
9.976132
 21
8.250733
 31
0.000000
  0
LINE
  8
BUSHING
 62
     7
  6
CONTINUOUS
 10
9.976132
 20
8.164347
 30
0.000000
 11
9.976132
 21
8.077960
 31
0.000000
  0
POINT
  8
BUSHING
 62
     7
 10
8.977273
 20
7.460319
 30
0.000000
  0
LINE
  8
BUSHING
 62
     7
  6
CONTINUOUS
 10
8.977273
 20
8.272819
 30
0.000000
 11
8.977273
 21
7.460319
 31
0.000000
  0
LINE
  8
BUSHING
 62
     7
  6
CONTINUOUS
 10
8.977273
 20
8.022810
 30
0.000000
 11
10.227273
 21
8.022810
 31
0.000000
  0
LINE
  8
BUSHING
 62
     7
  6
CONTINUOUS
 10
8.977273
 20
8.077477
 30
0.000000
 11
10.227273
 21
8.077477
 31
0.000000
  0
LINE
  8
BUSHING
 62
     7
  6
CONTINUOUS
 10
8.979779
 20
6.897828
 30
0.000000
 11
10.227273
 21
6.897828
 31
0.000000
  0
LINE
  8
BUSHING
 62
     7
  6
CONTINUOUS
 10
8.977273
 20
6.647819
 30
0.000000
 11
10.227273
 21
6.522819
 31
0.000000
  0
LINE
  8
BUSHING
 62
     7
  6
CONTINUOUS
 10
8.977273
 20
8.272819
 30
0.000000
 11
10.227273
 21
8.397819
 31
0.000000
  0
LINE
  8
BUSHING
 62
     7
  6
CONTINUOUS
 10
8.977273
 20
8.249377
 30
0.000000
 11
10.227273
 21
8.249377
 31
0.000000
  0
LINE
  8
BUSHING
 62
     7
  6
CONTINUOUS
 10
8.976132
 20
8.164347
 30
0.000000
 11
10.227273
 21
8.164347
 31
0.000000
  0
POINT
  8
ADV9
 62
     7
 10
11.056950
 20
7.460319
 30
0.000000
  0
LINE
  8
ADV9
 62
     7
  6
CONTINUOUS
 10
11.056950
 20
7.460319
 30
0.000000
 11
11.056950
 21
12.025319
 31
0.000000
  0
LINE
  8
ADV9
 62
     7
  6
CONTINUOUS
 10
11.056950
 20
7.460319
 30
0.000000
 11
11.056950
 21
2.895319
 31
0.000000
  0
LINE
  8
ADV9
 62
     7
  6
CONTINUOUS
 10
11.056950
 20
2.895319
 30
0.000000
 11
12.586857
 21
2.895319
 31
0.000000
  0
LINE
  8
ADV9
 62
     7
  6
CONTINUOUS
 10
11.056950
 20
12.025319
 30
0.000000
 11
12.555082
 21
12.025319
 31
0.000000
  0
POINT
  8
ADV9
 62
     7
 10
11.056950
 20
7.460319
 30
0.000000
  0
POINT
  8
ADV9
 62
     7
 10
11.056950
 20
7.460319
 30
0.000000
  0
LINE
  8
ADV9
 62
     7
  6
CONTINUOUS
 10
11.056950
 20
12.025319
 30
0.000000
 11
11.056950
 21
7.460319
 31
0.000000
  0
POINT
  8
ADV9
 62
     7
 10
10.870273
 20
7.460319
 30
0.000000
  0
POINT
  8
ADV9
 62
     7
 10
10.870273
 20
7.460319
 30
0.000000
  0
POINT
  8
ADV9
 62
     7
 10
10.528273
 20
7.460319
 30
0.000000
  0
LINE
  8
ADV9
 62
     7
  6
CONTINUOUS
 10
10.528273
 20
7.460319
 30
0.000000
 11
10.528273
 21
8.900319
 31
0.000000
  0
LINE
  8
ADV9
 62
     7
  6
CONTINUOUS
 10
10.528273
 20
7.460319
 30
0.000000
 11
10.528273
 21
6.020319
 31
0.000000
  0
POINT
  8
ADV9
 62
     7
 10
10.528273
 20
7.460319
 30
0.000000
  0
POINT
  8
ADV9
 62
     7
 10
10.528273
 20
7.460319
 30
0.000000
  0
POINT
  8
ADV9
 62
     7
 10
9.040273
 20
7.460319
 30
0.000000
  0
LINE
  8
ADV9
 62
     7
  6
CONTINUOUS
 10
9.040273
 20
7.460319
 30
0.000000
 11
9.040273
 21
7.960249
 31
0.000000
  0
LINE
  8
ADV9
 62
     7
  6
CONTINUOUS
 10
9.040273
 20
7.460319
 30
0.000000
 11
9.040273
 21
6.960319
 31
0.000000
  0
POINT
  8
ADV9
 62
     7
 10
9.040273
 20
7.460319
 30
0.000000
  0
POINT
  8
ADV9
 62
     7
 10
9.040273
 20
7.460319
 30
0.000000
  0
POINT
  8
ADV9
 62
     7
 10
9.100261
 20
7.461528
 30
0.000000
  0
POINT
  8
ADV9
 62
     7
 10
9.100261
 20
8.024028
 30
0.000000
  0
POINT
  8
ADV9
 62
     7
 10
9.100261
 20
6.899028
 30
0.000000
  0
LINE
  8
ADV9
 62
     7
  6
CONTINUOUS
 10
9.100261
 20
8.024028
 30
0.000000
 11
10.528273
 21
8.024028
 31
0.000000
  0
LINE
  8
ADV9
 62
     7
  6
CONTINUOUS
 10
9.100261
 20
6.899028
 30
0.000000
 11
10.528273
 21
6.899028
 31
0.000000
  0
LINE
  8
ADV9
 62
     7
  6
CONTINUOUS
 10
9.100261
 20
7.461528
 30
0.000000
 11
9.100261
 21
8.024028
 31
0.000000
  0
LINE
  8
ADV9
 62
     7
  6
CONTINUOUS
 10
9.100261
 20
7.461528
 30
0.000000
 11
9.100261
 21
6.899028
 31
0.000000
  0
LINE
  8
ADV9
 62
     7
  6
CONTINUOUS
 10
9.100261
 20
6.899028
 30
0.000000
 11
9.040273
 21
6.960319
 31
0.000000
  0
LINE
  8
ADV9
 62
     7
  6
CONTINUOUS
 10
9.040273
 20
7.960249
 30
0.000000
 11
9.100261
 21
8.024028
 31
0.000000
  0
LINE
  8
PLATE
 62
     7
  6
CONTINUOUS
 10
9.667079
 20
3.218027
 30
0.000000
 11
9.666592
 21
4.460319
 31
0.000000
  0
LINE
  8
PLATE
 62
     7
  6
CONTINUOUS
 10
9.667079
 20
3.218027
 30
0.000000
 11
9.792115
 21
3.218027
 31
0.000000
  0
LINE
  8
PLATE
 62
     7
  6
CONTINUOUS
 10
9.667079
 20
11.710317
 30
0.000000
 11
9.792115
 21
11.710317
 31
0.000000
  0
LINE
  8
CENTERLINE
 62
     7
  6
CONTINUOUS
 10
2.209616
 20
7.460319
 30
0.000000
 11
19.209618
 21
7.460319
 31
0.000000
  0
LINE
  8
CENTERLINE
 62
     7
  6
CONTINUOUS
 10
10.227273
 20
6.522819
 30
0.000000
 11
10.227273
 21
6.897828
 31
0.000000
  0
LINE
  8
CENTERLINE
 62
     7
  6
CONTINUOUS
 10
10.227273
 20
8.397819
 30
0.000000
 11
10.227273
 21
8.022810
 31
0.000000
  0
LINE
  8
DIMENSIONS
 62
     7
  6
CONTINUOUS
 10
14.451785
 20
6.335319
 30
0.000000
 11
14.389285
 21
6.443572
 31
0.000000
  0
LINE
  8
DIMENSIONS
 62
     7
  6
CONTINUOUS
 10
14.451785
 20
6.335319
 30
0.000000
 11
14.514285
 21
6.443572
 31
0.000000
  0
LINE
  8
DIMENSIONS
 62
     7
  6
CONTINUOUS
 10
14.451785
 20
8.585319
 30
0.000000
 11
14.514285
 21
8.477065
 31
0.000000
  0
LINE
  8
DIMENSIONS
 62
     7
  6
CONTINUOUS
 10
14.451785
 20
8.585319
 30
0.000000
 11
14.389285
 21
8.477065
 31
0.000000
  0
LINE
  8
DIMENSIONS
 62
     7
  6
CONTINUOUS
 10
14.245560
 20
6.335319
 30
0.000000
 11
14.701785
 21
6.335319
 31
0.000000
  0
LINE
  8
DIMENSIONS
 62
     7
  6
CONTINUOUS
 10
14.245560
 20
8.585319
 30
0.000000
 11
14.701785
 21
8.585319
 31
0.000000
  0
TEXT
  8
DIMENSIONS
 62
     7
 10
14.226597
 20
7.203342
 30
0.000000
 40
0.125000
  1
2 1/4"
  0
LINE
  8
DIMENSIONS
 62
     7
  6
CONTINUOUS
 10
14.451785
 20
6.335319
 30
0.000000
 11
14.451785
 21
7.172092
 31
0.000000
  0
LINE
  8
DIMENSIONS
 62
     7
  6
CONTINUOUS
 10
14.451785
 20
7.359766
 30
0.000000
 11
14.451785
 21
8.585319
 31
0.000000
  0
LINE
  8
DIMENSIONS
 62
     7
  6
CONTINUOUS
 10
4.045197
 20
11.028644
 30
0.000000
 11
4.163462
 21
10.988168
 31
0.000000
  0
LINE
  8
DIMENSIONS
 62
     7
  6
CONTINUOUS
 10
4.045197
 20
11.028644
 30
0.000000
 11
4.069276
 21
10.905985
 31
0.000000
  0
LINE
  8
DIMENSIONS
 62
     7
  6
CONTINUOUS
 10
4.045197
 20
11.028644
 30
0.000000
 11
4.914388
 21
10.032504
 31
0.000000
  0
LINE
  8
DIMENSIONS
 62
     7
  6
CONTINUOUS
 10
4.914388
 20
10.032504
 30
0.000000
 11
5.414388
 21
10.032504
 31
0.000000
  0
TEXT
  8
DIMENSIONS
 62
     7
 10
5.476888
 20
9.970004
 30
0.000000
 40
0.125000
  1
BOLT CIRCLE 7 1/4" DIA.
  0
LINE
  8
DIMENSIONS
 62
     7
  6
CONTINUOUS
 10
4.222986
 20
10.439092
 30
0.000000
 11
4.345794
 21
10.415782
 31
0.000000
  0
LINE
  8
DIMENSIONS
 62
     7
  6
CONTINUOUS
 10
4.222986
 20
10.439092
 30
0.000000
 11
4.264203
 21
10.321082
 31
0.000000
  0
LINE
  8
DIMENSIONS
 62
     7
  6
CONTINUOUS
 10
4.222986
 20
10.439092
 30
0.000000
 11
5.072423
 21
9.707234
 31
0.000000
  0
LINE
  8
DIMENSIONS
 62
     7
  6
CONTINUOUS
 10
5.072423
 20
9.707234
 30
0.000000
 11
5.572423
 21
9.707234
 31
0.000000
  0
TEXT
  8
DIMENSIONS
 62
     7
 10
5.634923
 20
9.644735
 30
0.000000
 40
0.125000
  1
HUB CUTOUT 6" DIA.
  0
LINE
  8
DIMENSIONS
 62
     7
  6
CONTINUOUS
 10
6.326776
 20
8.430071
 30
0.000000
 11
6.218523
 21
8.492571
 31
0.000000
  0
LINE
  8
DIMENSIONS
 62
     7
  6
CONTINUOUS
 10
6.326776
 20
8.430071
 30
0.000000
 11
6.326776
 21
8.555071
 31
0.000000
  0
LINE
  8
DIMENSIONS
 62
     7
  6
CONTINUOUS
 10
4.511822
 20
9.395100
 30
0.000000
 11
4.615452
 21
9.464999
 31
0.000000
  0
LINE
  8
DIMENSIONS
 62
     7
  6
CONTINUOUS
 10
4.511822
 20
9.395100
 30
0.000000
 11
4.624171
 21
9.340303
 31
0.000000
  0
LINE
  8
DIMENSIONS
 62
     7
  6
CONTINUOUS
 10
5.894192
 20
8.180319
 30
0.000000
 11
6.543282
 21
8.555071
 31
0.000000
  0
LINE
  8
DIMENSIONS
 62
     7
  6
CONTINUOUS
 10
4.546666
 20
8.896811
 30
0.000000
 11
4.494383
 21
9.644491
 31
0.000000
  0
TEXT
  8
DIMENSIONS
 62
     7
 10
5.428327
 20
9.110152
 30
0.000000
 40
0.125000
  1
64¦
  0
ARC
  8
DIMENSIONS
 62
     7
  6
CONTINUOUS
 10
4.647116
 20
7.460320
 30
0.000000
 40
1.939504
 50
29.999973
 51
56.567321
  0
ARC
  8
DIMENSIONS
 62
     7
  6
CONTINUOUS
 10
4.647116
 20
7.460320
 30
0.000000
 40
1.939504
 50
67.252114
 51
94.000016
  0
LINE
  8
DIMENSIONS
 62
     7
  6
CONTINUOUS
 10
4.512980
 20
9.378541
 30
0.000000
 11
4.409350
 21
9.308642
 31
0.000000
  0
LINE
  8
DIMENSIONS
 62
     7
  6
CONTINUOUS
 10
4.512980
 20
9.378541
 30
0.000000
 11
4.400631
 21
9.433338
 31
0.000000
  0
LINE
  8
DIMENSIONS
 62
     7
  6
CONTINUOUS
 10
2.981830
 20
8.421771
 30
0.000000
 11
2.981830
 21
8.546771
 31
0.000000
  0
LINE
  8
DIMENSIONS
 62
     7
  6
CONTINUOUS
 10
2.981830
 20
8.421771
 30
0.000000
 11
3.090083
 21
8.484271
 31
0.000000
  0
LINE
  8
DIMENSIONS
 62
     7
  6
CONTINUOUS
 10
4.546666
 20
8.896811
 30
0.000000
 11
4.495541
 21
9.627932
 31
0.000000
  0
LINE
  8
DIMENSIONS
 62
     7
  6
CONTINUOUS
 10
3.400039
 20
8.180319
 30
0.000000
 11
2.765324
 21
8.546771
 31
0.000000
  0
TEXT
  8
DIMENSIONS
 62
     7
 10
3.504682
 20
9.028229
 30
0.000000
 40
0.125000
  1
56¦
  0
ARC
  8
DIMENSIONS
 62
     7
  6
CONTINUOUS
 10
4.647116
 20
7.460320
 30
0.000000
 40
1.922905
 50
94.000016
 51
116.709646
  0
ARC
  8
DIMENSIONS
 62
     7
  6
CONTINUOUS
 10
4.647116
 20
7.460320
 30
0.000000
 40
1.922905
 50
126.952507
 51
150.000047
  0
LINE
  8
DIMENSIONS
 62
     7
  6
CONTINUOUS
 10
2.977758
 20
8.424122
 30
0.000000
 11
2.977758
 21
8.299122
 31
0.000000
  0
LINE
  8
DIMENSIONS
 62
     7
  6
CONTINUOUS
 10
2.977758
 20
8.424122
 30
0.000000
 11
2.869505
 21
8.361622
 31
0.000000
  0
LINE
  8
DIMENSIONS
 62
     7
  6
CONTINUOUS
 10
2.977759
 20
6.496515
 30
0.000000
 11
2.869506
 21
6.559015
 31
0.000000
  0
LINE
  8
DIMENSIONS
 62
     7
  6
CONTINUOUS
 10
2.977759
 20
6.496515
 30
0.000000
 11
2.977759
 21
6.621515
 31
0.000000
  0
LINE
  8
DIMENSIONS
 62
     7
  6
CONTINUOUS
 10
3.400039
 20
8.180319
 30
0.000000
 11
2.761251
 21
8.549122
 31
0.000000
  0
LINE
  8
DIMENSIONS
 62
     7
  6
CONTINUOUS
 10
3.400039
 20
6.740319
 30
0.000000
 11
2.761253
 21
6.371515
 31
0.000000
  0
TEXT
  8
DIMENSIONS
 62
     7
 10
2.615224
 20
7.702551
 30
0.000000
 40
0.125000
  1
60¦
  0
ARC
  8
DIMENSIONS
 62
     7
  6
CONTINUOUS
 10
4.647116
 20
7.460320
 30
0.000000
 40
1.927607
 50
150.000047
 51
168.055941
  0
ARC
  8
DIMENSIONS
 62
     7
  6
CONTINUOUS
 10
4.647116
 20
7.460320
 30
0.000000
 40
1.927607
 50
173.716238
 51
210.000044
  0
LINE
  8
DIMENSIONS
 62
     7
  6
CONTINUOUS
 10
3.753382
 20
7.460318
 30
0.000000
 11
3.815882
 21
7.352065
 31
0.000000
  0
LINE
  8
DIMENSIONS
 62
     7
  6
CONTINUOUS
 10
3.753382
 20
7.460318
 30
0.000000
 11
3.690882
 21
7.352065
 31
0.000000
  0
LINE
  8
DIMENSIONS
 62
     7
  6
CONTINUOUS
 10
4.200250
 20
6.686323
 30
0.000000
 11
4.075250
 21
6.686323
 31
0.000000
  0
LINE
  8
DIMENSIONS
 62
     7
  6
CONTINUOUS
 10
4.200250
 20
6.686323
 30
0.000000
 11
4.137749
 21
6.794576
 31
0.000000
  0
LINE
  8
DIMENSIONS
 62
     7
  6
CONTINUOUS
 10
3.881616
 20
7.460319
 30
0.000000
 11
3.503382
 21
7.460318
 31
0.000000
  0
LINE
  8
DIMENSIONS
 62
     7
  6
CONTINUOUS
 10
4.264366
 20
6.797376
 30
0.000000
 11
4.075250
 21
6.469816
 31
0.000000
  0
TEXT
  8
DIMENSIONS
 62
     7
 10
3.675687
 20
7.100387
 30
0.000000
 40
0.125000
  1
60¦
  0
ARC
  8
DIMENSIONS
 62
     7
  6
CONTINUOUS
 10
4.647116
 20
7.460319
 30
0.000000
 40
0.893733
 50
180.000039
 51
193.143914
  0
ARC
  8
DIMENSIONS
 62
     7
  6
CONTINUOUS
 10
4.647116
 20
7.460319
 30
0.000000
 40
0.893733
 50
205.956881
 51
240.000043
  0
LINE
  8
DIMENSIONS
 62
     7
  6
CONTINUOUS
 10
5.941614
 20
5.783668
 30
0.000000
 11
6.004114
 21
5.783668
 31
0.000000
  0
LINE
  8
DIMENSIONS
 62
     7
  6
CONTINUOUS
 10
5.032123
 20
6.961652
 30
0.000000
 11
4.916496
 21
7.009143
 31
0.000000
  0
LINE
  8
DIMENSIONS
 62
     7
  6
CONTINUOUS
 10
5.032123
 20
6.961652
 30
0.000000
 11
5.015438
 21
7.085534
 31
0.000000
  0
LINE
  8
DIMENSIONS
 62
     7
  6
CONTINUOUS
 10
4.262108
 20
7.958986
 30
0.000000
 11
4.377735
 21
7.911495
 31
0.000000
  0
LINE
  8
DIMENSIONS
 62
     7
  6
CONTINUOUS
 10
4.262108
 20
7.958986
 30
0.000000
 11
4.278793
 21
7.835105
 31
0.000000
  0
TEXT
  8
DIMENSIONS
 62
     7
 10
6.035364
 20
5.720856
 30
0.000000
 40
0.125000
  1
1.260"
  0
TEXT
  8
DIMENSIONS
 62
     7
 10
6.448126
 20
5.814918
 30
0.000000
 40
0.125000
  1
+.000"
  0
TEXT
  8
DIMENSIONS
 62
     7
 10
6.448126
 20
5.626795
 30
0.000000
 40
0.125000
  1
-.002"
  0
LINE
  8
DIMENSIONS
 62
     7
  6
CONTINUOUS
 10
4.262108
 20
7.958986
 30
0.000000
 11
5.941614
 21
5.783668
 31
0.000000
  0
LINE
  8
DIMENSIONS
 62
     7
  6
CONTINUOUS
 10
5.260366
 20
5.486327
 30
0.000000
 11
5.322866
 21
5.486327
 31
0.000000
  0
LINE
  8
DIMENSIONS
 62
     7
  6
CONTINUOUS
 10
4.855680
 20
6.788970
 30
0.000000
 11
4.763878
 21
6.873807
 31
0.000000
  0
LINE
  8
DIMENSIONS
 62
     7
  6
CONTINUOUS
 10
4.855680
 20
6.788970
 30
0.000000
 11
4.883250
 21
6.910892
 31
0.000000
  0
LINE
  8
DIMENSIONS
 62
     7
  6
CONTINUOUS
 10
4.438551
 20
8.131668
 30
0.000000
 11
4.530353
 21
8.046831
 31
0.000000
  0
LINE
  8
DIMENSIONS
 62
     7
  6
CONTINUOUS
 10
4.438551
 20
8.131668
 30
0.000000
 11
4.410981
 21
8.009747
 31
0.000000
  0
TEXT
  8
DIMENSIONS
 62
     7
 10
5.354116
 20
5.423740
 30
0.000000
 40
0.125000
  1
1 13/32" BOLT CIRCLEÇ=
  0
LINE
  8
DIMENSIONS
 62
     7
  6
CONTINUOUS
 10
4.438551
 20
8.131668
 30
0.000000
 11
5.260366
 21
5.486327
 31
0.000000
  0
LINE
  8
DIMENSIONS
 62
     7
  6
CONTINUOUS
 10
4.562502
 20
6.842885
 30
0.000000
 11
4.664605
 21
6.770774
 31
0.000000
  0
LINE
  8
DIMENSIONS
 62
     7
  6
CONTINUOUS
 10
4.562502
 20
6.842885
 30
0.000000
 11
4.551104
 21
6.718406
 31
0.000000
  0
LINE
  8
DIMENSIONS
 62
     7
  6
CONTINUOUS
 10
4.562502
 20
6.842885
 30
0.000000
 11
5.293598
 21
5.258335
 31
0.000000
  0
LINE
  8
DIMENSIONS
 62
     7
  6
CONTINUOUS
 10
5.293598
 20
5.258335
 30
0.000000
 11
5.793598
 21
5.258335
 31
0.000000
  0
TEXT
  8
DIMENSIONS
 62
     7
 10
5.856098
 20
5.195835
 30
0.000000
 40
0.125000
  1
SEE NOTE B
  0
LINE
  8
DIMENSIONS
 62
     7
  6
CONTINUOUS
 10
4.407421
 20
6.706089
 30
0.000000
 11
4.517243
 21
6.646389
 31
0.000000
  0
LINE
  8
DIMENSIONS
 62
     7
  6
CONTINUOUS
 10
4.407421
 20
6.706089
 30
0.000000
 11
4.410630
 21
6.581131
 31
0.000000
  0
LINE
  8
DIMENSIONS
 62
     7
  6
CONTINUOUS
 10
4.407421
 20
6.706089
 30
0.000000
 11
5.293598
 21
5.258335
 31
0.000000
  0
LINE
  8
DIMENSIONS
 62
     7
  6
CONTINUOUS
 10
5.293598
 20
5.258335
 30
0.000000
 11
5.793598
 21
5.258335
 31
0.000000
  0
LINE
  8
DIMENSIONS
 62
     7
  6
CONTINUOUS
 10
3.443704
 20
6.592093
 30
0.000000
 11
3.561594
 21
6.550535
 31
0.000000
  0
LINE
  8
DIMENSIONS
 62
     7
  6
CONTINUOUS
 10
3.443704
 20
6.592093
 30
0.000000
 11
3.466659
 21
6.469219
 31
0.000000
  0
LINE
  8
DIMENSIONS
 62
     7
  6
CONTINUOUS
 10
3.443704
 20
6.592093
 30
0.000000
 11
4.761892
 21
5.053141
 31
0.000000
  0
LINE
  8
DIMENSIONS
 62
     7
  6
CONTINUOUS
 10
4.761892
 20
5.053141
 30
0.000000
 11
5.261892
 21
5.053141
 31
0.000000
  0
TEXT
  8
DIMENSIONS
 62
     7
 10
5.324392
 20
4.990641
 30
0.000000
 40
0.125000
  1
SEE NOTE C
  0
LINE
  8
DIMENSIONS
 62
     7
  6
CONTINUOUS
 10
6.556398
 20
6.763088
 30
0.000000
 11
6.618898
 21
6.763088
 31
0.000000
  0
LINE
  8
DIMENSIONS
 62
     7
  6
CONTINUOUS
 10
6.290938
 20
6.860029
 30
0.000000
 11
6.167813
 21
6.838454
 31
0.000000
  0
LINE
  8
DIMENSIONS
 62
     7
  6
CONTINUOUS
 10
6.290938
 20
6.860029
 30
0.000000
 11
6.210691
 21
6.955870
 31
0.000000
  0
LINE
  8
DIMENSIONS
 62
     7
  6
CONTINUOUS
 10
3.003294
 20
8.060609
 30
0.000000
 11
3.126418
 21
8.082184
 31
0.000000
  0
LINE
  8
DIMENSIONS
 62
     7
  6
CONTINUOUS
 10
3.003294
 20
8.060609
 30
0.000000
 11
3.083540
 21
7.964768
 31
0.000000
  0
TEXT
  8
DIMENSIONS
 62
     7
 10
6.650149
 20
6.700501
 30
0.000000
 40
0.125000
  1
3 1/2"
  0
LINE
  8
DIMENSIONS
 62
     7
  6
CONTINUOUS
 10
3.003294
 20
8.060609
 30
0.000000
 11
6.556398
 21
6.763088
 31
0.000000
  0
LINE
  8
DIMENSIONS
 62
     7
  6
CONTINUOUS
 10
7.397116
 20
13.084438
 30
0.000000
 11
7.505369
 21
13.146938
 31
0.000000
  0
LINE
  8
DIMENSIONS
 62
     7
  6
CONTINUOUS
 10
7.397116
 20
13.084438
 30
0.000000
 11
7.505369
 21
13.021938
 31
0.000000
  0
LINE
  8
DIMENSIONS
 62
     7
  6
CONTINUOUS
 10
9.167115
 20
13.084438
 30
0.000000
 11
9.058862
 21
13.021938
 31
0.000000
  0
LINE
  8
DIMENSIONS
 62
     7
  6
CONTINUOUS
 10
9.167115
 20
13.084438
 30
0.000000
 11
9.058862
 21
13.146938
 31
0.000000
  0
LINE
  8
DIMENSIONS
 62
     7
  6
CONTINUOUS
 10
7.397116
 20
12.935317
 30
0.000000
 11
7.397116
 21
13.334438
 31
0.000000
  0
LINE
  8
DIMENSIONS
 62
     7
  6
CONTINUOUS
 10
9.167115
 20
12.935317
 30
0.000000
 11
9.167115
 21
13.334438
 31
0.000000
  0
TEXT
  8
DIMENSIONS
 62
     7
 10
6.765084
 20
13.021642
 30
0.000000
 40
0.125000
  1
1.770"
  0
LINE
  8
DIMENSIONS
 62
     7
  6
CONTINUOUS
 10
7.203039
 20
13.084438
 30
0.000000
 11
9.167115
 21
13.084438
 31
0.000000
  0
LINE
  8
DIMENSIONS
 62
     7
  6
CONTINUOUS
 10
9.167115
 20
12.874940
 30
0.000000
 11
9.058862
 21
12.812440
 31
0.000000
  0
LINE
  8
DIMENSIONS
 62
     7
  6
CONTINUOUS
 10
9.167115
 20
12.874940
 30
0.000000
 11
9.058862
 21
12.937440
 31
0.000000
  0
LINE
  8
DIMENSIONS
 62
     7
  6
CONTINUOUS
 10
9.792115
 20
12.874940
 30
0.000000
 11
9.900368
 21
12.937440
 31
0.000000
  0
LINE
  8
DIMENSIONS
 62
     7
  6
CONTINUOUS
 10
9.792115
 20
12.874940
 30
0.000000
 11
9.900368
 21
12.812440
 31
0.000000
  0
LINE
  8
DIMENSIONS
 62
     7
  6
CONTINUOUS
 10
9.167115
 20
12.935317
 30
0.000000
 11
9.167115
 21
13.124940
 31
0.000000
  0
LINE
  8
DIMENSIONS
 62
     7
  6
CONTINUOUS
 10
9.792115
 20
12.935317
 30
0.000000
 11
9.792115
 21
13.124940
 31
0.000000
  0
TEXT
  8
DIMENSIONS
 62
     7
 10
10.082944
 20
12.811915
 30
0.000000
 40
0.125000
  1
5/8"
  0
LINE
  8
DIMENSIONS
 62
     7
  6
CONTINUOUS
 10
9.167115
 20
12.874940
 30
0.000000
 11
8.917115
 21
12.874940
 31
0.000000
  0
LINE
  8
DIMENSIONS
 62
     7
  6
CONTINUOUS
 10
9.792115
 20
12.874940
 30
0.000000
 11
10.042115
 21
12.874940
 31
0.000000
  0
LINE
  8
DIMENSIONS
 62
     7
  6
CONTINUOUS
 10
9.667079
 20
12.291551
 30
0.000000
 11
9.558826
 21
12.229051
 31
0.000000
  0
LINE
  8
DIMENSIONS
 62
     7
  6
CONTINUOUS
 10
9.667079
 20
12.291551
 30
0.000000
 11
9.558826
 21
12.354051
 31
0.000000
  0
LINE
  8
DIMENSIONS
 62
     7
  6
CONTINUOUS
 10
9.792115
 20
12.291551
 30
0.000000
 11
9.900368
 21
12.354051
 31
0.000000
  0
LINE
  8
DIMENSIONS
 62
     7
  6
CONTINUOUS
 10
9.792115
 20
12.291551
 30
0.000000
 11
9.900368
 21
12.229051
 31
0.000000
  0
LINE
  8
DIMENSIONS
 62
     7
  6
CONTINUOUS
 10
9.667079
 20
11.772819
 30
0.000000
 11
9.667079
 21
12.541551
 31
0.000000
  0
LINE
  8
DIMENSIONS
 62
     7
  6
CONTINUOUS
 10
9.792115
 20
11.772819
 30
0.000000
 11
9.792115
 21
12.541551
 31
0.000000
  0
TEXT
  8
DIMENSIONS
 62
     7
 10
10.095258
 20
12.228642
 30
0.000000
 40
0.125000
  1
1/8"
  0
LINE
  8
DIMENSIONS
 62
     7
  6
CONTINUOUS
 10
9.667079
 20
12.291551
 30
0.000000
 11
9.417079
 21
12.291551
 31
0.000000
  0
LINE
  8
DIMENSIONS
 62
     7
  6
CONTINUOUS
 10
9.792115
 20
12.291551
 30
0.000000
 11
10.042115
 21
12.291551
 31
0.000000
  0
LINE
  8
DIMENSIONS
 62
     7
  6
CONTINUOUS
 10
15.461635
 20
8.189399
 30
0.000000
 11
15.364162
 21
8.267655
 31
0.000000
  0
LINE
  8
DIMENSIONS
 62
     7
  6
CONTINUOUS
 10
15.461635
 20
8.189399
 30
0.000000
 11
15.480671
 21
8.312941
 31
0.000000
  0
LINE
  8
DIMENSIONS
 62
     7
  6
CONTINUOUS
 10
15.461635
 20
8.189399
 30
0.000000
 11
15.066547
 21
9.205867
 31
0.000000
  0
LINE
  8
DIMENSIONS
 62
     7
  6
CONTINUOUS
 10
15.066547
 20
9.205867
 30
0.000000
 11
15.566547
 21
9.205867
 31
0.000000
  0
TEXT
  8
DIMENSIONS
 62
     7
 10
15.629048
 20
9.143367
 30
0.000000
 40
0.125000
  1
SEE NOTE A
  0
LINE
  8
DIMENSIONS
 62
     7
  6
CONTINUOUS
 10
12.271849
 20
5.495758
 30
0.000000
 11
12.380102
 21
5.558258
 31
0.000000
  0
LINE
  8
DIMENSIONS
 62
     7
  6
CONTINUOUS
 10
12.271849
 20
5.495758
 30
0.000000
 11
12.380102
 21
5.433258
 31
0.000000
  0
LINE
  8
DIMENSIONS
 62
     7
  6
CONTINUOUS
 10
12.520102
 20
5.495758
 30
0.000000
 11
12.411848
 21
5.433258
 31
0.000000
  0
LINE
  8
DIMENSIONS
 62
     7
  6
CONTINUOUS
 10
12.520102
 20
5.495758
 30
0.000000
 11
12.411848
 21
5.558258
 31
0.000000
  0
LINE
  8
DIMENSIONS
 62
     7
  6
CONTINUOUS
 10
12.271849
 20
6.767287
 30
0.000000
 11
12.271849
 21
5.245758
 31
0.000000
  0
LINE
  8
DIMENSIONS
 62
     7
  6
CONTINUOUS
 10
12.520102
 20
5.647819
 30
0.000000
 11
12.520102
 21
5.245758
 31
0.000000
  0
TEXT
  8
DIMENSIONS
 62
     7
 10
12.643570
 20
5.433186
 30
0.000000
 40
0.125000
  1
1/4"
  0
LINE
  8
DIMENSIONS
 62
     7
  6
CONTINUOUS
 10
12.271849
 20
5.495758
 30
0.000000
 11
12.612320
 21
5.495758
 31
0.000000
  0
LINE
  8
DIMENSIONS
 62
     7
  6
CONTINUOUS
 10
12.520102
 20
5.258582
 30
0.000000
 11
12.628355
 21
5.321082
 31
0.000000
  0
LINE
  8
DIMENSIONS
 62
     7
  6
CONTINUOUS
 10
12.520102
 20
5.258582
 30
0.000000
 11
12.628355
 21
5.196082
 31
0.000000
  0
LINE
  8
DIMENSIONS
 62
     7
  6
CONTINUOUS
 10
13.238902
 20
5.258582
 30
0.000000
 11
13.130649
 21
5.196082
 31
0.000000
  0
LINE
  8
DIMENSIONS
 62
     7
  6
CONTINUOUS
 10
13.238902
 20
5.258582
 30
0.000000
 11
13.130649
 21
5.321082
 31
0.000000
  0
LINE
  8
DIMENSIONS
 62
     7
  6
CONTINUOUS
 10
12.520102
 20
5.647819
 30
0.000000
 11
12.520102
 21
5.008582
 31
0.000000
  0
LINE
  8
DIMENSIONS
 62
     7
  6
CONTINUOUS
 10
13.238902
 20
5.647819
 30
0.000000
 11
13.238902
 21
5.008582
 31
0.000000
  0
TEXT
  8
DIMENSIONS
 62
     7
 10
12.710273
 20
5.196009
 30
0.000000
 40
0.125000
  1
3/4"
  0
LINE
  8
DIMENSIONS
 62
     7
  6
CONTINUOUS
 10
12.520102
 20
5.258582
 30
0.000000
 11
12.679023
 21
5.258582
 31
0.000000
  0
LINE
  8
DIMENSIONS
 62
     7
  6
CONTINUOUS
 10
13.079981
 20
5.258582
 30
0.000000
 11
13.238902
 21
5.258582
 31
0.000000
  0
LINE
  8
DIMENSIONS
 62
     7
  6
CONTINUOUS
 10
13.238902
 20
5.258582
 30
0.000000
 11
13.347155
 21
5.321082
 31
0.000000
  0
LINE
  8
DIMENSIONS
 62
     7
  6
CONTINUOUS
 10
13.238902
 20
5.258582
 30
0.000000
 11
13.347155
 21
5.196082
 31
0.000000
  0
LINE
  8
DIMENSIONS
 62
     7
  6
CONTINUOUS
 10
14.183060
 20
5.258582
 30
0.000000
 11
14.074807
 21
5.196082
 31
0.000000
  0
LINE
  8
DIMENSIONS
 62
     7
  6
CONTINUOUS
 10
14.183060
 20
5.258582
 30
0.000000
 11
14.074807
 21
5.321082
 31
0.000000
  0
LINE
  8
DIMENSIONS
 62
     7
  6
CONTINUOUS
 10
13.238902
 20
5.647819
 30
0.000000
 11
13.238902
 21
5.008582
 31
0.000000
  0
LINE
  8
DIMENSIONS
 62
     7
  6
CONTINUOUS
 10
14.183060
 20
6.272819
 30
0.000000
 11
14.183060
 21
5.008582
 31
0.000000
  0
TEXT
  8
DIMENSIONS
 62
     7
 10
13.513513
 20
5.195776
 30
0.000000
 40
0.125000
  1
15/16"
  0
LINE
  8
DIMENSIONS
 62
     7
  6
CONTINUOUS
 10
13.238902
 20
5.258582
 30
0.000000
 11
13.482263
 21
5.258582
 31
0.000000
  0
LINE
  8
DIMENSIONS
 62
     7
  6
CONTINUOUS
 10
13.939699
 20
5.258582
 30
0.000000
 11
14.183060
 21
5.258582
 31
0.000000
  0
LINE
  8
DIMENSIONS
 62
     7
  6
CONTINUOUS
 10
12.271849
 20
4.801171
 30
0.000000
 11
12.380102
 21
4.863671
 31
0.000000
  0
LINE
  8
DIMENSIONS
 62
     7
  6
CONTINUOUS
 10
12.271849
 20
4.801171
 30
0.000000
 11
12.380102
 21
4.738671
 31
0.000000
  0
LINE
  8
DIMENSIONS
 62
     7
  6
CONTINUOUS
 10
14.183060
 20
4.801171
 30
0.000000
 11
14.074807
 21
4.738671
 31
0.000000
  0
LINE
  8
DIMENSIONS
 62
     7
  6
CONTINUOUS
 10
14.183060
 20
4.801171
 30
0.000000
 11
14.074807
 21
4.863671
 31
0.000000
  0
LINE
  8
DIMENSIONS
 62
     7
  6
CONTINUOUS
 10
12.271849
 20
6.767287
 30
0.000000
 11
12.271849
 21
4.551171
 31
0.000000
  0
LINE
  8
DIMENSIONS
 62
     7
  6
CONTINUOUS
 10
14.183060
 20
6.272819
 30
0.000000
 11
14.183060
 21
4.551171
 31
0.000000
  0
TEXT
  8
DIMENSIONS
 62
     7
 10
12.970611
 20
4.738365
 30
0.000000
 40
0.125000
  1
1 15/16"
  0
LINE
  8
DIMENSIONS
 62
     7
  6
CONTINUOUS
 10
12.271849
 20
4.801171
 30
0.000000
 11
12.939361
 21
4.801171
 31
0.000000
  0
LINE
  8
DIMENSIONS
 62
     7
  6
CONTINUOUS
 10
13.515547
 20
4.801171
 30
0.000000
 11
14.183060
 21
4.801171
 31
0.000000
  0
LINE
  8
DIMENSIONS
 62
     7
  6
CONTINUOUS
 10
11.778705
 20
6.829787
 30
0.000000
 11
11.716205
 21
6.938040
 31
0.000000
  0
LINE
  8
DIMENSIONS
 62
     7
  6
CONTINUOUS
 10
11.778705
 20
6.829787
 30
0.000000
 11
11.841205
 21
6.938040
 31
0.000000
  0
LINE
  8
DIMENSIONS
 62
     7
  6
CONTINUOUS
 10
11.778705
 20
8.089787
 30
0.000000
 11
11.841205
 21
7.981534
 31
0.000000
  0
LINE
  8
DIMENSIONS
 62
     7
  6
CONTINUOUS
 10
11.778705
 20
8.089787
 30
0.000000
 11
11.716205
 21
7.981534
 31
0.000000
  0
LINE
  8
DIMENSIONS
 62
     7
  6
CONTINUOUS
 10
12.209349
 20
6.829787
 30
0.000000
 11
11.528705
 21
6.829787
 31
0.000000
  0
LINE
  8
DIMENSIONS
 62
     7
  6
CONTINUOUS
 10
12.209349
 20
8.089787
 30
0.000000
 11
11.528705
 21
8.089787
 31
0.000000
  0
TEXT
  8
DIMENSIONS
 62
     7
 10
11.334997
 20
7.636899
 30
0.000000
 40
0.125000
  1
1.260"
  0
TEXT
  8
DIMENSIONS
 62
     7
 10
11.747760
 20
7.730960
 30
0.000000
 40
0.125000
  1
+.000"
  0
TEXT
  8
DIMENSIONS
 62
     7
 10
11.747760
 20
7.542838
 30
0.000000
 40
0.125000
  1
-.002"
  0
LINE
  8
DIMENSIONS
 62
     7
  6
CONTINUOUS
 10
11.778705
 20
6.829787
 30
0.000000
 11
11.778705
 21
7.511602
 31
0.000000
  0
LINE
  8
DIMENSIONS
 62
     7
  6
CONTINUOUS
 10
11.778705
 20
7.887819
 30
0.000000
 11
11.778705
 21
8.089787
 31
0.000000
  0
LINE
  8
DIMENSIONS
 62
     7
  6
CONTINUOUS
 10
13.431831
 20
8.351854
 30
0.000000
 11
13.535084
 21
8.281399
 31
0.000000
  0
LINE
  8
DIMENSIONS
 62
     7
  6
CONTINUOUS
 10
13.431831
 20
8.351854
 30
0.000000
 11
13.422441
 21
8.227208
 31
0.000000
  0
LINE
  8
DIMENSIONS
 62
     7
  6
CONTINUOUS
 10
13.431831
 20
8.351854
 30
0.000000
 11
14.823214
 21
5.459735
 31
0.000000
  0
LINE
  8
DIMENSIONS
 62
     7
  6
CONTINUOUS
 10
14.823214
 20
5.459735
 30
0.000000
 11
15.323214
 21
5.459735
 31
0.000000
  0
TEXT
  8
DIMENSIONS
 62
     7
 10
15.385713
 20
5.397236
 30
0.000000
 40
0.125000
  1
BORE TO SUIT BUSHING
  0
LINE
  8
DIMENSIONS
 62
     7
  6
CONTINUOUS
 10
12.870060
 20
6.890905
 30
0.000000
 11
12.978313
 21
6.953405
 31
0.000000
  0
LINE
  8
DIMENSIONS
 62
     7
  6
CONTINUOUS
 10
12.870060
 20
6.890905
 30
0.000000
 11
12.978313
 21
6.828405
 31
0.000000
  0
LINE
  8
DIMENSIONS
 62
     7
  6
CONTINUOUS
 10
14.183060
 20
6.890905
 30
0.000000
 11
14.074807
 21
6.828405
 31
0.000000
  0
LINE
  8
DIMENSIONS
 62
     7
  6
CONTINUOUS
 10
14.183060
 20
6.890905
 30
0.000000
 11
14.074807
 21
6.953405
 31
0.000000
  0
LINE
  8
DIMENSIONS
 62
     7
  6
CONTINUOUS
 10
12.870060
 20
6.691619
 30
0.000000
 11
12.870060
 21
7.140905
 31
0.000000
  0
LINE
  8
DIMENSIONS
 62
     7
  6
CONTINUOUS
 10
14.183060
 20
6.554069
 30
0.000000
 11
14.183060
 21
7.140905
 31
0.000000
  0
TEXT
  8
DIMENSIONS
 62
     7
 10
13.285342
 20
6.828098
 30
0.000000
 40
0.125000
  1
1 5/16"
  0
LINE
  8
DIMENSIONS
 62
     7
  6
CONTINUOUS
 10
12.870060
 20
6.890905
 30
0.000000
 11
13.254092
 21
6.890905
 31
0.000000
  0
LINE
  8
DIMENSIONS
 62
     7
  6
CONTINUOUS
 10
13.799028
 20
6.890905
 30
0.000000
 11
14.183060
 21
6.890905
 31
0.000000
  0
LINE
  8
DIMENSIONS
 62
     7
  6
CONTINUOUS
 10
12.383162
 20
8.099789
 30
0.000000
 11
12.278316
 21
8.167850
 31
0.000000
  0
LINE
  8
DIMENSIONS
 62
     7
  6
CONTINUOUS
 10
12.383162
 20
8.099789
 30
0.000000
 11
12.389681
 21
8.224619
 31
0.000000
  0
LINE
  8
DIMENSIONS
 62
     7
  6
CONTINUOUS
 10
12.383162
 20
8.099789
 30
0.000000
 11
11.601306
 21
9.633586
 31
0.000000
  0
LINE
  8
DIMENSIONS
 62
     7
  6
CONTINUOUS
 10
11.601306
 20
9.633586
 30
0.000000
 11
12.101306
 21
9.633586
 31
0.000000
  0
TEXT
  8
DIMENSIONS
 62
     7
 10
12.163806
 20
9.571086
 30
0.000000
 40
0.125000
  1
FLYWHEEL LOCATING PROJECTION
  0
LINE
  8
DIMENSIONS
 62
     7
  6
CONTINUOUS
 10
5.194182
 20
11.903163
 30
0.000000
 11
5.256682
 21
11.903163
 31
0.000000
  0
LINE
  8
DIMENSIONS
 62
     7
  6
CONTINUOUS
 10
5.166513
 20
11.678461
 30
0.000000
 11
5.215315
 21
11.563381
 31
0.000000
  0
LINE
  8
DIMENSIONS
 62
     7
  6
CONTINUOUS
 10
5.166513
 20
11.678461
 30
0.000000
 11
5.091252
 21
11.578658
 31
0.000000
  0
LINE
  8
DIMENSIONS
 62
     7
  6
CONTINUOUS
 10
4.127718
 20
3.242179
 30
0.000000
 11
4.078916
 21
3.357259
 31
0.000000
  0
LINE
  8
DIMENSIONS
 62
     7
  6
CONTINUOUS
 10
4.127718
 20
3.242179
 30
0.000000
 11
4.202979
 21
3.341982
 31
0.000000
  0
TEXT
  8
DIMENSIONS
 62
     7
 10
5.287932
 20
11.840114
 30
0.000000
 40
0.125000
  1
8.500"
  0
TEXT
  8
DIMENSIONS
 62
     7
 10
5.771684
 20
11.934413
 30
0.000000
 40
0.125000
  1
+.000"
  0
TEXT
  8
DIMENSIONS
 62
     7
 10
5.771684
 20
11.745816
 30
0.000000
 40
0.125000
  1
-.002"
  0
LINE
  8
DIMENSIONS
 62
     7
  6
CONTINUOUS
 10
4.127718
 20
3.242179
 30
0.000000
 11
5.194182
 21
11.903163
 31
0.000000
  0
LINE
  8
DIMENSIONS
 62
     7
  6
CONTINUOUS
 10
4.795862
 20
11.313254
 30
0.000000
 11
4.790486
 21
11.438139
 31
0.000000
  0
LINE
  8
DIMENSIONS
 62
     7
  6
CONTINUOUS
 10
4.795862
 20
11.313254
 30
0.000000
 11
4.901327
 21
11.380352
 31
0.000000
  0
LINE
  8
DIMENSIONS
 62
     7
  6
CONTINUOUS
 10
4.795862
 20
11.313254
 30
0.000000
 11
5.326217
 21
12.330533
 31
0.000000
  0
LINE
  8
DIMENSIONS
 62
     7
  6
CONTINUOUS
 10
5.326217
 20
12.330533
 30
0.000000
 11
5.826217
 21
12.330533
 31
0.000000
  0
TEXT
  8
DIMENSIONS
 62
     7
 10
5.888717
 20
12.268033
 30
0.000000
 40
0.125000
  1
DRILL 17/32"
  0
LINE
  8
DIMENSIONS
 62
     7
  6
CONTINUOUS
 10
6.708784
 20
7.007531
 30
0.000000
 11
6.771284
 21
7.007531
 31
0.000000
  0
LINE
  8
DIMENSIONS
 62
     7
  6
CONTINUOUS
 10
5.992549
 20
7.164832
 30
0.000000
 11
5.873409
 21
7.127009
 31
0.000000
  0
LINE
  8
DIMENSIONS
 62
     7
  6
CONTINUOUS
 10
5.992549
 20
7.164832
 30
0.000000
 11
5.900223
 21
7.249099
 31
0.000000
  0
LINE
  8
DIMENSIONS
 62
     7
  6
CONTINUOUS
 10
3.301682
 20
7.755806
 30
0.000000
 11
3.420822
 21
7.793630
 31
0.000000
  0
LINE
  8
DIMENSIONS
 62
     7
  6
CONTINUOUS
 10
3.301682
 20
7.755806
 30
0.000000
 11
3.394009
 21
7.671539
 31
0.000000
  0
TEXT
  8
DIMENSIONS
 62
     7
 10
6.802534
 20
6.944725
 30
0.000000
 40
0.125000
  1
2.755"
  0
LINE
  8
DIMENSIONS
 62
     7
  6
CONTINUOUS
 10
3.301682
 20
7.755806
 30
0.000000
 11
6.708784
 21
7.007531
 31
0.000000
  0
LINE
  8
DIMENSIONS
 62
     7
  6
CONTINUOUS
 10
14.769946
 20
5.710319
 30
0.000000
 11
14.707446
 21
5.818572
 31
0.000000
  0
LINE
  8
DIMENSIONS
 62
     7
  6
CONTINUOUS
 10
14.769946
 20
5.710319
 30
0.000000
 11
14.832446
 21
5.818572
 31
0.000000
  0
LINE
  8
DIMENSIONS
 62
     7
  6
CONTINUOUS
 10
14.769946
 20
9.210319
 30
0.000000
 11
14.832446
 21
9.102065
 31
0.000000
  0
LINE
  8
DIMENSIONS
 62
     7
  6
CONTINUOUS
 10
14.769946
 20
9.210319
 30
0.000000
 11
14.707446
 21
9.102065
 31
0.000000
  0
LINE
  8
DIMENSIONS
 62
     7
  6
CONTINUOUS
 10
13.301402
 20
5.710319
 30
0.000000
 11
15.019946
 21
5.710319
 31
0.000000
  0
LINE
  8
DIMENSIONS
 62
     7
  6
CONTINUOUS
 10
13.301402
 20
9.210319
 30
0.000000
 11
15.019946
 21
9.210319
 31
0.000000
  0
TEXT
  8
DIMENSIONS
 62
     7
 10
14.549767
 20
6.968032
 30
0.000000
 40
0.125000
  1
3 1/2"
  0
LINE
  8
DIMENSIONS
 62
     7
  6
CONTINUOUS
 10
14.769946
 20
5.710319
 30
0.000000
 11
14.769946
 21
6.936783
 31
0.000000
  0
LINE
  8
DIMENSIONS
 62
     7
  6
CONTINUOUS
 10
14.769946
 20
7.124456
 30
0.000000
 11
14.769946
 21
9.210319
 31
0.000000
  0
LINE
  8
DIMENSIONS
 62
     7
  6
CONTINUOUS
 10
11.305436
 20
4.207384
 30
0.000000
 11
11.398102
 21
4.291277
 31
0.000000
  0
LINE
  8
DIMENSIONS
 62
     7
  6
CONTINUOUS
 10
11.305436
 20
4.207384
 30
0.000000
 11
11.424423
 21
4.169079
 31
0.000000
  0
LINE
  8
DIMENSIONS
 62
     7
  6
CONTINUOUS
 10
11.305436
 20
4.207384
 30
0.000000
 11
12.079943
 21
4.374208
 31
0.000000
  0
LINE
  8
DIMENSIONS
 62
     7
  6
CONTINUOUS
 10
12.079943
 20
4.374208
 30
0.000000
 11
12.579943
 21
4.374208
 31
0.000000
  0
TEXT
  8
DIMENSIONS
 62
     7
 10
12.642443
 20
4.311708
 30
0.000000
 40
0.125000
  1
RING DIAMETERS AS PER STD 9" RING PRINT
  0
LINE
  8
DIMENSIONS
 62
     7
  6
CONTINUOUS
 10
11.305436
 20
3.354723
 30
0.000000
 11
11.348823
 21
3.471952
 31
0.000000
  0
LINE
  8
DIMENSIONS
 62
     7
  6
CONTINUOUS
 10
11.305436
 20
3.354723
 30
0.000000
 11
11.428653
 21
3.375764
 31
0.000000
  0
LINE
  8
DIMENSIONS
 62
     7
  6
CONTINUOUS
 10
11.305436
 20
3.354723
 30
0.000000
 11
11.863801
 21
3.818126
 31
0.000000
  0
LINE
  8
DIMENSIONS
 62
     7
  6
CONTINUOUS
 10
11.863801
 20
3.818126
 30
0.000000
 11
12.363801
 21
3.818126
 31
0.000000
  0
TEXT
  8
DIMENSIONS
 62
     7
 10
12.426301
 20
3.755626
 30
0.000000
 40
0.125000
  1
DRILL AND COUNTERBORE AS PER PRINT
  0
LINE
  8
DIMENSIONS
 62
     7
  6
CONTINUOUS
 10
6.386694
 20
6.085577
 30
0.000000
 11
6.449194
 21
6.085577
 31
0.000000
  0
LINE
  8
DIMENSIONS
 62
     7
  6
CONTINUOUS
 10
4.971931
 20
7.203626
 30
0.000000
 11
4.848246
 21
7.221711
 31
0.000000
  0
LINE
  8
DIMENSIONS
 62
     7
  6
CONTINUOUS
 10
4.971931
 20
7.203626
 30
0.000000
 11
4.925750
 21
7.319783
 31
0.000000
  0
LINE
  8
DIMENSIONS
 62
     7
  6
CONTINUOUS
 10
4.322301
 20
7.717012
 30
0.000000
 11
4.445985
 21
7.698928
 31
0.000000
  0
LINE
  8
DIMENSIONS
 62
     7
  6
CONTINUOUS
 10
4.322301
 20
7.717012
 30
0.000000
 11
4.368482
 21
7.600855
 31
0.000000
  0
TEXT
  8
DIMENSIONS
 62
     7
 10
6.480444
 20
6.022669
 30
0.000000
 40
0.125000
  1
.828"
  0
LINE
  8
DIMENSIONS
 62
     7
  6
CONTINUOUS
 10
4.322301
 20
7.717012
 30
0.000000
 11
6.386694
 21
6.085577
 31
0.000000
  0
LINE
  8
DIMENSIONS
 62
     7
  6
CONTINUOUS
 10
12.768994
 20
7.046319
 30
0.000000
 11
12.706494
 21
7.154572
 31
0.000000
  0
LINE
  8
DIMENSIONS
 62
     7
  6
CONTINUOUS
 10
12.768994
 20
7.046319
 30
0.000000
 11
12.831494
 21
7.154572
 31
0.000000
  0
LINE
  8
DIMENSIONS
 62
     7
  6
CONTINUOUS
 10
12.768994
 20
7.874319
 30
0.000000
 11
12.831494
 21
7.766066
 31
0.000000
  0
LINE
  8
DIMENSIONS
 62
     7
  6
CONTINUOUS
 10
12.768994
 20
7.874319
 30
0.000000
 11
12.706494
 21
7.766066
 31
0.000000
  0
LINE
  8
DIMENSIONS
 62
     7
  6
CONTINUOUS
 10
12.807560
 20
7.046319
 30
0.000000
 11
12.518994
 21
7.046319
 31
0.000000
  0
LINE
  8
DIMENSIONS
 62
     7
  6
CONTINUOUS
 10
12.807560
 20
7.874319
 30
0.000000
 11
12.518994
 21
7.874319
 31
0.000000
  0
TEXT
  8
DIMENSIONS
 62
     7
 10
12.293604
 20
7.527227
 30
0.000000
 40
0.125000
  1
.826"+/-.001"
  0
LINE
  8
DIMENSIONS
 62
     7
  6
CONTINUOUS
 10
12.768994
 20
7.046319
 30
0.000000
 11
12.768994
 21
7.495977
 31
0.000000
  0
LINE
  8
DIMENSIONS
 62
     7
  6
CONTINUOUS
 10
12.768994
 20
7.684574
 30
0.000000
 11
12.768994
 21
7.874319
 31
0.000000
  0
TEXT
  8
DIMENSIONS
 62
     7
 10
14.342862
 20
11.103623
 30
0.000000
 40
0.125000
  1
NOTE A-- TAP 10-24 x 1" DEEP
  0
TEXT
  8
DIMENSIONS
 62
     7
 10
14.337748
 20
10.887201
 30
0.000000
 40
0.125000
  1
NOTE B-- DRILL 13/64" COUNTERBORE 23/64"
  0
TEXT
  8
DIMENSIONS
 62
     7
 10
14.337748
 20
10.699702
 30
0.000000
 40
0.125000
  1
x 7/16" DEEP.  THEN TURN FACE OF HUB
  0
TEXT
  8
DIMENSIONS
 62
     7
 10
14.337748
 20
10.512202
 30
0.000000
 40
0.125000
  1
DOWN TO LOCATING PROJECTION DIMENSIONS
  0
TEXT
  8
DIMENSIONS
 62
     7
 10
14.337748
 20
10.324702
 30
0.000000
 40
0.125000
  1
NOTE C-- DRILL 23/64" TAP 10 x 1.0 mm. 9/16"
  0
TEXT
  8
DIMENSIONS
 62
     7
 10
14.337748
 20
10.137202
 30
0.000000
 40
0.125000
  1
DEEP
  0
TEXT
  8
DIMENSIONS
 62
     7
 10
14.337748
 20
9.949702
 30
0.000000
 40
0.125000
  1
NOTE D-- SUPPLY 4, 3/8"-16 x 1 1/2" CAP 
  0
TEXT
  8
DIMENSIONS
 62
     7
 10
14.337748
 20
9.762202
 30
0.000000
 40
0.125000
  1
SCREWS FOR RING TO MOTOR ASSEMBLY
  0
TEXT
  8
DIMENSIONS
 62
     7
 10
14.342862
 20
11.291123
 30
0.000000
 40
0.125000
  1
TO ADVANCED DC 9" MOTOR
  0
TEXT
  8
DIMENSIONS
 62
     7
 10
14.342862
 20
11.666123
 30
0.000000
 40
0.125000
  1
FORD RANGER 2.0L 83-88 4 CYL
  0
TEXT
  8
DIMENSIONS
 62
     7
 10
14.342862
 20
11.478622
 30
0.000000
 40
0.125000
  1
2.3L 77-97 4 CYL
  0
TEXT
  8
HUB
 62
     7
 10
14.490859
 20
12.563587
 30
0.000000
 40
0.125000
  1
ELECTRO AUTOMOTIVE
  0
TEXT
  8
HUB
 62
     7
 10
14.490859
 20
12.376087
 30
0.000000
 40
0.125000
  1
P.O. BOX 1113 FELTON CA. 95018-1113
  0
TEXT
  8
HUB
 62
     7
 10
14.490859
 20
12.001087
 30
0.000000
 40
0.125000
  1
DRAWN BY MICHAEL P. BROWN
  0
LINE
  8
HUB
 62
     7
  6
CONTINUOUS
 10
14.358111
 20
12.801083
 30
0.000000
 11
17.924563
 21
12.801083
 31
0.000000
  0
LINE
  8
HUB
 62
     7
  6
CONTINUOUS
 10
17.924563
 20
12.801083
 30
0.000000
 11
17.924563
 21
11.901098
 31
0.000000
  0
LINE
  8
HUB
 62
     7
  6
CONTINUOUS
 10
17.924563
 20
11.901098
 30
0.000000
 11
14.358111
 21
11.901098
 31
0.000000
  0
LINE
  8
HUB
 62
     7
  6
CONTINUOUS
 10
14.358111
 20
11.901098
 30
0.000000
 11
14.358111
 21
12.801083
 31
0.000000
  0
TEXT
  8
HUB
 62
     7
 10
14.490859
 20
12.188586
 30
0.000000
 40
0.125000
  1
PHONE 831-429-1989 FAX 831-429-1907
  0
POINT
  8
HUB
 62
     7
 10
4.647116
 20
7.460319
 30
0.000000
  0
CIRCLE
  8
HUB
 62
     7
  6
CONTINUOUS
 10
4.647116
 20
7.460319
 30
0.000000
 40
1.750000
  0
ARC
  8
HUB
 62
     7
  6
CONTINUOUS
 10
4.647116
 20
7.460318
 30
0.000000
 40
3.625001
 50
53.932648
 51
125.758353
  0
ARC
  8
HUB
 62
     7
  6
CONTINUOUS
 10
4.647116
 20
7.460316
 30
0.000000
 40
3.624998
 50
235.094490
 51
306.691904
  0
POINT
  8
HUB
 62
     7
 10
4.647116
 20
11.085319
 30
0.000000
  0
CIRCLE
  8
HUB
 62
     7
  6
CONTINUOUS
 10
4.647116
 20
11.085319
 30
0.000000
 40
0.265600
  0
POINT
  8
HUB
 62
     7
 10
4.647116
 20
3.835319
 30
0.000000
  0
POINT
  8
HUB
 62
     7
 10
4.647116
 20
7.460319
 30
0.000000
  0
POINT
  8
HUB
 62
     7
 10
4.647116
 20
7.460319
 30
0.000000
  0
POINT
  8
HUB
 62
     7
 10
4.647116
 20
7.460319
 30
0.000000
  0
ARC
  8
HUB
 62
     7
  6
CONTINUOUS
 10
4.647116
 20
7.460322
 30
0.000000
 40
4.249996
 50
59.484743
 51
126.229894
  0
ARC
  8
HUB
 62
     7
  6
CONTINUOUS
 10
4.647116
 20
7.460320
 30
0.000000
 40
4.250001
 50
239.408708
 51
302.501801
  0
CIRCLE
  8
HUB
 62
     7
  6
CONTINUOUS
 10
4.647116
 20
3.835319
 30
0.000000
 40
0.265600
  0
LINE
  8
HUB
 62
     7
  6
CONTINUOUS
 10
4.647116
 20
11.868985
 30
0.000000
 11
4.647116
 21
2.772692
 31
0.000000
  0
CIRCLE
  8
HUB
 62
     7
  6
CONTINUOUS
 10
4.647116
 20
7.460319
 30
0.000000
 40
0.630000
  0
CIRCLE
  8
HUB
 62
     7
  6
CONTINUOUS
 10
4.647116
 20
7.460319
 30
0.000000
 40
1.377499
  0
CIRCLE
  8
HUB
 62
     7
  6
CONTINUOUS
 10
4.647116
 20
7.460319
 30
0.000000
 40
0.703000
  0
CIRCLE
  8
DIMENSIONS
 62
     7
  6
CONTINUOUS
 10
5.350116
 20
7.460319
 30
0.000000
 40
0.101550
  0
CIRCLE
  8
DIMENSIONS
 62
     7
  6
CONTINUOUS
 10
5.350116
 20
7.460319
 30
0.000000
 40
0.179700
  0
CIRCLE
  8
DIMENSIONS
 62
     7
  6
CONTINUOUS
 10
4.998615
 20
8.069136
 30
0.000000
 40
0.101550
  0
CIRCLE
  8
DIMENSIONS
 62
     7
  6
CONTINUOUS
 10
4.998615
 20
8.069136
 30
0.000000
 40
0.179700
  0
CIRCLE
  8
DIMENSIONS
 62
     7
  6
CONTINUOUS
 10
4.295615
 20
8.069135
 30
0.000000
 40
0.101550
  0
CIRCLE
  8
DIMENSIONS
 62
     7
  6
CONTINUOUS
 10
4.295615
 20
8.069135
 30
0.000000
 40
0.179700
  0
CIRCLE
  8
DIMENSIONS
 62
     7
  6
CONTINUOUS
 10
3.944116
 20
7.460319
 30
0.000000
 40
0.101550
  0
CIRCLE
  8
DIMENSIONS
 62
     7
  6
CONTINUOUS
 10
3.944116
 20
7.460319
 30
0.000000
 40
0.179700
  0
CIRCLE
  8
DIMENSIONS
 62
     7
  6
CONTINUOUS
 10
4.295616
 20
6.851503
 30
0.000000
 40
0.101550
  0
CIRCLE
  8
DIMENSIONS
 62
     7
  6
CONTINUOUS
 10
4.295616
 20
6.851503
 30
0.000000
 40
0.179700
  0
CIRCLE
  8
DIMENSIONS
 62
     7
  6
CONTINUOUS
 10
4.998616
 20
6.851503
 30
0.000000
 40
0.101550
  0
CIRCLE
  8
DIMENSIONS
 62
     7
  6
CONTINUOUS
 10
4.998616
 20
6.851503
 30
0.000000
 40
0.179700
  0
LINE
  8
HUB
 62
     7
  6
CONTINUOUS
 10
4.647116
 20
7.460319
 30
0.000000
 11
6.277570
 21
8.401662
 31
0.000000
  0
LINE
  8
HUB
 62
     7
  6
CONTINUOUS
 10
4.647116
 20
7.460319
 30
0.000000
 11
4.515486
 21
9.342713
 31
0.000000
  0
LINE
  8
HUB
 62
     7
  6
CONTINUOUS
 10
4.647116
 20
7.460319
 30
0.000000
 11
2.893010
 21
8.473052
 31
0.000000
  0
LINE
  8
HUB
 62
     7
  6
CONTINUOUS
 10
4.647116
 20
7.460319
 30
0.000000
 11
2.752097
 21
6.366230
 31
0.000000
  0
POINT
  8
HUB
 62
     7
 10
3.454166
 20
6.771569
 30
0.000000
  0
CIRCLE
  8
HUB
 62
     7
  6
CONTINUOUS
 10
3.454166
 20
6.771569
 30
0.000000
 40
0.179500
  0
CIRCLE
  8
HUB
 62
     7
  6
CONTINUOUS
 10
4.647116
 20
6.082819
 30
0.000000
 40
0.179500
  0
CIRCLE
  8
HUB
 62
     7
  6
CONTINUOUS
 10
5.840066
 20
6.771569
 30
0.000000
 40
0.179500
  0
CIRCLE
  8
HUB
 62
     7
  6
CONTINUOUS
 10
5.840065
 20
8.149069
 30
0.000000
 40
0.179500
  0
CIRCLE
  8
HUB
 62
     7
  6
CONTINUOUS
 10
3.454165
 20
8.149069
 30
0.000000
 40
0.179500
  0
POINT
  8
HUB
 62
     7
 10
4.551026
 20
8.834463
 30
0.000000
  0
CIRCLE
  8
HUB
 62
     7
  6
CONTINUOUS
 10
4.551026
 20
8.834463
 30
0.000000
 40
0.179500
  0
LINE
  8
HUB
 62
     7
  6
CONTINUOUS
 10
4.647116
 20
7.460319
 30
0.000000
 11
6.521689
 21
6.378034
 31
0.000000
  0
ARC
  8
HUB
 62
     7
  6
CONTINUOUS
 10
4.647115
 20
7.460316
 30
0.000000
 40
3.000002
 50
67.732601
 51
139.730164
  0
ARC
  8
HUB
 62
     7
  6
CONTINUOUS
 10
4.646374
 20
7.459604
 30
0.000000
 40
3.001028
 50
37.320582
 51
45.277405
  0
ARC
  8
HUB
 62
     7
  6
CONTINUOUS
 10
4.647115
 20
7.460317
 30
0.000000
 40
2.999999
 50
222.592504
 51
308.100683
  0
CIRCLE
  8
HUB
 62
     7
  6
CONTINUOUS
 10
4.647116
 20
7.460319
 30
0.000000
 40
0.414000
  0
LINE
  8
PLATE
 62
     7
  6
CONTINUOUS
 10
9.667079
 20
8.585319
 30
0.000000
 11
9.667079
 21
11.710317
 31
0.000000
  0
LINE
  8
ADV9
 62
     7
  6
CONTINUOUS
 10
11.056950
 20
9.460314
 30
0.000000
 11
10.870273
 21
9.460314
 31
0.000000
  0
LINE
  8
ADV9
 62
     7
  6
CONTINUOUS
 10
10.870273
 20
9.460314
 30
0.000000
 11
10.870273
 21
5.469839
 31
0.000000
  0
LINE
  8
ADV9
 62
     7
  6
CONTINUOUS
 10
11.056950
 20
5.469839
 30
0.000000
 11
10.870273
 21
5.469839
 31
0.000000
  0
LINE
  8
ADV9
 62
     7
  6
CONTINUOUS
 10
10.528273
 20
8.900319
 30
0.000000
 11
10.870273
 21
9.054797
 31
0.000000
  0
LINE
  8
ADV9
 62
     7
  6
CONTINUOUS
 10
10.528273
 20
6.020319
 30
0.000000
 11
10.870273
 21
5.864371
 31
0.000000
  0
POINT
  8
RING
 62
     7
 10
9.669079
 20
7.460319
 30
0.000000
  0
POINT
  8
RING
 62
     7
 10
9.669079
 20
11.092837
 30
0.000000
  0
POINT
  8
RING
 62
     7
 10
9.668661
 20
11.342837
 30
0.000000
  0
POINT
  8
RING
 62
     7
 10
9.669079
 20
11.092837
 30
0.000000
  0
POINT
  8
RING
 62
     7
 10
9.668551
 20
10.842837
 30
0.000000
  0
POINT
  8
RING
 62
     7
 10
9.669079
 20
11.092837
 30
0.000000
  0
POINT
  8
RING
 62
     7
 10
9.731577
 20
11.092194
 30
0.000000
  0
POINT
  8
RING
 62
     7
 10
9.731577
 20
11.092194
 30
0.000000
  0
POINT
  8
RING
 62
     7
 10
9.794068
 20
11.091136
 30
0.000000
  0
POINT
  8
RING
 62
     7
 10
9.794068
 20
11.092194
 30
0.000000
  0
POINT
  8
RING
 62
     7
 10
9.856558
 20
11.092194
 30
0.000000
  0
POINT
  8
RING
 62
     7
 10
9.919050
 20
11.092194
 30
0.000000
  0
POINT
  8
RING
 62
     7
 10
9.981543
 20
11.092194
 30
0.000000
  0
POINT
  8
RING
 62
     7
 10
10.044033
 20
11.092194
 30
0.000000
  0
POINT
  8
RING
 62
     7
 10
10.106524
 20
11.092194
 30
0.000000
  0
POINT
  8
RING
 62
     7
 10
10.169016
 20
11.092194
 30
0.000000
  0
POINT
  8
RING
 62
     7
 10
10.231508
 20
11.092194
 30
0.000000
  0
POINT
  8
RING
 62
     7
 10
10.293999
 20
11.092194
 30
0.000000
  0
POINT
  8
RING
 62
     7
 10
10.356489
 20
11.092194
 30
0.000000
  0
POINT
  8
RING
 62
     7
 10
10.418982
 20
11.092194
 30
0.000000
  0
POINT
  8
RING
 62
     7
 10
10.481474
 20
11.092194
 30
0.000000
  0
POINT
  8
RING
 62
     7
 10
10.543965
 20
11.092194
 30
0.000000
  0
POINT
  8
RING
 62
     7
 10
10.606455
 20
11.092194
 30
0.000000
  0
POINT
  8
RING
 62
     7
 10
10.668947
 20
11.092194
 30
0.000000
  0
POINT
  8
RING
 62
     7
 10
10.731440
 20
11.092194
 30
0.000000
  0
POINT
  8
RING
 62
     7
 10
10.793930
 20
11.092194
 30
0.000000
  0
POINT
  8
RING
 62
     7
 10
10.856421
 20
11.092194
 30
0.000000
  0
POINT
  8
RING
 62
     7
 10
10.918913
 20
11.092194
 30
0.000000
  0
POINT
  8
RING
 62
     7
 10
10.981405
 20
11.092194
 30
0.000000
  0
LINE
  8
RING
 62
     7
  6
CONTINUOUS
 10
9.731577
 20
11.092194
 30
0.000000
 11
9.731577
 21
11.342772
 31
0.000000
  0
LINE
  8
RING
 62
     7
  6
CONTINUOUS
 10
9.731577
 20
11.092194
 30
0.000000
 11
9.731577
 21
10.850329
 31
0.000000
  0
LINE
  8
RING
 62
     7
  6
CONTINUOUS
 10
9.794068
 20
11.092194
 30
0.000000
 11
9.794068
 21
11.303195
 31
0.000000
  0
LINE
  8
RING
 62
     7
  6
CONTINUOUS
 10
9.794068
 20
11.091136
 30
0.000000
 11
9.794068
 21
10.880135
 31
0.000000
  0
POINT
  8
RING
 62
     7
 10
9.856558
 20
11.092194
 30
0.000000
  0
POINT
  8
RING
 62
     7
 10
9.856558
 20
11.092194
 30
0.000000
  0
LINE
  8
RING
 62
     7
  6
CONTINUOUS
 10
9.856558
 20
11.092194
 30
0.000000
 11
9.856558
 21
11.342772
 31
0.000000
  0
LINE
  8
RING
 62
     7
  6
CONTINUOUS
 10
9.856558
 20
11.092194
 30
0.000000
 11
9.856558
 21
10.850329
 31
0.000000
  0
POINT
  8
RING
 62
     7
 10
9.981543
 20
11.092194
 30
0.000000
  0
POINT
  8
RING
 62
     7
 10
9.981543
 20
11.092194
 30
0.000000
  0
LINE
  8
RING
 62
     7
  6
CONTINUOUS
 10
9.981543
 20
11.092194
 30
0.000000
 11
9.981543
 21
11.342772
 31
0.000000
  0
LINE
  8
RING
 62
     7
  6
CONTINUOUS
 10
9.981543
 20
11.092194
 30
0.000000
 11
9.981543
 21
10.850329
 31
0.000000
  0
POINT
  8
RING
 62
     7
 10
10.106524
 20
11.092194
 30
0.000000
  0
POINT
  8
RING
 62
     7
 10
10.106524
 20
11.092194
 30
0.000000
  0
LINE
  8
RING
 62
     7
  6
CONTINUOUS
 10
10.106524
 20
11.092194
 30
0.000000
 11
10.106524
 21
11.342772
 31
0.000000
  0
LINE
  8
RING
 62
     7
  6
CONTINUOUS
 10
10.106524
 20
11.092194
 30
0.000000
 11
10.106524
 21
10.850329
 31
0.000000
  0
POINT
  8
RING
 62
     7
 10
10.231508
 20
11.092194
 30
0.000000
  0
POINT
  8
RING
 62
     7
 10
10.231508
 20
11.092194
 30
0.000000
  0
LINE
  8
RING
 62
     7
  6
CONTINUOUS
 10
10.231508
 20
11.092194
 30
0.000000
 11
10.231508
 21
11.342772
 31
0.000000
  0
LINE
  8
RING
 62
     7
  6
CONTINUOUS
 10
10.231508
 20
11.092194
 30
0.000000
 11
10.231508
 21
10.850329
 31
0.000000
  0
POINT
  8
RING
 62
     7
 10
10.356489
 20
11.092194
 30
0.000000
  0
POINT
  8
RING
 62
     7
 10
10.356489
 20
11.092194
 30
0.000000
  0
LINE
  8
RING
 62
     7
  6
CONTINUOUS
 10
10.356489
 20
11.092194
 30
0.000000
 11
10.356489
 21
11.342772
 31
0.000000
  0
LINE
  8
RING
 62
     7
  6
CONTINUOUS
 10
10.356489
 20
11.092194
 30
0.000000
 11
10.356489
 21
10.850329
 31
0.000000
  0
POINT
  8
RING
 62
     7
 10
10.481474
 20
11.092194
 30
0.000000
  0
POINT
  8
RING
 62
     7
 10
10.481474
 20
11.092194
 30
0.000000
  0
LINE
  8
RING
 62
     7
  6
CONTINUOUS
 10
10.481474
 20
11.092194
 30
0.000000
 11
10.481474
 21
11.342772
 31
0.000000
  0
LINE
  8
RING
 62
     7
  6
CONTINUOUS
 10
10.481474
 20
11.092194
 30
0.000000
 11
10.481474
 21
10.850329
 31
0.000000
  0
POINT
  8
RING
 62
     7
 10
10.606455
 20
11.092194
 30
0.000000
  0
POINT
  8
RING
 62
     7
 10
10.606455
 20
11.092194
 30
0.000000
  0
LINE
  8
RING
 62
     7
  6
CONTINUOUS
 10
10.606455
 20
11.092194
 30
0.000000
 11
10.606455
 21
11.342772
 31
0.000000
  0
LINE
  8
RING
 62
     7
  6
CONTINUOUS
 10
10.606455
 20
11.092194
 30
0.000000
 11
10.606455
 21
10.850329
 31
0.000000
  0
POINT
  8
RING
 62
     7
 10
10.731440
 20
11.092194
 30
0.000000
  0
POINT
  8
RING
 62
     7
 10
10.731440
 20
11.092194
 30
0.000000
  0
LINE
  8
RING
 62
     7
  6
CONTINUOUS
 10
10.731440
 20
11.092194
 30
0.000000
 11
10.731440
 21
11.342772
 31
0.000000
  0
LINE
  8
RING
 62
     7
  6
CONTINUOUS
 10
10.731440
 20
11.092194
 30
0.000000
 11
10.731440
 21
10.850329
 31
0.000000
  0
POINT
  8
RING
 62
     7
 10
10.856421
 20
11.092194
 30
0.000000
  0
POINT
  8
RING
 62
     7
 10
10.856421
 20
11.092194
 30
0.000000
  0
LINE
  8
RING
 62
     7
  6
CONTINUOUS
 10
10.856421
 20
11.092194
 30
0.000000
 11
10.856421
 21
11.342772
 31
0.000000
  0
LINE
  8
RING
 62
     7
  6
CONTINUOUS
 10
10.856421
 20
11.092194
 30
0.000000
 11
10.856421
 21
10.850329
 31
0.000000
  0
POINT
  8
RING
 62
     7
 10
10.981405
 20
11.092194
 30
0.000000
  0
POINT
  8
RING
 62
     7
 10
10.981405
 20
11.092194
 30
0.000000
  0
LINE
  8
RING
 62
     7
  6
CONTINUOUS
 10
10.981405
 20
11.092194
 30
0.000000
 11
10.981405
 21
11.342772
 31
0.000000
  0
LINE
  8
RING
 62
     7
  6
CONTINUOUS
 10
10.981405
 20
11.092194
 30
0.000000
 11
10.981405
 21
10.850329
 31
0.000000
  0
POINT
  8
RING
 62
     7
 10
9.919050
 20
11.091136
 30
0.000000
  0
POINT
  8
RING
 62
     7
 10
9.919050
 20
11.092194
 30
0.000000
  0
LINE
  8
RING
 62
     7
  6
CONTINUOUS
 10
9.919050
 20
11.092194
 30
0.000000
 11
9.919050
 21
11.303195
 31
0.000000
  0
LINE
  8
RING
 62
     7
  6
CONTINUOUS
 10
9.919050
 20
11.091136
 30
0.000000
 11
9.919050
 21
10.880135
 31
0.000000
  0
POINT
  8
RING
 62
     7
 10
10.044033
 20
11.091136
 30
0.000000
  0
POINT
  8
RING
 62
     7
 10
10.044033
 20
11.092194
 30
0.000000
  0
LINE
  8
RING
 62
     7
  6
CONTINUOUS
 10
10.044033
 20
11.092194
 30
0.000000
 11
10.044033
 21
11.303195
 31
0.000000
  0
LINE
  8
RING
 62
     7
  6
CONTINUOUS
 10
10.044033
 20
11.091136
 30
0.000000
 11
10.044033
 21
10.880135
 31
0.000000
  0
POINT
  8
RING
 62
     7
 10
10.169016
 20
11.091136
 30
0.000000
  0
POINT
  8
RING
 62
     7
 10
10.169016
 20
11.092194
 30
0.000000
  0
LINE
  8
RING
 62
     7
  6
CONTINUOUS
 10
10.169016
 20
11.092194
 30
0.000000
 11
10.169016
 21
11.303195
 31
0.000000
  0
LINE
  8
RING
 62
     7
  6
CONTINUOUS
 10
10.169016
 20
11.091136
 30
0.000000
 11
10.169016
 21
10.880135
 31
0.000000
  0
POINT
  8
RING
 62
     7
 10
10.293999
 20
11.091136
 30
0.000000
  0
POINT
  8
RING
 62
     7
 10
10.293999
 20
11.092194
 30
0.000000
  0
LINE
  8
RING
 62
     7
  6
CONTINUOUS
 10
10.293999
 20
11.092194
 30
0.000000
 11
10.293999
 21
11.303195
 31
0.000000
  0
LINE
  8
RING
 62
     7
  6
CONTINUOUS
 10
10.293999
 20
11.091136
 30
0.000000
 11
10.293999
 21
10.880135
 31
0.000000
  0
POINT
  8
RING
 62
     7
 10
10.418982
 20
11.091136
 30
0.000000
  0
POINT
  8
RING
 62
     7
 10
10.418982
 20
11.092194
 30
0.000000
  0
LINE
  8
RING
 62
     7
  6
CONTINUOUS
 10
10.418982
 20
11.092194
 30
0.000000
 11
10.418982
 21
11.303195
 31
0.000000
  0
LINE
  8
RING
 62
     7
  6
CONTINUOUS
 10
10.418982
 20
11.091136
 30
0.000000
 11
10.418982
 21
10.880135
 31
0.000000
  0
POINT
  8
RING
 62
     7
 10
10.543965
 20
11.091136
 30
0.000000
  0
POINT
  8
RING
 62
     7
 10
10.543965
 20
11.092194
 30
0.000000
  0
LINE
  8
RING
 62
     7
  6
CONTINUOUS
 10
10.543965
 20
11.092194
 30
0.000000
 11
10.543965
 21
11.303195
 31
0.000000
  0
LINE
  8
RING
 62
     7
  6
CONTINUOUS
 10
10.543965
 20
11.091136
 30
0.000000
 11
10.543965
 21
10.880135
 31
0.000000
  0
POINT
  8
RING
 62
     7
 10
10.668947
 20
11.091136
 30
0.000000
  0
POINT
  8
RING
 62
     7
 10
10.668947
 20
11.092194
 30
0.000000
  0
LINE
  8
RING
 62
     7
  6
CONTINUOUS
 10
10.668947
 20
11.092194
 30
0.000000
 11
10.668947
 21
11.303195
 31
0.000000
  0
LINE
  8
RING
 62
     7
  6
CONTINUOUS
 10
10.668947
 20
11.091136
 30
0.000000
 11
10.668947
 21
10.880135
 31
0.000000
  0
POINT
  8
RING
 62
     7
 10
10.793930
 20
11.091136
 30
0.000000
  0
POINT
  8
RING
 62
     7
 10
10.793930
 20
11.092194
 30
0.000000
  0
LINE
  8
RING
 62
     7
  6
CONTINUOUS
 10
10.793930
 20
11.092194
 30
0.000000
 11
10.793930
 21
11.303195
 31
0.000000
  0
LINE
  8
RING
 62
     7
  6
CONTINUOUS
 10
10.793930
 20
11.091136
 30
0.000000
 11
10.793930
 21
10.880135
 31
0.000000
  0
POINT
  8
RING
 62
     7
 10
10.918913
 20
11.091136
 30
0.000000
  0
POINT
  8
RING
 62
     7
 10
10.918913
 20
11.092194
 30
0.000000
  0
LINE
  8
RING
 62
     7
  6
CONTINUOUS
 10
10.918913
 20
11.092194
 30
0.000000
 11
10.918913
 21
11.303195
 31
0.000000
  0
LINE
  8
RING
 62
     7
  6
CONTINUOUS
 10
10.918913
 20
11.091136
 30
0.000000
 11
10.918913
 21
10.880135
 31
0.000000
  0
POINT
  8
RING
 62
     7
 10
9.669079
 20
3.267839
 30
0.000000
  0
POINT
  8
RING
 62
     7
 10
9.669079
 20
3.267839
 30
0.000000
  0
POINT
  8
RING
 62
     7
 10
9.669079
 20
3.267839
 30
0.000000
  0
POINT
  8
RING
 62
     7
 10
9.669079
 20
3.267839
 30
0.000000
  0
LINE
  8
RING
 62
     7
  6
CONTINUOUS
 10
9.965950
 20
2.970846
 30
0.000000
 11
10.340950
 21
2.970846
 31
0.000000
  0
LINE
  8
RING
 62
     7
  6
CONTINUOUS
 10
10.340950
 20
2.970846
 30
0.000000
 11
10.340950
 21
3.564846
 31
0.000000
  0
LINE
  8
RING
 62
     7
  6
CONTINUOUS
 10
9.669079
 20
3.217839
 30
0.000000
 11
9.854998
 21
3.217839
 31
0.000000
  0
LINE
  8
RING
 62
     7
  6
CONTINUOUS
 10
9.854998
 20
3.217839
 30
0.000000
 11
9.994738
 21
2.902838
 31
0.000000
  0
LINE
  8
RING
 62
     7
  6
CONTINUOUS
 10
9.983687
 20
10.467837
 30
0.000000
 11
9.669079
 21
10.467837
 31
0.000000
  0
LINE
  8
RING
 62
     7
  6
CONTINUOUS
 10
9.669079
 20
4.467839
 30
0.000000
 11
9.983687
 21
4.467839
 31
0.000000
  0
LINE
  8
RING
 62
     7
  6
CONTINUOUS
 10
10.340950
 20
3.564846
 30
0.000000
 11
9.669079
 21
3.564846
 31
0.000000
  0
POINT
  8
RING
 62
     7
 10
9.669079
 20
7.460319
 30
0.000000
  0
LINE
  8
RING
 62
     7
  6
CONTINUOUS
 10
9.669079
 20
11.702799
 30
0.000000
 11
9.875076
 21
11.702799
 31
0.000000
  0
LINE
  8
RING
 62
     7
  6
CONTINUOUS
 10
9.993593
 20
12.032837
 30
0.000000
 11
9.875076
 21
11.702799
 31
0.000000
  0
LINE
  8
RING
 62
     7
  6
CONTINUOUS
 10
11.054950
 20
12.032837
 30
0.000000
 11
11.054950
 21
9.467839
 31
0.000000
  0
LINE
  8
RING
 62
     7
  6
CONTINUOUS
 10
9.993593
 20
12.032837
 30
0.000000
 11
11.054950
 21
12.032837
 31
0.000000
  0
LINE
  8
RING
 62
     7
  6
CONTINUOUS
 10
9.983687
 20
9.467839
 30
0.000000
 11
11.054950
 21
9.467839
 31
0.000000
  0
LINE
  8
RING
 62
     7
  6
CONTINUOUS
 10
11.054950
 20
5.467839
 30
0.000000
 11
11.054950
 21
2.902838
 31
0.000000
  0
LINE
  8
RING
 62
     7
  6
CONTINUOUS
 10
9.994738
 20
2.902838
 30
0.000000
 11
11.054950
 21
2.902838
 31
0.000000
  0
LINE
  8
RING
 62
     7
  6
CONTINUOUS
 10
9.983687
 20
5.467839
 30
0.000000
 11
11.054950
 21
5.467839
 31
0.000000
  0
POINT
  8
RING
 62
     7
 10
11.056950
 20
5.469839
 30
0.000000
  0
LINE
  8
RING
 62
     7
  6
CONTINUOUS
 10
10.339941
 20
3.062298
 30
0.000000
 11
11.058014
 21
3.062298
 31
0.000000
  0
LINE
  8
RING
 62
     7
  6
CONTINUOUS
 10
10.340950
 20
3.470837
 30
0.000000
 11
11.054950
 21
3.470837
 31
0.000000
  0
LINE
  8
RING
 62
     7
  6
CONTINUOUS
 10
11.054950
 20
3.267839
 30
0.000000
 11
9.437376
 21
3.267839
 31
0.000000
  0
LINE
  8
RING
 62
     7
  6
CONTINUOUS
 10
9.668551
 20
10.842837
 30
0.000000
 11
11.054950
 21
10.842837
 31
0.000000
  0
LINE
  8
RING
 62
     7
  6
CONTINUOUS
 10
11.054950
 20
11.092837
 30
0.000000
 11
9.174257
 21
11.092837
 31
0.000000
  0
LINE
  8
RING
 62
     7
  6
CONTINUOUS
 10
9.668661
 20
11.342837
 30
0.000000
 11
11.054950
 21
11.342837
 31
0.000000
  0
LINE
  8
RING
 62
     7
  6
CONTINUOUS
 10
9.983687
 20
10.467837
 30
0.000000
 11
9.983687
 21
8.585319
 31
0.000000
  0
LINE
  8
RING
 62
     7
  6
CONTINUOUS
 10
9.983687
 20
6.335319
 30
0.000000
 11
9.983687
 21
4.467839
 31
0.000000
  0
LINE
  8
RING
 62
     7
  6
CONTINUOUS
 10
9.669079
 20
3.217839
 30
0.000000
 11
9.669079
 21
6.335319
 31
0.000000
  0
LINE
  8
RING
 62
     7
  6
CONTINUOUS
 10
9.669079
 20
8.585319
 30
0.000000
 11
9.669079
 21
11.702799
 31
0.000000
  0
LINE
  8
DIMENSIONS
 62
     7
  6
CONTINUOUS
 10
9.669079
 20
12.545911
 30
0.000000
 11
9.777332
 21
12.608411
 31
0.000000
  0
LINE
  8
DIMENSIONS
 62
     7
  6
CONTINUOUS
 10
9.669079
 20
12.545911
 30
0.000000
 11
9.777332
 21
12.483411
 31
0.000000
  0
LINE
  8
DIMENSIONS
 62
     7
  6
CONTINUOUS
 10
11.054950
 20
12.545911
 30
0.000000
 11
10.946697
 21
12.483411
 31
0.000000
  0
LINE
  8
DIMENSIONS
 62
     7
  6
CONTINUOUS
 10
11.054950
 20
12.545911
 30
0.000000
 11
10.946697
 21
12.608411
 31
0.000000
  0
LINE
  8
DIMENSIONS
 62
     7
  6
CONTINUOUS
 10
9.669079
 20
11.765299
 30
0.000000
 11
9.669079
 21
12.795911
 31
0.000000
  0
LINE
  8
DIMENSIONS
 62
     7
  6
CONTINUOUS
 10
11.054950
 20
12.095337
 30
0.000000
 11
11.054950
 21
12.795911
 31
0.000000
  0
TEXT
  8
DIMENSIONS
 62
     7
 10
10.160596
 20
12.482938
 30
0.000000
 40
0.125000
  1
1.386"
  0
LINE
  8
DIMENSIONS
 62
     7
  6
CONTINUOUS
 10
9.669079
 20
12.545911
 30
0.000000
 11
10.129345
 21
12.545911
 31
0.000000
  0
LINE
  8
DIMENSIONS
 62
     7
  6
CONTINUOUS
 10
10.594684
 20
12.545911
 30
0.000000
 11
11.054950
 21
12.545911
 31
0.000000
  0
ENDSEC
  0
EOF
