  0
SECTION
  2
HEADER
  9
$ACADVER
  1
AC1006
  0
ENDSEC
  0
SECTION
  2
TABLES
  0
TABLE
  2
LTYPE
 70
    25
  0
LTYPE
  2
CONTINUOUS
 70
    64
  3
Solid line
 72
    64
 73
     0
 40
0.000000
  0
LTYPE
  2
DASHDOT
 70
    64
  3
__ . __ . __ . __ . __ . __ . __ . __ . __ . __
 72
    65
 73
     4
 40
1.000000
 49
0.500000
 49
-0.250000
 49
0.000000
 49
-0.250000
  0
LTYPE
  2
DASHED
 70
    64
  3
__ __ __ __ __ __ __ __ __ __ __ __ __ __ __ __
 72
    65
 73
     2
 40
0.750000
 49
0.500000
 49
-0.250000
  0
LTYPE
  2
DIVIDE
 70
    64
  3
____ . . ____ . . ____ . . ____ . . ____ . . __
 72
    65
 73
     6
 40
1.250000
 49
0.500000
 49
-0.250000
 49
0.000000
 49
-0.250000
 49
0.000000
 49
-0.250000
  0
LTYPE
  2
DOT
 70
    64
  3
. . . . . . . . . . . . . . . . . . . . . . . . 
 72
    65
 73
     2
 40
0.250000
 49
0.000000
 49
-0.250000
  0
ENDTAB
  0
ENDSEC
  0
SECTION
  2
ENTITIES
  0
POINT
  8
CENTER
 62
     7
 10
0.796299
 20
7.476893
 30
0.000000
  0
LINE
  8
CENTER
 62
     7
  6
CONTINUOUS
 10
0.796299
 20
7.476893
 30
0.000000
 11
17.296299
 21
7.476893
 31
0.000000
  0
LINE
  8
PARTS
 62
     7
  6
CONTINUOUS
 10
7.351298
 20
12.532393
 30
0.000000
 11
6.986299
 21
12.532393
 31
0.000000
  0
LINE
  8
PARTS
 62
     7
  6
CONTINUOUS
 10
7.351298
 20
2.421394
 30
0.000000
 11
6.986299
 21
2.421394
 31
0.000000
  0
LINE
  8
PARTS
 62
     7
  6
CONTINUOUS
 10
6.296299
 20
2.487393
 30
0.000000
 11
6.866299
 21
2.487393
 31
0.000000
  0
LINE
  8
PARTS
 62
     7
  6
CONTINUOUS
 10
6.296299
 20
12.466393
 30
0.000000
 11
6.866299
 21
12.466393
 31
0.000000
  0
LINE
  8
PARTS
 62
     7
  6
CONTINUOUS
 10
6.866299
 20
12.466393
 30
0.000000
 11
6.866299
 21
12.219394
 31
0.000000
  0
LINE
  8
PARTS
 62
     7
  6
CONTINUOUS
 10
6.986299
 20
12.532393
 30
0.000000
 11
6.986299
 21
12.219394
 31
0.000000
  0
LINE
  8
PARTS
 62
     7
  6
CONTINUOUS
 10
6.866299
 20
12.219394
 30
0.000000
 11
6.986299
 21
12.219394
 31
0.000000
  0
LINE
  8
PARTS
 62
     7
  6
CONTINUOUS
 10
6.866299
 20
2.487393
 30
0.000000
 11
6.866299
 21
2.734393
 31
0.000000
  0
LINE
  8
PARTS
 62
     7
  6
CONTINUOUS
 10
6.986299
 20
2.421394
 30
0.000000
 11
6.986299
 21
2.734393
 31
0.000000
  0
LINE
  8
PARTS
 62
     7
  6
CONTINUOUS
 10
6.866299
 20
2.734393
 30
0.000000
 11
6.986299
 21
2.734393
 31
0.000000
  0
POINT
  8
PARTS
 62
     7
 10
7.351298
 20
11.631893
 30
0.000000
  0
POINT
  8
PARTS
 62
     7
 10
7.351298
 20
3.321894
 30
0.000000
  0
POINT
  8
PARTS
 62
     7
 10
7.041298
 20
5.669394
 30
0.000000
  0
LINE
  8
PARTS
 62
     7
  6
CONTINUOUS
 10
7.041298
 20
9.284393
 30
0.000000
 11
7.041298
 21
11.124893
 31
0.000000
  0
LINE
  8
PARTS
 62
     7
  6
CONTINUOUS
 10
7.041298
 20
5.669394
 30
0.000000
 11
7.041298
 21
3.828894
 31
0.000000
  0
LINE
  8
PARTS
 62
     7
  6
CONTINUOUS
 10
7.041298
 20
9.284393
 30
0.000000
 11
7.299298
 21
8.954393
 31
0.000000
  0
LINE
  8
PARTS
 62
     7
  6
CONTINUOUS
 10
7.041298
 20
5.669394
 30
0.000000
 11
7.299298
 21
5.999393
 31
0.000000
  0
LINE
  8
PARTS
 62
     7
  6
CONTINUOUS
 10
7.041298
 20
3.828894
 30
0.000000
 11
7.351298
 21
3.321894
 31
0.000000
  0
LINE
  8
PARTS
 62
     7
  6
CONTINUOUS
 10
7.351298
 20
11.631893
 30
0.000000
 11
7.041298
 21
11.124893
 31
0.000000
  0
LINE
  8
PARTS
 62
     7
  6
CONTINUOUS
 10
7.351298
 20
11.631893
 30
0.000000
 11
7.351298
 21
12.532393
 31
0.000000
  0
LINE
  8
PARTS
 62
     7
  6
CONTINUOUS
 10
7.351298
 20
3.321894
 30
0.000000
 11
7.351298
 21
2.421394
 31
0.000000
  0
LINE
  8
PARTS
 62
     7
  6
CONTINUOUS
 10
7.135298
 20
8.814393
 30
0.000000
 11
7.299298
 21
8.814393
 31
0.000000
  0
LINE
  8
PARTS
 62
     7
  6
CONTINUOUS
 10
7.135298
 20
6.139395
 30
0.000000
 11
7.299298
 21
6.139395
 31
0.000000
  0
LINE
  8
PARTS
 62
     7
  6
CONTINUOUS
 10
7.180298
 20
8.064894
 30
0.000000
 11
7.180298
 21
6.888894
 31
0.000000
  0
LINE
  8
PARTS
 62
     7
  6
CONTINUOUS
 10
7.180298
 20
8.064894
 30
0.000000
 11
7.135298
 21
8.064894
 31
0.000000
  0
LINE
  8
PARTS
 62
     7
  6
CONTINUOUS
 10
7.180298
 20
6.888894
 30
0.000000
 11
7.135298
 21
6.888894
 31
0.000000
  0
LINE
  8
PARTS
 62
     7
  6
CONTINUOUS
 10
7.299298
 20
8.814393
 30
0.000000
 11
7.299298
 21
8.954393
 31
0.000000
  0
LINE
  8
PARTS
 62
     7
  6
CONTINUOUS
 10
7.299298
 20
6.139395
 30
0.000000
 11
7.299298
 21
5.999393
 31
0.000000
  0
POINT
  8
PARTS
 62
     7
 10
6.296299
 20
11.391893
 30
0.000000
  0
LINE
  8
PARTS
 62
     7
  6
CONTINUOUS
 10
6.296299
 20
11.391893
 30
0.000000
 11
6.386299
 21
11.391893
 31
0.000000
  0
LINE
  8
PARTS
 62
     7
  6
CONTINUOUS
 10
6.386299
 20
3.561918
 30
0.000000
 11
6.296299
 21
3.561918
 31
0.000000
  0
LINE
  8
PARTS
 62
     7
  6
CONTINUOUS
 10
6.296299
 20
11.391894
 30
0.000000
 11
6.296299
 21
12.466393
 31
0.000000
  0
LINE
  8
PARTS
 62
     7
  6
CONTINUOUS
 10
6.296299
 20
3.561918
 30
0.000000
 11
6.296299
 21
2.487393
 31
0.000000
  0
POINT
  8
PARTS
 62
     7
 10
6.386299
 20
9.998894
 30
0.000000
  0
POINT
  8
PARTS
 62
     7
 10
6.386299
 20
4.954893
 30
0.000000
  0
LINE
  8
PARTS
 62
     7
  6
CONTINUOUS
 10
6.386299
 20
9.998894
 30
0.000000
 11
6.633299
 21
9.998894
 31
0.000000
  0
LINE
  8
PARTS
 62
     7
  6
CONTINUOUS
 10
6.386299
 20
4.954893
 30
0.000000
 11
6.633299
 21
4.954893
 31
0.000000
  0
LINE
  8
PARTS
 62
     7
  6
CONTINUOUS
 10
6.386299
 20
9.998894
 30
0.000000
 11
6.386299
 21
11.391893
 31
0.000000
  0
LINE
  8
PARTS
 62
     7
  6
CONTINUOUS
 10
6.386299
 20
4.954893
 30
0.000000
 11
6.386299
 21
3.561918
 31
0.000000
  0
LINE
  8
PARTS
 62
     7
  6
CONTINUOUS
 10
6.838299
 20
9.051893
 30
0.000000
 11
6.838299
 21
5.901894
 31
0.000000
  0
POINT
  8
PARTS
 62
     7
 10
6.838299
 20
7.476893
 30
0.000000
  0
LINE
  8
PARTS
 62
     7
  6
CONTINUOUS
 10
6.838299
 20
5.901894
 30
0.000000
 11
6.633299
 21
5.901894
 31
0.000000
  0
LINE
  8
PARTS
 62
     7
  6
CONTINUOUS
 10
6.838299
 20
9.051893
 30
0.000000
 11
6.633299
 21
9.051893
 31
0.000000
  0
LINE
  8
PARTS
 62
     7
  6
CONTINUOUS
 10
6.633299
 20
5.901894
 30
0.000000
 11
6.633299
 21
4.954893
 31
0.000000
  0
LINE
  8
PARTS
 62
     7
  6
CONTINUOUS
 10
6.633299
 20
9.051893
 30
0.000000
 11
6.633299
 21
9.998894
 31
0.000000
  0
LINE
  8
PARTS
 62
     7
  6
CONTINUOUS
 10
7.135298
 20
8.064894
 30
0.000000
 11
6.838299
 21
8.064894
 31
0.000000
  0
LINE
  8
PARTS
 62
     7
  6
CONTINUOUS
 10
7.135298
 20
6.888894
 30
0.000000
 11
6.838299
 21
6.888894
 31
0.000000
  0
LINE
  8
PARTS
 62
     7
  6
CONTINUOUS
 10
7.135298
 20
8.064894
 30
0.000000
 11
7.135298
 21
8.814393
 31
0.000000
  0
LINE
  8
PARTS
 62
     7
  6
CONTINUOUS
 10
7.135298
 20
6.888894
 30
0.000000
 11
7.135298
 21
6.139395
 31
0.000000
  0
POINT
  8
PARTS
 62
     7
 10
6.838299
 20
8.498894
 30
0.000000
  0
LINE
  8
PARTS
 62
     7
  6
CONTINUOUS
 10
6.838299
 20
8.707893
 30
0.000000
 11
7.135298
 21
8.707893
 31
0.000000
  0
POINT
  8
HUB
 62
     7
 10
3.796299
 20
7.476893
 30
0.000000
  0
LINE
  8
HUB
 62
     7
  6
CONTINUOUS
 10
3.796299
 20
13.292246
 30
0.000000
 11
3.796299
 21
1.661541
 31
0.000000
  0
CIRCLE
  8
HUB
 62
     7
  6
CONTINUOUS
 10
3.796299
 20
7.476893
 30
0.000000
 40
0.703000
  0
CIRCLE
  8
DIEM
 62
     7
  6
CONTINUOUS
 10
4.499299
 20
7.476893
 30
0.000000
 40
0.101550
  0
CIRCLE
  8
DIEM
 62
     7
  6
CONTINUOUS
 10
4.499299
 20
7.476893
 30
0.000000
 40
0.179700
  0
CIRCLE
  8
DIEM
 62
     7
  6
CONTINUOUS
 10
4.147799
 20
8.085710
 30
0.000000
 40
0.101550
  0
CIRCLE
  8
DIEM
 62
     7
  6
CONTINUOUS
 10
4.147799
 20
8.085710
 30
0.000000
 40
0.179700
  0
CIRCLE
  8
DIEM
 62
     7
  6
CONTINUOUS
 10
3.444798
 20
8.085710
 30
0.000000
 40
0.101550
  0
CIRCLE
  8
DIEM
 62
     7
  6
CONTINUOUS
 10
3.444798
 20
8.085710
 30
0.000000
 40
0.179700
  0
CIRCLE
  8
DIEM
 62
     7
  6
CONTINUOUS
 10
3.093299
 20
7.476893
 30
0.000000
 40
0.101550
  0
CIRCLE
  8
DIEM
 62
     7
  6
CONTINUOUS
 10
3.093299
 20
7.476893
 30
0.000000
 40
0.179700
  0
CIRCLE
  8
DIEM
 62
     7
  6
CONTINUOUS
 10
3.444799
 20
6.868077
 30
0.000000
 40
0.101550
  0
CIRCLE
  8
DIEM
 62
     7
  6
CONTINUOUS
 10
3.444799
 20
6.868077
 30
0.000000
 40
0.179700
  0
CIRCLE
  8
DIEM
 62
     7
  6
CONTINUOUS
 10
4.147799
 20
6.868078
 30
0.000000
 40
0.101550
  0
CIRCLE
  8
DIEM
 62
     7
  6
CONTINUOUS
 10
4.147799
 20
6.868078
 30
0.000000
 40
0.179700
  0
CIRCLE
  8
HUB
 62
     7
  6
CONTINUOUS
 10
3.796299
 20
7.476893
 30
0.000000
 40
1.022000
  0
POINT
  8
HUB
 62
     7
 10
4.681376
 20
7.987893
 30
0.000000
  0
CIRCLE
  8
HUB
 62
     7
  6
CONTINUOUS
 10
4.681376
 20
7.987893
 30
0.000000
 40
0.209001
  0
CIRCLE
  8
HUB
 62
     7
  6
CONTINUOUS
 10
3.796299
 20
8.498893
 30
0.000000
 40
0.209001
  0
CIRCLE
  8
HUB
 62
     7
  6
CONTINUOUS
 10
2.911222
 20
7.987893
 30
0.000000
 40
0.209000
  0
CIRCLE
  8
HUB
 62
     7
  6
CONTINUOUS
 10
2.911222
 20
6.965894
 30
0.000000
 40
0.209000
  0
CIRCLE
  8
HUB
 62
     7
  6
CONTINUOUS
 10
3.796299
 20
6.454894
 30
0.000000
 40
0.209000
  0
CIRCLE
  8
HUB
 62
     7
  6
CONTINUOUS
 10
4.681376
 20
6.965894
 30
0.000000
 40
0.209000
  0
LINE
  8
HUB
 62
     7
  6
CONTINUOUS
 10
5.317931
 20
8.355409
 30
0.000000
 11
2.107684
 21
6.501971
 31
0.000000
  0
LINE
  8
HUB
 62
     7
  6
CONTINUOUS
 10
2.217700
 20
8.388298
 30
0.000000
 11
5.493961
 21
6.496748
 31
0.000000
  0
LINE
  8
HUB
 62
     7
  6
CONTINUOUS
 10
4.569599
 20
8.816289
 30
0.000000
 11
2.947379
 21
6.006520
 31
0.000000
  0
LINE
  8
HUB
 62
     7
  6
CONTINUOUS
 10
3.021680
 20
8.818573
 30
0.000000
 11
4.658962
 21
5.982718
 31
0.000000
  0
ARC
  8
PLATE
 62
     7
  6
CONTINUOUS
 10
3.796298
 20
7.476892
 30
0.000000
 40
3.000001
 50
42.791783
 51
139.730184
  0
ARC
  8
PLATE
 62
     7
  6
CONTINUOUS
 10
3.796298
 20
7.476894
 30
0.000000
 40
3.000000
 50
222.592537
 51
317.391355
  0
ARC
  8
PLATE
 62
     7
  6
CONTINUOUS
 10
3.796299
 20
7.476890
 30
0.000000
 40
3.625003
 50
53.932660
 51
125.758316
  0
ARC
  8
PLATE
 62
     7
  6
CONTINUOUS
 10
3.796299
 20
7.476893
 30
0.000000
 40
3.624999
 50
235.094509
 51
306.691897
  0
POINT
  8
PLATE
 62
     7
 10
3.796299
 20
11.101893
 30
0.000000
  0
CIRCLE
  8
PLATE
 62
     7
  6
CONTINUOUS
 10
3.796299
 20
11.101893
 30
0.000000
 40
0.265600
  0
LINE
  8
PLATE
 62
     7
  6
CONTINUOUS
 10
3.796299
 20
11.885561
 30
0.000000
 11
3.796299
 21
10.136763
 31
0.000000
  0
POINT
  8
PLATE
 62
     7
 10
3.796299
 20
3.851894
 30
0.000000
  0
LINE
  8
PLATE
 62
     7
  6
CONTINUOUS
 10
3.796299
 20
3.530192
 30
0.000000
 11
3.796299
 21
4.696057
 31
0.000000
  0
POINT
  8
PLATE
 62
     7
 10
3.796299
 20
7.476893
 30
0.000000
  0
POINT
  8
PLATE
 62
     7
 10
3.796299
 20
7.476893
 30
0.000000
  0
POINT
  8
PLATE
 62
     7
 10
3.796299
 20
7.476893
 30
0.000000
  0
LINE
  8
HUB
 62
     7
  6
CONTINUOUS
 10
7.137303
 20
8.813392
 30
0.000000
 11
7.762303
 21
8.813392
 31
0.000000
  0
LINE
  8
HUB
 62
     7
  6
CONTINUOUS
 10
7.137303
 20
6.140391
 30
0.000000
 11
7.762303
 21
6.140391
 31
0.000000
  0
POINT
  8
HUB
 62
     7
 10
7.182298
 20
7.476893
 30
0.000000
  0
LINE
  8
HUB
 62
     7
  6
CONTINUOUS
 10
7.137303
 20
8.070891
 30
0.000000
 11
7.182298
 21
8.070891
 31
0.000000
  0
POINT
  8
HUB
 62
     7
 10
7.182298
 20
6.884599
 30
0.000000
  0
LINE
  8
HUB
 62
     7
  6
CONTINUOUS
 10
7.182298
 20
6.884599
 30
0.000000
 11
7.137303
 21
6.884599
 31
0.000000
  0
LINE
  8
HUB
 62
     7
  6
CONTINUOUS
 10
7.182298
 20
8.070643
 30
0.000000
 11
7.182298
 21
6.884599
 31
0.000000
  0
LINE
  8
HUB
 62
     7
  6
CONTINUOUS
 10
7.137303
 20
8.070891
 30
0.000000
 11
7.137303
 21
8.813392
 31
0.000000
  0
LINE
  8
HUB
 62
     7
  6
CONTINUOUS
 10
7.137303
 20
6.884599
 30
0.000000
 11
7.137303
 21
6.140391
 31
0.000000
  0
LINE
  8
PLATE
 62
     7
  6
CONTINUOUS
 10
7.604299
 20
6.140391
 30
0.000000
 11
7.604299
 21
0.961700
 31
0.000000
  0
LINE
  8
PLATE
 62
     7
  6
CONTINUOUS
 10
7.604299
 20
8.817996
 30
0.000000
 11
7.604299
 21
13.992087
 31
0.000000
  0
CIRCLE
  8
HUB
 62
     7
  6
CONTINUOUS
 10
3.796299
 20
7.476893
 30
0.000000
 40
0.593750
  0
POINT
  8
HUB
 62
     7
 10
7.137303
 20
7.476893
 30
0.000000
  0
POINT
  8
HUB
 62
     7
 10
7.182298
 20
6.953493
 30
0.000000
  0
LINE
  8
HUB
 62
     7
  6
CONTINUOUS
 10
7.182298
 20
6.953493
 30
0.000000
 11
7.369798
 21
6.953493
 31
0.000000
  0
LINE
  8
HUB
 62
     7
  6
CONTINUOUS
 10
7.369798
 20
6.594093
 30
0.000000
 11
7.369798
 21
6.953493
 31
0.000000
  0
POINT
  8
HUB
 62
     7
 10
7.369798
 20
6.774816
 30
0.000000
  0
POINT
  8
HUB
 62
     7
 10
7.369798
 20
6.876366
 30
0.000000
  0
POINT
  8
HUB
 62
     7
 10
7.369798
 20
6.673265
 30
0.000000
  0
LINE
  8
HUB
 62
     7
  6
CONTINUOUS
 10
7.369798
 20
6.594093
 30
0.000000
 11
7.137303
 21
6.594093
 31
0.000000
  0
LINE
  8
HUB
 62
     7
  6
CONTINUOUS
 10
8.932299
 20
6.351893
 30
0.000000
 11
7.762303
 21
6.351893
 31
0.000000
  0
LINE
  8
HUB
 62
     7
  6
CONTINUOUS
 10
8.932299
 20
8.601893
 30
0.000000
 11
7.762303
 21
8.601893
 31
0.000000
  0
LINE
  8
HUB
 62
     7
  6
CONTINUOUS
 10
7.762303
 20
8.601893
 30
0.000000
 11
7.762303
 21
8.813392
 31
0.000000
  0
LINE
  8
HUB
 62
     7
  6
CONTINUOUS
 10
7.762303
 20
6.351893
 30
0.000000
 11
7.762303
 21
6.140391
 31
0.000000
  0
LINE
  8
HUB
 62
     7
  6
CONTINUOUS
 10
8.932299
 20
8.414393
 30
0.000000
 11
7.557299
 21
8.276894
 31
0.000000
  0
LINE
  8
HUB
 62
     7
  6
CONTINUOUS
 10
7.135298
 20
8.327055
 30
0.000000
 11
7.760298
 21
8.327055
 31
0.000000
  0
LINE
  8
HUB
 62
     7
  6
CONTINUOUS
 10
7.137303
 20
8.670744
 30
0.000000
 11
7.762303
 21
8.670744
 31
0.000000
  0
LINE
  8
HUB
 62
     7
  6
CONTINUOUS
 10
7.760298
 20
8.327055
 30
0.000000
 11
7.760298
 21
8.601893
 31
0.000000
  0
POINT
  8
HUB
 62
     7
 10
7.137303
 20
8.498894
 30
0.000000
  0
LINE
  8
HUB
 62
     7
  6
CONTINUOUS
 10
7.369798
 20
6.876366
 30
0.000000
 11
7.557299
 21
6.876366
 31
0.000000
  0
LINE
  8
HUB
 62
     7
  6
CONTINUOUS
 10
7.557299
 20
8.276894
 30
0.000000
 11
7.557299
 21
6.673265
 31
0.000000
  0
POINT
  8
HUB
 62
     7
 10
7.688419
 20
6.673265
 30
0.000000
  0
LINE
  8
HUB
 62
     7
  6
CONTINUOUS
 10
8.932299
 20
6.539393
 30
0.000000
 11
7.688419
 21
6.673265
 31
0.000000
  0
LINE
  8
HUB
 62
     7
  6
CONTINUOUS
 10
7.369798
 20
6.673265
 30
0.000000
 11
7.688419
 21
6.673265
 31
0.000000
  0
LINE
  8
HUB
 62
     7
  6
CONTINUOUS
 10
7.182298
 20
7.851893
 30
0.000000
 11
7.557299
 21
7.851893
 31
0.000000
  0
LINE
  8
HUB
 62
     7
  6
CONTINUOUS
 10
7.182298
 20
7.101893
 30
0.000000
 11
7.557299
 21
7.101893
 31
0.000000
  0
POINT
  8
HUB
 62
     7
 10
7.682299
 20
7.476893
 30
0.000000
  0
POINT
  8
BUSH
 62
     7
 10
7.682299
 20
7.476893
 30
0.000000
  0
POINT
  8
BUSH
 62
     7
 10
7.682299
 20
7.476893
 30
0.000000
  0
LINE
  8
BUSH
 62
     7
  6
CONTINUOUS
 10
7.682299
 20
7.476893
 30
0.000000
 11
7.682299
 21
8.289393
 31
0.000000
  0
POINT
  8
BUSH
 62
     7
 10
8.807619
 20
6.773785
 30
0.000000
  0
POINT
  8
BUSH
 62
     7
 10
8.807619
 20
6.773785
 30
0.000000
  0
POINT
  8
BUSH
 62
     7
 10
8.807627
 20
6.773785
 30
0.000000
  0
POINT
  8
BUSH
 62
     7
 10
8.807627
 20
6.773785
 30
0.000000
  0
POINT
  8
BUSH
 62
     7
 10
7.681158
 20
6.772865
 30
0.000000
  0
POINT
  8
BUSH
 62
     7
 10
7.806158
 20
6.772865
 30
0.000000
  0
POINT
  8
BUSH
 62
     7
 10
7.931158
 20
6.772865
 30
0.000000
  0
POINT
  8
BUSH
 62
     7
 10
7.931158
 20
6.772865
 30
0.000000
  0
LINE
  8
BUSH
 62
     7
  6
CONTINUOUS
 10
7.806158
 20
6.772865
 30
0.000000
 11
7.806158
 21
6.718166
 31
0.000000
  0
LINE
  8
BUSH
 62
     7
  6
CONTINUOUS
 10
7.806158
 20
6.772865
 30
0.000000
 11
7.806158
 21
6.827566
 31
0.000000
  0
LINE
  8
BUSH
 62
     7
  6
CONTINUOUS
 10
7.931158
 20
6.772865
 30
0.000000
 11
7.931158
 21
6.686480
 31
0.000000
  0
LINE
  8
BUSH
 62
     7
  6
CONTINUOUS
 10
7.931158
 20
6.772865
 30
0.000000
 11
7.931158
 21
6.859252
 31
0.000000
  0
POINT
  8
BUSH
 62
     7
 10
8.181158
 20
6.772865
 30
0.000000
  0
POINT
  8
BUSH
 62
     7
 10
8.056158
 20
6.772865
 30
0.000000
  0
POINT
  8
BUSH
 62
     7
 10
8.056158
 20
6.772865
 30
0.000000
  0
LINE
  8
BUSH
 62
     7
  6
CONTINUOUS
 10
8.056158
 20
6.772865
 30
0.000000
 11
8.056158
 21
6.718166
 31
0.000000
  0
LINE
  8
BUSH
 62
     7
  6
CONTINUOUS
 10
8.056158
 20
6.772865
 30
0.000000
 11
8.056158
 21
6.827566
 31
0.000000
  0
POINT
  8
BUSH
 62
     7
 10
8.306158
 20
6.772865
 30
0.000000
  0
LINE
  8
BUSH
 62
     7
  6
CONTINUOUS
 10
8.306158
 20
6.772865
 30
0.000000
 11
8.306158
 21
6.718166
 31
0.000000
  0
LINE
  8
BUSH
 62
     7
  6
CONTINUOUS
 10
8.306158
 20
6.772865
 30
0.000000
 11
8.306158
 21
6.827566
 31
0.000000
  0
POINT
  8
BUSH
 62
     7
 10
8.556158
 20
6.772865
 30
0.000000
  0
LINE
  8
BUSH
 62
     7
  6
CONTINUOUS
 10
8.556158
 20
6.772865
 30
0.000000
 11
8.556158
 21
6.718166
 31
0.000000
  0
LINE
  8
BUSH
 62
     7
  6
CONTINUOUS
 10
8.556158
 20
6.772865
 30
0.000000
 11
8.556158
 21
6.827566
 31
0.000000
  0
POINT
  8
BUSH
 62
     7
 10
8.806158
 20
6.772865
 30
0.000000
  0
LINE
  8
BUSH
 62
     7
  6
CONTINUOUS
 10
8.806158
 20
6.772865
 30
0.000000
 11
8.806158
 21
6.718166
 31
0.000000
  0
LINE
  8
BUSH
 62
     7
  6
CONTINUOUS
 10
8.806158
 20
6.772865
 30
0.000000
 11
8.806158
 21
6.827566
 31
0.000000
  0
POINT
  8
BUSH
 62
     7
 10
8.181158
 20
6.772865
 30
0.000000
  0
POINT
  8
BUSH
 62
     7
 10
8.181158
 20
6.772865
 30
0.000000
  0
LINE
  8
BUSH
 62
     7
  6
CONTINUOUS
 10
8.181158
 20
6.772865
 30
0.000000
 11
8.181158
 21
6.686480
 31
0.000000
  0
LINE
  8
BUSH
 62
     7
  6
CONTINUOUS
 10
8.181158
 20
6.772865
 30
0.000000
 11
8.181158
 21
6.859252
 31
0.000000
  0
POINT
  8
BUSH
 62
     7
 10
8.431158
 20
6.772865
 30
0.000000
  0
POINT
  8
BUSH
 62
     7
 10
8.431158
 20
6.772865
 30
0.000000
  0
LINE
  8
BUSH
 62
     7
  6
CONTINUOUS
 10
8.431158
 20
6.772865
 30
0.000000
 11
8.431158
 21
6.686480
 31
0.000000
  0
LINE
  8
BUSH
 62
     7
  6
CONTINUOUS
 10
8.431158
 20
6.772865
 30
0.000000
 11
8.431158
 21
6.859252
 31
0.000000
  0
POINT
  8
BUSH
 62
     7
 10
8.681158
 20
6.772865
 30
0.000000
  0
POINT
  8
BUSH
 62
     7
 10
8.681158
 20
6.772865
 30
0.000000
  0
LINE
  8
BUSH
 62
     7
  6
CONTINUOUS
 10
8.681158
 20
6.772865
 30
0.000000
 11
8.681158
 21
6.686480
 31
0.000000
  0
LINE
  8
BUSH
 62
     7
  6
CONTINUOUS
 10
8.681158
 20
6.772865
 30
0.000000
 11
8.681158
 21
6.859252
 31
0.000000
  0
POINT
  8
BUSH
 62
     7
 10
7.682299
 20
7.476893
 30
0.000000
  0
LINE
  8
BUSH
 62
     7
  6
CONTINUOUS
 10
7.682299
 20
6.664393
 30
0.000000
 11
7.682299
 21
7.476893
 31
0.000000
  0
LINE
  8
BUSH
 62
     7
  6
CONTINUOUS
 10
7.682299
 20
6.914402
 30
0.000000
 11
8.932299
 21
6.914402
 31
0.000000
  0
LINE
  8
BUSH
 62
     7
  6
CONTINUOUS
 10
7.682299
 20
6.859735
 30
0.000000
 11
8.932299
 21
6.859735
 31
0.000000
  0
LINE
  8
BUSH
 62
     7
  6
CONTINUOUS
 10
7.684805
 20
8.039385
 30
0.000000
 11
8.932299
 21
8.039385
 31
0.000000
  0
LINE
  8
BUSH
 62
     7
  6
CONTINUOUS
 10
7.682299
 20
8.289393
 30
0.000000
 11
8.932299
 21
8.414393
 31
0.000000
  0
LINE
  8
BUSH
 62
     7
  6
CONTINUOUS
 10
7.682299
 20
6.664393
 30
0.000000
 11
8.932299
 21
6.539393
 31
0.000000
  0
LINE
  8
BUSH
 62
     7
  6
CONTINUOUS
 10
7.682299
 20
6.687836
 30
0.000000
 11
8.932299
 21
6.687836
 31
0.000000
  0
LINE
  8
BUSH
 62
     7
  6
CONTINUOUS
 10
7.681158
 20
6.772865
 30
0.000000
 11
8.932299
 21
6.772865
 31
0.000000
  0
LINE
  8
PARTS
 62
     7
  6
CONTINUOUS
 10
6.838299
 20
8.289893
 30
0.000000
 11
7.135298
 21
8.289893
 31
0.000000
  0
LINE
  8
HUB
 62
     7
  6
CONTINUOUS
 10
7.841487
 20
8.498894
 30
0.000000
 11
6.893044
 21
8.498894
 31
0.000000
  0
POINT
  8
HUB
 62
     7
 10
7.137303
 20
8.498894
 30
0.000000
  0
POINT
  8
HUB
 62
     7
 10
7.137303
 20
8.498894
 30
0.000000
  0
POINT
  8
HUB
 62
     7
 10
7.168303
 20
8.498894
 30
0.000000
  0
POINT
  8
HUB
 62
     7
 10
7.199803
 20
8.498894
 30
0.000000
  0
POINT
  8
HUB
 62
     7
 10
7.231053
 20
8.498894
 30
0.000000
  0
POINT
  8
HUB
 62
     7
 10
7.262303
 20
8.498894
 30
0.000000
  0
LINE
  8
HUB
 62
     7
  6
CONTINUOUS
 10
7.168303
 20
8.670744
 30
0.000000
 11
7.168303
 21
8.327044
 31
0.000000
  0
LINE
  8
HUB
 62
     7
  6
CONTINUOUS
 10
7.199803
 20
8.648628
 30
0.000000
 11
7.199803
 21
8.349158
 31
0.000000
  0
LINE
  8
HUB
 62
     7
  6
CONTINUOUS
 10
7.231053
 20
8.670744
 30
0.000000
 11
7.231053
 21
8.327044
 31
0.000000
  0
LINE
  8
HUB
 62
     7
  6
CONTINUOUS
 10
7.293803
 20
8.670744
 30
0.000000
 11
7.293803
 21
8.327044
 31
0.000000
  0
LINE
  8
HUB
 62
     7
  6
CONTINUOUS
 10
7.356553
 20
8.670744
 30
0.000000
 11
7.356553
 21
8.327044
 31
0.000000
  0
LINE
  8
HUB
 62
     7
  6
CONTINUOUS
 10
7.419302
 20
8.670744
 30
0.000000
 11
7.419302
 21
8.327044
 31
0.000000
  0
LINE
  8
HUB
 62
     7
  6
CONTINUOUS
 10
7.482052
 20
8.670744
 30
0.000000
 11
7.482052
 21
8.327044
 31
0.000000
  0
LINE
  8
HUB
 62
     7
  6
CONTINUOUS
 10
7.544802
 20
8.670744
 30
0.000000
 11
7.544802
 21
8.327044
 31
0.000000
  0
LINE
  8
HUB
 62
     7
  6
CONTINUOUS
 10
7.607552
 20
8.670744
 30
0.000000
 11
7.607552
 21
8.327044
 31
0.000000
  0
LINE
  8
HUB
 62
     7
  6
CONTINUOUS
 10
7.670302
 20
8.670744
 30
0.000000
 11
7.670302
 21
8.327044
 31
0.000000
  0
LINE
  8
HUB
 62
     7
  6
CONTINUOUS
 10
7.733052
 20
8.670744
 30
0.000000
 11
7.733052
 21
8.327044
 31
0.000000
  0
LINE
  8
HUB
 62
     7
  6
CONTINUOUS
 10
7.262303
 20
8.648628
 30
0.000000
 11
7.262303
 21
8.349158
 31
0.000000
  0
LINE
  8
HUB
 62
     7
  6
CONTINUOUS
 10
7.324803
 20
8.648628
 30
0.000000
 11
7.324803
 21
8.349158
 31
0.000000
  0
LINE
  8
HUB
 62
     7
  6
CONTINUOUS
 10
7.387303
 20
8.648628
 30
0.000000
 11
7.387303
 21
8.349158
 31
0.000000
  0
LINE
  8
HUB
 62
     7
  6
CONTINUOUS
 10
7.449803
 20
8.648628
 30
0.000000
 11
7.449803
 21
8.349158
 31
0.000000
  0
LINE
  8
HUB
 62
     7
  6
CONTINUOUS
 10
7.512303
 20
8.648628
 30
0.000000
 11
7.512303
 21
8.349158
 31
0.000000
  0
LINE
  8
HUB
 62
     7
  6
CONTINUOUS
 10
7.574803
 20
8.648628
 30
0.000000
 11
7.574803
 21
8.349158
 31
0.000000
  0
LINE
  8
HUB
 62
     7
  6
CONTINUOUS
 10
7.637303
 20
8.648628
 30
0.000000
 11
7.637303
 21
8.349158
 31
0.000000
  0
LINE
  8
HUB
 62
     7
  6
CONTINUOUS
 10
7.699803
 20
8.648628
 30
0.000000
 11
7.699803
 21
8.349158
 31
0.000000
  0
LINE
  8
PLATE
 62
     7
  6
CONTINUOUS
 10
7.604299
 20
13.992087
 30
0.000000
 11
8.229299
 21
13.992087
 31
0.000000
  0
LINE
  8
PLATE
 62
     7
  6
CONTINUOUS
 10
8.229299
 20
0.961700
 30
0.000000
 11
7.604299
 21
0.961700
 31
0.000000
  0
POINT
  8
PLATE
 62
     7
 10
8.229915
 20
11.726977
 30
0.000000
  0
POINT
  8
PLATE
 62
     7
 10
8.229299
 20
3.226978
 30
0.000000
  0
LINE
  8
PLATE
 62
     7
  6
CONTINUOUS
 10
8.229915
 20
11.726977
 30
0.000000
 11
8.104914
 21
11.726977
 31
0.000000
  0
LINE
  8
PLATE
 62
     7
  6
CONTINUOUS
 10
8.104914
 20
11.726977
 30
0.000000
 11
8.104914
 21
10.476977
 31
0.000000
  0
LINE
  8
PLATE
 62
     7
  6
CONTINUOUS
 10
8.104914
 20
10.476977
 30
0.000000
 11
7.604299
 21
10.476977
 31
0.000000
  0
LINE
  8
PLATE
 62
     7
  6
CONTINUOUS
 10
8.229299
 20
3.226978
 30
0.000000
 11
8.104299
 21
3.226978
 31
0.000000
  0
LINE
  8
PLATE
 62
     7
  6
CONTINUOUS
 10
8.229299
 20
11.726977
 30
0.000000
 11
8.229299
 21
13.992087
 31
0.000000
  0
LINE
  8
PLATE
 62
     7
  6
CONTINUOUS
 10
8.229299
 20
3.226978
 30
0.000000
 11
8.229299
 21
0.961700
 31
0.000000
  0
LINE
  8
PLATE
 62
     7
  6
CONTINUOUS
 10
8.104914
 20
10.476977
 30
0.000000
 11
8.104914
 21
8.601893
 31
0.000000
  0
LINE
  8
PLATE
 62
     7
  6
CONTINUOUS
 10
8.104299
 20
3.226978
 30
0.000000
 11
8.104299
 21
6.351893
 31
0.000000
  0
LINE
  8
PLATE
 62
     7
  6
CONTINUOUS
 10
8.104299
 20
4.476977
 30
0.000000
 11
7.604299
 21
4.476977
 31
0.000000
  0
POINT
  8
PLATE
 62
     7
 10
7.604299
 20
11.101977
 30
0.000000
  0
LINE
  8
PLATE
 62
     7
  6
CONTINUOUS
 10
8.104299
 20
10.836377
 30
0.000000
 11
8.104299
 21
11.367578
 31
0.000000
  0
POINT
  8
PLATE
 62
     7
 10
7.604299
 20
11.101977
 30
0.000000
  0
LINE
  8
PLATE
 62
     7
  6
CONTINUOUS
 10
7.604299
 20
11.570477
 30
0.000000
 11
7.604299
 21
10.633477
 31
0.000000
  0
LINE
  8
PLATE
 62
     7
  6
CONTINUOUS
 10
7.855299
 20
10.836377
 30
0.000000
 11
7.855299
 21
11.367578
 31
0.000000
  0
LINE
  8
PLATE
 62
     7
  6
CONTINUOUS
 10
7.604299
 20
11.570477
 30
0.000000
 11
7.855299
 21
11.367578
 31
0.000000
  0
LINE
  8
PLATE
 62
     7
  6
CONTINUOUS
 10
7.855299
 20
10.836377
 30
0.000000
 11
7.604299
 21
10.633477
 31
0.000000
  0
LINE
  8
PLATE
 62
     7
  6
CONTINUOUS
 10
8.104299
 20
10.836377
 30
0.000000
 11
7.855299
 21
10.836377
 31
0.000000
  0
LINE
  8
PLATE
 62
     7
  6
CONTINUOUS
 10
8.104299
 20
11.367578
 30
0.000000
 11
7.855299
 21
11.367578
 31
0.000000
  0
CIRCLE
  8
PLATE
 62
     7
  6
CONTINUOUS
 10
3.796299
 20
3.851894
 30
0.000000
 40
0.265600
  0
CIRCLE
  8
PLATE
 62
     7
  6
CONTINUOUS
 10
3.796299
 20
3.851894
 30
0.000000
 40
0.437500
  0
CIRCLE
  8
PLATE
 62
     7
  6
CONTINUOUS
 10
3.796299
 20
11.101893
 30
0.000000
 40
0.437500
  0
ARC
  8
PLATE
 62
     7
  6
CONTINUOUS
 10
3.796299
 20
7.476894
 30
0.000000
 40
4.250000
 50
238.211015
 51
302.561203
  0
POINT
  8
HUB
 62
     7
 10
11.012302
 20
7.476893
 30
0.000000
  0
LINE
  8
HUB
 62
     7
  6
CONTINUOUS
 10
11.012302
 20
8.813392
 30
0.000000
 11
11.637302
 21
8.813392
 31
0.000000
  0
LINE
  8
HUB
 62
     7
  6
CONTINUOUS
 10
11.012302
 20
6.140391
 30
0.000000
 11
11.637302
 21
6.140391
 31
0.000000
  0
POINT
  8
HUB
 62
     7
 10
11.057298
 20
7.476893
 30
0.000000
  0
LINE
  8
HUB
 62
     7
  6
CONTINUOUS
 10
11.012302
 20
8.070891
 30
0.000000
 11
11.057298
 21
8.070891
 31
0.000000
  0
POINT
  8
HUB
 62
     7
 10
11.057298
 20
6.884599
 30
0.000000
  0
LINE
  8
HUB
 62
     7
  6
CONTINUOUS
 10
11.057298
 20
6.884599
 30
0.000000
 11
11.012302
 21
6.884599
 31
0.000000
  0
LINE
  8
HUB
 62
     7
  6
CONTINUOUS
 10
11.057298
 20
8.070643
 30
0.000000
 11
11.057298
 21
6.884599
 31
0.000000
  0
LINE
  8
HUB
 62
     7
  6
CONTINUOUS
 10
11.012302
 20
8.070891
 30
0.000000
 11
11.012302
 21
8.813392
 31
0.000000
  0
LINE
  8
HUB
 62
     7
  6
CONTINUOUS
 10
11.012302
 20
6.884599
 30
0.000000
 11
11.012302
 21
6.140391
 31
0.000000
  0
POINT
  8
HUB
 62
     7
 10
11.012302
 20
7.476893
 30
0.000000
  0
POINT
  8
HUB
 62
     7
 10
11.743653
 20
6.774816
 30
0.000000
  0
POINT
  8
HUB
 62
     7
 10
11.057298
 20
6.953493
 30
0.000000
  0
LINE
  8
HUB
 62
     7
  6
CONTINUOUS
 10
11.057298
 20
6.953493
 30
0.000000
 11
11.244798
 21
6.953493
 31
0.000000
  0
LINE
  8
HUB
 62
     7
  6
CONTINUOUS
 10
11.244798
 20
6.594093
 30
0.000000
 11
11.244798
 21
6.953493
 31
0.000000
  0
POINT
  8
HUB
 62
     7
 10
11.244798
 20
6.774816
 30
0.000000
  0
POINT
  8
HUB
 62
     7
 10
11.244798
 20
6.876366
 30
0.000000
  0
POINT
  8
HUB
 62
     7
 10
11.244798
 20
6.673265
 30
0.000000
  0
LINE
  8
HUB
 62
     7
  6
CONTINUOUS
 10
11.244798
 20
6.594093
 30
0.000000
 11
11.012302
 21
6.594093
 31
0.000000
  0
POINT
  8
HUB
 62
     7
 10
12.807299
 20
7.476893
 30
0.000000
  0
LINE
  8
HUB
 62
     7
  6
CONTINUOUS
 10
12.807299
 20
8.601893
 30
0.000000
 11
12.807299
 21
6.351893
 31
0.000000
  0
LINE
  8
HUB
 62
     7
  6
CONTINUOUS
 10
12.807299
 20
6.351893
 30
0.000000
 11
11.637302
 21
6.351893
 31
0.000000
  0
LINE
  8
HUB
 62
     7
  6
CONTINUOUS
 10
12.807299
 20
8.601893
 30
0.000000
 11
11.637302
 21
8.601893
 31
0.000000
  0
LINE
  8
HUB
 62
     7
  6
CONTINUOUS
 10
11.637302
 20
8.601893
 30
0.000000
 11
11.637302
 21
8.813392
 31
0.000000
  0
LINE
  8
HUB
 62
     7
  6
CONTINUOUS
 10
11.637302
 20
6.351893
 30
0.000000
 11
11.637302
 21
6.140391
 31
0.000000
  0
LINE
  8
HUB
 62
     7
  6
CONTINUOUS
 10
12.807299
 20
8.414393
 30
0.000000
 11
11.432299
 21
8.276894
 31
0.000000
  0
LINE
  8
HUB
 62
     7
  6
CONTINUOUS
 10
11.010298
 20
8.327055
 30
0.000000
 11
11.635298
 21
8.327055
 31
0.000000
  0
LINE
  8
HUB
 62
     7
  6
CONTINUOUS
 10
11.012302
 20
8.670744
 30
0.000000
 11
11.637302
 21
8.670744
 31
0.000000
  0
LINE
  8
HUB
 62
     7
  6
CONTINUOUS
 10
11.635298
 20
8.327055
 30
0.000000
 11
11.635298
 21
8.601893
 31
0.000000
  0
POINT
  8
HUB
 62
     7
 10
11.012302
 20
8.498894
 30
0.000000
  0
LINE
  8
HUB
 62
     7
  6
CONTINUOUS
 10
11.244798
 20
6.876366
 30
0.000000
 11
11.432299
 21
6.876366
 31
0.000000
  0
LINE
  8
HUB
 62
     7
  6
CONTINUOUS
 10
11.432299
 20
8.276894
 30
0.000000
 11
11.432299
 21
6.673265
 31
0.000000
  0
POINT
  8
HUB
 62
     7
 10
11.563419
 20
6.673265
 30
0.000000
  0
LINE
  8
HUB
 62
     7
  6
CONTINUOUS
 10
12.807299
 20
6.539393
 30
0.000000
 11
11.563419
 21
6.673265
 31
0.000000
  0
LINE
  8
HUB
 62
     7
  6
CONTINUOUS
 10
11.244798
 20
6.673265
 30
0.000000
 11
11.563419
 21
6.673265
 31
0.000000
  0
LINE
  8
HUB
 62
     7
  6
CONTINUOUS
 10
11.057298
 20
7.851893
 30
0.000000
 11
11.432299
 21
7.851893
 31
0.000000
  0
LINE
  8
HUB
 62
     7
  6
CONTINUOUS
 10
11.057298
 20
7.101893
 30
0.000000
 11
11.432299
 21
7.101893
 31
0.000000
  0
POINT
  8
HUB
 62
     7
 10
11.557299
 20
7.476893
 30
0.000000
  0
LINE
  8
HUB
 62
     7
  6
CONTINUOUS
 10
11.716486
 20
8.498894
 30
0.000000
 11
10.768044
 21
8.498894
 31
0.000000
  0
POINT
  8
HUB
 62
     7
 10
11.012302
 20
8.498894
 30
0.000000
  0
POINT
  8
HUB
 62
     7
 10
11.012302
 20
8.498894
 30
0.000000
  0
POINT
  8
HUB
 62
     7
 10
11.043303
 20
8.498894
 30
0.000000
  0
POINT
  8
HUB
 62
     7
 10
11.074802
 20
8.498894
 30
0.000000
  0
POINT
  8
HUB
 62
     7
 10
11.106052
 20
8.498894
 30
0.000000
  0
POINT
  8
HUB
 62
     7
 10
11.137302
 20
8.498894
 30
0.000000
  0
LINE
  8
HUB
 62
     7
  6
CONTINUOUS
 10
11.043303
 20
8.670744
 30
0.000000
 11
11.043303
 21
8.327044
 31
0.000000
  0
LINE
  8
HUB
 62
     7
  6
CONTINUOUS
 10
11.074802
 20
8.648628
 30
0.000000
 11
11.074802
 21
8.349158
 31
0.000000
  0
LINE
  8
HUB
 62
     7
  6
CONTINUOUS
 10
11.106052
 20
8.670744
 30
0.000000
 11
11.106052
 21
8.327044
 31
0.000000
  0
LINE
  8
HUB
 62
     7
  6
CONTINUOUS
 10
11.168802
 20
8.670744
 30
0.000000
 11
11.168802
 21
8.327044
 31
0.000000
  0
LINE
  8
HUB
 62
     7
  6
CONTINUOUS
 10
11.231552
 20
8.670744
 30
0.000000
 11
11.231552
 21
8.327044
 31
0.000000
  0
LINE
  8
HUB
 62
     7
  6
CONTINUOUS
 10
11.294302
 20
8.670744
 30
0.000000
 11
11.294302
 21
8.327044
 31
0.000000
  0
LINE
  8
HUB
 62
     7
  6
CONTINUOUS
 10
11.357052
 20
8.670744
 30
0.000000
 11
11.357052
 21
8.327044
 31
0.000000
  0
LINE
  8
HUB
 62
     7
  6
CONTINUOUS
 10
11.419802
 20
8.670744
 30
0.000000
 11
11.419802
 21
8.327044
 31
0.000000
  0
LINE
  8
HUB
 62
     7
  6
CONTINUOUS
 10
11.482552
 20
8.670744
 30
0.000000
 11
11.482552
 21
8.327044
 31
0.000000
  0
LINE
  8
HUB
 62
     7
  6
CONTINUOUS
 10
11.545301
 20
8.670744
 30
0.000000
 11
11.545301
 21
8.327044
 31
0.000000
  0
LINE
  8
HUB
 62
     7
  6
CONTINUOUS
 10
11.608051
 20
8.670744
 30
0.000000
 11
11.608051
 21
8.327044
 31
0.000000
  0
LINE
  8
HUB
 62
     7
  6
CONTINUOUS
 10
11.137302
 20
8.648628
 30
0.000000
 11
11.137302
 21
8.349158
 31
0.000000
  0
LINE
  8
HUB
 62
     7
  6
CONTINUOUS
 10
11.199802
 20
8.648628
 30
0.000000
 11
11.199802
 21
8.349158
 31
0.000000
  0
LINE
  8
HUB
 62
     7
  6
CONTINUOUS
 10
11.262302
 20
8.648628
 30
0.000000
 11
11.262302
 21
8.349158
 31
0.000000
  0
LINE
  8
HUB
 62
     7
  6
CONTINUOUS
 10
11.324802
 20
8.648628
 30
0.000000
 11
11.324802
 21
8.349158
 31
0.000000
  0
LINE
  8
HUB
 62
     7
  6
CONTINUOUS
 10
11.387302
 20
8.648628
 30
0.000000
 11
11.387302
 21
8.349158
 31
0.000000
  0
LINE
  8
HUB
 62
     7
  6
CONTINUOUS
 10
11.449802
 20
8.648628
 30
0.000000
 11
11.449802
 21
8.349158
 31
0.000000
  0
LINE
  8
HUB
 62
     7
  6
CONTINUOUS
 10
11.512302
 20
8.648628
 30
0.000000
 11
11.512302
 21
8.349158
 31
0.000000
  0
LINE
  8
HUB
 62
     7
  6
CONTINUOUS
 10
11.574802
 20
8.648628
 30
0.000000
 11
11.574802
 21
8.349158
 31
0.000000
  0
POINT
  8
BUSH
 62
     7
 10
14.762302
 20
7.476893
 30
0.000000
  0
POINT
  8
BUSH
 62
     7
 10
14.762302
 20
7.476893
 30
0.000000
  0
POINT
  8
BUSH
 62
     7
 10
14.762302
 20
7.476893
 30
0.000000
  0
LINE
  8
BUSH
 62
     7
  6
CONTINUOUS
 10
14.762302
 20
7.476893
 30
0.000000
 11
14.762302
 21
6.664393
 31
0.000000
  0
POINT
  8
BUSH
 62
     7
 10
15.887623
 20
8.180002
 30
0.000000
  0
POINT
  8
BUSH
 62
     7
 10
15.887623
 20
8.180002
 30
0.000000
  0
POINT
  8
BUSH
 62
     7
 10
15.887630
 20
8.180002
 30
0.000000
  0
POINT
  8
BUSH
 62
     7
 10
15.887630
 20
8.180002
 30
0.000000
  0
POINT
  8
BUSH
 62
     7
 10
14.761162
 20
8.180922
 30
0.000000
  0
POINT
  8
BUSH
 62
     7
 10
14.886162
 20
8.180922
 30
0.000000
  0
POINT
  8
BUSH
 62
     7
 10
15.011162
 20
8.180922
 30
0.000000
  0
POINT
  8
BUSH
 62
     7
 10
15.011162
 20
8.180922
 30
0.000000
  0
LINE
  8
BUSH
 62
     7
  6
CONTINUOUS
 10
14.886162
 20
8.180922
 30
0.000000
 11
14.886162
 21
8.235621
 31
0.000000
  0
LINE
  8
BUSH
 62
     7
  6
CONTINUOUS
 10
14.886162
 20
8.180922
 30
0.000000
 11
14.886162
 21
8.126222
 31
0.000000
  0
LINE
  8
BUSH
 62
     7
  6
CONTINUOUS
 10
15.011162
 20
8.180922
 30
0.000000
 11
15.011162
 21
8.267308
 31
0.000000
  0
LINE
  8
BUSH
 62
     7
  6
CONTINUOUS
 10
15.011162
 20
8.180922
 30
0.000000
 11
15.011162
 21
8.094535
 31
0.000000
  0
POINT
  8
BUSH
 62
     7
 10
15.261162
 20
8.180922
 30
0.000000
  0
POINT
  8
BUSH
 62
     7
 10
15.136162
 20
8.180922
 30
0.000000
  0
POINT
  8
BUSH
 62
     7
 10
15.136162
 20
8.180922
 30
0.000000
  0
LINE
  8
BUSH
 62
     7
  6
CONTINUOUS
 10
15.136162
 20
8.180922
 30
0.000000
 11
15.136162
 21
8.235621
 31
0.000000
  0
LINE
  8
BUSH
 62
     7
  6
CONTINUOUS
 10
15.136162
 20
8.180922
 30
0.000000
 11
15.136162
 21
8.126222
 31
0.000000
  0
POINT
  8
BUSH
 62
     7
 10
15.386162
 20
8.180922
 30
0.000000
  0
LINE
  8
BUSH
 62
     7
  6
CONTINUOUS
 10
15.386162
 20
8.180922
 30
0.000000
 11
15.386162
 21
8.235621
 31
0.000000
  0
LINE
  8
BUSH
 62
     7
  6
CONTINUOUS
 10
15.386162
 20
8.180922
 30
0.000000
 11
15.386162
 21
8.126222
 31
0.000000
  0
POINT
  8
BUSH
 62
     7
 10
15.636162
 20
8.180922
 30
0.000000
  0
LINE
  8
BUSH
 62
     7
  6
CONTINUOUS
 10
15.636162
 20
8.180922
 30
0.000000
 11
15.636162
 21
8.235621
 31
0.000000
  0
LINE
  8
BUSH
 62
     7
  6
CONTINUOUS
 10
15.636162
 20
8.180922
 30
0.000000
 11
15.636162
 21
8.126222
 31
0.000000
  0
POINT
  8
BUSH
 62
     7
 10
15.886162
 20
8.180922
 30
0.000000
  0
LINE
  8
BUSH
 62
     7
  6
CONTINUOUS
 10
15.886162
 20
8.180922
 30
0.000000
 11
15.886162
 21
8.235621
 31
0.000000
  0
LINE
  8
BUSH
 62
     7
  6
CONTINUOUS
 10
15.886162
 20
8.180922
 30
0.000000
 11
15.886162
 21
8.126222
 31
0.000000
  0
POINT
  8
BUSH
 62
     7
 10
15.261162
 20
8.180922
 30
0.000000
  0
POINT
  8
BUSH
 62
     7
 10
15.261162
 20
8.180922
 30
0.000000
  0
LINE
  8
BUSH
 62
     7
  6
CONTINUOUS
 10
15.261162
 20
8.180922
 30
0.000000
 11
15.261162
 21
8.267308
 31
0.000000
  0
LINE
  8
BUSH
 62
     7
  6
CONTINUOUS
 10
15.261162
 20
8.180922
 30
0.000000
 11
15.261162
 21
8.094535
 31
0.000000
  0
POINT
  8
BUSH
 62
     7
 10
15.511162
 20
8.180922
 30
0.000000
  0
POINT
  8
BUSH
 62
     7
 10
15.511162
 20
8.180922
 30
0.000000
  0
LINE
  8
BUSH
 62
     7
  6
CONTINUOUS
 10
15.511162
 20
8.180922
 30
0.000000
 11
15.511162
 21
8.267308
 31
0.000000
  0
LINE
  8
BUSH
 62
     7
  6
CONTINUOUS
 10
15.511162
 20
8.180922
 30
0.000000
 11
15.511162
 21
8.094535
 31
0.000000
  0
POINT
  8
BUSH
 62
     7
 10
15.761162
 20
8.180922
 30
0.000000
  0
POINT
  8
BUSH
 62
     7
 10
15.761162
 20
8.180922
 30
0.000000
  0
LINE
  8
BUSH
 62
     7
  6
CONTINUOUS
 10
15.761162
 20
8.180922
 30
0.000000
 11
15.761162
 21
8.267308
 31
0.000000
  0
LINE
  8
BUSH
 62
     7
  6
CONTINUOUS
 10
15.761162
 20
8.180922
 30
0.000000
 11
15.761162
 21
8.094535
 31
0.000000
  0
POINT
  8
BUSH
 62
     7
 10
14.762302
 20
7.476893
 30
0.000000
  0
POINT
  8
BUSH
 62
     7
 10
15.324793
 20
7.480347
 30
0.000000
  0
LINE
  8
BUSH
 62
     7
  6
CONTINUOUS
 10
14.762302
 20
8.289393
 30
0.000000
 11
14.762302
 21
7.476893
 31
0.000000
  0
LINE
  8
BUSH
 62
     7
  6
CONTINUOUS
 10
14.762302
 20
7.476893
 30
0.000000
 11
16.012302
 21
7.476893
 31
0.000000
  0
LINE
  8
BUSH
 62
     7
  6
CONTINUOUS
 10
16.012302
 20
7.476893
 30
0.000000
 11
16.012302
 21
8.414393
 31
0.000000
  0
LINE
  8
BUSH
 62
     7
  6
CONTINUOUS
 10
16.012302
 20
7.476893
 30
0.000000
 11
16.012302
 21
6.539393
 31
0.000000
  0
LINE
  8
BUSH
 62
     7
  6
CONTINUOUS
 10
14.762302
 20
8.039385
 30
0.000000
 11
16.012302
 21
8.039385
 31
0.000000
  0
LINE
  8
BUSH
 62
     7
  6
CONTINUOUS
 10
14.762302
 20
8.094052
 30
0.000000
 11
16.012302
 21
8.094052
 31
0.000000
  0
LINE
  8
BUSH
 62
     7
  6
CONTINUOUS
 10
14.764809
 20
6.914402
 30
0.000000
 11
16.012302
 21
6.914402
 31
0.000000
  0
LINE
  8
BUSH
 62
     7
  6
CONTINUOUS
 10
14.762302
 20
6.664393
 30
0.000000
 11
16.012302
 21
6.539393
 31
0.000000
  0
LINE
  8
BUSH
 62
     7
  6
CONTINUOUS
 10
14.762302
 20
8.289393
 30
0.000000
 11
16.012302
 21
8.414393
 31
0.000000
  0
LINE
  8
BUSH
 62
     7
  6
CONTINUOUS
 10
14.762302
 20
8.265952
 30
0.000000
 11
16.012302
 21
8.265952
 31
0.000000
  0
LINE
  8
BUSH
 62
     7
  6
CONTINUOUS
 10
14.761162
 20
8.180922
 30
0.000000
 11
16.012302
 21
8.180922
 31
0.000000
  0
LINE
  8
BUSH
 62
     7
  6
CONTINUOUS
 10
14.762302
 20
8.821668
 30
0.000000
 11
14.870556
 21
8.884168
 31
0.000000
  0
LINE
  8
BUSH
 62
     7
  6
CONTINUOUS
 10
14.762302
 20
8.821668
 30
0.000000
 11
14.870556
 21
8.759168
 31
0.000000
  0
LINE
  8
BUSH
 62
     7
  6
CONTINUOUS
 10
16.012302
 20
8.821668
 30
0.000000
 11
15.904049
 21
8.759168
 31
0.000000
  0
LINE
  8
BUSH
 62
     7
  6
CONTINUOUS
 10
16.012302
 20
8.821668
 30
0.000000
 11
15.904049
 21
8.884168
 31
0.000000
  0
LINE
  8
BUSH
 62
     7
  6
CONTINUOUS
 10
14.762302
 20
8.351893
 30
0.000000
 11
14.762302
 21
9.071668
 31
0.000000
  0
LINE
  8
BUSH
 62
     7
  6
CONTINUOUS
 10
16.012302
 20
8.476893
 30
0.000000
 11
16.012302
 21
9.071668
 31
0.000000
  0
TEXT
  8
BUSH
 62
     7
 10
15.011867
 20
8.759095
 30
0.000000
 40
0.125000
  1
1 1/4"
  0
LINE
  8
BUSH
 62
     7
  6
CONTINUOUS
 10
14.762302
 20
8.821668
 30
0.000000
 11
14.980616
 21
8.821668
 31
0.000000
  0
LINE
  8
BUSH
 62
     7
  6
CONTINUOUS
 10
15.793988
 20
8.821668
 30
0.000000
 11
16.012302
 21
8.821668
 31
0.000000
  0
LINE
  8
BUSH
 62
     7
  6
CONTINUOUS
 10
14.291204
 20
6.664393
 30
0.000000
 11
14.228704
 21
6.772647
 31
0.000000
  0
LINE
  8
BUSH
 62
     7
  6
CONTINUOUS
 10
14.291204
 20
6.664393
 30
0.000000
 11
14.353704
 21
6.772647
 31
0.000000
  0
LINE
  8
BUSH
 62
     7
  6
CONTINUOUS
 10
14.291204
 20
8.289393
 30
0.000000
 11
14.353704
 21
8.181140
 31
0.000000
  0
LINE
  8
BUSH
 62
     7
  6
CONTINUOUS
 10
14.291204
 20
8.289393
 30
0.000000
 11
14.228704
 21
8.181140
 31
0.000000
  0
LINE
  8
BUSH
 62
     7
  6
CONTINUOUS
 10
14.699802
 20
6.664393
 30
0.000000
 11
14.041204
 21
6.664393
 31
0.000000
  0
LINE
  8
BUSH
 62
     7
  6
CONTINUOUS
 10
14.699802
 20
8.289393
 30
0.000000
 11
14.041204
 21
8.289393
 31
0.000000
  0
TEXT
  8
BUSH
 62
     7
 10
13.913056
 20
7.637997
 30
0.000000
 40
0.125000
  1
1 5/8"
  0
LINE
  8
BUSH
 62
     7
  6
CONTINUOUS
 10
14.291204
 20
6.664393
 30
0.000000
 11
14.291204
 21
7.606746
 31
0.000000
  0
LINE
  8
BUSH
 62
     7
  6
CONTINUOUS
 10
14.291204
 20
7.795296
 30
0.000000
 11
14.291204
 21
8.289393
 31
0.000000
  0
LINE
  8
BUSH
 62
     7
  6
CONTINUOUS
 10
16.459858
 20
6.914402
 30
0.000000
 11
16.397358
 21
7.022655
 31
0.000000
  0
LINE
  8
BUSH
 62
     7
  6
CONTINUOUS
 10
16.459858
 20
6.914402
 30
0.000000
 11
16.522358
 21
7.022655
 31
0.000000
  0
LINE
  8
BUSH
 62
     7
  6
CONTINUOUS
 10
16.459858
 20
8.039385
 30
0.000000
 11
16.522358
 21
7.931132
 31
0.000000
  0
LINE
  8
BUSH
 62
     7
  6
CONTINUOUS
 10
16.459858
 20
8.039385
 30
0.000000
 11
16.397358
 21
7.931132
 31
0.000000
  0
LINE
  8
BUSH
 62
     7
  6
CONTINUOUS
 10
16.074802
 20
6.914402
 30
0.000000
 11
16.709858
 21
6.914402
 31
0.000000
  0
LINE
  8
BUSH
 62
     7
  6
CONTINUOUS
 10
16.074802
 20
8.039385
 30
0.000000
 11
16.709858
 21
8.039385
 31
0.000000
  0
TEXT
  8
BUSH
 62
     7
 10
16.082409
 20
7.264564
 30
0.000000
 40
0.125000
  1
1 1/8"
  0
LINE
  8
BUSH
 62
     7
  6
CONTINUOUS
 10
16.459858
 20
6.914402
 30
0.000000
 11
16.459858
 21
7.233314
 31
0.000000
  0
LINE
  8
BUSH
 62
     7
  6
CONTINUOUS
 10
16.459858
 20
7.421630
 30
0.000000
 11
16.459858
 21
8.039385
 31
0.000000
  0
LINE
  8
BUSH
 62
     7
  6
CONTINUOUS
 10
17.054916
 20
6.539393
 30
0.000000
 11
16.992416
 21
6.647647
 31
0.000000
  0
LINE
  8
BUSH
 62
     7
  6
CONTINUOUS
 10
17.054916
 20
6.539393
 30
0.000000
 11
17.117416
 21
6.647647
 31
0.000000
  0
LINE
  8
BUSH
 62
     7
  6
CONTINUOUS
 10
17.054916
 20
8.414393
 30
0.000000
 11
17.117416
 21
8.306140
 31
0.000000
  0
LINE
  8
BUSH
 62
     7
  6
CONTINUOUS
 10
17.054916
 20
8.414393
 30
0.000000
 11
16.992416
 21
8.306140
 31
0.000000
  0
LINE
  8
BUSH
 62
     7
  6
CONTINUOUS
 10
16.074802
 20
6.539393
 30
0.000000
 11
17.304916
 21
6.539393
 31
0.000000
  0
LINE
  8
BUSH
 62
     7
  6
CONTINUOUS
 10
16.074802
 20
8.414393
 30
0.000000
 11
17.304916
 21
8.414393
 31
0.000000
  0
TEXT
  8
BUSH
 62
     7
 10
16.677468
 20
7.600758
 30
0.000000
 40
0.125000
  1
1 7/8"
  0
LINE
  8
BUSH
 62
     7
  6
CONTINUOUS
 10
17.054916
 20
6.539393
 30
0.000000
 11
17.054916
 21
7.569508
 31
0.000000
  0
LINE
  8
BUSH
 62
     7
  6
CONTINUOUS
 10
17.054916
 20
7.757824
 30
0.000000
 11
17.054916
 21
8.414393
 31
0.000000
  0
LINE
  8
BUSH
 62
     7
  6
CONTINUOUS
 10
14.992050
 20
6.636407
 30
0.000000
 11
15.105612
 21
6.584170
 31
0.000000
  0
LINE
  8
BUSH
 62
     7
  6
CONTINUOUS
 10
14.992050
 20
6.636407
 30
0.000000
 11
15.003593
 21
6.511941
 31
0.000000
  0
LINE
  8
BUSH
 62
     7
  6
CONTINUOUS
 10
14.992050
 20
6.636407
 30
0.000000
 11
15.494543
 21
5.926664
 31
0.000000
  0
LINE
  8
BUSH
 62
     7
  6
CONTINUOUS
 10
15.494543
 20
5.926664
 30
0.000000
 11
15.619543
 21
5.926664
 31
0.000000
  0
TEXT
  8
BUSH
 62
     7
 10
15.682043
 20
5.864164
 30
0.000000
 40
0.125000
  1
2.500TPF
  0
CIRCLE
  8
BUSH
 62
     7
  6
CONTINUOUS
 10
3.796299
 20
7.476893
 30
0.000000
 40
1.336500
  0
LINE
  8
DIEM
 62
     7
  6
CONTINUOUS
 10
5.104526
 20
8.962430
 30
0.000000
 11
5.167026
 21
8.962430
 31
0.000000
  0
LINE
  8
DIEM
 62
     7
  6
CONTINUOUS
 10
4.679592
 20
8.479902
 30
0.000000
 11
4.654952
 21
8.357355
 31
0.000000
  0
LINE
  8
DIEM
 62
     7
  6
CONTINUOUS
 10
4.679592
 20
8.479902
 30
0.000000
 11
4.561143
 21
8.439967
 31
0.000000
  0
LINE
  8
DIEM
 62
     7
  6
CONTINUOUS
 10
2.913006
 20
6.473885
 30
0.000000
 11
2.937646
 21
6.596432
 31
0.000000
  0
LINE
  8
DIEM
 62
     7
  6
CONTINUOUS
 10
2.913006
 20
6.473885
 30
0.000000
 11
3.031455
 21
6.513820
 31
0.000000
  0
TEXT
  8
DIEM
 62
     7
 10
5.198276
 20
8.899694
 30
0.000000
 40
0.125000
  1
2.673"
  0
TEXT
  8
DIEM
 62
     7
 10
5.670439
 20
8.993680
 30
0.000000
 40
0.125000
  1
+.000"
  0
TEXT
  8
DIEM
 62
     7
 10
5.670439
 20
8.805709
 30
0.000000
 40
0.125000
  1
-.002"
  0
LINE
  8
DIEM
 62
     7
  6
CONTINUOUS
 10
2.913006
 20
6.473885
 30
0.000000
 11
5.104526
 21
8.962430
 31
0.000000
  0
CIRCLE
  8
BUSH
 62
     7
  6
CONTINUOUS
 10
3.796299
 20
7.476893
 30
0.000000
 40
0.375000
  0
LINE
  8
DIEM
 62
     7
  6
CONTINUOUS
 10
5.724081
 20
7.183639
 30
0.000000
 11
5.786581
 21
7.183639
 31
0.000000
  0
LINE
  8
DIEM
 62
     7
  6
CONTINUOUS
 10
4.167034
 20
7.420497
 30
0.000000
 11
4.050613
 21
7.374988
 31
0.000000
  0
LINE
  8
DIEM
 62
     7
  6
CONTINUOUS
 10
4.167034
 20
7.420497
 30
0.000000
 11
4.069411
 21
7.498567
 31
0.000000
  0
LINE
  8
DIEM
 62
     7
  6
CONTINUOUS
 10
3.425564
 20
7.533290
 30
0.000000
 11
3.541985
 21
7.578799
 31
0.000000
  0
LINE
  8
DIEM
 62
     7
  6
CONTINUOUS
 10
3.425564
 20
7.533290
 30
0.000000
 11
3.523187
 21
7.455220
 31
0.000000
  0
TEXT
  8
DIEM
 62
     7
 10
5.817831
 20
7.121067
 30
0.000000
 40
0.125000
  1
3/4"
  0
LINE
  8
DIEM
 62
     7
  6
CONTINUOUS
 10
3.425564
 20
7.533290
 30
0.000000
 11
5.724081
 21
7.183639
 31
0.000000
  0
LINE
  8
DIEM
 62
     7
  6
CONTINUOUS
 10
3.796299
 20
9.571231
 30
0.000000
 11
3.688046
 21
9.508731
 31
0.000000
  0
LINE
  8
DIEM
 62
     7
  6
CONTINUOUS
 10
3.796299
 20
9.571231
 30
0.000000
 11
3.688046
 21
9.633731
 31
0.000000
  0
LINE
  8
DIEM
 62
     7
  6
CONTINUOUS
 10
1.982549
 20
8.524063
 30
0.000000
 11
1.982549
 21
8.649063
 31
0.000000
  0
LINE
  8
DIEM
 62
     7
  6
CONTINUOUS
 10
1.982549
 20
8.524063
 30
0.000000
 11
2.090803
 21
8.586563
 31
0.000000
  0
LINE
  8
DIEM
 62
     7
  6
CONTINUOUS
 10
3.796299
 20
8.561394
 30
0.000000
 11
3.796299
 21
9.821231
 31
0.000000
  0
LINE
  8
DIEM
 62
     7
  6
CONTINUOUS
 10
2.857095
 20
8.019143
 30
0.000000
 11
1.766043
 21
8.649063
 31
0.000000
  0
TEXT
  8
DIEM
 62
     7
 10
2.620570
 20
9.227918
 30
0.000000
 40
0.125000
  1
60
  0
ARC
  8
DIEM
 62
     7
  6
CONTINUOUS
 10
3.796299
 20
7.476893
 30
0.000000
 40
2.094338
 50
90.000000
 51
115.068033
  0
ARC
  8
DIEM
 62
     7
  6
CONTINUOUS
 10
3.796299
 20
7.476893
 30
0.000000
 40
2.094338
 50
124.799456
 51
149.999989
  0
LINE
  8
DIEM
 62
     7
  6
CONTINUOUS
 10
2.962914
 20
8.920358
 30
0.000000
 11
2.900414
 21
8.812105
 31
0.000000
  0
LINE
  8
DIEM
 62
     7
  6
CONTINUOUS
 10
2.962914
 20
8.920358
 30
0.000000
 11
2.837914
 21
8.920358
 31
0.000000
  0
LINE
  8
DIEM
 62
     7
  6
CONTINUOUS
 10
2.129529
 20
7.476893
 30
0.000000
 11
2.067029
 21
7.585147
 31
0.000000
  0
LINE
  8
DIEM
 62
     7
  6
CONTINUOUS
 10
2.129529
 20
7.476893
 30
0.000000
 11
2.192029
 21
7.585147
 31
0.000000
  0
LINE
  8
DIEM
 62
     7
  6
CONTINUOUS
 10
3.413548
 20
8.139836
 30
0.000000
 11
2.837914
 21
9.136864
 31
0.000000
  0
LINE
  8
DIEM
 62
     7
  6
CONTINUOUS
 10
3.030799
 20
7.476893
 30
0.000000
 11
1.879529
 21
7.476893
 31
0.000000
  0
TEXT
  8
DIEM
 62
     7
 10
2.386133
 20
8.479818
 30
0.000000
 40
0.125000
  1
60
  0
ARC
  8
DIEM
 62
     7
  6
CONTINUOUS
 10
3.796299
 20
7.476893
 30
0.000000
 40
1.666770
 50
120.000024
 51
135.914482
  0
ARC
  8
DIEM
 62
     7
  6
CONTINUOUS
 10
3.796299
 20
7.476893
 30
0.000000
 40
1.666770
 50
144.340390
 51
180.000000
  0
LINE
  8
DIEM
 62
     7
  6
CONTINUOUS
 10
5.031841
 20
8.590610
 30
0.000000
 11
5.094341
 21
8.590610
 31
0.000000
  0
LINE
  8
DIEM
 62
     7
  6
CONTINUOUS
 10
4.555417
 20
8.161162
 30
0.000000
 11
4.516856
 21
8.042259
 31
0.000000
  0
LINE
  8
DIEM
 62
     7
  6
CONTINUOUS
 10
4.555417
 20
8.161162
 30
0.000000
 11
4.433163
 21
8.135106
 31
0.000000
  0
LINE
  8
DIEM
 62
     7
  6
CONTINUOUS
 10
3.037181
 20
6.792625
 30
0.000000
 11
3.075742
 21
6.911528
 31
0.000000
  0
LINE
  8
DIEM
 62
     7
  6
CONTINUOUS
 10
3.037181
 20
6.792625
 30
0.000000
 11
3.159435
 21
6.818681
 31
0.000000
  0
TEXT
  8
DIEM
 62
     7
 10
5.125591
 20
8.527799
 30
0.000000
 40
0.125000
  1
2.044" BOLT CIRCLE=
  0
LINE
  8
DIEM
 62
     7
  6
CONTINUOUS
 10
3.037181
 20
6.792625
 30
0.000000
 11
5.031841
 21
8.590610
 31
0.000000
  0
LINE
  8
DIEM
 62
     7
  6
CONTINUOUS
 10
4.506838
 20
9.350604
 30
0.000000
 11
4.569338
 21
9.350604
 31
0.000000
  0
LINE
  8
DIEM
 62
     7
  6
CONTINUOUS
 10
4.045566
 20
8.134218
 30
0.000000
 11
4.065621
 21
8.010837
 31
0.000000
  0
LINE
  8
DIEM
 62
     7
  6
CONTINUOUS
 10
4.045566
 20
8.134218
 30
0.000000
 11
3.948743
 21
8.055159
 31
0.000000
  0
LINE
  8
DIEM
 62
     7
  6
CONTINUOUS
 10
3.547032
 20
6.819569
 30
0.000000
 11
3.526977
 21
6.942950
 31
0.000000
  0
LINE
  8
DIEM
 62
     7
  6
CONTINUOUS
 10
3.547032
 20
6.819569
 30
0.000000
 11
3.643855
 21
6.898628
 31
0.000000
  0
TEXT
  8
DIEM
 62
     7
 10
4.600588
 20
9.288017
 30
0.000000
 40
0.125000
  1
1 13/32" BOLT CIRCLE
  0
LINE
  8
DIEM
 62
     7
  6
CONTINUOUS
 10
3.547032
 20
6.819569
 30
0.000000
 11
4.506838
 21
9.350604
 31
0.000000
  0
LINE
  8
DIEM
 62
     7
  6
CONTINUOUS
 10
11.012302
 20
6.987490
 30
0.000000
 11
10.904049
 21
6.924990
 31
0.000000
  0
LINE
  8
DIEM
 62
     7
  6
CONTINUOUS
 10
11.012302
 20
6.987490
 30
0.000000
 11
10.904049
 21
7.049990
 31
0.000000
  0
LINE
  8
DIEM
 62
     7
  6
CONTINUOUS
 10
11.057298
 20
6.987490
 30
0.000000
 11
11.165551
 21
7.049990
 31
0.000000
  0
LINE
  8
DIEM
 62
     7
  6
CONTINUOUS
 10
11.057298
 20
6.987490
 30
0.000000
 11
11.165551
 21
6.924990
 31
0.000000
  0
LINE
  8
DIEM
 62
     7
  6
CONTINUOUS
 10
11.012302
 20
6.947099
 30
0.000000
 11
11.012302
 21
7.237490
 31
0.000000
  0
LINE
  8
DIEM
 62
     7
  6
CONTINUOUS
 10
11.057298
 20
6.947099
 30
0.000000
 11
11.057298
 21
7.237490
 31
0.000000
  0
TEXT
  8
DIEM
 62
     7
 10
10.389765
 20
6.924768
 30
0.000000
 40
0.125000
  1
1/16"
  0
LINE
  8
DIEM
 62
     7
  6
CONTINUOUS
 10
11.012302
 20
6.987490
 30
0.000000
 11
10.762302
 21
6.987490
 31
0.000000
  0
LINE
  8
DIEM
 62
     7
  6
CONTINUOUS
 10
11.057298
 20
6.987490
 30
0.000000
 11
11.307298
 21
6.987490
 31
0.000000
  0
LINE
  8
DIEM
 62
     7
  6
CONTINUOUS
 10
10.253456
 20
6.140391
 30
0.000000
 11
10.190956
 21
6.248645
 31
0.000000
  0
LINE
  8
DIEM
 62
     7
  6
CONTINUOUS
 10
10.253456
 20
6.140391
 30
0.000000
 11
10.315956
 21
6.248645
 31
0.000000
  0
LINE
  8
DIEM
 62
     7
  6
CONTINUOUS
 10
10.253456
 20
8.813392
 30
0.000000
 11
10.315956
 21
8.705139
 31
0.000000
  0
LINE
  8
DIEM
 62
     7
  6
CONTINUOUS
 10
10.253456
 20
8.813392
 30
0.000000
 11
10.190956
 21
8.705139
 31
0.000000
  0
LINE
  8
DIEM
 62
     7
  6
CONTINUOUS
 10
10.949802
 20
6.140391
 30
0.000000
 11
10.003456
 21
6.140391
 31
0.000000
  0
LINE
  8
DIEM
 62
     7
  6
CONTINUOUS
 10
10.949802
 20
8.813392
 30
0.000000
 11
10.003456
 21
8.813392
 31
0.000000
  0
TEXT
  8
DIEM
 62
     7
 10
9.780049
 20
7.712998
 30
0.000000
 40
0.125000
  1
2.673"
  0
TEXT
  8
DIEM
 62
     7
 10
10.252212
 20
7.806983
 30
0.000000
 40
0.125000
  1
+.000"
  0
TEXT
  8
DIEM
 62
     7
 10
10.252212
 20
7.619012
 30
0.000000
 40
0.125000
  1
-.002"
  0
LINE
  8
DIEM
 62
     7
  6
CONTINUOUS
 10
10.253456
 20
6.140391
 30
0.000000
 11
10.253456
 21
7.587700
 31
0.000000
  0
LINE
  8
DIEM
 62
     7
  6
CONTINUOUS
 10
10.253456
 20
7.963766
 30
0.000000
 11
10.253456
 21
8.813392
 31
0.000000
  0
LINE
  8
DIEM
 62
     7
  6
CONTINUOUS
 10
10.792145
 20
6.884599
 30
0.000000
 11
10.729645
 21
6.992852
 31
0.000000
  0
LINE
  8
DIEM
 62
     7
  6
CONTINUOUS
 10
10.792145
 20
6.884599
 30
0.000000
 11
10.854645
 21
6.992852
 31
0.000000
  0
LINE
  8
DIEM
 62
     7
  6
CONTINUOUS
 10
10.792145
 20
8.070891
 30
0.000000
 11
10.854645
 21
7.962638
 31
0.000000
  0
LINE
  8
DIEM
 62
     7
  6
CONTINUOUS
 10
10.792145
 20
8.070891
 30
0.000000
 11
10.729645
 21
7.962638
 31
0.000000
  0
LINE
  8
DIEM
 62
     7
  6
CONTINUOUS
 10
10.949802
 20
6.884599
 30
0.000000
 11
10.542145
 21
6.884599
 31
0.000000
  0
LINE
  8
DIEM
 62
     7
  6
CONTINUOUS
 10
10.949802
 20
8.070891
 30
0.000000
 11
10.542145
 21
8.070891
 31
0.000000
  0
TEXT
  8
DIEM
 62
     7
 10
10.550053
 20
7.297234
 30
0.000000
 40
0.125000
  1
1 3/16"
  0
LINE
  8
DIEM
 62
     7
  6
CONTINUOUS
 10
10.792145
 20
6.884599
 30
0.000000
 11
10.792145
 21
7.265984
 31
0.000000
  0
LINE
  8
DIEM
 62
     7
  6
CONTINUOUS
 10
10.792145
 20
7.453927
 30
0.000000
 11
10.792145
 21
8.070891
 31
0.000000
  0
LINE
  8
DIEM
 62
     7
  6
CONTINUOUS
 10
5.533911
 20
8.120675
 30
0.000000
 11
5.596411
 21
8.120675
 31
0.000000
  0
LINE
  8
DIEM
 62
     7
  6
CONTINUOUS
 10
4.353064
 20
7.683174
 30
0.000000
 11
4.273268
 21
7.586958
 31
0.000000
  0
LINE
  8
DIEM
 62
     7
  6
CONTINUOUS
 10
4.353064
 20
7.683174
 30
0.000000
 11
4.229840
 21
7.704171
 31
0.000000
  0
LINE
  8
DIEM
 62
     7
  6
CONTINUOUS
 10
3.239534
 20
7.270613
 30
0.000000
 11
3.319330
 21
7.366829
 31
0.000000
  0
LINE
  8
DIEM
 62
     7
  6
CONTINUOUS
 10
3.239534
 20
7.270613
 30
0.000000
 11
3.362758
 21
7.249616
 31
0.000000
  0
TEXT
  8
DIEM
 62
     7
 10
5.627661
 20
8.057954
 30
0.000000
 40
0.125000
  1
1 3/16"
  0
LINE
  8
DIEM
 62
     7
  6
CONTINUOUS
 10
3.239534
 20
7.270613
 30
0.000000
 11
5.533911
 21
8.120675
 31
0.000000
  0
LINE
  8
DIEM
 62
     7
  6
CONTINUOUS
 10
4.296073
 20
6.789875
 30
0.000000
 11
4.414922
 21
6.751145
 31
0.000000
  0
LINE
  8
DIEM
 62
     7
  6
CONTINUOUS
 10
4.296073
 20
6.789875
 30
0.000000
 11
4.321956
 21
6.667584
 31
0.000000
  0
LINE
  8
DIEM
 62
     7
  6
CONTINUOUS
 10
4.296073
 20
6.789875
 30
0.000000
 11
4.858285
 21
6.164387
 31
0.000000
  0
LINE
  8
DIEM
 62
     7
  6
CONTINUOUS
 10
4.858285
 20
6.164387
 30
0.000000
 11
5.358285
 21
6.164387
 31
0.000000
  0
TEXT
  8
DIEM
 62
     7
 10
5.420785
 20
6.101887
 30
0.000000
 40
0.125000
  1
SEE NOTE B
  0
LINE
  8
DIEM
 62
     7
  6
CONTINUOUS
 10
3.855421
 20
6.273847
 30
0.000000
 11
3.979050
 21
6.255387
 31
0.000000
  0
LINE
  8
DIEM
 62
     7
  6
CONTINUOUS
 10
3.855421
 20
6.273847
 30
0.000000
 11
3.901249
 21
6.157550
 31
0.000000
  0
LINE
  8
DIEM
 62
     7
  6
CONTINUOUS
 10
3.855421
 20
6.273847
 30
0.000000
 11
4.523997
 21
5.742182
 31
0.000000
  0
LINE
  8
DIEM
 62
     7
  6
CONTINUOUS
 10
4.523997
 20
5.742182
 30
0.000000
 11
5.023997
 21
5.742182
 31
0.000000
  0
TEXT
  8
DIEM
 62
     7
 10
5.086497
 20
5.679682
 30
0.000000
 40
0.125000
  1
SEE NOTE C
  0
LINE
  8
DIEM
 62
     7
  6
CONTINUOUS
 10
4.763165
 20
10.466058
 30
0.000000
 11
4.825665
 21
10.466058
 31
0.000000
  0
LINE
  8
DIEM
 62
     7
  6
CONTINUOUS
 10
4.719572
 20
10.331287
 30
0.000000
 11
4.745723
 21
10.209053
 31
0.000000
  0
LINE
  8
DIEM
 62
     7
  6
CONTINUOUS
 10
4.719572
 20
10.331287
 30
0.000000
 11
4.626790
 21
10.247523
 31
0.000000
  0
LINE
  8
DIEM
 62
     7
  6
CONTINUOUS
 10
2.873025
 20
4.622498
 30
0.000000
 11
2.846874
 21
4.744732
 31
0.000000
  0
LINE
  8
DIEM
 62
     7
  6
CONTINUOUS
 10
2.873025
 20
4.622498
 30
0.000000
 11
2.965807
 21
4.706262
 31
0.000000
  0
TEXT
  8
DIEM
 62
     7
 10
4.856915
 20
10.403337
 30
0.000000
 40
0.125000
  1
6"
  0
LINE
  8
DIEM
 62
     7
  6
CONTINUOUS
 10
2.873025
 20
4.622498
 30
0.000000
 11
4.763165
 21
10.466058
 31
0.000000
  0
LINE
  8
DIEM
 62
     7
  6
CONTINUOUS
 10
4.573586
 20
11.148900
 30
0.000000
 11
4.636086
 21
11.148900
 31
0.000000
  0
LINE
  8
DIEM
 62
     7
  6
CONTINUOUS
 10
4.547001
 20
11.023310
 30
0.000000
 11
4.585728
 21
10.904461
 31
0.000000
  0
LINE
  8
DIEM
 62
     7
  6
CONTINUOUS
 10
4.547001
 20
11.023310
 30
0.000000
 11
4.463438
 21
10.930347
 31
0.000000
  0
LINE
  8
DIEM
 62
     7
  6
CONTINUOUS
 10
3.045598
 20
3.930471
 30
0.000000
 11
3.006871
 21
4.049321
 31
0.000000
  0
LINE
  8
DIEM
 62
     7
  6
CONTINUOUS
 10
3.045598
 20
3.930471
 30
0.000000
 11
3.129161
 21
4.023434
 31
0.000000
  0
TEXT
  8
DIEM
 62
     7
 10
4.667336
 20
11.086327
 30
0.000000
 40
0.125000
  1
7 1/4" BOLT CIRCLE=
  0
LINE
  8
DIEM
 62
     7
  6
CONTINUOUS
 10
3.045598
 20
3.930471
 30
0.000000
 11
4.573586
 21
11.148900
 31
0.000000
  0
ARC
  8
PLATE
 62
     7
  6
CONTINUOUS
 10
7.028986
 20
12.542762
 30
0.000000
 40
1.759435
 50
237.436003
 51
237.499932
  0
ARC
  8
PLATE
 62
     7
  6
CONTINUOUS
 10
3.796299
 20
7.476896
 30
0.000000
 40
4.249997
 50
66.255235
 51
123.990668
  0
LINE
  8
DIEM
 62
     7
  6
CONTINUOUS
 10
4.147085
 20
11.357800
 30
0.000000
 11
4.203546
 21
11.469322
 31
0.000000
  0
LINE
  8
DIEM
 62
     7
  6
CONTINUOUS
 10
4.147085
 20
11.357800
 30
0.000000
 11
4.271897
 21
11.364664
 31
0.000000
  0
LINE
  8
DIEM
 62
     7
  6
CONTINUOUS
 10
4.147085
 20
11.357800
 30
0.000000
 11
4.631700
 21
11.674295
 31
0.000000
  0
LINE
  8
DIEM
 62
     7
  6
CONTINUOUS
 10
4.631700
 20
11.674295
 30
0.000000
 11
5.131700
 21
11.674295
 31
0.000000
  0
TEXT
  8
DIEM
 62
     7
 10
5.194199
 20
11.611796
 30
0.000000
 40
0.125000
  1
SEE NOTE D
  0
LINE
  8
DIEM
 62
     7
  6
CONTINUOUS
 10
4.557144
 20
12.105882
 30
0.000000
 11
4.619644
 21
12.105882
 31
0.000000
  0
LINE
  8
DIEM
 62
     7
  6
CONTINUOUS
 10
4.485603
 20
11.670622
 30
0.000000
 11
4.529718
 21
11.553665
 31
0.000000
  0
LINE
  8
DIEM
 62
     7
  6
CONTINUOUS
 10
4.485603
 20
11.670622
 30
0.000000
 11
4.406373
 21
11.573939
 31
0.000000
  0
LINE
  8
DIEM
 62
     7
  6
CONTINUOUS
 10
3.106995
 20
3.283173
 30
0.000000
 11
3.062880
 21
3.400129
 31
0.000000
  0
LINE
  8
DIEM
 62
     7
  6
CONTINUOUS
 10
3.106995
 20
3.283173
 30
0.000000
 11
3.186225
 21
3.379856
 31
0.000000
  0
TEXT
  8
DIEM
 62
     7
 10
4.650894
 20
12.042833
 30
0.000000
 40
0.125000
  1
8.500"
  0
TEXT
  8
DIEM
 62
     7
 10
5.134647
 20
12.137132
 30
0.000000
 40
0.125000
  1
+.000"
  0
TEXT
  8
DIEM
 62
     7
 10
5.134647
 20
11.948534
 30
0.000000
 40
0.125000
  1
-.002"
  0
LINE
  8
DIEM
 62
     7
  6
CONTINUOUS
 10
3.106995
 20
3.283173
 30
0.000000
 11
4.557144
 21
12.105882
 31
0.000000
  0
LINE
  8
DIEM
 62
     7
  6
CONTINUOUS
 10
6.296299
 20
12.648995
 30
0.000000
 11
6.404552
 21
12.711495
 31
0.000000
  0
LINE
  8
DIEM
 62
     7
  6
CONTINUOUS
 10
6.296299
 20
12.648995
 30
0.000000
 11
6.404552
 21
12.586495
 31
0.000000
  0
LINE
  8
DIEM
 62
     7
  6
CONTINUOUS
 10
7.604299
 20
12.648995
 30
0.000000
 11
7.496045
 21
12.586495
 31
0.000000
  0
LINE
  8
DIEM
 62
     7
  6
CONTINUOUS
 10
7.604299
 20
12.648995
 30
0.000000
 11
7.496045
 21
12.711495
 31
0.000000
  0
LINE
  8
DIEM
 62
     7
  6
CONTINUOUS
 10
6.296299
 20
12.528893
 30
0.000000
 11
6.296299
 21
12.898995
 31
0.000000
  0
LINE
  8
DIEM
 62
     7
  6
CONTINUOUS
 10
7.604299
 20
11.632977
 30
0.000000
 11
7.604299
 21
12.898995
 31
0.000000
  0
TEXT
  8
DIEM
 62
     7
 10
5.666313
 20
12.585947
 30
0.000000
 40
0.125000
  1
1.308"
  0
LINE
  8
DIEM
 62
     7
  6
CONTINUOUS
 10
6.103135
 20
12.648995
 30
0.000000
 11
7.604299
 21
12.648995
 31
0.000000
  0
LINE
  8
DIEM
 62
     7
  6
CONTINUOUS
 10
11.052915
 20
7.935211
 30
0.000000
 11
10.945856
 21
7.999736
 31
0.000000
  0
LINE
  8
DIEM
 62
     7
  6
CONTINUOUS
 10
11.052915
 20
7.935211
 30
0.000000
 11
11.055265
 21
8.060189
 31
0.000000
  0
LINE
  8
DIEM
 62
     7
  6
CONTINUOUS
 10
11.052915
 20
7.935211
 30
0.000000
 11
10.423290
 21
9.074712
 31
0.000000
  0
LINE
  8
DIEM
 62
     7
  6
CONTINUOUS
 10
10.423290
 20
9.074712
 30
0.000000
 11
10.923290
 21
9.074712
 31
0.000000
  0
TEXT
  8
DIEM
 62
     7
 10
10.985790
 20
9.012212
 30
0.000000
 40
0.125000
  1
PILOT BEARING RECESS
  0
LINE
  8
DIEM
 62
     7
  6
CONTINUOUS
 10
11.012302
 20
5.980186
 30
0.000000
 11
11.120556
 21
6.042686
 31
0.000000
  0
LINE
  8
DIEM
 62
     7
  6
CONTINUOUS
 10
11.012302
 20
5.980186
 30
0.000000
 11
11.120556
 21
5.917686
 31
0.000000
  0
LINE
  8
DIEM
 62
     7
  6
CONTINUOUS
 10
11.637302
 20
5.980186
 30
0.000000
 11
11.529049
 21
5.917686
 31
0.000000
  0
LINE
  8
DIEM
 62
     7
  6
CONTINUOUS
 10
11.637302
 20
5.980186
 30
0.000000
 11
11.529049
 21
6.042686
 31
0.000000
  0
LINE
  8
DIEM
 62
     7
  6
CONTINUOUS
 10
11.012302
 20
6.077891
 30
0.000000
 11
11.012302
 21
5.730186
 31
0.000000
  0
LINE
  8
DIEM
 62
     7
  6
CONTINUOUS
 10
11.637302
 20
6.077891
 30
0.000000
 11
11.637302
 21
5.730186
 31
0.000000
  0
TEXT
  8
DIEM
 62
     7
 10
11.165595
 20
5.917161
 30
0.000000
 40
0.125000
  1
5/8"
  0
LINE
  8
DIEM
 62
     7
  6
CONTINUOUS
 10
11.012302
 20
5.980186
 30
0.000000
 11
11.134345
 21
5.980186
 31
0.000000
  0
LINE
  8
DIEM
 62
     7
  6
CONTINUOUS
 10
11.515260
 20
5.980186
 30
0.000000
 11
11.637302
 21
5.980186
 31
0.000000
  0
LINE
  8
DIEM
 62
     7
  6
CONTINUOUS
 10
11.637302
 20
5.980186
 30
0.000000
 11
11.745556
 21
6.042686
 31
0.000000
  0
LINE
  8
DIEM
 62
     7
  6
CONTINUOUS
 10
11.637302
 20
5.980186
 30
0.000000
 11
11.745556
 21
5.917686
 31
0.000000
  0
LINE
  8
DIEM
 62
     7
  6
CONTINUOUS
 10
12.807299
 20
5.980186
 30
0.000000
 11
12.699045
 21
5.917686
 31
0.000000
  0
LINE
  8
DIEM
 62
     7
  6
CONTINUOUS
 10
12.807299
 20
5.980186
 30
0.000000
 11
12.699045
 21
6.042686
 31
0.000000
  0
LINE
  8
DIEM
 62
     7
  6
CONTINUOUS
 10
11.637302
 20
6.077891
 30
0.000000
 11
11.637302
 21
5.730186
 31
0.000000
  0
LINE
  8
DIEM
 62
     7
  6
CONTINUOUS
 10
12.807299
 20
6.289393
 30
0.000000
 11
12.807299
 21
5.730186
 31
0.000000
  0
TEXT
  8
DIEM
 62
     7
 10
11.980209
 20
5.917465
 30
0.000000
 40
0.125000
  1
1 3/16"
  0
LINE
  8
DIEM
 62
     7
  6
CONTINUOUS
 10
11.637302
 20
5.980186
 30
0.000000
 11
11.948959
 21
5.980186
 31
0.000000
  0
LINE
  8
DIEM
 62
     7
  6
CONTINUOUS
 10
12.495642
 20
5.980186
 30
0.000000
 11
12.807299
 21
5.980186
 31
0.000000
  0
LINE
  8
DIEM
 62
     7
  6
CONTINUOUS
 10
11.012302
 20
5.600352
 30
0.000000
 11
11.120556
 21
5.662852
 31
0.000000
  0
LINE
  8
DIEM
 62
     7
  6
CONTINUOUS
 10
11.012302
 20
5.600352
 30
0.000000
 11
11.120556
 21
5.537852
 31
0.000000
  0
LINE
  8
DIEM
 62
     7
  6
CONTINUOUS
 10
12.807299
 20
5.600352
 30
0.000000
 11
12.699045
 21
5.537852
 31
0.000000
  0
LINE
  8
DIEM
 62
     7
  6
CONTINUOUS
 10
12.807299
 20
5.600352
 30
0.000000
 11
12.699045
 21
5.662852
 31
0.000000
  0
LINE
  8
DIEM
 62
     7
  6
CONTINUOUS
 10
11.012302
 20
6.077891
 30
0.000000
 11
11.012302
 21
5.350352
 31
0.000000
  0
LINE
  8
DIEM
 62
     7
  6
CONTINUOUS
 10
12.807299
 20
6.289393
 30
0.000000
 11
12.807299
 21
5.350352
 31
0.000000
  0
TEXT
  8
DIEM
 62
     7
 10
11.652085
 20
5.537631
 30
0.000000
 40
0.125000
  1
1 13/16"
  0
LINE
  8
DIEM
 62
     7
  6
CONTINUOUS
 10
11.012302
 20
5.600352
 30
0.000000
 11
11.620834
 21
5.600352
 31
0.000000
  0
LINE
  8
DIEM
 62
     7
  6
CONTINUOUS
 10
12.198767
 20
5.600352
 30
0.000000
 11
12.807299
 21
5.600352
 31
0.000000
  0
LINE
  8
DIEM
 62
     7
  6
CONTINUOUS
 10
13.148043
 20
6.351893
 30
0.000000
 11
13.085543
 21
6.460147
 31
0.000000
  0
LINE
  8
DIEM
 62
     7
  6
CONTINUOUS
 10
13.148043
 20
6.351893
 30
0.000000
 11
13.210543
 21
6.460147
 31
0.000000
  0
LINE
  8
DIEM
 62
     7
  6
CONTINUOUS
 10
13.148043
 20
8.601893
 30
0.000000
 11
13.210543
 21
8.493640
 31
0.000000
  0
LINE
  8
DIEM
 62
     7
  6
CONTINUOUS
 10
13.148043
 20
8.601893
 30
0.000000
 11
13.085543
 21
8.493640
 31
0.000000
  0
LINE
  8
DIEM
 62
     7
  6
CONTINUOUS
 10
12.869799
 20
6.351893
 30
0.000000
 11
13.398043
 21
6.351893
 31
0.000000
  0
LINE
  8
DIEM
 62
     7
  6
CONTINUOUS
 10
12.869799
 20
8.601893
 30
0.000000
 11
13.398043
 21
8.601893
 31
0.000000
  0
TEXT
  8
DIEM
 62
     7
 10
12.922855
 20
7.582163
 30
0.000000
 40
0.125000
  1
2 1/4"
  0
LINE
  8
DIEM
 62
     7
  6
CONTINUOUS
 10
13.148043
 20
6.351893
 30
0.000000
 11
13.148043
 21
7.550913
 31
0.000000
  0
LINE
  8
DIEM
 62
     7
  6
CONTINUOUS
 10
13.148043
 20
7.738587
 30
0.000000
 11
13.148043
 21
8.601893
 31
0.000000
  0
LINE
  8
DIEM
 62
     7
  6
CONTINUOUS
 10
12.160184
 20
8.348559
 30
0.000000
 11
12.259341
 21
8.272449
 31
0.000000
  0
LINE
  8
DIEM
 62
     7
  6
CONTINUOUS
 10
12.160184
 20
8.348559
 30
0.000000
 11
12.143849
 21
8.224631
 31
0.000000
  0
LINE
  8
DIEM
 62
     7
  6
CONTINUOUS
 10
12.160184
 20
8.348559
 30
0.000000
 11
13.224031
 21
5.779098
 31
0.000000
  0
LINE
  8
DIEM
 62
     7
  6
CONTINUOUS
 10
13.224031
 20
5.779098
 30
0.000000
 11
13.724031
 21
5.779098
 31
0.000000
  0
TEXT
  8
DIEM
 62
     7
 10
13.786531
 20
5.716598
 30
0.000000
 40
0.125000
  1
BORE TO SUIT BUSHING
  0
LINE
  8
DIEM
 62
     7
  6
CONTINUOUS
 10
14.753489
 20
8.164714
 30
0.000000
 11
14.652579
 21
8.238486
 31
0.000000
  0
LINE
  8
DIEM
 62
     7
  6
CONTINUOUS
 10
14.753489
 20
8.164714
 30
0.000000
 11
14.766922
 21
8.288990
 31
0.000000
  0
LINE
  8
DIEM
 62
     7
  6
CONTINUOUS
 10
14.753489
 20
8.164714
 30
0.000000
 11
14.227229
 21
9.356186
 31
0.000000
  0
LINE
  8
DIEM
 62
     7
  6
CONTINUOUS
 10
14.227229
 20
9.356186
 30
0.000000
 11
14.727229
 21
9.356186
 31
0.000000
  0
TEXT
  8
DIEM
 62
     7
 10
14.789729
 20
9.293686
 30
0.000000
 40
0.125000
  1
SEE NOTE A
  0
LINE
  8
BUSH
 62
     7
  6
CONTINUOUS
 10
8.932299
 20
8.039385
 30
0.000000
 11
8.932299
 21
8.414393
 31
0.000000
  0
LINE
  8
BUSH
 62
     7
  6
CONTINUOUS
 10
8.932299
 20
6.914402
 30
0.000000
 11
8.932299
 21
6.539393
 31
0.000000
  0
LINE
  8
HUB
 62
     7
  6
CONTINUOUS
 10
8.932299
 20
8.039385
 30
0.000000
 11
8.932299
 21
8.601893
 31
0.000000
  0
LINE
  8
HUB
 62
     7
  6
CONTINUOUS
 10
8.932299
 20
6.914402
 30
0.000000
 11
8.932299
 21
6.351893
 31
0.000000
  0
POINT
  8
RING9
 62
     7
 10
8.106497
 20
11.351892
 30
0.000000
  0
POINT
  8
RING9
 62
     7
 10
8.106385
 20
10.851892
 30
0.000000
  0
LINE
  8
RING9
 62
     7
  6
CONTINUOUS
 10
8.169411
 20
11.101250
 30
0.000000
 11
8.169411
 21
11.351827
 31
0.000000
  0
LINE
  8
RING9
 62
     7
  6
CONTINUOUS
 10
8.169411
 20
11.101250
 30
0.000000
 11
8.169411
 21
10.859385
 31
0.000000
  0
LINE
  8
RING9
 62
     7
  6
CONTINUOUS
 10
8.231903
 20
11.101250
 30
0.000000
 11
8.231903
 21
11.312250
 31
0.000000
  0
LINE
  8
RING9
 62
     7
  6
CONTINUOUS
 10
8.231903
 20
11.100190
 30
0.000000
 11
8.231903
 21
10.889190
 31
0.000000
  0
LINE
  8
RING9
 62
     7
  6
CONTINUOUS
 10
8.294394
 20
11.101250
 30
0.000000
 11
8.294394
 21
11.351827
 31
0.000000
  0
LINE
  8
RING9
 62
     7
  6
CONTINUOUS
 10
8.294394
 20
11.101250
 30
0.000000
 11
8.294394
 21
10.859385
 31
0.000000
  0
LINE
  8
RING9
 62
     7
  6
CONTINUOUS
 10
8.419376
 20
11.101250
 30
0.000000
 11
8.419376
 21
11.351827
 31
0.000000
  0
LINE
  8
RING9
 62
     7
  6
CONTINUOUS
 10
8.419376
 20
11.101250
 30
0.000000
 11
8.419376
 21
10.859385
 31
0.000000
  0
LINE
  8
RING9
 62
     7
  6
CONTINUOUS
 10
8.544359
 20
11.101250
 30
0.000000
 11
8.544359
 21
11.351827
 31
0.000000
  0
LINE
  8
RING9
 62
     7
  6
CONTINUOUS
 10
8.544359
 20
11.101250
 30
0.000000
 11
8.544359
 21
10.859385
 31
0.000000
  0
LINE
  8
RING9
 62
     7
  6
CONTINUOUS
 10
8.669342
 20
11.101250
 30
0.000000
 11
8.669342
 21
11.351827
 31
0.000000
  0
LINE
  8
RING9
 62
     7
  6
CONTINUOUS
 10
8.669342
 20
11.101250
 30
0.000000
 11
8.669342
 21
10.859385
 31
0.000000
  0
LINE
  8
RING9
 62
     7
  6
CONTINUOUS
 10
8.794325
 20
11.101250
 30
0.000000
 11
8.794325
 21
11.351827
 31
0.000000
  0
LINE
  8
RING9
 62
     7
  6
CONTINUOUS
 10
8.794325
 20
11.101250
 30
0.000000
 11
8.794325
 21
10.859385
 31
0.000000
  0
LINE
  8
RING9
 62
     7
  6
CONTINUOUS
 10
8.919308
 20
11.101250
 30
0.000000
 11
8.919308
 21
11.351827
 31
0.000000
  0
LINE
  8
RING9
 62
     7
  6
CONTINUOUS
 10
8.919308
 20
11.101250
 30
0.000000
 11
8.919308
 21
10.859385
 31
0.000000
  0
LINE
  8
RING9
 62
     7
  6
CONTINUOUS
 10
9.044291
 20
11.101250
 30
0.000000
 11
9.044291
 21
11.351827
 31
0.000000
  0
LINE
  8
RING9
 62
     7
  6
CONTINUOUS
 10
9.044291
 20
11.101250
 30
0.000000
 11
9.044291
 21
10.859385
 31
0.000000
  0
LINE
  8
RING9
 62
     7
  6
CONTINUOUS
 10
9.169273
 20
11.101250
 30
0.000000
 11
9.169273
 21
11.351827
 31
0.000000
  0
LINE
  8
RING9
 62
     7
  6
CONTINUOUS
 10
9.169273
 20
11.101250
 30
0.000000
 11
9.169273
 21
10.859385
 31
0.000000
  0
LINE
  8
RING9
 62
     7
  6
CONTINUOUS
 10
9.294256
 20
11.101250
 30
0.000000
 11
9.294256
 21
11.351827
 31
0.000000
  0
LINE
  8
RING9
 62
     7
  6
CONTINUOUS
 10
9.294256
 20
11.101250
 30
0.000000
 11
9.294256
 21
10.859385
 31
0.000000
  0
LINE
  8
RING9
 62
     7
  6
CONTINUOUS
 10
9.419239
 20
11.101250
 30
0.000000
 11
9.419239
 21
11.351827
 31
0.000000
  0
LINE
  8
RING9
 62
     7
  6
CONTINUOUS
 10
9.419239
 20
11.101250
 30
0.000000
 11
9.419239
 21
10.859385
 31
0.000000
  0
LINE
  8
RING9
 62
     7
  6
CONTINUOUS
 10
8.356885
 20
11.101250
 30
0.000000
 11
8.356885
 21
11.312250
 31
0.000000
  0
LINE
  8
RING9
 62
     7
  6
CONTINUOUS
 10
8.356885
 20
11.100190
 30
0.000000
 11
8.356885
 21
10.889190
 31
0.000000
  0
LINE
  8
RING9
 62
     7
  6
CONTINUOUS
 10
8.481868
 20
11.101250
 30
0.000000
 11
8.481868
 21
11.312250
 31
0.000000
  0
LINE
  8
RING9
 62
     7
  6
CONTINUOUS
 10
8.481868
 20
11.100190
 30
0.000000
 11
8.481868
 21
10.889190
 31
0.000000
  0
LINE
  8
RING9
 62
     7
  6
CONTINUOUS
 10
8.606851
 20
11.101250
 30
0.000000
 11
8.606851
 21
11.312250
 31
0.000000
  0
LINE
  8
RING9
 62
     7
  6
CONTINUOUS
 10
8.606851
 20
11.100190
 30
0.000000
 11
8.606851
 21
10.889190
 31
0.000000
  0
LINE
  8
RING9
 62
     7
  6
CONTINUOUS
 10
8.731833
 20
11.101250
 30
0.000000
 11
8.731833
 21
11.312250
 31
0.000000
  0
LINE
  8
RING9
 62
     7
  6
CONTINUOUS
 10
8.731833
 20
11.100190
 30
0.000000
 11
8.731833
 21
10.889190
 31
0.000000
  0
LINE
  8
RING9
 62
     7
  6
CONTINUOUS
 10
8.856816
 20
11.101250
 30
0.000000
 11
8.856816
 21
11.312250
 31
0.000000
  0
LINE
  8
RING9
 62
     7
  6
CONTINUOUS
 10
8.856816
 20
11.100190
 30
0.000000
 11
8.856816
 21
10.889190
 31
0.000000
  0
LINE
  8
RING9
 62
     7
  6
CONTINUOUS
 10
8.981799
 20
11.101250
 30
0.000000
 11
8.981799
 21
11.312250
 31
0.000000
  0
LINE
  8
RING9
 62
     7
  6
CONTINUOUS
 10
8.981799
 20
11.100190
 30
0.000000
 11
8.981799
 21
10.889190
 31
0.000000
  0
LINE
  8
RING9
 62
     7
  6
CONTINUOUS
 10
9.106782
 20
11.101250
 30
0.000000
 11
9.106782
 21
11.312250
 31
0.000000
  0
LINE
  8
RING9
 62
     7
  6
CONTINUOUS
 10
9.106782
 20
11.100190
 30
0.000000
 11
9.106782
 21
10.889190
 31
0.000000
  0
LINE
  8
RING9
 62
     7
  6
CONTINUOUS
 10
9.231765
 20
11.101250
 30
0.000000
 11
9.231765
 21
11.312250
 31
0.000000
  0
LINE
  8
RING9
 62
     7
  6
CONTINUOUS
 10
9.231765
 20
11.100190
 30
0.000000
 11
9.231765
 21
10.889190
 31
0.000000
  0
LINE
  8
RING9
 62
     7
  6
CONTINUOUS
 10
9.356748
 20
11.101250
 30
0.000000
 11
9.356748
 21
11.312250
 31
0.000000
  0
LINE
  8
RING9
 62
     7
  6
CONTINUOUS
 10
9.356748
 20
11.100190
 30
0.000000
 11
9.356748
 21
10.889190
 31
0.000000
  0
POINT
  8
RING9
 62
     7
 10
8.106914
 20
3.234602
 30
0.000000
  0
POINT
  8
RING9
 62
     7
 10
8.106914
 20
3.276894
 30
0.000000
  0
POINT
  8
RING9
 62
     7
 10
8.106914
 20
3.276894
 30
0.000000
  0
POINT
  8
RING9
 62
     7
 10
8.104983
 20
3.573888
 30
0.000000
  0
POINT
  8
RING9
 62
     7
 10
8.106914
 20
3.234602
 30
0.000000
  0
POINT
  8
RING9
 62
     7
 10
8.106914
 20
3.276894
 30
0.000000
  0
POINT
  8
RING9
 62
     7
 10
8.106914
 20
3.276894
 30
0.000000
  0
LINE
  8
RING9
 62
     7
  6
CONTINUOUS
 10
8.403785
 20
2.979901
 30
0.000000
 11
8.778785
 21
2.979901
 31
0.000000
  0
LINE
  8
RING9
 62
     7
  6
CONTINUOUS
 10
8.778785
 20
2.979901
 30
0.000000
 11
8.778785
 21
3.573901
 31
0.000000
  0
LINE
  8
RING9
 62
     7
  6
CONTINUOUS
 10
8.778785
 20
3.573901
 30
0.000000
 11
8.104983
 21
3.573901
 31
0.000000
  0
LINE
  8
RING9
 62
     7
  6
CONTINUOUS
 10
8.106914
 20
11.726893
 30
0.000000
 11
8.294414
 21
11.726893
 31
0.000000
  0
LINE
  8
RING9
 62
     7
  6
CONTINUOUS
 10
8.294414
 20
11.726893
 30
0.000000
 11
8.431427
 21
12.041893
 31
0.000000
  0
LINE
  8
RING9
 62
     7
  6
CONTINUOUS
 10
8.106914
 20
3.234602
 30
0.000000
 11
8.289413
 21
3.234602
 31
0.000000
  0
LINE
  8
RING9
 62
     7
  6
CONTINUOUS
 10
8.289413
 20
3.234602
 30
0.000000
 11
8.432572
 21
2.911894
 31
0.000000
  0
POINT
  8
RING9
 62
     7
 10
8.109020
 20
10.476892
 30
0.000000
  0
LINE
  8
RING9
 62
     7
  6
CONTINUOUS
 10
8.109020
 20
10.476892
 30
0.000000
 11
8.421520
 21
10.476892
 31
0.000000
  0
POINT
  8
RING9
 62
     7
 10
8.106426
 20
4.476893
 30
0.000000
  0
LINE
  8
RING9
 62
     7
  6
CONTINUOUS
 10
8.106426
 20
4.476893
 30
0.000000
 11
8.418926
 21
4.476893
 31
0.000000
  0
LINE
  8
RING9
 62
     7
  6
CONTINUOUS
 10
9.500248
 20
11.351892
 30
0.000000
 11
9.500248
 21
10.851892
 31
0.000000
  0
LINE
  8
RING9
 62
     7
  6
CONTINUOUS
 10
8.106914
 20
8.601893
 30
0.000000
 11
8.106914
 21
11.726893
 31
0.000000
  0
LINE
  8
RING9
 62
     7
  6
CONTINUOUS
 10
8.421520
 20
10.476892
 30
0.000000
 11
8.421520
 21
8.601893
 31
0.000000
  0
LINE
  8
RING9
 62
     7
  6
CONTINUOUS
 10
8.418926
 20
4.476893
 30
0.000000
 11
8.418926
 21
6.351893
 31
0.000000
  0
LINE
  8
RING9
 62
     7
  6
CONTINUOUS
 10
8.106914
 20
6.351893
 30
0.000000
 11
8.106914
 21
3.226894
 31
0.000000
  0
POINT
  8
ADC9
 62
     7
 10
7.745299
 20
7.476893
 30
0.000000
  0
POINT
  8
ADC9
 62
     7
 10
9.761975
 20
7.476893
 30
0.000000
  0
LINE
  8
ADC9
 62
     7
  6
CONTINUOUS
 10
9.761975
 20
7.476893
 30
0.000000
 11
9.761975
 21
12.041893
 31
0.000000
  0
LINE
  8
ADC9
 62
     7
  6
CONTINUOUS
 10
9.761975
 20
7.476893
 30
0.000000
 11
9.761975
 21
2.911894
 31
0.000000
  0
LINE
  8
ADC9
 62
     7
  6
CONTINUOUS
 10
9.761975
 20
2.911894
 30
0.000000
 11
11.291883
 21
2.911894
 31
0.000000
  0
LINE
  8
ADC9
 62
     7
  6
CONTINUOUS
 10
9.761975
 20
12.041893
 30
0.000000
 11
11.260107
 21
12.041893
 31
0.000000
  0
POINT
  8
ADC9
 62
     7
 10
9.761975
 20
7.476893
 30
0.000000
  0
POINT
  8
ADC9
 62
     7
 10
9.761975
 20
7.476893
 30
0.000000
  0
LINE
  8
ADC9
 62
     7
  6
CONTINUOUS
 10
9.761975
 20
12.041893
 30
0.000000
 11
9.761975
 21
7.476893
 31
0.000000
  0
LINE
  8
ADC9
 62
     7
  6
CONTINUOUS
 10
9.575298
 20
9.476889
 30
0.000000
 11
9.575298
 21
5.476898
 31
0.000000
  0
POINT
  8
ADC9
 62
     7
 10
9.575298
 20
7.476893
 30
0.000000
  0
POINT
  8
ADC9
 62
     7
 10
9.585242
 20
9.075863
 30
0.000000
  0
POINT
  8
ADC9
 62
     7
 10
9.582055
 20
5.877864
 30
0.000000
  0
POINT
  8
ADC9
 62
     7
 10
9.575298
 20
7.476893
 30
0.000000
  0
POINT
  8
ADC9
 62
     7
 10
9.233298
 20
7.476893
 30
0.000000
  0
LINE
  8
ADC9
 62
     7
  6
CONTINUOUS
 10
9.233298
 20
7.476893
 30
0.000000
 11
9.233298
 21
8.916893
 31
0.000000
  0
LINE
  8
ADC9
 62
     7
  6
CONTINUOUS
 10
9.233298
 20
7.476893
 30
0.000000
 11
9.233298
 21
6.036893
 31
0.000000
  0
LINE
  8
ADC9
 62
     7
  6
CONTINUOUS
 10
9.233298
 20
6.036893
 30
0.000000
 11
9.582055
 21
5.877864
 31
0.000000
  0
LINE
  8
ADC9
 62
     7
  6
CONTINUOUS
 10
9.233298
 20
8.916893
 30
0.000000
 11
9.585242
 21
9.075863
 31
0.000000
  0
POINT
  8
ADC9
 62
     7
 10
9.233298
 20
7.476893
 30
0.000000
  0
POINT
  8
ADC9
 62
     7
 10
9.233298
 20
7.476893
 30
0.000000
  0
POINT
  8
ADC9
 62
     7
 10
7.745299
 20
7.476893
 30
0.000000
  0
LINE
  8
ADC9
 62
     7
  6
CONTINUOUS
 10
7.745299
 20
7.476893
 30
0.000000
 11
7.745299
 21
7.976824
 31
0.000000
  0
LINE
  8
ADC9
 62
     7
  6
CONTINUOUS
 10
7.745299
 20
7.476893
 30
0.000000
 11
7.745299
 21
6.976893
 31
0.000000
  0
POINT
  8
ADC9
 62
     7
 10
7.745299
 20
7.476893
 30
0.000000
  0
POINT
  8
ADC9
 62
     7
 10
7.745299
 20
7.476893
 30
0.000000
  0
POINT
  8
ADC9
 62
     7
 10
7.805287
 20
7.478103
 30
0.000000
  0
POINT
  8
ADC9
 62
     7
 10
7.805287
 20
8.040603
 30
0.000000
  0
POINT
  8
ADC9
 62
     7
 10
7.805287
 20
6.915603
 30
0.000000
  0
LINE
  8
ADC9
 62
     7
  6
CONTINUOUS
 10
7.805287
 20
8.040603
 30
0.000000
 11
9.233298
 21
8.040603
 31
0.000000
  0
LINE
  8
ADC9
 62
     7
  6
CONTINUOUS
 10
7.805287
 20
6.915603
 30
0.000000
 11
9.233298
 21
6.915603
 31
0.000000
  0
LINE
  8
ADC9
 62
     7
  6
CONTINUOUS
 10
7.805287
 20
7.478103
 30
0.000000
 11
7.805287
 21
8.040603
 31
0.000000
  0
LINE
  8
ADC9
 62
     7
  6
CONTINUOUS
 10
7.805287
 20
7.478103
 30
0.000000
 11
7.805287
 21
6.915603
 31
0.000000
  0
LINE
  8
ADC9
 62
     7
  6
CONTINUOUS
 10
7.805287
 20
6.915603
 30
0.000000
 11
7.745299
 21
6.976893
 31
0.000000
  0
LINE
  8
ADC9
 62
     7
  6
CONTINUOUS
 10
7.745299
 20
7.976824
 30
0.000000
 11
7.805287
 21
8.040603
 31
0.000000
  0
TEXT
  8
PARTS
 62
     7
 10
13.561737
 20
12.926469
 30
0.000000
 40
0.125000
  1
ELECTRO AUTOMOTIVE
  0
TEXT
  8
PARTS
 62
     7
 10
13.561737
 20
12.738968
 30
0.000000
 40
0.125000
  1
P.O. BOX 1113 FELTON CA. 95018-1113
  0
TEXT
  8
PARTS
 62
     7
 10
13.561737
 20
12.551469
 30
0.000000
 40
0.125000
  1
PHONE 408-429-1989 FAX 408-429-1907
  0
TEXT
  8
PARTS
 62
     7
 10
13.561737
 20
12.363968
 30
0.000000
 40
0.125000
  1
DRAWN BY MICHAEL P. BROWN
  0
LINE
  8
PARTS
 62
     7
  6
CONTINUOUS
 10
13.428990
 20
13.163964
 30
0.000000
 11
16.995441
 21
13.163964
 31
0.000000
  0
LINE
  8
PARTS
 62
     7
  6
CONTINUOUS
 10
16.995441
 20
13.163964
 30
0.000000
 11
16.995441
 21
12.263980
 31
0.000000
  0
LINE
  8
PARTS
 62
     7
  6
CONTINUOUS
 10
16.995441
 20
12.263980
 30
0.000000
 11
13.428990
 21
12.263980
 31
0.000000
  0
LINE
  8
PARTS
 62
     7
  6
CONTINUOUS
 10
13.428990
 20
12.263980
 30
0.000000
 11
13.428990
 21
13.163964
 31
0.000000
  0
TEXT
  8
DIEM
 62
     7
 10
13.437840
 20
11.540553
 30
0.000000
 40
0.125000
  1
NOTE A-- TAP 10-24 x 1" DEEP
  0
TEXT
  8
DIEM
 62
     7
 10
13.437840
 20
11.353052
 30
0.000000
 40
0.125000
  1
NOTE B-- DRILL 13/64" COUNTER BORE 23/64"
  0
TEXT
  8
DIEM
 62
     7
 10
13.437840
 20
11.165552
 30
0.000000
 40
0.125000
  1
x 1/4" DEEP THEN TURN PILOT BEARING 
  0
TEXT
  8
DIEM
 62
     7
 10
13.437840
 20
10.978052
 30
0.000000
 40
0.125000
  1
RECESS 1/16" DEEP x 1 3/16" DIA
  0
LINE
  8
RING9
 62
     7
  6
CONTINUOUS
 10
8.431427
 20
12.041893
 30
0.000000
 11
9.761975
 21
12.041893
 31
0.000000
  0
LINE
  8
RING9
 62
     7
  6
CONTINUOUS
 10
8.106497
 20
11.351892
 30
0.000000
 11
9.761975
 21
11.351892
 31
0.000000
  0
LINE
  8
RING9
 62
     7
  6
CONTINUOUS
 10
8.106385
 20
10.851892
 30
0.000000
 11
9.761975
 21
10.851892
 31
0.000000
  0
LINE
  8
RING9
 62
     7
  6
CONTINUOUS
 10
7.612092
 20
11.101892
 30
0.000000
 11
9.761975
 21
11.101892
 31
0.000000
  0
LINE
  8
RING9
 62
     7
  6
CONTINUOUS
 10
9.575298
 20
9.476889
 30
0.000000
 11
8.421520
 21
9.476889
 31
0.000000
  0
LINE
  8
ADC9
 62
     7
  6
CONTINUOUS
 10
9.575298
 20
9.476889
 30
0.000000
 11
9.761975
 21
9.476889
 31
0.000000
  0
LINE
  8
RING9
 62
     7
  6
CONTINUOUS
 10
9.575298
 20
5.476898
 30
0.000000
 11
8.418926
 21
5.476898
 31
0.000000
  0
LINE
  8
ADC9
 62
     7
  6
CONTINUOUS
 10
9.575298
 20
5.476898
 30
0.000000
 11
9.761975
 21
5.476898
 31
0.000000
  0
LINE
  8
RING9
 62
     7
  6
CONTINUOUS
 10
8.777775
 20
3.479892
 30
0.000000
 11
9.761975
 21
3.479892
 31
0.000000
  0
LINE
  8
RING9
 62
     7
  6
CONTINUOUS
 10
7.875211
 20
3.276894
 30
0.000000
 11
9.761975
 21
3.276894
 31
0.000000
  0
LINE
  8
RING9
 62
     7
  6
CONTINUOUS
 10
8.777775
 20
3.073895
 30
0.000000
 11
9.761975
 21
3.073895
 31
0.000000
  0
LINE
  8
RING9
 62
     7
  6
CONTINUOUS
 10
8.432572
 20
2.911894
 30
0.000000
 11
9.761975
 21
2.911894
 31
0.000000
  0
LINE
  8
DIEM
 62
     7
  6
CONTINUOUS
 10
7.604299
 20
12.806202
 30
0.000000
 11
7.496045
 21
12.743702
 31
0.000000
  0
LINE
  8
DIEM
 62
     7
  6
CONTINUOUS
 10
7.604299
 20
12.806202
 30
0.000000
 11
7.496045
 21
12.868702
 31
0.000000
  0
LINE
  8
DIEM
 62
     7
  6
CONTINUOUS
 10
8.229299
 20
12.806202
 30
0.000000
 11
8.337552
 21
12.868702
 31
0.000000
  0
LINE
  8
DIEM
 62
     7
  6
CONTINUOUS
 10
8.229299
 20
12.806202
 30
0.000000
 11
8.337552
 21
12.743702
 31
0.000000
  0
LINE
  8
DIEM
 62
     7
  6
CONTINUOUS
 10
7.604299
 20
13.929587
 30
0.000000
 11
7.604299
 21
12.556202
 31
0.000000
  0
LINE
  8
DIEM
 62
     7
  6
CONTINUOUS
 10
8.229299
 20
13.929587
 30
0.000000
 11
8.229299
 21
12.556202
 31
0.000000
  0
TEXT
  8
DIEM
 62
     7
 10
8.547662
 20
12.743177
 30
0.000000
 40
0.125000
  1
5/8"
  0
LINE
  8
DIEM
 62
     7
  6
CONTINUOUS
 10
7.604299
 20
12.806202
 30
0.000000
 11
7.354299
 21
12.806202
 31
0.000000
  0
LINE
  8
DIEM
 62
     7
  6
CONTINUOUS
 10
8.229299
 20
12.806202
 30
0.000000
 11
8.479299
 21
12.806202
 31
0.000000
  0
LINE
  8
DIEM
 62
     7
  6
CONTINUOUS
 10
8.110014
 20
12.162672
 30
0.000000
 11
8.001761
 21
12.100172
 31
0.000000
  0
LINE
  8
DIEM
 62
     7
  6
CONTINUOUS
 10
8.110014
 20
12.162672
 30
0.000000
 11
8.001761
 21
12.225172
 31
0.000000
  0
LINE
  8
DIEM
 62
     7
  6
CONTINUOUS
 10
8.229915
 20
12.162672
 30
0.000000
 11
8.338168
 21
12.225172
 31
0.000000
  0
LINE
  8
DIEM
 62
     7
  6
CONTINUOUS
 10
8.229915
 20
12.162672
 30
0.000000
 11
8.338168
 21
12.100172
 31
0.000000
  0
LINE
  8
DIEM
 62
     7
  6
CONTINUOUS
 10
8.110014
 20
11.789477
 30
0.000000
 11
8.110014
 21
12.412672
 31
0.000000
  0
LINE
  8
DIEM
 62
     7
  6
CONTINUOUS
 10
8.229915
 20
11.789477
 30
0.000000
 11
8.229915
 21
12.412672
 31
0.000000
  0
TEXT
  8
DIEM
 62
     7
 10
8.533611
 20
12.099764
 30
0.000000
 40
0.125000
  1
1/8"
  0
LINE
  8
DIEM
 62
     7
  6
CONTINUOUS
 10
8.110014
 20
12.162672
 30
0.000000
 11
7.860014
 21
12.162672
 31
0.000000
  0
LINE
  8
DIEM
 62
     7
  6
CONTINUOUS
 10
8.229915
 20
12.162672
 30
0.000000
 11
8.479915
 21
12.162672
 31
0.000000
  0
LINE
  8
DIEM
 62
     7
  6
CONTINUOUS
 10
8.106914
 20
12.484437
 30
0.000000
 11
8.215167
 21
12.546937
 31
0.000000
  0
LINE
  8
DIEM
 62
     7
  6
CONTINUOUS
 10
8.106914
 20
12.484437
 30
0.000000
 11
8.215167
 21
12.421937
 31
0.000000
  0
LINE
  8
DIEM
 62
     7
  6
CONTINUOUS
 10
9.761975
 20
12.484437
 30
0.000000
 11
9.653722
 21
12.421937
 31
0.000000
  0
LINE
  8
DIEM
 62
     7
  6
CONTINUOUS
 10
9.761975
 20
12.484437
 30
0.000000
 11
9.653722
 21
12.546937
 31
0.000000
  0
LINE
  8
DIEM
 62
     7
  6
CONTINUOUS
 10
8.106914
 20
11.789393
 30
0.000000
 11
8.106914
 21
12.734437
 31
0.000000
  0
LINE
  8
DIEM
 62
     7
  6
CONTINUOUS
 10
9.761975
 20
12.104393
 30
0.000000
 11
9.761975
 21
12.734437
 31
0.000000
  0
TEXT
  8
DIEM
 62
     7
 10
8.730633
 20
12.421631
 30
0.000000
 40
0.125000
  1
1.655"
  0
LINE
  8
DIEM
 62
     7
  6
CONTINUOUS
 10
8.106914
 20
12.484437
 30
0.000000
 11
8.699383
 21
12.484437
 31
0.000000
  0
LINE
  8
DIEM
 62
     7
  6
CONTINUOUS
 10
9.169506
 20
12.484437
 30
0.000000
 11
9.761975
 21
12.484437
 31
0.000000
  0
LINE
  8
DIEM
 62
     7
  6
CONTINUOUS
 10
9.761975
 20
4.654009
 30
0.000000
 11
9.798992
 21
4.773402
 31
0.000000
  0
LINE
  8
DIEM
 62
     7
  6
CONTINUOUS
 10
9.761975
 20
4.654009
 30
0.000000
 11
9.883881
 21
4.681648
 31
0.000000
  0
LINE
  8
DIEM
 62
     7
  6
CONTINUOUS
 10
9.761975
 20
4.654009
 30
0.000000
 11
10.114038
 21
4.979730
 31
0.000000
  0
LINE
  8
DIEM
 62
     7
  6
CONTINUOUS
 10
10.114038
 20
4.979730
 30
0.000000
 11
10.614038
 21
4.979730
 31
0.000000
  0
TEXT
  8
DIEM
 62
     7
 10
10.676539
 20
4.917230
 30
0.000000
 40
0.125000
  1
RING DIAMETERS AND ALL
  0
TEXT
  8
DIEM
 62
     7
 10
10.676539
 20
4.729730
 30
0.000000
 40
0.125000
  1
DRILLING TAPPING AND
  0
TEXT
  8
DIEM
 62
     7
 10
10.676539
 20
4.542230
 30
0.000000
 40
0.125000
  1
COUNTERBOREING AS PER
  0
TEXT
  8
DIEM
 62
     7
 10
10.676539
 20
4.354730
 30
0.000000
 40
0.125000
  1
STANDARD 9" RING PRINT
  0
TEXT
  8
DIEM
 62
     7
 10
13.437840
 20
10.415552
 30
0.000000
 40
0.125000
  1
NOTE D-- DRILL 17/32" COUNTER SINK TO SUIT 
  0
TEXT
  8
DIEM
 62
     7
 10
13.437840
 20
10.228052
 30
0.000000
 40
0.125000
  1
1/2"-13 FLAT HEAD BOLT
  0
POINT
  8
DIEM
 62
     7
 10
13.437840
 20
10.603052
 30
0.000000
  0
TEXT
  8
DIEM
 62
     7
 10
13.437840
 20
10.790552
 30
0.000000
 40
0.125000
  1
NOTE C-- DRILL 11/32" 5/8"DEEP
  0
TEXT
  8
DIEM
 62
     7
 10
13.437840
 20
10.603053
 30
0.000000
 40
0.125000
  1
TAP 10mm x 1.25 x 1/2" DEEP
  0
TEXT
  8
DIEM
 62
     7
 10
13.437840
 20
10.040552
 30
0.000000
 40
0.125000
  1
NOTE E-- SUPPLY FOUR 3/8-16 x 1 1/2" ALLEN
  0
TEXT
  8
DIEM
 62
     7
 10
13.437840
 20
9.853052
 30
0.000000
 40
0.125000
  1
HEAD CAP SCREWS FOR RING TO MOTOR
  0
TEXT
  8
DIEM
 62
     7
 10
13.437840
 20
9.665552
 30
0.000000
 40
0.125000
  1
ASSEMBLY
  0
TEXT
  8
DIEM
 62
     7
 10
13.420297
 20
12.009920
 30
0.000000
 40
0.125000
  1
SUZUKI SAMURAI TO ADVANCED DC 9" MOTOR
  0
TEXT
  8
DIEM
 62
     7
 10
13.420297
 20
11.822420
 30
0.000000
 40
0.125000
  1
WITH NON STANDARD 9" RING
  0
ENDSEC
  0
EOF
