  0
SECTION
  2
HEADER
  9
$ACADVER
  1
AC1015
  9
$ACADMAINTVER
 70
     6
  9
$DWGCODEPAGE
  3
ANSI_1252
  9
$INSBASE
 10
0.0
 20
0.0
 30
0.0
  9
$EXTMIN
 10
1.000000000000000E+20
 20
1.000000000000000E+20
 30
1.000000000000000E+20
  9
$EXTMAX
 10
-1.000000000000000E+20
 20
-1.000000000000000E+20
 30
-1.000000000000000E+20
  9
$LIMMIN
 10
0.0
 20
0.0
  9
$LIMMAX
 10
12.0
 20
9.0
  9
$ORTHOMODE
 70
     0
  9
$REGENMODE
 70
     1
  9
$FILLMODE
 70
     1
  9
$QTEXTMODE
 70
     0
  9
$MIRRTEXT
 70
     1
  9
$LTSCALE
 40
1.0
  9
$ATTMODE
 70
     1
  9
$TEXTSIZE
 40
0.2
  9
$TRACEWID
 40
0.05
  9
$TEXTSTYLE
  7
Standard
  9
$CLAYER
  8
0
  9
$CELTYPE
  6
ByLayer
  9
$CECOLOR
 62
   256
  9
$CELTSCALE
 40
1.0
  9
$DISPSILH
 70
     0
  9
$DIMSCALE
 40
1.0
  9
$DIMASZ
 40
0.18
  9
$DIMEXO
 40
0.0625
  9
$DIMDLI
 40
0.38
  9
$DIMRND
 40
0.0
  9
$DIMDLE
 40
0.0
  9
$DIMEXE
 40
0.18
  9
$DIMTP
 40
0.0
  9
$DIMTM
 40
0.0
  9
$DIMTXT
 40
0.18
  9
$DIMCEN
 40
0.09
  9
$DIMTSZ
 40
0.0
  9
$DIMTOL
 70
     0
  9
$DIMLIM
 70
     0
  9
$DIMTIH
 70
     1
  9
$DIMTOH
 70
     1
  9
$DIMSE1
 70
     0
  9
$DIMSE2
 70
     0
  9
$DIMTAD
 70
     0
  9
$DIMZIN
 70
     0
  9
$DIMBLK
  1

  9
$DIMASO
 70
     1
  9
$DIMSHO
 70
     1
  9
$DIMPOST
  1

  9
$DIMAPOST
  1

  9
$DIMALT
 70
     0
  9
$DIMALTD
 70
     2
  9
$DIMALTF
 40
25.4
  9
$DIMLFAC
 40
1.0
  9
$DIMTOFL
 70
     0
  9
$DIMTVP
 40
0.0
  9
$DIMTIX
 70
     0
  9
$DIMSOXD
 70
     0
  9
$DIMSAH
 70
     0
  9
$DIMBLK1
  1

  9
$DIMBLK2
  1

  9
$DIMSTYLE
  2
Standard
  9
$DIMCLRD
 70
     0
  9
$DIMCLRE
 70
     0
  9
$DIMCLRT
 70
     0
  9
$DIMTFAC
 40
1.0
  9
$DIMGAP
 40
0.09
  9
$DIMJUST
 70
     0
  9
$DIMSD1
 70
     0
  9
$DIMSD2
 70
     0
  9
$DIMTOLJ
 70
     1
  9
$DIMTZIN
 70
     0
  9
$DIMALTZ
 70
     0
  9
$DIMALTTZ
 70
     0
  9
$DIMUPT
 70
     0
  9
$DIMDEC
 70
     4
  9
$DIMTDEC
 70
     4
  9
$DIMALTU
 70
     2
  9
$DIMALTTD
 70
     2
  9
$DIMTXSTY
  7
Standard
  9
$DIMAUNIT
 70
     0
  9
$DIMADEC
 70
     0
  9
$DIMALTRND
 40
0.0
  9
$DIMAZIN
 70
     0
  9
$DIMDSEP
 70
    46
  9
$DIMATFIT
 70
     3
  9
$DIMFRAC
 70
     0
  9
$DIMLDRBLK
  1

  9
$DIMLUNIT
 70
     2
  9
$DIMLWD
 70
    -2
  9
$DIMLWE
 70
    -2
  9
$DIMTMOVE
 70
     0
  9
$LUNITS
 70
     2
  9
$LUPREC
 70
     4
  9
$SKETCHINC
 40
0.1
  9
$FILLETRAD
 40
0.5
  9
$AUNITS
 70
     0
  9
$AUPREC
 70
     0
  9
$MENU
  1
.
  9
$ELEVATION
 40
0.0
  9
$PELEVATION
 40
0.0
  9
$THICKNESS
 40
0.0
  9
$LIMCHECK
 70
     0
  9
$CHAMFERA
 40
0.5
  9
$CHAMFERB
 40
0.5
  9
$CHAMFERC
 40
1.0
  9
$CHAMFERD
 40
0.0
  9
$SKPOLY
 70
     0
  9
$TDCREATE
 40
2454725.689010995
  9
$TDUCREATE
 40
2454725.980677662
  9
$TDUPDATE
 40
2454725.689011007
  9
$TDUUPDATE
 40
2454725.980677674
  9
$TDINDWG
 40
0.0000000116
  9
$TDUSRTIMER
 40
0.0000000116
  9
$USRTIMER
 70
     1
  9
$ANGBASE
 50
0.0
  9
$ANGDIR
 70
     0
  9
$PDMODE
 70
     2
  9
$PDSIZE
 40
-2.0
  9
$PLINEWID
 40
0.0
  9
$SPLFRAME
 70
     0
  9
$SPLINETYPE
 70
     6
  9
$SPLINESEGS
 70
     8
  9
$HANDSEED
  5
1F5
  9
$SURFTAB1
 70
     6
  9
$SURFTAB2
 70
     6
  9
$SURFTYPE
 70
     6
  9
$SURFU
 70
     6
  9
$SURFV
 70
     6
  9
$UCSBASE
  2

  9
$UCSNAME
  2

  9
$UCSORG
 10
0.0
 20
0.0
 30
0.0
  9
$UCSXDIR
 10
1.0
 20
0.0
 30
0.0
  9
$UCSYDIR
 10
0.0
 20
1.0
 30
0.0
  9
$UCSORTHOREF
  2

  9
$UCSORTHOVIEW
 70
     0
  9
$UCSORGTOP
 10
0.0
 20
0.0
 30
0.0
  9
$UCSORGBOTTOM
 10
0.0
 20
0.0
 30
0.0
  9
$UCSORGLEFT
 10
0.0
 20
0.0
 30
0.0
  9
$UCSORGRIGHT
 10
0.0
 20
0.0
 30
0.0
  9
$UCSORGFRONT
 10
0.0
 20
0.0
 30
0.0
  9
$UCSORGBACK
 10
0.0
 20
0.0
 30
0.0
  9
$PUCSBASE
  2

  9
$PUCSNAME
  2

  9
$PUCSORG
 10
0.0
 20
0.0
 30
0.0
  9
$PUCSXDIR
 10
1.0
 20
0.0
 30
0.0
  9
$PUCSYDIR
 10
0.0
 20
1.0
 30
0.0
  9
$PUCSORTHOREF
  2

  9
$PUCSORTHOVIEW
 70
     0
  9
$PUCSORGTOP
 10
0.0
 20
0.0
 30
0.0
  9
$PUCSORGBOTTOM
 10
0.0
 20
0.0
 30
0.0
  9
$PUCSORGLEFT
 10
0.0
 20
0.0
 30
0.0
  9
$PUCSORGRIGHT
 10
0.0
 20
0.0
 30
0.0
  9
$PUCSORGFRONT
 10
0.0
 20
0.0
 30
0.0
  9
$PUCSORGBACK
 10
0.0
 20
0.0
 30
0.0
  9
$USERI1
 70
     0
  9
$USERI2
 70
     0
  9
$USERI3
 70
     0
  9
$USERI4
 70
     0
  9
$USERI5
 70
     0
  9
$USERR1
 40
0.0
  9
$USERR2
 40
0.0
  9
$USERR3
 40
0.0
  9
$USERR4
 40
0.0
  9
$USERR5
 40
0.0
  9
$WORLDVIEW
 70
     1
  9
$SHADEDGE
 70
     3
  9
$SHADEDIF
 70
    70
  9
$TILEMODE
 70
     1
  9
$MAXACTVP
 70
    64
  9
$PINSBASE
 10
0.0
 20
0.0
 30
0.0
  9
$PLIMCHECK
 70
     0
  9
$PEXTMIN
 10
1.000000000000000E+20
 20
1.000000000000000E+20
 30
1.000000000000000E+20
  9
$PEXTMAX
 10
-1.000000000000000E+20
 20
-1.000000000000000E+20
 30
-1.000000000000000E+20
  9
$PLIMMIN
 10
0.0
 20
0.0
  9
$PLIMMAX
 10
12.0
 20
9.0
  9
$UNITMODE
 70
     0
  9
$VISRETAIN
 70
     1
  9
$PLINEGEN
 70
     0
  9
$PSLTSCALE
 70
     1
  9
$TREEDEPTH
 70
  3020
  9
$CMLSTYLE
  2
Standard
  9
$CMLJUST
 70
     0
  9
$CMLSCALE
 40
1.0
  9
$PROXYGRAPHICS
 70
     1
  9
$MEASUREMENT
 70
     0
  9
$CELWEIGHT
370
    -1
  9
$ENDCAPS
280
     0
  9
$JOINSTYLE
280
     0
  9
$LWDISPLAY
290
     1
  9
$INSUNITS
 70
     1
  9
$HYPERLINKBASE
  1

  9
$STYLESHEET
  1

  9
$XEDIT
290
     1
  9
$CEPSNTYPE
380
     0
  9
$PSTYLEMODE
290
     1
  9
$FINGERPRINTGUID
  2
{FAEB1C30-E019-11D5-929B-00C0DF256EC4}
  9
$VERSIONGUID
  2
{FAEB1C32-E019-11D5-929B-00C0DF256EC4}
  9
$EXTNAMES
290
     1
  9
$PSVPSCALE
 40
0.0
  9
$OLESTARTUP
290
     0
  0
ENDSEC
  0
SECTION
  2
CLASSES
  0
CLASS
  1
ACDBDICTIONARYWDFLT
  2
AcDbDictionaryWithDefault
  3
ObjectDBX Classes
 90
        0
280
     0
281
     0
  0
CLASS
  1
ACDBPLACEHOLDER
  2
AcDbPlaceHolder
  3
ObjectDBX Classes
 90
        0
280
     0
281
     0
  0
CLASS
  1
LAYOUT
  2
AcDbLayout
  3
ObjectDBX Classes
 90
        0
280
     0
281
     0
  0
ENDSEC
  0
SECTION
  2
TABLES
  0
TABLE
  2
VPORT
  5
8
330
0
100
AcDbSymbolTable
 70
     1
  0
VPORT
  5
29
330
8
100
AcDbSymbolTableRecord
100
AcDbViewportTableRecord
  2
*Active
 70
     0
 10
0.0
 20
0.0
 11
1.0
 21
1.0
 12
10.42990654205607
 22
4.5
 13
0.0
 23
0.0
 14
0.5
 24
0.5
 15
0.5
 25
0.5
 16
0.0
 26
0.0
 36
1.0
 17
0.0
 27
0.0
 37
0.0
 40
9.0
 41
1.972972972850329
 42
50.0
 43
0.0
 44
0.0
 50
0.0
 51
0.0
 71
     0
 72
   100
 73
     1
 74
     3
 75
     0
 76
     0
 77
     0
 78
     0
281
     0
 65
     1
110
0.0
120
0.0
130
0.0
111
1.0
121
0.0
131
0.0
112
0.0
122
1.0
132
0.0
 79
     0
146
0.0
  0
ENDTAB
  0
TABLE
  2
LTYPE
  5
5
330
0
100
AcDbSymbolTable
 70
     4
  0
LTYPE
  5
14
330
5
100
AcDbSymbolTableRecord
100
AcDbLinetypeTableRecord
  2
ByBlock
 70
     0
  3

 72
    65
 73
     0
 40
0.0
  0
LTYPE
  5
15
330
5
100
AcDbSymbolTableRecord
100
AcDbLinetypeTableRecord
  2
ByLayer
 70
     0
  3

 72
    65
 73
     0
 40
0.0
  0
LTYPE
  5
16
330
5
100
AcDbSymbolTableRecord
100
AcDbLinetypeTableRecord
  2
Continuous
 70
     0
  3
Solid line
 72
    65
 73
     0
 40
0.0
  0
LTYPE
  5
3A
330
5
100
AcDbSymbolTableRecord
100
AcDbLinetypeTableRecord
  2
GC   6
 70
     0
  3
_____  _  __________  _  _____
 72
    65
 73
     4
 40
0.5
 49
0.3
 74
     0
 49
-0.075
 74
     0
 49
0.05
 74
     0
 49
-0.075
 74
     0
  0
LTYPE
  5
C8
330
5
100
AcDbSymbolTableRecord
100
AcDbLinetypeTableRecord
  2
CENTERD
 70
     0
  3
_____ _ _____ _____ _ _____
 72
    65
 73
     4
 40
0.4844
 49
0.2969
 74
     0
 49
-0.0625
 74
     0
 49
0.0625
 74
     0
 49
-0.0625
 74
     0
  0
LTYPE
  5
1A7
330
5
100
AcDbSymbolTableRecord
100
AcDbLinetypeTableRecord
  2
CENTER2
 70
     0
  3
___ _ ___ _ ___ _ ___ _ ___ _ ___ _ ___ _
 72
    65
 73
     4
 40
0.5
 49
0.3
 74
     0
 49
-0.075
 74
     0
 49
0.05
 74
     0
 49
-0.075
 74
     0
  0
ENDTAB
  0
TABLE
  2
LAYER
  5
2
330
0
100
AcDbSymbolTable
 70
    10
  0
LAYER
  5
10
330
2
100
AcDbSymbolTableRecord
100
AcDbLayerTableRecord
  2
0
 70
     0
 62
     7
  6
Continuous
370
    -3
390
F
  0
LAYER
  5
2E
330
2
100
AcDbSymbolTableRecord
100
AcDbLayerTableRecord
  2
HUB
 70
     0
 62
     7
  6
Continuous
370
    -3
390
F
  0
LAYER
  5
6A
330
2
100
AcDbSymbolTableRecord
100
AcDbLayerTableRecord
  2
DIMENSIONS
 70
     0
 62
     7
  6
Continuous
370
    -3
390
F
  0
LAYER
  5
7F
330
2
100
AcDbSymbolTableRecord
100
AcDbLayerTableRecord
  2
PLATE
 70
     0
 62
     7
  6
Continuous
370
    -3
390
F
  0
LAYER
  5
93
330
2
100
AcDbSymbolTableRecord
100
AcDbLayerTableRecord
  2
FLYWHEEL
 70
     0
 62
     7
  6
Continuous
370
    -3
390
F
  0
LAYER
  5
FB
330
2
100
AcDbSymbolTableRecord
100
AcDbLayerTableRecord
  2
RING
 70
     0
 62
     7
  6
Continuous
370
    -3
390
F
  0
LAYER
  5
186
330
2
100
AcDbSymbolTableRecord
100
AcDbLayerTableRecord
  2
ADC 9 MOTOR
 70
     0
 62
     7
  6
Continuous
370
    -3
390
F
  0
LAYER
  5
1BB
330
2
100
AcDbSymbolTableRecord
100
AcDbLayerTableRecord
  2
BUSHING
 70
     0
 62
     7
  6
Continuous
370
    -3
390
F
  0
LAYER
  5
1CE
330
2
100
AcDbSymbolTableRecord
100
AcDbLayerTableRecord
  2
WARP 9 MOTOR
 70
     0
 62
     7
  6
Continuous
370
    -3
390
F
  0
LAYER
  5
1D6
330
2
100
AcDbSymbolTableRecord
100
AcDbLayerTableRecord
  2
HARDWARE LIST
 70
     0
 62
     7
  6
Continuous
370
    -3
390
F
  0
ENDTAB
  0
TABLE
  2
STYLE
  5
3
330
0
100
AcDbSymbolTable
 70
     2
  0
STYLE
  5
11
330
3
100
AcDbSymbolTableRecord
100
AcDbTextStyleTableRecord
  2
Standard
 70
     0
 40
0.0
 41
1.0
 50
0.0
 71
     0
 42
0.2
  3
txt
  4

  0
STYLE
  5
6E
330
3
100
AcDbSymbolTableRecord
100
AcDbTextStyleTableRecord
  2
ENGINEER
 70
     0
 40
0.2
 41
1.0
 50
0.0
 71
     0
 42
0.2
  3
ENGINEER.SHX
  4

1001
ACAD
1000
ENGINEER
1071
       34
  0
ENDTAB
  0
TABLE
  2
VIEW
  5
6
330
0
100
AcDbSymbolTable
 70
     0
  0
ENDTAB
  0
TABLE
  2
UCS
  5
7
330
0
100
AcDbSymbolTable
 70
     0
  0
ENDTAB
  0
TABLE
  2
APPID
  5
9
330
0
100
AcDbSymbolTable
 70
     1
  0
APPID
  5
12
330
9
100
AcDbSymbolTableRecord
100
AcDbRegAppTableRecord
  2
ACAD
 70
     0
  0
ENDTAB
  0
TABLE
  2
DIMSTYLE
  5
A
330
0
100
AcDbSymbolTable
 70
     1
100
AcDbDimStyleTable
  0
DIMSTYLE
105
27
330
A
100
AcDbSymbolTableRecord
100
AcDbDimStyleTableRecord
  2
Standard
 70
     0
340
11
  0
ENDTAB
  0
TABLE
  2
BLOCK_RECORD
  5
1
330
0
100
AcDbSymbolTable
 70
     5
  0
BLOCK_RECORD
  5
1F
330
1
100
AcDbSymbolTableRecord
100
AcDbBlockTableRecord
  2
*Model_Space
340
22
  0
BLOCK_RECORD
  5
1B
330
1
100
AcDbSymbolTableRecord
100
AcDbBlockTableRecord
  2
*Paper_Space
340
1E
  0
BLOCK_RECORD
  5
23
330
1
100
AcDbSymbolTableRecord
100
AcDbBlockTableRecord
  2
*Paper_Space0
340
26
  0
BLOCK_RECORD
  5
2A
330
1
100
AcDbSymbolTableRecord
100
AcDbBlockTableRecord
  2
STD_BUSHING_HOLE_BOTTOM
340
0
102
{BLKREFS
331
1BA
102
}
  0
BLOCK_RECORD
  5
66
330
1
100
AcDbSymbolTableRecord
100
AcDbBlockTableRecord
  2
DIA9RLDR
340
0
102
{BLKREFS
331
1BC
102
}
  0
BLOCK_RECORD
  5
71
330
1
100
AcDbSymbolTableRecord
100
AcDbBlockTableRecord
  2
DRCB9RLR
340
0
102
{BLKREFS
331
1BD
102
}
  0
BLOCK_RECORD
  5
7B
330
1
100
AcDbSymbolTableRecord
100
AcDbBlockTableRecord
  2
WARP9_DRIVE_END_SIDE
340
0
102
{BLKREFS
331
1CD
102
}
  0
ENDTAB
  0
ENDSEC
  0
SECTION
  2
BLOCKS
  0
BLOCK
  5
20
330
1F
100
AcDbEntity
  8
0
100
AcDbBlockBegin
  2
*Model_Space
 70
     0
 71
     0
 10
0.0
 20
0.0
 30
0.0
  3
*Model_Space
  1

  0
ENDBLK
  5
21
330
1F
100
AcDbEntity
  8
0
100
AcDbBlockEnd
  0
BLOCK
  5
1C
330
1B
100
AcDbEntity
 67
     1
  8
0
100
AcDbBlockBegin
  2
*Paper_Space
 70
     0
 71
     0
 10
0.0
 20
0.0
 30
0.0
  3
*Paper_Space
  1

  0
ENDBLK
  5
1D
330
1B
100
AcDbEntity
 67
     1
  8
0
100
AcDbBlockEnd
  0
BLOCK
  5
24
330
23
100
AcDbEntity
  8
0
100
AcDbBlockBegin
  2
*Paper_Space0
 70
     0
 71
     0
 10
0.0
 20
0.0
 30
0.0
  3
*Paper_Space0
  1

  0
ENDBLK
  5
25
330
23
100
AcDbEntity
  8
0
100
AcDbBlockEnd
  0
BLOCK
  5
2B
330
2A
100
AcDbEntity
  8
0
100
AcDbBlockBegin
  2
STD_BUSHING_HOLE_BOTTOM
 70
     0
 71
     0
 10
0.0
 20
0.0
 30
0.0
  3
STD_BUSHING_HOLE_BOTTOM
  1

  0
POINT
  5
2D
330
2A
100
AcDbEntity
  8
HUB
  6
Continuous
 62
     1
370
    18
100
AcDbPoint
 10
0.0
 20
0.0
 30
0.0
  0
POINT
  5
2F
330
2A
100
AcDbEntity
  8
HUB
  6
Continuous
 62
    93
370
    18
100
AcDbPoint
 10
0.0
 20
0.0
 30
0.0
  0
POINT
  5
30
330
2A
100
AcDbEntity
  8
HUB
  6
Continuous
 62
    93
370
    18
100
AcDbPoint
 10
0.0
 20
0.0
 30
0.0
  0
LINE
  5
31
330
2A
100
AcDbEntity
  8
HUB
  6
Continuous
 62
    93
370
    18
100
AcDbLine
 10
0.0
 20
0.0
 30
0.0
 11
0.0
 21
0.8125
 31
0.0
  0
POINT
  5
32
330
2A
100
AcDbEntity
  8
HUB
  6
Continuous
 62
    93
370
    18
100
AcDbPoint
 10
1.125320434570313
 20
-0.703108310699463
 30
0.0
  0
POINT
  5
33
330
2A
100
AcDbEntity
  8
HUB
  6
Continuous
 62
    93
370
    18
100
AcDbPoint
 10
1.125320434570313
 20
-0.703108310699463
 30
0.0
  0
POINT
  5
34
330
2A
100
AcDbEntity
  8
HUB
  6
Continuous
 62
    93
370
    18
100
AcDbPoint
 10
1.125328063964844
 20
-0.703108310699463
 30
0.0
  0
POINT
  5
35
330
2A
100
AcDbEntity
  8
HUB
  6
Continuous
 62
    93
370
    18
100
AcDbPoint
 10
1.125328063964844
 20
-0.703108310699463
 30
0.0
  0
POINT
  5
36
330
2A
100
AcDbEntity
  8
HUB
  6
Continuous
 62
    93
370
    18
100
AcDbPoint
 10
0.1238594055175781
 20
-0.7040276527404785
 30
0.0
  0
POINT
  5
37
330
2A
100
AcDbEntity
  8
HUB
  6
Continuous
 62
    93
370
    18
100
AcDbPoint
 10
0.2488594055175781
 20
-0.7040276527404785
 30
0.0
  0
POINT
  5
38
330
2A
100
AcDbEntity
  8
HUB
  6
Continuous
 62
    93
370
    18
100
AcDbPoint
 10
0.2488594055175781
 20
-0.7040276527404785
 30
0.0
  0
LINE
  5
39
330
2A
100
AcDbEntity
  8
HUB
  6
GC   6
 62
    93
370
    18
100
AcDbLine
 10
0.1238594055175781
 20
-0.7040276527404785
 30
0.0
 11
0.1238594055175781
 21
-0.7587275505065918
 31
0.0
  0
LINE
  5
3B
330
2A
100
AcDbEntity
  8
HUB
  6
GC   6
 62
    93
370
    18
100
AcDbLine
 10
0.1238594055175781
 20
-0.7040276527404785
 30
0.0
 11
0.1238594055175781
 21
-0.6493277549743652
 31
0.0
  0
LINE
  5
3C
330
2A
100
AcDbEntity
  8
HUB
  6
GC   6
 62
    93
370
    18
100
AcDbLine
 10
0.2488594055175781
 20
-0.7040276527404785
 30
0.0
 11
0.2488594055175781
 21
-0.7904143333435059
 31
0.0
  0
LINE
  5
3D
330
2A
100
AcDbEntity
  8
HUB
  6
GC   6
 62
    93
370
    18
100
AcDbLine
 10
0.2488594055175781
 20
-0.7040276527404785
 30
0.0
 11
0.2488594055175781
 21
-0.6176414489746094
 31
0.0
  0
POINT
  5
3E
330
2A
100
AcDbEntity
  8
HUB
  6
Continuous
 62
    93
370
    18
100
AcDbPoint
 10
0.4988594055175781
 20
-0.7040276527404786
 30
0.0
  0
POINT
  5
3F
330
2A
100
AcDbEntity
  8
HUB
  6
Continuous
 62
    93
370
    18
100
AcDbPoint
 10
0.3738594055175781
 20
-0.7040276527404785
 30
0.0
  0
POINT
  5
40
330
2A
100
AcDbEntity
  8
HUB
  6
Continuous
 62
    93
370
    18
100
AcDbPoint
 10
0.3738594055175781
 20
-0.7040276527404785
 30
0.0
  0
LINE
  5
41
330
2A
100
AcDbEntity
  8
HUB
  6
GC   6
 62
    93
370
    18
100
AcDbLine
 10
0.3738594055175781
 20
-0.7040276527404785
 30
0.0
 11
0.3738594055175781
 21
-0.7587275505065918
 31
0.0
  0
LINE
  5
42
330
2A
100
AcDbEntity
  8
HUB
  6
GC   6
 62
    93
370
    18
100
AcDbLine
 10
0.3738594055175781
 20
-0.7040276527404785
 30
0.0
 11
0.3738594055175781
 21
-0.6493277549743652
 31
0.0
  0
POINT
  5
43
330
2A
100
AcDbEntity
  8
HUB
  6
Continuous
 62
    93
370
    18
100
AcDbPoint
 10
0.6238594055175781
 20
-0.7040276527404786
 30
0.0
  0
LINE
  5
44
330
2A
100
AcDbEntity
  8
HUB
  6
GC   6
 62
    93
370
    18
100
AcDbLine
 10
0.6238594055175781
 20
-0.7040276527404786
 30
0.0
 11
0.6238594055175781
 21
-0.7587275505065919
 31
0.0
  0
LINE
  5
45
330
2A
100
AcDbEntity
  8
HUB
  6
GC   6
 62
    93
370
    18
100
AcDbLine
 10
0.6238594055175781
 20
-0.7040276527404786
 30
0.0
 11
0.6238594055175781
 21
-0.6493277549743654
 31
0.0
  0
POINT
  5
46
330
2A
100
AcDbEntity
  8
HUB
  6
Continuous
 62
    93
370
    18
100
AcDbPoint
 10
0.8738594055175781
 20
-0.7040276527404786
 30
0.0
  0
LINE
  5
47
330
2A
100
AcDbEntity
  8
HUB
  6
GC   6
 62
    93
370
    18
100
AcDbLine
 10
0.8738594055175781
 20
-0.7040276527404786
 30
0.0
 11
0.8738594055175781
 21
-0.7587275505065919
 31
0.0
  0
LINE
  5
48
330
2A
100
AcDbEntity
  8
HUB
  6
GC   6
 62
    93
370
    18
100
AcDbLine
 10
0.8738594055175781
 20
-0.7040276527404786
 30
0.0
 11
0.8738594055175781
 21
-0.6493277549743654
 31
0.0
  0
POINT
  5
49
330
2A
100
AcDbEntity
  8
HUB
  6
Continuous
 62
    93
370
    18
100
AcDbPoint
 10
1.123859405517578
 20
-0.7040276527404786
 30
0.0
  0
LINE
  5
4A
330
2A
100
AcDbEntity
  8
HUB
  6
GC   6
 62
    93
370
    18
100
AcDbLine
 10
1.123859405517578
 20
-0.7040276527404786
 30
0.0
 11
1.123859405517578
 21
-0.7587275505065919
 31
0.0
  0
LINE
  5
4B
330
2A
100
AcDbEntity
  8
HUB
  6
GC   6
 62
    93
370
    18
100
AcDbLine
 10
1.123859405517578
 20
-0.7040276527404786
 30
0.0
 11
1.123859405517578
 21
-0.6493277549743654
 31
0.0
  0
POINT
  5
4C
330
2A
100
AcDbEntity
  8
HUB
  6
Continuous
 62
    93
370
    18
100
AcDbPoint
 10
0.4988594055175781
 20
-0.7040276527404786
 30
0.0
  0
POINT
  5
4D
330
2A
100
AcDbEntity
  8
HUB
  6
Continuous
 62
    93
370
    18
100
AcDbPoint
 10
0.4988594055175781
 20
-0.7040276527404786
 30
0.0
  0
LINE
  5
4E
330
2A
100
AcDbEntity
  8
HUB
  6
GC   6
 62
    93
370
    18
100
AcDbLine
 10
0.4988594055175781
 20
-0.7040276527404786
 30
0.0
 11
0.4988594055175781
 21
-0.790414333343506
 31
0.0
  0
LINE
  5
4F
330
2A
100
AcDbEntity
  8
HUB
  6
GC   6
 62
    93
370
    18
100
AcDbLine
 10
0.4988594055175781
 20
-0.7040276527404786
 30
0.0
 11
0.4988594055175781
 21
-0.6176414489746095
 31
0.0
  0
POINT
  5
50
330
2A
100
AcDbEntity
  8
HUB
  6
Continuous
 62
    93
370
    18
100
AcDbPoint
 10
0.7488594055175781
 20
-0.7040276527404786
 30
0.0
  0
POINT
  5
51
330
2A
100
AcDbEntity
  8
HUB
  6
Continuous
 62
    93
370
    18
100
AcDbPoint
 10
0.7488594055175781
 20
-0.7040276527404786
 30
0.0
  0
LINE
  5
52
330
2A
100
AcDbEntity
  8
HUB
  6
GC   6
 62
    93
370
    18
100
AcDbLine
 10
0.7488594055175781
 20
-0.7040276527404786
 30
0.0
 11
0.7488594055175781
 21
-0.790414333343506
 31
0.0
  0
LINE
  5
53
330
2A
100
AcDbEntity
  8
HUB
  6
GC   6
 62
    93
370
    18
100
AcDbLine
 10
0.7488594055175781
 20
-0.7040276527404786
 30
0.0
 11
0.7488594055175781
 21
-0.6176414489746095
 31
0.0
  0
POINT
  5
54
330
2A
100
AcDbEntity
  8
HUB
  6
Continuous
 62
    93
370
    18
100
AcDbPoint
 10
0.9988594055175781
 20
-0.7040276527404786
 30
0.0
  0
POINT
  5
55
330
2A
100
AcDbEntity
  8
HUB
  6
Continuous
 62
    93
370
    18
100
AcDbPoint
 10
0.9988594055175781
 20
-0.7040276527404786
 30
0.0
  0
LINE
  5
56
330
2A
100
AcDbEntity
  8
HUB
  6
GC   6
 62
    93
370
    18
100
AcDbLine
 10
0.9988594055175781
 20
-0.7040276527404786
 30
0.0
 11
0.9988594055175781
 21
-0.790414333343506
 31
0.0
  0
LINE
  5
57
330
2A
100
AcDbEntity
  8
HUB
  6
GC   6
 62
    93
370
    18
100
AcDbLine
 10
0.9988594055175781
 20
-0.7040276527404786
 30
0.0
 11
0.9988594055175781
 21
-0.6176414489746095
 31
0.0
  0
POINT
  5
58
330
2A
100
AcDbEntity
  8
HUB
  6
Continuous
 62
    93
370
    18
100
AcDbPoint
 10
0.0
 20
0.0
 30
0.0
  0
LINE
  5
59
330
2A
100
AcDbEntity
  8
HUB
  6
Continuous
 62
    93
370
    18
100
AcDbLine
 10
0.0
 20
-0.8125
 30
0.0
 11
0.0
 21
0.0
 31
0.0
  0
LINE
  5
5A
330
2A
100
AcDbEntity
  8
HUB
  6
Continuous
 62
    93
370
    18
100
AcDbLine
 10
1.25
 20
-0.0000000000000002
 30
0.0
 11
1.25
 21
-0.9375000000000001
 31
0.0
  0
LINE
  5
5B
330
2A
100
AcDbEntity
  8
HUB
  6
Continuous
 62
    93
370
    18
100
AcDbLine
 10
1.25
 20
-0.0000000000000002
 30
0.0
 11
1.25
 21
0.9374999999999999
 31
0.0
  0
LINE
  5
5C
330
2A
100
AcDbEntity
  8
HUB
  6
Continuous
 62
    93
370
    18
100
AcDbLine
 10
0.0
 20
-0.5624914169311523
 30
0.0
 11
1.25
 21
-0.5624914169311525
 31
0.0
  0
LINE
  5
5D
330
2A
100
AcDbEntity
  8
HUB
  6
Continuous
 62
    93
370
    18
100
AcDbLine
 10
0.0
 20
-0.6171584129333496
 30
0.0
 11
1.25
 21
-0.6171584129333497
 31
0.0
  0
LINE
  5
5E
330
2A
100
AcDbEntity
  8
HUB
  6
Continuous
 62
    93
370
    18
100
AcDbLine
 10
0.0
 20
0.8125
 30
0.0
 11
1.25
 21
0.9374999999999999
 31
0.0
  0
LINE
  5
5F
330
2A
100
AcDbEntity
  8
HUB
  6
Continuous
 62
    93
370
    18
100
AcDbLine
 10
0.0
 20
-0.8125
 30
0.0
 11
1.25
 21
-0.9375000000000001
 31
0.0
  0
LINE
  5
60
330
2A
100
AcDbEntity
  8
HUB
  6
Continuous
 62
    93
370
    18
100
AcDbLine
 10
0.0
 20
-0.7890582084655762
 30
0.0
 11
1.25
 21
-0.7890582084655763
 31
0.0
  0
LINE
  5
61
330
2A
100
AcDbEntity
  8
HUB
  6
GC   6
 62
    93
370
    18
100
AcDbLine
 10
-0.0011405944824219
 20
-0.7040276527404785
 30
0.0
 11
1.25
 21
-0.7040276527404786
 31
0.0
  0
LINE
  5
62
330
2A
100
AcDbEntity
  8
HUB
  6
Continuous
 62
    93
370
    18
100
AcDbLine
 10
0.0
 20
0.5624914169311523
 30
0.0
 11
1.25
 21
0.5624914169311522
 31
0.0
  0
POINT
  5
63
330
2A
100
AcDbEntity
  8
HUB
  6
Continuous
 62
     5
370
    18
100
AcDbPoint
 10
0.0625
 20
0.0
 30
0.0
  0
HATCH
  5
64
330
2A
100
AcDbEntity
  8
HUB
  6
Continuous
 62
    93
370
    18
100
AcDbHatch
 10
0.0
 20
0.0
 30
0.0
210
0.0
220
0.0
230
1.0
  2
ANSI31
 70
     0
 71
     0
 91
        1
 92
        3
 72
     0
 73
     1
 93
        4
 10
0.0
 20
0.8125
 10
0.0
 20
0.5624914169311523
 10
1.25
 20
0.5624914169311522
 10
1.25
 20
0.9374999999999999
 97
        0
 75
     0
 76
     2
 52
90.0
 41
0.63
 77
     0
 78
     1
 53
135.0
 43
0.0
 44
0.0
 45
-0.0556846590184406
 46
-0.0556846590184406
 79
     1
 49
6300.0
 98
        0
  0
HATCH
  5
65
330
2A
100
AcDbEntity
  8
HUB
  6
Continuous
 62
    93
370
    18
100
AcDbHatch
 10
0.0
 20
0.0
 30
0.0
210
0.0
220
0.0
230
1.0
  2
ANSI31
 70
     0
 71
     0
 91
        1
 92
        3
 72
     0
 73
     1
 93
        4
 10
0.0
 20
-0.7890582084655762
 10
0.0
 20
-0.8125
 10
1.25
 20
-0.9375000000000001
 10
1.25
 20
-0.7890582084655763
 97
        0
 75
     0
 76
     2
 52
90.0
 41
0.63
 77
     0
 78
     1
 53
135.0
 43
0.0
 44
0.0
 45
-0.0556846590184406
 46
-0.0556846590184406
 79
     1
 49
6300.0
 98
        0
  0
ENDBLK
  5
2C
330
2A
100
AcDbEntity
  8
0
100
AcDbBlockEnd
  0
BLOCK
  5
67
330
66
100
AcDbEntity
  8
0
100
AcDbBlockBegin
  2
DIA9RLDR
 70
     0
 71
     0
 10
0.0
 20
0.0
 30
0.0
  3
DIA9RLDR
  1

  0
LINE
  5
69
330
66
100
AcDbEntity
  8
DIMENSIONS
  6
Continuous
 62
    93
370
    18
100
AcDbLine
 10
0.0
 20
0.0
 30
0.0
 11
0.025588199840764
 21
0.1223529485909887
 31
0.0
  0
LINE
  5
6B
330
66
100
AcDbEntity
  8
DIMENSIONS
  6
Continuous
 62
    93
370
    18
100
AcDbLine
 10
0.0
 20
0.0
 30
0.0
 11
0.1187548627650849
 21
0.0390164397356531
 31
0.0
  0
LINE
  5
6C
330
66
100
AcDbEntity
  8
DIMENSIONS
  6
Continuous
 62
    93
370
    18
100
AcDbLine
 10
0.0
 20
0.0
 30
0.0
 11
0.7548918724060059
 21
0.8439369201660156
 31
0.0
  0
LINE
  5
6D
330
66
100
AcDbEntity
  8
DIMENSIONS
  6
Continuous
 62
    93
370
    18
100
AcDbLine
 10
0.7548918724060059
 20
0.8439369201660156
 30
0.0
 11
0.8798918724060059
 21
0.8439369201660156
 31
0.0
  0
TEXT
  5
6F
330
66
100
AcDbEntity
  8
DIMENSIONS
  6
Continuous
 62
    93
370
    18
100
AcDbText
 10
0.9428918734192848
 20
0.7814369201660156
 30
0.0
 40
0.125
  1
ALL DIAMETERS AS PER
  7
ENGINEER
100
AcDbText
  0
TEXT
  5
70
330
66
100
AcDbEntity
  8
DIMENSIONS
  6
Continuous
 62
    93
370
    18
100
AcDbText
 10
0.94289231300354
 20
0.5939369201660156
 30
0.0
 40
0.125
  1
STANDARD 9" RING PRINT
  7
ENGINEER
100
AcDbText
  0
ENDBLK
  5
68
330
66
100
AcDbEntity
  8
0
100
AcDbBlockEnd
  0
BLOCK
  5
72
330
71
100
AcDbEntity
  8
0
100
AcDbBlockBegin
  2
DRCB9RLR
 70
     0
 71
     0
 10
0.0
 20
0.0
 30
0.0
  3
DRCB9RLR
  1

  0
LINE
  5
74
330
71
100
AcDbEntity
  8
DIMENSIONS
  6
Continuous
 62
    93
370
    18
100
AcDbLine
 10
0.0
 20
0.0
 30
0.0
 11
0.1249981780783798
 21
0.0006748904249196
 31
0.0
  0
LINE
  5
75
330
71
100
AcDbEntity
  8
DIMENSIONS
  6
Continuous
 62
    93
370
    18
100
AcDbLine
 10
0.0
 20
0.0
 30
0.0
 11
0.0630835581472227
 21
-0.1079141542685016
 31
0.0
  0
LINE
  5
76
330
71
100
AcDbEntity
  8
DIMENSIONS
  6
Continuous
 62
    93
370
    18
100
AcDbLine
 10
0.0
 20
0.0
 30
0.0
 11
0.8986361026763916
 21
-0.5123786926269531
 31
0.0
  0
LINE
  5
77
330
71
100
AcDbEntity
  8
DIMENSIONS
  6
Continuous
 62
    93
370
    18
100
AcDbLine
 10
0.8986361026763916
 20
-0.5123786926269531
 30
0.0
 11
1.023636102676392
 21
-0.5123786926269531
 31
0.0
  0
TEXT
  5
78
330
71
100
AcDbEntity
  8
DIMENSIONS
  6
Continuous
 62
    93
370
    18
100
AcDbText
 10
1.086636103689671
 20
-0.5748786926269531
 30
0.0
 40
0.125
  1
DRILL TAP & COUNTERBORE
  7
ENGINEER
100
AcDbText
  0
TEXT
  5
79
330
71
100
AcDbEntity
  8
DIMENSIONS
  6
Continuous
 62
    93
370
    18
100
AcDbText
 10
1.086636304855347
 20
-0.7623786926269531
 30
0.0
 40
0.125
  1
AS PER STANDARD 9" RING
  7
ENGINEER
100
AcDbText
  0
TEXT
  5
7A
330
71
100
AcDbEntity
  8
DIMENSIONS
  6
Continuous
 62
    93
370
    18
100
AcDbText
 10
1.086636304855347
 20
-0.9498786926269531
 30
0.0
 40
0.125
  1
PRINT
  7
ENGINEER
100
AcDbText
  0
ENDBLK
  5
73
330
71
100
AcDbEntity
  8
0
100
AcDbBlockEnd
  0
BLOCK
  5
7C
330
7B
100
AcDbEntity
  8
0
100
AcDbBlockBegin
  2
WARP9_DRIVE_END_SIDE
 70
     0
 71
     0
 10
0.0
 20
0.0
 30
0.0
  3
WARP9_DRIVE_END_SIDE
  1

  0
LINE
  5
7E
330
7B
100
AcDbEntity
  8
PLATE
  6
Continuous
 62
     5
370
    18
100
AcDbLine
 10
1.985699999999952
 20
4.624999999999986
 30
0.0
 11
1.985699999999952
 21
1.999999999999986
 31
0.0
  0
LINE
  5
80
330
7B
100
AcDbEntity
  8
PLATE
  6
Continuous
 62
     5
370
    18
100
AcDbLine
 10
1.485700000000009
 20
1.939999999999998
 30
0.0
 11
1.485699999999952
 21
-1.940000000000055
 31
0.0
  0
LINE
  5
81
330
7B
100
AcDbEntity
  8
PLATE
  6
Continuous
 62
     5
370
    18
100
AcDbLine
 10
3.485700000000065
 20
-4.625
 30
0.0
 11
1.985700000000065
 21
-4.625000000000014
 31
0.0
  0
LINE
  5
82
330
7B
100
AcDbEntity
  8
PLATE
  6
Continuous
 62
     5
370
    18
100
AcDbLine
 10
1.985699999999895
 20
1.999999999999986
 30
0.0
 11
1.985700000000065
 21
-4.625000000000014
 31
0.0
  0
LINE
  5
83
330
7B
100
AcDbEntity
  8
PLATE
  6
Continuous
 62
     5
370
    18
100
AcDbLine
 10
1.545700000000011
 20
-2.000000000000028
 30
0.0
 11
1.485699999999952
 21
-1.94000000000004
 31
0.0
  0
LINE
  5
84
330
7B
100
AcDbEntity
  8
PLATE
  6
Continuous
 62
     5
370
    18
100
AcDbLine
 10
1.545700000000011
 20
-2.000000000000028
 30
0.0
 11
1.985700000000009
 21
-2.000000000000014
 31
0.0
  0
LINE
  5
85
330
7B
100
AcDbEntity
  8
PLATE
  6
Continuous
 62
     5
370
    18
100
AcDbLine
 10
1.485699999999952
 20
1.939999999999984
 30
0.0
 11
1.545700000000011
 21
1.999999999999986
 31
0.0
  0
LINE
  5
86
330
7B
100
AcDbEntity
  8
PLATE
  6
Continuous
 62
     5
370
    18
100
AcDbLine
 10
1.545700000000011
 20
1.999999999999972
 30
0.0
 11
1.985699999999952
 21
1.999999999999986
 31
0.0
  0
LINE
  5
87
330
7B
100
AcDbEntity
  8
PLATE
  6
Continuous
 62
     5
370
    18
100
AcDbLine
 10
3.485699999999952
 20
4.625
 30
0.0
 11
1.985699999999952
 21
4.624999999999986
 31
0.0
  0
LINE
  5
88
330
7B
100
AcDbEntity
  8
PLATE
  6
Continuous
 62
     5
370
    18
100
AcDbLine
 10
3.485699999999952
 20
4.625
 30
0.0
 11
3.485699999999952
 21
-4.625000000000014
 31
0.0
  0
LINE
  5
89
330
7B
100
AcDbEntity
  8
PLATE
  6
Continuous
 62
     5
370
    18
100
AcDbLine
 10
0.0
 20
0.5324999999999989
 30
0.0
 11
0.0
 21
-0.5324999999999989
 31
0.0
  0
LINE
  5
8A
330
7B
100
AcDbEntity
  8
PLATE
  6
Continuous
 62
     5
370
    18
100
AcDbLine
 10
0.0299999999999727
 20
-0.5625
 30
0.0
 11
1.485699999999952
 21
-0.5624999999999858
 31
0.0
  0
LINE
  5
8B
330
7B
100
AcDbEntity
  8
PLATE
  6
Continuous
 62
     5
370
    18
100
AcDbLine
 10
0.0
 20
-0.5324999999999989
 30
0.0
 11
0.0299999999999727
 21
-0.5625
 31
0.0
  0
LINE
  5
8C
330
7B
100
AcDbEntity
  8
PLATE
  6
Continuous
 62
     5
370
    18
100
AcDbLine
 10
0.0299999999999727
 20
0.5625
 30
0.0
 11
1.485699999999952
 21
0.5625
 31
0.0
  0
LINE
  5
8D
330
7B
100
AcDbEntity
  8
PLATE
  6
Continuous
 62
     5
370
    18
100
AcDbLine
 10
0.0299999999999727
 20
0.5625
 30
0.0
 11
0.0
 21
0.5324999999999989
 31
0.0
  0
LINE
  5
8E
330
7B
100
AcDbEntity
  8
DIMENSIONS
  6
Continuous
 62
     5
370
    18
100
AcDbLine
 10
0.0299999999999727
 20
0.5625
 30
0.0
 11
0.0299999999999727
 21
-0.5625
 31
0.0
  0
TEXT
  5
8F
330
7B
100
AcDbEntity
  8
DIMENSIONS
  6
Continuous
 62
    93
370
    18
100
AcDbText
 10
2.25875645022677
 20
0.2400313497063706
 30
0.0
 40
0.125
  1
WARP9
  7
ENGINEER
100
AcDbText
  0
TEXT
  5
90
330
7B
100
AcDbEntity
  8
DIMENSIONS
  6
Continuous
 62
    93
370
    18
100
AcDbText
 10
2.25875645022677
 20
0.0525313497063706
 30
0.0
 40
0.125
  1
DRIVE END
  7
ENGINEER
100
AcDbText
  0
POINT
  5
91
330
7B
100
AcDbEntity
  8
DIMENSIONS
  6
Continuous
 62
     1
370
    18
100
AcDbPoint
 10
0.0
 20
0.0
 30
0.0
  0
ENDBLK
  5
7D
330
7B
100
AcDbEntity
  8
0
100
AcDbBlockEnd
  0
ENDSEC
  0
SECTION
  2
ENTITIES
  0
LINE
  5
92
330
1F
100
AcDbEntity
  8
FLYWHEEL
  6
Continuous
 62
    13
370
    18
100
AcDbLine
 10
-1.490000000000001
 20
-5.6875
 30
0.0
 11
-0.0000000000000009
 21
-5.6875
 31
0.0
  0
LINE
  5
94
330
1F
100
AcDbEntity
  8
FLYWHEEL
  6
Continuous
 62
    13
370
    18
100
AcDbLine
 10
-1.49
 20
5.6875
 30
0.0
 11
0.0
 21
5.6875
 31
0.0
  0
LINE
  5
95
330
1F
100
AcDbEntity
  8
FLYWHEEL
  6
Continuous
 62
    13
370
    18
100
AcDbLine
 10
-0.3670000000000009
 20
2.0
 30
0.0
 11
-0.3670000000000018
 21
-2.0
 31
0.0
  0
LINE
  5
96
330
1F
100
AcDbEntity
  8
FLYWHEEL
  6
Continuous
 62
    13
370
    18
100
AcDbLine
 10
-0.7400000000000002
 20
-4.687500000000001
 30
0.0
 11
-1.490000000000001
 21
-4.687500000000001
 31
0.0
  0
LINE
  5
97
330
1F
100
AcDbEntity
  8
FLYWHEEL
  6
Continuous
 62
    13
370
    18
100
AcDbLine
 10
-1.49
 20
4.687500000000001
 30
0.0
 11
-0.7399999999999993
 21
4.687500000000001
 31
0.0
  0
LINE
  5
98
330
1F
100
AcDbEntity
  8
FLYWHEEL
  6
Continuous
 62
    13
370
    18
100
AcDbLine
 10
-1.49
 20
5.6875
 30
0.0
 11
-1.49
 21
4.687500000000001
 31
0.0
  0
LINE
  5
99
330
1F
100
AcDbEntity
  8
FLYWHEEL
  6
Continuous
 62
    13
370
    18
100
AcDbLine
 10
-1.490000000000001
 20
-5.6875
 30
0.0
 11
-1.490000000000001
 21
-4.687500000000001
 31
0.0
  0
LINE
  5
9A
330
1F
100
AcDbEntity
  8
FLYWHEEL
  6
Continuous
 62
    13
370
    18
100
AcDbLine
 10
-0.3670000000000009
 20
2.0
 30
0.0
 11
-0.7399999999999993
 21
2.8
 31
0.0
  0
LINE
  5
9B
330
1F
100
AcDbEntity
  8
FLYWHEEL
  6
Continuous
 62
    13
370
    18
100
AcDbLine
 10
-0.3670000000000018
 20
-2.0
 30
0.0
 11
-0.7400000000000002
 21
-2.8
 31
0.0
  0
LINE
  5
9C
330
1F
100
AcDbEntity
  8
FLYWHEEL
  6
Continuous
 62
    13
370
    18
100
AcDbLine
 10
-0.7399999999999993
 20
2.8
 30
0.0
 11
-0.7399999999999993
 21
4.687500000000001
 31
0.0
  0
LINE
  5
9D
330
1F
100
AcDbEntity
  8
FLYWHEEL
  6
Continuous
 62
    13
370
    18
100
AcDbLine
 10
-0.7400000000000002
 20
-4.687500000000001
 30
0.0
 11
-0.7400000000000002
 21
-2.8
 31
0.0
  0
POINT
  5
9E
330
1F
100
AcDbEntity
  8
HUB
  6
Continuous
 62
    93
370
    18
100
AcDbPoint
 10
0.0649999999999995
 20
5.6875
 30
0.0
  0
LINE
  5
9F
330
1F
100
AcDbEntity
  8
HUB
  6
Continuous
 62
    93
370
    18
100
AcDbLine
 10
-0.0000000000000009
 20
-0.7667000000000002
 30
0.0
 11
-0.0000000000000009
 21
-1.75
 31
0.0
  0
POINT
  5
A0
330
1F
100
AcDbEntity
  8
HUB
  6
Continuous
 62
    93
370
    18
100
AcDbPoint
 10
0.5650000000000013
 20
0.0
 30
0.0
  0
POINT
  5
A1
330
1F
100
AcDbEntity
  8
HUB
  6
Continuous
 62
     1
370
    18
100
AcDbPoint
 10
0.7525000000000013
 20
0.0
 30
0.0
  0
LINE
  5
A2
330
1F
100
AcDbEntity
  8
HUB
  6
Continuous
 62
    93
370
    18
100
AcDbLine
 10
-0.1880000000000006
 20
0.7666999999999997
 30
0.0
 11
-0.1880000000000006
 21
-0.7667000000000002
 31
0.0
  0
LINE
  5
A3
330
1F
100
AcDbEntity
  8
HUB
  6
Continuous
 62
    93
370
    18
100
AcDbLine
 10
0.0
 20
0.7666999999999997
 30
0.0
 11
-0.1880000000000006
 21
0.7666999999999997
 31
0.0
  0
LINE
  5
A4
330
1F
100
AcDbEntity
  8
HUB
  6
Continuous
 62
    93
370
    18
100
AcDbLine
 10
-0.0000000000000009
 20
-0.7667000000000002
 30
0.0
 11
-0.1880000000000006
 21
-0.7667000000000002
 31
0.0
  0
LINE
  5
A5
330
1F
100
AcDbEntity
  8
HUB
  6
Continuous
 62
    93
370
    18
100
AcDbLine
 10
0.0
 20
0.7666999999999997
 30
0.0
 11
0.0
 21
1.75
 31
0.0
  0
POINT
  5
A6
330
1F
100
AcDbEntity
  8
HUB
  6
Continuous
 62
    93
370
    18
100
AcDbPoint
 10
0.0
 20
1.35825
 30
0.0
  0
LINE
  5
A7
330
1F
100
AcDbEntity
  8
HUB
  6
Continuous
 62
    93
370
    18
100
AcDbLine
 10
0.5650000000000031
 20
-0.7999996649969738
 30
0.0
 11
1.940000000000003
 21
-0.9464366414943444
 31
0.0
  0
LINE
  5
A8
330
1F
100
AcDbEntity
  8
HUB
  6
Continuous
 62
    93
370
    18
100
AcDbLine
 10
1.940000000000003
 20
0.9464367423671743
 30
0.0
 11
0.5650000000000031
 21
0.8000011444091797
 31
0.0
  0
LINE
  5
A9
330
1F
100
AcDbEntity
  8
HUB
  6
Continuous
 62
    93
370
    18
100
AcDbLine
 10
1.940000000000003
 20
-0.9464366414943444
 30
0.0
 11
1.940000000000003
 21
-1.124999523162842
 31
0.0
  0
LINE
  5
AA
330
1F
100
AcDbEntity
  8
HUB
  6
Continuous
 62
    93
370
    18
100
AcDbLine
 10
1.940000000000003
 20
1.125
 30
0.0
 11
1.940000000000003
 21
0.9464367423671743
 31
0.0
  0
POINT
  5
AB
330
1F
100
AcDbEntity
  8
HUB
  6
Continuous
 62
     1
370
    18
100
AcDbPoint
 10
0.6900000000000013
 20
0.0
 30
0.0
  0
POINT
  5
AC
330
1F
100
AcDbEntity
  8
HUB
  6
Continuous
 62
    93
370
    18
100
AcDbPoint
 10
0.5650000000000031
 20
-0.7043304443359375
 30
0.0
  0
POINT
  5
AD
330
1F
100
AcDbEntity
  8
HUB
  6
Continuous
 62
    93
370
    18
100
AcDbPoint
 10
-0.0000000000000009
 20
-0.8693523406982422
 30
0.0
  0
LINE
  5
AE
330
1F
100
AcDbEntity
  8
HUB
  6
Continuous
 62
    93
370
    18
100
AcDbLine
 10
0.5650000000000031
 20
0.8000011444091797
 30
0.0
 11
0.5650000000000031
 21
-0.7999996649969738
 31
0.0
  0
LINE
  5
AF
330
1F
100
AcDbEntity
  8
HUB
  6
Continuous
 62
    93
370
    18
100
AcDbLine
 10
-0.0000000000000009
 20
-0.7667000000000002
 30
0.0
 11
-0.0000000000000009
 21
-1.75
 31
0.0
  0
LINE
  5
B0
330
1F
100
AcDbEntity
  8
HUB
  6
Continuous
 62
    93
370
    18
100
AcDbLine
 10
-0.0000000000000009
 20
-1.75
 30
0.0
 11
0.7499999999999991
 21
-1.75
 31
0.0
  0
LINE
  5
B1
330
1F
100
AcDbEntity
  8
HUB
  6
Continuous
 62
    93
370
    18
100
AcDbLine
 10
1.940000000000003
 20
-1.124999523162842
 30
0.0
 11
0.7499999999999991
 21
-1.124999523162842
 31
0.0
  0
LINE
  5
B2
330
1F
100
AcDbEntity
  8
HUB
  6
Continuous
 62
    93
370
    18
100
AcDbLine
 10
0.7499999999999991
 20
-1.124999523162842
 30
0.0
 11
0.7499999999999991
 21
-1.75
 31
0.0
  0
LINE
  5
B3
330
1F
100
AcDbEntity
  8
HUB
  6
Continuous
 62
    93
370
    18
100
AcDbLine
 10
0.0
 20
1.75
 30
0.0
 11
0.75
 21
1.75
 31
0.0
  0
LINE
  5
B4
330
1F
100
AcDbEntity
  8
HUB
  6
Continuous
 62
    93
370
    18
100
AcDbLine
 10
0.75
 20
1.125
 30
0.0
 11
1.940000000000003
 21
1.125
 31
0.0
  0
LINE
  5
B5
330
1F
100
AcDbEntity
  8
HUB
  6
Continuous
 62
    93
370
    18
100
AcDbLine
 10
0.75
 20
1.75
 30
0.0
 11
0.75
 21
1.125
 31
0.0
  0
LINE
  5
B6
330
1F
100
AcDbEntity
  8
HUB
  6
Continuous
 62
    93
370
    18
100
AcDbLine
 10
0.0
 20
1.55525
 30
0.0
 11
0.75
 21
1.55525
 31
0.0
  0
LINE
  5
B7
330
1F
100
AcDbEntity
  8
HUB
  6
Continuous
 62
    93
370
    18
100
AcDbLine
 10
0.0
 20
1.16125
 30
0.0
 11
0.75
 21
1.16125
 31
0.0
  0
LINE
  5
B8
330
1F
100
AcDbEntity
  8
HUB
  6
Continuous
 62
    93
370
    18
100
AcDbLine
 10
0.0984250000000015
 20
1.55525
 30
0.0
 11
0.0984250000000015
 21
1.16125
 31
0.0
  0
LINE
  5
B9
330
1F
100
AcDbEntity
  8
HUB
  6
Continuous
 62
    93
370
    18
100
AcDbLine
 10
0.0492125000000012
 20
1.50825
 30
0.0
 11
0.0492125000000012
 21
1.20825
 31
0.0
  0
POINT
  5
BA
330
1F
100
AcDbEntity
  8
HUB
  6
Continuous
 62
    93
370
    18
100
AcDbPoint
 10
0.0984250000000015
 20
1.35825
 30
0.0
  0
LINE
  5
BB
330
1F
100
AcDbEntity
  8
HUB
  6
Continuous
 62
    93
370
    18
100
AcDbLine
 10
0.1968500000000031
 20
1.55525
 30
0.0
 11
0.1968500000000031
 21
1.16125
 31
0.0
  0
LINE
  5
BC
330
1F
100
AcDbEntity
  8
HUB
  6
Continuous
 62
    93
370
    18
100
AcDbLine
 10
0.1476375000000028
 20
1.50825
 30
0.0
 11
0.1476375000000028
 21
1.20825
 31
0.0
  0
LINE
  5
BD
330
1F
100
AcDbEntity
  8
HUB
  6
Continuous
 62
    93
370
    18
100
AcDbLine
 10
0.2952750000000046
 20
1.55525
 30
0.0
 11
0.2952750000000046
 21
1.16125
 31
0.0
  0
LINE
  5
BE
330
1F
100
AcDbEntity
  8
HUB
  6
Continuous
 62
    93
370
    18
100
AcDbLine
 10
0.2460625000000043
 20
1.50825
 30
0.0
 11
0.2460625000000043
 21
1.20825
 31
0.0
  0
LINE
  5
BF
330
1F
100
AcDbEntity
  8
HUB
  6
Continuous
 62
    93
370
    18
100
AcDbLine
 10
0.3937000000000062
 20
1.55525
 30
0.0
 11
0.3937000000000062
 21
1.16125
 31
0.0
  0
LINE
  5
C0
330
1F
100
AcDbEntity
  8
HUB
  6
Continuous
 62
    93
370
    18
100
AcDbLine
 10
0.3444875000000058
 20
1.50825
 30
0.0
 11
0.3444875000000058
 21
1.20825
 31
0.0
  0
LINE
  5
C1
330
1F
100
AcDbEntity
  8
HUB
  6
Continuous
 62
    93
370
    18
100
AcDbLine
 10
0.4921250000000077
 20
1.55525
 30
0.0
 11
0.4921250000000077
 21
1.16125
 31
0.0
  0
LINE
  5
C2
330
1F
100
AcDbEntity
  8
HUB
  6
Continuous
 62
    93
370
    18
100
AcDbLine
 10
0.4429125000000074
 20
1.50825
 30
0.0
 11
0.4429125000000074
 21
1.20825
 31
0.0
  0
LINE
  5
C3
330
1F
100
AcDbEntity
  8
HUB
  6
Continuous
 62
    93
370
    18
100
AcDbLine
 10
0.5905500000000092
 20
1.55525
 30
0.0
 11
0.5905500000000092
 21
1.16125
 31
0.0
  0
LINE
  5
C4
330
1F
100
AcDbEntity
  8
HUB
  6
Continuous
 62
    93
370
    18
100
AcDbLine
 10
0.5413375000000089
 20
1.50825
 30
0.0
 11
0.5413375000000089
 21
1.20825
 31
0.0
  0
LINE
  5
C5
330
1F
100
AcDbEntity
  8
HUB
  6
Continuous
 62
    93
370
    18
100
AcDbLine
 10
0.6889750000000108
 20
1.55525
 30
0.0
 11
0.6889750000000108
 21
1.16125
 31
0.0
  0
LINE
  5
C6
330
1F
100
AcDbEntity
  8
HUB
  6
Continuous
 62
    93
370
    18
100
AcDbLine
 10
0.6397625000000105
 20
1.50825
 30
0.0
 11
0.6397625000000105
 21
1.20825
 31
0.0
  0
LINE
  5
C7
330
1F
100
AcDbEntity
  8
HUB
  6
CENTERD
 62
    93
 48
0.2247600362801228
370
    18
100
AcDbLine
 10
-0.0600207607620433
 20
1.35825
 30
0.0
 11
0.8390193843584477
 21
1.35825
 31
0.0
  0
POINT
  5
C9
330
1F
100
AcDbEntity
  8
FLYWHEEL
  6
Continuous
 62
    13
370
    18
100
AcDbPoint
 10
-0.3670000000000009
 20
1.358249999999998
 30
0.0
  0
LINE
  5
CA
330
1F
100
AcDbEntity
  8
FLYWHEEL
  6
Continuous
 62
    13
370
    18
100
AcDbLine
 10
-0.3670000000000009
 20
1.150249999999998
 30
0.0
 11
0.0
 21
1.150249999999998
 31
0.0
  0
LINE
  5
CB
330
1F
100
AcDbEntity
  8
FLYWHEEL
  6
Continuous
 62
    13
370
    18
100
AcDbLine
 10
-0.3670000000000009
 20
1.566249999999998
 30
0.0
 11
0.0
 21
1.566249999999998
 31
0.0
  0
LINE
  5
CC
330
1F
100
AcDbEntity
  8
HUB
  6
GC   6
 62
    93
370
    18
100
AcDbLine
 10
0.4650000000000034
 20
-0.7043304443359375
 30
0.0
 11
-0.1896392440795864
 21
-0.7043304443359375
 31
0.0
  0
LINE
  5
CD
330
1F
100
AcDbEntity
  8
HUB
  6
Continuous
 62
    93
370
    18
100
AcDbLine
 10
-0.0000000000000009
 20
-0.8693523406982422
 30
0.0
 11
0.2099999999999982
 21
-0.8693523406982422
 31
0.0
  0
LINE
  5
CE
330
1F
100
AcDbEntity
  8
HUB
  6
Continuous
 62
    93
370
    18
100
AcDbLine
 10
0.2099999999999982
 20
-0.8058805465698242
 30
0.0
 11
0.6202197426912521
 21
-0.8058805465698242
 31
0.0
  0
LINE
  5
CF
330
1F
100
AcDbEntity
  8
HUB
  6
Continuous
 62
    93
370
    18
100
AcDbLine
 10
0.2099999999999982
 20
-0.5403304100036621
 30
0.0
 11
0.2099999999999982
 21
-0.8693523406982422
 31
0.0
  0
LINE
  5
D0
330
1F
100
AcDbEntity
  8
HUB
  6
Continuous
 62
    93
370
    18
100
AcDbLine
 10
0.2099999999999982
 20
-0.6027803421020508
 30
0.0
 11
0.5650000000000031
 21
-0.6027803421020508
 31
0.0
  0
LINE
  5
D1
330
1F
100
AcDbEntity
  8
HUB
  6
Continuous
 62
    93
370
    18
100
AcDbLine
 10
0.2099999999999982
 20
-0.5403304100036621
 30
0.0
 11
-0.1880000000000006
 21
-0.5403304100036621
 31
0.0
  0
LINE
  5
D2
330
1F
100
AcDbEntity
  8
FLYWHEEL
  6
Continuous
 62
    13
370
    18
100
AcDbLine
 10
-0.3670000000000009
 20
0.7677000000000001
 30
0.0
 11
0.0
 21
0.7677000000000001
 31
0.0
  0
LINE
  5
D3
330
1F
100
AcDbEntity
  8
FLYWHEEL
  6
Continuous
 62
    13
370
    18
100
AcDbLine
 10
-0.3670000000000018
 20
-0.7676999999999999
 30
0.0
 11
-0.0000000000000009
 21
-0.7676999999999999
 31
0.0
  0
POINT
  5
D4
330
1F
100
AcDbEntity
  8
PLATE
  6
Continuous
 62
    93
370
    18
100
AcDbPoint
 10
0.0
 20
0.0
 30
0.0
  0
LINE
  5
D5
330
1F
100
AcDbEntity
  8
PLATE
  6
Continuous
 62
   133
370
    18
100
AcDbLine
 10
0.0649999999999995
 20
7.4
 30
0.0
 11
0.6900000000000004
 21
7.4
 31
0.0
  0
LINE
  5
D6
330
1F
100
AcDbEntity
  8
PLATE
  6
Continuous
 62
   133
370
    18
100
AcDbLine
 10
0.0649999999999995
 20
-7.6
 30
0.0
 11
0.6900000000000004
 21
-7.599999999999999
 31
0.0
  0
LINE
  5
D7
330
1F
100
AcDbEntity
  8
PLATE
  6
Continuous
 62
   133
370
    18
100
AcDbLine
 10
0.5649999999999995
 20
-3.0
 30
0.0
 11
0.0649999999999995
 21
-3.0
 31
0.0
  0
LINE
  5
D8
330
1F
100
AcDbEntity
  8
PLATE
  6
Continuous
 62
   133
370
    18
100
AcDbLine
 10
0.5650000000000013
 20
3.0
 30
0.0
 11
0.0649999999999995
 21
3.0
 31
0.0
  0
LINE
  5
D9
330
1F
100
AcDbEntity
  8
PLATE
  6
Continuous
 62
   133
370
    18
100
AcDbLine
 10
0.6900000000000004
 20
-4.25
 30
0.0
 11
0.5649999999999995
 21
-4.25
 31
0.0
  0
LINE
  5
DA
330
1F
100
AcDbEntity
  8
PLATE
  6
Continuous
 62
   133
370
    18
100
AcDbLine
 10
0.6900000000000004
 20
4.25
 30
0.0
 11
0.5650000000000013
 21
4.25
 31
0.0
  0
LINE
  5
DB
330
1F
100
AcDbEntity
  8
PLATE
  6
Continuous
 62
   133
370
    18
100
AcDbLine
 10
0.6900000000000004
 20
7.4
 30
0.0
 11
0.6900000000000004
 21
4.25
 31
0.0
  0
LINE
  5
DC
330
1F
100
AcDbEntity
  8
PLATE
  6
Continuous
 62
   133
370
    18
100
AcDbLine
 10
0.6900000000000004
 20
-4.25
 30
0.0
 11
0.6900000000000004
 21
-7.599999999999999
 31
0.0
  0
POINT
  5
DD
330
1F
100
AcDbEntity
  8
PLATE
  6
Continuous
 62
   133
370
    18
100
AcDbPoint
 10
0.0649999999999995
 20
3.624999999999999
 30
0.0
  0
POINT
  5
DE
330
1F
100
AcDbEntity
  8
PLATE
  6
Continuous
 62
   133
370
    18
100
AcDbPoint
 10
0.0649999999999995
 20
3.624999999999999
 30
0.0
  0
LINE
  5
DF
330
1F
100
AcDbEntity
  8
PLATE
  6
Continuous
 62
   133
370
    18
100
AcDbLine
 10
0.3160004043579097
 20
3.359399795532226
 30
0.0
 11
0.3160004043579097
 21
3.890600204467773
 31
0.0
  0
LINE
  5
E0
330
1F
100
AcDbEntity
  8
PLATE
  6
Continuous
 62
   133
370
    18
100
AcDbLine
 10
0.0649999999999995
 20
4.093500137329101
 30
0.0
 11
0.3160004043579097
 21
3.890600204467773
 31
0.0
  0
LINE
  5
E1
330
1F
100
AcDbEntity
  8
PLATE
  6
Continuous
 62
   133
370
    18
100
AcDbLine
 10
0.3160004043579097
 20
3.359399795532226
 30
0.0
 11
0.0649999999999995
 21
3.156499862670898
 31
0.0
  0
LINE
  5
E2
330
1F
100
AcDbEntity
  8
PLATE
  6
Continuous
 62
   133
370
    18
100
AcDbLine
 10
0.5649999999999995
 20
3.359399795532226
 30
0.0
 11
0.3160004043579097
 21
3.359399795532226
 31
0.0
  0
LINE
  5
E3
330
1F
100
AcDbEntity
  8
PLATE
  6
Continuous
 62
   133
370
    18
100
AcDbLine
 10
0.5649999999999995
 20
3.890600204467773
 30
0.0
 11
0.3160004043579097
 21
3.890600204467773
 31
0.0
  0
HATCH
  5
E4
330
1F
100
AcDbEntity
  8
PLATE
  6
Continuous
 62
   133
370
    18
100
AcDbHatch
 10
0.0
 20
0.0
 30
0.0
210
0.0
220
0.0
230
1.0
  2
ALUMINUM
 70
     0
 71
     0
 91
        1
 92
        3
 72
     0
 73
     1
 93
        7
 10
0.0649999999999995
 20
7.4
 10
0.0649999999999995
 20
4.093500137329101
 10
0.3160004043579097
 20
3.890600204467773
 10
0.5650000000000013
 20
3.890600204467773
 10
0.5650000000000013
 20
4.25
 10
0.6900000000000004
 20
4.25
 10
0.6900000000000004
 20
7.4
 97
        0
 75
     0
 76
     2
 52
0.0
 41
0.062
 77
     0
 78
     2
 53
45.0
 43
0.0
 44
0.0
 45
0.0876812408671319
 46
-0.0876812408671319
 79
     1
 49
620.0
 53
-45.0
 43
0.0
 44
0.043840634
 45
-0.0876812408671319
 46
-0.0876812408671319
 79
     2
 49
0.062
 49
-0.062
 98
        0
  0
HATCH
  5
E5
330
1F
100
AcDbEntity
  8
PLATE
  6
Continuous
 62
   133
370
    18
100
AcDbHatch
 10
0.0
 20
0.0
 30
0.0
210
0.0
220
0.0
230
1.0
  2
ALUMINUM
 70
     0
 71
     0
 91
        1
 92
        3
 72
     0
 73
     1
 93
        6
 10
0.0649999999999995
 20
-2.999999999999998
 10
0.0649999999999995
 20
-7.6
 10
0.6900000000000004
 20
-7.599999999999999
 10
0.6900000000000004
 20
-4.25
 10
0.5649999999999995
 20
-4.250000000000001
 10
0.5649999999999995
 20
-3.0
 97
        0
 75
     0
 76
     2
 52
0.0
 41
0.062
 77
     0
 78
     2
 53
45.0
 43
0.0
 44
0.0
 45
0.0876812408671319
 46
-0.0876812408671319
 79
     1
 49
620.0
 53
-45.0
 43
0.0
 44
0.043840634
 45
-0.0876812408671319
 46
-0.0876812408671319
 79
     2
 49
0.062
 49
-0.062
 98
        0
  0
HATCH
  5
E6
330
1F
100
AcDbEntity
  8
PLATE
  6
Continuous
 62
   133
370
    18
100
AcDbHatch
 10
0.0
 20
0.0
 30
0.0
210
0.0
220
0.0
230
1.0
  2
ALUMINUM
 70
     0
 71
     0
 91
        1
 92
        3
 72
     0
 73
     1
 93
        5
 10
0.0649999999999995
 20
3.156499862670898
 10
0.0649999999999995
 20
3.0
 10
0.5650000000000013
 20
3.0
 10
0.5649999999999995
 20
3.359399795532226
 10
0.3160004043579097
 20
3.359399795532226
 97
        0
 75
     0
 76
     2
 52
0.0
 41
0.062
 77
     0
 78
     2
 53
45.0
 43
0.0
 44
0.0
 45
0.0876812408671319
 46
-0.0876812408671319
 79
     1
 49
620.0
 53
-45.0
 43
0.0
 44
0.043840634
 45
-0.0876812408671319
 46
-0.0876812408671319
 79
     2
 49
0.062
 49
-0.062
 98
        0
  0
POINT
  5
E7
330
1F
100
AcDbEntity
  8
PLATE
  6
Continuous
 62
   133
370
    18
100
AcDbPoint
 10
0.0649999999999995
 20
0.0
 30
0.0
  0
LINE
  5
E8
330
1F
100
AcDbEntity
  8
PLATE
  6
Continuous
 62
   133
370
    18
100
AcDbLine
 10
0.5650000000000013
 20
4.25
 30
0.0
 11
0.5650000000000004
 21
1.75
 31
0.0
  0
LINE
  5
E9
330
1F
100
AcDbEntity
  8
PLATE
  6
Continuous
 62
   133
370
    18
100
AcDbLine
 10
0.0649999999999995
 20
-1.75
 30
0.0
 11
0.0649999999999995
 21
-7.599999999999999
 31
0.0
  0
LINE
  5
EA
330
1F
100
AcDbEntity
  8
PLATE
  6
Continuous
 62
   133
370
    18
100
AcDbLine
 10
0.0649999999999995
 20
7.4
 30
0.0
 11
0.0649999999999995
 21
1.75
 31
0.0
  0
LINE
  5
EB
330
1F
100
AcDbEntity
  8
PLATE
  6
Continuous
 62
   133
370
    18
100
AcDbLine
 10
0.5649999999999995
 20
-4.25
 30
0.0
 11
0.5649999999999995
 21
-1.75
 31
0.0
  0
LINE
  5
EC
330
1F
100
AcDbEntity
  8
PLATE
  6
Continuous
 62
   133
370
    18
100
AcDbLine
 10
0.5649999999999995
 20
3.359399795532226
 30
0.0
 11
0.5649999999999995
 21
3.890600204467773
 31
0.0
  0
LINE
  5
ED
330
1F
100
AcDbEntity
  8
PLATE
  6
Continuous
 62
   133
370
    18
100
AcDbLine
 10
0.0649999999999995
 20
4.093500137329101
 30
0.0
 11
0.0649999999999995
 21
3.156499862670898
 31
0.0
  0
LINE
  5
EE
330
1F
100
AcDbEntity
  8
HUB
  6
Continuous
 62
    93
370
    18
100
AcDbLine
 10
-0.1880000000000006
 20
0.375
 30
0.0
 11
0.5650000000000031
 21
0.3749999999999999
 31
0.0
  0
LINE
  5
EF
330
1F
100
AcDbEntity
  8
HUB
  6
Continuous
 62
    93
370
    18
100
AcDbLine
 10
-0.1880000000000006
 20
-0.3749999999999999
 30
0.0
 11
0.5650000000000031
 21
-0.3749999999999999
 31
0.0
  0
HATCH
  5
F0
330
1F
100
AcDbEntity
  8
HUB
  6
Continuous
 62
    93
370
    18
100
AcDbHatch
 10
0.0
 20
0.0
 30
0.0
210
0.0
220
0.0
230
1.0
  2
ANSI31
 70
     0
 71
     0
 91
        1
 92
        3
 72
     0
 73
     1
 93
       11
 10
0.0
 20
1.75
 10
0.0
 20
1.55525
 10
0.0984250000000015
 20
1.55525
 10
0.1968500000000031
 20
1.55525
 10
0.2952750000000046
 20
1.55525
 10
0.3937000000000062
 20
1.55525
 10
0.4921250000000077
 20
1.55525
 10
0.5905500000000092
 20
1.55525
 10
0.6889750000000108
 20
1.55525
 10
0.75
 20
1.55525
 10
0.75
 20
1.75
 97
        0
 75
     0
 76
     2
 52
0.0
 41
0.62
 77
     0
 78
     1
 53
45.0
 43
0.0
 44
0.0
 45
-0.0548007755419574
 46
0.0548007755419574
 79
     1
 49
6200.0
 98
        0
  0
HATCH
  5
F1
330
1F
100
AcDbEntity
  8
HUB
  6
Continuous
 62
    93
370
    18
100
AcDbHatch
 10
0.0
 20
0.0
 30
0.0
210
0.0
220
0.0
230
1.0
  2
ANSI31
 70
     0
 71
     0
 91
        1
 92
        3
 72
     0
 73
     1
 93
       17
 10
0.0
 20
1.16125
 10
0.0
 20
0.7666999999999997
 10
-0.1880000000000006
 20
0.7666999999999997
 10
-0.1880000000000006
 20
0.375
 10
0.5650000000000031
 20
0.3749999999999999
 10
0.5650000000000031
 20
0.8000011444091797
 10
1.940000000000003
 20
0.9464367423671743
 10
1.940000000000003
 20
1.125
 10
0.75
 20
1.125
 10
0.75
 20
1.16125
 10
0.6889750000000108
 20
1.16125
 10
0.5905500000000092
 20
1.16125
 10
0.4921250000000077
 20
1.16125
 10
0.3937000000000062
 20
1.16125
 10
0.2952750000000046
 20
1.16125
 10
0.1968500000000031
 20
1.16125
 10
0.0984250000000015
 20
1.16125
 97
        0
 75
     0
 76
     2
 52
0.0
 41
0.62
 77
     0
 78
     1
 53
45.0
 43
0.0
 44
0.0
 45
-0.0548007755419574
 46
0.0548007755419574
 79
     1
 49
6200.0
 98
        0
  0
HATCH
  5
F2
330
1F
100
AcDbEntity
  8
HUB
  6
Continuous
 62
    93
370
    18
100
AcDbHatch
 10
0.0
 20
0.0
 30
0.0
210
0.0
220
0.0
230
1.0
  2
ANSI31
 70
     0
 71
     0
 91
        1
 92
        3
 72
     0
 73
     1
 93
        9
 10
-0.0000000000000009
 20
-0.8693523406982422
 10
-0.0000000000000009
 20
-1.75
 10
0.7499999999999991
 20
-1.75
 10
0.7499999999999991
 20
-1.124999523162842
 10
1.940000000000003
 20
-1.124999523162842
 10
1.940000000000003
 20
-0.9464366414943444
 10
0.6202197426912521
 20
-0.8058805465698242
 10
0.2099999999999982
 20
-0.8058805465698242
 10
0.2099999999999982
 20
-0.8693523406982422
 97
        0
 75
     0
 76
     2
 52
0.0
 41
0.62
 77
     0
 78
     1
 53
45.0
 43
0.0
 44
0.0
 45
-0.0548007755419574
 46
0.0548007755419574
 79
     1
 49
6200.0
 98
        0
  0
HATCH
  5
F3
330
1F
100
AcDbEntity
  8
HUB
  6
Continuous
 62
    93
370
    18
100
AcDbHatch
 10
0.0
 20
0.0
 30
0.0
210
0.0
220
0.0
230
1.0
  2
ANSI31
 70
     0
 71
     0
 91
        1
 92
        3
 72
     0
 73
     1
 93
        6
 10
-0.1880000000000006
 20
-0.375
 10
-0.1880000000000006
 20
-0.5403304100036621
 10
0.2099999999999982
 20
-0.5403304100036621
 10
0.2099999999999982
 20
-0.6027803421020508
 10
0.5650000000000031
 20
-0.6027803421020506
 10
0.5650000000000031
 20
-0.3749999999999999
 97
        0
 75
     0
 76
     2
 52
0.0
 41
0.62
 77
     0
 78
     1
 53
45.0
 43
0.0
 44
0.0
 45
-0.0548007755419574
 46
0.0548007755419574
 79
     1
 49
6200.0
 98
        0
  0
HATCH
  5
F4
330
1F
100
AcDbEntity
  8
FLYWHEEL
  6
Continuous
 62
    13
370
    18
100
AcDbHatch
 10
0.0
 20
0.0
 30
0.0
210
0.0
220
0.0
230
1.0
  2
ANSI31
 70
     0
 71
     0
 91
        1
 92
        3
 72
     0
 73
     1
 93
        8
 10
-0.7399999999999993
 20
4.687500000000001
 10
-0.7399999999999993
 20
2.8
 10
-0.3670000000000009
 20
2.0
 10
-0.3670000000000009
 20
1.566249999999998
 10
0.0
 20
1.566249999999998
 10
0.0
 20
5.6875
 10
-1.49
 20
5.6875
 10
-1.49
 20
4.687500000000001
 97
        0
 75
     0
 76
     2
 52
90.0
 41
0.62
 77
     0
 78
     1
 53
135.0
 43
0.0
 44
0.0
 45
-0.0548007755419574
 46
-0.0548007755419574
 79
     1
 49
6200.0
 98
        0
  0
HATCH
  5
F5
330
1F
100
AcDbEntity
  8
FLYWHEEL
  6
Continuous
 62
    13
370
    18
100
AcDbHatch
 10
0.0
 20
0.0
 30
0.0
210
0.0
220
0.0
230
1.0
  2
ANSI31
 70
     0
 71
     0
 91
        1
 92
        3
 72
     0
 73
     1
 93
        4
 10
-0.3670000000000009
 20
1.150249999999998
 10
-0.3670000000000009
 20
0.7677000000000001
 10
0.0
 20
0.7676999999999994
 10
0.0
 20
1.150249999999998
 97
        0
 75
     0
 76
     2
 52
90.0
 41
0.62
 77
     0
 78
     1
 53
135.0
 43
0.0
 44
0.0
 45
-0.0548007755419574
 46
-0.0548007755419574
 79
     1
 49
6200.0
 98
        0
  0
HATCH
  5
F6
330
1F
100
AcDbEntity
  8
FLYWHEEL
  6
Continuous
 62
    13
370
    18
100
AcDbHatch
 10
0.0
 20
0.0
 30
0.0
210
0.0
220
0.0
230
1.0
  2
ANSI31
 70
     0
 71
     0
 91
        1
 92
        3
 72
     0
 73
     1
 93
        8
 10
-0.3670000000000009
 20
-0.7676999999999997
 10
-0.3670000000000018
 20
-2.0
 10
-0.7400000000000002
 20
-2.8
 10
-0.7400000000000002
 20
-4.687500000000001
 10
-1.490000000000001
 20
-4.687500000000001
 10
-1.490000000000001
 20
-5.6875
 10
-0.0000000000000009
 20
-5.687499999999998
 10
-0.0000000000000009
 20
-0.7676999999999999
 97
        0
 75
     0
 76
     2
 52
90.0
 41
0.62
 77
     0
 78
     1
 53
135.0
 43
0.0
 44
0.0
 45
-0.0548007755419574
 46
-0.0548007755419574
 79
     1
 49
6200.0
 98
        0
  0
LINE
  5
F7
330
1F
100
AcDbEntity
  8
FLYWHEEL
  6
Continuous
 62
    13
370
    18
100
AcDbLine
 10
0.0
 20
5.6875
 30
0.0
 11
-0.0000000000000009
 21
0.7677000000000001
 31
0.0
  0
LINE
  5
F8
330
1F
100
AcDbEntity
  8
FLYWHEEL
  6
Continuous
 62
    13
370
    18
100
AcDbLine
 10
-0.0000000000000009
 20
-0.7676999999999999
 30
0.0
 11
-0.0000000000000009
 21
-5.687499999999998
 31
0.0
  0
POINT
  5
F9
330
1F
100
AcDbEntity
  8
PLATE
  6
Continuous
 62
   133
370
    18
100
AcDbPoint
 10
0.5650000000000013
 20
4.25
 30
0.0
  0
POINT
  5
FA
330
1F
100
AcDbEntity
  8
RING
  6
Continuous
 62
     8
370
    18
100
AcDbPoint
 10
1.958117904663085
 20
3.624999046325684
 30
0.0
  0
LINE
  5
FC
330
1F
100
AcDbEntity
  8
RING
  6
GC   6
 62
     8
370
    18
100
AcDbLine
 10
1.958117904663085
 20
3.624999046325684
 30
0.0
 11
0.0701784515380863
 21
3.624999046325684
 31
0.0
  0
POINT
  5
FD
330
1F
100
AcDbEntity
  8
RING
  6
Continuous
 62
     8
370
    18
100
AcDbPoint
 10
0.5650000000000004
 20
3.624999046325684
 30
0.0
  0
POINT
  5
FE
330
1F
100
AcDbEntity
  8
RING
  6
Continuous
 62
     8
370
    18
100
AcDbPoint
 10
0.5650000000000004
 20
3.624999046325684
 30
0.0
  0
LINE
  5
FF
330
1F
100
AcDbEntity
  8
RING
  6
Continuous
 62
     8
370
    18
100
AcDbLine
 10
0.5645822906494145
 20
3.874999046325684
 30
0.0
 11
1.958335342407226
 21
3.874999046325684
 31
0.0
  0
LINE
  5
100
330
1F
100
AcDbEntity
  8
RING
  6
Continuous
 62
     8
370
    18
100
AcDbLine
 10
0.5644716644287113
 20
3.374999046325684
 30
0.0
 11
1.958117904663085
 21
3.374999046325684
 31
0.0
  0
POINT
  5
101
330
1F
100
AcDbEntity
  8
RING
  6
Continuous
 62
     8
370
    18
100
AcDbPoint
 10
0.5650000000000004
 20
3.624999046325684
 30
0.0
  0
POINT
  5
102
330
1F
100
AcDbEntity
  8
RING
  6
Continuous
 62
     8
370
    18
100
AcDbPoint
 10
0.6274980926513676
 20
3.624356269836426
 30
0.0
  0
POINT
  5
103
330
1F
100
AcDbEntity
  8
RING
  6
Continuous
 62
     8
370
    18
100
AcDbPoint
 10
0.6274980926513676
 20
3.624356269836426
 30
0.0
  0
POINT
  5
104
330
1F
100
AcDbEntity
  8
RING
  6
Continuous
 62
     8
370
    18
100
AcDbPoint
 10
0.6899885559082035
 20
3.623297691345215
 30
0.0
  0
POINT
  5
105
330
1F
100
AcDbEntity
  8
RING
  6
Continuous
 62
     8
370
    18
100
AcDbPoint
 10
0.6899885559082035
 20
3.624356269836426
 30
0.0
  0
POINT
  5
106
330
1F
100
AcDbEntity
  8
RING
  6
Continuous
 62
     8
370
    18
100
AcDbPoint
 10
0.7524790191650395
 20
3.624356269836426
 30
0.0
  0
POINT
  5
107
330
1F
100
AcDbEntity
  8
RING
  6
Continuous
 62
     8
370
    18
100
AcDbPoint
 10
0.8149713897705082
 20
3.624356269836426
 30
0.0
  0
POINT
  5
108
330
1F
100
AcDbEntity
  8
RING
  6
Continuous
 62
     8
370
    18
100
AcDbPoint
 10
0.877463760375977
 20
3.624356269836426
 30
0.0
  0
POINT
  5
109
330
1F
100
AcDbEntity
  8
RING
  6
Continuous
 62
     8
370
    18
100
AcDbPoint
 10
0.9399542236328129
 20
3.624356269836426
 30
0.0
  0
POINT
  5
10A
330
1F
100
AcDbEntity
  8
RING
  6
Continuous
 62
     8
370
    18
100
AcDbPoint
 10
1.002444686889649
 20
3.624356269836426
 30
0.0
  0
POINT
  5
10B
330
1F
100
AcDbEntity
  8
RING
  6
Continuous
 62
     8
370
    18
100
AcDbPoint
 10
1.064937057495118
 20
3.624356269836426
 30
0.0
  0
POINT
  5
10C
330
1F
100
AcDbEntity
  8
RING
  6
Continuous
 62
     8
370
    18
100
AcDbPoint
 10
1.127429428100586
 20
3.624356269836426
 30
0.0
  0
POINT
  5
10D
330
1F
100
AcDbEntity
  8
RING
  6
Continuous
 62
     8
370
    18
100
AcDbPoint
 10
1.189919891357422
 20
3.624356269836426
 30
0.0
  0
POINT
  5
10E
330
1F
100
AcDbEntity
  8
RING
  6
Continuous
 62
     8
370
    18
100
AcDbPoint
 10
1.252410354614258
 20
3.624356269836426
 30
0.0
  0
POINT
  5
10F
330
1F
100
AcDbEntity
  8
RING
  6
Continuous
 62
     8
370
    18
100
AcDbPoint
 10
1.314902725219727
 20
3.624356269836426
 30
0.0
  0
POINT
  5
110
330
1F
100
AcDbEntity
  8
RING
  6
Continuous
 62
     8
370
    18
100
AcDbPoint
 10
1.377395095825196
 20
3.624356269836426
 30
0.0
  0
POINT
  5
111
330
1F
100
AcDbEntity
  8
RING
  6
Continuous
 62
     8
370
    18
100
AcDbPoint
 10
1.439885559082032
 20
3.624356269836426
 30
0.0
  0
POINT
  5
112
330
1F
100
AcDbEntity
  8
RING
  6
Continuous
 62
     8
370
    18
100
AcDbPoint
 10
1.502376022338868
 20
3.624356269836426
 30
0.0
  0
POINT
  5
113
330
1F
100
AcDbEntity
  8
RING
  6
Continuous
 62
     8
370
    18
100
AcDbPoint
 10
1.564868392944335
 20
3.624356269836426
 30
0.0
  0
POINT
  5
114
330
1F
100
AcDbEntity
  8
RING
  6
Continuous
 62
     8
370
    18
100
AcDbPoint
 10
1.627360763549804
 20
3.624356269836426
 30
0.0
  0
POINT
  5
115
330
1F
100
AcDbEntity
  8
RING
  6
Continuous
 62
     8
370
    18
100
AcDbPoint
 10
1.68985122680664
 20
3.624356269836426
 30
0.0
  0
POINT
  5
116
330
1F
100
AcDbEntity
  8
RING
  6
Continuous
 62
     8
370
    18
100
AcDbPoint
 10
1.752341690063476
 20
3.624356269836426
 30
0.0
  0
POINT
  5
117
330
1F
100
AcDbEntity
  8
RING
  6
Continuous
 62
     8
370
    18
100
AcDbPoint
 10
1.814834060668945
 20
3.624356269836426
 30
0.0
  0
POINT
  5
118
330
1F
100
AcDbEntity
  8
RING
  6
Continuous
 62
     8
370
    18
100
AcDbPoint
 10
1.877326431274414
 20
3.624356269836426
 30
0.0
  0
LINE
  5
119
330
1F
100
AcDbEntity
  8
RING
  6
Continuous
 62
     8
370
    18
100
AcDbLine
 10
0.6274980926513676
 20
3.624356269836426
 30
0.0
 11
0.6274980926513676
 21
3.874934196472168
 31
0.0
  0
LINE
  5
11A
330
1F
100
AcDbEntity
  8
RING
  6
Continuous
 62
     8
370
    18
100
AcDbLine
 10
0.6274980926513676
 20
3.624356269836426
 30
0.0
 11
0.6274980926513676
 21
3.382491111755371
 31
0.0
  0
LINE
  5
11B
330
1F
100
AcDbEntity
  8
RING
  6
Continuous
 62
     8
370
    18
100
AcDbLine
 10
0.6899885559082035
 20
3.624356269836426
 30
0.0
 11
0.6899885559082035
 21
3.835356712341309
 31
0.0
  0
LINE
  5
11C
330
1F
100
AcDbEntity
  8
RING
  6
Continuous
 62
     8
370
    18
100
AcDbLine
 10
0.6899885559082035
 20
3.623297691345215
 30
0.0
 11
0.6899885559082035
 21
3.412297248840332
 31
0.0
  0
POINT
  5
11D
330
1F
100
AcDbEntity
  8
RING
  6
Continuous
 62
     8
370
    18
100
AcDbPoint
 10
0.7524790191650395
 20
3.624356269836426
 30
0.0
  0
POINT
  5
11E
330
1F
100
AcDbEntity
  8
RING
  6
Continuous
 62
     8
370
    18
100
AcDbPoint
 10
0.7524790191650395
 20
3.624356269836426
 30
0.0
  0
LINE
  5
11F
330
1F
100
AcDbEntity
  8
RING
  6
Continuous
 62
     8
370
    18
100
AcDbLine
 10
0.7524790191650395
 20
3.624356269836426
 30
0.0
 11
0.7524790191650395
 21
3.874934196472168
 31
0.0
  0
LINE
  5
120
330
1F
100
AcDbEntity
  8
RING
  6
Continuous
 62
     8
370
    18
100
AcDbLine
 10
0.7524790191650395
 20
3.624356269836426
 30
0.0
 11
0.7524790191650395
 21
3.382491111755371
 31
0.0
  0
POINT
  5
121
330
1F
100
AcDbEntity
  8
RING
  6
Continuous
 62
     8
370
    18
100
AcDbPoint
 10
0.877463760375977
 20
3.624356269836426
 30
0.0
  0
POINT
  5
122
330
1F
100
AcDbEntity
  8
RING
  6
Continuous
 62
     8
370
    18
100
AcDbPoint
 10
0.877463760375977
 20
3.624356269836426
 30
0.0
  0
LINE
  5
123
330
1F
100
AcDbEntity
  8
RING
  6
Continuous
 62
     8
370
    18
100
AcDbLine
 10
0.877463760375977
 20
3.624356269836426
 30
0.0
 11
0.877463760375977
 21
3.874934196472168
 31
0.0
  0
LINE
  5
124
330
1F
100
AcDbEntity
  8
RING
  6
Continuous
 62
     8
370
    18
100
AcDbLine
 10
0.877463760375977
 20
3.624356269836426
 30
0.0
 11
0.877463760375977
 21
3.382491111755371
 31
0.0
  0
POINT
  5
125
330
1F
100
AcDbEntity
  8
RING
  6
Continuous
 62
     8
370
    18
100
AcDbPoint
 10
1.002444686889649
 20
3.624356269836426
 30
0.0
  0
POINT
  5
126
330
1F
100
AcDbEntity
  8
RING
  6
Continuous
 62
     8
370
    18
100
AcDbPoint
 10
1.002444686889649
 20
3.624356269836426
 30
0.0
  0
LINE
  5
127
330
1F
100
AcDbEntity
  8
RING
  6
Continuous
 62
     8
370
    18
100
AcDbLine
 10
1.002444686889649
 20
3.624356269836426
 30
0.0
 11
1.002444686889649
 21
3.874934196472168
 31
0.0
  0
LINE
  5
128
330
1F
100
AcDbEntity
  8
RING
  6
Continuous
 62
     8
370
    18
100
AcDbLine
 10
1.002444686889649
 20
3.624356269836426
 30
0.0
 11
1.002444686889649
 21
3.382491111755371
 31
0.0
  0
POINT
  5
129
330
1F
100
AcDbEntity
  8
RING
  6
Continuous
 62
     8
370
    18
100
AcDbPoint
 10
1.127429428100586
 20
3.624356269836426
 30
0.0
  0
POINT
  5
12A
330
1F
100
AcDbEntity
  8
RING
  6
Continuous
 62
     8
370
    18
100
AcDbPoint
 10
1.127429428100586
 20
3.624356269836426
 30
0.0
  0
LINE
  5
12B
330
1F
100
AcDbEntity
  8
RING
  6
Continuous
 62
     8
370
    18
100
AcDbLine
 10
1.127429428100586
 20
3.624356269836426
 30
0.0
 11
1.127429428100586
 21
3.874934196472168
 31
0.0
  0
LINE
  5
12C
330
1F
100
AcDbEntity
  8
RING
  6
Continuous
 62
     8
370
    18
100
AcDbLine
 10
1.127429428100586
 20
3.624356269836426
 30
0.0
 11
1.127429428100586
 21
3.382491111755371
 31
0.0
  0
POINT
  5
12D
330
1F
100
AcDbEntity
  8
RING
  6
Continuous
 62
     8
370
    18
100
AcDbPoint
 10
1.252410354614258
 20
3.624356269836426
 30
0.0
  0
POINT
  5
12E
330
1F
100
AcDbEntity
  8
RING
  6
Continuous
 62
     8
370
    18
100
AcDbPoint
 10
1.252410354614258
 20
3.624356269836426
 30
0.0
  0
LINE
  5
12F
330
1F
100
AcDbEntity
  8
RING
  6
Continuous
 62
     8
370
    18
100
AcDbLine
 10
1.252410354614258
 20
3.624356269836426
 30
0.0
 11
1.252410354614258
 21
3.874934196472168
 31
0.0
  0
LINE
  5
130
330
1F
100
AcDbEntity
  8
RING
  6
Continuous
 62
     8
370
    18
100
AcDbLine
 10
1.252410354614258
 20
3.624356269836426
 30
0.0
 11
1.252410354614258
 21
3.382491111755371
 31
0.0
  0
POINT
  5
131
330
1F
100
AcDbEntity
  8
RING
  6
Continuous
 62
     8
370
    18
100
AcDbPoint
 10
1.377395095825196
 20
3.624356269836426
 30
0.0
  0
POINT
  5
132
330
1F
100
AcDbEntity
  8
RING
  6
Continuous
 62
     8
370
    18
100
AcDbPoint
 10
1.377395095825196
 20
3.624356269836426
 30
0.0
  0
LINE
  5
133
330
1F
100
AcDbEntity
  8
RING
  6
Continuous
 62
     8
370
    18
100
AcDbLine
 10
1.377395095825196
 20
3.624356269836426
 30
0.0
 11
1.377395095825196
 21
3.874934196472168
 31
0.0
  0
LINE
  5
134
330
1F
100
AcDbEntity
  8
RING
  6
Continuous
 62
     8
370
    18
100
AcDbLine
 10
1.377395095825196
 20
3.624356269836426
 30
0.0
 11
1.377395095825196
 21
3.382491111755371
 31
0.0
  0
POINT
  5
135
330
1F
100
AcDbEntity
  8
RING
  6
Continuous
 62
     8
370
    18
100
AcDbPoint
 10
1.502376022338868
 20
3.624356269836426
 30
0.0
  0
POINT
  5
136
330
1F
100
AcDbEntity
  8
RING
  6
Continuous
 62
     8
370
    18
100
AcDbPoint
 10
1.502376022338868
 20
3.624356269836426
 30
0.0
  0
LINE
  5
137
330
1F
100
AcDbEntity
  8
RING
  6
Continuous
 62
     8
370
    18
100
AcDbLine
 10
1.502376022338868
 20
3.624356269836426
 30
0.0
 11
1.502376022338868
 21
3.874934196472168
 31
0.0
  0
LINE
  5
138
330
1F
100
AcDbEntity
  8
RING
  6
Continuous
 62
     8
370
    18
100
AcDbLine
 10
1.502376022338868
 20
3.624356269836426
 30
0.0
 11
1.502376022338868
 21
3.382491111755371
 31
0.0
  0
POINT
  5
139
330
1F
100
AcDbEntity
  8
RING
  6
Continuous
 62
     8
370
    18
100
AcDbPoint
 10
1.627360763549804
 20
3.624356269836426
 30
0.0
  0
POINT
  5
13A
330
1F
100
AcDbEntity
  8
RING
  6
Continuous
 62
     8
370
    18
100
AcDbPoint
 10
1.627360763549804
 20
3.624356269836426
 30
0.0
  0
LINE
  5
13B
330
1F
100
AcDbEntity
  8
RING
  6
Continuous
 62
     8
370
    18
100
AcDbLine
 10
1.627360763549804
 20
3.624356269836426
 30
0.0
 11
1.627360763549804
 21
3.874934196472168
 31
0.0
  0
LINE
  5
13C
330
1F
100
AcDbEntity
  8
RING
  6
Continuous
 62
     8
370
    18
100
AcDbLine
 10
1.627360763549804
 20
3.624356269836426
 30
0.0
 11
1.627360763549804
 21
3.382491111755371
 31
0.0
  0
POINT
  5
13D
330
1F
100
AcDbEntity
  8
RING
  6
Continuous
 62
     8
370
    18
100
AcDbPoint
 10
1.752341690063476
 20
3.624356269836426
 30
0.0
  0
POINT
  5
13E
330
1F
100
AcDbEntity
  8
RING
  6
Continuous
 62
     8
370
    18
100
AcDbPoint
 10
1.752341690063476
 20
3.624356269836426
 30
0.0
  0
LINE
  5
13F
330
1F
100
AcDbEntity
  8
RING
  6
Continuous
 62
     8
370
    18
100
AcDbLine
 10
1.752341690063476
 20
3.624356269836426
 30
0.0
 11
1.752341690063476
 21
3.874934196472168
 31
0.0
  0
LINE
  5
140
330
1F
100
AcDbEntity
  8
RING
  6
Continuous
 62
     8
370
    18
100
AcDbLine
 10
1.752341690063476
 20
3.624356269836426
 30
0.0
 11
1.752341690063476
 21
3.382491111755371
 31
0.0
  0
POINT
  5
141
330
1F
100
AcDbEntity
  8
RING
  6
Continuous
 62
     8
370
    18
100
AcDbPoint
 10
1.877326431274414
 20
3.624356269836426
 30
0.0
  0
POINT
  5
142
330
1F
100
AcDbEntity
  8
RING
  6
Continuous
 62
     8
370
    18
100
AcDbPoint
 10
1.877326431274414
 20
3.624356269836426
 30
0.0
  0
LINE
  5
143
330
1F
100
AcDbEntity
  8
RING
  6
Continuous
 62
     8
370
    18
100
AcDbLine
 10
1.877326431274414
 20
3.624356269836426
 30
0.0
 11
1.877326431274414
 21
3.874934196472168
 31
0.0
  0
LINE
  5
144
330
1F
100
AcDbEntity
  8
RING
  6
Continuous
 62
     8
370
    18
100
AcDbLine
 10
1.877326431274414
 20
3.624356269836426
 30
0.0
 11
1.877326431274414
 21
3.382491111755371
 31
0.0
  0
POINT
  5
145
330
1F
100
AcDbEntity
  8
RING
  6
Continuous
 62
     8
370
    18
100
AcDbPoint
 10
0.8149713897705082
 20
3.623297691345215
 30
0.0
  0
POINT
  5
146
330
1F
100
AcDbEntity
  8
RING
  6
Continuous
 62
     8
370
    18
100
AcDbPoint
 10
0.8149713897705082
 20
3.624356269836426
 30
0.0
  0
LINE
  5
147
330
1F
100
AcDbEntity
  8
RING
  6
Continuous
 62
     8
370
    18
100
AcDbLine
 10
0.8149713897705082
 20
3.624356269836426
 30
0.0
 11
0.8149713897705082
 21
3.835356712341309
 31
0.0
  0
LINE
  5
148
330
1F
100
AcDbEntity
  8
RING
  6
Continuous
 62
     8
370
    18
100
AcDbLine
 10
0.8149713897705082
 20
3.623297691345215
 30
0.0
 11
0.8149713897705082
 21
3.412297248840332
 31
0.0
  0
POINT
  5
149
330
1F
100
AcDbEntity
  8
RING
  6
Continuous
 62
     8
370
    18
100
AcDbPoint
 10
0.9399542236328129
 20
3.623297691345215
 30
0.0
  0
POINT
  5
14A
330
1F
100
AcDbEntity
  8
RING
  6
Continuous
 62
     8
370
    18
100
AcDbPoint
 10
0.9399542236328129
 20
3.624356269836426
 30
0.0
  0
LINE
  5
14B
330
1F
100
AcDbEntity
  8
RING
  6
Continuous
 62
     8
370
    18
100
AcDbLine
 10
0.9399542236328129
 20
3.624356269836426
 30
0.0
 11
0.9399542236328129
 21
3.835356712341309
 31
0.0
  0
LINE
  5
14C
330
1F
100
AcDbEntity
  8
RING
  6
Continuous
 62
     8
370
    18
100
AcDbLine
 10
0.9399542236328129
 20
3.623297691345215
 30
0.0
 11
0.9399542236328129
 21
3.412297248840332
 31
0.0
  0
POINT
  5
14D
330
1F
100
AcDbEntity
  8
RING
  6
Continuous
 62
     8
370
    18
100
AcDbPoint
 10
1.064937057495118
 20
3.623297691345215
 30
0.0
  0
POINT
  5
14E
330
1F
100
AcDbEntity
  8
RING
  6
Continuous
 62
     8
370
    18
100
AcDbPoint
 10
1.064937057495118
 20
3.624356269836426
 30
0.0
  0
LINE
  5
14F
330
1F
100
AcDbEntity
  8
RING
  6
Continuous
 62
     8
370
    18
100
AcDbLine
 10
1.064937057495118
 20
3.624356269836426
 30
0.0
 11
1.064937057495118
 21
3.835356712341309
 31
0.0
  0
LINE
  5
150
330
1F
100
AcDbEntity
  8
RING
  6
Continuous
 62
     8
370
    18
100
AcDbLine
 10
1.064937057495118
 20
3.623297691345215
 30
0.0
 11
1.064937057495118
 21
3.412297248840332
 31
0.0
  0
POINT
  5
151
330
1F
100
AcDbEntity
  8
RING
  6
Continuous
 62
     8
370
    18
100
AcDbPoint
 10
1.189919891357422
 20
3.623297691345215
 30
0.0
  0
POINT
  5
152
330
1F
100
AcDbEntity
  8
RING
  6
Continuous
 62
     8
370
    18
100
AcDbPoint
 10
1.189919891357422
 20
3.624356269836426
 30
0.0
  0
LINE
  5
153
330
1F
100
AcDbEntity
  8
RING
  6
Continuous
 62
     8
370
    18
100
AcDbLine
 10
1.189919891357422
 20
3.624356269836426
 30
0.0
 11
1.189919891357422
 21
3.835356712341309
 31
0.0
  0
LINE
  5
154
330
1F
100
AcDbEntity
  8
RING
  6
Continuous
 62
     8
370
    18
100
AcDbLine
 10
1.189919891357422
 20
3.623297691345215
 30
0.0
 11
1.189919891357422
 21
3.412297248840332
 31
0.0
  0
POINT
  5
155
330
1F
100
AcDbEntity
  8
RING
  6
Continuous
 62
     8
370
    18
100
AcDbPoint
 10
1.314902725219727
 20
3.623297691345215
 30
0.0
  0
POINT
  5
156
330
1F
100
AcDbEntity
  8
RING
  6
Continuous
 62
     8
370
    18
100
AcDbPoint
 10
1.314902725219727
 20
3.624356269836426
 30
0.0
  0
LINE
  5
157
330
1F
100
AcDbEntity
  8
RING
  6
Continuous
 62
     8
370
    18
100
AcDbLine
 10
1.314902725219727
 20
3.624356269836426
 30
0.0
 11
1.314902725219727
 21
3.835356712341309
 31
0.0
  0
LINE
  5
158
330
1F
100
AcDbEntity
  8
RING
  6
Continuous
 62
     8
370
    18
100
AcDbLine
 10
1.314902725219727
 20
3.623297691345215
 30
0.0
 11
1.314902725219727
 21
3.412297248840332
 31
0.0
  0
POINT
  5
159
330
1F
100
AcDbEntity
  8
RING
  6
Continuous
 62
     8
370
    18
100
AcDbPoint
 10
1.439885559082032
 20
3.623297691345215
 30
0.0
  0
POINT
  5
15A
330
1F
100
AcDbEntity
  8
RING
  6
Continuous
 62
     8
370
    18
100
AcDbPoint
 10
1.439885559082032
 20
3.624356269836426
 30
0.0
  0
LINE
  5
15B
330
1F
100
AcDbEntity
  8
RING
  6
Continuous
 62
     8
370
    18
100
AcDbLine
 10
1.439885559082032
 20
3.624356269836426
 30
0.0
 11
1.439885559082032
 21
3.835356712341309
 31
0.0
  0
LINE
  5
15C
330
1F
100
AcDbEntity
  8
RING
  6
Continuous
 62
     8
370
    18
100
AcDbLine
 10
1.439885559082032
 20
3.623297691345215
 30
0.0
 11
1.439885559082032
 21
3.412297248840332
 31
0.0
  0
POINT
  5
15D
330
1F
100
AcDbEntity
  8
RING
  6
Continuous
 62
     8
370
    18
100
AcDbPoint
 10
1.564868392944335
 20
3.623297691345215
 30
0.0
  0
POINT
  5
15E
330
1F
100
AcDbEntity
  8
RING
  6
Continuous
 62
     8
370
    18
100
AcDbPoint
 10
1.564868392944335
 20
3.624356269836426
 30
0.0
  0
LINE
  5
15F
330
1F
100
AcDbEntity
  8
RING
  6
Continuous
 62
     8
370
    18
100
AcDbLine
 10
1.564868392944335
 20
3.624356269836426
 30
0.0
 11
1.564868392944335
 21
3.835356712341309
 31
0.0
  0
LINE
  5
160
330
1F
100
AcDbEntity
  8
RING
  6
Continuous
 62
     8
370
    18
100
AcDbLine
 10
1.564868392944335
 20
3.623297691345215
 30
0.0
 11
1.564868392944335
 21
3.412297248840332
 31
0.0
  0
POINT
  5
161
330
1F
100
AcDbEntity
  8
RING
  6
Continuous
 62
     8
370
    18
100
AcDbPoint
 10
1.68985122680664
 20
3.623297691345215
 30
0.0
  0
POINT
  5
162
330
1F
100
AcDbEntity
  8
RING
  6
Continuous
 62
     8
370
    18
100
AcDbPoint
 10
1.68985122680664
 20
3.624356269836426
 30
0.0
  0
LINE
  5
163
330
1F
100
AcDbEntity
  8
RING
  6
Continuous
 62
     8
370
    18
100
AcDbLine
 10
1.68985122680664
 20
3.624356269836426
 30
0.0
 11
1.68985122680664
 21
3.835356712341309
 31
0.0
  0
LINE
  5
164
330
1F
100
AcDbEntity
  8
RING
  6
Continuous
 62
     8
370
    18
100
AcDbLine
 10
1.68985122680664
 20
3.623297691345215
 30
0.0
 11
1.68985122680664
 21
3.412297248840332
 31
0.0
  0
POINT
  5
165
330
1F
100
AcDbEntity
  8
RING
  6
Continuous
 62
     8
370
    18
100
AcDbPoint
 10
1.814834060668945
 20
3.623297691345215
 30
0.0
  0
POINT
  5
166
330
1F
100
AcDbEntity
  8
RING
  6
Continuous
 62
     8
370
    18
100
AcDbPoint
 10
1.814834060668945
 20
3.624356269836426
 30
0.0
  0
LINE
  5
167
330
1F
100
AcDbEntity
  8
RING
  6
Continuous
 62
     8
370
    18
100
AcDbLine
 10
1.814834060668945
 20
3.624356269836426
 30
0.0
 11
1.814834060668945
 21
3.835356712341309
 31
0.0
  0
LINE
  5
168
330
1F
100
AcDbEntity
  8
RING
  6
Continuous
 62
     8
370
    18
100
AcDbLine
 10
1.814834060668945
 20
3.623297691345215
 30
0.0
 11
1.814834060668945
 21
3.412297248840332
 31
0.0
  0
LINE
  5
169
330
1F
100
AcDbEntity
  8
RING
  6
Continuous
 62
     8
370
    18
100
AcDbLine
 10
1.236871185302735
 20
-4.496992111206055
 30
0.0
 11
1.236871185302735
 21
-3.902992248535156
 31
0.0
  0
LINE
  5
16A
330
1F
100
AcDbEntity
  8
RING
  6
Continuous
 62
     8
370
    18
100
AcDbLine
 10
1.958335342407226
 20
3.874999046325684
 30
0.0
 11
1.958335342407226
 21
3.374999046325684
 31
0.0
  0
LINE
  5
16B
330
1F
100
AcDbEntity
  8
RING
  6
Continuous
 62
     8
370
    18
100
AcDbLine
 10
0.8796076202392582
 20
2.999999046325684
 30
0.0
 11
0.5650000000000004
 21
2.999999046325684
 31
0.0
  0
LINE
  5
16C
330
1F
100
AcDbEntity
  8
RING
  6
Continuous
 62
     8
370
    18
100
AcDbLine
 10
0.5650000000000004
 20
-2.999999046325684
 30
0.0
 11
0.8796076202392582
 21
-2.999999046325684
 31
0.0
  0
LINE
  5
16D
330
1F
100
AcDbEntity
  8
RING
  6
Continuous
 62
     8
370
    18
100
AcDbLine
 10
1.236871185302735
 20
-3.902992248535156
 30
0.0
 11
0.5650000000000004
 21
-3.902992248535156
 31
0.0
  0
POINT
  5
16E
330
1F
100
AcDbEntity
  8
RING
  6
Continuous
 62
     8
370
    18
100
AcDbPoint
 10
0.5650000000000013
 20
4.25
 30
0.0
  0
LINE
  5
16F
330
1F
100
AcDbEntity
  8
RING
  6
Continuous
 62
     8
370
    18
100
AcDbLine
 10
0.5649999999999995
 20
-2.999999046325684
 30
0.0
 11
0.5649999999999995
 21
-4.25
 31
0.0
  0
LINE
  5
170
330
1F
100
AcDbEntity
  8
RING
  6
Continuous
 62
     8
370
    18
100
AcDbLine
 10
0.5650000000000013
 20
4.25
 30
0.0
 11
0.5650000000000013
 21
2.999999046325684
 31
0.0
  0
LINE
  5
171
330
1F
100
AcDbEntity
  8
RING
  6
Continuous
 62
     8
370
    18
100
AcDbLine
 10
0.5650000000000004
 20
-4.249999046325684
 30
0.0
 11
0.7525000000000013
 21
-4.249999046325684
 31
0.0
  0
LINE
  5
172
330
1F
100
AcDbEntity
  8
RING
  6
Continuous
 62
     8
370
    18
100
AcDbLine
 10
0.5650000000000013
 20
4.25
 30
0.0
 11
0.7525000000000022
 21
4.25
 31
0.0
  0
LINE
  5
173
330
1F
100
AcDbEntity
  8
RING
  6
Continuous
 62
     8
370
    18
100
AcDbLine
 10
0.8900000000000006
 20
-4.564999580383301
 30
0.0
 11
0.7525000000000013
 21
-4.249999046325684
 31
0.0
  0
LINE
  5
174
330
1F
100
AcDbEntity
  8
RING
  6
Continuous
 62
     8
370
    18
100
AcDbLine
 10
0.8603142502921575
 20
-4.496992111206055
 30
0.0
 11
1.236871185302735
 21
-4.496992111206055
 31
0.0
  0
LINE
  5
175
330
1F
100
AcDbEntity
  8
RING
  6
Continuous
 62
     8
370
    18
100
AcDbLine
 10
0.8900000000000006
 20
4.564999580383302
 30
0.0
 11
0.7525000000000022
 21
4.25
 31
0.0
  0
POINT
  5
176
330
1F
100
AcDbEntity
  8
RING
  6
Continuous
 62
     8
370
    18
100
AcDbPoint
 10
0.5650000000000013
 20
3.624999046325684
 30
0.0
  0
POINT
  5
177
330
1F
100
AcDbEntity
  8
RING
  6
Continuous
 62
     8
370
    18
100
AcDbPoint
 10
0.5649999999999995
 20
-4.19999885559082
 30
0.0
  0
LINE
  5
178
330
1F
100
AcDbEntity
  8
RING
  6
GC   6
 62
     8
370
    18
100
AcDbLine
 10
1.954692306518554
 20
-4.19999885559082
 30
0.0
 11
0.3332971954345707
 21
-4.19999885559082
 31
0.0
  0
LINE
  5
179
330
1F
100
AcDbEntity
  8
RING
  6
Continuous
 62
     8
370
    18
100
AcDbLine
 10
2.769176902770997
 20
4.564999580383301
 30
0.0
 11
0.8900000000000006
 21
4.564999580383301
 31
0.0
  0
LINE
  5
17A
330
1F
100
AcDbEntity
  8
RING
  6
Continuous
 62
     8
370
    18
100
AcDbLine
 10
0.8796076202392582
 20
2.000000953674316
 30
0.0
 11
2.769176902770997
 21
2.000000953674316
 31
0.0
  0
LINE
  5
17B
330
1F
100
AcDbEntity
  8
RING
  6
Continuous
 62
     8
370
    18
100
AcDbLine
 10
0.8796076202392582
 20
-1.999999046325684
 30
0.0
 11
2.769176902770997
 21
-1.999999046325684
 31
0.0
  0
LINE
  5
17C
330
1F
100
AcDbEntity
  8
RING
  6
Continuous
 62
     8
370
    18
100
AcDbLine
 10
1.235862197875977
 20
-3.997000694274902
 30
0.0
 11
2.769176902770997
 21
-3.997000694274902
 31
0.0
  0
LINE
  5
17D
330
1F
100
AcDbEntity
  8
RING
  6
Continuous
 62
     8
370
    18
100
AcDbLine
 10
1.235862197875977
 20
-4.402997016906738
 30
0.0
 11
2.769176902770997
 21
-4.402997016906738
 31
0.0
  0
LINE
  5
17E
330
1F
100
AcDbEntity
  8
RING
  6
Continuous
 62
     8
370
    18
100
AcDbLine
 10
0.8900000000000006
 20
-4.564999580383301
 30
0.0
 11
2.769176902770997
 21
-4.564999580383301
 31
0.0
  0
LINE
  5
17F
330
1F
100
AcDbEntity
  8
RING
  6
Continuous
 62
     8
370
    18
100
AcDbLine
 10
2.769176902770997
 20
-4.564999580383301
 30
0.0
 11
2.769176902770997
 21
4.564999580383301
 31
0.0
  0
HATCH
  5
180
330
1F
100
AcDbEntity
  8
RING
  6
Continuous
 62
     8
370
    18
100
AcDbHatch
 10
0.0
 20
0.0
 30
0.0
210
0.0
220
0.0
230
1.0
  2
ALUMINUM
 70
     0
 71
     0
 91
        1
 92
        3
 72
     0
 73
     1
 93
       12
 10
0.8796076202392582
 20
2.999999046325684
 10
0.8796076202392582
 20
2.000000953674316
 10
2.769176902770997
 20
2.000000953674316
 10
2.769176902770997
 20
4.564999580383301
 10
0.8900000000000006
 20
4.564999580383302
 10
0.7525000000000022
 20
4.25
 10
0.5650000000000013
 20
4.25
 10
0.5650000000000013
 20
3.874999046325684
 10
1.958335342407226
 20
3.874999046325684
 10
1.958117904663085
 20
3.374999046325684
 10
0.5650000000000013
 20
3.374999046325684
 10
0.5650000000000004
 20
2.999999046325684
 97
        0
 75
     0
 76
     2
 52
90.0
 41
0.062
 77
     0
 78
     2
 53
135.0
 43
0.0
 44
0.0
 45
0.0876812408671319
 46
0.0876812408671319
 79
     1
 49
620.0
 53
45.0
 43
-0.043840634
 44
0.0
 45
0.0876812408671319
 46
-0.0876812408671319
 79
     2
 49
0.062
 49
-0.062
 98
        0
  0
HATCH
  5
181
330
1F
100
AcDbEntity
  8
RING
  6
Continuous
 62
     8
370
    18
100
AcDbHatch
 10
0.0
 20
0.0
 30
0.0
210
0.0
220
0.0
230
1.0
  2
ALUMINUM
 70
     0
 71
     0
 91
        1
 92
        3
 72
     0
 73
     1
 93
        8
 10
0.8796076202392582
 20
-1.999999046325681
 10
0.8796076202392582
 20
-2.999999046325684
 10
0.5649999999999995
 20
-2.999999046325684
 10
0.5650000000000004
 20
-3.902992248535156
 10
1.236871185302735
 20
-3.902992248535156
 10
1.236871185302735
 20
-3.997000694274902
 10
2.769176902770997
 20
-3.997000694274902
 10
2.769176902770997
 20
-1.999999046325684
 97
        0
 75
     0
 76
     2
 52
90.0
 41
0.062
 77
     0
 78
     2
 53
135.0
 43
0.0
 44
0.0
 45
0.0876812408671319
 46
0.0876812408671319
 79
     1
 49
620.0
 53
45.0
 43
-0.043840634
 44
0.0
 45
0.0876812408671319
 46
-0.0876812408671319
 79
     2
 49
0.062
 49
-0.062
 98
        0
  0
HATCH
  5
182
330
1F
100
AcDbEntity
  8
RING
  6
Continuous
 62
     8
370
    18
100
AcDbHatch
 10
0.0
 20
0.0
 30
0.0
210
0.0
220
0.0
230
1.0
  2
ALUMINUM
 70
     0
 71
     0
 91
        1
 92
        3
 72
     0
 73
     1
 93
        6
 10
1.236871185302735
 20
-4.402997016906738
 10
1.236871185302735
 20
-4.496992111206055
 10
0.8603142502921575
 20
-4.496992111206055
 10
0.8900000000000006
 20
-4.564999580383301
 10
2.769176902770997
 20
-4.564999580383301
 10
2.769176902770997
 20
-4.402997016906738
 97
        0
 75
     0
 76
     2
 52
90.0
 41
0.062
 77
     0
 78
     2
 53
135.0
 43
0.0
 44
0.0
 45
0.0876812408671319
 46
0.0876812408671319
 79
     1
 49
620.0
 53
45.0
 43
-0.043840634
 44
0.0
 45
0.0876812408671319
 46
-0.0876812408671319
 79
     2
 49
0.062
 49
-0.062
 98
        0
  0
LINE
  5
183
330
1F
100
AcDbEntity
  8
RING
  6
Continuous
 62
     8
370
    18
100
AcDbLine
 10
0.8796076202392582
 20
2.999999046325684
 30
0.0
 11
0.8796076202392582
 21
1.125
 31
0.0
  0
LINE
  5
184
330
1F
100
AcDbEntity
  8
RING
  6
Continuous
 62
     8
370
    18
100
AcDbLine
 10
0.8796076202392582
 20
-1.124999523162842
 30
0.0
 11
0.8796076202392582
 21
-2.999999046325684
 31
0.0
  0
LINE
  5
185
330
1F
100
AcDbEntity
  8
ADC 9 MOTOR
  6
Continuous
 62
    93
370
    18
100
AcDbLine
 10
2.769176902770997
 20
0.0
 30
0.0
 11
2.769176902770997
 21
4.564999580383301
 31
0.0
  0
POINT
  5
187
330
1F
100
AcDbEntity
  8
ADC 9 MOTOR
  6
Continuous
 62
     5
370
    18
100
AcDbPoint
 10
2.769176902770997
 20
0.0
 30
0.0
  0
LINE
  5
188
330
1F
100
AcDbEntity
  8
ADC 9 MOTOR
  6
Continuous
 62
     5
370
    18
100
AcDbLine
 10
2.769176902770997
 20
0.0
 30
0.0
 11
2.769176902770997
 21
-4.565000057220459
 31
0.0
  0
POINT
  5
189
330
1F
100
AcDbEntity
  8
ADC 9 MOTOR
  6
Continuous
 62
     5
370
    18
100
AcDbPoint
 10
2.769176902770997
 20
0.0
 30
0.0
  0
POINT
  5
18A
330
1F
100
AcDbEntity
  8
ADC 9 MOTOR
  6
Continuous
 62
     5
370
    18
100
AcDbPoint
 10
2.769176902770997
 20
0.0
 30
0.0
  0
LINE
  5
18B
330
1F
100
AcDbEntity
  8
ADC 9 MOTOR
  6
Continuous
 62
     5
370
    18
100
AcDbLine
 10
2.769176902770997
 20
4.564999580383301
 30
0.0
 11
2.769176902770997
 21
0.0
 31
0.0
  0
LINE
  5
18C
330
1F
100
AcDbEntity
  8
ADC 9 MOTOR
  6
Continuous
 62
     5
370
    18
100
AcDbLine
 10
2.773499908447267
 20
1.999995231628418
 30
0.0
 11
2.582499923706056
 21
1.999995231628418
 31
0.0
  0
LINE
  5
18D
330
1F
100
AcDbEntity
  8
ADC 9 MOTOR
  6
Continuous
 62
     5
370
    18
100
AcDbLine
 10
2.773624839782716
 20
-1.999995231628418
 30
0.0
 11
2.582624855041505
 21
-1.999995231628418
 31
0.0
  0
LINE
  5
18E
330
1F
100
AcDbEntity
  8
ADC 9 MOTOR
  6
Continuous
 62
     5
370
    18
100
AcDbLine
 10
2.582499923706056
 20
1.999995231628418
 30
0.0
 11
2.582499923706056
 21
-1.999995231628418
 31
0.0
  0
POINT
  5
18F
330
1F
100
AcDbEntity
  8
ADC 9 MOTOR
  6
Continuous
 62
     5
370
    18
100
AcDbPoint
 10
2.582499923706056
 20
0.0
 30
0.0
  0
POINT
  5
190
330
1F
100
AcDbEntity
  8
ADC 9 MOTOR
  6
Continuous
 62
     5
370
    18
100
AcDbPoint
 10
2.582499923706056
 20
0.0
 30
0.0
  0
POINT
  5
191
330
1F
100
AcDbEntity
  8
ADC 9 MOTOR
  6
Continuous
 62
     5
370
    18
100
AcDbPoint
 10
2.240499916076661
 20
0.0
 30
0.0
  0
LINE
  5
192
330
1F
100
AcDbEntity
  8
ADC 9 MOTOR
  6
Continuous
 62
     5
370
    18
100
AcDbLine
 10
2.240499916076661
 20
0.0
 30
0.0
 11
2.240499916076661
 21
1.439999580383301
 31
0.0
  0
LINE
  5
193
330
1F
100
AcDbEntity
  8
ADC 9 MOTOR
  6
Continuous
 62
     5
370
    18
100
AcDbLine
 10
2.240499916076661
 20
0.0
 30
0.0
 11
2.240499916076661
 21
-1.440000057220459
 31
0.0
  0
LINE
  5
194
330
1F
100
AcDbEntity
  8
ADC 9 MOTOR
  6
Continuous
 62
     5
370
    18
100
AcDbLine
 10
2.240499916076661
 20
-1.440000057220459
 30
0.0
 11
2.589256706237794
 21
-1.599029064178467
 31
0.0
  0
LINE
  5
195
330
1F
100
AcDbEntity
  8
ADC 9 MOTOR
  6
Continuous
 62
     5
370
    18
100
AcDbLine
 10
2.240499916076661
 20
1.439999580383301
 30
0.0
 11
2.592443885803224
 21
1.598969459533691
 31
0.0
  0
POINT
  5
196
330
1F
100
AcDbEntity
  8
ADC 9 MOTOR
  6
Continuous
 62
     5
370
    18
100
AcDbPoint
 10
2.240499916076661
 20
0.0
 30
0.0
  0
POINT
  5
197
330
1F
100
AcDbEntity
  8
ADC 9 MOTOR
  6
Continuous
 62
     5
370
    18
100
AcDbPoint
 10
2.240499916076661
 20
0.0
 30
0.0
  0
POINT
  5
198
330
1F
100
AcDbEntity
  8
ADC 9 MOTOR
  6
Continuous
 62
     5
370
    18
100
AcDbPoint
 10
0.7525000000000013
 20
0.0
 30
0.0
  0
LINE
  5
199
330
1F
100
AcDbEntity
  8
ADC 9 MOTOR
  6
Continuous
 62
     5
370
    18
100
AcDbLine
 10
0.7525000000000013
 20
0.0
 30
0.0
 11
0.7525000000000013
 21
0.4999303817749023
 31
0.0
  0
LINE
  5
19A
330
1F
100
AcDbEntity
  8
ADC 9 MOTOR
  6
Continuous
 62
     5
370
    18
100
AcDbLine
 10
0.7525000000000013
 20
0.0
 30
0.0
 11
0.7525000000000013
 21
-0.5
 31
0.0
  0
POINT
  5
19B
330
1F
100
AcDbEntity
  8
ADC 9 MOTOR
  6
Continuous
 62
     5
370
    18
100
AcDbPoint
 10
0.7525000000000013
 20
0.0
 30
0.0
  0
POINT
  5
19C
330
1F
100
AcDbEntity
  8
ADC 9 MOTOR
  6
Continuous
 62
     5
370
    18
100
AcDbPoint
 10
0.7525000000000013
 20
0.0
 30
0.0
  0
POINT
  5
19D
330
1F
100
AcDbEntity
  8
ADC 9 MOTOR
  6
Continuous
 62
     5
370
    18
100
AcDbPoint
 10
0.8124880218505872
 20
0.0012092590332031
 30
0.0
  0
LINE
  5
19E
330
1F
100
AcDbEntity
  8
ADC 9 MOTOR
  6
Continuous
 62
     5
370
    18
100
AcDbLine
 10
0.8124880218505872
 20
0.5637092590332031
 30
0.0
 11
2.240499916076661
 21
0.5637092590332031
 31
0.0
  0
LINE
  5
19F
330
1F
100
AcDbEntity
  8
ADC 9 MOTOR
  6
Continuous
 62
     5
370
    18
100
AcDbLine
 10
0.8124880218505872
 20
-0.5612907409667969
 30
0.0
 11
2.240499916076661
 21
-0.5612907409667969
 31
0.0
  0
LINE
  5
1A0
330
1F
100
AcDbEntity
  8
ADC 9 MOTOR
  6
Continuous
 62
     5
370
    18
100
AcDbLine
 10
0.8124880218505872
 20
0.0012092590332031
 30
0.0
 11
0.8124880218505872
 21
0.5637092590332031
 31
0.0
  0
LINE
  5
1A1
330
1F
100
AcDbEntity
  8
ADC 9 MOTOR
  6
Continuous
 62
     5
370
    18
100
AcDbLine
 10
0.8124880218505872
 20
0.0012092590332031
 30
0.0
 11
0.8124880218505872
 21
-0.5612907409667969
 31
0.0
  0
LINE
  5
1A2
330
1F
100
AcDbEntity
  8
ADC 9 MOTOR
  6
Continuous
 62
     5
370
    18
100
AcDbLine
 10
0.8124880218505872
 20
-0.5612907409667969
 30
0.0
 11
0.7525000000000013
 21
-0.5
 31
0.0
  0
LINE
  5
1A3
330
1F
100
AcDbEntity
  8
ADC 9 MOTOR
  6
Continuous
 62
     5
370
    18
100
AcDbLine
 10
0.7525000000000013
 20
0.4999303817749023
 30
0.0
 11
0.8124880218505872
 21
0.5637092590332031
 31
0.0
  0
LINE
  5
1A4
330
1F
100
AcDbEntity
  8
ADC 9 MOTOR
  6
Continuous
 62
     5
370
    18
100
AcDbLine
 10
2.769176902770997
 20
-4.565000057220459
 30
0.0
 11
3.019176902770997
 21
-4.565000057220459
 31
0.0
  0
LINE
  5
1A5
330
1F
100
AcDbEntity
  8
ADC 9 MOTOR
  6
Continuous
 62
     5
370
    18
100
AcDbLine
 10
2.769176902770997
 20
4.564999580383301
 30
0.0
 11
3.019176902770997
 21
4.564999580383301
 31
0.0
  0
LINE
  5
1A6
330
1F
100
AcDbEntity
  8
ADC 9 MOTOR
  6
CENTER2
 62
    93
370
    18
100
AcDbLine
 10
-1.490000000000001
 20
0.0
 30
0.0
 11
7.238257651612903
 21
0.0
 31
0.0
  0
LINE
  5
1A8
330
1F
100
AcDbEntity
  8
DIMENSIONS
  6
Continuous
 62
    93
370
    18
100
AcDbLine
 10
-1.49
 20
6.533070948758766
 30
0.0
 11
-1.393407417371093
 21
6.558952853269018
 31
0.0
  0
LINE
  5
1A9
330
1F
100
AcDbEntity
  8
DIMENSIONS
  6
Continuous
 62
    93
370
    18
100
AcDbLine
 10
-1.49
 20
6.533070948758766
 30
0.0
 11
-1.393407417371093
 21
6.507189044248515
 31
0.0
  0
LINE
  5
1AA
330
1F
100
AcDbEntity
  8
DIMENSIONS
  6
Continuous
 62
    93
370
    18
100
AcDbLine
 10
0.0649999999999995
 20
6.533070948758766
 30
0.0
 11
-0.0315925826289073
 21
6.507189044248514
 31
0.0
  0
LINE
  5
1AB
330
1F
100
AcDbEntity
  8
DIMENSIONS
  6
Continuous
 62
    93
370
    18
100
AcDbLine
 10
0.0649999999999995
 20
6.533070948758766
 30
0.0
 11
-0.0315925826289073
 21
6.558952853269019
 31
0.0
  0
LINE
  5
1AC
330
1F
100
AcDbEntity
  8
DIMENSIONS
  6
Continuous
 62
    93
370
    18
100
AcDbLine
 10
-1.49
 20
5.8125
 30
0.0
 11
-1.49
 21
6.633070948758766
 31
0.0
  0
LINE
  5
1AD
330
1F
100
AcDbEntity
  8
DIMENSIONS
  6
Continuous
 62
    93
370
    18
100
AcDbLine
 10
0.0649999999999995
 20
5.8125
 30
0.0
 11
0.0649999999999996
 21
6.633070948758766
 31
0.0
  0
TEXT
  5
1AE
330
1F
100
AcDbEntity
  8
DIMENSIONS
  6
Continuous
 62
    93
370
    18
100
AcDbText
 10
-1.006316653313116
 20
6.470264509842171
 30
0.0
 40
0.125
  1
1.555"
  7
ENGINEER
100
AcDbText
  0
LINE
  5
1AF
330
1F
100
AcDbEntity
  8
DIMENSIONS
  6
Continuous
 62
    93
370
    18
100
AcDbLine
 10
-1.49
 20
6.533070948758766
 30
0.0
 11
-1.037566653313116
 21
6.533070948758766
 31
0.0
  0
LINE
  5
1B0
330
1F
100
AcDbEntity
  8
DIMENSIONS
  6
Continuous
 62
    93
370
    18
100
AcDbLine
 10
-0.3874333466868851
 20
6.533070948758766
 30
0.0
 11
0.0649999999999995
 21
6.533070948758766
 31
0.0
  0
LINE
  5
1B1
330
1F
100
AcDbEntity
  8
DIMENSIONS
  6
Continuous
 62
    93
370
    18
100
AcDbLine
 10
0.5650000000000013
 20
5.686170538416183
 30
0.0
 11
0.6615925826289081
 21
5.712052442926435
 31
0.0
  0
LINE
  5
1B2
330
1F
100
AcDbEntity
  8
DIMENSIONS
  6
Continuous
 62
    93
370
    18
100
AcDbLine
 10
0.5650000000000013
 20
5.686170538416183
 30
0.0
 11
0.6615925826289081
 21
5.660288633905932
 31
0.0
  0
LINE
  5
1B3
330
1F
100
AcDbEntity
  8
DIMENSIONS
  6
Continuous
 62
    93
370
    18
100
AcDbLine
 10
2.769176902770997
 20
5.686170538416183
 30
0.0
 11
2.672584320142091
 21
5.660288633905931
 31
0.0
  0
LINE
  5
1B4
330
1F
100
AcDbEntity
  8
DIMENSIONS
  6
Continuous
 62
    93
370
    18
100
AcDbLine
 10
2.769176902770997
 20
5.686170538416183
 30
0.0
 11
2.672584320142091
 21
5.712052442926436
 31
0.0
  0
LINE
  5
1B5
330
1F
100
AcDbEntity
  8
DIMENSIONS
  6
Continuous
 62
    93
370
    18
100
AcDbLine
 10
0.5650000000000013
 20
4.375
 30
0.0
 11
0.5650000000000014
 21
5.786170538416183
 31
0.0
  0
LINE
  5
1B6
330
1F
100
AcDbEntity
  8
DIMENSIONS
  6
Continuous
 62
    93
370
    18
100
AcDbLine
 10
2.769176902770997
 20
4.689999580383301
 30
0.0
 11
2.769176902770997
 21
5.786170538416183
 31
0.0
  0
TEXT
  5
1B7
330
1F
100
AcDbEntity
  8
DIMENSIONS
  6
Continuous
 62
    93
370
    18
100
AcDbText
 10
1.26582587003708
 20
5.623359029233972
 30
0.0
 40
0.125
  1
2.2042"
  7
ENGINEER
100
AcDbText
  0
LINE
  5
1B8
330
1F
100
AcDbEntity
  8
DIMENSIONS
  6
Continuous
 62
    93
370
    18
100
AcDbLine
 10
0.5650000000000013
 20
5.686170538416183
 30
0.0
 11
1.23457587003708
 21
5.686170538416183
 31
0.0
  0
LINE
  5
1B9
330
1F
100
AcDbEntity
  8
DIMENSIONS
  6
Continuous
 62
    93
370
    18
100
AcDbLine
 10
2.099601032733919
 20
5.686170538416183
 30
0.0
 11
2.769176902770997
 21
5.686170538416183
 31
0.0
  0
INSERT
  5
1BA
330
1F
100
AcDbEntity
  8
BUSHING
  6
Continuous
 62
   252
370
    18
100
AcDbBlockReference
  2
STD_BUSHING_HOLE_BOTTOM
 10
0.6900000000000013
 20
0.0
 30
0.0
  0
INSERT
  5
1BC
330
1F
100
AcDbEntity
  8
DIMENSIONS
  6
Continuous
 62
   252
370
    18
100
AcDbBlockReference
  2
DIA9RLDR
 10
2.77964271297677
 20
3.185176552728336
 30
0.0
  0
INSERT
  5
1BD
330
1F
100
AcDbEntity
  8
DIMENSIONS
  6
Continuous
 62
   252
370
    18
100
AcDbBlockReference
  2
DRCB9RLR
 10
2.795368205217255
 20
-2.790510498656209
 30
0.0
  0
TEXT
  5
1BE
330
1F
100
AcDbEntity
  8
DIMENSIONS
  6
Continuous
 62
    93
370
    18
100
AcDbText
 10
-1.113853608981978
 20
6.931617824101634
 30
0.0
 40
0.125
  1
MAGIC
  7
ENGINEER
100
AcDbText
  0
TEXT
  5
1BF
330
1F
100
AcDbEntity
  8
DIMENSIONS
  6
Continuous
 62
    93
370
    18
100
AcDbText
 10
-1.312659075858344
 20
6.744117824101634
 30
0.0
 40
0.125
  1
DISTANCE
  7
ENGINEER
100
AcDbText
  0
TEXT
  5
1C0
330
1F
100
AcDbEntity
  8
DIMENSIONS
  6
Continuous
 62
    93
370
    18
100
AcDbText
 10
1.384665481053537
 20
6.11472944031289
 30
0.0
 40
0.125
  1
RING
  7
ENGINEER
100
AcDbText
  0
TEXT
  5
1C1
330
1F
100
AcDbEntity
  8
DIMENSIONS
  6
Continuous
 62
    93
370
    18
100
AcDbText
 10
1.034341542056074
 20
5.92722944031289
 30
0.0
 40
0.125
  1
THICKNESS
  7
ENGINEER
100
AcDbText
  0
TEXT
  5
1C2
330
1F
100
AcDbEntity
  8
DIMENSIONS
  6
Continuous
 62
    93
370
    18
100
AcDbText
 10
3.663028401753234
 20
5.389189837865868
 30
0.0
 40
0.125
  1
ADAPTOR LAYOUT AND RING
  7
ENGINEER
100
AcDbText
  0
TEXT
  5
1C3
330
1F
100
AcDbEntity
  8
DIMENSIONS
  6
Continuous
 62
    93
370
    18
100
AcDbText
 10
3.663028401753234
 20
5.201689837865868
 30
0.0
 40
0.125
  1
DIMENSION DRAWING
  7
ENGINEER
100
AcDbText
  0
TEXT
  5
1C4
330
1F
100
AcDbEntity
  8
DIMENSIONS
  6
Continuous
 62
    93
370
    18
100
AcDbText
 10
3.687856123595914
 20
4.979519113930518
 30
0.0
 40
0.125
  1
PRINTED TO SCALE = 1 : 1
  7
ENGINEER
100
AcDbText
  0
TEXT
  5
1C5
330
1F
100
AcDbEntity
  8
DIMENSIONS
  6
Continuous
 62
    93
370
    18
100
AcDbText
 10
3.797066938349246
 20
7.051668788090808
 30
0.0
 40
0.125
  1
P.O. BOX 1113 FELTON CA. 95018-1113
  7
ENGINEER
100
AcDbText
  0
LINE
  5
1C6
330
1F
100
AcDbEntity
  8
DIMENSIONS
  6
Continuous
 62
    93
370
    18
100
AcDbLine
 10
3.664320241877078
 20
7.476665164128406
 30
0.0
 11
7.230772268244266
 21
7.476665164128406
 31
0.0
  0
LINE
  5
1C7
330
1F
100
AcDbEntity
  8
DIMENSIONS
  6
Continuous
 62
    93
370
    18
100
AcDbLine
 10
7.230772268244266
 20
7.476665164128406
 30
0.0
 11
7.230772268244266
 21
6.576679850712878
 31
0.0
  0
LINE
  5
1C8
330
1F
100
AcDbEntity
  8
DIMENSIONS
  6
Continuous
 62
    93
370
    18
100
AcDbLine
 10
7.230772268244266
 20
6.576679850712878
 30
0.0
 11
3.664320241877078
 21
6.576679850712878
 31
0.0
  0
LINE
  5
1C9
330
1F
100
AcDbEntity
  8
DIMENSIONS
  6
Continuous
 62
    93
370
    18
100
AcDbLine
 10
3.664320241877078
 20
6.576679850712878
 30
0.0
 11
3.664320241877078
 21
7.476665164128406
 31
0.0
  0
TEXT
  5
1CA
330
1F
100
AcDbEntity
  8
DIMENSIONS
  6
Continuous
 62
    93
370
    18
100
AcDbText
 10
3.797066938349246
 20
6.864168788090808
 30
0.0
 40
0.125
  1
PHONE 831-429-1989 FAX 831-429-1907
  7
ENGINEER
100
AcDbText
  0
TEXT
  5
1CB
330
1F
100
AcDbEntity
  8
DIMENSIONS
  6
Continuous
 62
    93
370
    18
100
AcDbText
 10
3.797066938349246
 20
7.239169741765124
 30
0.0
 40
0.125
  1
COPYRIGHT ELECTRO AUTOMOTIVE
  7
ENGINEER
100
AcDbText
  0
TEXT
  5
1CC
330
1F
100
AcDbEntity
  8
DIMENSIONS
  6
Continuous
 62
    93
370
    18
100
AcDbText
 10
3.797066938349246
 20
6.676668788090808
 30
0.0
 40
0.125
  1
DRAWN BY MARTY RATTAY   09/05/08
  7
ENGINEER
100
AcDbText
  0
INSERT
  5
1CD
330
1F
100
AcDbEntity
  8
WARP 9 MOTOR
  6
Continuous
 62
   252
370
    18
100
AcDbBlockReference
  2
WARP9_DRIVE_END_SIDE
 10
0.7837000000000014
 20
0.0
 30
0.0
  0
TEXT
  5
1CF
330
1F
100
AcDbEntity
  8
DIMENSIONS
  6
Continuous
 62
    93
370
    18
100
AcDbText
 10
3.663028401753234
 20
6.145560173299562
 30
0.0
 40
0.125
  1
2002 SATURN VUE 2.2L 5SP
  7
ENGINEER
100
AcDbText
  0
TEXT
  5
1D0
330
1F
100
AcDbEntity
  8
DIMENSIONS
  6
Continuous
 62
    93
370
    18
100
AcDbText
 10
3.663028401753234
 20
5.958060173299562
 30
0.0
 40
0.125
  1
ADAPTOR FOR THE ADC 9" MOTOR
  7
ENGINEER
100
AcDbText
  0
TEXT
  5
1D1
330
1F
100
AcDbEntity
  8
DIMENSIONS
  6
Continuous
 62
    93
370
    18
100
AcDbText
 10
3.663028401753234
 20
5.770560173299562
 30
0.0
 40
0.125
  1
OR A WARP 9 MOTOR
  7
ENGINEER
100
AcDbText
  0
POINT
  5
1D2
330
1F
100
AcDbEntity
  8
DIMENSIONS
  6
Continuous
 62
     8
370
    18
100
AcDbPoint
 10
-0.3670000000000013
 20
0.0
 30
0.0
  0
POINT
  5
1D3
330
1F
100
AcDbEntity
  8
DIMENSIONS
  6
Continuous
 62
     8
370
    18
100
AcDbPoint
 10
1.190000000000003
 20
-0.7043304443359375
 30
0.0
  0
POINT
  5
1D4
330
1F
100
AcDbEntity
  8
DIMENSIONS
  6
Continuous
 62
     8
370
    18
100
AcDbPoint
 10
0.2099999999999982
 20
-0.7043304443359375
 30
0.0
  0
LINE
  5
1D5
330
1F
100
AcDbEntity
  8
HARDWARE LIST
  6
Continuous
 62
     4
370
    18
100
AcDbLine
 10
3.683405304293858
 20
2.644350807006475
 30
0.0
 11
7.203844647923992
 21
2.644350807006475
 31
0.0
  0
LINE
  5
1D7
330
1F
100
AcDbEntity
  8
HARDWARE LIST
  6
Continuous
 62
     4
370
    18
100
AcDbLine
 10
7.203844647923992
 20
1.135591088307846
 30
0.0
 11
3.683405304293858
 21
1.135591088307846
 31
0.0
  0
LINE
  5
1D8
330
1F
100
AcDbEntity
  8
HARDWARE LIST
  6
Continuous
 62
     4
370
    18
100
AcDbLine
 10
7.203844647923992
 20
2.644350807006475
 30
0.0
 11
7.203844647923992
 21
1.88997094765716
 31
0.0
  0
LINE
  5
1D9
330
1F
100
AcDbEntity
  8
HARDWARE LIST
  6
Continuous
 62
     4
370
    18
100
AcDbLine
 10
7.203844647923992
 20
1.88997094765716
 30
0.0
 11
7.203844647923992
 21
1.135591088307846
 31
0.0
  0
LINE
  5
1DA
330
1F
100
AcDbEntity
  8
HARDWARE LIST
  6
Continuous
 62
     4
370
    18
100
AcDbLine
 10
3.683405304293858
 20
2.644350807006475
 30
0.0
 11
3.683405304293858
 21
1.88997094765716
 31
0.0
  0
LINE
  5
1DB
330
1F
100
AcDbEntity
  8
HARDWARE LIST
  6
Continuous
 62
     4
370
    18
100
AcDbLine
 10
3.683405304293858
 20
1.88997094765716
 30
0.0
 11
3.683405304293858
 21
1.135591088307846
 31
0.0
  0
LINE
  5
1DC
330
1F
100
AcDbEntity
  8
HARDWARE LIST
  6
Continuous
 62
     4
370
    18
100
AcDbLine
 10
3.683405304293858
 20
2.267160877331818
 30
0.0
 11
7.203844647923992
 21
2.267160877331818
 31
0.0
  0
LINE
  5
1DD
330
1F
100
AcDbEntity
  8
HARDWARE LIST
  6
Continuous
 62
     4
370
    18
100
AcDbLine
 10
7.203844647923992
 20
1.88997094765716
 30
0.0
 11
3.683405304293858
 21
1.88997094765716
 31
0.0
  0
LINE
  5
1DE
330
1F
100
AcDbEntity
  8
HARDWARE LIST
  6
Continuous
 62
     4
370
    18
100
AcDbLine
 10
7.203844647923992
 20
1.512781017982503
 30
0.0
 11
3.683405304293858
 21
1.512781017982503
 31
0.0
  0
TEXT
  5
1DF
330
1F
100
AcDbEntity
  8
HARDWARE LIST
  6
Continuous
 62
     4
370
    18
100
AcDbText
 10
4.568334789302791
 20
2.390096854410966
 30
0.0
 40
0.1249999999999999
  1
HARDWARE LIST
 41
1.0
  7
ENGINEER
100
AcDbText
  0
LINE
  5
1E0
330
1F
100
AcDbEntity
  8
HARDWARE LIST
  6
Continuous
 62
     4
370
    18
100
AcDbLine
 10
4.126952721596465
 20
2.267160877331818
 30
0.0
 11
4.126952721596465
 21
1.135591088307845
 31
0.0
  0
TEXT
  5
1E1
330
1F
100
AcDbEntity
  8
HARDWARE LIST
  6
Continuous
 62
     4
370
    18
100
AcDbText
 10
3.720286097417604
 20
1.998308277458161
 30
0.0
 40
0.1249999999999999
  1
QTY
 41
1.0
  7
ENGINEER
100
AcDbText
  0
LINE
  5
1E2
330
1F
100
AcDbEntity
  8
HARDWARE LIST
  6
Continuous
 62
     4
370
    18
100
AcDbLine
 10
6.197446035562426
 20
2.267160877331818
 30
0.0
 11
6.197446035562426
 21
1.135591088307846
 31
0.0
  0
TEXT
  5
1E3
330
1F
100
AcDbEntity
  8
HARDWARE LIST
  6
Continuous
 62
     4
370
    18
100
AcDbText
 10
4.260855146630967
 20
1.993348928382808
 30
0.0
 40
0.1249999999999999
  1
DIA PITCH LGTH
 41
1.0
  7
ENGINEER
100
AcDbText
  0
TEXT
  5
1E4
330
1F
100
AcDbEntity
  8
HARDWARE LIST
  6
Continuous
 62
     4
370
    18
100
AcDbText
 10
6.42313134348443
 20
1.993348928382808
 30
0.0
 40
0.1249999999999999
  1
TYPE
 41
1.0
  7
ENGINEER
100
AcDbText
  0
LINE
  5
1E5
330
1F
100
AcDbEntity
  8
HARDWARE LIST
  6
Continuous
 62
     4
370
    18
100
AcDbLine
 10
7.203844647923992
 20
0.3812112289585312
 30
0.0
 11
3.683405304293858
 21
0.3812112289585312
 31
0.0
  0
LINE
  5
1E6
330
1F
100
AcDbEntity
  8
HARDWARE LIST
  6
Continuous
 62
     4
370
    18
100
AcDbLine
 10
7.203844647923992
 20
1.135591088307846
 30
0.0
 11
7.203844647923992
 21
0.3812112289585312
 31
0.0
  0
LINE
  5
1E7
330
1F
100
AcDbEntity
  8
HARDWARE LIST
  6
Continuous
 62
     4
370
    18
100
AcDbLine
 10
3.683405304293858
 20
1.135591088307846
 30
0.0
 11
3.683405304293858
 21
0.3812112289585312
 31
0.0
  0
LINE
  5
1E8
330
1F
100
AcDbEntity
  8
HARDWARE LIST
  6
Continuous
 62
     4
370
    18
100
AcDbLine
 10
7.203844647923992
 20
0.758401158633188
 30
0.0
 11
3.683405304293858
 21
0.758401158633188
 31
0.0
  0
LINE
  5
1E9
330
1F
100
AcDbEntity
  8
HARDWARE LIST
  6
Continuous
 62
     4
370
    18
100
AcDbLine
 10
4.126952721596465
 20
1.135591088307846
 30
0.0
 11
4.126952721596465
 21
0.3812112289585303
 31
0.0
  0
LINE
  5
1EA
330
1F
100
AcDbEntity
  8
HARDWARE LIST
  6
Continuous
 62
     4
370
    18
100
AcDbLine
 10
6.197446035562426
 20
1.135591088307846
 30
0.0
 11
6.197446035562426
 21
0.3812112289585312
 31
0.0
  0
TEXT
  5
1EB
330
1F
100
AcDbEntity
  8
HARDWARE LIST
  6
Continuous
 62
     4
370
    18
100
AcDbText
 10
6.420331936714652
 20
1.615864218867725
 30
0.0
 40
0.1249999999999999
  1
SHCS
 41
1.0
  7
ENGINEER
100
AcDbText
  0
TEXT
  5
1EC
330
1F
100
AcDbEntity
  8
HARDWARE LIST
  6
Continuous
 62
     4
370
    18
100
AcDbText
 10
3.821267398458384
 20
1.615670048799312
 30
0.0
 40
0.1249999999999999
  1
6
 41
1.0
  7
ENGINEER
100
AcDbText
  0
TEXT
  5
1ED
330
1F
100
AcDbEntity
  8
HARDWARE LIST
  6
Continuous
 62
     4
370
    18
100
AcDbText
 10
3.821267398458384
 20
1.247979717353498
 30
0.0
 40
0.1249999999999999
  1
4
 41
1.0
  7
ENGINEER
100
AcDbText
  0
TEXT
  5
1EE
330
1F
100
AcDbEntity
  8
HARDWARE LIST
  6
Continuous
 62
     4
370
    18
100
AcDbText
 10
4.264724592861144
 20
0.3050642349333823
 30
0.0
 40
0.1249999999999999
  1
 
 41
1.0
  7
ENGINEER
100
AcDbText
  0
TEXT
  5
1EF
330
1F
100
AcDbEntity
  8
HARDWARE LIST
  6
Continuous
 62
     4
370
    18
100
AcDbText
 10
4.264480429903336
 20
1.623591285200382
 30
0.0
 40
0.125
  1
10-24  X  1"
  7
ENGINEER
100
AcDbText
  0
TEXT
  5
1F0
330
1F
100
AcDbEntity
  8
HARDWARE LIST
  6
Continuous
 62
     4
370
    18
100
AcDbText
 10
4.267748515214016
 20
1.254545616129316
 30
0.0
 40
0.125
  1
1/2"-13 X 1-1/4"
  7
ENGINEER
100
AcDbText
  0
TEXT
  5
1F1
330
1F
100
AcDbEntity
  8
HARDWARE LIST
  6
Continuous
 62
     4
370
    18
100
AcDbText
 10
6.414797414906538
 20
1.247979717353498
 30
0.0
 40
0.125
  1
FLTHD
  7
ENGINEER
100
AcDbText
  0
TEXT
  5
1F2
330
1F
100
AcDbEntity
  8
HARDWARE LIST
  6
Continuous
 62
     4
370
    18
100
AcDbText
 10
3.815207820686819
 20
0.8774837030650113
 30
0.0
 40
0.1249999999999999
  1
4
 41
1.0
  7
ENGINEER
100
AcDbText
  0
TEXT
  5
1F3
330
1F
100
AcDbEntity
  8
HARDWARE LIST
  6
Continuous
 62
     4
370
    18
100
AcDbText
 10
6.400703269622564
 20
0.8837744462497694
 30
0.0
 40
0.1249999999999999
  1
SHCS
 41
1.0
  7
ENGINEER
100
AcDbText
  0
TEXT
  5
1F4
330
1F
100
AcDbEntity
  8
HARDWARE LIST
  6
Continuous
 62
     4
370
    18
100
AcDbText
 10
4.255559843619914
 20
0.8774837030650113
 30
0.0
 40
0.125
  1
3/8"-16 X 2-1/4"
  7
ENGINEER
100
AcDbText
  0
ENDSEC
  0
SECTION
  2
OBJECTS
  0
DICTIONARY
  5
C
330
0
100
AcDbDictionary
281
     1
  3
ACAD_GROUP
350
D
  3
ACAD_LAYOUT
350
1A
  3
ACAD_MLINESTYLE
350
17
  3
ACAD_PLOTSETTINGS
350
19
  3
ACAD_PLOTSTYLENAME
350
E
  0
DICTIONARY
  5
D
102
{ACAD_REACTORS
330
C
102
}
330
C
100
AcDbDictionary
281
     1
  0
DICTIONARY
  5
1A
102
{ACAD_REACTORS
330
C
102
}
330
C
100
AcDbDictionary
281
     1
  3
Layout1
350
1E
  3
Layout2
350
26
  3
Model
350
22
  0
DICTIONARY
  5
17
102
{ACAD_REACTORS
330
C
102
}
330
C
100
AcDbDictionary
281
     1
  3
Standard
350
18
  0
DICTIONARY
  5
19
102
{ACAD_REACTORS
330
C
102
}
330
C
100
AcDbDictionary
281
     1
  0
ACDBDICTIONARYWDFLT
  5
E
102
{ACAD_REACTORS
330
C
102
}
330
C
100
AcDbDictionary
281
     1
  3
Normal
350
F
100
AcDbDictionaryWithDefault
340
F
  0
LAYOUT
  5
1E
102
{ACAD_REACTORS
330
1A
102
}
330
1A
100
AcDbPlotSettings
  1

  2

  4

  6

 40
0.0
 41
0.0
 42
0.0
 43
0.0
 44
0.0
 45
0.0
 46
0.0
 47
0.0
 48
0.0
 49
0.0
140
0.0
141
0.0
142
1.0
143
1.0
 70
   688
 72
     0
 73
     0
 74
     5
  7

 75
    16
147
1.0
148
0.0
149
0.0
100
AcDbLayout
  1
Layout1
 70
     1
 71
     1
 10
0.0
 20
0.0
 11
12.0
 21
9.0
 12
0.0
 22
0.0
 32
0.0
 14
1.000000000000000E+20
 24
1.000000000000000E+20
 34
1.000000000000000E+20
 15
-1.000000000000000E+20
 25
-1.000000000000000E+20
 35
-1.000000000000000E+20
146
0.0
 13
0.0
 23
0.0
 33
0.0
 16
1.0
 26
0.0
 36
0.0
 17
0.0
 27
1.0
 37
0.0
 76
     0
330
1B
  0
LAYOUT
  5
26
102
{ACAD_REACTORS
330
1A
102
}
330
1A
100
AcDbPlotSettings
  1

  2

  4

  6

 40
0.0
 41
0.0
 42
0.0
 43
0.0
 44
0.0
 45
0.0
 46
0.0
 47
0.0
 48
0.0
 49
0.0
140
0.0
141
0.0
142
1.0
143
1.0
 70
   688
 72
     0
 73
     0
 74
     5
  7

 75
    16
147
1.0
148
0.0
149
0.0
100
AcDbLayout
  1
Layout2
 70
     1
 71
     2
 10
0.0
 20
0.0
 11
0.0
 21
0.0
 12
0.0
 22
0.0
 32
0.0
 14
0.0
 24
0.0
 34
0.0
 15
0.0
 25
0.0
 35
0.0
146
0.0
 13
0.0
 23
0.0
 33
0.0
 16
1.0
 26
0.0
 36
0.0
 17
0.0
 27
1.0
 37
0.0
 76
     0
330
23
  0
LAYOUT
  5
22
102
{ACAD_REACTORS
330
1A
102
}
330
1A
100
AcDbPlotSettings
  1

  2

  4

  6

 40
0.0
 41
0.0
 42
0.0
 43
0.0
 44
0.0
 45
0.0
 46
0.0
 47
0.0
 48
0.0
 49
0.0
140
0.0
141
0.0
142
1.0
143
1.0
 70
  1712
 72
     0
 73
     0
 74
     0
  7

 75
     0
147
1.0
148
0.0
149
0.0
100
AcDbLayout
  1
Model
 70
     1
 71
     0
 10
0.0
 20
0.0
 11
0.0
 21
0.0
 12
0.0
 22
0.0
 32
0.0
 14
0.0
 24
0.0
 34
0.0
 15
0.0
 25
0.0
 35
0.0
146
0.0
 13
0.0
 23
0.0
 33
0.0
 16
1.0
 26
0.0
 36
0.0
 17
0.0
 27
1.0
 37
0.0
 76
     0
330
1F
  0
MLINESTYLE
  5
18
102
{ACAD_REACTORS
330
17
102
}
330
17
100
AcDbMlineStyle
  2
Standard
 70
     0
  3

 62
   256
 51
90.0
 52
90.0
 71
     2
 49
0.5
 62
   256
  6
BYLAYER
 49
-0.5
 62
   256
  6
BYLAYER
  0
ACDBPLACEHOLDER
  5
F
102
{ACAD_REACTORS
330
E
102
}
330
E
  0
ENDSEC
  0
EOF
