  0
SECTION
  2
HEADER
  9
$ACADVER
  1
AC1006
  0
ENDSEC
  0
SECTION
  2
TABLES
  0
TABLE
  2
LTYPE
 70
    25
  0
LTYPE
  2
CONTINUOUS
 70
    64
  3
Solid line
 72
    64
 73
     0
 40
0.000000
  0
LTYPE
  2
DASHDOT
 70
    64
  3
__ . __ . __ . __ . __ . __ . __ . __ . __ . __
 72
    65
 73
     4
 40
1.000000
 49
0.500000
 49
-0.250000
 49
0.000000
 49
-0.250000
  0
LTYPE
  2
DASHED
 70
    64
  3
__ __ __ __ __ __ __ __ __ __ __ __ __ __ __ __
 72
    65
 73
     2
 40
0.750000
 49
0.500000
 49
-0.250000
  0
LTYPE
  2
DIVIDE
 70
    64
  3
____ . . ____ . . ____ . . ____ . . ____ . . __
 72
    65
 73
     6
 40
1.250000
 49
0.500000
 49
-0.250000
 49
0.000000
 49
-0.250000
 49
0.000000
 49
-0.250000
  0
LTYPE
  2
DOT
 70
    64
  3
. . . . . . . . . . . . . . . . . . . . . . . . 
 72
    65
 73
     2
 40
0.250000
 49
0.000000
 49
-0.250000
  0
ENDTAB
  0
ENDSEC
  0
SECTION
  2
ENTITIES
  0
POINT
  8
CNTRLINE
 62
     7
 10
6.176569
 20
4.848721
 30
0.000000
  0
LINE
  8
PARTS
 62
     7
  6
CONTINUOUS
 10
7.563569
 20
-0.495279
 30
0.000000
 11
7.203568
 21
-0.495279
 31
0.000000
  0
LINE
  8
PARTS
 62
     7
  6
CONTINUOUS
 10
6.176569
 20
-0.432779
 30
0.000000
 11
7.203568
 21
-0.432779
 31
0.000000
  0
LINE
  8
PARTS
 62
     7
  6
CONTINUOUS
 10
7.563569
 20
10.192721
 30
0.000000
 11
7.203568
 21
10.192721
 31
0.000000
  0
LINE
  8
PARTS
 62
     7
  6
CONTINUOUS
 10
6.176569
 20
10.130221
 30
0.000000
 11
7.203568
 21
10.130221
 31
0.000000
  0
LINE
  8
PARTS
 62
     7
  6
CONTINUOUS
 10
7.203568
 20
10.192721
 30
0.000000
 11
7.203568
 21
10.130221
 31
0.000000
  0
LINE
  8
PARTS
 62
     7
  6
CONTINUOUS
 10
7.203568
 20
-0.432779
 30
0.000000
 11
7.203568
 21
-0.495279
 31
0.000000
  0
LINE
  8
PARTS
 62
     7
  6
CONTINUOUS
 10
7.563569
 20
9.286222
 30
0.000000
 11
7.563569
 21
10.192721
 31
0.000000
  0
LINE
  8
PARTS
 62
     7
  6
CONTINUOUS
 10
7.563569
 20
0.421552
 30
0.000000
 11
7.563569
 21
-0.495279
 31
0.000000
  0
LINE
  8
PARTS
 62
     7
  6
CONTINUOUS
 10
7.266569
 20
6.598721
 30
0.000000
 11
7.520569
 21
6.411221
 31
0.000000
  0
LINE
  8
PARTS
 62
     7
  6
CONTINUOUS
 10
7.266569
 20
3.098721
 30
0.000000
 11
7.520569
 21
3.286221
 31
0.000000
  0
LINE
  8
PARTS
 62
     7
  6
CONTINUOUS
 10
7.266569
 20
8.848722
 30
0.000000
 11
7.266569
 21
6.598721
 31
0.000000
  0
LINE
  8
PARTS
 62
     7
  6
CONTINUOUS
 10
7.266569
 20
3.098721
 30
0.000000
 11
7.266569
 21
0.848721
 31
0.000000
  0
LINE
  8
PARTS
 62
     7
  6
CONTINUOUS
 10
7.563569
 20
9.286222
 30
0.000000
 11
7.266569
 21
8.848722
 31
0.000000
  0
LINE
  8
PARTS
 62
     7
  6
CONTINUOUS
 10
7.266569
 20
0.848721
 30
0.000000
 11
7.563569
 21
0.421552
 31
0.000000
  0
LINE
  8
PARTS
 62
     7
  6
CONTINUOUS
 10
7.359569
 20
6.187221
 30
0.000000
 11
7.359569
 21
3.510221
 31
0.000000
  0
POINT
  8
PARTS
 62
     7
 10
7.359569
 20
4.848721
 30
0.000000
  0
LINE
  8
PARTS
 62
     7
  6
CONTINUOUS
 10
7.359569
 20
6.187221
 30
0.000000
 11
7.520569
 21
6.187221
 31
0.000000
  0
LINE
  8
PARTS
 62
     7
  6
CONTINUOUS
 10
7.359569
 20
3.510221
 30
0.000000
 11
7.520569
 21
3.510221
 31
0.000000
  0
LINE
  8
PARTS
 62
     7
  6
CONTINUOUS
 10
6.176569
 20
7.545220
 30
0.000000
 11
7.036569
 21
7.545220
 31
0.000000
  0
LINE
  8
PARTS
 62
     7
  6
CONTINUOUS
 10
7.036569
 20
7.545220
 30
0.000000
 11
7.036569
 21
2.152220
 31
0.000000
  0
LINE
  8
PARTS
 62
     7
  6
CONTINUOUS
 10
7.036569
 20
2.152220
 30
0.000000
 11
6.176569
 21
2.152220
 31
0.000000
  0
LINE
  8
PARTS
 62
     7
  6
CONTINUOUS
 10
7.359569
 20
5.438721
 30
0.000000
 11
7.036569
 21
5.438721
 31
0.000000
  0
LINE
  8
PARTS
 62
     7
  6
CONTINUOUS
 10
7.359569
 20
4.258720
 30
0.000000
 11
7.036569
 21
4.258720
 31
0.000000
  0
LINE
  8
PARTS
 62
     7
  6
CONTINUOUS
 10
7.359569
 20
6.082720
 30
0.000000
 11
7.036569
 21
6.082720
 31
0.000000
  0
LINE
  8
PARTS
 62
     7
  6
CONTINUOUS
 10
7.359569
 20
5.667720
 30
0.000000
 11
7.036569
 21
5.667720
 31
0.000000
  0
LINE
  8
MAINSHFT
 62
     7
  6
CONTINUOUS
 10
7.659569
 20
5.044721
 30
0.000000
 11
6.984569
 21
5.044721
 31
0.000000
  0
LINE
  8
MAINSHFT
 62
     7
  6
CONTINUOUS
 10
7.659569
 20
5.044721
 30
0.000000
 11
7.659569
 21
4.652720
 31
0.000000
  0
LINE
  8
MAINSHFT
 62
     7
  6
CONTINUOUS
 10
7.659569
 20
4.652720
 30
0.000000
 11
6.984569
 21
4.652720
 31
0.000000
  0
LINE
  8
MAINSHFT
 62
     7
  6
CONTINUOUS
 10
7.224568
 20
5.044721
 30
0.000000
 11
7.224568
 21
4.652720
 31
0.000000
  0
LINE
  8
MAINSHFT
 62
     7
  6
CONTINUOUS
 10
7.469568
 20
5.044721
 30
0.000000
 11
7.469568
 21
4.652720
 31
0.000000
  0
LINE
  8
PLATE
 62
     7
  6
CONTINUOUS
 10
7.894568
 20
10.718202
 30
0.000000
 11
8.519568
 21
10.718202
 31
0.000000
  0
LINE
  8
PLATE
 62
     7
  6
CONTINUOUS
 10
8.519568
 20
9.098722
 30
0.000000
 11
8.394568
 21
9.098722
 31
0.000000
  0
LINE
  8
PLATE
 62
     7
  6
CONTINUOUS
 10
8.394568
 20
9.098722
 30
0.000000
 11
8.394568
 21
7.848722
 31
0.000000
  0
LINE
  8
PLATE
 62
     7
  6
CONTINUOUS
 10
8.519568
 20
0.598722
 30
0.000000
 11
8.394568
 21
0.598722
 31
0.000000
  0
LINE
  8
PLATE
 62
     7
  6
CONTINUOUS
 10
8.394568
 20
0.598722
 30
0.000000
 11
8.394568
 21
1.848722
 31
0.000000
  0
LINE
  8
PLATE
 62
     7
  6
CONTINUOUS
 10
8.394568
 20
1.848722
 30
0.000000
 11
7.894568
 21
1.848722
 31
0.000000
  0
LINE
  8
PLATE
 62
     7
  6
CONTINUOUS
 10
8.519568
 20
9.098722
 30
0.000000
 11
8.519568
 21
10.718202
 31
0.000000
  0
LINE
  8
PLATE
 62
     7
  6
CONTINUOUS
 10
8.519568
 20
0.598722
 30
0.000000
 11
8.519568
 21
-1.020760
 31
0.000000
  0
LINE
  8
PLATE
 62
     7
  6
CONTINUOUS
 10
8.394568
 20
7.848722
 30
0.000000
 11
7.894568
 21
7.848722
 31
0.000000
  0
LINE
  8
PLATE
 62
     7
  6
CONTINUOUS
 10
7.894568
 20
8.739221
 30
0.000000
 11
8.394568
 21
8.739221
 31
0.000000
  0
LINE
  8
PLATE
 62
     7
  6
CONTINUOUS
 10
7.894568
 20
8.208220
 30
0.000000
 11
8.394568
 21
8.208220
 31
0.000000
  0
LINE
  8
PARTS
 62
     7
  6
CONTINUOUS
 10
7.520569
 20
6.187221
 30
0.000000
 11
7.520569
 21
6.411221
 31
0.000000
  0
LINE
  8
PARTS
 62
     7
  6
CONTINUOUS
 10
7.520569
 20
3.510221
 30
0.000000
 11
7.520569
 21
3.286221
 31
0.000000
  0
POINT
  8
HUB
 62
     7
 10
7.361568
 20
4.848721
 30
0.000000
  0
LINE
  8
HUB
 62
     7
  6
CONTINUOUS
 10
7.361568
 20
6.187221
 30
0.000000
 11
7.361568
 21
3.510221
 31
0.000000
  0
LINE
  8
HUB
 62
     7
  6
CONTINUOUS
 10
7.361568
 20
6.187221
 30
0.000000
 11
8.361568
 21
6.187221
 31
0.000000
  0
LINE
  8
HUB
 62
     7
  6
CONTINUOUS
 10
8.361568
 20
3.510221
 30
0.000000
 11
7.361568
 21
3.510221
 31
0.000000
  0
LINE
  8
PILOTBRN
 62
     7
  6
CONTINUOUS
 10
7.463569
 20
5.428720
 30
0.000000
 11
7.463569
 21
4.268721
 31
0.000000
  0
LINE
  8
PILOTBRN
 62
     7
  6
CONTINUOUS
 10
7.463569
 20
4.268721
 30
0.000000
 11
7.109569
 21
4.268721
 31
0.000000
  0
LINE
  8
PILOTBRN
 62
     7
  6
CONTINUOUS
 10
7.109569
 20
4.268721
 30
0.000000
 11
7.109569
 21
5.428720
 31
0.000000
  0
LINE
  8
PILOTBRN
 62
     7
  6
CONTINUOUS
 10
7.109569
 20
5.428720
 30
0.000000
 11
7.463569
 21
5.428720
 31
0.000000
  0
LINE
  8
PILOTBRN
 62
     7
  6
CONTINUOUS
 10
7.463569
 20
5.045721
 30
0.000000
 11
7.109569
 21
5.045721
 31
0.000000
  0
LINE
  8
PILOTBRN
 62
     7
  6
CONTINUOUS
 10
7.463569
 20
4.651721
 30
0.000000
 11
7.109569
 21
4.651721
 31
0.000000
  0
LINE
  8
HUB
 62
     7
  6
CONTINUOUS
 10
7.361568
 20
5.448720
 30
0.000000
 11
7.475569
 21
5.448720
 31
0.000000
  0
LINE
  8
HUB
 62
     7
  6
CONTINUOUS
 10
7.475569
 20
5.448720
 30
0.000000
 11
7.475569
 21
4.248721
 31
0.000000
  0
LINE
  8
HUB
 62
     7
  6
CONTINUOUS
 10
7.475569
 20
4.248721
 30
0.000000
 11
7.361568
 21
4.248721
 31
0.000000
  0
LINE
  8
HUB
 62
     7
  6
CONTINUOUS
 10
8.361568
 20
5.973721
 30
0.000000
 11
8.361568
 21
6.187221
 31
0.000000
  0
LINE
  8
HUB
 62
     7
  6
CONTINUOUS
 10
8.361568
 20
3.723721
 30
0.000000
 11
8.361568
 21
3.510221
 31
0.000000
  0
POINT
  8
HUB
 62
     7
 10
7.487069
 20
4.144698
 30
0.000000
  0
LINE
  8
HUB
 62
     7
  6
CONTINUOUS
 10
7.674569
 20
3.980699
 30
0.000000
 11
7.361568
 21
3.980699
 31
0.000000
  0
LINE
  8
HUB
 62
     7
  6
CONTINUOUS
 10
7.674569
 20
4.308698
 30
0.000000
 11
7.475569
 21
4.308698
 31
0.000000
  0
LINE
  8
HUB
 62
     7
  6
CONTINUOUS
 10
7.361568
 20
6.047220
 30
0.000000
 11
7.986568
 21
6.047220
 31
0.000000
  0
LINE
  8
HUB
 62
     7
  6
CONTINUOUS
 10
7.986568
 20
6.047220
 30
0.000000
 11
7.986568
 21
5.703220
 31
0.000000
  0
LINE
  8
HUB
 62
     7
  6
CONTINUOUS
 10
7.986568
 20
5.703220
 30
0.000000
 11
7.361568
 21
5.703220
 31
0.000000
  0
POINT
  8
HUB
 62
     7
 10
7.361568
 20
5.875220
 30
0.000000
  0
LINE
  8
HUB
 62
     7
  6
CONTINUOUS
 10
9.486568
 20
5.786221
 30
0.000000
 11
8.111568
 21
5.648721
 31
0.000000
  0
POINT
  8
HUB
 62
     7
 10
8.157073
 20
4.044170
 30
0.000000
  0
LINE
  8
HUB
 62
     7
  6
CONTINUOUS
 10
8.157073
 20
4.044170
 30
0.000000
 11
9.486568
 21
3.911221
 31
0.000000
  0
LINE
  8
HUB
 62
     7
  6
CONTINUOUS
 10
8.111568
 20
5.648721
 30
0.000000
 11
8.111568
 21
4.044170
 31
0.000000
  0
LINE
  8
HUB
 62
     7
  6
CONTINUOUS
 10
8.361568
 20
5.973721
 30
0.000000
 11
9.486568
 21
5.973721
 31
0.000000
  0
LINE
  8
HUB
 62
     7
  6
CONTINUOUS
 10
8.361629
 20
3.723721
 30
0.000000
 11
9.486568
 21
3.723721
 31
0.000000
  0
LINE
  8
HUB
 62
     7
  6
CONTINUOUS
 10
7.674569
 20
4.044170
 30
0.000000
 11
8.157073
 21
4.044170
 31
0.000000
  0
LINE
  8
HUB
 62
     7
  6
CONTINUOUS
 10
7.674569
 20
4.247271
 30
0.000000
 11
8.111568
 21
4.247271
 31
0.000000
  0
LINE
  8
HUB
 62
     7
  6
CONTINUOUS
 10
7.475569
 20
4.473721
 30
0.000000
 11
8.111568
 21
4.473721
 31
0.000000
  0
LINE
  8
HUB
 62
     7
  6
CONTINUOUS
 10
7.475569
 20
5.223721
 30
0.000000
 11
8.111568
 21
5.223721
 31
0.000000
  0
LINE
  8
HUB
 62
     7
  6
CONTINUOUS
 10
7.986568
 20
5.875220
 30
0.000000
 11
7.216599
 21
5.875220
 31
0.000000
  0
POINT
  8
HUB
 62
     7
 10
7.361568
 20
5.875220
 30
0.000000
  0
POINT
  8
HUB
 62
     7
 10
7.361568
 20
5.875220
 30
0.000000
  0
LINE
  8
HUB
 62
     7
  6
CONTINUOUS
 10
7.392569
 20
6.015720
 30
0.000000
 11
7.392569
 21
5.734720
 31
0.000000
  0
LINE
  8
HUB
 62
     7
  6
CONTINUOUS
 10
7.424068
 20
6.047220
 30
0.000000
 11
7.424068
 21
5.703220
 31
0.000000
  0
LINE
  8
HUB
 62
     7
  6
CONTINUOUS
 10
7.455318
 20
6.015720
 30
0.000000
 11
7.455318
 21
5.734720
 31
0.000000
  0
LINE
  8
HUB
 62
     7
  6
CONTINUOUS
 10
7.518068
 20
6.015720
 30
0.000000
 11
7.518068
 21
5.734720
 31
0.000000
  0
LINE
  8
HUB
 62
     7
  6
CONTINUOUS
 10
7.580818
 20
6.015720
 30
0.000000
 11
7.580818
 21
5.734720
 31
0.000000
  0
LINE
  8
HUB
 62
     7
  6
CONTINUOUS
 10
7.643568
 20
6.015720
 30
0.000000
 11
7.643568
 21
5.734720
 31
0.000000
  0
LINE
  8
HUB
 62
     7
  6
CONTINUOUS
 10
7.706318
 20
6.015720
 30
0.000000
 11
7.706318
 21
5.734720
 31
0.000000
  0
LINE
  8
HUB
 62
     7
  6
CONTINUOUS
 10
7.769068
 20
6.015720
 30
0.000000
 11
7.769068
 21
5.734720
 31
0.000000
  0
LINE
  8
HUB
 62
     7
  6
CONTINUOUS
 10
7.831818
 20
6.015720
 30
0.000000
 11
7.831818
 21
5.734720
 31
0.000000
  0
LINE
  8
HUB
 62
     7
  6
CONTINUOUS
 10
7.486568
 20
6.047220
 30
0.000000
 11
7.486568
 21
5.703220
 31
0.000000
  0
LINE
  8
HUB
 62
     7
  6
CONTINUOUS
 10
7.549068
 20
6.047220
 30
0.000000
 11
7.549068
 21
5.703220
 31
0.000000
  0
LINE
  8
HUB
 62
     7
  6
CONTINUOUS
 10
7.611568
 20
6.047220
 30
0.000000
 11
7.611568
 21
5.703220
 31
0.000000
  0
LINE
  8
HUB
 62
     7
  6
CONTINUOUS
 10
7.674068
 20
6.047220
 30
0.000000
 11
7.674068
 21
5.703220
 31
0.000000
  0
LINE
  8
HUB
 62
     7
  6
CONTINUOUS
 10
7.736568
 20
6.047220
 30
0.000000
 11
7.736568
 21
5.703220
 31
0.000000
  0
LINE
  8
HUB
 62
     7
  6
CONTINUOUS
 10
7.799068
 20
6.047220
 30
0.000000
 11
7.799068
 21
5.703220
 31
0.000000
  0
LINE
  8
HUB
 62
     7
  6
CONTINUOUS
 10
7.861568
 20
6.047220
 30
0.000000
 11
7.861568
 21
5.703220
 31
0.000000
  0
LINE
  8
HUB
 62
     7
  6
CONTINUOUS
 10
9.486568
 20
5.786221
 30
0.000000
 11
9.486568
 21
5.973721
 31
0.000000
  0
LINE
  8
HUB
 62
     7
  6
CONTINUOUS
 10
9.486568
 20
3.911221
 30
0.000000
 11
9.486568
 21
3.723721
 31
0.000000
  0
LINE
  8
PLATE
 62
     7
  6
CONTINUOUS
 10
7.894568
 20
6.187221
 30
0.000000
 11
7.894568
 21
10.718202
 31
0.000000
  0
LINE
  8
PLATE
 62
     7
  6
CONTINUOUS
 10
7.894568
 20
3.510221
 30
0.000000
 11
7.894568
 21
-1.020760
 31
0.000000
  0
LINE
  8
PLATE
 62
     7
  6
CONTINUOUS
 10
8.394568
 20
3.723721
 30
0.000000
 11
8.394568
 21
1.848722
 31
0.000000
  0
LINE
  8
PLATE
 62
     7
  6
CONTINUOUS
 10
8.394568
 20
7.848722
 30
0.000000
 11
8.394568
 21
5.973721
 31
0.000000
  0
LINE
  8
HUB
 62
     7
  6
CONTINUOUS
 10
7.674569
 20
4.309721
 30
0.000000
 11
7.674569
 21
3.980699
 31
0.000000
  0
POINT
  8
BUSHING
 62
     7
 10
8.236568
 20
4.848721
 30
0.000000
  0
POINT
  8
BUSHING
 62
     7
 10
8.236568
 20
4.848721
 30
0.000000
  0
POINT
  8
BUSHING
 62
     7
 10
8.236568
 20
4.848721
 30
0.000000
  0
LINE
  8
BUSHING
 62
     7
  6
CONTINUOUS
 10
8.236568
 20
4.848721
 30
0.000000
 11
8.236568
 21
5.661221
 31
0.000000
  0
POINT
  8
BUSHING
 62
     7
 10
9.361889
 20
4.145613
 30
0.000000
  0
POINT
  8
BUSHING
 62
     7
 10
9.361889
 20
4.145613
 30
0.000000
  0
POINT
  8
BUSHING
 62
     7
 10
9.361897
 20
4.145613
 30
0.000000
  0
POINT
  8
BUSHING
 62
     7
 10
9.361897
 20
4.145613
 30
0.000000
  0
POINT
  8
BUSHING
 62
     7
 10
8.235428
 20
4.144693
 30
0.000000
  0
POINT
  8
BUSHING
 62
     7
 10
8.360428
 20
4.144693
 30
0.000000
  0
POINT
  8
BUSHING
 62
     7
 10
8.485428
 20
4.144693
 30
0.000000
  0
POINT
  8
BUSHING
 62
     7
 10
8.485428
 20
4.144693
 30
0.000000
  0
LINE
  8
BUSHING
 62
     7
  6
CONTINUOUS
 10
8.360428
 20
4.144693
 30
0.000000
 11
8.360428
 21
4.089993
 31
0.000000
  0
LINE
  8
BUSHING
 62
     7
  6
CONTINUOUS
 10
8.360428
 20
4.144693
 30
0.000000
 11
8.360428
 21
4.199392
 31
0.000000
  0
LINE
  8
BUSHING
 62
     7
  6
CONTINUOUS
 10
8.485428
 20
4.144693
 30
0.000000
 11
8.485428
 21
4.058306
 31
0.000000
  0
LINE
  8
BUSHING
 62
     7
  6
CONTINUOUS
 10
8.485428
 20
4.144693
 30
0.000000
 11
8.485428
 21
4.231079
 31
0.000000
  0
POINT
  8
BUSHING
 62
     7
 10
8.735428
 20
4.144693
 30
0.000000
  0
POINT
  8
BUSHING
 62
     7
 10
8.610428
 20
4.144693
 30
0.000000
  0
POINT
  8
BUSHING
 62
     7
 10
8.610428
 20
4.144693
 30
0.000000
  0
LINE
  8
BUSHING
 62
     7
  6
CONTINUOUS
 10
8.610428
 20
4.144693
 30
0.000000
 11
8.610428
 21
4.089993
 31
0.000000
  0
LINE
  8
BUSHING
 62
     7
  6
CONTINUOUS
 10
8.610428
 20
4.144693
 30
0.000000
 11
8.610428
 21
4.199392
 31
0.000000
  0
POINT
  8
BUSHING
 62
     7
 10
8.860428
 20
4.144693
 30
0.000000
  0
LINE
  8
BUSHING
 62
     7
  6
CONTINUOUS
 10
8.860428
 20
4.144693
 30
0.000000
 11
8.860428
 21
4.089993
 31
0.000000
  0
LINE
  8
BUSHING
 62
     7
  6
CONTINUOUS
 10
8.860428
 20
4.144693
 30
0.000000
 11
8.860428
 21
4.199392
 31
0.000000
  0
POINT
  8
BUSHING
 62
     7
 10
9.110428
 20
4.144693
 30
0.000000
  0
LINE
  8
BUSHING
 62
     7
  6
CONTINUOUS
 10
9.110428
 20
4.144693
 30
0.000000
 11
9.110428
 21
4.089993
 31
0.000000
  0
LINE
  8
BUSHING
 62
     7
  6
CONTINUOUS
 10
9.110428
 20
4.144693
 30
0.000000
 11
9.110428
 21
4.199392
 31
0.000000
  0
POINT
  8
BUSHING
 62
     7
 10
9.360428
 20
4.144693
 30
0.000000
  0
LINE
  8
BUSHING
 62
     7
  6
CONTINUOUS
 10
9.360428
 20
4.144693
 30
0.000000
 11
9.360428
 21
4.089993
 31
0.000000
  0
LINE
  8
BUSHING
 62
     7
  6
CONTINUOUS
 10
9.360428
 20
4.144693
 30
0.000000
 11
9.360428
 21
4.199392
 31
0.000000
  0
POINT
  8
BUSHING
 62
     7
 10
8.735428
 20
4.144693
 30
0.000000
  0
POINT
  8
BUSHING
 62
     7
 10
8.735428
 20
4.144693
 30
0.000000
  0
LINE
  8
BUSHING
 62
     7
  6
CONTINUOUS
 10
8.735428
 20
4.144693
 30
0.000000
 11
8.735428
 21
4.058306
 31
0.000000
  0
LINE
  8
BUSHING
 62
     7
  6
CONTINUOUS
 10
8.735428
 20
4.144693
 30
0.000000
 11
8.735428
 21
4.231079
 31
0.000000
  0
POINT
  8
BUSHING
 62
     7
 10
8.985428
 20
4.144693
 30
0.000000
  0
POINT
  8
BUSHING
 62
     7
 10
8.985428
 20
4.144693
 30
0.000000
  0
LINE
  8
BUSHING
 62
     7
  6
CONTINUOUS
 10
8.985428
 20
4.144693
 30
0.000000
 11
8.985428
 21
4.058306
 31
0.000000
  0
LINE
  8
BUSHING
 62
     7
  6
CONTINUOUS
 10
8.985428
 20
4.144693
 30
0.000000
 11
8.985428
 21
4.231079
 31
0.000000
  0
POINT
  8
BUSHING
 62
     7
 10
9.235428
 20
4.144693
 30
0.000000
  0
POINT
  8
BUSHING
 62
     7
 10
9.235428
 20
4.144693
 30
0.000000
  0
LINE
  8
BUSHING
 62
     7
  6
CONTINUOUS
 10
9.235428
 20
4.144693
 30
0.000000
 11
9.235428
 21
4.058306
 31
0.000000
  0
LINE
  8
BUSHING
 62
     7
  6
CONTINUOUS
 10
9.235428
 20
4.144693
 30
0.000000
 11
9.235428
 21
4.231079
 31
0.000000
  0
POINT
  8
BUSHING
 62
     7
 10
8.236568
 20
4.848721
 30
0.000000
  0
LINE
  8
BUSHING
 62
     7
  6
CONTINUOUS
 10
8.236568
 20
4.036221
 30
0.000000
 11
8.236568
 21
4.848721
 31
0.000000
  0
LINE
  8
BUSHING
 62
     7
  6
CONTINUOUS
 10
8.236568
 20
4.286229
 30
0.000000
 11
9.486568
 21
4.286229
 31
0.000000
  0
LINE
  8
BUSHING
 62
     7
  6
CONTINUOUS
 10
8.236568
 20
4.231562
 30
0.000000
 11
9.486568
 21
4.231562
 31
0.000000
  0
LINE
  8
BUSHING
 62
     7
  6
CONTINUOUS
 10
8.239075
 20
5.411212
 30
0.000000
 11
9.486568
 21
5.411212
 31
0.000000
  0
LINE
  8
BUSHING
 62
     7
  6
CONTINUOUS
 10
8.236568
 20
5.661221
 30
0.000000
 11
9.486568
 21
5.786221
 31
0.000000
  0
LINE
  8
BUSHING
 62
     7
  6
CONTINUOUS
 10
8.236568
 20
4.036221
 30
0.000000
 11
9.486568
 21
3.911221
 31
0.000000
  0
LINE
  8
BUSHING
 62
     7
  6
CONTINUOUS
 10
8.236568
 20
4.059662
 30
0.000000
 11
9.486568
 21
4.059662
 31
0.000000
  0
LINE
  8
BUSHING
 62
     7
  6
CONTINUOUS
 10
8.235428
 20
4.144693
 30
0.000000
 11
9.486568
 21
4.144693
 31
0.000000
  0
LINE
  8
BUSHING
 62
     7
  6
CONTINUOUS
 10
9.486568
 20
5.411212
 30
0.000000
 11
9.486568
 21
5.786221
 31
0.000000
  0
LINE
  8
BUSHING
 62
     7
  6
CONTINUOUS
 10
9.486568
 20
4.286229
 30
0.000000
 11
9.486568
 21
3.911221
 31
0.000000
  0
POINT
  8
RING
 62
     7
 10
8.396152
 20
8.723720
 30
0.000000
  0
POINT
  8
RING
 62
     7
 10
8.396040
 20
8.223720
 30
0.000000
  0
LINE
  8
RING
 62
     7
  6
CONTINUOUS
 10
8.459065
 20
8.473077
 30
0.000000
 11
8.459065
 21
8.723655
 31
0.000000
  0
LINE
  8
RING
 62
     7
  6
CONTINUOUS
 10
8.459065
 20
8.473077
 30
0.000000
 11
8.459065
 21
8.231212
 31
0.000000
  0
LINE
  8
RING
 62
     7
  6
CONTINUOUS
 10
8.521557
 20
8.473077
 30
0.000000
 11
8.521557
 21
8.684077
 31
0.000000
  0
LINE
  8
RING
 62
     7
  6
CONTINUOUS
 10
8.521557
 20
8.472018
 30
0.000000
 11
8.521557
 21
8.261018
 31
0.000000
  0
LINE
  8
RING
 62
     7
  6
CONTINUOUS
 10
8.584048
 20
8.473077
 30
0.000000
 11
8.584048
 21
8.723655
 31
0.000000
  0
LINE
  8
RING
 62
     7
  6
CONTINUOUS
 10
8.584048
 20
8.473077
 30
0.000000
 11
8.584048
 21
8.231212
 31
0.000000
  0
LINE
  8
RING
 62
     7
  6
CONTINUOUS
 10
8.709031
 20
8.473077
 30
0.000000
 11
8.709031
 21
8.723655
 31
0.000000
  0
LINE
  8
RING
 62
     7
  6
CONTINUOUS
 10
8.709031
 20
8.473077
 30
0.000000
 11
8.709031
 21
8.231212
 31
0.000000
  0
LINE
  8
RING
 62
     7
  6
CONTINUOUS
 10
8.834014
 20
8.473077
 30
0.000000
 11
8.834014
 21
8.723655
 31
0.000000
  0
LINE
  8
RING
 62
     7
  6
CONTINUOUS
 10
8.834014
 20
8.473077
 30
0.000000
 11
8.834014
 21
8.231212
 31
0.000000
  0
LINE
  8
RING
 62
     7
  6
CONTINUOUS
 10
8.958997
 20
8.473077
 30
0.000000
 11
8.958997
 21
8.723655
 31
0.000000
  0
LINE
  8
RING
 62
     7
  6
CONTINUOUS
 10
8.958997
 20
8.473077
 30
0.000000
 11
8.958997
 21
8.231212
 31
0.000000
  0
LINE
  8
RING
 62
     7
  6
CONTINUOUS
 10
9.083980
 20
8.473077
 30
0.000000
 11
9.083980
 21
8.723655
 31
0.000000
  0
LINE
  8
RING
 62
     7
  6
CONTINUOUS
 10
9.083980
 20
8.473077
 30
0.000000
 11
9.083980
 21
8.231212
 31
0.000000
  0
LINE
  8
RING
 62
     7
  6
CONTINUOUS
 10
9.208962
 20
8.473077
 30
0.000000
 11
9.208962
 21
8.723655
 31
0.000000
  0
LINE
  8
RING
 62
     7
  6
CONTINUOUS
 10
9.208962
 20
8.473077
 30
0.000000
 11
9.208962
 21
8.231212
 31
0.000000
  0
LINE
  8
RING
 62
     7
  6
CONTINUOUS
 10
9.333945
 20
8.473077
 30
0.000000
 11
9.333945
 21
8.723655
 31
0.000000
  0
LINE
  8
RING
 62
     7
  6
CONTINUOUS
 10
9.333945
 20
8.473077
 30
0.000000
 11
9.333945
 21
8.231212
 31
0.000000
  0
LINE
  8
RING
 62
     7
  6
CONTINUOUS
 10
9.458928
 20
8.473077
 30
0.000000
 11
9.458928
 21
8.723655
 31
0.000000
  0
LINE
  8
RING
 62
     7
  6
CONTINUOUS
 10
9.458928
 20
8.473077
 30
0.000000
 11
9.458928
 21
8.231212
 31
0.000000
  0
LINE
  8
RING
 62
     7
  6
CONTINUOUS
 10
9.583911
 20
8.473077
 30
0.000000
 11
9.583911
 21
8.723655
 31
0.000000
  0
LINE
  8
RING
 62
     7
  6
CONTINUOUS
 10
9.583911
 20
8.473077
 30
0.000000
 11
9.583911
 21
8.231212
 31
0.000000
  0
LINE
  8
RING
 62
     7
  6
CONTINUOUS
 10
9.708894
 20
8.473077
 30
0.000000
 11
9.708894
 21
8.723655
 31
0.000000
  0
LINE
  8
RING
 62
     7
  6
CONTINUOUS
 10
9.708894
 20
8.473077
 30
0.000000
 11
9.708894
 21
8.231212
 31
0.000000
  0
LINE
  8
RING
 62
     7
  6
CONTINUOUS
 10
8.646540
 20
8.473077
 30
0.000000
 11
8.646540
 21
8.684077
 31
0.000000
  0
LINE
  8
RING
 62
     7
  6
CONTINUOUS
 10
8.646540
 20
8.472018
 30
0.000000
 11
8.646540
 21
8.261018
 31
0.000000
  0
LINE
  8
RING
 62
     7
  6
CONTINUOUS
 10
8.771523
 20
8.473077
 30
0.000000
 11
8.771523
 21
8.684077
 31
0.000000
  0
LINE
  8
RING
 62
     7
  6
CONTINUOUS
 10
8.771523
 20
8.472018
 30
0.000000
 11
8.771523
 21
8.261018
 31
0.000000
  0
LINE
  8
RING
 62
     7
  6
CONTINUOUS
 10
8.896505
 20
8.473077
 30
0.000000
 11
8.896505
 21
8.684077
 31
0.000000
  0
LINE
  8
RING
 62
     7
  6
CONTINUOUS
 10
8.896505
 20
8.472018
 30
0.000000
 11
8.896505
 21
8.261018
 31
0.000000
  0
LINE
  8
RING
 62
     7
  6
CONTINUOUS
 10
9.021488
 20
8.473077
 30
0.000000
 11
9.021488
 21
8.684077
 31
0.000000
  0
LINE
  8
RING
 62
     7
  6
CONTINUOUS
 10
9.021488
 20
8.472018
 30
0.000000
 11
9.021488
 21
8.261018
 31
0.000000
  0
LINE
  8
RING
 62
     7
  6
CONTINUOUS
 10
9.146471
 20
8.473077
 30
0.000000
 11
9.146471
 21
8.684077
 31
0.000000
  0
LINE
  8
RING
 62
     7
  6
CONTINUOUS
 10
9.146471
 20
8.472018
 30
0.000000
 11
9.146471
 21
8.261018
 31
0.000000
  0
LINE
  8
RING
 62
     7
  6
CONTINUOUS
 10
9.271454
 20
8.473077
 30
0.000000
 11
9.271454
 21
8.684077
 31
0.000000
  0
LINE
  8
RING
 62
     7
  6
CONTINUOUS
 10
9.271454
 20
8.472018
 30
0.000000
 11
9.271454
 21
8.261018
 31
0.000000
  0
LINE
  8
RING
 62
     7
  6
CONTINUOUS
 10
9.396437
 20
8.473077
 30
0.000000
 11
9.396437
 21
8.684077
 31
0.000000
  0
LINE
  8
RING
 62
     7
  6
CONTINUOUS
 10
9.396437
 20
8.472018
 30
0.000000
 11
9.396437
 21
8.261018
 31
0.000000
  0
LINE
  8
RING
 62
     7
  6
CONTINUOUS
 10
9.521420
 20
8.473077
 30
0.000000
 11
9.521420
 21
8.684077
 31
0.000000
  0
LINE
  8
RING
 62
     7
  6
CONTINUOUS
 10
9.521420
 20
8.472018
 30
0.000000
 11
9.521420
 21
8.261018
 31
0.000000
  0
LINE
  8
RING
 62
     7
  6
CONTINUOUS
 10
9.646402
 20
8.473077
 30
0.000000
 11
9.646402
 21
8.684077
 31
0.000000
  0
LINE
  8
RING
 62
     7
  6
CONTINUOUS
 10
9.646402
 20
8.472018
 30
0.000000
 11
9.646402
 21
8.261018
 31
0.000000
  0
POINT
  8
RING
 62
     7
 10
8.396568
 20
0.606429
 30
0.000000
  0
POINT
  8
RING
 62
     7
 10
8.396568
 20
0.648721
 30
0.000000
  0
POINT
  8
RING
 62
     7
 10
8.396568
 20
0.648721
 30
0.000000
  0
POINT
  8
RING
 62
     7
 10
8.394638
 20
0.945714
 30
0.000000
  0
POINT
  8
RING
 62
     7
 10
8.396568
 20
0.606429
 30
0.000000
  0
POINT
  8
RING
 62
     7
 10
8.396568
 20
0.648721
 30
0.000000
  0
POINT
  8
RING
 62
     7
 10
8.396568
 20
0.648721
 30
0.000000
  0
LINE
  8
RING
 62
     7
  6
CONTINUOUS
 10
8.693439
 20
0.351727
 30
0.000000
 11
9.068439
 21
0.351727
 31
0.000000
  0
LINE
  8
RING
 62
     7
  6
CONTINUOUS
 10
9.068439
 20
0.351727
 30
0.000000
 11
9.068439
 21
0.945728
 31
0.000000
  0
LINE
  8
RING
 62
     7
  6
CONTINUOUS
 10
9.068439
 20
0.945728
 30
0.000000
 11
8.394638
 21
0.945728
 31
0.000000
  0
LINE
  8
RING
 62
     7
  6
CONTINUOUS
 10
8.396568
 20
9.098722
 30
0.000000
 11
8.584068
 21
9.098722
 31
0.000000
  0
LINE
  8
RING
 62
     7
  6
CONTINUOUS
 10
8.584068
 20
9.098722
 30
0.000000
 11
8.721082
 21
9.413720
 31
0.000000
  0
LINE
  8
RING
 62
     7
  6
CONTINUOUS
 10
8.396568
 20
0.606429
 30
0.000000
 11
8.579068
 21
0.606429
 31
0.000000
  0
LINE
  8
RING
 62
     7
  6
CONTINUOUS
 10
8.579068
 20
0.606429
 30
0.000000
 11
8.722227
 21
0.283720
 31
0.000000
  0
POINT
  8
RING
 62
     7
 10
8.398675
 20
7.848720
 30
0.000000
  0
LINE
  8
RING
 62
     7
  6
CONTINUOUS
 10
8.398675
 20
7.848720
 30
0.000000
 11
8.711175
 21
7.848720
 31
0.000000
  0
LINE
  8
RING
 62
     7
  6
CONTINUOUS
 10
8.711175
 20
7.848720
 30
0.000000
 11
8.711175
 21
6.848721
 31
0.000000
  0
LINE
  8
RING
 62
     7
  6
CONTINUOUS
 10
8.396081
 20
1.848721
 30
0.000000
 11
8.708581
 21
1.848721
 31
0.000000
  0
LINE
  8
RING
 62
     7
  6
CONTINUOUS
 10
8.708581
 20
1.848721
 30
0.000000
 11
8.708581
 21
2.848721
 31
0.000000
  0
LINE
  8
RING
 62
     7
  6
CONTINUOUS
 10
9.789903
 20
8.723720
 30
0.000000
 11
9.789903
 21
8.223720
 31
0.000000
  0
LINE
  8
RING
 62
     7
  6
CONTINUOUS
 10
8.396568
 20
3.723721
 30
0.000000
 11
8.396568
 21
0.598721
 31
0.000000
  0
LINE
  8
RING
 62
     7
  6
CONTINUOUS
 10
8.396568
 20
5.973721
 30
0.000000
 11
8.396568
 21
9.098722
 31
0.000000
  0
LINE
  8
RING
 62
     7
  6
CONTINUOUS
 10
8.708581
 20
2.848721
 30
0.000000
 11
8.708581
 21
3.723721
 31
0.000000
  0
LINE
  8
RING
 62
     7
  6
CONTINUOUS
 10
8.711175
 20
6.848721
 30
0.000000
 11
8.711175
 21
5.973721
 31
0.000000
  0
POINT
  8
ADC9
 62
     7
 10
8.299569
 20
4.848721
 30
0.000000
  0
POINT
  8
ADC9
 62
     7
 10
10.316246
 20
4.848721
 30
0.000000
  0
LINE
  8
ADC9
 62
     7
  6
CONTINUOUS
 10
10.316246
 20
4.848721
 30
0.000000
 11
10.316246
 21
9.413720
 31
0.000000
  0
LINE
  8
ADC9
 62
     7
  6
CONTINUOUS
 10
10.316246
 20
4.848721
 30
0.000000
 11
10.316246
 21
0.283720
 31
0.000000
  0
LINE
  8
ADC9
 62
     7
  6
CONTINUOUS
 10
10.316246
 20
0.283720
 30
0.000000
 11
11.846153
 21
0.283720
 31
0.000000
  0
LINE
  8
ADC9
 62
     7
  6
CONTINUOUS
 10
10.316246
 20
9.413720
 30
0.000000
 11
11.814378
 21
9.413720
 31
0.000000
  0
POINT
  8
ADC9
 62
     7
 10
10.316246
 20
4.848721
 30
0.000000
  0
POINT
  8
ADC9
 62
     7
 10
10.316246
 20
4.848721
 30
0.000000
  0
LINE
  8
ADC9
 62
     7
  6
CONTINUOUS
 10
10.316246
 20
9.413720
 30
0.000000
 11
10.316246
 21
4.848721
 31
0.000000
  0
LINE
  8
ADC9
 62
     7
  6
CONTINUOUS
 10
10.129569
 20
6.848716
 30
0.000000
 11
10.129569
 21
2.848725
 31
0.000000
  0
POINT
  8
ADC9
 62
     7
 10
10.129569
 20
4.848721
 30
0.000000
  0
POINT
  8
ADC9
 62
     7
 10
10.139513
 20
6.447690
 30
0.000000
  0
POINT
  8
ADC9
 62
     7
 10
10.136326
 20
3.249691
 30
0.000000
  0
POINT
  8
ADC9
 62
     7
 10
10.129569
 20
4.848721
 30
0.000000
  0
POINT
  8
ADC9
 62
     7
 10
9.787569
 20
4.848721
 30
0.000000
  0
LINE
  8
ADC9
 62
     7
  6
CONTINUOUS
 10
9.787569
 20
4.848721
 30
0.000000
 11
9.787569
 21
6.288720
 31
0.000000
  0
LINE
  8
ADC9
 62
     7
  6
CONTINUOUS
 10
9.787569
 20
4.848721
 30
0.000000
 11
9.787569
 21
3.408720
 31
0.000000
  0
LINE
  8
ADC9
 62
     7
  6
CONTINUOUS
 10
9.787569
 20
3.408720
 30
0.000000
 11
10.136326
 21
3.249691
 31
0.000000
  0
LINE
  8
ADC9
 62
     7
  6
CONTINUOUS
 10
9.787569
 20
6.288720
 30
0.000000
 11
10.139513
 21
6.447690
 31
0.000000
  0
POINT
  8
ADC9
 62
     7
 10
9.787569
 20
4.848721
 30
0.000000
  0
POINT
  8
ADC9
 62
     7
 10
9.787569
 20
4.848721
 30
0.000000
  0
POINT
  8
ADC9
 62
     7
 10
8.299569
 20
4.848721
 30
0.000000
  0
LINE
  8
ADC9
 62
     7
  6
CONTINUOUS
 10
8.299569
 20
4.848721
 30
0.000000
 11
8.299569
 21
5.348651
 31
0.000000
  0
LINE
  8
ADC9
 62
     7
  6
CONTINUOUS
 10
8.299569
 20
4.848721
 30
0.000000
 11
8.299569
 21
4.348721
 31
0.000000
  0
POINT
  8
ADC9
 62
     7
 10
8.299569
 20
4.848721
 30
0.000000
  0
POINT
  8
ADC9
 62
     7
 10
8.299569
 20
4.848721
 30
0.000000
  0
POINT
  8
ADC9
 62
     7
 10
8.359557
 20
4.849930
 30
0.000000
  0
POINT
  8
ADC9
 62
     7
 10
8.359557
 20
5.412430
 30
0.000000
  0
POINT
  8
ADC9
 62
     7
 10
8.359557
 20
4.287430
 30
0.000000
  0
LINE
  8
ADC9
 62
     7
  6
CONTINUOUS
 10
8.359557
 20
5.412430
 30
0.000000
 11
9.787569
 21
5.412430
 31
0.000000
  0
LINE
  8
ADC9
 62
     7
  6
CONTINUOUS
 10
8.359557
 20
4.287430
 30
0.000000
 11
9.787569
 21
4.287430
 31
0.000000
  0
LINE
  8
ADC9
 62
     7
  6
CONTINUOUS
 10
8.359557
 20
4.849930
 30
0.000000
 11
8.359557
 21
5.412430
 31
0.000000
  0
LINE
  8
ADC9
 62
     7
  6
CONTINUOUS
 10
8.359557
 20
4.849930
 30
0.000000
 11
8.359557
 21
4.287430
 31
0.000000
  0
LINE
  8
ADC9
 62
     7
  6
CONTINUOUS
 10
8.359557
 20
4.287430
 30
0.000000
 11
8.299569
 21
4.348721
 31
0.000000
  0
LINE
  8
ADC9
 62
     7
  6
CONTINUOUS
 10
8.299569
 20
5.348651
 30
0.000000
 11
8.359557
 21
5.412430
 31
0.000000
  0
LINE
  8
RING
 62
     7
  6
CONTINUOUS
 10
8.721082
 20
9.413720
 30
0.000000
 11
10.316246
 21
9.413720
 31
0.000000
  0
LINE
  8
ADC9
 62
     7
  6
CONTINUOUS
 10
10.316246
 20
6.848716
 30
0.000000
 11
10.129569
 21
6.848716
 31
0.000000
  0
LINE
  8
RING
 62
     7
  6
CONTINUOUS
 10
10.129569
 20
6.848716
 30
0.000000
 11
8.711175
 21
6.848716
 31
0.000000
  0
LINE
  8
RING
 62
     7
  6
CONTINUOUS
 10
8.396040
 20
8.223720
 30
0.000000
 11
10.316246
 21
8.223720
 31
0.000000
  0
LINE
  8
RING
 62
     7
  6
CONTINUOUS
 10
8.396152
 20
8.723720
 30
0.000000
 11
10.316246
 21
8.723720
 31
0.000000
  0
LINE
  8
RING
 62
     7
  6
CONTINUOUS
 10
7.901747
 20
8.473720
 30
0.000000
 11
10.316246
 21
8.473720
 31
0.000000
  0
LINE
  8
RING
 62
     7
  6
CONTINUOUS
 10
10.129694
 20
2.848725
 30
0.000000
 11
8.708581
 21
2.848725
 31
0.000000
  0
LINE
  8
ADC9
 62
     7
  6
CONTINUOUS
 10
10.316246
 20
2.848725
 30
0.000000
 11
10.129694
 21
2.848725
 31
0.000000
  0
LINE
  8
RING
 62
     7
  6
CONTINUOUS
 10
9.067430
 20
0.445722
 30
0.000000
 11
10.316246
 21
0.445722
 31
0.000000
  0
LINE
  8
RING
 62
     7
  6
CONTINUOUS
 10
8.164865
 20
0.648721
 30
0.000000
 11
10.316246
 21
0.648721
 31
0.000000
  0
LINE
  8
RING
 62
     7
  6
CONTINUOUS
 10
9.067430
 20
0.851719
 30
0.000000
 11
10.316246
 21
0.851719
 31
0.000000
  0
LINE
  8
RING
 62
     7
  6
CONTINUOUS
 10
8.722227
 20
0.283720
 30
0.000000
 11
10.316246
 21
0.283720
 31
0.000000
  0
POINT
  8
HUB
 62
     7
 10
11.566246
 20
4.848721
 30
0.000000
  0
POINT
  8
HUB
 62
     7
 10
11.566246
 20
4.848721
 30
0.000000
  0
LINE
  8
HUB
 62
     7
  6
CONTINUOUS
 10
11.566246
 20
6.187221
 30
0.000000
 11
11.566246
 21
3.510221
 31
0.000000
  0
LINE
  8
HUB
 62
     7
  6
CONTINUOUS
 10
11.566246
 20
6.187221
 30
0.000000
 11
12.566246
 21
6.187221
 31
0.000000
  0
LINE
  8
HUB
 62
     7
  6
CONTINUOUS
 10
12.566246
 20
3.510221
 30
0.000000
 11
11.566246
 21
3.510221
 31
0.000000
  0
LINE
  8
HUB
 62
     7
  6
CONTINUOUS
 10
11.566246
 20
5.448720
 30
0.000000
 11
11.680246
 21
5.448720
 31
0.000000
  0
LINE
  8
HUB
 62
     7
  6
CONTINUOUS
 10
11.680246
 20
5.448720
 30
0.000000
 11
11.680246
 21
4.248721
 31
0.000000
  0
LINE
  8
HUB
 62
     7
  6
CONTINUOUS
 10
11.680246
 20
4.248721
 30
0.000000
 11
11.566246
 21
4.248721
 31
0.000000
  0
LINE
  8
HUB
 62
     7
  6
CONTINUOUS
 10
12.566246
 20
5.973721
 30
0.000000
 11
12.566246
 21
6.187221
 31
0.000000
  0
LINE
  8
HUB
 62
     7
  6
CONTINUOUS
 10
12.566246
 20
3.723721
 30
0.000000
 11
12.566246
 21
3.510221
 31
0.000000
  0
POINT
  8
HUB
 62
     7
 10
11.691746
 20
4.144698
 30
0.000000
  0
LINE
  8
HUB
 62
     7
  6
CONTINUOUS
 10
11.879246
 20
3.980699
 30
0.000000
 11
11.566246
 21
3.980699
 31
0.000000
  0
LINE
  8
HUB
 62
     7
  6
CONTINUOUS
 10
11.879246
 20
4.308698
 30
0.000000
 11
11.680246
 21
4.308698
 31
0.000000
  0
LINE
  8
HUB
 62
     7
  6
CONTINUOUS
 10
11.566246
 20
6.047220
 30
0.000000
 11
12.191246
 21
6.047220
 31
0.000000
  0
LINE
  8
HUB
 62
     7
  6
CONTINUOUS
 10
12.191246
 20
6.047220
 30
0.000000
 11
12.191246
 21
5.703220
 31
0.000000
  0
LINE
  8
HUB
 62
     7
  6
CONTINUOUS
 10
12.191246
 20
5.703220
 30
0.000000
 11
11.566246
 21
5.703220
 31
0.000000
  0
POINT
  8
HUB
 62
     7
 10
11.566246
 20
5.875220
 30
0.000000
  0
LINE
  8
HUB
 62
     7
  6
CONTINUOUS
 10
13.691246
 20
5.786221
 30
0.000000
 11
12.316246
 21
5.648721
 31
0.000000
  0
POINT
  8
HUB
 62
     7
 10
12.361751
 20
4.044170
 30
0.000000
  0
LINE
  8
HUB
 62
     7
  6
CONTINUOUS
 10
12.361751
 20
4.044170
 30
0.000000
 11
13.691246
 21
3.911221
 31
0.000000
  0
LINE
  8
HUB
 62
     7
  6
CONTINUOUS
 10
12.316246
 20
5.648721
 30
0.000000
 11
12.316246
 21
4.044170
 31
0.000000
  0
LINE
  8
HUB
 62
     7
  6
CONTINUOUS
 10
12.566246
 20
5.973721
 30
0.000000
 11
13.691246
 21
5.973721
 31
0.000000
  0
LINE
  8
HUB
 62
     7
  6
CONTINUOUS
 10
12.566307
 20
3.723721
 30
0.000000
 11
13.691246
 21
3.723721
 31
0.000000
  0
LINE
  8
HUB
 62
     7
  6
CONTINUOUS
 10
11.879246
 20
4.044170
 30
0.000000
 11
12.361751
 21
4.044170
 31
0.000000
  0
LINE
  8
HUB
 62
     7
  6
CONTINUOUS
 10
11.879246
 20
4.247271
 30
0.000000
 11
12.316246
 21
4.247271
 31
0.000000
  0
LINE
  8
HUB
 62
     7
  6
CONTINUOUS
 10
11.680246
 20
4.473721
 30
0.000000
 11
12.316246
 21
4.473721
 31
0.000000
  0
LINE
  8
HUB
 62
     7
  6
CONTINUOUS
 10
11.680246
 20
5.223721
 30
0.000000
 11
12.316246
 21
5.223721
 31
0.000000
  0
LINE
  8
HUB
 62
     7
  6
CONTINUOUS
 10
12.191246
 20
5.875220
 30
0.000000
 11
11.421277
 21
5.875220
 31
0.000000
  0
POINT
  8
HUB
 62
     7
 10
11.566246
 20
5.875220
 30
0.000000
  0
POINT
  8
HUB
 62
     7
 10
11.566246
 20
5.875220
 30
0.000000
  0
LINE
  8
HUB
 62
     7
  6
CONTINUOUS
 10
11.597246
 20
6.015720
 30
0.000000
 11
11.597246
 21
5.734720
 31
0.000000
  0
LINE
  8
HUB
 62
     7
  6
CONTINUOUS
 10
11.628746
 20
6.047220
 30
0.000000
 11
11.628746
 21
5.703220
 31
0.000000
  0
LINE
  8
HUB
 62
     7
  6
CONTINUOUS
 10
11.659996
 20
6.015720
 30
0.000000
 11
11.659996
 21
5.734720
 31
0.000000
  0
LINE
  8
HUB
 62
     7
  6
CONTINUOUS
 10
11.722746
 20
6.015720
 30
0.000000
 11
11.722746
 21
5.734720
 31
0.000000
  0
LINE
  8
HUB
 62
     7
  6
CONTINUOUS
 10
11.785496
 20
6.015720
 30
0.000000
 11
11.785496
 21
5.734720
 31
0.000000
  0
LINE
  8
HUB
 62
     7
  6
CONTINUOUS
 10
11.848246
 20
6.015720
 30
0.000000
 11
11.848246
 21
5.734720
 31
0.000000
  0
LINE
  8
HUB
 62
     7
  6
CONTINUOUS
 10
11.910995
 20
6.015720
 30
0.000000
 11
11.910995
 21
5.734720
 31
0.000000
  0
LINE
  8
HUB
 62
     7
  6
CONTINUOUS
 10
11.973745
 20
6.015720
 30
0.000000
 11
11.973745
 21
5.734720
 31
0.000000
  0
LINE
  8
HUB
 62
     7
  6
CONTINUOUS
 10
12.036495
 20
6.015720
 30
0.000000
 11
12.036495
 21
5.734720
 31
0.000000
  0
LINE
  8
HUB
 62
     7
  6
CONTINUOUS
 10
11.691246
 20
6.047220
 30
0.000000
 11
11.691246
 21
5.703220
 31
0.000000
  0
LINE
  8
HUB
 62
     7
  6
CONTINUOUS
 10
11.753746
 20
6.047220
 30
0.000000
 11
11.753746
 21
5.703220
 31
0.000000
  0
LINE
  8
HUB
 62
     7
  6
CONTINUOUS
 10
11.816246
 20
6.047220
 30
0.000000
 11
11.816246
 21
5.703220
 31
0.000000
  0
LINE
  8
HUB
 62
     7
  6
CONTINUOUS
 10
11.878746
 20
6.047220
 30
0.000000
 11
11.878746
 21
5.703220
 31
0.000000
  0
LINE
  8
HUB
 62
     7
  6
CONTINUOUS
 10
11.941246
 20
6.047220
 30
0.000000
 11
11.941246
 21
5.703220
 31
0.000000
  0
LINE
  8
HUB
 62
     7
  6
CONTINUOUS
 10
12.003746
 20
6.047220
 30
0.000000
 11
12.003746
 21
5.703220
 31
0.000000
  0
LINE
  8
HUB
 62
     7
  6
CONTINUOUS
 10
12.066246
 20
6.047220
 30
0.000000
 11
12.066246
 21
5.703220
 31
0.000000
  0
LINE
  8
HUB
 62
     7
  6
CONTINUOUS
 10
13.691246
 20
5.786221
 30
0.000000
 11
13.691246
 21
5.973721
 31
0.000000
  0
LINE
  8
HUB
 62
     7
  6
CONTINUOUS
 10
13.691246
 20
3.911221
 30
0.000000
 11
13.691246
 21
3.723721
 31
0.000000
  0
LINE
  8
HUB
 62
     7
  6
CONTINUOUS
 10
11.879246
 20
4.309721
 30
0.000000
 11
11.879246
 21
3.980699
 31
0.000000
  0
LINE
  8
HUB
 62
     7
  6
CONTINUOUS
 10
13.691246
 20
5.786221
 30
0.000000
 11
13.691246
 21
3.911221
 31
0.000000
  0
POINT
  8
BUSHING
 62
     7
 10
15.191246
 20
4.848721
 30
0.000000
  0
POINT
  8
BUSHING
 62
     7
 10
15.191246
 20
4.848721
 30
0.000000
  0
POINT
  8
BUSHING
 62
     7
 10
15.191246
 20
4.848721
 30
0.000000
  0
LINE
  8
BUSHING
 62
     7
  6
CONTINUOUS
 10
15.191246
 20
4.848721
 30
0.000000
 11
15.191246
 21
4.036221
 31
0.000000
  0
POINT
  8
BUSHING
 62
     7
 10
16.316566
 20
5.551829
 30
0.000000
  0
POINT
  8
BUSHING
 62
     7
 10
16.316566
 20
5.551829
 30
0.000000
  0
POINT
  8
BUSHING
 62
     7
 10
16.316574
 20
5.551829
 30
0.000000
  0
POINT
  8
BUSHING
 62
     7
 10
16.316574
 20
5.551829
 30
0.000000
  0
POINT
  8
BUSHING
 62
     7
 10
15.190105
 20
5.552748
 30
0.000000
  0
POINT
  8
BUSHING
 62
     7
 10
15.315105
 20
5.552748
 30
0.000000
  0
POINT
  8
BUSHING
 62
     7
 10
15.440105
 20
5.552748
 30
0.000000
  0
POINT
  8
BUSHING
 62
     7
 10
15.440105
 20
5.552748
 30
0.000000
  0
LINE
  8
BUSHING
 62
     7
  6
CONTINUOUS
 10
15.315105
 20
5.552748
 30
0.000000
 11
15.315105
 21
5.607448
 31
0.000000
  0
LINE
  8
BUSHING
 62
     7
  6
CONTINUOUS
 10
15.315105
 20
5.552748
 30
0.000000
 11
15.315105
 21
5.498048
 31
0.000000
  0
LINE
  8
BUSHING
 62
     7
  6
CONTINUOUS
 10
15.440105
 20
5.552748
 30
0.000000
 11
15.440105
 21
5.639135
 31
0.000000
  0
LINE
  8
BUSHING
 62
     7
  6
CONTINUOUS
 10
15.440105
 20
5.552748
 30
0.000000
 11
15.440105
 21
5.466362
 31
0.000000
  0
POINT
  8
BUSHING
 62
     7
 10
15.690105
 20
5.552748
 30
0.000000
  0
POINT
  8
BUSHING
 62
     7
 10
15.565105
 20
5.552748
 30
0.000000
  0
POINT
  8
BUSHING
 62
     7
 10
15.565105
 20
5.552748
 30
0.000000
  0
LINE
  8
BUSHING
 62
     7
  6
CONTINUOUS
 10
15.565105
 20
5.552748
 30
0.000000
 11
15.565105
 21
5.607448
 31
0.000000
  0
LINE
  8
BUSHING
 62
     7
  6
CONTINUOUS
 10
15.565105
 20
5.552748
 30
0.000000
 11
15.565105
 21
5.498048
 31
0.000000
  0
POINT
  8
BUSHING
 62
     7
 10
15.815105
 20
5.552748
 30
0.000000
  0
LINE
  8
BUSHING
 62
     7
  6
CONTINUOUS
 10
15.815105
 20
5.552748
 30
0.000000
 11
15.815105
 21
5.607448
 31
0.000000
  0
LINE
  8
BUSHING
 62
     7
  6
CONTINUOUS
 10
15.815105
 20
5.552748
 30
0.000000
 11
15.815105
 21
5.498048
 31
0.000000
  0
POINT
  8
BUSHING
 62
     7
 10
16.065105
 20
5.552748
 30
0.000000
  0
LINE
  8
BUSHING
 62
     7
  6
CONTINUOUS
 10
16.065105
 20
5.552748
 30
0.000000
 11
16.065105
 21
5.607448
 31
0.000000
  0
LINE
  8
BUSHING
 62
     7
  6
CONTINUOUS
 10
16.065105
 20
5.552748
 30
0.000000
 11
16.065105
 21
5.498048
 31
0.000000
  0
POINT
  8
BUSHING
 62
     7
 10
16.315105
 20
5.552748
 30
0.000000
  0
LINE
  8
BUSHING
 62
     7
  6
CONTINUOUS
 10
16.315105
 20
5.552748
 30
0.000000
 11
16.315105
 21
5.607448
 31
0.000000
  0
LINE
  8
BUSHING
 62
     7
  6
CONTINUOUS
 10
16.315105
 20
5.552748
 30
0.000000
 11
16.315105
 21
5.498048
 31
0.000000
  0
POINT
  8
BUSHING
 62
     7
 10
15.690105
 20
5.552748
 30
0.000000
  0
POINT
  8
BUSHING
 62
     7
 10
15.690105
 20
5.552748
 30
0.000000
  0
LINE
  8
BUSHING
 62
     7
  6
CONTINUOUS
 10
15.690105
 20
5.552748
 30
0.000000
 11
15.690105
 21
5.639135
 31
0.000000
  0
LINE
  8
BUSHING
 62
     7
  6
CONTINUOUS
 10
15.690105
 20
5.552748
 30
0.000000
 11
15.690105
 21
5.466362
 31
0.000000
  0
POINT
  8
BUSHING
 62
     7
 10
15.940105
 20
5.552748
 30
0.000000
  0
POINT
  8
BUSHING
 62
     7
 10
15.940105
 20
5.552748
 30
0.000000
  0
LINE
  8
BUSHING
 62
     7
  6
CONTINUOUS
 10
15.940105
 20
5.552748
 30
0.000000
 11
15.940105
 21
5.639135
 31
0.000000
  0
LINE
  8
BUSHING
 62
     7
  6
CONTINUOUS
 10
15.940105
 20
5.552748
 30
0.000000
 11
15.940105
 21
5.466362
 31
0.000000
  0
POINT
  8
BUSHING
 62
     7
 10
16.190105
 20
5.552748
 30
0.000000
  0
POINT
  8
BUSHING
 62
     7
 10
16.190105
 20
5.552748
 30
0.000000
  0
LINE
  8
BUSHING
 62
     7
  6
CONTINUOUS
 10
16.190105
 20
5.552748
 30
0.000000
 11
16.190105
 21
5.639135
 31
0.000000
  0
LINE
  8
BUSHING
 62
     7
  6
CONTINUOUS
 10
16.190105
 20
5.552748
 30
0.000000
 11
16.190105
 21
5.466362
 31
0.000000
  0
POINT
  8
BUSHING
 62
     7
 10
15.191246
 20
4.848721
 30
0.000000
  0
LINE
  8
BUSHING
 62
     7
  6
CONTINUOUS
 10
15.191246
 20
5.661221
 30
0.000000
 11
15.191246
 21
4.848721
 31
0.000000
  0
LINE
  8
BUSHING
 62
     7
  6
CONTINUOUS
 10
16.441246
 20
4.848721
 30
0.000000
 11
16.441246
 21
5.786221
 31
0.000000
  0
LINE
  8
BUSHING
 62
     7
  6
CONTINUOUS
 10
16.441246
 20
4.848721
 30
0.000000
 11
16.441246
 21
3.911221
 31
0.000000
  0
LINE
  8
BUSHING
 62
     7
  6
CONTINUOUS
 10
15.191246
 20
5.411212
 30
0.000000
 11
16.441246
 21
5.411212
 31
0.000000
  0
LINE
  8
BUSHING
 62
     7
  6
CONTINUOUS
 10
15.191246
 20
5.465879
 30
0.000000
 11
16.441246
 21
5.465879
 31
0.000000
  0
LINE
  8
BUSHING
 62
     7
  6
CONTINUOUS
 10
15.193752
 20
4.286229
 30
0.000000
 11
16.441246
 21
4.286229
 31
0.000000
  0
LINE
  8
BUSHING
 62
     7
  6
CONTINUOUS
 10
15.191246
 20
4.036221
 30
0.000000
 11
16.441246
 21
3.911221
 31
0.000000
  0
LINE
  8
BUSHING
 62
     7
  6
CONTINUOUS
 10
15.191246
 20
5.661221
 30
0.000000
 11
16.441246
 21
5.786221
 31
0.000000
  0
LINE
  8
BUSHING
 62
     7
  6
CONTINUOUS
 10
15.191246
 20
5.637779
 30
0.000000
 11
16.441246
 21
5.637779
 31
0.000000
  0
LINE
  8
BUSHING
 62
     7
  6
CONTINUOUS
 10
15.190105
 20
5.552748
 30
0.000000
 11
16.441246
 21
5.552748
 31
0.000000
  0
LINE
  8
BUSHING
 62
     7
  6
CONTINUOUS
 10
15.191246
 20
6.193495
 30
0.000000
 11
15.299499
 21
6.255995
 31
0.000000
  0
LINE
  8
BUSHING
 62
     7
  6
CONTINUOUS
 10
15.191246
 20
6.193495
 30
0.000000
 11
15.299499
 21
6.130995
 31
0.000000
  0
LINE
  8
BUSHING
 62
     7
  6
CONTINUOUS
 10
16.441246
 20
6.193495
 30
0.000000
 11
16.332993
 21
6.130995
 31
0.000000
  0
LINE
  8
BUSHING
 62
     7
  6
CONTINUOUS
 10
16.441246
 20
6.193495
 30
0.000000
 11
16.332993
 21
6.255995
 31
0.000000
  0
LINE
  8
BUSHING
 62
     7
  6
CONTINUOUS
 10
15.191246
 20
5.723721
 30
0.000000
 11
15.191246
 21
6.443495
 31
0.000000
  0
LINE
  8
BUSHING
 62
     7
  6
CONTINUOUS
 10
16.441246
 20
5.848721
 30
0.000000
 11
16.441246
 21
6.443495
 31
0.000000
  0
TEXT
  8
BUSHING
 62
     7
 10
15.440810
 20
6.130923
 30
0.000000
 40
0.125000
  1
1 1/4"
  0
LINE
  8
BUSHING
 62
     7
  6
CONTINUOUS
 10
15.191246
 20
6.193495
 30
0.000000
 11
15.409560
 21
6.193495
 31
0.000000
  0
LINE
  8
BUSHING
 62
     7
  6
CONTINUOUS
 10
16.222932
 20
6.193495
 30
0.000000
 11
16.441246
 21
6.193495
 31
0.000000
  0
LINE
  8
BUSHING
 62
     7
  6
CONTINUOUS
 10
14.720148
 20
4.036221
 30
0.000000
 11
14.657648
 21
4.144474
 31
0.000000
  0
LINE
  8
BUSHING
 62
     7
  6
CONTINUOUS
 10
14.720148
 20
4.036221
 30
0.000000
 11
14.782648
 21
4.144474
 31
0.000000
  0
LINE
  8
BUSHING
 62
     7
  6
CONTINUOUS
 10
14.720148
 20
5.661221
 30
0.000000
 11
14.782648
 21
5.552967
 31
0.000000
  0
LINE
  8
BUSHING
 62
     7
  6
CONTINUOUS
 10
14.720148
 20
5.661221
 30
0.000000
 11
14.657648
 21
5.552967
 31
0.000000
  0
LINE
  8
BUSHING
 62
     7
  6
CONTINUOUS
 10
15.128746
 20
4.036221
 30
0.000000
 11
14.470148
 21
4.036221
 31
0.000000
  0
LINE
  8
BUSHING
 62
     7
  6
CONTINUOUS
 10
15.128746
 20
5.661221
 30
0.000000
 11
14.470148
 21
5.661221
 31
0.000000
  0
TEXT
  8
BUSHING
 62
     7
 10
14.342000
 20
5.009824
 30
0.000000
 40
0.125000
  1
1 5/8"
  0
LINE
  8
BUSHING
 62
     7
  6
CONTINUOUS
 10
14.720148
 20
4.036221
 30
0.000000
 11
14.720148
 21
4.978574
 31
0.000000
  0
LINE
  8
BUSHING
 62
     7
  6
CONTINUOUS
 10
14.720148
 20
5.167123
 30
0.000000
 11
14.720148
 21
5.661221
 31
0.000000
  0
LINE
  8
BUSHING
 62
     7
  6
CONTINUOUS
 10
16.888802
 20
4.286229
 30
0.000000
 11
16.826302
 21
4.394482
 31
0.000000
  0
LINE
  8
BUSHING
 62
     7
  6
CONTINUOUS
 10
16.888802
 20
4.286229
 30
0.000000
 11
16.951302
 21
4.394482
 31
0.000000
  0
LINE
  8
BUSHING
 62
     7
  6
CONTINUOUS
 10
16.888802
 20
5.411212
 30
0.000000
 11
16.951302
 21
5.302959
 31
0.000000
  0
LINE
  8
BUSHING
 62
     7
  6
CONTINUOUS
 10
16.888802
 20
5.411212
 30
0.000000
 11
16.826302
 21
5.302959
 31
0.000000
  0
LINE
  8
BUSHING
 62
     7
  6
CONTINUOUS
 10
16.503746
 20
4.286229
 30
0.000000
 11
17.138802
 21
4.286229
 31
0.000000
  0
LINE
  8
BUSHING
 62
     7
  6
CONTINUOUS
 10
16.503746
 20
5.411212
 30
0.000000
 11
17.138802
 21
5.411212
 31
0.000000
  0
TEXT
  8
BUSHING
 62
     7
 10
16.511353
 20
4.636391
 30
0.000000
 40
0.125000
  1
1 1/8"
  0
LINE
  8
BUSHING
 62
     7
  6
CONTINUOUS
 10
16.888802
 20
4.286229
 30
0.000000
 11
16.888802
 21
4.605141
 31
0.000000
  0
LINE
  8
BUSHING
 62
     7
  6
CONTINUOUS
 10
16.888802
 20
4.793457
 30
0.000000
 11
16.888802
 21
5.411212
 31
0.000000
  0
LINE
  8
BUSHING
 62
     7
  6
CONTINUOUS
 10
17.483860
 20
3.911221
 30
0.000000
 11
17.421360
 21
4.019474
 31
0.000000
  0
LINE
  8
BUSHING
 62
     7
  6
CONTINUOUS
 10
17.483860
 20
3.911221
 30
0.000000
 11
17.546360
 21
4.019474
 31
0.000000
  0
LINE
  8
BUSHING
 62
     7
  6
CONTINUOUS
 10
17.483860
 20
5.786221
 30
0.000000
 11
17.546360
 21
5.677967
 31
0.000000
  0
LINE
  8
BUSHING
 62
     7
  6
CONTINUOUS
 10
17.483860
 20
5.786221
 30
0.000000
 11
17.421360
 21
5.677967
 31
0.000000
  0
LINE
  8
BUSHING
 62
     7
  6
CONTINUOUS
 10
16.503746
 20
3.911221
 30
0.000000
 11
17.733860
 21
3.911221
 31
0.000000
  0
LINE
  8
BUSHING
 62
     7
  6
CONTINUOUS
 10
16.503746
 20
5.786221
 30
0.000000
 11
17.733860
 21
5.786221
 31
0.000000
  0
TEXT
  8
BUSHING
 62
     7
 10
17.106412
 20
4.972585
 30
0.000000
 40
0.125000
  1
1 7/8"
  0
LINE
  8
BUSHING
 62
     7
  6
CONTINUOUS
 10
17.483860
 20
3.911221
 30
0.000000
 11
17.483860
 21
4.941335
 31
0.000000
  0
LINE
  8
BUSHING
 62
     7
  6
CONTINUOUS
 10
17.483860
 20
5.129651
 30
0.000000
 11
17.483860
 21
5.786221
 31
0.000000
  0
LINE
  8
BUSHING
 62
     7
  6
CONTINUOUS
 10
15.420994
 20
4.008234
 30
0.000000
 11
15.534556
 21
3.955997
 31
0.000000
  0
LINE
  8
BUSHING
 62
     7
  6
CONTINUOUS
 10
15.420994
 20
4.008234
 30
0.000000
 11
15.432536
 21
3.883768
 31
0.000000
  0
LINE
  8
BUSHING
 62
     7
  6
CONTINUOUS
 10
15.420994
 20
4.008234
 30
0.000000
 11
15.923487
 21
3.298491
 31
0.000000
  0
LINE
  8
BUSHING
 62
     7
  6
CONTINUOUS
 10
15.923487
 20
3.298491
 30
0.000000
 11
16.048487
 21
3.298491
 31
0.000000
  0
TEXT
  8
BUSHING
 62
     7
 10
16.110986
 20
3.235991
 30
0.000000
 40
0.125000
  1
2.500TPF
  0
LINE
  8
CNTRLINE
 62
     7
  6
CONTINUOUS
 10
1.846684
 20
4.848721
 30
0.000000
 11
17.946686
 21
4.848721
 31
0.000000
  0
LINE
  8
CNTRLINE
 62
     7
  6
CONTINUOUS
 10
4.011626
 20
10.930268
 30
0.000000
 11
4.011626
 21
-1.232827
 31
0.000000
  0
POINT
  8
CNTRLINE
 62
     7
 10
4.011626
 20
4.848721
 30
0.000000
  0
POINT
  8
PLATE
 62
     7
 10
4.011626
 20
4.848721
 30
0.000000
  0
POINT
  8
PLATE
 62
     7
 10
4.011626
 20
4.848721
 30
0.000000
  0
POINT
  8
PLATE
 62
     7
 10
4.011626
 20
4.848721
 30
0.000000
  0
POINT
  8
PLATE
 62
     7
 10
4.011626
 20
1.223721
 30
0.000000
  0
CIRCLE
  8
PLATE
 62
     7
  6
CONTINUOUS
 10
4.011626
 20
1.223721
 30
0.000000
 40
0.265600
  0
POINT
  8
PLATE
 62
     7
 10
4.011626
 20
8.473722
 30
0.000000
  0
CIRCLE
  8
PLATE
 62
     7
  6
CONTINUOUS
 10
4.011626
 20
8.473722
 30
0.000000
 40
0.265600
  0
ARC
  8
PLATE
 62
     7
  6
CONTINUOUS
 10
4.011626
 20
4.848720
 30
0.000000
 40
4.249999
 50
243.222877
 51
297.367515
  0
ARC
  8
PLATE
 62
     7
  6
CONTINUOUS
 10
4.011627
 20
4.848727
 30
0.000000
 40
3.624995
 50
57.923670
 51
122.409102
  0
ARC
  8
PLATE
 62
     7
  6
CONTINUOUS
 10
4.011627
 20
4.848719
 30
0.000000
 40
2.999999
 50
229.512940
 51
309.802997
  0
ARC
  8
PLATE
 62
     7
  6
CONTINUOUS
 10
4.011626
 20
4.848725
 30
0.000000
 40
2.999997
 50
49.189544
 51
130.025525
  0
CIRCLE
  8
HUB
 62
     7
  6
CONTINUOUS
 10
4.011626
 20
4.848721
 30
0.000000
 40
0.375000
  0
CIRCLE
  8
HUB
 62
     7
  6
CONTINUOUS
 10
4.011626
 20
4.848721
 30
0.000000
 40
1.026500
  0
CIRCLE
  8
HUB
 62
     7
  6
CONTINUOUS
 10
4.011626
 20
4.848721
 30
0.000000
 40
1.338500
  0
CIRCLE
  8
HUB
 62
     7
  6
CONTINUOUS
 10
4.011626
 20
4.848721
 30
0.000000
 40
0.600000
  0
CIRCLE
  8
HUB
 62
     7
  6
CONTINUOUS
 10
4.011626
 20
5.875220
 30
0.000000
 40
0.174000
  0
CIRCLE
  8
HUB
 62
     7
  6
CONTINUOUS
 10
3.122652
 20
5.361970
 30
0.000000
 40
0.174000
  0
CIRCLE
  8
HUB
 62
     7
  6
CONTINUOUS
 10
3.122652
 20
4.335471
 30
0.000000
 40
0.174000
  0
CIRCLE
  8
HUB
 62
     7
  6
CONTINUOUS
 10
4.011626
 20
3.822221
 30
0.000000
 40
0.174000
  0
CIRCLE
  8
HUB
 62
     7
  6
CONTINUOUS
 10
4.900600
 20
4.335471
 30
0.000000
 40
0.174001
  0
CIRCLE
  8
HUB
 62
     7
  6
CONTINUOUS
 10
4.900600
 20
5.361970
 30
0.000000
 40
0.174001
  0
CIRCLE
  8
HUB
 62
     7
  6
CONTINUOUS
 10
4.011626
 20
4.848721
 30
0.000000
 40
0.703000
  0
CIRCLE
  8
HUB
 62
     7
  6
CONTINUOUS
 10
4.714626
 20
4.848721
 30
0.000000
 40
0.101551
  0
CIRCLE
  8
HUB
 62
     7
  6
CONTINUOUS
 10
4.714626
 20
4.848721
 30
0.000000
 40
0.164000
  0
CIRCLE
  8
HUB
 62
     7
  6
CONTINUOUS
 10
4.363127
 20
5.457536
 30
0.000000
 40
0.101551
  0
CIRCLE
  8
HUB
 62
     7
  6
CONTINUOUS
 10
4.363127
 20
5.457536
 30
0.000000
 40
0.163999
  0
CIRCLE
  8
HUB
 62
     7
  6
CONTINUOUS
 10
3.660127
 20
5.457537
 30
0.000000
 40
0.101551
  0
CIRCLE
  8
HUB
 62
     7
  6
CONTINUOUS
 10
3.660127
 20
5.457537
 30
0.000000
 40
0.163999
  0
CIRCLE
  8
HUB
 62
     7
  6
CONTINUOUS
 10
3.308626
 20
4.848721
 30
0.000000
 40
0.101551
  0
CIRCLE
  8
HUB
 62
     7
  6
CONTINUOUS
 10
3.308626
 20
4.848721
 30
0.000000
 40
0.164000
  0
CIRCLE
  8
HUB
 62
     7
  6
CONTINUOUS
 10
3.660126
 20
4.239905
 30
0.000000
 40
0.101551
  0
CIRCLE
  8
HUB
 62
     7
  6
CONTINUOUS
 10
3.660126
 20
4.239905
 30
0.000000
 40
0.164000
  0
CIRCLE
  8
HUB
 62
     7
  6
CONTINUOUS
 10
4.363126
 20
4.239904
 30
0.000000
 40
0.101551
  0
CIRCLE
  8
HUB
 62
     7
  6
CONTINUOUS
 10
4.363126
 20
4.239904
 30
0.000000
 40
0.164000
  0
LINE
  8
DIMEN
 62
     7
  6
CONTINUOUS
 10
3.214706
 20
9.372746
 30
0.000000
 11
3.152206
 21
9.372746
 31
0.000000
  0
LINE
  8
DIMEN
 62
     7
  6
CONTINUOUS
 10
3.274328
 20
9.034278
 30
0.000000
 11
3.354660
 21
8.938509
 31
0.000000
  0
LINE
  8
DIMEN
 62
     7
  6
CONTINUOUS
 10
3.274328
 20
9.034278
 30
0.000000
 11
3.231556
 21
8.916824
 31
0.000000
  0
LINE
  8
DIMEN
 62
     7
  6
CONTINUOUS
 10
4.748921
 20
0.663161
 30
0.000000
 11
4.668589
 21
0.758930
 31
0.000000
  0
LINE
  8
DIMEN
 62
     7
  6
CONTINUOUS
 10
4.748921
 20
0.663161
 30
0.000000
 11
4.791693
 21
0.780615
 31
0.000000
  0
TEXT
  8
DIMEN
 62
     7
 10
2.162552
 20
9.309697
 30
0.000000
 40
0.125000
  1
8.500"
  0
TEXT
  8
DIMEN
 62
     7
 10
2.646305
 20
9.403995
 30
0.000000
 40
0.125000
  1
+.000"
  0
TEXT
  8
DIMEN
 62
     7
 10
2.646305
 20
9.215398
 30
0.000000
 40
0.125000
  1
-.002"
  0
LINE
  8
DIMEN
 62
     7
  6
CONTINUOUS
 10
4.748921
 20
0.663161
 30
0.000000
 11
3.214706
 21
9.372746
 31
0.000000
  0
LINE
  8
DIMEN
 62
     7
  6
CONTINUOUS
 10
4.387416
 20
7.172027
 30
0.000000
 11
4.449916
 21
7.172027
 31
0.000000
  0
LINE
  8
DIMEN
 62
     7
  6
CONTINUOUS
 10
4.225348
 20
6.170048
 30
0.000000
 11
4.269761
 21
6.053204
 31
0.000000
  0
LINE
  8
DIMEN
 62
     7
  6
CONTINUOUS
 10
4.225348
 20
6.170048
 30
0.000000
 11
4.146365
 21
6.073163
 31
0.000000
  0
LINE
  8
DIMEN
 62
     7
  6
CONTINUOUS
 10
3.797904
 20
3.527393
 30
0.000000
 11
3.753491
 21
3.644237
 31
0.000000
  0
LINE
  8
DIMEN
 62
     7
  6
CONTINUOUS
 10
3.797904
 20
3.527393
 30
0.000000
 11
3.876888
 21
3.624278
 31
0.000000
  0
TEXT
  8
DIMEN
 62
     7
 10
4.488820
 20
7.109291
 30
0.000000
 40
0.125000
  1
2.677"
  0
TEXT
  8
DIMEN
 62
     7
 10
4.957410
 20
7.203277
 30
0.000000
 40
0.125000
  1
+.002"
  0
TEXT
  8
DIMEN
 62
     7
 10
4.957410
 20
7.015306
 30
0.000000
 40
0.125000
  1
-.000"
  0
LINE
  8
DIMEN
 62
     7
  6
CONTINUOUS
 10
3.797904
 20
3.527393
 30
0.000000
 11
4.387416
 21
7.172027
 31
0.000000
  0
LINE
  8
DIMEN
 62
     7
  6
CONTINUOUS
 10
10.826774
 20
3.510221
 30
0.000000
 11
10.764274
 21
3.618474
 31
0.000000
  0
LINE
  8
DIMEN
 62
     7
  6
CONTINUOUS
 10
10.826774
 20
3.510221
 30
0.000000
 11
10.889274
 21
3.618474
 31
0.000000
  0
LINE
  8
DIMEN
 62
     7
  6
CONTINUOUS
 10
10.826774
 20
6.187221
 30
0.000000
 11
10.889274
 21
6.078967
 31
0.000000
  0
LINE
  8
DIMEN
 62
     7
  6
CONTINUOUS
 10
10.826774
 20
6.187221
 30
0.000000
 11
10.764274
 21
6.078967
 31
0.000000
  0
LINE
  8
DIMEN
 62
     7
  6
CONTINUOUS
 10
11.503746
 20
3.510221
 30
0.000000
 11
10.576774
 21
3.510221
 31
0.000000
  0
LINE
  8
DIMEN
 62
     7
  6
CONTINUOUS
 10
11.503746
 20
6.187221
 30
0.000000
 11
10.576774
 21
6.187221
 31
0.000000
  0
TEXT
  8
DIMEN
 62
     7
 10
10.362807
 20
5.618405
 30
0.000000
 40
0.125000
  1
2.677"
  0
TEXT
  8
DIMEN
 62
     7
 10
10.831397
 20
5.712390
 30
0.000000
 40
0.125000
  1
+.002"
  0
TEXT
  8
DIMEN
 62
     7
 10
10.831397
 20
5.524419
 30
0.000000
 40
0.125000
  1
-.000"
  0
LINE
  8
DIMEN
 62
     7
  6
CONTINUOUS
 10
10.826774
 20
3.510221
 30
0.000000
 11
10.826774
 21
5.493093
 31
0.000000
  0
LINE
  8
DIMEN
 62
     7
  6
CONTINUOUS
 10
10.826774
 20
5.869188
 30
0.000000
 11
10.826774
 21
6.187221
 31
0.000000
  0
LINE
  8
DIMEN
 62
     7
  6
CONTINUOUS
 10
11.268081
 20
4.248721
 30
0.000000
 11
11.205581
 21
4.356974
 31
0.000000
  0
LINE
  8
DIMEN
 62
     7
  6
CONTINUOUS
 10
11.268081
 20
4.248721
 30
0.000000
 11
11.330581
 21
4.356974
 31
0.000000
  0
LINE
  8
DIMEN
 62
     7
  6
CONTINUOUS
 10
11.268081
 20
5.448720
 30
0.000000
 11
11.330581
 21
5.340467
 31
0.000000
  0
LINE
  8
DIMEN
 62
     7
  6
CONTINUOUS
 10
11.268081
 20
5.448720
 30
0.000000
 11
11.205581
 21
5.340467
 31
0.000000
  0
LINE
  8
DIMEN
 62
     7
  6
CONTINUOUS
 10
11.503746
 20
4.248721
 30
0.000000
 11
11.018081
 21
4.248721
 31
0.000000
  0
LINE
  8
DIMEN
 62
     7
  6
CONTINUOUS
 10
11.503746
 20
5.448720
 30
0.000000
 11
11.018081
 21
5.448720
 31
0.000000
  0
TEXT
  8
DIMEN
 62
     7
 10
11.060333
 20
4.493758
 30
0.000000
 40
0.125000
  1
1.200"
  0
LINE
  8
DIMEN
 62
     7
  6
CONTINUOUS
 10
11.268081
 20
4.248721
 30
0.000000
 11
11.268081
 21
4.462508
 31
0.000000
  0
LINE
  8
DIMEN
 62
     7
  6
CONTINUOUS
 10
11.268081
 20
4.650631
 30
0.000000
 11
11.268081
 21
5.448720
 31
0.000000
  0
LINE
  8
DIMEN
 62
     7
  6
CONTINUOUS
 10
11.566246
 20
5.103646
 30
0.000000
 11
11.457993
 21
5.041146
 31
0.000000
  0
LINE
  8
DIMEN
 62
     7
  6
CONTINUOUS
 10
11.566246
 20
5.103646
 30
0.000000
 11
11.457993
 21
5.166146
 31
0.000000
  0
LINE
  8
DIMEN
 62
     7
  6
CONTINUOUS
 10
11.680246
 20
5.103646
 30
0.000000
 11
11.788500
 21
5.166146
 31
0.000000
  0
LINE
  8
DIMEN
 62
     7
  6
CONTINUOUS
 10
11.680246
 20
5.103646
 30
0.000000
 11
11.788500
 21
5.041146
 31
0.000000
  0
LINE
  8
DIMEN
 62
     7
  6
CONTINUOUS
 10
11.566246
 20
5.386220
 30
0.000000
 11
11.566246
 21
4.853646
 31
0.000000
  0
LINE
  8
DIMEN
 62
     7
  6
CONTINUOUS
 10
11.680246
 20
5.386220
 30
0.000000
 11
11.680246
 21
4.853646
 31
0.000000
  0
TEXT
  8
DIMEN
 62
     7
 10
10.973469
 20
5.041067
 30
0.000000
 40
0.125000
  1
.114"
  0
LINE
  8
DIMEN
 62
     7
  6
CONTINUOUS
 10
11.566246
 20
5.103646
 30
0.000000
 11
11.316246
 21
5.103646
 31
0.000000
  0
LINE
  8
DIMEN
 62
     7
  6
CONTINUOUS
 10
11.680246
 20
5.103646
 30
0.000000
 11
11.930246
 21
5.103646
 31
0.000000
  0
LINE
  8
DIMEN
 62
     7
  6
CONTINUOUS
 10
8.396568
 20
9.907899
 30
0.000000
 11
8.504821
 21
9.970399
 31
0.000000
  0
LINE
  8
DIMEN
 62
     7
  6
CONTINUOUS
 10
8.396568
 20
9.907899
 30
0.000000
 11
8.504821
 21
9.845399
 31
0.000000
  0
LINE
  8
DIMEN
 62
     7
  6
CONTINUOUS
 10
10.316246
 20
9.907899
 30
0.000000
 11
10.207993
 21
9.845399
 31
0.000000
  0
LINE
  8
DIMEN
 62
     7
  6
CONTINUOUS
 10
10.316246
 20
9.907899
 30
0.000000
 11
10.207993
 21
9.970399
 31
0.000000
  0
LINE
  8
DIMEN
 62
     7
  6
CONTINUOUS
 10
8.396568
 20
9.161222
 30
0.000000
 11
8.396568
 21
10.157899
 31
0.000000
  0
LINE
  8
DIMEN
 62
     7
  6
CONTINUOUS
 10
10.316246
 20
9.476220
 30
0.000000
 11
10.316246
 21
10.157899
 31
0.000000
  0
TEXT
  8
DIMEN
 62
     7
 10
9.150026
 20
9.845087
 30
0.000000
 40
0.125000
  1
1.920"
  0
LINE
  8
DIMEN
 62
     7
  6
CONTINUOUS
 10
8.396568
 20
9.907899
 30
0.000000
 11
9.118776
 21
9.907899
 31
0.000000
  0
LINE
  8
DIMEN
 62
     7
  6
CONTINUOUS
 10
9.594038
 20
9.907899
 30
0.000000
 11
10.316246
 21
9.907899
 31
0.000000
  0
LINE
  8
DIMEN
 62
     7
  6
CONTINUOUS
 10
6.176569
 20
10.003570
 30
0.000000
 11
6.284822
 21
10.066070
 31
0.000000
  0
LINE
  8
DIMEN
 62
     7
  6
CONTINUOUS
 10
6.176569
 20
10.003570
 30
0.000000
 11
6.284822
 21
9.941070
 31
0.000000
  0
LINE
  8
DIMEN
 62
     7
  6
CONTINUOUS
 10
7.894568
 20
10.003570
 30
0.000000
 11
7.786315
 21
9.941070
 31
0.000000
  0
LINE
  8
DIMEN
 62
     7
  6
CONTINUOUS
 10
7.894568
 20
10.003570
 30
0.000000
 11
7.786315
 21
10.066070
 31
0.000000
  0
LINE
  8
DIMEN
 62
     7
  6
CONTINUOUS
 10
6.176569
 20
10.067721
 30
0.000000
 11
6.176569
 21
9.753570
 31
0.000000
  0
LINE
  8
DIMEN
 62
     7
  6
CONTINUOUS
 10
7.894568
 20
10.120069
 30
0.000000
 11
7.894568
 21
9.753570
 31
0.000000
  0
TEXT
  8
DIMEN
 62
     7
 10
5.434018
 20
9.940661
 30
0.000000
 40
0.125000
  1
1.718"
  0
LINE
  8
DIMEN
 62
     7
  6
CONTINUOUS
 10
5.787341
 20
10.003570
 30
0.000000
 11
7.894568
 21
10.003570
 31
0.000000
  0
LINE
  8
DIMEN
 62
     7
  6
CONTINUOUS
 10
4.971175
 20
6.921012
 30
0.000000
 11
5.033675
 21
6.921012
 31
0.000000
  0
LINE
  8
DIMEN
 62
     7
  6
CONTINUOUS
 10
4.442940
 20
5.780209
 30
0.000000
 11
4.454169
 21
5.655714
 31
0.000000
  0
LINE
  8
DIMEN
 62
     7
  6
CONTINUOUS
 10
4.442940
 20
5.780209
 30
0.000000
 11
4.340739
 21
5.708237
 31
0.000000
  0
LINE
  8
DIMEN
 62
     7
  6
CONTINUOUS
 10
3.580312
 20
3.917232
 30
0.000000
 11
3.569083
 21
4.041727
 31
0.000000
  0
LINE
  8
DIMEN
 62
     7
  6
CONTINUOUS
 10
3.580312
 20
3.917232
 30
0.000000
 11
3.682513
 21
3.989205
 31
0.000000
  0
TEXT
  8
DIMEN
 62
     7
 10
5.064925
 20
6.858182
 30
0.000000
 40
0.125000
  1
2.053"
  0
LINE
  8
DIMEN
 62
     7
  6
CONTINUOUS
 10
3.580312
 20
3.917232
 30
0.000000
 11
4.971175
 21
6.921012
 31
0.000000
  0
TEXT
  8
DIMEN
 62
     7
 10
5.096174
 20
6.671012
 30
0.000000
 40
0.125000
  1
BOLT
  0
TEXT
  8
DIMEN
 62
     7
 10
5.096174
 20
6.483512
 30
0.000000
 40
0.125000
  1
CIRCLE
  0
LINE
  8
DIMEN
 62
     7
  6
CONTINUOUS
 10
5.421915
 20
6.327702
 30
0.000000
 11
5.484415
 21
6.327702
 31
0.000000
  0
LINE
  8
DIMEN
 62
     7
  6
CONTINUOUS
 10
4.496767
 20
5.357491
 30
0.000000
 11
4.467293
 21
5.236016
 31
0.000000
  0
LINE
  8
DIMEN
 62
     7
  6
CONTINUOUS
 10
4.496767
 20
5.357491
 30
0.000000
 11
4.376829
 21
5.322278
 31
0.000000
  0
LINE
  8
DIMEN
 62
     7
  6
CONTINUOUS
 10
3.526486
 20
4.339950
 30
0.000000
 11
3.555959
 21
4.461425
 31
0.000000
  0
LINE
  8
DIMEN
 62
     7
  6
CONTINUOUS
 10
3.526486
 20
4.339950
 30
0.000000
 11
3.646423
 21
4.375163
 31
0.000000
  0
TEXT
  8
DIMEN
 62
     7
 10
5.515665
 20
6.265115
 30
0.000000
 40
0.125000
  1
1 13/32"
  0
LINE
  8
DIMEN
 62
     7
  6
CONTINUOUS
 10
3.526486
 20
4.339950
 30
0.000000
 11
5.421915
 21
6.327702
 31
0.000000
  0
TEXT
  8
DIMEN
 62
     7
 10
5.546915
 20
6.077702
 30
0.000000
 40
0.125000
  1
BOLT
  0
TEXT
  8
DIMEN
 62
     7
 10
5.546915
 20
5.890202
 30
0.000000
 40
0.125000
  1
CIRCLE
  0
LINE
  8
DIMEN
 62
     7
  6
CONTINUOUS
 10
5.830726
 20
5.712817
 30
0.000000
 11
5.893226
 21
5.712817
 31
0.000000
  0
LINE
  8
DIMEN
 62
     7
  6
CONTINUOUS
 10
4.553590
 20
5.106160
 30
0.000000
 11
4.482624
 21
5.003258
 31
0.000000
  0
LINE
  8
DIMEN
 62
     7
  6
CONTINUOUS
 10
4.553590
 20
5.106160
 30
0.000000
 11
4.428991
 21
5.116167
 31
0.000000
  0
LINE
  8
DIMEN
 62
     7
  6
CONTINUOUS
 10
3.469663
 20
4.591281
 30
0.000000
 11
3.540628
 21
4.694183
 31
0.000000
  0
LINE
  8
DIMEN
 62
     7
  6
CONTINUOUS
 10
3.469663
 20
4.591281
 30
0.000000
 11
3.594261
 21
4.581274
 31
0.000000
  0
TEXT
  8
DIMEN
 62
     7
 10
5.924476
 20
5.650005
 30
0.000000
 40
0.125000
  1
1.200"
  0
LINE
  8
DIMEN
 62
     7
  6
CONTINUOUS
 10
3.469663
 20
4.591281
 30
0.000000
 11
5.830726
 21
5.712817
 31
0.000000
  0
TEXT
  8
DIMEN
 62
     7
 10
5.955726
 20
5.462816
 30
0.000000
 40
0.125000
  1
PILOT
  0
TEXT
  8
DIMEN
 62
     7
 10
5.955726
 20
5.275317
 30
0.000000
 40
0.125000
  1
BEARING
  0
TEXT
  8
DIMEN
 62
     7
 10
5.955726
 20
5.087817
 30
0.000000
 40
0.125000
  1
RECESS
  0
LINE
  8
PARTS
 62
     7
  6
CONTINUOUS
 10
6.176569
 20
5.816932
 30
0.000000
 11
6.176569
 21
10.130221
 31
0.000000
  0
LINE
  8
DIMEN
 62
     7
  6
CONTINUOUS
 10
5.307531
 20
4.488478
 30
0.000000
 11
5.370031
 21
4.488478
 31
0.000000
  0
LINE
  8
DIMEN
 62
     7
  6
CONTINUOUS
 10
4.372926
 20
4.748284
 30
0.000000
 11
4.251888
 21
4.717061
 31
0.000000
  0
LINE
  8
DIMEN
 62
     7
  6
CONTINUOUS
 10
4.372926
 20
4.748284
 30
0.000000
 11
4.285367
 21
4.837494
 31
0.000000
  0
LINE
  8
DIMEN
 62
     7
  6
CONTINUOUS
 10
3.650326
 20
4.949157
 30
0.000000
 11
3.771364
 21
4.980380
 31
0.000000
  0
LINE
  8
DIMEN
 62
     7
  6
CONTINUOUS
 10
3.650326
 20
4.949157
 30
0.000000
 11
3.737885
 21
4.859947
 31
0.000000
  0
TEXT
  8
DIMEN
 62
     7
 10
5.401281
 20
4.425905
 30
0.000000
 40
0.125000
  1
3/4"
  0
LINE
  8
DIMEN
 62
     7
  6
CONTINUOUS
 10
3.650326
 20
4.949157
 30
0.000000
 11
5.307531
 21
4.488478
 31
0.000000
  0
LINE
  8
DIMEN
 62
     7
  6
CONTINUOUS
 10
4.496867
 20
4.144988
 30
0.000000
 11
4.621067
 21
4.130868
 31
0.000000
  0
LINE
  8
DIMEN
 62
     7
  6
CONTINUOUS
 10
4.496867
 20
4.144988
 30
0.000000
 11
4.546740
 21
4.030368
 31
0.000000
  0
LINE
  8
DIMEN
 62
     7
  6
CONTINUOUS
 10
4.496867
 20
4.144988
 30
0.000000
 11
5.130048
 21
3.676705
 31
0.000000
  0
LINE
  8
DIMEN
 62
     7
  6
CONTINUOUS
 10
5.130048
 20
3.676705
 30
0.000000
 11
5.630048
 21
3.676705
 31
0.000000
  0
TEXT
  8
DIMEN
 62
     7
 10
5.692548
 20
3.614205
 30
0.000000
 40
0.125000
  1
SEE NOTE B
  0
LINE
  8
DIMEN
 62
     7
  6
CONTINUOUS
 10
4.118162
 20
3.684649
 30
0.000000
 11
4.241118
 21
3.707164
 31
0.000000
  0
LINE
  8
DIMEN
 62
     7
  6
CONTINUOUS
 10
4.118162
 20
3.684649
 30
0.000000
 11
4.199139
 21
3.589424
 31
0.000000
  0
LINE
  8
DIMEN
 62
     7
  6
CONTINUOUS
 10
4.118162
 20
3.684649
 30
0.000000
 11
5.051167
 21
3.351997
 31
0.000000
  0
LINE
  8
DIMEN
 62
     7
  6
CONTINUOUS
 10
5.051167
 20
3.351997
 30
0.000000
 11
5.551167
 21
3.351997
 31
0.000000
  0
TEXT
  8
DIMEN
 62
     7
 10
5.613666
 20
3.289497
 30
0.000000
 40
0.125000
  1
SEE NOTE C
  0
LINE
  8
PARTS
 62
     7
  6
CONTINUOUS
 10
6.176569
 20
3.839060
 30
0.000000
 11
6.176569
 21
5.044652
 31
0.000000
  0
LINE
  8
PARTS
 62
     7
  6
CONTINUOUS
 10
6.176569
 20
3.169348
 30
0.000000
 11
6.176569
 21
-0.432779
 31
0.000000
  0
LINE
  8
DIMEN
 62
     7
  6
CONTINUOUS
 10
4.407920
 20
8.451995
 30
0.000000
 11
4.358891
 21
8.566978
 31
0.000000
  0
LINE
  8
DIMEN
 62
     7
  6
CONTINUOUS
 10
4.407920
 20
8.451995
 30
0.000000
 11
4.482984
 21
8.551947
 31
0.000000
  0
LINE
  8
DIMEN
 62
     7
  6
CONTINUOUS
 10
4.407920
 20
8.451995
 30
0.000000
 11
4.436297
 21
8.686265
 31
0.000000
  0
LINE
  8
DIMEN
 62
     7
  6
CONTINUOUS
 10
4.436297
 20
8.686265
 30
0.000000
 11
4.936297
 21
8.686265
 31
0.000000
  0
TEXT
  8
DIMEN
 62
     7
 10
4.998797
 20
8.623765
 30
0.000000
 40
0.125000
  1
7 1/4"BOLT
  0
TEXT
  8
DIMEN
 62
     7
 10
4.998797
 20
8.436265
 30
0.000000
 40
0.125000
  1
CIRCLE
  0
ARC
  8
PLATE
 62
     7
  6
CONTINUOUS
 10
4.011623
 20
4.848712
 30
0.000000
 40
4.250007
 50
69.825615
 51
117.362816
  0
LINE
  8
DIMEN
 62
     7
  6
CONTINUOUS
 10
4.197382
 20
7.842965
 30
0.000000
 11
4.253214
 21
7.954803
 31
0.000000
  0
LINE
  8
DIMEN
 62
     7
  6
CONTINUOUS
 10
4.197382
 20
7.842965
 30
0.000000
 11
4.322153
 21
7.850532
 31
0.000000
  0
LINE
  8
DIMEN
 62
     7
  6
CONTINUOUS
 10
4.197382
 20
7.842965
 30
0.000000
 11
4.454723
 21
8.013106
 31
0.000000
  0
LINE
  8
DIMEN
 62
     7
  6
CONTINUOUS
 10
4.454723
 20
8.013106
 30
0.000000
 11
4.954723
 21
8.013106
 31
0.000000
  0
TEXT
  8
DIMEN
 62
     7
 10
5.017223
 20
7.950606
 30
0.000000
 40
0.125000
  1
6" HUB
  0
TEXT
  8
DIMEN
 62
     7
 10
5.017223
 20
7.763107
 30
0.000000
 40
0.125000
  1
CUTOUT
  0
LINE
  8
DIMEN
 62
     7
  6
CONTINUOUS
 10
4.213898
 20
1.395854
 30
0.000000
 11
4.301007
 21
1.485503
 31
0.000000
  0
LINE
  8
DIMEN
 62
     7
  6
CONTINUOUS
 10
4.213898
 20
1.395854
 30
0.000000
 11
4.335091
 21
1.365240
 31
0.000000
  0
LINE
  8
DIMEN
 62
     7
  6
CONTINUOUS
 10
4.213898
 20
1.395854
 30
0.000000
 11
4.528987
 21
1.485154
 31
0.000000
  0
LINE
  8
DIMEN
 62
     7
  6
CONTINUOUS
 10
4.528987
 20
1.485154
 30
0.000000
 11
5.028987
 21
1.485154
 31
0.000000
  0
TEXT
  8
DIMEN
 62
     7
 10
5.091487
 20
1.422654
 30
0.000000
 40
0.125000
  1
DRILL 17/32"
  0
ARC
  8
PLATE
 62
     7
  6
CONTINUOUS
 10
4.011626
 20
4.848719
 30
0.000000
 40
3.624999
 50
237.948002
 51
286.738143
  0
ARC
  8
PLATE
 62
     7
  6
CONTINUOUS
 10
4.011644
 20
4.848683
 30
0.000000
 40
3.624958
 50
294.888364
 51
302.166041
  0
LINE
  8
DIMEN
 62
     7
  6
CONTINUOUS
 10
4.011626
 20
6.465385
 30
0.000000
 11
3.903373
 21
6.402885
 31
0.000000
  0
LINE
  8
DIMEN
 62
     7
  6
CONTINUOUS
 10
4.011626
 20
6.465385
 30
0.000000
 11
3.903373
 21
6.527885
 31
0.000000
  0
LINE
  8
DIMEN
 62
     7
  6
CONTINUOUS
 10
2.611554
 20
5.657053
 30
0.000000
 11
2.611554
 21
5.782053
 31
0.000000
  0
LINE
  8
DIMEN
 62
     7
  6
CONTINUOUS
 10
2.611554
 20
5.657053
 30
0.000000
 11
2.719807
 21
5.719553
 31
0.000000
  0
LINE
  8
DIMEN
 62
     7
  6
CONTINUOUS
 10
4.011626
 20
5.937720
 30
0.000000
 11
4.011626
 21
6.715385
 31
0.000000
  0
LINE
  8
DIMEN
 62
     7
  6
CONTINUOUS
 10
3.068525
 20
5.393220
 30
0.000000
 11
2.395048
 21
5.782053
 31
0.000000
  0
TEXT
  8
DIMEN
 62
     7
 10
3.074734
 20
6.186068
 30
0.000000
 40
0.125000
  1
60
  0
ARC
  8
DIMEN
 62
     7
  6
CONTINUOUS
 10
4.011626
 20
4.848721
 30
0.000000
 40
1.616664
 50
90.000000
 51
113.649978
  0
ARC
  8
DIMEN
 62
     7
  6
CONTINUOUS
 10
4.011626
 20
4.848721
 30
0.000000
 40
1.616664
 50
126.109063
 51
149.999995
  0
LINE
  8
DIMEN
 62
     7
  6
CONTINUOUS
 10
2.389651
 20
4.848722
 30
0.000000
 11
2.452151
 21
4.740468
 31
0.000000
  0
LINE
  8
DIMEN
 62
     7
  6
CONTINUOUS
 10
2.389651
 20
4.848722
 30
0.000000
 11
2.327151
 21
4.740468
 31
0.000000
  0
LINE
  8
DIMEN
 62
     7
  6
CONTINUOUS
 10
3.200638
 20
3.444049
 30
0.000000
 11
3.075638
 21
3.444049
 31
0.000000
  0
LINE
  8
DIMEN
 62
     7
  6
CONTINUOUS
 10
3.200638
 20
3.444049
 30
0.000000
 11
3.138138
 21
3.552302
 31
0.000000
  0
LINE
  8
DIMEN
 62
     7
  6
CONTINUOUS
 10
3.246126
 20
4.848721
 30
0.000000
 11
2.139651
 21
4.848722
 31
0.000000
  0
LINE
  8
DIMEN
 62
     7
  6
CONTINUOUS
 10
3.628876
 20
4.185778
 30
0.000000
 11
3.075638
 21
3.227543
 31
0.000000
  0
TEXT
  8
DIMEN
 62
     7
 10
2.478393
 20
3.975009
 30
0.000000
 40
0.125000
  1
60
  0
ARC
  8
DIMEN
 62
     7
  6
CONTINUOUS
 10
4.011626
 20
4.848721
 30
0.000000
 40
1.621976
 50
179.999961
 51
206.235462
  0
ARC
  8
DIMEN
 62
     7
  6
CONTINUOUS
 10
4.011626
 20
4.848721
 30
0.000000
 40
1.621976
 50
213.913310
 51
239.999973
  0
LINE
  8
DIMEN
 62
     7
  6
CONTINUOUS
 10
12.034393
 20
4.473721
 30
0.000000
 11
11.971893
 21
4.581974
 31
0.000000
  0
LINE
  8
DIMEN
 62
     7
  6
CONTINUOUS
 10
12.034393
 20
4.473721
 30
0.000000
 11
12.096893
 21
4.581974
 31
0.000000
  0
LINE
  8
DIMEN
 62
     7
  6
CONTINUOUS
 10
12.034393
 20
5.223721
 30
0.000000
 11
12.096893
 21
5.115467
 31
0.000000
  0
LINE
  8
DIMEN
 62
     7
  6
CONTINUOUS
 10
12.034393
 20
5.223721
 30
0.000000
 11
11.971893
 21
5.115467
 31
0.000000
  0
LINE
  8
DIMEN
 62
     7
  6
CONTINUOUS
 10
12.253746
 20
4.473721
 30
0.000000
 11
11.784393
 21
4.473721
 31
0.000000
  0
LINE
  8
DIMEN
 62
     7
  6
CONTINUOUS
 10
12.253746
 20
5.223721
 30
0.000000
 11
11.784393
 21
5.223721
 31
0.000000
  0
TEXT
  8
DIMEN
 62
     7
 10
11.865165
 20
4.654393
 30
0.000000
 40
0.125000
  1
3/4"
  0
LINE
  8
DIMEN
 62
     7
  6
CONTINUOUS
 10
12.034393
 20
4.473721
 30
0.000000
 11
12.034393
 21
4.623143
 31
0.000000
  0
LINE
  8
DIMEN
 62
     7
  6
CONTINUOUS
 10
12.034393
 20
4.810788
 30
0.000000
 11
12.034393
 21
5.223721
 31
0.000000
  0
LINE
  8
DIMEN
 62
     7
  6
CONTINUOUS
 10
12.316246
 20
4.261636
 30
0.000000
 11
12.424499
 21
4.324136
 31
0.000000
  0
LINE
  8
DIMEN
 62
     7
  6
CONTINUOUS
 10
12.316246
 20
4.261636
 30
0.000000
 11
12.424499
 21
4.199136
 31
0.000000
  0
LINE
  8
DIMEN
 62
     7
  6
CONTINUOUS
 10
13.691246
 20
4.261636
 30
0.000000
 11
13.582993
 21
4.199136
 31
0.000000
  0
LINE
  8
DIMEN
 62
     7
  6
CONTINUOUS
 10
13.691246
 20
4.261636
 30
0.000000
 11
13.582993
 21
4.324136
 31
0.000000
  0
LINE
  8
DIMEN
 62
     7
  6
CONTINUOUS
 10
12.316246
 20
4.106670
 30
0.000000
 11
12.316246
 21
4.511636
 31
0.000000
  0
LINE
  8
DIMEN
 62
     7
  6
CONTINUOUS
 10
13.691246
 20
3.973721
 30
0.000000
 11
13.691246
 21
4.511636
 31
0.000000
  0
TEXT
  8
DIMEN
 62
     7
 10
12.784290
 20
4.198728
 30
0.000000
 40
0.125000
  1
1 3/8"
  0
LINE
  8
DIMEN
 62
     7
  6
CONTINUOUS
 10
12.316246
 20
4.261636
 30
0.000000
 11
12.753040
 21
4.261636
 31
0.000000
  0
LINE
  8
DIMEN
 62
     7
  6
CONTINUOUS
 10
13.254452
 20
4.261636
 30
0.000000
 11
13.691246
 21
4.261636
 31
0.000000
  0
LINE
  8
DIMEN
 62
     7
  6
CONTINUOUS
 10
11.566246
 20
3.315953
 30
0.000000
 11
11.674499
 21
3.378453
 31
0.000000
  0
LINE
  8
DIMEN
 62
     7
  6
CONTINUOUS
 10
11.566246
 20
3.315953
 30
0.000000
 11
11.674499
 21
3.253453
 31
0.000000
  0
LINE
  8
DIMEN
 62
     7
  6
CONTINUOUS
 10
12.566246
 20
3.315953
 30
0.000000
 11
12.457993
 21
3.253453
 31
0.000000
  0
LINE
  8
DIMEN
 62
     7
  6
CONTINUOUS
 10
12.566246
 20
3.315953
 30
0.000000
 11
12.457993
 21
3.378453
 31
0.000000
  0
LINE
  8
DIMEN
 62
     7
  6
CONTINUOUS
 10
11.566246
 20
3.447721
 30
0.000000
 11
11.566246
 21
3.065953
 31
0.000000
  0
LINE
  8
DIMEN
 62
     7
  6
CONTINUOUS
 10
12.566246
 20
3.447721
 30
0.000000
 11
12.566246
 21
3.065953
 31
0.000000
  0
TEXT
  8
DIMEN
 62
     7
 10
12.034702
 20
3.253380
 30
0.000000
 40
0.125000
  1
1"
  0
LINE
  8
DIMEN
 62
     7
  6
CONTINUOUS
 10
11.566246
 20
3.315953
 30
0.000000
 11
12.003452
 21
3.315953
 31
0.000000
  0
LINE
  8
DIMEN
 62
     7
  6
CONTINUOUS
 10
12.129040
 20
3.315953
 30
0.000000
 11
12.566246
 21
3.315953
 31
0.000000
  0
LINE
  8
DIMEN
 62
     7
  6
CONTINUOUS
 10
12.566307
 20
3.304278
 30
0.000000
 11
12.674560
 21
3.366778
 31
0.000000
  0
LINE
  8
DIMEN
 62
     7
  6
CONTINUOUS
 10
12.566307
 20
3.304278
 30
0.000000
 11
12.674560
 21
3.241778
 31
0.000000
  0
LINE
  8
DIMEN
 62
     7
  6
CONTINUOUS
 10
13.691246
 20
3.304278
 30
0.000000
 11
13.582993
 21
3.241778
 31
0.000000
  0
LINE
  8
DIMEN
 62
     7
  6
CONTINUOUS
 10
13.691246
 20
3.304278
 30
0.000000
 11
13.582993
 21
3.366778
 31
0.000000
  0
LINE
  8
DIMEN
 62
     7
  6
CONTINUOUS
 10
12.566307
 20
3.661221
 30
0.000000
 11
12.566307
 21
3.054278
 31
0.000000
  0
LINE
  8
DIMEN
 62
     7
  6
CONTINUOUS
 10
13.691246
 20
3.661221
 30
0.000000
 11
13.691246
 21
3.054278
 31
0.000000
  0
TEXT
  8
DIMEN
 62
     7
 10
12.945046
 20
3.241370
 30
0.000000
 40
0.125000
  1
1 1/8"
  0
LINE
  8
DIMEN
 62
     7
  6
CONTINUOUS
 10
12.566307
 20
3.304278
 30
0.000000
 11
12.913796
 21
3.304278
 31
0.000000
  0
LINE
  8
DIMEN
 62
     7
  6
CONTINUOUS
 10
13.343757
 20
3.304278
 30
0.000000
 11
13.691246
 21
3.304278
 31
0.000000
  0
LINE
  8
DIMEN
 62
     7
  6
CONTINUOUS
 10
11.566246
 20
2.907324
 30
0.000000
 11
11.674499
 21
2.969824
 31
0.000000
  0
LINE
  8
DIMEN
 62
     7
  6
CONTINUOUS
 10
11.566246
 20
2.907324
 30
0.000000
 11
11.674499
 21
2.844824
 31
0.000000
  0
LINE
  8
DIMEN
 62
     7
  6
CONTINUOUS
 10
13.691246
 20
2.907324
 30
0.000000
 11
13.582993
 21
2.844824
 31
0.000000
  0
LINE
  8
DIMEN
 62
     7
  6
CONTINUOUS
 10
13.691246
 20
2.907324
 30
0.000000
 11
13.582993
 21
2.969824
 31
0.000000
  0
LINE
  8
DIMEN
 62
     7
  6
CONTINUOUS
 10
11.566246
 20
3.447721
 30
0.000000
 11
11.566246
 21
2.657324
 31
0.000000
  0
LINE
  8
DIMEN
 62
     7
  6
CONTINUOUS
 10
13.691246
 20
3.661221
 30
0.000000
 11
13.691246
 21
2.657324
 31
0.000000
  0
TEXT
  8
DIMEN
 62
     7
 10
12.412705
 20
2.844416
 30
0.000000
 40
0.125000
  1
2 1/8"
  0
LINE
  8
DIMEN
 62
     7
  6
CONTINUOUS
 10
11.566246
 20
2.907324
 30
0.000000
 11
12.381456
 21
2.907324
 31
0.000000
  0
LINE
  8
DIMEN
 62
     7
  6
CONTINUOUS
 10
12.876036
 20
2.907324
 30
0.000000
 11
13.691246
 21
2.907324
 31
0.000000
  0
LINE
  8
DIMEN
 62
     7
  6
CONTINUOUS
 10
13.122667
 20
5.729362
 30
0.000000
 11
13.231929
 21
5.668642
 31
0.000000
  0
LINE
  8
DIMEN
 62
     7
  6
CONTINUOUS
 10
13.122667
 20
5.729362
 30
0.000000
 11
13.124713
 21
5.604379
 31
0.000000
  0
LINE
  8
DIMEN
 62
     7
  6
CONTINUOUS
 10
13.122667
 20
5.729362
 30
0.000000
 11
14.810194
 21
2.913906
 31
0.000000
  0
LINE
  8
DIMEN
 62
     7
  6
CONTINUOUS
 10
14.810194
 20
2.913906
 30
0.000000
 11
15.310194
 21
2.913906
 31
0.000000
  0
TEXT
  8
DIMEN
 62
     7
 10
15.372694
 20
2.851406
 30
0.000000
 40
0.125000
  1
BORE TO SUIT BUSHING
  0
LINE
  8
DIMEN
 62
     7
  6
CONTINUOUS
 10
10.316246
 20
1.385564
 30
0.000000
 11
10.347972
 21
1.506471
 31
0.000000
  0
LINE
  8
DIMEN
 62
     7
  6
CONTINUOUS
 10
10.316246
 20
1.385564
 30
0.000000
 11
10.436817
 21
1.418542
 31
0.000000
  0
LINE
  8
DIMEN
 62
     7
  6
CONTINUOUS
 10
10.316246
 20
1.385564
 30
0.000000
 11
10.702436
 21
1.775779
 31
0.000000
  0
LINE
  8
DIMEN
 62
     7
  6
CONTINUOUS
 10
10.702436
 20
1.775779
 30
0.000000
 11
11.202436
 21
1.775779
 31
0.000000
  0
TEXT
  8
DIMEN
 62
     7
 10
11.264937
 20
1.713279
 30
0.000000
 40
0.125000
  1
TURN, DRILL, AND TAP
  0
TEXT
  8
DIMEN
 62
     7
 10
11.264937
 20
1.525779
 30
0.000000
 40
0.125000
  1
AS PER STD 9" RING 
  0
TEXT
  8
DIMEN
 62
     7
 10
11.264937
 20
1.338279
 30
0.000000
 40
0.125000
  1
PRINT
  0
TEXT
  8
PARTS
 62
     7
 10
14.438492
 20
10.119666
 30
0.000000
 40
0.125000
  1
ELECTRO AUTOMOTIVE
  0
TEXT
  8
PARTS
 62
     7
 10
14.438492
 20
9.932165
 30
0.000000
 40
0.125000
  1
P.O. BOX 1113 FELTON CA. 95018-1113
  0
TEXT
  8
PARTS
 62
     7
 10
14.438492
 20
9.557165
 30
0.000000
 40
0.125000
  1
DRAWN BY MICHAEL P. BROWN
  0
LINE
  8
PARTS
 62
     7
  6
CONTINUOUS
 10
14.305745
 20
10.357162
 30
0.000000
 11
17.872197
 21
10.357162
 31
0.000000
  0
LINE
  8
PARTS
 62
     7
  6
CONTINUOUS
 10
17.872197
 20
10.357162
 30
0.000000
 11
17.872197
 21
9.457176
 31
0.000000
  0
LINE
  8
PARTS
 62
     7
  6
CONTINUOUS
 10
17.872197
 20
9.457176
 30
0.000000
 11
14.305745
 21
9.457176
 31
0.000000
  0
LINE
  8
PARTS
 62
     7
  6
CONTINUOUS
 10
14.305745
 20
9.457176
 30
0.000000
 11
14.305745
 21
10.357162
 31
0.000000
  0
TEXT
  8
PARTS
 62
     7
 10
14.438492
 20
9.744665
 30
0.000000
 40
0.125000
  1
PHONE 831-429-1989 FAX 831-429-1907
  0
LINE
  8
DIMEN
 62
     7
  6
CONTINUOUS
 10
15.190105
 20
5.552748
 30
0.000000
 11
15.095329
 21
5.634249
 31
0.000000
  0
LINE
  8
DIMEN
 62
     7
  6
CONTINUOUS
 10
15.190105
 20
5.552748
 30
0.000000
 11
15.213299
 21
5.675578
 31
0.000000
  0
LINE
  8
DIMEN
 62
     7
  6
CONTINUOUS
 10
15.190105
 20
5.552748
 30
0.000000
 11
14.771272
 21
6.748284
 31
0.000000
  0
LINE
  8
DIMEN
 62
     7
  6
CONTINUOUS
 10
14.771272
 20
6.748284
 30
0.000000
 11
15.271272
 21
6.748284
 31
0.000000
  0
TEXT
  8
DIMEN
 62
     7
 10
15.333772
 20
6.685784
 30
0.000000
 40
0.125000
  1
SEE NOTE A
  0
LINE
  8
DIMEN
 62
     7
  6
CONTINUOUS
 10
14.041863
 20
3.723721
 30
0.000000
 11
13.979363
 21
3.831974
 31
0.000000
  0
LINE
  8
DIMEN
 62
     7
  6
CONTINUOUS
 10
14.041863
 20
3.723721
 30
0.000000
 11
14.104363
 21
3.831974
 31
0.000000
  0
LINE
  8
DIMEN
 62
     7
  6
CONTINUOUS
 10
14.041863
 20
5.973721
 30
0.000000
 11
14.104363
 21
5.865467
 31
0.000000
  0
LINE
  8
DIMEN
 62
     7
  6
CONTINUOUS
 10
14.041863
 20
5.973721
 30
0.000000
 11
13.979363
 21
5.865467
 31
0.000000
  0
LINE
  8
DIMEN
 62
     7
  6
CONTINUOUS
 10
13.753746
 20
3.723721
 30
0.000000
 11
14.291863
 21
3.723721
 31
0.000000
  0
LINE
  8
DIMEN
 62
     7
  6
CONTINUOUS
 10
13.753746
 20
5.973721
 30
0.000000
 11
14.291863
 21
5.973721
 31
0.000000
  0
TEXT
  8
DIMEN
 62
     7
 10
13.816675
 20
4.953699
 30
0.000000
 40
0.125000
  1
2 1/4"
  0
LINE
  8
DIMEN
 62
     7
  6
CONTINUOUS
 10
14.041863
 20
3.723721
 30
0.000000
 11
14.041863
 21
4.922450
 31
0.000000
  0
LINE
  8
DIMEN
 62
     7
  6
CONTINUOUS
 10
14.041863
 20
5.110123
 30
0.000000
 11
14.041863
 21
5.973721
 31
0.000000
  0
TEXT
  8
DIMEN
 62
     7
 10
13.707620
 20
9.177947
 30
0.000000
 40
0.125000
  1
95 SUZUKI SIDEKICK TO 9" ADVANCED DC MOTOR
  0
TEXT
  8
DIMEN
 62
     7
 10
13.707620
 20
8.990447
 30
0.000000
 40
0.125000
  1
WITH NON STANDARD 9" RING
  0
TEXT
  8
DIMEN
 62
     7
 10
13.707620
 20
8.427947
 30
0.000000
 40
0.125000
  1
NOTE B--DRILL 13/64" COUNTERBORE 21/64" x
  0
TEXT
  8
DIMEN
 62
     7
 10
13.707620
 20
8.240447
 30
0.000000
 40
0.125000
  1
5/16"DEEP. THEN BORE PILOT BEARING RECESS
  0
TEXT
  8
DIMEN
 62
     7
 10
13.707620
 20
8.052947
 30
0.000000
 40
0.125000
  1
1.200" DIA x .114" DEEP
  0
TEXT
  8
DIMEN
 62
     7
 10
13.707620
 20
7.865447
 30
0.000000
 40
0.125000
  1
NOTE C--DRILL 11/32" x 5/8" DEEP
  0
TEXT
  8
DIMEN
 62
     7
 10
13.707620
 20
7.677947
 30
0.000000
 40
0.125000
  1
TAP 10mm-1.25 x 1/2" DEEP
  0
TEXT
  8
DIMEN
 62
     7
 10
13.707620
 20
7.490448
 30
0.000000
 40
0.125000
  1
NOTE D--SUPPLY FOUR 3/8-16 x 1 3/4"
  0
TEXT
  8
DIMEN
 62
     7
 10
13.707620
 20
7.302948
 30
0.000000
 40
0.125000
  1
ALLEN HEAD CAP SCREWS FOR MOTOR TO RING
  0
TEXT
  8
DIMEN
 62
     7
 10
13.707620
 20
7.115447
 30
0.000000
 40
0.125000
  1
ASSEMBLY
  0
TEXT
  8
DIMEN
 62
     7
 10
13.707620
 20
8.615447
 30
0.000000
 40
0.125000
  1
NOTE A--TAP 10-24 x 1" DEEP
  0
ENDSEC
  0
EOF
