  0
SECTION
  2
HEADER
  9
$ACADVER
  1
AC1006
  0
ENDSEC
  0
SECTION
  2
TABLES
  0
TABLE
  2
LTYPE
 70
    25
  0
LTYPE
  2
CONTINUOUS
 70
    64
  3
Solid line
 72
    64
 73
     0
 40
0.000000
  0
LTYPE
  2
DASHDOT
 70
    64
  3
__ . __ . __ . __ . __ . __ . __ . __ . __ . __
 72
    65
 73
     4
 40
1.000000
 49
0.500000
 49
-0.250000
 49
0.000000
 49
-0.250000
  0
LTYPE
  2
DASHED
 70
    64
  3
__ __ __ __ __ __ __ __ __ __ __ __ __ __ __ __
 72
    65
 73
     2
 40
0.750000
 49
0.500000
 49
-0.250000
  0
LTYPE
  2
DIVIDE
 70
    64
  3
____ . . ____ . . ____ . . ____ . . ____ . . __
 72
    65
 73
     6
 40
1.250000
 49
0.500000
 49
-0.250000
 49
0.000000
 49
-0.250000
 49
0.000000
 49
-0.250000
  0
LTYPE
  2
DOT
 70
    64
  3
. . . . . . . . . . . . . . . . . . . . . . . . 
 72
    65
 73
     2
 40
0.250000
 49
0.000000
 49
-0.250000
  0
ENDTAB
  0
ENDSEC
  0
SECTION
  2
ENTITIES
  0
POINT
  8
PARTS
 62
     7
 10
0.363526
 20
4.922642
 30
0.000000
  0
LINE
  8
BORDER
 62
     7
  6
CONTINUOUS
 10
0.363526
 20
4.922642
 30
0.000000
 11
0.363526
 21
10.022642
 31
0.000000
  0
LINE
  8
BORDER
 62
     7
  6
CONTINUOUS
 10
0.363526
 20
4.922642
 30
0.000000
 11
0.363526
 21
-0.177358
 31
0.000000
  0
LINE
  8
BORDER
 62
     7
  6
CONTINUOUS
 10
0.363526
 20
10.022642
 30
0.000000
 11
16.663525
 21
10.022642
 31
0.000000
  0
LINE
  8
BORDER
 62
     7
  6
CONTINUOUS
 10
0.363526
 20
-0.177358
 30
0.000000
 11
16.663525
 21
-0.177358
 31
0.000000
  0
LINE
  8
BORDER
 62
     7
  6
CONTINUOUS
 10
16.663525
 20
-0.177358
 30
0.000000
 11
16.663525
 21
10.022642
 31
0.000000
  0
POINT
  8
PARTS
 62
     7
 10
15.363526
 20
4.922642
 30
0.000000
  0
POINT
  8
PARTS
 62
     7
 10
15.363526
 20
4.922642
 30
0.000000
  0
POINT
  8
PARTS
 62
     7
 10
15.363526
 20
4.922642
 30
0.000000
  0
POINT
  8
PARTS
 62
     7
 10
15.363526
 20
4.922642
 30
0.000000
  0
POINT
  8
PARTS
 62
     7
 10
15.363526
 20
4.922642
 30
0.000000
  0
LINE
  8
PARTS
 62
     7
  6
CONTINUOUS
 10
15.363526
 20
9.487642
 30
0.000000
 11
14.298347
 21
9.487642
 31
0.000000
  0
LINE
  8
PARTS
 62
     7
  6
CONTINUOUS
 10
15.363526
 20
0.357642
 30
0.000000
 11
14.299492
 21
0.357642
 31
0.000000
  0
POINT
  8
PARTS
 62
     7
 10
15.363526
 20
4.922642
 30
0.000000
  0
POINT
  8
PARTS
 62
     7
 10
15.366952
 20
8.547640
 30
0.000000
  0
LINE
  8
PARTS
 62
     7
  6
CONTINUOUS
 10
15.366952
 20
8.547640
 30
0.000000
 11
13.479012
 21
8.547640
 31
0.000000
  0
POINT
  8
PARTS
 62
     7
 10
13.973833
 20
8.547640
 30
0.000000
  0
POINT
  8
PARTS
 62
     7
 10
13.973416
 20
8.797640
 30
0.000000
  0
POINT
  8
PARTS
 62
     7
 10
13.973833
 20
8.547640
 30
0.000000
  0
POINT
  8
PARTS
 62
     7
 10
13.973305
 20
8.297642
 30
0.000000
  0
LINE
  8
PARTS
 62
     7
  6
CONTINUOUS
 10
13.973416
 20
8.797640
 30
0.000000
 11
15.367167
 21
8.797640
 31
0.000000
  0
LINE
  8
PARTS
 62
     7
  6
CONTINUOUS
 10
13.973305
 20
8.297642
 30
0.000000
 11
15.366952
 21
8.297642
 31
0.000000
  0
POINT
  8
PARTS
 62
     7
 10
13.973833
 20
8.547640
 30
0.000000
  0
POINT
  8
PARTS
 62
     7
 10
14.036330
 20
8.546999
 30
0.000000
  0
POINT
  8
PARTS
 62
     7
 10
14.036330
 20
8.546999
 30
0.000000
  0
POINT
  8
PARTS
 62
     7
 10
14.098822
 20
8.545938
 30
0.000000
  0
POINT
  8
PARTS
 62
     7
 10
14.098822
 20
8.546999
 30
0.000000
  0
POINT
  8
PARTS
 62
     7
 10
14.161313
 20
8.546999
 30
0.000000
  0
POINT
  8
PARTS
 62
     7
 10
14.223804
 20
8.546999
 30
0.000000
  0
POINT
  8
PARTS
 62
     7
 10
14.286296
 20
8.546999
 30
0.000000
  0
POINT
  8
PARTS
 62
     7
 10
14.348787
 20
8.546999
 30
0.000000
  0
POINT
  8
PARTS
 62
     7
 10
14.411279
 20
8.546999
 30
0.000000
  0
POINT
  8
PARTS
 62
     7
 10
14.473770
 20
8.546999
 30
0.000000
  0
POINT
  8
PARTS
 62
     7
 10
14.536262
 20
8.546999
 30
0.000000
  0
POINT
  8
PARTS
 62
     7
 10
14.598753
 20
8.546999
 30
0.000000
  0
POINT
  8
PARTS
 62
     7
 10
14.661244
 20
8.546999
 30
0.000000
  0
POINT
  8
PARTS
 62
     7
 10
14.723736
 20
8.546999
 30
0.000000
  0
POINT
  8
PARTS
 62
     7
 10
14.786227
 20
8.546999
 30
0.000000
  0
POINT
  8
PARTS
 62
     7
 10
14.848719
 20
8.546999
 30
0.000000
  0
POINT
  8
PARTS
 62
     7
 10
14.911210
 20
8.546999
 30
0.000000
  0
POINT
  8
PARTS
 62
     7
 10
14.973701
 20
8.546999
 30
0.000000
  0
POINT
  8
PARTS
 62
     7
 10
15.036193
 20
8.546999
 30
0.000000
  0
POINT
  8
PARTS
 62
     7
 10
15.098684
 20
8.546999
 30
0.000000
  0
POINT
  8
PARTS
 62
     7
 10
15.161176
 20
8.546999
 30
0.000000
  0
POINT
  8
PARTS
 62
     7
 10
15.223667
 20
8.546999
 30
0.000000
  0
POINT
  8
PARTS
 62
     7
 10
15.286159
 20
8.546999
 30
0.000000
  0
LINE
  8
PARTS
 62
     7
  6
CONTINUOUS
 10
14.036330
 20
8.546999
 30
0.000000
 11
14.036330
 21
8.797575
 31
0.000000
  0
LINE
  8
PARTS
 62
     7
  6
CONTINUOUS
 10
14.036330
 20
8.546999
 30
0.000000
 11
14.036330
 21
8.305134
 31
0.000000
  0
LINE
  8
PARTS
 62
     7
  6
CONTINUOUS
 10
14.098822
 20
8.546999
 30
0.000000
 11
14.098822
 21
8.757999
 31
0.000000
  0
LINE
  8
PARTS
 62
     7
  6
CONTINUOUS
 10
14.098822
 20
8.545938
 30
0.000000
 11
14.098822
 21
8.334938
 31
0.000000
  0
POINT
  8
PARTS
 62
     7
 10
14.161313
 20
8.546999
 30
0.000000
  0
POINT
  8
PARTS
 62
     7
 10
14.161313
 20
8.546999
 30
0.000000
  0
LINE
  8
PARTS
 62
     7
  6
CONTINUOUS
 10
14.161313
 20
8.546999
 30
0.000000
 11
14.161313
 21
8.797575
 31
0.000000
  0
LINE
  8
PARTS
 62
     7
  6
CONTINUOUS
 10
14.161313
 20
8.546999
 30
0.000000
 11
14.161313
 21
8.305134
 31
0.000000
  0
POINT
  8
PARTS
 62
     7
 10
14.286296
 20
8.546999
 30
0.000000
  0
POINT
  8
PARTS
 62
     7
 10
14.286296
 20
8.546999
 30
0.000000
  0
LINE
  8
PARTS
 62
     7
  6
CONTINUOUS
 10
14.286296
 20
8.546999
 30
0.000000
 11
14.286296
 21
8.797575
 31
0.000000
  0
LINE
  8
PARTS
 62
     7
  6
CONTINUOUS
 10
14.286296
 20
8.546999
 30
0.000000
 11
14.286296
 21
8.305134
 31
0.000000
  0
POINT
  8
PARTS
 62
     7
 10
14.411279
 20
8.546999
 30
0.000000
  0
POINT
  8
PARTS
 62
     7
 10
14.411279
 20
8.546999
 30
0.000000
  0
LINE
  8
PARTS
 62
     7
  6
CONTINUOUS
 10
14.411279
 20
8.546999
 30
0.000000
 11
14.411279
 21
8.797575
 31
0.000000
  0
LINE
  8
PARTS
 62
     7
  6
CONTINUOUS
 10
14.411279
 20
8.546999
 30
0.000000
 11
14.411279
 21
8.305134
 31
0.000000
  0
POINT
  8
PARTS
 62
     7
 10
14.536262
 20
8.546999
 30
0.000000
  0
POINT
  8
PARTS
 62
     7
 10
14.536262
 20
8.546999
 30
0.000000
  0
LINE
  8
PARTS
 62
     7
  6
CONTINUOUS
 10
14.536262
 20
8.546999
 30
0.000000
 11
14.536262
 21
8.797575
 31
0.000000
  0
LINE
  8
PARTS
 62
     7
  6
CONTINUOUS
 10
14.536262
 20
8.546999
 30
0.000000
 11
14.536262
 21
8.305134
 31
0.000000
  0
POINT
  8
PARTS
 62
     7
 10
14.661244
 20
8.546999
 30
0.000000
  0
POINT
  8
PARTS
 62
     7
 10
14.661244
 20
8.546999
 30
0.000000
  0
LINE
  8
PARTS
 62
     7
  6
CONTINUOUS
 10
14.661244
 20
8.546999
 30
0.000000
 11
14.661244
 21
8.797575
 31
0.000000
  0
LINE
  8
PARTS
 62
     7
  6
CONTINUOUS
 10
14.661244
 20
8.546999
 30
0.000000
 11
14.661244
 21
8.305134
 31
0.000000
  0
POINT
  8
PARTS
 62
     7
 10
14.786227
 20
8.546999
 30
0.000000
  0
POINT
  8
PARTS
 62
     7
 10
14.786227
 20
8.546999
 30
0.000000
  0
LINE
  8
PARTS
 62
     7
  6
CONTINUOUS
 10
14.786227
 20
8.546999
 30
0.000000
 11
14.786227
 21
8.797575
 31
0.000000
  0
LINE
  8
PARTS
 62
     7
  6
CONTINUOUS
 10
14.786227
 20
8.546999
 30
0.000000
 11
14.786227
 21
8.305134
 31
0.000000
  0
POINT
  8
PARTS
 62
     7
 10
14.911210
 20
8.546999
 30
0.000000
  0
POINT
  8
PARTS
 62
     7
 10
14.911210
 20
8.546999
 30
0.000000
  0
LINE
  8
PARTS
 62
     7
  6
CONTINUOUS
 10
14.911210
 20
8.546999
 30
0.000000
 11
14.911210
 21
8.797575
 31
0.000000
  0
LINE
  8
PARTS
 62
     7
  6
CONTINUOUS
 10
14.911210
 20
8.546999
 30
0.000000
 11
14.911210
 21
8.305134
 31
0.000000
  0
POINT
  8
PARTS
 62
     7
 10
15.036193
 20
8.546999
 30
0.000000
  0
POINT
  8
PARTS
 62
     7
 10
15.036193
 20
8.546999
 30
0.000000
  0
LINE
  8
PARTS
 62
     7
  6
CONTINUOUS
 10
15.036193
 20
8.546999
 30
0.000000
 11
15.036193
 21
8.797575
 31
0.000000
  0
LINE
  8
PARTS
 62
     7
  6
CONTINUOUS
 10
15.036193
 20
8.546999
 30
0.000000
 11
15.036193
 21
8.305134
 31
0.000000
  0
POINT
  8
PARTS
 62
     7
 10
15.161176
 20
8.546999
 30
0.000000
  0
POINT
  8
PARTS
 62
     7
 10
15.161176
 20
8.546999
 30
0.000000
  0
LINE
  8
PARTS
 62
     7
  6
CONTINUOUS
 10
15.161176
 20
8.546999
 30
0.000000
 11
15.161176
 21
8.797575
 31
0.000000
  0
LINE
  8
PARTS
 62
     7
  6
CONTINUOUS
 10
15.161176
 20
8.546999
 30
0.000000
 11
15.161176
 21
8.305134
 31
0.000000
  0
POINT
  8
PARTS
 62
     7
 10
15.286159
 20
8.546999
 30
0.000000
  0
POINT
  8
PARTS
 62
     7
 10
15.286159
 20
8.546999
 30
0.000000
  0
LINE
  8
PARTS
 62
     7
  6
CONTINUOUS
 10
15.286159
 20
8.546999
 30
0.000000
 11
15.286159
 21
8.797575
 31
0.000000
  0
LINE
  8
PARTS
 62
     7
  6
CONTINUOUS
 10
15.286159
 20
8.546999
 30
0.000000
 11
15.286159
 21
8.305134
 31
0.000000
  0
POINT
  8
PARTS
 62
     7
 10
14.223804
 20
8.545938
 30
0.000000
  0
POINT
  8
PARTS
 62
     7
 10
14.223804
 20
8.546999
 30
0.000000
  0
LINE
  8
PARTS
 62
     7
  6
CONTINUOUS
 10
14.223804
 20
8.546999
 30
0.000000
 11
14.223804
 21
8.757999
 31
0.000000
  0
LINE
  8
PARTS
 62
     7
  6
CONTINUOUS
 10
14.223804
 20
8.545938
 30
0.000000
 11
14.223804
 21
8.334938
 31
0.000000
  0
POINT
  8
PARTS
 62
     7
 10
14.348787
 20
8.545938
 30
0.000000
  0
POINT
  8
PARTS
 62
     7
 10
14.348787
 20
8.546999
 30
0.000000
  0
LINE
  8
PARTS
 62
     7
  6
CONTINUOUS
 10
14.348787
 20
8.546999
 30
0.000000
 11
14.348787
 21
8.757999
 31
0.000000
  0
LINE
  8
PARTS
 62
     7
  6
CONTINUOUS
 10
14.348787
 20
8.545938
 30
0.000000
 11
14.348787
 21
8.334938
 31
0.000000
  0
POINT
  8
PARTS
 62
     7
 10
14.473770
 20
8.545938
 30
0.000000
  0
POINT
  8
PARTS
 62
     7
 10
14.473770
 20
8.546999
 30
0.000000
  0
LINE
  8
PARTS
 62
     7
  6
CONTINUOUS
 10
14.473770
 20
8.546999
 30
0.000000
 11
14.473770
 21
8.757999
 31
0.000000
  0
LINE
  8
PARTS
 62
     7
  6
CONTINUOUS
 10
14.473770
 20
8.545938
 30
0.000000
 11
14.473770
 21
8.334938
 31
0.000000
  0
POINT
  8
PARTS
 62
     7
 10
14.598753
 20
8.545938
 30
0.000000
  0
POINT
  8
PARTS
 62
     7
 10
14.598753
 20
8.546999
 30
0.000000
  0
LINE
  8
PARTS
 62
     7
  6
CONTINUOUS
 10
14.598753
 20
8.546999
 30
0.000000
 11
14.598753
 21
8.757999
 31
0.000000
  0
LINE
  8
PARTS
 62
     7
  6
CONTINUOUS
 10
14.598753
 20
8.545938
 30
0.000000
 11
14.598753
 21
8.334938
 31
0.000000
  0
POINT
  8
PARTS
 62
     7
 10
14.723736
 20
8.545938
 30
0.000000
  0
POINT
  8
PARTS
 62
     7
 10
14.723736
 20
8.546999
 30
0.000000
  0
LINE
  8
PARTS
 62
     7
  6
CONTINUOUS
 10
14.723736
 20
8.546999
 30
0.000000
 11
14.723736
 21
8.757999
 31
0.000000
  0
LINE
  8
PARTS
 62
     7
  6
CONTINUOUS
 10
14.723736
 20
8.545938
 30
0.000000
 11
14.723736
 21
8.334938
 31
0.000000
  0
POINT
  8
PARTS
 62
     7
 10
14.848719
 20
8.545938
 30
0.000000
  0
POINT
  8
PARTS
 62
     7
 10
14.848719
 20
8.546999
 30
0.000000
  0
LINE
  8
PARTS
 62
     7
  6
CONTINUOUS
 10
14.848719
 20
8.546999
 30
0.000000
 11
14.848719
 21
8.757999
 31
0.000000
  0
LINE
  8
PARTS
 62
     7
  6
CONTINUOUS
 10
14.848719
 20
8.545938
 30
0.000000
 11
14.848719
 21
8.334938
 31
0.000000
  0
POINT
  8
PARTS
 62
     7
 10
14.973701
 20
8.545938
 30
0.000000
  0
POINT
  8
PARTS
 62
     7
 10
14.973701
 20
8.546999
 30
0.000000
  0
LINE
  8
PARTS
 62
     7
  6
CONTINUOUS
 10
14.973701
 20
8.546999
 30
0.000000
 11
14.973701
 21
8.757999
 31
0.000000
  0
LINE
  8
PARTS
 62
     7
  6
CONTINUOUS
 10
14.973701
 20
8.545938
 30
0.000000
 11
14.973701
 21
8.334938
 31
0.000000
  0
POINT
  8
PARTS
 62
     7
 10
15.098684
 20
8.545938
 30
0.000000
  0
POINT
  8
PARTS
 62
     7
 10
15.098684
 20
8.546999
 30
0.000000
  0
LINE
  8
PARTS
 62
     7
  6
CONTINUOUS
 10
15.098684
 20
8.546999
 30
0.000000
 11
15.098684
 21
8.757999
 31
0.000000
  0
LINE
  8
PARTS
 62
     7
  6
CONTINUOUS
 10
15.098684
 20
8.545938
 30
0.000000
 11
15.098684
 21
8.334938
 31
0.000000
  0
POINT
  8
PARTS
 62
     7
 10
15.223667
 20
8.545938
 30
0.000000
  0
POINT
  8
PARTS
 62
     7
 10
15.223667
 20
8.546999
 30
0.000000
  0
LINE
  8
PARTS
 62
     7
  6
CONTINUOUS
 10
15.223667
 20
8.546999
 30
0.000000
 11
15.223667
 21
8.757999
 31
0.000000
  0
LINE
  8
PARTS
 62
     7
  6
CONTINUOUS
 10
15.223667
 20
8.545938
 30
0.000000
 11
15.223667
 21
8.334938
 31
0.000000
  0
POINT
  8
PARTS
 62
     7
 10
15.363526
 20
4.922642
 30
0.000000
  0
POINT
  8
PARTS
 62
     7
 10
15.363526
 20
0.722642
 30
0.000000
  0
POINT
  8
PARTS
 62
     7
 10
15.363526
 20
0.722642
 30
0.000000
  0
POINT
  8
PARTS
 62
     7
 10
15.363526
 20
0.722642
 30
0.000000
  0
POINT
  8
PARTS
 62
     7
 10
15.362768
 20
0.519644
 30
0.000000
  0
POINT
  8
PARTS
 62
     7
 10
15.363526
 20
0.722642
 30
0.000000
  0
POINT
  8
PARTS
 62
     7
 10
15.363526
 20
0.722642
 30
0.000000
  0
POINT
  8
PARTS
 62
     7
 10
15.362753
 20
0.925641
 30
0.000000
  0
POINT
  8
PARTS
 62
     7
 10
13.973833
 20
0.680351
 30
0.000000
  0
LINE
  8
PARTS
 62
     7
  6
CONTINUOUS
 10
15.363526
 20
0.722642
 30
0.000000
 11
13.742130
 21
0.722642
 31
0.000000
  0
POINT
  8
PARTS
 62
     7
 10
13.973833
 20
0.722642
 30
0.000000
  0
POINT
  8
PARTS
 62
     7
 10
13.973833
 20
0.722642
 30
0.000000
  0
POINT
  8
PARTS
 62
     7
 10
13.971903
 20
1.019636
 30
0.000000
  0
POINT
  8
PARTS
 62
     7
 10
13.973833
 20
0.680351
 30
0.000000
  0
POINT
  8
PARTS
 62
     7
 10
13.973833
 20
0.722642
 30
0.000000
  0
POINT
  8
PARTS
 62
     7
 10
13.973833
 20
0.722642
 30
0.000000
  0
LINE
  8
PARTS
 62
     7
  6
CONTINUOUS
 10
14.270704
 20
0.425649
 30
0.000000
 11
14.645704
 21
0.425649
 31
0.000000
  0
LINE
  8
PARTS
 62
     7
  6
CONTINUOUS
 10
14.645704
 20
0.425649
 30
0.000000
 11
14.645704
 21
1.019650
 31
0.000000
  0
LINE
  8
PARTS
 62
     7
  6
CONTINUOUS
 10
14.645704
 20
1.019650
 30
0.000000
 11
13.971903
 21
1.019650
 31
0.000000
  0
LINE
  8
PARTS
 62
     7
  6
CONTINUOUS
 10
14.644694
 20
0.925641
 30
0.000000
 11
15.362753
 21
0.925641
 31
0.000000
  0
LINE
  8
PARTS
 62
     7
  6
CONTINUOUS
 10
14.644694
 20
0.519644
 30
0.000000
 11
15.362768
 21
0.519644
 31
0.000000
  0
POINT
  8
PARTS
 62
     7
 10
15.363526
 20
0.357642
 30
0.000000
  0
LINE
  8
PARTS
 62
     7
  6
CONTINUOUS
 10
14.282455
 20
2.922642
 30
0.000000
 11
15.363526
 21
2.922642
 31
0.000000
  0
LINE
  8
PARTS
 62
     7
  6
CONTINUOUS
 10
14.281340
 20
6.922642
 30
0.000000
 11
15.363526
 21
6.922642
 31
0.000000
  0
POINT
  8
PARTS
 62
     7
 10
0.363526
 20
4.922642
 30
0.000000
  0
POINT
  8
PARTS
 62
     7
 10
5.863526
 20
4.922642
 30
0.000000
  0
CIRCLE
  8
PARTS
 62
     7
  6
CONTINUOUS
 10
5.863526
 20
4.922642
 30
0.000000
 40
4.565000
  0
CIRCLE
  8
PARTS
 62
     7
  6
CONTINUOUS
 10
5.863526
 20
4.922642
 30
0.000000
 40
3.000000
  0
CIRCLE
  8
PARTS
 62
     7
  6
CONTINUOUS
 10
5.863526
 20
4.922642
 30
0.000000
 40
2.000000
  0
CIRCLE
  8
PARTS
 62
     7
  6
CONTINUOUS
 10
5.863526
 20
4.922642
 30
0.000000
 40
3.625000
  0
CIRCLE
  8
PARTS
 62
     7
  6
CONTINUOUS
 10
5.863526
 20
4.922642
 30
0.000000
 40
4.200000
  0
CIRCLE
  8
PARTS
 62
     7
  6
CONTINUOUS
 10
5.863526
 20
4.922642
 30
0.000000
 40
4.250000
  0
LINE
  8
PARTS
 62
     7
  6
CONTINUOUS
 10
5.863526
 20
4.922642
 30
0.000000
 11
5.863526
 21
-0.177303
 31
0.000000
  0
LINE
  8
PARTS
 62
     7
  6
CONTINUOUS
 10
5.863526
 20
4.922642
 30
0.000000
 11
5.863526
 21
10.022587
 31
0.000000
  0
CIRCLE
  8
PARTS
 62
     7
  6
CONTINUOUS
 10
5.862116
 20
8.546751
 30
0.000000
 40
0.250000
  0
CIRCLE
  8
PARTS
 62
     7
  6
CONTINUOUS
 10
2.239417
 20
4.921233
 30
0.000000
 40
0.250000
  0
CIRCLE
  8
PARTS
 62
     7
  6
CONTINUOUS
 10
5.864935
 20
1.298534
 30
0.000000
 40
0.250000
  0
CIRCLE
  8
PARTS
 62
     7
  6
CONTINUOUS
 10
9.487635
 20
4.924052
 30
0.000000
 40
0.250000
  0
LINE
  8
PARTS
 62
     7
  6
CONTINUOUS
 10
5.863526
 20
4.922642
 30
0.000000
 11
1.728478
 21
0.787595
 31
0.000000
  0
LINE
  8
PARTS
 62
     7
  6
CONTINUOUS
 10
5.863526
 20
4.922642
 30
0.000000
 11
9.870127
 21
0.916041
 31
0.000000
  0
POINT
  8
PARTS
 62
     7
 10
8.833375
 20
7.892491
 30
0.000000
  0
CIRCLE
  8
PARTS
 62
     7
  6
CONTINUOUS
 10
8.833375
 20
7.892491
 30
0.000000
 40
0.203001
  0
CIRCLE
  8
PARTS
 62
     7
  6
CONTINUOUS
 10
8.833375
 20
7.892491
 30
0.000000
 40
0.297000
  0
LINE
  8
PARTS
 62
     7
  6
CONTINUOUS
 10
16.373775
 20
0.357642
 30
0.000000
 11
16.311275
 21
0.465895
 31
0.000000
  0
LINE
  8
PARTS
 62
     7
  6
CONTINUOUS
 10
16.373775
 20
0.357642
 30
0.000000
 11
16.436275
 21
0.465895
 31
0.000000
  0
LINE
  8
PARTS
 62
     7
  6
CONTINUOUS
 10
16.373775
 20
9.487642
 30
0.000000
 11
16.436275
 21
9.379389
 31
0.000000
  0
LINE
  8
PARTS
 62
     7
  6
CONTINUOUS
 10
16.373775
 20
9.487642
 30
0.000000
 11
16.311275
 21
9.379389
 31
0.000000
  0
LINE
  8
PARTS
 62
     7
  6
CONTINUOUS
 10
15.426026
 20
0.357642
 30
0.000000
 11
16.623775
 21
0.357642
 31
0.000000
  0
LINE
  8
PARTS
 62
     7
  6
CONTINUOUS
 10
15.426026
 20
9.487642
 30
0.000000
 11
16.623775
 21
9.487642
 31
0.000000
  0
TEXT
  8
PARTS
 62
     7
 10
16.163978
 20
5.780019
 30
0.000000
 40
0.125000
  1
9.130"
  0
LINE
  8
PARTS
 62
     7
  6
CONTINUOUS
 10
16.373775
 20
0.357642
 30
0.000000
 11
16.373775
 21
5.748769
 31
0.000000
  0
LINE
  8
PARTS
 62
     7
  6
CONTINUOUS
 10
16.373775
 20
5.936864
 30
0.000000
 11
16.373775
 21
9.487642
 31
0.000000
  0
LINE
  8
PARTS
 62
     7
  6
CONTINUOUS
 10
15.727216
 20
2.922642
 30
0.000000
 11
15.664716
 21
3.030895
 31
0.000000
  0
LINE
  8
PARTS
 62
     7
  6
CONTINUOUS
 10
15.727216
 20
2.922642
 30
0.000000
 11
15.789716
 21
3.030895
 31
0.000000
  0
LINE
  8
PARTS
 62
     7
  6
CONTINUOUS
 10
15.727216
 20
6.922642
 30
0.000000
 11
15.789716
 21
6.814389
 31
0.000000
  0
LINE
  8
PARTS
 62
     7
  6
CONTINUOUS
 10
15.727216
 20
6.922642
 30
0.000000
 11
15.664716
 21
6.814389
 31
0.000000
  0
LINE
  8
PARTS
 62
     7
  6
CONTINUOUS
 10
15.426026
 20
2.922642
 30
0.000000
 11
15.977216
 21
2.922642
 31
0.000000
  0
LINE
  8
PARTS
 62
     7
  6
CONTINUOUS
 10
15.426026
 20
6.922642
 30
0.000000
 11
15.977216
 21
6.922642
 31
0.000000
  0
TEXT
  8
PARTS
 62
     7
 10
15.178166
 20
4.023812
 30
0.000000
 40
0.125000
  1
4.000"
  0
TEXT
  8
PARTS
 62
     7
 10
15.690437
 20
4.117859
 30
0.000000
 40
0.125000
  1
+0.000"
  0
TEXT
  8
PARTS
 62
     7
 10
15.690437
 20
3.929765
 30
0.000000
 40
0.125000
  1
-0.002"
  0
LINE
  8
PARTS
 62
     7
  6
CONTINUOUS
 10
15.727216
 20
2.922642
 30
0.000000
 11
15.727216
 21
3.898515
 31
0.000000
  0
LINE
  8
PARTS
 62
     7
  6
CONTINUOUS
 10
15.727216
 20
4.274704
 30
0.000000
 11
15.727216
 21
6.922642
 31
0.000000
  0
LINE
  8
PARTS
 62
     7
  6
CONTINUOUS
 10
15.363526
 20
4.228386
 30
0.000000
 11
15.363526
 21
4.922642
 31
0.000000
  0
LINE
  8
PARTS
 62
     7
  6
CONTINUOUS
 10
15.363526
 20
3.914042
 30
0.000000
 11
15.363526
 21
0.357642
 31
0.000000
  0
POINT
  8
PARTS
 62
     7
 10
13.973833
 20
4.922642
 30
0.000000
  0
LINE
  8
PARTS
 62
     7
  6
CONTINUOUS
 10
13.973833
 20
4.922642
 30
0.000000
 11
13.973833
 21
9.172642
 31
0.000000
  0
LINE
  8
PARTS
 62
     7
  6
CONTINUOUS
 10
13.973833
 20
9.172642
 30
0.000000
 11
14.161333
 21
9.172642
 31
0.000000
  0
LINE
  8
PARTS
 62
     7
  6
CONTINUOUS
 10
14.161333
 20
9.172642
 30
0.000000
 11
14.298347
 21
9.487642
 31
0.000000
  0
LINE
  8
PARTS
 62
     7
  6
CONTINUOUS
 10
13.973833
 20
4.922642
 30
0.000000
 11
13.973833
 21
0.672642
 31
0.000000
  0
LINE
  8
PARTS
 62
     7
  6
CONTINUOUS
 10
13.973833
 20
0.680351
 30
0.000000
 11
14.156333
 21
0.680351
 31
0.000000
  0
LINE
  8
PARTS
 62
     7
  6
CONTINUOUS
 10
14.156333
 20
0.680351
 30
0.000000
 11
14.299492
 21
0.357642
 31
0.000000
  0
LINE
  8
PARTS
 62
     7
  6
CONTINUOUS
 10
12.519291
 20
0.672642
 30
0.000000
 11
12.456791
 21
0.780895
 31
0.000000
  0
LINE
  8
PARTS
 62
     7
  6
CONTINUOUS
 10
12.519291
 20
0.672642
 30
0.000000
 11
12.581791
 21
0.780895
 31
0.000000
  0
LINE
  8
PARTS
 62
     7
  6
CONTINUOUS
 10
12.519291
 20
9.172642
 30
0.000000
 11
12.581791
 21
9.064389
 31
0.000000
  0
LINE
  8
PARTS
 62
     7
  6
CONTINUOUS
 10
12.519291
 20
9.172642
 30
0.000000
 11
12.456791
 21
9.064389
 31
0.000000
  0
LINE
  8
PARTS
 62
     7
  6
CONTINUOUS
 10
13.911333
 20
0.672642
 30
0.000000
 11
12.269291
 21
0.672642
 31
0.000000
  0
LINE
  8
PARTS
 62
     7
  6
CONTINUOUS
 10
13.911333
 20
9.172642
 30
0.000000
 11
12.269291
 21
9.172642
 31
0.000000
  0
TEXT
  8
PARTS
 62
     7
 10
11.984500
 20
5.990512
 30
0.000000
 40
0.125000
  1
8.500"
  0
TEXT
  8
PARTS
 62
     7
 10
12.468253
 20
6.084811
 30
0.000000
 40
0.125000
  1
+0.000"
  0
TEXT
  8
PARTS
 62
     7
 10
12.468253
 20
5.896214
 30
0.000000
 40
0.125000
  1
-0.002"
  0
LINE
  8
PARTS
 62
     7
  6
CONTINUOUS
 10
12.519291
 20
0.672642
 30
0.000000
 11
12.519291
 21
5.865215
 31
0.000000
  0
LINE
  8
PARTS
 62
     7
  6
CONTINUOUS
 10
12.519291
 20
6.241907
 30
0.000000
 11
12.519291
 21
9.172642
 31
0.000000
  0
POINT
  8
PARTS
 62
     7
 10
13.973833
 20
4.922642
 30
0.000000
  0
POINT
  8
PARTS
 62
     7
 10
13.973833
 20
4.922642
 30
0.000000
  0
POINT
  8
PARTS
 62
     7
 10
13.973833
 20
4.922642
 30
0.000000
  0
POINT
  8
PARTS
 62
     7
 10
13.975940
 20
7.922641
 30
0.000000
  0
LINE
  8
PARTS
 62
     7
  6
CONTINUOUS
 10
13.975940
 20
7.922641
 30
0.000000
 11
14.288440
 21
7.922641
 31
0.000000
  0
LINE
  8
PARTS
 62
     7
  6
CONTINUOUS
 10
14.288440
 20
7.922641
 30
0.000000
 11
14.288440
 21
6.922642
 31
0.000000
  0
POINT
  8
PARTS
 62
     7
 10
13.973833
 20
4.922642
 30
0.000000
  0
POINT
  8
PARTS
 62
     7
 10
13.973833
 20
4.922642
 30
0.000000
  0
POINT
  8
PARTS
 62
     7
 10
13.973346
 20
1.922642
 30
0.000000
  0
LINE
  8
PARTS
 62
     7
  6
CONTINUOUS
 10
13.973346
 20
1.922642
 30
0.000000
 11
14.285846
 21
1.922642
 31
0.000000
  0
LINE
  8
PARTS
 62
     7
  6
CONTINUOUS
 10
14.285846
 20
1.922642
 30
0.000000
 11
14.285846
 21
2.922642
 31
0.000000
  0
LINE
  8
PARTS
 62
     7
  6
CONTINUOUS
 10
14.288440
 20
6.922642
 30
0.000000
 11
14.288440
 21
2.922642
 31
0.000000
  0
LINE
  8
PARTS
 62
     7
  6
CONTINUOUS
 10
13.474209
 20
1.922642
 30
0.000000
 11
13.411709
 21
2.030895
 31
0.000000
  0
LINE
  8
PARTS
 62
     7
  6
CONTINUOUS
 10
13.474209
 20
1.922642
 30
0.000000
 11
13.536709
 21
2.030895
 31
0.000000
  0
LINE
  8
PARTS
 62
     7
  6
CONTINUOUS
 10
13.474209
 20
7.922641
 30
0.000000
 11
13.536709
 21
7.814388
 31
0.000000
  0
LINE
  8
PARTS
 62
     7
  6
CONTINUOUS
 10
13.474209
 20
7.922641
 30
0.000000
 11
13.411709
 21
7.814388
 31
0.000000
  0
LINE
  8
PARTS
 62
     7
  6
CONTINUOUS
 10
13.910846
 20
1.922642
 30
0.000000
 11
13.224209
 21
1.922642
 31
0.000000
  0
LINE
  8
PARTS
 62
     7
  6
CONTINUOUS
 10
13.913440
 20
7.922641
 30
0.000000
 11
13.224209
 21
7.922641
 31
0.000000
  0
TEXT
  8
PARTS
 62
     7
 10
13.220210
 20
4.061278
 30
0.000000
 40
0.125000
  1
6.000"
  0
LINE
  8
PARTS
 62
     7
  6
CONTINUOUS
 10
13.474209
 20
1.922642
 30
0.000000
 11
13.474209
 21
4.030028
 31
0.000000
  0
LINE
  8
PARTS
 62
     7
  6
CONTINUOUS
 10
13.474209
 20
4.218123
 30
0.000000
 11
13.474209
 21
7.922641
 31
0.000000
  0
LINE
  8
PARTS
 62
     7
  6
CONTINUOUS
 10
13.973833
 20
9.818592
 30
0.000000
 11
14.082086
 21
9.881092
 31
0.000000
  0
LINE
  8
PARTS
 62
     7
  6
CONTINUOUS
 10
13.973833
 20
9.818592
 30
0.000000
 11
14.082086
 21
9.756092
 31
0.000000
  0
LINE
  8
PARTS
 62
     7
  6
CONTINUOUS
 10
15.367655
 20
9.818592
 30
0.000000
 11
15.259402
 21
9.756092
 31
0.000000
  0
LINE
  8
PARTS
 62
     7
  6
CONTINUOUS
 10
15.367655
 20
9.818592
 30
0.000000
 11
15.259402
 21
9.881092
 31
0.000000
  0
LINE
  8
PARTS
 62
     7
  6
CONTINUOUS
 10
13.973833
 20
9.235142
 30
0.000000
 11
13.973833
 21
10.068592
 31
0.000000
  0
LINE
  8
PARTS
 62
     7
  6
CONTINUOUS
 10
15.367655
 20
9.235142
 30
0.000000
 11
15.367655
 21
10.068592
 31
0.000000
  0
TEXT
  8
PARTS
 62
     7
 10
14.460176
 20
9.755990
 30
0.000000
 40
0.125000
  1
1.394"
  0
LINE
  8
PARTS
 62
     7
  6
CONTINUOUS
 10
13.973833
 20
9.818592
 30
0.000000
 11
14.428927
 21
9.818592
 31
0.000000
  0
LINE
  8
PARTS
 62
     7
  6
CONTINUOUS
 10
14.912561
 20
9.818592
 30
0.000000
 11
15.367655
 21
9.818592
 31
0.000000
  0
LINE
  8
PARTS
 62
     7
  6
CONTINUOUS
 10
13.912100
 20
7.642447
 30
0.000000
 11
13.416958
 21
7.642447
 31
0.000000
  0
LINE
  8
PARTS
 62
     7
  6
CONTINUOUS
 10
15.363526
 20
4.922642
 30
0.000000
 11
15.363526
 21
6.922642
 31
0.000000
  0
POINT
  8
PARTS
 62
     7
 10
5.863526
 20
4.922642
 30
0.000000
  0
POINT
  8
PARTS
 62
     7
 10
11.252755
 20
4.922748
 30
0.000000
  0
LINE
  8
PARTS
 62
     7
  6
CONTINUOUS
 10
8.867784
 20
8.196325
 30
0.000000
 11
8.750343
 21
8.239135
 31
0.000000
  0
LINE
  8
PARTS
 62
     7
  6
CONTINUOUS
 10
8.867784
 20
8.196325
 30
0.000000
 11
8.846138
 21
8.319437
 31
0.000000
  0
LINE
  8
PARTS
 62
     7
  6
CONTINUOUS
 10
8.867784
 20
8.196325
 30
0.000000
 11
7.853626
 21
9.406157
 31
0.000000
  0
LINE
  8
PARTS
 62
     7
  6
CONTINUOUS
 10
7.853626
 20
9.406157
 30
0.000000
 11
8.353626
 21
9.406157
 31
0.000000
  0
TEXT
  8
PARTS
 62
     7
 10
8.416126
 20
9.343656
 30
0.000000
 40
0.125000
  1
SEE NOTE A.
  0
LINE
  8
PARTS
 62
     7
  6
CONTINUOUS
 10
5.967820
 20
8.765356
 30
0.000000
 11
5.947431
 21
8.888682
 31
0.000000
  0
LINE
  8
PARTS
 62
     7
  6
CONTINUOUS
 10
5.967820
 20
8.765356
 30
0.000000
 11
6.064429
 21
8.844677
 31
0.000000
  0
LINE
  8
PARTS
 62
     7
  6
CONTINUOUS
 10
5.967820
 20
8.765356
 30
0.000000
 11
6.315621
 21
9.690062
 31
0.000000
  0
LINE
  8
PARTS
 62
     7
  6
CONTINUOUS
 10
6.315621
 20
9.690062
 30
0.000000
 11
6.815621
 21
9.690062
 31
0.000000
  0
TEXT
  8
PARTS
 62
     7
 10
6.878121
 20
9.627562
 30
0.000000
 40
0.125000
  1
DRILL 27/64 TAP 1/2-13 THROUGH
  0
LINE
  8
PARTS
 62
     7
  6
CONTINUOUS
 10
6.518152
 20
1.369248
 30
0.000000
 11
6.609734
 21
1.284174
 31
0.000000
  0
LINE
  8
PARTS
 62
     7
  6
CONTINUOUS
 10
6.518152
 20
1.369248
 30
0.000000
 11
6.490266
 21
1.247399
 31
0.000000
  0
LINE
  8
PARTS
 62
     7
  6
CONTINUOUS
 10
6.518152
 20
1.369248
 30
0.000000
 11
6.928541
 21
0.036051
 31
0.000000
  0
LINE
  8
PARTS
 62
     7
  6
CONTINUOUS
 10
6.928541
 20
0.036051
 30
0.000000
 11
7.428541
 21
0.036051
 31
0.000000
  0
TEXT
  8
PARTS
 62
     7
 10
7.491041
 20
-0.026449
 30
0.000000
 40
0.125000
  1
BOLT CIRC.7 1/4 D.
  0
LINE
  8
PARTS
 62
     7
  6
CONTINUOUS
 10
7.229493
 20
0.944171
 30
0.000000
 11
7.330944
 21
0.871146
 31
0.000000
  0
LINE
  8
PARTS
 62
     7
  6
CONTINUOUS
 10
7.229493
 20
0.944171
 30
0.000000
 11
7.216977
 21
0.819799
 31
0.000000
  0
LINE
  8
PARTS
 62
     7
  6
CONTINUOUS
 10
7.229493
 20
0.944171
 30
0.000000
 11
7.516765
 21
0.306555
 31
0.000000
  0
LINE
  8
PARTS
 62
     7
  6
CONTINUOUS
 10
7.516765
 20
0.306555
 30
0.000000
 11
8.016765
 21
0.306555
 31
0.000000
  0
TEXT
  8
PARTS
 62
     7
 10
8.079264
 20
0.244055
 30
0.000000
 40
0.125000
  1
BOLT CIRC.8.400 D.
  0
LINE
  8
PARTS
 62
     7
  6
CONTINUOUS
 10
7.749319
 20
1.098745
 30
0.000000
 11
7.858371
 21
1.037649
 31
0.000000
  0
LINE
  8
PARTS
 62
     7
  6
CONTINUOUS
 10
7.749319
 20
1.098745
 30
0.000000
 11
7.750934
 21
0.973755
 31
0.000000
  0
LINE
  8
PARTS
 62
     7
  6
CONTINUOUS
 10
7.749319
 20
1.098745
 30
0.000000
 11
8.036592
 21
0.615702
 31
0.000000
  0
LINE
  8
PARTS
 62
     7
  6
CONTINUOUS
 10
8.036592
 20
0.615702
 30
0.000000
 11
8.536592
 21
0.615702
 31
0.000000
  0
TEXT
  8
PARTS
 62
     7
 10
8.599092
 20
0.553202
 30
0.000000
 40
0.125000
  1
SEE NOTE A.
  0
LINE
  8
PARTS
 62
     7
  6
CONTINUOUS
 10
2.426102
 20
8.360065
 30
0.000000
 11
5.863526
 21
4.922642
 31
0.000000
  0
TEXT
  8
PARTS
 62
     7
 10
0.704917
 20
9.409061
 30
0.000000
 40
0.125000
  1
ELECTRO AUTOMOTIVE
  0
TEXT
  8
PARTS
 62
     7
 10
0.704917
 20
9.221561
 30
0.000000
 40
0.125000
  1
P.O.BOX 1113 FELTON CA. 95018-1113
  0
LINE
  8
PARTS
 62
     7
  6
CONTINUOUS
 10
0.363526
 20
4.922642
 30
0.000000
 11
16.863525
 21
4.922642
 31
0.000000
  0
LINE
  8
PARTS
 62
     7
  6
CONTINUOUS
 10
15.367167
 20
8.797640
 30
0.000000
 11
15.367167
 21
8.297642
 31
0.000000
  0
POINT
  8
PARTS
 62
     7
 10
2.893677
 20
7.892491
 30
0.000000
  0
CIRCLE
  8
PARTS
 62
     7
  6
CONTINUOUS
 10
2.893677
 20
7.892491
 30
0.000000
 40
0.203000
  0
CIRCLE
  8
PARTS
 62
     7
  6
CONTINUOUS
 10
2.893677
 20
7.892491
 30
0.000000
 40
0.297000
  0
POINT
  8
PARTS
 62
     7
 10
2.893677
 20
1.952794
 30
0.000000
  0
CIRCLE
  8
PARTS
 62
     7
  6
CONTINUOUS
 10
2.893677
 20
1.952794
 30
0.000000
 40
0.203000
  0
CIRCLE
  8
PARTS
 62
     7
  6
CONTINUOUS
 10
2.893677
 20
1.952794
 30
0.000000
 40
0.297000
  0
POINT
  8
PARTS
 62
     7
 10
8.833375
 20
1.952794
 30
0.000000
  0
CIRCLE
  8
PARTS
 62
     7
  6
CONTINUOUS
 10
8.833375
 20
1.952794
 30
0.000000
 40
0.203000
  0
CIRCLE
  8
PARTS
 62
     7
  6
CONTINUOUS
 10
8.833375
 20
1.952794
 30
0.000000
 40
0.297000
  0
LINE
  8
PARTS
 62
     7
  6
CONTINUOUS
 10
13.973833
 20
9.365182
 30
0.000000
 11
13.865580
 21
9.302682
 31
0.000000
  0
LINE
  8
PARTS
 62
     7
  6
CONTINUOUS
 10
13.973833
 20
9.365182
 30
0.000000
 11
13.865580
 21
9.427682
 31
0.000000
  0
LINE
  8
PARTS
 62
     7
  6
CONTINUOUS
 10
14.161333
 20
9.365182
 30
0.000000
 11
14.269586
 21
9.427682
 31
0.000000
  0
LINE
  8
PARTS
 62
     7
  6
CONTINUOUS
 10
14.161333
 20
9.365182
 30
0.000000
 11
14.269586
 21
9.302682
 31
0.000000
  0
LINE
  8
PARTS
 62
     7
  6
CONTINUOUS
 10
13.973833
 20
9.235142
 30
0.000000
 11
13.973833
 21
9.615182
 31
0.000000
  0
LINE
  8
PARTS
 62
     7
  6
CONTINUOUS
 10
14.161333
 20
9.235142
 30
0.000000
 11
14.161333
 21
9.615182
 31
0.000000
  0
TEXT
  8
PARTS
 62
     7
 10
13.268524
 20
9.302461
 30
0.000000
 40
0.125000
  1
3/16"
  0
LINE
  8
PARTS
 62
     7
  6
CONTINUOUS
 10
13.973833
 20
9.365182
 30
0.000000
 11
13.723833
 21
9.365182
 31
0.000000
  0
LINE
  8
PARTS
 62
     7
  6
CONTINUOUS
 10
14.161333
 20
9.365182
 30
0.000000
 11
14.411333
 21
9.365182
 31
0.000000
  0
LINE
  8
PARTS
 62
     7
  6
CONTINUOUS
 10
13.975940
 20
7.643239
 30
0.000000
 11
13.867687
 21
7.580739
 31
0.000000
  0
LINE
  8
PARTS
 62
     7
  6
CONTINUOUS
 10
13.975940
 20
7.643239
 30
0.000000
 11
13.867687
 21
7.705739
 31
0.000000
  0
LINE
  8
PARTS
 62
     7
  6
CONTINUOUS
 10
14.288440
 20
7.643239
 30
0.000000
 11
14.396693
 21
7.705739
 31
0.000000
  0
LINE
  8
PARTS
 62
     7
  6
CONTINUOUS
 10
14.288440
 20
7.643239
 30
0.000000
 11
14.396693
 21
7.580739
 31
0.000000
  0
LINE
  8
PARTS
 62
     7
  6
CONTINUOUS
 10
13.975940
 20
7.860141
 30
0.000000
 11
13.975940
 21
7.393239
 31
0.000000
  0
LINE
  8
PARTS
 62
     7
  6
CONTINUOUS
 10
14.288440
 20
7.860141
 30
0.000000
 11
14.288440
 21
7.393239
 31
0.000000
  0
TEXT
  8
PARTS
 62
     7
 10
12.981907
 20
7.580432
 30
0.000000
 40
0.125000
  1
5/16"
  0
LINE
  8
PARTS
 62
     7
  6
CONTINUOUS
 10
13.975940
 20
7.643239
 30
0.000000
 11
13.725940
 21
7.643239
 31
0.000000
  0
LINE
  8
PARTS
 62
     7
  6
CONTINUOUS
 10
14.288440
 20
7.643239
 30
0.000000
 11
14.538440
 21
7.643239
 31
0.000000
  0
TEXT
  8
PARTS
 62
     7
 10
0.825371
 20
0.591130
 30
0.000000
 40
0.125000
  1
NOTE A: DRILL13/32
  0
TEXT
  8
PARTS
 62
     7
 10
0.825371
 20
0.216130
 30
0.000000
 40
0.125000
  1
THEN TURN TO 8.5 +.000 
  0
TEXT
  8
PARTS
 62
     7
 10
0.839051
 20
0.030800
 30
0.000000
 40
0.125000
  1
-.002 DIA.
  0
TEXT
  8
PARTS
 62
     7
 10
0.825371
 20
0.403630
 30
0.000000
 40
0.125000
  1
COUNTERBORE 19/32 X 11/16" DEEP
  0
TEXT
  8
PARTS
 62
     7
 10
0.704917
 20
9.784062
 30
0.000000
 40
0.125000
  1
STANDARD SPACER RING FOR ADVANCED DC 9" MOTOR
  0
TEXT
  8
PARTS
 62
     7
 10
0.704917
 20
9.034062
 30
0.000000
 40
0.125000
  1
831-429-1989 FAX 831-429-1907
  0
TEXT
  8
PARTS
 62
     7
 10
0.704917
 20
9.596561
 30
0.000000
 40
0.125000
  1
DRAWN BY MICHAEL P. BROWN
  0
LINE
  8
PARTS
 62
     7
  6
CONTINUOUS
 10
14.244106
 20
9.820383
 30
0.000000
 11
14.161830
 21
9.726279
 31
0.000000
  0
LINE
  8
PARTS
 62
     7
  6
CONTINUOUS
 10
14.244106
 20
9.820383
 30
0.000000
 11
14.121471
 21
9.844584
 31
0.000000
  0
LINE
  8
PARTS
 62
     7
  6
CONTINUOUS
 10
14.244106
 20
9.820383
 30
0.000000
 11
12.081153
 21
9.082513
 31
0.000000
  0
LINE
  8
PARTS
 62
     7
  6
CONTINUOUS
 10
12.081153
 20
9.082513
 30
0.000000
 11
11.581153
 21
9.082513
 31
0.000000
  0
TEXT
  8
PARTS
 62
     7
 10
8.594834
 20
9.020013
 30
0.000000
 40
0.125000
  1
NOTE: THICKNESS OF PLATE VARIES
  0
LINE
  8
PARTS
 62
     7
  6
CONTINUOUS
 10
5.863526
 20
4.922642
 30
0.000000
 11
9.091469
 21
8.150584
 31
0.000000
  0
TEXT
  8
PARTS
 62
     7
 10
8.605815
 20
8.832513
 30
0.000000
 40
0.125000
  1
FROM ADAPTOR TO ADAPTOR TO
  0
TEXT
  8
PARTS
 62
     7
 10
8.605815
 20
8.645013
 30
0.000000
 40
0.125000
  1
SUIT DIFFERENT TRANSMISSIONS
  0
ENDSEC
  0
EOF
