  0
SECTION
  2
HEADER
  9
$ACADVER
  1
AC1015
  9
$ACADMAINTVER
 70
     6
  9
$DWGCODEPAGE
  3
ANSI_1252
  9
$INSBASE
 10
0.0
 20
0.0
 30
0.0
  9
$EXTMIN
 10
1.000000000000000E+20
 20
1.000000000000000E+20
 30
1.000000000000000E+20
  9
$EXTMAX
 10
-1.000000000000000E+20
 20
-1.000000000000000E+20
 30
-1.000000000000000E+20
  9
$LIMMIN
 10
0.0
 20
0.0
  9
$LIMMAX
 10
12.0
 20
9.0
  9
$ORTHOMODE
 70
     0
  9
$REGENMODE
 70
     1
  9
$FILLMODE
 70
     1
  9
$QTEXTMODE
 70
     0
  9
$MIRRTEXT
 70
     1
  9
$LTSCALE
 40
1.0
  9
$ATTMODE
 70
     1
  9
$TEXTSIZE
 40
0.2
  9
$TRACEWID
 40
0.05
  9
$TEXTSTYLE
  7
Standard
  9
$CLAYER
  8
0
  9
$CELTYPE
  6
ByLayer
  9
$CECOLOR
 62
   256
  9
$CELTSCALE
 40
1.0
  9
$DISPSILH
 70
     0
  9
$DIMSCALE
 40
1.0
  9
$DIMASZ
 40
0.18
  9
$DIMEXO
 40
0.0625
  9
$DIMDLI
 40
0.38
  9
$DIMRND
 40
0.0
  9
$DIMDLE
 40
0.0
  9
$DIMEXE
 40
0.18
  9
$DIMTP
 40
0.0
  9
$DIMTM
 40
0.0
  9
$DIMTXT
 40
0.18
  9
$DIMCEN
 40
0.09
  9
$DIMTSZ
 40
0.0
  9
$DIMTOL
 70
     0
  9
$DIMLIM
 70
     0
  9
$DIMTIH
 70
     1
  9
$DIMTOH
 70
     1
  9
$DIMSE1
 70
     0
  9
$DIMSE2
 70
     0
  9
$DIMTAD
 70
     0
  9
$DIMZIN
 70
     0
  9
$DIMBLK
  1

  9
$DIMASO
 70
     1
  9
$DIMSHO
 70
     1
  9
$DIMPOST
  1

  9
$DIMAPOST
  1

  9
$DIMALT
 70
     0
  9
$DIMALTD
 70
     2
  9
$DIMALTF
 40
25.4
  9
$DIMLFAC
 40
1.0
  9
$DIMTOFL
 70
     0
  9
$DIMTVP
 40
0.0
  9
$DIMTIX
 70
     0
  9
$DIMSOXD
 70
     0
  9
$DIMSAH
 70
     0
  9
$DIMBLK1
  1

  9
$DIMBLK2
  1

  9
$DIMSTYLE
  2
Standard
  9
$DIMCLRD
 70
     0
  9
$DIMCLRE
 70
     0
  9
$DIMCLRT
 70
     0
  9
$DIMTFAC
 40
1.0
  9
$DIMGAP
 40
0.09
  9
$DIMJUST
 70
     0
  9
$DIMSD1
 70
     0
  9
$DIMSD2
 70
     0
  9
$DIMTOLJ
 70
     1
  9
$DIMTZIN
 70
     0
  9
$DIMALTZ
 70
     0
  9
$DIMALTTZ
 70
     0
  9
$DIMUPT
 70
     0
  9
$DIMDEC
 70
     4
  9
$DIMTDEC
 70
     4
  9
$DIMALTU
 70
     2
  9
$DIMALTTD
 70
     2
  9
$DIMTXSTY
  7
Standard
  9
$DIMAUNIT
 70
     0
  9
$DIMADEC
 70
     0
  9
$DIMALTRND
 40
0.0
  9
$DIMAZIN
 70
     0
  9
$DIMDSEP
 70
    46
  9
$DIMATFIT
 70
     3
  9
$DIMFRAC
 70
     0
  9
$DIMLDRBLK
  1

  9
$DIMLUNIT
 70
     2
  9
$DIMLWD
 70
    -2
  9
$DIMLWE
 70
    -2
  9
$DIMTMOVE
 70
     0
  9
$LUNITS
 70
     2
  9
$LUPREC
 70
     4
  9
$SKETCHINC
 40
0.1
  9
$FILLETRAD
 40
0.5
  9
$AUNITS
 70
     0
  9
$AUPREC
 70
     0
  9
$MENU
  1
.
  9
$ELEVATION
 40
0.0
  9
$PELEVATION
 40
0.0
  9
$THICKNESS
 40
0.0
  9
$LIMCHECK
 70
     0
  9
$CHAMFERA
 40
0.5
  9
$CHAMFERB
 40
0.5
  9
$CHAMFERC
 40
1.0
  9
$CHAMFERD
 40
0.0
  9
$SKPOLY
 70
     0
  9
$TDCREATE
 40
2454693.609459815
  9
$TDUCREATE
 40
2454693.901126482
  9
$TDUPDATE
 40
2454693.609459826
  9
$TDUUPDATE
 40
2454693.901126493
  9
$TDINDWG
 40
0.0000000116
  9
$TDUSRTIMER
 40
0.0000000116
  9
$USRTIMER
 70
     1
  9
$ANGBASE
 50
0.0
  9
$ANGDIR
 70
     0
  9
$PDMODE
 70
     2
  9
$PDSIZE
 40
-2.0
  9
$PLINEWID
 40
0.0
  9
$SPLFRAME
 70
     0
  9
$SPLINETYPE
 70
     6
  9
$SPLINESEGS
 70
     8
  9
$HANDSEED
  5
12D
  9
$SURFTAB1
 70
     6
  9
$SURFTAB2
 70
     6
  9
$SURFTYPE
 70
     6
  9
$SURFU
 70
     6
  9
$SURFV
 70
     6
  9
$UCSBASE
  2

  9
$UCSNAME
  2

  9
$UCSORG
 10
0.0
 20
0.0
 30
0.0
  9
$UCSXDIR
 10
1.0
 20
0.0
 30
0.0
  9
$UCSYDIR
 10
0.0
 20
1.0
 30
0.0
  9
$UCSORTHOREF
  2

  9
$UCSORTHOVIEW
 70
     0
  9
$UCSORGTOP
 10
0.0
 20
0.0
 30
0.0
  9
$UCSORGBOTTOM
 10
0.0
 20
0.0
 30
0.0
  9
$UCSORGLEFT
 10
0.0
 20
0.0
 30
0.0
  9
$UCSORGRIGHT
 10
0.0
 20
0.0
 30
0.0
  9
$UCSORGFRONT
 10
0.0
 20
0.0
 30
0.0
  9
$UCSORGBACK
 10
0.0
 20
0.0
 30
0.0
  9
$PUCSBASE
  2

  9
$PUCSNAME
  2

  9
$PUCSORG
 10
0.0
 20
0.0
 30
0.0
  9
$PUCSXDIR
 10
1.0
 20
0.0
 30
0.0
  9
$PUCSYDIR
 10
0.0
 20
1.0
 30
0.0
  9
$PUCSORTHOREF
  2

  9
$PUCSORTHOVIEW
 70
     0
  9
$PUCSORGTOP
 10
0.0
 20
0.0
 30
0.0
  9
$PUCSORGBOTTOM
 10
0.0
 20
0.0
 30
0.0
  9
$PUCSORGLEFT
 10
0.0
 20
0.0
 30
0.0
  9
$PUCSORGRIGHT
 10
0.0
 20
0.0
 30
0.0
  9
$PUCSORGFRONT
 10
0.0
 20
0.0
 30
0.0
  9
$PUCSORGBACK
 10
0.0
 20
0.0
 30
0.0
  9
$USERI1
 70
     0
  9
$USERI2
 70
     0
  9
$USERI3
 70
     0
  9
$USERI4
 70
     0
  9
$USERI5
 70
     0
  9
$USERR1
 40
0.0
  9
$USERR2
 40
0.0
  9
$USERR3
 40
0.0
  9
$USERR4
 40
0.0
  9
$USERR5
 40
0.0
  9
$WORLDVIEW
 70
     1
  9
$SHADEDGE
 70
     3
  9
$SHADEDIF
 70
    70
  9
$TILEMODE
 70
     1
  9
$MAXACTVP
 70
    64
  9
$PINSBASE
 10
0.0
 20
0.0
 30
0.0
  9
$PLIMCHECK
 70
     0
  9
$PEXTMIN
 10
1.000000000000000E+20
 20
1.000000000000000E+20
 30
1.000000000000000E+20
  9
$PEXTMAX
 10
-1.000000000000000E+20
 20
-1.000000000000000E+20
 30
-1.000000000000000E+20
  9
$PLIMMIN
 10
0.0
 20
0.0
  9
$PLIMMAX
 10
12.0
 20
9.0
  9
$UNITMODE
 70
     0
  9
$VISRETAIN
 70
     1
  9
$PLINEGEN
 70
     0
  9
$PSLTSCALE
 70
     1
  9
$TREEDEPTH
 70
  3020
  9
$CMLSTYLE
  2
Standard
  9
$CMLJUST
 70
     0
  9
$CMLSCALE
 40
1.0
  9
$PROXYGRAPHICS
 70
     1
  9
$MEASUREMENT
 70
     0
  9
$CELWEIGHT
370
    -1
  9
$ENDCAPS
280
     0
  9
$JOINSTYLE
280
     0
  9
$LWDISPLAY
290
     1
  9
$INSUNITS
 70
     1
  9
$HYPERLINKBASE
  1

  9
$STYLESHEET
  1

  9
$XEDIT
290
     1
  9
$CEPSNTYPE
380
     0
  9
$PSTYLEMODE
290
     1
  9
$FINGERPRINTGUID
  2
{FAEB1C30-E019-11D5-929B-00C0DF256EC4}
  9
$VERSIONGUID
  2
{FAEB1C32-E019-11D5-929B-00C0DF256EC4}
  9
$EXTNAMES
290
     1
  9
$PSVPSCALE
 40
0.0
  9
$OLESTARTUP
290
     0
  0
ENDSEC
  0
SECTION
  2
CLASSES
  0
CLASS
  1
ACDBDICTIONARYWDFLT
  2
AcDbDictionaryWithDefault
  3
ObjectDBX Classes
 90
        0
280
     0
281
     0
  0
CLASS
  1
ACDBPLACEHOLDER
  2
AcDbPlaceHolder
  3
ObjectDBX Classes
 90
        0
280
     0
281
     0
  0
CLASS
  1
LAYOUT
  2
AcDbLayout
  3
ObjectDBX Classes
 90
        0
280
     0
281
     0
  0
ENDSEC
  0
SECTION
  2
TABLES
  0
TABLE
  2
VPORT
  5
8
330
0
100
AcDbSymbolTable
 70
     1
  0
VPORT
  5
29
330
8
100
AcDbSymbolTableRecord
100
AcDbViewportTableRecord
  2
*Active
 70
     0
 10
0.0
 20
0.0
 11
1.0
 21
1.0
 12
10.42990654205607
 22
4.5
 13
0.0
 23
0.0
 14
0.5
 24
0.5
 15
0.5
 25
0.5
 16
0.0
 26
0.0
 36
1.0
 17
0.0
 27
0.0
 37
0.0
 40
9.0
 41
1.972972972850329
 42
50.0
 43
0.0
 44
0.0
 50
0.0
 51
0.0
 71
     0
 72
   100
 73
     1
 74
     3
 75
     0
 76
     0
 77
     0
 78
     0
281
     0
 65
     1
110
0.0
120
0.0
130
0.0
111
1.0
121
0.0
131
0.0
112
0.0
122
1.0
132
0.0
 79
     0
146
0.0
  0
ENDTAB
  0
TABLE
  2
LTYPE
  5
5
330
0
100
AcDbSymbolTable
 70
     3
  0
LTYPE
  5
14
330
5
100
AcDbSymbolTableRecord
100
AcDbLinetypeTableRecord
  2
ByBlock
 70
     0
  3

 72
    65
 73
     0
 40
0.0
  0
LTYPE
  5
15
330
5
100
AcDbSymbolTableRecord
100
AcDbLinetypeTableRecord
  2
ByLayer
 70
     0
  3

 72
    65
 73
     0
 40
0.0
  0
LTYPE
  5
16
330
5
100
AcDbSymbolTableRecord
100
AcDbLinetypeTableRecord
  2
Continuous
 70
     0
  3
Solid line
 72
    65
 73
     0
 40
0.0
  0
LTYPE
  5
B1
330
5
100
AcDbSymbolTableRecord
100
AcDbLinetypeTableRecord
  2
CENTER2
 70
     0
  3
___ _ ___ _ ___ _ ___ _ ___ _ ___ _ ___ _
 72
    65
 73
     4
 40
0.5
 49
0.3
 74
     0
 49
-0.075
 74
     0
 49
0.05
 74
     0
 49
-0.075
 74
     0
  0
LTYPE
  5
BC
330
5
100
AcDbSymbolTableRecord
100
AcDbLinetypeTableRecord
  2
GC   6
 70
     0
  3
_____  _  __________  _  _____
 72
    65
 73
     4
 40
0.5
 49
0.3
 74
     0
 49
-0.075
 74
     0
 49
0.05
 74
     0
 49
-0.075
 74
     0
  0
ENDTAB
  0
TABLE
  2
LAYER
  5
2
330
0
100
AcDbSymbolTable
 70
     4
  0
LAYER
  5
10
330
2
100
AcDbSymbolTableRecord
100
AcDbLayerTableRecord
  2
0
 70
     0
 62
     7
  6
Continuous
370
    -3
390
F
  0
LAYER
  5
2E
330
2
100
AcDbSymbolTableRecord
100
AcDbLayerTableRecord
  2
2
 70
     0
 62
     7
  6
Continuous
370
    -3
390
F
  0
LAYER
  5
3C
330
2
100
AcDbSymbolTableRecord
100
AcDbLayerTableRecord
  2
DIMEN
 70
     0
 62
     7
  6
Continuous
370
    -3
390
F
  0
LAYER
  5
89
330
2
100
AcDbSymbolTableRecord
100
AcDbLayerTableRecord
  2
PROFILE PLATE
 70
     0
 62
     7
  6
Continuous
370
    -3
390
F
  0
ENDTAB
  0
TABLE
  2
STYLE
  5
3
330
0
100
AcDbSymbolTable
 70
     2
  0
STYLE
  5
11
330
3
100
AcDbSymbolTableRecord
100
AcDbTextStyleTableRecord
  2
Standard
 70
     0
 40
0.0
 41
1.0
 50
0.0
 71
     0
 42
0.2
  3
txt
  4

  0
STYLE
  5
32
330
3
100
AcDbSymbolTableRecord
100
AcDbTextStyleTableRecord
  2
ENGINEER
 70
     0
 40
0.2
 41
1.0
 50
0.0
 71
     0
 42
0.2
  3
ENGINEER.SHX
  4

1001
ACAD
1000
ENGINEER
1071
       34
  0
ENDTAB
  0
TABLE
  2
VIEW
  5
6
330
0
100
AcDbSymbolTable
 70
     0
  0
ENDTAB
  0
TABLE
  2
UCS
  5
7
330
0
100
AcDbSymbolTable
 70
     0
  0
ENDTAB
  0
TABLE
  2
APPID
  5
9
330
0
100
AcDbSymbolTable
 70
     1
  0
APPID
  5
12
330
9
100
AcDbSymbolTableRecord
100
AcDbRegAppTableRecord
  2
ACAD
 70
     0
  0
ENDTAB
  0
TABLE
  2
DIMSTYLE
  5
A
330
0
100
AcDbSymbolTable
 70
     1
100
AcDbDimStyleTable
  0
DIMSTYLE
105
27
330
A
100
AcDbSymbolTableRecord
100
AcDbDimStyleTableRecord
  2
Standard
 70
     0
340
11
  0
ENDTAB
  0
TABLE
  2
BLOCK_RECORD
  5
1
330
0
100
AcDbSymbolTable
 70
     6
  0
BLOCK_RECORD
  5
1F
330
1
100
AcDbSymbolTableRecord
100
AcDbBlockTableRecord
  2
*Model_Space
340
22
  0
BLOCK_RECORD
  5
1B
330
1
100
AcDbSymbolTableRecord
100
AcDbBlockTableRecord
  2
*Paper_Space
340
1E
  0
BLOCK_RECORD
  5
23
330
1
100
AcDbSymbolTableRecord
100
AcDbBlockTableRecord
  2
*Paper_Space0
340
26
  0
BLOCK_RECORD
  5
2A
330
1
100
AcDbSymbolTableRecord
100
AcDbBlockTableRecord
  2
LABEL_COPYRIGHT_MR
340
0
  0
BLOCK_RECORD
  5
38
330
1
100
AcDbSymbolTableRecord
100
AcDbBlockTableRecord
  2
DRCBACRL
340
0
  0
BLOCK_RECORD
  5
43
330
1
100
AcDbSymbolTableRecord
100
AcDbBlockTableRecord
  2
DIACRLDR
340
0
  0
BLOCK_RECORD
  5
4C
330
1
100
AcDbSymbolTableRecord
100
AcDbBlockTableRecord
  2
37516X1BOLT_AND_WASHER
340
0
  0
BLOCK_RECORD
  5
68
330
1
100
AcDbSymbolTableRecord
100
AcDbBlockTableRecord
  2
375X1_HEX_WITH_FLTWASHER
340
0
  0
ENDTAB
  0
ENDSEC
  0
SECTION
  2
BLOCKS
  0
BLOCK
  5
20
330
1F
100
AcDbEntity
  8
0
100
AcDbBlockBegin
  2
*Model_Space
 70
     0
 71
     0
 10
0.0
 20
0.0
 30
0.0
  3
*Model_Space
  1

  0
ENDBLK
  5
21
330
1F
100
AcDbEntity
  8
0
100
AcDbBlockEnd
  0
BLOCK
  5
1C
330
1B
100
AcDbEntity
 67
     1
  8
0
100
AcDbBlockBegin
  2
*Paper_Space
 70
     0
 71
     0
 10
0.0
 20
0.0
 30
0.0
  3
*Paper_Space
  1

  0
ENDBLK
  5
1D
330
1B
100
AcDbEntity
 67
     1
  8
0
100
AcDbBlockEnd
  0
BLOCK
  5
24
330
23
100
AcDbEntity
  8
0
100
AcDbBlockBegin
  2
*Paper_Space0
 70
     0
 71
     0
 10
0.0
 20
0.0
 30
0.0
  3
*Paper_Space0
  1

  0
ENDBLK
  5
25
330
23
100
AcDbEntity
  8
0
100
AcDbBlockEnd
  0
BLOCK
  5
2B
330
2A
100
AcDbEntity
  8
0
100
AcDbBlockBegin
  2
LABEL_COPYRIGHT_MR
 70
     0
 71
     0
 10
0.0
 20
0.0
 30
0.0
  3
LABEL_COPYRIGHT_MR
  1

  0
LINE
  5
2D
330
2A
100
AcDbEntity
  8
2
  6
Continuous
 62
    93
370
    18
100
AcDbLine
 10
-0.1396072759369158
 20
0.247919433991711
 30
0.0
 11
3.426844750430272
 21
0.247919433991711
 31
0.0
  0
LINE
  5
2F
330
2A
100
AcDbEntity
  8
2
  6
Continuous
 62
    93
370
    18
100
AcDbLine
 10
3.426844750430272
 20
-0.8383336830800685
 30
0.0
 11
-0.1396072759369158
 21
-0.8383336830800685
 31
0.0
  0
LINE
  5
30
330
2A
100
AcDbEntity
  8
2
  6
Continuous
 62
    93
370
    18
100
AcDbLine
 10
-0.1396072759369158
 20
-0.8383336830800685
 30
0.0
 11
-0.1396072759369158
 21
0.247919433991711
 31
0.0
  0
LINE
  5
31
330
2A
100
AcDbEntity
  8
2
  6
Continuous
 62
    93
370
    18
100
AcDbLine
 10
3.426844750430272
 20
0.247919433991711
 30
0.0
 11
3.426844750430272
 21
-0.8383336830800685
 31
0.0
  0
TEXT
  5
33
330
2A
100
AcDbEntity
  8
2
  6
Continuous
 62
    93
370
    18
100
AcDbText
 10
-0.0068605794647478
 20
0.0104240116284298
 30
0.0
 40
0.125
  1
COPYRIGHT ELECTRO AUTOMOTIVE
  7
ENGINEER
100
AcDbText
  0
TEXT
  5
34
330
2A
100
AcDbEntity
  8
2
  6
Continuous
 62
    93
370
    18
100
AcDbText
 10
-0.0068605794647478
 20
-0.1770759883715702
 30
0.0
 40
0.125
  1
P.O. BOX 1113 FELTON CA. 95018-1113
  7
ENGINEER
100
AcDbText
  0
TEXT
  5
35
330
2A
100
AcDbEntity
  8
2
  6
Continuous
 62
    93
370
    18
100
AcDbText
 10
-0.0068605794647478
 20
-0.3645759883715702
 30
0.0
 40
0.125
  1
PHONE 831-429-1989 FAX 831-429-1907
  7
ENGINEER
100
AcDbText
  0
TEXT
  5
36
330
2A
100
AcDbEntity
  8
2
  6
Continuous
 62
    93
370
    18
100
AcDbText
 10
-0.0068605794647478
 20
-0.5520759883715702
 30
0.0
 40
0.125
  1
DRAWN BY MARTY RATTAY   08/13/08
  7
ENGINEER
100
AcDbText
  0
TEXT
  5
37
330
2A
100
AcDbEntity
  8
2
  6
Continuous
 62
    93
370
    18
100
AcDbText
 10
-0.0068605794647478
 20
-0.7395759883715702
 30
0.0
 40
0.125
  1
SCALE = 1 : 1
  7
ENGINEER
100
AcDbText
  0
ENDBLK
  5
2C
330
2A
100
AcDbEntity
  8
0
100
AcDbBlockEnd
  0
BLOCK
  5
39
330
38
100
AcDbEntity
  8
0
100
AcDbBlockBegin
  2
DRCBACRL
 70
     0
 71
     0
 10
0.0
 20
0.0
 30
0.0
  3
DRCBACRL
  1

  0
LINE
  5
3B
330
38
100
AcDbEntity
  8
DIMEN
  6
Continuous
 62
    93
370
    18
100
AcDbLine
 10
0.0
 20
0.0
 30
0.0
 11
0.1249981781554248
 21
0.0006748761550772
 31
0.0
  0
LINE
  5
3D
330
38
100
AcDbEntity
  8
DIMEN
  6
Continuous
 62
    93
370
    18
100
AcDbLine
 10
0.0
 20
0.0
 30
0.0
 11
0.063083545827699
 21
-0.1079141614701453
 31
0.0
  0
LINE
  5
3E
330
38
100
AcDbEntity
  8
DIMEN
  6
Continuous
 62
    93
370
    18
100
AcDbLine
 10
0.0
 20
0.0
 30
0.0
 11
0.8986358642578125
 21
-0.5123786926269531
 31
0.0
  0
LINE
  5
3F
330
38
100
AcDbEntity
  8
DIMEN
  6
Continuous
 62
    93
370
    18
100
AcDbLine
 10
0.8986358642578125
 20
-0.5123786926269531
 30
0.0
 11
1.023635864257813
 21
-0.5123786926269531
 31
0.0
  0
TEXT
  5
40
330
38
100
AcDbEntity
  8
DIMEN
  6
Continuous
 62
    93
370
    18
100
AcDbText
 10
1.086635865271092
 20
-0.5748786926269531
 30
0.0
 40
0.125
  1
DRILL TAP & COUNTERBORE
  7
ENGINEER
100
AcDbText
  0
TEXT
  5
41
330
38
100
AcDbEntity
  8
DIMEN
  6
Continuous
 62
    93
370
    18
100
AcDbText
 10
1.086636543273926
 20
-0.9498786926269531
 30
0.0
 40
0.125
  1
PRINT
  7
ENGINEER
100
AcDbText
  0
TEXT
  5
42
330
38
100
AcDbEntity
  8
DIMEN
  6
Continuous
 62
    93
370
    18
100
AcDbText
 10
1.086636543273926
 20
-0.7623786926269531
 30
0.0
 40
0.125
  1
AS PER STANDARD AC RING
  7
ENGINEER
100
AcDbText
  0
ENDBLK
  5
3A
330
38
100
AcDbEntity
  8
0
100
AcDbBlockEnd
  0
BLOCK
  5
44
330
43
100
AcDbEntity
  8
0
100
AcDbBlockBegin
  2
DIACRLDR
 70
     0
 71
     0
 10
0.0
 20
0.0
 30
0.0
  3
DIACRLDR
  1

  0
LINE
  5
46
330
43
100
AcDbEntity
  8
DIMEN
  6
Continuous
 62
    93
370
    18
100
AcDbLine
 10
0.0
 20
0.0
 30
0.0
 11
0.0255882382446737
 21
0.1223529405594071
 31
0.0
  0
LINE
  5
47
330
43
100
AcDbEntity
  8
DIMEN
  6
Continuous
 62
    93
370
    18
100
AcDbLine
 10
0.0
 20
0.0
 30
0.0
 11
0.118754875011485
 21
0.0390164024611005
 31
0.0
  0
LINE
  5
48
330
43
100
AcDbEntity
  8
DIMEN
  6
Continuous
 62
    93
370
    18
100
AcDbLine
 10
0.0
 20
0.0
 30
0.0
 11
0.7548923492431641
 21
0.8439369201660156
 31
0.0
  0
LINE
  5
49
330
43
100
AcDbEntity
  8
DIMEN
  6
Continuous
 62
    93
370
    18
100
AcDbLine
 10
0.7548923492431641
 20
0.8439369201660156
 30
0.0
 11
0.8798923492431641
 21
0.8439369201660156
 31
0.0
  0
TEXT
  5
4A
330
43
100
AcDbEntity
  8
DIMEN
  6
Continuous
 62
    93
370
    18
100
AcDbText
 10
0.942892350256443
 20
0.7814369201660156
 30
0.0
 40
0.125
  1
ALL DIAMETERS AS PER
  7
ENGINEER
100
AcDbText
  0
TEXT
  5
4B
330
43
100
AcDbEntity
  8
DIMEN
  6
Continuous
 62
    93
370
    18
100
AcDbText
 10
0.9428920745849609
 20
0.5939369201660156
 30
0.0
 40
0.125
  1
STANDARD AC RING PRINT
  7
ENGINEER
100
AcDbText
  0
ENDBLK
  5
45
330
43
100
AcDbEntity
  8
0
100
AcDbBlockEnd
  0
BLOCK
  5
4D
330
4C
100
AcDbEntity
  8
0
100
AcDbBlockBegin
  2
37516X1BOLT_AND_WASHER
 70
     0
 71
     0
 10
0.0
 20
0.0
 30
0.0
  3
37516X1BOLT_AND_WASHER
  1

  0
LINE
  5
4F
330
4C
100
AcDbEntity
  8
DIMEN
  6
Continuous
 62
    13
370
    18
100
AcDbLine
 10
-0.3200000000000003
 20
0.3199999999999998
 30
0.0
 11
-0.3200000000000003
 21
-0.3200000000000003
 31
0.0
  0
LINE
  5
50
330
4C
100
AcDbEntity
  8
DIMEN
  6
Continuous
 62
    13
370
    18
100
AcDbLine
 10
-0.0800000000000001
 20
0.4100000000000001
 30
0.0
 11
-0.0800000000000001
 21
-0.4100000000000001
 31
0.0
  0
LINE
  5
51
330
4C
100
AcDbEntity
  8
DIMEN
  6
Continuous
 62
    13
370
    18
100
AcDbLine
 10
-0.0800000000000001
 20
0.4100000000000001
 30
0.0
 11
0.0
 21
0.4099999999999997
 31
0.0
  0
LINE
  5
52
330
4C
100
AcDbEntity
  8
DIMEN
  6
Continuous
 62
    13
370
    18
100
AcDbLine
 10
-0.3200000000000003
 20
0.3199999999999998
 30
0.0
 11
-0.0800000000000001
 21
0.3200000000000003
 31
0.0
  0
LINE
  5
53
330
4C
100
AcDbEntity
  8
DIMEN
  6
Continuous
 62
    13
370
    18
100
AcDbLine
 10
-0.3200000000000003
 20
-0.3200000000000003
 30
0.0
 11
-0.0800000000000001
 21
-0.3200000000000007
 31
0.0
  0
LINE
  5
54
330
4C
100
AcDbEntity
  8
DIMEN
  6
Continuous
 62
    13
370
    18
100
AcDbLine
 10
-0.0800000000000001
 20
-0.4100000000000001
 30
0.0
 11
0.0
 21
-0.4100000000000001
 31
0.0
  0
LINE
  5
55
330
4C
100
AcDbEntity
  8
DIMEN
  6
Continuous
 62
    13
370
    18
100
AcDbLine
 10
0.0
 20
-0.4100000000000001
 30
0.0
 11
0.0
 21
0.4099999999999997
 31
0.0
  0
LINE
  5
56
330
4C
100
AcDbEntity
  8
DIMEN
  6
Continuous
 62
    13
370
    18
100
AcDbLine
 10
0.0
 20
0.1779999999999999
 30
0.0
 11
0.9000000000000004
 21
0.1780000000000004
 31
0.0
  0
LINE
  5
57
330
4C
100
AcDbEntity
  8
DIMEN
  6
Continuous
 62
    13
370
    18
100
AcDbLine
 10
0.9000000000000004
 20
0.1780000000000004
 30
0.0
 11
0.9400000000000004
 21
0.1380000000000003
 31
0.0
  0
LINE
  5
58
330
4C
100
AcDbEntity
  8
DIMEN
  6
Continuous
 62
    13
370
    18
100
AcDbLine
 10
0.0
 20
-0.1779999999999999
 30
0.0
 11
0.9000000000000012
 21
-0.1779999999999999
 31
0.0
  0
LINE
  5
59
330
4C
100
AcDbEntity
  8
DIMEN
  6
Continuous
 62
    13
370
    18
100
AcDbLine
 10
0.9400000000000004
 20
0.1380000000000003
 30
0.0
 11
0.9400000000000013
 21
-0.1379999999999999
 31
0.0
  0
LINE
  5
5A
330
4C
100
AcDbEntity
  8
DIMEN
  6
Continuous
 62
    13
370
    18
100
AcDbLine
 10
0.9000000000000012
 20
-0.1779999999999999
 30
0.0
 11
0.9400000000000013
 21
-0.1379999999999999
 31
0.0
  0
LINE
  5
5B
330
4C
100
AcDbEntity
  8
DIMEN
  6
Continuous
 62
    13
370
    18
100
AcDbLine
 10
0.8779999999999992
 20
0.1506653205290953
 30
0.0
 11
0.8779999999999992
 21
-0.1561317027883327
 31
0.0
  0
LINE
  5
5C
330
4C
100
AcDbEntity
  8
DIMEN
  6
Continuous
 62
    13
370
    18
100
AcDbLine
 10
0.815999999999999
 20
0.1506653205290953
 30
0.0
 11
0.815999999999999
 21
-0.1561317027883327
 31
0.0
  0
LINE
  5
5D
330
4C
100
AcDbEntity
  8
DIMEN
  6
Continuous
 62
    13
370
    18
100
AcDbLine
 10
0.7539999999999987
 20
0.1506653205290953
 30
0.0
 11
0.7539999999999987
 21
-0.1561317027883327
 31
0.0
  0
LINE
  5
5E
330
4C
100
AcDbEntity
  8
DIMEN
  6
Continuous
 62
    13
370
    18
100
AcDbLine
 10
0.6919999999999984
 20
0.1506653205290953
 30
0.0
 11
0.6919999999999984
 21
-0.1561317027883327
 31
0.0
  0
LINE
  5
5F
330
4C
100
AcDbEntity
  8
DIMEN
  6
Continuous
 62
    13
370
    18
100
AcDbLine
 10
0.6299999999999981
 20
0.1506653205290953
 30
0.0
 11
0.6299999999999981
 21
-0.1561317027883327
 31
0.0
  0
LINE
  5
60
330
4C
100
AcDbEntity
  8
DIMEN
  6
Continuous
 62
    13
370
    18
100
AcDbLine
 10
0.5679999999999978
 20
0.1506653205290953
 30
0.0
 11
0.5679999999999978
 21
-0.1561317027883327
 31
0.0
  0
LINE
  5
61
330
4C
100
AcDbEntity
  8
DIMEN
  6
Continuous
 62
    13
370
    18
100
AcDbLine
 10
0.5059999999999976
 20
0.1506653205290953
 30
0.0
 11
0.5059999999999976
 21
-0.1561317027883327
 31
0.0
  0
LINE
  5
62
330
4C
100
AcDbEntity
  8
DIMEN
  6
Continuous
 62
    13
370
    18
100
AcDbLine
 10
0.4439999999999973
 20
0.1506653205290953
 30
0.0
 11
0.4439999999999973
 21
-0.1561317027883327
 31
0.0
  0
LINE
  5
63
330
4C
100
AcDbEntity
  8
DIMEN
  6
Continuous
 62
    13
370
    18
100
AcDbLine
 10
0.381999999999997
 20
0.1506653205290953
 30
0.0
 11
0.381999999999997
 21
-0.1561317027883327
 31
0.0
  0
LINE
  5
64
330
4C
100
AcDbEntity
  8
DIMEN
  6
Continuous
 62
    13
370
    18
100
AcDbLine
 10
0.3199999999999967
 20
0.1506653205290953
 30
0.0
 11
0.3199999999999967
 21
-0.1561317027883327
 31
0.0
  0
LINE
  5
65
330
4C
100
AcDbEntity
  8
DIMEN
  6
Continuous
 62
    13
370
    18
100
AcDbLine
 10
0.2579999999999965
 20
0.1506653205290953
 30
0.0
 11
0.2579999999999965
 21
-0.1561317027883327
 31
0.0
  0
LINE
  5
66
330
4C
100
AcDbEntity
  8
DIMEN
  6
Continuous
 62
    13
370
    18
100
AcDbLine
 10
0.1959999999999962
 20
0.1506653205290953
 30
0.0
 11
0.1959999999999962
 21
-0.1561317027883327
 31
0.0
  0
POINT
  5
67
330
4C
100
AcDbEntity
  8
DIMEN
  6
Continuous
 62
    13
370
    18
100
AcDbPoint
 10
0.0
 20
0.0
 30
0.0
  0
ENDBLK
  5
4E
330
4C
100
AcDbEntity
  8
0
100
AcDbBlockEnd
  0
BLOCK
  5
69
330
68
100
AcDbEntity
  8
0
100
AcDbBlockBegin
  2
375X1_HEX_WITH_FLTWASHER
 70
     0
 71
     0
 10
0.0
 20
0.0
 30
0.0
  3
375X1_HEX_WITH_FLTWASHER
  1

  0
LINE
  5
6B
330
68
100
AcDbEntity
  8
DIMEN
  6
Continuous
 62
    13
370
    18
100
AcDbLine
 10
-0.3200000000000003
 20
0.3200000000000003
 30
0.0
 11
-0.3200000000000003
 21
-0.3200000000000003
 31
0.0
  0
LINE
  5
6C
330
68
100
AcDbEntity
  8
DIMEN
  6
Continuous
 62
    13
370
    18
100
AcDbLine
 10
-0.0800000000000001
 20
0.4100000000000001
 30
0.0
 11
-0.0800000000000001
 21
-0.4100000000000001
 31
0.0
  0
LINE
  5
6D
330
68
100
AcDbEntity
  8
DIMEN
  6
Continuous
 62
    13
370
    18
100
AcDbLine
 10
-0.0800000000000001
 20
0.4100000000000001
 30
0.0
 11
0.0
 21
0.4100000000000001
 31
0.0
  0
LINE
  5
6E
330
68
100
AcDbEntity
  8
DIMEN
  6
Continuous
 62
    13
370
    18
100
AcDbLine
 10
-0.3200000000000003
 20
0.3200000000000003
 30
0.0
 11
-0.0800000000000001
 21
0.3200000000000003
 31
0.0
  0
LINE
  5
6F
330
68
100
AcDbEntity
  8
DIMEN
  6
Continuous
 62
    13
370
    18
100
AcDbLine
 10
-0.3200000000000003
 20
-0.3200000000000003
 30
0.0
 11
-0.0800000000000001
 21
-0.3200000000000003
 31
0.0
  0
LINE
  5
70
330
68
100
AcDbEntity
  8
DIMEN
  6
Continuous
 62
    13
370
    18
100
AcDbLine
 10
-0.0800000000000001
 20
-0.4100000000000001
 30
0.0
 11
0.0
 21
-0.4100000000000001
 31
0.0
  0
LINE
  5
71
330
68
100
AcDbEntity
  8
DIMEN
  6
Continuous
 62
    13
370
    18
100
AcDbLine
 10
0.0
 20
-0.4100000000000001
 30
0.0
 11
0.0
 21
0.4100000000000001
 31
0.0
  0
LINE
  5
72
330
68
100
AcDbEntity
  8
DIMEN
  6
Continuous
 62
    13
370
    18
100
AcDbLine
 10
0.0
 20
0.1779999999999999
 30
0.0
 11
0.9000000000000004
 21
0.1780000000000008
 31
0.0
  0
LINE
  5
73
330
68
100
AcDbEntity
  8
DIMEN
  6
Continuous
 62
    13
370
    18
100
AcDbLine
 10
0.9000000000000004
 20
0.1780000000000008
 30
0.0
 11
0.9400000000000004
 21
0.1379999999999999
 31
0.0
  0
LINE
  5
74
330
68
100
AcDbEntity
  8
DIMEN
  6
Continuous
 62
    13
370
    18
100
AcDbLine
 10
0.0
 20
-0.1779999999999999
 30
0.0
 11
0.9000000000000012
 21
-0.1779999999999999
 31
0.0
  0
LINE
  5
75
330
68
100
AcDbEntity
  8
DIMEN
  6
Continuous
 62
    13
370
    18
100
AcDbLine
 10
0.9400000000000004
 20
0.1379999999999999
 30
0.0
 11
0.9400000000000013
 21
-0.1379999999999999
 31
0.0
  0
LINE
  5
76
330
68
100
AcDbEntity
  8
DIMEN
  6
Continuous
 62
    13
370
    18
100
AcDbLine
 10
0.9000000000000012
 20
-0.1779999999999999
 30
0.0
 11
0.9400000000000013
 21
-0.1379999999999999
 31
0.0
  0
LINE
  5
77
330
68
100
AcDbEntity
  8
DIMEN
  6
Continuous
 62
    13
370
    18
100
AcDbLine
 10
0.8779999999999992
 20
0.1506653205290949
 30
0.0
 11
0.8779999999999992
 21
-0.1561317027883327
 31
0.0
  0
LINE
  5
78
330
68
100
AcDbEntity
  8
DIMEN
  6
Continuous
 62
    13
370
    18
100
AcDbLine
 10
0.815999999999999
 20
0.1506653205290949
 30
0.0
 11
0.815999999999999
 21
-0.1561317027883327
 31
0.0
  0
LINE
  5
79
330
68
100
AcDbEntity
  8
DIMEN
  6
Continuous
 62
    13
370
    18
100
AcDbLine
 10
0.7539999999999987
 20
0.1506653205290949
 30
0.0
 11
0.7539999999999987
 21
-0.1561317027883327
 31
0.0
  0
LINE
  5
7A
330
68
100
AcDbEntity
  8
DIMEN
  6
Continuous
 62
    13
370
    18
100
AcDbLine
 10
0.6919999999999984
 20
0.1506653205290949
 30
0.0
 11
0.6919999999999984
 21
-0.1561317027883327
 31
0.0
  0
LINE
  5
7B
330
68
100
AcDbEntity
  8
DIMEN
  6
Continuous
 62
    13
370
    18
100
AcDbLine
 10
0.6299999999999981
 20
0.1506653205290949
 30
0.0
 11
0.6299999999999981
 21
-0.1561317027883327
 31
0.0
  0
LINE
  5
7C
330
68
100
AcDbEntity
  8
DIMEN
  6
Continuous
 62
    13
370
    18
100
AcDbLine
 10
0.5679999999999978
 20
0.1506653205290949
 30
0.0
 11
0.5679999999999978
 21
-0.1561317027883327
 31
0.0
  0
LINE
  5
7D
330
68
100
AcDbEntity
  8
DIMEN
  6
Continuous
 62
    13
370
    18
100
AcDbLine
 10
0.5059999999999976
 20
0.1506653205290949
 30
0.0
 11
0.5059999999999976
 21
-0.1561317027883327
 31
0.0
  0
LINE
  5
7E
330
68
100
AcDbEntity
  8
DIMEN
  6
Continuous
 62
    13
370
    18
100
AcDbLine
 10
0.4439999999999973
 20
0.1506653205290949
 30
0.0
 11
0.4439999999999973
 21
-0.1561317027883327
 31
0.0
  0
LINE
  5
7F
330
68
100
AcDbEntity
  8
DIMEN
  6
Continuous
 62
    13
370
    18
100
AcDbLine
 10
0.381999999999997
 20
0.1506653205290949
 30
0.0
 11
0.381999999999997
 21
-0.1561317027883327
 31
0.0
  0
LINE
  5
80
330
68
100
AcDbEntity
  8
DIMEN
  6
Continuous
 62
    13
370
    18
100
AcDbLine
 10
0.3199999999999967
 20
0.1506653205290949
 30
0.0
 11
0.3199999999999967
 21
-0.1561317027883327
 31
0.0
  0
LINE
  5
81
330
68
100
AcDbEntity
  8
DIMEN
  6
Continuous
 62
    13
370
    18
100
AcDbLine
 10
0.2579999999999965
 20
0.1506653205290949
 30
0.0
 11
0.2579999999999965
 21
-0.1561317027883327
 31
0.0
  0
LINE
  5
82
330
68
100
AcDbEntity
  8
DIMEN
  6
Continuous
 62
    13
370
    18
100
AcDbLine
 10
0.1959999999999962
 20
0.1506653205290949
 30
0.0
 11
0.1959999999999962
 21
-0.1561317027883327
 31
0.0
  0
POINT
  5
83
330
68
100
AcDbEntity
  8
DIMEN
  6
Continuous
 62
    13
370
    18
100
AcDbPoint
 10
0.0
 20
0.0
 30
0.0
  0
POINT
  5
84
330
68
100
AcDbEntity
  8
DIMEN
  6
Continuous
 62
    13
370
    18
100
AcDbPoint
 10
-0.0800000000000001
 20
0.0
 30
0.0
  0
POINT
  5
85
330
68
100
AcDbEntity
  8
DIMEN
  6
Continuous
 62
    13
370
    18
100
AcDbPoint
 10
0.9400000000000008
 20
0.0
 30
0.0
  0
TEXT
  5
86
330
68
100
AcDbEntity
  8
DIMEN
  6
Continuous
 62
    13
370
    18
100
AcDbText
 10
-0.2135574849161531
 20
-0.2436301781109733
 30
0.0
 40
0.04
  1
3/8" X 1"HEX 
 50
90.0
  7
ENGINEER
100
AcDbText
  0
TEXT
  5
87
330
68
100
AcDbEntity
  8
DIMEN
  6
Continuous
 62
    13
370
    18
100
AcDbText
 10
-0.153557484916153
 20
-0.2123950843013091
 30
0.0
 40
0.04
  1
W/FLT WASH
 50
90.0
  7
ENGINEER
100
AcDbText
  0
ENDBLK
  5
6A
330
68
100
AcDbEntity
  8
0
100
AcDbBlockEnd
  0
ENDSEC
  0
SECTION
  2
ENTITIES
  0
LINE
  5
88
330
1F
100
AcDbEntity
  8
PROFILE PLATE
  6
Continuous
 62
     1
370
    18
100
AcDbLine
 10
0.8984696437833922
 20
-6.091548683836138
 30
0.0
 11
0.8998095185659211
 21
-6.085372732251533
 31
0.0
  0
POINT
  5
8A
330
1F
100
AcDbEntity
  8
PROFILE PLATE
  6
Continuous
 62
    93
370
    18
100
AcDbPoint
 10
5.628520774372942
 20
2.674331033507581
 30
0.0
  0
POINT
  5
8B
330
1F
100
AcDbEntity
  8
PROFILE PLATE
  6
Continuous
 62
    93
370
    18
100
AcDbPoint
 10
-2.995296837587297
 20
6.245766772393817
 30
0.0
  0
LINE
  5
8C
330
1F
100
AcDbEntity
  8
PROFILE PLATE
  6
Continuous
 62
    93
370
    18
100
AcDbLine
 10
1.901243294804528
 20
7.007229872839208
 30
0.0
 11
-3.022495224990587
 21
6.731563852649386
 31
0.0
  0
POINT
  5
8D
330
1F
100
AcDbEntity
  8
PROFILE PLATE
  6
Continuous
 62
    93
370
    18
100
AcDbPoint
 10
2.174453698851387
 20
6.268810481499704
 30
0.0
  0
ARC
  5
8E
330
1F
100
AcDbEntity
  8
PROFILE PLATE
  6
Continuous
 62
    93
370
    18
100
AcDbCircle
 10
2.002236683939928
 20
6.449483189436879
 30
0.0
 40
0.5668165730598841
100
AcDbArc
 50
15.72566992407983
 51
100.2635636597532
  0
ARC
  5
8F
330
1F
100
AcDbEntity
  8
PROFILE PLATE
  6
Continuous
 62
    93
370
    18
100
AcDbCircle
 10
-2.995296837587298
 20
6.245766772393817
 30
0.0
 40
0.4865578644541421
100
AcDbArc
 50
93.20448120557269
 51
165.5373684524733
  0
ARC
  5
90
330
1F
100
AcDbEntity
  8
PROFILE PLATE
  6
Continuous
 62
    93
370
    18
100
AcDbCircle
 10
5.628520774372943
 20
2.674331033507581
 30
0.0
 40
0.5838480531960139
100
AcDbArc
 50
337.0782545188608
 51
74.92022240616234
  0
ARC
  5
91
330
1F
100
AcDbEntity
  8
PROFILE PLATE
  6
Continuous
 62
    93
370
    18
100
AcDbCircle
 10
6.035355846241494
 20
-1.715779184890276
 30
0.0
 40
0.561307776171717
100
AcDbArc
 50
294.4426634285641
 51
35.458784845754
  0
ARC
  5
92
330
1F
100
AcDbEntity
  8
PROFILE PLATE
  6
Continuous
 62
    93
370
    18
100
AcDbCircle
 10
-6.026089617475808
 20
-1.713538751042264
 30
0.0
 40
0.4715007987963047
100
AcDbArc
 50
137.7400609688991
 51
238.7387349422841
  0
ARC
  5
93
330
1F
100
AcDbEntity
  8
PROFILE PLATE
  6
Continuous
 62
    93
370
    18
100
AcDbCircle
 10
-5.751676805767972
 20
-0.8023021219681291
 30
0.0
 40
0.2500000000000107
100
AcDbArc
 50
132.6230677321298
 51
171.3353711291915
  0
ARC
  5
94
330
1F
100
AcDbEntity
  8
PROFILE PLATE
  6
Continuous
 62
    93
370
    18
100
AcDbCircle
 10
-7.338660665670532
 20
0.9221359126380229
 30
0.0
 40
2.093545243170591
100
AcDbArc
 50
312.6230677321284
 51
29.75357431110297
  0
ARC
  5
95
330
1F
100
AcDbEntity
  8
PROFILE PLATE
  6
Continuous
 62
    93
370
    18
100
AcDbCircle
 10
-5.087028049669971
 20
2.209236332549093
 30
0.0
 40
0.4999999999999963
100
AcDbArc
 50
156.1939838967849
 51
209.7535743111031
  0
LINE
  5
96
330
1F
100
AcDbEntity
  8
PROFILE PLATE
  6
Continuous
 62
    93
370
    18
100
AcDbLine
 10
-3.466436039929535
 20
6.367283880154394
 30
0.0
 11
-3.882060792215047
 21
4.755847285964709
 31
0.0
  0
ARC
  5
97
330
1F
100
AcDbEntity
  8
PROFILE PLATE
  6
Continuous
 62
    93
370
    18
100
AcDbCircle
 10
0.1525310873134773
 20
-0.102341804586495
 30
0.0
 40
6.22681180361551
100
AcDbArc
 50
132.2024060129351
 51
156.1939838967851
  0
ARC
  5
98
330
1F
100
AcDbEntity
  8
PROFILE PLATE
  6
Continuous
 62
    93
370
    18
100
AcDbCircle
 10
-4.36621615867984
 20
4.880721547217179
 30
0.0
 40
0.5000000000000083
100
AcDbArc
 50
312.2024060129357
 51
345.5373684524731
  0
LINE
  5
99
330
1F
100
AcDbEntity
  8
PROFILE PLATE
  6
Continuous
 62
    93
370
    18
100
AcDbLine
 10
2.547837547405848
 20
6.603108464963382
 30
0.0
 11
3.231469644504745
 21
5.185942422656851
 31
0.0
  0
ARC
  5
9A
330
1F
100
AcDbEntity
  8
PROFILE PLATE
  6
Continuous
 62
    93
370
    18
100
AcDbCircle
 10
3.681809768034519
 20
5.403183701283145
 30
0.0
 40
0.4999999999999993
100
AcDbArc
 50
205.7523727649603
 51
235.6151838552848
  0
LINE
  5
9B
330
1F
100
AcDbEntity
  8
PROFILE PLATE
  6
Continuous
 62
    93
370
    18
100
AcDbLine
 10
5.780416862349058
 20
3.238073995927803
 30
0.0
 11
5.099557423647861
 21
3.421526193284433
 31
0.0
  0
ARC
  5
9C
330
1F
100
AcDbEntity
  8
PROFILE PLATE
  6
Continuous
 62
    93
370
    18
100
AcDbCircle
 10
0.0688618838243205
 20
0.123605555506861
 30
0.0
 40
5.897447757612212
100
AcDbArc
 50
36.22590805724772
 51
55.6151838552849
  0
ARC
  5
9D
330
1F
100
AcDbEntity
  8
PROFILE PLATE
  6
Continuous
 62
    93
370
    18
100
AcDbCircle
 10
5.22963928925025
 20
3.904308450872065
 30
0.0
 40
0.5000000000000091
100
AcDbArc
 50
216.2259080572483
 51
254.9202224061621
  0
LINE
  5
9E
330
1F
100
AcDbEntity
  8
PROFILE PLATE
  6
Continuous
 62
    93
370
    18
100
AcDbLine
 10
6.166266816116189
 20
2.446937665507883
 30
0.0
 11
5.851518207882573
 21
1.702611567914535
 31
0.0
  0
ARC
  5
9F
330
1F
100
AcDbEntity
  8
PROFILE PLATE
  6
Continuous
 62
    93
370
    18
100
AcDbCircle
 10
6.312037035340861
 20
1.507874798000737
 30
0.0
 40
0.500000000000016
100
AcDbArc
 50
157.0782545188612
 51
194.0177589537889
  0
LINE
  5
A0
330
1F
100
AcDbEntity
  8
PROFILE PLATE
  6
Continuous
 62
    93
370
    18
100
AcDbLine
 10
6.492559570285942
 20
-1.390154900920659
 30
0.0
 11
6.069524144721011
 21
-0.7961777883627326
 31
0.0
  0
ARC
  5
A1
330
1F
100
AcDbEntity
  8
PROFILE PLATE
  6
Continuous
 62
    93
370
    18
100
AcDbCircle
 10
0.2726045343034843
 20
0.0000866971512641
 30
0.0
 40
5.7248027994186
100
AcDbArc
 50
355.3355110474601
 51
14.01775895378978
  0
ARC
  5
A2
330
1F
100
AcDbEntity
  8
PROFILE PLATE
  6
Continuous
 62
    93
370
    18
100
AcDbCircle
 10
6.476790660038809
 20
-0.5061191985900411
 30
0.0
 40
0.5000000000000248
100
AcDbArc
 50
175.3355110474614
 51
215.4587848457533
  0
LINE
  5
A3
330
1F
100
AcDbEntity
  8
PROFILE PLATE
  6
Continuous
 62
    93
370
    18
100
AcDbLine
 10
-6.089448772065744
 20
-1.082146001632635
 30
0.0
 11
-6.375048057276143
 21
-1.396456726074481
 31
0.0
  0
LINE
  5
A4
330
1F
100
AcDbEntity
  8
PROFILE PLATE
  6
Continuous
 62
    93
370
    18
100
AcDbLine
 10
-6.027327372935337
 20
-0.9516848391155226
 30
0.0
 11
-5.998823575317269
 21
-0.7646394839650366
 31
0.0
  0
ARC
  5
A5
330
1F
100
AcDbEntity
  8
PROFILE PLATE
  6
Continuous
 62
    93
370
    18
100
AcDbCircle
 10
-6.274474142484618
 20
-0.9140222011124384
 30
0.0
 40
0.2499999999999926
100
AcDbArc
 50
317.7400609688992
 51
351.3353711291928
  0
CIRCLE
  5
A6
330
1F
100
AcDbEntity
  8
PROFILE PLATE
  6
Continuous
 62
    93
370
    18
100
AcDbCircle
 10
0.0
 20
0.0
 30
0.0
 40
0.3045
  0
POINT
  5
A7
330
1F
100
AcDbEntity
  8
PROFILE PLATE
  6
Continuous
 62
    93
370
    18
100
AcDbPoint
 10
0.0
 20
0.0
 30
0.0
  0
LINE
  5
A8
330
1F
100
AcDbEntity
  8
PROFILE PLATE
  6
Continuous
 62
    93
370
    18
100
AcDbLine
 10
-5.459554330406548
 20
-2.609058813700638
 30
0.0
 11
-6.270770871156072
 21
-2.116582281399728
 31
0.0
  0
LINE
  5
A9
330
1F
100
AcDbEntity
  8
PROFILE PLATE
  6
Continuous
 62
    93
370
    18
100
AcDbLine
 10
6.26761513962398
 20
-2.226780202725179
 30
0.0
 11
5.540878585679393
 21
-2.557095236557319
 31
0.0
  0
ARC
  5
AA
330
1F
100
AcDbEntity
  8
PROFILE PLATE
  6
Continuous
 62
    93
370
    18
100
AcDbCircle
 10
-0.0036961972854408
 20
0.0391261712531654
 30
0.0
 40
6.064591633678112
100
AcDbArc
 50
205.8911836377541
 51
333.4365300403307
  0
ARC
  5
AB
330
1F
100
AcDbEntity
  8
PROFILE PLATE
  6
Continuous
 62
    93
370
    18
100
AcDbCircle
 10
5.644324192190756
 20
-2.78468918747321
 30
0.0
 40
0.2500000000000174
100
AcDbArc
 50
114.4426634285648
 51
153.4365300403296
  0
CIRCLE
  5
AC
330
1F
100
AcDbEntity
  8
PROFILE PLATE
  6
Continuous
 62
    93
370
    18
100
AcDbCircle
 10
-2.995296837587297
 20
6.245766772393817
 30
0.0
 40
0.2660000000000002
  0
CIRCLE
  5
AD
330
1F
100
AcDbEntity
  8
PROFILE PLATE
  6
Continuous
 62
    93
370
    18
100
AcDbCircle
 10
2.174453698851387
 20
6.268810481499704
 30
0.0
 40
0.2660000000000002
  0
CIRCLE
  5
AE
330
1F
100
AcDbEntity
  8
PROFILE PLATE
  6
Continuous
 62
    93
370
    18
100
AcDbCircle
 10
5.628520774372942
 20
2.674331033507581
 30
0.0
 40
0.2499999999999999
  0
CIRCLE
  5
AF
330
1F
100
AcDbEntity
  8
PROFILE PLATE
  6
Continuous
 62
    93
370
    18
100
AcDbCircle
 10
5.628520774372942
 20
2.674331033507581
 30
0.0
 40
0.1249999999999999
  0
LINE
  5
B0
330
1F
100
AcDbEntity
  8
PROFILE PLATE
  6
CENTER2
 62
    93
370
    18
100
AcDbLine
 10
5.628520774372942
 20
2.372246314620409
 30
0.0
 11
5.628520774372942
 21
2.976415752394752
 31
0.0
  0
LINE
  5
B2
330
1F
100
AcDbEntity
  8
PROFILE PLATE
  6
CENTER2
 62
    93
370
    18
100
AcDbLine
 10
5.32643605548577
 20
2.674331033507581
 30
0.0
 11
5.930605493260114
 21
2.674331033507581
 31
0.0
  0
CIRCLE
  5
B3
330
1F
100
AcDbEntity
  8
PROFILE PLATE
  6
Continuous
 62
    93
370
    18
100
AcDbCircle
 10
2.174453698851387
 20
6.268810481499704
 30
0.0
 40
0.1250000000000002
  0
LINE
  5
B4
330
1F
100
AcDbEntity
  8
PROFILE PLATE
  6
CENTER2
 62
    93
370
    18
100
AcDbLine
 10
2.174453698851387
 20
5.966725762612533
 30
0.0
 11
2.174453698851387
 21
6.570895200386875
 31
0.0
  0
LINE
  5
B5
330
1F
100
AcDbEntity
  8
PROFILE PLATE
  6
CENTER2
 62
    93
370
    18
100
AcDbLine
 10
1.872368979964215
 20
6.268810481499704
 30
0.0
 11
2.476538417738559
 21
6.268810481499704
 31
0.0
  0
CIRCLE
  5
B6
330
1F
100
AcDbEntity
  8
PROFILE PLATE
  6
Continuous
 62
    93
370
    18
100
AcDbCircle
 10
-2.995296837587298
 20
6.245766772393817
 30
0.0
 40
0.1250000000000002
  0
LINE
  5
B7
330
1F
100
AcDbEntity
  8
PROFILE PLATE
  6
CENTER2
 62
    93
370
    18
100
AcDbLine
 10
-2.995296837587298
 20
5.943682053506646
 30
0.0
 11
-2.995296837587298
 21
6.547851491280988
 31
0.0
  0
LINE
  5
B8
330
1F
100
AcDbEntity
  8
PROFILE PLATE
  6
CENTER2
 62
    93
370
    18
100
AcDbLine
 10
-3.297381556474469
 20
6.245766772393817
 30
0.0
 11
-2.693212118700126
 21
6.245766772393817
 31
0.0
  0
POINT
  5
B9
330
1F
100
AcDbEntity
  8
PROFILE PLATE
  6
Continuous
 62
    93
370
    18
100
AcDbPoint
 10
0.0
 20
0.0
 30
0.0
  0
CIRCLE
  5
BA
330
1F
100
AcDbEntity
  8
PROFILE PLATE
  6
Continuous
 62
    93
370
    18
100
AcDbCircle
 10
0.0
 20
0.0
 30
0.0
 40
3.0
  0
CIRCLE
  5
BB
330
1F
100
AcDbEntity
  8
PROFILE PLATE
  6
GC   6
 62
    93
370
    18
100
AcDbCircle
 10
0.0
 20
0.0
 30
0.0
 40
3.625
  0
CIRCLE
  5
BD
330
1F
100
AcDbEntity
  8
PROFILE PLATE
  6
Continuous
 62
    93
370
    18
100
AcDbCircle
 10
0.0
 20
0.0
 30
0.0
 40
4.25
  0
LINE
  5
BE
330
1F
100
AcDbEntity
  8
PROFILE PLATE
  6
GC   6
 62
    93
370
    18
100
AcDbLine
 10
0.0
 20
0.0
 30
0.0
 11
0.0
 21
0.0
 31
0.0
  0
CIRCLE
  5
BF
330
1F
100
AcDbEntity
  8
PROFILE PLATE
  6
Continuous
 62
    93
370
    18
100
AcDbCircle
 10
-0.0014095306396484
 20
3.62410831451416
 30
0.0
 40
0.25
  0
CIRCLE
  5
C0
330
1F
100
AcDbEntity
  8
PROFILE PLATE
  6
Continuous
 62
    93
370
    18
100
AcDbCircle
 10
-3.62410831451416
 20
-0.0014095306396484
 30
0.0
 40
0.25
  0
CIRCLE
  5
C1
330
1F
100
AcDbEntity
  8
PROFILE PLATE
  6
Continuous
 62
    93
370
    18
100
AcDbCircle
 10
0.0014095306396484
 20
-3.624108076095581
 30
0.0
 40
0.25
  0
CIRCLE
  5
C2
330
1F
100
AcDbEntity
  8
PROFILE PLATE
  6
Continuous
 62
    93
370
    18
100
AcDbCircle
 10
3.624107837677002
 20
0.0014095306396484
 30
0.0
 40
0.2500000000000036
  0
POINT
  5
C3
330
1F
100
AcDbEntity
  8
PROFILE PLATE
  6
Continuous
 62
    93
370
    18
100
AcDbPoint
 10
0.0
 20
0.0
 30
0.0
  0
LINE
  5
C4
330
1F
100
AcDbEntity
  8
PROFILE PLATE
  6
GC   6
 62
    93
370
    18
100
AcDbLine
 10
0.0000000000000015
 20
4.890277920360681
 30
0.0
 11
-0.0000000000000009
 21
-4.890277920360681
 31
0.0
  0
LINE
  5
C5
330
1F
100
AcDbEntity
  8
PROFILE PLATE
  6
GC   6
 62
    93
370
    18
100
AcDbLine
 10
-4.890277920360681
 20
0.0000000000000006
 30
0.0
 11
4.890277920360681
 21
0.0
 31
0.0
  0
LINE
  5
C6
330
1F
100
AcDbEntity
  8
DIMEN
  6
Continuous
 62
    93
370
    18
100
AcDbLine
 10
5.427657096959059
 20
2.860878879513943
 30
0.0
 11
5.3392633106915
 21
2.907639317378501
 31
0.0
  0
LINE
  5
C7
330
1F
100
AcDbEntity
  8
DIMEN
  6
Continuous
 62
    93
370
    18
100
AcDbLine
 10
5.427657096959059
 20
2.860878879513943
 30
0.0
 11
5.37448605144694
 21
2.945571499730514
 31
0.0
  0
LINE
  5
C8
330
1F
100
AcDbEntity
  8
DIMEN
  6
Continuous
 62
    93
370
    18
100
AcDbLine
 10
5.427657096959059
 20
2.860878879513943
 30
0.0
 11
4.974159619544253
 21
3.28198367997055
 31
0.0
  0
LINE
  5
C9
330
1F
100
AcDbEntity
  8
DIMEN
  6
Continuous
 62
    93
370
    18
100
AcDbLine
 10
4.974159619544253
 20
3.28198367997055
 30
0.0
 11
4.724159619544253
 21
3.28198367997055
 31
0.0
  0
TEXT
  5
CA
330
1F
100
AcDbEntity
  8
DIMEN
  6
Continuous
 62
    93
370
    18
100
AcDbText
 10
3.555785985436842
 20
3.21948367997055
 30
0.0
 40
0.125
  1
DRILL 1/2"
  7
ENGINEER
100
AcDbText
  0
TEXT
  5
CB
330
1F
100
AcDbEntity
  8
DIMEN
  6
Continuous
 62
    93
370
    18
100
AcDbText
 10
3.555785985436842
 20
3.03198367997055
 30
0.0
 40
0.125
  1
THRU
  7
ENGINEER
100
AcDbText
  0
TEXT
  5
CC
330
1F
100
AcDbEntity
  8
PROFILE PLATE
  6
Continuous
 62
    93
370
    18
100
AcDbText
 10
-2.166053560658107
 20
6.374013864240175
 30
0.0
 40
0.25
  1
MOTOR SIDE TOP
  7
ENGINEER
100
AcDbText
  0
TEXT
  5
CD
330
1F
100
AcDbEntity
  8
PROFILE PLATE
  6
Continuous
 62
    93
370
    18
100
AcDbText
 10
-2.146352379381298
 20
5.956830396442578
 30
0.0
 40
0.25
  1
VW TDI 1.9L 02A 
  7
ENGINEER
100
AcDbText
  0
LINE
  5
CE
330
1F
100
AcDbEntity
  8
DIMEN
  6
Continuous
 62
    93
370
    18
100
AcDbLine
 10
-2.770766375284838
 20
6.059724162323465
 30
0.0
 11
-2.672846892283171
 21
6.039431926155751
 31
0.0
  0
LINE
  5
CF
330
1F
100
AcDbEntity
  8
DIMEN
  6
Continuous
 62
    93
370
    18
100
AcDbLine
 10
-2.770766375284838
 20
6.059724162323465
 30
0.0
 11
-2.696111733563813
 21
5.993190828801797
 31
0.0
  0
LINE
  5
D0
330
1F
100
AcDbEntity
  8
DIMEN
  6
Continuous
 62
    93
370
    18
100
AcDbLine
 10
-2.770766375284838
 20
6.059724162323465
 30
0.0
 11
-1.380357527615695
 21
5.3601810500868
 31
0.0
  0
LINE
  5
D1
330
1F
100
AcDbEntity
  8
DIMEN
  6
Continuous
 62
    93
370
    18
100
AcDbLine
 10
-1.380357527615695
 20
5.3601810500868
 30
0.0
 11
-1.130357527615695
 21
5.3601810500868
 31
0.0
  0
TEXT
  5
D2
330
1F
100
AcDbEntity
  8
DIMEN
  6
Continuous
 62
    93
370
    18
100
AcDbText
 10
-1.067857527615695
 20
5.2976810500868
 30
0.0
 40
0.125
  1
DRILL 17/32"
  7
ENGINEER
100
AcDbText
  0
TEXT
  5
D3
330
1F
100
AcDbEntity
  8
DIMEN
  6
Continuous
 62
    93
370
    18
100
AcDbText
 10
-1.067857527615695
 20
5.1101810500868
 30
0.0
 40
0.125
  1
THRU (2X)
  7
ENGINEER
100
AcDbText
  0
LINE
  5
D4
330
1F
100
AcDbEntity
  8
DIMEN
  6
Continuous
 62
    93
370
    18
100
AcDbLine
 10
1.927075903141828
 20
6.054320824005688
 30
0.0
 11
1.854138343032415
 21
5.985909477539727
 31
0.0
  0
LINE
  5
D5
330
1F
100
AcDbEntity
  8
DIMEN
  6
Continuous
 62
    93
370
    18
100
AcDbLine
 10
1.927075903141828
 20
6.054320824005688
 30
0.0
 11
1.829704449964042
 21
6.031543640113774
 31
0.0
  0
LINE
  5
D6
330
1F
100
AcDbEntity
  8
DIMEN
  6
Continuous
 62
    93
370
    18
100
AcDbLine
 10
1.927075903141828
 20
6.054320824005688
 30
0.0
 11
0.6515107556573758
 21
5.371345161533355
 31
0.0
  0
LINE
  5
D7
330
1F
100
AcDbEntity
  8
DIMEN
  6
Continuous
 62
    93
370
    18
100
AcDbLine
 10
0.6515107556573758
 20
5.371345161533355
 30
0.0
 11
0.4015107556573758
 21
5.371345161533355
 31
0.0
  0
TEXT
  5
D8
330
1F
100
AcDbEntity
  8
DIMEN
  6
Continuous
 62
    93
370
    18
100
AcDbText
 10
0.2765107556573758
 20
5.308845161533355
 30
0.0
 40
0.125
  1
 
  7
ENGINEER
100
AcDbText
  0
LINE
  5
D9
330
1F
100
AcDbEntity
  8
DIMEN
  6
Continuous
 62
    93
370
    18
100
AcDbLine
 10
0.0010412956242369
 20
-3.622307217688115
 30
0.0
 11
0.1688930366509691
 21
-3.731053679857212
 31
0.0
  0
LINE
  5
DA
330
1F
100
AcDbEntity
  8
DIMEN
  6
Continuous
 62
    93
370
    18
100
AcDbLine
 10
0.0010412956242369
 20
-3.622307217688115
 30
0.0
 11
0.0920319363382854
 21
-3.800410287011602
 31
0.0
  0
LINE
  5
DB
330
1F
100
AcDbEntity
  8
DIMEN
  6
Continuous
 62
    93
370
    18
100
AcDbLine
 10
0.0010412956242369
 20
-3.622307217688115
 30
0.0
 11
0.6808607121766102
 21
-4.375684156295101
 31
0.0
  0
LINE
  5
DC
330
1F
100
AcDbEntity
  8
DIMEN
  6
Continuous
 62
    93
370
    18
100
AcDbLine
 10
0.6808607121766102
 20
-4.375684156295101
 30
0.0
 11
0.9308607121766102
 21
-4.375684156295101
 31
0.0
  0
TEXT
  5
DD
330
1F
100
AcDbEntity
  8
DIMEN
  6
Continuous
 62
    93
370
    18
100
AcDbText
 10
0.9933607121766102
 20
-4.438184156295101
 30
0.0
 40
0.125
  1
PLATE TO RING
  7
ENGINEER
100
AcDbText
  0
TEXT
  5
DE
330
1F
100
AcDbEntity
  8
DIMEN
  6
Continuous
 62
    93
370
    18
100
AcDbText
 10
0.9933607121766102
 20
-4.625684156295101
 30
0.0
 40
0.125
  1
BOLT CIRCLE 7.25" DIA.
  7
ENGINEER
100
AcDbText
  0
TEXT
  5
DF
330
1F
100
AcDbEntity
  8
DIMEN
  6
Continuous
 62
    93
370
    18
100
AcDbText
 10
0.9933607121766102
 20
-4.813184156295101
 30
0.0
 40
0.125
  1
DRILL 17/32" (4 X)
  7
ENGINEER
100
AcDbText
  0
LINE
  5
E0
330
1F
100
AcDbEntity
  8
DIMEN
  6
Continuous
 62
    93
370
    18
100
AcDbLine
 10
2.749396488352458
 20
1.254406746060242
 30
0.0
 11
2.896356982353839
 21
1.390062977774345
 31
0.0
  0
LINE
  5
E1
330
1F
100
AcDbEntity
  8
DIMEN
  6
Continuous
 62
    93
370
    18
100
AcDbLine
 10
2.749396488352458
 20
1.254406746060242
 30
0.0
 11
2.944496125367415
 21
1.298408241905633
 31
0.0
  0
LINE
  5
E2
330
1F
100
AcDbEntity
  8
DIMEN
  6
Continuous
 62
    93
370
    18
100
AcDbLine
 10
2.749396488352458
 20
1.254406746060242
 30
0.0
 11
4.033061561184049
 21
1.928616713901828
 31
0.0
  0
LINE
  5
E3
330
1F
100
AcDbEntity
  8
DIMEN
  6
Continuous
 62
    93
370
    18
100
AcDbLine
 10
4.033061561184049
 20
1.928616713901828
 30
0.0
 11
4.283061561184049
 21
1.928616713901828
 31
0.0
  0
TEXT
  5
E4
330
1F
100
AcDbEntity
  8
DIMEN
  6
Continuous
 62
    93
370
    18
100
AcDbText
 10
4.345561561184049
 20
1.866116713901828
 30
0.0
 40
0.125
  1
HUB CUTOUT
  7
ENGINEER
100
AcDbText
  0
TEXT
  5
E5
330
1F
100
AcDbEntity
  8
DIMEN
  6
Continuous
 62
    93
370
    18
100
AcDbText
 10
4.345561561184049
 20
1.678616713901828
 30
0.0
 40
0.125
  1
6" DIA.
  7
ENGINEER
100
AcDbText
  0
TEXT
  5
E6
330
1F
100
AcDbEntity
  8
PROFILE PLATE
  6
Continuous
 62
    93
370
    18
100
AcDbText
 10
-0.7201037807013702
 20
0.5278860259694884
 30
0.0
 40
0.175
  1
MAINSHAFT
  7
ENGINEER
100
AcDbText
  0
CIRCLE
  5
E7
330
1F
100
AcDbEntity
  8
PROFILE PLATE
  6
Continuous
 62
    93
370
    18
100
AcDbCircle
 10
-6.026241939218837
 20
-1.6947
 30
0.0
 40
0.3104999999999993
  0
LINE
  5
E8
330
1F
100
AcDbEntity
  8
PROFILE PLATE
  6
GC   6
 62
    93
370
    18
100
AcDbLine
 10
-6.336741939218836
 20
-1.6947
 30
0.0
 11
-5.715741939218837
 21
-1.6947
 31
0.0
  0
LINE
  5
E9
330
1F
100
AcDbEntity
  8
PROFILE PLATE
  6
GC   6
 62
    93
370
    18
100
AcDbLine
 10
-6.026241939218837
 20
-1.3847
 30
0.0
 11
-6.026241939218837
 21
-2.0057
 31
0.0
  0
CIRCLE
  5
EA
330
1F
100
AcDbEntity
  8
PROFILE PLATE
  6
Continuous
 62
    93
370
    18
100
AcDbCircle
 10
6.026241939218836
 20
-1.6947
 30
0.0
 40
0.3104999999999993
  0
LINE
  5
EB
330
1F
100
AcDbEntity
  8
PROFILE PLATE
  6
GC   6
 62
    93
370
    18
100
AcDbLine
 10
5.715741939218836
 20
-1.6947
 30
0.0
 11
6.336741939218835
 21
-1.6947
 31
0.0
  0
LINE
  5
EC
330
1F
100
AcDbEntity
  8
PROFILE PLATE
  6
GC   6
 62
    93
370
    18
100
AcDbLine
 10
6.026241939218836
 20
-1.3847
 30
0.0
 11
6.026241939218836
 21
-2.0057
 31
0.0
  0
LINE
  5
ED
330
1F
100
AcDbEntity
  8
DIMEN
  6
Continuous
 62
    93
370
    18
100
AcDbLine
 10
-6.026241939218837
 20
-2.091623588908902
 30
0.0
 11
-5.92964935658993
 21
-2.06574168439865
 31
0.0
  0
LINE
  5
EE
330
1F
100
AcDbEntity
  8
DIMEN
  6
Continuous
 62
    93
370
    18
100
AcDbLine
 10
-6.026241939218837
 20
-2.091623588908902
 30
0.0
 11
-5.92964935658993
 21
-2.117505493419154
 31
0.0
  0
LINE
  5
EF
330
1F
100
AcDbEntity
  8
DIMEN
  6
Continuous
 62
    93
370
    18
100
AcDbLine
 10
6.026241939218836
 20
-2.091623588908902
 30
0.0
 11
5.929649356589929
 21
-2.117505493419154
 31
0.0
  0
LINE
  5
F0
330
1F
100
AcDbEntity
  8
DIMEN
  6
Continuous
 62
    93
370
    18
100
AcDbLine
 10
6.026241939218836
 20
-2.091623588908902
 30
0.0
 11
5.929649356589929
 21
-2.06574168439865
 31
0.0
  0
LINE
  5
F1
330
1F
100
AcDbEntity
  8
DIMEN
  6
Continuous
 62
    93
370
    18
100
AcDbLine
 10
-6.026241939218837
 20
-1.8197
 30
0.0
 11
-6.026241939218837
 21
-2.191623588908902
 31
0.0
  0
LINE
  5
F2
330
1F
100
AcDbEntity
  8
DIMEN
  6
Continuous
 62
    93
370
    18
100
AcDbLine
 10
6.026241939218836
 20
-1.8197
 30
0.0
 11
6.026241939218836
 21
-2.191623588908902
 31
0.0
  0
TEXT
  5
F3
330
1F
100
AcDbEntity
  8
DIMEN
  6
Continuous
 62
    93
370
    18
100
AcDbText
 10
0.2344553462576542
 20
-2.154453888047925
 30
0.0
 40
0.125
  1
12.0525"
  7
ENGINEER
100
AcDbText
  0
LINE
  5
F4
330
1F
100
AcDbEntity
  8
DIMEN
  6
Continuous
 62
    93
370
    18
100
AcDbLine
 10
-6.026241939218837
 20
-2.091623588908902
 30
0.0
 11
0.2032053462576542
 21
-2.091623588908902
 31
0.0
  0
LINE
  5
F5
330
1F
100
AcDbEntity
  8
DIMEN
  6
Continuous
 62
    93
370
    18
100
AcDbLine
 10
1.130300311033842
 20
-2.091623588908902
 30
0.0
 11
6.026241939218836
 21
-2.091623588908902
 31
0.0
  0
TEXT
  5
F6
330
1F
100
AcDbEntity
  8
PROFILE PLATE
  6
Continuous
 62
    93
370
    18
100
AcDbText
 10
-5.43410733783854
 20
-2.332810791443393
 30
0.0
 40
0.125
  1
BORE TO SUIT
  7
ENGINEER
100
AcDbText
  0
TEXT
  5
F7
330
1F
100
AcDbEntity
  8
PROFILE PLATE
  6
Continuous
 62
    93
370
    18
100
AcDbText
 10
-5.43410733783854
 20
-2.520310791443393
 30
0.0
 40
0.125
  1
DOWEL (.6294)
  7
ENGINEER
100
AcDbText
  0
TEXT
  5
F8
330
1F
100
AcDbEntity
  8
PROFILE PLATE
  6
Continuous
 62
    93
370
    18
100
AcDbText
 10
-5.0544394981043
 20
-1.982676218084459
 30
0.0
 40
0.25
  1
"A"
  7
ENGINEER
100
AcDbText
  0
TEXT
  5
F9
330
1F
100
AcDbEntity
  8
PROFILE PLATE
  6
Continuous
 62
    93
370
    18
100
AcDbText
 10
3.941438098265188
 20
-2.313278405118177
 30
0.0
 40
0.125
  1
BORE TO SUIT
  7
ENGINEER
100
AcDbText
  0
TEXT
  5
FA
330
1F
100
AcDbEntity
  8
PROFILE PLATE
  6
Continuous
 62
    93
370
    18
100
AcDbText
 10
3.941438098265188
 20
-2.500778405118177
 30
0.0
 40
0.125
  1
DOWEL (.6294)
  7
ENGINEER
100
AcDbText
  0
TEXT
  5
FB
330
1F
100
AcDbEntity
  8
PROFILE PLATE
  6
Continuous
 62
    93
370
    18
100
AcDbText
 10
4.471564720842116
 20
-1.949870023840299
 30
0.0
 40
0.25
  1
"B"
  7
ENGINEER
100
AcDbText
  0
LINE
  5
FC
330
1F
100
AcDbEntity
  8
DIMEN
  6
Continuous
 62
    93
370
    18
100
AcDbLine
 10
-6.139219090823712
 20
-1.292960666091471
 30
0.0
 11
-6.05324014371792
 21
-1.241895798965633
 31
0.0
  0
LINE
  5
FD
330
1F
100
AcDbEntity
  8
DIMEN
  6
Continuous
 62
    93
370
    18
100
AcDbLine
 10
-6.139219090823712
 20
-1.292960666091471
 30
0.0
 11
-6.039226704876539
 21
-1.291726667472514
 31
0.0
  0
LINE
  5
FE
330
1F
100
AcDbEntity
  8
DIMEN
  6
Continuous
 62
    93
370
    18
100
AcDbLine
 10
-0.1129771516048753
 20
0.401739333908529
 30
0.0
 11
-0.1989560987106668
 21
0.3506744667826909
 31
0.0
  0
LINE
  5
FF
330
1F
100
AcDbEntity
  8
DIMEN
  6
Continuous
 62
    93
370
    18
100
AcDbLine
 10
-0.1129771516048753
 20
0.401739333908529
 30
0.0
 11
-0.2129695375520483
 21
0.4005053352895722
 31
0.0
  0
LINE
  5
100
330
1F
100
AcDbEntity
  8
DIMEN
  6
Continuous
 62
    93
370
    18
100
AcDbLine
 10
-6.060081795448869
 20
-1.574367692906972
 30
0.0
 11
-6.166290975807738
 21
-1.196694820417049
 31
0.0
  0
LINE
  5
101
330
1F
100
AcDbEntity
  8
DIMEN
  6
Continuous
 62
    93
370
    18
100
AcDbLine
 10
-0.0338398562300319
 20
0.1203323070930279
 30
0.0
 11
-0.1400490365889007
 21
0.4980051795829513
 31
0.0
  0
TEXT
  5
102
330
1F
100
AcDbEntity
  8
DIMEN
  6
Continuous
 62
    93
370
    18
100
AcDbText
 10
-5.021188751997507
 20
-0.9461026259593492
 30
0.0
 40
0.125
  1
6.260"
  7
ENGINEER
100
AcDbText
  0
LINE
  5
103
330
1F
100
AcDbEntity
  8
DIMEN
  6
Continuous
 62
    93
370
    18
100
AcDbLine
 10
-6.139219090823712
 20
-1.292960666091471
 30
0.0
 11
-5.016937620475654
 21
-0.9773526259593492
 31
0.0
  0
LINE
  5
104
330
1F
100
AcDbEntity
  8
DIMEN
  6
Continuous
 62
    93
370
    18
100
AcDbLine
 10
-4.347984517861553
 20
-0.7892296075949272
 30
0.0
 11
-0.1129771516048753
 21
0.401739333908529
 31
0.0
  0
LINE
  5
105
330
1F
100
AcDbEntity
  8
DIMEN
  6
Continuous
 62
    93
370
    18
100
AcDbLine
 10
0.1233228861819672
 20
0.4385280868444454
 30
0.0
 11
0.2233152721291402
 21
0.4372940882254884
 31
0.0
  0
LINE
  5
106
330
1F
100
AcDbEntity
  8
DIMEN
  6
Continuous
 62
    93
370
    18
100
AcDbLine
 10
0.1233228861819672
 20
0.4385280868444454
 30
0.0
 11
0.2093018332877587
 21
0.3874632197186073
 31
0.0
  0
LINE
  5
107
330
1F
100
AcDbEntity
  8
DIMEN
  6
Continuous
 62
    93
370
    18
100
AcDbLine
 10
6.149564825400803
 20
-1.256171913155555
 30
0.0
 11
6.049572439453629
 21
-1.254937914536598
 31
0.0
  0
LINE
  5
108
330
1F
100
AcDbEntity
  8
DIMEN
  6
Continuous
 62
    93
370
    18
100
AcDbLine
 10
6.149564825400803
 20
-1.256171913155555
 30
0.0
 11
6.063585878295011
 21
-1.205107046029716
 31
0.0
  0
LINE
  5
109
330
1F
100
AcDbEntity
  8
DIMEN
  6
Continuous
 62
    93
370
    18
100
AcDbLine
 10
0.033839856230032
 20
0.1203323070930279
 30
0.0
 11
0.1503947711659928
 21
0.5347939325188676
 31
0.0
  0
LINE
  5
10A
330
1F
100
AcDbEntity
  8
DIMEN
  6
Continuous
 62
    93
370
    18
100
AcDbLine
 10
6.060081795448868
 20
-1.574367692906972
 30
0.0
 11
6.176636710384828
 21
-1.159906067481132
 31
0.0
  0
TEXT
  5
10B
330
1F
100
AcDbEntity
  8
DIMEN
  6
Continuous
 62
    93
370
    18
100
AcDbText
 10
4.372409778748638
 20
-0.9144688213545746
 30
0.0
 40
0.125
  1
6.260"
  7
ENGINEER
100
AcDbText
  0
LINE
  5
10C
330
1F
100
AcDbEntity
  8
DIMEN
  6
Continuous
 62
    93
370
    18
100
AcDbLine
 10
0.1233228861819672
 20
0.4385280868444454
 30
0.0
 11
4.376660910270492
 21
-0.7575958029901524
 31
0.0
  0
LINE
  5
10D
330
1F
100
AcDbEntity
  8
DIMEN
  6
Continuous
 62
    93
370
    18
100
AcDbLine
 10
5.045614012884592
 20
-0.9457188213545744
 30
0.0
 11
6.149564825400803
 21
-1.256171913155555
 31
0.0
  0
LINE
  5
10E
330
1F
100
AcDbEntity
  8
PROFILE PLATE
  6
CENTER2
 62
     1
370
    18
100
AcDbLine
 10
6.026241939218836
 20
-1.6947
 30
0.0
 11
-6.026241939218837
 21
-1.6947
 31
0.0
  0
LINE
  5
10F
330
1F
100
AcDbEntity
  8
PROFILE PLATE
  6
CENTER2
 62
     1
370
    18
100
AcDbLine
 10
-6.026241939218837
 20
-1.6947
 30
0.0
 11
0.0
 21
0.0
 31
0.0
  0
LINE
  5
110
330
1F
100
AcDbEntity
  8
PROFILE PLATE
  6
CENTER2
 62
     1
370
    18
100
AcDbLine
 10
0.0
 20
0.0
 30
0.0
 11
6.026241939218836
 21
-1.6947
 31
0.0
  0
LINE
  5
111
330
1F
100
AcDbEntity
  8
PROFILE PLATE
  6
CENTER2
 62
     1
370
    18
100
AcDbLine
 10
0.0
 20
0.0
 30
0.0
 11
0.0
 21
-1.6947
 31
0.0
  0
LINE
  5
112
330
1F
100
AcDbEntity
  8
DIMEN
  6
Continuous
 62
    93
370
    18
100
AcDbLine
 10
-0.5111362908954346
 20
-1.6947
 30
0.0
 11
-0.5370181954056866
 21
-1.598107417371093
 31
0.0
  0
LINE
  5
113
330
1F
100
AcDbEntity
  8
DIMEN
  6
Continuous
 62
    93
370
    18
100
AcDbLine
 10
-0.5111362908954346
 20
-1.6947
 30
0.0
 11
-0.4852543863851825
 21
-1.598107417371093
 31
0.0
  0
LINE
  5
114
330
1F
100
AcDbEntity
  8
DIMEN
  6
Continuous
 62
    93
370
    18
100
AcDbLine
 10
-0.5111362908954343
 20
0.0
 30
0.0
 11
-0.4852543863851823
 21
-0.0965925826289068
 31
0.0
  0
LINE
  5
115
330
1F
100
AcDbEntity
  8
DIMEN
  6
Continuous
 62
    93
370
    18
100
AcDbLine
 10
-0.5111362908954343
 20
0.0
 30
0.0
 11
-0.5370181954056864
 21
-0.0965925826289068
 31
0.0
  0
LINE
  5
116
330
1F
100
AcDbEntity
  8
DIMEN
  6
Continuous
 62
    93
370
    18
100
AcDbLine
 10
-0.125
 20
-1.6947
 30
0.0
 11
-0.6111362908954345
 21
-1.6947
 31
0.0
  0
LINE
  5
117
330
1F
100
AcDbEntity
  8
DIMEN
  6
Continuous
 62
    93
370
    18
100
AcDbLine
 10
-0.125
 20
0.0
 30
0.0
 11
-0.6111362908954343
 21
0.0000000000000001
 31
0.0
  0
TEXT
  5
118
330
1F
100
AcDbEntity
  8
DIMEN
  6
Continuous
 62
    93
370
    18
100
AcDbText
 10
-0.8866387163742058
 20
-0.9100714051783085
 30
0.0
 40
0.125
  1
1.6947"
  7
ENGINEER
100
AcDbText
  0
LINE
  5
119
330
1F
100
AcDbEntity
  8
DIMEN
  6
Continuous
 62
    93
370
    18
100
AcDbLine
 10
-0.5111362908954346
 20
-1.6947
 30
0.0
 11
-0.5111362908954344
 21
-0.9413214051783084
 31
0.0
  0
LINE
  5
11A
330
1F
100
AcDbEntity
  8
DIMEN
  6
Continuous
 62
    93
370
    18
100
AcDbLine
 10
-0.5111362908954344
 20
-0.7533785948216916
 30
0.0
 11
-0.5111362908954343
 21
0.0
 31
0.0
  0
CIRCLE
  5
11B
330
1F
100
AcDbEntity
  8
PROFILE PLATE
  6
Continuous
 62
    93
370
    18
100
AcDbCircle
 10
0.0
 20
0.0
 30
0.0
 40
0.1249999999999999
  0
LINE
  5
11C
330
1F
100
AcDbEntity
  8
PROFILE PLATE
  6
CENTER2
 62
    93
370
    18
100
AcDbLine
 10
0.0
 20
-0.3020847188871714
 30
0.0
 11
0.0
 21
0.3020847188871714
 31
0.0
  0
LINE
  5
11D
330
1F
100
AcDbEntity
  8
PROFILE PLATE
  6
CENTER2
 62
    93
370
    18
100
AcDbLine
 10
-0.3020847188871718
 20
0.0
 30
0.0
 11
0.3020847188871718
 21
0.0
 31
0.0
  0
LINE
  5
11E
330
1F
100
AcDbEntity
  8
PROFILE PLATE
  6
Continuous
 62
    93
370
    18
100
AcDbLine
 10
-1.819396719222997
 20
2.154839574981501
 30
0.0
 11
1.747054472679164
 21
2.154839574981501
 31
0.0
  0
LINE
  5
11F
330
1F
100
AcDbEntity
  8
PROFILE PLATE
  6
Continuous
 62
    93
370
    18
100
AcDbLine
 10
1.747054472679164
 20
2.154839574981501
 30
0.0
 11
1.747054472679164
 21
1.25485521524029
 31
0.0
  0
LINE
  5
120
330
1F
100
AcDbEntity
  8
PROFILE PLATE
  6
Continuous
 62
    93
370
    18
100
AcDbLine
 10
1.747054472679164
 20
1.25485521524029
 30
0.0
 11
-1.819396719222997
 21
1.25485521524029
 31
0.0
  0
LINE
  5
121
330
1F
100
AcDbEntity
  8
PROFILE PLATE
  6
Continuous
 62
    93
370
    18
100
AcDbLine
 10
-1.819396719222997
 20
1.25485521524029
 30
0.0
 11
-1.819396719222997
 21
2.154839574981501
 31
0.0
  0
TEXT
  5
122
330
1F
100
AcDbEntity
  8
PROFILE PLATE
  6
Continuous
 62
    93
370
    18
100
AcDbText
 10
-1.686650380378698
 20
1.917344152618219
 30
0.0
 40
0.125
  1
COPYRIGHT ELECTRO AUTOMOTIVE
  7
ENGINEER
100
AcDbText
  0
TEXT
  5
123
330
1F
100
AcDbEntity
  8
PROFILE PLATE
  6
Continuous
 62
    93
370
    18
100
AcDbText
 10
-1.686650380378698
 20
1.729844152618219
 30
0.0
 40
0.125
  1
P.O. BOX 1113 FELTON CA. 95018-1113
  7
ENGINEER
100
AcDbText
  0
TEXT
  5
124
330
1F
100
AcDbEntity
  8
PROFILE PLATE
  6
Continuous
 62
    93
370
    18
100
AcDbText
 10
-1.686650380378698
 20
1.542344152618219
 30
0.0
 40
0.125
  1
PHONE 831-429-1989 FAX 831-429-1907
  7
ENGINEER
100
AcDbText
  0
TEXT
  5
125
330
1F
100
AcDbEntity
  8
PROFILE PLATE
  6
Continuous
 62
    93
370
    18
100
AcDbText
 10
-1.686650380378698
 20
1.354844152618219
 30
0.0
 40
0.125
  1
DRAWN BY MARTY RATTAY 08/04/08
  7
ENGINEER
100
AcDbText
  0
LINE
  5
126
330
1F
100
AcDbEntity
  8
DIMEN
  6
Continuous
 62
    93
370
    18
100
AcDbLine
 10
-2.119481160428413
 20
2.549161715279765
 30
0.0
 11
-2.299131009092082
 21
2.560383652506497
 31
0.0
  0
LINE
  5
127
330
1F
100
AcDbEntity
  8
DIMEN
  6
Continuous
 62
    93
370
    18
100
AcDbLine
 10
-2.119481160428413
 20
2.549161715279765
 30
0.0
 11
-2.269451524543815
 21
2.648705122329624
 31
0.0
  0
LINE
  5
128
330
1F
100
AcDbEntity
  8
DIMEN
  6
Continuous
 62
    93
370
    18
100
AcDbLine
 10
-2.119481160428413
 20
2.549161715279765
 30
0.0
 11
-3.510944604779671
 21
3.016748111643023
 31
0.0
  0
LINE
  5
129
330
1F
100
AcDbEntity
  8
DIMEN
  6
Continuous
 62
    93
370
    18
100
AcDbLine
 10
-3.510944604779671
 20
3.016748111643023
 30
0.0
 11
-3.760944604779671
 21
3.016748111643023
 31
0.0
  0
TEXT
  5
12A
330
1F
100
AcDbEntity
  8
DIMEN
  6
Continuous
 62
    93
370
    18
100
AcDbText
 10
-5.036788100655268
 20
2.966748111643023
 30
0.0
 40
0.1
  1
RING RECESS 
  7
ENGINEER
100
AcDbText
  0
TEXT
  5
12B
330
1F
100
AcDbEntity
  8
DIMEN
  6
Continuous
 62
    93
370
    18
100
AcDbText
 10
-5.036788100655268
 20
2.816748111643023
 30
0.0
 40
0.1
  1
AS PER STANDARD
  7
ENGINEER
100
AcDbText
  0
TEXT
  5
12C
330
1F
100
AcDbEntity
  8
DIMEN
  6
Continuous
 62
    93
370
    18
100
AcDbText
 10
-5.036788100655268
 20
2.666748111643023
 30
0.0
 40
0.1
  1
MOTOR RING DWG.
  7
ENGINEER
100
AcDbText
  0
ENDSEC
  0
SECTION
  2
OBJECTS
  0
DICTIONARY
  5
C
330
0
100
AcDbDictionary
281
     1
  3
ACAD_GROUP
350
D
  3
ACAD_LAYOUT
350
1A
  3
ACAD_MLINESTYLE
350
17
  3
ACAD_PLOTSETTINGS
350
19
  3
ACAD_PLOTSTYLENAME
350
E
  0
DICTIONARY
  5
D
102
{ACAD_REACTORS
330
C
102
}
330
C
100
AcDbDictionary
281
     1
  0
DICTIONARY
  5
1A
102
{ACAD_REACTORS
330
C
102
}
330
C
100
AcDbDictionary
281
     1
  3
Layout1
350
1E
  3
Layout2
350
26
  3
Model
350
22
  0
DICTIONARY
  5
17
102
{ACAD_REACTORS
330
C
102
}
330
C
100
AcDbDictionary
281
     1
  3
Standard
350
18
  0
DICTIONARY
  5
19
102
{ACAD_REACTORS
330
C
102
}
330
C
100
AcDbDictionary
281
     1
  0
ACDBDICTIONARYWDFLT
  5
E
102
{ACAD_REACTORS
330
C
102
}
330
C
100
AcDbDictionary
281
     1
  3
Normal
350
F
100
AcDbDictionaryWithDefault
340
F
  0
LAYOUT
  5
1E
102
{ACAD_REACTORS
330
1A
102
}
330
1A
100
AcDbPlotSettings
  1

  2

  4

  6

 40
0.0
 41
0.0
 42
0.0
 43
0.0
 44
0.0
 45
0.0
 46
0.0
 47
0.0
 48
0.0
 49
0.0
140
0.0
141
0.0
142
1.0
143
1.0
 70
   688
 72
     0
 73
     0
 74
     5
  7

 75
    16
147
1.0
148
0.0
149
0.0
100
AcDbLayout
  1
Layout1
 70
     1
 71
     1
 10
0.0
 20
0.0
 11
12.0
 21
9.0
 12
0.0
 22
0.0
 32
0.0
 14
1.000000000000000E+20
 24
1.000000000000000E+20
 34
1.000000000000000E+20
 15
-1.000000000000000E+20
 25
-1.000000000000000E+20
 35
-1.000000000000000E+20
146
0.0
 13
0.0
 23
0.0
 33
0.0
 16
1.0
 26
0.0
 36
0.0
 17
0.0
 27
1.0
 37
0.0
 76
     0
330
1B
  0
LAYOUT
  5
26
102
{ACAD_REACTORS
330
1A
102
}
330
1A
100
AcDbPlotSettings
  1

  2

  4

  6

 40
0.0
 41
0.0
 42
0.0
 43
0.0
 44
0.0
 45
0.0
 46
0.0
 47
0.0
 48
0.0
 49
0.0
140
0.0
141
0.0
142
1.0
143
1.0
 70
   688
 72
     0
 73
     0
 74
     5
  7

 75
    16
147
1.0
148
0.0
149
0.0
100
AcDbLayout
  1
Layout2
 70
     1
 71
     2
 10
0.0
 20
0.0
 11
0.0
 21
0.0
 12
0.0
 22
0.0
 32
0.0
 14
0.0
 24
0.0
 34
0.0
 15
0.0
 25
0.0
 35
0.0
146
0.0
 13
0.0
 23
0.0
 33
0.0
 16
1.0
 26
0.0
 36
0.0
 17
0.0
 27
1.0
 37
0.0
 76
     0
330
23
  0
LAYOUT
  5
22
102
{ACAD_REACTORS
330
1A
102
}
330
1A
100
AcDbPlotSettings
  1

  2

  4

  6

 40
0.0
 41
0.0
 42
0.0
 43
0.0
 44
0.0
 45
0.0
 46
0.0
 47
0.0
 48
0.0
 49
0.0
140
0.0
141
0.0
142
1.0
143
1.0
 70
  1712
 72
     0
 73
     0
 74
     0
  7

 75
     0
147
1.0
148
0.0
149
0.0
100
AcDbLayout
  1
Model
 70
     1
 71
     0
 10
0.0
 20
0.0
 11
0.0
 21
0.0
 12
0.0
 22
0.0
 32
0.0
 14
0.0
 24
0.0
 34
0.0
 15
0.0
 25
0.0
 35
0.0
146
0.0
 13
0.0
 23
0.0
 33
0.0
 16
1.0
 26
0.0
 36
0.0
 17
0.0
 27
1.0
 37
0.0
 76
     0
330
1F
  0
MLINESTYLE
  5
18
102
{ACAD_REACTORS
330
17
102
}
330
17
100
AcDbMlineStyle
  2
Standard
 70
     0
  3

 62
   256
 51
90.0
 52
90.0
 71
     2
 49
0.5
 62
   256
  6
BYLAYER
 49
-0.5
 62
   256
  6
BYLAYER
  0
ACDBPLACEHOLDER
  5
F
102
{ACAD_REACTORS
330
E
102
}
330
E
  0
ENDSEC
  0
EOF
