  0
SECTION
  2
HEADER
  9
$ACADVER
  1
AC1006
  0
ENDSEC
  0
SECTION
  2
TABLES
  0
TABLE
  2
LTYPE
 70
    25
  0
LTYPE
  2
CONTINUOUS
 70
    64
  3
Solid line
 72
    64
 73
     0
 40
0.000000
  0
LTYPE
  2
DASHDOT
 70
    64
  3
__ . __ . __ . __ . __ . __ . __ . __ . __ . __
 72
    65
 73
     4
 40
1.000000
 49
0.500000
 49
-0.250000
 49
0.000000
 49
-0.250000
  0
LTYPE
  2
DASHED
 70
    64
  3
__ __ __ __ __ __ __ __ __ __ __ __ __ __ __ __
 72
    65
 73
     2
 40
0.750000
 49
0.500000
 49
-0.250000
  0
LTYPE
  2
DIVIDE
 70
    64
  3
____ . . ____ . . ____ . . ____ . . ____ . . __
 72
    65
 73
     6
 40
1.250000
 49
0.500000
 49
-0.250000
 49
0.000000
 49
-0.250000
 49
0.000000
 49
-0.250000
  0
LTYPE
  2
DOT
 70
    64
  3
. . . . . . . . . . . . . . . . . . . . . . . . 
 72
    65
 73
     2
 40
0.250000
 49
0.000000
 49
-0.250000
  0
ENDTAB
  0
ENDSEC
  0
SECTION
  2
ENTITIES
  0
CIRCLE
  8
CENTER
 62
     7
  6
CONTINUOUS
 10
2.527852
 20
3.221546
 30
0.000000
 40
0.703001
  0
CIRCLE
  8
CENTER
 62
     7
  6
CONTINUOUS
 10
2.527852
 20
3.221546
 30
0.000000
 40
1.180000
  0
LINE
  8
CENTER
 62
     7
  6
CONTINUOUS
 10
7.864316
 20
4.401546
 30
0.000000
 11
8.614316
 21
4.401546
 31
0.000000
  0
LINE
  8
CENTER
 62
     7
  6
CONTINUOUS
 10
7.864316
 20
2.041546
 30
0.000000
 11
8.614316
 21
2.041546
 31
0.000000
  0
LINE
  8
CENTER
 62
     7
  6
CONTINUOUS
 10
7.864316
 20
3.924546
 30
0.000000
 11
8.319316
 21
3.924546
 31
0.000000
  0
LINE
  8
CENTER
 62
     7
  6
CONTINUOUS
 10
7.864316
 20
2.518546
 30
0.000000
 11
8.319316
 21
2.518546
 31
0.000000
  0
LINE
  8
CENTER
 62
     7
  6
CONTINUOUS
 10
9.694316
 20
3.190056
 30
0.000000
 11
7.564316
 21
3.190056
 31
0.000000
  0
CIRCLE
  8
HUB
 62
     7
  6
CONTINUOUS
 10
2.527852
 20
3.221546
 30
0.000000
 40
0.375000
  0
CIRCLE
  8
HUB
 62
     7
  6
CONTINUOUS
 10
1.919036
 20
3.573046
 30
0.000000
 40
0.101500
  0
CIRCLE
  8
HUB
 62
     7
  6
CONTINUOUS
 10
1.919036
 20
2.870046
 30
0.000000
 40
0.101500
  0
CIRCLE
  8
HUB
 62
     7
  6
CONTINUOUS
 10
2.527853
 20
2.518546
 30
0.000000
 40
0.101499
  0
CIRCLE
  8
HUB
 62
     7
  6
CONTINUOUS
 10
3.136668
 20
2.870048
 30
0.000000
 40
0.101500
  0
CIRCLE
  8
HUB
 62
     7
  6
CONTINUOUS
 10
3.136667
 20
3.573048
 30
0.000000
 40
0.101500
  0
CIRCLE
  8
HUB
 62
     7
  6
CONTINUOUS
 10
2.527852
 20
3.924546
 30
0.000000
 40
0.101499
  0
ARC
  8
HUB
 62
     7
  6
CONTINUOUS
 10
1.919036
 20
3.573046
 30
0.000000
 40
0.179499
 50
98.373946
 51
201.626103
  0
ARC
  8
HUB
 62
     7
  6
CONTINUOUS
 10
1.919036
 20
3.573046
 30
0.000000
 40
0.179499
 50
201.626103
 51
458.373946
  0
ARC
  8
HUB
 62
     7
  6
CONTINUOUS
 10
1.919036
 20
2.870046
 30
0.000000
 40
0.179500
 50
158.373914
 51
261.626086
  0
ARC
  8
HUB
 62
     7
  6
CONTINUOUS
 10
1.919036
 20
2.870046
 30
0.000000
 40
0.179500
 50
261.626086
 51
518.373914
  0
ARC
  8
HUB
 62
     7
  6
CONTINUOUS
 10
2.527853
 20
2.518546
 30
0.000000
 40
0.179500
 50
218.374020
 51
321.626066
  0
ARC
  8
HUB
 62
     7
  6
CONTINUOUS
 10
2.527853
 20
2.518546
 30
0.000000
 40
0.179500
 50
321.626066
 51
578.374020
  0
ARC
  8
HUB
 62
     7
  6
CONTINUOUS
 10
3.136668
 20
2.870048
 30
0.000000
 40
0.179501
 50
21.625990
 51
278.374214
  0
ARC
  8
HUB
 62
     7
  6
CONTINUOUS
 10
3.136668
 20
2.870048
 30
0.000000
 40
0.179501
 50
278.374214
 51
381.625990
  0
ARC
  8
HUB
 62
     7
  6
CONTINUOUS
 10
3.136667
 20
3.573048
 30
0.000000
 40
0.179500
 50
81.626241
 51
338.374070
  0
ARC
  8
HUB
 62
     7
  6
CONTINUOUS
 10
3.136667
 20
3.573048
 30
0.000000
 40
0.179500
 50
338.374070
 51
441.626241
  0
ARC
  8
HUB
 62
     7
  6
CONTINUOUS
 10
2.527852
 20
3.924546
 30
0.000000
 40
0.179500
 50
38.374020
 51
141.626066
  0
ARC
  8
HUB
 62
     7
  6
CONTINUOUS
 10
2.527852
 20
3.924546
 30
0.000000
 40
0.179500
 50
141.626066
 51
398.374020
  0
CIRCLE
  8
HUB
 62
     7
  6
CONTINUOUS
 10
2.527852
 20
4.401546
 30
0.000000
 40
0.166000
  0
CIRCLE
  8
HUB
 62
     7
  6
CONTINUOUS
 10
2.527852
 20
4.401546
 30
0.000000
 40
0.195000
  0
CIRCLE
  8
HUB
 62
     7
  6
CONTINUOUS
 10
1.693466
 20
4.055932
 30
0.000000
 40
0.166000
  0
CIRCLE
  8
HUB
 62
     7
  6
CONTINUOUS
 10
1.693466
 20
4.055932
 30
0.000000
 40
0.195000
  0
CIRCLE
  8
HUB
 62
     7
  6
CONTINUOUS
 10
1.347852
 20
3.221546
 30
0.000000
 40
0.166000
  0
CIRCLE
  8
HUB
 62
     7
  6
CONTINUOUS
 10
1.347852
 20
3.221546
 30
0.000000
 40
0.195000
  0
CIRCLE
  8
HUB
 62
     7
  6
CONTINUOUS
 10
1.693466
 20
2.387160
 30
0.000000
 40
0.166000
  0
CIRCLE
  8
HUB
 62
     7
  6
CONTINUOUS
 10
1.693466
 20
2.387160
 30
0.000000
 40
0.195000
  0
CIRCLE
  8
HUB
 62
     7
  6
CONTINUOUS
 10
2.527852
 20
2.041546
 30
0.000000
 40
0.166000
  0
CIRCLE
  8
HUB
 62
     7
  6
CONTINUOUS
 10
2.527852
 20
2.041546
 30
0.000000
 40
0.195000
  0
CIRCLE
  8
HUB
 62
     7
  6
CONTINUOUS
 10
3.362238
 20
2.387160
 30
0.000000
 40
0.166000
  0
CIRCLE
  8
HUB
 62
     7
  6
CONTINUOUS
 10
3.362238
 20
2.387160
 30
0.000000
 40
0.195000
  0
CIRCLE
  8
HUB
 62
     7
  6
CONTINUOUS
 10
3.707852
 20
3.221546
 30
0.000000
 40
0.166000
  0
CIRCLE
  8
HUB
 62
     7
  6
CONTINUOUS
 10
3.707852
 20
3.221546
 30
0.000000
 40
0.195000
  0
CIRCLE
  8
HUB
 62
     7
  6
CONTINUOUS
 10
3.362238
 20
4.055932
 30
0.000000
 40
0.166000
  0
CIRCLE
  8
HUB
 62
     7
  6
CONTINUOUS
 10
3.362238
 20
4.055932
 30
0.000000
 40
0.195000
  0
CIRCLE
  8
HUB
 62
     7
  6
CONTINUOUS
 10
2.527852
 20
3.221546
 30
0.000000
 40
1.650000
  0
POINT
  8
HUB
 62
     7
 10
8.364316
 20
3.221545
 30
0.000000
  0
POINT
  8
HUB
 62
     7
 10
8.364316
 20
3.221545
 30
0.000000
  0
LINE
  8
HUB
 62
     7
  6
CONTINUOUS
 10
7.614316
 20
3.930296
 30
0.000000
 11
7.564316
 21
3.880296
 31
0.000000
  0
LINE
  8
HUB
 62
     7
  6
CONTINUOUS
 10
7.614316
 20
2.512796
 30
0.000000
 11
7.564316
 21
2.562796
 31
0.000000
  0
LINE
  8
HUB
 62
     7
  6
CONTINUOUS
 10
7.864316
 20
2.512796
 30
0.000000
 11
7.614316
 21
2.512796
 31
0.000000
  0
LINE
  8
HUB
 62
     7
  6
CONTINUOUS
 10
7.864316
 20
3.930296
 30
0.000000
 11
7.614316
 21
3.930296
 31
0.000000
  0
LINE
  8
HUB
 62
     7
  6
CONTINUOUS
 10
7.864316
 20
4.544295
 30
0.000000
 11
8.564316
 21
4.544295
 31
0.000000
  0
LINE
  8
HUB
 62
     7
  6
CONTINUOUS
 10
7.864316
 20
4.258797
 30
0.000000
 11
8.564316
 21
4.258797
 31
0.000000
  0
LINE
  8
HUB
 62
     7
  6
CONTINUOUS
 10
8.614316
 20
4.401546
 30
0.000000
 11
8.564316
 21
4.544295
 31
0.000000
  0
LINE
  8
HUB
 62
     7
  6
CONTINUOUS
 10
8.564316
 20
4.544295
 30
0.000000
 11
8.564316
 21
4.258797
 31
0.000000
  0
LINE
  8
HUB
 62
     7
  6
CONTINUOUS
 10
8.564316
 20
4.258797
 30
0.000000
 11
8.614316
 21
4.401546
 31
0.000000
  0
LINE
  8
HUB
 62
     7
  6
CONTINUOUS
 10
8.084316
 20
4.104045
 30
0.000000
 11
8.084316
 21
3.745046
 31
0.000000
  0
LINE
  8
HUB
 62
     7
  6
CONTINUOUS
 10
7.864316
 20
4.104045
 30
0.000000
 11
8.084316
 21
4.104045
 31
0.000000
  0
LINE
  8
HUB
 62
     7
  6
CONTINUOUS
 10
7.564316
 20
3.745046
 30
0.000000
 11
8.084316
 21
3.745046
 31
0.000000
  0
LINE
  8
HUB
 62
     7
  6
CONTINUOUS
 10
7.864316
 20
1.898797
 30
0.000000
 11
8.564316
 21
1.898797
 31
0.000000
  0
LINE
  8
HUB
 62
     7
  6
CONTINUOUS
 10
7.864316
 20
2.184295
 30
0.000000
 11
8.564316
 21
2.184295
 31
0.000000
  0
LINE
  8
HUB
 62
     7
  6
CONTINUOUS
 10
8.614316
 20
2.041546
 30
0.000000
 11
8.564316
 21
1.898797
 31
0.000000
  0
LINE
  8
HUB
 62
     7
  6
CONTINUOUS
 10
8.564316
 20
1.898797
 30
0.000000
 11
8.564316
 21
2.184295
 31
0.000000
  0
LINE
  8
HUB
 62
     7
  6
CONTINUOUS
 10
8.564316
 20
2.184295
 30
0.000000
 11
8.614316
 21
2.041546
 31
0.000000
  0
LINE
  8
HUB
 62
     7
  6
CONTINUOUS
 10
8.084316
 20
2.339046
 30
0.000000
 11
8.084316
 21
2.698045
 31
0.000000
  0
LINE
  8
HUB
 62
     7
  6
CONTINUOUS
 10
7.864316
 20
2.339046
 30
0.000000
 11
8.084316
 21
2.339046
 31
0.000000
  0
LINE
  8
HUB
 62
     7
  6
CONTINUOUS
 10
7.564316
 20
2.698045
 30
0.000000
 11
8.084316
 21
2.698045
 31
0.000000
  0
LINE
  8
HUB
 62
     7
  6
CONTINUOUS
 10
7.864316
 20
3.930296
 30
0.000000
 11
7.864316
 21
4.851546
 31
0.000000
  0
LINE
  8
HUB
 62
     7
  6
CONTINUOUS
 10
7.864316
 20
4.851546
 30
0.000000
 11
7.884316
 21
4.871546
 31
0.000000
  0
LINE
  8
HUB
 62
     7
  6
CONTINUOUS
 10
7.864316
 20
2.512796
 30
0.000000
 11
7.864316
 21
1.591546
 31
0.000000
  0
LINE
  8
HUB
 62
     7
  6
CONTINUOUS
 10
7.864316
 20
1.591546
 30
0.000000
 11
7.884316
 21
1.571546
 31
0.000000
  0
LINE
  8
HUB
 62
     7
  6
CONTINUOUS
 10
8.764316
 20
4.346545
 30
0.000000
 11
8.764316
 21
4.851546
 31
0.000000
  0
LINE
  8
HUB
 62
     7
  6
CONTINUOUS
 10
7.884316
 20
4.871546
 30
0.000000
 11
8.744316
 21
4.871546
 31
0.000000
  0
LINE
  8
HUB
 62
     7
  6
CONTINUOUS
 10
8.764316
 20
4.851546
 30
0.000000
 11
8.744316
 21
4.871546
 31
0.000000
  0
LINE
  8
HUB
 62
     7
  6
CONTINUOUS
 10
8.764316
 20
2.096547
 30
0.000000
 11
8.764316
 21
1.591546
 31
0.000000
  0
LINE
  8
HUB
 62
     7
  6
CONTINUOUS
 10
7.884316
 20
1.571546
 30
0.000000
 11
8.744316
 21
1.571546
 31
0.000000
  0
LINE
  8
HUB
 62
     7
  6
CONTINUOUS
 10
8.764316
 20
1.591546
 30
0.000000
 11
8.744316
 21
1.571546
 31
0.000000
  0
LINE
  8
HUB
 62
     7
  6
CONTINUOUS
 10
9.694316
 20
4.167982
 30
0.000000
 11
8.319316
 21
4.021546
 31
0.000000
  0
LINE
  8
HUB
 62
     7
  6
CONTINUOUS
 10
8.319316
 20
4.021546
 30
0.000000
 11
8.319316
 21
3.221546
 31
0.000000
  0
LINE
  8
HUB
 62
     7
  6
CONTINUOUS
 10
9.694316
 20
2.275110
 30
0.000000
 11
8.319316
 21
2.421546
 31
0.000000
  0
LINE
  8
HUB
 62
     7
  6
CONTINUOUS
 10
8.319316
 20
2.421546
 30
0.000000
 11
8.319316
 21
3.221546
 31
0.000000
  0
LINE
  8
HUB
 62
     7
  6
CONTINUOUS
 10
9.694316
 20
4.167982
 30
0.000000
 11
9.694316
 21
2.275110
 31
0.000000
  0
LINE
  8
HUB
 62
     7
  6
CONTINUOUS
 10
8.084316
 20
4.026045
 30
0.000000
 11
8.361558
 21
4.026045
 31
0.000000
  0
LINE
  8
HUB
 62
     7
  6
CONTINUOUS
 10
8.084316
 20
3.823047
 30
0.000000
 11
8.319316
 21
3.823047
 31
0.000000
  0
LINE
  8
HUB
 62
     7
  6
CONTINUOUS
 10
8.084316
 20
2.620045
 30
0.000000
 11
8.319316
 21
2.620045
 31
0.000000
  0
LINE
  8
HUB
 62
     7
  6
CONTINUOUS
 10
8.084316
 20
2.417047
 30
0.000000
 11
8.361558
 21
2.417047
 31
0.000000
  0
LINE
  8
HUB
 62
     7
  6
CONTINUOUS
 10
9.694316
 20
2.275110
 30
0.000000
 11
9.694316
 21
2.116547
 31
0.000000
  0
LINE
  8
HUB
 62
     7
  6
CONTINUOUS
 10
9.674316
 20
2.096547
 30
0.000000
 11
9.694316
 21
2.116547
 31
0.000000
  0
LINE
  8
HUB
 62
     7
  6
CONTINUOUS
 10
9.694316
 20
4.167982
 30
0.000000
 11
9.694316
 21
4.326545
 31
0.000000
  0
LINE
  8
HUB
 62
     7
  6
CONTINUOUS
 10
9.694316
 20
4.326545
 30
0.000000
 11
9.674316
 21
4.346545
 31
0.000000
  0
LINE
  8
HUB
 62
     7
  6
CONTINUOUS
 10
8.764316
 20
4.346545
 30
0.000000
 11
9.674316
 21
4.346545
 31
0.000000
  0
LINE
  8
HUB
 62
     7
  6
CONTINUOUS
 10
8.764316
 20
2.096547
 30
0.000000
 11
9.674316
 21
2.096547
 31
0.000000
  0
ARC
  8
HUB
 62
     7
  6
CONTINUOUS
 10
2.527852
 20
3.221546
 30
0.000000
 40
0.708750
 50
104.602122
 51
135.397988
  0
ARC
  8
HUB
 62
     7
  6
CONTINUOUS
 10
2.527852
 20
3.221546
 30
0.000000
 40
0.708750
 50
164.602061
 51
195.397911
  0
ARC
  8
HUB
 62
     7
  6
CONTINUOUS
 10
2.527852
 20
3.221546
 30
0.000000
 40
0.708750
 50
224.602089
 51
255.397964
  0
ARC
  8
HUB
 62
     7
  6
CONTINUOUS
 10
2.527852
 20
3.221546
 30
0.000000
 40
0.708750
 50
284.602122
 51
315.397917
  0
ARC
  8
HUB
 62
     7
  6
CONTINUOUS
 10
2.527852
 20
3.221546
 30
0.000000
 40
0.708750
 50
344.602287
 51
375.398067
  0
ARC
  8
HUB
 62
     7
  6
CONTINUOUS
 10
2.527852
 20
3.221546
 30
0.000000
 40
0.708750
 50
44.602244
 51
75.397964
  0
LINE
  8
CENTER
 62
     7
  6
CONTINUOUS
 10
2.527852
 20
4.871546
 30
0.000000
 11
2.527852
 21
1.571546
 31
0.000000
  0
LINE
  8
CENTER
 62
     7
  6
CONTINUOUS
 10
4.177552
 20
3.190056
 30
0.000000
 11
0.878153
 21
3.190056
 31
0.000000
  0
LINE
  8
DIM
 62
     1
  6
CONTINUOUS
 10
4.176372
 20
4.870066
 30
0.000000
 11
4.003167
 21
4.970066
 31
0.000000
  0
LINE
  8
DIM
 62
     1
  6
CONTINUOUS
 10
4.176372
 20
4.870066
 30
0.000000
 11
4.076372
 21
5.043271
 31
0.000000
  0
LINE
  8
DIM
 62
     1
  6
CONTINUOUS
 10
2.527852
 20
5.552905
 30
0.000000
 11
2.721037
 21
5.604669
 31
0.000000
  0
LINE
  8
DIM
 62
     1
  6
CONTINUOUS
 10
2.527852
 20
5.552905
 30
0.000000
 11
2.721037
 21
5.501141
 31
0.000000
  0
LINE
  8
DIM
 62
     1
  6
CONTINUOUS
 10
3.411736
 20
4.105429
 30
0.000000
 11
4.211727
 21
4.905421
 31
0.000000
  0
LINE
  8
DIM
 62
     1
  6
CONTINUOUS
 10
2.527852
 20
4.471546
 30
0.000000
 11
2.527852
 21
5.602905
 31
0.000000
  0
TEXT
  8
DIM
 62
     1
 10
3.075484
 20
5.309938
 30
0.000000
 40
0.125000
  1
8X 45.0
  0
ARC
  8
DIM
 62
     1
  6
CONTINUOUS
 10
2.527852
 20
3.221546
 30
0.000000
 40
2.331359
 50
45.000000
 51
60.966524
  0
ARC
  8
DIM
 62
     1
  6
CONTINUOUS
 10
2.527852
 20
3.221546
 30
0.000000
 40
2.331359
 50
76.760881
 51
90.000000
  0
LINE
  8
DIM
 62
     1
  6
CONTINUOUS
 10
7.564316
 20
6.232512
 30
0.000000
 11
7.757501
 21
6.284275
 31
0.000000
  0
LINE
  8
DIM
 62
     1
  6
CONTINUOUS
 10
7.564316
 20
6.232512
 30
0.000000
 11
7.757501
 21
6.180748
 31
0.000000
  0
LINE
  8
DIM
 62
     1
  6
CONTINUOUS
 10
9.694316
 20
6.232512
 30
0.000000
 11
9.501131
 21
6.180748
 31
0.000000
  0
LINE
  8
DIM
 62
     1
  6
CONTINUOUS
 10
9.694316
 20
6.232512
 30
0.000000
 11
9.501131
 21
6.284275
 31
0.000000
  0
LINE
  8
DIM
 62
     1
  6
CONTINUOUS
 10
7.564316
 20
3.950296
 30
0.000000
 11
7.564316
 21
6.282512
 31
0.000000
  0
LINE
  8
DIM
 62
     1
  6
CONTINUOUS
 10
9.694316
 20
4.396545
 30
0.000000
 11
9.694316
 21
6.282512
 31
0.000000
  0
TEXT
  8
DIM
 62
     1
 10
8.471787
 20
6.166929
 30
0.000000
 40
0.125000
  1
2.13
  0
LINE
  8
DIM
 62
     1
  6
CONTINUOUS
 10
7.564316
 20
6.232512
 30
0.000000
 11
8.421787
 21
6.232512
 31
0.000000
  0
LINE
  8
DIM
 62
     1
  6
CONTINUOUS
 10
8.836844
 20
6.232512
 30
0.000000
 11
9.694316
 21
6.232512
 31
0.000000
  0
LINE
  8
DIM
 62
     1
  6
CONTINUOUS
 10
7.864316
 20
5.853925
 30
0.000000
 11
8.057501
 21
5.905688
 31
0.000000
  0
LINE
  8
DIM
 62
     1
  6
CONTINUOUS
 10
7.864316
 20
5.853925
 30
0.000000
 11
8.057501
 21
5.802161
 31
0.000000
  0
LINE
  8
DIM
 62
     1
  6
CONTINUOUS
 10
8.764316
 20
5.853925
 30
0.000000
 11
8.571131
 21
5.802161
 31
0.000000
  0
LINE
  8
DIM
 62
     1
  6
CONTINUOUS
 10
8.764316
 20
5.853925
 30
0.000000
 11
8.571131
 21
5.905688
 31
0.000000
  0
LINE
  8
DIM
 62
     1
  6
CONTINUOUS
 10
7.864316
 20
4.921546
 30
0.000000
 11
7.864316
 21
5.903925
 31
0.000000
  0
LINE
  8
DIM
 62
     1
  6
CONTINUOUS
 10
8.764316
 20
4.921546
 30
0.000000
 11
8.764316
 21
5.903925
 31
0.000000
  0
TEXT
  8
DIM
 62
     1
 10
8.181078
 20
5.769336
 30
0.000000
 40
0.125000
  1
.90
  0
LINE
  8
DIM
 62
     1
  6
CONTINUOUS
 10
7.864316
 20
5.853925
 30
0.000000
 11
8.131078
 21
5.853925
 31
0.000000
  0
LINE
  8
DIM
 62
     1
  6
CONTINUOUS
 10
8.497554
 20
5.853925
 30
0.000000
 11
8.764316
 21
5.853925
 31
0.000000
  0
LINE
  8
DIM
 62
     1
  6
CONTINUOUS
 10
7.564316
 20
5.490790
 30
0.000000
 11
7.371131
 21
5.439026
 31
0.000000
  0
LINE
  8
DIM
 62
     1
  6
CONTINUOUS
 10
7.564316
 20
5.490790
 30
0.000000
 11
7.371131
 21
5.542554
 31
0.000000
  0
LINE
  8
DIM
 62
     1
  6
CONTINUOUS
 10
7.864316
 20
5.490790
 30
0.000000
 11
8.057501
 21
5.542554
 31
0.000000
  0
LINE
  8
DIM
 62
     1
  6
CONTINUOUS
 10
7.864316
 20
5.490790
 30
0.000000
 11
8.057501
 21
5.439026
 31
0.000000
  0
LINE
  8
DIM
 62
     1
  6
CONTINUOUS
 10
7.564316
 20
3.950296
 30
0.000000
 11
7.564316
 21
5.540790
 31
0.000000
  0
LINE
  8
DIM
 62
     1
  6
CONTINUOUS
 10
7.864316
 20
4.921546
 30
0.000000
 11
7.864316
 21
5.540790
 31
0.000000
  0
TEXT
  8
DIM
 62
     1
 10
6.850308
 20
5.425438
 30
0.000000
 40
0.125000
  1
.30
  0
LINE
  8
DIM
 62
     1
  6
CONTINUOUS
 10
7.564316
 20
5.490790
 30
0.000000
 11
7.164316
 21
5.490790
 31
0.000000
  0
LINE
  8
DIM
 62
     1
  6
CONTINUOUS
 10
7.864316
 20
5.490790
 30
0.000000
 11
8.264316
 21
5.490790
 31
0.000000
  0
LINE
  8
DIM
 62
     1
  6
CONTINUOUS
 10
6.401109
 20
2.512796
 30
0.000000
 11
6.349346
 21
2.705981
 31
0.000000
  0
LINE
  8
DIM
 62
     1
  6
CONTINUOUS
 10
6.401109
 20
2.512796
 30
0.000000
 11
6.452873
 21
2.705981
 31
0.000000
  0
LINE
  8
DIM
 62
     1
  6
CONTINUOUS
 10
6.401109
 20
3.930296
 30
0.000000
 11
6.452873
 21
3.737111
 31
0.000000
  0
LINE
  8
DIM
 62
     1
  6
CONTINUOUS
 10
6.401109
 20
3.930296
 30
0.000000
 11
6.349346
 21
3.737111
 31
0.000000
  0
LINE
  8
DIM
 62
     1
  6
CONTINUOUS
 10
7.544316
 20
2.512796
 30
0.000000
 11
6.351109
 21
2.512796
 31
0.000000
  0
LINE
  8
DIM
 62
     1
  6
CONTINUOUS
 10
7.544316
 20
3.930296
 30
0.000000
 11
6.351109
 21
3.930296
 31
0.000000
  0
TEXT
  8
DIM
 62
     1
 10
5.943888
 20
3.156043
 30
0.000000
 40
0.125000
  1
1.418
  0
TEXT
  8
DIM
 62
     1
 10
6.350734
 20
3.271546
 30
0.000000
 40
0.125000
  1
+.000
  0
TEXT
  8
DIM
 62
     1
 10
6.350734
 20
3.040540
 30
0.000000
 40
0.125000
  1
-.002
  0
LINE
  8
DIM
 62
     1
  6
CONTINUOUS
 10
6.401109
 20
2.512796
 30
0.000000
 11
6.401109
 21
2.990691
 31
0.000000
  0
LINE
  8
DIM
 62
     1
  6
CONTINUOUS
 10
6.401109
 20
3.452401
 30
0.000000
 11
6.401109
 21
3.930296
 31
0.000000
  0
LINE
  8
DIM
 62
     1
  6
CONTINUOUS
 10
5.458505
 20
1.571546
 30
0.000000
 11
5.406741
 21
1.764731
 31
0.000000
  0
LINE
  8
DIM
 62
     1
  6
CONTINUOUS
 10
5.458505
 20
1.571546
 30
0.000000
 11
5.510269
 21
1.764731
 31
0.000000
  0
LINE
  8
DIM
 62
     1
  6
CONTINUOUS
 10
5.458505
 20
4.871546
 30
0.000000
 11
5.510269
 21
4.678361
 31
0.000000
  0
LINE
  8
DIM
 62
     1
  6
CONTINUOUS
 10
5.458505
 20
4.871546
 30
0.000000
 11
5.406741
 21
4.678361
 31
0.000000
  0
LINE
  8
DIM
 62
     1
  6
CONTINUOUS
 10
7.814316
 20
1.571546
 30
0.000000
 11
5.408505
 21
1.571546
 31
0.000000
  0
LINE
  8
DIM
 62
     1
  6
CONTINUOUS
 10
7.814316
 20
4.871546
 30
0.000000
 11
5.408505
 21
4.871546
 31
0.000000
  0
TEXT
  8
DIM
 62
     1
 10
5.272052
 20
3.156194
 30
0.000000
 40
0.125000
  1
3.30
  0
LINE
  8
DIM
 62
     1
  6
CONTINUOUS
 10
5.458505
 20
1.571546
 30
0.000000
 11
5.458505
 21
3.106194
 31
0.000000
  0
LINE
  8
DIM
 62
     1
  6
CONTINUOUS
 10
5.458505
 20
3.336898
 30
0.000000
 11
5.458505
 21
4.871546
 31
0.000000
  0
LINE
  8
DIM
 62
     1
  6
CONTINUOUS
 10
8.319316
 20
1.256930
 30
0.000000
 11
8.512501
 21
1.308694
 31
0.000000
  0
LINE
  8
DIM
 62
     1
  6
CONTINUOUS
 10
8.319316
 20
1.256930
 30
0.000000
 11
8.512501
 21
1.205167
 31
0.000000
  0
LINE
  8
DIM
 62
     1
  6
CONTINUOUS
 10
9.694316
 20
1.256930
 30
0.000000
 11
9.501131
 21
1.205167
 31
0.000000
  0
LINE
  8
DIM
 62
     1
  6
CONTINUOUS
 10
9.694316
 20
1.256930
 30
0.000000
 11
9.501131
 21
1.308694
 31
0.000000
  0
LINE
  8
DIM
 62
     1
  6
CONTINUOUS
 10
8.319316
 20
2.351546
 30
0.000000
 11
8.319316
 21
1.206930
 31
0.000000
  0
LINE
  8
DIM
 62
     1
  6
CONTINUOUS
 10
9.694316
 20
2.046547
 30
0.000000
 11
9.694316
 21
1.206930
 31
0.000000
  0
TEXT
  8
DIM
 62
     1
 10
8.792201
 20
1.192681
 30
0.000000
 40
0.125000
  1
1.375
  0
LINE
  8
DIM
 62
     1
  6
CONTINUOUS
 10
8.319316
 20
1.256930
 30
0.000000
 11
8.742201
 21
1.256930
 31
0.000000
  0
LINE
  8
DIM
 62
     1
  6
CONTINUOUS
 10
9.271431
 20
1.256930
 30
0.000000
 11
9.694316
 21
1.256930
 31
0.000000
  0
LINE
  8
DIM
 62
     1
  6
CONTINUOUS
 10
9.198099
 20
4.061633
 30
0.000000
 11
9.310414
 21
3.896148
 31
0.000000
  0
LINE
  8
DIM
 62
     1
  6
CONTINUOUS
 10
9.198099
 20
4.061633
 30
0.000000
 11
9.212624
 21
3.862161
 31
0.000000
  0
LINE
  8
DIM
 62
     1
  6
CONTINUOUS
 10
9.198099
 20
4.061633
 30
0.000000
 11
10.020958
 21
1.694025
 31
0.000000
  0
LINE
  8
DIM
 62
     1
  6
CONTINUOUS
 10
10.020958
 20
1.694025
 30
0.000000
 11
10.220958
 21
1.694025
 31
0.000000
  0
TEXT
  8
DIM
 62
     1
 10
10.320958
 20
1.631525
 30
0.000000
 40
0.125000
  1
NOTE B
  0
LINE
  8
DIM
 62
     1
  6
CONTINUOUS
 10
10.691684
 20
2.065056
 30
0.000000
 11
10.639920
 21
2.258242
 31
0.000000
  0
LINE
  8
DIM
 62
     1
  6
CONTINUOUS
 10
10.691684
 20
2.065056
 30
0.000000
 11
10.743448
 21
2.258242
 31
0.000000
  0
LINE
  8
DIM
 62
     1
  6
CONTINUOUS
 10
10.691684
 20
4.315055
 30
0.000000
 11
10.743448
 21
4.121870
 31
0.000000
  0
LINE
  8
DIM
 62
     1
  6
CONTINUOUS
 10
10.691684
 20
4.315055
 30
0.000000
 11
10.639920
 21
4.121870
 31
0.000000
  0
LINE
  8
DIM
 62
     1
  6
CONTINUOUS
 10
9.764316
 20
2.065056
 30
0.000000
 11
10.741684
 21
2.065056
 31
0.000000
  0
LINE
  8
DIM
 62
     1
  6
CONTINUOUS
 10
9.764316
 20
4.315055
 30
0.000000
 11
10.741684
 21
4.315055
 31
0.000000
  0
TEXT
  8
DIM
 62
     1
 10
10.521040
 20
3.124473
 30
0.000000
 40
0.125000
  1
2.25
  0
LINE
  8
DIM
 62
     1
  6
CONTINUOUS
 10
10.691684
 20
2.065056
 30
0.000000
 11
10.691684
 21
3.074473
 31
0.000000
  0
LINE
  8
DIM
 62
     1
  6
CONTINUOUS
 10
10.691684
 20
3.305638
 30
0.000000
 11
10.691684
 21
4.315055
 31
0.000000
  0
LINE
  8
DIM
 62
     1
  6
CONTINUOUS
 10
10.198227
 20
2.390055
 30
0.000000
 11
10.146463
 21
2.583240
 31
0.000000
  0
LINE
  8
DIM
 62
     1
  6
CONTINUOUS
 10
10.198227
 20
2.390055
 30
0.000000
 11
10.249990
 21
2.583240
 31
0.000000
  0
LINE
  8
DIM
 62
     1
  6
CONTINUOUS
 10
10.198227
 20
3.990056
 30
0.000000
 11
10.249990
 21
3.796871
 31
0.000000
  0
LINE
  8
DIM
 62
     1
  6
CONTINUOUS
 10
10.198227
 20
3.990056
 30
0.000000
 11
10.146463
 21
3.796871
 31
0.000000
  0
LINE
  8
DIM
 62
     1
  6
CONTINUOUS
 10
8.389316
 20
2.390055
 30
0.000000
 11
10.248227
 21
2.390055
 31
0.000000
  0
LINE
  8
DIM
 62
     1
  6
CONTINUOUS
 10
8.389316
 20
3.990056
 30
0.000000
 11
10.248227
 21
3.990056
 31
0.000000
  0
TEXT
  8
DIM
 62
     1
 10
9.964878
 20
3.124704
 30
0.000000
 40
0.125000
  1
1.600
  0
LINE
  8
DIM
 62
     1
  6
CONTINUOUS
 10
10.198227
 20
2.390055
 30
0.000000
 11
10.198227
 21
3.074704
 31
0.000000
  0
LINE
  8
DIM
 62
     1
  6
CONTINUOUS
 10
10.198227
 20
3.305408
 30
0.000000
 11
10.198227
 21
3.990056
 31
0.000000
  0
LINE
  8
DIM
 62
     1
  6
CONTINUOUS
 10
9.073358
 20
2.815056
 30
0.000000
 11
9.021595
 21
3.008241
 31
0.000000
  0
LINE
  8
DIM
 62
     1
  6
CONTINUOUS
 10
9.073358
 20
2.815056
 30
0.000000
 11
9.125122
 21
3.008241
 31
0.000000
  0
LINE
  8
DIM
 62
     1
  6
CONTINUOUS
 10
9.073358
 20
3.565056
 30
0.000000
 11
9.125122
 21
3.371870
 31
0.000000
  0
LINE
  8
DIM
 62
     1
  6
CONTINUOUS
 10
9.073358
 20
3.565056
 30
0.000000
 11
9.021595
 21
3.371870
 31
0.000000
  0
LINE
  8
DIM
 62
     1
  6
CONTINUOUS
 10
8.362563
 20
2.815056
 30
0.000000
 11
9.123358
 21
2.815056
 31
0.000000
  0
LINE
  8
DIM
 62
     1
  6
CONTINUOUS
 10
8.362563
 20
3.565056
 30
0.000000
 11
9.123358
 21
3.565056
 31
0.000000
  0
TEXT
  8
DIM
 62
     1
 10
8.952363
 20
3.126119
 30
0.000000
 40
0.125000
  1
.75
  0
LINE
  8
DIM
 62
     1
  6
CONTINUOUS
 10
9.073358
 20
2.815056
 30
0.000000
 11
9.073358
 21
3.076119
 31
0.000000
  0
LINE
  8
DIM
 62
     1
  6
CONTINUOUS
 10
9.073358
 20
3.303992
 30
0.000000
 11
9.073358
 21
3.565056
 31
0.000000
  0
TEXT
  8
DIM
 62
     7
 10
11.338422
 20
6.173877
 30
0.000000
 40
0.125000
  1
NOTE B - 2.500 TPF
  0
TEXT
  8
DIM
 62
     7
 10
6.933895
 20
7.732287
 30
0.000000
 40
0.125000
  1
ELECTRO AUTOMOTIVE
  0
TEXT
  8
DIM
 62
     7
 10
6.933895
 20
7.544787
 30
0.000000
 40
0.125000
  1
P.O. BOX 1113 FELTON CA. 95018-1113
  0
LINE
  8
DIM
 62
     7
  6
CONTINUOUS
 10
6.801148
 20
7.969782
 30
0.000000
 11
10.367599
 21
7.969782
 31
0.000000
  0
LINE
  8
DIM
 62
     7
  6
CONTINUOUS
 10
10.367599
 20
7.969782
 30
0.000000
 11
10.367599
 21
7.069798
 31
0.000000
  0
LINE
  8
DIM
 62
     7
  6
CONTINUOUS
 10
10.367599
 20
7.069798
 30
0.000000
 11
6.801148
 21
7.069798
 31
0.000000
  0
LINE
  8
DIM
 62
     7
  6
CONTINUOUS
 10
6.801148
 20
7.069798
 30
0.000000
 11
6.801148
 21
7.969782
 31
0.000000
  0
TEXT
  8
DIM
 62
     7
 10
6.933895
 20
7.357286
 30
0.000000
 40
0.125000
  1
PHONE 831-429-1989 FAX 831-429-1907
  0
TEXT
  8
DIM
 62
     7
 10
6.933895
 20
7.169787
 30
0.000000
 40
0.125000
  1
DRAWN BY DAN SULLIVAN
  0
TEXT
  8
DIM
 62
     7
 10
11.215594
 20
7.740975
 30
0.000000
 40
0.125000
  1
HUB, 2000 TOYOTA COROLLA
  0
TEXT
  8
DIM
 62
     7
 10
11.215594
 20
7.365976
 30
0.000000
 40
0.125000
  1
3/13/09   REV A
  0
LINE
  8
DIM
 62
     1
  6
CONTINUOUS
 10
3.244249
 20
2.712444
 30
0.000000
 11
3.389660
 21
2.575128
 31
0.000000
  0
LINE
  8
DIM
 62
     1
  6
CONTINUOUS
 10
3.244249
 20
2.712444
 30
0.000000
 11
3.301520
 21
2.520820
 31
0.000000
  0
LINE
  8
DIM
 62
     1
  6
CONTINUOUS
 10
3.244249
 20
2.712444
 30
0.000000
 11
3.881774
 21
1.677774
 31
0.000000
  0
LINE
  8
DIM
 62
     1
  6
CONTINUOUS
 10
3.881774
 20
1.677774
 30
0.000000
 11
4.081774
 21
1.677774
 31
0.000000
  0
TEXT
  8
DIM
 62
     1
 10
4.181774
 20
1.615274
 30
0.000000
 40
0.125000
  1
NOTE A
  0
LINE
  8
DIM
 62
     1
  6
CONTINUOUS
 10
2.410798
 20
4.566296
 30
0.000000
 11
2.289866
 21
4.725592
 31
0.000000
  0
LINE
  8
DIM
 62
     1
  6
CONTINUOUS
 10
2.410798
 20
4.566296
 30
0.000000
 11
2.385716
 21
4.764717
 31
0.000000
  0
LINE
  8
DIM
 62
     1
  6
CONTINUOUS
 10
2.410798
 20
4.566296
 30
0.000000
 11
2.088760
 21
5.355248
 31
0.000000
  0
LINE
  8
DIM
 62
     1
  6
CONTINUOUS
 10
2.088760
 20
5.355248
 30
0.000000
 11
1.888760
 21
5.355248
 31
0.000000
  0
TEXT
  8
DIM
 62
     1
 10
1.150532
 20
5.292748
 30
0.000000
 40
0.125000
  1
NOTE C
  0
CIRCLE
  8
CENTER
 62
     7
  6
CONTINUOUS
 10
13.145003
 20
3.221546
 30
0.000000
 40
0.703001
  0
CIRCLE
  8
HUB
 62
     7
  6
CONTINUOUS
 10
13.145003
 20
3.221546
 30
0.000000
 40
0.375000
  0
CIRCLE
  8
HUB
 62
     7
  6
CONTINUOUS
 10
12.536186
 20
3.573046
 30
0.000000
 40
0.101500
  0
CIRCLE
  8
HUB
 62
     7
  6
CONTINUOUS
 10
12.536187
 20
2.870046
 30
0.000000
 40
0.101500
  0
CIRCLE
  8
HUB
 62
     7
  6
CONTINUOUS
 10
13.145003
 20
2.518546
 30
0.000000
 40
0.101499
  0
CIRCLE
  8
HUB
 62
     7
  6
CONTINUOUS
 10
13.753818
 20
2.870048
 30
0.000000
 40
0.101500
  0
CIRCLE
  8
HUB
 62
     7
  6
CONTINUOUS
 10
13.753818
 20
3.573048
 30
0.000000
 40
0.101500
  0
CIRCLE
  8
HUB
 62
     7
  6
CONTINUOUS
 10
13.145002
 20
3.924546
 30
0.000000
 40
0.101499
  0
CIRCLE
  8
HUB
 62
     7
  6
CONTINUOUS
 10
13.145003
 20
3.221546
 30
0.000000
 40
0.946436
  0
CIRCLE
  8
HUB
 62
     7
  6
CONTINUOUS
 10
13.145003
 20
3.221546
 30
0.000000
 40
1.124999
  0
CIRCLE
  8
HUB
 62
     7
  6
CONTINUOUS
 10
13.145003
 20
3.221546
 30
0.000000
 40
0.800000
  0
CIRCLE
  8
HUB
 62
     7
  6
CONTINUOUS
 10
13.145003
 20
3.221546
 30
0.000000
 40
1.650000
  0
LINE
  8
CENTER
 62
     7
  6
CONTINUOUS
 10
13.145003
 20
4.871546
 30
0.000000
 11
13.145003
 21
1.571546
 31
0.000000
  0
LINE
  8
CENTER
 62
     7
  6
CONTINUOUS
 10
14.795003
 20
3.221546
 30
0.000000
 11
11.495003
 21
3.221546
 31
0.000000
  0
LINE
  8
HUB
 62
     1
  6
CONTINUOUS
 10
7.552841
 20
3.943015
 30
0.000000
 11
7.385714
 21
4.052871
 31
0.000000
  0
LINE
  8
HUB
 62
     1
  6
CONTINUOUS
 10
7.552841
 20
3.943015
 30
0.000000
 11
7.463033
 21
4.121717
 31
0.000000
  0
LINE
  8
HUB
 62
     1
  6
CONTINUOUS
 10
7.552841
 20
3.943015
 30
0.000000
 11
7.148221
 21
4.397434
 31
0.000000
  0
LINE
  8
HUB
 62
     1
  6
CONTINUOUS
 10
7.148221
 20
4.397434
 30
0.000000
 11
6.948221
 21
4.397434
 31
0.000000
  0
TEXT
  8
HUB
 62
     1
 10
6.016484
 20
4.334934
 30
0.000000
 40
0.125000
  1
.03 X .03
  0
LINE
  8
HUB
 62
     1
  6
CONTINUOUS
 10
1.798234
 20
4.957004
 30
0.000000
 11
1.598234
 21
4.957004
 31
0.000000
  0
LINE
  8
HUB
 62
     1
  6
CONTINUOUS
 10
2.070531
 20
4.309322
 30
0.000000
 11
2.193120
 21
4.151297
 31
0.000000
  0
LINE
  8
HUB
 62
     1
  6
CONTINUOUS
 10
2.070531
 20
4.309322
 30
0.000000
 11
2.097684
 21
4.111174
 31
0.000000
  0
LINE
  8
HUB
 62
     1
  6
CONTINUOUS
 10
2.985173
 20
2.133769
 30
0.000000
 11
2.862584
 21
2.291795
 31
0.000000
  0
LINE
  8
HUB
 62
     1
  6
CONTINUOUS
 10
2.985173
 20
2.133769
 30
0.000000
 11
2.958020
 21
2.331918
 31
0.000000
  0
TEXT
  8
HUB
 62
     1
 10
0.754238
 20
4.891422
 30
0.000000
 40
0.125000
  1
BC 2.360
  0
LINE
  8
HUB
 62
     1
  6
CONTINUOUS
 10
2.985173
 20
2.133769
 30
0.000000
 11
1.798234
 21
4.957004
 31
0.000000
  0
TEXT
  8
DIM
 62
     7
 10
11.317428
 20
5.816057
 30
0.000000
 40
0.125000
  1
NOTE C - 8X DRILL & TAP
  0
TEXT
  8
DIM
 62
     7
 10
11.317428
 20
5.628556
 30
0.000000
 40
0.125000
  1
       10mm - 1.25
  0
TEXT
  8
DIM
 62
     7
 10
11.317428
 20
5.441056
 30
0.000000
 40
0.125000
  1
X .70 DEEP EQ. SPC. ON BC.
  0
TEXT
  8
DIM
 62
     7
 10
11.322455
 20
6.902075
 30
0.000000
 40
0.125000
  1
NOTE A - 6X DRILL 13/64 (.203) THRU, 
  0
TEXT
  8
DIM
 62
     7
 10
11.322455
 20
6.714575
 30
0.000000
 40
0.125000
  1
CB 23/64 (.359) X .52 DEEP ON
  0
TEXT
  8
DIM
 62
     7
 10
11.322455
 20
6.527076
 30
0.000000
 40
0.125000
  1
BC 1 13/32 (1.406). EQ SPC.
  0
LINE
  8
HUB
 62
     7
  6
CONTINUOUS
 10
7.564316
 20
3.596546
 30
0.000000
 11
7.564316
 21
2.846546
 31
0.000000
  0
LINE
  8
HUB
 62
     7
  6
CONTINUOUS
 10
7.564316
 20
3.880296
 30
0.000000
 11
7.564316
 21
3.696546
 31
0.000000
  0
LINE
  8
HUB
 62
     7
  6
CONTINUOUS
 10
8.319316
 20
3.596546
 30
0.000000
 11
7.664316
 21
3.596546
 31
0.000000
  0
LINE
  8
HUB
 62
     7
  6
CONTINUOUS
 10
7.564316
 20
3.696546
 30
0.000000
 11
7.664316
 21
3.596546
 31
0.000000
  0
LINE
  8
HUB
 62
     7
  6
CONTINUOUS
 10
8.319316
 20
2.846546
 30
0.000000
 11
7.664316
 21
2.846546
 31
0.000000
  0
LINE
  8
HUB
 62
     7
  6
CONTINUOUS
 10
7.564316
 20
2.562796
 30
0.000000
 11
7.564316
 21
2.746546
 31
0.000000
  0
LINE
  8
HUB
 62
     7
  6
CONTINUOUS
 10
7.664316
 20
2.846546
 30
0.000000
 11
7.564316
 21
2.746546
 31
0.000000
  0
LINE
  8
HUB
 62
     7
  6
CONTINUOUS
 10
7.564316
 20
3.596546
 30
0.000000
 11
7.564316
 21
3.696546
 31
0.000000
  0
LINE
  8
HUB
 62
     7
  6
CONTINUOUS
 10
7.564316
 20
2.846546
 30
0.000000
 11
7.564316
 21
2.746546
 31
0.000000
  0
LINE
  8
HUB
 62
     7
  6
CONTINUOUS
 10
7.664316
 20
3.596546
 30
0.000000
 11
7.664316
 21
2.846546
 31
0.000000
  0
CIRCLE
  8
HUB
 62
     7
  6
CONTINUOUS
 10
2.527852
 20
3.221546
 30
0.000000
 40
0.475000
  0
LINE
  8
DIM
 62
     1
  6
CONTINUOUS
 10
7.598450
 20
3.588079
 30
0.000000
 11
7.580590
 21
3.388878
 31
0.000000
  0
LINE
  8
DIM
 62
     1
  6
CONTINUOUS
 10
7.598450
 20
3.588079
 30
0.000000
 11
7.483382
 21
3.424496
 31
0.000000
  0
LINE
  8
DIM
 62
     1
  6
CONTINUOUS
 10
7.598450
 20
3.588079
 30
0.000000
 11
7.044934
 21
2.077443
 31
0.000000
  0
LINE
  8
DIM
 62
     1
  6
CONTINUOUS
 10
7.044934
 20
2.077443
 30
0.000000
 11
6.844934
 21
2.077443
 31
0.000000
  0
TEXT
  8
DIM
 62
     1
 10
5.988177
 20
2.014943
 30
0.000000
 40
0.125000
  1
.10 X .10
  0
ENDSEC
  0
EOF
