  0
SECTION
  2
HEADER
  9
$ACADVER
  1
AC1015
  9
$ACADMAINTVER
 70
     6
  9
$DWGCODEPAGE
  3
ANSI_1252
  9
$INSBASE
 10
0.0
 20
0.0
 30
0.0
  9
$EXTMIN
 10
1.000000000000000E+20
 20
1.000000000000000E+20
 30
1.000000000000000E+20
  9
$EXTMAX
 10
-1.000000000000000E+20
 20
-1.000000000000000E+20
 30
-1.000000000000000E+20
  9
$LIMMIN
 10
0.0
 20
0.0
  9
$LIMMAX
 10
12.0
 20
9.0
  9
$ORTHOMODE
 70
     0
  9
$REGENMODE
 70
     1
  9
$FILLMODE
 70
     1
  9
$QTEXTMODE
 70
     0
  9
$MIRRTEXT
 70
     1
  9
$LTSCALE
 40
1.0
  9
$ATTMODE
 70
     1
  9
$TEXTSIZE
 40
0.2
  9
$TRACEWID
 40
0.05
  9
$TEXTSTYLE
  7
Standard
  9
$CLAYER
  8
0
  9
$CELTYPE
  6
ByLayer
  9
$CECOLOR
 62
   256
  9
$CELTSCALE
 40
1.0
  9
$DISPSILH
 70
     0
  9
$DIMSCALE
 40
1.0
  9
$DIMASZ
 40
0.18
  9
$DIMEXO
 40
0.0625
  9
$DIMDLI
 40
0.38
  9
$DIMRND
 40
0.0
  9
$DIMDLE
 40
0.0
  9
$DIMEXE
 40
0.18
  9
$DIMTP
 40
0.0
  9
$DIMTM
 40
0.0
  9
$DIMTXT
 40
0.18
  9
$DIMCEN
 40
0.09
  9
$DIMTSZ
 40
0.0
  9
$DIMTOL
 70
     0
  9
$DIMLIM
 70
     0
  9
$DIMTIH
 70
     1
  9
$DIMTOH
 70
     1
  9
$DIMSE1
 70
     0
  9
$DIMSE2
 70
     0
  9
$DIMTAD
 70
     0
  9
$DIMZIN
 70
     0
  9
$DIMBLK
  1

  9
$DIMASO
 70
     1
  9
$DIMSHO
 70
     1
  9
$DIMPOST
  1

  9
$DIMAPOST
  1

  9
$DIMALT
 70
     0
  9
$DIMALTD
 70
     2
  9
$DIMALTF
 40
25.4
  9
$DIMLFAC
 40
1.0
  9
$DIMTOFL
 70
     0
  9
$DIMTVP
 40
0.0
  9
$DIMTIX
 70
     0
  9
$DIMSOXD
 70
     0
  9
$DIMSAH
 70
     0
  9
$DIMBLK1
  1

  9
$DIMBLK2
  1

  9
$DIMSTYLE
  2
Standard
  9
$DIMCLRD
 70
     0
  9
$DIMCLRE
 70
     0
  9
$DIMCLRT
 70
     0
  9
$DIMTFAC
 40
1.0
  9
$DIMGAP
 40
0.09
  9
$DIMJUST
 70
     0
  9
$DIMSD1
 70
     0
  9
$DIMSD2
 70
     0
  9
$DIMTOLJ
 70
     1
  9
$DIMTZIN
 70
     0
  9
$DIMALTZ
 70
     0
  9
$DIMALTTZ
 70
     0
  9
$DIMUPT
 70
     0
  9
$DIMDEC
 70
     4
  9
$DIMTDEC
 70
     4
  9
$DIMALTU
 70
     2
  9
$DIMALTTD
 70
     2
  9
$DIMTXSTY
  7
Standard
  9
$DIMAUNIT
 70
     0
  9
$DIMADEC
 70
     0
  9
$DIMALTRND
 40
0.0
  9
$DIMAZIN
 70
     0
  9
$DIMDSEP
 70
    46
  9
$DIMATFIT
 70
     3
  9
$DIMFRAC
 70
     0
  9
$DIMLDRBLK
  1

  9
$DIMLUNIT
 70
     2
  9
$DIMLWD
 70
    -2
  9
$DIMLWE
 70
    -2
  9
$DIMTMOVE
 70
     0
  9
$LUNITS
 70
     2
  9
$LUPREC
 70
     2
  9
$SKETCHINC
 40
0.1
  9
$FILLETRAD
 40
0.5
  9
$AUNITS
 70
     0
  9
$AUPREC
 70
     0
  9
$MENU
  1
.
  9
$ELEVATION
 40
0.0
  9
$PELEVATION
 40
0.0
  9
$THICKNESS
 40
0.0
  9
$LIMCHECK
 70
     0
  9
$CHAMFERA
 40
0.5
  9
$CHAMFERB
 40
0.5
  9
$CHAMFERC
 40
1.0
  9
$CHAMFERD
 40
0.0
  9
$SKPOLY
 70
     0
  9
$TDCREATE
 40
2454911.579097581
  9
$TDUCREATE
 40
2454911.870764248
  9
$TDUPDATE
 40
2454911.579097593
  9
$TDUUPDATE
 40
2454911.870764259
  9
$TDINDWG
 40
0.0000000116
  9
$TDUSRTIMER
 40
0.0000000116
  9
$USRTIMER
 70
     1
  9
$ANGBASE
 50
0.0
  9
$ANGDIR
 70
     0
  9
$PDMODE
 70
     2
  9
$PDSIZE
 40
-2.0
  9
$PLINEWID
 40
0.0
  9
$SPLFRAME
 70
     0
  9
$SPLINETYPE
 70
     6
  9
$SPLINESEGS
 70
     8
  9
$HANDSEED
  5
26B
  9
$SURFTAB1
 70
     6
  9
$SURFTAB2
 70
     6
  9
$SURFTYPE
 70
     6
  9
$SURFU
 70
     6
  9
$SURFV
 70
     6
  9
$UCSBASE
  2

  9
$UCSNAME
  2

  9
$UCSORG
 10
0.0
 20
0.0
 30
0.0
  9
$UCSXDIR
 10
1.0
 20
0.0
 30
0.0
  9
$UCSYDIR
 10
0.0
 20
1.0
 30
0.0
  9
$UCSORTHOREF
  2

  9
$UCSORTHOVIEW
 70
     0
  9
$UCSORGTOP
 10
0.0
 20
0.0
 30
0.0
  9
$UCSORGBOTTOM
 10
0.0
 20
0.0
 30
0.0
  9
$UCSORGLEFT
 10
0.0
 20
0.0
 30
0.0
  9
$UCSORGRIGHT
 10
0.0
 20
0.0
 30
0.0
  9
$UCSORGFRONT
 10
0.0
 20
0.0
 30
0.0
  9
$UCSORGBACK
 10
0.0
 20
0.0
 30
0.0
  9
$PUCSBASE
  2

  9
$PUCSNAME
  2

  9
$PUCSORG
 10
0.0
 20
0.0
 30
0.0
  9
$PUCSXDIR
 10
1.0
 20
0.0
 30
0.0
  9
$PUCSYDIR
 10
0.0
 20
1.0
 30
0.0
  9
$PUCSORTHOREF
  2

  9
$PUCSORTHOVIEW
 70
     0
  9
$PUCSORGTOP
 10
0.0
 20
0.0
 30
0.0
  9
$PUCSORGBOTTOM
 10
0.0
 20
0.0
 30
0.0
  9
$PUCSORGLEFT
 10
0.0
 20
0.0
 30
0.0
  9
$PUCSORGRIGHT
 10
0.0
 20
0.0
 30
0.0
  9
$PUCSORGFRONT
 10
0.0
 20
0.0
 30
0.0
  9
$PUCSORGBACK
 10
0.0
 20
0.0
 30
0.0
  9
$USERI1
 70
     0
  9
$USERI2
 70
     0
  9
$USERI3
 70
     0
  9
$USERI4
 70
     0
  9
$USERI5
 70
     0
  9
$USERR1
 40
0.0
  9
$USERR2
 40
0.0
  9
$USERR3
 40
0.0
  9
$USERR4
 40
0.0
  9
$USERR5
 40
0.0
  9
$WORLDVIEW
 70
     1
  9
$SHADEDGE
 70
     3
  9
$SHADEDIF
 70
    70
  9
$TILEMODE
 70
     1
  9
$MAXACTVP
 70
    64
  9
$PINSBASE
 10
0.0
 20
0.0
 30
0.0
  9
$PLIMCHECK
 70
     0
  9
$PEXTMIN
 10
1.000000000000000E+20
 20
1.000000000000000E+20
 30
1.000000000000000E+20
  9
$PEXTMAX
 10
-1.000000000000000E+20
 20
-1.000000000000000E+20
 30
-1.000000000000000E+20
  9
$PLIMMIN
 10
0.0
 20
0.0
  9
$PLIMMAX
 10
12.0
 20
9.0
  9
$UNITMODE
 70
     0
  9
$VISRETAIN
 70
     1
  9
$PLINEGEN
 70
     0
  9
$PSLTSCALE
 70
     1
  9
$TREEDEPTH
 70
  3020
  9
$CMLSTYLE
  2
Standard
  9
$CMLJUST
 70
     0
  9
$CMLSCALE
 40
1.0
  9
$PROXYGRAPHICS
 70
     1
  9
$MEASUREMENT
 70
     0
  9
$CELWEIGHT
370
    -1
  9
$ENDCAPS
280
     0
  9
$JOINSTYLE
280
     0
  9
$LWDISPLAY
290
     1
  9
$INSUNITS
 70
     1
  9
$HYPERLINKBASE
  1

  9
$STYLESHEET
  1

  9
$XEDIT
290
     1
  9
$CEPSNTYPE
380
     0
  9
$PSTYLEMODE
290
     1
  9
$FINGERPRINTGUID
  2
{FAEB1C30-E019-11D5-929B-00C0DF256EC4}
  9
$VERSIONGUID
  2
{FAEB1C32-E019-11D5-929B-00C0DF256EC4}
  9
$EXTNAMES
290
     1
  9
$PSVPSCALE
 40
0.0
  9
$OLESTARTUP
290
     0
  0
ENDSEC
  0
SECTION
  2
CLASSES
  0
CLASS
  1
ACDBDICTIONARYWDFLT
  2
AcDbDictionaryWithDefault
  3
ObjectDBX Classes
 90
        0
280
     0
281
     0
  0
CLASS
  1
ACDBPLACEHOLDER
  2
AcDbPlaceHolder
  3
ObjectDBX Classes
 90
        0
280
     0
281
     0
  0
CLASS
  1
LAYOUT
  2
AcDbLayout
  3
ObjectDBX Classes
 90
        0
280
     0
281
     0
  0
ENDSEC
  0
SECTION
  2
TABLES
  0
TABLE
  2
VPORT
  5
8
330
0
100
AcDbSymbolTable
 70
     1
  0
VPORT
  5
29
330
8
100
AcDbSymbolTableRecord
100
AcDbViewportTableRecord
  2
*Active
 70
     0
 10
0.0
 20
0.0
 11
1.0
 21
1.0
 12
10.42990654205607
 22
4.5
 13
0.0
 23
0.0
 14
0.5
 24
0.5
 15
0.5
 25
0.5
 16
0.0
 26
0.0
 36
1.0
 17
0.0
 27
0.0
 37
0.0
 40
9.0
 41
1.972972972850329
 42
50.0
 43
0.0
 44
0.0
 50
0.0
 51
0.0
 71
     0
 72
   100
 73
     1
 74
     3
 75
     0
 76
     0
 77
     0
 78
     0
281
     0
 65
     1
110
0.0
120
0.0
130
0.0
111
1.0
121
0.0
131
0.0
112
0.0
122
1.0
132
0.0
 79
     0
146
0.0
  0
ENDTAB
  0
TABLE
  2
LTYPE
  5
5
330
0
100
AcDbSymbolTable
 70
     2
  0
LTYPE
  5
14
330
5
100
AcDbSymbolTableRecord
100
AcDbLinetypeTableRecord
  2
ByBlock
 70
     0
  3

 72
    65
 73
     0
 40
0.0
  0
LTYPE
  5
15
330
5
100
AcDbSymbolTableRecord
100
AcDbLinetypeTableRecord
  2
ByLayer
 70
     0
  3

 72
    65
 73
     0
 40
0.0
  0
LTYPE
  5
16
330
5
100
AcDbSymbolTableRecord
100
AcDbLinetypeTableRecord
  2
Continuous
 70
     0
  3
Solid line
 72
    65
 73
     0
 40
0.0
  0
LTYPE
  5
37
330
5
100
AcDbSymbolTableRecord
100
AcDbLinetypeTableRecord
  2
GC   6
 70
     0
  3
_____  _  __________  _  _____
 72
    65
 73
     4
 40
0.5
 49
0.3
 74
     0
 49
-0.075
 74
     0
 49
0.05
 74
     0
 49
-0.075
 74
     0
  0
ENDTAB
  0
TABLE
  2
LAYER
  5
2
330
0
100
AcDbSymbolTable
 70
     5
  0
LAYER
  5
10
330
2
100
AcDbSymbolTableRecord
100
AcDbLayerTableRecord
  2
0
 70
     0
 62
     7
  6
Continuous
370
    -3
390
F
  0
LAYER
  5
2B
330
2
100
AcDbSymbolTableRecord
100
AcDbLayerTableRecord
  2
PLATE
 70
     0
 62
     7
  6
Continuous
370
    -3
390
F
  0
LAYER
  5
36
330
2
100
AcDbSymbolTableRecord
100
AcDbLayerTableRecord
  2
CENTER
 70
     0
 62
     7
  6
Continuous
370
    -3
390
F
  0
LAYER
  5
7E
330
2
100
AcDbSymbolTableRecord
100
AcDbLayerTableRecord
  2
ADAPTER PLT SIDE
 70
     0
 62
     7
  6
Continuous
370
    -3
390
F
  0
LAYER
  5
9B
330
2
100
AcDbSymbolTableRecord
100
AcDbLayerTableRecord
  2
DIM
 70
     0
 62
     7
  6
Continuous
370
    -3
390
F
  0
ENDTAB
  0
TABLE
  2
STYLE
  5
3
330
0
100
AcDbSymbolTable
 70
     4
  0
STYLE
  5
11
330
3
100
AcDbSymbolTableRecord
100
AcDbTextStyleTableRecord
  2
Standard
 70
     0
 40
0.0
 41
1.0
 50
0.0
 71
     0
 42
0.2
  3
txt
  4

  0
STYLE
  5
A2
330
3
100
AcDbSymbolTableRecord
100
AcDbTextStyleTableRecord
  2
AEC_TECH
 70
     0
 40
0.2
 41
1.0
 50
0.0
 71
     0
 42
0.2
  3
AEC_TECH.SHX
  4

1001
ACAD
1000
AEC_TECH
1071
       34
  0
STYLE
  5
16E
330
3
100
AcDbSymbolTableRecord
100
AcDbTextStyleTableRecord
  2
MAIN
 70
     0
 40
0.2
 41
1.0
 50
0.0
 71
     0
 42
0.2
  3
MAIN.SHX
  4

1001
ACAD
1000
MAIN
1071
       34
  0
STYLE
  5
1BF
330
3
100
AcDbSymbolTableRecord
100
AcDbTextStyleTableRecord
  2
ENGINEER
 70
     0
 40
0.2
 41
1.0
 50
0.0
 71
     0
 42
0.2
  3
ENGINEER.SHX
  4

1001
ACAD
1000
ENGINEER
1071
       34
  0
ENDTAB
  0
TABLE
  2
VIEW
  5
6
330
0
100
AcDbSymbolTable
 70
     0
  0
ENDTAB
  0
TABLE
  2
UCS
  5
7
330
0
100
AcDbSymbolTable
 70
     0
  0
ENDTAB
  0
TABLE
  2
APPID
  5
9
330
0
100
AcDbSymbolTable
 70
     1
  0
APPID
  5
12
330
9
100
AcDbSymbolTableRecord
100
AcDbRegAppTableRecord
  2
ACAD
 70
     0
  0
ENDTAB
  0
TABLE
  2
DIMSTYLE
  5
A
330
0
100
AcDbSymbolTable
 70
     1
100
AcDbDimStyleTable
  0
DIMSTYLE
105
27
330
A
100
AcDbSymbolTableRecord
100
AcDbDimStyleTableRecord
  2
Standard
 70
     0
340
11
  0
ENDTAB
  0
TABLE
  2
BLOCK_RECORD
  5
1
330
0
100
AcDbSymbolTable
 70
     1
  0
BLOCK_RECORD
  5
1F
330
1
100
AcDbSymbolTableRecord
100
AcDbBlockTableRecord
  2
*Model_Space
340
22
  0
BLOCK_RECORD
  5
1B
330
1
100
AcDbSymbolTableRecord
100
AcDbBlockTableRecord
  2
*Paper_Space
340
1E
  0
BLOCK_RECORD
  5
23
330
1
100
AcDbSymbolTableRecord
100
AcDbBlockTableRecord
  2
*Paper_Space0
340
26
  0
ENDTAB
  0
ENDSEC
  0
SECTION
  2
BLOCKS
  0
BLOCK
  5
20
330
1F
100
AcDbEntity
  8
0
100
AcDbBlockBegin
  2
*Model_Space
 70
     0
 71
     0
 10
0.0
 20
0.0
 30
0.0
  3
*Model_Space
  1

  0
ENDBLK
  5
21
330
1F
100
AcDbEntity
  8
0
100
AcDbBlockEnd
  0
BLOCK
  5
1C
330
1B
100
AcDbEntity
 67
     1
  8
0
100
AcDbBlockBegin
  2
*Paper_Space
 70
     0
 71
     0
 10
0.0
 20
0.0
 30
0.0
  3
*Paper_Space
  1

  0
ENDBLK
  5
1D
330
1B
100
AcDbEntity
 67
     1
  8
0
100
AcDbBlockEnd
  0
BLOCK
  5
24
330
23
100
AcDbEntity
  8
0
100
AcDbBlockBegin
  2
*Paper_Space0
 70
     0
 71
     0
 10
0.0
 20
0.0
 30
0.0
  3
*Paper_Space0
  1

  0
ENDBLK
  5
25
330
23
100
AcDbEntity
  8
0
100
AcDbBlockEnd
  0
ENDSEC
  0
SECTION
  2
ENTITIES
  0
CIRCLE
  5
2A
330
1F
100
AcDbEntity
  8
PLATE
  6
Continuous
 62
    93
370
    18
100
AcDbCircle
 10
13.85776420588235
 20
10.0715294117647
 30
0.0
 40
4.25
  0
CIRCLE
  5
2C
330
1F
100
AcDbEntity
  8
PLATE
  6
Continuous
 62
    93
370
    18
100
AcDbCircle
 10
13.85776420588235
 20
13.6965294117647
 30
0.0
 40
0.2656002044677734
  0
CIRCLE
  5
2D
330
1F
100
AcDbEntity
  8
PLATE
  6
Continuous
 62
    93
370
    18
100
AcDbCircle
 10
11.29450212408112
 20
12.63479149356594
 30
0.0
 40
0.2656002044677754
  0
CIRCLE
  5
2E
330
1F
100
AcDbEntity
  8
PLATE
  6
Continuous
 62
    93
370
    18
100
AcDbCircle
 10
10.23276420588235
 20
10.0715294117647
 30
0.0
 40
0.2656002044677734
  0
CIRCLE
  5
2F
330
1F
100
AcDbEntity
  8
PLATE
  6
Continuous
 62
    93
370
    18
100
AcDbCircle
 10
11.29450212408112
 20
7.508267329963466
 30
0.0
 40
0.2656002044677741
  0
CIRCLE
  5
30
330
1F
100
AcDbEntity
  8
PLATE
  6
Continuous
 62
    93
370
    18
100
AcDbCircle
 10
13.85776420588235
 20
6.446529411764701
 30
0.0
 40
0.2656002044677734
  0
CIRCLE
  5
31
330
1F
100
AcDbEntity
  8
PLATE
  6
Continuous
 62
    93
370
    18
100
AcDbCircle
 10
16.42102628768359
 20
7.508267329963465
 30
0.0
 40
0.2656002044677741
  0
CIRCLE
  5
32
330
1F
100
AcDbEntity
  8
PLATE
  6
Continuous
 62
    93
370
    18
100
AcDbCircle
 10
17.48276420588235
 20
10.0715294117647
 30
0.0
 40
0.2656002044677734
  0
CIRCLE
  5
33
330
1F
100
AcDbEntity
  8
PLATE
  6
Continuous
 62
    93
370
    18
100
AcDbCircle
 10
16.42102628768359
 20
12.63479149356594
 30
0.0
 40
0.2656002044677754
  0
CIRCLE
  5
34
330
1F
100
AcDbEntity
  8
PLATE
  6
Continuous
 62
    93
370
    18
100
AcDbCircle
 10
13.85776420588235
 20
10.0715294117647
 30
0.0
 40
2.999999999999999
  0
LINE
  5
35
330
1F
100
AcDbEntity
  8
CENTER
  6
GC   6
 62
     5
 48
1.890677294017163
370
    18
100
AcDbLine
 10
13.85776420588235
 20
10.0715294117647
 30
0.0
 11
21.42047338194872
 21
10.07153529585135
 31
0.0
  0
LINE
  5
38
330
1F
100
AcDbEntity
  8
CENTER
  6
GC   6
 62
     5
 48
1.902438641390017
370
    18
100
AcDbLine
 10
13.85776420588235
 20
10.0715294117647
 30
0.0
 11
13.85776420588235
 21
17.68128397732477
 31
0.0
  0
LINE
  5
39
330
1F
100
AcDbEntity
  8
CENTER
  6
GC   6
 62
     5
 48
1.691410282227316
370
    18
100
AcDbLine
 10
13.85776420588235
 20
10.0715294117647
 30
0.0
 11
13.85776420588235
 21
3.305888282855438
 31
0.0
  0
CIRCLE
  5
3A
330
1F
100
AcDbEntity
  8
PLATE
  6
Continuous
 62
    93
370
    18
100
AcDbCircle
 10
19.54504947093746
 20
12.03891214930643
 30
0.0
 40
0.2100000000000008
  0
CIRCLE
  5
3B
330
1F
100
AcDbEntity
  8
PLATE
  6
Continuous
 62
    93
370
    18
100
AcDbCircle
 10
19.59638833415209
 20
8.54950357748524
 30
0.0
 40
0.2899999999999992
  0
CIRCLE
  5
3C
330
1F
100
AcDbEntity
  8
PLATE
  6
Continuous
 62
    93
370
    18
100
AcDbCircle
 10
18.80214954977662
 20
6.673272520487259
 30
0.0
 40
0.2100000000000009
  0
CIRCLE
  5
3D
330
1F
100
AcDbEntity
  8
PLATE
  6
Continuous
 62
    93
370
    18
100
AcDbCircle
 10
11.41699399260046
 20
4.208607613855605
 30
0.0
 40
0.2100000000000009
  0
CIRCLE
  5
3E
330
1F
100
AcDbEntity
  8
PLATE
  6
Continuous
 62
    93
370
    18
100
AcDbCircle
 10
7.749859332493458
 20
9.817549332551529
 30
0.0
 40
0.2100000000000009
  0
CIRCLE
  5
3F
330
1F
100
AcDbEntity
  8
PLATE
  6
Continuous
 62
    93
370
    18
100
AcDbCircle
 10
8.33089140336107
 20
12.66066261264625
 30
0.0
 40
0.2100000000000009
  0
CIRCLE
  5
40
330
1F
100
AcDbEntity
  8
PLATE
  6
Continuous
 62
    93
370
    18
100
AcDbCircle
 10
12.43215763150959
 20
16.15031420833225
 30
0.0
 40
0.2899999999999992
  0
CIRCLE
  5
41
330
1F
100
AcDbEntity
  8
PLATE
  6
Continuous
 62
    93
370
    18
100
AcDbCircle
 10
14.80191464870686
 20
16.95990917055445
 30
0.0
 40
0.2899999999999992
  0
CIRCLE
  5
42
330
1F
100
AcDbEntity
  8
PLATE
  6
Continuous
 62
    93
370
    18
100
AcDbCircle
 10
9.665103133201217
 20
15.61143538957605
 30
0.0
 40
0.2899999999999992
  0
CIRCLE
  5
43
330
1F
100
AcDbEntity
  8
PLATE
  6
Continuous
 62
    93
370
    18
100
AcDbCircle
 10
16.8453812706091
 20
15.69267299975144
 30
0.0
 40
0.2399999999999984
  0
LINE
  5
44
330
1F
100
AcDbEntity
  8
CENTER
  6
GC   6
 62
     5
 48
2.681335232826265
370
    18
100
AcDbLine
 10
13.85776420588235
 20
10.0715294117647
 30
0.0
 11
3.132423274577295
 21
10.0715294117647
 31
0.0
  0
CIRCLE
  5
45
330
1F
100
AcDbEntity
  8
PLATE
  6
Continuous
 62
     3
370
    18
100
AcDbCircle
 10
16.21066566652605
 20
15.89424763517147
 30
0.0
 40
0.1980000000000004
  0
CIRCLE
  5
46
330
1F
100
AcDbEntity
  8
PLATE
  6
Continuous
 62
     3
370
    18
100
AcDbCircle
 10
8.011941600678268
 20
8.992458940004575
 30
0.0
 40
0.1980000000000004
  0
CIRCLE
  5
47
330
1F
100
AcDbEntity
  8
PLATE
  6
Continuous
 62
    93
370
    18
100
AcDbCircle
 10
-8.217917656727764
 20
13.6965294117647
 30
0.0
 40
0.2656002044677734
  0
CIRCLE
  5
48
330
1F
100
AcDbEntity
  8
PLATE
  6
Continuous
 62
    93
370
    18
100
AcDbCircle
 10
-5.654655574926529
 20
12.63479149356594
 30
0.0
 40
0.2656002044677754
  0
CIRCLE
  5
49
330
1F
100
AcDbEntity
  8
PLATE
  6
Continuous
 62
    93
370
    18
100
AcDbCircle
 10
-4.592917656727763
 20
10.0715294117647
 30
0.0
 40
0.2656002044677734
  0
CIRCLE
  5
4A
330
1F
100
AcDbEntity
  8
PLATE
  6
Continuous
 62
    93
370
    18
100
AcDbCircle
 10
-5.654655574926529
 20
7.508267329963468
 30
0.0
 40
0.2656002044677741
  0
CIRCLE
  5
4B
330
1F
100
AcDbEntity
  8
PLATE
  6
Continuous
 62
    93
370
    18
100
AcDbCircle
 10
-8.217917656727764
 20
6.446529411764702
 30
0.0
 40
0.2656002044677734
  0
CIRCLE
  5
4C
330
1F
100
AcDbEntity
  8
PLATE
  6
Continuous
 62
    93
370
    18
100
AcDbCircle
 10
-10.781179738529
 20
7.508267329963466
 30
0.0
 40
0.2656002044677741
  0
CIRCLE
  5
4D
330
1F
100
AcDbEntity
  8
PLATE
  6
Continuous
 62
    93
370
    18
100
AcDbCircle
 10
-11.84291765672776
 20
10.0715294117647
 30
0.0
 40
0.2656002044677734
  0
CIRCLE
  5
4E
330
1F
100
AcDbEntity
  8
PLATE
  6
Continuous
 62
    93
370
    18
100
AcDbCircle
 10
-10.781179738529
 20
12.63479149356594
 30
0.0
 40
0.2656002044677754
  0
CIRCLE
  5
4F
330
1F
100
AcDbEntity
  8
PLATE
  6
Continuous
 62
    93
370
    18
100
AcDbCircle
 10
-8.217917656727764
 20
10.0715294117647
 30
0.0
 40
2.999999999999999
  0
LINE
  5
50
330
1F
100
AcDbEntity
  8
CENTER
  6
GC   6
 62
     5
 48
1.890677294017163
370
    18
100
AcDbLine
 10
-8.217917656727764
 20
10.0715294117647
 30
0.0
 11
-15.78062683279413
 21
10.07153529585135
 31
0.0
  0
LINE
  5
51
330
1F
100
AcDbEntity
  8
CENTER
  6
GC   6
 62
     5
 48
1.902438641390016
370
    18
100
AcDbLine
 10
-8.217917656727764
 20
10.0715294117647
 30
0.0
 11
-8.217917656727764
 21
17.68128397732477
 31
0.0
  0
LINE
  5
52
330
1F
100
AcDbEntity
  8
CENTER
  6
GC   6
 62
     5
 48
1.691410282227316
370
    18
100
AcDbLine
 10
-8.217917656727764
 20
10.0715294117647
 30
0.0
 11
-8.217917656727764
 21
3.30588828285544
 31
0.0
  0
CIRCLE
  5
53
330
1F
100
AcDbEntity
  8
PLATE
  6
Continuous
 62
    93
370
    18
100
AcDbCircle
 10
-13.90520292178287
 20
12.03891214930643
 30
0.0
 40
0.2100000000000008
  0
CIRCLE
  5
54
330
1F
100
AcDbEntity
  8
PLATE
  6
Continuous
 62
    93
370
    18
100
AcDbCircle
 10
-13.9565417849975
 20
8.549503577485242
 30
0.0
 40
0.2899999999999992
  0
CIRCLE
  5
55
330
1F
100
AcDbEntity
  8
PLATE
  6
Continuous
 62
    93
370
    18
100
AcDbCircle
 10
-13.16230300062203
 20
6.673272520487262
 30
0.0
 40
0.2100000000000009
  0
CIRCLE
  5
56
330
1F
100
AcDbEntity
  8
PLATE
  6
Continuous
 62
    93
370
    18
100
AcDbCircle
 10
-5.777147443445865
 20
4.208607613855607
 30
0.0
 40
0.2100000000000009
  0
CIRCLE
  5
57
330
1F
100
AcDbEntity
  8
PLATE
  6
Continuous
 62
    93
370
    18
100
AcDbCircle
 10
-2.110012783338867
 20
9.817549332551531
 30
0.0
 40
0.2100000000000009
  0
CIRCLE
  5
58
330
1F
100
AcDbEntity
  8
PLATE
  6
Continuous
 62
    93
370
    18
100
AcDbCircle
 10
-2.691044854206479
 20
12.66066261264625
 30
0.0
 40
0.2100000000000009
  0
CIRCLE
  5
59
330
1F
100
AcDbEntity
  8
PLATE
  6
Continuous
 62
    93
370
    18
100
AcDbCircle
 10
-6.792311082354998
 20
16.15031420833225
 30
0.0
 40
0.2899999999999992
  0
CIRCLE
  5
5A
330
1F
100
AcDbEntity
  8
PLATE
  6
Continuous
 62
    93
370
    18
100
AcDbCircle
 10
-9.162068099552272
 20
16.95990917055445
 30
0.0
 40
0.2899999999999992
  0
CIRCLE
  5
5B
330
1F
100
AcDbEntity
  8
PLATE
  6
Continuous
 62
    93
370
    18
100
AcDbCircle
 10
-4.025256584046626
 20
15.61143538957605
 30
0.0
 40
0.2899999999999992
  0
CIRCLE
  5
5C
330
1F
100
AcDbEntity
  8
PLATE
  6
Continuous
 62
    93
370
    18
100
AcDbCircle
 10
-11.2055347214545
 20
15.69267299975145
 30
0.0
 40
0.2399999999999984
  0
LINE
  5
5D
330
1F
100
AcDbEntity
  8
CENTER
  6
GC   6
 62
     5
 48
2.681335232826265
370
    18
100
AcDbLine
 10
-8.217917656727764
 20
10.0715294117647
 30
0.0
 11
2.507423274577296
 21
10.0715294117647
 31
0.0
  0
CIRCLE
  5
5E
330
1F
100
AcDbEntity
  8
PLATE
  6
Continuous
 62
     3
370
    18
100
AcDbCircle
 10
-10.57081911737145
 20
15.89424763517147
 30
0.0
 40
0.1980000000000004
  0
CIRCLE
  5
5F
330
1F
100
AcDbEntity
  8
PLATE
  6
Continuous
 62
     3
370
    18
100
AcDbCircle
 10
-2.372095051523677
 20
8.992458940004577
 30
0.0
 40
0.1980000000000004
  0
LINE
  5
60
330
1F
100
AcDbEntity
  8
PLATE
  6
Continuous
 62
    93
370
    18
100
AcDbLine
 10
-1.725660806832773
 20
8.627846998937807
 30
0.0
 11
-1.725660806832772
 21
14.91390270525746
 31
0.0
  0
ARC
  5
61
330
1F
100
AcDbEntity
  8
PLATE
  6
Continuous
 62
    93
370
    18
100
AcDbCircle
 10
-2.475660806832777
 20
14.91390270525746
 30
0.0
 40
0.7500000000000053
100
AcDbArc
 50
0.0000000000001357
 51
74.47588900324531
  0
LINE
  5
62
330
1F
100
AcDbEntity
  8
PLATE
  6
Continuous
 62
    93
370
    18
100
AcDbLine
 10
-8.827159162833617
 20
17.45660537465781
 30
0.0
 11
-2.2749279089932
 21
15.63654113747992
 31
0.0
  0
ARC
  5
63
330
1F
100
AcDbEntity
  8
PLATE
  6
Continuous
 62
    93
370
    18
100
AcDbCircle
 10
-9.027892060673199
 20
16.73396694243531
 30
0.0
 40
0.7500000000000421
100
AcDbArc
 50
74.47588900324573
 51
90.0
  0
LINE
  5
64
330
1F
100
AcDbEntity
  8
PLATE
  6
Continuous
 62
    93
370
    18
100
AcDbLine
 10
-11.49741302626111
 20
17.48396694243536
 30
0.0
 11
-9.027892060673189
 21
17.48396694243536
 31
0.0
  0
ARC
  5
65
330
1F
100
AcDbEntity
  8
PLATE
  6
Continuous
 62
    93
370
    18
100
AcDbCircle
 10
-11.49741302626112
 20
16.73396694243536
 30
0.0
 40
0.7499999999999965
100
AcDbArc
 50
90.0
 51
135.0
  0
LINE
  5
66
330
1F
100
AcDbEntity
  8
PLATE
  6
Continuous
 62
    93
370
    18
100
AcDbLine
 10
-12.02774311215103
 20
17.26429702832527
 30
0.0
 11
-15.38840328393085
 21
13.90363685654544
 31
0.0
  0
ARC
  5
67
330
1F
100
AcDbEntity
  8
PLATE
  6
Continuous
 62
    93
370
    18
100
AcDbCircle
 10
-14.85807319804095
 20
13.37330677065554
 30
0.0
 40
0.7499999999999922
100
AcDbArc
 50
134.9999999999999
 51
180.0000000000004
  0
LINE
  5
68
330
1F
100
AcDbEntity
  8
PLATE
  6
Continuous
 62
    93
370
    18
100
AcDbLine
 10
-15.60807319804094
 20
13.37330677065553
 30
0.0
 11
-15.60807319804094
 21
8.738507170717627
 31
0.0
  0
ARC
  5
69
330
1F
100
AcDbEntity
  8
PLATE
  6
Continuous
 62
    93
370
    18
100
AcDbCircle
 10
-14.85807319804095
 20
8.738507170717622
 30
0.0
 40
0.7499999999999929
100
AcDbArc
 50
179.9999999999996
 51
225.0000000000001
  0
LINE
  5
6A
330
1F
100
AcDbEntity
  8
PLATE
  6
Continuous
 62
    93
370
    18
100
AcDbLine
 10
-15.38840328393085
 20
8.208177084827716
 30
0.0
 11
-11.02774311215103
 21
3.847516913047897
 31
0.0
  0
ARC
  5
6B
330
1F
100
AcDbEntity
  8
PLATE
  6
Continuous
 62
    93
370
    18
100
AcDbCircle
 10
-10.49741302626112
 20
4.37784699893779
 30
0.0
 40
0.7499999999999857
100
AcDbArc
 50
224.9999999999992
 51
270.0
  0
LINE
  5
6C
330
1F
100
AcDbEntity
  8
PLATE
  6
Continuous
 62
    93
370
    18
100
AcDbLine
 10
-10.49741302626112
 20
3.627846998937807
 30
0.0
 11
-5.897679914919228
 21
3.627846998937807
 31
0.0
  0
LINE
  5
6D
330
1F
100
AcDbEntity
  8
PLATE
  6
Continuous
 62
    93
370
    18
100
AcDbLine
 10
-3.258012849271379
 20
6.61159431151859
 30
0.0
 11
-5.3005582693269
 21
3.924034548287638
 31
0.0
  0
ARC
  5
6E
330
1F
100
AcDbEntity
  8
PLATE
  6
Continuous
 62
    93
370
    18
100
AcDbCircle
 10
-5.897679914919228
 20
4.377846998937808
 30
0.0
 40
0.7500000000000013
100
AcDbArc
 50
270.0
 51
322.7651660184253
  0
CIRCLE
  5
6F
330
1F
100
AcDbEntity
  8
PLATE
  6
Continuous
 62
    93
370
    18
100
AcDbCircle
 10
-8.217917656727764
 20
10.0715294117647
 30
0.0
 40
5.5
  0
CIRCLE
  5
70
330
1F
100
AcDbEntity
  8
PLATE
  6
Continuous
 62
    93
370
    18
100
AcDbCircle
 10
-8.217917656727764
 20
10.0715294117647
 30
0.0
 40
4.35
  0
LINE
  5
71
330
1F
100
AcDbEntity
  8
PLATE
  6
Continuous
 62
    93
370
    18
100
AcDbLine
 10
7.365507355987363
 20
8.627846998937805
 30
0.0
 11
7.365507355987363
 21
15.48396694243535
 31
0.0
  0
LINE
  5
72
330
1F
100
AcDbEntity
  8
PLATE
  6
Continuous
 62
    93
370
    18
100
AcDbLine
 10
14.56550735598736
 20
17.48396694243535
 30
0.0
 11
7.365507355987363
 21
15.48396694243535
 31
0.0
  0
LINE
  5
73
330
1F
100
AcDbEntity
  8
PLATE
  6
Continuous
 62
    93
370
    18
100
AcDbLine
 10
17.44791974719553
 20
17.48396694243535
 30
0.0
 11
14.56550735598736
 21
17.48396694243535
 31
0.0
  0
LINE
  5
74
330
1F
100
AcDbEntity
  8
PLATE
  6
Continuous
 62
    93
370
    18
100
AcDbLine
 10
17.44791974719553
 20
17.48396694243535
 30
0.0
 11
21.24791974719553
 21
13.68396694243535
 31
0.0
  0
LINE
  5
75
330
1F
100
AcDbEntity
  8
PLATE
  6
Continuous
 62
    93
370
    18
100
AcDbLine
 10
21.24791974719553
 20
13.68396694243535
 30
0.0
 11
21.24791974719553
 21
8.427846998937802
 31
0.0
  0
LINE
  5
76
330
1F
100
AcDbEntity
  8
PLATE
  6
Continuous
 62
    93
370
    18
100
AcDbLine
 10
21.24791974719553
 20
8.427846998937802
 30
0.0
 11
16.44791974719553
 21
3.627846998937805
 31
0.0
  0
LINE
  5
77
330
1F
100
AcDbEntity
  8
PLATE
  6
Continuous
 62
    93
370
    18
100
AcDbLine
 10
8.897859398425968
 20
6.611594311518589
 30
0.0
 11
11.16550735598736
 21
3.627846998937805
 31
0.0
  0
LINE
  5
78
330
1F
100
AcDbEntity
  8
PLATE
  6
Continuous
 62
    93
370
    18
100
AcDbLine
 10
16.44791974719553
 20
3.627846998937805
 30
0.0
 11
11.16550735598736
 21
3.627846998937805
 31
0.0
  0
ARC
  5
79
330
1F
100
AcDbEntity
  8
PLATE
  6
Continuous
 62
    93
370
    18
100
AcDbCircle
 10
7.320002767268625
 20
6.87686483666753
 30
0.0
 40
1.599999999999999
100
AcDbArc
 50
350.4566328166677
 51
88.37026719554626
  0
LINE
  5
7A
330
1F
100
AcDbEntity
  8
PLATE
  6
Continuous
 62
    93
370
    18
100
AcDbLine
 10
7.365507355987363
 20
8.627846998937805
 30
0.0
 11
7.365507355987363
 21
8.476217622142181
 31
0.0
  0
CIRCLE
  5
7B
330
1F
100
AcDbEntity
  8
CENTER
  6
GC   6
 62
   173
 48
5.694136684631499
370
    18
100
AcDbCircle
 10
13.85776420588235
 20
10.0715294117647
 30
0.0
 40
3.624999999999999
  0
CIRCLE
  5
7C
330
1F
100
AcDbEntity
  8
CENTER
  6
GC   6
 62
   173
 48
5.694136684631499
370
    18
100
AcDbCircle
 10
-8.217917656727764
 20
10.0715294117647
 30
0.0
 40
3.624999999999999
  0
LINE
  5
7D
330
1F
100
AcDbEntity
  8
ADAPTER PLT SIDE
  6
Continuous
 62
    93
370
    18
100
AcDbLine
 10
3.753903642521372
 20
14.3215294117647
 30
0.0
 11
3.628903642521372
 21
14.3215294117647
 31
0.0
  0
LINE
  5
7F
330
1F
100
AcDbEntity
  8
ADAPTER PLT SIDE
  6
Continuous
 62
    93
370
    18
100
AcDbLine
 10
3.753903642521372
 20
5.821529888601861
 30
0.0
 11
3.628903642521372
 21
5.821529888601861
 31
0.0
  0
LINE
  5
80
330
1F
100
AcDbEntity
  8
ADAPTER PLT SIDE
  6
Continuous
 62
    93
370
    18
100
AcDbLine
 10
3.628903642521372
 20
5.821529888601861
 30
0.0
 11
3.628903642521372
 21
14.3215294117647
 31
0.0
  0
LINE
  5
81
330
1F
100
AcDbEntity
  8
ADAPTER PLT SIDE
  6
Continuous
 62
    93
370
    18
100
AcDbLine
 10
3.328903642521372
 20
15.5715294117647
 30
0.0
 11
3.128903642521372
 21
15.5715294117647
 31
0.0
  0
LINE
  5
82
330
1F
100
AcDbEntity
  8
ADAPTER PLT SIDE
  6
GC   6
 62
   173
 48
0.15625
370
    18
100
AcDbLine
 10
3.753903642521372
 20
10.0715294117647
 30
0.0
 11
3.128903642521372
 21
10.0715294117647
 31
0.0
  0
LINE
  5
83
330
1F
100
AcDbEntity
  8
ADAPTER PLT SIDE
  6
Continuous
 62
    93
370
    18
100
AcDbLine
 10
3.753903642521374
 20
3.627846998937805
 30
0.0
 11
3.128903642521372
 21
3.627846998937805
 31
0.0
  0
LINE
  5
84
330
1F
100
AcDbEntity
  8
ADAPTER PLT SIDE
  6
Continuous
 62
    93
370
    18
100
AcDbLine
 10
3.753903642521372
 20
17.48396694243535
 30
0.0
 11
3.753903642521372
 21
3.627846998937805
 31
0.0
  0
LINE
  5
85
330
1F
100
AcDbEntity
  8
ADAPTER PLT SIDE
  6
Continuous
 62
    93
370
    18
100
AcDbLine
 10
3.128903642521372
 20
3.627846998937805
 30
0.0
 11
3.128903642521372
 21
17.48396694243535
 31
0.0
  0
LINE
  5
86
330
1F
100
AcDbEntity
  8
ADAPTER PLT SIDE
  6
Continuous
 62
    93
370
    18
100
AcDbLine
 10
3.753903642521374
 20
17.48396694243535
 30
0.0
 11
3.128903642521372
 21
17.48396694243535
 31
0.0
  0
LINE
  5
87
330
1F
100
AcDbEntity
  8
ADAPTER PLT SIDE
  6
Continuous
 62
    93
370
    18
100
AcDbLine
 10
3.128903642521372
 20
15.5715294117647
 30
0.0
 11
3.406903642521373
 21
15.5715294117647
 31
0.0
  0
LINE
  5
88
330
1F
100
AcDbEntity
  8
ADAPTER PLT SIDE
  6
Continuous
 62
    93
370
    18
100
AcDbLine
 10
3.406903642521373
 20
15.5715294117647
 30
0.0
 11
3.406903642521373
 21
14.4215294117647
 31
0.0
  0
LINE
  5
89
330
1F
100
AcDbEntity
  8
ADAPTER PLT SIDE
  6
Continuous
 62
    93
370
    18
100
AcDbLine
 10
3.406903642521373
 20
14.4215294117647
 30
0.0
 11
3.128903642521372
 21
14.4215294117647
 31
0.0
  0
LINE
  5
8A
330
1F
100
AcDbEntity
  8
ADAPTER PLT SIDE
  6
Continuous
 62
    93
370
    18
100
AcDbLine
 10
3.628903642521372
 20
13.96212770888384
 30
0.0
 11
3.128903642521372
 21
13.96212770888384
 31
0.0
  0
LINE
  5
8B
330
1F
100
AcDbEntity
  8
ADAPTER PLT SIDE
  6
Continuous
 62
    93
370
    18
100
AcDbLine
 10
3.628903642521372
 20
13.43092729994829
 30
0.0
 11
3.128903642521372
 21
13.43092729994829
 31
0.0
  0
LINE
  5
8C
330
1F
100
AcDbEntity
  8
ADAPTER PLT SIDE
  6
Continuous
 62
    93
370
    18
100
AcDbLine
 10
3.628903642521372
 20
13.0715294117647
 30
0.0
 11
3.128903642521372
 21
13.0715294117647
 31
0.0
  0
LINE
  5
8D
330
1F
100
AcDbEntity
  8
ADAPTER PLT SIDE
  6
Continuous
 62
    93
370
    18
100
AcDbLine
 10
3.328903642521372
 20
4.571529411764701
 30
0.0
 11
3.128903642521372
 21
4.571529411764701
 31
0.0
  0
LINE
  5
8E
330
1F
100
AcDbEntity
  8
ADAPTER PLT SIDE
  6
Continuous
 62
    93
370
    18
100
AcDbLine
 10
3.128903642521372
 20
4.571529411764701
 30
0.0
 11
3.406903642521371
 21
4.571529411764701
 31
0.0
  0
LINE
  5
8F
330
1F
100
AcDbEntity
  8
ADAPTER PLT SIDE
  6
Continuous
 62
    93
370
    18
100
AcDbLine
 10
3.406903642521371
 20
4.571529411764701
 30
0.0
 11
3.406903642521371
 21
5.721529411764699
 31
0.0
  0
LINE
  5
90
330
1F
100
AcDbEntity
  8
ADAPTER PLT SIDE
  6
Continuous
 62
    93
370
    18
100
AcDbLine
 10
3.406903642521371
 20
5.721529411764699
 30
0.0
 11
3.128903642521372
 21
5.721529411764699
 31
0.0
  0
LINE
  5
91
330
1F
100
AcDbEntity
  8
ADAPTER PLT SIDE
  6
Continuous
 62
    93
370
    18
100
AcDbLine
 10
3.628903642521372
 20
6.18093111464556
 30
0.0
 11
3.128903642521372
 21
6.18093111464556
 31
0.0
  0
LINE
  5
92
330
1F
100
AcDbEntity
  8
ADAPTER PLT SIDE
  6
Continuous
 62
    93
370
    18
100
AcDbLine
 10
3.628903642521372
 20
6.712131523581107
 30
0.0
 11
3.128903642521372
 21
6.712131523581107
 31
0.0
  0
LINE
  5
93
330
1F
100
AcDbEntity
  8
ADAPTER PLT SIDE
  6
Continuous
 62
    93
370
    18
100
AcDbLine
 10
3.628903642521372
 20
7.071529411764701
 30
0.0
 11
3.128903642521372
 21
7.071529411764701
 31
0.0
  0
HATCH
  5
94
330
1F
100
AcDbEntity
  8
ADAPTER PLT SIDE
  6
Continuous
 62
    93
370
    18
100
AcDbHatch
 10
0.0
 20
0.0
 30
0.0
210
0.0
220
0.0
230
1.0
  2
ANSI31
 70
     0
 71
     0
 91
        1
 92
        3
 72
     0
 73
     1
 93
       10
 10
3.128903642521372
 20
17.48396694243535
 10
3.128903642521372
 20
15.5715294117647
 10
3.406903642521373
 20
15.5715294117647
 10
3.406903642521373
 20
14.4215294117647
 10
3.128903642521372
 20
14.4215294117647
 10
3.128903642521372
 20
13.96212770888384
 10
3.628903642521372
 20
13.96212770888384
 10
3.628903642521372
 20
14.3215294117647
 10
3.753903642521372
 20
14.3215294117647
 10
3.753903642521374
 20
17.48396694243535
 97
        0
 75
     0
 76
     2
 52
90.0
 41
1.0
 77
     0
 78
     1
 53
135.0
 43
0.0
 44
0.0
 45
-0.0883883476483184
 46
-0.0883883476483184
 79
     1
 49
10000.0
 98
        0
  0
HATCH
  5
95
330
1F
100
AcDbEntity
  8
ADAPTER PLT SIDE
  6
Continuous
 62
    93
370
    18
100
AcDbHatch
 10
0.0
 20
0.0
 30
0.0
210
0.0
220
0.0
230
1.0
  2
ANSI31
 70
     0
 71
     0
 91
        1
 92
        3
 72
     0
 73
     1
 93
        4
 10
3.128903642521372
 20
13.43092729994829
 10
3.128903642521372
 20
13.0715294117647
 10
3.628903642521372
 20
13.0715294117647
 10
3.628903642521372
 20
13.43092729994829
 97
        0
 75
     0
 76
     2
 52
90.0
 41
1.0
 77
     0
 78
     1
 53
135.0
 43
0.0
 44
0.0
 45
-0.0883883476483184
 46
-0.0883883476483184
 79
     1
 49
10000.0
 98
        0
  0
HATCH
  5
96
330
1F
100
AcDbEntity
  8
ADAPTER PLT SIDE
  6
Continuous
 62
    93
370
    18
100
AcDbHatch
 10
0.0
 20
0.0
 30
0.0
210
0.0
220
0.0
230
1.0
  2
ANSI31
 70
     0
 71
     0
 91
        1
 92
        3
 72
     0
 73
     1
 93
        4
 10
3.128903642521372
 20
7.071529411764701
 10
3.128903642521372
 20
6.712131523581107
 10
3.628903642521372
 20
6.712131523581107
 10
3.628903642521372
 20
7.071529411764701
 97
        0
 75
     0
 76
     2
 52
90.0
 41
1.0
 77
     0
 78
     1
 53
135.0
 43
0.0
 44
0.0
 45
-0.0883883476483184
 46
-0.0883883476483184
 79
     1
 49
10000.0
 98
        0
  0
HATCH
  5
97
330
1F
100
AcDbEntity
  8
ADAPTER PLT SIDE
  6
Continuous
 62
    93
370
    18
100
AcDbHatch
 10
0.0
 20
0.0
 30
0.0
210
0.0
220
0.0
230
1.0
  2
ANSI31
 70
     0
 71
     0
 91
        1
 92
        3
 72
     0
 73
     1
 93
       10
 10
3.128903642521372
 20
6.18093111464556
 10
3.128903642521372
 20
5.721529411764699
 10
3.406903642521371
 20
5.721529411764699
 10
3.406903642521371
 20
4.571529411764701
 10
3.128903642521372
 20
4.571529411764701
 10
3.128903642521372
 20
3.627846998937805
 10
3.753903642521372
 20
3.627846998937805
 10
3.753903642521372
 20
5.821529888601861
 10
3.628903642521372
 20
5.821529888601861
 10
3.628903642521372
 20
6.18093111464556
 97
        0
 75
     0
 76
     2
 52
90.0
 41
1.0
 77
     0
 78
     1
 53
135.0
 43
0.0
 44
0.0
 45
-0.0883883476483184
 46
-0.0883883476483184
 79
     1
 49
10000.0
 98
        0
  0
ARC
  5
98
330
1F
100
AcDbEntity
  8
PLATE
  6
Continuous
 62
    93
370
    18
100
AcDbCircle
 10
-1.68015621811403
 20
6.876864836667527
 30
0.0
 40
1.600000000000003
100
AcDbArc
 50
91.62973280445387
 51
189.5433671833321
  0
LINE
  5
99
330
1F
100
AcDbEntity
  8
PLATE
  6
Continuous
 62
    93
370
    18
100
AcDbLine
 10
-1.725660806832773
 20
8.627846998937807
 30
0.0
 11
-1.725660806832773
 21
8.476217622142189
 31
0.0
  0
LINE
  5
9A
330
1F
100
AcDbEntity
  8
DIM
  6
Continuous
 62
     1
370
    18
100
AcDbLine
 10
-1.640621213236258
 20
7.801699759606112
 30
0.0
 11
-1.640621213236258
 21
7.476983807495348
 31
0.0
  0
LINE
  5
9C
330
1F
100
AcDbEntity
  8
DIM
  6
Continuous
 62
     1
370
    18
100
AcDbLine
 10
7.365507355987363
 20
18.10208456859124
 30
0.0
 11
7.558692521245177
 21
18.15384837761175
 31
0.0
  0
LINE
  5
9D
330
1F
100
AcDbEntity
  8
DIM
  6
Continuous
 62
     1
370
    18
100
AcDbLine
 10
7.365507355987363
 20
18.10208456859124
 30
0.0
 11
7.558692521245177
 21
18.05032075957074
 31
0.0
  0
LINE
  5
9E
330
1F
100
AcDbEntity
  8
DIM
  6
Continuous
 62
     1
370
    18
100
AcDbLine
 10
14.56550735598736
 20
18.10208456859124
 30
0.0
 11
14.37232219072955
 21
18.05032075957074
 31
0.0
  0
LINE
  5
9F
330
1F
100
AcDbEntity
  8
DIM
  6
Continuous
 62
     1
370
    18
100
AcDbLine
 10
14.56550735598736
 20
18.10208456859124
 30
0.0
 11
14.37232219072955
 21
18.15384837761175
 31
0.0
  0
LINE
  5
A0
330
1F
100
AcDbEntity
  8
DIM
  6
Continuous
 62
     1
370
    18
100
AcDbLine
 10
7.365507355987363
 20
15.55396694243535
 30
0.0
 11
7.365507355987363
 21
18.15208456859124
 31
0.0
  0
LINE
  5
A1
330
1F
100
AcDbEntity
  8
DIM
  6
Continuous
 62
     1
370
    18
100
AcDbLine
 10
14.56550735598736
 20
17.55396694243535
 30
0.0
 11
14.56550735598736
 21
18.15208456859124
 31
0.0
  0
TEXT
  5
A3
330
1F
100
AcDbEntity
  8
DIM
  6
Continuous
 62
     1
370
    18
100
AcDbText
 10
10.74722382692387
 20
18.02338546711058
 30
0.0
 40
0.15
  1
7.20
  7
AEC_TECH
100
AcDbText
  0
LINE
  5
A4
330
1F
100
AcDbEntity
  8
DIM
  6
Continuous
 62
     1
370
    18
100
AcDbLine
 10
7.365507355987363
 20
18.10208456859124
 30
0.0
 11
10.69722382692387
 21
18.10208456859124
 31
0.0
  0
LINE
  5
A5
330
1F
100
AcDbEntity
  8
DIM
  6
Continuous
 62
     1
370
    18
100
AcDbLine
 10
11.23379088505085
 20
18.10208456859124
 30
0.0
 11
14.56550735598736
 21
18.10208456859124
 31
0.0
  0
LINE
  5
A6
330
1F
100
AcDbEntity
  8
DIM
  6
Continuous
 62
     1
370
    18
100
AcDbLine
 10
14.56550735598736
 20
18.10208456859124
 30
0.0
 11
14.75869252124518
 21
18.15384837761175
 31
0.0
  0
LINE
  5
A7
330
1F
100
AcDbEntity
  8
DIM
  6
Continuous
 62
     1
370
    18
100
AcDbLine
 10
14.56550735598736
 20
18.10208456859124
 30
0.0
 11
14.75869252124518
 21
18.05032075957074
 31
0.0
  0
LINE
  5
A8
330
1F
100
AcDbEntity
  8
DIM
  6
Continuous
 62
     1
370
    18
100
AcDbLine
 10
17.44791974719553
 20
18.10208456859124
 30
0.0
 11
17.25473458193772
 21
18.05032075957074
 31
0.0
  0
LINE
  5
A9
330
1F
100
AcDbEntity
  8
DIM
  6
Continuous
 62
     1
370
    18
100
AcDbLine
 10
17.44791974719553
 20
18.10208456859124
 30
0.0
 11
17.25473458193772
 21
18.15384837761175
 31
0.0
  0
LINE
  5
AA
330
1F
100
AcDbEntity
  8
DIM
  6
Continuous
 62
     1
370
    18
100
AcDbLine
 10
14.56550735598736
 20
17.55396694243535
 30
0.0
 11
14.56550735598736
 21
18.15208456859124
 31
0.0
  0
LINE
  5
AB
330
1F
100
AcDbEntity
  8
DIM
  6
Continuous
 62
     1
370
    18
100
AcDbLine
 10
17.44791974719553
 20
17.55396694243535
 30
0.0
 11
17.44791974719553
 21
18.15208456859124
 31
0.0
  0
TEXT
  5
AC
330
1F
100
AcDbEntity
  8
DIM
  6
Continuous
 62
     1
370
    18
100
AcDbText
 10
15.79198059575158
 20
18.02338546711058
 30
0.0
 40
0.15
  1
2.88
  7
AEC_TECH
100
AcDbText
  0
LINE
  5
AD
330
1F
100
AcDbEntity
  8
DIM
  6
Continuous
 62
     1
370
    18
100
AcDbLine
 10
14.56550735598736
 20
18.10208456859124
 30
0.0
 11
15.74198059575158
 21
18.10208456859124
 31
0.0
  0
LINE
  5
AE
330
1F
100
AcDbEntity
  8
DIM
  6
Continuous
 62
     1
370
    18
100
AcDbLine
 10
16.27144650743131
 20
18.10208456859124
 30
0.0
 11
17.44791974719553
 21
18.10208456859124
 31
0.0
  0
LINE
  5
AF
330
1F
100
AcDbEntity
  8
DIM
  6
Continuous
 62
     1
370
    18
100
AcDbLine
 10
7.365507355987363
 20
18.61835664519003
 30
0.0
 11
7.558692521245177
 21
18.67012045421053
 31
0.0
  0
LINE
  5
B0
330
1F
100
AcDbEntity
  8
DIM
  6
Continuous
 62
     1
370
    18
100
AcDbLine
 10
7.365507355987363
 20
18.61835664519003
 30
0.0
 11
7.558692521245177
 21
18.56659283616952
 31
0.0
  0
LINE
  5
B1
330
1F
100
AcDbEntity
  8
DIM
  6
Continuous
 62
     1
370
    18
100
AcDbLine
 10
21.24791974719553
 20
18.61835664519002
 30
0.0
 11
21.05473458193772
 21
18.56659283616952
 31
0.0
  0
LINE
  5
B2
330
1F
100
AcDbEntity
  8
DIM
  6
Continuous
 62
     1
370
    18
100
AcDbLine
 10
21.24791974719553
 20
18.61835664519002
 30
0.0
 11
21.05473458193772
 21
18.67012045421053
 31
0.0
  0
LINE
  5
B3
330
1F
100
AcDbEntity
  8
DIM
  6
Continuous
 62
     1
370
    18
100
AcDbLine
 10
7.365507355987363
 20
15.55396694243535
 30
0.0
 11
7.365507355987363
 21
18.66835664519003
 31
0.0
  0
LINE
  5
B4
330
1F
100
AcDbEntity
  8
DIM
  6
Continuous
 62
     1
370
    18
100
AcDbLine
 10
21.24791974719553
 20
13.75396694243535
 30
0.0
 11
21.24791974719553
 21
18.66835664519002
 31
0.0
  0
TEXT
  5
B5
330
1F
100
AcDbEntity
  8
DIM
  6
Continuous
 62
     1
370
    18
100
AcDbText
 10
14.0426218715449
 20
18.53975297079915
 30
0.0
 40
0.15
  1
13.88
  7
AEC_TECH
100
AcDbText
  0
LINE
  5
B6
330
1F
100
AcDbEntity
  8
DIM
  6
Continuous
 62
     1
370
    18
100
AcDbLine
 10
7.365507355987363
 20
18.61835664519003
 30
0.0
 11
13.9926218715449
 21
18.61835664519003
 31
0.0
  0
LINE
  5
B7
330
1F
100
AcDbEntity
  8
DIM
  6
Continuous
 62
     1
370
    18
100
AcDbLine
 10
14.620805231638
 20
18.61835664519002
 30
0.0
 11
21.24791974719553
 21
18.61835664519002
 31
0.0
  0
LINE
  5
B8
330
1F
100
AcDbEntity
  8
DIM
  6
Continuous
 62
     1
370
    18
100
AcDbLine
 10
22.07897041187858
 20
8.427846998937802
 30
0.0
 11
22.02720660285808
 21
8.621032164195617
 31
0.0
  0
LINE
  5
B9
330
1F
100
AcDbEntity
  8
DIM
  6
Continuous
 62
     1
370
    18
100
AcDbLine
 10
22.07897041187858
 20
8.427846998937802
 30
0.0
 11
22.13073422089908
 21
8.621032164195617
 31
0.0
  0
LINE
  5
BA
330
1F
100
AcDbEntity
  8
DIM
  6
Continuous
 62
     1
370
    18
100
AcDbLine
 10
22.07897041187858
 20
13.68396694243535
 30
0.0
 11
22.13073422089908
 21
13.49078177717754
 31
0.0
  0
LINE
  5
BB
330
1F
100
AcDbEntity
  8
DIM
  6
Continuous
 62
     1
370
    18
100
AcDbLine
 10
22.07897041187858
 20
13.68396694243535
 30
0.0
 11
22.02720660285808
 21
13.49078177717754
 31
0.0
  0
LINE
  5
BC
330
1F
100
AcDbEntity
  8
DIM
  6
Continuous
 62
     1
370
    18
100
AcDbLine
 10
21.31791974719553
 20
8.427846998937802
 30
0.0
 11
22.12897041187858
 21
8.427846998937802
 31
0.0
  0
LINE
  5
BD
330
1F
100
AcDbEntity
  8
DIM
  6
Continuous
 62
     1
370
    18
100
AcDbLine
 10
21.31791974719553
 20
13.68396694243535
 30
0.0
 11
22.12897041187858
 21
13.68396694243535
 31
0.0
  0
TEXT
  5
BE
330
1F
100
AcDbEntity
  8
DIM
  6
Continuous
 62
     1
370
    18
100
AcDbText
 10
21.866196874684
 20
10.97720786920591
 30
0.0
 40
0.15
  1
5.26
  7
AEC_TECH
100
AcDbText
  0
LINE
  5
BF
330
1F
100
AcDbEntity
  8
DIM
  6
Continuous
 62
     1
370
    18
100
AcDbLine
 10
22.07897041187858
 20
8.427846998937802
 30
0.0
 11
22.07897041187858
 21
10.9272078692024
 31
0.0
  0
LINE
  5
C0
330
1F
100
AcDbEntity
  8
DIM
  6
Continuous
 62
     1
370
    18
100
AcDbLine
 10
22.07897041187858
 20
11.18460607217076
 30
0.0
 11
22.07897041187858
 21
13.68396694243535
 31
0.0
  0
LINE
  5
C1
330
1F
100
AcDbEntity
  8
DIM
  6
Continuous
 62
     1
370
    18
100
AcDbLine
 10
-4.025256584046626
 20
17.69857014970915
 30
0.0
 11
-3.832071418788812
 21
17.75033395872966
 31
0.0
  0
LINE
  5
C2
330
1F
100
AcDbEntity
  8
DIM
  6
Continuous
 62
     1
370
    18
100
AcDbLine
 10
-4.025256584046626
 20
17.69857014970915
 30
0.0
 11
-3.832071418788812
 21
17.64680634068865
 31
0.0
  0
LINE
  5
C3
330
1F
100
AcDbEntity
  8
DIM
  6
Continuous
 62
     1
370
    18
100
AcDbLine
 10
-2.372095051523677
 20
17.69857014970915
 30
0.0
 11
-2.565280216781491
 21
17.64680634068865
 31
0.0
  0
LINE
  5
C4
330
1F
100
AcDbEntity
  8
DIM
  6
Continuous
 62
     1
370
    18
100
AcDbLine
 10
-2.372095051523677
 20
17.69857014970915
 30
0.0
 11
-2.565280216781491
 21
17.75033395872966
 31
0.0
  0
LINE
  5
C5
330
1F
100
AcDbEntity
  8
DIM
  6
Continuous
 62
     1
370
    18
100
AcDbLine
 10
-4.025256584046626
 20
15.68143538957605
 30
0.0
 11
-4.025256584046626
 21
17.74857014970915
 31
0.0
  0
LINE
  5
C6
330
1F
100
AcDbEntity
  8
DIM
  6
Continuous
 62
     1
370
    18
100
AcDbLine
 10
-2.372095051523677
 20
9.062458940004577
 30
0.0
 11
-2.372095051523676
 21
17.74857014970915
 31
0.0
  0
TEXT
  5
C7
330
1F
100
AcDbEntity
  8
DIM
  6
Continuous
 62
     1
370
    18
100
AcDbText
 10
-3.393388986680243
 20
17.62014924942776
 30
0.0
 40
0.15
  1
1.65
  7
AEC_TECH
100
AcDbText
  0
LINE
  5
C8
330
1F
100
AcDbEntity
  8
DIM
  6
Continuous
 62
     1
370
    18
100
AcDbLine
 10
-4.025256584046626
 20
17.69857014970915
 30
0.0
 11
-3.443388986680244
 21
17.69857014970915
 31
0.0
  0
LINE
  5
C9
330
1F
100
AcDbEntity
  8
DIM
  6
Continuous
 62
     1
370
    18
100
AcDbLine
 10
-2.953962648890058
 20
17.69857014970915
 30
0.0
 11
-2.372095051523677
 21
17.69857014970915
 31
0.0
  0
LINE
  5
CA
330
1F
100
AcDbEntity
  8
DIM
  6
Continuous
 62
     1
370
    18
100
AcDbLine
 10
-6.792311082354998
 20
18.12418111259029
 30
0.0
 11
-6.599125917097185
 21
18.17594492161079
 31
0.0
  0
LINE
  5
CB
330
1F
100
AcDbEntity
  8
DIM
  6
Continuous
 62
     1
370
    18
100
AcDbLine
 10
-6.792311082354998
 20
18.12418111259029
 30
0.0
 11
-6.599125917097185
 21
18.07241730356978
 31
0.0
  0
LINE
  5
CC
330
1F
100
AcDbEntity
  8
DIM
  6
Continuous
 62
     1
370
    18
100
AcDbLine
 10
-2.372095051523677
 20
18.12418111259029
 30
0.0
 11
-2.565280216781491
 21
18.07241730356978
 31
0.0
  0
LINE
  5
CD
330
1F
100
AcDbEntity
  8
DIM
  6
Continuous
 62
     1
370
    18
100
AcDbLine
 10
-2.372095051523677
 20
18.12418111259029
 30
0.0
 11
-2.565280216781491
 21
18.17594492161079
 31
0.0
  0
LINE
  5
CE
330
1F
100
AcDbEntity
  8
DIM
  6
Continuous
 62
     1
370
    18
100
AcDbLine
 10
-6.792311082354998
 20
16.22031420833225
 30
0.0
 11
-6.792311082354998
 21
18.17418111259029
 31
0.0
  0
LINE
  5
CF
330
1F
100
AcDbEntity
  8
DIM
  6
Continuous
 62
     1
370
    18
100
AcDbLine
 10
-2.372095051523677
 20
9.062458940004577
 30
0.0
 11
-2.372095051523676
 21
18.17418111259029
 31
0.0
  0
TEXT
  5
D0
330
1F
100
AcDbEntity
  8
DIM
  6
Continuous
 62
     1
370
    18
100
AcDbText
 10
-4.801955370306207
 20
18.04548201110965
 30
0.0
 40
0.15
  1
4.42
  7
AEC_TECH
100
AcDbText
  0
LINE
  5
D1
330
1F
100
AcDbEntity
  8
DIM
  6
Continuous
 62
     1
370
    18
100
AcDbLine
 10
-6.792311082354998
 20
18.12418111259029
 30
0.0
 11
-4.851955370306207
 21
18.12418111259029
 31
0.0
  0
LINE
  5
D2
330
1F
100
AcDbEntity
  8
DIM
  6
Continuous
 62
     1
370
    18
100
AcDbLine
 10
-4.312450763572468
 20
18.12418111259029
 30
0.0
 11
-2.372095051523677
 21
18.12418111259029
 31
0.0
  0
LINE
  5
D3
330
1F
100
AcDbEntity
  8
DIM
  6
Continuous
 62
     1
370
    18
100
AcDbLine
 10
-1.032419639659686
 20
8.992458940004577
 30
0.0
 11
-1.08418344868019
 21
9.185644105262391
 31
0.0
  0
LINE
  5
D4
330
1F
100
AcDbEntity
  8
DIM
  6
Continuous
 62
     1
370
    18
100
AcDbLine
 10
-1.032419639659686
 20
8.992458940004577
 30
0.0
 11
-0.9806558306391817
 21
9.185644105262391
 31
0.0
  0
LINE
  5
D5
330
1F
100
AcDbEntity
  8
DIM
  6
Continuous
 62
     1
370
    18
100
AcDbLine
 10
-1.032419639659686
 20
9.817549332551531
 30
0.0
 11
-0.9806558306391821
 21
9.624364167293717
 31
0.0
  0
LINE
  5
D6
330
1F
100
AcDbEntity
  8
DIM
  6
Continuous
 62
     1
370
    18
100
AcDbLine
 10
-1.032419639659686
 20
9.817549332551531
 30
0.0
 11
-1.08418344868019
 21
9.624364167293717
 31
0.0
  0
LINE
  5
D7
330
1F
100
AcDbEntity
  8
DIM
  6
Continuous
 62
     1
370
    18
100
AcDbLine
 10
-2.302095051523677
 20
8.992458940004577
 30
0.0
 11
-0.9824196396596858
 21
8.992458940004577
 31
0.0
  0
LINE
  5
D8
330
1F
100
AcDbEntity
  8
DIM
  6
Continuous
 62
     1
370
    18
100
AcDbLine
 10
-2.040012783338867
 20
9.817549332551531
 30
0.0
 11
-0.982419639659686
 21
9.817549332551531
 31
0.0
  0
TEXT
  5
D9
330
1F
100
AcDbEntity
  8
DIM
  6
Continuous
 62
     1
370
    18
100
AcDbText
 10
-1.182564599274183
 20
9.326400461887188
 30
0.0
 40
0.15
  1
.83
  7
AEC_TECH
100
AcDbText
  0
LINE
  5
DA
330
1F
100
AcDbEntity
  8
DIM
  6
Continuous
 62
     1
370
    18
100
AcDbLine
 10
-1.032419639659686
 20
8.992458940004577
 30
0.0
 11
-1.032419639659686
 21
9.276400461887214
 31
0.0
  0
LINE
  5
DB
330
1F
100
AcDbEntity
  8
DIM
  6
Continuous
 62
     1
370
    18
100
AcDbLine
 10
-1.032419639659686
 20
9.533607810668892
 30
0.0
 11
-1.032419639659686
 21
9.817549332551531
 31
0.0
  0
LINE
  5
DC
330
1F
100
AcDbEntity
  8
DIM
  6
Continuous
 62
     1
370
    18
100
AcDbLine
 10
-0.5460436995295375
 20
8.549503577485242
 30
0.0
 11
-0.4942798905090334
 21
8.356318412227427
 31
0.0
  0
LINE
  5
DD
330
1F
100
AcDbEntity
  8
DIM
  6
Continuous
 62
     1
370
    18
100
AcDbLine
 10
-0.5460436995295375
 20
8.549503577485242
 30
0.0
 11
-0.5978075085500416
 21
8.356318412227427
 31
0.0
  0
LINE
  5
DE
330
1F
100
AcDbEntity
  8
DIM
  6
Continuous
 62
     1
370
    18
100
AcDbLine
 10
-0.5460436995295392
 20
8.992458940004577
 30
0.0
 11
-0.5978075085500433
 21
9.185644105262391
 31
0.0
  0
LINE
  5
DF
330
1F
100
AcDbEntity
  8
DIM
  6
Continuous
 62
     1
370
    18
100
AcDbLine
 10
-0.5460436995295392
 20
8.992458940004577
 30
0.0
 11
-0.494279890509035
 21
9.185644105262391
 31
0.0
  0
LINE
  5
E0
330
1F
100
AcDbEntity
  8
DIM
  6
Continuous
 62
     1
370
    18
100
AcDbLine
 10
-13.8865417849975
 20
8.549503577485242
 30
0.0
 11
-0.4960436995295368
 21
8.549503577485242
 31
0.0
  0
LINE
  5
E1
330
1F
100
AcDbEntity
  8
DIM
  6
Continuous
 62
     1
370
    18
100
AcDbLine
 10
-2.302095051523677
 20
8.992458940004577
 30
0.0
 11
-0.4960436995295392
 21
8.992458940004577
 31
0.0
  0
TEXT
  5
E2
330
1F
100
AcDbEntity
  8
DIM
  6
Continuous
 62
     1
370
    18
100
AcDbText
 10
-0.7028104789572757
 20
8.694782202617288
 30
0.0
 40
0.15
  1
.44
  7
AEC_TECH
100
AcDbText
  0
LINE
  5
E3
330
1F
100
AcDbEntity
  8
DIM
  6
Continuous
 62
     1
370
    18
100
AcDbLine
 10
-0.5460436995295375
 20
8.549503577485242
 30
0.0
 11
-0.5460436995295375
 21
8.149503577485241
 31
0.0
  0
LINE
  5
E4
330
1F
100
AcDbEntity
  8
DIM
  6
Continuous
 62
     1
370
    18
100
AcDbLine
 10
-0.5460436995295392
 20
8.992458940004577
 30
0.0
 11
-0.5460436995295392
 21
9.392458940004577
 31
0.0
  0
LINE
  5
E5
330
1F
100
AcDbEntity
  8
DIM
  6
Continuous
 62
     1
370
    18
100
AcDbLine
 10
-0.0888016526009778
 20
6.673272520487261
 30
0.0
 11
-0.140565461621482
 21
6.866457685745075
 31
0.0
  0
LINE
  5
E6
330
1F
100
AcDbEntity
  8
DIM
  6
Continuous
 62
     1
370
    18
100
AcDbLine
 10
-0.0888016526009778
 20
6.673272520487261
 30
0.0
 11
-0.0370378435804737
 21
6.866457685745075
 31
0.0
  0
LINE
  5
E7
330
1F
100
AcDbEntity
  8
DIM
  6
Continuous
 62
     1
370
    18
100
AcDbLine
 10
-0.0888016526009761
 20
8.992458940004577
 30
0.0
 11
-0.037037843580472
 21
8.799273774746762
 31
0.0
  0
LINE
  5
E8
330
1F
100
AcDbEntity
  8
DIM
  6
Continuous
 62
     1
370
    18
100
AcDbLine
 10
-0.0888016526009761
 20
8.992458940004577
 30
0.0
 11
-0.1405654616214802
 21
8.799273774746762
 31
0.0
  0
LINE
  5
E9
330
1F
100
AcDbEntity
  8
DIM
  6
Continuous
 62
     1
370
    18
100
AcDbLine
 10
-13.09230300062203
 20
6.673272520487262
 30
0.0
 11
-0.0388016526009771
 21
6.673272520487259
 31
0.0
  0
LINE
  5
EA
330
1F
100
AcDbEntity
  8
DIM
  6
Continuous
 62
     1
370
    18
100
AcDbLine
 10
-2.302095051523677
 20
8.992458940004577
 30
0.0
 11
-0.0388016526009762
 21
8.992458940004577
 31
0.0
  0
TEXT
  5
EB
330
1F
100
AcDbEntity
  8
DIM
  6
Continuous
 62
     1
370
    18
100
AcDbText
 10
-0.2958960953013335
 20
7.754166628765255
 30
0.0
 40
0.15
  1
2.32
  7
AEC_TECH
100
AcDbText
  0
LINE
  5
EC
330
1F
100
AcDbEntity
  8
DIM
  6
Continuous
 62
     1
370
    18
100
AcDbLine
 10
-0.0888016526009778
 20
6.673272520487261
 30
0.0
 11
-0.088801652600977
 21
7.704166628765248
 31
0.0
  0
LINE
  5
ED
330
1F
100
AcDbEntity
  8
DIM
  6
Continuous
 62
     1
370
    18
100
AcDbLine
 10
-0.0888016526009768
 20
7.96156483172659
 30
0.0
 11
-0.0888016526009761
 21
8.992458940004577
 31
0.0
  0
LINE
  5
EE
330
1F
100
AcDbEntity
  8
DIM
  6
Continuous
 62
     1
370
    18
100
AcDbLine
 10
0.3520485774932922
 20
4.208607613855607
 30
0.0
 11
0.3002847684727881
 21
4.40179277911342
 31
0.0
  0
LINE
  5
EF
330
1F
100
AcDbEntity
  8
DIM
  6
Continuous
 62
     1
370
    18
100
AcDbLine
 10
0.3520485774932922
 20
4.208607613855607
 30
0.0
 11
0.4038123865137964
 21
4.40179277911342
 31
0.0
  0
LINE
  5
F0
330
1F
100
AcDbEntity
  8
DIM
  6
Continuous
 62
     1
370
    18
100
AcDbLine
 10
0.3520485774932922
 20
8.992458940004577
 30
0.0
 11
0.4038123865137963
 21
8.799273774746762
 31
0.0
  0
LINE
  5
F1
330
1F
100
AcDbEntity
  8
DIM
  6
Continuous
 62
     1
370
    18
100
AcDbLine
 10
0.3520485774932922
 20
8.992458940004577
 30
0.0
 11
0.3002847684727881
 21
8.799273774746762
 31
0.0
  0
LINE
  5
F2
330
1F
100
AcDbEntity
  8
DIM
  6
Continuous
 62
     1
370
    18
100
AcDbLine
 10
-5.707147443445865
 20
4.208607613855607
 30
0.0
 11
0.402048577493292
 21
4.208607613855607
 31
0.0
  0
LINE
  5
F3
330
1F
100
AcDbEntity
  8
DIM
  6
Continuous
 62
     1
370
    18
100
AcDbLine
 10
-2.302095051523677
 20
8.992458940004577
 30
0.0
 11
0.402048577493292
 21
8.992458940004577
 31
0.0
  0
TEXT
  5
F4
330
1F
100
AcDbEntity
  8
DIM
  6
Continuous
 62
     1
370
    18
100
AcDbText
 10
0.1313994139184953
 20
6.521929602539241
 30
0.0
 40
0.15
  1
4.78
  7
AEC_TECH
100
AcDbText
  0
LINE
  5
F5
330
1F
100
AcDbEntity
  8
DIM
  6
Continuous
 62
     1
370
    18
100
AcDbLine
 10
0.3520485774932922
 20
4.208607613855607
 30
0.0
 11
0.3520485774932922
 21
6.471929602539213
 31
0.0
  0
LINE
  5
F6
330
1F
100
AcDbEntity
  8
DIM
  6
Continuous
 62
     1
370
    18
100
AcDbLine
 10
0.3520485774932922
 20
6.729136951320971
 30
0.0
 11
0.3520485774932922
 21
8.992458940004577
 31
0.0
  0
HATCH
  5
F7
330
1F
100
AcDbEntity
  8
DIM
  6
Continuous
 62
     1
370
    18
100
AcDbHatch
 10
0.0
 20
0.0
 30
0.0
210
0.0
220
0.0
230
1.0
  2
SOLID
 70
     1
 71
     0
 91
        1
 92
        3
 72
     0
 73
     1
 93
        3
 10
3.128903642521372
 20
14.81287403572608
 10
2.981182479569541
 20
14.78682680907604
 10
2.981182479569541
 20
14.83892126237612
 97
        0
 75
     0
 76
     1
 98
        0
  0
LINE
  5
F8
330
1F
100
AcDbEntity
  8
DIM
  6
Continuous
 62
     1
370
    18
100
AcDbLine
 10
3.128903642521372
 20
14.81287403572608
 30
0.0
 11
2.981182479569541
 21
14.78682680907604
 31
0.0
  0
LINE
  5
F9
330
1F
100
AcDbEntity
  8
DIM
  6
Continuous
 62
     1
370
    18
100
AcDbLine
 10
3.128903642521372
 20
14.81287403572608
 30
0.0
 11
2.981182479569541
 21
14.83892126237612
 31
0.0
  0
LINE
  5
FA
330
1F
100
AcDbEntity
  8
DIM
  6
Continuous
 62
     1
370
    18
100
AcDbLine
 10
2.981182479569541
 20
14.78682680907604
 30
0.0
 11
2.981182479569541
 21
14.83892126237612
 31
0.0
  0
HATCH
  5
FB
330
1F
100
AcDbEntity
  8
DIM
  6
Continuous
 62
     1
370
    18
100
AcDbHatch
 10
0.0
 20
0.0
 30
0.0
210
0.0
220
0.0
230
1.0
  2
SOLID
 70
     1
 71
     0
 91
        1
 92
        3
 72
     0
 73
     1
 93
        3
 10
3.406903642521373
 20
14.81287403572608
 10
3.554624805473204
 20
14.83892126237612
 10
3.554624805473204
 20
14.78682680907604
 97
        0
 75
     0
 76
     1
 98
        0
  0
LINE
  5
FC
330
1F
100
AcDbEntity
  8
DIM
  6
Continuous
 62
     1
370
    18
100
AcDbLine
 10
3.406903642521373
 20
14.81287403572608
 30
0.0
 11
3.554624805473204
 21
14.83892126237612
 31
0.0
  0
LINE
  5
FD
330
1F
100
AcDbEntity
  8
DIM
  6
Continuous
 62
     1
370
    18
100
AcDbLine
 10
3.406903642521373
 20
14.81287403572608
 30
0.0
 11
3.554624805473204
 21
14.78682680907604
 31
0.0
  0
LINE
  5
FE
330
1F
100
AcDbEntity
  8
DIM
  6
Continuous
 62
     1
370
    18
100
AcDbLine
 10
3.554624805473204
 20
14.83892126237612
 30
0.0
 11
3.554624805473204
 21
14.78682680907604
 31
0.0
  0
LINE
  5
FF
330
1F
100
AcDbEntity
  8
DIM
  6
Continuous
 62
     1
370
    18
100
AcDbLine
 10
3.128903642521372
 20
14.4915294117647
 30
0.0
 11
3.128903642521372
 21
14.86287403572608
 31
0.0
  0
LINE
  5
100
330
1F
100
AcDbEntity
  8
DIM
  6
Continuous
 62
     1
370
    18
100
AcDbLine
 10
3.406903642521373
 20
14.4915294117647
 30
0.0
 11
3.406903642521373
 21
14.86287403572608
 31
0.0
  0
TEXT
  5
101
330
1F
100
AcDbEntity
  8
DIM
  6
Continuous
 62
     1
370
    18
100
AcDbText
 10
2.479229069910796
 20
14.73417493424543
 30
0.0
 40
0.15
  1
.28
  7
AEC_TECH
100
AcDbText
  0
LINE
  5
102
330
1F
100
AcDbEntity
  8
DIM
  6
Continuous
 62
     1
370
    18
100
AcDbLine
 10
3.128903642521372
 20
14.81287403572608
 30
0.0
 11
2.828903642521373
 21
14.81287403572608
 31
0.0
  0
LINE
  5
103
330
1F
100
AcDbEntity
  8
DIM
  6
Continuous
 62
     1
370
    18
100
AcDbLine
 10
3.406903642521373
 20
14.81287403572608
 30
0.0
 11
3.706903642521373
 21
14.81287403572608
 31
0.0
  0
HATCH
  5
104
330
1F
100
AcDbEntity
  8
DIM
  6
Continuous
 62
     1
370
    18
100
AcDbHatch
 10
0.0
 20
0.0
 30
0.0
210
0.0
220
0.0
230
1.0
  2
SOLID
 70
     1
 71
     0
 91
        1
 92
        3
 72
     0
 73
     1
 93
        3
 10
3.628903642521372
 20
13.77013791923092
 10
3.481182479569541
 20
13.74409069258088
 10
3.481182479569541
 20
13.79618514588096
 97
        0
 75
     0
 76
     1
 98
        0
  0
LINE
  5
105
330
1F
100
AcDbEntity
  8
DIM
  6
Continuous
 62
     1
370
    18
100
AcDbLine
 10
3.628903642521372
 20
13.77013791923092
 30
0.0
 11
3.481182479569541
 21
13.74409069258088
 31
0.0
  0
LINE
  5
106
330
1F
100
AcDbEntity
  8
DIM
  6
Continuous
 62
     1
370
    18
100
AcDbLine
 10
3.628903642521372
 20
13.77013791923092
 30
0.0
 11
3.481182479569541
 21
13.79618514588096
 31
0.0
  0
LINE
  5
107
330
1F
100
AcDbEntity
  8
DIM
  6
Continuous
 62
     1
370
    18
100
AcDbLine
 10
3.481182479569541
 20
13.74409069258088
 30
0.0
 11
3.481182479569541
 21
13.79618514588096
 31
0.0
  0
HATCH
  5
108
330
1F
100
AcDbEntity
  8
DIM
  6
Continuous
 62
     1
370
    18
100
AcDbHatch
 10
0.0
 20
0.0
 30
0.0
210
0.0
220
0.0
230
1.0
  2
SOLID
 70
     1
 71
     0
 91
        1
 92
        3
 72
     0
 73
     1
 93
        3
 10
3.753903642521372
 20
13.77013791923092
 10
3.901624805473204
 20
13.79618514588096
 10
3.901624805473204
 20
13.74409069258088
 97
        0
 75
     0
 76
     1
 98
        0
  0
LINE
  5
109
330
1F
100
AcDbEntity
  8
DIM
  6
Continuous
 62
     1
370
    18
100
AcDbLine
 10
3.753903642521372
 20
13.77013791923092
 30
0.0
 11
3.901624805473204
 21
13.79618514588096
 31
0.0
  0
LINE
  5
10A
330
1F
100
AcDbEntity
  8
DIM
  6
Continuous
 62
     1
370
    18
100
AcDbLine
 10
3.753903642521372
 20
13.77013791923092
 30
0.0
 11
3.901624805473204
 21
13.74409069258088
 31
0.0
  0
LINE
  5
10B
330
1F
100
AcDbEntity
  8
DIM
  6
Continuous
 62
     1
370
    18
100
AcDbLine
 10
3.901624805473204
 20
13.79618514588096
 30
0.0
 11
3.901624805473204
 21
13.74409069258088
 31
0.0
  0
LINE
  5
10C
330
1F
100
AcDbEntity
  8
DIM
  6
Continuous
 62
     1
370
    18
100
AcDbLine
 10
3.628903642521372
 20
14.2515294117647
 30
0.0
 11
3.628903642521372
 21
13.72013791923092
 31
0.0
  0
LINE
  5
10D
330
1F
100
AcDbEntity
  8
DIM
  6
Continuous
 62
     1
370
    18
100
AcDbLine
 10
3.753903642521372
 20
14.2515294117647
 30
0.0
 11
3.753903642521372
 21
13.72013791923092
 31
0.0
  0
TEXT
  5
10E
330
1F
100
AcDbEntity
  8
DIM
  6
Continuous
 62
     1
370
    18
100
AcDbText
 10
4.118315925558683
 20
13.69303849918118
 30
0.0
 40
0.15
  1
.13
  7
AEC_TECH
100
AcDbText
  0
LINE
  5
10F
330
1F
100
AcDbEntity
  8
DIM
  6
Continuous
 62
     1
370
    18
100
AcDbLine
 10
3.628903642521372
 20
13.77013791923092
 30
0.0
 11
3.328903642521373
 21
13.77013791923092
 31
0.0
  0
LINE
  5
110
330
1F
100
AcDbEntity
  8
DIM
  6
Continuous
 62
     1
370
    18
100
AcDbLine
 10
3.753903642521372
 20
13.77013791923092
 30
0.0
 11
4.053903642521372
 21
13.77013791923092
 31
0.0
  0
LINE
  5
111
330
1F
100
AcDbEntity
  8
DIM
  6
Continuous
 62
     1
370
    18
100
AcDbLine
 10
-16.50379754038992
 20
8.992458940004577
 30
0.0
 11
-16.55556134941042
 21
9.185644105262391
 31
0.0
  0
LINE
  5
112
330
1F
100
AcDbEntity
  8
DIM
  6
Continuous
 62
     1
370
    18
100
AcDbLine
 10
-16.50379754038992
 20
8.992458940004577
 30
0.0
 11
-16.45203373136941
 21
9.185644105262391
 31
0.0
  0
LINE
  5
113
330
1F
100
AcDbEntity
  8
DIM
  6
Continuous
 62
     1
370
    18
100
AcDbLine
 10
-16.50379754038992
 20
12.03891214930643
 30
0.0
 11
-16.45203373136941
 21
11.84572698404862
 31
0.0
  0
LINE
  5
114
330
1F
100
AcDbEntity
  8
DIM
  6
Continuous
 62
     1
370
    18
100
AcDbLine
 10
-16.50379754038992
 20
12.03891214930643
 30
0.0
 11
-16.55556134941042
 21
11.84572698404862
 31
0.0
  0
LINE
  5
115
330
1F
100
AcDbEntity
  8
DIM
  6
Continuous
 62
     1
370
    18
100
AcDbLine
 10
-2.442095051523677
 20
8.992458940004577
 30
0.0
 11
-16.55379754038992
 21
8.992458940004578
 31
0.0
  0
LINE
  5
116
330
1F
100
AcDbEntity
  8
DIM
  6
Continuous
 62
     1
370
    18
100
AcDbLine
 10
-13.97520292178287
 20
12.03891214930643
 30
0.0
 11
-16.55379754038992
 21
12.03891214930643
 31
0.0
  0
TEXT
  5
117
330
1F
100
AcDbEntity
  8
DIM
  6
Continuous
 62
     1
370
    18
100
AcDbText
 10
-16.72522016933895
 20
10.43726304454289
 30
0.0
 40
0.15
  1
3.05
  7
AEC_TECH
100
AcDbText
  0
LINE
  5
118
330
1F
100
AcDbEntity
  8
DIM
  6
Continuous
 62
     1
370
    18
100
AcDbLine
 10
-16.50379754038992
 20
8.992458940004577
 30
0.0
 11
-16.50379754038992
 21
10.387263044546
 31
0.0
  0
LINE
  5
119
330
1F
100
AcDbEntity
  8
DIM
  6
Continuous
 62
     1
370
    18
100
AcDbLine
 10
-16.50379754038992
 20
10.64410804476501
 30
0.0
 11
-16.50379754038992
 21
12.03891214930643
 31
0.0
  0
LINE
  5
11A
330
1F
100
AcDbEntity
  8
DIM
  6
Continuous
 62
     1
370
    18
100
AcDbLine
 10
-16.95457250333307
 20
8.992458940004577
 30
0.0
 11
-17.00633631235358
 21
9.185644105262391
 31
0.0
  0
LINE
  5
11B
330
1F
100
AcDbEntity
  8
DIM
  6
Continuous
 62
     1
370
    18
100
AcDbLine
 10
-16.95457250333307
 20
8.992458940004577
 30
0.0
 11
-16.90280869431257
 21
9.185644105262391
 31
0.0
  0
LINE
  5
11C
330
1F
100
AcDbEntity
  8
DIM
  6
Continuous
 62
     1
370
    18
100
AcDbLine
 10
-16.95457250333307
 20
15.69267299975145
 30
0.0
 11
-16.90280869431257
 21
15.49948783449363
 31
0.0
  0
LINE
  5
11D
330
1F
100
AcDbEntity
  8
DIM
  6
Continuous
 62
     1
370
    18
100
AcDbLine
 10
-16.95457250333307
 20
15.69267299975145
 30
0.0
 11
-17.00633631235358
 21
15.49948783449363
 31
0.0
  0
LINE
  5
11E
330
1F
100
AcDbEntity
  8
DIM
  6
Continuous
 62
     1
370
    18
100
AcDbLine
 10
-2.442095051523677
 20
8.992458940004577
 30
0.0
 11
-17.00457250333307
 21
8.992458940004578
 31
0.0
  0
LINE
  5
11F
330
1F
100
AcDbEntity
  8
DIM
  6
Continuous
 62
     1
370
    18
100
AcDbLine
 10
-11.2755347214545
 20
15.69267299975145
 30
0.0
 11
-17.00457250333307
 21
15.69267299975145
 31
0.0
  0
TEXT
  5
120
330
1F
100
AcDbEntity
  8
DIM
  6
Continuous
 62
     1
370
    18
100
AcDbText
 10
-17.18085663016788
 20
12.26414346976542
 30
0.0
 40
0.15
  1
6.70
  7
AEC_TECH
100
AcDbText
  0
LINE
  5
121
330
1F
100
AcDbEntity
  8
DIM
  6
Continuous
 62
     1
370
    18
100
AcDbLine
 10
-16.95457250333307
 20
8.992458940004577
 30
0.0
 11
-16.95457250333307
 21
12.21414346976254
 31
0.0
  0
LINE
  5
122
330
1F
100
AcDbEntity
  8
DIM
  6
Continuous
 62
     1
370
    18
100
AcDbLine
 10
-16.95457250333307
 20
12.47098846999348
 30
0.0
 11
-16.95457250333307
 21
15.69267299975145
 31
0.0
  0
LINE
  5
123
330
1F
100
AcDbEntity
  8
DIM
  6
Continuous
 62
     1
370
    18
100
AcDbLine
 10
-2.691044854206479
 20
17.2631453642345
 30
0.0
 11
-2.884230019464293
 21
17.21138155521399
 31
0.0
  0
LINE
  5
124
330
1F
100
AcDbEntity
  8
DIM
  6
Continuous
 62
     1
370
    18
100
AcDbLine
 10
-2.691044854206479
 20
17.2631453642345
 30
0.0
 11
-2.884230019464293
 21
17.314909173255
 31
0.0
  0
LINE
  5
125
330
1F
100
AcDbEntity
  8
DIM
  6
Continuous
 62
     1
370
    18
100
AcDbLine
 10
-2.372095051523677
 20
17.2631453642345
 30
0.0
 11
-2.178909886265863
 21
17.314909173255
 31
0.0
  0
LINE
  5
126
330
1F
100
AcDbEntity
  8
DIM
  6
Continuous
 62
     1
370
    18
100
AcDbLine
 10
-2.372095051523677
 20
17.2631453642345
 30
0.0
 11
-2.178909886265863
 21
17.21138155521399
 31
0.0
  0
LINE
  5
127
330
1F
100
AcDbEntity
  8
DIM
  6
Continuous
 62
     1
370
    18
100
AcDbLine
 10
-2.691044854206479
 20
12.73066261264625
 30
0.0
 11
-2.691044854206478
 21
17.3131453642345
 31
0.0
  0
LINE
  5
128
330
1F
100
AcDbEntity
  8
DIM
  6
Continuous
 62
     1
370
    18
100
AcDbLine
 10
-2.372095051523677
 20
9.062458940004577
 30
0.0
 11
-2.372095051523676
 21
17.3131453642345
 31
0.0
  0
TEXT
  5
129
330
1F
100
AcDbEntity
  8
DIM
  6
Continuous
 62
     1
370
    18
100
AcDbText
 10
-1.998296438309049
 20
17.18444626275385
 30
0.0
 40
0.15
  1
.32
  7
AEC_TECH
100
AcDbText
  0
LINE
  5
12A
330
1F
100
AcDbEntity
  8
DIM
  6
Continuous
 62
     1
370
    18
100
AcDbLine
 10
-2.691044854206479
 20
17.2631453642345
 30
0.0
 11
-3.091044854206479
 21
17.2631453642345
 31
0.0
  0
LINE
  5
12B
330
1F
100
AcDbEntity
  8
DIM
  6
Continuous
 62
     1
370
    18
100
AcDbLine
 10
-2.372095051523677
 20
17.2631453642345
 30
0.0
 11
-1.972095051523677
 21
17.2631453642345
 31
0.0
  0
LINE
  5
12C
330
1F
100
AcDbEntity
  8
DIM
  6
Continuous
 62
     1
370
    18
100
AcDbLine
 10
-0.0927715457405327
 20
8.992458940004577
 30
0.0
 11
-0.1445353547610368
 21
9.185644105262391
 31
0.0
  0
LINE
  5
12D
330
1F
100
AcDbEntity
  8
DIM
  6
Continuous
 62
     1
370
    18
100
AcDbLine
 10
-0.0927715457405327
 20
8.992458940004577
 30
0.0
 11
-0.0410077367200286
 21
9.185644105262391
 31
0.0
  0
LINE
  5
12E
330
1F
100
AcDbEntity
  8
DIM
  6
Continuous
 62
     1
370
    18
100
AcDbLine
 10
-0.0927715457405318
 20
12.66066261264625
 30
0.0
 11
-0.0410077367200278
 21
12.46747744738843
 31
0.0
  0
LINE
  5
12F
330
1F
100
AcDbEntity
  8
DIM
  6
Continuous
 62
     1
370
    18
100
AcDbLine
 10
-0.0927715457405318
 20
12.66066261264625
 30
0.0
 11
-0.144535354761036
 21
12.46747744738843
 31
0.0
  0
LINE
  5
130
330
1F
100
AcDbEntity
  8
DIM
  6
Continuous
 62
     1
370
    18
100
AcDbLine
 10
-2.302095051523677
 20
8.992458940004577
 30
0.0
 11
-0.0427715457405329
 21
8.992458940004577
 31
0.0
  0
LINE
  5
131
330
1F
100
AcDbEntity
  8
DIM
  6
Continuous
 62
     1
370
    18
100
AcDbLine
 10
-2.621044854206479
 20
12.66066261264625
 30
0.0
 11
-0.042771545740532
 21
12.66066261264625
 31
0.0
  0
TEXT
  5
132
330
1F
100
AcDbEntity
  8
DIM
  6
Continuous
 62
     1
370
    18
100
AcDbText
 10
-0.3112731201836374
 20
10.748139876044
 30
0.0
 40
0.15
  1
3.67
  7
AEC_TECH
100
AcDbText
  0
LINE
  5
133
330
1F
100
AcDbEntity
  8
DIM
  6
Continuous
 62
     1
370
    18
100
AcDbLine
 10
-0.0927715457405327
 20
8.992458940004577
 30
0.0
 11
-0.0927715457405323
 21
10.698139876044
 31
0.0
  0
LINE
  5
134
330
1F
100
AcDbEntity
  8
DIM
  6
Continuous
 62
     1
370
    18
100
AcDbLine
 10
-0.0927715457405322
 20
10.95498167660682
 30
0.0
 11
-0.0927715457405318
 21
12.66066261264625
 31
0.0
  0
LINE
  5
135
330
1F
100
AcDbEntity
  8
DIM
  6
Continuous
 62
     1
370
    18
100
AcDbLine
 10
0.3580034172026245
 20
8.992458940004577
 30
0.0
 11
0.3062396081821204
 21
9.185644105262391
 31
0.0
  0
LINE
  5
136
330
1F
100
AcDbEntity
  8
DIM
  6
Continuous
 62
     1
370
    18
100
AcDbLine
 10
0.3580034172026245
 20
8.992458940004577
 30
0.0
 11
0.4097672262231287
 21
9.185644105262391
 31
0.0
  0
LINE
  5
137
330
1F
100
AcDbEntity
  8
DIM
  6
Continuous
 62
     1
370
    18
100
AcDbLine
 10
0.3580034172026245
 20
15.61143538957605
 30
0.0
 11
0.4097672262231286
 21
15.41825022431824
 31
0.0
  0
LINE
  5
138
330
1F
100
AcDbEntity
  8
DIM
  6
Continuous
 62
     1
370
    18
100
AcDbLine
 10
0.3580034172026245
 20
15.61143538957605
 30
0.0
 11
0.3062396081821204
 21
15.41825022431824
 31
0.0
  0
LINE
  5
139
330
1F
100
AcDbEntity
  8
DIM
  6
Continuous
 62
     1
370
    18
100
AcDbLine
 10
-2.302095051523677
 20
8.992458940004577
 30
0.0
 11
0.4080034172026243
 21
8.992458940004577
 31
0.0
  0
LINE
  5
13A
330
1F
100
AcDbEntity
  8
DIM
  6
Continuous
 62
     1
370
    18
100
AcDbLine
 10
-3.955256584046626
 20
15.61143538957605
 30
0.0
 11
0.4080034172026243
 21
15.61143538957605
 31
0.0
  0
TEXT
  5
13B
330
1F
100
AcDbEntity
  8
DIM
  6
Continuous
 62
     1
370
    18
100
AcDbText
 10
0.1393413475266661
 20
11.83149357780385
 30
0.0
 40
0.15
  1
6.62
  7
AEC_TECH
100
AcDbText
  0
LINE
  5
13C
330
1F
100
AcDbEntity
  8
DIM
  6
Continuous
 62
     1
370
    18
100
AcDbLine
 10
0.3580034172026245
 20
8.992458940004577
 30
0.0
 11
0.3580034172026245
 21
11.78149357780385
 31
0.0
  0
LINE
  5
13D
330
1F
100
AcDbEntity
  8
DIM
  6
Continuous
 62
     1
370
    18
100
AcDbLine
 10
0.3580034172026245
 20
12.03889178076512
 30
0.0
 11
0.3580034172026245
 21
15.61143538957605
 31
0.0
  0
LINE
  5
13E
330
1F
100
AcDbEntity
  8
DIM
  6
Continuous
 62
     1
370
    18
100
AcDbLine
 10
-10.57081911737145
 20
18.97540303835255
 30
0.0
 11
-10.37763395211364
 21
19.02716684737306
 31
0.0
  0
LINE
  5
13F
330
1F
100
AcDbEntity
  8
DIM
  6
Continuous
 62
     1
370
    18
100
AcDbLine
 10
-10.57081911737145
 20
18.97540303835255
 30
0.0
 11
-10.37763395211364
 21
18.92363922933205
 31
0.0
  0
LINE
  5
140
330
1F
100
AcDbEntity
  8
DIM
  6
Continuous
 62
     1
370
    18
100
AcDbLine
 10
-2.372095051523677
 20
18.97540303835255
 30
0.0
 11
-2.565280216781491
 21
18.92363922933205
 31
0.0
  0
LINE
  5
141
330
1F
100
AcDbEntity
  8
DIM
  6
Continuous
 62
     1
370
    18
100
AcDbLine
 10
-2.372095051523677
 20
18.97540303835255
 30
0.0
 11
-2.565280216781491
 21
19.02716684737306
 31
0.0
  0
LINE
  5
142
330
1F
100
AcDbEntity
  8
DIM
  6
Continuous
 62
     1
370
    18
100
AcDbLine
 10
-10.57081911737145
 20
15.96424763517147
 30
0.0
 11
-10.57081911737145
 21
19.02540303835255
 31
0.0
  0
LINE
  5
143
330
1F
100
AcDbEntity
  8
DIM
  6
Continuous
 62
     1
370
    18
100
AcDbLine
 10
-2.372095051523677
 20
9.062458940004577
 30
0.0
 11
-2.372095051523676
 21
19.02540303835255
 31
0.0
  0
TEXT
  5
144
330
1F
100
AcDbEntity
  8
DIM
  6
Continuous
 62
     1
370
    18
100
AcDbText
 10
-6.741066991078997
 20
18.87377335199696
 30
0.0
 40
0.15
  1
8.199
  7
AEC_TECH
100
AcDbText
  0
LINE
  5
145
330
1F
100
AcDbEntity
  8
DIM
  6
Continuous
 62
     1
370
    18
100
AcDbLine
 10
-10.57081911737145
 20
18.97540303835255
 30
0.0
 11
-6.791066991078996
 21
18.97540303835255
 31
0.0
  0
LINE
  5
146
330
1F
100
AcDbEntity
  8
DIM
  6
Continuous
 62
     1
370
    18
100
AcDbLine
 10
-6.151847177816134
 20
18.97540303835255
 30
0.0
 11
-2.372095051523677
 21
18.97540303835255
 31
0.0
  0
LINE
  5
147
330
1F
100
AcDbEntity
  8
DIM
  6
Continuous
 62
     1
370
    18
100
AcDbLine
 10
-1.640621213236258
 20
7.476983807495348
 30
0.0
 11
-0.8288313329593491
 21
7.476983807495348
 31
0.0
  0
LINE
  5
148
330
1F
100
AcDbEntity
  8
DIM
  6
Continuous
 62
     1
370
    18
100
AcDbLine
 10
-0.8288313329593491
 20
7.801699759606112
 30
0.0
 11
-0.8288313329593491
 21
7.476983807495348
 31
0.0
  0
LINE
  5
149
330
1F
100
AcDbEntity
  8
DIM
  6
Continuous
 62
     1
370
    18
100
AcDbLine
 10
-1.640621213236258
 20
7.801699759606112
 30
0.0
 11
-0.8288313329593491
 21
7.801699759606112
 31
0.0
  0
LINE
  5
14A
330
1F
100
AcDbEntity
  8
DIM
  6
Continuous
 62
     1
370
    18
100
AcDbLine
 10
-6.884171168217332
 20
19.12261169041286
 30
0.0
 11
-6.884171168217332
 21
18.79789573830209
 31
0.0
  0
LINE
  5
14B
330
1F
100
AcDbEntity
  8
DIM
  6
Continuous
 62
     1
370
    18
100
AcDbLine
 10
-6.884171168217332
 20
18.79789573830209
 30
0.0
 11
-6.072381287940423
 21
18.79789573830209
 31
0.0
  0
LINE
  5
14C
330
1F
100
AcDbEntity
  8
DIM
  6
Continuous
 62
     1
370
    18
100
AcDbLine
 10
-6.072381287940423
 20
19.12261169041286
 30
0.0
 11
-6.072381287940423
 21
18.79789573830209
 31
0.0
  0
LINE
  5
14D
330
1F
100
AcDbEntity
  8
DIM
  6
Continuous
 62
     1
370
    18
100
AcDbLine
 10
-6.884171168217332
 20
19.12261169041286
 30
0.0
 11
-6.072381287940423
 21
19.12261169041286
 31
0.0
  0
LINE
  5
14E
330
1F
100
AcDbEntity
  8
DIM
  6
Continuous
 62
     1
370
    18
100
AcDbLine
 10
-9.162068099552272
 20
18.55739676308278
 30
0.0
 11
-8.968882934294458
 21
18.60916057210329
 31
0.0
  0
LINE
  5
14F
330
1F
100
AcDbEntity
  8
DIM
  6
Continuous
 62
     1
370
    18
100
AcDbLine
 10
-9.162068099552272
 20
18.55739676308278
 30
0.0
 11
-8.968882934294458
 21
18.50563295406228
 31
0.0
  0
LINE
  5
150
330
1F
100
AcDbEntity
  8
DIM
  6
Continuous
 62
     1
370
    18
100
AcDbLine
 10
-2.372095051523677
 20
18.55739676308278
 30
0.0
 11
-2.565280216781491
 21
18.50563295406228
 31
0.0
  0
LINE
  5
151
330
1F
100
AcDbEntity
  8
DIM
  6
Continuous
 62
     1
370
    18
100
AcDbLine
 10
-2.372095051523677
 20
18.55739676308278
 30
0.0
 11
-2.565280216781491
 21
18.60916057210329
 31
0.0
  0
LINE
  5
152
330
1F
100
AcDbEntity
  8
DIM
  6
Continuous
 62
     1
370
    18
100
AcDbLine
 10
-9.162068099552272
 20
17.02990917055445
 30
0.0
 11
-9.162068099552272
 21
18.60739676308278
 31
0.0
  0
LINE
  5
153
330
1F
100
AcDbEntity
  8
DIM
  6
Continuous
 62
     1
370
    18
100
AcDbLine
 10
-2.372095051523677
 20
9.062458940004577
 30
0.0
 11
-2.372095051523676
 21
18.60739676308278
 31
0.0
  0
TEXT
  5
154
330
1F
100
AcDbEntity
  8
DIM
  6
Continuous
 62
     1
370
    18
100
AcDbText
 10
-5.751591974387632
 20
18.45589067155311
 30
0.0
 40
0.15
  1
6.79
  7
AEC_TECH
100
AcDbText
  0
LINE
  5
155
330
1F
100
AcDbEntity
  8
DIM
  6
Continuous
 62
     1
370
    18
100
AcDbLine
 10
-9.162068099552272
 20
18.55739676308278
 30
0.0
 11
-5.801591974387631
 21
18.55739676308278
 31
0.0
  0
LINE
  5
156
330
1F
100
AcDbEntity
  8
DIM
  6
Continuous
 62
     1
370
    18
100
AcDbLine
 10
-5.257468126630307
 20
18.55739676308278
 30
0.0
 11
-2.372095051523677
 21
18.55739676308278
 31
0.0
  0
LINE
  5
157
330
1F
100
AcDbEntity
  8
DIM
  6
Continuous
 62
     1
370
    18
100
AcDbLine
 10
-11.2055347214545
 20
19.40101400123369
 30
0.0
 11
-11.01234955619669
 21
19.45277781025419
 31
0.0
  0
LINE
  5
158
330
1F
100
AcDbEntity
  8
DIM
  6
Continuous
 62
     1
370
    18
100
AcDbLine
 10
-11.2055347214545
 20
19.40101400123369
 30
0.0
 11
-11.01234955619669
 21
19.34925019221318
 31
0.0
  0
LINE
  5
159
330
1F
100
AcDbEntity
  8
DIM
  6
Continuous
 62
     1
370
    18
100
AcDbLine
 10
-2.372095051523677
 20
19.40101400123369
 30
0.0
 11
-2.565280216781491
 21
19.34925019221318
 31
0.0
  0
LINE
  5
15A
330
1F
100
AcDbEntity
  8
DIM
  6
Continuous
 62
     1
370
    18
100
AcDbLine
 10
-2.372095051523677
 20
19.40101400123369
 30
0.0
 11
-2.565280216781491
 21
19.45277781025419
 31
0.0
  0
LINE
  5
15B
330
1F
100
AcDbEntity
  8
DIM
  6
Continuous
 62
     1
370
    18
100
AcDbLine
 10
-11.2055347214545
 20
15.76267299975145
 30
0.0
 11
-11.2055347214545
 21
19.45101400123369
 31
0.0
  0
LINE
  5
15C
330
1F
100
AcDbEntity
  8
DIM
  6
Continuous
 62
     1
370
    18
100
AcDbLine
 10
-2.372095051523677
 20
9.062458940004577
 30
0.0
 11
-2.372095051523676
 21
19.45101400123369
 31
0.0
  0
TEXT
  5
15D
330
1F
100
AcDbEntity
  8
DIM
  6
Continuous
 62
     1
370
    18
100
AcDbText
 10
-7.636833452250793
 20
19.32241032684281
 30
0.0
 40
0.15
  1
8.83
  7
AEC_TECH
100
AcDbText
  0
LINE
  5
15E
330
1F
100
AcDbEntity
  8
DIM
  6
Continuous
 62
     1
370
    18
100
AcDbLine
 10
-11.2055347214545
 20
19.40101400123369
 30
0.0
 11
-7.686833452250793
 21
19.40101400123369
 31
0.0
  0
LINE
  5
15F
330
1F
100
AcDbEntity
  8
DIM
  6
Continuous
 62
     1
370
    18
100
AcDbLine
 10
-7.148500403436987
 20
19.40101400123369
 30
0.0
 11
-2.372095051523677
 21
19.40101400123369
 31
0.0
  0
LINE
  5
160
330
1F
100
AcDbEntity
  8
DIM
  6
Continuous
 62
     1
370
    18
100
AcDbLine
 10
-13.90520292178287
 20
19.83914293361132
 30
0.0
 11
-13.71201775652505
 21
19.89090674263182
 31
0.0
  0
LINE
  5
161
330
1F
100
AcDbEntity
  8
DIM
  6
Continuous
 62
     1
370
    18
100
AcDbLine
 10
-13.90520292178287
 20
19.83914293361132
 30
0.0
 11
-13.71201775652505
 21
19.78737912459082
 31
0.0
  0
LINE
  5
162
330
1F
100
AcDbEntity
  8
DIM
  6
Continuous
 62
     1
370
    18
100
AcDbLine
 10
-2.372095051523677
 20
19.83914293361132
 30
0.0
 11
-2.565280216781491
 21
19.78737912459082
 31
0.0
  0
LINE
  5
163
330
1F
100
AcDbEntity
  8
DIM
  6
Continuous
 62
     1
370
    18
100
AcDbLine
 10
-2.372095051523677
 20
19.83914293361132
 30
0.0
 11
-2.565280216781491
 21
19.89090674263182
 31
0.0
  0
LINE
  5
164
330
1F
100
AcDbEntity
  8
DIM
  6
Continuous
 62
     1
370
    18
100
AcDbLine
 10
-13.90520292178287
 20
12.10891214930643
 30
0.0
 11
-13.90520292178287
 21
19.88914293361132
 31
0.0
  0
LINE
  5
165
330
1F
100
AcDbEntity
  8
DIM
  6
Continuous
 62
     1
370
    18
100
AcDbLine
 10
-2.372095051523677
 20
9.062458940004577
 30
0.0
 11
-2.372095051523676
 21
19.88914293361132
 31
0.0
  0
TEXT
  5
166
330
1F
100
AcDbEntity
  8
DIM
  6
Continuous
 62
     1
370
    18
100
AcDbText
 10
-8.597806661841808
 20
19.76204351356157
 30
0.0
 40
0.15
  1
11.53
  7
AEC_TECH
100
AcDbText
  0
LINE
  5
167
330
1F
100
AcDbEntity
  8
DIM
  6
Continuous
 62
     1
370
    18
100
AcDbLine
 10
-13.90520292178287
 20
19.83914293361132
 30
0.0
 11
-8.647806661841809
 21
19.83914293361132
 31
0.0
  0
LINE
  5
168
330
1F
100
AcDbEntity
  8
DIM
  6
Continuous
 62
     1
370
    18
100
AcDbLine
 10
-8.075664071180892
 20
19.83914293361132
 30
0.0
 11
-2.372095051523677
 21
19.83914293361132
 31
0.0
  0
LINE
  5
169
330
1F
100
AcDbEntity
  8
DIM
  6
Continuous
 62
     1
370
    18
100
AcDbLine
 10
8.474117070302267
 20
7.943698499121269
 30
0.0
 11
8.367392695155616
 21
7.77455386352925
 31
0.0
  0
LINE
  5
16A
330
1F
100
AcDbEntity
  8
DIM
  6
Continuous
 62
     1
370
    18
100
AcDbLine
 10
8.474117070302267
 20
7.943698499121269
 30
0.0
 11
8.297118732426236
 21
7.850577135358045
 31
0.0
  0
TEXT
  5
16B
330
1F
100
AcDbEntity
  8
DIM
  6
Continuous
 62
     1
370
    18
100
AcDbText
 10
7.706940813690245
 20
7.333182247844661
 30
0.0
 40
0.15
  1
1.57
  7
AEC_TECH
100
AcDbText
  0
LINE
  5
16C
330
1F
100
AcDbEntity
  8
DIM
  6
Continuous
 62
     1
370
    18
100
AcDbLine
 10
7.320002767268625
 20
6.87686483666753
 30
0.0
 11
7.759562140312705
 21
7.283182247844104
 31
0.0
  0
LINE
  5
16D
330
1F
100
AcDbEntity
  8
DIM
  6
Continuous
 62
     1
370
    18
100
AcDbLine
 10
8.034557697258185
 20
7.537381087944694
 30
0.0
 11
8.474117070302267
 21
7.943698499121269
 31
0.0
  0
TEXT
  5
16F
330
1F
100
AcDbEntity
  8
DIM
  6
Continuous
 62
     1
370
    18
100
AcDbText
 10
-8.837606514924758
 20
16.41005085252053
 30
0.0
 40
0.25
  1
A
  7
MAIN
100
AcDbText
  0
TEXT
  5
170
330
1F
100
AcDbEntity
  8
DIM
  6
Continuous
 62
     1
370
    18
100
AcDbText
 10
-11.62594307644612
 20
15.16836972746805
 30
0.0
 40
0.25
  1
B
  7
MAIN
100
AcDbText
  0
TEXT
  5
171
330
1F
100
AcDbEntity
  8
DIM
  6
Continuous
 62
     1
370
    18
100
AcDbText
 10
-3.130230115560726
 20
12.90284627123195
 30
0.0
 40
0.25
  1
C
  7
MAIN
100
AcDbText
  0
TEXT
  5
172
330
1F
100
AcDbEntity
  8
DIM
  6
Continuous
 62
     1
370
    18
100
AcDbText
 10
-2.062820025603331
 20
10.13629358909747
 30
0.0
 40
0.25
  1
C
  7
MAIN
100
AcDbText
  0
TEXT
  5
173
330
1F
100
AcDbEntity
  8
DIM
  6
Continuous
 62
     1
370
    18
100
AcDbText
 10
-6.245324867885367
 20
4.341781672185899
 30
0.0
 40
0.25
  1
C
  7
MAIN
100
AcDbText
  0
TEXT
  5
174
330
1F
100
AcDbEntity
  8
DIM
  6
Continuous
 62
     1
370
    18
100
AcDbText
 10
-13.52114058310516
 20
6.912279439838402
 30
0.0
 40
0.25
  1
C
  7
MAIN
100
AcDbText
  0
TEXT
  5
175
330
1F
100
AcDbEntity
  8
DIM
  6
Continuous
 62
     1
370
    18
100
AcDbText
 10
-13.65184385942648
 20
12.22754601023849
 30
0.0
 40
0.25
  1
C
  7
MAIN
100
AcDbText
  0
TEXT
  5
176
330
1F
100
AcDbEntity
  8
DIM
  6
Continuous
 62
     1
370
    18
100
AcDbText
 10
-10.23177479568544
 20
15.56047955643199
 30
0.0
 40
0.25
  1
D
  7
MAIN
100
AcDbText
  0
TEXT
  5
177
330
1F
100
AcDbEntity
  8
DIM
  6
Continuous
 62
     1
370
    18
100
AcDbText
 10
-2.738120286596788
 20
9.199586775461391
 30
0.0
 40
0.25
  1
D
  7
MAIN
100
AcDbText
  0
TEXT
  5
178
330
1F
100
AcDbEntity
  8
DIM
  6
Continuous
 62
     1
370
    18
100
AcDbText
 10
-4.567966155095178
 20
15.19015360685494
 30
0.0
 40
0.25
  1
A
  7
MAIN
100
AcDbText
  0
TEXT
  5
179
330
1F
100
AcDbEntity
  8
DIM
  6
Continuous
 62
     1
370
    18
100
AcDbText
 10
-7.378086596003424
 20
15.80010222968774
 30
0.0
 40
0.25
  1
A
  7
MAIN
100
AcDbText
  0
TEXT
  5
17A
330
1F
100
AcDbEntity
  8
DIM
  6
Continuous
 62
     1
370
    18
100
AcDbText
 10
-14.54498291428879
 20
8.567854273241707
 30
0.0
 40
0.25
  1
A
  7
MAIN
100
AcDbText
  0
LINE
  5
17B
330
1F
100
AcDbEntity
  8
DIM
  6
Continuous
 62
     1
370
    18
100
AcDbLine
 10
-18.1611068925118
 20
8.992458940004577
 30
0.0
 11
-18.21287070153231
 21
9.185644105262391
 31
0.0
  0
LINE
  5
17C
330
1F
100
AcDbEntity
  8
DIM
  6
Continuous
 62
     1
370
    18
100
AcDbLine
 10
-18.1611068925118
 20
8.992458940004577
 30
0.0
 11
-18.1093430834913
 21
9.185644105262391
 31
0.0
  0
LINE
  5
17D
330
1F
100
AcDbEntity
  8
DIM
  6
Continuous
 62
     1
370
    18
100
AcDbLine
 10
-18.1611068925118
 20
16.95990917055445
 30
0.0
 11
-18.1093430834913
 21
16.76672400529664
 31
0.0
  0
LINE
  5
17E
330
1F
100
AcDbEntity
  8
DIM
  6
Continuous
 62
     1
370
    18
100
AcDbLine
 10
-18.1611068925118
 20
16.95990917055445
 30
0.0
 11
-18.21287070153231
 21
16.76672400529664
 31
0.0
  0
LINE
  5
17F
330
1F
100
AcDbEntity
  8
DIM
  6
Continuous
 62
     1
370
    18
100
AcDbLine
 10
-2.442095051523677
 20
8.992458940004577
 30
0.0
 11
-18.2111068925118
 21
8.992458940004578
 31
0.0
  0
LINE
  5
180
330
1F
100
AcDbEntity
  8
DIM
  6
Continuous
 62
     1
370
    18
100
AcDbLine
 10
-9.232068099552272
 20
16.95990917055445
 30
0.0
 11
-18.2111068925118
 21
16.95990917055445
 31
0.0
  0
TEXT
  5
181
330
1F
100
AcDbEntity
  8
DIM
  6
Continuous
 62
     1
370
    18
100
AcDbText
 10
-18.37857475259058
 20
13.34413880527995
 30
0.0
 40
0.15
  1
7.97
  7
AEC_TECH
100
AcDbText
  0
LINE
  5
182
330
1F
100
AcDbEntity
  8
DIM
  6
Continuous
 62
     1
370
    18
100
AcDbLine
 10
-18.1611068925118
 20
8.992458940004577
 30
0.0
 11
-18.1611068925118
 21
13.29413880527995
 31
0.0
  0
LINE
  5
183
330
1F
100
AcDbEntity
  8
DIM
  6
Continuous
 62
     1
370
    18
100
AcDbLine
 10
-18.1611068925118
 20
13.59715098833929
 30
0.0
 11
-18.1611068925118
 21
16.95990917055445
 31
0.0
  0
LINE
  5
184
330
1F
100
AcDbEntity
  8
DIM
  6
Continuous
 62
     1
370
    18
100
AcDbLine
 10
-17.52937439029212
 20
8.992458940004577
 30
0.0
 11
-17.58113819931262
 21
9.185644105262391
 31
0.0
  0
LINE
  5
185
330
1F
100
AcDbEntity
  8
DIM
  6
Continuous
 62
     1
370
    18
100
AcDbLine
 10
-17.52937439029212
 20
8.992458940004577
 30
0.0
 11
-17.47761058127162
 21
9.185644105262391
 31
0.0
  0
LINE
  5
186
330
1F
100
AcDbEntity
  8
DIM
  6
Continuous
 62
     1
370
    18
100
AcDbLine
 10
-17.52937439029212
 20
15.89424763517147
 30
0.0
 11
-17.47761058127162
 21
15.70106246991366
 31
0.0
  0
LINE
  5
187
330
1F
100
AcDbEntity
  8
DIM
  6
Continuous
 62
     1
370
    18
100
AcDbLine
 10
-17.52937439029212
 20
15.89424763517147
 30
0.0
 11
-17.58113819931262
 21
15.70106246991366
 31
0.0
  0
LINE
  5
188
330
1F
100
AcDbEntity
  8
DIM
  6
Continuous
 62
     1
370
    18
100
AcDbLine
 10
-2.442095051523677
 20
8.992458940004577
 30
0.0
 11
-17.57937439029212
 21
8.992458940004578
 31
0.0
  0
LINE
  5
189
330
1F
100
AcDbEntity
  8
DIM
  6
Continuous
 62
     1
370
    18
100
AcDbLine
 10
-10.64081911737145
 20
15.89424763517147
 30
0.0
 11
-17.57937439029212
 21
15.89424763517147
 31
0.0
  0
TEXT
  5
18A
330
1F
100
AcDbEntity
  8
DIM
  6
Continuous
 62
     1
370
    18
100
AcDbText
 10
-17.82323142509723
 20
12.71001749172543
 30
0.0
 40
0.15
  1
6.902
  7
AEC_TECH
100
AcDbText
  0
LINE
  5
18B
330
1F
100
AcDbEntity
  8
DIM
  6
Continuous
 62
     1
370
    18
100
AcDbLine
 10
-17.52937439029212
 20
8.992458940004577
 30
0.0
 11
-17.52937439029212
 21
12.66001749172543
 31
0.0
  0
LINE
  5
18C
330
1F
100
AcDbEntity
  8
DIM
  6
Continuous
 62
     1
370
    18
100
AcDbLine
 10
-17.52937439029212
 20
12.96346771861618
 30
0.0
 11
-17.52937439029212
 21
15.89424763517147
 31
0.0
  0
LINE
  5
18D
330
1F
100
AcDbEntity
  8
DIM
  6
Continuous
 62
     1
370
    18
100
AcDbLine
 10
-17.9273373463271
 20
12.96981690226773
 30
0.0
 11
-17.9273373463271
 21
12.64510095015697
 31
0.0
  0
LINE
  5
18E
330
1F
100
AcDbEntity
  8
DIM
  6
Continuous
 62
     1
370
    18
100
AcDbLine
 10
-17.9273373463271
 20
12.64510095015697
 30
0.0
 11
-17.1155474660502
 21
12.64510095015697
 31
0.0
  0
LINE
  5
18F
330
1F
100
AcDbEntity
  8
DIM
  6
Continuous
 62
     1
370
    18
100
AcDbLine
 10
-17.1155474660502
 20
12.96981690226773
 30
0.0
 11
-17.1155474660502
 21
12.64510095015697
 31
0.0
  0
LINE
  5
190
330
1F
100
AcDbEntity
  8
DIM
  6
Continuous
 62
     1
370
    18
100
AcDbLine
 10
-17.9273373463271
 20
12.96981690226773
 30
0.0
 11
-17.1155474660502
 21
12.96981690226773
 31
0.0
  0
LINE
  5
191
330
1F
100
AcDbEntity
  8
DIM
  6
Continuous
 62
     1
370
    18
100
AcDbLine
 10
-2.372095051523677
 20
7.64325607437806
 30
0.0
 11
-2.178909886265863
 21
7.695019883398564
 31
0.0
  0
LINE
  5
192
330
1F
100
AcDbEntity
  8
DIM
  6
Continuous
 62
     1
370
    18
100
AcDbLine
 10
-2.372095051523677
 20
7.64325607437806
 30
0.0
 11
-2.178909886265863
 21
7.591492265357556
 31
0.0
  0
LINE
  5
193
330
1F
100
AcDbEntity
  8
DIM
  6
Continuous
 62
     1
370
    18
100
AcDbLine
 10
-1.725660806832773
 20
7.64325607437806
 30
0.0
 11
-1.918845972090586
 21
7.591492265357556
 31
0.0
  0
LINE
  5
194
330
1F
100
AcDbEntity
  8
DIM
  6
Continuous
 62
     1
370
    18
100
AcDbLine
 10
-1.725660806832773
 20
7.64325607437806
 30
0.0
 11
-1.918845972090586
 21
7.695019883398564
 31
0.0
  0
LINE
  5
195
330
1F
100
AcDbEntity
  8
DIM
  6
Continuous
 62
     1
370
    18
100
AcDbLine
 10
-2.372095051523677
 20
8.922458940004576
 30
0.0
 11
-2.372095051523677
 21
7.59325607437806
 31
0.0
  0
LINE
  5
196
330
1F
100
AcDbEntity
  8
DIM
  6
Continuous
 62
     1
370
    18
100
AcDbLine
 10
-1.725660806832773
 20
8.406217622142188
 30
0.0
 11
-1.725660806832773
 21
7.59325607437806
 31
0.0
  0
TEXT
  5
197
330
1F
100
AcDbEntity
  8
DIM
  6
Continuous
 62
     1
370
    18
100
AcDbText
 10
-1.442856870185467
 20
7.56483517409666
 30
0.0
 40
0.15
  1
.646
  7
AEC_TECH
100
AcDbText
  0
LINE
  5
198
330
1F
100
AcDbEntity
  8
DIM
  6
Continuous
 62
     1
370
    18
100
AcDbLine
 10
-2.372095051523677
 20
7.64325607437806
 30
0.0
 11
-1.492856870185466
 21
7.64325607437806
 31
0.0
  0
LINE
  5
199
330
1F
100
AcDbEntity
  8
DIM
  6
Continuous
 62
     1
370
    18
100
AcDbLine
 10
-5.777147443445865
 20
3.231537708860092
 30
0.0
 11
-5.583962278188052
 21
3.283301517880596
 31
0.0
  0
LINE
  5
19A
330
1F
100
AcDbEntity
  8
DIM
  6
Continuous
 62
     1
370
    18
100
AcDbLine
 10
-5.777147443445865
 20
3.231537708860092
 30
0.0
 11
-5.583962278188052
 21
3.179773899839588
 31
0.0
  0
LINE
  5
19B
330
1F
100
AcDbEntity
  8
DIM
  6
Continuous
 62
     1
370
    18
100
AcDbLine
 10
-2.372095051523677
 20
3.231537708860091
 30
0.0
 11
-2.565280216781491
 21
3.179773899839587
 31
0.0
  0
LINE
  5
19C
330
1F
100
AcDbEntity
  8
DIM
  6
Continuous
 62
     1
370
    18
100
AcDbLine
 10
-2.372095051523677
 20
3.231537708860091
 30
0.0
 11
-2.565280216781491
 21
3.283301517880595
 31
0.0
  0
LINE
  5
19D
330
1F
100
AcDbEntity
  8
DIM
  6
Continuous
 62
     1
370
    18
100
AcDbLine
 10
-5.777147443445865
 20
4.138607613855607
 30
0.0
 11
-5.777147443445865
 21
3.181537708860092
 31
0.0
  0
LINE
  5
19E
330
1F
100
AcDbEntity
  8
DIM
  6
Continuous
 62
     1
370
    18
100
AcDbLine
 10
-2.372095051523677
 20
8.922458940004576
 30
0.0
 11
-2.372095051523678
 21
3.181537708860091
 31
0.0
  0
TEXT
  5
19F
330
1F
100
AcDbEntity
  8
DIM
  6
Continuous
 62
     1
370
    18
100
AcDbText
 10
-4.272201036502419
 20
3.154438288810339
 30
0.0
 40
0.15
  1
3.41
  7
AEC_TECH
100
AcDbText
  0
LINE
  5
1A0
330
1F
100
AcDbEntity
  8
DIM
  6
Continuous
 62
     1
370
    18
100
AcDbLine
 10
-5.777147443445865
 20
3.231537708860092
 30
0.0
 11
-4.322201036502419
 21
3.231537708860091
 31
0.0
  0
LINE
  5
1A1
330
1F
100
AcDbEntity
  8
DIM
  6
Continuous
 62
     1
370
    18
100
AcDbLine
 10
-3.827041458467123
 20
3.231537708860091
 30
0.0
 11
-2.372095051523677
 21
3.231537708860091
 31
0.0
  0
LINE
  5
1A2
330
1F
100
AcDbEntity
  8
DIM
  6
Continuous
 62
     1
370
    18
100
AcDbLine
 10
-13.9565417849975
 20
2.307892763231006
 30
0.0
 11
-13.76335661973968
 21
2.35965657225151
 31
0.0
  0
LINE
  5
1A3
330
1F
100
AcDbEntity
  8
DIM
  6
Continuous
 62
     1
370
    18
100
AcDbLine
 10
-13.9565417849975
 20
2.307892763231006
 30
0.0
 11
-13.76335661973968
 21
2.256128954210502
 31
0.0
  0
LINE
  5
1A4
330
1F
100
AcDbEntity
  8
DIM
  6
Continuous
 62
     1
370
    18
100
AcDbLine
 10
-2.372095051523677
 20
2.307892763231005
 30
0.0
 11
-2.565280216781491
 21
2.256128954210501
 31
0.0
  0
LINE
  5
1A5
330
1F
100
AcDbEntity
  8
DIM
  6
Continuous
 62
     1
370
    18
100
AcDbLine
 10
-2.372095051523677
 20
2.307892763231005
 30
0.0
 11
-2.565280216781491
 21
2.35965657225151
 31
0.0
  0
LINE
  5
1A6
330
1F
100
AcDbEntity
  8
DIM
  6
Continuous
 62
     1
370
    18
100
AcDbLine
 10
-13.9565417849975
 20
8.479503577485241
 30
0.0
 11
-13.9565417849975
 21
2.257892763231006
 31
0.0
  0
LINE
  5
1A7
330
1F
100
AcDbEntity
  8
DIM
  6
Continuous
 62
     1
370
    18
100
AcDbLine
 10
-2.372095051523677
 20
8.922458940004576
 30
0.0
 11
-2.372095051523678
 21
2.257892763231006
 31
0.0
  0
TEXT
  5
1A8
330
1F
100
AcDbEntity
  8
DIM
  6
Continuous
 62
     1
370
    18
100
AcDbText
 10
-8.606024391917044
 20
2.229289088840127
 30
0.0
 40
0.15
  1
11.58
  7
AEC_TECH
100
AcDbText
  0
LINE
  5
1A9
330
1F
100
AcDbEntity
  8
DIM
  6
Continuous
 62
     1
370
    18
100
AcDbLine
 10
-13.9565417849975
 20
2.307892763231006
 30
0.0
 11
-8.656024391917045
 21
2.307892763231006
 31
0.0
  0
LINE
  5
1AA
330
1F
100
AcDbEntity
  8
DIM
  6
Continuous
 62
     1
370
    18
100
AcDbLine
 10
-8.080676856683656
 20
2.307892763231006
 30
0.0
 11
-2.372095051523677
 21
2.307892763231005
 31
0.0
  0
LINE
  5
1AB
330
1F
100
AcDbEntity
  8
DIM
  6
Continuous
 62
     1
370
    18
100
AcDbLine
 10
-13.16230300062203
 20
2.798579140596459
 30
0.0
 11
-12.96911783536421
 21
2.850342949616963
 31
0.0
  0
LINE
  5
1AC
330
1F
100
AcDbEntity
  8
DIM
  6
Continuous
 62
     1
370
    18
100
AcDbLine
 10
-13.16230300062203
 20
2.798579140596459
 30
0.0
 11
-12.96911783536421
 21
2.746815331575955
 31
0.0
  0
LINE
  5
1AD
330
1F
100
AcDbEntity
  8
DIM
  6
Continuous
 62
     1
370
    18
100
AcDbLine
 10
-2.372095051523677
 20
2.798579140596457
 30
0.0
 11
-2.565280216781491
 21
2.746815331575953
 31
0.0
  0
LINE
  5
1AE
330
1F
100
AcDbEntity
  8
DIM
  6
Continuous
 62
     1
370
    18
100
AcDbLine
 10
-2.372095051523677
 20
2.798579140596457
 30
0.0
 11
-2.565280216781491
 21
2.850342949616961
 31
0.0
  0
LINE
  5
1AF
330
1F
100
AcDbEntity
  8
DIM
  6
Continuous
 62
     1
370
    18
100
AcDbLine
 10
-13.16230300062203
 20
6.603272520487262
 30
0.0
 11
-13.16230300062203
 21
2.748579140596459
 31
0.0
  0
LINE
  5
1B0
330
1F
100
AcDbEntity
  8
DIM
  6
Continuous
 62
     1
370
    18
100
AcDbLine
 10
-2.372095051523677
 20
8.922458940004576
 30
0.0
 11
-2.372095051523678
 21
2.748579140596458
 31
0.0
  0
TEXT
  5
1B1
330
1F
100
AcDbEntity
  8
DIM
  6
Continuous
 62
     1
370
    18
100
AcDbText
 10
-7.196357999460636
 20
2.697073049066789
 30
0.0
 40
0.15
  1
10.79
  7
AEC_TECH
100
AcDbText
  0
LINE
  5
1B2
330
1F
100
AcDbEntity
  8
DIM
  6
Continuous
 62
     1
370
    18
100
AcDbLine
 10
-13.16230300062203
 20
2.798579140596459
 30
0.0
 11
-7.246357999460638
 21
2.798579140596458
 31
0.0
  0
LINE
  5
1B3
330
1F
100
AcDbEntity
  8
DIM
  6
Continuous
 62
     1
370
    18
100
AcDbLine
 10
-6.603952794049171
 20
2.798579140596458
 30
0.0
 11
-2.372095051523677
 21
2.798579140596457
 31
0.0
  0
LINE
  5
1B4
330
1F
100
AcDbEntity
  8
DIM
  6
Continuous
 62
     1
370
    18
100
AcDbLine
 10
0.8087783801457849
 20
8.992458940004577
 30
0.0
 11
0.7570145711252807
 21
9.185644105262391
 31
0.0
  0
LINE
  5
1B5
330
1F
100
AcDbEntity
  8
DIM
  6
Continuous
 62
     1
370
    18
100
AcDbLine
 10
0.8087783801457849
 20
8.992458940004577
 30
0.0
 11
0.860542189166289
 21
9.185644105262391
 31
0.0
  0
LINE
  5
1B6
330
1F
100
AcDbEntity
  8
DIM
  6
Continuous
 62
     1
370
    18
100
AcDbLine
 10
0.8087783801457853
 20
16.15031420833225
 30
0.0
 11
0.8605421891662893
 21
15.95712904307443
 31
0.0
  0
LINE
  5
1B7
330
1F
100
AcDbEntity
  8
DIM
  6
Continuous
 62
     1
370
    18
100
AcDbLine
 10
0.8087783801457853
 20
16.15031420833225
 30
0.0
 11
0.7570145711252811
 21
15.95712904307443
 31
0.0
  0
LINE
  5
1B8
330
1F
100
AcDbEntity
  8
DIM
  6
Continuous
 62
     1
370
    18
100
AcDbLine
 10
-2.302095051523677
 20
8.992458940004577
 30
0.0
 11
0.8587783801457847
 21
8.992458940004577
 31
0.0
  0
LINE
  5
1B9
330
1F
100
AcDbEntity
  8
DIM
  6
Continuous
 62
     1
370
    18
100
AcDbLine
 10
-6.722311082354998
 20
16.15031420833225
 30
0.0
 11
0.8587783801457851
 21
16.15031420833225
 31
0.0
  0
TEXT
  5
1BA
330
1F
100
AcDbEntity
  8
DIM
  6
Continuous
 62
     1
370
    18
100
AcDbText
 10
0.6127707425692017
 20
12.64934140582772
 30
0.0
 40
0.15
  1
7.16
  7
AEC_TECH
100
AcDbText
  0
LINE
  5
1BB
330
1F
100
AcDbEntity
  8
DIM
  6
Continuous
 62
     1
370
    18
100
AcDbLine
 10
0.8087783801457849
 20
8.992458940004577
 30
0.0
 11
0.8087783801457851
 21
12.59934140582769
 31
0.0
  0
LINE
  5
1BC
330
1F
100
AcDbEntity
  8
DIM
  6
Continuous
 62
     1
370
    18
100
AcDbLine
 10
0.8087783801457851
 20
12.85618320639058
 30
0.0
 11
0.8087783801457853
 21
16.15031420833225
 31
0.0
  0
LINE
  5
1BD
330
1F
100
AcDbEntity
  8
DIM
  6
Continuous
 62
     1
370
    18
100
AcDbLine
 10
-17.52830890924737
 20
19.4144721396833
 30
0.0
 11
-14.87690138348006
 21
19.4144721396833
 31
0.0
  0
TEXT
  5
1BE
330
1F
100
AcDbEntity
  8
DIM
  6
Continuous
 62
    53
370
    18
100
AcDbText
 10
-9.769626999199064
 20
20.489827016588
 30
0.0
 40
0.15
  1
FLYWHEEL/CLUTCH SIDE
  7
MAIN
100
AcDbText
  0
TEXT
  5
1C0
330
1F
100
AcDbEntity
  8
DIM
  6
Continuous
 62
    93
370
    18
100
AcDbText
 10
-1.061439456415924
 20
21.12225165412672
 30
0.0
 40
0.125
  1
ELECTRO AUTOMOTIVE
  7
ENGINEER
100
AcDbText
  0
TEXT
  5
1C1
330
1F
100
AcDbEntity
  8
DIM
  6
Continuous
 62
    93
370
    18
100
AcDbText
 10
-1.061439456415924
 20
20.93475165412672
 30
0.0
 40
0.125
  1
P.O. BOX 1113 FELTON CA. 95018-1113
  7
ENGINEER
100
AcDbText
  0
LINE
  5
1C2
330
1F
100
AcDbEntity
  8
DIM
  6
Continuous
 62
    93
370
    18
100
AcDbLine
 10
-1.194185795260223
 20
21.35974707649
 30
0.0
 11
2.372265396641938
 21
21.35974707649
 31
0.0
  0
LINE
  5
1C3
330
1F
100
AcDbEntity
  8
DIM
  6
Continuous
 62
    93
370
    18
100
AcDbLine
 10
2.372265396641938
 20
21.35974707649
 30
0.0
 11
2.372265396641938
 21
20.45976271674879
 31
0.0
  0
LINE
  5
1C4
330
1F
100
AcDbEntity
  8
DIM
  6
Continuous
 62
    93
370
    18
100
AcDbLine
 10
2.372265396641938
 20
20.45976271674879
 30
0.0
 11
-1.194185795260223
 21
20.45976271674879
 31
0.0
  0
LINE
  5
1C5
330
1F
100
AcDbEntity
  8
DIM
  6
Continuous
 62
    93
370
    18
100
AcDbLine
 10
-1.194185795260223
 20
20.45976271674879
 30
0.0
 11
-1.194185795260223
 21
21.35974707649
 31
0.0
  0
TEXT
  5
1C6
330
1F
100
AcDbEntity
  8
DIM
  6
Continuous
 62
    93
370
    18
100
AcDbText
 10
-1.061439456415924
 20
20.74725165412672
 30
0.0
 40
0.125
  1
PHONE 831-429-1989 FAX 831-429-1907
  7
ENGINEER
100
AcDbText
  0
TEXT
  5
1C7
330
1F
100
AcDbEntity
  8
DIM
  6
Continuous
 62
    93
370
    18
100
AcDbText
 10
-1.061439456415924
 20
20.55975165412672
 30
0.0
 40
0.125
  1
DRAWN BY DAN SULLIVAN
  7
ENGINEER
100
AcDbText
  0
TEXT
  5
1C8
330
1F
100
AcDbEntity
  8
DIM
  6
Continuous
 62
    53
370
    18
100
AcDbText
 10
3.078189976653418
 20
21.07378092382386
 30
0.0
 40
0.2
  1
ADAPTER, 2000 TOYOTA COROLLA
  7
MAIN
100
AcDbText
  0
TEXT
  5
1C9
330
1F
100
AcDbEntity
  8
DIM
  6
Continuous
 62
    53
370
    18
100
AcDbText
 10
3.078189976653418
 20
20.47378092382386
 30
0.0
 40
0.2
  1
3/19/09   REV A
  7
MAIN
100
AcDbText
  0
TEXT
  5
1CA
330
1F
100
AcDbEntity
  8
DIM
  6
Continuous
 62
    53
370
    18
100
AcDbText
 10
13.23490492787538
 20
19.68163768916255
 30
0.0
 40
0.15
  1
MOTOR / RING SIDE
  7
MAIN
100
AcDbText
  0
LINE
  5
1CB
330
1F
100
AcDbEntity
  8
DIM
  6
Continuous
 62
     1
370
    18
100
AcDbLine
 10
-10.90837422478034
 20
12.91848630631292
 30
0.0
 11
-11.05962702907452
 21
13.04933961805223
 31
0.0
  0
LINE
  5
1CC
330
1F
100
AcDbEntity
  8
DIM
  6
Continuous
 62
     1
370
    18
100
AcDbLine
 10
-10.90837422478034
 20
12.91848630631292
 30
0.0
 11
-10.97393633982308
 21
13.10743500059558
 31
0.0
  0
LINE
  5
1CD
330
1F
100
AcDbEntity
  8
DIM
  6
Continuous
 62
     1
370
    18
100
AcDbLine
 10
-10.90837422478034
 20
12.91848630631292
 30
0.0
 11
-12.0629304068167
 21
14.62145667481655
 31
0.0
  0
LINE
  5
1CE
330
1F
100
AcDbEntity
  8
DIM
  6
Continuous
 62
     1
370
    18
100
AcDbLine
 10
-12.0629304068167
 20
14.62145667481655
 30
0.0
 11
-12.2629304068167
 21
14.62145667481655
 31
0.0
  0
TEXT
  5
1CF
330
1F
100
AcDbEntity
  8
DIM
  6
Continuous
 62
     1
370
    18
100
AcDbText
 10
-13.00570409496433
 20
14.52145667481655
 30
0.0
 40
0.2
  1
6X E
  7
AEC_TECH
100
AcDbText
  0
LINE
  5
1D0
330
1F
100
AcDbEntity
  8
DIM
  6
Continuous
 62
     1
370
    18
100
AcDbLine
 10
11.16550735598736
 20
2.359905866683027
 30
0.0
 11
11.35869252124518
 21
2.411669675703531
 31
0.0
  0
LINE
  5
1D1
330
1F
100
AcDbEntity
  8
DIM
  6
Continuous
 62
     1
370
    18
100
AcDbLine
 10
11.16550735598736
 20
2.359905866683027
 30
0.0
 11
11.35869252124518
 21
2.308142057662523
 31
0.0
  0
LINE
  5
1D2
330
1F
100
AcDbEntity
  8
DIM
  6
Continuous
 62
     1
370
    18
100
AcDbLine
 10
16.42427214968953
 20
2.359905866683027
 30
0.0
 11
16.23108698443172
 21
2.308142057662523
 31
0.0
  0
LINE
  5
1D3
330
1F
100
AcDbEntity
  8
DIM
  6
Continuous
 62
     1
370
    18
100
AcDbLine
 10
16.42427214968953
 20
2.359905866683027
 30
0.0
 11
16.23108698443172
 21
2.411669675703531
 31
0.0
  0
LINE
  5
1D4
330
1F
100
AcDbEntity
  8
DIM
  6
Continuous
 62
     1
370
    18
100
AcDbLine
 10
11.16550735598736
 20
3.557846998937805
 30
0.0
 11
11.16550735598736
 21
2.309905866683027
 31
0.0
  0
LINE
  5
1D5
330
1F
100
AcDbEntity
  8
DIM
  6
Continuous
 62
     1
370
    18
100
AcDbLine
 10
16.42427214968953
 20
3.61493734955434
 30
0.0
 11
16.42427214968953
 21
2.309905866683027
 31
0.0
  0
TEXT
  5
1D6
330
1F
100
AcDbEntity
  8
DIM
  6
Continuous
 62
     1
370
    18
100
AcDbText
 10
13.58211621564387
 20
2.281206765202363
 30
0.0
 40
0.15
  1
5.26
  7
AEC_TECH
100
AcDbText
  0
LINE
  5
1D7
330
1F
100
AcDbEntity
  8
DIM
  6
Continuous
 62
     1
370
    18
100
AcDbLine
 10
11.16550735598736
 20
2.359905866683027
 30
0.0
 11
13.53211621564387
 21
2.359905866683027
 31
0.0
  0
LINE
  5
1D8
330
1F
100
AcDbEntity
  8
DIM
  6
Continuous
 62
     1
370
    18
100
AcDbLine
 10
14.05766329003302
 20
2.359905866683027
 30
0.0
 11
16.42427214968953
 21
2.359905866683027
 31
0.0
  0
LINE
  5
1D9
330
1F
100
AcDbEntity
  8
DIM
  6
Continuous
 62
     1
370
    18
100
AcDbLine
 10
7.365507355987363
 20
2.364283330880322
 30
0.0
 11
7.558692521245177
 21
2.416047139900826
 31
0.0
  0
LINE
  5
1DA
330
1F
100
AcDbEntity
  8
DIM
  6
Continuous
 62
     1
370
    18
100
AcDbLine
 10
7.365507355987363
 20
2.364283330880322
 30
0.0
 11
7.558692521245177
 21
2.312519521859818
 31
0.0
  0
LINE
  5
1DB
330
1F
100
AcDbEntity
  8
DIM
  6
Continuous
 62
     1
370
    18
100
AcDbLine
 10
11.16550735598736
 20
2.364283330880322
 30
0.0
 11
10.97232219072955
 21
2.312519521859818
 31
0.0
  0
LINE
  5
1DC
330
1F
100
AcDbEntity
  8
DIM
  6
Continuous
 62
     1
370
    18
100
AcDbLine
 10
11.16550735598736
 20
2.364283330880322
 30
0.0
 11
10.97232219072955
 21
2.416047139900826
 31
0.0
  0
LINE
  5
1DD
330
1F
100
AcDbEntity
  8
DIM
  6
Continuous
 62
     1
370
    18
100
AcDbLine
 10
7.365507355987363
 20
8.406217622142181
 30
0.0
 11
7.365507355987362
 21
2.314283330880322
 31
0.0
  0
LINE
  5
1DE
330
1F
100
AcDbEntity
  8
DIM
  6
Continuous
 62
     1
370
    18
100
AcDbLine
 10
11.16550735598736
 20
3.557846998937805
 30
0.0
 11
11.16550735598736
 21
2.314283330880322
 31
0.0
  0
TEXT
  5
1DF
330
1F
100
AcDbEntity
  8
DIM
  6
Continuous
 62
     1
370
    18
100
AcDbText
 10
9.040160751474993
 20
2.285679656489443
 30
0.0
 40
0.15
  1
3.80
  7
AEC_TECH
100
AcDbText
  0
LINE
  5
1E0
330
1F
100
AcDbEntity
  8
DIM
  6
Continuous
 62
     1
370
    18
100
AcDbLine
 10
7.365507355987363
 20
2.364283330880322
 30
0.0
 11
8.990160751474992
 21
2.364283330880322
 31
0.0
  0
LINE
  5
1E1
330
1F
100
AcDbEntity
  8
DIM
  6
Continuous
 62
     1
370
    18
100
AcDbLine
 10
9.540853960499733
 20
2.364283330880322
 30
0.0
 11
11.16550735598736
 21
2.364283330880322
 31
0.0
  0
LINE
  5
1E2
330
1F
100
AcDbEntity
  8
DIM
  6
Continuous
 62
     1
370
    18
100
AcDbLine
 10
7.320002767268625
 20
6.155338320432348
 30
0.0
 11
7.126817602010813
 21
6.10357451141184
 31
0.0
  0
LINE
  5
1E3
330
1F
100
AcDbEntity
  8
DIM
  6
Continuous
 62
     1
370
    18
100
AcDbLine
 10
7.320002767268625
 20
6.155338320432348
 30
0.0
 11
7.126817602010811
 21
6.207102129452848
 31
0.0
  0
LINE
  5
1E4
330
1F
100
AcDbEntity
  8
DIM
  6
Continuous
 62
     1
370
    18
100
AcDbLine
 10
7.365507355987364
 20
6.155338320432349
 30
0.0
 11
7.558692521245177
 21
6.207102129452856
 31
0.0
  0
LINE
  5
1E5
330
1F
100
AcDbEntity
  8
DIM
  6
Continuous
 62
     1
370
    18
100
AcDbLine
 10
7.365507355987364
 20
6.155338320432349
 30
0.0
 11
7.558692521245178
 21
6.103574511411848
 31
0.0
  0
LINE
  5
1E6
330
1F
100
AcDbEntity
  8
DIM
  6
Continuous
 62
     1
370
    18
100
AcDbLine
 10
7.320002767268625
 20
6.80686483666753
 30
0.0
 11
7.320002767268625
 21
6.105338320432348
 31
0.0
  0
LINE
  5
1E7
330
1F
100
AcDbEntity
  8
DIM
  6
Continuous
 62
     1
370
    18
100
AcDbLine
 10
7.365507355987364
 20
8.406217622142183
 30
0.0
 11
7.365507355987364
 21
6.105338320432349
 31
0.0
  0
TEXT
  5
1E8
330
1F
100
AcDbEntity
  8
DIM
  6
Continuous
 62
     1
370
    18
100
AcDbText
 10
6.478531664603347
 20
6.076915820319726
 30
0.0
 40
0.15
  1
.05
  7
AEC_TECH
100
AcDbText
  0
LINE
  5
1E9
330
1F
100
AcDbEntity
  8
DIM
  6
Continuous
 62
     1
370
    18
100
AcDbLine
 10
7.320002767268625
 20
6.155338320432348
 30
0.0
 11
6.920002767268625
 21
6.15533832043234
 31
0.0
  0
LINE
  5
1EA
330
1F
100
AcDbEntity
  8
DIM
  6
Continuous
 62
     1
370
    18
100
AcDbLine
 10
7.365507355987364
 20
6.155338320432349
 30
0.0
 11
7.765507355987364
 21
6.155338320432357
 31
0.0
  0
LINE
  5
1EB
330
1F
100
AcDbEntity
  8
DIM
  6
Continuous
 62
     1
370
    18
100
AcDbLine
 10
6.381104601214123
 20
6.611594311518587
 30
0.0
 11
6.329340792193618
 21
6.804779476776401
 31
0.0
  0
LINE
  5
1EC
330
1F
100
AcDbEntity
  8
DIM
  6
Continuous
 62
     1
370
    18
100
AcDbLine
 10
6.381104601214123
 20
6.611594311518587
 30
0.0
 11
6.432868410234627
 21
6.804779476776401
 31
0.0
  0
LINE
  5
1ED
330
1F
100
AcDbEntity
  8
DIM
  6
Continuous
 62
     1
370
    18
100
AcDbLine
 10
6.381104601214124
 20
8.476217622142181
 30
0.0
 11
6.432868410234628
 21
8.283032456884367
 31
0.0
  0
LINE
  5
1EE
330
1F
100
AcDbEntity
  8
DIM
  6
Continuous
 62
     1
370
    18
100
AcDbLine
 10
6.381104601214124
 20
8.476217622142181
 30
0.0
 11
6.329340792193619
 21
8.283032456884367
 31
0.0
  0
LINE
  5
1EF
330
1F
100
AcDbEntity
  8
DIM
  6
Continuous
 62
     1
370
    18
100
AcDbLine
 10
8.827859398425968
 20
6.611594311518587
 30
0.0
 11
6.331104601214123
 21
6.611594311518587
 31
0.0
  0
LINE
  5
1F0
330
1F
100
AcDbEntity
  8
DIM
  6
Continuous
 62
     1
370
    18
100
AcDbLine
 10
7.295507355987363
 20
8.476217622142181
 30
0.0
 11
6.331104601214124
 21
8.476217622142181
 31
0.0
  0
TEXT
  5
1F1
330
1F
100
AcDbEntity
  8
DIM
  6
Continuous
 62
     1
370
    18
100
AcDbText
 10
5.931251488623675
 20
7.465302292439617
 30
0.0
 40
0.15
  1
REF 1.86
  7
AEC_TECH
100
AcDbText
  0
LINE
  5
1F2
330
1F
100
AcDbEntity
  8
DIM
  6
Continuous
 62
     1
370
    18
100
AcDbLine
 10
6.381104601214123
 20
6.611594311518587
 30
0.0
 11
6.381104601214123
 21
7.415302292438907
 31
0.0
  0
LINE
  5
1F3
330
1F
100
AcDbEntity
  8
DIM
  6
Continuous
 62
     1
370
    18
100
AcDbLine
 10
6.381104601214124
 20
7.67250964122186
 30
0.0
 11
6.381104601214124
 21
8.476217622142181
 31
0.0
  0
LINE
  5
1F4
330
1F
100
AcDbEntity
  8
DIM
  6
Continuous
 62
     1
370
    18
100
AcDbLine
 10
6.381104601214122
 20
15.48396694243535
 30
0.0
 11
6.329340792193618
 21
15.67715210769317
 31
0.0
  0
LINE
  5
1F5
330
1F
100
AcDbEntity
  8
DIM
  6
Continuous
 62
     1
370
    18
100
AcDbLine
 10
6.381104601214122
 20
15.48396694243535
 30
0.0
 11
6.432868410234626
 21
15.67715210769317
 31
0.0
  0
LINE
  5
1F6
330
1F
100
AcDbEntity
  8
DIM
  6
Continuous
 62
     1
370
    18
100
AcDbLine
 10
6.381104601214121
 20
17.48396694243535
 30
0.0
 11
6.432868410234625
 21
17.29078177717754
 31
0.0
  0
LINE
  5
1F7
330
1F
100
AcDbEntity
  8
DIM
  6
Continuous
 62
     1
370
    18
100
AcDbLine
 10
6.381104601214121
 20
17.48396694243535
 30
0.0
 11
6.329340792193617
 21
17.29078177717754
 31
0.0
  0
LINE
  5
1F8
330
1F
100
AcDbEntity
  8
DIM
  6
Continuous
 62
     1
370
    18
100
AcDbLine
 10
7.295507355987363
 20
15.48396694243535
 30
0.0
 11
6.331104601214122
 21
15.48396694243535
 31
0.0
  0
LINE
  5
1F9
330
1F
100
AcDbEntity
  8
DIM
  6
Continuous
 62
     1
370
    18
100
AcDbLine
 10
14.49550735598736
 20
17.48396694243535
 30
0.0
 11
6.33110460121412
 21
17.48396694243535
 31
0.0
  0
TEXT
  5
1FA
330
1F
100
AcDbEntity
  8
DIM
  6
Continuous
 62
     1
370
    18
100
AcDbText
 10
6.15401148516332
 20
16.40526784095469
 30
0.0
 40
0.15
  1
2.00
  7
AEC_TECH
100
AcDbText
  0
LINE
  5
1FB
330
1F
100
AcDbEntity
  8
DIM
  6
Continuous
 62
     1
370
    18
100
AcDbLine
 10
6.381104601214122
 20
15.48396694243535
 30
0.0
 11
6.381104601214122
 21
16.35526784095507
 31
0.0
  0
LINE
  5
1FC
330
1F
100
AcDbEntity
  8
DIM
  6
Continuous
 62
     1
370
    18
100
AcDbLine
 10
6.381104601214121
 20
16.61266604391564
 30
0.0
 11
6.381104601214121
 21
17.48396694243535
 31
0.0
  0
LINE
  5
1FD
330
1F
100
AcDbEntity
  8
DIM
  6
Continuous
 62
     1
370
    18
100
AcDbLine
 10
4.966773278219584
 20
3.627846998937806
 30
0.0
 11
4.91500946919908
 21
3.82103216419562
 31
0.0
  0
LINE
  5
1FE
330
1F
100
AcDbEntity
  8
DIM
  6
Continuous
 62
     1
370
    18
100
AcDbLine
 10
4.966773278219584
 20
3.627846998937806
 30
0.0
 11
5.018537087240088
 21
3.82103216419562
 31
0.0
  0
LINE
  5
1FF
330
1F
100
AcDbEntity
  8
DIM
  6
Continuous
 62
     1
370
    18
100
AcDbLine
 10
4.966773278219584
 20
17.48396694243535
 30
0.0
 11
5.018537087240088
 21
17.29078177717754
 31
0.0
  0
LINE
  5
200
330
1F
100
AcDbEntity
  8
DIM
  6
Continuous
 62
     1
370
    18
100
AcDbLine
 10
4.966773278219584
 20
17.48396694243535
 30
0.0
 11
4.91500946919908
 21
17.29078177717754
 31
0.0
  0
LINE
  5
201
330
1F
100
AcDbEntity
  8
DIM
  6
Continuous
 62
     1
370
    18
100
AcDbLine
 10
11.09550735598736
 20
3.627846998937805
 30
0.0
 11
4.916773278219584
 21
3.627846998937806
 31
0.0
  0
LINE
  5
202
330
1F
100
AcDbEntity
  8
DIM
  6
Continuous
 62
     1
370
    18
100
AcDbLine
 10
14.49550735598736
 20
17.48396694243535
 30
0.0
 11
4.916773278219583
 21
17.48396694243535
 31
0.0
  0
TEXT
  5
203
330
1F
100
AcDbEntity
  8
DIM
  6
Continuous
 62
     1
370
    18
100
AcDbText
 10
4.700717041254986
 20
10.4773032962957
 30
0.0
 40
0.15
  1
13.86
  7
AEC_TECH
100
AcDbText
  0
LINE
  5
204
330
1F
100
AcDbEntity
  8
DIM
  6
Continuous
 62
     1
370
    18
100
AcDbLine
 10
4.966773278219584
 20
3.627846998937806
 30
0.0
 11
4.966773278219584
 21
10.42730329629514
 31
0.0
  0
LINE
  5
205
330
1F
100
AcDbEntity
  8
DIM
  6
Continuous
 62
     1
370
    18
100
AcDbLine
 10
4.966773278219584
 20
10.68451064507802
 30
0.0
 11
4.966773278219584
 21
17.48396694243535
 31
0.0
  0
LINE
  5
206
330
1F
100
AcDbEntity
  8
DIM
  6
Continuous
 62
     1
370
    18
100
AcDbLine
 10
5.659506987441399
 20
6.87686483666753
 30
0.0
 11
5.607743178420895
 21
7.070050001925344
 31
0.0
  0
LINE
  5
207
330
1F
100
AcDbEntity
  8
DIM
  6
Continuous
 62
     1
370
    18
100
AcDbLine
 10
5.659506987441399
 20
6.87686483666753
 30
0.0
 11
5.711270796461903
 21
7.070050001925344
 31
0.0
  0
LINE
  5
208
330
1F
100
AcDbEntity
  8
DIM
  6
Continuous
 62
     1
370
    18
100
AcDbLine
 10
5.6595069874414
 20
17.48396694243535
 30
0.0
 11
5.711270796461904
 21
17.29078177717754
 31
0.0
  0
LINE
  5
209
330
1F
100
AcDbEntity
  8
DIM
  6
Continuous
 62
     1
370
    18
100
AcDbLine
 10
5.6595069874414
 20
17.48396694243535
 30
0.0
 11
5.607743178420896
 21
17.29078177717754
 31
0.0
  0
LINE
  5
20A
330
1F
100
AcDbEntity
  8
DIM
  6
Continuous
 62
     1
370
    18
100
AcDbLine
 10
7.250002767268625
 20
6.87686483666753
 30
0.0
 11
5.609506987441399
 21
6.87686483666753
 31
0.0
  0
LINE
  5
20B
330
1F
100
AcDbEntity
  8
DIM
  6
Continuous
 62
     1
370
    18
100
AcDbLine
 10
14.49550735598736
 20
17.48396694243535
 30
0.0
 11
5.609506987441399
 21
17.48396694243535
 31
0.0
  0
TEXT
  5
20C
330
1F
100
AcDbEntity
  8
DIM
  6
Continuous
 62
     1
370
    18
100
AcDbText
 10
5.409764607237857
 20
12.49369695158945
 30
0.0
 40
0.15
  1
10.61
  7
AEC_TECH
100
AcDbText
  0
LINE
  5
20D
330
1F
100
AcDbEntity
  8
DIM
  6
Continuous
 62
     1
370
    18
100
AcDbLine
 10
5.659506987441399
 20
6.87686483666753
 30
0.0
 11
5.6595069874414
 21
12.44369695158899
 31
0.0
  0
LINE
  5
20E
330
1F
100
AcDbEntity
  8
DIM
  6
Continuous
 62
     1
370
    18
100
AcDbLine
 10
5.6595069874414
 20
12.70054195181504
 30
0.0
 11
5.6595069874414
 21
17.48396694243535
 31
0.0
  0
LINE
  5
20F
330
1F
100
AcDbEntity
  8
DIM
  6
Continuous
 62
     1
370
    18
100
AcDbLine
 10
6.381104601214123
 20
8.476217622142181
 30
0.0
 11
6.329340792193618
 21
8.669402787399996
 31
0.0
  0
LINE
  5
210
330
1F
100
AcDbEntity
  8
DIM
  6
Continuous
 62
     1
370
    18
100
AcDbLine
 10
6.381104601214123
 20
8.476217622142181
 30
0.0
 11
6.432868410234627
 21
8.669402787399996
 31
0.0
  0
LINE
  5
211
330
1F
100
AcDbEntity
  8
DIM
  6
Continuous
 62
     1
370
    18
100
AcDbLine
 10
6.381104601214123
 20
15.48396694243535
 30
0.0
 11
6.432868410234627
 21
15.29078177717754
 31
0.0
  0
LINE
  5
212
330
1F
100
AcDbEntity
  8
DIM
  6
Continuous
 62
     1
370
    18
100
AcDbLine
 10
6.381104601214123
 20
15.48396694243535
 30
0.0
 11
6.329340792193618
 21
15.29078177717754
 31
0.0
  0
LINE
  5
213
330
1F
100
AcDbEntity
  8
DIM
  6
Continuous
 62
     1
370
    18
100
AcDbLine
 10
7.295507355987363
 20
8.476217622142181
 30
0.0
 11
6.331104601214123
 21
8.476217622142181
 31
0.0
  0
LINE
  5
214
330
1F
100
AcDbEntity
  8
DIM
  6
Continuous
 62
     1
370
    18
100
AcDbLine
 10
7.295507355987363
 20
15.48396694243535
 30
0.0
 11
6.331104601214123
 21
15.48396694243535
 31
0.0
  0
TEXT
  5
215
330
1F
100
AcDbEntity
  8
DIM
  6
Continuous
 62
     1
370
    18
100
AcDbText
 10
6.180881440450118
 20
11.74323543326576
 30
0.0
 40
0.15
  1
7.01
  7
AEC_TECH
100
AcDbText
  0
LINE
  5
216
330
1F
100
AcDbEntity
  8
DIM
  6
Continuous
 62
     1
370
    18
100
AcDbLine
 10
6.381104601214123
 20
8.476217622142181
 30
0.0
 11
6.381104601214123
 21
11.69323543326568
 31
0.0
  0
LINE
  5
217
330
1F
100
AcDbEntity
  8
DIM
  6
Continuous
 62
     1
370
    18
100
AcDbLine
 10
6.381104601214123
 20
11.95008043349107
 30
0.0
 11
6.381104601214123
 21
15.48396694243535
 31
0.0
  0
LINE
  5
218
330
1F
100
AcDbEntity
  8
DIM
  6
Continuous
 62
     1
370
    18
100
AcDbLine
 10
7.365507355987364
 20
5.633291515965967
 30
0.0
 11
7.558692521245177
 21
5.685055324986471
 31
0.0
  0
LINE
  5
219
330
1F
100
AcDbEntity
  8
DIM
  6
Continuous
 62
     1
370
    18
100
AcDbLine
 10
7.365507355987364
 20
5.633291515965967
 30
0.0
 11
7.558692521245177
 21
5.581527706945463
 31
0.0
  0
LINE
  5
21A
330
1F
100
AcDbEntity
  8
DIM
  6
Continuous
 62
     1
370
    18
100
AcDbLine
 10
8.897859398425968
 20
5.633291515965967
 30
0.0
 11
8.704674233168154
 21
5.581527706945463
 31
0.0
  0
LINE
  5
21B
330
1F
100
AcDbEntity
  8
DIM
  6
Continuous
 62
     1
370
    18
100
AcDbLine
 10
8.897859398425968
 20
5.633291515965967
 30
0.0
 11
8.704674233168154
 21
5.685055324986471
 31
0.0
  0
LINE
  5
21C
330
1F
100
AcDbEntity
  8
DIM
  6
Continuous
 62
     1
370
    18
100
AcDbLine
 10
7.365507355987364
 20
8.406217622142183
 30
0.0
 11
7.365507355987363
 21
5.583291515965967
 31
0.0
  0
LINE
  5
21D
330
1F
100
AcDbEntity
  8
DIM
  6
Continuous
 62
     1
370
    18
100
AcDbLine
 10
8.897859398425968
 20
6.541594311518587
 30
0.0
 11
8.897859398425968
 21
5.583291515965967
 31
0.0
  0
TEXT
  5
21E
330
1F
100
AcDbEntity
  8
DIM
  6
Continuous
 62
     1
370
    18
100
AcDbText
 10
7.689321269383838
 20
5.556192095916325
 30
0.0
 40
0.15
  1
REF 1.53
  7
AEC_TECH
100
AcDbText
  0
LINE
  5
21F
330
1F
100
AcDbEntity
  8
DIM
  6
Continuous
 62
     1
370
    18
100
AcDbLine
 10
7.365507355987364
 20
5.633291515965967
 30
0.0
 11
7.639321269383839
 21
5.633291515965967
 31
0.0
  0
LINE
  5
220
330
1F
100
AcDbEntity
  8
DIM
  6
Continuous
 62
     1
370
    18
100
AcDbLine
 10
8.624045485029495
 20
5.633291515965967
 30
0.0
 11
8.897859398425968
 21
5.633291515965967
 31
0.0
  0
LINE
  5
221
330
1F
100
AcDbEntity
  8
DIM
  6
Continuous
 62
     1
370
    18
100
AcDbLine
 10
-1.873972100345835
 20
15.40078209769109
 30
0.0
 11
-1.807005034714594
 21
15.58923742958897
 31
0.0
  0
LINE
  5
222
330
1F
100
AcDbEntity
  8
DIM
  6
Continuous
 62
     1
370
    18
100
AcDbLine
 10
-1.873972100345835
 20
15.40078209769109
 30
0.0
 11
-1.72174925434334
 21
15.53050566977766
 31
0.0
  0
LINE
  5
223
330
1F
100
AcDbEntity
  8
DIM
  6
Continuous
 62
     1
370
    18
100
AcDbLine
 10
-1.873972100345835
 20
15.40078209769109
 30
0.0
 11
-0.9791910592676594
 21
16.69965780248199
 31
0.0
  0
LINE
  5
224
330
1F
100
AcDbEntity
  8
DIM
  6
Continuous
 62
     1
370
    18
100
AcDbLine
 10
-0.9791910592676594
 20
16.69965780248199
 30
0.0
 11
-0.7791910592676594
 21
16.69965780248199
 31
0.0
  0
TEXT
  5
225
330
1F
100
AcDbEntity
  8
DIM
  6
Continuous
 62
     1
370
    18
100
AcDbText
 10
-0.6791910592676594
 20
16.624657802482
 30
0.0
 40
0.15
  1
NOTE 1
  7
AEC_TECH
100
AcDbText
  0
TEXT
  5
226
330
1F
100
AcDbEntity
  8
DIM
  6
Continuous
 62
    53
370
    18
100
AcDbText
 10
3.403600968980809
 20
19.80078776871791
 30
0.0
 40
0.125
  1
MATERIAL: 5/8 ALUM 6061
  7
MAIN
100
AcDbText
  0
TEXT
  5
227
330
1F
100
AcDbEntity
  8
DIM
  6
Continuous
 62
    53
370
    18
100
AcDbText
 10
3.403600968980809
 20
19.42578776871791
 30
0.0
 40
0.125
  1
NOTE 1 - R APPROX .75 TYP.
  7
MAIN
100
AcDbText
  0
LINE
  5
228
330
1F
100
AcDbEntity
  8
DIM
  6
Continuous
 62
     1
370
    18
100
AcDbLine
 10
22.08207690767639
 20
13.68396694243535
 30
0.0
 11
22.03031309865589
 21
13.87715210769317
 31
0.0
  0
LINE
  5
229
330
1F
100
AcDbEntity
  8
DIM
  6
Continuous
 62
     1
370
    18
100
AcDbLine
 10
22.08207690767639
 20
13.68396694243535
 30
0.0
 11
22.1338407166969
 21
13.87715210769317
 31
0.0
  0
LINE
  5
22A
330
1F
100
AcDbEntity
  8
DIM
  6
Continuous
 62
     1
370
    18
100
AcDbLine
 10
22.0820769076764
 20
17.48396694243535
 30
0.0
 11
22.1338407166969
 21
17.29078177717754
 31
0.0
  0
LINE
  5
22B
330
1F
100
AcDbEntity
  8
DIM
  6
Continuous
 62
     1
370
    18
100
AcDbLine
 10
22.0820769076764
 20
17.48396694243535
 30
0.0
 11
22.03031309865589
 21
17.29078177717754
 31
0.0
  0
LINE
  5
22C
330
1F
100
AcDbEntity
  8
DIM
  6
Continuous
 62
     1
370
    18
100
AcDbLine
 10
21.31791974719553
 20
13.68396694243535
 30
0.0
 11
22.13207690767639
 21
13.68396694243535
 31
0.0
  0
LINE
  5
22D
330
1F
100
AcDbEntity
  8
DIM
  6
Continuous
 62
     1
370
    18
100
AcDbLine
 10
17.51791974719553
 20
17.48396694243535
 30
0.0
 11
22.1320769076764
 21
17.48396694243535
 31
0.0
  0
TEXT
  5
22E
330
1F
100
AcDbEntity
  8
DIM
  6
Continuous
 62
     1
370
    18
100
AcDbText
 10
21.85673030316402
 20
15.50536326804447
 30
0.0
 40
0.15
  1
3.80
  7
AEC_TECH
100
AcDbText
  0
LINE
  5
22F
330
1F
100
AcDbEntity
  8
DIM
  6
Continuous
 62
     1
370
    18
100
AcDbLine
 10
22.08207690767639
 20
13.68396694243535
 30
0.0
 11
22.08207690767639
 21
15.45536326804184
 31
0.0
  0
LINE
  5
230
330
1F
100
AcDbEntity
  8
DIM
  6
Continuous
 62
     1
370
    18
100
AcDbLine
 10
22.0820769076764
 20
15.71257061682886
 30
0.0
 11
22.0820769076764
 21
17.48396694243535
 31
0.0
  0
LINE
  5
231
330
1F
100
AcDbEntity
  8
DIM
  6
Continuous
 62
     1
370
    18
100
AcDbLine
 10
1.425359827939868
 20
8.992458940004577
 30
0.0
 11
1.373596018919364
 21
9.185644105262391
 31
0.0
  0
LINE
  5
232
330
1F
100
AcDbEntity
  8
DIM
  6
Continuous
 62
     1
370
    18
100
AcDbLine
 10
1.425359827939868
 20
8.992458940004577
 30
0.0
 11
1.477123636960372
 21
9.185644105262391
 31
0.0
  0
LINE
  5
233
330
1F
100
AcDbEntity
  8
DIM
  6
Continuous
 62
     1
370
    18
100
AcDbLine
 10
1.425359827939868
 20
17.48396694243536
 30
0.0
 11
1.477123636960372
 21
17.29078177717754
 31
0.0
  0
LINE
  5
234
330
1F
100
AcDbEntity
  8
DIM
  6
Continuous
 62
     1
370
    18
100
AcDbLine
 10
1.425359827939868
 20
17.48396694243536
 30
0.0
 11
1.373596018919364
 21
17.29078177717754
 31
0.0
  0
LINE
  5
235
330
1F
100
AcDbEntity
  8
DIM
  6
Continuous
 62
     1
370
    18
100
AcDbLine
 10
-2.302095051523677
 20
8.992458940004577
 30
0.0
 11
1.475359827939868
 21
8.992458940004577
 31
0.0
  0
LINE
  5
236
330
1F
100
AcDbEntity
  8
DIM
  6
Continuous
 62
     1
370
    18
100
AcDbLine
 10
-8.957892060673188
 20
17.48396694243536
 30
0.0
 11
1.475359827939869
 21
17.48396694243536
 31
0.0
  0
TEXT
  5
237
330
1F
100
AcDbEntity
  8
DIM
  6
Continuous
 62
     1
370
    18
100
AcDbText
 10
1.137137756394772
 20
13.13648782777459
 30
0.0
 40
0.15
  1
8.492
  7
AEC_TECH
100
AcDbText
  0
LINE
  5
238
330
1F
100
AcDbEntity
  8
DIM
  6
Continuous
 62
     1
370
    18
100
AcDbLine
 10
1.425359827939868
 20
8.992458940004577
 30
0.0
 11
1.425359827939868
 21
13.08648782777459
 31
0.0
  0
LINE
  5
239
330
1F
100
AcDbEntity
  8
DIM
  6
Continuous
 62
     1
370
    18
100
AcDbLine
 10
1.425359827939868
 20
13.38993805466534
 30
0.0
 11
1.425359827939868
 21
17.48396694243536
 31
0.0
  0
LINE
  5
23A
330
1F
100
AcDbEntity
  8
DIM
  6
Continuous
 62
     1
370
    18
100
AcDbLine
 10
1.027841186132366
 20
13.40323608684231
 30
0.0
 11
1.027841186132366
 21
13.07852013473155
 31
0.0
  0
LINE
  5
23B
330
1F
100
AcDbEntity
  8
DIM
  6
Continuous
 62
     1
370
    18
100
AcDbLine
 10
1.027841186132366
 20
13.07852013473155
 30
0.0
 11
1.839631066409276
 21
13.07852013473155
 31
0.0
  0
LINE
  5
23C
330
1F
100
AcDbEntity
  8
DIM
  6
Continuous
 62
     1
370
    18
100
AcDbLine
 10
1.839631066409276
 20
13.40323608684231
 30
0.0
 11
1.839631066409276
 21
13.07852013473155
 31
0.0
  0
LINE
  5
23D
330
1F
100
AcDbEntity
  8
DIM
  6
Continuous
 62
     1
370
    18
100
AcDbLine
 10
1.027841186132366
 20
13.40323608684231
 30
0.0
 11
1.839631066409276
 21
13.40323608684231
 31
0.0
  0
TEXT
  5
23E
330
1F
100
AcDbEntity
  8
DIM
  6
Continuous
 62
    53
370
    18
100
AcDbText
 10
-17.38955470152577
 20
19.48849295281604
 30
0.0
 40
0.15
  1
HOLE TABLE
  7
MAIN
100
AcDbText
  0
TEXT
  5
23F
330
1F
100
AcDbEntity
  8
DIM
  6
Continuous
 62
    53
370
    18
100
AcDbText
 10
-17.38955470152577
 20
19.03849295281604
 30
0.0
 40
0.15
  1
A - .58
  7
MAIN
100
AcDbText
  0
TEXT
  5
240
330
1F
100
AcDbEntity
  8
DIM
  6
Continuous
 62
    53
370
    18
100
AcDbText
 10
-17.38955470152577
 20
18.81349295281603
 30
0.0
 40
0.15
  1
B - .48
  7
MAIN
100
AcDbText
  0
TEXT
  5
241
330
1F
100
AcDbEntity
  8
DIM
  6
Continuous
 62
    53
370
    18
100
AcDbText
 10
-17.38955470152577
 20
18.58849295281604
 30
0.0
 40
0.15
  1
C - .42
  7
MAIN
100
AcDbText
  0
TEXT
  5
242
330
1F
100
AcDbEntity
  8
DIM
  6
Continuous
 62
    53
370
    18
100
AcDbText
 10
-17.38955470152577
 20
18.36349295281604
 30
0.0
 40
0.15
  1
D - .396 +.002 / -.000
  7
MAIN
100
AcDbText
  0
TEXT
  5
243
330
1F
100
AcDbEntity
  8
DIM
  6
Continuous
 62
    53
370
    18
100
AcDbText
 10
-17.38955470152577
 20
18.13849295281603
 30
0.0
 40
0.15
  1
E - .53 ON 7.25 BC, EQ. SPC.
  7
MAIN
100
AcDbText
  0
LINE
  5
244
330
1F
100
AcDbEntity
  8
DIM
  6
Continuous
 62
     1
370
    18
100
AcDbLine
 10
-2.372095051523677
 20
3.768826894916828
 30
0.0
 11
-2.565280216781491
 21
3.717063085896323
 31
0.0
  0
LINE
  5
245
330
1F
100
AcDbEntity
  8
DIM
  6
Continuous
 62
     1
370
    18
100
AcDbLine
 10
-2.372095051523677
 20
3.768826894916828
 30
0.0
 11
-2.565280216781491
 21
3.820590703937332
 31
0.0
  0
LINE
  5
246
330
1F
100
AcDbEntity
  8
DIM
  6
Continuous
 62
     1
370
    18
100
AcDbLine
 10
-2.110012783338867
 20
3.768826894916828
 30
0.0
 11
-1.916827618081053
 21
3.820590703937332
 31
0.0
  0
LINE
  5
247
330
1F
100
AcDbEntity
  8
DIM
  6
Continuous
 62
     1
370
    18
100
AcDbLine
 10
-2.110012783338867
 20
3.768826894916828
 30
0.0
 11
-1.916827618081053
 21
3.717063085896323
 31
0.0
  0
LINE
  5
248
330
1F
100
AcDbEntity
  8
DIM
  6
Continuous
 62
     1
370
    18
100
AcDbLine
 10
-2.372095051523677
 20
8.922458940004576
 30
0.0
 11
-2.372095051523678
 21
3.718826894916828
 31
0.0
  0
LINE
  5
249
330
1F
100
AcDbEntity
  8
DIM
  6
Continuous
 62
     1
370
    18
100
AcDbLine
 10
-2.110012783338867
 20
9.747549332551531
 30
0.0
 11
-2.110012783338868
 21
3.718826894916828
 31
0.0
  0
TEXT
  5
24A
330
1F
100
AcDbEntity
  8
DIM
  6
Continuous
 62
     1
370
    18
100
AcDbText
 10
-1.684720230090398
 20
3.690127793436176
 30
0.0
 40
0.15
  1
.26
  7
AEC_TECH
100
AcDbText
  0
LINE
  5
24B
330
1F
100
AcDbEntity
  8
DIM
  6
Continuous
 62
     1
370
    18
100
AcDbLine
 10
-2.372095051523677
 20
3.768826894916828
 30
0.0
 11
-2.772095051523677
 21
3.768826894916828
 31
0.0
  0
LINE
  5
24C
330
1F
100
AcDbEntity
  8
DIM
  6
Continuous
 62
     1
370
    18
100
AcDbLine
 10
-2.110012783338867
 20
3.768826894916828
 30
0.0
 11
-1.710012783338867
 21
3.768826894916828
 31
0.0
  0
LINE
  5
24D
330
1F
100
AcDbEntity
  8
DIM
  6
Continuous
 62
     1
370
    18
100
AcDbLine
 10
-5.828637225078152
 20
15.28524015545764
 30
0.0
 11
-5.628637225078152
 21
15.28524015545764
 31
0.0
  0
LINE
  5
24E
330
1F
100
AcDbEntity
  8
DIM
  6
Continuous
 62
     1
370
    18
100
AcDbLine
 10
-5.92658382605463
 20
15.07150833936158
 30
0.0
 11
-5.960008144313673
 21
14.87432108077493
 31
0.0
  0
LINE
  5
24F
330
1F
100
AcDbEntity
  8
DIM
  6
Continuous
 62
     1
370
    18
100
AcDbLine
 10
-5.92658382605463
 20
15.07150833936158
 30
0.0
 11
-6.054123764064462
 21
14.91745132325245
 31
0.0
  0
LINE
  5
250
330
1F
100
AcDbEntity
  8
DIM
  6
Continuous
 62
     1
370
    18
100
AcDbLine
 10
-10.5092514874009
 20
5.071550484167829
 30
0.0
 11
-10.47582716914185
 21
5.268737742754478
 31
0.0
  0
LINE
  5
251
330
1F
100
AcDbEntity
  8
DIM
  6
Continuous
 62
     1
370
    18
100
AcDbLine
 10
-10.5092514874009
 20
5.071550484167829
 30
0.0
 11
-10.38171154939107
 21
5.225607500276957
 31
0.0
  0
TEXT
  5
252
330
1F
100
AcDbEntity
  8
DIM
  6
Continuous
 62
     1
370
    18
100
AcDbText
 10
-5.578637225078152
 20
15.20681765534502
 30
0.0
 40
0.15
  1
11.00
  7
AEC_TECH
100
AcDbText
  0
LINE
  5
253
330
1F
100
AcDbEntity
  8
DIM
  6
Continuous
 62
     1
370
    18
100
AcDbLine
 10
-10.5092514874009
 20
5.071550484167828
 30
0.0
 11
-5.828637225078152
 21
15.28524015545764
 31
0.0
  0
LINE
  5
254
330
1F
100
AcDbEntity
  8
DIM
  6
Continuous
 62
     1
370
    18
100
AcDbLine
 10
-7.300659972666077
 20
14.56366037722827
 30
0.0
 11
-7.100659972666077
 21
14.56366037722827
 31
0.0
  0
LINE
  5
255
330
1F
100
AcDbEntity
  8
DIM
  6
Continuous
 62
     1
370
    18
100
AcDbLine
 10
-7.347639590488527
 20
14.33358479472524
 30
0.0
 11
-7.335571680412274
 21
14.13394921286071
 31
0.0
  0
LINE
  5
256
330
1F
100
AcDbEntity
  8
DIM
  6
Continuous
 62
     1
370
    18
100
AcDbLine
 10
-7.347639590488527
 20
14.33358479472524
 30
0.0
 11
-7.437006264724173
 21
14.15466135429314
 31
0.0
  0
LINE
  5
257
330
1F
100
AcDbEntity
  8
DIM
  6
Continuous
 62
     1
370
    18
100
AcDbLine
 10
-9.088195722967001
 20
5.809474028804165
 30
0.0
 11
-9.100263633043255
 21
6.0091096106687
 31
0.0
  0
LINE
  5
258
330
1F
100
AcDbEntity
  8
DIM
  6
Continuous
 62
     1
370
    18
100
AcDbLine
 10
-9.088195722967001
 20
5.809474028804165
 30
0.0
 11
-8.998829048731356
 21
5.988397469236268
 31
0.0
  0
TEXT
  5
259
330
1F
100
AcDbEntity
  8
DIM
  6
Continuous
 62
     1
370
    18
100
AcDbText
 10
-7.050659972666077
 20
14.48505670283739
 30
0.0
 40
0.15
  1
8.70
  7
AEC_TECH
100
AcDbText
  0
LINE
  5
25A
330
1F
100
AcDbEntity
  8
DIM
  6
Continuous
 62
     1
370
    18
100
AcDbLine
 10
-9.088195722967001
 20
5.809474028804166
 30
0.0
 11
-7.300659972666077
 21
14.56366037722827
 31
0.0
  0
LINE
  5
25B
330
1F
100
AcDbEntity
  8
DIM
  6
Continuous
 62
     1
370
    18
100
AcDbLine
 10
12.44176275968961
 20
13.033911247382
 30
0.0
 11
12.24176275968961
 21
13.033911247382
 31
0.0
  0
LINE
  5
25C
330
1F
100
AcDbEntity
  8
DIM
  6
Continuous
 62
     1
370
    18
100
AcDbLine
 10
12.56398508832998
 20
12.77821291653311
 30
0.0
 11
12.69400081521373
 21
12.62623952819525
 31
0.0
  0
LINE
  5
25D
330
1F
100
AcDbEntity
  8
DIM
  6
Continuous
 62
     1
370
    18
100
AcDbLine
 10
12.56398508832998
 20
12.77821291653311
 30
0.0
 11
12.60059531653388
 21
12.58159223809145
 31
0.0
  0
LINE
  5
25E
330
1F
100
AcDbEntity
  8
DIM
  6
Continuous
 62
     1
370
    18
100
AcDbLine
 10
15.15154332343473
 20
7.364845906996292
 30
0.0
 11
15.02152759655098
 21
7.516819295334154
 31
0.0
  0
LINE
  5
25F
330
1F
100
AcDbEntity
  8
DIM
  6
Continuous
 62
     1
370
    18
100
AcDbLine
 10
15.15154332343473
 20
7.364845906996292
 30
0.0
 11
15.11493309523083
 21
7.561466585437953
 31
0.0
  0
TEXT
  5
260
330
1F
100
AcDbEntity
  8
DIM
  6
Continuous
 62
     1
370
    18
100
AcDbText
 10
11.72157533204537
 20
12.9554887472694
 30
0.0
 40
0.15
  1
6.00
  7
AEC_TECH
100
AcDbText
  0
LINE
  5
261
330
1F
100
AcDbEntity
  8
DIM
  6
Continuous
 62
     1
370
    18
100
AcDbLine
 10
15.15154332343473
 20
7.364845906996291
 30
0.0
 11
12.44176275968961
 21
13.033911247382
 31
0.0
  0
LINE
  5
262
330
1F
100
AcDbEntity
  8
DIM
  6
Continuous
 62
     1
370
    18
100
AcDbLine
 10
12.84584743549806
 20
14.62138675948662
 30
0.0
 11
12.64584743549806
 21
14.62138675948662
 31
0.0
  0
LINE
  5
263
330
1F
100
AcDbEntity
  8
DIM
  6
Continuous
 62
     1
370
    18
100
AcDbLine
 10
12.9350821864544
 20
14.220162667552
 30
0.0
 11
13.02755219538435
 21
14.04282316984071
 31
0.0
  0
LINE
  5
264
330
1F
100
AcDbEntity
  8
DIM
  6
Continuous
 62
     1
370
    18
100
AcDbLine
 10
12.9350821864544
 20
14.220162667552
 30
0.0
 11
12.92649381442026
 21
14.02034715297467
 31
0.0
  0
LINE
  5
265
330
1F
100
AcDbEntity
  8
DIM
  6
Continuous
 62
     1
370
    18
100
AcDbLine
 10
14.78044622531031
 20
5.922896155977399
 30
0.0
 11
14.68797621638036
 21
6.100235653688695
 31
0.0
  0
LINE
  5
266
330
1F
100
AcDbEntity
  8
DIM
  6
Continuous
 62
     1
370
    18
100
AcDbLine
 10
14.78044622531031
 20
5.922896155977399
 30
0.0
 11
14.78903459734445
 21
6.122711670554729
 31
0.0
  0
TEXT
  5
267
330
1F
100
AcDbEntity
  8
DIM
  6
Continuous
 62
     1
370
    18
100
AcDbText
 10
11.20524568179481
 20
14.51658186029881
 30
0.0
 40
0.2
  1
8.50
  7
AEC_TECH
100
AcDbText
  0
TEXT
  5
268
330
1F
100
AcDbEntity
  8
DIM
  6
Continuous
 62
     1
370
    18
100
AcDbText
 10
11.79997928508886
 20
14.67138675948662
 30
0.0
 40
0.2
  1
+.002
  7
AEC_TECH
100
AcDbText
  0
TEXT
  5
269
330
1F
100
AcDbEntity
  8
DIM
  6
Continuous
 62
     1
370
    18
100
AcDbText
 10
11.79997928508886
 20
14.361776961111
 30
0.0
 40
0.2
  1
-.000
  7
AEC_TECH
100
AcDbText
  0
LINE
  5
26A
330
1F
100
AcDbEntity
  8
DIM
  6
Continuous
 62
     1
370
    18
100
AcDbLine
 10
14.78044622531031
 20
5.922896155977398
 30
0.0
 11
12.84584743549806
 21
14.62138675948662
 31
0.0
  0
ENDSEC
  0
SECTION
  2
OBJECTS
  0
DICTIONARY
  5
C
330
0
100
AcDbDictionary
281
     1
  3
ACAD_GROUP
350
D
  3
ACAD_LAYOUT
350
1A
  3
ACAD_MLINESTYLE
350
17
  3
ACAD_PLOTSETTINGS
350
19
  3
ACAD_PLOTSTYLENAME
350
E
  0
DICTIONARY
  5
D
102
{ACAD_REACTORS
330
C
102
}
330
C
100
AcDbDictionary
281
     1
  0
DICTIONARY
  5
1A
102
{ACAD_REACTORS
330
C
102
}
330
C
100
AcDbDictionary
281
     1
  3
Layout1
350
1E
  3
Layout2
350
26
  3
Model
350
22
  0
DICTIONARY
  5
17
102
{ACAD_REACTORS
330
C
102
}
330
C
100
AcDbDictionary
281
     1
  3
Standard
350
18
  0
DICTIONARY
  5
19
102
{ACAD_REACTORS
330
C
102
}
330
C
100
AcDbDictionary
281
     1
  0
ACDBDICTIONARYWDFLT
  5
E
102
{ACAD_REACTORS
330
C
102
}
330
C
100
AcDbDictionary
281
     1
  3
Normal
350
F
100
AcDbDictionaryWithDefault
340
F
  0
LAYOUT
  5
1E
102
{ACAD_REACTORS
330
1A
102
}
330
1A
100
AcDbPlotSettings
  1

  2

  4

  6

 40
0.0
 41
0.0
 42
0.0
 43
0.0
 44
0.0
 45
0.0
 46
0.0
 47
0.0
 48
0.0
 49
0.0
140
0.0
141
0.0
142
1.0
143
1.0
 70
   688
 72
     0
 73
     0
 74
     5
  7

 75
    16
147
1.0
148
0.0
149
0.0
100
AcDbLayout
  1
Layout1
 70
     1
 71
     1
 10
0.0
 20
0.0
 11
12.0
 21
9.0
 12
0.0
 22
0.0
 32
0.0
 14
1.000000000000000E+20
 24
1.000000000000000E+20
 34
1.000000000000000E+20
 15
-1.000000000000000E+20
 25
-1.000000000000000E+20
 35
-1.000000000000000E+20
146
0.0
 13
0.0
 23
0.0
 33
0.0
 16
1.0
 26
0.0
 36
0.0
 17
0.0
 27
1.0
 37
0.0
 76
     0
330
1B
  0
LAYOUT
  5
26
102
{ACAD_REACTORS
330
1A
102
}
330
1A
100
AcDbPlotSettings
  1

  2

  4

  6

 40
0.0
 41
0.0
 42
0.0
 43
0.0
 44
0.0
 45
0.0
 46
0.0
 47
0.0
 48
0.0
 49
0.0
140
0.0
141
0.0
142
1.0
143
1.0
 70
   688
 72
     0
 73
     0
 74
     5
  7

 75
    16
147
1.0
148
0.0
149
0.0
100
AcDbLayout
  1
Layout2
 70
     1
 71
     2
 10
0.0
 20
0.0
 11
0.0
 21
0.0
 12
0.0
 22
0.0
 32
0.0
 14
0.0
 24
0.0
 34
0.0
 15
0.0
 25
0.0
 35
0.0
146
0.0
 13
0.0
 23
0.0
 33
0.0
 16
1.0
 26
0.0
 36
0.0
 17
0.0
 27
1.0
 37
0.0
 76
     0
330
23
  0
LAYOUT
  5
22
102
{ACAD_REACTORS
330
1A
102
}
330
1A
100
AcDbPlotSettings
  1

  2

  4

  6

 40
0.0
 41
0.0
 42
0.0
 43
0.0
 44
0.0
 45
0.0
 46
0.0
 47
0.0
 48
0.0
 49
0.0
140
0.0
141
0.0
142
1.0
143
1.0
 70
  1712
 72
     0
 73
     0
 74
     0
  7

 75
     0
147
1.0
148
0.0
149
0.0
100
AcDbLayout
  1
Model
 70
     1
 71
     0
 10
0.0
 20
0.0
 11
0.0
 21
0.0
 12
0.0
 22
0.0
 32
0.0
 14
0.0
 24
0.0
 34
0.0
 15
0.0
 25
0.0
 35
0.0
146
0.0
 13
0.0
 23
0.0
 33
0.0
 16
1.0
 26
0.0
 36
0.0
 17
0.0
 27
1.0
 37
0.0
 76
     0
330
1F
  0
MLINESTYLE
  5
18
102
{ACAD_REACTORS
330
17
102
}
330
17
100
AcDbMlineStyle
  2
Standard
 70
     0
  3

 62
   256
 51
90.0
 52
90.0
 71
     2
 49
0.5
 62
   256
  6
BYLAYER
 49
-0.5
 62
   256
  6
BYLAYER
  0
ACDBPLACEHOLDER
  5
F
102
{ACAD_REACTORS
330
E
102
}
330
E
  0
ENDSEC
  0
EOF
