  0
SECTION
  2
HEADER
  9
$ACADVER
  1
AC1006
  0
ENDSEC
  0
SECTION
  2
TABLES
  0
TABLE
  2
LTYPE
 70
    25
  0
LTYPE
  2
CONTINUOUS
 70
    64
  3
Solid line
 72
    64
 73
     0
 40
0.000000
  0
LTYPE
  2
DASHDOT
 70
    64
  3
__ . __ . __ . __ . __ . __ . __ . __ . __ . __
 72
    65
 73
     4
 40
1.000000
 49
0.500000
 49
-0.250000
 49
0.000000
 49
-0.250000
  0
LTYPE
  2
DASHED
 70
    64
  3
__ __ __ __ __ __ __ __ __ __ __ __ __ __ __ __
 72
    65
 73
     2
 40
0.750000
 49
0.500000
 49
-0.250000
  0
LTYPE
  2
DIVIDE
 70
    64
  3
____ . . ____ . . ____ . . ____ . . ____ . . __
 72
    65
 73
     6
 40
1.250000
 49
0.500000
 49
-0.250000
 49
0.000000
 49
-0.250000
 49
0.000000
 49
-0.250000
  0
LTYPE
  2
DOT
 70
    64
  3
. . . . . . . . . . . . . . . . . . . . . . . . 
 72
    65
 73
     2
 40
0.250000
 49
0.000000
 49
-0.250000
  0
ENDTAB
  0
ENDSEC
  0
SECTION
  2
ENTITIES
  0
LINE
  8
HUB
 62
     7
  6
CONTINUOUS
 10
7.140270
 20
1.605331
 30
0.000000
 11
8.515270
 21
1.467832
 31
0.000000
  0
LINE
  8
HUB
 62
     7
  6
CONTINUOUS
 10
8.515270
 20
3.342832
 30
0.000000
 11
8.515270
 21
3.530332
 31
0.000000
  0
LINE
  8
HUB
 62
     7
  6
CONTINUOUS
 10
8.515270
 20
1.467832
 30
0.000000
 11
8.515270
 21
1.280332
 31
0.000000
  0
LINE
  8
HUB
 62
     7
  6
CONTINUOUS
 10
7.140270
 20
3.205332
 30
0.000000
 11
8.515270
 21
3.342832
 31
0.000000
  0
LINE
  8
HUB
 62
     7
  6
CONTINUOUS
 10
7.140270
 20
1.605331
 30
0.000000
 11
7.140270
 21
3.205332
 31
0.000000
  0
POINT
  8
HUB
 62
     7
 10
6.327770
 20
3.664832
 30
0.000000
  0
LINE
  8
HUB
 62
     7
  6
CONTINUOUS
 10
7.015270
 20
3.467831
 30
0.000000
 11
7.015270
 21
3.861830
 31
0.000000
  0
LINE
  8
HUB
 62
     7
  6
CONTINUOUS
 10
6.421271
 20
3.844331
 30
0.000000
 11
6.421271
 21
3.485331
 31
0.000000
  0
LINE
  8
HUB
 62
     7
  6
CONTINUOUS
 10
6.452770
 20
3.861830
 30
0.000000
 11
6.452770
 21
3.467831
 31
0.000000
  0
LINE
  8
HUB
 62
     7
  6
CONTINUOUS
 10
6.484020
 20
3.844331
 30
0.000000
 11
6.484020
 21
3.485331
 31
0.000000
  0
LINE
  8
HUB
 62
     7
  6
CONTINUOUS
 10
6.546770
 20
3.844331
 30
0.000000
 11
6.546770
 21
3.485331
 31
0.000000
  0
LINE
  8
HUB
 62
     7
  6
CONTINUOUS
 10
6.609520
 20
3.844331
 30
0.000000
 11
6.609520
 21
3.485331
 31
0.000000
  0
LINE
  8
HUB
 62
     7
  6
CONTINUOUS
 10
6.672270
 20
3.844331
 30
0.000000
 11
6.672270
 21
3.485331
 31
0.000000
  0
LINE
  8
HUB
 62
     7
  6
CONTINUOUS
 10
6.735020
 20
3.844331
 30
0.000000
 11
6.735020
 21
3.485331
 31
0.000000
  0
LINE
  8
HUB
 62
     7
  6
CONTINUOUS
 10
6.797770
 20
3.844331
 30
0.000000
 11
6.797770
 21
3.485331
 31
0.000000
  0
LINE
  8
HUB
 62
     7
  6
CONTINUOUS
 10
6.860520
 20
3.844331
 30
0.000000
 11
6.860520
 21
3.485331
 31
0.000000
  0
LINE
  8
HUB
 62
     7
  6
CONTINUOUS
 10
6.515270
 20
3.861830
 30
0.000000
 11
6.515270
 21
3.467831
 31
0.000000
  0
LINE
  8
HUB
 62
     7
  6
CONTINUOUS
 10
6.577770
 20
3.861830
 30
0.000000
 11
6.577770
 21
3.467831
 31
0.000000
  0
LINE
  8
HUB
 62
     7
  6
CONTINUOUS
 10
6.640270
 20
3.861830
 30
0.000000
 11
6.640270
 21
3.467831
 31
0.000000
  0
LINE
  8
HUB
 62
     7
  6
CONTINUOUS
 10
6.702770
 20
3.861830
 30
0.000000
 11
6.702770
 21
3.467831
 31
0.000000
  0
LINE
  8
HUB
 62
     7
  6
CONTINUOUS
 10
6.765270
 20
3.861830
 30
0.000000
 11
6.765270
 21
3.467831
 31
0.000000
  0
LINE
  8
HUB
 62
     7
  6
CONTINUOUS
 10
6.827770
 20
3.861830
 30
0.000000
 11
6.827770
 21
3.467831
 31
0.000000
  0
LINE
  8
HUB
 62
     7
  6
CONTINUOUS
 10
6.890270
 20
3.861830
 30
0.000000
 11
6.890270
 21
3.467831
 31
0.000000
  0
POINT
  8
HUB
 62
     7
 10
6.327770
 20
3.664832
 30
0.000000
  0
LINE
  8
HUB
 62
     7
  6
CONTINUOUS
 10
6.327770
 20
3.861830
 30
0.000000
 11
7.015270
 21
3.861830
 31
0.000000
  0
LINE
  8
HUB
 62
     7
  6
CONTINUOUS
 10
6.327770
 20
3.467831
 30
0.000000
 11
7.015270
 21
3.467831
 31
0.000000
  0
LINE
  8
HUB
 62
     7
  6
CONTINUOUS
 10
6.140270
 20
3.114332
 30
0.000000
 11
6.327770
 21
3.114332
 31
0.000000
  0
LINE
  8
HUB
 62
     7
  6
CONTINUOUS
 10
6.327770
 20
4.080332
 30
0.000000
 11
6.327770
 21
3.114332
 31
0.000000
  0
LINE
  8
HUB
 62
     7
  6
CONTINUOUS
 10
6.327770
 20
1.696332
 30
0.000000
 11
6.327770
 21
0.730332
 31
0.000000
  0
LINE
  8
HUB
 62
     7
  6
CONTINUOUS
 10
7.515270
 20
4.080332
 30
0.000000
 11
6.327770
 21
4.080332
 31
0.000000
  0
LINE
  8
HUB
 62
     7
  6
CONTINUOUS
 10
8.515270
 20
3.530332
 30
0.000000
 11
7.515270
 21
3.530332
 31
0.000000
  0
LINE
  8
HUB
 62
     7
  6
CONTINUOUS
 10
7.515270
 20
3.530332
 30
0.000000
 11
7.515270
 21
4.080332
 31
0.000000
  0
LINE
  8
HUB
 62
     7
  6
CONTINUOUS
 10
7.515270
 20
0.730332
 30
0.000000
 11
6.327770
 21
0.730332
 31
0.000000
  0
LINE
  8
HUB
 62
     7
  6
CONTINUOUS
 10
8.515270
 20
1.280332
 30
0.000000
 11
7.515270
 21
1.280332
 31
0.000000
  0
LINE
  8
HUB
 62
     7
  6
CONTINUOUS
 10
7.515270
 20
1.280332
 30
0.000000
 11
7.515270
 21
0.730332
 31
0.000000
  0
LINE
  8
HUB
 62
     7
  6
CONTINUOUS
 10
6.327770
 20
3.114332
 30
0.000000
 11
6.077770
 21
3.114332
 31
0.000000
  0
LINE
  8
HUB
 62
     7
  6
CONTINUOUS
 10
6.077770
 20
3.114332
 30
0.000000
 11
6.027770
 21
3.064332
 31
0.000000
  0
LINE
  8
HUB
 62
     7
  6
CONTINUOUS
 10
6.327770
 20
1.696332
 30
0.000000
 11
6.077770
 21
1.696332
 31
0.000000
  0
LINE
  8
HUB
 62
     7
  6
CONTINUOUS
 10
6.027770
 20
3.064332
 30
0.000000
 11
6.027770
 21
1.746332
 31
0.000000
  0
LINE
  8
HUB
 62
     7
  6
CONTINUOUS
 10
6.077770
 20
1.696332
 30
0.000000
 11
6.027770
 21
1.746332
 31
0.000000
  0
POINT
  8
HUB
 62
     7
 10
6.327770
 20
1.145831
 30
0.000000
  0
LINE
  8
HUB
 62
     7
  6
CONTINUOUS
 10
7.015270
 20
1.342831
 30
0.000000
 11
7.015270
 21
0.948832
 31
0.000000
  0
LINE
  8
HUB
 62
     7
  6
CONTINUOUS
 10
6.421271
 20
0.966332
 30
0.000000
 11
6.421271
 21
1.325332
 31
0.000000
  0
LINE
  8
HUB
 62
     7
  6
CONTINUOUS
 10
6.452770
 20
0.948832
 30
0.000000
 11
6.452770
 21
1.342831
 31
0.000000
  0
LINE
  8
HUB
 62
     7
  6
CONTINUOUS
 10
6.484020
 20
0.966332
 30
0.000000
 11
6.484020
 21
1.325332
 31
0.000000
  0
LINE
  8
HUB
 62
     7
  6
CONTINUOUS
 10
6.546770
 20
0.966332
 30
0.000000
 11
6.546770
 21
1.325332
 31
0.000000
  0
LINE
  8
HUB
 62
     7
  6
CONTINUOUS
 10
6.609520
 20
0.966332
 30
0.000000
 11
6.609520
 21
1.325332
 31
0.000000
  0
LINE
  8
HUB
 62
     7
  6
CONTINUOUS
 10
6.672270
 20
0.966332
 30
0.000000
 11
6.672270
 21
1.325332
 31
0.000000
  0
LINE
  8
HUB
 62
     7
  6
CONTINUOUS
 10
6.735020
 20
0.966332
 30
0.000000
 11
6.735020
 21
1.325332
 31
0.000000
  0
LINE
  8
HUB
 62
     7
  6
CONTINUOUS
 10
6.797770
 20
0.966332
 30
0.000000
 11
6.797770
 21
1.325332
 31
0.000000
  0
LINE
  8
HUB
 62
     7
  6
CONTINUOUS
 10
6.860520
 20
0.966332
 30
0.000000
 11
6.860520
 21
1.325332
 31
0.000000
  0
LINE
  8
HUB
 62
     7
  6
CONTINUOUS
 10
6.515270
 20
0.948832
 30
0.000000
 11
6.515270
 21
1.342831
 31
0.000000
  0
LINE
  8
HUB
 62
     7
  6
CONTINUOUS
 10
6.577770
 20
0.948832
 30
0.000000
 11
6.577770
 21
1.342831
 31
0.000000
  0
LINE
  8
HUB
 62
     7
  6
CONTINUOUS
 10
6.640270
 20
0.948832
 30
0.000000
 11
6.640270
 21
1.342831
 31
0.000000
  0
LINE
  8
HUB
 62
     7
  6
CONTINUOUS
 10
6.702770
 20
0.948832
 30
0.000000
 11
6.702770
 21
1.342831
 31
0.000000
  0
LINE
  8
HUB
 62
     7
  6
CONTINUOUS
 10
6.765270
 20
0.948832
 30
0.000000
 11
6.765270
 21
1.342831
 31
0.000000
  0
LINE
  8
HUB
 62
     7
  6
CONTINUOUS
 10
6.827770
 20
0.948832
 30
0.000000
 11
6.827770
 21
1.342831
 31
0.000000
  0
LINE
  8
HUB
 62
     7
  6
CONTINUOUS
 10
6.890270
 20
0.948832
 30
0.000000
 11
6.890270
 21
1.342831
 31
0.000000
  0
POINT
  8
HUB
 62
     7
 10
6.327770
 20
1.145831
 30
0.000000
  0
LINE
  8
HUB
 62
     7
  6
CONTINUOUS
 10
6.327770
 20
0.948832
 30
0.000000
 11
7.015270
 21
0.948832
 31
0.000000
  0
LINE
  8
HUB
 62
     7
  6
CONTINUOUS
 10
6.327770
 20
1.342831
 30
0.000000
 11
7.015270
 21
1.342831
 31
0.000000
  0
LINE
  8
HUB
 62
     7
  6
CONTINUOUS
 10
6.027770
 20
2.905332
 30
0.000000
 11
7.140270
 21
2.905332
 31
0.000000
  0
LINE
  8
HUB
 62
     7
  6
CONTINUOUS
 10
6.027770
 20
1.905332
 30
0.000000
 11
7.140270
 21
1.905332
 31
0.000000
  0
LINE
  8
HUB
 62
     7
  6
CONTINUOUS
 10
6.762770
 20
3.273353
 30
0.000000
 11
6.762770
 21
2.945354
 31
0.000000
  0
LINE
  8
HUB
 62
     7
  6
CONTINUOUS
 10
6.762770
 20
3.210904
 30
0.000000
 11
7.195994
 21
3.210904
 31
0.000000
  0
LINE
  8
HUB
 62
     7
  6
CONTINUOUS
 10
6.762770
 20
3.007804
 30
0.000000
 11
7.140270
 21
3.007804
 31
0.000000
  0
LINE
  8
HUB
 62
     7
  6
CONTINUOUS
 10
6.762770
 20
3.273353
 30
0.000000
 11
6.327770
 21
3.273353
 31
0.000000
  0
LINE
  8
HUB
 62
     7
  6
CONTINUOUS
 10
6.762770
 20
2.945354
 30
0.000000
 11
6.027770
 21
2.945354
 31
0.000000
  0
LINE
  8
HUB
 62
     7
  6
CONTINUOUS
 10
7.320270
 20
2.405331
 30
0.000000
 11
5.800376
 21
2.405331
 31
0.000000
  0
LINE
  8
HUB
 62
     1
  6
CONTINUOUS
 10
6.027770
 20
5.152521
 30
0.000000
 11
6.220956
 21
5.204284
 31
0.000000
  0
LINE
  8
HUB
 62
     1
  6
CONTINUOUS
 10
6.027770
 20
5.152521
 30
0.000000
 11
6.220956
 21
5.100757
 31
0.000000
  0
LINE
  8
HUB
 62
     1
  6
CONTINUOUS
 10
8.515270
 20
5.152521
 30
0.000000
 11
8.322085
 21
5.100757
 31
0.000000
  0
LINE
  8
HUB
 62
     1
  6
CONTINUOUS
 10
8.515270
 20
5.152521
 30
0.000000
 11
8.322085
 21
5.204284
 31
0.000000
  0
LINE
  8
HUB
 62
     1
  6
CONTINUOUS
 10
6.027770
 20
3.134332
 30
0.000000
 11
6.027770
 21
5.202521
 31
0.000000
  0
LINE
  8
HUB
 62
     1
  6
CONTINUOUS
 10
8.515270
 20
3.600332
 30
0.000000
 11
8.515270
 21
5.202521
 31
0.000000
  0
TEXT
  8
HUB
 62
     1
 10
7.088853
 20
5.067749
 30
0.000000
 40
0.125000
  1
2.49
  0
LINE
  8
HUB
 62
     1
  6
CONTINUOUS
 10
6.027770
 20
5.152521
 30
0.000000
 11
7.038853
 21
5.152521
 31
0.000000
  0
LINE
  8
HUB
 62
     1
  6
CONTINUOUS
 10
7.504188
 20
5.152521
 30
0.000000
 11
8.515270
 21
5.152521
 31
0.000000
  0
LINE
  8
HUB
 62
     1
  6
CONTINUOUS
 10
6.027770
 20
4.800688
 30
0.000000
 11
6.220956
 21
4.852452
 31
0.000000
  0
LINE
  8
HUB
 62
     1
  6
CONTINUOUS
 10
6.027770
 20
4.800688
 30
0.000000
 11
6.220956
 21
4.748924
 31
0.000000
  0
LINE
  8
HUB
 62
     1
  6
CONTINUOUS
 10
7.515270
 20
4.800688
 30
0.000000
 11
7.322085
 21
4.748924
 31
0.000000
  0
LINE
  8
HUB
 62
     1
  6
CONTINUOUS
 10
7.515270
 20
4.800688
 30
0.000000
 11
7.322085
 21
4.852452
 31
0.000000
  0
LINE
  8
HUB
 62
     1
  6
CONTINUOUS
 10
6.027770
 20
3.134332
 30
0.000000
 11
6.027770
 21
4.850688
 31
0.000000
  0
LINE
  8
HUB
 62
     1
  6
CONTINUOUS
 10
7.515270
 20
4.150332
 30
0.000000
 11
7.515270
 21
4.850688
 31
0.000000
  0
TEXT
  8
HUB
 62
     1
 10
6.603905
 20
4.716100
 30
0.000000
 40
0.125000
  1
1.49
  0
LINE
  8
HUB
 62
     1
  6
CONTINUOUS
 10
6.027770
 20
4.800688
 30
0.000000
 11
6.553904
 21
4.800688
 31
0.000000
  0
LINE
  8
HUB
 62
     1
  6
CONTINUOUS
 10
6.989137
 20
4.800688
 30
0.000000
 11
7.515270
 21
4.800688
 31
0.000000
  0
LINE
  8
HUB
 62
     1
  6
CONTINUOUS
 10
6.027770
 20
4.467873
 30
0.000000
 11
5.834585
 21
4.416109
 31
0.000000
  0
LINE
  8
HUB
 62
     1
  6
CONTINUOUS
 10
6.027770
 20
4.467873
 30
0.000000
 11
5.834585
 21
4.519637
 31
0.000000
  0
LINE
  8
HUB
 62
     1
  6
CONTINUOUS
 10
6.327770
 20
4.467873
 30
0.000000
 11
6.520956
 21
4.519637
 31
0.000000
  0
LINE
  8
HUB
 62
     1
  6
CONTINUOUS
 10
6.327770
 20
4.467873
 30
0.000000
 11
6.520956
 21
4.416109
 31
0.000000
  0
LINE
  8
HUB
 62
     1
  6
CONTINUOUS
 10
6.027770
 20
3.134332
 30
0.000000
 11
6.027770
 21
4.517873
 31
0.000000
  0
LINE
  8
HUB
 62
     1
  6
CONTINUOUS
 10
6.327770
 20
4.150332
 30
0.000000
 11
6.327770
 21
4.517873
 31
0.000000
  0
TEXT
  8
HUB
 62
     1
 10
5.256746
 20
4.402521
 30
0.000000
 40
0.125000
  1
.300
  0
LINE
  8
HUB
 62
     1
  6
CONTINUOUS
 10
6.027770
 20
4.467873
 30
0.000000
 11
5.627770
 21
4.467873
 31
0.000000
  0
LINE
  8
HUB
 62
     1
  6
CONTINUOUS
 10
6.327770
 20
4.467873
 30
0.000000
 11
6.727770
 21
4.467873
 31
0.000000
  0
LINE
  8
HUB
 62
     1
  6
CONTINUOUS
 10
4.508294
 20
0.730332
 30
0.000000
 11
4.456530
 21
0.923517
 31
0.000000
  0
LINE
  8
HUB
 62
     1
  6
CONTINUOUS
 10
4.508294
 20
0.730332
 30
0.000000
 11
4.560058
 21
0.923517
 31
0.000000
  0
LINE
  8
HUB
 62
     1
  6
CONTINUOUS
 10
4.508294
 20
4.080332
 30
0.000000
 11
4.560058
 21
3.887147
 31
0.000000
  0
LINE
  8
HUB
 62
     1
  6
CONTINUOUS
 10
4.508294
 20
4.080332
 30
0.000000
 11
4.456530
 21
3.887147
 31
0.000000
  0
LINE
  8
HUB
 62
     1
  6
CONTINUOUS
 10
6.257770
 20
0.730332
 30
0.000000
 11
4.458294
 21
0.730332
 31
0.000000
  0
LINE
  8
HUB
 62
     1
  6
CONTINUOUS
 10
6.257770
 20
4.080332
 30
0.000000
 11
4.458294
 21
4.080332
 31
0.000000
  0
TEXT
  8
HUB
 62
     1
 10
4.330261
 20
2.692316
 30
0.000000
 40
0.125000
  1
3.35
  0
LINE
  8
HUB
 62
     1
  6
CONTINUOUS
 10
4.508294
 20
0.730332
 30
0.000000
 11
4.508294
 21
2.642316
 31
0.000000
  0
LINE
  8
HUB
 62
     1
  6
CONTINUOUS
 10
4.508294
 20
2.870190
 30
0.000000
 11
4.508294
 21
4.080332
 31
0.000000
  0
LINE
  8
HUB
 62
     1
  6
CONTINUOUS
 10
7.988588
 20
1.905332
 30
0.000000
 11
7.936824
 21
2.098517
 31
0.000000
  0
LINE
  8
HUB
 62
     1
  6
CONTINUOUS
 10
7.988588
 20
1.905332
 30
0.000000
 11
8.040352
 21
2.098517
 31
0.000000
  0
LINE
  8
HUB
 62
     1
  6
CONTINUOUS
 10
7.988588
 20
2.905332
 30
0.000000
 11
8.040352
 21
2.712147
 31
0.000000
  0
LINE
  8
HUB
 62
     1
  6
CONTINUOUS
 10
7.988588
 20
2.905332
 30
0.000000
 11
7.936824
 21
2.712147
 31
0.000000
  0
LINE
  8
HUB
 62
     1
  6
CONTINUOUS
 10
7.210270
 20
1.905332
 30
0.000000
 11
8.038588
 21
1.905332
 31
0.000000
  0
LINE
  8
HUB
 62
     1
  6
CONTINUOUS
 10
7.210270
 20
2.905332
 30
0.000000
 11
8.038588
 21
2.905332
 31
0.000000
  0
TEXT
  8
HUB
 62
     1
 10
7.814393
 20
2.339979
 30
0.000000
 40
0.125000
  1
1.00
  0
LINE
  8
HUB
 62
     1
  6
CONTINUOUS
 10
7.988588
 20
1.905332
 30
0.000000
 11
7.988588
 21
2.289980
 31
0.000000
  0
LINE
  8
HUB
 62
     1
  6
CONTINUOUS
 10
7.988588
 20
2.520684
 30
0.000000
 11
7.988588
 21
2.905332
 31
0.000000
  0
LINE
  8
HUB
 62
     1
  6
CONTINUOUS
 10
9.224758
 20
1.280332
 30
0.000000
 11
9.172994
 21
1.473517
 31
0.000000
  0
LINE
  8
HUB
 62
     1
  6
CONTINUOUS
 10
9.224758
 20
1.280332
 30
0.000000
 11
9.276521
 21
1.473517
 31
0.000000
  0
LINE
  8
HUB
 62
     1
  6
CONTINUOUS
 10
9.224758
 20
3.530332
 30
0.000000
 11
9.276521
 21
3.337147
 31
0.000000
  0
LINE
  8
HUB
 62
     1
  6
CONTINUOUS
 10
9.224758
 20
3.530332
 30
0.000000
 11
9.172994
 21
3.337147
 31
0.000000
  0
LINE
  8
HUB
 62
     1
  6
CONTINUOUS
 10
8.585270
 20
1.280332
 30
0.000000
 11
9.274758
 21
1.280332
 31
0.000000
  0
LINE
  8
HUB
 62
     1
  6
CONTINUOUS
 10
8.585270
 20
3.530332
 30
0.000000
 11
9.274758
 21
3.530332
 31
0.000000
  0
TEXT
  8
HUB
 62
     1
 10
9.054113
 20
2.339749
 30
0.000000
 40
0.125000
  1
2.25
  0
LINE
  8
HUB
 62
     1
  6
CONTINUOUS
 10
9.224758
 20
1.280332
 30
0.000000
 11
9.224758
 21
2.289749
 31
0.000000
  0
LINE
  8
HUB
 62
     1
  6
CONTINUOUS
 10
9.224758
 20
2.520914
 30
0.000000
 11
9.224758
 21
3.530332
 31
0.000000
  0
LINE
  8
HUB
 62
     1
  6
CONTINUOUS
 10
5.164415
 20
1.696332
 30
0.000000
 11
5.112651
 21
1.889517
 31
0.000000
  0
LINE
  8
HUB
 62
     1
  6
CONTINUOUS
 10
5.164415
 20
1.696332
 30
0.000000
 11
5.216179
 21
1.889517
 31
0.000000
  0
LINE
  8
HUB
 62
     1
  6
CONTINUOUS
 10
5.164415
 20
3.114332
 30
0.000000
 11
5.216179
 21
2.921147
 31
0.000000
  0
LINE
  8
HUB
 62
     1
  6
CONTINUOUS
 10
5.164415
 20
3.114332
 30
0.000000
 11
5.112651
 21
2.921147
 31
0.000000
  0
LINE
  8
HUB
 62
     1
  6
CONTINUOUS
 10
6.007770
 20
1.696332
 30
0.000000
 11
5.114415
 21
1.696332
 31
0.000000
  0
LINE
  8
HUB
 62
     1
  6
CONTINUOUS
 10
6.070270
 20
3.114332
 30
0.000000
 11
5.114415
 21
3.114332
 31
0.000000
  0
TEXT
  8
HUB
 62
     1
 10
4.707194
 20
2.205791
 30
0.000000
 40
0.125000
  1
1.418
  0
TEXT
  8
HUB
 62
     1
 10
5.114039
 20
2.321294
 30
0.000000
 40
0.125000
  1
+.000
  0
TEXT
  8
HUB
 62
     1
 10
5.114039
 20
2.090288
 30
0.000000
 40
0.125000
  1
-.002
  0
LINE
  8
HUB
 62
     1
  6
CONTINUOUS
 10
5.164415
 20
1.696332
 30
0.000000
 11
5.164415
 21
2.040439
 31
0.000000
  0
LINE
  8
HUB
 62
     1
  6
CONTINUOUS
 10
5.164415
 20
2.502149
 30
0.000000
 11
5.164415
 21
3.114332
 31
0.000000
  0
LINE
  8
HUB
 62
     1
  6
CONTINUOUS
 10
7.703318
 20
3.260230
 30
0.000000
 11
7.893983
 21
3.199842
 31
0.000000
  0
LINE
  8
HUB
 62
     1
  6
CONTINUOUS
 10
7.703318
 20
3.260230
 30
0.000000
 11
7.838245
 21
3.112600
 31
0.000000
  0
LINE
  8
HUB
 62
     1
  6
CONTINUOUS
 10
7.703318
 20
3.260230
 30
0.000000
 11
8.045642
 21
3.041523
 31
0.000000
  0
LINE
  8
HUB
 62
     1
  6
CONTINUOUS
 10
8.045642
 20
3.041523
 30
0.000000
 11
8.245642
 21
3.041523
 31
0.000000
  0
TEXT
  8
HUB
 62
     1
 10
8.345641
 20
2.979022
 30
0.000000
 40
0.125000
  1
NOTE C
  0
CIRCLE
  8
HUB
 62
     7
  6
CONTINUOUS
 10
2.118232
 20
3.664831
 30
0.000000
 40
0.206500
  0
CIRCLE
  8
HUB
 62
     7
  6
CONTINUOUS
 10
1.027473
 20
3.035081
 30
0.000000
 40
0.206500
  0
CIRCLE
  8
HUB
 62
     7
  6
CONTINUOUS
 10
1.027473
 20
1.775581
 30
0.000000
 40
0.206500
  0
CIRCLE
  8
HUB
 62
     7
  6
CONTINUOUS
 10
2.118232
 20
1.145831
 30
0.000000
 40
0.206500
  0
CIRCLE
  8
HUB
 62
     7
  6
CONTINUOUS
 10
3.208991
 20
1.775581
 30
0.000000
 40
0.206500
  0
CIRCLE
  8
HUB
 62
     7
  6
CONTINUOUS
 10
3.208991
 20
3.035081
 30
0.000000
 40
0.206500
  0
CIRCLE
  8
HUB
 62
     7
  6
CONTINUOUS
 10
2.118232
 20
2.405331
 30
0.000000
 40
1.675000
  0
CIRCLE
  8
HUB
 62
     7
  6
CONTINUOUS
 10
1.766731
 20
3.014148
 30
0.000000
 40
0.101500
  0
CIRCLE
  8
HUB
 62
     7
  6
CONTINUOUS
 10
1.766731
 20
3.014148
 30
0.000000
 40
0.179499
  0
CIRCLE
  8
HUB
 62
     7
  6
CONTINUOUS
 10
1.415232
 20
2.405331
 30
0.000000
 40
0.101500
  0
CIRCLE
  8
HUB
 62
     7
  6
CONTINUOUS
 10
1.415232
 20
2.405331
 30
0.000000
 40
0.179500
  0
CIRCLE
  8
HUB
 62
     7
  6
CONTINUOUS
 10
1.766732
 20
1.796515
 30
0.000000
 40
0.101499
  0
CIRCLE
  8
HUB
 62
     7
  6
CONTINUOUS
 10
1.766732
 20
1.796515
 30
0.000000
 40
0.179500
  0
CIRCLE
  8
HUB
 62
     7
  6
CONTINUOUS
 10
2.469732
 20
1.796517
 30
0.000000
 40
0.101500
  0
CIRCLE
  8
HUB
 62
     7
  6
CONTINUOUS
 10
2.469732
 20
1.796517
 30
0.000000
 40
0.179501
  0
CIRCLE
  8
HUB
 62
     7
  6
CONTINUOUS
 10
2.821232
 20
2.405333
 30
0.000000
 40
0.101500
  0
CIRCLE
  8
HUB
 62
     7
  6
CONTINUOUS
 10
2.821232
 20
2.405333
 30
0.000000
 40
0.179500
  0
CIRCLE
  8
HUB
 62
     7
  6
CONTINUOUS
 10
2.469731
 20
3.014148
 30
0.000000
 40
0.101499
  0
CIRCLE
  8
HUB
 62
     7
  6
CONTINUOUS
 10
2.469731
 20
3.014148
 30
0.000000
 40
0.179500
  0
CIRCLE
  8
HUB
 62
     7
  6
CONTINUOUS
 10
2.118232
 20
2.405331
 30
0.000000
 40
0.500000
  0
ARC
  8
HUB
 62
     7
  6
CONTINUOUS
 10
2.118232
 20
2.405331
 30
0.000000
 40
0.709000
 50
74.598858
 51
105.401252
  0
ARC
  8
HUB
 62
     7
  6
CONTINUOUS
 10
2.118232
 20
2.405331
 30
0.000000
 40
0.659000
 50
74.689291
 51
105.310833
  0
ARC
  8
HUB
 62
     7
  6
CONTINUOUS
 10
2.118232
 20
2.405331
 30
0.000000
 40
0.709000
 50
134.598858
 51
165.401252
  0
ARC
  8
HUB
 62
     7
  6
CONTINUOUS
 10
2.118232
 20
2.405331
 30
0.000000
 40
0.659000
 50
134.689291
 51
165.310833
  0
ARC
  8
HUB
 62
     7
  6
CONTINUOUS
 10
2.118232
 20
2.405331
 30
0.000000
 40
0.709000
 50
194.598858
 51
225.401252
  0
ARC
  8
HUB
 62
     7
  6
CONTINUOUS
 10
2.118232
 20
2.405331
 30
0.000000
 40
0.659000
 50
194.689291
 51
225.310833
  0
ARC
  8
HUB
 62
     7
  6
CONTINUOUS
 10
2.118232
 20
2.405331
 30
0.000000
 40
0.709000
 50
254.598858
 51
285.401252
  0
ARC
  8
HUB
 62
     7
  6
CONTINUOUS
 10
2.118232
 20
2.405331
 30
0.000000
 40
0.659000
 50
254.689291
 51
285.310833
  0
ARC
  8
HUB
 62
     7
  6
CONTINUOUS
 10
2.118232
 20
2.405331
 30
0.000000
 40
0.709000
 50
314.598858
 51
345.401252
  0
ARC
  8
HUB
 62
     7
  6
CONTINUOUS
 10
2.118232
 20
2.405331
 30
0.000000
 40
0.659000
 50
314.689291
 51
345.310833
  0
ARC
  8
HUB
 62
     7
  6
CONTINUOUS
 10
2.118232
 20
2.405331
 30
0.000000
 40
0.709000
 50
14.598858
 51
45.401252
  0
ARC
  8
HUB
 62
     7
  6
CONTINUOUS
 10
2.118232
 20
2.405331
 30
0.000000
 40
0.659000
 50
14.689291
 51
45.310833
  0
CIRCLE
  8
CENTER
 62
     7
  6
CONTINUOUS
 10
2.118232
 20
2.405331
 30
0.000000
 40
0.703001
  0
CIRCLE
  8
HUB
 62
     7
  6
CONTINUOUS
 10
2.118232
 20
2.405331
 30
0.000000
 40
1.259500
  0
LINE
  8
HUB
 62
     1
  6
CONTINUOUS
 10
2.852209
 20
4.448855
 30
0.000000
 11
3.052209
 21
4.448855
 31
0.000000
  0
LINE
  8
HUB
 62
     1
  6
CONTINUOUS
 10
2.543981
 20
3.590691
 30
0.000000
 11
2.527395
 21
3.391380
 31
0.000000
  0
LINE
  8
HUB
 62
     1
  6
CONTINUOUS
 10
2.543981
 20
3.590691
 30
0.000000
 11
2.429961
 21
3.426376
 31
0.000000
  0
LINE
  8
HUB
 62
     1
  6
CONTINUOUS
 10
1.692483
 20
1.219972
 30
0.000000
 11
1.709068
 21
1.419283
 31
0.000000
  0
LINE
  8
HUB
 62
     1
  6
CONTINUOUS
 10
1.692483
 20
1.219972
 30
0.000000
 11
1.806502
 21
1.384287
 31
0.000000
  0
TEXT
  8
HUB
 62
     1
 10
3.102209
 20
4.364084
 30
0.000000
 40
0.125000
  1
BC 2.519
  0
LINE
  8
HUB
 62
     1
  6
CONTINUOUS
 10
1.692483
 20
1.219972
 30
0.000000
 11
2.852209
 21
4.448855
 31
0.000000
  0
LINE
  8
HUB
 62
     1
  6
CONTINUOUS
 10
2.500377
 20
1.596155
 30
0.000000
 11
2.605081
 21
1.425753
 31
0.000000
  0
LINE
  8
HUB
 62
     1
  6
CONTINUOUS
 10
2.500377
 20
1.596155
 30
0.000000
 11
2.505852
 21
1.396230
 31
0.000000
  0
LINE
  8
HUB
 62
     1
  6
CONTINUOUS
 10
2.500377
 20
1.596155
 30
0.000000
 11
2.842700
 21
0.445566
 31
0.000000
  0
LINE
  8
HUB
 62
     1
  6
CONTINUOUS
 10
2.842700
 20
0.445566
 30
0.000000
 11
3.042700
 21
0.445566
 31
0.000000
  0
TEXT
  8
HUB
 62
     1
 10
3.142699
 20
0.383066
 30
0.000000
 40
0.125000
  1
NOTE A
  0
LINE
  8
HUB
 62
     1
  6
CONTINUOUS
 10
2.215107
 20
3.859297
 30
0.000000
 11
2.248813
 21
4.056436
 31
0.000000
  0
LINE
  8
HUB
 62
     1
  6
CONTINUOUS
 10
2.215107
 20
3.859297
 30
0.000000
 11
2.342867
 21
4.013171
 31
0.000000
  0
LINE
  8
HUB
 62
     1
  6
CONTINUOUS
 10
2.215107
 20
3.859297
 30
0.000000
 11
2.652521
 21
4.810197
 31
0.000000
  0
LINE
  8
HUB
 62
     1
  6
CONTINUOUS
 10
2.652521
 20
4.810197
 30
0.000000
 11
2.852521
 21
4.810197
 31
0.000000
  0
TEXT
  8
HUB
 62
     1
 10
2.952520
 20
4.747696
 30
0.000000
 40
0.125000
  1
NOTE B
  0
TEXT
  8
DIM
 62
     7
 10
9.152560
 20
6.624914
 30
0.000000
 40
0.125000
  1
ELECTRO AUTOMOTIVE
  0
TEXT
  8
DIM
 62
     7
 10
9.152560
 20
6.437416
 30
0.000000
 40
0.125000
  1
P.O. BOX 1113 FELTON CA. 95018-1113
  0
LINE
  8
DIM
 62
     7
  6
CONTINUOUS
 10
9.019813
 20
5.962426
 30
0.000000
 11
9.019813
 21
6.862410
 31
0.000000
  0
TEXT
  8
DIM
 62
     7
 10
9.152560
 20
6.249916
 30
0.000000
 40
0.125000
  1
PHONE 831-429-1989 FAX 831-429-1907
  0
LINE
  8
DIM
 62
     7
  6
CONTINUOUS
 10
12.712767
 20
6.862410
 30
0.000000
 11
12.712767
 21
5.962426
 31
0.000000
  0
LINE
  8
DIM
 62
     7
  6
CONTINUOUS
 10
12.712767
 20
5.962426
 30
0.000000
 11
9.019813
 21
5.962426
 31
0.000000
  0
LINE
  8
DIM
 62
     7
  6
CONTINUOUS
 10
9.019813
 20
6.862410
 30
0.000000
 11
12.712767
 21
6.862410
 31
0.000000
  0
TEXT
  8
DIM
 62
     7
 10
9.152560
 20
6.062415
 30
0.000000
 40
0.125000
  1
DRAWN BY DAN SULLIVAN
  0
TEXT
  8
DIM
 62
     7
 10
9.114689
 20
5.582917
 30
0.000000
 40
0.125000
  1
HUB, 1993 TOYOTA TERCEL
  0
TEXT
  8
DIM
 62
     7
 10
9.114689
 20
5.395417
 30
0.000000
 40
0.125000
  1
1/14/09   REV A
  0
TEXT
  8
DIM
 62
     7
 10
9.736664
 20
3.813863
 30
0.000000
 40
0.125000
  1
NOTE C - MACHINE STANDARD
  0
TEXT
  8
DIM
 62
     7
 10
9.736664
 20
3.626364
 30
0.000000
 40
0.125000
  1
TAPER AND DEPTH TO
  0
TEXT
  8
DIM
 62
     7
 10
9.736664
 20
3.438863
 30
0.000000
 40
0.125000
  1
MATCH BUSHING.
  0
TEXT
  8
DIM
 62
     7
 10
9.726122
 20
4.992570
 30
0.000000
 40
0.125000
  1
NOTE A - 6X DRILL THRU 13/64, 
  0
TEXT
  8
DIM
 62
     7
 10
9.726122
 20
4.805069
 30
0.000000
 40
0.125000
  1
CB 23/64 X .74 DEEP ON BC
  0
TEXT
  8
DIM
 62
     7
 10
9.726122
 20
4.617569
 30
0.000000
 40
0.125000
  1
1 13/32 (1.406). EQ SPC.
  0
TEXT
  8
DIM
 62
     7
 10
9.726122
 20
4.327911
 30
0.000000
 40
0.125000
  1
NOTE B - 6X DRILL & TAP
  0
TEXT
  8
DIM
 62
     7
 10
9.726122
 20
4.140411
 30
0.000000
 40
0.125000
  1
10mm - 1.25 X .7 DEEP. EQ SPC.
  0
LINE
  8
HUB
 62
     1
  6
CONTINUOUS
 10
6.010732
 20
3.129189
 30
0.000000
 11
5.844249
 21
3.240019
 31
0.000000
  0
LINE
  8
HUB
 62
     1
  6
CONTINUOUS
 10
6.010732
 20
3.129189
 30
0.000000
 11
5.921969
 21
3.308412
 31
0.000000
  0
LINE
  8
HUB
 62
     1
  6
CONTINUOUS
 10
6.010732
 20
3.129189
 30
0.000000
 11
5.630024
 21
3.561812
 31
0.000000
  0
LINE
  8
HUB
 62
     1
  6
CONTINUOUS
 10
5.630024
 20
3.561812
 30
0.000000
 11
5.430024
 21
3.561812
 31
0.000000
  0
TEXT
  8
HUB
 62
     1
 10
4.750185
 20
3.499311
 30
0.000000
 40
0.125000
  1
CHAMF
  0
TEXT
  8
HUB
 62
     1
 10
4.750185
 20
3.311812
 30
0.000000
 40
0.125000
  1
.05
  0
LINE
  8
HUB
 62
     7
  6
CONTINUOUS
 10
7.202640
 20
3.664832
 30
0.000000
 11
6.158680
 21
3.664832
 31
0.000000
  0
LINE
  8
HUB
 62
     7
  6
CONTINUOUS
 10
7.202640
 20
1.145831
 30
0.000000
 11
6.158680
 21
1.145831
 31
0.000000
  0
ENDSEC
  0
EOF
