  0
SECTION
  2
HEADER
  9
$ACADVER
  1
AC1006
  0
ENDSEC
  0
SECTION
  2
TABLES
  0
TABLE
  2
LTYPE
 70
    25
  0
LTYPE
  2
CONTINUOUS
 70
    64
  3
Solid line
 72
    64
 73
     0
 40
0.000000
  0
LTYPE
  2
DASHDOT
 70
    64
  3
__ . __ . __ . __ . __ . __ . __ . __ . __ . __
 72
    65
 73
     4
 40
1.000000
 49
0.500000
 49
-0.250000
 49
0.000000
 49
-0.250000
  0
LTYPE
  2
DASHED
 70
    64
  3
__ __ __ __ __ __ __ __ __ __ __ __ __ __ __ __
 72
    65
 73
     2
 40
0.750000
 49
0.500000
 49
-0.250000
  0
LTYPE
  2
DIVIDE
 70
    64
  3
____ . . ____ . . ____ . . ____ . . ____ . . __
 72
    65
 73
     6
 40
1.250000
 49
0.500000
 49
-0.250000
 49
0.000000
 49
-0.250000
 49
0.000000
 49
-0.250000
  0
LTYPE
  2
DOT
 70
    64
  3
. . . . . . . . . . . . . . . . . . . . . . . . 
 72
    65
 73
     2
 40
0.250000
 49
0.000000
 49
-0.250000
  0
ENDTAB
  0
ENDSEC
  0
SECTION
  2
ENTITIES
  0
LINE
  8
DIEM
 62
     7
  6
CONTINUOUS
 10
2.600294
 20
5.495234
 30
0.000000
 11
3.085586
 21
6.988805
 31
0.000000
  0
LINE
  8
DIEM
 62
     7
  6
CONTINUOUS
 10
2.600294
 20
5.495234
 30
0.000000
 11
2.115367
 21
6.987684
 31
0.000000
  0
LINE
  8
DIEM
 62
     7
  6
CONTINUOUS
 10
1.060898
 20
8.777646
 30
0.000000
 11
1.171166
 21
8.718774
 31
0.000000
  0
LINE
  8
DIEM
 62
     7
  6
CONTINUOUS
 10
1.060898
 20
8.777646
 30
0.000000
 11
1.065048
 21
8.652715
 31
0.000000
  0
LINE
  8
DIEM
 62
     7
  6
CONTINUOUS
 10
1.060898
 20
8.777646
 30
0.000000
 11
1.704815
 21
7.743250
 31
0.000000
  0
LINE
  8
DIEM
 62
     7
  6
CONTINUOUS
 10
1.704815
 20
7.743250
 30
0.000000
 11
2.204815
 21
7.743250
 31
0.000000
  0
TEXT
  8
DIEM
 62
     7
 10
2.267315
 20
7.680750
 30
0.000000
 40
0.125000
  1
BOLT CIRCLE 7 1/4"DIA.
  0
LINE
  8
DIEM
 62
     7
  6
CONTINUOUS
 10
1.814752
 20
8.389748
 30
0.000000
 11
1.938704
 21
8.373595
 31
0.000000
  0
LINE
  8
DIEM
 62
     7
  6
CONTINUOUS
 10
1.814752
 20
8.389748
 30
0.000000
 11
1.862740
 21
8.274326
 31
0.000000
  0
LINE
  8
DIEM
 62
     7
  6
CONTINUOUS
 10
1.814752
 20
8.389748
 30
0.000000
 11
2.427259
 21
7.921037
 31
0.000000
  0
LINE
  8
DIEM
 62
     7
  6
CONTINUOUS
 10
2.427259
 20
7.921037
 30
0.000000
 11
2.927259
 21
7.921037
 31
0.000000
  0
TEXT
  8
DIEM
 62
     7
 10
2.989759
 20
7.858536
 30
0.000000
 40
0.125000
  1
6" DIA.
  0
POINT
  8
ADV9
 62
     7
 10
9.146152
 20
5.495246
 30
0.000000
  0
LINE
  8
ADV9
 62
     7
  6
CONTINUOUS
 10
9.146152
 20
5.495246
 30
0.000000
 11
9.146152
 21
10.060246
 31
0.000000
  0
LINE
  8
ADV9
 62
     7
  6
CONTINUOUS
 10
9.146152
 20
5.495246
 30
0.000000
 11
9.146152
 21
0.930246
 31
0.000000
  0
LINE
  8
ADV9
 62
     7
  6
CONTINUOUS
 10
9.146152
 20
0.930246
 30
0.000000
 11
10.676059
 21
0.930246
 31
0.000000
  0
LINE
  8
ADV9
 62
     7
  6
CONTINUOUS
 10
9.146152
 20
10.060246
 30
0.000000
 11
10.644283
 21
10.060246
 31
0.000000
  0
POINT
  8
ADV9
 62
     7
 10
9.146152
 20
5.495246
 30
0.000000
  0
POINT
  8
ADV9
 62
     7
 10
9.150475
 20
7.495241
 30
0.000000
  0
POINT
  8
ADV9
 62
     7
 10
9.146152
 20
5.495246
 30
0.000000
  0
LINE
  8
ADV9
 62
     7
  6
CONTINUOUS
 10
9.146152
 20
10.060246
 30
0.000000
 11
9.146152
 21
5.495246
 31
0.000000
  0
POINT
  8
ADV9
 62
     7
 10
9.150599
 20
3.495251
 30
0.000000
  0
LINE
  8
ADV9
 62
     7
  6
CONTINUOUS
 10
9.150475
 20
7.495241
 30
0.000000
 11
8.959475
 21
7.495241
 31
0.000000
  0
LINE
  8
ADV9
 62
     7
  6
CONTINUOUS
 10
9.150599
 20
3.495251
 30
0.000000
 11
8.959599
 21
3.495251
 31
0.000000
  0
LINE
  8
ADV9
 62
     7
  6
CONTINUOUS
 10
8.959475
 20
7.495241
 30
0.000000
 11
8.959475
 21
3.495251
 31
0.000000
  0
POINT
  8
ADV9
 62
     7
 10
8.959475
 20
5.495246
 30
0.000000
  0
POINT
  8
ADV9
 62
     7
 10
8.969419
 20
7.094215
 30
0.000000
  0
POINT
  8
ADV9
 62
     7
 10
8.966231
 20
3.896217
 30
0.000000
  0
POINT
  8
ADV9
 62
     7
 10
8.959475
 20
5.495246
 30
0.000000
  0
POINT
  8
ADV9
 62
     7
 10
8.617475
 20
5.495246
 30
0.000000
  0
LINE
  8
ADV9
 62
     7
  6
CONTINUOUS
 10
8.617475
 20
5.495246
 30
0.000000
 11
8.617475
 21
6.935246
 31
0.000000
  0
LINE
  8
ADV9
 62
     7
  6
CONTINUOUS
 10
8.617475
 20
5.495246
 30
0.000000
 11
8.617475
 21
4.055246
 31
0.000000
  0
LINE
  8
ADV9
 62
     7
  6
CONTINUOUS
 10
8.617475
 20
4.055246
 30
0.000000
 11
8.966231
 21
3.896217
 31
0.000000
  0
LINE
  8
ADV9
 62
     7
  6
CONTINUOUS
 10
8.617475
 20
6.935246
 30
0.000000
 11
8.969419
 21
7.094215
 31
0.000000
  0
POINT
  8
ADV9
 62
     7
 10
8.617475
 20
5.495246
 30
0.000000
  0
POINT
  8
ADV9
 62
     7
 10
8.617475
 20
5.495246
 30
0.000000
  0
POINT
  8
ADV9
 62
     7
 10
7.129474
 20
5.495246
 30
0.000000
  0
LINE
  8
ADV9
 62
     7
  6
CONTINUOUS
 10
7.129474
 20
5.495246
 30
0.000000
 11
7.129474
 21
5.995176
 31
0.000000
  0
LINE
  8
ADV9
 62
     7
  6
CONTINUOUS
 10
7.129474
 20
5.495246
 30
0.000000
 11
7.129474
 21
4.995246
 31
0.000000
  0
POINT
  8
ADV9
 62
     7
 10
7.129474
 20
5.495246
 30
0.000000
  0
POINT
  8
ADV9
 62
     7
 10
7.129474
 20
5.495246
 30
0.000000
  0
POINT
  8
ADV9
 62
     7
 10
7.189462
 20
6.058955
 30
0.000000
  0
POINT
  8
ADV9
 62
     7
 10
7.189462
 20
4.933955
 30
0.000000
  0
LINE
  8
ADV9
 62
     7
  6
CONTINUOUS
 10
7.189462
 20
6.058955
 30
0.000000
 11
8.617475
 21
6.058955
 31
0.000000
  0
LINE
  8
ADV9
 62
     7
  6
CONTINUOUS
 10
7.189462
 20
4.933955
 30
0.000000
 11
8.617475
 21
4.933955
 31
0.000000
  0
LINE
  8
ADV9
 62
     7
  6
CONTINUOUS
 10
7.189462
 20
5.496455
 30
0.000000
 11
7.189462
 21
6.058955
 31
0.000000
  0
LINE
  8
ADV9
 62
     7
  6
CONTINUOUS
 10
7.189462
 20
5.496455
 30
0.000000
 11
7.189462
 21
4.933955
 31
0.000000
  0
LINE
  8
ADV9
 62
     7
  6
CONTINUOUS
 10
7.189462
 20
4.933955
 30
0.000000
 11
7.129474
 21
4.995246
 31
0.000000
  0
LINE
  8
ADV9
 62
     7
  6
CONTINUOUS
 10
7.129474
 20
5.995176
 30
0.000000
 11
7.189462
 21
6.058955
 31
0.000000
  0
POINT
  8
ADV9
 62
     7
 10
7.189462
 20
5.495234
 30
0.000000
  0
CIRCLE
  8
HUB
 62
     7
  6
CONTINUOUS
 10
2.600294
 20
5.495234
 30
0.000000
 40
1.250000
  0
POINT
  8
HUB
 62
     7
 10
2.600294
 20
5.495234
 30
0.000000
  0
POINT
  8
HUB
 62
     7
 10
2.600294
 20
5.495234
 30
0.000000
  0
POINT
  8
HUB
 62
     7
 10
2.600294
 20
5.495234
 30
0.000000
  0
CIRCLE
  8
HUB
 62
     7
  6
CONTINUOUS
 10
2.600294
 20
5.495234
 30
0.000000
 40
0.437500
  0
CIRCLE
  8
HUB
 62
     7
  6
CONTINUOUS
 10
2.600294
 20
5.495234
 30
0.000000
 40
0.703100
  0
CIRCLE
  8
HUB
 62
     7
  6
CONTINUOUS
 10
2.600294
 20
5.495234
 30
0.000000
 40
0.812500
  0
POINT
  8
HUB
 62
     7
 10
3.303394
 20
5.495234
 30
0.000000
  0
CIRCLE
  8
DIEM
 62
     7
  6
CONTINUOUS
 10
3.303394
 20
5.495234
 30
0.000000
 40
0.101550
  0
CIRCLE
  8
DIEM
 62
     7
  6
CONTINUOUS
 10
3.303394
 20
5.495234
 30
0.000000
 40
0.179700
  0
POINT
  8
HUB
 62
     7
 10
2.817564
 20
6.163921
 30
0.000000
  0
CIRCLE
  8
DIEM
 62
     7
  6
CONTINUOUS
 10
2.817564
 20
6.163921
 30
0.000000
 40
0.101550
  0
CIRCLE
  8
DIEM
 62
     7
  6
CONTINUOUS
 10
2.817564
 20
6.163921
 30
0.000000
 40
0.179700
  0
POINT
  8
HUB
 62
     7
 10
2.031475
 20
5.908505
 30
0.000000
  0
CIRCLE
  8
DIEM
 62
     7
  6
CONTINUOUS
 10
2.031475
 20
5.908505
 30
0.000000
 40
0.101550
  0
CIRCLE
  8
DIEM
 62
     7
  6
CONTINUOUS
 10
2.031475
 20
5.908505
 30
0.000000
 40
0.179700
  0
POINT
  8
HUB
 62
     7
 10
2.031474
 20
5.081962
 30
0.000000
  0
CIRCLE
  8
DIEM
 62
     7
  6
CONTINUOUS
 10
2.031474
 20
5.081962
 30
0.000000
 40
0.101550
  0
CIRCLE
  8
DIEM
 62
     7
  6
CONTINUOUS
 10
2.031474
 20
5.081962
 30
0.000000
 40
0.179700
  0
POINT
  8
HUB
 62
     7
 10
2.817564
 20
4.826546
 30
0.000000
  0
CIRCLE
  8
DIEM
 62
     7
  6
CONTINUOUS
 10
2.817564
 20
4.826546
 30
0.000000
 40
0.101550
  0
CIRCLE
  8
DIEM
 62
     7
  6
CONTINUOUS
 10
2.817564
 20
4.826546
 30
0.000000
 40
0.179700
  0
LINE
  8
HUB
 62
     7
  6
CONTINUOUS
 10
2.600294
 20
5.495234
 30
0.000000
 11
3.756368
 21
6.335171
 31
0.000000
  0
POINT
  8
HUB
 62
     7
 10
3.257620
 20
5.972809
 30
0.000000
  0
CIRCLE
  8
HUB
 62
     7
  6
CONTINUOUS
 10
3.257620
 20
5.972809
 30
0.000000
 40
0.203100
  0
CIRCLE
  8
HUB
 62
     7
  6
CONTINUOUS
 10
2.349217
 20
6.267967
 30
0.000000
 40
0.203100
  0
CIRCLE
  8
HUB
 62
     7
  6
CONTINUOUS
 10
1.787794
 20
5.495233
 30
0.000000
 40
0.203100
  0
CIRCLE
  8
HUB
 62
     7
  6
CONTINUOUS
 10
2.349218
 20
4.722499
 30
0.000000
 40
0.203100
  0
CIRCLE
  8
HUB
 62
     7
  6
CONTINUOUS
 10
3.257621
 20
5.017658
 30
0.000000
 40
0.203100
  0
LINE
  8
HUB
 62
     7
  6
CONTINUOUS
 10
1.321694
 20
6.238511
 30
0.000000
 11
1.259194
 21
6.238511
 31
0.000000
  0
LINE
  8
HUB
 62
     7
  6
CONTINUOUS
 10
1.519625
 20
6.123449
 30
0.000000
 11
1.394626
 21
6.123821
 31
0.000000
  0
LINE
  8
HUB
 62
     7
  6
CONTINUOUS
 10
1.519625
 20
6.123449
 30
0.000000
 11
1.457447
 21
6.231888
 31
0.000000
  0
LINE
  8
HUB
 62
     7
  6
CONTINUOUS
 10
3.680963
 20
4.867018
 30
0.000000
 11
3.805962
 21
4.866646
 31
0.000000
  0
LINE
  8
HUB
 62
     7
  6
CONTINUOUS
 10
3.680963
 20
4.867018
 30
0.000000
 11
3.743141
 21
4.758580
 31
0.000000
  0
TEXT
  8
HUB
 62
     7
 10
0.794416
 20
6.175924
 30
0.000000
 40
0.125000
  1
2 1/2"
  0
LINE
  8
HUB
 62
     7
  6
CONTINUOUS
 10
3.680963
 20
4.867018
 30
0.000000
 11
1.321694
 21
6.238511
 31
0.000000
  0
LINE
  8
HUB
 62
     7
  6
CONTINUOUS
 10
1.374457
 20
5.912718
 30
0.000000
 11
1.311957
 21
5.912718
 31
0.000000
  0
LINE
  8
HUB
 62
     7
  6
CONTINUOUS
 10
1.831175
 20
5.757173
 30
0.000000
 11
1.708553
 21
5.732910
 31
0.000000
  0
LINE
  8
HUB
 62
     7
  6
CONTINUOUS
 10
1.831175
 20
5.757173
 30
0.000000
 11
1.748851
 21
5.851236
 31
0.000000
  0
LINE
  8
HUB
 62
     7
  6
CONTINUOUS
 10
3.369413
 20
5.233294
 30
0.000000
 11
3.492036
 21
5.257557
 31
0.000000
  0
LINE
  8
HUB
 62
     7
  6
CONTINUOUS
 10
3.369413
 20
5.233294
 30
0.000000
 11
3.451737
 21
5.139231
 31
0.000000
  0
TEXT
  8
HUB
 62
     7
 10
0.843542
 20
5.849693
 30
0.000000
 40
0.125000
  1
1 5/8"
  0
LINE
  8
HUB
 62
     7
  6
CONTINUOUS
 10
3.369413
 20
5.233294
 30
0.000000
 11
1.374457
 21
5.912718
 31
0.000000
  0
LINE
  8
HUB
 62
     7
  6
CONTINUOUS
 10
1.323772
 20
5.687517
 30
0.000000
 11
1.261272
 21
5.687517
 31
0.000000
  0
LINE
  8
HUB
 62
     7
  6
CONTINUOUS
 10
1.905037
 20
5.599960
 30
0.000000
 11
2.021392
 21
5.645639
 31
0.000000
  0
LINE
  8
HUB
 62
     7
  6
CONTINUOUS
 10
1.905037
 20
5.599960
 30
0.000000
 11
2.002773
 21
5.522033
 31
0.000000
  0
LINE
  8
HUB
 62
     7
  6
CONTINUOUS
 10
3.295551
 20
5.390507
 30
0.000000
 11
3.179196
 21
5.344828
 31
0.000000
  0
LINE
  8
HUB
 62
     7
  6
CONTINUOUS
 10
3.295551
 20
5.390507
 30
0.000000
 11
3.197815
 21
5.468434
 31
0.000000
  0
TEXT
  8
HUB
 62
     7
 10
0.800411
 20
5.624719
 30
0.000000
 40
0.125000
  1
1.406"
  0
LINE
  8
HUB
 62
     7
  6
CONTINUOUS
 10
3.295551
 20
5.390507
 30
0.000000
 11
1.323772
 21
5.687517
 31
0.000000
  0
POINT
  8
HUB
 62
     7
 10
12.155546
 20
5.495234
 30
0.000000
  0
LINE
  8
HUB
 62
     7
  6
CONTINUOUS
 10
12.155546
 20
5.495234
 30
0.000000
 11
12.155546
 21
6.643684
 31
0.000000
  0
LINE
  8
HUB
 62
     7
  6
CONTINUOUS
 10
12.155546
 20
5.495234
 30
0.000000
 11
12.155546
 21
4.346784
 31
0.000000
  0
POINT
  8
HUB
 62
     7
 10
12.155546
 20
5.495234
 30
0.000000
  0
POINT
  8
HUB
 62
     7
 10
12.155546
 20
5.495234
 30
0.000000
  0
POINT
  8
HUB
 62
     7
 10
12.155546
 20
5.495234
 30
0.000000
  0
POINT
  8
HUB
 62
     7
 10
12.155546
 20
5.495234
 30
0.000000
  0
POINT
  8
HUB
 62
     7
 10
10.280550
 20
5.495239
 30
0.000000
  0
LINE
  8
HUB
 62
     7
  6
CONTINUOUS
 10
12.155546
 20
6.643684
 30
0.000000
 11
10.905546
 21
6.643684
 31
0.000000
  0
LINE
  8
HUB
 62
     7
  6
CONTINUOUS
 10
12.155546
 20
4.346784
 30
0.000000
 11
10.905546
 21
4.346784
 31
0.000000
  0
LINE
  8
HUB
 62
     7
  6
CONTINUOUS
 10
10.905546
 20
6.643684
 30
0.000000
 11
10.905546
 21
6.745684
 31
0.000000
  0
LINE
  8
HUB
 62
     7
  6
CONTINUOUS
 10
10.905546
 20
4.346784
 30
0.000000
 11
10.905546
 21
4.244784
 31
0.000000
  0
LINE
  8
HUB
 62
     7
  6
CONTINUOUS
 10
10.905546
 20
4.244784
 30
0.000000
 11
10.655546
 21
4.244784
 31
0.000000
  0
LINE
  8
HUB
 62
     7
  6
CONTINUOUS
 10
10.905546
 20
6.745684
 30
0.000000
 11
10.655546
 21
6.745684
 31
0.000000
  0
POINT
  8
HUB
 62
     7
 10
10.968046
 20
5.495233
 30
0.000000
  0
LINE
  8
HUB
 62
     7
  6
CONTINUOUS
 10
10.968046
 20
5.495233
 30
0.000000
 11
10.968046
 21
6.307733
 31
0.000000
  0
LINE
  8
HUB
 62
     7
  6
CONTINUOUS
 10
10.968046
 20
5.495233
 30
0.000000
 11
10.968046
 21
4.682733
 31
0.000000
  0
POINT
  8
HUB
 62
     7
 10
10.968046
 20
5.495233
 30
0.000000
  0
POINT
  8
HUB
 62
     7
 10
12.155546
 20
5.495234
 30
0.000000
  0
LINE
  8
HUB
 62
     7
  6
CONTINUOUS
 10
12.155546
 20
5.495234
 30
0.000000
 11
12.155546
 21
6.432734
 31
0.000000
  0
LINE
  8
HUB
 62
     7
  6
CONTINUOUS
 10
12.155546
 20
5.495234
 30
0.000000
 11
12.155546
 21
4.557734
 31
0.000000
  0
LINE
  8
HUB
 62
     7
  6
CONTINUOUS
 10
12.155546
 20
4.557734
 30
0.000000
 11
10.968046
 21
4.682733
 31
0.000000
  0
LINE
  8
HUB
 62
     7
  6
CONTINUOUS
 10
10.968046
 20
6.307733
 30
0.000000
 11
12.155546
 21
6.432734
 31
0.000000
  0
POINT
  8
HUB
 62
     7
 10
12.155546
 20
5.495234
 30
0.000000
  0
POINT
  8
HUB
 62
     7
 10
12.155546
 20
5.495234
 30
0.000000
  0
POINT
  8
HUB
 62
     7
 10
11.549789
 20
5.491656
 30
0.000000
  0
POINT
  8
HUB
 62
     7
 10
11.549789
 20
5.491656
 30
0.000000
  0
POINT
  8
HUB
 62
     7
 10
11.549789
 20
5.491656
 30
0.000000
  0
POINT
  8
HUB
 62
     7
 10
11.549789
 20
5.491656
 30
0.000000
  0
POINT
  8
HUB
 62
     7
 10
11.549789
 20
5.491656
 30
0.000000
  0
POINT
  8
HUB
 62
     7
 10
11.549789
 20
5.491656
 30
0.000000
  0
POINT
  8
HUB
 62
     7
 10
10.280550
 20
5.495239
 30
0.000000
  0
POINT
  8
HUB
 62
     7
 10
10.278130
 20
5.932732
 30
0.000000
  0
POINT
  8
HUB
 62
     7
 10
10.278088
 20
5.057732
 30
0.000000
  0
LINE
  8
HUB
 62
     7
  6
CONTINUOUS
 10
10.278130
 20
5.932732
 30
0.000000
 11
10.973281
 21
5.932732
 31
0.000000
  0
LINE
  8
HUB
 62
     7
  6
CONTINUOUS
 10
10.278088
 20
5.057732
 30
0.000000
 11
10.973281
 21
5.057732
 31
0.000000
  0
POINT
  8
HUB
 62
     7
 10
10.718122
 20
5.495234
 30
0.000000
  0
POINT
  8
HUB
 62
     7
 10
10.718122
 20
5.495234
 30
0.000000
  0
POINT
  8
HUB
 62
     7
 10
10.718122
 20
5.495234
 30
0.000000
  0
POINT
  8
HUB
 62
     7
 10
10.718122
 20
5.495234
 30
0.000000
  0
POINT
  8
HUB
 62
     7
 10
10.718122
 20
5.495234
 30
0.000000
  0
POINT
  8
HUB
 62
     7
 10
10.718122
 20
5.495234
 30
0.000000
  0
POINT
  8
HUB
 62
     7
 10
10.280550
 20
4.682739
 30
0.000000
  0
POINT
  8
HUB
 62
     7
 10
10.280550
 20
4.510889
 30
0.000000
  0
POINT
  8
HUB
 62
     7
 10
10.280550
 20
4.854589
 30
0.000000
  0
LINE
  8
HUB
 62
     7
  6
CONTINUOUS
 10
10.280550
 20
4.854589
 30
0.000000
 11
10.968046
 21
4.854589
 31
0.000000
  0
LINE
  8
HUB
 62
     7
  6
CONTINUOUS
 10
10.280550
 20
4.510889
 30
0.000000
 11
10.968046
 21
4.510889
 31
0.000000
  0
LINE
  8
HUB
 62
     7
  6
CONTINUOUS
 10
10.968046
 20
4.682733
 30
0.000000
 11
10.968046
 21
4.510889
 31
0.000000
  0
LINE
  8
HUB
 62
     7
  6
CONTINUOUS
 10
10.968046
 20
4.682739
 30
0.000000
 11
10.105417
 21
4.682739
 31
0.000000
  0
POINT
  8
HUB
 62
     7
 10
10.280550
 20
4.682739
 30
0.000000
  0
POINT
  8
HUB
 62
     7
 10
10.280550
 20
4.682739
 30
0.000000
  0
POINT
  8
HUB
 62
     7
 10
10.280550
 20
4.682739
 30
0.000000
  0
POINT
  8
HUB
 62
     7
 10
10.311550
 20
4.682739
 30
0.000000
  0
POINT
  8
HUB
 62
     7
 10
10.343050
 20
4.682739
 30
0.000000
  0
POINT
  8
HUB
 62
     7
 10
10.374300
 20
4.682739
 30
0.000000
  0
POINT
  8
HUB
 62
     7
 10
10.405550
 20
4.682739
 30
0.000000
  0
LINE
  8
HUB
 62
     7
  6
CONTINUOUS
 10
10.311550
 20
4.854589
 30
0.000000
 11
10.311550
 21
4.510889
 31
0.000000
  0
LINE
  8
HUB
 62
     7
  6
CONTINUOUS
 10
10.343050
 20
4.827407
 30
0.000000
 11
10.343050
 21
4.538070
 31
0.000000
  0
LINE
  8
HUB
 62
     7
  6
CONTINUOUS
 10
10.374300
 20
4.854589
 30
0.000000
 11
10.374300
 21
4.510889
 31
0.000000
  0
LINE
  8
HUB
 62
     7
  6
CONTINUOUS
 10
10.437050
 20
4.854589
 30
0.000000
 11
10.437050
 21
4.510889
 31
0.000000
  0
LINE
  8
HUB
 62
     7
  6
CONTINUOUS
 10
10.499800
 20
4.854589
 30
0.000000
 11
10.499800
 21
4.510889
 31
0.000000
  0
LINE
  8
HUB
 62
     7
  6
CONTINUOUS
 10
10.562550
 20
4.854589
 30
0.000000
 11
10.562550
 21
4.510889
 31
0.000000
  0
LINE
  8
HUB
 62
     7
  6
CONTINUOUS
 10
10.625299
 20
4.854589
 30
0.000000
 11
10.625299
 21
4.510889
 31
0.000000
  0
LINE
  8
HUB
 62
     7
  6
CONTINUOUS
 10
10.688049
 20
4.854589
 30
0.000000
 11
10.688049
 21
4.510889
 31
0.000000
  0
LINE
  8
HUB
 62
     7
  6
CONTINUOUS
 10
10.750799
 20
4.854589
 30
0.000000
 11
10.750799
 21
4.510889
 31
0.000000
  0
LINE
  8
HUB
 62
     7
  6
CONTINUOUS
 10
10.813549
 20
4.854589
 30
0.000000
 11
10.813549
 21
4.510889
 31
0.000000
  0
LINE
  8
HUB
 62
     7
  6
CONTINUOUS
 10
10.876299
 20
4.854589
 30
0.000000
 11
10.876299
 21
4.510889
 31
0.000000
  0
LINE
  8
HUB
 62
     7
  6
CONTINUOUS
 10
10.939049
 20
4.854589
 30
0.000000
 11
10.939049
 21
4.510889
 31
0.000000
  0
LINE
  8
HUB
 62
     7
  6
CONTINUOUS
 10
10.405550
 20
4.827407
 30
0.000000
 11
10.405550
 21
4.538070
 31
0.000000
  0
LINE
  8
HUB
 62
     7
  6
CONTINUOUS
 10
10.468050
 20
4.827407
 30
0.000000
 11
10.468050
 21
4.538070
 31
0.000000
  0
LINE
  8
HUB
 62
     7
  6
CONTINUOUS
 10
10.530550
 20
4.827407
 30
0.000000
 11
10.530550
 21
4.538070
 31
0.000000
  0
LINE
  8
HUB
 62
     7
  6
CONTINUOUS
 10
10.593050
 20
4.827407
 30
0.000000
 11
10.593050
 21
4.538070
 31
0.000000
  0
LINE
  8
HUB
 62
     7
  6
CONTINUOUS
 10
10.655550
 20
4.827407
 30
0.000000
 11
10.655550
 21
4.538070
 31
0.000000
  0
LINE
  8
HUB
 62
     7
  6
CONTINUOUS
 10
10.718050
 20
4.827407
 30
0.000000
 11
10.718050
 21
4.538070
 31
0.000000
  0
LINE
  8
HUB
 62
     7
  6
CONTINUOUS
 10
10.780550
 20
4.827407
 30
0.000000
 11
10.780550
 21
4.538070
 31
0.000000
  0
LINE
  8
HUB
 62
     7
  6
CONTINUOUS
 10
10.843050
 20
4.827407
 30
0.000000
 11
10.843050
 21
4.538070
 31
0.000000
  0
LINE
  8
HUB
 62
     7
  6
CONTINUOUS
 10
10.905550
 20
4.827407
 30
0.000000
 11
10.905550
 21
4.538070
 31
0.000000
  0
POINT
  8
HUB
 62
     7
 10
10.280550
 20
6.198339
 30
0.000000
  0
POINT
  8
HUB
 62
     7
 10
10.966906
 20
6.199361
 30
0.000000
  0
POINT
  8
HUB
 62
     7
 10
10.280550
 20
6.198339
 30
0.000000
  0
POINT
  8
HUB
 62
     7
 10
10.280550
 20
6.378039
 30
0.000000
  0
POINT
  8
HUB
 62
     7
 10
10.280550
 20
6.018639
 30
0.000000
  0
LINE
  8
HUB
 62
     7
  6
CONTINUOUS
 10
10.280550
 20
6.378039
 30
0.000000
 11
10.468050
 21
6.378039
 31
0.000000
  0
LINE
  8
HUB
 62
     7
  6
CONTINUOUS
 10
10.280550
 20
6.018639
 30
0.000000
 11
10.468050
 21
6.018639
 31
0.000000
  0
LINE
  8
HUB
 62
     7
  6
CONTINUOUS
 10
10.468050
 20
6.018639
 30
0.000000
 11
10.468050
 21
6.378039
 31
0.000000
  0
POINT
  8
HUB
 62
     7
 10
10.468050
 20
6.199361
 30
0.000000
  0
POINT
  8
HUB
 62
     7
 10
10.468050
 20
6.300911
 30
0.000000
  0
POINT
  8
HUB
 62
     7
 10
10.468050
 20
6.097811
 30
0.000000
  0
LINE
  8
HUB
 62
     7
  6
CONTINUOUS
 10
10.468050
 20
6.300911
 30
0.000000
 11
10.968046
 21
6.300911
 31
0.000000
  0
LINE
  8
HUB
 62
     7
  6
CONTINUOUS
 10
10.468050
 20
6.097811
 30
0.000000
 11
10.968046
 21
6.097811
 31
0.000000
  0
LINE
  8
HUB
 62
     7
  6
CONTINUOUS
 10
10.655546
 20
7.303321
 30
0.000000
 11
10.763799
 21
7.365821
 31
0.000000
  0
LINE
  8
HUB
 62
     7
  6
CONTINUOUS
 10
10.655546
 20
7.303321
 30
0.000000
 11
10.763799
 21
7.240821
 31
0.000000
  0
LINE
  8
HUB
 62
     7
  6
CONTINUOUS
 10
10.905546
 20
7.303321
 30
0.000000
 11
10.797293
 21
7.240821
 31
0.000000
  0
LINE
  8
HUB
 62
     7
  6
CONTINUOUS
 10
10.905546
 20
7.303321
 30
0.000000
 11
10.797293
 21
7.365821
 31
0.000000
  0
LINE
  8
HUB
 62
     7
  6
CONTINUOUS
 10
10.655546
 20
6.808184
 30
0.000000
 11
10.655546
 21
7.553321
 31
0.000000
  0
LINE
  8
HUB
 62
     7
  6
CONTINUOUS
 10
10.905546
 20
6.808184
 30
0.000000
 11
10.905546
 21
7.553321
 31
0.000000
  0
TEXT
  8
HUB
 62
     7
 10
11.047435
 20
7.240748
 30
0.000000
 40
0.125000
  1
1/4"
  0
LINE
  8
HUB
 62
     7
  6
CONTINUOUS
 10
10.655546
 20
7.303321
 30
0.000000
 11
11.016185
 21
7.303321
 31
0.000000
  0
LINE
  8
HUB
 62
     7
  6
CONTINUOUS
 10
10.905546
 20
6.934271
 30
0.000000
 11
11.013799
 21
6.996771
 31
0.000000
  0
LINE
  8
HUB
 62
     7
  6
CONTINUOUS
 10
10.905546
 20
6.934271
 30
0.000000
 11
11.013799
 21
6.871771
 31
0.000000
  0
LINE
  8
HUB
 62
     7
  6
CONTINUOUS
 10
12.155546
 20
6.934271
 30
0.000000
 11
12.047293
 21
6.871771
 31
0.000000
  0
LINE
  8
HUB
 62
     7
  6
CONTINUOUS
 10
12.155546
 20
6.934271
 30
0.000000
 11
12.047293
 21
6.996771
 31
0.000000
  0
LINE
  8
HUB
 62
     7
  6
CONTINUOUS
 10
10.905546
 20
6.808184
 30
0.000000
 11
10.905546
 21
7.184271
 31
0.000000
  0
LINE
  8
HUB
 62
     7
  6
CONTINUOUS
 10
12.155546
 20
6.706184
 30
0.000000
 11
12.155546
 21
7.184271
 31
0.000000
  0
TEXT
  8
HUB
 62
     7
 10
11.337667
 20
6.871699
 30
0.000000
 40
0.125000
  1
1 1/4"
  0
LINE
  8
HUB
 62
     7
  6
CONTINUOUS
 10
10.905546
 20
6.934271
 30
0.000000
 11
11.306417
 21
6.934271
 31
0.000000
  0
LINE
  8
HUB
 62
     7
  6
CONTINUOUS
 10
11.754675
 20
6.934271
 30
0.000000
 11
12.155546
 21
6.934271
 31
0.000000
  0
LINE
  8
HUB
 62
     7
  6
CONTINUOUS
 10
12.521322
 20
4.346784
 30
0.000000
 11
12.458822
 21
4.455037
 31
0.000000
  0
LINE
  8
HUB
 62
     7
  6
CONTINUOUS
 10
12.521322
 20
4.346784
 30
0.000000
 11
12.583822
 21
4.455037
 31
0.000000
  0
LINE
  8
HUB
 62
     7
  6
CONTINUOUS
 10
12.521322
 20
6.643684
 30
0.000000
 11
12.583822
 21
6.535431
 31
0.000000
  0
LINE
  8
HUB
 62
     7
  6
CONTINUOUS
 10
12.521322
 20
6.643684
 30
0.000000
 11
12.458822
 21
6.535431
 31
0.000000
  0
LINE
  8
HUB
 62
     7
  6
CONTINUOUS
 10
12.218046
 20
4.346784
 30
0.000000
 11
12.771322
 21
4.346784
 31
0.000000
  0
LINE
  8
HUB
 62
     7
  6
CONTINUOUS
 10
12.218046
 20
6.643684
 30
0.000000
 11
12.771322
 21
6.643684
 31
0.000000
  0
TEXT
  8
HUB
 62
     7
 10
12.247795
 20
5.623988
 30
0.000000
 40
0.125000
  1
2 5/16"
  0
LINE
  8
HUB
 62
     7
  6
CONTINUOUS
 10
12.521322
 20
4.346784
 30
0.000000
 11
12.521322
 21
5.592738
 31
0.000000
  0
LINE
  8
HUB
 62
     7
  6
CONTINUOUS
 10
12.521322
 20
5.780851
 30
0.000000
 11
12.521322
 21
6.643684
 31
0.000000
  0
LINE
  8
HUB
 62
     7
  6
CONTINUOUS
 10
12.870474
 20
4.244784
 30
0.000000
 11
12.807974
 21
4.353038
 31
0.000000
  0
LINE
  8
HUB
 62
     7
  6
CONTINUOUS
 10
12.870474
 20
4.244784
 30
0.000000
 11
12.932974
 21
4.353038
 31
0.000000
  0
LINE
  8
HUB
 62
     7
  6
CONTINUOUS
 10
12.870474
 20
6.745684
 30
0.000000
 11
12.932974
 21
6.637430
 31
0.000000
  0
LINE
  8
HUB
 62
     7
  6
CONTINUOUS
 10
12.870474
 20
6.745684
 30
0.000000
 11
12.807974
 21
6.637430
 31
0.000000
  0
LINE
  8
HUB
 62
     7
  6
CONTINUOUS
 10
10.718046
 20
4.244784
 30
0.000000
 11
13.120474
 21
4.244784
 31
0.000000
  0
LINE
  8
HUB
 62
     7
  6
CONTINUOUS
 10
10.718046
 20
6.745684
 30
0.000000
 11
13.120474
 21
6.745684
 31
0.000000
  0
TEXT
  8
HUB
 62
     7
 10
12.653710
 20
5.234366
 30
0.000000
 40
0.125000
  1
2 1/2"
  0
LINE
  8
HUB
 62
     7
  6
CONTINUOUS
 10
12.870474
 20
4.244784
 30
0.000000
 11
12.870474
 21
5.203116
 31
0.000000
  0
LINE
  8
HUB
 62
     7
  6
CONTINUOUS
 10
12.870474
 20
5.390790
 30
0.000000
 11
12.870474
 21
6.745684
 31
0.000000
  0
POINT
  8
PLATE
 62
     7
 10
2.600294
 20
9.120237
 30
0.000000
  0
CIRCLE
  8
PLATE
 62
     7
  6
CONTINUOUS
 10
2.600294
 20
9.120237
 30
0.000000
 40
0.265600
  0
POINT
  8
PLATE
 62
     7
 10
2.600294
 20
1.870237
 30
0.000000
  0
POINT
  8
PLATE
 62
     7
 10
2.600294
 20
5.495237
 30
0.000000
  0
POINT
  8
PLATE
 62
     7
 10
2.600294
 20
5.495237
 30
0.000000
  0
POINT
  8
PLATE
 62
     7
 10
2.600294
 20
5.495237
 30
0.000000
  0
CIRCLE
  8
PLATE
 62
     7
  6
CONTINUOUS
 10
2.600294
 20
9.120237
 30
0.000000
 40
0.440000
  0
CIRCLE
  8
PLATE
 62
     7
  6
CONTINUOUS
 10
2.600294
 20
1.870237
 30
0.000000
 40
0.265500
  0
CIRCLE
  8
PLATE
 62
     7
  6
CONTINUOUS
 10
2.600294
 20
1.870237
 30
0.000000
 40
0.440000
  0
POINT
  8
BUSHING
 62
     7
 10
7.066974
 20
5.495246
 30
0.000000
  0
POINT
  8
BUSHING
 62
     7
 10
7.066974
 20
5.495246
 30
0.000000
  0
POINT
  8
BUSHING
 62
     7
 10
7.066974
 20
5.495246
 30
0.000000
  0
LINE
  8
BUSHING
 62
     7
  6
CONTINUOUS
 10
7.066974
 20
5.495246
 30
0.000000
 11
7.066974
 21
4.682746
 31
0.000000
  0
POINT
  8
BUSHING
 62
     7
 10
8.192295
 20
6.198354
 30
0.000000
  0
POINT
  8
BUSHING
 62
     7
 10
8.192295
 20
6.198354
 30
0.000000
  0
POINT
  8
BUSHING
 62
     7
 10
8.192303
 20
6.198354
 30
0.000000
  0
POINT
  8
BUSHING
 62
     7
 10
8.192303
 20
6.198354
 30
0.000000
  0
POINT
  8
BUSHING
 62
     7
 10
7.065834
 20
6.199274
 30
0.000000
  0
POINT
  8
BUSHING
 62
     7
 10
7.190834
 20
6.199274
 30
0.000000
  0
POINT
  8
BUSHING
 62
     7
 10
7.315834
 20
6.199274
 30
0.000000
  0
POINT
  8
BUSHING
 62
     7
 10
7.315834
 20
6.199274
 30
0.000000
  0
LINE
  8
BUSHING
 62
     7
  6
CONTINUOUS
 10
7.190834
 20
6.199274
 30
0.000000
 11
7.190834
 21
6.253973
 31
0.000000
  0
LINE
  8
BUSHING
 62
     7
  6
CONTINUOUS
 10
7.190834
 20
6.199274
 30
0.000000
 11
7.190834
 21
6.144574
 31
0.000000
  0
LINE
  8
BUSHING
 62
     7
  6
CONTINUOUS
 10
7.315834
 20
6.199274
 30
0.000000
 11
7.315834
 21
6.285660
 31
0.000000
  0
LINE
  8
BUSHING
 62
     7
  6
CONTINUOUS
 10
7.315834
 20
6.199274
 30
0.000000
 11
7.315834
 21
6.112887
 31
0.000000
  0
POINT
  8
BUSHING
 62
     7
 10
7.565834
 20
6.199274
 30
0.000000
  0
POINT
  8
BUSHING
 62
     7
 10
7.440834
 20
6.199274
 30
0.000000
  0
POINT
  8
BUSHING
 62
     7
 10
7.440834
 20
6.199274
 30
0.000000
  0
LINE
  8
BUSHING
 62
     7
  6
CONTINUOUS
 10
7.440834
 20
6.199274
 30
0.000000
 11
7.440834
 21
6.253973
 31
0.000000
  0
LINE
  8
BUSHING
 62
     7
  6
CONTINUOUS
 10
7.440834
 20
6.199274
 30
0.000000
 11
7.440834
 21
6.144574
 31
0.000000
  0
POINT
  8
BUSHING
 62
     7
 10
7.690834
 20
6.199274
 30
0.000000
  0
LINE
  8
BUSHING
 62
     7
  6
CONTINUOUS
 10
7.690834
 20
6.199274
 30
0.000000
 11
7.690834
 21
6.253973
 31
0.000000
  0
LINE
  8
BUSHING
 62
     7
  6
CONTINUOUS
 10
7.690834
 20
6.199274
 30
0.000000
 11
7.690834
 21
6.144574
 31
0.000000
  0
POINT
  8
BUSHING
 62
     7
 10
7.940834
 20
6.199274
 30
0.000000
  0
LINE
  8
BUSHING
 62
     7
  6
CONTINUOUS
 10
7.940834
 20
6.199274
 30
0.000000
 11
7.940834
 21
6.253973
 31
0.000000
  0
LINE
  8
BUSHING
 62
     7
  6
CONTINUOUS
 10
7.940834
 20
6.199274
 30
0.000000
 11
7.940834
 21
6.144574
 31
0.000000
  0
POINT
  8
BUSHING
 62
     7
 10
8.190834
 20
6.199274
 30
0.000000
  0
LINE
  8
BUSHING
 62
     7
  6
CONTINUOUS
 10
8.190834
 20
6.199274
 30
0.000000
 11
8.190834
 21
6.253973
 31
0.000000
  0
LINE
  8
BUSHING
 62
     7
  6
CONTINUOUS
 10
8.190834
 20
6.199274
 30
0.000000
 11
8.190834
 21
6.144574
 31
0.000000
  0
POINT
  8
BUSHING
 62
     7
 10
7.565834
 20
6.199274
 30
0.000000
  0
POINT
  8
BUSHING
 62
     7
 10
7.565834
 20
6.199274
 30
0.000000
  0
LINE
  8
BUSHING
 62
     7
  6
CONTINUOUS
 10
7.565834
 20
6.199274
 30
0.000000
 11
7.565834
 21
6.285660
 31
0.000000
  0
LINE
  8
BUSHING
 62
     7
  6
CONTINUOUS
 10
7.565834
 20
6.199274
 30
0.000000
 11
7.565834
 21
6.112887
 31
0.000000
  0
POINT
  8
BUSHING
 62
     7
 10
7.815834
 20
6.199274
 30
0.000000
  0
POINT
  8
BUSHING
 62
     7
 10
7.815834
 20
6.199274
 30
0.000000
  0
LINE
  8
BUSHING
 62
     7
  6
CONTINUOUS
 10
7.815834
 20
6.199274
 30
0.000000
 11
7.815834
 21
6.285660
 31
0.000000
  0
LINE
  8
BUSHING
 62
     7
  6
CONTINUOUS
 10
7.815834
 20
6.199274
 30
0.000000
 11
7.815834
 21
6.112887
 31
0.000000
  0
POINT
  8
BUSHING
 62
     7
 10
8.065834
 20
6.199274
 30
0.000000
  0
POINT
  8
BUSHING
 62
     7
 10
8.065834
 20
6.199274
 30
0.000000
  0
LINE
  8
BUSHING
 62
     7
  6
CONTINUOUS
 10
8.065834
 20
6.199274
 30
0.000000
 11
8.065834
 21
6.285660
 31
0.000000
  0
LINE
  8
BUSHING
 62
     7
  6
CONTINUOUS
 10
8.065834
 20
6.199274
 30
0.000000
 11
8.065834
 21
6.112887
 31
0.000000
  0
POINT
  8
BUSHING
 62
     7
 10
7.066974
 20
5.495246
 30
0.000000
  0
LINE
  8
BUSHING
 62
     7
  6
CONTINUOUS
 10
7.066974
 20
6.307746
 30
0.000000
 11
7.066974
 21
5.495246
 31
0.000000
  0
LINE
  8
BUSHING
 62
     7
  6
CONTINUOUS
 10
7.066974
 20
6.057737
 30
0.000000
 11
8.316975
 21
6.057737
 31
0.000000
  0
LINE
  8
BUSHING
 62
     7
  6
CONTINUOUS
 10
7.066974
 20
6.112404
 30
0.000000
 11
8.316975
 21
6.112404
 31
0.000000
  0
LINE
  8
BUSHING
 62
     7
  6
CONTINUOUS
 10
7.069480
 20
4.932755
 30
0.000000
 11
8.316975
 21
4.932755
 31
0.000000
  0
LINE
  8
BUSHING
 62
     7
  6
CONTINUOUS
 10
7.066974
 20
4.682746
 30
0.000000
 11
8.316975
 21
4.557746
 31
0.000000
  0
LINE
  8
BUSHING
 62
     7
  6
CONTINUOUS
 10
7.066974
 20
6.307746
 30
0.000000
 11
8.316975
 21
6.432746
 31
0.000000
  0
LINE
  8
BUSHING
 62
     7
  6
CONTINUOUS
 10
7.066974
 20
6.284304
 30
0.000000
 11
8.316975
 21
6.284304
 31
0.000000
  0
LINE
  8
BUSHING
 62
     7
  6
CONTINUOUS
 10
7.065834
 20
6.199274
 30
0.000000
 11
8.316975
 21
6.199274
 31
0.000000
  0
POINT
  8
HUB
 62
     7
 10
6.253428
 20
5.495239
 30
0.000000
  0
POINT
  8
HUB
 62
     7
 10
6.940924
 20
5.495233
 30
0.000000
  0
LINE
  8
HUB
 62
     7
  6
CONTINUOUS
 10
6.940924
 20
5.495233
 30
0.000000
 11
6.940924
 21
6.307733
 31
0.000000
  0
LINE
  8
HUB
 62
     7
  6
CONTINUOUS
 10
6.940924
 20
5.495233
 30
0.000000
 11
6.940924
 21
4.682733
 31
0.000000
  0
POINT
  8
HUB
 62
     7
 10
6.940924
 20
5.495233
 30
0.000000
  0
LINE
  8
HUB
 62
     7
  6
CONTINUOUS
 10
8.128425
 20
4.557734
 30
0.000000
 11
6.940924
 21
4.682733
 31
0.000000
  0
LINE
  8
HUB
 62
     7
  6
CONTINUOUS
 10
6.940924
 20
6.307733
 30
0.000000
 11
8.128425
 21
6.432734
 31
0.000000
  0
POINT
  8
HUB
 62
     7
 10
6.253428
 20
5.495239
 30
0.000000
  0
LINE
  8
HUB
 62
     7
  6
CONTINUOUS
 10
6.253428
 20
5.495239
 30
0.000000
 11
6.253428
 21
6.643739
 31
0.000000
  0
LINE
  8
HUB
 62
     7
  6
CONTINUOUS
 10
6.253428
 20
5.495239
 30
0.000000
 11
6.253428
 21
4.346739
 31
0.000000
  0
LINE
  8
HUB
 62
     7
  6
CONTINUOUS
 10
8.128425
 20
6.643684
 30
0.000000
 11
6.878424
 21
6.643684
 31
0.000000
  0
LINE
  8
HUB
 62
     7
  6
CONTINUOUS
 10
8.128425
 20
4.346784
 30
0.000000
 11
6.878424
 21
4.346784
 31
0.000000
  0
LINE
  8
HUB
 62
     7
  6
CONTINUOUS
 10
6.878424
 20
6.643684
 30
0.000000
 11
6.878424
 21
6.745684
 31
0.000000
  0
LINE
  8
HUB
 62
     7
  6
CONTINUOUS
 10
6.878424
 20
4.346784
 30
0.000000
 11
6.878424
 21
4.244784
 31
0.000000
  0
LINE
  8
HUB
 62
     7
  6
CONTINUOUS
 10
6.878424
 20
4.244784
 30
0.000000
 11
6.628424
 21
4.244784
 31
0.000000
  0
LINE
  8
HUB
 62
     7
  6
CONTINUOUS
 10
6.628424
 20
4.244784
 30
0.000000
 11
6.628424
 21
4.346784
 31
0.000000
  0
LINE
  8
HUB
 62
     7
  6
CONTINUOUS
 10
6.253428
 20
4.346739
 30
0.000000
 11
6.628424
 21
4.346739
 31
0.000000
  0
LINE
  8
HUB
 62
     7
  6
CONTINUOUS
 10
6.878424
 20
6.745684
 30
0.000000
 11
6.628424
 21
6.745684
 31
0.000000
  0
LINE
  8
HUB
 62
     7
  6
CONTINUOUS
 10
6.628424
 20
6.745684
 30
0.000000
 11
6.628424
 21
6.643684
 31
0.000000
  0
LINE
  8
HUB
 62
     7
  6
CONTINUOUS
 10
6.253428
 20
6.643739
 30
0.000000
 11
6.628424
 21
6.643739
 31
0.000000
  0
POINT
  8
HUB
 62
     7
 10
6.940924
 20
5.495233
 30
0.000000
  0
LINE
  8
HUB
 62
     7
  6
CONTINUOUS
 10
6.940924
 20
5.495233
 30
0.000000
 11
6.940924
 21
6.307733
 31
0.000000
  0
LINE
  8
HUB
 62
     7
  6
CONTINUOUS
 10
6.940924
 20
5.495233
 30
0.000000
 11
6.940924
 21
4.682733
 31
0.000000
  0
POINT
  8
HUB
 62
     7
 10
6.940924
 20
5.495233
 30
0.000000
  0
LINE
  8
HUB
 62
     7
  6
CONTINUOUS
 10
8.128425
 20
4.557734
 30
0.000000
 11
6.940924
 21
4.682733
 31
0.000000
  0
LINE
  8
HUB
 62
     7
  6
CONTINUOUS
 10
6.940924
 20
6.307733
 30
0.000000
 11
8.128425
 21
6.432734
 31
0.000000
  0
POINT
  8
HUB
 62
     7
 10
6.253428
 20
5.495239
 30
0.000000
  0
POINT
  8
HUB
 62
     7
 10
6.251008
 20
5.932732
 30
0.000000
  0
POINT
  8
HUB
 62
     7
 10
6.250966
 20
5.057732
 30
0.000000
  0
LINE
  8
HUB
 62
     7
  6
CONTINUOUS
 10
6.251008
 20
5.932732
 30
0.000000
 11
6.946159
 21
5.932732
 31
0.000000
  0
LINE
  8
HUB
 62
     7
  6
CONTINUOUS
 10
6.250966
 20
5.057732
 30
0.000000
 11
6.946159
 21
5.057732
 31
0.000000
  0
POINT
  8
HUB
 62
     7
 10
6.253428
 20
5.495239
 30
0.000000
  0
POINT
  8
HUB
 62
     7
 10
6.940924
 20
5.495234
 30
0.000000
  0
POINT
  8
HUB
 62
     7
 10
6.940924
 20
5.495234
 30
0.000000
  0
POINT
  8
HUB
 62
     7
 10
6.940924
 20
5.495234
 30
0.000000
  0
LINE
  8
HUB
 62
     7
  6
CONTINUOUS
 10
6.940924
 20
5.495234
 30
0.000000
 11
6.940924
 21
4.682734
 31
0.000000
  0
POINT
  8
HUB
 62
     7
 10
6.940924
 20
5.495234
 30
0.000000
  0
POINT
  8
HUB
 62
     7
 10
6.253428
 20
4.682734
 30
0.000000
  0
POINT
  8
HUB
 62
     7
 10
6.253428
 20
4.885834
 30
0.000000
  0
POINT
  8
HUB
 62
     7
 10
6.253428
 20
4.479633
 30
0.000000
  0
LINE
  8
HUB
 62
     7
  6
CONTINUOUS
 10
6.253428
 20
4.479633
 30
0.000000
 11
6.940924
 21
4.479633
 31
0.000000
  0
LINE
  8
HUB
 62
     7
  6
CONTINUOUS
 10
6.253428
 20
4.885834
 30
0.000000
 11
6.940924
 21
4.885834
 31
0.000000
  0
LINE
  8
HUB
 62
     7
  6
CONTINUOUS
 10
6.940924
 20
4.682734
 30
0.000000
 11
6.940924
 21
4.479633
 31
0.000000
  0
POINT
  8
HUB
 62
     7
 10
6.253428
 20
4.682734
 30
0.000000
  0
POINT
  8
HUB
 62
     7
 10
6.284428
 20
4.682734
 30
0.000000
  0
POINT
  8
HUB
 62
     7
 10
6.315928
 20
4.682734
 30
0.000000
  0
POINT
  8
HUB
 62
     7
 10
6.347178
 20
4.682734
 30
0.000000
  0
POINT
  8
HUB
 62
     7
 10
6.378428
 20
4.682734
 30
0.000000
  0
LINE
  8
HUB
 62
     7
  6
CONTINUOUS
 10
6.284428
 20
4.885834
 30
0.000000
 11
6.284428
 21
4.479633
 31
0.000000
  0
LINE
  8
HUB
 62
     7
  6
CONTINUOUS
 10
6.315928
 20
4.857179
 30
0.000000
 11
6.315928
 21
4.508288
 31
0.000000
  0
LINE
  8
HUB
 62
     7
  6
CONTINUOUS
 10
6.347178
 20
4.885834
 30
0.000000
 11
6.347178
 21
4.479633
 31
0.000000
  0
LINE
  8
HUB
 62
     7
  6
CONTINUOUS
 10
6.409928
 20
4.885834
 30
0.000000
 11
6.409928
 21
4.479633
 31
0.000000
  0
LINE
  8
HUB
 62
     7
  6
CONTINUOUS
 10
6.472678
 20
4.885834
 30
0.000000
 11
6.472678
 21
4.479633
 31
0.000000
  0
LINE
  8
HUB
 62
     7
  6
CONTINUOUS
 10
6.535428
 20
4.885834
 30
0.000000
 11
6.535428
 21
4.479633
 31
0.000000
  0
LINE
  8
HUB
 62
     7
  6
CONTINUOUS
 10
6.598177
 20
4.885834
 30
0.000000
 11
6.598177
 21
4.479633
 31
0.000000
  0
LINE
  8
HUB
 62
     7
  6
CONTINUOUS
 10
6.660927
 20
4.885834
 30
0.000000
 11
6.660927
 21
4.479633
 31
0.000000
  0
LINE
  8
HUB
 62
     7
  6
CONTINUOUS
 10
6.723677
 20
4.885834
 30
0.000000
 11
6.723677
 21
4.479633
 31
0.000000
  0
LINE
  8
HUB
 62
     7
  6
CONTINUOUS
 10
6.786427
 20
4.885834
 30
0.000000
 11
6.786427
 21
4.479633
 31
0.000000
  0
LINE
  8
HUB
 62
     7
  6
CONTINUOUS
 10
6.849177
 20
4.885834
 30
0.000000
 11
6.849177
 21
4.479633
 31
0.000000
  0
LINE
  8
HUB
 62
     7
  6
CONTINUOUS
 10
6.911927
 20
4.885834
 30
0.000000
 11
6.911927
 21
4.479633
 31
0.000000
  0
LINE
  8
HUB
 62
     7
  6
CONTINUOUS
 10
6.378428
 20
4.857179
 30
0.000000
 11
6.378428
 21
4.508288
 31
0.000000
  0
LINE
  8
HUB
 62
     7
  6
CONTINUOUS
 10
6.440928
 20
4.857179
 30
0.000000
 11
6.440928
 21
4.508288
 31
0.000000
  0
LINE
  8
HUB
 62
     7
  6
CONTINUOUS
 10
6.503428
 20
4.857179
 30
0.000000
 11
6.503428
 21
4.508288
 31
0.000000
  0
LINE
  8
HUB
 62
     7
  6
CONTINUOUS
 10
6.565928
 20
4.857179
 30
0.000000
 11
6.565928
 21
4.508288
 31
0.000000
  0
LINE
  8
HUB
 62
     7
  6
CONTINUOUS
 10
6.628428
 20
4.857179
 30
0.000000
 11
6.628428
 21
4.508288
 31
0.000000
  0
LINE
  8
HUB
 62
     7
  6
CONTINUOUS
 10
6.690928
 20
4.857179
 30
0.000000
 11
6.690928
 21
4.508288
 31
0.000000
  0
LINE
  8
HUB
 62
     7
  6
CONTINUOUS
 10
6.753428
 20
4.857179
 30
0.000000
 11
6.753428
 21
4.508288
 31
0.000000
  0
LINE
  8
HUB
 62
     7
  6
CONTINUOUS
 10
6.815928
 20
4.857179
 30
0.000000
 11
6.815928
 21
4.508288
 31
0.000000
  0
LINE
  8
HUB
 62
     7
  6
CONTINUOUS
 10
6.878428
 20
4.857179
 30
0.000000
 11
6.878428
 21
4.508288
 31
0.000000
  0
POINT
  8
HUB
 62
     7
 10
6.939784
 20
6.199261
 30
0.000000
  0
POINT
  8
HUB
 62
     7
 10
6.253428
 20
6.198239
 30
0.000000
  0
POINT
  8
HUB
 62
     7
 10
6.253428
 20
6.377939
 30
0.000000
  0
POINT
  8
HUB
 62
     7
 10
6.253428
 20
6.018539
 30
0.000000
  0
LINE
  8
HUB
 62
     7
  6
CONTINUOUS
 10
6.253428
 20
6.377939
 30
0.000000
 11
6.440928
 21
6.377939
 31
0.000000
  0
LINE
  8
HUB
 62
     7
  6
CONTINUOUS
 10
6.253428
 20
6.018539
 30
0.000000
 11
6.440928
 21
6.018539
 31
0.000000
  0
LINE
  8
HUB
 62
     7
  6
CONTINUOUS
 10
6.440928
 20
6.018539
 30
0.000000
 11
6.440928
 21
6.377939
 31
0.000000
  0
POINT
  8
HUB
 62
     7
 10
6.440928
 20
6.199261
 30
0.000000
  0
POINT
  8
HUB
 62
     7
 10
6.440928
 20
6.300811
 30
0.000000
  0
POINT
  8
HUB
 62
     7
 10
6.440928
 20
6.097711
 30
0.000000
  0
LINE
  8
HUB
 62
     7
  6
CONTINUOUS
 10
6.440928
 20
6.300811
 30
0.000000
 11
6.940924
 21
6.300811
 31
0.000000
  0
LINE
  8
HUB
 62
     7
  6
CONTINUOUS
 10
6.440928
 20
6.097711
 30
0.000000
 11
6.940924
 21
6.097711
 31
0.000000
  0
LINE
  8
FLYWHEEL
 62
     7
  6
CONTINUOUS
 10
6.531035
 20
6.992642
 30
0.000000
 11
6.531035
 21
6.643739
 31
0.000000
  0
LINE
  8
FLYWHEEL
 62
     7
  6
CONTINUOUS
 10
6.530856
 20
3.997643
 30
0.000000
 11
6.530856
 21
4.346739
 31
0.000000
  0
LINE
  8
FLYWHEEL
 62
     7
  6
CONTINUOUS
 10
5.860092
 20
3.997643
 30
0.000000
 11
5.860092
 21
2.557646
 31
0.000000
  0
LINE
  8
FLYWHEEL
 62
     7
  6
CONTINUOUS
 10
5.860092
 20
6.992642
 30
0.000000
 11
5.860092
 21
8.432646
 31
0.000000
  0
LINE
  8
FLYWHEEL
 62
     7
  6
CONTINUOUS
 10
5.860092
 20
2.557646
 30
0.000000
 11
5.806092
 21
2.304191
 31
0.000000
  0
LINE
  8
FLYWHEEL
 62
     7
  6
CONTINUOUS
 10
5.806092
 20
8.690055
 30
0.000000
 11
5.860092
 21
8.432646
 31
0.000000
  0
LINE
  8
FLYWHEEL
 62
     7
  6
CONTINUOUS
 10
6.222228
 20
6.643739
 30
0.000000
 11
6.531035
 21
6.643739
 31
0.000000
  0
LINE
  8
FLYWHEEL
 62
     7
  6
CONTINUOUS
 10
6.219766
 20
4.346739
 30
0.000000
 11
6.530856
 21
4.346739
 31
0.000000
  0
LINE
  8
FLYWHEEL
 62
     7
  6
CONTINUOUS
 10
5.860092
 20
6.992642
 30
0.000000
 11
6.531035
 21
6.992642
 31
0.000000
  0
LINE
  8
FLYWHEEL
 62
     7
  6
CONTINUOUS
 10
5.860092
 20
3.997643
 30
0.000000
 11
6.530856
 21
3.997643
 31
0.000000
  0
LINE
  8
PLATE
 62
     7
  6
CONTINUOUS
 10
6.409481
 20
11.331219
 30
0.000000
 11
6.408092
 21
11.331219
 31
0.000000
  0
LINE
  8
PLATE
 62
     7
  6
CONTINUOUS
 10
6.408092
 20
11.331219
 30
0.000000
 11
5.908092
 21
11.331219
 31
0.000000
  0
POINT
  8
PLATE
 62
     7
 10
6.409481
 20
9.745234
 30
0.000000
  0
POINT
  8
PLATE
 62
     7
 10
6.409481
 20
1.245234
 30
0.000000
  0
POINT
  8
PLATE
 62
     7
 10
6.034481
 20
8.495234
 30
0.000000
  0
LINE
  8
PLATE
 62
     7
  6
CONTINUOUS
 10
6.409481
 20
1.245234
 30
0.000000
 11
6.409481
 21
0.023107
 31
0.000000
  0
LINE
  8
PLATE
 62
     7
  6
CONTINUOUS
 10
6.409481
 20
11.331219
 30
0.000000
 11
6.409481
 21
9.745234
 31
0.000000
  0
LINE
  8
PLATE
 62
     7
  6
CONTINUOUS
 10
5.909481
 20
0.023107
 30
0.000000
 11
6.409481
 21
0.023107
 31
0.000000
  0
LINE
  8
PLATE
 62
     7
  6
CONTINUOUS
 10
5.909481
 20
3.997643
 30
0.000000
 11
5.909481
 21
0.023107
 31
0.000000
  0
POINT
  8
PLATE
 62
     7
 10
5.909481
 20
9.120234
 30
0.000000
  0
LINE
  8
PLATE
 62
     7
  6
CONTINUOUS
 10
5.909481
 20
9.588734
 30
0.000000
 11
5.909481
 21
8.651733
 31
0.000000
  0
LINE
  8
PLATE
 62
     7
  6
CONTINUOUS
 10
6.160481
 20
8.854633
 30
0.000000
 11
6.160481
 21
9.385834
 31
0.000000
  0
LINE
  8
PLATE
 62
     7
  6
CONTINUOUS
 10
5.909481
 20
9.588734
 30
0.000000
 11
6.160481
 21
9.385834
 31
0.000000
  0
LINE
  8
PLATE
 62
     7
  6
CONTINUOUS
 10
6.160481
 20
8.854633
 30
0.000000
 11
5.909481
 21
8.651733
 31
0.000000
  0
LINE
  8
PLATE
 62
     7
  6
CONTINUOUS
 10
5.783092
 20
10.995236
 30
0.000000
 11
5.908092
 21
10.995236
 31
0.000000
  0
LINE
  8
PLATE
 62
     7
  6
CONTINUOUS
 10
5.783092
 20
10.995236
 30
0.000000
 11
5.783092
 21
10.870236
 31
0.000000
  0
LINE
  8
PLATE
 62
     7
  6
CONTINUOUS
 10
5.783092
 20
10.870236
 30
0.000000
 11
5.909481
 21
10.870236
 31
0.000000
  0
LINE
  8
PLATE
 62
     7
  6
CONTINUOUS
 10
5.909481
 20
10.870236
 30
0.000000
 11
5.909481
 21
6.992642
 31
0.000000
  0
LINE
  8
PLATE
 62
     7
  6
CONTINUOUS
 10
5.909481
 20
10.995236
 30
0.000000
 11
5.909481
 21
11.331219
 31
0.000000
  0
LINE
  8
FLYWHEEL
 62
     7
  6
CONTINUOUS
 10
5.806092
 20
8.690055
 30
0.000000
 11
5.806092
 21
10.287733
 31
0.000000
  0
LINE
  8
FLYWHEEL
 62
     7
  6
CONTINUOUS
 10
5.806092
 20
2.304191
 30
0.000000
 11
5.806092
 21
0.702734
 31
0.000000
  0
LINE
  8
PLATE
 62
     7
  6
CONTINUOUS
 10
5.909481
 20
8.495234
 30
0.000000
 11
6.284481
 21
8.495234
 31
0.000000
  0
LINE
  8
PLATE
 62
     7
  6
CONTINUOUS
 10
6.284481
 20
9.745234
 30
0.000000
 11
6.284481
 21
8.495234
 31
0.000000
  0
LINE
  8
PLATE
 62
     7
  6
CONTINUOUS
 10
6.409481
 20
9.745234
 30
0.000000
 11
6.284481
 21
9.745234
 31
0.000000
  0
LINE
  8
PLATE
 62
     7
  6
CONTINUOUS
 10
6.160481
 20
9.385834
 30
0.000000
 11
6.284481
 21
9.385834
 31
0.000000
  0
LINE
  8
PLATE
 62
     7
  6
CONTINUOUS
 10
6.160481
 20
8.854633
 30
0.000000
 11
6.284481
 21
8.854633
 31
0.000000
  0
LINE
  8
PLATE
 62
     7
  6
CONTINUOUS
 10
5.909481
 20
2.495234
 30
0.000000
 11
6.284481
 21
2.495234
 31
0.000000
  0
LINE
  8
PLATE
 62
     7
  6
CONTINUOUS
 10
6.284481
 20
1.245234
 30
0.000000
 11
6.284481
 21
2.495234
 31
0.000000
  0
LINE
  8
PLATE
 62
     7
  6
CONTINUOUS
 10
6.409481
 20
1.245234
 30
0.000000
 11
6.284481
 21
1.245234
 31
0.000000
  0
LINE
  8
RING
 62
     7
  6
CONTINUOUS
 10
8.316975
 20
6.432746
 30
0.000000
 11
8.316975
 21
6.057737
 31
0.000000
  0
LINE
  8
RING
 62
     7
  6
CONTINUOUS
 10
8.316975
 20
4.557746
 30
0.000000
 11
8.316975
 21
4.932755
 31
0.000000
  0
LINE
  8
RING
 62
     7
  6
CONTINUOUS
 10
8.128425
 20
6.643684
 30
0.000000
 11
8.128425
 21
6.432734
 31
0.000000
  0
LINE
  8
RING
 62
     7
  6
CONTINUOUS
 10
8.128425
 20
4.557734
 30
0.000000
 11
8.128425
 21
4.346784
 31
0.000000
  0
POINT
  8
RING
 62
     7
 10
7.677907
 20
9.120237
 30
0.000000
  0
POINT
  8
RING
 62
     7
 10
6.284788
 20
9.120237
 30
0.000000
  0
POINT
  8
RING
 62
     7
 10
6.284371
 20
9.370237
 30
0.000000
  0
POINT
  8
RING
 62
     7
 10
6.284788
 20
9.120237
 30
0.000000
  0
POINT
  8
RING
 62
     7
 10
6.284259
 20
8.870237
 30
0.000000
  0
POINT
  8
RING
 62
     7
 10
6.284788
 20
9.120237
 30
0.000000
  0
POINT
  8
RING
 62
     7
 10
6.347285
 20
9.119595
 30
0.000000
  0
POINT
  8
RING
 62
     7
 10
6.347285
 20
9.119595
 30
0.000000
  0
POINT
  8
RING
 62
     7
 10
6.409776
 20
9.118536
 30
0.000000
  0
POINT
  8
RING
 62
     7
 10
6.409776
 20
9.119595
 30
0.000000
  0
POINT
  8
RING
 62
     7
 10
6.472268
 20
9.119595
 30
0.000000
  0
POINT
  8
RING
 62
     7
 10
6.534759
 20
9.119595
 30
0.000000
  0
POINT
  8
RING
 62
     7
 10
6.597250
 20
9.119595
 30
0.000000
  0
POINT
  8
RING
 62
     7
 10
6.659742
 20
9.119595
 30
0.000000
  0
POINT
  8
RING
 62
     7
 10
6.722233
 20
9.119595
 30
0.000000
  0
POINT
  8
RING
 62
     7
 10
6.784725
 20
9.119595
 30
0.000000
  0
POINT
  8
RING
 62
     7
 10
6.847216
 20
9.119595
 30
0.000000
  0
POINT
  8
RING
 62
     7
 10
6.909708
 20
9.119595
 30
0.000000
  0
POINT
  8
RING
 62
     7
 10
6.972199
 20
9.119595
 30
0.000000
  0
POINT
  8
RING
 62
     7
 10
7.034690
 20
9.119595
 30
0.000000
  0
POINT
  8
RING
 62
     7
 10
7.097182
 20
9.119595
 30
0.000000
  0
POINT
  8
RING
 62
     7
 10
7.159673
 20
9.119595
 30
0.000000
  0
POINT
  8
RING
 62
     7
 10
7.222165
 20
9.119595
 30
0.000000
  0
POINT
  8
RING
 62
     7
 10
7.284656
 20
9.119595
 30
0.000000
  0
POINT
  8
RING
 62
     7
 10
7.347147
 20
9.119595
 30
0.000000
  0
POINT
  8
RING
 62
     7
 10
7.409639
 20
9.119595
 30
0.000000
  0
POINT
  8
RING
 62
     7
 10
7.472130
 20
9.119595
 30
0.000000
  0
POINT
  8
RING
 62
     7
 10
7.534622
 20
9.119595
 30
0.000000
  0
POINT
  8
RING
 62
     7
 10
7.597113
 20
9.119595
 30
0.000000
  0
LINE
  8
RING
 62
     7
  6
CONTINUOUS
 10
6.347285
 20
9.119595
 30
0.000000
 11
6.347285
 21
9.370173
 31
0.000000
  0
LINE
  8
RING
 62
     7
  6
CONTINUOUS
 10
6.347285
 20
9.119595
 30
0.000000
 11
6.347285
 21
8.877729
 31
0.000000
  0
LINE
  8
RING
 62
     7
  6
CONTINUOUS
 10
6.409776
 20
9.119595
 30
0.000000
 11
6.409776
 21
9.330595
 31
0.000000
  0
LINE
  8
RING
 62
     7
  6
CONTINUOUS
 10
6.409776
 20
9.118536
 30
0.000000
 11
6.409776
 21
8.907536
 31
0.000000
  0
POINT
  8
RING
 62
     7
 10
6.472268
 20
9.119595
 30
0.000000
  0
POINT
  8
RING
 62
     7
 10
6.472268
 20
9.119595
 30
0.000000
  0
LINE
  8
RING
 62
     7
  6
CONTINUOUS
 10
6.472268
 20
9.119595
 30
0.000000
 11
6.472268
 21
9.370173
 31
0.000000
  0
LINE
  8
RING
 62
     7
  6
CONTINUOUS
 10
6.472268
 20
9.119595
 30
0.000000
 11
6.472268
 21
8.877729
 31
0.000000
  0
POINT
  8
RING
 62
     7
 10
6.597250
 20
9.119595
 30
0.000000
  0
POINT
  8
RING
 62
     7
 10
6.597250
 20
9.119595
 30
0.000000
  0
LINE
  8
RING
 62
     7
  6
CONTINUOUS
 10
6.597250
 20
9.119595
 30
0.000000
 11
6.597250
 21
9.370173
 31
0.000000
  0
LINE
  8
RING
 62
     7
  6
CONTINUOUS
 10
6.597250
 20
9.119595
 30
0.000000
 11
6.597250
 21
8.877729
 31
0.000000
  0
POINT
  8
RING
 62
     7
 10
6.722233
 20
9.119595
 30
0.000000
  0
POINT
  8
RING
 62
     7
 10
6.722233
 20
9.119595
 30
0.000000
  0
LINE
  8
RING
 62
     7
  6
CONTINUOUS
 10
6.722233
 20
9.119595
 30
0.000000
 11
6.722233
 21
9.370173
 31
0.000000
  0
LINE
  8
RING
 62
     7
  6
CONTINUOUS
 10
6.722233
 20
9.119595
 30
0.000000
 11
6.722233
 21
8.877729
 31
0.000000
  0
POINT
  8
RING
 62
     7
 10
6.847216
 20
9.119595
 30
0.000000
  0
POINT
  8
RING
 62
     7
 10
6.847216
 20
9.119595
 30
0.000000
  0
LINE
  8
RING
 62
     7
  6
CONTINUOUS
 10
6.847216
 20
9.119595
 30
0.000000
 11
6.847216
 21
9.370173
 31
0.000000
  0
LINE
  8
RING
 62
     7
  6
CONTINUOUS
 10
6.847216
 20
9.119595
 30
0.000000
 11
6.847216
 21
8.877729
 31
0.000000
  0
POINT
  8
RING
 62
     7
 10
6.972199
 20
9.119595
 30
0.000000
  0
POINT
  8
RING
 62
     7
 10
6.972199
 20
9.119595
 30
0.000000
  0
LINE
  8
RING
 62
     7
  6
CONTINUOUS
 10
6.972199
 20
9.119595
 30
0.000000
 11
6.972199
 21
9.370173
 31
0.000000
  0
LINE
  8
RING
 62
     7
  6
CONTINUOUS
 10
6.972199
 20
9.119595
 30
0.000000
 11
6.972199
 21
8.877729
 31
0.000000
  0
POINT
  8
RING
 62
     7
 10
7.097182
 20
9.119595
 30
0.000000
  0
POINT
  8
RING
 62
     7
 10
7.097182
 20
9.119595
 30
0.000000
  0
LINE
  8
RING
 62
     7
  6
CONTINUOUS
 10
7.097182
 20
9.119595
 30
0.000000
 11
7.097182
 21
9.370173
 31
0.000000
  0
LINE
  8
RING
 62
     7
  6
CONTINUOUS
 10
7.097182
 20
9.119595
 30
0.000000
 11
7.097182
 21
8.877729
 31
0.000000
  0
POINT
  8
RING
 62
     7
 10
7.222165
 20
9.119595
 30
0.000000
  0
POINT
  8
RING
 62
     7
 10
7.222165
 20
9.119595
 30
0.000000
  0
LINE
  8
RING
 62
     7
  6
CONTINUOUS
 10
7.222165
 20
9.119595
 30
0.000000
 11
7.222165
 21
9.370173
 31
0.000000
  0
LINE
  8
RING
 62
     7
  6
CONTINUOUS
 10
7.222165
 20
9.119595
 30
0.000000
 11
7.222165
 21
8.877729
 31
0.000000
  0
POINT
  8
RING
 62
     7
 10
7.347147
 20
9.119595
 30
0.000000
  0
POINT
  8
RING
 62
     7
 10
7.347147
 20
9.119595
 30
0.000000
  0
LINE
  8
RING
 62
     7
  6
CONTINUOUS
 10
7.347147
 20
9.119595
 30
0.000000
 11
7.347147
 21
9.370173
 31
0.000000
  0
LINE
  8
RING
 62
     7
  6
CONTINUOUS
 10
7.347147
 20
9.119595
 30
0.000000
 11
7.347147
 21
8.877729
 31
0.000000
  0
POINT
  8
RING
 62
     7
 10
7.472130
 20
9.119595
 30
0.000000
  0
POINT
  8
RING
 62
     7
 10
7.472130
 20
9.119595
 30
0.000000
  0
LINE
  8
RING
 62
     7
  6
CONTINUOUS
 10
7.472130
 20
9.119595
 30
0.000000
 11
7.472130
 21
9.370173
 31
0.000000
  0
LINE
  8
RING
 62
     7
  6
CONTINUOUS
 10
7.472130
 20
9.119595
 30
0.000000
 11
7.472130
 21
8.877729
 31
0.000000
  0
POINT
  8
RING
 62
     7
 10
7.597113
 20
9.119595
 30
0.000000
  0
POINT
  8
RING
 62
     7
 10
7.597113
 20
9.119595
 30
0.000000
  0
LINE
  8
RING
 62
     7
  6
CONTINUOUS
 10
7.597113
 20
9.119595
 30
0.000000
 11
7.597113
 21
9.370173
 31
0.000000
  0
LINE
  8
RING
 62
     7
  6
CONTINUOUS
 10
7.597113
 20
9.119595
 30
0.000000
 11
7.597113
 21
8.877729
 31
0.000000
  0
POINT
  8
RING
 62
     7
 10
6.534759
 20
9.118536
 30
0.000000
  0
POINT
  8
RING
 62
     7
 10
6.534759
 20
9.119595
 30
0.000000
  0
LINE
  8
RING
 62
     7
  6
CONTINUOUS
 10
6.534759
 20
9.119595
 30
0.000000
 11
6.534759
 21
9.330595
 31
0.000000
  0
LINE
  8
RING
 62
     7
  6
CONTINUOUS
 10
6.534759
 20
9.118536
 30
0.000000
 11
6.534759
 21
8.907536
 31
0.000000
  0
POINT
  8
RING
 62
     7
 10
6.659742
 20
9.118536
 30
0.000000
  0
POINT
  8
RING
 62
     7
 10
6.659742
 20
9.119595
 30
0.000000
  0
LINE
  8
RING
 62
     7
  6
CONTINUOUS
 10
6.659742
 20
9.119595
 30
0.000000
 11
6.659742
 21
9.330595
 31
0.000000
  0
LINE
  8
RING
 62
     7
  6
CONTINUOUS
 10
6.659742
 20
9.118536
 30
0.000000
 11
6.659742
 21
8.907536
 31
0.000000
  0
POINT
  8
RING
 62
     7
 10
6.784725
 20
9.118536
 30
0.000000
  0
POINT
  8
RING
 62
     7
 10
6.784725
 20
9.119595
 30
0.000000
  0
LINE
  8
RING
 62
     7
  6
CONTINUOUS
 10
6.784725
 20
9.119595
 30
0.000000
 11
6.784725
 21
9.330595
 31
0.000000
  0
LINE
  8
RING
 62
     7
  6
CONTINUOUS
 10
6.784725
 20
9.118536
 30
0.000000
 11
6.784725
 21
8.907536
 31
0.000000
  0
POINT
  8
RING
 62
     7
 10
6.909708
 20
9.118536
 30
0.000000
  0
POINT
  8
RING
 62
     7
 10
6.909708
 20
9.119595
 30
0.000000
  0
LINE
  8
RING
 62
     7
  6
CONTINUOUS
 10
6.909708
 20
9.119595
 30
0.000000
 11
6.909708
 21
9.330595
 31
0.000000
  0
LINE
  8
RING
 62
     7
  6
CONTINUOUS
 10
6.909708
 20
9.118536
 30
0.000000
 11
6.909708
 21
8.907536
 31
0.000000
  0
POINT
  8
RING
 62
     7
 10
7.034690
 20
9.118536
 30
0.000000
  0
POINT
  8
RING
 62
     7
 10
7.034690
 20
9.119595
 30
0.000000
  0
LINE
  8
RING
 62
     7
  6
CONTINUOUS
 10
7.034690
 20
9.119595
 30
0.000000
 11
7.034690
 21
9.330595
 31
0.000000
  0
LINE
  8
RING
 62
     7
  6
CONTINUOUS
 10
7.034690
 20
9.118536
 30
0.000000
 11
7.034690
 21
8.907536
 31
0.000000
  0
POINT
  8
RING
 62
     7
 10
7.159673
 20
9.118536
 30
0.000000
  0
POINT
  8
RING
 62
     7
 10
7.159673
 20
9.119595
 30
0.000000
  0
LINE
  8
RING
 62
     7
  6
CONTINUOUS
 10
7.159673
 20
9.119595
 30
0.000000
 11
7.159673
 21
9.330595
 31
0.000000
  0
LINE
  8
RING
 62
     7
  6
CONTINUOUS
 10
7.159673
 20
9.118536
 30
0.000000
 11
7.159673
 21
8.907536
 31
0.000000
  0
POINT
  8
RING
 62
     7
 10
7.284656
 20
9.118536
 30
0.000000
  0
POINT
  8
RING
 62
     7
 10
7.284656
 20
9.119595
 30
0.000000
  0
LINE
  8
RING
 62
     7
  6
CONTINUOUS
 10
7.284656
 20
9.119595
 30
0.000000
 11
7.284656
 21
9.330595
 31
0.000000
  0
LINE
  8
RING
 62
     7
  6
CONTINUOUS
 10
7.284656
 20
9.118536
 30
0.000000
 11
7.284656
 21
8.907536
 31
0.000000
  0
POINT
  8
RING
 62
     7
 10
7.409639
 20
9.118536
 30
0.000000
  0
POINT
  8
RING
 62
     7
 10
7.409639
 20
9.119595
 30
0.000000
  0
LINE
  8
RING
 62
     7
  6
CONTINUOUS
 10
7.409639
 20
9.119595
 30
0.000000
 11
7.409639
 21
9.330595
 31
0.000000
  0
LINE
  8
RING
 62
     7
  6
CONTINUOUS
 10
7.409639
 20
9.118536
 30
0.000000
 11
7.409639
 21
8.907536
 31
0.000000
  0
POINT
  8
RING
 62
     7
 10
7.534622
 20
9.118536
 30
0.000000
  0
POINT
  8
RING
 62
     7
 10
7.534622
 20
9.119595
 30
0.000000
  0
LINE
  8
RING
 62
     7
  6
CONTINUOUS
 10
7.534622
 20
9.119595
 30
0.000000
 11
7.534622
 21
9.330595
 31
0.000000
  0
LINE
  8
RING
 62
     7
  6
CONTINUOUS
 10
7.534622
 20
9.118536
 30
0.000000
 11
7.534622
 21
8.907536
 31
0.000000
  0
POINT
  8
RING
 62
     7
 10
6.284788
 20
1.252947
 30
0.000000
  0
POINT
  8
RING
 62
     7
 10
6.284788
 20
1.295239
 30
0.000000
  0
POINT
  8
RING
 62
     7
 10
6.284788
 20
1.295239
 30
0.000000
  0
POINT
  8
RING
 62
     7
 10
6.282857
 20
1.592233
 30
0.000000
  0
POINT
  8
RING
 62
     7
 10
6.284788
 20
1.252947
 30
0.000000
  0
POINT
  8
RING
 62
     7
 10
6.284788
 20
1.295239
 30
0.000000
  0
POINT
  8
RING
 62
     7
 10
6.284788
 20
1.295239
 30
0.000000
  0
LINE
  8
RING
 62
     7
  6
CONTINUOUS
 10
6.581659
 20
0.998246
 30
0.000000
 11
6.956659
 21
0.998246
 31
0.000000
  0
LINE
  8
RING
 62
     7
  6
CONTINUOUS
 10
6.956659
 20
0.998246
 30
0.000000
 11
6.956659
 21
1.592246
 31
0.000000
  0
LINE
  8
RING
 62
     7
  6
CONTINUOUS
 10
6.956659
 20
1.592246
 30
0.000000
 11
6.282857
 21
1.592246
 31
0.000000
  0
LINE
  8
RING
 62
     7
  6
CONTINUOUS
 10
6.284788
 20
9.745239
 30
0.000000
 11
6.472288
 21
9.745239
 31
0.000000
  0
LINE
  8
RING
 62
     7
  6
CONTINUOUS
 10
6.472288
 20
9.745239
 30
0.000000
 11
6.609301
 21
10.060238
 31
0.000000
  0
LINE
  8
RING
 62
     7
  6
CONTINUOUS
 10
6.284788
 20
1.252947
 30
0.000000
 11
6.467288
 21
1.252947
 31
0.000000
  0
LINE
  8
RING
 62
     7
  6
CONTINUOUS
 10
6.467288
 20
1.252947
 30
0.000000
 11
6.610446
 21
0.930239
 31
0.000000
  0
POINT
  8
RING
 62
     7
 10
6.286894
 20
8.495237
 30
0.000000
  0
LINE
  8
RING
 62
     7
  6
CONTINUOUS
 10
6.286894
 20
8.495237
 30
0.000000
 11
6.599394
 21
8.495237
 31
0.000000
  0
LINE
  8
RING
 62
     7
  6
CONTINUOUS
 10
6.599394
 20
8.495237
 30
0.000000
 11
6.599394
 21
7.495239
 31
0.000000
  0
POINT
  8
RING
 62
     7
 10
6.284300
 20
2.495239
 30
0.000000
  0
LINE
  8
RING
 62
     7
  6
CONTINUOUS
 10
6.284300
 20
2.495239
 30
0.000000
 11
6.596800
 21
2.495239
 31
0.000000
  0
LINE
  8
RING
 62
     7
  6
CONTINUOUS
 10
6.596800
 20
2.495239
 30
0.000000
 11
6.596800
 21
3.495239
 31
0.000000
  0
LINE
  8
RING
 62
     7
  6
CONTINUOUS
 10
7.678122
 20
9.370237
 30
0.000000
 11
7.678122
 21
8.870237
 31
0.000000
  0
LINE
  8
RING
 62
     7
  6
CONTINUOUS
 10
6.286894
 20
8.495237
 30
0.000000
 11
6.286894
 21
6.992642
 31
0.000000
  0
LINE
  8
RING
 62
     7
  6
CONTINUOUS
 10
6.599394
 20
7.495239
 30
0.000000
 11
6.599394
 21
6.643739
 31
0.000000
  0
LINE
  8
RING
 62
     7
  6
CONTINUOUS
 10
6.596800
 20
3.495239
 30
0.000000
 11
6.596800
 21
4.346739
 31
0.000000
  0
LINE
  8
RING
 62
     7
  6
CONTINUOUS
 10
6.610446
 20
0.930239
 30
0.000000
 11
9.146152
 21
0.930239
 31
0.000000
  0
LINE
  8
RING
 62
     7
  6
CONTINUOUS
 10
6.956659
 20
1.092240
 30
0.000000
 11
9.146152
 21
1.092240
 31
0.000000
  0
LINE
  8
RING
 62
     7
  6
CONTINUOUS
 10
6.053085
 20
1.295239
 30
0.000000
 11
9.146152
 21
1.295239
 31
0.000000
  0
LINE
  8
RING
 62
     7
  6
CONTINUOUS
 10
6.955649
 20
1.498238
 30
0.000000
 11
9.146152
 21
1.498238
 31
0.000000
  0
LINE
  8
RING
 62
     7
  6
CONTINUOUS
 10
6.593410
 20
3.495239
 30
0.000000
 11
8.959475
 21
3.495239
 31
0.000000
  0
LINE
  8
RING
 62
     7
  6
CONTINUOUS
 10
6.592294
 20
7.495239
 30
0.000000
 11
8.959475
 21
7.495239
 31
0.000000
  0
LINE
  8
RING
 62
     7
  6
CONTINUOUS
 10
6.609301
 20
10.060238
 30
0.000000
 11
9.146152
 21
10.060238
 31
0.000000
  0
LINE
  8
RING
 62
     7
  6
CONTINUOUS
 10
6.284371
 20
9.370237
 30
0.000000
 11
9.146152
 21
9.370237
 31
0.000000
  0
LINE
  8
RING
 62
     7
  6
CONTINUOUS
 10
5.789966
 20
9.120237
 30
0.000000
 11
9.146152
 21
9.120237
 31
0.000000
  0
LINE
  8
RING
 62
     7
  6
CONTINUOUS
 10
6.284259
 20
8.870237
 30
0.000000
 11
9.146152
 21
8.870237
 31
0.000000
  0
LINE
  8
HUB
 62
     7
  6
CONTINUOUS
 10
10.280550
 20
6.646739
 30
0.000000
 11
10.280550
 21
4.343739
 31
0.000000
  0
LINE
  8
HUB
 62
     7
  6
CONTINUOUS
 10
10.280550
 20
6.646739
 30
0.000000
 11
10.655546
 21
6.646739
 31
0.000000
  0
LINE
  8
HUB
 62
     7
  6
CONTINUOUS
 10
10.655546
 20
6.745684
 30
0.000000
 11
10.655546
 21
6.646739
 31
0.000000
  0
LINE
  8
HUB
 62
     7
  6
CONTINUOUS
 10
10.655546
 20
4.244784
 30
0.000000
 11
10.655546
 21
4.343739
 31
0.000000
  0
LINE
  8
HUB
 62
     7
  6
CONTINUOUS
 10
10.280550
 20
4.343739
 30
0.000000
 11
10.655546
 21
4.343739
 31
0.000000
  0
CIRCLE
  8
HUB
 62
     7
  6
CONTINUOUS
 10
2.600294
 20
5.495237
 30
0.000000
 40
1.151500
  0
LINE
  8
DIEM
 62
     7
  6
CONTINUOUS
 10
17.479021
 20
5.495234
 30
0.000000
 11
-0.313326
 21
5.495234
 31
0.000000
  0
LINE
  8
DIEM
 62
     7
  6
CONTINUOUS
 10
1.861245
 20
6.863096
 30
0.000000
 11
1.798745
 21
6.863096
 31
0.000000
  0
LINE
  8
DIEM
 62
     7
  6
CONTINUOUS
 10
2.052928
 20
6.508322
 30
0.000000
 11
2.159373
 21
6.442791
 31
0.000000
  0
LINE
  8
DIEM
 62
     7
  6
CONTINUOUS
 10
2.052928
 20
6.508322
 30
0.000000
 11
2.049399
 21
6.383372
 31
0.000000
  0
LINE
  8
DIEM
 62
     7
  6
CONTINUOUS
 10
3.147660
 20
4.482152
 30
0.000000
 11
3.041215
 21
4.547683
 31
0.000000
  0
LINE
  8
DIEM
 62
     7
  6
CONTINUOUS
 10
3.147660
 20
4.482152
 30
0.000000
 11
3.151189
 21
4.607102
 31
0.000000
  0
TEXT
  8
DIEM
 62
     7
 10
0.814374
 20
6.800284
 30
0.000000
 40
0.125000
  1
2.303"
  0
TEXT
  8
DIEM
 62
     7
 10
1.292844
 20
6.894346
 30
0.000000
 40
0.125000
  1
+.000"
  0
TEXT
  8
DIEM
 62
     7
 10
1.292844
 20
6.706223
 30
0.000000
 40
0.125000
  1
-.002"
  0
LINE
  8
DIEM
 62
     7
  6
CONTINUOUS
 10
3.147660
 20
4.482152
 30
0.000000
 11
1.861245
 21
6.863096
 31
0.000000
  0
LINE
  8
DIEM
 62
     7
  6
CONTINUOUS
 10
9.738714
 20
4.343739
 30
0.000000
 11
9.676214
 21
4.451992
 31
0.000000
  0
LINE
  8
DIEM
 62
     7
  6
CONTINUOUS
 10
9.738714
 20
4.343739
 30
0.000000
 11
9.801214
 21
4.451992
 31
0.000000
  0
LINE
  8
DIEM
 62
     7
  6
CONTINUOUS
 10
9.738714
 20
6.646739
 30
0.000000
 11
9.801214
 21
6.538485
 31
0.000000
  0
LINE
  8
DIEM
 62
     7
  6
CONTINUOUS
 10
9.738714
 20
6.646739
 30
0.000000
 11
9.676214
 21
6.538485
 31
0.000000
  0
LINE
  8
DIEM
 62
     7
  6
CONTINUOUS
 10
10.218050
 20
4.343739
 30
0.000000
 11
9.488714
 21
4.343739
 31
0.000000
  0
LINE
  8
DIEM
 62
     7
  6
CONTINUOUS
 10
10.218050
 20
6.646739
 30
0.000000
 11
9.488714
 21
6.646739
 31
0.000000
  0
TEXT
  8
DIEM
 62
     7
 10
9.262154
 20
5.669629
 30
0.000000
 40
0.125000
  1
2.303"
  0
TEXT
  8
DIEM
 62
     7
 10
9.740623
 20
5.763690
 30
0.000000
 40
0.125000
  1
+.000"
  0
TEXT
  8
DIEM
 62
     7
 10
9.740623
 20
5.575568
 30
0.000000
 40
0.125000
  1
-.002"
  0
LINE
  8
DIEM
 62
     7
  6
CONTINUOUS
 10
9.738714
 20
4.343739
 30
0.000000
 11
9.738714
 21
5.544332
 31
0.000000
  0
LINE
  8
DIEM
 62
     7
  6
CONTINUOUS
 10
9.738714
 20
5.920549
 30
0.000000
 11
9.738714
 21
6.646739
 31
0.000000
  0
ARC
  8
PLATE
 62
     7
  6
CONTINUOUS
 10
2.600294
 20
5.495232
 30
0.000000
 40
5.500001
 50
75.350398
 51
117.168420
  0
ARC
  8
PLATE
 62
     7
  6
CONTINUOUS
 10
2.600295
 20
5.495233
 30
0.000000
 40
5.500000
 50
240.993442
 51
284.181278
  0
ARC
  8
PLATE
 62
     7
  6
CONTINUOUS
 10
2.600294
 20
5.495238
 30
0.000000
 40
5.437495
 50
75.491312
 51
117.502105
  0
ARC
  8
PLATE
 62
     7
  6
CONTINUOUS
 10
2.600294
 20
5.495234
 30
0.000000
 40
5.437500
 50
240.126915
 51
285.142062
  0
POINT
  8
PLATE
 62
     7
 10
2.600294
 20
11.331219
 30
0.000000
  0
ARC
  8
PLATE
 62
     7
  6
CONTINUOUS
 10
2.600295
 20
5.495229
 30
0.000000
 40
5.835989
 50
75.819066
 51
116.440291
  0
LINE
  8
DIEM
 62
     7
  6
CONTINUOUS
 10
6.284788
 20
10.542214
 30
0.000000
 11
6.393041
 21
10.604714
 31
0.000000
  0
LINE
  8
DIEM
 62
     7
  6
CONTINUOUS
 10
6.284788
 20
10.542214
 30
0.000000
 11
6.393041
 21
10.479714
 31
0.000000
  0
LINE
  8
DIEM
 62
     7
  6
CONTINUOUS
 10
9.146152
 20
10.542214
 30
0.000000
 11
9.037898
 21
10.479714
 31
0.000000
  0
LINE
  8
DIEM
 62
     7
  6
CONTINUOUS
 10
9.146152
 20
10.542214
 30
0.000000
 11
9.037898
 21
10.604714
 31
0.000000
  0
LINE
  8
DIEM
 62
     7
  6
CONTINUOUS
 10
6.284788
 20
9.807739
 30
0.000000
 11
6.284788
 21
10.792214
 31
0.000000
  0
LINE
  8
DIEM
 62
     7
  6
CONTINUOUS
 10
9.146152
 20
10.122746
 30
0.000000
 11
9.146152
 21
10.792214
 31
0.000000
  0
TEXT
  8
DIEM
 62
     7
 10
7.517466
 20
10.479241
 30
0.000000
 40
0.125000
  1
2.861"
  0
LINE
  8
DIEM
 62
     7
  6
CONTINUOUS
 10
6.284788
 20
10.542214
 30
0.000000
 11
7.486216
 21
10.542214
 31
0.000000
  0
LINE
  8
DIEM
 62
     7
  6
CONTINUOUS
 10
7.944723
 20
10.542214
 30
0.000000
 11
9.146152
 21
10.542214
 31
0.000000
  0
LINE
  8
DIEM
 62
     7
  6
CONTINUOUS
 10
5.908092
 20
11.346778
 30
0.000000
 11
5.799839
 21
11.284278
 31
0.000000
  0
LINE
  8
DIEM
 62
     7
  6
CONTINUOUS
 10
5.908092
 20
11.346778
 30
0.000000
 11
5.799839
 21
11.409278
 31
0.000000
  0
LINE
  8
DIEM
 62
     7
  6
CONTINUOUS
 10
6.408092
 20
11.346778
 30
0.000000
 11
6.516345
 21
11.409278
 31
0.000000
  0
LINE
  8
DIEM
 62
     7
  6
CONTINUOUS
 10
6.408092
 20
11.346778
 30
0.000000
 11
6.516345
 21
11.284278
 31
0.000000
  0
LINE
  8
DIEM
 62
     7
  6
CONTINUOUS
 10
5.908092
 20
11.393719
 30
0.000000
 11
5.908092
 21
11.596778
 31
0.000000
  0
LINE
  8
DIEM
 62
     7
  6
CONTINUOUS
 10
6.408092
 20
11.393719
 30
0.000000
 11
6.408092
 21
11.596778
 31
0.000000
  0
TEXT
  8
DIEM
 62
     7
 10
6.744682
 20
11.284191
 30
0.000000
 40
0.125000
  1
1/2"
  0
LINE
  8
DIEM
 62
     7
  6
CONTINUOUS
 10
5.908092
 20
11.346778
 30
0.000000
 11
5.658092
 21
11.346778
 31
0.000000
  0
LINE
  8
DIEM
 62
     7
  6
CONTINUOUS
 10
6.408092
 20
11.346778
 30
0.000000
 11
6.658092
 21
11.346778
 31
0.000000
  0
LINE
  8
DIEM
 62
     7
  6
CONTINUOUS
 10
5.783092
 20
11.002438
 30
0.000000
 11
5.674839
 21
10.939938
 31
0.000000
  0
LINE
  8
DIEM
 62
     7
  6
CONTINUOUS
 10
5.783092
 20
11.002438
 30
0.000000
 11
5.674839
 21
11.064938
 31
0.000000
  0
LINE
  8
DIEM
 62
     7
  6
CONTINUOUS
 10
6.408092
 20
11.002438
 30
0.000000
 11
6.516345
 21
11.064938
 31
0.000000
  0
LINE
  8
DIEM
 62
     7
  6
CONTINUOUS
 10
6.408092
 20
11.002438
 30
0.000000
 11
6.516345
 21
10.939938
 31
0.000000
  0
LINE
  8
DIEM
 62
     7
  6
CONTINUOUS
 10
5.783092
 20
11.057736
 30
0.000000
 11
5.783092
 21
11.252438
 31
0.000000
  0
LINE
  8
DIEM
 62
     7
  6
CONTINUOUS
 10
6.408092
 20
11.268719
 30
0.000000
 11
6.408092
 21
10.752438
 31
0.000000
  0
TEXT
  8
DIEM
 62
     7
 10
6.794428
 20
10.939413
 30
0.000000
 40
0.125000
  1
5/8"
  0
LINE
  8
DIEM
 62
     7
  6
CONTINUOUS
 10
5.783092
 20
11.002438
 30
0.000000
 11
5.533092
 21
11.002438
 31
0.000000
  0
LINE
  8
DIEM
 62
     7
  6
CONTINUOUS
 10
6.408092
 20
11.002438
 30
0.000000
 11
6.658092
 21
11.002438
 31
0.000000
  0
LINE
  8
DIEM
 62
     7
  6
CONTINUOUS
 10
6.284788
 20
10.202355
 30
0.000000
 11
6.176534
 21
10.139855
 31
0.000000
  0
LINE
  8
DIEM
 62
     7
  6
CONTINUOUS
 10
6.284788
 20
10.202355
 30
0.000000
 11
6.176534
 21
10.264855
 31
0.000000
  0
LINE
  8
DIEM
 62
     7
  6
CONTINUOUS
 10
6.409481
 20
10.202355
 30
0.000000
 11
6.517734
 21
10.264855
 31
0.000000
  0
LINE
  8
DIEM
 62
     7
  6
CONTINUOUS
 10
6.409481
 20
10.202355
 30
0.000000
 11
6.517734
 21
10.139855
 31
0.000000
  0
LINE
  8
DIEM
 62
     7
  6
CONTINUOUS
 10
6.284788
 20
9.807739
 30
0.000000
 11
6.284788
 21
10.452355
 31
0.000000
  0
LINE
  8
DIEM
 62
     7
  6
CONTINUOUS
 10
6.409481
 20
9.807734
 30
0.000000
 11
6.409481
 21
10.452355
 31
0.000000
  0
TEXT
  8
DIEM
 62
     7
 10
6.771631
 20
10.139447
 30
0.000000
 40
0.125000
  1
1/8"
  0
LINE
  8
DIEM
 62
     7
  6
CONTINUOUS
 10
6.284788
 20
10.202355
 30
0.000000
 11
6.034788
 21
10.202355
 31
0.000000
  0
LINE
  8
DIEM
 62
     7
  6
CONTINUOUS
 10
6.409481
 20
10.202355
 30
0.000000
 11
6.659481
 21
10.202355
 31
0.000000
  0
LINE
  8
DIEM
 62
     7
  6
CONTINUOUS
 10
5.433779
 20
10.870236
 30
0.000000
 11
5.496279
 21
10.761983
 31
0.000000
  0
LINE
  8
DIEM
 62
     7
  6
CONTINUOUS
 10
5.433779
 20
10.870236
 30
0.000000
 11
5.371279
 21
10.761983
 31
0.000000
  0
LINE
  8
DIEM
 62
     7
  6
CONTINUOUS
 10
5.433779
 20
10.995236
 30
0.000000
 11
5.371279
 21
11.103490
 31
0.000000
  0
LINE
  8
DIEM
 62
     7
  6
CONTINUOUS
 10
5.433779
 20
10.995236
 30
0.000000
 11
5.496279
 21
11.103490
 31
0.000000
  0
LINE
  8
DIEM
 62
     7
  6
CONTINUOUS
 10
5.720592
 20
10.870236
 30
0.000000
 11
5.183779
 21
10.870236
 31
0.000000
  0
LINE
  8
DIEM
 62
     7
  6
CONTINUOUS
 10
5.720592
 20
10.995236
 30
0.000000
 11
5.183779
 21
10.995236
 31
0.000000
  0
TEXT
  8
DIEM
 62
     7
 10
5.309423
 20
11.293476
 30
0.000000
 40
0.125000
  1
1/8"
  0
LINE
  8
DIEM
 62
     7
  6
CONTINUOUS
 10
5.433779
 20
10.870236
 30
0.000000
 11
5.433779
 21
10.620236
 31
0.000000
  0
LINE
  8
DIEM
 62
     7
  6
CONTINUOUS
 10
5.433779
 20
10.995236
 30
0.000000
 11
5.433779
 21
11.245236
 31
0.000000
  0
LINE
  8
DIEM
 62
     7
  6
CONTINUOUS
 10
10.280550
 20
3.963977
 30
0.000000
 11
10.388803
 21
4.026477
 31
0.000000
  0
LINE
  8
DIEM
 62
     7
  6
CONTINUOUS
 10
10.280550
 20
3.963977
 30
0.000000
 11
10.388803
 21
3.901477
 31
0.000000
  0
LINE
  8
DIEM
 62
     7
  6
CONTINUOUS
 10
12.155546
 20
3.963977
 30
0.000000
 11
12.047293
 21
3.901477
 31
0.000000
  0
LINE
  8
DIEM
 62
     7
  6
CONTINUOUS
 10
12.155546
 20
3.963977
 30
0.000000
 11
12.047293
 21
4.026477
 31
0.000000
  0
LINE
  8
DIEM
 62
     7
  6
CONTINUOUS
 10
10.280550
 20
4.281239
 30
0.000000
 11
10.280550
 21
3.713977
 31
0.000000
  0
LINE
  8
DIEM
 62
     7
  6
CONTINUOUS
 10
12.155546
 20
4.284284
 30
0.000000
 11
12.155546
 21
3.713977
 31
0.000000
  0
TEXT
  8
DIEM
 62
     7
 10
11.000378
 20
3.901069
 30
0.000000
 40
0.125000
  1
1 7/8"
  0
LINE
  8
DIEM
 62
     7
  6
CONTINUOUS
 10
10.280550
 20
3.963977
 30
0.000000
 11
10.969129
 21
3.963977
 31
0.000000
  0
LINE
  8
DIEM
 62
     7
  6
CONTINUOUS
 10
11.466968
 20
3.963977
 30
0.000000
 11
12.155546
 21
3.963977
 31
0.000000
  0
LINE
  8
DIEM
 62
     7
  6
CONTINUOUS
 10
10.280550
 20
7.714487
 30
0.000000
 11
10.388803
 21
7.776987
 31
0.000000
  0
LINE
  8
DIEM
 62
     7
  6
CONTINUOUS
 10
10.280550
 20
7.714487
 30
0.000000
 11
10.388803
 21
7.651987
 31
0.000000
  0
LINE
  8
DIEM
 62
     7
  6
CONTINUOUS
 10
10.655546
 20
7.714487
 30
0.000000
 11
10.547293
 21
7.651987
 31
0.000000
  0
LINE
  8
DIEM
 62
     7
  6
CONTINUOUS
 10
10.655546
 20
7.714487
 30
0.000000
 11
10.547293
 21
7.776987
 31
0.000000
  0
LINE
  8
DIEM
 62
     7
  6
CONTINUOUS
 10
10.280550
 20
6.709239
 30
0.000000
 11
10.280550
 21
7.964487
 31
0.000000
  0
LINE
  8
DIEM
 62
     7
  6
CONTINUOUS
 10
10.655546
 20
6.709239
 30
0.000000
 11
10.655546
 21
7.964487
 31
0.000000
  0
TEXT
  8
DIEM
 62
     7
 10
10.805503
 20
7.651579
 30
0.000000
 40
0.125000
  1
3/8"
  0
LINE
  8
DIEM
 62
     7
  6
CONTINUOUS
 10
10.280550
 20
7.714487
 30
0.000000
 11
10.774253
 21
7.714487
 31
0.000000
  0
LINE
  8
DIEM
 62
     7
  6
CONTINUOUS
 10
2.943223
 20
4.699449
 30
0.000000
 11
3.066501
 21
4.678769
 31
0.000000
  0
LINE
  8
DIEM
 62
     7
  6
CONTINUOUS
 10
2.943223
 20
4.699449
 30
0.000000
 11
2.986953
 21
4.582348
 31
0.000000
  0
LINE
  8
DIEM
 62
     7
  6
CONTINUOUS
 10
2.943223
 20
4.699449
 30
0.000000
 11
3.750600
 21
4.033363
 31
0.000000
  0
LINE
  8
DIEM
 62
     7
  6
CONTINUOUS
 10
3.750600
 20
4.033363
 30
0.000000
 11
4.250600
 21
4.033363
 31
0.000000
  0
TEXT
  8
DIEM
 62
     7
 10
4.313100
 20
3.970863
 30
0.000000
 40
0.125000
  1
SEE NOTE B
  0
LINE
  8
DIEM
 62
     7
  6
CONTINUOUS
 10
2.411320
 20
4.528391
 30
0.000000
 11
2.536098
 21
4.520942
 31
0.000000
  0
LINE
  8
DIEM
 62
     7
  6
CONTINUOUS
 10
2.411320
 20
4.528391
 30
0.000000
 11
2.467258
 21
4.416606
 31
0.000000
  0
LINE
  8
DIEM
 62
     7
  6
CONTINUOUS
 10
2.411320
 20
4.528391
 30
0.000000
 11
3.737415
 21
3.653449
 31
0.000000
  0
LINE
  8
DIEM
 62
     7
  6
CONTINUOUS
 10
3.737415
 20
3.653449
 30
0.000000
 11
4.237415
 21
3.653449
 31
0.000000
  0
TEXT
  8
DIEM
 62
     7
 10
4.299915
 20
3.590949
 30
0.000000
 40
0.125000
  1
SEE NOTE C
  0
LINE
  8
DIEM
 62
     7
  6
CONTINUOUS
 10
4.199452
 20
6.657086
 30
0.000000
 11
4.085259
 21
6.707928
 31
0.000000
  0
LINE
  8
DIEM
 62
     7
  6
CONTINUOUS
 10
4.199452
 20
6.657086
 30
0.000000
 11
4.186386
 21
6.781401
 31
0.000000
  0
LINE
  8
DIEM
 62
     7
  6
CONTINUOUS
 10
1.989469
 20
7.375154
 30
0.000000
 11
2.073110
 21
7.468047
 31
0.000000
  0
LINE
  8
DIEM
 62
     7
  6
CONTINUOUS
 10
1.989469
 20
7.375154
 30
0.000000
 11
2.111737
 21
7.349165
 31
0.000000
  0
LINE
  8
DIEM
 62
     7
  6
CONTINUOUS
 10
3.308184
 20
6.009546
 30
0.000000
 11
4.401706
 21
6.804031
 31
0.000000
  0
LINE
  8
DIEM
 62
     7
  6
CONTINUOUS
 10
2.329904
 20
6.327408
 30
0.000000
 11
1.912214
 21
7.612918
 31
0.000000
  0
TEXT
  8
DIEM
 62
     7
 10
3.094870
 20
7.312568
 30
0.000000
 40
0.125000
  1
72
  0
ARC
  8
DIEM
 62
     7
  6
CONTINUOUS
 10
2.600294
 20
5.495237
 30
0.000000
 40
1.976663
 50
35.999828
 51
67.440821
  0
ARC
  8
DIEM
 62
     7
  6
CONTINUOUS
 10
2.600294
 20
5.495237
 30
0.000000
 40
1.976663
 50
76.443871
 51
108.000093
  0
LINE
  8
DIEM
 62
     7
  6
CONTINUOUS
 10
4.176904
 20
5.495229
 30
0.000000
 11
4.114404
 21
5.603483
 31
0.000000
  0
LINE
  8
DIEM
 62
     7
  6
CONTINUOUS
 10
4.176904
 20
5.495229
 30
0.000000
 11
4.239404
 21
5.603483
 31
0.000000
  0
LINE
  8
DIEM
 62
     7
  6
CONTINUOUS
 10
3.087496
 20
6.994681
 30
0.000000
 11
3.209764
 21
7.020670
 31
0.000000
  0
LINE
  8
DIEM
 62
     7
  6
CONTINUOUS
 10
3.087496
 20
6.994681
 30
0.000000
 11
3.171137
 21
6.901788
 31
0.000000
  0
LINE
  8
DIEM
 62
     7
  6
CONTINUOUS
 10
3.365894
 20
5.495233
 30
0.000000
 11
4.426904
 21
5.495228
 31
0.000000
  0
LINE
  8
DIEM
 62
     7
  6
CONTINUOUS
 10
2.836878
 20
6.223362
 30
0.000000
 11
3.164750
 21
7.232445
 31
0.000000
  0
TEXT
  8
DIEM
 62
     7
 10
3.570181
 20
6.575457
 30
0.000000
 40
0.125000
  1
72
  0
ARC
  8
DIEM
 62
     7
  6
CONTINUOUS
 10
2.600294
 20
5.495237
 30
0.000000
 40
1.576610
 50
359.999728
 51
401.707862
  0
ARC
  8
DIEM
 62
     7
  6
CONTINUOUS
 10
2.600294
 20
5.495237
 30
0.000000
 40
1.576610
 50
51.662355
 51
71.999912
  0
LINE
  8
DIEM
 62
     7
  6
CONTINUOUS
 10
2.600294
 20
10.581787
 30
0.000000
 11
2.600294
 21
11.605448
 31
0.000000
  0
LINE
  8
DIEM
 62
     7
  6
CONTINUOUS
 10
2.357347
 20
9.552408
 30
0.000000
 11
2.245616
 21
9.608454
 31
0.000000
  0
LINE
  8
DIEM
 62
     7
  6
CONTINUOUS
 10
2.357347
 20
9.552408
 30
0.000000
 11
2.350019
 21
9.677193
 31
0.000000
  0
LINE
  8
DIEM
 62
     7
  6
CONTINUOUS
 10
2.357347
 20
9.552408
 30
0.000000
 11
2.151289
 21
9.865375
 31
0.000000
  0
LINE
  8
DIEM
 62
     7
  6
CONTINUOUS
 10
2.151289
 20
9.865375
 30
0.000000
 11
2.651289
 21
9.865375
 31
0.000000
  0
TEXT
  8
DIEM
 62
     7
 10
2.713789
 20
9.802874
 30
0.000000
 40
0.125000
  1
SEE NOTE D
  0
LINE
  8
DIEM
 62
     7
  6
CONTINUOUS
 10
2.600294
 20
9.745234
 30
0.000000
 11
2.600294
 21
1.056669
 31
0.000000
  0
POINT
  8
FLYWHEEL
 62
     7
 10
4.450092
 20
10.745234
 30
0.000000
  0
LINE
  8
FLYWHEEL
 62
     7
  6
CONTINUOUS
 10
4.450092
 20
10.363739
 30
0.000000
 11
4.575092
 21
10.363739
 31
0.000000
  0
LINE
  8
FLYWHEEL
 62
     7
  6
CONTINUOUS
 10
4.450092
 20
0.626739
 30
0.000000
 11
4.575092
 21
0.626739
 31
0.000000
  0
POINT
  8
FLYWHEEL
 62
     7
 10
4.575092
 20
9.820238
 30
0.000000
  0
POINT
  8
FLYWHEEL
 62
     7
 10
4.575092
 20
1.170239
 30
0.000000
  0
LINE
  8
FLYWHEEL
 62
     7
  6
CONTINUOUS
 10
4.575092
 20
1.170239
 30
0.000000
 11
5.447092
 21
1.170239
 31
0.000000
  0
LINE
  8
FLYWHEEL
 62
     7
  6
CONTINUOUS
 10
4.575092
 20
9.820238
 30
0.000000
 11
5.447092
 21
9.820238
 31
0.000000
  0
LINE
  8
FLYWHEEL
 62
     7
  6
CONTINUOUS
 10
5.447092
 20
1.170239
 30
0.000000
 11
5.447092
 21
9.820238
 31
0.000000
  0
LINE
  8
FLYWHEEL
 62
     7
  6
CONTINUOUS
 10
6.222228
 20
6.643739
 30
0.000000
 11
6.222228
 21
4.346739
 31
0.000000
  0
POINT
  8
FLYWHEEL
 62
     7
 10
5.447092
 20
8.118739
 30
0.000000
  0
POINT
  8
FLYWHEEL
 62
     7
 10
5.447092
 20
2.871738
 30
0.000000
  0
LINE
  8
FLYWHEEL
 62
     7
  6
CONTINUOUS
 10
5.447092
 20
8.118739
 30
0.000000
 11
5.548091
 21
8.118739
 31
0.000000
  0
LINE
  8
FLYWHEEL
 62
     7
  6
CONTINUOUS
 10
5.447092
 20
2.871738
 30
0.000000
 11
5.548091
 21
2.871738
 31
0.000000
  0
LINE
  8
FLYWHEEL
 62
     7
  6
CONTINUOUS
 10
5.548091
 20
8.118739
 30
0.000000
 11
5.548091
 21
2.871738
 31
0.000000
  0
LINE
  8
FLYWHEEL
 62
     7
  6
CONTINUOUS
 10
5.804091
 20
6.823239
 30
0.000000
 11
5.804091
 21
4.167239
 31
0.000000
  0
LINE
  8
FLYWHEEL
 62
     7
  6
CONTINUOUS
 10
5.548091
 20
7.059238
 30
0.000000
 11
5.804091
 21
6.823239
 31
0.000000
  0
LINE
  8
FLYWHEEL
 62
     7
  6
CONTINUOUS
 10
5.548091
 20
3.931239
 30
0.000000
 11
5.804091
 21
4.167239
 31
0.000000
  0
LINE
  8
FLYWHEEL
 62
     7
  6
CONTINUOUS
 10
5.804091
 20
4.463734
 30
0.000000
 11
6.222228
 21
4.463734
 31
0.000000
  0
LINE
  8
FLYWHEEL
 62
     7
  6
CONTINUOUS
 10
5.804091
 20
5.932732
 30
0.000000
 11
6.222228
 21
5.932732
 31
0.000000
  0
LINE
  8
FLYWHEEL
 62
     7
  6
CONTINUOUS
 10
6.222228
 20
4.901733
 30
0.000000
 11
5.804091
 21
4.901733
 31
0.000000
  0
POINT
  8
FLYWHEEL
 62
     7
 10
6.222228
 20
5.057732
 30
0.000000
  0
LINE
  8
FLYWHEEL
 62
     7
  6
CONTINUOUS
 10
6.222228
 20
5.057732
 30
0.000000
 11
5.804091
 21
5.057732
 31
0.000000
  0
LINE
  8
FLYWHEEL
 62
     7
  6
CONTINUOUS
 10
4.450092
 20
10.745234
 30
0.000000
 11
4.450092
 21
10.923239
 31
0.000000
  0
LINE
  8
FLYWHEEL
 62
     7
  6
CONTINUOUS
 10
4.450092
 20
10.923239
 30
0.000000
 11
4.878092
 21
10.923239
 31
0.000000
  0
LINE
  8
FLYWHEEL
 62
     7
  6
CONTINUOUS
 10
4.878092
 20
10.923239
 30
0.000000
 11
4.878092
 21
10.745234
 31
0.000000
  0
LINE
  8
FLYWHEEL
 62
     7
  6
CONTINUOUS
 10
4.450092
 20
0.245234
 30
0.000000
 11
4.450092
 21
0.067239
 31
0.000000
  0
LINE
  8
FLYWHEEL
 62
     7
  6
CONTINUOUS
 10
4.450092
 20
0.067239
 30
0.000000
 11
4.878092
 21
0.067239
 31
0.000000
  0
LINE
  8
FLYWHEEL
 62
     7
  6
CONTINUOUS
 10
4.878092
 20
0.067239
 30
0.000000
 11
4.878092
 21
0.245234
 31
0.000000
  0
LINE
  8
FLYWHEEL
 62
     7
  6
CONTINUOUS
 10
5.659092
 20
10.745234
 30
0.000000
 11
5.806092
 21
10.517738
 31
0.000000
  0
LINE
  8
FLYWHEEL
 62
     7
  6
CONTINUOUS
 10
5.806092
 20
10.287733
 30
0.000000
 11
5.806092
 21
10.517738
 31
0.000000
  0
LINE
  8
FLYWHEEL
 62
     7
  6
CONTINUOUS
 10
5.659092
 20
10.745234
 30
0.000000
 11
4.450092
 21
10.745234
 31
0.000000
  0
LINE
  8
FLYWHEEL
 62
     7
  6
CONTINUOUS
 10
5.806092
 20
0.472739
 30
0.000000
 11
5.659092
 21
0.245234
 31
0.000000
  0
LINE
  8
FLYWHEEL
 62
     7
  6
CONTINUOUS
 10
4.450092
 20
0.245234
 30
0.000000
 11
5.659092
 21
0.245234
 31
0.000000
  0
LINE
  8
FLYWHEEL
 62
     7
  6
CONTINUOUS
 10
5.806092
 20
0.702734
 30
0.000000
 11
5.806092
 21
0.472739
 31
0.000000
  0
ARC
  8
PLATE
 62
     7
  6
CONTINUOUS
 10
2.600294
 20
5.495237
 30
0.000000
 40
3.625000
 50
63.404603
 51
125.758344
  0
ARC
  8
PLATE
 62
     7
  6
CONTINUOUS
 10
2.600293
 20
5.495243
 30
0.000000
 40
4.249992
 50
68.076433
 51
125.758390
  0
ARC
  8
PLATE
 62
     7
  6
CONTINUOUS
 10
2.600294
 20
5.495238
 30
0.000000
 40
2.999999
 50
58.000450
 51
139.730230
  0
ARC
  8
PLATE
 62
     7
  6
CONTINUOUS
 10
2.600294
 20
5.495236
 30
0.000000
 40
3.624999
 50
235.094512
 51
296.766584
  0
ARC
  8
PLATE
 62
     7
  6
CONTINUOUS
 10
2.600294
 20
5.495233
 30
0.000000
 40
4.250000
 50
235.094479
 51
292.806003
  0
ARC
  8
PLATE
 62
     7
  6
CONTINUOUS
 10
2.600294
 20
5.495237
 30
0.000000
 40
3.000001
 50
222.592535
 51
297.244830
  0
LINE
  8
FLYWHEEL
 62
     7
  6
CONTINUOUS
 10
4.450092
 20
4.343980
 30
0.000000
 11
4.450092
 21
10.745234
 31
0.000000
  0
LINE
  8
FLYWHEEL
 62
     7
  6
CONTINUOUS
 10
4.450092
 20
3.366434
 30
0.000000
 11
4.450092
 21
0.245234
 31
0.000000
  0
LINE
  8
FLYWHEEL
 62
     7
  6
CONTINUOUS
 10
4.575092
 20
3.366434
 30
0.000000
 11
4.575092
 21
0.626739
 31
0.000000
  0
LINE
  8
FLYWHEEL
 62
     7
  6
CONTINUOUS
 10
4.575092
 20
4.343980
 30
0.000000
 11
4.575092
 21
10.363739
 31
0.000000
  0
LINE
  8
DIEM
 62
     7
  6
CONTINUOUS
 10
4.450092
 20
11.168531
 30
0.000000
 11
4.558345
 21
11.231031
 31
0.000000
  0
LINE
  8
DIEM
 62
     7
  6
CONTINUOUS
 10
4.450092
 20
11.168531
 30
0.000000
 11
4.558345
 21
11.106031
 31
0.000000
  0
LINE
  8
DIEM
 62
     7
  6
CONTINUOUS
 10
5.909481
 20
11.168531
 30
0.000000
 11
5.801228
 21
11.106031
 31
0.000000
  0
LINE
  8
DIEM
 62
     7
  6
CONTINUOUS
 10
5.909481
 20
11.168531
 30
0.000000
 11
5.801228
 21
11.231031
 31
0.000000
  0
LINE
  8
DIEM
 62
     7
  6
CONTINUOUS
 10
4.450092
 20
10.985739
 30
0.000000
 11
4.450092
 21
11.418531
 31
0.000000
  0
LINE
  8
DIEM
 62
     7
  6
CONTINUOUS
 10
5.909481
 20
11.268719
 30
0.000000
 11
5.909481
 21
10.918531
 31
0.000000
  0
TEXT
  8
DIEM
 62
     7
 10
4.970092
 20
11.105725
 30
0.000000
 40
0.125000
  1
1.459"
  0
LINE
  8
DIEM
 62
     7
  6
CONTINUOUS
 10
4.450092
 20
11.168531
 30
0.000000
 11
4.938843
 21
11.168531
 31
0.000000
  0
LINE
  8
DIEM
 62
     7
  6
CONTINUOUS
 10
5.420730
 20
11.168531
 30
0.000000
 11
5.909481
 21
11.168531
 31
0.000000
  0
POINT
  8
DIEM
 62
     7
 10
16.447624
 20
5.495234
 30
0.000000
  0
POINT
  8
BUSHING
 62
     7
 10
14.150245
 20
5.495234
 30
0.000000
  0
POINT
  8
BUSHING
 62
     7
 10
14.150245
 20
5.495234
 30
0.000000
  0
LINE
  8
BUSHING
 62
     7
  6
CONTINUOUS
 10
14.150245
 20
5.495234
 30
0.000000
 11
14.150245
 21
4.682734
 31
0.000000
  0
POINT
  8
BUSHING
 62
     7
 10
15.275565
 20
6.198342
 30
0.000000
  0
POINT
  8
BUSHING
 62
     7
 10
15.275565
 20
6.198342
 30
0.000000
  0
POINT
  8
BUSHING
 62
     7
 10
15.275573
 20
6.198342
 30
0.000000
  0
POINT
  8
BUSHING
 62
     7
 10
15.275573
 20
6.198342
 30
0.000000
  0
POINT
  8
BUSHING
 62
     7
 10
14.149104
 20
6.199261
 30
0.000000
  0
POINT
  8
BUSHING
 62
     7
 10
14.274104
 20
6.199261
 30
0.000000
  0
POINT
  8
BUSHING
 62
     7
 10
14.399104
 20
6.199261
 30
0.000000
  0
POINT
  8
BUSHING
 62
     7
 10
14.399104
 20
6.199261
 30
0.000000
  0
LINE
  8
BUSHING
 62
     7
  6
CONTINUOUS
 10
14.274104
 20
6.199261
 30
0.000000
 11
14.274104
 21
6.253961
 31
0.000000
  0
LINE
  8
BUSHING
 62
     7
  6
CONTINUOUS
 10
14.274104
 20
6.199261
 30
0.000000
 11
14.274104
 21
6.144561
 31
0.000000
  0
LINE
  8
BUSHING
 62
     7
  6
CONTINUOUS
 10
14.399104
 20
6.199261
 30
0.000000
 11
14.399104
 21
6.285648
 31
0.000000
  0
LINE
  8
BUSHING
 62
     7
  6
CONTINUOUS
 10
14.399104
 20
6.199261
 30
0.000000
 11
14.399104
 21
6.112875
 31
0.000000
  0
POINT
  8
BUSHING
 62
     7
 10
14.649104
 20
6.199261
 30
0.000000
  0
POINT
  8
BUSHING
 62
     7
 10
14.524104
 20
6.199261
 30
0.000000
  0
POINT
  8
BUSHING
 62
     7
 10
14.524104
 20
6.199261
 30
0.000000
  0
LINE
  8
BUSHING
 62
     7
  6
CONTINUOUS
 10
14.524104
 20
6.199261
 30
0.000000
 11
14.524104
 21
6.253961
 31
0.000000
  0
LINE
  8
BUSHING
 62
     7
  6
CONTINUOUS
 10
14.524104
 20
6.199261
 30
0.000000
 11
14.524104
 21
6.144561
 31
0.000000
  0
POINT
  8
BUSHING
 62
     7
 10
14.774104
 20
6.199261
 30
0.000000
  0
LINE
  8
BUSHING
 62
     7
  6
CONTINUOUS
 10
14.774104
 20
6.199261
 30
0.000000
 11
14.774104
 21
6.253961
 31
0.000000
  0
LINE
  8
BUSHING
 62
     7
  6
CONTINUOUS
 10
14.774104
 20
6.199261
 30
0.000000
 11
14.774104
 21
6.144561
 31
0.000000
  0
POINT
  8
BUSHING
 62
     7
 10
15.024104
 20
6.199261
 30
0.000000
  0
LINE
  8
BUSHING
 62
     7
  6
CONTINUOUS
 10
15.024104
 20
6.199261
 30
0.000000
 11
15.024104
 21
6.253961
 31
0.000000
  0
LINE
  8
BUSHING
 62
     7
  6
CONTINUOUS
 10
15.024104
 20
6.199261
 30
0.000000
 11
15.024104
 21
6.144561
 31
0.000000
  0
POINT
  8
BUSHING
 62
     7
 10
15.274104
 20
6.199261
 30
0.000000
  0
LINE
  8
BUSHING
 62
     7
  6
CONTINUOUS
 10
15.274104
 20
6.199261
 30
0.000000
 11
15.274104
 21
6.253961
 31
0.000000
  0
LINE
  8
BUSHING
 62
     7
  6
CONTINUOUS
 10
15.274104
 20
6.199261
 30
0.000000
 11
15.274104
 21
6.144561
 31
0.000000
  0
POINT
  8
BUSHING
 62
     7
 10
14.649104
 20
6.199261
 30
0.000000
  0
POINT
  8
BUSHING
 62
     7
 10
14.649104
 20
6.199261
 30
0.000000
  0
LINE
  8
BUSHING
 62
     7
  6
CONTINUOUS
 10
14.649104
 20
6.199261
 30
0.000000
 11
14.649104
 21
6.285648
 31
0.000000
  0
LINE
  8
BUSHING
 62
     7
  6
CONTINUOUS
 10
14.649104
 20
6.199261
 30
0.000000
 11
14.649104
 21
6.112875
 31
0.000000
  0
POINT
  8
BUSHING
 62
     7
 10
14.899104
 20
6.199261
 30
0.000000
  0
POINT
  8
BUSHING
 62
     7
 10
14.899104
 20
6.199261
 30
0.000000
  0
LINE
  8
BUSHING
 62
     7
  6
CONTINUOUS
 10
14.899104
 20
6.199261
 30
0.000000
 11
14.899104
 21
6.285648
 31
0.000000
  0
LINE
  8
BUSHING
 62
     7
  6
CONTINUOUS
 10
14.899104
 20
6.199261
 30
0.000000
 11
14.899104
 21
6.112875
 31
0.000000
  0
POINT
  8
BUSHING
 62
     7
 10
15.149104
 20
6.199261
 30
0.000000
  0
POINT
  8
BUSHING
 62
     7
 10
15.149104
 20
6.199261
 30
0.000000
  0
LINE
  8
BUSHING
 62
     7
  6
CONTINUOUS
 10
15.149104
 20
6.199261
 30
0.000000
 11
15.149104
 21
6.285648
 31
0.000000
  0
LINE
  8
BUSHING
 62
     7
  6
CONTINUOUS
 10
15.149104
 20
6.199261
 30
0.000000
 11
15.149104
 21
6.112875
 31
0.000000
  0
POINT
  8
BUSHING
 62
     7
 10
14.150245
 20
5.495234
 30
0.000000
  0
POINT
  8
BUSHING
 62
     7
 10
14.712735
 20
5.498687
 30
0.000000
  0
LINE
  8
BUSHING
 62
     7
  6
CONTINUOUS
 10
14.150245
 20
6.307734
 30
0.000000
 11
14.150245
 21
5.495234
 31
0.000000
  0
LINE
  8
BUSHING
 62
     7
  6
CONTINUOUS
 10
14.150245
 20
5.495234
 30
0.000000
 11
15.400245
 21
5.495234
 31
0.000000
  0
LINE
  8
BUSHING
 62
     7
  6
CONTINUOUS
 10
15.400245
 20
5.495234
 30
0.000000
 11
15.400245
 21
6.432734
 31
0.000000
  0
LINE
  8
BUSHING
 62
     7
  6
CONTINUOUS
 10
15.400245
 20
5.495234
 30
0.000000
 11
15.400245
 21
4.557734
 31
0.000000
  0
LINE
  8
BUSHING
 62
     7
  6
CONTINUOUS
 10
14.150245
 20
6.057725
 30
0.000000
 11
15.400245
 21
6.057725
 31
0.000000
  0
LINE
  8
BUSHING
 62
     7
  6
CONTINUOUS
 10
14.150245
 20
6.112392
 30
0.000000
 11
15.400245
 21
6.112392
 31
0.000000
  0
LINE
  8
BUSHING
 62
     7
  6
CONTINUOUS
 10
14.152751
 20
4.932742
 30
0.000000
 11
15.400245
 21
4.932742
 31
0.000000
  0
LINE
  8
BUSHING
 62
     7
  6
CONTINUOUS
 10
14.150245
 20
4.682734
 30
0.000000
 11
15.400245
 21
4.557734
 31
0.000000
  0
LINE
  8
BUSHING
 62
     7
  6
CONTINUOUS
 10
14.150245
 20
6.307734
 30
0.000000
 11
15.400245
 21
6.432734
 31
0.000000
  0
LINE
  8
BUSHING
 62
     7
  6
CONTINUOUS
 10
14.150245
 20
6.284292
 30
0.000000
 11
15.400245
 21
6.284292
 31
0.000000
  0
LINE
  8
BUSHING
 62
     7
  6
CONTINUOUS
 10
14.149104
 20
6.199261
 30
0.000000
 11
15.400245
 21
6.199261
 31
0.000000
  0
LINE
  8
BUSHING
 62
     7
  6
CONTINUOUS
 10
14.150245
 20
6.840008
 30
0.000000
 11
14.258498
 21
6.902508
 31
0.000000
  0
LINE
  8
BUSHING
 62
     7
  6
CONTINUOUS
 10
14.150245
 20
6.840008
 30
0.000000
 11
14.258498
 21
6.777508
 31
0.000000
  0
LINE
  8
BUSHING
 62
     7
  6
CONTINUOUS
 10
15.400245
 20
6.840008
 30
0.000000
 11
15.291992
 21
6.777508
 31
0.000000
  0
LINE
  8
BUSHING
 62
     7
  6
CONTINUOUS
 10
15.400245
 20
6.840008
 30
0.000000
 11
15.291992
 21
6.902508
 31
0.000000
  0
LINE
  8
BUSHING
 62
     7
  6
CONTINUOUS
 10
14.150245
 20
6.370234
 30
0.000000
 11
14.150245
 21
7.090008
 31
0.000000
  0
LINE
  8
BUSHING
 62
     7
  6
CONTINUOUS
 10
15.400245
 20
6.495234
 30
0.000000
 11
15.400245
 21
7.090008
 31
0.000000
  0
TEXT
  8
BUSHING
 62
     7
 10
14.399809
 20
6.777436
 30
0.000000
 40
0.125000
  1
1 1/4"
  0
LINE
  8
BUSHING
 62
     7
  6
CONTINUOUS
 10
14.150245
 20
6.840008
 30
0.000000
 11
14.368559
 21
6.840008
 31
0.000000
  0
LINE
  8
BUSHING
 62
     7
  6
CONTINUOUS
 10
15.181931
 20
6.840008
 30
0.000000
 11
15.400245
 21
6.840008
 31
0.000000
  0
LINE
  8
BUSHING
 62
     7
  6
CONTINUOUS
 10
13.679147
 20
4.682734
 30
0.000000
 11
13.616647
 21
4.790987
 31
0.000000
  0
LINE
  8
BUSHING
 62
     7
  6
CONTINUOUS
 10
13.679147
 20
4.682734
 30
0.000000
 11
13.741647
 21
4.790987
 31
0.000000
  0
LINE
  8
BUSHING
 62
     7
  6
CONTINUOUS
 10
13.679147
 20
6.307734
 30
0.000000
 11
13.741647
 21
6.199480
 31
0.000000
  0
LINE
  8
BUSHING
 62
     7
  6
CONTINUOUS
 10
13.679147
 20
6.307734
 30
0.000000
 11
13.616647
 21
6.199480
 31
0.000000
  0
LINE
  8
BUSHING
 62
     7
  6
CONTINUOUS
 10
14.087745
 20
4.682734
 30
0.000000
 11
13.429147
 21
4.682734
 31
0.000000
  0
LINE
  8
BUSHING
 62
     7
  6
CONTINUOUS
 10
14.087745
 20
6.307734
 30
0.000000
 11
13.429147
 21
6.307734
 31
0.000000
  0
TEXT
  8
BUSHING
 62
     7
 10
13.300999
 20
5.656336
 30
0.000000
 40
0.125000
  1
1 5/8"
  0
LINE
  8
BUSHING
 62
     7
  6
CONTINUOUS
 10
13.679147
 20
4.682734
 30
0.000000
 11
13.679147
 21
5.625087
 31
0.000000
  0
LINE
  8
BUSHING
 62
     7
  6
CONTINUOUS
 10
13.679147
 20
5.813636
 30
0.000000
 11
13.679147
 21
6.307734
 31
0.000000
  0
LINE
  8
BUSHING
 62
     7
  6
CONTINUOUS
 10
15.847800
 20
4.932742
 30
0.000000
 11
15.785300
 21
5.040995
 31
0.000000
  0
LINE
  8
BUSHING
 62
     7
  6
CONTINUOUS
 10
15.847800
 20
4.932742
 30
0.000000
 11
15.910300
 21
5.040995
 31
0.000000
  0
LINE
  8
BUSHING
 62
     7
  6
CONTINUOUS
 10
15.847800
 20
6.057725
 30
0.000000
 11
15.910300
 21
5.949472
 31
0.000000
  0
LINE
  8
BUSHING
 62
     7
  6
CONTINUOUS
 10
15.847800
 20
6.057725
 30
0.000000
 11
15.785300
 21
5.949472
 31
0.000000
  0
LINE
  8
BUSHING
 62
     7
  6
CONTINUOUS
 10
15.462745
 20
4.932742
 30
0.000000
 11
16.097800
 21
4.932742
 31
0.000000
  0
LINE
  8
BUSHING
 62
     7
  6
CONTINUOUS
 10
15.462745
 20
6.057725
 30
0.000000
 11
16.097800
 21
6.057725
 31
0.000000
  0
TEXT
  8
BUSHING
 62
     7
 10
15.470352
 20
5.282905
 30
0.000000
 40
0.125000
  1
1 1/8"
  0
LINE
  8
BUSHING
 62
     7
  6
CONTINUOUS
 10
15.847800
 20
4.932742
 30
0.000000
 11
15.847800
 21
5.251654
 31
0.000000
  0
LINE
  8
BUSHING
 62
     7
  6
CONTINUOUS
 10
15.847800
 20
5.439970
 30
0.000000
 11
15.847800
 21
6.057725
 31
0.000000
  0
LINE
  8
DIEM
 62
     7
  6
CONTINUOUS
 10
14.147429
 20
6.195507
 30
0.000000
 11
14.045361
 21
6.267667
 31
0.000000
  0
LINE
  8
DIEM
 62
     7
  6
CONTINUOUS
 10
14.147429
 20
6.195507
 30
0.000000
 11
14.158887
 21
6.319981
 31
0.000000
  0
LINE
  8
DIEM
 62
     7
  6
CONTINUOUS
 10
14.147429
 20
6.195507
 30
0.000000
 11
13.593934
 21
7.396636
 31
0.000000
  0
LINE
  8
DIEM
 62
     7
  6
CONTINUOUS
 10
13.593934
 20
7.396636
 30
0.000000
 11
14.093934
 21
7.396636
 31
0.000000
  0
TEXT
  8
DIEM
 62
     7
 10
14.156434
 20
7.334136
 30
0.000000
 40
0.125000
  1
SEE NOTE A
  0
LINE
  8
DIEM
 62
     7
  6
CONTINUOUS
 10
9.143819
 20
2.656590
 30
0.000000
 11
9.238939
 21
2.737689
 31
0.000000
  0
LINE
  8
DIEM
 62
     7
  6
CONTINUOUS
 10
9.143819
 20
2.656590
 30
0.000000
 11
9.261613
 21
2.614763
 31
0.000000
  0
LINE
  8
DIEM
 62
     7
  6
CONTINUOUS
 10
9.143819
 20
2.656590
 30
0.000000
 11
9.545911
 21
2.730756
 31
0.000000
  0
LINE
  8
DIEM
 62
     7
  6
CONTINUOUS
 10
9.545911
 20
2.730756
 30
0.000000
 11
10.045911
 21
2.730756
 31
0.000000
  0
TEXT
  8
DIEM
 62
     7
 10
10.108411
 20
2.668255
 30
0.000000
 40
0.125000
  1
RING DIAMETERS AS PER STD 9" RING PRINT
  0
LINE
  8
DIEM
 62
     7
  6
CONTINUOUS
 10
9.144888
 20
1.426102
 30
0.000000
 11
9.108730
 21
1.545759
 31
0.000000
  0
LINE
  8
DIEM
 62
     7
  6
CONTINUOUS
 10
9.144888
 20
1.426102
 30
0.000000
 11
9.230434
 21
1.517244
 31
0.000000
  0
LINE
  8
DIEM
 62
     7
  6
CONTINUOUS
 10
9.144888
 20
1.426102
 30
0.000000
 11
9.185912
 21
1.601201
 31
0.000000
  0
LINE
  8
DIEM
 62
     7
  6
CONTINUOUS
 10
9.185912
 20
1.601201
 30
0.000000
 11
9.685912
 21
1.601201
 31
0.000000
  0
TEXT
  8
DIEM
 62
     7
 10
9.748412
 20
1.538701
 30
0.000000
 40
0.125000
  1
DRILL AND COUNTER BORE AS PER STD 9" RING PRINT
  0
LINE
  8
DIEM
 62
     7
  6
CONTINUOUS
 10
0.448134
 20
10.488690
 30
0.000000
 11
0.561513
 21
10.436057
 31
0.000000
  0
LINE
  8
DIEM
 62
     7
  6
CONTINUOUS
 10
0.448134
 20
10.488690
 30
0.000000
 11
0.459241
 21
10.364185
 31
0.000000
  0
LINE
  8
DIEM
 62
     7
  6
CONTINUOUS
 10
0.448134
 20
10.488690
 30
0.000000
 11
0.654377
 21
10.195213
 31
0.000000
  0
LINE
  8
DIEM
 62
     7
  6
CONTINUOUS
 10
0.654377
 20
10.195213
 30
0.000000
 11
1.154377
 21
10.195213
 31
0.000000
  0
TEXT
  8
DIEM
 62
     7
 10
1.216877
 20
10.132713
 30
0.000000
 40
0.125000
  1
FLANGE 11.0 DIA. x 1/8" WIDE x 1/8" HIGH
  0
LINE
  8
BUSHING
 62
     7
  6
CONTINUOUS
 10
14.928069
 20
1.917631
 30
0.000000
 11
14.928069
 21
4.452374
 31
0.000000
  0
LINE
  8
BUSHING
 62
     7
  6
CONTINUOUS
 10
15.053069
 20
2.489382
 30
0.000000
 11
14.803069
 21
2.489382
 31
0.000000
  0
LINE
  8
BUSHING
 62
     7
  6
CONTINUOUS
 10
14.803069
 20
2.489382
 30
0.000000
 11
14.803069
 21
2.628447
 31
0.000000
  0
LINE
  8
BUSHING
 62
     7
  6
CONTINUOUS
 10
15.053069
 20
2.489382
 30
0.000000
 11
15.053069
 21
2.628447
 31
0.000000
  0
LINE
  8
BUSHING
 62
     7
  6
CONTINUOUS
 10
14.889644
 20
3.988474
 30
0.000000
 11
14.889644
 21
3.738068
 31
0.000000
  0
LINE
  8
BUSHING
 62
     7
  6
CONTINUOUS
 10
14.969644
 20
3.988318
 30
0.000000
 11
14.969644
 21
3.737844
 31
0.000000
  0
ARC
  8
BUSHING
 62
     7
  6
CONTINUOUS
 10
14.928069
 20
3.176882
 30
0.000000
 40
0.562500
 50
282.839638
 51
445.761342
  0
ARC
  8
BUSHING
 62
     7
  6
CONTINUOUS
 10
14.928069
 20
3.176882
 30
0.000000
 40
0.562500
 50
93.917012
 51
257.160432
  0
ARC
  8
BUSHING
 62
     7
  6
CONTINUOUS
 10
14.928067
 20
3.176882
 30
0.000000
 40
0.812500
 50
92.710526
 51
447.066810
  0
POINT
  8
BUSHING
 62
     7
 10
14.928069
 20
3.176882
 30
0.000000
  0
LINE
  8
BUSHING
 62
     7
  6
CONTINUOUS
 10
14.928069
 20
3.176882
 30
0.000000
 11
15.217931
 21
4.339457
 31
0.000000
  0
CIRCLE
  8
BUSHING
 62
     7
  6
CONTINUOUS
 10
14.928069
 20
3.176882
 30
0.000000
 40
0.703000
  0
CIRCLE
  8
BUSHING
 62
     7
  6
CONTINUOUS
 10
15.098140
 20
3.859000
 30
0.000000
 40
0.089500
  0
CIRCLE
  8
BUSHING
 62
     7
  6
CONTINUOUS
 10
14.331891
 20
3.549415
 30
0.000000
 40
0.089500
  0
CIRCLE
  8
BUSHING
 62
     7
  6
CONTINUOUS
 10
14.389540
 20
2.725002
 30
0.000000
 40
0.089500
  0
CIRCLE
  8
BUSHING
 62
     7
  6
CONTINUOUS
 10
15.191418
 20
2.525071
 30
0.000000
 40
0.089500
  0
CIRCLE
  8
BUSHING
 62
     7
  6
CONTINUOUS
 10
15.629356
 20
3.225921
 30
0.000000
 40
0.089500
  0
POINT
  8
BUSHING
 62
     7
 10
14.928069
 20
2.364382
 30
0.000000
  0
LINE
  8
BUSHING
 62
     7
  6
CONTINUOUS
 10
14.889644
 20
3.988474
 30
0.000000
 11
14.889644
 21
4.113593
 31
0.000000
  0
LINE
  8
BUSHING
 62
     7
  6
CONTINUOUS
 10
14.969644
 20
3.988318
 30
0.000000
 11
14.969644
 21
4.113459
 31
0.000000
  0
ARC
  8
BUSHING
 62
     7
  6
CONTINUOUS
 10
14.928069
 20
3.176882
 30
0.000000
 40
0.937500
 50
92.349058
 51
447.458331
  0
LINE
  8
DIEM
 62
     7
  6
CONTINUOUS
 10
13.995745
 20
3.275254
 30
0.000000
 11
13.870831
 21
3.279895
 31
0.000000
  0
LINE
  8
DIEM
 62
     7
  6
CONTINUOUS
 10
13.995745
 20
3.275254
 30
0.000000
 11
13.937307
 21
3.385753
 31
0.000000
  0
LINE
  8
DIEM
 62
     7
  6
CONTINUOUS
 10
13.995745
 20
3.275254
 30
0.000000
 11
13.705365
 21
3.457605
 31
0.000000
  0
LINE
  8
DIEM
 62
     7
  6
CONTINUOUS
 10
13.705365
 20
3.457605
 30
0.000000
 11
13.205365
 21
3.457605
 31
0.000000
  0
TEXT
  8
DIEM
 62
     7
 10
11.352884
 20
3.395105
 30
0.000000
 40
0.125000
  1
BUSHING HOLE DETAIL
  0
LINE
  8
DIEM
 62
     7
  6
CONTINUOUS
 10
16.220748
 20
3.267275
 30
0.000000
 11
16.150849
 21
3.370905
 31
0.000000
  0
LINE
  8
DIEM
 62
     7
  6
CONTINUOUS
 10
16.220748
 20
3.267275
 30
0.000000
 11
16.275544
 21
3.379624
 31
0.000000
  0
LINE
  8
DIEM
 62
     7
  6
CONTINUOUS
 10
15.241559
 20
4.434226
 30
0.000000
 11
15.361717
 21
4.468680
 31
0.000000
  0
LINE
  8
DIEM
 62
     7
  6
CONTINUOUS
 10
15.241559
 20
4.434226
 30
0.000000
 11
15.331477
 21
4.347393
 31
0.000000
  0
LINE
  8
DIEM
 62
     7
  6
CONTINUOUS
 10
15.691704
 20
3.230280
 30
0.000000
 11
16.470139
 21
3.284714
 31
0.000000
  0
LINE
  8
DIEM
 62
     7
  6
CONTINUOUS
 10
15.113260
 20
3.919644
 30
0.000000
 11
15.302039
 21
4.676800
 31
0.000000
  0
TEXT
  8
DIEM
 62
     7
 10
15.804488
 20
3.947242
 30
0.000000
 40
0.125000
  1
72
  0
ARC
  8
DIEM
 62
     7
  6
CONTINUOUS
 10
14.928069
 20
3.176882
 30
0.000000
 40
1.295835
 50
4.000008
 51
34.776297
  0
ARC
  8
DIEM
 62
     7
  6
CONTINUOUS
 10
14.928069
 20
3.176882
 30
0.000000
 40
1.295835
 50
45.659767
 51
76.000045
  0
LINE
  8
DIEM
 62
     7
  6
CONTINUOUS
 10
15.420656
 20
1.957686
 30
0.000000
 11
15.497614
 21
2.056187
 31
0.000000
  0
LINE
  8
DIEM
 62
     7
  6
CONTINUOUS
 10
15.420656
 20
1.957686
 30
0.000000
 11
15.544440
 21
1.940289
 31
0.000000
  0
LINE
  8
DIEM
 62
     7
  6
CONTINUOUS
 10
16.239811
 20
3.268608
 30
0.000000
 11
16.309710
 21
3.164978
 31
0.000000
  0
LINE
  8
DIEM
 62
     7
  6
CONTINUOUS
 10
16.239811
 20
3.268608
 30
0.000000
 11
16.185015
 21
3.156259
 31
0.000000
  0
LINE
  8
DIEM
 62
     7
  6
CONTINUOUS
 10
15.214831
 20
2.467122
 30
0.000000
 11
15.514308
 21
1.725890
 31
0.000000
  0
LINE
  8
DIEM
 62
     7
  6
CONTINUOUS
 10
15.691704
 20
3.230280
 30
0.000000
 11
16.489202
 21
3.286047
 31
0.000000
  0
TEXT
  8
DIEM
 62
     7
 10
15.926957
 20
2.417480
 30
0.000000
 40
0.125000
  1
72
  0
ARC
  8
DIEM
 62
     7
  6
CONTINUOUS
 10
14.928069
 20
3.176882
 30
0.000000
 40
1.314945
 50
292.000006
 51
323.038306
  0
ARC
  8
DIEM
 62
     7
  6
CONTINUOUS
 10
14.928069
 20
3.176882
 30
0.000000
 40
1.314945
 50
332.705944
 51
364.000008
  0
LINE
  8
DIEM
 62
     7
  6
CONTINUOUS
 10
13.921701
 20
2.332438
 30
0.000000
 11
14.039162
 21
2.289685
 31
0.000000
  0
LINE
  8
DIEM
 62
     7
  6
CONTINUOUS
 10
13.921701
 20
2.332438
 30
0.000000
 11
13.943407
 21
2.209337
 31
0.000000
  0
LINE
  8
DIEM
 62
     7
  6
CONTINUOUS
 10
15.420198
 20
1.958821
 30
0.000000
 11
15.343240
 21
1.860320
 31
0.000000
  0
LINE
  8
DIEM
 62
     7
  6
CONTINUOUS
 10
15.420198
 20
1.958821
 30
0.000000
 11
15.296414
 21
1.976218
 31
0.000000
  0
LINE
  8
DIEM
 62
     7
  6
CONTINUOUS
 10
14.341662
 20
2.684828
 30
0.000000
 11
13.730189
 21
2.171741
 31
0.000000
  0
LINE
  8
DIEM
 62
     7
  6
CONTINUOUS
 10
15.214831
 20
2.467122
 30
0.000000
 11
15.513849
 21
1.727025
 31
0.000000
  0
TEXT
  8
DIEM
 62
     7
 10
14.494003
 20
1.839597
 30
0.000000
 40
0.125000
  1
72
  0
ARC
  8
DIEM
 62
     7
  6
CONTINUOUS
 10
14.928069
 20
3.176882
 30
0.000000
 40
1.313721
 50
220.000010
 51
249.255766
  0
ARC
  8
DIEM
 62
     7
  6
CONTINUOUS
 10
14.928069
 20
3.176882
 30
0.000000
 40
1.313721
 50
262.550830
 51
292.000006
  0
LINE
  8
DIEM
 62
     7
  6
CONTINUOUS
 10
14.928069
 20
1.743011
 30
0.000000
 11
15.036322
 21
1.805511
 31
0.000000
  0
LINE
  8
DIEM
 62
     7
  6
CONTINUOUS
 10
14.928069
 20
1.743011
 30
0.000000
 11
15.036322
 21
1.680511
 31
0.000000
  0
LINE
  8
DIEM
 62
     7
  6
CONTINUOUS
 10
15.465207
 20
1.847420
 30
0.000000
 11
15.388249
 21
1.748918
 31
0.000000
  0
LINE
  8
DIEM
 62
     7
  6
CONTINUOUS
 10
15.465207
 20
1.847420
 30
0.000000
 11
15.341423
 21
1.864816
 31
0.000000
  0
LINE
  8
DIEM
 62
     7
  6
CONTINUOUS
 10
14.928069
 20
2.301882
 30
0.000000
 11
14.928069
 21
1.493011
 31
0.000000
  0
LINE
  8
DIEM
 62
     7
  6
CONTINUOUS
 10
15.214831
 20
2.467122
 30
0.000000
 11
15.558859
 21
1.615624
 31
0.000000
  0
TEXT
  8
DIEM
 62
     7
 10
15.087046
 20
1.706768
 30
0.000000
 40
0.125000
  1
22
  0
ARC
  8
DIEM
 62
     7
  6
CONTINUOUS
 10
14.928069
 20
3.176882
 30
0.000000
 40
1.433871
 50
270.000000
 51
275.110572
  0
ARC
  8
DIEM
 62
     7
  6
CONTINUOUS
 10
14.928069
 20
3.176882
 30
0.000000
 40
1.433871
 50
287.010084
 51
292.000006
  0
LINE
  8
DIEM
 62
     7
  6
CONTINUOUS
 10
15.197234
 20
4.256446
 30
0.000000
 11
15.317391
 21
4.290901
 31
0.000000
  0
LINE
  8
DIEM
 62
     7
  6
CONTINUOUS
 10
15.197234
 20
4.256446
 30
0.000000
 11
15.287151
 21
4.169614
 31
0.000000
  0
LINE
  8
DIEM
 62
     7
  6
CONTINUOUS
 10
14.928069
 20
4.289495
 30
0.000000
 11
14.819816
 21
4.226995
 31
0.000000
  0
LINE
  8
DIEM
 62
     7
  6
CONTINUOUS
 10
14.928069
 20
4.289495
 30
0.000000
 11
14.819816
 21
4.351995
 31
0.000000
  0
LINE
  8
DIEM
 62
     7
  6
CONTINUOUS
 10
15.113260
 20
3.919644
 30
0.000000
 11
15.257714
 21
4.499020
 31
0.000000
  0
LINE
  8
DIEM
 62
     7
  6
CONTINUOUS
 10
14.928069
 20
3.239382
 30
0.000000
 11
14.928069
 21
4.539495
 31
0.000000
  0
TEXT
  8
DIEM
 62
     7
 10
14.972928
 20
4.218702
 30
0.000000
 40
0.125000
  1
14
  0
ARC
  8
DIEM
 62
     7
  6
CONTINUOUS
 10
14.928069
 20
3.176882
 30
0.000000
 40
1.112613
 50
63.125901
 51
76.000045
  0
ARC
  8
DIEM
 62
     7
  6
CONTINUOUS
 10
14.928069
 20
3.176882
 30
0.000000
 40
1.112613
 50
90.000000
 51
102.874145
  0
LINE
  8
DIEM
 62
     7
  6
CONTINUOUS
 10
16.714268
 20
3.176882
 30
0.000000
 11
13.326650
 21
3.176882
 31
0.000000
  0
LINE
  8
HUB
 62
     7
  6
CONTINUOUS
 10
11.459496
 20
6.346693
 30
0.000000
 11
11.529540
 21
6.243161
 31
0.000000
  0
LINE
  8
HUB
 62
     7
  6
CONTINUOUS
 10
11.459496
 20
6.346693
 30
0.000000
 11
11.404857
 21
6.234267
 31
0.000000
  0
LINE
  8
HUB
 62
     7
  6
CONTINUOUS
 10
11.459496
 20
6.346693
 30
0.000000
 11
11.642812
 21
3.776711
 31
0.000000
  0
LINE
  8
HUB
 62
     7
  6
CONTINUOUS
 10
11.642812
 20
3.776711
 30
0.000000
 11
12.142812
 21
3.776711
 31
0.000000
  0
TEXT
  8
HUB
 62
     7
 10
12.205312
 20
3.714211
 30
0.000000
 40
0.125000
  1
BORE TO SUIT BUSHING
  0
LINE
  8
BUSHING
 62
     7
  6
CONTINUOUS
 10
14.379992
 20
4.654747
 30
0.000000
 11
14.333744
 21
4.538617
 31
0.000000
  0
LINE
  8
BUSHING
 62
     7
  6
CONTINUOUS
 10
14.379992
 20
4.654747
 30
0.000000
 11
14.256297
 21
4.636734
 31
0.000000
  0
LINE
  8
BUSHING
 62
     7
  6
CONTINUOUS
 10
14.379992
 20
4.654747
 30
0.000000
 11
13.655524
 21
4.082902
 31
0.000000
  0
LINE
  8
BUSHING
 62
     7
  6
CONTINUOUS
 10
13.655524
 20
4.082902
 30
0.000000
 11
13.530524
 21
4.082902
 31
0.000000
  0
TEXT
  8
BUSHING
 62
     7
 10
12.516839
 20
4.020403
 30
0.000000
 40
0.125000
  1
2.500TPF
  0
LINE
  8
DIEM
 62
     7
  6
CONTINUOUS
 10
1.837272
 20
9.889036
 30
0.000000
 11
1.774772
 21
9.889036
 31
0.000000
  0
LINE
  8
DIEM
 62
     7
  6
CONTINUOUS
 10
1.873127
 20
9.682563
 30
0.000000
 11
1.793027
 21
9.778527
 31
0.000000
  0
LINE
  8
DIEM
 62
     7
  6
CONTINUOUS
 10
1.873127
 20
9.682563
 30
0.000000
 11
1.916184
 21
9.799914
 31
0.000000
  0
LINE
  8
DIEM
 62
     7
  6
CONTINUOUS
 10
3.327461
 20
1.307910
 30
0.000000
 11
3.407561
 21
1.211947
 31
0.000000
  0
LINE
  8
DIEM
 62
     7
  6
CONTINUOUS
 10
3.327461
 20
1.307910
 30
0.000000
 11
3.284404
 21
1.190560
 31
0.000000
  0
TEXT
  8
DIEM
 62
     7
 10
0.785118
 20
9.825987
 30
0.000000
 40
0.125000
  1
8.500"
  0
TEXT
  8
DIEM
 62
     7
 10
1.268870
 20
9.920286
 30
0.000000
 40
0.125000
  1
+.000"
  0
TEXT
  8
DIEM
 62
     7
 10
1.268870
 20
9.731689
 30
0.000000
 40
0.125000
  1
-.002"
  0
LINE
  8
DIEM
 62
     7
  6
CONTINUOUS
 10
3.327461
 20
1.307910
 30
0.000000
 11
1.837272
 21
9.889036
 31
0.000000
  0
LINE
  8
BUSHING
 62
     7
  6
CONTINUOUS
 10
16.256527
 20
4.557734
 30
0.000000
 11
16.194027
 21
4.665987
 31
0.000000
  0
LINE
  8
BUSHING
 62
     7
  6
CONTINUOUS
 10
16.256527
 20
4.557734
 30
0.000000
 11
16.319027
 21
4.665987
 31
0.000000
  0
LINE
  8
BUSHING
 62
     7
  6
CONTINUOUS
 10
16.256527
 20
6.432734
 30
0.000000
 11
16.319027
 21
6.324480
 31
0.000000
  0
LINE
  8
BUSHING
 62
     7
  6
CONTINUOUS
 10
16.256527
 20
6.432734
 30
0.000000
 11
16.194027
 21
6.324480
 31
0.000000
  0
LINE
  8
BUSHING
 62
     7
  6
CONTINUOUS
 10
15.462745
 20
4.557734
 30
0.000000
 11
16.506527
 21
4.557734
 31
0.000000
  0
LINE
  8
BUSHING
 62
     7
  6
CONTINUOUS
 10
15.462745
 20
6.432734
 30
0.000000
 11
16.506527
 21
6.432734
 31
0.000000
  0
TEXT
  8
BUSHING
 62
     7
 10
15.879078
 20
5.619098
 30
0.000000
 40
0.125000
  1
1 7/8"
  0
LINE
  8
BUSHING
 62
     7
  6
CONTINUOUS
 10
16.256527
 20
4.557734
 30
0.000000
 11
16.256527
 21
5.587848
 31
0.000000
  0
LINE
  8
BUSHING
 62
     7
  6
CONTINUOUS
 10
16.256527
 20
5.776164
 30
0.000000
 11
16.256527
 21
6.432734
 31
0.000000
  0
LINE
  8
DIEM
 62
     7
  6
CONTINUOUS
 10
10.496271
 20
5.932732
 30
0.000000
 11
10.516018
 21
5.809302
 31
0.000000
  0
LINE
  8
DIEM
 62
     7
  6
CONTINUOUS
 10
10.496271
 20
5.932732
 30
0.000000
 11
10.399251
 21
5.853915
 31
0.000000
  0
LINE
  8
DIEM
 62
     7
  6
CONTINUOUS
 10
10.496271
 20
5.932732
 30
0.000000
 11
9.424283
 21
3.127005
 31
0.000000
  0
LINE
  8
DIEM
 62
     7
  6
CONTINUOUS
 10
9.424283
 20
3.127005
 30
0.000000
 11
9.924283
 21
3.127005
 31
0.000000
  0
TEXT
  8
DIEM
 62
     7
 10
9.986783
 20
3.064505
 30
0.000000
 40
0.125000
  1
BORE TO SUIT PILOT BEARING
  0
LINE
  8
HUB
 62
     7
  6
CONTINUOUS
 10
10.631915
 20
5.057732
 30
0.000000
 11
10.569415
 21
5.165985
 31
0.000000
  0
LINE
  8
HUB
 62
     7
  6
CONTINUOUS
 10
10.631915
 20
5.057732
 30
0.000000
 11
10.694415
 21
5.165985
 31
0.000000
  0
LINE
  8
HUB
 62
     7
  6
CONTINUOUS
 10
10.631915
 20
5.932732
 30
0.000000
 11
10.694415
 21
5.824479
 31
0.000000
  0
LINE
  8
HUB
 62
     7
  6
CONTINUOUS
 10
10.631915
 20
5.932732
 30
0.000000
 11
10.569415
 21
5.824479
 31
0.000000
  0
LINE
  8
HUB
 62
     7
  6
CONTINUOUS
 10
10.340588
 20
5.057732
 30
0.000000
 11
10.881915
 21
5.057732
 31
0.000000
  0
LINE
  8
HUB
 62
     7
  6
CONTINUOUS
 10
10.340630
 20
5.932732
 30
0.000000
 11
10.881915
 21
5.932732
 31
0.000000
  0
TEXT
  8
HUB
 62
     7
 10
10.454194
 20
5.564242
 30
0.000000
 40
0.125000
  1
.827"
  0
LINE
  8
HUB
 62
     7
  6
CONTINUOUS
 10
10.631915
 20
5.057732
 30
0.000000
 11
10.631915
 21
5.532992
 31
0.000000
  0
LINE
  8
HUB
 62
     7
  6
CONTINUOUS
 10
10.631915
 20
5.721309
 30
0.000000
 11
10.631915
 21
5.932732
 31
0.000000
  0
LINE
  8
HUB
 62
     7
  6
CONTINUOUS
 10
1.351844
 20
5.354217
 30
0.000000
 11
1.289344
 21
5.354217
 31
0.000000
  0
LINE
  8
HUB
 62
     7
  6
CONTINUOUS
 10
2.165559
 20
5.446129
 30
0.000000
 11
2.065004
 21
5.371874
 31
0.000000
  0
LINE
  8
HUB
 62
     7
  6
CONTINUOUS
 10
2.165559
 20
5.446129
 30
0.000000
 11
2.050974
 21
5.496084
 31
0.000000
  0
LINE
  8
HUB
 62
     7
  6
CONTINUOUS
 10
3.035030
 20
5.544338
 30
0.000000
 11
3.135584
 21
5.618594
 31
0.000000
  0
LINE
  8
HUB
 62
     7
  6
CONTINUOUS
 10
3.035030
 20
5.544338
 30
0.000000
 11
3.149614
 21
5.494383
 31
0.000000
  0
TEXT
  8
HUB
 62
     7
 10
0.902652
 20
5.291310
 30
0.000000
 40
0.125000
  1
.827"
  0
LINE
  8
HUB
 62
     7
  6
CONTINUOUS
 10
3.035030
 20
5.544338
 30
0.000000
 11
1.351844
 21
5.354217
 31
0.000000
  0
TEXT
  8
FLYWHEEL
 62
     7
 10
11.482849
 20
10.686694
 30
0.000000
 40
0.125000
  1
ELECTRO AUTOMOTIVE
  0
TEXT
  8
FLYWHEEL
 62
     7
 10
11.482849
 20
10.499194
 30
0.000000
 40
0.125000
  1
P.O. BOX 1113 FELTON CA. 95018-1113
  0
TEXT
  8
FLYWHEEL
 62
     7
 10
11.482849
 20
10.311694
 30
0.000000
 40
0.125000
  1
PHONE 408-429-1989 FAX 408-429-1907
  0
TEXT
  8
FLYWHEEL
 62
     7
 10
11.482849
 20
10.124195
 30
0.000000
 40
0.125000
  1
DRAWN BY MICHAEL P. BROWN
  0
LINE
  8
FLYWHEEL
 62
     7
  6
CONTINUOUS
 10
11.350103
 20
10.924190
 30
0.000000
 11
14.916554
 21
10.924190
 31
0.000000
  0
LINE
  8
FLYWHEEL
 62
     7
  6
CONTINUOUS
 10
14.916554
 20
10.924190
 30
0.000000
 11
14.916554
 21
10.024205
 31
0.000000
  0
LINE
  8
FLYWHEEL
 62
     7
  6
CONTINUOUS
 10
14.916554
 20
10.024205
 30
0.000000
 11
11.350103
 21
10.024205
 31
0.000000
  0
LINE
  8
FLYWHEEL
 62
     7
  6
CONTINUOUS
 10
11.350103
 20
10.024205
 30
0.000000
 11
11.350103
 21
10.924190
 31
0.000000
  0
TEXT
  8
DIEM
 62
     7
 10
11.346463
 20
9.620209
 30
0.000000
 40
0.125000
  1
9" RING
  0
TEXT
  8
DIEM
 62
     7
 10
11.346463
 20
9.245209
 30
0.000000
 40
0.125000
  1
NOTE A--DRILL 11/64" TAP 10-24 x 1" DEEP.
  0
TEXT
  8
DIEM
 62
     7
 10
11.346463
 20
9.019388
 30
0.000000
 40
0.125000
  1
NOTE B-- DRILL 13/64" COUNTER BORE 23/64"
  0
TEXT
  8
DIEM
 62
     7
 10
11.346463
 20
8.831888
 30
0.000000
 40
0.125000
  1
x 3/16" DEEP
  0
TEXT
  8
DIEM
 62
     7
 10
11.358670
 20
8.605287
 30
0.000000
 40
0.125000
  1
NOTE C--DRILL 13/32", TAP 12x1.5MM 11/16" DEEP
  0
TEXT
  8
DIEM
 62
     7
 10
11.358670
 20
8.230287
 30
0.000000
 40
0.125000
  1
1/2-13 FLAT HEAD BOLT
  0
TEXT
  8
DIEM
 62
     7
 10
11.358670
 20
8.417787
 30
0.000000
 40
0.125000
  1
NOTE D--DRILL 17/32", COUNTERSINK TO SUIT
  0
TEXT
  8
DIEM
 62
     7
 10
11.361486
 20
7.794790
 30
0.000000
 40
0.125000
  1
SCREWS FOR RING TO MOTOR ASSEMBLY
  0
TEXT
  8
DIEM
 62
     7
 10
11.346463
 20
9.807709
 30
0.000000
 40
0.125000
  1
72 UP VW BUS ADAPTOR WITH NON-STANDARD
  0
TEXT
  8
DIEM
 62
     7
 10
11.361486
 20
7.982289
 30
0.000000
 40
0.125000
  1
NOTE B-- SUPPLY 4 3/8-16 x 2 3//4"  ALLEN HEAD CAP 
  0
ENDSEC
  0
EOF
