  0
SECTION
  2
HEADER
  9
$ACADVER
  1
AC1006
  0
ENDSEC
  0
SECTION
  2
TABLES
  0
TABLE
  2
LTYPE
 70
    25
  0
LTYPE
  2
CONTINUOUS
 70
    64
  3
Solid line
 72
    64
 73
     0
 40
0.000000
  0
LTYPE
  2
DASHDOT
 70
    64
  3
__ . __ . __ . __ . __ . __ . __ . __ . __ . __
 72
    65
 73
     4
 40
1.000000
 49
0.500000
 49
-0.250000
 49
0.000000
 49
-0.250000
  0
LTYPE
  2
DASHED
 70
    64
  3
__ __ __ __ __ __ __ __ __ __ __ __ __ __ __ __
 72
    65
 73
     2
 40
0.750000
 49
0.500000
 49
-0.250000
  0
LTYPE
  2
DIVIDE
 70
    64
  3
____ . . ____ . . ____ . . ____ . . ____ . . __
 72
    65
 73
     6
 40
1.250000
 49
0.500000
 49
-0.250000
 49
0.000000
 49
-0.250000
 49
0.000000
 49
-0.250000
  0
LTYPE
  2
DOT
 70
    64
  3
. . . . . . . . . . . . . . . . . . . . . . . . 
 72
    65
 73
     2
 40
0.250000
 49
0.000000
 49
-0.250000
  0
ENDTAB
  0
ENDSEC
  0
SECTION
  2
ENTITIES
  0
LINE
  8
CENTRLIN
 62
     7
  6
CONTINUOUS
 10
16.523136
 20
5.119659
 30
0.000000
 11
0.423134
 21
5.119659
 31
0.000000
  0
POINT
  8
BUSHING
 62
     7
 10
13.734226
 20
5.119659
 30
0.000000
  0
POINT
  8
BUSHING
 62
     7
 10
13.734226
 20
5.119659
 30
0.000000
  0
LINE
  8
BUSHING
 62
     7
  6
CONTINUOUS
 10
13.734226
 20
5.119659
 30
0.000000
 11
13.734226
 21
4.307159
 31
0.000000
  0
POINT
  8
BUSHING
 62
     7
 10
14.859547
 20
5.822767
 30
0.000000
  0
POINT
  8
BUSHING
 62
     7
 10
14.859547
 20
5.822767
 30
0.000000
  0
POINT
  8
BUSHING
 62
     7
 10
14.859554
 20
5.822767
 30
0.000000
  0
POINT
  8
BUSHING
 62
     7
 10
14.859554
 20
5.822767
 30
0.000000
  0
POINT
  8
BUSHING
 62
     7
 10
13.733086
 20
5.823687
 30
0.000000
  0
POINT
  8
BUSHING
 62
     7
 10
13.858086
 20
5.823687
 30
0.000000
  0
POINT
  8
BUSHING
 62
     7
 10
13.983086
 20
5.823687
 30
0.000000
  0
POINT
  8
BUSHING
 62
     7
 10
13.983086
 20
5.823687
 30
0.000000
  0
LINE
  8
BUSHING
 62
     7
  6
CONTINUOUS
 10
13.858086
 20
5.823687
 30
0.000000
 11
13.858086
 21
5.878388
 31
0.000000
  0
LINE
  8
BUSHING
 62
     7
  6
CONTINUOUS
 10
13.858086
 20
5.823687
 30
0.000000
 11
13.858086
 21
5.768988
 31
0.000000
  0
LINE
  8
BUSHING
 62
     7
  6
CONTINUOUS
 10
13.983086
 20
5.823687
 30
0.000000
 11
13.983086
 21
5.910074
 31
0.000000
  0
LINE
  8
BUSHING
 62
     7
  6
CONTINUOUS
 10
13.983086
 20
5.823687
 30
0.000000
 11
13.983086
 21
5.737301
 31
0.000000
  0
POINT
  8
BUSHING
 62
     7
 10
14.233086
 20
5.823687
 30
0.000000
  0
POINT
  8
BUSHING
 62
     7
 10
14.108086
 20
5.823687
 30
0.000000
  0
POINT
  8
BUSHING
 62
     7
 10
14.108086
 20
5.823687
 30
0.000000
  0
LINE
  8
BUSHING
 62
     7
  6
CONTINUOUS
 10
14.108086
 20
5.823687
 30
0.000000
 11
14.108086
 21
5.878388
 31
0.000000
  0
LINE
  8
BUSHING
 62
     7
  6
CONTINUOUS
 10
14.108086
 20
5.823687
 30
0.000000
 11
14.108086
 21
5.768988
 31
0.000000
  0
POINT
  8
BUSHING
 62
     7
 10
14.358086
 20
5.823687
 30
0.000000
  0
LINE
  8
BUSHING
 62
     7
  6
CONTINUOUS
 10
14.358086
 20
5.823687
 30
0.000000
 11
14.358086
 21
5.878388
 31
0.000000
  0
LINE
  8
BUSHING
 62
     7
  6
CONTINUOUS
 10
14.358086
 20
5.823687
 30
0.000000
 11
14.358086
 21
5.768988
 31
0.000000
  0
POINT
  8
BUSHING
 62
     7
 10
14.608086
 20
5.823687
 30
0.000000
  0
LINE
  8
BUSHING
 62
     7
  6
CONTINUOUS
 10
14.608086
 20
5.823687
 30
0.000000
 11
14.608086
 21
5.878388
 31
0.000000
  0
LINE
  8
BUSHING
 62
     7
  6
CONTINUOUS
 10
14.608086
 20
5.823687
 30
0.000000
 11
14.608086
 21
5.768988
 31
0.000000
  0
POINT
  8
BUSHING
 62
     7
 10
14.858086
 20
5.823687
 30
0.000000
  0
LINE
  8
BUSHING
 62
     7
  6
CONTINUOUS
 10
14.858086
 20
5.823687
 30
0.000000
 11
14.858086
 21
5.878388
 31
0.000000
  0
LINE
  8
BUSHING
 62
     7
  6
CONTINUOUS
 10
14.858086
 20
5.823687
 30
0.000000
 11
14.858086
 21
5.768988
 31
0.000000
  0
POINT
  8
BUSHING
 62
     7
 10
14.233086
 20
5.823687
 30
0.000000
  0
POINT
  8
BUSHING
 62
     7
 10
14.233086
 20
5.823687
 30
0.000000
  0
LINE
  8
BUSHING
 62
     7
  6
CONTINUOUS
 10
14.233086
 20
5.823687
 30
0.000000
 11
14.233086
 21
5.910074
 31
0.000000
  0
LINE
  8
BUSHING
 62
     7
  6
CONTINUOUS
 10
14.233086
 20
5.823687
 30
0.000000
 11
14.233086
 21
5.737301
 31
0.000000
  0
POINT
  8
BUSHING
 62
     7
 10
14.483086
 20
5.823687
 30
0.000000
  0
POINT
  8
BUSHING
 62
     7
 10
14.483086
 20
5.823687
 30
0.000000
  0
LINE
  8
BUSHING
 62
     7
  6
CONTINUOUS
 10
14.483086
 20
5.823687
 30
0.000000
 11
14.483086
 21
5.910074
 31
0.000000
  0
LINE
  8
BUSHING
 62
     7
  6
CONTINUOUS
 10
14.483086
 20
5.823687
 30
0.000000
 11
14.483086
 21
5.737301
 31
0.000000
  0
POINT
  8
BUSHING
 62
     7
 10
14.733086
 20
5.823687
 30
0.000000
  0
POINT
  8
BUSHING
 62
     7
 10
14.733086
 20
5.823687
 30
0.000000
  0
LINE
  8
BUSHING
 62
     7
  6
CONTINUOUS
 10
14.733086
 20
5.823687
 30
0.000000
 11
14.733086
 21
5.910074
 31
0.000000
  0
LINE
  8
BUSHING
 62
     7
  6
CONTINUOUS
 10
14.733086
 20
5.823687
 30
0.000000
 11
14.733086
 21
5.737301
 31
0.000000
  0
POINT
  8
BUSHING
 62
     7
 10
13.734226
 20
5.119659
 30
0.000000
  0
LINE
  8
BUSHING
 62
     7
  6
CONTINUOUS
 10
13.734226
 20
5.932159
 30
0.000000
 11
13.734226
 21
5.119659
 31
0.000000
  0
LINE
  8
BUSHING
 62
     7
  6
CONTINUOUS
 10
14.984226
 20
5.119659
 30
0.000000
 11
14.984226
 21
6.057159
 31
0.000000
  0
LINE
  8
BUSHING
 62
     7
  6
CONTINUOUS
 10
14.984226
 20
5.119659
 30
0.000000
 11
14.984226
 21
4.182159
 31
0.000000
  0
LINE
  8
BUSHING
 62
     7
  6
CONTINUOUS
 10
13.734226
 20
5.682151
 30
0.000000
 11
14.984226
 21
5.682151
 31
0.000000
  0
LINE
  8
BUSHING
 62
     7
  6
CONTINUOUS
 10
13.734226
 20
5.736818
 30
0.000000
 11
14.984226
 21
5.736818
 31
0.000000
  0
LINE
  8
BUSHING
 62
     7
  6
CONTINUOUS
 10
13.736733
 20
4.557168
 30
0.000000
 11
14.984226
 21
4.557168
 31
0.000000
  0
LINE
  8
BUSHING
 62
     7
  6
CONTINUOUS
 10
13.734226
 20
4.307159
 30
0.000000
 11
14.984226
 21
4.182159
 31
0.000000
  0
LINE
  8
BUSHING
 62
     7
  6
CONTINUOUS
 10
13.734226
 20
5.932159
 30
0.000000
 11
14.984226
 21
6.057159
 31
0.000000
  0
LINE
  8
BUSHING
 62
     7
  6
CONTINUOUS
 10
13.734226
 20
5.908718
 30
0.000000
 11
14.984226
 21
5.908718
 31
0.000000
  0
LINE
  8
BUSHING
 62
     7
  6
CONTINUOUS
 10
13.733086
 20
5.823687
 30
0.000000
 11
14.984226
 21
5.823687
 31
0.000000
  0
LINE
  8
BUSHING
 62
     7
  6
CONTINUOUS
 10
13.734226
 20
6.464434
 30
0.000000
 11
13.842480
 21
6.526934
 31
0.000000
  0
LINE
  8
BUSHING
 62
     7
  6
CONTINUOUS
 10
13.734226
 20
6.464434
 30
0.000000
 11
13.842480
 21
6.401934
 31
0.000000
  0
LINE
  8
BUSHING
 62
     7
  6
CONTINUOUS
 10
14.984226
 20
6.464434
 30
0.000000
 11
14.875973
 21
6.401934
 31
0.000000
  0
LINE
  8
BUSHING
 62
     7
  6
CONTINUOUS
 10
14.984226
 20
6.464434
 30
0.000000
 11
14.875973
 21
6.526934
 31
0.000000
  0
LINE
  8
BUSHING
 62
     7
  6
CONTINUOUS
 10
13.734226
 20
5.994659
 30
0.000000
 11
13.734226
 21
6.714434
 31
0.000000
  0
LINE
  8
BUSHING
 62
     7
  6
CONTINUOUS
 10
14.984226
 20
6.119659
 30
0.000000
 11
14.984226
 21
6.714434
 31
0.000000
  0
TEXT
  8
BUSHING
 62
     7
 10
13.983790
 20
6.401862
 30
0.000000
 40
0.125000
  1
1 1/4"
  0
LINE
  8
BUSHING
 62
     7
  6
CONTINUOUS
 10
13.734226
 20
6.464434
 30
0.000000
 11
13.952540
 21
6.464434
 31
0.000000
  0
LINE
  8
BUSHING
 62
     7
  6
CONTINUOUS
 10
14.765912
 20
6.464434
 30
0.000000
 11
14.984226
 21
6.464434
 31
0.000000
  0
LINE
  8
BUSHING
 62
     7
  6
CONTINUOUS
 10
13.263128
 20
4.307159
 30
0.000000
 11
13.200628
 21
4.415413
 31
0.000000
  0
LINE
  8
BUSHING
 62
     7
  6
CONTINUOUS
 10
13.263128
 20
4.307159
 30
0.000000
 11
13.325628
 21
4.415413
 31
0.000000
  0
LINE
  8
BUSHING
 62
     7
  6
CONTINUOUS
 10
13.263128
 20
5.932159
 30
0.000000
 11
13.325628
 21
5.823906
 31
0.000000
  0
LINE
  8
BUSHING
 62
     7
  6
CONTINUOUS
 10
13.263128
 20
5.932159
 30
0.000000
 11
13.200628
 21
5.823906
 31
0.000000
  0
LINE
  8
BUSHING
 62
     7
  6
CONTINUOUS
 10
13.671726
 20
4.307159
 30
0.000000
 11
13.013128
 21
4.307159
 31
0.000000
  0
LINE
  8
BUSHING
 62
     7
  6
CONTINUOUS
 10
13.671726
 20
5.932159
 30
0.000000
 11
13.013128
 21
5.932159
 31
0.000000
  0
TEXT
  8
BUSHING
 62
     7
 10
12.884979
 20
5.280763
 30
0.000000
 40
0.125000
  1
1 5/8"
  0
LINE
  8
BUSHING
 62
     7
  6
CONTINUOUS
 10
13.263128
 20
4.307159
 30
0.000000
 11
13.263128
 21
5.249513
 31
0.000000
  0
LINE
  8
BUSHING
 62
     7
  6
CONTINUOUS
 10
13.263128
 20
5.438062
 30
0.000000
 11
13.263128
 21
5.932159
 31
0.000000
  0
LINE
  8
BUSHING
 62
     7
  6
CONTINUOUS
 10
15.431782
 20
4.557168
 30
0.000000
 11
15.369282
 21
4.665421
 31
0.000000
  0
LINE
  8
BUSHING
 62
     7
  6
CONTINUOUS
 10
15.431782
 20
4.557168
 30
0.000000
 11
15.494282
 21
4.665421
 31
0.000000
  0
LINE
  8
BUSHING
 62
     7
  6
CONTINUOUS
 10
15.431782
 20
5.682151
 30
0.000000
 11
15.494282
 21
5.573898
 31
0.000000
  0
LINE
  8
BUSHING
 62
     7
  6
CONTINUOUS
 10
15.431782
 20
5.682151
 30
0.000000
 11
15.369282
 21
5.573898
 31
0.000000
  0
LINE
  8
BUSHING
 62
     7
  6
CONTINUOUS
 10
15.046726
 20
4.557168
 30
0.000000
 11
15.681782
 21
4.557168
 31
0.000000
  0
LINE
  8
BUSHING
 62
     7
  6
CONTINUOUS
 10
15.046726
 20
5.682151
 30
0.000000
 11
15.681782
 21
5.682151
 31
0.000000
  0
TEXT
  8
BUSHING
 62
     7
 10
15.054335
 20
4.907330
 30
0.000000
 40
0.125000
  1
1 1/8"
  0
LINE
  8
BUSHING
 62
     7
  6
CONTINUOUS
 10
15.431782
 20
4.557168
 30
0.000000
 11
15.431782
 21
4.876080
 31
0.000000
  0
LINE
  8
BUSHING
 62
     7
  6
CONTINUOUS
 10
15.431782
 20
5.064396
 30
0.000000
 11
15.431782
 21
5.682151
 31
0.000000
  0
LINE
  8
BUSHING
 62
     7
  6
CONTINUOUS
 10
16.026840
 20
4.182159
 30
0.000000
 11
15.964340
 21
4.290413
 31
0.000000
  0
LINE
  8
BUSHING
 62
     7
  6
CONTINUOUS
 10
16.026840
 20
4.182159
 30
0.000000
 11
16.089340
 21
4.290413
 31
0.000000
  0
LINE
  8
BUSHING
 62
     7
  6
CONTINUOUS
 10
16.026840
 20
6.057159
 30
0.000000
 11
16.089340
 21
5.948906
 31
0.000000
  0
LINE
  8
BUSHING
 62
     7
  6
CONTINUOUS
 10
16.026840
 20
6.057159
 30
0.000000
 11
15.964340
 21
5.948906
 31
0.000000
  0
LINE
  8
BUSHING
 62
     7
  6
CONTINUOUS
 10
15.046726
 20
4.182159
 30
0.000000
 11
16.276840
 21
4.182159
 31
0.000000
  0
LINE
  8
BUSHING
 62
     7
  6
CONTINUOUS
 10
15.046726
 20
6.057159
 30
0.000000
 11
16.276840
 21
6.057159
 31
0.000000
  0
TEXT
  8
BUSHING
 62
     7
 10
15.649391
 20
5.243524
 30
0.000000
 40
0.125000
  1
1 7/8"
  0
LINE
  8
BUSHING
 62
     7
  6
CONTINUOUS
 10
16.026840
 20
4.182159
 30
0.000000
 11
16.026840
 21
5.212274
 31
0.000000
  0
LINE
  8
BUSHING
 62
     7
  6
CONTINUOUS
 10
16.026840
 20
5.400590
 30
0.000000
 11
16.026840
 21
6.057159
 31
0.000000
  0
LINE
  8
BUSHING
 62
     7
  6
CONTINUOUS
 10
13.963974
 20
4.279173
 30
0.000000
 11
14.077536
 21
4.226936
 31
0.000000
  0
LINE
  8
BUSHING
 62
     7
  6
CONTINUOUS
 10
13.963974
 20
4.279173
 30
0.000000
 11
13.975516
 21
4.154707
 31
0.000000
  0
LINE
  8
BUSHING
 62
     7
  6
CONTINUOUS
 10
13.963974
 20
4.279173
 30
0.000000
 11
14.466465
 21
3.569429
 31
0.000000
  0
LINE
  8
BUSHING
 62
     7
  6
CONTINUOUS
 10
14.466465
 20
3.569429
 30
0.000000
 11
14.591465
 21
3.569429
 31
0.000000
  0
TEXT
  8
BUSHING
 62
     7
 10
14.653966
 20
3.506930
 30
0.000000
 40
0.125000
  1
2.500TPF
  0
LINE
  8
CENTRLIN
 62
     7
  6
CONTINUOUS
 10
4.423134
 20
10.119658
 30
0.000000
 11
4.423134
 21
0.119659
 31
0.000000
  0
CIRCLE
  8
HUB
 62
     7
  6
CONTINUOUS
 10
4.423134
 20
5.119659
 30
0.000000
 40
1.624998
  0
POINT
  8
HUB
 62
     7
 10
4.423134
 20
5.119659
 30
0.000000
  0
CIRCLE
  8
HUB
 62
     7
  6
CONTINUOUS
 10
4.423134
 20
5.119659
 30
0.000000
 40
1.336000
  0
CIRCLE
  8
HUB
 62
     7
  6
CONTINUOUS
 10
5.503981
 20
5.904941
 30
0.000000
 40
0.212000
  0
CIRCLE
  8
HUB
 62
     7
  6
CONTINUOUS
 10
4.835981
 20
6.390272
 30
0.000000
 40
0.211998
  0
CIRCLE
  8
HUB
 62
     7
  6
CONTINUOUS
 10
4.010287
 20
6.390272
 30
0.000000
 40
0.211998
  0
CIRCLE
  8
HUB
 62
     7
  6
CONTINUOUS
 10
3.342287
 20
5.904941
 30
0.000000
 40
0.212000
  0
CIRCLE
  8
HUB
 62
     7
  6
CONTINUOUS
 10
3.087134
 20
5.119659
 30
0.000000
 40
0.212000
  0
CIRCLE
  8
HUB
 62
     7
  6
CONTINUOUS
 10
3.342287
 20
4.334378
 30
0.000000
 40
0.212000
  0
CIRCLE
  8
HUB
 62
     7
  6
CONTINUOUS
 10
4.010287
 20
3.849048
 30
0.000000
 40
0.212000
  0
CIRCLE
  8
HUB
 62
     7
  6
CONTINUOUS
 10
4.835981
 20
3.849048
 30
0.000000
 40
0.212000
  0
CIRCLE
  8
HUB
 62
     7
  6
CONTINUOUS
 10
5.503981
 20
4.334378
 30
0.000000
 40
0.212000
  0
CIRCLE
  8
HUB
 62
     7
  6
CONTINUOUS
 10
5.683133
 20
5.119659
 30
0.000000
 40
0.212000
  0
CIRCLE
  8
HUB
 62
     7
  6
CONTINUOUS
 10
4.423134
 20
5.119659
 30
0.000000
 40
1.259999
  0
CIRCLE
  8
HUB
 62
     7
  6
CONTINUOUS
 10
4.423134
 20
5.119659
 30
0.000000
 40
0.375000
  0
CIRCLE
  8
HUB
 62
     7
  6
CONTINUOUS
 10
4.423134
 20
5.119659
 30
0.000000
 40
0.703001
  0
CIRCLE
  8
HUB
 62
     7
  6
CONTINUOUS
 10
5.126135
 20
5.119659
 30
0.000000
 40
0.101551
  0
CIRCLE
  8
HUB
 62
     7
  6
CONTINUOUS
 10
5.126135
 20
5.119659
 30
0.000000
 40
0.163998
  0
CIRCLE
  8
HUB
 62
     7
  6
CONTINUOUS
 10
4.774634
 20
5.728476
 30
0.000000
 40
0.101552
  0
CIRCLE
  8
HUB
 62
     7
  6
CONTINUOUS
 10
4.774634
 20
5.728476
 30
0.000000
 40
0.164000
  0
CIRCLE
  8
HUB
 62
     7
  6
CONTINUOUS
 10
4.071634
 20
5.728476
 30
0.000000
 40
0.101551
  0
CIRCLE
  8
HUB
 62
     7
  6
CONTINUOUS
 10
4.071634
 20
5.728476
 30
0.000000
 40
0.163999
  0
CIRCLE
  8
HUB
 62
     7
  6
CONTINUOUS
 10
3.720133
 20
5.119660
 30
0.000000
 40
0.101551
  0
CIRCLE
  8
HUB
 62
     7
  6
CONTINUOUS
 10
3.720133
 20
5.119660
 30
0.000000
 40
0.163998
  0
CIRCLE
  8
HUB
 62
     7
  6
CONTINUOUS
 10
4.071634
 20
4.510844
 30
0.000000
 40
0.101552
  0
CIRCLE
  8
HUB
 62
     7
  6
CONTINUOUS
 10
4.071634
 20
4.510844
 30
0.000000
 40
0.164001
  0
CIRCLE
  8
HUB
 62
     7
  6
CONTINUOUS
 10
4.774634
 20
4.510843
 30
0.000000
 40
0.101551
  0
CIRCLE
  8
HUB
 62
     7
  6
CONTINUOUS
 10
4.774634
 20
4.510843
 30
0.000000
 40
0.163999
  0
ARC
  8
HUB
 62
     7
  6
CONTINUOUS
 10
4.423143
 20
5.119653
 30
0.000000
 40
0.844489
 50
306.167816
 51
353.832340
  0
ARC
  8
HUB
 62
     7
  6
CONTINUOUS
 10
4.423135
 20
5.119662
 30
0.000000
 40
0.844497
 50
6.167860
 51
53.831845
  0
ARC
  8
HUB
 62
     7
  6
CONTINUOUS
 10
4.423133
 20
5.119656
 30
0.000000
 40
0.844503
 50
66.168334
 51
113.831826
  0
ARC
  8
HUB
 62
     7
  6
CONTINUOUS
 10
4.423139
 20
5.119657
 30
0.000000
 40
0.844506
 50
126.168020
 51
173.831982
  0
ARC
  8
HUB
 62
     7
  6
CONTINUOUS
 10
4.423132
 20
5.119668
 30
0.000000
 40
0.844507
 50
246.168399
 51
293.831761
  0
ARC
  8
HUB
 62
     7
  6
CONTINUOUS
 10
4.423136
 20
5.119660
 30
0.000000
 40
0.844503
 50
186.167687
 51
233.831932
  0
POINT
  8
PLATE
 62
     7
 10
4.423134
 20
5.119659
 30
0.000000
  0
POINT
  8
PLATE
 62
     7
 10
4.423134
 20
5.119659
 30
0.000000
  0
POINT
  8
PLATE
 62
     7
 10
4.423134
 20
5.119659
 30
0.000000
  0
POINT
  8
PLATE
 62
     7
 10
4.423134
 20
1.494659
 30
0.000000
  0
CIRCLE
  8
PLATE
 62
     7
  6
CONTINUOUS
 10
4.423134
 20
1.494659
 30
0.000000
 40
0.468500
  0
CIRCLE
  8
PLATE
 62
     7
  6
CONTINUOUS
 10
4.423134
 20
1.494659
 30
0.000000
 40
0.265600
  0
POINT
  8
PLATE
 62
     7
 10
4.423134
 20
8.744658
 30
0.000000
  0
CIRCLE
  8
PLATE
 62
     7
  6
CONTINUOUS
 10
4.423134
 20
8.744658
 30
0.000000
 40
0.468498
  0
CIRCLE
  8
PLATE
 62
     7
  6
CONTINUOUS
 10
4.423134
 20
8.744658
 30
0.000000
 40
0.265598
  0
ARC
  8
PLATE
 62
     7
  6
CONTINUOUS
 10
4.423134
 20
5.119664
 30
0.000000
 40
4.250003
 50
243.222905
 51
297.367487
  0
ARC
  8
PLATE
 62
     7
  6
CONTINUOUS
 10
4.423133
 20
5.119658
 30
0.000000
 40
4.250001
 50
62.710169
 51
117.362873
  0
ARC
  8
PLATE
 62
     7
  6
CONTINUOUS
 10
4.423135
 20
5.119661
 30
0.000000
 40
3.625001
 50
237.948008
 51
302.165965
  0
ARC
  8
PLATE
 62
     7
  6
CONTINUOUS
 10
4.423133
 20
5.119656
 30
0.000000
 40
3.625001
 50
57.923699
 51
122.409016
  0
ARC
  8
PLATE
 62
     7
  6
CONTINUOUS
 10
4.423134
 20
5.119658
 30
0.000000
 40
2.999998
 50
229.512935
 51
309.803001
  0
ARC
  8
PLATE
 62
     7
  6
CONTINUOUS
 10
4.423135
 20
5.119664
 30
0.000000
 40
2.999995
 50
49.189533
 51
130.025564
  0
TEXT
  8
PARTS
 62
     7
 10
12.871364
 20
9.741850
 30
0.000000
 40
0.125000
  1
ELECTRO AUTOMOTIVE
  0
TEXT
  8
PARTS
 62
     7
 10
12.871364
 20
9.554350
 30
0.000000
 40
0.125000
  1
P.O. BOX 1113 FELTON CA. 95018-1113
  0
TEXT
  8
PARTS
 62
     7
 10
12.871364
 20
9.179349
 30
0.000000
 40
0.125000
  1
DRAWN BY MICHAEL P. BROWN
  0
LINE
  8
PARTS
 62
     7
  6
CONTINUOUS
 10
12.738617
 20
9.979345
 30
0.000000
 11
16.305069
 21
9.979345
 31
0.000000
  0
LINE
  8
PARTS
 62
     7
  6
CONTINUOUS
 10
16.305069
 20
9.979345
 30
0.000000
 11
16.305069
 21
9.079360
 31
0.000000
  0
LINE
  8
PARTS
 62
     7
  6
CONTINUOUS
 10
16.305069
 20
9.079360
 30
0.000000
 11
12.738617
 21
9.079360
 31
0.000000
  0
LINE
  8
PARTS
 62
     7
  6
CONTINUOUS
 10
12.738617
 20
9.079360
 30
0.000000
 11
12.738617
 21
9.979345
 31
0.000000
  0
TEXT
  8
PARTS
 62
     7
 10
12.871364
 20
9.366849
 30
0.000000
 40
0.125000
  1
PHONE 831-429-1989 FAX 831-429-1907
  0
TEXT
  8
DIMEN
 62
     7
 10
12.301106
 20
8.821096
 30
0.000000
 40
0.125000
  1
93-99 VW GOLF/JETTA/CABRIO WITH
  0
TEXT
  8
DIMEN
 62
     7
 10
12.301106
 20
8.633597
 30
0.000000
 40
0.125000
  1
A VR6 ENGINE TO AN ADVANCED DC
  0
TEXT
  8
DIMEN
 62
     7
 10
12.301106
 20
8.258596
 30
0.000000
 40
0.125000
  1
HUB DETAIL DRAWING PLOTTED TO SCALE
  0
TEXT
  8
DIMEN
 62
     7
 10
12.301106
 20
8.446097
 30
0.000000
 40
0.125000
  1
9" MOTOR WITH A NON STANDARD 9" RING
  0
LINE
  8
DIMEN
 62
     7
  6
CONTINUOUS
 10
3.341145
 20
6.993727
 30
0.000000
 11
3.278645
 21
6.885474
 31
0.000000
  0
LINE
  8
DIMEN
 62
     7
  6
CONTINUOUS
 10
3.341145
 20
6.993727
 30
0.000000
 11
3.216145
 21
6.993727
 31
0.000000
  0
LINE
  8
DIMEN
 62
     7
  6
CONTINUOUS
 10
2.259150
 20
5.119660
 30
0.000000
 11
2.196650
 21
5.227914
 31
0.000000
  0
LINE
  8
DIMEN
 62
     7
  6
CONTINUOUS
 10
2.259150
 20
5.119660
 30
0.000000
 11
2.321650
 21
5.227914
 31
0.000000
  0
LINE
  8
DIMEN
 62
     7
  6
CONTINUOUS
 10
4.040135
 20
5.783035
 30
0.000000
 11
3.309646
 21
7.048286
 31
0.000000
  0
LINE
  8
DIMEN
 62
     7
  6
CONTINUOUS
 10
3.657133
 20
5.119660
 30
0.000000
 11
2.196150
 21
5.119660
 31
0.000000
  0
TEXT
  8
DIMEN
 62
     7
 10
2.401760
 20
6.138929
 30
0.000000
 40
0.125000
  1
60¦
  0
ARC
  8
DIMEN
 62
     7
  6
CONTINUOUS
 10
4.423132
 20
5.119660
 30
0.000000
 40
2.163982
 50
119.999861
 51
147.074826
  0
ARC
  8
DIMEN
 62
     7
  6
CONTINUOUS
 10
4.423132
 20
5.119660
 30
0.000000
 40
2.163982
 50
152.841165
 51
180.000000
  0
LINE
  8
DIMEN
 62
     7
  6
CONTINUOUS
 10
2.262247
 20
5.119659
 30
0.000000
 11
2.324747
 21
5.011406
 31
0.000000
  0
LINE
  8
DIMEN
 62
     7
  6
CONTINUOUS
 10
2.262247
 20
5.119659
 30
0.000000
 11
2.199747
 21
5.011406
 31
0.000000
  0
LINE
  8
DIMEN
 62
     7
  6
CONTINUOUS
 10
2.674941
 20
3.849522
 30
0.000000
 11
2.560748
 21
3.900363
 31
0.000000
  0
LINE
  8
DIMEN
 62
     7
  6
CONTINUOUS
 10
2.674941
 20
3.849522
 30
0.000000
 11
2.661875
 21
3.973837
 31
0.000000
  0
LINE
  8
DIMEN
 62
     7
  6
CONTINUOUS
 10
3.024134
 20
5.119659
 30
0.000000
 11
2.199247
 21
5.119659
 31
0.000000
  0
LINE
  8
DIMEN
 62
     7
  6
CONTINUOUS
 10
3.291319
 20
4.297348
 30
0.000000
 11
2.623973
 21
3.812491
 31
0.000000
  0
TEXT
  8
DIMEN
 62
     7
 10
2.224937
 20
4.389259
 30
0.000000
 40
0.125000
  1
36¦
  0
ARC
  8
DIMEN
 62
     7
  6
CONTINUOUS
 10
4.423132
 20
5.119660
 30
0.000000
 40
2.160885
 50
180.000041
 51
195.393603
  0
ARC
  8
DIMEN
 62
     7
  6
CONTINUOUS
 10
4.423132
 20
5.119660
 30
0.000000
 40
2.160885
 50
200.645663
 51
216.000082
  0
LINE
  8
DIMEN
 62
     7
  6
CONTINUOUS
 10
5.830777
 20
4.967525
 30
0.000000
 11
5.926302
 21
4.886902
 31
0.000000
  0
LINE
  8
DIMEN
 62
     7
  6
CONTINUOUS
 10
5.830777
 20
4.967525
 30
0.000000
 11
5.808719
 21
4.844486
 31
0.000000
  0
LINE
  8
DIMEN
 62
     7
  6
CONTINUOUS
 10
5.830777
 20
4.967525
 30
0.000000
 11
6.246162
 21
3.816013
 31
0.000000
  0
LINE
  8
DIMEN
 62
     7
  6
CONTINUOUS
 10
6.246162
 20
3.816013
 30
0.000000
 11
6.371162
 21
3.816013
 31
0.000000
  0
TEXT
  8
DIMEN
 62
     7
 10
6.434162
 20
3.753513
 30
0.000000
 40
0.125000
  1
2.520" BOLT CIRCLE
  0
TEXT
  8
DIMEN
 62
     7
 10
6.434162
 20
3.566014
 30
0.000000
 40
0.125000
  1
SEE NOTE C
  0
LINE
  8
DIMEN
 62
     7
  6
CONTINUOUS
 10
5.601409
 20
3.399384
 30
0.000000
 11
5.664409
 21
3.399384
 31
0.000000
  0
LINE
  8
DIMEN
 62
     7
  6
CONTINUOUS
 10
5.178095
 20
4.017420
 30
0.000000
 11
5.065358
 21
4.071414
 31
0.000000
  0
LINE
  8
DIMEN
 62
     7
  6
CONTINUOUS
 10
5.178095
 20
4.017420
 30
0.000000
 11
5.168486
 21
4.142050
 31
0.000000
  0
LINE
  8
DIMEN
 62
     7
  6
CONTINUOUS
 10
3.668173
 20
6.221899
 30
0.000000
 11
3.780910
 21
6.167905
 31
0.000000
  0
LINE
  8
DIMEN
 62
     7
  6
CONTINUOUS
 10
3.668173
 20
6.221899
 30
0.000000
 11
3.677782
 21
6.097269
 31
0.000000
  0
TEXT
  8
DIMEN
 62
     7
 10
5.695909
 20
3.336648
 30
0.000000
 40
0.125000
  1
2.672"
  0
LINE
  8
DIMEN
 62
     7
  6
CONTINUOUS
 10
3.668173
 20
6.221899
 30
0.000000
 11
5.601409
 21
3.399384
 31
0.000000
  0
TEXT
  8
DIMEN
 62
     7
 10
5.727408
 20
3.149384
 30
0.000000
 40
0.125000
  1
BOLT
  0
TEXT
  8
DIMEN
 62
     7
 10
5.727408
 20
2.961884
 30
0.000000
 40
0.125000
  1
CIRCLE
  0
LINE
  8
DIMEN
 62
     7
  6
CONTINUOUS
 10
4.067976
 20
3.645047
 30
0.000000
 11
4.174089
 21
3.578979
 31
0.000000
  0
LINE
  8
DIMEN
 62
     7
  6
CONTINUOUS
 10
4.067976
 20
3.645047
 30
0.000000
 11
4.063816
 21
3.520116
 31
0.000000
  0
LINE
  8
DIMEN
 62
     7
  6
CONTINUOUS
 10
4.067976
 20
3.645047
 30
0.000000
 11
4.536815
 21
2.766724
 31
0.000000
  0
LINE
  8
DIMEN
 62
     7
  6
CONTINUOUS
 10
4.536815
 20
2.766724
 30
0.000000
 11
4.661815
 21
2.766724
 31
0.000000
  0
TEXT
  8
DIMEN
 62
     7
 10
4.724815
 20
2.704224
 30
0.000000
 40
0.125000
  1
SEE NOTE B
  0
LINE
  8
DIMEN
 62
     7
  6
CONTINUOUS
 10
4.912769
 20
5.816876
 30
0.000000
 11
4.942853
 21
5.938202
 31
0.000000
  0
LINE
  8
DIMEN
 62
     7
  6
CONTINUOUS
 10
4.912769
 20
5.816876
 30
0.000000
 11
5.032882
 21
5.851486
 31
0.000000
  0
LINE
  8
DIMEN
 62
     7
  6
CONTINUOUS
 10
4.912769
 20
5.816876
 30
0.000000
 11
5.601408
 21
6.531824
 31
0.000000
  0
LINE
  8
DIMEN
 62
     7
  6
CONTINUOUS
 10
5.601408
 20
6.531824
 30
0.000000
 11
5.726408
 21
6.531824
 31
0.000000
  0
TEXT
  8
DIMEN
 62
     7
 10
5.789408
 20
6.469324
 30
0.000000
 40
0.125000
  1
SEE NOTE D
  0
LINE
  8
DIMEN
 62
     7
  6
CONTINUOUS
 10
6.111214
 20
5.837441
 30
0.000000
 11
6.174214
 21
5.837441
 31
0.000000
  0
LINE
  8
DIMEN
 62
     7
  6
CONTINUOUS
 10
5.070080
 20
5.394744
 30
0.000000
 11
4.994915
 21
5.294868
 31
0.000000
  0
LINE
  8
DIMEN
 62
     7
  6
CONTINUOUS
 10
5.070080
 20
5.394744
 30
0.000000
 11
4.946002
 21
5.409901
 31
0.000000
  0
LINE
  8
DIMEN
 62
     7
  6
CONTINUOUS
 10
3.776188
 20
4.844575
 30
0.000000
 11
3.851353
 21
4.944451
 31
0.000000
  0
LINE
  8
DIMEN
 62
     7
  6
CONTINUOUS
 10
3.776188
 20
4.844575
 30
0.000000
 11
3.900266
 21
4.829418
 31
0.000000
  0
TEXT
  8
DIMEN
 62
     7
 10
6.205713
 20
5.774853
 30
0.000000
 40
0.125000
  1
1 13/32"
  0
LINE
  8
DIMEN
 62
     7
  6
CONTINUOUS
 10
3.776188
 20
4.844575
 30
0.000000
 11
6.111214
 21
5.837441
 31
0.000000
  0
TEXT
  8
DIMEN
 62
     7
 10
6.237214
 20
5.587441
 30
0.000000
 40
0.125000
  1
BOLT
  0
TEXT
  8
DIMEN
 62
     7
 10
6.237214
 20
5.399940
 30
0.000000
 40
0.125000
  1
CIRCLE
  0
LINE
  8
HUB
 62
     7
  6
CONTINUOUS
 10
9.356487
 20
3.494659
 30
0.000000
 11
10.106487
 21
3.494659
 31
0.000000
  0
LINE
  8
HUB
 62
     7
  6
CONTINUOUS
 10
10.106487
 20
6.744658
 30
0.000000
 11
9.356487
 21
6.744658
 31
0.000000
  0
LINE
  8
HUB
 62
     7
  6
CONTINUOUS
 10
10.106487
 20
3.994659
 30
0.000000
 11
11.106487
 21
3.994659
 31
0.000000
  0
LINE
  8
HUB
 62
     7
  6
CONTINUOUS
 10
11.106487
 20
6.244659
 30
0.000000
 11
10.106487
 21
6.244659
 31
0.000000
  0
LINE
  8
HUB
 62
     7
  6
CONTINUOUS
 10
10.106487
 20
3.994659
 30
0.000000
 11
10.106487
 21
3.494659
 31
0.000000
  0
LINE
  8
HUB
 62
     7
  6
CONTINUOUS
 10
10.106487
 20
6.244659
 30
0.000000
 11
10.106487
 21
6.744658
 31
0.000000
  0
LINE
  8
HUB
 62
     7
  6
CONTINUOUS
 10
11.106487
 20
4.182159
 30
0.000000
 11
9.731487
 21
4.319660
 31
0.000000
  0
LINE
  8
HUB
 62
     7
  6
CONTINUOUS
 10
9.356487
 20
4.275160
 30
0.000000
 11
9.106487
 21
4.275160
 31
0.000000
  0
LINE
  8
HUB
 62
     7
  6
CONTINUOUS
 10
9.106487
 20
4.275160
 30
0.000000
 11
9.106487
 21
5.964161
 31
0.000000
  0
LINE
  8
HUB
 62
     7
  6
CONTINUOUS
 10
9.106487
 20
5.964161
 30
0.000000
 11
9.356487
 21
5.964161
 31
0.000000
  0
LINE
  8
HUB
 62
     7
  6
CONTINUOUS
 10
9.356487
 20
4.275160
 30
0.000000
 11
9.356487
 21
3.494659
 31
0.000000
  0
LINE
  8
HUB
 62
     7
  6
CONTINUOUS
 10
9.356487
 20
5.964161
 30
0.000000
 11
9.356487
 21
6.744658
 31
0.000000
  0
POINT
  8
HUB
 62
     7
 10
9.543987
 20
5.720087
 30
0.000000
  0
POINT
  8
HUB
 62
     7
 10
9.543987
 20
5.923187
 30
0.000000
  0
LINE
  8
HUB
 62
     7
  6
CONTINUOUS
 10
9.356487
 20
5.986660
 30
0.000000
 11
9.543987
 21
5.986660
 31
0.000000
  0
LINE
  8
HUB
 62
     7
  6
CONTINUOUS
 10
9.543987
 20
5.658661
 30
0.000000
 11
9.106487
 21
5.658661
 31
0.000000
  0
LINE
  8
HUB
 62
     7
  6
CONTINUOUS
 10
9.543987
 20
5.658661
 30
0.000000
 11
9.543987
 21
5.986660
 31
0.000000
  0
LINE
  8
HUB
 62
     7
  6
CONTINUOUS
 10
9.543987
 20
5.720087
 30
0.000000
 11
9.731487
 21
5.720087
 31
0.000000
  0
LINE
  8
HUB
 62
     7
  6
CONTINUOUS
 10
9.543987
 20
5.923187
 30
0.000000
 11
9.766766
 21
5.923187
 31
0.000000
  0
LINE
  8
HUB
 62
     7
  6
CONTINUOUS
 10
9.766766
 20
5.923187
 30
0.000000
 11
11.106487
 21
6.057159
 31
0.000000
  0
LINE
  8
HUB
 62
     7
  6
CONTINUOUS
 10
9.731487
 20
4.319660
 30
0.000000
 11
9.731487
 21
5.923187
 31
0.000000
  0
LINE
  8
HUB
 62
     7
  6
CONTINUOUS
 10
9.731487
 20
5.821638
 30
0.000000
 11
8.960987
 21
5.821638
 31
0.000000
  0
LINE
  8
HUB
 62
     7
  6
CONTINUOUS
 10
9.981487
 20
3.785660
 30
0.000000
 11
9.178158
 21
3.785660
 31
0.000000
  0
LINE
  8
HUB
 62
     7
  6
CONTINUOUS
 10
9.106487
 20
4.744659
 30
0.000000
 11
9.731487
 21
4.744659
 31
0.000000
  0
LINE
  8
HUB
 62
     7
  6
CONTINUOUS
 10
9.106487
 20
5.494659
 30
0.000000
 11
9.731487
 21
5.494659
 31
0.000000
  0
LINE
  8
HUB
 62
     7
  6
CONTINUOUS
 10
9.356487
 20
3.606161
 30
0.000000
 11
9.981487
 21
3.606161
 31
0.000000
  0
LINE
  8
HUB
 62
     7
  6
CONTINUOUS
 10
9.981487
 20
3.606161
 30
0.000000
 11
9.981487
 21
3.965160
 31
0.000000
  0
LINE
  8
HUB
 62
     7
  6
CONTINUOUS
 10
9.981487
 20
3.965160
 30
0.000000
 11
9.356487
 21
3.965160
 31
0.000000
  0
LINE
  8
HUB
 62
     7
  6
CONTINUOUS
 10
9.387489
 20
3.644470
 30
0.000000
 11
9.387489
 21
3.926849
 31
0.000000
  0
LINE
  8
HUB
 62
     7
  6
CONTINUOUS
 10
9.418987
 20
3.606161
 30
0.000000
 11
9.418987
 21
3.965160
 31
0.000000
  0
LINE
  8
HUB
 62
     7
  6
CONTINUOUS
 10
9.450237
 20
3.644470
 30
0.000000
 11
9.450237
 21
3.926849
 31
0.000000
  0
LINE
  8
HUB
 62
     7
  6
CONTINUOUS
 10
9.512989
 20
3.644470
 30
0.000000
 11
9.512989
 21
3.926849
 31
0.000000
  0
LINE
  8
HUB
 62
     7
  6
CONTINUOUS
 10
9.575737
 20
3.644470
 30
0.000000
 11
9.575737
 21
3.926849
 31
0.000000
  0
LINE
  8
HUB
 62
     7
  6
CONTINUOUS
 10
9.638489
 20
3.644470
 30
0.000000
 11
9.638489
 21
3.926849
 31
0.000000
  0
LINE
  8
HUB
 62
     7
  6
CONTINUOUS
 10
9.701237
 20
3.644470
 30
0.000000
 11
9.701237
 21
3.926849
 31
0.000000
  0
LINE
  8
HUB
 62
     7
  6
CONTINUOUS
 10
9.763989
 20
3.644470
 30
0.000000
 11
9.763989
 21
3.926849
 31
0.000000
  0
LINE
  8
HUB
 62
     7
  6
CONTINUOUS
 10
9.826737
 20
3.644470
 30
0.000000
 11
9.826737
 21
3.926849
 31
0.000000
  0
LINE
  8
HUB
 62
     7
  6
CONTINUOUS
 10
9.481487
 20
3.606161
 30
0.000000
 11
9.481487
 21
3.965160
 31
0.000000
  0
LINE
  8
HUB
 62
     7
  6
CONTINUOUS
 10
9.543987
 20
3.606161
 30
0.000000
 11
9.543987
 21
3.965160
 31
0.000000
  0
LINE
  8
HUB
 62
     7
  6
CONTINUOUS
 10
9.606487
 20
3.606161
 30
0.000000
 11
9.606487
 21
3.965160
 31
0.000000
  0
LINE
  8
HUB
 62
     7
  6
CONTINUOUS
 10
9.668987
 20
3.606161
 30
0.000000
 11
9.668987
 21
3.965160
 31
0.000000
  0
LINE
  8
HUB
 62
     7
  6
CONTINUOUS
 10
9.731487
 20
3.606161
 30
0.000000
 11
9.731487
 21
3.965160
 31
0.000000
  0
LINE
  8
HUB
 62
     7
  6
CONTINUOUS
 10
9.793987
 20
3.606161
 30
0.000000
 11
9.793987
 21
3.965160
 31
0.000000
  0
LINE
  8
HUB
 62
     7
  6
CONTINUOUS
 10
9.856487
 20
3.606161
 30
0.000000
 11
9.856487
 21
3.965160
 31
0.000000
  0
LINE
  8
HUB
 62
     7
  6
CONTINUOUS
 10
11.106487
 20
4.182159
 30
0.000000
 11
11.106487
 21
3.994659
 31
0.000000
  0
LINE
  8
HUB
 62
     7
  6
CONTINUOUS
 10
11.106487
 20
6.057159
 30
0.000000
 11
11.106487
 21
6.244659
 31
0.000000
  0
LINE
  8
HUB
 62
     7
  6
CONTINUOUS
 10
11.106487
 20
4.182159
 30
0.000000
 11
11.106487
 21
6.057159
 31
0.000000
  0
POINT
  8
HUB
 62
     7
 10
9.106487
 20
4.744659
 30
0.000000
  0
POINT
  8
HUB
 62
     7
 10
9.106487
 20
5.119659
 30
0.000000
  0
LINE
  8
DIMEN
 62
     7
  6
CONTINUOUS
 10
8.254419
 20
4.275160
 30
0.000000
 11
8.191919
 21
4.383413
 31
0.000000
  0
LINE
  8
DIMEN
 62
     7
  6
CONTINUOUS
 10
8.254419
 20
4.275160
 30
0.000000
 11
8.316919
 21
4.383413
 31
0.000000
  0
LINE
  8
DIMEN
 62
     7
  6
CONTINUOUS
 10
8.254419
 20
5.964161
 30
0.000000
 11
8.316919
 21
5.855908
 31
0.000000
  0
LINE
  8
DIMEN
 62
     7
  6
CONTINUOUS
 10
8.254419
 20
5.964161
 30
0.000000
 11
8.191919
 21
5.855908
 31
0.000000
  0
LINE
  8
DIMEN
 62
     7
  6
CONTINUOUS
 10
9.043487
 20
4.275160
 30
0.000000
 11
8.191419
 21
4.275160
 31
0.000000
  0
LINE
  8
DIMEN
 62
     7
  6
CONTINUOUS
 10
9.043487
 20
5.964161
 30
0.000000
 11
8.191419
 21
5.964161
 31
0.000000
  0
TEXT
  8
DIMEN
 62
     7
 10
7.719053
 20
4.678885
 30
0.000000
 40
0.125000
  1
1.689"
  0
TEXT
  8
DIMEN
 62
     7
 10
8.221384
 20
4.773358
 30
0.000000
 40
0.125000
  1
+.000"
  0
TEXT
  8
DIMEN
 62
     7
 10
8.221384
 20
4.584412
 30
0.000000
 40
0.125000
  1
-.001"
  0
LINE
  8
DIMEN
 62
     7
  6
CONTINUOUS
 10
8.254419
 20
4.275160
 30
0.000000
 11
8.254419
 21
4.553088
 31
0.000000
  0
LINE
  8
DIMEN
 62
     7
  6
CONTINUOUS
 10
8.254419
 20
4.930628
 30
0.000000
 11
8.254419
 21
5.964161
 31
0.000000
  0
LINE
  8
DIMEN
 62
     7
  6
CONTINUOUS
 10
9.106487
 20
6.413931
 30
0.000000
 11
8.998234
 21
6.351431
 31
0.000000
  0
LINE
  8
DIMEN
 62
     7
  6
CONTINUOUS
 10
9.106487
 20
6.413931
 30
0.000000
 11
8.998234
 21
6.476431
 31
0.000000
  0
LINE
  8
DIMEN
 62
     7
  6
CONTINUOUS
 10
9.356487
 20
6.413931
 30
0.000000
 11
9.464741
 21
6.476431
 31
0.000000
  0
LINE
  8
DIMEN
 62
     7
  6
CONTINUOUS
 10
9.356487
 20
6.413931
 30
0.000000
 11
9.464741
 21
6.351431
 31
0.000000
  0
LINE
  8
DIMEN
 62
     7
  6
CONTINUOUS
 10
9.106487
 20
6.027161
 30
0.000000
 11
9.106487
 21
6.476931
 31
0.000000
  0
LINE
  8
DIMEN
 62
     7
  6
CONTINUOUS
 10
9.356487
 20
6.027161
 30
0.000000
 11
9.356487
 21
6.476931
 31
0.000000
  0
TEXT
  8
DIMEN
 62
     7
 10
8.492503
 20
6.351358
 30
0.000000
 40
0.125000
  1
1/4"
  0
LINE
  8
DIMEN
 62
     7
  6
CONTINUOUS
 10
9.106487
 20
6.413931
 30
0.000000
 11
8.856487
 21
6.413931
 31
0.000000
  0
LINE
  8
DIMEN
 62
     7
  6
CONTINUOUS
 10
9.356487
 20
6.413931
 30
0.000000
 11
9.606487
 21
6.413931
 31
0.000000
  0
LINE
  8
DIMEN
 62
     7
  6
CONTINUOUS
 10
9.356487
 20
6.892035
 30
0.000000
 11
9.464741
 21
6.954535
 31
0.000000
  0
LINE
  8
DIMEN
 62
     7
  6
CONTINUOUS
 10
9.356487
 20
6.892035
 30
0.000000
 11
9.464741
 21
6.829535
 31
0.000000
  0
LINE
  8
DIMEN
 62
     7
  6
CONTINUOUS
 10
10.106487
 20
6.892035
 30
0.000000
 11
9.998234
 21
6.829535
 31
0.000000
  0
LINE
  8
DIMEN
 62
     7
  6
CONTINUOUS
 10
10.106487
 20
6.892035
 30
0.000000
 11
9.998234
 21
6.954535
 31
0.000000
  0
LINE
  8
DIMEN
 62
     7
  6
CONTINUOUS
 10
9.356487
 20
6.807658
 30
0.000000
 11
9.356487
 21
6.955035
 31
0.000000
  0
LINE
  8
DIMEN
 62
     7
  6
CONTINUOUS
 10
10.106487
 20
6.807658
 30
0.000000
 11
10.106487
 21
6.955035
 31
0.000000
  0
TEXT
  8
DIMEN
 62
     7
 10
9.534134
 20
6.829462
 30
0.000000
 40
0.125000
  1
3/4"
  0
LINE
  8
DIMEN
 62
     7
  6
CONTINUOUS
 10
9.356487
 20
6.892035
 30
0.000000
 11
9.502634
 21
6.892035
 31
0.000000
  0
LINE
  8
DIMEN
 62
     7
  6
CONTINUOUS
 10
9.960341
 20
6.892035
 30
0.000000
 11
10.106487
 21
6.892035
 31
0.000000
  0
LINE
  8
DIMEN
 62
     7
  6
CONTINUOUS
 10
10.106487
 20
6.866872
 30
0.000000
 11
10.214741
 21
6.929372
 31
0.000000
  0
LINE
  8
DIMEN
 62
     7
  6
CONTINUOUS
 10
10.106487
 20
6.866872
 30
0.000000
 11
10.214741
 21
6.804372
 31
0.000000
  0
LINE
  8
DIMEN
 62
     7
  6
CONTINUOUS
 10
11.106487
 20
6.866872
 30
0.000000
 11
10.998234
 21
6.804372
 31
0.000000
  0
LINE
  8
DIMEN
 62
     7
  6
CONTINUOUS
 10
11.106487
 20
6.866872
 30
0.000000
 11
10.998234
 21
6.929372
 31
0.000000
  0
LINE
  8
DIMEN
 62
     7
  6
CONTINUOUS
 10
10.106487
 20
6.307659
 30
0.000000
 11
10.106487
 21
6.929872
 31
0.000000
  0
LINE
  8
DIMEN
 62
     7
  6
CONTINUOUS
 10
11.106487
 20
6.307659
 30
0.000000
 11
11.106487
 21
6.929872
 31
0.000000
  0
TEXT
  8
DIMEN
 62
     7
 10
10.565569
 20
6.804299
 30
0.000000
 40
0.125000
  1
1"
  0
LINE
  8
DIMEN
 62
     7
  6
CONTINUOUS
 10
10.106487
 20
6.866872
 30
0.000000
 11
10.534069
 21
6.866872
 31
0.000000
  0
LINE
  8
DIMEN
 62
     7
  6
CONTINUOUS
 10
10.678906
 20
6.866872
 30
0.000000
 11
11.106487
 21
6.866872
 31
0.000000
  0
LINE
  8
DIMEN
 62
     7
  6
CONTINUOUS
 10
9.106487
 20
7.193996
 30
0.000000
 11
9.214741
 21
7.256496
 31
0.000000
  0
LINE
  8
DIMEN
 62
     7
  6
CONTINUOUS
 10
9.106487
 20
7.193996
 30
0.000000
 11
9.214741
 21
7.131496
 31
0.000000
  0
LINE
  8
DIMEN
 62
     7
  6
CONTINUOUS
 10
11.106487
 20
7.193996
 30
0.000000
 11
10.998234
 21
7.131496
 31
0.000000
  0
LINE
  8
DIMEN
 62
     7
  6
CONTINUOUS
 10
11.106487
 20
7.193996
 30
0.000000
 11
10.998234
 21
7.256496
 31
0.000000
  0
LINE
  8
DIMEN
 62
     7
  6
CONTINUOUS
 10
9.106487
 20
6.027161
 30
0.000000
 11
9.106487
 21
7.256996
 31
0.000000
  0
LINE
  8
DIMEN
 62
     7
  6
CONTINUOUS
 10
11.106487
 20
6.307659
 30
0.000000
 11
11.106487
 21
7.256996
 31
0.000000
  0
TEXT
  8
DIMEN
 62
     7
 10
10.033259
 20
7.131409
 30
0.000000
 40
0.125000
  1
2"
  0
LINE
  8
DIMEN
 62
     7
  6
CONTINUOUS
 10
9.106487
 20
7.193996
 30
0.000000
 11
10.001759
 21
7.193996
 31
0.000000
  0
LINE
  8
DIMEN
 62
     7
  6
CONTINUOUS
 10
10.211216
 20
7.193996
 30
0.000000
 11
11.106487
 21
7.193996
 31
0.000000
  0
LINE
  8
DIMEN
 62
     7
  6
CONTINUOUS
 10
9.731487
 20
4.577004
 30
0.000000
 11
9.839741
 21
4.639504
 31
0.000000
  0
LINE
  8
DIMEN
 62
     7
  6
CONTINUOUS
 10
9.731487
 20
4.577004
 30
0.000000
 11
9.839741
 21
4.514504
 31
0.000000
  0
LINE
  8
DIMEN
 62
     7
  6
CONTINUOUS
 10
11.106487
 20
4.577004
 30
0.000000
 11
10.998234
 21
4.514504
 31
0.000000
  0
LINE
  8
DIMEN
 62
     7
  6
CONTINUOUS
 10
11.106487
 20
4.577004
 30
0.000000
 11
10.998234
 21
4.639504
 31
0.000000
  0
LINE
  8
DIMEN
 62
     7
  6
CONTINUOUS
 10
9.731487
 20
4.382660
 30
0.000000
 11
9.731487
 21
4.640004
 31
0.000000
  0
LINE
  8
DIMEN
 62
     7
  6
CONTINUOUS
 10
11.106487
 20
4.245159
 30
0.000000
 11
11.106487
 21
4.640004
 31
0.000000
  0
TEXT
  8
DIMEN
 62
     7
 10
10.152656
 20
4.514096
 30
0.000000
 40
0.125000
  1
1 3/8"
  0
LINE
  8
DIMEN
 62
     7
  6
CONTINUOUS
 10
9.731487
 20
4.577004
 30
0.000000
 11
10.121157
 21
4.577004
 31
0.000000
  0
LINE
  8
DIMEN
 62
     7
  6
CONTINUOUS
 10
10.716818
 20
4.577004
 30
0.000000
 11
11.106487
 21
4.577004
 31
0.000000
  0
LINE
  8
DIMEN
 62
     7
  6
CONTINUOUS
 10
9.436585
 20
4.744659
 30
0.000000
 11
9.374085
 21
4.852913
 31
0.000000
  0
LINE
  8
DIMEN
 62
     7
  6
CONTINUOUS
 10
9.436585
 20
4.744659
 30
0.000000
 11
9.499085
 21
4.852913
 31
0.000000
  0
LINE
  8
DIMEN
 62
     7
  6
CONTINUOUS
 10
9.436585
 20
5.494659
 30
0.000000
 11
9.499085
 21
5.386406
 31
0.000000
  0
LINE
  8
DIMEN
 62
     7
  6
CONTINUOUS
 10
9.436585
 20
5.494659
 30
0.000000
 11
9.374085
 21
5.386406
 31
0.000000
  0
LINE
  8
DIMEN
 62
     7
  6
CONTINUOUS
 10
9.668487
 20
4.744659
 30
0.000000
 11
9.373585
 21
4.744659
 31
0.000000
  0
LINE
  8
DIMEN
 62
     7
  6
CONTINUOUS
 10
9.668487
 20
5.494659
 30
0.000000
 11
9.373585
 21
5.494659
 31
0.000000
  0
TEXT
  8
DIMEN
 62
     7
 10
9.239230
 20
5.193843
 30
0.000000
 40
0.125000
  1
3/4"
  0
LINE
  8
DIMEN
 62
     7
  6
CONTINUOUS
 10
9.436585
 20
4.744659
 30
0.000000
 11
9.436585
 21
5.162343
 31
0.000000
  0
LINE
  8
DIMEN
 62
     7
  6
CONTINUOUS
 10
9.436585
 20
5.350488
 30
0.000000
 11
9.436585
 21
5.494659
 31
0.000000
  0
LINE
  8
DIMEN
 62
     7
  6
CONTINUOUS
 10
11.637232
 20
3.994659
 30
0.000000
 11
11.574732
 21
4.102913
 31
0.000000
  0
LINE
  8
DIMEN
 62
     7
  6
CONTINUOUS
 10
11.637232
 20
3.994659
 30
0.000000
 11
11.699732
 21
4.102913
 31
0.000000
  0
LINE
  8
DIMEN
 62
     7
  6
CONTINUOUS
 10
11.637232
 20
6.244659
 30
0.000000
 11
11.699732
 21
6.136406
 31
0.000000
  0
LINE
  8
DIMEN
 62
     7
  6
CONTINUOUS
 10
11.637232
 20
6.244659
 30
0.000000
 11
11.574732
 21
6.136406
 31
0.000000
  0
LINE
  8
DIMEN
 62
     7
  6
CONTINUOUS
 10
11.169487
 20
3.994659
 30
0.000000
 11
11.700232
 21
3.994659
 31
0.000000
  0
LINE
  8
DIMEN
 62
     7
  6
CONTINUOUS
 10
11.169487
 20
6.244659
 30
0.000000
 11
11.700232
 21
6.244659
 31
0.000000
  0
TEXT
  8
DIMEN
 62
     7
 10
11.365168
 20
4.891869
 30
0.000000
 40
0.125000
  1
2 1/4"
  0
LINE
  8
DIMEN
 62
     7
  6
CONTINUOUS
 10
11.637232
 20
3.994659
 30
0.000000
 11
11.637232
 21
4.860369
 31
0.000000
  0
LINE
  8
DIMEN
 62
     7
  6
CONTINUOUS
 10
11.637232
 20
5.048542
 30
0.000000
 11
11.637232
 21
6.244659
 31
0.000000
  0
LINE
  8
DIMEN
 62
     7
  6
CONTINUOUS
 10
12.016232
 20
3.494659
 30
0.000000
 11
11.953732
 21
3.602913
 31
0.000000
  0
LINE
  8
DIMEN
 62
     7
  6
CONTINUOUS
 10
12.016232
 20
3.494659
 30
0.000000
 11
12.078732
 21
3.602913
 31
0.000000
  0
LINE
  8
DIMEN
 62
     7
  6
CONTINUOUS
 10
12.016232
 20
6.744658
 30
0.000000
 11
12.078732
 21
6.636404
 31
0.000000
  0
LINE
  8
DIMEN
 62
     7
  6
CONTINUOUS
 10
12.016232
 20
6.744658
 30
0.000000
 11
11.953732
 21
6.636404
 31
0.000000
  0
LINE
  8
DIMEN
 62
     7
  6
CONTINUOUS
 10
10.169487
 20
3.494659
 30
0.000000
 11
12.079232
 21
3.494659
 31
0.000000
  0
LINE
  8
DIMEN
 62
     7
  6
CONTINUOUS
 10
10.169487
 20
6.744658
 30
0.000000
 11
12.079232
 21
6.744658
 31
0.000000
  0
TEXT
  8
DIMEN
 62
     7
 10
11.740753
 20
5.256753
 30
0.000000
 40
0.125000
  1
3 1/4"
  0
LINE
  8
DIMEN
 62
     7
  6
CONTINUOUS
 10
12.016232
 20
3.494659
 30
0.000000
 11
12.016232
 21
5.225252
 31
0.000000
  0
LINE
  8
DIMEN
 62
     7
  6
CONTINUOUS
 10
12.016232
 20
5.413397
 30
0.000000
 11
12.016232
 21
6.744658
 31
0.000000
  0
LINE
  8
DIMEN
 62
     7
  6
CONTINUOUS
 10
10.536762
 20
6.000187
 30
0.000000
 11
10.639142
 21
5.928469
 31
0.000000
  0
LINE
  8
DIMEN
 62
     7
  6
CONTINUOUS
 10
10.536762
 20
6.000187
 30
0.000000
 11
10.525843
 21
5.875665
 31
0.000000
  0
LINE
  8
DIMEN
 62
     7
  6
CONTINUOUS
 10
10.536762
 20
6.000187
 30
0.000000
 11
11.845070
 21
3.193018
 31
0.000000
  0
LINE
  8
DIMEN
 62
     7
  6
CONTINUOUS
 10
11.845070
 20
3.193018
 30
0.000000
 11
11.970070
 21
3.193018
 31
0.000000
  0
TEXT
  8
DIMEN
 62
     7
 10
12.033070
 20
3.130518
 30
0.000000
 40
0.125000
  1
BORE TO SUIT BUSHING
  0
LINE
  8
DIMEN
 62
     7
  6
CONTINUOUS
 10
9.228745
 20
4.275160
 30
0.000000
 11
9.263611
 21
4.155121
 31
0.000000
  0
LINE
  8
DIMEN
 62
     7
  6
CONTINUOUS
 10
9.228745
 20
4.275160
 30
0.000000
 11
9.142221
 21
4.184946
 31
0.000000
  0
LINE
  8
DIMEN
 62
     7
  6
CONTINUOUS
 10
9.228745
 20
4.275160
 30
0.000000
 11
8.959778
 21
3.180436
 31
0.000000
  0
LINE
  8
DIMEN
 62
     7
  6
CONTINUOUS
 10
8.959778
 20
3.180436
 30
0.000000
 11
9.084778
 21
3.180436
 31
0.000000
  0
TEXT
  8
DIMEN
 62
     7
 10
9.147777
 20
3.117937
 30
0.000000
 40
0.125000
  1
LOCATING PROJECTION
  0
TEXT
  8
DIMEN
 62
     7
 10
12.301106
 20
8.071097
 30
0.000000
 40
0.125000
  1
NOTE A- TAP 10-24 x 1" DEEP
  0
TEXT
  8
DIMEN
 62
     7
 10
12.301106
 20
7.883596
 30
0.000000
 40
0.125000
  1
NOTE B- DRILL 23/64" x 5/8" DEEP THEN
  0
TEXT
  8
DIMEN
 62
     7
 10
12.301106
 20
7.696097
 30
0.000000
 40
0.125000
  1
TAP 10 x 1.0mm x 1/2" DEEP
  0
TEXT
  8
DIMEN
 62
     7
 10
12.301106
 20
7.133597
 30
0.000000
 40
0.125000
  1
LOCATE FLYWHEEL ON HUB
  0
TEXT
  8
DIMEN
 62
     7
 10
12.301106
 20
7.508597
 30
0.000000
 40
0.125000
  1
NOTE C- THIS FLYWHEEL BOLT HOLE
  0
TEXT
  8
DIMEN
 62
     7
 10
12.301106
 20
2.371896
 30
0.000000
 40
0.125000
  1
NOTE D- DRILL 13/64" COUNTERBORE 
  0
TEXT
  8
DIMEN
 62
     7
 10
12.301106
 20
2.184395
 30
0.000000
 40
0.125000
  1
7/16" DEEP THEN TURN FACE OF HUB TO
  0
TEXT
  8
DIMEN
 62
     7
 10
12.301106
 20
1.996896
 30
0.000000
 40
0.125000
  1
LOCATING PROJECTION DIAMETER x 1/4"
  0
TEXT
  8
DIMEN
 62
     7
 10
12.301106
 20
1.809395
 30
0.000000
 40
0.125000
  1
HIGH
  0
TEXT
  8
DIMEN
 62
     7
 10
12.301106
 20
7.321096
 30
0.000000
 40
0.125000
  1
MOVED TOWARD CENTER OF HUB TO
  0
ENDSEC
  0
EOF
