  0
SECTION
  2
HEADER
  9
$ACADVER
  1
AC1009
  9
$DWGCODEPAGE
  3
ansi_1252
  9
$INSBASE
 10
0.0
 20
0.0
 30
0.0
  9
$EXTMIN
 10
1.000000000000000E+20
 20
1.000000000000000E+20
 30
1.000000000000000E+20
  9
$EXTMAX
 10
-1.000000000000000E+20
 20
-1.000000000000000E+20
 30
-1.000000000000000E+20
  9
$LIMMIN
 10
0.0
 20
0.0
  9
$LIMMAX
 10
12.0
 20
9.0
  9
$ORTHOMODE
 70
     0
  9
$REGENMODE
 70
     1
  9
$FILLMODE
 70
     1
  9
$QTEXTMODE
 70
     0
  9
$MIRRTEXT
 70
     1
  9
$DRAGMODE
 70
     2
  9
$LTSCALE
 40
1.0
  9
$OSMODE
 70
    37
  9
$ATTMODE
 70
     1
  9
$TEXTSIZE
 40
0.2
  9
$TRACEWID
 40
0.05
  9
$TEXTSTYLE
  7
STANDARD
  9
$CLAYER
  8
0
  9
$CELTYPE
  6
BYLAYER
  9
$CECOLOR
 62
   256
  9
$DIMSCALE
 40
1.0
  9
$DIMASZ
 40
0.18
  9
$DIMEXO
 40
0.0625
  9
$DIMDLI
 40
0.38
  9
$DIMRND
 40
0.0
  9
$DIMDLE
 40
0.0
  9
$DIMEXE
 40
0.18
  9
$DIMTP
 40
0.0
  9
$DIMTM
 40
0.0
  9
$DIMTXT
 40
0.18
  9
$DIMCEN
 40
0.09
  9
$DIMTSZ
 40
0.0
  9
$DIMTOL
 70
     0
  9
$DIMLIM
 70
     0
  9
$DIMTIH
 70
     1
  9
$DIMTOH
 70
     1
  9
$DIMSE1
 70
     0
  9
$DIMSE2
 70
     0
  9
$DIMTAD
 70
     0
  9
$DIMZIN
 70
     0
  9
$DIMBLK
  1

  9
$DIMASO
 70
     1
  9
$DIMSHO
 70
     1
  9
$DIMPOST
  1

  9
$DIMAPOST
  1

  9
$DIMALT
 70
     0
  9
$DIMALTD
 70
     2
  9
$DIMALTF
 40
25.4
  9
$DIMLFAC
 40
1.0
  9
$DIMTOFL
 70
     0
  9
$DIMTVP
 40
0.0
  9
$DIMTIX
 70
     0
  9
$DIMSOXD
 70
     0
  9
$DIMSAH
 70
     0
  9
$DIMBLK1
  1

  9
$DIMBLK2
  1

  9
$DIMSTYLE
  2
STANDARD
  9
$DIMCLRD
 70
     0
  9
$DIMCLRE
 70
     0
  9
$DIMCLRT
 70
     0
  9
$DIMTFAC
 40
1.0
  9
$DIMGAP
 40
0.09
  9
$LUNITS
 70
     2
  9
$LUPREC
 70
     3
  9
$SKETCHINC
 40
0.1
  9
$FILLETRAD
 40
0.5
  9
$AUNITS
 70
     0
  9
$AUPREC
 70
     0
  9
$MENU
  1
.
  9
$ELEVATION
 40
0.0
  9
$PELEVATION
 40
0.0
  9
$THICKNESS
 40
0.0
  9
$LIMCHECK
 70
     0
  9
$CHAMFERA
 40
0.5
  9
$CHAMFERB
 40
0.5
  9
$SKPOLY
 70
     0
  9
$TDCREATE
 40
2454200.854820787
  9
$TDUPDATE
 40
2454200.854820799
  9
$TDINDWG
 40
0.0000000116
  9
$TDUSRTIMER
 40
0.0000000116
  9
$USRTIMER
 70
     1
  9
$ANGBASE
 50
0.0
  9
$ANGDIR
 70
     0
  9
$PDMODE
 70
     2
  9
$PDSIZE
 40
-2.0
  9
$PLINEWID
 40
0.0
  9
$COORDS
 70
     1
  9
$SPLFRAME
 70
     0
  9
$SPLINETYPE
 70
     6
  9
$SPLINESEGS
 70
     8
  9
$ATTDIA
 70
     0
  9
$ATTREQ
 70
     1
  9
$HANDLING
 70
     1
  9
$HANDSEED
  5
107
  9
$SURFTAB1
 70
     6
  9
$SURFTAB2
 70
     6
  9
$SURFTYPE
 70
     6
  9
$SURFU
 70
     6
  9
$SURFV
 70
     6
  9
$UCSNAME
  2

  9
$UCSORG
 10
0.0
 20
0.0
 30
0.0
  9
$UCSXDIR
 10
1.0
 20
0.0
 30
0.0
  9
$UCSYDIR
 10
0.0
 20
1.0
 30
0.0
  9
$PUCSNAME
  2

  9
$PUCSORG
 10
0.0
 20
0.0
 30
0.0
  9
$PUCSXDIR
 10
1.0
 20
0.0
 30
0.0
  9
$PUCSYDIR
 10
0.0
 20
1.0
 30
0.0
  9
$USERI1
 70
     0
  9
$USERI2
 70
     0
  9
$USERI3
 70
     0
  9
$USERI4
 70
     0
  9
$USERI5
 70
     0
  9
$USERR1
 40
0.0
  9
$USERR2
 40
0.0
  9
$USERR3
 40
0.0
  9
$USERR4
 40
0.0
  9
$USERR5
 40
0.0
  9
$WORLDVIEW
 70
     1
  9
$SHADEDGE
 70
     3
  9
$SHADEDIF
 70
    70
  9
$TILEMODE
 70
     1
  9
$MAXACTVP
 70
    64
  9
$PLIMCHECK
 70
     0
  9
$PEXTMIN
 10
1.000000000000000E+20
 20
1.000000000000000E+20
 30
1.000000000000000E+20
  9
$PEXTMAX
 10
-1.000000000000000E+20
 20
-1.000000000000000E+20
 30
-1.000000000000000E+20
  9
$PLIMMIN
 10
0.0
 20
0.0
  9
$PLIMMAX
 10
12.0
 20
9.0
  9
$UNITMODE
 70
     0
  9
$VISRETAIN
 70
     1
  9
$PLINEGEN
 70
     0
  9
$PSLTSCALE
 70
     1
  0
ENDSEC
  0
SECTION
  2
TABLES
  0
TABLE
  2
VPORT
 70
     1
  0
VPORT
  2
*ACTIVE
 70
     0
 10
0.0
 20
0.0
 11
1.0
 21
1.0
 12
10.42990654205607
 22
4.5
 13
0.0
 23
0.0
 14
0.5
 24
0.5
 15
0.5
 25
0.5
 16
0.0
 26
0.0
 36
1.0
 17
0.0
 27
0.0
 37
0.0
 40
9.0
 41
1.972972972850329
 42
50.0
 43
0.0
 44
0.0
 50
0.0
 51
0.0
 71
     0
 72
   100
 73
     1
 74
     3
 75
     0
 76
     0
 77
     0
 78
     0
  0
ENDTAB
  0
TABLE
  2
LTYPE
 70
     2
  0
LTYPE
  2
CONTINUOUS
 70
     0
  3
Solid line
 72
    65
 73
     0
 40
0.0
  0
LTYPE
  2
GC___6
 70
     0
  3
_____  _  __________  _  _____
 72
    65
 73
     4
 40
0.5
 49
0.3
 49
-0.075
 49
0.05
 49
-0.075
  0
ENDTAB
  0
TABLE
  2
LAYER
 70
     6
  0
LAYER
  2
0
 70
     0
 62
     7
  6
CONTINUOUS
  0
LAYER
  2
JPEG
 70
     0
 62
     7
  6
CONTINUOUS
  0
LAYER
  2
SCALE
 70
     0
 62
     7
  6
CONTINUOUS
  0
LAYER
  2
TRIANGLE
 70
     0
 62
     7
  6
CONTINUOUS
  0
LAYER
  2
HOLEPAT
 70
     0
 62
     7
  6
CONTINUOUS
  0
LAYER
  2
DIMENSIONS
 70
     0
 62
     7
  6
CONTINUOUS
  0
ENDTAB
  0
TABLE
  2
STYLE
 70
     2
  0
STYLE
  2
STANDARD
 70
     0
 40
0.0
 41
1.0
 50
0.0
 71
     0
 42
0.2
  3
txt
  4

  0
STYLE
  2
ENGINEER
 70
     0
 40
0.2
 41
1.0
 50
0.0
 71
     0
 42
0.2
  3
ENGINEER.SHX
  4

  0
ENDTAB
  0
TABLE
  2
VIEW
 70
     0
  0
ENDTAB
  0
TABLE
  2
UCS
 70
     0
  0
ENDTAB
  0
TABLE
  2
APPID
 70
     1
  0
APPID
  2
ACAD
 70
     0
  0
ENDTAB
  0
TABLE
  2
DIMSTYLE
 70
     1
  0
DIMSTYLE
  2
STANDARD
 70
     0
  3

  4

  5

  6

  7

 40
1.0
 41
0.18
 42
0.0625
 43
0.38
 44
0.18
 45
0.0
 46
0.0
 47
0.0
 48
0.0
140
0.18
141
0.09
142
0.0
143
25.4
144
1.0
145
0.0
146
1.0
147
0.09
 71
     0
 72
     0
 73
     1
 74
     1
 75
     0
 76
     0
 77
     0
 78
     0
170
     0
171
     2
172
     0
173
     0
174
     0
175
     0
176
     0
177
     0
178
     0
  0
ENDTAB
  0
ENDSEC
  0
SECTION
  2
BLOCKS
  0
BLOCK
  8
0
  2
$MODEL_SPACE
 70
     0
 10
0.0
 20
0.0
 30
0.0
  3
$MODEL_SPACE
  1

  0
ENDBLK
  5
21
  8
0
  0
BLOCK
 67
     1
  8
0
  2
$PAPER_SPACE
 70
     0
 10
0.0
 20
0.0
 30
0.0
  3
$PAPER_SPACE
  1

  0
ENDBLK
  5
1D
 67
     1
  8
0
  0
ENDSEC
  0
SECTION
  2
ENTITIES
  0
LINE
  5
2A
  8
JPEG
  6
CONTINUOUS
 62
    93
 10
19.05353192458685
 20
-2.499453892016306
 30
0.0
 11
29.70553192458685
 21
-2.499453892016306
 31
0.0
  0
ARC
  5
2C
  8
SCALE
  6
CONTINUOUS
 62
     1
 10
19.05353192458685
 20
-10.60879346118163
 30
0.0
 40
8.109339569165325
 50
90.0
 51
270.0
  0
LINE
  5
2E
  8
SCALE
  6
CONTINUOUS
 62
     1
 10
23.66869674109974
 20
-2.499453892016307
 30
0.0
 11
19.05353192458685
 21
-18.71813303034696
 31
0.0
  0
LINE
  5
2F
  8
SCALE
  6
CONTINUOUS
 62
     1
 10
29.70553192458685
 20
-2.499453892016308
 30
0.0
 11
18.02637978779467
 21
-43.54293337085239
 31
0.0
  0
LINE
  5
30
  8
SCALE
  6
CONTINUOUS
 62
     1
 10
19.05353192458685
 20
-2.499453892016308
 30
0.0
 11
19.05353192458685
 21
-39.93326229590639
 31
0.0
  0
LINE
  5
31
  8
JPEG
  6
CONTINUOUS
 62
    93
 10
19.05353192458685
 20
-2.499453892016308
 30
0.0
 11
29.7056444684139
 21
-2.499453892016306
 31
0.0
  0
CIRCLE
  5
32
  8
SCALE
  6
CONTINUOUS
 62
     1
 10
19.05353192458685
 20
-2.499453892016304
 30
0.0
 40
18.71690420194504
  0
CIRCLE
  5
33
  8
SCALE
  6
CONTINUOUS
 62
     1
 10
19.05353192458685
 20
-2.499453892016308
 30
0.0
 40
6.624000000000002
  0
CIRCLE
  5
34
  8
SCALE
  6
CONTINUOUS
 62
     1
 10
29.70553192458685
 20
-2.499453892016308
 30
0.0
 40
6.606
  0
LINE
  5
39
  8
TRIANGLE
  6
CONTINUOUS
 62
     1
 10
19.05353192458685
 20
-2.499453892016308
 30
0.0
 11
29.70553192458685
 21
-2.499453892016308
 31
0.0
  0
POINT
  5
3B
  8
TRIANGLE
  6
CONTINUOUS
 62
     1
 10
24.39071010708778
 20
-6.422705738155674
 30
0.0
  0
LINE
  5
3C
  8
TRIANGLE
  6
CONTINUOUS
 62
    93
 10
19.05353192458685
 20
-2.499453892016308
 30
0.0
 11
24.39071010708778
 21
-6.422705738155674
 31
0.0
  0
LINE
  5
3D
  8
TRIANGLE
  6
CONTINUOUS
 62
    93
 10
24.39071010708778
 20
-6.422705738155674
 30
0.0
 11
29.7056444684139
 21
-2.499453892016306
 31
0.0
  0
LINE
  5
3E
  8
TRIANGLE
  6
CONTINUOUS
 62
    93
 10
24.39071010708778
 20
-6.422705738155674
 30
0.0
 11
24.39071010708778
 21
-2.499453892016307
 31
0.0
  0
LINE
  5
3F
  8
TRIANGLE
  6
CONTINUOUS
 62
    93
 10
19.05353192458685
 20
-2.499453892016308
 30
0.0
 11
29.70553192458685
 21
-2.499453892016308
 31
0.0
  0
POINT
  5
40
  8
TRIANGLE
  6
CONTINUOUS
 62
    93
 10
29.70526159076825
 20
-2.499719515102385
 30
0.0
  0
LINE
  5
41
  8
TRIANGLE
  6
CONTINUOUS
 62
     1
 10
22.30205778126056
 20
-13.49645334752905
 30
0.0
 11
27.6442017089432
 21
-12.7918741487035
 31
0.0
  0
LINE
  5
42
  8
TRIANGLE
  6
CONTINUOUS
 62
     1
 10
27.6442017089432
 20
-12.7918741487035
 30
0.0
 11
28.82573369292791
 21
-12.39223833059102
 31
0.0
  0
LINE
  5
43
  8
TRIANGLE
  6
CONTINUOUS
 62
     1
 10
28.82573369292791
 20
-12.39223833059102
 30
0.0
 11
31.83169006394781
 21
-10.67206676567211
 31
0.0
  0
LINE
  5
44
  8
TRIANGLE
  6
CONTINUOUS
 62
     1
 10
31.0558150165898
 20
-3.313518161977475
 30
0.0
 11
32.41382907415665
 21
-8.411636509236656
 31
0.0
  0
ARC
  5
45
  8
TRIANGLE
  6
CONTINUOUS
 62
     1
 10
30.16516954349615
 20
-9.0377044660796
 30
0.0
 40
2.334187389953048
 50
315.558175537436
 51
15.55817553743583
  0
POINT
  5
46
  8
TRIANGLE
  6
CONTINUOUS
 62
     1
 10
25.74550259733942
 20
0.7214595791259022
 30
0.0
  0
ARC
  5
47
  8
TRIANGLE
  6
CONTINUOUS
 62
     1
 10
24.90912136736412
 20
-5.920003405542676
 30
0.0
 40
6.676496696797984
 50
22.97921312605668
 51
82.82233926482196
  0
POINT
  5
48
  8
TRIANGLE
  6
CONTINUOUS
 62
     1
 10
21.35849367649694
 20
-0.1373980702309474
 30
0.0
  0
LINE
  5
49
  8
TRIANGLE
  6
CONTINUOUS
 62
     1
 10
21.35001209744458
 20
-0.1118142057672191
 30
0.0
 11
25.73484404691899
 21
0.729756739582367
 31
0.0
  0
LINE
  5
4A
  8
TRIANGLE
  6
CONTINUOUS
 62
     1
 10
17.72999411261487
 20
-3.117915439729445
 30
0.0
 11
21.35001209744458
 21
-0.1118142057672191
 31
0.0
  0
LINE
  5
4B
  8
TRIANGLE
  6
CONTINUOUS
 62
     1
 10
18.0273357476222
 20
-9.988070598293769
 30
0.0
 11
22.30205778126056
 21
-13.49645334752905
 31
0.0
  0
ARC
  5
4C
  8
TRIANGLE
  6
CONTINUOUS
 62
     1
 10
23.78095812751759
 20
-6.307645040465878
 30
0.0
 40
6.830058768205869
 50
150.9678289196285
 51
212.6058695116102
  0
LINE
  5
4D
  8
SCALE
  6
CONTINUOUS
 62
   133
 10
19.05326159076825
 20
-2.500033515231517
 30
0.0
 11
24.39071010708778
 21
-6.422917573630185
 31
0.0
  0
CIRCLE
  5
4E
  8
SCALE
  6
CONTINUOUS
 62
   133
 10
24.39071010708778
 20
-6.422917573630185
 30
0.0
 40
0.25
  0
LINE
  5
4F
  8
SCALE
  6
CONTINUOUS
 62
   133
 10
24.39071010708778
 20
-6.422917573630185
 30
0.0
 11
24.39071010708778
 21
-2.499453892016307
 31
0.0
  0
LINE
  5
50
  8
SCALE
  6
CONTINUOUS
 62
   133
 10
24.39071010708778
 20
-6.422917573630185
 30
0.0
 11
29.70526159076825
 21
-2.499719515102385
 31
0.0
  0
LINE
  5
51
  8
SCALE
  6
CONTINUOUS
 62
   133
 10
24.14071010708778
 20
-6.422917573630185
 30
0.0
 11
24.64071010708778
 21
-6.422917573630185
 31
0.0
  0
LINE
  5
52
  8
SCALE
  6
CONTINUOUS
 62
   133
 10
24.39071010708778
 20
-6.172917573630185
 30
0.0
 11
24.39071010708778
 21
-6.672917573630185
 31
0.0
  0
LINE
  5
53
  8
SCALE
  6
CONTINUOUS
 62
   133
 10
19.05326159076825
 20
-2.499719515102385
 30
0.0
 11
29.70526159076825
 21
-2.499719515102385
 31
0.0
  0
CIRCLE
  5
54
  8
HOLEPAT
  6
CONTINUOUS
 62
   133
 10
30.54024267237725
 20
-3.355471489579077
 30
0.0
 40
0.25
  0
LINE
  5
56
  8
HOLEPAT
  6
CONTINUOUS
 62
   133
 10
30.54024267237725
 20
-3.105471489579077
 30
0.0
 11
30.54024267237725
 21
-3.605471489579077
 31
0.0
  0
LINE
  5
57
  8
HOLEPAT
  6
CONTINUOUS
 62
   133
 10
30.29024267237725
 20
-3.355471489579077
 30
0.0
 11
30.79024267237725
 21
-3.355471489579077
 31
0.0
  0
CIRCLE
  5
58
  8
HOLEPAT
  6
CONTINUOUS
 62
   133
 10
29.70526159076825
 20
-2.499719515102385
 30
0.0
 40
0.25
  0
LINE
  5
59
  8
HOLEPAT
  6
CONTINUOUS
 62
   133
 10
29.70526159076825
 20
-2.249719515102385
 30
0.0
 11
29.70526159076825
 21
-2.749719515102385
 31
0.0
  0
LINE
  5
5A
  8
HOLEPAT
  6
CONTINUOUS
 62
   133
 10
29.45526159076825
 20
-2.499719515102385
 30
0.0
 11
29.95526159076825
 21
-2.499719515102385
 31
0.0
  0
CIRCLE
  5
5B
  8
HOLEPAT
  6
CONTINUOUS
 62
   133
 10
25.74966722586078
 20
0.3126388526598633
 30
0.0
 40
0.2500000000000001
  0
LINE
  5
5C
  8
HOLEPAT
  6
CONTINUOUS
 62
   133
 10
25.74966722586078
 20
0.5626388526598634
 30
0.0
 11
25.74966722586078
 21
0.0626388526598633
 31
0.0
  0
LINE
  5
5D
  8
HOLEPAT
  6
CONTINUOUS
 62
   133
 10
25.49966722586078
 20
0.3126388526598633
 30
0.0
 11
25.99966722586078
 21
0.3126388526598633
 31
0.0
  0
CIRCLE
  5
5E
  8
HOLEPAT
  6
CONTINUOUS
 62
   133
 10
18.25707190728735
 20
-3.373984206733665
 30
0.0
 40
0.25
  0
LINE
  5
5F
  8
HOLEPAT
  6
CONTINUOUS
 62
   133
 10
18.25707190728735
 20
-3.123984206733665
 30
0.0
 11
18.25707190728735
 21
-3.623984206733665
 31
0.0
  0
LINE
  5
60
  8
HOLEPAT
  6
CONTINUOUS
 62
   133
 10
18.00707190728735
 20
-3.373984206733665
 30
0.0
 11
18.50707190728735
 21
-3.373984206733665
 31
0.0
  0
LINE
  5
61
  8
HOLEPAT
  6
CONTINUOUS
 62
   133
 10
22.34023098911938
 20
-12.74640745907816
 30
0.0
 11
22.34023098911938
 21
-13.24640745907816
 31
0.0
  0
LINE
  5
62
  8
HOLEPAT
  6
CONTINUOUS
 62
    93
 10
22.34023098911938
 20
-12.77790745907816
 30
0.0
 11
22.34023098911938
 21
-13.21490745907816
 31
0.0
  0
LINE
  5
63
  8
HOLEPAT
  6
CONTINUOUS
 62
    93
 10
22.12173098911939
 20
-12.99640745907816
 30
0.0
 11
22.55803408458286
 21
-12.99640745907816
 31
0.0
  0
CIRCLE
  5
64
  8
HOLEPAT
  6
CONTINUOUS
 62
    93
 10
22.34023098911938
 20
-12.99640745907816
 30
0.0
 40
0.2185000000000006
  0
LINE
  5
65
  8
HOLEPAT
  6
CONTINUOUS
 62
   133
 10
18.36556485686344
 20
-9.473222603722423
 30
0.0
 11
18.36556485686344
 21
-9.973222603722423
 31
0.0
  0
LINE
  5
66
  8
HOLEPAT
  6
CONTINUOUS
 62
    93
 10
18.36556485686344
 20
-9.504722603722422
 30
0.0
 11
18.36556485686344
 21
-9.941722603722422
 31
0.0
  0
LINE
  5
67
  8
HOLEPAT
  6
CONTINUOUS
 62
    93
 10
18.14706485686345
 20
-9.723222603722423
 30
0.0
 11
18.58336795232692
 21
-9.723222603722423
 31
0.0
  0
CIRCLE
  5
68
  8
HOLEPAT
  6
CONTINUOUS
 62
    93
 10
18.36556485686344
 20
-9.723222603722423
 30
0.0
 40
0.2185000000000006
  0
LINE
  5
69
  8
HOLEPAT
  6
CONTINUOUS
 62
   133
 10
19.05353192458685
 20
-2.249453892016308
 30
0.0
 11
19.05353192458685
 21
-2.749453892016308
 31
0.0
  0
LINE
  5
6A
  8
HOLEPAT
  6
CONTINUOUS
 62
    93
 10
19.05353192458685
 20
-2.280953892016307
 30
0.0
 11
19.05353192458685
 21
-2.717953892016307
 31
0.0
  0
LINE
  5
6B
  8
HOLEPAT
  6
CONTINUOUS
 62
    93
 10
18.83503192458685
 20
-2.499453892016308
 30
0.0
 11
19.27133502005032
 21
-2.499453892016308
 31
0.0
  0
CIRCLE
  5
6C
  8
HOLEPAT
  6
CONTINUOUS
 62
    93
 10
19.05353192458685
 20
-2.499453892016308
 30
0.0
 40
0.2185000000000006
  0
CIRCLE
  5
6D
  8
HOLEPAT
  6
CONTINUOUS
 62
   133
 10
28.59243425186885
 20
-11.86733578233127
 30
0.0
 40
0.25
  0
LINE
  5
6E
  8
HOLEPAT
  6
CONTINUOUS
 62
   133
 10
28.59243425186885
 20
-11.61733578233127
 30
0.0
 11
28.59243425186885
 21
-12.11733578233127
 31
0.0
  0
LINE
  5
6F
  8
HOLEPAT
  6
CONTINUOUS
 62
   133
 10
28.34243425186885
 20
-11.86733578233127
 30
0.0
 11
28.84243425186885
 21
-11.86733578233127
 31
0.0
  0
TEXT
  5
72
  8
DIMENSIONS
  6
CONTINUOUS
 62
    93
 10
26.80100655705828
 20
-0.7112206692411753
 30
0.0
 40
0.25
  1
TOP
  7
ENGINEER
  0
TEXT
  5
73
  8
DIMENSIONS
  6
CONTINUOUS
 62
    93
 10
26.80100655705828
 20
-1.086220669241175
 30
0.0
 40
0.25
  1
MOTOR SIDE
  7
ENGINEER
  0
POINT
  5
74
  8
JPEG
  6
CONTINUOUS
 62
    93
 10
24.39071010708778
 20
-6.422917573630185
 30
0.0
  0
CIRCLE
  5
75
  8
JPEG
  6
CONTINUOUS
 62
    93
 10
24.39071010708778
 20
-6.422917573630185
 30
0.0
 40
3.0
  0
CIRCLE
  5
76
  8
JPEG
  6
GC___6
 62
    93
 10
24.39071010708778
 20
-6.422917573630185
 30
0.0
 40
3.625
  0
CIRCLE
  5
78
  8
JPEG
  6
CONTINUOUS
 62
    93
 10
24.39071010708778
 20
-6.422917573630185
 30
0.0
 40
4.250000000000001
  0
LINE
  5
79
  8
JPEG
  6
GC___6
 62
    93
 10
24.39071010708778
 20
-6.422917573630185
 30
0.0
 11
24.39071010708778
 21
-6.422917573630185
 31
0.0
  0
CIRCLE
  5
7A
  8
JPEG
  6
CONTINUOUS
 62
    93
 10
26.58399447909746
 20
-3.537841019081687
 30
0.0
 40
0.2499999999999999
  0
CIRCLE
  5
7B
  8
JPEG
  6
CONTINUOUS
 62
    93
 10
21.50563355253929
 20
-4.229633201620514
 30
0.0
 40
0.250000000000002
  0
CIRCLE
  5
7C
  8
JPEG
  6
CONTINUOUS
 62
    93
 10
22.19742587944113
 20
-9.307993938434805
 30
0.0
 40
0.2500000000000013
  0
CIRCLE
  5
7D
  8
JPEG
  6
CONTINUOUS
 62
    93
 10
27.27578628214852
 20
-8.616201656913832
 30
0.0
 40
0.2500000000000031
  0
POINT
  5
7E
  8
JPEG
  6
CONTINUOUS
 62
    93
 10
24.39071010708778
 20
-6.422917573630185
 30
0.0
  0
LINE
  5
7F
  8
JPEG
  6
GC___6
 62
    93
 10
28.80139105999148
 20
-0.6257282632848469
 30
0.0
 11
19.95682509577264
 21
-12.25060519496555
 31
0.0
  0
LINE
  5
80
  8
JPEG
  6
GC___6
 62
    93
 10
19.48542993658263
 20
-2.690828683917109
 30
0.0
 11
29.18493662645372
 21
-10.0705134103122
 31
0.0
  0
LINE
  5
81
  8
DIMENSIONS
  6
CONTINUOUS
 62
    93
 10
19.05326159076825
 20
-2.258757969727662
 30
0.0
 11
19.26976793990358
 21
-2.133757966591301
 31
0.0
  0
LINE
  5
82
  8
DIMENSIONS
  6
CONTINUOUS
 62
    93
 10
19.05326159076825
 20
-2.258757969727662
 30
0.0
 11
19.26976793990358
 21
-2.383757972864023
 31
0.0
  0
LINE
  5
83
  8
DIMENSIONS
  6
CONTINUOUS
 62
    93
 10
24.39071010708778
 20
-2.258757969727662
 30
0.0
 11
24.17420375795246
 21
-2.383757972864023
 31
0.0
  0
LINE
  5
84
  8
DIMENSIONS
  6
CONTINUOUS
 62
    93
 10
24.39071010708778
 20
-2.258757969727662
 30
0.0
 11
24.17420375795246
 21
-2.133757966591301
 31
0.0
  0
LINE
  5
85
  8
DIMENSIONS
  6
CONTINUOUS
 62
    93
 10
19.05326159076825
 20
-2.437219515102385
 30
0.0
 11
19.05326159076825
 21
-2.008757969727662
 31
0.0
  0
LINE
  5
86
  8
DIMENSIONS
  6
CONTINUOUS
 62
    93
 10
24.39071010708778
 20
-2.436953892016307
 30
0.0
 11
24.39071010708778
 21
-2.008757969727662
 31
0.0
  0
TEXT
  5
87
  8
DIMENSIONS
  6
CONTINUOUS
 62
    93
 10
21.25048175857417
 20
-2.384370847560853
 30
0.0
 40
0.25
  1
5.337"
  7
ENGINEER
  0
LINE
  5
88
  8
DIMENSIONS
  6
CONTINUOUS
 62
    93
 10
19.05326159076825
 20
-2.258757969727662
 30
0.0
 11
21.21923175857417
 21
-2.258757969727662
 31
0.0
  0
LINE
  5
89
  8
DIMENSIONS
  6
CONTINUOUS
 62
    93
 10
22.22473993928186
 20
-2.258757969727662
 30
0.0
 11
24.39071010708778
 21
-2.258757969727662
 31
0.0
  0
LINE
  5
8A
  8
DIMENSIONS
  6
CONTINUOUS
 62
    93
 10
24.39071010708778
 20
-2.258757969727662
 30
0.0
 11
24.60721645622311
 21
-2.133757966591301
 31
0.0
  0
LINE
  5
8B
  8
DIMENSIONS
  6
CONTINUOUS
 62
    93
 10
24.39071010708778
 20
-2.258757969727662
 30
0.0
 11
24.60721645622311
 21
-2.383757972864023
 31
0.0
  0
LINE
  5
8C
  8
DIMENSIONS
  6
CONTINUOUS
 62
    93
 10
29.70526159076825
 20
-2.258757969727662
 30
0.0
 11
29.48875524163292
 21
-2.383757972864023
 31
0.0
  0
LINE
  5
8D
  8
DIMENSIONS
  6
CONTINUOUS
 62
    93
 10
29.70526159076825
 20
-2.258757969727662
 30
0.0
 11
29.48875524163292
 21
-2.133757966591301
 31
0.0
  0
LINE
  5
8E
  8
DIMENSIONS
  6
CONTINUOUS
 62
    93
 10
24.39071010708778
 20
-2.436953892016307
 30
0.0
 11
24.39071010708778
 21
-2.008757969727662
 31
0.0
  0
LINE
  5
8F
  8
DIMENSIONS
  6
CONTINUOUS
 62
    93
 10
29.70526159076825
 20
-2.437219515102385
 30
0.0
 11
29.70526159076825
 21
-2.008757969727662
 31
0.0
  0
TEXT
  5
90
  8
DIMENSIONS
  6
CONTINUOUS
 62
    93
 10
26.64610586823351
 20
-2.384370847560853
 30
0.0
 40
0.25
  1
5.315"
  7
ENGINEER
  0
LINE
  5
91
  8
DIMENSIONS
  6
CONTINUOUS
 62
    93
 10
24.39071010708778
 20
-2.258757969727662
 30
0.0
 11
26.61485586823351
 21
-2.258757969727662
 31
0.0
  0
LINE
  5
92
  8
DIMENSIONS
  6
CONTINUOUS
 62
    93
 10
27.48111582962252
 20
-2.258757969727662
 30
0.0
 11
29.70526159076825
 21
-2.258757969727662
 31
0.0
  0
LINE
  5
93
  8
DIMENSIONS
  6
CONTINUOUS
 62
    93
 10
19.05326159076825
 20
-1.824797679611441
 30
0.0
 11
19.26976793990358
 21
-1.69979767647508
 31
0.0
  0
LINE
  5
94
  8
DIMENSIONS
  6
CONTINUOUS
 62
    93
 10
19.05326159076825
 20
-1.824797679611441
 30
0.0
 11
19.26976793990358
 21
-1.949797682747802
 31
0.0
  0
LINE
  5
95
  8
DIMENSIONS
  6
CONTINUOUS
 62
    93
 10
29.70526159076825
 20
-1.824797679611441
 30
0.0
 11
29.48875524163292
 21
-1.949797682747803
 31
0.0
  0
LINE
  5
96
  8
DIMENSIONS
  6
CONTINUOUS
 62
    93
 10
29.70526159076825
 20
-1.824797679611441
 30
0.0
 11
29.48875524163292
 21
-1.69979767647508
 31
0.0
  0
LINE
  5
97
  8
DIMENSIONS
  6
CONTINUOUS
 62
    93
 10
19.05326159076825
 20
-2.187533515231517
 30
0.0
 11
19.05326159076825
 21
-1.574797679611441
 31
0.0
  0
LINE
  5
98
  8
DIMENSIONS
  6
CONTINUOUS
 62
    93
 10
29.70526159076825
 20
-2.437219515102385
 30
0.0
 11
29.70526159076825
 21
-1.574797679611441
 31
0.0
  0
TEXT
  5
99
  8
DIMENSIONS
  6
CONTINUOUS
 62
    93
 10
23.86554596959114
 20
-1.950458277889487
 30
0.0
 40
0.25
  1
10.652"
 50
360.0
  7
ENGINEER
  0
LINE
  5
9A
  8
DIMENSIONS
  6
CONTINUOUS
 62
    93
 10
19.05326159076825
 20
-1.824797679611441
 30
0.0
 11
23.83429596959114
 21
-1.824797679611441
 31
0.0
  0
LINE
  5
9B
  8
DIMENSIONS
  6
CONTINUOUS
 62
    93
 10
24.92422721194535
 20
-1.824797679611441
 30
0.0
 11
29.70526159076825
 21
-1.824797679611441
 31
0.0
  0
LINE
  5
9C
  8
DIMENSIONS
  6
CONTINUOUS
 62
    93
 10
24.94937027657203
 20
-6.422917573630185
 30
0.0
 11
24.82437027343567
 21
-6.206411224494855
 31
0.0
  0
LINE
  5
9D
  8
DIMENSIONS
  6
CONTINUOUS
 62
    93
 10
24.94937027657203
 20
-6.422917573630185
 30
0.0
 11
25.07437027970839
 21
-6.206411224494855
 31
0.0
  0
LINE
  5
9E
  8
DIMENSIONS
  6
CONTINUOUS
 62
    93
 10
24.94937027657203
 20
-2.499453892016307
 30
0.0
 11
25.07437027970839
 21
-2.715960241151638
 31
0.0
  0
LINE
  5
9F
  8
DIMENSIONS
  6
CONTINUOUS
 62
    93
 10
24.94937027657203
 20
-2.499453892016307
 30
0.0
 11
24.82437027343567
 21
-2.715960241151637
 31
0.0
  0
LINE
  5
A0
  8
DIMENSIONS
  6
CONTINUOUS
 62
    93
 10
24.45321010708778
 20
-6.422917573630185
 30
0.0
 11
25.19937027657203
 21
-6.422917573630185
 31
0.0
  0
LINE
  5
A1
  8
DIMENSIONS
  6
CONTINUOUS
 62
    93
 10
24.45321010708778
 20
-2.499453892016307
 30
0.0
 11
25.19937027657203
 21
-2.499453892016307
 31
0.0
  0
TEXT
  5
A2
  8
DIMENSIONS
  6
CONTINUOUS
 62
    93
 10
24.47363478915565
 20
-4.586417316309557
 30
0.0
 40
0.25
  1
3.923"
  7
ENGINEER
  0
LINE
  5
A3
  8
DIMENSIONS
  6
CONTINUOUS
 62
    93
 10
24.94937027657203
 20
-6.422917573630185
 30
0.0
 11
24.94937027657203
 21
-4.617667316309557
 31
0.0
  0
LINE
  5
A4
  8
DIMENSIONS
  6
CONTINUOUS
 62
    93
 10
24.94937027657203
 20
-4.304704149336935
 30
0.0
 11
24.94937027657203
 21
-2.499453892016307
 31
0.0
  0
LINE
  5
A5
  8
DIMENSIONS
  6
CONTINUOUS
 62
    93
 10
18.7219411976323
 20
-2.950475636610426
 30
0.0
 11
18.97042324068041
 21
-2.97798334975853
 31
0.0
  0
LINE
  5
A6
  8
DIMENSIONS
  6
CONTINUOUS
 62
    93
 10
18.7219411976323
 20
-2.950475636610426
 30
0.0
 11
18.82235983413696
 21
-3.179421257757773
 31
0.0
  0
LINE
  5
A7
  8
DIMENSIONS
  6
CONTINUOUS
 62
    93
 10
24.05938971395183
 20
-6.873673695138229
 30
0.0
 11
23.81090767090373
 21
-6.846165981990125
 31
0.0
  0
LINE
  5
A8
  8
DIMENSIONS
  6
CONTINUOUS
 62
    93
 10
24.05938971395183
 20
-6.873673695138229
 30
0.0
 11
23.95897107744717
 21
-6.644728073990882
 31
0.0
  0
LINE
  5
A9
  8
DIMENSIONS
  6
CONTINUOUS
 62
    93
 10
19.01624574006115
 20
-2.550078990838631
 30
0.0
 11
18.5738777948039
 21
-3.151913539555412
 31
0.0
  0
LINE
  5
AA
  8
DIMENSIONS
  6
CONTINUOUS
 62
    93
 10
24.35369425638069
 20
-6.473277049366432
 30
0.0
 11
23.91132631112343
 21
-7.075111598083216
 31
0.0
  0
TEXT
  5
AB
  8
DIMENSIONS
  6
CONTINUOUS
 62
    93
 10
21.77865750253142
 20
-5.683998490439391
 30
0.0
 40
0.25
  1
6.624"
  7
ENGINEER
  0
LINE
  5
AC
  8
DIMENSIONS
  6
CONTINUOUS
 62
    93
 10
18.7219411976323
 20
-2.950475636610426
 30
0.0
 11
22.05693735111153
 21
-5.401806154276839
 31
0.0
  0
LINE
  5
AD
  8
DIMENSIONS
  6
CONTINUOUS
 62
    93
 10
22.48337066065755
 20
-5.715248490439391
 30
0.0
 11
24.05938971395183
 21
-6.873673695138229
 31
0.0
  0
LINE
  5
AE
  8
DIMENSIONS
  6
CONTINUOUS
 62
    93
 10
19.18202075981867
 20
-2.714325550513851
 30
0.0
 11
19.15688087850094
 21
-2.963058311458867
 31
0.0
  0
LINE
  5
AF
  8
DIMENSIONS
  6
CONTINUOUS
 62
    93
 10
19.18202075981867
 20
-2.714325550513851
 30
0.0
 11
18.95404192645556
 21
-2.816920148511973
 31
0.0
  0
LINE
  5
B0
  8
DIMENSIONS
  6
CONTINUOUS
 62
    93
 10
19.18202075981867
 20
-2.714325550513851
 30
0.0
 11
17.96260960570088
 21
-4.406861405802953
 31
0.0
  0
LINE
  5
B1
  8
DIMENSIONS
  6
CONTINUOUS
 62
    93
 10
17.96260960570088
 20
-4.406861405802953
 30
0.0
 11
18.21260960570088
 21
-4.406861405802953
 31
0.0
  0
TEXT
  5
B2
  8
DIMENSIONS
  6
CONTINUOUS
 62
    93
 10
18.27510960570088
 20
-4.531861405802953
 30
0.0
 40
0.25
  1
DOWEL A
  7
ENGINEER
  0
TEXT
  5
B3
  8
DIMENSIONS
  6
CONTINUOUS
 62
    93
 10
18.27510960570088
 20
-4.906861405802959
 30
0.0
 40
0.25
  1
BORE .375
  7
ENGINEER
  0
LINE
  5
B4
  8
DIMENSIONS
  6
CONTINUOUS
 62
    93
 10
29.6232738228542
 20
-2.734752954657939
 30
0.0
 11
29.64562092478398
 21
-2.983752165571026
 31
0.0
  0
LINE
  5
B5
  8
DIMENSIONS
  6
CONTINUOUS
 62
    93
 10
29.6232738228542
 20
-2.734752954657939
 30
0.0
 11
29.41880772747831
 21
-2.878605712162747
 31
0.0
  0
LINE
  5
B6
  8
DIMENSIONS
  6
CONTINUOUS
 62
    93
 10
29.6232738228542
 20
-2.734752954657939
 30
0.0
 11
28.89840891662964
 21
-4.298371333273898
 31
0.0
  0
LINE
  5
B7
  8
DIMENSIONS
  6
CONTINUOUS
 62
    93
 10
28.89840891662964
 20
-4.298371333273898
 30
0.0
 11
29.14840891662964
 21
-4.298371333273898
 31
0.0
  0
TEXT
  5
B8
  8
DIMENSIONS
  6
CONTINUOUS
 62
    93
 10
29.21090891662964
 20
-4.423371333273898
 30
0.0
 40
0.25
  1
DOWEL B
  7
ENGINEER
  0
TEXT
  5
B9
  8
DIMENSIONS
  6
CONTINUOUS
 62
    93
 10
29.21090891662964
 20
-4.798371333273898
 30
0.0
 40
0.25
  1
BORE .375
  7
ENGINEER
  0
LINE
  5
BA
  8
DIMENSIONS
  6
CONTINUOUS
 62
    93
 10
27.3823226226246
 20
-6.647092855236974
 30
0.0
 11
27.52205643601336
 21
-6.439790029892421
 31
0.0
  0
LINE
  5
BB
  8
DIMENSIONS
  6
CONTINUOUS
 62
    93
 10
27.3823226226246
 20
-6.647092855236974
 30
0.0
 11
27.63171904184064
 21
-6.66445448195267
 31
0.0
  0
LINE
  5
BC
  8
DIMENSIONS
  6
CONTINUOUS
 62
    93
 10
27.3823226226246
 20
-6.647092855236974
 30
0.0
 11
28.75062193621726
 21
-5.979202288196969
 31
0.0
  0
LINE
  5
BD
  8
DIMENSIONS
  6
CONTINUOUS
 62
    93
 10
28.75062193621726
 20
-5.979202288196969
 30
0.0
 11
29.00062193621726
 21
-5.979202288196969
 31
0.0
  0
TEXT
  5
BE
  8
DIMENSIONS
  6
CONTINUOUS
 62
    93
 10
29.06312193621726
 20
-6.104202288196969
 30
0.0
 40
0.25
  1
HUB CUTOUT
  7
ENGINEER
  0
TEXT
  5
BF
  8
DIMENSIONS
  6
CONTINUOUS
 62
    93
 10
29.06312193621726
 20
-6.479202288196969
 30
0.0
 40
0.25
  1
6"DIA.
  7
ENGINEER
  0
LINE
  5
C0
  8
DIMENSIONS
  6
CONTINUOUS
 62
    93
 10
27.78140932248445
 20
-7.705018907655077
 30
0.0
 11
27.89448499060033
 21
-7.482052781797026
 31
0.0
  0
LINE
  5
C1
  8
DIMENSIONS
  6
CONTINUOUS
 62
    93
 10
27.78140932248445
 20
-7.705018907655077
 30
0.0
 11
28.03104148611163
 21
-7.691462253096757
 31
0.0
  0
LINE
  5
C2
  8
DIMENSIONS
  6
CONTINUOUS
 62
    93
 10
27.78140932248445
 20
-7.705018907655077
 30
0.0
 11
28.80325315855476
 21
-7.038671715488865
 31
0.0
  0
LINE
  5
C3
  8
DIMENSIONS
  6
CONTINUOUS
 62
    93
 10
28.80325315855476
 20
-7.038671715488865
 30
0.0
 11
29.05325315855476
 21
-7.038671715488865
 31
0.0
  0
TEXT
  5
C4
  8
DIMENSIONS
  6
CONTINUOUS
 62
    93
 10
29.11575315855476
 20
-7.163671715488865
 30
0.0
 40
0.25
  1
PLATE TO RING
  7
ENGINEER
  0
TEXT
  5
C5
  8
DIMENSIONS
  6
CONTINUOUS
 62
    93
 10
29.11575315855476
 20
-7.538671715488865
 30
0.0
 40
0.25
  1
BOLT CIRCLE DIA.
  7
ENGINEER
  0
TEXT
  5
C6
  8
DIMENSIONS
  6
CONTINUOUS
 62
    93
 10
29.11575315855476
 20
-7.913671715488865
 30
0.0
 40
0.25
  1
DRILL 17/32" x 4
  7
ENGINEER
  0
TEXT
  5
C7
  8
DIMENSIONS
  6
CONTINUOUS
 62
    93
 10
29.11575315855476
 20
-8.288671715488864
 30
0.0
 40
0.25
  1
TIMES.  CHECK
  7
ENGINEER
  0
TEXT
  5
C8
  8
DIMENSIONS
  6
CONTINUOUS
 62
    93
 10
29.11575315855476
 20
-8.663671715488864
 30
0.0
 40
0.25
  1
LAYOUT DRAWING
  7
ENGINEER
  0
TEXT
  5
C9
  8
DIMENSIONS
  6
CONTINUOUS
 62
    93
 10
29.11575315855476
 20
-9.038671715488864
 30
0.0
 40
0.25
  1
FOR COUNTERSINK
  7
ENGINEER
  0
TEXT
  5
CA
  8
DIMENSIONS
  6
CONTINUOUS
 62
    93
 10
29.11575315855476
 20
-9.413671715488864
 30
0.0
 40
0.25
  1
ON OTHER SIDE OF
  7
ENGINEER
  0
TEXT
  5
CB
  8
DIMENSIONS
  6
CONTINUOUS
 62
    93
 10
29.11575315855476
 20
-9.788671715488864
 30
0.0
 40
0.25
  1
PLATE
  7
ENGINEER
  0
TEXT
  5
CC
  8
DIMENSIONS
  6
CONTINUOUS
 62
    93
 10
21.47440865873963
 20
-0.4734292826153723
 30
0.0
 40
0.25
  1
1968 DATSUN 1200
  7
ENGINEER
  0
TEXT
  5
CD
  8
DIMENSIONS
  6
CONTINUOUS
 62
    93
 10
21.47440865873963
 20
-0.8484292826153723
 30
0.0
 40
0.25
  1
ROADSTER TO AN ADC 8"
  7
ENGINEER
  0
TEXT
  5
CE
  8
DIMENSIONS
  6
CONTINUOUS
 62
    93
 10
21.47440865873963
 20
-1.223429282615372
 30
0.0
 40
0.25
  1
8" MOTOR PROFILE PLATE
  7
ENGINEER
  0
TEXT
  5
CF
  8
DIMENSIONS
  6
CONTINUOUS
 62
    93
 10
21.47440865873963
 20
-1.598429282615372
 30
0.0
 40
0.25
  1
PATTERN
  7
ENGINEER
  0
TEXT
  5
D0
  8
DIMENSIONS
  6
CONTINUOUS
 62
    93
 10
17.18924111249829
 20
-6.082737971624297
 30
0.0
 40
0.25
  1
DRILL ALL HOLES
  7
ENGINEER
  0
TEXT
  5
D1
  8
DIMENSIONS
  6
CONTINUOUS
 62
    93
 10
17.18924111249829
 20
-6.457737971624297
 30
0.0
 40
0.25
  1
7/16" UNLESS
  7
ENGINEER
  0
TEXT
  5
D2
  8
DIMENSIONS
  6
CONTINUOUS
 62
    93
 10
17.18924111249829
 20
-6.832737971624297
 30
0.0
 40
0.25
  1
NOTED
  7
ENGINEER
  0
LINE
  5
D3
  8
DIMENSIONS
  6
CONTINUOUS
 62
    93
 10
18.59037523927851
 20
-9.867819038982162
 30
0.0
 11
18.74885915468622
 21
-9.67447259200927
 31
0.0
  0
LINE
  5
D4
  8
DIMENSIONS
  6
CONTINUOUS
 62
    93
 10
18.59037523927851
 20
-9.867819038982162
 30
0.0
 11
18.83706013061671
 21
-9.908396919477088
 31
0.0
  0
LINE
  5
D5
  8
DIMENSIONS
  6
CONTINUOUS
 62
    93
 10
18.59037523927851
 20
-9.867819038982162
 30
0.0
 11
19.26251893834519
 21
-9.614387808186528
 31
0.0
  0
LINE
  5
D6
  8
DIMENSIONS
  6
CONTINUOUS
 62
    93
 10
19.26251893834519
 20
-9.614387808186528
 30
0.0
 11
19.51251893834519
 21
-9.614387808186528
 31
0.0
  0
TEXT
  5
D7
  8
DIMENSIONS
  6
CONTINUOUS
 62
    93
 10
19.57501893834519
 20
-9.739387808186528
 30
0.0
 40
0.25
  1
DRILL 3/8"
  7
ENGINEER
  0
LINE
  5
D8
  8
DIMENSIONS
  6
CONTINUOUS
 62
    93
 10
22.20538263445924
 20
-12.84102776606342
 30
0.0
 11
21.9669112761886
 21
-12.76598503633858
 31
0.0
  0
LINE
  5
D9
  8
DIMENSIONS
  6
CONTINUOUS
 62
    93
 10
22.20538263445924
 20
-12.84102776606342
 30
0.0
 11
22.15113587270551
 21
-12.59698414529198
 31
0.0
  0
LINE
  5
DA
  8
DIMENSIONS
  6
CONTINUOUS
 62
    93
 10
22.20538263445924
 20
-12.84102776606342
 30
0.0
 11
21.25691253721519
 21
-11.80711889202702
 31
0.0
  0
LINE
  5
DB
  8
DIMENSIONS
  6
CONTINUOUS
 62
    93
 10
21.25691253721519
 20
-11.80711889202702
 30
0.0
 11
21.50691253721519
 21
-11.80711889202702
 31
0.0
  0
TEXT
  5
DC
  8
DIMENSIONS
  6
CONTINUOUS
 62
    93
 10
21.56941253721519
 20
-11.93211889202702
 30
0.0
 40
0.25
  1
DRILL 3/8"
  7
ENGINEER
  0
LINE
  5
DD
  8
HOLEPAT
  6
CONTINUOUS
 62
    93
 10
24.86828016083921
 20
-7.069856779824235
 30
0.0
 11
24.91825437370635
 21
-6.955281136477535
 31
0.0
  0
LINE
  5
DE
  8
HOLEPAT
  6
CONTINUOUS
 62
    93
 10
24.86828016083921
 20
-7.069856779824235
 30
0.0
 11
24.99249268547184
 21
-7.055847899626699
 31
0.0
  0
LINE
  5
DF
  8
HOLEPAT
  6
CONTINUOUS
 62
    93
 10
30.18283164451967
 20
-3.146658721296434
 30
0.0
 11
30.13285743165254
 21
-3.261234364643134
 31
0.0
  0
LINE
  5
E0
  8
HOLEPAT
  6
CONTINUOUS
 62
    93
 10
30.18283164451967
 20
-3.146658721296434
 30
0.0
 11
30.05861911988704
 21
-3.16066760149397
 31
0.0
  0
LINE
  5
E1
  8
HOLEPAT
  6
CONTINUOUS
 62
    93
 10
24.42782926203918
 20
-6.473200953943112
 30
0.0
 11
25.01675678064478
 21
-7.270990301075944
 31
0.0
  0
LINE
  5
E2
  8
HOLEPAT
  6
CONTINUOUS
 62
    93
 10
29.74238074571964
 20
-2.550002895415312
 30
0.0
 11
30.33130826432524
 21
-3.347792242548143
 31
0.0
  0
TEXT
  5
E3
  8
HOLEPAT
  6
CONTINUOUS
 62
    93
 10
26.77198793884087
 20
-5.233852411200098
 30
0.0
 40
0.25
  1
6.606"
  7
ENGINEER
  0
LINE
  5
E4
  8
HOLEPAT
  6
CONTINUOUS
 62
    93
 10
24.86828016083921
 20
-7.069856779824235
 30
0.0
 11
27.31308663360991
 21
-5.265102411200098
 31
0.0
  0
LINE
  5
E5
  8
HOLEPAT
  6
CONTINUOUS
 62
    93
 10
27.73802517174897
 20
-4.951413089920573
 30
0.0
 11
30.18283164451967
 21
-3.146658721296434
 31
0.0
  0
POINT
  5
E6
  8
JPEG
  6
CONTINUOUS
 62
    93
 10
24.39071010708778
 20
-6.422917573630185
 30
0.0
  0
CIRCLE
  5
E7
  8
JPEG
  6
CONTINUOUS
 62
    93
 10
24.39071010708778
 20
-6.422917573630185
 30
0.0
 40
3.0
  0
CIRCLE
  5
E8
  8
JPEG
  6
GC___6
 62
    93
 10
24.39071010708778
 20
-6.422917573630185
 30
0.0
 40
3.625
  0
CIRCLE
  5
E9
  8
JPEG
  6
CONTINUOUS
 62
    93
 10
24.39071010708778
 20
-6.422917573630185
 30
0.0
 40
4.250000000000001
  0
LINE
  5
EA
  8
JPEG
  6
GC___6
 62
    93
 10
24.39071010708778
 20
-6.422917573630185
 30
0.0
 11
24.39071010708778
 21
-6.422917573630185
 31
0.0
  0
CIRCLE
  5
EB
  8
JPEG
  6
CONTINUOUS
 62
    93
 10
26.58399447909746
 20
-3.537841019081687
 30
0.0
 40
0.2499999999999999
  0
CIRCLE
  5
EC
  8
JPEG
  6
CONTINUOUS
 62
    93
 10
21.50563355253929
 20
-4.229633201620514
 30
0.0
 40
0.250000000000002
  0
CIRCLE
  5
ED
  8
JPEG
  6
CONTINUOUS
 62
    93
 10
22.19742587944113
 20
-9.307993938434805
 30
0.0
 40
0.2500000000000013
  0
CIRCLE
  5
EE
  8
JPEG
  6
CONTINUOUS
 62
    93
 10
27.27578628214852
 20
-8.616201656913832
 30
0.0
 40
0.2500000000000031
  0
POINT
  5
EF
  8
JPEG
  6
CONTINUOUS
 62
    93
 10
24.39071010708778
 20
-6.422917573630185
 30
0.0
  0
LINE
  5
F0
  8
JPEG
  6
GC___6
 62
    93
 10
28.80139105999148
 20
-0.6257282632848469
 30
0.0
 11
19.95682509577264
 21
-12.25060519496555
 31
0.0
  0
LINE
  5
F1
  8
JPEG
  6
GC___6
 62
    93
 10
19.48542993658263
 20
-2.690828683917109
 30
0.0
 11
29.18493662645372
 21
-10.0705134103122
 31
0.0
  0
CIRCLE
  5
F2
  8
HOLEPAT
  6
CONTINUOUS
 62
   133
 10
24.39071010708778
 20
-6.422917573630185
 30
0.0
 40
0.25
  0
LINE
  5
F3
  8
HOLEPAT
  6
CONTINUOUS
 62
   133
 10
24.39071010708778
 20
-6.172917573630185
 30
0.0
 11
24.39071010708778
 21
-6.672917573630185
 31
0.0
  0
LINE
  5
F4
  8
HOLEPAT
  6
CONTINUOUS
 62
   133
 10
24.14071010708778
 20
-6.422917573630185
 30
0.0
 11
24.64071010708778
 21
-6.422917573630185
 31
0.0
  0
POINT
  5
F5
  8
JPEG
  6
CONTINUOUS
 62
    93
 10
24.39071010708778
 20
-6.422917573630185
 30
0.0
  0
CIRCLE
  5
F6
  8
JPEG
  6
CONTINUOUS
 62
    93
 10
24.39071010708778
 20
-6.422917573630185
 30
0.0
 40
3.0
  0
CIRCLE
  5
F7
  8
JPEG
  6
GC___6
 62
    93
 10
24.39071010708778
 20
-6.422917573630185
 30
0.0
 40
3.625
  0
CIRCLE
  5
F8
  8
JPEG
  6
CONTINUOUS
 62
    93
 10
24.39071010708778
 20
-6.422917573630185
 30
0.0
 40
4.250000000000001
  0
LINE
  5
F9
  8
JPEG
  6
GC___6
 62
    93
 10
24.39071010708778
 20
-6.422917573630185
 30
0.0
 11
24.39071010708778
 21
-6.422917573630185
 31
0.0
  0
CIRCLE
  5
FA
  8
JPEG
  6
CONTINUOUS
 62
    93
 10
26.58399447909746
 20
-3.537841019081687
 30
0.0
 40
0.2499999999999999
  0
CIRCLE
  5
FB
  8
JPEG
  6
CONTINUOUS
 62
    93
 10
21.50563355253929
 20
-4.229633201620514
 30
0.0
 40
0.250000000000002
  0
CIRCLE
  5
FC
  8
JPEG
  6
CONTINUOUS
 62
    93
 10
22.19742587944113
 20
-9.307993938434805
 30
0.0
 40
0.2500000000000013
  0
CIRCLE
  5
FD
  8
JPEG
  6
CONTINUOUS
 62
    93
 10
27.27578628214852
 20
-8.616201656913832
 30
0.0
 40
0.2500000000000031
  0
POINT
  5
FE
  8
JPEG
  6
CONTINUOUS
 62
    93
 10
24.39071010708778
 20
-6.422917573630185
 30
0.0
  0
LINE
  5
FF
  8
JPEG
  6
GC___6
 62
    93
 10
28.80139105999148
 20
-0.6257282632848469
 30
0.0
 11
19.95682509577264
 21
-12.25060519496555
 31
0.0
  0
LINE
  5
100
  8
JPEG
  6
GC___6
 62
    93
 10
19.48542993658263
 20
-2.690828683917109
 30
0.0
 11
29.18493662645372
 21
-10.0705134103122
 31
0.0
  0
ENDSEC
  0
EOF
