  0
SECTION
  2
HEADER
  9
$ACADVER
  1
AC1015
  9
$ACADMAINTVER
 70
     6
  9
$DWGCODEPAGE
  3
ANSI_1252
  9
$INSBASE
 10
0.0
 20
0.0
 30
0.0
  9
$EXTMIN
 10
0.0
 20
0.0
 30
0.0
  9
$EXTMAX
 10
25.0
 20
35.0
 30
0.0
  9
$LIMMIN
 10
0.0
 20
0.0
  9
$LIMMAX
 10
12.0
 20
9.0
  9
$ORTHOMODE
 70
     0
  9
$REGENMODE
 70
     1
  9
$FILLMODE
 70
     1
  9
$QTEXTMODE
 70
     0
  9
$MIRRTEXT
 70
     1
  9
$LTSCALE
 40
1.0
  9
$ATTMODE
 70
     1
  9
$TEXTSIZE
 40
0.2
  9
$TRACEWID
 40
0.05
  9
$TEXTSTYLE
  7
Standard
  9
$CLAYER
  8
0
  9
$CELTYPE
  6
ByLayer
  9
$CECOLOR
 62
   256
  9
$CELTSCALE
 40
1.0
  9
$DISPSILH
 70
     0
  9
$DIMSCALE
 40
1.0
  9
$DIMASZ
 40
0.18
  9
$DIMEXO
 40
0.0625
  9
$DIMDLI
 40
0.38
  9
$DIMRND
 40
0.0
  9
$DIMDLE
 40
0.0
  9
$DIMEXE
 40
0.18
  9
$DIMTP
 40
0.0
  9
$DIMTM
 40
0.0
  9
$DIMTXT
 40
0.18
  9
$DIMCEN
 40
0.09
  9
$DIMTSZ
 40
0.0
  9
$DIMTOL
 70
     0
  9
$DIMLIM
 70
     0
  9
$DIMTIH
 70
     1
  9
$DIMTOH
 70
     1
  9
$DIMSE1
 70
     0
  9
$DIMSE2
 70
     0
  9
$DIMTAD
 70
     0
  9
$DIMZIN
 70
     0
  9
$DIMBLK
  1

  9
$DIMASO
 70
     1
  9
$DIMSHO
 70
     1
  9
$DIMPOST
  1

  9
$DIMAPOST
  1

  9
$DIMALT
 70
     0
  9
$DIMALTD
 70
     2
  9
$DIMALTF
 40
25.4
  9
$DIMLFAC
 40
1.0
  9
$DIMTOFL
 70
     0
  9
$DIMTVP
 40
0.0
  9
$DIMTIX
 70
     0
  9
$DIMSOXD
 70
     0
  9
$DIMSAH
 70
     0
  9
$DIMBLK1
  1

  9
$DIMBLK2
  1

  9
$DIMSTYLE
  2
Standard
  9
$DIMCLRD
 70
     0
  9
$DIMCLRE
 70
     0
  9
$DIMCLRT
 70
     0
  9
$DIMTFAC
 40
1.0
  9
$DIMGAP
 40
0.09
  9
$DIMJUST
 70
     0
  9
$DIMSD1
 70
     0
  9
$DIMSD2
 70
     0
  9
$DIMTOLJ
 70
     1
  9
$DIMTZIN
 70
     0
  9
$DIMALTZ
 70
     0
  9
$DIMALTTZ
 70
     0
  9
$DIMUPT
 70
     0
  9
$DIMDEC
 70
     4
  9
$DIMTDEC
 70
     4
  9
$DIMALTU
 70
     2
  9
$DIMALTTD
 70
     2
  9
$DIMTXSTY
  7
Standard
  9
$DIMAUNIT
 70
     0
  9
$DIMADEC
 70
     0
  9
$DIMALTRND
 40
0.0
  9
$DIMAZIN
 70
     0
  9
$DIMDSEP
 70
    46
  9
$DIMATFIT
 70
     3
  9
$DIMFRAC
 70
     0
  9
$DIMLDRBLK
  1

  9
$DIMLUNIT
 70
     2
  9
$DIMLWD
 70
    -2
  9
$DIMLWE
 70
    -2
  9
$DIMTMOVE
 70
     0
  9
$LUNITS
 70
     2
  9
$LUPREC
 70
     4
  9
$SKETCHINC
 40
0.1
  9
$FILLETRAD
 40
0.5
  9
$AUNITS
 70
     0
  9
$AUPREC
 70
     0
  9
$MENU
  1
.
  9
$ELEVATION
 40
0.0
  9
$PELEVATION
 40
0.0
  9
$THICKNESS
 40
0.0
  9
$LIMCHECK
 70
     0
  9
$CHAMFERA
 40
0.5
  9
$CHAMFERB
 40
0.5
  9
$CHAMFERC
 40
1.0
  9
$CHAMFERD
 40
0.0
  9
$SKPOLY
 70
     0
  9
$TDCREATE
 40
2453737.5
  9
$TDUCREATE
 40
2453737.833333333
  9
$TDUPDATE
 40
2454838.727420891
  9
$TDUUPDATE
 40
2454839.060754225
  9
$TDINDWG
 40
0.0000000116
  9
$TDUSRTIMER
 40
0.0000000116
  9
$USRTIMER
 70
     1
  9
$ANGBASE
 50
0.0
  9
$ANGDIR
 70
     0
  9
$PDMODE
 70
     0
  9
$PDSIZE
 40
0.0
  9
$PLINEWID
 40
0.0
  9
$SPLFRAME
 70
     0
  9
$SPLINETYPE
 70
     6
  9
$SPLINESEGS
 70
     8
  9
$HANDSEED
  5
FD
  9
$SURFTAB1
 70
     6
  9
$SURFTAB2
 70
     6
  9
$SURFTYPE
 70
     6
  9
$SURFU
 70
     6
  9
$SURFV
 70
     6
  9
$UCSBASE
  2

  9
$UCSNAME
  2

  9
$UCSORG
 10
0.0
 20
0.0
 30
0.0
  9
$UCSXDIR
 10
1.0
 20
0.0
 30
0.0
  9
$UCSYDIR
 10
0.0
 20
1.0
 30
0.0
  9
$UCSORTHOREF
  2

  9
$UCSORTHOVIEW
 70
     0
  9
$UCSORGTOP
 10
0.0
 20
0.0
 30
0.0
  9
$UCSORGBOTTOM
 10
0.0
 20
0.0
 30
0.0
  9
$UCSORGLEFT
 10
0.0
 20
0.0
 30
0.0
  9
$UCSORGRIGHT
 10
0.0
 20
0.0
 30
0.0
  9
$UCSORGFRONT
 10
0.0
 20
0.0
 30
0.0
  9
$UCSORGBACK
 10
0.0
 20
0.0
 30
0.0
  9
$PUCSBASE
  2

  9
$PUCSNAME
  2

  9
$PUCSORG
 10
0.0
 20
0.0
 30
0.0
  9
$PUCSXDIR
 10
1.0
 20
0.0
 30
0.0
  9
$PUCSYDIR
 10
0.0
 20
1.0
 30
0.0
  9
$PUCSORTHOREF
  2

  9
$PUCSORTHOVIEW
 70
     0
  9
$PUCSORGTOP
 10
0.0
 20
0.0
 30
0.0
  9
$PUCSORGBOTTOM
 10
0.0
 20
0.0
 30
0.0
  9
$PUCSORGLEFT
 10
0.0
 20
0.0
 30
0.0
  9
$PUCSORGRIGHT
 10
0.0
 20
0.0
 30
0.0
  9
$PUCSORGFRONT
 10
0.0
 20
0.0
 30
0.0
  9
$PUCSORGBACK
 10
0.0
 20
0.0
 30
0.0
  9
$USERI1
 70
     0
  9
$USERI2
 70
     0
  9
$USERI3
 70
     0
  9
$USERI4
 70
     0
  9
$USERI5
 70
     0
  9
$USERR1
 40
0.0
  9
$USERR2
 40
0.0
  9
$USERR3
 40
0.0
  9
$USERR4
 40
0.0
  9
$USERR5
 40
0.0
  9
$WORLDVIEW
 70
     1
  9
$SHADEDGE
 70
     3
  9
$SHADEDIF
 70
    70
  9
$TILEMODE
 70
     1
  9
$MAXACTVP
 70
    64
  9
$PINSBASE
 10
0.0
 20
0.0
 30
0.0
  9
$PLIMCHECK
 70
     0
  9
$PEXTMIN
 10
1.000000000000000E+20
 20
1.000000000000000E+20
 30
1.000000000000000E+20
  9
$PEXTMAX
 10
-1.000000000000000E+20
 20
-1.000000000000000E+20
 30
-1.000000000000000E+20
  9
$PLIMMIN
 10
0.0
 20
0.0
  9
$PLIMMAX
 10
12.0
 20
9.0
  9
$UNITMODE
 70
     0
  9
$VISRETAIN
 70
     1
  9
$PLINEGEN
 70
     0
  9
$PSLTSCALE
 70
     1
  9
$TREEDEPTH
 70
  3020
  9
$CMLSTYLE
  2
Standard
  9
$CMLJUST
 70
     0
  9
$CMLSCALE
 40
1.0
  9
$PROXYGRAPHICS
 70
     1
  9
$MEASUREMENT
 70
     0
  9
$CELWEIGHT
370
    -1
  9
$ENDCAPS
280
     0
  9
$JOINSTYLE
280
     0
  9
$LWDISPLAY
290
     0
  9
$INSUNITS
 70
     1
  9
$HYPERLINKBASE
  1

  9
$STYLESHEET
  1

  9
$XEDIT
290
     1
  9
$CEPSNTYPE
380
     0
  9
$PSTYLEMODE
290
     1
  9
$FINGERPRINTGUID
  2
{31764808-3416-4D8C-96C3-8CF54F77FB73}
  9
$VERSIONGUID
  2
{FAEB1C32-E019-11D5-929B-00C0DF256EC4}
  9
$EXTNAMES
290
     1
  9
$PSVPSCALE
 40
0.0
  9
$OLESTARTUP
290
     0
  0
ENDSEC
  0
SECTION
  2
CLASSES
  0
CLASS
  1
ACDBDICTIONARYWDFLT
  2
AcDbDictionaryWithDefault
  3
ObjectDBX Classes
 90
        0
280
     0
281
     0
  0
CLASS
  1
VISUALSTYLE
  2
AcDbVisualStyle
  3
ObjectDBX Classes
 90
     4095
280
     0
281
     0
  0
CLASS
  1
ACDBPLACEHOLDER
  2
AcDbPlaceHolder
  3
ObjectDBX Classes
 90
        0
280
     0
281
     0
  0
CLASS
  1
LAYOUT
  2
AcDbLayout
  3
ObjectDBX Classes
 90
        0
280
     0
281
     0
  0
ENDSEC
  0
SECTION
  2
TABLES
  0
TABLE
  2
VPORT
  5
8
330
0
100
AcDbSymbolTable
 70
     1
  0
VPORT
  5
29
330
8
100
AcDbSymbolTableRecord
100
AcDbViewportTableRecord
  2
*Active
 70
     0
 10
0.0
 20
0.0
 11
1.0
 21
1.0
 12
10.42990654205607
 22
4.5
 13
0.0
 23
0.0
 14
0.5
 24
0.5
 15
0.5
 25
0.5
 16
0.0
 26
0.0
 36
1.0
 17
0.0
 27
0.0
 37
0.0
 40
9.0
 41
1.972972972850329
 42
50.0
 43
0.0
 44
0.0
 50
0.0
 51
0.0
 71
     0
 72
   100
 73
     1
 74
     3
 75
     0
 76
     0
 77
     0
 78
     0
281
     0
 65
     1
110
0.0
120
0.0
130
0.0
111
1.0
121
0.0
131
0.0
112
0.0
122
1.0
132
0.0
 79
     0
146
0.0
  0
ENDTAB
  0
TABLE
  2
LTYPE
  5
5
330
0
100
AcDbSymbolTable
 70
     1
  0
LTYPE
  5
14
330
5
100
AcDbSymbolTableRecord
100
AcDbLinetypeTableRecord
  2
ByBlock
 70
     0
  3

 72
    65
 73
     0
 40
0.0
  0
LTYPE
  5
15
330
5
100
AcDbSymbolTableRecord
100
AcDbLinetypeTableRecord
  2
ByLayer
 70
     0
  3

 72
    65
 73
     0
 40
0.0
  0
LTYPE
  5
16
330
5
100
AcDbSymbolTableRecord
100
AcDbLinetypeTableRecord
  2
Continuous
 70
     0
  3
Solid line
 72
    65
 73
     0
 40
0.0
  0
ENDTAB
  0
TABLE
  2
LAYER
  5
2
330
0
100
AcDbSymbolTable
 70
     2
  0
LAYER
  5
10
330
2
100
AcDbSymbolTableRecord
100
AcDbLayerTableRecord
  2
0
 70
     0
 62
     7
  6
Continuous
370
    -3
390
F
  0
LAYER
  5
40
330
2
100
AcDbSymbolTableRecord
100
AcDbLayerTableRecord
  2
2_Part Contour
 70
     0
 62
    11
  6
Continuous
370
    -3
390
F
  0
ENDTAB
  0
TABLE
  2
STYLE
  5
3
330
0
100
AcDbSymbolTable
 70
     4
  0
STYLE
  5
11
330
3
100
AcDbSymbolTableRecord
100
AcDbTextStyleTableRecord
  2
Standard
 70
     0
 40
0.0
 41
1.0
 50
0.0
 71
     0
 42
0.2
  3
txt
  4

  0
STYLE
  5
3C
330
3
100
AcDbSymbolTableRecord
100
AcDbTextStyleTableRecord
  2
OdtStyle
 70
     0
 40
0.2
 41
1.0
 50
0.0
 71
     0
 42
0.2
  3
txt
  4

  0
STYLE
  5
3D
330
3
100
AcDbSymbolTableRecord
100
AcDbTextStyleTableRecord
  2
OdtTtStyle
 70
     0
 40
0.2
 41
1.0
 50
0.0
 71
     0
 42
0.2
  3
VERDANA.TTF
  4

1001
ACAD
1000
Verdana
1071
       34
  0
STYLE
  5
3E
330
3
100
AcDbSymbolTableRecord
100
AcDbTextStyleTableRecord
  2

 70
     1
 40
0.0
 41
1.0
 50
0.0
 71
     0
 42
22.45
  3
ltypeshp.shx
  4

  0
ENDTAB
  0
TABLE
  2
VIEW
  5
6
330
0
100
AcDbSymbolTable
 70
     0
  0
ENDTAB
  0
TABLE
  2
UCS
  5
7
330
0
100
AcDbSymbolTable
 70
     0
  0
ENDTAB
  0
TABLE
  2
APPID
  5
9
330
0
100
AcDbSymbolTable
 70
     2
  0
APPID
  5
12
330
9
100
AcDbSymbolTableRecord
100
AcDbRegAppTableRecord
  2
ACAD
 70
     0
  0
APPID
  5
3B
330
9
100
AcDbSymbolTableRecord
100
AcDbRegAppTableRecord
  2
ODA
 70
     0
  0
ENDTAB
  0
TABLE
  2
DIMSTYLE
  5
A
330
0
100
AcDbSymbolTable
 70
     1
100
AcDbDimStyleTable
  0
DIMSTYLE
105
27
330
A
100
AcDbSymbolTableRecord
100
AcDbDimStyleTableRecord
  2
Standard
 70
     0
340
11
  0
ENDTAB
  0
TABLE
  2
BLOCK_RECORD
  5
1
330
0
100
AcDbSymbolTable
 70
     1
  0
BLOCK_RECORD
  5
1F
330
1
100
AcDbSymbolTableRecord
100
AcDbBlockTableRecord
  2
*Model_Space
340
22
  0
BLOCK_RECORD
  5
1B
330
1
100
AcDbSymbolTableRecord
100
AcDbBlockTableRecord
  2
*Paper_Space
340
1E
  0
BLOCK_RECORD
  5
23
330
1
100
AcDbSymbolTableRecord
100
AcDbBlockTableRecord
  2
*Paper_Space0
340
26
  0
ENDTAB
  0
ENDSEC
  0
SECTION
  2
BLOCKS
  0
BLOCK
  5
20
330
1F
100
AcDbEntity
  8
0
100
AcDbBlockBegin
  2
*Model_Space
 70
     0
 71
     0
 10
0.0
 20
0.0
 30
0.0
  3
*Model_Space
  1

  0
ENDBLK
  5
21
330
1F
100
AcDbEntity
  8
0
100
AcDbBlockEnd
  0
BLOCK
  5
1C
330
1B
100
AcDbEntity
 67
     1
  8
0
100
AcDbBlockBegin
  2
*Paper_Space
 70
     0
 71
     0
 10
0.0
 20
0.0
 30
0.0
  3
*Paper_Space
  1

  0
ENDBLK
  5
1D
330
1B
100
AcDbEntity
 67
     1
  8
0
100
AcDbBlockEnd
  0
BLOCK
  5
24
330
23
100
AcDbEntity
  8
0
100
AcDbBlockBegin
  2
*Paper_Space0
 70
     0
 71
     0
 10
0.0
 20
0.0
 30
0.0
  3
*Paper_Space0
  1

  0
ENDBLK
  5
25
330
23
100
AcDbEntity
  8
0
100
AcDbBlockEnd
  0
ENDSEC
  0
SECTION
  2
ENTITIES
  0
LINE
  5
41
330
1F
100
AcDbEntity
  8
2_Part Contour
 62
     4
100
AcDbLine
 10
-5.499366367071151
 20
3.731560227017354
 30
0.0
 11
-7.307309084499555
 21
0.9433177008096298
 31
0.0
  0
ARC
  5
42
330
1F
100
AcDbEntity
  8
2_Part Contour
 62
     4
100
AcDbCircle
 10
-5.388
 20
4.219
 30
0.0
 40
0.5
100
AcDbArc
 50
257.130409496646
 51
331.7473992851296
  0
LINE
  5
43
330
1F
100
AcDbEntity
  8
2_Part Contour
 62
     4
100
AcDbLine
 10
-5.043415295454175
 20
4.559918110424679
 30
0.0
 11
-4.927697280388624
 21
4.200719067377308
 31
0.0
  0
ARC
  5
44
330
1F
100
AcDbEntity
  8
2_Part Contour
 62
     4
100
AcDbCircle
 10
-5.194208764378012
 20
4.114860876726834
 30
0.0
 40
0.28
100
AcDbArc
 50
331.7473992851296
 51
17.85664047883297
  0
ARC
  5
45
330
1F
100
AcDbEntity
  8
2_Part Contour
 62
     4
100
AcDbCircle
 10
-4.929
 20
4.5715
 30
0.0
 40
0.115
100
AcDbArc
 50
96.58141443273735
 51
185.7801768609015
  0
LINE
  5
46
330
1F
100
AcDbEntity
  8
2_Part Contour
 62
     4
100
AcDbLine
 10
-4.548126387848377
 20
4.731206261434282
 30
0.0
 11
-4.942180715207453
 21
4.685742149606091
 31
0.0
  0
ARC
  5
47
330
1F
100
AcDbEntity
  8
2_Part Contour
 62
     4
100
AcDbCircle
 10
0.64
 20
-1.238
 30
0.0
 40
7.657
100
AcDbArc
 50
107.8721341274942
 51
125.0167535685698
  0
ARC
  5
48
330
1F
100
AcDbEntity
  8
2_Part Contour
 62
     4
100
AcDbCircle
 10
-1.149
 20
5.6012
 30
0.0
 40
0.684
100
AcDbArc
 50
67.2931463095113
 51
132.1420375015014
  0
ARC
  5
49
330
1F
100
AcDbEntity
  8
2_Part Contour
 62
     4
100
AcDbCircle
 10
-1.795815871254107
 20
6.315990338976256
 30
0.0
 40
0.28
100
AcDbArc
 50
287.8721341274942
 51
312.1420375015014
  0
ARC
  5
4A
330
1F
100
AcDbEntity
  8
2_Part Contour
 62
     4
100
AcDbCircle
 10
-4.746410190534395
 20
6.449805555508493
 30
0.0
 40
1.73
100
AcDbArc
 50
276.5814144327372
 51
305.0167535685698
  0
ARC
  5
4B
330
1F
100
AcDbEntity
  8
2_Part Contour
 62
     4
100
AcDbCircle
 10
0.009
 20
2.067
 30
0.0
 40
4.21275
100
AcDbArc
 50
75.40409351688467
 51
100.0741110130222
  0
ARC
  5
4C
330
1F
100
AcDbEntity
  8
2_Part Contour
 62
     4
100
AcDbCircle
 10
-0.7768801970749537
 20
6.490482211826496
 30
0.0
 40
0.28
100
AcDbArc
 50
247.2931463095112
 51
280.0741110130222
  0
ARC
  5
4D
330
1F
100
AcDbEntity
  8
2_Part Contour
 62
     4
100
AcDbCircle
 10
1.353
 20
5.8716
 30
0.0
 40
0.303
100
AcDbArc
 50
50.07750757583209
 51
111.305331989125
  0
ARC
  5
4E
330
1F
100
AcDbEntity
  8
2_Part Contour
 62
     4
100
AcDbCircle
 10
1.141173985178094
 20
6.414756275343174
 30
0.0
 40
0.28
100
AcDbArc
 50
255.4040935168847
 51
291.305331989125
  0
ARC
  5
4F
330
1F
100
AcDbEntity
  8
2_Part Contour
 62
     4
100
AcDbCircle
 10
-0.1102
 20
-0.1169
 30
0.0
 40
6.41275
100
AcDbArc
 50
49.1866721136084
 51
74.06617061826722
  0
ARC
  5
50
330
1F
100
AcDbEntity
  8
2_Part Contour
 62
     4
100
AcDbCircle
 10
1.727140684771383
 20
6.318710442730652
 30
0.0
 40
0.28
100
AcDbArc
 50
230.0775075758321
 51
254.0661706182672
  0
LINE
  5
51
330
1F
100
AcDbEntity
  8
2_Part Contour
 62
     4
100
AcDbLine
 10
4.658635409344744
 20
4.783200716063842
 30
0.0
 11
4.35144699645339
 21
4.682414580597393
 31
0.0
  0
LINE
  5
52
330
1F
100
AcDbEntity
  8
2_Part Contour
 62
     4
100
AcDbLine
 10
4.910603760348952
 20
4.223409245852485
 30
0.0
 11
4.768174375143594
 21
4.724978755475191
 31
0.0
  0
ARC
  5
53
330
1F
100
AcDbEntity
  8
2_Part Contour
 62
     4
100
AcDbCircle
 10
-4.685445248748452
 20
4.701486381267875
 30
0.0
 40
0.086
210
0.0
220
0.0
230
-1.0
100
AcDbArc
 50
71.83573788528602
 51
164.1471824773278
  0
ARC
  5
54
330
1F
100
AcDbEntity
  8
2_Part Contour
 62
     4
100
AcDbCircle
 10
4.7
 20
3.55
 30
0.0
 40
0.4565
100
AcDbArc
 50
6.15376489554493
 51
48.38258040495025
  0
ARC
  5
55
330
1F
100
AcDbEntity
  8
2_Part Contour
 62
     4
100
AcDbCircle
 10
4.872125096909351
 20
4.212482560174664
 30
0.0
 40
0.04
100
AcDbArc
 50
341.7485869357315
 51
15.85281752267292
  0
LINE
  5
56
330
1F
100
AcDbEntity
  8
2_Part Contour
 62
     4
100
AcDbLine
 10
5.472723152309994
 20
3.023252886873485
 30
0.0
 11
5.192982231985275
 21
3.483527133187102
 31
0.0
  0
ARC
  5
57
330
1F
100
AcDbEntity
  8
2_Part Contour
 62
     4
100
AcDbCircle
 10
5.1883
 20
2.866
 30
0.0
 40
0.325
100
AcDbArc
 50
339.8789197447396
 51
28.93748472184043
  0
ARC
  5
58
330
1F
100
AcDbEntity
  8
2_Part Contour
 62
     4
100
AcDbCircle
 10
5.847
 20
2.491
 30
0.0
 40
0.4225
100
AcDbArc
 50
159.8789197447396
 51
203.1253148689829
  0
ARC
  5
59
330
1F
100
AcDbEntity
  8
2_Part Contour
 62
     4
100
AcDbCircle
 10
5.892
 20
0.215
 30
0.0
 40
0.43
100
AcDbArc
 50
338.1712351735451
 51
23.12531486898284
  0
LINE
  5
5A
330
1F
100
AcDbEntity
  8
2_Part Contour
 62
     4
100
AcDbLine
 10
5.458448693764018
 20
2.325065879270378
 30
0.0
 11
6.287448666701708
 21
0.3838796968372475
 31
0.0
  0
LINE
  5
5B
330
1F
100
AcDbEntity
  8
2_Part Contour
 62
     4
100
AcDbLine
 10
5.493464518525778
 20
2.754198315607814
 30
0.0
 11
5.450286125916488
 21
2.636342189709842
 31
0.0
  0
ARC
  5
5C
330
1F
100
AcDbEntity
  8
2_Part Contour
 62
     4
100
AcDbCircle
 10
5.43225613298165
 20
3.628950653643653
 30
0.0
 40
0.28
100
AcDbArc
 50
186.153764895545
 51
211.2899827785918
  0
ARC
  5
5D
330
1F
100
AcDbEntity
  8
2_Part Contour
 62
     4
100
AcDbCircle
 10
6.651
 20
-0.123
 30
0.0
 40
0.4015
100
AcDbArc
 50
153.6652408770629
 51
190.9540870586894
  0
ARC
  5
5E
330
1F
100
AcDbEntity
  8
2_Part Contour
 62
     4
100
AcDbCircle
 10
5.922
 20
-0.674
 30
0.0
 40
0.5265
100
AcDbArc
 50
350.9713623123361
 51
40.88720182755819
  0
ARC
  5
5F
330
1F
100
AcDbEntity
  8
2_Part Contour
 62
     4
100
AcDbCircle
 10
6.531713757991572
 20
-0.1460877124788684
 30
0.0
 40
0.28
100
AcDbArc
 50
190.9540870586894
 51
220.8872018275582
  0
ARC
  5
60
330
1F
100
AcDbEntity
  8
2_Part Contour
 62
     4
100
AcDbCircle
 10
5.7
 20
-2.24
 30
0.0
 40
0.5
100
AcDbArc
 50
313.2917860441537
 51
350.9713623123361
  0
ARC
  5
61
330
1F
100
AcDbEntity
  8
2_Part Contour
 62
     4
100
AcDbCircle
 10
6.308
 20
-2.97
 30
0.0
 40
0.452
100
AcDbArc
 50
125.9160710379447
 51
173.0184345585692
  0
ARC
  5
62
330
1F
100
AcDbEntity
  8
2_Part Contour
 62
     4
100
AcDbCircle
 10
5.198
 20
-3.544
 30
0.0
 40
0.58
100
AcDbArc
 50
324.1249543519949
 51
353.0184345585691
  0
LINE
  5
63
330
1F
100
AcDbEntity
  8
2_Part Contour
 62
     4
100
AcDbLine
 10
6.441976679661702
 20
-0.756622651906065
 30
0.0
 11
6.193805013923745
 21
-2.31846405689085
 31
0.0
  0
LINE
  5
64
330
1F
100
AcDbEntity
  8
2_Part Contour
 62
     4
100
AcDbLine
 10
5.773699480360085
 20
-3.614498995121417
 30
0.0
 11
5.859351439443521
 21
-2.915059403801931
 31
0.0
  0
ARC
  5
65
330
1F
100
AcDbEntity
  8
2_Part Contour
 62
     4
100
AcDbCircle
 10
5.54
 20
-5.369
 30
0.0
 40
0.3235
100
AcDbArc
 50
160.7950274934678
 51
198.0606304586011
  0
ARC
  5
66
330
1F
100
AcDbEntity
  8
2_Part Contour
 62
     4
100
AcDbCircle
 10
2.627
 20
-4.56
 30
0.0
 40
2.7005
100
AcDbArc
 50
344.9199374054832
 51
359.9470204964416
  0
ARC
  5
67
330
1F
100
AcDbEntity
  8
2_Part Contour
 62
     4
100
AcDbCircle
 10
6.468
 20
-4.71
 30
0.0
 40
1.15
100
AcDbArc
 50
134.0811357836903
 51
172.6307462554689
  0
ARC
  5
68
330
1F
100
AcDbEntity
  8
2_Part Contour
 62
     4
100
AcDbCircle
 10
5.318
 20
-6.151
 30
0.0
 40
0.13
100
AcDbArc
 50
286.3252739253372
 51
18.06063045860071
  0
ARC
  5
69
330
1F
100
AcDbEntity
  8
2_Part Contour
 62
     4
100
AcDbCircle
 10
4.987
 20
-6.274
 30
0.0
 40
0.105
100
AcDbArc
 50
217.9843648760273
 51
286.3252739253371
  0
ARC
  5
6A
330
1F
100
AcDbEntity
  8
2_Part Contour
 62
     4
100
AcDbCircle
 10
3.405
 20
-4.818
 30
0.0
 40
1.8415
100
AcDbArc
 50
293.3084148751567
 51
307.0609153319979
  0
ARC
  5
6B
330
1F
100
AcDbEntity
  8
2_Part Contour
 62
     4
100
AcDbCircle
 10
3.793
 20
-6.528
 30
0.0
 40
0.2305
100
AcDbArc
 50
285.4560142562957
 51
332.1656924408691
  0
ARC
  5
6C
330
1F
100
AcDbEntity
  8
2_Part Contour
 62
     4
100
AcDbCircle
 10
4.244435943176365
 20
-6.766360733361152
 30
0.0
 40
0.28
100
AcDbArc
 50
113.3084148751568
 51
152.1656924408692
  0
LINE
  5
6D
330
1F
100
AcDbEntity
  8
2_Part Contour
 62
     4
100
AcDbLine
 10
5.016514456761594
 20
-6.374766546244615
 30
0.0
 11
5.354541708371497
 21
-6.27575858106476
 31
0.0
  0
LINE
  5
6E
330
1F
100
AcDbEntity
  8
2_Part Contour
 62
     4
100
AcDbLine
 10
5.441594767625174
 20
-6.110696980067505
 30
0.0
 11
5.232439174409661
 21
-5.469292514985862
 31
0.0
  0
ARC
  5
6F
330
1F
100
AcDbEntity
  8
2_Part Contour
 62
     4
100
AcDbCircle
 10
3.643
 20
-6.584
 30
0.0
 40
0.2165
100
AcDbArc
 50
234.0898043871533
 51
285.4560142562958
  0
ARC
  5
70
330
1F
100
AcDbEntity
  8
2_Part Contour
 62
     4
100
AcDbCircle
 10
3.348
 20
-4.594
 30
0.0
 40
2.075
100
AcDbArc
 50
254.3148207188958
 51
267.3325176709764
  0
ARC
  5
71
330
1F
100
AcDbEntity
  8
2_Part Contour
 62
     4
100
AcDbCircle
 10
1.728
 20
-6.193
 30
0.0
 40
0.555
100
AcDbArc
 50
228.3409908104342
 51
298.4836569748178
  0
ARC
  5
72
330
1F
100
AcDbEntity
  8
2_Part Contour
 62
     4
100
AcDbCircle
 10
2.499637253070748
 20
-7.615146247638908
 30
0.0
 40
1.063
100
AcDbArc
 50
74.31482071889577
 51
118.4836569748179
  0
ARC
  5
73
330
1F
100
AcDbEntity
  8
2_Part Contour
 62
     4
100
AcDbCircle
 10
3.228626098443029
 20
-7.15622069143684
 30
0.0
 40
0.49
100
AcDbArc
 50
54.08980438715292
 51
87.33251767097634
  0
LINE
  5
74
330
1F
100
AcDbEntity
  8
2_Part Contour
 62
     4
100
AcDbLine
 10
3.700696930036247
 20
-6.792670348311378
 30
0.0
 11
3.854427909345751
 21
-6.750164042890405
 31
0.0
  0
ARC
  5
75
330
1F
100
AcDbEntity
  8
2_Part Contour
 62
     4
100
AcDbCircle
 10
0.528
 20
-5.911
 30
0.0
 40
0.832
100
AcDbArc
 50
253.8568782367469
 51
305.4517331733408
  0
ARC
  5
76
330
1F
100
AcDbEntity
  8
2_Part Contour
 62
     4
100
AcDbCircle
 10
-0.241
 20
-0.712
 30
0.0
 40
6.004
100
AcDbArc
 50
237.8946893343247
 51
274.1962816319495
  0
ARC
  5
77
330
1F
100
AcDbEntity
  8
2_Part Contour
 62
     4
100
AcDbCircle
 10
-3.786
 20
-4.908
 30
0.0
 40
0.536
100
AcDbArc
 50
183.1639091040008
 51
259.5707247273437
  0
ARC
  5
78
330
1F
100
AcDbEntity
  8
2_Part Contour
 62
     4
100
AcDbCircle
 10
-4.889
 20
-4.952
 30
0.0
 40
0.568
100
AcDbArc
 50
1.454418083131317
 51
42.28607058577883
  0
LINE
  5
79
330
1F
100
AcDbEntity
  8
2_Part Contour
 62
     4
100
AcDbLine
 10
-4.989245703096229
 20
-3.997585538224215
 30
0.0
 11
-4.468796614956289
 21
-4.569831038416507
 31
0.0
  0
ARC
  5
7A
330
1F
100
AcDbEntity
  8
2_Part Contour
 62
     4
100
AcDbCircle
 10
-3.113102225603218
 20
-5.289580671674181
 30
0.0
 40
0.6
100
AcDbArc
 50
212.6125819598113
 51
237.8946893343247
  0
ARC
  5
7B
330
1F
100
AcDbEntity
  8
2_Part Contour
 62
     4
100
AcDbCircle
 10
-3.955436290052593
 20
-5.828536443392231
 30
0.0
 40
0.4
100
AcDbArc
 50
32.61258195981132
 51
79.57072472734372
  0
LINE
  5
7C
330
1F
100
AcDbEntity
  8
2_Part Contour
 62
     4
100
AcDbLine
 10
-5.937830309439004
 20
-3.38697418868111
 30
0.0
 11
-5.65873844414275
 21
-4.073949248129005
 31
0.0
  0
LINE
  5
7D
330
1F
100
AcDbEntity
  8
2_Part Contour
 62
     4
100
AcDbLine
 10
-5.827581972544878
 20
-3.346141471312924
 30
0.0
 11
-5.937830309439005
 21
-3.38697418868111
 31
0.0
  0
ARC
  5
7E
330
1F
100
AcDbEntity
  8
2_Part Contour
 62
     4
100
AcDbCircle
 10
4.576
 20
1.506
 30
0.0
 40
11.18
100
AcDbArc
 50
191.2504544088566
 51
203.6085765209579
  0
ARC
  5
7F
330
1F
100
AcDbEntity
  8
2_Part Contour
 62
     4
100
AcDbCircle
 10
-6.965
 20
1.23
 30
0.0
 40
0.4465
100
AcDbArc
 50
219.9460205712532
 51
267.9103798630164
  0
ARC
  5
80
330
1F
100
AcDbEntity
  8
2_Part Contour
 62
     4
100
AcDbCircle
 10
-8.2327
 20
-0.18
 30
0.0
 40
1.7115
100
AcDbArc
 50
11.25045440885661
 51
27.84134777393164
  0
ARC
  5
81
330
1F
100
AcDbEntity
  8
2_Part Contour
 62
     4
100
AcDbCircle
 10
-6.992547544911501
 20
0.4750023955207881
 30
0.0
 40
0.309
100
AcDbArc
 50
27.84134777393168
 51
87.91037986301637
  0
LINE
  5
82
330
1F
100
AcDbEntity
  8
2_Part Contour
 62
     4
100
AcDbLine
 10
-6.554088640757313
 20
0.1539103990914645
 30
0.0
 11
-6.389162136332596
 21
-0.6751967641499138
 31
0.0
  0
LINE
  5
83
330
1F
100
AcDbEntity
  8
2_Part Contour
 62
     4
100
AcDbLine
 10
-5.65873844414275
 20
-4.073949248129005
 30
0.0
 11
-5.303246481613098
 21
-3.927171209174003
 31
0.0
  0
ARC
  5
84
330
1F
100
AcDbEntity
  8
2_Part Contour
 62
     4
100
AcDbCircle
 10
0.21882210742745
 20
-6.979154029503421
 30
0.0
 40
0.28
100
AcDbArc
 50
73.8568782367469
 51
94.19628163194949
  0
LINE
  5
85
330
1F
100
AcDbEntity
  8
2_Part Contour
 62
     4
100
AcDbLine
 10
6.528283017068725
 20
-6.897060197876044
 30
0.0
 11
-7.407309084499555
 21
-6.897060197876044
 31
0.0
  0
LINE
  5
86
330
1F
100
AcDbEntity
  8
2_Part Contour
 62
     4
100
AcDbLine
 10
6.528283017068725
 20
-6.897060197876044
 30
0.0
 11
6.528283017068725
 21
6.385200000000005
 31
0.0
  0
LINE
  5
87
330
1F
100
AcDbEntity
  8
2_Part Contour
 62
     4
100
AcDbLine
 10
-7.407309084499555
 20
-6.897060197876044
 30
0.0
 11
-7.407309084499555
 21
6.385200000000005
 31
0.0
  0
LINE
  5
88
330
1F
100
AcDbEntity
  8
2_Part Contour
 62
     4
100
AcDbLine
 10
6.528283017068725
 20
6.385200000000005
 30
0.0
 11
-7.407309084499554
 21
6.385200000000005
 31
0.0
  0
CIRCLE
  5
89
330
1F
100
AcDbEntity
  8
2_Part Contour
 62
     4
100
AcDbCircle
 10
0.0
 20
0.0
 30
0.0
 40
4.25
  0
CIRCLE
  5
8A
330
1F
100
AcDbEntity
  8
2_Part Contour
 62
     4
100
AcDbCircle
 10
0.0
 20
0.0
 30
-0.125
 40
3.0
  0
CIRCLE
  5
8B
330
1F
100
AcDbEntity
  8
2_Part Contour
 62
     4
100
AcDbCircle
 10
0.0
 20
0.0
 30
-0.125
 40
4.25
  0
CIRCLE
  5
8C
330
1F
100
AcDbEntity
  8
2_Part Contour
 62
     4
100
AcDbCircle
 10
0.0
 20
0.0
 30
-0.625
 40
3.0
  0
ARC
  5
8D
330
1F
100
AcDbEntity
  8
2_Part Contour
 62
     4
100
AcDbCircle
 10
5.196388216850169
 20
-4.185978688300583
 30
0.0
 40
0.28
210
0.0
220
0.0
230
-1.0
100
AcDbArc
 50
67.56490195950123
 51
137.713929414221
  0
ARC
  5
8E
330
1F
100
AcDbEntity
  8
2_Part Contour
 62
     4
100
AcDbCircle
 10
4.264159147232012
 20
4.948461252026121
 30
0.0
 40
0.28
100
AcDbArc
 50
229.1866721136084
 51
288.1642621147147
  0
ARC
  5
8F
330
1F
100
AcDbEntity
  8
2_Part Contour
 62
     4
100
AcDbCircle
 10
-5.924829992175476
 20
-3.083571818310284
 30
0.0
 40
0.28
100
AcDbArc
 50
290.3231368296611
 51
23.60857652095783
  0
ARC
  5
90
330
1F
100
AcDbEntity
  8
2_Part Contour
 62
     4
100
AcDbCircle
 10
1.172978822356466
 20
-6.816840117632061
 30
0.0
 40
0.28
100
AcDbArc
 50
48.34099081043404
 51
125.4517331733408
  0
ARC
  5
91
330
1F
100
AcDbEntity
  8
2_Part Contour
 62
     4
100
AcDbCircle
 10
5.176026345700334
 20
4.112262647067126
 30
0.0
 40
0.28
100
AcDbArc
 50
161.7485869357277
 51
228.3825804049524
  0
LINE
  5
92
330
1F
100
AcDbEntity
  8
2_Part Contour
 62
     4
100
AcDbLine
 10
4.990063356044494
 20
3.902935710247563
 30
0.0
 11
5.003186088492471
 21
3.891277666636181
 31
0.0
  0
ARC
  5
93
330
1F
100
AcDbEntity
  8
2_Part Contour
 62
     4
100
AcDbCircle
 10
4.683551189461198
 20
-6.510946870379384
 30
0.0
 40
0.28
100
AcDbArc
 50
37.98436487602774
 51
127.0609153319979
  0
ARC
  5
94
330
1F
100
AcDbEntity
  8
2_Part Contour
 62
     4
100
AcDbCircle
 10
0.64
 20
-1.238
 30
-0.625
 40
7.657
100
AcDbArc
 50
107.8721341274942
 51
125.0167535685698
  0
ARC
  5
95
330
1F
100
AcDbEntity
  8
2_Part Contour
 62
     4
100
AcDbCircle
 10
-4.746410190534395
 20
6.449805555508493
 30
-0.625
 40
1.73
100
AcDbArc
 50
276.5814144327372
 51
305.0167535685698
  0
LINE
  5
96
330
1F
100
AcDbEntity
  8
2_Part Contour
 62
     4
100
AcDbLine
 10
-4.548126387848377
 20
4.731206261434282
 30
-0.625
 11
-4.942180715207453
 21
4.685742149606091
 31
-0.625
  0
ARC
  5
97
330
1F
100
AcDbEntity
  8
2_Part Contour
 62
     4
100
AcDbCircle
 10
-4.929
 20
4.5715
 30
-0.625
 40
0.115
100
AcDbArc
 50
96.58141443273735
 51
185.7801768609015
  0
LINE
  5
98
330
1F
100
AcDbEntity
  8
2_Part Contour
 62
     4
100
AcDbLine
 10
-5.043415295454175
 20
4.559918110424679
 30
-0.625
 11
-4.927697280388624
 21
4.200719067377308
 31
-0.625
  0
ARC
  5
99
330
1F
100
AcDbEntity
  8
2_Part Contour
 62
     4
100
AcDbCircle
 10
-5.194208764378012
 20
4.114860876726834
 30
-0.625
 40
0.28
100
AcDbArc
 50
331.7473992851296
 51
17.85664047883297
  0
ARC
  5
9A
330
1F
100
AcDbEntity
  8
2_Part Contour
 62
     4
100
AcDbCircle
 10
-5.388
 20
4.219
 30
-0.625
 40
0.5
100
AcDbArc
 50
257.130409496646
 51
331.7473992851296
  0
LINE
  5
9B
330
1F
100
AcDbEntity
  8
2_Part Contour
 62
     4
100
AcDbLine
 10
-5.499366367071151
 20
3.731560227017354
 30
-0.625
 11
-7.307309084499555
 21
0.9433177008096298
 31
-0.625
  0
ARC
  5
9C
330
1F
100
AcDbEntity
  8
2_Part Contour
 62
     4
100
AcDbCircle
 10
-6.965
 20
1.23
 30
-0.625
 40
0.4465
100
AcDbArc
 50
219.9460205712532
 51
267.9103798630164
  0
ARC
  5
9D
330
1F
100
AcDbEntity
  8
2_Part Contour
 62
     4
100
AcDbCircle
 10
-6.992547544911501
 20
0.4750023955207881
 30
-0.625
 40
0.309
100
AcDbArc
 50
27.84134777393168
 51
87.91037986301637
  0
ARC
  5
9E
330
1F
100
AcDbEntity
  8
2_Part Contour
 62
     4
100
AcDbCircle
 10
-8.2327
 20
-0.18
 30
-0.625
 40
1.7115
100
AcDbArc
 50
11.25045440885661
 51
27.84134777393164
  0
LINE
  5
9F
330
1F
100
AcDbEntity
  8
2_Part Contour
 62
     4
100
AcDbLine
 10
-6.554088640757313
 20
0.1539103990914645
 30
-0.625
 11
-6.389162136332596
 21
-0.6751967641499138
 31
-0.625
  0
ARC
  5
A0
330
1F
100
AcDbEntity
  8
2_Part Contour
 62
     4
100
AcDbCircle
 10
4.576
 20
1.506
 30
-0.625
 40
11.18
100
AcDbArc
 50
191.2504544088566
 51
203.6085765209579
  0
ARC
  5
A1
330
1F
100
AcDbEntity
  8
2_Part Contour
 62
     4
100
AcDbCircle
 10
-5.924829992175476
 20
-3.083571818310284
 30
-0.625
 40
0.28
100
AcDbArc
 50
290.3231368296611
 51
23.60857652095783
  0
LINE
  5
A2
330
1F
100
AcDbEntity
  8
2_Part Contour
 62
     4
100
AcDbLine
 10
-5.827581972544878
 20
-3.346141471312924
 30
-0.625
 11
-5.937830309439005
 21
-3.38697418868111
 31
-0.625
  0
LINE
  5
A3
330
1F
100
AcDbEntity
  8
2_Part Contour
 62
     4
100
AcDbLine
 10
-5.937830309439004
 20
-3.38697418868111
 30
-0.625
 11
-5.65873844414275
 21
-4.073949248129005
 31
-0.625
  0
LINE
  5
A4
330
1F
100
AcDbEntity
  8
2_Part Contour
 62
     4
100
AcDbLine
 10
-5.65873844414275
 20
-4.073949248129005
 30
-0.625
 11
-5.303246481613098
 21
-3.927171209174003
 31
-0.625
  0
ARC
  5
A5
330
1F
100
AcDbEntity
  8
2_Part Contour
 62
     4
100
AcDbCircle
 10
5.196388216850169
 20
-4.185978688300583
 30
0.625
 40
0.28
210
0.0
220
0.0
230
-1.0
100
AcDbArc
 50
67.56490195950123
 51
137.713929414221
  0
LINE
  5
A6
330
1F
100
AcDbEntity
  8
2_Part Contour
 62
     4
100
AcDbLine
 10
-4.989245703096229
 20
-3.997585538224215
 30
-0.625
 11
-4.468796614956289
 21
-4.569831038416507
 31
-0.625
  0
ARC
  5
A7
330
1F
100
AcDbEntity
  8
2_Part Contour
 62
     4
100
AcDbCircle
 10
-4.889
 20
-4.952
 30
-0.625
 40
0.568
100
AcDbArc
 50
1.454418083131317
 51
42.28607058577883
  0
ARC
  5
A8
330
1F
100
AcDbEntity
  8
2_Part Contour
 62
     4
100
AcDbCircle
 10
-3.786
 20
-4.908
 30
-0.625
 40
0.536
100
AcDbArc
 50
183.1639091040008
 51
259.5707247273437
  0
ARC
  5
A9
330
1F
100
AcDbEntity
  8
2_Part Contour
 62
     4
100
AcDbCircle
 10
-3.955436290052593
 20
-5.828536443392231
 30
-0.625
 40
0.4
100
AcDbArc
 50
32.61258195981132
 51
79.57072472734372
  0
ARC
  5
AA
330
1F
100
AcDbEntity
  8
2_Part Contour
 62
     4
100
AcDbCircle
 10
-3.113102225603218
 20
-5.289580671674181
 30
-0.625
 40
0.6
100
AcDbArc
 50
212.6125819598113
 51
237.8946893343247
  0
ARC
  5
AB
330
1F
100
AcDbEntity
  8
2_Part Contour
 62
     4
100
AcDbCircle
 10
-0.241
 20
-0.712
 30
-0.625
 40
6.004
100
AcDbArc
 50
237.8946893343247
 51
274.1962816319495
  0
ARC
  5
AC
330
1F
100
AcDbEntity
  8
2_Part Contour
 62
     4
100
AcDbCircle
 10
0.21882210742745
 20
-6.979154029503421
 30
-0.625
 40
0.28
100
AcDbArc
 50
73.8568782367469
 51
94.19628163194949
  0
ARC
  5
AD
330
1F
100
AcDbEntity
  8
2_Part Contour
 62
     4
100
AcDbCircle
 10
0.528
 20
-5.911
 30
-0.625
 40
0.832
100
AcDbArc
 50
253.8568782367469
 51
305.4517331733408
  0
ARC
  5
AE
330
1F
100
AcDbEntity
  8
2_Part Contour
 62
     4
100
AcDbCircle
 10
1.172978822356466
 20
-6.816840117632061
 30
-0.625
 40
0.28
100
AcDbArc
 50
48.34099081043404
 51
125.4517331733408
  0
ARC
  5
AF
330
1F
100
AcDbEntity
  8
2_Part Contour
 62
     4
100
AcDbCircle
 10
1.728
 20
-6.193
 30
-0.625
 40
0.555
100
AcDbArc
 50
228.3409908104342
 51
298.4836569748178
  0
ARC
  5
B0
330
1F
100
AcDbEntity
  8
2_Part Contour
 62
     4
100
AcDbCircle
 10
2.499637253070748
 20
-7.615146247638908
 30
-0.625
 40
1.063
100
AcDbArc
 50
74.31482071889577
 51
118.4836569748179
  0
ARC
  5
B1
330
1F
100
AcDbEntity
  8
2_Part Contour
 62
     4
100
AcDbCircle
 10
3.348
 20
-4.594
 30
-0.625
 40
2.075
100
AcDbArc
 50
254.3148207188958
 51
267.3325176709764
  0
ARC
  5
B2
330
1F
100
AcDbEntity
  8
2_Part Contour
 62
     4
100
AcDbCircle
 10
3.228626098443029
 20
-7.15622069143684
 30
-0.625
 40
0.49
100
AcDbArc
 50
54.08980438715292
 51
87.33251767097634
  0
ARC
  5
B3
330
1F
100
AcDbEntity
  8
2_Part Contour
 62
     4
100
AcDbCircle
 10
3.643
 20
-6.584
 30
-0.625
 40
0.2165
100
AcDbArc
 50
234.0898043871533
 51
285.4560142562958
  0
LINE
  5
B4
330
1F
100
AcDbEntity
  8
2_Part Contour
 62
     4
100
AcDbLine
 10
3.700696930036247
 20
-6.792670348311378
 30
-0.625
 11
3.854427909345751
 21
-6.750164042890405
 31
-0.625
  0
ARC
  5
B5
330
1F
100
AcDbEntity
  8
2_Part Contour
 62
     4
100
AcDbCircle
 10
3.793
 20
-6.528
 30
-0.625
 40
0.2305
100
AcDbArc
 50
285.4560142562957
 51
332.1656924408691
  0
ARC
  5
B6
330
1F
100
AcDbEntity
  8
2_Part Contour
 62
     4
100
AcDbCircle
 10
4.244435943176365
 20
-6.766360733361152
 30
-0.625
 40
0.28
100
AcDbArc
 50
113.3084148751568
 51
152.1656924408692
  0
ARC
  5
B7
330
1F
100
AcDbEntity
  8
2_Part Contour
 62
     4
100
AcDbCircle
 10
3.405
 20
-4.818
 30
-0.625
 40
1.8415
100
AcDbArc
 50
293.3084148751567
 51
307.0609153319979
  0
ARC
  5
B8
330
1F
100
AcDbEntity
  8
2_Part Contour
 62
     4
100
AcDbCircle
 10
4.683551189461198
 20
-6.510946870379384
 30
-0.625
 40
0.28
100
AcDbArc
 50
37.98436487602773
 51
127.0609153319979
  0
ARC
  5
B9
330
1F
100
AcDbEntity
  8
2_Part Contour
 62
     4
100
AcDbCircle
 10
4.987
 20
-6.274
 30
-0.625
 40
0.105
100
AcDbArc
 50
217.9843648760273
 51
286.3252739253371
  0
LINE
  5
BA
330
1F
100
AcDbEntity
  8
2_Part Contour
 62
     4
100
AcDbLine
 10
5.016514456761594
 20
-6.374766546244615
 30
-0.625
 11
5.354541708371497
 21
-6.27575858106476
 31
-0.625
  0
ARC
  5
BB
330
1F
100
AcDbEntity
  8
2_Part Contour
 62
     4
100
AcDbCircle
 10
5.318
 20
-6.151
 30
-0.625
 40
0.13
100
AcDbArc
 50
286.3252739253372
 51
18.06063045860071
  0
LINE
  5
BC
330
1F
100
AcDbEntity
  8
2_Part Contour
 62
     4
100
AcDbLine
 10
5.441594767625174
 20
-6.110696980067505
 30
-0.625
 11
5.232439174409661
 21
-5.469292514985862
 31
-0.625
  0
ARC
  5
BD
330
1F
100
AcDbEntity
  8
2_Part Contour
 62
     4
100
AcDbCircle
 10
5.54
 20
-5.369
 30
-0.625
 40
0.3235
100
AcDbArc
 50
160.7950274934678
 51
198.0606304586011
  0
ARC
  5
BE
330
1F
100
AcDbEntity
  8
2_Part Contour
 62
     4
100
AcDbCircle
 10
2.627
 20
-4.56
 30
-0.625
 40
2.7005
100
AcDbArc
 50
344.9199374054832
 51
359.9470204964416
  0
ARC
  5
BF
330
1F
100
AcDbEntity
  8
2_Part Contour
 62
     4
100
AcDbCircle
 10
6.468
 20
-4.71
 30
-0.625
 40
1.15
100
AcDbArc
 50
134.0811357836903
 51
172.6307462554689
  0
ARC
  5
C0
330
1F
100
AcDbEntity
  8
2_Part Contour
 62
     4
100
AcDbCircle
 10
5.198
 20
-3.544
 30
-0.625
 40
0.58
100
AcDbArc
 50
324.1249543519949
 51
353.0184345585691
  0
LINE
  5
C1
330
1F
100
AcDbEntity
  8
2_Part Contour
 62
     4
100
AcDbLine
 10
5.773699480360085
 20
-3.614498995121417
 30
-0.625
 11
5.859351439443521
 21
-2.915059403801931
 31
-0.625
  0
ARC
  5
C2
330
1F
100
AcDbEntity
  8
2_Part Contour
 62
     4
100
AcDbCircle
 10
6.308
 20
-2.97
 30
-0.625
 40
0.452
100
AcDbArc
 50
125.9160710379447
 51
173.0184345585692
  0
ARC
  5
C3
330
1F
100
AcDbEntity
  8
2_Part Contour
 62
     4
100
AcDbCircle
 10
5.7
 20
-2.24
 30
-0.625
 40
0.5
100
AcDbArc
 50
313.2917860441537
 51
350.9713623123361
  0
LINE
  5
C4
330
1F
100
AcDbEntity
  8
2_Part Contour
 62
     4
100
AcDbLine
 10
6.441976679661702
 20
-0.756622651906065
 30
-0.625
 11
6.193805013923745
 21
-2.31846405689085
 31
-0.625
  0
ARC
  5
C5
330
1F
100
AcDbEntity
  8
2_Part Contour
 62
     4
100
AcDbCircle
 10
5.922
 20
-0.674
 30
-0.625
 40
0.5265
100
AcDbArc
 50
350.9713623123361
 51
40.88720182755819
  0
ARC
  5
C6
330
1F
100
AcDbEntity
  8
2_Part Contour
 62
     4
100
AcDbCircle
 10
6.531713757991572
 20
-0.1460877124788684
 30
-0.625
 40
0.28
100
AcDbArc
 50
190.9540870586894
 51
220.8872018275582
  0
ARC
  5
C7
330
1F
100
AcDbEntity
  8
2_Part Contour
 62
     4
100
AcDbCircle
 10
6.651
 20
-0.123
 30
-0.625
 40
0.4015
100
AcDbArc
 50
153.6652408770629
 51
190.9540870586894
  0
ARC
  5
C8
330
1F
100
AcDbEntity
  8
2_Part Contour
 62
     4
100
AcDbCircle
 10
5.892
 20
0.215
 30
-0.625
 40
0.43
100
AcDbArc
 50
338.1712351735451
 51
23.12531486898284
  0
LINE
  5
C9
330
1F
100
AcDbEntity
  8
2_Part Contour
 62
     4
100
AcDbLine
 10
5.458448693764018
 20
2.325065879270378
 30
-0.625
 11
6.287448666701708
 21
0.3838796968372475
 31
-0.625
  0
ARC
  5
CA
330
1F
100
AcDbEntity
  8
2_Part Contour
 62
     4
100
AcDbCircle
 10
5.847
 20
2.491
 30
-0.625
 40
0.4225
100
AcDbArc
 50
159.8789197447396
 51
203.1253148689829
  0
LINE
  5
CB
330
1F
100
AcDbEntity
  8
2_Part Contour
 62
     4
100
AcDbLine
 10
5.493464518525778
 20
2.754198315607814
 30
-0.625
 11
5.450286125916488
 21
2.636342189709842
 31
-0.625
  0
ARC
  5
CC
330
1F
100
AcDbEntity
  8
2_Part Contour
 62
     4
100
AcDbCircle
 10
5.1883
 20
2.866
 30
-0.625
 40
0.325
100
AcDbArc
 50
339.8789197447396
 51
28.93748472184043
  0
LINE
  5
CD
330
1F
100
AcDbEntity
  8
2_Part Contour
 62
     4
100
AcDbLine
 10
5.472723152309994
 20
3.023252886873485
 30
-0.625
 11
5.192982231985275
 21
3.483527133187102
 31
-0.625
  0
ARC
  5
CE
330
1F
100
AcDbEntity
  8
2_Part Contour
 62
     4
100
AcDbCircle
 10
5.43225613298165
 20
3.628950653643653
 30
-0.625
 40
0.28
100
AcDbArc
 50
186.153764895545
 51
211.2899827785918
  0
ARC
  5
CF
330
1F
100
AcDbEntity
  8
2_Part Contour
 62
     4
100
AcDbCircle
 10
4.7
 20
3.55
 30
-0.625
 40
0.4565
100
AcDbArc
 50
6.15376489554493
 51
48.38258040495025
  0
LINE
  5
D0
330
1F
100
AcDbEntity
  8
2_Part Contour
 62
     4
100
AcDbLine
 10
4.990063356044494
 20
3.902935710247563
 30
-0.625
 11
5.003186088492471
 21
3.891277666636181
 31
-0.625
  0
ARC
  5
D1
330
1F
100
AcDbEntity
  8
2_Part Contour
 62
     4
100
AcDbCircle
 10
5.176026345700334
 20
4.112262647067126
 30
-0.625
 40
0.28
100
AcDbArc
 50
161.7485869357277
 51
228.3825804049524
  0
ARC
  5
D2
330
1F
100
AcDbEntity
  8
2_Part Contour
 62
     4
100
AcDbCircle
 10
4.872125096909351
 20
4.212482560174664
 30
-0.625
 40
0.04
100
AcDbArc
 50
341.7485869357315
 51
15.85281752267292
  0
LINE
  5
D3
330
1F
100
AcDbEntity
  8
2_Part Contour
 62
     4
100
AcDbLine
 10
4.910603760348952
 20
4.223409245852485
 30
-0.625
 11
4.768174375143594
 21
4.724978755475191
 31
-0.625
  0
ARC
  5
D4
330
1F
100
AcDbEntity
  8
2_Part Contour
 62
     4
100
AcDbCircle
 10
-4.685445248748452
 20
4.701486381267875
 30
0.625
 40
0.086
210
0.0
220
0.0
230
-1.0
100
AcDbArc
 50
71.83573788528602
 51
164.1471824773278
  0
LINE
  5
D5
330
1F
100
AcDbEntity
  8
2_Part Contour
 62
     4
100
AcDbLine
 10
4.658635409344744
 20
4.783200716063842
 30
-0.625
 11
4.35144699645339
 21
4.682414580597393
 31
-0.625
  0
ARC
  5
D6
330
1F
100
AcDbEntity
  8
2_Part Contour
 62
     4
100
AcDbCircle
 10
4.264159147232012
 20
4.948461252026121
 30
-0.625
 40
0.28
100
AcDbArc
 50
229.1866721136084
 51
288.1642621147147
  0
ARC
  5
D7
330
1F
100
AcDbEntity
  8
2_Part Contour
 62
     4
100
AcDbCircle
 10
-0.1102
 20
-0.1169
 30
-0.625
 40
6.41275
100
AcDbArc
 50
49.1866721136084
 51
74.06617061826722
  0
ARC
  5
D8
330
1F
100
AcDbEntity
  8
2_Part Contour
 62
     4
100
AcDbCircle
 10
1.727140684771383
 20
6.318710442730652
 30
-0.625
 40
0.28
100
AcDbArc
 50
230.0775075758321
 51
254.0661706182672
  0
ARC
  5
D9
330
1F
100
AcDbEntity
  8
2_Part Contour
 62
     4
100
AcDbCircle
 10
1.353
 20
5.8716
 30
-0.625
 40
0.303
100
AcDbArc
 50
50.07750757583209
 51
111.305331989125
  0
ARC
  5
DA
330
1F
100
AcDbEntity
  8
2_Part Contour
 62
     4
100
AcDbCircle
 10
1.141173985178094
 20
6.414756275343174
 30
-0.625
 40
0.28
100
AcDbArc
 50
255.4040935168847
 51
291.305331989125
  0
ARC
  5
DB
330
1F
100
AcDbEntity
  8
2_Part Contour
 62
     4
100
AcDbCircle
 10
0.009
 20
2.067
 30
-0.625
 40
4.21275
100
AcDbArc
 50
75.40409351688467
 51
100.0741110130222
  0
ARC
  5
DC
330
1F
100
AcDbEntity
  8
2_Part Contour
 62
     4
100
AcDbCircle
 10
-0.7768801970749537
 20
6.490482211826496
 30
-0.625
 40
0.28
100
AcDbArc
 50
247.2931463095112
 51
280.0741110130222
  0
ARC
  5
DD
330
1F
100
AcDbEntity
  8
2_Part Contour
 62
     4
100
AcDbCircle
 10
-1.149
 20
5.6012
 30
-0.625
 40
0.684
100
AcDbArc
 50
67.2931463095113
 51
132.1420375015014
  0
ARC
  5
DE
330
1F
100
AcDbEntity
  8
2_Part Contour
 62
     4
100
AcDbCircle
 10
-1.795815871254107
 20
6.315990338976256
 30
-0.625
 40
0.28
100
AcDbArc
 50
287.8721341274942
 51
312.1420375015014
  0
LINE
  5
DF
330
1F
100
AcDbEntity
  8
2_Part Contour
 62
     4
100
AcDbLine
 10
6.528283017068725
 20
6.385200000000005
 30
-0.625
 11
-7.407309084499554
 21
6.385200000000005
 31
-0.625
  0
LINE
  5
E0
330
1F
100
AcDbEntity
  8
2_Part Contour
 62
     4
100
AcDbLine
 10
-7.407309084499555
 20
-6.897060197876044
 30
-0.625
 11
-7.407309084499555
 21
6.385200000000005
 31
-0.625
  0
LINE
  5
E1
330
1F
100
AcDbEntity
  8
2_Part Contour
 62
     4
100
AcDbLine
 10
6.528283017068725
 20
-6.897060197876044
 30
-0.625
 11
-7.407309084499555
 21
-6.897060197876044
 31
-0.625
  0
LINE
  5
E2
330
1F
100
AcDbEntity
  8
2_Part Contour
 62
     4
100
AcDbLine
 10
6.528283017068725
 20
-6.897060197876044
 30
-0.625
 11
6.528283017068725
 21
6.385200000000005
 31
-0.625
  0
CIRCLE
  5
E3
330
1F
100
AcDbEntity
  8
2_Part Contour
 62
     6
100
AcDbCircle
 10
1.3625
 20
5.909
 30
0.0
 40
0.13
  0
CIRCLE
  5
E4
330
1F
100
AcDbEntity
  8
2_Part Contour
 62
     6
100
AcDbCircle
 10
-3.8014
 20
4.5433
 30
0.0
 40
0.13
  0
CIRCLE
  5
E5
330
1F
100
AcDbEntity
  8
2_Part Contour
 62
     5
100
AcDbCircle
 10
-1.2061
 20
5.88
 30
0.0
 40
0.158
  0
CIRCLE
  5
E6
330
1F
100
AcDbEntity
  8
2_Part Contour
 62
   220
100
AcDbCircle
 10
-5.3865
 20
2.5063
 30
0.0
 40
0.174
  0
CIRCLE
  5
E7
330
1F
100
AcDbEntity
  8
2_Part Contour
 62
     6
100
AcDbCircle
 10
-5.704
 20
-1.808
 30
0.0
 40
0.197
  0
CIRCLE
  5
E8
330
1F
100
AcDbEntity
  8
2_Part Contour
 62
     6
100
AcDbCircle
 10
-3.178
 20
-5.416
 30
0.0
 40
0.197
  0
CIRCLE
  5
E9
330
1F
100
AcDbEntity
  8
2_Part Contour
 62
    41
100
AcDbCircle
 10
4.736
 20
3.558
 30
0.0
 40
0.203
  0
CIRCLE
  5
EA
330
1F
100
AcDbEntity
  8
2_Part Contour
 62
    41
100
AcDbCircle
 10
6.055
 20
-0.64
 30
0.0
 40
0.203
  0
CIRCLE
  5
EB
330
1F
100
AcDbEntity
  8
2_Part Contour
 62
     9
100
AcDbCircle
 10
5.3
 20
-3.57
 30
0.0
 40
0.2265
  0
CIRCLE
  5
EC
330
1F
100
AcDbEntity
  8
2_Part Contour
 62
    41
100
AcDbCircle
 10
4.428
 20
4.2327
 30
0.0
 40
0.2345
  0
CIRCLE
  5
ED
330
1F
100
AcDbEntity
  8
2_Part Contour
 62
    41
100
AcDbCircle
 10
-4.4313
 20
4.2332
 30
0.0
 40
0.2345
  0
CIRCLE
  5
EE
330
1F
100
AcDbEntity
  8
2_Part Contour
 62
   230
100
AcDbCircle
 10
1.716
 20
-6.2755
 30
0.0
 40
0.25925
  0
CIRCLE
  5
EF
330
1F
100
AcDbEntity
  8
2_Part Contour
 62
    41
100
AcDbCircle
 10
5.701
 20
-2.231
 30
0.0
 40
0.295
  0
CIRCLE
  5
F0
330
1F
100
AcDbEntity
  8
2_Part Contour
 62
     5
100
AcDbCircle
 10
-5.933
 20
1.2473
 30
0.0
 40
0.303
  0
CIRCLE
  5
F1
330
1F
100
AcDbEntity
  8
2_Part Contour
 62
     5
100
AcDbCircle
 10
-3.795
 20
-4.921
 30
0.0
 40
0.303
  0
CIRCLE
  5
F2
330
1F
100
AcDbEntity
  8
2_Part Contour
 62
     5
100
AcDbCircle
 10
0.6
 20
-6.23
 30
0.0
 40
0.303
  0
CIRCLE
  5
F3
330
1F
100
AcDbEntity
  8
2_Part Contour
 62
   230
100
AcDbCircle
 10
3.625
 20
0.0
 30
-0.125
 40
0.266
  0
CIRCLE
  5
F4
330
1F
100
AcDbEntity
  8
2_Part Contour
 62
   230
100
AcDbCircle
 10
2.563262081801235
 20
2.563262081801235
 30
-0.125
 40
0.266
  0
CIRCLE
  5
F5
330
1F
100
AcDbEntity
  8
2_Part Contour
 62
   230
100
AcDbCircle
 10
0.0000000000000002
 20
3.625
 30
-0.125
 40
0.266
  0
CIRCLE
  5
F6
330
1F
100
AcDbEntity
  8
2_Part Contour
 62
   230
100
AcDbCircle
 10
-2.563262081801235
 20
2.563262081801235
 30
-0.125
 40
0.266
  0
CIRCLE
  5
F7
330
1F
100
AcDbEntity
  8
2_Part Contour
 62
   230
100
AcDbCircle
 10
-3.625
 20
0.0000000000000004
 30
-0.125
 40
0.266
  0
CIRCLE
  5
F8
330
1F
100
AcDbEntity
  8
2_Part Contour
 62
   230
100
AcDbCircle
 10
-2.563262081801235
 20
-2.563262081801235
 30
-0.125
 40
0.266
  0
CIRCLE
  5
F9
330
1F
100
AcDbEntity
  8
2_Part Contour
 62
   230
100
AcDbCircle
 10
-0.0000000000000007
 20
-3.625
 30
-0.125
 40
0.266
  0
CIRCLE
  5
FA
330
1F
100
AcDbEntity
  8
2_Part Contour
 62
   230
100
AcDbCircle
 10
2.563262081801234
 20
-2.563262081801235
 30
-0.125
 40
0.266
  0
VIEWPORT
  5
3F
330
1B
100
AcDbEntity
 67
     1
  8
0
100
AcDbViewport
 10
0.0
 20
0.0
 30
0.0
 40
1.0
 41
1.0
 68
     1
 69
     1
 12
0.0
 22
0.0
 13
0.0
 23
0.0
 14
0.5
 24
0.5
 15
0.0
 25
0.0
 16
0.0
 26
0.0
 36
1.0
 17
0.0
 27
0.0
 37
0.0
 42
50.0
 43
0.0
 44
0.0
 45
1.0
 50
0.0
 51
0.0
 72
   100
 90
   557152
  1

281
     0
 71
     1
 74
     0
110
0.0
120
0.0
130
0.0
111
1.0
121
0.0
131
0.0
112
0.0
122
1.0
132
0.0
 79
     0
146
0.0
  0
ENDSEC
  0
SECTION
  2
OBJECTS
  0
DICTIONARY
  5
C
330
0
100
AcDbDictionary
281
     1
  3
ACAD_GROUP
350
D
  3
ACAD_LAYOUT
350
1A
  3
ACAD_MLINESTYLE
350
17
  3
ACAD_PLOTSETTINGS
350
19
  3
ACAD_PLOTSTYLENAME
350
E
  3
ACAD_TABLESTYLE
350
FB
  3
ACAD_VISUALSTYLE
350
2A
  3
DWGPROPS
350
FC
  0
DICTIONARY
  5
D
102
{ACAD_REACTORS
330
C
102
}
330
C
100
AcDbDictionary
281
     1
  0
DICTIONARY
  5
1A
102
{ACAD_REACTORS
330
C
102
}
330
C
100
AcDbDictionary
281
     1
  3
Layout1
350
1E
  3
Layout2
350
26
  3
Model
350
22
  0
DICTIONARY
  5
17
102
{ACAD_REACTORS
330
C
102
}
330
C
100
AcDbDictionary
281
     1
  3
Standard
350
18
  0
DICTIONARY
  5
19
102
{ACAD_REACTORS
330
C
102
}
330
C
100
AcDbDictionary
281
     1
  0
ACDBDICTIONARYWDFLT
  5
E
102
{ACAD_REACTORS
330
C
102
}
330
C
100
AcDbDictionary
281
     1
  3
Normal
350
F
100
AcDbDictionaryWithDefault
340
F
  0
DICTIONARY
  5
FB
102
{ACAD_REACTORS
330
C
102
}
330
C
100
AcDbDictionary
281
     1
  0
DICTIONARY
  5
2A
102
{ACAD_REACTORS
330
C
102
}
330
C
100
AcDbDictionary
281
     1
  3
2dWireframe
350
2F
  3
3D Hidden
350
31
  3
3dWireframe
350
30
  3
Basic
350
32
  3
Brighten
350
36
  3
ColorChange
350
3A
  3
Conceptual
350
34
  3
Dim
350
35
  3
Facepattern
350
39
  3
Flat
350
2B
  3
FlatWithEdges
350
2C
  3
Gouraud
350
2D
  3
GouraudWithEdges
350
2E
  3
Linepattern
350
38
  3
Realistic
350
33
  3
Thicken
350
37
  0
XRECORD
  5
FC
102
{ACAD_REACTORS
330
C
102
}
330
C
100
AcDbXrecord
280
     1
  1
DWGPROPS COOKIE
  2

  3

  4

  6
File was created by OdWriteEx
  7

  8

  9

300
=
301
=
302
=
303
=
304
=
305
=
306
=
307
=
308
=
309
=
 40
0.0
 41
2453737.833333333
 42
2454839.060754225
  1

 90
        0
  0
LAYOUT
  5
1E
102
{ACAD_REACTORS
330
1A
102
}
330
1A
100
AcDbPlotSettings
  1

  2
none_device
  4

  6

 40
0.0
 41
0.0
 42
0.0
 43
0.0
 44
0.0
 45
0.0
 46
0.0
 47
0.0
 48
0.0
 49
0.0
140
0.0
141
0.0
142
1.0
143
1.0
 70
   688
 72
     0
 73
     0
 74
     5
  7

 75
    16
147
1.0
148
0.0
149
0.0
100
AcDbLayout
  1
Layout1
 70
     1
 71
     1
 10
0.0
 20
0.0
 11
12.0
 21
9.0
 12
0.0
 22
0.0
 32
0.0
 14
1.000000000000000E+20
 24
1.000000000000000E+20
 34
1.000000000000000E+20
 15
-1.000000000000000E+20
 25
-1.000000000000000E+20
 35
-1.000000000000000E+20
146
0.0
 13
0.0
 23
0.0
 33
0.0
 16
1.0
 26
0.0
 36
0.0
 17
0.0
 27
1.0
 37
0.0
 76
     0
330
1B
331
3F
  0
LAYOUT
  5
26
102
{ACAD_REACTORS
330
1A
102
}
330
1A
100
AcDbPlotSettings
  1

  2
none_device
  4

  6

 40
0.0
 41
0.0
 42
0.0
 43
0.0
 44
0.0
 45
0.0
 46
0.0
 47
0.0
 48
0.0
 49
0.0
140
0.0
141
0.0
142
1.0
143
1.0
 70
   688
 72
     0
 73
     0
 74
     5
  7

 75
    16
147
1.0
148
0.0
149
0.0
100
AcDbLayout
  1
Layout2
 70
     1
 71
     2
 10
0.0
 20
0.0
 11
0.0
 21
0.0
 12
0.0
 22
0.0
 32
0.0
 14
0.0
 24
0.0
 34
0.0
 15
0.0
 25
0.0
 35
0.0
146
0.0
 13
0.0
 23
0.0
 33
0.0
 16
1.0
 26
0.0
 36
0.0
 17
0.0
 27
1.0
 37
0.0
 76
     0
330
23
  0
LAYOUT
  5
22
102
{ACAD_REACTORS
330
1A
102
}
330
1A
100
AcDbPlotSettings
  1

  2
none_device
  4

  6

 40
0.0
 41
0.0
 42
0.0
 43
0.0
 44
0.0
 45
0.0
 46
0.0
 47
0.0
 48
0.0
 49
0.0
140
0.0
141
0.0
142
1.0
143
1.0
 70
  1712
 72
     0
 73
     0
 74
     0
  7

 75
     0
147
1.0
148
0.0
149
0.0
100
AcDbLayout
  1
Model
 70
     1
 71
     0
 10
0.0
 20
0.0
 11
12.0
 21
9.0
 12
0.0
 22
0.0
 32
0.0
 14
0.0
 24
0.0
 34
0.0
 15
25.0
 25
35.0
 35
0.0
146
0.0
 13
0.0
 23
0.0
 33
0.0
 16
1.0
 26
0.0
 36
0.0
 17
0.0
 27
1.0
 37
0.0
 76
     0
330
1F
331
29
  0
MLINESTYLE
  5
18
102
{ACAD_REACTORS
330
17
102
}
330
17
100
AcDbMlineStyle
  2
Standard
 70
     0
  3

 62
   256
 51
90.0
 52
90.0
 71
     2
 49
0.5
 62
   256
  6
BYLAYER
 49
-0.5
 62
   256
  6
BYLAYER
  0
ACDBPLACEHOLDER
  5
F
102
{ACAD_REACTORS
330
E
102
}
330
E
  0
VISUALSTYLE
  5
2F
102
{ACAD_REACTORS
330
2A
102
}
330
2A
100
AcDbVisualStyle
  2
2dWireframe
 70
     4
 71
     0
 72
     2
 73
     0
 90
        0
 40
-0.6
 41
-30.0
 62
     5
 63
     7
 74
     1
 91
        4
 64
     7
 65
   257
 75
     1
175
     1
 42
1.0
 92
        0
 66
   257
 43
1.0
 76
     1
 77
     6
 78
     2
 67
     7
 79
     5
170
     0
171
     0
290
     0
174
     0
 93
        1
 44
0.0
173
     0
291
     0
 45
0.0
1001
ACAD
1000
AcDbSavedByObjectVersion
1070
     0
  0
VISUALSTYLE
  5
31
102
{ACAD_REACTORS
330
2A
102
}
330
2A
100
AcDbVisualStyle
  2
3D Hidden
 70
     6
 71
     1
 72
     2
 73
     2
 90
        0
 40
-0.6
 41
-30.0
 62
     5
 63
     7
 74
     2
 91
        2
 64
     7
 65
   257
 75
     2
175
     1
 42
40.0
 92
        0
 66
   257
 43
1.0
 76
     1
 77
     6
 78
     2
 67
     7
 79
     3
170
     0
171
     0
290
     0
174
     0
 93
        1
 44
0.0
173
     0
291
     0
 45
0.0
1001
ACAD
1000
AcDbSavedByObjectVersion
1070
     0
  0
VISUALSTYLE
  5
30
102
{ACAD_REACTORS
330
2A
102
}
330
2A
100
AcDbVisualStyle
  2
3dWireframe
 70
     5
 71
     0
 72
     2
 73
     0
 90
        0
 40
-0.6
 41
-30.0
 62
     5
 63
     7
 74
     1
 91
        4
 64
     7
 65
   257
 75
     1
175
     1
 42
1.0
 92
        0
 66
   257
 43
1.0
 76
     1
 77
     6
 78
     2
 67
     7
 79
     5
170
     0
171
     0
290
     0
174
     0
 93
        1
 44
0.0
173
     0
291
     0
 45
0.0
1001
ACAD
1000
AcDbSavedByObjectVersion
1070
     0
  0
VISUALSTYLE
  5
32
102
{ACAD_REACTORS
330
2A
102
}
330
2A
100
AcDbVisualStyle
  2
Basic
 70
     7
 71
     1
 72
     0
 73
     1
 90
        0
 40
-0.6
 41
-30.0
 62
     5
 63
     7
 74
     0
 91
        4
 64
     7
 65
   257
 75
     1
175
     1
 42
1.0
 92
        8
 66
     7
 43
1.0
 76
     1
 77
     6
 78
     2
 67
     7
 79
     5
170
     0
171
     0
290
     0
174
     0
 93
        1
 44
0.0
173
     0
291
     1
 45
0.0
1001
ACAD
1000
AcDbSavedByObjectVersion
1070
     0
  0
VISUALSTYLE
  5
36
102
{ACAD_REACTORS
330
2A
102
}
330
2A
100
AcDbVisualStyle
  2
Brighten
 70
    12
 71
     2
 72
     2
 73
     0
 90
        0
 40
-0.6
 41
-30.0
 62
     5
 63
     7
 74
     1
 91
        4
 64
     7
 65
   257
 75
     1
175
     1
 42
1.0
 92
        8
 66
     7
 43
1.0
 76
     1
 77
     6
 78
     2
 67
     7
 79
     5
170
     0
171
     0
290
     0
174
     0
 93
        1
 44
50.0
173
     0
291
     1
 45
0.0
1001
ACAD
1000
AcDbSavedByObjectVersion
1070
     0
  0
VISUALSTYLE
  5
3A
102
{ACAD_REACTORS
330
2A
102
}
330
2A
100
AcDbVisualStyle
  2
ColorChange
 70
    16
 71
     2
 72
     2
 73
     3
 90
        0
 40
-0.6
 41
-30.0
 62
     5
 63
     8
 74
     1
 91
        4
 64
     7
 65
   257
 75
     1
175
     1
 42
1.0
 92
        8
 66
     8
 43
1.0
 76
     1
 77
     6
 78
     2
 67
     7
 79
     5
170
     0
171
     0
290
     0
174
     0
 93
        1
 44
0.0
173
     0
291
     1
 45
0.0
1001
ACAD
1000
AcDbSavedByObjectVersion
1070
     0
  0
VISUALSTYLE
  5
34
102
{ACAD_REACTORS
330
2A
102
}
330
2A
100
AcDbVisualStyle
  2
Conceptual
 70
     9
 71
     3
 72
     2
 73
     0
 90
        0
 40
-0.6
 41
-30.0
 62
     5
 63
     7
 74
     2
 91
        2
 64
     7
 65
   257
 75
     1
175
     1
 42
40.0
 92
        8
 66
     7
 43
1.0
 76
     1
 77
     6
 78
     2
 67
     7
 79
     3
170
     0
171
     0
290
     0
174
     0
 93
        1
 44
0.0
173
     0
291
     0
 45
0.0
1001
ACAD
1000
AcDbSavedByObjectVersion
1070
     0
  0
VISUALSTYLE
  5
35
102
{ACAD_REACTORS
330
2A
102
}
330
2A
100
AcDbVisualStyle
  2
Dim
 70
    11
 71
     2
 72
     2
 73
     0
 90
        0
 40
-0.6
 41
-30.0
 62
     5
 63
     7
 74
     1
 91
        4
 64
     7
 65
   257
 75
     1
175
     1
 42
1.0
 92
        8
 66
     7
 43
1.0
 76
     1
 77
     6
 78
     2
 67
     7
 79
     5
170
     0
171
     0
290
     0
174
     0
 93
        1
 44
-50.0
173
     0
291
     1
 45
0.0
1001
ACAD
1000
AcDbSavedByObjectVersion
1070
     0
  0
VISUALSTYLE
  5
39
102
{ACAD_REACTORS
330
2A
102
}
330
2A
100
AcDbVisualStyle
  2
Facepattern
 70
    15
 71
     2
 72
     2
 73
     0
 90
        0
 40
-0.6
 41
-30.0
 62
     5
 63
     7
 74
     1
 91
        4
 64
     7
 65
   257
 75
     1
175
     1
 42
1.0
 92
        8
 66
     7
 43
1.0
 76
     1
 77
     6
 78
     2
 67
     7
 79
     5
170
     0
171
     0
290
     0
174
     0
 93
        1
 44
0.0
173
     0
291
     1
 45
0.0
1001
ACAD
1000
AcDbSavedByObjectVersion
1070
     0
  0
VISUALSTYLE
  5
2B
102
{ACAD_REACTORS
330
2A
102
}
330
2A
100
AcDbVisualStyle
  2
Flat
 70
     0
 71
     2
 72
     1
 73
     1
 90
        2
 40
-0.6
 41
30.0
 62
     5
 63
     7
 74
     0
 91
        4
 64
     7
 65
   257
 75
     1
175
     1
 42
1.0
 92
        8
 66
     7
 43
1.0
 76
     1
 77
     6
 78
     2
 67
     7
 79
     5
170
     0
171
     0
290
     0
174
     0
 93
       13
 44
0.0
173
     0
291
     1
 45
0.0
1001
ACAD
1000
AcDbSavedByObjectVersion
1070
     0
  0
VISUALSTYLE
  5
2C
102
{ACAD_REACTORS
330
2A
102
}
330
2A
100
AcDbVisualStyle
  2
FlatWithEdges
 70
     1
 71
     2
 72
     1
 73
     1
 90
        2
 40
-0.6
 41
30.0
 62
     5
 63
     7
 74
     1
 91
        4
 64
     7
 65
   257
 75
     1
175
     1
 42
1.0
 92
        0
 66
   257
 43
1.0
 76
     1
 77
     6
 78
     2
 67
     7
 79
     5
170
     0
171
     0
290
     0
174
     0
 93
       13
 44
0.0
173
     0
291
     1
 45
0.0
1001
ACAD
1000
AcDbSavedByObjectVersion
1070
     0
  0
VISUALSTYLE
  5
2D
102
{ACAD_REACTORS
330
2A
102
}
330
2A
100
AcDbVisualStyle
  2
Gouraud
 70
     2
 71
     2
 72
     2
 73
     1
 90
        2
 40
-0.6
 41
30.0
 62
     5
 63
     7
 74
     0
 91
        4
 64
     7
 65
   257
 75
     1
175
     1
 42
1.0
 92
        0
 66
     7
 43
1.0
 76
     1
 77
     6
 78
     2
 67
     7
 79
     5
170
     0
171
     0
290
     0
174
     0
 93
       13
 44
0.0
173
     0
291
     1
 45
0.0
1001
ACAD
1000
AcDbSavedByObjectVersion
1070
     0
  0
VISUALSTYLE
  5
2E
102
{ACAD_REACTORS
330
2A
102
}
330
2A
100
AcDbVisualStyle
  2
GouraudWithEdges
 70
     3
 71
     2
 72
     2
 73
     1
 90
        2
 40
-0.6
 41
30.0
 62
     5
 63
     7
 74
     1
 91
        4
 64
     7
 65
   257
 75
     1
175
     1
 42
1.0
 92
        0
 66
   257
 43
1.0
 76
     1
 77
     6
 78
     2
 67
     7
 79
     5
170
     0
171
     0
290
     0
174
     0
 93
       13
 44
0.0
173
     0
291
     1
 45
0.0
1001
ACAD
1000
AcDbSavedByObjectVersion
1070
     0
  0
VISUALSTYLE
  5
38
102
{ACAD_REACTORS
330
2A
102
}
330
2A
100
AcDbVisualStyle
  2
Linepattern
 70
    14
 71
     2
 72
     2
 73
     0
 90
        0
 40
-0.6
 41
-30.0
 62
     5
 63
     7
 74
     1
 91
        4
 64
     7
 65
   257
 75
     7
175
     7
 42
1.0
 92
        8
 66
     7
 43
1.0
 76
     1
 77
     6
 78
     2
 67
     7
 79
     5
170
     0
171
     0
290
     0
174
     0
 93
        1
 44
0.0
173
     0
291
     1
 45
0.0
1001
ACAD
1000
AcDbSavedByObjectVersion
1070
     0
  0
VISUALSTYLE
  5
33
102
{ACAD_REACTORS
330
2A
102
}
330
2A
100
AcDbVisualStyle
  2
Realistic
 70
     8
 71
     2
 72
     2
 73
     0
 90
        0
 40
-0.6
 41
-30.0
 62
     5
 63
     7
 74
     1
 91
        0
 64
     7
 65
   257
 75
     1
175
     1
 42
1.0
 92
        8
 66
     8
 43
1.0
 76
     1
 77
     6
 78
     2
 67
     7
 79
     5
170
     0
171
     0
290
     0
174
     0
 93
       13
 44
0.0
173
     0
291
     0
 45
0.0
1001
ACAD
1000
AcDbSavedByObjectVersion
1070
     0
  0
VISUALSTYLE
  5
37
102
{ACAD_REACTORS
330
2A
102
}
330
2A
100
AcDbVisualStyle
  2
Thicken
 70
    13
 71
     2
 72
     2
 73
     0
 90
        0
 40
-0.6
 41
-30.0
 62
     5
 63
     7
 74
     1
 91
        4
 64
     7
 65
   257
 75
     1
175
     1
 42
1.0
 92
       12
 66
     7
 43
1.0
 76
     1
 77
     6
 78
     2
 67
     7
 79
     5
170
     0
171
     0
290
     0
174
     0
 93
        1
 44
0.0
173
     0
291
     1
 45
0.0
1001
ACAD
1000
AcDbSavedByObjectVersion
1070
     0
  0
ENDSEC
  0
SECTION
  2
THUMBNAILIMAGE
 90
    16364
310
28000000B40000005500000001000800000000000000000000000000000000000000000000000000FFFFFF00FF000000FFFF000000FF000000FFFF000000FF00FF00FF000000000080808000C0C0C000FF000000FF7F7F00A5000000A55252007F0000007F3F3F004C0000004C2626002600000026131300FF3F0000FF9F7F
310
00A5290000A56752007F1F00007F4F3F004C1300004C2F26002609000026171300FF7F0000FFBF7F00A5520000A57C52007F3F00007F5F3F004C2600004C39260026130000261C1300FFBF0000FFDF7F00A57C0000A59152007F5F00007F6F3F004C3900004C422600261C000026211300FFFF0000FFFF7F00A5A50000A5A5
310
52007F7F00007F7F3F004C4C00004C4C26002626000026261300BFFF0000DFFF7F007CA5000091A552005F7F00006F7F3F00394C0000424C26001C260000212613007FFF0000BFFF7F0052A500007CA552003F7F00005F7F3F00264C0000394C2600132600001C2613003FFF00009FFF7F0029A5000067A552001F7F00004F
310
7F3F00134C00002F4C2600092600001726130000FF00007FFF7F0000A5000052A55200007F00003F7F3F00004C0000264C2600002600001326130000FF3F007FFF9F0000A5290052A56700007F1F003F7F4F00004C1300264C2F00002609001326170000FF7F007FFFBF0000A5520052A57C00007F3F003F7F5F00004C2600
310
264C39000026130013261C0000FFBF007FFFDF0000A57C0052A59100007F5F003F7F6F00004C3900264C420000261C001326210000FFFF007FFFFF0000A5A50052A5A500007F7F003F7F7F00004C4C00264C4C00002626001326260000BFFF007FDFFF00007CA5005291A500005F7F003F6F7F0000394C0026424C00001C26
310
0013212600007FFF007FBFFF000052A500527CA500003F7F003F5F7F0000264C0026394C0000132600131C2600003FFF007F9FFF000029A5005267A500001F7F003F4F7F0000134C00262F4C0000092600131726000000FF007F7FFF000000A5005252A50000007F003F3F7F0000004C0026264C0000002600131326003F00
310
FF009F7FFF002900A5006752A5001F007F004F3F7F0013004C002F264C0009002600171326007F00FF00BF7FFF005200A5007C52A5003F007F005F3F7F0026004C0039264C00130026001C132600BF00FF00DF7FFF007C00A5009152A5005F007F006F3F7F0039004C0042264C001C00260021132600FF00FF00FF7FFF00A5
310
00A500A552A5007F007F007F3F7F004C004C004C264C002600260026132600FF00BF00FF7FDF00A5007C00A55291007F005F007F3F6F004C0039004C26420026001C0026132100FF007F00FF7FBF00A5005200A5527C007F003F007F3F5F004C0026004C2639002600130026131C00FF003F00FF7F9F00A5002900A5526700
310
7F001F007F3F4F004C0013004C262F002600090026131700000000002D2D2D005B5B5B0089898900B7B7B700B3B3B3000000000000000000000000000000000000000002000000BE00000000BE0000000200000000000000000000000000000000000002000200000000000000000000000000000000000000000000000000
310
0000000000000000000000000000000000000000000000000000000000000000000000000000000000000000000000000000000000000000000000000000000000000000000000000000000000000000000000000000000000000000000000000000000000000000000000000000000000000000000000000200000000BE00
310
00BEBE00000002000000000000000000000000000000000000020002000000000000000000000000000000000000000000000000000000000000000000000000000000000000000000000000000000000000000000000000000000000000000000000000000000000000000000000000000000000000000000000000000000
310
00000000000000000000000000000000000000000000000000000000000000000000000000000000000000000000020000000000BEBE00000000000200000000000000000000000000000000000002000200000000000000000000000000000000000000000000000000000000000000000000000000000000000000000000
310
00000000000000000000000000000000000000000000000000000000000000000000000000000000000000000000000000000000000000000000000000000000000000000000000000000000000000000000000000000000000000000000000000000002000000000000000000000000020000000000000000000000000000
310
00000000020002000000000000000000000000000000000000000000000000000000000000000000000000000000000000000000000000000000000000000000000000000000000000000000000000000000000000000000000000000000000000000000000000000000000000000000000000000000000000000000000000
310
00000000000000000000000000000000000000000000000000020000000000000000000000020000000000000000000000000000000000000002000200000000000000000000000000000000000000000000000000000000000000000000000000000000000000000000000000000000000000000000000000000000000000
310
00000000000000000000000000000000000000000000000000000000000000000000000000000000000000000000000000000000000000000000000000000000000000000000000000000000000002000000000000000000000002000000000000000000000000000000000000000200020000000000000000000000000000
310
00000000000000000000000000000000000000000000000000000000000000000000000000000000000000000000000000000000000000000000000000000000000000000000000000000000000000000000000000000000000000000000000000000000000000000000000000000000000000000000000000000000000000
310
00000000020000000000000000000000020000000000000000000000000000000000000200000200000000000000000000000000000000000000000000000000000000000000000000000000000000000000000000000000000000000000000000000000000000000000000000000000000000000000000000000000000000
310
00000000000000000000000000000000000000000000000000000000000000000000000000000000000000000000000000000000000000000200000000000000000000000002000000000000000000000000000000000000020000020000000000000000000000000000000000000000000000000000000000000000000000
310
00000000000000000000000000000000000000000000000000000000000000000000000000000000000000000000000000000000000000000000000000000000000000000000000000000000000000000000000000000000000000000000000000000000000000000000000000020000000000000000000000000200000000
310
00000000000000000000000000020000000200000000000000000000000000000000000000000000000000000000000000000000000000000000000000000000000000000000000000000000000000000000000000000000000000000000000000000000000000000000000000000000000000000000000000000000000000
310
00000000000000000000000000000000000000000000000000000000000000000000000200000000000000000000000002000000000000000000000000000000000002000000020000000000000000000000000000000000000000000000000000000000000000000000000000000000000000000000000000000000000000
310
00000000000000000000000000000000000000000000000000000000000000000000000000000000000000000000000000000000000000000000000000000000000000000000000000000000000000000000000000000000020000000000000000000000020000000000000000000000000000000000020000000002000000
310
00000000000000000000000000000000000000000000000000000000000000000000000000000000000000000000000000000000000000000000000000000000000000000000000000000000000000000000000000000000000000000000000000000000000000000000000000000000000000000000000000000000000000
310
00000000000000000000000000020000000000000000000000000200000000000000000000000000000000000200000000020000000000000000000000000000000000000000000000000000000000000000000000000000000000000000000000000000000000000000000000000000000000000000000000000000000000
310
00000000000000000000000000000000000000000000000000000000000000000000000000000000000000000000000000000000000000000000000000000000000002000000000000000000000000020000000000000000000000000000000002000000000002000000000000000000000000000000000000000000000000
310
00000000000000000000000000000000000000000000000000000000000000000000000000000000000000000000000000000000000000000000000000000000000000000000000000000000000000000000000000000000000000000000000000000000000000000000000000000000000000000000000200000000000000
310
00000000000200000000000000000000000000000000020000000000020000000000000000000000000000000000000000000000000000000000000000000000000000000000000000000000000000000000000000000000000000000000000000000000000000000000000000000000000000000000000000000000000000
310
00000000000000000000000000000000000000000000000000000000000000000000000000000000000000000200000000000000000000000002000000000000000000000000000000000002000000000002000000000000000000000000000000000000000000000000000000000000000000000000000000000000000000
310
00000000000000000000000000000000000000000000000000000000000000000000000000000000000000000000000000000000000000000000000000000000000000000000000000000000000000000000000000000000000000000000000000020000000000000000000000000200000000000000000000000000000000
310
02000000000000020000000000000000000000000000000000000000000000000000000000000000000000000000000000000000000000000000000000000000000000000000000000000000000000000000000000000000000000000000000000000000000000000000000000000000000000000000000000000000000000
310
00000000000000000000000000000000000000000000020000000000000000000000000200000000000000000000000000000000000200000000000002000000000000000000000000000000000000000000000000000000000000000000000000000000000000000000000000000000000000000000000000000000000000
310
00000000000000000000000000000000000000000000000000000000000000000000000000000000000000000000000000000000000000000000000000000000000000000000000000000200000000000000000000000000020000000000000000000000000000000002000000000000000200000000000000000000000000
310
00000000000000000000000000000000000000000000000000000000000000000000000000000000000000000000000000000000000000000000000000000000000000000000000000000000000000000000000000000000000000000000000000000000000000000000000000000000000000000000000000000000000002
310
00000000000000000000000000020000000000000000000000000000000000020000000000000002000000000000000000000000000000000000000000000000000000000000000000000000000000000000000000000000000000000000000000000000000000000000000000000000000000000000000000000000000000
310
00000000000000000000000000000000000000000000000000000000000000000000000000000000000000000000000000000000020000000000000000000000000002000000000000000000000000000000000200000000000000000200000000000000000000000000000000000000000000000000000000000000000000
310
00000000000000000000000000000000000000000000000000000000000000000000000000000000000000000000000000000000000000000000000000000000000000000000000000000000000000000000000000000000000000000000000000000000000000000200000000000000000000000000020000000000000000
310
00000000000000000002000000000000000002000000000000000000000000000000000000000000000000000000000000000000000000000000000000000000000000000000000000000000000000000000000000000000000000000000000000000000000000000000000000000000000000000000000000000000000000
310
00000000000000000000000000000000000000000000000000000000000200000000000000000000000000000200000000000000000000000000000000020000000000000000000200000000000000000000000000000000000000000000000000000000000000000000000000000000000000000000000000000000000000
310
0000000000000000000000000000000000000000000000000000000000000000000000000000000000000000000000000000000000000000000000000000000000000000000000000000000000000000000200000000BEBE000000000000000002000000000000000000000000000000000002000000000000000000020000
310
00000000000000000000000000000000000000000000000000000000000000000000000000000000000000000000000000000000000000000000000000000000000000000000000000000000000000000000000000000000000000000000000000000000000000000000000000000000000000000000000000000000000000
310
0000000000020200000000BE0000BEBE000000000000020000000000000000000000000000000000020000000000000000000200000000000000000000000000000000000000000000000000000000000000000000000000000000000000000000000000000000000000000000000000000000000000000000000000000000
310
000000000000000000000000000000000000000000000000000000000000000000000000000000000000000000000000000000000000000002020000000000BE00000000BE00000000000200000000000000000000000000000000000002000000000000000000020000000000000000000000000000000000000000000000
310
000000000000000000000000000000000000000000000000000000000000000000000000000000000000000000000000000000000000000000000000000000000000000000000000000000000000000000000000000000000000000000000000000000000000000000000002020000000000000000BE000000BE0000000002
310
00000000000000000000000000000000000000020000000000000000000200000000000000000000000000000000000000000000000000000000000000000000000000000000000000000000000000000000000000000000000000000000000000000000000000000000000000000000000000000000000000000000000000
310
00000000000000000000000000000000000000000000000000000000000000020200000000000000000000BE0000BEBE00000002000000000000000000000000000000000000000002000000000000000000020000000000000000000000000000000000000000000000000000000000000000000000000000000000000000
310
00000000000000000000000000000000000000000000000000000000000000000000000000000000000000000000000000000000000000000000000000000000000000000000000000000000000000000000020200000000000000000000000000BEBE00000000020000000000000000000000000000000000000000000200
310
00000000000000000200000000000000000000000000000000000000000000000000000000000000000000000000000000000000000000000000000000000000000000000000000000000000000000000000000000000000000000000000000000000000000000000000000000000000000000000000000000000000000000
310
00000000000000000000000000000000000000000000000000000002020000000000000000000000000000000000000000000002000000000000000000020000000000000000000000000000000000000000000000000000000000000000000000000000000000000000000000000000000000000000000000000000000000
310
00000000000000000000000000000000000000000000000000000000000000000000000000000000000000000000000000000000000000000000000000000000000000000000000000000000000000020000000000000000000000000000000000000000000000000200000000000000000002000000000000000000000000
310
00000000000000000000000000000000000000000000000000000000000000000000000000000000000000000000000000000000000000000000000000000000000000000000000000000000000000000000000000000000000000000000000000000000000000000000000000000000000000000000000000000000000000
310
00000000020000000000000000000000000000000000000000000000000002000000000000000000020000000000000000000000000000000000000000000000000000000000000000000000000000000000000000000000000000000000000000000000000000000000000000000000000000000000000000000000000000
310
00000000000000000000000000000000000000000000000000000000000000000000000000000000000000000000000000000000000000000200000000000000000000000000000000000000000000000000020000000000000000000002000000000000000000000000000000000000000000000000000000000000000000
310
00000000000000000000000000000000000000000000000000000000000000000000000000000000000000000000000000000000000000000000000000000000000000000000000000000000000000000000000000000000000000000000000000000000000000000000000002000000000000000000000000000000000000
310
00008D8D8D0000000200000000000000000000020000000000000000000000000000000000000000000000000000000000000000000000000000000000000000000000000000000000000000000000000000000000000000000000000000000000000000000000000000000000000000000000000000000000000000000000
310
0000000000000000000000000000000000000000000000000000000000000000020200000000000000000000000000000000000000008D00008D000002000000000000000000000002000000000000000000000000000000000000000000000000000000000000000000000000000000000000000000000000000000000000
310
000000000000000000000000000000000000000000000000000000000000000000000000000000000000000000000000000000000000000000000000000000000000000000000000000000000000000000000002020000000000000000000000000000000000000000008D0000008D00020000000000000000000000000200
310
00000000000000000000000000000000000000000000000000000000000000000000000000000000000000000000000000000000000000000000000000000000000000000000000000000000000000000000000000000000000000000000000000000000000000000000000000000000000000000000000000000000000000
310
0000000000000002020000000000000000000000000000000000000000000000008D8D8D8D000200000000000000000000000002000000000000000000000000000000000000000000000000000000000000000000000000000000000000000000000000000000000000000000000000000000000000000000000000000000
310
00000000000000000000000000000000000000000000000000000000000000000000000000000000000000000000000000000000000000000000020200000000000000000000000000000000000000000000000000000000000002000000000000000000000000000200000000000000000000000000000000000000000000
310
00000000000000000000000000000000000000000000000000000000000000000000000000000000000000000000000000000000000000000000000000000000000000000000000000000000000000000000000000000000000000000000000000000000000000000000000000020200000000000000000000000000000000
310
00000000000000000000000000000000020000000000000000000000000002000000000000000000000000000000000000000000000000000000000000000000000000000000000000000000000000000000000000000000000000000000000000000000000000000000000000000000000000000000000000000000000000
310
0000000000000000000000000000000000000000000000000000000000000000020202000000000000000000000000000000000000000000000000000000008D8D0000000002000000000000000000000000000200000000000000000000000000000000000000000000000000000000000000000000000000000000000000
310
000000000000000000000000000000000000000000000000000000000000000000000000000000000000000000000000000000000000000000000000000000000000000000000000000000000000000000000002020000000000000000000000000000000000000000000000000000000000008D00008D0000020000000000
310
00000000000000000002000000000000000000000000000000000000000000000000000000000000000000000000000000000000000000000000000000000000000000000000000000000000000000000000000000000000000000000000000000000000000000000000000000000000000000000000000000000000000000
310
000000000000000000000000000000000000000000000000000000000000000000000000000000008D0000008D00000200000000000000000000000000000200000000000000000000000000000000000000000000000000000000000000000000000000000000000000000000000000000000000000000000000000000000
310
000000000000000000000000000000000000000000000000000000000000000000000000000000000000000000000000000000000000000000000000000000000000000000000000000000000000000000000000000000000000000000008D008D8D0000020000000000000000000000000000020000000000000000000000
310
00000000000000000000000000000000000000000000000000000000000000000000000000000000000000000000000000000000000000000000000000000000000000000000000000000000000000000000000000000000000000000000000000000000000000000000000000000000000000000000000000000000000000
310
0000000000000000000000000000000000000000008D000000000200000000000000000000000000000200000000000000000000000000000000000000000000000000000000000000000000000000000000000000000000000000000000000000000000000000000000000000000000000000000000000000000000000000
310
00000000000000000000000000000000000000000000000000000000000000000000000000000000000000000000000000000000000000000000000000000000000000000000000000000000000002000000000000000000000000000000020000000000000000000000000000000000000000000000000000000000000000
310
00000000000000000000000000000000000000000000000000000000000000000000000000000000000000000000000000000000000000000000000000000000000000000000000000000000000000000000000000000000000000000000000000000000000000000000000000000000000000000000000000000000000002
310
02000000020000000000000000000000000000000200000000000000000000000000000000000000000000000000000000000000000000000000000000000000000000000000000000000000000000000000000000000000000000000000000000000000000000000000000000000000000000000000000000000000000000
310
00000000000000000000000000000000000000000000000000000000000000000000000000000000000000000000000000000202000002020202000000000000000000000000000000020000000000000000000000000000000000000000000000000000000000000000000000000000000000000000000000000000000000
310
00000000000000000000000000000000000000000000000000000000000000000000000000000000000000000000000000000000000000000000000000000000000000000000000000000000000000000000000000000000000000000000000000000000000202000000000000000000000000000000000000000000000002
310
00000000000000000000000000000000000000000000000000000000000000000000000000000000000000000000000000000000000000000000000000000000000000000000000000000000000000000000000000000000000000000000000000000000000000000000000000000000000000000000000000000000000000
310
00000000000000000000000000000000000000000000000000000200000000000000000000000000000000000000000000000000020000000000000000000000000000000000000000000000000000000000000000000000000000000000000000000000000000000000000000000000000000000000000000000000000000
310
00000000000000000000000000000000000000000000000000000000000000000000000000000000000000000000000000000000000000000000000000000000000000000000000000000000000202000000000000000000000000000000000000000000000000000002000000000000000000000000000000000000000000
310
00000000000000000000000000000000000000000000000000000000000000000000000000000000000000000000000000000000000000000000000000000000000000000000000000000000000000000000000000000000000000000000000000000000000000000000000000000000000000000000000000000000000000
310
00020200000000000000000000000000000000000000000000000000000000020000000000000000000000000000000000000000000000000000000000000000000000000000000000000000000000000000000000000000000000000000000000000000000000000000000000000000000000000000000000000000000000
310
00000000000000000000000000000000000000000000000000000000000000000000000000000000000000000000000000000000000200000000000000000000000000000000000000000000000000000000000002000000000000000000000000000000000000000000000000000000000000000000000000000000000000
310
00000000000000000000000000000000000000000000000000000000000000000000000000000000000000000000000000000000000000000000000000000000000000000000000000000000000000000000000000000000000000000000000000000000000000000202000000000000000000000000000000000000000000
310
00000000000000000000020000000000000000000000000000000000000000000000000000000000000000000000000000000000000000000000000000000000000000000000000000000000000000000000000000000000000000000000000000000000000000000000000000000000000000000000000000000000000000
310
00000000000000000000000000000000000000000000000000000000020200000000000000000000000000000000000000000000000000000000000000000002000000000000000000000000000000000000000000000000000000000000000000000000000000000000000000000000000000000000000000000000000000
310
00000000000000000000000000000000000000000000000000000000000000000000000000000000000000000000000000000000000000000000000000000000000000000000000000000000000000020200000000000000000000000000000000000000000000000000000000000000000000000200000000000000000000
310
00000000000000000000000000000000000000000000000000000000000000000000000000000000000000000000000000000000000000000000000000000000000000000000000000000000000000000000000000000000000000000000000000000000000000000000000000000000000000000000000000000000000000
310
00000202020000000000000000000000000000000000000000000000000000000000000000000000000002000000000000000000000000000000000000000000000000000000000000000000000000000000000000000000000000000000000000000000000000000000000000000000000000000000000000000000000000
310
00000000000000000000000000000000000000000000000000000000000000000000000000000000000000000000060600000000000202000000000000000000000000000000000000000000000000000000000000000000000000000000000200000000000000000000000000000000000000000000000000000000000000
310
00000000000000000000000000000000000000000000000000000000000000000000000000000000000000000000000000000000000000000000000000000000000000000000000000000000000000000000000000000000000000000000000000000600060600000202000000000000000000000000000000000000000000
310
00000000000000000000000000000000000000000002000000000000000000000000000000000000000000000000000000000000000000000000000000000000000000000000000000000000000000000000000000000000000000000000000000000000000000000000000000000000000000000000000000000000000000
310
00000000000000000000000000000000000000000000000000060000020200000000000000000000000000000000000000000000000000000000000000000000000000000000000000000200000000000000000000000000000000000000000000000000000000000000000000000000000000000000000000000000000000
310
00000000000000000000000000000000000000000000000000000000000000000000000000000000000000000000000000000000000000000000000000000000000000000000000000000002020202020200000000000000000000000000000000000000000000000000000000000000000000000000000000000000000000
310
02000000000000000000000000000000000000000000000000000000000000000000000000000000000000000000000000000000000000000000000000000000000000000000000000000000000000000000000000000000000000000000000000000000000000000000000000000000000000000000000000000000000000
310
02000000000000000000000000000000000000000000000000000000000000000000000000000000000000000000000000000000000200000000000000000000000000000000000000000000000000000000000000000000000000000000000000000000000000000000000000000000000000000000000000000000000000
310
00000000000000000000000000000000000000000000000000000000000000000000000000000000000000000000000000000000000202020202020202020202020202020202020202020202020202020202020202020202020202020202020202020202020202020202020000000000000000000000000000000000000000
310
00000000000000000000000000000000000000000000000000000000000000000000000000000000000000000000000000000000000000000000000000000000000000000000000000000000000000000000000000000000000000000000000000000000000000000000000000000000000000000000000000000000000000
310
00000000000000000000000000000000000000000000000000000000000000000000000000000000000000000000000000000000000000000000000000000000000000000000000000000000000000000000000000000000000000000000000000000000000000000000000000000000000000000000000000000000000000
310
00000000000000000000000000000000000000000000000000000000000000000000000000000000000000000000000000000000000000000000000000000000000000000000000000000000000000000000000000000000000000000000000000000000000000000000000000000000000000000000000000000000000000
310
00000000000000000000000000000000000000000000000000000000000000000000000000000000000000000000000000000000000000000000000000000000000000000000000000000000000000000000000000000000000000000000000000000000000000000000000000000000000000000000000000000000000000
310
00000000000000000000000000000000000000000000000000000000000000000000000000000000000000000000000000000000000000000000000000000000000000000000000000000000000000000000000000000000000000000000000000000000000000000000000000000000000000000000000000000000000000
310
00000000000000000000000000000000000000000000000000000000000000000000000000000000000000000000000000000000000000000000000000000000000000000000000000000000000000000000000000000000000000000000000000000000000000000000000000000000000000000000000000000000000000
310
00000000000000000000000000000000000000000000000000000000000000000000000000000000000000000000000000000000000000000000000000000000000000000000000000000000000000000000000000000000000000000000000000000000000000000000000000000000000000000000000000000000000000
310
00000000000000000000000000000000000000000000000000000000000000000000000000000000000000000000000000000000000000000000000000000000000000000000000000000000000000000000000000000000000000000000000000000000000000000000000000000000000000000000000000000000000000
310
00000000000000000000000000000000000000000000000000000000000000000000000000000000000000000000000000000000000000000000000000000000000000000000000000000000000000000000000000000000000000000000000000000000000000000000000000000000000000000000000000000000000000
310
00000000000000000000000000000000000000000000000000000000000000000000000000000000000000000000000000000000000000000000000000000000000000000000000000000000000000000000000000000000000000000000000000000000000000000000000000000000000000000000000000000000000000
310
00000000000000000000000000000000000000000000000000000000000000000000000000000000000000000000000000000000000000000000000000000000000000000000000000000000000000000000000000000000000000000000000000000000000000000000000000000000000000000000000000000000000000
310
00000000000000000000000000000000000000000000000000000000000000000000000000000000000000000000000000000000000000000000000000000000000000000000000000000000000000000000000000000000000000000000000000000000000000000000000000000000000000000000000000000000000000
310
00000000000000000000000000000000000000000000000000000000000000000000000000000000000000000000000000000000000000000000000000000000000000000000000000000000000000000000000000000000000000000000000000000000000000000000000000000000000000000000000000000000000000
310
00000000000000000000000000000000000000000000000000000000000000000000000000000000000000000000000000000000000000000000000000000000000000000000000000000000000000000000000000000000000000000000000000000000000000000000000000000000000000000000000000000000000000
310
00000000000000000000000000000000000000000000000000000000000000000000000000000000000000000000000000000000000000000000000000000000000000000000000000000000000000000000000000000000000000000000000000000000000000000000000000000000000000000000000000000000000000
310
00000000000000000000000000000000000000000000000000000000000000000000000000000000000000000000000000000000000000000000000000000000000000000000000000000000000000000000000000000000000000000000000000000000000000000000000000000000000000000000000000000000000000
310
00000000000000000000000000000000000000000000000000000000000000000000000000000000000000000000000000000000000000000000000000000000000000000000000000000000000000000000000000000000000000000000000000000000000000000000000000000000000000000000000000000000000000
310
00000000000000000000000000000000000000000000000000000000000000000000000000000000000000000000000000000000000000000000000000000000000000000000000000000000000000000000000000000000000000000000000000000000000000000000000000000000000000000000000000000000000000
310
00000000000000000000000000000000000000000000000000000000000000000000000000000000000000000000000000000000000000000000000000000000000000000000000000000000000000000000000000000000000000000000000000000000000000000000000000000000000000000000000000000000000000
310
00000000000000000000000000000000000000000000000000000000000000000000000000000000000000000000000000000000000000000000000000000000000000000000000000000000000000000000000000000000000000000000000000000000000000000000000000000000000000000000000000000000000000
310
00000000000000000000000000000000000000000000000000000000000000000000000000000000000000000000000000000000000000000000000000000000000000000000000000000000000000000000000000000000000000000000000000000000000000000000000000000000000000000000000000000000000000
310
00000000000000000000000000000000000000000000000000000000000000000000000000000000000000000000000000000000000000000000000000000000000000000000000000000000000000000000000000000000000000000000000000000000000000000000000000000000000000000000000000000000000000
310
00000000000000000000000000000000000000000000000000000000000000000000000000000000000000000000000000000000000000000000000000000000000000000000000000000000000000000000000000000000000000000000000000000000000000000000000000000000000000000000000000000000000000
310
00000000000000000000000000000000000000000000000000000000000000000000000000000000000000000000000000000000000000000000000000000000000000000000000000000000000000000000000000000000000000000000000000000000000000000000000000000000000000000000000000000000000000
310
00000000000000000000000000000000000000000000000000000000000000000000000000000000000000000000000000000000000000000000000000000000000000000000000000000000000000000000000000000000000000000000000000000000000000000000000000000000000000000000000000000000000000
310
00000000000000000000000000000000000000000000000000000000000000000000000000000000000000000000000000000000000000000000000000000000000000000000000000000000000000000000000000000000000000000000000000000000000000000000000000000000000000000000000000000000000000
310
00000000000000000000000000000000000000000000000000000000000000000000000000000000000000000000000000000000000000000000000000000000000000000000000000000000000000000000000000000000000000000000000000000000000000000000000000000000000000000000000000000000000000
310
00000000000000000000000000000000000000000000000000000000000000000000000000000000000000000000000000000000000000000000000000000000000000000000000000000000000000000000000000000000000000000000000000000000000000000000000000000000000000000000000000000000000000
310
00000000000000000000000000000000000000000000000000000000000000000000000000000000000000000000000000000000000000000000000000000000000000000000000000000000000000000000000000000000000000000000000000000000000000000000000000000000000000000000000000000000000000
310
00000000000000000000000000000000000000000000000000000000000000000000000000000000000000000000000000000000000000000000000000000000000000000000000000000000000000000000000000000000000000000000000000000000000000000000000000000000000000000000000000000000000000
310
00000000000000000000000000000000000000000000000000000000000000000000000000000000000000000000000000000000000000000000000000000000000000000000000000000000000000000000000000000000000000000000000000000000000000000000000000000000000000000000000000000000000000
310
00000000000000000000000000000000000000000000000000000000000000000000000000000000000000000000000000000000000000000000000000000000000000000000000000000000000000000000000000000000000000000000000000000000000000000000000000000000000000000000000000000000000000
310
00000000000000000000000000000000000000000000000000000000000000000000000000000000000000000000000000000000000000000000000000000000000000000000000000000000000000000000000000000000000000000000000000000000000000000000000000000000000000000000000000000000000000
310
00000000000000000000000000000000000000000000000000000000000000000000000000000000000000000000000000000000000000000000000000000000000000000000000000000000000000000000000000000000000000000000000000000000000000000000000000000000000000000000000000000000000000
310
000000000000000000000000000000000000000000000000000000000000000000000000000000000000000000000000000000000000000000000000000000000000000000000000000000000000000000000000000000000000000000000000000000000000000000000000
  0
ENDSEC
  0
EOF
