  0
SECTION
  2
HEADER
  9
$ACADVER
  1
AC1006
  0
ENDSEC
  0
SECTION
  2
TABLES
  0
TABLE
  2
LTYPE
 70
    25
  0
LTYPE
  2
CONTINUOUS
 70
    64
  3
Solid line
 72
    64
 73
     0
 40
0.000000
  0
LTYPE
  2
DASHDOT
 70
    64
  3
__ . __ . __ . __ . __ . __ . __ . __ . __ . __
 72
    65
 73
     4
 40
1.000000
 49
0.500000
 49
-0.250000
 49
0.000000
 49
-0.250000
  0
LTYPE
  2
DASHED
 70
    64
  3
__ __ __ __ __ __ __ __ __ __ __ __ __ __ __ __
 72
    65
 73
     2
 40
0.750000
 49
0.500000
 49
-0.250000
  0
LTYPE
  2
DIVIDE
 70
    64
  3
____ . . ____ . . ____ . . ____ . . ____ . . __
 72
    65
 73
     6
 40
1.250000
 49
0.500000
 49
-0.250000
 49
0.000000
 49
-0.250000
 49
0.000000
 49
-0.250000
  0
LTYPE
  2
DOT
 70
    64
  3
. . . . . . . . . . . . . . . . . . . . . . . . 
 72
    65
 73
     2
 40
0.250000
 49
0.000000
 49
-0.250000
  0
ENDTAB
  0
ENDSEC
  0
SECTION
  2
BLOCKS
  0
BLOCK
  8
0
  2
Object_0
 70
    64
 10
0.000000
 20
0.000000
 30
0.000000
  0
ENDBLK
  0
ENDSEC
  0
SECTION
  2
ENTITIES
  0
CIRCLE
  8
Default
 62
     9
  6
CONTINUOUS
 10
0.000000
 20
0.000000
 30
-0.125000
 40
4.251000
  0
CIRCLE
  8
Default
 62
     9
  6
CONTINUOUS
 10
0.000000
 20
0.000000
 30
-0.625000
 40
3.000000
  0
CIRCLE
  8
Default
 62
     9
  6
CONTINUOUS
 10
3.625000
 20
0.000000
 30
0.000000
 40
0.265625
  0
CIRCLE
  8
Default
 62
     9
  6
CONTINUOUS
 10
0.000000
 20
-3.625000
 30
0.000000
 40
0.265625
  0
CIRCLE
  8
Default
 62
     9
  6
CONTINUOUS
 10
0.000000
 20
3.625000
 30
0.000000
 40
0.265625
  0
CIRCLE
  8
Default
 62
     9
  6
CONTINUOUS
 10
-3.625000
 20
0.000000
 30
0.000000
 40
0.265625
  0
LINE
  8
Default
 62
     7
  6
CONTINUOUS
 10
0.311135
 20
-6.962375
 30
0.000000
 11
0.311198
 21
-6.962348
 31
0.000000
  0
LINE
  8
Default
 62
     6
  6
CONTINUOUS
 10
8.549436
 20
-2.760297
 30
0.000000
 11
8.623364
 21
2.368680
 31
0.000000
  0
CIRCLE
  8
CAM
 62
     6
  6
CONTINUOUS
 10
0.000000
 20
0.000000
 30
-0.625000
 40
2.640000
  0
ARC
  8
Default
 62
     6
  6
CONTINUOUS
 10
8.029490
 20
-2.752803
 30
0.000000
 40
0.520000
 50
307.924341
 51
359.174207
  0
LINE
  8
Default
 62
     6
  6
CONTINUOUS
 10
5.431649
 20
-5.436149
 30
0.000000
 11
8.349092
 21
-3.162991
 31
0.000000
  0
ARC
  8
Default
 62
     6
  6
CONTINUOUS
 10
5.032146
 20
-4.923414
 30
0.000000
 40
0.650000
 50
294.449473
 51
307.924341
  0
LINE
  8
Default
 62
     6
  6
CONTINUOUS
 10
0.443787
 20
-7.723595
 30
0.000000
 11
5.301175
 21
-5.515127
 31
0.000000
  0
LINE
  8
Default
 62
     6
  6
CONTINUOUS
 10
0.443787
 20
-7.723595
 30
0.000000
 11
-2.442364
 21
-8.230783
 31
0.000000
  0
ARC
  8
Default
 62
     6
  6
CONTINUOUS
 10
-2.496451
 20
-7.923000
 30
0.000000
 40
0.312500
 50
233.982979
 51
279.966924
  0
LINE
  8
DIM
 62
     6
  6
CONTINUOUS
 10
-0.000034
 20
0.000012
 30
0.000000
 11
2.842105
 21
-1.213553
 31
0.000000
  0
LINE
  8
CAM
 62
     6
  6
CONTINUOUS
 10
5.424016
 20
5.004721
 30
0.000000
 11
5.424016
 21
4.833221
 31
0.000000
  0
POINT
  8
Default
 62
     7
 10
-0.000033
 20
0.000014
 30
0.000000
  0
ARC
  8
CAM
 62
     6
  6
CONTINUOUS
 10
5.424016
 20
4.833221
 30
0.000000
 40
0.171500
 50
90.000000
 51
270.000000
  0
POINT
  8
Default
 62
     7
 10
5.424016
 20
4.833221
 30
0.000000
  0
POINT
  8
Default
 62
     7
 10
0.367346
 20
-7.009381
 30
0.000000
  0
CIRCLE
  8
Default
 62
     6
  6
CONTINUOUS
 10
1.219316
 20
7.646401
 30
0.000000
 40
0.250000
  0
CIRCLE
  8
Default
 62
     6
  6
CONTINUOUS
 10
-0.710966
 20
6.644086
 30
0.000000
 40
0.156250
  0
POINT
  8
Default
 62
     7
 10
5.011250
 20
-4.940271
 30
0.000000
  0
POINT
  8
Default
 62
     7
 10
8.030991
 20
-2.759826
 30
0.000000
  0
POINT
  8
Default
 62
     7
 10
8.139552
 20
2.392798
 30
0.000000
  0
POINT
  8
Default
 62
     7
 10
1.219316
 20
7.646401
 30
0.000000
  0
CIRCLE
  8
Default
 62
     6
  6
CONTINUOUS
 10
-4.542800
 20
-4.655981
 30
0.000000
 40
0.156250
  0
CIRCLE
  8
Default
 62
     6
  6
CONTINUOUS
 10
-2.496451
 20
-7.923000
 30
0.000000
 40
0.156250
  0
CIRCLE
  8
Default
 62
     6
  6
CONTINUOUS
 10
0.367346
 20
-7.009381
 30
0.000000
 40
0.364000
  0
CIRCLE
  8
Default
 62
     6
  6
CONTINUOUS
 10
5.011250
 20
-4.940271
 30
0.000000
 40
0.250000
  0
POINT
  8
Default
 62
     7
 10
-0.710966
 20
6.644086
 30
0.000000
  0
POINT
  8
Default
 62
     7
 10
-4.542800
 20
-4.655981
 30
0.000000
  0
CIRCLE
  8
Default
 62
     6
  6
CONTINUOUS
 10
8.139552
 20
2.392798
 30
0.000000
 40
0.250000
  0
CIRCLE
  8
Default
 62
     6
  6
CONTINUOUS
 10
8.030991
 20
-2.759826
 30
0.000000
 40
0.250000
  0
CIRCLE
  8
Default
 62
     6
  6
CONTINUOUS
 10
5.424016
 20
4.833221
 30
0.000000
 40
0.364000
  0
LINE
  8
Default
 62
     6
  6
CONTINUOUS
 10
-3.980229
 20
-7.230653
 30
0.000000
 11
-2.680209
 21
-8.175763
 31
0.000000
  0
ARC
  8
Default
 62
     6
  6
CONTINUOUS
 10
-3.098191
 20
-6.017390
 30
0.000000
 40
1.500000
 50
189.955223
 51
233.982979
  0
LINE
  8
Default
 62
     6
  6
CONTINUOUS
 10
-4.697557
 20
-5.581913
 30
0.000000
 11
-4.575605
 21
-6.276707
 31
0.000000
  0
POINT
  8
Default
 62
     7
 10
-2.496451
 20
-7.923000
 30
0.000000
  0
ARC
  8
Default
 62
     6
  6
CONTINUOUS
 10
-6.174971
 20
-5.841230
 30
0.000000
 40
1.500000
 50
9.955223
 51
43.409283
  0
ARC
  8
Default
 62
     6
  6
CONTINUOUS
 10
-0.000033
 20
0.000014
 30
0.000000
 40
7.000000
 50
113.855506
 51
223.409283
  0
LINE
  8
Default
 62
     6
  6
CONTINUOUS
 10
1.017101
 20
8.103685
 30
0.000000
 11
-2.831053
 21
6.401992
 31
0.000000
  0
ARC
  8
Default
 62
     6
  6
CONTINUOUS
 10
1.219316
 20
7.646401
 30
0.000000
 40
0.500000
 50
56.059638
 51
113.855506
  0
LINE
  8
Default
 62
     6
  6
CONTINUOUS
 10
5.819274
 20
5.153338
 30
0.000000
 11
1.498481
 21
8.061211
 31
0.000000
  0
LINE
  8
Default
 62
     6
  6
CONTINUOUS
 10
5.819274
 20
5.153338
 30
0.000000
 11
8.462094
 21
2.741441
 31
0.000000
  0
ARC
  8
Default
 62
     6
  6
CONTINUOUS
 10
8.128415
 20
2.375814
 30
0.000000
 40
0.495000
 50
359.174207
 51
407.615728
  0
LINE
  8
DIM
 62
     7
  6
CONTINUOUS
 10
5.418609
 20
4.839289
 30
0.000000
 11
5.101438
 21
5.195233
 31
0.000000
  0
LINE
  8
DIM
 62
     7
  6
CONTINUOUS
 10
-0.005441
 20
0.006081
 30
0.000000
 11
-0.322612
 21
0.362024
 31
0.000000
  0
LINE
  8
DIM
 62
     7
  6
CONTINUOUS
 10
5.109549
 20
5.186130
 30
0.000000
 11
-0.314501
 21
0.352922
 31
0.000000
  0
LINE
  8
DIM
 62
     7
  6
CONTINUOUS
 10
5.109549
 20
5.186130
 30
0.000000
 11
5.057805
 21
5.123949
 31
0.000000
  0
LINE
  8
DIM
 62
     7
  6
CONTINUOUS
 10
5.109549
 20
5.186130
 30
0.000000
 11
5.041838
 21
5.141867
 31
0.000000
  0
LINE
  8
DIM
 62
     7
  6
CONTINUOUS
 10
-0.314501
 20
0.352922
 30
0.000000
 11
-0.262756
 21
0.415103
 31
0.000000
  0
LINE
  8
DIM
 62
     7
  6
CONTINUOUS
 10
-0.314501
 20
0.352922
 30
0.000000
 11
-0.246789
 21
0.397184
 31
0.000000
  0
TEXT
  8
DIM
 62
     7
 10
2.644221
 20
2.880483
 30
0.000000
 40
0.200000
  1
7.265
 50
-138.296728
 72
     1
 11
2.414797
 21
2.676050
 31
0.000000
  0
LINE
  8
DIM
 62
     7
  6
CONTINUOUS
 10
0.008128
 20
-0.000002
 30
0.000000
 11
2.441189
 21
-0.000002
 31
0.000000
  0
LINE
  8
DIM
 62
     7
  6
CONTINUOUS
 10
1.271391
 20
8.144466
 30
-0.000000
 11
2.441189
 21
8.144466
 31
-0.000000
  0
LINE
  8
DIM
 62
     7
  6
CONTINUOUS
 10
2.428997
 20
-0.000002
 30
0.000000
 11
2.428997
 21
8.883148
 31
-0.000000
  0
LINE
  8
DIM
 62
     7
  6
CONTINUOUS
 10
2.428997
 20
-0.000002
 30
0.000000
 11
2.416997
 21
0.079998
 31
0.000000
  0
LINE
  8
DIM
 62
     7
  6
CONTINUOUS
 10
2.428997
 20
-0.000002
 30
0.000000
 11
2.440997
 21
0.079998
 31
0.000000
  0
LINE
  8
DIM
 62
     7
  6
CONTINUOUS
 10
2.428997
 20
8.144466
 30
-0.000000
 11
2.440997
 21
8.064466
 31
-0.000000
  0
LINE
  8
DIM
 62
     7
  6
CONTINUOUS
 10
2.428997
 20
8.144466
 30
-0.000000
 11
2.416997
 21
8.064466
 31
-0.000000
  0
TEXT
  8
DIM
 62
     7
 10
2.347717
 20
8.252309
 30
0.000000
 40
0.200000
  1
8.144
 50
90.000003
 72
     1
 11
2.347717
 21
8.559600
 31
0.000000
  0
LINE
  8
DIM
 62
     7
  6
CONTINUOUS
 10
0.374821
 20
-7.012572
 30
0.000000
 11
0.979470
 21
-7.270751
 31
0.000000
  0
LINE
  8
DIM
 62
     7
  6
CONTINUOUS
 10
5.431492
 20
4.830030
 30
0.000000
 11
6.036141
 21
4.571850
 31
0.000000
  0
LINE
  8
DIM
 62
     7
  6
CONTINUOUS
 10
0.968258
 20
-7.265964
 30
0.000000
 11
6.024928
 21
4.576638
 31
0.000000
  0
LINE
  8
DIM
 62
     7
  6
CONTINUOUS
 10
0.968258
 20
-7.265964
 30
0.000000
 11
0.988637
 21
-7.187678
 31
0.000000
  0
LINE
  8
DIM
 62
     7
  6
CONTINUOUS
 10
0.968258
 20
-7.265964
 30
0.000000
 11
1.010709
 21
-7.197102
 31
0.000000
  0
LINE
  8
DIM
 62
     7
  6
CONTINUOUS
 10
6.024928
 20
4.576638
 30
0.000000
 11
6.004549
 21
4.498352
 31
0.000000
  0
LINE
  8
DIM
 62
     7
  6
CONTINUOUS
 10
6.024928
 20
4.576638
 30
0.000000
 11
5.982477
 21
4.507777
 31
0.000000
  0
TEXT
  8
DIM
 62
     7
 10
3.544628
 20
-1.439150
 30
0.000000
 40
0.200000
  1
12.877
 50
-113.121989
 72
     1
 11
3.397369
 21
-1.784026
 31
0.000000
  0
LINE
  8
Default
 62
     7
  6
CONTINUOUS
 10
2.838914
 20
-1.221028
 30
0.000000
 11
2.684953
 21
-1.581599
 31
0.000000
  0
LINE
  8
Default
 62
     7
  6
CONTINUOUS
 10
-0.003225
 20
-0.007463
 30
0.000000
 11
-0.157186
 21
-0.368034
 31
0.000000
  0
LINE
  8
Default
 62
     7
  6
CONTINUOUS
 10
2.689741
 20
-1.570387
 30
0.000000
 11
-0.152398
 21
-0.356822
 31
0.000000
  0
LINE
  8
Default
 62
     7
  6
CONTINUOUS
 10
2.689741
 20
-1.570387
 30
0.000000
 11
2.611455
 21
-1.550007
 31
0.000000
  0
LINE
  8
Default
 62
     7
  6
CONTINUOUS
 10
2.689741
 20
-1.570387
 30
0.000000
 11
2.620880
 21
-1.527935
 31
0.000000
  0
LINE
  8
Default
 62
     7
  6
CONTINUOUS
 10
-0.152398
 20
-0.356822
 30
0.000000
 11
-0.074112
 21
-0.377201
 31
0.000000
  0
LINE
  8
Default
 62
     7
  6
CONTINUOUS
 10
-0.152398
 20
-0.356822
 30
0.000000
 11
-0.083537
 21
-0.399273
 31
0.000000
  0
TEXT
  8
Default
 62
     7
 10
1.112513
 20
-0.808547
 30
0.000000
 40
0.200000
  1
3.090
 50
-23.121994
 72
     1
 11
1.395121
 21
-0.929217
 31
0.000000
  0
LINE
  8
DIM
 62
     7
  6
CONTINUOUS
 10
-0.000000
 20
0.008128
 30
-0.124970
 11
-0.000000
 21
0.022123
 31
-0.124918
  0
LINE
  8
DIM
 62
     7
  6
CONTINUOUS
 10
8.623415
 20
2.367687
 30
-0.000030
 11
8.623415
 21
-0.002692
 31
-0.008829
  0
LINE
  8
DIM
 62
     7
  6
CONTINUOUS
 10
-0.000000
 20
0.009931
 30
-0.124963
 11
10.447673
 21
0.009409
 31
0.015794
  0
LINE
  8
DIM
 62
     7
  6
CONTINUOUS
 10
-0.000000
 20
0.009931
 30
-0.124963
 11
0.079992
 21
0.021927
 31
-0.123841
  0
LINE
  8
DIM
 62
     7
  6
CONTINUOUS
 10
-0.000000
 20
0.009931
 30
-0.124963
 11
0.079992
 21
-0.002073
 31
-0.123930
  0
LINE
  8
DIM
 62
     7
  6
CONTINUOUS
 10
8.623415
 20
0.009500
 30
-0.008783
 11
8.543422
 21
-0.002496
 31
-0.009906
  0
LINE
  8
DIM
 62
     7
  6
CONTINUOUS
 10
8.623415
 20
0.009500
 30
-0.008783
 11
8.543422
 21
0.021504
 31
-0.009817
  0
TEXT
  8
DIM
 62
     7
 10
9.816103
 20
0.090256
 30
-0.124988
 40
0.200000
  1
8.624
 50
-0.002865
 72
     1
 11
10.123394
 21
0.090241
 31
-0.124988
210
-0.013471
220
-0.003711
230
0.999902
  0
LINE
  8
DIM
 62
     7
  6
CONTINUOUS
 10
0.000000
 20
0.008128
 30
-0.125000
 11
0.000000
 21
0.484751
 31
-0.125000
  0
LINE
  8
DIM
 62
     7
  6
CONTINUOUS
 10
-7.000033
 20
0.008142
 30
-0.000000
 11
-7.000033
 21
0.484751
 31
0.000000
  0
LINE
  8
DIM
 62
     7
  6
CONTINUOUS
 10
0.000000
 20
0.472559
 30
-0.125000
 11
-9.294733
 21
0.472559
 31
0.040977
  0
LINE
  8
DIM
 62
     7
  6
CONTINUOUS
 10
0.000000
 20
0.472559
 30
-0.125000
 11
-0.079987
 21
0.460559
 31
-0.123572
  0
LINE
  8
DIM
 62
     7
  6
CONTINUOUS
 10
0.000000
 20
0.472559
 30
-0.125000
 11
-0.079987
 21
0.484559
 31
-0.123572
  0
LINE
  8
DIM
 62
     7
  6
CONTINUOUS
 10
-7.000033
 20
0.472559
 30
0.000000
 11
-6.920045
 21
0.484559
 31
-0.001428
  0
LINE
  8
DIM
 62
     7
  6
CONTINUOUS
 10
-7.000033
 20
0.472559
 30
0.000000
 11
-6.920045
 21
0.460559
 31
-0.001428
  0
TEXT
  8
DIM
 62
     7
 10
0.553821
 20
9.277728
 30
-0.124980
 40
0.200000
  1
7.001
 50
-89.999886
 72
     1
 11
0.553822
 21
8.970437
 31
-0.124980
210
0.017854
220
-0.000000
230
0.999841
  0
LINE
  8
DIM
 62
     7
  6
CONTINUOUS
 10
-0.008117
 20
-0.000425
 30
0.000000
 11
-0.940985
 21
-0.049315
 31
0.000000
  0
LINE
  8
DIM
 62
     7
  6
CONTINUOUS
 10
0.359229
 20
-7.009806
 30
0.000000
 11
-0.573639
 21
-7.058696
 31
0.000000
  0
LINE
  8
DIM
 62
     7
  6
CONTINUOUS
 10
-0.928810
 20
-0.048677
 30
0.000000
 11
-0.561464
 21
-7.058058
 31
0.000000
  0
LINE
  8
DIM
 62
     7
  6
CONTINUOUS
 10
-0.928810
 20
-0.048677
 30
0.000000
 11
-0.912639
 21
-0.127939
 31
0.000000
  0
LINE
  8
DIM
 62
     7
  6
CONTINUOUS
 10
-0.928810
 20
-0.048677
 30
0.000000
 11
-0.936607
 21
-0.129195
 31
0.000000
  0
LINE
  8
DIM
 62
     7
  6
CONTINUOUS
 10
-0.561464
 20
-7.058058
 30
0.000000
 11
-0.577635
 21
-6.978795
 31
0.000000
  0
LINE
  8
DIM
 62
     7
  6
CONTINUOUS
 10
-0.561464
 20
-7.058058
 30
0.000000
 11
-0.553667
 21
-6.977539
 31
0.000000
  0
TEXT
  8
DIM
 62
     7
 10
-0.673629
 20
-3.364774
 30
0.000000
 40
0.200000
  1
7.019
 50
-86.999999
 72
     1
 11
-0.657547
 21
-3.671644
 31
0.000000
  0
LINE
  8
DIM
 62
     7
  6
CONTINUOUS
 10
0.008128
 20
-0.000002
 30
0.000000
 11
2.476815
 21
-0.000002
 31
0.000000
  0
LINE
  8
DIM
 62
     7
  6
CONTINUOUS
 10
-2.488323
 20
-8.235500
 30
0.000000
 11
2.476815
 21
-8.235500
 31
0.000000
  0
LINE
  8
DIM
 62
     7
  6
CONTINUOUS
 10
2.464623
 20
-0.000002
 30
0.000000
 11
2.464623
 21
-8.235500
 31
0.000000
  0
LINE
  8
DIM
 62
     7
  6
CONTINUOUS
 10
2.464623
 20
-0.000002
 30
0.000000
 11
2.476623
 21
-0.080002
 31
0.000000
  0
LINE
  8
DIM
 62
     7
  6
CONTINUOUS
 10
2.464623
 20
-0.000002
 30
0.000000
 11
2.452623
 21
-0.080002
 31
0.000000
  0
LINE
  8
DIM
 62
     7
  6
CONTINUOUS
 10
2.464623
 20
-8.235500
 30
0.000000
 11
2.452623
 21
-8.155500
 31
0.000000
  0
LINE
  8
DIM
 62
     7
  6
CONTINUOUS
 10
2.464623
 20
-8.235500
 30
0.000000
 11
2.476623
 21
-8.155500
 31
0.000000
  0
TEXT
  8
DIM
 62
     7
 10
2.383343
 20
-7.993025
 30
0.000000
 40
0.200000
  1
8.235
 50
90.000003
 72
     1
 11
2.383343
 21
-7.685733
 31
0.000000
  0
INSERT
  8
CAM
 62
     7
  2
Object_0
 10
-10.160000
 20
-10.160000
 30
0.000000
  0
ARC
  8
CAM
 62
     6
  6
CONTINUOUS
 10
5.424016
 20
4.833221
 30
0.000000
 40
0.171500
 50
270.000000
 51
450.000000
  0
LINE
  8
CAM
 62
     6
  6
CONTINUOUS
 10
5.424016
 20
4.833221
 30
0.000000
 11
5.424016
 21
5.004721
 31
0.000000
  0
ARC
  8
CAM
 62
     6
  6
CONTINUOUS
 10
5.424016
 20
4.833221
 30
0.000000
 40
0.176500
 50
90.000000
 51
270.000000
  0
ARC
  8
CAM
 62
     6
  6
CONTINUOUS
 10
5.424016
 20
4.833221
 30
0.000000
 40
0.176500
 50
270.000000
 51
450.000000
  0
LINE
  8
CAM
 62
     6
  6
CONTINUOUS
 10
0.367346
 20
-7.004381
 30
0.000000
 11
0.367346
 21
-6.832881
 31
0.000000
  0
LINE
  8
DIM
 62
     6
  6
CONTINUOUS
 10
5.424016
 20
4.833221
 30
0.000000
 11
-0.000034
 21
0.000012
 31
0.000000
  0
LINE
  8
DIM
 62
     6
  6
CONTINUOUS
 10
0.000000
 20
0.000000
 30
0.000000
 11
0.367346
 21
-7.009381
 31
0.000000
  0
LINE
  8
CAM
 62
     6
  6
CONTINUOUS
 10
5.424016
 20
5.009721
 30
0.000000
 11
5.424016
 21
4.838221
 31
0.000000
  0
LINE
  8
CAM
 62
     6
  6
CONTINUOUS
 10
0.367346
 20
-6.837881
 30
0.000000
 11
0.367346
 21
-7.009381
 31
0.000000
  0
LINE
  8
CAM
 62
     6
  6
CONTINUOUS
 10
0.367346
 20
-7.009381
 30
0.000000
 11
0.367346
 21
-6.837881
 31
0.000000
  0
ARC
  8
CAM
 62
     6
  6
CONTINUOUS
 10
0.367346
 20
-7.009381
 30
0.000000
 40
0.176500
 50
90.000000
 51
270.000000
  0
ARC
  8
CAM
 62
     6
  6
CONTINUOUS
 10
0.367346
 20
-7.009381
 30
0.000000
 40
0.176500
 50
270.000000
 51
450.000000
  0
LINE
  8
CAM
 62
     6
  6
CONTINUOUS
 10
5.424016
 20
4.838221
 30
0.000000
 11
5.424016
 21
5.009721
 31
0.000000
  0
ARC
  8
CAM
 62
     6
  6
CONTINUOUS
 10
0.367346
 20
-7.009381
 30
0.000000
 40
0.171500
 50
90.000000
 51
270.000000
  0
ARC
  8
CAM
 62
     6
  6
CONTINUOUS
 10
0.367346
 20
-7.009381
 30
0.000000
 40
0.171500
 50
270.000000
 51
450.000000
  0
LINE
  8
Default
 62
     6
  6
CONTINUOUS
 10
0.367346
 20
-6.832881
 30
0.000000
 11
0.367346
 21
-7.004381
 31
0.000000
  0
LINE
  8
CAM
 62
     6
  6
CONTINUOUS
 10
10.954294
 20
0.334875
 30
0.000000
 11
12.954086
 21
0.306050
 31
0.000000
  0
ARC
  8
CAM
 62
     6
  6
CONTINUOUS
 10
10.983118
 20
2.334667
 30
0.000000
 40
2.000000
 50
179.174207
 51
269.174207
  0
ARC
  8
CAM
 62
     6
  6
CONTINUOUS
 10
8.128415
 20
2.375814
 30
0.000000
 40
0.855000
 50
359.174207
 51
407.615728
  0
LINE
  8
CAM
 62
     6
  6
CONTINUOUS
 10
6.061950
 20
5.419249
 30
0.000000
 11
8.704770
 21
3.007352
 31
0.000000
  0
ARC
  8
CAM
 62
     6
  6
CONTINUOUS
 10
5.819274
 20
5.153338
 30
0.000000
 40
0.360000
 50
47.615728
 51
56.059638
  0
LINE
  8
CAM
 62
     6
  6
CONTINUOUS
 10
1.699480
 20
8.359873
 30
0.000000
 11
6.020273
 21
5.452001
 31
0.000000
  0
ARC
  8
CAM
 62
     6
  6
CONTINUOUS
 10
1.219316
 20
7.646401
 30
0.000000
 40
0.860000
 50
56.059638
 51
113.855506
  0
LINE
  8
CAM
 62
     6
  6
CONTINUOUS
 10
-2.976649
 20
6.731237
 30
0.000000
 11
0.871505
 21
8.432930
 31
0.000000
  0
ARC
  8
CAM
 62
     6
  6
CONTINUOUS
 10
-0.000033
 20
0.000014
 30
0.000000
 40
7.360000
 50
113.855506
 51
223.409283
  0
ARC
  8
CAM
 62
     6
  6
CONTINUOUS
 10
-6.174971
 20
-5.841230
 30
0.000000
 40
1.140000
 50
9.955223
 51
43.409283
  0
LINE
  8
CAM
 62
     6
  6
CONTINUOUS
 10
-4.930185
 20
-6.338944
 30
0.000000
 11
-5.052136
 21
-5.644149
 31
0.000000
  0
ARC
  8
CAM
 62
     6
  6
CONTINUOUS
 10
-3.098191
 20
-6.017390
 30
0.000000
 40
1.860000
 50
189.955223
 51
233.982979
  0
LINE
  8
CAM
 62
     6
  6
CONTINUOUS
 10
-2.891899
 20
-8.466946
 30
0.000000
 11
-4.191918
 21
-7.521836
 31
0.000000
  0
ARC
  8
CAM
 62
     6
  6
CONTINUOUS
 10
-2.496451
 20
-7.923000
 30
0.000000
 40
0.672500
 50
233.982979
 51
279.966924
  0
LINE
  8
CAM
 62
     6
  6
CONTINUOUS
 10
0.506095
 20
-8.078162
 30
0.000000
 11
-2.380055
 21
-8.585350
 31
0.000000
  0
ARC
  8
CAM
 62
     6
  6
CONTINUOUS
 10
0.443787
 20
-7.723595
 30
0.000000
 40
0.360000
 50
279.966924
 51
294.449473
  0
LINE
  8
CAM
 62
     6
  6
CONTINUOUS
 10
5.450175
 20
-5.842844
 30
0.000000
 11
0.592787
 21
-8.051312
 31
0.000000
  0
ARC
  8
CAM
 62
     6
  6
CONTINUOUS
 10
5.032146
 20
-4.923414
 30
0.000000
 40
1.010000
 50
294.449473
 51
307.924341
  0
LINE
  8
CAM
 62
     6
  6
CONTINUOUS
 10
8.570355
 20
-3.446967
 30
0.000000
 11
5.652912
 21
-5.720126
 31
0.000000
  0
ARC
  8
CAM
 62
     6
  6
CONTINUOUS
 10
8.029490
 20
-2.752803
 30
0.000000
 40
0.880000
 50
307.924341
 51
359.174207
  0
LINE
  8
CAM
 62
     6
  6
CONTINUOUS
 10
8.983326
 20
2.363492
 30
0.000000
 11
8.909398
 21
-2.765485
 31
0.000000
  0
ARC
  8
CAM
 62
     6
  6
CONTINUOUS
 10
10.983118
 20
2.334667
 30
0.000000
 40
2.000000
 50
89.174207
 51
179.174207
  0
LINE
  8
CAM
 62
     6
  6
CONTINUOUS
 10
13.011735
 20
4.305635
 30
0.000000
 11
11.011943
 21
4.334460
 31
0.000000
  0
ARC
  8
CAM
 62
     6
  6
CONTINUOUS
 10
8.128415
 20
2.375814
 30
0.000000
 40
0.850000
 50
359.174207
 51
407.615728
  0
LINE
  8
CAM
 62
     6
  6
CONTINUOUS
 10
6.058579
 20
5.415555
 30
0.000000
 11
8.701400
 21
3.003659
 31
0.000000
  0
ARC
  8
CAM
 62
     6
  6
CONTINUOUS
 10
5.819274
 20
5.153338
 30
0.000000
 40
0.355000
 50
47.615728
 51
56.059638
  0
LINE
  8
CAM
 62
     6
  6
CONTINUOUS
 10
1.696688
 20
8.355725
 30
0.000000
 11
6.017481
 21
5.447853
 31
0.000000
  0
ARC
  8
CAM
 62
     6
  6
CONTINUOUS
 10
1.219316
 20
7.646401
 30
0.000000
 40
0.855000
 50
56.059638
 51
113.855506
  0
LINE
  8
CAM
 62
     6
  6
CONTINUOUS
 10
-2.974627
 20
6.726664
 30
0.000000
 11
0.873527
 21
8.428357
 31
0.000000
  0
ARC
  8
CAM
 62
     6
  6
CONTINUOUS
 10
-0.000033
 20
0.000014
 30
0.000000
 40
7.355000
 50
113.855506
 51
223.409283
  0
ARC
  8
CAM
 62
     6
  6
CONTINUOUS
 10
-6.174971
 20
-5.841230
 30
0.000000
 40
1.145000
 50
9.955223
 51
43.409283
  0
LINE
  8
CAM
 62
     6
  6
CONTINUOUS
 10
-4.925260
 20
-6.338079
 30
0.000000
 11
-5.047212
 21
-5.643285
 31
0.000000
  0
ARC
  8
CAM
 62
     6
  6
CONTINUOUS
 10
-3.098191
 20
-6.017390
 30
0.000000
 40
1.855000
 50
189.955223
 51
233.982979
  0
LINE
  8
CAM
 62
     6
  6
CONTINUOUS
 10
-2.888959
 20
-8.462902
 30
0.000000
 11
-4.188978
 21
-7.517792
 31
0.000000
  0
ARC
  8
CAM
 62
     6
  6
CONTINUOUS
 10
-2.496451
 20
-7.923000
 30
0.000000
 40
0.667500
 50
233.982979
 51
279.966924
  0
LINE
  8
CAM
 62
     6
  6
CONTINUOUS
 10
0.505230
 20
-8.073237
 30
0.000000
 11
-2.380921
 21
-8.580426
 31
0.000000
  0
ARC
  8
CAM
 62
     6
  6
CONTINUOUS
 10
0.443787
 20
-7.723595
 30
0.000000
 40
0.355000
 50
279.966924
 51
294.449473
  0
LINE
  8
CAM
 62
     6
  6
CONTINUOUS
 10
5.448106
 20
-5.838293
 30
0.000000
 11
0.590718
 21
-8.046761
 31
0.000000
  0
ARC
  8
CAM
 62
     6
  6
CONTINUOUS
 10
5.032146
 20
-4.923414
 30
0.000000
 40
1.005000
 50
294.449473
 51
307.924341
  0
LINE
  8
CAM
 62
     6
  6
CONTINUOUS
 10
8.567282
 20
-3.443023
 30
0.000000
 11
5.649839
 21
-5.716182
 31
0.000000
  0
ARC
  8
CAM
 62
     6
  6
CONTINUOUS
 10
8.029490
 20
-2.752803
 30
0.000000
 40
0.875000
 50
307.924341
 51
359.174207
  0
LINE
  8
CAM
 62
     6
  6
CONTINUOUS
 10
8.978327
 20
2.363564
 30
0.000000
 11
8.904399
 21
-2.765413
 31
0.000000
  0
LINE
  8
DIM
 62
     6
  6
CONTINUOUS
 10
5.424016
 20
4.833221
 30
0.000000
 11
0.367346
 21
-7.009381
 31
0.000000
  0
CIRCLE
  8
CAM
 62
     6
  6
CONTINUOUS
 10
0.000000
 20
0.000000
 30
-0.625000
 40
2.645000
  0
LINE
  8
CAM
 62
     7
  6
CONTINUOUS
 10
0.969316
 20
7.648941
 30
0.000000
 11
0.969316
 21
8.500211
 31
0.000000
  0
LINE
  8
CAM
 62
     7
  6
CONTINUOUS
 10
1.469316
 20
7.648941
 30
0.000000
 11
1.469316
 21
8.500211
 31
0.000000
  0
LINE
  8
CAM
 62
     7
  6
CONTINUOUS
 10
0.904236
 20
8.496401
 30
0.000000
 11
1.534396
 21
8.496401
 31
0.000000
  0
LINE
  8
CAM
 62
     7
  6
CONTINUOUS
 10
0.969316
 20
8.496401
 30
0.000000
 11
0.994316
 21
8.508901
 31
0.000000
  0
LINE
  8
CAM
 62
     7
  6
CONTINUOUS
 10
0.969316
 20
8.496401
 30
0.000000
 11
0.994316
 21
8.483901
 31
0.000000
  0
LINE
  8
CAM
 62
     7
  6
CONTINUOUS
 10
1.469316
 20
8.496401
 30
0.000000
 11
1.444316
 21
8.483901
 31
0.000000
  0
LINE
  8
CAM
 62
     7
  6
CONTINUOUS
 10
1.469316
 20
8.496401
 30
0.000000
 11
1.444316
 21
8.508901
 31
0.000000
  0
TEXT
  8
CAM
 62
     7
 10
0.909316
 20
8.577681
 30
0.000000
 40
0.200000
  1
0.500
 72
     1
 11
1.219316
 21
8.577681
 31
0.000000
  0
LINE
  8
CAM
 62
     7
  6
CONTINUOUS
 10
-0.867216
 20
6.646626
 30
0.000000
 11
-0.867216
 21
7.404146
 31
0.000000
  0
LINE
  8
CAM
 62
     7
  6
CONTINUOUS
 10
-0.554716
 20
6.646626
 30
0.000000
 11
-0.554716
 21
7.404146
 31
0.000000
  0
LINE
  8
CAM
 62
     7
  6
CONTINUOUS
 10
-1.006046
 20
7.400336
 30
0.000000
 11
-0.415886
 21
7.400336
 31
0.000000
  0
LINE
  8
CAM
 62
     7
  6
CONTINUOUS
 10
-0.867216
 20
7.400336
 30
0.000000
 11
-0.842216
 21
7.412836
 31
0.000000
  0
LINE
  8
CAM
 62
     7
  6
CONTINUOUS
 10
-0.867216
 20
7.400336
 30
0.000000
 11
-0.842216
 21
7.387836
 31
0.000000
  0
LINE
  8
CAM
 62
     7
  6
CONTINUOUS
 10
-0.554716
 20
7.400336
 30
0.000000
 11
-0.579716
 21
7.387836
 31
0.000000
  0
LINE
  8
CAM
 62
     7
  6
CONTINUOUS
 10
-0.554716
 20
7.400336
 30
0.000000
 11
-0.579716
 21
7.412836
 31
0.000000
  0
TEXT
  8
CAM
 62
     7
 10
-1.000966
 20
7.481616
 30
0.000000
 40
0.200000
  1
0.313
 72
     1
 11
-0.710966
 21
7.481616
 31
0.000000
  0
LINE
  8
CAM
 62
     7
  6
CONTINUOUS
 10
-4.699050
 20
-4.653441
 30
0.000000
 11
-4.699050
 21
-3.895921
 31
0.000000
  0
LINE
  8
CAM
 62
     7
  6
CONTINUOUS
 10
-4.386550
 20
-4.653441
 30
0.000000
 11
-4.386550
 21
-3.895921
 31
0.000000
  0
LINE
  8
CAM
 62
     7
  6
CONTINUOUS
 10
-4.837880
 20
-3.899731
 30
0.000000
 11
-4.247720
 21
-3.899731
 31
0.000000
  0
LINE
  8
CAM
 62
     7
  6
CONTINUOUS
 10
-4.699050
 20
-3.899731
 30
0.000000
 11
-4.674050
 21
-3.887231
 31
0.000000
  0
LINE
  8
CAM
 62
     7
  6
CONTINUOUS
 10
-4.699050
 20
-3.899731
 30
0.000000
 11
-4.674050
 21
-3.912231
 31
0.000000
  0
LINE
  8
CAM
 62
     7
  6
CONTINUOUS
 10
-4.386550
 20
-3.899731
 30
0.000000
 11
-4.411550
 21
-3.912231
 31
0.000000
  0
LINE
  8
CAM
 62
     7
  6
CONTINUOUS
 10
-4.386550
 20
-3.899731
 30
0.000000
 11
-4.411550
 21
-3.887231
 31
0.000000
  0
TEXT
  8
CAM
 62
     7
 10
-4.832800
 20
-3.818451
 30
0.000000
 40
0.200000
  1
0.313
 72
     1
 11
-4.542800
 21
-3.818451
 31
0.000000
  0
LINE
  8
CAM
 62
     7
  6
CONTINUOUS
 10
-2.652701
 20
-7.920460
 30
0.000000
 11
-2.652701
 21
-7.162940
 31
0.000000
  0
LINE
  8
CAM
 62
     7
  6
CONTINUOUS
 10
-2.340201
 20
-7.920460
 30
0.000000
 11
-2.340201
 21
-7.162940
 31
0.000000
  0
LINE
  8
CAM
 62
     7
  6
CONTINUOUS
 10
-2.791531
 20
-7.166750
 30
0.000000
 11
-2.201371
 21
-7.166750
 31
0.000000
  0
LINE
  8
CAM
 62
     7
  6
CONTINUOUS
 10
-2.652701
 20
-7.166750
 30
0.000000
 11
-2.627701
 21
-7.154250
 31
0.000000
  0
LINE
  8
CAM
 62
     7
  6
CONTINUOUS
 10
-2.652701
 20
-7.166750
 30
0.000000
 11
-2.627701
 21
-7.179250
 31
0.000000
  0
LINE
  8
CAM
 62
     7
  6
CONTINUOUS
 10
-2.340201
 20
-7.166750
 30
0.000000
 11
-2.365201
 21
-7.179250
 31
0.000000
  0
LINE
  8
CAM
 62
     7
  6
CONTINUOUS
 10
-2.340201
 20
-7.166750
 30
0.000000
 11
-2.365201
 21
-7.154250
 31
0.000000
  0
TEXT
  8
CAM
 62
     7
 10
-2.786451
 20
-7.085470
 30
0.000000
 40
0.200000
  1
0.313
 72
     1
 11
-2.496451
 21
-7.085470
 31
0.000000
  0
LINE
  8
CAM
 62
     7
  6
CONTINUOUS
 10
0.003346
 20
-7.006841
 30
0.000000
 11
0.003346
 21
-6.041571
 31
0.000000
  0
LINE
  8
CAM
 62
     7
  6
CONTINUOUS
 10
0.731346
 20
-7.006841
 30
0.000000
 11
0.731346
 21
-6.041571
 31
0.000000
  0
LINE
  8
CAM
 62
     7
  6
CONTINUOUS
 10
0.003346
 20
-6.045381
 30
0.000000
 11
0.731346
 21
-6.045381
 31
0.000000
  0
LINE
  8
CAM
 62
     7
  6
CONTINUOUS
 10
0.003346
 20
-6.045381
 30
0.000000
 11
0.028346
 21
-6.032881
 31
0.000000
  0
LINE
  8
CAM
 62
     7
  6
CONTINUOUS
 10
0.003346
 20
-6.045381
 30
0.000000
 11
0.028346
 21
-6.057881
 31
0.000000
  0
LINE
  8
CAM
 62
     7
  6
CONTINUOUS
 10
0.731346
 20
-6.045381
 30
0.000000
 11
0.706346
 21
-6.057881
 31
0.000000
  0
LINE
  8
CAM
 62
     7
  6
CONTINUOUS
 10
0.731346
 20
-6.045381
 30
0.000000
 11
0.706346
 21
-6.032881
 31
0.000000
  0
TEXT
  8
CAM
 62
     7
 10
0.057346
 20
-5.964101
 30
0.000000
 40
0.200000
  1
0.728
 72
     1
 11
0.367346
 21
-5.964101
 31
0.000000
  0
LINE
  8
CAM
 62
     7
  6
CONTINUOUS
 10
4.761250
 20
-4.937731
 30
0.000000
 11
4.761250
 21
-4.086461
 31
0.000000
  0
LINE
  8
CAM
 62
     7
  6
CONTINUOUS
 10
5.261250
 20
-4.937731
 30
0.000000
 11
5.261250
 21
-4.086461
 31
0.000000
  0
LINE
  8
CAM
 62
     7
  6
CONTINUOUS
 10
4.696170
 20
-4.090271
 30
0.000000
 11
5.326330
 21
-4.090271
 31
0.000000
  0
LINE
  8
CAM
 62
     7
  6
CONTINUOUS
 10
4.761250
 20
-4.090271
 30
0.000000
 11
4.786250
 21
-4.077771
 31
0.000000
  0
LINE
  8
CAM
 62
     7
  6
CONTINUOUS
 10
4.761250
 20
-4.090271
 30
0.000000
 11
4.786250
 21
-4.102771
 31
0.000000
  0
LINE
  8
CAM
 62
     7
  6
CONTINUOUS
 10
5.261250
 20
-4.090271
 30
0.000000
 11
5.236250
 21
-4.102771
 31
0.000000
  0
LINE
  8
CAM
 62
     7
  6
CONTINUOUS
 10
5.261250
 20
-4.090271
 30
0.000000
 11
5.236250
 21
-4.077771
 31
0.000000
  0
TEXT
  8
CAM
 62
     7
 10
4.701250
 20
-4.008991
 30
0.000000
 40
0.200000
  1
0.500
 72
     1
 11
5.011250
 21
-4.008991
 31
0.000000
  0
LINE
  8
CAM
 62
     7
  6
CONTINUOUS
 10
7.889552
 20
2.395338
 30
0.000000
 11
7.889552
 21
3.246608
 31
0.000000
  0
LINE
  8
CAM
 62
     7
  6
CONTINUOUS
 10
8.389552
 20
2.395338
 30
0.000000
 11
8.389552
 21
3.246608
 31
0.000000
  0
LINE
  8
CAM
 62
     7
  6
CONTINUOUS
 10
7.824472
 20
3.242798
 30
0.000000
 11
8.454632
 21
3.242798
 31
0.000000
  0
LINE
  8
CAM
 62
     7
  6
CONTINUOUS
 10
7.889552
 20
3.242798
 30
0.000000
 11
7.914552
 21
3.255298
 31
0.000000
  0
LINE
  8
CAM
 62
     7
  6
CONTINUOUS
 10
7.889552
 20
3.242798
 30
0.000000
 11
7.914552
 21
3.230298
 31
0.000000
  0
LINE
  8
CAM
 62
     7
  6
CONTINUOUS
 10
8.389552
 20
3.242798
 30
0.000000
 11
8.364552
 21
3.230298
 31
0.000000
  0
LINE
  8
CAM
 62
     7
  6
CONTINUOUS
 10
8.389552
 20
3.242798
 30
0.000000
 11
8.364552
 21
3.255298
 31
0.000000
  0
TEXT
  8
CAM
 62
     7
 10
7.829552
 20
3.324078
 30
0.000000
 40
0.200000
  1
0.500
 72
     1
 11
8.139552
 21
3.324078
 31
0.000000
  0
LINE
  8
CAM
 62
     7
  6
CONTINUOUS
 10
7.780991
 20
-2.757286
 30
0.000000
 11
7.780991
 21
-1.906016
 31
0.000000
  0
LINE
  8
CAM
 62
     7
  6
CONTINUOUS
 10
8.280991
 20
-2.757286
 30
0.000000
 11
8.280991
 21
-1.906016
 31
0.000000
  0
LINE
  8
CAM
 62
     7
  6
CONTINUOUS
 10
7.715911
 20
-1.909826
 30
0.000000
 11
8.346071
 21
-1.909826
 31
0.000000
  0
LINE
  8
CAM
 62
     7
  6
CONTINUOUS
 10
7.780991
 20
-1.909826
 30
0.000000
 11
7.805991
 21
-1.897326
 31
0.000000
  0
LINE
  8
CAM
 62
     7
  6
CONTINUOUS
 10
7.780991
 20
-1.909826
 30
0.000000
 11
7.805991
 21
-1.922326
 31
0.000000
  0
LINE
  8
CAM
 62
     7
  6
CONTINUOUS
 10
8.280991
 20
-1.909826
 30
0.000000
 11
8.255991
 21
-1.922326
 31
0.000000
  0
LINE
  8
CAM
 62
     7
  6
CONTINUOUS
 10
8.280991
 20
-1.909826
 30
0.000000
 11
8.255991
 21
-1.897326
 31
0.000000
  0
TEXT
  8
CAM
 62
     7
 10
7.720991
 20
-1.828546
 30
0.000000
 40
0.200000
  1
0.500
 72
     1
 11
8.030991
 21
-1.828546
 31
0.000000
  0
LINE
  8
CAM
 62
     7
  6
CONTINUOUS
 10
5.060016
 20
4.835761
 30
0.000000
 11
5.060016
 21
5.801031
 31
0.000000
  0
LINE
  8
CAM
 62
     7
  6
CONTINUOUS
 10
5.788016
 20
4.835761
 30
0.000000
 11
5.788016
 21
5.801031
 31
0.000000
  0
LINE
  8
CAM
 62
     7
  6
CONTINUOUS
 10
5.060016
 20
5.797221
 30
0.000000
 11
5.788016
 21
5.797221
 31
0.000000
  0
LINE
  8
CAM
 62
     7
  6
CONTINUOUS
 10
5.060016
 20
5.797221
 30
0.000000
 11
5.085016
 21
5.809721
 31
0.000000
  0
LINE
  8
CAM
 62
     7
  6
CONTINUOUS
 10
5.060016
 20
5.797221
 30
0.000000
 11
5.085016
 21
5.784721
 31
0.000000
  0
LINE
  8
CAM
 62
     7
  6
CONTINUOUS
 10
5.788016
 20
5.797221
 30
0.000000
 11
5.763016
 21
5.784721
 31
0.000000
  0
LINE
  8
CAM
 62
     7
  6
CONTINUOUS
 10
5.788016
 20
5.797221
 30
0.000000
 11
5.763016
 21
5.809721
 31
0.000000
  0
TEXT
  8
CAM
 62
     7
 10
5.114016
 20
5.878501
 30
0.000000
 40
0.200000
  1
0.728
 72
     1
 11
5.424016
 21
5.878501
 31
0.000000
  0
ENDSEC
  0
EOF
