  0
SECTION
  2
HEADER
  9
$ACADVER
  1
AC1006
  0
ENDSEC
  0
SECTION
  2
TABLES
  0
TABLE
  2
LTYPE
 70
    25
  0
LTYPE
  2
CONTINUOUS
 70
    64
  3
Solid line
 72
    64
 73
     0
 40
0.000000
  0
LTYPE
  2
DASHDOT
 70
    64
  3
__ . __ . __ . __ . __ . __ . __ . __ . __ . __
 72
    65
 73
     4
 40
1.000000
 49
0.500000
 49
-0.250000
 49
0.000000
 49
-0.250000
  0
LTYPE
  2
DASHED
 70
    64
  3
__ __ __ __ __ __ __ __ __ __ __ __ __ __ __ __
 72
    65
 73
     2
 40
0.750000
 49
0.500000
 49
-0.250000
  0
LTYPE
  2
DIVIDE
 70
    64
  3
____ . . ____ . . ____ . . ____ . . ____ . . __
 72
    65
 73
     6
 40
1.250000
 49
0.500000
 49
-0.250000
 49
0.000000
 49
-0.250000
 49
0.000000
 49
-0.250000
  0
LTYPE
  2
DOT
 70
    64
  3
. . . . . . . . . . . . . . . . . . . . . . . . 
 72
    65
 73
     2
 40
0.250000
 49
0.000000
 49
-0.250000
  0
ENDTAB
  0
ENDSEC
  0
SECTION
  2
BLOCKS
  0
BLOCK
  8
0
  2
Object_0
 70
    64
 10
0.000000
 20
0.000000
 30
0.000000
  0
ENDBLK
  0
ENDSEC
  0
SECTION
  2
ENTITIES
  0
CIRCLE
  8
PATTERN
 62
     6
  6
CONTINUOUS
 10
7.952351
 20
0.672906
 30
0.000000
 40
0.250000
  0
CIRCLE
  8
ARCTOOL
 62
     6
  6
CONTINUOUS
 10
4.963980
 20
6.044089
 30
0.000000
 40
0.250000
  0
CIRCLE
  8
PATTERN
 62
     6
  6
CONTINUOUS
 10
-1.974581
 20
6.439619
 30
0.000000
 40
0.315000
  0
ARC
  8
PATTERN
 62
     6
  6
CONTINUOUS
 10
7.952400
 20
0.672906
 30
0.000000
 40
0.577874
 50
330.000000
 51
390.221045
  0
LINE
  8
Default
 62
     6
  6
CONTINUOUS
 10
6.199426
 20
-4.529421
 30
0.000000
 11
8.452854
 21
0.383970
 31
0.000000
  0
ARC
  8
PATTERN
 62
     6
  6
CONTINUOUS
 10
4.518320
 20
-3.618300
 30
0.000000
 40
1.912134
 50
296.048334
 51
331.543324
  0
LINE
  8
PATTERN
 62
     6
  6
CONTINUOUS
 10
5.357994
 20
-5.336207
 30
0.000000
 11
1.941859
 21
-6.919382
 31
0.000000
  0
LINE
  8
PATTERN
 62
     6
  6
CONTINUOUS
 10
1.720741
 20
-6.965820
 30
0.000000
 11
1.941859
 21
-6.919382
 31
0.000000
  0
LINE
  8
PATTERN
 62
     6
  6
CONTINUOUS
 10
0.077682
 20
-7.042255
 30
0.000000
 11
1.720741
 21
-6.965820
 31
0.000000
  0
ARC
  8
Default
 62
     6
  6
CONTINUOUS
 10
0.073035
 20
-6.942363
 30
0.000000
 40
0.100000
 50
224.919686
 51
272.663495
  0
LINE
  8
PATTERN
 62
     6
  6
CONTINUOUS
 10
-0.430103
 20
-6.579433
 30
0.000000
 11
0.002225
 21
-7.012975
 31
0.000000
  0
ARC
  8
Default
 62
     6
  6
CONTINUOUS
 10
-0.394698
 20
-6.544127
 30
0.000000
 40
0.050000
 50
174.228295
 51
224.919686
  0
ARC
  8
PATTERN
 62
     6
  6
CONTINUOUS
 10
-1.134235
 20
-6.469377
 30
0.000000
 40
0.693305
 50
354.228295
 51
518.876552
  0
LINE
  8
PATTERN
 62
     6
  6
CONTINUOUS
 10
-1.822001
 20
-6.390594
 30
0.000000
 11
-1.780954
 21
-6.219524
 31
0.000000
  0
ARC
  8
Default
 62
     6
  6
CONTINUOUS
 10
-1.870621
 20
-6.378928
 30
0.000000
 40
0.050000
 50
256.576278
 51
346.507436
  0
LINE
  8
PATTERN
 62
     6
  6
CONTINUOUS
 10
-2.599956
 20
-6.256261
 30
0.000000
 11
-1.882228
 21
-6.427562
 31
0.000000
  0
LINE
  8
PATTERN
 62
     6
  6
CONTINUOUS
 10
-3.627248
 20
-5.677077
 30
0.000000
 11
-2.599956
 21
-6.256261
 31
0.000000
  0
ARC
  8
Default
 62
     6
  6
CONTINUOUS
 10
-3.381689
 20
-5.241531
 30
0.000000
 40
0.500000
 50
209.046794
 51
240.585860
  0
LINE
  8
PATTERN
 62
     6
  6
CONTINUOUS
 10
-4.786001
 20
-3.742773
 30
0.000000
 11
-3.818800
 21
-5.484293
 31
0.000000
  0
ARC
  8
Default
 62
     6
  6
CONTINUOUS
 10
-4.698578
 20
-3.694221
 30
0.000000
 40
0.100000
 50
120.000000
 51
209.046794
  0
LINE
  8
CUTAWAY
 62
     6
  6
CONTINUOUS
 10
-3.343472
 20
-2.796380
 30
0.000000
 11
-4.748578
 21
-3.607618
 31
0.000000
  0
CIRCLE
  8
PATTERN
 62
     6
  6
CONTINUOUS
 10
-6.227331
 20
2.473392
 30
0.000000
 40
0.250000
  0
CIRCLE
  8
PATTERN
 62
     6
  6
CONTINUOUS
 10
4.963980
 20
6.044089
 30
0.000000
 40
0.250000
  0
ARC
  8
CUTAWAY
 62
     6
  6
CONTINUOUS
 10
-3.718472
 20
-2.146861
 30
0.000000
 40
0.750000
 50
300.000000
 51
480.000000
  0
CIRCLE
  8
ARCTOOL
 62
     6
  6
CONTINUOUS
 10
-3.171573
 20
-5.395428
 30
0.000000
 40
0.250000
  0
LINE
  8
CUTAWAY
 62
     6
  6
CONTINUOUS
 10
-5.460776
 20
-2.286755
 30
0.000000
 11
-4.093472
 21
-1.497342
 31
0.000000
  0
ARC
  8
Default
 62
     6
  6
CONTINUOUS
 10
-5.510776
 20
-2.200152
 30
0.000000
 40
0.100000
 50
191.254468
 51
300.000000
  0
CIRCLE
  8
PATTERN
 62
     6
  6
CONTINUOUS
 10
1.725214
 20
-6.426013
 30
0.000000
 40
0.315000
  0
CIRCLE
  8
DIMENSIONS
 62
     6
  6
CONTINUOUS
 10
6.062918
 20
-1.863148
 30
0.000000
 40
0.250000
  0
LINE
  8
PATTERN
 62
     6
  6
CONTINUOUS
 10
-5.894484
 20
-0.784291
 30
0.000000
 11
-5.608853
 21
-2.219669
 31
0.000000
  0
CIRCLE
  8
PATTERN
 62
     6
  6
CONTINUOUS
 10
-2.049006
 20
-5.988302
 30
0.000000
 40
0.219000
  0
POINT
  8
Default
 62
     7
 10
-0.122216
 20
-6.352768
 30
0.000000
  0
LINE
  8
PATTERN
 62
     6
  6
CONTINUOUS
 10
-5.894484
 20
-0.784291
 30
0.000000
 11
-5.956839
 21
0.132345
 31
0.000000
  0
ARC
  8
PATTERN
 62
     6
  6
CONTINUOUS
 10
-8.901631
 20
0.261641
 30
0.000000
 40
2.947629
 50
357.485947
 51
401.740369
  0
ARC
  8
PATTERN
 62
     6
  6
CONTINUOUS
 10
-6.227331
 20
2.473392
 30
0.000000
 40
0.536354
 50
120.000000
 51
207.703491
  0
ARC
  8
PATTERN
 62
     6
  6
CONTINUOUS
 10
-6.121790
 20
2.183418
 30
0.000000
 40
0.841957
 50
93.820884
 51
116.351034
  0
ARC
  8
PATTERN
 62
     6
  6
CONTINUOUS
 10
-6.125164
 20
5.618393
 30
0.000000
 40
2.595425
 50
268.835831
 51
319.563355
  0
LINE
  8
PATTERN
 62
     6
  6
CONTINUOUS
 10
-2.614352
 20
5.823917
 30
0.000000
 11
-4.149724
 21
3.934983
 31
0.000000
  0
ARC
  8
Default
 62
     6
  6
CONTINUOUS
 10
-3.002347
 20
6.139289
 30
0.000000
 40
0.500000
 50
320.894934
 51
376.289235
  0
ARC
  8
PATTERN
 62
     6
  6
CONTINUOUS
 10
-1.974581
 20
6.439619
 30
0.000000
 40
0.570748
 50
93.186439
 51
196.289235
  0
LINE
  8
PATTERN
 62
     6
  6
CONTINUOUS
 10
-2.006306
 20
7.009485
 30
0.000000
 11
4.900581
 21
6.626702
 31
0.000000
  0
ARC
  8
PATTERN
 62
     6
  6
CONTINUOUS
 10
4.963980
 20
6.044089
 30
0.000000
 40
0.586053
 50
29.418573
 51
96.210304
  0
CIRCLE
  8
Default
 62
     9
  6
CONTINUOUS
 10
0.000000
 20
0.000000
 30
0.000000
 40
4.251000
  0
CIRCLE
  8
Default
 62
     9
  6
CONTINUOUS
 10
0.000000
 20
3.625000
 30
0.000000
 40
0.265625
  0
CIRCLE
  8
Default
 62
     9
  6
CONTINUOUS
 10
3.625000
 20
0.000000
 30
0.000000
 40
0.265625
  0
CIRCLE
  8
Default
 62
     9
  6
CONTINUOUS
 10
-0.000000
 20
-3.625000
 30
0.000000
 40
0.265625
  0
CIRCLE
  8
Default
 62
     9
  6
CONTINUOUS
 10
-3.625000
 20
0.000000
 30
0.000000
 40
0.265625
  0
CIRCLE
  8
Default
 62
     9
  6
CONTINUOUS
 10
0.000000
 20
0.000000
 30
0.000000
 40
3.000000
  0
POINT
  8
Default
 62
     9
 10
0.000000
 20
3.625000
 30
0.000000
  0
POINT
  8
Default
 62
     9
 10
3.625000
 20
0.000000
 30
0.000000
  0
POINT
  8
Default
 62
     9
 10
-0.000000
 20
-3.625000
 30
0.000000
  0
POINT
  8
Default
 62
     9
 10
0.000000
 20
0.000000
 30
0.000000
  0
POINT
  8
Default
 62
     9
 10
-3.625000
 20
0.000000
 30
0.000000
  0
POINT
  8
Default
 62
     7
 10
6.062918
 20
-1.863148
 30
0.000000
  0
POINT
  8
Default
 62
     7
 10
7.952351
 20
0.672906
 30
0.000000
  0
POINT
  8
Default
 62
     7
 10
4.963980
 20
6.044089
 30
0.000000
  0
POINT
  8
Default
 62
     7
 10
-1.974581
 20
6.439619
 30
0.000000
  0
POINT
  8
Default
 62
     7
 10
-6.227331
 20
2.473392
 30
0.000000
  0
POINT
  8
Default
 62
     7
 10
-2.049006
 20
-5.988302
 30
0.000000
  0
CIRCLE
  8
PATTERN
 62
     6
  6
CONTINUOUS
 10
-0.122216
 20
-6.352768
 30
0.000000
 40
0.219000
  0
POINT
  8
Default
 62
     7
 10
1.725214
 20
-6.426013
 30
0.000000
  0
POINT
  8
Default
 62
     7
 10
-3.171573
 20
-5.395428
 30
0.000000
  0
LINE
  8
CAM
 62
     7
  6
CONTINUOUS
 10
0.005080
 20
0.000000
 30
0.000000
 11
8.538864
 21
0.000000
 31
0.000000
  0
LINE
  8
CAM
 62
     7
  6
CONTINUOUS
 10
-2.001226
 20
7.009485
 30
0.000000
 11
8.538864
 21
7.009485
 31
0.000000
  0
LINE
  8
CAM
 62
     7
  6
CONTINUOUS
 10
8.531244
 20
0.000000
 30
0.000000
 11
8.531244
 21
7.009485
 31
0.000000
  0
LINE
  8
CAM
 62
     7
  6
CONTINUOUS
 10
8.531244
 20
0.000000
 30
0.000000
 11
8.506244
 21
0.050000
 31
0.000000
  0
LINE
  8
CAM
 62
     7
  6
CONTINUOUS
 10
8.531244
 20
0.000000
 30
0.000000
 11
8.556244
 21
0.050000
 31
0.000000
  0
LINE
  8
CAM
 62
     7
  6
CONTINUOUS
 10
8.531244
 20
7.009485
 30
0.000000
 11
8.556244
 21
6.959485
 31
0.000000
  0
LINE
  8
CAM
 62
     7
  6
CONTINUOUS
 10
8.531244
 20
7.009485
 30
0.000000
 11
8.506244
 21
6.959485
 31
0.000000
  0
TEXT
  8
CAM
 62
     7
 10
8.454840
 20
6.106714
 30
0.000000
 40
0.188000
  1
7.009
 50
90.000003
 72
     1
 11
8.454840
 21
6.408797
 31
0.000000
  0
LINE
  8
CAM
 62
     7
  6
CONTINUOUS
 10
0.000000
 20
-0.005080
 30
0.000000
 11
0.000000
 21
-7.312387
 31
0.000000
  0
LINE
  8
CAM
 62
     7
  6
CONTINUOUS
 10
8.530274
 20
0.667827
 30
0.000000
 11
8.530274
 21
-7.312387
 31
0.000000
  0
LINE
  8
CAM
 62
     7
  6
CONTINUOUS
 10
0.000000
 20
-7.304767
 30
0.000000
 11
8.530274
 21
-7.304767
 31
0.000000
  0
LINE
  8
CAM
 62
     7
  6
CONTINUOUS
 10
0.000000
 20
-7.304767
 30
0.000000
 11
0.050000
 21
-7.279767
 31
0.000000
  0
LINE
  8
CAM
 62
     7
  6
CONTINUOUS
 10
0.000000
 20
-7.304767
 30
0.000000
 11
0.050000
 21
-7.329767
 31
0.000000
  0
LINE
  8
CAM
 62
     7
  6
CONTINUOUS
 10
8.530274
 20
-7.304767
 30
0.000000
 11
8.480274
 21
-7.329767
 31
0.000000
  0
LINE
  8
CAM
 62
     7
  6
CONTINUOUS
 10
8.530274
 20
-7.304767
 30
0.000000
 11
8.480274
 21
-7.279767
 31
0.000000
  0
TEXT
  8
CAM
 62
     7
 10
7.717698
 20
-7.228364
 30
0.000000
 40
0.188000
  1
8.530
 72
     1
 11
8.019782
 21
-7.228364
 31
0.000000
  0
LINE
  8
CAM
 62
     7
  6
CONTINUOUS
 10
0.005080
 20
0.000000
 30
0.000000
 11
8.538864
 21
0.000000
 31
0.000000
  0
LINE
  8
CAM
 62
     7
  6
CONTINUOUS
 10
0.082762
 20
-7.042256
 30
0.000000
 11
4.304463
 21
-7.042256
 31
0.000000
  0
LINE
  8
CAM
 62
     7
  6
CONTINUOUS
 10
4.304463
 20
-7.042256
 30
0.000000
 11
4.304463
 21
-6.825272
 31
0.000000
  0
LINE
  8
CAM
 62
     7
  6
CONTINUOUS
 10
4.304463
 20
-6.825272
 30
0.000000
 11
8.538864
 21
-6.825272
 31
0.000000
  0
LINE
  8
CAM
 62
     7
  6
CONTINUOUS
 10
8.531244
 20
0.000000
 30
0.000000
 11
8.531244
 21
-6.825272
 31
0.000000
  0
LINE
  8
CAM
 62
     7
  6
CONTINUOUS
 10
8.531244
 20
0.000000
 30
0.000000
 11
8.556244
 21
-0.050000
 31
0.000000
  0
LINE
  8
CAM
 62
     7
  6
CONTINUOUS
 10
8.531244
 20
0.000000
 30
0.000000
 11
8.506244
 21
-0.050000
 31
0.000000
  0
LINE
  8
CAM
 62
     7
  6
CONTINUOUS
 10
8.531244
 20
-6.825272
 30
0.000000
 11
8.506244
 21
-6.775272
 31
0.000000
  0
LINE
  8
CAM
 62
     7
  6
CONTINUOUS
 10
8.531244
 20
-6.825272
 30
0.000000
 11
8.556244
 21
-6.775272
 31
0.000000
  0
TEXT
  8
CAM
 62
     7
 10
8.243546
 20
-6.519994
 30
0.000000
 40
0.188000
  1
7.042
 50
90.000003
 72
     1
 11
8.243546
 21
-6.217911
 31
0.000000
  0
LINE
  8
CAM
 62
     7
  6
CONTINUOUS
 10
0.000000
 20
-0.005080
 30
0.000000
 11
0.000000
 21
-7.312387
 31
0.000000
  0
LINE
  8
CAM
 62
     7
  6
CONTINUOUS
 10
-6.763686
 20
2.468312
 30
0.000000
 11
-6.763686
 21
-7.312387
 31
0.000000
  0
LINE
  8
CAM
 62
     7
  6
CONTINUOUS
 10
0.000000
 20
-7.304767
 30
0.000000
 11
-6.763686
 21
-7.304767
 31
0.000000
  0
LINE
  8
CAM
 62
     7
  6
CONTINUOUS
 10
0.000000
 20
-7.304767
 30
0.000000
 11
-0.050000
 21
-7.329767
 31
0.000000
  0
LINE
  8
CAM
 62
     7
  6
CONTINUOUS
 10
0.000000
 20
-7.304767
 30
0.000000
 11
-0.050000
 21
-7.279767
 31
0.000000
  0
LINE
  8
CAM
 62
     7
  6
CONTINUOUS
 10
-6.763686
 20
-7.304767
 30
0.000000
 11
-6.713686
 21
-7.279767
 31
0.000000
  0
LINE
  8
CAM
 62
     7
  6
CONTINUOUS
 10
-6.763686
 20
-7.304767
 30
0.000000
 11
-6.713686
 21
-7.329767
 31
0.000000
  0
TEXT
  8
CAM
 62
     7
 10
-6.283563
 20
-7.228364
 30
0.000000
 40
0.188000
  1
6.764
 72
     1
 11
-5.981480
 21
-7.228364
 31
0.000000
  0
INSERT
  8
Default
 62
     7
  2
Object_0
 10
-10.160000
 20
-10.160000
 30
0.000000
  0
LINE
  8
Default
 62
     9
  6
CONTINUOUS
 10
1.725214
 20
-6.426013
 30
0.000000
 11
1.663964
 21
-6.319925
 31
0.000000
  0
ARC
  8
Default
 62
     9
  6
CONTINUOUS
 10
1.725214
 20
-6.426013
 30
0.000000
 40
0.122500
 50
120.000000
 51
300.000000
  0
ARC
  8
Default
 62
     9
  6
CONTINUOUS
 10
1.725214
 20
-6.426013
 30
0.000000
 40
0.122500
 50
300.000000
 51
480.000000
  0
LINE
  8
Default
 62
     9
  6
CONTINUOUS
 10
1.663964
 20
-6.319925
 30
0.000000
 11
1.725214
 21
-6.426013
 31
0.000000
  0
LINE
  8
Default
 62
     9
  6
CONTINUOUS
 10
1.725214
 20
-6.426013
 30
0.000000
 11
1.661464
 21
-6.315594
 31
0.000000
  0
ARC
  8
Default
 62
     9
  6
CONTINUOUS
 10
1.725214
 20
-6.426013
 30
0.000000
 40
0.127500
 50
120.000000
 51
300.000000
  0
ARC
  8
Default
 62
     9
  6
CONTINUOUS
 10
1.725214
 20
-6.426013
 30
0.000000
 40
0.127500
 50
300.000000
 51
480.000000
  0
LINE
  8
Default
 62
     9
  6
CONTINUOUS
 10
1.661464
 20
-6.315594
 30
0.000000
 11
1.725214
 21
-6.426013
 31
0.000000
  0
LINE
  8
Default
 62
     9
  6
CONTINUOUS
 10
-1.974581
 20
6.439619
 30
0.000000
 11
-2.035831
 21
6.545707
 31
0.000000
  0
ARC
  8
Default
 62
     9
  6
CONTINUOUS
 10
-1.974581
 20
6.439619
 30
0.000000
 40
0.122500
 50
120.000000
 51
300.000000
  0
ARC
  8
Default
 62
     9
  6
CONTINUOUS
 10
-1.974581
 20
6.439619
 30
0.000000
 40
0.122500
 50
300.000000
 51
480.000000
  0
LINE
  8
Default
 62
     9
  6
CONTINUOUS
 10
-2.035831
 20
6.545707
 30
0.000000
 11
-1.974581
 21
6.439619
 31
0.000000
  0
LINE
  8
Default
 62
     9
  6
CONTINUOUS
 10
-1.974581
 20
6.439619
 30
0.000000
 11
-2.038331
 21
6.550037
 31
0.000000
  0
ARC
  8
Default
 62
     9
  6
CONTINUOUS
 10
-1.974581
 20
6.439619
 30
0.000000
 40
0.127500
 50
120.000000
 51
300.000000
  0
ARC
  8
Default
 62
     9
  6
CONTINUOUS
 10
-1.974581
 20
6.439619
 30
0.000000
 40
0.127500
 50
300.000000
 51
480.000000
  0
LINE
  8
Default
 62
     9
  6
CONTINUOUS
 10
-2.038331
 20
6.550037
 30
0.000000
 11
-1.974581
 21
6.439619
 31
0.000000
  0
LINE
  8
Default
 62
     6
  6
CONTINUOUS
 10
8.451735
 20
0.963772
 30
0.000000
 11
5.474463
 21
6.331949
 31
0.000000
  0
LINE
  8
Default
 62
     9
  6
CONTINUOUS
 10
10.497664
 20
2.140126
 30
0.000000
 11
8.764939
 21
1.141295
 31
0.000000
  0
ARC
  8
Default
 62
     9
  6
CONTINUOUS
 10
7.952400
 20
0.672906
 30
0.000000
 40
0.937874
 50
331.153750
 51
389.961341
  0
LINE
  8
Default
 62
     9
  6
CONTINUOUS
 10
8.773900
 20
0.220419
 30
0.000000
 11
6.526652
 21
-4.679496
 31
0.000000
  0
ARC
  8
Default
 62
     9
  6
CONTINUOUS
 10
6.199426
 20
-4.529421
 30
0.000000
 40
0.360000
 50
331.543324
 51
335.362392
  0
ARC
  8
Default
 62
     9
  6
CONTINUOUS
 10
4.518320
 20
-3.618300
 30
0.000000
 40
2.272134
 50
296.048334
 51
331.543324
  0
ARC
  8
Default
 62
     9
  6
CONTINUOUS
 10
5.357994
 20
-5.336207
 30
0.000000
 40
0.360000
 50
294.864918
 51
296.048334
  0
LINE
  8
Default
 62
     9
  6
CONTINUOUS
 10
5.509367
 20
-5.662836
 30
0.000000
 11
2.093232
 21
-7.246011
 31
0.000000
  0
ARC
  8
Default
 62
     9
  6
CONTINUOUS
 10
1.941859
 20
-6.919382
 30
0.000000
 40
0.360000
 50
281.860453
 51
294.864918
  0
LINE
  8
Default
 62
     9
  6
CONTINUOUS
 10
2.015850
 20
-7.271697
 30
0.000000
 11
1.794732
 21
-7.318134
 31
0.000000
  0
ARC
  8
Default
 62
     9
  6
CONTINUOUS
 10
1.720741
 20
-6.965820
 30
0.000000
 40
0.360000
 50
272.663495
 51
281.860453
  0
LINE
  8
Default
 62
     9
  6
CONTINUOUS
 10
1.737471
 20
-7.325431
 30
0.000000
 11
0.094411
 21
-7.401866
 31
0.000000
  0
ARC
  8
Default
 62
     9
  6
CONTINUOUS
 10
0.073035
 20
-6.942363
 30
0.000000
 40
0.460000
 50
224.919686
 51
272.663495
  0
LINE
  8
Default
 62
     9
  6
CONTINUOUS
 10
-0.252690
 20
-7.267176
 30
0.000000
 11
-0.685018
 21
-6.833634
 31
0.000000
  0
ARC
  8
Default
 62
     9
  6
CONTINUOUS
 10
-0.394698
 20
-6.544127
 30
0.000000
 40
0.410000
 50
174.228295
 51
224.919686
  0
ARC
  8
Default
 62
     9
  6
CONTINUOUS
 10
-1.134235
 20
-6.469377
 30
0.000000
 40
0.333305
 50
354.228295
 51
515.492955
  0
LINE
  8
Default
 62
     9
  6
CONTINUOUS
 10
-1.437513
 20
-6.331120
 30
0.000000
 11
-1.471937
 21
-6.474588
 31
0.000000
  0
ARC
  8
Default
 62
     9
  6
CONTINUOUS
 10
-1.870621
 20
-6.378928
 30
0.000000
 40
0.410000
 50
256.576278
 51
346.507436
  0
LINE
  8
Default
 62
     9
  6
CONTINUOUS
 10
-1.965802
 20
-6.777726
 30
0.000000
 11
-2.683530
 21
-6.606426
 31
0.000000
  0
ARC
  8
Default
 62
     9
  6
CONTINUOUS
 10
-2.599956
 20
-6.256261
 30
0.000000
 40
0.360000
 50
240.585860
 51
256.576278
  0
LINE
  8
Default
 62
     9
  6
CONTINUOUS
 10
-2.776758
 20
-6.569854
 30
0.000000
 11
-3.804051
 21
-5.990671
 31
0.000000
  0
ARC
  8
Default
 62
     9
  6
CONTINUOUS
 10
-3.381689
 20
-5.241531
 30
0.000000
 40
0.860000
 50
209.046794
 51
240.585860
  0
LINE
  8
Default
 62
     9
  6
CONTINUOUS
 10
-4.133521
 20
-5.659081
 30
0.000000
 11
-5.100721
 21
-3.917562
 31
0.000000
  0
ARC
  8
Default
 62
     9
  6
CONTINUOUS
 10
-4.698578
 20
-3.694221
 30
0.000000
 40
0.460000
 50
120.000000
 51
209.046794
  0
LINE
  8
Default
 62
     9
  6
CONTINUOUS
 10
-4.928578
 20
-3.295849
 30
0.000000
 11
-3.523472
 21
-2.484611
 31
0.000000
  0
ARC
  8
Default
 62
     9
  6
CONTINUOUS
 10
-3.718472
 20
-2.146861
 30
0.000000
 40
0.390000
 50
300.000000
 51
480.000000
  0
LINE
  8
Default
 62
     9
  6
CONTINUOUS
 10
-3.913472
 20
-1.809111
 30
0.000000
 11
-5.280776
 21
-2.598524
 31
0.000000
  0
ARC
  8
Default
 62
     9
  6
CONTINUOUS
 10
-5.510776
 20
-2.200152
 30
0.000000
 40
0.460000
 50
191.254468
 51
300.000000
  0
LINE
  8
Default
 62
     9
  6
CONTINUOUS
 10
-5.961930
 20
-2.289929
 30
0.000000
 11
-6.247561
 21
-0.854551
 31
0.000000
  0
ARC
  8
Default
 62
     9
  6
CONTINUOUS
 10
-5.894484
 20
-0.784291
 30
0.000000
 40
0.360000
 50
183.891653
 51
191.254468
  0
LINE
  8
Default
 62
     9
  6
CONTINUOUS
 10
-6.253654
 20
-0.808724
 30
0.000000
 11
-6.316009
 21
0.107911
 31
0.000000
  0
ARC
  8
Default
 62
     9
  6
CONTINUOUS
 10
-5.956839
 20
0.132345
 30
0.000000
 40
0.360000
 50
177.485947
 51
183.891653
  0
ARC
  8
Default
 62
     9
  6
CONTINUOUS
 10
-8.901631
 20
0.261641
 30
0.000000
 40
2.587629
 50
357.485947
 51
401.740369
  0
ARC
  8
Default
 62
     9
  6
CONTINUOUS
 10
-6.702201
 20
2.224043
 30
0.000000
 40
0.360000
 50
207.703491
 51
221.740369
  0
ARC
  8
Default
 62
     9
  6
CONTINUOUS
 10
-6.227331
 20
2.473392
 30
0.000000
 40
0.896354
 50
120.000000
 51
207.703491
  0
ARC
  8
Default
 62
     9
  6
CONTINUOUS
 10
-6.495509
 20
2.937888
 30
0.000000
 40
0.360000
 50
116.351034
 51
120.000000
  0
ARC
  8
Default
 62
     9
  6
CONTINUOUS
 10
-6.121790
 20
2.183418
 30
0.000000
 40
1.201957
 50
93.820884
 51
116.351034
  0
ARC
  8
Default
 62
     9
  6
CONTINUOUS
 10
-6.177896
 20
3.023504
 30
0.000000
 40
0.360000
 50
88.835831
 51
93.820884
  0
ARC
  8
Default
 62
     9
  6
CONTINUOUS
 10
-6.125164
 20
5.618393
 30
0.000000
 40
2.235425
 50
268.835831
 51
319.460129
  0
LINE
  8
Default
 62
     9
  6
CONTINUOUS
 10
-4.426344
 20
4.165418
 30
0.000000
 11
-2.893708
 21
6.050985
 31
0.000000
  0
ARC
  8
Default
 62
     9
  6
CONTINUOUS
 10
-3.002347
 20
6.139289
 30
0.000000
 40
0.140000
 50
320.894934
 51
376.289235
  0
ARC
  8
Default
 62
     9
  6
CONTINUOUS
 10
-1.974581
 20
6.439619
 30
0.000000
 40
0.930748
 50
93.186439
 51
196.289235
  0
ARC
  8
Default
 62
     9
  6
CONTINUOUS
 10
-2.006306
 20
7.009485
 30
0.000000
 40
0.360000
 50
86.827885
 51
93.186439
  0
LINE
  8
Default
 62
     9
  6
CONTINUOUS
 10
-1.986385
 20
7.368933
 30
0.000000
 11
4.894539
 21
6.987589
 31
0.000000
  0
ARC
  8
Default
 62
     9
  6
CONTINUOUS
 10
4.963980
 20
6.044089
 30
0.000000
 40
0.946053
 50
29.418573
 51
94.209315
  0
ARC
  8
Default
 62
     9
  6
CONTINUOUS
 10
5.474463
 20
6.331949
 30
0.000000
 40
0.360000
 50
29.013408
 51
29.418573
  0
LINE
  8
Default
 62
     9
  6
CONTINUOUS
 10
5.789286
 20
6.506555
 30
0.000000
 11
8.764939
 21
1.141295
 31
0.000000
  0
LINE
  8
Default
 62
     9
  6
CONTINUOUS
 10
8.764939
 20
1.141295
 30
0.000000
 11
10.513951
 21
2.111324
 31
0.000000
  0
ARC
  8
Default
 62
     9
  6
CONTINUOUS
 10
7.952400
 20
0.672906
 30
0.000000
 40
0.932874
 50
331.142481
 51
389.963878
  0
LINE
  8
Default
 62
     9
  6
CONTINUOUS
 10
8.769432
 20
0.222671
 30
0.000000
 11
6.522107
 21
-4.677412
 31
0.000000
  0
ARC
  8
Default
 62
     9
  6
CONTINUOUS
 10
6.199426
 20
-4.529421
 30
0.000000
 40
0.355000
 50
331.543324
 51
335.362392
  0
ARC
  8
Default
 62
     9
  6
CONTINUOUS
 10
4.518320
 20
-3.618300
 30
0.000000
 40
2.267134
 50
296.048334
 51
331.543324
  0
ARC
  8
Default
 62
     9
  6
CONTINUOUS
 10
5.357994
 20
-5.336207
 30
0.000000
 40
0.355000
 50
294.864918
 51
296.048334
  0
LINE
  8
Default
 62
     9
  6
CONTINUOUS
 10
5.507264
 20
-5.658299
 30
0.000000
 11
2.091130
 21
-7.241474
 31
0.000000
  0
ARC
  8
Default
 62
     9
  6
CONTINUOUS
 10
1.941859
 20
-6.919382
 30
0.000000
 40
0.355000
 50
281.860453
 51
294.864918
  0
LINE
  8
Default
 62
     9
  6
CONTINUOUS
 10
2.014822
 20
-7.266803
 30
0.000000
 11
1.793704
 21
-7.313241
 31
0.000000
  0
ARC
  8
Default
 62
     9
  6
CONTINUOUS
 10
1.720741
 20
-6.965820
 30
0.000000
 40
0.355000
 50
272.663495
 51
281.860453
  0
LINE
  8
Default
 62
     9
  6
CONTINUOUS
 10
1.737238
 20
-7.320436
 30
0.000000
 11
0.094179
 21
-7.396872
 31
0.000000
  0
ARC
  8
Default
 62
     9
  6
CONTINUOUS
 10
0.073035
 20
-6.942363
 30
0.000000
 40
0.455000
 50
224.919686
 51
272.663495
  0
LINE
  8
Default
 62
     9
  6
CONTINUOUS
 10
-0.249149
 20
-7.263646
 30
0.000000
 11
-0.681477
 21
-6.830104
 31
0.000000
  0
ARC
  8
Default
 62
     9
  6
CONTINUOUS
 10
-0.394698
 20
-6.544127
 30
0.000000
 40
0.405000
 50
174.228295
 51
224.919686
  0
ARC
  8
Default
 62
     9
  6
CONTINUOUS
 10
-1.134235
 20
-6.469377
 30
0.000000
 40
0.338305
 50
354.228295
 51
515.574903
  0
LINE
  8
Default
 62
     9
  6
CONTINUOUS
 10
-1.442262
 20
-6.329486
 30
0.000000
 11
-1.476799
 21
-6.473422
 31
0.000000
  0
ARC
  8
Default
 62
     9
  6
CONTINUOUS
 10
-1.870621
 20
-6.378928
 30
0.000000
 40
0.405000
 50
256.576278
 51
346.507436
  0
LINE
  8
Default
 62
     9
  6
CONTINUOUS
 10
-1.964642
 20
-6.772863
 30
0.000000
 11
-2.682369
 21
-6.601562
 31
0.000000
  0
ARC
  8
Default
 62
     9
  6
CONTINUOUS
 10
-2.599956
 20
-6.256261
 30
0.000000
 40
0.355000
 50
240.585860
 51
256.576278
  0
LINE
  8
Default
 62
     9
  6
CONTINUOUS
 10
-2.774303
 20
-6.565499
 30
0.000000
 11
-3.801595
 21
-5.986315
 31
0.000000
  0
ARC
  8
Default
 62
     9
  6
CONTINUOUS
 10
-3.381689
 20
-5.241531
 30
0.000000
 40
0.855000
 50
209.046794
 51
240.585860
  0
LINE
  8
Default
 62
     9
  6
CONTINUOUS
 10
-4.129150
 20
-5.656654
 30
0.000000
 11
-5.096350
 21
-3.915134
 31
0.000000
  0
ARC
  8
Default
 62
     9
  6
CONTINUOUS
 10
-4.698578
 20
-3.694221
 30
0.000000
 40
0.455000
 50
120.000000
 51
209.046794
  0
LINE
  8
Default
 62
     9
  6
CONTINUOUS
 10
-4.926078
 20
-3.300179
 30
0.000000
 11
-3.520972
 21
-2.488941
 31
0.000000
  0
ARC
  8
Default
 62
     9
  6
CONTINUOUS
 10
-3.718472
 20
-2.146861
 30
0.000000
 40
0.395000
 50
300.000000
 51
480.000000
  0
LINE
  8
Default
 62
     9
  6
CONTINUOUS
 10
-3.915972
 20
-1.804781
 30
0.000000
 11
-5.283276
 21
-2.594194
 31
0.000000
  0
ARC
  8
Default
 62
     9
  6
CONTINUOUS
 10
-5.510776
 20
-2.200152
 30
0.000000
 40
0.455000
 50
191.254468
 51
300.000000
  0
LINE
  8
Default
 62
     9
  6
CONTINUOUS
 10
-5.957026
 20
-2.288953
 30
0.000000
 11
-6.242657
 21
-0.853575
 31
0.000000
  0
ARC
  8
Default
 62
     9
  6
CONTINUOUS
 10
-5.894484
 20
-0.784291
 30
0.000000
 40
0.355000
 50
183.891653
 51
191.254468
  0
LINE
  8
Default
 62
     9
  6
CONTINUOUS
 10
-6.248665
 20
-0.808384
 30
0.000000
 11
-6.311021
 21
0.108251
 31
0.000000
  0
ARC
  8
Default
 62
     9
  6
CONTINUOUS
 10
-5.956839
 20
0.132345
 30
0.000000
 40
0.355000
 50
177.485947
 51
183.891653
  0
ARC
  8
Default
 62
     9
  6
CONTINUOUS
 10
-8.901631
 20
0.261641
 30
0.000000
 40
2.592629
 50
357.485947
 51
401.740369
  0
ARC
  8
Default
 62
     9
  6
CONTINUOUS
 10
-6.702201
 20
2.224043
 30
0.000000
 40
0.355000
 50
207.703491
 51
221.740369
  0
ARC
  8
Default
 62
     9
  6
CONTINUOUS
 10
-6.227331
 20
2.473392
 30
0.000000
 40
0.891354
 50
120.000000
 51
207.703491
  0
ARC
  8
Default
 62
     9
  6
CONTINUOUS
 10
-6.495509
 20
2.937888
 30
0.000000
 40
0.355000
 50
116.351034
 51
120.000000
  0
ARC
  8
Default
 62
     9
  6
CONTINUOUS
 10
-6.121790
 20
2.183418
 30
0.000000
 40
1.196957
 50
93.820884
 51
116.351034
  0
ARC
  8
Default
 62
     9
  6
CONTINUOUS
 10
-6.177896
 20
3.023504
 30
0.000000
 40
0.355000
 50
88.835831
 51
93.820884
  0
ARC
  8
Default
 62
     9
  6
CONTINUOUS
 10
-6.125164
 20
5.618393
 30
0.000000
 40
2.240425
 50
268.835831
 51
319.461731
  0
LINE
  8
Default
 62
     9
  6
CONTINUOUS
 10
-4.422503
 20
4.162216
 30
0.000000
 11
-2.889828
 21
6.047831
 31
0.000000
  0
ARC
  8
Default
 62
     9
  6
CONTINUOUS
 10
-3.002347
 20
6.139289
 30
0.000000
 40
0.145000
 50
320.894934
 51
376.289235
  0
ARC
  8
Default
 62
     9
  6
CONTINUOUS
 10
-1.974581
 20
6.439619
 30
0.000000
 40
0.925748
 50
93.186439
 51
196.289235
  0
ARC
  8
Default
 62
     9
  6
CONTINUOUS
 10
-2.006306
 20
7.009485
 30
0.000000
 40
0.355000
 50
86.827885
 51
93.186439
  0
LINE
  8
Default
 62
     9
  6
CONTINUOUS
 10
-1.986662
 20
7.363941
 30
0.000000
 11
4.894585
 21
6.982579
 31
0.000000
  0
ARC
  8
Default
 62
     9
  6
CONTINUOUS
 10
4.963980
 20
6.044089
 30
0.000000
 40
0.941053
 50
29.418573
 51
94.228926
  0
ARC
  8
Default
 62
     9
  6
CONTINUOUS
 10
5.474463
 20
6.331949
 30
0.000000
 40
0.355000
 50
29.013408
 51
29.418573
  0
LINE
  8
Default
 62
     9
  6
CONTINUOUS
 10
5.784913
 20
6.504130
 30
0.000000
 11
8.760586
 21
1.138834
 31
0.000000
  0
CIRCLE
  8
Default
 62
     9
  6
CONTINUOUS
 10
0.000000
 20
0.000000
 30
0.000000
 40
2.640000
  0
CIRCLE
  8
Default
 62
     9
  6
CONTINUOUS
 10
0.000000
 20
0.000000
 30
0.000000
 40
2.645000
  0
LINE
  8
DIM
 62
     7
  6
CONTINUOUS
 10
7.702351
 20
0.675446
 30
0.000000
 11
7.702351
 21
1.526716
 31
0.000000
  0
LINE
  8
DIM
 62
     7
  6
CONTINUOUS
 10
8.202351
 20
0.675446
 30
0.000000
 11
8.202351
 21
1.526716
 31
0.000000
  0
LINE
  8
DIM
 62
     7
  6
CONTINUOUS
 10
7.702351
 20
1.522906
 30
0.000000
 11
8.202351
 21
1.522906
 31
0.000000
  0
LINE
  8
DIM
 62
     7
  6
CONTINUOUS
 10
7.702351
 20
1.522906
 30
0.000000
 11
7.727351
 21
1.535406
 31
0.000000
  0
LINE
  8
DIM
 62
     7
  6
CONTINUOUS
 10
7.702351
 20
1.522906
 30
0.000000
 11
7.727351
 21
1.510406
 31
0.000000
  0
LINE
  8
DIM
 62
     7
  6
CONTINUOUS
 10
8.202351
 20
1.522906
 30
0.000000
 11
8.177351
 21
1.510406
 31
0.000000
  0
LINE
  8
DIM
 62
     7
  6
CONTINUOUS
 10
8.202351
 20
1.522906
 30
0.000000
 11
8.177351
 21
1.535406
 31
0.000000
  0
TEXT
  8
DIM
 62
     7
 10
7.782351
 20
1.604187
 30
0.000000
 40
0.200000
  1
0.5
 72
     1
 11
7.952351
 21
1.604187
 31
0.000000
  0
LINE
  8
DIM
 62
     7
  6
CONTINUOUS
 10
4.713980
 20
6.046628
 30
0.000000
 11
4.713980
 21
6.897899
 31
0.000000
  0
LINE
  8
DIM
 62
     7
  6
CONTINUOUS
 10
5.213980
 20
6.046628
 30
0.000000
 11
5.213980
 21
6.897899
 31
0.000000
  0
LINE
  8
DIM
 62
     7
  6
CONTINUOUS
 10
4.713980
 20
6.894089
 30
0.000000
 11
5.213980
 21
6.894089
 31
0.000000
  0
LINE
  8
DIM
 62
     7
  6
CONTINUOUS
 10
4.713980
 20
6.894089
 30
0.000000
 11
4.738980
 21
6.906589
 31
0.000000
  0
LINE
  8
DIM
 62
     7
  6
CONTINUOUS
 10
4.713980
 20
6.894089
 30
0.000000
 11
4.738980
 21
6.881589
 31
0.000000
  0
LINE
  8
DIM
 62
     7
  6
CONTINUOUS
 10
5.213980
 20
6.894089
 30
0.000000
 11
5.188980
 21
6.881589
 31
0.000000
  0
LINE
  8
DIM
 62
     7
  6
CONTINUOUS
 10
5.213980
 20
6.894089
 30
0.000000
 11
5.188980
 21
6.906589
 31
0.000000
  0
TEXT
  8
DIM
 62
     7
 10
4.793980
 20
6.975369
 30
0.000000
 40
0.200000
  1
0.5
 72
     1
 11
4.963980
 21
6.975369
 31
0.000000
  0
LINE
  8
DIM
 62
     7
  6
CONTINUOUS
 10
-2.289581
 20
6.442159
 30
0.000000
 11
-2.289581
 21
7.358429
 31
0.000000
  0
LINE
  8
DIM
 62
     7
  6
CONTINUOUS
 10
-1.659581
 20
6.442159
 30
0.000000
 11
-1.659581
 21
7.358429
 31
0.000000
  0
LINE
  8
DIM
 62
     7
  6
CONTINUOUS
 10
-2.289581
 20
7.354619
 30
0.000000
 11
-1.659581
 21
7.354619
 31
0.000000
  0
LINE
  8
DIM
 62
     7
  6
CONTINUOUS
 10
-2.289581
 20
7.354619
 30
0.000000
 11
-2.264581
 21
7.367119
 31
0.000000
  0
LINE
  8
DIM
 62
     7
  6
CONTINUOUS
 10
-2.289581
 20
7.354619
 30
0.000000
 11
-2.264581
 21
7.342119
 31
0.000000
  0
LINE
  8
DIM
 62
     7
  6
CONTINUOUS
 10
-1.659581
 20
7.354619
 30
0.000000
 11
-1.684581
 21
7.342119
 31
0.000000
  0
LINE
  8
DIM
 62
     7
  6
CONTINUOUS
 10
-1.659581
 20
7.354619
 30
0.000000
 11
-1.684581
 21
7.367119
 31
0.000000
  0
TEXT
  8
DIM
 62
     7
 10
-2.214581
 20
7.435899
 30
0.000000
 40
0.200000
  1
0.63
 72
     1
 11
-1.974581
 21
7.435899
 31
0.000000
  0
LINE
  8
DIM
 62
     7
  6
CONTINUOUS
 10
-6.477332
 20
2.475932
 30
0.000000
 11
-6.477332
 21
3.327202
 31
0.000000
  0
LINE
  8
DIM
 62
     7
  6
CONTINUOUS
 10
-5.977332
 20
2.475932
 30
0.000000
 11
-5.977332
 21
3.327202
 31
0.000000
  0
LINE
  8
DIM
 62
     7
  6
CONTINUOUS
 10
-6.477332
 20
3.323392
 30
0.000000
 11
-5.977332
 21
3.323392
 31
0.000000
  0
LINE
  8
DIM
 62
     7
  6
CONTINUOUS
 10
-6.477332
 20
3.323392
 30
0.000000
 11
-6.452332
 21
3.335892
 31
0.000000
  0
LINE
  8
DIM
 62
     7
  6
CONTINUOUS
 10
-6.477332
 20
3.323392
 30
0.000000
 11
-6.452332
 21
3.310892
 31
0.000000
  0
LINE
  8
DIM
 62
     7
  6
CONTINUOUS
 10
-5.977332
 20
3.323392
 30
0.000000
 11
-6.002332
 21
3.310892
 31
0.000000
  0
LINE
  8
DIM
 62
     7
  6
CONTINUOUS
 10
-5.977332
 20
3.323392
 30
0.000000
 11
-6.002332
 21
3.335892
 31
0.000000
  0
TEXT
  8
DIM
 62
     7
 10
-6.397331
 20
3.404672
 30
0.000000
 40
0.200000
  1
0.5
 72
     1
 11
-6.227332
 21
3.404672
 31
0.000000
  0
LINE
  8
DIM
 62
     7
  6
CONTINUOUS
 10
-3.421573
 20
-5.392888
 30
0.000000
 11
-3.421573
 21
-4.541618
 31
0.000000
  0
LINE
  8
DIM
 62
     7
  6
CONTINUOUS
 10
-2.921573
 20
-5.392888
 30
0.000000
 11
-2.921573
 21
-4.541618
 31
0.000000
  0
LINE
  8
DIM
 62
     7
  6
CONTINUOUS
 10
-3.421573
 20
-4.545428
 30
0.000000
 11
-2.921573
 21
-4.545428
 31
0.000000
  0
LINE
  8
DIM
 62
     7
  6
CONTINUOUS
 10
-3.421573
 20
-4.545428
 30
0.000000
 11
-3.396573
 21
-4.532928
 31
0.000000
  0
LINE
  8
DIM
 62
     7
  6
CONTINUOUS
 10
-3.421573
 20
-4.545428
 30
0.000000
 11
-3.396573
 21
-4.557928
 31
0.000000
  0
LINE
  8
DIM
 62
     7
  6
CONTINUOUS
 10
-2.921573
 20
-4.545428
 30
0.000000
 11
-2.946573
 21
-4.557928
 31
0.000000
  0
LINE
  8
DIM
 62
     7
  6
CONTINUOUS
 10
-2.921573
 20
-4.545428
 30
0.000000
 11
-2.946573
 21
-4.532928
 31
0.000000
  0
TEXT
  8
DIM
 62
     7
 10
-3.341573
 20
-4.464148
 30
0.000000
 40
0.200000
  1
0.5
 72
     1
 11
-3.171573
 21
-4.464148
 31
0.000000
  0
LINE
  8
DIM
 62
     7
  6
CONTINUOUS
 10
1.410214
 20
-6.423473
 30
0.000000
 11
1.410214
 21
-5.507203
 31
0.000000
  0
LINE
  8
DIM
 62
     7
  6
CONTINUOUS
 10
2.040214
 20
-6.423473
 30
0.000000
 11
2.040214
 21
-5.507203
 31
0.000000
  0
LINE
  8
DIM
 62
     7
  6
CONTINUOUS
 10
1.410214
 20
-5.511013
 30
0.000000
 11
2.040214
 21
-5.511013
 31
0.000000
  0
LINE
  8
DIM
 62
     7
  6
CONTINUOUS
 10
1.410214
 20
-5.511013
 30
0.000000
 11
1.435214
 21
-5.498513
 31
0.000000
  0
LINE
  8
DIM
 62
     7
  6
CONTINUOUS
 10
1.410214
 20
-5.511013
 30
0.000000
 11
1.435214
 21
-5.523513
 31
0.000000
  0
LINE
  8
DIM
 62
     7
  6
CONTINUOUS
 10
2.040214
 20
-5.511013
 30
0.000000
 11
2.015214
 21
-5.523513
 31
0.000000
  0
LINE
  8
DIM
 62
     7
  6
CONTINUOUS
 10
2.040214
 20
-5.511013
 30
0.000000
 11
2.015214
 21
-5.498513
 31
0.000000
  0
TEXT
  8
DIM
 62
     7
 10
1.485214
 20
-5.429733
 30
0.000000
 40
0.200000
  1
0.63
 72
     1
 11
1.725214
 21
-5.429733
 31
0.000000
  0
LINE
  8
DIM
 62
     7
  6
CONTINUOUS
 10
5.812918
 20
-1.860608
 30
0.000000
 11
5.812918
 21
-1.009338
 31
0.000000
  0
LINE
  8
DIM
 62
     7
  6
CONTINUOUS
 10
6.312918
 20
-1.860608
 30
0.000000
 11
6.312918
 21
-1.009338
 31
0.000000
  0
LINE
  8
DIM
 62
     7
  6
CONTINUOUS
 10
5.812918
 20
-1.013148
 30
0.000000
 11
6.312918
 21
-1.013148
 31
0.000000
  0
LINE
  8
DIM
 62
     7
  6
CONTINUOUS
 10
5.812918
 20
-1.013148
 30
0.000000
 11
5.837918
 21
-1.000648
 31
0.000000
  0
LINE
  8
DIM
 62
     7
  6
CONTINUOUS
 10
5.812918
 20
-1.013148
 30
0.000000
 11
5.837918
 21
-1.025648
 31
0.000000
  0
LINE
  8
DIM
 62
     7
  6
CONTINUOUS
 10
6.312918
 20
-1.013148
 30
0.000000
 11
6.287918
 21
-1.025648
 31
0.000000
  0
LINE
  8
DIM
 62
     7
  6
CONTINUOUS
 10
6.312918
 20
-1.013148
 30
0.000000
 11
6.287918
 21
-1.000648
 31
0.000000
  0
TEXT
  8
DIM
 62
     7
 10
5.892919
 20
-0.931868
 30
0.000000
 40
0.200000
  1
0.5
 72
     1
 11
6.062918
 21
-0.931868
 31
0.000000
  0
LINE
  8
DIM
 62
     7
  6
CONTINUOUS
 10
-2.268006
 20
-5.985762
 30
0.000000
 11
-2.268006
 21
-5.165492
 31
0.000000
  0
LINE
  8
DIM
 62
     7
  6
CONTINUOUS
 10
-1.830006
 20
-5.985762
 30
0.000000
 11
-1.830006
 21
-5.165492
 31
0.000000
  0
LINE
  8
DIM
 62
     7
  6
CONTINUOUS
 10
-2.374086
 20
-5.169302
 30
0.000000
 11
-1.723926
 21
-5.169302
 31
0.000000
  0
LINE
  8
DIM
 62
     7
  6
CONTINUOUS
 10
-2.268006
 20
-5.169302
 30
0.000000
 11
-2.243006
 21
-5.156802
 31
0.000000
  0
LINE
  8
DIM
 62
     7
  6
CONTINUOUS
 10
-2.268006
 20
-5.169302
 30
0.000000
 11
-2.243006
 21
-5.181802
 31
0.000000
  0
LINE
  8
DIM
 62
     7
  6
CONTINUOUS
 10
-1.830006
 20
-5.169302
 30
0.000000
 11
-1.855006
 21
-5.181802
 31
0.000000
  0
LINE
  8
DIM
 62
     7
  6
CONTINUOUS
 10
-1.830006
 20
-5.169302
 30
0.000000
 11
-1.855006
 21
-5.156802
 31
0.000000
  0
TEXT
  8
DIM
 62
     7
 10
-2.369006
 20
-5.088022
 30
0.000000
 40
0.200000
  1
0.438
 72
     1
 11
-2.049006
 21
-5.088022
 31
0.000000
  0
LINE
  8
DIM
 62
     7
  6
CONTINUOUS
 10
-0.341216
 20
-6.350228
 30
0.000000
 11
-0.341216
 21
-5.529958
 31
0.000000
  0
LINE
  8
DIM
 62
     7
  6
CONTINUOUS
 10
0.096784
 20
-6.350228
 30
0.000000
 11
0.096784
 21
-5.529958
 31
0.000000
  0
LINE
  8
DIM
 62
     7
  6
CONTINUOUS
 10
-0.447296
 20
-5.533768
 30
0.000000
 11
0.202864
 21
-5.533768
 31
0.000000
  0
LINE
  8
DIM
 62
     7
  6
CONTINUOUS
 10
-0.341216
 20
-5.533768
 30
0.000000
 11
-0.316216
 21
-5.521268
 31
0.000000
  0
LINE
  8
DIM
 62
     7
  6
CONTINUOUS
 10
-0.341216
 20
-5.533768
 30
0.000000
 11
-0.316216
 21
-5.546268
 31
0.000000
  0
LINE
  8
DIM
 62
     7
  6
CONTINUOUS
 10
0.096784
 20
-5.533768
 30
0.000000
 11
0.071784
 21
-5.546268
 31
0.000000
  0
LINE
  8
DIM
 62
     7
  6
CONTINUOUS
 10
0.096784
 20
-5.533768
 30
0.000000
 11
0.071784
 21
-5.521268
 31
0.000000
  0
TEXT
  8
DIM
 62
     7
 10
-0.442216
 20
-5.452488
 30
0.000000
 40
0.200000
  1
0.438
 72
     1
 11
-0.122216
 21
-5.452488
 31
0.000000
  0
TEXT
  8
DIM
 62
     7
 10
-0.461343
 20
5.535627
 30
0.000000
 40
0.200000
  1
Countersink holes on back side
 72
     1
 11
1.358657
 21
5.535627
 31
0.000000
  0
ENDSEC
  0
EOF
