  0
SECTION
  2
HEADER
  9
$ACADVER
  1
AC1006
  0
ENDSEC
  0
SECTION
  2
TABLES
  0
TABLE
  2
LTYPE
 70
    25
  0
LTYPE
  2
CONTINUOUS
 70
    64
  3
Solid line
 72
    64
 73
     0
 40
0.000000
  0
LTYPE
  2
DASHDOT
 70
    64
  3
__ . __ . __ . __ . __ . __ . __ . __ . __ . __
 72
    65
 73
     4
 40
1.000000
 49
0.500000
 49
-0.250000
 49
0.000000
 49
-0.250000
  0
LTYPE
  2
DASHED
 70
    64
  3
__ __ __ __ __ __ __ __ __ __ __ __ __ __ __ __
 72
    65
 73
     2
 40
0.750000
 49
0.500000
 49
-0.250000
  0
LTYPE
  2
DIVIDE
 70
    64
  3
____ . . ____ . . ____ . . ____ . . ____ . . __
 72
    65
 73
     6
 40
1.250000
 49
0.500000
 49
-0.250000
 49
0.000000
 49
-0.250000
 49
0.000000
 49
-0.250000
  0
LTYPE
  2
DOT
 70
    64
  3
. . . . . . . . . . . . . . . . . . . . . . . . 
 72
    65
 73
     2
 40
0.250000
 49
0.000000
 49
-0.250000
  0
ENDTAB
  0
ENDSEC
  0
SECTION
  2
BLOCKS
  0
BLOCK
  8
0
  2
Object_0
 70
    64
 10
0.000000
 20
0.000000
 30
0.000000
  0
ENDBLK
  0
ENDSEC
  0
SECTION
  2
ENTITIES
  0
CIRCLE
  8
HUB
 62
     7
  6
CONTINUOUS
 10
-2.665305
 20
6.340629
 30
0.000000
 40
0.157400
  0
CIRCLE
  8
HUB
 62
     7
  6
CONTINUOUS
 10
-2.665298
 20
-6.045633
 30
0.000000
 40
0.157100
  0
POINT
  8
HUB
 62
     7
 10
-2.665305
 20
6.340629
 30
0.000000
  0
POINT
  8
HUB
 62
     7
 10
-2.665298
 20
-6.045633
 30
0.000000
  0
POINT
  8
HUB
 62
     7
 10
3.200246
 20
-5.743381
 30
0.000000
  0
CIRCLE
  8
HUB
 62
     7
  6
CONTINUOUS
 10
3.200246
 20
-5.743381
 30
0.000000
 40
0.167000
  0
LINE
  8
HUB
 62
     7
  6
CONTINUOUS
 10
6.599287
 20
0.111604
 30
0.000000
 11
6.524680
 21
-2.654944
 31
0.000000
  0
ARC
  8
HUB
 62
     7
  6
CONTINUOUS
 10
6.023868
 20
-2.641438
 30
0.000000
 40
0.500994
 50
317.851210
 51
358.455260
  0
LINE
  8
HUB
 62
     7
  6
CONTINUOUS
 10
6.395308
 20
-2.977634
 30
0.000000
 11
3.580480
 21
-6.087538
 31
0.000000
  0
ARC
  8
HUB
 62
     7
  6
CONTINUOUS
 10
3.200246
 20
-5.743381
 30
0.000000
 40
0.512857
 50
272.946367
 51
317.851210
  0
POINT
  8
HUB
 62
     7
 10
-0.167994
 20
6.910054
 30
0.000000
  0
POINT
  8
HUB
 62
     7
 10
6.599287
 20
0.111604
 30
0.000000
  0
LINE
  8
HUB
 62
     7
  6
CONTINUOUS
 10
3.226607
 20
-6.255560
 30
0.000000
 11
-2.638955
 21
-6.557456
 31
0.000000
  0
ARC
  8
HUB
 62
     7
  6
CONTINUOUS
 10
-2.665298
 20
-6.045633
 30
0.000000
 40
0.512500
 50
224.824959
 51
272.946367
  0
LINE
  8
HUB
 62
     7
  6
CONTINUOUS
 10
-7.657557
 20
-1.749785
 30
0.000000
 11
-3.028795
 21
-6.406916
 31
0.000000
  0
ARC
  8
HUB
 62
     7
  6
CONTINUOUS
 10
-6.274458
 20
-0.375111
 30
0.000000
 40
1.950049
 50
140.539815
 51
224.824959
  0
LINE
  8
HUB
 62
     7
  6
CONTINUOUS
 10
-3.026957
 20
6.638330
 30
0.000000
 11
-7.780026
 21
0.864226
 31
0.000000
  0
ARC
  8
HUB
 62
     7
  6
CONTINUOUS
 10
-2.665305
 20
6.340629
 30
0.000000
 40
0.468421
 50
92.307360
 51
140.539815
  0
LINE
  8
HUB
 62
     7
  6
CONTINUOUS
 10
-0.167994
 20
6.910054
 30
0.000000
 11
-2.684164
 21
6.808670
 31
0.000000
  0
LINE
  8
HUB
 62
     7
  6
CONTINUOUS
 10
-0.167994
 20
6.910054
 30
0.000000
 11
2.437593
 21
6.852097
 31
0.000000
  0
ARC
  8
HUB
 62
     7
  6
CONTINUOUS
 10
2.427177
 20
6.383812
 30
0.000000
 40
0.468400
 50
44.538974
 51
88.725756
  0
LINE
  8
HUB
 62
     7
  6
CONTINUOUS
 10
2.761040
 20
6.712345
 30
0.000000
 11
6.258351
 21
3.158295
 31
0.000000
  0
ARC
  8
HUB
 62
     7
  6
CONTINUOUS
 10
5.924488
 20
2.829762
 30
0.000000
 40
0.468400
 50
4.314431
 51
44.538974
  0
LINE
  8
HUB
 62
     7
  6
CONTINUOUS
 10
6.599287
 20
0.111604
 30
0.000000
 11
6.391561
 21
2.865000
 31
0.000000
  0
POINT
  8
HUB
 62
     7
 10
2.427177
 20
6.383812
 30
0.000000
  0
CIRCLE
  8
HUB
 62
     7
  6
CONTINUOUS
 10
2.427177
 20
6.383812
 30
0.000000
 40
0.167000
  0
POINT
  8
HUB
 62
     7
 10
5.924488
 20
2.829762
 30
0.000000
  0
CIRCLE
  8
HUB
 62
     7
  6
CONTINUOUS
 10
5.924488
 20
2.829762
 30
0.000000
 40
0.167000
  0
POINT
  8
HUB
 62
     7
 10
6.023868
 20
-2.641438
 30
0.000000
  0
CIRCLE
  8
HUB
 62
     7
  6
CONTINUOUS
 10
6.023868
 20
-2.641438
 30
0.000000
 40
0.167000
  0
LINE
  8
HUB
 62
     7
  6
CONTINUOUS
 10
-2.665305
 20
6.340629
 30
0.000000
 11
-2.665298
 21
-6.045633
 31
0.000000
  0
LINE
  8
HUB
 62
     7
  6
CONTINUOUS
 10
-2.665298
 20
-6.045633
 30
0.000000
 11
0.000000
 21
0.000000
 31
0.000000
  0
LINE
  8
HUB
 62
     7
  6
CONTINUOUS
 10
0.000000
 20
0.000000
 30
0.000000
 11
-2.665305
 21
6.340629
 31
0.000000
  0
CIRCLE
  8
HUB
 62
     7
  6
CONTINUOUS
 10
-2.665305
 20
6.340629
 30
0.000000
 40
0.125000
  0
CIRCLE
  8
HUB
 62
     7
  6
CONTINUOUS
 10
2.427177
 20
6.383812
 30
0.000000
 40
0.125000
  0
CIRCLE
  8
HUB
 62
     7
  6
CONTINUOUS
 10
5.924488
 20
2.829762
 30
0.000000
 40
0.125000
  0
CIRCLE
  8
HUB
 62
     7
  6
CONTINUOUS
 10
6.023868
 20
-2.641438
 30
0.000000
 40
0.125000
  0
CIRCLE
  8
HUB
 62
     7
  6
CONTINUOUS
 10
3.200246
 20
-5.743381
 30
0.000000
 40
0.125000
  0
CIRCLE
  8
HUB
 62
     7
  6
CONTINUOUS
 10
-2.665298
 20
-6.045633
 30
0.000000
 40
0.125000
  0
POINT
  8
HUB
 62
     7
 10
2.427177
 20
6.383812
 30
0.000000
  0
LINE
  8
HUB
 62
     7
  6
CONTINUOUS
 10
2.427177
 20
6.758812
 30
0.000000
 11
2.427177
 21
6.008812
 31
0.000000
  0
LINE
  8
HUB
 62
     7
  6
CONTINUOUS
 10
2.147124
 20
6.383812
 30
0.000000
 11
2.683355
 21
6.383812
 31
0.000000
  0
POINT
  8
HUB
 62
     7
 10
5.924488
 20
2.829762
 30
0.000000
  0
LINE
  8
HUB
 62
     7
  6
CONTINUOUS
 10
5.924488
 20
3.204762
 30
0.000000
 11
5.924488
 21
2.454762
 31
0.000000
  0
LINE
  8
HUB
 62
     7
  6
CONTINUOUS
 10
5.644435
 20
2.829762
 30
0.000000
 11
6.180666
 21
2.829762
 31
0.000000
  0
POINT
  8
HUB
 62
     7
 10
6.023868
 20
-2.641438
 30
0.000000
  0
LINE
  8
HUB
 62
     7
  6
CONTINUOUS
 10
6.023868
 20
-2.266438
 30
0.000000
 11
6.023868
 21
-3.016438
 31
0.000000
  0
LINE
  8
HUB
 62
     7
  6
CONTINUOUS
 10
5.743815
 20
-2.641438
 30
0.000000
 11
6.280046
 21
-2.641438
 31
0.000000
  0
POINT
  8
HUB
 62
     7
 10
3.200246
 20
-5.743381
 30
0.000000
  0
LINE
  8
HUB
 62
     7
  6
CONTINUOUS
 10
3.200246
 20
-5.368381
 30
0.000000
 11
3.200246
 21
-6.118381
 31
0.000000
  0
LINE
  8
HUB
 62
     7
  6
CONTINUOUS
 10
2.920193
 20
-5.743381
 30
0.000000
 11
3.456423
 21
-5.743381
 31
0.000000
  0
POINT
  8
HUB
 62
     7
 10
-2.665298
 20
-6.045633
 30
0.000000
  0
LINE
  8
HUB
 62
     7
  6
CONTINUOUS
 10
-2.665298
 20
-5.670633
 30
0.000000
 11
-2.665298
 21
-6.420633
 31
0.000000
  0
LINE
  8
HUB
 62
     7
  6
CONTINUOUS
 10
-2.945351
 20
-6.045633
 30
0.000000
 11
-2.409120
 21
-6.045633
 31
0.000000
  0
POINT
  8
HUB
 62
     7
 10
-2.665305
 20
6.340629
 30
0.000000
  0
LINE
  8
HUB
 62
     7
  6
CONTINUOUS
 10
-2.665305
 20
6.715629
 30
0.000000
 11
-2.665305
 21
5.965629
 31
0.000000
  0
LINE
  8
HUB
 62
     7
  6
CONTINUOUS
 10
-2.945358
 20
6.340629
 30
0.000000
 11
-2.409127
 21
6.340629
 31
0.000000
  0
TEXT
  8
DIM
 62
     7
 10
-0.842171
 20
6.277707
 30
0.000000
 40
0.125000
  1
TOP MOTOR SIDE
  0
TEXT
  8
DIM
 62
     7
 10
-0.873299
 20
5.655136
 30
0.000000
 40
0.125000
  1
1965 DATSUN L320
  0
TEXT
  8
DIM
 62
     7
 10
-0.873299
 20
5.467636
 30
0.000000
 40
0.125000
  1
ADAPTER PLATE
  0
TEXT
  8
DIM
 62
     7
 10
-2.336342
 20
6.308836
 30
0.000000
 40
0.125000
  1
" A "
  0
CIRCLE
  8
HUB
 62
     7
  6
CONTINUOUS
 10
0.000000
 20
0.000000
 30
0.000000
 40
0.311000
  0
POINT
  8
HUB
 62
     7
 10
0.000000
 20
0.000000
 30
0.000000
  0
POINT
  8
HUB
 62
     7
 10
0.000000
 20
0.000000
 30
0.000000
  0
LINE
  8
HUB
 62
     7
  6
CONTINUOUS
 10
0.000000
 20
0.375000
 30
0.000000
 11
0.000000
 21
-0.375000
 31
0.000000
  0
LINE
  8
HUB
 62
     7
  6
CONTINUOUS
 10
-0.280053
 20
0.000000
 30
0.000000
 11
0.256178
 21
0.000000
 31
0.000000
  0
POINT
  8
HUB
 62
     7
 10
0.000000
 20
0.000000
 30
0.000000
  0
CIRCLE
  8
HUB
 62
     9
  6
CONTINUOUS
 10
0.000000
 20
0.000000
 30
0.000000
 40
4.250000
  0
CIRCLE
  8
HUB
 62
     9
  6
CONTINUOUS
 10
0.000000
 20
0.000000
 30
0.000000
 40
3.000000
  0
CIRCLE
  8
HUB
 62
     9
  6
CONTINUOUS
 10
0.000000
 20
0.000000
 30
0.000000
 40
3.625000
  0
CIRCLE
  8
HUB
 62
     9
  6
CONTINUOUS
 10
-0.001410
 20
3.624108
 30
0.000000
 40
0.250000
  0
CIRCLE
  8
HUB
 62
     9
  6
CONTINUOUS
 10
-3.624108
 20
-0.001410
 30
0.000000
 40
0.250000
  0
CIRCLE
  8
HUB
 62
     9
  6
CONTINUOUS
 10
0.001410
 20
-3.624108
 30
0.000000
 40
0.250000
  0
CIRCLE
  8
HUB
 62
     9
  6
CONTINUOUS
 10
3.624108
 20
0.001410
 30
0.000000
 40
0.250000
  0
POINT
  8
HUB
 62
     7
 10
0.000000
 20
0.000000
 30
0.000000
  0
LINE
  8
HUB
 62
     7
  6
CONTINUOUS
 10
0.000000
 20
7.284333
 30
0.000000
 11
0.000000
 21
-7.322655
 31
0.000000
  0
LINE
  8
HUB
 62
     7
  6
CONTINUOUS
 10
-6.163624
 20
0.000000
 30
0.000000
 11
6.024082
 21
0.000000
 31
0.000000
  0
TEXT
  8
DIM
 62
     7
 10
-2.554584
 20
-5.970728
 30
0.000000
 40
0.125000
  1
" B "
  0
LINE
  8
DIM
 62
     7
  6
CONTINUOUS
 10
-3.114556
 20
-6.045633
 30
0.000000
 11
-3.161143
 21
-5.871766
 31
0.000000
  0
LINE
  8
DIM
 62
     7
  6
CONTINUOUS
 10
-3.114556
 20
-6.045633
 30
0.000000
 11
-3.067969
 21
-5.871766
 31
0.000000
  0
LINE
  8
DIM
 62
     7
  6
CONTINUOUS
 10
-3.114556
 20
6.340629
 30
0.000000
 11
-3.067969
 21
6.166762
 31
0.000000
  0
LINE
  8
DIM
 62
     7
  6
CONTINUOUS
 10
-3.114556
 20
6.340629
 30
0.000000
 11
-3.161143
 21
6.166762
 31
0.000000
  0
LINE
  8
DIM
 62
     7
  6
CONTINUOUS
 10
-2.790298
 20
-6.045633
 30
0.000000
 11
-3.214556
 21
-6.045633
 31
0.000000
  0
LINE
  8
DIM
 62
     7
  6
CONTINUOUS
 10
-2.790305
 20
6.340629
 30
0.000000
 11
-3.214556
 21
6.340629
 31
0.000000
  0
TEXT
  8
DIM
 62
     7
 10
-3.476410
 20
3.506757
 30
0.000000
 40
0.125000
  1
12.386"
  0
LINE
  8
DIM
 62
     7
  6
CONTINUOUS
 10
-3.114556
 20
-6.045633
 30
0.000000
 11
-3.114556
 21
3.475507
 31
0.000000
  0
LINE
  8
DIM
 62
     7
  6
CONTINUOUS
 10
-3.114556
 20
3.663952
 30
0.000000
 11
-3.114556
 21
6.340629
 31
0.000000
  0
LINE
  8
DIM
 62
     7
  6
CONTINUOUS
 10
-1.874459
 20
6.673064
 30
0.000000
 11
-1.764137
 21
6.530835
 31
0.000000
  0
LINE
  8
DIM
 62
     7
  6
CONTINUOUS
 10
-1.874459
 20
6.673064
 30
0.000000
 11
-1.850031
 21
6.494729
 31
0.000000
  0
LINE
  8
DIM
 62
     7
  6
CONTINUOUS
 10
0.790846
 20
0.332435
 30
0.000000
 11
0.680524
 21
0.474664
 31
0.000000
  0
LINE
  8
DIM
 62
     7
  6
CONTINUOUS
 10
0.790846
 20
0.332435
 30
0.000000
 11
0.766419
 21
0.510770
 31
0.000000
  0
LINE
  8
DIM
 62
     7
  6
CONTINUOUS
 10
-2.550072
 20
6.389068
 30
0.000000
 11
-1.782272
 21
6.711815
 31
0.000000
  0
LINE
  8
DIM
 62
     7
  6
CONTINUOUS
 10
0.115233
 20
0.048439
 30
0.000000
 11
0.883033
 21
0.371186
 31
0.000000
  0
TEXT
  8
DIM
 62
     7
 10
-1.257705
 20
4.369778
 30
0.000000
 40
0.125000
  1
6.878"
  0
LINE
  8
DIM
 62
     7
  6
CONTINUOUS
 10
-1.874459
 20
6.673064
 30
0.000000
 11
-0.972343
 21
4.526974
 31
0.000000
  0
LINE
  8
DIM
 62
     7
  6
CONTINUOUS
 10
-0.893129
 20
4.338528
 30
0.000000
 11
0.790846
 21
0.332435
 31
0.000000
  0
LINE
  8
DIM
 62
     7
  6
CONTINUOUS
 10
-2.119525
 20
-6.286244
 30
0.000000
 11
-2.092016
 21
-6.108359
 31
0.000000
  0
LINE
  8
DIM
 62
     7
  6
CONTINUOUS
 10
-2.119525
 20
-6.286244
 30
0.000000
 11
-2.006758
 21
-6.145946
 31
0.000000
  0
LINE
  8
DIM
 62
     7
  6
CONTINUOUS
 10
0.545773
 20
-0.240611
 30
0.000000
 11
0.518263
 21
-0.418497
 31
0.000000
  0
LINE
  8
DIM
 62
     7
  6
CONTINUOUS
 10
0.545773
 20
-0.240611
 30
0.000000
 11
0.433006
 21
-0.380910
 31
0.000000
  0
LINE
  8
DIM
 62
     7
  6
CONTINUOUS
 10
-2.550920
 20
-6.096058
 30
0.000000
 11
-2.028023
 21
-6.326584
 31
0.000000
  0
LINE
  8
DIM
 62
     7
  6
CONTINUOUS
 10
0.114378
 20
-0.050425
 30
0.000000
 11
0.637275
 21
-0.280951
 31
0.000000
  0
TEXT
  8
DIM
 62
     7
 10
-1.619508
 20
-4.442841
 30
0.000000
 40
0.125000
  1
6.607"
  0
LINE
  8
DIM
 62
     7
  6
CONTINUOUS
 10
-2.119525
 20
-6.286244
 30
0.000000
 11
-1.320613
 21
-4.474091
 31
0.000000
  0
LINE
  8
DIM
 62
     7
  6
CONTINUOUS
 10
-1.237689
 20
-4.285996
 30
0.000000
 11
0.545773
 21
-0.240611
 31
0.000000
  0
LINE
  8
DIM
 62
     7
  6
CONTINUOUS
 10
1.423537
 20
2.636048
 30
0.000000
 11
1.513537
 21
2.791932
 31
0.000000
  0
LINE
  8
DIM
 62
     7
  6
CONTINUOUS
 10
1.423537
 20
2.636048
 30
0.000000
 11
1.579422
 21
2.726048
 31
0.000000
  0
LINE
  8
DIM
 62
     7
  6
CONTINUOUS
 10
1.423537
 20
2.636048
 30
0.000000
 11
2.580549
 21
3.793060
 31
0.000000
  0
LINE
  8
DIM
 62
     7
  6
CONTINUOUS
 10
2.580549
 20
3.793060
 30
0.000000
 11
2.830549
 21
3.793060
 31
0.000000
  0
TEXT
  8
DIM
 62
     7
 10
2.893049
 20
3.730559
 30
0.000000
 40
0.125000
  1
6" DIA 
  0
TEXT
  8
DIM
 62
     7
 10
2.878748
 20
3.995835
 30
0.000000
 40
0.125000
  1
HUB CUTOUT
  0
LINE
  8
DIM
 62
     7
  6
CONTINUOUS
 10
3.594426
 20
0.429375
 30
0.000000
 11
3.652106
 21
0.599883
 31
0.000000
  0
LINE
  8
DIM
 62
     7
  6
CONTINUOUS
 10
3.594426
 20
0.429375
 30
0.000000
 11
3.729633
 21
0.548199
 31
0.000000
  0
LINE
  8
DIM
 62
     7
  6
CONTINUOUS
 10
3.594426
 20
0.429375
 30
0.000000
 11
4.286247
 21
1.467108
 31
0.000000
  0
LINE
  8
DIM
 62
     7
  6
CONTINUOUS
 10
4.286247
 20
1.467108
 30
0.000000
 11
4.536247
 21
1.467108
 31
0.000000
  0
TEXT
  8
DIM
 62
     7
 10
4.598747
 20
1.404608
 30
0.000000
 40
0.125000
  1
PLATE TO RING
  0
TEXT
  8
DIM
 62
     7
 10
4.598747
 20
1.217108
 30
0.000000
 40
0.125000
  1
BOLT CIRCLE
  0
TEXT
  8
DIM
 62
     7
 10
4.598747
 20
1.029608
 30
0.000000
 40
0.125000
  1
7.25" DIA
  0
TEXT
  8
DIM
 62
     7
 10
4.598747
 20
0.842108
 30
0.000000
 40
0.125000
  1
DRILL 17/32"
  0
TEXT
  8
DIM
 62
     7
 10
4.598747
 20
0.654608
 30
0.000000
 40
0.125000
  1
4 X
  0
POINT
  8
HUB
 62
     7
 10
-2.665301
 20
0.000000
 30
0.000000
  0
LINE
  8
DIM
 62
     7
  6
CONTINUOUS
 10
-2.665301
 20
0.217148
 30
0.000000
 11
-2.491435
 21
0.263735
 31
0.000000
  0
LINE
  8
DIM
 62
     7
  6
CONTINUOUS
 10
-2.665301
 20
0.217148
 30
0.000000
 11
-2.491435
 21
0.170560
 31
0.000000
  0
LINE
  8
DIM
 62
     7
  6
CONTINUOUS
 10
0.000000
 20
0.217148
 30
0.000000
 11
-0.173867
 21
0.170560
 31
0.000000
  0
LINE
  8
DIM
 62
     7
  6
CONTINUOUS
 10
0.000000
 20
0.217148
 30
0.000000
 11
-0.173867
 21
0.263735
 31
0.000000
  0
LINE
  8
DIM
 62
     7
  6
CONTINUOUS
 10
-2.665301
 20
0.125000
 30
0.000000
 11
-2.665301
 21
0.317148
 31
0.000000
  0
LINE
  8
DIM
 62
     7
  6
CONTINUOUS
 10
0.000000
 20
0.125000
 30
0.000000
 11
0.000000
 21
0.317148
 31
0.000000
  0
TEXT
  8
DIM
 62
     7
 10
-1.666267
 20
0.154341
 30
0.000000
 40
0.125000
  1
2.665"
  0
LINE
  8
DIM
 62
     7
  6
CONTINUOUS
 10
-2.665301
 20
0.217148
 30
0.000000
 11
-1.697517
 21
0.217148
 31
0.000000
  0
LINE
  8
DIM
 62
     7
  6
CONTINUOUS
 10
-0.967785
 20
0.217148
 30
0.000000
 11
0.000000
 21
0.217148
 31
0.000000
  0
TEXT
  8
DIM
 62
     7
 10
-4.921314
 20
3.305265
 30
0.000000
 40
0.125000
  1
(DRILL SIZE "O" )
 50
49.969739
  0
LINE
  8
HUB
 62
     7
  6
CONTINUOUS
 10
-3.578778
 20
5.258398
 30
0.000000
 11
-2.791983
 21
6.204833
 31
0.000000
  0
LINE
  8
HUB
 62
     7
  6
CONTINUOUS
 10
-2.791983
 20
6.204833
 30
0.000000
 11
-2.951623
 21
6.102207
 31
0.000000
  0
LINE
  8
HUB
 62
     7
  6
CONTINUOUS
 10
-2.791983
 20
6.203008
 30
0.000000
 11
-2.869979
 21
6.033334
 31
0.000000
  0
TEXT
  8
DIM
 62
     7
 10
-5.064884
 20
3.425863
 30
0.000000
 40
0.125000
  1
DRILL .316 THRU 
 50
49.969702
  0
TEXT
  8
DIM
 62
     7
 10
-5.132837
 20
-3.683343
 30
0.000000
 40
0.125000
  1
DRILL .316" THRU
 50
-45.000008
  0
TEXT
  8
DIM
 62
     7
 10
-5.265419
 20
-3.815925
 30
0.000000
 40
0.125000
  1
(DRILL SIZE "O" )
 50
-45.000008
  0
LINE
  8
HUB
 62
     7
  6
CONTINUOUS
 10
-3.752747
 20
-5.120726
 30
0.000000
 11
-2.802111
 21
-5.930927
 31
0.000000
  0
LINE
  8
HUB
 62
     7
  6
CONTINUOUS
 10
-2.802111
 20
-5.930927
 30
0.000000
 11
-2.866927
 21
-5.801295
 31
0.000000
  0
LINE
  8
HUB
 62
     7
  6
CONTINUOUS
 10
-2.803815
 20
-5.931984
 30
0.000000
 11
-2.943722
 21
-5.884596
 31
0.000000
  0
TEXT
  8
DIM
 62
     7
 10
0.069899
 20
-5.235932
 30
0.000000
 40
0.125000
  1
DRILL "A" AND "B" AS SHOWN
  0
TEXT
  8
DIM
 62
     7
 10
0.064382
 20
-5.535542
 30
0.000000
 40
0.125000
  1
REMAINING HOLES
  0
TEXT
  8
DIM
 62
     7
 10
0.064382
 20
-5.723042
 30
0.000000
 40
0.125000
  1
DRILL 11/32" THRU 4 X.
  0
LINE
  8
DIM
 62
     7
  6
CONTINUOUS
 10
3.260368
 20
-2.731384
 30
0.000000
 11
3.399601
 21
-2.845463
 31
0.000000
  0
LINE
  8
DIM
 62
     7
  6
CONTINUOUS
 10
3.260368
 20
-2.731384
 30
0.000000
 11
3.323908
 21
-2.899796
 31
0.000000
  0
LINE
  8
DIM
 62
     7
  6
CONTINUOUS
 10
3.260368
 20
-2.731384
 30
0.000000
 11
3.470270
 21
-3.023806
 31
0.000000
  0
LINE
  8
DIM
 62
     7
  6
CONTINUOUS
 10
3.470270
 20
-3.023806
 30
0.000000
 11
3.720270
 21
-3.023806
 31
0.000000
  0
TEXT
  8
DIM
 62
     7
 10
3.782770
 20
-3.086306
 30
0.000000
 40
0.125000
  1
RING RECESS 
  0
TEXT
  8
DIM
 62
     7
 10
3.782770
 20
-3.273806
 30
0.000000
 40
0.125000
  1
AS PER STD.
  0
TEXT
  8
DIM
 62
     7
 10
3.782770
 20
-3.461306
 30
0.000000
 40
0.125000
  1
MOTOR RING
  0
TEXT
  8
DIM
 62
     7
 10
3.782770
 20
-3.648806
 30
0.000000
 40
0.125000
  1
DRAWING
  0
INSERT
  8
Default
 62
     7
  2
Object_0
 10
-10.160000
 20
-10.160000
 30
0.000000
  0
LINE
  8
CAM
 62
     9
  6
CONTINUOUS
 10
-3.388747
 20
-6.764675
 30
0.000000
 11
-8.017509
 21
-2.107544
 31
0.000000
  0
ARC
  8
CAM
 62
     9
  6
CONTINUOUS
 10
-2.665298
 20
-6.045633
 30
0.000000
 40
1.020000
 50
224.824959
 51
272.946367
  0
LINE
  8
CAM
 62
     9
  6
CONTINUOUS
 10
3.252693
 20
-6.762389
 30
0.000000
 11
-2.612869
 21
-7.064285
 31
0.000000
  0
ARC
  8
CAM
 62
     9
  6
CONTINUOUS
 10
3.200246
 20
-5.743381
 30
0.000000
 40
1.020357
 50
272.946367
 51
317.851210
  0
LINE
  8
CAM
 62
     9
  6
CONTINUOUS
 10
6.771571
 20
-3.318196
 30
0.000000
 11
3.956743
 21
-6.428100
 31
0.000000
  0
ARC
  8
CAM
 62
     9
  6
CONTINUOUS
 10
6.023868
 20
-2.641438
 30
0.000000
 40
1.008494
 50
317.851210
 51
358.455260
  0
LINE
  8
CAM
 62
     9
  6
CONTINUOUS
 10
7.106602
 20
0.097923
 30
0.000000
 11
7.031996
 21
-2.668624
 31
0.000000
  0
ARC
  8
CAM
 62
     9
  6
CONTINUOUS
 10
6.599287
 20
0.111604
 30
0.000000
 40
0.507500
 50
358.455260
 51
364.314431
  0
LINE
  8
CAM
 62
     9
  6
CONTINUOUS
 10
6.897622
 20
2.903179
 30
0.000000
 11
7.105349
 21
0.149784
 31
0.000000
  0
ARC
  8
CAM
 62
     9
  6
CONTINUOUS
 10
5.924488
 20
2.829762
 30
0.000000
 40
0.975900
 50
4.314431
 51
44.538974
  0
LINE
  8
CAM
 62
     9
  6
CONTINUOUS
 10
3.122773
 20
7.068303
 30
0.000000
 11
6.620084
 21
3.514253
 31
0.000000
  0
ARC
  8
CAM
 62
     9
  6
CONTINUOUS
 10
2.427177
 20
6.383812
 30
0.000000
 40
0.975900
 50
44.538974
 51
88.725756
  0
LINE
  8
CAM
 62
     9
  6
CONTINUOUS
 10
-0.156709
 20
7.417428
 30
0.000000
 11
2.448879
 21
7.359471
 31
0.000000
  0
ARC
  8
CAM
 62
     9
  6
CONTINUOUS
 10
-0.167994
 20
6.910054
 30
0.000000
 40
0.507500
 50
88.725756
 51
92.307360
  0
LINE
  8
CAM
 62
     9
  6
CONTINUOUS
 10
-2.704596
 20
7.315759
 30
0.000000
 11
-0.188427
 21
7.417142
 31
0.000000
  0
ARC
  8
CAM
 62
     9
  6
CONTINUOUS
 10
-2.665305
 20
6.340629
 30
0.000000
 40
0.975921
 50
92.307360
 51
140.539815
  0
LINE
  8
CAM
 62
     9
  6
CONTINUOUS
 10
-8.171849
 20
1.186764
 30
0.000000
 11
-3.418781
 21
6.960868
 31
0.000000
  0
ARC
  8
CAM
 62
     9
  6
CONTINUOUS
 10
-6.274458
 20
-0.375111
 30
0.000000
 40
2.457549
 50
140.539815
 51
224.824959
  0
CIRCLE
  8
CAM
 62
     9
  6
CONTINUOUS
 10
0.000000
 20
0.000000
 30
0.000000
 40
2.492500
  0
LINE
  8
CAM
 62
     9
  6
CONTINUOUS
 10
6.954158
 20
0.102034
 30
0.000000
 11
6.879551
 21
-2.664513
 31
0.000000
  0
ARC
  8
CAM
 62
     9
  6
CONTINUOUS
 10
6.023868
 20
-2.641438
 30
0.000000
 40
0.855994
 50
317.851210
 51
358.455260
  0
LINE
  8
CAM
 62
     9
  6
CONTINUOUS
 10
6.658506
 20
-3.215860
 30
0.000000
 11
3.843679
 21
-6.325763
 31
0.000000
  0
ARC
  8
CAM
 62
     9
  6
CONTINUOUS
 10
3.200246
 20
-5.743381
 30
0.000000
 40
0.867857
 50
272.946367
 51
317.851210
  0
LINE
  8
CAM
 62
     9
  6
CONTINUOUS
 10
3.244855
 20
-6.610091
 30
0.000000
 11
-2.620707
 21
-6.911986
 31
0.000000
  0
ARC
  8
CAM
 62
     9
  6
CONTINUOUS
 10
-2.665298
 20
-6.045633
 30
0.000000
 40
0.867500
 50
224.824959
 51
272.946367
  0
LINE
  8
CAM
 62
     9
  6
CONTINUOUS
 10
-3.280584
 20
-6.657171
 30
0.000000
 11
-7.909346
 21
-2.000040
 31
0.000000
  0
ARC
  8
CAM
 62
     9
  6
CONTINUOUS
 10
-6.274458
 20
-0.375111
 30
0.000000
 40
2.305049
 50
140.539815
 51
224.824959
  0
LINE
  8
CAM
 62
     9
  6
CONTINUOUS
 10
-8.054109
 20
1.089844
 30
0.000000
 11
-3.301041
 21
6.863947
 31
0.000000
  0
ARC
  8
CAM
 62
     9
  6
CONTINUOUS
 10
-2.665305
 20
6.340629
 30
0.000000
 40
0.823421
 50
92.307360
 51
140.539815
  0
LINE
  8
CAM
 62
     9
  6
CONTINUOUS
 10
-2.698456
 20
7.163382
 30
0.000000
 11
-0.182287
 21
7.264766
 31
0.000000
  0
ARC
  8
CAM
 62
     9
  6
CONTINUOUS
 10
-0.167994
 20
6.910054
 30
0.000000
 40
0.355000
 50
88.725756
 51
92.307360
  0
LINE
  8
CAM
 62
     9
  6
CONTINUOUS
 10
-0.160100
 20
7.264966
 30
0.000000
 11
2.445488
 21
7.207009
 31
0.000000
  0
ARC
  8
CAM
 62
     9
  6
CONTINUOUS
 10
2.427177
 20
6.383812
 30
0.000000
 40
0.823400
 50
44.538974
 51
88.725756
  0
LINE
  8
CAM
 62
     9
  6
CONTINUOUS
 10
3.014075
 20
6.961340
 30
0.000000
 11
6.511386
 21
3.407290
 31
0.000000
  0
ARC
  8
CAM
 62
     9
  6
CONTINUOUS
 10
5.924488
 20
2.829762
 30
0.000000
 40
0.823400
 50
4.314431
 51
44.538974
  0
LINE
  8
CAM
 62
     9
  6
CONTINUOUS
 10
6.745555
 20
2.891706
 30
0.000000
 11
6.953281
 21
0.138311
 31
0.000000
  0
ARC
  8
CAM
 62
     9
  6
CONTINUOUS
 10
6.599287
 20
0.111604
 30
0.000000
 40
0.355000
 50
358.455260
 51
364.314431
  0
CIRCLE
  8
CAM
 62
     9
  6
CONTINUOUS
 10
0.000000
 20
0.000000
 30
0.000000
 40
2.645000
  0
LINE
  8
DIM
 62
     7
  6
CONTINUOUS
 10
0.000000
 20
-0.002540
 30
0.000000
 11
0.000000
 21
-7.233714
 31
0.000000
  0
LINE
  8
DIM
 62
     7
  6
CONTINUOUS
 10
-8.222371
 20
-0.468913
 30
0.000000
 11
-8.222371
 21
-7.233714
 31
0.000000
  0
LINE
  8
DIM
 62
     7
  6
CONTINUOUS
 10
0.000000
 20
-7.229904
 30
0.000000
 11
-8.222371
 21
-7.229904
 31
0.000000
  0
LINE
  8
DIM
 62
     7
  6
CONTINUOUS
 10
0.000000
 20
-7.229904
 30
0.000000
 11
-0.025000
 21
-7.242404
 31
0.000000
  0
LINE
  8
DIM
 62
     7
  6
CONTINUOUS
 10
0.000000
 20
-7.229904
 30
0.000000
 11
-0.025000
 21
-7.217404
 31
0.000000
  0
LINE
  8
DIM
 62
     7
  6
CONTINUOUS
 10
-8.222371
 20
-7.229904
 30
0.000000
 11
-8.197371
 21
-7.217404
 31
0.000000
  0
LINE
  8
DIM
 62
     7
  6
CONTINUOUS
 10
-8.222371
 20
-7.229904
 30
0.000000
 11
-8.197371
 21
-7.242404
 31
0.000000
  0
TEXT
  8
DIM
 62
     7
 10
-7.677076
 20
-7.148624
 30
0.000000
 40
0.200000
  1
8.222
 72
     1
 11
-7.367076
 21
-7.148624
 31
0.000000
  0
LINE
  8
DIM
 62
     7
  6
CONTINUOUS
 10
-0.011938
 20
-0.002540
 30
0.000000
 11
-0.011938
 21
-7.233714
 31
0.000000
  0
LINE
  8
DIM
 62
     7
  6
CONTINUOUS
 10
6.599286
 20
0.109064
 30
0.000000
 11
6.599286
 21
-7.233714
 31
0.000000
  0
LINE
  8
DIM
 62
     7
  6
CONTINUOUS
 10
-0.011938
 20
-7.229904
 30
0.000000
 11
6.599286
 21
-7.229904
 31
0.000000
  0
LINE
  8
DIM
 62
     7
  6
CONTINUOUS
 10
-0.011938
 20
-7.229904
 30
0.000000
 11
0.013062
 21
-7.217404
 31
0.000000
  0
LINE
  8
DIM
 62
     7
  6
CONTINUOUS
 10
-0.011938
 20
-7.229904
 30
0.000000
 11
0.013062
 21
-7.242404
 31
0.000000
  0
LINE
  8
DIM
 62
     7
  6
CONTINUOUS
 10
6.599286
 20
-7.229904
 30
0.000000
 11
6.574286
 21
-7.242404
 31
0.000000
  0
LINE
  8
DIM
 62
     7
  6
CONTINUOUS
 10
6.599286
 20
-7.229904
 30
0.000000
 11
6.574286
 21
-7.217404
 31
0.000000
  0
TEXT
  8
DIM
 62
     7
 10
5.521699
 20
-7.148624
 30
0.000000
 40
0.200000
  1
6.611
 72
     1
 11
5.791699
 21
-7.148624
 31
0.000000
  0
LINE
  8
DIM
 62
     7
  6
CONTINUOUS
 10
0.002540
 20
0.000000
 30
0.000000
 11
7.124678
 21
0.000000
 31
0.000000
  0
LINE
  8
DIM
 62
     7
  6
CONTINUOUS
 10
0.002540
 20
6.906317
 30
0.000000
 11
7.124678
 21
6.906317
 31
0.000000
  0
LINE
  8
DIM
 62
     7
  6
CONTINUOUS
 10
7.120868
 20
0.000000
 30
0.000000
 11
7.120868
 21
6.906317
 31
0.000000
  0
LINE
  8
DIM
 62
     7
  6
CONTINUOUS
 10
7.120868
 20
0.000000
 30
0.000000
 11
7.108368
 21
0.025000
 31
0.000000
  0
LINE
  8
DIM
 62
     7
  6
CONTINUOUS
 10
7.120868
 20
0.000000
 30
0.000000
 11
7.133368
 21
0.025000
 31
0.000000
  0
LINE
  8
DIM
 62
     7
  6
CONTINUOUS
 10
7.120868
 20
6.906317
 30
0.000000
 11
7.133368
 21
6.881317
 31
0.000000
  0
LINE
  8
DIM
 62
     7
  6
CONTINUOUS
 10
7.120868
 20
6.906317
 30
0.000000
 11
7.108368
 21
6.881317
 31
0.000000
  0
TEXT
  8
DIM
 62
     7
 10
7.039588
 20
5.552413
 30
0.000000
 40
0.200000
  1
6.906
 50
90.000003
 72
     1
 11
7.039588
 21
5.862413
 31
0.000000
  0
LINE
  8
DIM
 62
     7
  6
CONTINUOUS
 10
0.002540
 20
-0.019161
 30
0.000000
 11
7.124678
 21
-0.019161
 31
0.000000
  0
LINE
  8
DIM
 62
     7
  6
CONTINUOUS
 10
-2.662758
 20
-6.558133
 30
0.000000
 11
7.124678
 21
-6.558133
 31
0.000000
  0
LINE
  8
DIM
 62
     7
  6
CONTINUOUS
 10
7.120868
 20
-0.019161
 30
0.000000
 11
7.120868
 21
-6.558133
 31
0.000000
  0
LINE
  8
DIM
 62
     7
  6
CONTINUOUS
 10
7.120868
 20
-0.019161
 30
0.000000
 11
7.133368
 21
-0.044161
 31
0.000000
  0
LINE
  8
DIM
 62
     7
  6
CONTINUOUS
 10
7.120868
 20
-0.019161
 30
0.000000
 11
7.108368
 21
-0.044161
 31
0.000000
  0
LINE
  8
DIM
 62
     7
  6
CONTINUOUS
 10
7.120868
 20
-6.558133
 30
0.000000
 11
7.108368
 21
-6.533133
 31
0.000000
  0
LINE
  8
DIM
 62
     7
  6
CONTINUOUS
 10
7.120868
 20
-6.558133
 30
0.000000
 11
7.133368
 21
-6.533133
 31
0.000000
  0
TEXT
  8
DIM
 62
     7
 10
7.039588
 20
-6.509797
 30
0.000000
 40
0.200000
  1
6.539
 50
90.000003
 72
     1
 11
7.039588
 21
-6.199797
 31
0.000000
  0
ENDSEC
  0
EOF
