  0
SECTION
  2
HEADER
  9
$ACADVER
  1
AC1006
  0
ENDSEC
  0
SECTION
  2
TABLES
  0
TABLE
  2
LTYPE
 70
    25
  0
LTYPE
  2
CONTINUOUS
 70
    64
  3
Solid line
 72
    64
 73
     0
 40
0.000000
  0
LTYPE
  2
DASHDOT
 70
    64
  3
__ . __ . __ . __ . __ . __ . __ . __ . __ . __
 72
    65
 73
     4
 40
1.000000
 49
0.500000
 49
-0.250000
 49
0.000000
 49
-0.250000
  0
LTYPE
  2
DASHED
 70
    64
  3
__ __ __ __ __ __ __ __ __ __ __ __ __ __ __ __
 72
    65
 73
     2
 40
0.750000
 49
0.500000
 49
-0.250000
  0
LTYPE
  2
DIVIDE
 70
    64
  3
____ . . ____ . . ____ . . ____ . . ____ . . __
 72
    65
 73
     6
 40
1.250000
 49
0.500000
 49
-0.250000
 49
0.000000
 49
-0.250000
 49
0.000000
 49
-0.250000
  0
LTYPE
  2
DOT
 70
    64
  3
. . . . . . . . . . . . . . . . . . . . . . . . 
 72
    65
 73
     2
 40
0.250000
 49
0.000000
 49
-0.250000
  0
ENDTAB
  0
ENDSEC
  0
SECTION
  2
BLOCKS
  0
BLOCK
  8
0
  2
Object_0
 70
    64
 10
0.000000
 20
0.000000
 30
0.000000
  0
ENDBLK
  0
ENDSEC
  0
SECTION
  2
ENTITIES
  0
LINE
  8
Default
 62
     3
  6
CONTINUOUS
 10
-5.264280
 20
3.519513
 30
0.000000
 11
1.338108
 21
2.438390
 31
0.000000
  0
CIRCLE
  8
Default
 62
     9
  6
CONTINUOUS
 10
0.000000
 20
0.000000
 30
-0.125000
 40
4.251000
  0
CIRCLE
  8
Default
 62
     9
  6
CONTINUOUS
 10
0.000000
 20
0.000000
 30
-0.625000
 40
3.000000
  0
CIRCLE
  8
Default
 62
     9
  6
CONTINUOUS
 10
0.000000
 20
3.625000
 30
0.000000
 40
0.265625
  0
CIRCLE
  8
Default
 62
     9
  6
CONTINUOUS
 10
3.625000
 20
0.000000
 30
0.000000
 40
0.265625
  0
CIRCLE
  8
Default
 62
     9
  6
CONTINUOUS
 10
-3.625000
 20
0.000000
 30
0.000000
 40
0.265625
  0
CIRCLE
  8
Default
 62
     9
  6
CONTINUOUS
 10
-0.000000
 20
-3.625000
 30
0.000000
 40
0.265625
  0
CIRCLE
  8
Default
 62
     3
  6
CONTINUOUS
 10
-6.107000
 20
-1.626947
 30
0.000000
 40
0.025600
  0
ARC
  8
Default
 62
     7
  6
CONTINUOUS
 10
0.000000
 20
0.000000
 30
0.000000
 40
6.350000
 50
296.329286
 51
313.538883
  0
POINT
  8
Default
 62
     7
 10
0.000000
 20
-1.629000
 30
0.000000
  0
POINT
  8
Default
 62
     7
 10
-6.107000
 20
-1.626947
 30
0.000000
  0
POINT
  8
Default
 62
     7
 10
6.073000
 20
-1.630220
 30
0.000000
  0
LINE
  8
Default
 62
     8
  6
CONTINUOUS
 10
0.000000
 20
0.000000
 30
0.000000
 11
6.073000
 21
-1.630220
 31
0.000000
  0
LINE
  8
Default
 62
     8
  6
CONTINUOUS
 10
0.000000
 20
-1.629000
 30
0.000000
 11
6.073000
 21
-1.630220
 31
0.000000
  0
LINE
  8
Default
 62
     8
  6
CONTINUOUS
 10
0.000000
 20
-1.629000
 30
0.000000
 11
-6.107000
 21
-1.626947
 31
0.000000
  0
LINE
  8
Default
 62
     8
  6
CONTINUOUS
 10
0.000000
 20
0.000000
 30
0.000000
 11
-6.107000
 21
-1.626947
 31
0.000000
  0
LINE
  8
Default
 62
     7
  6
CONTINUOUS
 10
0.002107
 20
0.007850
 30
0.000000
 11
0.392049
 21
1.460486
 31
0.000000
  0
LINE
  8
Default
 62
     7
  6
CONTINUOUS
 10
6.075107
 20
-1.622370
 30
0.000000
 11
6.465049
 21
-0.169732
 31
0.000000
  0
LINE
  8
Default
 62
     7
  6
CONTINUOUS
 10
0.388888
 20
1.448711
 30
0.000000
 11
6.461888
 21
-0.181507
 31
0.000000
  0
LINE
  8
Default
 62
     7
  6
CONTINUOUS
 10
0.388888
 20
1.448711
 30
0.000000
 11
0.469264
 21
1.439560
 31
0.000000
  0
LINE
  8
Default
 62
     7
  6
CONTINUOUS
 10
0.388888
 20
1.448711
 30
0.000000
 11
0.463041
 21
1.416381
 31
0.000000
  0
LINE
  8
Default
 62
     7
  6
CONTINUOUS
 10
6.461888
 20
-0.181507
 30
0.000000
 11
6.381512
 21
-0.172356
 31
0.000000
  0
LINE
  8
Default
 62
     7
  6
CONTINUOUS
 10
6.461888
 20
-0.181507
 30
0.000000
 11
6.387734
 21
-0.149177
 31
0.000000
  0
TEXT
  8
Default
 62
     7
 10
2.713472
 20
1.035100
 30
0.000000
 40
0.500000
  1
6.288
 50
-15.026078
 72
     1
 11
3.478069
 21
0.829854
 31
0.000000
  0
LINE
  8
Default
 62
     7
  6
CONTINUOUS
 10
-6.109092
 20
-1.619093
 30
0.000000
 11
-6.496281
 21
-0.165719
 31
0.000000
  0
LINE
  8
Default
 62
     7
  6
CONTINUOUS
 10
-0.002092
 20
0.007854
 30
0.000000
 11
-0.389281
 21
1.461227
 31
0.000000
  0
LINE
  8
Default
 62
     7
  6
CONTINUOUS
 10
-6.493142
 20
-0.177500
 30
0.000000
 11
-0.386142
 21
1.449446
 31
0.000000
  0
LINE
  8
Default
 62
     7
  6
CONTINUOUS
 10
-6.493142
 20
-0.177500
 30
0.000000
 11
-6.418927
 21
-0.145311
 31
0.000000
  0
LINE
  8
Default
 62
     7
  6
CONTINUOUS
 10
-6.493142
 20
-0.177500
 30
0.000000
 11
-6.412749
 21
-0.168502
 31
0.000000
  0
LINE
  8
Default
 62
     7
  6
CONTINUOUS
 10
-0.386142
 20
1.449446
 30
0.000000
 11
-0.460357
 21
1.417256
 31
0.000000
  0
LINE
  8
Default
 62
     7
  6
CONTINUOUS
 10
-0.386142
 20
1.449446
 30
0.000000
 11
-0.466535
 21
1.440448
 31
0.000000
  0
TEXT
  8
Default
 62
     7
 10
-4.256937
 20
0.628527
 30
0.000000
 40
0.500000
  1
6.320
 50
14.917519
 72
     1
 11
-3.491952
 21
0.832324
 31
0.000000
  0
LINE
  8
Default
 62
     7
  6
CONTINUOUS
 10
-0.000003
 20
-1.637128
 30
0.000000
 11
-0.000509
 21
-3.141192
 31
0.000000
  0
LINE
  8
Default
 62
     7
  6
CONTINUOUS
 10
-6.107003
 20
-1.635075
 30
0.000000
 11
-6.107508
 21
-3.139138
 31
0.000000
  0
LINE
  8
Default
 62
     7
  6
CONTINUOUS
 10
-0.000504
 20
-3.129000
 30
0.000000
 11
-6.107504
 21
-3.126946
 31
0.000000
  0
LINE
  8
Default
 62
     7
  6
CONTINUOUS
 10
-0.000504
 20
-3.129000
 30
0.000000
 11
-0.080509
 21
-3.140973
 31
0.000000
  0
LINE
  8
Default
 62
     7
  6
CONTINUOUS
 10
-0.000504
 20
-3.129000
 30
0.000000
 11
-0.080500
 21
-3.116973
 31
0.000000
  0
LINE
  8
Default
 62
     7
  6
CONTINUOUS
 10
-6.107504
 20
-3.126946
 30
0.000000
 11
-6.027500
 21
-3.114973
 31
0.000000
  0
LINE
  8
Default
 62
     7
  6
CONTINUOUS
 10
-6.107504
 20
-3.126946
 30
0.000000
 11
-6.027508
 21
-3.138973
 31
0.000000
  0
TEXT
  8
Default
 62
     7
 10
-3.845602
 20
-2.924507
 30
0.000000
 40
0.500000
  1
6.107
 50
-0.019270
 72
     1
 11
-3.053936
 21
-2.924773
 31
0.000000
  0
LINE
  8
Default
 62
     7
  6
CONTINUOUS
 10
6.072998
 20
-1.638348
 30
0.000000
 11
6.072696
 21
-3.142412
 31
0.000000
  0
LINE
  8
Default
 62
     7
  6
CONTINUOUS
 10
-0.000002
 20
-1.637128
 30
0.000000
 11
-0.000304
 21
-3.141192
 31
0.000000
  0
LINE
  8
Default
 62
     7
  6
CONTINUOUS
 10
6.072698
 20
-3.130220
 30
0.000000
 11
-0.000301
 21
-3.129000
 31
0.000000
  0
LINE
  8
Default
 62
     7
  6
CONTINUOUS
 10
6.072698
 20
-3.130220
 30
0.000000
 11
5.992696
 21
-3.142204
 31
0.000000
  0
LINE
  8
Default
 62
     7
  6
CONTINUOUS
 10
6.072698
 20
-3.130220
 30
0.000000
 11
5.992701
 21
-3.118204
 31
0.000000
  0
LINE
  8
Default
 62
     7
  6
CONTINUOUS
 10
-0.000301
 20
-3.129000
 30
0.000000
 11
0.079701
 21
-3.117016
 31
0.000000
  0
LINE
  8
Default
 62
     7
  6
CONTINUOUS
 10
-0.000301
 20
-3.129000
 30
0.000000
 11
0.079696
 21
-3.141016
 31
0.000000
  0
TEXT
  8
Default
 62
     7
 10
2.244573
 20
-2.926251
 30
0.000000
 40
0.500000
  1
6.073
 50
-0.011511
 72
     1
 11
3.036240
 21
-2.926410
 31
0.000000
  0
CIRCLE
  8
Default
 62
     6
  6
CONTINUOUS
 10
6.073118
 20
1.629780
 30
0.000000
 40
0.203150
  0
CIRCLE
  8
Default
 62
     6
  6
CONTINUOUS
 10
2.962994
 20
6.106065
 30
0.000000
 40
0.203150
  0
ARC
  8
Default
 62
     7
  6
CONTINUOUS
 10
0.000000
 20
7.000000
 30
0.000000
 40
13.000000
 50
257.487827
 51
282.512173
  0
ARC
  8
Default
 62
     7
  6
CONTINUOUS
 10
-0.000000
 20
-0.000000
 30
0.000000
 40
6.350000
 50
223.158181
 51
243.670714
  0
ARC
  8
Default
 62
     7
  6
CONTINUOUS
 10
-4.905673
 20
-4.600000
 30
-0.000000
 40
0.375000
 50
43.158181
 51
90.000000
  0
LINE
  8
Default
 62
     7
  6
CONTINUOUS
 10
-4.905673
 20
-4.225000
 30
-0.000000
 11
-5.010000
 21
-4.225000
 31
-0.000000
  0
ARC
  8
Default
 62
     7
  6
CONTINUOUS
 10
-5.010000
 20
-4.100000
 30
-0.000000
 40
0.125000
 50
180.000000
 51
270.000000
  0
LINE
  8
Default
 62
     7
  6
CONTINUOUS
 10
-5.135000
 20
-3.391283
 30
0.000000
 11
-5.135000
 21
-4.100000
 31
-0.000000
  0
ARC
  8
Default
 62
     7
  6
CONTINUOUS
 10
-5.510000
 20
-3.391283
 30
0.000000
 40
0.375000
 50
360.000000
 51
391.611377
  0
ARC
  8
Default
 62
     7
  6
CONTINUOUS
 10
0.000000
 20
0.000000
 30
0.000000
 40
6.095000
 50
203.458011
 51
211.611377
  0
POINT
  8
Default
 62
     7
 10
0.000000
 20
0.000000
 30
0.000000
  0
ARC
  8
Default
 62
     7
  6
CONTINUOUS
 10
-6.049937
 20
-2.625317
 30
0.000000
 40
0.500000
 50
23.458011
 51
93.271240
  0
ARC
  8
Default
 62
     7
  6
CONTINUOUS
 10
-6.107000
 20
-1.626947
 30
0.000000
 40
0.500000
 50
133.153829
 51
273.271240
  0
ARC
  8
Default
 62
     7
  6
CONTINUOUS
 10
-6.790959
 20
-0.897427
 30
-0.000000
 40
0.500000
 50
313.153829
 51
367.528028
  0
ARC
  8
Default
 62
     7
  6
CONTINUOUS
 10
-0.000000
 20
-0.000000
 30
0.000000
 40
6.350000
 50
163.474328
 51
187.528028
  0
ARC
  8
Default
 62
     7
  6
CONTINUOUS
 10
-6.447206
 20
1.912892
 30
0.000000
 40
0.375000
 50
343.474328
 51
405.292087
  0
ARC
  8
Default
 62
     7
  6
CONTINUOUS
 10
-5.919587
 20
2.445919
 30
0.000000
 40
0.375000
 50
157.550035
 51
225.292087
  0
ARC
  8
Default
 62
     7
  6
CONTINUOUS
 10
-0.000000
 20
-0.000000
 30
0.000000
 40
6.780000
 50
143.265081
 51
157.550035
  0
ARC
  8
Default
 62
     7
  6
CONTINUOUS
 10
-5.133039
 20
3.830918
 30
0.000000
 40
0.375000
 50
75.523029
 51
143.265081
  0
ARC
  8
Default
 62
     7
  6
CONTINUOUS
 10
-4.945546
 20
4.557104
 30
0.000000
 40
0.375000
 50
255.523029
 51
317.340788
  0
ARC
  8
Default
 62
     7
  6
CONTINUOUS
 10
-0.000000
 20
-0.000000
 30
0.000000
 40
6.350000
 50
118.944722
 51
137.340788
  0
ARC
  8
Default
 62
     7
  6
CONTINUOUS
 10
-3.315164
 20
5.994346
 30
-0.000000
 40
0.500000
 50
298.944722
 51
360.000000
  0
LINE
  8
Default
 62
     7
  6
CONTINUOUS
 10
-2.815164
 20
5.994346
 30
-0.000000
 11
-2.815164
 21
6.390000
 31
0.000000
  0
ARC
  8
Default
 62
     7
  6
CONTINUOUS
 10
-2.315164
 20
6.390000
 30
0.000000
 40
0.500000
 50
90.000000
 51
180.000000
  0
LINE
  8
Default
 62
     7
  6
CONTINUOUS
 10
1.965992
 20
6.890000
 30
0.000000
 11
-2.315164
 21
6.890000
 31
0.000000
  0
LINE
  8
Default
 62
     7
  6
CONTINUOUS
 10
1.965992
 20
6.890000
 30
0.000000
 11
3.235178
 21
6.547756
 31
0.000000
  0
ARC
  8
Default
 62
     7
  6
CONTINUOUS
 10
3.105000
 20
6.065000
 30
0.000000
 40
0.500000
 50
0.000000
 51
74.908794
  0
LINE
  8
Default
 62
     7
  6
CONTINUOUS
 10
3.605000
 20
5.903141
 30
0.000000
 11
3.605000
 21
6.065000
 31
0.000000
  0
ARC
  8
Default
 62
     7
  6
CONTINUOUS
 10
4.105000
 20
5.903141
 30
0.000000
 40
0.500000
 50
180.000000
 51
257.757208
  0
LINE
  8
Default
 62
     7
  6
CONTINUOUS
 10
5.642301
 20
5.057927
 30
0.000000
 11
3.998973
 21
5.414512
 31
0.000000
  0
ARC
  8
Default
 62
     7
  6
CONTINUOUS
 10
5.250000
 20
3.250000
 30
0.000000
 40
1.850000
 50
343.027631
 51
437.757208
  0
LINE
  8
Default
 62
     7
  6
CONTINUOUS
 10
7.019424
 20
2.709966
 30
0.000000
 11
6.333203
 21
0.461560
 31
0.000000
  0
ARC
  8
Default
 62
     7
  6
CONTINUOUS
 10
-0.000000
 20
-0.000000
 30
0.000000
 40
6.350000
 50
352.199719
 51
364.168309
  0
ARC
  8
Default
 62
     7
  6
CONTINUOUS
 10
6.786618
 20
-0.929685
 30
0.000000
 40
0.500000
 50
172.199719
 51
224.469925
  0
ARC
  8
Default
 62
     7
  6
CONTINUOUS
 10
6.073000
 20
-1.630220
 30
0.000000
 40
0.500000
 50
264.595499
 51
404.469925
  0
ARC
  8
Default
 62
     7
  6
CONTINUOUS
 10
5.978813
 20
-2.625774
 30
0.000000
 40
0.500000
 50
84.595499
 51
156.289887
  0
ARC
  8
Default
 62
     7
  6
CONTINUOUS
 10
-0.000000
 20
-0.000000
 30
0.000000
 40
6.030000
 50
325.398756
 51
336.289887
  0
ARC
  8
Default
 62
     7
  6
CONTINUOUS
 10
5.375000
 20
-3.708136
 30
0.000000
 40
0.500000
 50
145.398756
 51
180.000000
  0
LINE
  8
Default
 62
     3
  6
CONTINUOUS
 10
1.338108
 20
2.438390
 30
0.000000
 11
-5.130000
 21
3.670000
 31
0.000000
  0
LINE
  8
Default
 62
     7
  6
CONTINUOUS
 10
1.346486
 20
2.436794
 30
0.000000
 11
2.054425
 21
2.301993
 31
0.000000
  0
LINE
  8
Default
 62
     7
  6
CONTINUOUS
 10
1.346524
 20
2.437011
 30
0.000000
 11
2.057712
 21
2.320556
 31
0.000000
  0
ARC
  8
Default
 62
     7
  6
CONTINUOUS
 10
1.338108
 20
2.438389
 30
0.000000
 40
0.716995
 50
349.219207
 51
496.705831
  0
LINE
  8
Default
 62
     7
  6
CONTINUOUS
 10
2.042448
 20
2.304274
 30
0.000000
 11
2.045624
 21
2.385107
 31
0.000000
  0
LINE
  8
Default
 62
     7
  6
CONTINUOUS
 10
2.042448
 20
2.304274
 30
0.000000
 11
2.069201
 21
2.380617
 31
0.000000
  0
LINE
  8
Default
 62
     7
  6
CONTINUOUS
 10
2.045680
 20
2.322526
 30
0.000000
 11
2.044595
 21
2.241639
 31
0.000000
  0
LINE
  8
Default
 62
     7
  6
CONTINUOUS
 10
2.045680
 20
2.322526
 30
0.000000
 11
2.020910
 21
2.245517
 31
0.000000
  0
TEXT
  8
Default
 62
     7
 10
0.761397
 20
3.344367
 30
0.000000
 40
0.500000
  1
1.48%%d
 50
1.441087
 72
     1
 11
1.518102
 21
3.363404
 31
0.000000
  0
LINE
  8
Default
 62
     7
  6
CONTINUOUS
 10
4.875000
 20
-3.708136
 30
0.000000
 11
4.875000
 21
-4.375000
 31
0.000000
  0
ARC
  8
Default
 62
     7
  6
CONTINUOUS
 10
4.750000
 20
-4.375000
 30
0.000000
 40
0.125000
 50
270.000000
 51
360.000000
  0
LINE
  8
Default
 62
     7
  6
CONTINUOUS
 10
4.750000
 20
-4.500000
 30
0.000000
 11
4.632494
 21
-4.500000
 31
0.000000
  0
ARC
  8
Default
 62
     3
  6
CONTINUOUS
 10
-6.107000
 20
-1.626947
 30
0.000000
 40
8.827000
 50
22.500000
 51
157.500000
  0
ARC
  8
Default
 62
     3
  6
CONTINUOUS
 10
0.000000
 20
0.000000
 30
0.000000
 40
6.660000
 50
90.000000
 51
135.000000
  0
ARC
  8
Default
 62
     3
  6
CONTINUOUS
 10
0.000000
 20
0.000000
 30
0.000000
 40
6.306000
 50
112.500000
 51
157.500000
  0
ARC
  8
Default
 62
     3
  6
CONTINUOUS
 10
-6.107000
 20
-1.626947
 30
0.000000
 40
5.225000
 50
22.500000
 51
157.500000
  0
ARC
  8
Default
 62
     3
  6
CONTINUOUS
 10
6.073000
 20
-1.630220
 30
0.000000
 40
8.338000
 50
22.500000
 51
157.500000
  0
ARC
  8
Default
 62
     3
  6
CONTINUOUS
 10
0.000000
 20
0.000000
 30
0.000000
 40
6.787000
 50
22.500000
 51
67.500000
  0
ARC
  8
Default
 62
     3
  6
CONTINUOUS
 10
0.000000
 20
0.000000
 30
0.000000
 40
6.288000
 50
337.500000
 51
405.000000
  0
ARC
  8
Default
 62
     3
  6
CONTINUOUS
 10
6.073000
 20
-1.630220
 30
0.000000
 40
3.260000
 50
22.500000
 51
157.500000
  0
POINT
  8
Default
 62
     7
 10
6.073118
 20
1.629780
 30
0.000000
  0
POINT
  8
Default
 62
     7
 10
2.962994
 20
6.106065
 30
0.000000
  0
POINT
  8
Default
 62
     7
 10
-2.197432
 20
6.287042
 30
0.000000
  0
POINT
  8
Default
 62
     7
 10
-5.229543
 20
3.523849
 30
0.000000
  0
CIRCLE
  8
Default
 62
     6
  6
CONTINUOUS
 10
-2.197432
 20
6.287042
 30
0.000000
 40
0.203150
  0
CIRCLE
  8
Default
 62
     6
  6
CONTINUOUS
 10
-5.229543
 20
3.523849
 30
0.000000
 40
0.203150
  0
CIRCLE
  8
Default
 62
     6
  6
CONTINUOUS
 10
-6.107000
 20
-1.626947
 30
0.000000
 40
0.275600
  0
CIRCLE
  8
Default
 62
     6
  6
CONTINUOUS
 10
6.073000
 20
-1.630220
 30
0.000000
 40
0.275600
  0
INSERT
  8
Default
 62
     7
  2
Object_0
 10
-10.160000
 20
-10.160000
 30
0.000000
  0
CIRCLE
  8
Default
 62
     3
  6
CONTINUOUS
 10
6.073000
 20
-1.630220
 30
0.000000
 40
0.025600
  0
ARC
  8
Default
 62
     7
  6
CONTINUOUS
 10
4.632494
 20
-4.875000
 30
0.000000
 40
0.375000
 50
90.000000
 51
133.538883
  0
ARC
  8
CAM
 62
     3
  6
CONTINUOUS
 10
0.000000
 20
0.000000
 30
0.000000
 40
6.725000
 50
296.329286
 51
313.538883
  0
ARC
  8
CAM
 62
     3
  6
CONTINUOUS
 10
2.816411
 20
-5.691250
 30
0.000000
 40
0.375000
 50
282.512173
 51
296.329286
  0
LINE
  8
CAM
 62
     3
  6
CONTINUOUS
 10
2.529922
 20
-7.930630
 30
0.000000
 11
2.419040
 21
-7.706565
 31
0.000000
  0
ARC
  8
CAM
 62
     3
  6
CONTINUOUS
 10
3.539364
 20
-7.152154
 30
0.000000
 40
1.250000
 50
116.329286
 51
206.329286
  0
ARC
  8
CAM
 62
     3
  6
CONTINUOUS
 10
0.000000
 20
0.000000
 30
0.000000
 40
6.730000
 50
296.329286
 51
313.521881
  0
LINE
  8
CAM
 62
     3
  6
CONTINUOUS
 10
4.634490
 20
-4.880000
 30
0.000000
 11
4.750000
 21
-4.880000
 31
0.000000
  0
ARC
  8
CAM
 62
     3
  6
CONTINUOUS
 10
4.750000
 20
-4.375000
 30
0.000000
 40
0.505000
 50
270.000000
 51
360.000000
  0
LINE
  8
CAM
 62
     3
  6
CONTINUOUS
 10
5.255000
 20
-4.375000
 30
0.000000
 11
5.255000
 21
-3.708136
 31
0.000000
  0
ARC
  8
CAM
 62
     3
  6
CONTINUOUS
 10
5.375000
 20
-3.708136
 30
0.000000
 40
0.120000
 50
145.398756
 51
180.000000
  0
ARC
  8
CAM
 62
     3
  6
CONTINUOUS
 10
-0.000000
 20
-0.000000
 30
0.000000
 40
6.410000
 50
325.398756
 51
336.289887
  0
ARC
  8
CAM
 62
     3
  6
CONTINUOUS
 10
5.978813
 20
-2.625774
 30
0.000000
 40
0.120000
 50
84.595499
 51
156.289887
  0
ARC
  8
CAM
 62
     3
  6
CONTINUOUS
 10
6.073000
 20
-1.630220
 30
0.000000
 40
0.880000
 50
264.595499
 51
404.469925
  0
ARC
  8
CAM
 62
     3
  6
CONTINUOUS
 10
6.786618
 20
-0.929685
 30
0.000000
 40
0.120000
 50
172.199719
 51
224.469925
  0
ARC
  8
CAM
 62
     3
  6
CONTINUOUS
 10
-0.000000
 20
-0.000000
 30
0.000000
 40
6.730000
 50
352.199719
 51
363.556135
  0
LINE
  8
CAM
 62
     3
  6
CONTINUOUS
 10
6.717041
 20
0.417438
 30
0.000000
 11
7.382874
 21
2.599040
 31
0.000000
  0
ARC
  8
CAM
 62
     3
  6
CONTINUOUS
 10
5.250000
 20
3.250000
 30
0.000000
 40
2.230000
 50
343.027631
 51
437.757208
  0
LINE
  8
CAM
 62
     3
  6
CONTINUOUS
 10
5.722882
 20
5.429285
 30
-0.000000
 11
4.079553
 21
5.785870
 31
-0.000000
  0
ARC
  8
CAM
 62
     3
  6
CONTINUOUS
 10
4.105000
 20
5.903141
 30
0.000000
 40
0.120000
 50
180.000000
 51
257.757208
  0
LINE
  8
CAM
 62
     3
  6
CONTINUOUS
 10
3.985000
 20
5.903141
 30
0.000000
 11
3.985000
 21
6.065000
 31
0.000000
  0
ARC
  8
CAM
 62
     3
  6
CONTINUOUS
 10
3.105000
 20
6.065000
 30
0.000000
 40
0.880000
 50
0.000000
 51
74.908794
  0
LINE
  8
CAM
 62
     3
  6
CONTINUOUS
 10
3.334114
 20
6.914651
 30
-0.000000
 11
2.064928
 21
7.256895
 31
-0.000000
  0
ARC
  8
CAM
 62
     3
  6
CONTINUOUS
 10
1.965992
 20
6.890000
 30
0.000000
 40
0.380000
 50
74.908794
 51
90.000000
  0
LINE
  8
CAM
 62
     3
  6
CONTINUOUS
 10
1.965992
 20
7.270000
 30
-0.000000
 11
-2.315164
 21
7.270000
 31
-0.000000
  0
ARC
  8
CAM
 62
     3
  6
CONTINUOUS
 10
-2.315164
 20
6.390000
 30
0.000000
 40
0.880000
 50
90.000000
 51
180.000000
  0
LINE
  8
CAM
 62
     3
  6
CONTINUOUS
 10
-3.195164
 20
6.390000
 30
0.000000
 11
-3.195164
 21
5.994346
 31
-0.000000
  0
ARC
  8
CAM
 62
     3
  6
CONTINUOUS
 10
-3.315164
 20
5.994346
 30
-0.000000
 40
0.120000
 50
298.944722
 51
360.000000
  0
ARC
  8
CAM
 62
     3
  6
CONTINUOUS
 10
-0.000000
 20
-0.000000
 30
0.000000
 40
6.730000
 50
118.944722
 51
137.315358
  0
ARC
  8
CAM
 62
     3
  6
CONTINUOUS
 10
-5.133039
 20
3.830918
 30
0.000000
 40
0.755000
 50
75.750385
 51
143.265081
  0
ARC
  8
CAM
 62
     3
  6
CONTINUOUS
 10
-0.000000
 20
-0.000000
 30
0.000000
 40
7.160000
 50
143.265081
 51
157.550035
  0
ARC
  8
CAM
 62
     3
  6
CONTINUOUS
 10
-5.919587
 20
2.445919
 30
0.000000
 40
0.755000
 50
157.550035
 51
225.064731
  0
ARC
  8
CAM
 62
     3
  6
CONTINUOUS
 10
-0.000000
 20
-0.000000
 30
0.000000
 40
6.730000
 50
163.499758
 51
187.528028
  0
ARC
  8
CAM
 62
     3
  6
CONTINUOUS
 10
-6.790959
 20
-0.897427
 30
-0.000000
 40
0.120000
 50
313.153829
 51
367.528028
  0
ARC
  8
CAM
 62
     3
  6
CONTINUOUS
 10
-6.107000
 20
-1.626947
 30
0.000000
 40
0.880000
 50
133.153829
 51
273.271240
  0
ARC
  8
CAM
 62
     3
  6
CONTINUOUS
 10
-6.049937
 20
-2.625317
 30
0.000000
 40
0.120000
 50
23.458011
 51
93.271240
  0
ARC
  8
CAM
 62
     3
  6
CONTINUOUS
 10
0.000000
 20
0.000000
 30
0.000000
 40
6.475000
 50
203.458011
 51
211.598850
  0
LINE
  8
CAM
 62
     3
  6
CONTINUOUS
 10
-5.515000
 20
-3.392698
 30
0.000000
 11
-5.515000
 21
-4.100000
 31
-0.000000
  0
ARC
  8
CAM
 62
     3
  6
CONTINUOUS
 10
-5.010000
 20
-4.100000
 30
-0.000000
 40
0.505000
 50
180.000000
 51
270.000000
  0
LINE
  8
CAM
 62
     3
  6
CONTINUOUS
 10
-5.010000
 20
-4.605000
 30
-0.000000
 11
-4.907838
 21
-4.605000
 31
-0.000000
  0
ARC
  8
CAM
 62
     3
  6
CONTINUOUS
 10
-0.000000
 20
-0.000000
 30
0.000000
 40
6.730000
 50
223.176623
 51
243.670714
  0
ARC
  8
CAM
 62
     3
  6
CONTINUOUS
 10
-2.816411
 20
-5.691250
 30
0.000000
 40
0.380000
 50
243.670714
 51
257.487827
  0
ARC
  8
CAM
 62
     3
  6
CONTINUOUS
 10
0.000000
 20
7.000000
 30
0.000000
 40
13.380000
 50
257.487827
 51
282.512173
  0
ARC
  8
CAM
 62
     3
  6
CONTINUOUS
 10
2.816411
 20
-5.691250
 30
0.000000
 40
0.380000
 50
282.512173
 51
296.329286
  0
ARC
  8
CAM
 62
     3
  6
CONTINUOUS
 10
3.539364
 20
-7.152154
 30
0.000000
 40
1.250000
 50
26.329286
 51
116.329286
  0
LINE
  8
Default
 62
     3
  6
CONTINUOUS
 10
4.659689
 20
-6.597742
 30
-0.000000
 11
4.770571
 21
-6.821807
 31
-0.000000
  0
ARC
  8
CAM
 62
     3
  6
CONTINUOUS
 10
0.000000
 20
7.000000
 30
0.000000
 40
13.375000
 50
257.487827
 51
282.512173
  0
ARC
  8
CAM
 62
     3
  6
CONTINUOUS
 10
-2.816411
 20
-5.691250
 30
0.000000
 40
0.375000
 50
243.670714
 51
257.487827
  0
ARC
  8
CAM
 62
     3
  6
CONTINUOUS
 10
-0.000000
 20
-0.000000
 30
0.000000
 40
6.725000
 50
223.158181
 51
243.670714
  0
LINE
  8
CAM
 62
     3
  6
CONTINUOUS
 10
-4.905673
 20
-4.600000
 30
-0.000000
 11
-5.010000
 21
-4.600000
 31
-0.000000
  0
ARC
  8
CAM
 62
     3
  6
CONTINUOUS
 10
-5.010000
 20
-4.100000
 30
-0.000000
 40
0.500000
 50
180.000000
 51
270.000000
  0
LINE
  8
CAM
 62
     3
  6
CONTINUOUS
 10
-5.510000
 20
-4.100000
 30
-0.000000
 11
-5.510000
 21
-3.391283
 31
0.000000
  0
ARC
  8
CAM
 62
     3
  6
CONTINUOUS
 10
0.000000
 20
0.000000
 30
0.000000
 40
6.470000
 50
203.458011
 51
211.611377
  0
ARC
  8
CAM
 62
     3
  6
CONTINUOUS
 10
-6.049937
 20
-2.625317
 30
0.000000
 40
0.125000
 50
23.458011
 51
93.271240
  0
ARC
  8
CAM
 62
     3
  6
CONTINUOUS
 10
-6.107000
 20
-1.626947
 30
0.000000
 40
0.875000
 50
133.153829
 51
273.271240
  0
ARC
  8
CAM
 62
     3
  6
CONTINUOUS
 10
-6.790959
 20
-0.897427
 30
-0.000000
 40
0.125000
 50
313.153829
 51
367.528028
  0
ARC
  8
CAM
 62
     3
  6
CONTINUOUS
 10
-0.000000
 20
-0.000000
 30
0.000000
 40
6.725000
 50
163.474328
 51
187.528028
  0
ARC
  8
CAM
 62
     3
  6
CONTINUOUS
 10
-5.919587
 20
2.445919
 30
0.000000
 40
0.750000
 50
157.550035
 51
225.292087
  0
ARC
  8
CAM
 62
     3
  6
CONTINUOUS
 10
-0.000000
 20
-0.000000
 30
0.000000
 40
7.155000
 50
143.265081
 51
157.550035
  0
ARC
  8
CAM
 62
     3
  6
CONTINUOUS
 10
-5.133039
 20
3.830918
 30
0.000000
 40
0.750000
 50
75.523029
 51
143.265081
  0
ARC
  8
CAM
 62
     3
  6
CONTINUOUS
 10
-0.000000
 20
-0.000000
 30
0.000000
 40
6.725000
 50
118.944722
 51
137.340788
  0
ARC
  8
CAM
 62
     3
  6
CONTINUOUS
 10
-3.315164
 20
5.994346
 30
-0.000000
 40
0.125000
 50
298.944722
 51
360.000000
  0
LINE
  8
CAM
 62
     3
  6
CONTINUOUS
 10
-3.190164
 20
5.994346
 30
-0.000000
 11
-3.190164
 21
6.390000
 31
0.000000
  0
ARC
  8
CAM
 62
     3
  6
CONTINUOUS
 10
-2.315164
 20
6.390000
 30
0.000000
 40
0.875000
 50
90.000000
 51
180.000000
  0
LINE
  8
CAM
 62
     3
  6
CONTINUOUS
 10
-2.315164
 20
7.265000
 30
0.000000
 11
1.965992
 21
7.265000
 31
0.000000
  0
ARC
  8
CAM
 62
     3
  6
CONTINUOUS
 10
1.965992
 20
6.890000
 30
0.000000
 40
0.375000
 50
74.908794
 51
90.000000
  0
LINE
  8
CAM
 62
     3
  6
CONTINUOUS
 10
2.063626
 20
7.252067
 30
0.000000
 11
3.332812
 21
6.909824
 31
0.000000
  0
ARC
  8
CAM
 62
     3
  6
CONTINUOUS
 10
3.105000
 20
6.065000
 30
0.000000
 40
0.875000
 50
0.000000
 51
74.908794
  0
LINE
  8
CAM
 62
     3
  6
CONTINUOUS
 10
3.980000
 20
6.065000
 30
0.000000
 11
3.980000
 21
5.903141
 31
0.000000
  0
ARC
  8
CAM
 62
     3
  6
CONTINUOUS
 10
4.105000
 20
5.903141
 30
0.000000
 40
0.125000
 50
180.000000
 51
257.757208
  0
LINE
  8
CAM
 62
     3
  6
CONTINUOUS
 10
4.078493
 20
5.780984
 30
0.000000
 11
5.721822
 21
5.424399
 31
0.000000
  0
ARC
  8
CAM
 62
     3
  6
CONTINUOUS
 10
5.250000
 20
3.250000
 30
0.000000
 40
2.225000
 50
343.027631
 51
437.757208
  0
LINE
  8
CAM
 62
     3
  6
CONTINUOUS
 10
7.378092
 20
2.600499
 30
0.000000
 11
6.711995
 21
0.418031
 31
0.000000
  0
ARC
  8
CAM
 62
     3
  6
CONTINUOUS
 10
-0.000000
 20
-0.000000
 30
0.000000
 40
6.725000
 50
352.199719
 51
363.563848
  0
ARC
  8
CAM
 62
     3
  6
CONTINUOUS
 10
6.786618
 20
-0.929685
 30
0.000000
 40
0.125000
 50
172.199719
 51
224.469925
  0
ARC
  8
CAM
 62
     3
  6
CONTINUOUS
 10
6.073000
 20
-1.630220
 30
0.000000
 40
0.875000
 50
264.595499
 51
404.469925
  0
ARC
  8
CAM
 62
     3
  6
CONTINUOUS
 10
5.978813
 20
-2.625774
 30
0.000000
 40
0.125000
 50
84.595499
 51
156.289887
  0
ARC
  8
CAM
 62
     3
  6
CONTINUOUS
 10
-0.000000
 20
-0.000000
 30
0.000000
 40
6.405000
 50
325.398756
 51
336.289887
  0
ARC
  8
CAM
 62
     3
  6
CONTINUOUS
 10
5.375000
 20
-3.708136
 30
0.000000
 40
0.125000
 50
145.398756
 51
180.000000
  0
LINE
  8
CAM
 62
     3
  6
CONTINUOUS
 10
5.250000
 20
-3.708136
 30
0.000000
 11
5.250000
 21
-4.375000
 31
0.000000
  0
ARC
  8
CAM
 62
     3
  6
CONTINUOUS
 10
4.750000
 20
-4.375000
 30
0.000000
 40
0.500000
 50
270.000000
 51
360.000000
  0
LINE
  8
CAM
 62
     3
  6
CONTINUOUS
 10
4.750000
 20
-4.875000
 30
0.000000
 11
4.632494
 21
-4.875000
 31
0.000000
  0
CIRCLE
  8
CAM
 62
     3
  6
CONTINUOUS
 10
0.000000
 20
0.000000
 30
-0.625000
 40
2.620000
  0
CIRCLE
  8
CAM
 62
     3
  6
CONTINUOUS
 10
0.000000
 20
0.000000
 30
-0.625000
 40
2.625000
  0
LINE
  8
DIM
 62
     7
  6
CONTINUOUS
 10
0.000000
 20
-0.002540
 30
0.000000
 11
0.000000
 21
-6.696789
 31
0.000000
  0
LINE
  8
DIM
 62
     7
  6
CONTINUOUS
 10
-6.607000
 20
-1.629487
 30
0.000000
 11
-6.607000
 21
-6.696789
 31
0.000000
  0
LINE
  8
DIM
 62
     7
  6
CONTINUOUS
 10
0.000000
 20
-6.692979
 30
0.000000
 11
-6.607000
 21
-6.692979
 31
0.000000
  0
LINE
  8
DIM
 62
     7
  6
CONTINUOUS
 10
0.000000
 20
-6.692979
 30
0.000000
 11
-0.025000
 21
-6.705479
 31
0.000000
  0
LINE
  8
DIM
 62
     7
  6
CONTINUOUS
 10
0.000000
 20
-6.692979
 30
0.000000
 11
-0.025000
 21
-6.680479
 31
0.000000
  0
LINE
  8
DIM
 62
     7
  6
CONTINUOUS
 10
-6.607000
 20
-6.692979
 30
0.000000
 11
-6.582000
 21
-6.680479
 31
0.000000
  0
LINE
  8
DIM
 62
     7
  6
CONTINUOUS
 10
-6.607000
 20
-6.692979
 30
0.000000
 11
-6.582000
 21
-6.705479
 31
0.000000
  0
TEXT
  8
DIM
 62
     7
 10
-6.296490
 20
-6.611699
 30
0.000000
 40
0.200000
  1
6.607
 72
     1
 11
-5.986490
 21
-6.611699
 31
0.000000
  0
LINE
  8
DIM
 62
     7
  6
CONTINUOUS
 10
0.000000
 20
-0.002540
 30
0.000000
 11
0.000000
 21
-6.696789
 31
0.000000
  0
LINE
  8
DIM
 62
     7
  6
CONTINUOUS
 10
7.100000
 20
3.247460
 30
0.000000
 11
7.100000
 21
-6.696789
 31
0.000000
  0
LINE
  8
DIM
 62
     7
  6
CONTINUOUS
 10
0.000000
 20
-6.692979
 30
0.000000
 11
7.100000
 21
-6.692979
 31
0.000000
  0
LINE
  8
DIM
 62
     7
  6
CONTINUOUS
 10
0.000000
 20
-6.692979
 30
0.000000
 11
0.025000
 21
-6.680479
 31
0.000000
  0
LINE
  8
DIM
 62
     7
  6
CONTINUOUS
 10
0.000000
 20
-6.692979
 30
0.000000
 11
0.025000
 21
-6.705479
 31
0.000000
  0
LINE
  8
DIM
 62
     7
  6
CONTINUOUS
 10
7.100000
 20
-6.692979
 30
0.000000
 11
7.075000
 21
-6.705479
 31
0.000000
  0
LINE
  8
DIM
 62
     7
  6
CONTINUOUS
 10
7.100000
 20
-6.692979
 30
0.000000
 11
7.075000
 21
-6.680479
 31
0.000000
  0
TEXT
  8
DIM
 62
     7
 10
6.206781
 20
-6.611699
 30
0.000000
 40
0.200000
  1
7.100
 72
     1
 11
6.496781
 21
-6.611699
 31
0.000000
  0
LINE
  8
DIM
 62
     7
  6
CONTINUOUS
 10
0.002540
 20
0.000000
 30
0.000000
 11
7.572561
 21
0.000000
 31
0.000000
  0
LINE
  8
DIM
 62
     7
  6
CONTINUOUS
 10
0.002540
 20
-6.000000
 30
0.000000
 11
7.572561
 21
-6.000000
 31
0.000000
  0
LINE
  8
DIM
 62
     7
  6
CONTINUOUS
 10
7.568751
 20
0.000000
 30
0.000000
 11
7.568751
 21
-6.000000
 31
0.000000
  0
LINE
  8
DIM
 62
     7
  6
CONTINUOUS
 10
7.568751
 20
0.000000
 30
0.000000
 11
7.581251
 21
-0.025000
 31
0.000000
  0
LINE
  8
DIM
 62
     7
  6
CONTINUOUS
 10
7.568751
 20
0.000000
 30
0.000000
 11
7.556251
 21
-0.025000
 31
0.000000
  0
LINE
  8
DIM
 62
     7
  6
CONTINUOUS
 10
7.568751
 20
-6.000000
 30
0.000000
 11
7.556251
 21
-5.975000
 31
0.000000
  0
LINE
  8
DIM
 62
     7
  6
CONTINUOUS
 10
7.568751
 20
-6.000000
 30
0.000000
 11
7.581251
 21
-5.975000
 31
0.000000
  0
TEXT
  8
DIM
 62
     7
 10
7.487471
 20
-5.135676
 30
0.000000
 40
0.200000
  1
6.000
 50
90.000003
 72
     1
 11
7.487471
 21
-4.825676
 31
0.000000
  0
LINE
  8
DIM
 62
     7
  6
CONTINUOUS
 10
0.002540
 20
0.000000
 30
0.000000
 11
7.572561
 21
0.000000
 31
0.000000
  0
LINE
  8
DIM
 62
     7
  6
CONTINUOUS
 10
1.968532
 20
6.890000
 30
-0.000000
 11
7.572561
 21
6.890000
 31
-0.000000
  0
LINE
  8
DIM
 62
     7
  6
CONTINUOUS
 10
7.568751
 20
0.000000
 30
0.000000
 11
7.568751
 21
6.890000
 31
-0.000000
  0
LINE
  8
DIM
 62
     7
  6
CONTINUOUS
 10
7.568751
 20
0.000000
 30
0.000000
 11
7.556251
 21
0.025000
 31
0.000000
  0
LINE
  8
DIM
 62
     7
  6
CONTINUOUS
 10
7.568751
 20
0.000000
 30
0.000000
 11
7.581251
 21
0.025000
 31
0.000000
  0
LINE
  8
DIM
 62
     7
  6
CONTINUOUS
 10
7.568751
 20
6.890000
 30
-0.000000
 11
7.581251
 21
6.865000
 31
-0.000000
  0
LINE
  8
DIM
 62
     7
  6
CONTINUOUS
 10
7.568751
 20
6.890000
 30
-0.000000
 11
7.556251
 21
6.865000
 31
-0.000000
  0
TEXT
  8
DIM
 62
     7
 10
7.487471
 20
4.892437
 30
0.000000
 40
0.200000
  1
6.890
 50
90.000003
 72
     1
 11
7.487471
 21
5.202437
 31
0.000000
  0
LINE
  8
DIM
 62
     7
  6
CONTINUOUS
 10
5.869968
 20
1.632320
 30
0.000000
 11
5.869968
 21
2.436740
 31
0.000000
  0
LINE
  8
DIM
 62
     7
  6
CONTINUOUS
 10
6.276268
 20
1.632320
 30
0.000000
 11
6.276268
 21
2.436740
 31
0.000000
  0
LINE
  8
DIM
 62
     7
  6
CONTINUOUS
 10
5.748038
 20
2.432930
 30
0.000000
 11
6.398198
 21
2.432930
 31
0.000000
  0
LINE
  8
DIM
 62
     7
  6
CONTINUOUS
 10
5.869968
 20
2.432930
 30
0.000000
 11
5.894968
 21
2.445430
 31
0.000000
  0
LINE
  8
DIM
 62
     7
  6
CONTINUOUS
 10
5.869968
 20
2.432930
 30
0.000000
 11
5.894968
 21
2.420430
 31
0.000000
  0
LINE
  8
DIM
 62
     7
  6
CONTINUOUS
 10
6.276268
 20
2.432930
 30
0.000000
 11
6.251268
 21
2.420430
 31
0.000000
  0
LINE
  8
DIM
 62
     7
  6
CONTINUOUS
 10
6.276268
 20
2.432930
 30
0.000000
 11
6.251268
 21
2.445430
 31
0.000000
  0
TEXT
  8
DIM
 62
     7
 10
5.753117
 20
2.514210
 30
0.000000
 40
0.200000
  1
0.406
 72
     1
 11
6.073118
 21
2.514210
 31
0.000000
  0
LINE
  8
DIM
 62
     7
  6
CONTINUOUS
 10
2.759844
 20
6.108605
 30
0.000000
 11
2.759844
 21
6.913025
 31
0.000000
  0
LINE
  8
DIM
 62
     7
  6
CONTINUOUS
 10
3.166144
 20
6.108605
 30
0.000000
 11
3.166144
 21
6.913025
 31
0.000000
  0
LINE
  8
DIM
 62
     7
  6
CONTINUOUS
 10
2.637914
 20
6.909215
 30
0.000000
 11
3.288074
 21
6.909215
 31
0.000000
  0
LINE
  8
DIM
 62
     7
  6
CONTINUOUS
 10
2.759844
 20
6.909215
 30
0.000000
 11
2.784844
 21
6.921715
 31
0.000000
  0
LINE
  8
DIM
 62
     7
  6
CONTINUOUS
 10
2.759844
 20
6.909215
 30
0.000000
 11
2.784844
 21
6.896715
 31
0.000000
  0
LINE
  8
DIM
 62
     7
  6
CONTINUOUS
 10
3.166144
 20
6.909215
 30
0.000000
 11
3.141144
 21
6.896715
 31
0.000000
  0
LINE
  8
DIM
 62
     7
  6
CONTINUOUS
 10
3.166144
 20
6.909215
 30
0.000000
 11
3.141144
 21
6.921715
 31
0.000000
  0
TEXT
  8
DIM
 62
     7
 10
2.642994
 20
6.990495
 30
0.000000
 40
0.200000
  1
0.406
 72
     1
 11
2.962994
 21
6.990495
 31
0.000000
  0
LINE
  8
DIM
 62
     7
  6
CONTINUOUS
 10
-2.400582
 20
6.289582
 30
0.000000
 11
-2.400582
 21
7.094002
 31
0.000000
  0
LINE
  8
DIM
 62
     7
  6
CONTINUOUS
 10
-1.994282
 20
6.289582
 30
0.000000
 11
-1.994282
 21
7.094002
 31
0.000000
  0
LINE
  8
DIM
 62
     7
  6
CONTINUOUS
 10
-2.522512
 20
7.090192
 30
0.000000
 11
-1.872352
 21
7.090192
 31
0.000000
  0
LINE
  8
DIM
 62
     7
  6
CONTINUOUS
 10
-2.400582
 20
7.090192
 30
0.000000
 11
-2.375582
 21
7.102692
 31
0.000000
  0
LINE
  8
DIM
 62
     7
  6
CONTINUOUS
 10
-2.400582
 20
7.090192
 30
0.000000
 11
-2.375582
 21
7.077692
 31
0.000000
  0
LINE
  8
DIM
 62
     7
  6
CONTINUOUS
 10
-1.994282
 20
7.090192
 30
0.000000
 11
-2.019282
 21
7.077692
 31
0.000000
  0
LINE
  8
DIM
 62
     7
  6
CONTINUOUS
 10
-1.994282
 20
7.090192
 30
0.000000
 11
-2.019282
 21
7.102692
 31
0.000000
  0
TEXT
  8
DIM
 62
     7
 10
-2.517432
 20
7.171472
 30
0.000000
 40
0.200000
  1
0.406
 72
     1
 11
-2.197432
 21
7.171472
 31
0.000000
  0
LINE
  8
DIM
 62
     7
  6
CONTINUOUS
 10
-5.432693
 20
3.526389
 30
0.000000
 11
-5.432693
 21
4.330809
 31
0.000000
  0
LINE
  8
DIM
 62
     7
  6
CONTINUOUS
 10
-5.026393
 20
3.526389
 30
0.000000
 11
-5.026393
 21
4.330809
 31
0.000000
  0
LINE
  8
DIM
 62
     7
  6
CONTINUOUS
 10
-5.554623
 20
4.326999
 30
0.000000
 11
-4.904463
 21
4.326999
 31
0.000000
  0
LINE
  8
DIM
 62
     7
  6
CONTINUOUS
 10
-5.432693
 20
4.326999
 30
0.000000
 11
-5.407693
 21
4.339499
 31
0.000000
  0
LINE
  8
DIM
 62
     7
  6
CONTINUOUS
 10
-5.432693
 20
4.326999
 30
0.000000
 11
-5.407693
 21
4.314499
 31
0.000000
  0
LINE
  8
DIM
 62
     7
  6
CONTINUOUS
 10
-5.026393
 20
4.326999
 30
0.000000
 11
-5.051393
 21
4.314499
 31
0.000000
  0
LINE
  8
DIM
 62
     7
  6
CONTINUOUS
 10
-5.026393
 20
4.326999
 30
0.000000
 11
-5.051393
 21
4.339499
 31
0.000000
  0
TEXT
  8
DIM
 62
     7
 10
-5.549543
 20
4.408279
 30
0.000000
 40
0.200000
  1
0.406
 72
     1
 11
-5.229543
 21
4.408279
 31
0.000000
  0
LINE
  8
DIM
 62
     7
  6
CONTINUOUS
 10
-6.382600
 20
-1.624407
 30
0.000000
 11
-6.382600
 21
-0.747537
 31
0.000000
  0
LINE
  8
DIM
 62
     7
  6
CONTINUOUS
 10
-5.831400
 20
-1.624407
 30
0.000000
 11
-5.831400
 21
-0.747537
 31
0.000000
  0
LINE
  8
DIM
 62
     7
  6
CONTINUOUS
 10
-6.402080
 20
-0.751347
 30
0.000000
 11
-5.811920
 21
-0.751347
 31
0.000000
  0
LINE
  8
DIM
 62
     7
  6
CONTINUOUS
 10
-6.382600
 20
-0.751347
 30
0.000000
 11
-6.357600
 21
-0.738847
 31
0.000000
  0
LINE
  8
DIM
 62
     7
  6
CONTINUOUS
 10
-6.382600
 20
-0.751347
 30
0.000000
 11
-6.357600
 21
-0.763847
 31
0.000000
  0
LINE
  8
DIM
 62
     7
  6
CONTINUOUS
 10
-5.831400
 20
-0.751347
 30
0.000000
 11
-5.856400
 21
-0.763847
 31
0.000000
  0
LINE
  8
DIM
 62
     7
  6
CONTINUOUS
 10
-5.831400
 20
-0.751347
 30
0.000000
 11
-5.856400
 21
-0.738847
 31
0.000000
  0
TEXT
  8
DIM
 62
     7
 10
-6.397000
 20
-0.670067
 30
0.000000
 40
0.200000
  1
0.551
 72
     1
 11
-6.107000
 21
-0.670067
 31
0.000000
  0
LINE
  8
DIM
 62
     7
  6
CONTINUOUS
 10
5.797400
 20
-1.627680
 30
0.000000
 11
5.797400
 21
-0.750810
 31
0.000000
  0
LINE
  8
DIM
 62
     7
  6
CONTINUOUS
 10
6.348600
 20
-1.627680
 30
0.000000
 11
6.348600
 21
-0.750810
 31
0.000000
  0
LINE
  8
DIM
 62
     7
  6
CONTINUOUS
 10
5.777920
 20
-0.754620
 30
0.000000
 11
6.368080
 21
-0.754620
 31
0.000000
  0
LINE
  8
DIM
 62
     7
  6
CONTINUOUS
 10
5.797400
 20
-0.754620
 30
0.000000
 11
5.822400
 21
-0.742120
 31
0.000000
  0
LINE
  8
DIM
 62
     7
  6
CONTINUOUS
 10
5.797400
 20
-0.754620
 30
0.000000
 11
5.822400
 21
-0.767120
 31
0.000000
  0
LINE
  8
DIM
 62
     7
  6
CONTINUOUS
 10
6.348600
 20
-0.754620
 30
0.000000
 11
6.323600
 21
-0.767120
 31
0.000000
  0
LINE
  8
DIM
 62
     7
  6
CONTINUOUS
 10
6.348600
 20
-0.754620
 30
0.000000
 11
6.323600
 21
-0.742120
 31
0.000000
  0
TEXT
  8
DIM
 62
     7
 10
5.783000
 20
-0.673340
 30
0.000000
 40
0.200000
  1
0.551
 72
     1
 11
6.073000
 21
-0.673340
 31
0.000000
  0
ENDSEC
  0
EOF
