  0
SECTION
  2
HEADER
  9
$ACADVER
  1
AC1006
  0
ENDSEC
  0
SECTION
  2
TABLES
  0
TABLE
  2
LTYPE
 70
    25
  0
LTYPE
  2
CONTINUOUS
 70
    64
  3
Solid line
 72
    64
 73
     0
 40
0.000000
  0
LTYPE
  2
DASHDOT
 70
    64
  3
__ . __ . __ . __ . __ . __ . __ . __ . __ . __
 72
    65
 73
     4
 40
1.000000
 49
0.500000
 49
-0.250000
 49
0.000000
 49
-0.250000
  0
LTYPE
  2
DASHED
 70
    64
  3
__ __ __ __ __ __ __ __ __ __ __ __ __ __ __ __
 72
    65
 73
     2
 40
0.750000
 49
0.500000
 49
-0.250000
  0
LTYPE
  2
DIVIDE
 70
    64
  3
____ . . ____ . . ____ . . ____ . . ____ . . __
 72
    65
 73
     6
 40
1.250000
 49
0.500000
 49
-0.250000
 49
0.000000
 49
-0.250000
 49
0.000000
 49
-0.250000
  0
LTYPE
  2
DOT
 70
    64
  3
. . . . . . . . . . . . . . . . . . . . . . . . 
 72
    65
 73
     2
 40
0.250000
 49
0.000000
 49
-0.250000
  0
ENDTAB
  0
ENDSEC
  0
SECTION
  2
BLOCKS
  0
BLOCK
  8
0
  2
Object_0
 70
    64
 10
0.000000
 20
0.000000
 30
0.000000
  0
ENDBLK
  0
ENDSEC
  0
SECTION
  2
ENTITIES
  0
POINT
  8
PROFILE_PLATE
 62
     7
 10
-5.744747
 20
-2.544071
 30
0.000000
  0
POINT
  8
PROFILE_PLATE
 62
     7
 10
-4.703301
 20
-4.208903
 30
0.000000
  0
POINT
  8
PROFILE_PLATE
 62
     7
 10
-6.086174
 20
-1.627417
 30
0.000000
  0
POINT
  8
PROFILE_PLATE
 62
     7
 10
6.092379
 20
-1.627436
 30
0.000000
  0
LINE
  8
PROFILE_PLATE
 62
     6
  6
CONTINUOUS
 10
6.092379
 20
-1.627436
 30
0.000000
 11
-6.086174
 21
-1.627417
 31
0.000000
  0
POINT
  8
PROFILE_PLATE
 62
     7
 10
0.000000
 20
0.000000
 30
0.000000
  0
LINE
  8
PROFILE_PLATE
 62
     6
  6
CONTINUOUS
 10
0.000000
 20
0.000000
 30
0.000000
 11
-6.086174
 21
-1.627417
 31
0.000000
  0
LINE
  8
PROFILE_PLATE
 62
     6
  6
CONTINUOUS
 10
6.092379
 20
-1.627436
 30
0.000000
 11
0.000000
 21
0.000000
 31
0.000000
  0
LINE
  8
PROFILE_PLATE
 62
     6
  6
CONTINUOUS
 10
0.000000
 20
0.000000
 30
0.000000
 11
-0.000003
 21
-1.627426
 31
0.000000
  0
POINT
  8
PROFILE_PLATE
 62
     7
 10
-5.744747
 20
-2.544071
 30
0.000000
  0
CIRCLE
  8
PROFILE_PLATE
 62
     6
  6
CONTINUOUS
 10
-5.744747
 20
-2.544071
 30
0.000000
 40
0.185000
  0
LINE
  8
PROFILE_PLATE
 62
     6
  6
CONTINUOUS
 10
-5.929747
 20
-2.544071
 30
0.000000
 11
-5.559747
 21
-2.544071
 31
0.000000
  0
LINE
  8
PROFILE_PLATE
 62
     6
  6
CONTINUOUS
 10
-5.744747
 20
-2.359071
 30
0.000000
 11
-5.744747
 21
-2.729071
 31
0.000000
  0
CIRCLE
  8
PROFILE_PLATE
 62
     6
  6
CONTINUOUS
 10
-5.744747
 20
-2.544071
 30
0.000000
 40
0.125000
  0
POINT
  8
PROFILE_PLATE
 62
     7
 10
-4.703301
 20
-4.208903
 30
0.000000
  0
CIRCLE
  8
PROFILE_PLATE
 62
     6
  6
CONTINUOUS
 10
-4.703301
 20
-4.208903
 30
0.000000
 40
0.185000
  0
LINE
  8
PROFILE_PLATE
 62
     6
  6
CONTINUOUS
 10
-4.888301
 20
-4.208903
 30
0.000000
 11
-4.518301
 21
-4.208903
 31
0.000000
  0
LINE
  8
PROFILE_PLATE
 62
     6
  6
CONTINUOUS
 10
-4.703301
 20
-4.023903
 30
0.000000
 11
-4.703301
 21
-4.393903
 31
0.000000
  0
POINT
  8
PROFILE_PLATE
 62
     7
 10
-6.086174
 20
-1.627417
 30
0.000000
  0
POINT
  8
PROFILE_PLATE
 62
     7
 10
-6.086174
 20
-1.627417
 30
0.000000
  0
POINT
  8
PROFILE_PLATE
 62
     7
 10
6.092379
 20
-1.627436
 30
0.000000
  0
POINT
  8
PROFILE_PLATE
 62
     7
 10
6.092379
 20
-1.627436
 30
0.000000
  0
POINT
  8
PROFILE_PLATE
 62
     7
 10
6.092379
 20
-1.627436
 30
0.000000
  0
POINT
  8
PROFILE_PLATE
 62
     7
 10
2.164818
 20
6.288068
 30
0.000000
  0
POINT
  8
PROFILE_PLATE
 62
     7
 10
2.164818
 20
6.288068
 30
0.000000
  0
POINT
  8
PROFILE_PLATE
 62
     7
 10
2.164818
 20
6.288068
 30
0.000000
  0
CIRCLE
  8
PROFILE_PLATE
 62
     6
  6
CONTINUOUS
 10
2.164818
 20
6.288068
 30
0.000000
 40
0.218000
  0
LINE
  8
PROFILE_PLATE
 62
     6
  6
CONTINUOUS
 10
1.946818
 20
6.288068
 30
0.000000
 11
2.382818
 21
6.288068
 31
0.000000
  0
LINE
  8
PROFILE_PLATE
 62
     6
  6
CONTINUOUS
 10
2.164818
 20
6.506068
 30
0.000000
 11
2.164818
 21
6.043068
 31
0.000000
  0
POINT
  8
PROFILE_PLATE
 62
     7
 10
-2.162051
 20
6.326738
 30
0.000000
  0
POINT
  8
PROFILE_PLATE
 62
     7
 10
-2.162051
 20
6.326738
 30
0.000000
  0
POINT
  8
PROFILE_PLATE
 62
     7
 10
-2.162051
 20
6.326738
 30
0.000000
  0
CIRCLE
  8
PROFILE_PLATE
 62
     6
  6
CONTINUOUS
 10
-2.162051
 20
6.326738
 30
0.000000
 40
0.218000
  0
LINE
  8
PROFILE_PLATE
 62
     6
  6
CONTINUOUS
 10
-2.380051
 20
6.326738
 30
0.000000
 11
-1.944051
 21
6.326738
 31
0.000000
  0
LINE
  8
PROFILE_PLATE
 62
     6
  6
CONTINUOUS
 10
-2.162051
 20
6.544738
 30
0.000000
 11
-2.162051
 21
6.081738
 31
0.000000
  0
LINE
  8
PROFILE_PLATE
 62
     6
  6
CONTINUOUS
 10
6.515653
 20
3.472661
 30
0.000000
 11
6.550125
 21
-1.624341
 31
0.000000
  0
ARC
  8
PROFILE_PLATE
 62
     6
  6
CONTINUOUS
 10
6.092379
 20
-1.627436
 30
0.000000
 40
0.457756
 50
272.423876
 51
360.387495
  0
LINE
  8
PROFILE_PLATE
 62
     6
  6
CONTINUOUS
 10
6.111739
 20
-2.084782
 30
0.000000
 11
5.456041
 21
-2.086251
 31
0.000000
  0
ARC
  8
PROFILE_PLATE
 62
     6
  6
CONTINUOUS
 10
5.456834
 20
-2.440251
 30
0.000000
 40
0.354000
 50
90.128358
 51
155.906206
  0
ARC
  8
PROFILE_PLATE
 62
     6
  6
CONTINUOUS
 10
0.000000
 20
-0.000000
 30
0.000000
 40
5.623613
 50
307.600234
 51
335.906206
  0
ARC
  8
PROFILE_PLATE
 62
     6
  6
CONTINUOUS
 10
3.502626
 20
-4.548214
 30
0.000000
 40
0.117000
 50
127.600234
 51
217.193927
  0
LINE
  8
PROFILE_PLATE
 62
     6
  6
CONTINUOUS
 10
3.450904
 20
-4.673602
 30
0.000000
 11
3.409425
 21
-4.618942
 31
0.000000
  0
ARC
  8
PROFILE_PLATE
 62
     6
  6
CONTINUOUS
 10
3.226857
 20
-4.865681
 30
0.000000
 40
0.295113
 50
295.521216
 51
400.606945
  0
LINE
  8
PROFILE_PLATE
 62
     6
  6
CONTINUOUS
 10
3.354005
 20
-5.131998
 30
0.000000
 11
0.932514
 21
-6.288091
 31
0.000000
  0
ARC
  8
PROFILE_PLATE
 62
     6
  6
CONTINUOUS
 10
0.805451
 20
-6.021951
 30
0.000000
 40
0.294917
 50
275.714903
 51
295.521216
  0
ARC
  8
PROFILE_PLATE
 62
     6
  6
CONTINUOUS
 10
0.135140
 20
1.475524
 30
0.000000
 40
7.822280
 50
229.790294
 51
275.131781
  0
ARC
  8
PROFILE_PLATE
 62
     6
  6
CONTINUOUS
 10
-4.703301
 20
-4.208903
 30
0.000000
 40
0.358415
 50
153.255327
 51
233.831775
  0
LINE
  8
PROFILE_PLATE
 62
     6
  6
CONTINUOUS
 10
-5.023373
 20
-4.047611
 30
0.000000
 11
-4.825568
 21
-3.655082
 31
0.000000
  0
ARC
  8
PROFILE_PLATE
 62
     6
  6
CONTINUOUS
 10
-5.075614
 20
-3.529077
 30
0.000000
 40
0.280000
 50
333.255327
 51
394.007492
  0
LINE
  8
PROFILE_PLATE
 62
     6
  6
CONTINUOUS
 10
-5.063306
 20
-3.046695
 30
0.000000
 11
-4.843504
 21
-3.372473
 31
0.000000
  0
ARC
  8
PROFILE_PLATE
 62
     6
  6
CONTINUOUS
 10
-5.356760
 20
-3.244687
 30
0.000000
 40
0.354000
 50
34.007492
 51
91.109826
  0
LINE
  8
PROFILE_PLATE
 62
     6
  6
CONTINUOUS
 10
-5.737891
 20
-2.898004
 30
0.000000
 11
-5.363616
 21
-2.890754
 31
0.000000
  0
ARC
  8
PROFILE_PLATE
 62
     6
  6
CONTINUOUS
 10
-5.744747
 20
-2.544071
 30
0.000000
 40
0.354000
 50
202.981939
 51
271.109826
  0
LINE
  8
PROFILE_PLATE
 62
     6
  6
CONTINUOUS
 10
-6.509989
 20
-1.851555
 30
0.000000
 11
-6.070650
 21
-2.682287
 31
0.000000
  0
ARC
  8
PROFILE_PLATE
 62
     6
  6
CONTINUOUS
 10
-6.086174
 20
-1.627417
 30
0.000000
 40
0.479434
 50
167.837591
 51
207.872505
  0
LINE
  8
PROFILE_PLATE
 62
     6
  6
CONTINUOUS
 10
-5.693986
 20
2.467917
 30
0.000000
 11
-6.554847
 21
-1.526408
 31
0.000000
  0
ARC
  8
PROFILE_PLATE
 62
     6
  6
CONTINUOUS
 10
-5.393209
 20
2.403093
 30
0.000000
 40
0.307684
 50
142.299211
 51
167.837591
  0
LINE
  8
PROFILE_PLATE
 62
     6
  6
CONTINUOUS
 10
-5.636653
 20
2.591254
 30
0.000000
 11
-2.529782
 21
6.610960
 31
0.000000
  0
ARC
  8
PROFILE_PLATE
 62
     6
  6
CONTINUOUS
 10
-2.162051
 20
6.326738
 30
0.000000
 40
0.464767
 50
89.807428
 51
142.299211
  0
LINE
  8
PROFILE_PLATE
 62
     6
  6
CONTINUOUS
 10
-2.160489
 20
6.791502
 30
0.000000
 11
2.166461
 21
6.776959
 31
0.000000
  0
ARC
  8
PROFILE_PLATE
 62
     6
  6
CONTINUOUS
 10
2.164818
 20
6.288068
 30
0.000000
 40
0.488894
 50
63.065750
 51
89.807428
  0
LINE
  8
PROFILE_PLATE
 62
     6
  6
CONTINUOUS
 10
2.386271
 20
6.723930
 30
0.000000
 11
5.476140
 21
5.154027
 31
0.000000
  0
ARC
  8
PROFILE_PLATE
 62
     6
  6
CONTINUOUS
 10
4.615341
 20
3.459809
 30
0.000000
 40
1.900356
 50
0.387495
 51
63.065750
  0
POINT
  8
PROFILE_PLATE
 62
     7
 10
-2.162051
 20
6.326738
 30
0.000000
  0
CIRCLE
  8
PROFILE_PLATE
 62
     6
  6
CONTINUOUS
 10
2.164818
 20
6.288068
 30
0.000000
 40
0.125000
  0
POINT
  8
PROFILE_PLATE
 62
     7
 10
2.164818
 20
6.288068
 30
0.000000
  0
CIRCLE
  8
PROFILE_PLATE
 62
     6
  6
CONTINUOUS
 10
6.092379
 20
-1.627436
 30
0.000000
 40
0.125000
  0
POINT
  8
PROFILE_PLATE
 62
     7
 10
6.092379
 20
-1.627436
 30
0.000000
  0
CIRCLE
  8
PROFILE_PLATE
 62
     6
  6
CONTINUOUS
 10
-6.086174
 20
-1.627417
 30
0.000000
 40
0.125000
  0
POINT
  8
PROFILE_PLATE
 62
     7
 10
-5.744747
 20
-2.544071
 30
0.000000
  0
POINT
  8
PROFILE_PLATE
 62
     7
 10
-6.086174
 20
-1.627417
 30
0.000000
  0
CIRCLE
  8
PROFILE_PLATE
 62
     6
  6
CONTINUOUS
 10
-4.703301
 20
-4.208903
 30
0.000000
 40
0.125000
  0
POINT
  8
PROFILE_PLATE
 62
     7
 10
-4.703301
 20
-4.208903
 30
0.000000
  0
CIRCLE
  8
PROFILE_PLATE
 62
     6
  6
CONTINUOUS
 10
-2.162051
 20
6.326738
 30
0.000000
 40
0.125000
  0
POINT
  8
PROFILE_PLATE
 62
     7
 10
0.000000
 20
0.000000
 30
0.000000
  0
LINE
  8
PROFILE_PLATE
 62
     6
  6
CONTINUOUS
 10
-0.310500
 20
0.000000
 30
0.000000
 11
0.310500
 21
0.000000
 31
0.000000
  0
LINE
  8
PROFILE_PLATE
 62
     6
  6
CONTINUOUS
 10
0.000000
 20
0.310000
 30
0.000000
 11
0.000000
 21
-0.311000
 31
0.000000
  0
POINT
  8
PROFILE_PLATE
 62
     7
 10
0.000000
 20
0.000000
 30
0.000000
  0
CIRCLE
  8
PROFILE_PLATE
 62
     6
  6
CONTINUOUS
 10
0.000000
 20
0.000000
 30
0.000000
 40
3.000000
  0
CIRCLE
  8
PROFILE_PLATE
 62
     6
  6
CONTINUOUS
 10
0.000000
 20
0.000000
 30
0.000000
 40
3.625000
  0
CIRCLE
  8
PROFILE_PLATE
 62
     6
  6
CONTINUOUS
 10
0.000000
 20
0.000000
 30
0.000000
 40
4.250000
  0
CIRCLE
  8
PROFILE_PLATE
 62
     6
  6
CONTINUOUS
 10
-0.001410
 20
3.624108
 30
0.000000
 40
0.250000
  0
CIRCLE
  8
PROFILE_PLATE
 62
     6
  6
CONTINUOUS
 10
-3.624108
 20
-0.001410
 30
0.000000
 40
0.250000
  0
CIRCLE
  8
PROFILE_PLATE
 62
     6
  6
CONTINUOUS
 10
0.001410
 20
-3.624108
 30
0.000000
 40
0.250000
  0
CIRCLE
  8
PROFILE_PLATE
 62
     6
  6
CONTINUOUS
 10
3.624108
 20
0.001410
 30
0.000000
 40
0.250000
  0
POINT
  8
PROFILE_PLATE
 62
     7
 10
0.000000
 20
0.000000
 30
0.000000
  0
LINE
  8
PROFILE_PLATE
 62
     6
  6
CONTINUOUS
 10
-6.163624
 20
0.000000
 30
0.000000
 11
6.024082
 21
0.000000
 31
0.000000
  0
TEXT
  8
DIMENSIONS
 62
     7
 10
0.228753
 20
5.121814
 30
0.000000
 40
0.200000
  1
1993 MITSUBISHI ECLIPSE
  0
TEXT
  8
DIMENSIONS
 62
     7
 10
0.228753
 20
4.821814
 30
0.000000
 40
0.200000
  1
TO A WARP 9 MOTOR 
  0
TEXT
  8
DIMENSIONS
 62
     7
 10
0.228753
 20
4.521814
 30
0.000000
 40
0.200000
  1
PROFILE PLATE PATTERN
  0
LINE
  8
DIMENSIONS
 62
     6
  6
CONTINUOUS
 10
2.441974
 20
2.692248
 30
0.000000
 11
2.541370
 21
2.865800
 31
0.000000
  0
LINE
  8
DIMENSIONS
 62
     6
  6
CONTINUOUS
 10
2.441974
 20
2.692248
 30
0.000000
 11
2.614830
 21
2.792851
 31
0.000000
  0
LINE
  8
DIMENSIONS
 62
     6
  6
CONTINUOUS
 10
2.441974
 20
2.692248
 30
0.000000
 11
3.468890
 21
3.726344
 31
0.000000
  0
LINE
  8
DIMENSIONS
 62
     6
  6
CONTINUOUS
 10
3.468890
 20
3.726344
 30
0.000000
 11
3.718890
 21
3.726344
 31
0.000000
  0
TEXT
  8
DIMENSIONS
 62
     7
 10
3.781390
 20
3.663845
 30
0.000000
 40
0.125000
  1
PLATE TO RING
  0
TEXT
  8
DIMENSIONS
 62
     7
 10
3.781390
 20
3.476344
 30
0.000000
 40
0.125000
  1
BOLT CIRCLE
  0
TEXT
  8
DIMENSIONS
 62
     7
 10
3.781390
 20
3.288845
 30
0.000000
 40
0.125000
  1
7.25" DIA.
  0
TEXT
  8
DIMENSIONS
 62
     7
 10
3.781390
 20
3.101344
 30
0.000000
 40
0.125000
  1
DRILL 17/32" 4 X.
  0
LINE
  8
DIMENSIONS
 62
     6
  6
CONTINUOUS
 10
-0.290978
 20
-4.250761
 30
0.000000
 11
-0.382626
 21
-4.428527
 31
0.000000
  0
LINE
  8
DIMENSIONS
 62
     6
  6
CONTINUOUS
 10
-0.290978
 20
-4.250761
 30
0.000000
 11
-0.459231
 21
-4.358887
 31
0.000000
  0
LINE
  8
DIMENSIONS
 62
     6
  6
CONTINUOUS
 10
-0.290978
 20
-4.250761
 30
0.000000
 11
-0.645087
 21
-4.640281
 31
0.000000
  0
LINE
  8
DIMENSIONS
 62
     6
  6
CONTINUOUS
 10
-0.645087
 20
-4.640281
 30
0.000000
 11
-0.895087
 21
-4.640281
 31
0.000000
  0
TEXT
  8
DIMENSIONS
 62
     7
 10
-2.349266
 20
-4.702781
 30
0.000000
 40
0.125000
  1
RING RECESS
  0
TEXT
  8
DIMENSIONS
 62
     7
 10
-2.349266
 20
-4.890281
 30
0.000000
 40
0.125000
  1
AS PER STANDARD
  0
TEXT
  8
DIMENSIONS
 62
     7
 10
-2.349266
 20
-5.077781
 30
0.000000
 40
0.125000
  1
MOTOR RING DWG.
  0
LINE
  8
DIMENSIONS
 62
     6
  6
CONTINUOUS
 10
2.506482
 20
1.698267
 30
0.000000
 11
2.653442
 21
1.833923
 31
0.000000
  0
LINE
  8
DIMENSIONS
 62
     6
  6
CONTINUOUS
 10
2.506482
 20
1.698267
 30
0.000000
 11
2.701581
 21
1.742268
 31
0.000000
  0
LINE
  8
DIMENSIONS
 62
     6
  6
CONTINUOUS
 10
2.506482
 20
1.698267
 30
0.000000
 11
3.790147
 21
2.372477
 31
0.000000
  0
LINE
  8
DIMENSIONS
 62
     6
  6
CONTINUOUS
 10
3.790147
 20
2.372477
 30
0.000000
 11
4.040147
 21
2.372477
 31
0.000000
  0
TEXT
  8
DIMENSIONS
 62
     7
 10
4.102647
 20
2.309977
 30
0.000000
 40
0.125000
  1
HUB CUTOUT
  0
TEXT
  8
DIMENSIONS
 62
     7
 10
4.102647
 20
2.122477
 30
0.000000
 40
0.125000
  1
6" DIA.
  0
LINE
  8
DIMENSIONS
 62
     6
  6
CONTINUOUS
 10
-6.236669
 20
-1.064598
 30
0.000000
 11
-6.063413
 21
-0.964687
 31
0.000000
  0
LINE
  8
DIMENSIONS
 62
     6
  6
CONTINUOUS
 10
-6.236669
 20
-1.064598
 30
0.000000
 11
-6.036669
 21
-1.064701
 31
0.000000
  0
LINE
  8
DIMENSIONS
 62
     6
  6
CONTINUOUS
 10
-0.150495
 20
0.562819
 30
0.000000
 11
-0.323752
 21
0.462908
 31
0.000000
  0
LINE
  8
DIMENSIONS
 62
     6
  6
CONTINUOUS
 10
-0.150495
 20
0.562819
 30
0.000000
 11
-0.350495
 21
0.562922
 31
0.000000
  0
LINE
  8
DIMENSIONS
 62
     6
  6
CONTINUOUS
 10
-6.102319
 20
-1.567038
 30
0.000000
 11
-6.268959
 21
-0.943840
 31
0.000000
  0
LINE
  8
DIMENSIONS
 62
     6
  6
CONTINUOUS
 10
-0.016145
 20
0.060379
 30
0.000000
 11
-0.182785
 21
0.683576
 31
0.000000
  0
TEXT
  8
DIMENSIONS
 62
     7
 10
-5.005567
 20
-0.800410
 30
0.000000
 40
0.125000
  1
6.300"
 50
14.970405
  0
LINE
  8
DIMENSIONS
 62
     6
  6
CONTINUOUS
 10
-6.236669
 20
-1.064598
 30
0.000000
 11
-5.051978
 21
-0.747816
 31
0.000000
  0
LINE
  8
DIMENSIONS
 62
     6
  6
CONTINUOUS
 10
-4.327897
 20
-0.554200
 30
0.000000
 11
-0.150495
 21
0.562819
 31
0.000000
  0
LINE
  8
DIMENSIONS
 62
     6
  6
CONTINUOUS
 10
-6.086174
 20
-1.848694
 30
0.000000
 11
-5.892989
 21
-1.796930
 31
0.000000
  0
LINE
  8
DIMENSIONS
 62
     6
  6
CONTINUOUS
 10
-6.086174
 20
-1.848694
 30
0.000000
 11
-5.892989
 21
-1.900458
 31
0.000000
  0
LINE
  8
DIMENSIONS
 62
     6
  6
CONTINUOUS
 10
6.092379
 20
-1.848714
 30
0.000000
 11
5.899194
 21
-1.900477
 31
0.000000
  0
LINE
  8
DIMENSIONS
 62
     6
  6
CONTINUOUS
 10
6.092379
 20
-1.848714
 30
0.000000
 11
5.899194
 21
-1.796950
 31
0.000000
  0
LINE
  8
DIMENSIONS
 62
     6
  6
CONTINUOUS
 10
-6.086174
 20
-1.689917
 30
0.000000
 11
-6.086174
 21
-1.973694
 31
0.000000
  0
LINE
  8
DIMENSIONS
 62
     6
  6
CONTINUOUS
 10
6.092379
 20
-1.689936
 30
0.000000
 11
6.092379
 21
-1.973714
 31
0.000000
  0
TEXT
  8
DIMENSIONS
 62
     7
 10
-0.732327
 20
-1.911318
 30
0.000000
 40
0.125000
  1
12.179"
 50
-0.000099
  0
LINE
  8
DIMENSIONS
 62
     6
  6
CONTINUOUS
 10
-6.086174
 20
-1.848694
 30
0.000000
 11
-0.763577
 21
-1.848703
 31
0.000000
  0
LINE
  8
DIMENSIONS
 62
     6
  6
CONTINUOUS
 10
-0.044115
 20
-1.848704
 30
0.000000
 11
6.092379
 21
-1.848714
 31
0.000000
  0
LINE
  8
DIMENSIONS
 62
     6
  6
CONTINUOUS
 10
0.145886
 20
0.546130
 30
0.000000
 11
0.345886
 21
0.546283
 31
0.000000
  0
LINE
  8
DIMENSIONS
 62
     6
  6
CONTINUOUS
 10
0.145886
 20
0.546130
 30
0.000000
 11
0.319168
 21
0.446263
 31
0.000000
  0
LINE
  8
DIMENSIONS
 62
     6
  6
CONTINUOUS
 10
6.238265
 20
-1.081307
 30
0.000000
 11
6.038265
 21
-1.081460
 31
0.000000
  0
LINE
  8
DIMENSIONS
 62
     6
  6
CONTINUOUS
 10
6.238265
 20
-1.081307
 30
0.000000
 11
6.064983
 21
-0.981440
 31
0.000000
  0
LINE
  8
DIMENSIONS
 62
     6
  6
CONTINUOUS
 10
0.016130
 20
0.060383
 30
0.000000
 11
0.178145
 21
0.666895
 31
0.000000
  0
LINE
  8
DIMENSIONS
 62
     6
  6
CONTINUOUS
 10
6.108509
 20
-1.567054
 30
0.000000
 11
6.270525
 21
-0.960541
 31
0.000000
  0
TEXT
  8
DIMENSIONS
 62
     7
 10
4.393267
 20
-0.653458
 30
0.000000
 40
0.125000
  1
6.306"
 50
-14.956028
  0
LINE
  8
DIMENSIONS
 62
     6
  6
CONTINUOUS
 10
0.145886
 20
0.546130
 30
0.000000
 11
4.379282
 21
-0.584723
 31
0.000000
  0
LINE
  8
DIMENSIONS
 62
     6
  6
CONTINUOUS
 10
5.100771
 20
-0.777452
 30
0.000000
 11
6.238265
 21
-1.081307
 31
0.000000
  0
POINT
  8
PROFILE_PLATE
 62
     7
 10
0.000000
 20
-1.627426
 30
0.000000
  0
LINE
  8
DIMENSIONS
 62
     6
  6
CONTINUOUS
 10
0.493385
 20
-1.627426
 30
0.000000
 11
0.441622
 21
-1.434241
 31
0.000000
  0
LINE
  8
DIMENSIONS
 62
     6
  6
CONTINUOUS
 10
0.493385
 20
-1.627426
 30
0.000000
 11
0.545149
 21
-1.434241
 31
0.000000
  0
LINE
  8
DIMENSIONS
 62
     6
  6
CONTINUOUS
 10
0.493385
 20
0.000000
 30
0.000000
 11
0.545149
 21
-0.193185
 31
0.000000
  0
LINE
  8
DIMENSIONS
 62
     6
  6
CONTINUOUS
 10
0.493385
 20
0.000000
 30
0.000000
 11
0.441622
 21
-0.193185
 31
0.000000
  0
LINE
  8
DIMENSIONS
 62
     6
  6
CONTINUOUS
 10
0.062500
 20
-1.627426
 30
0.000000
 11
0.618385
 21
-1.627426
 31
0.000000
  0
LINE
  8
DIMENSIONS
 62
     6
  6
CONTINUOUS
 10
0.062500
 20
0.000000
 30
0.000000
 11
0.618385
 21
-0.000000
 31
0.000000
  0
TEXT
  8
DIMENSIONS
 62
     7
 10
0.199279
 20
-0.879137
 30
0.000000
 40
0.125000
  1
1.627"
  0
LINE
  8
DIMENSIONS
 62
     6
  6
CONTINUOUS
 10
0.493385
 20
-1.627426
 30
0.000000
 11
0.493385
 21
-0.910387
 31
0.000000
  0
LINE
  8
DIMENSIONS
 62
     6
  6
CONTINUOUS
 10
0.493385
 20
-0.722415
 30
0.000000
 11
0.493385
 21
0.000000
 31
0.000000
  0
POINT
  8
PROFILE_PLATE
 62
     7
 10
5.775413
 20
1.744836
 30
0.000000
  0
POINT
  8
PROFILE_PLATE
 62
     7
 10
5.775413
 20
1.744836
 30
0.000000
  0
CIRCLE
  8
PROFILE_PLATE
 62
     6
  6
CONTINUOUS
 10
5.775413
 20
1.744836
 30
0.000000
 40
0.125000
  0
TEXT
  8
DIMENSIONS
 62
     7
 10
-6.076076
 20
-1.290238
 30
0.000000
 40
0.125000
  1
DWL "A"
  0
TEXT
  8
DIMENSIONS
 62
     7
 10
5.317684
 20
-1.317106
 30
0.000000
 40
0.125000
  1
DWL "B"
  0
CIRCLE
  8
PROFILE_PLATE
 62
     6
  6
CONTINUOUS
 10
0.000000
 20
0.000000
 30
0.000000
 40
0.312500
  0
LINE
  8
DIMENSIONS
 62
     6
  6
CONTINUOUS
 10
-5.552141
 20
-2.541587
 30
0.000000
 11
-5.357347
 21
-2.586921
 31
0.000000
  0
LINE
  8
DIMENSIONS
 62
     6
  6
CONTINUOUS
 10
-5.552141
 20
-2.541587
 30
0.000000
 11
-5.406112
 21
-2.678245
 31
0.000000
  0
LINE
  8
DIMENSIONS
 62
     6
  6
CONTINUOUS
 10
-5.552141
 20
-2.541587
 30
0.000000
 11
-4.903598
 21
-2.887896
 31
0.000000
  0
LINE
  8
DIMENSIONS
 62
     6
  6
CONTINUOUS
 10
-4.903598
 20
-2.887896
 30
0.000000
 11
-4.653598
 21
-2.887896
 31
0.000000
  0
TEXT
  8
DIMENSIONS
 62
     7
 10
-4.591098
 20
-2.950396
 30
0.000000
 40
0.125000
  1
DRILL .386
  0
TEXT
  8
DIMENSIONS
 62
     7
 10
-4.591098
 20
-3.137896
 30
0.000000
 40
0.125000
  1
THRU 2X
  0
TEXT
  8
DIMENSIONS
 62
     7
 10
-4.591098
 20
-3.325396
 30
0.000000
 40
0.125000
  1
DRILL SIZE "W"
  0
LINE
  8
DIMENSIONS
 62
     6
  6
CONTINUOUS
 10
-4.697487
 20
-4.017413
 30
0.000000
 11
-4.595051
 21
-3.366645
 31
0.000000
  0
LINE
  8
DIMENSIONS
 62
     6
  6
CONTINUOUS
 10
-4.697487
 20
-4.015938
 30
0.000000
 11
-4.657035
 21
-3.935034
 31
0.000000
  0
LINE
  8
DIMENSIONS
 62
     6
  6
CONTINUOUS
 10
-4.696363
 20
-4.014814
 30
0.000000
 11
-4.713218
 21
-3.931663
 31
0.000000
  0
TEXT
  8
DIMENSIONS
 62
     7
 10
-6.160022
 20
-0.184205
 30
0.000000
 40
0.125000
  1
BORE DOWEL HOLES
  0
TEXT
  8
DIMENSIONS
 62
     7
 10
-6.160022
 20
-0.371705
 30
0.000000
 40
0.125000
  1
.5512" FOR 14mm DWL
  0
TEXT
  8
DIMENSIONS
 62
     7
 10
-6.160022
 20
-0.559205
 30
0.000000
 40
0.125000
  1
2 X
  0
LINE
  8
DIMENSIONS
 62
     6
  6
CONTINUOUS
 10
5.557348
 20
1.579240
 30
0.000000
 11
5.421137
 21
1.432793
 31
0.000000
  0
LINE
  8
DIMENSIONS
 62
     6
  6
CONTINUOUS
 10
5.557348
 20
1.579240
 30
0.000000
 11
5.366162
 21
1.520519
 31
0.000000
  0
LINE
  8
DIMENSIONS
 62
     6
  6
CONTINUOUS
 10
5.557348
 20
1.579240
 30
0.000000
 11
4.412066
 21
0.861530
 31
0.000000
  0
LINE
  8
DIMENSIONS
 62
     6
  6
CONTINUOUS
 10
4.412066
 20
0.861530
 30
0.000000
 11
4.662066
 21
0.861530
 31
0.000000
  0
TEXT
  8
DIMENSIONS
 62
     7
 10
4.724566
 20
0.799030
 30
0.000000
 40
0.125000
  1
DRILL 33/64"
  0
LINE
  8
DIMENSIONS
 62
     6
  6
CONTINUOUS
 10
-2.235907
 20
6.115552
 30
0.000000
 11
-2.297992
 21
5.925432
 31
0.000000
  0
LINE
  8
DIMENSIONS
 62
     6
  6
CONTINUOUS
 10
-2.235907
 20
6.115552
 30
0.000000
 11
-2.384734
 21
5.981946
 31
0.000000
  0
LINE
  8
DIMENSIONS
 62
     6
  6
CONTINUOUS
 10
-2.235907
 20
6.115552
 30
0.000000
 11
-2.549623
 21
5.634035
 31
0.000000
  0
LINE
  8
DIMENSIONS
 62
     6
  6
CONTINUOUS
 10
-2.549623
 20
5.634035
 30
0.000000
 11
-2.299623
 21
5.634035
 31
0.000000
  0
TEXT
  8
DIMENSIONS
 62
     7
 10
-2.237123
 20
5.571535
 30
0.000000
 40
0.125000
  1
DRILL 7/16"
  0
LINE
  8
DIMENSIONS
 62
     6
  6
CONTINUOUS
 10
0.000000
 20
0.000000
 30
0.000000
 11
0.193185
 21
0.051764
 31
0.000000
  0
LINE
  8
DIMENSIONS
 62
     6
  6
CONTINUOUS
 10
0.000000
 20
0.000000
 30
0.000000
 11
0.193185
 21
-0.051764
 31
0.000000
  0
LINE
  8
DIMENSIONS
 62
     6
  6
CONTINUOUS
 10
2.039378
 20
6.100960
 30
0.000000
 11
1.958262
 21
5.918148
 31
0.000000
  0
LINE
  8
DIMENSIONS
 62
     6
  6
CONTINUOUS
 10
2.039378
 20
6.100960
 30
0.000000
 11
1.877724
 21
5.983199
 31
0.000000
  0
LINE
  8
DIMENSIONS
 62
     6
  6
CONTINUOUS
 10
2.039378
 20
6.100960
 30
0.000000
 11
1.732958
 21
5.721583
 31
0.000000
  0
LINE
  8
DIMENSIONS
 62
     6
  6
CONTINUOUS
 10
1.732958
 20
5.721583
 30
0.000000
 11
1.982958
 21
5.721583
 31
0.000000
  0
TEXT
  8
DIMENSIONS
 62
     7
 10
2.045459
 20
5.659084
 30
0.000000
 40
0.125000
  1
DRILL 7/16"
  0
TEXT
  8
DIMENSIONS
 62
     7
 10
-0.607505
 20
6.404889
 30
0.000000
 40
0.200000
  1
TOP 
  0
TEXT
  8
DIMENSIONS
 62
     7
 10
-1.237109
 20
6.104889
 30
0.000000
 40
0.200000
  1
MOTOR SIDE
  0
INSERT
  8
Default
 62
     7
  2
Object_0
 10
-10.160000
 20
-10.160000
 30
0.000000
  0
CIRCLE
  8
Default
 62
     9
  6
CONTINUOUS
 10
5.775413
 20
1.744836
 30
0.000000
 40
0.257813
  0
CIRCLE
  8
Default
 62
     9
  6
CONTINUOUS
 10
-6.086174
 20
-1.627417
 30
0.000000
 40
0.275600
  0
CIRCLE
  8
Default
 62
     9
  6
CONTINUOUS
 10
6.092379
 20
-1.627436
 30
0.000000
 40
0.275600
  0
CIRCLE
  8
Default
 62
     9
  6
CONTINUOUS
 10
5.775413
 20
1.744836
 30
0.000000
 40
0.007812
  0
CIRCLE
  8
Default
 62
     9
  6
CONTINUOUS
 10
6.092379
 20
-1.627436
 30
0.000000
 40
0.025600
  0
CIRCLE
  8
Default
 62
     9
  6
CONTINUOUS
 10
-6.086174
 20
-1.627417
 30
0.000000
 40
0.025600
  0
ARC
  8
CAM
 62
     9
  6
CONTINUOUS
 10
4.615341
 20
3.459809
 30
0.000000
 40
2.255356
 50
0.387495
 51
63.065750
  0
LINE
  8
CAM
 62
     9
  6
CONTINUOUS
 10
6.870645
 20
3.475062
 30
0.000000
 11
6.905116
 21
-1.621940
 31
0.000000
  0
ARC
  8
CAM
 62
     9
  6
CONTINUOUS
 10
6.092379
 20
-1.627436
 30
0.000000
 40
0.812756
 50
272.423876
 51
360.387495
  0
ARC
  8
CAM
 62
     9
  6
CONTINUOUS
 10
6.111739
 20
-2.084782
 30
0.000000
 40
0.355000
 50
270.128358
 51
272.423876
  0
LINE
  8
CAM
 62
     9
  6
CONTINUOUS
 10
6.112534
 20
-2.439782
 30
0.000000
 11
5.457483
 21
-2.441249
 31
0.000000
  0
ARC
  8
CAM
 62
     9
  6
CONTINUOUS
 10
0.000000
 20
-0.000000
 30
0.000000
 40
5.978613
 50
309.711182
 51
335.900009
  0
ARC
  8
CAM
 62
     9
  6
CONTINUOUS
 10
3.226857
 20
-4.865681
 30
0.000000
 40
0.650113
 50
295.521216
 51
384.198819
  0
LINE
  8
CAM
 62
     9
  6
CONTINUOUS
 10
3.506955
 20
-5.452360
 30
0.000000
 11
1.085464
 21
-6.608452
 31
0.000000
  0
ARC
  8
CAM
 62
     9
  6
CONTINUOUS
 10
0.805451
 20
-6.021951
 30
0.000000
 40
0.649917
 50
275.714903
 51
295.521216
  0
ARC
  8
CAM
 62
     9
  6
CONTINUOUS
 10
0.834818
 20
-6.315402
 30
0.000000
 40
0.355000
 50
275.131781
 51
275.714903
  0
ARC
  8
CAM
 62
     9
  6
CONTINUOUS
 10
0.135140
 20
1.475524
 30
0.000000
 40
8.177280
 50
229.864034
 51
275.131781
  0
ARC
  8
CAM
 62
     9
  6
CONTINUOUS
 10
-4.703301
 20
-4.208903
 30
0.000000
 40
0.713415
 50
153.255327
 51
232.665453
  0
LINE
  8
CAM
 62
     9
  6
CONTINUOUS
 10
-5.340396
 20
-3.887855
 30
0.000000
 11
-5.162373
 21
-3.534584
 31
0.000000
  0
LINE
  8
CAM
 62
     9
  6
CONTINUOUS
 10
-5.162373
 20
-3.534584
 30
0.000000
 11
-5.357284
 21
-3.245698
 31
0.000000
  0
LINE
  8
CAM
 62
     9
  6
CONTINUOUS
 10
-5.357284
 20
-3.245698
 30
0.000000
 11
-5.731015
 21
-3.252938
 31
0.000000
  0
ARC
  8
CAM
 62
     9
  6
CONTINUOUS
 10
-5.744747
 20
-2.544071
 30
0.000000
 40
0.709000
 50
204.417318
 51
271.109826
  0
LINE
  8
CAM
 62
     9
  6
CONTINUOUS
 10
-6.390334
 20
-2.837157
 30
0.000000
 11
-6.823806
 21
-2.017519
 31
0.000000
  0
ARC
  8
CAM
 62
     9
  6
CONTINUOUS
 10
-6.086174
 20
-1.627417
 30
0.000000
 40
0.834434
 50
167.837591
 51
207.872505
  0
LINE
  8
CAM
 62
     9
  6
CONTINUOUS
 10
-6.901879
 20
-1.451615
 30
0.000000
 11
-6.041018
 21
2.542710
 31
0.000000
  0
ARC
  8
CAM
 62
     9
  6
CONTINUOUS
 10
-5.393209
 20
2.403093
 30
0.000000
 40
0.662684
 50
142.299211
 51
167.837591
  0
LINE
  8
CAM
 62
     9
  6
CONTINUOUS
 10
-5.917534
 20
2.808350
 30
0.000000
 11
-2.810663
 21
6.828056
 31
0.000000
  0
ARC
  8
CAM
 62
     9
  6
CONTINUOUS
 10
-2.162051
 20
6.326738
 30
0.000000
 40
0.819767
 50
89.807428
 51
142.299211
  0
LINE
  8
CAM
 62
     9
  6
CONTINUOUS
 10
-2.159296
 20
7.146500
 30
0.000000
 11
2.167654
 21
7.131957
 31
0.000000
  0
ARC
  8
CAM
 62
     9
  6
CONTINUOUS
 10
2.164818
 20
6.288068
 30
0.000000
 40
0.843894
 50
63.065750
 51
89.807428
  0
LINE
  8
CAM
 62
     9
  6
CONTINUOUS
 10
2.547075
 20
7.040422
 30
0.000000
 11
5.636944
 21
5.470519
 31
0.000000
  0
ARC
  8
CAM
 62
     9
  6
CONTINUOUS
 10
4.615341
 20
3.459809
 30
0.000000
 40
2.407856
 50
0.387495
 51
63.065750
  0
LINE
  8
CAM
 62
     9
  6
CONTINUOUS
 10
7.023141
 20
3.476093
 30
0.000000
 11
7.057613
 21
-1.620908
 31
0.000000
  0
ARC
  8
CAM
 62
     9
  6
CONTINUOUS
 10
6.092379
 20
-1.627436
 30
0.000000
 40
0.965256
 50
272.423876
 51
360.387495
  0
ARC
  8
CAM
 62
     9
  6
CONTINUOUS
 10
6.111739
 20
-2.084782
 30
0.000000
 40
0.507500
 50
270.128358
 51
272.423876
  0
LINE
  8
CAM
 62
     9
  6
CONTINUOUS
 10
6.112876
 20
-2.592281
 30
0.000000
 11
5.555552
 21
-2.593530
 31
0.000000
  0
ARC
  8
CAM
 62
     9
  6
CONTINUOUS
 10
0.000000
 20
-0.000000
 30
0.000000
 40
6.131113
 50
310.713451
 51
334.975154
  0
ARC
  8
CAM
 62
     9
  6
CONTINUOUS
 10
3.226857
 20
-4.865681
 30
0.000000
 40
0.802613
 50
295.521216
 51
375.790848
  0
LINE
  8
CAM
 62
     9
  6
CONTINUOUS
 10
3.572659
 20
-5.589980
 30
0.000000
 11
1.151168
 21
-6.746072
 31
0.000000
  0
ARC
  8
CAM
 62
     9
  6
CONTINUOUS
 10
0.805451
 20
-6.021951
 30
0.000000
 40
0.802417
 50
275.714903
 51
295.521216
  0
ARC
  8
CAM
 62
     9
  6
CONTINUOUS
 10
0.834818
 20
-6.315402
 30
0.000000
 40
0.507500
 50
275.131781
 51
275.714903
  0
ARC
  8
CAM
 62
     9
  6
CONTINUOUS
 10
0.135140
 20
1.475524
 30
0.000000
 40
8.329780
 50
229.888559
 51
275.131781
  0
ARC
  8
CAM
 62
     9
  6
CONTINUOUS
 10
-4.703301
 20
-4.208903
 30
0.000000
 40
0.865915
 50
153.255327
 51
232.407924
  0
LINE
  8
CAM
 62
     9
  6
CONTINUOUS
 10
-5.476581
 20
-3.819228
 30
0.000000
 11
-5.338784
 21
-3.545779
 31
0.000000
  0
LINE
  8
CAM
 62
     9
  6
CONTINUOUS
 10
-5.338784
 20
-3.545779
 30
0.000000
 11
-5.437292
 21
-3.399776
 31
0.000000
  0
LINE
  8
CAM
 62
     9
  6
CONTINUOUS
 10
-5.437292
 20
-3.399776
 30
0.000000
 11
-5.728061
 21
-3.405409
 31
0.000000
  0
ARC
  8
CAM
 62
     9
  6
CONTINUOUS
 10
-5.744747
 20
-2.544071
 30
0.000000
 40
0.861500
 50
204.738098
 51
271.109826
  0
LINE
  8
CAM
 62
     9
  6
CONTINUOUS
 10
-6.527188
 20
-2.904584
 30
0.000000
 11
-6.958614
 21
-2.088814
 31
0.000000
  0
ARC
  8
CAM
 62
     9
  6
CONTINUOUS
 10
-6.086174
 20
-1.627417
 30
0.000000
 40
0.986934
 50
167.837591
 51
207.872505
  0
LINE
  8
CAM
 62
     9
  6
CONTINUOUS
 10
-7.050956
 20
-1.419486
 30
0.000000
 11
-6.190095
 21
2.574839
 31
0.000000
  0
ARC
  8
CAM
 62
     9
  6
CONTINUOUS
 10
-5.393209
 20
2.403093
 30
0.000000
 40
0.815184
 50
142.299211
 51
167.837591
  0
LINE
  8
CAM
 62
     9
  6
CONTINUOUS
 10
-6.038195
 20
2.901609
 30
0.000000
 11
-2.931324
 21
6.921316
 31
0.000000
  0
ARC
  8
CAM
 62
     9
  6
CONTINUOUS
 10
-2.162051
 20
6.326738
 30
0.000000
 40
0.972267
 50
89.807428
 51
142.299211
  0
LINE
  8
CAM
 62
     9
  6
CONTINUOUS
 10
-2.158783
 20
7.299000
 30
0.000000
 11
2.168167
 21
7.284457
 31
0.000000
  0
ARC
  8
CAM
 62
     9
  6
CONTINUOUS
 10
2.164818
 20
6.288068
 30
0.000000
 40
0.996394
 50
63.065750
 51
89.807428
  0
LINE
  8
CAM
 62
     9
  6
CONTINUOUS
 10
2.616152
 20
7.176380
 30
0.000000
 11
5.706021
 21
5.606477
 31
0.000000
  0
CIRCLE
  8
CAM
 62
     9
  6
CONTINUOUS
 10
0.000000
 20
0.000000
 30
0.000000
 40
2.645000
  0
CIRCLE
  8
CAM
 62
     9
  6
CONTINUOUS
 10
0.000000
 20
0.000000
 30
0.000000
 40
2.492500
  0
LINE
  8
DIM
 62
     7
  6
CONTINUOUS
 10
0.002540
 20
-0.000500
 30
0.000000
 11
7.460613
 21
-0.000500
 31
0.000000
  0
LINE
  8
DIM
 62
     7
  6
CONTINUOUS
 10
-2.157949
 20
6.791503
 30
0.000000
 11
7.460613
 21
6.791503
 31
0.000000
  0
LINE
  8
DIM
 62
     7
  6
CONTINUOUS
 10
7.456803
 20
-0.000500
 30
0.000000
 11
7.456803
 21
6.791503
 31
0.000000
  0
LINE
  8
DIM
 62
     7
  6
CONTINUOUS
 10
7.456803
 20
-0.000500
 30
0.000000
 11
7.444303
 21
0.024500
 31
0.000000
  0
LINE
  8
DIM
 62
     7
  6
CONTINUOUS
 10
7.456803
 20
-0.000500
 30
0.000000
 11
7.469303
 21
0.024500
 31
0.000000
  0
LINE
  8
DIM
 62
     7
  6
CONTINUOUS
 10
7.456803
 20
6.791503
 30
0.000000
 11
7.469303
 21
6.766503
 31
0.000000
  0
LINE
  8
DIM
 62
     7
  6
CONTINUOUS
 10
7.456803
 20
6.791503
 30
0.000000
 11
7.444303
 21
6.766503
 31
0.000000
  0
TEXT
  8
DIM
 62
     7
 10
7.375523
 20
5.142783
 30
0.000000
 40
0.200000
  1
6.792
 50
90.000003
 72
     1
 11
7.375523
 21
5.452782
 31
0.000000
  0
LINE
  8
DIM
 62
     7
  6
CONTINUOUS
 10
0.000000
 20
-0.003040
 30
0.000000
 11
0.000000
 21
-6.745350
 31
0.000000
  0
LINE
  8
DIM
 62
     7
  6
CONTINUOUS
 10
6.550135
 20
-1.629976
 30
0.000000
 11
6.550135
 21
-6.745350
 31
0.000000
  0
LINE
  8
DIM
 62
     7
  6
CONTINUOUS
 10
0.000000
 20
-6.741540
 30
0.000000
 11
6.550135
 21
-6.741540
 31
0.000000
  0
LINE
  8
DIM
 62
     7
  6
CONTINUOUS
 10
0.000000
 20
-6.741540
 30
0.000000
 11
0.025000
 21
-6.729040
 31
0.000000
  0
LINE
  8
DIM
 62
     7
  6
CONTINUOUS
 10
0.000000
 20
-6.741540
 30
0.000000
 11
0.025000
 21
-6.754040
 31
0.000000
  0
LINE
  8
DIM
 62
     7
  6
CONTINUOUS
 10
6.550135
 20
-6.741540
 30
0.000000
 11
6.525135
 21
-6.754040
 31
0.000000
  0
LINE
  8
DIM
 62
     7
  6
CONTINUOUS
 10
6.550135
 20
-6.741540
 30
0.000000
 11
6.525135
 21
-6.729040
 31
0.000000
  0
TEXT
  8
DIM
 62
     7
 10
5.204080
 20
-6.660260
 30
0.000000
 40
0.200000
  1
6.550
 72
     1
 11
5.514079
 21
-6.660260
 31
0.000000
  0
LINE
  8
DIM
 62
     7
  6
CONTINUOUS
 10
0.002540
 20
-0.000500
 30
0.000000
 11
7.460613
 21
-0.000500
 31
0.000000
  0
LINE
  8
DIM
 62
     7
  6
CONTINUOUS
 10
0.137680
 20
-6.346757
 30
0.000000
 11
7.460613
 21
-6.346757
 31
0.000000
  0
LINE
  8
DIM
 62
     7
  6
CONTINUOUS
 10
7.456803
 20
-0.000500
 30
0.000000
 11
7.456803
 21
-6.346757
 31
0.000000
  0
LINE
  8
DIM
 62
     7
  6
CONTINUOUS
 10
7.456803
 20
-0.000500
 30
0.000000
 11
7.469303
 21
-0.025500
 31
0.000000
  0
LINE
  8
DIM
 62
     7
  6
CONTINUOUS
 10
7.456803
 20
-0.000500
 30
0.000000
 11
7.444303
 21
-0.025500
 31
0.000000
  0
LINE
  8
DIM
 62
     7
  6
CONTINUOUS
 10
7.456803
 20
-6.346757
 30
0.000000
 11
7.444303
 21
-6.321757
 31
0.000000
  0
LINE
  8
DIM
 62
     7
  6
CONTINUOUS
 10
7.456803
 20
-6.346757
 30
0.000000
 11
7.469303
 21
-6.321757
 31
0.000000
  0
TEXT
  8
DIM
 62
     7
 10
7.375523
 20
-4.192288
 30
0.000000
 40
0.200000
  1
6.346
 50
90.000003
 72
     1
 11
7.375523
 21
-3.872288
 31
0.000000
  0
LINE
  8
DIM
 62
     7
  6
CONTINUOUS
 10
0.000000
 20
-0.003040
 30
0.000000
 11
0.000000
 21
-6.745350
 31
0.000000
  0
LINE
  8
DIM
 62
     7
  6
CONTINUOUS
 10
-6.565609
 20
-1.629956
 30
0.000000
 11
-6.565609
 21
-6.745350
 31
0.000000
  0
LINE
  8
DIM
 62
     7
  6
CONTINUOUS
 10
0.000000
 20
-6.741540
 30
0.000000
 11
-6.565609
 21
-6.741540
 31
0.000000
  0
LINE
  8
DIM
 62
     7
  6
CONTINUOUS
 10
0.000000
 20
-6.741540
 30
0.000000
 11
-0.025000
 21
-6.754040
 31
0.000000
  0
LINE
  8
DIM
 62
     7
  6
CONTINUOUS
 10
0.000000
 20
-6.741540
 30
0.000000
 11
-0.025000
 21
-6.729040
 31
0.000000
  0
LINE
  8
DIM
 62
     7
  6
CONTINUOUS
 10
-6.565609
 20
-6.741540
 30
0.000000
 11
-6.540609
 21
-6.729040
 31
0.000000
  0
LINE
  8
DIM
 62
     7
  6
CONTINUOUS
 10
-6.565609
 20
-6.741540
 30
0.000000
 11
-6.540609
 21
-6.754040
 31
0.000000
  0
TEXT
  8
DIM
 62
     7
 10
-6.332706
 20
-6.660260
 30
0.000000
 40
0.200000
  1
6.566
 72
     1
 11
-6.022706
 21
-6.660260
 31
0.000000
  0
TEXT
  8
DIM
 62
     7
 10
-3.927372
 20
4.556141
 30
0.000000
 40
0.200000
  1
Countersink holes on back side
 72
     1
 11
-2.107372
 21
4.556141
 31
0.000000
  0
ENDSEC
  0
EOF
