  0
SECTION
  2
HEADER
  9
$ACADVER
  1
AC1006
  0
ENDSEC
  0
SECTION
  2
TABLES
  0
TABLE
  2
LTYPE
 70
    25
  0
LTYPE
  2
CONTINUOUS
 70
    64
  3
Solid line
 72
    64
 73
     0
 40
0.000000
  0
LTYPE
  2
DASHDOT
 70
    64
  3
__ . __ . __ . __ . __ . __ . __ . __ . __ . __
 72
    65
 73
     4
 40
1.000000
 49
0.500000
 49
-0.250000
 49
0.000000
 49
-0.250000
  0
LTYPE
  2
DASHED
 70
    64
  3
__ __ __ __ __ __ __ __ __ __ __ __ __ __ __ __
 72
    65
 73
     2
 40
0.750000
 49
0.500000
 49
-0.250000
  0
LTYPE
  2
DIVIDE
 70
    64
  3
____ . . ____ . . ____ . . ____ . . ____ . . __
 72
    65
 73
     6
 40
1.250000
 49
0.500000
 49
-0.250000
 49
0.000000
 49
-0.250000
 49
0.000000
 49
-0.250000
  0
LTYPE
  2
DOT
 70
    64
  3
. . . . . . . . . . . . . . . . . . . . . . . . 
 72
    65
 73
     2
 40
0.250000
 49
0.000000
 49
-0.250000
  0
ENDTAB
  0
ENDSEC
  0
SECTION
  2
BLOCKS
  0
BLOCK
  8
0
  2
Object_0
 70
    64
 10
0.000000
 20
0.000000
 30
0.000000
  0
ENDBLK
  0
ENDSEC
  0
SECTION
  2
ENTITIES
  0
CIRCLE
  8
Default
 62
     9
  6
CONTINUOUS
 10
0.000000
 20
0.000000
 30
0.000000
 40
4.251000
  0
CIRCLE
  8
Default
 62
     9
  6
CONTINUOUS
 10
3.625000
 20
0.000000
 30
0.000000
 40
0.265625
  0
CIRCLE
  8
Default
 62
     9
  6
CONTINUOUS
 10
0.000000
 20
-3.625000
 30
0.000000
 40
0.265625
  0
CIRCLE
  8
Default
 62
     9
  6
CONTINUOUS
 10
-3.625000
 20
0.000000
 30
0.000000
 40
0.265625
  0
CIRCLE
  8
Default
 62
     9
  6
CONTINUOUS
 10
0.000000
 20
3.625000
 30
0.000000
 40
0.265625
  0
CIRCLE
  8
Default
 62
     9
  6
CONTINUOUS
 10
0.000000
 20
0.000000
 30
0.000000
 40
3.000000
  0
POINT
  8
Default
 62
     9
 10
3.625000
 20
0.000000
 30
0.000000
  0
POINT
  8
Default
 62
     9
 10
0.000000
 20
-3.625000
 30
0.000000
  0
POINT
  8
Default
 62
     9
 10
-3.625000
 20
0.000000
 30
0.000000
  0
POINT
  8
Default
 62
     7
 10
0.759362
 20
-0.031130
 30
0.000000
  0
POINT
  8
Default
 62
     9
 10
0.000000
 20
3.625000
 30
0.000000
  0
LINE
  8
Default
 62
     6
  6
CONTINUOUS
 10
0.000000
 20
0.000000
 30
0.000000
 11
1.021578
 21
6.196352
 31
0.000000
  0
POINT
  8
Default
 62
     7
 10
7.689832
 20
2.206011
 30
0.000000
  0
POINT
  8
Default
 62
     7
 10
3.743683
 20
5.008478
 30
0.000000
  0
LINE
  8
Default
 62
     6
  6
CONTINUOUS
 10
0.000000
 20
0.000000
 30
0.000000
 11
0.759362
 21
-0.031130
 31
0.000000
  0
LINE
  8
Default
 62
     6
  6
CONTINUOUS
 10
0.759362
 20
-0.031130
 30
0.000000
 11
1.021578
 21
6.196352
 31
0.000000
  0
LINE
  8
Default
 62
     6
  6
CONTINUOUS
 10
0.534330
 20
-6.203029
 30
0.000000
 11
0.000000
 21
0.000000
 31
0.000000
  0
LINE
  8
Default
 62
     6
  6
CONTINUOUS
 10
0.759362
 20
-0.031130
 30
0.000000
 11
0.534330
 21
-6.203029
 31
0.000000
  0
POINT
  8
Default
 62
     9
 10
0.000000
 20
0.000000
 30
0.000000
  0
CIRCLE
  8
Default
 62
     6
  6
CONTINUOUS
 10
7.689832
 20
2.206011
 30
0.000000
 40
0.218750
  0
CIRCLE
  8
Default
 62
     6
  6
CONTINUOUS
 10
7.777310
 20
-1.978402
 30
0.000000
 40
0.218750
  0
POINT
  8
Default
 62
     7
 10
1.021578
 20
6.196352
 30
0.000000
  0
POINT
  8
Default
 62
     7
 10
-1.292008
 20
7.474152
 30
0.000000
  0
CIRCLE
  8
Default
 62
     6
  6
CONTINUOUS
 10
3.743683
 20
5.008478
 30
0.000000
 40
0.218750
  0
CIRCLE
  8
Default
 62
     6
  6
CONTINUOUS
 10
1.021578
 20
6.196352
 30
0.000000
 40
0.305000
  0
POINT
  8
Default
 62
     7
 10
-4.842291
 20
7.125338
 30
0.000000
  0
POINT
  8
Default
 62
     7
 10
-5.257676
 20
3.997858
 30
0.000000
  0
CIRCLE
  8
Default
 62
     6
  6
CONTINUOUS
 10
-1.292008
 20
7.474152
 30
0.000000
 40
0.218750
  0
CIRCLE
  8
Default
 62
     6
  6
CONTINUOUS
 10
0.534330
 20
-6.203029
 30
0.000000
 40
0.305000
  0
POINT
  8
Default
 62
     7
 10
-5.070854
 20
-3.855300
 30
0.000000
  0
CIRCLE
  8
Default
 62
     6
  6
CONTINUOUS
 10
-4.842291
 20
7.125338
 30
0.000000
 40
0.218750
  0
POINT
  8
Default
 62
     7
 10
0.534330
 20
-6.203029
 30
0.000000
  0
CIRCLE
  8
Default
 62
     6
  6
CONTINUOUS
 10
-5.070854
 20
-3.855300
 30
0.000000
 40
0.218750
  0
POINT
  8
Default
 62
     7
 10
3.874959
 20
-4.907617
 30
0.000000
  0
CIRCLE
  8
Default
 62
     6
  6
CONTINUOUS
 10
3.874959
 20
-4.907617
 30
0.000000
 40
0.218750
  0
POINT
  8
Default
 62
     7
 10
7.777310
 20
-1.978402
 30
0.000000
  0
CIRCLE
  8
Default
 62
     6
  6
CONTINUOUS
 10
-5.257676
 20
3.997858
 30
0.000000
 40
0.218750
  0
POINT
  8
Default
 62
     7
 10
-1.328504
 20
7.947747
 30
0.000000
  0
LINE
  8
Default
 62
     6
  6
CONTINUOUS
 10
8.235175
 20
-2.349385
 30
0.000000
 11
8.181736
 21
2.598523
 31
0.000000
  0
ARC
  8
Default
 62
     6
  6
CONTINUOUS
 10
7.735284
 20
-2.359835
 30
0.000000
 40
0.500000
 50
281.802595
 51
361.197631
  0
LINE
  8
Default
 62
     6
  6
CONTINUOUS
 10
5.958397
 20
-3.252378
 30
0.000000
 11
7.837554
 21
-2.849264
 31
0.000000
  0
POINT
  8
Default
 62
     7
 10
4.023897
 20
5.467742
 30
0.000000
  0
POINT
  8
Default
 62
     7
 10
4.167443
 20
-5.359166
 30
0.000000
  0
POINT
  8
Default
 62
     7
 10
1.957209
 20
-6.177356
 30
0.000000
  0
POINT
  8
Default
 62
     7
 10
1.792992
 20
6.227004
 30
0.000000
  0
POINT
  8
Default
 62
     7
 10
5.464619
 20
3.482576
 30
0.000000
  0
POINT
  8
Default
 62
     7
 10
5.554897
 20
-3.336692
 30
0.000000
  0
ARC
  8
Default
 62
     6
  6
CONTINUOUS
 10
6.162937
 20
-4.231236
 30
0.000000
 40
1.000000
 50
101.802595
 51
146.606931
  0
LINE
  8
Default
 62
     6
  6
CONTINUOUS
 10
5.328023
 20
-3.680856
 30
0.000000
 11
4.324142
 21
-5.203721
 31
0.000000
  0
ARC
  8
Default
 62
     6
  6
CONTINUOUS
 10
3.874959
 20
-4.907617
 30
0.000000
 40
0.538000
 50
302.932598
 51
326.606931
  0
LINE
  8
Default
 62
     6
  6
CONTINUOUS
 10
4.167443
 20
-5.359166
 30
0.000000
 11
0.704559
 21
-6.657173
 31
0.000000
  0
ARC
  8
Default
 62
     6
  6
CONTINUOUS
 10
0.534330
 20
-6.203029
 30
0.000000
 40
0.485000
 50
274.923318
 51
290.547710
  0
ARC
  8
Default
 62
     6
  6
CONTINUOUS
 10
0.000000
 20
0.000000
 30
0.000000
 40
6.711000
 50
268.266389
 51
274.923318
  0
ARC
  8
Default
 62
     6
  6
CONTINUOUS
 10
-0.200000
 20
-6.607974
 30
-0.000000
 40
0.100000
 50
180.000000
 51
268.266389
  0
LINE
  8
Default
 62
     6
  6
CONTINUOUS
 10
-0.300000
 20
-6.607974
 30
-0.000000
 11
-0.300000
 21
-6.596668
 31
0.000000
  0
ARC
  8
Default
 62
     6
  6
CONTINUOUS
 10
-0.800000
 20
-6.596668
 30
0.000000
 40
0.500000
 50
0.000000
 51
83.085315
  0
ARC
  8
Default
 62
     6
  6
CONTINUOUS
 10
0.000000
 20
0.000000
 30
0.000000
 40
6.145000
 50
239.339171
 51
263.085315
  0
ARC
  8
Default
 62
     6
  6
CONTINUOUS
 10
-9.253132
 20
-15.608349
 30
0.000000
 40
12.000000
 50
59.339171
 51
70.412092
  0
ARC
  8
Default
 62
     6
  6
CONTINUOUS
 10
-5.070854
 20
-3.855300
 30
0.000000
 40
0.475000
 50
197.755291
 51
250.412092
  0
POINT
  8
Default
 62
     7
 10
1.057262
 20
6.733167
 30
0.000000
  0
LINE
  8
Default
 62
     6
  6
CONTINUOUS
 10
-6.171342
 20
-1.976091
 30
0.000000
 11
-5.523229
 21
-4.000152
 31
0.000000
  0
ARC
  8
Default
 62
     6
  6
CONTINUOUS
 10
0.000000
 20
0.000000
 30
0.000000
 40
6.480000
 50
153.915800
 51
197.755291
  0
LINE
  8
Default
 62
     6
  6
CONTINUOUS
 10
-5.689045
 20
3.116710
 30
0.000000
 11
-5.820005
 21
2.849201
 31
0.000000
  0
POINT
  8
Default
 62
     7
 10
-4.884549
 20
7.673712
 30
0.000000
  0
POINT
  8
Default
 62
     7
 10
-4.863680
 20
7.343040
 30
0.000000
  0
POINT
  8
Default
 62
     7
 10
-3.106527
 20
7.810730
 30
0.000000
  0
POINT
  8
Default
 62
     7
 10
-1.313397
 20
7.691853
 30
0.000000
  0
ARC
  8
Default
 62
     6
  6
CONTINUOUS
 10
-6.227934
 20
3.380525
 30
0.000000
 40
0.600000
 50
333.915800
 51
392.466819
  0
ARC
  8
Default
 62
     6
  6
CONTINUOUS
 10
-5.257676
 20
3.997858
 30
0.000000
 40
0.550000
 50
172.434373
 51
212.466819
  0
LINE
  8
Default
 62
     6
  6
CONTINUOUS
 10
-5.802888
 20
4.070271
 30
0.000000
 11
-5.387503
 21
7.197752
 31
0.000000
  0
ARC
  8
Default
 62
     6
  6
CONTINUOUS
 10
-4.842291
 20
7.125338
 30
0.000000
 40
0.550000
 50
64.395379
 51
172.434373
  0
ARC
  8
Default
 62
     6
  6
CONTINUOUS
 10
-4.366916
 20
8.117316
 30
-0.000000
 40
0.550000
 50
244.395379
 51
287.060009
  0
ARC
  8
Default
 62
     6
  6
CONTINUOUS
 10
-2.573199
 20
2.272233
 30
0.000000
 40
5.564116
 50
83.089206
 51
107.060009
  0
ARC
  8
Default
 62
     6
  6
CONTINUOUS
 10
-1.837525
 20
8.341928
 30
-0.000000
 40
0.550000
 50
263.089206
 51
302.155027
  0
ARC
  8
Default
 62
     6
  6
CONTINUOUS
 10
-1.292008
 20
7.474152
 30
0.000000
 40
0.475000
 50
6.217008
 51
122.155027
  0
LINE
  8
Default
 62
     6
  6
CONTINUOUS
 10
-0.819801
 20
7.525591
 30
0.000000
 11
-0.810127
 21
7.436782
 31
0.000000
  0
ARC
  8
Default
 62
     6
  6
CONTINUOUS
 10
-0.114244
 20
7.512588
 30
0.000000
 40
0.700000
 50
186.217008
 51
266.196877
  0
LINE
  8
Default
 62
     6
  6
CONTINUOUS
 10
-0.160673
 20
6.814129
 30
0.000000
 11
1.057262
 21
6.733167
 31
0.000000
  0
ARC
  8
Default
 62
     6
  6
CONTINUOUS
 10
1.021578
 20
6.196352
 30
0.000000
 40
0.538000
 50
66.330415
 51
86.196877
  0
LINE
  8
Default
 62
     6
  6
CONTINUOUS
 10
4.023897
 20
5.467742
 30
0.000000
 11
1.237564
 21
6.689093
 31
0.000000
  0
ARC
  8
Default
 62
     6
  6
CONTINUOUS
 10
3.743683
 20
5.008478
 30
0.000000
 40
0.538000
 50
34.910021
 51
58.611081
  0
LINE
  8
Default
 62
     6
  6
CONTINUOUS
 10
5.226454
 20
3.823851
 30
0.000000
 11
4.184870
 21
5.316369
 31
0.000000
  0
ARC
  8
Default
 62
     6
  6
CONTINUOUS
 10
6.046506
 20
4.396140
 30
0.000000
 40
1.000000
 50
214.910021
 51
260.100532
  0
LINE
  8
DIM
 62
     7
  6
CONTINUOUS
 10
0.000000
 20
-0.008128
 30
0.000000
 11
-0.000000
 21
-6.994550
 31
0.000000
  0
LINE
  8
DIM
 62
     7
  6
CONTINUOUS
 10
8.235284
 20
-2.367963
 30
-0.000000
 11
8.235284
 21
-6.994550
 31
-0.000000
  0
LINE
  8
DIM
 62
     7
  6
CONTINUOUS
 10
0.000000
 20
-6.982358
 30
0.000000
 11
8.235284
 21
-6.982358
 31
-0.000000
  0
LINE
  8
DIM
 62
     7
  6
CONTINUOUS
 10
0.000000
 20
-6.982358
 30
0.000000
 11
0.080000
 21
-6.970358
 31
0.000000
  0
LINE
  8
DIM
 62
     7
  6
CONTINUOUS
 10
0.000000
 20
-6.982358
 30
0.000000
 11
0.080000
 21
-6.994358
 31
0.000000
  0
LINE
  8
DIM
 62
     7
  6
CONTINUOUS
 10
8.235284
 20
-6.982358
 30
-0.000000
 11
8.155284
 21
-6.994358
 31
-0.000000
  0
LINE
  8
DIM
 62
     7
  6
CONTINUOUS
 10
8.235284
 20
-6.982358
 30
-0.000000
 11
8.155284
 21
-6.970358
 31
-0.000000
  0
TEXT
  8
DIM
 62
     7
 10
7.180733
 20
-6.901078
 30
0.000000
 40
0.200000
  1
8.235
 72
     1
 11
7.488024
 21
-6.901078
 31
0.000000
  0
LINE
  8
DIM
 62
     7
  6
CONTINUOUS
 10
0.229330
 20
-6.200489
 30
0.000000
 11
0.229330
 21
-5.294219
 31
0.000000
  0
LINE
  8
DIM
 62
     7
  6
CONTINUOUS
 10
0.839330
 20
-6.200489
 30
0.000000
 11
0.839330
 21
-5.294219
 31
0.000000
  0
LINE
  8
DIM
 62
     7
  6
CONTINUOUS
 10
0.229330
 20
-5.298029
 30
0.000000
 11
1.686628
 21
-5.298029
 31
0.000000
  0
LINE
  8
DIM
 62
     7
  6
CONTINUOUS
 10
0.229330
 20
-5.298029
 30
0.000000
 11
0.254330
 21
-5.285529
 31
0.000000
  0
LINE
  8
DIM
 62
     7
  6
CONTINUOUS
 10
0.229330
 20
-5.298029
 30
0.000000
 11
0.254330
 21
-5.310529
 31
0.000000
  0
LINE
  8
DIM
 62
     7
  6
CONTINUOUS
 10
0.839330
 20
-5.298029
 30
0.000000
 11
0.814330
 21
-5.310529
 31
0.000000
  0
LINE
  8
DIM
 62
     7
  6
CONTINUOUS
 10
0.839330
 20
-5.298029
 30
0.000000
 11
0.814330
 21
-5.285529
 31
0.000000
  0
TEXT
  8
DIM
 62
     7
 10
1.101548
 20
-5.196208
 30
0.000000
 40
0.200000
  1
0.610
 72
     1
 11
1.391548
 21
-5.196208
 31
0.000000
  0
LINE
  8
DIM
 62
     7
  6
CONTINUOUS
 10
7.558560
 20
-1.975862
 30
0.000000
 11
7.558560
 21
-1.155842
 31
0.000000
  0
LINE
  8
DIM
 62
     7
  6
CONTINUOUS
 10
7.996060
 20
-1.975862
 30
0.000000
 11
7.996060
 21
-1.155842
 31
0.000000
  0
LINE
  8
DIM
 62
     7
  6
CONTINUOUS
 10
7.452230
 20
-1.159652
 30
0.000000
 11
8.102390
 21
-1.159652
 31
0.000000
  0
LINE
  8
DIM
 62
     7
  6
CONTINUOUS
 10
7.558560
 20
-1.159652
 30
0.000000
 11
7.583560
 21
-1.147152
 31
0.000000
  0
LINE
  8
DIM
 62
     7
  6
CONTINUOUS
 10
7.558560
 20
-1.159652
 30
0.000000
 11
7.583560
 21
-1.172152
 31
0.000000
  0
LINE
  8
DIM
 62
     7
  6
CONTINUOUS
 10
7.996060
 20
-1.159652
 30
0.000000
 11
7.971060
 21
-1.172152
 31
0.000000
  0
LINE
  8
DIM
 62
     7
  6
CONTINUOUS
 10
7.996060
 20
-1.159652
 30
0.000000
 11
7.971060
 21
-1.147152
 31
0.000000
  0
TEXT
  8
DIM
 62
     7
 10
7.457310
 20
-1.078372
 30
0.000000
 40
0.200000
  1
0.438
 72
     1
 11
7.777310
 21
-1.078372
 31
0.000000
  0
LINE
  8
Default
 62
     6
  6
CONTINUOUS
 10
5.874586
 20
3.411029
 30
0.000000
 11
7.767805
 21
3.080628
 31
0.000000
  0
ARC
  8
Default
 62
     6
  6
CONTINUOUS
 10
7.681845
 20
2.588072
 30
0.000000
 40
0.500000
 50
1.197631
 51
80.100532
  0
LINE
  8
DIM
 62
     7
  6
CONTINUOUS
 10
0.008128
 20
-0.000000
 30
-0.000000
 11
0.017659
 21
-0.000000
 31
-0.000000
  0
LINE
  8
DIM
 62
     7
  6
CONTINUOUS
 10
-1.283880
 20
7.949152
 30
0.000000
 11
0.017660
 21
7.949151
 31
0.000000
  0
LINE
  8
DIM
 62
     7
  6
CONTINUOUS
 10
0.005467
 20
0.000000
 30
-0.000000
 11
0.005468
 21
7.949151
 31
0.000000
  0
LINE
  8
DIM
 62
     7
  6
CONTINUOUS
 10
0.005467
 20
0.000000
 30
-0.000000
 11
-0.006533
 21
0.080000
 31
0.000000
  0
LINE
  8
DIM
 62
     7
  6
CONTINUOUS
 10
0.005467
 20
0.000000
 30
-0.000000
 11
0.017467
 21
0.080000
 31
0.000000
  0
LINE
  8
DIM
 62
     7
  6
CONTINUOUS
 10
0.005468
 20
7.949151
 30
0.000000
 11
0.017468
 21
7.869151
 31
0.000000
  0
LINE
  8
DIM
 62
     7
  6
CONTINUOUS
 10
0.005468
 20
7.949151
 30
0.000000
 11
-0.006532
 21
7.869151
 31
0.000000
  0
TEXT
  8
DIM
 62
     7
 10
0.086748
 20
7.915355
 30
-0.000000
 40
0.200000
  1
7.949
 50
-90.000003
 72
     1
 11
0.086748
 21
7.608063
 31
-0.000000
  0
LINE
  8
DIM
 62
     7
  6
CONTINUOUS
 10
-5.476426
 20
4.000397
 30
0.000000
 11
-5.476426
 21
4.820417
 31
0.000000
  0
LINE
  8
DIM
 62
     7
  6
CONTINUOUS
 10
-5.038926
 20
4.000397
 30
0.000000
 11
-5.038926
 21
4.820417
 31
0.000000
  0
LINE
  8
DIM
 62
     7
  6
CONTINUOUS
 10
-5.582756
 20
4.816607
 30
0.000000
 11
-4.932596
 21
4.816607
 31
0.000000
  0
LINE
  8
DIM
 62
     7
  6
CONTINUOUS
 10
-5.476426
 20
4.816607
 30
0.000000
 11
-5.451426
 21
4.829107
 31
0.000000
  0
LINE
  8
DIM
 62
     7
  6
CONTINUOUS
 10
-5.476426
 20
4.816607
 30
0.000000
 11
-5.451426
 21
4.804107
 31
0.000000
  0
LINE
  8
DIM
 62
     7
  6
CONTINUOUS
 10
-5.038926
 20
4.816607
 30
0.000000
 11
-5.063926
 21
4.804107
 31
0.000000
  0
LINE
  8
DIM
 62
     7
  6
CONTINUOUS
 10
-5.038926
 20
4.816607
 30
0.000000
 11
-5.063926
 21
4.829107
 31
0.000000
  0
TEXT
  8
DIM
 62
     7
 10
-5.577677
 20
4.897887
 30
0.000000
 40
0.200000
  1
0.438
 72
     1
 11
-5.257676
 21
4.897887
 31
0.000000
  0
LINE
  8
DIM
 62
     7
  6
CONTINUOUS
 10
0.000000
 20
-0.008128
 30
0.000000
 11
-0.000000
 21
-7.010126
 31
0.000000
  0
LINE
  8
DIM
 62
     7
  6
CONTINUOUS
 10
-6.454186
 20
-0.259311
 30
-0.000000
 11
-6.454187
 21
-7.010126
 31
-0.000000
  0
LINE
  8
DIM
 62
     7
  6
CONTINUOUS
 10
-0.000000
 20
-6.997934
 30
0.000000
 11
-6.599795
 21
-6.997934
 31
-0.000000
  0
LINE
  8
DIM
 62
     7
  6
CONTINUOUS
 10
-0.000000
 20
-6.997934
 30
0.000000
 11
-0.080000
 21
-7.009934
 31
0.000000
  0
LINE
  8
DIM
 62
     7
  6
CONTINUOUS
 10
-0.000000
 20
-6.997934
 30
0.000000
 11
-0.080000
 21
-6.985934
 31
0.000000
  0
LINE
  8
DIM
 62
     7
  6
CONTINUOUS
 10
-6.454187
 20
-6.997934
 30
-0.000000
 11
-6.374187
 21
-6.985934
 31
-0.000000
  0
LINE
  8
DIM
 62
     7
  6
CONTINUOUS
 10
-6.454187
 20
-6.997934
 30
-0.000000
 11
-6.374187
 21
-7.009934
 31
-0.000000
  0
TEXT
  8
DIM
 62
     7
 10
-6.803550
 20
-6.690642
 30
0.000000
 40
0.200000
  1
6.454
 50
-90.000003
 72
     1
 11
-6.803550
 21
-6.997934
 31
0.000000
  0
LINE
  8
DIM
 62
     7
  6
CONTINUOUS
 10
-0.008128
 20
-0.000000
 30
-0.000000
 11
-0.903898
 21
0.000000
 31
-0.000000
  0
LINE
  8
DIM
 62
     7
  6
CONTINUOUS
 10
-0.211153
 20
-6.707928
 30
-0.000000
 11
-0.903898
 21
-6.707928
 31
-0.000000
  0
LINE
  8
DIM
 62
     7
  6
CONTINUOUS
 10
-0.891706
 20
-0.000000
 30
-0.000000
 11
-0.891707
 21
-7.788012
 31
-0.000000
  0
LINE
  8
DIM
 62
     7
  6
CONTINUOUS
 10
-0.891706
 20
-0.000000
 30
-0.000000
 11
-0.879706
 21
-0.080000
 31
-0.000000
  0
LINE
  8
DIM
 62
     7
  6
CONTINUOUS
 10
-0.891706
 20
-0.000000
 30
-0.000000
 11
-0.903706
 21
-0.080000
 31
-0.000000
  0
LINE
  8
DIM
 62
     7
  6
CONTINUOUS
 10
-0.891706
 20
-6.707928
 30
-0.000000
 11
-0.903706
 21
-6.627928
 31
-0.000000
  0
LINE
  8
DIM
 62
     7
  6
CONTINUOUS
 10
-0.891706
 20
-6.707928
 30
-0.000000
 11
-0.879706
 21
-6.627928
 31
-0.000000
  0
TEXT
  8
DIM
 62
     7
 10
-0.810427
 20
-7.157173
 30
0.000000
 40
0.200000
  1
6.708
 50
-90.000003
 72
     1
 11
-0.810427
 21
-7.464464
 31
0.000000
  0
INSERT
  8
Default
 62
     7
  2
Object_0
 10
-10.160000
 20
-10.160000
 30
0.000000
  0
CIRCLE
  8
CAM
 62
     7
  6
CONTINUOUS
 10
0.000000
 20
0.000000
 30
0.000000
 40
2.625000
  0
LINE
  8
CAM
 62
     7
  6
CONTINUOUS
 10
9.572455
 20
1.613485
 30
0.000000
 11
10.572397
 21
1.624285
 31
0.000000
  0
ARC
  8
CAM
 62
     7
  6
CONTINUOUS
 10
9.561655
 20
2.613427
 30
0.000000
 40
1.000000
 50
180.618791
 51
270.618791
  0
ARC
  8
CAM
 62
     7
  6
CONTINUOUS
 10
8.181736
 20
2.598523
 30
0.000000
 40
0.380000
 50
0.618791
 51
1.197631
  0
ARC
  8
CAM
 62
     7
  6
CONTINUOUS
 10
7.681845
 20
2.588072
 30
0.000000
 40
0.880000
 50
1.197631
 51
80.100532
  0
LINE
  8
CAM
 62
     7
  6
CONTINUOUS
 10
5.939915
 20
3.785371
 30
0.000000
 11
7.833134
 21
3.454970
 31
0.000000
  0
ARC
  8
CAM
 62
     7
  6
CONTINUOUS
 10
6.046506
 20
4.396140
 30
0.000000
 40
0.620000
 50
214.910021
 51
260.100532
  0
LINE
  8
CAM
 62
     7
  6
CONTINUOUS
 10
4.496490
 20
5.533839
 30
0.000000
 11
5.538074
 21
4.041321
 31
0.000000
  0
ARC
  8
CAM
 62
     7
  6
CONTINUOUS
 10
3.743683
 20
5.008478
 30
0.000000
 40
0.918000
 50
34.910021
 51
58.611081
  0
ARC
  8
CAM
 62
     7
  6
CONTINUOUS
 10
4.023897
 20
5.467742
 30
0.000000
 40
0.380000
 50
58.611081
 51
66.330415
  0
LINE
  8
CAM
 62
     7
  6
CONTINUOUS
 10
1.390119
 20
7.037126
 30
0.000000
 11
4.176452
 21
5.815775
 31
0.000000
  0
ARC
  8
CAM
 62
     7
  6
CONTINUOUS
 10
1.021578
 20
6.196352
 30
0.000000
 40
0.918000
 50
66.330415
 51
86.196877
  0
LINE
  8
CAM
 62
     7
  6
CONTINUOUS
 10
-0.135469
 20
7.193292
 30
0.000000
 11
1.082467
 21
7.112331
 31
0.000000
  0
ARC
  8
CAM
 62
     7
  6
CONTINUOUS
 10
-0.114244
 20
7.512588
 30
0.000000
 40
0.320000
 50
186.217008
 51
266.196877
  0
LINE
  8
CAM
 62
     7
  6
CONTINUOUS
 10
-0.442036
 20
7.566743
 30
0.000000
 11
-0.432362
 21
7.477933
 31
0.000000
  0
ARC
  8
CAM
 62
     7
  6
CONTINUOUS
 10
-1.292008
 20
7.474152
 30
0.000000
 40
0.855000
 50
6.217008
 51
122.155027
  0
ARC
  8
CAM
 62
     7
  6
CONTINUOUS
 10
-1.837525
 20
8.341928
 30
-0.000000
 40
0.170000
 50
263.089206
 51
302.155027
  0
ARC
  8
CAM
 62
     7
  6
CONTINUOUS
 10
-2.573199
 20
2.272233
 30
0.000000
 40
5.944116
 50
83.089206
 51
107.060009
  0
ARC
  8
CAM
 62
     7
  6
CONTINUOUS
 10
-4.366916
 20
8.117316
 30
-0.000000
 40
0.170000
 50
244.395379
 51
287.060009
  0
ARC
  8
CAM
 62
     7
  6
CONTINUOUS
 10
-4.842291
 20
7.125338
 30
0.000000
 40
0.930000
 50
64.395379
 51
172.434373
  0
LINE
  8
CAM
 62
     7
  6
CONTINUOUS
 10
-6.179580
 20
4.120303
 30
0.000000
 11
-5.764195
 21
7.247784
 31
0.000000
  0
ARC
  8
CAM
 62
     7
  6
CONTINUOUS
 10
-5.257676
 20
3.997858
 30
0.000000
 40
0.930000
 50
172.434373
 51
212.466819
  0
ARC
  8
CAM
 62
     7
  6
CONTINUOUS
 10
-6.227934
 20
3.380525
 30
0.000000
 40
0.220000
 50
333.915800
 51
392.466819
  0
LINE
  8
CAM
 62
     7
  6
CONTINUOUS
 10
-6.161301
 20
3.016284
 30
0.000000
 11
-6.030341
 21
3.283793
 31
0.000000
  0
ARC
  8
CAM
 62
     7
  6
CONTINUOUS
 10
0.000000
 20
0.000000
 30
0.000000
 40
6.860000
 50
153.915800
 51
197.755291
  0
LINE
  8
CAM
 62
     7
  6
CONTINUOUS
 10
-5.885129
 20
-4.116034
 30
0.000000
 11
-6.533242
 21
-2.091972
 31
0.000000
  0
ARC
  8
CAM
 62
     7
  6
CONTINUOUS
 10
-5.070854
 20
-3.855300
 30
0.000000
 40
0.855000
 50
197.755291
 51
250.412092
  0
ARC
  8
CAM
 62
     7
  6
CONTINUOUS
 10
-9.253132
 20
-15.608349
 30
0.000000
 40
11.620000
 50
59.339171
 51
70.412092
  0
ARC
  8
CAM
 62
     7
  6
CONTINUOUS
 10
0.000000
 20
0.000000
 30
0.000000
 40
6.525000
 50
239.339171
 51
263.085315
  0
ARC
  8
CAM
 62
     7
  6
CONTINUOUS
 10
-0.800000
 20
-6.596668
 30
0.000000
 40
0.120000
 50
0.000000
 51
83.085315
  0
LINE
  8
CAM
 62
     7
  6
CONTINUOUS
 10
-0.680000
 20
-6.607974
 30
-0.000000
 11
-0.680000
 21
-6.596668
 31
0.000000
  0
ARC
  8
CAM
 62
     7
  6
CONTINUOUS
 10
-0.200000
 20
-6.607974
 30
-0.000000
 40
0.480000
 50
180.000000
 51
268.266389
  0
ARC
  8
CAM
 62
     7
  6
CONTINUOUS
 10
0.000000
 20
0.000000
 30
0.000000
 40
7.091000
 50
268.266389
 51
274.923318
  0
ARC
  8
CAM
 62
     7
  6
CONTINUOUS
 10
0.534330
 20
-6.203029
 30
0.000000
 40
0.865000
 50
274.923318
 51
290.547710
  0
LINE
  8
CAM
 62
     7
  6
CONTINUOUS
 10
4.300818
 20
-5.714991
 30
0.000000
 11
0.837934
 21
-7.012998
 31
0.000000
  0
ARC
  8
CAM
 62
     7
  6
CONTINUOUS
 10
4.167443
 20
-5.359166
 30
0.000000
 40
0.380000
 50
290.547710
 51
302.932598
  0
ARC
  8
CAM
 62
     7
  6
CONTINUOUS
 10
3.874959
 20
-4.907617
 30
0.000000
 40
0.918000
 50
302.932598
 51
326.606931
  0
LINE
  8
CAM
 62
     7
  6
CONTINUOUS
 10
5.645290
 20
-3.890000
 30
0.000000
 11
4.641410
 21
-5.412866
 31
0.000000
  0
ARC
  8
CAM
 62
     7
  6
CONTINUOUS
 10
6.162937
 20
-4.231236
 30
0.000000
 40
0.620000
 50
101.802595
 51
146.606931
  0
ARC
  8
CAM
 62
     7
  6
CONTINUOUS
 10
5.958397
 20
-3.252378
 30
0.000000
 40
0.380000
 50
281.802595
 51
282.107484
  0
LINE
  8
CAM
 62
     7
  6
CONTINUOUS
 10
7.916408
 20
-3.220994
 30
0.000000
 11
6.038101
 21
-3.623925
 31
0.000000
  0
ARC
  8
CAM
 62
     7
  6
CONTINUOUS
 10
7.735284
 20
-2.359835
 30
0.000000
 40
0.880000
 50
281.877666
 51
361.055107
  0
LINE
  8
CAM
 62
     7
  6
CONTINUOUS
 10
8.561713
 20
2.602627
 30
0.000000
 11
8.615135
 21
-2.343631
 31
0.000000
  0
ARC
  8
CAM
 62
     7
  6
CONTINUOUS
 10
9.561655
 20
2.613427
 30
0.000000
 40
1.000000
 50
90.618791
 51
180.618791
  0
LINE
  8
CAM
 62
     7
  6
CONTINUOUS
 10
10.550797
 20
3.624168
 30
0.000000
 11
9.550855
 21
3.613368
 31
0.000000
  0
ARC
  8
CAM
 62
     7
  6
CONTINUOUS
 10
8.181736
 20
2.598523
 30
0.000000
 40
0.375000
 50
0.618791
 51
1.197631
  0
ARC
  8
CAM
 62
     7
  6
CONTINUOUS
 10
7.681845
 20
2.588072
 30
0.000000
 40
0.875000
 50
1.197631
 51
80.100532
  0
LINE
  8
CAM
 62
     7
  6
CONTINUOUS
 10
5.939056
 20
3.780446
 30
0.000000
 11
7.832275
 21
3.450044
 31
0.000000
  0
ARC
  8
CAM
 62
     7
  6
CONTINUOUS
 10
6.046506
 20
4.396140
 30
0.000000
 40
0.625000
 50
214.910021
 51
260.100532
  0
LINE
  8
CAM
 62
     7
  6
CONTINUOUS
 10
4.492390
 20
5.530978
 30
0.000000
 11
5.533973
 21
4.038459
 31
0.000000
  0
ARC
  8
CAM
 62
     7
  6
CONTINUOUS
 10
3.743683
 20
5.008478
 30
0.000000
 40
0.913000
 50
34.910021
 51
58.611081
  0
ARC
  8
CAM
 62
     7
  6
CONTINUOUS
 10
4.023897
 20
5.467742
 30
0.000000
 40
0.375000
 50
58.611081
 51
66.330415
  0
LINE
  8
CAM
 62
     7
  6
CONTINUOUS
 10
1.388112
 20
7.032547
 30
0.000000
 11
4.174445
 21
5.811196
 31
0.000000
  0
ARC
  8
CAM
 62
     7
  6
CONTINUOUS
 10
1.021578
 20
6.196352
 30
0.000000
 40
0.913000
 50
66.330415
 51
86.196877
  0
LINE
  8
CAM
 62
     7
  6
CONTINUOUS
 10
-0.135800
 20
7.188303
 30
0.000000
 11
1.082135
 21
7.107342
 31
0.000000
  0
ARC
  8
CAM
 62
     7
  6
CONTINUOUS
 10
-0.114244
 20
7.512588
 30
0.000000
 40
0.325000
 50
186.217008
 51
266.196877
  0
LINE
  8
CAM
 62
     7
  6
CONTINUOUS
 10
-0.447007
 20
7.566202
 30
0.000000
 11
-0.437332
 21
7.477392
 31
0.000000
  0
ARC
  8
CAM
 62
     7
  6
CONTINUOUS
 10
-1.292008
 20
7.474152
 30
0.000000
 40
0.850000
 50
6.217008
 51
122.155027
  0
ARC
  8
CAM
 62
     7
  6
CONTINUOUS
 10
-1.837525
 20
8.341928
 30
-0.000000
 40
0.175000
 50
263.089206
 51
302.155027
  0
ARC
  8
CAM
 62
     7
  6
CONTINUOUS
 10
-2.573199
 20
2.272233
 30
0.000000
 40
5.939116
 50
83.089206
 51
107.060009
  0
ARC
  8
CAM
 62
     7
  6
CONTINUOUS
 10
-4.366916
 20
8.117316
 30
-0.000000
 40
0.175000
 50
244.395379
 51
287.060009
  0
ARC
  8
CAM
 62
     7
  6
CONTINUOUS
 10
-4.842291
 20
7.125338
 30
0.000000
 40
0.925000
 50
64.395379
 51
172.434373
  0
LINE
  8
CAM
 62
     7
  6
CONTINUOUS
 10
-6.174624
 20
4.119645
 30
0.000000
 11
-5.759238
 21
7.247125
 31
0.000000
  0
ARC
  8
CAM
 62
     7
  6
CONTINUOUS
 10
-5.257676
 20
3.997858
 30
0.000000
 40
0.925000
 50
172.434373
 51
212.466819
  0
ARC
  8
CAM
 62
     7
  6
CONTINUOUS
 10
-6.227934
 20
3.380525
 30
0.000000
 40
0.225000
 50
333.915800
 51
392.466819
  0
LINE
  8
CAM
 62
     7
  6
CONTINUOUS
 10
-6.156810
 20
3.014085
 30
0.000000
 11
-6.025851
 21
3.281594
 31
0.000000
  0
ARC
  8
CAM
 62
     7
  6
CONTINUOUS
 10
0.000000
 20
0.000000
 30
0.000000
 40
6.855000
 50
153.915800
 51
197.755291
  0
LINE
  8
CAM
 62
     7
  6
CONTINUOUS
 10
-5.880367
 20
-4.114509
 30
0.000000
 11
-6.528480
 21
-2.090448
 31
0.000000
  0
ARC
  8
CAM
 62
     7
  6
CONTINUOUS
 10
-5.070854
 20
-3.855300
 30
0.000000
 40
0.850000
 50
197.755291
 51
250.412092
  0
ARC
  8
CAM
 62
     7
  6
CONTINUOUS
 10
-9.253132
 20
-15.608349
 30
0.000000
 40
11.625000
 50
59.339171
 51
70.412092
  0
ARC
  8
CAM
 62
     7
  6
CONTINUOUS
 10
0.000000
 20
0.000000
 30
0.000000
 40
6.520000
 50
239.339171
 51
263.085315
  0
ARC
  8
CAM
 62
     7
  6
CONTINUOUS
 10
-0.800000
 20
-6.596668
 30
0.000000
 40
0.125000
 50
0.000000
 51
83.085315
  0
LINE
  8
CAM
 62
     7
  6
CONTINUOUS
 10
-0.675000
 20
-6.607974
 30
-0.000000
 11
-0.675000
 21
-6.596668
 31
0.000000
  0
ARC
  8
CAM
 62
     7
  6
CONTINUOUS
 10
-0.200000
 20
-6.607974
 30
-0.000000
 40
0.475000
 50
180.000000
 51
268.266389
  0
ARC
  8
CAM
 62
     7
  6
CONTINUOUS
 10
0.000000
 20
0.000000
 30
0.000000
 40
7.086000
 50
268.266389
 51
274.923318
  0
ARC
  8
CAM
 62
     7
  6
CONTINUOUS
 10
0.534330
 20
-6.203029
 30
0.000000
 40
0.860000
 50
274.923318
 51
290.547710
  0
LINE
  8
CAM
 62
     7
  6
CONTINUOUS
 10
4.299064
 20
-5.710309
 30
0.000000
 11
0.836179
 21
-7.008316
 31
0.000000
  0
ARC
  8
CAM
 62
     7
  6
CONTINUOUS
 10
4.167443
 20
-5.359166
 30
0.000000
 40
0.375000
 50
290.547710
 51
302.932598
  0
ARC
  8
CAM
 62
     7
  6
CONTINUOUS
 10
3.874959
 20
-4.907617
 30
0.000000
 40
0.913000
 50
302.932598
 51
326.606931
  0
LINE
  8
CAM
 62
     7
  6
CONTINUOUS
 10
5.641116
 20
-3.887248
 30
0.000000
 11
4.637235
 21
-5.410114
 31
0.000000
  0
ARC
  8
CAM
 62
     7
  6
CONTINUOUS
 10
6.162937
 20
-4.231236
 30
0.000000
 40
0.625000
 50
101.802595
 51
146.606931
  0
ARC
  8
CAM
 62
     7
  6
CONTINUOUS
 10
5.958397
 20
-3.252378
 30
0.000000
 40
0.375000
 50
281.802595
 51
282.107484
  0
LINE
  8
CAM
 62
     7
  6
CONTINUOUS
 10
7.915369
 20
-3.216103
 30
0.000000
 11
6.037052
 21
-3.619036
 31
0.000000
  0
ARC
  8
CAM
 62
     7
  6
CONTINUOUS
 10
7.735284
 20
-2.359835
 30
0.000000
 40
0.875000
 50
281.877010
 51
361.056352
  0
LINE
  8
CAM
 62
     7
  6
CONTINUOUS
 10
8.556714
 20
2.602573
 30
0.000000
 11
8.610135
 21
-2.343704
 31
0.000000
  0
CIRCLE
  8
CAM
 62
     7
  6
CONTINUOUS
 10
0.000000
 20
0.000000
 30
0.000000
 40
2.620000
  0
CIRCLE
  8
CAM
 62
     7
  6
CONTINUOUS
 10
1.021578
 20
6.196352
 30
0.000000
 40
0.117500
  0
CIRCLE
  8
CAM
 62
     7
  6
CONTINUOUS
 10
1.021578
 20
6.196352
 30
0.000000
 40
0.112500
  0
CIRCLE
  8
CAM
 62
     7
  6
CONTINUOUS
 10
0.534330
 20
-6.203029
 30
0.000000
 40
0.117500
  0
CIRCLE
  8
CAM
 62
     7
  6
CONTINUOUS
 10
0.534330
 20
-6.203029
 30
0.000000
 40
0.112500
  0
LINE
  8
DIM
 62
     7
  6
CONTINUOUS
 10
7.471082
 20
2.208551
 30
0.000000
 11
7.471082
 21
3.028571
 31
0.000000
  0
LINE
  8
DIM
 62
     7
  6
CONTINUOUS
 10
7.908582
 20
2.208551
 30
0.000000
 11
7.908582
 21
3.028571
 31
0.000000
  0
LINE
  8
DIM
 62
     7
  6
CONTINUOUS
 10
7.364752
 20
3.024761
 30
0.000000
 11
8.014912
 21
3.024761
 31
0.000000
  0
LINE
  8
DIM
 62
     7
  6
CONTINUOUS
 10
7.471082
 20
3.024761
 30
0.000000
 11
7.496082
 21
3.037261
 31
0.000000
  0
LINE
  8
DIM
 62
     7
  6
CONTINUOUS
 10
7.471082
 20
3.024761
 30
0.000000
 11
7.496082
 21
3.012261
 31
0.000000
  0
LINE
  8
DIM
 62
     7
  6
CONTINUOUS
 10
7.908582
 20
3.024761
 30
0.000000
 11
7.883582
 21
3.012261
 31
0.000000
  0
LINE
  8
DIM
 62
     7
  6
CONTINUOUS
 10
7.908582
 20
3.024761
 30
0.000000
 11
7.883582
 21
3.037261
 31
0.000000
  0
TEXT
  8
DIM
 62
     7
 10
7.369832
 20
3.106041
 30
0.000000
 40
0.200000
  1
0.438
 72
     1
 11
7.689832
 21
3.106041
 31
0.000000
  0
LINE
  8
DIM
 62
     7
  6
CONTINUOUS
 10
3.524933
 20
5.011018
 30
0.000000
 11
3.524933
 21
5.831038
 31
0.000000
  0
LINE
  8
DIM
 62
     7
  6
CONTINUOUS
 10
3.962433
 20
5.011018
 30
0.000000
 11
3.962433
 21
5.831038
 31
0.000000
  0
LINE
  8
DIM
 62
     7
  6
CONTINUOUS
 10
3.418603
 20
5.827228
 30
0.000000
 11
4.068763
 21
5.827228
 31
0.000000
  0
LINE
  8
DIM
 62
     7
  6
CONTINUOUS
 10
3.524933
 20
5.827228
 30
0.000000
 11
3.549933
 21
5.839728
 31
0.000000
  0
LINE
  8
DIM
 62
     7
  6
CONTINUOUS
 10
3.524933
 20
5.827228
 30
0.000000
 11
3.549933
 21
5.814728
 31
0.000000
  0
LINE
  8
DIM
 62
     7
  6
CONTINUOUS
 10
3.962433
 20
5.827228
 30
0.000000
 11
3.937433
 21
5.814728
 31
0.000000
  0
LINE
  8
DIM
 62
     7
  6
CONTINUOUS
 10
3.962433
 20
5.827228
 30
0.000000
 11
3.937433
 21
5.839728
 31
0.000000
  0
TEXT
  8
DIM
 62
     7
 10
3.423683
 20
5.908508
 30
0.000000
 40
0.200000
  1
0.438
 72
     1
 11
3.743683
 21
5.908508
 31
0.000000
  0
LINE
  8
DIM
 62
     7
  6
CONTINUOUS
 10
0.716578
 20
6.198892
 30
0.000000
 11
0.716578
 21
7.105162
 31
0.000000
  0
LINE
  8
DIM
 62
     7
  6
CONTINUOUS
 10
1.326578
 20
6.198892
 30
0.000000
 11
1.326578
 21
7.105162
 31
0.000000
  0
LINE
  8
DIM
 62
     7
  6
CONTINUOUS
 10
0.716578
 20
7.101352
 30
0.000000
 11
1.326578
 21
7.101352
 31
0.000000
  0
LINE
  8
DIM
 62
     7
  6
CONTINUOUS
 10
0.716578
 20
7.101352
 30
0.000000
 11
0.741578
 21
7.113852
 31
0.000000
  0
LINE
  8
DIM
 62
     7
  6
CONTINUOUS
 10
0.716578
 20
7.101352
 30
0.000000
 11
0.741578
 21
7.088852
 31
0.000000
  0
LINE
  8
DIM
 62
     7
  6
CONTINUOUS
 10
1.326578
 20
7.101352
 30
0.000000
 11
1.301578
 21
7.088852
 31
0.000000
  0
LINE
  8
DIM
 62
     7
  6
CONTINUOUS
 10
1.326578
 20
7.101352
 30
0.000000
 11
1.301578
 21
7.113852
 31
0.000000
  0
TEXT
  8
DIM
 62
     7
 10
0.731578
 20
7.182632
 30
0.000000
 40
0.200000
  1
0.610
 72
     1
 11
1.021578
 21
7.182632
 31
0.000000
  0
LINE
  8
DIM
 62
     7
  6
CONTINUOUS
 10
-1.510758
 20
7.476691
 30
0.000000
 11
-1.510758
 21
8.296711
 31
0.000000
  0
LINE
  8
DIM
 62
     7
  6
CONTINUOUS
 10
-1.073258
 20
7.476691
 30
0.000000
 11
-1.073258
 21
8.296711
 31
0.000000
  0
LINE
  8
DIM
 62
     7
  6
CONTINUOUS
 10
-1.617088
 20
8.292901
 30
0.000000
 11
-0.966928
 21
8.292901
 31
0.000000
  0
LINE
  8
DIM
 62
     7
  6
CONTINUOUS
 10
-1.510758
 20
8.292901
 30
0.000000
 11
-1.485758
 21
8.305401
 31
0.000000
  0
LINE
  8
DIM
 62
     7
  6
CONTINUOUS
 10
-1.510758
 20
8.292901
 30
0.000000
 11
-1.485758
 21
8.280401
 31
0.000000
  0
LINE
  8
DIM
 62
     7
  6
CONTINUOUS
 10
-1.073258
 20
8.292901
 30
0.000000
 11
-1.098258
 21
8.280401
 31
0.000000
  0
LINE
  8
DIM
 62
     7
  6
CONTINUOUS
 10
-1.073258
 20
8.292901
 30
0.000000
 11
-1.098258
 21
8.305401
 31
0.000000
  0
TEXT
  8
DIM
 62
     7
 10
-1.612008
 20
8.374181
 30
0.000000
 40
0.200000
  1
0.438
 72
     1
 11
-1.292008
 21
8.374181
 31
0.000000
  0
LINE
  8
DIM
 62
     7
  6
CONTINUOUS
 10
-5.061041
 20
7.127878
 30
0.000000
 11
-5.061041
 21
7.947898
 31
0.000000
  0
LINE
  8
DIM
 62
     7
  6
CONTINUOUS
 10
-4.623541
 20
7.127878
 30
0.000000
 11
-4.623541
 21
7.947898
 31
0.000000
  0
LINE
  8
DIM
 62
     7
  6
CONTINUOUS
 10
-5.167371
 20
7.944088
 30
0.000000
 11
-4.517211
 21
7.944088
 31
0.000000
  0
LINE
  8
DIM
 62
     7
  6
CONTINUOUS
 10
-5.061041
 20
7.944088
 30
0.000000
 11
-5.036041
 21
7.956588
 31
0.000000
  0
LINE
  8
DIM
 62
     7
  6
CONTINUOUS
 10
-5.061041
 20
7.944088
 30
0.000000
 11
-5.036041
 21
7.931588
 31
0.000000
  0
LINE
  8
DIM
 62
     7
  6
CONTINUOUS
 10
-4.623541
 20
7.944088
 30
0.000000
 11
-4.648541
 21
7.931588
 31
0.000000
  0
LINE
  8
DIM
 62
     7
  6
CONTINUOUS
 10
-4.623541
 20
7.944088
 30
0.000000
 11
-4.648541
 21
7.956588
 31
0.000000
  0
TEXT
  8
DIM
 62
     7
 10
-5.162291
 20
8.025369
 30
0.000000
 40
0.200000
  1
0.438
 72
     1
 11
-4.842291
 21
8.025369
 31
0.000000
  0
LINE
  8
DIM
 62
     7
  6
CONTINUOUS
 10
-5.289604
 20
-3.852759
 30
0.000000
 11
-5.289604
 21
-3.032739
 31
0.000000
  0
LINE
  8
DIM
 62
     7
  6
CONTINUOUS
 10
-4.852104
 20
-3.852759
 30
0.000000
 11
-4.852104
 21
-3.032739
 31
0.000000
  0
LINE
  8
DIM
 62
     7
  6
CONTINUOUS
 10
-5.395934
 20
-3.036549
 30
0.000000
 11
-4.745774
 21
-3.036549
 31
0.000000
  0
LINE
  8
DIM
 62
     7
  6
CONTINUOUS
 10
-5.289604
 20
-3.036549
 30
0.000000
 11
-5.264604
 21
-3.024049
 31
0.000000
  0
LINE
  8
DIM
 62
     7
  6
CONTINUOUS
 10
-5.289604
 20
-3.036549
 30
0.000000
 11
-5.264604
 21
-3.049049
 31
0.000000
  0
LINE
  8
DIM
 62
     7
  6
CONTINUOUS
 10
-4.852104
 20
-3.036549
 30
0.000000
 11
-4.877104
 21
-3.049049
 31
0.000000
  0
LINE
  8
DIM
 62
     7
  6
CONTINUOUS
 10
-4.852104
 20
-3.036549
 30
0.000000
 11
-4.877104
 21
-3.024049
 31
0.000000
  0
TEXT
  8
DIM
 62
     7
 10
-5.390854
 20
-2.955269
 30
0.000000
 40
0.200000
  1
0.438
 72
     1
 11
-5.070854
 21
-2.955269
 31
0.000000
  0
LINE
  8
DIM
 62
     7
  6
CONTINUOUS
 10
3.656209
 20
-4.905077
 30
0.000000
 11
3.656209
 21
-4.085057
 31
0.000000
  0
LINE
  8
DIM
 62
     7
  6
CONTINUOUS
 10
4.093709
 20
-4.905077
 30
0.000000
 11
4.093709
 21
-4.085057
 31
0.000000
  0
LINE
  8
DIM
 62
     7
  6
CONTINUOUS
 10
3.549879
 20
-4.088867
 30
0.000000
 11
4.200039
 21
-4.088867
 31
0.000000
  0
LINE
  8
DIM
 62
     7
  6
CONTINUOUS
 10
3.656209
 20
-4.088867
 30
0.000000
 11
3.681209
 21
-4.076367
 31
0.000000
  0
LINE
  8
DIM
 62
     7
  6
CONTINUOUS
 10
3.656209
 20
-4.088867
 30
0.000000
 11
3.681209
 21
-4.101367
 31
0.000000
  0
LINE
  8
DIM
 62
     7
  6
CONTINUOUS
 10
4.093709
 20
-4.088867
 30
0.000000
 11
4.068709
 21
-4.101367
 31
0.000000
  0
LINE
  8
DIM
 62
     7
  6
CONTINUOUS
 10
4.093709
 20
-4.088867
 30
0.000000
 11
4.068709
 21
-4.076367
 31
0.000000
  0
TEXT
  8
DIM
 62
     7
 10
3.554959
 20
-4.007587
 30
0.000000
 40
0.200000
  1
0.438
 72
     1
 11
3.874959
 21
-4.007587
 31
0.000000
  0
ENDSEC
  0
EOF
