  0
SECTION
  2
HEADER
  9
$ACADVER
  1
AC1006
  0
ENDSEC
  0
SECTION
  2
TABLES
  0
TABLE
  2
LTYPE
 70
    25
  0
LTYPE
  2
CONTINUOUS
 70
    64
  3
Solid line
 72
    64
 73
     0
 40
0.000000
  0
LTYPE
  2
DASHDOT
 70
    64
  3
__ . __ . __ . __ . __ . __ . __ . __ . __ . __
 72
    65
 73
     4
 40
1.000000
 49
0.500000
 49
-0.250000
 49
0.000000
 49
-0.250000
  0
LTYPE
  2
DASHED
 70
    64
  3
__ __ __ __ __ __ __ __ __ __ __ __ __ __ __ __
 72
    65
 73
     2
 40
0.750000
 49
0.500000
 49
-0.250000
  0
LTYPE
  2
DIVIDE
 70
    64
  3
____ . . ____ . . ____ . . ____ . . ____ . . __
 72
    65
 73
     6
 40
1.250000
 49
0.500000
 49
-0.250000
 49
0.000000
 49
-0.250000
 49
0.000000
 49
-0.250000
  0
LTYPE
  2
DOT
 70
    64
  3
. . . . . . . . . . . . . . . . . . . . . . . . 
 72
    65
 73
     2
 40
0.250000
 49
0.000000
 49
-0.250000
  0
ENDTAB
  0
ENDSEC
  0
SECTION
  2
BLOCKS
  0
BLOCK
  8
0
  2
Object_0
 70
    64
 10
0.000000
 20
0.000000
 30
0.000000
  0
ENDBLK
  0
ENDSEC
  0
SECTION
  2
ENTITIES
  0
POINT
  8
TRIANGLE
 62
     7
 10
-0.000006
 20
0.000018
 30
0.000000
  0
POINT
  8
PATTERN
 62
     7
 10
-0.000006
 20
0.000018
 30
0.000000
  0
POINT
  8
PATTERN
 62
     7
 10
6.167077
 20
1.979933
 30
0.000000
  0
LINE
  8
TRIANGLE
 62
     7
  6
CONTINUOUS
 10
-6.115329
 20
-1.904448
 30
0.000000
 11
6.167648
 21
-1.792225
 31
0.000000
  0
LINE
  8
TRIANGLE
 62
     7
  6
CONTINUOUS
 10
-0.000006
 20
0.000018
 30
0.000000
 11
0.016867
 21
-1.848421
 31
0.000000
  0
LINE
  8
TRIANGLE
 62
     7
  6
CONTINUOUS
 10
0.000115
 20
0.000903
 30
0.000000
 11
6.167648
 21
-1.792225
 31
0.000000
  0
LINE
  8
TRIANGLE
 62
     7
  6
CONTINUOUS
 10
-6.115329
 20
-1.904448
 30
0.000000
 11
0.000115
 21
0.000903
 31
0.000000
  0
TEXT
  8
DIMENSIONS
 62
     7
 10
-2.926254
 20
5.576948
 30
0.000000
 40
0.188000
  1
72-78 FORD COURIER
  0
TEXT
  8
DIMENSIONS
 62
     7
 10
-2.926254
 20
5.294948
 30
0.000000
 40
0.188000
  1
TO WARP 9 MOTOR
  0
TEXT
  8
DIMENSIONS
 62
     7
 10
-2.926254
 20
5.012948
 30
0.000000
 40
0.188000
  1
ADAPTOR
  0
TEXT
  8
DIMENSIONS
 62
     7
 10
-2.926254
 20
4.730948
 30
0.000000
 40
0.188000
  1
PROFILE PLATE 
  0
TEXT
  8
DIMENSIONS
 62
     7
 10
-2.926254
 20
4.448948
 30
0.000000
 40
0.188000
  1
PATTERN
  0
TEXT
  8
DIMENSIONS
 62
     7
 10
1.292504
 20
5.312778
 30
0.000000
 40
0.188000
  1
TOP
  0
TEXT
  8
DIMENSIONS
 62
     7
 10
0.700677
 20
5.030778
 30
0.000000
 40
0.188000
  1
MOTORSIDE
  0
TEXT
  8
DIMENSIONS
 62
     7
 10
-4.730724
 20
3.639234
 30
0.000000
 40
0.188000
  1
DRILL ALL
  0
TEXT
  8
DIMENSIONS
 62
     7
 10
-4.730724
 20
3.357233
 30
0.000000
 40
0.188000
  1
HOLES 7/16"
  0
TEXT
  8
DIMENSIONS
 62
     7
 10
-4.730724
 20
3.075233
 30
0.000000
 40
0.188000
  1
UNLESS
  0
TEXT
  8
DIMENSIONS
 62
     7
 10
-4.730724
 20
2.793233
 30
0.000000
 40
0.188000
  1
NOTED
  0
TEXT
  8
DIMENSIONS
 62
     7
 10
-3.334309
 20
-4.389618
 30
0.000000
 40
0.188000
  1
CHECK LAYOUT
  0
TEXT
  8
DIMENSIONS
 62
     7
 10
-3.334309
 20
-4.671618
 30
0.000000
 40
0.188000
  1
DRAWING FOR
  0
TEXT
  8
DIMENSIONS
 62
     7
 10
-3.334309
 20
-4.953618
 30
0.000000
 40
0.188000
  1
COUNTERSINK
  0
TEXT
  8
DIMENSIONS
 62
     7
 10
-3.334309
 20
-5.235618
 30
0.000000
 40
0.188000
  1
ON OTHER SIDE
  0
TEXT
  8
DIMENSIONS
 62
     7
 10
-4.528393
 20
-3.844033
 30
0.000000
 40
0.188000
  1
BORE .590
  0
LINE
  8
DIMENSIONS
 62
     7
  6
CONTINUOUS
 10
-5.921036
 20
-2.126428
 30
0.000000
 11
-5.687398
 21
-2.215385
 31
0.000000
  0
LINE
  8
DIMENSIONS
 62
     7
  6
CONTINUOUS
 10
-5.921036
 20
-2.126428
 30
0.000000
 11
-5.881256
 21
-2.373243
 31
0.000000
  0
LINE
  8
DIMENSIONS
 62
     7
  6
CONTINUOUS
 10
-5.921036
 20
-2.126428
 30
0.000000
 11
-4.863875
 21
-3.424680
 31
0.000000
  0
LINE
  8
DIMENSIONS
 62
     7
  6
CONTINUOUS
 10
-4.863875
 20
-3.424680
 30
0.000000
 11
-4.613875
 21
-3.424680
 31
0.000000
  0
TEXT
  8
DIMENSIONS
 62
     7
 10
-4.551375
 20
-3.518680
 30
0.000000
 40
0.188000
  1
DOWEL A
  0
TEXT
  8
DIMENSIONS
 62
     7
 10
4.974588
 20
-0.817599
 30
0.000000
 40
0.188000
  1
BORE .590
  0
LINE
  8
DIMENSIONS
 62
     7
  6
CONTINUOUS
 10
5.932981
 20
-1.970988
 30
0.000000
 11
5.691999
 21
-1.904447
 31
0.000000
  0
LINE
  8
DIMENSIONS
 62
     7
  6
CONTINUOUS
 10
5.932981
 20
-1.970988
 30
0.000000
 11
5.870116
 21
-1.729021
 31
0.000000
  0
LINE
  8
DIMENSIONS
 62
     7
  6
CONTINUOUS
 10
5.932981
 20
-1.970988
 30
0.000000
 11
4.375713
 21
-0.389831
 31
0.000000
  0
LINE
  8
DIMENSIONS
 62
     7
  6
CONTINUOUS
 10
4.375713
 20
-0.389831
 30
0.000000
 11
4.625713
 21
-0.389831
 31
0.000000
  0
TEXT
  8
DIMENSIONS
 62
     7
 10
4.688213
 20
-0.483831
 30
0.000000
 40
0.188000
  1
DOWEL B
  0
LINE
  8
PATTERN
 62
     6
  6
CONTINUOUS
 10
6.681839
 20
3.670780
 30
0.000000
 11
6.732631
 21
-1.634134
 31
0.000000
  0
ARC
  8
Default
 62
     6
  6
CONTINUOUS
 10
5.732677
 20
-1.643708
 30
0.000000
 40
1.000000
 50
342.580556
 51
360.548562
  0
POINT
  8
PATTERN
 62
     7
 10
3.684530
 20
5.324424
 30
0.000000
  0
CIRCLE
  8
PATTERN
 62
     7
  6
CONTINUOUS
 10
6.167077
 20
1.979933
 30
0.000000
 40
0.248000
  0
POINT
  8
PATTERN
 62
     7
 10
-0.057494
 20
6.351154
 30
0.000000
  0
CIRCLE
  8
PATTERN
 62
     7
  6
CONTINUOUS
 10
3.684530
 20
5.324424
 30
0.000000
 40
0.248000
  0
POINT
  8
PATTERN
 62
     7
 10
-3.590347
 20
5.238703
 30
0.000000
  0
CIRCLE
  8
PATTERN
 62
     7
  6
CONTINUOUS
 10
-0.057494
 20
6.351154
 30
0.000000
 40
0.248000
  0
POINT
  8
PATTERN
 62
     7
 10
-6.046032
 20
1.912735
 30
0.000000
  0
CIRCLE
  8
PATTERN
 62
     7
  6
CONTINUOUS
 10
-3.590347
 20
5.238703
 30
0.000000
 40
0.248000
  0
POINT
  8
TRIANGLE
 62
     7
 10
-6.115329
 20
-1.904448
 30
0.000000
  0
CIRCLE
  8
PATTERN
 62
     7
  6
CONTINUOUS
 10
-6.046032
 20
1.912735
 30
0.000000
 40
0.248000
  0
POINT
  8
PATTERN
 62
     7
 10
0.000115
 20
0.000903
 30
0.000000
  0
LINE
  8
PATTERN
 62
     7
  6
CONTINUOUS
 10
0.000115
 20
0.375903
 30
0.000000
 11
0.000115
 21
-0.374097
 31
0.000000
  0
LINE
  8
PATTERN
 62
     7
  6
CONTINUOUS
 10
-0.394173
 20
0.000903
 30
0.000000
 11
0.425560
 21
0.000903
 31
0.000000
  0
POINT
  8
PATTERN
 62
     7
 10
-4.995822
 20
-3.690387
 30
0.000000
  0
CIRCLE
  8
PATTERN
 62
     7
  6
CONTINUOUS
 10
-6.115329
 20
-1.904448
 30
0.000000
 40
0.295000
  0
POINT
  8
PATTERN
 62
     7
 10
-2.064534
 20
-5.855918
 30
0.000000
  0
CIRCLE
  8
PATTERN
 62
     7
  6
CONTINUOUS
 10
-4.995822
 20
-3.690387
 30
0.000000
 40
0.248000
  0
POINT
  8
PATTERN
 62
     7
 10
2.187335
 20
-5.830080
 30
0.000000
  0
CIRCLE
  8
PATTERN
 62
     7
  6
CONTINUOUS
 10
-2.064534
 20
-5.855918
 30
0.000000
 40
0.248000
  0
CIRCLE
  8
PATTERN
 62
     7
  6
CONTINUOUS
 10
2.187335
 20
-5.830080
 30
0.000000
 40
0.248000
  0
POINT
  8
PATTERN
 62
     7
 10
5.478581
 20
-2.966398
 30
0.000000
  0
LINE
  8
PATTERN
 62
     7
  6
CONTINUOUS
 10
3.895600
 20
3.327176
 30
0.000000
 11
3.896493
 21
3.330495
 31
0.000000
  0
LINE
  8
PATTERN
 62
     6
  6
CONTINUOUS
 10
6.686816
 20
-1.943072
 30
0.000000
 11
6.541308
 21
-2.406835
 31
0.000000
  0
ARC
  8
Default
 62
     6
  6
CONTINUOUS
 10
5.587170
 20
-2.107470
 30
0.000000
 40
1.000000
 50
311.256137
 51
342.580556
  0
LINE
  8
PATTERN
 62
     6
  6
CONTINUOUS
 10
6.246596
 20
-2.859240
 30
0.000000
 11
2.633839
 21
-6.028227
 31
0.000000
  0
ARC
  8
Default
 62
     6
  6
CONTINUOUS
 10
1.974413
 20
-5.276458
 30
0.000000
 40
1.000000
 50
270.566146
 51
311.256137
  0
LINE
  8
PATTERN
 62
     6
  6
CONTINUOUS
 10
1.984294
 20
-6.276409
 30
0.000000
 11
-1.738678
 21
-6.313197
 31
0.000000
  0
ARC
  8
Default
 62
     6
  6
CONTINUOUS
 10
-1.748559
 20
-5.313246
 30
0.000000
 40
1.000000
 50
235.022580
 51
270.566146
  0
LINE
  8
PATTERN
 62
     6
  6
CONTINUOUS
 10
-2.321813
 20
-6.132624
 30
0.000000
 11
-5.169801
 21
-4.140114
 31
0.000000
  0
CIRCLE
  8
PATTERN
 62
     7
  6
CONTINUOUS
 10
5.478581
 20
-2.966398
 30
0.000000
 40
0.248000
  0
ARC
  8
Default
 62
     6
  6
CONTINUOUS
 10
-4.596547
 20
-3.320735
 30
0.000000
 40
1.000000
 50
214.922013
 51
235.022580
  0
LINE
  8
PATTERN
 62
     6
  6
CONTINUOUS
 10
-5.416479
 20
-3.893196
 30
0.000000
 11
-6.597062
 21
-2.202256
 31
0.000000
  0
CIRCLE
  8
PATTERN
 62
     7
  6
CONTINUOUS
 10
6.167648
 20
-1.792225
 30
0.000000
 40
0.295000
  0
POINT
  8
PATTERN
 62
     7
 10
6.167648
 20
-1.792225
 30
0.000000
  0
POINT
  8
PATTERN
 62
     7
 10
-6.115329
 20
-1.904448
 30
0.000000
  0
POINT
  8
PATTERN
 62
     7
 10
-0.000006
 20
0.000018
 30
0.000000
  0
LINE
  8
TRIANGLE
 62
     7
  6
CONTINUOUS
 10
0.016867
 20
-2.210900
 30
0.000000
 11
0.233374
 21
-2.085900
 31
0.000000
  0
LINE
  8
TRIANGLE
 62
     7
  6
CONTINUOUS
 10
0.016867
 20
-2.210900
 30
0.000000
 11
0.233374
 21
-2.335900
 31
0.000000
  0
LINE
  8
TRIANGLE
 62
     7
  6
CONTINUOUS
 10
6.167648
 20
-2.210900
 30
0.000000
 11
5.951142
 21
-2.335900
 31
0.000000
  0
LINE
  8
TRIANGLE
 62
     7
  6
CONTINUOUS
 10
6.167648
 20
-2.210900
 30
0.000000
 11
5.951142
 21
-2.085900
 31
0.000000
  0
LINE
  8
TRIANGLE
 62
     7
  6
CONTINUOUS
 10
0.016867
 20
-1.973421
 30
0.000000
 11
0.016867
 21
-2.460900
 31
0.000000
  0
LINE
  8
TRIANGLE
 62
     7
  6
CONTINUOUS
 10
6.167648
 20
-1.917225
 30
0.000000
 11
6.167648
 21
-2.460900
 31
0.000000
  0
TEXT
  8
TRIANGLE
 62
     7
 10
0.580267
 20
-2.305361
 30
0.000000
 40
0.188000
  1
6.151"
  0
LINE
  8
TRIANGLE
 62
     7
  6
CONTINUOUS
 10
0.016867
 20
-2.210900
 30
0.000000
 11
0.549017
 21
-2.210900
 31
0.000000
  0
LINE
  8
TRIANGLE
 62
     7
  6
CONTINUOUS
 10
1.401748
 20
-2.210900
 30
0.000000
 11
6.167648
 21
-2.210900
 31
0.000000
  0
LINE
  8
TRIANGLE
 62
     7
  6
CONTINUOUS
 10
-6.115329
 20
-2.210900
 30
0.000000
 11
-5.898822
 21
-2.085900
 31
0.000000
  0
LINE
  8
TRIANGLE
 62
     7
  6
CONTINUOUS
 10
-6.115329
 20
-2.210900
 30
0.000000
 11
-5.898822
 21
-2.335900
 31
0.000000
  0
LINE
  8
TRIANGLE
 62
     7
  6
CONTINUOUS
 10
0.016867
 20
-2.210900
 30
0.000000
 11
-0.199639
 21
-2.335900
 31
0.000000
  0
LINE
  8
TRIANGLE
 62
     7
  6
CONTINUOUS
 10
0.016867
 20
-2.210900
 30
0.000000
 11
-0.199639
 21
-2.085900
 31
0.000000
  0
LINE
  8
TRIANGLE
 62
     7
  6
CONTINUOUS
 10
-6.115329
 20
-2.029448
 30
0.000000
 11
-6.115329
 21
-2.460900
 31
0.000000
  0
LINE
  8
TRIANGLE
 62
     7
  6
CONTINUOUS
 10
0.016867
 20
-1.973421
 30
0.000000
 11
0.016867
 21
-2.460900
 31
0.000000
  0
TEXT
  8
TRIANGLE
 62
     7
 10
-4.743915
 20
-2.305255
 30
0.000000
 40
0.188000
  1
6.132"
  0
LINE
  8
TRIANGLE
 62
     7
  6
CONTINUOUS
 10
-6.115329
 20
-2.210900
 30
0.000000
 11
-4.775166
 21
-2.210900
 31
0.000000
  0
LINE
  8
TRIANGLE
 62
     7
  6
CONTINUOUS
 10
-3.822621
 20
-2.210900
 30
0.000000
 11
0.016867
 21
-2.210900
 31
0.000000
  0
LINE
  8
TRIANGLE
 62
     7
  6
CONTINUOUS
 10
-6.115329
 20
-2.602564
 30
0.000000
 11
-5.898822
 21
-2.477564
 31
0.000000
  0
LINE
  8
TRIANGLE
 62
     7
  6
CONTINUOUS
 10
-6.115329
 20
-2.602564
 30
0.000000
 11
-5.898822
 21
-2.727564
 31
0.000000
  0
LINE
  8
TRIANGLE
 62
     7
  6
CONTINUOUS
 10
6.167648
 20
-2.602564
 30
0.000000
 11
5.951142
 21
-2.727564
 31
0.000000
  0
LINE
  8
TRIANGLE
 62
     7
  6
CONTINUOUS
 10
6.167648
 20
-2.602564
 30
0.000000
 11
5.951142
 21
-2.477564
 31
0.000000
  0
LINE
  8
TRIANGLE
 62
     7
  6
CONTINUOUS
 10
-6.115329
 20
-2.029448
 30
0.000000
 11
-6.115329
 21
-2.852564
 31
0.000000
  0
LINE
  8
TRIANGLE
 62
     7
  6
CONTINUOUS
 10
6.167648
 20
-1.917225
 30
0.000000
 11
6.167648
 21
-2.852564
 31
0.000000
  0
TEXT
  8
TRIANGLE
 62
     7
 10
-0.508613
 20
-2.697177
 30
0.000000
 40
0.188000
  1
12.283"
  0
LINE
  8
TRIANGLE
 62
     7
  6
CONTINUOUS
 10
-6.115329
 20
-2.602564
 30
0.000000
 11
-0.539863
 21
-2.602564
 31
0.000000
  0
LINE
  8
TRIANGLE
 62
     7
  6
CONTINUOUS
 10
0.592182
 20
-2.602564
 30
0.000000
 11
6.167648
 21
-2.602564
 31
0.000000
  0
LINE
  8
TRIANGLE
 62
     7
  6
CONTINUOUS
 10
-6.250601
 20
-1.470274
 30
0.000000
 11
-6.081078
 21
-1.286530
 31
0.000000
  0
LINE
  8
TRIANGLE
 62
     7
  6
CONTINUOUS
 10
-6.250601
 20
-1.470274
 30
0.000000
 11
-6.006713
 21
-1.525214
 31
0.000000
  0
LINE
  8
TRIANGLE
 62
     7
  6
CONTINUOUS
 10
-0.135158
 20
0.435076
 30
0.000000
 11
-0.304682
 21
0.251333
 31
0.000000
  0
LINE
  8
TRIANGLE
 62
     7
  6
CONTINUOUS
 10
-0.135158
 20
0.435076
 30
0.000000
 11
-0.379047
 21
0.490016
 31
0.000000
  0
LINE
  8
TRIANGLE
 62
     7
  6
CONTINUOUS
 10
-6.152511
 20
-1.785106
 30
0.000000
 11
-6.324967
 21
-1.231590
 31
0.000000
  0
LINE
  8
TRIANGLE
 62
     7
  6
CONTINUOUS
 10
-0.037068
 20
0.120245
 30
0.000000
 11
-0.209523
 21
0.673760
 31
0.000000
  0
TEXT
  8
TRIANGLE
 62
     7
 10
-5.388618
 20
-1.135290
 30
0.000000
 40
0.188000
  1
6.405"
  0
LINE
  8
TRIANGLE
 62
     7
  6
CONTINUOUS
 10
-6.250601
 20
-1.470274
 30
0.000000
 11
-5.275732
 21
-1.166540
 31
0.000000
  0
LINE
  8
TRIANGLE
 62
     7
  6
CONTINUOUS
 10
-4.468534
 20
-0.915047
 30
0.000000
 11
-0.135158
 21
0.435076
 31
0.000000
  0
LINE
  8
TRIANGLE
 62
     7
  6
CONTINUOUS
 10
0.111452
 20
0.383578
 30
0.000000
 11
0.354239
 21
0.443198
 31
0.000000
  0
LINE
  8
TRIANGLE
 62
     7
  6
CONTINUOUS
 10
0.111452
 20
0.383578
 30
0.000000
 11
0.284478
 21
0.203128
 31
0.000000
  0
LINE
  8
TRIANGLE
 62
     7
  6
CONTINUOUS
 10
6.279106
 20
-1.408664
 30
0.000000
 11
6.036319
 21
-1.468284
 31
0.000000
  0
LINE
  8
TRIANGLE
 62
     7
  6
CONTINUOUS
 10
6.279106
 20
-1.408664
 30
0.000000
 11
6.106080
 21
-1.228214
 31
0.000000
  0
LINE
  8
TRIANGLE
 62
     7
  6
CONTINUOUS
 10
0.034875
 20
0.120052
 30
0.000000
 11
0.181213
 21
0.623648
 31
0.000000
  0
LINE
  8
TRIANGLE
 62
     7
  6
CONTINUOUS
 10
6.202529
 20
-1.672190
 30
0.000000
 11
6.348867
 21
-1.168595
 31
0.000000
  0
TEXT
  8
TRIANGLE
 62
     7
 10
1.662020
 20
-0.308472
 30
0.000000
 40
0.188000
  1
6.423"
  0
LINE
  8
TRIANGLE
 62
     7
  6
CONTINUOUS
 10
0.111452
 20
0.383578
 30
0.000000
 11
1.736064
 21
-0.088514
 31
0.000000
  0
LINE
  8
TRIANGLE
 62
     7
  6
CONTINUOUS
 10
2.600550
 20
-0.339722
 30
0.000000
 11
6.279106
 21
-1.408664
 31
0.000000
  0
LINE
  8
TRIANGLE
 62
     7
  6
CONTINUOUS
 10
0.653831
 20
-1.848421
 30
0.000000
 11
0.528831
 21
-1.631915
 31
0.000000
  0
LINE
  8
TRIANGLE
 62
     7
  6
CONTINUOUS
 10
0.653831
 20
-1.848421
 30
0.000000
 11
0.778831
 21
-1.631915
 31
0.000000
  0
LINE
  8
TRIANGLE
 62
     7
  6
CONTINUOUS
 10
0.653831
 20
0.000903
 30
0.000000
 11
0.778831
 21
-0.215603
 31
0.000000
  0
LINE
  8
TRIANGLE
 62
     7
  6
CONTINUOUS
 10
0.653831
 20
0.000903
 30
0.000000
 11
0.528831
 21
-0.215603
 31
0.000000
  0
LINE
  8
TRIANGLE
 62
     7
  6
CONTINUOUS
 10
0.141867
 20
-1.848421
 30
0.000000
 11
0.903831
 21
-1.848421
 31
0.000000
  0
LINE
  8
TRIANGLE
 62
     7
  6
CONTINUOUS
 10
0.125115
 20
0.000903
 30
0.000000
 11
0.903831
 21
0.000903
 31
0.000000
  0
TEXT
  8
TRIANGLE
 62
     7
 10
0.202363
 20
-1.018373
 30
0.000000
 40
0.188000
  1
1.849"
  0
LINE
  8
TRIANGLE
 62
     7
  6
CONTINUOUS
 10
0.653831
 20
-1.848421
 30
0.000000
 11
0.653831
 21
-1.049623
 31
0.000000
  0
LINE
  8
TRIANGLE
 62
     7
  6
CONTINUOUS
 10
0.653831
 20
-0.797895
 30
0.000000
 11
0.653831
 21
0.000903
 31
0.000000
  0
CIRCLE
  8
Default
 62
     9
  6
CONTINUOUS
 10
0.000000
 20
0.000000
 30
0.000000
 40
4.251000
  0
CIRCLE
  8
Default
 62
     9
  6
CONTINUOUS
 10
0.000000
 20
3.625000
 30
0.000000
 40
0.265625
  0
CIRCLE
  8
Default
 62
     9
  6
CONTINUOUS
 10
3.625000
 20
0.000000
 30
0.000000
 40
0.265625
  0
CIRCLE
  8
Default
 62
     9
  6
CONTINUOUS
 10
-0.000000
 20
-3.625000
 30
0.000000
 40
0.265625
  0
CIRCLE
  8
Default
 62
     9
  6
CONTINUOUS
 10
-3.625000
 20
0.000000
 30
0.000000
 40
0.265625
  0
CIRCLE
  8
Default
 62
     9
  6
CONTINUOUS
 10
0.000000
 20
0.000000
 30
0.000000
 40
3.000000
  0
POINT
  8
Default
 62
     9
 10
0.000000
 20
3.625000
 30
0.000000
  0
POINT
  8
Default
 62
     9
 10
3.625000
 20
0.000000
 30
0.000000
  0
POINT
  8
Default
 62
     9
 10
-0.000000
 20
-3.625000
 30
0.000000
  0
POINT
  8
Default
 62
     9
 10
0.000000
 20
0.000000
 30
0.000000
  0
POINT
  8
Default
 62
     9
 10
-3.625000
 20
0.000000
 30
0.000000
  0
ARC
  8
Default
 62
     6
  6
CONTINUOUS
 10
-5.777130
 20
-1.629795
 30
0.000000
 40
1.000000
 50
175.637442
 51
214.922013
  0
LINE
  8
PATTERN
 62
     6
  6
CONTINUOUS
 10
-6.774232
 20
-1.553727
 30
0.000000
 11
-6.530784
 21
1.637433
 31
0.000000
  0
ARC
  8
Default
 62
     6
  6
CONTINUOUS
 10
-5.533681
 20
1.561365
 30
0.000000
 40
1.000000
 50
144.760861
 51
175.637442
  0
LINE
  8
PATTERN
 62
     6
  6
CONTINUOUS
 10
-6.350432
 20
2.138355
 30
0.000000
 11
-4.071687
 21
5.364001
 31
0.000000
  0
ARC
  8
Default
 62
     6
  6
CONTINUOUS
 10
-3.254937
 20
4.787011
 30
0.000000
 40
1.000000
 50
107.484872
 51
144.760861
  0
LINE
  8
PATTERN
 62
     6
  6
CONTINUOUS
 10
-3.555391
 20
5.740807
 30
0.000000
 11
-0.376362
 21
6.742228
 31
0.000000
  0
ARC
  8
Default
 62
     6
  6
CONTINUOUS
 10
-0.075908
 20
5.788432
 30
0.000000
 40
1.000000
 50
74.943529
 51
107.484872
  0
LINE
  8
PATTERN
 62
     6
  6
CONTINUOUS
 10
0.183863
 20
6.754102
 30
0.000000
 11
5.428354
 21
5.343304
 31
0.000000
  0
ARC
  8
PATTERN
 62
     6
  6
CONTINUOUS
 10
4.939273
 20
3.670780
 30
0.000000
 40
1.742566
 50
0.000000
 51
73.699985
  0
LINE
  8
Default
 62
     7
  6
CONTINUOUS
 10
0.015694
 20
-0.004177
 30
0.000000
 11
0.015694
 21
-0.026763
 31
0.000000
  0
LINE
  8
Default
 62
     7
  6
CONTINUOUS
 10
-6.777130
 20
-1.624715
 30
0.000000
 11
-6.777130
 21
-0.011523
 31
0.000000
  0
LINE
  8
Default
 62
     7
  6
CONTINUOUS
 10
0.015694
 20
-0.019143
 30
0.000000
 11
-7.681215
 21
-0.019143
 31
0.000000
  0
LINE
  8
Default
 62
     7
  6
CONTINUOUS
 10
0.015694
 20
-0.019143
 30
0.000000
 11
-0.034306
 21
-0.044143
 31
0.000000
  0
LINE
  8
Default
 62
     7
  6
CONTINUOUS
 10
0.015694
 20
-0.019143
 30
0.000000
 11
-0.034306
 21
0.005857
 31
0.000000
  0
LINE
  8
Default
 62
     7
  6
CONTINUOUS
 10
-6.777130
 20
-0.019143
 30
0.000000
 11
-6.727130
 21
0.005857
 31
0.000000
  0
LINE
  8
Default
 62
     7
  6
CONTINUOUS
 10
-6.777130
 20
-0.019143
 30
0.000000
 11
-6.727130
 21
-0.044143
 31
0.000000
  0
TEXT
  8
Default
 62
     7
 10
-7.671055
 20
0.057260
 30
0.000000
 40
0.188000
  1
6.793
 72
     1
 11
-7.368971
 21
0.057260
 31
0.000000
  0
LINE
  8
Default
 62
     7
  6
CONTINUOUS
 10
0.015694
 20
-0.004177
 30
0.000000
 11
0.015694
 21
-0.026763
 31
0.000000
  0
LINE
  8
Default
 62
     7
  6
CONTINUOUS
 10
6.732677
 20
-1.638628
 30
0.000000
 11
6.732677
 21
-0.011523
 31
0.000000
  0
LINE
  8
Default
 62
     7
  6
CONTINUOUS
 10
0.015694
 20
-0.019143
 30
0.000000
 11
7.530904
 21
-0.019143
 31
0.000000
  0
LINE
  8
Default
 62
     7
  6
CONTINUOUS
 10
0.015694
 20
-0.019143
 30
0.000000
 11
0.065694
 21
0.005857
 31
0.000000
  0
LINE
  8
Default
 62
     7
  6
CONTINUOUS
 10
0.015694
 20
-0.019143
 30
0.000000
 11
0.065694
 21
-0.044143
 31
0.000000
  0
LINE
  8
Default
 62
     7
  6
CONTINUOUS
 10
6.732677
 20
-0.019143
 30
0.000000
 11
6.682677
 21
-0.044143
 31
0.000000
  0
LINE
  8
Default
 62
     7
  6
CONTINUOUS
 10
6.732677
 20
-0.019143
 30
0.000000
 11
6.682677
 21
0.005857
 31
0.000000
  0
TEXT
  8
Default
 62
     7
 10
6.916578
 20
0.057260
 30
0.000000
 40
0.188000
  1
6.717
 72
     1
 11
7.218661
 21
0.057260
 31
0.000000
  0
LINE
  8
Default
 62
     7
  6
CONTINUOUS
 10
0.130194
 20
0.000903
 30
0.000000
 11
6.827530
 21
0.000903
 31
0.000000
  0
LINE
  8
Default
 62
     7
  6
CONTINUOUS
 10
-0.070828
 20
6.788432
 30
0.000000
 11
6.827530
 21
6.788432
 31
0.000000
  0
LINE
  8
Default
 62
     7
  6
CONTINUOUS
 10
6.819910
 20
0.000903
 30
0.000000
 11
6.819910
 21
6.788432
 31
0.000000
  0
LINE
  8
Default
 62
     7
  6
CONTINUOUS
 10
6.819910
 20
0.000903
 30
0.000000
 11
6.794910
 21
0.050903
 31
0.000000
  0
LINE
  8
Default
 62
     7
  6
CONTINUOUS
 10
6.819910
 20
0.000903
 30
0.000000
 11
6.844910
 21
0.050903
 31
0.000000
  0
LINE
  8
Default
 62
     7
  6
CONTINUOUS
 10
6.819910
 20
6.788432
 30
0.000000
 11
6.844910
 21
6.738432
 31
0.000000
  0
LINE
  8
Default
 62
     7
  6
CONTINUOUS
 10
6.819910
 20
6.788432
 30
0.000000
 11
6.794910
 21
6.738432
 31
0.000000
  0
TEXT
  8
Default
 62
     7
 10
6.743506
 20
5.759723
 30
0.000000
 40
0.188000
  1
6.788
 50
90.000003
 72
     1
 11
6.743506
 21
6.061806
 31
0.000000
  0
LINE
  8
Default
 62
     7
  6
CONTINUOUS
 10
0.020774
 20
0.000903
 30
0.000000
 11
6.827530
 21
0.000903
 31
0.000000
  0
LINE
  8
Default
 62
     7
  6
CONTINUOUS
 10
-1.743479
 20
-6.313246
 30
0.000000
 11
6.827530
 21
-6.313246
 31
0.000000
  0
LINE
  8
Default
 62
     7
  6
CONTINUOUS
 10
6.819910
 20
0.000903
 30
0.000000
 11
6.819910
 21
-6.313246
 31
0.000000
  0
LINE
  8
Default
 62
     7
  6
CONTINUOUS
 10
6.819910
 20
0.000903
 30
0.000000
 11
6.844910
 21
-0.049097
 31
0.000000
  0
LINE
  8
Default
 62
     7
  6
CONTINUOUS
 10
6.819910
 20
0.000903
 30
0.000000
 11
6.794910
 21
-0.049097
 31
0.000000
  0
LINE
  8
Default
 62
     7
  6
CONTINUOUS
 10
6.819910
 20
-6.313246
 30
0.000000
 11
6.794910
 21
-6.263246
 31
0.000000
  0
LINE
  8
Default
 62
     7
  6
CONTINUOUS
 10
6.819910
 20
-6.313246
 30
0.000000
 11
6.844910
 21
-6.263246
 31
0.000000
  0
TEXT
  8
Default
 62
     7
 10
6.743507
 20
-3.876755
 30
0.000000
 40
0.188000
  1
6.314
 50
90.000003
 72
     1
 11
6.743507
 21
-3.574671
 31
0.000000
  0
INSERT
  8
Default
 62
     7
  2
Object_0
 10
-10.160000
 20
-10.160000
 30
0.000000
  0
LINE
  8
Default
 62
     6
  6
CONTINUOUS
 10
6.167648
 20
-1.792225
 30
0.000000
 11
6.065148
 21
-1.792225
 31
0.000000
  0
ARC
  8
Default
 62
     6
  6
CONTINUOUS
 10
6.167648
 20
-1.792225
 30
0.000000
 40
0.102500
 50
180.000000
 51
360.000000
  0
ARC
  8
Default
 62
     6
  6
CONTINUOUS
 10
6.167648
 20
-1.792225
 30
0.000000
 40
0.102500
 50
0.000000
 51
180.000000
  0
LINE
  8
Default
 62
     6
  6
CONTINUOUS
 10
6.065148
 20
-1.792225
 30
0.000000
 11
6.167648
 21
-1.792225
 31
0.000000
  0
LINE
  8
Default
 62
     6
  6
CONTINUOUS
 10
6.167648
 20
-1.792225
 30
0.000000
 11
6.060148
 21
-1.792225
 31
0.000000
  0
ARC
  8
Default
 62
     6
  6
CONTINUOUS
 10
6.167648
 20
-1.792225
 30
0.000000
 40
0.107500
 50
180.000000
 51
360.000000
  0
ARC
  8
Default
 62
     6
  6
CONTINUOUS
 10
6.167648
 20
-1.792225
 30
0.000000
 40
0.107500
 50
0.000000
 51
180.000000
  0
LINE
  8
Default
 62
     6
  6
CONTINUOUS
 10
6.060148
 20
-1.792225
 30
0.000000
 11
6.167648
 21
-1.792225
 31
0.000000
  0
LINE
  8
Default
 62
     6
  6
CONTINUOUS
 10
-6.115329
 20
-1.904448
 30
0.000000
 11
-6.217829
 21
-1.904448
 31
0.000000
  0
ARC
  8
Default
 62
     6
  6
CONTINUOUS
 10
-6.115329
 20
-1.904448
 30
0.000000
 40
0.102500
 50
180.000000
 51
360.000000
  0
ARC
  8
Default
 62
     6
  6
CONTINUOUS
 10
-6.115329
 20
-1.904448
 30
0.000000
 40
0.102500
 50
0.000000
 51
180.000000
  0
LINE
  8
Default
 62
     6
  6
CONTINUOUS
 10
-6.217829
 20
-1.904448
 30
0.000000
 11
-6.115329
 21
-1.904448
 31
0.000000
  0
LINE
  8
Default
 62
     6
  6
CONTINUOUS
 10
-6.115329
 20
-1.904448
 30
0.000000
 11
-6.222829
 21
-1.904448
 31
0.000000
  0
ARC
  8
Default
 62
     6
  6
CONTINUOUS
 10
-6.115329
 20
-1.904448
 30
0.000000
 40
0.107500
 50
180.000000
 51
360.000000
  0
ARC
  8
Default
 62
     6
  6
CONTINUOUS
 10
-6.115329
 20
-1.904448
 30
0.000000
 40
0.107500
 50
0.000000
 51
180.000000
  0
LINE
  8
Default
 62
     6
  6
CONTINUOUS
 10
-6.222829
 20
-1.904448
 30
0.000000
 11
-6.115329
 21
-1.904448
 31
0.000000
  0
LINE
  8
DIM
 62
     7
  6
CONTINUOUS
 10
5.919077
 20
1.982473
 30
0.000000
 11
5.919077
 21
2.831743
 31
0.000000
  0
LINE
  8
DIM
 62
     7
  6
CONTINUOUS
 10
6.415077
 20
1.982473
 30
0.000000
 11
6.415077
 21
2.831743
 31
0.000000
  0
LINE
  8
DIM
 62
     7
  6
CONTINUOUS
 10
5.841997
 20
2.827933
 30
0.000000
 11
6.492157
 21
2.827933
 31
0.000000
  0
LINE
  8
DIM
 62
     7
  6
CONTINUOUS
 10
5.919077
 20
2.827933
 30
0.000000
 11
5.944077
 21
2.840433
 31
0.000000
  0
LINE
  8
DIM
 62
     7
  6
CONTINUOUS
 10
5.919077
 20
2.827933
 30
0.000000
 11
5.944077
 21
2.815433
 31
0.000000
  0
LINE
  8
DIM
 62
     7
  6
CONTINUOUS
 10
6.415077
 20
2.827933
 30
0.000000
 11
6.390077
 21
2.815433
 31
0.000000
  0
LINE
  8
DIM
 62
     7
  6
CONTINUOUS
 10
6.415077
 20
2.827933
 30
0.000000
 11
6.390077
 21
2.840433
 31
0.000000
  0
TEXT
  8
DIM
 62
     7
 10
5.847077
 20
2.909213
 30
0.000000
 40
0.200000
  1
0.496
 72
     1
 11
6.167077
 21
2.909213
 31
0.000000
  0
LINE
  8
DIM
 62
     7
  6
CONTINUOUS
 10
3.436530
 20
5.326964
 30
0.000000
 11
3.436530
 21
6.176234
 31
0.000000
  0
LINE
  8
DIM
 62
     7
  6
CONTINUOUS
 10
3.932530
 20
5.326964
 30
0.000000
 11
3.932530
 21
6.176234
 31
0.000000
  0
LINE
  8
DIM
 62
     7
  6
CONTINUOUS
 10
3.359450
 20
6.172424
 30
0.000000
 11
4.009610
 21
6.172424
 31
0.000000
  0
LINE
  8
DIM
 62
     7
  6
CONTINUOUS
 10
3.436530
 20
6.172424
 30
0.000000
 11
3.461530
 21
6.184924
 31
0.000000
  0
LINE
  8
DIM
 62
     7
  6
CONTINUOUS
 10
3.436530
 20
6.172424
 30
0.000000
 11
3.461530
 21
6.159924
 31
0.000000
  0
LINE
  8
DIM
 62
     7
  6
CONTINUOUS
 10
3.932530
 20
6.172424
 30
0.000000
 11
3.907530
 21
6.159924
 31
0.000000
  0
LINE
  8
DIM
 62
     7
  6
CONTINUOUS
 10
3.932530
 20
6.172424
 30
0.000000
 11
3.907530
 21
6.184924
 31
0.000000
  0
TEXT
  8
DIM
 62
     7
 10
3.364530
 20
6.253704
 30
0.000000
 40
0.200000
  1
0.496
 72
     1
 11
3.684530
 21
6.253704
 31
0.000000
  0
LINE
  8
DIM
 62
     7
  6
CONTINUOUS
 10
-0.305494
 20
6.353694
 30
0.000000
 11
-0.305494
 21
7.202964
 31
0.000000
  0
LINE
  8
DIM
 62
     7
  6
CONTINUOUS
 10
0.190506
 20
6.353694
 30
0.000000
 11
0.190506
 21
7.202964
 31
0.000000
  0
LINE
  8
DIM
 62
     7
  6
CONTINUOUS
 10
-0.382574
 20
7.199154
 30
0.000000
 11
0.267586
 21
7.199154
 31
0.000000
  0
LINE
  8
DIM
 62
     7
  6
CONTINUOUS
 10
-0.305494
 20
7.199154
 30
0.000000
 11
-0.280494
 21
7.211654
 31
0.000000
  0
LINE
  8
DIM
 62
     7
  6
CONTINUOUS
 10
-0.305494
 20
7.199154
 30
0.000000
 11
-0.280494
 21
7.186654
 31
0.000000
  0
LINE
  8
DIM
 62
     7
  6
CONTINUOUS
 10
0.190506
 20
7.199154
 30
0.000000
 11
0.165506
 21
7.186654
 31
0.000000
  0
LINE
  8
DIM
 62
     7
  6
CONTINUOUS
 10
0.190506
 20
7.199154
 30
0.000000
 11
0.165506
 21
7.211654
 31
0.000000
  0
TEXT
  8
DIM
 62
     7
 10
-0.377494
 20
7.280434
 30
0.000000
 40
0.200000
  1
0.496
 72
     1
 11
-0.057494
 21
7.280434
 31
0.000000
  0
LINE
  8
DIM
 62
     7
  6
CONTINUOUS
 10
-3.838347
 20
5.241243
 30
0.000000
 11
-3.838347
 21
6.090513
 31
0.000000
  0
LINE
  8
DIM
 62
     7
  6
CONTINUOUS
 10
-3.342347
 20
5.241243
 30
0.000000
 11
-3.342347
 21
6.090513
 31
0.000000
  0
LINE
  8
DIM
 62
     7
  6
CONTINUOUS
 10
-3.915427
 20
6.086703
 30
0.000000
 11
-3.265267
 21
6.086703
 31
0.000000
  0
LINE
  8
DIM
 62
     7
  6
CONTINUOUS
 10
-3.838347
 20
6.086703
 30
0.000000
 11
-3.813347
 21
6.099203
 31
0.000000
  0
LINE
  8
DIM
 62
     7
  6
CONTINUOUS
 10
-3.838347
 20
6.086703
 30
0.000000
 11
-3.813347
 21
6.074203
 31
0.000000
  0
LINE
  8
DIM
 62
     7
  6
CONTINUOUS
 10
-3.342347
 20
6.086703
 30
0.000000
 11
-3.367347
 21
6.074203
 31
0.000000
  0
LINE
  8
DIM
 62
     7
  6
CONTINUOUS
 10
-3.342347
 20
6.086703
 30
0.000000
 11
-3.367347
 21
6.099203
 31
0.000000
  0
TEXT
  8
DIM
 62
     7
 10
-3.910347
 20
6.167983
 30
0.000000
 40
0.200000
  1
0.496
 72
     1
 11
-3.590347
 21
6.167983
 31
0.000000
  0
LINE
  8
DIM
 62
     7
  6
CONTINUOUS
 10
-6.294032
 20
1.915275
 30
0.000000
 11
-6.294032
 21
2.764545
 31
0.000000
  0
LINE
  8
DIM
 62
     7
  6
CONTINUOUS
 10
-5.798032
 20
1.915275
 30
0.000000
 11
-5.798032
 21
2.764545
 31
0.000000
  0
LINE
  8
DIM
 62
     7
  6
CONTINUOUS
 10
-6.371112
 20
2.760735
 30
0.000000
 11
-5.720952
 21
2.760735
 31
0.000000
  0
LINE
  8
DIM
 62
     7
  6
CONTINUOUS
 10
-6.294032
 20
2.760735
 30
0.000000
 11
-6.269032
 21
2.773235
 31
0.000000
  0
LINE
  8
DIM
 62
     7
  6
CONTINUOUS
 10
-6.294032
 20
2.760735
 30
0.000000
 11
-6.269032
 21
2.748235
 31
0.000000
  0
LINE
  8
DIM
 62
     7
  6
CONTINUOUS
 10
-5.798032
 20
2.760735
 30
0.000000
 11
-5.823032
 21
2.748235
 31
0.000000
  0
LINE
  8
DIM
 62
     7
  6
CONTINUOUS
 10
-5.798032
 20
2.760735
 30
0.000000
 11
-5.823032
 21
2.773235
 31
0.000000
  0
TEXT
  8
DIM
 62
     7
 10
-6.366032
 20
2.842016
 30
0.000000
 40
0.200000
  1
0.496
 72
     1
 11
-6.046032
 21
2.842016
 31
0.000000
  0
LINE
  8
DIM
 62
     7
  6
CONTINUOUS
 10
-6.410329
 20
-1.901908
 30
0.000000
 11
-6.410329
 21
-1.005638
 31
0.000000
  0
LINE
  8
DIM
 62
     7
  6
CONTINUOUS
 10
-5.820329
 20
-1.901908
 30
0.000000
 11
-5.820329
 21
-1.005638
 31
0.000000
  0
LINE
  8
DIM
 62
     7
  6
CONTINUOUS
 10
-6.430409
 20
-1.009448
 30
0.000000
 11
-5.800249
 21
-1.009448
 31
0.000000
  0
LINE
  8
DIM
 62
     7
  6
CONTINUOUS
 10
-6.410329
 20
-1.009448
 30
0.000000
 11
-6.385329
 21
-0.996948
 31
0.000000
  0
LINE
  8
DIM
 62
     7
  6
CONTINUOUS
 10
-6.410329
 20
-1.009448
 30
0.000000
 11
-6.385329
 21
-1.021948
 31
0.000000
  0
LINE
  8
DIM
 62
     7
  6
CONTINUOUS
 10
-5.820329
 20
-1.009448
 30
0.000000
 11
-5.845329
 21
-1.021948
 31
0.000000
  0
LINE
  8
DIM
 62
     7
  6
CONTINUOUS
 10
-5.820329
 20
-1.009448
 30
0.000000
 11
-5.845329
 21
-0.996948
 31
0.000000
  0
TEXT
  8
DIM
 62
     7
 10
-6.425328
 20
-0.928168
 30
0.000000
 40
0.200000
  1
0.590
 72
     1
 11
-6.115329
 21
-0.928168
 31
0.000000
  0
LINE
  8
DIM
 62
     7
  6
CONTINUOUS
 10
-5.243822
 20
-3.687847
 30
0.000000
 11
-5.243822
 21
-2.838577
 31
0.000000
  0
LINE
  8
DIM
 62
     7
  6
CONTINUOUS
 10
-4.747822
 20
-3.687847
 30
0.000000
 11
-4.747822
 21
-2.838577
 31
0.000000
  0
LINE
  8
DIM
 62
     7
  6
CONTINUOUS
 10
-5.320902
 20
-2.842387
 30
0.000000
 11
-4.670742
 21
-2.842387
 31
0.000000
  0
LINE
  8
DIM
 62
     7
  6
CONTINUOUS
 10
-5.243822
 20
-2.842387
 30
0.000000
 11
-5.218822
 21
-2.829887
 31
0.000000
  0
LINE
  8
DIM
 62
     7
  6
CONTINUOUS
 10
-5.243822
 20
-2.842387
 30
0.000000
 11
-5.218822
 21
-2.854887
 31
0.000000
  0
LINE
  8
DIM
 62
     7
  6
CONTINUOUS
 10
-4.747822
 20
-2.842387
 30
0.000000
 11
-4.772822
 21
-2.854887
 31
0.000000
  0
LINE
  8
DIM
 62
     7
  6
CONTINUOUS
 10
-4.747822
 20
-2.842387
 30
0.000000
 11
-4.772822
 21
-2.829887
 31
0.000000
  0
TEXT
  8
DIM
 62
     7
 10
-5.315822
 20
-2.761107
 30
0.000000
 40
0.200000
  1
0.496
 72
     1
 11
-4.995822
 21
-2.761107
 31
0.000000
  0
LINE
  8
DIM
 62
     7
  6
CONTINUOUS
 10
-2.312534
 20
-5.853377
 30
0.000000
 11
-2.312534
 21
-5.004107
 31
0.000000
  0
LINE
  8
DIM
 62
     7
  6
CONTINUOUS
 10
-1.816534
 20
-5.853377
 30
0.000000
 11
-1.816534
 21
-5.004107
 31
0.000000
  0
LINE
  8
DIM
 62
     7
  6
CONTINUOUS
 10
-2.389614
 20
-5.007917
 30
0.000000
 11
-1.739454
 21
-5.007917
 31
0.000000
  0
LINE
  8
DIM
 62
     7
  6
CONTINUOUS
 10
-2.312534
 20
-5.007917
 30
0.000000
 11
-2.287534
 21
-4.995417
 31
0.000000
  0
LINE
  8
DIM
 62
     7
  6
CONTINUOUS
 10
-2.312534
 20
-5.007917
 30
0.000000
 11
-2.287534
 21
-5.020417
 31
0.000000
  0
LINE
  8
DIM
 62
     7
  6
CONTINUOUS
 10
-1.816534
 20
-5.007917
 30
0.000000
 11
-1.841534
 21
-5.020417
 31
0.000000
  0
LINE
  8
DIM
 62
     7
  6
CONTINUOUS
 10
-1.816534
 20
-5.007917
 30
0.000000
 11
-1.841534
 21
-4.995417
 31
0.000000
  0
TEXT
  8
DIM
 62
     7
 10
-2.384534
 20
-4.926637
 30
0.000000
 40
0.200000
  1
0.496
 72
     1
 11
-2.064534
 21
-4.926637
 31
0.000000
  0
LINE
  8
DIM
 62
     7
  6
CONTINUOUS
 10
1.939335
 20
-5.827540
 30
0.000000
 11
1.939335
 21
-4.978270
 31
0.000000
  0
LINE
  8
DIM
 62
     7
  6
CONTINUOUS
 10
2.435335
 20
-5.827540
 30
0.000000
 11
2.435335
 21
-4.978270
 31
0.000000
  0
LINE
  8
DIM
 62
     7
  6
CONTINUOUS
 10
1.862255
 20
-4.982080
 30
0.000000
 11
2.512415
 21
-4.982080
 31
0.000000
  0
LINE
  8
DIM
 62
     7
  6
CONTINUOUS
 10
1.939335
 20
-4.982080
 30
0.000000
 11
1.964335
 21
-4.969580
 31
0.000000
  0
LINE
  8
DIM
 62
     7
  6
CONTINUOUS
 10
1.939335
 20
-4.982080
 30
0.000000
 11
1.964335
 21
-4.994580
 31
0.000000
  0
LINE
  8
DIM
 62
     7
  6
CONTINUOUS
 10
2.435335
 20
-4.982080
 30
0.000000
 11
2.410335
 21
-4.994580
 31
0.000000
  0
LINE
  8
DIM
 62
     7
  6
CONTINUOUS
 10
2.435335
 20
-4.982080
 30
0.000000
 11
2.410335
 21
-4.969580
 31
0.000000
  0
TEXT
  8
DIM
 62
     7
 10
1.867335
 20
-4.900800
 30
0.000000
 40
0.200000
  1
0.496
 72
     1
 11
2.187335
 21
-4.900800
 31
0.000000
  0
LINE
  8
DIM
 62
     7
  6
CONTINUOUS
 10
5.230581
 20
-2.963858
 30
0.000000
 11
5.230581
 21
-2.114588
 31
0.000000
  0
LINE
  8
DIM
 62
     7
  6
CONTINUOUS
 10
5.726581
 20
-2.963858
 30
0.000000
 11
5.726581
 21
-2.114588
 31
0.000000
  0
LINE
  8
DIM
 62
     7
  6
CONTINUOUS
 10
5.153501
 20
-2.118398
 30
0.000000
 11
5.803661
 21
-2.118398
 31
0.000000
  0
LINE
  8
DIM
 62
     7
  6
CONTINUOUS
 10
5.230581
 20
-2.118398
 30
0.000000
 11
5.255581
 21
-2.105898
 31
0.000000
  0
LINE
  8
DIM
 62
     7
  6
CONTINUOUS
 10
5.230581
 20
-2.118398
 30
0.000000
 11
5.255581
 21
-2.130898
 31
0.000000
  0
LINE
  8
DIM
 62
     7
  6
CONTINUOUS
 10
5.726581
 20
-2.118398
 30
0.000000
 11
5.701581
 21
-2.130898
 31
0.000000
  0
LINE
  8
DIM
 62
     7
  6
CONTINUOUS
 10
5.726581
 20
-2.118398
 30
0.000000
 11
5.701581
 21
-2.105898
 31
0.000000
  0
TEXT
  8
DIM
 62
     7
 10
5.158581
 20
-2.037118
 30
0.000000
 40
0.200000
  1
0.496
 72
     1
 11
5.478581
 21
-2.037118
 31
0.000000
  0
LINE
  8
DIM
 62
     7
  6
CONTINUOUS
 10
5.872648
 20
-1.789685
 30
0.000000
 11
5.872648
 21
-0.893415
 31
0.000000
  0
LINE
  8
DIM
 62
     7
  6
CONTINUOUS
 10
6.462648
 20
-1.789685
 30
0.000000
 11
6.462648
 21
-0.893415
 31
0.000000
  0
LINE
  8
DIM
 62
     7
  6
CONTINUOUS
 10
5.852568
 20
-0.897225
 30
0.000000
 11
6.482728
 21
-0.897225
 31
0.000000
  0
LINE
  8
DIM
 62
     7
  6
CONTINUOUS
 10
5.872648
 20
-0.897225
 30
0.000000
 11
5.897648
 21
-0.884725
 31
0.000000
  0
LINE
  8
DIM
 62
     7
  6
CONTINUOUS
 10
5.872648
 20
-0.897225
 30
0.000000
 11
5.897648
 21
-0.909725
 31
0.000000
  0
LINE
  8
DIM
 62
     7
  6
CONTINUOUS
 10
6.462648
 20
-0.897225
 30
0.000000
 11
6.437648
 21
-0.909725
 31
0.000000
  0
LINE
  8
DIM
 62
     7
  6
CONTINUOUS
 10
6.462648
 20
-0.897225
 30
0.000000
 11
6.437648
 21
-0.884725
 31
0.000000
  0
TEXT
  8
DIM
 62
     7
 10
5.857648
 20
-0.815945
 30
0.000000
 40
0.200000
  1
0.590
 72
     1
 11
6.167648
 21
-0.815945
 31
0.000000
  0
ENDSEC
  0
EOF
