  0
SECTION
  2
HEADER
  9
$ACADVER
  1
AC1006
  0
ENDSEC
  0
SECTION
  2
TABLES
  0
TABLE
  2
LTYPE
 70
    25
  0
LTYPE
  2
CONTINUOUS
 70
    64
  3
Solid line
 72
    64
 73
     0
 40
0.000000
  0
LTYPE
  2
DASHDOT
 70
    64
  3
__ . __ . __ . __ . __ . __ . __ . __ . __ . __
 72
    65
 73
     4
 40
1.000000
 49
0.500000
 49
-0.250000
 49
0.000000
 49
-0.250000
  0
LTYPE
  2
DASHED
 70
    64
  3
__ __ __ __ __ __ __ __ __ __ __ __ __ __ __ __
 72
    65
 73
     2
 40
0.750000
 49
0.500000
 49
-0.250000
  0
LTYPE
  2
DIVIDE
 70
    64
  3
____ . . ____ . . ____ . . ____ . . ____ . . __
 72
    65
 73
     6
 40
1.250000
 49
0.500000
 49
-0.250000
 49
0.000000
 49
-0.250000
 49
0.000000
 49
-0.250000
  0
LTYPE
  2
DOT
 70
    64
  3
. . . . . . . . . . . . . . . . . . . . . . . . 
 72
    65
 73
     2
 40
0.250000
 49
0.000000
 49
-0.250000
  0
ENDTAB
  0
ENDSEC
  0
SECTION
  2
BLOCKS
  0
BLOCK
  8
0
  2
Object_0
 70
    64
 10
0.000000
 20
0.000000
 30
0.000000
  0
ENDBLK
  0
ENDSEC
  0
SECTION
  2
ENTITIES
  0
CIRCLE
  8
HOLE2
 62
     6
  6
CONTINUOUS
 10
7.875130
 20
1.690692
 30
0.000000
 40
0.250000
  0
CIRCLE
  8
HOLE2
 62
     6
  6
CONTINUOUS
 10
7.873108
 20
-1.714306
 30
-0.000000
 40
0.250000
  0
CIRCLE
  8
HOLE2
 62
     6
  6
CONTINUOUS
 10
4.402569
 20
-5.030228
 30
-0.000000
 40
0.250000
  0
CIRCLE
  8
HOLE2
 62
     6
  6
CONTINUOUS
 10
-0.050430
 20
-6.654538
 30
-0.000000
 40
0.304001
  0
CIRCLE
  8
HOLE2
 62
     6
  6
CONTINUOUS
 10
-6.203190
 20
-2.767174
 30
-0.000000
 40
0.250000
  0
CIRCLE
  8
HOLE2
 62
     6
  6
CONTINUOUS
 10
-6.507030
 20
2.961772
 30
-0.000000
 40
0.250000
  0
CIRCLE
  8
HOLE2
 62
     6
  6
CONTINUOUS
 10
4.430801
 20
5.026649
 30
-0.000000
 40
0.250000
  0
LINE
  8
DIM
 62
     7
  6
CONTINUOUS
 10
6.048940
 20
6.004757
 30
-0.000000
 11
6.025170
 21
5.990389
 31
-0.000000
  0
LINE
  8
DIM
 62
     7
  6
CONTINUOUS
 10
5.583757
 20
5.723570
 30
-0.000000
 11
4.430801
 21
5.026649
 31
-0.000000
  0
LINE
  8
DIM
 62
     7
  6
CONTINUOUS
 10
4.644752
 20
5.155975
 30
-0.000000
 11
4.707009
 21
5.207629
 31
-0.000000
  0
LINE
  8
DIM
 62
     7
  6
CONTINUOUS
 10
4.644752
 20
5.155975
 30
-0.000000
 11
4.719424
 21
5.187090
 31
-0.000000
  0
TEXT
  8
DIM
 62
     7
 10
5.252047
 20
5.794479
 30
0.000000
 40
0.200000
  1
R0.500
 72
     1
 11
5.647880
 21
5.794479
 31
0.000000
  0
CIRCLE
  8
PLATCENT
 62
     9
  6
DASHDOT
 10
-0.000431
 20
-0.000039
 30
0.000000
 40
3.625000
  0
CIRCLE
  8
PLATCENT
 62
     9
  6
CONTINUOUS
 10
-0.000431
 20
-0.000039
 30
0.000000
 40
3.000000
  0
CIRCLE
  8
PLATCENT
 62
     9
  6
CONTINUOUS
 10
3.624569
 20
-0.000039
 30
0.000000
 40
0.265499
  0
CIRCLE
  8
PLATCENT
 62
     9
  6
CONTINUOUS
 10
-0.000431
 20
3.624961
 30
0.000000
 40
0.265499
  0
CIRCLE
  8
PLATCENT
 62
     9
  6
CONTINUOUS
 10
-3.625431
 20
-0.000039
 30
0.000000
 40
0.265499
  0
CIRCLE
  8
PLATCENT
 62
     9
  6
CONTINUOUS
 10
-0.000431
 20
-3.625039
 30
0.000000
 40
0.265499
  0
POINT
  8
0
 62
     7
 10
7.875130
 20
1.690692
 30
0.000000
  0
POINT
  8
0
 62
     7
 10
4.430801
 20
5.026649
 30
0.000000
  0
POINT
  8
0
 62
     7
 10
-3.625431
 20
-0.000039
 30
0.000000
  0
POINT
  8
0
 62
     7
 10
-0.000431
 20
3.624961
 30
0.000000
  0
POINT
  8
0
 62
     7
 10
3.624569
 20
-0.000039
 30
0.000000
  0
POINT
  8
0
 62
     7
 10
-0.000431
 20
-3.625039
 30
0.000000
  0
POINT
  8
0
 62
     7
 10
-0.050430
 20
6.650459
 30
0.000000
  0
POINT
  8
0
 62
     7
 10
-6.507030
 20
2.961772
 30
0.000000
  0
POINT
  8
0
 62
     7
 10
-6.203190
 20
-2.767174
 30
0.000000
  0
POINT
  8
0
 62
     7
 10
-0.050430
 20
-6.654538
 30
0.000000
  0
POINT
  8
0
 62
     7
 10
4.402569
 20
-5.030228
 30
0.000000
  0
POINT
  8
0
 62
     7
 10
7.873108
 20
-1.714306
 30
0.000000
  0
CIRCLE
  8
PLATCENT
 62
     9
  6
CONTINUOUS
 10
-0.000431
 20
-0.000039
 30
0.000000
 40
4.250000
  0
LINE
  8
Default
 62
     7
  6
CONTINUOUS
 10
8.475440
 20
2.211888
 30
0.000000
 11
8.472798
 21
-2.235782
 31
0.000000
  0
ARC
  8
Default
 62
     7
  6
CONTINUOUS
 10
8.225440
 20
2.212037
 30
0.000000
 40
0.250000
 50
359.965976
 51
410.401185
  0
LINE
  8
Default
 62
     7
  6
CONTINUOUS
 10
8.380853
 20
-2.429331
 30
0.000000
 11
4.718679
 21
-5.417623
 31
0.000000
  0
ARC
  8
Default
 62
     7
  6
CONTINUOUS
 10
4.402569
 20
-5.030228
 30
0.000000
 40
0.500000
 50
290.644731
 51
309.214046
  0
LINE
  8
Default
 62
     7
  6
CONTINUOUS
 10
4.578855
 20
-5.498120
 30
0.000000
 11
0.143485
 21
-7.169220
 31
0.000000
  0
ARC
  8
Default
 62
     7
  6
CONTINUOUS
 10
-0.050430
 20
-6.654538
 30
0.000000
 40
0.550000
 50
284.591599
 51
290.644731
  0
LINE
  8
Default
 62
     7
  6
CONTINUOUS
 10
-0.500000
 20
-7.375000
 30
0.000000
 11
0.088130
 21
-7.186798
 31
0.000000
  0
LINE
  8
Default
 62
     7
  6
CONTINUOUS
 10
-0.500000
 20
-7.375000
 30
0.000000
 11
-2.500000
 21
-7.950000
 31
0.000000
  0
LINE
  8
Default
 62
     7
  6
CONTINUOUS
 10
-2.500000
 20
-7.950000
 30
0.000000
 11
-3.000000
 21
-8.000000
 31
0.000000
  0
LINE
  8
Default
 62
     7
  6
CONTINUOUS
 10
-3.000000
 20
-8.000000
 30
0.000000
 11
-3.500000
 21
-8.000000
 31
0.000000
  0
LINE
  8
Default
 62
     7
  6
CONTINUOUS
 10
-3.500000
 20
-8.000000
 30
0.000000
 11
-4.000000
 21
-7.915000
 31
0.000000
  0
LINE
  8
Default
 62
     7
  6
CONTINUOUS
 10
-4.000000
 20
-7.915000
 30
0.000000
 11
-4.500000
 21
-7.715000
 31
0.000000
  0
LINE
  8
Default
 62
     7
  6
CONTINUOUS
 10
-4.500000
 20
-7.715000
 30
0.000000
 11
-5.000000
 21
-7.375000
 31
0.000000
  0
LINE
  8
Default
 62
     7
  6
CONTINUOUS
 10
-5.000000
 20
-7.375000
 30
0.000000
 11
-5.500000
 21
-6.860000
 31
0.000000
  0
LINE
  8
Default
 62
     7
  6
CONTINUOUS
 10
-5.500000
 20
-6.860000
 30
0.000000
 11
-6.000000
 21
-6.000000
 31
0.000000
  0
LINE
  8
Default
 62
     7
  6
CONTINUOUS
 10
-6.000000
 20
-6.000000
 30
0.000000
 11
-6.315000
 21
-5.000000
 31
0.000000
  0
LINE
  8
Default
 62
     7
  6
CONTINUOUS
 10
-6.315000
 20
-5.000000
 30
0.000000
 11
-6.638375
 21
-2.832088
 31
0.000000
  0
ARC
  8
Default
 62
     7
  6
CONTINUOUS
 10
-6.203190
 20
-2.767174
 30
0.000000
 40
0.440000
 50
183.135762
 51
188.483935
  0
LINE
  8
Default
 62
     7
  6
CONTINUOUS
 10
-6.642531
 20
-2.791243
 30
0.000000
 11
-6.956356
 21
2.937156
 31
0.000000
  0
ARC
  8
Default
 62
     7
  6
CONTINUOUS
 10
-6.507030
 20
2.961772
 30
0.000000
 40
0.450000
 50
120.741263
 51
183.135762
  0
LINE
  8
Default
 62
     7
  6
CONTINUOUS
 10
-6.737053
 20
3.348540
 30
0.000000
 11
-0.346904
 21
7.148960
 31
0.000000
  0
ARC
  8
Default
 62
     7
  6
CONTINUOUS
 10
-0.050430
 20
6.650459
 30
0.000000
 40
0.580000
 50
69.119895
 51
120.741263
  0
LINE
  8
Default
 62
     7
  6
CONTINUOUS
 10
0.156290
 20
7.192369
 30
0.000000
 11
4.609008
 21
5.493813
 31
0.000000
  0
CIRCLE
  8
HOLE2
 62
     6
  6
CONTINUOUS
 10
-0.050430
 20
6.650459
 30
-0.000000
 40
0.304001
  0
LINE
  8
DIM
 62
     7
  6
CONTINUOUS
 10
2.785556
 20
6.859557
 30
-0.000000
 11
2.768425
 21
6.858294
 31
-0.000000
  0
LINE
  8
DIM
 62
     7
  6
CONTINUOUS
 10
2.513600
 20
6.839506
 30
-0.000000
 11
-0.050430
 21
6.650459
 31
0.000000
  0
LINE
  8
DIM
 62
     7
  6
CONTINUOUS
 10
0.252748
 20
6.672812
 30
-0.000000
 11
0.331649
 21
6.690662
 31
-0.000000
  0
LINE
  8
DIM
 62
     7
  6
CONTINUOUS
 10
0.252748
 20
6.672812
 30
-0.000000
 11
0.333414
 21
6.666727
 31
-0.000000
  0
TEXT
  8
DIM
 62
     7
 10
1.960547
 20
6.903201
 30
0.000000
 40
0.200000
  1
R0.608
 72
     1
 11
2.356380
 21
6.903201
 31
0.000000
  0
LINE
  8
DIM
 62
     7
  6
CONTINUOUS
 10
0.000000
 20
-0.005080
 30
0.000000
 11
0.000000
 21
-0.011267
 31
0.000000
  0
LINE
  8
DIM
 62
     7
  6
CONTINUOUS
 10
8.474119
 20
-0.006867
 30
0.000000
 11
8.474119
 21
0.003973
 31
0.000000
  0
LINE
  8
DIM
 62
     7
  6
CONTINUOUS
 10
0.000000
 20
-0.003647
 30
0.000000
 11
9.575270
 21
-0.003647
 31
0.000000
  0
LINE
  8
DIM
 62
     7
  6
CONTINUOUS
 10
0.000000
 20
-0.003647
 30
0.000000
 11
0.050000
 21
0.021353
 31
0.000000
  0
LINE
  8
DIM
 62
     7
  6
CONTINUOUS
 10
0.000000
 20
-0.003647
 30
0.000000
 11
0.050000
 21
-0.028647
 31
0.000000
  0
LINE
  8
DIM
 62
     7
  6
CONTINUOUS
 10
8.474119
 20
-0.003647
 30
0.000000
 11
8.424119
 21
-0.028647
 31
0.000000
  0
LINE
  8
DIM
 62
     7
  6
CONTINUOUS
 10
8.474119
 20
-0.003647
 30
0.000000
 11
8.424119
 21
0.021353
 31
0.000000
  0
TEXT
  8
DIM
 62
     7
 10
8.740110
 20
0.097953
 30
0.000000
 40
0.250000
  1
8.474
 72
     1
 11
9.152610
 21
0.097953
 31
0.000000
  0
INSERT
  8
Default
 62
     7
  2
Object_0
 10
-10.160000
 20
-10.160000
 30
0.000000
  0
ARC
  8
Default
 62
     7
  6
CONTINUOUS
 10
4.430801
 20
5.026649
 30
0.000000
 40
0.500000
 50
50.401185
 51
69.119895
  0
LINE
  8
Default
 62
     7
  6
CONTINUOUS
 10
4.749505
 20
5.411912
 30
0.000000
 11
8.384792
 21
2.404668
 31
0.000000
  0
ARC
  8
Default
 62
     7
  6
CONTINUOUS
 10
8.222798
 20
-2.235633
 30
0.000000
 40
0.250000
 50
309.214046
 51
359.965976
  0
LINE
  8
CAM
 62
     7
  6
CONTINUOUS
 10
-0.050430
 20
6.645460
 30
-0.000000
 11
-0.050430
 21
6.699460
 31
-0.000000
  0
ARC
  8
CAM
 62
     7
  6
CONTINUOUS
 10
-0.050430
 20
6.650459
 30
-0.000000
 40
0.049001
 50
90.000000
 51
270.000000
  0
ARC
  8
CAM
 62
     7
  6
CONTINUOUS
 10
-0.050430
 20
6.650459
 30
-0.000000
 40
0.049001
 50
270.000000
 51
450.000000
  0
LINE
  8
CAM
 62
     7
  6
CONTINUOUS
 10
-0.050430
 20
6.699460
 30
-0.000000
 11
-0.050430
 21
6.645460
 31
-0.000000
  0
LINE
  8
CAM
 62
     7
  6
CONTINUOUS
 10
-0.050430
 20
6.650460
 30
-0.000000
 11
-0.050430
 21
6.704460
 31
-0.000000
  0
ARC
  8
CAM
 62
     7
  6
CONTINUOUS
 10
-0.050430
 20
6.650459
 30
-0.000000
 40
0.054001
 50
90.000000
 51
270.000000
  0
ARC
  8
CAM
 62
     7
  6
CONTINUOUS
 10
-0.050430
 20
6.650459
 30
-0.000000
 40
0.054001
 50
270.000000
 51
450.000000
  0
LINE
  8
CAM
 62
     7
  6
CONTINUOUS
 10
-0.050430
 20
6.704460
 30
-0.000000
 11
-0.050430
 21
6.650460
 31
-0.000000
  0
LINE
  8
CAM
 62
     7
  6
CONTINUOUS
 10
-0.050430
 20
-6.659537
 30
-0.000000
 11
-0.050430
 21
-6.605537
 31
-0.000000
  0
ARC
  8
CAM
 62
     7
  6
CONTINUOUS
 10
-0.050430
 20
-6.654538
 30
-0.000000
 40
0.049001
 50
90.000000
 51
270.000000
  0
ARC
  8
CAM
 62
     7
  6
CONTINUOUS
 10
-0.050430
 20
-6.654538
 30
-0.000000
 40
0.049001
 50
270.000000
 51
450.000000
  0
LINE
  8
CAM
 62
     7
  6
CONTINUOUS
 10
-0.050430
 20
-6.605537
 30
-0.000000
 11
-0.050430
 21
-6.659537
 31
-0.000000
  0
LINE
  8
CAM
 62
     7
  6
CONTINUOUS
 10
-0.050430
 20
-6.654537
 30
-0.000000
 11
-0.050430
 21
-6.600537
 31
-0.000000
  0
ARC
  8
CAM
 62
     7
  6
CONTINUOUS
 10
-0.050430
 20
-6.654538
 30
-0.000000
 40
0.054001
 50
90.000000
 51
270.000000
  0
ARC
  8
CAM
 62
     7
  6
CONTINUOUS
 10
-0.050430
 20
-6.654538
 30
-0.000000
 40
0.054001
 50
270.000000
 51
450.000000
  0
LINE
  8
CAM
 62
     7
  6
CONTINUOUS
 10
-0.050430
 20
-6.600537
 30
-0.000000
 11
-0.050430
 21
-6.654537
 31
-0.000000
  0
LINE
  8
CAM
 62
     7
  6
CONTINUOUS
 10
8.855440
 20
2.211663
 30
0.000000
 11
8.852798
 21
-2.236007
 31
0.000000
  0
ARC
  8
CAM
 62
     7
  6
CONTINUOUS
 10
8.222798
 20
-2.235633
 30
0.000000
 40
0.630000
 50
309.214046
 51
359.965976
  0
LINE
  8
CAM
 62
     7
  6
CONTINUOUS
 10
8.621097
 20
-2.723751
 30
0.000000
 11
4.958922
 21
-5.712043
 31
0.000000
  0
ARC
  8
CAM
 62
     7
  6
CONTINUOUS
 10
4.402569
 20
-5.030228
 30
0.000000
 40
0.880000
 50
290.644731
 51
309.214046
  0
LINE
  8
CAM
 62
     7
  6
CONTINUOUS
 10
4.712833
 20
-5.853718
 30
0.000000
 11
0.277462
 21
-7.524818
 31
0.000000
  0
ARC
  8
CAM
 62
     7
  6
CONTINUOUS
 10
-0.050430
 20
-6.654538
 30
0.000000
 40
0.930000
 50
285.320009
 51
290.644731
  0
LINE
  8
CAM
 62
     7
  6
CONTINUOUS
 10
0.195285
 20
-7.551491
 30
0.000000
 11
-0.384185
 21
-7.736921
 31
0.000000
  0
ARC
  8
CAM
 62
     7
  6
CONTINUOUS
 10
-0.500000
 20
-7.375000
 30
0.000000
 40
0.380000
 50
286.039943
 51
287.744672
  0
LINE
  8
CAM
 62
     7
  6
CONTINUOUS
 10
-0.395003
 20
-7.740206
 30
0.000000
 11
-2.395003
 21
-8.315206
 31
0.000000
  0
ARC
  8
CAM
 62
     7
  6
CONTINUOUS
 10
-2.500000
 20
-7.950000
 30
0.000000
 40
0.380000
 50
275.710593
 51
286.039943
  0
LINE
  8
CAM
 62
     7
  6
CONTINUOUS
 10
-2.462189
 20
-8.328114
 30
0.000000
 11
-2.962189
 21
-8.378114
 31
0.000000
  0
ARC
  8
CAM
 62
     7
  6
CONTINUOUS
 10
-3.000000
 20
-8.000000
 30
0.000000
 40
0.380000
 50
270.000000
 51
275.710593
  0
LINE
  8
CAM
 62
     7
  6
CONTINUOUS
 10
-3.000000
 20
-8.380000
 30
0.000000
 11
-3.500000
 21
-8.380000
 31
0.000000
  0
ARC
  8
CAM
 62
     7
  6
CONTINUOUS
 10
-3.500000
 20
-8.000000
 30
0.000000
 40
0.380000
 50
260.351955
 51
270.000000
  0
LINE
  8
CAM
 62
     7
  6
CONTINUOUS
 10
-3.563686
 20
-8.374625
 30
0.000000
 11
-4.063686
 21
-8.289625
 31
0.000000
  0
ARC
  8
CAM
 62
     7
  6
CONTINUOUS
 10
-4.000000
 20
-7.915000
 30
0.000000
 40
0.380000
 50
248.198591
 51
260.351955
  0
LINE
  8
CAM
 62
     7
  6
CONTINUOUS
 10
-4.141128
 20
-8.267821
 30
0.000000
 11
-4.641128
 21
-8.067821
 31
0.000000
  0
ARC
  8
CAM
 62
     7
  6
CONTINUOUS
 10
-4.500000
 20
-7.715000
 30
0.000000
 40
0.380000
 50
235.784298
 51
248.198591
  0
LINE
  8
CAM
 62
     7
  6
CONTINUOUS
 10
-4.713678
 20
-8.029232
 30
0.000000
 11
-5.213678
 21
-7.689232
 31
0.000000
  0
ARC
  8
CAM
 62
     7
  6
CONTINUOUS
 10
-5.000000
 20
-7.375000
 30
0.000000
 40
0.380000
 50
224.153326
 51
235.784298
  0
LINE
  8
CAM
 62
     7
  6
CONTINUOUS
 10
-5.272642
 20
-7.639701
 30
0.000000
 11
-5.772642
 21
-7.124701
 31
0.000000
  0
ARC
  8
CAM
 62
     7
  6
CONTINUOUS
 10
-5.500000
 20
-6.860000
 30
0.000000
 40
0.380000
 50
210.173520
 51
224.153326
  0
LINE
  8
CAM
 62
     7
  6
CONTINUOUS
 10
-5.828513
 20
-7.050996
 30
0.000000
 11
-6.328513
 21
-6.190996
 31
0.000000
  0
ARC
  8
CAM
 62
     7
  6
CONTINUOUS
 10
-6.000000
 20
-6.000000
 30
0.000000
 40
0.380000
 50
197.484427
 51
210.173520
  0
LINE
  8
CAM
 62
     7
  6
CONTINUOUS
 10
-6.362443
 20
-6.114170
 30
0.000000
 11
-6.677443
 21
-5.114170
 31
0.000000
  0
ARC
  8
CAM
 62
     7
  6
CONTINUOUS
 10
-6.315000
 20
-5.000000
 30
0.000000
 40
0.380000
 50
188.483935
 51
197.484427
  0
LINE
  8
CAM
 62
     7
  6
CONTINUOUS
 10
-6.690842
 20
-5.056062
 30
0.000000
 11
-7.014217
 21
-2.888150
 31
0.000000
  0
ARC
  8
CAM
 62
     7
  6
CONTINUOUS
 10
-6.203190
 20
-2.767174
 30
0.000000
 40
0.820000
 50
183.135762
 51
188.483935
  0
LINE
  8
CAM
 62
     7
  6
CONTINUOUS
 10
-7.021962
 20
-2.812030
 30
0.000000
 11
-7.335787
 21
2.916369
 31
0.000000
  0
ARC
  8
CAM
 62
     7
  6
CONTINUOUS
 10
-6.507030
 20
2.961772
 30
0.000000
 40
0.830000
 50
120.741263
 51
183.135762
  0
LINE
  8
CAM
 62
     7
  6
CONTINUOUS
 10
-6.931294
 20
3.675144
 30
0.000000
 11
-0.541146
 21
7.475564
 31
0.000000
  0
ARC
  8
CAM
 62
     7
  6
CONTINUOUS
 10
-0.050430
 20
6.650459
 30
0.000000
 40
0.960000
 50
69.119895
 51
120.741263
  0
LINE
  8
CAM
 62
     7
  6
CONTINUOUS
 10
0.291727
 20
7.547414
 30
0.000000
 11
4.744445
 21
5.848858
 31
0.000000
  0
ARC
  8
CAM
 62
     7
  6
CONTINUOUS
 10
4.430801
 20
5.026649
 30
0.000000
 40
0.880000
 50
50.401185
 51
69.119895
  0
LINE
  8
CAM
 62
     7
  6
CONTINUOUS
 10
4.991720
 20
5.704712
 30
0.000000
 11
8.627007
 21
2.697468
 31
0.000000
  0
ARC
  8
CAM
 62
     7
  6
CONTINUOUS
 10
8.225440
 20
2.212037
 30
0.000000
 40
0.630000
 50
359.965976
 51
410.401185
  0
LINE
  8
CAM
 62
     7
  6
CONTINUOUS
 10
8.850440
 20
2.211665
 30
0.000000
 11
8.847798
 21
-2.236004
 31
0.000000
  0
ARC
  8
CAM
 62
     7
  6
CONTINUOUS
 10
8.222798
 20
-2.235633
 30
0.000000
 40
0.625000
 50
309.214046
 51
359.965976
  0
LINE
  8
CAM
 62
     7
  6
CONTINUOUS
 10
8.617936
 20
-2.719877
 30
0.000000
 11
4.955761
 21
-5.708169
 31
0.000000
  0
ARC
  8
CAM
 62
     7
  6
CONTINUOUS
 10
4.402569
 20
-5.030228
 30
0.000000
 40
0.875000
 50
290.644731
 51
309.214046
  0
LINE
  8
CAM
 62
     7
  6
CONTINUOUS
 10
4.711070
 20
-5.849039
 30
0.000000
 11
0.275699
 21
-7.520139
 31
0.000000
  0
ARC
  8
CAM
 62
     7
  6
CONTINUOUS
 10
-0.050430
 20
-6.654538
 30
0.000000
 40
0.925000
 50
285.313463
 51
290.644731
  0
LINE
  8
CAM
 62
     7
  6
CONTINUOUS
 10
0.193862
 20
-7.546696
 30
0.000000
 11
-0.385709
 21
-7.732159
 31
0.000000
  0
ARC
  8
CAM
 62
     7
  6
CONTINUOUS
 10
-0.500000
 20
-7.375000
 30
0.000000
 40
0.375000
 50
286.039943
 51
287.744672
  0
LINE
  8
CAM
 62
     7
  6
CONTINUOUS
 10
-0.396385
 20
-7.735401
 30
0.000000
 11
-2.396385
 21
-8.310401
 31
0.000000
  0
ARC
  8
CAM
 62
     7
  6
CONTINUOUS
 10
-2.500000
 20
-7.950000
 30
0.000000
 40
0.375000
 50
275.710593
 51
286.039943
  0
LINE
  8
CAM
 62
     7
  6
CONTINUOUS
 10
-2.462686
 20
-8.323139
 30
0.000000
 11
-2.962686
 21
-8.373139
 31
0.000000
  0
ARC
  8
CAM
 62
     7
  6
CONTINUOUS
 10
-3.000000
 20
-8.000000
 30
0.000000
 40
0.375000
 50
270.000000
 51
275.710593
  0
LINE
  8
CAM
 62
     7
  6
CONTINUOUS
 10
-3.000000
 20
-8.375000
 30
0.000000
 11
-3.500000
 21
-8.375000
 31
0.000000
  0
ARC
  8
CAM
 62
     7
  6
CONTINUOUS
 10
-3.500000
 20
-8.000000
 30
0.000000
 40
0.375000
 50
260.351955
 51
270.000000
  0
LINE
  8
CAM
 62
     7
  6
CONTINUOUS
 10
-3.562848
 20
-8.369696
 30
0.000000
 11
-4.062848
 21
-8.284696
 31
0.000000
  0
ARC
  8
CAM
 62
     7
  6
CONTINUOUS
 10
-4.000000
 20
-7.915000
 30
0.000000
 40
0.375000
 50
248.198591
 51
260.351955
  0
LINE
  8
CAM
 62
     7
  6
CONTINUOUS
 10
-4.139272
 20
-8.263179
 30
0.000000
 11
-4.639272
 21
-8.063179
 31
0.000000
  0
ARC
  8
CAM
 62
     7
  6
CONTINUOUS
 10
-4.500000
 20
-7.715000
 30
0.000000
 40
0.375000
 50
235.784298
 51
248.198591
  0
LINE
  8
CAM
 62
     7
  6
CONTINUOUS
 10
-4.710866
 20
-8.025097
 30
0.000000
 11
-5.210866
 21
-7.685097
 31
0.000000
  0
ARC
  8
CAM
 62
     7
  6
CONTINUOUS
 10
-5.000000
 20
-7.375000
 30
0.000000
 40
0.375000
 50
224.153326
 51
235.784298
  0
LINE
  8
CAM
 62
     7
  6
CONTINUOUS
 10
-5.269054
 20
-7.636218
 30
0.000000
 11
-5.769054
 21
-7.121218
 31
0.000000
  0
ARC
  8
CAM
 62
     7
  6
CONTINUOUS
 10
-5.500000
 20
-6.860000
 30
0.000000
 40
0.375000
 50
210.173520
 51
224.153326
  0
LINE
  8
CAM
 62
     7
  6
CONTINUOUS
 10
-5.824190
 20
-7.048483
 30
0.000000
 11
-6.324190
 21
-6.188483
 31
0.000000
  0
ARC
  8
CAM
 62
     7
  6
CONTINUOUS
 10
-6.000000
 20
-6.000000
 30
0.000000
 40
0.375000
 50
197.484427
 51
210.173520
  0
LINE
  8
CAM
 62
     7
  6
CONTINUOUS
 10
-6.357674
 20
-6.112667
 30
0.000000
 11
-6.672674
 21
-5.112667
 31
0.000000
  0
ARC
  8
CAM
 62
     7
  6
CONTINUOUS
 10
-6.315000
 20
-5.000000
 30
0.000000
 40
0.375000
 50
188.483935
 51
197.484427
  0
LINE
  8
CAM
 62
     7
  6
CONTINUOUS
 10
-6.685896
 20
-5.055325
 30
0.000000
 11
-7.009272
 21
-2.887413
 31
0.000000
  0
ARC
  8
CAM
 62
     7
  6
CONTINUOUS
 10
-6.203190
 20
-2.767174
 30
0.000000
 40
0.815000
 50
183.135762
 51
188.483935
  0
LINE
  8
CAM
 62
     7
  6
CONTINUOUS
 10
-7.016970
 20
-2.811756
 30
0.000000
 11
-7.330795
 21
2.916643
 31
0.000000
  0
ARC
  8
CAM
 62
     7
  6
CONTINUOUS
 10
-6.507030
 20
2.961772
 30
0.000000
 40
0.825000
 50
120.741263
 51
183.135762
  0
LINE
  8
CAM
 62
     7
  6
CONTINUOUS
 10
-6.928739
 20
3.670847
 30
0.000000
 11
-0.538590
 21
7.471267
 31
0.000000
  0
ARC
  8
CAM
 62
     7
  6
CONTINUOUS
 10
-0.050430
 20
6.650459
 30
0.000000
 40
0.955000
 50
69.119895
 51
120.741263
  0
LINE
  8
CAM
 62
     7
  6
CONTINUOUS
 10
0.289945
 20
7.542743
 30
0.000000
 11
4.742663
 21
5.844186
 31
0.000000
  0
ARC
  8
CAM
 62
     7
  6
CONTINUOUS
 10
4.430801
 20
5.026649
 30
0.000000
 40
0.875000
 50
50.401185
 51
69.119895
  0
LINE
  8
CAM
 62
     7
  6
CONTINUOUS
 10
4.988533
 20
5.700860
 30
0.000000
 11
8.623820
 21
2.693616
 31
0.000000
  0
ARC
  8
CAM
 62
     7
  6
CONTINUOUS
 10
8.225440
 20
2.212037
 30
0.000000
 40
0.625000
 50
359.965976
 51
410.401185
  0
CIRCLE
  8
CAM
 62
     7
  6
CONTINUOUS
 10
-0.000431
 20
-0.000039
 30
0.000000
 40
2.620000
  0
CIRCLE
  8
CAM
 62
     7
  6
CONTINUOUS
 10
-0.000431
 20
-0.000039
 30
0.000000
 40
2.625000
  0
LINE
  8
DIM
 62
     7
  6
CONTINUOUS
 10
-0.005080
 20
0.000000
 30
0.000000
 11
-6.966123
 21
0.000000
 31
0.000000
  0
LINE
  8
DIM
 62
     7
  6
CONTINUOUS
 10
-0.055510
 20
7.230459
 30
0.000000
 11
-6.966123
 21
7.230459
 31
0.000000
  0
LINE
  8
DIM
 62
     7
  6
CONTINUOUS
 10
-6.958503
 20
0.000000
 30
0.000000
 11
-6.958503
 21
7.230459
 31
0.000000
  0
LINE
  8
DIM
 62
     7
  6
CONTINUOUS
 10
-6.958503
 20
0.000000
 30
0.000000
 11
-6.983503
 21
0.050000
 31
0.000000
  0
LINE
  8
DIM
 62
     7
  6
CONTINUOUS
 10
-6.958503
 20
0.000000
 30
0.000000
 11
-6.933503
 21
0.050000
 31
0.000000
  0
LINE
  8
DIM
 62
     7
  6
CONTINUOUS
 10
-6.958503
 20
7.230459
 30
0.000000
 11
-6.933503
 21
7.180459
 31
0.000000
  0
LINE
  8
DIM
 62
     7
  6
CONTINUOUS
 10
-6.958503
 20
7.230459
 30
0.000000
 11
-6.983503
 21
7.180459
 31
0.000000
  0
TEXT
  8
DIM
 62
     7
 10
-7.060104
 20
5.602880
 30
0.000000
 40
0.250000
  1
7.230
 50
90.000003
 72
     1
 11
-7.060104
 21
5.990380
 31
0.000000
  0
LINE
  8
DIM
 62
     7
  6
CONTINUOUS
 10
0.000000
 20
-0.005080
 30
0.000000
 11
0.000000
 21
-0.011267
 31
0.000000
  0
LINE
  8
DIM
 62
     7
  6
CONTINUOUS
 10
-6.957030
 20
2.956692
 30
0.000000
 11
-6.957030
 21
-0.011267
 31
0.000000
  0
LINE
  8
DIM
 62
     7
  6
CONTINUOUS
 10
0.000000
 20
-0.003647
 30
0.000000
 11
-7.979819
 21
-0.003647
 31
0.000000
  0
LINE
  8
DIM
 62
     7
  6
CONTINUOUS
 10
0.000000
 20
-0.003647
 30
0.000000
 11
-0.050000
 21
-0.028647
 31
0.000000
  0
LINE
  8
DIM
 62
     7
  6
CONTINUOUS
 10
0.000000
 20
-0.003647
 30
0.000000
 11
-0.050000
 21
0.021353
 31
0.000000
  0
LINE
  8
DIM
 62
     7
  6
CONTINUOUS
 10
-6.957030
 20
-0.003647
 30
0.000000
 11
-6.907030
 21
0.021353
 31
0.000000
  0
LINE
  8
DIM
 62
     7
  6
CONTINUOUS
 10
-6.957030
 20
-0.003647
 30
0.000000
 11
-6.907030
 21
-0.028647
 31
0.000000
  0
TEXT
  8
DIM
 62
     7
 10
-7.969659
 20
0.097953
 30
0.000000
 40
0.250000
  1
6.957
 72
     1
 11
-7.582159
 21
0.097953
 31
0.000000
  0
LINE
  8
DIM
 62
     7
  6
CONTINUOUS
 10
2.117055
 20
-5.530320
 30
-0.000000
 11
2.108344
 21
-5.534838
 31
-0.000000
  0
LINE
  8
DIM
 62
     7
  6
CONTINUOUS
 10
1.638577
 20
-5.778494
 30
-0.000000
 11
-0.050430
 21
-6.654538
 31
0.000000
  0
LINE
  8
DIM
 62
     7
  6
CONTINUOUS
 10
0.219431
 20
-6.514568
 30
-0.000000
 11
0.284922
 21
-6.467082
 31
-0.000000
  0
LINE
  8
DIM
 62
     7
  6
CONTINUOUS
 10
0.219431
 20
-6.514568
 30
-0.000000
 11
0.295972
 21
-6.488386
 31
-0.000000
  0
TEXT
  8
DIM
 62
     7
 10
1.302247
 20
-5.708509
 30
-0.000000
 40
0.200000
  1
R0.608
 72
     1
 11
1.698080
 21
-5.708509
 31
-0.000000
  0
LINE
  8
DIM
 62
     7
  6
CONTINUOUS
 10
-0.005080
 20
0.000000
 30
0.000000
 11
-6.966123
 21
0.000000
 31
0.000000
  0
LINE
  8
DIM
 62
     7
  6
CONTINUOUS
 10
-3.505080
 20
-8.000000
 30
0.000000
 11
-6.966123
 21
-8.000000
 31
0.000000
  0
LINE
  8
DIM
 62
     7
  6
CONTINUOUS
 10
-6.958503
 20
0.000000
 30
0.000000
 11
-6.958503
 21
-8.000000
 31
0.000000
  0
LINE
  8
DIM
 62
     7
  6
CONTINUOUS
 10
-6.958503
 20
0.000000
 30
0.000000
 11
-6.933503
 21
-0.050000
 31
0.000000
  0
LINE
  8
DIM
 62
     7
  6
CONTINUOUS
 10
-6.958503
 20
0.000000
 30
0.000000
 11
-6.983503
 21
-0.050000
 31
0.000000
  0
LINE
  8
DIM
 62
     7
  6
CONTINUOUS
 10
-6.958503
 20
-8.000000
 30
0.000000
 11
-6.983503
 21
-7.950000
 31
0.000000
  0
LINE
  8
DIM
 62
     7
  6
CONTINUOUS
 10
-6.958503
 20
-8.000000
 30
0.000000
 11
-6.933503
 21
-7.950000
 31
0.000000
  0
TEXT
  8
DIM
 62
     7
 10
-7.060104
 20
-6.904888
 30
0.000000
 40
0.250000
  1
8.000
 50
90.000003
 72
     1
 11
-7.060104
 21
-6.517388
 31
0.000000
  0
LINE
  8
DIM
 62
     7
  6
CONTINUOUS
 10
4.152569
 20
-5.027688
 30
-0.000000
 11
4.152569
 21
-4.176418
 31
-0.000000
  0
LINE
  8
DIM
 62
     7
  6
CONTINUOUS
 10
4.652569
 20
-5.027688
 30
-0.000000
 11
4.652569
 21
-4.176418
 31
-0.000000
  0
LINE
  8
DIM
 62
     7
  6
CONTINUOUS
 10
4.087489
 20
-4.180228
 30
-0.000000
 11
4.717649
 21
-4.180228
 31
-0.000000
  0
LINE
  8
DIM
 62
     7
  6
CONTINUOUS
 10
4.152569
 20
-4.180228
 30
-0.000000
 11
4.177569
 21
-4.167728
 31
-0.000000
  0
LINE
  8
DIM
 62
     7
  6
CONTINUOUS
 10
4.152569
 20
-4.180228
 30
-0.000000
 11
4.177569
 21
-4.192728
 31
-0.000000
  0
LINE
  8
DIM
 62
     7
  6
CONTINUOUS
 10
4.652569
 20
-4.180228
 30
-0.000000
 11
4.627569
 21
-4.192728
 31
-0.000000
  0
LINE
  8
DIM
 62
     7
  6
CONTINUOUS
 10
4.652569
 20
-4.180228
 30
-0.000000
 11
4.627569
 21
-4.167728
 31
-0.000000
  0
TEXT
  8
DIM
 62
     7
 10
4.092569
 20
-4.098948
 30
-0.000000
 40
0.200000
  1
0.500
 72
     1
 11
4.402569
 21
-4.098948
 31
-0.000000
  0
LINE
  8
DIM
 62
     7
  6
CONTINUOUS
 10
7.623108
 20
-1.711766
 30
-0.000000
 11
7.623108
 21
-0.860496
 31
-0.000000
  0
LINE
  8
DIM
 62
     7
  6
CONTINUOUS
 10
8.123108
 20
-1.711766
 30
-0.000000
 11
8.123108
 21
-0.860496
 31
-0.000000
  0
LINE
  8
DIM
 62
     7
  6
CONTINUOUS
 10
7.558028
 20
-0.864306
 30
-0.000000
 11
8.188188
 21
-0.864306
 31
-0.000000
  0
LINE
  8
DIM
 62
     7
  6
CONTINUOUS
 10
7.623108
 20
-0.864306
 30
-0.000000
 11
7.648108
 21
-0.851806
 31
-0.000000
  0
LINE
  8
DIM
 62
     7
  6
CONTINUOUS
 10
7.623108
 20
-0.864306
 30
-0.000000
 11
7.648108
 21
-0.876806
 31
-0.000000
  0
LINE
  8
DIM
 62
     7
  6
CONTINUOUS
 10
8.123108
 20
-0.864306
 30
-0.000000
 11
8.098108
 21
-0.876806
 31
-0.000000
  0
LINE
  8
DIM
 62
     7
  6
CONTINUOUS
 10
8.123108
 20
-0.864306
 30
-0.000000
 11
8.098108
 21
-0.851806
 31
-0.000000
  0
TEXT
  8
DIM
 62
     7
 10
7.563108
 20
-0.783026
 30
-0.000000
 40
0.200000
  1
0.500
 72
     1
 11
7.873108
 21
-0.783026
 31
-0.000000
  0
LINE
  8
DIM
 62
     7
  6
CONTINUOUS
 10
7.625130
 20
1.693232
 30
-0.000000
 11
7.625130
 21
2.544502
 31
-0.000000
  0
LINE
  8
DIM
 62
     7
  6
CONTINUOUS
 10
8.125130
 20
1.693232
 30
-0.000000
 11
8.125130
 21
2.544502
 31
-0.000000
  0
LINE
  8
DIM
 62
     7
  6
CONTINUOUS
 10
7.560050
 20
2.540692
 30
-0.000000
 11
8.190210
 21
2.540692
 31
-0.000000
  0
LINE
  8
DIM
 62
     7
  6
CONTINUOUS
 10
7.625130
 20
2.540692
 30
-0.000000
 11
7.650130
 21
2.553192
 31
-0.000000
  0
LINE
  8
DIM
 62
     7
  6
CONTINUOUS
 10
7.625130
 20
2.540692
 30
-0.000000
 11
7.650130
 21
2.528192
 31
-0.000000
  0
LINE
  8
DIM
 62
     7
  6
CONTINUOUS
 10
8.125130
 20
2.540692
 30
-0.000000
 11
8.100130
 21
2.528192
 31
-0.000000
  0
LINE
  8
DIM
 62
     7
  6
CONTINUOUS
 10
8.125130
 20
2.540692
 30
-0.000000
 11
8.100130
 21
2.553192
 31
-0.000000
  0
TEXT
  8
DIM
 62
     7
 10
7.565130
 20
2.621972
 30
0.000000
 40
0.200000
  1
0.500
 72
     1
 11
7.875130
 21
2.621972
 31
0.000000
  0
LINE
  8
DIM
 62
     7
  6
CONTINUOUS
 10
-6.453190
 20
-2.764634
 30
-0.000000
 11
-6.453190
 21
-1.913364
 31
-0.000000
  0
LINE
  8
DIM
 62
     7
  6
CONTINUOUS
 10
-5.953190
 20
-2.764634
 30
-0.000000
 11
-5.953190
 21
-1.913364
 31
-0.000000
  0
LINE
  8
DIM
 62
     7
  6
CONTINUOUS
 10
-6.518270
 20
-1.917174
 30
-0.000000
 11
-5.888110
 21
-1.917174
 31
-0.000000
  0
LINE
  8
DIM
 62
     7
  6
CONTINUOUS
 10
-6.453190
 20
-1.917174
 30
-0.000000
 11
-6.428190
 21
-1.904674
 31
-0.000000
  0
LINE
  8
DIM
 62
     7
  6
CONTINUOUS
 10
-6.453190
 20
-1.917174
 30
-0.000000
 11
-6.428190
 21
-1.929674
 31
-0.000000
  0
LINE
  8
DIM
 62
     7
  6
CONTINUOUS
 10
-5.953190
 20
-1.917174
 30
-0.000000
 11
-5.978190
 21
-1.929674
 31
-0.000000
  0
LINE
  8
DIM
 62
     7
  6
CONTINUOUS
 10
-5.953190
 20
-1.917174
 30
-0.000000
 11
-5.978190
 21
-1.904674
 31
-0.000000
  0
TEXT
  8
DIM
 62
     7
 10
-6.513189
 20
-1.835894
 30
-0.000000
 40
0.200000
  1
0.500
 72
     1
 11
-6.203190
 21
-1.835894
 31
-0.000000
  0
LINE
  8
DIM
 62
     7
  6
CONTINUOUS
 10
-6.757030
 20
2.964312
 30
-0.000000
 11
-6.757030
 21
3.815582
 31
-0.000000
  0
LINE
  8
DIM
 62
     7
  6
CONTINUOUS
 10
-6.257030
 20
2.964312
 30
-0.000000
 11
-6.257030
 21
3.815582
 31
-0.000000
  0
LINE
  8
DIM
 62
     7
  6
CONTINUOUS
 10
-6.822110
 20
3.811772
 30
-0.000000
 11
-6.191950
 21
3.811772
 31
-0.000000
  0
LINE
  8
DIM
 62
     7
  6
CONTINUOUS
 10
-6.757030
 20
3.811772
 30
-0.000000
 11
-6.732030
 21
3.824272
 31
-0.000000
  0
LINE
  8
DIM
 62
     7
  6
CONTINUOUS
 10
-6.757030
 20
3.811772
 30
-0.000000
 11
-6.732030
 21
3.799272
 31
-0.000000
  0
LINE
  8
DIM
 62
     7
  6
CONTINUOUS
 10
-6.257030
 20
3.811772
 30
-0.000000
 11
-6.282030
 21
3.799272
 31
-0.000000
  0
LINE
  8
DIM
 62
     7
  6
CONTINUOUS
 10
-6.257030
 20
3.811772
 30
-0.000000
 11
-6.282030
 21
3.824272
 31
-0.000000
  0
TEXT
  8
DIM
 62
     7
 10
-6.817030
 20
3.893052
 30
0.000000
 40
0.200000
  1
0.500
 72
     1
 11
-6.507030
 21
3.893052
 31
0.000000
  0
ENDSEC
  0
EOF
