  0
SECTION
  2
HEADER
  9
$ACADVER
  1
AC1006
  0
ENDSEC
  0
SECTION
  2
TABLES
  0
TABLE
  2
LTYPE
 70
    25
  0
LTYPE
  2
CONTINUOUS
 70
    64
  3
Solid line
 72
    64
 73
     0
 40
0.000000
  0
LTYPE
  2
DASHDOT
 70
    64
  3
__ . __ . __ . __ . __ . __ . __ . __ . __ . __
 72
    65
 73
     4
 40
1.000000
 49
0.500000
 49
-0.250000
 49
0.000000
 49
-0.250000
  0
LTYPE
  2
DASHED
 70
    64
  3
__ __ __ __ __ __ __ __ __ __ __ __ __ __ __ __
 72
    65
 73
     2
 40
0.750000
 49
0.500000
 49
-0.250000
  0
LTYPE
  2
DIVIDE
 70
    64
  3
____ . . ____ . . ____ . . ____ . . ____ . . __
 72
    65
 73
     6
 40
1.250000
 49
0.500000
 49
-0.250000
 49
0.000000
 49
-0.250000
 49
0.000000
 49
-0.250000
  0
LTYPE
  2
DOT
 70
    64
  3
. . . . . . . . . . . . . . . . . . . . . . . . 
 72
    65
 73
     2
 40
0.250000
 49
0.000000
 49
-0.250000
  0
ENDTAB
  0
ENDSEC
  0
SECTION
  2
BLOCKS
  0
BLOCK
  8
0
  2
Object_0
 70
    64
 10
0.000000
 20
0.000000
 30
0.000000
  0
ENDBLK
  0
ENDSEC
  0
SECTION
  2
ENTITIES
  0
POINT
  8
Default
 62
     7
 10
6.699966
 20
-0.021471
 30
0.000000
  0
POINT
  8
Default
 62
     7
 10
6.168449
 20
1.009592
 30
0.000000
  0
LINE
  8
DIM
 62
     7
  6
CONTINUOUS
 10
5.892859
 20
1.012132
 30
0.000000
 11
5.892859
 21
1.449397
 31
0.000000
  0
LINE
  8
DIM
 62
     7
  6
CONTINUOUS
 10
6.444040
 20
1.012132
 30
0.000000
 11
6.444040
 21
1.449397
 31
0.000000
  0
LINE
  8
DIM
 62
     7
  6
CONTINUOUS
 10
5.797925
 20
1.445587
 30
0.000000
 11
6.528085
 21
1.445587
 31
0.000000
  0
LINE
  8
DIM
 62
     7
  6
CONTINUOUS
 10
5.892859
 20
1.445587
 30
0.000000
 11
5.917859
 21
1.458087
 31
0.000000
  0
LINE
  8
DIM
 62
     7
  6
CONTINUOUS
 10
5.892859
 20
1.445587
 30
0.000000
 11
5.917859
 21
1.433087
 31
0.000000
  0
LINE
  8
DIM
 62
     7
  6
CONTINUOUS
 10
6.444040
 20
1.445587
 30
0.000000
 11
6.419040
 21
1.433087
 31
0.000000
  0
LINE
  8
DIM
 62
     7
  6
CONTINUOUS
 10
6.444040
 20
1.445587
 30
0.000000
 11
6.419040
 21
1.458087
 31
0.000000
  0
TEXT
  8
DIM
 62
     7
 10
5.803005
 20
1.526867
 30
0.000000
 40
0.200000
  1
0.5512
 72
     1
 11
6.163005
 21
1.526867
 31
0.000000
  0
LINE
  8
DIM
 62
     7
  6
CONTINUOUS
 10
6.449966
 20
-0.018931
 30
0.000000
 11
6.449966
 21
0.447254
 31
0.000000
  0
LINE
  8
DIM
 62
     7
  6
CONTINUOUS
 10
6.949966
 20
-0.018931
 30
0.000000
 11
6.949966
 21
0.447254
 31
0.000000
  0
LINE
  8
DIM
 62
     7
  6
CONTINUOUS
 10
6.365160
 20
0.443444
 30
0.000000
 11
6.995320
 21
0.443444
 31
0.000000
  0
LINE
  8
DIM
 62
     7
  6
CONTINUOUS
 10
6.449966
 20
0.443444
 30
0.000000
 11
6.474966
 21
0.455944
 31
0.000000
  0
LINE
  8
DIM
 62
     7
  6
CONTINUOUS
 10
6.449966
 20
0.443444
 30
0.000000
 11
6.474966
 21
0.430944
 31
0.000000
  0
LINE
  8
DIM
 62
     7
  6
CONTINUOUS
 10
6.949966
 20
0.443444
 30
0.000000
 11
6.924966
 21
0.430944
 31
0.000000
  0
LINE
  8
DIM
 62
     7
  6
CONTINUOUS
 10
6.949966
 20
0.443444
 30
0.000000
 11
6.924966
 21
0.455944
 31
0.000000
  0
TEXT
  8
DIM
 62
     7
 10
6.370240
 20
0.524724
 30
0.000000
 40
0.200000
  1
0.500
 72
     1
 11
6.680240
 21
0.524724
 31
0.000000
  0
LINE
  8
DIM
 62
     7
  6
CONTINUOUS
 10
-6.048676
 20
2.347791
 30
0.000000
 11
-6.048676
 21
2.677831
 31
0.000000
  0
LINE
  8
DIM
 62
     7
  6
CONTINUOUS
 10
-5.497495
 20
2.347791
 30
0.000000
 11
-5.497495
 21
2.677831
 31
0.000000
  0
LINE
  8
DIM
 62
     7
  6
CONTINUOUS
 10
-6.048676
 20
2.674021
 30
0.000000
 11
-5.206687
 21
2.674021
 31
0.000000
  0
LINE
  8
DIM
 62
     7
  6
CONTINUOUS
 10
-6.048676
 20
2.674021
 30
0.000000
 11
-6.023676
 21
2.686521
 31
0.000000
  0
LINE
  8
DIM
 62
     7
  6
CONTINUOUS
 10
-6.048676
 20
2.674021
 30
0.000000
 11
-6.023676
 21
2.661521
 31
0.000000
  0
LINE
  8
DIM
 62
     7
  6
CONTINUOUS
 10
-5.497495
 20
2.674021
 30
0.000000
 11
-5.522495
 21
2.661521
 31
0.000000
  0
LINE
  8
DIM
 62
     7
  6
CONTINUOUS
 10
-5.497495
 20
2.674021
 30
0.000000
 11
-5.522495
 21
2.686521
 31
0.000000
  0
TEXT
  8
DIM
 62
     7
 10
-5.931767
 20
2.755301
 30
0.000000
 40
0.200000
  1
0.5512
 72
     1
 11
-5.571767
 21
2.755301
 31
0.000000
  0
LINE
  8
DIM
 62
     7
  6
CONTINUOUS
 10
5.127843
 20
2.939196
 30
0.000000
 11
5.127843
 21
3.324375
 31
0.000000
  0
LINE
  8
DIM
 62
     7
  6
CONTINUOUS
 10
5.565343
 20
2.939196
 30
0.000000
 11
5.565343
 21
3.324375
 31
0.000000
  0
LINE
  8
DIM
 62
     7
  6
CONTINUOUS
 10
4.927418
 20
3.320565
 30
0.000000
 11
5.717578
 21
3.320565
 31
0.000000
  0
LINE
  8
DIM
 62
     7
  6
CONTINUOUS
 10
5.127843
 20
3.320565
 30
0.000000
 11
5.152843
 21
3.333065
 31
0.000000
  0
LINE
  8
DIM
 62
     7
  6
CONTINUOUS
 10
5.127843
 20
3.320565
 30
0.000000
 11
5.152843
 21
3.308065
 31
0.000000
  0
LINE
  8
DIM
 62
     7
  6
CONTINUOUS
 10
5.565343
 20
3.320565
 30
0.000000
 11
5.540343
 21
3.308065
 31
0.000000
  0
LINE
  8
DIM
 62
     7
  6
CONTINUOUS
 10
5.565343
 20
3.320565
 30
0.000000
 11
5.540343
 21
3.333065
 31
0.000000
  0
TEXT
  8
DIM
 62
     7
 10
4.932498
 20
3.401845
 30
0.000000
 40
0.200000
  1
0.4375
 72
     1
 11
5.322498
 21
3.401845
 31
0.000000
  0
LINE
  8
DIM
 62
     7
  6
CONTINUOUS
 10
2.420326
 20
7.533109
 30
0.000000
 11
2.420326
 21
8.270436
 31
0.000000
  0
LINE
  8
DIM
 62
     7
  6
CONTINUOUS
 10
2.920326
 20
7.533109
 30
0.000000
 11
2.920326
 21
8.270436
 31
0.000000
  0
LINE
  8
DIM
 62
     7
  6
CONTINUOUS
 10
2.356588
 20
8.266626
 30
0.000000
 11
2.986748
 21
8.266626
 31
0.000000
  0
LINE
  8
DIM
 62
     7
  6
CONTINUOUS
 10
2.420326
 20
8.266626
 30
0.000000
 11
2.445326
 21
8.279126
 31
0.000000
  0
LINE
  8
DIM
 62
     7
  6
CONTINUOUS
 10
2.420326
 20
8.266626
 30
0.000000
 11
2.445326
 21
8.254126
 31
0.000000
  0
LINE
  8
DIM
 62
     7
  6
CONTINUOUS
 10
2.920326
 20
8.266626
 30
0.000000
 11
2.895326
 21
8.254126
 31
0.000000
  0
LINE
  8
DIM
 62
     7
  6
CONTINUOUS
 10
2.920326
 20
8.266626
 30
0.000000
 11
2.895326
 21
8.279126
 31
0.000000
  0
TEXT
  8
DIM
 62
     7
 10
2.361668
 20
8.347906
 30
0.000000
 40
0.200000
  1
0.500
 72
     1
 11
2.671668
 21
8.347906
 31
0.000000
  0
CIRCLE
  8
Pilot
 62
     9
  6
CONTINUOUS
 10
0.000000
 20
0.000000
 30
0.000000
 40
4.251000
  0
CIRCLE
  8
Pilot
 62
     9
  6
CONTINUOUS
 10
0.000000
 20
3.625000
 30
0.000000
 40
0.265625
  0
CIRCLE
  8
Pilot
 62
     9
  6
CONTINUOUS
 10
3.625000
 20
0.000000
 30
0.000000
 40
0.265625
  0
CIRCLE
  8
Pilot
 62
     9
  6
CONTINUOUS
 10
-0.000000
 20
-3.625000
 30
0.000000
 40
0.265625
  0
CIRCLE
  8
Pilot
 62
     9
  6
CONTINUOUS
 10
-3.625000
 20
0.000000
 30
0.000000
 40
0.265625
  0
CIRCLE
  8
Pilot
 62
     9
  6
CONTINUOUS
 10
0.000000
 20
0.000000
 30
0.000000
 40
3.000000
  0
POINT
  8
Pilot
 62
     9
 10
0.000000
 20
3.625000
 30
0.000000
  0
POINT
  8
Pilot
 62
     9
 10
3.625000
 20
0.000000
 30
0.000000
  0
POINT
  8
Pilot
 62
     9
 10
-0.000000
 20
-3.625000
 30
0.000000
  0
LINE
  8
DIM
 62
     7
  6
CONTINUOUS
 10
4.535815
 20
-4.053620
 30
0.000000
 11
4.535815
 21
-3.787608
 31
0.000000
  0
LINE
  8
DIM
 62
     7
  6
CONTINUOUS
 10
4.895190
 20
-4.053620
 30
0.000000
 11
4.895190
 21
-3.787608
 31
0.000000
  0
LINE
  8
DIM
 62
     7
  6
CONTINUOUS
 10
3.828293
 20
-3.791418
 30
0.000000
 11
4.895190
 21
-3.791418
 31
0.000000
  0
LINE
  8
DIM
 62
     7
  6
CONTINUOUS
 10
4.535815
 20
-3.791418
 30
0.000000
 11
4.560815
 21
-3.778918
 31
0.000000
  0
LINE
  8
DIM
 62
     7
  6
CONTINUOUS
 10
4.535815
 20
-3.791418
 30
0.000000
 11
4.560815
 21
-3.803918
 31
0.000000
  0
LINE
  8
DIM
 62
     7
  6
CONTINUOUS
 10
4.895190
 20
-3.791418
 30
0.000000
 11
4.870190
 21
-3.803918
 31
0.000000
  0
LINE
  8
DIM
 62
     7
  6
CONTINUOUS
 10
4.895190
 20
-3.791418
 30
0.000000
 11
4.870190
 21
-3.778918
 31
0.000000
  0
TEXT
  8
DIM
 62
     7
 10
3.833373
 20
-3.710138
 30
0.000000
 40
0.200000
  1
0.3594
 72
     1
 11
4.223373
 21
-3.710138
 31
0.000000
  0
POINT
  8
Pilot
 62
     9
 10
-3.625000
 20
0.000000
 30
0.000000
  0
POINT
  8
Default
 62
     7
 10
0.000000
 20
0.000000
 30
0.000000
  0
LINE
  8
DIM
 62
     7
  6
CONTINUOUS
 10
-6.568854
 20
-0.449464
 30
0.000000
 11
-6.568854
 21
-0.069981
 31
0.000000
  0
LINE
  8
DIM
 62
     7
  6
CONTINUOUS
 10
-6.068854
 20
-0.449464
 30
0.000000
 11
-6.068854
 21
-0.069981
 31
0.000000
  0
LINE
  8
DIM
 62
     7
  6
CONTINUOUS
 10
-6.630372
 20
-0.073791
 30
0.000000
 11
-6.000212
 21
-0.073791
 31
0.000000
  0
LINE
  8
DIM
 62
     7
  6
CONTINUOUS
 10
-6.568854
 20
-0.073791
 30
0.000000
 11
-6.543854
 21
-0.061291
 31
0.000000
  0
LINE
  8
DIM
 62
     7
  6
CONTINUOUS
 10
-6.568854
 20
-0.073791
 30
0.000000
 11
-6.543854
 21
-0.086291
 31
0.000000
  0
LINE
  8
DIM
 62
     7
  6
CONTINUOUS
 10
-6.068854
 20
-0.073791
 30
0.000000
 11
-6.093854
 21
-0.086291
 31
0.000000
  0
LINE
  8
DIM
 62
     7
  6
CONTINUOUS
 10
-6.068854
 20
-0.073791
 30
0.000000
 11
-6.093854
 21
-0.061291
 31
0.000000
  0
TEXT
  8
DIM
 62
     7
 10
-6.625292
 20
0.007489
 30
0.000000
 40
0.200000
  1
0.500
 72
     1
 11
-6.315292
 21
0.007489
 31
0.000000
  0
CIRCLE
  8
Default
 62
     7
  6
CONTINUOUS
 10
6.699966
 20
-0.021471
 30
0.000000
 40
0.250000
  0
CIRCLE
  8
Default
 62
     7
  6
CONTINUOUS
 10
6.168449
 20
1.009592
 30
0.000000
 40
0.275591
  0
POINT
  8
Default
 62
     7
 10
4.715503
 20
-4.056160
 30
0.000000
  0
CIRCLE
  8
Default
 62
     7
  6
CONTINUOUS
 10
5.346593
 20
2.936656
 30
0.000000
 40
0.218750
  0
POINT
  8
Default
 62
     7
 10
5.346593
 20
2.936656
 30
0.000000
  0
CIRCLE
  8
Default
 62
     7
  6
CONTINUOUS
 10
2.670326
 20
7.530568
 30
0.000000
 40
0.250000
  0
POINT
  8
Default
 62
     7
 10
2.670326
 20
7.530568
 30
0.000000
  0
CIRCLE
  8
Default
 62
     7
  6
CONTINUOUS
 10
-2.802888
 20
7.466220
 30
0.000000
 40
0.250000
  0
POINT
  8
Default
 62
     7
 10
-2.802888
 20
7.466220
 30
0.000000
  0
CIRCLE
  8
Default
 62
     7
  6
CONTINUOUS
 10
-5.179501
 20
3.568875
 30
0.000000
 40
0.250000
  0
POINT
  8
Default
 62
     7
 10
-5.179501
 20
3.568875
 30
0.000000
  0
CIRCLE
  8
Default
 62
     7
  6
CONTINUOUS
 10
-5.773086
 20
2.345251
 30
0.000000
 40
0.275591
  0
POINT
  8
Default
 62
     7
 10
-5.773086
 20
2.345251
 30
0.000000
  0
POINT
  8
Default
 62
     7
 10
-4.991176
 20
-4.218339
 30
0.000000
  0
CIRCLE
  8
Default
 62
     7
  6
CONTINUOUS
 10
-6.318854
 20
-0.452004
 30
0.000000
 40
0.250000
  0
CIRCLE
  8
Default
 62
     7
  6
CONTINUOUS
 10
-4.991176
 20
-4.218339
 30
0.000000
 40
0.218750
  0
POINT
  8
Default
 62
     7
 10
-6.318854
 20
-0.452004
 30
0.000000
  0
CIRCLE
  8
Default
 62
     7
  6
CONTINUOUS
 10
4.715503
 20
-4.056160
 30
0.000000
 40
0.179688
  0
ARC
  8
Default
 62
     7
  6
CONTINUOUS
 10
6.699966
 20
0.228529
 30
0.000000
 40
0.650000
 50
274.638021
 51
376.171852
  0
ARC
  8
Default
 62
     7
  6
CONTINUOUS
 10
6.934461
 20
-2.661975
 30
0.000000
 40
2.250000
 50
94.638021
 51
208.581023
  0
ARC
  8
Default
 62
     7
  6
CONTINUOUS
 10
6.971704
 20
-2.641685
 30
0.000000
 40
2.292412
 50
208.581023
 51
216.000176
  0
ARC
  8
Default
 62
     7
  6
CONTINUOUS
 10
4.914854
 20
-4.136083
 30
0.000000
 40
0.250000
 50
305.994939
 51
396.000176
  0
ARC
  8
Default
 62
     7
  6
CONTINUOUS
 10
-0.298963
 20
3.041454
 30
0.000000
 40
9.121354
 50
236.911658
 51
305.994939
  0
ARC
  8
Default
 62
     7
  6
CONTINUOUS
 10
-5.005632
 20
-4.181774
 30
-0.000000
 40
0.500000
 50
201.570758
 51
236.911658
  0
LINE
  8
Default
 62
     7
  6
CONTINUOUS
 10
-5.470614
 20
-4.365599
 30
-0.000000
 11
-6.923331
 21
-0.690977
 31
0.000000
  0
ARC
  8
Default
 62
     7
  6
CONTINUOUS
 10
-6.318854
 20
-0.452004
 30
0.000000
 40
0.650000
 50
163.493927
 51
201.570758
  0
LINE
  8
Default
 62
     7
  6
CONTINUOUS
 10
-5.754775
 20
3.739346
 30
0.000000
 11
-6.942067
 21
-0.267328
 31
-0.000000
  0
ARC
  8
Default
 62
     7
  6
CONTINUOUS
 10
-5.179501
 20
3.568875
 30
0.000000
 40
0.600000
 50
91.734428
 51
163.493927
  0
ARC
  8
Default
 62
     7
  6
CONTINUOUS
 10
-5.220361
 20
4.918257
 30
-0.000000
 40
0.750000
 50
271.734428
 51
339.995967
  0
LINE
  8
Default
 62
     7
  6
CONTINUOUS
 10
-4.515610
 20
4.661692
 30
-0.000000
 11
-3.413673
 21
7.688576
 31
-0.000000
  0
ARC
  8
Default
 62
     7
  6
CONTINUOUS
 10
-2.802888
 20
7.466220
 30
0.000000
 40
0.650000
 50
90.150200
 51
159.995967
  0
LINE
  8
Default
 62
     7
  6
CONTINUOUS
 10
-2.804592
 20
8.116218
 30
0.000000
 11
2.668753
 21
8.130566
 31
0.000000
  0
ARC
  8
Default
 62
     7
  6
CONTINUOUS
 10
2.670326
 20
7.530568
 30
0.000000
 40
0.600000
 50
38.471232
 51
90.150200
  0
LINE
  8
Default
 62
     7
  6
CONTINUOUS
 10
6.306548
 20
3.918938
 30
0.000000
 11
3.140078
 21
7.903841
 31
0.000000
  0
LINE
  8
Default
 62
     7
  6
CONTINUOUS
 10
6.306548
 20
3.918938
 30
0.000000
 11
7.324246
 21
0.409567
 31
0.000000
  0
LINE
  8
DIM
 62
     7
  6
CONTINUOUS
 10
-5.209926
 20
-4.215799
 30
0.000000
 11
-5.209926
 21
-3.852263
 31
0.000000
  0
LINE
  8
DIM
 62
     7
  6
CONTINUOUS
 10
-4.772426
 20
-4.215799
 30
0.000000
 11
-4.772426
 21
-3.852263
 31
0.000000
  0
LINE
  8
DIM
 62
     7
  6
CONTINUOUS
 10
-5.352630
 20
-3.856073
 30
0.000000
 11
-4.562470
 21
-3.856073
 31
0.000000
  0
LINE
  8
DIM
 62
     7
  6
CONTINUOUS
 10
-5.209926
 20
-3.856073
 30
0.000000
 11
-5.184926
 21
-3.843573
 31
0.000000
  0
LINE
  8
DIM
 62
     7
  6
CONTINUOUS
 10
-5.209926
 20
-3.856073
 30
0.000000
 11
-5.184926
 21
-3.868573
 31
0.000000
  0
LINE
  8
DIM
 62
     7
  6
CONTINUOUS
 10
-4.772426
 20
-3.856073
 30
0.000000
 11
-4.797426
 21
-3.868573
 31
0.000000
  0
LINE
  8
DIM
 62
     7
  6
CONTINUOUS
 10
-4.772426
 20
-3.856073
 30
0.000000
 11
-4.797426
 21
-3.843573
 31
0.000000
  0
TEXT
  8
DIM
 62
     7
 10
-5.347550
 20
-3.774793
 30
0.000000
 40
0.200000
  1
0.4375
 72
     1
 11
-4.957550
 21
-3.774793
 31
0.000000
  0
POINT
  8
DIM
 62
     7
 10
0.187744
 20
1.678533
 30
0.000000
  0
LINE
  8
DIM
 62
     7
  6
CONTINUOUS
 10
-5.773086
 20
2.345251
 30
0.000000
 11
0.187744
 21
1.678533
 31
0.000000
  0
LINE
  8
DIM
 62
     7
  6
CONTINUOUS
 10
0.000000
 20
0.000000
 30
0.000000
 11
-5.773086
 21
2.345251
 31
0.000000
  0
LINE
  8
DIM
 62
     7
  6
CONTINUOUS
 10
0.000000
 20
0.000000
 30
0.000000
 11
0.187744
 21
1.678533
 31
0.000000
  0
LINE
  8
DIM
 62
     7
  6
CONTINUOUS
 10
0.187744
 20
1.678533
 30
0.000000
 11
6.168449
 21
1.009592
 31
0.000000
  0
LINE
  8
DIM
 62
     7
  6
CONTINUOUS
 10
6.168449
 20
1.009592
 30
0.000000
 11
0.000000
 21
0.000000
 31
0.000000
  0
POINT
  8
DIM
 62
     9
 10
0.000000
 20
0.000000
 30
0.000000
  0
LINE
  8
DIM
 62
     7
  6
CONTINUOUS
 10
-3.052888
 20
7.468760
 30
0.000000
 11
-3.052888
 21
8.320030
 31
0.000000
  0
LINE
  8
DIM
 62
     7
  6
CONTINUOUS
 10
-2.552888
 20
7.468760
 30
0.000000
 11
-2.552888
 21
8.320030
 31
0.000000
  0
LINE
  8
DIM
 62
     7
  6
CONTINUOUS
 10
-3.117968
 20
8.316220
 30
0.000000
 11
-2.487808
 21
8.316220
 31
0.000000
  0
LINE
  8
DIM
 62
     7
  6
CONTINUOUS
 10
-3.052888
 20
8.316220
 30
0.000000
 11
-3.027888
 21
8.328720
 31
0.000000
  0
LINE
  8
DIM
 62
     7
  6
CONTINUOUS
 10
-3.052888
 20
8.316220
 30
0.000000
 11
-3.027888
 21
8.303720
 31
0.000000
  0
LINE
  8
DIM
 62
     7
  6
CONTINUOUS
 10
-2.552888
 20
8.316220
 30
0.000000
 11
-2.577888
 21
8.303720
 31
0.000000
  0
LINE
  8
DIM
 62
     7
  6
CONTINUOUS
 10
-2.552888
 20
8.316220
 30
0.000000
 11
-2.577888
 21
8.328720
 31
0.000000
  0
TEXT
  8
DIM
 62
     7
 10
-3.112888
 20
8.397500
 30
0.000000
 40
0.200000
  1
0.500
 72
     1
 11
-2.802888
 21
8.397500
 31
0.000000
  0
LINE
  8
DIM
 62
     7
  6
CONTINUOUS
 10
-5.429501
 20
3.571415
 30
0.000000
 11
-5.429501
 21
4.422685
 31
0.000000
  0
LINE
  8
DIM
 62
     7
  6
CONTINUOUS
 10
-4.929501
 20
3.571415
 30
0.000000
 11
-4.929501
 21
4.422685
 31
0.000000
  0
LINE
  8
DIM
 62
     7
  6
CONTINUOUS
 10
-5.494581
 20
4.418875
 30
0.000000
 11
-4.864421
 21
4.418875
 31
0.000000
  0
LINE
  8
DIM
 62
     7
  6
CONTINUOUS
 10
-5.429501
 20
4.418875
 30
0.000000
 11
-5.404501
 21
4.431375
 31
0.000000
  0
LINE
  8
DIM
 62
     7
  6
CONTINUOUS
 10
-5.429501
 20
4.418875
 30
0.000000
 11
-5.404501
 21
4.406375
 31
0.000000
  0
LINE
  8
DIM
 62
     7
  6
CONTINUOUS
 10
-4.929501
 20
4.418875
 30
0.000000
 11
-4.954501
 21
4.406375
 31
0.000000
  0
LINE
  8
DIM
 62
     7
  6
CONTINUOUS
 10
-4.929501
 20
4.418875
 30
0.000000
 11
-4.954501
 21
4.431375
 31
0.000000
  0
TEXT
  8
DIM
 62
     7
 10
-5.489501
 20
4.500155
 30
0.000000
 40
0.200000
  1
0.500
 72
     1
 11
-5.179501
 21
4.500155
 31
0.000000
  0
CIRCLE
  8
DIM
 62
     3
  6
CONTINUOUS
 10
0.000000
 20
0.000000
 30
0.000000
 40
5.781250
  0
TEXT
  8
DIM
 62
     7
 10
-2.084634
 20
4.742961
 30
0.000000
 40
0.200000
  1
11-9/16 recess 5/16 deep on back
 72
     1
 11
-0.124634
 21
4.742961
 31
0.000000
  0
TEXT
  8
DIM
 62
     7
 10
-1.915326
 20
6.779574
 30
0.000000
 40
0.200000
  1
Countersink screws on back side
 72
     1
 11
0.004674
 21
6.779574
 31
0.000000
  0
LINE
  8
DIM
 62
     7
  6
CONTINUOUS
 10
0.002540
 20
0.000000
 30
0.000000
 11
7.346757
 21
0.000000
 31
0.000000
  0
LINE
  8
DIM
 62
     7
  6
CONTINUOUS
 10
2.672866
 20
8.130568
 30
0.000000
 11
7.346757
 21
8.130568
 31
0.000000
  0
LINE
  8
DIM
 62
     7
  6
CONTINUOUS
 10
7.342947
 20
0.000000
 30
0.000000
 11
7.342947
 21
8.130568
 31
0.000000
  0
LINE
  8
DIM
 62
     7
  6
CONTINUOUS
 10
7.342947
 20
0.000000
 30
0.000000
 11
7.330447
 21
0.025000
 31
0.000000
  0
LINE
  8
DIM
 62
     7
  6
CONTINUOUS
 10
7.342947
 20
0.000000
 30
0.000000
 11
7.355447
 21
0.025000
 31
0.000000
  0
LINE
  8
DIM
 62
     7
  6
CONTINUOUS
 10
7.342947
 20
8.130568
 30
0.000000
 11
7.355447
 21
8.105568
 31
0.000000
  0
LINE
  8
DIM
 62
     7
  6
CONTINUOUS
 10
7.342947
 20
8.130568
 30
0.000000
 11
7.330447
 21
8.105568
 31
0.000000
  0
TEXT
  8
DIM
 62
     7
 10
7.261667
 20
6.768192
 30
0.000000
 40
0.200000
  1
8.131
 50
90.000003
 72
     1
 11
7.261667
 21
7.038192
 31
0.000000
  0
LINE
  8
DIM
 62
     7
  6
CONTINUOUS
 10
0.002540
 20
0.000000
 30
0.000000
 11
6.441596
 21
0.000000
 31
0.000000
  0
LINE
  8
DIM
 62
     7
  6
CONTINUOUS
 10
-0.296423
 20
-6.079901
 30
0.000000
 11
6.441596
 21
-6.079901
 31
0.000000
  0
LINE
  8
DIM
 62
     7
  6
CONTINUOUS
 10
6.437786
 20
0.000000
 30
0.000000
 11
6.437786
 21
-6.079901
 31
0.000000
  0
LINE
  8
DIM
 62
     7
  6
CONTINUOUS
 10
6.437786
 20
0.000000
 30
0.000000
 11
6.450286
 21
-0.025000
 31
0.000000
  0
LINE
  8
DIM
 62
     7
  6
CONTINUOUS
 10
6.437786
 20
0.000000
 30
0.000000
 11
6.425286
 21
-0.025000
 31
0.000000
  0
LINE
  8
DIM
 62
     7
  6
CONTINUOUS
 10
6.437786
 20
-6.079901
 30
0.000000
 11
6.425286
 21
-6.054901
 31
0.000000
  0
LINE
  8
DIM
 62
     7
  6
CONTINUOUS
 10
6.437786
 20
-6.079901
 30
0.000000
 11
6.450286
 21
-6.054901
 31
0.000000
  0
TEXT
  8
DIM
 62
     7
 10
6.356506
 20
-3.584183
 30
0.000000
 40
0.200000
  1
6.080
 50
90.000003
 72
     1
 11
6.356506
 21
-3.274183
 31
0.000000
  0
LINE
  8
DIM
 62
     7
  6
CONTINUOUS
 10
0.000000
 20
-0.002540
 30
0.000000
 11
0.000000
 21
-6.187441
 31
0.000000
  0
LINE
  8
DIM
 62
     7
  6
CONTINUOUS
 10
7.349966
 20
0.225989
 30
0.000000
 11
7.349966
 21
-6.187441
 31
0.000000
  0
LINE
  8
DIM
 62
     7
  6
CONTINUOUS
 10
0.000000
 20
-6.183631
 30
0.000000
 11
7.349966
 21
-6.183631
 31
0.000000
  0
LINE
  8
DIM
 62
     7
  6
CONTINUOUS
 10
0.000000
 20
-6.183631
 30
0.000000
 11
0.025000
 21
-6.171131
 31
0.000000
  0
LINE
  8
DIM
 62
     7
  6
CONTINUOUS
 10
0.000000
 20
-6.183631
 30
0.000000
 11
0.025000
 21
-6.196131
 31
0.000000
  0
LINE
  8
DIM
 62
     7
  6
CONTINUOUS
 10
7.349966
 20
-6.183631
 30
0.000000
 11
7.324966
 21
-6.196131
 31
0.000000
  0
LINE
  8
DIM
 62
     7
  6
CONTINUOUS
 10
7.349966
 20
-6.183631
 30
0.000000
 11
7.324966
 21
-6.171131
 31
0.000000
  0
TEXT
  8
DIM
 62
     7
 10
6.548040
 20
-6.102351
 30
0.000000
 40
0.200000
  1
7.350
 72
     1
 11
6.858040
 21
-6.102351
 31
0.000000
  0
LINE
  8
DIM
 62
     7
  6
CONTINUOUS
 10
0.000000
 20
-0.002540
 30
0.000000
 11
0.000000
 21
-6.187441
 31
0.000000
  0
LINE
  8
DIM
 62
     7
  6
CONTINUOUS
 10
-6.968854
 20
-0.454544
 30
0.000000
 11
-6.968854
 21
-6.187441
 31
0.000000
  0
LINE
  8
DIM
 62
     7
  6
CONTINUOUS
 10
0.000000
 20
-6.183631
 30
0.000000
 11
-6.968854
 21
-6.183631
 31
0.000000
  0
LINE
  8
DIM
 62
     7
  6
CONTINUOUS
 10
0.000000
 20
-6.183631
 30
0.000000
 11
-0.025000
 21
-6.196131
 31
0.000000
  0
LINE
  8
DIM
 62
     7
  6
CONTINUOUS
 10
0.000000
 20
-6.183631
 30
0.000000
 11
-0.025000
 21
-6.171131
 31
0.000000
  0
LINE
  8
DIM
 62
     7
  6
CONTINUOUS
 10
-6.968854
 20
-6.183631
 30
0.000000
 11
-6.943854
 21
-6.171131
 31
0.000000
  0
LINE
  8
DIM
 62
     7
  6
CONTINUOUS
 10
-6.968854
 20
-6.183631
 30
0.000000
 11
-6.943854
 21
-6.196131
 31
0.000000
  0
TEXT
  8
DIM
 62
     7
 10
-6.835418
 20
-6.102351
 30
0.000000
 40
0.200000
  1
6.969
 72
     1
 11
-6.525419
 21
-6.102351
 31
0.000000
  0
INSERT
  8
DIM
 62
     7
  2
Object_0
 10
-10.160000
 20
-10.160000
 30
0.000000
  0
CIRCLE
  8
DIM
 62
     7
  6
CONTINUOUS
 10
6.168449
 20
1.009592
 30
0.000000
 40
0.025591
  0
CIRCLE
  8
CAM
 62
     7
  6
CONTINUOUS
 10
0.000000
 20
0.000000
 30
0.000000
 40
2.625000
  0
CIRCLE
  8
CAM
 62
     7
  6
CONTINUOUS
 10
-5.773086
 20
2.345251
 30
0.000000
 40
0.025591
  0
ARC
  8
CAM
 62
     7
  6
CONTINUOUS
 10
6.699966
 20
0.228529
 30
0.000000
 40
1.045000
 50
274.638021
 51
376.171852
  0
ARC
  8
CAM
 62
     7
  6
CONTINUOUS
 10
6.934461
 20
-2.661975
 30
0.000000
 40
1.855000
 50
94.638021
 51
208.581023
  0
ARC
  8
CAM
 62
     7
  6
CONTINUOUS
 10
6.971704
 20
-2.641685
 30
0.000000
 40
1.897412
 50
208.581023
 51
216.000176
  0
ARC
  8
CAM
 62
     7
  6
CONTINUOUS
 10
4.914854
 20
-4.136083
 30
0.000000
 40
0.645000
 50
305.994939
 51
396.000176
  0
ARC
  8
CAM
 62
     7
  6
CONTINUOUS
 10
-0.298963
 20
3.041454
 30
-0.000000
 40
9.516354
 50
236.911658
 51
305.994939
  0
ARC
  8
CAM
 62
     7
  6
CONTINUOUS
 10
-5.005632
 20
-4.181774
 30
-0.000000
 40
0.895000
 50
201.570758
 51
236.911658
  0
LINE
  8
CAM
 62
     7
  6
CONTINUOUS
 10
-5.837950
 20
-4.510821
 30
-0.000000
 11
-7.290667
 21
-0.836198
 31
0.000000
  0
ARC
  8
CAM
 62
     7
  6
CONTINUOUS
 10
-6.318854
 20
-0.452004
 30
0.000000
 40
1.045000
 50
163.493927
 51
201.570758
  0
LINE
  8
CAM
 62
     7
  6
CONTINUOUS
 10
-7.320789
 20
-0.155102
 30
-0.000000
 11
-6.133496
 21
3.851572
 31
0.000000
  0
ARC
  8
CAM
 62
     7
  6
CONTINUOUS
 10
-5.179501
 20
3.568875
 30
-0.000000
 40
0.995000
 50
91.734428
 51
163.493927
  0
ARC
  8
CAM
 62
     7
  6
CONTINUOUS
 10
-5.220361
 20
4.918257
 30
-0.000000
 40
0.355000
 50
271.734428
 51
339.995967
  0
LINE
  8
CAM
 62
     7
  6
CONTINUOUS
 10
-4.886779
 20
4.796816
 30
-0.000000
 11
-3.784842
 21
7.823700
 31
-0.000000
  0
ARC
  8
CAM
 62
     7
  6
CONTINUOUS
 10
-2.802888
 20
7.466220
 30
0.000000
 40
1.045000
 50
90.150200
 51
159.995967
  0
LINE
  8
CAM
 62
     7
  6
CONTINUOUS
 10
-2.805627
 20
8.511217
 30
0.000000
 11
2.667718
 21
8.525565
 31
0.000000
  0
ARC
  8
CAM
 62
     7
  6
CONTINUOUS
 10
2.670326
 20
7.530568
 30
0.000000
 40
0.995000
 50
38.471232
 51
90.150200
  0
LINE
  8
CAM
 62
     7
  6
CONTINUOUS
 10
3.449332
 20
8.149579
 30
0.000000
 11
6.615802
 21
4.164676
 31
0.000000
  0
ARC
  8
CAM
 62
     7
  6
CONTINUOUS
 10
6.306548
 20
3.918938
 30
0.000000
 40
0.395000
 50
16.171852
 51
38.471232
  0
LINE
  8
CAM
 62
     7
  6
CONTINUOUS
 10
6.685918
 20
4.028953
 30
0.000000
 11
7.703616
 21
0.519582
 31
0.000000
  0
ARC
  8
CAM
 62
     7
  6
CONTINUOUS
 10
6.699966
 20
0.228529
 30
0.000000
 40
1.025000
 50
274.638021
 51
376.171852
  0
ARC
  8
CAM
 62
     7
  6
CONTINUOUS
 10
6.934461
 20
-2.661975
 30
0.000000
 40
1.875000
 50
94.638021
 51
208.581023
  0
ARC
  8
CAM
 62
     7
  6
CONTINUOUS
 10
6.971704
 20
-2.641685
 30
0.000000
 40
1.917412
 50
208.581023
 51
216.000176
  0
ARC
  8
CAM
 62
     7
  6
CONTINUOUS
 10
4.914854
 20
-4.136083
 30
0.000000
 40
0.625000
 50
305.994939
 51
396.000176
  0
ARC
  8
CAM
 62
     7
  6
CONTINUOUS
 10
-0.298963
 20
3.041454
 30
0.000000
 40
9.496354
 50
236.911658
 51
305.994939
  0
ARC
  8
CAM
 62
     7
  6
CONTINUOUS
 10
-5.005632
 20
-4.181774
 30
-0.000000
 40
0.875000
 50
201.570758
 51
236.911658
  0
LINE
  8
CAM
 62
     7
  6
CONTINUOUS
 10
-5.819350
 20
-4.503468
 30
-0.000000
 11
-7.272067
 21
-0.828845
 31
0.000000
  0
ARC
  8
CAM
 62
     7
  6
CONTINUOUS
 10
-6.318854
 20
-0.452004
 30
0.000000
 40
1.025000
 50
163.493927
 51
201.570758
  0
LINE
  8
CAM
 62
     7
  6
CONTINUOUS
 10
-7.301613
 20
-0.160784
 30
-0.000000
 11
-6.114321
 21
3.845890
 31
0.000000
  0
ARC
  8
CAM
 62
     7
  6
CONTINUOUS
 10
-5.179501
 20
3.568875
 30
0.000000
 40
0.975000
 50
91.734428
 51
163.493927
  0
ARC
  8
CAM
 62
     7
  6
CONTINUOUS
 10
-5.220361
 20
4.918257
 30
-0.000000
 40
0.375000
 50
271.734428
 51
339.995967
  0
LINE
  8
CAM
 62
     7
  6
CONTINUOUS
 10
-4.867985
 20
4.789975
 30
-0.000000
 11
-3.766048
 21
7.816859
 31
-0.000000
  0
ARC
  8
CAM
 62
     7
  6
CONTINUOUS
 10
-2.802888
 20
7.466220
 30
0.000000
 40
1.025000
 50
90.150200
 51
159.995967
  0
LINE
  8
CAM
 62
     7
  6
CONTINUOUS
 10
-2.805575
 20
8.491217
 30
0.000000
 11
2.667770
 21
8.505565
 31
0.000000
  0
ARC
  8
CAM
 62
     7
  6
CONTINUOUS
 10
2.670326
 20
7.530568
 30
0.000000
 40
0.975000
 50
38.471232
 51
90.150200
  0
LINE
  8
CAM
 62
     7
  6
CONTINUOUS
 10
3.433674
 20
8.137137
 30
0.000000
 11
6.600143
 21
4.152234
 31
0.000000
  0
ARC
  8
CAM
 62
     7
  6
CONTINUOUS
 10
6.306548
 20
3.918938
 30
0.000000
 40
0.375000
 50
16.171852
 51
38.471232
  0
LINE
  8
CAM
 62
     7
  6
CONTINUOUS
 10
6.666710
 20
4.023383
 30
0.000000
 11
7.684407
 21
0.514011
 31
0.000000
  0
CIRCLE
  8
CAM
 62
     7
  6
CONTINUOUS
 10
0.000000
 20
0.000000
 30
0.000000
 40
2.605000
  0
ENDSEC
  0
EOF
