  0
SECTION
  2
HEADER
  9
$ACADVER
  1
AC1006
  0
ENDSEC
  0
SECTION
  2
TABLES
  0
TABLE
  2
LTYPE
 70
    25
  0
LTYPE
  2
CONTINUOUS
 70
    64
  3
Solid line
 72
    64
 73
     0
 40
0.000000
  0
LTYPE
  2
DASHDOT
 70
    64
  3
__ . __ . __ . __ . __ . __ . __ . __ . __ . __
 72
    65
 73
     4
 40
1.000000
 49
0.500000
 49
-0.250000
 49
0.000000
 49
-0.250000
  0
LTYPE
  2
DASHED
 70
    64
  3
__ __ __ __ __ __ __ __ __ __ __ __ __ __ __ __
 72
    65
 73
     2
 40
0.750000
 49
0.500000
 49
-0.250000
  0
LTYPE
  2
DIVIDE
 70
    64
  3
____ . . ____ . . ____ . . ____ . . ____ . . __
 72
    65
 73
     6
 40
1.250000
 49
0.500000
 49
-0.250000
 49
0.000000
 49
-0.250000
 49
0.000000
 49
-0.250000
  0
LTYPE
  2
DOT
 70
    64
  3
. . . . . . . . . . . . . . . . . . . . . . . . 
 72
    65
 73
     2
 40
0.250000
 49
0.000000
 49
-0.250000
  0
ENDTAB
  0
ENDSEC
  0
SECTION
  2
BLOCKS
  0
BLOCK
  8
0
  2
Object_0
 70
    64
 10
0.000000
 20
0.000000
 30
0.000000
  0
ENDBLK
  0
ENDSEC
  0
SECTION
  2
ENTITIES
  0
POINT
  8
Default
 62
     7
 10
6.730200
 20
-0.363335
 30
0.000000
  0
POINT
  8
Default
 62
     7
 10
0.127758
 20
1.175075
 30
0.000000
  0
POINT
  8
Default
 62
     7
 10
5.748070
 20
0.577422
 30
0.000000
  0
LINE
  8
Default
 62
     7
  6
CONTINUOUS
 10
-5.473054
 20
1.785702
 30
0.000000
 11
0.127758
 21
1.175075
 31
0.000000
  0
LINE
  8
Default
 62
     7
  6
CONTINUOUS
 10
-5.473054
 20
1.785702
 30
0.000000
 11
0.000000
 21
0.000000
 31
0.000000
  0
LINE
  8
Default
 62
     7
  6
CONTINUOUS
 10
0.127758
 20
1.175075
 30
0.000000
 11
0.000000
 21
0.000000
 31
0.000000
  0
LINE
  8
Default
 62
     7
  6
CONTINUOUS
 10
0.127758
 20
1.175075
 30
0.000000
 11
5.748070
 21
0.577422
 31
0.000000
  0
LINE
  8
Default
 62
     7
  6
CONTINUOUS
 10
5.748070
 20
0.577422
 30
0.000000
 11
0.000000
 21
0.000000
 31
0.000000
  0
CIRCLE
  8
Default
 62
     7
  6
CONTINUOUS
 10
-2.767022
 20
7.062281
 30
0.000000
 40
0.265625
  0
CIRCLE
  8
Default
 62
     7
  6
CONTINUOUS
 10
2.685589
 20
7.093648
 30
0.000000
 40
0.265625
  0
CIRCLE
  8
Default
 62
     9
  6
CONTINUOUS
 10
0.000000
 20
0.000000
 30
0.000000
 40
4.251000
  0
CIRCLE
  8
Default
 62
     9
  6
CONTINUOUS
 10
0.000000
 20
3.625000
 30
0.000000
 40
0.265625
  0
CIRCLE
  8
Default
 62
     9
  6
CONTINUOUS
 10
3.625000
 20
0.000000
 30
0.000000
 40
0.265625
  0
CIRCLE
  8
Default
 62
     9
  6
CONTINUOUS
 10
-0.000000
 20
-3.625000
 30
0.000000
 40
0.265625
  0
CIRCLE
  8
Default
 62
     9
  6
CONTINUOUS
 10
-3.625000
 20
0.000000
 30
0.000000
 40
0.265625
  0
CIRCLE
  8
Default
 62
     9
  6
CONTINUOUS
 10
0.000000
 20
0.000000
 30
0.000000
 40
3.000000
  0
POINT
  8
Default
 62
     9
 10
0.000000
 20
3.625000
 30
0.000000
  0
POINT
  8
Default
 62
     9
 10
3.625000
 20
0.000000
 30
0.000000
  0
POINT
  8
Default
 62
     9
 10
-0.000000
 20
-3.625000
 30
0.000000
  0
POINT
  8
Default
 62
     9
 10
0.000000
 20
0.000000
 30
0.000000
  0
POINT
  8
Default
 62
     9
 10
-3.625000
 20
0.000000
 30
0.000000
  0
POINT
  8
Default
 62
     7
 10
0.000000
 20
0.000000
 30
0.000000
  0
POINT
  8
Default
 62
     7
 10
2.685589
 20
7.093648
 30
0.000000
  0
CIRCLE
  8
Default
 62
     7
  6
CONTINUOUS
 10
5.748070
 20
0.577422
 30
0.000000
 40
0.275500
  0
POINT
  8
Default
 62
     7
 10
3.818642
 20
-4.679698
 30
0.000000
  0
CIRCLE
  8
Default
 62
     7
  6
CONTINUOUS
 10
6.730200
 20
-0.363335
 30
0.000000
 40
0.265625
  0
POINT
  8
Default
 62
     7
 10
-4.757919
 20
-4.075835
 30
0.000000
  0
CIRCLE
  8
Default
 62
     7
  6
CONTINUOUS
 10
3.818642
 20
-4.679698
 30
0.000000
 40
0.164063
  0
POINT
  8
Default
 62
     7
 10
-2.767022
 20
7.062281
 30
0.000000
  0
CIRCLE
  8
Default
 62
     7
  6
CONTINUOUS
 10
-4.757919
 20
-4.075835
 30
0.000000
 40
0.203125
  0
POINT
  8
Default
 62
     7
 10
-5.473054
 20
1.785702
 30
0.000000
  0
POINT
  8
Default
 62
     7
 10
-5.947120
 20
-0.306256
 30
0.000000
  0
CIRCLE
  8
Default
 62
     7
  6
CONTINUOUS
 10
-5.947120
 20
-0.306256
 30
0.000000
 40
0.265625
  0
CIRCLE
  8
Default
 62
     7
  6
CONTINUOUS
 10
-5.473054
 20
1.785702
 30
0.000000
 40
0.275500
  0
LINE
  8
Default
 62
     7
  6
CONTINUOUS
 10
7.315000
 20
-1.439112
 30
0.000000
 11
7.314904
 21
1.291636
 31
0.000000
  0
ARC
  8
Default
 62
     7
  6
CONTINUOUS
 10
7.127500
 20
-1.439112
 30
0.000000
 40
0.187500
 50
271.621117
 51
360.000000
  0
LINE
  8
Default
 62
     7
  6
CONTINUOUS
 10
5.679200
 20
-1.667676
 30
0.000000
 11
7.132804
 21
-1.626537
 31
0.000000
  0
ARC
  8
Default
 62
     7
  6
CONTINUOUS
 10
5.728708
 20
-3.416976
 30
0.000000
 40
1.750000
 50
91.621117
 51
229.491605
  0
ARC
  8
Default
 62
     7
  6
CONTINUOUS
 10
4.527023
 20
-4.823551
 30
0.000000
 40
0.100000
 50
355.395909
 51
409.491605
  0
ARC
  8
Default
 62
     7
  6
CONTINUOUS
 10
-4.757919
 20
-4.075835
 30
0.000000
 40
9.415000
 50
352.864285
 51
355.395909
  0
ARC
  8
Default
 62
     7
  6
CONTINUOUS
 10
4.398111
 20
-5.222075
 30
0.000000
 40
0.187500
 50
273.453117
 51
352.864285
  0
LINE
  8
Default
 62
     7
  6
CONTINUOUS
 10
4.409404
 20
-5.409235
 30
0.000000
 11
0.341213
 21
-5.654715
 31
0.000000
  0
ARC
  8
Default
 62
     7
  6
CONTINUOUS
 10
0.000000
 20
0.000000
 30
0.000000
 40
5.665000
 50
254.485198
 51
273.453117
  0
LINE
  8
Default
 62
     7
  6
CONTINUOUS
 10
-4.820469
 20
-4.541055
 30
0.000000
 11
-1.515316
 21
-5.458575
 31
0.000000
  0
ARC
  8
Default
 62
     7
  6
CONTINUOUS
 10
-4.720161
 20
-4.179720
 30
0.000000
 40
0.375000
 50
199.974043
 51
254.485198
  0
LINE
  8
Default
 62
     7
  6
CONTINUOUS
 10
-5.072604
 20
-4.307818
 30
0.000000
 11
-6.459337
 21
-0.492425
 31
0.000000
  0
ARC
  8
Default
 62
     7
  6
CONTINUOUS
 10
-5.947120
 20
-0.306256
 30
0.000000
 40
0.545000
 50
165.227900
 51
199.974043
  0
LINE
  8
Default
 62
     7
  6
CONTINUOUS
 10
-6.474106
 20
-0.167295
 30
0.000000
 11
-5.927519
 21
1.905540
 31
0.000000
  0
POINT
  8
Default
 62
     7
 10
4.378262
 20
0.044013
 30
0.000000
  0
ARC
  8
Default
 62
     7
  6
CONTINUOUS
 10
-5.473054
 20
1.785702
 30
0.000000
 40
0.470000
 50
139.006778
 51
165.227900
  0
LINE
  8
Default
 62
     7
  6
CONTINUOUS
 10
-5.827804
 20
2.094007
 30
0.000000
 11
-4.016376
 21
4.178315
 31
0.000000
  0
ARC
  8
Default
 62
     7
  6
CONTINUOUS
 10
-4.771163
 20
4.834284
 30
0.000000
 40
1.000000
 50
319.006778
 51
348.395435
  0
LINE
  8
Default
 62
     7
  6
CONTINUOUS
 10
-3.791604
 20
4.633129
 30
0.000000
 11
-3.271495
 21
7.165876
 31
0.000000
  0
ARC
  8
Default
 62
     7
  6
CONTINUOUS
 10
-2.767022
 20
7.062281
 30
0.000000
 40
0.515000
 50
90.329597
 51
168.395435
  0
LINE
  8
Default
 62
     7
  6
CONTINUOUS
 10
2.682626
 20
7.608639
 30
0.000000
 11
-2.769985
 21
7.577273
 31
0.000000
  0
ARC
  8
Default
 62
     7
  6
CONTINUOUS
 10
2.685589
 20
7.093648
 30
0.000000
 40
0.515000
 50
37.840413
 51
90.329597
  0
LINE
  8
Default
 62
     7
  6
CONTINUOUS
 10
3.092296
 20
7.409582
 30
0.000000
 11
5.315132
 21
4.548089
 31
0.000000
  0
ARC
  8
Default
 62
     7
  6
CONTINUOUS
 10
4.525409
 20
3.934625
 30
0.000000
 40
1.000000
 50
21.143576
 51
37.840413
  0
LINE
  8
Default
 62
     7
  6
CONTINUOUS
 10
5.458089
 20
4.295331
 30
0.000000
 11
6.192992
 21
2.395090
 31
0.000000
  0
ARC
  8
Default
 62
     7
  6
CONTINUOUS
 10
0.000000
 20
0.000000
 30
0.000000
 40
6.640000
 50
17.829735
 51
21.143576
  0
ARC
  8
Default
 62
     7
  6
CONTINUOUS
 10
6.797070
 20
2.186192
 30
-0.000000
 40
0.500000
 50
197.829735
 51
252.472502
  0
LINE
  8
Default
 62
     7
  6
CONTINUOUS
 10
6.646488
 20
1.709406
 30
-0.000000
 11
7.117832
 21
1.560543
 31
0.000000
  0
LINE
  8
DIM
 62
     7
  6
CONTINUOUS
 10
-3.032647
 20
7.067361
 30
0.000000
 11
-3.032647
 21
7.935526
 31
0.000000
  0
LINE
  8
DIM
 62
     7
  6
CONTINUOUS
 10
-2.501397
 20
7.067361
 30
0.000000
 11
-2.501397
 21
7.935526
 31
0.000000
  0
LINE
  8
DIM
 62
     7
  6
CONTINUOUS
 10
-3.084474
 20
7.927906
 30
0.000000
 11
-2.449571
 21
7.927906
 31
0.000000
  0
LINE
  8
DIM
 62
     7
  6
CONTINUOUS
 10
-3.032647
 20
7.927906
 30
0.000000
 11
-2.982647
 21
7.952906
 31
0.000000
  0
LINE
  8
DIM
 62
     7
  6
CONTINUOUS
 10
-3.032647
 20
7.927906
 30
0.000000
 11
-2.982647
 21
7.902906
 31
0.000000
  0
LINE
  8
DIM
 62
     7
  6
CONTINUOUS
 10
-2.501397
 20
7.927906
 30
0.000000
 11
-2.551397
 21
7.902906
 31
0.000000
  0
LINE
  8
DIM
 62
     7
  6
CONTINUOUS
 10
-2.501397
 20
7.927906
 30
0.000000
 11
-2.551397
 21
7.952906
 31
0.000000
  0
TEXT
  8
DIM
 62
     7
 10
-3.074314
 20
8.009186
 30
0.000000
 40
0.200000
  1
17/32
 72
     1
 11
-2.767022
 21
8.009186
 31
0.000000
  0
LINE
  8
DIM
 62
     7
  6
CONTINUOUS
 10
2.419964
 20
7.098728
 30
0.000000
 11
2.419964
 21
7.966893
 31
0.000000
  0
LINE
  8
DIM
 62
     7
  6
CONTINUOUS
 10
2.951214
 20
7.098728
 30
0.000000
 11
2.951214
 21
7.966893
 31
0.000000
  0
LINE
  8
DIM
 62
     7
  6
CONTINUOUS
 10
2.368137
 20
7.959273
 30
0.000000
 11
3.003040
 21
7.959273
 31
0.000000
  0
LINE
  8
DIM
 62
     7
  6
CONTINUOUS
 10
2.419964
 20
7.959273
 30
0.000000
 11
2.469964
 21
7.984273
 31
0.000000
  0
LINE
  8
DIM
 62
     7
  6
CONTINUOUS
 10
2.419964
 20
7.959273
 30
0.000000
 11
2.469964
 21
7.934273
 31
0.000000
  0
LINE
  8
DIM
 62
     7
  6
CONTINUOUS
 10
2.951214
 20
7.959273
 30
0.000000
 11
2.901214
 21
7.934273
 31
0.000000
  0
LINE
  8
DIM
 62
     7
  6
CONTINUOUS
 10
2.951214
 20
7.959273
 30
0.000000
 11
2.901214
 21
7.984273
 31
0.000000
  0
TEXT
  8
DIM
 62
     7
 10
2.378297
 20
8.040553
 30
0.000000
 40
0.200000
  1
17/32
 72
     1
 11
2.685589
 21
8.040553
 31
0.000000
  0
LINE
  8
DIM
 62
     7
  6
CONTINUOUS
 10
5.472571
 20
0.582501
 30
0.000000
 11
5.472571
 21
1.460541
 31
0.000000
  0
LINE
  8
DIM
 62
     7
  6
CONTINUOUS
 10
6.023571
 20
0.582501
 30
0.000000
 11
6.023571
 21
1.460541
 31
0.000000
  0
LINE
  8
DIM
 62
     7
  6
CONTINUOUS
 10
5.164994
 20
1.452921
 30
0.000000
 11
6.331147
 21
1.452921
 31
0.000000
  0
LINE
  8
DIM
 62
     7
  6
CONTINUOUS
 10
5.472571
 20
1.452921
 30
0.000000
 11
5.522571
 21
1.477921
 31
0.000000
  0
LINE
  8
DIM
 62
     7
  6
CONTINUOUS
 10
5.472571
 20
1.452921
 30
0.000000
 11
5.522571
 21
1.427921
 31
0.000000
  0
LINE
  8
DIM
 62
     7
  6
CONTINUOUS
 10
6.023571
 20
1.452921
 30
0.000000
 11
5.973571
 21
1.427921
 31
0.000000
  0
LINE
  8
DIM
 62
     7
  6
CONTINUOUS
 10
6.023571
 20
1.452921
 30
0.000000
 11
5.973571
 21
1.477921
 31
0.000000
  0
TEXT
  8
DIM
 62
     7
 10
5.175154
 20
1.534202
 30
0.000000
 40
0.200000
  1
13.995MM
 72
     1
 11
5.748071
 21
1.534202
 31
0.000000
  0
LINE
  8
DIM
 62
     7
  6
CONTINUOUS
 10
6.464575
 20
-0.358255
 30
0.000000
 11
6.464575
 21
0.509910
 31
0.000000
  0
LINE
  8
DIM
 62
     7
  6
CONTINUOUS
 10
6.995824
 20
-0.358255
 30
0.000000
 11
6.995824
 21
0.509910
 31
0.000000
  0
LINE
  8
DIM
 62
     7
  6
CONTINUOUS
 10
6.412748
 20
0.502290
 30
0.000000
 11
7.047651
 21
0.502290
 31
0.000000
  0
LINE
  8
DIM
 62
     7
  6
CONTINUOUS
 10
6.464575
 20
0.502290
 30
0.000000
 11
6.514575
 21
0.527290
 31
0.000000
  0
LINE
  8
DIM
 62
     7
  6
CONTINUOUS
 10
6.464575
 20
0.502290
 30
0.000000
 11
6.514575
 21
0.477290
 31
0.000000
  0
LINE
  8
DIM
 62
     7
  6
CONTINUOUS
 10
6.995824
 20
0.502290
 30
0.000000
 11
6.945824
 21
0.477290
 31
0.000000
  0
LINE
  8
DIM
 62
     7
  6
CONTINUOUS
 10
6.995824
 20
0.502290
 30
0.000000
 11
6.945824
 21
0.527290
 31
0.000000
  0
TEXT
  8
DIM
 62
     7
 10
6.422908
 20
0.583570
 30
0.000000
 40
0.200000
  1
17/32
 72
     1
 11
6.730199
 21
0.583570
 31
0.000000
  0
LINE
  8
DIM
 62
     7
  6
CONTINUOUS
 10
3.654580
 20
-4.674618
 30
0.000000
 11
3.654580
 21
-3.908015
 31
0.000000
  0
LINE
  8
DIM
 62
     7
  6
CONTINUOUS
 10
3.982705
 20
-4.674618
 30
0.000000
 11
3.982705
 21
-3.908015
 31
0.000000
  0
LINE
  8
DIM
 62
     7
  6
CONTINUOUS
 10
3.501190
 20
-3.915635
 30
0.000000
 11
4.136094
 21
-3.915635
 31
0.000000
  0
LINE
  8
DIM
 62
     7
  6
CONTINUOUS
 10
3.654580
 20
-3.915635
 30
0.000000
 11
3.704580
 21
-3.890635
 31
0.000000
  0
LINE
  8
DIM
 62
     7
  6
CONTINUOUS
 10
3.654580
 20
-3.915635
 30
0.000000
 11
3.704580
 21
-3.940635
 31
0.000000
  0
LINE
  8
DIM
 62
     7
  6
CONTINUOUS
 10
3.982705
 20
-3.915635
 30
0.000000
 11
3.932705
 21
-3.940635
 31
0.000000
  0
LINE
  8
DIM
 62
     7
  6
CONTINUOUS
 10
3.982705
 20
-3.915635
 30
0.000000
 11
3.932705
 21
-3.890635
 31
0.000000
  0
TEXT
  8
DIM
 62
     7
 10
3.511350
 20
-3.834355
 30
0.000000
 40
0.200000
  1
21/64
 72
     1
 11
3.818642
 21
-3.834355
 31
0.000000
  0
LINE
  8
DIM
 62
     7
  6
CONTINUOUS
 10
-4.961044
 20
-4.070755
 30
0.000000
 11
-4.961044
 21
-3.265090
 31
0.000000
  0
LINE
  8
DIM
 62
     7
  6
CONTINUOUS
 10
-4.554794
 20
-4.070755
 30
0.000000
 11
-4.554794
 21
-3.265090
 31
0.000000
  0
LINE
  8
DIM
 62
     7
  6
CONTINUOUS
 10
-5.075371
 20
-3.272710
 30
0.000000
 11
-4.440468
 21
-3.272710
 31
0.000000
  0
LINE
  8
DIM
 62
     7
  6
CONTINUOUS
 10
-4.961044
 20
-3.272710
 30
0.000000
 11
-4.911044
 21
-3.247710
 31
0.000000
  0
LINE
  8
DIM
 62
     7
  6
CONTINUOUS
 10
-4.961044
 20
-3.272710
 30
0.000000
 11
-4.911044
 21
-3.297710
 31
0.000000
  0
LINE
  8
DIM
 62
     7
  6
CONTINUOUS
 10
-4.554794
 20
-3.272710
 30
0.000000
 11
-4.604794
 21
-3.297710
 31
0.000000
  0
LINE
  8
DIM
 62
     7
  6
CONTINUOUS
 10
-4.554794
 20
-3.272710
 30
0.000000
 11
-4.604794
 21
-3.247710
 31
0.000000
  0
TEXT
  8
DIM
 62
     7
 10
-5.065211
 20
-3.191429
 30
0.000000
 40
0.200000
  1
13/32
 72
     1
 11
-4.757919
 21
-3.191429
 31
0.000000
  0
LINE
  8
DIM
 62
     7
  6
CONTINUOUS
 10
-6.212745
 20
-0.301176
 30
0.000000
 11
-6.212745
 21
0.566989
 31
0.000000
  0
LINE
  8
DIM
 62
     7
  6
CONTINUOUS
 10
-5.681495
 20
-0.301176
 30
0.000000
 11
-5.681495
 21
0.566989
 31
0.000000
  0
LINE
  8
DIM
 62
     7
  6
CONTINUOUS
 10
-6.264571
 20
0.559369
 30
0.000000
 11
-5.629668
 21
0.559369
 31
0.000000
  0
LINE
  8
DIM
 62
     7
  6
CONTINUOUS
 10
-6.212745
 20
0.559369
 30
0.000000
 11
-6.162745
 21
0.584369
 31
0.000000
  0
LINE
  8
DIM
 62
     7
  6
CONTINUOUS
 10
-6.212745
 20
0.559369
 30
0.000000
 11
-6.162745
 21
0.534369
 31
0.000000
  0
LINE
  8
DIM
 62
     7
  6
CONTINUOUS
 10
-5.681495
 20
0.559369
 30
0.000000
 11
-5.731495
 21
0.534369
 31
0.000000
  0
LINE
  8
DIM
 62
     7
  6
CONTINUOUS
 10
-5.681495
 20
0.559369
 30
0.000000
 11
-5.731495
 21
0.584369
 31
0.000000
  0
TEXT
  8
DIM
 62
     7
 10
-6.254411
 20
0.640649
 30
0.000000
 40
0.200000
  1
17/32
 72
     1
 11
-5.947120
 21
0.640649
 31
0.000000
  0
LINE
  8
DIM
 62
     7
  6
CONTINUOUS
 10
-5.748554
 20
1.790782
 30
0.000000
 11
-5.748554
 21
2.668822
 31
0.000000
  0
LINE
  8
DIM
 62
     7
  6
CONTINUOUS
 10
-5.197554
 20
1.790782
 30
0.000000
 11
-5.197554
 21
2.668822
 31
0.000000
  0
LINE
  8
DIM
 62
     7
  6
CONTINUOUS
 10
-6.056130
 20
2.661202
 30
0.000000
 11
-4.889977
 21
2.661202
 31
0.000000
  0
LINE
  8
DIM
 62
     7
  6
CONTINUOUS
 10
-5.748554
 20
2.661202
 30
0.000000
 11
-5.698554
 21
2.686202
 31
0.000000
  0
LINE
  8
DIM
 62
     7
  6
CONTINUOUS
 10
-5.748554
 20
2.661202
 30
0.000000
 11
-5.698554
 21
2.636202
 31
0.000000
  0
LINE
  8
DIM
 62
     7
  6
CONTINUOUS
 10
-5.197554
 20
2.661202
 30
0.000000
 11
-5.247554
 21
2.636202
 31
0.000000
  0
LINE
  8
DIM
 62
     7
  6
CONTINUOUS
 10
-5.197554
 20
2.661202
 30
0.000000
 11
-5.247554
 21
2.686202
 31
0.000000
  0
TEXT
  8
DIM
 62
     7
 10
-6.045970
 20
2.742482
 30
0.000000
 40
0.200000
  1
13.995MM
 72
     1
 11
-5.473054
 21
2.742482
 31
0.000000
  0
LINE
  8
Default
 62
     7
  6
CONTINUOUS
 10
4.474085
 20
0.715933
 30
0.000000
 11
5.748071
 21
0.577422
 31
0.000000
  0
LINE
  8
Default
 62
     7
  6
CONTINUOUS
 10
5.474185
 20
0.607199
 30
0.000000
 11
5.421775
 21
0.587750
 31
0.000000
  0
LINE
  8
Default
 62
     7
  6
CONTINUOUS
 10
5.474185
 20
0.607199
 30
0.000000
 11
5.427180
 21
0.637457
 31
0.000000
  0
TEXT
  8
Default
 62
     7
 10
4.573774
 20
0.786854
 30
0.000000
 40
0.200000
  1
R0.551
 50
-6.205000
 72
     1
 11
4.967289
 21
0.744069
 31
0.000000
  0
LINE
  8
Default
 62
     7
  6
CONTINUOUS
 10
-6.747039
 20
1.924213
 30
0.000000
 11
-5.473054
 21
1.785702
 31
0.000000
  0
LINE
  8
Default
 62
     7
  6
CONTINUOUS
 10
-5.746940
 20
1.815479
 30
0.000000
 11
-5.799349
 21
1.796030
 31
0.000000
  0
LINE
  8
Default
 62
     7
  6
CONTINUOUS
 10
-5.746940
 20
1.815479
 30
0.000000
 11
-5.793945
 21
1.845737
 31
0.000000
  0
TEXT
  8
Default
 62
     7
 10
-6.647350
 20
1.995134
 30
0.000000
 40
0.200000
  1
R0.551
 50
-6.205000
 72
     1
 11
-6.253836
 21
1.952350
 31
0.000000
  0
ARC
  8
Default
 62
     7
  6
CONTINUOUS
 10
7.032904
 20
1.291636
 30
0.000000
 40
0.282000
 50
0.000000
 51
72.472502
  0
CIRCLE
  8
Default
 62
     3
  6
CONTINUOUS
 10
0.000000
 20
0.000000
 30
0.000000
 40
5.375000
  0
TEXT
  8
DIM
 62
     7
 10
-2.151624
 20
4.486179
 30
0.000000
 40
0.200000
  1
10.75 x .594 deep recess on back side
 72
     1
 11
0.058376
 21
4.486179
 31
0.000000
  0
INSERT
  8
DIM
 62
     7
  2
Object_0
 10
-10.160000
 20
-10.160000
 30
0.000000
  0
ARC
  8
CAM
 62
     7
  6
CONTINUOUS
 10
4.525409
 20
3.934625
 30
0.000000
 40
1.395000
 50
21.143576
 51
37.840413
  0
LINE
  8
CAM
 62
     7
  6
CONTINUOUS
 10
3.404236
 20
7.651900
 30
0.000000
 11
5.627072
 21
4.790407
 31
0.000000
  0
ARC
  8
CAM
 62
     7
  6
CONTINUOUS
 10
2.685589
 20
7.093648
 30
0.000000
 40
0.910000
 50
37.840413
 51
90.329597
  0
LINE
  8
CAM
 62
     7
  6
CONTINUOUS
 10
-2.772257
 20
7.972266
 30
0.000000
 11
2.680354
 21
8.003633
 31
0.000000
  0
ARC
  8
CAM
 62
     7
  6
CONTINUOUS
 10
-2.767022
 20
7.062281
 30
0.000000
 40
0.910000
 50
90.329597
 51
168.395435
  0
LINE
  8
CAM
 62
     7
  6
CONTINUOUS
 10
-4.178530
 20
4.712585
 30
0.000000
 11
-3.658421
 21
7.245333
 31
0.000000
  0
ARC
  8
CAM
 62
     7
  6
CONTINUOUS
 10
-4.771163
 20
4.834284
 30
0.000000
 40
0.605000
 50
319.006778
 51
348.395435
  0
LINE
  8
CAM
 62
     7
  6
CONTINUOUS
 10
-6.125945
 20
2.353115
 30
0.000000
 11
-4.314517
 21
4.437423
 31
0.000000
  0
ARC
  8
CAM
 62
     7
  6
CONTINUOUS
 10
-5.473054
 20
1.785702
 30
0.000000
 40
0.865000
 50
139.006778
 51
165.227900
  0
LINE
  8
CAM
 62
     7
  6
CONTINUOUS
 10
-6.856050
 20
-0.066580
 30
0.000000
 11
-6.309464
 21
2.006255
 31
0.000000
  0
ARC
  8
CAM
 62
     7
  6
CONTINUOUS
 10
-5.947120
 20
-0.306256
 30
0.000000
 40
0.940000
 50
165.227900
 51
199.974043
  0
LINE
  8
CAM
 62
     7
  6
CONTINUOUS
 10
-5.443844
 20
-4.442748
 30
0.000000
 11
-6.830576
 21
-0.627355
 31
0.000000
  0
ARC
  8
CAM
 62
     7
  6
CONTINUOUS
 10
-4.720161
 20
-4.179720
 30
0.000000
 40
0.770000
 50
199.974043
 51
254.485198
  0
LINE
  8
CAM
 62
     7
  6
CONTINUOUS
 10
-1.620973
 20
-5.839182
 30
0.000000
 11
-4.926127
 21
-4.921662
 31
0.000000
  0
ARC
  8
CAM
 62
     7
  6
CONTINUOUS
 10
0.000000
 20
0.000000
 30
0.000000
 40
6.060000
 50
254.485198
 51
273.453117
  0
LINE
  8
CAM
 62
     7
  6
CONTINUOUS
 10
4.433196
 20
-5.803517
 30
0.000000
 11
0.365005
 21
-6.048998
 31
0.000000
  0
ARC
  8
CAM
 62
     7
  6
CONTINUOUS
 10
4.398111
 20
-5.222075
 30
0.000000
 40
0.582500
 50
273.453117
 51
352.864285
  0
ARC
  8
CAM
 62
     7
  6
CONTINUOUS
 10
-4.757919
 20
-4.075835
 30
0.000000
 40
9.810000
 50
352.864285
 51
355.395909
  0
ARC
  8
CAM
 62
     7
  6
CONTINUOUS
 10
4.527023
 20
-4.823551
 30
0.000000
 40
0.495000
 50
355.395909
 51
409.491605
  0
ARC
  8
CAM
 62
     7
  6
CONTINUOUS
 10
5.728708
 20
-3.416976
 30
0.000000
 40
1.355000
 50
91.621117
 51
229.491605
  0
LINE
  8
CAM
 62
     7
  6
CONTINUOUS
 10
7.143979
 20
-2.021379
 30
0.000000
 11
5.690375
 21
-2.062518
 31
0.000000
  0
ARC
  8
CAM
 62
     7
  6
CONTINUOUS
 10
7.127500
 20
-1.439112
 30
0.000000
 40
0.582500
 50
271.621117
 51
360.002007
  0
LINE
  8
CAM
 62
     7
  6
CONTINUOUS
 10
7.710000
 20
-1.439092
 30
0.000000
 11
7.709904
 21
1.291659
 31
0.000000
  0
ARC
  8
CAM
 62
     7
  6
CONTINUOUS
 10
7.032904
 20
1.291636
 30
0.000000
 40
0.677000
 50
0.002007
 51
72.472502
  0
LINE
  8
CAM
 62
     7
  6
CONTINUOUS
 10
6.765448
 20
2.086067
 30
-0.000000
 11
7.236792
 21
1.937204
 31
0.000000
  0
ARC
  8
CAM
 62
     7
  6
CONTINUOUS
 10
6.797070
 20
2.186192
 30
-0.000000
 40
0.105000
 50
197.829735
 51
252.472502
  0
ARC
  8
CAM
 62
     7
  6
CONTINUOUS
 10
0.000000
 20
0.000000
 30
0.000000
 40
7.035000
 50
17.829735
 51
21.143576
  0
LINE
  8
CAM
 62
     7
  6
CONTINUOUS
 10
5.826497
 20
4.437810
 30
0.000000
 11
6.561400
 21
2.537569
 31
0.000000
  0
ARC
  8
CAM
 62
     7
  6
CONTINUOUS
 10
4.525409
 20
3.934625
 30
0.000000
 40
1.375000
 50
21.143576
 51
37.840413
  0
LINE
  8
CAM
 62
     7
  6
CONTINUOUS
 10
5.807844
 20
4.430596
 30
0.000000
 11
6.542746
 21
2.530354
 31
0.000000
  0
ARC
  8
CAM
 62
     7
  6
CONTINUOUS
 10
0.000000
 20
0.000000
 30
0.000000
 40
7.015000
 50
17.829735
 51
21.143576
  0
ARC
  8
CAM
 62
     7
  6
CONTINUOUS
 10
6.797070
 20
2.186192
 30
-0.000000
 40
0.125000
 50
197.829735
 51
252.472502
  0
LINE
  8
CAM
 62
     7
  6
CONTINUOUS
 10
6.759425
 20
2.066996
 30
-0.000000
 11
7.230769
 21
1.918133
 31
0.000000
  0
ARC
  8
CAM
 62
     7
  6
CONTINUOUS
 10
7.032904
 20
1.291636
 30
0.000000
 40
0.657000
 50
0.002007
 51
72.472502
  0
LINE
  8
CAM
 62
     7
  6
CONTINUOUS
 10
7.690000
 20
-1.439093
 30
0.000000
 11
7.689904
 21
1.291659
 31
0.000000
  0
ARC
  8
CAM
 62
     7
  6
CONTINUOUS
 10
7.127500
 20
-1.439112
 30
0.000000
 40
0.562500
 50
271.621117
 51
360.002007
  0
LINE
  8
CAM
 62
     7
  6
CONTINUOUS
 10
7.143413
 20
-2.001387
 30
0.000000
 11
5.689809
 21
-2.042526
 31
0.000000
  0
ARC
  8
CAM
 62
     7
  6
CONTINUOUS
 10
5.728708
 20
-3.416976
 30
0.000000
 40
1.375000
 50
91.621117
 51
229.491605
  0
ARC
  8
CAM
 62
     7
  6
CONTINUOUS
 10
4.527023
 20
-4.823551
 30
0.000000
 40
0.475000
 50
355.395909
 51
409.491605
  0
ARC
  8
CAM
 62
     7
  6
CONTINUOUS
 10
-4.757919
 20
-4.075835
 30
0.000000
 40
9.790000
 50
352.864285
 51
355.395909
  0
ARC
  8
CAM
 62
     7
  6
CONTINUOUS
 10
4.398111
 20
-5.222075
 30
0.000000
 40
0.562500
 50
273.453117
 51
352.864285
  0
LINE
  8
CAM
 62
     7
  6
CONTINUOUS
 10
4.431991
 20
-5.783554
 30
0.000000
 11
0.363800
 21
-6.029034
 31
0.000000
  0
ARC
  8
CAM
 62
     7
  6
CONTINUOUS
 10
0.000000
 20
0.000000
 30
0.000000
 40
6.040000
 50
254.485198
 51
273.453117
  0
LINE
  8
CAM
 62
     7
  6
CONTINUOUS
 10
-1.615623
 20
-5.819911
 30
0.000000
 11
-4.920777
 21
-4.902391
 31
0.000000
  0
ARC
  8
CAM
 62
     7
  6
CONTINUOUS
 10
-4.720161
 20
-4.179720
 30
0.000000
 40
0.750000
 50
199.974043
 51
254.485198
  0
LINE
  8
CAM
 62
     7
  6
CONTINUOUS
 10
-5.425047
 20
-4.435916
 30
0.000000
 11
-6.811779
 21
-0.620523
 31
0.000000
  0
ARC
  8
CAM
 62
     7
  6
CONTINUOUS
 10
-5.947120
 20
-0.306256
 30
0.000000
 40
0.920000
 50
165.227900
 51
199.974043
  0
LINE
  8
CAM
 62
     7
  6
CONTINUOUS
 10
-6.836712
 20
-0.071679
 30
0.000000
 11
-6.290125
 21
2.001155
 31
0.000000
  0
ARC
  8
CAM
 62
     7
  6
CONTINUOUS
 10
-5.473054
 20
1.785702
 30
0.000000
 40
0.845000
 50
139.006778
 51
165.227900
  0
LINE
  8
CAM
 62
     7
  6
CONTINUOUS
 10
-6.110849
 20
2.339996
 30
0.000000
 11
-4.299421
 21
4.424303
 31
0.000000
  0
ARC
  8
CAM
 62
     7
  6
CONTINUOUS
 10
-4.771163
 20
4.834284
 30
0.000000
 40
0.625000
 50
319.006778
 51
348.395435
  0
LINE
  8
CAM
 62
     7
  6
CONTINUOUS
 10
-4.158939
 20
4.708562
 30
0.000000
 11
-3.638830
 21
7.241310
 31
0.000000
  0
ARC
  8
CAM
 62
     7
  6
CONTINUOUS
 10
-2.767022
 20
7.062281
 30
0.000000
 40
0.890000
 50
90.329597
 51
168.395435
  0
LINE
  8
CAM
 62
     7
  6
CONTINUOUS
 10
-2.772142
 20
7.952266
 30
0.000000
 11
2.680469
 21
7.983633
 31
0.000000
  0
ARC
  8
CAM
 62
     7
  6
CONTINUOUS
 10
2.685589
 20
7.093648
 30
0.000000
 40
0.890000
 50
37.840413
 51
90.329597
  0
LINE
  8
CAM
 62
     7
  6
CONTINUOUS
 10
3.388442
 20
7.639631
 30
0.000000
 11
5.611278
 21
4.778138
 31
0.000000
  0
CIRCLE
  8
CAM
 62
     7
  6
CONTINUOUS
 10
0.000000
 20
0.000000
 30
0.000000
 40
2.625000
  0
CIRCLE
  8
CAM
 62
     7
  6
CONTINUOUS
 10
0.000000
 20
0.000000
 30
0.000000
 40
2.605000
  0
CIRCLE
  8
CAM
 62
     7
  6
CONTINUOUS
 10
5.748070
 20
0.577422
 30
0.000000
 40
0.025500
  0
CIRCLE
  8
CAM
 62
     7
  6
CONTINUOUS
 10
-5.473054
 20
1.785702
 30
0.000000
 40
0.025500
  0
LINE
  8
DIM
 62
     7
  6
CONTINUOUS
 10
0.000000
 20
-0.002540
 30
0.000000
 11
0.000000
 21
-6.202659
 31
0.000000
  0
LINE
  8
DIM
 62
     7
  6
CONTINUOUS
 10
-6.492120
 20
-0.308796
 30
0.000000
 11
-6.492120
 21
-6.202659
 31
0.000000
  0
LINE
  8
DIM
 62
     7
  6
CONTINUOUS
 10
0.000000
 20
-6.198849
 30
0.000000
 11
-6.492120
 21
-6.198849
 31
0.000000
  0
LINE
  8
DIM
 62
     7
  6
CONTINUOUS
 10
0.000000
 20
-6.198849
 30
0.000000
 11
-0.025000
 21
-6.211349
 31
0.000000
  0
LINE
  8
DIM
 62
     7
  6
CONTINUOUS
 10
0.000000
 20
-6.198849
 30
0.000000
 11
-0.025000
 21
-6.186349
 31
0.000000
  0
LINE
  8
DIM
 62
     7
  6
CONTINUOUS
 10
-6.492120
 20
-6.198849
 30
0.000000
 11
-6.467120
 21
-6.186349
 31
0.000000
  0
LINE
  8
DIM
 62
     7
  6
CONTINUOUS
 10
-6.492120
 20
-6.198849
 30
0.000000
 11
-6.467120
 21
-6.211349
 31
0.000000
  0
TEXT
  8
DIM
 62
     7
 10
-6.273025
 20
-6.117569
 30
0.000000
 40
0.200000
  1
6.492
 72
     1
 11
-5.953025
 21
-6.117569
 31
0.000000
  0
LINE
  8
DIM
 62
     7
  6
CONTINUOUS
 10
0.000000
 20
-0.002540
 30
0.000000
 11
0.000000
 21
-6.202659
 31
0.000000
  0
LINE
  8
DIM
 62
     7
  6
CONTINUOUS
 10
7.315000
 20
-1.441652
 30
0.000000
 11
7.315000
 21
-6.202659
 31
0.000000
  0
LINE
  8
DIM
 62
     7
  6
CONTINUOUS
 10
0.000000
 20
-6.198849
 30
0.000000
 11
7.315000
 21
-6.198849
 31
0.000000
  0
LINE
  8
DIM
 62
     7
  6
CONTINUOUS
 10
0.000000
 20
-6.198849
 30
0.000000
 11
0.025000
 21
-6.186349
 31
0.000000
  0
LINE
  8
DIM
 62
     7
  6
CONTINUOUS
 10
0.000000
 20
-6.198849
 30
0.000000
 11
0.025000
 21
-6.211349
 31
0.000000
  0
LINE
  8
DIM
 62
     7
  6
CONTINUOUS
 10
7.315000
 20
-6.198849
 30
0.000000
 11
7.290000
 21
-6.211349
 31
0.000000
  0
LINE
  8
DIM
 62
     7
  6
CONTINUOUS
 10
7.315000
 20
-6.198849
 30
0.000000
 11
7.290000
 21
-6.186349
 31
0.000000
  0
TEXT
  8
DIM
 62
     7
 10
6.175443
 20
-6.117569
 30
0.000000
 40
0.200000
  1
7.315
 72
     1
 11
6.465443
 21
-6.117569
 31
0.000000
  0
LINE
  8
DIM
 62
     7
  6
CONTINUOUS
 10
0.002540
 20
0.000000
 30
0.000000
 11
7.907181
 21
0.000000
 31
0.000000
  0
LINE
  8
DIM
 62
     7
  6
CONTINUOUS
 10
2.688129
 20
7.608648
 30
0.000000
 11
7.907181
 21
7.608648
 31
0.000000
  0
LINE
  8
DIM
 62
     7
  6
CONTINUOUS
 10
7.903371
 20
0.000000
 30
0.000000
 11
7.903371
 21
7.608648
 31
0.000000
  0
LINE
  8
DIM
 62
     7
  6
CONTINUOUS
 10
7.903371
 20
0.000000
 30
0.000000
 11
7.890871
 21
0.025000
 31
0.000000
  0
LINE
  8
DIM
 62
     7
  6
CONTINUOUS
 10
7.903371
 20
0.000000
 30
0.000000
 11
7.915871
 21
0.025000
 31
0.000000
  0
LINE
  8
DIM
 62
     7
  6
CONTINUOUS
 10
7.903371
 20
7.608648
 30
0.000000
 11
7.915871
 21
7.583648
 31
0.000000
  0
LINE
  8
DIM
 62
     7
  6
CONTINUOUS
 10
7.903371
 20
7.608648
 30
0.000000
 11
7.890871
 21
7.583648
 31
0.000000
  0
TEXT
  8
DIM
 62
     7
 10
7.822091
 20
5.844259
 30
0.000000
 40
0.200000
  1
7.609
 50
90.000003
 72
     1
 11
7.822091
 21
6.154259
 31
0.000000
  0
LINE
  8
DIM
 62
     7
  6
CONTINUOUS
 10
0.002540
 20
0.000000
 30
0.000000
 11
7.907181
 21
0.000000
 31
0.000000
  0
LINE
  8
DIM
 62
     7
  6
CONTINUOUS
 10
0.002540
 20
-5.665000
 30
0.000000
 11
7.907181
 21
-5.665000
 31
0.000000
  0
LINE
  8
DIM
 62
     7
  6
CONTINUOUS
 10
7.903371
 20
0.000000
 30
0.000000
 11
7.903371
 21
-5.665000
 31
0.000000
  0
LINE
  8
DIM
 62
     7
  6
CONTINUOUS
 10
7.903371
 20
0.000000
 30
0.000000
 11
7.915871
 21
-0.025000
 31
0.000000
  0
LINE
  8
DIM
 62
     7
  6
CONTINUOUS
 10
7.903371
 20
0.000000
 30
0.000000
 11
7.890871
 21
-0.025000
 31
0.000000
  0
LINE
  8
DIM
 62
     7
  6
CONTINUOUS
 10
7.903371
 20
-5.665000
 30
0.000000
 11
7.890871
 21
-5.640000
 31
0.000000
  0
LINE
  8
DIM
 62
     7
  6
CONTINUOUS
 10
7.903371
 20
-5.665000
 30
0.000000
 11
7.915871
 21
-5.640000
 31
0.000000
  0
TEXT
  8
DIM
 62
     7
 10
7.822091
 20
-4.874840
 30
0.000000
 40
0.200000
  1
5.665
 50
90.000003
 72
     1
 11
7.822091
 21
-4.564840
 31
0.000000
  0
TEXT
  8
DIM
 62
     7
 10
-2.137912
 20
5.925498
 30
0.000000
 40
0.200000
  1
Countersink bolt holes on back side
 72
     1
 11
-0.037912
 21
5.925498
 31
0.000000
  0
ENDSEC
  0
EOF
