  0
SECTION
  2
HEADER
  9
$ACADVER
  1
AC1006
  0
ENDSEC
  0
SECTION
  2
TABLES
  0
TABLE
  2
LTYPE
 70
    25
  0
LTYPE
  2
CONTINUOUS
 70
    64
  3
Solid line
 72
    64
 73
     0
 40
0.000000
  0
LTYPE
  2
DASHDOT
 70
    64
  3
__ . __ . __ . __ . __ . __ . __ . __ . __ . __
 72
    65
 73
     4
 40
1.000000
 49
0.500000
 49
-0.250000
 49
0.000000
 49
-0.250000
  0
LTYPE
  2
DASHED
 70
    64
  3
__ __ __ __ __ __ __ __ __ __ __ __ __ __ __ __
 72
    65
 73
     2
 40
0.750000
 49
0.500000
 49
-0.250000
  0
LTYPE
  2
DIVIDE
 70
    64
  3
____ . . ____ . . ____ . . ____ . . ____ . . __
 72
    65
 73
     6
 40
1.250000
 49
0.500000
 49
-0.250000
 49
0.000000
 49
-0.250000
 49
0.000000
 49
-0.250000
  0
LTYPE
  2
DOT
 70
    64
  3
. . . . . . . . . . . . . . . . . . . . . . . . 
 72
    65
 73
     2
 40
0.250000
 49
0.000000
 49
-0.250000
  0
ENDTAB
  0
ENDSEC
  0
SECTION
  2
BLOCKS
  0
BLOCK
  8
0
  2
Object_0
 70
    64
 10
0.000000
 20
0.000000
 30
0.000000
  0
ENDBLK
  0
ENDSEC
  0
SECTION
  2
ENTITIES
  0
POINT
  8
Default
 62
     7
 10
-6.470071
 20
-1.834709
 30
0.000000
  0
POINT
  8
Default
 62
     7
 10
-2.129521
 20
2.258308
 30
0.000000
  0
POINT
  8
Default
 62
     7
 10
2.225579
 20
6.365046
 30
0.000000
  0
CIRCLE
  8
DIM
 62
     6
  6
CONTINUOUS
 10
0.000000
 20
0.000000
 30
0.000000
 40
2.640000
  0
LINE
  8
DIM
 62
     6
  6
CONTINUOUS
 10
-6.470071
 20
-1.834709
 30
0.000000
 11
-2.129521
 21
2.258308
 31
0.000000
  0
LINE
  8
DIM
 62
     6
  6
CONTINUOUS
 10
-6.470071
 20
-1.834709
 30
0.000000
 11
0.000000
 21
0.000000
 31
0.000000
  0
LINE
  8
DIM
 62
     6
  6
CONTINUOUS
 10
-2.129521
 20
2.258308
 30
0.000000
 11
0.000000
 21
0.000000
 31
0.000000
  0
CIRCLE
  8
Default
 62
     6
  6
CONTINUOUS
 10
5.766515
 20
3.460192
 30
0.000000
 40
0.250000
  0
CIRCLE
  8
Default
 62
     6
  6
CONTINUOUS
 10
3.345906
 20
5.833570
 30
0.000000
 40
0.250000
  0
CIRCLE
  8
Default
 62
     9
  6
CONTINUOUS
 10
0.000000
 20
0.000000
 30
0.000000
 40
4.251000
  0
CIRCLE
  8
Default
 62
     9
  6
CONTINUOUS
 10
0.000000
 20
3.625000
 30
0.000000
 40
0.265625
  0
CIRCLE
  8
Default
 62
     9
  6
CONTINUOUS
 10
3.625000
 20
0.000000
 30
0.000000
 40
0.265625
  0
CIRCLE
  8
Default
 62
     9
  6
CONTINUOUS
 10
-0.000000
 20
-3.625000
 30
0.000000
 40
0.265625
  0
CIRCLE
  8
Default
 62
     9
  6
CONTINUOUS
 10
-3.625000
 20
0.000000
 30
0.000000
 40
0.265625
  0
CIRCLE
  8
Default
 62
     9
  6
CONTINUOUS
 10
0.000000
 20
0.000000
 30
0.000000
 40
3.000000
  0
POINT
  8
Default
 62
     9
 10
0.000000
 20
3.625000
 30
0.000000
  0
POINT
  8
Default
 62
     9
 10
3.625000
 20
0.000000
 30
0.000000
  0
POINT
  8
Default
 62
     9
 10
-0.000000
 20
-3.625000
 30
0.000000
  0
POINT
  8
Default
 62
     9
 10
0.000000
 20
0.000000
 30
0.000000
  0
POINT
  8
Default
 62
     9
 10
-3.625000
 20
0.000000
 30
0.000000
  0
POINT
  8
Default
 62
     7
 10
0.000000
 20
0.000000
 30
0.000000
  0
LINE
  8
DIM
 62
     6
  6
CONTINUOUS
 10
2.225571
 20
6.365024
 30
0.000000
 11
0.000000
 21
0.000000
 31
0.000000
  0
POINT
  8
Default
 62
     7
 10
6.717314
 20
0.321436
 30
0.000000
  0
POINT
  8
Default
 62
     7
 10
5.766515
 20
3.460192
 30
0.000000
  0
POINT
  8
Default
 62
     7
 10
3.345906
 20
5.833570
 30
0.000000
  0
POINT
  8
Default
 62
     7
 10
0.784400
 20
6.679097
 30
0.000000
  0
CIRCLE
  8
Default
 62
     6
  6
CONTINUOUS
 10
2.225579
 20
6.365046
 30
0.000000
 40
0.197000
  0
CIRCLE
  8
Default
 62
     6
  6
CONTINUOUS
 10
0.784400
 20
6.679097
 30
0.000000
 40
0.250000
  0
CIRCLE
  8
Default
 62
     6
  6
CONTINUOUS
 10
6.717314
 20
0.321436
 30
0.000000
 40
0.250000
  0
CIRCLE
  8
Default
 62
     6
  6
CONTINUOUS
 10
-1.807855
 20
6.477444
 30
0.000000
 40
0.250000
  0
POINT
  8
Default
 62
     7
 10
-1.807855
 20
6.477444
 30
0.000000
  0
POINT
  8
Default
 62
     7
 10
-6.570435
 20
1.088569
 30
0.000000
  0
POINT
  8
Default
 62
     7
 10
-5.148868
 20
-4.326058
 30
0.000000
  0
POINT
  8
Default
 62
     7
 10
3.052540
 20
-5.902374
 30
0.000000
  0
CIRCLE
  8
Default
 62
     6
  6
CONTINUOUS
 10
-6.570435
 20
1.088569
 30
0.000000
 40
0.250000
  0
CIRCLE
  8
Default
 62
     6
  6
CONTINUOUS
 10
-5.148868
 20
-4.326058
 30
0.000000
 40
0.250000
  0
CIRCLE
  8
Default
 62
     6
  6
CONTINUOUS
 10
-6.470071
 20
-1.834709
 30
0.000000
 40
0.197000
  0
CIRCLE
  8
Default
 62
     6
  6
CONTINUOUS
 10
3.052540
 20
-5.902374
 30
0.000000
 40
0.250000
  0
POINT
  8
Default
 62
     7
 10
4.053112
 20
-5.366368
 30
0.000000
  0
POINT
  8
Default
 62
     7
 10
5.905212
 20
-3.217779
 30
0.000000
  0
CIRCLE
  8
Default
 62
     6
  6
CONTINUOUS
 10
4.053112
 20
-5.366368
 30
0.000000
 40
0.250000
  0
CIRCLE
  8
Default
 62
     6
  6
CONTINUOUS
 10
5.905212
 20
-3.217779
 30
0.000000
 40
0.250000
  0
INSERT
  8
Default
 62
     7
  2
Object_0
 10
-10.160000
 20
-10.160000
 30
0.000000
  0
ARC
  8
Default
 62
     6
  6
CONTINUOUS
 10
6.166220
 20
0.295309
 30
0.000000
 40
1.000000
 50
348.575874
 51
376.852724
  0
LINE
  8
Default
 62
     6
  6
CONTINUOUS
 10
7.146408
 20
0.097239
 30
0.000000
 11
6.454117
 21
-3.328698
 31
0.000000
  0
ARC
  8
Default
 62
     6
  6
CONTINUOUS
 10
5.905212
 20
-3.217779
 30
0.000000
 40
0.560000
 50
260.357809
 51
348.575874
  0
ARC
  8
Default
 62
     6
  6
CONTINUOUS
 10
5.744417
 20
-4.164217
 30
0.000000
 40
0.400000
 50
80.357809
 51
144.061060
  0
ARC
  8
Default
 62
     6
  6
CONTINUOUS
 10
0.000000
 20
0.000000
 30
0.000000
 40
6.695000
 50
314.415791
 51
324.061060
  0
ARC
  8
Default
 62
     6
  6
CONTINUOUS
 10
4.965508
 20
-5.067815
 30
0.000000
 40
0.400000
 50
134.415791
 51
198.119042
  0
ARC
  8
Default
 62
     6
  6
CONTINUOUS
 10
4.053112
 20
-5.366368
 30
0.000000
 40
0.560000
 50
293.123746
 51
378.119042
  0
LINE
  8
Default
 62
     6
  6
CONTINUOUS
 10
4.273035
 20
-5.881377
 30
0.000000
 11
3.233191
 21
-6.325417
 31
0.000000
  0
ARC
  8
Default
 62
     6
  6
CONTINUOUS
 10
3.052540
 20
-5.902374
 30
0.000000
 40
0.460000
 50
275.806663
 51
293.123746
  0
LINE
  8
Default
 62
     6
  6
CONTINUOUS
 10
3.099079
 20
-6.360014
 30
0.000000
 11
1.430231
 21
-6.529726
 31
0.000000
  0
ARC
  8
Default
 62
     6
  6
CONTINUOUS
 10
1.329059
 20
-5.534857
 30
0.000000
 40
1.000000
 50
265.677957
 51
275.806663
  0
LINE
  8
Default
 62
     6
  6
CONTINUOUS
 10
1.253697
 20
-6.532013
 30
0.000000
 11
-2.427237
 21
-6.253818
 31
0.000000
  0
POINT
  8
Default
 62
     7
 10
-2.644987
 20
-6.237361
 30
0.000000
  0
POINT
  8
Default
 62
     7
 10
1.342065
 20
-6.538691
 30
0.000000
  0
ARC
  8
Default
 62
     6
  6
CONTINUOUS
 10
-2.351874
 20
-5.256662
 30
0.000000
 40
1.000000
 50
241.041240
 51
265.677957
  0
LINE
  8
Default
 62
     6
  6
CONTINUOUS
 10
-2.836054
 20
-6.131630
 30
0.000000
 11
-5.371591
 21
-4.728544
 31
0.000000
  0
ARC
  8
Default
 62
     6
  6
CONTINUOUS
 10
-5.148868
 20
-4.326058
 30
0.000000
 40
0.460000
 50
206.820181
 51
241.041240
  0
POINT
  8
Default
 62
     7
 10
-5.554404
 20
6.381238
 30
0.000000
  0
POINT
  8
Default
 62
     7
 10
-7.130972
 20
4.128781
 30
0.000000
  0
LINE
  8
Default
 62
     6
  6
CONTINUOUS
 10
-6.831504
 20
-2.017441
 30
0.000000
 11
-5.559385
 21
-4.533607
 31
0.000000
  0
ARC
  8
Default
 62
     6
  6
CONTINUOUS
 10
-6.470071
 20
-1.834709
 30
0.000000
 40
0.405000
 50
184.219588
 51
206.820181
  0
LINE
  8
Default
 62
     6
  6
CONTINUOUS
 10
-6.873973
 20
-1.864508
 30
0.000000
 11
-7.089026
 21
1.050308
 31
0.000000
  0
ARC
  8
Default
 62
     6
  6
CONTINUOUS
 10
-6.570435
 20
1.088569
 30
0.000000
 40
0.520000
 50
180.763051
 51
184.219588
  0
LINE
  8
Default
 62
     6
  6
CONTINUOUS
 10
-7.090389
 20
1.081644
 30
0.000000
 11
-7.134566
 21
4.398604
 31
0.000000
  0
ARC
  8
Default
 62
     6
  6
CONTINUOUS
 10
-5.134743
 20
4.425239
 30
0.000000
 40
2.000000
 50
100.813450
 51
180.763051
  0
LINE
  8
Default
 62
     6
  6
CONTINUOUS
 10
-5.509967
 20
6.389725
 30
0.000000
 11
-1.371443
 21
7.180198
 31
0.000000
  0
ARC
  8
Default
 62
     6
  6
CONTINUOUS
 10
0.000000
 20
0.000000
 30
0.000000
 40
7.310000
 50
35.264031
 51
100.813450
  0
ARC
  8
Default
 62
     6
  6
CONTINUOUS
 10
5.152116
 20
3.643048
 30
0.000000
 40
1.000000
 50
16.852724
 51
35.264031
  0
LINE
  8
Default
 62
     6
  6
CONTINUOUS
 10
6.109169
 20
3.932961
 30
0.000000
 11
7.123274
 21
0.585222
 31
0.000000
  0
CIRCLE
  8
Default
 62
     6
  6
CONTINUOUS
 10
2.225579
 20
6.365046
 30
0.000000
 40
0.004500
  0
CIRCLE
  8
Default
 62
     6
  6
CONTINUOUS
 10
2.225579
 20
6.365046
 30
0.000000
 40
0.009500
  0
CIRCLE
  8
Default
 62
     6
  6
CONTINUOUS
 10
-6.470071
 20
-1.834709
 30
0.000000
 40
0.004500
  0
CIRCLE
  8
Default
 62
     6
  6
CONTINUOUS
 10
-6.470071
 20
-1.834709
 30
0.000000
 40
0.009500
  0
LINE
  8
CAM
 62
     6
  6
CONTINUOUS
 10
7.467813
 20
0.689590
 30
0.000000
 11
9.381919
 21
1.269416
 31
0.000000
  0
LINE
  8
CAM
 62
     6
  6
CONTINUOUS
 10
6.453709
 20
4.037329
 30
0.000000
 11
7.467813
 21
0.689590
 31
0.000000
  0
ARC
  8
CAM
 62
     6
  6
CONTINUOUS
 10
5.152116
 20
3.643048
 30
0.000000
 40
1.360000
 50
16.852724
 51
35.264031
  0
ARC
  8
CAM
 62
     6
  6
CONTINUOUS
 10
0.000000
 20
0.000000
 30
0.000000
 40
7.670000
 50
35.264031
 51
100.813450
  0
LINE
  8
CAM
 62
     6
  6
CONTINUOUS
 10
-5.577508
 20
6.743333
 30
0.000000
 11
-1.438983
 21
7.533806
 31
0.000000
  0
ARC
  8
CAM
 62
     6
  6
CONTINUOUS
 10
-5.134743
 20
4.425239
 30
0.000000
 40
2.360000
 50
100.813450
 51
180.763051
  0
LINE
  8
CAM
 62
     6
  6
CONTINUOUS
 10
-7.450357
 20
1.076850
 30
0.000000
 11
-7.494534
 21
4.393810
 31
0.000000
  0
ARC
  8
CAM
 62
     6
  6
CONTINUOUS
 10
-6.570435
 20
1.088569
 30
0.000000
 40
0.880000
 50
180.763051
 51
184.219588
  0
LINE
  8
CAM
 62
     6
  6
CONTINUOUS
 10
-7.232997
 20
-1.890997
 30
0.000000
 11
-7.448050
 21
1.023819
 31
0.000000
  0
ARC
  8
CAM
 62
     6
  6
CONTINUOUS
 10
-6.470071
 20
-1.834709
 30
0.000000
 40
0.765000
 50
184.219588
 51
206.820181
  0
LINE
  8
CAM
 62
     6
  6
CONTINUOUS
 10
-5.880658
 20
-4.696036
 30
0.000000
 11
-7.152777
 21
-2.179871
 31
0.000000
  0
ARC
  8
CAM
 62
     6
  6
CONTINUOUS
 10
-5.148868
 20
-4.326058
 30
0.000000
 40
0.820000
 50
206.820181
 51
241.041240
  0
LINE
  8
CAM
 62
     6
  6
CONTINUOUS
 10
-3.010359
 20
-6.446619
 30
0.000000
 11
-5.545896
 21
-5.043533
 31
0.000000
  0
ARC
  8
CAM
 62
     6
  6
CONTINUOUS
 10
-2.351874
 20
-5.256662
 30
0.000000
 40
1.360000
 50
241.041240
 51
265.677957
  0
LINE
  8
CAM
 62
     6
  6
CONTINUOUS
 10
1.226566
 20
-6.890989
 30
0.000000
 11
-2.454367
 21
-6.612794
 31
0.000000
  0
ARC
  8
CAM
 62
     6
  6
CONTINUOUS
 10
1.329059
 20
-5.534857
 30
0.000000
 40
1.360000
 50
265.677957
 51
275.806663
  0
LINE
  8
CAM
 62
     6
  6
CONTINUOUS
 10
3.135501
 20
-6.718167
 30
0.000000
 11
1.466653
 21
-6.887878
 31
0.000000
  0
ARC
  8
CAM
 62
     6
  6
CONTINUOUS
 10
3.052540
 20
-5.902374
 30
0.000000
 40
0.820000
 50
275.806663
 51
293.123746
  0
LINE
  8
CAM
 62
     6
  6
CONTINUOUS
 10
4.414413
 20
-6.212454
 30
0.000000
 11
3.374569
 21
-6.656495
 31
0.000000
  0
ARC
  8
CAM
 62
     6
  6
CONTINUOUS
 10
4.053112
 20
-5.366368
 30
0.000000
 40
0.920000
 50
293.123746
 51
378.119042
  0
ARC
  8
CAM
 62
     6
  6
CONTINUOUS
 10
4.965508
 20
-5.067815
 30
0.000000
 40
0.040000
 50
134.415791
 51
198.119042
  0
ARC
  8
CAM
 62
     6
  6
CONTINUOUS
 10
0.000000
 20
0.000000
 30
0.000000
 40
7.055000
 50
314.415791
 51
324.061060
  0
ARC
  8
CAM
 62
     6
  6
CONTINUOUS
 10
5.744417
 20
-4.164217
 30
0.000000
 40
0.040000
 50
80.357809
 51
144.061060
  0
ARC
  8
CAM
 62
     6
  6
CONTINUOUS
 10
5.905212
 20
-3.217779
 30
0.000000
 40
0.920000
 50
260.357809
 51
348.575874
  0
LINE
  8
CAM
 62
     6
  6
CONTINUOUS
 10
7.499276
 20
0.025934
 30
0.000000
 11
6.806984
 21
-3.400003
 31
0.000000
  0
ARC
  8
CAM
 62
     6
  6
CONTINUOUS
 10
6.166220
 20
0.295309
 30
0.000000
 40
1.360000
 50
348.575874
 51
376.852724
  0
LINE
  8
CAM
 62
     6
  6
CONTINUOUS
 10
9.381919
 20
1.269416
 30
0.000000
 11
7.467813
 21
0.689590
 31
0.000000
  0
ARC
  8
CAM
 62
     6
  6
CONTINUOUS
 10
5.152116
 20
3.643048
 30
0.000000
 40
1.355000
 50
16.852724
 51
35.264031
  0
LINE
  8
CAM
 62
     6
  6
CONTINUOUS
 10
6.448923
 20
4.035879
 30
0.000000
 11
7.463027
 21
0.688141
 31
0.000000
  0
ARC
  8
CAM
 62
     6
  6
CONTINUOUS
 10
6.166220
 20
0.295309
 30
0.000000
 40
1.355000
 50
348.575874
 51
376.852724
  0
LINE
  8
CAM
 62
     6
  6
CONTINUOUS
 10
7.494375
 20
0.026924
 30
0.000000
 11
6.802084
 21
-3.399013
 31
0.000000
  0
ARC
  8
CAM
 62
     6
  6
CONTINUOUS
 10
5.905212
 20
-3.217779
 30
0.000000
 40
0.915000
 50
260.357809
 51
348.575874
  0
ARC
  8
CAM
 62
     6
  6
CONTINUOUS
 10
5.744417
 20
-4.164217
 30
0.000000
 40
0.045000
 50
80.357809
 51
144.061060
  0
ARC
  8
CAM
 62
     6
  6
CONTINUOUS
 10
0.000000
 20
0.000000
 30
0.000000
 40
7.050000
 50
314.415791
 51
324.061060
  0
ARC
  8
CAM
 62
     6
  6
CONTINUOUS
 10
4.965508
 20
-5.067815
 30
0.000000
 40
0.045000
 50
134.415791
 51
198.119042
  0
ARC
  8
CAM
 62
     6
  6
CONTINUOUS
 10
4.053112
 20
-5.366368
 30
0.000000
 40
0.915000
 50
293.123746
 51
378.119042
  0
LINE
  8
CAM
 62
     6
  6
CONTINUOUS
 10
4.412450
 20
-6.207856
 30
0.000000
 11
3.372606
 21
-6.651896
 31
0.000000
  0
ARC
  8
CAM
 62
     6
  6
CONTINUOUS
 10
3.052540
 20
-5.902374
 30
0.000000
 40
0.815000
 50
275.806663
 51
293.123746
  0
LINE
  8
CAM
 62
     6
  6
CONTINUOUS
 10
3.134995
 20
-6.713193
 30
0.000000
 11
1.466147
 21
-6.882904
 31
0.000000
  0
ARC
  8
CAM
 62
     6
  6
CONTINUOUS
 10
1.329059
 20
-5.534857
 30
0.000000
 40
1.355000
 50
265.677957
 51
275.806663
  0
LINE
  8
CAM
 62
     6
  6
CONTINUOUS
 10
1.226943
 20
-6.886003
 30
0.000000
 11
-2.453990
 21
-6.607808
 31
0.000000
  0
ARC
  8
CAM
 62
     6
  6
CONTINUOUS
 10
-2.351874
 20
-5.256662
 30
0.000000
 40
1.355000
 50
241.041240
 51
265.677957
  0
LINE
  8
CAM
 62
     6
  6
CONTINUOUS
 10
-3.007938
 20
-6.442244
 30
0.000000
 11
-5.543475
 21
-5.039158
 31
0.000000
  0
ARC
  8
CAM
 62
     6
  6
CONTINUOUS
 10
-5.148868
 20
-4.326058
 30
0.000000
 40
0.815000
 50
206.820181
 51
241.041240
  0
LINE
  8
CAM
 62
     6
  6
CONTINUOUS
 10
-5.876196
 20
-4.693780
 30
0.000000
 11
-7.148315
 21
-2.177615
 31
0.000000
  0
ARC
  8
CAM
 62
     6
  6
CONTINUOUS
 10
-6.470071
 20
-1.834709
 30
0.000000
 40
0.760000
 50
184.219588
 51
206.820181
  0
LINE
  8
CAM
 62
     6
  6
CONTINUOUS
 10
-7.228011
 20
-1.890629
 30
0.000000
 11
-7.443063
 21
1.024187
 31
0.000000
  0
ARC
  8
CAM
 62
     6
  6
CONTINUOUS
 10
-6.570435
 20
1.088569
 30
0.000000
 40
0.875000
 50
180.763051
 51
184.219588
  0
LINE
  8
CAM
 62
     6
  6
CONTINUOUS
 10
-7.445358
 20
1.076916
 30
0.000000
 11
-7.489535
 21
4.393877
 31
0.000000
  0
ARC
  8
CAM
 62
     6
  6
CONTINUOUS
 10
-5.134743
 20
4.425239
 30
0.000000
 40
2.355000
 50
100.813450
 51
180.763051
  0
LINE
  8
CAM
 62
     6
  6
CONTINUOUS
 10
-5.576569
 20
6.738422
 30
0.000000
 11
-1.438045
 21
7.528894
 31
0.000000
  0
ARC
  8
CAM
 62
     6
  6
CONTINUOUS
 10
0.000000
 20
0.000000
 30
0.000000
 40
7.665000
 50
35.264031
 51
100.813450
  0
CIRCLE
  8
CAM
 62
     6
  6
CONTINUOUS
 10
0.000000
 20
0.000000
 30
0.000000
 40
2.640000
  0
LINE
  8
DIM
 62
     6
  6
CONTINUOUS
 10
-2.129521
 20
2.258308
 30
0.000000
 11
2.225579
 21
6.365046
 31
0.000000
  0
LINE
  8
DIM
 62
     7
  6
CONTINUOUS
 10
5.516515
 20
3.462732
 30
0.000000
 11
5.516515
 21
4.314002
 31
0.000000
  0
LINE
  8
DIM
 62
     7
  6
CONTINUOUS
 10
6.016515
 20
3.462732
 30
0.000000
 11
6.016515
 21
4.314002
 31
0.000000
  0
LINE
  8
DIM
 62
     7
  6
CONTINUOUS
 10
5.516515
 20
4.310192
 30
0.000000
 11
6.016515
 21
4.310192
 31
0.000000
  0
LINE
  8
DIM
 62
     7
  6
CONTINUOUS
 10
5.516515
 20
4.310192
 30
0.000000
 11
5.541515
 21
4.322692
 31
0.000000
  0
LINE
  8
DIM
 62
     7
  6
CONTINUOUS
 10
5.516515
 20
4.310192
 30
0.000000
 11
5.541515
 21
4.297692
 31
0.000000
  0
LINE
  8
DIM
 62
     7
  6
CONTINUOUS
 10
6.016515
 20
4.310192
 30
0.000000
 11
5.991515
 21
4.297692
 31
0.000000
  0
LINE
  8
DIM
 62
     7
  6
CONTINUOUS
 10
6.016515
 20
4.310192
 30
0.000000
 11
5.991515
 21
4.322692
 31
0.000000
  0
TEXT
  8
DIM
 62
     7
 10
5.596515
 20
4.391472
 30
0.000000
 40
0.200000
  1
0.5
 72
     1
 11
5.766515
 21
4.391472
 31
0.000000
  0
LINE
  8
DIM
 62
     7
  6
CONTINUOUS
 10
3.095906
 20
5.836109
 30
0.000000
 11
3.095906
 21
6.687379
 31
0.000000
  0
LINE
  8
DIM
 62
     7
  6
CONTINUOUS
 10
3.595906
 20
5.836109
 30
0.000000
 11
3.595906
 21
6.687379
 31
0.000000
  0
LINE
  8
DIM
 62
     7
  6
CONTINUOUS
 10
3.095906
 20
6.683569
 30
0.000000
 11
3.595906
 21
6.683569
 31
0.000000
  0
LINE
  8
DIM
 62
     7
  6
CONTINUOUS
 10
3.095906
 20
6.683569
 30
0.000000
 11
3.120906
 21
6.696069
 31
0.000000
  0
LINE
  8
DIM
 62
     7
  6
CONTINUOUS
 10
3.095906
 20
6.683569
 30
0.000000
 11
3.120906
 21
6.671069
 31
0.000000
  0
LINE
  8
DIM
 62
     7
  6
CONTINUOUS
 10
3.595906
 20
6.683569
 30
0.000000
 11
3.570906
 21
6.671069
 31
0.000000
  0
LINE
  8
DIM
 62
     7
  6
CONTINUOUS
 10
3.595906
 20
6.683569
 30
0.000000
 11
3.570906
 21
6.696069
 31
0.000000
  0
TEXT
  8
DIM
 62
     7
 10
3.175906
 20
6.764850
 30
0.000000
 40
0.200000
  1
0.5
 72
     1
 11
3.345906
 21
6.764850
 31
0.000000
  0
LINE
  8
DIM
 62
     7
  6
CONTINUOUS
 10
2.028579
 20
6.367586
 30
0.000000
 11
2.028579
 21
7.165856
 31
0.000000
  0
LINE
  8
DIM
 62
     7
  6
CONTINUOUS
 10
2.422579
 20
6.367586
 30
0.000000
 11
2.422579
 21
7.165856
 31
0.000000
  0
LINE
  8
DIM
 62
     7
  6
CONTINUOUS
 10
1.900499
 20
7.162046
 30
0.000000
 11
2.550659
 21
7.162046
 31
0.000000
  0
LINE
  8
DIM
 62
     7
  6
CONTINUOUS
 10
2.028579
 20
7.162046
 30
0.000000
 11
2.053579
 21
7.174546
 31
0.000000
  0
LINE
  8
DIM
 62
     7
  6
CONTINUOUS
 10
2.028579
 20
7.162046
 30
0.000000
 11
2.053579
 21
7.149546
 31
0.000000
  0
LINE
  8
DIM
 62
     7
  6
CONTINUOUS
 10
2.422579
 20
7.162046
 30
0.000000
 11
2.397579
 21
7.149546
 31
0.000000
  0
LINE
  8
DIM
 62
     7
  6
CONTINUOUS
 10
2.422579
 20
7.162046
 30
0.000000
 11
2.397579
 21
7.174546
 31
0.000000
  0
TEXT
  8
DIM
 62
     7
 10
1.905579
 20
7.243326
 30
0.000000
 40
0.200000
  1
0.394
 72
     1
 11
2.225579
 21
7.243326
 31
0.000000
  0
LINE
  8
DIM
 62
     7
  6
CONTINUOUS
 10
0.534400
 20
6.681637
 30
0.000000
 11
0.534400
 21
7.532907
 31
0.000000
  0
LINE
  8
DIM
 62
     7
  6
CONTINUOUS
 10
1.034400
 20
6.681637
 30
0.000000
 11
1.034400
 21
7.532907
 31
0.000000
  0
LINE
  8
DIM
 62
     7
  6
CONTINUOUS
 10
0.534400
 20
7.529097
 30
0.000000
 11
1.034400
 21
7.529097
 31
0.000000
  0
LINE
  8
DIM
 62
     7
  6
CONTINUOUS
 10
0.534400
 20
7.529097
 30
0.000000
 11
0.559400
 21
7.541597
 31
0.000000
  0
LINE
  8
DIM
 62
     7
  6
CONTINUOUS
 10
0.534400
 20
7.529097
 30
0.000000
 11
0.559400
 21
7.516597
 31
0.000000
  0
LINE
  8
DIM
 62
     7
  6
CONTINUOUS
 10
1.034400
 20
7.529097
 30
0.000000
 11
1.009400
 21
7.516597
 31
0.000000
  0
LINE
  8
DIM
 62
     7
  6
CONTINUOUS
 10
1.034400
 20
7.529097
 30
0.000000
 11
1.009400
 21
7.541597
 31
0.000000
  0
TEXT
  8
DIM
 62
     7
 10
0.614400
 20
7.610378
 30
0.000000
 40
0.200000
  1
0.5
 72
     1
 11
0.784400
 21
7.610378
 31
0.000000
  0
LINE
  8
DIM
 62
     7
  6
CONTINUOUS
 10
-2.057855
 20
6.479984
 30
0.000000
 11
-2.057855
 21
7.331254
 31
0.000000
  0
LINE
  8
DIM
 62
     7
  6
CONTINUOUS
 10
-1.557855
 20
6.479984
 30
0.000000
 11
-1.557855
 21
7.331254
 31
0.000000
  0
LINE
  8
DIM
 62
     7
  6
CONTINUOUS
 10
-2.057855
 20
7.327444
 30
0.000000
 11
-1.557855
 21
7.327444
 31
0.000000
  0
LINE
  8
DIM
 62
     7
  6
CONTINUOUS
 10
-2.057855
 20
7.327444
 30
0.000000
 11
-2.032855
 21
7.339944
 31
0.000000
  0
LINE
  8
DIM
 62
     7
  6
CONTINUOUS
 10
-2.057855
 20
7.327444
 30
0.000000
 11
-2.032855
 21
7.314944
 31
0.000000
  0
LINE
  8
DIM
 62
     7
  6
CONTINUOUS
 10
-1.557855
 20
7.327444
 30
0.000000
 11
-1.582855
 21
7.314944
 31
0.000000
  0
LINE
  8
DIM
 62
     7
  6
CONTINUOUS
 10
-1.557855
 20
7.327444
 30
0.000000
 11
-1.582855
 21
7.339944
 31
0.000000
  0
TEXT
  8
DIM
 62
     7
 10
-1.977855
 20
7.408724
 30
0.000000
 40
0.200000
  1
0.5
 72
     1
 11
-1.807855
 21
7.408724
 31
0.000000
  0
LINE
  8
DIM
 62
     7
  6
CONTINUOUS
 10
-6.820435
 20
1.091109
 30
0.000000
 11
-6.820435
 21
1.942379
 31
0.000000
  0
LINE
  8
DIM
 62
     7
  6
CONTINUOUS
 10
-6.320435
 20
1.091109
 30
0.000000
 11
-6.320435
 21
1.942379
 31
0.000000
  0
LINE
  8
DIM
 62
     7
  6
CONTINUOUS
 10
-6.820435
 20
1.938569
 30
0.000000
 11
-6.320435
 21
1.938569
 31
0.000000
  0
LINE
  8
DIM
 62
     7
  6
CONTINUOUS
 10
-6.820435
 20
1.938569
 30
0.000000
 11
-6.795435
 21
1.951069
 31
0.000000
  0
LINE
  8
DIM
 62
     7
  6
CONTINUOUS
 10
-6.820435
 20
1.938569
 30
0.000000
 11
-6.795435
 21
1.926069
 31
0.000000
  0
LINE
  8
DIM
 62
     7
  6
CONTINUOUS
 10
-6.320435
 20
1.938569
 30
0.000000
 11
-6.345435
 21
1.926069
 31
0.000000
  0
LINE
  8
DIM
 62
     7
  6
CONTINUOUS
 10
-6.320435
 20
1.938569
 30
0.000000
 11
-6.345435
 21
1.951069
 31
0.000000
  0
TEXT
  8
DIM
 62
     7
 10
-6.740435
 20
2.019849
 30
0.000000
 40
0.200000
  1
0.5
 72
     1
 11
-6.570435
 21
2.019849
 31
0.000000
  0
LINE
  8
DIM
 62
     7
  6
CONTINUOUS
 10
-5.398868
 20
-4.323518
 30
0.000000
 11
-5.398868
 21
-3.472248
 31
0.000000
  0
LINE
  8
DIM
 62
     7
  6
CONTINUOUS
 10
-4.898868
 20
-4.323518
 30
0.000000
 11
-4.898868
 21
-3.472248
 31
0.000000
  0
LINE
  8
DIM
 62
     7
  6
CONTINUOUS
 10
-5.398868
 20
-3.476058
 30
0.000000
 11
-4.898868
 21
-3.476058
 31
0.000000
  0
LINE
  8
DIM
 62
     7
  6
CONTINUOUS
 10
-5.398868
 20
-3.476058
 30
0.000000
 11
-5.373868
 21
-3.463558
 31
0.000000
  0
LINE
  8
DIM
 62
     7
  6
CONTINUOUS
 10
-5.398868
 20
-3.476058
 30
0.000000
 11
-5.373868
 21
-3.488558
 31
0.000000
  0
LINE
  8
DIM
 62
     7
  6
CONTINUOUS
 10
-4.898868
 20
-3.476058
 30
0.000000
 11
-4.923868
 21
-3.488558
 31
0.000000
  0
LINE
  8
DIM
 62
     7
  6
CONTINUOUS
 10
-4.898868
 20
-3.476058
 30
0.000000
 11
-4.923868
 21
-3.463558
 31
0.000000
  0
TEXT
  8
DIM
 62
     7
 10
-5.318868
 20
-3.394778
 30
0.000000
 40
0.200000
  1
0.5
 72
     1
 11
-5.148868
 21
-3.394778
 31
0.000000
  0
LINE
  8
DIM
 62
     7
  6
CONTINUOUS
 10
-6.667071
 20
-1.832169
 30
0.000000
 11
-6.667071
 21
-1.033899
 31
0.000000
  0
LINE
  8
DIM
 62
     7
  6
CONTINUOUS
 10
-6.273071
 20
-1.832169
 30
0.000000
 11
-6.273071
 21
-1.033899
 31
0.000000
  0
LINE
  8
DIM
 62
     7
  6
CONTINUOUS
 10
-6.795151
 20
-1.037709
 30
0.000000
 11
-6.144991
 21
-1.037709
 31
0.000000
  0
LINE
  8
DIM
 62
     7
  6
CONTINUOUS
 10
-6.667071
 20
-1.037709
 30
0.000000
 11
-6.642071
 21
-1.025209
 31
0.000000
  0
LINE
  8
DIM
 62
     7
  6
CONTINUOUS
 10
-6.667071
 20
-1.037709
 30
0.000000
 11
-6.642071
 21
-1.050209
 31
0.000000
  0
LINE
  8
DIM
 62
     7
  6
CONTINUOUS
 10
-6.273071
 20
-1.037709
 30
0.000000
 11
-6.298071
 21
-1.050209
 31
0.000000
  0
LINE
  8
DIM
 62
     7
  6
CONTINUOUS
 10
-6.273071
 20
-1.037709
 30
0.000000
 11
-6.298071
 21
-1.025209
 31
0.000000
  0
TEXT
  8
DIM
 62
     7
 10
-6.790071
 20
-0.956429
 30
0.000000
 40
0.200000
  1
0.394
 72
     1
 11
-6.470071
 21
-0.956429
 31
0.000000
  0
LINE
  8
DIM
 62
     7
  6
CONTINUOUS
 10
2.802540
 20
-5.899834
 30
0.000000
 11
2.802540
 21
-5.048564
 31
0.000000
  0
LINE
  8
DIM
 62
     7
  6
CONTINUOUS
 10
3.302540
 20
-5.899834
 30
0.000000
 11
3.302540
 21
-5.048564
 31
0.000000
  0
LINE
  8
DIM
 62
     7
  6
CONTINUOUS
 10
2.802540
 20
-5.052374
 30
0.000000
 11
3.302540
 21
-5.052374
 31
0.000000
  0
LINE
  8
DIM
 62
     7
  6
CONTINUOUS
 10
2.802540
 20
-5.052374
 30
0.000000
 11
2.827540
 21
-5.039874
 31
0.000000
  0
LINE
  8
DIM
 62
     7
  6
CONTINUOUS
 10
2.802540
 20
-5.052374
 30
0.000000
 11
2.827540
 21
-5.064874
 31
0.000000
  0
LINE
  8
DIM
 62
     7
  6
CONTINUOUS
 10
3.302540
 20
-5.052374
 30
0.000000
 11
3.277540
 21
-5.064874
 31
0.000000
  0
LINE
  8
DIM
 62
     7
  6
CONTINUOUS
 10
3.302540
 20
-5.052374
 30
0.000000
 11
3.277540
 21
-5.039874
 31
0.000000
  0
TEXT
  8
DIM
 62
     7
 10
2.882540
 20
-4.971094
 30
0.000000
 40
0.200000
  1
0.5
 72
     1
 11
3.052540
 21
-4.971094
 31
0.000000
  0
LINE
  8
DIM
 62
     7
  6
CONTINUOUS
 10
3.803112
 20
-5.363828
 30
0.000000
 11
3.803112
 21
-4.512558
 31
0.000000
  0
LINE
  8
DIM
 62
     7
  6
CONTINUOUS
 10
4.303112
 20
-5.363828
 30
0.000000
 11
4.303112
 21
-4.512558
 31
0.000000
  0
LINE
  8
DIM
 62
     7
  6
CONTINUOUS
 10
3.803112
 20
-4.516368
 30
0.000000
 11
4.303112
 21
-4.516368
 31
0.000000
  0
LINE
  8
DIM
 62
     7
  6
CONTINUOUS
 10
3.803112
 20
-4.516368
 30
0.000000
 11
3.828112
 21
-4.503868
 31
0.000000
  0
LINE
  8
DIM
 62
     7
  6
CONTINUOUS
 10
3.803112
 20
-4.516368
 30
0.000000
 11
3.828112
 21
-4.528868
 31
0.000000
  0
LINE
  8
DIM
 62
     7
  6
CONTINUOUS
 10
4.303112
 20
-4.516368
 30
0.000000
 11
4.278112
 21
-4.528868
 31
0.000000
  0
LINE
  8
DIM
 62
     7
  6
CONTINUOUS
 10
4.303112
 20
-4.516368
 30
0.000000
 11
4.278112
 21
-4.503868
 31
0.000000
  0
TEXT
  8
DIM
 62
     7
 10
3.883112
 20
-4.435088
 30
0.000000
 40
0.200000
  1
0.5
 72
     1
 11
4.053112
 21
-4.435088
 31
0.000000
  0
LINE
  8
DIM
 62
     7
  6
CONTINUOUS
 10
5.655211
 20
-3.215239
 30
0.000000
 11
5.655211
 21
-2.363969
 31
0.000000
  0
LINE
  8
DIM
 62
     7
  6
CONTINUOUS
 10
6.155211
 20
-3.215239
 30
0.000000
 11
6.155211
 21
-2.363969
 31
0.000000
  0
LINE
  8
DIM
 62
     7
  6
CONTINUOUS
 10
5.655211
 20
-2.367779
 30
0.000000
 11
6.155211
 21
-2.367779
 31
0.000000
  0
LINE
  8
DIM
 62
     7
  6
CONTINUOUS
 10
5.655211
 20
-2.367779
 30
0.000000
 11
5.680211
 21
-2.355279
 31
0.000000
  0
LINE
  8
DIM
 62
     7
  6
CONTINUOUS
 10
5.655211
 20
-2.367779
 30
0.000000
 11
5.680211
 21
-2.380279
 31
0.000000
  0
LINE
  8
DIM
 62
     7
  6
CONTINUOUS
 10
6.155211
 20
-2.367779
 30
0.000000
 11
6.130211
 21
-2.380279
 31
0.000000
  0
LINE
  8
DIM
 62
     7
  6
CONTINUOUS
 10
6.155211
 20
-2.367779
 30
0.000000
 11
6.130211
 21
-2.355279
 31
0.000000
  0
TEXT
  8
DIM
 62
     7
 10
5.735212
 20
-2.286499
 30
0.000000
 40
0.200000
  1
0.5
 72
     1
 11
5.905211
 21
-2.286499
 31
0.000000
  0
LINE
  8
DIM
 62
     7
  6
CONTINUOUS
 10
0.000000
 20
-0.002540
 30
0.000000
 11
0.000000
 21
-6.811203
 31
0.000000
  0
LINE
  8
DIM
 62
     7
  6
CONTINUOUS
 10
-7.134744
 20
4.422699
 30
0.000000
 11
-7.134744
 21
-6.811203
 31
0.000000
  0
LINE
  8
DIM
 62
     7
  6
CONTINUOUS
 10
0.000000
 20
-6.807393
 30
0.000000
 11
-7.134744
 21
-6.807393
 31
0.000000
  0
LINE
  8
DIM
 62
     7
  6
CONTINUOUS
 10
0.000000
 20
-6.807393
 30
0.000000
 11
-0.025000
 21
-6.819893
 31
0.000000
  0
LINE
  8
DIM
 62
     7
  6
CONTINUOUS
 10
0.000000
 20
-6.807393
 30
0.000000
 11
-0.025000
 21
-6.794893
 31
0.000000
  0
LINE
  8
DIM
 62
     7
  6
CONTINUOUS
 10
-7.134744
 20
-6.807393
 30
0.000000
 11
-7.109744
 21
-6.794893
 31
0.000000
  0
LINE
  8
DIM
 62
     7
  6
CONTINUOUS
 10
-7.134744
 20
-6.807393
 30
0.000000
 11
-7.109744
 21
-6.819893
 31
0.000000
  0
TEXT
  8
DIM
 62
     7
 10
-6.780042
 20
-6.726113
 30
0.000000
 40
0.200000
  1
7.135
 72
     1
 11
-6.490042
 21
-6.726113
 31
0.000000
  0
LINE
  8
DIM
 62
     7
  6
CONTINUOUS
 10
0.000000
 20
-0.002540
 30
0.000000
 11
0.000000
 21
-6.811203
 31
0.000000
  0
LINE
  8
DIM
 62
     7
  6
CONTINUOUS
 10
7.166221
 20
0.292769
 30
0.000000
 11
7.166221
 21
-6.811203
 31
0.000000
  0
LINE
  8
DIM
 62
     7
  6
CONTINUOUS
 10
0.000000
 20
-6.807393
 30
0.000000
 11
7.166221
 21
-6.807393
 31
0.000000
  0
LINE
  8
DIM
 62
     7
  6
CONTINUOUS
 10
0.000000
 20
-6.807393
 30
0.000000
 11
0.025000
 21
-6.794893
 31
0.000000
  0
LINE
  8
DIM
 62
     7
  6
CONTINUOUS
 10
0.000000
 20
-6.807393
 30
0.000000
 11
0.025000
 21
-6.819893
 31
0.000000
  0
LINE
  8
DIM
 62
     7
  6
CONTINUOUS
 10
7.166221
 20
-6.807393
 30
0.000000
 11
7.141221
 21
-6.819893
 31
0.000000
  0
LINE
  8
DIM
 62
     7
  6
CONTINUOUS
 10
7.166221
 20
-6.807393
 30
0.000000
 11
7.141221
 21
-6.794893
 31
0.000000
  0
TEXT
  8
DIM
 62
     7
 10
6.313353
 20
-6.726113
 30
0.000000
 40
0.200000
  1
7.166
 72
     1
 11
6.603353
 21
-6.726113
 31
0.000000
  0
LINE
  8
DIM
 62
     7
  6
CONTINUOUS
 10
0.002540
 20
0.000000
 30
0.000000
 11
7.720102
 21
0.000000
 31
0.000000
  0
LINE
  8
DIM
 62
     7
  6
CONTINUOUS
 10
0.002540
 20
7.310000
 30
0.000000
 11
7.720102
 21
7.310000
 31
0.000000
  0
LINE
  8
DIM
 62
     7
  6
CONTINUOUS
 10
7.716292
 20
0.000000
 30
0.000000
 11
7.716292
 21
7.310000
 31
0.000000
  0
LINE
  8
DIM
 62
     7
  6
CONTINUOUS
 10
7.716292
 20
0.000000
 30
0.000000
 11
7.703792
 21
0.025000
 31
0.000000
  0
LINE
  8
DIM
 62
     7
  6
CONTINUOUS
 10
7.716292
 20
0.000000
 30
0.000000
 11
7.728792
 21
0.025000
 31
0.000000
  0
LINE
  8
DIM
 62
     7
  6
CONTINUOUS
 10
7.716292
 20
7.310000
 30
0.000000
 11
7.728792
 21
7.285000
 31
0.000000
  0
LINE
  8
DIM
 62
     7
  6
CONTINUOUS
 10
7.716292
 20
7.310000
 30
0.000000
 11
7.703792
 21
7.285000
 31
0.000000
  0
TEXT
  8
DIM
 62
     7
 10
7.635011
 20
5.406801
 30
0.000000
 40
0.200000
  1
7.310
 50
90.000003
 72
     1
 11
7.635011
 21
5.696800
 31
0.000000
  0
LINE
  8
DIM
 62
     7
  6
CONTINUOUS
 10
0.002540
 20
0.000000
 30
0.000000
 11
7.720102
 21
0.000000
 31
0.000000
  0
LINE
  8
DIM
 62
     7
  6
CONTINUOUS
 10
1.432771
 20
-6.529725
 30
-0.000000
 11
7.720102
 21
-6.529725
 31
-0.000000
  0
LINE
  8
DIM
 62
     7
  6
CONTINUOUS
 10
7.716292
 20
0.000000
 30
0.000000
 11
7.716292
 21
-6.529725
 31
-0.000000
  0
LINE
  8
DIM
 62
     7
  6
CONTINUOUS
 10
7.716292
 20
0.000000
 30
0.000000
 11
7.728792
 21
-0.025000
 31
0.000000
  0
LINE
  8
DIM
 62
     7
  6
CONTINUOUS
 10
7.716292
 20
0.000000
 30
0.000000
 11
7.703792
 21
-0.025000
 31
0.000000
  0
LINE
  8
DIM
 62
     7
  6
CONTINUOUS
 10
7.716292
 20
-6.529725
 30
-0.000000
 11
7.703792
 21
-6.504725
 31
-0.000000
  0
LINE
  8
DIM
 62
     7
  6
CONTINUOUS
 10
7.716292
 20
-6.529725
 30
-0.000000
 11
7.728792
 21
-6.504725
 31
-0.000000
  0
TEXT
  8
DIM
 62
     7
 10
7.635011
 20
-5.218850
 30
0.000000
 40
0.200000
  1
6.530
 50
90.000003
 72
     1
 11
7.635011
 21
-4.908850
 31
0.000000
  0
LINE
  8
DIM
 62
     7
  6
CONTINUOUS
 10
6.467314
 20
0.323976
 30
0.000000
 11
6.467314
 21
1.175246
 31
0.000000
  0
LINE
  8
DIM
 62
     7
  6
CONTINUOUS
 10
6.967314
 20
0.323976
 30
0.000000
 11
6.967314
 21
1.175246
 31
0.000000
  0
LINE
  8
DIM
 62
     7
  6
CONTINUOUS
 10
6.467314
 20
1.171436
 30
0.000000
 11
6.967314
 21
1.171436
 31
0.000000
  0
LINE
  8
DIM
 62
     7
  6
CONTINUOUS
 10
6.467314
 20
1.171436
 30
0.000000
 11
6.492314
 21
1.183936
 31
0.000000
  0
LINE
  8
DIM
 62
     7
  6
CONTINUOUS
 10
6.467314
 20
1.171436
 30
0.000000
 11
6.492314
 21
1.158936
 31
0.000000
  0
LINE
  8
DIM
 62
     7
  6
CONTINUOUS
 10
6.967314
 20
1.171436
 30
0.000000
 11
6.942314
 21
1.158936
 31
0.000000
  0
LINE
  8
DIM
 62
     7
  6
CONTINUOUS
 10
6.967314
 20
1.171436
 30
0.000000
 11
6.942314
 21
1.183936
 31
0.000000
  0
TEXT
  8
DIM
 62
     7
 10
6.547314
 20
1.252716
 30
0.000000
 40
0.200000
  1
0.5
 72
     1
 11
6.717314
 21
1.252716
 31
0.000000
  0
ENDSEC
  0
EOF
