  0
SECTION
  2
HEADER
  9
$ACADVER
  1
AC1006
  0
ENDSEC
  0
SECTION
  2
TABLES
  0
TABLE
  2
LTYPE
 70
    25
  0
LTYPE
  2
CONTINUOUS
 70
    64
  3
Solid line
 72
    64
 73
     0
 40
0.000000
  0
LTYPE
  2
DASHDOT
 70
    64
  3
__ . __ . __ . __ . __ . __ . __ . __ . __ . __
 72
    65
 73
     4
 40
1.000000
 49
0.500000
 49
-0.250000
 49
0.000000
 49
-0.250000
  0
LTYPE
  2
DASHED
 70
    64
  3
__ __ __ __ __ __ __ __ __ __ __ __ __ __ __ __
 72
    65
 73
     2
 40
0.750000
 49
0.500000
 49
-0.250000
  0
LTYPE
  2
DIVIDE
 70
    64
  3
____ . . ____ . . ____ . . ____ . . ____ . . __
 72
    65
 73
     6
 40
1.250000
 49
0.500000
 49
-0.250000
 49
0.000000
 49
-0.250000
 49
0.000000
 49
-0.250000
  0
LTYPE
  2
DOT
 70
    64
  3
. . . . . . . . . . . . . . . . . . . . . . . . 
 72
    65
 73
     2
 40
0.250000
 49
0.000000
 49
-0.250000
  0
ENDTAB
  0
ENDSEC
  0
SECTION
  2
BLOCKS
  0
BLOCK
  8
0
  2
Object_0
 70
    64
 10
0.000000
 20
0.000000
 30
0.000000
  0
ENDBLK
  0
ENDSEC
  0
SECTION
  2
ENTITIES
  0
LINE
  8
DIM
 62
     7
  6
CONTINUOUS
 10
0.002540
 20
0.000000
 30
0.000000
 11
7.551027
 21
0.000000
 31
0.000000
  0
LINE
  8
DIM
 62
     7
  6
CONTINUOUS
 10
3.005553
 20
7.944106
 30
0.000000
 11
7.551027
 21
7.944106
 31
0.000000
  0
LINE
  8
DIM
 62
     7
  6
CONTINUOUS
 10
7.547217
 20
0.000000
 30
0.000000
 11
7.547217
 21
7.944106
 31
0.000000
  0
LINE
  8
DIM
 62
     7
  6
CONTINUOUS
 10
7.547217
 20
0.000000
 30
0.000000
 11
7.534717
 21
0.025000
 31
0.000000
  0
LINE
  8
DIM
 62
     7
  6
CONTINUOUS
 10
7.547217
 20
0.000000
 30
0.000000
 11
7.559717
 21
0.025000
 31
0.000000
  0
LINE
  8
DIM
 62
     7
  6
CONTINUOUS
 10
7.547217
 20
7.944106
 30
0.000000
 11
7.559717
 21
7.919106
 31
0.000000
  0
LINE
  8
DIM
 62
     7
  6
CONTINUOUS
 10
7.547217
 20
7.944106
 30
0.000000
 11
7.534717
 21
7.919106
 31
0.000000
  0
TEXT
  8
DIM
 62
     7
 10
7.465937
 20
5.456207
 30
0.000000
 40
0.200000
  1
7.944
 50
90.000003
 72
     1
 11
7.465937
 21
5.786207
 31
0.000000
  0
CIRCLE
  8
Default
 62
     9
  6
CONTINUOUS
 10
0.000000
 20
0.000000
 30
-0.125000
 40
4.251000
  0
CIRCLE
  8
Default
 62
     9
  6
CONTINUOUS
 10
0.000000
 20
3.625000
 30
0.000000
 40
0.265625
  0
CIRCLE
  8
Default
 62
     9
  6
CONTINUOUS
 10
3.625000
 20
0.000000
 30
0.000000
 40
0.265625
  0
CIRCLE
  8
Default
 62
     9
  6
CONTINUOUS
 10
-3.625000
 20
0.000000
 30
0.000000
 40
0.265625
  0
CIRCLE
  8
Default
 62
     9
  6
CONTINUOUS
 10
-0.000000
 20
-3.625000
 30
0.000000
 40
0.265625
  0
POINT
  8
Default
 62
     7
 10
6.321081
 20
0.155780
 30
0.000000
  0
LINE
  8
Default
 62
     6
  6
CONTINUOUS
 10
0.000000
 20
0.000000
 30
0.000000
 11
0.000000
 21
0.078000
 31
0.000000
  0
LINE
  8
DIM
 62
     7
  6
CONTINUOUS
 10
2.753013
 20
7.509146
 30
0.000000
 11
2.753013
 21
8.360416
 31
0.000000
  0
LINE
  8
DIM
 62
     7
  6
CONTINUOUS
 10
3.253013
 20
7.509146
 30
0.000000
 11
3.253013
 21
8.360416
 31
0.000000
  0
LINE
  8
DIM
 62
     7
  6
CONTINUOUS
 10
2.687933
 20
8.356606
 30
0.000000
 11
3.318093
 21
8.356606
 31
0.000000
  0
LINE
  8
DIM
 62
     7
  6
CONTINUOUS
 10
2.753013
 20
8.356606
 30
0.000000
 11
2.778013
 21
8.369106
 31
0.000000
  0
LINE
  8
DIM
 62
     7
  6
CONTINUOUS
 10
2.753013
 20
8.356606
 30
0.000000
 11
2.778013
 21
8.344106
 31
0.000000
  0
LINE
  8
DIM
 62
     7
  6
CONTINUOUS
 10
3.253013
 20
8.356606
 30
0.000000
 11
3.228013
 21
8.344106
 31
0.000000
  0
LINE
  8
DIM
 62
     7
  6
CONTINUOUS
 10
3.253013
 20
8.356606
 30
0.000000
 11
3.228013
 21
8.369106
 31
0.000000
  0
TEXT
  8
DIM
 62
     7
 10
2.693013
 20
8.437886
 30
0.000000
 40
0.200000
  1
0.500
 72
     1
 11
3.003013
 21
8.437886
 31
0.000000
  0
LINE
  8
DIM
 62
     7
  6
CONTINUOUS
 10
-3.444883
 20
7.396845
 30
0.000000
 11
-3.444883
 21
8.248115
 31
0.000000
  0
LINE
  8
DIM
 62
     7
  6
CONTINUOUS
 10
-2.944883
 20
7.396845
 30
0.000000
 11
-2.944883
 21
8.248115
 31
0.000000
  0
LINE
  8
DIM
 62
     7
  6
CONTINUOUS
 10
-3.509963
 20
8.244305
 30
0.000000
 11
-2.879803
 21
8.244305
 31
0.000000
  0
LINE
  8
DIM
 62
     7
  6
CONTINUOUS
 10
-3.444883
 20
8.244305
 30
0.000000
 11
-3.419883
 21
8.256805
 31
0.000000
  0
LINE
  8
DIM
 62
     7
  6
CONTINUOUS
 10
-3.444883
 20
8.244305
 30
0.000000
 11
-3.419883
 21
8.231805
 31
0.000000
  0
LINE
  8
DIM
 62
     7
  6
CONTINUOUS
 10
-2.944883
 20
8.244305
 30
0.000000
 11
-2.969883
 21
8.231805
 31
0.000000
  0
LINE
  8
DIM
 62
     7
  6
CONTINUOUS
 10
-2.944883
 20
8.244305
 30
0.000000
 11
-2.969883
 21
8.256805
 31
0.000000
  0
TEXT
  8
DIM
 62
     7
 10
-3.504883
 20
8.325585
 30
0.000000
 40
0.200000
  1
0.500
 72
     1
 11
-3.194883
 21
8.325585
 31
0.000000
  0
LINE
  8
DIM
 62
     7
  6
CONTINUOUS
 10
-6.714000
 20
0.002540
 30
0.000000
 11
-6.714000
 21
0.978810
 31
0.000000
  0
LINE
  8
DIM
 62
     7
  6
CONTINUOUS
 10
-5.964000
 20
0.002540
 30
0.000000
 11
-5.964000
 21
0.978810
 31
0.000000
  0
LINE
  8
DIM
 62
     7
  6
CONTINUOUS
 10
-6.714000
 20
0.975000
 30
0.000000
 11
-5.964000
 21
0.975000
 31
0.000000
  0
LINE
  8
DIM
 62
     7
  6
CONTINUOUS
 10
-6.714000
 20
0.975000
 30
0.000000
 11
-6.689000
 21
0.987500
 31
0.000000
  0
LINE
  8
DIM
 62
     7
  6
CONTINUOUS
 10
-6.714000
 20
0.975000
 30
0.000000
 11
-6.689000
 21
0.962500
 31
0.000000
  0
LINE
  8
DIM
 62
     7
  6
CONTINUOUS
 10
-5.964000
 20
0.975000
 30
0.000000
 11
-5.989000
 21
0.962500
 31
0.000000
  0
LINE
  8
DIM
 62
     7
  6
CONTINUOUS
 10
-5.964000
 20
0.975000
 30
0.000000
 11
-5.989000
 21
0.987500
 31
0.000000
  0
TEXT
  8
DIM
 62
     7
 10
-6.649000
 20
1.056280
 30
0.000000
 40
0.200000
  1
0.750
 72
     1
 11
-6.339000
 21
1.056280
 31
0.000000
  0
POINT
  8
Default
 62
     7
 10
-6.339000
 20
0.000000
 30
0.000000
  0
CIRCLE
  8
Default
 62
     6
  6
CONTINUOUS
 10
3.003013
 20
7.506606
 30
0.000000
 40
0.250000
  0
CIRCLE
  8
Default
 62
     6
  6
CONTINUOUS
 10
-3.194883
 20
7.394305
 30
0.000000
 40
0.250000
  0
LINE
  8
Default
 62
     6
  6
CONTINUOUS
 10
6.859649
 20
-0.007543
 30
-0.000000
 11
5.907106
 21
-3.553294
 31
0.000000
  0
POINT
  8
Default
 62
     7
 10
3.003013
 20
7.506606
 30
0.000000
  0
POINT
  8
Default
 62
     7
 10
-3.194883
 20
7.394305
 30
0.000000
  0
POINT
  8
Default
 62
     7
 10
-4.690818
 20
-4.160423
 30
0.000000
  0
POINT
  8
Default
 62
     7
 10
-2.529858
 20
-5.632978
 30
0.000000
  0
CIRCLE
  8
Default
 62
     6
  6
CONTINUOUS
 10
-6.339000
 20
0.000000
 30
0.000000
 40
0.375000
  0
CIRCLE
  8
Default
 62
     6
  6
CONTINUOUS
 10
-4.690818
 20
-4.160423
 30
0.000000
 40
0.250000
  0
CIRCLE
  8
Default
 62
     6
  6
CONTINUOUS
 10
-2.529858
 20
-5.632978
 30
0.000000
 40
0.250000
  0
CIRCLE
  8
Default
 62
     6
  6
CONTINUOUS
 10
2.440505
 20
-5.549580
 30
0.000000
 40
0.250000
  0
ARC
  8
Default
 62
     6
  6
CONTINUOUS
 10
5.303507
 20
-3.391141
 30
0.000000
 40
0.625000
 50
307.012922
 51
344.962884
  0
LINE
  8
Default
 62
     6
  6
CONTINUOUS
 10
5.679754
 20
-3.890203
 30
0.000000
 11
2.816752
 21
-6.048643
 31
0.000000
  0
ARC
  8
Default
 62
     6
  6
CONTINUOUS
 10
2.440505
 20
-5.549580
 30
0.000000
 40
0.625000
 50
270.961275
 51
307.012922
  0
LINE
  8
Default
 62
     6
  6
CONTINUOUS
 10
2.450990
 20
-6.174492
 30
0.000000
 11
-2.519373
 21
-6.257890
 31
0.000000
  0
ARC
  8
Default
 62
     6
  6
CONTINUOUS
 10
-2.529858
 20
-5.632978
 30
0.000000
 40
0.625000
 50
239.117593
 51
270.961275
  0
LINE
  8
Default
 62
     6
  6
CONTINUOUS
 10
-2.850657
 20
-6.169367
 30
0.000000
 11
-5.948168
 21
-4.316837
 31
0.000000
  0
POINT
  8
Default
 62
     7
 10
-6.170121
 20
-4.184093
 30
0.000000
  0
POINT
  8
Default
 62
     7
 10
-7.565920
 20
4.264513
 30
0.000000
  0
ARC
  8
Default
 62
     6
  6
CONTINUOUS
 10
-5.627369
 20
-3.780448
 30
0.000000
 40
0.625000
 50
194.158940
 51
239.117593
  0
POINT
  8
Default
 62
     7
 10
-6.879438
 20
-1.372425
 30
0.000000
  0
LINE
  8
Default
 62
     6
  6
CONTINUOUS
 10
-6.233382
 20
-3.933331
 30
0.000000
 11
-6.337796
 21
-3.519445
 31
0.000000
  0
POINT
  8
Default
 62
     7
 10
0.000000
 20
0.000000
 30
0.000000
  0
POINT
  8
Default
 62
     7
 10
-6.866541
 20
-2.903041
 30
0.000000
  0
ARC
  8
Default
 62
     6
  6
CONTINUOUS
 10
-6.216593
 20
-3.488868
 30
0.000000
 40
0.125000
 50
137.970215
 51
194.158940
  0
ARC
  8
Default
 62
     6
  6
CONTINUOUS
 10
-6.866541
 20
-2.903041
 30
0.000000
 40
0.750000
 50
317.970215
 51
430.347665
  0
ARC
  8
Default
 62
     6
  6
CONTINUOUS
 10
-6.572268
 20
-2.079009
 30
0.000000
 40
0.125000
 50
194.158940
 51
250.347665
  0
POINT
  8
Default
 62
     7
 10
-3.822795
 20
5.441391
 30
0.000000
  0
LINE
  8
Default
 62
     6
  6
CONTINUOUS
 10
-6.693470
 20
-2.109585
 30
0.000000
 11
-6.879438
 21
-1.372425
 31
0.000000
  0
POINT
  8
Default
 62
     7
 10
-3.822795
 20
-5.441391
 30
0.000000
  0
POINT
  8
Default
 62
     7
 10
-6.982095
 20
5.003844
 30
0.000000
  0
LINE
  8
Default
 62
     6
  6
CONTINUOUS
 10
-6.879438
 20
-1.372425
 30
0.000000
 11
-7.540735
 21
4.057704
 31
0.000000
  0
POINT
  8
Default
 62
     7
 10
2.440505
 20
-5.549580
 30
0.000000
  0
POINT
  8
Default
 62
     7
 10
5.303507
 20
-3.391141
 30
0.000000
  0
CIRCLE
  8
Default
 62
     6
  6
CONTINUOUS
 10
5.303507
 20
-3.391141
 30
0.000000
 40
0.250000
  0
CIRCLE
  8
Default
 62
     6
  6
CONTINUOUS
 10
6.321081
 20
0.155780
 30
0.000000
 40
0.375000
  0
ARC
  8
Default
 62
     6
  6
CONTINUOUS
 10
-7.044402
 20
4.118149
 30
0.000000
 40
0.500000
 50
141.702981
 51
186.943447
  0
LINE
  8
Default
 62
     6
  6
CONTINUOUS
 10
-7.436806
 20
4.428018
 30
0.000000
 11
-7.106718
 21
4.846027
 31
0.000000
  0
ARC
  8
Default
 62
     6
  6
CONTINUOUS
 10
-6.714313
 20
4.536158
 30
0.000000
 40
0.500000
 50
97.885021
 51
141.702981
  0
LINE
  8
Default
 62
     6
  6
CONTINUOUS
 10
-6.782906
 20
5.031431
 30
0.000000
 11
-4.605153
 21
5.333038
 31
0.000000
  0
ARC
  8
Default
 62
     6
  6
CONTINUOUS
 10
-4.742339
 20
6.323584
 30
0.000000
 40
1.000000
 50
277.885021
 51
354.490188
  0
LINE
  8
Default
 62
     6
  6
CONTINUOUS
 10
-3.746959
 20
6.227568
 30
0.000000
 11
-3.630361
 21
7.436312
 31
0.000000
  0
ARC
  8
Default
 62
     6
  6
CONTINUOUS
 10
-3.194883
 20
7.394305
 30
0.000000
 40
0.437500
 50
91.038040
 51
174.490188
  0
LINE
  8
Default
 62
     6
  6
CONTINUOUS
 10
-3.202808
 20
7.831733
 30
0.000000
 11
2.995087
 21
7.944034
 31
0.000000
  0
ARC
  8
Default
 62
     6
  6
CONTINUOUS
 10
3.003013
 20
7.506606
 30
-0.000000
 40
0.437500
 50
5.835759
 51
91.038040
  0
ARC
  8
Default
 62
     6
  6
CONTINUOUS
 10
8.412333
 20
8.059476
 30
-0.000000
 40
5.000000
 50
185.835759
 51
223.772804
  0
ARC
  8
Default
 62
     6
  6
CONTINUOUS
 10
0.000000
 20
-0.000000
 30
-0.000000
 40
6.650000
 50
17.098334
 51
43.772804
  0
LINE
  8
Default
 62
     6
  6
CONTINUOUS
 10
6.356080
 20
1.955183
 30
-0.000000
 11
6.853426
 21
0.338367
 31
-0.000000
  0
ARC
  8
Default
 62
     6
  6
CONTINUOUS
 10
6.256050
 20
0.154610
 30
-0.000000
 40
0.625000
 50
344.962884
 51
377.098334
  0
LINE
  8
DIM
 62
     7
  6
CONTINUOUS
 10
-0.008128
 20
0.000000
 30
0.000000
 11
-0.467992
 21
0.000000
 31
0.000000
  0
LINE
  8
DIM
 62
     7
  6
CONTINUOUS
 10
-0.008128
 20
0.078000
 30
0.000000
 11
-0.467992
 21
0.078000
 31
0.000000
  0
LINE
  8
DIM
 62
     7
  6
CONTINUOUS
 10
-0.455800
 20
0.000000
 30
0.000000
 11
-0.455800
 21
1.973415
 31
0.000000
  0
LINE
  8
DIM
 62
     7
  6
CONTINUOUS
 10
-0.455800
 20
0.000000
 30
0.000000
 11
-0.467800
 21
0.080000
 31
0.000000
  0
LINE
  8
DIM
 62
     7
  6
CONTINUOUS
 10
-0.455800
 20
0.000000
 30
0.000000
 11
-0.443800
 21
0.080000
 31
0.000000
  0
LINE
  8
DIM
 62
     7
  6
CONTINUOUS
 10
-0.455800
 20
0.078000
 30
0.000000
 11
-0.443800
 21
-0.002000
 31
0.000000
  0
LINE
  8
DIM
 62
     7
  6
CONTINUOUS
 10
-0.455800
 20
0.078000
 30
0.000000
 11
-0.467800
 21
-0.002000
 31
0.000000
  0
TEXT
  8
DIM
 62
     7
 10
-1.037050
 20
2.102171
 30
0.000000
 40
0.375000
  1
0.078
 50
0.000001
 72
     1
 11
-0.455800
 21
2.102171
 31
0.000000
  0
LINE
  8
DIM
 62
     7
  6
CONTINUOUS
 10
-6.339100
 20
0.008127
 30
0.000000
 11
-6.352992
 21
1.137106
 31
0.000000
  0
LINE
  8
DIM
 62
     7
  6
CONTINUOUS
 10
-0.000100
 20
0.086127
 30
0.000000
 11
-0.013992
 21
1.215106
 31
0.000000
  0
LINE
  8
DIM
 62
     7
  6
CONTINUOUS
 10
-6.352842
 20
1.124915
 30
0.000000
 11
-0.013842
 21
1.202915
 31
0.000000
  0
LINE
  8
DIM
 62
     7
  6
CONTINUOUS
 10
-6.352842
 20
1.124915
 30
0.000000
 11
-6.272995
 21
1.137898
 31
0.000000
  0
LINE
  8
DIM
 62
     7
  6
CONTINUOUS
 10
-6.352842
 20
1.124915
 30
0.000000
 11
-6.272700
 21
1.113900
 31
0.000000
  0
LINE
  8
DIM
 62
     7
  6
CONTINUOUS
 10
-0.013842
 20
1.202915
 30
0.000000
 11
-0.093688
 21
1.189931
 31
0.000000
  0
LINE
  8
DIM
 62
     7
  6
CONTINUOUS
 10
-0.013842
 20
1.202915
 30
0.000000
 11
-0.093983
 21
1.213930
 31
0.000000
  0
TEXT
  8
DIM
 62
     7
 10
-3.766423
 20
1.309152
 30
0.000000
 40
0.375000
  1
6.339
 50
0.704976
 72
     1
 11
-3.185217
 21
1.316303
 31
0.000000
  0
LINE
  8
DIM
 62
     7
  6
CONTINUOUS
 10
-6.339000
 20
-0.008128
 30
0.000000
 11
-6.339000
 21
-1.098124
 31
0.000000
  0
LINE
  8
DIM
 62
     7
  6
CONTINUOUS
 10
0.000000
 20
-0.008128
 30
0.000000
 11
0.000000
 21
-1.098124
 31
0.000000
  0
LINE
  8
DIM
 62
     7
  6
CONTINUOUS
 10
-6.339000
 20
-1.085932
 30
0.000000
 11
0.000000
 21
-1.085932
 31
0.000000
  0
LINE
  8
DIM
 62
     7
  6
CONTINUOUS
 10
-6.339000
 20
-1.085932
 30
0.000000
 11
-6.259000
 21
-1.073932
 31
0.000000
  0
LINE
  8
DIM
 62
     7
  6
CONTINUOUS
 10
-6.339000
 20
-1.085932
 30
0.000000
 11
-6.259000
 21
-1.097932
 31
0.000000
  0
LINE
  8
DIM
 62
     7
  6
CONTINUOUS
 10
0.000000
 20
-1.085932
 30
0.000000
 11
-0.080000
 21
-1.097932
 31
0.000000
  0
LINE
  8
DIM
 62
     7
  6
CONTINUOUS
 10
0.000000
 20
-1.085932
 30
0.000000
 11
-0.080000
 21
-1.073932
 31
0.000000
  0
TEXT
  8
DIM
 62
     7
 10
-2.803986
 20
-0.933532
 30
0.000000
 40
0.375000
  1
6.339
 72
     1
 11
-2.222736
 21
-0.933532
 31
0.000000
  0
LINE
  8
DIM
 62
     7
  6
CONTINUOUS
 10
-0.000100
 20
0.086127
 30
0.000000
 11
-0.013992
 21
1.215106
 31
0.000000
  0
LINE
  8
DIM
 62
     7
  6
CONTINUOUS
 10
6.320981
 20
0.163907
 30
0.000000
 11
6.307089
 21
1.292885
 31
0.000000
  0
LINE
  8
DIM
 62
     7
  6
CONTINUOUS
 10
-0.013842
 20
1.202915
 30
0.000000
 11
6.307239
 21
1.280694
 31
0.000000
  0
LINE
  8
DIM
 62
     7
  6
CONTINUOUS
 10
-0.013842
 20
1.202915
 30
0.000000
 11
0.066004
 21
1.215898
 31
0.000000
  0
LINE
  8
DIM
 62
     7
  6
CONTINUOUS
 10
-0.013842
 20
1.202915
 30
0.000000
 11
0.066300
 21
1.191900
 31
0.000000
  0
LINE
  8
DIM
 62
     7
  6
CONTINUOUS
 10
6.307239
 20
1.280694
 30
0.000000
 11
6.227393
 21
1.267711
 31
0.000000
  0
LINE
  8
DIM
 62
     7
  6
CONTINUOUS
 10
6.307239
 20
1.280694
 30
0.000000
 11
6.227097
 21
1.291709
 31
0.000000
  0
TEXT
  8
DIM
 62
     7
 10
2.563617
 20
1.387041
 30
0.000000
 40
0.375000
  1
6.322
 50
0.704976
 72
     1
 11
3.144823
 21
1.394193
 31
0.000000
  0
INSERT
  8
Default
 62
     7
  2
Object_0
 10
-10.160000
 20
-10.160000
 30
0.000000
  0
CIRCLE
  8
Default
 62
     9
  6
CONTINUOUS
 10
0.000000
 20
0.000000
 30
-0.625000
 40
3.000000
  0
LINE
  8
DIM
 62
     7
  6
CONTINUOUS
 10
6.321281
 20
0.147654
 30
0.000000
 11
6.349098
 21
-0.981067
 31
0.000000
  0
LINE
  8
DIM
 62
     7
  6
CONTINUOUS
 10
0.000200
 20
-0.008126
 30
0.000000
 11
0.028017
 21
-1.136847
 31
0.000000
  0
LINE
  8
DIM
 62
     7
  6
CONTINUOUS
 10
6.348797
 20
-0.968879
 30
0.000000
 11
0.027717
 21
-1.124659
 31
0.000000
  0
LINE
  8
DIM
 62
     7
  6
CONTINUOUS
 10
6.348797
 20
-0.968879
 30
0.000000
 11
6.269117
 21
-0.982846
 31
0.000000
  0
LINE
  8
DIM
 62
     7
  6
CONTINUOUS
 10
6.348797
 20
-0.968879
 30
0.000000
 11
6.268526
 21
-0.958854
 31
0.000000
  0
LINE
  8
DIM
 62
     7
  6
CONTINUOUS
 10
0.027717
 20
-1.124659
 30
0.000000
 11
0.107397
 21
-1.110691
 31
0.000000
  0
LINE
  8
DIM
 62
     7
  6
CONTINUOUS
 10
0.027717
 20
-1.124659
 30
0.000000
 11
0.107988
 21
-1.134684
 31
0.000000
  0
TEXT
  8
DIM
 62
     7
 10
2.603429
 20
-0.908735
 30
0.000000
 40
0.375000
  1
6.323
 50
1.411737
 72
     1
 11
3.184502
 21
-0.894415
 31
0.000000
  0
LINE
  8
CAM
 62
     7
  6
CONTINUOUS
 10
7.932950
 20
-1.331335
 30
-0.000000
 11
8.898708
 21
-1.590780
 31
-0.000000
  0
ARC
  8
CAM
 62
     7
  6
CONTINUOUS
 10
8.192395
 20
-0.365577
 30
-0.000000
 40
1.000000
 50
164.962884
 51
254.962884
  0
ARC
  8
CAM
 62
     7
  6
CONTINUOUS
 10
6.256050
 20
0.154610
 30
-0.000000
 40
1.005000
 50
344.962884
 51
377.098334
  0
ARC
  8
CAM
 62
     7
  6
CONTINUOUS
 10
6.256050
 20
0.154610
 30
-0.000000
 40
1.000000
 50
344.962884
 51
377.098334
  0
LINE
  8
CAM
 62
     7
  6
CONTINUOUS
 10
7.221808
 20
-0.104835
 30
-0.000000
 11
6.269265
 21
-3.650586
 31
0.000000
  0
ARC
  8
CAM
 62
     7
  6
CONTINUOUS
 10
5.303507
 20
-3.391141
 30
0.000000
 40
1.000000
 50
307.012922
 51
344.962884
  0
LINE
  8
CAM
 62
     7
  6
CONTINUOUS
 10
5.905502
 20
-4.189641
 30
0.000000
 11
3.042500
 21
-6.348080
 31
0.000000
  0
ARC
  8
CAM
 62
     7
  6
CONTINUOUS
 10
2.440505
 20
-5.549580
 30
0.000000
 40
1.000000
 50
270.961275
 51
307.012922
  0
LINE
  8
CAM
 62
     7
  6
CONTINUOUS
 10
2.457282
 20
-6.549440
 30
0.000000
 11
-2.513082
 21
-6.632837
 31
0.000000
  0
ARC
  8
CAM
 62
     7
  6
CONTINUOUS
 10
-2.529858
 20
-5.632978
 30
0.000000
 40
1.000000
 50
239.117593
 51
270.961275
  0
LINE
  8
CAM
 62
     7
  6
CONTINUOUS
 10
-3.043136
 20
-6.491201
 30
0.000000
 11
-6.140647
 21
-4.638670
 31
0.000000
  0
ARC
  8
CAM
 62
     7
  6
CONTINUOUS
 10
-5.627369
 20
-3.780448
 30
0.000000
 40
1.000000
 50
194.158940
 51
239.117593
  0
LINE
  8
CAM
 62
     7
  6
CONTINUOUS
 10
-6.596990
 20
-4.025060
 30
0.000000
 11
-6.701404
 21
-3.611174
 31
0.000000
  0
ARC
  8
CAM
 62
     7
  6
CONTINUOUS
 10
-6.216593
 20
-3.488868
 30
0.000000
 40
0.500000
 50
137.970215
 51
194.158940
  0
ARC
  8
CAM
 62
     7
  6
CONTINUOUS
 10
-6.866541
 20
-2.903041
 30
0.000000
 40
0.375000
 50
317.970215
 51
430.347665
  0
ARC
  8
CAM
 62
     7
  6
CONTINUOUS
 10
-6.572268
 20
-2.079009
 30
0.000000
 40
0.500000
 50
194.158940
 51
250.347665
  0
LINE
  8
CAM
 62
     7
  6
CONTINUOUS
 10
-7.057078
 20
-2.201315
 30
0.000000
 11
-7.243046
 21
-1.464155
 31
0.000000
  0
ARC
  8
CAM
 62
     7
  6
CONTINUOUS
 10
-6.879438
 20
-1.372425
 30
0.000000
 40
0.375000
 50
186.943447
 51
194.158940
  0
LINE
  8
CAM
 62
     7
  6
CONTINUOUS
 10
-7.251688
 20
-1.417759
 30
0.000000
 11
-7.912984
 21
4.012370
 31
0.000000
  0
ARC
  8
CAM
 62
     7
  6
CONTINUOUS
 10
-7.044402
 20
4.118149
 30
0.000000
 40
0.875000
 50
141.702981
 51
186.943447
  0
LINE
  8
CAM
 62
     7
  6
CONTINUOUS
 10
-7.731109
 20
4.660420
 30
-0.000000
 11
-7.401021
 21
5.078429
 31
-0.000000
  0
ARC
  8
CAM
 62
     7
  6
CONTINUOUS
 10
-6.714313
 20
4.536158
 30
0.000000
 40
0.875000
 50
97.885021
 51
141.702981
  0
LINE
  8
CAM
 62
     7
  6
CONTINUOUS
 10
-6.834351
 20
5.402885
 30
-0.000000
 11
-4.656598
 21
5.704493
 31
-0.000000
  0
ARC
  8
CAM
 62
     7
  6
CONTINUOUS
 10
-4.742339
 20
6.323584
 30
0.000000
 40
0.625000
 50
277.885021
 51
354.490188
  0
LINE
  8
CAM
 62
     7
  6
CONTINUOUS
 10
-4.120226
 20
6.263574
 30
-0.000000
 11
-4.003629
 21
7.472318
 31
-0.000000
  0
ARC
  8
CAM
 62
     7
  6
CONTINUOUS
 10
-3.194883
 20
7.394305
 30
0.000000
 40
0.812500
 50
91.038040
 51
174.490188
  0
LINE
  8
CAM
 62
     7
  6
CONTINUOUS
 10
-3.209602
 20
8.206672
 30
-0.000000
 11
2.988294
 21
8.318973
 31
-0.000000
  0
ARC
  8
CAM
 62
     7
  6
CONTINUOUS
 10
3.003013
 20
7.506606
 30
-0.000000
 40
0.812500
 50
5.835759
 51
91.038040
  0
ARC
  8
CAM
 62
     7
  6
CONTINUOUS
 10
8.412333
 20
8.059476
 30
-0.000000
 40
4.625000
 50
185.835759
 51
223.772804
  0
ARC
  8
CAM
 62
     7
  6
CONTINUOUS
 10
0.000000
 20
-0.000000
 30
-0.000000
 40
7.025000
 50
17.098334
 51
43.772804
  0
LINE
  8
CAM
 62
     7
  6
CONTINUOUS
 10
6.714506
 20
2.065438
 30
-0.000000
 11
7.211852
 21
0.448622
 31
-0.000000
  0
LINE
  8
CAM
 62
     7
  6
CONTINUOUS
 10
6.719285
 20
2.066908
 30
-0.000000
 11
7.216631
 21
0.450092
 31
-0.000000
  0
ARC
  8
CAM
 62
     7
  6
CONTINUOUS
 10
0.000000
 20
-0.000000
 30
-0.000000
 40
7.030000
 50
17.098334
 51
43.772804
  0
ARC
  8
CAM
 62
     7
  6
CONTINUOUS
 10
8.412333
 20
8.059476
 30
-0.000000
 40
4.620000
 50
185.835759
 51
223.772804
  0
ARC
  8
CAM
 62
     7
  6
CONTINUOUS
 10
3.003013
 20
7.506606
 30
-0.000000
 40
0.817500
 50
5.835759
 51
91.038040
  0
LINE
  8
CAM
 62
     7
  6
CONTINUOUS
 10
-3.209693
 20
8.211671
 30
-0.000000
 11
2.988203
 21
8.323972
 31
-0.000000
  0
ARC
  8
CAM
 62
     7
  6
CONTINUOUS
 10
-3.194883
 20
7.394305
 30
0.000000
 40
0.817500
 50
91.038040
 51
174.490188
  0
LINE
  8
CAM
 62
     7
  6
CONTINUOUS
 10
-4.125203
 20
6.264054
 30
-0.000000
 11
-4.008606
 21
7.472799
 31
-0.000000
  0
ARC
  8
CAM
 62
     7
  6
CONTINUOUS
 10
-4.742339
 20
6.323584
 30
0.000000
 40
0.620000
 50
277.885021
 51
354.490188
  0
LINE
  8
CAM
 62
     7
  6
CONTINUOUS
 10
-6.835037
 20
5.407838
 30
-0.000000
 11
-4.657284
 21
5.709446
 31
-0.000000
  0
ARC
  8
CAM
 62
     7
  6
CONTINUOUS
 10
-6.714313
 20
4.536158
 30
0.000000
 40
0.880000
 50
97.885021
 51
141.702981
  0
LINE
  8
CAM
 62
     7
  6
CONTINUOUS
 10
-7.735033
 20
4.663518
 30
-0.000000
 11
-7.404945
 21
5.081527
 31
-0.000000
  0
ARC
  8
CAM
 62
     7
  6
CONTINUOUS
 10
-7.044402
 20
4.118149
 30
0.000000
 40
0.880000
 50
141.702981
 51
186.943447
  0
LINE
  8
CAM
 62
     7
  6
CONTINUOUS
 10
-7.256652
 20
-1.418363
 30
0.000000
 11
-7.917948
 21
4.011766
 31
0.000000
  0
ARC
  8
CAM
 62
     7
  6
CONTINUOUS
 10
-6.879438
 20
-1.372425
 30
0.000000
 40
0.380000
 50
186.943447
 51
194.158940
  0
LINE
  8
CAM
 62
     7
  6
CONTINUOUS
 10
-7.061926
 20
-2.202538
 30
0.000000
 11
-7.247894
 21
-1.465378
 31
0.000000
  0
ARC
  8
CAM
 62
     7
  6
CONTINUOUS
 10
-6.572268
 20
-2.079009
 30
0.000000
 40
0.505000
 50
194.158940
 51
250.347665
  0
ARC
  8
CAM
 62
     7
  6
CONTINUOUS
 10
-6.866541
 20
-2.903041
 30
0.000000
 40
0.370000
 50
317.970215
 51
430.347665
  0
ARC
  8
CAM
 62
     7
  6
CONTINUOUS
 10
-6.216593
 20
-3.488868
 30
0.000000
 40
0.505000
 50
137.970215
 51
194.158940
  0
LINE
  8
CAM
 62
     7
  6
CONTINUOUS
 10
-6.601838
 20
-4.026283
 30
0.000000
 11
-6.706252
 21
-3.612397
 31
0.000000
  0
ARC
  8
CAM
 62
     7
  6
CONTINUOUS
 10
-5.627369
 20
-3.780448
 30
0.000000
 40
1.005000
 50
194.158940
 51
239.117593
  0
LINE
  8
CAM
 62
     7
  6
CONTINUOUS
 10
-3.045703
 20
-6.495492
 30
0.000000
 11
-6.143213
 21
-4.642961
 31
0.000000
  0
ARC
  8
CAM
 62
     7
  6
CONTINUOUS
 10
-2.529858
 20
-5.632978
 30
0.000000
 40
1.005000
 50
239.117593
 51
270.961275
  0
LINE
  8
CAM
 62
     7
  6
CONTINUOUS
 10
2.457365
 20
-6.554439
 30
0.000000
 11
-2.512998
 21
-6.637837
 31
0.000000
  0
ARC
  8
CAM
 62
     7
  6
CONTINUOUS
 10
2.440505
 20
-5.549580
 30
0.000000
 40
1.005000
 50
270.961275
 51
307.012922
  0
LINE
  8
CAM
 62
     7
  6
CONTINUOUS
 10
5.908512
 20
-4.193633
 30
0.000000
 11
3.045510
 21
-6.352073
 31
0.000000
  0
ARC
  8
CAM
 62
     7
  6
CONTINUOUS
 10
5.303507
 20
-3.391141
 30
0.000000
 40
1.005000
 50
307.012922
 51
344.962884
  0
LINE
  8
CAM
 62
     7
  6
CONTINUOUS
 10
7.226637
 20
-0.106132
 30
-0.000000
 11
6.274094
 21
-3.651883
 31
0.000000
  0
ARC
  8
CAM
 62
     7
  6
CONTINUOUS
 10
8.192395
 20
-0.365577
 30
-0.000000
 40
1.000000
 50
74.962884
 51
164.962884
  0
LINE
  8
CAM
 62
     7
  6
CONTINUOUS
 10
9.417598
 20
0.340736
 30
-0.000000
 11
8.451840
 21
0.600181
 31
-0.000000
  0
CIRCLE
  8
CAM
 62
     7
  6
CONTINUOUS
 10
0.000000
 20
0.000000
 30
-0.625000
 40
2.625000
  0
CIRCLE
  8
CAM
 62
     7
  6
CONTINUOUS
 10
0.000000
 20
0.000000
 30
-0.625000
 40
2.620000
  0
ARC
  8
CAM
 62
     7
  6
CONTINUOUS
 10
6.321081
 20
0.155780
 30
0.000000
 40
0.120000
 50
180.000000
 51
360.000000
  0
LINE
  8
CAM
 62
     7
  6
CONTINUOUS
 10
6.326081
 20
0.155780
 30
0.000000
 11
6.201081
 21
0.155780
 31
0.000000
  0
LINE
  8
CAM
 62
     7
  6
CONTINUOUS
 10
6.201081
 20
0.155780
 30
0.000000
 11
6.326081
 21
0.155780
 31
0.000000
  0
ARC
  8
CAM
 62
     7
  6
CONTINUOUS
 10
6.321081
 20
0.155780
 30
0.000000
 40
0.120000
 50
0.000000
 51
180.000000
  0
ARC
  8
CAM
 62
     7
  6
CONTINUOUS
 10
6.321081
 20
0.155780
 30
0.000000
 40
0.125000
 50
180.000000
 51
360.000000
  0
LINE
  8
CAM
 62
     7
  6
CONTINUOUS
 10
6.321081
 20
0.155780
 30
0.000000
 11
6.196081
 21
0.155780
 31
0.000000
  0
LINE
  8
CAM
 62
     7
  6
CONTINUOUS
 10
6.196081
 20
0.155780
 30
0.000000
 11
6.321081
 21
0.155780
 31
0.000000
  0
ARC
  8
CAM
 62
     7
  6
CONTINUOUS
 10
6.321081
 20
0.155780
 30
0.000000
 40
0.125000
 50
0.000000
 51
180.000000
  0
ARC
  8
CAM
 62
     7
  6
CONTINUOUS
 10
-6.339000
 20
0.000000
 30
0.000000
 40
0.120000
 50
0.000000
 51
180.000000
  0
LINE
  8
CAM
 62
     7
  6
CONTINUOUS
 10
-6.334000
 20
0.000000
 30
0.000000
 11
-6.459000
 21
0.000000
 31
0.000000
  0
LINE
  8
CAM
 62
     7
  6
CONTINUOUS
 10
-6.459000
 20
0.000000
 30
0.000000
 11
-6.334000
 21
0.000000
 31
0.000000
  0
ARC
  8
CAM
 62
     7
  6
CONTINUOUS
 10
-6.339000
 20
0.000000
 30
0.000000
 40
0.120000
 50
180.000000
 51
360.000000
  0
LINE
  8
CAM
 62
     7
  6
CONTINUOUS
 10
-6.464000
 20
0.000000
 30
0.000000
 11
-6.339000
 21
0.000000
 31
0.000000
  0
ARC
  8
CAM
 62
     7
  6
CONTINUOUS
 10
-6.339000
 20
0.000000
 30
0.000000
 40
0.125000
 50
0.000000
 51
180.000000
  0
ARC
  8
CAM
 62
     7
  6
CONTINUOUS
 10
-6.339000
 20
0.000000
 30
0.000000
 40
0.125000
 50
180.000000
 51
360.000000
  0
LINE
  8
CAM
 62
     7
  6
CONTINUOUS
 10
-6.339000
 20
0.000000
 30
0.000000
 11
-6.464000
 21
0.000000
 31
0.000000
  0
LINE
  8
DIM
 62
     6
  6
CONTINUOUS
 10
0.000000
 20
0.078000
 30
0.000000
 11
6.321081
 21
0.155780
 31
0.000000
  0
LINE
  8
DIM
 62
     6
  6
CONTINUOUS
 10
0.000000
 20
0.000000
 30
0.000000
 11
6.321081
 21
0.155780
 31
0.000000
  0
LINE
  8
DIM
 62
     6
  6
CONTINUOUS
 10
0.000000
 20
0.000000
 30
0.000000
 11
-6.339000
 21
0.000000
 31
0.000000
  0
LINE
  8
DIM
 62
     6
  6
CONTINUOUS
 10
-6.339000
 20
0.000000
 30
0.000000
 11
0.000000
 21
0.078000
 31
0.000000
  0
LINE
  8
DIM
 62
     7
  6
CONTINUOUS
 10
0.008128
 20
0.000000
 30
-0.000000
 11
7.559409
 21
0.000000
 31
-0.000000
  0
LINE
  8
DIM
 62
     7
  6
CONTINUOUS
 10
-2.521731
 20
-6.257978
 30
-0.000000
 11
7.559409
 21
-6.257978
 31
-0.000000
  0
LINE
  8
DIM
 62
     7
  6
CONTINUOUS
 10
7.547217
 20
0.000000
 30
-0.000000
 11
7.547217
 21
-6.257978
 31
-0.000000
  0
LINE
  8
DIM
 62
     7
  6
CONTINUOUS
 10
7.547217
 20
0.000000
 30
-0.000000
 11
7.559217
 21
-0.080000
 31
-0.000000
  0
LINE
  8
DIM
 62
     7
  6
CONTINUOUS
 10
7.547217
 20
0.000000
 30
-0.000000
 11
7.535217
 21
-0.080000
 31
-0.000000
  0
LINE
  8
DIM
 62
     7
  6
CONTINUOUS
 10
7.547217
 20
-6.257978
 30
-0.000000
 11
7.535217
 21
-6.177978
 31
-0.000000
  0
LINE
  8
DIM
 62
     7
  6
CONTINUOUS
 10
7.547217
 20
-6.257978
 30
-0.000000
 11
7.559217
 21
-6.177978
 31
-0.000000
  0
TEXT
  8
DIM
 62
     7
 10
7.623367
 20
-0.899458
 30
-0.000000
 40
0.200000
  1
6.258
 72
     1
 11
7.933367
 21
-0.899458
 31
-0.000000
  0
LINE
  8
DIM
 62
     7
  6
CONTINUOUS
 10
5.053507
 20
-3.388601
 30
0.000000
 11
5.053507
 21
-2.537331
 31
0.000000
  0
LINE
  8
DIM
 62
     7
  6
CONTINUOUS
 10
5.553507
 20
-3.388601
 30
0.000000
 11
5.553507
 21
-2.537331
 31
0.000000
  0
LINE
  8
DIM
 62
     7
  6
CONTINUOUS
 10
4.988427
 20
-2.541141
 30
0.000000
 11
5.618587
 21
-2.541141
 31
0.000000
  0
LINE
  8
DIM
 62
     7
  6
CONTINUOUS
 10
5.053507
 20
-2.541141
 30
0.000000
 11
5.078507
 21
-2.528641
 31
0.000000
  0
LINE
  8
DIM
 62
     7
  6
CONTINUOUS
 10
5.053507
 20
-2.541141
 30
0.000000
 11
5.078507
 21
-2.553641
 31
0.000000
  0
LINE
  8
DIM
 62
     7
  6
CONTINUOUS
 10
5.553507
 20
-2.541141
 30
0.000000
 11
5.528507
 21
-2.553641
 31
0.000000
  0
LINE
  8
DIM
 62
     7
  6
CONTINUOUS
 10
5.553507
 20
-2.541141
 30
0.000000
 11
5.528507
 21
-2.528641
 31
0.000000
  0
TEXT
  8
DIM
 62
     7
 10
4.993507
 20
-2.459861
 30
0.000000
 40
0.200000
  1
0.500
 72
     1
 11
5.303507
 21
-2.459861
 31
0.000000
  0
LINE
  8
DIM
 62
     7
  6
CONTINUOUS
 10
0.000000
 20
-0.002540
 30
-0.000000
 11
0.000000
 21
-6.785462
 31
-0.000000
  0
LINE
  8
DIM
 62
     7
  6
CONTINUOUS
 10
6.881051
 20
0.152070
 30
-0.000000
 11
6.881051
 21
-6.785462
 31
-0.000000
  0
LINE
  8
DIM
 62
     7
  6
CONTINUOUS
 10
0.000000
 20
-6.781652
 30
-0.000000
 11
6.905362
 21
-6.781652
 31
-0.000000
  0
LINE
  8
DIM
 62
     7
  6
CONTINUOUS
 10
0.000000
 20
-6.781652
 30
-0.000000
 11
0.025000
 21
-6.769152
 31
-0.000000
  0
LINE
  8
DIM
 62
     7
  6
CONTINUOUS
 10
0.000000
 20
-6.781652
 30
-0.000000
 11
0.025000
 21
-6.794152
 31
-0.000000
  0
LINE
  8
DIM
 62
     7
  6
CONTINUOUS
 10
6.881051
 20
-6.781652
 30
-0.000000
 11
6.856051
 21
-6.794152
 31
-0.000000
  0
LINE
  8
DIM
 62
     7
  6
CONTINUOUS
 10
6.881051
 20
-6.781652
 30
-0.000000
 11
6.856051
 21
-6.769152
 31
-0.000000
  0
TEXT
  8
DIM
 62
     7
 10
6.320282
 20
-6.700372
 30
-0.000000
 40
0.200000
  1
6.881
 72
     1
 11
6.610282
 21
-6.700372
 31
-0.000000
  0
LINE
  8
DIM
 62
     7
  6
CONTINUOUS
 10
2.190505
 20
-5.547040
 30
0.000000
 11
2.190505
 21
-4.695770
 31
0.000000
  0
LINE
  8
DIM
 62
     7
  6
CONTINUOUS
 10
2.690505
 20
-5.547040
 30
0.000000
 11
2.690505
 21
-4.695770
 31
0.000000
  0
LINE
  8
DIM
 62
     7
  6
CONTINUOUS
 10
2.125425
 20
-4.699580
 30
0.000000
 11
2.755585
 21
-4.699580
 31
0.000000
  0
LINE
  8
DIM
 62
     7
  6
CONTINUOUS
 10
2.190505
 20
-4.699580
 30
0.000000
 11
2.215505
 21
-4.687080
 31
0.000000
  0
LINE
  8
DIM
 62
     7
  6
CONTINUOUS
 10
2.190505
 20
-4.699580
 30
0.000000
 11
2.215505
 21
-4.712080
 31
0.000000
  0
LINE
  8
DIM
 62
     7
  6
CONTINUOUS
 10
2.690505
 20
-4.699580
 30
0.000000
 11
2.665505
 21
-4.712080
 31
0.000000
  0
LINE
  8
DIM
 62
     7
  6
CONTINUOUS
 10
2.690505
 20
-4.699580
 30
0.000000
 11
2.665505
 21
-4.687080
 31
0.000000
  0
TEXT
  8
DIM
 62
     7
 10
2.130505
 20
-4.618300
 30
0.000000
 40
0.200000
  1
0.500
 72
     1
 11
2.440505
 21
-4.618300
 31
0.000000
  0
LINE
  8
DIM
 62
     7
  6
CONTINUOUS
 10
-2.779859
 20
-5.630438
 30
0.000000
 11
-2.779859
 21
-4.779168
 31
0.000000
  0
LINE
  8
DIM
 62
     7
  6
CONTINUOUS
 10
-2.279859
 20
-5.630438
 30
0.000000
 11
-2.279859
 21
-4.779168
 31
0.000000
  0
LINE
  8
DIM
 62
     7
  6
CONTINUOUS
 10
-2.844939
 20
-4.782978
 30
0.000000
 11
-2.214779
 21
-4.782978
 31
0.000000
  0
LINE
  8
DIM
 62
     7
  6
CONTINUOUS
 10
-2.779859
 20
-4.782978
 30
0.000000
 11
-2.754859
 21
-4.770478
 31
0.000000
  0
LINE
  8
DIM
 62
     7
  6
CONTINUOUS
 10
-2.779859
 20
-4.782978
 30
0.000000
 11
-2.754859
 21
-4.795478
 31
0.000000
  0
LINE
  8
DIM
 62
     7
  6
CONTINUOUS
 10
-2.279859
 20
-4.782978
 30
0.000000
 11
-2.304859
 21
-4.795478
 31
0.000000
  0
LINE
  8
DIM
 62
     7
  6
CONTINUOUS
 10
-2.279859
 20
-4.782978
 30
0.000000
 11
-2.304859
 21
-4.770478
 31
0.000000
  0
TEXT
  8
DIM
 62
     7
 10
-2.839859
 20
-4.701698
 30
0.000000
 40
0.200000
  1
0.500
 72
     1
 11
-2.529859
 21
-4.701698
 31
0.000000
  0
LINE
  8
DIM
 62
     7
  6
CONTINUOUS
 10
-4.940818
 20
-4.157883
 30
0.000000
 11
-4.940818
 21
-3.306613
 31
0.000000
  0
LINE
  8
DIM
 62
     7
  6
CONTINUOUS
 10
-4.440818
 20
-4.157883
 30
0.000000
 11
-4.440818
 21
-3.306613
 31
0.000000
  0
LINE
  8
DIM
 62
     7
  6
CONTINUOUS
 10
-5.005898
 20
-3.310423
 30
0.000000
 11
-4.375738
 21
-3.310423
 31
0.000000
  0
LINE
  8
DIM
 62
     7
  6
CONTINUOUS
 10
-4.940818
 20
-3.310423
 30
0.000000
 11
-4.915818
 21
-3.297923
 31
0.000000
  0
LINE
  8
DIM
 62
     7
  6
CONTINUOUS
 10
-4.940818
 20
-3.310423
 30
0.000000
 11
-4.915818
 21
-3.322923
 31
0.000000
  0
LINE
  8
DIM
 62
     7
  6
CONTINUOUS
 10
-4.440818
 20
-3.310423
 30
0.000000
 11
-4.465818
 21
-3.322923
 31
0.000000
  0
LINE
  8
DIM
 62
     7
  6
CONTINUOUS
 10
-4.440818
 20
-3.310423
 30
0.000000
 11
-4.465818
 21
-3.297923
 31
0.000000
  0
TEXT
  8
DIM
 62
     7
 10
-5.000819
 20
-3.229143
 30
0.000000
 40
0.200000
  1
0.500
 72
     1
 11
-4.690818
 21
-3.229143
 31
0.000000
  0
LINE
  8
DIM
 62
     7
  6
CONTINUOUS
 10
0.000000
 20
-0.002540
 30
-0.000000
 11
0.000000
 21
-6.785462
 31
-0.000000
  0
LINE
  8
DIM
 62
     7
  6
CONTINUOUS
 10
-7.544402
 20
4.115609
 30
-0.000000
 11
-7.544402
 21
-6.785462
 31
-0.000000
  0
LINE
  8
DIM
 62
     7
  6
CONTINUOUS
 10
0.000000
 20
-6.781652
 30
-0.000000
 11
-7.544402
 21
-6.781652
 31
-0.000000
  0
LINE
  8
DIM
 62
     7
  6
CONTINUOUS
 10
0.000000
 20
-6.781652
 30
-0.000000
 11
-0.025000
 21
-6.794152
 31
-0.000000
  0
LINE
  8
DIM
 62
     7
  6
CONTINUOUS
 10
0.000000
 20
-6.781652
 30
-0.000000
 11
-0.025000
 21
-6.769152
 31
-0.000000
  0
LINE
  8
DIM
 62
     7
  6
CONTINUOUS
 10
-7.544402
 20
-6.781652
 30
-0.000000
 11
-7.519402
 21
-6.769152
 31
-0.000000
  0
LINE
  8
DIM
 62
     7
  6
CONTINUOUS
 10
-7.544402
 20
-6.781652
 30
-0.000000
 11
-7.519402
 21
-6.794152
 31
-0.000000
  0
TEXT
  8
DIM
 62
     7
 10
-7.321437
 20
-6.700372
 30
-0.000000
 40
0.200000
  1
7.544
 72
     1
 11
-6.991437
 21
-6.700372
 31
-0.000000
  0
LINE
  8
DIM
 62
     7
  6
CONTINUOUS
 10
5.946081
 20
0.158319
 30
0.000000
 11
5.946081
 21
1.134589
 31
0.000000
  0
LINE
  8
DIM
 62
     7
  6
CONTINUOUS
 10
6.696081
 20
0.158319
 30
0.000000
 11
6.696081
 21
1.134589
 31
0.000000
  0
LINE
  8
DIM
 62
     7
  6
CONTINUOUS
 10
5.946081
 20
1.130779
 30
0.000000
 11
6.696081
 21
1.130779
 31
0.000000
  0
LINE
  8
DIM
 62
     7
  6
CONTINUOUS
 10
5.946081
 20
1.130779
 30
0.000000
 11
5.971081
 21
1.143279
 31
0.000000
  0
LINE
  8
DIM
 62
     7
  6
CONTINUOUS
 10
5.946081
 20
1.130779
 30
0.000000
 11
5.971081
 21
1.118279
 31
0.000000
  0
LINE
  8
DIM
 62
     7
  6
CONTINUOUS
 10
6.696081
 20
1.130779
 30
0.000000
 11
6.671081
 21
1.118279
 31
0.000000
  0
LINE
  8
DIM
 62
     7
  6
CONTINUOUS
 10
6.696081
 20
1.130779
 30
0.000000
 11
6.671081
 21
1.143279
 31
0.000000
  0
TEXT
  8
DIM
 62
     7
 10
6.011081
 20
1.212059
 30
0.000000
 40
0.200000
  1
0.750
 72
     1
 11
6.321081
 21
1.212059
 31
0.000000
  0
TEXT
  8
DIM
 62
     7
 10
-1.994424
 20
5.947747
 30
0.000000
 40
0.200000
  1
Countersink holes on back side
 72
     1
 11
-0.174424
 21
5.947747
 31
0.000000
  0
ENDSEC
  0
EOF
