  0
SECTION
  2
HEADER
  9
$ACADVER
  1
AC1006
  0
ENDSEC
  0
SECTION
  2
TABLES
  0
TABLE
  2
LTYPE
 70
    25
  0
LTYPE
  2
CONTINUOUS
 70
    64
  3
Solid line
 72
    64
 73
     0
 40
0.000000
  0
LTYPE
  2
DASHDOT
 70
    64
  3
__ . __ . __ . __ . __ . __ . __ . __ . __ . __
 72
    65
 73
     4
 40
1.000000
 49
0.500000
 49
-0.250000
 49
0.000000
 49
-0.250000
  0
LTYPE
  2
DASHED
 70
    64
  3
__ __ __ __ __ __ __ __ __ __ __ __ __ __ __ __
 72
    65
 73
     2
 40
0.750000
 49
0.500000
 49
-0.250000
  0
LTYPE
  2
DIVIDE
 70
    64
  3
____ . . ____ . . ____ . . ____ . . ____ . . __
 72
    65
 73
     6
 40
1.250000
 49
0.500000
 49
-0.250000
 49
0.000000
 49
-0.250000
 49
0.000000
 49
-0.250000
  0
LTYPE
  2
DOT
 70
    64
  3
. . . . . . . . . . . . . . . . . . . . . . . . 
 72
    65
 73
     2
 40
0.250000
 49
0.000000
 49
-0.250000
  0
ENDTAB
  0
ENDSEC
  0
SECTION
  2
BLOCKS
  0
BLOCK
  8
0
  2
Object_0
 70
    64
 10
0.000000
 20
0.000000
 30
0.000000
  0
ENDBLK
  0
ENDSEC
  0
SECTION
  2
ENTITIES
  0
LINE
  8
DIM
 62
     7
  6
CONTINUOUS
 10
-0.000100
 20
0.086127
 30
0.000000
 11
-0.013992
 21
1.215106
 31
0.000000
  0
LINE
  8
DIM
 62
     7
  6
CONTINUOUS
 10
6.320981
 20
0.163907
 30
0.000000
 11
6.307089
 21
1.292885
 31
0.000000
  0
LINE
  8
DIM
 62
     7
  6
CONTINUOUS
 10
-0.013842
 20
1.202915
 30
0.000000
 11
6.307239
 21
1.280694
 31
0.000000
  0
LINE
  8
DIM
 62
     7
  6
CONTINUOUS
 10
-0.013842
 20
1.202915
 30
0.000000
 11
0.066004
 21
1.215898
 31
0.000000
  0
LINE
  8
DIM
 62
     7
  6
CONTINUOUS
 10
-0.013842
 20
1.202915
 30
0.000000
 11
0.066300
 21
1.191900
 31
0.000000
  0
LINE
  8
DIM
 62
     7
  6
CONTINUOUS
 10
6.307239
 20
1.280694
 30
0.000000
 11
6.227393
 21
1.267711
 31
0.000000
  0
LINE
  8
DIM
 62
     7
  6
CONTINUOUS
 10
6.307239
 20
1.280694
 30
0.000000
 11
6.227097
 21
1.291709
 31
0.000000
  0
TEXT
  8
DIM
 62
     7
 10
2.563617
 20
1.387041
 30
0.000000
 40
0.375000
  1
6.322
 50
0.704976
 72
     1
 11
3.144823
 21
1.394193
 31
0.000000
  0
CIRCLE
  8
Default
 62
     9
  6
CONTINUOUS
 10
0.000000
 20
0.000000
 30
-0.125000
 40
4.251000
  0
CIRCLE
  8
Default
 62
     9
  6
CONTINUOUS
 10
0.000000
 20
0.000000
 30
-0.625000
 40
3.000000
  0
CIRCLE
  8
Default
 62
     9
  6
CONTINUOUS
 10
0.000000
 20
3.625000
 30
0.000000
 40
0.265625
  0
CIRCLE
  8
Default
 62
     9
  6
CONTINUOUS
 10
3.625000
 20
0.000000
 30
0.000000
 40
0.265625
  0
CIRCLE
  8
Default
 62
     9
  6
CONTINUOUS
 10
-3.625000
 20
0.000000
 30
0.000000
 40
0.265625
  0
CIRCLE
  8
Default
 62
     9
  6
CONTINUOUS
 10
-0.000000
 20
-3.625000
 30
0.000000
 40
0.265625
  0
ARC
  8
Default
 62
     6
  6
CONTINUOUS
 10
0.000000
 20
0.000000
 30
0.000000
 40
6.339000
 50
180.000000
 51
202.500000
  0
ARC
  8
Default
 62
     6
  6
CONTINUOUS
 10
0.000000
 20
0.000000
 30
0.000000
 40
6.339000
 50
157.500000
 51
180.000000
  0
POINT
  8
Default
 62
     7
 10
6.321081
 20
0.155780
 30
0.000000
  0
LINE
  8
Default
 62
     6
  6
CONTINUOUS
 10
0.000000
 20
0.000000
 30
0.000000
 11
0.000000
 21
0.078000
 31
0.000000
  0
LINE
  8
DIM
 62
     7
  6
CONTINUOUS
 10
6.321281
 20
0.147654
 30
0.000000
 11
6.349098
 21
-0.981067
 31
0.000000
  0
LINE
  8
DIM
 62
     7
  6
CONTINUOUS
 10
0.000200
 20
-0.008126
 30
0.000000
 11
0.028017
 21
-1.136847
 31
0.000000
  0
LINE
  8
DIM
 62
     7
  6
CONTINUOUS
 10
6.348797
 20
-0.968879
 30
0.000000
 11
0.027717
 21
-1.124659
 31
0.000000
  0
LINE
  8
DIM
 62
     7
  6
CONTINUOUS
 10
6.348797
 20
-0.968879
 30
0.000000
 11
6.269117
 21
-0.982846
 31
0.000000
  0
LINE
  8
DIM
 62
     7
  6
CONTINUOUS
 10
6.348797
 20
-0.968879
 30
0.000000
 11
6.268526
 21
-0.958854
 31
0.000000
  0
LINE
  8
DIM
 62
     7
  6
CONTINUOUS
 10
0.027717
 20
-1.124659
 30
0.000000
 11
0.107397
 21
-1.110691
 31
0.000000
  0
LINE
  8
DIM
 62
     7
  6
CONTINUOUS
 10
0.027717
 20
-1.124659
 30
0.000000
 11
0.107988
 21
-1.134684
 31
0.000000
  0
TEXT
  8
DIM
 62
     7
 10
2.603429
 20
-0.908735
 30
0.000000
 40
0.375000
  1
6.323
 50
1.411737
 72
     1
 11
3.184502
 21
-0.894415
 31
0.000000
  0
LINE
  8
DIM
 62
     7
  6
CONTINUOUS
 10
-6.339000
 20
-0.008128
 30
0.000000
 11
-6.339000
 21
-1.098124
 31
0.000000
  0
LINE
  8
DIM
 62
     7
  6
CONTINUOUS
 10
0.000000
 20
-0.008128
 30
0.000000
 11
0.000000
 21
-1.098124
 31
0.000000
  0
LINE
  8
DIM
 62
     7
  6
CONTINUOUS
 10
-6.339000
 20
-1.085932
 30
0.000000
 11
0.000000
 21
-1.085932
 31
0.000000
  0
LINE
  8
DIM
 62
     7
  6
CONTINUOUS
 10
-6.339000
 20
-1.085932
 30
0.000000
 11
-6.259000
 21
-1.073932
 31
0.000000
  0
LINE
  8
DIM
 62
     7
  6
CONTINUOUS
 10
-6.339000
 20
-1.085932
 30
0.000000
 11
-6.259000
 21
-1.097932
 31
0.000000
  0
LINE
  8
DIM
 62
     7
  6
CONTINUOUS
 10
0.000000
 20
-1.085932
 30
0.000000
 11
-0.080000
 21
-1.097932
 31
0.000000
  0
LINE
  8
DIM
 62
     7
  6
CONTINUOUS
 10
0.000000
 20
-1.085932
 30
0.000000
 11
-0.080000
 21
-1.073932
 31
0.000000
  0
TEXT
  8
DIM
 62
     7
 10
-2.803986
 20
-0.933532
 30
0.000000
 40
0.375000
  1
6.339
 72
     1
 11
-2.222736
 21
-0.933532
 31
0.000000
  0
LINE
  8
DIM
 62
     7
  6
CONTINUOUS
 10
-6.339100
 20
0.008127
 30
0.000000
 11
-6.352992
 21
1.137106
 31
0.000000
  0
LINE
  8
DIM
 62
     7
  6
CONTINUOUS
 10
-0.000100
 20
0.086127
 30
0.000000
 11
-0.013992
 21
1.215106
 31
0.000000
  0
LINE
  8
DIM
 62
     7
  6
CONTINUOUS
 10
-6.352842
 20
1.124915
 30
0.000000
 11
-0.013842
 21
1.202915
 31
0.000000
  0
LINE
  8
DIM
 62
     7
  6
CONTINUOUS
 10
-6.352842
 20
1.124915
 30
0.000000
 11
-6.272995
 21
1.137898
 31
0.000000
  0
LINE
  8
DIM
 62
     7
  6
CONTINUOUS
 10
-6.352842
 20
1.124915
 30
0.000000
 11
-6.272700
 21
1.113900
 31
0.000000
  0
LINE
  8
DIM
 62
     7
  6
CONTINUOUS
 10
-0.013842
 20
1.202915
 30
0.000000
 11
-0.093688
 21
1.189931
 31
0.000000
  0
LINE
  8
DIM
 62
     7
  6
CONTINUOUS
 10
-0.013842
 20
1.202915
 30
0.000000
 11
-0.093983
 21
1.213930
 31
0.000000
  0
TEXT
  8
DIM
 62
     7
 10
-3.766423
 20
1.309152
 30
0.000000
 40
0.375000
  1
6.339
 50
0.704976
 72
     1
 11
-3.185217
 21
1.316303
 31
0.000000
  0
ARC
  8
Default
 62
     6
  6
CONTINUOUS
 10
0.000000
 20
0.000000
 30
0.000000
 40
6.323000
 50
337.500000
 51
361.411737
  0
ARC
  8
Default
 62
     6
  6
CONTINUOUS
 10
0.000000
 20
0.000000
 30
0.000000
 40
6.323000
 50
1.411737
 51
22.500000
  0
POINT
  8
Default
 62
     7
 10
3.003013
 20
7.506606
 30
0.000000
  0
CIRCLE
  8
Default
 62
     6
  6
CONTINUOUS
 10
5.536153
 20
-3.270460
 30
0.000000
 40
0.250000
  0
CIRCLE
  8
Default
 62
     6
  6
CONTINUOUS
 10
6.321100
 20
0.155780
 30
0.000000
 40
0.375500
  0
CIRCLE
  8
Default
 62
     6
  6
CONTINUOUS
 10
3.003013
 20
7.506606
 30
0.000000
 40
0.250000
  0
ARC
  8
Default
 62
     6
  6
CONTINUOUS
 10
3.003013
 20
7.506606
 30
-0.000000
 40
0.437500
 50
5.835759
 51
91.038040
  0
ARC
  8
Default
 62
     6
  6
CONTINUOUS
 10
8.412333
 20
8.059476
 30
-0.000000
 40
5.000000
 50
185.835759
 51
223.772804
  0
ARC
  8
Default
 62
     6
  6
CONTINUOUS
 10
0.000000
 20
0.000000
 30
-0.000000
 40
6.650000
 50
17.098334
 51
43.772804
  0
LINE
  8
Default
 62
     6
  6
CONTINUOUS
 10
6.356080
 20
1.955183
 30
-0.000000
 11
6.853426
 21
0.338367
 31
-0.000000
  0
ARC
  8
Default
 62
     6
  6
CONTINUOUS
 10
6.256050
 20
0.154610
 30
-0.000000
 40
0.625000
 50
344.962884
 51
377.098334
  0
POINT
  8
Default
 62
     7
 10
0.000000
 20
0.000000
 30
0.000000
  0
POINT
  8
Default
 62
     7
 10
-3.194883
 20
7.394305
 30
0.000000
  0
POINT
  8
Default
 62
     7
 10
-4.194052
 20
4.873892
 30
0.000000
  0
CIRCLE
  8
Default
 62
     6
  6
CONTINUOUS
 10
-3.194883
 20
7.394305
 30
0.000000
 40
0.250000
  0
LINE
  8
Default
 62
     6
  6
CONTINUOUS
 10
6.859649
 20
-0.007543
 30
-0.000000
 11
5.907106
 21
-3.553294
 31
0.000000
  0
ARC
  8
Default
 62
     6
  6
CONTINUOUS
 10
5.303507
 20
-3.391141
 30
0.000000
 40
0.625000
 50
307.012922
 51
344.962884
  0
LINE
  8
Default
 62
     6
  6
CONTINUOUS
 10
5.679754
 20
-3.890203
 30
0.000000
 11
2.816752
 21
-6.048643
 31
0.000000
  0
ARC
  8
Default
 62
     6
  6
CONTINUOUS
 10
2.440505
 20
-5.549580
 30
0.000000
 40
0.625000
 50
270.961275
 51
307.012922
  0
LINE
  8
Default
 62
     6
  6
CONTINUOUS
 10
-1.423018
 20
-6.239494
 30
0.000000
 11
2.450990
 21
-6.174492
 31
0.000000
  0
ARC
  8
Default
 62
     6
  6
CONTINUOUS
 10
-1.433503
 20
-5.614582
 30
0.000000
 40
0.625000
 50
235.701646
 51
270.961275
  0
LINE
  8
Default
 62
     6
  6
CONTINUOUS
 10
-4.178978
 20
-4.498416
 30
0.000000
 11
-1.785692
 21
-6.130904
 31
0.000000
  0
ARC
  8
Default
 62
     6
  6
CONTINUOUS
 10
-4.689439
 20
-5.047897
 30
0.000000
 40
0.750000
 50
47.108260
 51
104.256014
  0
LINE
  8
DIM
 62
     6
  6
CONTINUOUS
 10
0.000000
 20
0.078000
 30
0.000000
 11
6.321081
 21
0.155780
 31
0.000000
  0
LINE
  8
DIM
 62
     6
  6
CONTINUOUS
 10
0.000000
 20
0.000000
 30
0.000000
 11
6.321081
 21
0.155780
 31
0.000000
  0
LINE
  8
DIM
 62
     6
  6
CONTINUOUS
 10
0.000000
 20
0.000000
 30
0.000000
 11
-6.339000
 21
0.000000
 31
0.000000
  0
LINE
  8
DIM
 62
     6
  6
CONTINUOUS
 10
-6.339000
 20
0.000000
 30
0.000000
 11
0.000000
 21
0.078000
 31
0.000000
  0
POINT
  8
Default
 62
     7
 10
-7.081789
 20
4.133795
 30
0.000000
  0
CIRCLE
  8
Default
 62
     6
  6
CONTINUOUS
 10
-4.194052
 20
4.873892
 30
0.000000
 40
0.250000
  0
LINE
  8
Default
 62
     6
  6
CONTINUOUS
 10
-4.874130
 20
-4.320993
 30
0.000000
 11
-5.319848
 21
-4.434241
 31
0.000000
  0
POINT
  8
Default
 62
     7
 10
-7.056233
 20
-2.556287
 30
0.000000
  0
ARC
  8
Default
 62
     6
  6
CONTINUOUS
 10
-5.442976
 20
-3.949638
 30
0.000000
 40
0.500000
 50
125.540336
 51
284.256014
  0
ARC
  8
Default
 62
     6
  6
CONTINUOUS
 10
-7.056233
 20
-2.556287
 30
0.000000
 40
1.650000
 50
323.281958
 51
417.541168
  0
POINT
  8
Default
 62
     7
 10
-6.339000
 20
0.000000
 30
0.000000
  0
ARC
  8
Default
 62
     6
  6
CONTINUOUS
 10
-5.097302
 20
0.523500
 30
0.000000
 40
2.000000
 50
187.444337
 51
237.541168
  0
LINE
  8
Default
 62
     6
  6
CONTINUOUS
 10
-7.080444
 20
0.264374
 30
0.000000
 11
-7.577575
 21
4.069014
 31
0.000000
  0
ARC
  8
Default
 62
     6
  6
CONTINUOUS
 10
-7.081789
 20
4.133795
 30
0.000000
 40
0.500000
 50
105.196022
 51
187.444337
  0
LINE
  8
Default
 62
     6
  6
CONTINUOUS
 10
-7.212850
 20
4.616313
 30
0.000000
 11
-4.480217
 21
5.358549
 31
0.000000
  0
POINT
  8
Default
 62
     7
 10
-5.442976
 20
-3.949638
 30
0.000000
  0
POINT
  8
Default
 62
     7
 10
5.536153
 20
-3.270460
 30
0.000000
  0
CIRCLE
  8
Default
 62
     6
  6
CONTINUOUS
 10
-7.081789
 20
4.133795
 30
0.000000
 40
0.250000
  0
CIRCLE
  8
Default
 62
     6
  6
CONTINUOUS
 10
-6.339000
 20
0.000000
 30
0.000000
 40
0.375500
  0
ARC
  8
Default
 62
     6
  6
CONTINUOUS
 10
-4.742339
 20
6.323584
 30
0.000000
 40
1.000000
 50
285.196022
 51
354.490188
  0
LINE
  8
Default
 62
     6
  6
CONTINUOUS
 10
-3.746959
 20
6.227568
 30
0.000000
 11
-3.630361
 21
7.436312
 31
0.000000
  0
ARC
  8
Default
 62
     6
  6
CONTINUOUS
 10
-3.194883
 20
7.394305
 30
0.000000
 40
0.437500
 50
91.038040
 51
174.490188
  0
LINE
  8
Default
 62
     6
  6
CONTINUOUS
 10
-3.202808
 20
7.831733
 30
0.000000
 11
2.995087
 21
7.944034
 31
0.000000
  0
CIRCLE
  8
Default
 62
     6
  6
CONTINUOUS
 10
-5.442976
 20
-3.949638
 30
0.000000
 40
0.250000
  0
INSERT
  8
Default
 62
     7
  2
Object_0
 10
-10.160000
 20
-10.160000
 30
0.000000
  0
LINE
  8
CAM
 62
     6
  6
CONTINUOUS
 10
6.250600
 20
0.155780
 30
0.000000
 11
6.138100
 21
0.155780
 31
0.000000
  0
ARC
  8
CAM
 62
     6
  6
CONTINUOUS
 10
6.321100
 20
0.155780
 30
0.000000
 40
0.183000
 50
180.000000
 51
360.000000
  0
ARC
  8
CAM
 62
     6
  6
CONTINUOUS
 10
6.321100
 20
0.155780
 30
0.000000
 40
0.183000
 50
0.000000
 51
180.000000
  0
LINE
  8
CAM
 62
     6
  6
CONTINUOUS
 10
6.138100
 20
0.155780
 30
0.000000
 11
6.250600
 21
0.155780
 31
0.000000
  0
LINE
  8
CAM
 62
     6
  6
CONTINUOUS
 10
6.250600
 20
0.155780
 30
0.000000
 11
6.133100
 21
0.155780
 31
0.000000
  0
ARC
  8
CAM
 62
     6
  6
CONTINUOUS
 10
6.321100
 20
0.155780
 30
0.000000
 40
0.188000
 50
180.000000
 51
360.000000
  0
ARC
  8
CAM
 62
     6
  6
CONTINUOUS
 10
6.321100
 20
0.155780
 30
0.000000
 40
0.188000
 50
0.000000
 51
180.000000
  0
LINE
  8
CAM
 62
     6
  6
CONTINUOUS
 10
6.133100
 20
0.155780
 30
0.000000
 11
6.250600
 21
0.155780
 31
0.000000
  0
ARC
  8
CAM
 62
     6
  6
CONTINUOUS
 10
-6.339000
 20
0.000000
 30
0.000000
 40
0.188000
 50
0.000000
 51
180.000000
  0
ARC
  8
CAM
 62
     6
  6
CONTINUOUS
 10
-6.339000
 20
0.000000
 30
0.000000
 40
0.188000
 50
180.000000
 51
360.000000
  0
LINE
  8
CAM
 62
     6
  6
CONTINUOUS
 10
-6.522000
 20
0.000000
 30
0.000000
 11
-6.409500
 21
0.000000
 31
0.000000
  0
LINE
  8
CAM
 62
     6
  6
CONTINUOUS
 10
-6.409500
 20
0.000000
 30
0.000000
 11
-6.522000
 21
0.000000
 31
0.000000
  0
LINE
  8
CAM
 62
     6
  6
CONTINUOUS
 10
-6.527000
 20
0.000000
 30
0.000000
 11
-6.409500
 21
0.000000
 31
0.000000
  0
ARC
  8
CAM
 62
     6
  6
CONTINUOUS
 10
-6.339000
 20
0.000000
 30
0.000000
 40
0.183000
 50
0.000000
 51
180.000000
  0
ARC
  8
CAM
 62
     6
  6
CONTINUOUS
 10
-6.339000
 20
0.000000
 30
0.000000
 40
0.183000
 50
180.000000
 51
360.000000
  0
LINE
  8
CAM
 62
     6
  6
CONTINUOUS
 10
-6.409500
 20
0.000000
 30
0.000000
 11
-6.527000
 21
0.000000
 31
0.000000
  0
ARC
  8
CAM
 62
     6
  6
CONTINUOUS
 10
8.611772
 20
2.649053
 30
-0.000000
 40
2.000000
 50
197.098334
 51
287.098334
  0
ARC
  8
CAM
 62
     6
  6
CONTINUOUS
 10
0.000000
 20
0.000000
 30
-0.000000
 40
7.010000
 50
17.098334
 51
43.772804
  0
ARC
  8
CAM
 62
     6
  6
CONTINUOUS
 10
8.412333
 20
8.059476
 30
-0.000000
 40
4.640000
 50
185.835759
 51
223.772804
  0
ARC
  8
CAM
 62
     6
  6
CONTINUOUS
 10
3.003013
 20
7.506606
 30
-0.000000
 40
0.797500
 50
5.835759
 51
91.038040
  0
LINE
  8
CAM
 62
     6
  6
CONTINUOUS
 10
-3.209330
 20
8.191674
 30
0.000000
 11
2.988566
 21
8.303975
 31
0.000000
  0
ARC
  8
CAM
 62
     6
  6
CONTINUOUS
 10
-3.194883
 20
7.394305
 30
0.000000
 40
0.797500
 50
91.038040
 51
174.490188
  0
LINE
  8
CAM
 62
     6
  6
CONTINUOUS
 10
-4.105296
 20
6.262133
 30
0.000000
 11
-3.988698
 21
7.470878
 31
0.000000
  0
ARC
  8
CAM
 62
     6
  6
CONTINUOUS
 10
-4.742339
 20
6.323584
 30
0.000000
 40
0.640000
 50
285.196022
 51
354.490188
  0
LINE
  8
CAM
 62
     6
  6
CONTINUOUS
 10
-7.307214
 20
4.963725
 30
0.000000
 11
-4.574581
 21
5.705962
 31
0.000000
  0
ARC
  8
CAM
 62
     6
  6
CONTINUOUS
 10
-7.081789
 20
4.133795
 30
0.000000
 40
0.860000
 50
105.196022
 51
187.444337
  0
LINE
  8
CAM
 62
     6
  6
CONTINUOUS
 10
-7.437410
 20
0.217732
 30
0.000000
 11
-7.934540
 21
4.022371
 31
0.000000
  0
ARC
  8
CAM
 62
     6
  6
CONTINUOUS
 10
-5.097302
 20
0.523500
 30
0.000000
 40
2.360000
 50
187.444337
 51
237.541168
  0
ARC
  8
CAM
 62
     6
  6
CONTINUOUS
 10
-7.056233
 20
-2.556287
 30
0.000000
 40
1.290000
 50
325.287930
 51
417.541168
  0
ARC
  8
CAM
 62
     6
  6
CONTINUOUS
 10
-5.442976
 20
-3.949638
 30
0.000000
 40
0.860000
 50
130.004243
 51
284.256014
  0
LINE
  8
CAM
 62
     6
  6
CONTINUOUS
 10
-4.785479
 20
-4.669907
 30
0.000000
 11
-5.231196
 21
-4.783154
 31
0.000000
  0
ARC
  8
CAM
 62
     6
  6
CONTINUOUS
 10
-4.689439
 20
-5.047897
 30
0.000000
 40
0.390000
 50
47.108260
 51
104.256014
  0
ARC
  8
CAM
 62
     6
  6
CONTINUOUS
 10
-4.178978
 20
-4.498416
 30
0.000000
 40
0.360000
 50
227.108260
 51
235.701646
  0
LINE
  8
CAM
 62
     6
  6
CONTINUOUS
 10
-1.988553
 20
-6.428305
 30
0.000000
 11
-4.381839
 21
-4.795817
 31
0.000000
  0
ARC
  8
CAM
 62
     6
  6
CONTINUOUS
 10
-1.433503
 20
-5.614582
 30
0.000000
 40
0.985000
 50
235.701646
 51
270.961275
  0
LINE
  8
CAM
 62
     6
  6
CONTINUOUS
 10
2.457030
 20
-6.534442
 30
0.000000
 11
-1.416978
 21
-6.599444
 31
0.000000
  0
ARC
  8
CAM
 62
     6
  6
CONTINUOUS
 10
2.440505
 20
-5.549580
 30
0.000000
 40
0.985000
 50
270.961275
 51
307.012922
  0
LINE
  8
CAM
 62
     6
  6
CONTINUOUS
 10
5.896472
 20
-4.177663
 30
0.000000
 11
3.033470
 21
-6.336103
 31
0.000000
  0
ARC
  8
CAM
 62
     6
  6
CONTINUOUS
 10
5.303507
 20
-3.391141
 30
0.000000
 40
0.985000
 50
307.012922
 51
344.962884
  0
LINE
  8
CAM
 62
     6
  6
CONTINUOUS
 10
7.207322
 20
-0.100943
 30
-0.000000
 11
6.254779
 21
-3.646694
 31
0.000000
  0
ARC
  8
CAM
 62
     6
  6
CONTINUOUS
 10
6.256050
 20
0.154610
 30
-0.000000
 40
0.985000
 50
344.962884
 51
377.098334
  0
LINE
  8
CAM
 62
     6
  6
CONTINUOUS
 10
6.700169
 20
2.061028
 30
-0.000000
 11
7.197515
 21
0.444212
 31
-0.000000
  0
ARC
  8
CAM
 62
     6
  6
CONTINUOUS
 10
8.611772
 20
2.649053
 30
-0.000000
 40
2.000000
 50
107.098334
 51
197.098334
  0
LINE
  8
CAM
 62
     6
  6
CONTINUOUS
 10
-7.432452
 20
0.218380
 30
0.000000
 11
-7.929582
 21
4.023019
 31
0.000000
  0
ARC
  8
CAM
 62
     6
  6
CONTINUOUS
 10
-5.097302
 20
0.523500
 30
0.000000
 40
2.355000
 50
187.444337
 51
237.541168
  0
ARC
  8
CAM
 62
     6
  6
CONTINUOUS
 10
-7.056233
 20
-2.556287
 30
0.000000
 40
1.295000
 50
325.258176
 51
417.541168
  0
ARC
  8
CAM
 62
     6
  6
CONTINUOUS
 10
-5.442976
 20
-3.949638
 30
0.000000
 40
0.855000
 50
129.959396
 51
284.256014
  0
LINE
  8
CAM
 62
     6
  6
CONTINUOUS
 10
-4.786710
 20
-4.665061
 30
0.000000
 11
-5.232428
 21
-4.778308
 31
0.000000
  0
ARC
  8
CAM
 62
     6
  6
CONTINUOUS
 10
-4.689439
 20
-5.047897
 30
0.000000
 40
0.395000
 50
47.108260
 51
104.256014
  0
ARC
  8
CAM
 62
     6
  6
CONTINUOUS
 10
-4.178978
 20
-4.498416
 30
0.000000
 40
0.355000
 50
227.108260
 51
235.701646
  0
LINE
  8
CAM
 62
     6
  6
CONTINUOUS
 10
-1.985736
 20
-6.424174
 30
0.000000
 11
-4.379021
 21
-4.791687
 31
0.000000
  0
ARC
  8
CAM
 62
     6
  6
CONTINUOUS
 10
-1.433503
 20
-5.614582
 30
0.000000
 40
0.980000
 50
235.701646
 51
270.961275
  0
LINE
  8
CAM
 62
     6
  6
CONTINUOUS
 10
2.456946
 20
-6.529442
 30
0.000000
 11
-1.417062
 21
-6.594444
 31
0.000000
  0
ARC
  8
CAM
 62
     6
  6
CONTINUOUS
 10
2.440505
 20
-5.549580
 30
0.000000
 40
0.980000
 50
270.961275
 51
307.012922
  0
LINE
  8
CAM
 62
     6
  6
CONTINUOUS
 10
5.893462
 20
-4.173671
 30
0.000000
 11
3.030460
 21
-6.332110
 31
0.000000
  0
ARC
  8
CAM
 62
     6
  6
CONTINUOUS
 10
5.303507
 20
-3.391141
 30
0.000000
 40
0.980000
 50
307.012922
 51
344.962884
  0
LINE
  8
CAM
 62
     6
  6
CONTINUOUS
 10
7.202493
 20
-0.099646
 30
-0.000000
 11
6.249950
 21
-3.645397
 31
0.000000
  0
ARC
  8
CAM
 62
     6
  6
CONTINUOUS
 10
6.256050
 20
0.154610
 30
-0.000000
 40
0.980000
 50
344.962884
 51
377.098334
  0
LINE
  8
CAM
 62
     6
  6
CONTINUOUS
 10
6.695390
 20
2.059558
 30
-0.000000
 11
7.192736
 21
0.442742
 31
-0.000000
  0
ARC
  8
CAM
 62
     6
  6
CONTINUOUS
 10
0.000000
 20
0.000000
 30
-0.000000
 40
7.005000
 50
17.098334
 51
43.772804
  0
ARC
  8
CAM
 62
     6
  6
CONTINUOUS
 10
8.412333
 20
8.059476
 30
-0.000000
 40
4.645000
 50
185.835759
 51
223.772804
  0
ARC
  8
CAM
 62
     6
  6
CONTINUOUS
 10
3.003013
 20
7.506606
 30
-0.000000
 40
0.792500
 50
5.835759
 51
91.038040
  0
LINE
  8
CAM
 62
     6
  6
CONTINUOUS
 10
-3.209240
 20
8.186675
 30
0.000000
 11
2.988656
 21
8.298976
 31
0.000000
  0
ARC
  8
CAM
 62
     6
  6
CONTINUOUS
 10
-3.194883
 20
7.394305
 30
0.000000
 40
0.792500
 50
91.038040
 51
174.490188
  0
LINE
  8
CAM
 62
     6
  6
CONTINUOUS
 10
-4.100319
 20
6.261653
 30
0.000000
 11
-3.983721
 21
7.470398
 31
0.000000
  0
ARC
  8
CAM
 62
     6
  6
CONTINUOUS
 10
-4.742339
 20
6.323584
 30
0.000000
 40
0.645000
 50
285.196022
 51
354.490188
  0
LINE
  8
CAM
 62
     6
  6
CONTINUOUS
 10
-7.305903
 20
4.958900
 30
0.000000
 11
-4.573270
 21
5.701136
 31
0.000000
  0
ARC
  8
CAM
 62
     6
  6
CONTINUOUS
 10
-7.081789
 20
4.133795
 30
0.000000
 40
0.855000
 50
105.196022
 51
187.444337
  0
CIRCLE
  8
CAM
 62
     6
  6
CONTINUOUS
 10
0.000000
 20
0.000000
 30
-0.625000
 40
2.640000
  0
CIRCLE
  8
CAM
 62
     6
  6
CONTINUOUS
 10
0.000000
 20
0.000000
 30
-0.625000
 40
2.645000
  0
LINE
  8
DIM
 62
     7
  6
CONTINUOUS
 10
5.286154
 20
-3.267920
 30
0.000000
 11
5.286154
 21
-2.416650
 31
0.000000
  0
LINE
  8
DIM
 62
     7
  6
CONTINUOUS
 10
5.786154
 20
-3.267920
 30
0.000000
 11
5.786154
 21
-2.416650
 31
0.000000
  0
LINE
  8
DIM
 62
     7
  6
CONTINUOUS
 10
5.286154
 20
-2.420460
 30
0.000000
 11
5.786154
 21
-2.420460
 31
0.000000
  0
LINE
  8
DIM
 62
     7
  6
CONTINUOUS
 10
5.286154
 20
-2.420460
 30
0.000000
 11
5.311154
 21
-2.407960
 31
0.000000
  0
LINE
  8
DIM
 62
     7
  6
CONTINUOUS
 10
5.286154
 20
-2.420460
 30
0.000000
 11
5.311154
 21
-2.432960
 31
0.000000
  0
LINE
  8
DIM
 62
     7
  6
CONTINUOUS
 10
5.786154
 20
-2.420460
 30
0.000000
 11
5.761154
 21
-2.432960
 31
0.000000
  0
LINE
  8
DIM
 62
     7
  6
CONTINUOUS
 10
5.786154
 20
-2.420460
 30
0.000000
 11
5.761154
 21
-2.407960
 31
0.000000
  0
TEXT
  8
DIM
 62
     7
 10
5.366154
 20
-2.339180
 30
0.000000
 40
0.200000
  1
0.5
 72
     1
 11
5.536154
 21
-2.339180
 31
0.000000
  0
LINE
  8
DIM
 62
     7
  6
CONTINUOUS
 10
5.945600
 20
0.158319
 30
0.000000
 11
5.945600
 21
1.135089
 31
0.000000
  0
LINE
  8
DIM
 62
     7
  6
CONTINUOUS
 10
6.696600
 20
0.158319
 30
0.000000
 11
6.696600
 21
1.135089
 31
0.000000
  0
LINE
  8
DIM
 62
     7
  6
CONTINUOUS
 10
5.945600
 20
1.131279
 30
0.000000
 11
6.696600
 21
1.131279
 31
0.000000
  0
LINE
  8
DIM
 62
     7
  6
CONTINUOUS
 10
5.945600
 20
1.131279
 30
0.000000
 11
5.970600
 21
1.143779
 31
0.000000
  0
LINE
  8
DIM
 62
     7
  6
CONTINUOUS
 10
5.945600
 20
1.131279
 30
0.000000
 11
5.970600
 21
1.118779
 31
0.000000
  0
LINE
  8
DIM
 62
     7
  6
CONTINUOUS
 10
6.696600
 20
1.131279
 30
0.000000
 11
6.671600
 21
1.118779
 31
0.000000
  0
LINE
  8
DIM
 62
     7
  6
CONTINUOUS
 10
6.696600
 20
1.131279
 30
0.000000
 11
6.671600
 21
1.143779
 31
0.000000
  0
TEXT
  8
DIM
 62
     7
 10
6.031100
 20
1.212559
 30
0.000000
 40
0.200000
  1
0.751
 72
     1
 11
6.321100
 21
1.212559
 31
0.000000
  0
LINE
  8
DIM
 62
     7
  6
CONTINUOUS
 10
2.753013
 20
7.509146
 30
0.000000
 11
2.753013
 21
8.360416
 31
0.000000
  0
LINE
  8
DIM
 62
     7
  6
CONTINUOUS
 10
3.253013
 20
7.509146
 30
0.000000
 11
3.253013
 21
8.360416
 31
0.000000
  0
LINE
  8
DIM
 62
     7
  6
CONTINUOUS
 10
2.753013
 20
8.356606
 30
0.000000
 11
3.253013
 21
8.356606
 31
0.000000
  0
LINE
  8
DIM
 62
     7
  6
CONTINUOUS
 10
2.753013
 20
8.356606
 30
0.000000
 11
2.778013
 21
8.369106
 31
0.000000
  0
LINE
  8
DIM
 62
     7
  6
CONTINUOUS
 10
2.753013
 20
8.356606
 30
0.000000
 11
2.778013
 21
8.344106
 31
0.000000
  0
LINE
  8
DIM
 62
     7
  6
CONTINUOUS
 10
3.253013
 20
8.356606
 30
0.000000
 11
3.228013
 21
8.344106
 31
0.000000
  0
LINE
  8
DIM
 62
     7
  6
CONTINUOUS
 10
3.253013
 20
8.356606
 30
0.000000
 11
3.228013
 21
8.369106
 31
0.000000
  0
TEXT
  8
DIM
 62
     7
 10
2.833013
 20
8.437886
 30
0.000000
 40
0.200000
  1
0.5
 72
     1
 11
3.003013
 21
8.437886
 31
0.000000
  0
LINE
  8
DIM
 62
     7
  6
CONTINUOUS
 10
-3.444883
 20
7.396845
 30
0.000000
 11
-3.444883
 21
8.248115
 31
0.000000
  0
LINE
  8
DIM
 62
     7
  6
CONTINUOUS
 10
-2.944883
 20
7.396845
 30
0.000000
 11
-2.944883
 21
8.248115
 31
0.000000
  0
LINE
  8
DIM
 62
     7
  6
CONTINUOUS
 10
-3.444883
 20
8.244305
 30
0.000000
 11
-2.944883
 21
8.244305
 31
0.000000
  0
LINE
  8
DIM
 62
     7
  6
CONTINUOUS
 10
-3.444883
 20
8.244305
 30
0.000000
 11
-3.419883
 21
8.256805
 31
0.000000
  0
LINE
  8
DIM
 62
     7
  6
CONTINUOUS
 10
-3.444883
 20
8.244305
 30
0.000000
 11
-3.419883
 21
8.231805
 31
0.000000
  0
LINE
  8
DIM
 62
     7
  6
CONTINUOUS
 10
-2.944883
 20
8.244305
 30
0.000000
 11
-2.969883
 21
8.231805
 31
0.000000
  0
LINE
  8
DIM
 62
     7
  6
CONTINUOUS
 10
-2.944883
 20
8.244305
 30
0.000000
 11
-2.969883
 21
8.256805
 31
0.000000
  0
TEXT
  8
DIM
 62
     7
 10
-3.364883
 20
8.325585
 30
0.000000
 40
0.200000
  1
0.5
 72
     1
 11
-3.194883
 21
8.325585
 31
0.000000
  0
LINE
  8
DIM
 62
     7
  6
CONTINUOUS
 10
-4.444052
 20
4.876432
 30
0.000000
 11
-4.444052
 21
5.727702
 31
0.000000
  0
LINE
  8
DIM
 62
     7
  6
CONTINUOUS
 10
-3.944052
 20
4.876432
 30
0.000000
 11
-3.944052
 21
5.727702
 31
0.000000
  0
LINE
  8
DIM
 62
     7
  6
CONTINUOUS
 10
-4.444052
 20
5.723892
 30
0.000000
 11
-3.944052
 21
5.723892
 31
0.000000
  0
LINE
  8
DIM
 62
     7
  6
CONTINUOUS
 10
-4.444052
 20
5.723892
 30
0.000000
 11
-4.419052
 21
5.736392
 31
0.000000
  0
LINE
  8
DIM
 62
     7
  6
CONTINUOUS
 10
-4.444052
 20
5.723892
 30
0.000000
 11
-4.419052
 21
5.711392
 31
0.000000
  0
LINE
  8
DIM
 62
     7
  6
CONTINUOUS
 10
-3.944052
 20
5.723892
 30
0.000000
 11
-3.969052
 21
5.711392
 31
0.000000
  0
LINE
  8
DIM
 62
     7
  6
CONTINUOUS
 10
-3.944052
 20
5.723892
 30
0.000000
 11
-3.969052
 21
5.736392
 31
0.000000
  0
TEXT
  8
DIM
 62
     7
 10
-4.364052
 20
5.805172
 30
0.000000
 40
0.200000
  1
0.5
 72
     1
 11
-4.194052
 21
5.805172
 31
0.000000
  0
LINE
  8
DIM
 62
     7
  6
CONTINUOUS
 10
-7.331789
 20
4.136335
 30
0.000000
 11
-7.331789
 21
4.987605
 31
0.000000
  0
LINE
  8
DIM
 62
     7
  6
CONTINUOUS
 10
-6.831789
 20
4.136335
 30
0.000000
 11
-6.831789
 21
4.987605
 31
0.000000
  0
LINE
  8
DIM
 62
     7
  6
CONTINUOUS
 10
-7.331789
 20
4.983795
 30
0.000000
 11
-6.831789
 21
4.983795
 31
0.000000
  0
LINE
  8
DIM
 62
     7
  6
CONTINUOUS
 10
-7.331789
 20
4.983795
 30
0.000000
 11
-7.306789
 21
4.996295
 31
0.000000
  0
LINE
  8
DIM
 62
     7
  6
CONTINUOUS
 10
-7.331789
 20
4.983795
 30
0.000000
 11
-7.306789
 21
4.971295
 31
0.000000
  0
LINE
  8
DIM
 62
     7
  6
CONTINUOUS
 10
-6.831789
 20
4.983795
 30
0.000000
 11
-6.856789
 21
4.971295
 31
0.000000
  0
LINE
  8
DIM
 62
     7
  6
CONTINUOUS
 10
-6.831789
 20
4.983795
 30
0.000000
 11
-6.856789
 21
4.996295
 31
0.000000
  0
TEXT
  8
DIM
 62
     7
 10
-7.251789
 20
5.065075
 30
0.000000
 40
0.200000
  1
0.5
 72
     1
 11
-7.081789
 21
5.065075
 31
0.000000
  0
LINE
  8
DIM
 62
     7
  6
CONTINUOUS
 10
-6.714500
 20
0.002540
 30
0.000000
 11
-6.714500
 21
0.979310
 31
0.000000
  0
LINE
  8
DIM
 62
     7
  6
CONTINUOUS
 10
-5.963500
 20
0.002540
 30
0.000000
 11
-5.963500
 21
0.979310
 31
0.000000
  0
LINE
  8
DIM
 62
     7
  6
CONTINUOUS
 10
-6.714500
 20
0.975500
 30
0.000000
 11
-5.963500
 21
0.975500
 31
0.000000
  0
LINE
  8
DIM
 62
     7
  6
CONTINUOUS
 10
-6.714500
 20
0.975500
 30
0.000000
 11
-6.689500
 21
0.988000
 31
0.000000
  0
LINE
  8
DIM
 62
     7
  6
CONTINUOUS
 10
-6.714500
 20
0.975500
 30
0.000000
 11
-6.689500
 21
0.963000
 31
0.000000
  0
LINE
  8
DIM
 62
     7
  6
CONTINUOUS
 10
-5.963500
 20
0.975500
 30
0.000000
 11
-5.988500
 21
0.963000
 31
0.000000
  0
LINE
  8
DIM
 62
     7
  6
CONTINUOUS
 10
-5.963500
 20
0.975500
 30
0.000000
 11
-5.988500
 21
0.988000
 31
0.000000
  0
TEXT
  8
DIM
 62
     7
 10
-6.629000
 20
1.056780
 30
0.000000
 40
0.200000
  1
0.751
 72
     1
 11
-6.339000
 21
1.056780
 31
0.000000
  0
LINE
  8
DIM
 62
     7
  6
CONTINUOUS
 10
-5.692976
 20
-3.947098
 30
0.000000
 11
-5.692976
 21
-3.095828
 31
0.000000
  0
LINE
  8
DIM
 62
     7
  6
CONTINUOUS
 10
-5.192976
 20
-3.947098
 30
0.000000
 11
-5.192976
 21
-3.095828
 31
0.000000
  0
LINE
  8
DIM
 62
     7
  6
CONTINUOUS
 10
-5.692976
 20
-3.099638
 30
0.000000
 11
-5.192976
 21
-3.099638
 31
0.000000
  0
LINE
  8
DIM
 62
     7
  6
CONTINUOUS
 10
-5.692976
 20
-3.099638
 30
0.000000
 11
-5.667976
 21
-3.087138
 31
0.000000
  0
LINE
  8
DIM
 62
     7
  6
CONTINUOUS
 10
-5.692976
 20
-3.099638
 30
0.000000
 11
-5.667976
 21
-3.112138
 31
0.000000
  0
LINE
  8
DIM
 62
     7
  6
CONTINUOUS
 10
-5.192976
 20
-3.099638
 30
0.000000
 11
-5.217976
 21
-3.112138
 31
0.000000
  0
LINE
  8
DIM
 62
     7
  6
CONTINUOUS
 10
-5.192976
 20
-3.099638
 30
0.000000
 11
-5.217976
 21
-3.087138
 31
0.000000
  0
TEXT
  8
DIM
 62
     7
 10
-5.612976
 20
-3.018358
 30
0.000000
 40
0.200000
  1
0.5
 72
     1
 11
-5.442976
 21
-3.018358
 31
0.000000
  0
LINE
  8
DIM
 62
     7
  6
CONTINUOUS
 10
0.000000
 20
-0.002540
 30
-0.125018
 11
0.000000
 21
-6.668987
 31
-0.171211
  0
LINE
  8
DIM
 62
     7
  6
CONTINUOUS
 10
-7.581789
 20
4.131255
 30
-0.000018
 11
-7.581789
 21
-6.669655
 31
-0.074860
  0
LINE
  8
DIM
 62
     7
  6
CONTINUOUS
 10
0.000000
 20
-6.665177
 30
-0.171184
 11
-7.581789
 21
-6.665845
 31
-0.074833
  0
LINE
  8
DIM
 62
     7
  6
CONTINUOUS
 10
0.000000
 20
-6.665177
 30
-0.171184
 11
-0.024998
 21
-6.677679
 31
-0.170953
  0
LINE
  8
DIM
 62
     7
  6
CONTINUOUS
 10
0.000000
 20
-6.665177
 30
-0.171184
 11
-0.024998
 21
-6.652680
 31
-0.170780
  0
LINE
  8
DIM
 62
     7
  6
CONTINUOUS
 10
-7.581789
 20
-6.665845
 30
-0.074833
 11
-7.556791
 21
-6.653343
 31
-0.075064
  0
LINE
  8
DIM
 62
     7
  6
CONTINUOUS
 10
-7.581789
 20
-6.665845
 30
-0.074833
 11
-7.556791
 21
-6.678342
 31
-0.075237
  0
TEXT
  8
DIM
 62
     7
 10
-7.152341
 20
-6.585553
 30
-0.124987
 40
0.200000
  1
7.582
 50
0.005045
 72
     1
 11
-6.842341
 21
-6.585526
 31
-0.124987
210
0.012708
220
-0.006928
230
0.999895
  0
LINE
  8
DIM
 62
     7
  6
CONTINUOUS
 10
0.000000
 20
-0.002540
 30
-0.000000
 11
0.000000
 21
-6.669589
 31
-0.000000
  0
LINE
  8
DIM
 62
     7
  6
CONTINUOUS
 10
6.881051
 20
0.152070
 30
-0.000000
 11
6.881051
 21
-6.669589
 31
-0.000000
  0
LINE
  8
DIM
 62
     7
  6
CONTINUOUS
 10
0.000000
 20
-6.665779
 30
-0.000000
 11
6.881051
 21
-6.665779
 31
-0.000000
  0
LINE
  8
DIM
 62
     7
  6
CONTINUOUS
 10
0.000000
 20
-6.665779
 30
-0.000000
 11
0.025000
 21
-6.653279
 31
-0.000000
  0
LINE
  8
DIM
 62
     7
  6
CONTINUOUS
 10
0.000000
 20
-6.665779
 30
-0.000000
 11
0.025000
 21
-6.678279
 31
-0.000000
  0
LINE
  8
DIM
 62
     7
  6
CONTINUOUS
 10
6.881051
 20
-6.665779
 30
-0.000000
 11
6.856051
 21
-6.678279
 31
-0.000000
  0
LINE
  8
DIM
 62
     7
  6
CONTINUOUS
 10
6.881051
 20
-6.665779
 30
-0.000000
 11
6.856051
 21
-6.653279
 31
-0.000000
  0
TEXT
  8
DIM
 62
     7
 10
5.708020
 20
-6.584499
 30
-0.000000
 40
0.200000
  1
6.881
 72
     1
 11
5.998020
 21
-6.584499
 31
-0.000000
  0
LINE
  8
DIM
 62
     7
  6
CONTINUOUS
 10
0.002540
 20
0.000000
 30
-0.000000
 11
7.260214
 21
0.000000
 31
-0.000000
  0
LINE
  8
DIM
 62
     7
  6
CONTINUOUS
 10
3.005553
 20
7.944106
 30
-0.000000
 11
7.260214
 21
7.944106
 31
-0.000000
  0
LINE
  8
DIM
 62
     7
  6
CONTINUOUS
 10
7.256404
 20
0.000000
 30
-0.000000
 11
7.256404
 21
7.944106
 31
-0.000000
  0
LINE
  8
DIM
 62
     7
  6
CONTINUOUS
 10
7.256404
 20
0.000000
 30
-0.000000
 11
7.243904
 21
0.025000
 31
-0.000000
  0
LINE
  8
DIM
 62
     7
  6
CONTINUOUS
 10
7.256404
 20
0.000000
 30
-0.000000
 11
7.268904
 21
0.025000
 31
-0.000000
  0
LINE
  8
DIM
 62
     7
  6
CONTINUOUS
 10
7.256404
 20
7.944106
 30
-0.000000
 11
7.268904
 21
7.919106
 31
-0.000000
  0
LINE
  8
DIM
 62
     7
  6
CONTINUOUS
 10
7.256404
 20
7.944106
 30
-0.000000
 11
7.243904
 21
7.919106
 31
-0.000000
  0
TEXT
  8
DIM
 62
     7
 10
7.175124
 20
4.587812
 30
-0.000000
 40
0.200000
  1
7.944
 50
90.000003
 72
     1
 11
7.175124
 21
4.917812
 31
-0.000000
  0
LINE
  8
DIM
 62
     7
  6
CONTINUOUS
 10
0.002540
 20
0.000000
 30
-0.000000
 11
7.260214
 21
0.000000
 31
-0.000000
  0
LINE
  8
DIM
 62
     7
  6
CONTINUOUS
 10
-1.420478
 20
-6.239494
 30
0.000000
 11
7.260214
 21
-6.239494
 31
0.000000
  0
LINE
  8
DIM
 62
     7
  6
CONTINUOUS
 10
7.256404
 20
0.000000
 30
-0.000000
 11
7.256404
 21
-6.239494
 31
0.000000
  0
LINE
  8
DIM
 62
     7
  6
CONTINUOUS
 10
7.256404
 20
0.000000
 30
-0.000000
 11
7.268904
 21
-0.025000
 31
-0.000000
  0
LINE
  8
DIM
 62
     7
  6
CONTINUOUS
 10
7.256404
 20
0.000000
 30
-0.000000
 11
7.243904
 21
-0.025000
 31
-0.000000
  0
LINE
  8
DIM
 62
     7
  6
CONTINUOUS
 10
7.256404
 20
-6.239494
 30
0.000000
 11
7.243904
 21
-6.214494
 31
0.000000
  0
LINE
  8
DIM
 62
     7
  6
CONTINUOUS
 10
7.256404
 20
-6.239494
 30
0.000000
 11
7.268904
 21
-6.214494
 31
0.000000
  0
TEXT
  8
DIM
 62
     7
 10
7.175124
 20
-4.104081
 30
-0.000000
 40
0.200000
  1
6.239
 50
90.000003
 72
     1
 11
7.175124
 21
-3.794081
 31
-0.000000
  0
ENDSEC
  0
EOF
