  0
SECTION
  2
HEADER
  9
$ACADVER
  1
AC1006
  0
ENDSEC
  0
SECTION
  2
TABLES
  0
TABLE
  2
LTYPE
 70
    25
  0
LTYPE
  2
CONTINUOUS
 70
    64
  3
Solid line
 72
    64
 73
     0
 40
0.000000
  0
LTYPE
  2
DASHDOT
 70
    64
  3
__ . __ . __ . __ . __ . __ . __ . __ . __ . __
 72
    65
 73
     4
 40
1.000000
 49
0.500000
 49
-0.250000
 49
0.000000
 49
-0.250000
  0
LTYPE
  2
DASHED
 70
    64
  3
__ __ __ __ __ __ __ __ __ __ __ __ __ __ __ __
 72
    65
 73
     2
 40
0.750000
 49
0.500000
 49
-0.250000
  0
LTYPE
  2
DIVIDE
 70
    64
  3
____ . . ____ . . ____ . . ____ . . ____ . . __
 72
    65
 73
     6
 40
1.250000
 49
0.500000
 49
-0.250000
 49
0.000000
 49
-0.250000
 49
0.000000
 49
-0.250000
  0
LTYPE
  2
DOT
 70
    64
  3
. . . . . . . . . . . . . . . . . . . . . . . . 
 72
    65
 73
     2
 40
0.250000
 49
0.000000
 49
-0.250000
  0
ENDTAB
  0
ENDSEC
  0
SECTION
  2
BLOCKS
  0
BLOCK
  8
0
  2
Object_0
 70
    64
 10
0.000000
 20
0.000000
 30
0.000000
  0
ENDBLK
  0
ENDSEC
  0
SECTION
  2
ENTITIES
  0
LINE
  8
Default
 62
     6
  6
CONTINUOUS
 10
-5.934260
 20
0.357187
 30
0.000000
 11
-5.889347
 21
2.184519
 31
0.000000
  0
LINE
  8
Default
 62
     6
  6
CONTINUOUS
 10
-5.934260
 20
0.357187
 30
0.000000
 11
-6.274473
 21
-0.081311
 31
0.000000
  0
ARC
  8
Default
 62
     6
  6
CONTINUOUS
 10
0.000000
 20
0.000000
 30
0.000000
 40
6.275000
 50
180.742454
 51
191.778126
  0
LINE
  8
Default
 62
     6
  6
CONTINUOUS
 10
-6.278933
 20
-1.645680
 30
0.000000
 11
-6.142882
 21
-1.280868
 31
0.000000
  0
ARC
  8
Default
 62
     6
  6
CONTINUOUS
 10
-5.224849
 20
-2.038784
 30
0.000000
 40
1.125000
 50
159.547768
 51
202.433710
  0
LINE
  8
Default
 62
     6
  6
CONTINUOUS
 10
-5.587915
 20
-4.107393
 30
0.000000
 11
-6.264711
 21
-2.468101
 31
0.000000
  0
ARC
  8
Default
 62
     6
  6
CONTINUOUS
 10
-4.548053
 20
-3.678077
 30
0.000000
 40
1.125000
 50
202.433710
 51
245.564695
  0
LINE
  8
Default
 62
     6
  6
CONTINUOUS
 10
-2.628844
 20
-5.785776
 30
0.000000
 11
-5.013427
 21
-4.702309
 31
0.000000
  0
ARC
  8
Default
 62
     6
  6
CONTINUOUS
 10
0.000000
 20
0.000000
 30
0.000000
 40
6.355000
 50
245.564695
 51
266.877921
  0
LINE
  8
Default
 62
     6
  6
CONTINUOUS
 10
2.064445
 20
-6.477051
 30
0.000000
 11
-0.346116
 21
-6.345568
 31
0.000000
  0
ARC
  8
Default
 62
     6
  6
CONTINUOUS
 10
2.125716
 20
-5.353720
 30
0.000000
 40
1.125000
 50
266.877921
 51
302.572307
  0
LINE
  8
Default
 62
     6
  6
CONTINUOUS
 10
2.731375
 20
-6.301772
 30
0.000000
 11
4.201315
 21
-5.362707
 31
0.000000
  0
LINE
  8
Default
 62
     6
  6
CONTINUOUS
 10
4.201315
 20
-5.362707
 30
0.000000
 11
6.068797
 21
-4.286561
 31
0.000000
  0
LINE
  8
Default
 62
     6
  6
CONTINUOUS
 10
6.068797
 20
-4.286561
 30
0.000000
 11
7.249189
 21
-2.744419
 31
0.000000
  0
ARC
  8
Default
 62
     6
  6
CONTINUOUS
 10
6.110936
 20
-1.873174
 30
0.000000
 40
1.433418
 50
322.568706
 51
374.601818
  0
LINE
  8
Default
 62
     6
  6
CONTINUOUS
 10
6.747376
 20
1.369722
 30
0.000000
 11
7.498056
 21
-1.511809
 31
0.000000
  0
LINE
  8
Default
 62
     6
  6
CONTINUOUS
 10
6.759174
 20
1.914209
 30
0.000000
 11
6.747376
 21
1.369722
 31
0.000000
  0
LINE
  8
Default
 62
     6
  6
CONTINUOUS
 10
6.759174
 20
1.914209
 30
0.000000
 11
6.162838
 21
2.890279
 31
0.000000
  0
CIRCLE
  8
Default
 62
     9
  6
CONTINUOUS
 10
0.000000
 20
0.000000
 30
-0.125000
 40
4.251000
  0
CIRCLE
  8
Default
 62
     9
  6
CONTINUOUS
 10
0.000000
 20
0.000000
 30
-0.625000
 40
3.000000
  0
CIRCLE
  8
Default
 62
     9
  6
CONTINUOUS
 10
0.000000
 20
3.625000
 30
0.000000
 40
0.265625
  0
CIRCLE
  8
Default
 62
     9
  6
CONTINUOUS
 10
3.625000
 20
0.000000
 30
0.000000
 40
0.265625
  0
CIRCLE
  8
Default
 62
     9
  6
CONTINUOUS
 10
-3.625000
 20
0.000000
 30
0.000000
 40
0.265625
  0
CIRCLE
  8
Default
 62
     9
  6
CONTINUOUS
 10
-0.000000
 20
-3.625000
 30
0.000000
 40
0.265625
  0
POINT
  8
Default
 62
     7
 10
6.593750
 20
-1.649300
 30
0.000000
  0
POINT
  8
Default
 62
     7
 10
6.691829
 20
1.609224
 30
0.000000
  0
POINT
  8
Default
 62
     7
 10
4.474986
 20
5.186760
 30
0.000000
  0
POINT
  8
Default
 62
     7
 10
2.912281
 20
6.849046
 30
0.000000
  0
POINT
  8
Default
 62
     7
 10
-2.208203
 20
6.836205
 30
0.000000
  0
POINT
  8
Default
 62
     7
 10
0.000000
 20
0.000000
 30
0.000000
  0
POINT
  8
Default
 62
     7
 10
-5.681230
 20
3.485473
 30
0.000000
  0
ARC
  8
Default
 62
     6
  6
CONTINUOUS
 10
-6.593750
 20
-1.649300
 30
0.000000
 40
0.750000
 50
180.830542
 51
181.715404
  0
CIRCLE
  8
Default
 62
     6
  6
CONTINUOUS
 10
6.691829
 20
1.609224
 30
0.000000
 40
0.267500
  0
CIRCLE
  8
Default
 62
     6
  6
CONTINUOUS
 10
4.474986
 20
5.186760
 30
0.000000
 40
0.267500
  0
POINT
  8
Default
 62
     7
 10
-6.593750
 20
-1.649300
 30
0.000000
  0
LINE
  8
Default
 62
     7
  6
CONTINUOUS
 10
7.094467
 20
-1.633015
 30
-0.000000
 11
7.174254
 21
1.017775
 31
0.000000
  0
ARC
  8
Default
 62
     7
  6
CONTINUOUS
 10
6.344806
 20
-1.610451
 30
-0.000000
 40
0.750000
 50
345.757846
 51
358.275957
  0
ARC
  8
Default
 62
     6
  6
CONTINUOUS
 10
0.000000
 20
0.000000
 30
0.000000
 40
7.296000
 50
193.800518
 51
194.286076
  0
ARC
  8
Default
 62
     7
  6
CONTINUOUS
 10
0.000000
 20
0.000000
 30
0.000000
 40
7.296000
 50
313.478387
 51
345.757846
  0
ARC
  8
Default
 62
     6
  6
CONTINUOUS
 10
0.000000
 20
0.000000
 30
0.000000
 40
7.296000
 50
345.713924
 51
346.199482
  0
ARC
  8
Default
 62
     7
  6
CONTINUOUS
 10
4.504178
 20
-4.750000
 30
-0.000000
 40
0.750000
 50
270.000000
 51
313.478387
  0
LINE
  8
Default
 62
     7
  6
CONTINUOUS
 10
4.504178
 20
-5.500000
 30
-0.000000
 11
-4.504178
 21
-5.500000
 31
0.000000
  0
ARC
  8
Default
 62
     7
  6
CONTINUOUS
 10
-4.504178
 20
-4.750000
 30
0.000000
 40
0.750000
 50
226.521613
 51
270.000000
  0
ARC
  8
Default
 62
     7
  6
CONTINUOUS
 10
0.000000
 20
0.000000
 30
0.000000
 40
7.296000
 50
194.261731
 51
226.521613
  0
ARC
  8
Default
 62
     7
  6
CONTINUOUS
 10
-6.344255
 20
-1.612618
 30
-0.000000
 40
0.750000
 50
180.830542
 51
194.261731
  0
LINE
  8
Default
 62
     7
  6
CONTINUOUS
 10
-7.094177
 20
-1.623490
 30
-0.000000
 11
-7.148453
 21
2.120556
 31
0.000000
  0
ARC
  8
Default
 62
     7
  6
CONTINUOUS
 10
-6.648506
 20
2.127803
 30
0.000000
 40
0.500000
 50
144.531911
 51
180.830542
  0
LINE
  8
Default
 62
     7
  6
CONTINUOUS
 10
-6.088449
 20
3.775597
 30
0.000000
 11
-7.055725
 21
2.417928
 31
0.000000
  0
ARC
  8
Default
 62
     7
  6
CONTINUOUS
 10
-5.681230
 20
3.485473
 30
0.000000
 40
0.500000
 50
133.973263
 51
144.531911
  0
LINE
  8
Default
 62
     7
  6
CONTINUOUS
 10
-2.555365
 20
7.196037
 30
0.000000
 11
-6.028391
 21
3.845305
 31
0.000000
  0
ARC
  8
Default
 62
     7
  6
CONTINUOUS
 10
-2.208203
 20
6.836205
 30
0.000000
 40
0.500000
 50
90.143685
 51
133.973263
  0
LINE
  8
Default
 62
     7
  6
CONTINUOUS
 10
-2.209457
 20
7.336203
 30
0.000000
 11
2.911027
 21
7.349044
 31
0.000000
  0
ARC
  8
Default
 62
     7
  6
CONTINUOUS
 10
2.912281
 20
6.849046
 30
0.000000
 40
0.500000
 50
0.000000
 51
90.143685
  0
LINE
  8
Default
 62
     7
  6
CONTINUOUS
 10
3.412281
 20
6.415148
 30
0.000000
 11
3.412281
 21
6.849046
 31
0.000000
  0
ARC
  8
Default
 62
     7
  6
CONTINUOUS
 10
4.162281
 20
6.415148
 30
0.000000
 40
0.750000
 50
180.000000
 51
268.324914
  0
LINE
  8
Default
 62
     7
  6
CONTINUOUS
 10
5.231470
 20
5.633559
 30
0.000000
 11
4.140357
 21
5.665468
 31
0.000000
  0
ARC
  8
Default
 62
     7
  6
CONTINUOUS
 10
5.158391
 20
3.134628
 30
0.000000
 40
2.500000
 50
344.813487
 51
448.324914
  0
LINE
  8
DIM
 62
     7
  6
CONTINUOUS
 10
0.005080
 20
-0.000001
 30
-0.124970
 11
8.418928
 21
-0.000721
 31
-0.075966
  0
LINE
  8
DIM
 62
     7
  6
CONTINUOUS
 10
2.917361
 20
7.349045
 30
0.000030
 11
8.418928
 21
7.348574
 31
0.032072
  0
LINE
  8
DIM
 62
     7
  6
CONTINUOUS
 10
8.411308
 20
-0.000720
 30
-0.076010
 11
8.411308
 21
7.348575
 31
0.032028
  0
LINE
  8
DIM
 62
     7
  6
CONTINUOUS
 10
8.411308
 20
-0.000720
 30
-0.076010
 11
8.386309
 21
0.049276
 31
-0.075421
  0
LINE
  8
DIM
 62
     7
  6
CONTINUOUS
 10
8.411308
 20
-0.000720
 30
-0.076010
 11
8.436308
 21
0.049272
 31
-0.075130
  0
LINE
  8
DIM
 62
     7
  6
CONTINUOUS
 10
8.411308
 20
7.348575
 30
0.032028
 11
8.436308
 21
7.298578
 31
0.031438
  0
LINE
  8
DIM
 62
     7
  6
CONTINUOUS
 10
8.411308
 20
7.348575
 30
0.032028
 11
8.386309
 21
7.298582
 31
0.031147
  0
TEXT
  8
DIM
 62
     7
 10
8.329823
 20
4.444806
 30
-0.124984
 40
0.200000
  1
7.350
 50
89.995098
 72
     1
 11
8.329850
 21
4.752098
 31
-0.124984
210
-0.005825
220
-0.014699
230
0.999875
  0
LINE
  8
DIM
 62
     7
  6
CONTINUOUS
 10
0.002540
 20
0.000000
 30
-0.124972
 11
8.415119
 21
0.001345
 31
-0.033311
  0
LINE
  8
DIM
 62
     7
  6
CONTINUOUS
 10
4.081155
 20
-5.490550
 30
0.000028
 11
8.415119
 21
-5.489857
 31
0.047250
  0
LINE
  8
DIM
 62
     7
  6
CONTINUOUS
 10
8.411309
 20
0.001344
 30
-0.033352
 11
8.411309
 21
-5.489858
 31
0.047208
  0
LINE
  8
DIM
 62
     7
  6
CONTINUOUS
 10
8.411309
 20
0.001344
 30
-0.033352
 11
8.423808
 21
-0.023651
 31
-0.032849
  0
LINE
  8
DIM
 62
     7
  6
CONTINUOUS
 10
8.411309
 20
0.001344
 30
-0.033352
 11
8.398810
 21
-0.023655
 31
-0.033122
  0
LINE
  8
DIM
 62
     7
  6
CONTINUOUS
 10
8.411309
 20
-5.489858
 30
0.047208
 11
8.398810
 21
-5.464863
 31
0.046705
  0
LINE
  8
DIM
 62
     7
  6
CONTINUOUS
 10
8.411309
 20
-5.489858
 30
0.047208
 11
8.423808
 21
-5.464859
 31
0.046977
  0
TEXT
  8
DIM
 62
     7
 10
8.330020
 20
-5.339055
 30
-0.124979
 40
0.200000
  1
5.492
 50
90.009162
 72
     1
 11
8.329969
 21
-5.019055
 31
-0.124979
210
-0.010896
220
0.014668
230
0.999833
  0
LINE
  8
DIM
 62
     7
  6
CONTINUOUS
 10
-0.000000
 20
-0.002540
 30
-0.125015
 11
-0.000000
 21
-5.964243
 31
-0.159128
  0
LINE
  8
DIM
 62
     7
  6
CONTINUOUS
 10
7.658391
 20
3.132088
 30
-0.000015
 11
7.658391
 21
-5.964855
 31
-0.052068
  0
LINE
  8
DIM
 62
     7
  6
CONTINUOUS
 10
-0.000000
 20
-5.960433
 30
-0.159106
 11
7.658391
 21
-5.961045
 31
-0.052046
  0
LINE
  8
DIM
 62
     7
  6
CONTINUOUS
 10
-0.000000
 20
-5.960433
 30
-0.159106
 11
0.024997
 21
-5.947935
 31
-0.158685
  0
LINE
  8
DIM
 62
     7
  6
CONTINUOUS
 10
-0.000000
 20
-5.960433
 30
-0.159106
 11
0.024997
 21
-5.972934
 31
-0.158828
  0
LINE
  8
DIM
 62
     7
  6
CONTINUOUS
 10
7.658391
 20
-5.961045
 30
-0.052046
 11
7.633394
 21
-5.973543
 31
-0.052467
  0
LINE
  8
DIM
 62
     7
  6
CONTINUOUS
 10
7.658391
 20
-5.961045
 30
-0.052046
 11
7.633394
 21
-5.948543
 31
-0.052324
  0
TEXT
  8
DIM
 62
     7
 10
3.833976
 20
-5.880272
 30
-0.124986
 40
0.200000
  1
7.659
 50
-0.004583
 72
     1
 11
4.143976
 21
-5.880297
 31
-0.124986
210
-0.013978
220
-0.005721
230
0.999886
  0
LINE
  8
DIM
 62
     7
  6
CONTINUOUS
 10
-7.148505
 20
2.122723
 30
-0.000024
 11
-7.148505
 21
-5.968478
 31
-0.038710
  0
LINE
  8
DIM
 62
     7
  6
CONTINUOUS
 10
0.000000
 20
-0.005080
 30
-0.125024
 11
0.000000
 21
-5.967929
 31
-0.153534
  0
LINE
  8
DIM
 62
     7
  6
CONTINUOUS
 10
-7.148505
 20
-5.960858
 30
-0.038674
 11
0.000000
 21
-5.960309
 31
-0.153498
  0
LINE
  8
DIM
 62
     7
  6
CONTINUOUS
 10
-7.148505
 20
-5.960858
 30
-0.038674
 11
-7.098512
 21
-5.935855
 31
-0.039358
  0
LINE
  8
DIM
 62
     7
  6
CONTINUOUS
 10
-7.148505
 20
-5.960858
 30
-0.038674
 11
-7.098512
 21
-5.985854
 31
-0.039597
  0
LINE
  8
DIM
 62
     7
  6
CONTINUOUS
 10
0.000000
 20
-5.960309
 30
-0.153498
 11
-0.049994
 21
-5.985313
 31
-0.152814
  0
LINE
  8
DIM
 62
     7
  6
CONTINUOUS
 10
0.000000
 20
-5.960309
 30
-0.153498
 11
-0.049994
 21
-5.935314
 31
-0.152575
  0
TEXT
  8
DIM
 62
     7
 10
-7.414646
 20
4.299438
 30
-0.124982
 40
0.200000
  1
7.149
 50
-73.421788
 72
     1
 11
-7.326968
 21
4.004920
 31
-0.124982
210
0.016061
220
-0.004781
230
0.999860
  0
LINE
  8
DIM
 62
     7
  6
CONTINUOUS
 10
6.593750
 20
-1.657428
 30
0.000000
 11
6.593750
 21
-2.861492
 31
0.000000
  0
LINE
  8
DIM
 62
     7
  6
CONTINUOUS
 10
-6.593750
 20
-1.657428
 30
0.000000
 11
-6.593750
 21
-2.861493
 31
0.000000
  0
LINE
  8
DIM
 62
     7
  6
CONTINUOUS
 10
6.593750
 20
-2.849300
 30
0.000000
 11
-6.593750
 21
-2.849301
 31
0.000000
  0
LINE
  8
DIM
 62
     7
  6
CONTINUOUS
 10
6.593750
 20
-2.849300
 30
0.000000
 11
6.513750
 21
-2.861300
 31
0.000000
  0
LINE
  8
DIM
 62
     7
  6
CONTINUOUS
 10
6.593750
 20
-2.849300
 30
0.000000
 11
6.513750
 21
-2.837300
 31
0.000000
  0
LINE
  8
DIM
 62
     7
  6
CONTINUOUS
 10
-6.593750
 20
-2.849301
 30
0.000000
 11
-6.513750
 21
-2.837301
 31
0.000000
  0
LINE
  8
DIM
 62
     7
  6
CONTINUOUS
 10
-6.593750
 20
-2.849301
 30
0.000000
 11
-6.513750
 21
-2.861301
 31
0.000000
  0
TEXT
  8
DIM
 62
     7
 10
-0.776042
 20
-2.686740
 30
0.000000
 40
0.400000
  1
13.187
 50
0.000005
 72
     1
 11
0.000000
 21
-2.686740
 31
0.000000
  0
LINE
  8
DIM
 62
     7
  6
CONTINUOUS
 10
-6.595722
 20
-1.641415
 30
0.000000
 11
-6.887894
 21
-0.473337
 31
0.000000
  0
LINE
  8
DIM
 62
     7
  6
CONTINUOUS
 10
-0.001972
 20
0.007885
 30
0.000000
 11
-0.294145
 21
1.175963
 31
0.000000
  0
LINE
  8
DIM
 62
     7
  6
CONTINUOUS
 10
-6.884936
 20
-0.485165
 30
0.000000
 11
-0.291186
 21
1.164135
 31
0.000000
  0
LINE
  8
DIM
 62
     7
  6
CONTINUOUS
 10
-6.884936
 20
-0.485165
 30
0.000000
 11
-6.810239
 21
-0.454111
 31
0.000000
  0
LINE
  8
DIM
 62
     7
  6
CONTINUOUS
 10
-6.884936
 20
-0.485165
 30
0.000000
 11
-6.804415
 21
-0.477394
 31
0.000000
  0
LINE
  8
DIM
 62
     7
  6
CONTINUOUS
 10
-0.291186
 20
1.164135
 30
0.000000
 11
-0.365883
 21
1.133081
 31
0.000000
  0
LINE
  8
DIM
 62
     7
  6
CONTINUOUS
 10
-0.291186
 20
1.164135
 30
0.000000
 11
-0.371707
 21
1.156364
 31
0.000000
  0
TEXT
  8
DIM
 62
     7
 10
-4.243933
 20
0.343000
 30
0.000000
 40
0.400000
  1
6.797
 50
14.043297
 72
     1
 11
-3.627507
 21
0.497187
 31
0.000000
  0
CIRCLE
  8
Default
 62
     6
  6
CONTINUOUS
 10
2.912281
 20
6.849046
 30
0.000000
 40
0.267500
  0
CIRCLE
  8
Default
 62
     6
  6
CONTINUOUS
 10
-2.208203
 20
6.836205
 30
0.000000
 40
0.267500
  0
CIRCLE
  8
Default
 62
     6
  6
CONTINUOUS
 10
-5.681230
 20
3.485473
 30
0.000000
 40
0.267500
  0
CIRCLE
  8
Default
 62
     6
  6
CONTINUOUS
 10
-6.593750
 20
-1.649300
 30
0.000000
 40
0.275600
  0
CIRCLE
  8
Default
 62
     6
  6
CONTINUOUS
 10
6.593750
 20
-1.649300
 30
0.000000
 40
0.275600
  0
CIRCLE
  8
Default
 62
     6
  6
CONTINUOUS
 10
6.593750
 20
-1.649300
 30
0.000000
 40
0.026450
  0
CIRCLE
  8
Default
 62
     6
  6
CONTINUOUS
 10
-6.593750
 20
-1.649300
 30
0.000000
 40
0.026450
  0
LINE
  8
Default
 62
     7
  6
CONTINUOUS
 10
7.571086
 20
2.479723
 30
0.000000
 11
7.174254
 21
1.017775
 31
0.000000
  0
INSERT
  8
Default
 62
     7
  2
Object_0
 10
-10.160000
 20
-10.160000
 30
0.000000
  0
CIRCLE
  8
Default
 62
     9
  6
CONTINUOUS
 10
6.691829
 20
1.609224
 30
0.000000
 40
0.017500
  0
CIRCLE
  8
Default
 62
     9
  6
CONTINUOUS
 10
4.474986
 20
5.186760
 30
0.000000
 40
0.017500
  0
CIRCLE
  8
Default
 62
     9
  6
CONTINUOUS
 10
2.912281
 20
6.849046
 30
0.000000
 40
0.017500
  0
CIRCLE
  8
Default
 62
     9
  6
CONTINUOUS
 10
-2.208203
 20
6.836205
 30
0.000000
 40
0.017500
  0
CIRCLE
  8
Default
 62
     9
  6
CONTINUOUS
 10
-5.681230
 20
3.485473
 30
0.000000
 40
0.017500
  0
CIRCLE
  8
CAM
 62
     9
  6
CONTINUOUS
 10
6.593750
 20
-1.649300
 30
0.000000
 40
0.088100
  0
CIRCLE
  8
CAM
 62
     9
  6
CONTINUOUS
 10
-6.593750
 20
-1.649300
 30
0.000000
 40
0.088100
  0
ARC
  8
CAM
 62
     9
  6
CONTINUOUS
 10
5.158391
 20
3.134628
 30
0.000000
 40
3.007500
 50
344.813487
 51
448.324914
  0
LINE
  8
CAM
 62
     9
  6
CONTINUOUS
 10
8.060864
 20
2.346777
 30
0.000000
 11
7.679722
 21
0.942636
 31
0.000000
  0
LINE
  8
CAM
 62
     9
  6
CONTINUOUS
 10
7.679722
 20
0.942636
 30
0.000000
 11
7.601737
 21
-1.648283
 31
-0.000000
  0
ARC
  8
CAM
 62
     9
  6
CONTINUOUS
 10
6.344806
 20
-1.610451
 30
-0.000000
 40
1.257500
 50
345.757846
 51
358.275957
  0
ARC
  8
CAM
 62
     9
  6
CONTINUOUS
 10
0.000000
 20
0.000000
 30
0.000000
 40
7.803500
 50
313.478387
 51
345.757846
  0
ARC
  8
CAM
 62
     9
  6
CONTINUOUS
 10
4.504178
 20
-4.750000
 30
-0.000000
 40
1.257500
 50
270.000000
 51
313.478387
  0
LINE
  8
CAM
 62
     9
  6
CONTINUOUS
 10
4.504178
 20
-6.007500
 30
-0.000000
 11
-4.504178
 21
-6.007500
 31
0.000000
  0
ARC
  8
CAM
 62
     9
  6
CONTINUOUS
 10
-4.504178
 20
-4.750000
 30
0.000000
 40
1.257500
 50
226.521613
 51
270.000000
  0
ARC
  8
CAM
 62
     9
  6
CONTINUOUS
 10
0.000000
 20
0.000000
 30
0.000000
 40
7.803500
 50
194.261731
 51
226.521613
  0
ARC
  8
CAM
 62
     9
  6
CONTINUOUS
 10
-6.344255
 20
-1.612618
 30
-0.000000
 40
1.257500
 50
180.830542
 51
194.261731
  0
LINE
  8
CAM
 62
     9
  6
CONTINUOUS
 10
-7.601623
 20
-1.630846
 30
-0.000000
 11
-7.655900
 21
2.113199
 31
0.000000
  0
ARC
  8
CAM
 62
     9
  6
CONTINUOUS
 10
-6.648506
 20
2.127803
 30
0.000000
 40
1.007500
 50
144.531911
 51
180.830542
  0
LINE
  8
CAM
 62
     9
  6
CONTINUOUS
 10
-7.469053
 20
2.712404
 30
0.000000
 11
-6.501777
 21
4.070074
 31
0.000000
  0
ARC
  8
CAM
 62
     9
  6
CONTINUOUS
 10
-5.681230
 20
3.485473
 30
0.000000
 40
1.007500
 50
133.973263
 51
144.531911
  0
LINE
  8
CAM
 62
     9
  6
CONTINUOUS
 10
-6.380760
 20
4.210534
 30
0.000000
 11
-2.907733
 21
7.561266
 31
0.000000
  0
ARC
  8
CAM
 62
     9
  6
CONTINUOUS
 10
-2.208203
 20
6.836205
 30
0.000000
 40
1.007500
 50
90.143685
 51
133.973263
  0
LINE
  8
CAM
 62
     9
  6
CONTINUOUS
 10
-2.210730
 20
7.843702
 30
0.000000
 11
2.909754
 21
7.856543
 31
0.000000
  0
ARC
  8
CAM
 62
     9
  6
CONTINUOUS
 10
2.912281
 20
6.849046
 30
0.000000
 40
1.007500
 50
0.000000
 51
90.143685
  0
LINE
  8
CAM
 62
     9
  6
CONTINUOUS
 10
3.919781
 20
6.849046
 30
0.000000
 11
3.919781
 21
6.415148
 31
0.000000
  0
ARC
  8
CAM
 62
     9
  6
CONTINUOUS
 10
4.162281
 20
6.415148
 30
0.000000
 40
0.242500
 50
180.000000
 51
268.324914
  0
LINE
  8
CAM
 62
     9
  6
CONTINUOUS
 10
4.155192
 20
6.172751
 30
0.000000
 11
5.246305
 21
6.140843
 31
0.000000
  0
ARC
  8
CAM
 62
     9
  6
CONTINUOUS
 10
5.158391
 20
3.134628
 30
0.000000
 40
2.855000
 50
344.813487
 51
448.324914
  0
LINE
  8
CAM
 62
     9
  6
CONTINUOUS
 10
7.913689
 20
2.386726
 30
0.000000
 11
7.527832
 21
0.965214
 31
0.000000
  0
LINE
  8
CAM
 62
     9
  6
CONTINUOUS
 10
7.527832
 20
0.965214
 30
0.000000
 11
7.449306
 21
-1.643695
 31
-0.000000
  0
ARC
  8
CAM
 62
     9
  6
CONTINUOUS
 10
6.344806
 20
-1.610451
 30
-0.000000
 40
1.105000
 50
345.757846
 51
358.275957
  0
ARC
  8
CAM
 62
     9
  6
CONTINUOUS
 10
0.000000
 20
0.000000
 30
0.000000
 40
7.651000
 50
313.478387
 51
345.757846
  0
ARC
  8
CAM
 62
     9
  6
CONTINUOUS
 10
4.504178
 20
-4.750000
 30
-0.000000
 40
1.105000
 50
270.000000
 51
313.478387
  0
LINE
  8
CAM
 62
     9
  6
CONTINUOUS
 10
4.504178
 20
-5.855000
 30
-0.000000
 11
-4.504178
 21
-5.855000
 31
0.000000
  0
ARC
  8
CAM
 62
     9
  6
CONTINUOUS
 10
-4.504178
 20
-4.750000
 30
0.000000
 40
1.105000
 50
226.521613
 51
270.000000
  0
ARC
  8
CAM
 62
     9
  6
CONTINUOUS
 10
0.000000
 20
0.000000
 30
0.000000
 40
7.651000
 50
194.261731
 51
226.521613
  0
ARC
  8
CAM
 62
     9
  6
CONTINUOUS
 10
-6.344255
 20
-1.612618
 30
-0.000000
 40
1.105000
 50
180.830542
 51
194.261731
  0
LINE
  8
CAM
 62
     9
  6
CONTINUOUS
 10
-7.449139
 20
-1.628636
 30
-0.000000
 11
-7.503416
 21
2.115410
 31
0.000000
  0
ARC
  8
CAM
 62
     9
  6
CONTINUOUS
 10
-6.648506
 20
2.127803
 30
0.000000
 40
0.855000
 50
144.531911
 51
180.830542
  0
LINE
  8
CAM
 62
     9
  6
CONTINUOUS
 10
-7.344851
 20
2.623916
 30
0.000000
 11
-6.377575
 21
3.981586
 31
0.000000
  0
ARC
  8
CAM
 62
     9
  6
CONTINUOUS
 10
-5.681230
 20
3.485473
 30
0.000000
 40
0.855000
 50
133.973263
 51
144.531911
  0
LINE
  8
CAM
 62
     9
  6
CONTINUOUS
 10
-6.274876
 20
4.100785
 30
0.000000
 11
-2.801849
 21
7.451517
 31
0.000000
  0
ARC
  8
CAM
 62
     9
  6
CONTINUOUS
 10
-2.208203
 20
6.836205
 30
0.000000
 40
0.855000
 50
90.143685
 51
133.973263
  0
LINE
  8
CAM
 62
     9
  6
CONTINUOUS
 10
-2.210347
 20
7.691202
 30
0.000000
 11
2.910137
 21
7.704043
 31
0.000000
  0
ARC
  8
CAM
 62
     9
  6
CONTINUOUS
 10
2.912281
 20
6.849046
 30
0.000000
 40
0.855000
 50
0.000000
 51
90.143685
  0
LINE
  8
CAM
 62
     9
  6
CONTINUOUS
 10
3.767281
 20
6.849046
 30
0.000000
 11
3.767281
 21
6.415148
 31
0.000000
  0
ARC
  8
CAM
 62
     9
  6
CONTINUOUS
 10
4.162281
 20
6.415148
 30
0.000000
 40
0.395000
 50
180.000000
 51
268.324914
  0
LINE
  8
CAM
 62
     9
  6
CONTINUOUS
 10
4.150734
 20
6.020316
 30
0.000000
 11
5.241847
 21
5.988408
 31
0.000000
  0
CIRCLE
  8
CAM
 62
     9
  6
CONTINUOUS
 10
0.000000
 20
0.000000
 30
-0.625000
 40
2.492500
  0
CIRCLE
  8
CAM
 62
     9
  6
CONTINUOUS
 10
0.000000
 20
0.000000
 30
-0.625000
 40
2.645000
  0
LINE
  8
DIM
 62
     7
  6
CONTINUOUS
 10
0.001972
 20
0.007885
 30
0.000000
 11
0.294144
 21
1.175963
 31
0.000000
  0
LINE
  8
DIM
 62
     7
  6
CONTINUOUS
 10
6.595722
 20
-1.641415
 30
0.000000
 11
6.887894
 21
-0.473337
 31
0.000000
  0
LINE
  8
DIM
 62
     7
  6
CONTINUOUS
 10
0.291186
 20
1.164135
 30
0.000000
 11
6.884936
 21
-0.485165
 31
0.000000
  0
LINE
  8
DIM
 62
     7
  6
CONTINUOUS
 10
0.291186
 20
1.164135
 30
0.000000
 11
0.371707
 21
1.156364
 31
0.000000
  0
LINE
  8
DIM
 62
     7
  6
CONTINUOUS
 10
0.291186
 20
1.164135
 30
0.000000
 11
0.365883
 21
1.133081
 31
0.000000
  0
LINE
  8
DIM
 62
     7
  6
CONTINUOUS
 10
6.884936
 20
-0.485165
 30
0.000000
 11
6.804415
 21
-0.477394
 31
0.000000
  0
LINE
  8
DIM
 62
     7
  6
CONTINUOUS
 10
6.884936
 20
-0.485165
 30
0.000000
 11
6.810239
 21
-0.454111
 31
0.000000
  0
TEXT
  8
DIM
 62
     7
 10
3.011081
 20
0.651374
 30
0.000000
 40
0.400000
  1
6.797
 50
-14.043296
 72
     1
 11
3.627507
 21
0.497187
 31
0.000000
  0
LINE
  8
DIM
 62
     7
  6
CONTINUOUS
 10
-6.593750
 20
-1.649300
 30
0.000000
 11
0.000000
 21
0.000000
 31
0.000000
  0
LINE
  8
DIM
 62
     7
  6
CONTINUOUS
 10
-6.593750
 20
-1.649300
 30
0.000000
 11
6.593750
 21
-1.649300
 31
0.000000
  0
LINE
  8
DIM
 62
     7
  6
CONTINUOUS
 10
0.000000
 20
0.000000
 30
0.000000
 11
6.593750
 21
-1.649300
 31
0.000000
  0
LINE
  8
DIM
 62
     7
  6
CONTINUOUS
 10
-5.948730
 20
3.488013
 30
0.000000
 11
-5.948730
 21
4.356783
 31
0.000000
  0
LINE
  8
DIM
 62
     7
  6
CONTINUOUS
 10
-5.413730
 20
3.488013
 30
0.000000
 11
-5.413730
 21
4.356783
 31
0.000000
  0
LINE
  8
DIM
 62
     7
  6
CONTINUOUS
 10
-5.996310
 20
4.352973
 30
0.000000
 11
-5.366150
 21
4.352973
 31
0.000000
  0
LINE
  8
DIM
 62
     7
  6
CONTINUOUS
 10
-5.948730
 20
4.352973
 30
0.000000
 11
-5.923730
 21
4.365473
 31
0.000000
  0
LINE
  8
DIM
 62
     7
  6
CONTINUOUS
 10
-5.948730
 20
4.352973
 30
0.000000
 11
-5.923730
 21
4.340473
 31
0.000000
  0
LINE
  8
DIM
 62
     7
  6
CONTINUOUS
 10
-5.413730
 20
4.352973
 30
0.000000
 11
-5.438730
 21
4.340473
 31
0.000000
  0
LINE
  8
DIM
 62
     7
  6
CONTINUOUS
 10
-5.413730
 20
4.352973
 30
0.000000
 11
-5.438730
 21
4.365473
 31
0.000000
  0
TEXT
  8
DIM
 62
     7
 10
-5.991230
 20
4.434253
 30
0.000000
 40
0.200000
  1
0.535
 72
     1
 11
-5.681230
 21
4.434253
 31
0.000000
  0
LINE
  8
DIM
 62
     7
  6
CONTINUOUS
 10
-6.869350
 20
-1.646760
 30
0.000000
 11
-6.869350
 21
-0.769890
 31
0.000000
  0
LINE
  8
DIM
 62
     7
  6
CONTINUOUS
 10
-6.318150
 20
-1.646760
 30
0.000000
 11
-6.318150
 21
-0.769890
 31
0.000000
  0
LINE
  8
DIM
 62
     7
  6
CONTINUOUS
 10
-6.958830
 20
-0.773700
 30
0.000000
 11
-6.228670
 21
-0.773700
 31
0.000000
  0
LINE
  8
DIM
 62
     7
  6
CONTINUOUS
 10
-6.869350
 20
-0.773700
 30
0.000000
 11
-6.844350
 21
-0.761200
 31
0.000000
  0
LINE
  8
DIM
 62
     7
  6
CONTINUOUS
 10
-6.869350
 20
-0.773700
 30
0.000000
 11
-6.844350
 21
-0.786200
 31
0.000000
  0
LINE
  8
DIM
 62
     7
  6
CONTINUOUS
 10
-6.318150
 20
-0.773700
 30
0.000000
 11
-6.343150
 21
-0.786200
 31
0.000000
  0
LINE
  8
DIM
 62
     7
  6
CONTINUOUS
 10
-6.318150
 20
-0.773700
 30
0.000000
 11
-6.343150
 21
-0.761200
 31
0.000000
  0
TEXT
  8
DIM
 62
     7
 10
-6.953750
 20
-0.692420
 30
0.000000
 40
0.200000
  1
0.5512
 72
     1
 11
-6.593750
 21
-0.692420
 31
0.000000
  0
LINE
  8
DIM
 62
     7
  6
CONTINUOUS
 10
6.318150
 20
-1.646760
 30
0.000000
 11
6.318150
 21
-0.769890
 31
0.000000
  0
LINE
  8
DIM
 62
     7
  6
CONTINUOUS
 10
6.869350
 20
-1.646760
 30
0.000000
 11
6.869350
 21
-0.769890
 31
0.000000
  0
LINE
  8
DIM
 62
     7
  6
CONTINUOUS
 10
6.228670
 20
-0.773700
 30
0.000000
 11
6.958830
 21
-0.773700
 31
0.000000
  0
LINE
  8
DIM
 62
     7
  6
CONTINUOUS
 10
6.318150
 20
-0.773700
 30
0.000000
 11
6.343150
 21
-0.761200
 31
0.000000
  0
LINE
  8
DIM
 62
     7
  6
CONTINUOUS
 10
6.318150
 20
-0.773700
 30
0.000000
 11
6.343150
 21
-0.786200
 31
0.000000
  0
LINE
  8
DIM
 62
     7
  6
CONTINUOUS
 10
6.869350
 20
-0.773700
 30
0.000000
 11
6.844350
 21
-0.786200
 31
0.000000
  0
LINE
  8
DIM
 62
     7
  6
CONTINUOUS
 10
6.869350
 20
-0.773700
 30
0.000000
 11
6.844350
 21
-0.761200
 31
0.000000
  0
TEXT
  8
DIM
 62
     7
 10
6.233750
 20
-0.692420
 30
0.000000
 40
0.200000
  1
0.5512
 72
     1
 11
6.593750
 21
-0.692420
 31
0.000000
  0
LINE
  8
DIM
 62
     7
  6
CONTINUOUS
 10
6.424329
 20
1.611764
 30
0.000000
 11
6.424329
 21
2.480534
 31
0.000000
  0
LINE
  8
DIM
 62
     7
  6
CONTINUOUS
 10
6.959329
 20
1.611764
 30
0.000000
 11
6.959329
 21
2.480534
 31
0.000000
  0
LINE
  8
DIM
 62
     7
  6
CONTINUOUS
 10
6.376749
 20
2.476724
 30
0.000000
 11
7.006909
 21
2.476724
 31
0.000000
  0
LINE
  8
DIM
 62
     7
  6
CONTINUOUS
 10
6.424329
 20
2.476724
 30
0.000000
 11
6.449329
 21
2.489224
 31
0.000000
  0
LINE
  8
DIM
 62
     7
  6
CONTINUOUS
 10
6.424329
 20
2.476724
 30
0.000000
 11
6.449329
 21
2.464224
 31
0.000000
  0
LINE
  8
DIM
 62
     7
  6
CONTINUOUS
 10
6.959329
 20
2.476724
 30
0.000000
 11
6.934329
 21
2.464224
 31
0.000000
  0
LINE
  8
DIM
 62
     7
  6
CONTINUOUS
 10
6.959329
 20
2.476724
 30
0.000000
 11
6.934329
 21
2.489224
 31
0.000000
  0
TEXT
  8
DIM
 62
     7
 10
6.381829
 20
2.558004
 30
0.000000
 40
0.200000
  1
0.535
 72
     1
 11
6.691829
 21
2.558004
 31
0.000000
  0
LINE
  8
DIM
 62
     7
  6
CONTINUOUS
 10
4.207486
 20
5.189300
 30
0.000000
 11
4.207486
 21
6.058070
 31
0.000000
  0
LINE
  8
DIM
 62
     7
  6
CONTINUOUS
 10
4.742486
 20
5.189300
 30
0.000000
 11
4.742486
 21
6.058070
 31
0.000000
  0
LINE
  8
DIM
 62
     7
  6
CONTINUOUS
 10
4.159906
 20
6.054260
 30
0.000000
 11
4.790066
 21
6.054260
 31
0.000000
  0
LINE
  8
DIM
 62
     7
  6
CONTINUOUS
 10
4.207486
 20
6.054260
 30
0.000000
 11
4.232486
 21
6.066760
 31
0.000000
  0
LINE
  8
DIM
 62
     7
  6
CONTINUOUS
 10
4.207486
 20
6.054260
 30
0.000000
 11
4.232486
 21
6.041760
 31
0.000000
  0
LINE
  8
DIM
 62
     7
  6
CONTINUOUS
 10
4.742486
 20
6.054260
 30
0.000000
 11
4.717486
 21
6.041760
 31
0.000000
  0
LINE
  8
DIM
 62
     7
  6
CONTINUOUS
 10
4.742486
 20
6.054260
 30
0.000000
 11
4.717486
 21
6.066760
 31
0.000000
  0
TEXT
  8
DIM
 62
     7
 10
4.164986
 20
6.135540
 30
0.000000
 40
0.200000
  1
0.535
 72
     1
 11
4.474986
 21
6.135540
 31
0.000000
  0
LINE
  8
DIM
 62
     7
  6
CONTINUOUS
 10
2.644781
 20
6.851586
 30
0.000000
 11
2.644781
 21
7.720356
 31
0.000000
  0
LINE
  8
DIM
 62
     7
  6
CONTINUOUS
 10
3.179781
 20
6.851586
 30
0.000000
 11
3.179781
 21
7.720356
 31
0.000000
  0
LINE
  8
DIM
 62
     7
  6
CONTINUOUS
 10
2.597201
 20
7.716546
 30
0.000000
 11
3.227361
 21
7.716546
 31
0.000000
  0
LINE
  8
DIM
 62
     7
  6
CONTINUOUS
 10
2.644781
 20
7.716546
 30
0.000000
 11
2.669781
 21
7.729046
 31
0.000000
  0
LINE
  8
DIM
 62
     7
  6
CONTINUOUS
 10
2.644781
 20
7.716546
 30
0.000000
 11
2.669781
 21
7.704046
 31
0.000000
  0
LINE
  8
DIM
 62
     7
  6
CONTINUOUS
 10
3.179781
 20
7.716546
 30
0.000000
 11
3.154781
 21
7.704046
 31
0.000000
  0
LINE
  8
DIM
 62
     7
  6
CONTINUOUS
 10
3.179781
 20
7.716546
 30
0.000000
 11
3.154781
 21
7.729046
 31
0.000000
  0
TEXT
  8
DIM
 62
     7
 10
2.602281
 20
7.797826
 30
0.000000
 40
0.200000
  1
0.535
 72
     1
 11
2.912281
 21
7.797826
 31
0.000000
  0
LINE
  8
DIM
 62
     7
  6
CONTINUOUS
 10
-2.475703
 20
6.838745
 30
0.000000
 11
-2.475703
 21
7.707515
 31
0.000000
  0
LINE
  8
DIM
 62
     7
  6
CONTINUOUS
 10
-1.940703
 20
6.838745
 30
0.000000
 11
-1.940703
 21
7.707515
 31
0.000000
  0
LINE
  8
DIM
 62
     7
  6
CONTINUOUS
 10
-2.523283
 20
7.703705
 30
0.000000
 11
-1.893123
 21
7.703705
 31
0.000000
  0
LINE
  8
DIM
 62
     7
  6
CONTINUOUS
 10
-2.475703
 20
7.703705
 30
0.000000
 11
-2.450703
 21
7.716205
 31
0.000000
  0
LINE
  8
DIM
 62
     7
  6
CONTINUOUS
 10
-2.475703
 20
7.703705
 30
0.000000
 11
-2.450703
 21
7.691205
 31
0.000000
  0
LINE
  8
DIM
 62
     7
  6
CONTINUOUS
 10
-1.940703
 20
7.703705
 30
0.000000
 11
-1.965703
 21
7.691205
 31
0.000000
  0
LINE
  8
DIM
 62
     7
  6
CONTINUOUS
 10
-1.940703
 20
7.703705
 30
0.000000
 11
-1.965703
 21
7.716205
 31
0.000000
  0
TEXT
  8
DIM
 62
     7
 10
-2.518203
 20
7.784985
 30
0.000000
 40
0.200000
  1
0.535
 72
     1
 11
-2.208203
 21
7.784985
 31
0.000000
  0
ENDSEC
  0
EOF
