  0
SECTION
  2
HEADER
  9
$ACADVER
  1
AC1006
  0
ENDSEC
  0
SECTION
  2
TABLES
  0
TABLE
  2
LTYPE
 70
    25
  0
LTYPE
  2
CONTINUOUS
 70
    64
  3
Solid line
 72
    64
 73
     0
 40
0.000000
  0
LTYPE
  2
DASHDOT
 70
    64
  3
__ . __ . __ . __ . __ . __ . __ . __ . __ . __
 72
    65
 73
     4
 40
1.000000
 49
0.500000
 49
-0.250000
 49
0.000000
 49
-0.250000
  0
LTYPE
  2
DASHED
 70
    64
  3
__ __ __ __ __ __ __ __ __ __ __ __ __ __ __ __
 72
    65
 73
     2
 40
0.750000
 49
0.500000
 49
-0.250000
  0
LTYPE
  2
DIVIDE
 70
    64
  3
____ . . ____ . . ____ . . ____ . . ____ . . __
 72
    65
 73
     6
 40
1.250000
 49
0.500000
 49
-0.250000
 49
0.000000
 49
-0.250000
 49
0.000000
 49
-0.250000
  0
LTYPE
  2
DOT
 70
    64
  3
. . . . . . . . . . . . . . . . . . . . . . . . 
 72
    65
 73
     2
 40
0.250000
 49
0.000000
 49
-0.250000
  0
ENDTAB
  0
ENDSEC
  0
SECTION
  2
BLOCKS
  0
BLOCK
  8
0
  2
Object_0
 70
    64
 10
0.000000
 20
0.000000
 30
0.000000
  0
ENDBLK
  0
ENDSEC
  0
SECTION
  2
ENTITIES
  0
LINE
  8
Default
 62
     7
  6
CONTINUOUS
 10
0.000000
 20
0.000000
 30
0.000000
 11
6.311210
 21
-2.715944
 31
0.000000
  0
POINT
  8
Default
 62
     7
 10
6.311210
 20
-2.715944
 30
0.000000
  0
POINT
  8
Default
 62
     7
 10
-6.831107
 20
-0.275414
 30
0.000000
  0
POINT
  8
Default
 62
     7
 10
-0.277155
 20
-1.492484
 30
0.000000
  0
LINE
  8
Default
 62
     7
  6
CONTINUOUS
 10
-6.831107
 20
-0.275414
 30
0.000000
 11
-0.277155
 21
-1.492484
 31
0.000000
  0
LINE
  8
Default
 62
     7
  6
CONTINUOUS
 10
0.000000
 20
0.000000
 30
0.000000
 11
-0.277155
 21
-1.492484
 31
0.000000
  0
LINE
  8
Default
 62
     7
  6
CONTINUOUS
 10
6.311210
 20
-2.715944
 30
0.000000
 11
-0.277155
 21
-1.492484
 31
0.000000
  0
LINE
  8
DIM
 62
     7
  6
CONTINUOUS
 10
6.310282
 20
-2.720939
 30
0.000000
 11
6.172885
 21
-3.460830
 31
0.000000
  0
LINE
  8
DIM
 62
     7
  6
CONTINUOUS
 10
-0.278082
 20
-1.497479
 30
0.000000
 11
-0.415480
 21
-2.237370
 31
0.000000
  0
LINE
  8
DIM
 62
     7
  6
CONTINUOUS
 10
6.174276
 20
-3.453338
 30
0.000000
 11
-0.414088
 21
-2.229878
 31
0.000000
  0
LINE
  8
DIM
 62
     7
  6
CONTINUOUS
 10
6.174276
 20
-3.453338
 30
0.000000
 11
6.120552
 21
-3.468789
 31
0.000000
  0
LINE
  8
DIM
 62
     7
  6
CONTINUOUS
 10
6.174276
 20
-3.453338
 30
0.000000
 11
6.129681
 21
-3.419629
 31
0.000000
  0
LINE
  8
DIM
 62
     7
  6
CONTINUOUS
 10
-0.414088
 20
-2.229878
 30
0.000000
 11
-0.360364
 21
-2.214427
 31
0.000000
  0
LINE
  8
DIM
 62
     7
  6
CONTINUOUS
 10
-0.414088
 20
-2.229878
 30
0.000000
 11
-0.369493
 21
-2.263587
 31
0.000000
  0
TEXT
  8
DIM
 62
     7
 10
2.542237
 20
-2.675531
 30
0.000000
 40
0.250000
  1
6.701
 50
-10.519995
 72
     1
 11
2.898644
 21
-2.741716
 31
0.000000
  0
LINE
  8
DIM
 62
     7
  6
CONTINUOUS
 10
6.313218
 20
-2.711278
 30
0.000000
 11
6.477177
 21
-2.330276
 31
0.000000
  0
LINE
  8
DIM
 62
     7
  6
CONTINUOUS
 10
0.002008
 20
0.004666
 30
0.000000
 11
0.165967
 21
0.385668
 31
0.000000
  0
LINE
  8
DIM
 62
     7
  6
CONTINUOUS
 10
6.474165
 20
-2.337276
 30
0.000000
 11
0.162955
 21
0.378669
 31
0.000000
  0
LINE
  8
DIM
 62
     7
  6
CONTINUOUS
 10
6.474165
 20
-2.337276
 30
0.000000
 11
6.418355
 21
-2.340475
 31
0.000000
  0
LINE
  8
DIM
 62
     7
  6
CONTINUOUS
 10
6.474165
 20
-2.337276
 30
0.000000
 11
6.438119
 21
-2.294547
 31
0.000000
  0
LINE
  8
DIM
 62
     7
  6
CONTINUOUS
 10
0.162955
 20
0.378669
 30
0.000000
 11
0.218765
 21
0.381868
 31
0.000000
  0
LINE
  8
DIM
 62
     7
  6
CONTINUOUS
 10
0.162955
 20
0.378669
 30
0.000000
 11
0.199001
 21
0.335940
 31
0.000000
  0
TEXT
  8
DIM
 62
     7
 10
3.262266
 20
-0.844470
 30
0.000000
 40
0.250000
  1
6.871
 50
-23.283978
 72
     1
 11
3.595243
 21
-0.987762
 31
0.000000
  0
LINE
  8
DIM
 62
     7
  6
CONTINUOUS
 10
-0.000205
 20
0.005076
 30
0.000000
 11
-0.015758
 21
0.390839
 31
0.000000
  0
LINE
  8
DIM
 62
     7
  6
CONTINUOUS
 10
-6.831312
 20
-0.270339
 30
0.000000
 11
-6.846865
 21
0.115424
 31
0.000000
  0
LINE
  8
DIM
 62
     7
  6
CONTINUOUS
 10
-0.015451
 20
0.383225
 30
0.000000
 11
-6.846558
 21
0.107811
 31
0.000000
  0
LINE
  8
DIM
 62
     7
  6
CONTINUOUS
 10
-0.015451
 20
0.383225
 30
0.000000
 11
-0.064403
 21
0.356231
 31
0.000000
  0
LINE
  8
DIM
 62
     7
  6
CONTINUOUS
 10
-0.015451
 20
0.383225
 30
0.000000
 11
-0.066417
 21
0.406190
 31
0.000000
  0
LINE
  8
DIM
 62
     7
  6
CONTINUOUS
 10
-6.846558
 20
0.107811
 30
0.000000
 11
-6.797606
 21
0.134805
 31
0.000000
  0
LINE
  8
DIM
 62
     7
  6
CONTINUOUS
 10
-6.846558
 20
0.107811
 30
0.000000
 11
-6.795592
 21
0.084845
 31
0.000000
  0
TEXT
  8
DIM
 62
     7
 10
-3.858114
 20
0.329980
 30
0.000000
 40
0.250000
  1
6.837
 50
2.308781
 72
     1
 11
-3.470928
 21
0.345591
 31
0.000000
  0
LINE
  8
DIM
 62
     7
  6
CONTINUOUS
 10
-6.832035
 20
-0.280409
 30
0.000000
 11
-6.969433
 21
-1.020300
 31
0.000000
  0
LINE
  8
DIM
 62
     7
  6
CONTINUOUS
 10
-0.278082
 20
-1.497479
 30
0.000000
 11
-0.415480
 21
-2.237370
 31
0.000000
  0
LINE
  8
DIM
 62
     7
  6
CONTINUOUS
 10
-6.968041
 20
-1.012808
 30
0.000000
 11
-0.414088
 21
-2.229878
 31
0.000000
  0
LINE
  8
DIM
 62
     7
  6
CONTINUOUS
 10
-6.968041
 20
-1.012808
 30
0.000000
 11
-6.914317
 21
-0.997357
 31
0.000000
  0
LINE
  8
DIM
 62
     7
  6
CONTINUOUS
 10
-6.968041
 20
-1.012808
 30
0.000000
 11
-6.923446
 21
-1.046517
 31
0.000000
  0
LINE
  8
DIM
 62
     7
  6
CONTINUOUS
 10
-0.414088
 20
-2.229878
 30
0.000000
 11
-0.467812
 21
-2.245329
 31
0.000000
  0
LINE
  8
DIM
 62
     7
  6
CONTINUOUS
 10
-0.414088
 20
-2.229878
 30
0.000000
 11
-0.458684
 21
-2.196169
 31
0.000000
  0
TEXT
  8
DIM
 62
     7
 10
-3.987259
 20
-1.463003
 30
0.000000
 40
0.250000
  1
6.666
 50
-10.520000
 72
     1
 11
-3.606273
 21
-1.533752
 31
0.000000
  0
LINE
  8
DIM
 62
     7
  6
CONTINUOUS
 10
-0.282149
 20
-1.491557
 30
0.000000
 11
-0.484357
 21
-1.454007
 31
0.000000
  0
LINE
  8
DIM
 62
     7
  6
CONTINUOUS
 10
-0.004995
 20
0.000928
 30
0.000000
 11
-0.207203
 21
0.038478
 31
0.000000
  0
LINE
  8
DIM
 62
     7
  6
CONTINUOUS
 10
-0.476865
 20
-1.455398
 30
0.000000
 11
-0.199711
 21
0.037086
 31
0.000000
  0
LINE
  8
DIM
 62
     7
  6
CONTINUOUS
 10
-0.476865
 20
-1.455398
 30
0.000000
 11
-0.492316
 21
-1.401674
 31
0.000000
  0
LINE
  8
DIM
 62
     7
  6
CONTINUOUS
 10
-0.476865
 20
-1.455398
 30
0.000000
 11
-0.443157
 21
-1.410803
 31
0.000000
  0
LINE
  8
DIM
 62
     7
  6
CONTINUOUS
 10
-0.199711
 20
0.037086
 30
0.000000
 11
-0.184260
 21
-0.016638
 31
0.000000
  0
LINE
  8
DIM
 62
     7
  6
CONTINUOUS
 10
-0.199711
 20
0.037086
 30
0.000000
 11
-0.233419
 21
-0.007509
 31
0.000000
  0
TEXT
  8
DIM
 62
     7
 10
-0.497640
 20
-1.010798
 30
0.000000
 40
0.250000
  1
1.518
 50
79.480002
 72
     1
 11
-0.436020
 21
-0.678971
 31
0.000000
  0
CIRCLE
  8
Default
 62
     7
  6
CONTINUOUS
 10
-6.831107
 20
-0.275414
 30
0.000000
 40
0.275600
  0
CIRCLE
  8
Default
 62
     7
  6
CONTINUOUS
 10
6.311210
 20
-2.715944
 30
0.000000
 40
0.275600
  0
LINE
  8
Default
 62
     7
  6
CONTINUOUS
 10
0.000000
 20
0.000000
 30
0.000000
 11
-6.831107
 21
-0.275414
 31
0.000000
  0
CIRCLE
  8
Default
 62
     9
  6
CONTINUOUS
 10
0.000000
 20
0.000000
 30
0.000000
 40
4.251000
  0
CIRCLE
  8
Default
 62
     9
  6
CONTINUOUS
 10
0.000000
 20
3.625000
 30
0.000000
 40
0.265625
  0
CIRCLE
  8
Default
 62
     9
  6
CONTINUOUS
 10
3.625000
 20
0.000000
 30
0.000000
 40
0.265625
  0
CIRCLE
  8
Default
 62
     9
  6
CONTINUOUS
 10
-0.000000
 20
-3.625000
 30
0.000000
 40
0.265625
  0
CIRCLE
  8
Default
 62
     9
  6
CONTINUOUS
 10
-3.625000
 20
0.000000
 30
0.000000
 40
0.265625
  0
CIRCLE
  8
Default
 62
     9
  6
CONTINUOUS
 10
0.000000
 20
0.000000
 30
0.000000
 40
3.000000
  0
POINT
  8
Default
 62
     9
 10
0.000000
 20
3.625000
 30
0.000000
  0
POINT
  8
Default
 62
     9
 10
3.625000
 20
0.000000
 30
0.000000
  0
POINT
  8
Default
 62
     9
 10
-0.000000
 20
-3.625000
 30
0.000000
  0
POINT
  8
Default
 62
     9
 10
0.000000
 20
0.000000
 30
0.000000
  0
POINT
  8
Default
 62
     9
 10
-3.625000
 20
0.000000
 30
0.000000
  0
POINT
  8
Default
 62
     7
 10
3.365014
 20
5.983720
 30
0.000000
  0
CIRCLE
  8
Default
 62
     7
  6
CONTINUOUS
 10
3.365014
 20
5.983720
 30
0.000000
 40
0.218750
  0
POINT
  8
Default
 62
     7
 10
-0.845143
 20
7.427069
 30
0.000000
  0
CIRCLE
  8
Default
 62
     7
  6
CONTINUOUS
 10
-0.845143
 20
7.427069
 30
0.000000
 40
0.218750
  0
POINT
  8
Default
 62
     7
 10
-3.898968
 20
-5.975472
 30
0.000000
  0
CIRCLE
  8
Default
 62
     7
  6
CONTINUOUS
 10
-3.898968
 20
-5.975472
 30
0.000000
 40
0.250000
  0
POINT
  8
Default
 62
     7
 10
5.077552
 20
-5.223954
 30
0.000000
  0
CIRCLE
  8
Default
 62
     7
  6
CONTINUOUS
 10
5.077552
 20
-5.223954
 30
0.000000
 40
0.218750
  0
LINE
  8
Default
 62
     7
  6
CONTINUOUS
 10
7.111097
 20
-1.159448
 30
0.000000
 11
6.936823
 21
-2.553290
 31
0.000000
  0
ARC
  8
Default
 62
     7
  6
CONTINUOUS
 10
4.952275
 20
-2.305159
 30
0.000000
 40
2.000000
 50
333.488215
 51
352.873208
  0
LINE
  8
Default
 62
     7
  6
CONTINUOUS
 10
6.741960
 20
-3.197922
 30
0.000000
 11
5.601034
 21
-5.485087
 31
0.000000
  0
ARC
  8
Default
 62
     7
  6
CONTINUOUS
 10
5.077552
 20
-5.223954
 30
0.000000
 40
0.585000
 50
268.119116
 51
333.488215
  0
LINE
  8
Default
 62
     7
  6
CONTINUOUS
 10
4.633016
 20
-5.794671
 30
0.000000
 11
5.058351
 21
-5.808639
 31
0.000000
  0
ARC
  8
Default
 62
     7
  6
CONTINUOUS
 10
4.600195
 20
-6.794132
 30
0.000000
 40
1.000000
 50
88.119116
 51
124.101280
  0
ARC
  8
Default
 62
     7
  6
CONTINUOUS
 10
0.000000
 20
0.000000
 30
0.000000
 40
7.205000
 50
255.740966
 51
304.101280
  0
LINE
  8
Default
 62
     7
  6
CONTINUOUS
 10
-1.774635
 20
-6.983029
 30
0.000000
 11
-4.012377
 21
-6.482955
 31
0.000000
  0
ARC
  8
Default
 62
     7
  6
CONTINUOUS
 10
-3.898968
 20
-5.975472
 30
0.000000
 40
0.520000
 50
210.903543
 51
257.402937
  0
LINE
  8
Default
 62
     7
  6
CONTINUOUS
 10
-4.879948
 20
-5.349078
 30
0.000000
 11
-4.345146
 21
-6.242541
 31
0.000000
  0
POINT
  8
Default
 62
     7
 10
0.000000
 20
0.000000
 30
0.000000
  0
ARC
  8
Default
 62
     7
  6
CONTINUOUS
 10
-4.665439
 20
-5.220679
 30
0.000000
 40
0.250000
 50
159.991034
 51
210.903543
  0
ARC
  8
Default
 62
     7
  6
CONTINUOUS
 10
-5.839988
 20
-4.792970
 30
0.000000
 40
1.000000
 50
339.991034
 51
456.442683
  0
POINT
  8
Default
 62
     7
 10
-5.839988
 20
-4.792970
 30
0.000000
  0
ARC
  8
Default
 62
     7
  6
CONTINUOUS
 10
-5.980250
 20
-3.550864
 30
-0.000000
 40
0.250000
 50
210.700366
 51
276.442683
  0
POINT
  8
Default
 62
     7
 10
-5.679713
 20
3.109097
 30
0.000000
  0
ARC
  8
Default
 62
     7
  6
CONTINUOUS
 10
0.000000
 20
0.000000
 30
0.000000
 40
7.205000
 50
194.200628
 51
210.700366
  0
LINE
  8
Default
 62
     7
  6
CONTINUOUS
 10
-6.984834
 20
-1.767516
 30
0.000000
 11
-7.360775
 21
-0.423578
 31
0.000000
  0
ARC
  8
Default
 62
     7
  6
CONTINUOUS
 10
-6.831107
 20
-0.275414
 30
0.000000
 40
0.550000
 50
159.396846
 51
195.627919
  0
ARC
  8
Default
 62
     7
  6
CONTINUOUS
 10
-9.218010
 20
0.621913
 30
-0.000000
 40
2.000000
 50
339.396846
 51
395.104630
  0
ARC
  8
Default
 62
     7
  6
CONTINUOUS
 10
-5.679713
 20
3.109097
 30
0.000000
 40
2.325000
 50
80.757619
 51
215.104630
  0
ARC
  8
Default
 62
     7
  6
CONTINUOUS
 10
-5.145681
 20
6.390931
 30
-0.000000
 40
1.000000
 50
260.757619
 51
308.839403
  0
ARC
  8
Default
 62
     7
  6
CONTINUOUS
 10
0.000000
 20
-0.000000
 30
0.000000
 40
7.205000
 50
115.770599
 51
128.839403
  0
ARC
  8
Default
 62
     7
  6
CONTINUOUS
 10
-3.567280
 20
7.388947
 30
-0.000000
 40
1.000000
 50
295.770599
 51
355.000000
  0
LINE
  8
Default
 62
     7
  6
CONTINUOUS
 10
-2.571085
 20
7.301791
 30
-0.000000
 11
-2.529966
 21
7.771789
 31
-0.000000
  0
ARC
  8
Default
 62
     7
  6
CONTINUOUS
 10
-2.280917
 20
7.750000
 30
-0.000000
 40
0.250000
 50
90.000000
 51
175.000000
  0
LINE
  8
Default
 62
     7
  6
CONTINUOUS
 10
-2.280917
 20
8.000000
 30
-0.000000
 11
-0.202270
 21
8.000000
 31
-0.000000
  0
ARC
  8
Default
 62
     7
  6
CONTINUOUS
 10
-0.202270
 20
7.000000
 30
-0.000000
 40
1.000000
 50
67.130089
 51
90.000000
  0
LINE
  8
Default
 62
     7
  6
CONTINUOUS
 10
0.186370
 20
7.921390
 30
-0.000000
 11
3.530632
 21
6.510787
 31
-0.000000
  0
ARC
  8
Default
 62
     7
  6
CONTINUOUS
 10
3.141992
 20
5.589397
 30
-0.000000
 40
1.000000
 50
53.886342
 51
67.130089
  0
LINE
  8
Default
 62
     7
  6
CONTINUOUS
 10
3.731381
 20
6.397247
 30
-0.000000
 11
5.139897
 21
5.369625
 31
-0.000000
  0
ARC
  8
Default
 62
     7
  6
CONTINUOUS
 10
4.550508
 20
4.561776
 30
-0.000000
 40
1.000000
 50
29.437637
 51
53.886342
  0
LINE
  8
Default
 62
     7
  6
CONTINUOUS
 10
5.421399
 20
5.053252
 30
-0.000000
 11
6.274771
 21
3.541084
 31
0.000000
  0
ARC
  8
Default
 62
     7
  6
CONTINUOUS
 10
0.000000
 20
0.000000
 30
0.000000
 40
7.205000
 50
350.739541
 51
389.437637
  0
INSERT
  8
CAM
 62
     7
  2
Object_0
 10
-10.160000
 20
-10.160000
 30
0.000000
  0
LINE
  8
DIM
 62
     7
  6
CONTINUOUS
 10
-7.106708
 20
-0.270334
 30
0.000000
 11
-7.106708
 21
0.757806
 31
0.000000
  0
LINE
  8
DIM
 62
     7
  6
CONTINUOUS
 10
-6.555508
 20
-0.270334
 30
0.000000
 11
-6.555508
 21
0.757806
 31
0.000000
  0
LINE
  8
DIM
 62
     7
  6
CONTINUOUS
 10
-7.203768
 20
0.750186
 30
0.000000
 11
-6.458448
 21
0.750186
 31
0.000000
  0
LINE
  8
DIM
 62
     7
  6
CONTINUOUS
 10
-7.106708
 20
0.750186
 30
0.000000
 11
-7.056708
 21
0.775186
 31
0.000000
  0
LINE
  8
DIM
 62
     7
  6
CONTINUOUS
 10
-7.106708
 20
0.750186
 30
0.000000
 11
-7.056708
 21
0.725186
 31
0.000000
  0
LINE
  8
DIM
 62
     7
  6
CONTINUOUS
 10
-6.555508
 20
0.750186
 30
0.000000
 11
-6.605508
 21
0.725186
 31
0.000000
  0
LINE
  8
DIM
 62
     7
  6
CONTINUOUS
 10
-6.555508
 20
0.750186
 30
0.000000
 11
-6.605508
 21
0.775186
 31
0.000000
  0
TEXT
  8
DIM
 62
     7
 10
-7.193608
 20
0.851786
 30
0.000000
 40
0.250000
  1
0.551
 72
     1
 11
-6.831108
 21
0.851786
 31
0.000000
  0
LINE
  8
DIM
 62
     7
  6
CONTINUOUS
 10
6.035610
 20
-2.710864
 30
0.000000
 11
6.035610
 21
-1.682724
 31
0.000000
  0
LINE
  8
DIM
 62
     7
  6
CONTINUOUS
 10
6.586810
 20
-2.710864
 30
0.000000
 11
6.586810
 21
-1.682724
 31
0.000000
  0
LINE
  8
DIM
 62
     7
  6
CONTINUOUS
 10
5.938550
 20
-1.690344
 30
0.000000
 11
6.683870
 21
-1.690344
 31
0.000000
  0
LINE
  8
DIM
 62
     7
  6
CONTINUOUS
 10
6.035610
 20
-1.690344
 30
0.000000
 11
6.085610
 21
-1.665344
 31
0.000000
  0
LINE
  8
DIM
 62
     7
  6
CONTINUOUS
 10
6.035610
 20
-1.690344
 30
0.000000
 11
6.085610
 21
-1.715344
 31
0.000000
  0
LINE
  8
DIM
 62
     7
  6
CONTINUOUS
 10
6.586810
 20
-1.690344
 30
0.000000
 11
6.536810
 21
-1.715344
 31
0.000000
  0
LINE
  8
DIM
 62
     7
  6
CONTINUOUS
 10
6.586810
 20
-1.690344
 30
0.000000
 11
6.536810
 21
-1.665344
 31
0.000000
  0
TEXT
  8
DIM
 62
     7
 10
5.948710
 20
-1.588745
 30
0.000000
 40
0.250000
  1
0.551
 72
     1
 11
6.311210
 21
-1.588745
 31
0.000000
  0
LINE
  8
DIM
 62
     7
  6
CONTINUOUS
 10
3.146264
 20
5.988800
 30
0.000000
 11
3.146264
 21
6.960090
 31
0.000000
  0
LINE
  8
DIM
 62
     7
  6
CONTINUOUS
 10
3.583764
 20
5.988800
 30
0.000000
 11
3.583764
 21
6.960090
 31
0.000000
  0
LINE
  8
DIM
 62
     7
  6
CONTINUOUS
 10
2.954854
 20
6.952470
 30
0.000000
 11
3.775174
 21
6.952470
 31
0.000000
  0
LINE
  8
DIM
 62
     7
  6
CONTINUOUS
 10
3.146264
 20
6.952470
 30
0.000000
 11
3.196264
 21
6.977470
 31
0.000000
  0
LINE
  8
DIM
 62
     7
  6
CONTINUOUS
 10
3.146264
 20
6.952470
 30
0.000000
 11
3.196264
 21
6.927470
 31
0.000000
  0
LINE
  8
DIM
 62
     7
  6
CONTINUOUS
 10
3.583764
 20
6.952470
 30
0.000000
 11
3.533764
 21
6.927470
 31
0.000000
  0
LINE
  8
DIM
 62
     7
  6
CONTINUOUS
 10
3.583764
 20
6.952470
 30
0.000000
 11
3.533764
 21
6.977470
 31
0.000000
  0
TEXT
  8
DIM
 62
     7
 10
2.965015
 20
7.054070
 30
0.000000
 40
0.250000
  1
0.438
 72
     1
 11
3.365014
 21
7.054070
 31
0.000000
  0
LINE
  8
DIM
 62
     7
  6
CONTINUOUS
 10
-1.063893
 20
7.432149
 30
0.000000
 11
-1.063893
 21
8.403439
 31
0.000000
  0
LINE
  8
DIM
 62
     7
  6
CONTINUOUS
 10
-0.626393
 20
7.432149
 30
0.000000
 11
-0.626393
 21
8.403439
 31
0.000000
  0
LINE
  8
DIM
 62
     7
  6
CONTINUOUS
 10
-1.255303
 20
8.395819
 30
0.000000
 11
-0.434983
 21
8.395819
 31
0.000000
  0
LINE
  8
DIM
 62
     7
  6
CONTINUOUS
 10
-1.063893
 20
8.395819
 30
0.000000
 11
-1.013893
 21
8.420819
 31
0.000000
  0
LINE
  8
DIM
 62
     7
  6
CONTINUOUS
 10
-1.063893
 20
8.395819
 30
0.000000
 11
-1.013893
 21
8.370819
 31
0.000000
  0
LINE
  8
DIM
 62
     7
  6
CONTINUOUS
 10
-0.626393
 20
8.395819
 30
0.000000
 11
-0.676393
 21
8.370819
 31
0.000000
  0
LINE
  8
DIM
 62
     7
  6
CONTINUOUS
 10
-0.626393
 20
8.395819
 30
0.000000
 11
-0.676393
 21
8.420819
 31
0.000000
  0
TEXT
  8
DIM
 62
     7
 10
-1.245143
 20
8.497420
 30
0.000000
 40
0.250000
  1
0.438
 72
     1
 11
-0.845143
 21
8.497420
 31
0.000000
  0
LINE
  8
DIM
 62
     7
  6
CONTINUOUS
 10
-4.148968
 20
-5.970392
 30
0.000000
 11
-4.148968
 21
-4.967852
 31
0.000000
  0
LINE
  8
DIM
 62
     7
  6
CONTINUOUS
 10
-3.648968
 20
-5.970392
 30
0.000000
 11
-3.648968
 21
-4.967852
 31
0.000000
  0
LINE
  8
DIM
 62
     7
  6
CONTINUOUS
 10
-4.296628
 20
-4.975472
 30
0.000000
 11
-3.501308
 21
-4.975472
 31
0.000000
  0
LINE
  8
DIM
 62
     7
  6
CONTINUOUS
 10
-4.148968
 20
-4.975472
 30
0.000000
 11
-4.098968
 21
-4.950472
 31
0.000000
  0
LINE
  8
DIM
 62
     7
  6
CONTINUOUS
 10
-4.148968
 20
-4.975472
 30
0.000000
 11
-4.098968
 21
-5.000472
 31
0.000000
  0
LINE
  8
DIM
 62
     7
  6
CONTINUOUS
 10
-3.648968
 20
-4.975472
 30
0.000000
 11
-3.698968
 21
-5.000472
 31
0.000000
  0
LINE
  8
DIM
 62
     7
  6
CONTINUOUS
 10
-3.648968
 20
-4.975472
 30
0.000000
 11
-3.698968
 21
-4.950472
 31
0.000000
  0
TEXT
  8
DIM
 62
     7
 10
-4.286468
 20
-4.873872
 30
0.000000
 40
0.250000
  1
0.500
 72
     1
 11
-3.898968
 21
-4.873872
 31
0.000000
  0
LINE
  8
DIM
 62
     7
  6
CONTINUOUS
 10
4.858801
 20
-5.218874
 30
0.000000
 11
4.858801
 21
-4.247584
 31
0.000000
  0
LINE
  8
DIM
 62
     7
  6
CONTINUOUS
 10
5.296301
 20
-5.218874
 30
0.000000
 11
5.296301
 21
-4.247584
 31
0.000000
  0
LINE
  8
DIM
 62
     7
  6
CONTINUOUS
 10
4.667391
 20
-4.255204
 30
0.000000
 11
5.487711
 21
-4.255204
 31
0.000000
  0
LINE
  8
DIM
 62
     7
  6
CONTINUOUS
 10
4.858801
 20
-4.255204
 30
0.000000
 11
4.908801
 21
-4.230204
 31
0.000000
  0
LINE
  8
DIM
 62
     7
  6
CONTINUOUS
 10
4.858801
 20
-4.255204
 30
0.000000
 11
4.908801
 21
-4.280204
 31
0.000000
  0
LINE
  8
DIM
 62
     7
  6
CONTINUOUS
 10
5.296301
 20
-4.255204
 30
0.000000
 11
5.246301
 21
-4.280204
 31
0.000000
  0
LINE
  8
DIM
 62
     7
  6
CONTINUOUS
 10
5.296301
 20
-4.255204
 30
0.000000
 11
5.246301
 21
-4.230204
 31
0.000000
  0
TEXT
  8
DIM
 62
     7
 10
4.677551
 20
-4.153604
 30
0.000000
 40
0.250000
  1
0.438
 72
     1
 11
5.077551
 21
-4.153604
 31
0.000000
  0
LINE
  8
DIM
 62
     7
  6
CONTINUOUS
 10
0.000000
 20
-0.005080
 30
0.000000
 11
0.000000
 21
-0.012291
 31
0.000000
  0
LINE
  8
DIM
 62
     7
  6
CONTINUOUS
 10
7.205000
 20
-0.005080
 30
0.000000
 11
7.205000
 21
-0.012291
 31
0.000000
  0
LINE
  8
DIM
 62
     7
  6
CONTINUOUS
 10
0.000000
 20
-0.004671
 30
0.000000
 11
8.197732
 21
-0.004671
 31
0.000000
  0
LINE
  8
DIM
 62
     7
  6
CONTINUOUS
 10
0.000000
 20
-0.004671
 30
0.000000
 11
0.050000
 21
0.020329
 31
0.000000
  0
LINE
  8
DIM
 62
     7
  6
CONTINUOUS
 10
0.000000
 20
-0.004671
 30
0.000000
 11
0.050000
 21
-0.029671
 31
0.000000
  0
LINE
  8
DIM
 62
     7
  6
CONTINUOUS
 10
7.205000
 20
-0.004671
 30
0.000000
 11
7.155000
 21
-0.029671
 31
0.000000
  0
LINE
  8
DIM
 62
     7
  6
CONTINUOUS
 10
7.205000
 20
-0.004671
 30
0.000000
 11
7.155000
 21
0.020329
 31
0.000000
  0
TEXT
  8
DIM
 62
     7
 10
7.412572
 20
0.096929
 30
0.000000
 40
0.250000
  1
7.205
 72
     1
 11
7.800072
 21
0.096929
 31
0.000000
  0
LINE
  8
DIM
 62
     7
  6
CONTINUOUS
 10
0.000000
 20
-0.005080
 30
0.000000
 11
0.000000
 21
-0.012291
 31
0.000000
  0
LINE
  8
DIM
 62
     7
  6
CONTINUOUS
 10
-8.004713
 20
3.104017
 30
0.000000
 11
-8.004713
 21
-0.012291
 31
0.000000
  0
LINE
  8
DIM
 62
     7
  6
CONTINUOUS
 10
0.000000
 20
-0.004671
 30
0.000000
 11
-8.833628
 21
-0.004671
 31
0.000000
  0
LINE
  8
DIM
 62
     7
  6
CONTINUOUS
 10
0.000000
 20
-0.004671
 30
0.000000
 11
-0.050000
 21
-0.029671
 31
0.000000
  0
LINE
  8
DIM
 62
     7
  6
CONTINUOUS
 10
0.000000
 20
-0.004671
 30
0.000000
 11
-0.050000
 21
0.020329
 31
0.000000
  0
LINE
  8
DIM
 62
     7
  6
CONTINUOUS
 10
-8.004713
 20
-0.004671
 30
0.000000
 11
-7.954713
 21
0.020329
 31
0.000000
  0
LINE
  8
DIM
 62
     7
  6
CONTINUOUS
 10
-8.004713
 20
-0.004671
 30
0.000000
 11
-7.954713
 21
-0.029671
 31
0.000000
  0
TEXT
  8
DIM
 62
     7
 10
-8.823468
 20
0.096929
 30
0.000000
 40
0.250000
  1
8.005
 50
0.000000
 72
     1
 11
-8.435968
 21
0.096929
 31
0.000000
  0
LINE
  8
DIM
 62
     7
  6
CONTINUOUS
 10
-0.005080
 20
0.000000
 30
0.000000
 11
-8.006744
 21
0.000000
 31
0.000000
  0
LINE
  8
DIM
 62
     7
  6
CONTINUOUS
 10
-0.395836
 20
8.004138
 30
0.000000
 11
-8.006744
 21
8.004138
 31
0.000000
  0
LINE
  8
DIM
 62
     7
  6
CONTINUOUS
 10
-7.999124
 20
0.000000
 30
0.000000
 11
-7.999124
 21
8.004138
 31
0.000000
  0
LINE
  8
DIM
 62
     7
  6
CONTINUOUS
 10
-7.999124
 20
0.000000
 30
0.000000
 11
-8.024124
 21
0.050000
 31
0.000000
  0
LINE
  8
DIM
 62
     7
  6
CONTINUOUS
 10
-7.999124
 20
0.000000
 30
0.000000
 11
-7.974124
 21
0.050000
 31
0.000000
  0
LINE
  8
DIM
 62
     7
  6
CONTINUOUS
 10
-7.999124
 20
8.004138
 30
0.000000
 11
-7.974124
 21
7.954138
 31
0.000000
  0
LINE
  8
DIM
 62
     7
  6
CONTINUOUS
 10
-7.999124
 20
8.004138
 30
0.000000
 11
-8.024124
 21
7.954138
 31
0.000000
  0
TEXT
  8
DIM
 62
     7
 10
-8.100724
 20
5.601935
 30
0.000000
 40
0.250000
  1
8.004
 50
90.000003
 72
     1
 11
-8.100724
 21
6.001935
 31
0.000000
  0
LINE
  8
DIM
 62
     7
  6
CONTINUOUS
 10
-0.005080
 20
0.000000
 30
0.000000
 11
-8.006744
 21
0.000000
 31
0.000000
  0
LINE
  8
DIM
 62
     7
  6
CONTINUOUS
 10
-0.005080
 20
-7.205000
 30
0.000000
 11
-8.006744
 21
-7.205000
 31
0.000000
  0
LINE
  8
DIM
 62
     7
  6
CONTINUOUS
 10
-7.999124
 20
0.000000
 30
0.000000
 11
-7.999124
 21
-7.205000
 31
0.000000
  0
LINE
  8
DIM
 62
     7
  6
CONTINUOUS
 10
-7.999124
 20
0.000000
 30
0.000000
 11
-7.974124
 21
-0.050000
 31
0.000000
  0
LINE
  8
DIM
 62
     7
  6
CONTINUOUS
 10
-7.999124
 20
0.000000
 30
0.000000
 11
-8.024124
 21
-0.050000
 31
0.000000
  0
LINE
  8
DIM
 62
     7
  6
CONTINUOUS
 10
-7.999124
 20
-7.205000
 30
0.000000
 11
-8.024124
 21
-7.155000
 31
0.000000
  0
LINE
  8
DIM
 62
     7
  6
CONTINUOUS
 10
-7.999124
 20
-7.205000
 30
0.000000
 11
-7.974124
 21
-7.155000
 31
0.000000
  0
TEXT
  8
DIM
 62
     7
 10
-8.100724
 20
-3.340869
 30
0.000000
 40
0.250000
  1
7.205
 50
90.000003
 72
     1
 11
-8.100724
 21
-2.953369
 31
0.000000
  0
CIRCLE
  8
CAM
 62
     7
  6
CONTINUOUS
 10
6.311210
 20
-2.715944
 30
0.000000
 40
0.025600
  0
CIRCLE
  8
CAM
 62
     7
  6
CONTINUOUS
 10
-6.831107
 20
-0.275414
 30
0.000000
 40
0.025600
  0
LINE
  8
CAM
 62
     7
  6
CONTINUOUS
 10
7.487295
 20
-1.213525
 30
0.000000
 11
7.313887
 21
-2.600434
 31
0.000000
  0
ARC
  8
CAM
 62
     7
  6
CONTINUOUS
 10
4.952275
 20
-2.305159
 30
0.000000
 40
2.380000
 50
333.488215
 51
352.873208
  0
LINE
  8
CAM
 62
     7
  6
CONTINUOUS
 10
7.082001
 20
-3.367547
 30
0.000000
 11
5.941075
 21
-5.654712
 31
0.000000
  0
ARC
  8
CAM
 62
     7
  6
CONTINUOUS
 10
5.077552
 20
-5.223954
 30
0.000000
 40
0.965000
 50
268.119116
 51
333.488215
  0
LINE
  8
CAM
 62
     7
  6
CONTINUOUS
 10
5.045879
 20
-6.188434
 30
0.000000
 11
4.620544
 21
-6.174466
 31
0.000000
  0
ARC
  8
CAM
 62
     7
  6
CONTINUOUS
 10
4.600195
 20
-6.794132
 30
0.000000
 40
0.620000
 50
88.119116
 51
124.101280
  0
ARC
  8
CAM
 62
     7
  6
CONTINUOUS
 10
0.000000
 20
0.000000
 30
0.000000
 40
7.585000
 50
255.783136
 51
304.101280
  0
LINE
  8
CAM
 62
     7
  6
CONTINUOUS
 10
-1.862821
 20
-7.352695
 30
0.000000
 11
-4.095252
 21
-6.853808
 31
0.000000
  0
ARC
  8
CAM
 62
     7
  6
CONTINUOUS
 10
-3.898968
 20
-5.975472
 30
0.000000
 40
0.900000
 50
210.903543
 51
257.402937
  0
LINE
  8
CAM
 62
     7
  6
CONTINUOUS
 10
-4.671198
 20
-6.437707
 30
0.000000
 11
-5.206000
 21
-5.544243
 31
0.000000
  0
ARC
  8
CAM
 62
     7
  6
CONTINUOUS
 10
-4.665439
 20
-5.220679
 30
0.000000
 40
0.630000
 50
159.991034
 51
210.903543
  0
ARC
  8
CAM
 62
     7
  6
CONTINUOUS
 10
-5.839988
 20
-4.792970
 30
0.000000
 40
0.620000
 50
339.991034
 51
456.442683
  0
ARC
  8
CAM
 62
     7
  6
CONTINUOUS
 10
-5.980250
 20
-3.550864
 30
-0.000000
 40
0.630000
 50
210.700366
 51
276.442683
  0
ARC
  8
CAM
 62
     7
  6
CONTINUOUS
 10
0.000000
 20
0.000000
 30
0.000000
 40
7.585000
 50
194.236842
 51
210.700366
  0
LINE
  8
CAM
 62
     7
  6
CONTINUOUS
 10
-7.352045
 20
-1.865384
 30
0.000000
 11
-7.726727
 21
-0.525946
 31
0.000000
  0
ARC
  8
CAM
 62
     7
  6
CONTINUOUS
 10
-6.831107
 20
-0.275414
 30
0.000000
 40
0.930000
 50
159.396846
 51
195.627919
  0
ARC
  8
CAM
 62
     7
  6
CONTINUOUS
 10
-9.218010
 20
0.621913
 30
-0.000000
 40
1.620000
 50
339.396846
 51
395.104630
  0
ARC
  8
CAM
 62
     7
  6
CONTINUOUS
 10
-5.679713
 20
3.109097
 30
0.000000
 40
2.705000
 50
80.757619
 51
215.104630
  0
ARC
  8
CAM
 62
     7
  6
CONTINUOUS
 10
-5.145681
 20
6.390931
 30
-0.000000
 40
0.620000
 50
260.757619
 51
308.839403
  0
ARC
  8
CAM
 62
     7
  6
CONTINUOUS
 10
0.000000
 20
-0.000000
 30
0.000000
 40
7.585000
 50
115.770599
 51
128.839403
  0
ARC
  8
CAM
 62
     7
  6
CONTINUOUS
 10
-3.567280
 20
7.388947
 30
-0.000000
 40
0.620000
 50
295.770599
 51
355.000000
  0
LINE
  8
CAM
 62
     7
  6
CONTINUOUS
 10
-2.949639
 20
7.334910
 30
-0.000000
 11
-2.908520
 21
7.804908
 31
-0.000000
  0
ARC
  8
CAM
 62
     7
  6
CONTINUOUS
 10
-2.280917
 20
7.750000
 30
-0.000000
 40
0.630000
 50
90.000000
 51
175.000000
  0
LINE
  8
CAM
 62
     7
  6
CONTINUOUS
 10
-2.280917
 20
8.380000
 30
-0.000000
 11
-0.202270
 21
8.380000
 31
-0.000000
  0
ARC
  8
CAM
 62
     7
  6
CONTINUOUS
 10
-0.202270
 20
7.000000
 30
-0.000000
 40
1.380000
 50
67.130089
 51
90.000000
  0
LINE
  8
CAM
 62
     7
  6
CONTINUOUS
 10
0.334053
 20
8.271518
 30
-0.000000
 11
3.678316
 21
6.860915
 31
-0.000000
  0
ARC
  8
CAM
 62
     7
  6
CONTINUOUS
 10
3.141992
 20
5.589397
 30
-0.000000
 40
1.380000
 50
53.886342
 51
67.130089
  0
LINE
  8
CAM
 62
     7
  6
CONTINUOUS
 10
3.955349
 20
6.704230
 30
-0.000000
 11
5.363865
 21
5.676608
 31
-0.000000
  0
ARC
  8
CAM
 62
     7
  6
CONTINUOUS
 10
4.550508
 20
4.561776
 30
-0.000000
 40
1.380000
 50
29.437637
 51
53.886342
  0
LINE
  8
CAM
 62
     7
  6
CONTINUOUS
 10
5.752338
 20
5.240013
 30
-0.000000
 11
6.605709
 21
3.727845
 31
0.000000
  0
ARC
  8
CAM
 62
     7
  6
CONTINUOUS
 10
0.000000
 20
0.000000
 30
0.000000
 40
7.585000
 50
350.793681
 51
389.437637
  0
LINE
  8
CAM
 62
     7
  6
CONTINUOUS
 10
7.482345
 20
-1.212814
 30
0.000000
 11
7.308926
 21
-2.599814
 31
0.000000
  0
ARC
  8
CAM
 62
     7
  6
CONTINUOUS
 10
4.952275
 20
-2.305159
 30
0.000000
 40
2.375000
 50
333.488215
 51
352.873208
  0
LINE
  8
CAM
 62
     7
  6
CONTINUOUS
 10
7.077526
 20
-3.365316
 30
0.000000
 11
5.936600
 21
-5.652481
 31
0.000000
  0
ARC
  8
CAM
 62
     7
  6
CONTINUOUS
 10
5.077552
 20
-5.223954
 30
0.000000
 40
0.960000
 50
268.119116
 51
333.488215
  0
LINE
  8
CAM
 62
     7
  6
CONTINUOUS
 10
5.046043
 20
-6.183437
 30
0.000000
 11
4.620708
 21
-6.169469
 31
0.000000
  0
ARC
  8
CAM
 62
     7
  6
CONTINUOUS
 10
4.600195
 20
-6.794132
 30
0.000000
 40
0.625000
 50
88.119116
 51
124.101280
  0
ARC
  8
CAM
 62
     7
  6
CONTINUOUS
 10
0.000000
 20
0.000000
 30
0.000000
 40
7.580000
 50
255.782601
 51
304.101280
  0
LINE
  8
CAM
 62
     7
  6
CONTINUOUS
 10
-1.861661
 20
-7.347831
 30
0.000000
 11
-4.094162
 21
-6.848928
 31
0.000000
  0
ARC
  8
CAM
 62
     7
  6
CONTINUOUS
 10
-3.898968
 20
-5.975472
 30
0.000000
 40
0.895000
 50
210.903543
 51
257.402937
  0
LINE
  8
CAM
 62
     7
  6
CONTINUOUS
 10
-4.666908
 20
-6.435139
 30
0.000000
 11
-5.201710
 21
-5.541675
 31
0.000000
  0
ARC
  8
CAM
 62
     7
  6
CONTINUOUS
 10
-4.665439
 20
-5.220679
 30
0.000000
 40
0.625000
 50
159.991034
 51
210.903543
  0
ARC
  8
CAM
 62
     7
  6
CONTINUOUS
 10
-5.839988
 20
-4.792970
 30
0.000000
 40
0.625000
 50
339.991034
 51
456.442683
  0
ARC
  8
CAM
 62
     7
  6
CONTINUOUS
 10
-5.980250
 20
-3.550864
 30
-0.000000
 40
0.625000
 50
210.700366
 51
276.442683
  0
ARC
  8
CAM
 62
     7
  6
CONTINUOUS
 10
0.000000
 20
0.000000
 30
0.000000
 40
7.580000
 50
194.236384
 51
210.700366
  0
LINE
  8
CAM
 62
     7
  6
CONTINUOUS
 10
-7.347214
 20
-1.864096
 30
0.000000
 11
-7.721911
 21
-0.524599
 31
0.000000
  0
ARC
  8
CAM
 62
     7
  6
CONTINUOUS
 10
-6.831107
 20
-0.275414
 30
0.000000
 40
0.925000
 50
159.396846
 51
195.627919
  0
ARC
  8
CAM
 62
     7
  6
CONTINUOUS
 10
-9.218010
 20
0.621913
 30
-0.000000
 40
1.625000
 50
339.396846
 51
395.104630
  0
ARC
  8
CAM
 62
     7
  6
CONTINUOUS
 10
-5.679713
 20
3.109097
 30
0.000000
 40
2.700000
 50
80.757619
 51
215.104630
  0
ARC
  8
CAM
 62
     7
  6
CONTINUOUS
 10
-5.145681
 20
6.390931
 30
-0.000000
 40
0.625000
 50
260.757619
 51
308.839403
  0
ARC
  8
CAM
 62
     7
  6
CONTINUOUS
 10
0.000000
 20
-0.000000
 30
0.000000
 40
7.580000
 50
115.770599
 51
128.839403
  0
ARC
  8
CAM
 62
     7
  6
CONTINUOUS
 10
-3.567280
 20
7.388947
 30
-0.000000
 40
0.625000
 50
295.770599
 51
355.000000
  0
LINE
  8
CAM
 62
     7
  6
CONTINUOUS
 10
-2.944658
 20
7.334475
 30
-0.000000
 11
-2.903539
 21
7.804472
 31
-0.000000
  0
ARC
  8
CAM
 62
     7
  6
CONTINUOUS
 10
-2.280917
 20
7.750000
 30
-0.000000
 40
0.625000
 50
90.000000
 51
175.000000
  0
LINE
  8
CAM
 62
     7
  6
CONTINUOUS
 10
-2.280917
 20
8.375000
 30
-0.000000
 11
-0.202270
 21
8.375000
 31
-0.000000
  0
ARC
  8
CAM
 62
     7
  6
CONTINUOUS
 10
-0.202270
 20
7.000000
 30
-0.000000
 40
1.375000
 50
67.130089
 51
90.000000
  0
LINE
  8
CAM
 62
     7
  6
CONTINUOUS
 10
0.332110
 20
8.266911
 30
-0.000000
 11
3.676372
 21
6.856308
 31
-0.000000
  0
ARC
  8
CAM
 62
     7
  6
CONTINUOUS
 10
3.141992
 20
5.589397
 30
-0.000000
 40
1.375000
 50
53.886342
 51
67.130089
  0
LINE
  8
CAM
 62
     7
  6
CONTINUOUS
 10
3.952402
 20
6.700190
 30
-0.000000
 11
5.360918
 21
5.672569
 31
-0.000000
  0
ARC
  8
CAM
 62
     7
  6
CONTINUOUS
 10
4.550508
 20
4.561776
 30
-0.000000
 40
1.375000
 50
29.437637
 51
53.886342
  0
LINE
  8
CAM
 62
     7
  6
CONTINUOUS
 10
5.747983
 20
5.237555
 30
-0.000000
 11
6.601355
 21
3.725388
 31
0.000000
  0
ARC
  8
CAM
 62
     7
  6
CONTINUOUS
 10
0.000000
 20
0.000000
 30
0.000000
 40
7.580000
 50
350.792995
 51
389.437637
  0
CIRCLE
  8
CAM
 62
     7
  6
CONTINUOUS
 10
0.000000
 20
0.000000
 30
0.000000
 40
2.620000
  0
CIRCLE
  8
CAM
 62
     7
  6
CONTINUOUS
 10
0.000000
 20
0.000000
 30
0.000000
 40
2.625000
  0
TEXT
  8
DIM
 62
     7
 10
-6.747798
 20
7.079214
 30
0.000000
 40
0.250000
  1
Nissan Pickup
 72
     1
 11
-5.760298
 21
7.079214
 31
0.000000
  0
TEXT
  8
DIM
 62
     7
 10
-7.560298
 20
6.882363
 30
0.000000
 40
0.250000
  1
Countersink motor bolts
 72
     1
 11
-5.760298
 21
6.882363
 31
0.000000
  0
ENDSEC
  0
EOF
