  0
SECTION
  2
HEADER
  9
$ACADVER
  1
AC1006
  0
ENDSEC
  0
SECTION
  2
TABLES
  0
TABLE
  2
LTYPE
 70
    25
  0
LTYPE
  2
CONTINUOUS
 70
    64
  3
Solid line
 72
    64
 73
     0
 40
0.000000
  0
LTYPE
  2
DASHDOT
 70
    64
  3
__ . __ . __ . __ . __ . __ . __ . __ . __ . __
 72
    65
 73
     4
 40
1.000000
 49
0.500000
 49
-0.250000
 49
0.000000
 49
-0.250000
  0
LTYPE
  2
DASHED
 70
    64
  3
__ __ __ __ __ __ __ __ __ __ __ __ __ __ __ __
 72
    65
 73
     2
 40
0.750000
 49
0.500000
 49
-0.250000
  0
LTYPE
  2
DIVIDE
 70
    64
  3
____ . . ____ . . ____ . . ____ . . ____ . . __
 72
    65
 73
     6
 40
1.250000
 49
0.500000
 49
-0.250000
 49
0.000000
 49
-0.250000
 49
0.000000
 49
-0.250000
  0
LTYPE
  2
DOT
 70
    64
  3
. . . . . . . . . . . . . . . . . . . . . . . . 
 72
    65
 73
     2
 40
0.250000
 49
0.000000
 49
-0.250000
  0
ENDTAB
  0
ENDSEC
  0
SECTION
  2
ENTITIES
  0
POINT
  8
Default
 62
     7
 10
7.500000
 20
-3.975000
 30
0.000000
  0
CIRCLE
  8
Default
 62
     9
  6
CONTINUOUS
 10
0.000000
 20
0.000000
 30
-0.125000
 40
4.251000
  0
CIRCLE
  8
Default
 62
     9
  6
CONTINUOUS
 10
0.000000
 20
0.000000
 30
-0.625000
 40
3.000000
  0
CIRCLE
  8
Default
 62
     9
  6
CONTINUOUS
 10
3.625000
 20
0.000000
 30
0.000000
 40
0.265625
  0
CIRCLE
  8
Default
 62
     9
  6
CONTINUOUS
 10
0.000000
 20
-3.625000
 30
0.000000
 40
0.265625
  0
CIRCLE
  8
Default
 62
     9
  6
CONTINUOUS
 10
0.000000
 20
3.625000
 30
0.000000
 40
0.265625
  0
CIRCLE
  8
Default
 62
     9
  6
CONTINUOUS
 10
-3.625000
 20
0.000000
 30
0.000000
 40
0.265625
  0
POINT
  8
Default
 62
     7
 10
6.104533
 20
3.944461
 30
0.000000
  0
POINT
  8
Default
 62
     7
 10
8.400000
 20
1.075000
 30
0.000000
  0
POINT
  8
Default
 62
     7
 10
2.425000
 20
7.385000
 30
0.000000
  0
POINT
  8
Default
 62
     7
 10
-3.615000
 20
5.325000
 30
0.000000
  0
POINT
  8
Default
 62
     7
 10
2.522239
 20
-1.670475
 30
0.000000
  0
CIRCLE
  8
Default
 62
     6
  6
CONTINUOUS
 10
2.425000
 20
7.385000
 30
0.000000
 40
0.250000
  0
CIRCLE
  8
Default
 62
     6
  6
CONTINUOUS
 10
8.400000
 20
1.075000
 30
0.000000
 40
0.250000
  0
CIRCLE
  8
Default
 62
     6
  6
CONTINUOUS
 10
7.500000
 20
-3.975000
 30
0.000000
 40
0.250000
  0
CIRCLE
  8
Default
 62
     6
  6
CONTINUOUS
 10
4.200000
 20
-5.650000
 30
0.000000
 40
0.250000
  0
CIRCLE
  8
Default
 62
     6
  6
CONTINUOUS
 10
-3.615000
 20
5.325000
 30
0.000000
 40
0.156250
  0
LINE
  8
Default
 62
     7
  6
CONTINUOUS
 10
8.012372
 20
-4.063740
 30
0.000000
 11
8.887739
 21
0.990527
 31
0.000000
  0
ARC
  8
Default
 62
     7
  6
CONTINUOUS
 10
7.500000
 20
-3.975000
 30
0.000000
 40
0.520000
 50
298.924341
 51
350.174207
  0
LINE
  8
Default
 62
     7
  6
CONTINUOUS
 10
4.514375
 20
-6.218918
 30
0.000000
 11
7.751500
 21
-4.430135
 31
0.000000
  0
ARC
  8
Default
 62
     7
  6
CONTINUOUS
 10
4.200000
 20
-5.650000
 30
0.000000
 40
0.650000
 50
285.449473
 51
298.924341
  0
LINE
  8
Default
 62
     7
  6
CONTINUOUS
 10
-0.647444
 20
-7.664080
 30
0.000000
 11
4.373153
 21
-6.276513
 31
0.000000
  0
ARC
  8
Default
 62
     7
  6
CONTINUOUS
 10
-0.913832
 20
-6.700215
 30
0.000000
 40
1.000000
 50
265.008941
 51
285.449473
  0
LINE
  8
Default
 62
     7
  6
CONTINUOUS
 10
-3.132586
 20
-7.510254
 30
0.000000
 11
-1.000832
 21
-7.696423
 31
0.000000
  0
ARC
  8
Default
 62
     7
  6
CONTINUOUS
 10
-3.045585
 20
-6.514046
 30
0.000000
 40
1.000000
 50
251.565051
 51
265.008941
  0
LINE
  8
Default
 62
     7
  6
CONTINUOUS
 10
-4.491851
 20
-7.086050
 30
0.000000
 11
-3.361813
 21
-7.462729
 31
0.000000
  0
ARC
  8
Default
 62
     7
  6
CONTINUOUS
 10
-4.175623
 20
-6.137366
 30
0.000000
 40
1.000000
 50
221.120369
 51
251.565051
  0
LINE
  8
Default
 62
     7
  6
CONTINUOUS
 10
-5.232744
 20
-6.447018
 30
0.000000
 11
-4.928953
 21
-6.795009
 31
0.000000
  0
ARC
  8
Default
 62
     7
  6
CONTINUOUS
 10
-4.479414
 20
-5.789375
 30
0.000000
 40
1.000000
 50
203.420855
 51
221.120369
  0
LINE
  8
Default
 62
     7
  6
CONTINUOUS
 10
-5.491759
 20
-5.968156
 30
0.000000
 11
-5.397024
 21
-6.186856
 31
0.000000
  0
ARC
  8
Default
 62
     7
  6
CONTINUOUS
 10
-4.574149
 20
-5.570674
 30
0.000000
 40
1.000000
 50
193.360218
 51
203.420855
  0
LINE
  8
Default
 62
     7
  6
CONTINUOUS
 10
-6.424237
 20
-2.108476
 30
0.000000
 11
-5.547085
 21
-5.801746
 31
0.000000
  0
ARC
  8
Default
 62
     7
  6
CONTINUOUS
 10
-5.451300
 20
-1.877403
 30
0.000000
 40
1.000000
 50
180.636594
 51
193.360218
  0
LINE
  8
Default
 62
     7
  6
CONTINUOUS
 10
-6.451239
 20
-1.888514
 30
0.000000
 11
-6.496044
 21
2.143968
 31
0.000000
  0
LINE
  8
DIM
 62
     7
  6
CONTINUOUS
 10
4.111867
 20
3.951415
 30
0.000000
 11
6.104533
 21
3.944461
 31
0.000000
  0
LINE
  8
DIM
 62
     7
  6
CONTINUOUS
 10
5.983734
 20
3.944883
 30
0.000000
 11
5.903693
 21
3.933162
 31
0.000000
  0
LINE
  8
DIM
 62
     7
  6
CONTINUOUS
 10
5.983734
 20
3.944883
 30
0.000000
 11
5.903777
 21
3.957162
 31
0.000000
  0
TEXT
  8
DIM
 62
     7
 10
4.128406
 20
4.032638
 30
0.000000
 40
0.200000
  1
R0.242
 50
-0.199947
 72
     1
 11
4.524237
 21
4.031256
 31
0.000000
  0
LINE
  8
DIM
 62
     7
  6
CONTINUOUS
 10
-2.334838
 20
5.342044
 30
0.000000
 11
-3.615000
 21
5.325000
 31
0.000000
  0
LINE
  8
DIM
 62
     7
  6
CONTINUOUS
 10
-3.458764
 20
5.327080
 30
0.000000
 11
-3.378931
 21
5.340144
 31
0.000000
  0
LINE
  8
DIM
 62
     7
  6
CONTINUOUS
 10
-3.458764
 20
5.327080
 30
0.000000
 11
-3.378611
 21
5.316146
 31
0.000000
  0
TEXT
  8
DIM
 62
     7
 10
-3.143771
 20
5.412561
 30
0.000000
 40
0.200000
  1
R0.313
 50
0.762814
 72
     1
 11
-2.747973
 21
5.417831
 31
0.000000
  0
LINE
  8
DIM
 62
     7
  6
CONTINUOUS
 10
-0.008055
 20
0.000869
 30
0.000000
 11
-0.236419
 21
0.025581
 31
0.000000
  0
LINE
  8
DIM
 62
     7
  6
CONTINUOUS
 10
-0.762230
 20
-6.968443
 30
0.000000
 11
-0.990594
 21
-6.943731
 31
0.000000
  0
LINE
  8
DIM
 62
     7
  6
CONTINUOUS
 10
-0.224298
 20
0.024269
 30
0.000000
 11
-0.978473
 21
-6.945043
 31
0.000000
  0
LINE
  8
DIM
 62
     7
  6
CONTINUOUS
 10
-0.224298
 20
0.024269
 30
0.000000
 11
-0.220974
 21
-0.056557
 31
0.000000
  0
LINE
  8
DIM
 62
     7
  6
CONTINUOUS
 10
-0.224298
 20
0.024269
 30
0.000000
 11
-0.244835
 21
-0.053975
 31
0.000000
  0
LINE
  8
DIM
 62
     7
  6
CONTINUOUS
 10
-0.978473
 20
-6.945043
 30
0.000000
 11
-0.981796
 21
-6.864216
 31
0.000000
  0
LINE
  8
DIM
 62
     7
  6
CONTINUOUS
 10
-0.978473
 20
-6.945043
 30
0.000000
 11
-0.957936
 21
-6.866798
 31
0.000000
  0
TEXT
  8
DIM
 62
     7
 10
-0.932975
 20
-5.769108
 30
0.000000
 40
0.200000
  1
7.010
 50
83.823845
 72
     1
 11
-0.899915
 21
-5.463600
 31
0.000000
  0
LINE
  8
DIM
 62
     7
  6
CONTINUOUS
 10
6.111454
 20
3.940199
 30
0.000000
 11
6.484150
 21
3.710696
 31
0.000000
  0
LINE
  8
DIM
 62
     7
  6
CONTINUOUS
 10
-0.661774
 20
-7.059034
 30
0.000000
 11
-0.289076
 21
-7.288538
 31
0.000000
  0
LINE
  8
DIM
 62
     7
  6
CONTINUOUS
 10
6.473769
 20
3.717089
 30
0.000000
 11
-0.299458
 21
-7.282146
 31
0.000000
  0
LINE
  8
DIM
 62
     7
  6
CONTINUOUS
 10
6.473769
 20
3.717089
 30
0.000000
 11
6.442039
 21
3.642676
 31
0.000000
  0
LINE
  8
DIM
 62
     7
  6
CONTINUOUS
 10
6.473769
 20
3.717089
 30
0.000000
 11
6.421603
 21
3.655261
 31
0.000000
  0
LINE
  8
DIM
 62
     7
  6
CONTINUOUS
 10
-0.299458
 20
-7.282146
 30
0.000000
 11
-0.267728
 21
-7.207733
 31
0.000000
  0
LINE
  8
DIM
 62
     7
  6
CONTINUOUS
 10
-0.299458
 20
-7.282146
 30
0.000000
 11
-0.247292
 21
-7.220317
 31
0.000000
  0
TEXT
  8
DIM
 62
     7
 10
0.637552
 20
-5.605498
 30
0.000000
 40
0.200000
  1
12.917
 50
58.375626
 72
     1
 11
0.834182
 21
-5.286184
 31
0.000000
  0
LINE
  8
DIM
 62
     7
  6
CONTINUOUS
 10
0.000026
 20
-0.000005
 30
0.000000
 11
2.599161
 21
-1.633412
 31
0.000000
  0
POINT
  8
Default
 62
     7
 10
4.200000
 20
-5.650000
 30
0.000000
  0
ARC
  8
Default
 62
     7
  6
CONTINUOUS
 10
-5.496106
 20
2.155078
 30
0.000000
 40
1.000000
 50
141.439650
 51
180.636594
  0
LINE
  8
Default
 62
     7
  6
CONTINUOUS
 10
-6.278058
 20
2.778417
 30
0.000000
 11
-4.002066
 21
5.633553
 31
0.000000
  0
ARC
  8
Default
 62
     7
  6
CONTINUOUS
 10
-3.615000
 20
5.325000
 30
0.000000
 40
0.495000
 50
84.046892
 51
141.439650
  0
LINE
  8
Default
 62
     7
  6
CONTINUOUS
 10
-1.000000
 20
5.550000
 30
0.000000
 11
-3.563661
 21
5.817331
 31
0.000000
  0
POINT
  8
Default
 62
     7
 10
4.200000
 20
-5.650000
 30
0.000000
  0
ARC
  8
Default
 62
     7
  6
CONTINUOUS
 10
-1.081044
 20
7.842462
 30
0.000000
 40
2.293894
 50
272.024696
 51
349.904408
  0
ARC
  8
Default
 62
     7
  6
CONTINUOUS
 10
1.423462
 20
7.396540
 30
0.000000
 40
0.250000
 50
103.498488
 51
169.904408
  0
LINE
  8
Default
 62
     7
  6
CONTINUOUS
 10
1.365107
 20
7.639634
 30
0.000000
 11
2.309457
 21
7.866326
 31
0.000000
  0
ARC
  8
Default
 62
     7
  6
CONTINUOUS
 10
2.425000
 20
7.385000
 30
0.000000
 40
0.495000
 50
46.741457
 51
103.498488
  0
LINE
  8
Default
 62
     7
  6
CONTINUOUS
 10
2.764219
 20
7.745493
 30
0.000000
 11
6.553789
 21
4.179557
 31
0.000000
  0
LINE
  8
Default
 62
     7
  6
CONTINUOUS
 10
6.553789
 20
4.179557
 30
0.000000
 11
8.786768
 21
1.383927
 31
0.000000
  0
ARC
  8
Default
 62
     7
  6
CONTINUOUS
 10
8.400000
 20
1.075000
 30
0.000000
 40
0.495000
 50
350.174207
 51
398.615728
  0
CIRCLE
  8
CAM
 62
     7
  6
CONTINUOUS
 10
0.000000
 20
0.000000
 30
-0.625000
 40
2.632500
  0
CIRCLE
  8
CAM
 62
     7
  6
CONTINUOUS
 10
0.000000
 20
0.000000
 30
-0.625000
 40
2.637500
  0
CIRCLE
  8
CAM
 62
     7
  6
CONTINUOUS
 10
0.000000
 20
0.000000
 30
-0.625000
 40
2.632500
  0
CIRCLE
  8
CAM
 62
     7
  6
CONTINUOUS
 10
0.000000
 20
0.000000
 30
-0.625000
 40
2.637500
  0
LINE
  8
Default
 62
     7
  6
CONTINUOUS
 10
-0.781851
 20
-6.925329
 30
0.000000
 11
-0.781785
 21
-6.925312
 31
0.000000
  0
POINT
  8
Default
 62
     7
 10
-0.000030
 20
0.000019
 30
0.000000
  0
LINE
  8
Default
 62
     7
  6
CONTINUOUS
 10
-0.754216
 20
-6.969308
 30
-0.000000
 11
-0.000030
 21
0.000019
 31
0.000000
  0
POINT
  8
Default
 62
     7
 10
-0.754149
 20
-6.969318
 30
0.000000
  0
CIRCLE
  8
Default
 62
     7
  6
CONTINUOUS
 10
-0.754149
 20
-6.969318
 30
0.000000
 40
0.120850
  0
CIRCLE
  8
Default
 62
     6
  6
CONTINUOUS
 10
6.104533
 20
3.944461
 30
0.000000
 40
0.120800
  0
LINE
  8
DIM
 62
     7
  6
CONTINUOUS
 10
0.000026
 20
-0.000005
 30
0.000000
 11
-0.754149
 21
-6.969318
 31
0.000000
  0
LINE
  8
DIM
 62
     7
  6
CONTINUOUS
 10
-0.754149
 20
-6.969318
 30
0.000000
 11
2.599161
 21
-1.633412
 31
0.000000
  0
LINE
  8
DIM
 62
     7
  6
CONTINUOUS
 10
2.599161
 20
-1.633412
 30
0.000000
 11
6.104533
 21
3.944461
 31
0.000000
  0
LINE
  8
DIM
 62
     7
  6
CONTINUOUS
 10
6.104533
 20
3.944461
 30
0.000000
 11
0.000026
 21
-0.000005
 31
0.000000
  0
LINE
  8
DIM
 62
     7
  6
CONTINUOUS
 10
6.220983
 20
3.951327
 30
0.000000
 11
6.116310
 21
4.116526
 31
0.000000
  0
LINE
  8
DIM
 62
     7
  6
CONTINUOUS
 10
-0.004324
 20
0.006860
 30
0.000000
 11
-0.108997
 21
0.172060
 31
0.000000
  0
LINE
  8
DIM
 62
     7
  6
CONTINUOUS
 10
6.122835
 20
4.106227
 30
0.000000
 11
-0.102472
 21
0.161761
 31
0.000000
  0
LINE
  8
DIM
 62
     7
  6
CONTINUOUS
 10
6.122835
 20
4.106227
 30
0.000000
 11
6.061681
 21
4.053273
 31
0.000000
  0
LINE
  8
DIM
 62
     7
  6
CONTINUOUS
 10
6.122835
 20
4.106227
 30
0.000000
 11
6.048836
 21
4.073546
 31
0.000000
  0
LINE
  8
DIM
 62
     7
  6
CONTINUOUS
 10
-0.102472
 20
0.161761
 30
0.000000
 11
-0.041318
 21
0.214715
 31
0.000000
  0
LINE
  8
DIM
 62
     7
  6
CONTINUOUS
 10
-0.102472
 20
0.161761
 30
0.000000
 11
-0.028472
 21
0.194442
 31
0.000000
  0
TEXT
  8
DIM
 62
     7
 10
1.066827
 20
0.998872
 30
0.000000
 40
0.200000
  1
7.370
 50
32.359076
 72
     1
 11
1.326400
 21
1.163342
 31
0.000000
  0
LINE
  8
DIM
 62
     7
  6
CONTINUOUS
 10
0.004351
 20
0.006876
 30
0.000000
 11
0.171071
 21
0.272167
 31
0.000000
  0
LINE
  8
DIM
 62
     7
  6
CONTINUOUS
 10
2.603486
 20
-1.626530
 30
0.000000
 11
2.770205
 21
-1.361241
 31
0.000000
  0
LINE
  8
DIM
 62
     7
  6
CONTINUOUS
 10
0.164583
 20
0.261844
 30
0.000000
 11
2.763718
 21
-1.371563
 31
0.000000
  0
LINE
  8
DIM
 62
     7
  6
CONTINUOUS
 10
0.164583
 20
0.261844
 30
0.000000
 11
0.238703
 21
0.229437
 31
0.000000
  0
LINE
  8
DIM
 62
     7
  6
CONTINUOUS
 10
0.164583
 20
0.261844
 30
0.000000
 11
0.225933
 21
0.209116
 31
0.000000
  0
LINE
  8
DIM
 62
     7
  6
CONTINUOUS
 10
2.763718
 20
-1.371563
 30
0.000000
 11
2.689598
 21
-1.339156
 31
0.000000
  0
LINE
  8
DIM
 62
     7
  6
CONTINUOUS
 10
2.763718
 20
-1.371563
 30
0.000000
 11
2.702368
 21
-1.318836
 31
0.000000
  0
TEXT
  8
DIM
 62
     7
 10
1.763024
 20
-0.646687
 30
0.000000
 40
0.200000
  1
3.070
 50
-32.147013
 72
     1
 11
2.023203
 21
-0.810195
 31
0.000000
  0
LINE
  8
DIM
 62
     7
  6
CONTINUOUS
 10
2.175000
 20
7.387540
 30
0.000000
 11
2.175000
 21
8.238810
 31
0.000000
  0
LINE
  8
DIM
 62
     7
  6
CONTINUOUS
 10
2.675000
 20
7.387540
 30
0.000000
 11
2.675000
 21
8.238810
 31
0.000000
  0
LINE
  8
DIM
 62
     7
  6
CONTINUOUS
 10
2.109920
 20
8.235000
 30
0.000000
 11
2.740080
 21
8.235000
 31
0.000000
  0
LINE
  8
DIM
 62
     7
  6
CONTINUOUS
 10
2.175000
 20
8.235000
 30
0.000000
 11
2.200000
 21
8.247500
 31
0.000000
  0
LINE
  8
DIM
 62
     7
  6
CONTINUOUS
 10
2.175000
 20
8.235000
 30
0.000000
 11
2.200000
 21
8.222500
 31
0.000000
  0
LINE
  8
DIM
 62
     7
  6
CONTINUOUS
 10
2.675000
 20
8.235000
 30
0.000000
 11
2.650000
 21
8.222500
 31
0.000000
  0
LINE
  8
DIM
 62
     7
  6
CONTINUOUS
 10
2.675000
 20
8.235000
 30
0.000000
 11
2.650000
 21
8.247500
 31
0.000000
  0
TEXT
  8
DIM
 62
     7
 10
2.115000
 20
8.316280
 30
0.000000
 40
0.200000
  1
0.500
 72
     1
 11
2.425000
 21
8.316280
 31
0.000000
  0
LINE
  8
DIM
 62
     7
  6
CONTINUOUS
 10
8.150000
 20
1.077540
 30
0.000000
 11
8.150000
 21
1.928810
 31
0.000000
  0
LINE
  8
DIM
 62
     7
  6
CONTINUOUS
 10
8.650000
 20
1.077540
 30
0.000000
 11
8.650000
 21
1.928810
 31
0.000000
  0
LINE
  8
DIM
 62
     7
  6
CONTINUOUS
 10
8.084920
 20
1.925000
 30
0.000000
 11
8.715080
 21
1.925000
 31
0.000000
  0
LINE
  8
DIM
 62
     7
  6
CONTINUOUS
 10
8.150000
 20
1.925000
 30
0.000000
 11
8.175000
 21
1.937500
 31
0.000000
  0
LINE
  8
DIM
 62
     7
  6
CONTINUOUS
 10
8.150000
 20
1.925000
 30
0.000000
 11
8.175000
 21
1.912500
 31
0.000000
  0
LINE
  8
DIM
 62
     7
  6
CONTINUOUS
 10
8.650000
 20
1.925000
 30
0.000000
 11
8.625000
 21
1.912500
 31
0.000000
  0
LINE
  8
DIM
 62
     7
  6
CONTINUOUS
 10
8.650000
 20
1.925000
 30
0.000000
 11
8.625000
 21
1.937500
 31
0.000000
  0
TEXT
  8
DIM
 62
     7
 10
8.090000
 20
2.006280
 30
0.000000
 40
0.200000
  1
0.500
 72
     1
 11
8.400000
 21
2.006280
 31
0.000000
  0
LINE
  8
DIM
 62
     7
  6
CONTINUOUS
 10
7.250000
 20
-3.972460
 30
0.000000
 11
7.250000
 21
-3.121190
 31
0.000000
  0
LINE
  8
DIM
 62
     7
  6
CONTINUOUS
 10
7.750000
 20
-3.972460
 30
0.000000
 11
7.750000
 21
-3.121190
 31
0.000000
  0
LINE
  8
DIM
 62
     7
  6
CONTINUOUS
 10
7.184920
 20
-3.125000
 30
0.000000
 11
7.815080
 21
-3.125000
 31
0.000000
  0
LINE
  8
DIM
 62
     7
  6
CONTINUOUS
 10
7.250000
 20
-3.125000
 30
0.000000
 11
7.275000
 21
-3.112500
 31
0.000000
  0
LINE
  8
DIM
 62
     7
  6
CONTINUOUS
 10
7.250000
 20
-3.125000
 30
0.000000
 11
7.275000
 21
-3.137500
 31
0.000000
  0
LINE
  8
DIM
 62
     7
  6
CONTINUOUS
 10
7.750000
 20
-3.125000
 30
0.000000
 11
7.725000
 21
-3.137500
 31
0.000000
  0
LINE
  8
DIM
 62
     7
  6
CONTINUOUS
 10
7.750000
 20
-3.125000
 30
0.000000
 11
7.725000
 21
-3.112500
 31
0.000000
  0
TEXT
  8
DIM
 62
     7
 10
7.190000
 20
-3.043720
 30
0.000000
 40
0.200000
  1
0.500
 72
     1
 11
7.500000
 21
-3.043720
 31
0.000000
  0
LINE
  8
DIM
 62
     7
  6
CONTINUOUS
 10
3.950000
 20
-5.647460
 30
0.000000
 11
3.950000
 21
-4.796190
 31
0.000000
  0
LINE
  8
DIM
 62
     7
  6
CONTINUOUS
 10
4.450000
 20
-5.647460
 30
0.000000
 11
4.450000
 21
-4.796190
 31
0.000000
  0
LINE
  8
DIM
 62
     7
  6
CONTINUOUS
 10
3.884920
 20
-4.800000
 30
0.000000
 11
4.515080
 21
-4.800000
 31
0.000000
  0
LINE
  8
DIM
 62
     7
  6
CONTINUOUS
 10
3.950000
 20
-4.800000
 30
0.000000
 11
3.975000
 21
-4.787500
 31
0.000000
  0
LINE
  8
DIM
 62
     7
  6
CONTINUOUS
 10
3.950000
 20
-4.800000
 30
0.000000
 11
3.975000
 21
-4.812500
 31
0.000000
  0
LINE
  8
DIM
 62
     7
  6
CONTINUOUS
 10
4.450000
 20
-4.800000
 30
0.000000
 11
4.425000
 21
-4.812500
 31
0.000000
  0
LINE
  8
DIM
 62
     7
  6
CONTINUOUS
 10
4.450000
 20
-4.800000
 30
0.000000
 11
4.425000
 21
-4.787500
 31
0.000000
  0
TEXT
  8
DIM
 62
     7
 10
3.890000
 20
-4.718720
 30
0.000000
 40
0.200000
  1
0.500
 72
     1
 11
4.200000
 21
-4.718720
 31
0.000000
  0
LINE
  8
DIM
 62
     7
  6
CONTINUOUS
 10
0.000026
 20
-0.002545
 30
0.000000
 11
0.000026
 21
-7.924083
 31
0.000000
  0
LINE
  8
DIM
 62
     7
  6
CONTINUOUS
 10
-6.496106
 20
2.152539
 30
0.000000
 11
-6.496106
 21
-7.924083
 31
0.000000
  0
LINE
  8
DIM
 62
     7
  6
CONTINUOUS
 10
0.000026
 20
-7.920273
 30
0.000000
 11
-6.496106
 21
-7.920273
 31
0.000000
  0
LINE
  8
DIM
 62
     7
  6
CONTINUOUS
 10
0.000026
 20
-7.920273
 30
0.000000
 11
-0.024974
 21
-7.932773
 31
0.000000
  0
LINE
  8
DIM
 62
     7
  6
CONTINUOUS
 10
0.000026
 20
-7.920273
 30
0.000000
 11
-0.024974
 21
-7.907773
 31
0.000000
  0
LINE
  8
DIM
 62
     7
  6
CONTINUOUS
 10
-6.496106
 20
-7.920273
 30
0.000000
 11
-6.471106
 21
-7.907773
 31
0.000000
  0
LINE
  8
DIM
 62
     7
  6
CONTINUOUS
 10
-6.496106
 20
-7.920273
 30
0.000000
 11
-6.471106
 21
-7.932773
 31
0.000000
  0
TEXT
  8
DIM
 62
     7
 10
-6.466159
 20
-7.838993
 30
0.000000
 40
0.200000
  1
6.496
 72
     1
 11
-6.146159
 21
-7.838993
 31
0.000000
  0
LINE
  8
DIM
 62
     7
  6
CONTINUOUS
 10
0.000026
 20
-0.002545
 30
0.000000
 11
0.000026
 21
-7.924083
 31
0.000000
  0
LINE
  8
DIM
 62
     7
  6
CONTINUOUS
 10
8.895001
 20
1.072460
 30
0.000000
 11
8.895001
 21
-7.924083
 31
0.000000
  0
LINE
  8
DIM
 62
     7
  6
CONTINUOUS
 10
0.000026
 20
-7.920273
 30
0.000000
 11
8.895001
 21
-7.920273
 31
0.000000
  0
LINE
  8
DIM
 62
     7
  6
CONTINUOUS
 10
0.000026
 20
-7.920273
 30
0.000000
 11
0.025026
 21
-7.907773
 31
0.000000
  0
LINE
  8
DIM
 62
     7
  6
CONTINUOUS
 10
0.000026
 20
-7.920273
 30
0.000000
 11
0.025026
 21
-7.932773
 31
0.000000
  0
LINE
  8
DIM
 62
     7
  6
CONTINUOUS
 10
8.895001
 20
-7.920273
 30
0.000000
 11
8.870001
 21
-7.932773
 31
0.000000
  0
LINE
  8
DIM
 62
     7
  6
CONTINUOUS
 10
8.895001
 20
-7.920273
 30
0.000000
 11
8.870001
 21
-7.907773
 31
0.000000
  0
TEXT
  8
DIM
 62
     7
 10
8.111002
 20
-7.838993
 30
0.000000
 40
0.200000
  1
8.895
 72
     1
 11
8.421001
 21
-7.838993
 31
0.000000
  0
LINE
  8
DIM
 62
     7
  6
CONTINUOUS
 10
0.002566
 20
-0.000005
 30
0.000000
 11
9.381778
 21
-0.000005
 31
0.000000
  0
LINE
  8
DIM
 62
     7
  6
CONTINUOUS
 10
2.427540
 20
7.880000
 30
0.000000
 11
9.381778
 21
7.880000
 31
0.000000
  0
LINE
  8
DIM
 62
     7
  6
CONTINUOUS
 10
9.377968
 20
-0.000005
 30
0.000000
 11
9.377968
 21
7.880000
 31
0.000000
  0
LINE
  8
DIM
 62
     7
  6
CONTINUOUS
 10
9.377968
 20
-0.000005
 30
0.000000
 11
9.365468
 21
0.024995
 31
0.000000
  0
LINE
  8
DIM
 62
     7
  6
CONTINUOUS
 10
9.377968
 20
-0.000005
 30
0.000000
 11
9.390468
 21
0.024995
 31
0.000000
  0
LINE
  8
DIM
 62
     7
  6
CONTINUOUS
 10
9.377968
 20
7.880000
 30
0.000000
 11
9.390468
 21
7.855000
 31
0.000000
  0
LINE
  8
DIM
 62
     7
  6
CONTINUOUS
 10
9.377968
 20
7.880000
 30
0.000000
 11
9.365468
 21
7.855000
 31
0.000000
  0
TEXT
  8
DIM
 62
     7
 10
9.296688
 20
4.245737
 30
0.000000
 40
0.200000
  1
7.880
 50
90.000003
 72
     1
 11
9.296688
 21
4.555737
 31
0.000000
  0
LINE
  8
DIM
 62
     7
  6
CONTINUOUS
 10
0.002509
 20
0.000019
 30
0.000000
 11
9.381778
 21
0.000019
 31
0.000000
  0
LINE
  8
DIM
 62
     7
  6
CONTINUOUS
 10
-0.911292
 20
-7.700215
 30
0.000000
 11
9.381778
 21
-7.700215
 31
0.000000
  0
LINE
  8
DIM
 62
     7
  6
CONTINUOUS
 10
9.377968
 20
0.000019
 30
0.000000
 11
9.377968
 21
-7.700215
 31
0.000000
  0
LINE
  8
DIM
 62
     7
  6
CONTINUOUS
 10
9.377968
 20
0.000019
 30
0.000000
 11
9.390468
 21
-0.024981
 31
0.000000
  0
LINE
  8
DIM
 62
     7
  6
CONTINUOUS
 10
9.377968
 20
0.000019
 30
0.000000
 11
9.365468
 21
-0.024981
 31
0.000000
  0
LINE
  8
DIM
 62
     7
  6
CONTINUOUS
 10
9.377968
 20
-7.700215
 30
0.000000
 11
9.365468
 21
-7.675215
 31
0.000000
  0
LINE
  8
DIM
 62
     7
  6
CONTINUOUS
 10
9.377968
 20
-7.700215
 30
0.000000
 11
9.390468
 21
-7.675215
 31
0.000000
  0
TEXT
  8
DIM
 62
     7
 10
9.296688
 20
-5.288486
 30
0.000000
 40
0.200000
  1
7.700
 50
90.000003
 72
     1
 11
9.296688
 21
-4.978486
 31
0.000000
  0
TEXT
  8
DIM
 62
     7
 10
-1.231948
 20
4.662067
 30
0.000000
 40
0.200000
  1
Countersink holes on back side
 72
     1
 11
0.588052
 21
4.662067
 31
0.000000
  0
ENDSEC
  0
EOF
