  0
SECTION
  2
HEADER
  9
$ACADVER
  1
AC1006
  0
ENDSEC
  0
SECTION
  2
TABLES
  0
TABLE
  2
LTYPE
 70
    25
  0
LTYPE
  2
CONTINUOUS
 70
    64
  3
Solid line
 72
    64
 73
     0
 40
0.000000
  0
LTYPE
  2
DASHDOT
 70
    64
  3
__ . __ . __ . __ . __ . __ . __ . __ . __ . __
 72
    65
 73
     4
 40
1.000000
 49
0.500000
 49
-0.250000
 49
0.000000
 49
-0.250000
  0
LTYPE
  2
DASHED
 70
    64
  3
__ __ __ __ __ __ __ __ __ __ __ __ __ __ __ __
 72
    65
 73
     2
 40
0.750000
 49
0.500000
 49
-0.250000
  0
LTYPE
  2
DIVIDE
 70
    64
  3
____ . . ____ . . ____ . . ____ . . ____ . . __
 72
    65
 73
     6
 40
1.250000
 49
0.500000
 49
-0.250000
 49
0.000000
 49
-0.250000
 49
0.000000
 49
-0.250000
  0
LTYPE
  2
DOT
 70
    64
  3
. . . . . . . . . . . . . . . . . . . . . . . . 
 72
    65
 73
     2
 40
0.250000
 49
0.000000
 49
-0.250000
  0
ENDTAB
  0
ENDSEC
  0
SECTION
  2
BLOCKS
  0
BLOCK
  8
0
  2
Object_0
 70
    64
 10
0.000000
 20
0.000000
 30
0.000000
  0
ENDBLK
  0
ENDSEC
  0
SECTION
  2
ENTITIES
  0
CIRCLE
  8
Default
 62
     6
  6
CONTINUOUS
 10
7.920000
 20
2.675000
 30
0.000000
 40
0.218750
  0
POINT
  8
Default
 62
     7
 10
7.920000
 20
2.675000
 30
0.000000
  0
LINE
  8
DIM
 62
     7
  6
CONTINUOUS
 10
0.005080
 20
0.000000
 30
-0.000000
 11
8.650439
 21
0.000000
 31
-0.000000
  0
LINE
  8
DIM
 62
     7
  6
CONTINUOUS
 10
-0.648702
 20
7.660399
 30
0.000000
 11
8.650439
 21
7.660399
 31
0.000000
  0
LINE
  8
DIM
 62
     7
  6
CONTINUOUS
 10
8.642819
 20
0.000000
 30
-0.000000
 11
8.642819
 21
7.660399
 31
0.000000
  0
LINE
  8
DIM
 62
     7
  6
CONTINUOUS
 10
8.642819
 20
0.000000
 30
-0.000000
 11
8.617819
 21
0.050000
 31
-0.000000
  0
LINE
  8
DIM
 62
     7
  6
CONTINUOUS
 10
8.642819
 20
0.000000
 30
-0.000000
 11
8.667819
 21
0.050000
 31
-0.000000
  0
LINE
  8
DIM
 62
     7
  6
CONTINUOUS
 10
8.642819
 20
7.660399
 30
0.000000
 11
8.667819
 21
7.610399
 31
0.000000
  0
LINE
  8
DIM
 62
     7
  6
CONTINUOUS
 10
8.642819
 20
7.660399
 30
0.000000
 11
8.617819
 21
7.610399
 31
0.000000
  0
TEXT
  8
DIM
 62
     7
 10
8.541219
 20
5.500005
 30
0.000000
 40
0.250000
  1
7.660
 50
90.000003
 72
     1
 11
8.541219
 21
5.901047
 31
0.000000
  0
LINE
  8
DIM
 62
     7
  6
CONTINUOUS
 10
-0.000000
 20
0.005080
 30
0.000000
 11
-0.000000
 21
7.779166
 31
0.000000
  0
LINE
  8
DIM
 62
     7
  6
CONTINUOUS
 10
8.662743
 20
-2.336261
 30
-0.000000
 11
8.662743
 21
7.779166
 31
-0.000000
  0
LINE
  8
DIM
 62
     7
  6
CONTINUOUS
 10
-0.000000
 20
7.771546
 30
0.000000
 11
8.662743
 21
7.771546
 31
-0.000000
  0
LINE
  8
DIM
 62
     7
  6
CONTINUOUS
 10
-0.000000
 20
7.771546
 30
0.000000
 11
0.050000
 21
7.796546
 31
0.000000
  0
LINE
  8
DIM
 62
     7
  6
CONTINUOUS
 10
-0.000000
 20
7.771546
 30
0.000000
 11
0.050000
 21
7.746546
 31
0.000000
  0
LINE
  8
DIM
 62
     7
  6
CONTINUOUS
 10
8.662743
 20
7.771546
 30
-0.000000
 11
8.612743
 21
7.746546
 31
-0.000000
  0
LINE
  8
DIM
 62
     7
  6
CONTINUOUS
 10
8.662743
 20
7.771546
 30
-0.000000
 11
8.612743
 21
7.796546
 31
-0.000000
  0
TEXT
  8
DIM
 62
     7
 10
6.890861
 20
7.873146
 30
-0.000000
 40
0.250000
  1
8.663
 72
     1
 11
7.291903
 21
7.873146
 31
-0.000000
  0
CIRCLE
  8
Default
 62
     9
  6
CONTINUOUS
 10
3.625000
 20
0.000000
 30
0.000000
 40
0.265625
  0
CIRCLE
  8
Default
 62
     9
  6
CONTINUOUS
 10
0.000000
 20
0.000000
 30
-0.625000
 40
3.000000
  0
CIRCLE
  8
Default
 62
     9
  6
CONTINUOUS
 10
0.000000
 20
3.625000
 30
0.000000
 40
0.265625
  0
CIRCLE
  8
Default
 62
     9
  6
CONTINUOUS
 10
0.000000
 20
-3.625000
 30
0.000000
 40
0.265625
  0
CIRCLE
  8
Default
 62
     9
  6
CONTINUOUS
 10
-3.625000
 20
0.000000
 30
0.000000
 40
0.265625
  0
CIRCLE
  8
Default
 62
     6
  6
CONTINUOUS
 10
8.125000
 20
-2.460000
 30
0.000000
 40
0.218750
  0
LINE
  8
Default
 62
     6
  6
CONTINUOUS
 10
8.686392
 20
2.585247
 30
0.000000
 11
8.662743
 21
-2.341341
 31
0.000000
  0
ARC
  8
Default
 62
     6
  6
CONTINUOUS
 10
7.912752
 20
-2.337741
 30
-0.000000
 40
0.750000
 50
298.021768
 51
359.724964
  0
LINE
  8
Default
 62
     6
  6
CONTINUOUS
 10
8.265107
 20
-2.999818
 30
0.000000
 11
-0.191870
 21
-7.500594
 31
0.000000
  0
ARC
  8
Default
 62
     6
  6
CONTINUOUS
 10
-0.454962
 20
-7.006244
 30
0.000000
 40
0.560000
 50
233.077912
 51
298.021768
  0
LINE
  8
Default
 62
     6
  6
CONTINUOUS
 10
-5.567862
 20
-3.864766
 30
0.000000
 11
-0.791370
 21
-7.453937
 31
0.000000
  0
ARC
  8
Default
 62
     6
  6
CONTINUOUS
 10
-5.267497
 20
-3.465039
 30
0.000000
 40
0.500000
 50
187.247020
 51
233.077912
  0
ARC
  8
Default
 62
     6
  6
CONTINUOUS
 10
23.734788
 20
0.222985
 30
0.000000
 40
29.735835
 50
171.485795
 51
187.247020
  0
ARC
  8
Default
 62
     6
  6
CONTINUOUS
 10
-5.178845
 20
4.551484
 30
0.000000
 40
0.500000
 50
90.818500
 51
171.485795
  0
ARC
  8
Default
 62
     4
  6
CONTINUOUS
 10
-5.332890
 20
3.354144
 30
0.000000
 40
1.825000
 50
270.549423
 51
270.818500
  0
LINE
  8
DIM
 62
     7
  6
CONTINUOUS
 10
-0.000000
 20
0.005080
 30
0.000000
 11
-0.000000
 21
7.779166
 31
0.000000
  0
LINE
  8
DIM
 62
     7
  6
CONTINUOUS
 10
-6.009424
 20
0.952768
 30
0.000000
 11
-6.009424
 21
7.779166
 31
0.000000
  0
LINE
  8
DIM
 62
     7
  6
CONTINUOUS
 10
-0.000000
 20
7.771546
 30
0.000000
 11
-6.009424
 21
7.771546
 31
0.000000
  0
LINE
  8
DIM
 62
     7
  6
CONTINUOUS
 10
-0.000000
 20
7.771546
 30
0.000000
 11
-0.050000
 21
7.746546
 31
0.000000
  0
LINE
  8
DIM
 62
     7
  6
CONTINUOUS
 10
-0.000000
 20
7.771546
 30
0.000000
 11
-0.050000
 21
7.796546
 31
0.000000
  0
LINE
  8
DIM
 62
     7
  6
CONTINUOUS
 10
-6.009424
 20
7.771546
 30
0.000000
 11
-5.959424
 21
7.796546
 31
0.000000
  0
LINE
  8
DIM
 62
     7
  6
CONTINUOUS
 10
-6.009424
 20
7.771546
 30
0.000000
 11
-5.959424
 21
7.746546
 31
0.000000
  0
TEXT
  8
DIM
 62
     7
 10
-5.821605
 20
7.873146
 30
0.000000
 40
0.250000
  1
6.009
 72
     1
 11
-5.420563
 21
7.873146
 31
0.000000
  0
LINE
  8
Default
 62
     6
  6
CONTINUOUS
 10
-5.185987
 20
5.051433
 30
-0.000000
 11
-4.150895
 21
5.066221
 31
0.000000
  0
ARC
  8
Default
 62
     6
  6
CONTINUOUS
 10
-4.184375
 20
7.409682
 30
0.000000
 40
2.343700
 50
270.818500
 51
322.134345
  0
LINE
  8
Default
 62
     6
  6
CONTINUOUS
 10
-1.245871
 20
7.370758
 30
0.000000
 11
-2.334135
 21
5.971091
 31
0.000000
  0
ARC
  8
Default
 62
     6
  6
CONTINUOUS
 10
-0.653782
 20
6.910399
 30
0.000000
 40
0.750000
 50
79.563274
 51
142.134345
  0
LINE
  8
Default
 62
     6
  6
CONTINUOUS
 10
2.837059
 20
7.030013
 30
0.000000
 11
-0.517920
 21
7.647990
 31
0.000000
  0
POINT
  8
Default
 62
     7
 10
0.000000
 20
0.000000
 30
0.000000
  0
POINT
  8
Default
 62
     7
 10
-0.654925
 20
6.990387
 30
0.000000
  0
POINT
  8
Default
 62
     7
 10
-0.338979
 20
7.615030
 30
0.000000
  0
POINT
  8
Default
 62
     7
 10
8.274914
 20
3.258107
 30
0.000000
  0
POINT
  8
Default
 62
     7
 10
3.000000
 20
7.000000
 30
0.000000
  0
ARC
  8
Default
 62
     6
  6
CONTINUOUS
 10
2.701197
 20
6.292422
 30
-0.000000
 40
0.750000
 50
54.649059
 51
79.563274
  0
LINE
  8
Default
 62
     6
  6
CONTINUOUS
 10
8.237194
 20
3.284865
 30
0.000000
 11
3.135134
 21
6.904139
 31
0.000000
  0
ARC
  8
Default
 62
     6
  6
CONTINUOUS
 10
8.671131
 20
3.896583
 30
-0.000000
 40
0.750000
 50
234.649059
 51
240.671235
  0
ARC
  8
Default
 62
     6
  6
CONTINUOUS
 10
7.936401
 20
2.588847
 30
-0.000000
 40
0.750000
 50
359.724964
 51
420.671235
  0
CIRCLE
  8
Default
 62
     9
  6
CONTINUOUS
 10
0.000000
 20
0.000000
 30
-0.125000
 40
4.251000
  0
POINT
  8
Default
 62
     7
 10
-5.351278
 20
3.277109
 30
0.000000
  0
POINT
  8
Default
 62
     7
 10
-5.255477
 20
-3.428643
 30
0.000000
  0
POINT
  8
Default
 62
     7
 10
-0.454962
 20
-7.006244
 30
0.000000
  0
POINT
  8
Default
 62
     7
 10
8.125000
 20
-2.460000
 30
0.000000
  0
CIRCLE
  8
Default
 62
     7
  6
CONTINUOUS
 10
-0.454962
 20
-7.006244
 30
0.000000
 40
0.303500
  0
CIRCLE
  8
Default
 62
     6
  6
CONTINUOUS
 10
-5.255477
 20
-3.428643
 30
0.000000
 40
0.218750
  0
CIRCLE
  8
Default
 62
     6
  6
CONTINUOUS
 10
-5.351278
 20
3.277109
 30
0.000000
 40
0.218750
  0
CIRCLE
  8
Default
 62
     7
  6
CONTINUOUS
 10
-0.654925
 20
6.990387
 30
0.000000
 40
0.303500
  0
INSERT
  8
Default
 62
     7
  2
Object_0
 10
-10.160000
 20
-10.160000
 30
0.000000
  0
LINE
  8
DIM
 62
     7
  6
CONTINUOUS
 10
0.005080
 20
0.000000
 30
-0.000000
 11
8.685078
 21
0.000000
 31
-0.000000
  0
LINE
  8
DIM
 62
     7
  6
CONTINUOUS
 10
-0.449882
 20
-7.566244
 30
0.000000
 11
8.685078
 21
-7.566244
 31
0.000000
  0
LINE
  8
DIM
 62
     7
  6
CONTINUOUS
 10
8.677458
 20
0.000000
 30
-0.000000
 11
8.677458
 21
-7.566244
 31
0.000000
  0
LINE
  8
DIM
 62
     7
  6
CONTINUOUS
 10
8.677458
 20
0.000000
 30
-0.000000
 11
8.702458
 21
-0.050000
 31
-0.000000
  0
LINE
  8
DIM
 62
     7
  6
CONTINUOUS
 10
8.677458
 20
0.000000
 30
-0.000000
 11
8.652458
 21
-0.050000
 31
-0.000000
  0
LINE
  8
DIM
 62
     7
  6
CONTINUOUS
 10
8.677458
 20
-7.566244
 30
0.000000
 11
8.652458
 21
-7.516244
 31
0.000000
  0
LINE
  8
DIM
 62
     7
  6
CONTINUOUS
 10
8.677458
 20
-7.566244
 30
0.000000
 11
8.702458
 21
-7.516244
 31
0.000000
  0
TEXT
  8
DIM
 62
     7
 10
8.575858
 20
-5.307323
 30
-0.000000
 40
0.250000
  1
7.566
 50
90.000003
 72
     1
 11
8.575858
 21
-4.906281
 31
-0.000000
  0
ARC
  8
CAM
 62
     6
  6
CONTINUOUS
 10
-0.454962
 20
-7.006244
 30
0.000000
 40
0.116000
 50
90.818500
 51
270.818500
  0
ARC
  8
CAM
 62
     6
  6
CONTINUOUS
 10
-0.454962
 20
-7.006244
 30
0.000000
 40
0.116000
 50
270.818500
 51
450.818500
  0
ARC
  8
CAM
 62
     6
  6
CONTINUOUS
 10
-0.454962
 20
-7.006244
 30
0.000000
 40
0.111000
 50
90.818500
 51
270.818500
  0
ARC
  8
CAM
 62
     6
  6
CONTINUOUS
 10
-0.454962
 20
-7.006244
 30
0.000000
 40
0.111000
 50
270.818500
 51
450.818500
  0
LINE
  8
DIM
 62
     7
  6
CONTINUOUS
 10
-0.454962
 20
-7.006244
 30
0.000000
 11
0.000000
 21
0.000000
 31
0.000000
  0
LINE
  8
DIM
 62
     7
  6
CONTINUOUS
 10
-0.654925
 20
6.990387
 30
0.000000
 11
0.000000
 21
0.000000
 31
0.000000
  0
LINE
  8
CAM
 62
     6
  6
CONTINUOUS
 10
-0.656582
 20
7.106375
 30
0.000000
 11
-0.654925
 21
6.990387
 31
0.000000
  0
ARC
  8
CAM
 62
     6
  6
CONTINUOUS
 10
-0.654925
 20
6.990387
 30
0.000000
 40
0.116000
 50
270.818500
 51
450.818500
  0
ARC
  8
CAM
 62
     6
  6
CONTINUOUS
 10
-0.654925
 20
6.990387
 30
0.000000
 40
0.116000
 50
90.818500
 51
270.818500
  0
LINE
  8
CAM
 62
     6
  6
CONTINUOUS
 10
-0.654925
 20
6.990387
 30
0.000000
 11
-0.656582
 21
7.106375
 31
0.000000
  0
ARC
  8
CAM
 62
     6
  6
CONTINUOUS
 10
-0.654925
 20
6.990387
 30
0.000000
 40
0.111000
 50
90.818500
 51
270.818500
  0
ARC
  8
CAM
 62
     6
  6
CONTINUOUS
 10
-0.654925
 20
6.990387
 30
0.000000
 40
0.111000
 50
270.818500
 51
450.818500
  0
LINE
  8
CAM
 62
     6
  6
CONTINUOUS
 10
-0.654925
 20
6.990387
 30
0.000000
 11
-0.656510
 21
7.101376
 31
0.000000
  0
LINE
  8
CAM
 62
     6
  6
CONTINUOUS
 10
-0.656510
 20
7.101376
 30
0.000000
 11
-0.654925
 21
6.990387
 31
0.000000
  0
LINE
  8
DIM
 62
     7
  6
CONTINUOUS
 10
-0.454962
 20
-7.006244
 30
0.000000
 11
-0.654925
 21
6.990387
 31
0.000000
  0
LINE
  8
Default
 62
     6
  6
CONTINUOUS
 10
11.046365
 20
2.573919
 30
0.000000
 11
9.046388
 21
2.583519
 31
0.000000
  0
LINE
  8
Default
 62
     6
  6
CONTINUOUS
 10
9.046388
 20
2.583519
 30
-0.000000
 11
11.046365
 21
2.573919
 31
-0.000000
  0
ARC
  8
Default
 62
     6
  6
CONTINUOUS
 10
7.936401
 20
2.588847
 30
-0.000000
 40
1.110000
 50
359.724964
 51
420.671235
  0
ARC
  8
Default
 62
     6
  6
CONTINUOUS
 10
8.671131
 20
3.896583
 30
-0.000000
 40
0.390000
 50
234.649059
 51
240.671235
  0
LINE
  8
Default
 62
     6
  6
CONTINUOUS
 10
3.343424
 20
7.197764
 30
0.000000
 11
8.445484
 21
3.578489
 31
0.000000
  0
ARC
  8
Default
 62
     6
  6
CONTINUOUS
 10
2.701197
 20
6.292422
 30
-0.000000
 40
1.110000
 50
54.649059
 51
79.563274
  0
LINE
  8
Default
 62
     6
  6
CONTINUOUS
 10
-0.452706
 20
8.002034
 30
0.000000
 11
2.902273
 21
7.384057
 31
0.000000
  0
ARC
  8
Default
 62
     6
  6
CONTINUOUS
 10
-0.653782
 20
6.910399
 30
0.000000
 40
1.110000
 50
79.563274
 51
142.134345
  0
LINE
  8
Default
 62
     6
  6
CONTINUOUS
 10
-2.618338
 20
6.192063
 30
0.000000
 11
-1.530074
 21
7.591730
 31
0.000000
  0
ARC
  8
Default
 62
     6
  6
CONTINUOUS
 10
-4.184375
 20
7.409682
 30
0.000000
 40
1.983700
 50
270.818500
 51
322.134345
  0
LINE
  8
Default
 62
     6
  6
CONTINUOUS
 10
-5.191130
 20
5.411397
 30
-0.000000
 11
-4.156037
 21
5.426185
 31
0.000000
  0
ARC
  8
Default
 62
     6
  6
CONTINUOUS
 10
-5.178845
 20
4.551484
 30
0.000000
 40
0.860000
 50
90.818500
 51
171.485795
  0
ARC
  8
Default
 62
     6
  6
CONTINUOUS
 10
23.734788
 20
0.222985
 30
0.000000
 40
30.095835
 50
171.485795
 51
187.247020
  0
ARC
  8
Default
 62
     6
  6
CONTINUOUS
 10
-5.267497
 20
-3.465039
 30
0.000000
 40
0.860000
 50
187.247020
 51
233.077912
  0
LINE
  8
Default
 62
     6
  6
CONTINUOUS
 10
-1.007632
 20
-7.741741
 30
0.000000
 11
-5.784124
 21
-4.152569
 31
0.000000
  0
ARC
  8
Default
 62
     6
  6
CONTINUOUS
 10
-0.454962
 20
-7.006244
 30
0.000000
 40
0.920000
 50
233.077912
 51
298.021768
  0
LINE
  8
Default
 62
     6
  6
CONTINUOUS
 10
8.434238
 20
-3.317615
 30
0.000000
 11
-0.022740
 21
-7.818391
 31
0.000000
  0
ARC
  8
Default
 62
     6
  6
CONTINUOUS
 10
7.912752
 20
-2.337741
 30
-0.000000
 40
1.110000
 50
298.021768
 51
359.724964
  0
LINE
  8
Default
 62
     6
  6
CONTINUOUS
 10
9.046388
 20
2.583519
 30
0.000000
 11
9.022739
 21
-2.343069
 31
0.000000
  0
CIRCLE
  8
Default
 62
     6
  6
CONTINUOUS
 10
0.000000
 20
0.000000
 30
-0.625000
 40
2.640000
  0
ARC
  8
Default
 62
     6
  6
CONTINUOUS
 10
8.671131
 20
3.896583
 30
-0.000000
 40
0.395000
 50
234.649059
 51
240.671235
  0
ARC
  8
Default
 62
     6
  6
CONTINUOUS
 10
7.936401
 20
2.588847
 30
-0.000000
 40
1.105000
 50
359.724964
 51
420.671235
  0
LINE
  8
Default
 62
     6
  6
CONTINUOUS
 10
9.041388
 20
2.583543
 30
0.000000
 11
9.017739
 21
-2.343045
 31
0.000000
  0
ARC
  8
Default
 62
     6
  6
CONTINUOUS
 10
7.912752
 20
-2.337741
 30
-0.000000
 40
1.105000
 50
298.021768
 51
359.724964
  0
LINE
  8
Default
 62
     6
  6
CONTINUOUS
 10
8.431889
 20
-3.313201
 30
0.000000
 11
-0.025089
 21
-7.813977
 31
0.000000
  0
ARC
  8
Default
 62
     6
  6
CONTINUOUS
 10
-0.454962
 20
-7.006244
 30
0.000000
 40
0.915000
 50
233.077912
 51
298.021768
  0
LINE
  8
Default
 62
     6
  6
CONTINUOUS
 10
-1.004629
 20
-7.737743
 30
0.000000
 11
-5.781120
 21
-4.148572
 31
0.000000
  0
ARC
  8
Default
 62
     6
  6
CONTINUOUS
 10
-5.267497
 20
-3.465039
 30
0.000000
 40
0.855000
 50
187.247020
 51
233.077912
  0
ARC
  8
Default
 62
     6
  6
CONTINUOUS
 10
23.734788
 20
0.222985
 30
0.000000
 40
30.090835
 50
171.485795
 51
187.247020
  0
ARC
  8
Default
 62
     6
  6
CONTINUOUS
 10
-5.178845
 20
4.551484
 30
0.000000
 40
0.855000
 50
90.818500
 51
171.485795
  0
LINE
  8
Default
 62
     6
  6
CONTINUOUS
 10
-5.191059
 20
5.406397
 30
-0.000000
 11
-4.155966
 21
5.421185
 31
0.000000
  0
ARC
  8
Default
 62
     6
  6
CONTINUOUS
 10
-4.184375
 20
7.409682
 30
0.000000
 40
1.988700
 50
270.818500
 51
322.134345
  0
LINE
  8
Default
 62
     6
  6
CONTINUOUS
 10
-2.614391
 20
6.188994
 30
0.000000
 11
-1.526127
 21
7.588661
 31
0.000000
  0
ARC
  8
Default
 62
     6
  6
CONTINUOUS
 10
-0.653782
 20
6.910399
 30
0.000000
 40
1.105000
 50
79.563274
 51
142.134345
  0
LINE
  8
Default
 62
     6
  6
CONTINUOUS
 10
-0.453612
 20
7.997117
 30
0.000000
 11
2.901367
 21
7.379140
 31
0.000000
  0
ARC
  8
Default
 62
     6
  6
CONTINUOUS
 10
2.701197
 20
6.292422
 30
-0.000000
 40
1.105000
 50
54.649059
 51
79.563274
  0
LINE
  8
Default
 62
     6
  6
CONTINUOUS
 10
3.340531
 20
7.193686
 30
0.000000
 11
8.442591
 21
3.574411
 31
0.000000
  0
CIRCLE
  8
Default
 62
     6
  6
CONTINUOUS
 10
0.000000
 20
0.000000
 30
-0.625000
 40
2.645000
  0
LINE
  8
CAM
 62
     6
  6
CONTINUOUS
 10
-0.456548
 20
-6.895255
 30
0.000000
 11
-0.454962
 21
-7.006244
 31
0.000000
  0
LINE
  8
CAM
 62
     6
  6
CONTINUOUS
 10
-0.454962
 20
-7.006244
 30
0.000000
 11
-0.456548
 21
-6.895255
 31
0.000000
  0
LINE
  8
CAM
 62
     6
  6
CONTINUOUS
 10
-0.456619
 20
-6.890256
 30
0.000000
 11
-0.454962
 21
-7.006244
 31
0.000000
  0
LINE
  8
CAM
 62
     6
  6
CONTINUOUS
 10
-0.454962
 20
-7.006244
 30
0.000000
 11
-0.456619
 21
-6.890256
 31
0.000000
  0
TEXT
  8
DIM
 62
     7
 10
0.615655
 20
4.838225
 30
0.000000
 40
0.200000
  1
11.250 x 9/16" recess on back side
 72
     1
 11
2.615655
 21
4.838225
 31
0.000000
  0
TEXT
  8
DIM
 62
     7
 10
0.795655
 20
4.641374
 30
0.000000
 40
0.200000
  1
Countersink holes on back side
 72
     1
 11
2.615655
 21
4.641374
 31
0.000000
  0
LINE
  8
DIM
 62
     7
  6
CONTINUOUS
 10
7.701250
 20
2.677540
 30
0.000000
 11
7.701250
 21
3.497560
 31
0.000000
  0
LINE
  8
DIM
 62
     7
  6
CONTINUOUS
 10
8.138750
 20
2.677540
 30
0.000000
 11
8.138750
 21
3.497560
 31
0.000000
  0
LINE
  8
DIM
 62
     7
  6
CONTINUOUS
 10
7.524920
 20
3.493750
 30
0.000000
 11
8.315080
 21
3.493750
 31
0.000000
  0
LINE
  8
DIM
 62
     7
  6
CONTINUOUS
 10
7.701250
 20
3.493750
 30
0.000000
 11
7.726250
 21
3.506250
 31
0.000000
  0
LINE
  8
DIM
 62
     7
  6
CONTINUOUS
 10
7.701250
 20
3.493750
 30
0.000000
 11
7.726250
 21
3.481250
 31
0.000000
  0
LINE
  8
DIM
 62
     7
  6
CONTINUOUS
 10
8.138750
 20
3.493750
 30
0.000000
 11
8.113750
 21
3.481250
 31
0.000000
  0
LINE
  8
DIM
 62
     7
  6
CONTINUOUS
 10
8.138750
 20
3.493750
 30
0.000000
 11
8.113750
 21
3.506250
 31
0.000000
  0
TEXT
  8
DIM
 62
     7
 10
7.530000
 20
3.575030
 30
0.000000
 40
0.200000
  1
0.4375
 72
     1
 11
7.920000
 21
3.575030
 31
0.000000
  0
LINE
  8
DIM
 62
     7
  6
CONTINUOUS
 10
7.906250
 20
-2.457460
 30
0.000000
 11
7.906250
 21
-1.637440
 31
0.000000
  0
LINE
  8
DIM
 62
     7
  6
CONTINUOUS
 10
8.343750
 20
-2.457460
 30
0.000000
 11
8.343750
 21
-1.637440
 31
0.000000
  0
LINE
  8
DIM
 62
     7
  6
CONTINUOUS
 10
7.729920
 20
-1.641250
 30
0.000000
 11
8.520080
 21
-1.641250
 31
0.000000
  0
LINE
  8
DIM
 62
     7
  6
CONTINUOUS
 10
7.906250
 20
-1.641250
 30
0.000000
 11
7.931250
 21
-1.628750
 31
0.000000
  0
LINE
  8
DIM
 62
     7
  6
CONTINUOUS
 10
7.906250
 20
-1.641250
 30
0.000000
 11
7.931250
 21
-1.653750
 31
0.000000
  0
LINE
  8
DIM
 62
     7
  6
CONTINUOUS
 10
8.343750
 20
-1.641250
 30
0.000000
 11
8.318750
 21
-1.653750
 31
0.000000
  0
LINE
  8
DIM
 62
     7
  6
CONTINUOUS
 10
8.343750
 20
-1.641250
 30
0.000000
 11
8.318750
 21
-1.628750
 31
0.000000
  0
TEXT
  8
DIM
 62
     7
 10
7.735000
 20
-1.559970
 30
0.000000
 40
0.200000
  1
0.4375
 72
     1
 11
8.125000
 21
-1.559970
 31
0.000000
  0
LINE
  8
DIM
 62
     7
  6
CONTINUOUS
 10
-0.758462
 20
-7.003704
 30
0.000000
 11
-0.758462
 21
-6.098934
 31
0.000000
  0
LINE
  8
DIM
 62
     7
  6
CONTINUOUS
 10
-0.151462
 20
-7.003704
 30
-0.000000
 11
-0.151462
 21
-6.098934
 31
-0.000000
  0
LINE
  8
DIM
 62
     7
  6
CONTINUOUS
 10
-0.770042
 20
-6.102744
 30
0.000000
 11
-0.139882
 21
-6.102744
 31
-0.000000
  0
LINE
  8
DIM
 62
     7
  6
CONTINUOUS
 10
-0.758462
 20
-6.102744
 30
0.000000
 11
-0.733462
 21
-6.090244
 31
0.000000
  0
LINE
  8
DIM
 62
     7
  6
CONTINUOUS
 10
-0.758462
 20
-6.102744
 30
0.000000
 11
-0.733462
 21
-6.115244
 31
0.000000
  0
LINE
  8
DIM
 62
     7
  6
CONTINUOUS
 10
-0.151462
 20
-6.102744
 30
-0.000000
 11
-0.176462
 21
-6.115244
 31
-0.000000
  0
LINE
  8
DIM
 62
     7
  6
CONTINUOUS
 10
-0.151462
 20
-6.102744
 30
-0.000000
 11
-0.176462
 21
-6.090244
 31
-0.000000
  0
TEXT
  8
DIM
 62
     7
 10
-0.764962
 20
-6.021464
 30
-0.000000
 40
0.200000
  1
0.607
 72
     1
 11
-0.454962
 21
-6.021464
 31
-0.000000
  0
LINE
  8
DIM
 62
     7
  6
CONTINUOUS
 10
-5.474227
 20
-3.426103
 30
0.000000
 11
-5.474227
 21
-2.606083
 31
0.000000
  0
LINE
  8
DIM
 62
     7
  6
CONTINUOUS
 10
-5.036727
 20
-3.426103
 30
0.000000
 11
-5.036727
 21
-2.606083
 31
0.000000
  0
LINE
  8
DIM
 62
     7
  6
CONTINUOUS
 10
-5.650557
 20
-2.609893
 30
0.000000
 11
-4.860397
 21
-2.609893
 31
0.000000
  0
LINE
  8
DIM
 62
     7
  6
CONTINUOUS
 10
-5.474227
 20
-2.609893
 30
0.000000
 11
-5.449227
 21
-2.597393
 31
0.000000
  0
LINE
  8
DIM
 62
     7
  6
CONTINUOUS
 10
-5.474227
 20
-2.609893
 30
0.000000
 11
-5.449227
 21
-2.622393
 31
0.000000
  0
LINE
  8
DIM
 62
     7
  6
CONTINUOUS
 10
-5.036727
 20
-2.609893
 30
0.000000
 11
-5.061727
 21
-2.622393
 31
0.000000
  0
LINE
  8
DIM
 62
     7
  6
CONTINUOUS
 10
-5.036727
 20
-2.609893
 30
0.000000
 11
-5.061727
 21
-2.597393
 31
0.000000
  0
TEXT
  8
DIM
 62
     7
 10
-5.645477
 20
-2.528613
 30
0.000000
 40
0.200000
  1
0.4375
 72
     1
 11
-5.255477
 21
-2.528613
 31
0.000000
  0
LINE
  8
DIM
 62
     7
  6
CONTINUOUS
 10
-5.570028
 20
3.279649
 30
0.000000
 11
-5.570028
 21
4.099669
 31
0.000000
  0
LINE
  8
DIM
 62
     7
  6
CONTINUOUS
 10
-5.132528
 20
3.279649
 30
0.000000
 11
-5.132528
 21
4.099669
 31
0.000000
  0
LINE
  8
DIM
 62
     7
  6
CONTINUOUS
 10
-5.746358
 20
4.095859
 30
0.000000
 11
-4.956198
 21
4.095859
 31
0.000000
  0
LINE
  8
DIM
 62
     7
  6
CONTINUOUS
 10
-5.570028
 20
4.095859
 30
0.000000
 11
-5.545028
 21
4.108359
 31
0.000000
  0
LINE
  8
DIM
 62
     7
  6
CONTINUOUS
 10
-5.570028
 20
4.095859
 30
0.000000
 11
-5.545028
 21
4.083359
 31
0.000000
  0
LINE
  8
DIM
 62
     7
  6
CONTINUOUS
 10
-5.132528
 20
4.095859
 30
0.000000
 11
-5.157528
 21
4.083359
 31
0.000000
  0
LINE
  8
DIM
 62
     7
  6
CONTINUOUS
 10
-5.132528
 20
4.095859
 30
0.000000
 11
-5.157528
 21
4.108359
 31
0.000000
  0
TEXT
  8
DIM
 62
     7
 10
-5.741279
 20
4.177139
 30
0.000000
 40
0.200000
  1
0.4375
 72
     1
 11
-5.351278
 21
4.177139
 31
0.000000
  0
LINE
  8
DIM
 62
     7
  6
CONTINUOUS
 10
-0.958425
 20
6.992927
 30
0.000000
 11
-0.958425
 21
7.897697
 31
0.000000
  0
LINE
  8
DIM
 62
     7
  6
CONTINUOUS
 10
-0.351425
 20
6.992927
 30
-0.000000
 11
-0.351425
 21
7.897697
 31
-0.000000
  0
LINE
  8
DIM
 62
     7
  6
CONTINUOUS
 10
-0.970005
 20
7.893887
 30
0.000000
 11
-0.339845
 21
7.893887
 31
-0.000000
  0
LINE
  8
DIM
 62
     7
  6
CONTINUOUS
 10
-0.958425
 20
7.893887
 30
0.000000
 11
-0.933425
 21
7.906387
 31
0.000000
  0
LINE
  8
DIM
 62
     7
  6
CONTINUOUS
 10
-0.958425
 20
7.893887
 30
0.000000
 11
-0.933425
 21
7.881387
 31
0.000000
  0
LINE
  8
DIM
 62
     7
  6
CONTINUOUS
 10
-0.351425
 20
7.893887
 30
-0.000000
 11
-0.376425
 21
7.881387
 31
-0.000000
  0
LINE
  8
DIM
 62
     7
  6
CONTINUOUS
 10
-0.351425
 20
7.893887
 30
-0.000000
 11
-0.376425
 21
7.906387
 31
-0.000000
  0
TEXT
  8
DIM
 62
     7
 10
-0.964925
 20
7.975167
 30
-0.000000
 40
0.200000
  1
0.607
 72
     1
 11
-0.654925
 21
7.975167
 31
-0.000000
  0
ENDSEC
  0
EOF
