  0
SECTION
  2
HEADER
  9
$ACADVER
  1
AC1006
  0
ENDSEC
  0
SECTION
  2
TABLES
  0
TABLE
  2
LTYPE
 70
    25
  0
LTYPE
  2
CONTINUOUS
 70
    64
  3
Solid line
 72
    64
 73
     0
 40
0.000000
  0
LTYPE
  2
DASHDOT
 70
    64
  3
__ . __ . __ . __ . __ . __ . __ . __ . __ . __
 72
    65
 73
     4
 40
1.000000
 49
0.500000
 49
-0.250000
 49
0.000000
 49
-0.250000
  0
LTYPE
  2
DASHED
 70
    64
  3
__ __ __ __ __ __ __ __ __ __ __ __ __ __ __ __
 72
    65
 73
     2
 40
0.750000
 49
0.500000
 49
-0.250000
  0
LTYPE
  2
DIVIDE
 70
    64
  3
____ . . ____ . . ____ . . ____ . . ____ . . __
 72
    65
 73
     6
 40
1.250000
 49
0.500000
 49
-0.250000
 49
0.000000
 49
-0.250000
 49
0.000000
 49
-0.250000
  0
LTYPE
  2
DOT
 70
    64
  3
. . . . . . . . . . . . . . . . . . . . . . . . 
 72
    65
 73
     2
 40
0.250000
 49
0.000000
 49
-0.250000
  0
ENDTAB
  0
ENDSEC
  0
SECTION
  2
BLOCKS
  0
BLOCK
  8
0
  2
Object_0
 70
    64
 10
0.000000
 20
0.000000
 30
0.000000
  0
ENDBLK
  0
ENDSEC
  0
SECTION
  2
ENTITIES
  0
CIRCLE
  8
Default
 62
     9
  6
CONTINUOUS
 10
0.000000
 20
0.000000
 30
-0.125000
 40
4.251000
  0
CIRCLE
  8
Default
 62
     9
  6
CONTINUOUS
 10
0.000000
 20
0.000000
 30
-0.625000
 40
3.000000
  0
CIRCLE
  8
Default
 62
     9
  6
CONTINUOUS
 10
-3.625000
 20
0.000000
 30
0.000000
 40
0.265625
  0
CIRCLE
  8
Default
 62
     9
  6
CONTINUOUS
 10
0.000000
 20
3.625000
 30
0.000000
 40
0.265625
  0
CIRCLE
  8
Default
 62
     9
  6
CONTINUOUS
 10
3.625000
 20
0.000000
 30
0.000000
 40
0.265625
  0
CIRCLE
  8
Default
 62
     9
  6
CONTINUOUS
 10
-0.000000
 20
-3.625000
 30
0.000000
 40
0.265625
  0
LINE
  8
Default
 62
     6
  6
CONTINUOUS
 10
5.393331
 20
1.244267
 30
0.000000
 11
0.000000
 21
0.000000
 31
0.000000
  0
LINE
  8
Default
 62
     6
  6
CONTINUOUS
 10
0.399765
 20
2.166425
 30
0.000000
 11
-4.316509
 21
3.037274
 31
0.000000
  0
LINE
  8
Default
 62
     6
  6
CONTINUOUS
 10
0.399765
 20
2.166425
 30
0.000000
 11
5.393331
 21
1.244267
 31
0.000000
  0
LINE
  8
Default
 62
     6
  6
CONTINUOUS
 10
0.399765
 20
2.166425
 30
0.000000
 11
0.000000
 21
0.000000
 31
0.000000
  0
LINE
  8
Default
 62
     6
  6
CONTINUOUS
 10
0.000000
 20
0.000000
 30
0.000000
 11
-4.316509
 21
3.037274
 31
0.000000
  0
POINT
  8
CAM
 62
     7
 10
5.393331
 20
1.244267
 30
0.000000
  0
POINT
  8
Default
 62
     7
 10
0.399765
 20
2.166425
 30
0.000000
  0
POINT
  8
Default
 62
     7
 10
-3.625000
 20
0.000000
 30
0.000000
  0
POINT
  8
Default
 62
     7
 10
0.000000
 20
3.625000
 30
0.000000
  0
POINT
  8
Default
 62
     7
 10
3.625000
 20
0.000000
 30
0.000000
  0
POINT
  8
Default
 62
     7
 10
-0.000000
 20
-3.625000
 30
0.000000
  0
POINT
  8
Default
 62
     7
 10
0.000000
 20
0.000000
 30
0.000000
  0
CIRCLE
  8
Default
 62
     6
  6
CONTINUOUS
 10
5.393331
 20
1.244267
 30
0.000000
 40
0.157500
  0
CIRCLE
  8
Default
 62
     6
  6
CONTINUOUS
 10
-4.316509
 20
3.037274
 30
0.000000
 40
0.157500
  0
LINE
  8
Default
 62
     6
  6
CONTINUOUS
 10
5.190448
 20
-0.522952
 30
0.000000
 11
5.726396
 21
1.136712
 31
0.000000
  0
POINT
  8
Default
 62
     7
 10
4.788621
 20
-2.385709
 30
0.000000
  0
CIRCLE
  8
Default
 62
     6
  6
CONTINUOUS
 10
-3.875612
 20
4.131810
 30
0.000000
 40
0.218800
  0
POINT
  8
Default
 62
     7
 10
4.529208
 20
3.402720
 30
0.000000
  0
CIRCLE
  8
Default
 62
     6
  6
CONTINUOUS
 10
0.256962
 20
5.658785
 30
0.000000
 40
0.218750
  0
POINT
  8
Default
 62
     7
 10
0.256962
 20
5.658785
 30
0.000000
  0
CIRCLE
  8
Default
 62
     6
  6
CONTINUOUS
 10
4.529208
 20
3.402720
 30
0.000000
 40
0.218800
  0
POINT
  8
Default
 62
     7
 10
-3.875612
 20
4.131810
 30
0.000000
  0
POINT
  8
Default
 62
     7
 10
-5.691589
 20
-0.617611
 30
0.000000
  0
CIRCLE
  8
Default
 62
     6
  6
CONTINUOUS
 10
4.788621
 20
-2.385709
 30
0.000000
 40
0.218750
  0
CIRCLE
  8
Default
 62
     6
  6
CONTINUOUS
 10
-5.691589
 20
-0.617611
 30
0.000000
 40
0.218750
  0
ARC
  8
Default
 62
     6
  6
CONTINUOUS
 10
6.142061
 20
-0.830252
 30
0.000000
 40
1.000000
 50
162.103424
 51
182.500011
  0
LINE
  8
Default
 62
     6
  6
CONTINUOUS
 10
5.208222
 20
-2.367388
 30
0.000000
 11
5.143013
 21
-0.873871
 31
0.000000
  0
ARC
  8
Default
 62
     6
  6
CONTINUOUS
 10
4.788621
 20
-2.385709
 30
0.000000
 40
0.420000
 50
304.534683
 51
362.500011
  0
LINE
  8
Default
 62
     6
  6
CONTINUOUS
 10
2.891215
 20
-4.201294
 30
0.000000
 11
5.026721
 21
-2.731698
 31
0.000000
  0
ARC
  8
Default
 62
     6
  6
CONTINUOUS
 10
0.000000
 20
0.000000
 30
0.000000
 40
5.100000
 50
221.361044
 51
304.534683
  0
LINE
  8
Default
 62
     6
  6
CONTINUOUS
 10
-3.827859
 20
-3.370089
 30
0.000000
 11
-6.006824
 21
-0.895147
 31
0.000000
  0
ARC
  8
Default
 62
     6
  6
CONTINUOUS
 10
-5.691589
 20
-0.617611
 30
0.000000
 40
0.420000
 50
151.025151
 51
221.361044
  0
LINE
  8
Default
 62
     6
  6
CONTINUOUS
 10
-6.059018
 20
-0.414152
 30
0.000000
 11
-4.953435
 21
1.582440
 31
0.000000
  0
ARC
  8
Default
 62
     6
  6
CONTINUOUS
 10
-5.609559
 20
1.945759
 30
0.000000
 40
0.750000
 50
331.025151
 51
350.715113
  0
LINE
  8
Default
 62
     6
  6
CONTINUOUS
 10
-4.869385
 20
1.824752
 30
0.000000
 11
-4.661924
 21
3.093744
 31
0.000000
  0
ARC
  8
Default
 62
     6
  6
CONTINUOUS
 10
-4.316509
 20
3.037274
 30
0.000000
 40
0.350000
 50
161.460520
 51
170.715113
  0
LINE
  8
Default
 62
     6
  6
CONTINUOUS
 10
-4.648346
 20
3.148559
 30
0.000000
 11
-4.273816
 21
4.265353
 31
0.000000
  0
ARC
  8
Default
 62
     6
  6
CONTINUOUS
 10
-3.875612
 20
4.131810
 30
0.000000
 40
0.420000
 50
151.719278
 51
161.460520
  0
LINE
  8
Default
 62
     6
  6
CONTINUOUS
 10
-3.322019
 20
6.047239
 30
0.000000
 11
-4.245480
 21
4.330803
 31
0.000000
  0
POINT
  8
Default
 62
     7
 10
-3.322019
 20
6.047239
 30
0.000000
  0
ARC
  8
Default
 62
     6
  6
CONTINUOUS
 10
-1.735218
 20
5.105244
 30
0.000000
 40
1.845343
 50
74.998424
 51
149.304761
  0
POINT
  8
Default
 62
     7
 10
-1.718555
 20
6.950512
 30
0.000000
  0
POINT
  8
Default
 62
     7
 10
0.059883
 20
5.532917
 30
0.000000
  0
LINE
  8
Default
 62
     6
  6
CONTINUOUS
 10
0.079022
 20
6.529520
 30
0.000000
 11
-1.257559
 21
6.887695
 31
0.000000
  0
POINT
  8
Default
 62
     7
 10
0.575372
 20
6.383474
 30
0.000000
  0
POINT
  8
Default
 62
     7
 10
3.616758
 20
5.893759
 30
0.000000
  0
POINT
  8
Default
 62
     7
 10
4.106473
 20
3.290539
 30
0.000000
  0
ARC
  8
Default
 62
     6
  6
CONTINUOUS
 10
0.337868
 20
7.495439
 30
0.000000
 40
1.000000
 50
254.998424
 51
279.956999
  0
LINE
  8
Default
 62
     6
  6
CONTINUOUS
 10
1.352798
 20
6.658320
 30
0.000000
 11
0.510777
 21
6.510501
 31
0.000000
  0
ARC
  8
Default
 62
     6
  6
CONTINUOUS
 10
1.784130
 20
4.201335
 30
0.000000
 40
2.494559
 50
28.122678
 51
99.956999
  0
LINE
  8
Default
 62
     6
  6
CONTINUOUS
 10
3.984182
 20
5.377173
 30
0.000000
 11
4.926081
 21
3.614832
 31
0.000000
  0
ARC
  8
Default
 62
     6
  6
CONTINUOUS
 10
4.529208
 20
3.402720
 30
0.000000
 40
0.450000
 50
2.082470
 51
28.122678
  0
LINE
  8
Default
 62
     6
  6
CONTINUOUS
 10
5.015323
 20
2.417678
 30
0.000000
 11
4.978911
 21
3.419072
 31
0.000000
  0
ARC
  8
Default
 62
     6
  6
CONTINUOUS
 10
5.764828
 20
2.444931
 30
0.000000
 40
0.750000
 50
182.082470
 51
223.878798
  0
LINE
  8
Default
 62
     6
  6
CONTINUOUS
 10
5.645614
 20
1.486865
 30
0.000000
 11
5.224222
 21
1.925080
 31
0.000000
  0
ARC
  8
Default
 62
     6
  6
CONTINUOUS
 10
5.393331
 20
1.244267
 30
0.000000
 40
0.350000
 50
342.103424
 51
403.878798
  0
INSERT
  8
CAM
 62
     7
  2
Object_0
 10
-10.160000
 20
-10.160000
 30
0.000000
  0
POINT
  8
DIM
 62
     7
 10
-4.316509
 20
3.037274
 30
0.000000
  0
LINE
  8
DIM
 62
     7
  6
CONTINUOUS
 10
-0.005080
 20
-0.000001
 30
-0.124979
 11
-6.119963
 21
-0.000435
 31
-0.099361
  0
LINE
  8
DIM
 62
     7
  6
CONTINUOUS
 10
-1.723635
 20
6.950511
 30
0.000021
 11
-6.119963
 21
6.950199
 31
0.018439
  0
LINE
  8
DIM
 62
     7
  6
CONTINUOUS
 10
-6.112343
 20
-0.000434
 30
-0.099393
 11
-6.112343
 21
6.950200
 31
0.018407
  0
LINE
  8
DIM
 62
     7
  6
CONTINUOUS
 10
-6.112343
 20
-0.000434
 30
-0.099393
 11
-6.137343
 21
0.049557
 31
-0.098441
  0
LINE
  8
DIM
 62
     7
  6
CONTINUOUS
 10
-6.112343
 20
-0.000434
 30
-0.099393
 11
-6.087344
 21
0.049560
 31
-0.098651
  0
LINE
  8
DIM
 62
     7
  6
CONTINUOUS
 10
-6.112343
 20
6.950200
 30
0.018407
 11
-6.087344
 21
6.900209
 31
0.017455
  0
LINE
  8
DIM
 62
     7
  6
CONTINUOUS
 10
-6.112343
 20
6.950200
 30
0.018407
 11
-6.137343
 21
6.900205
 31
0.017664
  0
TEXT
  8
DIM
 62
     7
 10
-4.751680
 20
6.669623
 30
-0.124981
 40
0.250000
  1
6.952
 50
76.113873
 72
     1
 11
-4.658683
 21
7.045798
 31
-0.124981
210
0.004190
220
-0.016946
230
0.999848
  0
LINE
  8
DIM
 62
     7
  6
CONTINUOUS
 10
-0.000000
 20
-0.005080
 30
-0.124990
 11
-0.000000
 21
-0.014672
 31
-0.124970
  0
LINE
  8
DIM
 62
     7
  6
CONTINUOUS
 10
-6.111589
 20
-0.612531
 30
-0.000010
 11
-6.111589
 21
0.000821
 31
-0.001265
  0
LINE
  8
DIM
 62
     7
  6
CONTINUOUS
 10
-0.000000
 20
-0.007052
 30
-0.124986
 11
-7.090448
 21
-0.006758
 31
0.018568
  0
LINE
  8
DIM
 62
     7
  6
CONTINUOUS
 10
-0.000000
 20
-0.007052
 30
-0.124986
 11
-0.049990
 21
-0.032050
 31
-0.123922
  0
LINE
  8
DIM
 62
     7
  6
CONTINUOUS
 10
-0.000000
 20
-0.007052
 30
-0.124986
 11
-0.049990
 21
0.017950
 31
-0.124025
  0
LINE
  8
DIM
 62
     7
  6
CONTINUOUS
 10
-6.111589
 20
-0.006799
 30
-0.001250
 11
-6.061599
 21
0.018199
 31
-0.002313
  0
LINE
  8
DIM
 62
     7
  6
CONTINUOUS
 10
-6.111589
 20
-0.006799
 30
-0.001250
 11
-6.061599
 21
-0.031801
 31
-0.002211
  0
TEXT
  8
DIM
 62
     7
 10
0.806238
 20
7.033789
 30
-0.124974
 40
0.250000
  1
6.113
 50
-95.771663
 72
     1
 11
0.772298
 21
6.698000
 31
-0.124974
210
0.020242
220
0.002046
230
0.999793
  0
LINE
  8
DIM
 62
     7
  6
CONTINUOUS
 10
-0.005080
 20
0.000000
 30
-0.125000
 11
-6.119963
 21
0.000000
 31
-0.125000
  0
LINE
  8
DIM
 62
     7
  6
CONTINUOUS
 10
-0.005080
 20
-5.100000
 30
0.000000
 11
-6.119963
 21
-5.100000
 31
0.000000
  0
LINE
  8
DIM
 62
     7
  6
CONTINUOUS
 10
-6.112343
 20
0.000000
 30
-0.125000
 11
-6.112343
 21
-5.100000
 31
0.000000
  0
LINE
  8
DIM
 62
     7
  6
CONTINUOUS
 10
-6.112343
 20
0.000000
 30
-0.125000
 11
-6.087343
 21
-0.049985
 31
-0.123775
  0
LINE
  8
DIM
 62
     7
  6
CONTINUOUS
 10
-6.112343
 20
0.000000
 30
-0.125000
 11
-6.137343
 21
-0.049985
 31
-0.123775
  0
LINE
  8
DIM
 62
     7
  6
CONTINUOUS
 10
-6.112343
 20
-5.100000
 30
0.000000
 11
-6.137343
 21
-5.050015
 31
-0.001225
  0
LINE
  8
DIM
 62
     7
  6
CONTINUOUS
 10
-6.112343
 20
-5.100000
 30
0.000000
 11
-6.087343
 21
-5.050015
 31
-0.001225
  0
TEXT
  8
DIM
 62
     7
 10
6.213944
 20
4.040752
 30
-0.124962
 40
0.250000
  1
5.102
 50
-89.999996
 72
     1
 11
6.213944
 21
3.678252
 31
-0.124962
210
0.000000
220
0.024502
230
0.999700
  0
LINE
  8
DIM
 62
     7
  6
CONTINUOUS
 10
-5.910339
 20
-0.612531
 30
0.000000
 11
-5.910339
 21
0.358759
 31
0.000000
  0
LINE
  8
DIM
 62
     7
  6
CONTINUOUS
 10
-5.472839
 20
-0.612531
 30
0.000000
 11
-5.472839
 21
0.358759
 31
0.000000
  0
LINE
  8
DIM
 62
     7
  6
CONTINUOUS
 10
-6.101749
 20
0.351139
 30
0.000000
 11
-5.281429
 21
0.351139
 31
0.000000
  0
LINE
  8
DIM
 62
     7
  6
CONTINUOUS
 10
-5.910339
 20
0.351139
 30
0.000000
 11
-5.860339
 21
0.376139
 31
0.000000
  0
LINE
  8
DIM
 62
     7
  6
CONTINUOUS
 10
-5.910339
 20
0.351139
 30
0.000000
 11
-5.860339
 21
0.326139
 31
0.000000
  0
LINE
  8
DIM
 62
     7
  6
CONTINUOUS
 10
-5.472839
 20
0.351139
 30
0.000000
 11
-5.522839
 21
0.326139
 31
0.000000
  0
LINE
  8
DIM
 62
     7
  6
CONTINUOUS
 10
-5.472839
 20
0.351139
 30
0.000000
 11
-5.522839
 21
0.376139
 31
0.000000
  0
TEXT
  8
DIM
 62
     7
 10
-6.091589
 20
0.452739
 30
0.000000
 40
0.250000
  1
0.438
 72
     1
 11
-5.691589
 21
0.452739
 31
0.000000
  0
LINE
  8
DIM
 62
     7
  6
CONTINUOUS
 10
-4.474009
 20
3.042354
 30
0.000000
 11
-4.474009
 21
3.952394
 31
0.000000
  0
LINE
  8
DIM
 62
     7
  6
CONTINUOUS
 10
-4.159009
 20
3.042354
 30
0.000000
 11
-4.159009
 21
3.952394
 31
0.000000
  0
LINE
  8
DIM
 62
     7
  6
CONTINUOUS
 10
-4.776669
 20
3.944774
 30
0.000000
 11
-3.856349
 21
3.944774
 31
0.000000
  0
LINE
  8
DIM
 62
     7
  6
CONTINUOUS
 10
-4.474009
 20
3.944774
 30
0.000000
 11
-4.424009
 21
3.969774
 31
0.000000
  0
LINE
  8
DIM
 62
     7
  6
CONTINUOUS
 10
-4.474009
 20
3.944774
 30
0.000000
 11
-4.424009
 21
3.919774
 31
0.000000
  0
LINE
  8
DIM
 62
     7
  6
CONTINUOUS
 10
-4.159009
 20
3.944774
 30
0.000000
 11
-4.209009
 21
3.919774
 31
0.000000
  0
LINE
  8
DIM
 62
     7
  6
CONTINUOUS
 10
-4.159009
 20
3.944774
 30
0.000000
 11
-4.209009
 21
3.969774
 31
0.000000
  0
TEXT
  8
DIM
 62
     7
 10
-4.766509
 20
4.046374
 30
0.000000
 40
0.250000
  1
0.3150
 72
     1
 11
-4.316509
 21
4.046374
 31
0.000000
  0
LINE
  8
DIM
 62
     7
  6
CONTINUOUS
 10
-4.094412
 20
4.136890
 30
0.000000
 11
-4.094412
 21
5.108230
 31
0.000000
  0
LINE
  8
DIM
 62
     7
  6
CONTINUOUS
 10
-3.656812
 20
4.136890
 30
0.000000
 11
-3.656812
 21
5.108230
 31
0.000000
  0
LINE
  8
DIM
 62
     7
  6
CONTINUOUS
 10
-4.285772
 20
5.100610
 30
0.000000
 11
-3.465452
 21
5.100610
 31
0.000000
  0
LINE
  8
DIM
 62
     7
  6
CONTINUOUS
 10
-4.094412
 20
5.100610
 30
0.000000
 11
-4.044412
 21
5.125610
 31
0.000000
  0
LINE
  8
DIM
 62
     7
  6
CONTINUOUS
 10
-4.094412
 20
5.100610
 30
0.000000
 11
-4.044412
 21
5.075610
 31
0.000000
  0
LINE
  8
DIM
 62
     7
  6
CONTINUOUS
 10
-3.656812
 20
5.100610
 30
0.000000
 11
-3.706812
 21
5.075610
 31
0.000000
  0
LINE
  8
DIM
 62
     7
  6
CONTINUOUS
 10
-3.656812
 20
5.100610
 30
0.000000
 11
-3.706812
 21
5.125610
 31
0.000000
  0
TEXT
  8
DIM
 62
     7
 10
-4.275612
 20
5.202210
 30
0.000000
 40
0.250000
  1
0.438
 72
     1
 11
-3.875612
 21
5.202210
 31
0.000000
  0
LINE
  8
DIM
 62
     7
  6
CONTINUOUS
 10
0.038212
 20
5.663865
 30
0.000000
 11
0.038212
 21
6.635155
 31
0.000000
  0
LINE
  8
DIM
 62
     7
  6
CONTINUOUS
 10
0.475712
 20
5.663865
 30
0.000000
 11
0.475712
 21
6.635155
 31
0.000000
  0
LINE
  8
DIM
 62
     7
  6
CONTINUOUS
 10
-0.153198
 20
6.627535
 30
0.000000
 11
0.667122
 21
6.627535
 31
0.000000
  0
LINE
  8
DIM
 62
     7
  6
CONTINUOUS
 10
0.038212
 20
6.627535
 30
0.000000
 11
0.088212
 21
6.652535
 31
0.000000
  0
LINE
  8
DIM
 62
     7
  6
CONTINUOUS
 10
0.038212
 20
6.627535
 30
0.000000
 11
0.088212
 21
6.602535
 31
0.000000
  0
LINE
  8
DIM
 62
     7
  6
CONTINUOUS
 10
0.475712
 20
6.627535
 30
0.000000
 11
0.425712
 21
6.602535
 31
0.000000
  0
LINE
  8
DIM
 62
     7
  6
CONTINUOUS
 10
0.475712
 20
6.627535
 30
0.000000
 11
0.425712
 21
6.652535
 31
0.000000
  0
TEXT
  8
DIM
 62
     7
 10
-0.143038
 20
6.729136
 30
0.000000
 40
0.250000
  1
0.438
 72
     1
 11
0.256962
 21
6.729136
 31
0.000000
  0
CIRCLE
  8
DIM
 62
     7
  6
CONTINUOUS
 10
5.393331
 20
1.244267
 30
0.000000
 40
0.030000
  0
CIRCLE
  8
CAM
 62
     7
  6
CONTINUOUS
 10
5.393331
 20
1.244267
 30
0.000000
 40
0.032500
  0
CIRCLE
  8
CAM
 62
     7
  6
CONTINUOUS
 10
-4.316509
 20
3.037274
 30
0.000000
 40
0.030000
  0
CIRCLE
  8
CAM
 62
     7
  6
CONTINUOUS
 10
-4.316509
 20
3.037274
 30
0.000000
 40
0.032500
  0
LINE
  8
CAM
 62
     7
  6
CONTINUOUS
 10
6.088009
 20
1.019939
 30
0.000000
 11
5.552061
 21
-0.639726
 31
0.000000
  0
ARC
  8
CAM
 62
     7
  6
CONTINUOUS
 10
6.142061
 20
-0.830252
 30
0.000000
 40
0.620000
 50
162.103424
 51
182.500011
  0
LINE
  8
CAM
 62
     7
  6
CONTINUOUS
 10
5.522651
 20
-0.857296
 30
0.000000
 11
5.587860
 21
-2.350813
 31
0.000000
  0
ARC
  8
CAM
 62
     7
  6
CONTINUOUS
 10
4.788621
 20
-2.385709
 30
0.000000
 40
0.800000
 50
304.534683
 51
362.500011
  0
LINE
  8
CAM
 62
     7
  6
CONTINUOUS
 10
5.242145
 20
-3.044735
 30
0.000000
 11
3.106639
 21
-4.514332
 31
0.000000
  0
ARC
  8
CAM
 62
     7
  6
CONTINUOUS
 10
0.000000
 20
0.000000
 30
0.000000
 40
5.480000
 50
221.361044
 51
304.534683
  0
LINE
  8
CAM
 62
     7
  6
CONTINUOUS
 10
-4.113072
 20
-3.621193
 30
0.000000
 11
-6.292037
 21
-1.146252
 31
0.000000
  0
ARC
  8
CAM
 62
     7
  6
CONTINUOUS
 10
-5.691589
 20
-0.617611
 30
0.000000
 40
0.800000
 50
151.025151
 51
221.361044
  0
LINE
  8
CAM
 62
     7
  6
CONTINUOUS
 10
-6.391455
 20
-0.230070
 30
0.000000
 11
-5.285871
 21
1.766522
 31
0.000000
  0
ARC
  8
CAM
 62
     7
  6
CONTINUOUS
 10
-5.609559
 20
1.945759
 30
0.000000
 40
0.370000
 50
331.025151
 51
350.715113
  0
LINE
  8
CAM
 62
     7
  6
CONTINUOUS
 10
-5.244407
 20
1.886062
 30
0.000000
 11
-5.036945
 21
3.155055
 31
0.000000
  0
ARC
  8
CAM
 62
     7
  6
CONTINUOUS
 10
-4.316509
 20
3.037274
 30
0.000000
 40
0.730000
 50
161.460520
 51
170.715113
  0
LINE
  8
CAM
 62
     7
  6
CONTINUOUS
 10
-5.008626
 20
3.269383
 30
0.000000
 11
-4.634096
 21
4.386177
 31
0.000000
  0
ARC
  8
CAM
 62
     7
  6
CONTINUOUS
 10
-3.875612
 20
4.131810
 30
0.000000
 40
0.800000
 50
151.719278
 51
161.460520
  0
LINE
  8
CAM
 62
     7
  6
CONTINUOUS
 10
-4.580122
 20
4.510844
 30
0.000000
 11
-3.656661
 21
6.227280
 31
0.000000
  0
ARC
  8
CAM
 62
     7
  6
CONTINUOUS
 10
-3.322019
 20
6.047239
 30
0.000000
 40
0.380000
 50
149.304761
 51
151.719278
  0
ARC
  8
CAM
 62
     7
  6
CONTINUOUS
 10
-1.735218
 20
5.105244
 30
0.000000
 40
2.225343
 50
74.998424
 51
149.304761
  0
LINE
  8
CAM
 62
     7
  6
CONTINUOUS
 10
-1.159198
 20
7.254744
 30
0.000000
 11
0.177384
 21
6.896569
 31
0.000000
  0
ARC
  8
CAM
 62
     7
  6
CONTINUOUS
 10
0.337868
 20
7.495439
 30
0.000000
 40
0.620000
 50
254.998424
 51
279.956999
  0
LINE
  8
CAM
 62
     7
  6
CONTINUOUS
 10
0.445071
 20
6.884777
 30
0.000000
 11
1.287093
 21
7.032597
 31
0.000000
  0
ARC
  8
CAM
 62
     7
  6
CONTINUOUS
 10
1.784130
 20
4.201335
 30
0.000000
 40
2.874559
 50
28.122678
 51
99.956999
  0
LINE
  8
CAM
 62
     7
  6
CONTINUOUS
 10
4.319320
 20
5.556290
 30
0.000000
 11
5.261218
 21
3.793949
 31
0.000000
  0
ARC
  8
CAM
 62
     7
  6
CONTINUOUS
 10
4.529208
 20
3.402720
 30
0.000000
 40
0.830000
 50
2.082470
 51
28.122678
  0
LINE
  8
CAM
 62
     7
  6
CONTINUOUS
 10
5.358660
 20
3.432880
 30
0.000000
 11
5.395072
 21
2.431486
 31
0.000000
  0
ARC
  8
CAM
 62
     7
  6
CONTINUOUS
 10
5.764828
 20
2.444931
 30
0.000000
 40
0.370000
 50
182.082470
 51
223.878798
  0
LINE
  8
CAM
 62
     7
  6
CONTINUOUS
 10
5.498129
 20
2.188471
 30
0.000000
 11
5.919521
 21
1.750256
 31
0.000000
  0
ARC
  8
CAM
 62
     7
  6
CONTINUOUS
 10
5.393331
 20
1.244267
 30
0.000000
 40
0.730000
 50
342.103424
 51
403.878798
  0
LINE
  8
CAM
 62
     7
  6
CONTINUOUS
 10
6.083251
 20
1.021475
 30
0.000000
 11
5.547303
 21
-0.638189
 31
0.000000
  0
ARC
  8
CAM
 62
     7
  6
CONTINUOUS
 10
6.142061
 20
-0.830252
 30
0.000000
 40
0.625000
 50
162.103424
 51
182.500011
  0
LINE
  8
CAM
 62
     7
  6
CONTINUOUS
 10
5.517656
 20
-0.857514
 30
0.000000
 11
5.582865
 21
-2.351031
 31
0.000000
  0
ARC
  8
CAM
 62
     7
  6
CONTINUOUS
 10
4.788621
 20
-2.385709
 30
0.000000
 40
0.795000
 50
304.534683
 51
362.500011
  0
LINE
  8
CAM
 62
     7
  6
CONTINUOUS
 10
5.239311
 20
-3.040616
 30
0.000000
 11
3.103805
 21
-4.510213
 31
0.000000
  0
ARC
  8
CAM
 62
     7
  6
CONTINUOUS
 10
0.000000
 20
0.000000
 30
0.000000
 40
5.475000
 50
221.361044
 51
304.534683
  0
LINE
  8
CAM
 62
     7
  6
CONTINUOUS
 10
-4.109319
 20
-3.617889
 30
0.000000
 11
-6.288284
 21
-1.142948
 31
0.000000
  0
ARC
  8
CAM
 62
     7
  6
CONTINUOUS
 10
-5.691589
 20
-0.617611
 30
0.000000
 40
0.795000
 50
151.025151
 51
221.361044
  0
LINE
  8
CAM
 62
     7
  6
CONTINUOUS
 10
-6.387081
 20
-0.232492
 30
0.000000
 11
-5.281497
 21
1.764100
 31
0.000000
  0
ARC
  8
CAM
 62
     7
  6
CONTINUOUS
 10
-5.609559
 20
1.945759
 30
0.000000
 40
0.375000
 50
331.025151
 51
350.715113
  0
LINE
  8
CAM
 62
     7
  6
CONTINUOUS
 10
-5.239472
 20
1.885256
 30
0.000000
 11
-5.032010
 21
3.154248
 31
0.000000
  0
ARC
  8
CAM
 62
     7
  6
CONTINUOUS
 10
-4.316509
 20
3.037274
 30
0.000000
 40
0.725000
 50
161.460520
 51
170.715113
  0
LINE
  8
CAM
 62
     7
  6
CONTINUOUS
 10
-5.003885
 20
3.267793
 30
0.000000
 11
-4.629355
 21
4.384587
 31
0.000000
  0
ARC
  8
CAM
 62
     7
  6
CONTINUOUS
 10
-3.875612
 20
4.131810
 30
0.000000
 40
0.795000
 50
151.719278
 51
161.460520
  0
LINE
  8
CAM
 62
     7
  6
CONTINUOUS
 10
-4.575718
 20
4.508475
 30
0.000000
 11
-3.652258
 21
6.224911
 31
0.000000
  0
ARC
  8
CAM
 62
     7
  6
CONTINUOUS
 10
-3.322019
 20
6.047239
 30
0.000000
 40
0.375000
 50
149.304761
 51
151.719278
  0
ARC
  8
CAM
 62
     7
  6
CONTINUOUS
 10
-1.735218
 20
5.105244
 30
0.000000
 40
2.220343
 50
74.998424
 51
149.304761
  0
LINE
  8
CAM
 62
     7
  6
CONTINUOUS
 10
-1.160492
 20
7.249915
 30
0.000000
 11
0.176089
 21
6.891740
 31
0.000000
  0
ARC
  8
CAM
 62
     7
  6
CONTINUOUS
 10
0.337868
 20
7.495439
 30
0.000000
 40
0.625000
 50
254.998424
 51
279.956999
  0
LINE
  8
CAM
 62
     7
  6
CONTINUOUS
 10
0.445936
 20
6.879853
 30
0.000000
 11
1.287957
 21
7.027672
 31
0.000000
  0
ARC
  8
CAM
 62
     7
  6
CONTINUOUS
 10
1.784130
 20
4.201335
 30
0.000000
 40
2.869559
 50
28.122678
 51
99.956999
  0
LINE
  8
CAM
 62
     7
  6
CONTINUOUS
 10
4.314910
 20
5.553933
 30
0.000000
 11
5.256809
 21
3.791592
 31
0.000000
  0
ARC
  8
CAM
 62
     7
  6
CONTINUOUS
 10
4.529208
 20
3.402720
 30
0.000000
 40
0.825000
 50
2.082470
 51
28.122678
  0
LINE
  8
CAM
 62
     7
  6
CONTINUOUS
 10
5.353663
 20
3.432698
 30
0.000000
 11
5.390076
 21
2.431305
 31
0.000000
  0
ARC
  8
CAM
 62
     7
  6
CONTINUOUS
 10
5.764828
 20
2.444931
 30
0.000000
 40
0.375000
 50
182.082470
 51
223.878798
  0
LINE
  8
CAM
 62
     7
  6
CONTINUOUS
 10
5.494525
 20
2.185006
 30
0.000000
 11
5.915917
 21
1.746790
 31
0.000000
  0
ARC
  8
CAM
 62
     7
  6
CONTINUOUS
 10
5.393331
 20
1.244267
 30
0.000000
 40
0.725000
 50
342.103424
 51
403.878798
  0
CIRCLE
  8
CAM
 62
     7
  6
CONTINUOUS
 10
0.000000
 20
0.000000
 30
-0.625000
 40
2.620000
  0
CIRCLE
  8
CAM
 62
     7
  6
CONTINUOUS
 10
0.000000
 20
0.000000
 30
-0.625000
 40
2.625000
  0
LINE
  8
DIM
 62
     7
  6
CONTINUOUS
 10
4.310408
 20
3.407800
 30
0.000000
 11
4.310408
 21
4.379140
 31
0.000000
  0
LINE
  8
DIM
 62
     7
  6
CONTINUOUS
 10
4.748008
 20
3.407800
 30
0.000000
 11
4.748008
 21
4.379140
 31
0.000000
  0
LINE
  8
DIM
 62
     7
  6
CONTINUOUS
 10
4.119048
 20
4.371520
 30
0.000000
 11
4.939368
 21
4.371520
 31
0.000000
  0
LINE
  8
DIM
 62
     7
  6
CONTINUOUS
 10
4.310408
 20
4.371520
 30
0.000000
 11
4.360408
 21
4.396520
 31
0.000000
  0
LINE
  8
DIM
 62
     7
  6
CONTINUOUS
 10
4.310408
 20
4.371520
 30
0.000000
 11
4.360408
 21
4.346520
 31
0.000000
  0
LINE
  8
DIM
 62
     7
  6
CONTINUOUS
 10
4.748008
 20
4.371520
 30
0.000000
 11
4.698008
 21
4.346520
 31
0.000000
  0
LINE
  8
DIM
 62
     7
  6
CONTINUOUS
 10
4.748008
 20
4.371520
 30
0.000000
 11
4.698008
 21
4.396520
 31
0.000000
  0
TEXT
  8
DIM
 62
     7
 10
4.129208
 20
4.473120
 30
0.000000
 40
0.250000
  1
0.438
 72
     1
 11
4.529208
 21
4.473120
 31
0.000000
  0
LINE
  8
DIM
 62
     7
  6
CONTINUOUS
 10
5.235831
 20
1.249347
 30
0.000000
 11
5.235831
 21
2.159387
 31
0.000000
  0
LINE
  8
DIM
 62
     7
  6
CONTINUOUS
 10
5.550831
 20
1.249347
 30
0.000000
 11
5.550831
 21
2.159387
 31
0.000000
  0
LINE
  8
DIM
 62
     7
  6
CONTINUOUS
 10
4.933171
 20
2.151767
 30
0.000000
 11
5.853491
 21
2.151767
 31
0.000000
  0
LINE
  8
DIM
 62
     7
  6
CONTINUOUS
 10
5.235831
 20
2.151767
 30
0.000000
 11
5.285831
 21
2.176767
 31
0.000000
  0
LINE
  8
DIM
 62
     7
  6
CONTINUOUS
 10
5.235831
 20
2.151767
 30
0.000000
 11
5.285831
 21
2.126767
 31
0.000000
  0
LINE
  8
DIM
 62
     7
  6
CONTINUOUS
 10
5.550831
 20
2.151767
 30
0.000000
 11
5.500831
 21
2.126767
 31
0.000000
  0
LINE
  8
DIM
 62
     7
  6
CONTINUOUS
 10
5.550831
 20
2.151767
 30
0.000000
 11
5.500831
 21
2.176767
 31
0.000000
  0
TEXT
  8
DIM
 62
     7
 10
4.943331
 20
2.253368
 30
0.000000
 40
0.250000
  1
0.3150
 72
     1
 11
5.393331
 21
2.253368
 31
0.000000
  0
LINE
  8
DIM
 62
     7
  6
CONTINUOUS
 10
0.000000
 20
-0.005080
 30
-0.125024
 11
0.000000
 21
-0.013783
 31
-0.125066
  0
LINE
  8
DIM
 62
     7
  6
CONTINUOUS
 10
5.734373
 20
1.317867
 30
-0.000024
 11
5.734373
 21
-0.014350
 31
-0.006385
  0
LINE
  8
DIM
 62
     7
  6
CONTINUOUS
 10
0.000000
 20
-0.006163
 30
-0.125029
 11
6.566573
 21
-0.006812
 31
0.010874
  0
LINE
  8
DIM
 62
     7
  6
CONTINUOUS
 10
0.000000
 20
-0.006163
 30
-0.125029
 11
0.049989
 21
0.018832
 31
-0.123875
  0
LINE
  8
DIM
 62
     7
  6
CONTINUOUS
 10
0.000000
 20
-0.006163
 30
-0.125029
 11
0.049989
 21
-0.031168
 31
-0.124114
  0
LINE
  8
DIM
 62
     7
  6
CONTINUOUS
 10
5.734373
 20
-0.006730
 30
-0.006349
 11
5.684384
 21
-0.031724
 31
-0.007503
  0
LINE
  8
DIM
 62
     7
  6
CONTINUOUS
 10
5.734373
 20
-0.006730
 30
-0.006349
 11
5.684384
 21
0.018275
 31
-0.007264
  0
TEXT
  8
DIM
 62
     7
 10
1.207263
 20
5.653548
 30
-0.124972
 40
0.250000
  1
5.736
 50
77.006059
 72
     1
 11
1.294391
 21
6.031126
 31
-0.124972
210
-0.020692
220
-0.004774
230
0.999774
  0
LINE
  8
DIM
 62
     7
  6
CONTINUOUS
 10
4.569871
 20
-2.380629
 30
0.000000
 11
4.569871
 21
-1.409339
 31
0.000000
  0
LINE
  8
DIM
 62
     7
  6
CONTINUOUS
 10
5.007371
 20
-2.380629
 30
0.000000
 11
5.007371
 21
-1.409339
 31
0.000000
  0
LINE
  8
DIM
 62
     7
  6
CONTINUOUS
 10
4.378461
 20
-1.416959
 30
0.000000
 11
5.198781
 21
-1.416959
 31
0.000000
  0
LINE
  8
DIM
 62
     7
  6
CONTINUOUS
 10
4.569871
 20
-1.416959
 30
0.000000
 11
4.619871
 21
-1.391959
 31
0.000000
  0
LINE
  8
DIM
 62
     7
  6
CONTINUOUS
 10
4.569871
 20
-1.416959
 30
0.000000
 11
4.619871
 21
-1.441959
 31
0.000000
  0
LINE
  8
DIM
 62
     7
  6
CONTINUOUS
 10
5.007371
 20
-1.416959
 30
0.000000
 11
4.957371
 21
-1.441959
 31
0.000000
  0
LINE
  8
DIM
 62
     7
  6
CONTINUOUS
 10
5.007371
 20
-1.416959
 30
0.000000
 11
4.957371
 21
-1.391959
 31
0.000000
  0
TEXT
  8
DIM
 62
     7
 10
4.388621
 20
-1.315359
 30
0.000000
 40
0.250000
  1
0.438
 72
     1
 11
4.788621
 21
-1.315359
 31
0.000000
  0
TEXT
  8
DIM
 62
     7
 10
-1.517535
 20
4.763213
 30
0.000000
 40
0.200000
  1
Countersink holes on back side
 72
     1
 11
0.302465
 21
4.763213
 31
0.000000
  0
TEXT
  8
DIM
 62
     7
 10
-1.634949
 20
5.147005
 30
0.000000
 40
0.200000
  1
9.875 x 1/4" recess on back side
 72
     1
 11
0.275051
 21
5.147005
 31
0.000000
  0
ENDSEC
  0
EOF
