  0
SECTION
  2
HEADER
  9
$ACADVER
  1
AC1006
  0
ENDSEC
  0
SECTION
  2
TABLES
  0
TABLE
  2
LTYPE
 70
    25
  0
LTYPE
  2
CONTINUOUS
 70
    64
  3
Solid line
 72
    64
 73
     0
 40
0.000000
  0
LTYPE
  2
DASHDOT
 70
    64
  3
__ . __ . __ . __ . __ . __ . __ . __ . __ . __
 72
    65
 73
     4
 40
1.000000
 49
0.500000
 49
-0.250000
 49
0.000000
 49
-0.250000
  0
LTYPE
  2
DASHED
 70
    64
  3
__ __ __ __ __ __ __ __ __ __ __ __ __ __ __ __
 72
    65
 73
     2
 40
0.750000
 49
0.500000
 49
-0.250000
  0
LTYPE
  2
DIVIDE
 70
    64
  3
____ . . ____ . . ____ . . ____ . . ____ . . __
 72
    65
 73
     6
 40
1.250000
 49
0.500000
 49
-0.250000
 49
0.000000
 49
-0.250000
 49
0.000000
 49
-0.250000
  0
LTYPE
  2
DOT
 70
    64
  3
. . . . . . . . . . . . . . . . . . . . . . . . 
 72
    65
 73
     2
 40
0.250000
 49
0.000000
 49
-0.250000
  0
ENDTAB
  0
ENDSEC
  0
SECTION
  2
BLOCKS
  0
BLOCK
  8
0
  2
Object_0
 70
    64
 10
0.000000
 20
0.000000
 30
0.000000
  0
ENDBLK
  0
ENDSEC
  0
SECTION
  2
ENTITIES
  0
POINT
  8
Default
 62
     7
 10
2.916505
 20
5.948498
 30
0.000000
  0
POINT
  8
DIM
 62
     7
 10
1.676529
 20
2.031552
 30
0.000000
  0
POINT
  8
DIM
 62
     7
 10
5.719283
 20
-1.303747
 30
0.000000
  0
POINT
  8
DIM
 62
     7
 10
5.719291
 20
-1.303713
 30
0.000000
  0
LINE
  8
DIM
 62
     7
  6
CONTINUOUS
 10
-3.305896
 20
6.141797
 30
0.000000
 11
0.000000
 21
0.000000
 31
0.000000
  0
LINE
  8
DIM
 62
     7
  6
CONTINUOUS
 10
-3.305896
 20
6.141797
 30
0.000000
 11
1.676529
 21
2.031552
 31
0.000000
  0
LINE
  8
DIM
 62
     7
  6
CONTINUOUS
 10
1.676529
 20
2.031552
 30
0.000000
 11
0.000000
 21
0.000000
 31
0.000000
  0
LINE
  8
DIM
 62
     7
  6
CONTINUOUS
 10
1.676529
 20
2.031552
 30
0.000000
 11
5.719283
 21
-1.303747
 31
0.000000
  0
CIRCLE
  8
Default
 62
     9
  6
CONTINUOUS
 10
0.000000
 20
0.000000
 30
0.000000
 40
4.251000
  0
CIRCLE
  8
Default
 62
     9
  6
CONTINUOUS
 10
0.000000
 20
3.625000
 30
0.000000
 40
0.265625
  0
CIRCLE
  8
Default
 62
     9
  6
CONTINUOUS
 10
3.625000
 20
0.000000
 30
0.000000
 40
0.265625
  0
CIRCLE
  8
Default
 62
     9
  6
CONTINUOUS
 10
-0.000000
 20
-3.625000
 30
0.000000
 40
0.265625
  0
CIRCLE
  8
Default
 62
     9
  6
CONTINUOUS
 10
-3.625000
 20
0.000000
 30
0.000000
 40
0.265625
  0
CIRCLE
  8
Default
 62
     9
  6
CONTINUOUS
 10
0.000000
 20
0.000000
 30
0.000000
 40
3.000000
  0
POINT
  8
Default
 62
     9
 10
0.000000
 20
3.625000
 30
0.000000
  0
POINT
  8
Default
 62
     9
 10
3.625000
 20
0.000000
 30
0.000000
  0
POINT
  8
Default
 62
     9
 10
-0.000000
 20
-3.625000
 30
0.000000
  0
POINT
  8
Default
 62
     9
 10
0.000000
 20
0.000000
 30
0.000000
  0
POINT
  8
Default
 62
     9
 10
-3.625000
 20
0.000000
 30
0.000000
  0
POINT
  8
DIM
 62
     7
 10
0.000000
 20
0.000000
 30
0.000000
  0
LINE
  8
DIM
 62
     7
  6
CONTINUOUS
 10
5.719283
 20
-1.303747
 30
0.000000
 11
0.000000
 21
0.000000
 31
0.000000
  0
CIRCLE
  8
Default
 62
     7
  6
CONTINUOUS
 10
5.719283
 20
-1.303747
 30
0.000000
 40
0.255906
  0
CIRCLE
  8
Default
 62
     7
  6
CONTINUOUS
 10
-3.305896
 20
6.141797
 30
0.000000
 40
0.255906
  0
POINT
  8
DIM
 62
     7
 10
-3.305896
 20
6.141797
 30
0.000000
  0
CIRCLE
  8
Default
 62
     7
  6
CONTINUOUS
 10
2.916505
 20
5.948498
 30
0.000000
 40
0.218750
  0
ARC
  8
Default
 62
     7
  6
CONTINUOUS
 10
5.719283
 20
-1.303747
 30
-0.000000
 40
0.625000
 50
262.505973
 51
379.609997
  0
ARC
  8
Default
 62
     7
  6
CONTINUOUS
 10
5.572557
 20
-2.419138
 30
0.000000
 40
0.500000
 50
82.505973
 51
156.533548
  0
ARC
  8
Default
 62
     7
  6
CONTINUOUS
 10
0.000000
 20
0.000000
 30
0.000000
 40
5.575000
 50
320.878561
 51
336.533548
  0
POINT
  8
Default
 62
     7
 10
-5.839728
 20
0.346513
 30
0.000000
  0
CIRCLE
  8
Default
 62
     7
  6
CONTINUOUS
 10
-4.155270
 20
4.117794
 30
0.000000
 40
0.187500
  0
POINT
  8
Default
 62
     7
 10
-4.155270
 20
4.117794
 30
0.000000
  0
CIRCLE
  8
Default
 62
     7
  6
CONTINUOUS
 10
-5.839728
 20
0.346513
 30
0.000000
 40
0.187500
  0
POINT
  8
Default
 62
     7
 10
-5.693995
 20
-1.467251
 30
0.000000
  0
CIRCLE
  8
Default
 62
     7
  6
CONTINUOUS
 10
-5.693995
 20
-1.467251
 30
0.000000
 40
0.218750
  0
POINT
  8
Default
 62
     7
 10
-3.805551
 20
-3.970867
 30
0.000000
  0
CIRCLE
  8
Default
 62
     7
  6
CONTINUOUS
 10
-3.805551
 20
-3.970867
 30
0.000000
 40
0.156250
  0
POINT
  8
Default
 62
     7
 10
3.901703
 20
-3.876430
 30
0.000000
  0
CIRCLE
  8
Default
 62
     7
  6
CONTINUOUS
 10
3.901703
 20
-3.876430
 30
0.000000
 40
0.156250
  0
ARC
  8
Default
 62
     7
  6
CONTINUOUS
 10
4.713048
 20
-3.833119
 30
0.000000
 40
0.500000
 50
140.878561
 51
183.055651
  0
ARC
  8
Default
 62
     7
  6
CONTINUOUS
 10
3.901703
 20
-3.876430
 30
0.000000
 40
0.312500
 50
267.316680
 51
363.055651
  0
ARC
  8
Default
 62
     7
  6
CONTINUOUS
 10
3.863665
 20
-4.688039
 30
0.000000
 40
0.500000
 50
87.316680
 51
129.493770
  0
ARC
  8
Default
 62
     7
  6
CONTINUOUS
 10
0.000000
 20
0.000000
 30
0.000000
 40
5.575000
 50
231.910239
 51
309.493770
  0
ARC
  8
Default
 62
     7
  6
CONTINUOUS
 10
-3.747639
 20
-4.781300
 30
0.000000
 40
0.500000
 50
51.910239
 51
94.087329
  0
ARC
  8
Default
 62
     7
  6
CONTINUOUS
 10
-3.805551
 20
-3.970867
 30
0.000000
 40
0.312500
 50
178.348357
 51
274.087329
  0
ARC
  8
Default
 62
     7
  6
CONTINUOUS
 10
-4.617713
 20
-3.947448
 30
-0.000000
 40
0.500000
 50
358.348357
 51
400.525448
  0
ARC
  8
Default
 62
     7
  6
CONTINUOUS
 10
0.000000
 20
0.000000
 30
0.000000
 40
5.575000
 50
205.086698
 51
220.525448
  0
ARC
  8
Default
 62
     7
  6
CONTINUOUS
 10
-5.501929
 20
-2.575734
 30
0.000000
 40
0.500000
 50
25.086698
 51
99.829998
  0
ARC
  8
Default
 62
     7
  6
CONTINUOUS
 10
-5.693995
 20
-1.467251
 30
0.000000
 40
0.625000
 50
184.593781
 51
279.829998
  0
LINE
  8
Default
 62
     7
  6
CONTINUOUS
 10
-6.316987
 20
-1.517307
 30
0.000000
 11
-6.462721
 21
0.296456
 31
0.000000
  0
ARC
  8
Default
 62
     7
  6
CONTINUOUS
 10
-5.839728
 20
0.346513
 30
0.000000
 40
0.625000
 50
179.918624
 51
184.593781
  0
LINE
  8
Default
 62
     7
  6
CONTINUOUS
 10
-6.461131
 20
2.880060
 30
0.000000
 11
-6.464728
 21
0.347401
 31
0.000000
  0
ARC
  8
Default
 62
     7
  6
CONTINUOUS
 10
-5.211132
 20
2.878285
 30
0.000000
 40
1.250000
 50
107.692366
 51
179.918624
  0
LINE
  8
Default
 62
     7
  6
CONTINUOUS
 10
-5.591015
 20
4.069162
 30
0.000000
 11
-4.142441
 21
4.531248
 31
0.000000
  0
ARC
  8
Default
 62
     7
  6
CONTINUOUS
 10
-4.294395
 20
5.007599
 30
0.000000
 40
0.500000
 50
287.692366
 51
361.870902
  0
LINE
  8
Default
 62
     7
  6
CONTINUOUS
 10
-3.794661
 20
5.023923
 30
0.000000
 11
-3.830617
 21
6.124657
 31
0.000000
  0
ARC
  8
Default
 62
     7
  6
CONTINUOUS
 10
-3.305896
 20
6.141797
 30
0.000000
 40
0.525000
 50
88.220673
 51
181.870902
  0
LINE
  8
Default
 62
     7
  6
CONTINUOUS
 10
-3.289595
 20
6.666544
 30
0.000000
 11
2.932806
 21
6.473245
 31
0.000000
  0
ARC
  8
Default
 62
     7
  6
CONTINUOUS
 10
2.916505
 20
5.948498
 30
0.000000
 40
0.525000
 50
5.032279
 51
88.220673
  0
LINE
  8
Default
 62
     7
  6
CONTINUOUS
 10
3.574245
 20
4.464118
 30
0.000000
 11
3.439481
 21
5.994549
 31
0.000000
  0
ARC
  8
Default
 62
     7
  6
CONTINUOUS
 10
4.072318
 20
4.507976
 30
0.000000
 40
0.500000
 50
185.032279
 51
227.906656
  0
ARC
  8
Default
 62
     7
  6
CONTINUOUS
 10
0.000000
 20
0.000000
 30
0.000000
 40
5.575000
 50
19.609997
 51
47.906656
  0
LINE
  8
Default
 62
     7
  6
CONTINUOUS
 10
5.251644
 20
1.871059
 30
0.000000
 11
6.308032
 21
-1.093987
 31
0.000000
  0
LINE
  8
DIM
 62
     7
  6
CONTINUOUS
 10
-3.561802
 20
6.146877
 30
0.000000
 11
-3.561802
 21
7.005323
 31
0.000000
  0
LINE
  8
DIM
 62
     7
  6
CONTINUOUS
 10
-3.049991
 20
6.146877
 30
0.000000
 11
-3.049991
 21
7.005323
 31
0.000000
  0
LINE
  8
DIM
 62
     7
  6
CONTINUOUS
 10
-3.649390
 20
6.997703
 30
0.000000
 11
-2.962403
 21
6.997703
 31
0.000000
  0
LINE
  8
DIM
 62
     7
  6
CONTINUOUS
 10
-3.561802
 20
6.997703
 30
0.000000
 11
-3.511802
 21
7.022703
 31
0.000000
  0
LINE
  8
DIM
 62
     7
  6
CONTINUOUS
 10
-3.561802
 20
6.997703
 30
0.000000
 11
-3.511802
 21
6.972703
 31
0.000000
  0
LINE
  8
DIM
 62
     7
  6
CONTINUOUS
 10
-3.049991
 20
6.997703
 30
0.000000
 11
-3.099991
 21
6.972703
 31
0.000000
  0
LINE
  8
DIM
 62
     7
  6
CONTINUOUS
 10
-3.049991
 20
6.997703
 30
0.000000
 11
-3.099991
 21
7.022703
 31
0.000000
  0
TEXT
  8
DIM
 62
     7
 10
-3.639230
 20
7.078983
 30
0.000000
 40
0.200000
  1
13MM
 72
     1
 11
-3.305897
 21
7.078983
 31
0.000000
  0
LINE
  8
DIM
 62
     7
  6
CONTINUOUS
 10
2.697755
 20
5.953578
 30
0.000000
 11
2.697755
 21
6.774868
 31
0.000000
  0
LINE
  8
DIM
 62
     7
  6
CONTINUOUS
 10
3.135255
 20
5.953578
 30
0.000000
 11
3.135255
 21
6.774868
 31
0.000000
  0
LINE
  8
DIM
 62
     7
  6
CONTINUOUS
 10
2.666762
 20
6.767248
 30
0.000000
 11
3.166248
 21
6.767248
 31
0.000000
  0
LINE
  8
DIM
 62
     7
  6
CONTINUOUS
 10
2.697755
 20
6.767248
 30
0.000000
 11
2.747755
 21
6.792248
 31
0.000000
  0
LINE
  8
DIM
 62
     7
  6
CONTINUOUS
 10
2.697755
 20
6.767248
 30
0.000000
 11
2.747755
 21
6.742248
 31
0.000000
  0
LINE
  8
DIM
 62
     7
  6
CONTINUOUS
 10
3.135255
 20
6.767248
 30
0.000000
 11
3.085255
 21
6.742248
 31
0.000000
  0
LINE
  8
DIM
 62
     7
  6
CONTINUOUS
 10
3.135255
 20
6.767248
 30
0.000000
 11
3.085255
 21
6.792248
 31
0.000000
  0
TEXT
  8
DIM
 62
     7
 10
2.676921
 20
6.848528
 30
0.000000
 40
0.200000
  1
7/16
 72
     1
 11
2.916505
 21
6.848528
 31
0.000000
  0
LINE
  8
DIM
 62
     7
  6
CONTINUOUS
 10
-4.486515
 20
6.141797
 30
0.000000
 11
-3.305896
 21
6.141797
 31
0.000000
  0
LINE
  8
DIM
 62
     7
  6
CONTINUOUS
 10
-3.561802
 20
6.141797
 30
0.000000
 11
-3.611802
 21
6.116797
 31
0.000000
  0
LINE
  8
DIM
 62
     7
  6
CONTINUOUS
 10
-3.561802
 20
6.141797
 30
0.000000
 11
-3.611802
 21
6.166797
 31
0.000000
  0
TEXT
  8
DIM
 62
     7
 10
-4.476355
 20
6.223077
 30
0.000000
 40
0.200000
  1
R0.512
 72
     1
 11
-4.080522
 21
6.223077
 31
0.000000
  0
LINE
  8
DIM
 62
     7
  6
CONTINUOUS
 10
-4.342770
 20
4.122874
 30
0.000000
 11
-4.342770
 21
4.912914
 31
0.000000
  0
LINE
  8
DIM
 62
     7
  6
CONTINUOUS
 10
-3.967770
 20
4.122874
 30
0.000000
 11
-3.967770
 21
4.912914
 31
0.000000
  0
LINE
  8
DIM
 62
     7
  6
CONTINUOUS
 10
-4.342770
 20
4.905294
 30
0.000000
 11
-3.967770
 21
4.905294
 31
0.000000
  0
LINE
  8
DIM
 62
     7
  6
CONTINUOUS
 10
-4.342770
 20
4.905294
 30
0.000000
 11
-4.292770
 21
4.930294
 31
0.000000
  0
LINE
  8
DIM
 62
     7
  6
CONTINUOUS
 10
-4.342770
 20
4.905294
 30
0.000000
 11
-4.292770
 21
4.880294
 31
0.000000
  0
LINE
  8
DIM
 62
     7
  6
CONTINUOUS
 10
-3.967770
 20
4.905294
 30
0.000000
 11
-4.017770
 21
4.880294
 31
0.000000
  0
LINE
  8
DIM
 62
     7
  6
CONTINUOUS
 10
-3.967770
 20
4.905294
 30
0.000000
 11
-4.017770
 21
4.930294
 31
0.000000
  0
TEXT
  8
DIM
 62
     7
 10
-4.327145
 20
4.986574
 30
0.000000
 40
0.200000
  1
3/8
 72
     1
 11
-4.155270
 21
4.986574
 31
0.000000
  0
LINE
  8
DIM
 62
     7
  6
CONTINUOUS
 10
-6.027228
 20
0.351593
 30
0.000000
 11
-6.027228
 21
1.141633
 31
0.000000
  0
LINE
  8
DIM
 62
     7
  6
CONTINUOUS
 10
-5.652228
 20
0.351593
 30
0.000000
 11
-5.652228
 21
1.141633
 31
0.000000
  0
LINE
  8
DIM
 62
     7
  6
CONTINUOUS
 10
-6.027228
 20
1.134013
 30
0.000000
 11
-5.652228
 21
1.134013
 31
0.000000
  0
LINE
  8
DIM
 62
     7
  6
CONTINUOUS
 10
-6.027228
 20
1.134013
 30
0.000000
 11
-5.977228
 21
1.159013
 31
0.000000
  0
LINE
  8
DIM
 62
     7
  6
CONTINUOUS
 10
-6.027228
 20
1.134013
 30
0.000000
 11
-5.977228
 21
1.109013
 31
0.000000
  0
LINE
  8
DIM
 62
     7
  6
CONTINUOUS
 10
-5.652228
 20
1.134013
 30
0.000000
 11
-5.702228
 21
1.109013
 31
0.000000
  0
LINE
  8
DIM
 62
     7
  6
CONTINUOUS
 10
-5.652228
 20
1.134013
 30
0.000000
 11
-5.702228
 21
1.159013
 31
0.000000
  0
TEXT
  8
DIM
 62
     7
 10
-6.011604
 20
1.215293
 30
0.000000
 40
0.200000
  1
3/8
 72
     1
 11
-5.839728
 21
1.215293
 31
0.000000
  0
LINE
  8
DIM
 62
     7
  6
CONTINUOUS
 10
-5.912745
 20
-1.462171
 30
0.000000
 11
-5.912745
 21
-0.640881
 31
0.000000
  0
LINE
  8
DIM
 62
     7
  6
CONTINUOUS
 10
-5.475245
 20
-1.462171
 30
0.000000
 11
-5.475245
 21
-0.640881
 31
0.000000
  0
LINE
  8
DIM
 62
     7
  6
CONTINUOUS
 10
-5.943738
 20
-0.648501
 30
0.000000
 11
-5.444252
 21
-0.648501
 31
0.000000
  0
LINE
  8
DIM
 62
     7
  6
CONTINUOUS
 10
-5.912745
 20
-0.648501
 30
0.000000
 11
-5.862745
 21
-0.623501
 31
0.000000
  0
LINE
  8
DIM
 62
     7
  6
CONTINUOUS
 10
-5.912745
 20
-0.648501
 30
0.000000
 11
-5.862745
 21
-0.673501
 31
0.000000
  0
LINE
  8
DIM
 62
     7
  6
CONTINUOUS
 10
-5.475245
 20
-0.648501
 30
0.000000
 11
-5.525245
 21
-0.673501
 31
0.000000
  0
LINE
  8
DIM
 62
     7
  6
CONTINUOUS
 10
-5.475245
 20
-0.648501
 30
0.000000
 11
-5.525245
 21
-0.623501
 31
0.000000
  0
TEXT
  8
DIM
 62
     7
 10
-5.933578
 20
-0.567221
 30
0.000000
 40
0.200000
  1
7/16
 72
     1
 11
-5.693995
 21
-0.567221
 31
0.000000
  0
LINE
  8
DIM
 62
     7
  6
CONTINUOUS
 10
-3.961801
 20
-3.965787
 30
0.000000
 11
-3.961801
 21
-3.206997
 31
0.000000
  0
LINE
  8
DIM
 62
     7
  6
CONTINUOUS
 10
-3.649301
 20
-3.965787
 30
0.000000
 11
-3.649301
 21
-3.206997
 31
0.000000
  0
LINE
  8
DIM
 62
     7
  6
CONTINUOUS
 10
-4.055294
 20
-3.214617
 30
0.000000
 11
-3.555808
 21
-3.214617
 31
0.000000
  0
LINE
  8
DIM
 62
     7
  6
CONTINUOUS
 10
-3.961801
 20
-3.214617
 30
0.000000
 11
-3.911801
 21
-3.189617
 31
0.000000
  0
LINE
  8
DIM
 62
     7
  6
CONTINUOUS
 10
-3.961801
 20
-3.214617
 30
0.000000
 11
-3.911801
 21
-3.239617
 31
0.000000
  0
LINE
  8
DIM
 62
     7
  6
CONTINUOUS
 10
-3.649301
 20
-3.214617
 30
0.000000
 11
-3.699301
 21
-3.239617
 31
0.000000
  0
LINE
  8
DIM
 62
     7
  6
CONTINUOUS
 10
-3.649301
 20
-3.214617
 30
0.000000
 11
-3.699301
 21
-3.189617
 31
0.000000
  0
TEXT
  8
DIM
 62
     7
 10
-4.045134
 20
-3.133336
 30
0.000000
 40
0.200000
  1
5/16
 72
     1
 11
-3.805551
 21
-3.133336
 31
0.000000
  0
LINE
  8
DIM
 62
     7
  6
CONTINUOUS
 10
3.745453
 20
-3.871350
 30
0.000000
 11
3.745453
 21
-3.112560
 31
0.000000
  0
LINE
  8
DIM
 62
     7
  6
CONTINUOUS
 10
4.057953
 20
-3.871350
 30
0.000000
 11
4.057953
 21
-3.112560
 31
0.000000
  0
LINE
  8
DIM
 62
     7
  6
CONTINUOUS
 10
3.651960
 20
-3.120180
 30
0.000000
 11
4.151447
 21
-3.120180
 31
0.000000
  0
LINE
  8
DIM
 62
     7
  6
CONTINUOUS
 10
3.745453
 20
-3.120180
 30
0.000000
 11
3.795453
 21
-3.095180
 31
0.000000
  0
LINE
  8
DIM
 62
     7
  6
CONTINUOUS
 10
3.745453
 20
-3.120180
 30
0.000000
 11
3.795453
 21
-3.145180
 31
0.000000
  0
LINE
  8
DIM
 62
     7
  6
CONTINUOUS
 10
4.057953
 20
-3.120180
 30
0.000000
 11
4.007953
 21
-3.145180
 31
0.000000
  0
LINE
  8
DIM
 62
     7
  6
CONTINUOUS
 10
4.057953
 20
-3.120180
 30
0.000000
 11
4.007953
 21
-3.095180
 31
0.000000
  0
TEXT
  8
DIM
 62
     7
 10
3.662120
 20
-3.038900
 30
0.000000
 40
0.200000
  1
5/16
 72
     1
 11
3.901703
 21
-3.038900
 31
0.000000
  0
INSERT
  8
Default
 62
     7
  2
Object_0
 10
-10.160000
 20
-10.160000
 30
0.000000
  0
LINE
  8
DIM
 62
     7
  6
CONTINUOUS
 10
4.538664
 20
-1.303747
 30
0.000000
 11
5.719283
 21
-1.303747
 31
0.000000
  0
LINE
  8
DIM
 62
     7
  6
CONTINUOUS
 10
5.463378
 20
-1.303747
 30
0.000000
 11
5.413378
 21
-1.328747
 31
0.000000
  0
LINE
  8
DIM
 62
     7
  6
CONTINUOUS
 10
5.463378
 20
-1.303747
 30
0.000000
 11
5.413378
 21
-1.278747
 31
0.000000
  0
TEXT
  8
DIM
 62
     7
 10
4.548824
 20
-1.222467
 30
0.000000
 40
0.200000
  1
R0.512
 72
     1
 11
4.944658
 21
-1.222467
 31
0.000000
  0
LINE
  8
CAM
 62
     6
  6
CONTINUOUS
 10
-3.369302
 20
6.141797
 30
0.000000
 11
-3.300802
 21
6.141797
 31
0.000000
  0
LINE
  8
CAM
 62
     6
  6
CONTINUOUS
 10
5.650878
 20
-1.303747
 30
0.000000
 11
5.719378
 21
-1.303747
 31
0.000000
  0
CIRCLE
  8
CAM
 62
     6
  6
CONTINUOUS
 10
0.000000
 20
0.000000
 30
0.000000
 40
2.625000
  0
ARC
  8
CAM
 62
     6
  6
CONTINUOUS
 10
5.572557
 20
-2.419138
 30
0.000000
 40
0.125000
 50
82.505973
 51
156.533548
  0
LINE
  8
CAM
 62
     6
  6
CONTINUOUS
 10
5.655878
 20
-1.303747
 30
0.000000
 11
5.724378
 21
-1.303747
 31
0.000000
  0
LINE
  8
CAM
 62
     6
  6
CONTINUOUS
 10
5.724378
 20
-1.303747
 30
0.000000
 11
5.655878
 21
-1.303747
 31
0.000000
  0
ARC
  8
CAM
 62
     6
  6
CONTINUOUS
 10
5.719283
 20
-1.303747
 30
-0.000000
 40
1.000000
 50
262.505973
 51
379.609997
  0
LINE
  8
CAM
 62
     6
  6
CONTINUOUS
 10
5.604893
 20
1.996915
 30
0.000000
 11
6.661282
 21
-0.968131
 31
0.000000
  0
LINE
  8
CAM
 62
     6
  6
CONTINUOUS
 10
5.719378
 20
-1.303747
 30
0.000000
 11
5.650878
 21
-1.303747
 31
0.000000
  0
LINE
  8
CAM
 62
     6
  6
CONTINUOUS
 10
5.650878
 20
-1.303747
 30
0.000000
 11
5.719378
 21
-1.303747
 31
0.000000
  0
ARC
  8
CAM
 62
     6
  6
CONTINUOUS
 10
5.719283
 20
-1.303747
 30
0.000000
 40
0.063406
 50
0.000000
 51
180.000000
  0
ARC
  8
CAM
 62
     6
  6
CONTINUOUS
 10
5.719283
 20
-1.303747
 30
0.000000
 40
0.063406
 50
180.000000
 51
360.000000
  0
LINE
  8
CAM
 62
     6
  6
CONTINUOUS
 10
5.719378
 20
-1.303747
 30
0.000000
 11
5.650878
 21
-1.303747
 31
0.000000
  0
ARC
  8
CAM
 62
     6
  6
CONTINUOUS
 10
-3.305896
 20
6.141797
 30
0.000000
 40
0.063406
 50
0.000000
 51
180.000000
  0
ARC
  8
CAM
 62
     6
  6
CONTINUOUS
 10
-3.305896
 20
6.141797
 30
0.000000
 40
0.063406
 50
180.000000
 51
360.000000
  0
LINE
  8
CAM
 62
     6
  6
CONTINUOUS
 10
-3.300802
 20
6.141797
 30
0.000000
 11
-3.369302
 21
6.141797
 31
0.000000
  0
ARC
  8
CAM
 62
     6
  6
CONTINUOUS
 10
-3.305896
 20
6.141797
 30
0.000000
 40
0.068406
 50
180.000000
 51
360.000000
  0
LINE
  8
CAM
 62
     6
  6
CONTINUOUS
 10
-3.305802
 20
6.141797
 30
0.000000
 11
-3.374302
 21
6.141797
 31
0.000000
  0
ARC
  8
CAM
 62
     6
  6
CONTINUOUS
 10
-3.305896
 20
6.141797
 30
0.000000
 40
0.068406
 50
0.000000
 51
180.000000
  0
LINE
  8
DIM
 62
     7
  6
CONTINUOUS
 10
5.463378
 20
-1.298667
 30
0.000000
 11
5.463378
 21
-0.440222
 31
0.000000
  0
LINE
  8
DIM
 62
     7
  6
CONTINUOUS
 10
5.975189
 20
-1.298667
 30
0.000000
 11
5.975189
 21
-0.440222
 31
0.000000
  0
LINE
  8
DIM
 62
     7
  6
CONTINUOUS
 10
5.375790
 20
-0.447842
 30
0.000000
 11
6.062776
 21
-0.447842
 31
0.000000
  0
LINE
  8
DIM
 62
     7
  6
CONTINUOUS
 10
5.463378
 20
-0.447842
 30
0.000000
 11
5.513378
 21
-0.422842
 31
0.000000
  0
LINE
  8
DIM
 62
     7
  6
CONTINUOUS
 10
5.463378
 20
-0.447842
 30
0.000000
 11
5.513378
 21
-0.472842
 31
0.000000
  0
LINE
  8
DIM
 62
     7
  6
CONTINUOUS
 10
5.975189
 20
-0.447842
 30
0.000000
 11
5.925189
 21
-0.472842
 31
0.000000
  0
LINE
  8
DIM
 62
     7
  6
CONTINUOUS
 10
5.975189
 20
-0.447842
 30
0.000000
 11
5.925189
 21
-0.422842
 31
0.000000
  0
TEXT
  8
DIM
 62
     7
 10
5.385950
 20
-0.366562
 30
0.000000
 40
0.200000
  1
13MM
 72
     1
 11
5.719283
 21
-0.366562
 31
0.000000
  0
LINE
  8
CAM
 62
     6
  6
CONTINUOUS
 10
-3.305802
 20
6.141797
 30
0.000000
 11
-3.374302
 21
6.141797
 31
0.000000
  0
LINE
  8
CAM
 62
     6
  6
CONTINUOUS
 10
-3.374302
 20
6.141797
 30
0.000000
 11
-3.305802
 21
6.141797
 31
0.000000
  0
ARC
  8
CAM
 62
     6
  6
CONTINUOUS
 10
-3.305896
 20
6.141797
 30
0.000000
 40
0.068406
 50
180.000000
 51
360.000000
  0
ARC
  8
CAM
 62
     6
  6
CONTINUOUS
 10
-3.305896
 20
6.141797
 30
0.000000
 40
0.068406
 50
0.000000
 51
180.000000
  0
LINE
  8
CAM
 62
     6
  6
CONTINUOUS
 10
-3.374302
 20
6.141797
 30
0.000000
 11
-3.305802
 21
6.141797
 31
0.000000
  0
ARC
  8
CAM
 62
     6
  6
CONTINUOUS
 10
8.549990
 20
-0.295221
 30
-0.000000
 40
2.000000
 50
109.609997
 51
199.609997
  0
ARC
  8
CAM
 62
     6
  6
CONTINUOUS
 10
5.719283
 20
-1.303747
 30
-0.000000
 40
1.005000
 50
262.505973
 51
379.609997
  0
ARC
  8
CAM
 62
     6
  6
CONTINUOUS
 10
5.572557
 20
-2.419138
 30
0.000000
 40
0.120000
 50
82.505973
 51
156.533548
  0
ARC
  8
CAM
 62
     6
  6
CONTINUOUS
 10
0.000000
 20
0.000000
 30
-0.000000
 40
5.955000
 50
320.878561
 51
336.533548
  0
ARC
  8
CAM
 62
     6
  6
CONTINUOUS
 10
4.713048
 20
-3.833119
 30
0.000000
 40
0.120000
 50
140.878561
 51
183.055651
  0
ARC
  8
CAM
 62
     6
  6
CONTINUOUS
 10
3.901703
 20
-3.876430
 30
0.000000
 40
0.692500
 50
267.316680
 51
363.055651
  0
ARC
  8
CAM
 62
     6
  6
CONTINUOUS
 10
3.863665
 20
-4.688039
 30
0.000000
 40
0.120000
 50
87.316680
 51
129.493770
  0
ARC
  8
CAM
 62
     6
  6
CONTINUOUS
 10
0.000000
 20
0.000000
 30
-0.000000
 40
5.955000
 50
231.910239
 51
309.493770
  0
ARC
  8
CAM
 62
     6
  6
CONTINUOUS
 10
-3.747639
 20
-4.781300
 30
0.000000
 40
0.120000
 50
51.910239
 51
94.087329
  0
ARC
  8
CAM
 62
     6
  6
CONTINUOUS
 10
-3.805551
 20
-3.970867
 30
0.000000
 40
0.692500
 50
178.348357
 51
274.087329
  0
ARC
  8
CAM
 62
     6
  6
CONTINUOUS
 10
-4.617713
 20
-3.947448
 30
-0.000000
 40
0.120000
 50
358.348357
 51
400.525448
  0
ARC
  8
CAM
 62
     6
  6
CONTINUOUS
 10
0.000000
 20
0.000000
 30
-0.000000
 40
5.955000
 50
205.086698
 51
220.525448
  0
ARC
  8
CAM
 62
     6
  6
CONTINUOUS
 10
-5.501929
 20
-2.575734
 30
0.000000
 40
0.120000
 50
25.086698
 51
99.829998
  0
ARC
  8
CAM
 62
     6
  6
CONTINUOUS
 10
-5.693995
 20
-1.467251
 30
0.000000
 40
1.005000
 50
184.593781
 51
279.829998
  0
LINE
  8
CAM
 62
     6
  6
CONTINUOUS
 10
-6.695766
 20
-1.547742
 30
0.000000
 11
-6.841500
 21
0.266022
 31
0.000000
  0
ARC
  8
CAM
 62
     6
  6
CONTINUOUS
 10
-5.839728
 20
0.346513
 30
0.000000
 40
1.005000
 50
179.918624
 51
184.593781
  0
LINE
  8
CAM
 62
     6
  6
CONTINUOUS
 10
-6.844727
 20
0.347940
 30
0.000000
 11
-6.841130
 21
2.880600
 31
0.000000
  0
ARC
  8
CAM
 62
     6
  6
CONTINUOUS
 10
-5.211132
 20
2.878285
 30
0.000000
 40
1.630000
 50
107.692366
 51
179.918624
  0
LINE
  8
CAM
 62
     6
  6
CONTINUOUS
 10
-5.706499
 20
4.431189
 30
0.000000
 11
-4.257926
 21
4.893275
 31
0.000000
  0
ARC
  8
CAM
 62
     6
  6
CONTINUOUS
 10
-4.294395
 20
5.007599
 30
0.000000
 40
0.120000
 50
287.692366
 51
361.870902
  0
LINE
  8
CAM
 62
     6
  6
CONTINUOUS
 10
-4.174459
 20
5.011517
 30
0.000000
 11
-4.210414
 21
6.112251
 31
0.000000
  0
ARC
  8
CAM
 62
     6
  6
CONTINUOUS
 10
-3.305896
 20
6.141797
 30
0.000000
 40
0.905000
 50
88.220673
 51
181.870902
  0
LINE
  8
CAM
 62
     6
  6
CONTINUOUS
 10
-3.277796
 20
7.046361
 30
0.000000
 11
2.944605
 21
6.853061
 31
0.000000
  0
ARC
  8
CAM
 62
     6
  6
CONTINUOUS
 10
2.916505
 20
5.948498
 30
0.000000
 40
0.905000
 50
5.032279
 51
88.220673
  0
LINE
  8
CAM
 62
     6
  6
CONTINUOUS
 10
3.818016
 20
6.027882
 30
0.000000
 11
3.952781
 21
4.497450
 31
0.000000
  0
ARC
  8
CAM
 62
     6
  6
CONTINUOUS
 10
4.072318
 20
4.507976
 30
0.000000
 40
0.120000
 50
185.032279
 51
227.906656
  0
ARC
  8
CAM
 62
     6
  6
CONTINUOUS
 10
0.000000
 20
0.000000
 30
0.000000
 40
5.955000
 50
19.609997
 51
47.906656
  0
LINE
  8
CAM
 62
     6
  6
CONTINUOUS
 10
5.609603
 20
1.998593
 30
0.000000
 11
6.665992
 21
-0.966453
 31
0.000000
  0
ARC
  8
CAM
 62
     6
  6
CONTINUOUS
 10
8.549990
 20
-0.295221
 30
0.000000
 40
2.000000
 50
199.609997
 51
289.609997
  0
ARC
  8
CAM
 62
     6
  6
CONTINUOUS
 10
0.000000
 20
0.000000
 30
0.000000
 40
5.950000
 50
19.609997
 51
47.906656
  0
ARC
  8
CAM
 62
     6
  6
CONTINUOUS
 10
4.072318
 20
4.507976
 30
0.000000
 40
0.125000
 50
185.032279
 51
227.906656
  0
LINE
  8
CAM
 62
     6
  6
CONTINUOUS
 10
3.813036
 20
6.027443
 30
0.000000
 11
3.947800
 21
4.497012
 31
0.000000
  0
ARC
  8
CAM
 62
     6
  6
CONTINUOUS
 10
2.916505
 20
5.948498
 30
0.000000
 40
0.900000
 50
5.032279
 51
88.220673
  0
LINE
  8
CAM
 62
     6
  6
CONTINUOUS
 10
-3.277951
 20
7.041363
 30
0.000000
 11
2.944450
 21
6.848064
 31
0.000000
  0
ARC
  8
CAM
 62
     6
  6
CONTINUOUS
 10
-3.305896
 20
6.141797
 30
0.000000
 40
0.900000
 50
88.220673
 51
181.870902
  0
LINE
  8
CAM
 62
     6
  6
CONTINUOUS
 10
-4.169461
 20
5.011680
 30
0.000000
 11
-4.205417
 21
6.112414
 31
0.000000
  0
ARC
  8
CAM
 62
     6
  6
CONTINUOUS
 10
-4.294395
 20
5.007599
 30
0.000000
 40
0.125000
 50
287.692366
 51
361.870902
  0
LINE
  8
CAM
 62
     6
  6
CONTINUOUS
 10
-5.704979
 20
4.426426
 30
0.000000
 11
-4.256406
 21
4.888512
 31
0.000000
  0
ARC
  8
CAM
 62
     6
  6
CONTINUOUS
 10
-5.211132
 20
2.878285
 30
0.000000
 40
1.625000
 50
107.692366
 51
179.918624
  0
LINE
  8
CAM
 62
     6
  6
CONTINUOUS
 10
-6.839727
 20
0.347933
 30
0.000000
 11
-6.836130
 21
2.880593
 31
0.000000
  0
ARC
  8
CAM
 62
     6
  6
CONTINUOUS
 10
-5.839728
 20
0.346513
 30
0.000000
 40
1.000000
 50
179.918624
 51
184.593781
  0
LINE
  8
CAM
 62
     6
  6
CONTINUOUS
 10
-6.690782
 20
-1.547341
 30
0.000000
 11
-6.836516
 21
0.266422
 31
0.000000
  0
ARC
  8
CAM
 62
     6
  6
CONTINUOUS
 10
-5.693995
 20
-1.467251
 30
0.000000
 40
1.000000
 50
184.593781
 51
279.829998
  0
ARC
  8
CAM
 62
     6
  6
CONTINUOUS
 10
-5.501929
 20
-2.575734
 30
0.000000
 40
0.125000
 50
25.086698
 51
99.829998
  0
ARC
  8
CAM
 62
     6
  6
CONTINUOUS
 10
0.000000
 20
0.000000
 30
0.000000
 40
5.950000
 50
205.086698
 51
220.525448
  0
ARC
  8
CAM
 62
     6
  6
CONTINUOUS
 10
-4.617713
 20
-3.947448
 30
-0.000000
 40
0.125000
 50
358.348357
 51
400.525448
  0
ARC
  8
CAM
 62
     6
  6
CONTINUOUS
 10
-3.805551
 20
-3.970867
 30
0.000000
 40
0.687500
 50
178.348357
 51
274.087329
  0
ARC
  8
CAM
 62
     6
  6
CONTINUOUS
 10
-3.747639
 20
-4.781300
 30
0.000000
 40
0.125000
 50
51.910239
 51
94.087329
  0
ARC
  8
CAM
 62
     6
  6
CONTINUOUS
 10
0.000000
 20
0.000000
 30
0.000000
 40
5.950000
 50
231.910239
 51
309.493770
  0
ARC
  8
CAM
 62
     6
  6
CONTINUOUS
 10
3.863665
 20
-4.688039
 30
0.000000
 40
0.125000
 50
87.316680
 51
129.493770
  0
ARC
  8
CAM
 62
     6
  6
CONTINUOUS
 10
3.901703
 20
-3.876430
 30
0.000000
 40
0.687500
 50
267.316680
 51
363.055651
  0
ARC
  8
CAM
 62
     6
  6
CONTINUOUS
 10
4.713048
 20
-3.833119
 30
0.000000
 40
0.125000
 50
140.878561
 51
183.055651
  0
ARC
  8
CAM
 62
     6
  6
CONTINUOUS
 10
0.000000
 20
0.000000
 30
0.000000
 40
5.950000
 50
320.878561
 51
336.533548
  0
ARC
  8
CAM
 62
     6
  6
CONTINUOUS
 10
5.719283
 20
-1.303747
 30
0.000000
 40
0.068406
 50
0.000000
 51
180.000000
  0
ARC
  8
CAM
 62
     6
  6
CONTINUOUS
 10
5.719283
 20
-1.303747
 30
0.000000
 40
0.068406
 50
180.000000
 51
360.000000
  0
ARC
  8
CAM
 62
     6
  6
CONTINUOUS
 10
5.719283
 20
-1.303747
 30
0.000000
 40
0.068406
 50
180.000000
 51
360.000000
  0
CIRCLE
  8
CAM
 62
     6
  6
CONTINUOUS
 10
0.000000
 20
0.000000
 30
0.000000
 40
2.620000
  0
ARC
  8
CAM
 62
     6
  6
CONTINUOUS
 10
5.719283
 20
-1.303747
 30
0.000000
 40
0.068406
 50
0.000000
 51
180.000000
  0
LINE
  8
DIM
 62
     7
  6
CONTINUOUS
 10
0.000000
 20
-0.002540
 30
0.000000
 11
0.000000
 21
-5.994453
 31
0.000000
  0
LINE
  8
DIM
 62
     7
  6
CONTINUOUS
 10
-6.459227
 20
0.968934
 30
0.000000
 11
-6.459227
 21
-5.994453
 31
0.000000
  0
LINE
  8
DIM
 62
     7
  6
CONTINUOUS
 10
0.000000
 20
-5.990643
 30
0.000000
 11
-6.459227
 21
-5.990643
 31
0.000000
  0
LINE
  8
DIM
 62
     7
  6
CONTINUOUS
 10
0.000000
 20
-5.990643
 30
0.000000
 11
-0.025000
 21
-6.003143
 31
0.000000
  0
LINE
  8
DIM
 62
     7
  6
CONTINUOUS
 10
0.000000
 20
-5.990643
 30
0.000000
 11
-0.025000
 21
-5.978143
 31
0.000000
  0
LINE
  8
DIM
 62
     7
  6
CONTINUOUS
 10
-6.459227
 20
-5.990643
 30
0.000000
 11
-6.434227
 21
-5.978143
 31
0.000000
  0
LINE
  8
DIM
 62
     7
  6
CONTINUOUS
 10
-6.459227
 20
-5.990643
 30
0.000000
 11
-6.434227
 21
-6.003143
 31
0.000000
  0
TEXT
  8
DIM
 62
     7
 10
-6.252681
 20
-5.909363
 30
0.000000
 40
0.200000
  1
6.459
 72
     1
 11
-5.932681
 21
-5.909363
 31
0.000000
  0
LINE
  8
DIM
 62
     7
  6
CONTINUOUS
 10
0.000000
 20
-0.002540
 30
0.000000
 11
0.000000
 21
-5.994453
 31
0.000000
  0
LINE
  8
DIM
 62
     7
  6
CONTINUOUS
 10
6.344283
 20
-1.306287
 30
-0.000000
 11
6.344283
 21
-5.994453
 31
-0.000000
  0
LINE
  8
DIM
 62
     7
  6
CONTINUOUS
 10
0.000000
 20
-5.990643
 30
0.000000
 11
6.344283
 21
-5.990643
 31
-0.000000
  0
LINE
  8
DIM
 62
     7
  6
CONTINUOUS
 10
0.000000
 20
-5.990643
 30
0.000000
 11
0.025000
 21
-5.978143
 31
0.000000
  0
LINE
  8
DIM
 62
     7
  6
CONTINUOUS
 10
0.000000
 20
-5.990643
 30
0.000000
 11
0.025000
 21
-6.003143
 31
0.000000
  0
LINE
  8
DIM
 62
     7
  6
CONTINUOUS
 10
6.344283
 20
-5.990643
 30
-0.000000
 11
6.319283
 21
-6.003143
 31
-0.000000
  0
LINE
  8
DIM
 62
     7
  6
CONTINUOUS
 10
6.344283
 20
-5.990643
 30
-0.000000
 11
6.319283
 21
-5.978143
 31
-0.000000
  0
TEXT
  8
DIM
 62
     7
 10
5.438356
 20
-5.909363
 30
0.000000
 40
0.200000
  1
6.344
 72
     1
 11
5.768356
 21
-5.909363
 31
0.000000
  0
LINE
  8
DIM
 62
     7
  6
CONTINUOUS
 10
-3.303357
 20
6.666797
 30
0.000000
 11
6.854512
 21
6.666797
 31
0.000000
  0
LINE
  8
DIM
 62
     7
  6
CONTINUOUS
 10
0.002540
 20
-0.000000
 30
0.000000
 11
6.854512
 21
-0.000000
 31
0.000000
  0
LINE
  8
DIM
 62
     7
  6
CONTINUOUS
 10
6.850702
 20
6.666797
 30
0.000000
 11
6.850702
 21
-0.000000
 31
0.000000
  0
LINE
  8
DIM
 62
     7
  6
CONTINUOUS
 10
6.850702
 20
6.666797
 30
0.000000
 11
6.863202
 21
6.641797
 31
0.000000
  0
LINE
  8
DIM
 62
     7
  6
CONTINUOUS
 10
6.850702
 20
6.666797
 30
0.000000
 11
6.838202
 21
6.641797
 31
0.000000
  0
LINE
  8
DIM
 62
     7
  6
CONTINUOUS
 10
6.850702
 20
-0.000000
 30
0.000000
 11
6.838202
 21
0.025000
 31
0.000000
  0
LINE
  8
DIM
 62
     7
  6
CONTINUOUS
 10
6.850702
 20
-0.000000
 30
0.000000
 11
6.863202
 21
0.025000
 31
0.000000
  0
TEXT
  8
DIM
 62
     7
 10
6.769422
 20
5.224879
 30
0.000000
 40
0.200000
  1
6.667
 50
90.000003
 72
     1
 11
6.769422
 21
5.534879
 31
0.000000
  0
LINE
  8
DIM
 62
     7
  6
CONTINUOUS
 10
0.002540
 20
0.000000
 30
0.000000
 11
6.854512
 21
0.000000
 31
0.000000
  0
LINE
  8
DIM
 62
     7
  6
CONTINUOUS
 10
0.070845
 20
-5.574582
 30
0.000000
 11
6.854512
 21
-5.574582
 31
0.000000
  0
LINE
  8
DIM
 62
     7
  6
CONTINUOUS
 10
6.850702
 20
0.000000
 30
0.000000
 11
6.850702
 21
-5.574582
 31
0.000000
  0
LINE
  8
DIM
 62
     7
  6
CONTINUOUS
 10
6.850702
 20
0.000000
 30
0.000000
 11
6.863202
 21
-0.025000
 31
0.000000
  0
LINE
  8
DIM
 62
     7
  6
CONTINUOUS
 10
6.850702
 20
0.000000
 30
0.000000
 11
6.838202
 21
-0.025000
 31
0.000000
  0
LINE
  8
DIM
 62
     7
  6
CONTINUOUS
 10
6.850702
 20
-5.574582
 30
0.000000
 11
6.838202
 21
-5.549582
 31
0.000000
  0
LINE
  8
DIM
 62
     7
  6
CONTINUOUS
 10
6.850702
 20
-5.574582
 30
0.000000
 11
6.863202
 21
-5.549582
 31
0.000000
  0
TEXT
  8
DIM
 62
     7
 10
6.769422
 20
-4.867266
 30
0.000000
 40
0.200000
  1
5.575
 50
90.000003
 72
     1
 11
6.769422
 21
-4.557266
 31
0.000000
  0
TEXT
  8
DIM
 62
     7
 10
-1.434121
 20
4.949827
 30
0.000000
 40
0.200000
  1
Countersink holes on back side
 72
     1
 11
0.385879
 21
4.949827
 31
0.000000
  0
ENDSEC
  0
EOF
