  0
SECTION
  2
HEADER
  9
$ACADVER
  1
AC1006
  0
ENDSEC
  0
SECTION
  2
TABLES
  0
TABLE
  2
LTYPE
 70
    25
  0
LTYPE
  2
CONTINUOUS
 70
    64
  3
Solid line
 72
    64
 73
     0
 40
0.000000
  0
LTYPE
  2
DASHDOT
 70
    64
  3
__ . __ . __ . __ . __ . __ . __ . __ . __ . __
 72
    65
 73
     4
 40
1.000000
 49
0.500000
 49
-0.250000
 49
0.000000
 49
-0.250000
  0
LTYPE
  2
DASHED
 70
    64
  3
__ __ __ __ __ __ __ __ __ __ __ __ __ __ __ __
 72
    65
 73
     2
 40
0.750000
 49
0.500000
 49
-0.250000
  0
LTYPE
  2
DIVIDE
 70
    64
  3
____ . . ____ . . ____ . . ____ . . ____ . . __
 72
    65
 73
     6
 40
1.250000
 49
0.500000
 49
-0.250000
 49
0.000000
 49
-0.250000
 49
0.000000
 49
-0.250000
  0
LTYPE
  2
DOT
 70
    64
  3
. . . . . . . . . . . . . . . . . . . . . . . . 
 72
    65
 73
     2
 40
0.250000
 49
0.000000
 49
-0.250000
  0
ENDTAB
  0
ENDSEC
  0
SECTION
  2
BLOCKS
  0
BLOCK
  8
0
  2
Object_0
 70
    64
 10
0.000000
 20
0.000000
 30
0.000000
  0
ENDBLK
  0
ENDSEC
  0
SECTION
  2
ENTITIES
  0
POINT
  8
Default
 62
     7
 10
6.471893
 20
-1.471146
 30
0.000000
  0
LINE
  8
Default
 62
     6
  6
CONTINUOUS
 10
-0.000000
 20
0.000031
 30
0.000000
 11
-6.432046
 21
-1.636599
 31
0.000000
  0
LINE
  8
Default
 62
     6
  6
CONTINUOUS
 10
-0.000000
 20
0.000031
 30
0.000000
 11
0.019924
 21
-1.553867
 31
0.000000
  0
POINT
  8
Default
 62
     7
 10
2.348592
 20
6.370919
 30
0.000000
  0
POINT
  8
Default
 62
     7
 10
0.019924
 20
-1.553867
 30
0.000000
  0
LINE
  8
Default
 62
     6
  6
CONTINUOUS
 10
6.471893
 20
-1.471146
 30
0.000000
 11
-0.000000
 21
0.000031
 31
0.000000
  0
LINE
  8
Default
 62
     6
  6
CONTINUOUS
 10
0.019924
 20
-1.553872
 30
0.000000
 11
6.471893
 21
-1.471146
 31
0.000000
  0
LINE
  8
Default
 62
     6
  6
CONTINUOUS
 10
0.019924
 20
-1.553872
 30
0.000000
 11
-6.432046
 21
-1.636599
 31
0.000000
  0
CIRCLE
  8
Default
 62
     6
  6
CONTINUOUS
 10
6.471893
 20
-1.471146
 30
0.000000
 40
0.335000
  0
CIRCLE
  8
Default
 62
     6
  6
CONTINUOUS
 10
-6.432046
 20
-1.636599
 30
0.000000
 40
0.335000
  0
LINE
  8
DIm
 62
     7
  6
CONTINUOUS
 10
-0.008128
 20
0.000001
 30
-0.125046
 11
-8.989923
 21
0.000785
 31
-0.175997
  0
LINE
  8
DIm
 62
     7
  6
CONTINUOUS
 10
2.627553
 20
7.149689
 30
-0.000046
 11
-8.989923
 21
7.150703
 31
-0.065948
  0
LINE
  8
DIm
 62
     7
  6
CONTINUOUS
 10
-8.977731
 20
0.000784
 30
-0.175928
 11
-8.977731
 21
7.267149
 31
-0.064087
  0
LINE
  8
DIm
 62
     7
  6
CONTINUOUS
 10
-8.977731
 20
0.000784
 30
-0.175928
 11
-8.989731
 21
0.080776
 31
-0.174765
  0
LINE
  8
DIm
 62
     7
  6
CONTINUOUS
 10
-8.977731
 20
0.000784
 30
-0.175928
 11
-8.965732
 21
0.080774
 31
-0.174629
  0
LINE
  8
DIm
 62
     7
  6
CONTINUOUS
 10
-8.977731
 20
7.150702
 30
-0.065879
 11
-8.965732
 21
7.070710
 31
-0.067042
  0
LINE
  8
DIm
 62
     7
  6
CONTINUOUS
 10
-8.977731
 20
7.150702
 30
-0.065879
 11
-8.989731
 21
7.070712
 31
-0.067178
  0
TEXT
  8
DIm
 62
     7
 10
-9.285235
 20
7.344869
 30
-0.124983
 40
0.200000
  1
7.151
 50
-0.005003
 72
     1
 11
-8.977943
 21
7.344842
 31
-0.124983
210
-0.005673
220
-0.015390
230
0.999865
  0
CIRCLE
  8
Default
 62
     9
  6
CONTINUOUS
 10
0.000000
 20
0.000000
 30
-0.125000
 40
4.251000
  0
CIRCLE
  8
Default
 62
     9
  6
CONTINUOUS
 10
0.000000
 20
0.000000
 30
-0.625000
 40
3.000000
  0
CIRCLE
  8
Default
 62
     9
  6
CONTINUOUS
 10
0.000000
 20
3.625000
 30
0.000000
 40
0.265625
  0
CIRCLE
  8
Default
 62
     9
  6
CONTINUOUS
 10
3.625000
 20
0.000000
 30
0.000000
 40
0.265625
  0
CIRCLE
  8
Default
 62
     9
  6
CONTINUOUS
 10
-3.625000
 20
0.000000
 30
0.000000
 40
0.265625
  0
CIRCLE
  8
Default
 62
     9
  6
CONTINUOUS
 10
-0.000000
 20
-3.625000
 30
0.000000
 40
0.265625
  0
POINT
  8
Default
 62
     7
 10
-0.000000
 20
0.000031
 30
0.000000
  0
POINT
  8
Default
 62
     7
 10
-2.496836
 20
6.357288
 30
0.000000
  0
POINT
  8
Default
 62
     7
 10
-6.432046
 20
-1.636599
 30
0.000000
  0
LINE
  8
Default
 62
     6
  6
CONTINUOUS
 10
0.000001
 20
3.625031
 30
0.000000
 11
-0.000000
 21
0.000031
 31
0.000000
  0
POINT
  8
Default
 62
     7
 10
-4.067421
 20
-5.418152
 30
0.000000
  0
POINT
  8
Default
 62
     7
 10
3.930280
 20
-5.782785
 30
0.000000
  0
CIRCLE
  8
Default
 62
     6
  6
CONTINUOUS
 10
2.348592
 20
6.370919
 30
0.000000
 40
0.218750
  0
CIRCLE
  8
Default
 62
     6
  6
CONTINUOUS
 10
-2.496836
 20
6.357288
 30
0.000000
 40
0.218750
  0
CIRCLE
  8
Default
 62
     6
  6
CONTINUOUS
 10
-4.067421
 20
-5.418152
 30
0.000000
 40
0.218750
  0
CIRCLE
  8
Default
 62
     6
  6
CONTINUOUS
 10
3.930280
 20
-5.782785
 30
0.000000
 40
0.218750
  0
LINE
  8
DIm
 62
     7
  6
CONTINUOUS
 10
-0.000000
 20
-0.008128
 30
-0.125023
 11
-0.000000
 21
-0.014546
 31
-0.125041
  0
LINE
  8
DIm
 62
     7
  6
CONTINUOUS
 10
-8.158845
 20
1.528819
 30
-0.000023
 11
-8.158845
 21
-0.014883
 31
-0.004325
  0
LINE
  8
DIm
 62
     7
  6
CONTINUOUS
 10
-0.000000
 20
-0.002354
 30
-0.125007
 11
-10.060522
 21
-0.002769
 31
0.023845
  0
LINE
  8
DIm
 62
     7
  6
CONTINUOUS
 10
-0.000000
 20
-0.002354
 30
-0.125007
 11
-0.079991
 21
-0.014358
 31
-0.123856
  0
LINE
  8
DIm
 62
     7
  6
CONTINUOUS
 10
-0.000000
 20
-0.002354
 30
-0.125007
 11
-0.079991
 21
0.009642
 31
-0.123790
  0
LINE
  8
DIm
 62
     7
  6
CONTINUOUS
 10
-8.158845
 20
-0.002691
 30
-0.004291
 11
-8.078854
 21
0.009312
 31
-0.005441
  0
LINE
  8
DIm
 62
     7
  6
CONTINUOUS
 10
-8.158845
 20
-0.002691
 30
-0.004291
 11
-8.078854
 21
-0.014688
 31
-0.005508
  0
TEXT
  8
DIm
 62
     7
 10
-10.043521
 20
0.078163
 30
-0.124986
 40
0.200000
  1
8.160
 50
0.002363
 72
     1
 11
-9.736230
 21
0.078176
 31
-0.124986
210
0.014794
220
-0.002787
230
0.999887
  0
LINE
  8
DIm
 62
     7
  6
CONTINUOUS
 10
-0.008128
 20
0.000001
 30
-0.124945
 11
-8.989923
 21
0.000999
 31
-0.064899
  0
LINE
  8
DIm
 62
     7
  6
CONTINUOUS
 10
-2.612913
 20
-6.473398
 30
0.000055
 11
-8.989923
 21
-6.472689
 31
0.042687
  0
LINE
  8
DIm
 62
     7
  6
CONTINUOUS
 10
-8.977731
 20
0.000997
 30
-0.064981
 11
-8.977731
 21
-6.799195
 31
0.048032
  0
LINE
  8
DIm
 62
     7
  6
CONTINUOUS
 10
-8.977731
 20
0.000997
 30
-0.064981
 11
-8.965732
 21
-0.078993
 31
-0.063731
  0
LINE
  8
DIm
 62
     7
  6
CONTINUOUS
 10
-8.977731
 20
0.000997
 30
-0.064981
 11
-8.989731
 21
-0.078990
 31
-0.063571
  0
LINE
  8
DIm
 62
     7
  6
CONTINUOUS
 10
-8.977731
 20
-6.472690
 30
0.042606
 11
-8.989731
 21
-6.392700
 31
0.041356
  0
LINE
  8
DIm
 62
     7
  6
CONTINUOUS
 10
-8.977731
 20
-6.472690
 30
0.042606
 11
-8.965732
 21
-6.392703
 31
0.041196
  0
TEXT
  8
DIm
 62
     7
 10
5.999677
 20
9.962083
 30
-0.124980
 40
0.200000
  1
6.475
 50
-158.084168
 72
     1
 11
5.714592
 21
9.847388
 31
-0.124980
210
0.006686
220
0.016616
230
0.999840
  0
LINE
  8
DIm
 62
     7
  6
CONTINUOUS
 10
-6.434051
 20
-1.628722
 30
0.000000
 11
-6.472817
 21
-1.476369
 31
0.000000
  0
LINE
  8
DIm
 62
     7
  6
CONTINUOUS
 10
-0.002005
 20
0.007908
 30
0.000000
 11
-0.040771
 21
0.160261
 31
0.000000
  0
LINE
  8
DIm
 62
     7
  6
CONTINUOUS
 10
-6.469810
 20
-1.488184
 30
0.000000
 11
-0.037765
 21
0.148445
 31
0.000000
  0
LINE
  8
DIm
 62
     7
  6
CONTINUOUS
 10
-6.469810
 20
-1.488184
 30
0.000000
 11
-6.395240
 21
-1.456828
 31
0.000000
  0
LINE
  8
DIm
 62
     7
  6
CONTINUOUS
 10
-6.469810
 20
-1.488184
 30
0.000000
 11
-6.389322
 21
-1.480086
 31
0.000000
  0
LINE
  8
DIm
 62
     7
  6
CONTINUOUS
 10
-0.037765
 20
0.148445
 30
0.000000
 11
-0.112335
 21
0.117089
 31
0.000000
  0
LINE
  8
DIm
 62
     7
  6
CONTINUOUS
 10
-0.037765
 20
0.148445
 30
0.000000
 11
-0.118254
 21
0.140348
 31
0.000000
  0
TEXT
  8
DIm
 62
     7
 10
-5.716627
 20
-1.139281
 30
0.000000
 40
0.375000
  1
6.637
 50
14.275924
 72
     1
 11
-5.153327
 21
-0.995950
 31
0.000000
  0
LINE
  8
DIm
 62
     7
  6
CONTINUOUS
 10
-6.431942
 20
-1.644726
 30
0.000000
 11
-6.423397
 21
-2.311146
 31
0.000000
  0
LINE
  8
DIm
 62
     7
  6
CONTINUOUS
 10
0.020027
 20
-1.562000
 30
0.000000
 11
0.028572
 21
-2.228420
 31
0.000000
  0
LINE
  8
DIm
 62
     7
  6
CONTINUOUS
 10
-6.423553
 20
-2.298955
 30
0.000000
 11
0.028416
 21
-2.216229
 31
0.000000
  0
LINE
  8
DIm
 62
     7
  6
CONTINUOUS
 10
-6.423553
 20
-2.298955
 30
0.000000
 11
-6.343714
 21
-2.285930
 31
0.000000
  0
LINE
  8
DIm
 62
     7
  6
CONTINUOUS
 10
-6.423553
 20
-2.298955
 30
0.000000
 11
-6.343406
 21
-2.309928
 31
0.000000
  0
LINE
  8
DIm
 62
     7
  6
CONTINUOUS
 10
0.028416
 20
-2.216229
 30
0.000000
 11
-0.051424
 21
-2.229253
 31
0.000000
  0
LINE
  8
DIm
 62
     7
  6
CONTINUOUS
 10
0.028416
 20
-2.216229
 30
0.000000
 11
-0.051731
 21
-2.205255
 31
0.000000
  0
TEXT
  8
DIm
 62
     7
 10
-5.330574
 20
-2.132528
 30
0.000000
 40
0.375000
  1
6.452
 50
0.734600
 72
     1
 11
-4.730624
 21
-2.124836
 31
0.000000
  0
LINE
  8
DIm
 62
     7
  6
CONTINUOUS
 10
-6.431942
 20
-1.644726
 30
0.000000
 11
-6.413481
 21
-3.084526
 31
0.000000
  0
LINE
  8
DIm
 62
     7
  6
CONTINUOUS
 10
6.471997
 20
-1.479273
 30
0.000000
 11
6.490458
 21
-2.919073
 31
0.000000
  0
LINE
  8
DIm
 62
     7
  6
CONTINUOUS
 10
-6.413637
 20
-3.072335
 30
0.000000
 11
6.490302
 21
-2.906882
 31
0.000000
  0
LINE
  8
DIm
 62
     7
  6
CONTINUOUS
 10
-6.413637
 20
-3.072335
 30
0.000000
 11
-6.333798
 21
-3.059310
 31
0.000000
  0
LINE
  8
DIm
 62
     7
  6
CONTINUOUS
 10
-6.413637
 20
-3.072335
 30
0.000000
 11
-6.333490
 21
-3.083308
 31
0.000000
  0
LINE
  8
DIm
 62
     7
  6
CONTINUOUS
 10
6.490302
 20
-2.906882
 30
0.000000
 11
6.410462
 21
-2.919906
 31
0.000000
  0
LINE
  8
DIm
 62
     7
  6
CONTINUOUS
 10
6.490302
 20
-2.906882
 30
0.000000
 11
6.410154
 21
-2.895908
 31
0.000000
  0
TEXT
  8
DIm
 62
     7
 10
-0.633584
 20
-2.845811
 30
0.000000
 40
0.375000
  1
12.905
 50
0.734600
 72
     1
 11
0.041361
 21
-2.837157
 31
0.000000
  0
POINT
  8
Default
 62
     7
 10
0.000000
 20
-6.439968
 30
0.000000
  0
POINT
  8
Default
 62
     7
 10
-2.604785
 20
-6.473398
 30
0.000000
  0
POINT
  8
Default
 62
     7
 10
-4.666127
 20
-5.704718
 30
0.000000
  0
LINE
  8
Default
 62
     6
  6
CONTINUOUS
 10
7.066549
 20
1.424854
 30
0.000000
 11
7.166993
 21
-1.546763
 31
0.000000
  0
ARC
  8
Default
 62
     6
  6
CONTINUOUS
 10
6.167564
 20
-1.580545
 30
0.000000
 40
1.000000
 50
348.622139
 51
361.935933
  0
POINT
  8
Default
 62
     7
 10
7.170936
 20
-1.663407
 30
0.000000
  0
POINT
  8
Default
 62
     7
 10
4.019670
 20
-6.388460
 30
0.000000
  0
LINE
  8
Default
 62
     6
  6
CONTINUOUS
 10
7.147911
 20
-1.777824
 30
0.000000
 11
6.931671
 21
-2.852398
 31
0.000000
  0
POINT
  8
Default
 62
     7
 10
6.850358
 20
-3.256472
 30
0.000000
  0
ARC
  8
Default
 62
     6
  6
CONTINUOUS
 10
5.461150
 20
-2.556480
 30
0.000000
 40
1.500000
 50
317.892754
 51
348.622139
  0
POINT
  8
Default
 62
     7
 10
-6.000000
 20
-4.500000
 30
0.000000
  0
LINE
  8
Default
 62
     6
  6
CONTINUOUS
 10
6.573987
 20
-3.562261
 30
0.000000
 11
4.239159
 21
-6.145609
 31
0.000000
  0
ARC
  8
Default
 62
     6
  6
CONTINUOUS
 10
3.682740
 20
-5.642719
 30
0.000000
 40
0.750000
 50
270.734600
 51
317.892754
  0
POINT
  8
Default
 62
     7
 10
-2.785635
 20
7.092607
 30
0.000000
  0
POINT
  8
Default
 62
     7
 10
-7.301198
 20
-2.179923
 30
0.000000
  0
LINE
  8
Default
 62
     6
  6
CONTINUOUS
 10
3.692356
 20
-6.392657
 30
0.000000
 11
-2.324291
 21
-6.469802
 31
0.000000
  0
ARC
  8
Default
 62
     6
  6
CONTINUOUS
 10
-2.343522
 20
-4.969925
 30
0.000000
 40
1.500000
 50
249.549364
 51
270.734600
  0
LINE
  8
Default
 62
     6
  6
CONTINUOUS
 10
-4.480924
 20
-5.773781
 30
0.000000
 11
-2.867623
 21
-6.375385
 31
0.000000
  0
ARC
  8
Default
 62
     6
  6
CONTINUOUS
 10
-3.956824
 20
-4.368320
 30
0.000000
 40
1.500000
 50
233.549314
 51
249.549364
  0
POINT
  8
Default
 62
     7
 10
2.635680
 20
7.149688
 30
0.000000
  0
ARC
  8
Default
 62
     6
  6
CONTINUOUS
 10
-0.754942
 20
-0.033428
 30
0.000000
 40
6.889187
 50
198.154140
 51
233.549314
  0
POINT
  8
Default
 62
     7
 10
4.903868
 20
4.946070
 30
0.000000
  0
LINE
  8
Default
 62
     6
  6
CONTINUOUS
 10
-7.301198
 20
-2.179923
 30
0.000000
 11
-8.100537
 21
1.057538
 31
0.000000
  0
ARC
  8
Default
 62
     6
  6
CONTINUOUS
 10
-6.158845
 20
1.536947
 30
0.000000
 40
2.000000
 50
130.813733
 51
193.869128
  0
LINE
  8
Default
 62
     6
  6
CONTINUOUS
 10
-7.466049
 20
3.050624
 30
0.000000
 11
-2.993417
 21
6.913168
 31
0.000000
  0
ARC
  8
Default
 62
     6
  6
CONTINUOUS
 10
-2.503215
 20
6.345539
 30
0.000000
 40
0.750000
 50
90.603236
 51
130.813733
  0
LINE
  8
Default
 62
     6
  6
CONTINUOUS
 10
-2.511112
 20
7.095498
 30
0.000000
 11
2.326754
 21
7.146435
 31
0.000000
  0
ARC
  8
Default
 62
     6
  6
CONTINUOUS
 10
2.334650
 20
6.396477
 30
0.000000
 40
0.750000
 50
45.827258
 51
90.603236
  0
LINE
  8
Default
 62
     6
  6
CONTINUOUS
 10
2.857268
 20
6.934408
 30
0.000000
 11
4.903868
 21
4.946070
 31
0.000000
  0
ARC
  8
Default
 62
     6
  6
CONTINUOUS
 10
-8.168520
 20
-6.240229
 30
-0.000000
 40
17.205249
 50
29.001476
 51
40.554254
  0
ARC
  8
Default
 62
     6
  6
CONTINUOUS
 10
5.567405
 20
1.374181
 30
0.000000
 40
1.500000
 50
1.935933
 51
29.001476
  0
POINT
  8
Default
 62
     7
 10
7.054646
 20
1.776992
 30
0.000000
  0
LINE
  8
DIm
 62
     7
  6
CONTINUOUS
 10
0.008127
 20
0.000135
 30
0.000000
 11
0.660167
 21
0.008496
 31
0.000000
  0
LINE
  8
DIm
 62
     7
  6
CONTINUOUS
 10
0.028051
 20
-1.553762
 30
0.000000
 11
0.680091
 21
-1.545402
 31
0.000000
  0
LINE
  8
DIm
 62
     7
  6
CONTINUOUS
 10
0.647976
 20
0.008339
 30
0.000000
 11
0.654815
 21
-0.525039
 31
0.000000
  0
LINE
  8
DIm
 62
     7
  6
CONTINUOUS
 10
0.662443
 20
-1.120002
 30
0.000000
 11
0.667900
 21
-1.545558
 31
0.000000
  0
LINE
  8
DIm
 62
     7
  6
CONTINUOUS
 10
0.647976
 20
0.008339
 30
0.000000
 11
0.661000
 21
-0.071500
 31
0.000000
  0
LINE
  8
DIm
 62
     7
  6
CONTINUOUS
 10
0.647976
 20
0.008339
 30
0.000000
 11
0.637002
 21
-0.071808
 31
0.000000
  0
LINE
  8
DIm
 62
     7
  6
CONTINUOUS
 10
0.667900
 20
-1.545558
 30
0.000000
 11
0.654875
 21
-1.465719
 31
0.000000
  0
LINE
  8
DIm
 62
     7
  6
CONTINUOUS
 10
0.667900
 20
-1.545558
 30
0.000000
 11
0.678873
 21
-1.465411
 31
0.000000
  0
TEXT
  8
DIm
 62
     7
 10
0.098339
 20
-0.998468
 30
0.000000
 40
0.375000
  1
1.554
 50
0.734600
 72
     1
 11
0.660792
 21
-0.991256
 31
0.000000
  0
LINE
  8
DIm
 62
     7
  6
CONTINUOUS
 10
6.473695
 20
-1.463220
 30
0.000000
 11
6.510453
 21
-1.301517
 31
0.000000
  0
LINE
  8
DIm
 62
     7
  6
CONTINUOUS
 10
0.001801
 20
0.007957
 30
0.000000
 11
0.038559
 21
0.169660
 31
0.000000
  0
LINE
  8
DIm
 62
     7
  6
CONTINUOUS
 10
6.507750
 20
-1.313406
 30
0.000000
 11
0.035857
 21
0.157771
 31
0.000000
  0
LINE
  8
DIm
 62
     7
  6
CONTINUOUS
 10
6.507750
 20
-1.313406
 30
0.000000
 11
6.427080
 21
-1.307374
 31
0.000000
  0
LINE
  8
DIm
 62
     7
  6
CONTINUOUS
 10
6.507750
 20
-1.313406
 30
0.000000
 11
6.432400
 21
-1.283971
 31
0.000000
  0
LINE
  8
DIm
 62
     7
  6
CONTINUOUS
 10
0.035857
 20
0.157771
 30
0.000000
 11
0.116527
 21
0.151740
 31
0.000000
  0
LINE
  8
DIm
 62
     7
  6
CONTINUOUS
 10
0.035857
 20
0.157771
 30
0.000000
 11
0.111207
 21
0.128337
 31
0.000000
  0
TEXT
  8
DIm
 62
     7
 10
4.498167
 20
-0.700304
 30
0.000000
 40
0.375000
  1
6.637
 50
-12.806723
 72
     1
 11
5.064957
 21
-0.829145
 31
0.000000
  0
LINE
  8
DIm
 62
     7
  6
CONTINUOUS
 10
5.973269
 20
-0.143607
 30
0.000000
 11
5.988730
 21
-0.184771
 31
0.000000
  0
LINE
  8
DIm
 62
     7
  6
CONTINUOUS
 10
6.094062
 20
-0.465207
 30
0.000000
 11
6.471894
 21
-1.471146
 31
0.000000
  0
LINE
  8
DIm
 62
     7
  6
CONTINUOUS
 10
6.354102
 20
-1.157537
 30
0.000000
 11
6.314739
 21
-1.086865
 31
0.000000
  0
LINE
  8
DIm
 62
     7
  6
CONTINUOUS
 10
6.354102
 20
-1.157537
 30
0.000000
 11
6.337207
 21
-1.078427
 31
0.000000
  0
TEXT
  8
DIm
 62
     7
 10
5.869389
 20
-0.387489
 30
0.000000
 40
0.200000
  1
0.670
 72
     1
 11
6.176680
 21
-0.387489
 31
0.000000
  0
LINE
  8
DIm
 62
     7
  6
CONTINUOUS
 10
1.084509
 20
6.383864
 30
0.000000
 11
2.348592
 21
6.370919
 31
0.000000
  0
LINE
  8
DIm
 62
     7
  6
CONTINUOUS
 10
2.129853
 20
6.373159
 30
0.000000
 11
2.049734
 21
6.361979
 31
0.000000
  0
LINE
  8
DIm
 62
     7
  6
CONTINUOUS
 10
2.129853
 20
6.373159
 30
0.000000
 11
2.049980
 21
6.385978
 31
0.000000
  0
TEXT
  8
DIm
 62
     7
 10
1.101597
 20
6.464973
 30
0.000000
 40
0.200000
  1
0.438
 50
-0.586689
 72
     1
 11
1.408872
 21
6.461826
 31
0.000000
  0
LINE
  8
DIm
 62
     7
  6
CONTINUOUS
 10
6.471997
 20
-1.479273
 30
0.000000
 11
6.480715
 21
-2.159174
 31
0.000000
  0
LINE
  8
DIm
 62
     7
  6
CONTINUOUS
 10
0.020028
 20
-1.562000
 30
0.000000
 11
0.028746
 21
-2.241901
 31
0.000000
  0
LINE
  8
DIm
 62
     7
  6
CONTINUOUS
 10
6.480559
 20
-2.146983
 30
0.000000
 11
0.028589
 21
-2.229710
 31
0.000000
  0
LINE
  8
DIm
 62
     7
  6
CONTINUOUS
 10
6.480559
 20
-2.146983
 30
0.000000
 11
6.400719
 21
-2.160008
 31
0.000000
  0
LINE
  8
DIm
 62
     7
  6
CONTINUOUS
 10
6.480559
 20
-2.146983
 30
0.000000
 11
6.400411
 21
-2.136010
 31
0.000000
  0
LINE
  8
DIm
 62
     7
  6
CONTINUOUS
 10
0.028589
 20
-2.229710
 30
0.000000
 11
0.108429
 21
-2.216685
 31
0.000000
  0
LINE
  8
DIm
 62
     7
  6
CONTINUOUS
 10
0.028589
 20
-2.229710
 30
0.000000
 11
0.108737
 21
-2.240683
 31
0.000000
  0
TEXT
  8
DIm
 62
     7
 10
4.346326
 20
-2.021936
 30
0.000000
 40
0.375000
  1
6.452
 50
0.734605
 72
     1
 11
4.946277
 21
-2.014243
 31
0.000000
  0
LINE
  8
DIm
 62
     7
  6
CONTINUOUS
 10
0.000000
 20
0.008128
 30
-0.125031
 11
0.000000
 21
0.024414
 31
-0.125094
  0
LINE
  8
DIm
 62
     7
  6
CONTINUOUS
 10
7.170936
 20
-1.655279
 30
-0.000031
 11
7.170936
 21
0.024869
 31
-0.006478
  0
LINE
  8
DIm
 62
     7
  6
CONTINUOUS
 10
0.000000
 20
0.012222
 30
-0.125047
 11
8.483776
 21
0.012760
 31
0.015285
  0
LINE
  8
DIm
 62
     7
  6
CONTINUOUS
 10
0.000000
 20
0.012222
 30
-0.125047
 11
0.079989
 21
0.024227
 31
-0.123770
  0
LINE
  8
DIm
 62
     7
  6
CONTINUOUS
 10
0.000000
 20
0.012222
 30
-0.125047
 11
0.079989
 21
0.000227
 31
-0.123678
  0
LINE
  8
DIm
 62
     7
  6
CONTINUOUS
 10
7.170936
 20
0.012677
 30
-0.006431
 11
7.090947
 21
0.000672
 31
-0.007708
  0
LINE
  8
DIm
 62
     7
  6
CONTINUOUS
 10
7.170936
 20
0.012677
 30
-0.006431
 11
7.090947
 21
0.024672
 31
-0.007800
  0
TEXT
  8
DIm
 62
     7
 10
-1.866080
 20
7.627644
 30
-0.124982
 40
0.200000
  1
7.172
 50
103.061476
 72
     1
 11
-1.935527
 21
7.926985
 31
-0.124982
210
-0.016539
220
0.003836
230
0.999856
  0
LINE
  8
DIm
 62
     7
  6
CONTINUOUS
 10
-7.408397
 20
-0.581599
 30
0.000000
 11
-7.396153
 21
-0.594829
 31
0.000000
  0
LINE
  8
DIm
 62
     7
  6
CONTINUOUS
 10
-7.165439
 20
-0.844129
 30
0.000000
 11
-6.432046
 21
-1.636599
 31
0.000000
  0
LINE
  8
DIm
 62
     7
  6
CONTINUOUS
 10
-6.659585
 20
-1.390731
 30
0.000000
 11
-6.722730
 21
-1.340167
 31
0.000000
  0
LINE
  8
DIm
 62
     7
  6
CONTINUOUS
 10
-6.659585
 20
-1.390731
 30
0.000000
 11
-6.705115
 21
-1.323865
 31
0.000000
  0
TEXT
  8
DIm
 62
     7
 10
-7.385112
 20
-0.769698
 30
0.000000
 40
0.200000
  1
0.670
 72
     1
 11
-7.077820
 21
-0.769698
 31
0.000000
  0
INSERT
  8
CAM
 62
     7
  2
Object_0
 10
-10.160000
 20
-10.160000
 30
0.000000
  0
ARC
  8
CAM
 62
     6
  6
CONTINUOUS
 10
-6.158845
 20
1.536947
 30
0.000000
 40
2.505000
 50
130.813733
 51
193.869128
  0
LINE
  8
CAM
 62
     6
  6
CONTINUOUS
 10
-8.590814
 20
0.936486
 30
0.000000
 11
-7.791475
 21
-2.300974
 31
0.000000
  0
ARC
  8
CAM
 62
     6
  6
CONTINUOUS
 10
-7.301198
 20
-2.179923
 30
0.000000
 40
0.505000
 50
193.869128
 51
198.154140
  0
ARC
  8
CAM
 62
     6
  6
CONTINUOUS
 10
-0.754942
 20
-0.033428
 30
0.000000
 40
7.394187
 50
198.154140
 51
233.549314
  0
ARC
  8
CAM
 62
     6
  6
CONTINUOUS
 10
-3.956824
 20
-4.368320
 30
0.000000
 40
2.005000
 50
233.549314
 51
249.549364
  0
LINE
  8
CAM
 62
     6
  6
CONTINUOUS
 10
-4.657371
 20
-6.246952
 30
0.000000
 11
-3.044070
 21
-6.848557
 31
0.000000
  0
ARC
  8
CAM
 62
     6
  6
CONTINUOUS
 10
-2.343522
 20
-4.969925
 30
0.000000
 40
2.005000
 50
249.549364
 51
270.734600
  0
LINE
  8
CAM
 62
     6
  6
CONTINUOUS
 10
-2.317817
 20
-6.974760
 30
0.000000
 11
3.698831
 21
-6.897616
 31
0.000000
  0
ARC
  8
CAM
 62
     6
  6
CONTINUOUS
 10
3.682740
 20
-5.642719
 30
0.000000
 40
1.255000
 50
270.734600
 51
317.892754
  0
LINE
  8
CAM
 62
     6
  6
CONTINUOUS
 10
4.613814
 20
-6.484222
 30
0.000000
 11
6.948642
 21
-3.900873
 31
0.000000
  0
ARC
  8
CAM
 62
     6
  6
CONTINUOUS
 10
5.461150
 20
-2.556480
 30
0.000000
 40
2.005000
 50
317.892754
 51
348.622139
  0
LINE
  8
CAM
 62
     6
  6
CONTINUOUS
 10
7.426747
 20
-2.952023
 30
0.000000
 11
7.642987
 21
-1.877450
 31
0.000000
  0
ARC
  8
CAM
 62
     6
  6
CONTINUOUS
 10
6.167564
 20
-1.580545
 30
0.000000
 40
1.505000
 50
348.622139
 51
361.935933
  0
LINE
  8
CAM
 62
     6
  6
CONTINUOUS
 10
7.671705
 20
-1.529704
 30
0.000000
 11
7.571260
 21
1.441913
 31
0.000000
  0
ARC
  8
CAM
 62
     6
  6
CONTINUOUS
 10
5.567405
 20
1.374181
 30
0.000000
 40
2.005000
 50
1.935933
 51
29.001476
  0
ARC
  8
CAM
 62
     6
  6
CONTINUOUS
 10
-8.168520
 20
-6.240229
 30
0.000000
 40
17.710249
 50
29.001476
 51
40.554254
  0
ARC
  8
CAM
 62
     6
  6
CONTINUOUS
 10
4.903868
 20
4.946070
 30
0.000000
 40
0.505000
 50
40.554254
 51
45.827258
  0
LINE
  8
CAM
 62
     6
  6
CONTINUOUS
 10
5.255764
 20
5.308277
 30
0.000000
 11
3.209164
 21
7.296615
 31
0.000000
  0
ARC
  8
CAM
 62
     6
  6
CONTINUOUS
 10
2.334650
 20
6.396477
 30
0.000000
 40
1.255000
 50
45.827258
 51
90.603236
  0
LINE
  8
CAM
 62
     6
  6
CONTINUOUS
 10
2.321437
 20
7.651407
 30
0.000000
 11
-2.516428
 21
7.600470
 31
0.000000
  0
ARC
  8
CAM
 62
     6
  6
CONTINUOUS
 10
-2.503215
 20
6.345539
 30
0.000000
 40
1.255000
 50
90.603236
 51
130.813733
  0
LINE
  8
CAM
 62
     6
  6
CONTINUOUS
 10
-3.323486
 20
7.295372
 30
0.000000
 11
-7.796118
 21
3.432828
 31
0.000000
  0
ARC
  8
CAM
 62
     6
  6
CONTINUOUS
 10
-6.158845
 20
1.536947
 30
0.000000
 40
2.355000
 50
130.813733
 51
193.869128
  0
LINE
  8
CAM
 62
     6
  6
CONTINUOUS
 10
-7.645848
 20
-2.265018
 30
0.000000
 11
-8.445187
 21
0.972442
 31
0.000000
  0
ARC
  8
CAM
 62
     6
  6
CONTINUOUS
 10
-7.301198
 20
-2.179923
 30
0.000000
 40
0.355000
 50
193.869128
 51
198.154140
  0
ARC
  8
CAM
 62
     6
  6
CONTINUOUS
 10
-0.754942
 20
-0.033428
 30
0.000000
 40
7.244187
 50
198.154140
 51
233.549314
  0
ARC
  8
CAM
 62
     6
  6
CONTINUOUS
 10
-3.956824
 20
-4.368320
 30
0.000000
 40
1.855000
 50
233.549314
 51
249.549364
  0
LINE
  8
CAM
 62
     6
  6
CONTINUOUS
 10
-2.991660
 20
-6.708011
 30
0.000000
 11
-4.604961
 21
-6.106406
 31
0.000000
  0
ARC
  8
CAM
 62
     6
  6
CONTINUOUS
 10
-2.343522
 20
-4.969925
 30
0.000000
 40
1.855000
 50
249.549364
 51
270.734600
  0
LINE
  8
CAM
 62
     6
  6
CONTINUOUS
 10
3.696907
 20
-6.747628
 30
0.000000
 11
-2.319740
 21
-6.824773
 31
0.000000
  0
ARC
  8
CAM
 62
     6
  6
CONTINUOUS
 10
3.682740
 20
-5.642719
 30
0.000000
 40
1.105000
 50
270.734600
 51
317.892754
  0
LINE
  8
CAM
 62
     6
  6
CONTINUOUS
 10
6.837358
 20
-3.800295
 30
0.000000
 11
4.502530
 21
-6.383644
 31
0.000000
  0
ARC
  8
CAM
 62
     6
  6
CONTINUOUS
 10
5.461150
 20
-2.556480
 30
0.000000
 40
1.855000
 50
317.892754
 51
348.622139
  0
LINE
  8
CAM
 62
     6
  6
CONTINUOUS
 10
7.495935
 20
-1.847858
 30
0.000000
 11
7.279695
 21
-2.922432
 31
0.000000
  0
ARC
  8
CAM
 62
     6
  6
CONTINUOUS
 10
6.167564
 20
-1.580545
 30
0.000000
 40
1.355000
 50
348.622139
 51
361.935933
  0
LINE
  8
CAM
 62
     6
  6
CONTINUOUS
 10
7.421346
 20
1.436846
 30
0.000000
 11
7.521790
 21
-1.534771
 31
0.000000
  0
ARC
  8
CAM
 62
     6
  6
CONTINUOUS
 10
5.567405
 20
1.374181
 30
0.000000
 40
1.855000
 50
1.935933
 51
29.001476
  0
ARC
  8
CAM
 62
     6
  6
CONTINUOUS
 10
-8.168520
 20
-6.240229
 30
-0.000000
 40
17.560249
 50
29.001476
 51
40.554254
  0
ARC
  8
CAM
 62
     6
  6
CONTINUOUS
 10
4.903868
 20
4.946070
 30
0.000000
 40
0.355000
 50
40.554254
 51
45.827258
  0
LINE
  8
CAM
 62
     6
  6
CONTINUOUS
 10
3.104640
 20
7.189029
 30
0.000000
 11
5.151241
 21
5.200691
 31
0.000000
  0
ARC
  8
CAM
 62
     6
  6
CONTINUOUS
 10
2.334650
 20
6.396477
 30
0.000000
 40
1.105000
 50
45.827258
 51
90.603236
  0
LINE
  8
CAM
 62
     6
  6
CONTINUOUS
 10
-2.514849
 20
7.450478
 30
0.000000
 11
2.323016
 21
7.501415
 31
0.000000
  0
ARC
  8
CAM
 62
     6
  6
CONTINUOUS
 10
-2.503215
 20
6.345539
 30
0.000000
 40
1.105000
 50
90.603236
 51
130.813733
  0
LINE
  8
CAM
 62
     6
  6
CONTINUOUS
 10
-7.698078
 20
3.319302
 30
0.000000
 11
-3.225446
 21
7.181846
 31
0.000000
  0
CIRCLE
  8
CAM
 62
     6
  6
CONTINUOUS
 10
0.000000
 20
0.000000
 30
-0.625000
 40
2.645000
  0
CIRCLE
  8
CAM
 62
     6
  6
CONTINUOUS
 10
0.000000
 20
0.000000
 30
-0.625000
 40
2.495000
  0
CIRCLE
  8
CAM
 62
     6
  6
CONTINUOUS
 10
-6.432046
 20
-1.636599
 30
0.000000
 40
0.080000
  0
CIRCLE
  8
CAM
 62
     6
  6
CONTINUOUS
 10
-6.432046
 20
-1.636599
 30
0.000000
 40
0.085000
  0
CIRCLE
  8
CAM
 62
     6
  6
CONTINUOUS
 10
6.471893
 20
-1.471146
 30
0.000000
 40
0.085000
  0
CIRCLE
  8
CAM
 62
     6
  6
CONTINUOUS
 10
6.471893
 20
-1.471146
 30
0.000000
 40
0.080000
  0
TEXT
  8
DIM
 62
     7
 10
-1.914034
 20
4.914567
 30
0.000000
 40
0.200000
  1
Countersink holes on back side
 72
     1
 11
-0.094034
 21
4.914567
 31
0.000000
  0
ENDSEC
  0
EOF
