  0
SECTION
  2
HEADER
  9
$ACADVER
  1
AC1006
  0
ENDSEC
  0
SECTION
  2
TABLES
  0
TABLE
  2
LTYPE
 70
    25
  0
LTYPE
  2
CONTINUOUS
 70
    64
  3
Solid line
 72
    64
 73
     0
 40
0.000000
  0
LTYPE
  2
DASHDOT
 70
    64
  3
__ . __ . __ . __ . __ . __ . __ . __ . __ . __
 72
    65
 73
     4
 40
1.000000
 49
0.500000
 49
-0.250000
 49
0.000000
 49
-0.250000
  0
LTYPE
  2
DASHED
 70
    64
  3
__ __ __ __ __ __ __ __ __ __ __ __ __ __ __ __
 72
    65
 73
     2
 40
0.750000
 49
0.500000
 49
-0.250000
  0
LTYPE
  2
DIVIDE
 70
    64
  3
____ . . ____ . . ____ . . ____ . . ____ . . __
 72
    65
 73
     6
 40
1.250000
 49
0.500000
 49
-0.250000
 49
0.000000
 49
-0.250000
 49
0.000000
 49
-0.250000
  0
LTYPE
  2
DOT
 70
    64
  3
. . . . . . . . . . . . . . . . . . . . . . . . 
 72
    65
 73
     2
 40
0.250000
 49
0.000000
 49
-0.250000
  0
ENDTAB
  0
ENDSEC
  0
SECTION
  2
BLOCKS
  0
BLOCK
  8
0
  2
Object_0
 70
    64
 10
0.000000
 20
0.000000
 30
0.000000
  0
ENDBLK
  0
ENDSEC
  0
SECTION
  2
ENTITIES
  0
LINE
  8
DIM
 62
     7
  6
CONTINUOUS
 10
1.405202
 20
6.118521
 30
0.000000
 11
1.072621
 21
6.406779
 31
0.000000
  0
LINE
  8
DIM
 62
     7
  6
CONTINUOUS
 10
-5.613313
 20
-1.979200
 30
0.000000
 11
-5.945896
 21
-1.690942
 31
0.000000
  0
LINE
  8
DIM
 62
     7
  6
CONTINUOUS
 10
1.081834
 20
6.398793
 30
0.000000
 11
-5.936683
 21
-1.698927
 31
0.000000
  0
LINE
  8
DIM
 62
     7
  6
CONTINUOUS
 10
1.081834
 20
6.398793
 30
0.000000
 11
1.038505
 21
6.330480
 31
0.000000
  0
LINE
  8
DIM
 62
     7
  6
CONTINUOUS
 10
1.081834
 20
6.398793
 30
0.000000
 11
1.020369
 21
6.346199
 31
0.000000
  0
LINE
  8
DIM
 62
     7
  6
CONTINUOUS
 10
-5.936683
 20
-1.698927
 30
0.000000
 11
-5.893354
 21
-1.630614
 31
0.000000
  0
LINE
  8
DIM
 62
     7
  6
CONTINUOUS
 10
-5.936683
 20
-1.698927
 30
0.000000
 11
-5.875218
 21
-1.646333
 31
0.000000
  0
TEXT
  8
DIM
 62
     7
 10
-2.928391
 20
1.896036
 30
0.000000
 40
0.200000
  1
10.716
 50
49.083625
 72
     1
 11
-2.682782
 21
2.179411
 31
0.000000
  0
POINT
  8
Default
 62
     7
 10
1.411344
 20
6.113197
 30
0.000000
  0
LINE
  8
DIM
 62
     7
  6
CONTINUOUS
 10
-5.604459
 20
-1.992186
 30
0.000000
 11
-5.469466
 21
-2.373604
 31
0.000000
  0
LINE
  8
DIM
 62
     7
  6
CONTINUOUS
 10
0.002712
 20
-0.007662
 30
-0.000000
 11
0.137705
 21
-0.389079
 31
-0.000000
  0
LINE
  8
DIM
 62
     7
  6
CONTINUOUS
 10
-5.473534
 20
-2.362110
 30
0.000000
 11
0.133638
 21
-0.377586
 31
-0.000000
  0
LINE
  8
DIM
 62
     7
  6
CONTINUOUS
 10
-5.473534
 20
-2.362110
 30
0.000000
 11
-5.402122
 21
-2.324106
 31
0.000000
  0
LINE
  8
DIM
 62
     7
  6
CONTINUOUS
 10
-5.473534
 20
-2.362110
 30
0.000000
 11
-5.394114
 21
-2.346731
 31
0.000000
  0
LINE
  8
DIM
 62
     7
  6
CONTINUOUS
 10
0.133638
 20
-0.377586
 30
-0.000000
 11
0.062225
 21
-0.415590
 31
0.000000
  0
LINE
  8
DIM
 62
     7
  6
CONTINUOUS
 10
0.133638
 20
-0.377586
 30
-0.000000
 11
0.054218
 21
-0.392965
 31
0.000000
  0
TEXT
  8
DIM
 62
     7
 10
-1.814795
 20
-0.980967
 30
-0.000000
 40
0.200000
  1
5.948
 50
19.490199
 72
     1
 11
-1.525111
 21
-0.878440
 31
-0.000000
  0
POINT
  8
Default
 62
     7
 10
-2.219453
 20
1.923538
 30
0.000000
  0
POINT
  8
Default
 62
     7
 10
-5.967020
 20
-1.192433
 30
0.000000
  0
LINE
  8
DIM
 62
     7
  6
CONTINUOUS
 10
0.007920
 20
-0.001828
 30
-0.000000
 11
0.425469
 21
-0.098227
 31
-0.000000
  0
LINE
  8
DIM
 62
     7
  6
CONTINUOUS
 10
1.419264
 20
6.111369
 30
0.000000
 11
1.836813
 21
6.014970
 31
0.000000
  0
LINE
  8
DIM
 62
     7
  6
CONTINUOUS
 10
0.413589
 20
-0.095485
 30
-0.000000
 11
1.824934
 21
6.017712
 31
0.000000
  0
LINE
  8
DIM
 62
     7
  6
CONTINUOUS
 10
0.413589
 20
-0.095485
 30
-0.000000
 11
0.419893
 21
-0.014836
 31
0.000000
  0
LINE
  8
DIM
 62
     7
  6
CONTINUOUS
 10
0.413589
 20
-0.095485
 30
-0.000000
 11
0.443278
 21
-0.020235
 31
0.000000
  0
LINE
  8
DIM
 62
     7
  6
CONTINUOUS
 10
1.824934
 20
6.017712
 30
0.000000
 11
1.818630
 21
5.937063
 31
0.000000
  0
LINE
  8
DIM
 62
     7
  6
CONTINUOUS
 10
1.824934
 20
6.017712
 30
0.000000
 11
1.795245
 21
5.942462
 31
0.000000
  0
TEXT
  8
DIM
 62
     7
 10
0.792998
 20
1.909236
 30
-0.000000
 40
0.200000
  1
6.274
 50
76.999987
 72
     1
 11
0.862124
 21
2.208652
 31
-0.000000
  0
LINE
  8
DIM
 62
     6
  6
CONTINUOUS
 10
0.000000
 20
0.000000
 30
0.000000
 11
-5.607171
 21
-1.984524
 31
0.000000
  0
CIRCLE
  8
Default
 62
     6
  6
CONTINUOUS
 10
-2.319467
 20
5.787512
 30
0.000000
 40
0.250000
  0
CIRCLE
  8
Default
 62
     6
  6
CONTINUOUS
 10
-5.967020
 20
-1.192433
 30
0.000000
 40
0.250000
  0
CIRCLE
  8
Default
 62
     9
  6
CONTINUOUS
 10
0.000000
 20
0.000000
 30
-0.125000
 40
4.251000
  0
CIRCLE
  8
Default
 62
     9
  6
CONTINUOUS
 10
0.000000
 20
0.000000
 30
-0.625000
 40
3.000000
  0
CIRCLE
  8
Default
 62
     9
  6
CONTINUOUS
 10
0.000000
 20
3.625000
 30
0.000000
 40
0.265625
  0
CIRCLE
  8
Default
 62
     9
  6
CONTINUOUS
 10
3.625000
 20
0.000000
 30
0.000000
 40
0.265625
  0
CIRCLE
  8
Default
 62
     9
  6
CONTINUOUS
 10
-3.625000
 20
0.000000
 30
0.000000
 40
0.265625
  0
CIRCLE
  8
Default
 62
     9
  6
CONTINUOUS
 10
-0.000000
 20
-3.625000
 30
0.000000
 40
0.265625
  0
POINT
  8
Default
 62
     7
 10
-3.425316
 20
-4.803874
 30
0.000000
  0
POINT
  8
Default
 62
     7
 10
0.000000
 20
0.000000
 30
0.000000
  0
POINT
  8
Default
 62
     7
 10
2.922695
 20
-5.240024
 30
-0.000000
  0
CIRCLE
  8
Default
 62
     6
  6
CONTINUOUS
 10
-5.607171
 20
-1.984524
 30
0.000000
 40
0.196900
  0
CIRCLE
  8
Default
 62
     6
  6
CONTINUOUS
 10
1.411344
 20
6.113197
 30
0.000000
 40
0.196900
  0
POINT
  8
Default
 62
     7
 10
5.923060
 20
-0.586232
 30
0.000000
  0
CIRCLE
  8
Default
 62
     6
  6
CONTINUOUS
 10
2.159856
 20
5.816962
 30
0.000000
 40
0.250000
  0
POINT
  8
Default
 62
     7
 10
2.159856
 20
5.816962
 30
0.000000
  0
CIRCLE
  8
Default
 62
     6
  6
CONTINUOUS
 10
5.923060
 20
-0.586232
 30
0.000000
 40
0.250000
  0
POINT
  8
Default
 62
     7
 10
-5.607171
 20
-1.984524
 30
0.000000
  0
POINT
  8
Default
 62
     7
 10
-2.319467
 20
5.787512
 30
0.000000
  0
CIRCLE
  8
Default
 62
     6
  6
CONTINUOUS
 10
2.922695
 20
-5.240024
 30
-0.000000
 40
0.250000
  0
CIRCLE
  8
Default
 62
     6
  6
CONTINUOUS
 10
-3.425316
 20
-4.803874
 30
0.000000
 40
0.250000
  0
LINE
  8
Default
 62
     6
  6
CONTINUOUS
 10
7.228560
 20
1.153392
 30
0.000000
 11
5.986397
 21
-2.526174
 31
-0.000000
  0
POINT
  8
Default
 62
     7
 10
0.484142
 20
-6.436818
 30
0.000000
  0
POINT
  8
Default
 62
     7
 10
-2.973351
 20
-5.729416
 30
0.000000
  0
ARC
  8
Default
 62
     6
  6
CONTINUOUS
 10
4.091460
 20
-1.886474
 30
-0.000000
 40
2.000000
 50
316.422797
 51
341.346126
  0
LINE
  8
Default
 62
     6
  6
CONTINUOUS
 10
5.540353
 20
-3.265136
 30
-0.000000
 11
3.596425
 21
-5.308088
 31
0.000000
  0
POINT
  8
Default
 62
     7
 10
6.250892
 20
4.266260
 30
0.000000
  0
ARC
  8
Default
 62
     6
  6
CONTINUOUS
 10
2.147533
 20
-3.929426
 30
0.000000
 40
2.000000
 50
284.782160
 51
316.422797
  0
POINT
  8
Default
 62
     7
 10
5.845027
 20
-2.944942
 30
0.000000
  0
LINE
  8
Default
 62
     6
  6
CONTINUOUS
 10
2.657822
 20
-5.863231
 30
0.000000
 11
0.936738
 21
-6.317388
 31
0.000000
  0
POINT
  8
Default
 62
     7
 10
7.199834
 20
2.894821
 30
0.000000
  0
LINE
  8
DIM
 62
     6
  6
CONTINUOUS
 10
-2.219453
 20
1.923538
 30
0.000000
 11
-5.607171
 21
-1.984524
 31
0.000000
  0
ARC
  8
Default
 62
     6
  6
CONTINUOUS
 10
0.426449
 20
-4.383582
 30
0.000000
 40
2.000000
 50
258.436882
 51
284.782160
  0
POINT
  8
Default
 62
     7
 10
7.228560
 20
1.153392
 30
0.000000
  0
POINT
  8
Default
 62
     7
 10
7.228560
 20
1.153392
 30
0.000000
  0
LINE
  8
Default
 62
     6
  6
CONTINUOUS
 10
0.025554
 20
-6.342991
 30
0.000000
 11
-2.736318
 21
-5.777913
 31
0.000000
  0
ARC
  8
Default
 62
     6
  6
CONTINUOUS
 10
-5.967020
 20
-1.192433
 30
0.000000
 40
0.535000
 50
190.889445
 51
204.432412
  0
POINT
  8
Default
 62
     7
 10
-7.140082
 20
2.073272
 30
0.000000
  0
ARC
  8
Default
 62
     6
  6
CONTINUOUS
 10
-2.335423
 20
-3.818504
 30
0.000000
 40
2.000000
 50
217.735776
 51
258.436882
  0
LINE
  8
Default
 62
     6
  6
CONTINUOUS
 10
-3.917106
 20
-5.042546
 30
0.000000
 11
-5.946324
 21
-2.420431
 31
0.000000
  0
POINT
  8
Default
 62
     7
 10
-6.966451
 20
3.361367
 30
0.000000
  0
ARC
  8
Default
 62
     6
  6
CONTINUOUS
 10
-3.573799
 20
-0.584368
 30
0.000000
 40
3.000000
 50
190.889445
 51
217.735776
  0
POINT
  8
Default
 62
     7
 10
-6.130139
 20
4.329713
 30
0.000000
  0
LINE
  8
Default
 62
     6
  6
CONTINUOUS
 10
-6.519779
 20
-1.151112
 30
0.000000
 11
-7.140082
 21
2.073272
 31
0.000000
  0
ARC
  8
Default
 62
     6
  6
CONTINUOUS
 10
-4.906962
 20
2.428005
 30
0.000000
 40
2.261119
 50
123.319624
 51
189.026064
  0
LINE
  8
Default
 62
     6
  6
CONTINUOUS
 10
-3.941233
 20
5.768763
 30
0.000000
 11
-6.149015
 21
4.317439
 31
0.000000
  0
POINT
  8
Default
 62
     7
 10
-4.104763
 20
5.657828
 30
0.000000
  0
ARC
  8
Default
 62
     6
  6
CONTINUOUS
 10
-0.205932
 20
0.086552
 30
0.000000
 40
6.800000
 50
60.777421
 51
123.319624
  0
LINE
  8
Default
 62
     6
  6
CONTINUOUS
 10
6.250892
 20
4.266260
 30
0.000000
 11
3.113853
 21
6.021115
 31
0.000000
  0
ARC
  8
Default
 62
     6
  6
CONTINUOUS
 10
4.409085
 20
1.977834
 30
0.000000
 40
2.937541
 50
343.700572
 51
411.171645
  0
LINE
  8
DIM
 62
     6
  6
CONTINUOUS
 10
0.000000
 20
0.000000
 30
0.000000
 11
-2.219453
 21
1.923538
 31
0.000000
  0
LINE
  8
DIM
 62
     6
  6
CONTINUOUS
 10
0.000000
 20
0.000000
 30
0.000000
 11
1.411344
 21
6.113197
 31
0.000000
  0
LINE
  8
DIM
 62
     6
  6
CONTINUOUS
 10
1.411344
 20
6.113197
 30
0.000000
 11
-2.219453
 21
1.923538
 31
0.000000
  0
CIRCLE
  8
CAM
 62
     6
  6
CONTINUOUS
 10
0.000000
 20
0.000000
 30
-0.625000
 40
2.632500
  0
CIRCLE
  8
Default
 62
     6
  6
CONTINUOUS
 10
1.411344
 20
6.113197
 30
0.000000
 40
0.004400
  0
CIRCLE
  8
Default
 62
     6
  6
CONTINUOUS
 10
1.411344
 20
6.113197
 30
0.000000
 40
0.009400
  0
CIRCLE
  8
Default
 62
     6
  6
CONTINUOUS
 10
-5.607171
 20
-1.984524
 30
0.000000
 40
0.004400
  0
CIRCLE
  8
Default
 62
     6
  6
CONTINUOUS
 10
-5.607171
 20
-1.984524
 30
0.000000
 40
0.009400
  0
LINE
  8
CAM
 62
     6
  6
CONTINUOUS
 10
6.334591
 20
-2.643719
 30
-0.000000
 11
10.124463
 21
-3.923121
 31
-0.000000
  0
ARC
  8
CAM
 62
     6
  6
CONTINUOUS
 10
4.091460
 20
-1.886474
 30
-0.000000
 40
2.367500
 50
316.422797
 51
341.346126
  0
LINE
  8
CAM
 62
     6
  6
CONTINUOUS
 10
3.862659
 20
-5.561418
 30
0.000000
 11
5.806587
 21
-3.518466
 31
-0.000000
  0
ARC
  8
CAM
 62
     6
  6
CONTINUOUS
 10
2.147533
 20
-3.929426
 30
0.000000
 40
2.367500
 50
284.782160
 51
316.422797
  0
LINE
  8
CAM
 62
     6
  6
CONTINUOUS
 10
1.030504
 20
-6.672725
 30
0.000000
 11
2.751588
 21
-6.218568
 31
0.000000
  0
ARC
  8
CAM
 62
     6
  6
CONTINUOUS
 10
0.426449
 20
-4.383582
 30
0.000000
 40
2.367500
 50
258.436882
 51
284.782160
  0
LINE
  8
CAM
 62
     6
  6
CONTINUOUS
 10
-2.809982
 20
-6.137954
 30
0.000000
 11
-0.048110
 21
-6.703033
 31
0.000000
  0
ARC
  8
CAM
 62
     6
  6
CONTINUOUS
 10
-2.335423
 20
-3.818504
 30
0.000000
 40
2.367500
 50
217.735776
 51
258.436882
  0
LINE
  8
CAM
 62
     6
  6
CONTINUOUS
 10
-6.236958
 20
-2.645349
 30
0.000000
 11
-4.207741
 21
-5.267464
 31
0.000000
  0
ARC
  8
CAM
 62
     6
  6
CONTINUOUS
 10
-3.573799
 20
-0.584368
 30
0.000000
 40
3.367500
 50
190.889445
 51
217.735776
  0
LINE
  8
CAM
 62
     6
  6
CONTINUOUS
 10
-7.500965
 20
2.003846
 30
0.000000
 11
-6.880662
 21
-1.220538
 31
0.000000
  0
ARC
  8
CAM
 62
     6
  6
CONTINUOUS
 10
-7.140082
 20
2.073272
 30
0.000000
 40
0.367500
 50
189.026064
 51
190.889445
  0
ARC
  8
CAM
 62
     6
  6
CONTINUOUS
 10
-4.906962
 20
2.428005
 30
0.000000
 40
2.628619
 50
123.319624
 51
189.026064
  0
LINE
  8
CAM
 62
     6
  6
CONTINUOUS
 10
-4.143105
 20
6.075853
 30
0.000000
 11
-6.350886
 21
4.624529
 31
0.000000
  0
ARC
  8
CAM
 62
     6
  6
CONTINUOUS
 10
-0.205932
 20
0.086552
 30
0.000000
 40
7.167500
 50
60.777421
 51
123.319624
  0
LINE
  8
CAM
 62
     6
  6
CONTINUOUS
 10
6.430307
 20
4.586988
 30
0.000000
 11
3.293268
 21
6.341843
 31
0.000000
  0
ARC
  8
CAM
 62
     6
  6
CONTINUOUS
 10
6.250892
 20
4.266260
 30
0.000000
 40
0.367500
 50
51.171645
 51
60.777421
  0
ARC
  8
CAM
 62
     6
  6
CONTINUOUS
 10
4.409085
 20
1.977834
 30
0.000000
 40
3.305041
 50
343.700572
 51
411.171645
  0
ARC
  8
CAM
 62
     6
  6
CONTINUOUS
 10
7.228560
 20
1.153392
 30
0.000000
 40
0.367500
 50
341.346126
 51
343.700572
  0
LINE
  8
CAM
 62
     6
  6
CONTINUOUS
 10
6.334591
 20
-2.643719
 30
-0.000000
 11
7.576755
 21
1.035847
 31
0.000000
  0
LINE
  8
CAM
 62
     6
  6
CONTINUOUS
 10
10.124463
 20
-3.923121
 30
-0.000000
 11
6.334591
 21
-2.643719
 31
-0.000000
  0
ARC
  8
CAM
 62
     6
  6
CONTINUOUS
 10
7.228560
 20
1.153392
 30
0.000000
 40
0.362500
 50
341.346126
 51
343.700572
  0
ARC
  8
CAM
 62
     6
  6
CONTINUOUS
 10
4.409085
 20
1.977834
 30
0.000000
 40
3.300041
 50
343.700572
 51
411.171645
  0
ARC
  8
CAM
 62
     6
  6
CONTINUOUS
 10
6.250892
 20
4.266260
 30
0.000000
 40
0.362500
 50
51.171645
 51
60.777421
  0
LINE
  8
CAM
 62
     6
  6
CONTINUOUS
 10
3.290827
 20
6.337479
 30
0.000000
 11
6.427866
 21
4.582624
 31
0.000000
  0
ARC
  8
CAM
 62
     6
  6
CONTINUOUS
 10
-0.205932
 20
0.086552
 30
0.000000
 40
7.162500
 50
60.777421
 51
123.319624
  0
LINE
  8
CAM
 62
     6
  6
CONTINUOUS
 10
-6.348140
 20
4.620351
 30
0.000000
 11
-4.140358
 21
6.071675
 31
0.000000
  0
ARC
  8
CAM
 62
     6
  6
CONTINUOUS
 10
-4.906962
 20
2.428005
 30
0.000000
 40
2.623619
 50
123.319624
 51
189.026064
  0
ARC
  8
CAM
 62
     6
  6
CONTINUOUS
 10
-7.140082
 20
2.073272
 30
0.000000
 40
0.362500
 50
189.026064
 51
190.889445
  0
LINE
  8
CAM
 62
     6
  6
CONTINUOUS
 10
-6.875752
 20
-1.219593
 30
0.000000
 11
-7.496055
 21
2.004790
 31
0.000000
  0
ARC
  8
CAM
 62
     6
  6
CONTINUOUS
 10
-3.573799
 20
-0.584368
 30
0.000000
 40
3.362500
 50
190.889445
 51
217.735776
  0
LINE
  8
CAM
 62
     6
  6
CONTINUOUS
 10
-4.203786
 20
-5.264404
 30
0.000000
 11
-6.233004
 21
-2.642289
 31
0.000000
  0
ARC
  8
CAM
 62
     6
  6
CONTINUOUS
 10
-2.335423
 20
-3.818504
 30
0.000000
 40
2.362500
 50
217.735776
 51
258.436882
  0
LINE
  8
CAM
 62
     6
  6
CONTINUOUS
 10
-0.047108
 20
-6.698134
 30
0.000000
 11
-2.808980
 21
-6.133056
 31
0.000000
  0
ARC
  8
CAM
 62
     6
  6
CONTINUOUS
 10
0.426449
 20
-4.383582
 30
0.000000
 40
2.362500
 50
258.436882
 51
284.782160
  0
LINE
  8
CAM
 62
     6
  6
CONTINUOUS
 10
2.750312
 20
-6.213734
 30
0.000000
 11
1.029228
 21
-6.667890
 31
0.000000
  0
ARC
  8
CAM
 62
     6
  6
CONTINUOUS
 10
2.147533
 20
-3.929426
 30
0.000000
 40
2.362500
 50
284.782160
 51
316.422797
  0
LINE
  8
CAM
 62
     6
  6
CONTINUOUS
 10
5.802965
 20
-3.515019
 30
-0.000000
 11
3.859037
 21
-5.557971
 31
0.000000
  0
ARC
  8
CAM
 62
     6
  6
CONTINUOUS
 10
4.091460
 20
-1.886474
 30
-0.000000
 40
2.362500
 50
316.422797
 51
341.346126
  0
LINE
  8
CAM
 62
     6
  6
CONTINUOUS
 10
7.572018
 20
1.037447
 30
0.000000
 11
6.329854
 21
-2.642120
 31
-0.000000
  0
INSERT
  8
CAM
 62
     7
  2
Object_0
 10
-10.160000
 20
-10.160000
 30
0.000000
  0
CIRCLE
  8
CAM
 62
     6
  6
CONTINUOUS
 10
0.000000
 20
0.000000
 30
-0.625000
 40
2.637500
  0
LINE
  8
DIM
 62
     7
  6
CONTINUOUS
 10
0.000000
 20
-0.002540
 30
-0.000000
 11
0.000000
 21
-6.557012
 31
-0.000000
  0
LINE
  8
DIM
 62
     7
  6
CONTINUOUS
 10
-7.168081
 20
2.425464
 30
0.000000
 11
-7.168081
 21
-6.557012
 31
0.000000
  0
LINE
  8
DIM
 62
     7
  6
CONTINUOUS
 10
0.000000
 20
-6.553202
 30
-0.000000
 11
-7.168081
 21
-6.553202
 31
0.000000
  0
LINE
  8
DIM
 62
     7
  6
CONTINUOUS
 10
0.000000
 20
-6.553202
 30
-0.000000
 11
-0.025000
 21
-6.565702
 31
-0.000000
  0
LINE
  8
DIM
 62
     7
  6
CONTINUOUS
 10
0.000000
 20
-6.553202
 30
-0.000000
 11
-0.025000
 21
-6.540702
 31
-0.000000
  0
LINE
  8
DIM
 62
     7
  6
CONTINUOUS
 10
-7.168081
 20
-6.553202
 30
0.000000
 11
-7.143081
 21
-6.540702
 31
0.000000
  0
LINE
  8
DIM
 62
     7
  6
CONTINUOUS
 10
-7.168081
 20
-6.553202
 30
0.000000
 11
-7.143081
 21
-6.565702
 31
0.000000
  0
TEXT
  8
DIM
 62
     7
 10
-6.986943
 20
-6.471922
 30
0.000000
 40
0.200000
  1
7.168
 72
     1
 11
-6.696943
 21
-6.471922
 31
0.000000
  0
LINE
  8
DIM
 62
     7
  6
CONTINUOUS
 10
0.000000
 20
-0.002540
 30
-0.000000
 11
0.000000
 21
-6.557012
 31
-0.000000
  0
LINE
  8
DIM
 62
     7
  6
CONTINUOUS
 10
7.346626
 20
1.975294
 30
0.000000
 11
7.346626
 21
-6.557012
 31
0.000000
  0
LINE
  8
DIM
 62
     7
  6
CONTINUOUS
 10
0.000000
 20
-6.553202
 30
-0.000000
 11
7.346626
 21
-6.553202
 31
0.000000
  0
LINE
  8
DIM
 62
     7
  6
CONTINUOUS
 10
0.000000
 20
-6.553202
 30
-0.000000
 11
0.025000
 21
-6.540702
 31
-0.000000
  0
LINE
  8
DIM
 62
     7
  6
CONTINUOUS
 10
0.000000
 20
-6.553202
 30
-0.000000
 11
0.025000
 21
-6.565702
 31
-0.000000
  0
LINE
  8
DIM
 62
     7
  6
CONTINUOUS
 10
7.346626
 20
-6.553202
 30
0.000000
 11
7.321626
 21
-6.565702
 31
0.000000
  0
LINE
  8
DIM
 62
     7
  6
CONTINUOUS
 10
7.346626
 20
-6.553202
 30
0.000000
 11
7.321626
 21
-6.540702
 31
0.000000
  0
TEXT
  8
DIM
 62
     7
 10
6.474020
 20
-6.471922
 30
0.000000
 40
0.200000
  1
7.347
 72
     1
 11
6.794020
 21
-6.471922
 31
0.000000
  0
LINE
  8
DIM
 62
     7
  6
CONTINUOUS
 10
0.002540
 20
0.000000
 30
-0.000000
 11
7.775436
 21
0.000000
 31
-0.000000
  0
LINE
  8
DIM
 62
     7
  6
CONTINUOUS
 10
-0.446464
 20
6.882206
 30
0.000000
 11
7.775436
 21
6.882206
 31
0.000000
  0
LINE
  8
DIM
 62
     7
  6
CONTINUOUS
 10
7.771626
 20
0.000000
 30
-0.000000
 11
7.771626
 21
6.882206
 31
0.000000
  0
LINE
  8
DIM
 62
     7
  6
CONTINUOUS
 10
7.771626
 20
0.000000
 30
-0.000000
 11
7.759126
 21
0.025000
 31
-0.000000
  0
LINE
  8
DIM
 62
     7
  6
CONTINUOUS
 10
7.771626
 20
0.000000
 30
-0.000000
 11
7.784126
 21
0.025000
 31
-0.000000
  0
LINE
  8
DIM
 62
     7
  6
CONTINUOUS
 10
7.771626
 20
6.882206
 30
0.000000
 11
7.784126
 21
6.857206
 31
0.000000
  0
LINE
  8
DIM
 62
     7
  6
CONTINUOUS
 10
7.771626
 20
6.882206
 30
0.000000
 11
7.759126
 21
6.857206
 31
0.000000
  0
TEXT
  8
DIM
 62
     7
 10
7.690346
 20
2.945446
 30
-0.000000
 40
0.200000
  1
6.882
 50
90.000003
 72
     1
 11
7.690346
 21
3.255446
 31
-0.000000
  0
LINE
  8
DIM
 62
     7
  6
CONTINUOUS
 10
0.002540
 20
0.000000
 30
0.000000
 11
7.775436
 21
0.000000
 31
0.000000
  0
LINE
  8
DIM
 62
     7
  6
CONTINUOUS
 10
0.670229
 20
-6.357680
 30
0.000000
 11
7.775436
 21
-6.357680
 31
0.000000
  0
LINE
  8
DIM
 62
     7
  6
CONTINUOUS
 10
7.771626
 20
0.000000
 30
0.000000
 11
7.771626
 21
-6.357680
 31
0.000000
  0
LINE
  8
DIM
 62
     7
  6
CONTINUOUS
 10
7.771626
 20
0.000000
 30
0.000000
 11
7.784126
 21
-0.025000
 31
0.000000
  0
LINE
  8
DIM
 62
     7
  6
CONTINUOUS
 10
7.771626
 20
0.000000
 30
0.000000
 11
7.759126
 21
-0.025000
 31
0.000000
  0
LINE
  8
DIM
 62
     7
  6
CONTINUOUS
 10
7.771626
 20
-6.357680
 30
0.000000
 11
7.759126
 21
-6.332680
 31
0.000000
  0
LINE
  8
DIM
 62
     7
  6
CONTINUOUS
 10
7.771626
 20
-6.357680
 30
0.000000
 11
7.784126
 21
-6.332680
 31
0.000000
  0
TEXT
  8
DIM
 62
     7
 10
7.690346
 20
-5.396792
 30
0.000000
 40
0.200000
  1
6.358
 50
90.000003
 72
     1
 11
7.690346
 21
-5.086792
 31
0.000000
  0
LINE
  8
DIM
 62
     7
  6
CONTINUOUS
 10
-2.569467
 20
5.790052
 30
0.000000
 11
-2.569467
 21
6.641322
 31
0.000000
  0
LINE
  8
DIM
 62
     7
  6
CONTINUOUS
 10
-2.069467
 20
5.790052
 30
0.000000
 11
-2.069467
 21
6.641322
 31
0.000000
  0
LINE
  8
DIM
 62
     7
  6
CONTINUOUS
 10
-2.634547
 20
6.637512
 30
0.000000
 11
-2.004387
 21
6.637512
 31
0.000000
  0
LINE
  8
DIM
 62
     7
  6
CONTINUOUS
 10
-2.569467
 20
6.637512
 30
0.000000
 11
-2.544467
 21
6.650012
 31
0.000000
  0
LINE
  8
DIM
 62
     7
  6
CONTINUOUS
 10
-2.569467
 20
6.637512
 30
0.000000
 11
-2.544467
 21
6.625012
 31
0.000000
  0
LINE
  8
DIM
 62
     7
  6
CONTINUOUS
 10
-2.069467
 20
6.637512
 30
0.000000
 11
-2.094467
 21
6.625012
 31
0.000000
  0
LINE
  8
DIM
 62
     7
  6
CONTINUOUS
 10
-2.069467
 20
6.637512
 30
0.000000
 11
-2.094467
 21
6.650012
 31
0.000000
  0
TEXT
  8
DIM
 62
     7
 10
-2.629467
 20
6.718792
 30
0.000000
 40
0.200000
  1
0.500
 72
     1
 11
-2.319467
 21
6.718792
 31
0.000000
  0
LINE
  8
DIM
 62
     7
  6
CONTINUOUS
 10
-6.217020
 20
-1.189893
 30
0.000000
 11
-6.217020
 21
-0.338623
 31
0.000000
  0
LINE
  8
DIM
 62
     7
  6
CONTINUOUS
 10
-5.717020
 20
-1.189893
 30
0.000000
 11
-5.717020
 21
-0.338623
 31
0.000000
  0
LINE
  8
DIM
 62
     7
  6
CONTINUOUS
 10
-6.282100
 20
-0.342433
 30
0.000000
 11
-5.651940
 21
-0.342433
 31
0.000000
  0
LINE
  8
DIM
 62
     7
  6
CONTINUOUS
 10
-6.217020
 20
-0.342433
 30
0.000000
 11
-6.192020
 21
-0.329933
 31
0.000000
  0
LINE
  8
DIM
 62
     7
  6
CONTINUOUS
 10
-6.217020
 20
-0.342433
 30
0.000000
 11
-6.192020
 21
-0.354933
 31
0.000000
  0
LINE
  8
DIM
 62
     7
  6
CONTINUOUS
 10
-5.717020
 20
-0.342433
 30
0.000000
 11
-5.742020
 21
-0.354933
 31
0.000000
  0
LINE
  8
DIM
 62
     7
  6
CONTINUOUS
 10
-5.717020
 20
-0.342433
 30
0.000000
 11
-5.742020
 21
-0.329933
 31
0.000000
  0
TEXT
  8
DIM
 62
     7
 10
-6.277020
 20
-0.261153
 30
0.000000
 40
0.200000
  1
0.500
 72
     1
 11
-5.967020
 21
-0.261153
 31
0.000000
  0
LINE
  8
DIM
 62
     7
  6
CONTINUOUS
 10
-5.804071
 20
-1.987064
 30
0.000000
 11
-5.804071
 21
-2.711761
 31
0.000000
  0
LINE
  8
DIM
 62
     7
  6
CONTINUOUS
 10
-5.410271
 20
-1.987064
 30
0.000000
 11
-5.410271
 21
-2.711761
 31
0.000000
  0
LINE
  8
DIM
 62
     7
  6
CONTINUOUS
 10
-5.804071
 20
-2.707951
 30
0.000000
 11
-4.486998
 21
-2.707951
 31
0.000000
  0
LINE
  8
DIM
 62
     7
  6
CONTINUOUS
 10
-5.804071
 20
-2.707951
 30
0.000000
 11
-5.779071
 21
-2.695451
 31
0.000000
  0
LINE
  8
DIM
 62
     7
  6
CONTINUOUS
 10
-5.804071
 20
-2.707951
 30
0.000000
 11
-5.779071
 21
-2.720451
 31
0.000000
  0
LINE
  8
DIM
 62
     7
  6
CONTINUOUS
 10
-5.410271
 20
-2.707951
 30
0.000000
 11
-5.435271
 21
-2.720451
 31
0.000000
  0
LINE
  8
DIM
 62
     7
  6
CONTINUOUS
 10
-5.410271
 20
-2.707951
 30
0.000000
 11
-5.435271
 21
-2.695451
 31
0.000000
  0
TEXT
  8
DIM
 62
     7
 10
-5.252078
 20
-2.626671
 30
0.000000
 40
0.200000
  1
0.3938
 72
     1
 11
-4.872078
 21
-2.626671
 31
0.000000
  0
LINE
  8
DIM
 62
     7
  6
CONTINUOUS
 10
1.909856
 20
5.819502
 30
0.000000
 11
1.909856
 21
6.670772
 31
0.000000
  0
LINE
  8
DIM
 62
     7
  6
CONTINUOUS
 10
2.409856
 20
5.819502
 30
0.000000
 11
2.409856
 21
6.670772
 31
0.000000
  0
LINE
  8
DIM
 62
     7
  6
CONTINUOUS
 10
1.844776
 20
6.666962
 30
0.000000
 11
2.474936
 21
6.666962
 31
0.000000
  0
LINE
  8
DIM
 62
     7
  6
CONTINUOUS
 10
1.909856
 20
6.666962
 30
0.000000
 11
1.934856
 21
6.679462
 31
0.000000
  0
LINE
  8
DIM
 62
     7
  6
CONTINUOUS
 10
1.909856
 20
6.666962
 30
0.000000
 11
1.934856
 21
6.654462
 31
0.000000
  0
LINE
  8
DIM
 62
     7
  6
CONTINUOUS
 10
2.409856
 20
6.666962
 30
0.000000
 11
2.384856
 21
6.654462
 31
0.000000
  0
LINE
  8
DIM
 62
     7
  6
CONTINUOUS
 10
2.409856
 20
6.666962
 30
0.000000
 11
2.384856
 21
6.679462
 31
0.000000
  0
TEXT
  8
DIM
 62
     7
 10
1.849856
 20
6.748242
 30
0.000000
 40
0.200000
  1
0.500
 72
     1
 11
2.159856
 21
6.748242
 31
0.000000
  0
LINE
  8
DIM
 62
     7
  6
CONTINUOUS
 10
5.673059
 20
-0.583692
 30
0.000000
 11
5.673059
 21
0.267578
 31
0.000000
  0
LINE
  8
DIM
 62
     7
  6
CONTINUOUS
 10
6.173059
 20
-0.583692
 30
0.000000
 11
6.173059
 21
0.267578
 31
0.000000
  0
LINE
  8
DIM
 62
     7
  6
CONTINUOUS
 10
5.607979
 20
0.263768
 30
0.000000
 11
6.238139
 21
0.263768
 31
0.000000
  0
LINE
  8
DIM
 62
     7
  6
CONTINUOUS
 10
5.673059
 20
0.263768
 30
0.000000
 11
5.698059
 21
0.276268
 31
0.000000
  0
LINE
  8
DIM
 62
     7
  6
CONTINUOUS
 10
5.673059
 20
0.263768
 30
0.000000
 11
5.698059
 21
0.251268
 31
0.000000
  0
LINE
  8
DIM
 62
     7
  6
CONTINUOUS
 10
6.173059
 20
0.263768
 30
0.000000
 11
6.148059
 21
0.251268
 31
0.000000
  0
LINE
  8
DIM
 62
     7
  6
CONTINUOUS
 10
6.173059
 20
0.263768
 30
0.000000
 11
6.148059
 21
0.276268
 31
0.000000
  0
TEXT
  8
DIM
 62
     7
 10
5.613060
 20
0.345048
 30
0.000000
 40
0.200000
  1
0.500
 72
     1
 11
5.923059
 21
0.345048
 31
0.000000
  0
LINE
  8
DIM
 62
     7
  6
CONTINUOUS
 10
2.672695
 20
-5.237484
 30
-0.000000
 11
2.672695
 21
-4.386214
 31
-0.000000
  0
LINE
  8
DIM
 62
     7
  6
CONTINUOUS
 10
3.172695
 20
-5.237484
 30
-0.000000
 11
3.172695
 21
-4.386214
 31
-0.000000
  0
LINE
  8
DIM
 62
     7
  6
CONTINUOUS
 10
2.607615
 20
-4.390024
 30
-0.000000
 11
3.237775
 21
-4.390024
 31
-0.000000
  0
LINE
  8
DIM
 62
     7
  6
CONTINUOUS
 10
2.672695
 20
-4.390024
 30
-0.000000
 11
2.697695
 21
-4.377524
 31
-0.000000
  0
LINE
  8
DIM
 62
     7
  6
CONTINUOUS
 10
2.672695
 20
-4.390024
 30
-0.000000
 11
2.697695
 21
-4.402524
 31
-0.000000
  0
LINE
  8
DIM
 62
     7
  6
CONTINUOUS
 10
3.172695
 20
-4.390024
 30
-0.000000
 11
3.147695
 21
-4.402524
 31
-0.000000
  0
LINE
  8
DIM
 62
     7
  6
CONTINUOUS
 10
3.172695
 20
-4.390024
 30
-0.000000
 11
3.147695
 21
-4.377524
 31
-0.000000
  0
TEXT
  8
DIM
 62
     7
 10
2.612695
 20
-4.308744
 30
-0.000000
 40
0.200000
  1
0.500
 72
     1
 11
2.922695
 21
-4.308744
 31
-0.000000
  0
LINE
  8
DIM
 62
     7
  6
CONTINUOUS
 10
-3.675316
 20
-4.801334
 30
0.000000
 11
-3.675316
 21
-3.950064
 31
0.000000
  0
LINE
  8
DIM
 62
     7
  6
CONTINUOUS
 10
-3.175316
 20
-4.801334
 30
0.000000
 11
-3.175316
 21
-3.950064
 31
0.000000
  0
LINE
  8
DIM
 62
     7
  6
CONTINUOUS
 10
-3.740396
 20
-3.953874
 30
0.000000
 11
-3.110236
 21
-3.953874
 31
0.000000
  0
LINE
  8
DIM
 62
     7
  6
CONTINUOUS
 10
-3.675316
 20
-3.953874
 30
0.000000
 11
-3.650316
 21
-3.941374
 31
0.000000
  0
LINE
  8
DIM
 62
     7
  6
CONTINUOUS
 10
-3.675316
 20
-3.953874
 30
0.000000
 11
-3.650316
 21
-3.966374
 31
0.000000
  0
LINE
  8
DIM
 62
     7
  6
CONTINUOUS
 10
-3.175316
 20
-3.953874
 30
0.000000
 11
-3.200316
 21
-3.966374
 31
0.000000
  0
LINE
  8
DIM
 62
     7
  6
CONTINUOUS
 10
-3.175316
 20
-3.953874
 30
0.000000
 11
-3.200316
 21
-3.941374
 31
0.000000
  0
TEXT
  8
DIM
 62
     7
 10
-3.735316
 20
-3.872594
 30
0.000000
 40
0.200000
  1
0.500
 72
     1
 11
-3.425316
 21
-3.872594
 31
0.000000
  0
LINE
  8
DIM
 62
     7
  6
CONTINUOUS
 10
1.214444
 20
6.115738
 30
0.000000
 11
1.214444
 21
6.913908
 31
0.000000
  0
LINE
  8
DIM
 62
     7
  6
CONTINUOUS
 10
1.608244
 20
6.115738
 30
0.000000
 11
1.608244
 21
6.913908
 31
0.000000
  0
LINE
  8
DIM
 62
     7
  6
CONTINUOUS
 10
1.026264
 20
6.910098
 30
0.000000
 11
1.796424
 21
6.910098
 31
0.000000
  0
LINE
  8
DIM
 62
     7
  6
CONTINUOUS
 10
1.214444
 20
6.910098
 30
0.000000
 11
1.239444
 21
6.922598
 31
0.000000
  0
LINE
  8
DIM
 62
     7
  6
CONTINUOUS
 10
1.214444
 20
6.910098
 30
0.000000
 11
1.239444
 21
6.897598
 31
0.000000
  0
LINE
  8
DIM
 62
     7
  6
CONTINUOUS
 10
1.608244
 20
6.910098
 30
0.000000
 11
1.583244
 21
6.897598
 31
0.000000
  0
LINE
  8
DIM
 62
     7
  6
CONTINUOUS
 10
1.608244
 20
6.910098
 30
0.000000
 11
1.583244
 21
6.922598
 31
0.000000
  0
TEXT
  8
DIM
 62
     7
 10
1.031344
 20
6.991378
 30
0.000000
 40
0.200000
  1
0.3938
 72
     1
 11
1.411344
 21
6.991378
 31
0.000000
  0
TEXT
  8
DIM
 62
     7
 10
-6.333623
 20
3.548728
 30
0.000000
 40
0.200000
  1
Countersink holes on back side
 72
     1
 11
-4.513623
 21
3.548728
 31
0.000000
  0
ENDSEC
  0
EOF
