  0
SECTION
  2
HEADER
  9
$ACADVER
  1
AC1006
  0
ENDSEC
  0
SECTION
  2
TABLES
  0
TABLE
  2
LTYPE
 70
    25
  0
LTYPE
  2
CONTINUOUS
 70
    64
  3
Solid line
 72
    64
 73
     0
 40
0.000000
  0
LTYPE
  2
DASHDOT
 70
    64
  3
__ . __ . __ . __ . __ . __ . __ . __ . __ . __
 72
    65
 73
     4
 40
1.000000
 49
0.500000
 49
-0.250000
 49
0.000000
 49
-0.250000
  0
LTYPE
  2
DASHED
 70
    64
  3
__ __ __ __ __ __ __ __ __ __ __ __ __ __ __ __
 72
    65
 73
     2
 40
0.750000
 49
0.500000
 49
-0.250000
  0
LTYPE
  2
DIVIDE
 70
    64
  3
____ . . ____ . . ____ . . ____ . . ____ . . __
 72
    65
 73
     6
 40
1.250000
 49
0.500000
 49
-0.250000
 49
0.000000
 49
-0.250000
 49
0.000000
 49
-0.250000
  0
LTYPE
  2
DOT
 70
    64
  3
. . . . . . . . . . . . . . . . . . . . . . . . 
 72
    65
 73
     2
 40
0.250000
 49
0.000000
 49
-0.250000
  0
ENDTAB
  0
ENDSEC
  0
SECTION
  2
BLOCKS
  0
BLOCK
  8
0
  2
Object_0
 70
    64
 10
0.000000
 20
0.000000
 30
0.000000
  0
ENDBLK
  0
ENDSEC
  0
SECTION
  2
ENTITIES
  0
LINE
  8
Default
 62
     6
  6
CONTINUOUS
 10
-0.113279
 20
-1.693516
 30
0.000000
 11
-6.125344
 21
-1.291370
 31
0.000000
  0
POINT
  8
Default
 62
     7
 10
0.000005
 20
6.286393
 30
0.000000
  0
LINE
  8
Default
 62
     6
  6
CONTINUOUS
 10
-0.113279
 20
-1.693516
 30
0.000000
 11
5.898786
 21
-2.095661
 31
0.000000
  0
CIRCLE
  8
Default
 62
     6
  6
CONTINUOUS
 10
5.898786
 20
-2.095661
 30
0.000000
 40
0.315000
  0
POINT
  8
Default
 62
     7
 10
-0.113279
 20
-1.693516
 30
0.000000
  0
LINE
  8
Default
 62
     6
  6
CONTINUOUS
 10
0.000002
 20
0.000036
 30
0.000000
 11
-0.113279
 21
-1.693516
 31
0.000000
  0
LINE
  8
Default
 62
     6
  6
CONTINUOUS
 10
0.000002
 20
0.000036
 30
0.000000
 11
5.898786
 21
-2.095661
 31
0.000000
  0
LINE
  8
Default
 62
     6
  6
CONTINUOUS
 10
0.000002
 20
0.000036
 30
0.000000
 11
-6.125344
 21
-1.291370
 31
0.000000
  0
LINE
  8
Default
 62
     7
  6
CONTINUOUS
 10
0.002723
 20
0.007695
 30
0.000000
 11
0.032592
 21
0.091767
 31
0.000000
  0
LINE
  8
Default
 62
     7
  6
CONTINUOUS
 10
5.901507
 20
-2.088002
 30
0.000000
 11
5.931377
 21
-2.003929
 31
0.000000
  0
LINE
  8
Default
 62
     7
  6
CONTINUOUS
 10
0.028511
 20
0.080279
 30
0.000000
 11
5.927295
 21
-2.015417
 31
0.000000
  0
LINE
  8
Default
 62
     7
  6
CONTINUOUS
 10
0.028511
 20
0.080279
 30
0.000000
 11
0.107912
 21
0.064804
 31
0.000000
  0
LINE
  8
Default
 62
     7
  6
CONTINUOUS
 10
0.028511
 20
0.080279
 30
0.000000
 11
0.099877
 21
0.042189
 31
0.000000
  0
LINE
  8
Default
 62
     7
  6
CONTINUOUS
 10
5.927295
 20
-2.015417
 30
0.000000
 11
5.847894
 21
-1.999943
 31
0.000000
  0
LINE
  8
Default
 62
     7
  6
CONTINUOUS
 10
5.927295
 20
-2.015417
 30
0.000000
 11
5.855929
 21
-1.977328
 31
0.000000
  0
TEXT
  8
Default
 62
     7
 10
4.071339
 20
-1.194308
 30
0.000000
 40
0.375000
  1
6.2600
 50
-19.558901
 72
     1
 11
4.742726
 21
-1.432836
 31
0.000000
  0
LINE
  8
Default
 62
     7
  6
CONTINUOUS
 10
5.898244
 20
-2.103771
 30
0.000000
 11
5.853479
 21
-2.773006
 31
0.000000
  0
LINE
  8
Default
 62
     7
  6
CONTINUOUS
 10
-0.113821
 20
-1.701626
 30
0.000000
 11
-0.158586
 21
-2.370861
 31
0.000000
  0
LINE
  8
Default
 62
     7
  6
CONTINUOUS
 10
5.854293
 20
-2.760841
 30
0.000000
 11
-0.157773
 21
-2.358696
 31
0.000000
  0
LINE
  8
Default
 62
     7
  6
CONTINUOUS
 10
5.854293
 20
-2.760841
 30
0.000000
 11
5.773670
 21
-2.767475
 31
0.000000
  0
LINE
  8
Default
 62
     7
  6
CONTINUOUS
 10
5.854293
 20
-2.760841
 30
0.000000
 11
5.775272
 21
-2.743529
 31
0.000000
  0
LINE
  8
Default
 62
     7
  6
CONTINUOUS
 10
-0.157773
 20
-2.358696
 30
0.000000
 11
-0.077150
 21
-2.352062
 31
0.000000
  0
LINE
  8
Default
 62
     7
  6
CONTINUOUS
 10
-0.157773
 20
-2.358696
 30
0.000000
 11
-0.078752
 21
-2.376009
 31
0.000000
  0
TEXT
  8
Default
 62
     7
 10
2.275110
 20
-2.368690
 30
0.000000
 40
0.375000
  1
6.0255
 50
-3.826795
 72
     1
 11
2.986021
 21
-2.416243
 31
0.000000
  0
LINE
  8
Default
 62
     7
  6
CONTINUOUS
 10
-6.125887
 20
-1.299480
 30
0.000000
 11
-6.215029
 21
-2.632160
 31
0.000000
  0
LINE
  8
Default
 62
     7
  6
CONTINUOUS
 10
5.898244
 20
-2.103771
 30
0.000000
 11
5.809101
 21
-3.436451
 31
0.000000
  0
LINE
  8
Default
 62
     7
  6
CONTINUOUS
 10
-6.214216
 20
-2.619995
 30
0.000000
 11
5.809915
 21
-3.424286
 31
0.000000
  0
LINE
  8
Default
 62
     7
  6
CONTINUOUS
 10
-6.214216
 20
-2.619995
 30
0.000000
 11
-6.133593
 21
-2.613361
 31
0.000000
  0
LINE
  8
Default
 62
     7
  6
CONTINUOUS
 10
-6.214216
 20
-2.619995
 30
0.000000
 11
-6.135195
 21
-2.637308
 31
0.000000
  0
LINE
  8
Default
 62
     7
  6
CONTINUOUS
 10
5.809915
 20
-3.424286
 30
0.000000
 11
5.729292
 21
-3.430920
 31
0.000000
  0
LINE
  8
Default
 62
     7
  6
CONTINUOUS
 10
5.809915
 20
-3.424286
 30
0.000000
 11
5.730894
 21
-3.406974
 31
0.000000
  0
TEXT
  8
Default
 62
     7
 10
-0.962646
 20
-2.818531
 30
0.000000
 40
0.375000
  1
12.0510
 50
-3.826800
 72
     1
 11
-0.195610
 21
-2.869838
 31
0.000000
  0
LINE
  8
Default
 62
     7
  6
CONTINUOUS
 10
0.008112
 20
-0.000507
 30
0.000000
 11
0.152479
 21
-0.010163
 31
0.000000
  0
LINE
  8
Default
 62
     7
  6
CONTINUOUS
 10
-0.105169
 20
-1.694058
 30
0.000000
 11
0.039197
 21
-1.703715
 31
0.000000
  0
LINE
  8
Default
 62
     7
  6
CONTINUOUS
 10
0.140314
 20
-0.009349
 30
0.000000
 11
0.107254
 21
-0.503592
 31
0.000000
  0
LINE
  8
Default
 62
     7
  6
CONTINUOUS
 10
0.067543
 20
-1.097277
 30
0.000000
 11
0.027033
 21
-1.702901
 31
0.000000
  0
LINE
  8
Default
 62
     7
  6
CONTINUOUS
 10
0.140314
 20
-0.009349
 30
0.000000
 11
0.146948
 21
-0.089972
 31
0.000000
  0
LINE
  8
Default
 62
     7
  6
CONTINUOUS
 10
0.140314
 20
-0.009349
 30
0.000000
 11
0.123001
 21
-0.088370
 31
0.000000
  0
LINE
  8
Default
 62
     7
  6
CONTINUOUS
 10
0.027033
 20
-1.702901
 30
0.000000
 11
0.020399
 21
-1.622279
 31
0.000000
  0
LINE
  8
Default
 62
     7
  6
CONTINUOUS
 10
0.027033
 20
-1.702901
 30
0.000000
 11
0.044345
 21
-1.623880
 31
0.000000
  0
TEXT
  8
Default
 62
     7
 10
-0.597359
 20
-0.923758
 30
0.000000
 40
0.375000
  1
1.6973
 50
-3.826800
 72
     1
 11
0.076136
 21
-0.968808
 31
0.000000
  0
LINE
  8
Default
 62
     7
  6
CONTINUOUS
 10
-6.125887
 20
-1.299480
 30
0.000000
 11
-6.170651
 21
-1.968715
 31
0.000000
  0
LINE
  8
Default
 62
     7
  6
CONTINUOUS
 10
-0.113821
 20
-1.701626
 30
0.000000
 11
-0.158586
 21
-2.370861
 31
0.000000
  0
LINE
  8
Default
 62
     7
  6
CONTINUOUS
 10
-6.169838
 20
-1.956550
 30
0.000000
 11
-0.157773
 21
-2.358696
 31
0.000000
  0
LINE
  8
Default
 62
     7
  6
CONTINUOUS
 10
-6.169838
 20
-1.956550
 30
0.000000
 11
-6.089215
 21
-1.949916
 31
0.000000
  0
LINE
  8
Default
 62
     7
  6
CONTINUOUS
 10
-6.169838
 20
-1.956550
 30
0.000000
 11
-6.090817
 21
-1.973863
 31
0.000000
  0
LINE
  8
Default
 62
     7
  6
CONTINUOUS
 10
-0.157773
 20
-2.358696
 30
0.000000
 11
-0.238395
 21
-2.365330
 31
0.000000
  0
LINE
  8
Default
 62
     7
  6
CONTINUOUS
 10
-0.157773
 20
-2.358696
 30
0.000000
 11
-0.236793
 21
-2.341383
 31
0.000000
  0
TEXT
  8
Default
 62
     7
 10
-3.960955
 20
-1.951561
 30
0.000000
 40
0.375000
  1
6.0255
 50
-3.826800
 72
     1
 11
-3.250044
 21
-1.999114
 31
0.000000
  0
LINE
  8
Default
 62
     7
  6
CONTINUOUS
 10
-6.127021
 20
-1.283417
 30
0.000000
 11
-6.143854
 21
-1.203575
 31
0.000000
  0
LINE
  8
Default
 62
     7
  6
CONTINUOUS
 10
-0.001674
 20
0.007989
 30
0.000000
 11
-0.018507
 21
0.087831
 31
0.000000
  0
LINE
  8
Default
 62
     7
  6
CONTINUOUS
 10
-6.141339
 20
-1.215505
 30
0.000000
 11
-0.015992
 21
0.075901
 31
0.000000
  0
LINE
  8
Default
 62
     7
  6
CONTINUOUS
 10
-6.141339
 20
-1.215505
 30
0.000000
 11
-6.065535
 21
-1.187260
 31
0.000000
  0
LINE
  8
Default
 62
     7
  6
CONTINUOUS
 10
-6.141339
 20
-1.215505
 30
0.000000
 11
-6.060584
 21
-1.210743
 31
0.000000
  0
LINE
  8
Default
 62
     7
  6
CONTINUOUS
 10
-0.015992
 20
0.075901
 30
0.000000
 11
-0.091796
 21
0.047655
 31
0.000000
  0
LINE
  8
Default
 62
     7
  6
CONTINUOUS
 10
-0.015992
 20
0.075901
 30
0.000000
 11
-0.096747
 21
0.071139
 31
0.000000
  0
TEXT
  8
Default
 62
     7
 10
-6.086704
 20
-1.048236
 30
0.000000
 40
0.375000
  1
6.2600
 50
11.905312
 72
     1
 11
-5.389530
 21
-0.901251
 31
0.000000
  0
POINT
  8
Default
 62
     7
 10
-6.125344
 20
-1.291370
 30
0.000000
  0
CIRCLE
  8
Default
 62
     6
  6
CONTINUOUS
 10
-6.125344
 20
-1.291370
 30
0.000000
 40
0.315000
  0
CIRCLE
  8
Default
 62
     9
  6
CONTINUOUS
 10
0.000000
 20
0.000000
 30
-0.125000
 40
4.251000
  0
CIRCLE
  8
Default
 62
     9
  6
CONTINUOUS
 10
0.000000
 20
0.000000
 30
-0.625000
 40
3.000000
  0
CIRCLE
  8
Default
 62
     9
  6
CONTINUOUS
 10
0.000000
 20
3.625000
 30
0.000000
 40
0.265625
  0
CIRCLE
  8
Default
 62
     9
  6
CONTINUOUS
 10
3.625000
 20
0.000000
 30
0.000000
 40
0.265625
  0
CIRCLE
  8
Default
 62
     9
  6
CONTINUOUS
 10
-3.625000
 20
0.000000
 30
0.000000
 40
0.265625
  0
CIRCLE
  8
Default
 62
     9
  6
CONTINUOUS
 10
-0.000000
 20
-3.625000
 30
0.000000
 40
0.265625
  0
CIRCLE
  8
Default
 62
     3
  6
CONTINUOUS
 10
0.000000
 20
0.000000
 30
0.000000
 40
5.453000
  0
POINT
  8
Default
 62
     7
 10
-4.975343
 20
2.971226
 30
0.000000
  0
CIRCLE
  8
Default
 62
     6
  6
CONTINUOUS
 10
-4.975343
 20
2.971226
 30
0.000000
 40
0.156250
  0
POINT
  8
Default
 62
     7
 10
5.837293
 20
2.288908
 30
0.000000
  0
CIRCLE
  8
Default
 62
     6
  6
CONTINUOUS
 10
5.837293
 20
2.288908
 30
0.000000
 40
0.218750
  0
POINT
  8
Default
 62
     7
 10
-2.623615
 20
6.437350
 30
0.000000
  0
CIRCLE
  8
Default
 62
     6
  6
CONTINUOUS
 10
2.573707
 20
6.138308
 30
0.000000
 40
0.218750
  0
CIRCLE
  8
Default
 62
     6
  6
CONTINUOUS
 10
-2.623615
 20
6.437350
 30
0.000000
 40
0.218750
  0
POINT
  8
Default
 62
     7
 10
-1.877725
 20
-5.514856
 30
0.000000
  0
CIRCLE
  8
Default
 62
     6
  6
CONTINUOUS
 10
-1.877725
 20
-5.514856
 30
0.000000
 40
0.156250
  0
POINT
  8
Default
 62
     7
 10
3.831855
 20
-4.345288
 30
0.000000
  0
CIRCLE
  8
Default
 62
     6
  6
CONTINUOUS
 10
3.831855
 20
-4.345288
 30
0.000000
 40
0.156250
  0
POINT
  8
Default
 62
     7
 10
0.000002
 20
0.000036
 30
0.000000
  0
ARC
  8
Default
 62
     6
  6
CONTINUOUS
 10
5.837293
 20
2.288908
 30
0.000000
 40
0.585000
 50
334.199628
 51
428.622447
  0
LINE
  8
Default
 62
     6
  6
CONTINUOUS
 10
5.957823
 20
1.194136
 30
0.000000
 11
6.363978
 21
2.034294
 31
0.000000
  0
ARC
  8
Default
 62
     6
  6
CONTINUOUS
 10
6.858139
 20
0.758899
 30
0.000000
 40
1.000000
 50
154.199628
 51
186.314470
  0
ARC
  8
Default
 62
     6
  6
CONTINUOUS
 10
0.000000
 20
0.000000
 30
0.000000
 40
5.900000
 50
355.439456
 51
366.314470
  0
ARC
  8
Default
 62
     6
  6
CONTINUOUS
 10
6.878154
 20
-0.548636
 30
0.000000
 40
1.000000
 50
175.439456
 51
204.918384
  0
LINE
  8
Default
 62
     6
  6
CONTINUOUS
 10
5.971245
 20
-0.969963
 30
0.000000
 11
6.388517
 21
-1.868145
 31
0.000000
  0
POINT
  8
Default
 62
     7
 10
2.573707
 20
6.138308
 30
0.000000
  0
ARC
  8
Default
 62
     6
  6
CONTINUOUS
 10
5.898786
 20
-2.095661
 30
0.000000
 40
0.540000
 50
319.822422
 51
384.918384
  0
ARC
  8
Default
 62
     6
  6
CONTINUOUS
 10
-0.479273
 20
2.384854
 30
0.000000
 40
8.332536
 50
259.961177
 51
324.582961
  0
ARC
  8
Default
 62
     6
  6
CONTINUOUS
 10
-1.877725
 20
-5.514856
 30
0.000000
 40
0.310000
 50
238.147175
 51
259.961177
  0
ARC
  8
Default
 62
     6
  6
CONTINUOUS
 10
6.447554
 20
7.884843
 30
0.000000
 40
16.085367
 50
216.123492
 51
238.147175
  0
ARC
  8
Default
 62
     6
  6
CONTINUOUS
 10
-6.125344
 20
-1.291370
 30
0.000000
 40
0.520000
 50
104.697695
 51
216.123492
  0
ARC
  8
Default
 62
     6
  6
CONTINUOUS
 10
-6.797995
 20
1.273041
 30
0.000000
 40
2.131163
 50
284.697695
 51
402.975341
  0
ARC
  8
Default
 62
     6
  6
CONTINUOUS
 10
-4.975343
 20
2.971226
 30
0.000000
 40
0.360000
 50
131.940813
 51
222.975341
  0
LINE
  8
Default
 62
     6
  6
CONTINUOUS
 10
-5.215953
 20
3.239006
 30
0.000000
 11
-3.966159
 21
4.361991
 31
0.000000
  0
ARC
  8
Default
 62
     6
  6
CONTINUOUS
 10
-4.634521
 20
5.105826
 30
0.000000
 40
1.000000
 50
311.940813
 51
341.817438
  0
LINE
  8
Default
 62
     6
  6
CONTINUOUS
 10
-3.684454
 20
4.793780
 30
0.000000
 11
-3.093898
 21
6.591813
 31
0.000000
  0
ARC
  8
Default
 62
     6
  6
CONTINUOUS
 10
-2.623615
 20
6.437350
 30
0.000000
 40
0.495000
 50
89.569683
 51
161.817438
  0
ARC
  8
Default
 62
     6
  6
CONTINUOUS
 10
0.000000
 20
0.000000
 30
0.000000
 40
5.900000
 50
340.441426
 51
340.472818
  0
ARC
  8
Default
 62
     6
  6
CONTINUOUS
 10
0.000000
 20
0.000000
 30
0.000000
 40
5.900000
 50
152.529466
 51
152.530024
  0
LINE
  8
Default
 62
     6
  6
CONTINUOUS
 10
2.579377
 20
6.893286
 30
0.000000
 11
-2.619897
 21
6.932336
 31
0.000000
  0
ARC
  8
Default
 62
     6
  6
CONTINUOUS
 10
2.573707
 20
6.138308
 30
0.000000
 40
0.755000
 50
17.144089
 51
89.569683
  0
CIRCLE
  8
Default
 62
     6
  6
CONTINUOUS
 10
0.000005
 20
6.286393
 30
0.000000
 40
0.156250
  0
LINE
  8
Default
 62
     6
  6
CONTINUOUS
 10
3.808586
 20
4.696501
 30
0.000000
 11
3.295159
 21
6.360863
 31
0.000000
  0
ARC
  8
Default
 62
     6
  6
CONTINUOUS
 10
4.764153
 20
4.991277
 30
0.000000
 40
1.000000
 50
197.144089
 51
226.333710
  0
ARC
  8
Default
 62
     6
  6
CONTINUOUS
 10
0.000000
 20
0.000000
 30
0.000000
 40
5.900000
 50
36.507605
 51
46.333710
  0
ARC
  8
Default
 62
     6
  6
CONTINUOUS
 10
5.546068
 20
4.105013
 30
-0.000000
 40
1.000000
 50
216.507605
 51
248.622447
  0
LINE
  8
Default
 62
     6
  6
CONTINUOUS
 10
5.181556
 20
3.173815
 30
-0.000000
 11
6.050533
 21
2.833659
 31
0.000000
  0
LINE
  8
Default
 62
     7
  6
CONTINUOUS
 10
-5.297895
 20
6.645148
 30
0.000000
 11
-5.256657
 21
6.641944
 31
0.000000
  0
LINE
  8
Default
 62
     7
  6
CONTINUOUS
 10
-4.856492
 20
6.610850
 30
0.000000
 11
-2.623615
 21
6.437350
 31
0.000000
  0
LINE
  8
Default
 62
     7
  6
CONTINUOUS
 10
-2.841707
 20
6.454297
 30
0.000000
 11
-2.922397
 21
6.448530
 31
0.000000
  0
LINE
  8
Default
 62
     7
  6
CONTINUOUS
 10
-2.841707
 20
6.454297
 30
0.000000
 11
-2.920537
 21
6.472458
 31
0.000000
  0
TEXT
  8
Default
 62
     7
 10
-5.088050
 20
6.724609
 30
0.000000
 40
0.375000
  1
R0.4375
 72
     1
 11
-4.206800
 21
6.724609
 31
0.000000
  0
LINE
  8
Default
 62
     7
  6
CONTINUOUS
 10
-7.427179
 20
2.966673
 30
0.000000
 11
-4.975342
 21
2.971226
 31
0.000000
  0
LINE
  8
Default
 62
     7
  6
CONTINUOUS
 10
-5.131592
 20
2.970935
 30
0.000000
 11
-5.211570
 21
2.958787
 31
0.000000
  0
LINE
  8
Default
 62
     7
  6
CONTINUOUS
 10
-5.131592
 20
2.970935
 30
0.000000
 11
-5.211614
 21
2.982787
 31
0.000000
  0
TEXT
  8
Default
 62
     7
 10
-7.258600
 20
3.120635
 30
0.000000
 40
0.375000
  1
R0.3125
 72
     1
 11
-6.433600
 21
3.120635
 31
0.000000
  0
LINE
  8
Default
 62
     7
  6
CONTINUOUS
 10
-8.699343
 20
-1.274603
 30
0.000000
 11
-6.125344
 21
-1.291370
 31
0.000000
  0
LINE
  8
Default
 62
     7
  6
CONTINUOUS
 10
-6.440337
 20
-1.289318
 30
0.000000
 11
-6.520414
 21
-1.300797
 31
0.000000
  0
LINE
  8
Default
 62
     7
  6
CONTINUOUS
 10
-6.440337
 20
-1.289318
 30
0.000000
 11
-6.520257
 21
-1.276797
 31
0.000000
  0
TEXT
  8
Default
 62
     7
 10
-8.526800
 20
-1.127952
 30
0.000000
 40
0.375000
  1
R0.6300
 72
     1
 11
-7.664300
 21
-1.127952
 31
0.000000
  0
LINE
  8
Default
 62
     7
  6
CONTINUOUS
 10
-5.727651
 20
-5.532877
 30
0.000000
 11
-1.877725
 21
-5.514856
 31
0.000000
  0
LINE
  8
Default
 62
     7
  6
CONTINUOUS
 10
-2.033973
 20
-5.515587
 30
0.000000
 11
-2.113916
 21
-5.527962
 31
0.000000
  0
LINE
  8
Default
 62
     7
  6
CONTINUOUS
 10
-2.033973
 20
-5.515587
 30
0.000000
 11
-2.114029
 21
-5.503962
 31
0.000000
  0
TEXT
  8
Default
 62
     7
 10
-5.559200
 20
-5.376540
 30
0.000000
 40
0.375000
  1
R0.3125
 72
     1
 11
-4.734200
 21
-5.376540
 31
0.000000
  0
LINE
  8
Default
 62
     7
  6
CONTINUOUS
 10
1.566829
 20
7.908446
 30
0.000000
 11
1.449483
 21
7.786963
 31
0.000000
  0
LINE
  8
Default
 62
     7
  6
CONTINUOUS
 10
0.883547
 20
7.201079
 30
0.000000
 11
0.000005
 21
6.286393
 31
0.000000
  0
LINE
  8
Default
 62
     7
  6
CONTINUOUS
 10
0.108560
 20
6.398775
 30
0.000000
 11
0.155510
 21
6.464652
 31
0.000000
  0
LINE
  8
Default
 62
     7
  6
CONTINUOUS
 10
0.108560
 20
6.398775
 30
0.000000
 11
0.172772
 21
6.447978
 31
0.000000
  0
TEXT
  8
Default
 62
     7
 10
0.183700
 20
7.325271
 30
0.000000
 40
0.375000
  1
R0.3125
 72
     1
 11
1.008700
 21
7.325271
 31
0.000000
  0
INSERT
  8
Default
 62
     7
  2
Object_0
 10
-10.160000
 20
-10.160000
 30
0.000000
  0
POINT
  8
Default
 62
     7
 10
5.898786
 20
-2.095661
 30
0.000000
  0
CIRCLE
  8
Default
 62
     6
  6
CONTINUOUS
 10
5.898786
 20
-2.095661
 30
0.000000
 40
0.122500
  0
CIRCLE
  8
Default
 62
     6
  6
CONTINUOUS
 10
5.898786
 20
-2.095661
 30
0.000000
 40
0.127500
  0
CIRCLE
  8
Default
 62
     6
  6
CONTINUOUS
 10
-6.125344
 20
-1.291370
 30
0.000000
 40
0.122500
  0
CIRCLE
  8
Default
 62
     6
  6
CONTINUOUS
 10
-6.125344
 20
-1.291370
 30
0.000000
 40
0.127500
  0
ARC
  8
Default
 62
     6
  6
CONTINUOUS
 10
8.495476
 20
1.003871
 30
0.000000
 40
2.000000
 50
154.199628
 51
244.199628
  0
ARC
  8
Default
 62
     6
  6
CONTINUOUS
 10
5.837293
 20
2.288908
 30
0.000000
 40
0.952500
 50
334.199628
 51
428.622447
  0
LINE
  8
Default
 62
     6
  6
CONTINUOUS
 10
6.184491
 20
3.175874
 30
0.000000
 11
5.315514
 21
3.516030
 31
-0.000000
  0
ARC
  8
Default
 62
     6
  6
CONTINUOUS
 10
5.546068
 20
4.105013
 30
-0.000000
 40
0.632500
 50
216.507605
 51
248.622447
  0
ARC
  8
Default
 62
     6
  6
CONTINUOUS
 10
0.000000
 20
0.000000
 30
0.000000
 40
6.267500
 50
36.507605
 51
46.333710
  0
ARC
  8
Default
 62
     6
  6
CONTINUOUS
 10
4.764153
 20
4.991277
 30
0.000000
 40
0.632500
 50
197.144089
 51
226.333710
  0
LINE
  8
Default
 62
     6
  6
CONTINUOUS
 10
4.159757
 20
4.804832
 30
0.000000
 11
3.646330
 21
6.469194
 31
0.000000
  0
ARC
  8
Default
 62
     6
  6
CONTINUOUS
 10
2.573707
 20
6.138308
 30
0.000000
 40
1.122500
 50
17.144089
 51
89.569683
  0
LINE
  8
Default
 62
     6
  6
CONTINUOUS
 10
2.582137
 20
7.260776
 30
0.000000
 11
-2.617137
 21
7.299826
 31
0.000000
  0
ARC
  8
Default
 62
     6
  6
CONTINUOUS
 10
-2.623615
 20
6.437350
 30
0.000000
 40
0.862500
 50
89.569683
 51
161.817438
  0
LINE
  8
Default
 62
     6
  6
CONTINUOUS
 10
-3.443047
 20
6.706490
 30
0.000000
 11
-4.033604
 21
4.908457
 31
0.000000
  0
ARC
  8
Default
 62
     6
  6
CONTINUOUS
 10
-4.634521
 20
5.105826
 30
0.000000
 40
0.632500
 50
311.940813
 51
341.817438
  0
LINE
  8
Default
 62
     6
  6
CONTINUOUS
 10
-4.211782
 20
4.635350
 30
0.000000
 11
-5.461576
 21
3.512366
 31
0.000000
  0
ARC
  8
Default
 62
     6
  6
CONTINUOUS
 10
-4.975343
 20
2.971226
 30
0.000000
 40
0.727500
 50
131.940813
 51
222.975341
  0
ARC
  8
Default
 62
     6
  6
CONTINUOUS
 10
-6.797995
 20
1.273041
 30
0.000000
 40
1.763663
 50
284.697695
 51
402.975341
  0
ARC
  8
Default
 62
     6
  6
CONTINUOUS
 10
-6.125344
 20
-1.291370
 30
0.000000
 40
0.887500
 50
104.697695
 51
216.123492
  0
ARC
  8
Default
 62
     6
  6
CONTINUOUS
 10
6.447554
 20
7.884843
 30
0.000000
 40
16.452867
 50
216.123492
 51
238.147175
  0
ARC
  8
Default
 62
     6
  6
CONTINUOUS
 10
-1.877725
 20
-5.514856
 30
0.000000
 40
0.677500
 50
238.147175
 51
259.961177
  0
ARC
  8
Default
 62
     6
  6
CONTINUOUS
 10
-0.479273
 20
2.384854
 30
0.000000
 40
8.700036
 50
259.961177
 51
324.494291
  0
ARC
  8
Default
 62
     6
  6
CONTINUOUS
 10
5.898786
 20
-2.095661
 30
0.000000
 40
0.907500
 50
320.900904
 51
384.918384
  0
LINE
  8
Default
 62
     6
  6
CONTINUOUS
 10
6.721806
 20
-1.713307
 30
0.000000
 11
6.304534
 21
-0.815125
 31
0.000000
  0
ARC
  8
Default
 62
     6
  6
CONTINUOUS
 10
6.878154
 20
-0.548636
 30
0.000000
 40
0.632500
 50
175.439456
 51
204.918384
  0
ARC
  8
Default
 62
     6
  6
CONTINUOUS
 10
0.000000
 20
0.000000
 30
0.000000
 40
6.267500
 50
355.439456
 51
366.314470
  0
ARC
  8
Default
 62
     6
  6
CONTINUOUS
 10
6.858139
 20
0.758899
 30
0.000000
 40
0.632500
 50
154.199628
 51
186.314470
  0
LINE
  8
Default
 62
     6
  6
CONTINUOUS
 10
6.288689
 20
1.034186
 30
0.000000
 11
6.694844
 21
1.874344
 31
0.000000
  0
ARC
  8
Default
 62
     6
  6
CONTINUOUS
 10
8.495476
 20
1.003871
 30
0.000000
 40
2.000000
 50
64.199628
 51
154.199628
  0
ARC
  8
Default
 62
     6
  6
CONTINUOUS
 10
5.837293
 20
2.288908
 30
0.000000
 40
0.947500
 50
334.199628
 51
428.622447
  0
LINE
  8
Default
 62
     6
  6
CONTINUOUS
 10
6.690343
 20
1.876521
 30
0.000000
 11
6.284188
 21
1.036362
 31
0.000000
  0
ARC
  8
Default
 62
     6
  6
CONTINUOUS
 10
6.858139
 20
0.758899
 30
0.000000
 40
0.637500
 50
154.199628
 51
186.314470
  0
ARC
  8
Default
 62
     6
  6
CONTINUOUS
 10
0.000000
 20
0.000000
 30
0.000000
 40
6.262500
 50
355.439456
 51
366.314470
  0
ARC
  8
Default
 62
     6
  6
CONTINUOUS
 10
6.878154
 20
-0.548636
 30
0.000000
 40
0.637500
 50
175.439456
 51
204.918384
  0
LINE
  8
Default
 62
     6
  6
CONTINUOUS
 10
6.299999
 20
-0.817232
 30
0.000000
 11
6.717272
 21
-1.715414
 31
0.000000
  0
ARC
  8
Default
 62
     6
  6
CONTINUOUS
 10
5.898786
 20
-2.095661
 30
0.000000
 40
0.902500
 50
320.890959
 51
384.918384
  0
ARC
  8
Default
 62
     6
  6
CONTINUOUS
 10
-0.479273
 20
2.384854
 30
0.000000
 40
8.695036
 50
259.961177
 51
324.495325
  0
ARC
  8
Default
 62
     6
  6
CONTINUOUS
 10
-1.877725
 20
-5.514856
 30
0.000000
 40
0.672500
 50
238.147175
 51
259.961177
  0
ARC
  8
Default
 62
     6
  6
CONTINUOUS
 10
6.447554
 20
7.884843
 30
0.000000
 40
16.447867
 50
216.123492
 51
238.147175
  0
ARC
  8
Default
 62
     6
  6
CONTINUOUS
 10
-6.125344
 20
-1.291370
 30
0.000000
 40
0.882500
 50
104.697695
 51
216.123492
  0
ARC
  8
Default
 62
     6
  6
CONTINUOUS
 10
-6.797995
 20
1.273041
 30
0.000000
 40
1.768663
 50
284.697695
 51
402.975341
  0
ARC
  8
Default
 62
     6
  6
CONTINUOUS
 10
-4.975343
 20
2.971226
 30
0.000000
 40
0.722500
 50
131.940813
 51
222.975341
  0
LINE
  8
Default
 62
     6
  6
CONTINUOUS
 10
-5.458235
 20
3.508647
 30
0.000000
 11
-4.208440
 21
4.631631
 31
0.000000
  0
ARC
  8
Default
 62
     6
  6
CONTINUOUS
 10
-4.634521
 20
5.105826
 30
0.000000
 40
0.637500
 50
311.940813
 51
341.817438
  0
LINE
  8
Default
 62
     6
  6
CONTINUOUS
 10
-4.028854
 20
4.906897
 30
0.000000
 11
-3.438297
 21
6.704929
 31
0.000000
  0
ARC
  8
Default
 62
     6
  6
CONTINUOUS
 10
-2.623615
 20
6.437350
 30
0.000000
 40
0.857500
 50
89.569683
 51
161.817438
  0
LINE
  8
Default
 62
     6
  6
CONTINUOUS
 10
-2.617174
 20
7.294826
 30
0.000000
 11
2.582100
 21
7.255776
 31
0.000000
  0
ARC
  8
Default
 62
     6
  6
CONTINUOUS
 10
2.573707
 20
6.138308
 30
0.000000
 40
1.117500
 50
17.144089
 51
89.569683
  0
LINE
  8
Default
 62
     6
  6
CONTINUOUS
 10
3.641552
 20
6.467720
 30
0.000000
 11
4.154979
 21
4.803358
 31
0.000000
  0
ARC
  8
Default
 62
     6
  6
CONTINUOUS
 10
4.764153
 20
4.991277
 30
0.000000
 40
0.637500
 50
197.144089
 51
226.333710
  0
ARC
  8
Default
 62
     6
  6
CONTINUOUS
 10
0.000000
 20
0.000000
 30
0.000000
 40
6.262500
 50
36.507605
 51
46.333710
  0
ARC
  8
Default
 62
     6
  6
CONTINUOUS
 10
5.546068
 20
4.105013
 30
-0.000000
 40
0.637500
 50
216.507605
 51
248.622447
  0
LINE
  8
Default
 62
     6
  6
CONTINUOUS
 10
5.313691
 20
3.511374
 30
-0.000000
 11
6.182669
 21
3.171218
 31
0.000000
  0
CIRCLE
  8
Default
 62
     6
  6
CONTINUOUS
 10
0.000000
 20
0.000000
 30
-0.625000
 40
2.632500
  0
CIRCLE
  8
Default
 62
     6
  6
CONTINUOUS
 10
0.000000
 20
0.000000
 30
-0.625000
 40
2.637500
  0
ENDSEC
  0
EOF
